<?xml version="1.0" encoding="utf-8" standalone="no"?>
<!DOCTYPE svg PUBLIC "-//W3C//DTD SVG 1.1//EN"
  "http://www.w3.org/Graphics/SVG/1.1/DTD/svg11.dtd">
<!-- Created with matplotlib (http://matplotlib.org/) -->
<svg height="345.6pt" version="1.1" viewBox="0 0 460.8 345.6" width="460.8pt" xmlns="http://www.w3.org/2000/svg" xmlns:xlink="http://www.w3.org/1999/xlink">
 <defs>
  <style type="text/css">
*{stroke-linecap:butt;stroke-linejoin:round;}
  </style>
 </defs>
 <g id="figure_1">
  <g id="patch_1">
   <path d="M 0 345.6 
L 460.8 345.6 
L 460.8 0 
L 0 0 
z
" style="fill:#ffffff;"/>
  </g>
  <g id="axes_1">
   <g id="patch_2">
    <path d="M 2.52 277.975385 
L 458.28 277.975385 
L 458.28 67.624615 
L 2.52 67.624615 
z
" style="fill:#ffffff;"/>
   </g>
   <g id="matplotlib.axis_1"/>
   <g id="matplotlib.axis_2"/>
   <g id="patch_3">
    <path clip-path="url(#p759f8f45ad)" d="M 152.866864 139.089941 
C 213.54497 139.089941 213.54497 206.510059 152.866864 206.510059 
" style="fill:none;stroke:#0000ff;stroke-linejoin:miter;"/>
   </g>
   <g id="patch_4">
    <path clip-path="url(#p759f8f45ad)" d="M 146.124852 213.252071 
C 146.124852 273.930178 78.704734 273.930178 78.704734 213.252071 
" style="fill:none;stroke:#0000ff;stroke-linejoin:miter;"/>
   </g>
   <g id="patch_5">
    <path clip-path="url(#p759f8f45ad)" d="M 71.962722 206.510059 
Q 11.284615 206.510059 11.284615 139.089941 
" style="fill:none;stroke:#0000ff;stroke-linejoin:miter;"/>
   </g>
   <g id="patch_6">
    <path clip-path="url(#p759f8f45ad)" d="M 11.284615 139.089941 
Q 11.284615 71.669822 78.704734 71.669822 
" style="fill:none;stroke:#0000ff;stroke-linejoin:miter;"/>
   </g>
   <g id="patch_7">
    <path clip-path="url(#p759f8f45ad)" d="M 78.704734 71.669822 
Q 146.124852 71.669822 146.124852 139.089941 
" style="fill:none;stroke:#0000ff;stroke-linejoin:miter;"/>
   </g>
   <g id="patch_8">
    <path clip-path="url(#p759f8f45ad)" d="M 78.704734 206.510059 
Q 78.704734 139.089941 139.38284 139.089941 
" style="fill:none;stroke:#0000ff;stroke-linejoin:miter;"/>
   </g>
   <g id="patch_9">
    <path clip-path="url(#p759f8f45ad)" d="M 388.837278 139.089941 
C 449.515385 139.089941 449.515385 206.510059 388.837278 206.510059 
" style="fill:none;stroke:#0000ff;stroke-linejoin:miter;"/>
   </g>
   <g id="patch_10">
    <path clip-path="url(#p759f8f45ad)" d="M 382.095266 213.252071 
C 382.095266 273.930178 314.675148 273.930178 314.675148 213.252071 
" style="fill:none;stroke:#0000ff;stroke-linejoin:miter;"/>
   </g>
   <g id="patch_11">
    <path clip-path="url(#p759f8f45ad)" d="M 307.933136 206.510059 
Q 247.25503 206.510059 247.25503 139.089941 
" style="fill:none;stroke:#0000ff;stroke-linejoin:miter;"/>
   </g>
   <g id="patch_12">
    <path clip-path="url(#p759f8f45ad)" d="M 247.25503 139.089941 
Q 247.25503 71.669822 314.675148 71.669822 
" style="fill:none;stroke:#0000ff;stroke-linejoin:miter;"/>
   </g>
   <g id="patch_13">
    <path clip-path="url(#p759f8f45ad)" d="M 314.675148 71.669822 
Q 382.095266 71.669822 382.095266 139.089941 
" style="fill:none;stroke:#0000ff;stroke-linejoin:miter;"/>
   </g>
   <g id="patch_14">
    <path clip-path="url(#p759f8f45ad)" d="M 314.675148 206.510059 
Q 314.675148 139.089941 375.353254 139.089941 
" style="fill:none;stroke:#0000ff;stroke-linejoin:miter;"/>
   </g>
   <g id="line2d_1">
    <path clip-path="url(#p759f8f45ad)" d="M 152.866864 206.510059 
L 146.124852 206.510059 
" style="fill:none;stroke:#0000ff;stroke-linecap:square;"/>
   </g>
   <g id="line2d_2">
    <path clip-path="url(#p759f8f45ad)" d="M 78.704734 213.252071 
L 78.704734 206.510059 
" style="fill:none;stroke:#0000ff;stroke-linecap:square;"/>
   </g>
   <g id="line2d_3">
    <path clip-path="url(#p759f8f45ad)" d="M 146.124852 206.510059 
L 85.446746 206.510059 
" style="fill:none;stroke:#0000ff;stroke-linecap:square;"/>
   </g>
   <g id="line2d_4">
    <path clip-path="url(#p759f8f45ad)" d="M 146.124852 199.768047 
L 146.124852 139.089941 
" style="fill:none;stroke:#0000ff;stroke-linecap:square;"/>
   </g>
   <g id="line2d_5">
    <path clip-path="url(#p759f8f45ad)" d="M 11.284615 139.089941 
L 11.284615 139.089941 
" style="fill:none;stroke:#0000ff;stroke-linecap:square;"/>
   </g>
   <g id="line2d_6">
    <path clip-path="url(#p759f8f45ad)" d="M 78.704734 71.669822 
L 78.704734 71.669822 
" style="fill:none;stroke:#0000ff;stroke-linecap:square;"/>
   </g>
   <g id="line2d_7">
    <path clip-path="url(#p759f8f45ad)" d="M 146.124852 139.089941 
L 146.124852 139.089941 
" style="fill:none;stroke:#0000ff;stroke-linecap:square;"/>
   </g>
   <g id="line2d_8">
    <path clip-path="url(#p759f8f45ad)" d="M 139.38284 139.089941 
L 139.38284 139.089941 
" style="fill:none;stroke:#0000ff;stroke-linecap:square;"/>
   </g>
   <g id="line2d_9">
    <path clip-path="url(#p759f8f45ad)" d="M 388.837278 206.510059 
L 382.095266 206.510059 
" style="fill:none;stroke:#0000ff;stroke-linecap:square;"/>
   </g>
   <g id="line2d_10">
    <path clip-path="url(#p759f8f45ad)" d="M 314.675148 213.252071 
L 314.675148 206.510059 
" style="fill:none;stroke:#0000ff;stroke-linecap:square;"/>
   </g>
   <g id="line2d_11">
    <path clip-path="url(#p759f8f45ad)" d="M 247.25503 139.089941 
L 247.25503 139.089941 
" style="fill:none;stroke:#0000ff;stroke-linecap:square;"/>
   </g>
   <g id="line2d_12">
    <path clip-path="url(#p759f8f45ad)" d="M 314.675148 71.669822 
L 314.675148 71.669822 
" style="fill:none;stroke:#0000ff;stroke-linecap:square;"/>
   </g>
   <g id="line2d_13">
    <path clip-path="url(#p759f8f45ad)" d="M 382.095266 139.089941 
L 382.095266 139.089941 
" style="fill:none;stroke:#0000ff;stroke-linecap:square;"/>
   </g>
   <g id="line2d_14">
    <path clip-path="url(#p759f8f45ad)" d="M 375.353254 139.089941 
L 375.353254 139.089941 
" style="fill:none;stroke:#0000ff;stroke-linecap:square;"/>
   </g>
   <g id="line2d_15">
    <path clip-path="url(#p759f8f45ad)" d="M 321.41716 206.510059 
L 382.095266 206.510059 
" style="fill:none;stroke:#0000ff;stroke-linecap:square;"/>
   </g>
   <g id="line2d_16">
    <path clip-path="url(#p759f8f45ad)" d="M 382.095266 199.768047 
L 382.095266 139.089941 
" style="fill:none;stroke:#0000ff;stroke-linecap:square;"/>
   </g>
  </g>
 </g>
 <defs>
  <clipPath id="p759f8f45ad">
   <rect height="210.350769" width="455.76" x="2.52" y="67.624615"/>
  </clipPath>
 </defs>
</svg>
