<?xml version="1.0" encoding="utf-8" standalone="no"?>
<!DOCTYPE svg PUBLIC "-//W3C//DTD SVG 1.1//EN"
  "http://www.w3.org/Graphics/SVG/1.1/DTD/svg11.dtd">
<!-- Created with matplotlib (http://matplotlib.org/) -->
<svg height="345.6pt" version="1.1" viewBox="0 0 460.8 345.6" width="460.8pt" xmlns="http://www.w3.org/2000/svg" xmlns:xlink="http://www.w3.org/1999/xlink">
 <defs>
  <style type="text/css">
*{stroke-linecap:butt;stroke-linejoin:round;}
  </style>
 </defs>
 <g id="figure_1">
  <g id="patch_1">
   <path d="M 0 345.6 
L 460.8 345.6 
L 460.8 0 
L 0 0 
z
" style="fill:#ffffff;"/>
  </g>
  <g id="axes_1">
   <g id="patch_2">
    <path d="M 60.12 343.08 
L 400.68 343.08 
L 400.68 2.52 
L 60.12 2.52 
z
" style="fill:#ffffff;"/>
   </g>
   <g id="matplotlib.axis_1"/>
   <g id="matplotlib.axis_2"/>
   <g id="patch_3">
    <path clip-path="url(#pef1abcfd2a)" d="M 238.586538 90.934615 
Q 312.265385 90.934615 312.265385 172.8 
" style="fill:none;stroke:#0000ff;stroke-linejoin:miter;"/>
   </g>
   <g id="patch_4">
    <path clip-path="url(#pef1abcfd2a)" d="M 222.213462 90.934615 
C 148.534615 90.934615 148.534615 172.8 222.213462 172.8 
" style="fill:none;stroke:#0000ff;stroke-linejoin:miter;"/>
   </g>
   <g id="patch_5">
    <path clip-path="url(#pef1abcfd2a)" d="M 230.4 90.934615 
Q 230.4 9.069231 148.534615 9.069231 
" style="fill:none;stroke:#0000ff;stroke-linejoin:miter;"/>
   </g>
   <g id="patch_6">
    <path clip-path="url(#pef1abcfd2a)" d="M 148.534615 9.069231 
Q 66.669231 9.069231 66.669231 90.934615 
" style="fill:none;stroke:#0000ff;stroke-linejoin:miter;"/>
   </g>
   <g id="patch_7">
    <path clip-path="url(#pef1abcfd2a)" d="M 66.669231 172.8 
Q 66.669231 254.665385 148.534615 254.665385 
" style="fill:none;stroke:#0000ff;stroke-linejoin:miter;"/>
   </g>
   <g id="patch_8">
    <path clip-path="url(#pef1abcfd2a)" d="M 320.451923 172.8 
Q 394.130769 172.8 394.130769 254.665385 
" style="fill:none;stroke:#0000ff;stroke-linejoin:miter;"/>
   </g>
   <g id="patch_9">
    <path clip-path="url(#pef1abcfd2a)" d="M 394.130769 254.665385 
Q 394.130769 336.530769 312.265385 336.530769 
" style="fill:none;stroke:#0000ff;stroke-linejoin:miter;"/>
   </g>
   <g id="patch_10">
    <path clip-path="url(#pef1abcfd2a)" d="M 312.265385 336.530769 
Q 230.4 336.530769 230.4 254.665385 
" style="fill:none;stroke:#0000ff;stroke-linejoin:miter;"/>
   </g>
   <g id="patch_11">
    <path clip-path="url(#pef1abcfd2a)" d="M 312.265385 172.8 
Q 312.265385 254.665385 238.586538 254.665385 
" style="fill:none;stroke:#0000ff;stroke-linejoin:miter;"/>
   </g>
   <g id="line2d_1">
    <path clip-path="url(#pef1abcfd2a)" d="M 312.265385 172.8 
L 312.265385 172.8 
" style="fill:none;stroke:#0000ff;stroke-linecap:square;"/>
   </g>
   <g id="line2d_2">
    <path clip-path="url(#pef1abcfd2a)" d="M 230.4 90.934615 
L 230.4 164.613462 
" style="fill:none;stroke:#0000ff;stroke-linecap:square;"/>
   </g>
   <g id="line2d_3">
    <path clip-path="url(#pef1abcfd2a)" d="M 222.213462 172.8 
L 230.4 172.8 
" style="fill:none;stroke:#0000ff;stroke-linecap:square;"/>
   </g>
   <g id="line2d_4">
    <path clip-path="url(#pef1abcfd2a)" d="M 148.534615 9.069231 
L 148.534615 9.069231 
" style="fill:none;stroke:#0000ff;stroke-linecap:square;"/>
   </g>
   <g id="line2d_5">
    <path clip-path="url(#pef1abcfd2a)" d="M 66.669231 90.934615 
L 66.669231 172.8 
" style="fill:none;stroke:#0000ff;stroke-linecap:square;"/>
   </g>
   <g id="line2d_6">
    <path clip-path="url(#pef1abcfd2a)" d="M 148.534615 254.665385 
L 222.213462 254.665385 
" style="fill:none;stroke:#0000ff;stroke-linecap:square;"/>
   </g>
   <g id="line2d_7">
    <path clip-path="url(#pef1abcfd2a)" d="M 304.078846 172.8 
L 230.4 172.8 
" style="fill:none;stroke:#0000ff;stroke-linecap:square;"/>
   </g>
   <g id="line2d_8">
    <path clip-path="url(#pef1abcfd2a)" d="M 394.130769 254.665385 
L 394.130769 254.665385 
" style="fill:none;stroke:#0000ff;stroke-linecap:square;"/>
   </g>
   <g id="line2d_9">
    <path clip-path="url(#pef1abcfd2a)" d="M 312.265385 336.530769 
L 312.265385 336.530769 
" style="fill:none;stroke:#0000ff;stroke-linecap:square;"/>
   </g>
   <g id="line2d_10">
    <path clip-path="url(#pef1abcfd2a)" d="M 230.4 254.665385 
L 230.4 254.665385 
" style="fill:none;stroke:#0000ff;stroke-linecap:square;"/>
   </g>
   <g id="line2d_11">
    <path clip-path="url(#pef1abcfd2a)" d="M 238.586538 254.665385 
L 238.586538 254.665385 
" style="fill:none;stroke:#0000ff;stroke-linecap:square;"/>
   </g>
   <g id="line2d_12">
    <path clip-path="url(#pef1abcfd2a)" d="M 230.4 180.986538 
L 230.4 254.665385 
" style="fill:none;stroke:#0000ff;stroke-linecap:square;"/>
   </g>
  </g>
 </g>
 <defs>
  <clipPath id="pef1abcfd2a">
   <rect height="340.56" width="340.56" x="60.12" y="2.52"/>
  </clipPath>
 </defs>
</svg>
