<?xml version="1.0" encoding="utf-8" standalone="no"?>
<!DOCTYPE svg PUBLIC "-//W3C//DTD SVG 1.1//EN"
  "http://www.w3.org/Graphics/SVG/1.1/DTD/svg11.dtd">
<svg xmlns:xlink="http://www.w3.org/1999/xlink" width="460.8pt" height="345.6pt" viewBox="0 0 460.8 345.6" xmlns="http://www.w3.org/2000/svg" version="1.1">
 <metadata>
  <rdf:RDF xmlns:dc="http://purl.org/dc/elements/1.1/" xmlns:cc="http://creativecommons.org/ns#" xmlns:rdf="http://www.w3.org/1999/02/22-rdf-syntax-ns#">
   <cc:Work>
    <dc:type rdf:resource="http://purl.org/dc/dcmitype/StillImage"/>
    <dc:date>2022-05-16T19:30:37.514140</dc:date>
    <dc:format>image/svg+xml</dc:format>
    <dc:creator>
     <cc:Agent>
      <dc:title>Matplotlib v3.5.1, https://matplotlib.org/</dc:title>
     </cc:Agent>
    </dc:creator>
   </cc:Work>
  </rdf:RDF>
 </metadata>
 <defs>
  <style type="text/css">*{stroke-linejoin: round; stroke-linecap: butt}</style>
 </defs>
 <g id="figure_1">
  <g id="patch_1">
   <path d="M 0 345.6 
L 460.8 345.6 
L 460.8 0 
L 0 0 
z
" style="fill: #ffffff"/>
  </g>
  <g id="axes_1">
   <g id="patch_2">
    <path d="M 0 345.6 
L 460.8 345.6 
L 460.8 0 
L 0 0 
z
" style="fill: #ffffff"/>
   </g>
   <g id="matplotlib.axis_1"/>
   <g id="matplotlib.axis_2"/>
   <g id="PathCollection_1">
    <path d="M 8.861538 340.534985 
C 9.280861 340.534985 9.683066 340.368386 9.979572 340.07188 
C 10.276079 339.775374 10.442677 339.373169 10.442677 338.953846 
C 10.442677 338.534523 10.276079 338.132318 9.979572 337.835812 
C 9.683066 337.539306 9.280861 337.372707 8.861538 337.372707 
C 8.442216 337.372707 8.040011 337.539306 7.743504 337.835812 
C 7.446998 338.132318 7.2804 338.534523 7.2804 338.953846 
C 7.2804 339.373169 7.446998 339.775374 7.743504 340.07188 
C 8.040011 340.368386 8.442216 340.534985 8.861538 340.534985 
z
" clip-path="url(#p22a7d30fa8)" style="fill: #0000ff"/>
   </g>
   <g id="PathCollection_2">
    <path d="M 451.938462 8.227293 
C 452.357784 8.227293 452.759989 8.060694 453.056496 7.764188 
C 453.353002 7.467682 453.5196 7.065477 453.5196 6.646154 
C 453.5196 6.226831 453.353002 5.824626 453.056496 5.52812 
C 452.759989 5.231614 452.357784 5.065015 451.938462 5.065015 
C 451.519139 5.065015 451.116934 5.231614 450.820428 5.52812 
C 450.523921 5.824626 450.357323 6.226831 450.357323 6.646154 
C 450.357323 7.065477 450.523921 7.467682 450.820428 7.764188 
C 451.116934 8.060694 451.519139 8.227293 451.938462 8.227293 
z
" clip-path="url(#p22a7d30fa8)" style="fill: #0000ff"/>
   </g>
   <g id="PathCollection_3">
    <path d="M 451.938462 174.381139 
C 452.357784 174.381139 452.759989 174.21454 453.056496 173.918034 
C 453.353002 173.621528 453.5196 173.219323 453.5196 172.8 
C 453.5196 172.380677 453.353002 171.978472 453.056496 171.681966 
C 452.759989 171.38546 452.357784 171.218861 451.938462 171.218861 
C 451.519139 171.218861 451.116934 171.38546 450.820428 171.681966 
C 450.523921 171.978472 450.357323 172.380677 450.357323 172.8 
C 450.357323 173.219323 450.523921 173.621528 450.820428 173.918034 
C 451.116934 174.21454 451.519139 174.381139 451.938462 174.381139 
z
" clip-path="url(#p22a7d30fa8)" style="fill: #0000ff"/>
   </g>
   <g id="PathCollection_4">
    <path d="M 230.4 8.227293 
C 230.819323 8.227293 231.221528 8.060694 231.518034 7.764188 
C 231.81454 7.467682 231.981139 7.065477 231.981139 6.646154 
C 231.981139 6.226831 231.81454 5.824626 231.518034 5.52812 
C 231.221528 5.231614 230.819323 5.065015 230.4 5.065015 
C 229.980677 5.065015 229.578472 5.231614 229.281966 5.52812 
C 228.98546 5.824626 228.818861 6.226831 228.818861 6.646154 
C 228.818861 7.065477 228.98546 7.467682 229.281966 7.764188 
C 229.578472 8.060694 229.980677 8.227293 230.4 8.227293 
z
" clip-path="url(#p22a7d30fa8)" style="fill: #0000ff"/>
   </g>
   <g id="PathCollection_5">
    <path d="M 230.4 174.381139 
C 230.819323 174.381139 231.221528 174.21454 231.518034 173.918034 
C 231.81454 173.621528 231.981139 173.219323 231.981139 172.8 
C 231.981139 172.380677 231.81454 171.978472 231.518034 171.681966 
C 231.221528 171.38546 230.819323 171.218861 230.4 171.218861 
C 229.980677 171.218861 229.578472 171.38546 229.281966 171.681966 
C 228.98546 171.978472 228.818861 172.380677 228.818861 172.8 
C 228.818861 173.219323 228.98546 173.621528 229.281966 173.918034 
C 229.578472 174.21454 229.980677 174.381139 230.4 174.381139 
z
" clip-path="url(#p22a7d30fa8)" style="fill: #0000ff"/>
   </g>
  </g>
 </g>
 <defs>
  <clipPath id="p22a7d30fa8">
   <rect x="0" y="0" width="460.8" height="345.6"/>
  </clipPath>
 </defs>
</svg>
