<?xml version="1.0" encoding="utf-8" standalone="no"?>
<!DOCTYPE svg PUBLIC "-//W3C//DTD SVG 1.1//EN"
  "http://www.w3.org/Graphics/SVG/1.1/DTD/svg11.dtd">
<!-- Created with matplotlib (http://matplotlib.org/) -->
<svg height="345.6pt" version="1.1" viewBox="0 0 460.8 345.6" width="460.8pt" xmlns="http://www.w3.org/2000/svg" xmlns:xlink="http://www.w3.org/1999/xlink">
 <defs>
  <style type="text/css">
*{stroke-linecap:butt;stroke-linejoin:round;}
  </style>
 </defs>
 <g id="figure_1">
  <g id="patch_1">
   <path d="M 0 345.6 
L 460.8 345.6 
L 460.8 0 
L 0 0 
z
" style="fill:#ffffff;"/>
  </g>
  <g id="axes_1">
   <g id="patch_2">
    <path d="M 60.12 343.08 
L 400.68 343.08 
L 400.68 2.52 
L 60.12 2.52 
z
" style="fill:#ffffff;"/>
   </g>
   <g id="patch_3">
    <path clip-path="url(#p05f067ec2e)" d="M 230.4 9.069231 
L 394.130769 9.069231 
L 66.669231 336.530769 
z
" style="fill:#ccffcc;"/>
   </g>
   <g id="patch_4">
    <path clip-path="url(#p05f067ec2e)" d="M 394.130769 172.8 
L 394.130769 9.069231 
L 66.669231 336.530769 
z
" style="fill:#ccffcc;"/>
   </g>
   <g id="line2d_1">
    <path clip-path="url(#p05f067ec2e)" d="M 394.130769 9.069231 
L 66.669231 336.530769 
" style="fill:none;stroke:#00ff00;stroke-linecap:square;"/>
   </g>
   <g id="line2d_2">
    <path clip-path="url(#p05f067ec2e)" d="M 230.4 9.069231 
L 394.130769 9.069231 
" style="fill:none;stroke:#0000ff;stroke-linecap:square;"/>
   </g>
   <g id="line2d_3">
    <path clip-path="url(#p05f067ec2e)" d="M 230.4 9.069231 
L 66.669231 336.530769 
" style="fill:none;stroke:#0000ff;stroke-linecap:square;"/>
   </g>
   <g id="line2d_4">
    <path clip-path="url(#p05f067ec2e)" d="M 394.130769 172.8 
L 394.130769 9.069231 
" style="fill:none;stroke:#0000ff;stroke-linecap:square;"/>
   </g>
   <g id="line2d_5">
    <path clip-path="url(#p05f067ec2e)" d="M 394.130769 172.8 
L 66.669231 336.530769 
" style="fill:none;stroke:#0000ff;stroke-linecap:square;"/>
   </g>
   <g id="matplotlib.axis_1"/>
   <g id="matplotlib.axis_2"/>
   <g id="PathCollection_1">
    <path clip-path="url(#p05f067ec2e)" d="M 230.4 174.381139 
C 230.819323 174.381139 231.221528 174.21454 231.518034 173.918034 
C 231.81454 173.621528 231.981139 173.219323 231.981139 172.8 
C 231.981139 172.380677 231.81454 171.978472 231.518034 171.681966 
C 231.221528 171.38546 230.819323 171.218861 230.4 171.218861 
C 229.980677 171.218861 229.578472 171.38546 229.281966 171.681966 
C 228.98546 171.978472 228.818861 172.380677 228.818861 172.8 
C 228.818861 173.219323 228.98546 173.621528 229.281966 173.918034 
C 229.578472 174.21454 229.980677 174.381139 230.4 174.381139 
z
" style="fill:#0000ff;"/>
   </g>
   <g id="PathCollection_2">
    <path clip-path="url(#p05f067ec2e)" d="M 230.4 10.65037 
C 230.819323 10.65037 231.221528 10.483771 231.518034 10.187265 
C 231.81454 9.890759 231.981139 9.488554 231.981139 9.069231 
C 231.981139 8.649908 231.81454 8.247703 231.518034 7.951197 
C 231.221528 7.654691 230.819323 7.488092 230.4 7.488092 
C 229.980677 7.488092 229.578472 7.654691 229.281966 7.951197 
C 228.98546 8.247703 228.818861 8.649908 228.818861 9.069231 
C 228.818861 9.488554 228.98546 9.890759 229.281966 10.187265 
C 229.578472 10.483771 229.980677 10.65037 230.4 10.65037 
z
" style="fill:#0000ff;"/>
   </g>
   <g id="PathCollection_3">
    <path clip-path="url(#p05f067ec2e)" d="M 394.130769 174.381139 
C 394.550092 174.381139 394.952297 174.21454 395.248803 173.918034 
C 395.545309 173.621528 395.711908 173.219323 395.711908 172.8 
C 395.711908 172.380677 395.545309 171.978472 395.248803 171.681966 
C 394.952297 171.38546 394.550092 171.218861 394.130769 171.218861 
C 393.711446 171.218861 393.309241 171.38546 393.012735 171.681966 
C 392.716229 171.978472 392.54963 172.380677 392.54963 172.8 
C 392.54963 173.219323 392.716229 173.621528 393.012735 173.918034 
C 393.309241 174.21454 393.711446 174.381139 394.130769 174.381139 
z
" style="fill:#0000ff;"/>
   </g>
   <g id="PathCollection_4">
    <path clip-path="url(#p05f067ec2e)" d="M 394.130769 10.65037 
C 394.550092 10.65037 394.952297 10.483771 395.248803 10.187265 
C 395.545309 9.890759 395.711908 9.488554 395.711908 9.069231 
C 395.711908 8.649908 395.545309 8.247703 395.248803 7.951197 
C 394.952297 7.654691 394.550092 7.488092 394.130769 7.488092 
C 393.711446 7.488092 393.309241 7.654691 393.012735 7.951197 
C 392.716229 8.247703 392.54963 8.649908 392.54963 9.069231 
C 392.54963 9.488554 392.716229 9.890759 393.012735 10.187265 
C 393.309241 10.483771 393.711446 10.65037 394.130769 10.65037 
z
" style="fill:#0000ff;"/>
   </g>
   <g id="PathCollection_5">
    <path clip-path="url(#p05f067ec2e)" d="M 66.669231 338.111908 
C 67.088554 338.111908 67.490759 337.945309 67.787265 337.648803 
C 68.083771 337.352297 68.25037 336.950092 68.25037 336.530769 
C 68.25037 336.111446 68.083771 335.709241 67.787265 335.412735 
C 67.490759 335.116229 67.088554 334.94963 66.669231 334.94963 
C 66.249908 334.94963 65.847703 335.116229 65.551197 335.412735 
C 65.254691 335.709241 65.088092 336.111446 65.088092 336.530769 
C 65.088092 336.950092 65.254691 337.352297 65.551197 337.648803 
C 65.847703 337.945309 66.249908 338.111908 66.669231 338.111908 
z
" style="fill:#0000ff;"/>
   </g>
  </g>
 </g>
 <defs>
  <clipPath id="p05f067ec2e">
   <rect height="340.56" width="340.56" x="60.12" y="2.52"/>
  </clipPath>
 </defs>
</svg>
