<?xml version="1.0" encoding="utf-8" standalone="no"?>
<!DOCTYPE svg PUBLIC "-//W3C//DTD SVG 1.1//EN"
  "http://www.w3.org/Graphics/SVG/1.1/DTD/svg11.dtd">
<!-- Created with matplotlib (http://matplotlib.org/) -->
<svg height="345.6pt" version="1.1" viewBox="0 0 460.8 345.6" width="460.8pt" xmlns="http://www.w3.org/2000/svg" xmlns:xlink="http://www.w3.org/1999/xlink">
 <defs>
  <style type="text/css">
*{stroke-linecap:butt;stroke-linejoin:round;}
  </style>
 </defs>
 <g id="figure_1">
  <g id="patch_1">
   <path d="M 0 345.6 
L 460.8 345.6 
L 460.8 0 
L 0 0 
z
" style="fill:#ffffff;"/>
  </g>
  <g id="axes_1">
   <g id="patch_2">
    <path d="M 122.276512 343.08 
L 338.523488 343.08 
L 338.523488 2.52 
L 122.276512 2.52 
z
" style="fill:#ffffff;"/>
   </g>
   <g id="patch_3">
    <path clip-path="url(#pb6afe380ba)" d="M 307.52681 22.373829 
Q 289.778862 101.602113 232.48215 155.926109 
" style="fill:none;stroke:#00ffff;stroke-linecap:round;stroke-width:2;"/>
    <path clip-path="url(#pb6afe380ba)" d="M 243.179118 152.674206 
L 232.48215 155.926109 
L 236.298809 145.417392 
L 243.179118 152.674206 
z
" style="fill:#00ffff;stroke:#00ffff;stroke-linecap:round;stroke-width:2;"/>
   </g>
   <g id="patch_4">
    <path clip-path="url(#pb6afe380ba)" d="M 304.112216 20.435963 
Q 245.192831 76.298443 227.933672 153.344735 
" style="fill:none;stroke:#00ff3f;stroke-linecap:round;stroke-width:2;"/>
    <path clip-path="url(#pb6afe380ba)" d="M 234.998681 144.679538 
L 227.933672 153.344735 
L 225.24052 142.49361 
L 234.998681 144.679538 
z
" style="fill:#00ff3f;stroke:#00ff3f;stroke-linecap:round;stroke-width:2;"/>
   </g>
   <g id="patch_5">
    <path clip-path="url(#pb6afe380ba)" d="M 309.208842 22.533398 
Q 312.071877 114.253947 233.813526 157.740727 
" style="fill:none;stroke:#003fff;stroke-linecap:round;stroke-width:2;"/>
    <path clip-path="url(#pb6afe380ba)" d="M 244.983267 157.254003 
L 233.813526 157.740727 
L 240.125991 148.5129 
L 244.983267 157.254003 
z
" style="fill:#003fff;stroke:#003fff;stroke-linecap:round;stroke-width:2;"/>
   </g>
   <g id="patch_6">
    <path clip-path="url(#pb6afe380ba)" d="M 303.112737 19.073709 
Q 222.899816 63.646609 225.693087 153.132178 
" style="fill:none;stroke:#7fff00;stroke-linecap:round;stroke-width:2;"/>
    <path clip-path="url(#pb6afe380ba)" d="M 230.378657 142.981048 
L 225.693087 153.132178 
L 220.383525 143.293044 
L 230.378657 142.981048 
z
" style="fill:#7fff00;stroke:#7fff00;stroke-linecap:round;stroke-width:2;"/>
   </g>
   <g id="patch_7">
    <path clip-path="url(#pb6afe380ba)" d="M 310.497577 22.36775 
Q 334.364892 126.905782 234.50434 159.327697 
" style="fill:none;stroke:#7fff00;stroke-linecap:round;stroke-width:2;"/>
    <path clip-path="url(#pb6afe380ba)" d="M 245.559616 160.995287 
L 234.50434 159.327697 
L 242.471578 151.48403 
L 245.559616 160.995287 
z
" style="fill:#7fff00;stroke:#7fff00;stroke-linecap:round;stroke-width:2;"/>
   </g>
   <g id="patch_8">
    <path clip-path="url(#pb6afe380ba)" d="M 302.594136 17.882353 
Q 200.606801 50.994774 223.976402 153.352833 
" style="fill:none;stroke:#7fff00;stroke-linecap:round;stroke-width:2;"/>
    <path clip-path="url(#pb6afe380ba)" d="M 226.625122 142.490776 
L 223.976402 153.352833 
L 216.875989 144.716623 
L 226.625122 142.490776 
z
" style="fill:#7fff00;stroke:#7fff00;stroke-linecap:round;stroke-width:2;"/>
   </g>
   <g id="matplotlib.axis_1"/>
   <g id="matplotlib.axis_2"/>
   <g id="patch_9">
    <path clip-path="url(#pb6afe380ba)" d="M 221.456384 169.847303 
Q 182.612258 236.497717 142.642206 305.080045 
" style="fill:none;stroke:#7f00ff;stroke-linecap:round;stroke-width:2;"/>
    <path clip-path="url(#pb6afe380ba)" d="M 212.101197 175.969433 
L 221.456384 169.847303 
L 220.740976 181.004731 
L 212.101197 175.969433 
z
" style="fill:#7f00ff;stroke:#7f00ff;stroke-linecap:round;stroke-width:2;"/>
   </g>
   <g id="patch_10">
    <path clip-path="url(#pb6afe380ba)" d="M 305.675141 21.659286 
Q 267.485847 88.950278 230.400225 154.296558 
" style="fill:none;stroke:#7fff00;stroke-linecap:round;stroke-width:2;"/>
    <path clip-path="url(#pb6afe380ba)" d="M 239.684507 148.067424 
L 230.400225 154.296558 
L 230.987488 143.131652 
L 239.684507 148.067424 
z
" style="fill:#7fff00;stroke:#7fff00;stroke-linecap:round;stroke-width:2;"/>
   </g>
   <g id="text_1">
    <g id="patch_11">
     <path d="M 271.458136 104.115258 
L 285.806573 104.115258 
L 285.806573 86.437133 
L 271.458136 86.437133 
z
" style="fill:#ffffff;stroke:#ffffff;stroke-linejoin:miter;"/>
    </g>
    <!-- d -->
    <defs>
     <path d="M 45.40625 46.390625 
L 45.40625 75.984375 
L 54.390625 75.984375 
L 54.390625 0 
L 45.40625 0 
L 45.40625 8.203125 
Q 42.578125 3.328125 38.25 0.953125 
Q 33.9375 -1.421875 27.875 -1.421875 
Q 17.96875 -1.421875 11.734375 6.484375 
Q 5.515625 14.40625 5.515625 27.296875 
Q 5.515625 40.1875 11.734375 48.09375 
Q 17.96875 56 27.875 56 
Q 33.9375 56 38.25 53.625 
Q 42.578125 51.265625 45.40625 46.390625 
z
M 14.796875 27.296875 
Q 14.796875 17.390625 18.875 11.75 
Q 22.953125 6.109375 30.078125 6.109375 
Q 37.203125 6.109375 41.296875 11.75 
Q 45.40625 17.390625 45.40625 27.296875 
Q 45.40625 37.203125 41.296875 42.84375 
Q 37.203125 48.484375 30.078125 48.484375 
Q 22.953125 48.484375 18.875 42.84375 
Q 14.796875 37.203125 14.796875 27.296875 
z
" id="DejaVuSans-64"/>
    </defs>
    <g style="fill:#0000ff;" transform="translate(275.458136 98.03557)scale(0.1 -0.1)">
     <use xlink:href="#DejaVuSans-64"/>
    </g>
   </g>
   <g id="text_2">
    <g id="patch_12">
     <path d="M 249.262777 91.463423 
L 263.415902 91.463423 
L 263.415902 73.785298 
L 249.262777 73.785298 
z
" style="fill:#ffffff;stroke:#ffffff;stroke-linejoin:miter;"/>
    </g>
    <!-- e -->
    <defs>
     <path d="M 56.203125 29.59375 
L 56.203125 25.203125 
L 14.890625 25.203125 
Q 15.484375 15.921875 20.484375 11.0625 
Q 25.484375 6.203125 34.421875 6.203125 
Q 39.59375 6.203125 44.453125 7.46875 
Q 49.3125 8.734375 54.109375 11.28125 
L 54.109375 2.78125 
Q 49.265625 0.734375 44.1875 -0.34375 
Q 39.109375 -1.421875 33.890625 -1.421875 
Q 20.796875 -1.421875 13.15625 6.1875 
Q 5.515625 13.8125 5.515625 26.8125 
Q 5.515625 40.234375 12.765625 48.109375 
Q 20.015625 56 32.328125 56 
Q 43.359375 56 49.78125 48.890625 
Q 56.203125 41.796875 56.203125 29.59375 
z
M 47.21875 32.234375 
Q 47.125 39.59375 43.09375 43.984375 
Q 39.0625 48.390625 32.421875 48.390625 
Q 24.90625 48.390625 20.390625 44.140625 
Q 15.875 39.890625 15.1875 32.171875 
z
" id="DejaVuSans-65"/>
    </defs>
    <g style="fill:#0000ff;" transform="translate(253.262777 85.383736)scale(0.1 -0.1)">
     <use xlink:href="#DejaVuSans-65"/>
    </g>
   </g>
   <g id="text_3">
    <g id="patch_13">
     <path d="M 283.029643 110.441175 
L 296.528081 110.441175 
L 296.528081 92.76305 
L 283.029643 92.76305 
z
" style="fill:#ffffff;stroke:#ffffff;stroke-linejoin:miter;"/>
    </g>
    <!-- c -->
    <defs>
     <path d="M 48.78125 52.59375 
L 48.78125 44.1875 
Q 44.96875 46.296875 41.140625 47.34375 
Q 37.3125 48.390625 33.40625 48.390625 
Q 24.65625 48.390625 19.8125 42.84375 
Q 14.984375 37.3125 14.984375 27.296875 
Q 14.984375 17.28125 19.8125 11.734375 
Q 24.65625 6.203125 33.40625 6.203125 
Q 37.3125 6.203125 41.140625 7.25 
Q 44.96875 8.296875 48.78125 10.40625 
L 48.78125 2.09375 
Q 45.015625 0.34375 40.984375 -0.53125 
Q 36.96875 -1.421875 32.421875 -1.421875 
Q 20.0625 -1.421875 12.78125 6.34375 
Q 5.515625 14.109375 5.515625 27.296875 
Q 5.515625 40.671875 12.859375 48.328125 
Q 20.21875 56 33.015625 56 
Q 37.15625 56 41.109375 55.140625 
Q 45.0625 54.296875 48.78125 52.59375 
z
" id="DejaVuSans-63"/>
    </defs>
    <g style="fill:#0000ff;" transform="translate(287.029643 104.361488)scale(0.1 -0.1)">
     <use xlink:href="#DejaVuSans-63"/>
    </g>
   </g>
   <g id="text_4">
    <g id="patch_14">
     <path d="M 239.432675 85.137506 
L 250.952988 85.137506 
L 250.952988 67.459381 
L 239.432675 67.459381 
z
" style="fill:#ffffff;stroke:#ffffff;stroke-linejoin:miter;"/>
    </g>
    <!-- f -->
    <defs>
     <path d="M 37.109375 75.984375 
L 37.109375 68.5 
L 28.515625 68.5 
Q 23.6875 68.5 21.796875 66.546875 
Q 19.921875 64.59375 19.921875 59.515625 
L 19.921875 54.6875 
L 34.71875 54.6875 
L 34.71875 47.703125 
L 19.921875 47.703125 
L 19.921875 0 
L 10.890625 0 
L 10.890625 47.703125 
L 2.296875 47.703125 
L 2.296875 54.6875 
L 10.890625 54.6875 
L 10.890625 58.5 
Q 10.890625 67.625 15.140625 71.796875 
Q 19.390625 75.984375 28.609375 75.984375 
z
" id="DejaVuSans-66"/>
    </defs>
    <g style="fill:#0000ff;" transform="translate(243.432675 79.057818)scale(0.1 -0.1)">
     <use xlink:href="#DejaVuSans-66"/>
    </g>
   </g>
   <g id="text_5">
    <g id="patch_15">
     <path d="M 295.165213 116.767092 
L 306.685526 116.767092 
L 306.685526 99.088967 
L 295.165213 99.088967 
z
" style="fill:#ffffff;stroke:#ffffff;stroke-linejoin:miter;"/>
    </g>
    <!-- f -->
    <g style="fill:#0000ff;" transform="translate(299.165213 110.687405)scale(0.1 -0.1)">
     <use xlink:href="#DejaVuSans-66"/>
    </g>
   </g>
   <g id="text_6">
    <g id="patch_16">
     <path d="M 228.286168 78.811588 
L 239.80648 78.811588 
L 239.80648 61.133463 
L 228.286168 61.133463 
z
" style="fill:#ffffff;stroke:#ffffff;stroke-linejoin:miter;"/>
    </g>
    <!-- f -->
    <g style="fill:#0000ff;" transform="translate(232.286168 72.731901)scale(0.1 -0.1)">
     <use xlink:href="#DejaVuSans-66"/>
    </g>
   </g>
   <g id="text_7">
    <g id="patch_17">
     <path d="M 301.934691 50.274953 
L 316.062816 50.274953 
L 316.062816 32.596828 
L 301.934691 32.596828 
z
" style="fill:#ffffff;stroke:#ffffff;stroke-linejoin:miter;"/>
    </g>
    <!-- a -->
    <defs>
     <path d="M 34.28125 27.484375 
Q 23.390625 27.484375 19.1875 25 
Q 14.984375 22.515625 14.984375 16.5 
Q 14.984375 11.71875 18.140625 8.90625 
Q 21.296875 6.109375 26.703125 6.109375 
Q 34.1875 6.109375 38.703125 11.40625 
Q 43.21875 16.703125 43.21875 25.484375 
L 43.21875 27.484375 
z
M 52.203125 31.203125 
L 52.203125 0 
L 43.21875 0 
L 43.21875 8.296875 
Q 40.140625 3.328125 35.546875 0.953125 
Q 30.953125 -1.421875 24.3125 -1.421875 
Q 15.921875 -1.421875 10.953125 3.296875 
Q 6 8.015625 6 15.921875 
Q 6 25.140625 12.171875 29.828125 
Q 18.359375 34.515625 30.609375 34.515625 
L 43.21875 34.515625 
L 43.21875 35.40625 
Q 43.21875 41.609375 39.140625 45 
Q 35.0625 48.390625 27.6875 48.390625 
Q 23 48.390625 18.546875 47.265625 
Q 14.109375 46.140625 10.015625 43.890625 
L 10.015625 52.203125 
Q 14.9375 54.109375 19.578125 55.046875 
Q 24.21875 56 28.609375 56 
Q 40.484375 56 46.34375 49.84375 
Q 52.203125 43.703125 52.203125 31.203125 
z
" id="DejaVuSans-61"/>
    </defs>
    <g style="fill:#0000ff;" transform="translate(305.934691 44.195266)scale(0.1 -0.1)">
     <use xlink:href="#DejaVuSans-61"/>
    </g>
   </g>
   <g id="text_8">
    <g id="patch_18">
     <path d="M 301.824534 63.091421 
L 316.172972 63.091421 
L 316.172972 45.413296 
L 301.824534 45.413296 
z
" style="fill:#ffffff;stroke:#ffffff;stroke-linejoin:miter;"/>
    </g>
    <!-- b -->
    <defs>
     <path d="M 48.6875 27.296875 
Q 48.6875 37.203125 44.609375 42.84375 
Q 40.53125 48.484375 33.40625 48.484375 
Q 26.265625 48.484375 22.1875 42.84375 
Q 18.109375 37.203125 18.109375 27.296875 
Q 18.109375 17.390625 22.1875 11.75 
Q 26.265625 6.109375 33.40625 6.109375 
Q 40.53125 6.109375 44.609375 11.75 
Q 48.6875 17.390625 48.6875 27.296875 
z
M 18.109375 46.390625 
Q 20.953125 51.265625 25.265625 53.625 
Q 29.59375 56 35.59375 56 
Q 45.5625 56 51.78125 48.09375 
Q 58.015625 40.1875 58.015625 27.296875 
Q 58.015625 14.40625 51.78125 6.484375 
Q 45.5625 -1.421875 35.59375 -1.421875 
Q 29.59375 -1.421875 25.265625 0.953125 
Q 20.953125 3.328125 18.109375 8.203125 
L 18.109375 0 
L 9.078125 0 
L 9.078125 75.984375 
L 18.109375 75.984375 
z
" id="DejaVuSans-62"/>
    </defs>
    <g style="fill:#0000ff;" transform="translate(305.824534 57.011734)scale(0.1 -0.1)">
     <use xlink:href="#DejaVuSans-62"/>
    </g>
   </g>
   <g id="text_9">
    <g id="patch_19">
     <path d="M 132.082826 345.369832 
L 146.420326 345.369832 
L 146.420326 327.691707 
L 132.082826 327.691707 
z
" style="fill:#ffffff;stroke:#ffffff;stroke-linejoin:miter;"/>
    </g>
    <!-- h -->
    <defs>
     <path d="M 54.890625 33.015625 
L 54.890625 0 
L 45.90625 0 
L 45.90625 32.71875 
Q 45.90625 40.484375 42.875 44.328125 
Q 39.84375 48.1875 33.796875 48.1875 
Q 26.515625 48.1875 22.3125 43.546875 
Q 18.109375 38.921875 18.109375 30.90625 
L 18.109375 0 
L 9.078125 0 
L 9.078125 75.984375 
L 18.109375 75.984375 
L 18.109375 46.1875 
Q 21.34375 51.125 25.703125 53.5625 
Q 30.078125 56 35.796875 56 
Q 45.21875 56 50.046875 50.171875 
Q 54.890625 44.34375 54.890625 33.015625 
z
" id="DejaVuSans-68"/>
    </defs>
    <g style="fill:#0000ff;" transform="translate(136.082826 339.290144)scale(0.1 -0.1)">
     <use xlink:href="#DejaVuSans-68"/>
    </g>
   </g>
   <g id="text_10">
    <g id="patch_20">
     <path d="M 175.438039 245.33678 
L 189.786477 245.33678 
L 189.786477 227.658655 
L 175.438039 227.658655 
z
" style="fill:#ffffff;stroke:#ffffff;stroke-linejoin:miter;"/>
    </g>
    <!-- g -->
    <defs>
     <path d="M 45.40625 27.984375 
Q 45.40625 37.75 41.375 43.109375 
Q 37.359375 48.484375 30.078125 48.484375 
Q 22.859375 48.484375 18.828125 43.109375 
Q 14.796875 37.75 14.796875 27.984375 
Q 14.796875 18.265625 18.828125 12.890625 
Q 22.859375 7.515625 30.078125 7.515625 
Q 37.359375 7.515625 41.375 12.890625 
Q 45.40625 18.265625 45.40625 27.984375 
z
M 54.390625 6.78125 
Q 54.390625 -7.171875 48.1875 -13.984375 
Q 42 -20.796875 29.203125 -20.796875 
Q 24.46875 -20.796875 20.265625 -20.09375 
Q 16.0625 -19.390625 12.109375 -17.921875 
L 12.109375 -9.1875 
Q 16.0625 -11.328125 19.921875 -12.34375 
Q 23.78125 -13.375 27.78125 -13.375 
Q 36.625 -13.375 41.015625 -8.765625 
Q 45.40625 -4.15625 45.40625 5.171875 
L 45.40625 9.625 
Q 42.625 4.78125 38.28125 2.390625 
Q 33.9375 0 27.875 0 
Q 17.828125 0 11.671875 7.65625 
Q 5.515625 15.328125 5.515625 27.984375 
Q 5.515625 40.671875 11.671875 48.328125 
Q 17.828125 56 27.875 56 
Q 33.9375 56 38.28125 53.609375 
Q 42.625 51.21875 45.40625 46.390625 
L 45.40625 54.6875 
L 54.390625 54.6875 
z
" id="DejaVuSans-67"/>
    </defs>
    <g style="fill:#0000ff;" transform="translate(179.438039 239.257092)scale(0.1 -0.1)">
     <use xlink:href="#DejaVuSans-67"/>
    </g>
   </g>
   <g id="text_11">
    <g id="patch_21">
     <path d="M 261.72569 97.78934 
L 273.246003 97.78934 
L 273.246003 80.111215 
L 261.72569 80.111215 
z
" style="fill:#ffffff;stroke:#ffffff;stroke-linejoin:miter;"/>
    </g>
    <!-- f -->
    <g style="fill:#0000ff;" transform="translate(265.72569 91.709653)scale(0.1 -0.1)">
     <use xlink:href="#DejaVuSans-66"/>
    </g>
   </g>
   <g id="patch_22">
    <path clip-path="url(#pb6afe380ba)" d="M 308.998753 41.435891 
C 312.39772 41.435891 315.657932 40.085467 318.061365 37.682034 
C 320.464798 35.278601 321.815221 32.018389 321.815221 28.619422 
C 321.815221 25.220455 320.464798 21.960243 318.061365 19.55681 
C 315.657932 17.153378 312.39772 15.802954 308.998753 15.802954 
C 305.599786 15.802954 302.339574 17.153378 299.936141 19.55681 
C 297.532709 21.960243 296.182285 25.220455 296.182285 28.619422 
C 296.182285 32.018389 297.532709 35.278601 299.936141 37.682034 
C 302.339574 40.085467 305.599786 41.435891 308.998753 41.435891 
z
" style="fill:none;stroke:#ffbf00;stroke-linejoin:miter;"/>
   </g>
   <g id="patch_23">
    <path clip-path="url(#pb6afe380ba)" d="M 308.998753 54.252359 
C 314.097204 54.252359 318.987522 52.226723 322.592671 48.621574 
C 326.19782 45.016425 328.223456 40.126107 328.223456 35.027656 
C 328.223456 29.929206 326.19782 25.038888 322.592671 21.433739 
C 318.987522 17.82859 314.097204 15.802954 308.998753 15.802954 
C 303.900302 15.802954 299.009985 17.82859 295.404835 21.433739 
C 291.799686 25.038888 289.77405 29.929206 289.77405 35.027656 
C 289.77405 40.126107 291.799686 45.016425 295.404835 48.621574 
C 299.009985 52.226723 303.900302 54.252359 308.998753 54.252359 
z
" style="fill:none;stroke:#ff0000;stroke-linejoin:miter;"/>
   </g>
   <g id="patch_24">
    <path clip-path="url(#pb6afe380ba)" d="M 139.251576 336.530769 
C 142.650543 336.530769 145.910755 335.180345 148.314188 332.776913 
C 150.71762 330.37348 152.068044 327.113268 152.068044 323.714301 
C 152.068044 320.315334 150.71762 317.055122 148.314188 314.651689 
C 145.910755 312.248256 142.650543 310.897832 139.251576 310.897832 
C 135.852609 310.897832 132.592397 312.248256 130.188964 314.651689 
C 127.785531 317.055122 126.435108 320.315334 126.435108 323.714301 
C 126.435108 327.113268 127.785531 330.37348 130.188964 332.776913 
C 132.592397 335.180345 135.852609 336.530769 139.251576 336.530769 
z
" style="fill:none;stroke:#ff00bf;stroke-linejoin:miter;"/>
   </g>
   <g id="patch_25">
    <path d="M 308.998753 22.536677 
C 310.784557 22.536677 312.49746 21.827169 313.760214 20.564415 
C 315.022968 19.301661 315.732476 17.588758 315.732476 15.802954 
C 315.732476 14.017149 315.022968 12.304247 313.760214 11.041493 
C 312.49746 9.778738 310.784557 9.069231 308.998753 9.069231 
C 307.212949 9.069231 305.500046 9.778738 304.237292 11.041493 
C 302.974538 12.304247 302.26503 14.017149 302.26503 15.802954 
C 302.26503 17.588758 302.974538 19.301661 304.237292 20.564415 
C 305.500046 21.827169 307.212949 22.536677 308.998753 22.536677 
z
" style="fill:#fec7b8;stroke:#000000;stroke-linejoin:miter;"/>
   </g>
   <g id="patch_26">
    <path d="M 225.97294 168.831325 
C 227.758745 168.831325 229.471647 168.121818 230.734401 166.859063 
C 231.997156 165.596309 232.706663 163.883406 232.706663 162.097602 
C 232.706663 160.311798 231.997156 158.598895 230.734401 157.336141 
C 229.471647 156.073387 227.758745 155.363879 225.97294 155.363879 
C 224.187136 155.363879 222.474233 156.073387 221.211479 157.336141 
C 219.948725 158.598895 219.239217 160.311798 219.239217 162.097602 
C 219.239217 163.883406 219.948725 165.596309 221.211479 166.859063 
C 222.474233 168.121818 224.187136 168.831325 225.97294 168.831325 
z
" style="fill:#fec7b8;stroke:#000000;stroke-linejoin:miter;"/>
   </g>
   <g id="patch_27">
    <path d="M 139.251576 317.631555 
C 141.03738 317.631555 142.750283 316.922048 144.013037 315.659294 
C 145.275791 314.396539 145.985299 312.683637 145.985299 310.897832 
C 145.985299 309.112028 145.275791 307.399126 144.013037 306.136371 
C 142.750283 304.873617 141.03738 304.164109 139.251576 304.164109 
C 137.465772 304.164109 135.752869 304.873617 134.490115 306.136371 
C 133.227361 307.399126 132.517853 309.112028 132.517853 310.897832 
C 132.517853 312.683637 133.227361 314.396539 134.490115 315.659294 
C 135.752869 316.922048 137.465772 317.631555 139.251576 317.631555 
z
" style="fill:#fec7b8;stroke:#000000;stroke-linejoin:miter;"/>
   </g>
   <g id="text_12">
    <!-- 0 -->
    <defs>
     <path d="M 31.78125 66.40625 
Q 24.171875 66.40625 20.328125 58.90625 
Q 16.5 51.421875 16.5 36.375 
Q 16.5 21.390625 20.328125 13.890625 
Q 24.171875 6.390625 31.78125 6.390625 
Q 39.453125 6.390625 43.28125 13.890625 
Q 47.125 21.390625 47.125 36.375 
Q 47.125 51.421875 43.28125 58.90625 
Q 39.453125 66.40625 31.78125 66.40625 
z
M 31.78125 74.21875 
Q 44.046875 74.21875 50.515625 64.515625 
Q 56.984375 54.828125 56.984375 36.375 
Q 56.984375 17.96875 50.515625 8.265625 
Q 44.046875 -1.421875 31.78125 -1.421875 
Q 19.53125 -1.421875 13.0625 8.265625 
Q 6.59375 17.96875 6.59375 36.375 
Q 6.59375 54.828125 13.0625 64.515625 
Q 19.53125 74.21875 31.78125 74.21875 
z
" id="DejaVuSans-30"/>
    </defs>
    <g transform="translate(305.817503 18.562329)scale(0.1 -0.1)">
     <use xlink:href="#DejaVuSans-30"/>
    </g>
   </g>
   <g id="text_13">
    <!-- 1 -->
    <defs>
     <path d="M 12.40625 8.296875 
L 28.515625 8.296875 
L 28.515625 63.921875 
L 10.984375 60.40625 
L 10.984375 69.390625 
L 28.421875 72.90625 
L 38.28125 72.90625 
L 38.28125 8.296875 
L 54.390625 8.296875 
L 54.390625 0 
L 12.40625 0 
z
" id="DejaVuSans-31"/>
    </defs>
    <g transform="translate(222.79169 164.856977)scale(0.1 -0.1)">
     <use xlink:href="#DejaVuSans-31"/>
    </g>
   </g>
   <g id="text_14">
    <!-- 2 -->
    <defs>
     <path d="M 19.1875 8.296875 
L 53.609375 8.296875 
L 53.609375 0 
L 7.328125 0 
L 7.328125 8.296875 
Q 12.9375 14.109375 22.625 23.890625 
Q 32.328125 33.6875 34.8125 36.53125 
Q 39.546875 41.84375 41.421875 45.53125 
Q 43.3125 49.21875 43.3125 52.78125 
Q 43.3125 58.59375 39.234375 62.25 
Q 35.15625 65.921875 28.609375 65.921875 
Q 23.96875 65.921875 18.8125 64.3125 
Q 13.671875 62.703125 7.8125 59.421875 
L 7.8125 69.390625 
Q 13.765625 71.78125 18.9375 73 
Q 24.125 74.21875 28.421875 74.21875 
Q 39.75 74.21875 46.484375 68.546875 
Q 53.21875 62.890625 53.21875 53.421875 
Q 53.21875 48.921875 51.53125 44.890625 
Q 49.859375 40.875 45.40625 35.40625 
Q 44.1875 33.984375 37.640625 27.21875 
Q 31.109375 20.453125 19.1875 8.296875 
z
" id="DejaVuSans-32"/>
    </defs>
    <g transform="translate(136.070326 313.657207)scale(0.1 -0.1)">
     <use xlink:href="#DejaVuSans-32"/>
    </g>
   </g>
  </g>
 </g>
 <defs>
  <clipPath id="pb6afe380ba">
   <rect height="340.56" width="216.246976" x="122.276512" y="2.52"/>
  </clipPath>
 </defs>
</svg>
