<?xml version="1.0" encoding="utf-8" standalone="no"?>
<!DOCTYPE svg PUBLIC "-//W3C//DTD SVG 1.1//EN"
  "http://www.w3.org/Graphics/SVG/1.1/DTD/svg11.dtd">
<svg xmlns:xlink="http://www.w3.org/1999/xlink" width="460.8pt" height="345.6pt" viewBox="0 0 460.8 345.6" xmlns="http://www.w3.org/2000/svg" version="1.1">
 <metadata>
  <rdf:RDF xmlns:dc="http://purl.org/dc/elements/1.1/" xmlns:cc="http://creativecommons.org/ns#" xmlns:rdf="http://www.w3.org/1999/02/22-rdf-syntax-ns#">
   <cc:Work>
    <dc:type rdf:resource="http://purl.org/dc/dcmitype/StillImage"/>
    <dc:date>2023-05-25T19:49:01.370709</dc:date>
    <dc:format>image/svg+xml</dc:format>
    <dc:creator>
     <cc:Agent>
      <dc:title>Matplotlib v3.6.2, https://matplotlib.org/</dc:title>
     </cc:Agent>
    </dc:creator>
   </cc:Work>
  </rdf:RDF>
 </metadata>
 <defs>
  <style type="text/css">*{stroke-linejoin: round; stroke-linecap: butt}</style>
 </defs>
 <g id="figure_1">
  <g id="patch_1">
   <path d="M 0 345.6 
L 460.8 345.6 
L 460.8 0 
L 0 0 
z
" style="fill: #ffffff"/>
  </g>
  <g id="axes_1">
   <g id="patch_2">
    <path d="M 0 274.651369 
L 460.8 274.651369 
L 460.8 70.948631 
L 0 70.948631 
z
" style="fill: #ffffff"/>
   </g>
   <g id="patch_3">
    <path d="M 420.881786 108.713552 
Q 341.272259 166.677788 245.045122 168.249216 
" clip-path="url(#pc1ea11367c)" style="fill: none; stroke: #7fff00; stroke-width: 2; stroke-linecap: round"/>
    <path d="M 255.12543 173.085267 
L 245.045122 168.249216 
L 254.962148 163.086601 
L 255.12543 173.085267 
z
" clip-path="url(#pc1ea11367c)" style="fill: #7fff00; stroke: #7fff00; stroke-width: 2; stroke-linecap: round"/>
   </g>
   <g id="patch_4">
    <path d="M 419.258747 103.861984 
Q 320.795841 105.469924 242.993985 162.117982 
" clip-path="url(#pc1ea11367c)" style="fill: none; stroke: #7fff00; stroke-width: 2; stroke-linecap: round"/>
    <path d="M 254.021201 160.273932 
L 242.993985 162.117982 
L 248.135075 152.18978 
L 254.021201 160.273932 
z
" clip-path="url(#pc1ea11367c)" style="fill: #7fff00; stroke: #7fff00; stroke-width: 2; stroke-linecap: round"/>
   </g>
   <g id="patch_5">
    <path d="M 422.380459 110.295922 
Q 351.510468 197.28172 244.73573 170.986069 
" clip-path="url(#pc1ea11367c)" style="fill: none; stroke: #00ff3f; stroke-width: 2; stroke-linecap: round"/>
    <path d="M 253.249974 178.232284 
L 244.73573 170.986069 
L 255.641249 168.522402 
L 253.249974 178.232284 
z
" clip-path="url(#pc1ea11367c)" style="fill: #00ff3f; stroke: #00ff3f; stroke-width: 2; stroke-linecap: round"/>
   </g>
   <g id="patch_6">
    <path d="M 419.503566 101.696347 
Q 310.557632 74.865992 241.100017 160.11824 
" clip-path="url(#pc1ea11367c)" style="fill: none; stroke: #00ffff; stroke-width: 2; stroke-linecap: round"/>
    <path d="M 251.292688 155.523739 
L 241.100017 160.11824 
L 243.540019 149.207402 
L 251.292688 155.523739 
z
" clip-path="url(#pc1ea11367c)" style="fill: #00ffff; stroke: #00ffff; stroke-width: 2; stroke-linecap: round"/>
   </g>
   <g id="matplotlib.axis_1"/>
   <g id="matplotlib.axis_2"/>
   <g id="patch_7">
    <path d="M 224.172904 171.823455 
Q 129.665004 203.443547 33.036574 235.773118 
" clip-path="url(#pc1ea11367c)" style="fill: none; stroke: #7f00ff; stroke-width: 2; stroke-linecap: round"/>
    <path d="M 213.103172 170.254693 
L 224.172904 171.823455 
L 216.276055 179.737984 
L 213.103172 170.254693 
z
" clip-path="url(#pc1ea11367c)" style="fill: #7f00ff; stroke: #7f00ff; stroke-width: 2; stroke-linecap: round"/>
   </g>
   <g id="patch_8">
    <path d="M 419.69557 106.413119 
Q 331.03405 136.073856 244.493082 165.025185 
" clip-path="url(#pc1ea11367c)" style="fill: none; stroke: #003fff; stroke-width: 2; stroke-linecap: round"/>
    <path d="M 255.562763 166.594318 
L 244.493082 165.025185 
L 252.390197 157.110921 
L 255.562763 166.594318 
z
" clip-path="url(#pc1ea11367c)" style="fill: #003fff; stroke: #003fff; stroke-width: 2; stroke-linecap: round"/>
   </g>
   <g id="text_1">
    <g id="patch_9">
     <path d="M 420.560945 144.833688 
L 434.909382 144.833688 
L 434.909382 127.155563 
L 420.560945 127.155563 
z
" style="fill: #ffffff; stroke: #ffffff; stroke-linejoin: miter"/>
    </g>
    <!-- b -->
    <g style="fill: #0000ff" transform="translate(424.560945 138.754) scale(0.1 -0.1)">
     <defs>
      <path id="DejaVuSans-62" d="M 3116 1747 
Q 3116 2381 2855 2742 
Q 2594 3103 2138 3103 
Q 1681 3103 1420 2742 
Q 1159 2381 1159 1747 
Q 1159 1113 1420 752 
Q 1681 391 2138 391 
Q 2594 391 2855 752 
Q 3116 1113 3116 1747 
z
M 1159 2969 
Q 1341 3281 1617 3432 
Q 1894 3584 2278 3584 
Q 2916 3584 3314 3078 
Q 3713 2572 3713 1747 
Q 3713 922 3314 415 
Q 2916 -91 2278 -91 
Q 1894 -91 1617 61 
Q 1341 213 1159 525 
L 1159 0 
L 581 0 
L 581 4863 
L 1159 4863 
L 1159 2969 
z
" transform="scale(0.015625)"/>
     </defs>
     <use xlink:href="#DejaVuSans-62"/>
    </g>
   </g>
   <g id="text_2">
    <g id="patch_10">
     <path d="M 420.671101 160.96922 
L 434.799226 160.96922 
L 434.799226 143.291095 
L 420.671101 143.291095 
z
" style="fill: #ffffff; stroke: #ffffff; stroke-linejoin: miter"/>
    </g>
    <!-- a -->
    <g style="fill: #0000ff" transform="translate(424.671101 154.889532) scale(0.1 -0.1)">
     <defs>
      <path id="DejaVuSans-61" d="M 2194 1759 
Q 1497 1759 1228 1600 
Q 959 1441 959 1056 
Q 959 750 1161 570 
Q 1363 391 1709 391 
Q 2188 391 2477 730 
Q 2766 1069 2766 1631 
L 2766 1759 
L 2194 1759 
z
M 3341 1997 
L 3341 0 
L 2766 0 
L 2766 531 
Q 2569 213 2275 61 
Q 1981 -91 1556 -91 
Q 1019 -91 701 211 
Q 384 513 384 1019 
Q 384 1609 779 1909 
Q 1175 2209 1959 2209 
L 2766 2209 
L 2766 2266 
Q 2766 2663 2505 2880 
Q 2244 3097 1772 3097 
Q 1472 3097 1187 3025 
Q 903 2953 641 2809 
L 641 3341 
Q 956 3463 1253 3523 
Q 1550 3584 1831 3584 
Q 2591 3584 2966 3190 
Q 3341 2797 3341 1997 
z
" transform="scale(0.015625)"/>
     </defs>
     <use xlink:href="#DejaVuSans-61"/>
    </g>
   </g>
   <g id="text_3">
    <g id="patch_11">
     <path d="M 330.392998 160.214884 
L 341.913311 160.214884 
L 341.913311 142.536759 
L 330.392998 142.536759 
z
" style="fill: #ffffff; stroke: #ffffff; stroke-linejoin: miter"/>
    </g>
    <!-- f -->
    <g style="fill: #0000ff" transform="translate(334.392998 154.135197) scale(0.1 -0.1)">
     <defs>
      <path id="DejaVuSans-66" d="M 2375 4863 
L 2375 4384 
L 1825 4384 
Q 1516 4384 1395 4259 
Q 1275 4134 1275 3809 
L 1275 3500 
L 2222 3500 
L 2222 3053 
L 1275 3053 
L 1275 0 
L 697 0 
L 697 3053 
L 147 3053 
L 147 3500 
L 697 3500 
L 697 3744 
Q 697 4328 969 4595 
Q 1241 4863 1831 4863 
L 2375 4863 
z
" transform="scale(0.015625)"/>
     </defs>
     <use xlink:href="#DejaVuSans-66"/>
    </g>
   </g>
   <g id="text_4">
    <g id="patch_12">
     <path d="M 320.154789 129.610952 
L 331.675102 129.610952 
L 331.675102 111.932827 
L 320.154789 111.932827 
z
" style="fill: #ffffff; stroke: #ffffff; stroke-linejoin: miter"/>
    </g>
    <!-- f -->
    <g style="fill: #0000ff" transform="translate(324.154789 123.531265) scale(0.1 -0.1)">
     <use xlink:href="#DejaVuSans-66"/>
    </g>
   </g>
   <g id="text_5">
    <g id="patch_13">
     <path d="M 334.195697 175.51685 
L 348.348822 175.51685 
L 348.348822 157.838725 
L 334.195697 157.838725 
z
" style="fill: #ffffff; stroke: #ffffff; stroke-linejoin: miter"/>
    </g>
    <!-- e -->
    <g style="fill: #0000ff" transform="translate(338.195697 169.437163) scale(0.1 -0.1)">
     <defs>
      <path id="DejaVuSans-65" d="M 3597 1894 
L 3597 1613 
L 953 1613 
Q 991 1019 1311 708 
Q 1631 397 2203 397 
Q 2534 397 2845 478 
Q 3156 559 3463 722 
L 3463 178 
Q 3153 47 2828 -22 
Q 2503 -91 2169 -91 
Q 1331 -91 842 396 
Q 353 884 353 1716 
Q 353 2575 817 3079 
Q 1281 3584 2069 3584 
Q 2775 3584 3186 3129 
Q 3597 2675 3597 1894 
z
M 3022 2063 
Q 3016 2534 2758 2815 
Q 2500 3097 2075 3097 
Q 1594 3097 1305 2825 
Q 1016 2553 972 2059 
L 3022 2063 
z
" transform="scale(0.015625)"/>
     </defs>
     <use xlink:href="#DejaVuSans-65"/>
    </g>
   </g>
   <g id="text_6">
    <g id="patch_14">
     <path d="M 313.621622 114.308986 
L 327.97006 114.308986 
L 327.97006 96.630861 
L 313.621622 96.630861 
z
" style="fill: #ffffff; stroke: #ffffff; stroke-linejoin: miter"/>
    </g>
    <!-- d -->
    <g style="fill: #0000ff" transform="translate(317.621622 108.229299) scale(0.1 -0.1)">
     <defs>
      <path id="DejaVuSans-64" d="M 2906 2969 
L 2906 4863 
L 3481 4863 
L 3481 0 
L 2906 0 
L 2906 525 
Q 2725 213 2448 61 
Q 2172 -91 1784 -91 
Q 1150 -91 751 415 
Q 353 922 353 1747 
Q 353 2572 751 3078 
Q 1150 3584 1784 3584 
Q 2172 3584 2448 3432 
Q 2725 3281 2906 2969 
z
M 947 1747 
Q 947 1113 1208 752 
Q 1469 391 1925 391 
Q 2381 391 2643 752 
Q 2906 1113 2906 1747 
Q 2906 2381 2643 2742 
Q 2381 3103 1925 3103 
Q 1469 3103 1208 2742 
Q 947 2381 947 1747 
z
" transform="scale(0.015625)"/>
     </defs>
     <use xlink:href="#DejaVuSans-64"/>
    </g>
   </g>
   <g id="text_7">
    <g id="patch_15">
     <path d="M 17.828321 279.573071 
L 32.165821 279.573071 
L 32.165821 261.894946 
L 17.828321 261.894946 
z
" style="fill: #ffffff; stroke: #ffffff; stroke-linejoin: miter"/>
    </g>
    <!-- h -->
    <g style="fill: #0000ff" transform="translate(21.828321 273.493383) scale(0.1 -0.1)">
     <defs>
      <path id="DejaVuSans-68" d="M 3513 2113 
L 3513 0 
L 2938 0 
L 2938 2094 
Q 2938 2591 2744 2837 
Q 2550 3084 2163 3084 
Q 1697 3084 1428 2787 
Q 1159 2491 1159 1978 
L 1159 0 
L 581 0 
L 581 4863 
L 1159 4863 
L 1159 2956 
Q 1366 3272 1645 3428 
Q 1925 3584 2291 3584 
Q 2894 3584 3203 3211 
Q 3513 2838 3513 2113 
z
" transform="scale(0.015625)"/>
     </defs>
     <use xlink:href="#DejaVuSans-68"/>
    </g>
   </g>
   <g id="text_8">
    <g id="patch_16">
     <path d="M 122.490785 212.28261 
L 136.839222 212.28261 
L 136.839222 194.604485 
L 122.490785 194.604485 
z
" style="fill: #ffffff; stroke: #ffffff; stroke-linejoin: miter"/>
    </g>
    <!-- g -->
    <g style="fill: #0000ff" transform="translate(126.490785 206.202922) scale(0.1 -0.1)">
     <defs>
      <path id="DejaVuSans-67" d="M 2906 1791 
Q 2906 2416 2648 2759 
Q 2391 3103 1925 3103 
Q 1463 3103 1205 2759 
Q 947 2416 947 1791 
Q 947 1169 1205 825 
Q 1463 481 1925 481 
Q 2391 481 2648 825 
Q 2906 1169 2906 1791 
z
M 3481 434 
Q 3481 -459 3084 -895 
Q 2688 -1331 1869 -1331 
Q 1566 -1331 1297 -1286 
Q 1028 -1241 775 -1147 
L 775 -588 
Q 1028 -725 1275 -790 
Q 1522 -856 1778 -856 
Q 2344 -856 2625 -561 
Q 2906 -266 2906 331 
L 2906 616 
Q 2728 306 2450 153 
Q 2172 0 1784 0 
Q 1141 0 747 490 
Q 353 981 353 1791 
Q 353 2603 747 3093 
Q 1141 3584 1784 3584 
Q 2172 3584 2450 3431 
Q 2728 3278 2906 2969 
L 2906 3500 
L 3481 3500 
L 3481 434 
z
" transform="scale(0.015625)"/>
     </defs>
     <use xlink:href="#DejaVuSans-67"/>
    </g>
   </g>
   <g id="text_9">
    <g id="patch_17">
     <path d="M 324.284831 144.912918 
L 337.783269 144.912918 
L 337.783269 127.234793 
L 324.284831 127.234793 
z
" style="fill: #ffffff; stroke: #ffffff; stroke-linejoin: miter"/>
    </g>
    <!-- c -->
    <g style="fill: #0000ff" transform="translate(328.284831 138.833231) scale(0.1 -0.1)">
     <defs>
      <path id="DejaVuSans-63" d="M 3122 3366 
L 3122 2828 
Q 2878 2963 2633 3030 
Q 2388 3097 2138 3097 
Q 1578 3097 1268 2742 
Q 959 2388 959 1747 
Q 959 1106 1268 751 
Q 1578 397 2138 397 
Q 2388 397 2633 464 
Q 2878 531 3122 666 
L 3122 134 
Q 2881 22 2623 -34 
Q 2366 -91 2075 -91 
Q 1284 -91 818 406 
Q 353 903 353 1747 
Q 353 2603 823 3093 
Q 1294 3584 2113 3584 
Q 2378 3584 2631 3529 
Q 2884 3475 3122 3366 
z
" transform="scale(0.015625)"/>
     </defs>
     <use xlink:href="#DejaVuSans-63"/>
    </g>
   </g>
   <g id="patch_18">
    <path d="M 427.735163 112.201107 
C 429.983435 112.201107 432.139926 111.307859 433.729694 109.718091 
C 435.319462 108.128323 436.21271 105.971832 436.21271 103.723561 
C 436.21271 101.475289 435.319462 99.318799 433.729694 97.729031 
C 432.139926 96.139263 429.983435 95.246015 427.735163 95.246015 
C 425.486892 95.246015 423.330401 96.139263 421.740633 97.729031 
C 420.150865 99.318799 419.257617 101.475289 419.257617 103.723561 
C 419.257617 105.971832 420.150865 108.128323 421.740633 109.718091 
C 423.330401 111.307859 425.486892 112.201107 427.735163 112.201107 
z
" style="fill: #fec7b8; stroke: #000000; stroke-linejoin: miter"/>
   </g>
   <g id="patch_19">
    <path d="M 234.332937 176.901697 
C 236.581208 176.901697 238.737699 176.008449 240.327467 174.418681 
C 241.917235 172.828913 242.810483 170.672422 242.810483 168.424151 
C 242.810483 166.175879 241.917235 164.019388 240.327467 162.42962 
C 238.737699 160.839852 236.581208 159.946605 234.332937 159.946605 
C 232.084665 159.946605 229.928174 160.839852 228.338406 162.42962 
C 226.748638 164.019388 225.855391 166.175879 225.855391 168.424151 
C 225.855391 170.672422 226.748638 172.828913 228.338406 174.418681 
C 229.928174 176.008449 232.084665 176.901697 234.332937 176.901697 
z
" style="fill: #fec7b8; stroke: #000000; stroke-linejoin: miter"/>
   </g>
   <g id="patch_20">
    <path d="M 24.997071 246.94049 
C 27.245342 246.94049 29.401833 246.047242 30.991601 244.457474 
C 32.581369 242.867706 33.474617 240.711216 33.474617 238.462944 
C 33.474617 236.214673 32.581369 234.058182 30.991601 232.468414 
C 29.401833 230.878646 27.245342 229.985398 24.997071 229.985398 
C 22.748799 229.985398 20.592308 230.878646 19.00254 232.468414 
C 17.412772 234.058182 16.519524 236.214673 16.519524 238.462944 
C 16.519524 240.711216 17.412772 242.867706 19.00254 244.457474 
C 20.592308 246.047242 22.748799 246.94049 24.997071 246.94049 
z
" style="fill: #fec7b8; stroke: #000000; stroke-linejoin: miter"/>
   </g>
   <g id="patch_21">
    <path d="M 427.735163 135.994625 
C 432.014357 135.994625 436.118861 134.294484 439.144708 131.268637 
C 442.170554 128.242791 443.870695 124.138286 443.870695 119.859093 
C 443.870695 115.5799 442.170554 111.475395 439.144708 108.449549 
C 436.118861 105.423702 432.014357 103.723561 427.735163 103.723561 
C 423.45597 103.723561 419.351466 105.423702 416.325619 108.449549 
C 413.299773 111.475395 411.599631 115.5799 411.599631 119.859093 
C 411.599631 124.138286 413.299773 128.242791 416.325619 131.268637 
C 419.351466 134.294484 423.45597 135.994625 427.735163 135.994625 
L 427.735163 135.994625 
z
" clip-path="url(#pc1ea11367c)" style="fill: none; stroke: #ff0000; stroke-linejoin: miter"/>
   </g>
   <g id="patch_22">
    <path d="M 427.735163 152.130157 
C 434.153953 152.130157 440.31071 149.579945 444.84948 145.041175 
C 449.388249 140.502406 451.938462 134.345649 451.938462 127.926859 
C 451.938462 121.508069 449.388249 115.351313 444.84948 110.812543 
C 440.31071 106.273773 434.153953 103.723561 427.735163 103.723561 
C 421.316374 103.723561 415.159617 106.273773 410.620847 110.812543 
C 406.082077 115.351313 403.531865 121.508069 403.531865 127.926859 
C 403.531865 134.345649 406.082077 140.502406 410.620847 145.041175 
C 415.159617 149.579945 421.316374 152.130157 427.735163 152.130157 
L 427.735163 152.130157 
z
" clip-path="url(#pc1ea11367c)" style="fill: none; stroke: #ffbf00; stroke-linejoin: miter"/>
   </g>
   <g id="patch_23">
    <path d="M 24.997071 270.734008 
C 29.276264 270.734008 33.380768 269.033867 36.406615 266.00802 
C 39.432461 262.982174 41.132603 258.877669 41.132603 254.598476 
C 41.132603 250.319283 39.432461 246.214778 36.406615 243.188932 
C 33.380768 240.163086 29.276264 238.462944 24.997071 238.462944 
C 20.717877 238.462944 16.613373 240.163086 13.587526 243.188932 
C 10.56168 246.214778 8.861538 250.319283 8.861538 254.598476 
C 8.861538 258.877669 10.56168 262.982174 13.587526 266.00802 
C 16.613373 269.033867 20.717877 270.734008 24.997071 270.734008 
L 24.997071 270.734008 
z
" clip-path="url(#pc1ea11367c)" style="fill: none; stroke: #ff00bf; stroke-linejoin: miter"/>
   </g>
   <g id="text_10">
    <!-- 0 -->
    <g transform="translate(424.553913 106.482936) scale(0.1 -0.1)">
     <defs>
      <path id="DejaVuSans-30" d="M 2034 4250 
Q 1547 4250 1301 3770 
Q 1056 3291 1056 2328 
Q 1056 1369 1301 889 
Q 1547 409 2034 409 
Q 2525 409 2770 889 
Q 3016 1369 3016 2328 
Q 3016 3291 2770 3770 
Q 2525 4250 2034 4250 
z
M 2034 4750 
Q 2819 4750 3233 4129 
Q 3647 3509 3647 2328 
Q 3647 1150 3233 529 
Q 2819 -91 2034 -91 
Q 1250 -91 836 529 
Q 422 1150 422 2328 
Q 422 3509 836 4129 
Q 1250 4750 2034 4750 
z
" transform="scale(0.015625)"/>
     </defs>
     <use xlink:href="#DejaVuSans-30"/>
    </g>
   </g>
   <g id="text_11">
    <!-- 1 -->
    <g transform="translate(231.151687 171.183526) scale(0.1 -0.1)">
     <defs>
      <path id="DejaVuSans-31" d="M 794 531 
L 1825 531 
L 1825 4091 
L 703 3866 
L 703 4441 
L 1819 4666 
L 2450 4666 
L 2450 531 
L 3481 531 
L 3481 0 
L 794 0 
L 794 531 
z
" transform="scale(0.015625)"/>
     </defs>
     <use xlink:href="#DejaVuSans-31"/>
    </g>
   </g>
   <g id="text_12">
    <!-- 2 -->
    <g transform="translate(21.815821 241.222319) scale(0.1 -0.1)">
     <defs>
      <path id="DejaVuSans-32" d="M 1228 531 
L 3431 531 
L 3431 0 
L 469 0 
L 469 531 
Q 828 903 1448 1529 
Q 2069 2156 2228 2338 
Q 2531 2678 2651 2914 
Q 2772 3150 2772 3378 
Q 2772 3750 2511 3984 
Q 2250 4219 1831 4219 
Q 1534 4219 1204 4116 
Q 875 4013 500 3803 
L 500 4441 
Q 881 4594 1212 4672 
Q 1544 4750 1819 4750 
Q 2544 4750 2975 4387 
Q 3406 4025 3406 3419 
Q 3406 3131 3298 2873 
Q 3191 2616 2906 2266 
Q 2828 2175 2409 1742 
Q 1991 1309 1228 531 
z
" transform="scale(0.015625)"/>
     </defs>
     <use xlink:href="#DejaVuSans-32"/>
    </g>
   </g>
  </g>
 </g>
 <defs>
  <clipPath id="pc1ea11367c">
   <rect x="0" y="70.948631" width="460.8" height="203.702737"/>
  </clipPath>
 </defs>
</svg>
