<?xml version="1.0" encoding="utf-8" standalone="no"?>
<!DOCTYPE svg PUBLIC "-//W3C//DTD SVG 1.1//EN"
  "http://www.w3.org/Graphics/SVG/1.1/DTD/svg11.dtd">
<!-- Created with matplotlib (http://matplotlib.org/) -->
<svg height="345.6pt" version="1.1" viewBox="0 0 460.8 345.6" width="460.8pt" xmlns="http://www.w3.org/2000/svg" xmlns:xlink="http://www.w3.org/1999/xlink">
 <defs>
  <style type="text/css">
*{stroke-linecap:butt;stroke-linejoin:round;}
  </style>
 </defs>
 <g id="figure_1">
  <g id="patch_1">
   <path d="M 0 345.6 
L 460.8 345.6 
L 460.8 0 
L 0 0 
z
" style="fill:#ffffff;"/>
  </g>
  <g id="axes_1">
   <g id="patch_2">
    <path d="M 2.52 292.475156 
L 458.28 292.475156 
L 458.28 53.124844 
L 2.52 53.124844 
z
" style="fill:#ffffff;"/>
   </g>
   <g id="patch_3">
    <path clip-path="url(#p64f4c3edc3)" d="M 373.827575 229.592885 
Q 359.351263 191.191584 321.193213 198.238099 
" style="fill:none;stroke:#00ffff;stroke-linecap:round;stroke-width:2;"/>
    <path clip-path="url(#p64f4c3edc3)" d="M 331.934925 201.339004 
L 321.193213 198.238099 
L 330.118964 191.505272 
L 331.934925 201.339004 
z
" style="fill:#00ffff;stroke:#00ffff;stroke-linecap:round;stroke-width:2;"/>
   </g>
   <g id="patch_4">
    <path clip-path="url(#p64f4c3edc3)" d="M 363.530763 244.346401 
Q 325.372713 251.392916 310.896401 212.991616 
" style="fill:none;stroke:#ff0000;stroke-linecap:round;stroke-width:2;"/>
    <path clip-path="url(#p64f4c3edc3)" d="M 352.789051 241.245497 
L 363.530763 244.346401 
L 354.605012 251.079229 
L 352.789051 241.245497 
z
" style="fill:#ff0000;stroke:#ff0000;stroke-linecap:round;stroke-width:2;"/>
   </g>
   <g id="patch_5">
    <path clip-path="url(#p64f4c3edc3)" d="M 229.831193 150.630894 
Q 211.699484 113.147435 173.564457 123.06081 
" style="fill:none;stroke:#00ffff;stroke-linecap:round;stroke-width:2;"/>
    <path clip-path="url(#p64f4c3edc3)" d="M 184.500753 125.38405 
L 173.564457 123.06081 
L 181.984826 115.705717 
L 184.500753 125.38405 
z
" style="fill:#00ffff;stroke:#00ffff;stroke-linecap:round;stroke-width:2;"/>
   </g>
   <g id="patch_6">
    <path clip-path="url(#p64f4c3edc3)" d="M 220.830785 165.983771 
Q 182.695759 175.897146 164.564049 138.413688 
" style="fill:none;stroke:#ff0000;stroke-linecap:round;stroke-width:2;"/>
    <path clip-path="url(#p64f4c3edc3)" d="M 209.89449 163.660532 
L 220.830785 165.983771 
L 212.410417 173.338864 
L 209.89449 163.660532 
z
" style="fill:#ff0000;stroke:#ff0000;stroke-linecap:round;stroke-width:2;"/>
   </g>
   <g id="patch_7">
    <path clip-path="url(#p64f4c3edc3)" d="M 153.765896 115.115957 
Q 138.181778 79.98119 103.889671 91.577635 
" style="fill:none;stroke:#00ffff;stroke-linecap:round;stroke-width:2;"/>
    <path clip-path="url(#p64f4c3edc3)" d="M 114.964406 93.110684 
L 103.889671 91.577635 
L 111.760951 83.637676 
L 114.964406 93.110684 
z
" style="fill:#00ffff;stroke:#00ffff;stroke-linecap:round;stroke-width:2;"/>
   </g>
   <g id="patch_8">
    <path clip-path="url(#p64f4c3edc3)" d="M 144.689861 131.683958 
Q 110.397754 143.280403 94.813636 108.145635 
" style="fill:none;stroke:#ff0000;stroke-linecap:round;stroke-width:2;"/>
    <path clip-path="url(#p64f4c3edc3)" d="M 133.615126 130.150909 
L 144.689861 131.683958 
L 136.818581 139.623916 
L 133.615126 130.150909 
z
" style="fill:#ff0000;stroke:#ff0000;stroke-linecap:round;stroke-width:2;"/>
   </g>
   <g id="patch_9">
    <path clip-path="url(#p64f4c3edc3)" d="M 250.177859 159.090803 
Q 287.475263 151.255463 301.805958 188.972304 
" style="fill:none;stroke:#00ffff;stroke-linecap:round;stroke-width:2;"/>
    <path clip-path="url(#p64f4c3edc3)" d="M 260.99219 161.928097 
L 250.177859 159.090803 
L 258.936293 152.141715 
L 260.99219 161.928097 
z
" style="fill:#00ffff;stroke:#00ffff;stroke-linecap:round;stroke-width:2;"/>
   </g>
   <g id="patch_10">
    <path clip-path="url(#p64f4c3edc3)" d="M 239.983743 174.194224 
Q 254.314438 211.911065 291.611842 204.075725 
" style="fill:none;stroke:#ff0000;stroke-linecap:round;stroke-width:2;"/>
    <path clip-path="url(#p64f4c3edc3)" d="M 280.797511 201.238431 
L 291.611842 204.075725 
L 282.853408 211.024813 
L 280.797511 201.238431 
z
" style="fill:#ff0000;stroke:#ff0000;stroke-linecap:round;stroke-width:2;"/>
   </g>
   <g id="matplotlib.axis_1"/>
   <g id="matplotlib.axis_2"/>
   <g id="patch_11">
    <path clip-path="url(#p64f4c3edc3)" d="M 423.593377 267.534275 
Q 407.515766 258.319868 389.49812 247.993587 
" style="fill:none;stroke:#ff0000;stroke-linecap:round;stroke-width:2;"/>
    <path clip-path="url(#p64f4c3edc3)" d="M 417.403501 258.223773 
L 423.593377 267.534275 
L 412.43105 266.899875 
L 417.403501 258.223773 
z
" style="fill:#ff0000;stroke:#ff0000;stroke-linecap:round;stroke-width:2;"/>
   </g>
   <g id="patch_12">
    <path clip-path="url(#p64f4c3edc3)" d="M 77.662465 91.694173 
Q 56.866384 83.488117 38.150293 76.102817 
" style="fill:none;stroke:#00ffff;stroke-linecap:round;stroke-width:2;"/>
    <path clip-path="url(#p64f4c3edc3)" d="M 45.617024 84.42435 
L 38.150293 76.102817 
L 49.287558 75.122352 
L 45.617024 84.42435 
z
" style="fill:#00ffff;stroke:#00ffff;stroke-linecap:round;stroke-width:2;"/>
   </g>
   <g id="text_1">
    <g id="patch_13">
     <path d="M 343.792563 215.08098 
L 357.920688 215.08098 
L 357.920688 197.402855 
L 343.792563 197.402855 
z
" style="fill:#ffffff;stroke:#ffffff;stroke-linejoin:miter;"/>
    </g>
    <!-- a -->
    <defs>
     <path d="M 34.28125 27.484375 
Q 23.390625 27.484375 19.1875 25 
Q 14.984375 22.515625 14.984375 16.5 
Q 14.984375 11.71875 18.140625 8.90625 
Q 21.296875 6.109375 26.703125 6.109375 
Q 34.1875 6.109375 38.703125 11.40625 
Q 43.21875 16.703125 43.21875 25.484375 
L 43.21875 27.484375 
z
M 52.203125 31.203125 
L 52.203125 0 
L 43.21875 0 
L 43.21875 8.296875 
Q 40.140625 3.328125 35.546875 0.953125 
Q 30.953125 -1.421875 24.3125 -1.421875 
Q 15.921875 -1.421875 10.953125 3.296875 
Q 6 8.015625 6 15.921875 
Q 6 25.140625 12.171875 29.828125 
Q 18.359375 34.515625 30.609375 34.515625 
L 43.21875 34.515625 
L 43.21875 35.40625 
Q 43.21875 41.609375 39.140625 45 
Q 35.0625 48.390625 27.6875 48.390625 
Q 23 48.390625 18.546875 47.265625 
Q 14.109375 46.140625 10.015625 43.890625 
L 10.015625 52.203125 
Q 14.9375 54.109375 19.578125 55.046875 
Q 24.21875 56 28.609375 56 
Q 40.484375 56 46.34375 49.84375 
Q 52.203125 43.703125 52.203125 31.203125 
z
" id="DejaVuSans-61"/>
    </defs>
    <g style="fill:#0000ff;" transform="translate(347.792563 209.001292)scale(0.1 -0.1)">
     <use xlink:href="#DejaVuSans-61"/>
    </g>
   </g>
   <g id="text_2">
    <g id="patch_14">
     <path d="M 326.693132 245.181646 
L 341.041569 245.181646 
L 341.041569 227.503521 
L 326.693132 227.503521 
z
" style="fill:#ffffff;stroke:#ffffff;stroke-linejoin:miter;"/>
    </g>
    <!-- b -->
    <defs>
     <path d="M 48.6875 27.296875 
Q 48.6875 37.203125 44.609375 42.84375 
Q 40.53125 48.484375 33.40625 48.484375 
Q 26.265625 48.484375 22.1875 42.84375 
Q 18.109375 37.203125 18.109375 27.296875 
Q 18.109375 17.390625 22.1875 11.75 
Q 26.265625 6.109375 33.40625 6.109375 
Q 40.53125 6.109375 44.609375 11.75 
Q 48.6875 17.390625 48.6875 27.296875 
z
M 18.109375 46.390625 
Q 20.953125 51.265625 25.265625 53.625 
Q 29.59375 56 35.59375 56 
Q 45.5625 56 51.78125 48.09375 
Q 58.015625 40.1875 58.015625 27.296875 
Q 58.015625 14.40625 51.78125 6.484375 
Q 45.5625 -1.421875 35.59375 -1.421875 
Q 29.59375 -1.421875 25.265625 0.953125 
Q 20.953125 3.328125 18.109375 8.203125 
L 18.109375 0 
L 9.078125 0 
L 9.078125 75.984375 
L 18.109375 75.984375 
z
" id="DejaVuSans-62"/>
    </defs>
    <g style="fill:#0000ff;" transform="translate(330.693132 239.101958)scale(0.1 -0.1)">
     <use xlink:href="#DejaVuSans-62"/>
    </g>
   </g>
   <g id="text_3">
    <g id="patch_15">
     <path d="M 197.38449 137.673926 
L 211.512615 137.673926 
L 211.512615 119.995801 
L 197.38449 119.995801 
z
" style="fill:#ffffff;stroke:#ffffff;stroke-linejoin:miter;"/>
    </g>
    <!-- a -->
    <g style="fill:#0000ff;" transform="translate(201.38449 131.594238)scale(0.1 -0.1)">
     <use xlink:href="#DejaVuSans-61"/>
    </g>
   </g>
   <g id="text_4">
    <g id="patch_16">
     <path d="M 182.772471 169.048781 
L 197.120909 169.048781 
L 197.120909 151.370656 
L 182.772471 151.370656 
z
" style="fill:#ffffff;stroke:#ffffff;stroke-linejoin:miter;"/>
    </g>
    <!-- b -->
    <g style="fill:#0000ff;" transform="translate(186.772471 162.969093)scale(0.1 -0.1)">
     <use xlink:href="#DejaVuSans-62"/>
    </g>
   </g>
   <g id="text_5">
    <g id="patch_17">
     <path d="M 124.171709 104.645056 
L 138.299834 104.645056 
L 138.299834 86.966931 
L 124.171709 86.966931 
z
" style="fill:#ffffff;stroke:#ffffff;stroke-linejoin:miter;"/>
    </g>
    <!-- a -->
    <g style="fill:#0000ff;" transform="translate(128.171709 98.565368)scale(0.1 -0.1)">
     <use xlink:href="#DejaVuSans-61"/>
    </g>
   </g>
   <g id="text_6">
    <g id="patch_18">
     <path d="M 110.169541 136.294662 
L 124.517979 136.294662 
L 124.517979 118.616537 
L 110.169541 118.616537 
z
" style="fill:#ffffff;stroke:#ffffff;stroke-linejoin:miter;"/>
    </g>
    <!-- b -->
    <g style="fill:#0000ff;" transform="translate(114.169541 130.214974)scale(0.1 -0.1)">
     <use xlink:href="#DejaVuSans-62"/>
    </g>
   </g>
   <g id="text_7">
    <g id="patch_19">
     <path d="M 272.120994 175.258426 
L 286.249119 175.258426 
L 286.249119 157.580301 
L 272.120994 157.580301 
z
" style="fill:#ffffff;stroke:#ffffff;stroke-linejoin:miter;"/>
    </g>
    <!-- a -->
    <g style="fill:#0000ff;" transform="translate(276.120994 169.178739)scale(0.1 -0.1)">
     <use xlink:href="#DejaVuSans-61"/>
    </g>
   </g>
   <g id="text_8">
    <g id="patch_20">
     <path d="M 255.430425 205.586227 
L 269.778863 205.586227 
L 269.778863 187.908102 
L 255.430425 187.908102 
z
" style="fill:#ffffff;stroke:#ffffff;stroke-linejoin:miter;"/>
    </g>
    <!-- b -->
    <g style="fill:#0000ff;" transform="translate(259.430425 199.506539)scale(0.1 -0.1)">
     <use xlink:href="#DejaVuSans-62"/>
    </g>
   </g>
   <g id="text_9">
    <g id="patch_21">
     <path d="M 400.341547 267.15893 
L 414.689985 267.15893 
L 414.689985 249.480805 
L 400.341547 249.480805 
z
" style="fill:#ffffff;stroke:#ffffff;stroke-linejoin:miter;"/>
    </g>
    <!-- b -->
    <g style="fill:#0000ff;" transform="translate(404.341547 261.079243)scale(0.1 -0.1)">
     <use xlink:href="#DejaVuSans-62"/>
    </g>
   </g>
   <g id="text_10">
    <g id="patch_22">
     <path d="M 49.802321 92.327179 
L 63.930446 92.327179 
L 63.930446 74.649054 
L 49.802321 74.649054 
z
" style="fill:#ffffff;stroke:#ffffff;stroke-linejoin:miter;"/>
    </g>
    <!-- a -->
    <g style="fill:#0000ff;" transform="translate(53.802321 86.247492)scale(0.1 -0.1)">
     <use xlink:href="#DejaVuSans-61"/>
    </g>
   </g>
   <g id="patch_23">
    <path d="M 378.357143 254.44946 
C 381.762615 254.44946 385.029065 253.096452 387.437098 250.68842 
C 389.84513 248.280388 391.198138 245.013937 391.198138 241.608465 
C 391.198138 238.202993 389.84513 234.936543 387.437098 232.52851 
C 385.029065 230.120478 381.762615 228.76747 378.357143 228.76747 
C 374.951671 228.76747 371.68522 230.120478 369.277188 232.52851 
C 366.869156 234.936543 365.516148 238.202993 365.516148 241.608465 
C 365.516148 245.013937 366.869156 248.280388 369.277188 250.68842 
C 371.68522 253.096452 374.951671 254.44946 378.357143 254.44946 
z
" style="fill:#fec7b8;stroke:#000000;stroke-linejoin:miter;"/>
   </g>
   <g id="patch_24">
    <path d="M 306.366833 213.81703 
C 309.772305 213.81703 313.038756 212.464022 315.446788 210.05599 
C 317.85482 207.647958 319.207828 204.381507 319.207828 200.976035 
C 319.207828 197.570564 317.85482 194.304113 315.446788 191.896081 
C 313.038756 189.488048 309.772305 188.13504 306.366833 188.13504 
C 302.961361 188.13504 299.694911 189.488048 297.286878 191.896081 
C 294.878846 194.304113 293.525838 197.570564 293.525838 200.976035 
C 293.525838 204.381507 294.878846 207.647958 297.286878 210.05599 
C 299.694911 212.464022 302.961361 213.81703 306.366833 213.81703 
z
" style="fill:#fec7b8;stroke:#000000;stroke-linejoin:miter;"/>
   </g>
   <g id="patch_25">
    <path d="M 235.422868 175.031488 
C 238.82834 175.031488 242.09479 173.67848 244.502823 171.270447 
C 246.910855 168.862415 248.263863 165.595964 248.263863 162.190493 
C 248.263863 158.785021 246.910855 155.51857 244.502823 153.110538 
C 242.09479 150.702506 238.82834 149.349498 235.422868 149.349498 
C 232.017396 149.349498 228.750945 150.702506 226.342913 153.110538 
C 223.934881 155.51857 222.581873 158.785021 222.581873 162.190493 
C 222.581873 165.595964 223.934881 168.862415 226.342913 171.270447 
C 228.750945 173.67848 232.017396 175.031488 235.422868 175.031488 
z
" style="fill:#fec7b8;stroke:#000000;stroke-linejoin:miter;"/>
   </g>
   <g id="patch_26">
    <path d="M 158.972375 139.695084 
C 162.377846 139.695084 165.644297 138.342076 168.052329 135.934044 
C 170.460362 133.526011 171.81337 130.259561 171.81337 126.854089 
C 171.81337 123.448617 170.460362 120.182166 168.052329 117.774134 
C 165.644297 115.366102 162.377846 114.013094 158.972375 114.013094 
C 155.566903 114.013094 152.300452 115.366102 149.89242 117.774134 
C 147.484388 120.182166 146.13138 123.448617 146.13138 126.854089 
C 146.13138 130.259561 147.484388 133.526011 149.89242 135.934044 
C 152.300452 138.342076 155.566903 139.695084 158.972375 139.695084 
z
" style="fill:#fec7b8;stroke:#000000;stroke-linejoin:miter;"/>
   </g>
   <g id="patch_27">
    <path d="M 89.607157 109.248499 
C 93.012629 109.248499 96.27908 107.895491 98.687112 105.487458 
C 101.095144 103.079426 102.448152 99.812975 102.448152 96.407504 
C 102.448152 93.002032 101.095144 89.735581 98.687112 87.327549 
C 96.27908 84.919517 93.012629 83.566509 89.607157 83.566509 
C 86.201685 83.566509 82.935234 84.919517 80.527202 87.327549 
C 78.11917 89.735581 76.766162 93.002032 76.766162 96.407504 
C 76.766162 99.812975 78.11917 103.079426 80.527202 105.487458 
C 82.935234 107.895491 86.201685 109.248499 89.607157 109.248499 
z
" style="fill:#fec7b8;stroke:#000000;stroke-linejoin:miter;"/>
   </g>
   <g id="patch_28">
    <path d="M 24.12561 83.409725 
C 27.531082 83.409725 30.797533 82.056716 33.205565 79.648684 
C 35.613597 77.240652 36.966606 73.974201 36.966606 70.56873 
C 36.966606 67.163258 35.613597 63.896807 33.205565 61.488775 
C 30.797533 59.080743 27.531082 57.727734 24.12561 57.727734 
C 20.720139 57.727734 17.453688 59.080743 15.045656 61.488775 
C 12.637624 63.896807 11.284615 67.163258 11.284615 70.56873 
C 11.284615 73.974201 12.637624 77.240652 15.045656 79.648684 
C 17.453688 82.056716 20.720139 83.409725 24.12561 83.409725 
z
" style="fill:#fec7b8;stroke:#000000;stroke-linejoin:miter;"/>
   </g>
   <g id="patch_29">
    <path d="M 436.67439 287.872266 
C 440.079861 287.872266 443.346312 286.519257 445.754344 284.111225 
C 448.162376 281.703193 449.515385 278.436742 449.515385 275.03127 
C 449.515385 271.625799 448.162376 268.359348 445.754344 265.951316 
C 443.346312 263.543284 440.079861 262.190275 436.67439 262.190275 
C 433.268918 262.190275 430.002467 263.543284 427.594435 265.951316 
C 425.186403 268.359348 423.833394 271.625799 423.833394 275.03127 
C 423.833394 278.436742 425.186403 281.703193 427.594435 284.111225 
C 430.002467 286.519257 433.268918 287.872266 436.67439 287.872266 
z
" style="fill:#fec7b8;stroke:#000000;stroke-linejoin:miter;"/>
   </g>
   <g id="text_11">
    <!-- 2 -->
    <defs>
     <path d="M 19.1875 8.296875 
L 53.609375 8.296875 
L 53.609375 0 
L 7.328125 0 
L 7.328125 8.296875 
Q 12.9375 14.109375 22.625 23.890625 
Q 32.328125 33.6875 34.8125 36.53125 
Q 39.546875 41.84375 41.421875 45.53125 
Q 43.3125 49.21875 43.3125 52.78125 
Q 43.3125 58.59375 39.234375 62.25 
Q 35.15625 65.921875 28.609375 65.921875 
Q 23.96875 65.921875 18.8125 64.3125 
Q 13.671875 62.703125 7.8125 59.421875 
L 7.8125 69.390625 
Q 13.765625 71.78125 18.9375 73 
Q 24.125 74.21875 28.421875 74.21875 
Q 39.75 74.21875 46.484375 68.546875 
Q 53.21875 62.890625 53.21875 53.421875 
Q 53.21875 48.921875 51.53125 44.890625 
Q 49.859375 40.875 45.40625 35.40625 
Q 44.1875 33.984375 37.640625 27.21875 
Q 31.109375 20.453125 19.1875 8.296875 
z
" id="DejaVuSans-32"/>
    </defs>
    <g transform="translate(232.241618 164.949868)scale(0.1 -0.1)">
     <use xlink:href="#DejaVuSans-32"/>
    </g>
   </g>
   <g id="text_12">
    <!-- 3 -->
    <defs>
     <path d="M 40.578125 39.3125 
Q 47.65625 37.796875 51.625 33 
Q 55.609375 28.21875 55.609375 21.1875 
Q 55.609375 10.40625 48.1875 4.484375 
Q 40.765625 -1.421875 27.09375 -1.421875 
Q 22.515625 -1.421875 17.65625 -0.515625 
Q 12.796875 0.390625 7.625 2.203125 
L 7.625 11.71875 
Q 11.71875 9.328125 16.59375 8.109375 
Q 21.484375 6.890625 26.8125 6.890625 
Q 36.078125 6.890625 40.9375 10.546875 
Q 45.796875 14.203125 45.796875 21.1875 
Q 45.796875 27.640625 41.28125 31.265625 
Q 36.765625 34.90625 28.71875 34.90625 
L 20.21875 34.90625 
L 20.21875 43.015625 
L 29.109375 43.015625 
Q 36.375 43.015625 40.234375 45.921875 
Q 44.09375 48.828125 44.09375 54.296875 
Q 44.09375 59.90625 40.109375 62.90625 
Q 36.140625 65.921875 28.71875 65.921875 
Q 24.65625 65.921875 20.015625 65.03125 
Q 15.375 64.15625 9.8125 62.3125 
L 9.8125 71.09375 
Q 15.4375 72.65625 20.34375 73.4375 
Q 25.25 74.21875 29.59375 74.21875 
Q 40.828125 74.21875 47.359375 69.109375 
Q 53.90625 64.015625 53.90625 55.328125 
Q 53.90625 49.265625 50.4375 45.09375 
Q 46.96875 40.921875 40.578125 39.3125 
z
" id="DejaVuSans-33"/>
    </defs>
    <g transform="translate(155.791125 129.613464)scale(0.1 -0.1)">
     <use xlink:href="#DejaVuSans-33"/>
    </g>
   </g>
   <g id="text_13">
    <!-- 4 -->
    <defs>
     <path d="M 37.796875 64.3125 
L 12.890625 25.390625 
L 37.796875 25.390625 
z
M 35.203125 72.90625 
L 47.609375 72.90625 
L 47.609375 25.390625 
L 58.015625 25.390625 
L 58.015625 17.1875 
L 47.609375 17.1875 
L 47.609375 0 
L 37.796875 0 
L 37.796875 17.1875 
L 4.890625 17.1875 
L 4.890625 26.703125 
z
" id="DejaVuSans-34"/>
    </defs>
    <g transform="translate(86.425907 99.166879)scale(0.1 -0.1)">
     <use xlink:href="#DejaVuSans-34"/>
    </g>
   </g>
   <g id="text_14">
    <!-- 5 -->
    <defs>
     <path d="M 10.796875 72.90625 
L 49.515625 72.90625 
L 49.515625 64.59375 
L 19.828125 64.59375 
L 19.828125 46.734375 
Q 21.96875 47.46875 24.109375 47.828125 
Q 26.265625 48.1875 28.421875 48.1875 
Q 40.625 48.1875 47.75 41.5 
Q 54.890625 34.8125 54.890625 23.390625 
Q 54.890625 11.625 47.5625 5.09375 
Q 40.234375 -1.421875 26.90625 -1.421875 
Q 22.3125 -1.421875 17.546875 -0.640625 
Q 12.796875 0.140625 7.71875 1.703125 
L 7.71875 11.625 
Q 12.109375 9.234375 16.796875 8.0625 
Q 21.484375 6.890625 26.703125 6.890625 
Q 35.15625 6.890625 40.078125 11.328125 
Q 45.015625 15.765625 45.015625 23.390625 
Q 45.015625 31 40.078125 35.4375 
Q 35.15625 39.890625 26.703125 39.890625 
Q 22.75 39.890625 18.8125 39.015625 
Q 14.890625 38.140625 10.796875 36.28125 
z
" id="DejaVuSans-35"/>
    </defs>
    <g transform="translate(20.94436 73.328105)scale(0.1 -0.1)">
     <use xlink:href="#DejaVuSans-35"/>
    </g>
   </g>
   <g id="text_15">
    <!-- -1 -->
    <defs>
     <path d="M 4.890625 31.390625 
L 31.203125 31.390625 
L 31.203125 23.390625 
L 4.890625 23.390625 
z
" id="DejaVuSans-2d"/>
     <path d="M 12.40625 8.296875 
L 28.515625 8.296875 
L 28.515625 63.921875 
L 10.984375 60.40625 
L 10.984375 69.390625 
L 28.421875 72.90625 
L 38.28125 72.90625 
L 38.28125 8.296875 
L 54.390625 8.296875 
L 54.390625 0 
L 12.40625 0 
z
" id="DejaVuSans-31"/>
    </defs>
    <g transform="translate(431.689233 277.790645)scale(0.1 -0.1)">
     <use xlink:href="#DejaVuSans-2d"/>
     <use x="36.083984" xlink:href="#DejaVuSans-31"/>
    </g>
   </g>
   <g id="text_16">
    <!-- 0 -->
    <defs>
     <path d="M 31.78125 66.40625 
Q 24.171875 66.40625 20.328125 58.90625 
Q 16.5 51.421875 16.5 36.375 
Q 16.5 21.390625 20.328125 13.890625 
Q 24.171875 6.390625 31.78125 6.390625 
Q 39.453125 6.390625 43.28125 13.890625 
Q 47.125 21.390625 47.125 36.375 
Q 47.125 51.421875 43.28125 58.90625 
Q 39.453125 66.40625 31.78125 66.40625 
z
M 31.78125 74.21875 
Q 44.046875 74.21875 50.515625 64.515625 
Q 56.984375 54.828125 56.984375 36.375 
Q 56.984375 17.96875 50.515625 8.265625 
Q 44.046875 -1.421875 31.78125 -1.421875 
Q 19.53125 -1.421875 13.0625 8.265625 
Q 6.59375 17.96875 6.59375 36.375 
Q 6.59375 54.828125 13.0625 64.515625 
Q 19.53125 74.21875 31.78125 74.21875 
z
" id="DejaVuSans-30"/>
    </defs>
    <g transform="translate(375.175893 244.36784)scale(0.1 -0.1)">
     <use xlink:href="#DejaVuSans-30"/>
    </g>
   </g>
   <g id="text_17">
    <!-- 1 -->
    <g transform="translate(303.185583 203.73541)scale(0.1 -0.1)">
     <use xlink:href="#DejaVuSans-31"/>
    </g>
   </g>
  </g>
 </g>
 <defs>
  <clipPath id="p64f4c3edc3">
   <rect height="239.350312" width="455.76" x="2.52" y="53.124844"/>
  </clipPath>
 </defs>
</svg>
