<?xml version="1.0" encoding="utf-8" standalone="no"?>
<!DOCTYPE svg PUBLIC "-//W3C//DTD SVG 1.1//EN"
  "http://www.w3.org/Graphics/SVG/1.1/DTD/svg11.dtd">
<!-- Created with matplotlib (https://matplotlib.org/) -->
<svg height="345.6pt" version="1.1" viewBox="0 0 460.8 345.6" width="460.8pt" xmlns="http://www.w3.org/2000/svg" xmlns:xlink="http://www.w3.org/1999/xlink">
 <metadata>
  <rdf:RDF xmlns:cc="http://creativecommons.org/ns#" xmlns:dc="http://purl.org/dc/elements/1.1/" xmlns:rdf="http://www.w3.org/1999/02/22-rdf-syntax-ns#">
   <cc:Work>
    <dc:type rdf:resource="http://purl.org/dc/dcmitype/StillImage"/>
    <dc:date>2020-10-25T12:16:13.541460</dc:date>
    <dc:format>image/svg+xml</dc:format>
    <dc:creator>
     <cc:Agent>
      <dc:title>Matplotlib v3.3.1, https://matplotlib.org/</dc:title>
     </cc:Agent>
    </dc:creator>
   </cc:Work>
  </rdf:RDF>
 </metadata>
 <defs>
  <style type="text/css">*{stroke-linecap:butt;stroke-linejoin:round;}</style>
 </defs>
 <g id="figure_1">
  <g id="patch_1">
   <path d="M 0 345.6 
L 460.8 345.6 
L 460.8 0 
L 0 0 
z
" style="fill:#ffffff;"/>
  </g>
  <g id="axes_1">
   <g id="patch_2">
    <path d="M 138.209303 345.6 
L 322.590697 345.6 
L 322.590697 0 
L 138.209303 0 
z
" style="fill:#ffffff;"/>
   </g>
   <g id="patch_3">
    <path clip-path="url(#pb31d37ad0d)" d="M 269.058515 225.166597 
Q 296.404177 270.107896 280.973883 318.057303 
" style="fill:none;stroke:#000000;stroke-linecap:round;stroke-width:2;"/>
    <path clip-path="url(#pb31d37ad0d)" d="M 288.796833 310.069722 
L 280.973883 318.057303 
L 279.277588 307.006394 
L 288.796833 310.069722 
z
" style="stroke:#000000;stroke-linecap:round;stroke-width:2;"/>
   </g>
   <g id="patch_4">
    <path clip-path="url(#pb31d37ad0d)" d="M 260.430083 228.234006 
Q 244.999789 276.183413 272.345451 321.124712 
" style="fill:none;stroke:#000000;stroke-linecap:round;stroke-width:2;"/>
    <path clip-path="url(#pb31d37ad0d)" d="M 252.607132 236.221587 
L 260.430083 228.234006 
L 262.126377 239.284915 
L 252.607132 236.221587 
z
" style="stroke:#000000;stroke-linecap:round;stroke-width:2;"/>
   </g>
   <g id="matplotlib.axis_1"/>
   <g id="matplotlib.axis_2"/>
   <g id="patch_5">
    <path clip-path="url(#pb31d37ad0d)" d="M 268.548474 208.449142 
Q 286.745138 173.971735 303.898086 141.471866 
" style="fill:none;stroke:#000000;stroke-linecap:round;stroke-width:2;"/>
    <path clip-path="url(#pb31d37ad0d)" d="M 294.808539 147.981868 
L 303.898086 141.471866 
L 303.652359 152.649505 
L 294.808539 147.981868 
z
" style="stroke:#000000;stroke-linecap:round;stroke-width:2;"/>
   </g>
   <g id="patch_6">
    <path clip-path="url(#pb31d37ad0d)" d="M 260.774678 207.916324 
Q 243.813958 161.272915 227.617378 116.730956 
" style="fill:none;stroke:#000000;stroke-linecap:round;stroke-width:2;"/>
    <path clip-path="url(#pb31d37ad0d)" d="M 226.335732 127.837593 
L 227.617378 116.730956 
L 235.7337 124.420255 
L 226.335732 127.837593 
z
" style="stroke:#000000;stroke-linecap:round;stroke-width:2;"/>
   </g>
   <g id="patch_7">
    <path clip-path="url(#pb31d37ad0d)" d="M 298.065346 127.629351 
Q 266.498608 118.292074 232.78764 108.320545 
" style="fill:none;stroke:#000000;stroke-linecap:round;stroke-width:2;"/>
    <path clip-path="url(#pb31d37ad0d)" d="M 289.894287 119.998244 
L 298.065346 127.629351 
L 287.057825 129.587534 
L 289.894287 119.998244 
z
" style="stroke:#000000;stroke-linecap:round;stroke-width:2;"/>
   </g>
   <g id="patch_8">
    <path clip-path="url(#pb31d37ad0d)" d="M 217.523644 98.115081 
Q 187.46882 60.927261 158.819525 25.478547 
" style="fill:none;stroke:#000000;stroke-linecap:round;stroke-width:2;"/>
    <path clip-path="url(#pb31d37ad0d)" d="M 161.216478 36.398923 
L 158.819525 25.478547 
L 168.993998 30.113209 
L 161.216478 36.398923 
z
" style="stroke:#000000;stroke-linecap:round;stroke-width:2;"/>
   </g>
   <g id="patch_9">
    <path d="M 264.060488 226.56769 
C 266.610446 226.56769 269.056307 225.554581 270.8594 223.751488 
C 272.662492 221.948396 273.675601 219.502534 273.675601 216.952576 
C 273.675601 214.402618 272.662492 211.956757 270.8594 210.153664 
C 269.056307 208.350572 266.610446 207.337463 264.060488 207.337463 
C 261.51053 207.337463 259.064668 208.350572 257.261576 210.153664 
C 255.458483 211.956757 254.445374 214.402618 254.445374 216.952576 
C 254.445374 219.502534 255.458483 221.948396 257.261576 223.751488 
C 259.064668 225.554581 261.51053 226.56769 264.060488 226.56769 
z
" style="fill:#fec7b8;stroke:#000000;stroke-linejoin:miter;"/>
   </g>
   <g id="patch_10">
    <path d="M 309.429788 140.606007 
C 311.979746 140.606007 314.425607 139.592898 316.2287 137.789805 
C 318.031792 135.986713 319.044901 133.540851 319.044901 130.990894 
C 319.044901 128.440936 318.031792 125.995074 316.2287 124.191982 
C 314.425607 122.388889 311.979746 121.37578 309.429788 121.37578 
C 306.87983 121.37578 304.433968 122.388889 302.630876 124.191982 
C 300.827783 125.995074 299.814674 128.440936 299.814674 130.990894 
C 299.814674 133.540851 300.827783 135.986713 302.630876 137.789805 
C 304.433968 139.592898 306.87983 140.606007 309.429788 140.606007 
z
" style="fill:#fec7b8;stroke:#000000;stroke-linejoin:miter;"/>
   </g>
   <g id="patch_11">
    <path d="M 223.567429 115.208368 
C 226.117386 115.208368 228.563248 114.195259 230.36634 112.392166 
C 232.169433 110.589074 233.182542 108.143212 233.182542 105.593254 
C 233.182542 103.043296 232.169433 100.597435 230.36634 98.794342 
C 228.563248 96.99125 226.117386 95.978141 223.567429 95.978141 
C 221.017471 95.978141 218.571609 96.99125 216.768517 98.794342 
C 214.965424 100.597435 213.952315 103.043296 213.952315 105.593254 
C 213.952315 108.143212 214.965424 110.589074 216.768517 112.392166 
C 218.571609 114.195259 221.017471 115.208368 223.567429 115.208368 
z
" style="fill:#fec7b8;stroke:#000000;stroke-linejoin:miter;"/>
   </g>
   <g id="patch_12">
    <path d="M 277.343478 338.953846 
C 279.893436 338.953846 282.339297 337.940737 284.14239 336.137645 
C 285.945482 334.334552 286.958591 331.888691 286.958591 329.338733 
C 286.958591 326.788775 285.945482 324.342913 284.14239 322.539821 
C 282.339297 320.736728 279.893436 319.723619 277.343478 319.723619 
C 274.79352 319.723619 272.347658 320.736728 270.544566 322.539821 
C 268.741473 324.342913 267.728364 326.788775 267.728364 329.338733 
C 267.728364 331.888691 268.741473 334.334552 270.544566 336.137645 
C 272.347658 337.940737 274.79352 338.953846 277.343478 338.953846 
z
" style="fill:#fec7b8;stroke:#000000;stroke-linejoin:miter;"/>
   </g>
   <g id="patch_13">
    <path d="M 151.370212 25.876381 
C 153.92017 25.876381 156.366032 24.863272 158.169124 23.060179 
C 159.972217 21.257087 160.985326 18.811225 160.985326 16.261267 
C 160.985326 13.711309 159.972217 11.265448 158.169124 9.462355 
C 156.366032 7.659263 153.92017 6.646154 151.370212 6.646154 
C 148.820254 6.646154 146.374393 7.659263 144.5713 9.462355 
C 142.768208 11.265448 141.755099 13.711309 141.755099 16.261267 
C 141.755099 18.811225 142.768208 21.257087 144.5713 23.060179 
C 146.374393 24.863272 148.820254 25.876381 151.370212 25.876381 
z
" style="fill:#fec7b8;stroke:#000000;stroke-linejoin:miter;"/>
   </g>
   <g id="text_1">
    <!-- 0 -->
    <g transform="translate(260.879238 219.711951)scale(0.1 -0.1)">
     <defs>
      <path d="M 31.78125 66.40625 
Q 24.171875 66.40625 20.328125 58.90625 
Q 16.5 51.421875 16.5 36.375 
Q 16.5 21.390625 20.328125 13.890625 
Q 24.171875 6.390625 31.78125 6.390625 
Q 39.453125 6.390625 43.28125 13.890625 
Q 47.125 21.390625 47.125 36.375 
Q 47.125 51.421875 43.28125 58.90625 
Q 39.453125 66.40625 31.78125 66.40625 
z
M 31.78125 74.21875 
Q 44.046875 74.21875 50.515625 64.515625 
Q 56.984375 54.828125 56.984375 36.375 
Q 56.984375 17.96875 50.515625 8.265625 
Q 44.046875 -1.421875 31.78125 -1.421875 
Q 19.53125 -1.421875 13.0625 8.265625 
Q 6.59375 17.96875 6.59375 36.375 
Q 6.59375 54.828125 13.0625 64.515625 
Q 19.53125 74.21875 31.78125 74.21875 
z
" id="DejaVuSans-48"/>
     </defs>
     <use xlink:href="#DejaVuSans-48"/>
    </g>
   </g>
   <g id="text_2">
    <!-- 1 -->
    <g transform="translate(306.248538 133.750269)scale(0.1 -0.1)">
     <defs>
      <path d="M 12.40625 8.296875 
L 28.515625 8.296875 
L 28.515625 63.921875 
L 10.984375 60.40625 
L 10.984375 69.390625 
L 28.421875 72.90625 
L 38.28125 72.90625 
L 38.28125 8.296875 
L 54.390625 8.296875 
L 54.390625 0 
L 12.40625 0 
z
" id="DejaVuSans-49"/>
     </defs>
     <use xlink:href="#DejaVuSans-49"/>
    </g>
   </g>
   <g id="text_3">
    <!-- 2 -->
    <g transform="translate(220.386179 108.352629)scale(0.1 -0.1)">
     <defs>
      <path d="M 19.1875 8.296875 
L 53.609375 8.296875 
L 53.609375 0 
L 7.328125 0 
L 7.328125 8.296875 
Q 12.9375 14.109375 22.625 23.890625 
Q 32.328125 33.6875 34.8125 36.53125 
Q 39.546875 41.84375 41.421875 45.53125 
Q 43.3125 49.21875 43.3125 52.78125 
Q 43.3125 58.59375 39.234375 62.25 
Q 35.15625 65.921875 28.609375 65.921875 
Q 23.96875 65.921875 18.8125 64.3125 
Q 13.671875 62.703125 7.8125 59.421875 
L 7.8125 69.390625 
Q 13.765625 71.78125 18.9375 73 
Q 24.125 74.21875 28.421875 74.21875 
Q 39.75 74.21875 46.484375 68.546875 
Q 53.21875 62.890625 53.21875 53.421875 
Q 53.21875 48.921875 51.53125 44.890625 
Q 49.859375 40.875 45.40625 35.40625 
Q 44.1875 33.984375 37.640625 27.21875 
Q 31.109375 20.453125 19.1875 8.296875 
z
" id="DejaVuSans-50"/>
     </defs>
     <use xlink:href="#DejaVuSans-50"/>
    </g>
   </g>
   <g id="text_4">
    <!-- 3 -->
    <g transform="translate(274.162228 332.098108)scale(0.1 -0.1)">
     <defs>
      <path d="M 40.578125 39.3125 
Q 47.65625 37.796875 51.625 33 
Q 55.609375 28.21875 55.609375 21.1875 
Q 55.609375 10.40625 48.1875 4.484375 
Q 40.765625 -1.421875 27.09375 -1.421875 
Q 22.515625 -1.421875 17.65625 -0.515625 
Q 12.796875 0.390625 7.625 2.203125 
L 7.625 11.71875 
Q 11.71875 9.328125 16.59375 8.109375 
Q 21.484375 6.890625 26.8125 6.890625 
Q 36.078125 6.890625 40.9375 10.546875 
Q 45.796875 14.203125 45.796875 21.1875 
Q 45.796875 27.640625 41.28125 31.265625 
Q 36.765625 34.90625 28.71875 34.90625 
L 20.21875 34.90625 
L 20.21875 43.015625 
L 29.109375 43.015625 
Q 36.375 43.015625 40.234375 45.921875 
Q 44.09375 48.828125 44.09375 54.296875 
Q 44.09375 59.90625 40.109375 62.90625 
Q 36.140625 65.921875 28.71875 65.921875 
Q 24.65625 65.921875 20.015625 65.03125 
Q 15.375 64.15625 9.8125 62.3125 
L 9.8125 71.09375 
Q 15.4375 72.65625 20.34375 73.4375 
Q 25.25 74.21875 29.59375 74.21875 
Q 40.828125 74.21875 47.359375 69.109375 
Q 53.90625 64.015625 53.90625 55.328125 
Q 53.90625 49.265625 50.4375 45.09375 
Q 46.96875 40.921875 40.578125 39.3125 
z
" id="DejaVuSans-51"/>
     </defs>
     <use xlink:href="#DejaVuSans-51"/>
    </g>
   </g>
   <g id="text_5">
    <!-- 4 -->
    <g transform="translate(148.188962 19.020642)scale(0.1 -0.1)">
     <defs>
      <path d="M 37.796875 64.3125 
L 12.890625 25.390625 
L 37.796875 25.390625 
z
M 35.203125 72.90625 
L 47.609375 72.90625 
L 47.609375 25.390625 
L 58.015625 25.390625 
L 58.015625 17.1875 
L 47.609375 17.1875 
L 47.609375 0 
L 37.796875 0 
L 37.796875 17.1875 
L 4.890625 17.1875 
L 4.890625 26.703125 
z
" id="DejaVuSans-52"/>
     </defs>
     <use xlink:href="#DejaVuSans-52"/>
    </g>
   </g>
  </g>
 </g>
 <defs>
  <clipPath id="pb31d37ad0d">
   <rect height="345.6" width="184.381394" x="138.209303" y="0"/>
  </clipPath>
 </defs>
</svg>
