<?xml version="1.0" encoding="utf-8" standalone="no"?>
<!DOCTYPE svg PUBLIC "-//W3C//DTD SVG 1.1//EN"
  "http://www.w3.org/Graphics/SVG/1.1/DTD/svg11.dtd">
<!-- Created with matplotlib (http://matplotlib.org/) -->
<svg height="345.6pt" version="1.1" viewBox="0 0 460.8 345.6" width="460.8pt" xmlns="http://www.w3.org/2000/svg" xmlns:xlink="http://www.w3.org/1999/xlink">
 <defs>
  <style type="text/css">
*{stroke-linecap:butt;stroke-linejoin:round;}
  </style>
 </defs>
 <g id="figure_1">
  <g id="patch_1">
   <path d="M 0 345.6 
L 460.8 345.6 
L 460.8 0 
L 0 0 
z
" style="fill:#ffffff;"/>
  </g>
  <g id="axes_1">
   <g id="patch_2">
    <path d="M 128.465207 343.08 
L 332.334793 343.08 
L 332.334793 2.52 
L 128.465207 2.52 
z
" style="fill:#ffffff;"/>
   </g>
   <g id="patch_3">
    <path clip-path="url(#p41c0406d18)" d="M 183.867281 131.20573 
Q 200.548951 76.799568 173.004192 29.575604 
" style="fill:none;stroke:#000000;stroke-linecap:round;stroke-width:2;"/>
    <path clip-path="url(#p41c0406d18)" d="M 173.723557 40.732777 
L 173.004192 29.575604 
L 182.36155 35.694415 
L 173.723557 40.732777 
z
" style="stroke:#000000;stroke-linecap:round;stroke-width:2;"/>
   </g>
   <g id="patch_4">
    <path clip-path="url(#p41c0406d18)" d="M 174.797868 130.193782 
Q 147.253109 82.969818 163.934779 28.563657 
" style="fill:none;stroke:#000000;stroke-linecap:round;stroke-width:2;"/>
    <path clip-path="url(#p41c0406d18)" d="M 174.078502 119.036609 
L 174.797868 130.193782 
L 165.44051 124.074971 
L 174.078502 119.036609 
z
" style="stroke:#000000;stroke-linecap:round;stroke-width:2;"/>
   </g>
   <g id="matplotlib.axis_1"/>
   <g id="matplotlib.axis_2"/>
   <g id="patch_5">
    <path clip-path="url(#p41c0406d18)" d="M 176.895185 149.839873 
Q 161.648839 184.114103 147.311311 216.345283 
" style="fill:none;stroke:#000000;stroke-linecap:round;stroke-width:2;"/>
    <path clip-path="url(#p41c0406d18)" d="M 155.944065 209.240668 
L 147.311311 216.345283 
L 146.807271 205.176311 
L 155.944065 209.240668 
z
" style="stroke:#000000;stroke-linecap:round;stroke-width:2;"/>
   </g>
   <g id="patch_6">
    <path clip-path="url(#p41c0406d18)" d="M 154.183995 230.47665 
Q 188.526987 239.133366 225.038226 248.336624 
" style="fill:none;stroke:#000000;stroke-linecap:round;stroke-width:2;"/>
    <path clip-path="url(#p41c0406d18)" d="M 162.658582 237.769207 
L 154.183995 230.47665 
L 165.102792 228.072515 
L 162.658582 237.769207 
z
" style="stroke:#000000;stroke-linecap:round;stroke-width:2;"/>
   </g>
   <g id="patch_7">
    <path clip-path="url(#p41c0406d18)" d="M 185.320351 149.688735 
Q 207.823924 195.753292 229.345987 239.80871 
" style="fill:none;stroke:#000000;stroke-linecap:round;stroke-width:2;"/>
    <path clip-path="url(#p41c0406d18)" d="M 229.449114 228.628846 
L 229.345987 239.80871 
L 220.463972 233.01829 
L 229.449114 228.628846 
z
" style="stroke:#000000;stroke-linecap:round;stroke-width:2;"/>
   </g>
   <g id="patch_8">
    <path clip-path="url(#p41c0406d18)" d="M 242.091352 257.460024 
Q 276.575085 288.668599 309.400909 318.376728 
" style="fill:none;stroke:#000000;stroke-linecap:round;stroke-width:2;"/>
    <path clip-path="url(#p41c0406d18)" d="M 305.341614 307.959333 
L 309.400909 318.376728 
L 298.631416 315.373727 
L 305.341614 307.959333 
z
" style="stroke:#000000;stroke-linecap:round;stroke-width:2;"/>
   </g>
   <g id="patch_9">
    <path d="M 180.945775 150.700156 
C 183.588823 150.700156 186.123974 149.650062 187.992891 147.781145 
C 189.861808 145.912228 190.911902 143.377076 190.911902 140.734029 
C 190.911902 138.090981 189.861808 135.55583 187.992891 133.686913 
C 186.123974 131.817996 183.588823 130.767902 180.945775 130.767902 
C 178.302727 130.767902 175.767576 131.817996 173.898659 133.686913 
C 172.029742 135.55583 170.979648 138.090981 170.979648 140.734029 
C 170.979648 143.377076 172.029742 145.912228 173.898659 147.781145 
C 175.767576 149.650062 178.302727 150.700156 180.945775 150.700156 
z
" style="fill:#fec7b8;stroke:#000000;stroke-linejoin:miter;"/>
   </g>
   <g id="patch_10">
    <path d="M 142.351903 237.460303 
C 144.99495 237.460303 147.530102 236.410209 149.399019 234.541292 
C 151.267935 232.672376 152.318029 230.137224 152.318029 227.494177 
C 152.318029 224.851129 151.267935 222.315978 149.399019 220.447061 
C 147.530102 218.578144 144.99495 217.52805 142.351903 217.52805 
C 139.708855 217.52805 137.173704 218.578144 135.304787 220.447061 
C 133.43587 222.315978 132.385776 224.851129 132.385776 227.494177 
C 132.385776 230.137224 133.43587 232.672376 135.304787 234.541292 
C 137.173704 236.410209 139.708855 237.460303 142.351903 237.460303 
z
" style="fill:#fec7b8;stroke:#000000;stroke-linejoin:miter;"/>
   </g>
   <g id="patch_11">
    <path d="M 234.702072 260.738682 
C 237.34512 260.738682 239.880271 259.688588 241.749188 257.819671 
C 243.618105 255.950754 244.668199 253.415603 244.668199 250.772555 
C 244.668199 248.129508 243.618105 245.594356 241.749188 243.725439 
C 239.880271 241.856522 237.34512 240.806428 234.702072 240.806428 
C 232.059025 240.806428 229.523873 241.856522 227.654956 243.725439 
C 225.786039 245.594356 224.735945 248.129508 224.735945 250.772555 
C 224.735945 253.415603 225.786039 255.950754 227.654956 257.819671 
C 229.523873 259.688588 232.059025 260.738682 234.702072 260.738682 
z
" style="fill:#fec7b8;stroke:#000000;stroke-linejoin:miter;"/>
   </g>
   <g id="patch_12">
    <path d="M 166.856285 29.001484 
C 169.499332 29.001484 172.034484 27.95139 173.9034 26.082473 
C 175.772317 24.213556 176.822411 21.678405 176.822411 19.035358 
C 176.822411 16.39231 175.772317 13.857159 173.9034 11.988242 
C 172.034484 10.119325 169.499332 9.069231 166.856285 9.069231 
C 164.213237 9.069231 161.678086 10.119325 159.809169 11.988242 
C 157.940252 13.857159 156.890158 16.39231 156.890158 19.035358 
C 156.890158 21.678405 157.940252 24.213556 159.809169 26.082473 
C 161.678086 27.95139 164.213237 29.001484 166.856285 29.001484 
z
" style="fill:#fec7b8;stroke:#000000;stroke-linejoin:miter;"/>
   </g>
   <g id="patch_13">
    <path d="M 318.448097 336.530769 
C 321.091145 336.530769 323.626296 335.480675 325.495213 333.611758 
C 327.36413 331.742841 328.414224 329.20769 328.414224 326.564642 
C 328.414224 323.921595 327.36413 321.386444 325.495213 319.517527 
C 323.626296 317.64861 321.091145 316.598516 318.448097 316.598516 
C 315.80505 316.598516 313.269898 317.64861 311.400981 319.517527 
C 309.532065 321.386444 308.481971 323.921595 308.481971 326.564642 
C 308.481971 329.20769 309.532065 331.742841 311.400981 333.611758 
C 313.269898 335.480675 315.80505 336.530769 318.448097 336.530769 
z
" style="fill:#fec7b8;stroke:#000000;stroke-linejoin:miter;"/>
   </g>
   <g id="text_1">
    <!-- 0 -->
    <defs>
     <path d="M 31.78125 66.40625 
Q 24.171875 66.40625 20.328125 58.90625 
Q 16.5 51.421875 16.5 36.375 
Q 16.5 21.390625 20.328125 13.890625 
Q 24.171875 6.390625 31.78125 6.390625 
Q 39.453125 6.390625 43.28125 13.890625 
Q 47.125 21.390625 47.125 36.375 
Q 47.125 51.421875 43.28125 58.90625 
Q 39.453125 66.40625 31.78125 66.40625 
z
M 31.78125 74.21875 
Q 44.046875 74.21875 50.515625 64.515625 
Q 56.984375 54.828125 56.984375 36.375 
Q 56.984375 17.96875 50.515625 8.265625 
Q 44.046875 -1.421875 31.78125 -1.421875 
Q 19.53125 -1.421875 13.0625 8.265625 
Q 6.59375 17.96875 6.59375 36.375 
Q 6.59375 54.828125 13.0625 64.515625 
Q 19.53125 74.21875 31.78125 74.21875 
z
" id="DejaVuSans-30"/>
    </defs>
    <g transform="translate(177.764525 143.493404)scale(0.1 -0.1)">
     <use xlink:href="#DejaVuSans-30"/>
    </g>
   </g>
   <g id="text_2">
    <!-- 1 -->
    <defs>
     <path d="M 12.40625 8.296875 
L 28.515625 8.296875 
L 28.515625 63.921875 
L 10.984375 60.40625 
L 10.984375 69.390625 
L 28.421875 72.90625 
L 38.28125 72.90625 
L 38.28125 8.296875 
L 54.390625 8.296875 
L 54.390625 0 
L 12.40625 0 
z
" id="DejaVuSans-31"/>
    </defs>
    <g transform="translate(139.170653 230.253552)scale(0.1 -0.1)">
     <use xlink:href="#DejaVuSans-31"/>
    </g>
   </g>
   <g id="text_3">
    <!-- 2 -->
    <defs>
     <path d="M 19.1875 8.296875 
L 53.609375 8.296875 
L 53.609375 0 
L 7.328125 0 
L 7.328125 8.296875 
Q 12.9375 14.109375 22.625 23.890625 
Q 32.328125 33.6875 34.8125 36.53125 
Q 39.546875 41.84375 41.421875 45.53125 
Q 43.3125 49.21875 43.3125 52.78125 
Q 43.3125 58.59375 39.234375 62.25 
Q 35.15625 65.921875 28.609375 65.921875 
Q 23.96875 65.921875 18.8125 64.3125 
Q 13.671875 62.703125 7.8125 59.421875 
L 7.8125 69.390625 
Q 13.765625 71.78125 18.9375 73 
Q 24.125 74.21875 28.421875 74.21875 
Q 39.75 74.21875 46.484375 68.546875 
Q 53.21875 62.890625 53.21875 53.421875 
Q 53.21875 48.921875 51.53125 44.890625 
Q 49.859375 40.875 45.40625 35.40625 
Q 44.1875 33.984375 37.640625 27.21875 
Q 31.109375 20.453125 19.1875 8.296875 
z
" id="DejaVuSans-32"/>
    </defs>
    <g transform="translate(231.520822 253.53193)scale(0.1 -0.1)">
     <use xlink:href="#DejaVuSans-32"/>
    </g>
   </g>
   <g id="text_4">
    <!-- 3 -->
    <defs>
     <path d="M 40.578125 39.3125 
Q 47.65625 37.796875 51.625 33 
Q 55.609375 28.21875 55.609375 21.1875 
Q 55.609375 10.40625 48.1875 4.484375 
Q 40.765625 -1.421875 27.09375 -1.421875 
Q 22.515625 -1.421875 17.65625 -0.515625 
Q 12.796875 0.390625 7.625 2.203125 
L 7.625 11.71875 
Q 11.71875 9.328125 16.59375 8.109375 
Q 21.484375 6.890625 26.8125 6.890625 
Q 36.078125 6.890625 40.9375 10.546875 
Q 45.796875 14.203125 45.796875 21.1875 
Q 45.796875 27.640625 41.28125 31.265625 
Q 36.765625 34.90625 28.71875 34.90625 
L 20.21875 34.90625 
L 20.21875 43.015625 
L 29.109375 43.015625 
Q 36.375 43.015625 40.234375 45.921875 
Q 44.09375 48.828125 44.09375 54.296875 
Q 44.09375 59.90625 40.109375 62.90625 
Q 36.140625 65.921875 28.71875 65.921875 
Q 24.65625 65.921875 20.015625 65.03125 
Q 15.375 64.15625 9.8125 62.3125 
L 9.8125 71.09375 
Q 15.4375 72.65625 20.34375 73.4375 
Q 25.25 74.21875 29.59375 74.21875 
Q 40.828125 74.21875 47.359375 69.109375 
Q 53.90625 64.015625 53.90625 55.328125 
Q 53.90625 49.265625 50.4375 45.09375 
Q 46.96875 40.921875 40.578125 39.3125 
z
" id="DejaVuSans-33"/>
    </defs>
    <g transform="translate(163.675035 21.794733)scale(0.1 -0.1)">
     <use xlink:href="#DejaVuSans-33"/>
    </g>
   </g>
   <g id="text_5">
    <!-- 4 -->
    <defs>
     <path d="M 37.796875 64.3125 
L 12.890625 25.390625 
L 37.796875 25.390625 
z
M 35.203125 72.90625 
L 47.609375 72.90625 
L 47.609375 25.390625 
L 58.015625 25.390625 
L 58.015625 17.1875 
L 47.609375 17.1875 
L 47.609375 0 
L 37.796875 0 
L 37.796875 17.1875 
L 4.890625 17.1875 
L 4.890625 26.703125 
z
" id="DejaVuSans-34"/>
    </defs>
    <g transform="translate(315.266847 329.324017)scale(0.1 -0.1)">
     <use xlink:href="#DejaVuSans-34"/>
    </g>
   </g>
  </g>
 </g>
 <defs>
  <clipPath id="p41c0406d18">
   <rect height="340.56" width="203.869586" x="128.465207" y="2.52"/>
  </clipPath>
 </defs>
</svg>
