<?xml version="1.0" encoding="utf-8" standalone="no"?>
<!DOCTYPE svg PUBLIC "-//W3C//DTD SVG 1.1//EN"
  "http://www.w3.org/Graphics/SVG/1.1/DTD/svg11.dtd">
<!-- Created with matplotlib (http://matplotlib.org/) -->
<svg height="345.6pt" version="1.1" viewBox="0 0 460.8 345.6" width="460.8pt" xmlns="http://www.w3.org/2000/svg" xmlns:xlink="http://www.w3.org/1999/xlink">
 <defs>
  <style type="text/css">
*{stroke-linecap:butt;stroke-linejoin:round;}
  </style>
 </defs>
 <g id="figure_1">
  <g id="patch_1">
   <path d="M 0 345.6 
L 460.8 345.6 
L 460.8 0 
L 0 0 
z
" style="fill:#ffffff;"/>
  </g>
  <g id="axes_1">
   <g id="patch_2">
    <path d="M 150.76997 343.08 
L 310.03003 343.08 
L 310.03003 24.56 
L 150.76997 24.56 
z
" style="fill:#ffffff;"/>
   </g>
   <g id="matplotlib.axis_1">
    <g id="xtick_1">
     <g id="line2d_1">
      <defs>
       <path d="M 0 0 
L 0 3.5 
" id="m8af9886962" style="stroke:#000000;stroke-width:0.8;"/>
      </defs>
      <g>
       <use style="stroke:#000000;stroke-width:0.8;" x="153.832644" xlink:href="#m8af9886962" y="183.82"/>
      </g>
     </g>
    </g>
    <g id="xtick_2">
     <g id="line2d_2">
      <g>
       <use style="stroke:#000000;stroke-width:0.8;" x="172.974481" xlink:href="#m8af9886962" y="183.82"/>
      </g>
     </g>
     <g id="text_1">
      <!-- 1 -->
      <defs>
       <path d="M 12.40625 8.296875 
L 28.515625 8.296875 
L 28.515625 63.921875 
L 10.984375 60.40625 
L 10.984375 69.390625 
L 28.421875 72.90625 
L 38.28125 72.90625 
L 38.28125 8.296875 
L 54.390625 8.296875 
L 54.390625 0 
L 12.40625 0 
z
" id="DejaVuSans-31"/>
      </defs>
      <g transform="translate(169.793231 198.418437)scale(0.1 -0.1)">
       <use xlink:href="#DejaVuSans-31"/>
      </g>
     </g>
    </g>
    <g id="xtick_3">
     <g id="line2d_3">
      <g>
       <use style="stroke:#000000;stroke-width:0.8;" x="192.116317" xlink:href="#m8af9886962" y="183.82"/>
      </g>
     </g>
     <g id="text_2">
      <!-- 2 -->
      <defs>
       <path d="M 19.1875 8.296875 
L 53.609375 8.296875 
L 53.609375 0 
L 7.328125 0 
L 7.328125 8.296875 
Q 12.9375 14.109375 22.625 23.890625 
Q 32.328125 33.6875 34.8125 36.53125 
Q 39.546875 41.84375 41.421875 45.53125 
Q 43.3125 49.21875 43.3125 52.78125 
Q 43.3125 58.59375 39.234375 62.25 
Q 35.15625 65.921875 28.609375 65.921875 
Q 23.96875 65.921875 18.8125 64.3125 
Q 13.671875 62.703125 7.8125 59.421875 
L 7.8125 69.390625 
Q 13.765625 71.78125 18.9375 73 
Q 24.125 74.21875 28.421875 74.21875 
Q 39.75 74.21875 46.484375 68.546875 
Q 53.21875 62.890625 53.21875 53.421875 
Q 53.21875 48.921875 51.53125 44.890625 
Q 49.859375 40.875 45.40625 35.40625 
Q 44.1875 33.984375 37.640625 27.21875 
Q 31.109375 20.453125 19.1875 8.296875 
z
" id="DejaVuSans-32"/>
      </defs>
      <g transform="translate(188.935067 198.418437)scale(0.1 -0.1)">
       <use xlink:href="#DejaVuSans-32"/>
      </g>
     </g>
    </g>
    <g id="xtick_4">
     <g id="line2d_4">
      <g>
       <use style="stroke:#000000;stroke-width:0.8;" x="211.258154" xlink:href="#m8af9886962" y="183.82"/>
      </g>
     </g>
     <g id="text_3">
      <!-- 3 -->
      <defs>
       <path d="M 40.578125 39.3125 
Q 47.65625 37.796875 51.625 33 
Q 55.609375 28.21875 55.609375 21.1875 
Q 55.609375 10.40625 48.1875 4.484375 
Q 40.765625 -1.421875 27.09375 -1.421875 
Q 22.515625 -1.421875 17.65625 -0.515625 
Q 12.796875 0.390625 7.625 2.203125 
L 7.625 11.71875 
Q 11.71875 9.328125 16.59375 8.109375 
Q 21.484375 6.890625 26.8125 6.890625 
Q 36.078125 6.890625 40.9375 10.546875 
Q 45.796875 14.203125 45.796875 21.1875 
Q 45.796875 27.640625 41.28125 31.265625 
Q 36.765625 34.90625 28.71875 34.90625 
L 20.21875 34.90625 
L 20.21875 43.015625 
L 29.109375 43.015625 
Q 36.375 43.015625 40.234375 45.921875 
Q 44.09375 48.828125 44.09375 54.296875 
Q 44.09375 59.90625 40.109375 62.90625 
Q 36.140625 65.921875 28.71875 65.921875 
Q 24.65625 65.921875 20.015625 65.03125 
Q 15.375 64.15625 9.8125 62.3125 
L 9.8125 71.09375 
Q 15.4375 72.65625 20.34375 73.4375 
Q 25.25 74.21875 29.59375 74.21875 
Q 40.828125 74.21875 47.359375 69.109375 
Q 53.90625 64.015625 53.90625 55.328125 
Q 53.90625 49.265625 50.4375 45.09375 
Q 46.96875 40.921875 40.578125 39.3125 
z
" id="DejaVuSans-33"/>
      </defs>
      <g transform="translate(208.076904 198.418437)scale(0.1 -0.1)">
       <use xlink:href="#DejaVuSans-33"/>
      </g>
     </g>
    </g>
    <g id="xtick_5">
     <g id="line2d_5">
      <g>
       <use style="stroke:#000000;stroke-width:0.8;" x="230.39999" xlink:href="#m8af9886962" y="183.82"/>
      </g>
     </g>
     <g id="text_4">
      <!-- 4 -->
      <defs>
       <path d="M 37.796875 64.3125 
L 12.890625 25.390625 
L 37.796875 25.390625 
z
M 35.203125 72.90625 
L 47.609375 72.90625 
L 47.609375 25.390625 
L 58.015625 25.390625 
L 58.015625 17.1875 
L 47.609375 17.1875 
L 47.609375 0 
L 37.796875 0 
L 37.796875 17.1875 
L 4.890625 17.1875 
L 4.890625 26.703125 
z
" id="DejaVuSans-34"/>
      </defs>
      <g transform="translate(227.21874 198.418437)scale(0.1 -0.1)">
       <use xlink:href="#DejaVuSans-34"/>
      </g>
     </g>
    </g>
    <g id="xtick_6">
     <g id="line2d_6">
      <g>
       <use style="stroke:#000000;stroke-width:0.8;" x="249.541827" xlink:href="#m8af9886962" y="183.82"/>
      </g>
     </g>
     <g id="text_5">
      <!-- 5 -->
      <defs>
       <path d="M 10.796875 72.90625 
L 49.515625 72.90625 
L 49.515625 64.59375 
L 19.828125 64.59375 
L 19.828125 46.734375 
Q 21.96875 47.46875 24.109375 47.828125 
Q 26.265625 48.1875 28.421875 48.1875 
Q 40.625 48.1875 47.75 41.5 
Q 54.890625 34.8125 54.890625 23.390625 
Q 54.890625 11.625 47.5625 5.09375 
Q 40.234375 -1.421875 26.90625 -1.421875 
Q 22.3125 -1.421875 17.546875 -0.640625 
Q 12.796875 0.140625 7.71875 1.703125 
L 7.71875 11.625 
Q 12.109375 9.234375 16.796875 8.0625 
Q 21.484375 6.890625 26.703125 6.890625 
Q 35.15625 6.890625 40.078125 11.328125 
Q 45.015625 15.765625 45.015625 23.390625 
Q 45.015625 31 40.078125 35.4375 
Q 35.15625 39.890625 26.703125 39.890625 
Q 22.75 39.890625 18.8125 39.015625 
Q 14.890625 38.140625 10.796875 36.28125 
z
" id="DejaVuSans-35"/>
      </defs>
      <g transform="translate(246.360577 198.418437)scale(0.1 -0.1)">
       <use xlink:href="#DejaVuSans-35"/>
      </g>
     </g>
    </g>
    <g id="xtick_7">
     <g id="line2d_7">
      <g>
       <use style="stroke:#000000;stroke-width:0.8;" x="268.683663" xlink:href="#m8af9886962" y="183.82"/>
      </g>
     </g>
     <g id="text_6">
      <!-- 6 -->
      <defs>
       <path d="M 33.015625 40.375 
Q 26.375 40.375 22.484375 35.828125 
Q 18.609375 31.296875 18.609375 23.390625 
Q 18.609375 15.53125 22.484375 10.953125 
Q 26.375 6.390625 33.015625 6.390625 
Q 39.65625 6.390625 43.53125 10.953125 
Q 47.40625 15.53125 47.40625 23.390625 
Q 47.40625 31.296875 43.53125 35.828125 
Q 39.65625 40.375 33.015625 40.375 
z
M 52.59375 71.296875 
L 52.59375 62.3125 
Q 48.875 64.0625 45.09375 64.984375 
Q 41.3125 65.921875 37.59375 65.921875 
Q 27.828125 65.921875 22.671875 59.328125 
Q 17.53125 52.734375 16.796875 39.40625 
Q 19.671875 43.65625 24.015625 45.921875 
Q 28.375 48.1875 33.59375 48.1875 
Q 44.578125 48.1875 50.953125 41.515625 
Q 57.328125 34.859375 57.328125 23.390625 
Q 57.328125 12.15625 50.6875 5.359375 
Q 44.046875 -1.421875 33.015625 -1.421875 
Q 20.359375 -1.421875 13.671875 8.265625 
Q 6.984375 17.96875 6.984375 36.375 
Q 6.984375 53.65625 15.1875 63.9375 
Q 23.390625 74.21875 37.203125 74.21875 
Q 40.921875 74.21875 44.703125 73.484375 
Q 48.484375 72.75 52.59375 71.296875 
z
" id="DejaVuSans-36"/>
      </defs>
      <g transform="translate(265.502413 198.418437)scale(0.1 -0.1)">
       <use xlink:href="#DejaVuSans-36"/>
      </g>
     </g>
    </g>
    <g id="xtick_8">
     <g id="line2d_8">
      <g>
       <use style="stroke:#000000;stroke-width:0.8;" x="287.8255" xlink:href="#m8af9886962" y="183.82"/>
      </g>
     </g>
     <g id="text_7">
      <!-- 7 -->
      <defs>
       <path d="M 8.203125 72.90625 
L 55.078125 72.90625 
L 55.078125 68.703125 
L 28.609375 0 
L 18.3125 0 
L 43.21875 64.59375 
L 8.203125 64.59375 
z
" id="DejaVuSans-37"/>
      </defs>
      <g transform="translate(284.64425 198.418437)scale(0.1 -0.1)">
       <use xlink:href="#DejaVuSans-37"/>
      </g>
     </g>
    </g>
    <g id="xtick_9">
     <g id="line2d_9">
      <g>
       <use style="stroke:#000000;stroke-width:0.8;" x="306.967336" xlink:href="#m8af9886962" y="183.82"/>
      </g>
     </g>
     <g id="text_8">
      <!-- 8 -->
      <defs>
       <path d="M 31.78125 34.625 
Q 24.75 34.625 20.71875 30.859375 
Q 16.703125 27.09375 16.703125 20.515625 
Q 16.703125 13.921875 20.71875 10.15625 
Q 24.75 6.390625 31.78125 6.390625 
Q 38.8125 6.390625 42.859375 10.171875 
Q 46.921875 13.96875 46.921875 20.515625 
Q 46.921875 27.09375 42.890625 30.859375 
Q 38.875 34.625 31.78125 34.625 
z
M 21.921875 38.8125 
Q 15.578125 40.375 12.03125 44.71875 
Q 8.5 49.078125 8.5 55.328125 
Q 8.5 64.0625 14.71875 69.140625 
Q 20.953125 74.21875 31.78125 74.21875 
Q 42.671875 74.21875 48.875 69.140625 
Q 55.078125 64.0625 55.078125 55.328125 
Q 55.078125 49.078125 51.53125 44.71875 
Q 48 40.375 41.703125 38.8125 
Q 48.828125 37.15625 52.796875 32.3125 
Q 56.78125 27.484375 56.78125 20.515625 
Q 56.78125 9.90625 50.3125 4.234375 
Q 43.84375 -1.421875 31.78125 -1.421875 
Q 19.734375 -1.421875 13.25 4.234375 
Q 6.78125 9.90625 6.78125 20.515625 
Q 6.78125 27.484375 10.78125 32.3125 
Q 14.796875 37.15625 21.921875 38.8125 
z
M 18.3125 54.390625 
Q 18.3125 48.734375 21.84375 45.5625 
Q 25.390625 42.390625 31.78125 42.390625 
Q 38.140625 42.390625 41.71875 45.5625 
Q 45.3125 48.734375 45.3125 54.390625 
Q 45.3125 60.0625 41.71875 63.234375 
Q 38.140625 66.40625 31.78125 66.40625 
Q 25.390625 66.40625 21.84375 63.234375 
Q 18.3125 60.0625 18.3125 54.390625 
z
" id="DejaVuSans-38"/>
      </defs>
      <g transform="translate(303.786086 198.418437)scale(0.1 -0.1)">
       <use xlink:href="#DejaVuSans-38"/>
      </g>
     </g>
    </g>
    <g id="xtick_10">
     <g id="line2d_10">
      <defs>
       <path d="M 0 0 
L 0 2 
" id="m67396502b5" style="stroke:#000000;stroke-width:0.6;"/>
      </defs>
      <g>
       <use style="stroke:#000000;stroke-width:0.6;" x="157.661012" xlink:href="#m67396502b5" y="183.82"/>
      </g>
     </g>
    </g>
    <g id="xtick_11">
     <g id="line2d_11">
      <g>
       <use style="stroke:#000000;stroke-width:0.6;" x="161.489379" xlink:href="#m67396502b5" y="183.82"/>
      </g>
     </g>
    </g>
    <g id="xtick_12">
     <g id="line2d_12">
      <g>
       <use style="stroke:#000000;stroke-width:0.6;" x="165.317746" xlink:href="#m67396502b5" y="183.82"/>
      </g>
     </g>
    </g>
    <g id="xtick_13">
     <g id="line2d_13">
      <g>
       <use style="stroke:#000000;stroke-width:0.6;" x="169.146114" xlink:href="#m67396502b5" y="183.82"/>
      </g>
     </g>
    </g>
    <g id="xtick_14">
     <g id="line2d_14">
      <g>
       <use style="stroke:#000000;stroke-width:0.6;" x="176.802848" xlink:href="#m67396502b5" y="183.82"/>
      </g>
     </g>
    </g>
    <g id="xtick_15">
     <g id="line2d_15">
      <g>
       <use style="stroke:#000000;stroke-width:0.6;" x="180.631216" xlink:href="#m67396502b5" y="183.82"/>
      </g>
     </g>
    </g>
    <g id="xtick_16">
     <g id="line2d_16">
      <g>
       <use style="stroke:#000000;stroke-width:0.6;" x="184.459583" xlink:href="#m67396502b5" y="183.82"/>
      </g>
     </g>
    </g>
    <g id="xtick_17">
     <g id="line2d_17">
      <g>
       <use style="stroke:#000000;stroke-width:0.6;" x="188.28795" xlink:href="#m67396502b5" y="183.82"/>
      </g>
     </g>
    </g>
    <g id="xtick_18">
     <g id="line2d_18">
      <g>
       <use style="stroke:#000000;stroke-width:0.6;" x="195.944685" xlink:href="#m67396502b5" y="183.82"/>
      </g>
     </g>
    </g>
    <g id="xtick_19">
     <g id="line2d_19">
      <g>
       <use style="stroke:#000000;stroke-width:0.6;" x="199.773052" xlink:href="#m67396502b5" y="183.82"/>
      </g>
     </g>
    </g>
    <g id="xtick_20">
     <g id="line2d_20">
      <g>
       <use style="stroke:#000000;stroke-width:0.6;" x="203.601419" xlink:href="#m67396502b5" y="183.82"/>
      </g>
     </g>
    </g>
    <g id="xtick_21">
     <g id="line2d_21">
      <g>
       <use style="stroke:#000000;stroke-width:0.6;" x="207.429787" xlink:href="#m67396502b5" y="183.82"/>
      </g>
     </g>
    </g>
    <g id="xtick_22">
     <g id="line2d_22">
      <g>
       <use style="stroke:#000000;stroke-width:0.6;" x="215.086521" xlink:href="#m67396502b5" y="183.82"/>
      </g>
     </g>
    </g>
    <g id="xtick_23">
     <g id="line2d_23">
      <g>
       <use style="stroke:#000000;stroke-width:0.6;" x="218.914889" xlink:href="#m67396502b5" y="183.82"/>
      </g>
     </g>
    </g>
    <g id="xtick_24">
     <g id="line2d_24">
      <g>
       <use style="stroke:#000000;stroke-width:0.6;" x="222.743256" xlink:href="#m67396502b5" y="183.82"/>
      </g>
     </g>
    </g>
    <g id="xtick_25">
     <g id="line2d_25">
      <g>
       <use style="stroke:#000000;stroke-width:0.6;" x="226.571623" xlink:href="#m67396502b5" y="183.82"/>
      </g>
     </g>
    </g>
    <g id="xtick_26">
     <g id="line2d_26">
      <g>
       <use style="stroke:#000000;stroke-width:0.6;" x="234.228358" xlink:href="#m67396502b5" y="183.82"/>
      </g>
     </g>
    </g>
    <g id="xtick_27">
     <g id="line2d_27">
      <g>
       <use style="stroke:#000000;stroke-width:0.6;" x="238.056725" xlink:href="#m67396502b5" y="183.82"/>
      </g>
     </g>
    </g>
    <g id="xtick_28">
     <g id="line2d_28">
      <g>
       <use style="stroke:#000000;stroke-width:0.6;" x="241.885092" xlink:href="#m67396502b5" y="183.82"/>
      </g>
     </g>
    </g>
    <g id="xtick_29">
     <g id="line2d_29">
      <g>
       <use style="stroke:#000000;stroke-width:0.6;" x="245.71346" xlink:href="#m67396502b5" y="183.82"/>
      </g>
     </g>
    </g>
    <g id="xtick_30">
     <g id="line2d_30">
      <g>
       <use style="stroke:#000000;stroke-width:0.6;" x="253.370194" xlink:href="#m67396502b5" y="183.82"/>
      </g>
     </g>
    </g>
    <g id="xtick_31">
     <g id="line2d_31">
      <g>
       <use style="stroke:#000000;stroke-width:0.6;" x="257.198562" xlink:href="#m67396502b5" y="183.82"/>
      </g>
     </g>
    </g>
    <g id="xtick_32">
     <g id="line2d_32">
      <g>
       <use style="stroke:#000000;stroke-width:0.6;" x="261.026929" xlink:href="#m67396502b5" y="183.82"/>
      </g>
     </g>
    </g>
    <g id="xtick_33">
     <g id="line2d_33">
      <g>
       <use style="stroke:#000000;stroke-width:0.6;" x="264.855296" xlink:href="#m67396502b5" y="183.82"/>
      </g>
     </g>
    </g>
    <g id="xtick_34">
     <g id="line2d_34">
      <g>
       <use style="stroke:#000000;stroke-width:0.6;" x="272.512031" xlink:href="#m67396502b5" y="183.82"/>
      </g>
     </g>
    </g>
    <g id="xtick_35">
     <g id="line2d_35">
      <g>
       <use style="stroke:#000000;stroke-width:0.6;" x="276.340398" xlink:href="#m67396502b5" y="183.82"/>
      </g>
     </g>
    </g>
    <g id="xtick_36">
     <g id="line2d_36">
      <g>
       <use style="stroke:#000000;stroke-width:0.6;" x="280.168765" xlink:href="#m67396502b5" y="183.82"/>
      </g>
     </g>
    </g>
    <g id="xtick_37">
     <g id="line2d_37">
      <g>
       <use style="stroke:#000000;stroke-width:0.6;" x="283.997133" xlink:href="#m67396502b5" y="183.82"/>
      </g>
     </g>
    </g>
    <g id="xtick_38">
     <g id="line2d_38">
      <g>
       <use style="stroke:#000000;stroke-width:0.6;" x="291.653867" xlink:href="#m67396502b5" y="183.82"/>
      </g>
     </g>
    </g>
    <g id="xtick_39">
     <g id="line2d_39">
      <g>
       <use style="stroke:#000000;stroke-width:0.6;" x="295.482235" xlink:href="#m67396502b5" y="183.82"/>
      </g>
     </g>
    </g>
    <g id="xtick_40">
     <g id="line2d_40">
      <g>
       <use style="stroke:#000000;stroke-width:0.6;" x="299.310602" xlink:href="#m67396502b5" y="183.82"/>
      </g>
     </g>
    </g>
    <g id="xtick_41">
     <g id="line2d_41">
      <g>
       <use style="stroke:#000000;stroke-width:0.6;" x="303.138969" xlink:href="#m67396502b5" y="183.82"/>
      </g>
     </g>
    </g>
    <g id="text_9">
     <!-- $ x $ -->
     <defs>
      <path d="M 7.8125 2.875 
Q 9.578125 1.515625 12.796875 1.515625 
Q 15.921875 1.515625 18.3125 4.515625 
Q 20.703125 7.515625 21.578125 11.078125 
L 26.125 28.8125 
Q 27.203125 33.640625 27.203125 35.40625 
Q 27.203125 37.890625 25.8125 39.75 
Q 24.421875 41.609375 21.921875 41.609375 
Q 18.75 41.609375 15.96875 39.625 
Q 13.1875 37.640625 11.28125 34.59375 
Q 9.375 31.546875 8.59375 28.421875 
Q 8.40625 27.78125 7.8125 27.78125 
L 6.59375 27.78125 
Q 5.8125 27.78125 5.8125 28.71875 
L 5.8125 29 
Q 6.78125 32.71875 9.125 36.25 
Q 11.46875 39.796875 14.859375 41.984375 
Q 18.265625 44.1875 22.125 44.1875 
Q 25.78125 44.1875 28.734375 42.234375 
Q 31.6875 40.28125 32.90625 36.921875 
Q 34.625 39.984375 37.28125 42.078125 
Q 39.9375 44.1875 43.109375 44.1875 
Q 45.265625 44.1875 47.5 43.421875 
Q 49.75 42.671875 51.171875 41.109375 
Q 52.59375 39.546875 52.59375 37.203125 
Q 52.59375 34.671875 50.953125 32.828125 
Q 49.3125 31 46.78125 31 
Q 45.171875 31 44.09375 32.03125 
Q 43.015625 33.0625 43.015625 34.625 
Q 43.015625 36.71875 44.453125 38.296875 
Q 45.90625 39.890625 47.90625 40.1875 
Q 46.09375 41.609375 42.921875 41.609375 
Q 39.703125 41.609375 37.328125 38.625 
Q 34.96875 35.640625 33.984375 31.984375 
L 29.59375 14.3125 
Q 28.515625 10.296875 28.515625 7.71875 
Q 28.515625 5.171875 29.953125 3.34375 
Q 31.390625 1.515625 33.796875 1.515625 
Q 38.484375 1.515625 42.15625 5.640625 
Q 45.84375 9.765625 47.015625 14.703125 
Q 47.21875 15.28125 47.796875 15.28125 
L 49.03125 15.28125 
Q 49.421875 15.28125 49.65625 15.015625 
Q 49.90625 14.75 49.90625 14.40625 
Q 49.90625 14.3125 49.8125 14.109375 
Q 48.390625 8.15625 43.84375 3.515625 
Q 39.3125 -1.125 33.59375 -1.125 
Q 29.9375 -1.125 26.984375 0.84375 
Q 24.03125 2.828125 22.796875 6.203125 
Q 21.234375 3.265625 18.46875 1.0625 
Q 15.71875 -1.125 12.59375 -1.125 
Q 10.453125 -1.125 8.171875 -0.359375 
Q 5.90625 0.390625 4.484375 1.953125 
Q 3.078125 3.515625 3.078125 5.90625 
Q 3.078125 8.25 4.703125 10.171875 
Q 6.34375 12.109375 8.796875 12.109375 
Q 10.453125 12.109375 11.578125 11.109375 
Q 12.703125 10.109375 12.703125 8.5 
Q 12.703125 6.390625 11.296875 4.828125 
Q 9.90625 3.265625 7.8125 2.875 
z
" id="Cmmi10-78"/>
     </defs>
     <g transform="translate(318.03003 183.82)scale(0.16 -0.16)">
      <use transform="translate(0 0.8125)" xlink:href="#Cmmi10-78"/>
     </g>
    </g>
   </g>
   <g id="matplotlib.axis_2">
    <g id="ytick_1">
     <g id="line2d_42">
      <defs>
       <path d="M 0 0 
L -3.5 0 
" id="m0d8e0cdddf" style="stroke:#000000;stroke-width:0.8;"/>
      </defs>
      <g>
       <use style="stroke:#000000;stroke-width:0.8;" x="153.832644" xlink:href="#m0d8e0cdddf" y="336.954692"/>
      </g>
     </g>
     <g id="text_10">
      <!-- -8 -->
      <defs>
       <path d="M 4.890625 31.390625 
L 31.203125 31.390625 
L 31.203125 23.390625 
L 4.890625 23.390625 
z
" id="DejaVuSans-2d"/>
      </defs>
      <g transform="translate(136.862332 340.753911)scale(0.1 -0.1)">
       <use xlink:href="#DejaVuSans-2d"/>
       <use x="36.083984" xlink:href="#DejaVuSans-38"/>
      </g>
     </g>
    </g>
    <g id="ytick_2">
     <g id="line2d_43">
      <g>
       <use style="stroke:#000000;stroke-width:0.8;" x="153.832644" xlink:href="#m0d8e0cdddf" y="298.671019"/>
      </g>
     </g>
     <g id="text_11">
      <!-- -6 -->
      <g transform="translate(136.862332 302.470238)scale(0.1 -0.1)">
       <use xlink:href="#DejaVuSans-2d"/>
       <use x="36.083984" xlink:href="#DejaVuSans-36"/>
      </g>
     </g>
    </g>
    <g id="ytick_3">
     <g id="line2d_44">
      <g>
       <use style="stroke:#000000;stroke-width:0.8;" x="153.832644" xlink:href="#m0d8e0cdddf" y="260.387346"/>
      </g>
     </g>
     <g id="text_12">
      <!-- -4 -->
      <g transform="translate(136.862332 264.186565)scale(0.1 -0.1)">
       <use xlink:href="#DejaVuSans-2d"/>
       <use x="36.083984" xlink:href="#DejaVuSans-34"/>
      </g>
     </g>
    </g>
    <g id="ytick_4">
     <g id="line2d_45">
      <g>
       <use style="stroke:#000000;stroke-width:0.8;" x="153.832644" xlink:href="#m0d8e0cdddf" y="222.103673"/>
      </g>
     </g>
     <g id="text_13">
      <!-- -2 -->
      <g transform="translate(136.862332 225.902892)scale(0.1 -0.1)">
       <use xlink:href="#DejaVuSans-2d"/>
       <use x="36.083984" xlink:href="#DejaVuSans-32"/>
      </g>
     </g>
    </g>
    <g id="ytick_5">
     <g id="line2d_46">
      <g>
       <use style="stroke:#000000;stroke-width:0.8;" x="153.832644" xlink:href="#m0d8e0cdddf" y="183.82"/>
      </g>
     </g>
    </g>
    <g id="ytick_6">
     <g id="line2d_47">
      <g>
       <use style="stroke:#000000;stroke-width:0.8;" x="153.832644" xlink:href="#m0d8e0cdddf" y="145.536327"/>
      </g>
     </g>
     <g id="text_14">
      <!-- 2 -->
      <g transform="translate(140.470144 149.335546)scale(0.1 -0.1)">
       <use xlink:href="#DejaVuSans-32"/>
      </g>
     </g>
    </g>
    <g id="ytick_7">
     <g id="line2d_48">
      <g>
       <use style="stroke:#000000;stroke-width:0.8;" x="153.832644" xlink:href="#m0d8e0cdddf" y="107.252654"/>
      </g>
     </g>
     <g id="text_15">
      <!-- 4 -->
      <g transform="translate(140.470144 111.051873)scale(0.1 -0.1)">
       <use xlink:href="#DejaVuSans-34"/>
      </g>
     </g>
    </g>
    <g id="ytick_8">
     <g id="line2d_49">
      <g>
       <use style="stroke:#000000;stroke-width:0.8;" x="153.832644" xlink:href="#m0d8e0cdddf" y="68.968981"/>
      </g>
     </g>
     <g id="text_16">
      <!-- 6 -->
      <g transform="translate(140.470144 72.7682)scale(0.1 -0.1)">
       <use xlink:href="#DejaVuSans-36"/>
      </g>
     </g>
    </g>
    <g id="ytick_9">
     <g id="line2d_50">
      <g>
       <use style="stroke:#000000;stroke-width:0.8;" x="153.832644" xlink:href="#m0d8e0cdddf" y="30.685308"/>
      </g>
     </g>
     <g id="text_17">
      <!-- 8 -->
      <g transform="translate(140.470144 34.484527)scale(0.1 -0.1)">
       <use xlink:href="#DejaVuSans-38"/>
      </g>
     </g>
    </g>
    <g id="ytick_10">
     <g id="line2d_51">
      <defs>
       <path d="M 0 0 
L -2 0 
" id="m83caac763f" style="stroke:#000000;stroke-width:0.6;"/>
      </defs>
      <g>
       <use style="stroke:#000000;stroke-width:0.6;" x="153.832644" xlink:href="#m83caac763f" y="327.383774"/>
      </g>
     </g>
    </g>
    <g id="ytick_11">
     <g id="line2d_52">
      <g>
       <use style="stroke:#000000;stroke-width:0.6;" x="153.832644" xlink:href="#m83caac763f" y="317.812855"/>
      </g>
     </g>
    </g>
    <g id="ytick_12">
     <g id="line2d_53">
      <g>
       <use style="stroke:#000000;stroke-width:0.6;" x="153.832644" xlink:href="#m83caac763f" y="308.241937"/>
      </g>
     </g>
    </g>
    <g id="ytick_13">
     <g id="line2d_54">
      <g>
       <use style="stroke:#000000;stroke-width:0.6;" x="153.832644" xlink:href="#m83caac763f" y="289.100101"/>
      </g>
     </g>
    </g>
    <g id="ytick_14">
     <g id="line2d_55">
      <g>
       <use style="stroke:#000000;stroke-width:0.6;" x="153.832644" xlink:href="#m83caac763f" y="279.529182"/>
      </g>
     </g>
    </g>
    <g id="ytick_15">
     <g id="line2d_56">
      <g>
       <use style="stroke:#000000;stroke-width:0.6;" x="153.832644" xlink:href="#m83caac763f" y="269.958264"/>
      </g>
     </g>
    </g>
    <g id="ytick_16">
     <g id="line2d_57">
      <g>
       <use style="stroke:#000000;stroke-width:0.6;" x="153.832644" xlink:href="#m83caac763f" y="250.816428"/>
      </g>
     </g>
    </g>
    <g id="ytick_17">
     <g id="line2d_58">
      <g>
       <use style="stroke:#000000;stroke-width:0.6;" x="153.832644" xlink:href="#m83caac763f" y="241.245509"/>
      </g>
     </g>
    </g>
    <g id="ytick_18">
     <g id="line2d_59">
      <g>
       <use style="stroke:#000000;stroke-width:0.6;" x="153.832644" xlink:href="#m83caac763f" y="231.674591"/>
      </g>
     </g>
    </g>
    <g id="ytick_19">
     <g id="line2d_60">
      <g>
       <use style="stroke:#000000;stroke-width:0.6;" x="153.832644" xlink:href="#m83caac763f" y="212.532755"/>
      </g>
     </g>
    </g>
    <g id="ytick_20">
     <g id="line2d_61">
      <g>
       <use style="stroke:#000000;stroke-width:0.6;" x="153.832644" xlink:href="#m83caac763f" y="202.961836"/>
      </g>
     </g>
    </g>
    <g id="ytick_21">
     <g id="line2d_62">
      <g>
       <use style="stroke:#000000;stroke-width:0.6;" x="153.832644" xlink:href="#m83caac763f" y="193.390918"/>
      </g>
     </g>
    </g>
    <g id="ytick_22">
     <g id="line2d_63">
      <g>
       <use style="stroke:#000000;stroke-width:0.6;" x="153.832644" xlink:href="#m83caac763f" y="174.249082"/>
      </g>
     </g>
    </g>
    <g id="ytick_23">
     <g id="line2d_64">
      <g>
       <use style="stroke:#000000;stroke-width:0.6;" x="153.832644" xlink:href="#m83caac763f" y="164.678164"/>
      </g>
     </g>
    </g>
    <g id="ytick_24">
     <g id="line2d_65">
      <g>
       <use style="stroke:#000000;stroke-width:0.6;" x="153.832644" xlink:href="#m83caac763f" y="155.107245"/>
      </g>
     </g>
    </g>
    <g id="ytick_25">
     <g id="line2d_66">
      <g>
       <use style="stroke:#000000;stroke-width:0.6;" x="153.832644" xlink:href="#m83caac763f" y="135.965409"/>
      </g>
     </g>
    </g>
    <g id="ytick_26">
     <g id="line2d_67">
      <g>
       <use style="stroke:#000000;stroke-width:0.6;" x="153.832644" xlink:href="#m83caac763f" y="126.394491"/>
      </g>
     </g>
    </g>
    <g id="ytick_27">
     <g id="line2d_68">
      <g>
       <use style="stroke:#000000;stroke-width:0.6;" x="153.832644" xlink:href="#m83caac763f" y="116.823572"/>
      </g>
     </g>
    </g>
    <g id="ytick_28">
     <g id="line2d_69">
      <g>
       <use style="stroke:#000000;stroke-width:0.6;" x="153.832644" xlink:href="#m83caac763f" y="97.681736"/>
      </g>
     </g>
    </g>
    <g id="ytick_29">
     <g id="line2d_70">
      <g>
       <use style="stroke:#000000;stroke-width:0.6;" x="153.832644" xlink:href="#m83caac763f" y="88.110818"/>
      </g>
     </g>
    </g>
    <g id="ytick_30">
     <g id="line2d_71">
      <g>
       <use style="stroke:#000000;stroke-width:0.6;" x="153.832644" xlink:href="#m83caac763f" y="78.539899"/>
      </g>
     </g>
    </g>
    <g id="ytick_31">
     <g id="line2d_72">
      <g>
       <use style="stroke:#000000;stroke-width:0.6;" x="153.832644" xlink:href="#m83caac763f" y="59.398063"/>
      </g>
     </g>
    </g>
    <g id="ytick_32">
     <g id="line2d_73">
      <g>
       <use style="stroke:#000000;stroke-width:0.6;" x="153.832644" xlink:href="#m83caac763f" y="49.827145"/>
      </g>
     </g>
    </g>
    <g id="ytick_33">
     <g id="line2d_74">
      <g>
       <use style="stroke:#000000;stroke-width:0.6;" x="153.832644" xlink:href="#m83caac763f" y="40.256226"/>
      </g>
     </g>
    </g>
    <g id="text_18">
     <!-- $ z $ -->
     <defs>
      <path d="M 4.890625 -1.125 
Q 4.109375 -1.125 4.109375 -0.203125 
Q 4.109375 0.296875 4.296875 0.484375 
Q 6.984375 5.125 10.765625 9.34375 
Q 14.546875 13.578125 19.359375 17.890625 
Q 24.171875 22.21875 29.03125 26.5625 
Q 33.890625 30.90625 36.921875 34.28125 
L 36.53125 34.28125 
Q 34.328125 34.28125 30.078125 35.6875 
Q 25.828125 37.109375 23.390625 37.109375 
Q 20.75 37.109375 18.25 35.953125 
Q 15.765625 34.8125 15.09375 32.421875 
Q 14.9375 31.6875 14.3125 31.6875 
L 13.09375 31.6875 
Q 12.3125 31.6875 12.3125 32.71875 
L 12.3125 33.015625 
Q 13.09375 35.9375 14.875 38.46875 
Q 16.65625 41.015625 19.265625 42.59375 
Q 21.875 44.1875 24.703125 44.1875 
Q 26.703125 44.1875 28.015625 43.28125 
Q 29.34375 42.390625 31.09375 40.484375 
Q 32.859375 38.578125 33.953125 37.75 
Q 35.0625 36.921875 36.71875 36.921875 
Q 38.921875 36.921875 40.65625 38.921875 
Q 42.390625 40.921875 44.09375 43.890625 
Q 44.390625 44.1875 44.828125 44.1875 
L 46 44.1875 
Q 46.34375 44.1875 46.5625 43.9375 
Q 46.78125 43.703125 46.78125 43.3125 
Q 46.78125 42.96875 46.578125 42.671875 
Q 43.890625 38.03125 40.296875 34 
Q 36.71875 29.984375 30.921875 24.78125 
Q 25.140625 19.578125 21.15625 15.984375 
Q 17.1875 12.40625 13.71875 8.59375 
Q 14.5 8.796875 15.828125 8.796875 
Q 18.265625 8.796875 22.484375 7.390625 
Q 26.703125 6 29 6 
Q 31.5 6 34.03125 7.078125 
Q 36.578125 8.15625 38.421875 10.109375 
Q 40.28125 12.0625 40.921875 14.59375 
Q 41.15625 15.28125 41.703125 15.28125 
L 42.921875 15.28125 
Q 43.3125 15.28125 43.546875 14.96875 
Q 43.796875 14.65625 43.796875 14.3125 
Q 43.796875 14.203125 43.703125 14.015625 
Q 42.78125 10.203125 40.484375 6.765625 
Q 38.1875 3.328125 34.84375 1.09375 
Q 31.5 -1.125 27.6875 -1.125 
Q 25.78125 -1.125 24.453125 -0.234375 
Q 23.140625 0.640625 21.359375 2.5625 
Q 19.578125 4.5 18.453125 5.34375 
Q 17.328125 6.203125 15.71875 6.203125 
Q 10.75 6.203125 6.78125 -0.78125 
Q 6.453125 -1.125 6.109375 -1.125 
z
" id="Cmmi10-7a"/>
     </defs>
     <g transform="translate(150.072644 13.2325)scale(0.16 -0.16)">
      <use transform="translate(0 0.8125)" xlink:href="#Cmmi10-7a"/>
     </g>
    </g>
   </g>
   <g id="line2d_75">
    <path clip-path="url(#pd1f942ac83)" d="M 153.832664 183.800858 
L 153.834733 181.73173 
L 153.836802 179.662602 
L 153.838871 177.593474 
L 153.84094 175.524346 
L 153.843009 173.455218 
L 153.845078 171.38609 
L 153.847147 169.316962 
L 153.849217 167.247834 
L 153.851286 165.178706 
L 153.853355 163.109578 
L 153.855424 161.04045 
L 153.857493 158.971322 
L 153.859562 156.902194 
L 153.861631 154.833066 
L 153.863701 152.763938 
L 153.86577 150.69481 
L 153.867839 148.625682 
L 153.869908 146.556554 
L 153.871977 144.487426 
L 153.874046 142.418298 
L 153.876115 140.34917 
L 153.878184 138.280042 
L 153.880254 136.210914 
L 153.882323 134.141786 
L 153.884392 132.072658 
L 153.886461 130.00353 
L 153.88853 127.934402 
L 153.890599 125.865274 
L 153.892668 123.796146 
L 153.894737 121.727018 
L 153.896807 119.65789 
L 153.898876 117.588761 
L 153.900945 115.519633 
L 153.903014 113.450505 
L 153.905083 111.381377 
L 153.907152 109.312249 
L 153.909221 107.243121 
L 153.91129 105.173993 
L 153.91336 103.104865 
L 153.915429 101.035737 
L 153.917498 98.966609 
L 153.919567 96.897481 
L 153.921636 94.828353 
L 153.923705 92.759225 
L 153.925774 90.690097 
L 153.927844 88.620969 
L 153.929913 86.551841 
L 153.931982 84.482713 
L 153.934051 82.413585 
L 153.93612 80.344457 
L 153.938189 78.275329 
L 153.940258 76.206201 
L 153.942327 74.137073 
L 153.944397 72.067945 
L 153.946466 69.998817 
L 153.948535 67.929689 
L 153.950604 65.860561 
L 153.952673 63.791433 
L 153.954742 61.722305 
L 153.956811 59.653177 
L 153.95888 57.584049 
L 153.96095 55.514921 
L 153.963019 53.445793 
L 153.965088 51.376665 
L 153.967157 49.307537 
L 153.969226 47.238409 
L 153.971295 45.169281 
L 153.973364 43.100153 
L 153.975433 41.031025 
L 153.977503 38.961897 
L 153.979572 36.892769 
L 153.981641 34.823641 
L 153.98371 32.754513 
L 153.985779 30.685385 
" style="fill:none;stroke:#ff0000;stroke-linecap:square;"/>
   </g>
   <g id="line2d_76">
    <path clip-path="url(#pd1f942ac83)" d="M 153.839983 183.802321 
L 154.633238 181.891289 
L 155.426493 179.980258 
L 156.219748 178.069226 
L 157.013003 176.158194 
L 157.806258 174.247163 
L 158.599512 172.336131 
L 159.392767 170.4251 
L 160.186022 168.514068 
L 160.979277 166.603037 
L 161.772532 164.692005 
L 162.565787 162.780973 
L 163.359042 160.869942 
L 164.152297 158.95891 
L 164.945552 157.047879 
L 165.738807 155.136847 
L 166.532061 153.225815 
L 167.325316 151.314784 
L 168.118571 149.403752 
L 168.911826 147.492721 
L 169.705081 145.581689 
L 170.498336 143.670658 
L 171.291591 141.759626 
L 172.084846 139.848594 
L 172.878101 137.937563 
L 173.671356 136.026531 
L 174.464611 134.1155 
L 175.257865 132.204468 
L 176.05112 130.293436 
L 176.844375 128.382405 
L 177.63763 126.471373 
L 178.430885 124.560342 
L 179.22414 122.64931 
L 180.017395 120.738279 
L 180.81065 118.827247 
L 181.603905 116.916215 
L 182.39716 115.005184 
L 183.190414 113.094152 
L 183.983669 111.183121 
L 184.776924 109.272089 
L 185.570179 107.361058 
L 186.363434 105.450026 
L 187.156689 103.538994 
L 187.949944 101.627963 
L 188.743199 99.716931 
L 189.536454 97.8059 
L 190.329709 95.894868 
L 191.122964 93.983836 
L 191.916218 92.072805 
L 192.709473 90.161773 
L 193.502728 88.250742 
L 194.295983 86.33971 
L 195.089238 84.428679 
L 195.882493 82.517647 
L 196.675748 80.606615 
L 197.469003 78.695584 
L 198.262258 76.784552 
L 199.055513 74.873521 
L 199.848768 72.962489 
L 200.642022 71.051457 
L 201.435277 69.140426 
L 202.228532 67.229394 
L 203.021787 65.318363 
L 203.815042 63.407331 
L 204.608297 61.4963 
L 205.401552 59.585268 
L 206.194807 57.674236 
L 206.988062 55.763205 
L 207.781317 53.852173 
L 208.574571 51.941142 
L 209.367826 50.03011 
L 210.161081 48.119078 
L 210.954336 46.208047 
L 211.747591 44.297015 
L 212.540846 42.385984 
" style="fill:none;stroke:#ff0000;stroke-linecap:square;"/>
   </g>
   <g id="line2d_77">
    <path clip-path="url(#pd1f942ac83)" d="M 153.846187 183.806471 
L 155.310013 182.344108 
L 156.77384 180.881745 
L 158.237666 179.419381 
L 159.701493 177.957018 
L 161.165319 176.494654 
L 162.629146 175.032291 
L 164.092972 173.569927 
L 165.556799 172.107564 
L 167.020626 170.6452 
L 168.484452 169.182837 
L 169.948279 167.720473 
L 171.412105 166.25811 
L 172.875932 164.795747 
L 174.339758 163.333383 
L 175.803585 161.87102 
L 177.267411 160.408656 
L 178.731238 158.946293 
L 180.195064 157.483929 
L 181.658891 156.021566 
L 183.122718 154.559202 
L 184.586544 153.096839 
L 186.050371 151.634475 
L 187.514197 150.172112 
L 188.978024 148.709749 
L 190.44185 147.247385 
L 191.905677 145.785022 
L 193.369503 144.322658 
L 194.83333 142.860295 
L 196.297157 141.397931 
L 197.760983 139.935568 
L 199.22481 138.473204 
L 200.688636 137.010841 
L 202.152463 135.548477 
L 203.616289 134.086114 
L 205.080116 132.62375 
L 206.543942 131.161387 
L 208.007769 129.699024 
L 209.471595 128.23666 
L 210.935422 126.774297 
L 212.399249 125.311933 
L 213.863075 123.84957 
L 215.326902 122.387206 
L 216.790728 120.924843 
L 218.254555 119.462479 
L 219.718381 118.000116 
L 221.182208 116.537752 
L 222.646034 115.075389 
L 224.109861 113.613026 
L 225.573688 112.150662 
L 227.037514 110.688299 
L 228.501341 109.225935 
L 229.965167 107.763572 
L 231.428994 106.301208 
L 232.89282 104.838845 
L 234.356647 103.376481 
L 235.820473 101.914118 
L 237.2843 100.451754 
L 238.748127 98.989391 
L 240.211953 97.527028 
L 241.67578 96.064664 
L 243.139606 94.602301 
L 244.603433 93.139937 
L 246.067259 91.677574 
L 247.531086 90.21521 
L 248.994912 88.752847 
L 250.458739 87.290483 
L 251.922565 85.82812 
L 253.386392 84.365756 
L 254.850219 82.903393 
L 256.314045 81.44103 
L 257.777872 79.978666 
L 259.241698 78.516303 
L 260.705525 77.053939 
L 262.169351 75.591576 
" style="fill:none;stroke:#ff0000;stroke-linecap:square;"/>
   </g>
   <g id="line2d_78">
    <path clip-path="url(#pd1f942ac83)" d="M 153.850331 183.812679 
L 155.762155 183.021336 
L 157.673979 182.229992 
L 159.585803 181.438649 
L 161.497627 180.647305 
L 163.40945 179.855962 
L 165.321274 179.064618 
L 167.233098 178.273275 
L 169.144922 177.481931 
L 171.056746 176.690588 
L 172.96857 175.899244 
L 174.880394 175.107901 
L 176.792218 174.316557 
L 178.704041 173.525214 
L 180.615865 172.73387 
L 182.527689 171.942527 
L 184.439513 171.151184 
L 186.351337 170.35984 
L 188.263161 169.568497 
L 190.174985 168.777153 
L 192.086809 167.98581 
L 193.998633 167.194466 
L 195.910456 166.403123 
L 197.82228 165.611779 
L 199.734104 164.820436 
L 201.645928 164.029092 
L 203.557752 163.237749 
L 205.469576 162.446405 
L 207.3814 161.655062 
L 209.293224 160.863718 
L 211.205047 160.072375 
L 213.116871 159.281031 
L 215.028695 158.489688 
L 216.940519 157.698344 
L 218.852343 156.907001 
L 220.764167 156.115657 
L 222.675991 155.324314 
L 224.587815 154.53297 
L 226.499638 153.741627 
L 228.411462 152.950284 
L 230.323286 152.15894 
L 232.23511 151.367597 
L 234.146934 150.576253 
L 236.058758 149.78491 
L 237.970582 148.993566 
L 239.882406 148.202223 
L 241.79423 147.410879 
L 243.706053 146.619536 
L 245.617877 145.828192 
L 247.529701 145.036849 
L 249.441525 144.245505 
L 251.353349 143.454162 
L 253.265173 142.662818 
L 255.176997 141.871475 
L 257.088821 141.080131 
L 259.000644 140.288788 
L 260.912468 139.497444 
L 262.824292 138.706101 
L 264.736116 137.914757 
L 266.64794 137.123414 
L 268.559764 136.33207 
L 270.471588 135.540727 
L 272.383412 134.749384 
L 274.295235 133.95804 
L 276.207059 133.166697 
L 278.118883 132.375353 
L 280.030707 131.58401 
L 281.942531 130.792666 
L 283.854355 130.001323 
L 285.766179 129.209979 
L 287.678003 128.418636 
L 289.589827 127.627292 
L 291.50165 126.835949 
L 293.413474 126.044605 
L 295.325298 125.253262 
" style="fill:none;stroke:#ff0000;stroke-linecap:square;"/>
   </g>
   <g id="line2d_79">
    <path clip-path="url(#pd1f942ac83)" d="M 153.851786 183.82 
L 155.920915 183.82 
L 157.990044 183.82 
L 160.059173 183.82 
L 162.128303 183.82 
L 164.197432 183.82 
L 166.266561 183.82 
L 168.33569 183.82 
L 170.404819 183.82 
L 172.473948 183.82 
L 174.543077 183.82 
L 176.612206 183.82 
L 178.681335 183.82 
L 180.750464 183.82 
L 182.819593 183.82 
L 184.888722 183.82 
L 186.957851 183.82 
L 189.02698 183.82 
L 191.096109 183.82 
L 193.165238 183.82 
L 195.234367 183.82 
L 197.303496 183.82 
L 199.372626 183.82 
L 201.441755 183.82 
L 203.510884 183.82 
L 205.580013 183.82 
L 207.649142 183.82 
L 209.718271 183.82 
L 211.7874 183.82 
L 213.856529 183.82 
L 215.925658 183.82 
L 217.994787 183.82 
L 220.063916 183.82 
L 222.133045 183.82 
L 224.202174 183.82 
L 226.271303 183.82 
L 228.340432 183.82 
L 230.409561 183.82 
L 232.47869 183.82 
L 234.547819 183.82 
L 236.616949 183.82 
L 238.686078 183.82 
L 240.755207 183.82 
L 242.824336 183.82 
L 244.893465 183.82 
L 246.962594 183.82 
L 249.031723 183.82 
L 251.100852 183.82 
L 253.169981 183.82 
L 255.23911 183.82 
L 257.308239 183.82 
L 259.377368 183.82 
L 261.446497 183.82 
L 263.515626 183.82 
L 265.584755 183.82 
L 267.653884 183.82 
L 269.723013 183.82 
L 271.792142 183.82 
L 273.861272 183.82 
L 275.930401 183.82 
L 277.99953 183.82 
L 280.068659 183.82 
L 282.137788 183.82 
L 284.206917 183.82 
L 286.276046 183.82 
L 288.345175 183.82 
L 290.414304 183.82 
L 292.483433 183.82 
L 294.552562 183.82 
L 296.621691 183.82 
L 298.69082 183.82 
L 300.759949 183.82 
L 302.829078 183.82 
L 304.898207 183.82 
L 306.967336 183.82 
" style="fill:none;stroke:#ff0000;stroke-linecap:square;"/>
   </g>
   <g id="line2d_80">
    <path clip-path="url(#pd1f942ac83)" d="M 153.850331 183.827321 
L 155.762155 184.618664 
L 157.673979 185.410008 
L 159.585803 186.201351 
L 161.497627 186.992695 
L 163.40945 187.784038 
L 165.321274 188.575382 
L 167.233098 189.366725 
L 169.144922 190.158069 
L 171.056746 190.949412 
L 172.96857 191.740756 
L 174.880394 192.532099 
L 176.792218 193.323443 
L 178.704041 194.114786 
L 180.615865 194.90613 
L 182.527689 195.697473 
L 184.439513 196.488816 
L 186.351337 197.28016 
L 188.263161 198.071503 
L 190.174985 198.862847 
L 192.086809 199.65419 
L 193.998633 200.445534 
L 195.910456 201.236877 
L 197.82228 202.028221 
L 199.734104 202.819564 
L 201.645928 203.610908 
L 203.557752 204.402251 
L 205.469576 205.193595 
L 207.3814 205.984938 
L 209.293224 206.776282 
L 211.205047 207.567625 
L 213.116871 208.358969 
L 215.028695 209.150312 
L 216.940519 209.941656 
L 218.852343 210.732999 
L 220.764167 211.524343 
L 222.675991 212.315686 
L 224.587815 213.10703 
L 226.499638 213.898373 
L 228.411462 214.689716 
L 230.323286 215.48106 
L 232.23511 216.272403 
L 234.146934 217.063747 
L 236.058758 217.85509 
L 237.970582 218.646434 
L 239.882406 219.437777 
L 241.79423 220.229121 
L 243.706053 221.020464 
L 245.617877 221.811808 
L 247.529701 222.603151 
L 249.441525 223.394495 
L 251.353349 224.185838 
L 253.265173 224.977182 
L 255.176997 225.768525 
L 257.088821 226.559869 
L 259.000644 227.351212 
L 260.912468 228.142556 
L 262.824292 228.933899 
L 264.736116 229.725243 
L 266.64794 230.516586 
L 268.559764 231.30793 
L 270.471588 232.099273 
L 272.383412 232.890616 
L 274.295235 233.68196 
L 276.207059 234.473303 
L 278.118883 235.264647 
L 280.030707 236.05599 
L 281.942531 236.847334 
L 283.854355 237.638677 
L 285.766179 238.430021 
L 287.678003 239.221364 
L 289.589827 240.012708 
L 291.50165 240.804051 
L 293.413474 241.595395 
L 295.325298 242.386738 
" style="fill:none;stroke:#ff0000;stroke-linecap:square;"/>
   </g>
   <g id="line2d_81">
    <path clip-path="url(#pd1f942ac83)" d="M 153.846187 183.833529 
L 155.310013 185.295892 
L 156.77384 186.758255 
L 158.237666 188.220619 
L 159.701493 189.682982 
L 161.165319 191.145346 
L 162.629146 192.607709 
L 164.092972 194.070073 
L 165.556799 195.532436 
L 167.020626 196.9948 
L 168.484452 198.457163 
L 169.948279 199.919527 
L 171.412105 201.38189 
L 172.875932 202.844253 
L 174.339758 204.306617 
L 175.803585 205.76898 
L 177.267411 207.231344 
L 178.731238 208.693707 
L 180.195064 210.156071 
L 181.658891 211.618434 
L 183.122718 213.080798 
L 184.586544 214.543161 
L 186.050371 216.005525 
L 187.514197 217.467888 
L 188.978024 218.930251 
L 190.44185 220.392615 
L 191.905677 221.854978 
L 193.369503 223.317342 
L 194.83333 224.779705 
L 196.297157 226.242069 
L 197.760983 227.704432 
L 199.22481 229.166796 
L 200.688636 230.629159 
L 202.152463 232.091523 
L 203.616289 233.553886 
L 205.080116 235.01625 
L 206.543942 236.478613 
L 208.007769 237.940976 
L 209.471595 239.40334 
L 210.935422 240.865703 
L 212.399249 242.328067 
L 213.863075 243.79043 
L 215.326902 245.252794 
L 216.790728 246.715157 
L 218.254555 248.177521 
L 219.718381 249.639884 
L 221.182208 251.102248 
L 222.646034 252.564611 
L 224.109861 254.026974 
L 225.573688 255.489338 
L 227.037514 256.951701 
L 228.501341 258.414065 
L 229.965167 259.876428 
L 231.428994 261.338792 
L 232.89282 262.801155 
L 234.356647 264.263519 
L 235.820473 265.725882 
L 237.2843 267.188246 
L 238.748127 268.650609 
L 240.211953 270.112972 
L 241.67578 271.575336 
L 243.139606 273.037699 
L 244.603433 274.500063 
L 246.067259 275.962426 
L 247.531086 277.42479 
L 248.994912 278.887153 
L 250.458739 280.349517 
L 251.922565 281.81188 
L 253.386392 283.274244 
L 254.850219 284.736607 
L 256.314045 286.19897 
L 257.777872 287.661334 
L 259.241698 289.123697 
L 260.705525 290.586061 
L 262.169351 292.048424 
" style="fill:none;stroke:#ff0000;stroke-linecap:square;"/>
   </g>
   <g id="line2d_82">
    <path clip-path="url(#pd1f942ac83)" d="M 153.839983 183.837679 
L 154.633238 185.748711 
L 155.426493 187.659742 
L 156.219748 189.570774 
L 157.013003 191.481806 
L 157.806258 193.392837 
L 158.599512 195.303869 
L 159.392767 197.2149 
L 160.186022 199.125932 
L 160.979277 201.036963 
L 161.772532 202.947995 
L 162.565787 204.859027 
L 163.359042 206.770058 
L 164.152297 208.68109 
L 164.945552 210.592121 
L 165.738807 212.503153 
L 166.532061 214.414185 
L 167.325316 216.325216 
L 168.118571 218.236248 
L 168.911826 220.147279 
L 169.705081 222.058311 
L 170.498336 223.969342 
L 171.291591 225.880374 
L 172.084846 227.791406 
L 172.878101 229.702437 
L 173.671356 231.613469 
L 174.464611 233.5245 
L 175.257865 235.435532 
L 176.05112 237.346564 
L 176.844375 239.257595 
L 177.63763 241.168627 
L 178.430885 243.079658 
L 179.22414 244.99069 
L 180.017395 246.901721 
L 180.81065 248.812753 
L 181.603905 250.723785 
L 182.39716 252.634816 
L 183.190414 254.545848 
L 183.983669 256.456879 
L 184.776924 258.367911 
L 185.570179 260.278942 
L 186.363434 262.189974 
L 187.156689 264.101006 
L 187.949944 266.012037 
L 188.743199 267.923069 
L 189.536454 269.8341 
L 190.329709 271.745132 
L 191.122964 273.656164 
L 191.916218 275.567195 
L 192.709473 277.478227 
L 193.502728 279.389258 
L 194.295983 281.30029 
L 195.089238 283.211321 
L 195.882493 285.122353 
L 196.675748 287.033385 
L 197.469003 288.944416 
L 198.262258 290.855448 
L 199.055513 292.766479 
L 199.848768 294.677511 
L 200.642022 296.588543 
L 201.435277 298.499574 
L 202.228532 300.410606 
L 203.021787 302.321637 
L 203.815042 304.232669 
L 204.608297 306.1437 
L 205.401552 308.054732 
L 206.194807 309.965764 
L 206.988062 311.876795 
L 207.781317 313.787827 
L 208.574571 315.698858 
L 209.367826 317.60989 
L 210.161081 319.520922 
L 210.954336 321.431953 
L 211.747591 323.342985 
L 212.540846 325.254016 
" style="fill:none;stroke:#ff0000;stroke-linecap:square;"/>
   </g>
   <g id="line2d_83">
    <path clip-path="url(#pd1f942ac83)" d="M 153.832664 183.839142 
L 153.834733 185.90827 
L 153.836802 187.977398 
L 153.838871 190.046526 
L 153.84094 192.115654 
L 153.843009 194.184782 
L 153.845078 196.25391 
L 153.847147 198.323038 
L 153.849217 200.392166 
L 153.851286 202.461294 
L 153.853355 204.530422 
L 153.855424 206.59955 
L 153.857493 208.668678 
L 153.859562 210.737806 
L 153.861631 212.806934 
L 153.863701 214.876062 
L 153.86577 216.94519 
L 153.867839 219.014318 
L 153.869908 221.083446 
L 153.871977 223.152574 
L 153.874046 225.221702 
L 153.876115 227.29083 
L 153.878184 229.359958 
L 153.880254 231.429086 
L 153.882323 233.498214 
L 153.884392 235.567342 
L 153.886461 237.63647 
L 153.88853 239.705598 
L 153.890599 241.774726 
L 153.892668 243.843854 
L 153.894737 245.912982 
L 153.896807 247.98211 
L 153.898876 250.051239 
L 153.900945 252.120367 
L 153.903014 254.189495 
L 153.905083 256.258623 
L 153.907152 258.327751 
L 153.909221 260.396879 
L 153.91129 262.466007 
L 153.91336 264.535135 
L 153.915429 266.604263 
L 153.917498 268.673391 
L 153.919567 270.742519 
L 153.921636 272.811647 
L 153.923705 274.880775 
L 153.925774 276.949903 
L 153.927844 279.019031 
L 153.929913 281.088159 
L 153.931982 283.157287 
L 153.934051 285.226415 
L 153.93612 287.295543 
L 153.938189 289.364671 
L 153.940258 291.433799 
L 153.942327 293.502927 
L 153.944397 295.572055 
L 153.946466 297.641183 
L 153.948535 299.710311 
L 153.950604 301.779439 
L 153.952673 303.848567 
L 153.954742 305.917695 
L 153.956811 307.986823 
L 153.95888 310.055951 
L 153.96095 312.125079 
L 153.963019 314.194207 
L 153.965088 316.263335 
L 153.967157 318.332463 
L 153.969226 320.401591 
L 153.971295 322.470719 
L 153.973364 324.539847 
L 153.975433 326.608975 
L 153.977503 328.678103 
L 153.979572 330.747231 
L 153.981641 332.816359 
L 153.98371 334.885487 
L 153.985779 336.954615 
" style="fill:none;stroke:#ff0000;stroke-linecap:square;"/>
   </g>
   <g id="line2d_84">
    <path clip-path="url(#pd1f942ac83)" d="M 153.832664 183.800858 
L 153.833475 183.800876 
L 153.834286 183.800929 
L 153.835093 183.801015 
L 153.835896 183.801136 
L 153.836693 183.801291 
L 153.837483 183.80148 
L 153.838264 183.801702 
L 153.839036 183.801957 
L 153.839795 183.802244 
L 153.840542 183.802563 
L 153.841274 183.802914 
L 153.841991 183.803295 
L 153.842691 183.803707 
L 153.843373 183.804147 
L 153.844036 183.804617 
L 153.844678 183.805114 
L 153.845299 183.805638 
L 153.845897 183.806187 
L 153.84647 183.806762 
L 153.84702 183.80736 
L 153.847543 183.807981 
L 153.848039 183.808624 
L 153.848508 183.809287 
L 153.848948 183.80997 
L 153.849359 183.81067 
L 153.849739 183.811387 
L 153.850089 183.81212 
L 153.850408 183.812867 
L 153.850694 183.813627 
L 153.850948 183.814398 
L 153.851169 183.81518 
L 153.851357 183.81597 
L 153.851511 183.816767 
L 153.851631 183.81757 
L 153.851717 183.818378 
L 153.851769 183.819188 
L 153.851786 183.82 
L 153.851769 183.820812 
L 153.851717 183.821622 
L 153.851631 183.82243 
L 153.851511 183.823233 
L 153.851357 183.82403 
L 153.851169 183.82482 
L 153.850948 183.825602 
L 153.850694 183.826373 
L 153.850408 183.827133 
L 153.850089 183.82788 
L 153.849739 183.828613 
L 153.849359 183.82933 
L 153.848948 183.83003 
L 153.848508 183.830713 
L 153.848039 183.831376 
L 153.847543 183.832019 
L 153.84702 183.83264 
L 153.84647 183.833238 
L 153.845897 183.833813 
L 153.845299 183.834362 
L 153.844678 183.834886 
L 153.844036 183.835383 
L 153.843373 183.835853 
L 153.842691 183.836293 
L 153.841991 183.836705 
L 153.841274 183.837086 
L 153.840542 183.837437 
L 153.839795 183.837756 
L 153.839036 183.838043 
L 153.838264 183.838298 
L 153.837483 183.83852 
L 153.836693 183.838709 
L 153.835896 183.838864 
L 153.835093 183.838985 
L 153.834286 183.839071 
L 153.833475 183.839124 
L 153.832664 183.839142 
" style="fill:none;stroke:#008000;stroke-linecap:square;"/>
   </g>
   <g id="line2d_85">
    <path clip-path="url(#pd1f942ac83)" d="M 153.851803 164.661424 
L 154.664381 164.679477 
L 155.475463 164.731979 
L 156.283588 164.818835 
L 157.087301 164.939889 
L 157.885157 165.094922 
L 158.67572 165.283657 
L 159.457566 165.505752 
L 160.229288 165.76081 
L 160.989498 166.04837 
L 161.736827 166.367914 
L 162.469931 166.718869 
L 163.187489 167.100601 
L 163.88821 167.512425 
L 164.570834 167.953599 
L 165.234132 168.423329 
L 165.876909 168.920769 
L 166.49801 169.445024 
L 167.096315 169.995152 
L 167.67075 170.57016 
L 168.220278 171.169016 
L 168.743912 171.79064 
L 169.24071 172.433915 
L 169.709776 173.097682 
L 170.150267 173.780747 
L 170.56139 174.48188 
L 170.942404 175.199819 
L 171.292626 175.933273 
L 171.611423 176.680922 
L 171.898222 177.441419 
L 172.152508 178.213396 
L 172.373822 178.995463 
L 172.561765 179.786214 
L 172.716001 180.584225 
L 172.836251 181.388059 
L 172.922299 182.19627 
L 172.973989 183.007404 
L 172.99123 183.82 
L 172.973989 184.632596 
L 172.922299 185.44373 
L 172.836251 186.251941 
L 172.716001 187.055775 
L 172.561765 187.853786 
L 172.373822 188.644537 
L 172.152508 189.426604 
L 171.898222 190.198581 
L 171.611423 190.959078 
L 171.292626 191.706727 
L 170.942404 192.440181 
L 170.56139 193.15812 
L 170.150267 193.859253 
L 169.709776 194.542318 
L 169.24071 195.206085 
L 168.743912 195.84936 
L 168.220278 196.470984 
L 167.67075 197.06984 
L 167.096315 197.644848 
L 166.49801 198.194976 
L 165.876909 198.719231 
L 165.234132 199.216671 
L 164.570834 199.686401 
L 163.88821 200.127575 
L 163.187489 200.539399 
L 162.469931 200.921131 
L 161.736827 201.272086 
L 160.989498 201.59163 
L 160.229288 201.87919 
L 159.457566 202.134248 
L 158.67572 202.356343 
L 157.885157 202.545078 
L 157.087301 202.700111 
L 156.283588 202.821165 
L 155.475463 202.908021 
L 154.664381 202.960523 
L 153.851803 202.978576 
" style="fill:none;stroke:#008000;stroke-linecap:square;"/>
   </g>
   <g id="line2d_86">
    <path clip-path="url(#pd1f942ac83)" d="M 153.870942 145.52199 
L 155.495287 145.558078 
L 157.11664 145.663029 
L 158.732082 145.836654 
L 160.338707 146.078641 
L 161.933621 146.388553 
L 163.513956 146.765834 
L 165.076867 147.209803 
L 166.619541 147.719663 
L 168.139201 148.294495 
L 169.633113 148.933265 
L 171.098587 149.634824 
L 172.532986 150.397908 
L 173.93373 151.221144 
L 175.298295 152.103051 
L 176.624228 153.042041 
L 177.90914 154.036424 
L 179.150721 155.084411 
L 180.346734 156.184116 
L 181.495029 157.333559 
L 182.593537 158.530672 
L 183.640282 159.7733 
L 184.63338 161.059206 
L 185.571044 162.386077 
L 186.451585 163.751524 
L 187.27342 165.153089 
L 188.03507 166.588251 
L 188.735162 168.054426 
L 189.372438 169.548976 
L 189.94575 171.06921 
L 190.454067 172.612393 
L 190.896474 174.175747 
L 191.272174 175.756458 
L 191.580491 177.351682 
L 191.820871 178.958548 
L 191.99288 180.574163 
L 192.09621 182.19562 
L 192.130674 183.82 
L 192.09621 185.44438 
L 191.99288 187.065837 
L 191.820871 188.681452 
L 191.580491 190.288318 
L 191.272174 191.883542 
L 190.896474 193.464253 
L 190.454067 195.027607 
L 189.94575 196.57079 
L 189.372438 198.091024 
L 188.735162 199.585574 
L 188.03507 201.051749 
L 187.27342 202.486911 
L 186.451585 203.888476 
L 185.571044 205.253923 
L 184.63338 206.580794 
L 183.640282 207.8667 
L 182.593537 209.109328 
L 181.495029 210.306441 
L 180.346734 211.455884 
L 179.150721 212.555589 
L 177.90914 213.603576 
L 176.624228 214.597959 
L 175.298295 215.536949 
L 173.93373 216.418856 
L 172.532986 217.242092 
L 171.098587 218.005176 
L 169.633113 218.706735 
L 168.139201 219.345505 
L 166.619541 219.920337 
L 165.076867 220.430197 
L 163.513956 220.874166 
L 161.933621 221.251447 
L 160.338707 221.561359 
L 158.732082 221.803346 
L 157.11664 221.976971 
L 155.495287 222.081922 
L 153.870942 222.11801 
" style="fill:none;stroke:#008000;stroke-linecap:square;"/>
   </g>
   <g id="line2d_87">
    <path clip-path="url(#pd1f942ac83)" d="M 153.890082 126.382556 
L 156.326194 126.436679 
L 158.757817 126.594079 
L 161.180577 126.854474 
L 163.590112 127.217393 
L 165.982086 127.682184 
L 168.352193 128.24801 
L 170.696169 128.913854 
L 173.009794 129.678516 
L 175.288904 130.540621 
L 177.529398 131.498616 
L 179.727243 132.550779 
L 181.878484 133.695214 
L 183.979249 134.929862 
L 186.025756 136.252502 
L 188.014324 137.660753 
L 189.941372 139.152079 
L 191.803432 140.723798 
L 193.597153 142.37308 
L 195.319308 144.096958 
L 196.966796 145.892328 
L 198.536652 147.755959 
L 200.026051 149.684497 
L 201.432312 151.674472 
L 202.752904 153.722301 
L 203.985451 155.824299 
L 205.127735 157.976683 
L 206.177699 160.17558 
L 207.133453 162.417031 
L 207.993278 164.697002 
L 208.755627 167.01139 
L 209.419126 169.356031 
L 209.982582 171.726703 
L 210.444981 174.11914 
L 210.80549 176.529037 
L 211.063462 178.952056 
L 211.21843 181.383835 
L 211.270118 183.82 
L 211.21843 186.256165 
L 211.063462 188.687944 
L 210.80549 191.110963 
L 210.444981 193.52086 
L 209.982582 195.913297 
L 209.419126 198.283969 
L 208.755627 200.62861 
L 207.993278 202.942998 
L 207.133453 205.222969 
L 206.177699 207.46442 
L 205.127735 209.663317 
L 203.985451 211.815701 
L 202.752904 213.917699 
L 201.432312 215.965528 
L 200.026051 217.955503 
L 198.536652 219.884041 
L 196.966796 221.747672 
L 195.319308 223.543042 
L 193.597153 225.26692 
L 191.803432 226.916202 
L 189.941372 228.487921 
L 188.014324 229.979247 
L 186.025756 231.387498 
L 183.979249 232.710138 
L 181.878484 233.944786 
L 179.727243 235.089221 
L 177.529398 236.141384 
L 175.288904 237.099379 
L 173.009794 237.961484 
L 170.696169 238.726146 
L 168.352193 239.39199 
L 165.982086 239.957816 
L 163.590112 240.422607 
L 161.180577 240.785526 
L 158.757817 241.045921 
L 156.326194 241.203321 
L 153.890082 241.257444 
" style="fill:none;stroke:#008000;stroke-linecap:square;"/>
   </g>
   <g id="line2d_88">
    <path clip-path="url(#pd1f942ac83)" d="M 153.909221 107.243121 
L 157.1571 107.31528 
L 160.398994 107.52513 
L 163.629071 107.872293 
L 166.841517 108.356145 
L 170.03055 108.975815 
L 173.19043 109.730187 
L 176.31547 110.617905 
L 179.400046 111.637369 
L 182.438607 112.786746 
L 185.425684 114.063967 
L 188.3559 115.466733 
L 191.223982 116.99252 
L 194.024768 118.638581 
L 196.753217 120.401954 
L 199.40442 122.279464 
L 201.973603 124.267734 
L 204.456143 126.363185 
L 206.847572 128.562045 
L 209.143587 130.860356 
L 211.340054 133.253984 
L 213.433021 135.738618 
L 215.418721 138.309788 
L 217.29358 140.962867 
L 219.054223 143.693078 
L 220.697482 146.495509 
L 222.2204 149.365115 
L 223.620235 152.296733 
L 224.894468 155.285085 
L 226.040806 158.324794 
L 227.057186 161.410388 
L 227.941778 164.536314 
L 228.69299 167.696947 
L 229.309471 170.886598 
L 229.79011 174.099526 
L 230.134043 177.329948 
L 230.340651 180.572051 
L 230.409561 183.82 
L 230.340651 187.067949 
L 230.134043 190.310052 
L 229.79011 193.540474 
L 229.309471 196.753402 
L 228.69299 199.943053 
L 227.941778 203.103686 
L 227.057186 206.229612 
L 226.040806 209.315206 
L 224.894468 212.354915 
L 223.620235 215.343267 
L 222.2204 218.274885 
L 220.697482 221.144491 
L 219.054223 223.946922 
L 217.29358 226.677133 
L 215.418721 229.330212 
L 213.433021 231.901382 
L 211.340054 234.386016 
L 209.143587 236.779644 
L 206.847572 239.077955 
L 204.456143 241.276815 
L 201.973603 243.372266 
L 199.40442 245.360536 
L 196.753217 247.238046 
L 194.024768 249.001419 
L 191.223982 250.64748 
L 188.3559 252.173267 
L 185.425684 253.576033 
L 182.438607 254.853254 
L 179.400046 256.002631 
L 176.31547 257.022095 
L 173.19043 257.909813 
L 170.03055 258.664185 
L 166.841517 259.283855 
L 163.629071 259.767707 
L 160.398994 260.11487 
L 157.1571 260.32472 
L 153.909221 260.396879 
" style="fill:none;stroke:#008000;stroke-linecap:square;"/>
   </g>
   <g id="line2d_89">
    <path clip-path="url(#pd1f942ac83)" d="M 153.928361 88.103687 
L 157.988006 88.193881 
L 162.040172 88.45618 
L 166.077566 88.890112 
L 170.092922 89.494897 
L 174.079014 90.269446 
L 178.028666 91.212364 
L 181.934771 92.321955 
L 185.790299 93.596223 
L 189.58831 95.032872 
L 193.321969 96.629318 
L 196.984556 98.382688 
L 200.56948 100.289826 
L 204.070287 102.347299 
L 207.480678 104.551405 
L 210.794515 106.898176 
L 214.005834 109.383389 
L 217.108854 112.002572 
L 220.097991 114.751009 
L 222.967866 117.623755 
L 225.713313 120.615639 
L 228.329391 123.721277 
L 230.811392 126.935079 
L 233.154848 130.251261 
L 235.355542 133.663855 
L 237.409513 137.166718 
L 239.313065 140.753547 
L 241.062772 144.417886 
L 242.655484 148.153139 
L 244.088334 151.952585 
L 245.358745 155.809385 
L 246.46443 159.716598 
L 247.403398 163.667192 
L 248.173961 167.654055 
L 248.77473 171.670015 
L 249.204624 175.707841 
L 249.462871 179.760267 
L 249.549005 183.82 
L 249.462871 187.879733 
L 249.204624 191.932159 
L 248.77473 195.969985 
L 248.173961 199.985945 
L 247.403398 203.972808 
L 246.46443 207.923402 
L 245.358745 211.830615 
L 244.088334 215.687415 
L 242.655484 219.486861 
L 241.062772 223.222114 
L 239.313065 226.886453 
L 237.409513 230.473282 
L 235.355542 233.976145 
L 233.154848 237.388739 
L 230.811392 240.704921 
L 228.329391 243.918723 
L 225.713313 247.024361 
L 222.967866 250.016245 
L 220.097991 252.888991 
L 217.108854 255.637428 
L 214.005834 258.256611 
L 210.794515 260.741824 
L 207.480678 263.088595 
L 204.070287 265.292701 
L 200.56948 267.350174 
L 196.984556 269.257312 
L 193.321969 271.010682 
L 189.58831 272.607128 
L 185.790299 274.043777 
L 181.934771 275.318045 
L 178.028666 276.427636 
L 174.079014 277.370554 
L 170.092922 278.145103 
L 166.077566 278.749888 
L 162.040172 279.18382 
L 157.988006 279.446119 
L 153.928361 279.536313 
" style="fill:none;stroke:#008000;stroke-linecap:square;"/>
   </g>
   <g id="line2d_90">
    <path clip-path="url(#pd1f942ac83)" d="M 153.9475 68.964253 
L 158.818912 69.072482 
L 163.681349 69.38723 
L 168.52606 69.907932 
L 173.344327 70.633649 
L 178.127478 71.563076 
L 182.866903 72.694541 
L 187.554073 74.026006 
L 192.180552 75.555076 
L 196.738013 77.278998 
L 201.218254 79.19467 
L 205.613213 81.298643 
L 209.914977 83.587132 
L 214.115806 86.056018 
L 218.20814 88.700857 
L 222.184611 91.516888 
L 226.038065 94.499045 
L 229.761565 97.641959 
L 233.34841 100.939974 
L 236.792145 104.387154 
L 240.086572 107.977295 
L 243.225761 111.703937 
L 246.204062 115.56037 
L 249.016116 119.539656 
L 251.656861 123.634632 
L 254.121544 127.837928 
L 256.40573 132.141979 
L 258.505308 136.539039 
L 260.416499 141.021194 
L 262.135862 145.580377 
L 263.660305 150.208383 
L 264.987082 154.896882 
L 266.113807 159.637436 
L 267.03845 164.421513 
L 267.759349 169.240503 
L 268.275206 174.085733 
L 268.585092 178.948483 
L 268.688449 183.82 
L 268.585092 188.691517 
L 268.275206 193.554267 
L 267.759349 198.399497 
L 267.03845 203.218487 
L 266.113807 208.002564 
L 264.987082 212.743118 
L 263.660305 217.431617 
L 262.135862 222.059623 
L 260.416499 226.618806 
L 258.505308 231.100961 
L 256.40573 235.498021 
L 254.121544 239.802072 
L 251.656861 244.005368 
L 249.016116 248.100344 
L 246.204062 252.07963 
L 243.225761 255.936063 
L 240.086572 259.662705 
L 236.792145 263.252846 
L 233.34841 266.700026 
L 229.761565 269.998041 
L 226.038065 273.140955 
L 222.184611 276.123112 
L 218.20814 278.939143 
L 214.115806 281.583982 
L 209.914977 284.052868 
L 205.613213 286.341357 
L 201.218254 288.44533 
L 196.738013 290.361002 
L 192.180552 292.084924 
L 187.554073 293.613994 
L 182.866903 294.945459 
L 178.127478 296.076924 
L 173.344327 297.006351 
L 168.52606 297.732068 
L 163.681349 298.25277 
L 158.818912 298.567518 
L 153.9475 298.675747 
" style="fill:none;stroke:#008000;stroke-linecap:square;"/>
   </g>
   <g id="line2d_91">
    <path clip-path="url(#pd1f942ac83)" d="M 153.96664 49.824819 
L 159.649818 49.951083 
L 165.322526 50.31828 
L 170.974555 50.925751 
L 176.595733 51.772401 
L 182.175942 52.856707 
L 187.705139 54.176718 
L 193.173374 55.730057 
L 198.570804 57.513929 
L 203.887716 59.525123 
L 209.11454 61.760021 
L 214.241869 64.214598 
L 219.260475 66.884439 
L 224.161326 69.764736 
L 228.935601 72.850308 
L 233.574707 76.1356 
L 238.070296 79.6147 
L 242.414276 83.281345 
L 246.598829 87.128938 
L 250.616424 91.150553 
L 254.45983 95.338951 
L 258.12213 99.686596 
L 261.596733 104.185662 
L 264.877384 108.828051 
L 267.95818 113.605409 
L 270.833575 118.509138 
L 273.498396 123.530411 
L 275.947845 128.660192 
L 278.177514 133.889248 
L 280.183391 139.208169 
L 281.961864 144.60738 
L 283.509734 150.077165 
L 284.824215 155.60768 
L 285.90294 161.188971 
L 286.743969 166.810992 
L 287.345787 172.463626 
L 287.707312 178.136699 
L 287.827893 183.82 
L 287.707312 189.503301 
L 287.345787 195.176374 
L 286.743969 200.829008 
L 285.90294 206.451029 
L 284.824215 212.03232 
L 283.509734 217.562835 
L 281.961864 223.03262 
L 280.183391 228.431831 
L 278.177514 233.750752 
L 275.947845 238.979808 
L 273.498396 244.109589 
L 270.833575 249.130862 
L 267.95818 254.034591 
L 264.877384 258.811949 
L 261.596733 263.454338 
L 258.12213 267.953404 
L 254.45983 272.301049 
L 250.616424 276.489447 
L 246.598829 280.511062 
L 242.414276 284.358655 
L 238.070296 288.0253 
L 233.574707 291.5044 
L 228.935601 294.789692 
L 224.161326 297.875264 
L 219.260475 300.755561 
L 214.241869 303.425402 
L 209.11454 305.879979 
L 203.887716 308.114877 
L 198.570804 310.126071 
L 193.173374 311.909943 
L 187.705139 313.463282 
L 182.175942 314.783293 
L 176.595733 315.867599 
L 170.974555 316.714249 
L 165.322526 317.32172 
L 159.649818 317.688917 
L 153.96664 317.815181 
" style="fill:none;stroke:#008000;stroke-linecap:square;"/>
   </g>
   <g id="line2d_92">
    <path clip-path="url(#pd1f942ac83)" d="M 153.985779 30.685385 
L 160.480724 30.829684 
L 166.963703 31.249331 
L 173.42305 31.94357 
L 179.847138 32.911153 
L 186.224406 34.150338 
L 192.543376 35.658895 
L 198.792675 37.434108 
L 204.961057 39.472782 
L 211.037419 41.771249 
L 217.010825 44.325372 
L 222.870525 47.130553 
L 228.605973 50.181745 
L 234.206845 53.473455 
L 239.663062 56.99976 
L 244.964803 60.754312 
L 250.102527 64.730355 
L 255.066987 68.920732 
L 259.849248 73.317902 
L 264.440703 77.913951 
L 268.833089 82.700607 
L 273.0185 87.669255 
L 276.989403 92.810953 
L 280.738652 98.116446 
L 284.259498 103.576186 
L 287.545606 109.180347 
L 290.591061 114.918843 
L 293.390381 120.781345 
L 295.938529 126.757303 
L 298.230919 132.83596 
L 300.263424 139.006377 
L 302.032387 145.257449 
L 303.534623 151.577925 
L 304.76743 157.956429 
L 305.728589 164.381481 
L 306.416369 170.841519 
L 306.829532 177.324914 
L 306.967336 183.82 
L 306.829532 190.315086 
L 306.416369 196.798481 
L 305.728589 203.258519 
L 304.76743 209.683571 
L 303.534623 216.062075 
L 302.032387 222.382551 
L 300.263424 228.633623 
L 298.230919 234.80404 
L 295.938529 240.882697 
L 293.390381 246.858655 
L 290.591061 252.721157 
L 287.545606 258.459653 
L 284.259498 264.063814 
L 280.738652 269.523554 
L 276.989403 274.829047 
L 273.0185 279.970745 
L 268.833089 284.939393 
L 264.440703 289.726049 
L 259.849248 294.322098 
L 255.066987 298.719268 
L 250.102527 302.909645 
L 244.964803 306.885688 
L 239.663062 310.64024 
L 234.206845 314.166545 
L 228.605973 317.458255 
L 222.870525 320.509447 
L 217.010825 323.314628 
L 211.037419 325.868751 
L 204.961057 328.167218 
L 198.792675 330.205892 
L 192.543376 331.981105 
L 186.224406 333.489662 
L 179.847138 334.728847 
L 173.42305 335.69643 
L 166.963703 336.390669 
L 160.480724 336.810316 
L 153.985779 336.954615 
" style="fill:none;stroke:#008000;stroke-linecap:square;"/>
   </g>
   <g id="patch_3">
    <path d="M 153.832644 343.08 
L 153.832644 24.56 
" style="fill:none;stroke:#000000;stroke-linecap:square;stroke-linejoin:miter;stroke-width:0.8;"/>
   </g>
   <g id="patch_4">
    <path d="M 150.76997 183.82 
L 310.03003 183.82 
" style="fill:none;stroke:#000000;stroke-linecap:square;stroke-linejoin:miter;stroke-width:0.8;"/>
   </g>
  </g>
 </g>
 <defs>
  <clipPath id="pd1f942ac83">
   <rect height="318.52" width="159.26006" x="150.76997" y="24.56"/>
  </clipPath>
 </defs>
</svg>
