<?xml version="1.0" encoding="utf-8" standalone="no"?>
<!DOCTYPE svg PUBLIC "-//W3C//DTD SVG 1.1//EN"
  "http://www.w3.org/Graphics/SVG/1.1/DTD/svg11.dtd">
<svg xmlns:xlink="http://www.w3.org/1999/xlink" width="460.8pt" height="345.6pt" viewBox="0 0 460.8 345.6" xmlns="http://www.w3.org/2000/svg" version="1.1">
 <metadata>
  <rdf:RDF xmlns:dc="http://purl.org/dc/elements/1.1/" xmlns:cc="http://creativecommons.org/ns#" xmlns:rdf="http://www.w3.org/1999/02/22-rdf-syntax-ns#">
   <cc:Work>
    <dc:type rdf:resource="http://purl.org/dc/dcmitype/StillImage"/>
    <dc:date>2023-12-06T18:11:31.035100</dc:date>
    <dc:format>image/svg+xml</dc:format>
    <dc:creator>
     <cc:Agent>
      <dc:title>Matplotlib v3.8.0, https://matplotlib.org/</dc:title>
     </cc:Agent>
    </dc:creator>
   </cc:Work>
  </rdf:RDF>
 </metadata>
 <defs>
  <style type="text/css">*{stroke-linejoin: round; stroke-linecap: butt}</style>
 </defs>
 <g id="figure_1">
  <g id="patch_1">
   <path d="M 0 345.6 
L 460.8 345.6 
L 460.8 0 
L 0 0 
z
" style="fill: #ffffff"/>
  </g>
  <g id="axes_1">
   <g id="patch_2">
    <path d="M 40.12 328.52 
L 368.64 328.52 
L 368.64 0 
L 40.12 0 
z
" style="fill: #ffffff"/>
   </g>
   <g id="QuadContourSet_1">
    <path clip-path="url(#p4f8a3da266)"/>
    <path clip-path="url(#p4f8a3da266)" style="fill: #151515"/>
    <path d="M 186.830855 268.080357 
L 190.021608 268.563804 
L 193.212362 268.950562 
L 196.403116 269.240631 
L 199.593869 269.43401 
L 202.784623 269.530699 
L 205.975377 269.530699 
L 209.166131 269.43401 
L 212.356884 269.240631 
L 215.547638 268.950562 
L 218.738392 268.563804 
L 221.929145 268.080357 
L 222.593886 267.959495 
L 225.119899 267.485867 
L 228.310653 266.78789 
L 231.501406 265.990202 
L 234.69216 265.092802 
L 235.729155 264.768741 
L 237.882914 264.07398 
L 241.073667 262.941777 
L 244.264421 261.706647 
L 244.571224 261.577988 
L 247.455175 260.328276 
L 250.645929 258.839257 
L 251.549975 258.387234 
L 253.836682 257.204454 
L 257.027436 255.444039 
L 257.449742 255.19648 
L 260.21819 253.515637 
L 262.566939 252.005726 
L 263.408943 251.44439 
L 266.599697 249.199045 
L 267.118194 248.814973 
L 269.790451 246.759391 
L 271.195902 245.624219 
L 272.981204 244.124565 
L 274.902908 242.433465 
L 276.171958 241.27017 
L 278.287566 239.242712 
L 279.362712 238.167566 
L 281.39017 236.051958 
L 282.553465 234.782908 
L 284.244565 232.861204 
L 285.744219 231.075902 
L 286.879391 229.670451 
L 288.934973 226.998194 
L 289.319045 226.479697 
L 291.56439 223.288943 
L 292.125726 222.446939 
L 293.635637 220.09819 
L 295.31648 217.329742 
L 295.564039 216.907436 
L 297.324454 213.716682 
L 298.507234 211.429975 
L 298.959257 210.525929 
L 300.448276 207.335175 
L 301.697988 204.451224 
L 301.826647 204.144421 
L 303.061777 200.953667 
L 304.19398 197.762914 
L 304.888741 195.609155 
L 305.212802 194.57216 
L 306.110202 191.381406 
L 306.90789 188.190653 
L 307.605867 184.999899 
L 308.079495 182.473886 
L 308.200357 181.809145 
L 308.683804 178.618392 
L 309.070562 175.427638 
L 309.360631 172.236884 
L 309.55401 169.046131 
L 309.650699 165.855377 
L 309.650699 162.664623 
L 309.55401 159.473869 
L 309.360631 156.283116 
L 309.070562 153.092362 
L 308.683804 149.901608 
L 308.200357 146.710855 
L 308.079495 146.046114 
L 307.605867 143.520101 
L 306.90789 140.329347 
L 306.110202 137.138594 
L 305.212802 133.94784 
L 304.888741 132.910845 
L 304.19398 130.757086 
L 303.061777 127.566333 
L 301.826647 124.375579 
L 301.697988 124.068776 
L 300.448276 121.184825 
L 298.959257 117.994071 
L 298.507234 117.090025 
L 297.324454 114.803318 
L 295.564039 111.612564 
L 295.31648 111.190258 
L 293.635637 108.42181 
L 292.125726 106.073061 
L 291.56439 105.231057 
L 289.319045 102.040303 
L 288.934973 101.521806 
L 286.879391 98.849549 
L 285.744219 97.444098 
L 284.244565 95.658796 
L 282.553465 93.737092 
L 281.39017 92.468042 
L 279.362712 90.352434 
L 278.287566 89.277288 
L 276.171958 87.24983 
L 274.902908 86.086535 
L 272.981204 84.395435 
L 271.195902 82.895781 
L 269.790451 81.760609 
L 267.118194 79.705027 
L 266.599697 79.320955 
L 263.408943 77.07561 
L 262.566939 76.514274 
L 260.21819 75.004363 
L 257.449742 73.32352 
L 257.027436 73.075961 
L 253.836682 71.315546 
L 251.549975 70.132766 
L 250.645929 69.680743 
L 247.455175 68.191724 
L 244.571224 66.942012 
L 244.264421 66.813353 
L 241.073667 65.578223 
L 237.882914 64.44602 
L 235.729155 63.751259 
L 234.69216 63.427198 
L 231.501406 62.529798 
L 228.310653 61.73211 
L 225.119899 61.034133 
L 222.593886 60.560505 
L 221.929145 60.439643 
L 218.738392 59.956196 
L 215.547638 59.569438 
L 212.356884 59.279369 
L 209.166131 59.08599 
L 205.975377 58.989301 
L 202.784623 58.989301 
L 199.593869 59.08599 
L 196.403116 59.279369 
L 193.212362 59.569438 
L 190.021608 59.956196 
L 186.830855 60.439643 
L 186.166114 60.560505 
L 183.640101 61.034133 
L 180.449347 61.73211 
L 177.258594 62.529798 
L 174.06784 63.427198 
L 173.030845 63.751259 
L 170.877086 64.44602 
L 167.686333 65.578223 
L 164.495579 66.813353 
L 164.188776 66.942012 
L 161.304825 68.191724 
L 158.114071 69.680743 
L 157.210025 70.132766 
L 154.923318 71.315546 
L 151.732564 73.075961 
L 151.310258 73.32352 
L 148.54181 75.004363 
L 146.193061 76.514274 
L 145.351057 77.07561 
L 142.160303 79.320955 
L 141.641806 79.705027 
L 138.969549 81.760609 
L 137.564098 82.895781 
L 135.778796 84.395435 
L 133.857092 86.086535 
L 132.588042 87.24983 
L 130.472434 89.277288 
L 129.397288 90.352434 
L 127.36983 92.468042 
L 126.206535 93.737092 
L 124.515435 95.658796 
L 123.015781 97.444098 
L 121.880609 98.849549 
L 119.825027 101.521806 
L 119.440955 102.040303 
L 117.19561 105.231057 
L 116.634274 106.073061 
L 115.124363 108.42181 
L 113.44352 111.190258 
L 113.195961 111.612564 
L 111.435546 114.803318 
L 110.252766 117.090025 
L 109.800743 117.994071 
L 108.311724 121.184825 
L 107.062012 124.068776 
L 106.933353 124.375579 
L 105.698223 127.566333 
L 104.56602 130.757086 
L 103.871259 132.910845 
L 103.547198 133.94784 
L 102.649798 137.138594 
L 101.85211 140.329347 
L 101.154133 143.520101 
L 100.680505 146.046114 
L 100.559643 146.710855 
L 100.076196 149.901608 
L 99.689438 153.092362 
L 99.399369 156.283116 
L 99.20599 159.473869 
L 99.109301 162.664623 
L 99.109301 165.855377 
L 99.20599 169.046131 
L 99.399369 172.236884 
L 99.689438 175.427638 
L 100.076196 178.618392 
L 100.559643 181.809145 
L 100.680505 182.473886 
L 101.154133 184.999899 
L 101.85211 188.190653 
L 102.649798 191.381406 
L 103.547198 194.57216 
L 103.871259 195.609155 
L 104.56602 197.762914 
L 105.698223 200.953667 
L 106.933353 204.144421 
L 107.062012 204.451224 
L 108.311724 207.335175 
L 109.800743 210.525929 
L 110.252766 211.429975 
L 111.435546 213.716682 
L 113.195961 216.907436 
L 113.44352 217.329742 
L 115.124363 220.09819 
L 116.634274 222.446939 
L 117.19561 223.288943 
L 119.440955 226.479697 
L 119.825027 226.998194 
L 121.880609 229.670451 
L 123.015781 231.075902 
L 124.515435 232.861204 
L 126.206535 234.782908 
L 127.36983 236.051958 
L 129.397288 238.167566 
L 130.472434 239.242712 
L 132.588042 241.27017 
L 133.857092 242.433465 
L 135.778796 244.124565 
L 137.564098 245.624219 
L 138.969549 246.759391 
L 141.641806 248.814973 
L 142.160303 249.199045 
L 145.351057 251.44439 
L 146.193061 252.005726 
L 148.54181 253.515637 
L 151.310258 255.19648 
L 151.732564 255.444039 
L 154.923318 257.204454 
L 157.210025 258.387234 
L 158.114071 258.839257 
L 161.304825 260.328276 
L 164.188776 261.577988 
L 164.495579 261.706647 
L 167.686333 262.941777 
L 170.877086 264.07398 
L 173.030845 264.768741 
L 174.06784 265.092802 
L 177.258594 265.990202 
L 180.449347 266.78789 
L 183.640101 267.485867 
L 186.166114 267.959495 
z
" clip-path="url(#p4f8a3da266)" style="fill: #959595"/>
    <path d="M 49.628446 322.202308 
L 52.8192 322.202308 
L 56.009953 322.202308 
L 59.200707 322.202308 
L 62.391461 322.202308 
L 65.582214 322.202308 
L 68.772968 322.202308 
L 71.963722 322.202308 
L 75.154476 322.202308 
L 78.345229 322.202308 
L 81.535983 322.202308 
L 84.726737 322.202308 
L 87.91749 322.202308 
L 91.108244 322.202308 
L 94.298998 322.202308 
L 97.489751 322.202308 
L 100.680505 322.202308 
L 103.871259 322.202308 
L 107.062012 322.202308 
L 110.252766 322.202308 
L 113.44352 322.202308 
L 116.634274 322.202308 
L 119.825027 322.202308 
L 123.015781 322.202308 
L 126.206535 322.202308 
L 129.397288 322.202308 
L 132.588042 322.202308 
L 135.778796 322.202308 
L 138.969549 322.202308 
L 142.160303 322.202308 
L 145.351057 322.202308 
L 148.54181 322.202308 
L 151.732564 322.202308 
L 154.923318 322.202308 
L 158.114071 322.202308 
L 161.304825 322.202308 
L 164.495579 322.202308 
L 167.686333 322.202308 
L 170.877086 322.202308 
L 174.06784 322.202308 
L 177.258594 322.202308 
L 180.449347 322.202308 
L 183.640101 322.202308 
L 186.830855 322.202308 
L 190.021608 322.202308 
L 193.212362 322.202308 
L 196.403116 322.202308 
L 199.593869 322.202308 
L 202.784623 322.202308 
L 205.975377 322.202308 
L 209.166131 322.202308 
L 212.356884 322.202308 
L 215.547638 322.202308 
L 218.738392 322.202308 
L 221.929145 322.202308 
L 225.119899 322.202308 
L 228.310653 322.202308 
L 231.501406 322.202308 
L 234.69216 322.202308 
L 237.882914 322.202308 
L 241.073667 322.202308 
L 244.264421 322.202308 
L 247.455175 322.202308 
L 250.645929 322.202308 
L 253.836682 322.202308 
L 257.027436 322.202308 
L 260.21819 322.202308 
L 263.408943 322.202308 
L 266.599697 322.202308 
L 269.790451 322.202308 
L 272.981204 322.202308 
L 276.171958 322.202308 
L 279.362712 322.202308 
L 282.553465 322.202308 
L 285.744219 322.202308 
L 288.934973 322.202308 
L 292.125726 322.202308 
L 295.31648 322.202308 
L 298.507234 322.202308 
L 301.697988 322.202308 
L 304.888741 322.202308 
L 308.079495 322.202308 
L 311.270249 322.202308 
L 314.461002 322.202308 
L 317.651756 322.202308 
L 320.84251 322.202308 
L 324.033263 322.202308 
L 327.224017 322.202308 
L 330.414771 322.202308 
L 333.605524 322.202308 
L 336.796278 322.202308 
L 339.987032 322.202308 
L 343.177786 322.202308 
L 346.368539 322.202308 
L 349.559293 322.202308 
L 352.750047 322.202308 
L 355.9408 322.202308 
L 359.131554 322.202308 
L 362.322308 322.202308 
L 362.322308 319.011554 
L 362.322308 315.8208 
L 362.322308 312.630047 
L 362.322308 309.439293 
L 362.322308 306.248539 
L 362.322308 303.057786 
L 362.322308 299.867032 
L 362.322308 296.676278 
L 362.322308 293.485524 
L 362.322308 290.294771 
L 362.322308 287.104017 
L 362.322308 283.913263 
L 362.322308 280.72251 
L 362.322308 277.531756 
L 362.322308 274.341002 
L 362.322308 271.150249 
L 362.322308 267.959495 
L 362.322308 264.768741 
L 362.322308 261.577988 
L 362.322308 258.387234 
L 362.322308 255.19648 
L 362.322308 252.005726 
L 362.322308 248.814973 
L 362.322308 245.624219 
L 362.322308 242.433465 
L 362.322308 239.242712 
L 362.322308 236.051958 
L 362.322308 232.861204 
L 362.322308 229.670451 
L 362.322308 226.479697 
L 362.322308 223.288943 
L 362.322308 220.09819 
L 362.322308 216.907436 
L 362.322308 213.716682 
L 362.322308 210.525929 
L 362.322308 207.335175 
L 362.322308 204.144421 
L 362.322308 200.953667 
L 362.322308 197.762914 
L 362.322308 194.57216 
L 362.322308 191.381406 
L 362.322308 188.190653 
L 362.322308 184.999899 
L 362.322308 181.809145 
L 362.322308 178.618392 
L 362.322308 175.427638 
L 362.322308 172.236884 
L 362.322308 169.046131 
L 362.322308 165.855377 
L 362.322308 162.664623 
L 362.322308 159.473869 
L 362.322308 156.283116 
L 362.322308 153.092362 
L 362.322308 149.901608 
L 362.322308 146.710855 
L 362.322308 143.520101 
L 362.322308 140.329347 
L 362.322308 137.138594 
L 362.322308 133.94784 
L 362.322308 130.757086 
L 362.322308 127.566333 
L 362.322308 124.375579 
L 362.322308 121.184825 
L 362.322308 117.994071 
L 362.322308 114.803318 
L 362.322308 111.612564 
L 362.322308 108.42181 
L 362.322308 105.231057 
L 362.322308 102.040303 
L 362.322308 98.849549 
L 362.322308 95.658796 
L 362.322308 92.468042 
L 362.322308 89.277288 
L 362.322308 86.086535 
L 362.322308 82.895781 
L 362.322308 79.705027 
L 362.322308 76.514274 
L 362.322308 73.32352 
L 362.322308 70.132766 
L 362.322308 66.942012 
L 362.322308 63.751259 
L 362.322308 60.560505 
L 362.322308 57.369751 
L 362.322308 54.178998 
L 362.322308 50.988244 
L 362.322308 47.79749 
L 362.322308 44.606737 
L 362.322308 41.415983 
L 362.322308 38.225229 
L 362.322308 35.034476 
L 362.322308 31.843722 
L 362.322308 28.652968 
L 362.322308 25.462214 
L 362.322308 22.271461 
L 362.322308 19.080707 
L 362.322308 15.889953 
L 362.322308 12.6992 
L 362.322308 9.508446 
L 362.322308 6.317692 
L 359.131554 6.317692 
L 355.9408 6.317692 
L 352.750047 6.317692 
L 349.559293 6.317692 
L 346.368539 6.317692 
L 343.177786 6.317692 
L 339.987032 6.317692 
L 336.796278 6.317692 
L 333.605524 6.317692 
L 330.414771 6.317692 
L 327.224017 6.317692 
L 324.033263 6.317692 
L 320.84251 6.317692 
L 317.651756 6.317692 
L 314.461002 6.317692 
L 311.270249 6.317692 
L 308.079495 6.317692 
L 304.888741 6.317692 
L 301.697988 6.317692 
L 298.507234 6.317692 
L 295.31648 6.317692 
L 292.125726 6.317692 
L 288.934973 6.317692 
L 285.744219 6.317692 
L 282.553465 6.317692 
L 279.362712 6.317692 
L 276.171958 6.317692 
L 272.981204 6.317692 
L 269.790451 6.317692 
L 266.599697 6.317692 
L 263.408943 6.317692 
L 260.21819 6.317692 
L 257.027436 6.317692 
L 253.836682 6.317692 
L 250.645929 6.317692 
L 247.455175 6.317692 
L 244.264421 6.317692 
L 241.073667 6.317692 
L 237.882914 6.317692 
L 234.69216 6.317692 
L 231.501406 6.317692 
L 228.310653 6.317692 
L 225.119899 6.317692 
L 221.929145 6.317692 
L 218.738392 6.317692 
L 215.547638 6.317692 
L 212.356884 6.317692 
L 209.166131 6.317692 
L 205.975377 6.317692 
L 202.784623 6.317692 
L 199.593869 6.317692 
L 196.403116 6.317692 
L 193.212362 6.317692 
L 190.021608 6.317692 
L 186.830855 6.317692 
L 183.640101 6.317692 
L 180.449347 6.317692 
L 177.258594 6.317692 
L 174.06784 6.317692 
L 170.877086 6.317692 
L 167.686333 6.317692 
L 164.495579 6.317692 
L 161.304825 6.317692 
L 158.114071 6.317692 
L 154.923318 6.317692 
L 151.732564 6.317692 
L 148.54181 6.317692 
L 145.351057 6.317692 
L 142.160303 6.317692 
L 138.969549 6.317692 
L 135.778796 6.317692 
L 132.588042 6.317692 
L 129.397288 6.317692 
L 126.206535 6.317692 
L 123.015781 6.317692 
L 119.825027 6.317692 
L 116.634274 6.317692 
L 113.44352 6.317692 
L 110.252766 6.317692 
L 107.062012 6.317692 
L 103.871259 6.317692 
L 100.680505 6.317692 
L 97.489751 6.317692 
L 94.298998 6.317692 
L 91.108244 6.317692 
L 87.91749 6.317692 
L 84.726737 6.317692 
L 81.535983 6.317692 
L 78.345229 6.317692 
L 75.154476 6.317692 
L 71.963722 6.317692 
L 68.772968 6.317692 
L 65.582214 6.317692 
L 62.391461 6.317692 
L 59.200707 6.317692 
L 56.009953 6.317692 
L 52.8192 6.317692 
L 49.628446 6.317692 
L 46.437692 6.317692 
L 46.437692 9.508446 
L 46.437692 12.6992 
L 46.437692 15.889953 
L 46.437692 19.080707 
L 46.437692 22.271461 
L 46.437692 25.462214 
L 46.437692 28.652968 
L 46.437692 31.843722 
L 46.437692 35.034476 
L 46.437692 38.225229 
L 46.437692 41.415983 
L 46.437692 44.606737 
L 46.437692 47.79749 
L 46.437692 50.988244 
L 46.437692 54.178998 
L 46.437692 57.369751 
L 46.437692 60.560505 
L 46.437692 63.751259 
L 46.437692 66.942012 
L 46.437692 70.132766 
L 46.437692 73.32352 
L 46.437692 76.514274 
L 46.437692 79.705027 
L 46.437692 82.895781 
L 46.437692 86.086535 
L 46.437692 89.277288 
L 46.437692 92.468042 
L 46.437692 95.658796 
L 46.437692 98.849549 
L 46.437692 102.040303 
L 46.437692 105.231057 
L 46.437692 108.42181 
L 46.437692 111.612564 
L 46.437692 114.803318 
L 46.437692 117.994071 
L 46.437692 121.184825 
L 46.437692 124.375579 
L 46.437692 127.566333 
L 46.437692 130.757086 
L 46.437692 133.94784 
L 46.437692 137.138594 
L 46.437692 140.329347 
L 46.437692 143.520101 
L 46.437692 146.710855 
L 46.437692 149.901608 
L 46.437692 153.092362 
L 46.437692 156.283116 
L 46.437692 159.473869 
L 46.437692 162.664623 
L 46.437692 165.855377 
L 46.437692 169.046131 
L 46.437692 172.236884 
L 46.437692 175.427638 
L 46.437692 178.618392 
L 46.437692 181.809145 
L 46.437692 184.999899 
L 46.437692 188.190653 
L 46.437692 191.381406 
L 46.437692 194.57216 
L 46.437692 197.762914 
L 46.437692 200.953667 
L 46.437692 204.144421 
L 46.437692 207.335175 
L 46.437692 210.525929 
L 46.437692 213.716682 
L 46.437692 216.907436 
L 46.437692 220.09819 
L 46.437692 223.288943 
L 46.437692 226.479697 
L 46.437692 229.670451 
L 46.437692 232.861204 
L 46.437692 236.051958 
L 46.437692 239.242712 
L 46.437692 242.433465 
L 46.437692 245.624219 
L 46.437692 248.814973 
L 46.437692 252.005726 
L 46.437692 255.19648 
L 46.437692 258.387234 
L 46.437692 261.577988 
L 46.437692 264.768741 
L 46.437692 267.959495 
L 46.437692 271.150249 
L 46.437692 274.341002 
L 46.437692 277.531756 
L 46.437692 280.72251 
L 46.437692 283.913263 
L 46.437692 287.104017 
L 46.437692 290.294771 
L 46.437692 293.485524 
L 46.437692 296.676278 
L 46.437692 299.867032 
L 46.437692 303.057786 
L 46.437692 306.248539 
L 46.437692 309.439293 
L 46.437692 312.630047 
L 46.437692 315.8208 
L 46.437692 319.011554 
L 46.437692 322.202308 
z
M 186.166114 267.959495 
L 183.640101 267.485867 
L 180.449347 266.78789 
L 177.258594 265.990202 
L 174.06784 265.092802 
L 173.030845 264.768741 
L 170.877086 264.07398 
L 167.686333 262.941777 
L 164.495579 261.706647 
L 164.188776 261.577988 
L 161.304825 260.328276 
L 158.114071 258.839257 
L 157.210025 258.387234 
L 154.923318 257.204454 
L 151.732564 255.444039 
L 151.310258 255.19648 
L 148.54181 253.515637 
L 146.193061 252.005726 
L 145.351057 251.44439 
L 142.160303 249.199045 
L 141.641806 248.814973 
L 138.969549 246.759391 
L 137.564098 245.624219 
L 135.778796 244.124565 
L 133.857092 242.433465 
L 132.588042 241.27017 
L 130.472434 239.242712 
L 129.397288 238.167566 
L 127.36983 236.051958 
L 126.206535 234.782908 
L 124.515435 232.861204 
L 123.015781 231.075902 
L 121.880609 229.670451 
L 119.825027 226.998194 
L 119.440955 226.479697 
L 117.19561 223.288943 
L 116.634274 222.446939 
L 115.124363 220.09819 
L 113.44352 217.329742 
L 113.195961 216.907436 
L 111.435546 213.716682 
L 110.252766 211.429975 
L 109.800743 210.525929 
L 108.311724 207.335175 
L 107.062012 204.451224 
L 106.933353 204.144421 
L 105.698223 200.953667 
L 104.56602 197.762914 
L 103.871259 195.609155 
L 103.547198 194.57216 
L 102.649798 191.381406 
L 101.85211 188.190653 
L 101.154133 184.999899 
L 100.680505 182.473886 
L 100.559643 181.809145 
L 100.076196 178.618392 
L 99.689438 175.427638 
L 99.399369 172.236884 
L 99.20599 169.046131 
L 99.109301 165.855377 
L 99.109301 162.664623 
L 99.20599 159.473869 
L 99.399369 156.283116 
L 99.689438 153.092362 
L 100.076196 149.901608 
L 100.559643 146.710855 
L 100.680505 146.046114 
L 101.154133 143.520101 
L 101.85211 140.329347 
L 102.649798 137.138594 
L 103.547198 133.94784 
L 103.871259 132.910845 
L 104.56602 130.757086 
L 105.698223 127.566333 
L 106.933353 124.375579 
L 107.062012 124.068776 
L 108.311724 121.184825 
L 109.800743 117.994071 
L 110.252766 117.090025 
L 111.435546 114.803318 
L 113.195961 111.612564 
L 113.44352 111.190258 
L 115.124363 108.42181 
L 116.634274 106.073061 
L 117.19561 105.231057 
L 119.440955 102.040303 
L 119.825027 101.521806 
L 121.880609 98.849549 
L 123.015781 97.444098 
L 124.515435 95.658796 
L 126.206535 93.737092 
L 127.36983 92.468042 
L 129.397288 90.352434 
L 130.472434 89.277288 
L 132.588042 87.24983 
L 133.857092 86.086535 
L 135.778796 84.395435 
L 137.564098 82.895781 
L 138.969549 81.760609 
L 141.641806 79.705027 
L 142.160303 79.320955 
L 145.351057 77.07561 
L 146.193061 76.514274 
L 148.54181 75.004363 
L 151.310258 73.32352 
L 151.732564 73.075961 
L 154.923318 71.315546 
L 157.210025 70.132766 
L 158.114071 69.680743 
L 161.304825 68.191724 
L 164.188776 66.942012 
L 164.495579 66.813353 
L 167.686333 65.578223 
L 170.877086 64.44602 
L 173.030845 63.751259 
L 174.06784 63.427198 
L 177.258594 62.529798 
L 180.449347 61.73211 
L 183.640101 61.034133 
L 186.166114 60.560505 
L 186.830855 60.439643 
L 190.021608 59.956196 
L 193.212362 59.569438 
L 196.403116 59.279369 
L 199.593869 59.08599 
L 202.784623 58.989301 
L 205.975377 58.989301 
L 209.166131 59.08599 
L 212.356884 59.279369 
L 215.547638 59.569438 
L 218.738392 59.956196 
L 221.929145 60.439643 
L 222.593886 60.560505 
L 225.119899 61.034133 
L 228.310653 61.73211 
L 231.501406 62.529798 
L 234.69216 63.427198 
L 235.729155 63.751259 
L 237.882914 64.44602 
L 241.073667 65.578223 
L 244.264421 66.813353 
L 244.571224 66.942012 
L 247.455175 68.191724 
L 250.645929 69.680743 
L 251.549975 70.132766 
L 253.836682 71.315546 
L 257.027436 73.075961 
L 257.449742 73.32352 
L 260.21819 75.004363 
L 262.566939 76.514274 
L 263.408943 77.07561 
L 266.599697 79.320955 
L 267.118194 79.705027 
L 269.790451 81.760609 
L 271.195902 82.895781 
L 272.981204 84.395435 
L 274.902908 86.086535 
L 276.171958 87.24983 
L 278.287566 89.277288 
L 279.362712 90.352434 
L 281.39017 92.468042 
L 282.553465 93.737092 
L 284.244565 95.658796 
L 285.744219 97.444098 
L 286.879391 98.849549 
L 288.934973 101.521806 
L 289.319045 102.040303 
L 291.56439 105.231057 
L 292.125726 106.073061 
L 293.635637 108.42181 
L 295.31648 111.190258 
L 295.564039 111.612564 
L 297.324454 114.803318 
L 298.507234 117.090025 
L 298.959257 117.994071 
L 300.448276 121.184825 
L 301.697988 124.068776 
L 301.826647 124.375579 
L 303.061777 127.566333 
L 304.19398 130.757086 
L 304.888741 132.910845 
L 305.212802 133.94784 
L 306.110202 137.138594 
L 306.90789 140.329347 
L 307.605867 143.520101 
L 308.079495 146.046114 
L 308.200357 146.710855 
L 308.683804 149.901608 
L 309.070562 153.092362 
L 309.360631 156.283116 
L 309.55401 159.473869 
L 309.650699 162.664623 
L 309.650699 165.855377 
L 309.55401 169.046131 
L 309.360631 172.236884 
L 309.070562 175.427638 
L 308.683804 178.618392 
L 308.200357 181.809145 
L 308.079495 182.473886 
L 307.605867 184.999899 
L 306.90789 188.190653 
L 306.110202 191.381406 
L 305.212802 194.57216 
L 304.888741 195.609155 
L 304.19398 197.762914 
L 303.061777 200.953667 
L 301.826647 204.144421 
L 301.697988 204.451224 
L 300.448276 207.335175 
L 298.959257 210.525929 
L 298.507234 211.429975 
L 297.324454 213.716682 
L 295.564039 216.907436 
L 295.31648 217.329742 
L 293.635637 220.09819 
L 292.125726 222.446939 
L 291.56439 223.288943 
L 289.319045 226.479697 
L 288.934973 226.998194 
L 286.879391 229.670451 
L 285.744219 231.075902 
L 284.244565 232.861204 
L 282.553465 234.782908 
L 281.39017 236.051958 
L 279.362712 238.167566 
L 278.287566 239.242712 
L 276.171958 241.27017 
L 274.902908 242.433465 
L 272.981204 244.124565 
L 271.195902 245.624219 
L 269.790451 246.759391 
L 267.118194 248.814973 
L 266.599697 249.199045 
L 263.408943 251.44439 
L 262.566939 252.005726 
L 260.21819 253.515637 
L 257.449742 255.19648 
L 257.027436 255.444039 
L 253.836682 257.204454 
L 251.549975 258.387234 
L 250.645929 258.839257 
L 247.455175 260.328276 
L 244.571224 261.577988 
L 244.264421 261.706647 
L 241.073667 262.941777 
L 237.882914 264.07398 
L 235.729155 264.768741 
L 234.69216 265.092802 
L 231.501406 265.990202 
L 228.310653 266.78789 
L 225.119899 267.485867 
L 222.593886 267.959495 
L 221.929145 268.080357 
L 218.738392 268.563804 
L 215.547638 268.950562 
L 212.356884 269.240631 
L 209.166131 269.43401 
L 205.975377 269.530699 
L 202.784623 269.530699 
L 199.593869 269.43401 
L 196.403116 269.240631 
L 193.212362 268.950562 
L 190.021608 268.563804 
L 186.830855 268.080357 
z
" clip-path="url(#p4f8a3da266)" style="fill: #ffffff"/>
   </g>
   <g id="matplotlib.axis_1">
    <g id="xtick_1">
     <g id="line2d_1">
      <defs>
       <path id="mc82f9dd8b3" d="M 0 0 
L 0 3.5 
" style="stroke: #000000; stroke-width: 0.8"/>
      </defs>
      <g>
       <use xlink:href="#mc82f9dd8b3" x="46.437692" y="328.52" style="stroke: #000000; stroke-width: 0.8"/>
      </g>
     </g>
     <g id="text_1">
      <!-- −3 -->
      <g transform="translate(39.066599 343.118437) scale(0.1 -0.1)">
       <defs>
        <path id="DejaVuSans-2212" d="M 678 2272 
L 4684 2272 
L 4684 1741 
L 678 1741 
L 678 2272 
z
" transform="scale(0.015625)"/>
        <path id="DejaVuSans-33" d="M 2597 2516 
Q 3050 2419 3304 2112 
Q 3559 1806 3559 1356 
Q 3559 666 3084 287 
Q 2609 -91 1734 -91 
Q 1441 -91 1130 -33 
Q 819 25 488 141 
L 488 750 
Q 750 597 1062 519 
Q 1375 441 1716 441 
Q 2309 441 2620 675 
Q 2931 909 2931 1356 
Q 2931 1769 2642 2001 
Q 2353 2234 1838 2234 
L 1294 2234 
L 1294 2753 
L 1863 2753 
Q 2328 2753 2575 2939 
Q 2822 3125 2822 3475 
Q 2822 3834 2567 4026 
Q 2313 4219 1838 4219 
Q 1578 4219 1281 4162 
Q 984 4106 628 3988 
L 628 4550 
Q 988 4650 1302 4700 
Q 1616 4750 1894 4750 
Q 2613 4750 3031 4423 
Q 3450 4097 3450 3541 
Q 3450 3153 3228 2886 
Q 3006 2619 2597 2516 
z
" transform="scale(0.015625)"/>
       </defs>
       <use xlink:href="#DejaVuSans-2212"/>
       <use xlink:href="#DejaVuSans-33" x="83.789062"/>
      </g>
     </g>
    </g>
    <g id="xtick_2">
     <g id="line2d_2">
      <g>
       <use xlink:href="#mc82f9dd8b3" x="99.085128" y="328.52" style="stroke: #000000; stroke-width: 0.8"/>
      </g>
     </g>
     <g id="text_2">
      <!-- −2 -->
      <g transform="translate(91.714034 343.118437) scale(0.1 -0.1)">
       <defs>
        <path id="DejaVuSans-32" d="M 1228 531 
L 3431 531 
L 3431 0 
L 469 0 
L 469 531 
Q 828 903 1448 1529 
Q 2069 2156 2228 2338 
Q 2531 2678 2651 2914 
Q 2772 3150 2772 3378 
Q 2772 3750 2511 3984 
Q 2250 4219 1831 4219 
Q 1534 4219 1204 4116 
Q 875 4013 500 3803 
L 500 4441 
Q 881 4594 1212 4672 
Q 1544 4750 1819 4750 
Q 2544 4750 2975 4387 
Q 3406 4025 3406 3419 
Q 3406 3131 3298 2873 
Q 3191 2616 2906 2266 
Q 2828 2175 2409 1742 
Q 1991 1309 1228 531 
z
" transform="scale(0.015625)"/>
       </defs>
       <use xlink:href="#DejaVuSans-2212"/>
       <use xlink:href="#DejaVuSans-32" x="83.789062"/>
      </g>
     </g>
    </g>
    <g id="xtick_3">
     <g id="line2d_3">
      <g>
       <use xlink:href="#mc82f9dd8b3" x="151.732564" y="328.52" style="stroke: #000000; stroke-width: 0.8"/>
      </g>
     </g>
     <g id="text_3">
      <!-- −1 -->
      <g transform="translate(144.36147 343.118437) scale(0.1 -0.1)">
       <defs>
        <path id="DejaVuSans-31" d="M 794 531 
L 1825 531 
L 1825 4091 
L 703 3866 
L 703 4441 
L 1819 4666 
L 2450 4666 
L 2450 531 
L 3481 531 
L 3481 0 
L 794 0 
L 794 531 
z
" transform="scale(0.015625)"/>
       </defs>
       <use xlink:href="#DejaVuSans-2212"/>
       <use xlink:href="#DejaVuSans-31" x="83.789062"/>
      </g>
     </g>
    </g>
    <g id="xtick_4">
     <g id="line2d_4">
      <g>
       <use xlink:href="#mc82f9dd8b3" x="204.38" y="328.52" style="stroke: #000000; stroke-width: 0.8"/>
      </g>
     </g>
     <g id="text_4">
      <!-- 0 -->
      <g transform="translate(201.19875 343.118437) scale(0.1 -0.1)">
       <defs>
        <path id="DejaVuSans-30" d="M 2034 4250 
Q 1547 4250 1301 3770 
Q 1056 3291 1056 2328 
Q 1056 1369 1301 889 
Q 1547 409 2034 409 
Q 2525 409 2770 889 
Q 3016 1369 3016 2328 
Q 3016 3291 2770 3770 
Q 2525 4250 2034 4250 
z
M 2034 4750 
Q 2819 4750 3233 4129 
Q 3647 3509 3647 2328 
Q 3647 1150 3233 529 
Q 2819 -91 2034 -91 
Q 1250 -91 836 529 
Q 422 1150 422 2328 
Q 422 3509 836 4129 
Q 1250 4750 2034 4750 
z
" transform="scale(0.015625)"/>
       </defs>
       <use xlink:href="#DejaVuSans-30"/>
      </g>
     </g>
    </g>
    <g id="xtick_5">
     <g id="line2d_5">
      <g>
       <use xlink:href="#mc82f9dd8b3" x="257.027436" y="328.52" style="stroke: #000000; stroke-width: 0.8"/>
      </g>
     </g>
     <g id="text_5">
      <!-- 1 -->
      <g transform="translate(253.846186 343.118437) scale(0.1 -0.1)">
       <use xlink:href="#DejaVuSans-31"/>
      </g>
     </g>
    </g>
    <g id="xtick_6">
     <g id="line2d_6">
      <g>
       <use xlink:href="#mc82f9dd8b3" x="309.674872" y="328.52" style="stroke: #000000; stroke-width: 0.8"/>
      </g>
     </g>
     <g id="text_6">
      <!-- 2 -->
      <g transform="translate(306.493622 343.118437) scale(0.1 -0.1)">
       <use xlink:href="#DejaVuSans-32"/>
      </g>
     </g>
    </g>
    <g id="xtick_7">
     <g id="line2d_7">
      <g>
       <use xlink:href="#mc82f9dd8b3" x="362.322308" y="328.52" style="stroke: #000000; stroke-width: 0.8"/>
      </g>
     </g>
     <g id="text_7">
      <!-- 3 -->
      <g transform="translate(359.141058 343.118437) scale(0.1 -0.1)">
       <use xlink:href="#DejaVuSans-33"/>
      </g>
     </g>
    </g>
    <g id="xtick_8">
     <g id="line2d_8">
      <defs>
       <path id="m2a1b59edc8" d="M 0 0 
L 0 2 
" style="stroke: #000000; stroke-width: 0.6"/>
      </defs>
      <g>
       <use xlink:href="#m2a1b59edc8" x="56.967179" y="328.52" style="stroke: #000000; stroke-width: 0.6"/>
      </g>
     </g>
    </g>
    <g id="xtick_9">
     <g id="line2d_9">
      <g>
       <use xlink:href="#m2a1b59edc8" x="67.496667" y="328.52" style="stroke: #000000; stroke-width: 0.6"/>
      </g>
     </g>
    </g>
    <g id="xtick_10">
     <g id="line2d_10">
      <g>
       <use xlink:href="#m2a1b59edc8" x="78.026154" y="328.52" style="stroke: #000000; stroke-width: 0.6"/>
      </g>
     </g>
    </g>
    <g id="xtick_11">
     <g id="line2d_11">
      <g>
       <use xlink:href="#m2a1b59edc8" x="88.555641" y="328.52" style="stroke: #000000; stroke-width: 0.6"/>
      </g>
     </g>
    </g>
    <g id="xtick_12">
     <g id="line2d_12">
      <g>
       <use xlink:href="#m2a1b59edc8" x="109.614615" y="328.52" style="stroke: #000000; stroke-width: 0.6"/>
      </g>
     </g>
    </g>
    <g id="xtick_13">
     <g id="line2d_13">
      <g>
       <use xlink:href="#m2a1b59edc8" x="120.144103" y="328.52" style="stroke: #000000; stroke-width: 0.6"/>
      </g>
     </g>
    </g>
    <g id="xtick_14">
     <g id="line2d_14">
      <g>
       <use xlink:href="#m2a1b59edc8" x="130.67359" y="328.52" style="stroke: #000000; stroke-width: 0.6"/>
      </g>
     </g>
    </g>
    <g id="xtick_15">
     <g id="line2d_15">
      <g>
       <use xlink:href="#m2a1b59edc8" x="141.203077" y="328.52" style="stroke: #000000; stroke-width: 0.6"/>
      </g>
     </g>
    </g>
    <g id="xtick_16">
     <g id="line2d_16">
      <g>
       <use xlink:href="#m2a1b59edc8" x="162.262051" y="328.52" style="stroke: #000000; stroke-width: 0.6"/>
      </g>
     </g>
    </g>
    <g id="xtick_17">
     <g id="line2d_17">
      <g>
       <use xlink:href="#m2a1b59edc8" x="172.791538" y="328.52" style="stroke: #000000; stroke-width: 0.6"/>
      </g>
     </g>
    </g>
    <g id="xtick_18">
     <g id="line2d_18">
      <g>
       <use xlink:href="#m2a1b59edc8" x="183.321026" y="328.52" style="stroke: #000000; stroke-width: 0.6"/>
      </g>
     </g>
    </g>
    <g id="xtick_19">
     <g id="line2d_19">
      <g>
       <use xlink:href="#m2a1b59edc8" x="193.850513" y="328.52" style="stroke: #000000; stroke-width: 0.6"/>
      </g>
     </g>
    </g>
    <g id="xtick_20">
     <g id="line2d_20">
      <g>
       <use xlink:href="#m2a1b59edc8" x="214.909487" y="328.52" style="stroke: #000000; stroke-width: 0.6"/>
      </g>
     </g>
    </g>
    <g id="xtick_21">
     <g id="line2d_21">
      <g>
       <use xlink:href="#m2a1b59edc8" x="225.438974" y="328.52" style="stroke: #000000; stroke-width: 0.6"/>
      </g>
     </g>
    </g>
    <g id="xtick_22">
     <g id="line2d_22">
      <g>
       <use xlink:href="#m2a1b59edc8" x="235.968462" y="328.52" style="stroke: #000000; stroke-width: 0.6"/>
      </g>
     </g>
    </g>
    <g id="xtick_23">
     <g id="line2d_23">
      <g>
       <use xlink:href="#m2a1b59edc8" x="246.497949" y="328.52" style="stroke: #000000; stroke-width: 0.6"/>
      </g>
     </g>
    </g>
    <g id="xtick_24">
     <g id="line2d_24">
      <g>
       <use xlink:href="#m2a1b59edc8" x="267.556923" y="328.52" style="stroke: #000000; stroke-width: 0.6"/>
      </g>
     </g>
    </g>
    <g id="xtick_25">
     <g id="line2d_25">
      <g>
       <use xlink:href="#m2a1b59edc8" x="278.08641" y="328.52" style="stroke: #000000; stroke-width: 0.6"/>
      </g>
     </g>
    </g>
    <g id="xtick_26">
     <g id="line2d_26">
      <g>
       <use xlink:href="#m2a1b59edc8" x="288.615897" y="328.52" style="stroke: #000000; stroke-width: 0.6"/>
      </g>
     </g>
    </g>
    <g id="xtick_27">
     <g id="line2d_27">
      <g>
       <use xlink:href="#m2a1b59edc8" x="299.145385" y="328.52" style="stroke: #000000; stroke-width: 0.6"/>
      </g>
     </g>
    </g>
    <g id="xtick_28">
     <g id="line2d_28">
      <g>
       <use xlink:href="#m2a1b59edc8" x="320.204359" y="328.52" style="stroke: #000000; stroke-width: 0.6"/>
      </g>
     </g>
    </g>
    <g id="xtick_29">
     <g id="line2d_29">
      <g>
       <use xlink:href="#m2a1b59edc8" x="330.733846" y="328.52" style="stroke: #000000; stroke-width: 0.6"/>
      </g>
     </g>
    </g>
    <g id="xtick_30">
     <g id="line2d_30">
      <g>
       <use xlink:href="#m2a1b59edc8" x="341.263333" y="328.52" style="stroke: #000000; stroke-width: 0.6"/>
      </g>
     </g>
    </g>
    <g id="xtick_31">
     <g id="line2d_31">
      <g>
       <use xlink:href="#m2a1b59edc8" x="351.792821" y="328.52" style="stroke: #000000; stroke-width: 0.6"/>
      </g>
     </g>
    </g>
   </g>
   <g id="matplotlib.axis_2">
    <g id="ytick_1">
     <g id="line2d_32">
      <defs>
       <path id="mbbed3ad789" d="M 0 0 
L -3.5 0 
" style="stroke: #000000; stroke-width: 0.8"/>
      </defs>
      <g>
       <use xlink:href="#mbbed3ad789" x="40.12" y="322.202308" style="stroke: #000000; stroke-width: 0.8"/>
      </g>
     </g>
     <g id="text_8">
      <!-- −3 -->
      <g transform="translate(18.377813 326.001526) scale(0.1 -0.1)">
       <use xlink:href="#DejaVuSans-2212"/>
       <use xlink:href="#DejaVuSans-33" x="83.789062"/>
      </g>
     </g>
    </g>
    <g id="ytick_2">
     <g id="line2d_33">
      <g>
       <use xlink:href="#mbbed3ad789" x="40.12" y="269.554872" style="stroke: #000000; stroke-width: 0.8"/>
      </g>
     </g>
     <g id="text_9">
      <!-- −2 -->
      <g transform="translate(18.377813 273.354091) scale(0.1 -0.1)">
       <use xlink:href="#DejaVuSans-2212"/>
       <use xlink:href="#DejaVuSans-32" x="83.789062"/>
      </g>
     </g>
    </g>
    <g id="ytick_3">
     <g id="line2d_34">
      <g>
       <use xlink:href="#mbbed3ad789" x="40.12" y="216.907436" style="stroke: #000000; stroke-width: 0.8"/>
      </g>
     </g>
     <g id="text_10">
      <!-- −1 -->
      <g transform="translate(18.377813 220.706655) scale(0.1 -0.1)">
       <use xlink:href="#DejaVuSans-2212"/>
       <use xlink:href="#DejaVuSans-31" x="83.789062"/>
      </g>
     </g>
    </g>
    <g id="ytick_4">
     <g id="line2d_35">
      <g>
       <use xlink:href="#mbbed3ad789" x="40.12" y="164.26" style="stroke: #000000; stroke-width: 0.8"/>
      </g>
     </g>
     <g id="text_11">
      <!-- 0 -->
      <g transform="translate(26.7575 168.059219) scale(0.1 -0.1)">
       <use xlink:href="#DejaVuSans-30"/>
      </g>
     </g>
    </g>
    <g id="ytick_5">
     <g id="line2d_36">
      <g>
       <use xlink:href="#mbbed3ad789" x="40.12" y="111.612564" style="stroke: #000000; stroke-width: 0.8"/>
      </g>
     </g>
     <g id="text_12">
      <!-- 1 -->
      <g transform="translate(26.7575 115.411783) scale(0.1 -0.1)">
       <use xlink:href="#DejaVuSans-31"/>
      </g>
     </g>
    </g>
    <g id="ytick_6">
     <g id="line2d_37">
      <g>
       <use xlink:href="#mbbed3ad789" x="40.12" y="58.965128" style="stroke: #000000; stroke-width: 0.8"/>
      </g>
     </g>
     <g id="text_13">
      <!-- 2 -->
      <g transform="translate(26.7575 62.764347) scale(0.1 -0.1)">
       <use xlink:href="#DejaVuSans-32"/>
      </g>
     </g>
    </g>
    <g id="ytick_7">
     <g id="line2d_38">
      <g>
       <use xlink:href="#mbbed3ad789" x="40.12" y="6.317692" style="stroke: #000000; stroke-width: 0.8"/>
      </g>
     </g>
     <g id="text_14">
      <!-- 3 -->
      <g transform="translate(26.7575 10.116911) scale(0.1 -0.1)">
       <use xlink:href="#DejaVuSans-33"/>
      </g>
     </g>
    </g>
    <g id="ytick_8">
     <g id="line2d_39">
      <defs>
       <path id="me35b9e820f" d="M 0 0 
L -2 0 
" style="stroke: #000000; stroke-width: 0.6"/>
      </defs>
      <g>
       <use xlink:href="#me35b9e820f" x="40.12" y="311.672821" style="stroke: #000000; stroke-width: 0.6"/>
      </g>
     </g>
    </g>
    <g id="ytick_9">
     <g id="line2d_40">
      <g>
       <use xlink:href="#me35b9e820f" x="40.12" y="301.143333" style="stroke: #000000; stroke-width: 0.6"/>
      </g>
     </g>
    </g>
    <g id="ytick_10">
     <g id="line2d_41">
      <g>
       <use xlink:href="#me35b9e820f" x="40.12" y="290.613846" style="stroke: #000000; stroke-width: 0.6"/>
      </g>
     </g>
    </g>
    <g id="ytick_11">
     <g id="line2d_42">
      <g>
       <use xlink:href="#me35b9e820f" x="40.12" y="280.084359" style="stroke: #000000; stroke-width: 0.6"/>
      </g>
     </g>
    </g>
    <g id="ytick_12">
     <g id="line2d_43">
      <g>
       <use xlink:href="#me35b9e820f" x="40.12" y="259.025385" style="stroke: #000000; stroke-width: 0.6"/>
      </g>
     </g>
    </g>
    <g id="ytick_13">
     <g id="line2d_44">
      <g>
       <use xlink:href="#me35b9e820f" x="40.12" y="248.495897" style="stroke: #000000; stroke-width: 0.6"/>
      </g>
     </g>
    </g>
    <g id="ytick_14">
     <g id="line2d_45">
      <g>
       <use xlink:href="#me35b9e820f" x="40.12" y="237.96641" style="stroke: #000000; stroke-width: 0.6"/>
      </g>
     </g>
    </g>
    <g id="ytick_15">
     <g id="line2d_46">
      <g>
       <use xlink:href="#me35b9e820f" x="40.12" y="227.436923" style="stroke: #000000; stroke-width: 0.6"/>
      </g>
     </g>
    </g>
    <g id="ytick_16">
     <g id="line2d_47">
      <g>
       <use xlink:href="#me35b9e820f" x="40.12" y="206.377949" style="stroke: #000000; stroke-width: 0.6"/>
      </g>
     </g>
    </g>
    <g id="ytick_17">
     <g id="line2d_48">
      <g>
       <use xlink:href="#me35b9e820f" x="40.12" y="195.848462" style="stroke: #000000; stroke-width: 0.6"/>
      </g>
     </g>
    </g>
    <g id="ytick_18">
     <g id="line2d_49">
      <g>
       <use xlink:href="#me35b9e820f" x="40.12" y="185.318974" style="stroke: #000000; stroke-width: 0.6"/>
      </g>
     </g>
    </g>
    <g id="ytick_19">
     <g id="line2d_50">
      <g>
       <use xlink:href="#me35b9e820f" x="40.12" y="174.789487" style="stroke: #000000; stroke-width: 0.6"/>
      </g>
     </g>
    </g>
    <g id="ytick_20">
     <g id="line2d_51">
      <g>
       <use xlink:href="#me35b9e820f" x="40.12" y="153.730513" style="stroke: #000000; stroke-width: 0.6"/>
      </g>
     </g>
    </g>
    <g id="ytick_21">
     <g id="line2d_52">
      <g>
       <use xlink:href="#me35b9e820f" x="40.12" y="143.201026" style="stroke: #000000; stroke-width: 0.6"/>
      </g>
     </g>
    </g>
    <g id="ytick_22">
     <g id="line2d_53">
      <g>
       <use xlink:href="#me35b9e820f" x="40.12" y="132.671538" style="stroke: #000000; stroke-width: 0.6"/>
      </g>
     </g>
    </g>
    <g id="ytick_23">
     <g id="line2d_54">
      <g>
       <use xlink:href="#me35b9e820f" x="40.12" y="122.142051" style="stroke: #000000; stroke-width: 0.6"/>
      </g>
     </g>
    </g>
    <g id="ytick_24">
     <g id="line2d_55">
      <g>
       <use xlink:href="#me35b9e820f" x="40.12" y="101.083077" style="stroke: #000000; stroke-width: 0.6"/>
      </g>
     </g>
    </g>
    <g id="ytick_25">
     <g id="line2d_56">
      <g>
       <use xlink:href="#me35b9e820f" x="40.12" y="90.55359" style="stroke: #000000; stroke-width: 0.6"/>
      </g>
     </g>
    </g>
    <g id="ytick_26">
     <g id="line2d_57">
      <g>
       <use xlink:href="#me35b9e820f" x="40.12" y="80.024103" style="stroke: #000000; stroke-width: 0.6"/>
      </g>
     </g>
    </g>
    <g id="ytick_27">
     <g id="line2d_58">
      <g>
       <use xlink:href="#me35b9e820f" x="40.12" y="69.494615" style="stroke: #000000; stroke-width: 0.6"/>
      </g>
     </g>
    </g>
    <g id="ytick_28">
     <g id="line2d_59">
      <g>
       <use xlink:href="#me35b9e820f" x="40.12" y="48.435641" style="stroke: #000000; stroke-width: 0.6"/>
      </g>
     </g>
    </g>
    <g id="ytick_29">
     <g id="line2d_60">
      <g>
       <use xlink:href="#me35b9e820f" x="40.12" y="37.906154" style="stroke: #000000; stroke-width: 0.6"/>
      </g>
     </g>
    </g>
    <g id="ytick_30">
     <g id="line2d_61">
      <g>
       <use xlink:href="#me35b9e820f" x="40.12" y="27.376667" style="stroke: #000000; stroke-width: 0.6"/>
      </g>
     </g>
    </g>
    <g id="ytick_31">
     <g id="line2d_62">
      <g>
       <use xlink:href="#me35b9e820f" x="40.12" y="16.847179" style="stroke: #000000; stroke-width: 0.6"/>
      </g>
     </g>
    </g>
   </g>
   <g id="QuadContourSet_2">
    <path clip-path="url(#p4f8a3da266)" style="fill: none; stroke: #000000; stroke-width: 1.5"/>
    <path clip-path="url(#p4f8a3da266)" style="fill: none; stroke: #2a2a2a; stroke-width: 1.5"/>
    <path d="M 186.830855 268.080357 
L 183.640101 267.485867 
L 177.258594 265.990202 
L 173.030845 264.768741 
L 167.686333 262.941777 
L 164.188776 261.577988 
L 158.114071 258.839257 
L 154.923318 257.204454 
L 151.310258 255.19648 
L 146.193061 252.005726 
L 142.160303 249.199045 
L 138.969549 246.759391 
L 135.778796 244.124565 
L 132.588042 241.27017 
L 129.397288 238.167566 
L 126.206535 234.782908 
L 123.015781 231.075902 
L 119.440955 226.479697 
L 116.634274 222.446939 
L 113.195961 216.907436 
L 109.800743 210.525929 
L 106.933353 204.144421 
L 104.56602 197.762914 
L 103.547198 194.57216 
L 101.85211 188.190653 
L 100.559643 181.809145 
L 99.689438 175.427638 
L 99.20599 169.046131 
L 99.109301 162.664623 
L 99.399369 156.283116 
L 100.076196 149.901608 
L 101.154133 143.520101 
L 102.649798 137.138594 
L 103.871259 132.910845 
L 105.698223 127.566333 
L 107.062012 124.068776 
L 109.800743 117.994071 
L 111.435546 114.803318 
L 113.44352 111.190258 
L 116.634274 106.073061 
L 119.440955 102.040303 
L 121.880609 98.849549 
L 124.515435 95.658796 
L 127.36983 92.468042 
L 130.472434 89.277288 
L 133.857092 86.086535 
L 137.564098 82.895781 
L 142.160303 79.320955 
L 146.193061 76.514274 
L 151.732564 73.075961 
L 158.114071 69.680743 
L 164.495579 66.813353 
L 170.877086 64.44602 
L 174.06784 63.427198 
L 180.449347 61.73211 
L 186.830855 60.439643 
L 193.212362 59.569438 
L 199.593869 59.08599 
L 205.975377 58.989301 
L 212.356884 59.279369 
L 218.738392 59.956196 
L 225.119899 61.034133 
L 231.501406 62.529798 
L 235.729155 63.751259 
L 241.073667 65.578223 
L 244.571224 66.942012 
L 250.645929 69.680743 
L 253.836682 71.315546 
L 257.449742 73.32352 
L 262.566939 76.514274 
L 266.599697 79.320955 
L 269.790451 81.760609 
L 272.981204 84.395435 
L 276.171958 87.24983 
L 279.362712 90.352434 
L 282.553465 93.737092 
L 285.744219 97.444098 
L 289.319045 102.040303 
L 292.125726 106.073061 
L 295.564039 111.612564 
L 298.959257 117.994071 
L 301.826647 124.375579 
L 304.19398 130.757086 
L 305.212802 133.94784 
L 306.90789 140.329347 
L 308.200357 146.710855 
L 309.070562 153.092362 
L 309.55401 159.473869 
L 309.650699 165.855377 
L 309.360631 172.236884 
L 308.683804 178.618392 
L 307.605867 184.999899 
L 306.110202 191.381406 
L 304.888741 195.609155 
L 303.061777 200.953667 
L 301.697988 204.451224 
L 298.959257 210.525929 
L 297.324454 213.716682 
L 295.31648 217.329742 
L 292.125726 222.446939 
L 289.319045 226.479697 
L 286.879391 229.670451 
L 284.244565 232.861204 
L 281.39017 236.051958 
L 278.287566 239.242712 
L 274.902908 242.433465 
L 271.195902 245.624219 
L 266.599697 249.199045 
L 262.566939 252.005726 
L 257.027436 255.444039 
L 250.645929 258.839257 
L 244.264421 261.706647 
L 237.882914 264.07398 
L 234.69216 265.092802 
L 228.310653 266.78789 
L 221.929145 268.080357 
L 215.547638 268.950562 
L 209.166131 269.43401 
L 202.784623 269.530699 
L 196.403116 269.240631 
L 190.021608 268.563804 
L 186.830855 268.080357 
L 186.830855 268.080357 
" clip-path="url(#p4f8a3da266)" style="fill: none; stroke: #ffffff; stroke-width: 1.5"/>
   </g>
   <g id="patch_3">
    <path d="M 40.12 328.52 
L 40.12 -0 
" style="fill: none; stroke: #000000; stroke-width: 0.8; stroke-linejoin: miter; stroke-linecap: square"/>
   </g>
   <g id="patch_4">
    <path d="M 368.64 328.52 
L 368.64 -0 
" style="fill: none; stroke: #000000; stroke-width: 0.8; stroke-linejoin: miter; stroke-linecap: square"/>
   </g>
   <g id="patch_5">
    <path d="M 40.12 328.52 
L 368.64 328.52 
" style="fill: none; stroke: #000000; stroke-width: 0.8; stroke-linejoin: miter; stroke-linecap: square"/>
   </g>
   <g id="patch_6">
    <path d="M 40.12 0 
L 368.64 0 
" style="fill: none; stroke: #000000; stroke-width: 0.8; stroke-linejoin: miter; stroke-linecap: square"/>
   </g>
  </g>
  <g id="axes_2">
   <g id="patch_7">
    <path d="M 391.68 313.587273 
L 408.106 313.587273 
L 408.106 14.932727 
L 391.68 14.932727 
z
" style="fill: #ffffff"/>
   </g>
   <g id="patch_8">
    <path d="M 391.68 313.587273 
L 399.893 328.52 
L 408.106 313.587273 
"/>
   </g>
   <g id="patch_9">
    <path d="M 391.68 14.932727 
L 399.893 0 
L 408.106 14.932727 
" style="fill: #ffffff"/>
   </g>
   <g id="QuadMesh_1">
    <path d="M 391.68 313.587273 
L 408.106 313.587273 
L 408.106 164.26 
L 391.68 164.26 
L 391.68 313.587273 
" clip-path="url(#p7d06558593)" style="fill: #151515"/>
    <path d="M 391.68 164.26 
L 408.106 164.26 
L 408.106 14.932727 
L 391.68 14.932727 
L 391.68 164.26 
" clip-path="url(#p7d06558593)" style="fill: #959595"/>
   </g>
   <g id="matplotlib.axis_3"/>
   <g id="matplotlib.axis_4">
    <g id="ytick_32">
     <g id="line2d_63">
      <defs>
       <path id="m7e4ac05528" d="M 0 0 
L 3.5 0 
" style="stroke: #000000; stroke-width: 0.8"/>
      </defs>
      <g>
       <use xlink:href="#m7e4ac05528" x="408.106" y="313.587273" style="stroke: #000000; stroke-width: 0.8"/>
      </g>
     </g>
     <g id="text_15">
      <!-- −2 -->
      <g transform="translate(415.106 317.386491) scale(0.1 -0.1)">
       <use xlink:href="#DejaVuSans-2212"/>
       <use xlink:href="#DejaVuSans-32" x="83.789062"/>
      </g>
     </g>
    </g>
    <g id="ytick_33">
     <g id="line2d_64">
      <g>
       <use xlink:href="#m7e4ac05528" x="408.106" y="164.26" style="stroke: #000000; stroke-width: 0.8"/>
      </g>
     </g>
     <g id="text_16">
      <!-- −1 -->
      <g transform="translate(415.106 168.059219) scale(0.1 -0.1)">
       <use xlink:href="#DejaVuSans-2212"/>
       <use xlink:href="#DejaVuSans-31" x="83.789062"/>
      </g>
     </g>
    </g>
    <g id="ytick_34">
     <g id="line2d_65">
      <g>
       <use xlink:href="#m7e4ac05528" x="408.106" y="14.932727" style="stroke: #000000; stroke-width: 0.8"/>
      </g>
     </g>
     <g id="text_17">
      <!-- 4 -->
      <g transform="translate(415.106 18.731946) scale(0.1 -0.1)">
       <defs>
        <path id="DejaVuSans-34" d="M 2419 4116 
L 825 1625 
L 2419 1625 
L 2419 4116 
z
M 2253 4666 
L 3047 4666 
L 3047 1625 
L 3713 1625 
L 3713 1100 
L 3047 1100 
L 3047 0 
L 2419 0 
L 2419 1100 
L 313 1100 
L 313 1709 
L 2253 4666 
z
" transform="scale(0.015625)"/>
       </defs>
       <use xlink:href="#DejaVuSans-34"/>
      </g>
     </g>
    </g>
   </g>
   <g id="LineCollection_1"/>
   <g id="LineCollection_2">
    <path d="M 391.68 313.587273 
L 408.106 313.587273 
" clip-path="url(#pd7cf065643)" style="fill: none; stroke: #000000; stroke-width: 1.5"/>
    <path d="M 391.68 164.26 
L 408.106 164.26 
" clip-path="url(#pd7cf065643)" style="fill: none; stroke: #2a2a2a; stroke-width: 1.5"/>
    <path d="M 391.68 14.932727 
L 408.106 14.932727 
" clip-path="url(#pd7cf065643)" style="fill: none; stroke: #ffffff; stroke-width: 1.5"/>
   </g>
   <g id="patch_10">
    <path d="M 391.68 313.587273 
L 399.893 328.52 
L 408.106 313.587273 
L 408.106 14.932727 
L 399.893 0 
L 391.68 14.932727 
L 391.68 313.587273 
z
" style="fill: none; stroke: #000000; stroke-width: 0.8; stroke-linejoin: miter; stroke-linecap: square"/>
   </g>
  </g>
 </g>
 <defs>
  <clipPath id="p4f8a3da266">
   <rect x="40.12" y="0" width="328.52" height="328.52"/>
  </clipPath>
  <clipPath id="p7d06558593">
   <rect x="391.68" y="14.932727" width="16.426" height="298.654545"/>
  </clipPath>
  <clipPath id="pd7cf065643">
   <path d="M 391.68 315.270706 
L 408.106 315.270706 
L 408.106 13.249294 
L 391.68 13.249294 
z
"/>
  </clipPath>
 </defs>
</svg>
