<?xml version="1.0" encoding="utf-8" standalone="no"?>
<!DOCTYPE svg PUBLIC "-//W3C//DTD SVG 1.1//EN"
  "http://www.w3.org/Graphics/SVG/1.1/DTD/svg11.dtd">
<svg xmlns:xlink="http://www.w3.org/1999/xlink" width="460.8pt" height="345.6pt" viewBox="0 0 460.8 345.6" xmlns="http://www.w3.org/2000/svg" version="1.1">
 <metadata>
  <rdf:RDF xmlns:dc="http://purl.org/dc/elements/1.1/" xmlns:cc="http://creativecommons.org/ns#" xmlns:rdf="http://www.w3.org/1999/02/22-rdf-syntax-ns#">
   <cc:Work>
    <dc:type rdf:resource="http://purl.org/dc/dcmitype/StillImage"/>
    <dc:date>2023-05-25T19:50:26.254341</dc:date>
    <dc:format>image/svg+xml</dc:format>
    <dc:creator>
     <cc:Agent>
      <dc:title>Matplotlib v3.6.2, https://matplotlib.org/</dc:title>
     </cc:Agent>
    </dc:creator>
   </cc:Work>
  </rdf:RDF>
 </metadata>
 <defs>
  <style type="text/css">*{stroke-linejoin: round; stroke-linecap: butt}</style>
 </defs>
 <g id="figure_1">
  <g id="patch_1">
   <path d="M 0 345.6 
L 460.8 345.6 
L 460.8 0 
L 0 0 
z
" style="fill: #ffffff"/>
  </g>
  <g id="axes_1">
   <g id="patch_2">
    <path d="M 66.14 328.52 
L 394.66 328.52 
L 394.66 0 
L 66.14 0 
z
" style="fill: #ffffff"/>
   </g>
   <g id="matplotlib.axis_1">
    <g id="xtick_1">
     <g id="line2d_1">
      <defs>
       <path id="m4bbc10175c" d="M 0 0 
L 0 3.5 
" style="stroke: #000000; stroke-width: 0.8"/>
      </defs>
      <g>
       <use xlink:href="#m4bbc10175c" x="79.576206" y="328.52" style="stroke: #000000; stroke-width: 0.8"/>
      </g>
     </g>
     <g id="text_1">
      <!-- −3 -->
      <g transform="translate(72.205112 343.118437) scale(0.1 -0.1)">
       <defs>
        <path id="DejaVuSans-2212" d="M 678 2272 
L 4684 2272 
L 4684 1741 
L 678 1741 
L 678 2272 
z
" transform="scale(0.015625)"/>
        <path id="DejaVuSans-33" d="M 2597 2516 
Q 3050 2419 3304 2112 
Q 3559 1806 3559 1356 
Q 3559 666 3084 287 
Q 2609 -91 1734 -91 
Q 1441 -91 1130 -33 
Q 819 25 488 141 
L 488 750 
Q 750 597 1062 519 
Q 1375 441 1716 441 
Q 2309 441 2620 675 
Q 2931 909 2931 1356 
Q 2931 1769 2642 2001 
Q 2353 2234 1838 2234 
L 1294 2234 
L 1294 2753 
L 1863 2753 
Q 2328 2753 2575 2939 
Q 2822 3125 2822 3475 
Q 2822 3834 2567 4026 
Q 2313 4219 1838 4219 
Q 1578 4219 1281 4162 
Q 984 4106 628 3988 
L 628 4550 
Q 988 4650 1302 4700 
Q 1616 4750 1894 4750 
Q 2613 4750 3031 4423 
Q 3450 4097 3450 3541 
Q 3450 3153 3228 2886 
Q 3006 2619 2597 2516 
z
" transform="scale(0.015625)"/>
       </defs>
       <use xlink:href="#DejaVuSans-2212"/>
       <use xlink:href="#DejaVuSans-33" x="83.789062"/>
      </g>
     </g>
    </g>
    <g id="xtick_2">
     <g id="line2d_2">
      <g>
       <use xlink:href="#m4bbc10175c" x="129.850804" y="328.52" style="stroke: #000000; stroke-width: 0.8"/>
      </g>
     </g>
     <g id="text_2">
      <!-- −2 -->
      <g transform="translate(122.47971 343.118437) scale(0.1 -0.1)">
       <defs>
        <path id="DejaVuSans-32" d="M 1228 531 
L 3431 531 
L 3431 0 
L 469 0 
L 469 531 
Q 828 903 1448 1529 
Q 2069 2156 2228 2338 
Q 2531 2678 2651 2914 
Q 2772 3150 2772 3378 
Q 2772 3750 2511 3984 
Q 2250 4219 1831 4219 
Q 1534 4219 1204 4116 
Q 875 4013 500 3803 
L 500 4441 
Q 881 4594 1212 4672 
Q 1544 4750 1819 4750 
Q 2544 4750 2975 4387 
Q 3406 4025 3406 3419 
Q 3406 3131 3298 2873 
Q 3191 2616 2906 2266 
Q 2828 2175 2409 1742 
Q 1991 1309 1228 531 
z
" transform="scale(0.015625)"/>
       </defs>
       <use xlink:href="#DejaVuSans-2212"/>
       <use xlink:href="#DejaVuSans-32" x="83.789062"/>
      </g>
     </g>
    </g>
    <g id="xtick_3">
     <g id="line2d_3">
      <g>
       <use xlink:href="#m4bbc10175c" x="180.125402" y="328.52" style="stroke: #000000; stroke-width: 0.8"/>
      </g>
     </g>
     <g id="text_3">
      <!-- −1 -->
      <g transform="translate(172.754308 343.118437) scale(0.1 -0.1)">
       <defs>
        <path id="DejaVuSans-31" d="M 794 531 
L 1825 531 
L 1825 4091 
L 703 3866 
L 703 4441 
L 1819 4666 
L 2450 4666 
L 2450 531 
L 3481 531 
L 3481 0 
L 794 0 
L 794 531 
z
" transform="scale(0.015625)"/>
       </defs>
       <use xlink:href="#DejaVuSans-2212"/>
       <use xlink:href="#DejaVuSans-31" x="83.789062"/>
      </g>
     </g>
    </g>
    <g id="xtick_4">
     <g id="line2d_4">
      <g>
       <use xlink:href="#m4bbc10175c" x="230.4" y="328.52" style="stroke: #000000; stroke-width: 0.8"/>
      </g>
     </g>
     <g id="text_4">
      <!-- 0 -->
      <g transform="translate(227.21875 343.118437) scale(0.1 -0.1)">
       <defs>
        <path id="DejaVuSans-30" d="M 2034 4250 
Q 1547 4250 1301 3770 
Q 1056 3291 1056 2328 
Q 1056 1369 1301 889 
Q 1547 409 2034 409 
Q 2525 409 2770 889 
Q 3016 1369 3016 2328 
Q 3016 3291 2770 3770 
Q 2525 4250 2034 4250 
z
M 2034 4750 
Q 2819 4750 3233 4129 
Q 3647 3509 3647 2328 
Q 3647 1150 3233 529 
Q 2819 -91 2034 -91 
Q 1250 -91 836 529 
Q 422 1150 422 2328 
Q 422 3509 836 4129 
Q 1250 4750 2034 4750 
z
" transform="scale(0.015625)"/>
       </defs>
       <use xlink:href="#DejaVuSans-30"/>
      </g>
     </g>
    </g>
    <g id="xtick_5">
     <g id="line2d_5">
      <g>
       <use xlink:href="#m4bbc10175c" x="280.674598" y="328.52" style="stroke: #000000; stroke-width: 0.8"/>
      </g>
     </g>
     <g id="text_5">
      <!-- 1 -->
      <g transform="translate(277.493348 343.118437) scale(0.1 -0.1)">
       <use xlink:href="#DejaVuSans-31"/>
      </g>
     </g>
    </g>
    <g id="xtick_6">
     <g id="line2d_6">
      <g>
       <use xlink:href="#m4bbc10175c" x="330.949196" y="328.52" style="stroke: #000000; stroke-width: 0.8"/>
      </g>
     </g>
     <g id="text_6">
      <!-- 2 -->
      <g transform="translate(327.767946 343.118437) scale(0.1 -0.1)">
       <use xlink:href="#DejaVuSans-32"/>
      </g>
     </g>
    </g>
    <g id="xtick_7">
     <g id="line2d_7">
      <g>
       <use xlink:href="#m4bbc10175c" x="381.223794" y="328.52" style="stroke: #000000; stroke-width: 0.8"/>
      </g>
     </g>
     <g id="text_7">
      <!-- 3 -->
      <g transform="translate(378.042544 343.118437) scale(0.1 -0.1)">
       <use xlink:href="#DejaVuSans-33"/>
      </g>
     </g>
    </g>
    <g id="xtick_8">
     <g id="line2d_8">
      <defs>
       <path id="m8d22878e89" d="M 0 0 
L 0 2 
" style="stroke: #000000; stroke-width: 0.6"/>
      </defs>
      <g>
       <use xlink:href="#m8d22878e89" x="69.521286" y="328.52" style="stroke: #000000; stroke-width: 0.6"/>
      </g>
     </g>
    </g>
    <g id="xtick_9">
     <g id="line2d_9">
      <g>
       <use xlink:href="#m8d22878e89" x="89.631126" y="328.52" style="stroke: #000000; stroke-width: 0.6"/>
      </g>
     </g>
    </g>
    <g id="xtick_10">
     <g id="line2d_10">
      <g>
       <use xlink:href="#m8d22878e89" x="99.686045" y="328.52" style="stroke: #000000; stroke-width: 0.6"/>
      </g>
     </g>
    </g>
    <g id="xtick_11">
     <g id="line2d_11">
      <g>
       <use xlink:href="#m8d22878e89" x="109.740965" y="328.52" style="stroke: #000000; stroke-width: 0.6"/>
      </g>
     </g>
    </g>
    <g id="xtick_12">
     <g id="line2d_12">
      <g>
       <use xlink:href="#m8d22878e89" x="119.795884" y="328.52" style="stroke: #000000; stroke-width: 0.6"/>
      </g>
     </g>
    </g>
    <g id="xtick_13">
     <g id="line2d_13">
      <g>
       <use xlink:href="#m8d22878e89" x="139.905724" y="328.52" style="stroke: #000000; stroke-width: 0.6"/>
      </g>
     </g>
    </g>
    <g id="xtick_14">
     <g id="line2d_14">
      <g>
       <use xlink:href="#m8d22878e89" x="149.960643" y="328.52" style="stroke: #000000; stroke-width: 0.6"/>
      </g>
     </g>
    </g>
    <g id="xtick_15">
     <g id="line2d_15">
      <g>
       <use xlink:href="#m8d22878e89" x="160.015563" y="328.52" style="stroke: #000000; stroke-width: 0.6"/>
      </g>
     </g>
    </g>
    <g id="xtick_16">
     <g id="line2d_16">
      <g>
       <use xlink:href="#m8d22878e89" x="170.070482" y="328.52" style="stroke: #000000; stroke-width: 0.6"/>
      </g>
     </g>
    </g>
    <g id="xtick_17">
     <g id="line2d_17">
      <g>
       <use xlink:href="#m8d22878e89" x="190.180322" y="328.52" style="stroke: #000000; stroke-width: 0.6"/>
      </g>
     </g>
    </g>
    <g id="xtick_18">
     <g id="line2d_18">
      <g>
       <use xlink:href="#m8d22878e89" x="200.235241" y="328.52" style="stroke: #000000; stroke-width: 0.6"/>
      </g>
     </g>
    </g>
    <g id="xtick_19">
     <g id="line2d_19">
      <g>
       <use xlink:href="#m8d22878e89" x="210.290161" y="328.52" style="stroke: #000000; stroke-width: 0.6"/>
      </g>
     </g>
    </g>
    <g id="xtick_20">
     <g id="line2d_20">
      <g>
       <use xlink:href="#m8d22878e89" x="220.34508" y="328.52" style="stroke: #000000; stroke-width: 0.6"/>
      </g>
     </g>
    </g>
    <g id="xtick_21">
     <g id="line2d_21">
      <g>
       <use xlink:href="#m8d22878e89" x="240.45492" y="328.52" style="stroke: #000000; stroke-width: 0.6"/>
      </g>
     </g>
    </g>
    <g id="xtick_22">
     <g id="line2d_22">
      <g>
       <use xlink:href="#m8d22878e89" x="250.509839" y="328.52" style="stroke: #000000; stroke-width: 0.6"/>
      </g>
     </g>
    </g>
    <g id="xtick_23">
     <g id="line2d_23">
      <g>
       <use xlink:href="#m8d22878e89" x="260.564759" y="328.52" style="stroke: #000000; stroke-width: 0.6"/>
      </g>
     </g>
    </g>
    <g id="xtick_24">
     <g id="line2d_24">
      <g>
       <use xlink:href="#m8d22878e89" x="270.619678" y="328.52" style="stroke: #000000; stroke-width: 0.6"/>
      </g>
     </g>
    </g>
    <g id="xtick_25">
     <g id="line2d_25">
      <g>
       <use xlink:href="#m8d22878e89" x="290.729518" y="328.52" style="stroke: #000000; stroke-width: 0.6"/>
      </g>
     </g>
    </g>
    <g id="xtick_26">
     <g id="line2d_26">
      <g>
       <use xlink:href="#m8d22878e89" x="300.784437" y="328.52" style="stroke: #000000; stroke-width: 0.6"/>
      </g>
     </g>
    </g>
    <g id="xtick_27">
     <g id="line2d_27">
      <g>
       <use xlink:href="#m8d22878e89" x="310.839357" y="328.52" style="stroke: #000000; stroke-width: 0.6"/>
      </g>
     </g>
    </g>
    <g id="xtick_28">
     <g id="line2d_28">
      <g>
       <use xlink:href="#m8d22878e89" x="320.894276" y="328.52" style="stroke: #000000; stroke-width: 0.6"/>
      </g>
     </g>
    </g>
    <g id="xtick_29">
     <g id="line2d_29">
      <g>
       <use xlink:href="#m8d22878e89" x="341.004116" y="328.52" style="stroke: #000000; stroke-width: 0.6"/>
      </g>
     </g>
    </g>
    <g id="xtick_30">
     <g id="line2d_30">
      <g>
       <use xlink:href="#m8d22878e89" x="351.059035" y="328.52" style="stroke: #000000; stroke-width: 0.6"/>
      </g>
     </g>
    </g>
    <g id="xtick_31">
     <g id="line2d_31">
      <g>
       <use xlink:href="#m8d22878e89" x="361.113955" y="328.52" style="stroke: #000000; stroke-width: 0.6"/>
      </g>
     </g>
    </g>
    <g id="xtick_32">
     <g id="line2d_32">
      <g>
       <use xlink:href="#m8d22878e89" x="371.168874" y="328.52" style="stroke: #000000; stroke-width: 0.6"/>
      </g>
     </g>
    </g>
    <g id="xtick_33">
     <g id="line2d_33">
      <g>
       <use xlink:href="#m8d22878e89" x="391.278714" y="328.52" style="stroke: #000000; stroke-width: 0.6"/>
      </g>
     </g>
    </g>
   </g>
   <g id="matplotlib.axis_2">
    <g id="ytick_1">
     <g id="line2d_34">
      <defs>
       <path id="m46fb889bff" d="M 0 0 
L -3.5 0 
" style="stroke: #000000; stroke-width: 0.8"/>
      </defs>
      <g>
       <use xlink:href="#m46fb889bff" x="66.14" y="315.083794" style="stroke: #000000; stroke-width: 0.8"/>
      </g>
     </g>
     <g id="text_8">
      <!-- −3 -->
      <g transform="translate(44.397813 318.883013) scale(0.1 -0.1)">
       <use xlink:href="#DejaVuSans-2212"/>
       <use xlink:href="#DejaVuSans-33" x="83.789062"/>
      </g>
     </g>
    </g>
    <g id="ytick_2">
     <g id="line2d_35">
      <g>
       <use xlink:href="#m46fb889bff" x="66.14" y="264.809196" style="stroke: #000000; stroke-width: 0.8"/>
      </g>
     </g>
     <g id="text_9">
      <!-- −2 -->
      <g transform="translate(44.397813 268.608415) scale(0.1 -0.1)">
       <use xlink:href="#DejaVuSans-2212"/>
       <use xlink:href="#DejaVuSans-32" x="83.789062"/>
      </g>
     </g>
    </g>
    <g id="ytick_3">
     <g id="line2d_36">
      <g>
       <use xlink:href="#m46fb889bff" x="66.14" y="214.534598" style="stroke: #000000; stroke-width: 0.8"/>
      </g>
     </g>
     <g id="text_10">
      <!-- −1 -->
      <g transform="translate(44.397813 218.333817) scale(0.1 -0.1)">
       <use xlink:href="#DejaVuSans-2212"/>
       <use xlink:href="#DejaVuSans-31" x="83.789062"/>
      </g>
     </g>
    </g>
    <g id="ytick_4">
     <g id="line2d_37">
      <g>
       <use xlink:href="#m46fb889bff" x="66.14" y="164.26" style="stroke: #000000; stroke-width: 0.8"/>
      </g>
     </g>
     <g id="text_11">
      <!-- 0 -->
      <g transform="translate(52.7775 168.059219) scale(0.1 -0.1)">
       <use xlink:href="#DejaVuSans-30"/>
      </g>
     </g>
    </g>
    <g id="ytick_5">
     <g id="line2d_38">
      <g>
       <use xlink:href="#m46fb889bff" x="66.14" y="113.985402" style="stroke: #000000; stroke-width: 0.8"/>
      </g>
     </g>
     <g id="text_12">
      <!-- 1 -->
      <g transform="translate(52.7775 117.784621) scale(0.1 -0.1)">
       <use xlink:href="#DejaVuSans-31"/>
      </g>
     </g>
    </g>
    <g id="ytick_6">
     <g id="line2d_39">
      <g>
       <use xlink:href="#m46fb889bff" x="66.14" y="63.710804" style="stroke: #000000; stroke-width: 0.8"/>
      </g>
     </g>
     <g id="text_13">
      <!-- 2 -->
      <g transform="translate(52.7775 67.510023) scale(0.1 -0.1)">
       <use xlink:href="#DejaVuSans-32"/>
      </g>
     </g>
    </g>
    <g id="ytick_7">
     <g id="line2d_40">
      <g>
       <use xlink:href="#m46fb889bff" x="66.14" y="13.436206" style="stroke: #000000; stroke-width: 0.8"/>
      </g>
     </g>
     <g id="text_14">
      <!-- 3 -->
      <g transform="translate(52.7775 17.235425) scale(0.1 -0.1)">
       <use xlink:href="#DejaVuSans-33"/>
      </g>
     </g>
    </g>
    <g id="ytick_8">
     <g id="line2d_41">
      <defs>
       <path id="mc03021415d" d="M 0 0 
L -2 0 
" style="stroke: #000000; stroke-width: 0.6"/>
      </defs>
      <g>
       <use xlink:href="#mc03021415d" x="66.14" y="325.138714" style="stroke: #000000; stroke-width: 0.6"/>
      </g>
     </g>
    </g>
    <g id="ytick_9">
     <g id="line2d_42">
      <g>
       <use xlink:href="#mc03021415d" x="66.14" y="305.028874" style="stroke: #000000; stroke-width: 0.6"/>
      </g>
     </g>
    </g>
    <g id="ytick_10">
     <g id="line2d_43">
      <g>
       <use xlink:href="#mc03021415d" x="66.14" y="294.973955" style="stroke: #000000; stroke-width: 0.6"/>
      </g>
     </g>
    </g>
    <g id="ytick_11">
     <g id="line2d_44">
      <g>
       <use xlink:href="#mc03021415d" x="66.14" y="284.919035" style="stroke: #000000; stroke-width: 0.6"/>
      </g>
     </g>
    </g>
    <g id="ytick_12">
     <g id="line2d_45">
      <g>
       <use xlink:href="#mc03021415d" x="66.14" y="274.864116" style="stroke: #000000; stroke-width: 0.6"/>
      </g>
     </g>
    </g>
    <g id="ytick_13">
     <g id="line2d_46">
      <g>
       <use xlink:href="#mc03021415d" x="66.14" y="254.754276" style="stroke: #000000; stroke-width: 0.6"/>
      </g>
     </g>
    </g>
    <g id="ytick_14">
     <g id="line2d_47">
      <g>
       <use xlink:href="#mc03021415d" x="66.14" y="244.699357" style="stroke: #000000; stroke-width: 0.6"/>
      </g>
     </g>
    </g>
    <g id="ytick_15">
     <g id="line2d_48">
      <g>
       <use xlink:href="#mc03021415d" x="66.14" y="234.644437" style="stroke: #000000; stroke-width: 0.6"/>
      </g>
     </g>
    </g>
    <g id="ytick_16">
     <g id="line2d_49">
      <g>
       <use xlink:href="#mc03021415d" x="66.14" y="224.589518" style="stroke: #000000; stroke-width: 0.6"/>
      </g>
     </g>
    </g>
    <g id="ytick_17">
     <g id="line2d_50">
      <g>
       <use xlink:href="#mc03021415d" x="66.14" y="204.479678" style="stroke: #000000; stroke-width: 0.6"/>
      </g>
     </g>
    </g>
    <g id="ytick_18">
     <g id="line2d_51">
      <g>
       <use xlink:href="#mc03021415d" x="66.14" y="194.424759" style="stroke: #000000; stroke-width: 0.6"/>
      </g>
     </g>
    </g>
    <g id="ytick_19">
     <g id="line2d_52">
      <g>
       <use xlink:href="#mc03021415d" x="66.14" y="184.369839" style="stroke: #000000; stroke-width: 0.6"/>
      </g>
     </g>
    </g>
    <g id="ytick_20">
     <g id="line2d_53">
      <g>
       <use xlink:href="#mc03021415d" x="66.14" y="174.31492" style="stroke: #000000; stroke-width: 0.6"/>
      </g>
     </g>
    </g>
    <g id="ytick_21">
     <g id="line2d_54">
      <g>
       <use xlink:href="#mc03021415d" x="66.14" y="154.20508" style="stroke: #000000; stroke-width: 0.6"/>
      </g>
     </g>
    </g>
    <g id="ytick_22">
     <g id="line2d_55">
      <g>
       <use xlink:href="#mc03021415d" x="66.14" y="144.150161" style="stroke: #000000; stroke-width: 0.6"/>
      </g>
     </g>
    </g>
    <g id="ytick_23">
     <g id="line2d_56">
      <g>
       <use xlink:href="#mc03021415d" x="66.14" y="134.095241" style="stroke: #000000; stroke-width: 0.6"/>
      </g>
     </g>
    </g>
    <g id="ytick_24">
     <g id="line2d_57">
      <g>
       <use xlink:href="#mc03021415d" x="66.14" y="124.040322" style="stroke: #000000; stroke-width: 0.6"/>
      </g>
     </g>
    </g>
    <g id="ytick_25">
     <g id="line2d_58">
      <g>
       <use xlink:href="#mc03021415d" x="66.14" y="103.930482" style="stroke: #000000; stroke-width: 0.6"/>
      </g>
     </g>
    </g>
    <g id="ytick_26">
     <g id="line2d_59">
      <g>
       <use xlink:href="#mc03021415d" x="66.14" y="93.875563" style="stroke: #000000; stroke-width: 0.6"/>
      </g>
     </g>
    </g>
    <g id="ytick_27">
     <g id="line2d_60">
      <g>
       <use xlink:href="#mc03021415d" x="66.14" y="83.820643" style="stroke: #000000; stroke-width: 0.6"/>
      </g>
     </g>
    </g>
    <g id="ytick_28">
     <g id="line2d_61">
      <g>
       <use xlink:href="#mc03021415d" x="66.14" y="73.765724" style="stroke: #000000; stroke-width: 0.6"/>
      </g>
     </g>
    </g>
    <g id="ytick_29">
     <g id="line2d_62">
      <g>
       <use xlink:href="#mc03021415d" x="66.14" y="53.655884" style="stroke: #000000; stroke-width: 0.6"/>
      </g>
     </g>
    </g>
    <g id="ytick_30">
     <g id="line2d_63">
      <g>
       <use xlink:href="#mc03021415d" x="66.14" y="43.600965" style="stroke: #000000; stroke-width: 0.6"/>
      </g>
     </g>
    </g>
    <g id="ytick_31">
     <g id="line2d_64">
      <g>
       <use xlink:href="#mc03021415d" x="66.14" y="33.546045" style="stroke: #000000; stroke-width: 0.6"/>
      </g>
     </g>
    </g>
    <g id="ytick_32">
     <g id="line2d_65">
      <g>
       <use xlink:href="#mc03021415d" x="66.14" y="23.491126" style="stroke: #000000; stroke-width: 0.6"/>
      </g>
     </g>
    </g>
    <g id="ytick_33">
     <g id="line2d_66">
      <g>
       <use xlink:href="#mc03021415d" x="66.14" y="3.381286" style="stroke: #000000; stroke-width: 0.6"/>
      </g>
     </g>
    </g>
   </g>
   <g id="PathCollection_1"/>
   <g id="PathCollection_2">
    <path d="M 388.342308 295.867323 
L 385.151554 295.74933 
L 381.9608 295.395826 
L 378.770047 294.808235 
L 375.579293 293.988922 
L 374.046254 293.485524 
L 372.388539 292.918515 
L 369.197786 291.5936 
L 366.529456 290.294771 
L 366.007032 290.028306 
L 362.816278 288.168269 
L 361.187711 287.104017 
L 359.625524 286.027272 
L 356.847166 283.913263 
L 356.434771 283.57989 
L 353.244017 280.76811 
L 353.196043 280.72251 
L 350.062275 277.531756 
L 350.053263 277.521834 
L 347.350361 274.341002 
L 346.86251 273.713314 
L 344.983933 271.150249 
L 343.671756 269.166894 
L 342.913112 267.959495 
L 341.132545 264.768741 
L 340.481002 263.426746 
L 339.623106 261.577988 
L 338.369645 258.387234 
L 337.348407 255.19648 
L 337.290249 254.960058 
L 336.591578 252.005726 
L 336.067238 248.814973 
L 335.775252 245.624219 
L 335.716796 242.433465 
L 335.892105 239.242712 
L 336.300474 236.051958 
L 336.940257 232.861204 
L 337.290249 231.575561 
L 337.829719 229.670451 
L 338.967641 226.479697 
L 340.335378 223.288943 
L 340.481002 222.997084 
L 341.994325 220.09819 
L 343.671756 217.271771 
L 343.899431 216.907436 
L 346.125362 213.716682 
L 346.86251 212.756261 
L 348.677762 210.525929 
L 350.053263 208.971242 
L 351.600465 207.335175 
L 353.244017 205.720062 
L 354.973486 204.144421 
L 356.434771 202.896302 
L 358.91414 200.953667 
L 359.625524 200.42707 
L 362.816278 198.287484 
L 363.693233 197.762914 
L 366.007032 196.446282 
L 369.197786 194.85766 
L 369.869981 194.57216 
L 372.388539 193.548215 
L 375.579293 192.479643 
L 378.770047 191.644037 
L 380.168384 191.381406 
L 381.9608 191.057318 
L 385.151554 190.710233 
L 388.342308 190.594382 
" clip-path="url(#p0f786d1a81)" style="fill: none; stroke: #202020; stroke-width: 1.5"/>
    <path d="M 72.457692 190.594382 
L 75.648446 190.710233 
L 78.8392 191.057318 
L 80.631616 191.381406 
L 82.029953 191.644037 
L 85.220707 192.479643 
L 88.411461 193.548215 
L 90.930019 194.57216 
L 91.602214 194.85766 
L 94.792968 196.446282 
L 97.106767 197.762914 
L 97.983722 198.287484 
L 101.174476 200.42707 
L 101.88586 200.953667 
L 104.365229 202.896302 
L 105.826514 204.144421 
L 107.555983 205.720062 
L 109.199535 207.335175 
L 110.746737 208.971242 
L 112.122238 210.525929 
L 113.93749 212.756261 
L 114.674638 213.716682 
L 116.900569 216.907436 
L 117.128244 217.271771 
L 118.805675 220.09819 
L 120.318998 222.997084 
L 120.464622 223.288943 
L 121.832359 226.479697 
L 122.970281 229.670451 
L 123.509751 231.575561 
L 123.859743 232.861204 
L 124.499526 236.051958 
L 124.907895 239.242712 
L 125.083204 242.433465 
L 125.024748 245.624219 
L 124.732762 248.814973 
L 124.208422 252.005726 
L 123.509751 254.960058 
L 123.451593 255.19648 
L 122.430355 258.387234 
L 121.176894 261.577988 
L 120.318998 263.426746 
L 119.667455 264.768741 
L 117.886888 267.959495 
L 117.128244 269.166894 
L 115.816067 271.150249 
L 113.93749 273.713314 
L 113.449639 274.341002 
L 110.746737 277.521834 
L 110.737725 277.531756 
L 107.603957 280.72251 
L 107.555983 280.76811 
L 104.365229 283.57989 
L 103.952834 283.913263 
L 101.174476 286.027272 
L 99.612289 287.104017 
L 97.983722 288.168269 
L 94.792968 290.028306 
L 94.270544 290.294771 
L 91.602214 291.5936 
L 88.411461 292.918515 
L 86.753746 293.485524 
L 85.220707 293.988922 
L 82.029953 294.808235 
L 78.8392 295.395826 
L 75.648446 295.74933 
L 72.457692 295.867323 
" clip-path="url(#p0f786d1a81)" style="fill: none; stroke: #202020; stroke-width: 1.5"/>
   </g>
   <g id="PathCollection_3">
    <path d="M 388.342308 322.202308 
L 385.151554 322.101021 
L 381.9608 321.797567 
L 378.770047 321.29317 
L 375.579293 320.589859 
L 372.388539 319.690467 
L 370.404529 319.011554 
L 369.197786 318.596946 
L 366.007032 317.311856 
L 362.816278 315.843118 
L 362.773028 315.8208 
L 359.625524 314.183432 
L 356.920567 312.630047 
L 356.434771 312.347632 
L 353.244017 310.325556 
L 351.947485 309.439293 
L 350.053263 308.122964 
L 347.529744 306.248539 
L 346.86251 305.742487 
L 343.671756 303.176317 
L 343.531786 303.057786 
L 340.481002 300.407775 
L 339.886002 299.867032 
L 337.290249 297.435597 
L 336.510931 296.676278 
L 334.099495 294.24224 
L 333.374881 293.485524 
L 330.908741 290.802862 
L 330.455008 290.294771 
L 327.735769 287.104017 
L 327.717988 287.08201 
L 325.21899 283.913263 
L 324.527234 282.981355 
L 322.883268 280.72251 
L 321.33648 278.445904 
L 320.724876 277.531756 
L 318.750676 274.341002 
L 318.145726 273.272028 
L 316.958345 271.150249 
L 315.346562 267.959495 
L 314.954973 267.086645 
L 313.922422 264.768741 
L 312.6858 261.577988 
L 311.764219 258.769145 
L 311.639292 258.387234 
L 310.788933 255.19648 
L 310.135363 252.005726 
L 309.681214 248.814973 
L 309.428315 245.624219 
L 309.377685 242.433465 
L 309.529526 239.242712 
L 309.883228 236.051958 
L 310.437366 232.861204 
L 311.18971 229.670451 
L 311.764219 227.7358 
L 312.138358 226.479697 
L 313.280687 223.288943 
L 314.610357 220.09819 
L 314.954973 219.370784 
L 316.130304 216.907436 
L 317.82985 213.716682 
L 318.145726 213.177663 
L 319.717195 210.525929 
L 321.33648 208.012324 
L 321.779476 207.335175 
L 324.025649 204.144421 
L 324.527234 203.476429 
L 326.459305 200.953667 
L 327.717988 199.400942 
L 329.078422 197.762914 
L 330.908741 195.666471 
L 331.892249 194.57216 
L 334.099495 192.221288 
L 334.915353 191.381406 
L 337.290249 189.027774 
L 338.168875 188.190653 
L 340.481002 186.058688 
L 341.682378 184.999899 
L 343.671756 183.29468 
L 345.496596 181.809145 
L 346.86251 180.722607 
L 349.667576 178.618392 
L 350.053263 178.334413 
L 353.244017 176.13647 
L 354.353947 175.427638 
L 356.434771 174.117686 
L 359.625524 172.275038 
L 359.698458 172.236884 
L 362.816278 170.622341 
L 366.007032 169.148395 
L 366.260048 169.046131 
L 369.197786 167.865926 
L 372.388539 166.772422 
L 375.579293 165.871669 
L 375.653097 165.855377 
L 378.770047 165.16868 
L 381.9608 164.664536 
L 385.151554 164.361236 
L 388.342308 164.26 
" clip-path="url(#p0f786d1a81)" style="fill: none; stroke: #404040; stroke-width: 1.5"/>
    <path d="M 72.457692 164.26 
L 75.648446 164.361236 
L 78.8392 164.664536 
L 82.029953 165.16868 
L 85.146903 165.855377 
L 85.220707 165.871669 
L 88.411461 166.772422 
L 91.602214 167.865926 
L 94.539952 169.046131 
L 94.792968 169.148395 
L 97.983722 170.622341 
L 101.101542 172.236884 
L 101.174476 172.275038 
L 104.365229 174.117686 
L 106.446053 175.427638 
L 107.555983 176.13647 
L 110.746737 178.334413 
L 111.132424 178.618392 
L 113.93749 180.722607 
L 115.303404 181.809145 
L 117.128244 183.29468 
L 119.117622 184.999899 
L 120.318998 186.058688 
L 122.631125 188.190653 
L 123.509751 189.027774 
L 125.884647 191.381406 
L 126.700505 192.221288 
L 128.907751 194.57216 
L 129.891259 195.666471 
L 131.721578 197.762914 
L 133.082012 199.400942 
L 134.340695 200.953667 
L 136.272766 203.476429 
L 136.774351 204.144421 
L 139.020524 207.335175 
L 139.46352 208.012324 
L 141.082805 210.525929 
L 142.654274 213.177663 
L 142.97015 213.716682 
L 144.669696 216.907436 
L 145.845027 219.370784 
L 146.189643 220.09819 
L 147.519313 223.288943 
L 148.661642 226.479697 
L 149.035781 227.7358 
L 149.61029 229.670451 
L 150.362634 232.861204 
L 150.916772 236.051958 
L 151.270474 239.242712 
L 151.422315 242.433465 
L 151.371685 245.624219 
L 151.118786 248.814973 
L 150.664637 252.005726 
L 150.011067 255.19648 
L 149.160708 258.387234 
L 149.035781 258.769145 
L 148.1142 261.577988 
L 146.877578 264.768741 
L 145.845027 267.086645 
L 145.453438 267.959495 
L 143.841655 271.150249 
L 142.654274 273.272028 
L 142.049324 274.341002 
L 140.075124 277.531756 
L 139.46352 278.445904 
L 137.916732 280.72251 
L 136.272766 282.981355 
L 135.58101 283.913263 
L 133.082012 287.08201 
L 133.064231 287.104017 
L 130.344992 290.294771 
L 129.891259 290.802862 
L 127.425119 293.485524 
L 126.700505 294.24224 
L 124.289069 296.676278 
L 123.509751 297.435597 
L 120.913998 299.867032 
L 120.318998 300.407775 
L 117.268214 303.057786 
L 117.128244 303.176317 
L 113.93749 305.742487 
L 113.270256 306.248539 
L 110.746737 308.122964 
L 108.852515 309.439293 
L 107.555983 310.325556 
L 104.365229 312.347632 
L 103.879433 312.630047 
L 101.174476 314.183432 
L 98.026972 315.8208 
L 97.983722 315.843118 
L 94.792968 317.311856 
L 91.602214 318.596946 
L 90.395471 319.011554 
L 88.411461 319.690467 
L 85.220707 320.589859 
L 82.029953 321.29317 
L 78.8392 321.797567 
L 75.648446 322.101021 
L 72.457692 322.202308 
" clip-path="url(#p0f786d1a81)" style="fill: none; stroke: #404040; stroke-width: 1.5"/>
   </g>
   <g id="PathCollection_4">
    <path d="M 335.709488 322.202308 
L 334.099495 320.807311 
L 332.096297 319.011554 
L 330.908741 317.942671 
L 328.618664 315.8208 
L 327.717988 314.97949 
L 325.263035 312.630047 
L 324.527234 311.917199 
L 322.019538 309.439293 
L 321.33648 308.753139 
L 318.88129 306.248539 
L 318.145726 305.482362 
L 315.843941 303.057786 
L 314.954973 302.097288 
L 312.90537 299.867032 
L 311.764219 298.587198 
L 310.065512 296.676278 
L 308.573465 294.937481 
L 307.326298 293.485524 
L 305.382712 291.12855 
L 304.69169 290.294771 
L 302.191958 287.13426 
L 302.167819 287.104017 
L 299.75318 283.913263 
L 299.001204 282.857557 
L 297.46008 280.72251 
L 295.810451 278.274464 
L 295.30111 277.531756 
L 293.277499 274.341002 
L 292.619697 273.207019 
L 291.400098 271.150249 
L 289.692256 267.959495 
L 289.428943 267.405586 
L 288.141681 264.768741 
L 286.786483 261.577988 
L 286.23819 260.05309 
L 285.620065 258.387234 
L 284.655462 255.19648 
L 283.914087 252.005726 
L 283.398924 248.814973 
L 283.112049 245.624219 
L 283.054616 242.433465 
L 283.226857 239.242712 
L 283.628078 236.051958 
L 284.256663 232.861204 
L 285.110082 229.670451 
L 286.184897 226.479697 
L 286.23819 226.348073 
L 287.438413 223.288943 
L 288.895581 220.09819 
L 289.428943 219.070891 
L 290.522707 216.907436 
L 292.323543 213.716682 
L 292.619697 213.239743 
L 294.268208 210.525929 
L 295.810451 208.190373 
L 296.365339 207.335175 
L 298.593093 204.144421 
L 299.001204 203.596419 
L 300.943359 200.953667 
L 302.191958 199.3485 
L 303.414118 197.762914 
L 305.382712 195.333339 
L 305.996362 194.57216 
L 308.573465 191.512221 
L 308.683527 191.381406 
L 311.472116 188.190653 
L 311.764219 187.867187 
L 314.361338 184.999899 
L 314.954973 184.362471 
L 317.349774 181.809145 
L 318.145726 180.979891 
L 320.437907 178.618392 
L 321.33648 177.709743 
L 323.628308 175.427638 
L 324.527234 174.54527 
L 326.925825 172.236884 
L 327.717988 171.482218 
L 330.337901 169.046131 
L 330.908741 168.518552 
L 333.875071 165.855377 
L 334.099495 165.654295 
L 337.290249 162.891021 
L 337.562175 162.664623 
L 340.481002 160.229593 
L 341.428776 159.473869 
L 343.671756 157.674515 
L 345.49803 156.283116 
L 346.86251 155.232932 
L 349.811723 153.092362 
L 350.053263 152.914518 
L 353.244017 150.716575 
L 354.520139 149.901608 
L 356.434771 148.655863 
L 359.625524 146.751428 
L 359.700567 146.710855 
L 362.816278 144.986893 
L 365.788002 143.520101 
L 366.007032 143.408946 
L 369.197786 141.992141 
L 372.388539 140.783513 
L 373.844099 140.329347 
L 375.579293 139.769914 
L 378.770047 138.965477 
L 381.9608 138.388554 
L 385.151554 138.041469 
L 388.342308 137.925618 
" clip-path="url(#p0f786d1a81)" style="fill: none; stroke: #606060; stroke-width: 1.5"/>
    <path d="M 72.457692 137.925618 
L 75.648446 138.041469 
L 78.8392 138.388554 
L 82.029953 138.965477 
L 85.220707 139.769914 
L 86.955901 140.329347 
L 88.411461 140.783513 
L 91.602214 141.992141 
L 94.792968 143.408946 
L 95.011998 143.520101 
L 97.983722 144.986893 
L 101.099433 146.710855 
L 101.174476 146.751428 
L 104.365229 148.655863 
L 106.279861 149.901608 
L 107.555983 150.716575 
L 110.746737 152.914518 
L 110.988277 153.092362 
L 113.93749 155.232932 
L 115.30197 156.283116 
L 117.128244 157.674515 
L 119.371224 159.473869 
L 120.318998 160.229593 
L 123.237825 162.664623 
L 123.509751 162.891021 
L 126.700505 165.654295 
L 126.924929 165.855377 
L 129.891259 168.518552 
L 130.462099 169.046131 
L 133.082012 171.482218 
L 133.874175 172.236884 
L 136.272766 174.54527 
L 137.171692 175.427638 
L 139.46352 177.709743 
L 140.362093 178.618392 
L 142.654274 180.979891 
L 143.450226 181.809145 
L 145.845027 184.362471 
L 146.438662 184.999899 
L 149.035781 187.867187 
L 149.327884 188.190653 
L 152.116473 191.381406 
L 152.226535 191.512221 
L 154.803638 194.57216 
L 155.417288 195.333339 
L 157.385882 197.762914 
L 158.608042 199.3485 
L 159.856641 200.953667 
L 161.798796 203.596419 
L 162.206907 204.144421 
L 164.434661 207.335175 
L 164.989549 208.190373 
L 166.531792 210.525929 
L 168.180303 213.239743 
L 168.476457 213.716682 
L 170.277293 216.907436 
L 171.371057 219.070891 
L 171.904419 220.09819 
L 173.361587 223.288943 
L 174.56181 226.348073 
L 174.615103 226.479697 
L 175.689918 229.670451 
L 176.543337 232.861204 
L 177.171922 236.051958 
L 177.573143 239.242712 
L 177.745384 242.433465 
L 177.687951 245.624219 
L 177.401076 248.814973 
L 176.885913 252.005726 
L 176.144538 255.19648 
L 175.179935 258.387234 
L 174.56181 260.05309 
L 174.013517 261.577988 
L 172.658319 264.768741 
L 171.371057 267.405586 
L 171.107744 267.959495 
L 169.399902 271.150249 
L 168.180303 273.207019 
L 167.522501 274.341002 
L 165.49889 277.531756 
L 164.989549 278.274464 
L 163.33992 280.72251 
L 161.798796 282.857557 
L 161.04682 283.913263 
L 158.632181 287.104017 
L 158.608042 287.13426 
L 156.10831 290.294771 
L 155.417288 291.12855 
L 153.473702 293.485524 
L 152.226535 294.937481 
L 150.734488 296.676278 
L 149.035781 298.587198 
L 147.89463 299.867032 
L 145.845027 302.097288 
L 144.956059 303.057786 
L 142.654274 305.482362 
L 141.91871 306.248539 
L 139.46352 308.753139 
L 138.780462 309.439293 
L 136.272766 311.917199 
L 135.536965 312.630047 
L 133.082012 314.97949 
L 132.181336 315.8208 
L 129.891259 317.942671 
L 128.703703 319.011554 
L 126.700505 320.807311 
L 125.090512 322.202308 
" clip-path="url(#p0f786d1a81)" style="fill: none; stroke: #606060; stroke-width: 1.5"/>
    <path d="M 388.342308 32.652677 
L 385.151554 32.534684 
L 381.9608 32.18118 
L 380.128325 31.843722 
L 378.770047 31.602271 
L 375.579293 30.811397 
L 372.388539 29.80003 
L 369.407577 28.652968 
L 369.197786 28.574645 
L 366.007032 27.178226 
L 362.816278 25.582249 
L 362.602204 25.462214 
L 359.625524 23.83503 
L 357.034485 22.271461 
L 356.434771 21.91703 
L 353.244017 19.861368 
L 352.120631 19.080707 
L 350.053263 17.667528 
L 347.620383 15.889953 
L 346.86251 15.34295 
L 343.671756 12.900864 
L 343.421516 12.6992 
L 340.481002 10.348608 
L 339.476453 9.508446 
L 337.290249 7.687361 
L 335.709488 6.317692 
" clip-path="url(#p0f786d1a81)" style="fill: none; stroke: #606060; stroke-width: 1.5"/>
    <path d="M 125.090512 6.317692 
L 123.509751 7.687361 
L 121.323547 9.508446 
L 120.318998 10.348608 
L 117.378484 12.6992 
L 117.128244 12.900864 
L 113.93749 15.34295 
L 113.179617 15.889953 
L 110.746737 17.667528 
L 108.679369 19.080707 
L 107.555983 19.861368 
L 104.365229 21.91703 
L 103.765515 22.271461 
L 101.174476 23.83503 
L 98.197796 25.462214 
L 97.983722 25.582249 
L 94.792968 27.178226 
L 91.602214 28.574645 
L 91.392423 28.652968 
L 88.411461 29.80003 
L 85.220707 30.811397 
L 82.029953 31.602271 
L 80.671675 31.843722 
L 78.8392 32.18118 
L 75.648446 32.534684 
L 72.457692 32.652677 
" clip-path="url(#p0f786d1a81)" style="fill: none; stroke: #606060; stroke-width: 1.5"/>
   </g>
   <g id="PathCollection_5">
    <path d="M 309.371355 322.202308 
L 308.573465 321.404117 
L 306.179395 319.011554 
L 305.382712 318.212153 
L 302.987429 315.8208 
L 302.191958 315.020174 
L 299.795445 312.630047 
L 299.001204 311.82817 
L 296.603433 309.439293 
L 295.810451 308.63613 
L 293.411381 306.248539 
L 292.619697 305.444041 
L 290.219278 303.057786 
L 289.428943 302.251888 
L 287.027107 299.867032 
L 286.23819 299.059656 
L 283.834851 296.676278 
L 283.047436 295.867323 
L 280.64249 293.485524 
L 279.856682 292.674865 
L 277.449997 290.294771 
L 276.665929 289.482252 
L 274.257338 287.104017 
L 273.475175 286.289443 
L 271.064472 283.913263 
L 270.284421 283.096386 
L 267.871343 280.72251 
L 267.093667 279.903011 
L 264.677875 277.531756 
L 263.902914 276.709221 
L 261.483962 274.341002 
L 260.71216 273.514877 
L 258.289451 271.150249 
L 257.521406 270.319776 
L 255.094117 267.959495 
L 254.330653 267.123599 
L 251.8976 264.768741 
L 251.139899 263.925826 
L 248.699308 261.577988 
L 247.949145 260.725543 
L 245.498171 258.387234 
L 244.758392 257.520973 
L 242.292052 255.19648 
L 241.567638 254.308155 
L 239.075963 252.005726 
L 238.376884 251.076087 
L 235.834947 248.814973 
L 235.186131 247.778565 
L 232.494215 245.624219 
L 231.995377 243.630124 
L 228.804623 243.630124 
L 228.305785 245.624219 
L 225.613869 247.778565 
L 224.965053 248.814973 
L 222.423116 251.076087 
L 221.724037 252.005726 
L 219.232362 254.308155 
L 218.507948 255.19648 
L 216.041608 257.520973 
L 215.301829 258.387234 
L 212.850855 260.725543 
L 212.100692 261.577988 
L 209.660101 263.925826 
L 208.9024 264.768741 
L 206.469347 267.123599 
L 205.705883 267.959495 
L 203.278594 270.319776 
L 202.510549 271.150249 
L 200.08784 273.514877 
L 199.316038 274.341002 
L 196.897086 276.709221 
L 196.122125 277.531756 
L 193.706333 279.903011 
L 192.928657 280.72251 
L 190.515579 283.096386 
L 189.735528 283.913263 
L 187.324825 286.289443 
L 186.542662 287.104017 
L 184.134071 289.482252 
L 183.350003 290.294771 
L 180.943318 292.674865 
L 180.15751 293.485524 
L 177.752564 295.867323 
L 176.965149 296.676278 
L 174.56181 299.059656 
L 173.772893 299.867032 
L 171.371057 302.251888 
L 170.580722 303.057786 
L 168.180303 305.444041 
L 167.388619 306.248539 
L 164.989549 308.63613 
L 164.196567 309.439293 
L 161.798796 311.82817 
L 161.004555 312.630047 
L 158.608042 315.020174 
L 157.812571 315.8208 
L 155.417288 318.212153 
L 154.620605 319.011554 
L 152.226535 321.404117 
L 151.428645 322.202308 
" clip-path="url(#p0f786d1a81)" style="fill: none; stroke: #808080; stroke-width: 1.5"/>
    <path d="M 151.428645 6.317692 
L 78.8392 79.039491 
L 77.84278 79.705027 
L 75.648446 82.337012 
L 74.252755 82.895781 
L 72.657177 86.086535 
L 75.648446 88.081132 
L 76.247202 89.277288 
L 78.8392 91.500213 
L 79.518133 92.468042 
L 82.029953 94.753532 
L 82.74348 95.658796 
L 85.220707 97.973699 
L 85.953634 98.849549 
L 89.156885 102.040303 
L 94.792968 107.582649 
L 95.553728 108.42181 
L 101.174476 113.97513 
L 101.944485 114.803318 
L 110.746737 123.557435 
L 113.93749 126.750641 
L 117.911383 130.757086 
L 130.680894 143.520101 
L 156.216994 169.046131 
L 212.850855 225.731805 
L 213.706251 226.479697 
L 216.041608 228.933922 
L 216.912371 229.670451 
L 219.232362 232.141878 
L 220.12846 232.861204 
L 222.423116 235.362046 
L 223.369476 236.051958 
L 225.613869 238.615364 
L 226.710208 239.242712 
L 228.804623 242.034445 
L 231.995377 242.034445 
L 234.089792 239.242712 
L 235.186131 238.615364 
L 237.430524 236.051958 
L 238.376884 235.362046 
L 240.67154 232.861204 
L 241.567638 232.141878 
L 243.887629 229.670451 
L 244.758392 228.933922 
L 247.949145 225.731805 
L 253.493178 220.09819 
L 254.330653 219.336038 
L 259.885029 213.716682 
L 260.71216 212.945756 
L 269.466921 204.144421 
L 273.475175 200.172011 
L 285.430429 188.190653 
L 292.619697 181.017793 
L 324.527234 149.097785 
L 352.46765 121.184825 
L 353.244017 120.363867 
L 362.050402 111.612564 
L 362.816278 110.77954 
L 368.44358 105.231057 
L 369.197786 104.383773 
L 374.846366 98.849549 
L 375.579293 97.973699 
L 378.05652 95.658796 
L 378.770047 94.753532 
L 381.281867 92.468042 
L 381.9608 91.500213 
L 384.552798 89.277288 
L 385.151554 88.081132 
L 388.142823 86.086535 
L 386.547245 82.895781 
L 385.151554 82.337012 
L 382.95722 79.705027 
L 381.9608 79.039491 
L 379.68629 76.514274 
L 378.770047 75.807423 
L 376.460942 73.32352 
L 375.579293 72.594605 
L 373.250788 70.132766 
L 372.388539 69.390035 
L 366.848002 63.751259 
L 366.007032 62.991979 
L 360.454825 57.369751 
L 359.625524 56.6007 
L 350.872073 47.79749 
L 350.053263 47.019192 
L 340.481002 37.440712 
L 325.331393 22.271461 
L 314.954973 11.903425 
L 309.371355 6.317692 
L 309.371355 6.317692 
" clip-path="url(#p0f786d1a81)" style="fill: none; stroke: #808080; stroke-width: 1.5"/>
   </g>
   <g id="PathCollection_6">
    <path d="M 283.047436 322.202308 
L 279.856682 319.489677 
L 279.270018 319.011554 
L 276.665929 316.880677 
L 275.30655 315.8208 
L 273.475175 314.381304 
L 271.121133 312.630047 
L 270.284421 311.999922 
L 267.093667 309.742587 
L 266.633419 309.439293 
L 263.902914 307.610061 
L 261.699585 306.248539 
L 260.71216 305.625514 
L 257.521406 303.789752 
L 256.106704 303.057786 
L 254.330653 302.1152 
L 251.139899 300.618249 
L 249.288228 299.867032 
L 247.949145 299.3071 
L 244.758392 298.186959 
L 241.567638 297.285384 
L 238.706917 296.676278 
L 238.376884 296.60348 
L 235.186131 296.132696 
L 231.995377 295.896829 
L 228.804623 295.896829 
L 225.613869 296.132696 
L 222.423116 296.60348 
L 222.093083 296.676278 
L 219.232362 297.285384 
L 216.041608 298.186959 
L 212.850855 299.3071 
L 211.511772 299.867032 
L 209.660101 300.618249 
L 206.469347 302.1152 
L 204.693296 303.057786 
L 203.278594 303.789752 
L 200.08784 305.625514 
L 199.100415 306.248539 
L 196.897086 307.610061 
L 194.166581 309.439293 
L 193.706333 309.742587 
L 190.515579 311.999922 
L 189.678867 312.630047 
L 187.324825 314.381304 
L 185.49345 315.8208 
L 184.134071 316.880677 
L 181.529982 319.011554 
L 180.943318 319.489677 
L 177.752564 322.202308 
L 177.752564 322.202308 
" clip-path="url(#p0f786d1a81)" style="fill: none; stroke: #a0a0a0; stroke-width: 1.5"/>
    <path d="M 177.752564 6.317692 
L 170.674657 12.6992 
L 164.07777 19.080707 
L 157.900864 25.462214 
L 152.122803 31.843722 
L 146.74946 38.225229 
L 141.810189 44.606737 
L 137.356528 50.988244 
L 133.463035 57.369751 
L 130.206526 63.751259 
L 128.839974 66.942012 
L 127.675241 70.132766 
L 126.700505 73.436335 
L 125.972602 76.514274 
L 125.448263 79.705027 
L 125.156277 82.895781 
L 125.097821 86.086535 
L 125.27313 89.277288 
L 125.681498 92.468042 
L 126.700505 97.051817 
L 127.173535 98.849549 
L 128.230908 102.040303 
L 129.891259 106.071007 
L 130.950026 108.42181 
L 133.082012 112.484195 
L 134.375875 114.803318 
L 138.420621 121.184825 
L 143.003736 127.566333 
L 148.05328 133.94784 
L 153.53072 140.329347 
L 159.407878 146.710855 
L 165.685456 153.092362 
L 172.399171 159.473869 
L 177.752564 164.26 
L 184.134071 169.581104 
L 190.515579 174.463094 
L 196.897086 178.847058 
L 201.793908 181.809145 
L 203.278594 182.673761 
L 207.884389 184.999899 
L 209.660101 185.845142 
L 212.850855 187.158519 
L 216.041608 188.263527 
L 219.232362 189.180563 
L 222.423116 189.871591 
L 225.613869 190.333827 
L 228.804623 190.565412 
L 231.995377 190.565412 
L 235.186131 190.333827 
L 238.376884 189.871591 
L 241.567638 189.180563 
L 244.962476 188.190653 
L 247.949145 187.158519 
L 252.915611 184.999899 
L 254.330653 184.344795 
L 259.006092 181.809145 
L 260.71216 180.838302 
L 264.240894 178.618392 
L 268.91195 175.427638 
L 273.260196 172.236884 
L 276.665929 169.581104 
L 283.047436 164.26 
L 289.428943 158.531079 
L 295.810451 152.405835 
L 302.191958 145.862393 
L 307.26928 140.329347 
L 312.74672 133.94784 
L 318.145726 127.088386 
L 322.379379 121.184825 
L 326.424125 114.803318 
L 328.216219 111.612564 
L 329.849974 108.42181 
L 331.298173 105.231057 
L 332.569092 102.040303 
L 333.626465 98.849549 
L 334.478718 95.658796 
L 335.118502 92.468042 
L 335.52687 89.277288 
L 335.702179 86.086535 
L 335.643723 82.895781 
L 335.351737 79.705027 
L 334.827398 76.514274 
L 334.073708 73.32352 
L 333.124759 70.132766 
L 331.960026 66.942012 
L 330.593474 63.751259 
L 329.057289 60.560505 
L 327.336965 57.369751 
L 324.527234 52.713077 
L 323.443472 50.988244 
L 318.989811 44.606737 
L 314.05054 38.225229 
L 308.573465 31.727031 
L 302.191958 24.714288 
L 295.810451 18.17231 
L 289.428943 12.0457 
L 283.047436 6.317692 
L 283.047436 6.317692 
" clip-path="url(#p0f786d1a81)" style="fill: none; stroke: #a0a0a0; stroke-width: 1.5"/>
   </g>
   <g id="PathCollection_7">
    <path d="M 219.232362 163.024535 
L 222.423116 163.628389 
L 225.613869 164.032315 
L 228.804623 164.234685 
L 231.995377 164.234685 
L 235.186131 164.032315 
L 238.376884 163.628389 
L 241.567638 163.024535 
L 243.000705 162.664623 
L 244.758392 162.222293 
L 247.949145 161.224663 
L 251.139899 160.036387 
L 252.446068 159.473869 
L 254.330653 158.657315 
L 257.521406 157.093399 
L 259.008095 156.283116 
L 260.71216 155.344874 
L 263.902914 153.418234 
L 264.400718 153.092362 
L 267.093667 151.30405 
L 269.060821 149.901608 
L 270.284421 149.012853 
L 273.26167 146.710855 
L 273.475175 146.541914 
L 276.665929 143.874338 
L 277.069651 143.520101 
L 279.856682 141.005778 
L 280.575464 140.329347 
L 283.047436 137.925618 
L 283.827671 137.138594 
L 286.23819 134.612887 
L 286.853244 133.94784 
L 289.428943 131.038334 
L 289.671389 130.757086 
L 292.287955 127.566333 
L 292.619697 127.138142 
L 294.713483 124.375579 
L 295.810451 122.831758 
L 296.960323 121.184825 
L 299.001204 118.039407 
L 299.030232 117.994071 
L 300.909602 114.803318 
L 302.191958 112.407997 
L 302.613931 111.612564 
L 304.130174 108.42181 
L 305.382712 105.42524 
L 305.46347 105.231057 
L 306.603497 102.040303 
L 307.551971 98.849549 
L 308.305073 95.658796 
L 308.573465 94.114935 
L 308.859481 92.468042 
L 309.213183 89.277288 
L 309.365025 86.086535 
L 309.314394 82.895781 
L 309.061495 79.705027 
L 308.607346 76.514274 
L 308.573465 76.348866 
L 307.953152 73.32352 
L 307.101935 70.132766 
L 306.057159 66.942012 
L 305.382712 65.198279 
L 304.820197 63.751259 
L 303.394505 60.560505 
L 302.191958 58.17023 
L 301.785544 57.369751 
L 299.990856 54.178998 
L 299.001204 52.569682 
L 298.01569 50.988244 
L 295.865582 47.79749 
L 295.810451 47.721112 
L 293.522619 44.606737 
L 292.619697 43.449829 
L 290.997092 41.415983 
L 289.428943 39.552391 
L 288.282085 38.225229 
L 286.23819 35.968042 
L 285.365816 35.034476 
L 283.047436 32.652677 
L 282.230619 31.843722 
L 279.856682 29.574242 
L 278.851422 28.652968 
L 276.665929 26.709693 
L 275.193493 25.462214 
L 273.475175 24.042956 
L 271.209071 22.271461 
L 270.284421 21.563545 
L 267.093667 19.268716 
L 266.813025 19.080707 
L 263.902914 17.163005 
L 261.808537 15.889953 
L 260.71216 15.231634 
L 257.521406 13.484638 
L 255.926224 12.6992 
L 254.330653 11.919909 
L 251.139899 10.542302 
L 248.370789 9.508446 
L 247.949145 9.351658 
L 244.758392 8.355535 
L 241.567638 7.55378 
L 238.376884 6.949621 
L 235.186131 6.545492 
L 231.995377 6.34302 
L 228.804623 6.34302 
L 225.613869 6.545492 
L 222.423116 6.949621 
L 219.232362 7.55378 
L 216.041608 8.355535 
L 212.850855 9.351658 
L 212.429211 9.508446 
L 209.660101 10.542302 
L 206.469347 11.919909 
L 204.873776 12.6992 
L 203.278594 13.484638 
L 200.08784 15.231634 
L 198.991463 15.889953 
L 196.897086 17.163005 
L 193.986975 19.080707 
L 193.706333 19.268716 
L 190.515579 21.563545 
L 189.590929 22.271461 
L 187.324825 24.042956 
L 185.606507 25.462214 
L 184.134071 26.709693 
L 181.948578 28.652968 
L 180.943318 29.574242 
L 178.569381 31.843722 
L 177.752564 32.652677 
L 175.434184 35.034476 
L 174.56181 35.968042 
L 172.517915 38.225229 
L 171.371057 39.552391 
L 169.802908 41.415983 
L 168.180303 43.449829 
L 167.277381 44.606737 
L 164.989549 47.721112 
L 164.934418 47.79749 
L 162.78431 50.988244 
L 161.798796 52.569682 
L 160.809144 54.178998 
L 159.014456 57.369751 
L 158.608042 58.17023 
L 157.405495 60.560505 
L 155.979803 63.751259 
L 155.417288 65.198279 
L 154.742841 66.942012 
L 153.698065 70.132766 
L 152.846848 73.32352 
L 152.226535 76.348866 
L 152.192654 76.514274 
L 151.738505 79.705027 
L 151.485606 82.895781 
L 151.434975 86.086535 
L 151.586817 89.277288 
L 151.940519 92.468042 
L 152.226535 94.114935 
L 152.494927 95.658796 
L 153.248029 98.849549 
L 154.196503 102.040303 
L 155.33653 105.231057 
L 155.417288 105.42524 
L 156.669826 108.42181 
L 158.186069 111.612564 
L 158.608042 112.407997 
L 159.890398 114.803318 
L 161.769768 117.994071 
L 161.798796 118.039407 
L 163.839677 121.184825 
L 164.989549 122.831758 
L 166.086517 124.375579 
L 168.180303 127.138142 
L 168.512045 127.566333 
L 171.128611 130.757086 
L 171.371057 131.038334 
L 173.946756 133.94784 
L 174.56181 134.612887 
L 176.972329 137.138594 
L 177.752564 137.925618 
L 180.224536 140.329347 
L 180.943318 141.005778 
L 183.730349 143.520101 
L 184.134071 143.874338 
L 187.324825 146.541914 
L 187.53833 146.710855 
L 190.515579 149.012853 
L 191.739179 149.901608 
L 193.706333 151.30405 
L 196.399282 153.092362 
L 196.897086 153.418234 
L 200.08784 155.344874 
L 201.791905 156.283116 
L 203.278594 157.093399 
L 206.469347 158.657315 
L 208.353932 159.473869 
L 209.660101 160.036387 
L 212.850855 161.224663 
L 216.041608 162.222293 
L 217.799295 162.664623 
L 219.232362 163.024535 
z
" clip-path="url(#p0f786d1a81)" style="fill: none; stroke: #c0c0c0; stroke-width: 1.5"/>
   </g>
   <g id="PathCollection_8">
    <path d="M 222.423116 137.202827 
L 225.613869 137.665063 
L 228.804623 137.896648 
L 231.995377 137.896648 
L 235.186131 137.665063 
L 238.376884 137.202827 
L 238.673474 137.138594 
L 241.567638 136.487513 
L 244.758392 135.534944 
L 247.949145 134.351446 
L 248.862704 133.94784 
L 251.139899 132.896829 
L 254.330653 131.193836 
L 255.054025 130.757086 
L 257.521406 129.191077 
L 259.823538 127.566333 
L 260.71216 126.902518 
L 263.796673 124.375579 
L 263.902914 124.282741 
L 267.093667 121.259973 
L 267.167555 121.184825 
L 270.083074 117.994071 
L 270.284421 117.754533 
L 272.614795 114.803318 
L 273.475175 113.604536 
L 274.828294 111.612564 
L 276.665929 108.592532 
L 276.764909 108.42181 
L 278.39212 105.231057 
L 279.790069 102.040303 
L 279.856682 101.857556 
L 280.907773 98.849549 
L 281.793057 95.658796 
L 282.445113 92.468042 
L 282.861315 89.277288 
L 283.039987 86.086535 
L 282.98041 82.895781 
L 282.682823 79.705027 
L 282.148425 76.514274 
L 281.379368 73.32352 
L 280.378748 70.132766 
L 279.856682 68.776435 
L 279.120126 66.942012 
L 277.606784 63.751259 
L 276.665929 62.025396 
L 275.827802 60.560505 
L 273.772292 57.369751 
L 273.475175 56.953435 
L 271.383106 54.178998 
L 270.284421 52.846316 
L 268.653787 50.988244 
L 267.093667 49.344221 
L 265.517885 47.79749 
L 263.902914 46.317632 
L 261.878737 44.606737 
L 260.71216 43.678646 
L 257.593116 41.415983 
L 257.521406 41.366661 
L 254.330653 39.393087 
L 252.194754 38.225229 
L 251.139899 37.674805 
L 247.949145 36.235061 
L 244.779952 35.034476 
L 244.758392 35.026635 
L 241.567638 34.092641 
L 238.376884 33.388834 
L 235.186131 32.91805 
L 231.995377 32.682183 
L 228.804623 32.682183 
L 225.613869 32.91805 
L 222.423116 33.388834 
L 219.232362 34.092641 
L 216.041608 35.026635 
L 216.020048 35.034476 
L 212.850855 36.235061 
L 209.660101 37.674805 
L 208.605246 38.225229 
L 206.469347 39.393087 
L 203.278594 41.366661 
L 203.206884 41.415983 
L 200.08784 43.678646 
L 198.921263 44.606737 
L 196.897086 46.317632 
L 195.282115 47.79749 
L 193.706333 49.344221 
L 192.146213 50.988244 
L 190.515579 52.846316 
L 189.416894 54.178998 
L 187.324825 56.953435 
L 187.027708 57.369751 
L 184.972198 60.560505 
L 184.134071 62.025396 
L 183.193216 63.751259 
L 181.679874 66.942012 
L 180.943318 68.776435 
L 180.421252 70.132766 
L 179.420632 73.32352 
L 178.651575 76.514274 
L 178.117177 79.705027 
L 177.81959 82.895781 
L 177.760013 86.086535 
L 177.938685 89.277288 
L 178.354887 92.468042 
L 179.006943 95.658796 
L 179.892227 98.849549 
L 180.943318 101.857556 
L 181.009931 102.040303 
L 182.40788 105.231057 
L 184.035091 108.42181 
L 184.134071 108.592532 
L 185.971706 111.612564 
L 187.324825 113.604536 
L 188.185205 114.803318 
L 190.515579 117.754533 
L 190.716926 117.994071 
L 193.632445 121.184825 
L 193.706333 121.259973 
L 196.897086 124.282741 
L 197.003327 124.375579 
L 200.08784 126.902518 
L 200.976462 127.566333 
L 203.278594 129.191077 
L 205.745975 130.757086 
L 206.469347 131.193836 
L 209.660101 132.896829 
L 211.937296 133.94784 
L 212.850855 134.351446 
L 216.041608 135.534944 
L 219.232362 136.487513 
L 222.126526 137.138594 
L 222.423116 137.202827 
z
" clip-path="url(#p0f786d1a81)" style="fill: none; stroke: #e0e0e0; stroke-width: 1.5"/>
   </g>
   <g id="PathCollection_9"/>
   <g id="line2d_67">
    <path d="M 66.14 164.26 
L 394.66 164.26 
" clip-path="url(#p0f786d1a81)" style="fill: none; stroke: #000000; stroke-width: 0.8; stroke-linecap: square"/>
   </g>
   <g id="line2d_68">
    <path d="M 230.4 328.52 
L 230.4 0 
" clip-path="url(#p0f786d1a81)" style="fill: none; stroke: #000000; stroke-width: 0.8; stroke-linecap: square"/>
   </g>
   <g id="patch_3">
    <path d="M 66.14 328.52 
L 66.14 -0 
" style="fill: none; stroke: #000000; stroke-width: 0.8; stroke-linejoin: miter; stroke-linecap: square"/>
   </g>
   <g id="patch_4">
    <path d="M 394.66 328.52 
L 394.66 -0 
" style="fill: none; stroke: #000000; stroke-width: 0.8; stroke-linejoin: miter; stroke-linecap: square"/>
   </g>
   <g id="patch_5">
    <path d="M 66.14 328.52 
L 394.66 328.52 
" style="fill: none; stroke: #000000; stroke-width: 0.8; stroke-linejoin: miter; stroke-linecap: square"/>
   </g>
   <g id="patch_6">
    <path d="M 66.14 0 
L 394.66 0 
" style="fill: none; stroke: #000000; stroke-width: 0.8; stroke-linejoin: miter; stroke-linecap: square"/>
   </g>
  </g>
 </g>
 <defs>
  <clipPath id="p0f786d1a81">
   <rect x="66.14" y="0" width="328.52" height="328.52"/>
  </clipPath>
 </defs>
</svg>
