<?xml version="1.0" encoding="utf-8" standalone="no"?>
<!DOCTYPE svg PUBLIC "-//W3C//DTD SVG 1.1//EN"
  "http://www.w3.org/Graphics/SVG/1.1/DTD/svg11.dtd">
<svg xmlns:xlink="http://www.w3.org/1999/xlink" width="460.8pt" height="345.6pt" viewBox="0 0 460.8 345.6" xmlns="http://www.w3.org/2000/svg" version="1.1">
 <metadata>
  <rdf:RDF xmlns:dc="http://purl.org/dc/elements/1.1/" xmlns:cc="http://creativecommons.org/ns#" xmlns:rdf="http://www.w3.org/1999/02/22-rdf-syntax-ns#">
   <cc:Work>
    <dc:type rdf:resource="http://purl.org/dc/dcmitype/StillImage"/>
    <dc:date>2023-12-06T18:11:41.332848</dc:date>
    <dc:format>image/svg+xml</dc:format>
    <dc:creator>
     <cc:Agent>
      <dc:title>Matplotlib v3.8.0, https://matplotlib.org/</dc:title>
     </cc:Agent>
    </dc:creator>
   </cc:Work>
  </rdf:RDF>
 </metadata>
 <defs>
  <style type="text/css">*{stroke-linejoin: round; stroke-linecap: butt}</style>
 </defs>
 <g id="figure_1">
  <g id="patch_1">
   <path d="M 0 345.6 
L 460.8 345.6 
L 460.8 0 
L 0 0 
z
" style="fill: #ffffff"/>
  </g>
  <g id="axes_1">
   <g id="patch_2">
    <path d="M 66.14 328.52 
L 394.66 328.52 
L 394.66 0 
L 66.14 0 
z
" style="fill: #ffffff"/>
   </g>
   <g id="matplotlib.axis_1">
    <g id="xtick_1">
     <g id="line2d_1">
      <defs>
       <path id="m637904a7e7" d="M 0 0 
L 0 3.5 
" style="stroke: #000000; stroke-width: 0.8"/>
      </defs>
      <g>
       <use xlink:href="#m637904a7e7" x="72.457692" y="328.52" style="stroke: #000000; stroke-width: 0.8"/>
      </g>
     </g>
     <g id="text_1">
      <!-- −3 -->
      <g transform="translate(65.086599 343.118437) scale(0.1 -0.1)">
       <defs>
        <path id="DejaVuSans-2212" d="M 678 2272 
L 4684 2272 
L 4684 1741 
L 678 1741 
L 678 2272 
z
" transform="scale(0.015625)"/>
        <path id="DejaVuSans-33" d="M 2597 2516 
Q 3050 2419 3304 2112 
Q 3559 1806 3559 1356 
Q 3559 666 3084 287 
Q 2609 -91 1734 -91 
Q 1441 -91 1130 -33 
Q 819 25 488 141 
L 488 750 
Q 750 597 1062 519 
Q 1375 441 1716 441 
Q 2309 441 2620 675 
Q 2931 909 2931 1356 
Q 2931 1769 2642 2001 
Q 2353 2234 1838 2234 
L 1294 2234 
L 1294 2753 
L 1863 2753 
Q 2328 2753 2575 2939 
Q 2822 3125 2822 3475 
Q 2822 3834 2567 4026 
Q 2313 4219 1838 4219 
Q 1578 4219 1281 4162 
Q 984 4106 628 3988 
L 628 4550 
Q 988 4650 1302 4700 
Q 1616 4750 1894 4750 
Q 2613 4750 3031 4423 
Q 3450 4097 3450 3541 
Q 3450 3153 3228 2886 
Q 3006 2619 2597 2516 
z
" transform="scale(0.015625)"/>
       </defs>
       <use xlink:href="#DejaVuSans-2212"/>
       <use xlink:href="#DejaVuSans-33" x="83.789062"/>
      </g>
     </g>
    </g>
    <g id="xtick_2">
     <g id="line2d_2">
      <g>
       <use xlink:href="#m637904a7e7" x="125.105128" y="328.52" style="stroke: #000000; stroke-width: 0.8"/>
      </g>
     </g>
     <g id="text_2">
      <!-- −2 -->
      <g transform="translate(117.734034 343.118437) scale(0.1 -0.1)">
       <defs>
        <path id="DejaVuSans-32" d="M 1228 531 
L 3431 531 
L 3431 0 
L 469 0 
L 469 531 
Q 828 903 1448 1529 
Q 2069 2156 2228 2338 
Q 2531 2678 2651 2914 
Q 2772 3150 2772 3378 
Q 2772 3750 2511 3984 
Q 2250 4219 1831 4219 
Q 1534 4219 1204 4116 
Q 875 4013 500 3803 
L 500 4441 
Q 881 4594 1212 4672 
Q 1544 4750 1819 4750 
Q 2544 4750 2975 4387 
Q 3406 4025 3406 3419 
Q 3406 3131 3298 2873 
Q 3191 2616 2906 2266 
Q 2828 2175 2409 1742 
Q 1991 1309 1228 531 
z
" transform="scale(0.015625)"/>
       </defs>
       <use xlink:href="#DejaVuSans-2212"/>
       <use xlink:href="#DejaVuSans-32" x="83.789062"/>
      </g>
     </g>
    </g>
    <g id="xtick_3">
     <g id="line2d_3">
      <g>
       <use xlink:href="#m637904a7e7" x="177.752564" y="328.52" style="stroke: #000000; stroke-width: 0.8"/>
      </g>
     </g>
     <g id="text_3">
      <!-- −1 -->
      <g transform="translate(170.38147 343.118437) scale(0.1 -0.1)">
       <defs>
        <path id="DejaVuSans-31" d="M 794 531 
L 1825 531 
L 1825 4091 
L 703 3866 
L 703 4441 
L 1819 4666 
L 2450 4666 
L 2450 531 
L 3481 531 
L 3481 0 
L 794 0 
L 794 531 
z
" transform="scale(0.015625)"/>
       </defs>
       <use xlink:href="#DejaVuSans-2212"/>
       <use xlink:href="#DejaVuSans-31" x="83.789062"/>
      </g>
     </g>
    </g>
    <g id="xtick_4">
     <g id="line2d_4">
      <g>
       <use xlink:href="#m637904a7e7" x="230.4" y="328.52" style="stroke: #000000; stroke-width: 0.8"/>
      </g>
     </g>
     <g id="text_4">
      <!-- 0 -->
      <g transform="translate(227.21875 343.118437) scale(0.1 -0.1)">
       <defs>
        <path id="DejaVuSans-30" d="M 2034 4250 
Q 1547 4250 1301 3770 
Q 1056 3291 1056 2328 
Q 1056 1369 1301 889 
Q 1547 409 2034 409 
Q 2525 409 2770 889 
Q 3016 1369 3016 2328 
Q 3016 3291 2770 3770 
Q 2525 4250 2034 4250 
z
M 2034 4750 
Q 2819 4750 3233 4129 
Q 3647 3509 3647 2328 
Q 3647 1150 3233 529 
Q 2819 -91 2034 -91 
Q 1250 -91 836 529 
Q 422 1150 422 2328 
Q 422 3509 836 4129 
Q 1250 4750 2034 4750 
z
" transform="scale(0.015625)"/>
       </defs>
       <use xlink:href="#DejaVuSans-30"/>
      </g>
     </g>
    </g>
    <g id="xtick_5">
     <g id="line2d_5">
      <g>
       <use xlink:href="#m637904a7e7" x="283.047436" y="328.52" style="stroke: #000000; stroke-width: 0.8"/>
      </g>
     </g>
     <g id="text_5">
      <!-- 1 -->
      <g transform="translate(279.866186 343.118437) scale(0.1 -0.1)">
       <use xlink:href="#DejaVuSans-31"/>
      </g>
     </g>
    </g>
    <g id="xtick_6">
     <g id="line2d_6">
      <g>
       <use xlink:href="#m637904a7e7" x="335.694872" y="328.52" style="stroke: #000000; stroke-width: 0.8"/>
      </g>
     </g>
     <g id="text_6">
      <!-- 2 -->
      <g transform="translate(332.513622 343.118437) scale(0.1 -0.1)">
       <use xlink:href="#DejaVuSans-32"/>
      </g>
     </g>
    </g>
    <g id="xtick_7">
     <g id="line2d_7">
      <g>
       <use xlink:href="#m637904a7e7" x="388.342308" y="328.52" style="stroke: #000000; stroke-width: 0.8"/>
      </g>
     </g>
     <g id="text_7">
      <!-- 3 -->
      <g transform="translate(385.161058 343.118437) scale(0.1 -0.1)">
       <use xlink:href="#DejaVuSans-33"/>
      </g>
     </g>
    </g>
    <g id="xtick_8">
     <g id="line2d_8">
      <defs>
       <path id="m338b306358" d="M 0 0 
L 0 2 
" style="stroke: #000000; stroke-width: 0.6"/>
      </defs>
      <g>
       <use xlink:href="#m338b306358" x="82.987179" y="328.52" style="stroke: #000000; stroke-width: 0.6"/>
      </g>
     </g>
    </g>
    <g id="xtick_9">
     <g id="line2d_9">
      <g>
       <use xlink:href="#m338b306358" x="93.516667" y="328.52" style="stroke: #000000; stroke-width: 0.6"/>
      </g>
     </g>
    </g>
    <g id="xtick_10">
     <g id="line2d_10">
      <g>
       <use xlink:href="#m338b306358" x="104.046154" y="328.52" style="stroke: #000000; stroke-width: 0.6"/>
      </g>
     </g>
    </g>
    <g id="xtick_11">
     <g id="line2d_11">
      <g>
       <use xlink:href="#m338b306358" x="114.575641" y="328.52" style="stroke: #000000; stroke-width: 0.6"/>
      </g>
     </g>
    </g>
    <g id="xtick_12">
     <g id="line2d_12">
      <g>
       <use xlink:href="#m338b306358" x="135.634615" y="328.52" style="stroke: #000000; stroke-width: 0.6"/>
      </g>
     </g>
    </g>
    <g id="xtick_13">
     <g id="line2d_13">
      <g>
       <use xlink:href="#m338b306358" x="146.164103" y="328.52" style="stroke: #000000; stroke-width: 0.6"/>
      </g>
     </g>
    </g>
    <g id="xtick_14">
     <g id="line2d_14">
      <g>
       <use xlink:href="#m338b306358" x="156.69359" y="328.52" style="stroke: #000000; stroke-width: 0.6"/>
      </g>
     </g>
    </g>
    <g id="xtick_15">
     <g id="line2d_15">
      <g>
       <use xlink:href="#m338b306358" x="167.223077" y="328.52" style="stroke: #000000; stroke-width: 0.6"/>
      </g>
     </g>
    </g>
    <g id="xtick_16">
     <g id="line2d_16">
      <g>
       <use xlink:href="#m338b306358" x="188.282051" y="328.52" style="stroke: #000000; stroke-width: 0.6"/>
      </g>
     </g>
    </g>
    <g id="xtick_17">
     <g id="line2d_17">
      <g>
       <use xlink:href="#m338b306358" x="198.811538" y="328.52" style="stroke: #000000; stroke-width: 0.6"/>
      </g>
     </g>
    </g>
    <g id="xtick_18">
     <g id="line2d_18">
      <g>
       <use xlink:href="#m338b306358" x="209.341026" y="328.52" style="stroke: #000000; stroke-width: 0.6"/>
      </g>
     </g>
    </g>
    <g id="xtick_19">
     <g id="line2d_19">
      <g>
       <use xlink:href="#m338b306358" x="219.870513" y="328.52" style="stroke: #000000; stroke-width: 0.6"/>
      </g>
     </g>
    </g>
    <g id="xtick_20">
     <g id="line2d_20">
      <g>
       <use xlink:href="#m338b306358" x="240.929487" y="328.52" style="stroke: #000000; stroke-width: 0.6"/>
      </g>
     </g>
    </g>
    <g id="xtick_21">
     <g id="line2d_21">
      <g>
       <use xlink:href="#m338b306358" x="251.458974" y="328.52" style="stroke: #000000; stroke-width: 0.6"/>
      </g>
     </g>
    </g>
    <g id="xtick_22">
     <g id="line2d_22">
      <g>
       <use xlink:href="#m338b306358" x="261.988462" y="328.52" style="stroke: #000000; stroke-width: 0.6"/>
      </g>
     </g>
    </g>
    <g id="xtick_23">
     <g id="line2d_23">
      <g>
       <use xlink:href="#m338b306358" x="272.517949" y="328.52" style="stroke: #000000; stroke-width: 0.6"/>
      </g>
     </g>
    </g>
    <g id="xtick_24">
     <g id="line2d_24">
      <g>
       <use xlink:href="#m338b306358" x="293.576923" y="328.52" style="stroke: #000000; stroke-width: 0.6"/>
      </g>
     </g>
    </g>
    <g id="xtick_25">
     <g id="line2d_25">
      <g>
       <use xlink:href="#m338b306358" x="304.10641" y="328.52" style="stroke: #000000; stroke-width: 0.6"/>
      </g>
     </g>
    </g>
    <g id="xtick_26">
     <g id="line2d_26">
      <g>
       <use xlink:href="#m338b306358" x="314.635897" y="328.52" style="stroke: #000000; stroke-width: 0.6"/>
      </g>
     </g>
    </g>
    <g id="xtick_27">
     <g id="line2d_27">
      <g>
       <use xlink:href="#m338b306358" x="325.165385" y="328.52" style="stroke: #000000; stroke-width: 0.6"/>
      </g>
     </g>
    </g>
    <g id="xtick_28">
     <g id="line2d_28">
      <g>
       <use xlink:href="#m338b306358" x="346.224359" y="328.52" style="stroke: #000000; stroke-width: 0.6"/>
      </g>
     </g>
    </g>
    <g id="xtick_29">
     <g id="line2d_29">
      <g>
       <use xlink:href="#m338b306358" x="356.753846" y="328.52" style="stroke: #000000; stroke-width: 0.6"/>
      </g>
     </g>
    </g>
    <g id="xtick_30">
     <g id="line2d_30">
      <g>
       <use xlink:href="#m338b306358" x="367.283333" y="328.52" style="stroke: #000000; stroke-width: 0.6"/>
      </g>
     </g>
    </g>
    <g id="xtick_31">
     <g id="line2d_31">
      <g>
       <use xlink:href="#m338b306358" x="377.812821" y="328.52" style="stroke: #000000; stroke-width: 0.6"/>
      </g>
     </g>
    </g>
   </g>
   <g id="matplotlib.axis_2">
    <g id="ytick_1">
     <g id="line2d_32">
      <defs>
       <path id="m4d5b373750" d="M 0 0 
L -3.5 0 
" style="stroke: #000000; stroke-width: 0.8"/>
      </defs>
      <g>
       <use xlink:href="#m4d5b373750" x="66.14" y="322.202308" style="stroke: #000000; stroke-width: 0.8"/>
      </g>
     </g>
     <g id="text_8">
      <!-- −3 -->
      <g transform="translate(44.397813 326.001526) scale(0.1 -0.1)">
       <use xlink:href="#DejaVuSans-2212"/>
       <use xlink:href="#DejaVuSans-33" x="83.789062"/>
      </g>
     </g>
    </g>
    <g id="ytick_2">
     <g id="line2d_33">
      <g>
       <use xlink:href="#m4d5b373750" x="66.14" y="269.554872" style="stroke: #000000; stroke-width: 0.8"/>
      </g>
     </g>
     <g id="text_9">
      <!-- −2 -->
      <g transform="translate(44.397813 273.354091) scale(0.1 -0.1)">
       <use xlink:href="#DejaVuSans-2212"/>
       <use xlink:href="#DejaVuSans-32" x="83.789062"/>
      </g>
     </g>
    </g>
    <g id="ytick_3">
     <g id="line2d_34">
      <g>
       <use xlink:href="#m4d5b373750" x="66.14" y="216.907436" style="stroke: #000000; stroke-width: 0.8"/>
      </g>
     </g>
     <g id="text_10">
      <!-- −1 -->
      <g transform="translate(44.397813 220.706655) scale(0.1 -0.1)">
       <use xlink:href="#DejaVuSans-2212"/>
       <use xlink:href="#DejaVuSans-31" x="83.789062"/>
      </g>
     </g>
    </g>
    <g id="ytick_4">
     <g id="line2d_35">
      <g>
       <use xlink:href="#m4d5b373750" x="66.14" y="164.26" style="stroke: #000000; stroke-width: 0.8"/>
      </g>
     </g>
     <g id="text_11">
      <!-- 0 -->
      <g transform="translate(52.7775 168.059219) scale(0.1 -0.1)">
       <use xlink:href="#DejaVuSans-30"/>
      </g>
     </g>
    </g>
    <g id="ytick_5">
     <g id="line2d_36">
      <g>
       <use xlink:href="#m4d5b373750" x="66.14" y="111.612564" style="stroke: #000000; stroke-width: 0.8"/>
      </g>
     </g>
     <g id="text_12">
      <!-- 1 -->
      <g transform="translate(52.7775 115.411783) scale(0.1 -0.1)">
       <use xlink:href="#DejaVuSans-31"/>
      </g>
     </g>
    </g>
    <g id="ytick_6">
     <g id="line2d_37">
      <g>
       <use xlink:href="#m4d5b373750" x="66.14" y="58.965128" style="stroke: #000000; stroke-width: 0.8"/>
      </g>
     </g>
     <g id="text_13">
      <!-- 2 -->
      <g transform="translate(52.7775 62.764347) scale(0.1 -0.1)">
       <use xlink:href="#DejaVuSans-32"/>
      </g>
     </g>
    </g>
    <g id="ytick_7">
     <g id="line2d_38">
      <g>
       <use xlink:href="#m4d5b373750" x="66.14" y="6.317692" style="stroke: #000000; stroke-width: 0.8"/>
      </g>
     </g>
     <g id="text_14">
      <!-- 3 -->
      <g transform="translate(52.7775 10.116911) scale(0.1 -0.1)">
       <use xlink:href="#DejaVuSans-33"/>
      </g>
     </g>
    </g>
    <g id="ytick_8">
     <g id="line2d_39">
      <defs>
       <path id="m1cbd3d51be" d="M 0 0 
L -2 0 
" style="stroke: #000000; stroke-width: 0.6"/>
      </defs>
      <g>
       <use xlink:href="#m1cbd3d51be" x="66.14" y="311.672821" style="stroke: #000000; stroke-width: 0.6"/>
      </g>
     </g>
    </g>
    <g id="ytick_9">
     <g id="line2d_40">
      <g>
       <use xlink:href="#m1cbd3d51be" x="66.14" y="301.143333" style="stroke: #000000; stroke-width: 0.6"/>
      </g>
     </g>
    </g>
    <g id="ytick_10">
     <g id="line2d_41">
      <g>
       <use xlink:href="#m1cbd3d51be" x="66.14" y="290.613846" style="stroke: #000000; stroke-width: 0.6"/>
      </g>
     </g>
    </g>
    <g id="ytick_11">
     <g id="line2d_42">
      <g>
       <use xlink:href="#m1cbd3d51be" x="66.14" y="280.084359" style="stroke: #000000; stroke-width: 0.6"/>
      </g>
     </g>
    </g>
    <g id="ytick_12">
     <g id="line2d_43">
      <g>
       <use xlink:href="#m1cbd3d51be" x="66.14" y="259.025385" style="stroke: #000000; stroke-width: 0.6"/>
      </g>
     </g>
    </g>
    <g id="ytick_13">
     <g id="line2d_44">
      <g>
       <use xlink:href="#m1cbd3d51be" x="66.14" y="248.495897" style="stroke: #000000; stroke-width: 0.6"/>
      </g>
     </g>
    </g>
    <g id="ytick_14">
     <g id="line2d_45">
      <g>
       <use xlink:href="#m1cbd3d51be" x="66.14" y="237.96641" style="stroke: #000000; stroke-width: 0.6"/>
      </g>
     </g>
    </g>
    <g id="ytick_15">
     <g id="line2d_46">
      <g>
       <use xlink:href="#m1cbd3d51be" x="66.14" y="227.436923" style="stroke: #000000; stroke-width: 0.6"/>
      </g>
     </g>
    </g>
    <g id="ytick_16">
     <g id="line2d_47">
      <g>
       <use xlink:href="#m1cbd3d51be" x="66.14" y="206.377949" style="stroke: #000000; stroke-width: 0.6"/>
      </g>
     </g>
    </g>
    <g id="ytick_17">
     <g id="line2d_48">
      <g>
       <use xlink:href="#m1cbd3d51be" x="66.14" y="195.848462" style="stroke: #000000; stroke-width: 0.6"/>
      </g>
     </g>
    </g>
    <g id="ytick_18">
     <g id="line2d_49">
      <g>
       <use xlink:href="#m1cbd3d51be" x="66.14" y="185.318974" style="stroke: #000000; stroke-width: 0.6"/>
      </g>
     </g>
    </g>
    <g id="ytick_19">
     <g id="line2d_50">
      <g>
       <use xlink:href="#m1cbd3d51be" x="66.14" y="174.789487" style="stroke: #000000; stroke-width: 0.6"/>
      </g>
     </g>
    </g>
    <g id="ytick_20">
     <g id="line2d_51">
      <g>
       <use xlink:href="#m1cbd3d51be" x="66.14" y="153.730513" style="stroke: #000000; stroke-width: 0.6"/>
      </g>
     </g>
    </g>
    <g id="ytick_21">
     <g id="line2d_52">
      <g>
       <use xlink:href="#m1cbd3d51be" x="66.14" y="143.201026" style="stroke: #000000; stroke-width: 0.6"/>
      </g>
     </g>
    </g>
    <g id="ytick_22">
     <g id="line2d_53">
      <g>
       <use xlink:href="#m1cbd3d51be" x="66.14" y="132.671538" style="stroke: #000000; stroke-width: 0.6"/>
      </g>
     </g>
    </g>
    <g id="ytick_23">
     <g id="line2d_54">
      <g>
       <use xlink:href="#m1cbd3d51be" x="66.14" y="122.142051" style="stroke: #000000; stroke-width: 0.6"/>
      </g>
     </g>
    </g>
    <g id="ytick_24">
     <g id="line2d_55">
      <g>
       <use xlink:href="#m1cbd3d51be" x="66.14" y="101.083077" style="stroke: #000000; stroke-width: 0.6"/>
      </g>
     </g>
    </g>
    <g id="ytick_25">
     <g id="line2d_56">
      <g>
       <use xlink:href="#m1cbd3d51be" x="66.14" y="90.55359" style="stroke: #000000; stroke-width: 0.6"/>
      </g>
     </g>
    </g>
    <g id="ytick_26">
     <g id="line2d_57">
      <g>
       <use xlink:href="#m1cbd3d51be" x="66.14" y="80.024103" style="stroke: #000000; stroke-width: 0.6"/>
      </g>
     </g>
    </g>
    <g id="ytick_27">
     <g id="line2d_58">
      <g>
       <use xlink:href="#m1cbd3d51be" x="66.14" y="69.494615" style="stroke: #000000; stroke-width: 0.6"/>
      </g>
     </g>
    </g>
    <g id="ytick_28">
     <g id="line2d_59">
      <g>
       <use xlink:href="#m1cbd3d51be" x="66.14" y="48.435641" style="stroke: #000000; stroke-width: 0.6"/>
      </g>
     </g>
    </g>
    <g id="ytick_29">
     <g id="line2d_60">
      <g>
       <use xlink:href="#m1cbd3d51be" x="66.14" y="37.906154" style="stroke: #000000; stroke-width: 0.6"/>
      </g>
     </g>
    </g>
    <g id="ytick_30">
     <g id="line2d_61">
      <g>
       <use xlink:href="#m1cbd3d51be" x="66.14" y="27.376667" style="stroke: #000000; stroke-width: 0.6"/>
      </g>
     </g>
    </g>
    <g id="ytick_31">
     <g id="line2d_62">
      <g>
       <use xlink:href="#m1cbd3d51be" x="66.14" y="16.847179" style="stroke: #000000; stroke-width: 0.6"/>
      </g>
     </g>
    </g>
   </g>
   <g id="QuadContourSet_1">
    <path d="M 216.619799 237.42799 
L 216.485194 237.401069 
L 214.499768 236.992305 
L 212.379737 236.493474 
L 210.259706 235.932289 
L 208.139675 235.308751 
L 208.054017 235.281038 
L 206.019644 234.602913 
L 203.899613 233.831993 
L 202.19634 233.161007 
L 201.779582 232.991699 
L 199.659551 232.064185 
L 197.53952 231.070421 
L 197.48063 231.040976 
L 195.419489 229.977161 
L 193.493448 228.920945 
L 193.299458 228.811017 
L 191.179427 227.538999 
L 190.01403 226.800914 
L 189.059396 226.175464 
L 186.939365 224.713374 
L 186.894497 224.680883 
L 184.819334 223.124511 
L 184.10195 222.560852 
L 182.699303 221.417954 
L 181.552233 220.440821 
L 180.579272 219.580125 
L 179.214993 218.32079 
L 178.459241 217.595268 
L 177.064732 216.200759 
L 176.33921 215.445007 
L 175.079875 214.080728 
L 174.219179 213.107767 
L 173.242046 211.960697 
L 172.099148 210.55805 
L 171.535489 209.840666 
L 169.979117 207.765503 
L 169.946626 207.720635 
L 168.484536 205.600604 
L 167.859086 204.64597 
L 167.121001 203.480573 
L 165.848983 201.360542 
L 165.739055 201.166552 
L 164.682839 199.240511 
L 163.619024 197.17937 
L 163.589579 197.12048 
L 162.595815 195.000449 
L 161.668301 192.880418 
L 161.498993 192.46366 
L 160.828007 190.760387 
L 160.057087 188.640356 
L 159.378962 186.605983 
L 159.351249 186.520325 
L 158.727711 184.400294 
L 158.166526 182.280263 
L 157.667695 180.160232 
L 157.258931 178.174806 
L 157.23201 178.040201 
L 156.868576 175.92017 
L 156.565715 173.800139 
L 156.323426 171.680108 
L 156.141709 169.560077 
L 156.020564 167.440046 
L 155.959992 165.320015 
L 155.959992 163.199985 
L 156.020564 161.079954 
L 156.141709 158.959923 
L 156.323426 156.839892 
L 156.565715 154.719861 
L 156.868576 152.59983 
L 157.23201 150.479799 
L 157.258931 150.345194 
L 157.667695 148.359768 
L 158.166526 146.239737 
L 158.727711 144.119706 
L 159.351249 141.999675 
L 159.378962 141.914017 
L 160.057087 139.879644 
L 160.828007 137.759613 
L 161.498993 136.05634 
L 161.668301 135.639582 
L 162.595815 133.519551 
L 163.589579 131.39952 
L 163.619024 131.34063 
L 164.682839 129.279489 
L 165.739055 127.353448 
L 165.848983 127.159458 
L 167.121001 125.039427 
L 167.859086 123.87403 
L 168.484536 122.919396 
L 169.946626 120.799365 
L 169.979117 120.754497 
L 171.535489 118.679334 
L 172.099148 117.96195 
L 173.242046 116.559303 
L 174.219179 115.412233 
L 175.079875 114.439272 
L 176.33921 113.074993 
L 177.064732 112.319241 
L 178.459241 110.924732 
L 179.214993 110.19921 
L 180.579272 108.939875 
L 181.552233 108.079179 
L 182.699303 107.102046 
L 184.10195 105.959148 
L 184.819334 105.395489 
L 186.894497 103.839117 
L 186.939365 103.806626 
L 189.059396 102.344536 
L 190.01403 101.719086 
L 191.179427 100.981001 
L 193.299458 99.708983 
L 193.493448 99.599055 
L 195.419489 98.542839 
L 197.48063 97.479024 
L 197.53952 97.449579 
L 199.659551 96.455815 
L 201.779582 95.528301 
L 202.19634 95.358993 
L 203.899613 94.688007 
L 206.019644 93.917087 
L 208.054017 93.238962 
L 208.139675 93.211249 
L 210.259706 92.587711 
L 212.379737 92.026526 
L 214.499768 91.527695 
L 216.485194 91.118931 
L 216.619799 91.09201 
L 218.73983 90.728576 
L 220.859861 90.425715 
L 222.979892 90.183426 
L 225.099923 90.001709 
L 227.219954 89.880564 
L 229.339985 89.819992 
L 231.460015 89.819992 
L 233.580046 89.880564 
L 235.700077 90.001709 
L 237.820108 90.183426 
L 239.940139 90.425715 
L 242.06017 90.728576 
L 244.180201 91.09201 
L 244.314806 91.118931 
L 246.300232 91.527695 
L 248.420263 92.026526 
L 250.540294 92.587711 
L 252.660325 93.211249 
L 252.745983 93.238962 
L 254.780356 93.917087 
L 256.900387 94.688007 
L 258.60366 95.358993 
L 259.020418 95.528301 
L 261.140449 96.455815 
L 263.26048 97.449579 
L 263.31937 97.479024 
L 265.380511 98.542839 
L 267.306552 99.599055 
L 267.500542 99.708983 
L 269.620573 100.981001 
L 270.78597 101.719086 
L 271.740604 102.344536 
L 273.860635 103.806626 
L 273.905503 103.839117 
L 275.980666 105.395489 
L 276.69805 105.959148 
L 278.100697 107.102046 
L 279.247767 108.079179 
L 280.220728 108.939875 
L 281.585007 110.19921 
L 282.340759 110.924732 
L 283.735268 112.319241 
L 284.46079 113.074993 
L 285.720125 114.439272 
L 286.580821 115.412233 
L 287.557954 116.559303 
L 288.700852 117.96195 
L 289.264511 118.679334 
L 290.820883 120.754497 
L 290.853374 120.799365 
L 292.315464 122.919396 
L 292.940914 123.87403 
L 293.678999 125.039427 
L 294.951017 127.159458 
L 295.060945 127.353448 
L 296.117161 129.279489 
L 297.180976 131.34063 
L 297.210421 131.39952 
L 298.204185 133.519551 
L 299.131699 135.639582 
L 299.301007 136.05634 
L 299.971993 137.759613 
L 300.742913 139.879644 
L 301.421038 141.914017 
L 301.448751 141.999675 
L 302.072289 144.119706 
L 302.633474 146.239737 
L 303.132305 148.359768 
L 303.541069 150.345194 
L 303.56799 150.479799 
L 303.931424 152.59983 
L 304.234285 154.719861 
L 304.476574 156.839892 
L 304.658291 158.959923 
L 304.779436 161.079954 
L 304.840008 163.199985 
L 304.840008 165.320015 
L 304.779436 167.440046 
L 304.658291 169.560077 
L 304.476574 171.680108 
L 304.234285 173.800139 
L 303.931424 175.92017 
L 303.56799 178.040201 
L 303.541069 178.174806 
L 303.132305 180.160232 
L 302.633474 182.280263 
L 302.072289 184.400294 
L 301.448751 186.520325 
L 301.421038 186.605983 
L 300.742913 188.640356 
L 299.971993 190.760387 
L 299.301007 192.46366 
L 299.131699 192.880418 
L 298.204185 195.000449 
L 297.210421 197.12048 
L 297.180976 197.17937 
L 296.117161 199.240511 
L 295.060945 201.166552 
L 294.951017 201.360542 
L 293.678999 203.480573 
L 292.940914 204.64597 
L 292.315464 205.600604 
L 290.853374 207.720635 
L 290.820883 207.765503 
L 289.264511 209.840666 
L 288.700852 210.55805 
L 287.557954 211.960697 
L 286.580821 213.107767 
L 285.720125 214.080728 
L 284.46079 215.445007 
L 283.735268 216.200759 
L 282.340759 217.595268 
L 281.585007 218.32079 
L 280.220728 219.580125 
L 279.247767 220.440821 
L 278.100697 221.417954 
L 276.69805 222.560852 
L 275.980666 223.124511 
L 273.905503 224.680883 
L 273.860635 224.713374 
L 271.740604 226.175464 
L 270.78597 226.800914 
L 269.620573 227.538999 
L 267.500542 228.811017 
L 267.306552 228.920945 
L 265.380511 229.977161 
L 263.31937 231.040976 
L 263.26048 231.070421 
L 261.140449 232.064185 
L 259.020418 232.991699 
L 258.60366 233.161007 
L 256.900387 233.831993 
L 254.780356 234.602913 
L 252.745983 235.281038 
L 252.660325 235.308751 
L 250.540294 235.932289 
L 248.420263 236.493474 
L 246.300232 236.992305 
L 244.314806 237.401069 
L 244.180201 237.42799 
L 242.06017 237.791424 
L 239.940139 238.094285 
L 237.820108 238.336574 
L 235.700077 238.518291 
L 233.580046 238.639436 
L 231.460015 238.700008 
L 229.339985 238.700008 
L 227.219954 238.639436 
L 225.099923 238.518291 
L 222.979892 238.336574 
L 220.859861 238.094285 
L 218.73983 237.791424 
L 216.619799 237.42799 
z
" clip-path="url(#p33c6544fe7)" style="fill: none; stroke: #ff0000; stroke-width: 1.5"/>
   </g>
   <g id="patch_3">
    <path d="M 66.14 328.52 
L 66.14 -0 
" style="fill: none; stroke: #000000; stroke-width: 0.8; stroke-linejoin: miter; stroke-linecap: square"/>
   </g>
   <g id="patch_4">
    <path d="M 394.66 328.52 
L 394.66 -0 
" style="fill: none; stroke: #000000; stroke-width: 0.8; stroke-linejoin: miter; stroke-linecap: square"/>
   </g>
   <g id="patch_5">
    <path d="M 66.14 328.52 
L 394.66 328.52 
" style="fill: none; stroke: #000000; stroke-width: 0.8; stroke-linejoin: miter; stroke-linecap: square"/>
   </g>
   <g id="patch_6">
    <path d="M 66.14 0 
L 394.66 0 
" style="fill: none; stroke: #000000; stroke-width: 0.8; stroke-linejoin: miter; stroke-linecap: square"/>
   </g>
  </g>
 </g>
 <defs>
  <clipPath id="p33c6544fe7">
   <rect x="66.14" y="0" width="328.52" height="328.52"/>
  </clipPath>
 </defs>
</svg>
