<?xml version="1.0" encoding="utf-8" standalone="no"?>
<!DOCTYPE svg PUBLIC "-//W3C//DTD SVG 1.1//EN"
  "http://www.w3.org/Graphics/SVG/1.1/DTD/svg11.dtd">
<!-- Created with matplotlib (http://matplotlib.org/) -->
<svg height="345.6pt" version="1.1" viewBox="0 0 460.8 345.6" width="460.8pt" xmlns="http://www.w3.org/2000/svg" xmlns:xlink="http://www.w3.org/1999/xlink">
 <defs>
  <style type="text/css">
*{stroke-linecap:butt;stroke-linejoin:round;}
  </style>
 </defs>
 <g id="figure_1">
  <g id="patch_1">
   <path d="M 0 345.6 
L 460.8 345.6 
L 460.8 0 
L 0 0 
z
" style="fill:#ffffff;"/>
  </g>
  <g id="axes_1">
   <g id="patch_2">
    <path d="M 67.4 328.52 
L 393.4 328.52 
L 393.4 2.52 
L 67.4 2.52 
z
" style="fill:#ffffff;"/>
   </g>
   <g id="matplotlib.axis_1">
    <g id="xtick_1">
     <g id="line2d_1">
      <defs>
       <path d="M 0 0 
L 0 3.5 
" id="mbe645f09a9" style="stroke:#000000;stroke-width:0.8;"/>
      </defs>
      <g>
       <use style="stroke:#000000;stroke-width:0.8;" x="73.669231" xlink:href="#mbe645f09a9" y="328.52"/>
      </g>
     </g>
     <g id="text_1">
      <!-- -3 -->
      <defs>
       <path d="M 4.890625 31.390625 
L 31.203125 31.390625 
L 31.203125 23.390625 
L 4.890625 23.390625 
z
" id="DejaVuSans-2d"/>
       <path d="M 40.578125 39.3125 
Q 47.65625 37.796875 51.625 33 
Q 55.609375 28.21875 55.609375 21.1875 
Q 55.609375 10.40625 48.1875 4.484375 
Q 40.765625 -1.421875 27.09375 -1.421875 
Q 22.515625 -1.421875 17.65625 -0.515625 
Q 12.796875 0.390625 7.625 2.203125 
L 7.625 11.71875 
Q 11.71875 9.328125 16.59375 8.109375 
Q 21.484375 6.890625 26.8125 6.890625 
Q 36.078125 6.890625 40.9375 10.546875 
Q 45.796875 14.203125 45.796875 21.1875 
Q 45.796875 27.640625 41.28125 31.265625 
Q 36.765625 34.90625 28.71875 34.90625 
L 20.21875 34.90625 
L 20.21875 43.015625 
L 29.109375 43.015625 
Q 36.375 43.015625 40.234375 45.921875 
Q 44.09375 48.828125 44.09375 54.296875 
Q 44.09375 59.90625 40.109375 62.90625 
Q 36.140625 65.921875 28.71875 65.921875 
Q 24.65625 65.921875 20.015625 65.03125 
Q 15.375 64.15625 9.8125 62.3125 
L 9.8125 71.09375 
Q 15.4375 72.65625 20.34375 73.4375 
Q 25.25 74.21875 29.59375 74.21875 
Q 40.828125 74.21875 47.359375 69.109375 
Q 53.90625 64.015625 53.90625 55.328125 
Q 53.90625 49.265625 50.4375 45.09375 
Q 46.96875 40.921875 40.578125 39.3125 
z
" id="DejaVuSans-33"/>
      </defs>
      <g transform="translate(68.684075 343.118437)scale(0.1 -0.1)">
       <use xlink:href="#DejaVuSans-2d"/>
       <use x="36.083984" xlink:href="#DejaVuSans-33"/>
      </g>
     </g>
    </g>
    <g id="xtick_2">
     <g id="line2d_2">
      <g>
       <use style="stroke:#000000;stroke-width:0.8;" x="125.912821" xlink:href="#mbe645f09a9" y="328.52"/>
      </g>
     </g>
     <g id="text_2">
      <!-- -2 -->
      <defs>
       <path d="M 19.1875 8.296875 
L 53.609375 8.296875 
L 53.609375 0 
L 7.328125 0 
L 7.328125 8.296875 
Q 12.9375 14.109375 22.625 23.890625 
Q 32.328125 33.6875 34.8125 36.53125 
Q 39.546875 41.84375 41.421875 45.53125 
Q 43.3125 49.21875 43.3125 52.78125 
Q 43.3125 58.59375 39.234375 62.25 
Q 35.15625 65.921875 28.609375 65.921875 
Q 23.96875 65.921875 18.8125 64.3125 
Q 13.671875 62.703125 7.8125 59.421875 
L 7.8125 69.390625 
Q 13.765625 71.78125 18.9375 73 
Q 24.125 74.21875 28.421875 74.21875 
Q 39.75 74.21875 46.484375 68.546875 
Q 53.21875 62.890625 53.21875 53.421875 
Q 53.21875 48.921875 51.53125 44.890625 
Q 49.859375 40.875 45.40625 35.40625 
Q 44.1875 33.984375 37.640625 27.21875 
Q 31.109375 20.453125 19.1875 8.296875 
z
" id="DejaVuSans-32"/>
      </defs>
      <g transform="translate(120.927664 343.118437)scale(0.1 -0.1)">
       <use xlink:href="#DejaVuSans-2d"/>
       <use x="36.083984" xlink:href="#DejaVuSans-32"/>
      </g>
     </g>
    </g>
    <g id="xtick_3">
     <g id="line2d_3">
      <g>
       <use style="stroke:#000000;stroke-width:0.8;" x="178.15641" xlink:href="#mbe645f09a9" y="328.52"/>
      </g>
     </g>
     <g id="text_3">
      <!-- -1 -->
      <defs>
       <path d="M 12.40625 8.296875 
L 28.515625 8.296875 
L 28.515625 63.921875 
L 10.984375 60.40625 
L 10.984375 69.390625 
L 28.421875 72.90625 
L 38.28125 72.90625 
L 38.28125 8.296875 
L 54.390625 8.296875 
L 54.390625 0 
L 12.40625 0 
z
" id="DejaVuSans-31"/>
      </defs>
      <g transform="translate(173.171254 343.118437)scale(0.1 -0.1)">
       <use xlink:href="#DejaVuSans-2d"/>
       <use x="36.083984" xlink:href="#DejaVuSans-31"/>
      </g>
     </g>
    </g>
    <g id="xtick_4">
     <g id="line2d_4">
      <g>
       <use style="stroke:#000000;stroke-width:0.8;" x="230.4" xlink:href="#mbe645f09a9" y="328.52"/>
      </g>
     </g>
     <g id="text_4">
      <!-- 0 -->
      <defs>
       <path d="M 31.78125 66.40625 
Q 24.171875 66.40625 20.328125 58.90625 
Q 16.5 51.421875 16.5 36.375 
Q 16.5 21.390625 20.328125 13.890625 
Q 24.171875 6.390625 31.78125 6.390625 
Q 39.453125 6.390625 43.28125 13.890625 
Q 47.125 21.390625 47.125 36.375 
Q 47.125 51.421875 43.28125 58.90625 
Q 39.453125 66.40625 31.78125 66.40625 
z
M 31.78125 74.21875 
Q 44.046875 74.21875 50.515625 64.515625 
Q 56.984375 54.828125 56.984375 36.375 
Q 56.984375 17.96875 50.515625 8.265625 
Q 44.046875 -1.421875 31.78125 -1.421875 
Q 19.53125 -1.421875 13.0625 8.265625 
Q 6.59375 17.96875 6.59375 36.375 
Q 6.59375 54.828125 13.0625 64.515625 
Q 19.53125 74.21875 31.78125 74.21875 
z
" id="DejaVuSans-30"/>
      </defs>
      <g transform="translate(227.21875 343.118437)scale(0.1 -0.1)">
       <use xlink:href="#DejaVuSans-30"/>
      </g>
     </g>
    </g>
    <g id="xtick_5">
     <g id="line2d_5">
      <g>
       <use style="stroke:#000000;stroke-width:0.8;" x="282.64359" xlink:href="#mbe645f09a9" y="328.52"/>
      </g>
     </g>
     <g id="text_5">
      <!-- 1 -->
      <g transform="translate(279.46234 343.118437)scale(0.1 -0.1)">
       <use xlink:href="#DejaVuSans-31"/>
      </g>
     </g>
    </g>
    <g id="xtick_6">
     <g id="line2d_6">
      <g>
       <use style="stroke:#000000;stroke-width:0.8;" x="334.887179" xlink:href="#mbe645f09a9" y="328.52"/>
      </g>
     </g>
     <g id="text_6">
      <!-- 2 -->
      <g transform="translate(331.705929 343.118437)scale(0.1 -0.1)">
       <use xlink:href="#DejaVuSans-32"/>
      </g>
     </g>
    </g>
    <g id="xtick_7">
     <g id="line2d_7">
      <g>
       <use style="stroke:#000000;stroke-width:0.8;" x="387.130769" xlink:href="#mbe645f09a9" y="328.52"/>
      </g>
     </g>
     <g id="text_7">
      <!-- 3 -->
      <g transform="translate(383.949519 343.118437)scale(0.1 -0.1)">
       <use xlink:href="#DejaVuSans-33"/>
      </g>
     </g>
    </g>
    <g id="xtick_8">
     <g id="line2d_8">
      <defs>
       <path d="M 0 0 
L 0 2 
" id="md1fe8c9c18" style="stroke:#000000;stroke-width:0.6;"/>
      </defs>
      <g>
       <use style="stroke:#000000;stroke-width:0.6;" x="84.117949" xlink:href="#md1fe8c9c18" y="328.52"/>
      </g>
     </g>
    </g>
    <g id="xtick_9">
     <g id="line2d_9">
      <g>
       <use style="stroke:#000000;stroke-width:0.6;" x="94.566667" xlink:href="#md1fe8c9c18" y="328.52"/>
      </g>
     </g>
    </g>
    <g id="xtick_10">
     <g id="line2d_10">
      <g>
       <use style="stroke:#000000;stroke-width:0.6;" x="105.015385" xlink:href="#md1fe8c9c18" y="328.52"/>
      </g>
     </g>
    </g>
    <g id="xtick_11">
     <g id="line2d_11">
      <g>
       <use style="stroke:#000000;stroke-width:0.6;" x="115.464103" xlink:href="#md1fe8c9c18" y="328.52"/>
      </g>
     </g>
    </g>
    <g id="xtick_12">
     <g id="line2d_12">
      <g>
       <use style="stroke:#000000;stroke-width:0.6;" x="136.361538" xlink:href="#md1fe8c9c18" y="328.52"/>
      </g>
     </g>
    </g>
    <g id="xtick_13">
     <g id="line2d_13">
      <g>
       <use style="stroke:#000000;stroke-width:0.6;" x="146.810256" xlink:href="#md1fe8c9c18" y="328.52"/>
      </g>
     </g>
    </g>
    <g id="xtick_14">
     <g id="line2d_14">
      <g>
       <use style="stroke:#000000;stroke-width:0.6;" x="157.258974" xlink:href="#md1fe8c9c18" y="328.52"/>
      </g>
     </g>
    </g>
    <g id="xtick_15">
     <g id="line2d_15">
      <g>
       <use style="stroke:#000000;stroke-width:0.6;" x="167.707692" xlink:href="#md1fe8c9c18" y="328.52"/>
      </g>
     </g>
    </g>
    <g id="xtick_16">
     <g id="line2d_16">
      <g>
       <use style="stroke:#000000;stroke-width:0.6;" x="188.605128" xlink:href="#md1fe8c9c18" y="328.52"/>
      </g>
     </g>
    </g>
    <g id="xtick_17">
     <g id="line2d_17">
      <g>
       <use style="stroke:#000000;stroke-width:0.6;" x="199.053846" xlink:href="#md1fe8c9c18" y="328.52"/>
      </g>
     </g>
    </g>
    <g id="xtick_18">
     <g id="line2d_18">
      <g>
       <use style="stroke:#000000;stroke-width:0.6;" x="209.502564" xlink:href="#md1fe8c9c18" y="328.52"/>
      </g>
     </g>
    </g>
    <g id="xtick_19">
     <g id="line2d_19">
      <g>
       <use style="stroke:#000000;stroke-width:0.6;" x="219.951282" xlink:href="#md1fe8c9c18" y="328.52"/>
      </g>
     </g>
    </g>
    <g id="xtick_20">
     <g id="line2d_20">
      <g>
       <use style="stroke:#000000;stroke-width:0.6;" x="240.848718" xlink:href="#md1fe8c9c18" y="328.52"/>
      </g>
     </g>
    </g>
    <g id="xtick_21">
     <g id="line2d_21">
      <g>
       <use style="stroke:#000000;stroke-width:0.6;" x="251.297436" xlink:href="#md1fe8c9c18" y="328.52"/>
      </g>
     </g>
    </g>
    <g id="xtick_22">
     <g id="line2d_22">
      <g>
       <use style="stroke:#000000;stroke-width:0.6;" x="261.746154" xlink:href="#md1fe8c9c18" y="328.52"/>
      </g>
     </g>
    </g>
    <g id="xtick_23">
     <g id="line2d_23">
      <g>
       <use style="stroke:#000000;stroke-width:0.6;" x="272.194872" xlink:href="#md1fe8c9c18" y="328.52"/>
      </g>
     </g>
    </g>
    <g id="xtick_24">
     <g id="line2d_24">
      <g>
       <use style="stroke:#000000;stroke-width:0.6;" x="293.092308" xlink:href="#md1fe8c9c18" y="328.52"/>
      </g>
     </g>
    </g>
    <g id="xtick_25">
     <g id="line2d_25">
      <g>
       <use style="stroke:#000000;stroke-width:0.6;" x="303.541026" xlink:href="#md1fe8c9c18" y="328.52"/>
      </g>
     </g>
    </g>
    <g id="xtick_26">
     <g id="line2d_26">
      <g>
       <use style="stroke:#000000;stroke-width:0.6;" x="313.989744" xlink:href="#md1fe8c9c18" y="328.52"/>
      </g>
     </g>
    </g>
    <g id="xtick_27">
     <g id="line2d_27">
      <g>
       <use style="stroke:#000000;stroke-width:0.6;" x="324.438462" xlink:href="#md1fe8c9c18" y="328.52"/>
      </g>
     </g>
    </g>
    <g id="xtick_28">
     <g id="line2d_28">
      <g>
       <use style="stroke:#000000;stroke-width:0.6;" x="345.335897" xlink:href="#md1fe8c9c18" y="328.52"/>
      </g>
     </g>
    </g>
    <g id="xtick_29">
     <g id="line2d_29">
      <g>
       <use style="stroke:#000000;stroke-width:0.6;" x="355.784615" xlink:href="#md1fe8c9c18" y="328.52"/>
      </g>
     </g>
    </g>
    <g id="xtick_30">
     <g id="line2d_30">
      <g>
       <use style="stroke:#000000;stroke-width:0.6;" x="366.233333" xlink:href="#md1fe8c9c18" y="328.52"/>
      </g>
     </g>
    </g>
    <g id="xtick_31">
     <g id="line2d_31">
      <g>
       <use style="stroke:#000000;stroke-width:0.6;" x="376.682051" xlink:href="#md1fe8c9c18" y="328.52"/>
      </g>
     </g>
    </g>
   </g>
   <g id="matplotlib.axis_2">
    <g id="ytick_1">
     <g id="line2d_32">
      <defs>
       <path d="M 0 0 
L -3.5 0 
" id="m7561699051" style="stroke:#000000;stroke-width:0.8;"/>
      </defs>
      <g>
       <use style="stroke:#000000;stroke-width:0.8;" x="67.4" xlink:href="#m7561699051" y="322.250769"/>
      </g>
     </g>
     <g id="text_8">
      <!-- -3 -->
      <g transform="translate(50.429688 326.049988)scale(0.1 -0.1)">
       <use xlink:href="#DejaVuSans-2d"/>
       <use x="36.083984" xlink:href="#DejaVuSans-33"/>
      </g>
     </g>
    </g>
    <g id="ytick_2">
     <g id="line2d_33">
      <g>
       <use style="stroke:#000000;stroke-width:0.8;" x="67.4" xlink:href="#m7561699051" y="270.007179"/>
      </g>
     </g>
     <g id="text_9">
      <!-- -2 -->
      <g transform="translate(50.429688 273.806398)scale(0.1 -0.1)">
       <use xlink:href="#DejaVuSans-2d"/>
       <use x="36.083984" xlink:href="#DejaVuSans-32"/>
      </g>
     </g>
    </g>
    <g id="ytick_3">
     <g id="line2d_34">
      <g>
       <use style="stroke:#000000;stroke-width:0.8;" x="67.4" xlink:href="#m7561699051" y="217.76359"/>
      </g>
     </g>
     <g id="text_10">
      <!-- -1 -->
      <g transform="translate(50.429688 221.562808)scale(0.1 -0.1)">
       <use xlink:href="#DejaVuSans-2d"/>
       <use x="36.083984" xlink:href="#DejaVuSans-31"/>
      </g>
     </g>
    </g>
    <g id="ytick_4">
     <g id="line2d_35">
      <g>
       <use style="stroke:#000000;stroke-width:0.8;" x="67.4" xlink:href="#m7561699051" y="165.52"/>
      </g>
     </g>
     <g id="text_11">
      <!-- 0 -->
      <g transform="translate(54.0375 169.319219)scale(0.1 -0.1)">
       <use xlink:href="#DejaVuSans-30"/>
      </g>
     </g>
    </g>
    <g id="ytick_5">
     <g id="line2d_36">
      <g>
       <use style="stroke:#000000;stroke-width:0.8;" x="67.4" xlink:href="#m7561699051" y="113.27641"/>
      </g>
     </g>
     <g id="text_12">
      <!-- 1 -->
      <g transform="translate(54.0375 117.075629)scale(0.1 -0.1)">
       <use xlink:href="#DejaVuSans-31"/>
      </g>
     </g>
    </g>
    <g id="ytick_6">
     <g id="line2d_37">
      <g>
       <use style="stroke:#000000;stroke-width:0.8;" x="67.4" xlink:href="#m7561699051" y="61.032821"/>
      </g>
     </g>
     <g id="text_13">
      <!-- 2 -->
      <g transform="translate(54.0375 64.832039)scale(0.1 -0.1)">
       <use xlink:href="#DejaVuSans-32"/>
      </g>
     </g>
    </g>
    <g id="ytick_7">
     <g id="line2d_38">
      <g>
       <use style="stroke:#000000;stroke-width:0.8;" x="67.4" xlink:href="#m7561699051" y="8.789231"/>
      </g>
     </g>
     <g id="text_14">
      <!-- 3 -->
      <g transform="translate(54.0375 12.58845)scale(0.1 -0.1)">
       <use xlink:href="#DejaVuSans-33"/>
      </g>
     </g>
    </g>
    <g id="ytick_8">
     <g id="line2d_39">
      <defs>
       <path d="M 0 0 
L -2 0 
" id="m1cf0824a21" style="stroke:#000000;stroke-width:0.6;"/>
      </defs>
      <g>
       <use style="stroke:#000000;stroke-width:0.6;" x="67.4" xlink:href="#m1cf0824a21" y="311.802051"/>
      </g>
     </g>
    </g>
    <g id="ytick_9">
     <g id="line2d_40">
      <g>
       <use style="stroke:#000000;stroke-width:0.6;" x="67.4" xlink:href="#m1cf0824a21" y="301.353333"/>
      </g>
     </g>
    </g>
    <g id="ytick_10">
     <g id="line2d_41">
      <g>
       <use style="stroke:#000000;stroke-width:0.6;" x="67.4" xlink:href="#m1cf0824a21" y="290.904615"/>
      </g>
     </g>
    </g>
    <g id="ytick_11">
     <g id="line2d_42">
      <g>
       <use style="stroke:#000000;stroke-width:0.6;" x="67.4" xlink:href="#m1cf0824a21" y="280.455897"/>
      </g>
     </g>
    </g>
    <g id="ytick_12">
     <g id="line2d_43">
      <g>
       <use style="stroke:#000000;stroke-width:0.6;" x="67.4" xlink:href="#m1cf0824a21" y="259.558462"/>
      </g>
     </g>
    </g>
    <g id="ytick_13">
     <g id="line2d_44">
      <g>
       <use style="stroke:#000000;stroke-width:0.6;" x="67.4" xlink:href="#m1cf0824a21" y="249.109744"/>
      </g>
     </g>
    </g>
    <g id="ytick_14">
     <g id="line2d_45">
      <g>
       <use style="stroke:#000000;stroke-width:0.6;" x="67.4" xlink:href="#m1cf0824a21" y="238.661026"/>
      </g>
     </g>
    </g>
    <g id="ytick_15">
     <g id="line2d_46">
      <g>
       <use style="stroke:#000000;stroke-width:0.6;" x="67.4" xlink:href="#m1cf0824a21" y="228.212308"/>
      </g>
     </g>
    </g>
    <g id="ytick_16">
     <g id="line2d_47">
      <g>
       <use style="stroke:#000000;stroke-width:0.6;" x="67.4" xlink:href="#m1cf0824a21" y="207.314872"/>
      </g>
     </g>
    </g>
    <g id="ytick_17">
     <g id="line2d_48">
      <g>
       <use style="stroke:#000000;stroke-width:0.6;" x="67.4" xlink:href="#m1cf0824a21" y="196.866154"/>
      </g>
     </g>
    </g>
    <g id="ytick_18">
     <g id="line2d_49">
      <g>
       <use style="stroke:#000000;stroke-width:0.6;" x="67.4" xlink:href="#m1cf0824a21" y="186.417436"/>
      </g>
     </g>
    </g>
    <g id="ytick_19">
     <g id="line2d_50">
      <g>
       <use style="stroke:#000000;stroke-width:0.6;" x="67.4" xlink:href="#m1cf0824a21" y="175.968718"/>
      </g>
     </g>
    </g>
    <g id="ytick_20">
     <g id="line2d_51">
      <g>
       <use style="stroke:#000000;stroke-width:0.6;" x="67.4" xlink:href="#m1cf0824a21" y="155.071282"/>
      </g>
     </g>
    </g>
    <g id="ytick_21">
     <g id="line2d_52">
      <g>
       <use style="stroke:#000000;stroke-width:0.6;" x="67.4" xlink:href="#m1cf0824a21" y="144.622564"/>
      </g>
     </g>
    </g>
    <g id="ytick_22">
     <g id="line2d_53">
      <g>
       <use style="stroke:#000000;stroke-width:0.6;" x="67.4" xlink:href="#m1cf0824a21" y="134.173846"/>
      </g>
     </g>
    </g>
    <g id="ytick_23">
     <g id="line2d_54">
      <g>
       <use style="stroke:#000000;stroke-width:0.6;" x="67.4" xlink:href="#m1cf0824a21" y="123.725128"/>
      </g>
     </g>
    </g>
    <g id="ytick_24">
     <g id="line2d_55">
      <g>
       <use style="stroke:#000000;stroke-width:0.6;" x="67.4" xlink:href="#m1cf0824a21" y="102.827692"/>
      </g>
     </g>
    </g>
    <g id="ytick_25">
     <g id="line2d_56">
      <g>
       <use style="stroke:#000000;stroke-width:0.6;" x="67.4" xlink:href="#m1cf0824a21" y="92.378974"/>
      </g>
     </g>
    </g>
    <g id="ytick_26">
     <g id="line2d_57">
      <g>
       <use style="stroke:#000000;stroke-width:0.6;" x="67.4" xlink:href="#m1cf0824a21" y="81.930256"/>
      </g>
     </g>
    </g>
    <g id="ytick_27">
     <g id="line2d_58">
      <g>
       <use style="stroke:#000000;stroke-width:0.6;" x="67.4" xlink:href="#m1cf0824a21" y="71.481538"/>
      </g>
     </g>
    </g>
    <g id="ytick_28">
     <g id="line2d_59">
      <g>
       <use style="stroke:#000000;stroke-width:0.6;" x="67.4" xlink:href="#m1cf0824a21" y="50.584103"/>
      </g>
     </g>
    </g>
    <g id="ytick_29">
     <g id="line2d_60">
      <g>
       <use style="stroke:#000000;stroke-width:0.6;" x="67.4" xlink:href="#m1cf0824a21" y="40.135385"/>
      </g>
     </g>
    </g>
    <g id="ytick_30">
     <g id="line2d_61">
      <g>
       <use style="stroke:#000000;stroke-width:0.6;" x="67.4" xlink:href="#m1cf0824a21" y="29.686667"/>
      </g>
     </g>
    </g>
    <g id="ytick_31">
     <g id="line2d_62">
      <g>
       <use style="stroke:#000000;stroke-width:0.6;" x="67.4" xlink:href="#m1cf0824a21" y="19.237949"/>
      </g>
     </g>
    </g>
   </g>
   <g id="LineCollection_1">
    <path clip-path="url(#pf50ef73a13)" d="M 73.669231 322.250769 
L 231.983139 163.936861 
L 228.816861 163.936861 
L 73.669231 8.789231 
L 73.669231 8.789231 
" style="fill:none;stroke:#000000;"/>
    <path clip-path="url(#pf50ef73a13)" d="M 387.130769 8.789231 
L 231.983139 163.936861 
L 231.983139 167.103139 
L 387.130769 322.250769 
L 387.130769 322.250769 
" style="fill:none;stroke:#000000;"/>
   </g>
   <g id="LineCollection_2">
    <path clip-path="url(#pf50ef73a13)" d="M 73.669231 313.282455 
L 80.128101 306.419378 
L 97.783831 287.421709 
L 121.163403 261.445036 
L 128.868838 252.59265 
L 140.161072 239.084343 
L 144.602657 233.594981 
L 152.826185 222.842828 
L 156.525912 217.76359 
L 160.867812 211.431033 
L 165.491298 204.010069 
L 166.73802 201.932199 
L 170.136561 195.599643 
L 173.033196 189.267086 
L 174.264527 186.100808 
L 176.270612 179.768252 
L 177.015619 176.601974 
L 177.574374 173.435695 
L 177.946877 170.269417 
L 178.133129 167.103139 
L 178.133129 163.936861 
L 177.946877 160.770583 
L 177.574374 157.604305 
L 177.015619 154.438026 
L 176.270612 151.271748 
L 174.990132 147.116008 
L 174.264527 144.939192 
L 173.033196 141.772914 
L 170.136561 135.440357 
L 166.73802 129.107801 
L 162.325019 121.898864 
L 158.72854 116.442688 
L 154.260905 110.110132 
L 146.493629 99.876269 
L 142.06932 94.278741 
L 131.568713 81.613629 
L 111.664569 58.902567 
L 100.688781 46.784569 
L 73.669231 17.757545 
L 73.669231 17.757545 
" style="fill:none;stroke:#333333;stroke-dasharray:18.5,8;stroke-dashoffset:0;stroke-width:5;"/>
    <path clip-path="url(#pf50ef73a13)" d="M 387.130769 17.757545 
L 380.671899 24.620622 
L 363.016169 43.618291 
L 339.636597 69.594964 
L 331.931162 78.44735 
L 320.638928 91.955657 
L 316.197343 97.445019 
L 307.973815 108.197172 
L 304.274088 113.27641 
L 299.932188 119.608967 
L 295.308702 127.029931 
L 294.06198 129.107801 
L 290.663439 135.440357 
L 287.766804 141.772914 
L 286.535473 144.939192 
L 284.529388 151.271748 
L 283.784381 154.438026 
L 283.225626 157.604305 
L 282.853123 160.770583 
L 282.666871 163.936861 
L 282.666871 167.103139 
L 282.853123 170.269417 
L 283.225626 173.435695 
L 283.784381 176.601974 
L 284.529388 179.768252 
L 285.809868 183.923992 
L 286.535473 186.100808 
L 287.766804 189.267086 
L 290.663439 195.599643 
L 294.06198 201.932199 
L 298.474981 209.141136 
L 302.07146 214.597312 
L 306.539095 220.929868 
L 314.306371 231.163731 
L 318.73068 236.761259 
L 329.231287 249.426371 
L 349.135431 272.137433 
L 360.111219 284.255431 
L 387.130769 313.282455 
L 387.130769 313.282455 
" style="fill:none;stroke:#333333;stroke-dasharray:18.5,8;stroke-dashoffset:0;stroke-width:5;"/>
   </g>
   <g id="LineCollection_3">
    <path clip-path="url(#pf50ef73a13)" d="M 73.669231 303.738836 
L 79.655475 296.920544 
L 98.999456 274.17456 
L 106.285955 265.257762 
L 116.216094 252.59265 
L 124.329681 241.609622 
L 127.768062 236.761259 
L 132.066635 230.428702 
L 136.994794 222.644935 
L 139.915413 217.76359 
L 145.057076 208.264755 
L 148.046323 201.932199 
L 150.641453 195.599643 
L 151.781313 192.433364 
L 153.716701 186.100808 
L 154.50827 182.93453 
L 155.167911 179.768252 
L 155.992463 174.227265 
L 156.095711 173.435695 
L 156.37104 170.269417 
L 156.508704 167.103139 
L 156.508704 163.936861 
L 156.37104 160.770583 
L 155.992463 156.812735 
L 155.695625 154.438026 
L 155.167911 151.271748 
L 154.50827 148.10547 
L 153.716701 144.939192 
L 151.781313 138.606636 
L 149.385902 132.274079 
L 148.046323 129.107801 
L 145.057076 122.775245 
L 141.715941 116.442688 
L 136.994794 108.395065 
L 134.118758 103.777576 
L 125.553016 91.112463 
L 116.216094 78.44735 
L 105.332012 64.61962 
L 98.528284 56.283403 
L 87.864711 43.618291 
L 73.669231 27.301164 
L 73.669231 27.301164 
" style="fill:none;stroke:#666666;"/>
    <path clip-path="url(#pf50ef73a13)" d="M 387.130769 27.301164 
L 381.144525 34.119456 
L 361.800544 56.86544 
L 354.514045 65.782238 
L 344.583906 78.44735 
L 336.470319 89.430378 
L 333.031938 94.278741 
L 328.733365 100.611298 
L 323.805206 108.395065 
L 320.884587 113.27641 
L 315.742924 122.775245 
L 312.753677 129.107801 
L 310.158547 135.440357 
L 309.018687 138.606636 
L 307.083299 144.939192 
L 306.29173 148.10547 
L 305.632089 151.271748 
L 304.807537 156.812735 
L 304.704289 157.604305 
L 304.42896 160.770583 
L 304.291296 163.936861 
L 304.291296 167.103139 
L 304.42896 170.269417 
L 304.807537 174.227265 
L 305.104375 176.601974 
L 305.632089 179.768252 
L 306.29173 182.93453 
L 307.083299 186.100808 
L 309.018687 192.433364 
L 311.414098 198.765921 
L 312.753677 201.932199 
L 315.742924 208.264755 
L 319.084059 214.597312 
L 323.805206 222.644935 
L 326.681242 227.262424 
L 335.246984 239.927537 
L 344.583906 252.59265 
L 355.467988 266.42038 
L 362.271716 274.756597 
L 372.935289 287.421709 
L 387.130769 303.738836 
L 387.130769 303.738836 
" style="fill:none;stroke:#666666;"/>
   </g>
   <g id="LineCollection_4">
    <path clip-path="url(#pf50ef73a13)" d="M 73.669231 293.487111 
L 76.035862 290.587988 
L 76.835509 289.583303 
L 78.591804 287.421709 
L 80.001787 285.640678 
L 81.121774 284.255431 
L 83.168065 281.656088 
L 83.624078 281.089153 
L 86.102035 277.922875 
L 86.334343 277.617555 
L 88.559533 274.756597 
L 89.500622 273.511039 
L 90.984814 271.590319 
L 92.6669 269.347538 
L 93.375631 268.42404 
L 95.731931 265.257762 
L 95.833178 265.117322 
L 98.066535 262.091484 
L 98.999456 260.785394 
L 100.36057 258.925206 
L 102.165734 256.373077 
L 102.610992 255.758928 
L 104.827387 252.59265 
L 105.332012 251.845056 
L 107.006486 249.426371 
L 108.498291 247.188665 
L 109.133629 246.260093 
L 111.216707 243.093815 
L 111.664569 242.384701 
L 113.258405 239.927537 
L 114.830847 237.397956 
L 115.237626 236.761259 
L 117.172573 233.594981 
L 117.997125 232.181464 
L 119.048782 230.428702 
L 120.858084 227.262424 
L 121.163403 226.699993 
L 122.618494 224.096146 
L 124.294759 220.929868 
L 124.329681 220.860024 
L 125.924814 217.76359 
L 127.459979 214.597312 
L 127.49596 214.518155 
L 128.943048 211.431033 
L 130.328294 208.264755 
L 130.662238 207.442741 
L 131.645316 205.098477 
L 132.870972 201.932199 
L 133.828516 199.233666 
L 134.000023 198.765921 
L 135.055449 195.599643 
L 136.005332 192.433364 
L 136.849673 189.267086 
L 136.994794 188.645139 
L 137.608943 186.100808 
L 138.264035 182.93453 
L 138.809945 179.768252 
L 139.246673 176.601974 
L 139.574219 173.435695 
L 139.792583 170.269417 
L 139.901765 167.103139 
L 139.901765 163.936861 
L 139.792583 160.770583 
L 139.574219 157.604305 
L 139.246673 154.438026 
L 138.809945 151.271748 
L 138.264035 148.10547 
L 137.608943 144.939192 
L 136.994794 142.394861 
L 136.849673 141.772914 
L 136.005332 138.606636 
L 135.055449 135.440357 
L 134.000023 132.274079 
L 133.828516 131.806334 
L 132.870972 129.107801 
L 131.645316 125.941523 
L 130.662238 123.597259 
L 130.328294 122.775245 
L 128.943048 119.608967 
L 127.49596 116.521845 
L 127.459979 116.442688 
L 125.924814 113.27641 
L 124.329681 110.179976 
L 124.294759 110.110132 
L 122.618494 106.943854 
L 121.163403 104.340007 
L 120.858084 103.777576 
L 119.048782 100.611298 
L 117.997125 98.858536 
L 117.172573 97.445019 
L 115.237626 94.278741 
L 114.830847 93.642044 
L 113.258405 91.112463 
L 111.664569 88.655299 
L 111.216707 87.946185 
L 109.133629 84.779907 
L 108.498291 83.851335 
L 107.006486 81.613629 
L 105.332012 79.194944 
L 104.827387 78.44735 
L 102.610992 75.281072 
L 102.165734 74.666923 
L 100.36057 72.114794 
L 98.999456 70.254606 
L 98.066535 68.948516 
L 95.833178 65.922678 
L 95.731931 65.782238 
L 93.375631 62.61596 
L 92.6669 61.692462 
L 90.984814 59.449681 
L 89.500622 57.528961 
L 88.559533 56.283403 
L 86.334343 53.422445 
L 86.102035 53.117125 
L 83.624078 49.950847 
L 83.168065 49.383912 
L 81.121774 46.784569 
L 80.001787 45.399322 
L 78.591804 43.618291 
L 76.835509 41.456697 
L 76.035862 40.452012 
L 73.669231 37.552889 
" style="fill:none;stroke:#999999;stroke-dasharray:18.5,8;stroke-dashoffset:0;stroke-width:5;"/>
    <path clip-path="url(#pf50ef73a13)" d="M 387.130769 37.552889 
L 384.764138 40.452012 
L 383.964491 41.456697 
L 382.208196 43.618291 
L 380.798213 45.399322 
L 379.678226 46.784569 
L 377.631935 49.383912 
L 377.175922 49.950847 
L 374.697965 53.117125 
L 374.465657 53.422445 
L 372.240467 56.283403 
L 371.299378 57.528961 
L 369.815186 59.449681 
L 368.1331 61.692462 
L 367.424369 62.61596 
L 365.068069 65.782238 
L 364.966822 65.922678 
L 362.733465 68.948516 
L 361.800544 70.254606 
L 360.43943 72.114794 
L 358.634266 74.666923 
L 358.189008 75.281072 
L 355.972613 78.44735 
L 355.467988 79.194944 
L 353.793514 81.613629 
L 352.301709 83.851335 
L 351.666371 84.779907 
L 349.583293 87.946185 
L 349.135431 88.655299 
L 347.541595 91.112463 
L 345.969153 93.642044 
L 345.562374 94.278741 
L 343.627427 97.445019 
L 342.802875 98.858536 
L 341.751218 100.611298 
L 339.941916 103.777576 
L 339.636597 104.340007 
L 338.181506 106.943854 
L 336.505241 110.110132 
L 336.470319 110.179976 
L 334.875186 113.27641 
L 333.340021 116.442688 
L 333.30404 116.521845 
L 331.856952 119.608967 
L 330.471706 122.775245 
L 330.137762 123.597259 
L 329.154684 125.941523 
L 327.929028 129.107801 
L 326.971484 131.806334 
L 326.799977 132.274079 
L 325.744551 135.440357 
L 324.794668 138.606636 
L 323.950327 141.772914 
L 323.805206 142.394861 
L 323.191057 144.939192 
L 322.535965 148.10547 
L 321.990055 151.271748 
L 321.553327 154.438026 
L 321.225781 157.604305 
L 321.007417 160.770583 
L 320.898235 163.936861 
L 320.898235 167.103139 
L 321.007417 170.269417 
L 321.225781 173.435695 
L 321.553327 176.601974 
L 321.990055 179.768252 
L 322.535965 182.93453 
L 323.191057 186.100808 
L 323.805206 188.645139 
L 323.950327 189.267086 
L 324.794668 192.433364 
L 325.744551 195.599643 
L 326.799977 198.765921 
L 326.971484 199.233666 
L 327.929028 201.932199 
L 329.154684 205.098477 
L 330.137762 207.442741 
L 330.471706 208.264755 
L 331.856952 211.431033 
L 333.30404 214.518155 
L 333.340021 214.597312 
L 334.875186 217.76359 
L 336.470319 220.860024 
L 336.505241 220.929868 
L 338.181506 224.096146 
L 339.636597 226.699993 
L 339.941916 227.262424 
L 341.751218 230.428702 
L 342.802875 232.181464 
L 343.627427 233.594981 
L 345.562374 236.761259 
L 345.969153 237.397956 
L 347.541595 239.927537 
L 349.135431 242.384701 
L 349.583293 243.093815 
L 351.666371 246.260093 
L 352.301709 247.188665 
L 353.793514 249.426371 
L 355.467988 251.845056 
L 355.972613 252.59265 
L 358.189008 255.758928 
L 358.634266 256.373077 
L 360.43943 258.925206 
L 361.800544 260.785394 
L 362.733465 262.091484 
L 364.966822 265.117322 
L 365.068069 265.257762 
L 367.424369 268.42404 
L 368.1331 269.347538 
L 369.815186 271.590319 
L 371.299378 273.511039 
L 372.240467 274.756597 
L 374.465657 277.617555 
L 374.697965 277.922875 
L 377.175922 281.089153 
L 377.631935 281.656088 
L 379.678226 284.255431 
L 380.798213 285.640678 
L 382.208196 287.421709 
L 383.964491 289.583303 
L 384.764138 290.587988 
L 387.130769 293.487111 
" style="fill:none;stroke:#999999;stroke-dasharray:18.5,8;stroke-dashoffset:0;stroke-width:5;"/>
   </g>
   <g id="LineCollection_5">
    <path clip-path="url(#pf50ef73a13)" d="M 73.669231 282.329992 
L 74.606191 281.089153 
L 76.835509 278.054803 
L 76.934455 277.922875 
L 79.2432 274.756597 
L 80.001787 273.68565 
L 81.517559 271.590319 
L 83.168065 269.239597 
L 83.753138 268.42404 
L 85.955767 265.257762 
L 86.334343 264.696003 
L 88.128568 262.091484 
L 89.500622 260.033403 
L 90.256211 258.925206 
L 92.343076 255.758928 
L 92.6669 255.250062 
L 94.397308 252.59265 
L 95.833178 250.305893 
L 96.398585 249.426371 
L 98.358662 246.260093 
L 98.999456 245.183559 
L 100.27369 243.093815 
L 102.127121 239.927537 
L 102.165734 239.858705 
L 103.946766 236.761259 
L 105.332012 234.242628 
L 105.697352 233.594981 
L 107.402271 230.428702 
L 108.498291 228.291465 
L 109.039891 227.262424 
L 110.62303 224.096146 
L 111.664569 221.897342 
L 112.135232 220.929868 
L 113.590008 217.76359 
L 114.830847 214.89415 
L 114.962775 214.597312 
L 116.282058 211.431033 
L 117.513388 208.264755 
L 117.997125 206.925176 
L 118.675613 205.098477 
L 119.761194 201.932199 
L 120.75631 198.765921 
L 121.163403 197.341096 
L 121.675595 195.599643 
L 122.513728 192.433364 
L 123.258734 189.267086 
L 123.910615 186.100808 
L 124.329681 183.726099 
L 124.473603 182.93453 
L 124.953342 179.768252 
L 125.337134 176.601974 
L 125.624977 173.435695 
L 125.816873 170.269417 
L 125.912821 167.103139 
L 125.912821 163.936861 
L 125.816873 160.770583 
L 125.624977 157.604305 
L 125.337134 154.438026 
L 124.953342 151.271748 
L 124.473603 148.10547 
L 124.329681 147.313901 
L 123.910615 144.939192 
L 123.258734 141.772914 
L 122.513728 138.606636 
L 121.675595 135.440357 
L 121.163403 133.698904 
L 120.75631 132.274079 
L 119.761194 129.107801 
L 118.675613 125.941523 
L 117.997125 124.114824 
L 117.513388 122.775245 
L 116.282058 119.608967 
L 114.962775 116.442688 
L 114.830847 116.14585 
L 113.590008 113.27641 
L 112.135232 110.110132 
L 111.664569 109.142658 
L 110.62303 106.943854 
L 109.039891 103.777576 
L 108.498291 102.748535 
L 107.402271 100.611298 
L 105.697352 97.445019 
L 105.332012 96.797372 
L 103.946766 94.278741 
L 102.165734 91.181295 
L 102.127121 91.112463 
L 100.27369 87.946185 
L 98.999456 85.856441 
L 98.358662 84.779907 
L 96.398585 81.613629 
L 95.833178 80.734107 
L 94.397308 78.44735 
L 92.6669 75.789938 
L 92.343076 75.281072 
L 90.256211 72.114794 
L 89.500622 71.006597 
L 88.128568 68.948516 
L 86.334343 66.343997 
L 85.955767 65.782238 
L 83.753138 62.61596 
L 83.168065 61.800403 
L 81.517559 59.449681 
L 80.001787 57.35435 
L 79.2432 56.283403 
L 76.934455 53.117125 
L 76.835509 52.985197 
L 74.606191 49.950847 
L 73.669231 48.710008 
" style="fill:none;stroke:#cccccc;"/>
    <path clip-path="url(#pf50ef73a13)" d="M 387.130769 48.710008 
L 386.193809 49.950847 
L 383.964491 52.985197 
L 383.865545 53.117125 
L 381.5568 56.283403 
L 380.798213 57.35435 
L 379.282441 59.449681 
L 377.631935 61.800403 
L 377.046862 62.61596 
L 374.844233 65.782238 
L 374.465657 66.343997 
L 372.671432 68.948516 
L 371.299378 71.006597 
L 370.543789 72.114794 
L 368.456924 75.281072 
L 368.1331 75.789938 
L 366.402692 78.44735 
L 364.966822 80.734107 
L 364.401415 81.613629 
L 362.441338 84.779907 
L 361.800544 85.856441 
L 360.52631 87.946185 
L 358.672879 91.112463 
L 358.634266 91.181295 
L 356.853234 94.278741 
L 355.467988 96.797372 
L 355.102648 97.445019 
L 353.397729 100.611298 
L 352.301709 102.748535 
L 351.760109 103.777576 
L 350.17697 106.943854 
L 349.135431 109.142658 
L 348.664768 110.110132 
L 347.209992 113.27641 
L 345.969153 116.14585 
L 345.837225 116.442688 
L 344.517942 119.608967 
L 343.286612 122.775245 
L 342.802875 124.114824 
L 342.124387 125.941523 
L 341.038806 129.107801 
L 340.04369 132.274079 
L 339.636597 133.698904 
L 339.124405 135.440357 
L 338.286272 138.606636 
L 337.541266 141.772914 
L 336.889385 144.939192 
L 336.470319 147.313901 
L 336.326397 148.10547 
L 335.846658 151.271748 
L 335.462866 154.438026 
L 335.175023 157.604305 
L 334.983127 160.770583 
L 334.887179 163.936861 
L 334.887179 167.103139 
L 334.983127 170.269417 
L 335.175023 173.435695 
L 335.462866 176.601974 
L 335.846658 179.768252 
L 336.326397 182.93453 
L 336.470319 183.726099 
L 336.889385 186.100808 
L 337.541266 189.267086 
L 338.286272 192.433364 
L 339.124405 195.599643 
L 339.636597 197.341096 
L 340.04369 198.765921 
L 341.038806 201.932199 
L 342.124387 205.098477 
L 342.802875 206.925176 
L 343.286612 208.264755 
L 344.517942 211.431033 
L 345.837225 214.597312 
L 345.969153 214.89415 
L 347.209992 217.76359 
L 348.664768 220.929868 
L 349.135431 221.897342 
L 350.17697 224.096146 
L 351.760109 227.262424 
L 352.301709 228.291465 
L 353.397729 230.428702 
L 355.102648 233.594981 
L 355.467988 234.242628 
L 356.853234 236.761259 
L 358.634266 239.858705 
L 358.672879 239.927537 
L 360.52631 243.093815 
L 361.800544 245.183559 
L 362.441338 246.260093 
L 364.401415 249.426371 
L 364.966822 250.305893 
L 366.402692 252.59265 
L 368.1331 255.250062 
L 368.456924 255.758928 
L 370.543789 258.925206 
L 371.299378 260.033403 
L 372.671432 262.091484 
L 374.465657 264.696003 
L 374.844233 265.257762 
L 377.046862 268.42404 
L 377.631935 269.239597 
L 379.282441 271.590319 
L 380.798213 273.68565 
L 381.5568 274.756597 
L 383.865545 277.922875 
L 383.964491 278.054803 
L 386.193809 281.089153 
L 387.130769 282.329992 
" style="fill:none;stroke:#cccccc;"/>
   </g>
   <g id="patch_3">
    <path d="M 67.4 328.52 
L 67.4 2.52 
" style="fill:none;stroke:#000000;stroke-linecap:square;stroke-linejoin:miter;stroke-width:0.8;"/>
   </g>
   <g id="patch_4">
    <path d="M 393.4 328.52 
L 393.4 2.52 
" style="fill:none;stroke:#000000;stroke-linecap:square;stroke-linejoin:miter;stroke-width:0.8;"/>
   </g>
   <g id="patch_5">
    <path d="M 67.4 328.52 
L 393.4 328.52 
" style="fill:none;stroke:#000000;stroke-linecap:square;stroke-linejoin:miter;stroke-width:0.8;"/>
   </g>
   <g id="patch_6">
    <path d="M 67.4 2.52 
L 393.4 2.52 
" style="fill:none;stroke:#000000;stroke-linecap:square;stroke-linejoin:miter;stroke-width:0.8;"/>
   </g>
  </g>
 </g>
 <defs>
  <clipPath id="pf50ef73a13">
   <rect height="326" width="326" x="67.4" y="2.52"/>
  </clipPath>
 </defs>
</svg>
