<?xml version="1.0" encoding="utf-8" standalone="no"?>
<!DOCTYPE svg PUBLIC "-//W3C//DTD SVG 1.1//EN"
  "http://www.w3.org/Graphics/SVG/1.1/DTD/svg11.dtd">
<svg xmlns:xlink="http://www.w3.org/1999/xlink" width="460.8pt" height="345.6pt" viewBox="0 0 460.8 345.6" xmlns="http://www.w3.org/2000/svg" version="1.1">
 <metadata>
  <rdf:RDF xmlns:dc="http://purl.org/dc/elements/1.1/" xmlns:cc="http://creativecommons.org/ns#" xmlns:rdf="http://www.w3.org/1999/02/22-rdf-syntax-ns#">
   <cc:Work>
    <dc:type rdf:resource="http://purl.org/dc/dcmitype/StillImage"/>
    <dc:date>2022-05-16T19:37:07.970776</dc:date>
    <dc:format>image/svg+xml</dc:format>
    <dc:creator>
     <cc:Agent>
      <dc:title>Matplotlib v3.5.1, https://matplotlib.org/</dc:title>
     </cc:Agent>
    </dc:creator>
   </cc:Work>
  </rdf:RDF>
 </metadata>
 <defs>
  <style type="text/css">*{stroke-linejoin: round; stroke-linecap: butt}</style>
 </defs>
 <g id="figure_1">
  <g id="patch_1">
   <path d="M 0 345.6 
L 460.8 345.6 
L 460.8 0 
L 0 0 
z
" style="fill: #ffffff"/>
  </g>
  <g id="axes_1">
   <g id="patch_2">
    <path d="M 72.796 315.208 
L 388.004 315.208 
L 388.004 0 
L 72.796 0 
z
" style="fill: #ffffff"/>
   </g>
   <g id="PathCollection_1">
    <path d="M 97.019317 301.941087 
L 107.098232 301.941087 
L 116.42985 301.941087 
L 125.117378 301.941087 
L 133.244018 301.941087 
L 140.877822 301.941087 
L 148.075165 301.941087 
L 154.883267 301.941087 
L 161.342078 301.941087 
L 167.485697 301.941087 
L 173.343461 301.941087 
L 178.940792 301.941087 
L 184.299865 301.941087 
L 189.440139 301.941087 
L 194.37878 301.941087 
L 199.131012 301.941087 
L 203.710398 301.941087 
L 208.129069 301.941087 
L 212.397926 301.941087 
L 216.526794 301.941087 
L 220.524566 301.941087 
L 224.399309 301.941087 
L 228.15837 301.941087 
L 231.808458 301.941087 
L 235.355713 301.941087 
L 238.80577 301.941087 
L 242.163815 301.941087 
L 245.434628 301.941087 
L 248.622626 301.941087 
L 251.7319 301.941087 
L 254.766245 301.941087 
L 257.729187 301.941087 
L 260.624009 301.941087 
L 263.453773 301.941087 
L 266.22134 301.941087 
L 268.929384 301.941087 
L 271.580413 301.941087 
L 274.176777 301.941087 
L 276.720686 301.941087 
L 279.214218 301.941087 
L 281.659328 301.941087 
L 284.057862 301.941087 
L 286.41156 301.941087 
L 288.722069 301.941087 
L 290.990945 301.941087 
L 293.219662 301.941087 
L 295.409617 301.941087 
L 297.562134 301.941087 
L 299.678473 301.941087 
L 301.75983 301.941087 
L 303.807342 301.941087 
L 305.822093 301.941087 
L 307.805113 301.941087 
L 309.757388 301.941087 
L 311.679856 301.941087 
L 313.573414 301.941087 
L 315.438918 301.941087 
L 317.277187 301.941087 
L 319.089006 301.941087 
L 320.875124 301.941087 
L 322.636261 301.941087 
L 324.373105 301.941087 
L 326.086318 301.941087 
L 327.776534 301.941087 
L 329.444362 301.941087 
L 331.090389 301.941087 
L 332.715175 301.941087 
L 334.319263 301.941087 
L 335.903174 301.941087 
L 337.467408 301.941087 
L 339.012448 301.941087 
L 340.53876 301.941087 
L 342.046793 301.941087 
L 343.536978 301.941087 
L 345.009735 301.941087 
L 346.465464 301.941087 
L 347.904557 301.941087 
L 349.327388 301.941087 
L 350.734321 301.941087 
L 352.125708 301.941087 
L 353.501888 301.941087 
L 354.86319 301.941087 
L 356.209932 301.941087 
L 357.542423 301.941087 
L 358.860961 301.941087 
L 360.165835 301.941087 
L 361.457325 301.941087 
L 362.735704 301.941087 
L 364.001234 301.941087 
L 365.254172 301.941087 
L 366.494766 301.941087 
L 367.723255 301.941087 
L 368.939876 301.941087 
L 370.144853 301.941087 
L 371.338409 301.941087 
L 372.520758 301.941087 
L 373.692108 301.941087 
L 374.852662 301.941087 
L 375.368552 301.941087 
L 375.247666 290.984683 
L 375.116135 280.905768 
L 374.973928 271.57415 
L 374.852662 264.635528 
L 374.820716 262.886622 
L 374.655534 254.759982 
L 374.479457 247.126178 
L 374.292439 239.928835 
L 374.094432 233.120733 
L 373.885384 226.661922 
L 373.692108 221.251672 
L 373.664991 220.518303 
L 373.43154 214.660539 
L 373.186768 209.063208 
L 372.930607 203.704135 
L 372.66299 198.563861 
L 372.520758 196.021928 
L 372.382558 193.62522 
L 372.089073 188.872988 
L 371.783787 184.293602 
L 371.466617 179.874931 
L 371.338409 178.193546 
L 371.135568 175.606074 
L 370.791118 171.477206 
L 370.434382 167.479434 
L 370.144853 164.429236 
L 370.064496 163.604691 
L 369.67922 159.84563 
L 369.281207 156.195542 
L 368.939876 153.240849 
L 368.869667 152.648287 
L 368.441719 149.19823 
L 368.000526 145.840185 
L 367.723255 143.833632 
L 367.544223 142.569372 
L 367.071551 139.381374 
L 366.585063 136.2721 
L 366.494766 135.718283 
L 366.080557 133.237755 
L 365.560873 130.274813 
L 365.254172 128.602999 
L 365.024466 127.379991 
L 364.470208 124.550227 
L 364.001234 122.264879 
L 363.899952 121.78266 
L 363.30963 119.074616 
L 362.735704 116.561732 
L 362.703418 116.423587 
L 362.075423 113.827223 
L 361.457325 111.385108 
L 361.430966 111.283314 
L 360.763554 108.789782 
L 360.165835 106.650673 
L 360.078365 106.344672 
L 359.369644 103.946138 
L 358.860961 102.29175 
L 358.641015 101.59244 
L 357.888926 99.281931 
L 357.542423 98.254851 
L 357.113899 97.013055 
L 356.316202 94.784338 
L 356.209932 94.496522 
L 355.491541 92.594383 
L 354.86319 90.990295 
L 354.643435 90.441866 
L 353.767945 88.325527 
L 353.501888 87.702677 
L 352.864548 86.24417 
L 352.125708 84.610132 
L 351.93444 84.196658 
L 350.973719 82.181907 
L 350.734321 81.694974 
L 349.98172 80.198887 
L 349.327388 78.939305 
L 348.959156 78.246612 
L 347.904557 76.324144 
L 347.904557 76.324144 
L 346.812349 74.430586 
L 346.465464 73.84724 
L 345.684997 72.565082 
L 345.009735 71.488383 
L 344.520727 70.726813 
L 343.536978 69.238944 
L 343.317645 68.914994 
L 342.0734 67.128876 
L 342.046793 67.091675 
L 340.783801 65.367739 
L 340.53876 65.042507 
L 339.449104 63.630895 
L 339.012448 63.080594 
L 338.06682 61.917682 
L 337.467408 61.200257 
L 336.634272 60.227466 
L 335.903174 59.396313 
L 335.14857 58.559638 
L 334.319263 57.664026 
L 333.606588 56.913611 
L 332.715175 55.999054 
L 332.004946 55.288825 
L 331.090389 54.397412 
L 330.339974 53.684737 
L 329.444362 52.85543 
L 328.607687 52.100826 
L 327.776534 51.369728 
L 326.803743 50.536592 
L 326.086318 49.93718 
L 324.923406 48.991552 
L 324.373105 48.554896 
L 322.961493 47.46524 
L 322.636261 47.220199 
L 320.912325 45.957207 
L 320.875124 45.9306 
L 319.089006 44.686355 
L 318.765056 44.467022 
L 317.277187 43.483273 
L 316.515617 42.994265 
L 315.438918 42.319003 
L 314.15676 41.538536 
L 313.573414 41.191651 
L 311.679856 40.099443 
L 311.679856 40.099443 
L 309.757388 39.044844 
L 309.064695 38.676612 
L 307.805113 38.02228 
L 306.309026 37.269679 
L 305.822093 37.030281 
L 303.807342 36.06956 
L 303.393868 35.878292 
L 301.75983 35.139452 
L 300.301323 34.502112 
L 299.678473 34.236055 
L 297.562134 33.360565 
L 297.013705 33.14081 
L 295.409617 32.512459 
L 293.507478 31.794068 
L 293.219662 31.687798 
L 290.990945 30.890101 
L 289.749149 30.461577 
L 288.722069 30.115074 
L 286.41156 29.362985 
L 285.71225 29.143039 
L 284.057862 28.634356 
L 281.659328 27.925635 
L 281.353327 27.838165 
L 279.214218 27.240446 
L 276.720686 26.573034 
L 276.618892 26.546675 
L 274.176777 25.928577 
L 271.580413 25.300582 
L 271.442268 25.268296 
L 268.929384 24.69437 
L 266.22134 24.104048 
L 265.739121 24.002766 
L 263.453773 23.533792 
L 260.624009 22.979534 
L 259.401001 22.749828 
L 257.729187 22.443127 
L 254.766245 21.923443 
L 252.285717 21.509234 
L 251.7319 21.418937 
L 248.622626 20.932449 
L 245.434628 20.459777 
L 244.170368 20.280745 
L 242.163815 20.003474 
L 238.80577 19.562281 
L 235.355713 19.134333 
L 234.763151 19.064124 
L 231.808458 18.722793 
L 228.15837 18.32478 
L 224.399309 17.939504 
L 223.574764 17.859147 
L 220.524566 17.569618 
L 216.526794 17.212882 
L 212.397926 16.868432 
L 209.810454 16.665591 
L 208.129069 16.537383 
L 203.710398 16.220213 
L 199.131012 15.914927 
L 194.37878 15.621442 
L 191.982072 15.483242 
L 189.440139 15.34101 
L 184.299865 15.073393 
L 178.940792 14.817232 
L 173.343461 14.57246 
L 167.485697 14.339009 
L 166.752328 14.311892 
L 161.342078 14.118616 
L 154.883267 13.909568 
L 148.075165 13.711561 
L 140.877822 13.524543 
L 133.244018 13.348466 
L 125.117378 13.183284 
L 123.368472 13.151338 
L 116.42985 13.030072 
L 107.098232 12.887865 
L 97.019317 12.756334 
L 86.062913 12.635448 
L 86.062913 13.151338 
L 86.062913 14.311892 
L 86.062913 15.483242 
L 86.062913 16.665591 
L 86.062913 17.859147 
L 86.062913 19.064124 
L 86.062913 20.280745 
L 86.062913 21.509234 
L 86.062913 22.749828 
L 86.062913 24.002766 
L 86.062913 25.268296 
L 86.062913 26.546675 
L 86.062913 27.838165 
L 86.062913 29.143039 
L 86.062913 30.461577 
L 86.062913 31.794068 
L 86.062913 33.14081 
L 86.062913 34.502112 
L 86.062913 35.878292 
L 86.062913 37.269679 
L 86.062913 38.676612 
L 86.062913 40.099443 
L 86.062913 41.538536 
L 86.062913 42.994265 
L 86.062913 44.467022 
L 86.062913 45.957207 
L 86.062913 47.46524 
L 86.062913 48.991552 
L 86.062913 50.536592 
L 86.062913 52.100826 
L 86.062913 53.684737 
L 86.062913 55.288825 
L 86.062913 56.913611 
L 86.062913 58.559638 
L 86.062913 60.227466 
L 86.062913 61.917682 
L 86.062913 63.630895 
L 86.062913 65.367739 
L 86.062913 67.128876 
L 86.062913 68.914994 
L 86.062913 70.726813 
L 86.062913 72.565082 
L 86.062913 74.430586 
L 86.062913 76.324144 
L 86.062913 78.246612 
L 86.062913 80.198887 
L 86.062913 82.181907 
L 86.062913 84.196658 
L 86.062913 86.24417 
L 86.062913 88.325527 
L 86.062913 90.441866 
L 86.062913 92.594383 
L 86.062913 94.784338 
L 86.062913 97.013055 
L 86.062913 99.281931 
L 86.062913 101.59244 
L 86.062913 103.946138 
L 86.062913 106.344672 
L 86.062913 108.789782 
L 86.062913 111.283314 
L 86.062913 113.827223 
L 86.062913 116.423587 
L 86.062913 119.074616 
L 86.062913 121.78266 
L 86.062913 124.550227 
L 86.062913 127.379991 
L 86.062913 130.274813 
L 86.062913 133.237755 
L 86.062913 136.2721 
L 86.062913 139.381374 
L 86.062913 142.569372 
L 86.062913 145.840185 
L 86.062913 149.19823 
L 86.062913 152.648287 
L 86.062913 156.195542 
L 86.062913 159.84563 
L 86.062913 163.604691 
L 86.062913 167.479434 
L 86.062913 171.477206 
L 86.062913 175.606074 
L 86.062913 179.874931 
L 86.062913 184.293602 
L 86.062913 188.872988 
L 86.062913 193.62522 
L 86.062913 198.563861 
L 86.062913 203.704135 
L 86.062913 209.063208 
L 86.062913 214.660539 
L 86.062913 220.518303 
L 86.062913 226.661922 
L 86.062913 233.120733 
L 86.062913 239.928835 
L 86.062913 247.126178 
L 86.062913 254.759982 
L 86.062913 262.886622 
L 86.062913 271.57415 
L 86.062913 280.905768 
L 86.062913 290.984683 
L 86.062913 301.941087 
z
" clip-path="url(#p77d5bfd8f9)" style="fill: #0000ff"/>
   </g>
   <g id="PathCollection_2">
    <path d="M 375.247666 290.984683 
L 375.116135 280.905768 
L 374.973928 271.57415 
L 374.852662 264.635528 
L 374.820716 262.886622 
L 374.655534 254.759982 
L 374.479457 247.126178 
L 374.292439 239.928835 
L 374.094432 233.120733 
L 373.885384 226.661922 
L 373.692108 221.251672 
L 373.664991 220.518303 
L 373.43154 214.660539 
L 373.186768 209.063208 
L 372.930607 203.704135 
L 372.66299 198.563861 
L 372.520758 196.021928 
L 372.382558 193.62522 
L 372.089073 188.872988 
L 371.783787 184.293602 
L 371.466617 179.874931 
L 371.338409 178.193546 
L 371.135568 175.606074 
L 370.791118 171.477206 
L 370.434382 167.479434 
L 370.144853 164.429236 
L 370.064496 163.604691 
L 369.67922 159.84563 
L 369.281207 156.195542 
L 368.939876 153.240849 
L 368.869667 152.648287 
L 368.441719 149.19823 
L 368.000526 145.840185 
L 367.723255 143.833632 
L 367.544223 142.569372 
L 367.071551 139.381374 
L 366.585063 136.2721 
L 366.494766 135.718283 
L 366.080557 133.237755 
L 365.560873 130.274813 
L 365.254172 128.602999 
L 365.024466 127.379991 
L 364.470208 124.550227 
L 364.001234 122.264879 
L 363.899952 121.78266 
L 363.30963 119.074616 
L 362.735704 116.561732 
L 362.703418 116.423587 
L 362.075423 113.827223 
L 361.457325 111.385108 
L 361.430966 111.283314 
L 360.763554 108.789782 
L 360.165835 106.650673 
L 360.078365 106.344672 
L 359.369644 103.946138 
L 358.860961 102.29175 
L 358.641015 101.59244 
L 357.888926 99.281931 
L 357.542423 98.254851 
L 357.113899 97.013055 
L 356.316202 94.784338 
L 356.209932 94.496522 
L 355.491541 92.594383 
L 354.86319 90.990295 
L 354.643435 90.441866 
L 353.767945 88.325527 
L 353.501888 87.702677 
L 352.864548 86.24417 
L 352.125708 84.610132 
L 351.93444 84.196658 
L 350.973719 82.181907 
L 350.734321 81.694974 
L 349.98172 80.198887 
L 349.327388 78.939305 
L 348.959156 78.246612 
L 347.904557 76.324144 
L 347.904557 76.324144 
L 346.812349 74.430586 
L 346.465464 73.84724 
L 345.684997 72.565082 
L 345.009735 71.488383 
L 344.520727 70.726813 
L 343.536978 69.238944 
L 343.317645 68.914994 
L 342.0734 67.128876 
L 342.046793 67.091675 
L 340.783801 65.367739 
L 340.53876 65.042507 
L 339.449104 63.630895 
L 339.012448 63.080594 
L 338.06682 61.917682 
L 337.467408 61.200257 
L 336.634272 60.227466 
L 335.903174 59.396313 
L 335.14857 58.559638 
L 334.319263 57.664026 
L 333.606588 56.913611 
L 332.715175 55.999054 
L 332.004946 55.288825 
L 331.090389 54.397412 
L 330.339974 53.684737 
L 329.444362 52.85543 
L 328.607687 52.100826 
L 327.776534 51.369728 
L 326.803743 50.536592 
L 326.086318 49.93718 
L 324.923406 48.991552 
L 324.373105 48.554896 
L 322.961493 47.46524 
L 322.636261 47.220199 
L 320.912325 45.957207 
L 320.875124 45.9306 
L 319.089006 44.686355 
L 318.765056 44.467022 
L 317.277187 43.483273 
L 316.515617 42.994265 
L 315.438918 42.319003 
L 314.15676 41.538536 
L 313.573414 41.191651 
L 311.679856 40.099443 
L 311.679856 40.099443 
L 309.757388 39.044844 
L 309.064695 38.676612 
L 307.805113 38.02228 
L 306.309026 37.269679 
L 305.822093 37.030281 
L 303.807342 36.06956 
L 303.393868 35.878292 
L 301.75983 35.139452 
L 300.301323 34.502112 
L 299.678473 34.236055 
L 297.562134 33.360565 
L 297.013705 33.14081 
L 295.409617 32.512459 
L 293.507478 31.794068 
L 293.219662 31.687798 
L 290.990945 30.890101 
L 289.749149 30.461577 
L 288.722069 30.115074 
L 286.41156 29.362985 
L 285.71225 29.143039 
L 284.057862 28.634356 
L 281.659328 27.925635 
L 281.353327 27.838165 
L 279.214218 27.240446 
L 276.720686 26.573034 
L 276.618892 26.546675 
L 274.176777 25.928577 
L 271.580413 25.300582 
L 271.442268 25.268296 
L 268.929384 24.69437 
L 266.22134 24.104048 
L 265.739121 24.002766 
L 263.453773 23.533792 
L 260.624009 22.979534 
L 259.401001 22.749828 
L 257.729187 22.443127 
L 254.766245 21.923443 
L 252.285717 21.509234 
L 251.7319 21.418937 
L 248.622626 20.932449 
L 245.434628 20.459777 
L 244.170368 20.280745 
L 242.163815 20.003474 
L 238.80577 19.562281 
L 235.355713 19.134333 
L 234.763151 19.064124 
L 231.808458 18.722793 
L 228.15837 18.32478 
L 224.399309 17.939504 
L 223.574764 17.859147 
L 220.524566 17.569618 
L 216.526794 17.212882 
L 212.397926 16.868432 
L 209.810454 16.665591 
L 208.129069 16.537383 
L 203.710398 16.220213 
L 199.131012 15.914927 
L 194.37878 15.621442 
L 191.982072 15.483242 
L 189.440139 15.34101 
L 184.299865 15.073393 
L 178.940792 14.817232 
L 173.343461 14.57246 
L 167.485697 14.339009 
L 166.752328 14.311892 
L 161.342078 14.118616 
L 154.883267 13.909568 
L 148.075165 13.711561 
L 140.877822 13.524543 
L 133.244018 13.348466 
L 125.117378 13.183284 
L 123.368472 13.151338 
L 116.42985 13.030072 
L 107.098232 12.887865 
L 97.019317 12.756334 
L 86.062913 12.635448 
L 97.019317 12.756334 
L 107.098232 12.887865 
L 116.42985 13.030072 
L 123.368472 13.151338 
L 125.117378 13.183284 
L 133.244018 13.348466 
L 140.877822 13.524543 
L 148.075165 13.711561 
L 154.883267 13.909568 
L 161.342078 14.118616 
L 166.752328 14.311892 
L 167.485697 14.339009 
L 173.343461 14.57246 
L 178.940792 14.817232 
L 184.299865 15.073393 
L 189.440139 15.34101 
L 191.982072 15.483242 
L 194.37878 15.621442 
L 199.131012 15.914927 
L 203.710398 16.220213 
L 208.129069 16.537383 
L 209.810454 16.665591 
L 212.397926 16.868432 
L 216.526794 17.212882 
L 220.524566 17.569618 
L 223.574764 17.859147 
L 224.399309 17.939504 
L 228.15837 18.32478 
L 231.808458 18.722793 
L 234.763151 19.064124 
L 235.355713 19.134333 
L 238.80577 19.562281 
L 242.163815 20.003474 
L 244.170368 20.280745 
L 245.434628 20.459777 
L 248.622626 20.932449 
L 251.7319 21.418937 
L 252.285717 21.509234 
L 254.766245 21.923443 
L 257.729187 22.443127 
L 259.401001 22.749828 
L 260.624009 22.979534 
L 263.453773 23.533792 
L 265.739121 24.002766 
L 266.22134 24.104048 
L 268.929384 24.69437 
L 271.442268 25.268296 
L 271.580413 25.300582 
L 274.176777 25.928577 
L 276.618892 26.546675 
L 276.720686 26.573034 
L 279.214218 27.240446 
L 281.353327 27.838165 
L 281.659328 27.925635 
L 284.057862 28.634356 
L 285.71225 29.143039 
L 286.41156 29.362985 
L 288.722069 30.115074 
L 289.749149 30.461577 
L 290.990945 30.890101 
L 293.219662 31.687798 
L 293.507478 31.794068 
L 295.409617 32.512459 
L 297.013705 33.14081 
L 297.562134 33.360565 
L 299.678473 34.236055 
L 300.301323 34.502112 
L 301.75983 35.139452 
L 303.393868 35.878292 
L 303.807342 36.06956 
L 305.822093 37.030281 
L 306.309026 37.269679 
L 307.805113 38.02228 
L 309.064695 38.676612 
L 309.757388 39.044844 
L 311.679856 40.099443 
L 311.679856 40.099443 
L 313.573414 41.191651 
L 314.15676 41.538536 
L 315.438918 42.319003 
L 316.515617 42.994265 
L 317.277187 43.483273 
L 318.765056 44.467022 
L 319.089006 44.686355 
L 320.875124 45.9306 
L 320.912325 45.957207 
L 322.636261 47.220199 
L 322.961493 47.46524 
L 324.373105 48.554896 
L 324.923406 48.991552 
L 326.086318 49.93718 
L 326.803743 50.536592 
L 327.776534 51.369728 
L 328.607687 52.100826 
L 329.444362 52.85543 
L 330.339974 53.684737 
L 331.090389 54.397412 
L 332.004946 55.288825 
L 332.715175 55.999054 
L 333.606588 56.913611 
L 334.319263 57.664026 
L 335.14857 58.559638 
L 335.903174 59.396313 
L 336.634272 60.227466 
L 337.467408 61.200257 
L 338.06682 61.917682 
L 339.012448 63.080594 
L 339.449104 63.630895 
L 340.53876 65.042507 
L 340.783801 65.367739 
L 342.046793 67.091675 
L 342.0734 67.128876 
L 343.317645 68.914994 
L 343.536978 69.238944 
L 344.520727 70.726813 
L 345.009735 71.488383 
L 345.684997 72.565082 
L 346.465464 73.84724 
L 346.812349 74.430586 
L 347.904557 76.324144 
L 347.904557 76.324144 
L 348.959156 78.246612 
L 349.327388 78.939305 
L 349.98172 80.198887 
L 350.734321 81.694974 
L 350.973719 82.181907 
L 351.93444 84.196658 
L 352.125708 84.610132 
L 352.864548 86.24417 
L 353.501888 87.702677 
L 353.767945 88.325527 
L 354.643435 90.441866 
L 354.86319 90.990295 
L 355.491541 92.594383 
L 356.209932 94.496522 
L 356.316202 94.784338 
L 357.113899 97.013055 
L 357.542423 98.254851 
L 357.888926 99.281931 
L 358.641015 101.59244 
L 358.860961 102.29175 
L 359.369644 103.946138 
L 360.078365 106.344672 
L 360.165835 106.650673 
L 360.763554 108.789782 
L 361.430966 111.283314 
L 361.457325 111.385108 
L 362.075423 113.827223 
L 362.703418 116.423587 
L 362.735704 116.561732 
L 363.30963 119.074616 
L 363.899952 121.78266 
L 364.001234 122.264879 
L 364.470208 124.550227 
L 365.024466 127.379991 
L 365.254172 128.602999 
L 365.560873 130.274813 
L 366.080557 133.237755 
L 366.494766 135.718283 
L 366.585063 136.2721 
L 367.071551 139.381374 
L 367.544223 142.569372 
L 367.723255 143.833632 
L 368.000526 145.840185 
L 368.441719 149.19823 
L 368.869667 152.648287 
L 368.939876 153.240849 
L 369.281207 156.195542 
L 369.67922 159.84563 
L 370.064496 163.604691 
L 370.144853 164.429236 
L 370.434382 167.479434 
L 370.791118 171.477206 
L 371.135568 175.606074 
L 371.338409 178.193546 
L 371.466617 179.874931 
L 371.783787 184.293602 
L 372.089073 188.872988 
L 372.382558 193.62522 
L 372.520758 196.021928 
L 372.66299 198.563861 
L 372.930607 203.704135 
L 373.186768 209.063208 
L 373.43154 214.660539 
L 373.664991 220.518303 
L 373.692108 221.251672 
L 373.885384 226.661922 
L 374.094432 233.120733 
L 374.292439 239.928835 
L 374.479457 247.126178 
L 374.655534 254.759982 
L 374.820716 262.886622 
L 374.852662 264.635528 
L 374.973928 271.57415 
L 375.116135 280.905768 
L 375.247666 290.984683 
L 375.368552 301.941087 
z
" clip-path="url(#p77d5bfd8f9)" style="fill: #0000ff"/>
   </g>
   <g id="PathCollection_3">
    <path d="M 375.247666 290.984683 
L 375.116135 280.905768 
L 374.973928 271.57415 
L 374.852662 264.635528 
L 374.820716 262.886622 
L 374.655534 254.759982 
L 374.479457 247.126178 
L 374.292439 239.928835 
L 374.094432 233.120733 
L 373.885384 226.661922 
L 373.692108 221.251672 
L 373.664991 220.518303 
L 373.43154 214.660539 
L 373.186768 209.063208 
L 372.930607 203.704135 
L 372.66299 198.563861 
L 372.520758 196.021928 
L 372.382558 193.62522 
L 372.089073 188.872988 
L 371.783787 184.293602 
L 371.466617 179.874931 
L 371.338409 178.193546 
L 371.135568 175.606074 
L 370.791118 171.477206 
L 370.434382 167.479434 
L 370.144853 164.429236 
L 370.064496 163.604691 
L 369.67922 159.84563 
L 369.281207 156.195542 
L 368.939876 153.240849 
L 368.869667 152.648287 
L 368.441719 149.19823 
L 368.000526 145.840185 
L 367.723255 143.833632 
L 367.544223 142.569372 
L 367.071551 139.381374 
L 366.585063 136.2721 
L 366.494766 135.718283 
L 366.080557 133.237755 
L 365.560873 130.274813 
L 365.254172 128.602999 
L 365.024466 127.379991 
L 364.470208 124.550227 
L 364.001234 122.264879 
L 363.899952 121.78266 
L 363.30963 119.074616 
L 362.735704 116.561732 
L 362.703418 116.423587 
L 362.075423 113.827223 
L 361.457325 111.385108 
L 361.430966 111.283314 
L 360.763554 108.789782 
L 360.165835 106.650673 
L 360.078365 106.344672 
L 359.369644 103.946138 
L 358.860961 102.29175 
L 358.641015 101.59244 
L 357.888926 99.281931 
L 357.542423 98.254851 
L 357.113899 97.013055 
L 356.316202 94.784338 
L 356.209932 94.496522 
L 355.491541 92.594383 
L 354.86319 90.990295 
L 354.643435 90.441866 
L 353.767945 88.325527 
L 353.501888 87.702677 
L 352.864548 86.24417 
L 352.125708 84.610132 
L 351.93444 84.196658 
L 350.973719 82.181907 
L 350.734321 81.694974 
L 349.98172 80.198887 
L 349.327388 78.939305 
L 348.959156 78.246612 
L 347.904557 76.324144 
L 347.904557 76.324144 
L 346.812349 74.430586 
L 346.465464 73.84724 
L 345.684997 72.565082 
L 345.009735 71.488383 
L 344.520727 70.726813 
L 343.536978 69.238944 
L 343.317645 68.914994 
L 342.0734 67.128876 
L 342.046793 67.091675 
L 340.783801 65.367739 
L 340.53876 65.042507 
L 339.449104 63.630895 
L 339.012448 63.080594 
L 338.06682 61.917682 
L 337.467408 61.200257 
L 336.634272 60.227466 
L 335.903174 59.396313 
L 335.14857 58.559638 
L 334.319263 57.664026 
L 333.606588 56.913611 
L 332.715175 55.999054 
L 332.004946 55.288825 
L 331.090389 54.397412 
L 330.339974 53.684737 
L 329.444362 52.85543 
L 328.607687 52.100826 
L 327.776534 51.369728 
L 326.803743 50.536592 
L 326.086318 49.93718 
L 324.923406 48.991552 
L 324.373105 48.554896 
L 322.961493 47.46524 
L 322.636261 47.220199 
L 320.912325 45.957207 
L 320.875124 45.9306 
L 319.089006 44.686355 
L 318.765056 44.467022 
L 317.277187 43.483273 
L 316.515617 42.994265 
L 315.438918 42.319003 
L 314.15676 41.538536 
L 313.573414 41.191651 
L 311.679856 40.099443 
L 311.679856 40.099443 
L 309.757388 39.044844 
L 309.064695 38.676612 
L 307.805113 38.02228 
L 306.309026 37.269679 
L 305.822093 37.030281 
L 303.807342 36.06956 
L 303.393868 35.878292 
L 301.75983 35.139452 
L 300.301323 34.502112 
L 299.678473 34.236055 
L 297.562134 33.360565 
L 297.013705 33.14081 
L 295.409617 32.512459 
L 293.507478 31.794068 
L 293.219662 31.687798 
L 290.990945 30.890101 
L 289.749149 30.461577 
L 288.722069 30.115074 
L 286.41156 29.362985 
L 285.71225 29.143039 
L 284.057862 28.634356 
L 281.659328 27.925635 
L 281.353327 27.838165 
L 279.214218 27.240446 
L 276.720686 26.573034 
L 276.618892 26.546675 
L 274.176777 25.928577 
L 271.580413 25.300582 
L 271.442268 25.268296 
L 268.929384 24.69437 
L 266.22134 24.104048 
L 265.739121 24.002766 
L 263.453773 23.533792 
L 260.624009 22.979534 
L 259.401001 22.749828 
L 257.729187 22.443127 
L 254.766245 21.923443 
L 252.285717 21.509234 
L 251.7319 21.418937 
L 248.622626 20.932449 
L 245.434628 20.459777 
L 244.170368 20.280745 
L 242.163815 20.003474 
L 238.80577 19.562281 
L 235.355713 19.134333 
L 234.763151 19.064124 
L 231.808458 18.722793 
L 228.15837 18.32478 
L 224.399309 17.939504 
L 223.574764 17.859147 
L 220.524566 17.569618 
L 216.526794 17.212882 
L 212.397926 16.868432 
L 209.810454 16.665591 
L 208.129069 16.537383 
L 203.710398 16.220213 
L 199.131012 15.914927 
L 194.37878 15.621442 
L 191.982072 15.483242 
L 189.440139 15.34101 
L 184.299865 15.073393 
L 178.940792 14.817232 
L 173.343461 14.57246 
L 167.485697 14.339009 
L 166.752328 14.311892 
L 161.342078 14.118616 
L 154.883267 13.909568 
L 148.075165 13.711561 
L 140.877822 13.524543 
L 133.244018 13.348466 
L 125.117378 13.183284 
L 123.368472 13.151338 
L 116.42985 13.030072 
L 107.098232 12.887865 
L 97.019317 12.756334 
L 86.062913 12.635448 
L 97.019317 12.756334 
L 107.098232 12.887865 
L 116.42985 13.030072 
L 123.368472 13.151338 
L 125.117378 13.183284 
L 133.244018 13.348466 
L 140.877822 13.524543 
L 148.075165 13.711561 
L 154.883267 13.909568 
L 161.342078 14.118616 
L 166.752328 14.311892 
L 167.485697 14.339009 
L 173.343461 14.57246 
L 178.940792 14.817232 
L 184.299865 15.073393 
L 189.440139 15.34101 
L 191.982072 15.483242 
L 194.37878 15.621442 
L 199.131012 15.914927 
L 203.710398 16.220213 
L 208.129069 16.537383 
L 209.810454 16.665591 
L 212.397926 16.868432 
L 216.526794 17.212882 
L 220.524566 17.569618 
L 223.574764 17.859147 
L 224.399309 17.939504 
L 228.15837 18.32478 
L 231.808458 18.722793 
L 234.763151 19.064124 
L 235.355713 19.134333 
L 238.80577 19.562281 
L 242.163815 20.003474 
L 244.170368 20.280745 
L 245.434628 20.459777 
L 248.622626 20.932449 
L 251.7319 21.418937 
L 252.285717 21.509234 
L 254.766245 21.923443 
L 257.729187 22.443127 
L 259.401001 22.749828 
L 260.624009 22.979534 
L 263.453773 23.533792 
L 265.739121 24.002766 
L 266.22134 24.104048 
L 268.929384 24.69437 
L 271.442268 25.268296 
L 271.580413 25.300582 
L 274.176777 25.928577 
L 276.618892 26.546675 
L 276.720686 26.573034 
L 279.214218 27.240446 
L 281.353327 27.838165 
L 281.659328 27.925635 
L 284.057862 28.634356 
L 285.71225 29.143039 
L 286.41156 29.362985 
L 288.722069 30.115074 
L 289.749149 30.461577 
L 290.990945 30.890101 
L 293.219662 31.687798 
L 293.507478 31.794068 
L 295.409617 32.512459 
L 297.013705 33.14081 
L 297.562134 33.360565 
L 299.678473 34.236055 
L 300.301323 34.502112 
L 301.75983 35.139452 
L 303.393868 35.878292 
L 303.807342 36.06956 
L 305.822093 37.030281 
L 306.309026 37.269679 
L 307.805113 38.02228 
L 309.064695 38.676612 
L 309.757388 39.044844 
L 311.679856 40.099443 
L 311.679856 40.099443 
L 313.573414 41.191651 
L 314.15676 41.538536 
L 315.438918 42.319003 
L 316.515617 42.994265 
L 317.277187 43.483273 
L 318.765056 44.467022 
L 319.089006 44.686355 
L 320.875124 45.9306 
L 320.912325 45.957207 
L 322.636261 47.220199 
L 322.961493 47.46524 
L 324.373105 48.554896 
L 324.923406 48.991552 
L 326.086318 49.93718 
L 326.803743 50.536592 
L 327.776534 51.369728 
L 328.607687 52.100826 
L 329.444362 52.85543 
L 330.339974 53.684737 
L 331.090389 54.397412 
L 332.004946 55.288825 
L 332.715175 55.999054 
L 333.606588 56.913611 
L 334.319263 57.664026 
L 335.14857 58.559638 
L 335.903174 59.396313 
L 336.634272 60.227466 
L 337.467408 61.200257 
L 338.06682 61.917682 
L 339.012448 63.080594 
L 339.449104 63.630895 
L 340.53876 65.042507 
L 340.783801 65.367739 
L 342.046793 67.091675 
L 342.0734 67.128876 
L 343.317645 68.914994 
L 343.536978 69.238944 
L 344.520727 70.726813 
L 345.009735 71.488383 
L 345.684997 72.565082 
L 346.465464 73.84724 
L 346.812349 74.430586 
L 347.904557 76.324144 
L 347.904557 76.324144 
L 348.959156 78.246612 
L 349.327388 78.939305 
L 349.98172 80.198887 
L 350.734321 81.694974 
L 350.973719 82.181907 
L 351.93444 84.196658 
L 352.125708 84.610132 
L 352.864548 86.24417 
L 353.501888 87.702677 
L 353.767945 88.325527 
L 354.643435 90.441866 
L 354.86319 90.990295 
L 355.491541 92.594383 
L 356.209932 94.496522 
L 356.316202 94.784338 
L 357.113899 97.013055 
L 357.542423 98.254851 
L 357.888926 99.281931 
L 358.641015 101.59244 
L 358.860961 102.29175 
L 359.369644 103.946138 
L 360.078365 106.344672 
L 360.165835 106.650673 
L 360.763554 108.789782 
L 361.430966 111.283314 
L 361.457325 111.385108 
L 362.075423 113.827223 
L 362.703418 116.423587 
L 362.735704 116.561732 
L 363.30963 119.074616 
L 363.899952 121.78266 
L 364.001234 122.264879 
L 364.470208 124.550227 
L 365.024466 127.379991 
L 365.254172 128.602999 
L 365.560873 130.274813 
L 366.080557 133.237755 
L 366.494766 135.718283 
L 366.585063 136.2721 
L 367.071551 139.381374 
L 367.544223 142.569372 
L 367.723255 143.833632 
L 368.000526 145.840185 
L 368.441719 149.19823 
L 368.869667 152.648287 
L 368.939876 153.240849 
L 369.281207 156.195542 
L 369.67922 159.84563 
L 370.064496 163.604691 
L 370.144853 164.429236 
L 370.434382 167.479434 
L 370.791118 171.477206 
L 371.135568 175.606074 
L 371.338409 178.193546 
L 371.466617 179.874931 
L 371.783787 184.293602 
L 372.089073 188.872988 
L 372.382558 193.62522 
L 372.520758 196.021928 
L 372.66299 198.563861 
L 372.930607 203.704135 
L 373.186768 209.063208 
L 373.43154 214.660539 
L 373.664991 220.518303 
L 373.692108 221.251672 
L 373.885384 226.661922 
L 374.094432 233.120733 
L 374.292439 239.928835 
L 374.479457 247.126178 
L 374.655534 254.759982 
L 374.820716 262.886622 
L 374.852662 264.635528 
L 374.973928 271.57415 
L 375.116135 280.905768 
L 375.247666 290.984683 
L 375.368552 301.941087 
z
" clip-path="url(#p77d5bfd8f9)" style="fill: #ffffff"/>
   </g>
   <g id="PathCollection_4">
    <path d="M 376.002617 301.941087 
L 376.002617 290.984683 
L 376.002617 280.905768 
L 376.002617 271.57415 
L 376.002617 262.886622 
L 376.002617 254.759982 
L 376.002617 247.126178 
L 376.002617 239.928835 
L 376.002617 233.120733 
L 376.002617 226.661922 
L 376.002617 220.518303 
L 376.002617 214.660539 
L 376.002617 209.063208 
L 376.002617 203.704135 
L 376.002617 198.563861 
L 376.002617 193.62522 
L 376.002617 188.872988 
L 376.002617 184.293602 
L 376.002617 179.874931 
L 376.002617 175.606074 
L 376.002617 171.477206 
L 376.002617 167.479434 
L 376.002617 163.604691 
L 376.002617 159.84563 
L 376.002617 156.195542 
L 376.002617 152.648287 
L 376.002617 149.19823 
L 376.002617 145.840185 
L 376.002617 142.569372 
L 376.002617 139.381374 
L 376.002617 136.2721 
L 376.002617 133.237755 
L 376.002617 130.274813 
L 376.002617 127.379991 
L 376.002617 124.550227 
L 376.002617 121.78266 
L 376.002617 119.074616 
L 376.002617 116.423587 
L 376.002617 113.827223 
L 376.002617 111.283314 
L 376.002617 108.789782 
L 376.002617 106.344672 
L 376.002617 103.946138 
L 376.002617 101.59244 
L 376.002617 99.281931 
L 376.002617 97.013055 
L 376.002617 94.784338 
L 376.002617 92.594383 
L 376.002617 90.441866 
L 376.002617 88.325527 
L 376.002617 86.24417 
L 376.002617 84.196658 
L 376.002617 82.181907 
L 376.002617 80.198887 
L 376.002617 78.246612 
L 376.002617 76.324144 
L 376.002617 74.430586 
L 376.002617 72.565082 
L 376.002617 70.726813 
L 376.002617 68.914994 
L 376.002617 67.128876 
L 376.002617 65.367739 
L 376.002617 63.630895 
L 376.002617 61.917682 
L 376.002617 60.227466 
L 376.002617 58.559638 
L 376.002617 56.913611 
L 376.002617 55.288825 
L 376.002617 53.684737 
L 376.002617 52.100826 
L 376.002617 50.536592 
L 376.002617 48.991552 
L 376.002617 47.46524 
L 376.002617 45.957207 
L 376.002617 44.467022 
L 376.002617 42.994265 
L 376.002617 41.538536 
L 376.002617 40.099443 
L 376.002617 38.676612 
L 376.002617 37.269679 
L 376.002617 35.878292 
L 376.002617 34.502112 
L 376.002617 33.14081 
L 376.002617 31.794068 
L 376.002617 30.461577 
L 376.002617 29.143039 
L 376.002617 27.838165 
L 376.002617 26.546675 
L 376.002617 25.268296 
L 376.002617 24.002766 
L 376.002617 22.749828 
L 376.002617 21.509234 
L 376.002617 20.280745 
L 376.002617 19.064124 
L 376.002617 17.859147 
L 376.002617 16.665591 
L 376.002617 15.483242 
L 376.002617 14.311892 
L 376.002617 13.151338 
L 376.002617 12.001383 
L 374.852662 12.001383 
L 373.692108 12.001383 
L 372.520758 12.001383 
L 371.338409 12.001383 
L 370.144853 12.001383 
L 368.939876 12.001383 
L 367.723255 12.001383 
L 366.494766 12.001383 
L 365.254172 12.001383 
L 364.001234 12.001383 
L 362.735704 12.001383 
L 361.457325 12.001383 
L 360.165835 12.001383 
L 358.860961 12.001383 
L 357.542423 12.001383 
L 356.209932 12.001383 
L 354.86319 12.001383 
L 353.501888 12.001383 
L 352.125708 12.001383 
L 350.734321 12.001383 
L 349.327388 12.001383 
L 347.904557 12.001383 
L 346.465464 12.001383 
L 345.009735 12.001383 
L 343.536978 12.001383 
L 342.046793 12.001383 
L 340.53876 12.001383 
L 339.012448 12.001383 
L 337.467408 12.001383 
L 335.903174 12.001383 
L 334.319263 12.001383 
L 332.715175 12.001383 
L 331.090389 12.001383 
L 329.444362 12.001383 
L 327.776534 12.001383 
L 326.086318 12.001383 
L 324.373105 12.001383 
L 322.636261 12.001383 
L 320.875124 12.001383 
L 319.089006 12.001383 
L 317.277187 12.001383 
L 315.438918 12.001383 
L 313.573414 12.001383 
L 311.679856 12.001383 
L 309.757388 12.001383 
L 307.805113 12.001383 
L 305.822093 12.001383 
L 303.807342 12.001383 
L 301.75983 12.001383 
L 299.678473 12.001383 
L 297.562134 12.001383 
L 295.409617 12.001383 
L 293.219662 12.001383 
L 290.990945 12.001383 
L 288.722069 12.001383 
L 286.41156 12.001383 
L 284.057862 12.001383 
L 281.659328 12.001383 
L 279.214218 12.001383 
L 276.720686 12.001383 
L 274.176777 12.001383 
L 271.580413 12.001383 
L 268.929384 12.001383 
L 266.22134 12.001383 
L 263.453773 12.001383 
L 260.624009 12.001383 
L 257.729187 12.001383 
L 254.766245 12.001383 
L 251.7319 12.001383 
L 248.622626 12.001383 
L 245.434628 12.001383 
L 242.163815 12.001383 
L 238.80577 12.001383 
L 235.355713 12.001383 
L 231.808458 12.001383 
L 228.15837 12.001383 
L 224.399309 12.001383 
L 220.524566 12.001383 
L 216.526794 12.001383 
L 212.397926 12.001383 
L 208.129069 12.001383 
L 203.710398 12.001383 
L 199.131012 12.001383 
L 194.37878 12.001383 
L 189.440139 12.001383 
L 184.299865 12.001383 
L 178.940792 12.001383 
L 173.343461 12.001383 
L 167.485697 12.001383 
L 161.342078 12.001383 
L 154.883267 12.001383 
L 148.075165 12.001383 
L 140.877822 12.001383 
L 133.244018 12.001383 
L 125.117378 12.001383 
L 116.42985 12.001383 
L 107.098232 12.001383 
L 97.019317 12.001383 
L 86.062913 12.001383 
L 86.062913 12.635448 
L 97.019317 12.756334 
L 107.098232 12.887865 
L 116.42985 13.030072 
L 123.368472 13.151338 
L 125.117378 13.183284 
L 133.244018 13.348466 
L 140.877822 13.524543 
L 148.075165 13.711561 
L 154.883267 13.909568 
L 161.342078 14.118616 
L 166.752328 14.311892 
L 167.485697 14.339009 
L 173.343461 14.57246 
L 178.940792 14.817232 
L 184.299865 15.073393 
L 189.440139 15.34101 
L 191.982072 15.483242 
L 194.37878 15.621442 
L 199.131012 15.914927 
L 203.710398 16.220213 
L 208.129069 16.537383 
L 209.810454 16.665591 
L 212.397926 16.868432 
L 216.526794 17.212882 
L 220.524566 17.569618 
L 223.574764 17.859147 
L 224.399309 17.939504 
L 228.15837 18.32478 
L 231.808458 18.722793 
L 234.763151 19.064124 
L 235.355713 19.134333 
L 238.80577 19.562281 
L 242.163815 20.003474 
L 244.170368 20.280745 
L 245.434628 20.459777 
L 248.622626 20.932449 
L 251.7319 21.418937 
L 252.285717 21.509234 
L 254.766245 21.923443 
L 257.729187 22.443127 
L 259.401001 22.749828 
L 260.624009 22.979534 
L 263.453773 23.533792 
L 265.739121 24.002766 
L 266.22134 24.104048 
L 268.929384 24.69437 
L 271.442268 25.268296 
L 271.580413 25.300582 
L 274.176777 25.928577 
L 276.618892 26.546675 
L 276.720686 26.573034 
L 279.214218 27.240446 
L 281.353327 27.838165 
L 281.659328 27.925635 
L 284.057862 28.634356 
L 285.71225 29.143039 
L 286.41156 29.362985 
L 288.722069 30.115074 
L 289.749149 30.461577 
L 290.990945 30.890101 
L 293.219662 31.687798 
L 293.507478 31.794068 
L 295.409617 32.512459 
L 297.013705 33.14081 
L 297.562134 33.360565 
L 299.678473 34.236055 
L 300.301323 34.502112 
L 301.75983 35.139452 
L 303.393868 35.878292 
L 303.807342 36.06956 
L 305.822093 37.030281 
L 306.309026 37.269679 
L 307.805113 38.02228 
L 309.064695 38.676612 
L 309.757388 39.044844 
L 311.679856 40.099443 
L 311.679856 40.099443 
L 313.573414 41.191651 
L 314.15676 41.538536 
L 315.438918 42.319003 
L 316.515617 42.994265 
L 317.277187 43.483273 
L 318.765056 44.467022 
L 319.089006 44.686355 
L 320.875124 45.9306 
L 320.912325 45.957207 
L 322.636261 47.220199 
L 322.961493 47.46524 
L 324.373105 48.554896 
L 324.923406 48.991552 
L 326.086318 49.93718 
L 326.803743 50.536592 
L 327.776534 51.369728 
L 328.607687 52.100826 
L 329.444362 52.85543 
L 330.339974 53.684737 
L 331.090389 54.397412 
L 332.004946 55.288825 
L 332.715175 55.999054 
L 333.606588 56.913611 
L 334.319263 57.664026 
L 335.14857 58.559638 
L 335.903174 59.396313 
L 336.634272 60.227466 
L 337.467408 61.200257 
L 338.06682 61.917682 
L 339.012448 63.080594 
L 339.449104 63.630895 
L 340.53876 65.042507 
L 340.783801 65.367739 
L 342.046793 67.091675 
L 342.0734 67.128876 
L 343.317645 68.914994 
L 343.536978 69.238944 
L 344.520727 70.726813 
L 345.009735 71.488383 
L 345.684997 72.565082 
L 346.465464 73.84724 
L 346.812349 74.430586 
L 347.904557 76.324144 
L 347.904557 76.324144 
L 348.959156 78.246612 
L 349.327388 78.939305 
L 349.98172 80.198887 
L 350.734321 81.694974 
L 350.973719 82.181907 
L 351.93444 84.196658 
L 352.125708 84.610132 
L 352.864548 86.24417 
L 353.501888 87.702677 
L 353.767945 88.325527 
L 354.643435 90.441866 
L 354.86319 90.990295 
L 355.491541 92.594383 
L 356.209932 94.496522 
L 356.316202 94.784338 
L 357.113899 97.013055 
L 357.542423 98.254851 
L 357.888926 99.281931 
L 358.641015 101.59244 
L 358.860961 102.29175 
L 359.369644 103.946138 
L 360.078365 106.344672 
L 360.165835 106.650673 
L 360.763554 108.789782 
L 361.430966 111.283314 
L 361.457325 111.385108 
L 362.075423 113.827223 
L 362.703418 116.423587 
L 362.735704 116.561732 
L 363.30963 119.074616 
L 363.899952 121.78266 
L 364.001234 122.264879 
L 364.470208 124.550227 
L 365.024466 127.379991 
L 365.254172 128.602999 
L 365.560873 130.274813 
L 366.080557 133.237755 
L 366.494766 135.718283 
L 366.585063 136.2721 
L 367.071551 139.381374 
L 367.544223 142.569372 
L 367.723255 143.833632 
L 368.000526 145.840185 
L 368.441719 149.19823 
L 368.869667 152.648287 
L 368.939876 153.240849 
L 369.281207 156.195542 
L 369.67922 159.84563 
L 370.064496 163.604691 
L 370.144853 164.429236 
L 370.434382 167.479434 
L 370.791118 171.477206 
L 371.135568 175.606074 
L 371.338409 178.193546 
L 371.466617 179.874931 
L 371.783787 184.293602 
L 372.089073 188.872988 
L 372.382558 193.62522 
L 372.520758 196.021928 
L 372.66299 198.563861 
L 372.930607 203.704135 
L 373.186768 209.063208 
L 373.43154 214.660539 
L 373.664991 220.518303 
L 373.692108 221.251672 
L 373.885384 226.661922 
L 374.094432 233.120733 
L 374.292439 239.928835 
L 374.479457 247.126178 
L 374.655534 254.759982 
L 374.820716 262.886622 
L 374.852662 264.635528 
L 374.973928 271.57415 
L 375.116135 280.905768 
L 375.247666 290.984683 
L 375.368552 301.941087 
L 376.002617 301.941087 
z
" clip-path="url(#p77d5bfd8f9)" style="fill: none"/>
   </g>
   <g id="matplotlib.axis_1">
    <g id="xtick_1">
     <g id="line2d_1">
      <defs>
       <path id="m702a8e7c86" d="M 0 0 
L 0 3.5 
" style="stroke: #000000; stroke-width: 0.8"/>
      </defs>
      <g>
       <use xlink:href="#m702a8e7c86" x="86.062913" y="325.208" style="stroke: #000000; stroke-width: 0.8"/>
      </g>
     </g>
     <g id="text_1">
      <!-- $\mathdefault{10^{0}}$ -->
      <g transform="translate(77.262913 339.806437)scale(0.1 -0.1)">
       <defs>
        <path id="DejaVuSans-31" d="M 794 531 
L 1825 531 
L 1825 4091 
L 703 3866 
L 703 4441 
L 1819 4666 
L 2450 4666 
L 2450 531 
L 3481 531 
L 3481 0 
L 794 0 
L 794 531 
z
" transform="scale(0.015625)"/>
        <path id="DejaVuSans-30" d="M 2034 4250 
Q 1547 4250 1301 3770 
Q 1056 3291 1056 2328 
Q 1056 1369 1301 889 
Q 1547 409 2034 409 
Q 2525 409 2770 889 
Q 3016 1369 3016 2328 
Q 3016 3291 2770 3770 
Q 2525 4250 2034 4250 
z
M 2034 4750 
Q 2819 4750 3233 4129 
Q 3647 3509 3647 2328 
Q 3647 1150 3233 529 
Q 2819 -91 2034 -91 
Q 1250 -91 836 529 
Q 422 1150 422 2328 
Q 422 3509 836 4129 
Q 1250 4750 2034 4750 
z
" transform="scale(0.015625)"/>
       </defs>
       <use xlink:href="#DejaVuSans-31" transform="translate(0 0.765625)"/>
       <use xlink:href="#DejaVuSans-30" transform="translate(63.623047 0.765625)"/>
       <use xlink:href="#DejaVuSans-30" transform="translate(128.203125 39.046875)scale(0.7)"/>
      </g>
     </g>
    </g>
    <g id="xtick_2">
     <g id="line2d_2">
      <g>
       <use xlink:href="#m702a8e7c86" x="376.002617" y="325.208" style="stroke: #000000; stroke-width: 0.8"/>
      </g>
     </g>
     <g id="text_2">
      <!-- $\mathdefault{10^{1}}$ -->
      <g transform="translate(367.202617 339.806437)scale(0.1 -0.1)">
       <use xlink:href="#DejaVuSans-31" transform="translate(0 0.684375)"/>
       <use xlink:href="#DejaVuSans-30" transform="translate(63.623047 0.684375)"/>
       <use xlink:href="#DejaVuSans-31" transform="translate(128.203125 38.965625)scale(0.7)"/>
      </g>
     </g>
    </g>
    <g id="xtick_3">
     <g id="line2d_3">
      <defs>
       <path id="ma3d2b92704" d="M 0 0 
L 0 2 
" style="stroke: #000000; stroke-width: 0.6"/>
      </defs>
      <g>
       <use xlink:href="#ma3d2b92704" x="72.796" y="325.208" style="stroke: #000000; stroke-width: 0.6"/>
      </g>
     </g>
    </g>
    <g id="xtick_4">
     <g id="line2d_4">
      <g>
       <use xlink:href="#ma3d2b92704" x="173.343461" y="325.208" style="stroke: #000000; stroke-width: 0.6"/>
      </g>
     </g>
    </g>
    <g id="xtick_5">
     <g id="line2d_5">
      <g>
       <use xlink:href="#ma3d2b92704" x="224.399309" y="325.208" style="stroke: #000000; stroke-width: 0.6"/>
      </g>
     </g>
    </g>
    <g id="xtick_6">
     <g id="line2d_6">
      <g>
       <use xlink:href="#ma3d2b92704" x="260.624009" y="325.208" style="stroke: #000000; stroke-width: 0.6"/>
      </g>
     </g>
    </g>
    <g id="xtick_7">
     <g id="line2d_7">
      <g>
       <use xlink:href="#ma3d2b92704" x="288.722069" y="325.208" style="stroke: #000000; stroke-width: 0.6"/>
      </g>
     </g>
    </g>
    <g id="xtick_8">
     <g id="line2d_8">
      <g>
       <use xlink:href="#ma3d2b92704" x="311.679856" y="325.208" style="stroke: #000000; stroke-width: 0.6"/>
      </g>
     </g>
    </g>
    <g id="xtick_9">
     <g id="line2d_9">
      <g>
       <use xlink:href="#ma3d2b92704" x="331.090389" y="325.208" style="stroke: #000000; stroke-width: 0.6"/>
      </g>
     </g>
    </g>
    <g id="xtick_10">
     <g id="line2d_10">
      <g>
       <use xlink:href="#ma3d2b92704" x="347.904557" y="325.208" style="stroke: #000000; stroke-width: 0.6"/>
      </g>
     </g>
    </g>
    <g id="xtick_11">
     <g id="line2d_11">
      <g>
       <use xlink:href="#ma3d2b92704" x="362.735704" y="325.208" style="stroke: #000000; stroke-width: 0.6"/>
      </g>
     </g>
    </g>
   </g>
   <g id="matplotlib.axis_2">
    <g id="ytick_1">
     <g id="line2d_12">
      <defs>
       <path id="m982abf5128" d="M 0 0 
L -3.5 0 
" style="stroke: #000000; stroke-width: 0.8"/>
      </defs>
      <g>
       <use xlink:href="#m982abf5128" x="62.796" y="301.941087" style="stroke: #000000; stroke-width: 0.8"/>
      </g>
     </g>
     <g id="text_3">
      <!-- $\mathdefault{10^{0}}$ -->
      <g transform="translate(38.196 305.740305)scale(0.1 -0.1)">
       <use xlink:href="#DejaVuSans-31" transform="translate(0 0.765625)"/>
       <use xlink:href="#DejaVuSans-30" transform="translate(63.623047 0.765625)"/>
       <use xlink:href="#DejaVuSans-30" transform="translate(128.203125 39.046875)scale(0.7)"/>
      </g>
     </g>
    </g>
    <g id="ytick_2">
     <g id="line2d_13">
      <g>
       <use xlink:href="#m982abf5128" x="62.796" y="12.001383" style="stroke: #000000; stroke-width: 0.8"/>
      </g>
     </g>
     <g id="text_4">
      <!-- $\mathdefault{10^{1}}$ -->
      <g transform="translate(38.196 15.800602)scale(0.1 -0.1)">
       <use xlink:href="#DejaVuSans-31" transform="translate(0 0.684375)"/>
       <use xlink:href="#DejaVuSans-30" transform="translate(63.623047 0.684375)"/>
       <use xlink:href="#DejaVuSans-31" transform="translate(128.203125 38.965625)scale(0.7)"/>
      </g>
     </g>
    </g>
    <g id="ytick_3">
     <g id="line2d_14">
      <defs>
       <path id="m06219a7281" d="M 0 0 
L -2 0 
" style="stroke: #000000; stroke-width: 0.6"/>
      </defs>
      <g>
       <use xlink:href="#m06219a7281" x="62.796" y="315.208" style="stroke: #000000; stroke-width: 0.6"/>
      </g>
     </g>
    </g>
    <g id="ytick_4">
     <g id="line2d_15">
      <g>
       <use xlink:href="#m06219a7281" x="62.796" y="214.660539" style="stroke: #000000; stroke-width: 0.6"/>
      </g>
     </g>
    </g>
    <g id="ytick_5">
     <g id="line2d_16">
      <g>
       <use xlink:href="#m06219a7281" x="62.796" y="163.604691" style="stroke: #000000; stroke-width: 0.6"/>
      </g>
     </g>
    </g>
    <g id="ytick_6">
     <g id="line2d_17">
      <g>
       <use xlink:href="#m06219a7281" x="62.796" y="127.379991" style="stroke: #000000; stroke-width: 0.6"/>
      </g>
     </g>
    </g>
    <g id="ytick_7">
     <g id="line2d_18">
      <g>
       <use xlink:href="#m06219a7281" x="62.796" y="99.281931" style="stroke: #000000; stroke-width: 0.6"/>
      </g>
     </g>
    </g>
    <g id="ytick_8">
     <g id="line2d_19">
      <g>
       <use xlink:href="#m06219a7281" x="62.796" y="76.324144" style="stroke: #000000; stroke-width: 0.6"/>
      </g>
     </g>
    </g>
    <g id="ytick_9">
     <g id="line2d_20">
      <g>
       <use xlink:href="#m06219a7281" x="62.796" y="56.913611" style="stroke: #000000; stroke-width: 0.6"/>
      </g>
     </g>
    </g>
    <g id="ytick_10">
     <g id="line2d_21">
      <g>
       <use xlink:href="#m06219a7281" x="62.796" y="40.099443" style="stroke: #000000; stroke-width: 0.6"/>
      </g>
     </g>
    </g>
    <g id="ytick_11">
     <g id="line2d_22">
      <g>
       <use xlink:href="#m06219a7281" x="62.796" y="25.268296" style="stroke: #000000; stroke-width: 0.6"/>
      </g>
     </g>
    </g>
   </g>
   <g id="PathCollection_5">
    <path d="M 86.062913 12.635448 
L 123.368472 13.151338 
L 148.075165 13.711561 
L 167.485697 14.339009 
L 184.299865 15.073393 
L 199.131012 15.914927 
L 212.397926 16.868432 
L 224.399309 17.939504 
L 235.355713 19.134333 
L 245.434628 20.459777 
L 254.766245 21.923443 
L 263.453773 23.533792 
L 271.580413 25.300582 
L 279.214218 27.240446 
L 286.41156 29.362985 
L 293.219662 31.687798 
L 297.562134 33.360565 
L 303.393868 35.878292 
L 307.805113 38.02228 
L 311.679856 40.099443 
L 316.515617 42.994265 
L 319.089006 44.686355 
L 322.961493 47.46524 
L 326.803743 50.536592 
L 330.339974 53.684737 
L 333.606588 56.913611 
L 336.634272 60.227466 
L 339.449104 63.630895 
L 342.0734 67.128876 
L 345.009735 71.488383 
L 346.812349 74.430586 
L 349.327388 78.939305 
L 351.93444 84.196658 
L 353.767945 88.325527 
L 356.209932 94.496522 
L 357.888926 99.281931 
L 360.078365 106.344672 
L 361.457325 111.385108 
L 363.30963 119.074616 
L 365.024466 127.379991 
L 366.585063 136.2721 
L 368.000526 145.840185 
L 369.281207 156.195542 
L 370.434382 167.479434 
L 371.466617 179.874931 
L 372.520758 196.021928 
L 373.186768 209.063208 
L 373.885384 226.661922 
L 374.479457 247.126178 
L 374.973928 271.57415 
L 375.368552 301.941087 
L 375.368552 301.941087 
" clip-path="url(#p77d5bfd8f9)" style="fill: none; stroke: #0000ff; stroke-width: 1.5"/>
   </g>
   <g id="PathCollection_6">
    <path d="M 86.062913 12.635448 
L 123.368472 13.151338 
L 148.075165 13.711561 
L 167.485697 14.339009 
L 184.299865 15.073393 
L 199.131012 15.914927 
L 212.397926 16.868432 
L 224.399309 17.939504 
L 235.355713 19.134333 
L 245.434628 20.459777 
L 254.766245 21.923443 
L 263.453773 23.533792 
L 271.580413 25.300582 
L 279.214218 27.240446 
L 286.41156 29.362985 
L 293.219662 31.687798 
L 297.562134 33.360565 
L 303.393868 35.878292 
L 307.805113 38.02228 
L 311.679856 40.099443 
L 316.515617 42.994265 
L 319.089006 44.686355 
L 322.961493 47.46524 
L 326.803743 50.536592 
L 330.339974 53.684737 
L 333.606588 56.913611 
L 336.634272 60.227466 
L 339.449104 63.630895 
L 342.0734 67.128876 
L 345.009735 71.488383 
L 346.812349 74.430586 
L 349.327388 78.939305 
L 351.93444 84.196658 
L 353.767945 88.325527 
L 356.209932 94.496522 
L 357.888926 99.281931 
L 360.078365 106.344672 
L 361.457325 111.385108 
L 363.30963 119.074616 
L 365.024466 127.379991 
L 366.585063 136.2721 
L 368.000526 145.840185 
L 369.281207 156.195542 
L 370.434382 167.479434 
L 371.466617 179.874931 
L 372.520758 196.021928 
L 373.186768 209.063208 
L 373.885384 226.661922 
L 374.479457 247.126178 
L 374.973928 271.57415 
L 375.368552 301.941087 
L 375.368552 301.941087 
" clip-path="url(#p77d5bfd8f9)" style="fill: none; stroke: #ffffff; stroke-width: 1.5"/>
   </g>
   <g id="PathCollection_7">
    <path d="M 86.062913 12.635448 
L 123.368472 13.151338 
L 148.075165 13.711561 
L 167.485697 14.339009 
L 184.299865 15.073393 
L 199.131012 15.914927 
L 212.397926 16.868432 
L 224.399309 17.939504 
L 235.355713 19.134333 
L 245.434628 20.459777 
L 254.766245 21.923443 
L 263.453773 23.533792 
L 271.580413 25.300582 
L 279.214218 27.240446 
L 286.41156 29.362985 
L 293.219662 31.687798 
L 297.562134 33.360565 
L 303.393868 35.878292 
L 307.805113 38.02228 
L 311.679856 40.099443 
L 316.515617 42.994265 
L 319.089006 44.686355 
L 322.961493 47.46524 
L 326.803743 50.536592 
L 330.339974 53.684737 
L 333.606588 56.913611 
L 336.634272 60.227466 
L 339.449104 63.630895 
L 342.0734 67.128876 
L 345.009735 71.488383 
L 346.812349 74.430586 
L 349.327388 78.939305 
L 351.93444 84.196658 
L 353.767945 88.325527 
L 356.209932 94.496522 
L 357.888926 99.281931 
L 360.078365 106.344672 
L 361.457325 111.385108 
L 363.30963 119.074616 
L 365.024466 127.379991 
L 366.585063 136.2721 
L 368.000526 145.840185 
L 369.281207 156.195542 
L 370.434382 167.479434 
L 371.466617 179.874931 
L 372.520758 196.021928 
L 373.186768 209.063208 
L 373.885384 226.661922 
L 374.479457 247.126178 
L 374.973928 271.57415 
L 375.368552 301.941087 
L 375.368552 301.941087 
" clip-path="url(#p77d5bfd8f9)" style="fill: none; stroke: #ffffff; stroke-width: 1.5"/>
   </g>
   <g id="patch_3">
    <path d="M 62.796 315.208 
L 62.796 0 
" style="fill: none; stroke: #000000; stroke-width: 0.8; stroke-linejoin: miter; stroke-linecap: square"/>
   </g>
   <g id="patch_4">
    <path d="M 72.796 325.208 
L 388.004 325.208 
" style="fill: none; stroke: #000000; stroke-width: 0.8; stroke-linejoin: miter; stroke-linecap: square"/>
   </g>
  </g>
 </g>
 <defs>
  <clipPath id="p77d5bfd8f9">
   <rect x="72.796" y="0" width="315.208" height="315.208"/>
  </clipPath>
 </defs>
</svg>
