<?xml version="1.0" encoding="utf-8" standalone="no"?>
<!DOCTYPE svg PUBLIC "-//W3C//DTD SVG 1.1//EN"
  "http://www.w3.org/Graphics/SVG/1.1/DTD/svg11.dtd">
<!-- Created with matplotlib (http://matplotlib.org/) -->
<svg height="345.6pt" version="1.1" viewBox="0 0 460.8 345.6" width="460.8pt" xmlns="http://www.w3.org/2000/svg" xmlns:xlink="http://www.w3.org/1999/xlink">
 <defs>
  <style type="text/css">
*{stroke-linecap:butt;stroke-linejoin:round;}
  </style>
 </defs>
 <g id="figure_1">
  <g id="patch_1">
   <path d="M 0 345.6 
L 460.8 345.6 
L 460.8 0 
L 0 0 
z
" style="fill:#ffffff;"/>
  </g>
  <g id="axes_1">
   <g id="patch_2">
    <path d="M 44.08 328.52 
L 368.64 328.52 
L 368.64 3.96 
L 44.08 3.96 
z
" style="fill:#ffffff;"/>
   </g>
   <g id="matplotlib.axis_1">
    <g id="xtick_1">
     <g id="line2d_1">
      <defs>
       <path d="M 0 0 
L 0 3.5 
" id="m29ab94c984" style="stroke:#000000;stroke-width:0.8;"/>
      </defs>
      <g>
       <use style="stroke:#000000;stroke-width:0.8;" x="50.321538" xlink:href="#m29ab94c984" y="328.52"/>
      </g>
     </g>
     <g id="text_1">
      <!-- -3 -->
      <defs>
       <path d="M 4.890625 31.390625 
L 31.203125 31.390625 
L 31.203125 23.390625 
L 4.890625 23.390625 
z
" id="DejaVuSans-2d"/>
       <path d="M 40.578125 39.3125 
Q 47.65625 37.796875 51.625 33 
Q 55.609375 28.21875 55.609375 21.1875 
Q 55.609375 10.40625 48.1875 4.484375 
Q 40.765625 -1.421875 27.09375 -1.421875 
Q 22.515625 -1.421875 17.65625 -0.515625 
Q 12.796875 0.390625 7.625 2.203125 
L 7.625 11.71875 
Q 11.71875 9.328125 16.59375 8.109375 
Q 21.484375 6.890625 26.8125 6.890625 
Q 36.078125 6.890625 40.9375 10.546875 
Q 45.796875 14.203125 45.796875 21.1875 
Q 45.796875 27.640625 41.28125 31.265625 
Q 36.765625 34.90625 28.71875 34.90625 
L 20.21875 34.90625 
L 20.21875 43.015625 
L 29.109375 43.015625 
Q 36.375 43.015625 40.234375 45.921875 
Q 44.09375 48.828125 44.09375 54.296875 
Q 44.09375 59.90625 40.109375 62.90625 
Q 36.140625 65.921875 28.71875 65.921875 
Q 24.65625 65.921875 20.015625 65.03125 
Q 15.375 64.15625 9.8125 62.3125 
L 9.8125 71.09375 
Q 15.4375 72.65625 20.34375 73.4375 
Q 25.25 74.21875 29.59375 74.21875 
Q 40.828125 74.21875 47.359375 69.109375 
Q 53.90625 64.015625 53.90625 55.328125 
Q 53.90625 49.265625 50.4375 45.09375 
Q 46.96875 40.921875 40.578125 39.3125 
z
" id="DejaVuSans-33"/>
      </defs>
      <g transform="translate(45.336382 343.118437)scale(0.1 -0.1)">
       <use xlink:href="#DejaVuSans-2d"/>
       <use x="36.083984" xlink:href="#DejaVuSans-33"/>
      </g>
     </g>
    </g>
    <g id="xtick_2">
     <g id="line2d_2">
      <g>
       <use style="stroke:#000000;stroke-width:0.8;" x="102.334359" xlink:href="#m29ab94c984" y="328.52"/>
      </g>
     </g>
     <g id="text_2">
      <!-- -2 -->
      <defs>
       <path d="M 19.1875 8.296875 
L 53.609375 8.296875 
L 53.609375 0 
L 7.328125 0 
L 7.328125 8.296875 
Q 12.9375 14.109375 22.625 23.890625 
Q 32.328125 33.6875 34.8125 36.53125 
Q 39.546875 41.84375 41.421875 45.53125 
Q 43.3125 49.21875 43.3125 52.78125 
Q 43.3125 58.59375 39.234375 62.25 
Q 35.15625 65.921875 28.609375 65.921875 
Q 23.96875 65.921875 18.8125 64.3125 
Q 13.671875 62.703125 7.8125 59.421875 
L 7.8125 69.390625 
Q 13.765625 71.78125 18.9375 73 
Q 24.125 74.21875 28.421875 74.21875 
Q 39.75 74.21875 46.484375 68.546875 
Q 53.21875 62.890625 53.21875 53.421875 
Q 53.21875 48.921875 51.53125 44.890625 
Q 49.859375 40.875 45.40625 35.40625 
Q 44.1875 33.984375 37.640625 27.21875 
Q 31.109375 20.453125 19.1875 8.296875 
z
" id="DejaVuSans-32"/>
      </defs>
      <g transform="translate(97.349203 343.118437)scale(0.1 -0.1)">
       <use xlink:href="#DejaVuSans-2d"/>
       <use x="36.083984" xlink:href="#DejaVuSans-32"/>
      </g>
     </g>
    </g>
    <g id="xtick_3">
     <g id="line2d_3">
      <g>
       <use style="stroke:#000000;stroke-width:0.8;" x="154.347179" xlink:href="#m29ab94c984" y="328.52"/>
      </g>
     </g>
     <g id="text_3">
      <!-- -1 -->
      <defs>
       <path d="M 12.40625 8.296875 
L 28.515625 8.296875 
L 28.515625 63.921875 
L 10.984375 60.40625 
L 10.984375 69.390625 
L 28.421875 72.90625 
L 38.28125 72.90625 
L 38.28125 8.296875 
L 54.390625 8.296875 
L 54.390625 0 
L 12.40625 0 
z
" id="DejaVuSans-31"/>
      </defs>
      <g transform="translate(149.362023 343.118437)scale(0.1 -0.1)">
       <use xlink:href="#DejaVuSans-2d"/>
       <use x="36.083984" xlink:href="#DejaVuSans-31"/>
      </g>
     </g>
    </g>
    <g id="xtick_4">
     <g id="line2d_4">
      <g>
       <use style="stroke:#000000;stroke-width:0.8;" x="206.36" xlink:href="#m29ab94c984" y="328.52"/>
      </g>
     </g>
     <g id="text_4">
      <!-- 0 -->
      <defs>
       <path d="M 31.78125 66.40625 
Q 24.171875 66.40625 20.328125 58.90625 
Q 16.5 51.421875 16.5 36.375 
Q 16.5 21.390625 20.328125 13.890625 
Q 24.171875 6.390625 31.78125 6.390625 
Q 39.453125 6.390625 43.28125 13.890625 
Q 47.125 21.390625 47.125 36.375 
Q 47.125 51.421875 43.28125 58.90625 
Q 39.453125 66.40625 31.78125 66.40625 
z
M 31.78125 74.21875 
Q 44.046875 74.21875 50.515625 64.515625 
Q 56.984375 54.828125 56.984375 36.375 
Q 56.984375 17.96875 50.515625 8.265625 
Q 44.046875 -1.421875 31.78125 -1.421875 
Q 19.53125 -1.421875 13.0625 8.265625 
Q 6.59375 17.96875 6.59375 36.375 
Q 6.59375 54.828125 13.0625 64.515625 
Q 19.53125 74.21875 31.78125 74.21875 
z
" id="DejaVuSans-30"/>
      </defs>
      <g transform="translate(203.17875 343.118437)scale(0.1 -0.1)">
       <use xlink:href="#DejaVuSans-30"/>
      </g>
     </g>
    </g>
    <g id="xtick_5">
     <g id="line2d_5">
      <g>
       <use style="stroke:#000000;stroke-width:0.8;" x="258.372821" xlink:href="#m29ab94c984" y="328.52"/>
      </g>
     </g>
     <g id="text_5">
      <!-- 1 -->
      <g transform="translate(255.191571 343.118437)scale(0.1 -0.1)">
       <use xlink:href="#DejaVuSans-31"/>
      </g>
     </g>
    </g>
    <g id="xtick_6">
     <g id="line2d_6">
      <g>
       <use style="stroke:#000000;stroke-width:0.8;" x="310.385641" xlink:href="#m29ab94c984" y="328.52"/>
      </g>
     </g>
     <g id="text_6">
      <!-- 2 -->
      <g transform="translate(307.204391 343.118437)scale(0.1 -0.1)">
       <use xlink:href="#DejaVuSans-32"/>
      </g>
     </g>
    </g>
    <g id="xtick_7">
     <g id="line2d_7">
      <g>
       <use style="stroke:#000000;stroke-width:0.8;" x="362.398462" xlink:href="#m29ab94c984" y="328.52"/>
      </g>
     </g>
     <g id="text_7">
      <!-- 3 -->
      <g transform="translate(359.217212 343.118437)scale(0.1 -0.1)">
       <use xlink:href="#DejaVuSans-33"/>
      </g>
     </g>
    </g>
    <g id="xtick_8">
     <g id="line2d_8">
      <defs>
       <path d="M 0 0 
L 0 2 
" id="m2f2cb5e59b" style="stroke:#000000;stroke-width:0.6;"/>
      </defs>
      <g>
       <use style="stroke:#000000;stroke-width:0.6;" x="60.724103" xlink:href="#m2f2cb5e59b" y="328.52"/>
      </g>
     </g>
    </g>
    <g id="xtick_9">
     <g id="line2d_9">
      <g>
       <use style="stroke:#000000;stroke-width:0.6;" x="71.126667" xlink:href="#m2f2cb5e59b" y="328.52"/>
      </g>
     </g>
    </g>
    <g id="xtick_10">
     <g id="line2d_10">
      <g>
       <use style="stroke:#000000;stroke-width:0.6;" x="81.529231" xlink:href="#m2f2cb5e59b" y="328.52"/>
      </g>
     </g>
    </g>
    <g id="xtick_11">
     <g id="line2d_11">
      <g>
       <use style="stroke:#000000;stroke-width:0.6;" x="91.931795" xlink:href="#m2f2cb5e59b" y="328.52"/>
      </g>
     </g>
    </g>
    <g id="xtick_12">
     <g id="line2d_12">
      <g>
       <use style="stroke:#000000;stroke-width:0.6;" x="112.736923" xlink:href="#m2f2cb5e59b" y="328.52"/>
      </g>
     </g>
    </g>
    <g id="xtick_13">
     <g id="line2d_13">
      <g>
       <use style="stroke:#000000;stroke-width:0.6;" x="123.139487" xlink:href="#m2f2cb5e59b" y="328.52"/>
      </g>
     </g>
    </g>
    <g id="xtick_14">
     <g id="line2d_14">
      <g>
       <use style="stroke:#000000;stroke-width:0.6;" x="133.542051" xlink:href="#m2f2cb5e59b" y="328.52"/>
      </g>
     </g>
    </g>
    <g id="xtick_15">
     <g id="line2d_15">
      <g>
       <use style="stroke:#000000;stroke-width:0.6;" x="143.944615" xlink:href="#m2f2cb5e59b" y="328.52"/>
      </g>
     </g>
    </g>
    <g id="xtick_16">
     <g id="line2d_16">
      <g>
       <use style="stroke:#000000;stroke-width:0.6;" x="164.749744" xlink:href="#m2f2cb5e59b" y="328.52"/>
      </g>
     </g>
    </g>
    <g id="xtick_17">
     <g id="line2d_17">
      <g>
       <use style="stroke:#000000;stroke-width:0.6;" x="175.152308" xlink:href="#m2f2cb5e59b" y="328.52"/>
      </g>
     </g>
    </g>
    <g id="xtick_18">
     <g id="line2d_18">
      <g>
       <use style="stroke:#000000;stroke-width:0.6;" x="185.554872" xlink:href="#m2f2cb5e59b" y="328.52"/>
      </g>
     </g>
    </g>
    <g id="xtick_19">
     <g id="line2d_19">
      <g>
       <use style="stroke:#000000;stroke-width:0.6;" x="195.957436" xlink:href="#m2f2cb5e59b" y="328.52"/>
      </g>
     </g>
    </g>
    <g id="xtick_20">
     <g id="line2d_20">
      <g>
       <use style="stroke:#000000;stroke-width:0.6;" x="216.762564" xlink:href="#m2f2cb5e59b" y="328.52"/>
      </g>
     </g>
    </g>
    <g id="xtick_21">
     <g id="line2d_21">
      <g>
       <use style="stroke:#000000;stroke-width:0.6;" x="227.165128" xlink:href="#m2f2cb5e59b" y="328.52"/>
      </g>
     </g>
    </g>
    <g id="xtick_22">
     <g id="line2d_22">
      <g>
       <use style="stroke:#000000;stroke-width:0.6;" x="237.567692" xlink:href="#m2f2cb5e59b" y="328.52"/>
      </g>
     </g>
    </g>
    <g id="xtick_23">
     <g id="line2d_23">
      <g>
       <use style="stroke:#000000;stroke-width:0.6;" x="247.970256" xlink:href="#m2f2cb5e59b" y="328.52"/>
      </g>
     </g>
    </g>
    <g id="xtick_24">
     <g id="line2d_24">
      <g>
       <use style="stroke:#000000;stroke-width:0.6;" x="268.775385" xlink:href="#m2f2cb5e59b" y="328.52"/>
      </g>
     </g>
    </g>
    <g id="xtick_25">
     <g id="line2d_25">
      <g>
       <use style="stroke:#000000;stroke-width:0.6;" x="279.177949" xlink:href="#m2f2cb5e59b" y="328.52"/>
      </g>
     </g>
    </g>
    <g id="xtick_26">
     <g id="line2d_26">
      <g>
       <use style="stroke:#000000;stroke-width:0.6;" x="289.580513" xlink:href="#m2f2cb5e59b" y="328.52"/>
      </g>
     </g>
    </g>
    <g id="xtick_27">
     <g id="line2d_27">
      <g>
       <use style="stroke:#000000;stroke-width:0.6;" x="299.983077" xlink:href="#m2f2cb5e59b" y="328.52"/>
      </g>
     </g>
    </g>
    <g id="xtick_28">
     <g id="line2d_28">
      <g>
       <use style="stroke:#000000;stroke-width:0.6;" x="320.788205" xlink:href="#m2f2cb5e59b" y="328.52"/>
      </g>
     </g>
    </g>
    <g id="xtick_29">
     <g id="line2d_29">
      <g>
       <use style="stroke:#000000;stroke-width:0.6;" x="331.190769" xlink:href="#m2f2cb5e59b" y="328.52"/>
      </g>
     </g>
    </g>
    <g id="xtick_30">
     <g id="line2d_30">
      <g>
       <use style="stroke:#000000;stroke-width:0.6;" x="341.593333" xlink:href="#m2f2cb5e59b" y="328.52"/>
      </g>
     </g>
    </g>
    <g id="xtick_31">
     <g id="line2d_31">
      <g>
       <use style="stroke:#000000;stroke-width:0.6;" x="351.995897" xlink:href="#m2f2cb5e59b" y="328.52"/>
      </g>
     </g>
    </g>
   </g>
   <g id="matplotlib.axis_2">
    <g id="ytick_1">
     <g id="line2d_32">
      <defs>
       <path d="M 0 0 
L -3.5 0 
" id="mfb6fc2f743" style="stroke:#000000;stroke-width:0.8;"/>
      </defs>
      <g>
       <use style="stroke:#000000;stroke-width:0.8;" x="44.08" xlink:href="#mfb6fc2f743" y="322.278462"/>
      </g>
     </g>
     <g id="text_8">
      <!-- -3 -->
      <g transform="translate(27.109688 326.07768)scale(0.1 -0.1)">
       <use xlink:href="#DejaVuSans-2d"/>
       <use x="36.083984" xlink:href="#DejaVuSans-33"/>
      </g>
     </g>
    </g>
    <g id="ytick_2">
     <g id="line2d_33">
      <g>
       <use style="stroke:#000000;stroke-width:0.8;" x="44.08" xlink:href="#mfb6fc2f743" y="270.265641"/>
      </g>
     </g>
     <g id="text_9">
      <!-- -2 -->
      <g transform="translate(27.109688 274.06486)scale(0.1 -0.1)">
       <use xlink:href="#DejaVuSans-2d"/>
       <use x="36.083984" xlink:href="#DejaVuSans-32"/>
      </g>
     </g>
    </g>
    <g id="ytick_3">
     <g id="line2d_34">
      <g>
       <use style="stroke:#000000;stroke-width:0.8;" x="44.08" xlink:href="#mfb6fc2f743" y="218.252821"/>
      </g>
     </g>
     <g id="text_10">
      <!-- -1 -->
      <g transform="translate(27.109688 222.052039)scale(0.1 -0.1)">
       <use xlink:href="#DejaVuSans-2d"/>
       <use x="36.083984" xlink:href="#DejaVuSans-31"/>
      </g>
     </g>
    </g>
    <g id="ytick_4">
     <g id="line2d_35">
      <g>
       <use style="stroke:#000000;stroke-width:0.8;" x="44.08" xlink:href="#mfb6fc2f743" y="166.24"/>
      </g>
     </g>
     <g id="text_11">
      <!-- 0 -->
      <g transform="translate(30.7175 170.039219)scale(0.1 -0.1)">
       <use xlink:href="#DejaVuSans-30"/>
      </g>
     </g>
    </g>
    <g id="ytick_5">
     <g id="line2d_36">
      <g>
       <use style="stroke:#000000;stroke-width:0.8;" x="44.08" xlink:href="#mfb6fc2f743" y="114.227179"/>
      </g>
     </g>
     <g id="text_12">
      <!-- 1 -->
      <g transform="translate(30.7175 118.026398)scale(0.1 -0.1)">
       <use xlink:href="#DejaVuSans-31"/>
      </g>
     </g>
    </g>
    <g id="ytick_6">
     <g id="line2d_37">
      <g>
       <use style="stroke:#000000;stroke-width:0.8;" x="44.08" xlink:href="#mfb6fc2f743" y="62.214359"/>
      </g>
     </g>
     <g id="text_13">
      <!-- 2 -->
      <g transform="translate(30.7175 66.013578)scale(0.1 -0.1)">
       <use xlink:href="#DejaVuSans-32"/>
      </g>
     </g>
    </g>
    <g id="ytick_7">
     <g id="line2d_38">
      <g>
       <use style="stroke:#000000;stroke-width:0.8;" x="44.08" xlink:href="#mfb6fc2f743" y="10.201538"/>
      </g>
     </g>
     <g id="text_14">
      <!-- 3 -->
      <g transform="translate(30.7175 14.000757)scale(0.1 -0.1)">
       <use xlink:href="#DejaVuSans-33"/>
      </g>
     </g>
    </g>
    <g id="ytick_8">
     <g id="line2d_39">
      <defs>
       <path d="M 0 0 
L -2 0 
" id="m3cb607ac5d" style="stroke:#000000;stroke-width:0.6;"/>
      </defs>
      <g>
       <use style="stroke:#000000;stroke-width:0.6;" x="44.08" xlink:href="#m3cb607ac5d" y="311.875897"/>
      </g>
     </g>
    </g>
    <g id="ytick_9">
     <g id="line2d_40">
      <g>
       <use style="stroke:#000000;stroke-width:0.6;" x="44.08" xlink:href="#m3cb607ac5d" y="301.473333"/>
      </g>
     </g>
    </g>
    <g id="ytick_10">
     <g id="line2d_41">
      <g>
       <use style="stroke:#000000;stroke-width:0.6;" x="44.08" xlink:href="#m3cb607ac5d" y="291.070769"/>
      </g>
     </g>
    </g>
    <g id="ytick_11">
     <g id="line2d_42">
      <g>
       <use style="stroke:#000000;stroke-width:0.6;" x="44.08" xlink:href="#m3cb607ac5d" y="280.668205"/>
      </g>
     </g>
    </g>
    <g id="ytick_12">
     <g id="line2d_43">
      <g>
       <use style="stroke:#000000;stroke-width:0.6;" x="44.08" xlink:href="#m3cb607ac5d" y="259.863077"/>
      </g>
     </g>
    </g>
    <g id="ytick_13">
     <g id="line2d_44">
      <g>
       <use style="stroke:#000000;stroke-width:0.6;" x="44.08" xlink:href="#m3cb607ac5d" y="249.460513"/>
      </g>
     </g>
    </g>
    <g id="ytick_14">
     <g id="line2d_45">
      <g>
       <use style="stroke:#000000;stroke-width:0.6;" x="44.08" xlink:href="#m3cb607ac5d" y="239.057949"/>
      </g>
     </g>
    </g>
    <g id="ytick_15">
     <g id="line2d_46">
      <g>
       <use style="stroke:#000000;stroke-width:0.6;" x="44.08" xlink:href="#m3cb607ac5d" y="228.655385"/>
      </g>
     </g>
    </g>
    <g id="ytick_16">
     <g id="line2d_47">
      <g>
       <use style="stroke:#000000;stroke-width:0.6;" x="44.08" xlink:href="#m3cb607ac5d" y="207.850256"/>
      </g>
     </g>
    </g>
    <g id="ytick_17">
     <g id="line2d_48">
      <g>
       <use style="stroke:#000000;stroke-width:0.6;" x="44.08" xlink:href="#m3cb607ac5d" y="197.447692"/>
      </g>
     </g>
    </g>
    <g id="ytick_18">
     <g id="line2d_49">
      <g>
       <use style="stroke:#000000;stroke-width:0.6;" x="44.08" xlink:href="#m3cb607ac5d" y="187.045128"/>
      </g>
     </g>
    </g>
    <g id="ytick_19">
     <g id="line2d_50">
      <g>
       <use style="stroke:#000000;stroke-width:0.6;" x="44.08" xlink:href="#m3cb607ac5d" y="176.642564"/>
      </g>
     </g>
    </g>
    <g id="ytick_20">
     <g id="line2d_51">
      <g>
       <use style="stroke:#000000;stroke-width:0.6;" x="44.08" xlink:href="#m3cb607ac5d" y="155.837436"/>
      </g>
     </g>
    </g>
    <g id="ytick_21">
     <g id="line2d_52">
      <g>
       <use style="stroke:#000000;stroke-width:0.6;" x="44.08" xlink:href="#m3cb607ac5d" y="145.434872"/>
      </g>
     </g>
    </g>
    <g id="ytick_22">
     <g id="line2d_53">
      <g>
       <use style="stroke:#000000;stroke-width:0.6;" x="44.08" xlink:href="#m3cb607ac5d" y="135.032308"/>
      </g>
     </g>
    </g>
    <g id="ytick_23">
     <g id="line2d_54">
      <g>
       <use style="stroke:#000000;stroke-width:0.6;" x="44.08" xlink:href="#m3cb607ac5d" y="124.629744"/>
      </g>
     </g>
    </g>
    <g id="ytick_24">
     <g id="line2d_55">
      <g>
       <use style="stroke:#000000;stroke-width:0.6;" x="44.08" xlink:href="#m3cb607ac5d" y="103.824615"/>
      </g>
     </g>
    </g>
    <g id="ytick_25">
     <g id="line2d_56">
      <g>
       <use style="stroke:#000000;stroke-width:0.6;" x="44.08" xlink:href="#m3cb607ac5d" y="93.422051"/>
      </g>
     </g>
    </g>
    <g id="ytick_26">
     <g id="line2d_57">
      <g>
       <use style="stroke:#000000;stroke-width:0.6;" x="44.08" xlink:href="#m3cb607ac5d" y="83.019487"/>
      </g>
     </g>
    </g>
    <g id="ytick_27">
     <g id="line2d_58">
      <g>
       <use style="stroke:#000000;stroke-width:0.6;" x="44.08" xlink:href="#m3cb607ac5d" y="72.616923"/>
      </g>
     </g>
    </g>
    <g id="ytick_28">
     <g id="line2d_59">
      <g>
       <use style="stroke:#000000;stroke-width:0.6;" x="44.08" xlink:href="#m3cb607ac5d" y="51.811795"/>
      </g>
     </g>
    </g>
    <g id="ytick_29">
     <g id="line2d_60">
      <g>
       <use style="stroke:#000000;stroke-width:0.6;" x="44.08" xlink:href="#m3cb607ac5d" y="41.409231"/>
      </g>
     </g>
    </g>
    <g id="ytick_30">
     <g id="line2d_61">
      <g>
       <use style="stroke:#000000;stroke-width:0.6;" x="44.08" xlink:href="#m3cb607ac5d" y="31.006667"/>
      </g>
     </g>
    </g>
    <g id="ytick_31">
     <g id="line2d_62">
      <g>
       <use style="stroke:#000000;stroke-width:0.6;" x="44.08" xlink:href="#m3cb607ac5d" y="20.604103"/>
      </g>
     </g>
    </g>
   </g>
   <g id="LineCollection_1">
    <path clip-path="url(#p7cee605f1d)" d="M 189.022393 215.272919 
L 185.870101 214.023495 
L 181.584954 211.948236 
L 179.565517 210.794272 
L 176.413225 208.765634 
L 172.437038 205.643652 
L 169.090713 202.49136 
L 166.259207 199.339068 
L 163.804056 196.142994 
L 161.805728 193.034483 
L 160.047574 189.882191 
L 158.576505 186.729899 
L 157.327081 183.577607 
L 156.341989 180.425315 
L 155.553916 177.273023 
L 154.962862 174.12073 
L 154.568825 170.968438 
L 154.371807 167.816146 
L 154.371807 164.663854 
L 154.568825 161.511562 
L 154.962862 158.35927 
L 155.553916 155.206977 
L 156.341989 152.054685 
L 157.499472 148.442684 
L 158.576505 145.750101 
L 160.651764 141.464954 
L 161.805728 139.445517 
L 163.834366 136.293225 
L 166.956348 132.317038 
L 170.10864 128.970713 
L 173.260932 126.139207 
L 176.457006 123.684056 
L 179.565517 121.685728 
L 182.717809 119.927574 
L 185.870101 118.456505 
L 189.022393 117.207081 
L 192.174685 116.221989 
L 195.326977 115.433916 
L 198.47927 114.842862 
L 201.631562 114.448825 
L 204.783854 114.251807 
L 207.936146 114.251807 
L 211.088438 114.448825 
L 214.24073 114.842862 
L 217.393023 115.433916 
L 220.545315 116.221989 
L 224.157316 117.379472 
L 226.849899 118.456505 
L 231.135046 120.531764 
L 233.154483 121.685728 
L 236.306775 123.714366 
L 240.282962 126.836348 
L 243.629287 129.98864 
L 246.460793 133.140932 
L 248.915944 136.337006 
L 250.914272 139.445517 
L 252.672426 142.597809 
L 254.143495 145.750101 
L 255.392919 148.902393 
L 256.378011 152.054685 
L 257.166084 155.206977 
L 257.757138 158.35927 
L 258.151175 161.511562 
L 258.348193 164.663854 
L 258.348193 167.816146 
L 258.151175 170.968438 
L 257.757138 174.12073 
L 257.166084 177.273023 
L 256.378011 180.425315 
L 255.220528 184.037316 
L 254.143495 186.729899 
L 252.068236 191.015046 
L 250.914272 193.034483 
L 248.885634 196.186775 
L 245.763652 200.162962 
L 242.61136 203.509287 
L 239.459068 206.340793 
L 236.262994 208.795944 
L 233.154483 210.794272 
L 230.002191 212.552426 
L 226.849899 214.023495 
L 223.697607 215.272919 
L 220.545315 216.258011 
L 217.393023 217.046084 
L 214.24073 217.637138 
L 211.088438 218.031175 
L 207.936146 218.228193 
L 204.783854 218.228193 
L 201.631562 218.031175 
L 198.47927 217.637138 
L 195.326977 217.046084 
L 192.174685 216.258011 
L 189.022393 215.272919 
L 189.022393 215.272919 
" style="fill:none;stroke:#0000ff;stroke-width:1.5;"/>
   </g>
   <g id="LineCollection_2">
    <path clip-path="url(#p7cee605f1d)" d="M 189.022393 237.714798 
L 185.870101 236.880001 
L 182.717809 235.876999 
L 177.814243 234.014281 
L 176.413225 233.413845 
L 171.254928 230.861989 
L 170.10864 230.231531 
L 165.986412 227.709697 
L 161.552419 224.557405 
L 160.651764 223.856895 
L 157.499472 221.219684 
L 154.347179 218.252821 
L 151.194887 214.890376 
L 148.042595 211.047581 
L 144.890303 206.613588 
L 144.259845 205.643652 
L 141.738011 201.345072 
L 140.687247 199.339068 
L 138.585719 194.785757 
L 137.869289 193.034483 
L 136.723001 189.882191 
L 135.433427 185.679135 
L 134.885202 183.577607 
L 134.199921 180.425315 
L 133.651696 177.273023 
L 133.240528 174.12073 
L 132.966415 170.968438 
L 132.829359 167.816146 
L 132.829359 164.663854 
L 132.966415 161.511562 
L 133.240528 158.35927 
L 133.651696 155.206977 
L 134.199921 152.054685 
L 135.433427 146.800865 
L 135.719999 145.750101 
L 136.723001 142.597809 
L 138.585719 137.694243 
L 139.186155 136.293225 
L 141.738011 131.134928 
L 142.368469 129.98864 
L 144.890303 125.866412 
L 148.042595 121.432419 
L 148.743105 120.531764 
L 151.380316 117.379472 
L 154.347179 114.227179 
L 157.709624 111.074887 
L 161.552419 107.922595 
L 165.986412 104.770303 
L 166.956348 104.139845 
L 171.254928 101.618011 
L 173.260932 100.567247 
L 177.814243 98.465719 
L 179.565517 97.749289 
L 182.717809 96.603001 
L 186.920865 95.313427 
L 189.022393 94.765202 
L 192.174685 94.079921 
L 195.326977 93.531696 
L 198.47927 93.120528 
L 201.631562 92.846415 
L 204.783854 92.709359 
L 207.936146 92.709359 
L 211.088438 92.846415 
L 214.24073 93.120528 
L 217.393023 93.531696 
L 220.545315 94.079921 
L 225.799135 95.313427 
L 226.849899 95.599999 
L 230.002191 96.603001 
L 234.905757 98.465719 
L 236.306775 99.066155 
L 241.465072 101.618011 
L 242.61136 102.248469 
L 246.733588 104.770303 
L 251.167581 107.922595 
L 252.068236 108.623105 
L 255.220528 111.260316 
L 258.372821 114.227179 
L 261.525113 117.589624 
L 264.677405 121.432419 
L 267.829697 125.866412 
L 268.460155 126.836348 
L 270.981989 131.134928 
L 272.032753 133.140932 
L 274.134281 137.694243 
L 274.850711 139.445517 
L 275.996999 142.597809 
L 277.286573 146.800865 
L 277.834798 148.902393 
L 278.520079 152.054685 
L 279.068304 155.206977 
L 279.479472 158.35927 
L 279.753585 161.511562 
L 279.890641 164.663854 
L 279.890641 167.816146 
L 279.753585 170.968438 
L 279.479472 174.12073 
L 279.068304 177.273023 
L 278.520079 180.425315 
L 277.286573 185.679135 
L 277.000001 186.729899 
L 275.996999 189.882191 
L 274.134281 194.785757 
L 273.533845 196.186775 
L 270.981989 201.345072 
L 270.351531 202.49136 
L 267.829697 206.613588 
L 264.677405 211.047581 
L 263.976895 211.948236 
L 261.339684 215.100528 
L 258.372821 218.252821 
L 255.010376 221.405113 
L 251.167581 224.557405 
L 246.733588 227.709697 
L 245.763652 228.340155 
L 241.465072 230.861989 
L 239.459068 231.912753 
L 234.905757 234.014281 
L 233.154483 234.730711 
L 230.002191 235.876999 
L 225.799135 237.166573 
L 223.697607 237.714798 
L 220.545315 238.400079 
L 217.393023 238.948304 
L 214.24073 239.359472 
L 211.088438 239.633585 
L 207.936146 239.770641 
L 204.783854 239.770641 
L 201.631562 239.633585 
L 198.47927 239.359472 
L 195.326977 238.948304 
L 192.174685 238.400079 
L 189.022393 237.714798 
L 189.022393 237.714798 
" style="fill:none;stroke:#0010f7;stroke-width:1.5;"/>
   </g>
   <g id="LineCollection_3">
    <path clip-path="url(#p7cee605f1d)" d="M 201.631562 256.202614 
L 198.47927 255.981817 
L 195.326977 255.644072 
L 192.174685 255.193744 
L 185.870101 253.955344 
L 181.880481 252.928034 
L 179.565517 252.242119 
L 173.260932 250.023839 
L 170.10864 248.699719 
L 165.713618 246.62345 
L 163.804056 245.630478 
L 159.995036 243.471158 
L 155.110625 240.318866 
L 154.347179 239.787773 
L 150.822742 237.166573 
L 147.026396 234.014281 
L 143.609684 230.861989 
L 140.518374 227.709697 
L 137.708092 224.557405 
L 135.142182 221.405113 
L 132.281134 217.489375 
L 129.128842 212.604964 
L 126.969522 208.795944 
L 125.355185 205.643652 
L 122.824258 199.948033 
L 121.408645 196.186775 
L 119.671966 190.719519 
L 118.644656 186.729899 
L 117.406256 180.425315 
L 116.955928 177.273023 
L 116.519674 172.741603 
L 116.288687 167.816146 
L 116.397386 161.511562 
L 116.618183 158.35927 
L 116.955928 155.206977 
L 117.406256 152.054685 
L 118.644656 145.750101 
L 119.671966 141.760481 
L 120.357881 139.445517 
L 122.576161 133.140932 
L 123.900281 129.98864 
L 125.97655 125.593618 
L 126.969522 123.684056 
L 129.128842 119.875036 
L 132.281134 114.990625 
L 132.812227 114.227179 
L 135.433427 110.702742 
L 138.585719 106.906396 
L 141.738011 103.489684 
L 144.890303 100.398374 
L 148.042595 97.588092 
L 151.194887 95.022182 
L 155.110625 92.161134 
L 159.995036 89.008842 
L 163.804056 86.849522 
L 166.956348 85.235185 
L 172.651967 82.704258 
L 176.413225 81.288645 
L 181.880481 79.551966 
L 185.870101 78.524656 
L 192.174685 77.286256 
L 195.326977 76.835928 
L 199.858397 76.399674 
L 204.783854 76.168687 
L 211.088438 76.277386 
L 214.24073 76.498183 
L 217.393023 76.835928 
L 220.545315 77.286256 
L 226.849899 78.524656 
L 230.839519 79.551966 
L 233.154483 80.237881 
L 239.459068 82.456161 
L 242.61136 83.780281 
L 247.006382 85.85655 
L 248.915944 86.849522 
L 252.724964 89.008842 
L 257.609375 92.161134 
L 258.372821 92.692227 
L 261.897258 95.313427 
L 265.693604 98.465719 
L 269.110316 101.618011 
L 272.201626 104.770303 
L 275.011908 107.922595 
L 277.577818 111.074887 
L 280.438866 114.990625 
L 283.591158 119.875036 
L 285.750478 123.684056 
L 287.364815 126.836348 
L 289.895742 132.531967 
L 291.311355 136.293225 
L 293.048034 141.760481 
L 294.075344 145.750101 
L 295.313744 152.054685 
L 295.764072 155.206977 
L 296.200326 159.738397 
L 296.431313 164.663854 
L 296.322614 170.968438 
L 296.101817 174.12073 
L 295.764072 177.273023 
L 295.313744 180.425315 
L 294.075344 186.729899 
L 293.048034 190.719519 
L 292.362119 193.034483 
L 290.143839 199.339068 
L 288.819719 202.49136 
L 286.74345 206.886382 
L 285.750478 208.795944 
L 283.591158 212.604964 
L 280.438866 217.489375 
L 279.907773 218.252821 
L 277.286573 221.777258 
L 274.134281 225.573604 
L 270.981989 228.990316 
L 267.829697 232.081626 
L 264.677405 234.891908 
L 261.525113 237.457818 
L 257.609375 240.318866 
L 252.724964 243.471158 
L 248.915944 245.630478 
L 245.763652 247.244815 
L 240.068033 249.775742 
L 236.306775 251.191355 
L 230.839519 252.928034 
L 226.849899 253.955344 
L 220.545315 255.193744 
L 217.393023 255.644072 
L 212.861603 256.080326 
L 207.936146 256.311313 
L 201.631562 256.202614 
L 201.631562 256.202614 
" style="fill:none;stroke:#0020ef;stroke-width:1.5;"/>
   </g>
   <g id="LineCollection_4">
    <path clip-path="url(#p7cee605f1d)" d="M 189.022393 268.8089 
L 185.870101 268.221577 
L 179.565517 266.74394 
L 175.38873 265.537203 
L 170.10864 263.732261 
L 166.653243 262.384911 
L 160.651764 259.679193 
L 157.499472 258.064096 
L 153.929964 256.080326 
L 148.87445 252.928034 
L 144.890303 250.155185 
L 141.738011 247.744938 
L 138.585719 245.141873 
L 135.433427 242.321885 
L 132.281134 239.25668 
L 129.128842 235.912821 
L 125.97655 232.250499 
L 122.444815 227.709697 
L 119.671966 223.72555 
L 116.275099 218.252821 
L 112.920807 211.948236 
L 110.087981 205.643652 
L 107.749183 199.339068 
L 106.742643 196.186775 
L 105.067987 189.882191 
L 103.7911 183.577607 
L 102.931384 177.273023 
L 102.453764 170.968438 
L 102.35824 164.663854 
L 102.644812 158.35927 
L 103.31348 152.054685 
L 104.378423 145.750101 
L 105.85606 139.445517 
L 107.062797 135.26873 
L 108.867739 129.98864 
L 110.215089 126.533243 
L 112.920807 120.531764 
L 114.535904 117.379472 
L 116.519674 113.809964 
L 119.671966 108.75445 
L 122.444815 104.770303 
L 124.855062 101.618011 
L 127.458127 98.465719 
L 130.278115 95.313427 
L 133.34332 92.161134 
L 136.687179 89.008842 
L 140.349501 85.85655 
L 144.890303 82.324815 
L 148.87445 79.551966 
L 154.347179 76.155099 
L 160.651764 72.800807 
L 166.956348 69.967981 
L 173.260932 67.629183 
L 176.413225 66.622643 
L 182.717809 64.947987 
L 189.022393 63.6711 
L 195.326977 62.811384 
L 201.631562 62.333764 
L 207.936146 62.23824 
L 214.24073 62.524812 
L 220.545315 63.19348 
L 226.849899 64.258423 
L 233.154483 65.73606 
L 237.33127 66.942797 
L 242.61136 68.747739 
L 246.066757 70.095089 
L 252.068236 72.800807 
L 255.220528 74.415904 
L 258.790036 76.399674 
L 263.84555 79.551966 
L 267.829697 82.324815 
L 270.981989 84.735062 
L 274.134281 87.338127 
L 277.286573 90.158115 
L 280.438866 93.22332 
L 283.591158 96.567179 
L 286.74345 100.229501 
L 290.275185 104.770303 
L 293.048034 108.75445 
L 296.444901 114.227179 
L 299.799193 120.531764 
L 302.632019 126.836348 
L 304.970817 133.140932 
L 305.977357 136.293225 
L 307.652013 142.597809 
L 308.9289 148.902393 
L 309.788616 155.206977 
L 310.266236 161.511562 
L 310.36176 167.816146 
L 310.075188 174.12073 
L 309.40652 180.425315 
L 308.341577 186.729899 
L 306.86394 193.034483 
L 305.657203 197.21127 
L 303.852261 202.49136 
L 302.504911 205.946757 
L 299.799193 211.948236 
L 298.184096 215.100528 
L 296.200326 218.670036 
L 293.048034 223.72555 
L 290.275185 227.709697 
L 287.864938 230.861989 
L 285.261873 234.014281 
L 282.441885 237.166573 
L 279.37668 240.318866 
L 276.032821 243.471158 
L 272.370499 246.62345 
L 267.829697 250.155185 
L 263.84555 252.928034 
L 258.372821 256.324901 
L 252.068236 259.679193 
L 245.763652 262.512019 
L 239.459068 264.850817 
L 236.306775 265.857357 
L 230.002191 267.532013 
L 223.697607 268.8089 
L 217.393023 269.668616 
L 211.088438 270.146236 
L 204.783854 270.24176 
L 198.47927 269.955188 
L 192.174685 269.28652 
L 189.022393 268.8089 
L 189.022393 268.8089 
" style="fill:none;stroke:#0030e7;stroke-width:1.5;"/>
   </g>
   <g id="LineCollection_5">
    <path clip-path="url(#p7cee605f1d)" d="M 192.174685 281.671401 
L 185.870101 280.718554 
L 179.565517 279.405099 
L 173.260932 277.729819 
L 166.956348 275.658312 
L 163.804056 274.47256 
L 157.499472 271.782085 
L 151.194887 268.627927 
L 144.890303 264.965214 
L 140.931174 262.384911 
L 135.433427 258.403783 
L 132.281134 255.897381 
L 128.829375 252.928034 
L 125.446116 249.775742 
L 122.31347 246.62345 
L 119.404584 243.471158 
L 116.519674 240.096149 
L 113.367382 236.074018 
L 109.668523 230.861989 
L 107.062797 226.776453 
L 103.910505 221.28922 
L 100.758213 214.969183 
L 98.12744 208.795944 
L 96.941688 205.643652 
L 94.870181 199.339068 
L 93.982974 196.186775 
L 92.494391 189.882191 
L 91.301336 183.18357 
L 90.587811 177.273023 
L 90.161825 170.968438 
L 90.076628 164.663854 
L 90.33222 158.35927 
L 90.928599 152.054685 
L 91.881446 145.750101 
L 93.194901 139.445517 
L 94.870181 133.140932 
L 96.941688 126.836348 
L 98.12744 123.684056 
L 100.817915 117.379472 
L 103.972073 111.074887 
L 107.634786 104.770303 
L 110.215089 100.811174 
L 114.196217 95.313427 
L 116.702619 92.161134 
L 119.671966 88.709375 
L 122.824258 85.326116 
L 125.97655 82.19347 
L 129.128842 79.284584 
L 132.503851 76.399674 
L 136.525982 73.247382 
L 141.738011 69.548523 
L 145.823547 66.942797 
L 151.31078 63.790505 
L 157.630817 60.638213 
L 163.804056 58.00744 
L 166.956348 56.821688 
L 173.260932 54.750181 
L 176.413225 53.862974 
L 182.717809 52.374391 
L 189.41643 51.181336 
L 195.326977 50.467811 
L 201.631562 50.041825 
L 207.936146 49.956628 
L 214.24073 50.21222 
L 220.545315 50.808599 
L 226.849899 51.761446 
L 233.154483 53.074901 
L 239.459068 54.750181 
L 245.763652 56.821688 
L 248.915944 58.00744 
L 255.220528 60.697915 
L 261.525113 63.852073 
L 267.829697 67.514786 
L 271.788826 70.095089 
L 277.286573 74.076217 
L 280.438866 76.582619 
L 283.890625 79.551966 
L 287.273884 82.704258 
L 290.40653 85.85655 
L 293.315416 89.008842 
L 296.200326 92.383851 
L 299.352618 96.405982 
L 303.051477 101.618011 
L 305.657203 105.703547 
L 308.809495 111.19078 
L 311.961787 117.510817 
L 314.59256 123.684056 
L 315.778312 126.836348 
L 317.849819 133.140932 
L 318.737026 136.293225 
L 320.225609 142.597809 
L 321.418664 149.29643 
L 322.132189 155.206977 
L 322.558175 161.511562 
L 322.643372 167.816146 
L 322.38778 174.12073 
L 321.791401 180.425315 
L 320.838554 186.729899 
L 319.525099 193.034483 
L 317.849819 199.339068 
L 315.778312 205.643652 
L 314.59256 208.795944 
L 311.902085 215.100528 
L 308.747927 221.405113 
L 305.085214 227.709697 
L 302.504911 231.668826 
L 298.523783 237.166573 
L 296.017381 240.318866 
L 293.048034 243.770625 
L 289.895742 247.153884 
L 286.74345 250.28653 
L 283.591158 253.195416 
L 280.216149 256.080326 
L 276.194018 259.232618 
L 270.981989 262.931477 
L 266.896453 265.537203 
L 261.40922 268.689495 
L 255.089183 271.841787 
L 248.915944 274.47256 
L 245.763652 275.658312 
L 239.459068 277.729819 
L 236.306775 278.617026 
L 230.002191 280.105609 
L 223.30357 281.298664 
L 217.393023 282.012189 
L 211.088438 282.438175 
L 204.783854 282.523372 
L 198.47927 282.26778 
L 192.174685 281.671401 
L 192.174685 281.671401 
" style="fill:none;stroke:#0040df;stroke-width:1.5;"/>
   </g>
   <g id="LineCollection_6">
    <path clip-path="url(#p7cee605f1d)" d="M 179.565517 290.794944 
L 176.413225 290.068502 
L 170.10864 288.371114 
L 163.804056 286.317444 
L 157.499472 283.897175 
L 151.194887 281.079754 
L 144.890303 277.831142 
L 138.585719 274.113292 
L 135.090786 271.841787 
L 129.128842 267.55664 
L 125.97655 265.079612 
L 122.765882 262.384911 
L 119.277929 259.232618 
L 116.030525 256.080326 
L 112.999614 252.928034 
L 110.164246 249.775742 
L 107.062797 246.056037 
L 102.716455 240.318866 
L 100.526427 237.166573 
L 96.570168 230.861989 
L 94.453629 227.129012 
L 91.301336 220.94154 
L 88.702825 215.100528 
L 87.443926 211.948236 
L 84.996752 204.986924 
L 83.339778 199.339068 
L 81.805056 193.034483 
L 80.622947 186.729899 
L 79.756066 180.425315 
L 79.204415 174.12073 
L 78.967993 167.816146 
L 79.046801 161.511562 
L 79.440837 155.206977 
L 80.150103 148.902393 
L 81.174598 142.597809 
L 82.531498 136.293225 
L 84.228886 129.98864 
L 86.282556 123.684056 
L 88.702825 117.379472 
L 91.520246 111.074887 
L 94.768858 104.770303 
L 98.486708 98.465719 
L 100.758213 94.970786 
L 105.04336 89.008842 
L 107.520388 85.85655 
L 110.215089 82.645882 
L 113.367382 79.157929 
L 116.519674 75.910525 
L 119.671966 72.879614 
L 122.824258 70.044246 
L 126.543963 66.942797 
L 132.281134 62.596455 
L 135.433427 60.406427 
L 141.738011 56.450168 
L 145.470988 54.333629 
L 151.65846 51.181336 
L 157.499472 48.582825 
L 160.651764 47.323926 
L 167.613076 44.876752 
L 173.260932 43.219778 
L 179.565517 41.685056 
L 185.870101 40.502947 
L 192.174685 39.636066 
L 198.47927 39.084415 
L 204.783854 38.847993 
L 211.088438 38.926801 
L 217.393023 39.320837 
L 223.697607 40.030103 
L 230.002191 41.054598 
L 236.306775 42.411498 
L 242.61136 44.108886 
L 248.915944 46.162556 
L 255.220528 48.582825 
L 261.525113 51.400246 
L 267.829697 54.648858 
L 274.134281 58.366708 
L 277.629214 60.638213 
L 283.591158 64.92336 
L 286.74345 67.400388 
L 289.954118 70.095089 
L 293.442071 73.247382 
L 296.689475 76.399674 
L 299.720386 79.551966 
L 302.555754 82.704258 
L 305.657203 86.423963 
L 310.003545 92.161134 
L 312.193573 95.313427 
L 316.149832 101.618011 
L 318.266371 105.350988 
L 321.418664 111.53846 
L 324.017175 117.379472 
L 325.276074 120.531764 
L 327.723248 127.493076 
L 329.380222 133.140932 
L 330.914944 139.445517 
L 332.097053 145.750101 
L 332.963934 152.054685 
L 333.515585 158.35927 
L 333.752007 164.663854 
L 333.673199 170.968438 
L 333.279163 177.273023 
L 332.569897 183.577607 
L 331.545402 189.882191 
L 330.188502 196.186775 
L 328.491114 202.49136 
L 326.437444 208.795944 
L 324.017175 215.100528 
L 321.199754 221.405113 
L 317.951142 227.709697 
L 314.233292 234.014281 
L 311.961787 237.509214 
L 307.67664 243.471158 
L 305.199612 246.62345 
L 302.504911 249.834118 
L 299.352618 253.322071 
L 296.200326 256.569475 
L 293.048034 259.600386 
L 289.895742 262.435754 
L 286.176037 265.537203 
L 280.438866 269.883545 
L 277.286573 272.073573 
L 270.981989 276.029832 
L 267.249012 278.146371 
L 261.06154 281.298664 
L 255.220528 283.897175 
L 252.068236 285.156074 
L 245.106924 287.603248 
L 239.459068 289.260222 
L 233.154483 290.794944 
L 226.849899 291.977053 
L 220.545315 292.843934 
L 214.24073 293.395585 
L 207.936146 293.632007 
L 201.631562 293.553199 
L 195.326977 293.159163 
L 189.022393 292.449897 
L 182.717809 291.425402 
L 179.565517 290.794944 
L 179.565517 290.794944 
" style="fill:none;stroke:#0050d7;stroke-width:1.5;"/>
   </g>
   <g id="LineCollection_7">
    <path clip-path="url(#p7cee605f1d)" d="M 195.326977 303.409486 
L 189.022393 302.750745 
L 182.717809 301.797726 
L 176.413225 300.551471 
L 170.10864 298.983398 
L 163.663329 297.060124 
L 157.499472 294.878507 
L 151.194887 292.302133 
L 144.890303 289.351153 
L 138.585719 285.995994 
L 135.433427 284.163416 
L 129.128842 280.127499 
L 125.97655 277.932466 
L 122.050779 274.994079 
L 116.519674 270.46863 
L 113.367382 267.667463 
L 110.215089 264.685575 
L 107.062797 261.504896 
L 103.910505 258.104859 
L 99.494978 252.928034 
L 97.009237 249.775742 
L 94.453629 246.323982 
L 90.396117 240.318866 
L 86.604006 234.014281 
L 84.865407 230.861989 
L 81.716398 224.557405 
L 78.692168 217.587884 
L 76.568215 211.948236 
L 74.517257 205.643652 
L 72.791002 199.339068 
L 71.388747 193.034483 
L 70.28911 186.729899 
L 69.48271 180.425315 
L 68.975585 174.12073 
L 68.760656 167.816146 
L 68.832299 161.511562 
L 69.235291 154.714432 
L 69.849255 148.902393 
L 70.802274 142.597809 
L 72.048529 136.293225 
L 73.616602 129.98864 
L 75.539876 123.543329 
L 77.721493 117.379472 
L 80.297867 111.074887 
L 83.248847 104.770303 
L 86.604006 98.465719 
L 88.436584 95.313427 
L 92.472501 89.008842 
L 94.667534 85.85655 
L 97.605921 81.930779 
L 102.13137 76.399674 
L 104.932537 73.247382 
L 107.914425 70.095089 
L 111.095104 66.942797 
L 114.495141 63.790505 
L 119.671966 59.374978 
L 122.824258 56.889237 
L 126.276018 54.333629 
L 132.281134 50.276117 
L 138.585719 46.484006 
L 141.738011 44.745407 
L 148.042595 41.596398 
L 155.012116 38.572168 
L 160.651764 36.448215 
L 166.956348 34.397257 
L 173.260932 32.671002 
L 179.565517 31.268747 
L 185.870101 30.16911 
L 192.174685 29.36271 
L 198.47927 28.855585 
L 204.783854 28.640656 
L 211.088438 28.712299 
L 217.885568 29.115291 
L 223.697607 29.729255 
L 230.002191 30.682274 
L 236.306775 31.928529 
L 242.61136 33.496602 
L 249.056671 35.419876 
L 255.220528 37.601493 
L 261.525113 40.177867 
L 267.829697 43.128847 
L 274.134281 46.484006 
L 277.286573 48.316584 
L 283.591158 52.352501 
L 286.74345 54.547534 
L 290.669221 57.485921 
L 296.200326 62.01137 
L 299.352618 64.812537 
L 302.504911 67.794425 
L 305.657203 70.975104 
L 308.809495 74.375141 
L 313.225022 79.551966 
L 315.710763 82.704258 
L 318.266371 86.156018 
L 322.323883 92.161134 
L 326.115994 98.465719 
L 327.854593 101.618011 
L 331.003602 107.922595 
L 334.027832 114.892116 
L 336.151785 120.531764 
L 338.202743 126.836348 
L 339.928998 133.140932 
L 341.331253 139.445517 
L 342.43089 145.750101 
L 343.23729 152.054685 
L 343.744415 158.35927 
L 343.959344 164.663854 
L 343.887701 170.968438 
L 343.484709 177.765568 
L 342.870745 183.577607 
L 341.917726 189.882191 
L 340.671471 196.186775 
L 339.103398 202.49136 
L 337.180124 208.936671 
L 334.998507 215.100528 
L 332.422133 221.405113 
L 329.471153 227.709697 
L 326.115994 234.014281 
L 324.283416 237.166573 
L 320.247499 243.471158 
L 318.052466 246.62345 
L 315.114079 250.549221 
L 310.58863 256.080326 
L 307.787463 259.232618 
L 304.805575 262.384911 
L 301.624896 265.537203 
L 298.224859 268.689495 
L 293.048034 273.105022 
L 289.895742 275.590763 
L 286.443982 278.146371 
L 280.438866 282.203883 
L 274.134281 285.995994 
L 270.981989 287.734593 
L 264.677405 290.883602 
L 257.707884 293.907832 
L 252.068236 296.031785 
L 245.763652 298.082743 
L 239.459068 299.808998 
L 233.154483 301.211253 
L 226.849899 302.31089 
L 220.545315 303.11729 
L 214.24073 303.624415 
L 207.936146 303.839344 
L 201.631562 303.767701 
L 195.326977 303.409486 
L 195.326977 303.409486 
" style="fill:none;stroke:#0060cf;stroke-width:1.5;"/>
   </g>
   <g id="LineCollection_8">
    <path clip-path="url(#p7cee605f1d)" d="M 195.326977 312.938958 
L 189.022393 312.324756 
L 182.717809 311.433891 
L 176.413225 310.268914 
L 170.10864 308.811169 
L 163.804056 307.059896 
L 157.499472 304.994587 
L 151.194887 302.61329 
L 144.890303 299.893435 
L 138.585719 296.810248 
L 132.281134 293.336479 
L 125.97655 289.442085 
L 122.824258 287.333644 
L 116.519674 282.725715 
L 113.367382 280.226009 
L 110.215089 277.583462 
L 107.062797 274.785472 
L 103.910505 271.817906 
L 100.758213 268.664868 
L 97.605921 265.308407 
L 94.453629 261.728183 
L 89.874285 256.080326 
L 87.506143 252.928034 
L 83.157915 246.62345 
L 81.154896 243.471158 
L 77.481226 237.166573 
L 74.207657 230.861989 
L 71.306274 224.557405 
L 68.751701 218.252821 
L 66.530768 211.948236 
L 64.629442 205.643652 
L 62.930707 198.945031 
L 61.714333 193.034483 
L 60.686412 186.729899 
L 59.932603 180.425315 
L 59.459832 174.12073 
L 59.258622 167.816146 
L 59.325692 161.511562 
L 59.661042 155.206977 
L 60.275244 148.902393 
L 61.166109 142.597809 
L 62.331086 136.293225 
L 63.788831 129.98864 
L 65.540104 123.684056 
L 67.605413 117.379472 
L 69.98671 111.074887 
L 72.706565 104.770303 
L 75.789752 98.465719 
L 79.263521 92.161134 
L 83.157915 85.85655 
L 85.266356 82.704258 
L 89.874285 76.399674 
L 92.373991 73.247382 
L 95.016538 70.095089 
L 97.814528 66.942797 
L 100.782094 63.790505 
L 103.935132 60.638213 
L 107.291593 57.485921 
L 110.871817 54.333629 
L 116.519674 49.754285 
L 119.671966 47.386143 
L 125.97655 43.037915 
L 129.128842 41.034896 
L 135.433427 37.361226 
L 141.738011 34.087657 
L 148.042595 31.186274 
L 154.347179 28.631701 
L 160.651764 26.410768 
L 166.956348 24.509442 
L 173.654969 22.810707 
L 179.565517 21.594333 
L 185.870101 20.566412 
L 192.174685 19.812603 
L 198.47927 19.339832 
L 204.783854 19.138622 
L 211.088438 19.205692 
L 217.393023 19.541042 
L 223.697607 20.155244 
L 230.002191 21.046109 
L 236.306775 22.211086 
L 242.61136 23.668831 
L 248.915944 25.420104 
L 255.220528 27.485413 
L 261.525113 29.86671 
L 267.829697 32.586565 
L 274.134281 35.669752 
L 280.438866 39.143521 
L 286.74345 43.037915 
L 289.895742 45.146356 
L 296.200326 49.754285 
L 299.352618 52.253991 
L 302.504911 54.896538 
L 305.657203 57.694528 
L 308.809495 60.662094 
L 311.961787 63.815132 
L 315.114079 67.171593 
L 318.266371 70.751817 
L 322.845715 76.399674 
L 325.213857 79.551966 
L 329.562085 85.85655 
L 331.565104 89.008842 
L 335.238774 95.313427 
L 338.512343 101.618011 
L 341.413726 107.922595 
L 343.968299 114.227179 
L 346.189232 120.531764 
L 348.090558 126.836348 
L 349.789293 133.534969 
L 351.005667 139.445517 
L 352.033588 145.750101 
L 352.787397 152.054685 
L 353.260168 158.35927 
L 353.461378 164.663854 
L 353.394308 170.968438 
L 353.058958 177.273023 
L 352.444756 183.577607 
L 351.553891 189.882191 
L 350.388914 196.186775 
L 348.931169 202.49136 
L 347.179896 208.795944 
L 345.114587 215.100528 
L 342.73329 221.405113 
L 340.013435 227.709697 
L 336.930248 234.014281 
L 333.456479 240.318866 
L 329.562085 246.62345 
L 327.453644 249.775742 
L 322.845715 256.080326 
L 320.346009 259.232618 
L 317.703462 262.384911 
L 314.905472 265.537203 
L 311.937906 268.689495 
L 308.784868 271.841787 
L 305.428407 274.994079 
L 301.848183 278.146371 
L 296.200326 282.725715 
L 293.048034 285.093857 
L 286.74345 289.442085 
L 283.591158 291.445104 
L 277.286573 295.118774 
L 270.981989 298.392343 
L 264.677405 301.293726 
L 258.372821 303.848299 
L 252.068236 306.069232 
L 245.763652 307.970558 
L 239.065031 309.669293 
L 233.154483 310.885667 
L 226.849899 311.913588 
L 220.545315 312.667397 
L 214.24073 313.140168 
L 207.936146 313.341378 
L 201.631562 313.274308 
L 195.326977 312.938958 
L 195.326977 312.938958 
" style="fill:none;stroke:#0070c7;stroke-width:1.5;"/>
   </g>
   <g id="LineCollection_9">
    <path clip-path="url(#p7cee605f1d)" d="M 176.413225 319.375458 
L 170.10864 318.001523 
L 163.804056 316.359705 
L 157.499472 314.422882 
L 151.194887 312.196266 
L 144.890303 309.660537 
L 138.030485 306.517001 
L 131.903516 303.364709 
L 125.97655 299.977871 
L 119.671966 295.974121 
L 116.519674 293.819174 
L 110.215089 289.128876 
L 107.062797 286.597418 
L 103.910505 283.929124 
L 100.758213 281.112591 
L 97.605921 278.135113 
L 94.453629 274.98249 
L 91.301336 271.638799 
L 86.002582 265.537203 
L 81.84446 260.270248 
L 78.692168 255.953672 
L 74.573548 249.775742 
L 70.783947 243.471158 
L 67.381529 237.166573 
L 64.340482 230.861989 
L 61.637239 224.557405 
L 59.250238 218.252821 
L 57.171067 211.948236 
L 55.38655 205.643652 
L 53.876076 199.339068 
L 52.64555 193.034483 
L 51.680562 186.729899 
L 50.972905 180.425315 
L 50.522578 174.12073 
L 50.32958 167.816146 
L 50.393913 161.511562 
L 50.715575 155.206977 
L 51.294567 148.902393 
L 52.13089 142.597809 
L 53.224542 136.293225 
L 54.598477 129.98864 
L 56.240295 123.684056 
L 58.177118 117.379472 
L 60.403734 111.074887 
L 62.939463 104.770303 
L 66.082999 97.910485 
L 69.235291 91.783516 
L 72.622129 85.85655 
L 76.625879 79.551966 
L 78.780826 76.399674 
L 83.471124 70.095089 
L 86.002582 66.942797 
L 88.670876 63.790505 
L 91.487409 60.638213 
L 94.464887 57.485921 
L 97.61751 54.333629 
L 100.961201 51.181336 
L 107.062797 45.882582 
L 112.329752 41.72446 
L 116.646328 38.572168 
L 122.824258 34.453548 
L 129.128842 30.663947 
L 135.433427 27.261529 
L 141.738011 24.220482 
L 148.042595 21.517239 
L 154.347179 19.130238 
L 160.651764 17.051067 
L 166.956348 15.26655 
L 173.260932 13.756076 
L 179.565517 12.52555 
L 185.870101 11.560562 
L 192.174685 10.852905 
L 198.47927 10.402578 
L 204.783854 10.20958 
L 211.088438 10.273913 
L 217.393023 10.595575 
L 223.697607 11.174567 
L 230.002191 12.01089 
L 236.306775 13.104542 
L 242.61136 14.478477 
L 248.915944 16.120295 
L 255.220528 18.057118 
L 261.525113 20.283734 
L 267.829697 22.819463 
L 274.689515 25.962999 
L 280.816484 29.115291 
L 286.74345 32.502129 
L 293.048034 36.505879 
L 296.200326 38.660826 
L 302.504911 43.351124 
L 305.657203 45.882582 
L 308.809495 48.550876 
L 311.961787 51.367409 
L 315.114079 54.344887 
L 318.266371 57.49751 
L 321.418664 60.841201 
L 326.717418 66.942797 
L 330.87554 72.209752 
L 334.027832 76.526328 
L 338.146452 82.704258 
L 341.936053 89.008842 
L 345.338471 95.313427 
L 348.379518 101.618011 
L 351.082761 107.922595 
L 353.469762 114.227179 
L 355.548933 120.531764 
L 357.33345 126.836348 
L 358.843924 133.140932 
L 360.07445 139.445517 
L 361.039438 145.750101 
L 361.747095 152.054685 
L 362.197422 158.35927 
L 362.39042 164.663854 
L 362.326087 170.968438 
L 362.004425 177.273023 
L 361.425433 183.577607 
L 360.58911 189.882191 
L 359.495458 196.186775 
L 358.121523 202.49136 
L 356.479705 208.795944 
L 354.542882 215.100528 
L 352.316266 221.405113 
L 349.780537 227.709697 
L 346.637001 234.569515 
L 343.484709 240.696484 
L 340.097871 246.62345 
L 336.094121 252.928034 
L 333.939174 256.080326 
L 329.248876 262.384911 
L 326.717418 265.537203 
L 324.049124 268.689495 
L 321.232591 271.841787 
L 318.255113 274.994079 
L 315.10249 278.146371 
L 311.758799 281.298664 
L 305.657203 286.597418 
L 300.390248 290.75554 
L 296.073672 293.907832 
L 289.895742 298.026452 
L 283.591158 301.816053 
L 277.286573 305.218471 
L 270.981989 308.259518 
L 264.677405 310.962761 
L 258.372821 313.349762 
L 252.068236 315.428933 
L 245.763652 317.21345 
L 239.459068 318.723924 
L 233.154483 319.95445 
L 226.849899 320.919438 
L 220.545315 321.627095 
L 214.24073 322.077422 
L 207.936146 322.27042 
L 201.631562 322.206087 
L 195.326977 321.884425 
L 189.022393 321.305433 
L 182.717809 320.46911 
L 176.413225 319.375458 
L 176.413225 319.375458 
" style="fill:none;stroke:#0080bf;stroke-width:1.5;"/>
   </g>
   <g id="LineCollection_10">
    <path clip-path="url(#p7cee605f1d)" d="M 154.347179 322.278462 
L 154.347179 322.278462 
L 151.194887 321.184809 
L 148.042595 320.026824 
L 145.719854 319.126169 
L 144.890303 318.797806 
L 141.738011 317.484351 
L 138.585719 316.105223 
L 138.299147 315.973877 
L 135.433427 314.632476 
L 132.281134 313.089865 
L 131.755752 312.821585 
L 129.128842 311.451023 
L 125.97655 309.737821 
L 125.855308 309.669293 
L 122.824258 307.91802 
L 120.489227 306.517001 
L 119.671966 306.0155 
L 116.519674 304.009496 
L 115.541376 303.364709 
L 113.367382 301.898526 
L 110.950624 300.212416 
L 110.215089 299.687034 
L 107.062797 297.360343 
L 106.668761 297.060124 
L 103.910505 294.907339 
L 102.668693 293.907832 
L 100.758213 292.331686 
L 98.903923 290.75554 
L 97.605921 289.623948 
L 95.354283 287.603248 
L 94.453629 286.773697 
L 92.001846 284.450956 
L 91.301336 283.769379 
L 88.830621 281.298664 
L 88.149044 280.598154 
L 85.826303 278.146371 
L 84.996752 277.245717 
L 82.976052 274.994079 
L 81.84446 273.696077 
L 80.268314 271.841787 
L 78.692168 269.931307 
L 77.692661 268.689495 
L 75.539876 265.931239 
L 75.239657 265.537203 
L 72.912966 262.384911 
L 72.387584 261.649376 
L 70.701474 259.232618 
L 69.235291 257.058624 
L 68.590504 256.080326 
L 66.5845 252.928034 
L 66.082999 252.110773 
L 64.68198 249.775742 
L 62.930707 246.744692 
L 62.862179 246.62345 
L 61.148977 243.471158 
L 59.778415 240.844248 
L 59.510135 240.318866 
L 57.967524 237.166573 
L 56.626123 234.300853 
L 56.494777 234.014281 
L 55.115649 230.861989 
L 53.802194 227.709697 
L 53.473831 226.880146 
L 52.573176 224.557405 
L 51.415191 221.405113 
L 50.321538 218.252821 
L 50.321538 218.252821 
" style="fill:none;stroke:#0090b7;stroke-width:1.5;"/>
    <path clip-path="url(#p7cee605f1d)" d="M 362.398462 218.252821 
L 362.398462 218.252821 
L 361.304809 221.405113 
L 360.146824 224.557405 
L 359.246169 226.880146 
L 358.917806 227.709697 
L 357.604351 230.861989 
L 356.225223 234.014281 
L 356.093877 234.300853 
L 354.752476 237.166573 
L 353.209865 240.318866 
L 352.941585 240.844248 
L 351.571023 243.471158 
L 349.857821 246.62345 
L 349.789293 246.744692 
L 348.03802 249.775742 
L 346.637001 252.110773 
L 346.1355 252.928034 
L 344.129496 256.080326 
L 343.484709 257.058624 
L 342.018526 259.232618 
L 340.332416 261.649376 
L 339.807034 262.384911 
L 337.480343 265.537203 
L 337.180124 265.931239 
L 335.027339 268.689495 
L 334.027832 269.931307 
L 332.451686 271.841787 
L 330.87554 273.696077 
L 329.743948 274.994079 
L 327.723248 277.245717 
L 326.893697 278.146371 
L 324.570956 280.598154 
L 323.889379 281.298664 
L 321.418664 283.769379 
L 320.718154 284.450956 
L 318.266371 286.773697 
L 317.365717 287.603248 
L 315.114079 289.623948 
L 313.816077 290.75554 
L 311.961787 292.331686 
L 310.051307 293.907832 
L 308.809495 294.907339 
L 306.051239 297.060124 
L 305.657203 297.360343 
L 302.504911 299.687034 
L 301.769376 300.212416 
L 299.352618 301.898526 
L 297.178624 303.364709 
L 296.200326 304.009496 
L 293.048034 306.0155 
L 292.230773 306.517001 
L 289.895742 307.91802 
L 286.864692 309.669293 
L 286.74345 309.737821 
L 283.591158 311.451023 
L 280.964248 312.821585 
L 280.438866 313.089865 
L 277.286573 314.632476 
L 274.420853 315.973877 
L 274.134281 316.105223 
L 270.981989 317.484351 
L 267.829697 318.797806 
L 267.000146 319.126169 
L 264.677405 320.026824 
L 261.525113 321.184809 
L 258.372821 322.278462 
" style="fill:none;stroke:#0090b7;stroke-width:1.5;"/>
    <path clip-path="url(#p7cee605f1d)" d="M 50.321538 114.227179 
L 51.415191 111.074887 
L 52.573176 107.922595 
L 53.473831 105.599854 
L 53.802194 104.770303 
L 55.115649 101.618011 
L 56.494777 98.465719 
L 56.626123 98.179147 
L 57.967524 95.313427 
L 59.510135 92.161134 
L 59.778415 91.635752 
L 61.148977 89.008842 
L 62.862179 85.85655 
L 62.930707 85.735308 
L 64.68198 82.704258 
L 66.082999 80.369227 
L 66.5845 79.551966 
L 68.590504 76.399674 
L 69.235291 75.421376 
L 70.701474 73.247382 
L 72.387584 70.830624 
L 72.912966 70.095089 
L 75.239657 66.942797 
L 75.539876 66.548761 
L 77.692661 63.790505 
L 78.692168 62.548693 
L 80.268314 60.638213 
L 81.84446 58.783923 
L 82.976052 57.485921 
L 84.996752 55.234283 
L 85.826303 54.333629 
L 88.149044 51.881846 
L 88.830621 51.181336 
L 91.301336 48.710621 
L 92.001846 48.029044 
L 94.453629 45.706303 
L 95.354283 44.876752 
L 97.605921 42.856052 
L 98.903923 41.72446 
L 100.758213 40.148314 
L 102.668693 38.572168 
L 103.910505 37.572661 
L 106.668761 35.419876 
L 107.062797 35.119657 
L 110.215089 32.792966 
L 110.950624 32.267584 
L 113.367382 30.581474 
L 115.541376 29.115291 
L 116.519674 28.470504 
L 119.671966 26.4645 
L 120.489227 25.962999 
L 122.824258 24.56198 
L 125.855308 22.810707 
L 125.97655 22.742179 
L 129.128842 21.028977 
L 131.755752 19.658415 
L 132.281134 19.390135 
L 135.433427 17.847524 
L 138.299147 16.506123 
L 138.585719 16.374777 
L 141.738011 14.995649 
L 144.890303 13.682194 
L 145.719854 13.353831 
L 148.042595 12.453176 
L 151.194887 11.295191 
L 154.347179 10.201538 
L 154.347179 10.201538 
" style="fill:none;stroke:#0090b7;stroke-width:1.5;"/>
    <path clip-path="url(#p7cee605f1d)" d="M 258.372821 10.201538 
L 261.525113 11.295191 
L 264.677405 12.453176 
L 267.000146 13.353831 
L 267.829697 13.682194 
L 270.981989 14.995649 
L 274.134281 16.374777 
L 274.420853 16.506123 
L 277.286573 17.847524 
L 280.438866 19.390135 
L 280.964248 19.658415 
L 283.591158 21.028977 
L 286.74345 22.742179 
L 286.864692 22.810707 
L 289.895742 24.56198 
L 292.230773 25.962999 
L 293.048034 26.4645 
L 296.200326 28.470504 
L 297.178624 29.115291 
L 299.352618 30.581474 
L 301.769376 32.267584 
L 302.504911 32.792966 
L 305.657203 35.119657 
L 306.051239 35.419876 
L 308.809495 37.572661 
L 310.051307 38.572168 
L 311.961787 40.148314 
L 313.816077 41.72446 
L 315.114079 42.856052 
L 317.365717 44.876752 
L 318.266371 45.706303 
L 320.718154 48.029044 
L 321.418664 48.710621 
L 323.889379 51.181336 
L 324.570956 51.881846 
L 326.893697 54.333629 
L 327.723248 55.234283 
L 329.743948 57.485921 
L 330.87554 58.783923 
L 332.451686 60.638213 
L 334.027832 62.548693 
L 335.027339 63.790505 
L 337.180124 66.548761 
L 337.480343 66.942797 
L 339.807034 70.095089 
L 340.332416 70.830624 
L 342.018526 73.247382 
L 343.484709 75.421376 
L 344.129496 76.399674 
L 346.1355 79.551966 
L 346.637001 80.369227 
L 348.03802 82.704258 
L 349.789293 85.735308 
L 349.857821 85.85655 
L 351.571023 89.008842 
L 352.941585 91.635752 
L 353.209865 92.161134 
L 354.752476 95.313427 
L 356.093877 98.179147 
L 356.225223 98.465719 
L 357.604351 101.618011 
L 358.917806 104.770303 
L 359.246169 105.599854 
L 360.146824 107.922595 
L 361.304809 111.074887 
L 362.398462 114.227179 
" style="fill:none;stroke:#0090b7;stroke-width:1.5;"/>
   </g>
   <g id="LineCollection_11">
    <path clip-path="url(#p7cee605f1d)" d="M 132.812227 322.278462 
L 132.281134 322.029173 
L 129.128842 320.485193 
L 126.465155 319.126169 
L 125.97655 318.871687 
L 122.824258 317.164196 
L 120.708136 315.973877 
L 119.671966 315.378631 
L 116.519674 313.500669 
L 115.419089 312.821585 
L 113.367382 311.528117 
L 110.517184 309.669293 
L 110.215089 309.467896 
L 107.062797 307.296317 
L 105.966883 306.517001 
L 103.910505 305.021453 
L 101.701512 303.364709 
L 100.758213 302.640781 
L 97.687046 300.212416 
L 97.605921 300.146744 
L 94.453629 297.519834 
L 93.917301 297.060124 
L 91.301336 294.76318 
L 90.353519 293.907832 
L 88.149044 291.868693 
L 86.977304 290.75554 
L 84.996752 288.825771 
L 83.774229 287.603248 
L 81.84446 285.622696 
L 80.731307 284.450956 
L 78.692168 282.246481 
L 77.83682 281.298664 
L 75.539876 278.682699 
L 75.080166 278.146371 
L 72.453256 274.994079 
L 72.387584 274.912954 
L 69.959219 271.841787 
L 69.235291 270.898488 
L 67.578547 268.689495 
L 66.082999 266.633117 
L 65.303683 265.537203 
L 63.132104 262.384911 
L 62.930707 262.082816 
L 61.071883 259.232618 
L 59.778415 257.180911 
L 59.099331 256.080326 
L 57.221369 252.928034 
L 56.626123 251.891864 
L 55.435804 249.775742 
L 53.728313 246.62345 
L 53.473831 246.134845 
L 52.114807 243.471158 
L 50.570827 240.318866 
L 50.321538 239.787773 
" style="fill:none;stroke:#00a0af;stroke-width:1.5;"/>
    <path clip-path="url(#p7cee605f1d)" d="M 362.398462 239.787773 
L 362.149173 240.318866 
L 360.605193 243.471158 
L 359.246169 246.134845 
L 358.991687 246.62345 
L 357.284196 249.775742 
L 356.093877 251.891864 
L 355.498631 252.928034 
L 353.620669 256.080326 
L 352.941585 257.180911 
L 351.648117 259.232618 
L 349.789293 262.082816 
L 349.587896 262.384911 
L 347.416317 265.537203 
L 346.637001 266.633117 
L 345.141453 268.689495 
L 343.484709 270.898488 
L 342.760781 271.841787 
L 340.332416 274.912954 
L 340.266744 274.994079 
L 337.639834 278.146371 
L 337.180124 278.682699 
L 334.88318 281.298664 
L 334.027832 282.246481 
L 331.988693 284.450956 
L 330.87554 285.622696 
L 328.945771 287.603248 
L 327.723248 288.825771 
L 325.742696 290.75554 
L 324.570956 291.868693 
L 322.366481 293.907832 
L 321.418664 294.76318 
L 318.802699 297.060124 
L 318.266371 297.519834 
L 315.114079 300.146744 
L 315.032954 300.212416 
L 311.961787 302.640781 
L 311.018488 303.364709 
L 308.809495 305.021453 
L 306.753117 306.517001 
L 305.657203 307.296317 
L 302.504911 309.467896 
L 302.202816 309.669293 
L 299.352618 311.528117 
L 297.300911 312.821585 
L 296.200326 313.500669 
L 293.048034 315.378631 
L 292.011864 315.973877 
L 289.895742 317.164196 
L 286.74345 318.871687 
L 286.254845 319.126169 
L 283.591158 320.485193 
L 280.438866 322.029173 
L 279.907773 322.278462 
" style="fill:none;stroke:#00a0af;stroke-width:1.5;"/>
    <path clip-path="url(#p7cee605f1d)" d="M 50.321538 92.692227 
L 50.570827 92.161134 
L 52.114807 89.008842 
L 53.473831 86.345155 
L 53.728313 85.85655 
L 55.435804 82.704258 
L 56.626123 80.588136 
L 57.221369 79.551966 
L 59.099331 76.399674 
L 59.778415 75.299089 
L 61.071883 73.247382 
L 62.930707 70.397184 
L 63.132104 70.095089 
L 65.303683 66.942797 
L 66.082999 65.846883 
L 67.578547 63.790505 
L 69.235291 61.581512 
L 69.959219 60.638213 
L 72.387584 57.567046 
L 72.453256 57.485921 
L 75.080166 54.333629 
L 75.539876 53.797301 
L 77.83682 51.181336 
L 78.692168 50.233519 
L 80.731307 48.029044 
L 81.84446 46.857304 
L 83.774229 44.876752 
L 84.996752 43.654229 
L 86.977304 41.72446 
L 88.149044 40.611307 
L 90.353519 38.572168 
L 91.301336 37.71682 
L 93.917301 35.419876 
L 94.453629 34.960166 
L 97.605921 32.333256 
L 97.687046 32.267584 
L 100.758213 29.839219 
L 101.701512 29.115291 
L 103.910505 27.458547 
L 105.966883 25.962999 
L 107.062797 25.183683 
L 110.215089 23.012104 
L 110.517184 22.810707 
L 113.367382 20.951883 
L 115.419089 19.658415 
L 116.519674 18.979331 
L 119.671966 17.101369 
L 120.708136 16.506123 
L 122.824258 15.315804 
L 125.97655 13.608313 
L 126.465155 13.353831 
L 129.128842 11.994807 
L 132.281134 10.450827 
L 132.812227 10.201538 
" style="fill:none;stroke:#00a0af;stroke-width:1.5;"/>
    <path clip-path="url(#p7cee605f1d)" d="M 279.907773 10.201538 
L 280.438866 10.450827 
L 283.591158 11.994807 
L 286.254845 13.353831 
L 286.74345 13.608313 
L 289.895742 15.315804 
L 292.011864 16.506123 
L 293.048034 17.101369 
L 296.200326 18.979331 
L 297.300911 19.658415 
L 299.352618 20.951883 
L 302.202816 22.810707 
L 302.504911 23.012104 
L 305.657203 25.183683 
L 306.753117 25.962999 
L 308.809495 27.458547 
L 311.018488 29.115291 
L 311.961787 29.839219 
L 315.032954 32.267584 
L 315.114079 32.333256 
L 318.266371 34.960166 
L 318.802699 35.419876 
L 321.418664 37.71682 
L 322.366481 38.572168 
L 324.570956 40.611307 
L 325.742696 41.72446 
L 327.723248 43.654229 
L 328.945771 44.876752 
L 330.87554 46.857304 
L 331.988693 48.029044 
L 334.027832 50.233519 
L 334.88318 51.181336 
L 337.180124 53.797301 
L 337.639834 54.333629 
L 340.266744 57.485921 
L 340.332416 57.567046 
L 342.760781 60.638213 
L 343.484709 61.581512 
L 345.141453 63.790505 
L 346.637001 65.846883 
L 347.416317 66.942797 
L 349.587896 70.095089 
L 349.789293 70.397184 
L 351.648117 73.247382 
L 352.941585 75.299089 
L 353.620669 76.399674 
L 355.498631 79.551966 
L 356.093877 80.588136 
L 357.284196 82.704258 
L 358.991687 85.85655 
L 359.246169 86.345155 
L 360.605193 89.008842 
L 362.149173 92.161134 
L 362.398462 92.692227 
" style="fill:none;stroke:#00a0af;stroke-width:1.5;"/>
   </g>
   <g id="LineCollection_12">
    <path clip-path="url(#p7cee605f1d)" d="M 116.275099 322.278462 
L 113.367382 320.557567 
L 111.029431 319.126169 
L 110.215089 318.617206 
L 107.062797 316.58135 
L 106.151588 315.973877 
L 103.910505 314.448034 
L 101.594048 312.821585 
L 100.758213 312.221964 
L 97.605921 309.892009 
L 97.313208 309.669293 
L 94.453629 307.445176 
L 93.29341 306.517001 
L 91.301336 304.887122 
L 89.490898 303.364709 
L 88.149044 302.21009 
L 85.888519 300.212416 
L 84.996752 299.40558 
L 82.470877 297.060124 
L 81.84446 296.464264 
L 79.224117 293.907832 
L 78.692168 293.375883 
L 76.135736 290.75554 
L 75.539876 290.129123 
L 73.19442 287.603248 
L 72.387584 286.711481 
L 70.38991 284.450956 
L 69.235291 283.109102 
L 67.712878 281.298664 
L 66.082999 279.30659 
L 65.154824 278.146371 
L 62.930707 275.286792 
L 62.707991 274.994079 
L 60.378036 271.841787 
L 59.778415 271.005952 
L 58.151966 268.689495 
L 56.626123 266.448412 
L 56.01865 265.537203 
L 53.982794 262.384911 
L 53.473831 261.570569 
L 52.042433 259.232618 
L 50.321538 256.324901 
" style="fill:none;stroke:#00b0a7;stroke-width:1.5;"/>
    <path clip-path="url(#p7cee605f1d)" d="M 362.398462 256.324901 
L 360.677567 259.232618 
L 359.246169 261.570569 
L 358.737206 262.384911 
L 356.70135 265.537203 
L 356.093877 266.448412 
L 354.568034 268.689495 
L 352.941585 271.005952 
L 352.341964 271.841787 
L 350.012009 274.994079 
L 349.789293 275.286792 
L 347.565176 278.146371 
L 346.637001 279.30659 
L 345.007122 281.298664 
L 343.484709 283.109102 
L 342.33009 284.450956 
L 340.332416 286.711481 
L 339.52558 287.603248 
L 337.180124 290.129123 
L 336.584264 290.75554 
L 334.027832 293.375883 
L 333.495883 293.907832 
L 330.87554 296.464264 
L 330.249123 297.060124 
L 327.723248 299.40558 
L 326.831481 300.212416 
L 324.570956 302.21009 
L 323.229102 303.364709 
L 321.418664 304.887122 
L 319.42659 306.517001 
L 318.266371 307.445176 
L 315.406792 309.669293 
L 315.114079 309.892009 
L 311.961787 312.221964 
L 311.125952 312.821585 
L 308.809495 314.448034 
L 306.568412 315.973877 
L 305.657203 316.58135 
L 302.504911 318.617206 
L 301.690569 319.126169 
L 299.352618 320.557567 
L 296.444901 322.278462 
" style="fill:none;stroke:#00b0a7;stroke-width:1.5;"/>
    <path clip-path="url(#p7cee605f1d)" d="M 50.321538 76.155099 
L 52.042433 73.247382 
L 53.473831 70.909431 
L 53.982794 70.095089 
L 56.01865 66.942797 
L 56.626123 66.031588 
L 58.151966 63.790505 
L 59.778415 61.474048 
L 60.378036 60.638213 
L 62.707991 57.485921 
L 62.930707 57.193208 
L 65.154824 54.333629 
L 66.082999 53.17341 
L 67.712878 51.181336 
L 69.235291 49.370898 
L 70.38991 48.029044 
L 72.387584 45.768519 
L 73.19442 44.876752 
L 75.539876 42.350877 
L 76.135736 41.72446 
L 78.692168 39.104117 
L 79.224117 38.572168 
L 81.84446 36.015736 
L 82.470877 35.419876 
L 84.996752 33.07442 
L 85.888519 32.267584 
L 88.149044 30.26991 
L 89.490898 29.115291 
L 91.301336 27.592878 
L 93.29341 25.962999 
L 94.453629 25.034824 
L 97.313208 22.810707 
L 97.605921 22.587991 
L 100.758213 20.258036 
L 101.594048 19.658415 
L 103.910505 18.031966 
L 106.151588 16.506123 
L 107.062797 15.89865 
L 110.215089 13.862794 
L 111.029431 13.353831 
L 113.367382 11.922433 
L 116.275099 10.201538 
" style="fill:none;stroke:#00b0a7;stroke-width:1.5;"/>
    <path clip-path="url(#p7cee605f1d)" d="M 296.444901 10.201538 
L 299.352618 11.922433 
L 301.690569 13.353831 
L 302.504911 13.862794 
L 305.657203 15.89865 
L 306.568412 16.506123 
L 308.809495 18.031966 
L 311.125952 19.658415 
L 311.961787 20.258036 
L 315.114079 22.587991 
L 315.406792 22.810707 
L 318.266371 25.034824 
L 319.42659 25.962999 
L 321.418664 27.592878 
L 323.229102 29.115291 
L 324.570956 30.26991 
L 326.831481 32.267584 
L 327.723248 33.07442 
L 330.249123 35.419876 
L 330.87554 36.015736 
L 333.495883 38.572168 
L 334.027832 39.104117 
L 336.584264 41.72446 
L 337.180124 42.350877 
L 339.52558 44.876752 
L 340.332416 45.768519 
L 342.33009 48.029044 
L 343.484709 49.370898 
L 345.007122 51.181336 
L 346.637001 53.17341 
L 347.565176 54.333629 
L 349.789293 57.193208 
L 350.012009 57.485921 
L 352.341964 60.638213 
L 352.941585 61.474048 
L 354.568034 63.790505 
L 356.093877 66.031588 
L 356.70135 66.942797 
L 358.737206 70.095089 
L 359.246169 70.909431 
L 360.677567 73.247382 
L 362.398462 76.155099 
" style="fill:none;stroke:#00b0a7;stroke-width:1.5;"/>
   </g>
   <g id="LineCollection_13">
    <path clip-path="url(#p7cee605f1d)" d="M 102.346299 322.278462 
L 100.758213 321.208934 
L 97.756582 319.126169 
L 97.605921 319.019451 
L 94.453629 316.720905 
L 93.457592 315.973877 
L 91.301336 314.322277 
L 89.395052 312.821585 
L 88.149044 311.819362 
L 85.546329 309.669293 
L 84.996752 309.205205 
L 81.894977 306.517001 
L 81.84446 306.472224 
L 78.692168 303.606504 
L 78.43268 303.364709 
L 75.539876 300.606453 
L 75.136457 300.212416 
L 72.387584 297.463543 
L 71.993547 297.060124 
L 69.235291 294.16732 
L 68.993496 293.907832 
L 66.127776 290.75554 
L 66.082999 290.705023 
L 63.394795 287.603248 
L 62.930707 287.053671 
L 60.780638 284.450956 
L 59.778415 283.204948 
L 58.277723 281.298664 
L 56.626123 279.142408 
L 55.879095 278.146371 
L 53.580549 274.994079 
L 53.473831 274.843418 
L 51.391066 271.841787 
L 50.321538 270.253701 
" style="fill:none;stroke:#00c09f;stroke-width:1.5;"/>
    <path clip-path="url(#p7cee605f1d)" d="M 362.398462 270.253701 
L 361.328934 271.841787 
L 359.246169 274.843418 
L 359.139451 274.994079 
L 356.840905 278.146371 
L 356.093877 279.142408 
L 354.442277 281.298664 
L 352.941585 283.204948 
L 351.939362 284.450956 
L 349.789293 287.053671 
L 349.325205 287.603248 
L 346.637001 290.705023 
L 346.592224 290.75554 
L 343.726504 293.907832 
L 343.484709 294.16732 
L 340.726453 297.060124 
L 340.332416 297.463543 
L 337.583543 300.212416 
L 337.180124 300.606453 
L 334.28732 303.364709 
L 334.027832 303.606504 
L 330.87554 306.472224 
L 330.825023 306.517001 
L 327.723248 309.205205 
L 327.173671 309.669293 
L 324.570956 311.819362 
L 323.324948 312.821585 
L 321.418664 314.322277 
L 319.262408 315.973877 
L 318.266371 316.720905 
L 315.114079 319.019451 
L 314.963418 319.126169 
L 311.961787 321.208934 
L 310.373701 322.278462 
" style="fill:none;stroke:#00c09f;stroke-width:1.5;"/>
    <path clip-path="url(#p7cee605f1d)" d="M 50.321538 62.226299 
L 51.391066 60.638213 
L 53.473831 57.636582 
L 53.580549 57.485921 
L 55.879095 54.333629 
L 56.626123 53.337592 
L 58.277723 51.181336 
L 59.778415 49.275052 
L 60.780638 48.029044 
L 62.930707 45.426329 
L 63.394795 44.876752 
L 66.082999 41.774977 
L 66.127776 41.72446 
L 68.993496 38.572168 
L 69.235291 38.31268 
L 71.993547 35.419876 
L 72.387584 35.016457 
L 75.136457 32.267584 
L 75.539876 31.873547 
L 78.43268 29.115291 
L 78.692168 28.873496 
L 81.84446 26.007776 
L 81.894977 25.962999 
L 84.996752 23.274795 
L 85.546329 22.810707 
L 88.149044 20.660638 
L 89.395052 19.658415 
L 91.301336 18.157723 
L 93.457592 16.506123 
L 94.453629 15.759095 
L 97.605921 13.460549 
L 97.756582 13.353831 
L 100.758213 11.271066 
L 102.346299 10.201538 
" style="fill:none;stroke:#00c09f;stroke-width:1.5;"/>
    <path clip-path="url(#p7cee605f1d)" d="M 310.373701 10.201538 
L 311.961787 11.271066 
L 314.963418 13.353831 
L 315.114079 13.460549 
L 318.266371 15.759095 
L 319.262408 16.506123 
L 321.418664 18.157723 
L 323.324948 19.658415 
L 324.570956 20.660638 
L 327.173671 22.810707 
L 327.723248 23.274795 
L 330.825023 25.962999 
L 330.87554 26.007776 
L 334.027832 28.873496 
L 334.28732 29.115291 
L 337.180124 31.873547 
L 337.583543 32.267584 
L 340.332416 35.016457 
L 340.726453 35.419876 
L 343.484709 38.31268 
L 343.726504 38.572168 
L 346.592224 41.72446 
L 346.637001 41.774977 
L 349.325205 44.876752 
L 349.789293 45.426329 
L 351.939362 48.029044 
L 352.941585 49.275052 
L 354.442277 51.181336 
L 356.093877 53.337592 
L 356.840905 54.333629 
L 359.139451 57.485921 
L 359.246169 57.636582 
L 361.328934 60.638213 
L 362.398462 62.226299 
" style="fill:none;stroke:#00c09f;stroke-width:1.5;"/>
   </g>
   <g id="LineCollection_14">
    <path clip-path="url(#p7cee605f1d)" d="M 90.065979 322.278462 
L 88.149044 320.83098 
L 85.950735 319.126169 
L 84.996752 318.370933 
L 82.04653 315.973877 
L 81.84446 315.806202 
L 78.692168 313.1234 
L 78.346185 312.821585 
L 75.539876 310.32031 
L 74.826857 309.669293 
L 72.387584 307.392637 
L 71.47122 306.517001 
L 69.235291 304.331889 
L 68.268111 303.364709 
L 66.082999 301.12878 
L 65.207363 300.212416 
L 62.930707 297.773143 
L 62.27969 297.060124 
L 59.778415 294.253815 
L 59.4766 293.907832 
L 56.793798 290.75554 
L 56.626123 290.55347 
L 54.229067 287.603248 
L 53.473831 286.649265 
L 51.76902 284.450956 
L 50.321538 282.534021 
" style="fill:none;stroke:#00d097;stroke-width:1.5;"/>
    <path clip-path="url(#p7cee605f1d)" d="M 362.398462 282.534021 
L 360.95098 284.450956 
L 359.246169 286.649265 
L 358.490933 287.603248 
L 356.093877 290.55347 
L 355.926202 290.75554 
L 353.2434 293.907832 
L 352.941585 294.253815 
L 350.44031 297.060124 
L 349.789293 297.773143 
L 347.512637 300.212416 
L 346.637001 301.12878 
L 344.451889 303.364709 
L 343.484709 304.331889 
L 341.24878 306.517001 
L 340.332416 307.392637 
L 337.893143 309.669293 
L 337.180124 310.32031 
L 334.373815 312.821585 
L 334.027832 313.1234 
L 330.87554 315.806202 
L 330.67347 315.973877 
L 327.723248 318.370933 
L 326.769265 319.126169 
L 324.570956 320.83098 
L 322.654021 322.278462 
" style="fill:none;stroke:#00d097;stroke-width:1.5;"/>
    <path clip-path="url(#p7cee605f1d)" d="M 50.321538 49.945979 
L 51.76902 48.029044 
L 53.473831 45.830735 
L 54.229067 44.876752 
L 56.626123 41.92653 
L 56.793798 41.72446 
L 59.4766 38.572168 
L 59.778415 38.226185 
L 62.27969 35.419876 
L 62.930707 34.706857 
L 65.207363 32.267584 
L 66.082999 31.35122 
L 68.268111 29.115291 
L 69.235291 28.148111 
L 71.47122 25.962999 
L 72.387584 25.087363 
L 74.826857 22.810707 
L 75.539876 22.15969 
L 78.346185 19.658415 
L 78.692168 19.3566 
L 81.84446 16.673798 
L 82.04653 16.506123 
L 84.996752 14.109067 
L 85.950735 13.353831 
L 88.149044 11.64902 
L 90.065979 10.201538 
" style="fill:none;stroke:#00d097;stroke-width:1.5;"/>
    <path clip-path="url(#p7cee605f1d)" d="M 322.654021 10.201538 
L 324.570956 11.64902 
L 326.769265 13.353831 
L 327.723248 14.109067 
L 330.67347 16.506123 
L 330.87554 16.673798 
L 334.027832 19.3566 
L 334.373815 19.658415 
L 337.180124 22.15969 
L 337.893143 22.810707 
L 340.332416 25.087363 
L 341.24878 25.962999 
L 343.484709 28.148111 
L 344.451889 29.115291 
L 346.637001 31.35122 
L 347.512637 32.267584 
L 349.789293 34.706857 
L 350.44031 35.419876 
L 352.941585 38.226185 
L 353.2434 38.572168 
L 355.926202 41.72446 
L 356.093877 41.92653 
L 358.490933 44.876752 
L 359.246169 45.830735 
L 360.95098 48.029044 
L 362.398462 49.945979 
" style="fill:none;stroke:#00d097;stroke-width:1.5;"/>
   </g>
   <g id="LineCollection_15">
    <path clip-path="url(#p7cee605f1d)" d="M 78.958142 322.278462 
L 78.692168 322.061339 
L 75.539876 319.423707 
L 75.192748 319.126169 
L 72.387584 316.67165 
L 71.608674 315.973877 
L 69.235291 313.802485 
L 68.187512 312.821585 
L 66.082999 310.808572 
L 64.918402 309.669293 
L 62.930707 307.681598 
L 61.791428 306.517001 
L 59.778415 304.412488 
L 58.797515 303.364709 
L 56.626123 300.991326 
L 55.92835 300.212416 
L 53.473831 297.407252 
L 53.176293 297.060124 
L 50.538661 293.907832 
L 50.321538 293.641858 
" style="fill:none;stroke:#00e08f;stroke-width:1.5;"/>
    <path clip-path="url(#p7cee605f1d)" d="M 362.398462 293.641858 
L 362.181339 293.907832 
L 359.543707 297.060124 
L 359.246169 297.407252 
L 356.79165 300.212416 
L 356.093877 300.991326 
L 353.922485 303.364709 
L 352.941585 304.412488 
L 350.928572 306.517001 
L 349.789293 307.681598 
L 347.801598 309.669293 
L 346.637001 310.808572 
L 344.532488 312.821585 
L 343.484709 313.802485 
L 341.111326 315.973877 
L 340.332416 316.67165 
L 337.527252 319.126169 
L 337.180124 319.423707 
L 334.027832 322.061339 
L 333.761858 322.278462 
" style="fill:none;stroke:#00e08f;stroke-width:1.5;"/>
    <path clip-path="url(#p7cee605f1d)" d="M 50.321538 38.838142 
L 50.538661 38.572168 
L 53.176293 35.419876 
L 53.473831 35.072748 
L 55.92835 32.267584 
L 56.626123 31.488674 
L 58.797515 29.115291 
L 59.778415 28.067512 
L 61.791428 25.962999 
L 62.930707 24.798402 
L 64.918402 22.810707 
L 66.082999 21.671428 
L 68.187512 19.658415 
L 69.235291 18.677515 
L 71.608674 16.506123 
L 72.387584 15.80835 
L 75.192748 13.353831 
L 75.539876 13.056293 
L 78.692168 10.418661 
L 78.958142 10.201538 
" style="fill:none;stroke:#00e08f;stroke-width:1.5;"/>
    <path clip-path="url(#p7cee605f1d)" d="M 333.761858 10.201538 
L 334.027832 10.418661 
L 337.180124 13.056293 
L 337.527252 13.353831 
L 340.332416 15.80835 
L 341.111326 16.506123 
L 343.484709 18.677515 
L 344.532488 19.658415 
L 346.637001 21.671428 
L 347.801598 22.810707 
L 349.789293 24.798402 
L 350.928572 25.962999 
L 352.941585 28.067512 
L 353.922485 29.115291 
L 356.093877 31.488674 
L 356.79165 32.267584 
L 359.246169 35.072748 
L 359.543707 35.419876 
L 362.181339 38.572168 
L 362.398462 38.838142 
" style="fill:none;stroke:#00e08f;stroke-width:1.5;"/>
   </g>
   <g id="LineCollection_16">
    <path clip-path="url(#p7cee605f1d)" d="M 68.751701 322.278462 
L 66.082999 319.882076 
L 65.259901 319.126169 
L 62.930707 316.94255 
L 61.919918 315.973877 
L 59.778415 313.877938 
L 58.722062 312.821585 
L 56.626123 310.680082 
L 55.65745 309.669293 
L 53.473831 307.340099 
L 52.717924 306.517001 
L 50.321538 303.848299 
" style="fill:none;stroke:#00f087;stroke-width:1.5;"/>
    <path clip-path="url(#p7cee605f1d)" d="M 362.398462 303.848299 
L 360.002076 306.517001 
L 359.246169 307.340099 
L 357.06255 309.669293 
L 356.093877 310.680082 
L 353.997938 312.821585 
L 352.941585 313.877938 
L 350.800082 315.973877 
L 349.789293 316.94255 
L 347.460099 319.126169 
L 346.637001 319.882076 
L 343.968299 322.278462 
" style="fill:none;stroke:#00f087;stroke-width:1.5;"/>
    <path clip-path="url(#p7cee605f1d)" d="M 50.321538 28.631701 
L 52.717924 25.962999 
L 53.473831 25.139901 
L 55.65745 22.810707 
L 56.626123 21.799918 
L 58.722062 19.658415 
L 59.778415 18.602062 
L 61.919918 16.506123 
L 62.930707 15.53745 
L 65.259901 13.353831 
L 66.082999 12.597924 
L 68.751701 10.201538 
" style="fill:none;stroke:#00f087;stroke-width:1.5;"/>
    <path clip-path="url(#p7cee605f1d)" d="M 343.968299 10.201538 
L 346.637001 12.597924 
L 347.460099 13.353831 
L 349.789293 15.53745 
L 350.800082 16.506123 
L 352.941585 18.602062 
L 353.997938 19.658415 
L 356.093877 21.799918 
L 357.06255 22.810707 
L 359.246169 25.139901 
L 360.002076 25.962999 
L 362.398462 28.631701 
" style="fill:none;stroke:#00f087;stroke-width:1.5;"/>
   </g>
   <g id="LineCollection_17">
    <path clip-path="url(#p7cee605f1d)" d="M 59.250238 322.278462 
L 56.626123 319.761453 
L 55.977604 319.126169 
L 53.473831 316.622396 
L 52.838547 315.973877 
L 50.321538 313.349762 
" style="fill:none;stroke:#00ff80;stroke-width:1.5;"/>
    <path clip-path="url(#p7cee605f1d)" d="M 362.398462 313.349762 
L 359.881453 315.973877 
L 359.246169 316.622396 
L 356.742396 319.126169 
L 356.093877 319.761453 
L 353.469762 322.278462 
" style="fill:none;stroke:#00ff80;stroke-width:1.5;"/>
    <path clip-path="url(#p7cee605f1d)" d="M 50.321538 19.130238 
L 52.838547 16.506123 
L 53.473831 15.857604 
L 55.977604 13.353831 
L 56.626123 12.718547 
L 59.250238 10.201538 
" style="fill:none;stroke:#00ff80;stroke-width:1.5;"/>
    <path clip-path="url(#p7cee605f1d)" d="M 353.469762 10.201538 
L 356.093877 12.718547 
L 356.742396 13.353831 
L 359.246169 15.857604 
L 359.881453 16.506123 
L 362.398462 19.130238 
" style="fill:none;stroke:#00ff80;stroke-width:1.5;"/>
   </g>
   <g id="patch_3">
    <path d="M 44.08 328.52 
L 44.08 3.96 
" style="fill:none;stroke:#000000;stroke-linecap:square;stroke-linejoin:miter;stroke-width:0.8;"/>
   </g>
   <g id="patch_4">
    <path d="M 368.64 328.52 
L 368.64 3.96 
" style="fill:none;stroke:#000000;stroke-linecap:square;stroke-linejoin:miter;stroke-width:0.8;"/>
   </g>
   <g id="patch_5">
    <path d="M 44.08 328.52 
L 368.64 328.52 
" style="fill:none;stroke:#000000;stroke-linecap:square;stroke-linejoin:miter;stroke-width:0.8;"/>
   </g>
   <g id="patch_6">
    <path d="M 44.08 3.96 
L 368.64 3.96 
" style="fill:none;stroke:#000000;stroke-linecap:square;stroke-linejoin:miter;stroke-width:0.8;"/>
   </g>
  </g>
  <g id="axes_2">
   <g id="patch_7">
    <path clip-path="url(#paf2a64599f)" d="M 391.68 328.52 
L 391.68 308.235 
L 391.68 24.245 
L 391.68 3.96 
L 407.908 3.96 
L 407.908 24.245 
L 407.908 308.235 
L 407.908 328.52 
z
" style="fill:#ffffff;stroke:#ffffff;stroke-linejoin:miter;stroke-width:0.01;"/>
   </g>
   <g id="matplotlib.axis_3"/>
   <g id="matplotlib.axis_4">
    <g id="ytick_32">
     <g id="line2d_63">
      <defs>
       <path d="M 0 0 
L 3.5 0 
" id="m12d97e7cab" style="stroke:#000000;stroke-width:0.8;"/>
      </defs>
      <g>
       <use style="stroke:#000000;stroke-width:0.8;" x="407.908" xlink:href="#m12d97e7cab" y="328.52"/>
      </g>
     </g>
     <g id="text_15">
      <!-- 1 -->
      <g transform="translate(414.908 332.319219)scale(0.1 -0.1)">
       <use xlink:href="#DejaVuSans-31"/>
      </g>
     </g>
    </g>
    <g id="ytick_33">
     <g id="line2d_64">
      <g>
       <use style="stroke:#000000;stroke-width:0.8;" x="407.908" xlink:href="#m12d97e7cab" y="287.95"/>
      </g>
     </g>
     <g id="text_16">
      <!-- 3 -->
      <g transform="translate(414.908 291.749219)scale(0.1 -0.1)">
       <use xlink:href="#DejaVuSans-33"/>
      </g>
     </g>
    </g>
    <g id="ytick_34">
     <g id="line2d_65">
      <g>
       <use style="stroke:#000000;stroke-width:0.8;" x="407.908" xlink:href="#m12d97e7cab" y="247.38"/>
      </g>
     </g>
     <g id="text_17">
      <!-- 5 -->
      <defs>
       <path d="M 10.796875 72.90625 
L 49.515625 72.90625 
L 49.515625 64.59375 
L 19.828125 64.59375 
L 19.828125 46.734375 
Q 21.96875 47.46875 24.109375 47.828125 
Q 26.265625 48.1875 28.421875 48.1875 
Q 40.625 48.1875 47.75 41.5 
Q 54.890625 34.8125 54.890625 23.390625 
Q 54.890625 11.625 47.5625 5.09375 
Q 40.234375 -1.421875 26.90625 -1.421875 
Q 22.3125 -1.421875 17.546875 -0.640625 
Q 12.796875 0.140625 7.71875 1.703125 
L 7.71875 11.625 
Q 12.109375 9.234375 16.796875 8.0625 
Q 21.484375 6.890625 26.703125 6.890625 
Q 35.15625 6.890625 40.078125 11.328125 
Q 45.015625 15.765625 45.015625 23.390625 
Q 45.015625 31 40.078125 35.4375 
Q 35.15625 39.890625 26.703125 39.890625 
Q 22.75 39.890625 18.8125 39.015625 
Q 14.890625 38.140625 10.796875 36.28125 
z
" id="DejaVuSans-35"/>
      </defs>
      <g transform="translate(414.908 251.179219)scale(0.1 -0.1)">
       <use xlink:href="#DejaVuSans-35"/>
      </g>
     </g>
    </g>
    <g id="ytick_35">
     <g id="line2d_66">
      <g>
       <use style="stroke:#000000;stroke-width:0.8;" x="407.908" xlink:href="#m12d97e7cab" y="206.81"/>
      </g>
     </g>
     <g id="text_18">
      <!-- 7 -->
      <defs>
       <path d="M 8.203125 72.90625 
L 55.078125 72.90625 
L 55.078125 68.703125 
L 28.609375 0 
L 18.3125 0 
L 43.21875 64.59375 
L 8.203125 64.59375 
z
" id="DejaVuSans-37"/>
      </defs>
      <g transform="translate(414.908 210.609219)scale(0.1 -0.1)">
       <use xlink:href="#DejaVuSans-37"/>
      </g>
     </g>
    </g>
    <g id="ytick_36">
     <g id="line2d_67">
      <g>
       <use style="stroke:#000000;stroke-width:0.8;" x="407.908" xlink:href="#m12d97e7cab" y="166.24"/>
      </g>
     </g>
     <g id="text_19">
      <!-- 9 -->
      <defs>
       <path d="M 10.984375 1.515625 
L 10.984375 10.5 
Q 14.703125 8.734375 18.5 7.8125 
Q 22.3125 6.890625 25.984375 6.890625 
Q 35.75 6.890625 40.890625 13.453125 
Q 46.046875 20.015625 46.78125 33.40625 
Q 43.953125 29.203125 39.59375 26.953125 
Q 35.25 24.703125 29.984375 24.703125 
Q 19.046875 24.703125 12.671875 31.3125 
Q 6.296875 37.9375 6.296875 49.421875 
Q 6.296875 60.640625 12.9375 67.421875 
Q 19.578125 74.21875 30.609375 74.21875 
Q 43.265625 74.21875 49.921875 64.515625 
Q 56.59375 54.828125 56.59375 36.375 
Q 56.59375 19.140625 48.40625 8.859375 
Q 40.234375 -1.421875 26.421875 -1.421875 
Q 22.703125 -1.421875 18.890625 -0.6875 
Q 15.09375 0.046875 10.984375 1.515625 
z
M 30.609375 32.421875 
Q 37.25 32.421875 41.125 36.953125 
Q 45.015625 41.5 45.015625 49.421875 
Q 45.015625 57.28125 41.125 61.84375 
Q 37.25 66.40625 30.609375 66.40625 
Q 23.96875 66.40625 20.09375 61.84375 
Q 16.21875 57.28125 16.21875 49.421875 
Q 16.21875 41.5 20.09375 36.953125 
Q 23.96875 32.421875 30.609375 32.421875 
z
" id="DejaVuSans-39"/>
      </defs>
      <g transform="translate(414.908 170.039219)scale(0.1 -0.1)">
       <use xlink:href="#DejaVuSans-39"/>
      </g>
     </g>
    </g>
    <g id="ytick_37">
     <g id="line2d_68">
      <g>
       <use style="stroke:#000000;stroke-width:0.8;" x="407.908" xlink:href="#m12d97e7cab" y="125.67"/>
      </g>
     </g>
     <g id="text_20">
      <!-- 11 -->
      <g transform="translate(414.908 129.469219)scale(0.1 -0.1)">
       <use xlink:href="#DejaVuSans-31"/>
       <use x="63.623047" xlink:href="#DejaVuSans-31"/>
      </g>
     </g>
    </g>
    <g id="ytick_38">
     <g id="line2d_69">
      <g>
       <use style="stroke:#000000;stroke-width:0.8;" x="407.908" xlink:href="#m12d97e7cab" y="85.1"/>
      </g>
     </g>
     <g id="text_21">
      <!-- 13 -->
      <g transform="translate(414.908 88.899219)scale(0.1 -0.1)">
       <use xlink:href="#DejaVuSans-31"/>
       <use x="63.623047" xlink:href="#DejaVuSans-33"/>
      </g>
     </g>
    </g>
    <g id="ytick_39">
     <g id="line2d_70">
      <g>
       <use style="stroke:#000000;stroke-width:0.8;" x="407.908" xlink:href="#m12d97e7cab" y="44.53"/>
      </g>
     </g>
     <g id="text_22">
      <!-- 15 -->
      <g transform="translate(414.908 48.329219)scale(0.1 -0.1)">
       <use xlink:href="#DejaVuSans-31"/>
       <use x="63.623047" xlink:href="#DejaVuSans-35"/>
      </g>
     </g>
    </g>
    <g id="ytick_40">
     <g id="line2d_71">
      <g>
       <use style="stroke:#000000;stroke-width:0.8;" x="407.908" xlink:href="#m12d97e7cab" y="3.96"/>
      </g>
     </g>
     <g id="text_23">
      <!-- 17 -->
      <g transform="translate(414.908 7.759219)scale(0.1 -0.1)">
       <use xlink:href="#DejaVuSans-31"/>
       <use x="63.623047" xlink:href="#DejaVuSans-37"/>
      </g>
     </g>
    </g>
   </g>
   <g id="LineCollection_18">
    <path clip-path="url(#paf2a64599f)" d="M 391.68 328.52 
L 407.908 328.52 
" style="fill:none;stroke:#0000ff;stroke-width:1.5;"/>
    <path clip-path="url(#paf2a64599f)" d="M 391.68 308.235 
L 407.908 308.235 
" style="fill:none;stroke:#0010f7;stroke-width:1.5;"/>
    <path clip-path="url(#paf2a64599f)" d="M 391.68 287.95 
L 407.908 287.95 
" style="fill:none;stroke:#0020ef;stroke-width:1.5;"/>
    <path clip-path="url(#paf2a64599f)" d="M 391.68 267.665 
L 407.908 267.665 
" style="fill:none;stroke:#0030e7;stroke-width:1.5;"/>
    <path clip-path="url(#paf2a64599f)" d="M 391.68 247.38 
L 407.908 247.38 
" style="fill:none;stroke:#0040df;stroke-width:1.5;"/>
    <path clip-path="url(#paf2a64599f)" d="M 391.68 227.095 
L 407.908 227.095 
" style="fill:none;stroke:#0050d7;stroke-width:1.5;"/>
    <path clip-path="url(#paf2a64599f)" d="M 391.68 206.81 
L 407.908 206.81 
" style="fill:none;stroke:#0060cf;stroke-width:1.5;"/>
    <path clip-path="url(#paf2a64599f)" d="M 391.68 186.525 
L 407.908 186.525 
" style="fill:none;stroke:#0070c7;stroke-width:1.5;"/>
    <path clip-path="url(#paf2a64599f)" d="M 391.68 166.24 
L 407.908 166.24 
" style="fill:none;stroke:#0080bf;stroke-width:1.5;"/>
    <path clip-path="url(#paf2a64599f)" d="M 391.68 145.955 
L 407.908 145.955 
" style="fill:none;stroke:#0090b7;stroke-width:1.5;"/>
    <path clip-path="url(#paf2a64599f)" d="M 391.68 125.67 
L 407.908 125.67 
" style="fill:none;stroke:#00a0af;stroke-width:1.5;"/>
    <path clip-path="url(#paf2a64599f)" d="M 391.68 105.385 
L 407.908 105.385 
" style="fill:none;stroke:#00b0a7;stroke-width:1.5;"/>
    <path clip-path="url(#paf2a64599f)" d="M 391.68 85.1 
L 407.908 85.1 
" style="fill:none;stroke:#00c09f;stroke-width:1.5;"/>
    <path clip-path="url(#paf2a64599f)" d="M 391.68 64.815 
L 407.908 64.815 
" style="fill:none;stroke:#00d097;stroke-width:1.5;"/>
    <path clip-path="url(#paf2a64599f)" d="M 391.68 44.53 
L 407.908 44.53 
" style="fill:none;stroke:#00e08f;stroke-width:1.5;"/>
    <path clip-path="url(#paf2a64599f)" d="M 391.68 24.245 
L 407.908 24.245 
" style="fill:none;stroke:#00f087;stroke-width:1.5;"/>
    <path clip-path="url(#paf2a64599f)" d="M 391.68 3.96 
L 407.908 3.96 
" style="fill:none;stroke:#00ff80;stroke-width:1.5;"/>
   </g>
   <g id="patch_8">
    <path d="M 391.68 328.52 
L 391.68 308.235 
L 391.68 24.245 
L 391.68 3.96 
L 407.908 3.96 
L 407.908 24.245 
L 407.908 308.235 
L 407.908 328.52 
z
" style="fill:none;stroke:#000000;stroke-linejoin:miter;stroke-width:0.8;"/>
   </g>
  </g>
 </g>
 <defs>
  <clipPath id="p7cee605f1d">
   <rect height="324.56" width="324.56" x="44.08" y="3.96"/>
  </clipPath>
  <clipPath id="paf2a64599f">
   <rect height="324.56" width="16.228" x="391.68" y="3.96"/>
  </clipPath>
 </defs>
</svg>
