<?xml version="1.0" encoding="utf-8" standalone="no"?>
<!DOCTYPE svg PUBLIC "-//W3C//DTD SVG 1.1//EN"
  "http://www.w3.org/Graphics/SVG/1.1/DTD/svg11.dtd">
<svg xmlns:xlink="http://www.w3.org/1999/xlink" width="460.8pt" height="345.6pt" viewBox="0 0 460.8 345.6" xmlns="http://www.w3.org/2000/svg" version="1.1">
 <metadata>
  <rdf:RDF xmlns:dc="http://purl.org/dc/elements/1.1/" xmlns:cc="http://creativecommons.org/ns#" xmlns:rdf="http://www.w3.org/1999/02/22-rdf-syntax-ns#">
   <cc:Work>
    <dc:type rdf:resource="http://purl.org/dc/dcmitype/StillImage"/>
    <dc:date>2023-12-06T18:09:57.888348</dc:date>
    <dc:format>image/svg+xml</dc:format>
    <dc:creator>
     <cc:Agent>
      <dc:title>Matplotlib v3.8.0, https://matplotlib.org/</dc:title>
     </cc:Agent>
    </dc:creator>
   </cc:Work>
  </rdf:RDF>
 </metadata>
 <defs>
  <style type="text/css">*{stroke-linejoin: round; stroke-linecap: butt}</style>
 </defs>
 <g id="figure_1">
  <g id="patch_1">
   <path d="M 0 345.6 
L 460.8 345.6 
L 460.8 0 
L 0 0 
z
" style="fill: #ffffff"/>
  </g>
  <g id="axes_1">
   <g id="patch_2">
    <path d="M 0 236.115682 
L 460.8 236.115682 
L 460.8 109.484318 
L 0 109.484318 
z
" style="fill: #ffffff"/>
   </g>
   <g id="patch_3">
    <path d="M 39.684079 184.27098 
Q 135.213571 203.240232 223.128689 166.824762 
" clip-path="url(#p7ae0c864ad)" style="fill: none; stroke: #7fff00; stroke-width: 2; stroke-linecap: round"/>
    <path d="M 211.976478 166.032181 
L 223.128689 166.824762 
L 215.803297 175.270983 
z
" clip-path="url(#p7ae0c864ad)" style="fill: #7fff00; stroke: #7fff00; stroke-width: 2; stroke-linecap: round"/>
   </g>
   <g id="patch_4">
    <path d="M 39.226306 179.63094 
Q 129.207283 142.359768 222.543529 160.893508 
" clip-path="url(#p7ae0c864ad)" style="fill: none; stroke: #7fff00; stroke-width: 2; stroke-linecap: round"/>
    <path d="M 213.708867 154.041591 
L 222.543529 160.893508 
L 211.761199 163.850087 
z
" clip-path="url(#p7ae0c864ad)" style="fill: #7fff00; stroke: #7fff00; stroke-width: 2; stroke-linecap: round"/>
   </g>
   <g id="patch_5">
    <path d="M 39.049426 186.177347 
Q 138.216715 233.680463 224.400504 169.056117 
" clip-path="url(#p7ae0c864ad)" style="fill: none; stroke: #00ff3f; stroke-width: 2; stroke-linecap: round"/>
    <path d="M 213.400303 171.055014 
L 224.400504 169.056117 
L 219.399502 179.055616 
z
" clip-path="url(#p7ae0c864ad)" style="fill: #00ff3f; stroke: #00ff3f; stroke-width: 2; stroke-linecap: round"/>
   </g>
   <g id="patch_6">
    <path d="M 38.231362 177.885345 
Q 126.204138 111.919537 223.354791 158.456643 
" clip-path="url(#p7ae0c864ad)" style="fill: none; stroke: #00ffff; stroke-width: 2; stroke-linecap: round"/>
    <path d="M 216.496178 149.627179 
L 223.354791 158.456643 
L 212.176052 158.645855 
z
" clip-path="url(#p7ae0c864ad)" style="fill: #00ffff; stroke: #00ffff; stroke-width: 2; stroke-linecap: round"/>
   </g>
   <g id="matplotlib.axis_1"/>
   <g id="matplotlib.axis_2"/>
   <g id="patch_7">
    <path d="M 242.841745 161.901788 
Q 334.63138 152.992893 428.646625 143.867985 
" clip-path="url(#p7ae0c864ad)" style="fill: none; stroke: #7f00ff; stroke-width: 2; stroke-linecap: round"/>
    <path d="M 253.277993 165.912365 
L 242.841745 161.901788 
L 252.311955 155.959136 
z
" clip-path="url(#p7ae0c864ad)" style="fill: #7f00ff; stroke: #7f00ff; stroke-width: 2; stroke-linecap: round"/>
   </g>
   <g id="patch_8">
    <path d="M 39.799139 181.917027 
Q 132.210427 172.8 222.396451 163.902511 
" clip-path="url(#p7ae0c864ad)" style="fill: none; stroke: #003fff; stroke-width: 2; stroke-linecap: round"/>
    <path d="M 211.953862 159.908472 
L 222.396451 163.902511 
L 212.935666 169.860158 
z
" clip-path="url(#p7ae0c864ad)" style="fill: #003fff; stroke: #003fff; stroke-width: 2; stroke-linecap: round"/>
   </g>
   <g id="text_1">
    <g id="patch_9">
     <path d="M 24.62833 222.133024 
L 38.976768 222.133024 
L 38.976768 204.454899 
L 24.62833 204.454899 
z
" style="fill: #ffffff; stroke: #ffffff; stroke-linejoin: miter"/>
    </g>
    <!-- b -->
    <g style="fill: #0000ff" transform="translate(28.62833 216.053336) scale(0.1 -0.1)">
     <defs>
      <path id="DejaVuSans-62" d="M 3116 1747 
Q 3116 2381 2855 2742 
Q 2594 3103 2138 3103 
Q 1681 3103 1420 2742 
Q 1159 2381 1159 1747 
Q 1159 1113 1420 752 
Q 1681 391 2138 391 
Q 2594 391 2855 752 
Q 3116 1113 3116 1747 
z
M 1159 2969 
Q 1341 3281 1617 3432 
Q 1894 3584 2278 3584 
Q 2916 3584 3314 3078 
Q 3713 2572 3713 1747 
Q 3713 922 3314 415 
Q 2916 -91 2278 -91 
Q 1894 -91 1617 61 
Q 1341 213 1159 525 
L 1159 0 
L 581 0 
L 581 4863 
L 1159 4863 
L 1159 2969 
z
" transform="scale(0.015625)"/>
     </defs>
     <use xlink:href="#DejaVuSans-62"/>
    </g>
   </g>
   <g id="text_2">
    <g id="patch_10">
     <path d="M 24.738486 237.427031 
L 38.866611 237.427031 
L 38.866611 219.748906 
L 24.738486 219.748906 
z
" style="fill: #ffffff; stroke: #ffffff; stroke-linejoin: miter"/>
    </g>
    <!-- a -->
    <g style="fill: #0000ff" transform="translate(28.738486 231.347343) scale(0.1 -0.1)">
     <defs>
      <path id="DejaVuSans-61" d="M 2194 1759 
Q 1497 1759 1228 1600 
Q 959 1441 959 1056 
Q 959 750 1161 570 
Q 1363 391 1709 391 
Q 2188 391 2477 730 
Q 2766 1069 2766 1631 
L 2766 1759 
L 2194 1759 
z
M 3341 1997 
L 3341 0 
L 2766 0 
L 2766 531 
Q 2569 213 2275 61 
Q 1981 -91 1556 -91 
Q 1019 -91 701 211 
Q 384 513 384 1019 
Q 384 1609 779 1909 
Q 1175 2209 1959 2209 
L 2766 2209 
L 2766 2266 
Q 2766 2663 2505 2880 
Q 2244 3097 1772 3097 
Q 1472 3097 1187 3025 
Q 903 2953 641 2809 
L 641 3341 
Q 956 3463 1253 3523 
Q 1550 3584 1831 3584 
Q 2591 3584 2966 3190 
Q 3341 2797 3341 1997 
z
" transform="scale(0.015625)"/>
     </defs>
     <use xlink:href="#DejaVuSans-61"/>
    </g>
   </g>
   <g id="text_3">
    <g id="patch_11">
     <path d="M 127.951843 196.859178 
L 139.472155 196.859178 
L 139.472155 179.181053 
L 127.951843 179.181053 
z
" style="fill: #ffffff; stroke: #ffffff; stroke-linejoin: miter"/>
    </g>
    <!-- f -->
    <g style="fill: #0000ff" transform="translate(131.951843 190.779491) scale(0.1 -0.1)">
     <defs>
      <path id="DejaVuSans-66" d="M 2375 4863 
L 2375 4384 
L 1825 4384 
Q 1516 4384 1395 4259 
Q 1275 4134 1275 3809 
L 1275 3500 
L 2222 3500 
L 2222 3053 
L 1275 3053 
L 1275 0 
L 697 0 
L 697 3053 
L 147 3053 
L 147 3500 
L 697 3500 
L 697 3744 
Q 697 4328 969 4595 
Q 1241 4863 1831 4863 
L 2375 4863 
z
" transform="scale(0.015625)"/>
     </defs>
     <use xlink:href="#DejaVuSans-66"/>
    </g>
   </g>
   <g id="text_4">
    <g id="patch_12">
     <path d="M 124.948699 166.418947 
L 136.469011 166.418947 
L 136.469011 148.740822 
L 124.948699 148.740822 
z
" style="fill: #ffffff; stroke: #ffffff; stroke-linejoin: miter"/>
    </g>
    <!-- f -->
    <g style="fill: #0000ff" transform="translate(128.948699 160.339259) scale(0.1 -0.1)">
     <use xlink:href="#DejaVuSans-66"/>
    </g>
   </g>
   <g id="text_5">
    <g id="patch_13">
     <path d="M 128.137009 212.079294 
L 142.290134 212.079294 
L 142.290134 194.401169 
L 128.137009 194.401169 
z
" style="fill: #ffffff; stroke: #ffffff; stroke-linejoin: miter"/>
    </g>
    <!-- e -->
    <g style="fill: #0000ff" transform="translate(132.137009 205.999607) scale(0.1 -0.1)">
     <defs>
      <path id="DejaVuSans-65" d="M 3597 1894 
L 3597 1613 
L 953 1613 
Q 991 1019 1311 708 
Q 1631 397 2203 397 
Q 2534 397 2845 478 
Q 3156 559 3463 722 
L 3463 178 
Q 3153 47 2828 -22 
Q 2503 -91 2169 -91 
Q 1331 -91 842 396 
Q 353 884 353 1716 
Q 353 2575 817 3079 
Q 1281 3584 2069 3584 
Q 2775 3584 3186 3129 
Q 3597 2675 3597 1894 
z
M 3022 2063 
Q 3016 2534 2758 2815 
Q 2500 3097 2075 3097 
Q 1594 3097 1305 2825 
Q 1016 2553 972 2059 
L 3022 2063 
z
" transform="scale(0.015625)"/>
     </defs>
     <use xlink:href="#DejaVuSans-65"/>
    </g>
   </g>
   <g id="text_6">
    <g id="patch_14">
     <path d="M 122.033064 151.198831 
L 136.381501 151.198831 
L 136.381501 133.520706 
L 122.033064 133.520706 
z
" style="fill: #ffffff; stroke: #ffffff; stroke-linejoin: miter"/>
    </g>
    <!-- d -->
    <g style="fill: #0000ff" transform="translate(126.033064 145.119143) scale(0.1 -0.1)">
     <defs>
      <path id="DejaVuSans-64" d="M 2906 2969 
L 2906 4863 
L 3481 4863 
L 3481 0 
L 2906 0 
L 2906 525 
Q 2725 213 2448 61 
Q 2172 -91 1784 -91 
Q 1150 -91 751 415 
Q 353 922 353 1747 
Q 353 2572 751 3078 
Q 1150 3584 1784 3584 
Q 2172 3584 2448 3432 
Q 2725 3281 2906 2969 
z
M 947 1747 
Q 947 1113 1208 752 
Q 1469 391 1925 391 
Q 2381 391 2643 752 
Q 2906 1113 2906 1747 
Q 2906 2381 2643 2742 
Q 2381 3103 1925 3103 
Q 1469 3103 1208 2742 
Q 947 2381 947 1747 
z
" transform="scale(0.015625)"/>
     </defs>
     <use xlink:href="#DejaVuSans-64"/>
    </g>
   </g>
   <g id="text_7">
    <g id="patch_15">
     <path d="M 429.475705 182.51881 
L 443.813205 182.51881 
L 443.813205 164.840685 
L 429.475705 164.840685 
z
" style="fill: #ffffff; stroke: #ffffff; stroke-linejoin: miter"/>
    </g>
    <!-- h -->
    <g style="fill: #0000ff" transform="translate(433.475705 176.439122) scale(0.1 -0.1)">
     <defs>
      <path id="DejaVuSans-68" d="M 3513 2113 
L 3513 0 
L 2938 0 
L 2938 2094 
Q 2938 2591 2744 2837 
Q 2550 3084 2163 3084 
Q 1697 3084 1428 2787 
Q 1159 2491 1159 1978 
L 1159 0 
L 581 0 
L 581 4863 
L 1159 4863 
L 1159 2956 
Q 1366 3272 1645 3428 
Q 1925 3584 2291 3584 
Q 2894 3584 3203 3211 
Q 3513 2838 3513 2113 
z
" transform="scale(0.015625)"/>
     </defs>
     <use xlink:href="#DejaVuSans-68"/>
    </g>
   </g>
   <g id="text_8">
    <g id="patch_16">
     <path d="M 327.457161 161.831955 
L 341.805599 161.831955 
L 341.805599 144.15383 
L 327.457161 144.15383 
z
" style="fill: #ffffff; stroke: #ffffff; stroke-linejoin: miter"/>
    </g>
    <!-- g -->
    <g style="fill: #0000ff" transform="translate(331.457161 155.752268) scale(0.1 -0.1)">
     <defs>
      <path id="DejaVuSans-67" d="M 2906 1791 
Q 2906 2416 2648 2759 
Q 2391 3103 1925 3103 
Q 1463 3103 1205 2759 
Q 947 2416 947 1791 
Q 947 1169 1205 825 
Q 1463 481 1925 481 
Q 2391 481 2648 825 
Q 2906 1169 2906 1791 
z
M 3481 434 
Q 3481 -459 3084 -895 
Q 2688 -1331 1869 -1331 
Q 1566 -1331 1297 -1286 
Q 1028 -1241 775 -1147 
L 775 -588 
Q 1028 -725 1275 -790 
Q 1522 -856 1778 -856 
Q 2344 -856 2625 -561 
Q 2906 -266 2906 331 
L 2906 616 
Q 2728 306 2450 153 
Q 2172 0 1784 0 
Q 1141 0 747 490 
Q 353 981 353 1791 
Q 353 2603 747 3093 
Q 1141 3584 1784 3584 
Q 2172 3584 2450 3431 
Q 2728 3278 2906 2969 
L 2906 3500 
L 3481 3500 
L 3481 434 
z
" transform="scale(0.015625)"/>
     </defs>
     <use xlink:href="#DejaVuSans-67"/>
    </g>
   </g>
   <g id="text_9">
    <g id="patch_17">
     <path d="M 125.461208 181.639062 
L 138.959646 181.639062 
L 138.959646 163.960937 
L 125.461208 163.960937 
z
" style="fill: #ffffff; stroke: #ffffff; stroke-linejoin: miter"/>
    </g>
    <!-- c -->
    <g style="fill: #0000ff" transform="translate(129.461208 175.559375) scale(0.1 -0.1)">
     <defs>
      <path id="DejaVuSans-63" d="M 3122 3366 
L 3122 2828 
Q 2878 2963 2633 3030 
Q 2388 3097 2138 3097 
Q 1578 3097 1268 2742 
Q 959 2388 959 1747 
Q 959 1106 1268 751 
Q 1578 397 2138 397 
Q 2388 397 2633 464 
Q 2878 531 3122 666 
L 3122 134 
Q 2881 22 2623 -34 
Q 2366 -91 2075 -91 
Q 1284 -91 818 406 
Q 353 903 353 1747 
Q 353 2603 823 3093 
Q 1294 3584 2113 3584 
Q 2378 3584 2631 3529 
Q 2884 3475 3122 3366 
z
" transform="scale(0.015625)"/>
     </defs>
     <use xlink:href="#DejaVuSans-63"/>
    </g>
   </g>
   <g id="patch_18">
    <path d="M 31.802549 190.74136 
C 33.933565 190.74136 35.977587 189.894698 37.484443 188.387842 
C 38.991299 186.880986 39.837961 184.836964 39.837961 182.705948 
C 39.837961 180.574931 38.991299 178.530909 37.484443 177.024053 
C 35.977587 175.517197 33.933565 174.670536 31.802549 174.670536 
C 29.671533 174.670536 27.62751 175.517197 26.120654 177.024053 
C 24.613798 178.530909 23.767137 180.574931 23.767137 182.705948 
C 23.767137 184.836964 24.613798 186.880986 26.120654 188.387842 
C 27.62751 189.894698 29.671533 190.74136 31.802549 190.74136 
z
" style="fill: #fec7b8; stroke: #000000; stroke-linejoin: miter"/>
   </g>
   <g id="patch_19">
    <path d="M 232.618305 170.929464 
C 234.749321 170.929464 236.793344 170.082803 238.3002 168.575947 
C 239.807056 167.069091 240.653717 165.025069 240.653717 162.894052 
C 240.653717 160.763036 239.807056 158.719014 238.3002 157.212158 
C 236.793344 155.705302 234.749321 154.85864 232.618305 154.85864 
C 230.487289 154.85864 228.443267 155.705302 226.936411 157.212158 
C 225.429555 158.719014 224.582893 160.763036 224.582893 162.894052 
C 224.582893 165.025069 225.429555 167.069091 226.936411 168.575947 
C 228.443267 170.082803 230.487289 170.929464 232.618305 170.929464 
z
" style="fill: #fec7b8; stroke: #000000; stroke-linejoin: miter"/>
   </g>
   <g id="patch_20">
    <path d="M 436.644455 151.127145 
C 438.775471 151.127145 440.819493 150.280484 442.326349 148.773628 
C 443.833205 147.266772 444.679867 145.222749 444.679867 143.091733 
C 444.679867 140.960717 443.833205 138.916695 442.326349 137.409839 
C 440.819493 135.902983 438.775471 135.056321 436.644455 135.056321 
C 434.513439 135.056321 432.469416 135.902983 430.96256 137.409839 
C 429.455704 138.916695 428.609043 140.960717 428.609043 143.091733 
C 428.609043 145.222749 429.455704 147.266772 430.96256 148.773628 
C 432.469416 150.280484 434.513439 151.127145 436.644455 151.127145 
z
" style="fill: #fec7b8; stroke: #000000; stroke-linejoin: miter"/>
   </g>
   <g id="patch_21">
    <path d="M 31.802549 213.293961 
C 35.858567 213.293961 39.749007 211.682488 42.617045 208.81445 
C 45.485083 205.946413 47.096556 202.055973 47.096556 197.999955 
C 47.096556 193.943936 45.485083 190.053496 42.617045 187.185459 
C 39.749007 184.317421 35.858567 182.705948 31.802549 182.705948 
C 27.746531 182.705948 23.856091 184.317421 20.988053 187.185459 
C 18.120015 190.053496 16.508542 193.943936 16.508542 197.999955 
C 16.508542 202.055973 18.120015 205.946413 20.988053 208.81445 
C 23.856091 211.682488 27.746531 213.293961 31.802549 213.293961 
L 31.802549 213.293961 
z
" clip-path="url(#p7ae0c864ad)" style="fill: none; stroke: #ff0000; stroke-linejoin: miter"/>
   </g>
   <g id="patch_22">
    <path d="M 31.802549 228.587968 
C 37.886576 228.587968 43.722236 226.170759 48.024293 221.868702 
C 52.326349 217.566645 54.743559 211.730985 54.743559 205.646958 
C 54.743559 199.562931 52.326349 193.727271 48.024293 189.425214 
C 43.722236 185.123157 37.886576 182.705948 31.802549 182.705948 
C 25.718522 182.705948 19.882862 185.123157 15.580805 189.425214 
C 11.278748 193.727271 8.861538 199.562931 8.861538 205.646958 
C 8.861538 211.730985 11.278748 217.566645 15.580805 221.868702 
C 19.882862 226.170759 25.718522 228.587968 31.802549 228.587968 
L 31.802549 228.587968 
z
" clip-path="url(#p7ae0c864ad)" style="fill: none; stroke: #ffbf00; stroke-linejoin: miter"/>
   </g>
   <g id="patch_23">
    <path d="M 436.644455 173.679747 
C 440.700473 173.679747 444.590913 172.068274 447.458951 169.200236 
C 450.326988 166.332198 451.938462 162.441758 451.938462 158.38574 
C 451.938462 154.329722 450.326988 150.439282 447.458951 147.571244 
C 444.590913 144.703206 440.700473 143.091733 436.644455 143.091733 
C 432.588437 143.091733 428.697997 144.703206 425.829959 147.571244 
C 422.961921 150.439282 421.350448 154.329722 421.350448 158.38574 
C 421.350448 162.441758 422.961921 166.332198 425.829959 169.200236 
C 428.697997 172.068274 432.588437 173.679747 436.644455 173.679747 
L 436.644455 173.679747 
z
" clip-path="url(#p7ae0c864ad)" style="fill: none; stroke: #ff00bf; stroke-linejoin: miter"/>
   </g>
   <g id="text_10">
    <!-- 0 -->
    <g transform="translate(28.621299 185.465323) scale(0.1 -0.1)">
     <defs>
      <path id="DejaVuSans-30" d="M 2034 4250 
Q 1547 4250 1301 3770 
Q 1056 3291 1056 2328 
Q 1056 1369 1301 889 
Q 1547 409 2034 409 
Q 2525 409 2770 889 
Q 3016 1369 3016 2328 
Q 3016 3291 2770 3770 
Q 2525 4250 2034 4250 
z
M 2034 4750 
Q 2819 4750 3233 4129 
Q 3647 3509 3647 2328 
Q 3647 1150 3233 529 
Q 2819 -91 2034 -91 
Q 1250 -91 836 529 
Q 422 1150 422 2328 
Q 422 3509 836 4129 
Q 1250 4750 2034 4750 
z
" transform="scale(0.015625)"/>
     </defs>
     <use xlink:href="#DejaVuSans-30"/>
    </g>
   </g>
   <g id="text_11">
    <!-- 1 -->
    <g transform="translate(229.437055 165.653427) scale(0.1 -0.1)">
     <defs>
      <path id="DejaVuSans-31" d="M 794 531 
L 1825 531 
L 1825 4091 
L 703 3866 
L 703 4441 
L 1819 4666 
L 2450 4666 
L 2450 531 
L 3481 531 
L 3481 0 
L 794 0 
L 794 531 
z
" transform="scale(0.015625)"/>
     </defs>
     <use xlink:href="#DejaVuSans-31"/>
    </g>
   </g>
   <g id="text_12">
    <!-- 2 -->
    <g transform="translate(433.463205 145.851108) scale(0.1 -0.1)">
     <defs>
      <path id="DejaVuSans-32" d="M 1228 531 
L 3431 531 
L 3431 0 
L 469 0 
L 469 531 
Q 828 903 1448 1529 
Q 2069 2156 2228 2338 
Q 2531 2678 2651 2914 
Q 2772 3150 2772 3378 
Q 2772 3750 2511 3984 
Q 2250 4219 1831 4219 
Q 1534 4219 1204 4116 
Q 875 4013 500 3803 
L 500 4441 
Q 881 4594 1212 4672 
Q 1544 4750 1819 4750 
Q 2544 4750 2975 4387 
Q 3406 4025 3406 3419 
Q 3406 3131 3298 2873 
Q 3191 2616 2906 2266 
Q 2828 2175 2409 1742 
Q 1991 1309 1228 531 
z
" transform="scale(0.015625)"/>
     </defs>
     <use xlink:href="#DejaVuSans-32"/>
    </g>
   </g>
  </g>
 </g>
 <defs>
  <clipPath id="p7ae0c864ad">
   <rect x="0" y="109.484318" width="460.8" height="126.631364"/>
  </clipPath>
 </defs>
</svg>
