<?xml version="1.0" encoding="utf-8" standalone="no"?>
<!DOCTYPE svg PUBLIC "-//W3C//DTD SVG 1.1//EN"
  "http://www.w3.org/Graphics/SVG/1.1/DTD/svg11.dtd">
<!-- Created with matplotlib (http://matplotlib.org/) -->
<svg height="345.6pt" version="1.1" viewBox="0 0 460.8 345.6" width="460.8pt" xmlns="http://www.w3.org/2000/svg" xmlns:xlink="http://www.w3.org/1999/xlink">
 <defs>
  <style type="text/css">
*{stroke-linecap:butt;stroke-linejoin:round;}
  </style>
 </defs>
 <g id="figure_1">
  <g id="patch_1">
   <path d="M 0 345.6 
L 460.8 345.6 
L 460.8 0 
L 0 0 
z
" style="fill:#ffffff;"/>
  </g>
  <g id="axes_1">
   <g id="patch_2">
    <path d="M 2.52 287.757987 
L 458.28 287.757987 
L 458.28 57.842013 
L 2.52 57.842013 
z
" style="fill:#ffffff;"/>
   </g>
   <g id="patch_3">
    <path clip-path="url(#pff60b1a12e)" d="M 35.730333 234.445091 
Q 149.030079 220.886547 236.417918 147.510581 
" style="fill:none;stroke:#00ffff;stroke-linejoin:miter;"/>
   </g>
   <g id="patch_4">
    <path clip-path="url(#pff60b1a12e)" d="M 35.730333 234.445091 
Q 123.118171 161.069126 236.417918 147.510581 
" style="fill:none;stroke:#00ff3f;stroke-linejoin:miter;"/>
   </g>
   <g id="patch_5">
    <path clip-path="url(#pff60b1a12e)" d="M 35.730333 234.445091 
Q 161.986033 250.795258 236.417918 147.510581 
" style="fill:none;stroke:#003fff;stroke-linejoin:miter;"/>
   </g>
   <g id="patch_6">
    <path clip-path="url(#pff60b1a12e)" d="M 35.730333 234.445091 
Q 110.162217 131.160415 236.417918 147.510581 
" style="fill:none;stroke:#7fff00;stroke-linejoin:miter;"/>
   </g>
   <g id="patch_7">
    <path clip-path="url(#pff60b1a12e)" d="M 35.730333 234.445091 
Q 174.941987 280.703968 236.417918 147.510581 
" style="fill:none;stroke:#7fff00;stroke-linejoin:miter;"/>
   </g>
   <g id="patch_8">
    <path clip-path="url(#pff60b1a12e)" d="M 35.730333 234.445091 
Q 97.206263 101.251704 236.417918 147.510581 
" style="fill:none;stroke:#7fff00;stroke-linejoin:miter;"/>
   </g>
   <g id="matplotlib.axis_1"/>
   <g id="matplotlib.axis_2"/>
   <g id="line2d_1">
    <path clip-path="url(#pff60b1a12e)" d="M 236.417918 147.510581 
L 433.21824 62.263474 
" style="fill:none;stroke:#7f00ff;stroke-linecap:square;"/>
   </g>
   <g id="line2d_2">
    <path clip-path="url(#pff60b1a12e)" d="M 35.730333 234.445091 
L 236.417918 147.510581 
" style="fill:none;stroke:#7fff00;stroke-linecap:square;"/>
   </g>
   <g id="text_1">
    <g id="patch_9">
     <path d="M 135.377884 214.771254 
L 149.726321 214.771254 
L 149.726321 197.093129 
L 135.377884 197.093129 
z
" style="fill:#ffffff;stroke:#ffffff;stroke-linejoin:miter;"/>
    </g>
    <!-- d -->
    <defs>
     <path d="M 45.40625 46.390625 
L 45.40625 75.984375 
L 54.390625 75.984375 
L 54.390625 0 
L 45.40625 0 
L 45.40625 8.203125 
Q 42.578125 3.328125 38.25 0.953125 
Q 33.9375 -1.421875 27.875 -1.421875 
Q 17.96875 -1.421875 11.734375 6.484375 
Q 5.515625 14.40625 5.515625 27.296875 
Q 5.515625 40.1875 11.734375 48.09375 
Q 17.96875 56 27.875 56 
Q 33.9375 56 38.25 53.625 
Q 42.578125 51.265625 45.40625 46.390625 
z
M 14.796875 27.296875 
Q 14.796875 17.390625 18.875 11.75 
Q 22.953125 6.109375 30.078125 6.109375 
Q 37.203125 6.109375 41.296875 11.75 
Q 45.40625 17.390625 45.40625 27.296875 
Q 45.40625 37.203125 41.296875 42.84375 
Q 37.203125 48.484375 30.078125 48.484375 
Q 22.953125 48.484375 18.875 42.84375 
Q 14.796875 37.203125 14.796875 27.296875 
z
" id="DejaVuSans-64"/>
    </defs>
    <g style="fill:#0000ff;" transform="translate(139.377884 208.691567)scale(0.1 -0.1)">
     <use xlink:href="#DejaVuSans-64"/>
    </g>
   </g>
   <g id="text_2">
    <g id="patch_10">
     <path d="M 122.519586 184.862543 
L 136.672711 184.862543 
L 136.672711 167.184418 
L 122.519586 167.184418 
z
" style="fill:#ffffff;stroke:#ffffff;stroke-linejoin:miter;"/>
    </g>
    <!-- e -->
    <defs>
     <path d="M 56.203125 29.59375 
L 56.203125 25.203125 
L 14.890625 25.203125 
Q 15.484375 15.921875 20.484375 11.0625 
Q 25.484375 6.203125 34.421875 6.203125 
Q 39.59375 6.203125 44.453125 7.46875 
Q 49.3125 8.734375 54.109375 11.28125 
L 54.109375 2.78125 
Q 49.265625 0.734375 44.1875 -0.34375 
Q 39.109375 -1.421875 33.890625 -1.421875 
Q 20.796875 -1.421875 13.15625 6.1875 
Q 5.515625 13.8125 5.515625 26.8125 
Q 5.515625 40.234375 12.765625 48.109375 
Q 20.015625 56 32.328125 56 
Q 43.359375 56 49.78125 48.890625 
Q 56.203125 41.796875 56.203125 29.59375 
z
M 47.21875 32.234375 
Q 47.125 39.59375 43.09375 43.984375 
Q 39.0625 48.390625 32.421875 48.390625 
Q 24.90625 48.390625 20.390625 44.140625 
Q 15.875 39.890625 15.1875 32.171875 
z
" id="DejaVuSans-65"/>
    </defs>
    <g style="fill:#0000ff;" transform="translate(126.519586 178.782856)scale(0.1 -0.1)">
     <use xlink:href="#DejaVuSans-65"/>
    </g>
   </g>
   <g id="text_3">
    <g id="patch_11">
     <path d="M 142.280861 229.725609 
L 155.779298 229.725609 
L 155.779298 212.047484 
L 142.280861 212.047484 
z
" style="fill:#ffffff;stroke:#ffffff;stroke-linejoin:miter;"/>
    </g>
    <!-- c -->
    <defs>
     <path d="M 48.78125 52.59375 
L 48.78125 44.1875 
Q 44.96875 46.296875 41.140625 47.34375 
Q 37.3125 48.390625 33.40625 48.390625 
Q 24.65625 48.390625 19.8125 42.84375 
Q 14.984375 37.3125 14.984375 27.296875 
Q 14.984375 17.28125 19.8125 11.734375 
Q 24.65625 6.203125 33.40625 6.203125 
Q 37.3125 6.203125 41.140625 7.25 
Q 44.96875 8.296875 48.78125 10.40625 
L 48.78125 2.09375 
Q 45.015625 0.34375 40.984375 -0.53125 
Q 36.96875 -1.421875 32.421875 -1.421875 
Q 20.0625 -1.421875 12.78125 6.34375 
Q 5.515625 14.109375 5.515625 27.296875 
Q 5.515625 40.671875 12.859375 48.328125 
Q 20.21875 56 33.015625 56 
Q 37.15625 56 41.109375 55.140625 
Q 45.0625 54.296875 48.78125 52.59375 
z
" id="DejaVuSans-63"/>
    </defs>
    <g style="fill:#0000ff;" transform="translate(146.280861 223.645922)scale(0.1 -0.1)">
     <use xlink:href="#DejaVuSans-63"/>
    </g>
   </g>
   <g id="text_4">
    <g id="patch_12">
     <path d="M 117.358015 169.908188 
L 128.878328 169.908188 
L 128.878328 152.230063 
L 117.358015 152.230063 
z
" style="fill:#ffffff;stroke:#ffffff;stroke-linejoin:miter;"/>
    </g>
    <!-- f -->
    <defs>
     <path d="M 37.109375 75.984375 
L 37.109375 68.5 
L 28.515625 68.5 
Q 23.6875 68.5 21.796875 66.546875 
Q 19.921875 64.59375 19.921875 59.515625 
L 19.921875 54.6875 
L 34.71875 54.6875 
L 34.71875 47.703125 
L 19.921875 47.703125 
L 19.921875 0 
L 10.890625 0 
L 10.890625 47.703125 
L 2.296875 47.703125 
L 2.296875 54.6875 
L 10.890625 54.6875 
L 10.890625 58.5 
Q 10.890625 67.625 15.140625 71.796875 
Q 19.390625 75.984375 28.609375 75.984375 
z
" id="DejaVuSans-66"/>
    </defs>
    <g style="fill:#0000ff;" transform="translate(121.358015 163.828501)scale(0.1 -0.1)">
     <use xlink:href="#DejaVuSans-66"/>
    </g>
   </g>
   <g id="text_5">
    <g id="patch_13">
     <path d="M 149.7479 244.679965 
L 161.268213 244.679965 
L 161.268213 227.00184 
L 149.7479 227.00184 
z
" style="fill:#ffffff;stroke:#ffffff;stroke-linejoin:miter;"/>
    </g>
    <!-- f -->
    <g style="fill:#0000ff;" transform="translate(153.7479 238.600277)scale(0.1 -0.1)">
     <use xlink:href="#DejaVuSans-66"/>
    </g>
   </g>
   <g id="text_6">
    <g id="patch_14">
     <path d="M 110.880038 154.953833 
L 122.400351 154.953833 
L 122.400351 137.275708 
L 110.880038 137.275708 
z
" style="fill:#ffffff;stroke:#ffffff;stroke-linejoin:miter;"/>
    </g>
    <!-- f -->
    <g style="fill:#0000ff;" transform="translate(114.880038 148.874145)scale(0.1 -0.1)">
     <use xlink:href="#DejaVuSans-66"/>
    </g>
   </g>
   <g id="text_7">
    <g id="patch_15">
     <path d="M 28.66627 275.878444 
L 42.794395 275.878444 
L 42.794395 258.200319 
L 28.66627 258.200319 
z
" style="fill:#ffffff;stroke:#ffffff;stroke-linejoin:miter;"/>
    </g>
    <!-- a -->
    <defs>
     <path d="M 34.28125 27.484375 
Q 23.390625 27.484375 19.1875 25 
Q 14.984375 22.515625 14.984375 16.5 
Q 14.984375 11.71875 18.140625 8.90625 
Q 21.296875 6.109375 26.703125 6.109375 
Q 34.1875 6.109375 38.703125 11.40625 
Q 43.21875 16.703125 43.21875 25.484375 
L 43.21875 27.484375 
z
M 52.203125 31.203125 
L 52.203125 0 
L 43.21875 0 
L 43.21875 8.296875 
Q 40.140625 3.328125 35.546875 0.953125 
Q 30.953125 -1.421875 24.3125 -1.421875 
Q 15.921875 -1.421875 10.953125 3.296875 
Q 6 8.015625 6 15.921875 
Q 6 25.140625 12.171875 29.828125 
Q 18.359375 34.515625 30.609375 34.515625 
L 43.21875 34.515625 
L 43.21875 35.40625 
Q 43.21875 41.609375 39.140625 45 
Q 35.0625 48.390625 27.6875 48.390625 
Q 23 48.390625 18.546875 47.265625 
Q 14.109375 46.140625 10.015625 43.890625 
L 10.015625 52.203125 
Q 14.9375 54.109375 19.578125 55.046875 
Q 24.21875 56 28.609375 56 
Q 40.484375 56 46.34375 49.84375 
Q 52.203125 43.703125 52.203125 31.203125 
z
" id="DejaVuSans-61"/>
    </defs>
    <g style="fill:#0000ff;" transform="translate(32.66627 269.798756)scale(0.1 -0.1)">
     <use xlink:href="#DejaVuSans-61"/>
    </g>
   </g>
   <g id="text_8">
    <g id="patch_16">
     <path d="M 28.556114 292.175588 
L 42.904551 292.175588 
L 42.904551 274.497463 
L 28.556114 274.497463 
z
" style="fill:#ffffff;stroke:#ffffff;stroke-linejoin:miter;"/>
    </g>
    <!-- b -->
    <defs>
     <path d="M 48.6875 27.296875 
Q 48.6875 37.203125 44.609375 42.84375 
Q 40.53125 48.484375 33.40625 48.484375 
Q 26.265625 48.484375 22.1875 42.84375 
Q 18.109375 37.203125 18.109375 27.296875 
Q 18.109375 17.390625 22.1875 11.75 
Q 26.265625 6.109375 33.40625 6.109375 
Q 40.53125 6.109375 44.609375 11.75 
Q 48.6875 17.390625 48.6875 27.296875 
z
M 18.109375 46.390625 
Q 20.953125 51.265625 25.265625 53.625 
Q 29.59375 56 35.59375 56 
Q 45.5625 56 51.78125 48.09375 
Q 58.015625 40.1875 58.015625 27.296875 
Q 58.015625 14.40625 51.78125 6.484375 
Q 45.5625 -1.421875 35.59375 -1.421875 
Q 29.59375 -1.421875 25.265625 0.953125 
Q 20.953125 3.328125 18.109375 8.203125 
L 18.109375 0 
L 9.078125 0 
L 9.078125 75.984375 
L 18.109375 75.984375 
z
" id="DejaVuSans-62"/>
    </defs>
    <g style="fill:#0000ff;" transform="translate(32.556114 286.095901)scale(0.1 -0.1)">
     <use xlink:href="#DejaVuSans-62"/>
    </g>
   </g>
   <g id="text_9">
    <g id="patch_17">
     <path d="M 426.04949 103.696826 
L 440.38699 103.696826 
L 440.38699 86.018701 
L 426.04949 86.018701 
z
" style="fill:#ffffff;stroke:#ffffff;stroke-linejoin:miter;"/>
    </g>
    <!-- h -->
    <defs>
     <path d="M 54.890625 33.015625 
L 54.890625 0 
L 45.90625 0 
L 45.90625 32.71875 
Q 45.90625 40.484375 42.875 44.328125 
Q 39.84375 48.1875 33.796875 48.1875 
Q 26.515625 48.1875 22.3125 43.546875 
Q 18.109375 38.921875 18.109375 30.90625 
L 18.109375 0 
L 9.078125 0 
L 9.078125 75.984375 
L 18.109375 75.984375 
L 18.109375 46.1875 
Q 21.34375 51.125 25.703125 53.5625 
Q 30.078125 56 35.796875 56 
Q 45.21875 56 50.046875 50.171875 
Q 54.890625 44.34375 54.890625 33.015625 
z
" id="DejaVuSans-68"/>
    </defs>
    <g style="fill:#0000ff;" transform="translate(430.04949 97.617139)scale(0.1 -0.1)">
     <use xlink:href="#DejaVuSans-68"/>
    </g>
   </g>
   <g id="text_10">
    <g id="patch_18">
     <path d="M 327.64386 113.72609 
L 341.992298 113.72609 
L 341.992298 96.047965 
L 327.64386 96.047965 
z
" style="fill:#ffffff;stroke:#ffffff;stroke-linejoin:miter;"/>
    </g>
    <!-- g -->
    <defs>
     <path d="M 45.40625 27.984375 
Q 45.40625 37.75 41.375 43.109375 
Q 37.359375 48.484375 30.078125 48.484375 
Q 22.859375 48.484375 18.828125 43.109375 
Q 14.796875 37.75 14.796875 27.984375 
Q 14.796875 18.265625 18.828125 12.890625 
Q 22.859375 7.515625 30.078125 7.515625 
Q 37.359375 7.515625 41.375 12.890625 
Q 45.40625 18.265625 45.40625 27.984375 
z
M 54.390625 6.78125 
Q 54.390625 -7.171875 48.1875 -13.984375 
Q 42 -20.796875 29.203125 -20.796875 
Q 24.46875 -20.796875 20.265625 -20.09375 
Q 16.0625 -19.390625 12.109375 -17.921875 
L 12.109375 -9.1875 
Q 16.0625 -11.328125 19.921875 -12.34375 
Q 23.78125 -13.375 27.78125 -13.375 
Q 36.625 -13.375 41.015625 -8.765625 
Q 45.40625 -4.15625 45.40625 5.171875 
L 45.40625 9.625 
Q 42.625 4.78125 38.28125 2.390625 
Q 33.9375 0 27.875 0 
Q 17.828125 0 11.671875 7.65625 
Q 5.515625 15.328125 5.515625 27.984375 
Q 5.515625 40.671875 11.671875 48.328125 
Q 17.828125 56 27.875 56 
Q 33.9375 56 38.28125 53.609375 
Q 42.625 51.21875 45.40625 46.390625 
L 45.40625 54.6875 
L 54.390625 54.6875 
z
" id="DejaVuSans-67"/>
    </defs>
    <g style="fill:#0000ff;" transform="translate(331.64386 107.646403)scale(0.1 -0.1)">
     <use xlink:href="#DejaVuSans-67"/>
    </g>
   </g>
   <g id="text_11">
    <g id="patch_19">
     <path d="M 130.313969 199.816899 
L 141.834282 199.816899 
L 141.834282 182.138774 
L 130.313969 182.138774 
z
" style="fill:#ffffff;stroke:#ffffff;stroke-linejoin:miter;"/>
    </g>
    <!-- f -->
    <g style="fill:#0000ff;" transform="translate(134.313969 193.737211)scale(0.1 -0.1)">
     <use xlink:href="#DejaVuSans-66"/>
    </g>
   </g>
   <g id="patch_20">
    <path clip-path="url(#pff60b1a12e)" d="M 35.730333 267.039381 
C 40.052386 267.039381 44.198001 265.322211 47.254154 262.266058 
C 50.310307 259.209905 52.027477 255.06429 52.027477 250.742236 
C 52.027477 246.420183 50.310307 242.274568 47.254154 239.218415 
C 44.198001 236.162261 40.052386 234.445091 35.730333 234.445091 
C 31.408279 234.445091 27.262664 236.162261 24.206511 239.218415 
C 21.150358 242.274568 19.433188 246.420183 19.433188 250.742236 
C 19.433188 255.06429 21.150358 259.209905 24.206511 262.266058 
C 27.262664 265.322211 31.408279 267.039381 35.730333 267.039381 
z
" style="fill:none;stroke:#ffbf00;stroke-linejoin:miter;"/>
   </g>
   <g id="patch_21">
    <path clip-path="url(#pff60b1a12e)" d="M 35.730333 283.336526 
C 42.213413 283.336526 48.431835 280.760771 53.016065 276.176541 
C 57.600295 271.592311 60.17605 265.373889 60.17605 258.890809 
C 60.17605 252.407729 57.600295 246.189306 53.016065 241.605076 
C 48.431835 237.020846 42.213413 234.445091 35.730333 234.445091 
C 29.247253 234.445091 23.02883 237.020846 18.4446 241.605076 
C 13.86037 246.189306 11.284615 252.407729 11.284615 258.890809 
C 11.284615 265.373889 13.86037 271.592311 18.4446 276.176541 
C 23.02883 280.760771 29.247253 283.336526 35.730333 283.336526 
z
" style="fill:none;stroke:#ff0000;stroke-linejoin:miter;"/>
   </g>
   <g id="patch_22">
    <path clip-path="url(#pff60b1a12e)" d="M 433.21824 94.857764 
C 437.540293 94.857764 441.685908 93.140594 444.742061 90.084441 
C 447.798215 87.028287 449.515385 82.882672 449.515385 78.560619 
C 449.515385 74.238566 447.798215 70.092951 444.742061 67.036797 
C 441.685908 63.980644 437.540293 62.263474 433.21824 62.263474 
C 428.896186 62.263474 424.750571 63.980644 421.694418 67.036797 
C 418.638265 70.092951 416.921095 74.238566 416.921095 78.560619 
C 416.921095 82.882672 418.638265 87.028287 421.694418 90.084441 
C 424.750571 93.140594 428.896186 94.857764 433.21824 94.857764 
z
" style="fill:none;stroke:#ff00bf;stroke-linejoin:miter;"/>
   </g>
   <g id="PathCollection_1">
    <defs>
     <path d="M 0 5 
C 1.326016 5 2.597899 4.473168 3.535534 3.535534 
C 4.473168 2.597899 5 1.326016 5 0 
C 5 -1.326016 4.473168 -2.597899 3.535534 -3.535534 
C 2.597899 -4.473168 1.326016 -5 0 -5 
C -1.326016 -5 -2.597899 -4.473168 -3.535534 -3.535534 
C -4.473168 -2.597899 -5 -1.326016 -5 0 
C -5 1.326016 -4.473168 2.597899 -3.535534 3.535534 
C -2.597899 4.473168 -1.326016 5 0 5 
z
" id="m822bcdf799" style="stroke:#000000;"/>
    </defs>
    <g>
     <use style="fill:#fec7b8;stroke:#000000;" x="35.730333" xlink:href="#m822bcdf799" y="234.445091"/>
     <use style="fill:#fec7b8;stroke:#000000;" x="236.417918" xlink:href="#m822bcdf799" y="147.510581"/>
     <use style="fill:#fec7b8;stroke:#000000;" x="433.21824" xlink:href="#m822bcdf799" y="62.263474"/>
    </g>
   </g>
   <g id="text_12">
    <!-- 0 -->
    <defs>
     <path d="M 31.78125 66.40625 
Q 24.171875 66.40625 20.328125 58.90625 
Q 16.5 51.421875 16.5 36.375 
Q 16.5 21.390625 20.328125 13.890625 
Q 24.171875 6.390625 31.78125 6.390625 
Q 39.453125 6.390625 43.28125 13.890625 
Q 47.125 21.390625 47.125 36.375 
Q 47.125 51.421875 43.28125 58.90625 
Q 39.453125 66.40625 31.78125 66.40625 
z
M 31.78125 74.21875 
Q 44.046875 74.21875 50.515625 64.515625 
Q 56.984375 54.828125 56.984375 36.375 
Q 56.984375 17.96875 50.515625 8.265625 
Q 44.046875 -1.421875 31.78125 -1.421875 
Q 19.53125 -1.421875 13.0625 8.265625 
Q 6.59375 17.96875 6.59375 36.375 
Q 6.59375 54.828125 13.0625 64.515625 
Q 19.53125 74.21875 31.78125 74.21875 
z
" id="DejaVuSans-30"/>
    </defs>
    <g transform="translate(32.549083 237.204466)scale(0.1 -0.1)">
     <use xlink:href="#DejaVuSans-30"/>
    </g>
   </g>
   <g id="text_13">
    <!-- 1 -->
    <defs>
     <path d="M 12.40625 8.296875 
L 28.515625 8.296875 
L 28.515625 63.921875 
L 10.984375 60.40625 
L 10.984375 69.390625 
L 28.421875 72.90625 
L 38.28125 72.90625 
L 38.28125 8.296875 
L 54.390625 8.296875 
L 54.390625 0 
L 12.40625 0 
z
" id="DejaVuSans-31"/>
    </defs>
    <g transform="translate(233.236668 150.269956)scale(0.1 -0.1)">
     <use xlink:href="#DejaVuSans-31"/>
    </g>
   </g>
   <g id="text_14">
    <!-- 2 -->
    <defs>
     <path d="M 19.1875 8.296875 
L 53.609375 8.296875 
L 53.609375 0 
L 7.328125 0 
L 7.328125 8.296875 
Q 12.9375 14.109375 22.625 23.890625 
Q 32.328125 33.6875 34.8125 36.53125 
Q 39.546875 41.84375 41.421875 45.53125 
Q 43.3125 49.21875 43.3125 52.78125 
Q 43.3125 58.59375 39.234375 62.25 
Q 35.15625 65.921875 28.609375 65.921875 
Q 23.96875 65.921875 18.8125 64.3125 
Q 13.671875 62.703125 7.8125 59.421875 
L 7.8125 69.390625 
Q 13.765625 71.78125 18.9375 73 
Q 24.125 74.21875 28.421875 74.21875 
Q 39.75 74.21875 46.484375 68.546875 
Q 53.21875 62.890625 53.21875 53.421875 
Q 53.21875 48.921875 51.53125 44.890625 
Q 49.859375 40.875 45.40625 35.40625 
Q 44.1875 33.984375 37.640625 27.21875 
Q 31.109375 20.453125 19.1875 8.296875 
z
" id="DejaVuSans-32"/>
    </defs>
    <g transform="translate(430.03699 65.022849)scale(0.1 -0.1)">
     <use xlink:href="#DejaVuSans-32"/>
    </g>
   </g>
  </g>
 </g>
 <defs>
  <clipPath id="pff60b1a12e">
   <rect height="229.915974" width="455.76" x="2.52" y="57.842013"/>
  </clipPath>
 </defs>
</svg>
