<?xml version="1.0" encoding="utf-8" standalone="no"?>
<!DOCTYPE svg PUBLIC "-//W3C//DTD SVG 1.1//EN"
  "http://www.w3.org/Graphics/SVG/1.1/DTD/svg11.dtd">
<!-- Created with matplotlib (http://matplotlib.org/) -->
<svg height="345.6pt" version="1.1" viewBox="0 0 460.8 345.6" width="460.8pt" xmlns="http://www.w3.org/2000/svg" xmlns:xlink="http://www.w3.org/1999/xlink">
 <defs>
  <style type="text/css">
*{stroke-linecap:butt;stroke-linejoin:round;}
  </style>
 </defs>
 <g id="figure_1">
  <g id="patch_1">
   <path d="M 0 345.6 
L 460.8 345.6 
L 460.8 0 
L 0 0 
z
" style="fill:#ffffff;"/>
  </g>
  <g id="axes_1">
   <g id="patch_2">
    <path d="M 2.52 321.02926 
L 458.28 321.02926 
L 458.28 24.57074 
L 2.52 24.57074 
z
" style="fill:#ffffff;"/>
   </g>
   <g id="patch_3">
    <path clip-path="url(#pfd71bc4f41)" d="M 79.860414 233.574519 
Q 123.679364 223.039907 122.632027 180.221294 
" style="fill:none;stroke:#00ffff;stroke-linecap:round;stroke-width:2;"/>
    <path clip-path="url(#pfd71bc4f41)" d="M 117.878048 190.340567 
L 122.632027 180.221294 
L 127.875058 190.096041 
L 117.878048 190.340567 
z
" style="fill:#00ffff;stroke:#00ffff;stroke-linecap:round;stroke-width:2;"/>
   </g>
   <g id="patch_4">
    <path clip-path="url(#pfd71bc4f41)" d="M 66.121024 220.823137 
Q 65.073688 178.004525 108.892637 167.469913 
" style="fill:none;stroke:#ff0000;stroke-linecap:round;stroke-width:2;"/>
    <path clip-path="url(#pfd71bc4f41)" d="M 70.875004 210.703865 
L 66.121024 220.823137 
L 60.877994 210.94839 
L 70.875004 210.703865 
z
" style="fill:#ff0000;stroke:#ff0000;stroke-linecap:round;stroke-width:2;"/>
   </g>
   <g id="patch_5">
    <path clip-path="url(#pfd71bc4f41)" d="M 208.874699 112.124754 
Q 251.254867 124.727716 270.513601 87.427827 
" style="fill:none;stroke:#00ffff;stroke-linecap:round;stroke-width:2;"/>
    <path clip-path="url(#pfd71bc4f41)" d="M 261.483067 94.019447 
L 270.513601 87.427827 
L 270.368576 98.607226 
L 261.483067 94.019447 
z
" style="fill:#00ffff;stroke:#00ffff;stroke-linecap:round;stroke-width:2;"/>
   </g>
   <g id="patch_6">
    <path clip-path="url(#pfd71bc4f41)" d="M 203.039492 94.025225 
Q 222.298225 56.725336 264.678394 69.328299 
" style="fill:none;stroke:#ff0000;stroke-linecap:round;stroke-width:2;"/>
    <path clip-path="url(#pfd71bc4f41)" d="M 212.070026 87.433606 
L 203.039492 94.025225 
L 203.184517 82.845826 
L 212.070026 87.433606 
z
" style="fill:#ff0000;stroke:#ff0000;stroke-linecap:round;stroke-width:2;"/>
   </g>
   <g id="patch_7">
    <path clip-path="url(#pfd71bc4f41)" d="M 289.449572 80.567766 
Q 325.531918 103.333362 351.713552 72.528632 
" style="fill:none;stroke:#00ffff;stroke-linecap:round;stroke-width:2;"/>
    <path clip-path="url(#pfd71bc4f41)" d="M 341.427569 76.910246 
L 351.713552 72.528632 
L 349.047253 83.386387 
L 341.427569 76.910246 
z
" style="fill:#00ffff;stroke:#00ffff;stroke-linecap:round;stroke-width:2;"/>
   </g>
   <g id="patch_8">
    <path clip-path="url(#pfd71bc4f41)" d="M 288.177612 61.076596 
Q 314.359246 30.271866 350.441593 53.037462 
" style="fill:none;stroke:#ff0000;stroke-linecap:round;stroke-width:2;"/>
    <path clip-path="url(#pfd71bc4f41)" d="M 298.463596 56.694982 
L 288.177612 61.076596 
L 290.843911 50.21884 
L 298.463596 56.694982 
z
" style="fill:#ff0000;stroke:#ff0000;stroke-linecap:round;stroke-width:2;"/>
   </g>
   <g id="patch_9">
    <path clip-path="url(#pfd71bc4f41)" d="M 191.850159 123.701898 
Q 181.392481 165.618049 135.967368 164.57563 
" style="fill:none;stroke:#00ffff;stroke-linecap:round;stroke-width:2;"/>
    <path clip-path="url(#pfd71bc4f41)" d="M 184.578163 132.194134 
L 191.850159 123.701898 
L 194.28075 134.614836 
L 184.578163 132.194134 
z
" style="fill:#00ffff;stroke:#00ffff;stroke-linecap:round;stroke-width:2;"/>
   </g>
   <g id="patch_10">
    <path clip-path="url(#pfd71bc4f41)" d="M 181.989175 107.896333 
Q 136.564062 106.853914 126.106385 148.770065 
" style="fill:none;stroke:#ff0000;stroke-linecap:round;stroke-width:2;"/>
    <path clip-path="url(#pfd71bc4f41)" d="M 133.378381 140.277829 
L 126.106385 148.770065 
L 123.675794 137.857127 
L 133.378381 140.277829 
z
" style="fill:#ff0000;stroke:#ff0000;stroke-linecap:round;stroke-width:2;"/>
   </g>
   <g id="matplotlib.axis_1"/>
   <g id="matplotlib.axis_2"/>
   <g id="patch_11">
    <path clip-path="url(#pfd71bc4f41)" d="M 33.622515 288.153064 
Q 45.762692 269.191283 59.108556 248.346335 
" style="fill:none;stroke:#ff0000;stroke-linecap:round;stroke-width:2;"/>
    <path clip-path="url(#pfd71bc4f41)" d="M 43.225402 282.427284 
L 33.622515 288.153064 
L 34.803623 277.035286 
L 43.225402 282.427284 
z
" style="fill:#ff0000;stroke:#ff0000;stroke-linecap:round;stroke-width:2;"/>
   </g>
   <g id="patch_12">
    <path clip-path="url(#pfd71bc4f41)" d="M 375.499246 57.589856 
Q 398.919509 52.758835 420.149809 48.379549 
" style="fill:none;stroke:#00ffff;stroke-linecap:round;stroke-width:2;"/>
    <path clip-path="url(#pfd71bc4f41)" d="M 409.345889 45.502865 
L 420.149809 48.379549 
L 411.36611 55.296675 
L 409.345889 45.502865 
z
" style="fill:#00ffff;stroke:#00ffff;stroke-linecap:round;stroke-width:2;"/>
   </g>
   <g id="text_1">
    <g id="patch_13">
     <path d="M 101.963882 220.620124 
L 116.092007 220.620124 
L 116.092007 202.941999 
L 101.963882 202.941999 
z
" style="fill:#ffffff;stroke:#ffffff;stroke-linejoin:miter;"/>
    </g>
    <!-- a -->
    <defs>
     <path d="M 34.28125 27.484375 
Q 23.390625 27.484375 19.1875 25 
Q 14.984375 22.515625 14.984375 16.5 
Q 14.984375 11.71875 18.140625 8.90625 
Q 21.296875 6.109375 26.703125 6.109375 
Q 34.1875 6.109375 38.703125 11.40625 
Q 43.21875 16.703125 43.21875 25.484375 
L 43.21875 27.484375 
z
M 52.203125 31.203125 
L 52.203125 0 
L 43.21875 0 
L 43.21875 8.296875 
Q 40.140625 3.328125 35.546875 0.953125 
Q 30.953125 -1.421875 24.3125 -1.421875 
Q 15.921875 -1.421875 10.953125 3.296875 
Q 6 8.015625 6 15.921875 
Q 6 25.140625 12.171875 29.828125 
Q 18.359375 34.515625 30.609375 34.515625 
L 43.21875 34.515625 
L 43.21875 35.40625 
Q 43.21875 41.609375 39.140625 45 
Q 35.0625 48.390625 27.6875 48.390625 
Q 23 48.390625 18.546875 47.265625 
Q 14.109375 46.140625 10.015625 43.890625 
L 10.015625 52.203125 
Q 14.9375 54.109375 19.578125 55.046875 
Q 24.21875 56 28.609375 56 
Q 40.484375 56 46.34375 49.84375 
Q 52.203125 43.703125 52.203125 31.203125 
z
" id="DejaVuSans-61"/>
    </defs>
    <g style="fill:#0000ff;" transform="translate(105.963882 214.540436)scale(0.1 -0.1)">
     <use xlink:href="#DejaVuSans-61"/>
    </g>
   </g>
   <g id="text_2">
    <g id="patch_14">
     <path d="M 72.550888 198.102433 
L 86.899325 198.102433 
L 86.899325 180.424308 
L 72.550888 180.424308 
z
" style="fill:#ffffff;stroke:#ffffff;stroke-linejoin:miter;"/>
    </g>
    <!-- b -->
    <defs>
     <path d="M 48.6875 27.296875 
Q 48.6875 37.203125 44.609375 42.84375 
Q 40.53125 48.484375 33.40625 48.484375 
Q 26.265625 48.484375 22.1875 42.84375 
Q 18.109375 37.203125 18.109375 27.296875 
Q 18.109375 17.390625 22.1875 11.75 
Q 26.265625 6.109375 33.40625 6.109375 
Q 40.53125 6.109375 44.609375 11.75 
Q 48.6875 17.390625 48.6875 27.296875 
z
M 18.109375 46.390625 
Q 20.953125 51.265625 25.265625 53.625 
Q 29.59375 56 35.59375 56 
Q 45.5625 56 51.78125 48.09375 
Q 58.015625 40.1875 58.015625 27.296875 
Q 58.015625 14.40625 51.78125 6.484375 
Q 45.5625 -1.421875 35.59375 -1.421875 
Q 29.59375 -1.421875 25.265625 0.953125 
Q 20.953125 3.328125 18.109375 8.203125 
L 18.109375 0 
L 9.078125 0 
L 9.078125 75.984375 
L 18.109375 75.984375 
z
" id="DejaVuSans-62"/>
    </defs>
    <g style="fill:#0000ff;" transform="translate(76.550888 192.022745)scale(0.1 -0.1)">
     <use xlink:href="#DejaVuSans-62"/>
    </g>
   </g>
   <g id="text_3">
    <g id="patch_15">
     <path d="M 236.951644 116.566184 
L 251.079769 116.566184 
L 251.079769 98.888059 
L 236.951644 98.888059 
z
" style="fill:#ffffff;stroke:#ffffff;stroke-linejoin:miter;"/>
    </g>
    <!-- a -->
    <g style="fill:#0000ff;" transform="translate(240.951644 110.486496)scale(0.1 -0.1)">
     <use xlink:href="#DejaVuSans-61"/>
    </g>
   </g>
   <g id="text_4">
    <g id="patch_16">
     <path d="M 222.363167 82.564994 
L 236.711605 82.564994 
L 236.711605 64.886869 
L 222.363167 64.886869 
z
" style="fill:#ffffff;stroke:#ffffff;stroke-linejoin:miter;"/>
    </g>
    <!-- b -->
    <g style="fill:#0000ff;" transform="translate(226.363167 76.485306)scale(0.1 -0.1)">
     <use xlink:href="#DejaVuSans-62"/>
    </g>
   </g>
   <g id="text_5">
    <g id="patch_17">
     <path d="M 315.674688 93.90705 
L 329.802813 93.90705 
L 329.802813 76.228925 
L 315.674688 76.228925 
z
" style="fill:#ffffff;stroke:#ffffff;stroke-linejoin:miter;"/>
    </g>
    <!-- a -->
    <g style="fill:#0000ff;" transform="translate(319.674688 87.827363)scale(0.1 -0.1)">
     <use xlink:href="#DejaVuSans-61"/>
    </g>
   </g>
   <g id="text_6">
    <g id="patch_18">
     <path d="M 309.978195 57.376302 
L 324.326633 57.376302 
L 324.326633 39.698177 
L 309.978195 39.698177 
z
" style="fill:#ffffff;stroke:#ffffff;stroke-linejoin:miter;"/>
    </g>
    <!-- b -->
    <g style="fill:#0000ff;" transform="translate(313.978195 51.296615)scale(0.1 -0.1)">
     <use xlink:href="#DejaVuSans-62"/>
    </g>
   </g>
   <g id="text_7">
    <g id="patch_19">
     <path d="M 163.121314 159.766078 
L 177.249439 159.766078 
L 177.249439 142.087953 
L 163.121314 142.087953 
z
" style="fill:#ffffff;stroke:#ffffff;stroke-linejoin:miter;"/>
    </g>
    <!-- a -->
    <g style="fill:#0000ff;" transform="translate(167.121314 153.68639)scale(0.1 -0.1)">
     <use xlink:href="#DejaVuSans-61"/>
    </g>
   </g>
   <g id="text_8">
    <g id="patch_20">
     <path d="M 140.596948 130.38401 
L 154.945386 130.38401 
L 154.945386 112.705885 
L 140.596948 112.705885 
z
" style="fill:#ffffff;stroke:#ffffff;stroke-linejoin:miter;"/>
    </g>
    <!-- b -->
    <g style="fill:#0000ff;" transform="translate(144.596948 124.304323)scale(0.1 -0.1)">
     <use xlink:href="#DejaVuSans-62"/>
    </g>
   </g>
   <g id="text_9">
    <g id="patch_21">
     <path d="M 38.588473 278.030345 
L 52.936911 278.030345 
L 52.936911 260.35222 
L 38.588473 260.35222 
z
" style="fill:#ffffff;stroke:#ffffff;stroke-linejoin:miter;"/>
    </g>
    <!-- b -->
    <g style="fill:#0000ff;" transform="translate(42.588473 271.950658)scale(0.1 -0.1)">
     <use xlink:href="#DejaVuSans-62"/>
    </g>
   </g>
   <g id="text_10">
    <g id="patch_22">
     <path d="M 391.855446 61.597898 
L 405.983571 61.597898 
L 405.983571 43.919773 
L 391.855446 43.919773 
z
" style="fill:#ffffff;stroke:#ffffff;stroke-linejoin:miter;"/>
    </g>
    <!-- a -->
    <g style="fill:#0000ff;" transform="translate(395.855446 55.51821)scale(0.1 -0.1)">
     <use xlink:href="#DejaVuSans-61"/>
    </g>
   </g>
   <g id="patch_23">
    <path d="M 66.511419 250.51313 
C 70.152485 250.51313 73.644912 249.06652 76.219535 246.491897 
C 78.794157 243.917275 80.240768 240.424847 80.240768 236.783781 
C 80.240768 233.142715 78.794157 229.650287 76.219535 227.075665 
C 73.644912 224.501042 70.152485 223.054432 66.511419 223.054432 
C 62.870353 223.054432 59.377925 224.501042 56.803303 227.075665 
C 54.22868 229.650287 52.782069 233.142715 52.782069 236.783781 
C 52.782069 240.424847 54.22868 243.917275 56.803303 246.491897 
C 59.377925 249.06652 62.870353 250.51313 66.511419 250.51313 
z
" style="fill:#fec7b8;stroke:#000000;stroke-linejoin:miter;"/>
   </g>
   <g id="patch_24">
    <path d="M 122.241633 177.99 
C 125.882699 177.99 129.375126 176.543389 131.949749 173.968767 
C 134.524371 171.394144 135.970982 167.901717 135.970982 164.260651 
C 135.970982 160.619585 134.524371 157.127157 131.949749 154.552534 
C 129.375126 151.977912 125.882699 150.531301 122.241633 150.531301 
C 118.600567 150.531301 115.108139 151.977912 112.533517 154.552534 
C 109.958894 157.127157 108.512283 160.619585 108.512283 164.260651 
C 108.512283 167.901717 109.958894 171.394144 112.533517 173.968767 
C 115.108139 176.543389 118.600567 177.99 122.241633 177.99 
z
" style="fill:#fec7b8;stroke:#000000;stroke-linejoin:miter;"/>
   </g>
   <g id="patch_25">
    <path d="M 195.714911 121.940662 
C 199.355977 121.940662 202.848404 120.494051 205.423027 117.919429 
C 207.997649 115.344806 209.44426 111.852378 209.44426 108.211312 
C 209.44426 104.570246 207.997649 101.077819 205.423027 98.503196 
C 202.848404 95.928574 199.355977 94.481963 195.714911 94.481963 
C 192.073845 94.481963 188.581417 95.928574 186.006795 98.503196 
C 183.432172 101.077819 181.985561 104.570246 181.985561 108.211312 
C 181.985561 111.852378 183.432172 115.344806 186.006795 117.919429 
C 188.581417 120.494051 192.073845 121.940662 195.714911 121.940662 
z
" style="fill:#fec7b8;stroke:#000000;stroke-linejoin:miter;"/>
   </g>
   <g id="patch_26">
    <path d="M 277.838182 86.971089 
C 281.479248 86.971089 284.971676 85.524479 287.546298 82.949856 
C 290.12092 80.375234 291.567531 76.882806 291.567531 73.24174 
C 291.567531 69.600674 290.12092 66.108246 287.546298 63.533624 
C 284.971676 60.959001 281.479248 59.512391 277.838182 59.512391 
C 274.197116 59.512391 270.704688 60.959001 268.130066 63.533624 
C 265.555443 66.108246 264.108833 69.600674 264.108833 73.24174 
C 264.108833 76.882806 265.555443 80.375234 268.130066 82.949856 
C 270.704688 85.524479 274.197116 86.971089 277.838182 86.971089 
z
" style="fill:#fec7b8;stroke:#000000;stroke-linejoin:miter;"/>
   </g>
   <g id="patch_27">
    <path d="M 362.052982 74.092837 
C 365.694049 74.092837 369.186476 72.646226 371.761099 70.071604 
C 374.335721 67.496981 375.782332 64.004554 375.782332 60.363488 
C 375.782332 56.722422 374.335721 53.229994 371.761099 50.655372 
C 369.186476 48.080749 365.694049 46.634138 362.052982 46.634138 
C 358.411916 46.634138 354.919489 48.080749 352.344866 50.655372 
C 349.770244 53.229994 348.323633 56.722422 348.323633 60.363488 
C 348.323633 64.004554 349.770244 67.496981 352.344866 70.071604 
C 354.919489 72.646226 358.411916 74.092837 362.052982 74.092837 
z
" style="fill:#fec7b8;stroke:#000000;stroke-linejoin:miter;"/>
   </g>
   <g id="patch_28">
    <path d="M 435.786035 58.883532 
C 439.427101 58.883532 442.919529 57.436921 445.494151 54.862299 
C 448.068774 52.287676 449.515385 48.795249 449.515385 45.154183 
C 449.515385 41.513117 448.068774 38.020689 445.494151 35.446067 
C 442.919529 32.871444 439.427101 31.424833 435.786035 31.424833 
C 432.144969 31.424833 428.652542 32.871444 426.077919 35.446067 
C 423.503297 38.020689 422.056686 41.513117 422.056686 45.154183 
C 422.056686 48.795249 423.503297 52.287676 426.077919 54.862299 
C 428.652542 57.436921 432.144969 58.883532 435.786035 58.883532 
z
" style="fill:#fec7b8;stroke:#000000;stroke-linejoin:miter;"/>
   </g>
   <g id="patch_29">
    <path d="M 25.013965 315.328134 
C 28.655031 315.328134 32.147458 313.881523 34.722081 311.306901 
C 37.296703 308.732278 38.743314 305.239851 38.743314 301.598785 
C 38.743314 297.957719 37.296703 294.465291 34.722081 291.890669 
C 32.147458 289.316046 28.655031 287.869435 25.013965 287.869435 
C 21.372899 287.869435 17.880471 289.316046 15.305849 291.890669 
C 12.731226 294.465291 11.284615 297.957719 11.284615 301.598785 
C 11.284615 305.239851 12.731226 308.732278 15.305849 311.306901 
C 17.880471 313.881523 21.372899 315.328134 25.013965 315.328134 
z
" style="fill:#fec7b8;stroke:#000000;stroke-linejoin:miter;"/>
   </g>
   <g id="text_11">
    <!-- 2 -->
    <defs>
     <path d="M 19.1875 8.296875 
L 53.609375 8.296875 
L 53.609375 0 
L 7.328125 0 
L 7.328125 8.296875 
Q 12.9375 14.109375 22.625 23.890625 
Q 32.328125 33.6875 34.8125 36.53125 
Q 39.546875 41.84375 41.421875 45.53125 
Q 43.3125 49.21875 43.3125 52.78125 
Q 43.3125 58.59375 39.234375 62.25 
Q 35.15625 65.921875 28.609375 65.921875 
Q 23.96875 65.921875 18.8125 64.3125 
Q 13.671875 62.703125 7.8125 59.421875 
L 7.8125 69.390625 
Q 13.765625 71.78125 18.9375 73 
Q 24.125 74.21875 28.421875 74.21875 
Q 39.75 74.21875 46.484375 68.546875 
Q 53.21875 62.890625 53.21875 53.421875 
Q 53.21875 48.921875 51.53125 44.890625 
Q 49.859375 40.875 45.40625 35.40625 
Q 44.1875 33.984375 37.640625 27.21875 
Q 31.109375 20.453125 19.1875 8.296875 
z
" id="DejaVuSans-32"/>
    </defs>
    <g transform="translate(192.533661 110.970687)scale(0.1 -0.1)">
     <use xlink:href="#DejaVuSans-32"/>
    </g>
   </g>
   <g id="text_12">
    <!-- 3 -->
    <defs>
     <path d="M 40.578125 39.3125 
Q 47.65625 37.796875 51.625 33 
Q 55.609375 28.21875 55.609375 21.1875 
Q 55.609375 10.40625 48.1875 4.484375 
Q 40.765625 -1.421875 27.09375 -1.421875 
Q 22.515625 -1.421875 17.65625 -0.515625 
Q 12.796875 0.390625 7.625 2.203125 
L 7.625 11.71875 
Q 11.71875 9.328125 16.59375 8.109375 
Q 21.484375 6.890625 26.8125 6.890625 
Q 36.078125 6.890625 40.9375 10.546875 
Q 45.796875 14.203125 45.796875 21.1875 
Q 45.796875 27.640625 41.28125 31.265625 
Q 36.765625 34.90625 28.71875 34.90625 
L 20.21875 34.90625 
L 20.21875 43.015625 
L 29.109375 43.015625 
Q 36.375 43.015625 40.234375 45.921875 
Q 44.09375 48.828125 44.09375 54.296875 
Q 44.09375 59.90625 40.109375 62.90625 
Q 36.140625 65.921875 28.71875 65.921875 
Q 24.65625 65.921875 20.015625 65.03125 
Q 15.375 64.15625 9.8125 62.3125 
L 9.8125 71.09375 
Q 15.4375 72.65625 20.34375 73.4375 
Q 25.25 74.21875 29.59375 74.21875 
Q 40.828125 74.21875 47.359375 69.109375 
Q 53.90625 64.015625 53.90625 55.328125 
Q 53.90625 49.265625 50.4375 45.09375 
Q 46.96875 40.921875 40.578125 39.3125 
z
" id="DejaVuSans-33"/>
    </defs>
    <g transform="translate(274.656932 76.001115)scale(0.1 -0.1)">
     <use xlink:href="#DejaVuSans-33"/>
    </g>
   </g>
   <g id="text_13">
    <!-- 4 -->
    <defs>
     <path d="M 37.796875 64.3125 
L 12.890625 25.390625 
L 37.796875 25.390625 
z
M 35.203125 72.90625 
L 47.609375 72.90625 
L 47.609375 25.390625 
L 58.015625 25.390625 
L 58.015625 17.1875 
L 47.609375 17.1875 
L 47.609375 0 
L 37.796875 0 
L 37.796875 17.1875 
L 4.890625 17.1875 
L 4.890625 26.703125 
z
" id="DejaVuSans-34"/>
    </defs>
    <g transform="translate(358.871732 63.122863)scale(0.1 -0.1)">
     <use xlink:href="#DejaVuSans-34"/>
    </g>
   </g>
   <g id="text_14">
    <!-- 5 -->
    <defs>
     <path d="M 10.796875 72.90625 
L 49.515625 72.90625 
L 49.515625 64.59375 
L 19.828125 64.59375 
L 19.828125 46.734375 
Q 21.96875 47.46875 24.109375 47.828125 
Q 26.265625 48.1875 28.421875 48.1875 
Q 40.625 48.1875 47.75 41.5 
Q 54.890625 34.8125 54.890625 23.390625 
Q 54.890625 11.625 47.5625 5.09375 
Q 40.234375 -1.421875 26.90625 -1.421875 
Q 22.3125 -1.421875 17.546875 -0.640625 
Q 12.796875 0.140625 7.71875 1.703125 
L 7.71875 11.625 
Q 12.109375 9.234375 16.796875 8.0625 
Q 21.484375 6.890625 26.703125 6.890625 
Q 35.15625 6.890625 40.078125 11.328125 
Q 45.015625 15.765625 45.015625 23.390625 
Q 45.015625 31 40.078125 35.4375 
Q 35.15625 39.890625 26.703125 39.890625 
Q 22.75 39.890625 18.8125 39.015625 
Q 14.890625 38.140625 10.796875 36.28125 
z
" id="DejaVuSans-35"/>
    </defs>
    <g transform="translate(432.604785 47.913558)scale(0.1 -0.1)">
     <use xlink:href="#DejaVuSans-35"/>
    </g>
   </g>
   <g id="text_15">
    <!-- -1 -->
    <defs>
     <path d="M 4.890625 31.390625 
L 31.203125 31.390625 
L 31.203125 23.390625 
L 4.890625 23.390625 
z
" id="DejaVuSans-2d"/>
     <path d="M 12.40625 8.296875 
L 28.515625 8.296875 
L 28.515625 63.921875 
L 10.984375 60.40625 
L 10.984375 69.390625 
L 28.421875 72.90625 
L 38.28125 72.90625 
L 38.28125 8.296875 
L 54.390625 8.296875 
L 54.390625 0 
L 12.40625 0 
z
" id="DejaVuSans-31"/>
    </defs>
    <g transform="translate(20.028809 304.35816)scale(0.1 -0.1)">
     <use xlink:href="#DejaVuSans-2d"/>
     <use x="36.083984" xlink:href="#DejaVuSans-31"/>
    </g>
   </g>
   <g id="text_16">
    <!-- 0 -->
    <defs>
     <path d="M 31.78125 66.40625 
Q 24.171875 66.40625 20.328125 58.90625 
Q 16.5 51.421875 16.5 36.375 
Q 16.5 21.390625 20.328125 13.890625 
Q 24.171875 6.390625 31.78125 6.390625 
Q 39.453125 6.390625 43.28125 13.890625 
Q 47.125 21.390625 47.125 36.375 
Q 47.125 51.421875 43.28125 58.90625 
Q 39.453125 66.40625 31.78125 66.40625 
z
M 31.78125 74.21875 
Q 44.046875 74.21875 50.515625 64.515625 
Q 56.984375 54.828125 56.984375 36.375 
Q 56.984375 17.96875 50.515625 8.265625 
Q 44.046875 -1.421875 31.78125 -1.421875 
Q 19.53125 -1.421875 13.0625 8.265625 
Q 6.59375 17.96875 6.59375 36.375 
Q 6.59375 54.828125 13.0625 64.515625 
Q 19.53125 74.21875 31.78125 74.21875 
z
" id="DejaVuSans-30"/>
    </defs>
    <g transform="translate(63.330169 239.543156)scale(0.1 -0.1)">
     <use xlink:href="#DejaVuSans-30"/>
    </g>
   </g>
   <g id="text_17">
    <!-- 1 -->
    <g transform="translate(119.060383 167.020026)scale(0.1 -0.1)">
     <use xlink:href="#DejaVuSans-31"/>
    </g>
   </g>
  </g>
 </g>
 <defs>
  <clipPath id="pfd71bc4f41">
   <rect height="296.458519" width="455.76" x="2.52" y="24.57074"/>
  </clipPath>
 </defs>
</svg>
