<?xml version="1.0" encoding="utf-8" standalone="no"?>
<!DOCTYPE svg PUBLIC "-//W3C//DTD SVG 1.1//EN"
  "http://www.w3.org/Graphics/SVG/1.1/DTD/svg11.dtd">
<svg xmlns:xlink="http://www.w3.org/1999/xlink" width="460.8pt" height="345.6pt" viewBox="0 0 460.8 345.6" xmlns="http://www.w3.org/2000/svg" version="1.1">
 <metadata>
  <rdf:RDF xmlns:dc="http://purl.org/dc/elements/1.1/" xmlns:cc="http://creativecommons.org/ns#" xmlns:rdf="http://www.w3.org/1999/02/22-rdf-syntax-ns#">
   <cc:Work>
    <dc:type rdf:resource="http://purl.org/dc/dcmitype/StillImage"/>
    <dc:date>2022-09-21T15:16:05.774257</dc:date>
    <dc:format>image/svg+xml</dc:format>
    <dc:creator>
     <cc:Agent>
      <dc:title>Matplotlib v3.5.2, https://matplotlib.org/</dc:title>
     </cc:Agent>
    </dc:creator>
   </cc:Work>
  </rdf:RDF>
 </metadata>
 <defs>
  <style type="text/css">*{stroke-linejoin: round; stroke-linecap: butt}</style>
 </defs>
 <g id="figure_1">
  <g id="patch_1">
   <path d="M 0 345.6 
L 460.8 345.6 
L 460.8 0 
L 0 0 
z
" style="fill: #ffffff"/>
  </g>
  <g id="axes_1">
   <g id="patch_2">
    <path d="M 161.890661 345.6 
L 298.909339 345.6 
L 298.909339 0 
L 161.890661 0 
z
" style="fill: #ffffff"/>
   </g>
   <g id="patch_3">
    <path d="M 254.738601 107.772733 
Q 290.230853 73.709691 287.866702 26.811909 
" clip-path="url(#pab6c141202)" style="fill: none; stroke: #000000; stroke-width: 2; stroke-linecap: round"/>
    <path d="M 283.376511 37.05096 
L 287.866702 26.811909 
L 293.363829 36.547493 
L 283.376511 37.05096 
z
" clip-path="url(#pab6c141202)" style="stroke: #000000; stroke-width: 2; stroke-linecap: round"/>
   </g>
   <g id="patch_4">
    <path d="M 247.701195 102.791387 
Q 245.337044 55.893604 280.829296 21.830562 
" clip-path="url(#pab6c141202)" style="fill: none; stroke: #000000; stroke-width: 2; stroke-linecap: round"/>
    <path d="M 252.191386 92.552335 
L 247.701195 102.791387 
L 242.204068 93.055802 
L 252.191386 92.552335 
z
" clip-path="url(#pab6c141202)" style="stroke: #000000; stroke-width: 2; stroke-linecap: round"/>
   </g>
   <g id="matplotlib.axis_1"/>
   <g id="matplotlib.axis_2"/>
   <g id="patch_5">
    <path d="M 240.898135 119.10555 
Q 210.881534 139.967301 182.701089 159.552911 
" clip-path="url(#pab6c141202)" style="fill: none; stroke: #000000; stroke-width: 2; stroke-linecap: round"/>
    <path d="M 193.76616 157.951604 
L 182.701089 159.552911 
L 188.059085 149.740069 
L 193.76616 157.951604 
z
" clip-path="url(#pab6c141202)" style="stroke: #000000; stroke-width: 2; stroke-linecap: round"/>
   </g>
   <g id="patch_6">
    <path d="M 247.548827 122.928473 
Q 243.897071 168.499422 240.423927 211.841448 
" clip-path="url(#pab6c141202)" style="fill: none; stroke: #000000; stroke-width: 2; stroke-linecap: round"/>
    <path d="M 246.206724 202.272788 
L 240.423927 211.841448 
L 236.238677 201.474014 
L 246.206724 202.272788 
z
" clip-path="url(#pab6c141202)" style="stroke: #000000; stroke-width: 2; stroke-linecap: round"/>
   </g>
   <g id="patch_7">
    <path d="M 181.977695 173.277946 
Q 206.513123 194.481533 232.740384 217.147206 
" clip-path="url(#pab6c141202)" style="fill: none; stroke: #000000; stroke-width: 2; stroke-linecap: round"/>
    <path d="M 186.274478 183.599654 
L 181.977695 173.277946 
L 192.813131 176.033545 
L 186.274478 183.599654 
z
" clip-path="url(#pab6c141202)" style="stroke: #000000; stroke-width: 2; stroke-linecap: round"/>
   </g>
   <g id="patch_8">
    <path d="M 240.914457 231.877934 
Q 247.890101 276.497775 254.520365 318.908382 
" clip-path="url(#pab6c141202)" style="fill: none; stroke: #000000; stroke-width: 2; stroke-linecap: round"/>
    <path d="M 257.915772 308.256096 
L 254.520365 318.908382 
L 248.03578 309.800685 
L 257.915772 308.256096 
z
" clip-path="url(#pab6c141202)" style="stroke: #000000; stroke-width: 2; stroke-linecap: round"/>
   </g>
   <g id="patch_9">
    <path d="M 248.265483 122.957141 
C 250.644872 122.957141 252.927127 122.0118 254.60961 120.329318 
C 256.292092 118.646836 257.237433 116.36458 257.237433 113.985191 
C 257.237433 111.605802 256.292092 109.323546 254.60961 107.641064 
C 252.927127 105.958582 250.644872 105.01324 248.265483 105.01324 
C 245.886094 105.01324 243.603838 105.958582 241.921356 107.641064 
C 240.238873 109.323546 239.293532 111.605802 239.293532 113.985191 
C 239.293532 116.36458 240.238873 118.646836 241.921356 120.329318 
C 243.603838 122.0118 245.886094 122.957141 248.265483 122.957141 
z
" style="fill: #fec7b8; stroke: #000000; stroke-linejoin: miter"/>
   </g>
   <g id="patch_10">
    <path d="M 173.497586 174.921362 
C 175.876975 174.921362 178.159231 173.97602 179.841713 172.293538 
C 181.524195 170.611056 182.469536 168.3288 182.469536 165.949411 
C 182.469536 163.570022 181.524195 161.287767 179.841713 159.605284 
C 178.159231 157.922802 175.876975 156.977461 173.497586 156.977461 
C 171.118197 156.977461 168.835941 157.922802 167.153459 159.605284 
C 165.470977 161.287767 164.525635 163.570022 164.525635 165.949411 
C 164.525635 168.3288 165.470977 170.611056 167.153459 172.293538 
C 168.835941 173.97602 171.118197 174.921362 173.497586 174.921362 
z
" style="fill: #fec7b8; stroke: #000000; stroke-linejoin: miter"/>
   </g>
   <g id="patch_11">
    <path d="M 239.52866 231.985604 
C 241.908049 231.985604 244.190304 231.040263 245.872787 229.357781 
C 247.555269 227.675299 248.50061 225.393043 248.50061 223.013654 
C 248.50061 220.634265 247.555269 218.352009 245.872787 216.669527 
C 244.190304 214.987045 241.908049 214.041703 239.52866 214.041703 
C 237.149271 214.041703 234.867015 214.987045 233.184533 216.669527 
C 231.502051 218.352009 230.556709 220.634265 230.556709 223.013654 
C 230.556709 225.393043 231.502051 227.675299 233.184533 229.357781 
C 234.867015 231.040263 237.149271 231.985604 239.52866 231.985604 
z
" style="fill: #fec7b8; stroke: #000000; stroke-linejoin: miter"/>
   </g>
   <g id="patch_12">
    <path d="M 287.302414 24.590055 
C 289.681803 24.590055 291.964059 23.644713 293.646541 21.962231 
C 295.329023 20.279749 296.274365 17.997493 296.274365 15.618104 
C 296.274365 13.238715 295.329023 10.956459 293.646541 9.273977 
C 291.964059 7.591495 289.681803 6.646154 287.302414 6.646154 
C 284.923025 6.646154 282.640769 7.591495 280.958287 9.273977 
C 279.275805 10.956459 278.330464 13.238715 278.330464 15.618104 
C 278.330464 17.997493 279.275805 20.279749 280.958287 21.962231 
C 282.640769 23.644713 284.923025 24.590055 287.302414 24.590055 
z
" style="fill: #fec7b8; stroke: #000000; stroke-linejoin: miter"/>
   </g>
   <g id="patch_13">
    <path d="M 256.251543 338.953846 
C 258.630932 338.953846 260.913187 338.008505 262.59567 336.326023 
C 264.278152 334.643541 265.223493 332.361285 265.223493 329.981896 
C 265.223493 327.602507 264.278152 325.320251 262.59567 323.637769 
C 260.913187 321.955287 258.630932 321.009945 256.251543 321.009945 
C 253.872154 321.009945 251.589898 321.955287 249.907416 323.637769 
C 248.224934 325.320251 247.279592 327.602507 247.279592 329.981896 
C 247.279592 332.361285 248.224934 334.643541 249.907416 336.326023 
C 251.589898 338.008505 253.872154 338.953846 256.251543 338.953846 
z
" style="fill: #fec7b8; stroke: #000000; stroke-linejoin: miter"/>
   </g>
   <g id="text_1">
    <!-- 0 -->
    <g transform="translate(245.084233 116.744566)scale(0.1 -0.1)">
     <defs>
      <path id="DejaVuSans-30" d="M 2034 4250 
Q 1547 4250 1301 3770 
Q 1056 3291 1056 2328 
Q 1056 1369 1301 889 
Q 1547 409 2034 409 
Q 2525 409 2770 889 
Q 3016 1369 3016 2328 
Q 3016 3291 2770 3770 
Q 2525 4250 2034 4250 
z
M 2034 4750 
Q 2819 4750 3233 4129 
Q 3647 3509 3647 2328 
Q 3647 1150 3233 529 
Q 2819 -91 2034 -91 
Q 1250 -91 836 529 
Q 422 1150 422 2328 
Q 422 3509 836 4129 
Q 1250 4750 2034 4750 
z
" transform="scale(0.015625)"/>
     </defs>
     <use xlink:href="#DejaVuSans-30"/>
    </g>
   </g>
   <g id="text_2">
    <!-- 1 -->
    <g transform="translate(170.316336 168.708786)scale(0.1 -0.1)">
     <defs>
      <path id="DejaVuSans-31" d="M 794 531 
L 1825 531 
L 1825 4091 
L 703 3866 
L 703 4441 
L 1819 4666 
L 2450 4666 
L 2450 531 
L 3481 531 
L 3481 0 
L 794 0 
L 794 531 
z
" transform="scale(0.015625)"/>
     </defs>
     <use xlink:href="#DejaVuSans-31"/>
    </g>
   </g>
   <g id="text_3">
    <!-- 2 -->
    <g transform="translate(236.34741 225.773029)scale(0.1 -0.1)">
     <defs>
      <path id="DejaVuSans-32" d="M 1228 531 
L 3431 531 
L 3431 0 
L 469 0 
L 469 531 
Q 828 903 1448 1529 
Q 2069 2156 2228 2338 
Q 2531 2678 2651 2914 
Q 2772 3150 2772 3378 
Q 2772 3750 2511 3984 
Q 2250 4219 1831 4219 
Q 1534 4219 1204 4116 
Q 875 4013 500 3803 
L 500 4441 
Q 881 4594 1212 4672 
Q 1544 4750 1819 4750 
Q 2544 4750 2975 4387 
Q 3406 4025 3406 3419 
Q 3406 3131 3298 2873 
Q 3191 2616 2906 2266 
Q 2828 2175 2409 1742 
Q 1991 1309 1228 531 
z
" transform="scale(0.015625)"/>
     </defs>
     <use xlink:href="#DejaVuSans-32"/>
    </g>
   </g>
   <g id="text_4">
    <!-- 3 -->
    <g transform="translate(284.121164 18.377479)scale(0.1 -0.1)">
     <defs>
      <path id="DejaVuSans-33" d="M 2597 2516 
Q 3050 2419 3304 2112 
Q 3559 1806 3559 1356 
Q 3559 666 3084 287 
Q 2609 -91 1734 -91 
Q 1441 -91 1130 -33 
Q 819 25 488 141 
L 488 750 
Q 750 597 1062 519 
Q 1375 441 1716 441 
Q 2309 441 2620 675 
Q 2931 909 2931 1356 
Q 2931 1769 2642 2001 
Q 2353 2234 1838 2234 
L 1294 2234 
L 1294 2753 
L 1863 2753 
Q 2328 2753 2575 2939 
Q 2822 3125 2822 3475 
Q 2822 3834 2567 4026 
Q 2313 4219 1838 4219 
Q 1578 4219 1281 4162 
Q 984 4106 628 3988 
L 628 4550 
Q 988 4650 1302 4700 
Q 1616 4750 1894 4750 
Q 2613 4750 3031 4423 
Q 3450 4097 3450 3541 
Q 3450 3153 3228 2886 
Q 3006 2619 2597 2516 
z
" transform="scale(0.015625)"/>
     </defs>
     <use xlink:href="#DejaVuSans-33"/>
    </g>
   </g>
   <g id="text_5">
    <!-- 4 -->
    <g transform="translate(253.070293 332.741271)scale(0.1 -0.1)">
     <defs>
      <path id="DejaVuSans-34" d="M 2419 4116 
L 825 1625 
L 2419 1625 
L 2419 4116 
z
M 2253 4666 
L 3047 4666 
L 3047 1625 
L 3713 1625 
L 3713 1100 
L 3047 1100 
L 3047 0 
L 2419 0 
L 2419 1100 
L 313 1100 
L 313 1709 
L 2253 4666 
z
" transform="scale(0.015625)"/>
     </defs>
     <use xlink:href="#DejaVuSans-34"/>
    </g>
   </g>
  </g>
 </g>
 <defs>
  <clipPath id="pab6c141202">
   <rect x="161.890661" y="0" width="137.018679" height="345.6"/>
  </clipPath>
 </defs>
</svg>
