<?xml version="1.0" encoding="utf-8" standalone="no"?>
<!DOCTYPE svg PUBLIC "-//W3C//DTD SVG 1.1//EN"
  "http://www.w3.org/Graphics/SVG/1.1/DTD/svg11.dtd">
<!-- Created with matplotlib (http://matplotlib.org/) -->
<svg height="345.6pt" version="1.1" viewBox="0 0 460.8 345.6" width="460.8pt" xmlns="http://www.w3.org/2000/svg" xmlns:xlink="http://www.w3.org/1999/xlink">
 <defs>
  <style type="text/css">
*{stroke-linecap:butt;stroke-linejoin:round;}
  </style>
 </defs>
 <g id="figure_1">
  <g id="patch_1">
   <path d="M 0 345.6 
L 460.8 345.6 
L 460.8 0 
L 0 0 
z
" style="fill:#ffffff;"/>
  </g>
  <g id="axes_1">
   <g id="patch_2">
    <path d="M 2.52 266.608161 
L 458.28 266.608161 
L 458.28 78.991839 
L 2.52 78.991839 
z
" style="fill:#ffffff;"/>
   </g>
   <g id="patch_3">
    <path clip-path="url(#pdb92b29586)" d="M 42.513094 196.522788 
Q 142.162021 202.866718 227.062713 154.695347 
" style="fill:none;stroke:#7fff00;stroke-linecap:round;stroke-width:2;"/>
    <path clip-path="url(#pdb92b29586)" d="M 215.897745 155.28143 
L 227.062713 154.695347 
L 220.832599 163.978971 
L 215.897745 155.28143 
z
" style="fill:#7fff00;stroke:#7fff00;stroke-linecap:round;stroke-width:2;"/>
   </g>
   <g id="patch_4">
    <path clip-path="url(#pdb92b29586)" d="M 41.47382 192.00812 
Q 128.319341 142.733282 225.736718 148.935145 
" style="fill:none;stroke:#7fff00;stroke-linecap:round;stroke-width:2;"/>
    <path clip-path="url(#pdb92b29586)" d="M 216.074592 143.309905 
L 225.736718 148.935145 
L 215.439251 153.289702 
L 216.074592 143.309905 
z
" style="fill:#7fff00;stroke:#7fff00;stroke-linecap:round;stroke-width:2;"/>
   </g>
   <g id="patch_5">
    <path clip-path="url(#pdb92b29586)" d="M 42.139267 198.492384 
Q 149.083362 232.933437 228.590416 156.746854 
" style="fill:none;stroke:#7fff00;stroke-linecap:round;stroke-width:2;"/>
    <path clip-path="url(#pdb92b29586)" d="M 217.910841 160.055429 
L 228.590416 156.746854 
L 224.829531 167.27566 
L 217.910841 160.055429 
z
" style="fill:#7fff00;stroke:#7fff00;stroke-linecap:round;stroke-width:2;"/>
   </g>
   <g id="patch_6">
    <path clip-path="url(#pdb92b29586)" d="M 40.276453 190.400212 
Q 121.398001 112.666563 226.213679 146.422165 
" style="fill:none;stroke:#7fff00;stroke-linecap:round;stroke-width:2;"/>
    <path clip-path="url(#pdb92b29586)" d="M 218.227825 138.597452 
L 226.213679 146.422165 
L 215.162396 148.11602 
L 218.227825 138.597452 
z
" style="fill:#7fff00;stroke:#7fff00;stroke-linecap:round;stroke-width:2;"/>
   </g>
   <g id="patch_7">
    <path clip-path="url(#pdb92b29586)" d="M 41.523155 199.919333 
Q 156.004702 263.000155 230.093415 158.040532 
" style="fill:none;stroke:#00ff3f;stroke-linecap:round;stroke-width:2;"/>
    <path clip-path="url(#pdb92b29586)" d="M 220.241759 163.326822 
L 230.093415 158.040532 
L 228.411453 169.093631 
L 220.241759 163.326822 
z
" style="fill:#00ff3f;stroke:#00ff3f;stroke-linecap:round;stroke-width:2;"/>
   </g>
   <g id="patch_8">
    <path clip-path="url(#pdb92b29586)" d="M 39.098449 189.386267 
Q 114.476661 82.599845 226.999768 144.601541 
" style="fill:none;stroke:#00ffff;stroke-linecap:round;stroke-width:2;"/>
    <path clip-path="url(#pdb92b29586)" d="M 220.654357 135.396338 
L 226.999768 144.601541 
L 215.828359 144.154748 
L 220.654357 135.396338 
z
" style="fill:#00ffff;stroke:#00ffff;stroke-linecap:round;stroke-width:2;"/>
   </g>
   <g id="matplotlib.axis_1"/>
   <g id="matplotlib.axis_2"/>
   <g id="patch_9">
    <path clip-path="url(#pdb92b29586)" d="M 246.132576 147.264047 
Q 335.072891 126.713185 426.191871 105.658914 
" style="fill:none;stroke:#7f00ff;stroke-linecap:round;stroke-width:2;"/>
    <path clip-path="url(#pdb92b29586)" d="M 257.001518 149.884371 
L 246.132576 147.264047 
L 254.750201 140.141088 
L 257.001518 149.884371 
z
" style="fill:#7f00ff;stroke:#7f00ff;stroke-linecap:round;stroke-width:2;"/>
   </g>
   <g id="patch_10">
    <path clip-path="url(#pdb92b29586)" d="M 42.322894 194.189618 
Q 135.240681 172.8 225.979392 151.912004 
" style="fill:none;stroke:#003fff;stroke-linecap:round;stroke-width:2;"/>
    <path clip-path="url(#pdb92b29586)" d="M 215.112604 149.282763 
L 225.979392 151.912004 
L 217.355926 159.02789 
L 215.112604 149.282763 
z
" style="fill:#003fff;stroke:#003fff;stroke-linecap:round;stroke-width:2;"/>
   </g>
   <g id="text_1">
    <g id="patch_11">
     <path d="M 27.250206 235.699983 
L 41.598644 235.699983 
L 41.598644 218.021858 
L 27.250206 218.021858 
z
" style="fill:#ffffff;stroke:#ffffff;stroke-linejoin:miter;"/>
    </g>
    <!-- b -->
    <defs>
     <path d="M 48.6875 27.296875 
Q 48.6875 37.203125 44.609375 42.84375 
Q 40.53125 48.484375 33.40625 48.484375 
Q 26.265625 48.484375 22.1875 42.84375 
Q 18.109375 37.203125 18.109375 27.296875 
Q 18.109375 17.390625 22.1875 11.75 
Q 26.265625 6.109375 33.40625 6.109375 
Q 40.53125 6.109375 44.609375 11.75 
Q 48.6875 17.390625 48.6875 27.296875 
z
M 18.109375 46.390625 
Q 20.953125 51.265625 25.265625 53.625 
Q 29.59375 56 35.59375 56 
Q 45.5625 56 51.78125 48.09375 
Q 58.015625 40.1875 58.015625 27.296875 
Q 58.015625 14.40625 51.78125 6.484375 
Q 45.5625 -1.421875 35.59375 -1.421875 
Q 29.59375 -1.421875 25.265625 0.953125 
Q 20.953125 3.328125 18.109375 8.203125 
L 18.109375 0 
L 9.078125 0 
L 9.078125 75.984375 
L 18.109375 75.984375 
z
" id="DejaVuSans-62"/>
    </defs>
    <g style="fill:#0000ff;" transform="translate(31.250206 229.620295)scale(0.1 -0.1)">
     <use xlink:href="#DejaVuSans-62"/>
    </g>
   </g>
   <g id="text_2">
    <g id="patch_12">
     <path d="M 27.360362 251.126522 
L 41.488487 251.126522 
L 41.488487 233.448397 
L 27.360362 233.448397 
z
" style="fill:#ffffff;stroke:#ffffff;stroke-linejoin:miter;"/>
    </g>
    <!-- a -->
    <defs>
     <path d="M 34.28125 27.484375 
Q 23.390625 27.484375 19.1875 25 
Q 14.984375 22.515625 14.984375 16.5 
Q 14.984375 11.71875 18.140625 8.90625 
Q 21.296875 6.109375 26.703125 6.109375 
Q 34.1875 6.109375 38.703125 11.40625 
Q 43.21875 16.703125 43.21875 25.484375 
L 43.21875 27.484375 
z
M 52.203125 31.203125 
L 52.203125 0 
L 43.21875 0 
L 43.21875 8.296875 
Q 40.140625 3.328125 35.546875 0.953125 
Q 30.953125 -1.421875 24.3125 -1.421875 
Q 15.921875 -1.421875 10.953125 3.296875 
Q 6 8.015625 6 15.921875 
Q 6 25.140625 12.171875 29.828125 
Q 18.359375 34.515625 30.609375 34.515625 
L 43.21875 34.515625 
L 43.21875 35.40625 
Q 43.21875 41.609375 39.140625 45 
Q 35.0625 48.390625 27.6875 48.390625 
Q 23 48.390625 18.546875 47.265625 
Q 14.109375 46.140625 10.015625 43.890625 
L 10.015625 52.203125 
Q 14.9375 54.109375 19.578125 55.046875 
Q 24.21875 56 28.609375 56 
Q 40.484375 56 46.34375 49.84375 
Q 52.203125 43.703125 52.203125 31.203125 
z
" id="DejaVuSans-61"/>
    </defs>
    <g style="fill:#0000ff;" transform="translate(31.360362 245.046835)scale(0.1 -0.1)">
     <use xlink:href="#DejaVuSans-61"/>
    </g>
   </g>
   <g id="text_3">
    <g id="patch_13">
     <path d="M 132.941195 196.672422 
L 144.461508 196.672422 
L 144.461508 178.994297 
L 132.941195 178.994297 
z
" style="fill:#ffffff;stroke:#ffffff;stroke-linejoin:miter;"/>
    </g>
    <!-- f -->
    <defs>
     <path d="M 37.109375 75.984375 
L 37.109375 68.5 
L 28.515625 68.5 
Q 23.6875 68.5 21.796875 66.546875 
Q 19.921875 64.59375 19.921875 59.515625 
L 19.921875 54.6875 
L 34.71875 54.6875 
L 34.71875 47.703125 
L 19.921875 47.703125 
L 19.921875 0 
L 10.890625 0 
L 10.890625 47.703125 
L 2.296875 47.703125 
L 2.296875 54.6875 
L 10.890625 54.6875 
L 10.890625 58.5 
Q 10.890625 67.625 15.140625 71.796875 
Q 19.390625 75.984375 28.609375 75.984375 
z
" id="DejaVuSans-66"/>
    </defs>
    <g style="fill:#0000ff;" transform="translate(136.941195 190.592734)scale(0.1 -0.1)">
     <use xlink:href="#DejaVuSans-66"/>
    </g>
   </g>
   <g id="text_4">
    <g id="patch_14">
     <path d="M 126.019855 166.605703 
L 137.540167 166.605703 
L 137.540167 148.927578 
L 126.019855 148.927578 
z
" style="fill:#ffffff;stroke:#ffffff;stroke-linejoin:miter;"/>
    </g>
    <!-- f -->
    <g style="fill:#0000ff;" transform="translate(130.019855 160.526016)scale(0.1 -0.1)">
     <use xlink:href="#DejaVuSans-66"/>
    </g>
   </g>
   <g id="text_5">
    <g id="patch_15">
     <path d="M 136.401865 211.705781 
L 147.922178 211.705781 
L 147.922178 194.027656 
L 136.401865 194.027656 
z
" style="fill:#ffffff;stroke:#ffffff;stroke-linejoin:miter;"/>
    </g>
    <!-- f -->
    <g style="fill:#0000ff;" transform="translate(140.401865 205.626093)scale(0.1 -0.1)">
     <use xlink:href="#DejaVuSans-66"/>
    </g>
   </g>
   <g id="text_6">
    <g id="patch_16">
     <path d="M 122.559185 151.572344 
L 134.079497 151.572344 
L 134.079497 133.894219 
L 122.559185 133.894219 
z
" style="fill:#ffffff;stroke:#ffffff;stroke-linejoin:miter;"/>
    </g>
    <!-- f -->
    <g style="fill:#0000ff;" transform="translate(126.559185 145.492657)scale(0.1 -0.1)">
     <use xlink:href="#DejaVuSans-66"/>
    </g>
   </g>
   <g id="text_7">
    <g id="patch_17">
     <path d="M 138.546129 226.73914 
L 152.699254 226.73914 
L 152.699254 209.061015 
L 138.546129 209.061015 
z
" style="fill:#ffffff;stroke:#ffffff;stroke-linejoin:miter;"/>
    </g>
    <!-- e -->
    <defs>
     <path d="M 56.203125 29.59375 
L 56.203125 25.203125 
L 14.890625 25.203125 
Q 15.484375 15.921875 20.484375 11.0625 
Q 25.484375 6.203125 34.421875 6.203125 
Q 39.59375 6.203125 44.453125 7.46875 
Q 49.3125 8.734375 54.109375 11.28125 
L 54.109375 2.78125 
Q 49.265625 0.734375 44.1875 -0.34375 
Q 39.109375 -1.421875 33.890625 -1.421875 
Q 20.796875 -1.421875 13.15625 6.1875 
Q 5.515625 13.8125 5.515625 26.8125 
Q 5.515625 40.234375 12.765625 48.109375 
Q 20.015625 56 32.328125 56 
Q 43.359375 56 49.78125 48.890625 
Q 56.203125 41.796875 56.203125 29.59375 
z
M 47.21875 32.234375 
Q 47.125 39.59375 43.09375 43.984375 
Q 39.0625 48.390625 32.421875 48.390625 
Q 24.90625 48.390625 20.390625 44.140625 
Q 15.875 39.890625 15.1875 32.171875 
z
" id="DejaVuSans-65"/>
    </defs>
    <g style="fill:#0000ff;" transform="translate(142.546129 220.659452)scale(0.1 -0.1)">
     <use xlink:href="#DejaVuSans-65"/>
    </g>
   </g>
   <g id="text_8">
    <g id="patch_18">
     <path d="M 117.684452 136.538985 
L 132.03289 136.538985 
L 132.03289 118.86086 
L 117.684452 118.86086 
z
" style="fill:#ffffff;stroke:#ffffff;stroke-linejoin:miter;"/>
    </g>
    <!-- d -->
    <defs>
     <path d="M 45.40625 46.390625 
L 45.40625 75.984375 
L 54.390625 75.984375 
L 54.390625 0 
L 45.40625 0 
L 45.40625 8.203125 
Q 42.578125 3.328125 38.25 0.953125 
Q 33.9375 -1.421875 27.875 -1.421875 
Q 17.96875 -1.421875 11.734375 6.484375 
Q 5.515625 14.40625 5.515625 27.296875 
Q 5.515625 40.1875 11.734375 48.09375 
Q 17.96875 56 27.875 56 
Q 33.9375 56 38.25 53.625 
Q 42.578125 51.265625 45.40625 46.390625 
z
M 14.796875 27.296875 
Q 14.796875 17.390625 18.875 11.75 
Q 22.953125 6.109375 30.078125 6.109375 
Q 37.203125 6.109375 41.296875 11.75 
Q 45.40625 17.390625 45.40625 27.296875 
Q 45.40625 37.203125 41.296875 42.84375 
Q 37.203125 48.484375 30.078125 48.484375 
Q 22.953125 48.484375 18.875 42.84375 
Q 14.796875 37.203125 14.796875 27.296875 
z
" id="DejaVuSans-64"/>
    </defs>
    <g style="fill:#0000ff;" transform="translate(121.684452 130.459298)scale(0.1 -0.1)">
     <use xlink:href="#DejaVuSans-64"/>
    </g>
   </g>
   <g id="text_9">
    <g id="patch_19">
     <path d="M 426.920095 143.526353 
L 441.257595 143.526353 
L 441.257595 125.848228 
L 426.920095 125.848228 
z
" style="fill:#ffffff;stroke:#ffffff;stroke-linejoin:miter;"/>
    </g>
    <!-- h -->
    <defs>
     <path d="M 54.890625 33.015625 
L 54.890625 0 
L 45.90625 0 
L 45.90625 32.71875 
Q 45.90625 40.484375 42.875 44.328125 
Q 39.84375 48.1875 33.796875 48.1875 
Q 26.515625 48.1875 22.3125 43.546875 
Q 18.109375 38.921875 18.109375 30.90625 
L 18.109375 0 
L 9.078125 0 
L 9.078125 75.984375 
L 18.109375 75.984375 
L 18.109375 46.1875 
Q 21.34375 51.125 25.703125 53.5625 
Q 30.078125 56 35.796875 56 
Q 45.21875 56 50.046875 50.171875 
Q 54.890625 44.34375 54.890625 33.015625 
z
" id="DejaVuSans-68"/>
    </defs>
    <g style="fill:#0000ff;" transform="translate(430.920095 137.446665)scale(0.1 -0.1)">
     <use xlink:href="#DejaVuSans-68"/>
    </g>
   </g>
   <g id="text_10">
    <g id="patch_20">
     <path d="M 327.898673 135.552248 
L 342.24711 135.552248 
L 342.24711 117.874123 
L 327.898673 117.874123 
z
" style="fill:#ffffff;stroke:#ffffff;stroke-linejoin:miter;"/>
    </g>
    <!-- g -->
    <defs>
     <path d="M 45.40625 27.984375 
Q 45.40625 37.75 41.375 43.109375 
Q 37.359375 48.484375 30.078125 48.484375 
Q 22.859375 48.484375 18.828125 43.109375 
Q 14.796875 37.75 14.796875 27.984375 
Q 14.796875 18.265625 18.828125 12.890625 
Q 22.859375 7.515625 30.078125 7.515625 
Q 37.359375 7.515625 41.375 12.890625 
Q 45.40625 18.265625 45.40625 27.984375 
z
M 54.390625 6.78125 
Q 54.390625 -7.171875 48.1875 -13.984375 
Q 42 -20.796875 29.203125 -20.796875 
Q 24.46875 -20.796875 20.265625 -20.09375 
Q 16.0625 -19.390625 12.109375 -17.921875 
L 12.109375 -9.1875 
Q 16.0625 -11.328125 19.921875 -12.34375 
Q 23.78125 -13.375 27.78125 -13.375 
Q 36.625 -13.375 41.015625 -8.765625 
Q 45.40625 -4.15625 45.40625 5.171875 
L 45.40625 9.625 
Q 42.625 4.78125 38.28125 2.390625 
Q 33.9375 0 27.875 0 
Q 17.828125 0 11.671875 7.65625 
Q 5.515625 15.328125 5.515625 27.984375 
Q 5.515625 40.671875 11.671875 48.328125 
Q 17.828125 56 27.875 56 
Q 33.9375 56 38.28125 53.609375 
Q 42.625 51.21875 45.40625 46.390625 
L 45.40625 54.6875 
L 54.390625 54.6875 
z
" id="DejaVuSans-67"/>
    </defs>
    <g style="fill:#0000ff;" transform="translate(331.898673 129.47256)scale(0.1 -0.1)">
     <use xlink:href="#DejaVuSans-67"/>
    </g>
   </g>
   <g id="text_11">
    <g id="patch_21">
     <path d="M 128.491463 181.639062 
L 141.9899 181.639062 
L 141.9899 163.960937 
L 128.491463 163.960937 
z
" style="fill:#ffffff;stroke:#ffffff;stroke-linejoin:miter;"/>
    </g>
    <!-- c -->
    <defs>
     <path d="M 48.78125 52.59375 
L 48.78125 44.1875 
Q 44.96875 46.296875 41.140625 47.34375 
Q 37.3125 48.390625 33.40625 48.390625 
Q 24.65625 48.390625 19.8125 42.84375 
Q 14.984375 37.3125 14.984375 27.296875 
Q 14.984375 17.28125 19.8125 11.734375 
Q 24.65625 6.203125 33.40625 6.203125 
Q 37.3125 6.203125 41.140625 7.25 
Q 44.96875 8.296875 48.78125 10.40625 
L 48.78125 2.09375 
Q 45.015625 0.34375 40.984375 -0.53125 
Q 36.96875 -1.421875 32.421875 -1.421875 
Q 20.0625 -1.421875 12.78125 6.34375 
Q 5.515625 14.109375 5.515625 27.296875 
Q 5.515625 40.671875 12.859375 48.328125 
Q 20.21875 56 33.015625 56 
Q 37.15625 56 41.109375 55.140625 
Q 45.0625 54.296875 48.78125 52.59375 
z
" id="DejaVuSans-63"/>
    </defs>
    <g style="fill:#0000ff;" transform="translate(132.491463 175.559375)scale(0.1 -0.1)">
     <use xlink:href="#DejaVuSans-63"/>
    </g>
   </g>
   <g id="patch_22">
    <path d="M 34.424425 204.112885 
C 36.573908 204.112885 38.635643 203.258886 40.155557 201.738973 
C 41.67547 200.219059 42.529469 198.157324 42.529469 196.007841 
C 42.529469 193.858358 41.67547 191.796623 40.155557 190.276709 
C 38.635643 188.756795 36.573908 187.902797 34.424425 187.902797 
C 32.274942 187.902797 30.213207 188.756795 28.693293 190.276709 
C 27.173379 191.796623 26.319381 193.858358 26.319381 196.007841 
C 26.319381 198.157324 27.173379 200.219059 28.693293 201.738973 
C 30.213207 203.258886 32.274942 204.112885 34.424425 204.112885 
z
" style="fill:#fec7b8;stroke:#000000;stroke-linejoin:miter;"/>
   </g>
   <g id="patch_23">
    <path d="M 236.056938 157.697203 
C 238.206421 157.697203 240.268156 156.843205 241.788069 155.323291 
C 243.307983 153.803377 244.161982 151.741642 244.161982 149.592159 
C 244.161982 147.442676 243.307983 145.380941 241.788069 143.861027 
C 240.268156 142.341114 238.206421 141.487115 236.056938 141.487115 
C 233.907455 141.487115 231.84572 142.341114 230.325806 143.861027 
C 228.805892 145.380941 227.951894 147.442676 227.951894 149.592159 
C 227.951894 151.741642 228.805892 153.803377 230.325806 155.323291 
C 231.84572 156.843205 233.907455 157.697203 236.056938 157.697203 
z
" style="fill:#fec7b8;stroke:#000000;stroke-linejoin:miter;"/>
   </g>
   <g id="patch_24">
    <path d="M 434.088845 111.939255 
C 436.238328 111.939255 438.300063 111.085257 439.819977 109.565343 
C 441.339891 108.045429 442.193889 105.983694 442.193889 103.834211 
C 442.193889 101.684728 441.339891 99.622993 439.819977 98.10308 
C 438.300063 96.583166 436.238328 95.729167 434.088845 95.729167 
C 431.939362 95.729167 429.877627 96.583166 428.357713 98.10308 
C 426.837799 99.622993 425.983801 101.684728 425.983801 103.834211 
C 425.983801 105.983694 426.837799 108.045429 428.357713 109.565343 
C 429.877627 111.085257 431.939362 111.939255 434.088845 111.939255 
z
" style="fill:#fec7b8;stroke:#000000;stroke-linejoin:miter;"/>
   </g>
   <g id="patch_25">
    <path clip-path="url(#pdb92b29586)" d="M 34.424425 226.86092 
C 38.515591 226.86092 42.439744 225.235482 45.332636 222.342591 
C 48.225527 219.4497 49.850964 215.525547 49.850964 211.43438 
C 49.850964 207.343214 48.225527 203.419061 45.332636 200.52617 
C 42.439744 197.633278 38.515591 196.007841 34.424425 196.007841 
C 30.333259 196.007841 26.409105 197.633278 23.516214 200.52617 
C 20.623323 203.419061 18.997885 207.343214 18.997885 211.43438 
C 18.997885 215.525547 20.623323 219.4497 23.516214 222.342591 
C 26.409105 225.235482 30.333259 226.86092 34.424425 226.86092 
z
" style="fill:none;stroke:#ff0000;stroke-linejoin:miter;"/>
   </g>
   <g id="patch_26">
    <path clip-path="url(#pdb92b29586)" d="M 34.424425 242.28746 
C 40.561174 242.28746 46.447404 239.849303 50.786741 235.509966 
C 55.126078 231.170629 57.564234 225.284399 57.564234 219.14765 
C 57.564234 213.010901 55.126078 207.124671 50.786741 202.785334 
C 46.447404 198.445997 40.561174 196.007841 34.424425 196.007841 
C 28.287676 196.007841 22.401446 198.445997 18.062109 202.785334 
C 13.722772 207.124671 11.284615 213.010901 11.284615 219.14765 
C 11.284615 225.284399 13.722772 231.170629 18.062109 235.509966 
C 22.401446 239.849303 28.287676 242.28746 34.424425 242.28746 
z
" style="fill:none;stroke:#ffbf00;stroke-linejoin:miter;"/>
   </g>
   <g id="patch_27">
    <path clip-path="url(#pdb92b29586)" d="M 434.088845 134.68729 
C 438.180011 134.68729 442.104164 133.061853 444.997056 130.168962 
C 447.889947 127.27607 449.515385 123.351917 449.515385 119.260751 
C 449.515385 115.169585 447.889947 111.245431 444.997056 108.35254 
C 442.104164 105.459649 438.180011 103.834211 434.088845 103.834211 
C 429.997679 103.834211 426.073526 105.459649 423.180634 108.35254 
C 420.287743 111.245431 418.662305 115.169585 418.662305 119.260751 
C 418.662305 123.351917 420.287743 127.27607 423.180634 130.168962 
C 426.073526 133.061853 429.997679 134.68729 434.088845 134.68729 
z
" style="fill:none;stroke:#ff00bf;stroke-linejoin:miter;"/>
   </g>
   <g id="text_12">
    <!-- 0 -->
    <defs>
     <path d="M 31.78125 66.40625 
Q 24.171875 66.40625 20.328125 58.90625 
Q 16.5 51.421875 16.5 36.375 
Q 16.5 21.390625 20.328125 13.890625 
Q 24.171875 6.390625 31.78125 6.390625 
Q 39.453125 6.390625 43.28125 13.890625 
Q 47.125 21.390625 47.125 36.375 
Q 47.125 51.421875 43.28125 58.90625 
Q 39.453125 66.40625 31.78125 66.40625 
z
M 31.78125 74.21875 
Q 44.046875 74.21875 50.515625 64.515625 
Q 56.984375 54.828125 56.984375 36.375 
Q 56.984375 17.96875 50.515625 8.265625 
Q 44.046875 -1.421875 31.78125 -1.421875 
Q 19.53125 -1.421875 13.0625 8.265625 
Q 6.59375 17.96875 6.59375 36.375 
Q 6.59375 54.828125 13.0625 64.515625 
Q 19.53125 74.21875 31.78125 74.21875 
z
" id="DejaVuSans-30"/>
    </defs>
    <g transform="translate(31.243175 198.767216)scale(0.1 -0.1)">
     <use xlink:href="#DejaVuSans-30"/>
    </g>
   </g>
   <g id="text_13">
    <!-- 1 -->
    <defs>
     <path d="M 12.40625 8.296875 
L 28.515625 8.296875 
L 28.515625 63.921875 
L 10.984375 60.40625 
L 10.984375 69.390625 
L 28.421875 72.90625 
L 38.28125 72.90625 
L 38.28125 8.296875 
L 54.390625 8.296875 
L 54.390625 0 
L 12.40625 0 
z
" id="DejaVuSans-31"/>
    </defs>
    <g transform="translate(232.875688 152.351534)scale(0.1 -0.1)">
     <use xlink:href="#DejaVuSans-31"/>
    </g>
   </g>
   <g id="text_14">
    <!-- 2 -->
    <defs>
     <path d="M 19.1875 8.296875 
L 53.609375 8.296875 
L 53.609375 0 
L 7.328125 0 
L 7.328125 8.296875 
Q 12.9375 14.109375 22.625 23.890625 
Q 32.328125 33.6875 34.8125 36.53125 
Q 39.546875 41.84375 41.421875 45.53125 
Q 43.3125 49.21875 43.3125 52.78125 
Q 43.3125 58.59375 39.234375 62.25 
Q 35.15625 65.921875 28.609375 65.921875 
Q 23.96875 65.921875 18.8125 64.3125 
Q 13.671875 62.703125 7.8125 59.421875 
L 7.8125 69.390625 
Q 13.765625 71.78125 18.9375 73 
Q 24.125 74.21875 28.421875 74.21875 
Q 39.75 74.21875 46.484375 68.546875 
Q 53.21875 62.890625 53.21875 53.421875 
Q 53.21875 48.921875 51.53125 44.890625 
Q 49.859375 40.875 45.40625 35.40625 
Q 44.1875 33.984375 37.640625 27.21875 
Q 31.109375 20.453125 19.1875 8.296875 
z
" id="DejaVuSans-32"/>
    </defs>
    <g transform="translate(430.907595 106.593586)scale(0.1 -0.1)">
     <use xlink:href="#DejaVuSans-32"/>
    </g>
   </g>
  </g>
 </g>
 <defs>
  <clipPath id="pdb92b29586">
   <rect height="187.616322" width="455.76" x="2.52" y="78.991839"/>
  </clipPath>
 </defs>
</svg>
