<?xml version="1.0" encoding="utf-8" standalone="no"?>
<!DOCTYPE svg PUBLIC "-//W3C//DTD SVG 1.1//EN"
  "http://www.w3.org/Graphics/SVG/1.1/DTD/svg11.dtd">
<svg xmlns:xlink="http://www.w3.org/1999/xlink" width="460.8pt" height="345.6pt" viewBox="0 0 460.8 345.6" xmlns="http://www.w3.org/2000/svg" version="1.1">
 <metadata>
  <rdf:RDF xmlns:dc="http://purl.org/dc/elements/1.1/" xmlns:cc="http://creativecommons.org/ns#" xmlns:rdf="http://www.w3.org/1999/02/22-rdf-syntax-ns#">
   <cc:Work>
    <dc:type rdf:resource="http://purl.org/dc/dcmitype/StillImage"/>
    <dc:date>2023-08-21T20:30:26.843125</dc:date>
    <dc:format>image/svg+xml</dc:format>
    <dc:creator>
     <cc:Agent>
      <dc:title>Matplotlib v3.6.2, https://matplotlib.org/</dc:title>
     </cc:Agent>
    </dc:creator>
   </cc:Work>
  </rdf:RDF>
 </metadata>
 <defs>
  <style type="text/css">*{stroke-linejoin: round; stroke-linecap: butt}</style>
 </defs>
 <g id="figure_1">
  <g id="patch_1">
   <path d="M 0 345.6 
L 460.8 345.6 
L 460.8 0 
L 0 0 
z
" style="fill: #ffffff"/>
  </g>
  <g id="axes_1">
   <g id="patch_2">
    <path d="M 57.6 276.48 
L 241.92 276.48 
L 241.92 138.24 
L 57.6 138.24 
z
" style="fill: #ffffff"/>
   </g>
   <g id="matplotlib.axis_1">
    <g id="xtick_1">
     <g id="line2d_1">
      <defs>
       <path id="m01d326fb56" d="M 0 0 
L 0 3.5 
" style="stroke: #000000; stroke-width: 0.8"/>
      </defs>
      <g>
       <use xlink:href="#m01d326fb56" x="61.144615" y="207.360977" style="stroke: #000000; stroke-width: 0.8"/>
      </g>
     </g>
     <g id="text_1">
      <!-- −1.0 -->
      <g transform="translate(49.003209 221.959415) scale(0.1 -0.1)">
       <defs>
        <path id="DejaVuSans-2212" d="M 678 2272 
L 4684 2272 
L 4684 1741 
L 678 1741 
L 678 2272 
z
" transform="scale(0.015625)"/>
        <path id="DejaVuSans-31" d="M 794 531 
L 1825 531 
L 1825 4091 
L 703 3866 
L 703 4441 
L 1819 4666 
L 2450 4666 
L 2450 531 
L 3481 531 
L 3481 0 
L 794 0 
L 794 531 
z
" transform="scale(0.015625)"/>
        <path id="DejaVuSans-2e" d="M 684 794 
L 1344 794 
L 1344 0 
L 684 0 
L 684 794 
z
" transform="scale(0.015625)"/>
        <path id="DejaVuSans-30" d="M 2034 4250 
Q 1547 4250 1301 3770 
Q 1056 3291 1056 2328 
Q 1056 1369 1301 889 
Q 1547 409 2034 409 
Q 2525 409 2770 889 
Q 3016 1369 3016 2328 
Q 3016 3291 2770 3770 
Q 2525 4250 2034 4250 
z
M 2034 4750 
Q 2819 4750 3233 4129 
Q 3647 3509 3647 2328 
Q 3647 1150 3233 529 
Q 2819 -91 2034 -91 
Q 1250 -91 836 529 
Q 422 1150 422 2328 
Q 422 3509 836 4129 
Q 1250 4750 2034 4750 
z
" transform="scale(0.015625)"/>
       </defs>
       <use xlink:href="#DejaVuSans-2212"/>
       <use xlink:href="#DejaVuSans-31" x="83.789062"/>
       <use xlink:href="#DejaVuSans-2e" x="147.412109"/>
       <use xlink:href="#DejaVuSans-30" x="179.199219"/>
      </g>
     </g>
    </g>
    <g id="xtick_2">
     <g id="line2d_2">
      <g>
       <use xlink:href="#m01d326fb56" x="105.452308" y="207.360977" style="stroke: #000000; stroke-width: 0.8"/>
      </g>
     </g>
     <g id="text_2">
      <!-- −0.5 -->
      <g transform="translate(93.310901 221.959415) scale(0.1 -0.1)">
       <defs>
        <path id="DejaVuSans-35" d="M 691 4666 
L 3169 4666 
L 3169 4134 
L 1269 4134 
L 1269 2991 
Q 1406 3038 1543 3061 
Q 1681 3084 1819 3084 
Q 2600 3084 3056 2656 
Q 3513 2228 3513 1497 
Q 3513 744 3044 326 
Q 2575 -91 1722 -91 
Q 1428 -91 1123 -41 
Q 819 9 494 109 
L 494 744 
Q 775 591 1075 516 
Q 1375 441 1709 441 
Q 2250 441 2565 725 
Q 2881 1009 2881 1497 
Q 2881 1984 2565 2268 
Q 2250 2553 1709 2553 
Q 1456 2553 1204 2497 
Q 953 2441 691 2322 
L 691 4666 
z
" transform="scale(0.015625)"/>
       </defs>
       <use xlink:href="#DejaVuSans-2212"/>
       <use xlink:href="#DejaVuSans-30" x="83.789062"/>
       <use xlink:href="#DejaVuSans-2e" x="147.412109"/>
       <use xlink:href="#DejaVuSans-35" x="179.199219"/>
      </g>
     </g>
    </g>
    <g id="xtick_3">
     <g id="line2d_3">
      <g>
       <use xlink:href="#m01d326fb56" x="149.76" y="207.360977" style="stroke: #000000; stroke-width: 0.8"/>
      </g>
     </g>
    </g>
    <g id="xtick_4">
     <g id="line2d_4">
      <g>
       <use xlink:href="#m01d326fb56" x="194.067692" y="207.360977" style="stroke: #000000; stroke-width: 0.8"/>
      </g>
     </g>
     <g id="text_3">
      <!-- 0.5 -->
      <g transform="translate(186.11613 221.959415) scale(0.1 -0.1)">
       <use xlink:href="#DejaVuSans-30"/>
       <use xlink:href="#DejaVuSans-2e" x="63.623047"/>
       <use xlink:href="#DejaVuSans-35" x="95.410156"/>
      </g>
     </g>
    </g>
    <g id="xtick_5">
     <g id="line2d_5">
      <g>
       <use xlink:href="#m01d326fb56" x="238.375385" y="207.360977" style="stroke: #000000; stroke-width: 0.8"/>
      </g>
     </g>
     <g id="text_4">
      <!-- 1.0 -->
      <g transform="translate(230.423822 221.959415) scale(0.1 -0.1)">
       <use xlink:href="#DejaVuSans-31"/>
       <use xlink:href="#DejaVuSans-2e" x="63.623047"/>
       <use xlink:href="#DejaVuSans-30" x="95.410156"/>
      </g>
     </g>
    </g>
    <g id="xtick_6">
     <g id="line2d_6">
      <defs>
       <path id="mca58271f08" d="M 0 0 
L 0 2 
" style="stroke: #000000; stroke-width: 0.6"/>
      </defs>
      <g>
       <use xlink:href="#mca58271f08" x="70.006154" y="207.360977" style="stroke: #000000; stroke-width: 0.6"/>
      </g>
     </g>
    </g>
    <g id="xtick_7">
     <g id="line2d_7">
      <g>
       <use xlink:href="#mca58271f08" x="78.867692" y="207.360977" style="stroke: #000000; stroke-width: 0.6"/>
      </g>
     </g>
    </g>
    <g id="xtick_8">
     <g id="line2d_8">
      <g>
       <use xlink:href="#mca58271f08" x="87.729231" y="207.360977" style="stroke: #000000; stroke-width: 0.6"/>
      </g>
     </g>
    </g>
    <g id="xtick_9">
     <g id="line2d_9">
      <g>
       <use xlink:href="#mca58271f08" x="96.590769" y="207.360977" style="stroke: #000000; stroke-width: 0.6"/>
      </g>
     </g>
    </g>
    <g id="xtick_10">
     <g id="line2d_10">
      <g>
       <use xlink:href="#mca58271f08" x="114.313846" y="207.360977" style="stroke: #000000; stroke-width: 0.6"/>
      </g>
     </g>
    </g>
    <g id="xtick_11">
     <g id="line2d_11">
      <g>
       <use xlink:href="#mca58271f08" x="123.175385" y="207.360977" style="stroke: #000000; stroke-width: 0.6"/>
      </g>
     </g>
    </g>
    <g id="xtick_12">
     <g id="line2d_12">
      <g>
       <use xlink:href="#mca58271f08" x="132.036923" y="207.360977" style="stroke: #000000; stroke-width: 0.6"/>
      </g>
     </g>
    </g>
    <g id="xtick_13">
     <g id="line2d_13">
      <g>
       <use xlink:href="#mca58271f08" x="140.898462" y="207.360977" style="stroke: #000000; stroke-width: 0.6"/>
      </g>
     </g>
    </g>
    <g id="xtick_14">
     <g id="line2d_14">
      <g>
       <use xlink:href="#mca58271f08" x="158.621538" y="207.360977" style="stroke: #000000; stroke-width: 0.6"/>
      </g>
     </g>
    </g>
    <g id="xtick_15">
     <g id="line2d_15">
      <g>
       <use xlink:href="#mca58271f08" x="167.483077" y="207.360977" style="stroke: #000000; stroke-width: 0.6"/>
      </g>
     </g>
    </g>
    <g id="xtick_16">
     <g id="line2d_16">
      <g>
       <use xlink:href="#mca58271f08" x="176.344615" y="207.360977" style="stroke: #000000; stroke-width: 0.6"/>
      </g>
     </g>
    </g>
    <g id="xtick_17">
     <g id="line2d_17">
      <g>
       <use xlink:href="#mca58271f08" x="185.206154" y="207.360977" style="stroke: #000000; stroke-width: 0.6"/>
      </g>
     </g>
    </g>
    <g id="xtick_18">
     <g id="line2d_18">
      <g>
       <use xlink:href="#mca58271f08" x="202.929231" y="207.360977" style="stroke: #000000; stroke-width: 0.6"/>
      </g>
     </g>
    </g>
    <g id="xtick_19">
     <g id="line2d_19">
      <g>
       <use xlink:href="#mca58271f08" x="211.790769" y="207.360977" style="stroke: #000000; stroke-width: 0.6"/>
      </g>
     </g>
    </g>
    <g id="xtick_20">
     <g id="line2d_20">
      <g>
       <use xlink:href="#mca58271f08" x="220.652308" y="207.360977" style="stroke: #000000; stroke-width: 0.6"/>
      </g>
     </g>
    </g>
    <g id="xtick_21">
     <g id="line2d_21">
      <g>
       <use xlink:href="#mca58271f08" x="229.513846" y="207.360977" style="stroke: #000000; stroke-width: 0.6"/>
      </g>
     </g>
    </g>
   </g>
   <g id="matplotlib.axis_2">
    <g id="ytick_1">
     <g id="line2d_22">
      <defs>
       <path id="m8583abf445" d="M 0 0 
L -3.5 0 
" style="stroke: #000000; stroke-width: 0.8"/>
      </defs>
      <g>
       <use xlink:href="#m8583abf445" x="149.76" y="273.823493" style="stroke: #000000; stroke-width: 0.8"/>
      </g>
     </g>
     <g id="text_5">
      <!-- −1.0 -->
      <g transform="translate(118.477188 277.622712) scale(0.1 -0.1)">
       <use xlink:href="#DejaVuSans-2212"/>
       <use xlink:href="#DejaVuSans-31" x="83.789062"/>
       <use xlink:href="#DejaVuSans-2e" x="147.412109"/>
       <use xlink:href="#DejaVuSans-30" x="179.199219"/>
      </g>
     </g>
    </g>
    <g id="ytick_2">
     <g id="line2d_23">
      <g>
       <use xlink:href="#m8583abf445" x="149.76" y="240.592235" style="stroke: #000000; stroke-width: 0.8"/>
      </g>
     </g>
     <g id="text_6">
      <!-- −0.5 -->
      <g transform="translate(118.477188 244.391454) scale(0.1 -0.1)">
       <use xlink:href="#DejaVuSans-2212"/>
       <use xlink:href="#DejaVuSans-30" x="83.789062"/>
       <use xlink:href="#DejaVuSans-2e" x="147.412109"/>
       <use xlink:href="#DejaVuSans-35" x="179.199219"/>
      </g>
     </g>
    </g>
    <g id="ytick_3">
     <g id="line2d_24">
      <g>
       <use xlink:href="#m8583abf445" x="149.76" y="207.360977" style="stroke: #000000; stroke-width: 0.8"/>
      </g>
     </g>
    </g>
    <g id="ytick_4">
     <g id="line2d_25">
      <g>
       <use xlink:href="#m8583abf445" x="149.76" y="174.129719" style="stroke: #000000; stroke-width: 0.8"/>
      </g>
     </g>
     <g id="text_7">
      <!-- 0.5 -->
      <g transform="translate(126.856875 177.928938) scale(0.1 -0.1)">
       <use xlink:href="#DejaVuSans-30"/>
       <use xlink:href="#DejaVuSans-2e" x="63.623047"/>
       <use xlink:href="#DejaVuSans-35" x="95.410156"/>
      </g>
     </g>
    </g>
    <g id="ytick_5">
     <g id="line2d_26">
      <g>
       <use xlink:href="#m8583abf445" x="149.76" y="140.898462" style="stroke: #000000; stroke-width: 0.8"/>
      </g>
     </g>
     <g id="text_8">
      <!-- 1.0 -->
      <g transform="translate(126.856875 144.69768) scale(0.1 -0.1)">
       <use xlink:href="#DejaVuSans-31"/>
       <use xlink:href="#DejaVuSans-2e" x="63.623047"/>
       <use xlink:href="#DejaVuSans-30" x="95.410156"/>
      </g>
     </g>
    </g>
    <g id="ytick_6">
     <g id="line2d_27">
      <defs>
       <path id="m539f38cb9c" d="M 0 0 
L -2 0 
" style="stroke: #000000; stroke-width: 0.6"/>
      </defs>
      <g>
       <use xlink:href="#m539f38cb9c" x="149.76" y="267.177241" style="stroke: #000000; stroke-width: 0.6"/>
      </g>
     </g>
    </g>
    <g id="ytick_7">
     <g id="line2d_28">
      <g>
       <use xlink:href="#m539f38cb9c" x="149.76" y="260.53099" style="stroke: #000000; stroke-width: 0.6"/>
      </g>
     </g>
    </g>
    <g id="ytick_8">
     <g id="line2d_29">
      <g>
       <use xlink:href="#m539f38cb9c" x="149.76" y="253.884738" style="stroke: #000000; stroke-width: 0.6"/>
      </g>
     </g>
    </g>
    <g id="ytick_9">
     <g id="line2d_30">
      <g>
       <use xlink:href="#m539f38cb9c" x="149.76" y="247.238487" style="stroke: #000000; stroke-width: 0.6"/>
      </g>
     </g>
    </g>
    <g id="ytick_10">
     <g id="line2d_31">
      <g>
       <use xlink:href="#m539f38cb9c" x="149.76" y="233.945983" style="stroke: #000000; stroke-width: 0.6"/>
      </g>
     </g>
    </g>
    <g id="ytick_11">
     <g id="line2d_32">
      <g>
       <use xlink:href="#m539f38cb9c" x="149.76" y="227.299732" style="stroke: #000000; stroke-width: 0.6"/>
      </g>
     </g>
    </g>
    <g id="ytick_12">
     <g id="line2d_33">
      <g>
       <use xlink:href="#m539f38cb9c" x="149.76" y="220.65348" style="stroke: #000000; stroke-width: 0.6"/>
      </g>
     </g>
    </g>
    <g id="ytick_13">
     <g id="line2d_34">
      <g>
       <use xlink:href="#m539f38cb9c" x="149.76" y="214.007229" style="stroke: #000000; stroke-width: 0.6"/>
      </g>
     </g>
    </g>
    <g id="ytick_14">
     <g id="line2d_35">
      <g>
       <use xlink:href="#m539f38cb9c" x="149.76" y="200.714726" style="stroke: #000000; stroke-width: 0.6"/>
      </g>
     </g>
    </g>
    <g id="ytick_15">
     <g id="line2d_36">
      <g>
       <use xlink:href="#m539f38cb9c" x="149.76" y="194.068474" style="stroke: #000000; stroke-width: 0.6"/>
      </g>
     </g>
    </g>
    <g id="ytick_16">
     <g id="line2d_37">
      <g>
       <use xlink:href="#m539f38cb9c" x="149.76" y="187.422222" style="stroke: #000000; stroke-width: 0.6"/>
      </g>
     </g>
    </g>
    <g id="ytick_17">
     <g id="line2d_38">
      <g>
       <use xlink:href="#m539f38cb9c" x="149.76" y="180.775971" style="stroke: #000000; stroke-width: 0.6"/>
      </g>
     </g>
    </g>
    <g id="ytick_18">
     <g id="line2d_39">
      <g>
       <use xlink:href="#m539f38cb9c" x="149.76" y="167.483468" style="stroke: #000000; stroke-width: 0.6"/>
      </g>
     </g>
    </g>
    <g id="ytick_19">
     <g id="line2d_40">
      <g>
       <use xlink:href="#m539f38cb9c" x="149.76" y="160.837216" style="stroke: #000000; stroke-width: 0.6"/>
      </g>
     </g>
    </g>
    <g id="ytick_20">
     <g id="line2d_41">
      <g>
       <use xlink:href="#m539f38cb9c" x="149.76" y="154.190965" style="stroke: #000000; stroke-width: 0.6"/>
      </g>
     </g>
    </g>
    <g id="ytick_21">
     <g id="line2d_42">
      <g>
       <use xlink:href="#m539f38cb9c" x="149.76" y="147.544713" style="stroke: #000000; stroke-width: 0.6"/>
      </g>
     </g>
    </g>
   </g>
   <g id="line2d_43">
    <path d="M 61.144615 140.898462 
L 63.197159 164.129352 
L 65.126705 183.506712 
L 66.992566 200.09826 
L 68.858692 214.695298 
L 70.64231 226.881812 
L 72.269211 236.573894 
L 73.858048 244.797287 
L 75.332142 251.385363 
L 76.890113 257.315287 
L 78.336491 261.919653 
L 79.585233 265.232843 
L 80.93376 268.156413 
L 82.22963 270.357567 
L 83.253625 271.695774 
L 84.393807 272.788885 
L 85.388281 273.416066 
L 86.21564 273.716215 
L 87.21971 273.821538 
L 87.922852 273.732885 
L 89.025908 273.33626 
L 89.987128 272.745727 
L 91.201834 271.691234 
L 92.475272 270.238531 
L 93.84174 268.312145 
L 95.367671 265.747101 
L 97.219908 262.103175 
L 99.271953 257.467099 
L 101.45737 251.937291 
L 104.057404 244.706955 
L 107.176314 235.327272 
L 111.874006 220.320773 
L 120.380523 192.918003 
L 124.008762 182.006694 
L 126.980871 173.710515 
L 129.519241 167.190954 
L 132.212939 160.928696 
L 134.565163 156.071763 
L 136.800154 152.027521 
L 138.916508 148.740605 
L 140.844886 146.225481 
L 142.452393 144.489627 
L 144.060768 143.088648 
L 145.543975 142.099262 
L 146.884002 141.45792 
L 147.922461 141.126987 
L 149.296635 140.912999 
L 150.682805 140.956114 
L 151.968812 141.2286 
L 153.313206 141.751936 
L 154.439279 142.376868 
L 156.014552 143.534016 
L 157.645302 145.075156 
L 158.9446 146.548851 
L 160.533284 148.640902 
L 161.987987 150.829834 
L 164.110713 154.477022 
L 166.019189 158.195588 
L 168.503085 163.620838 
L 171.078515 169.889959 
L 173.783336 177.103053 
L 176.951632 186.247911 
L 180.141904 196.051577 
L 185.652956 213.817774 
L 191.946783 234.091532 
L 195.425427 244.599235 
L 198.07545 251.971309 
L 200.244763 257.459222 
L 202.325461 262.156723 
L 204.210592 265.852592 
L 205.919823 268.679096 
L 207.20684 270.442365 
L 208.605427 271.970643 
L 209.806808 272.936555 
L 210.91848 273.525244 
L 211.915172 273.789186 
L 212.673056 273.814823 
L 213.674878 273.606143 
L 214.470721 273.235519 
L 215.496988 272.478119 
L 216.456802 271.472933 
L 217.442409 270.129158 
L 218.536303 268.252074 
L 219.780442 265.601222 
L 221.023689 262.377234 
L 222.319557 258.374616 
L 223.69668 253.366823 
L 225.280771 246.594823 
L 226.759679 239.243741 
L 228.184933 231.170509 
L 229.871048 220.301781 
L 231.571799 207.815832 
L 233.237344 194.026965 
L 235.033672 177.332013 
L 236.927218 157.575965 
L 238.375385 140.898462 
L 238.375385 140.898462 
" clip-path="url(#p758b56a6fe)" style="fill: none; stroke: #0000ff; stroke-linecap: square"/>
   </g>
   <g id="patch_3">
    <path d="M 149.76 276.48 
L 149.76 138.24 
" style="fill: none; stroke: #000000; stroke-width: 0.8; stroke-linejoin: miter; stroke-linecap: square"/>
   </g>
   <g id="patch_4">
    <path d="M 57.6 207.360977 
L 241.92 207.360977 
" style="fill: none; stroke: #000000; stroke-width: 0.8; stroke-linejoin: miter; stroke-linecap: square"/>
   </g>
   <g id="text_9">
    <!-- n=4 -->
    <g transform="translate(139.220156 132.24) scale(0.1 -0.1)">
     <defs>
      <path id="DejaVuSans-6e" d="M 3513 2113 
L 3513 0 
L 2938 0 
L 2938 2094 
Q 2938 2591 2744 2837 
Q 2550 3084 2163 3084 
Q 1697 3084 1428 2787 
Q 1159 2491 1159 1978 
L 1159 0 
L 581 0 
L 581 3500 
L 1159 3500 
L 1159 2956 
Q 1366 3272 1645 3428 
Q 1925 3584 2291 3584 
Q 2894 3584 3203 3211 
Q 3513 2838 3513 2113 
z
" transform="scale(0.015625)"/>
      <path id="DejaVuSans-3d" d="M 678 2906 
L 4684 2906 
L 4684 2381 
L 678 2381 
L 678 2906 
z
M 678 1631 
L 4684 1631 
L 4684 1100 
L 678 1100 
L 678 1631 
z
" transform="scale(0.015625)"/>
      <path id="DejaVuSans-34" d="M 2419 4116 
L 825 1625 
L 2419 1625 
L 2419 4116 
z
M 2253 4666 
L 3047 4666 
L 3047 1625 
L 3713 1625 
L 3713 1100 
L 3047 1100 
L 3047 0 
L 2419 0 
L 2419 1100 
L 313 1100 
L 313 1709 
L 2253 4666 
z
" transform="scale(0.015625)"/>
     </defs>
     <use xlink:href="#DejaVuSans-6e"/>
     <use xlink:href="#DejaVuSans-3d" x="63.378906"/>
     <use xlink:href="#DejaVuSans-34" x="147.167969"/>
    </g>
   </g>
  </g>
  <g id="axes_2">
   <g id="patch_5">
    <path d="M 253.44 207.36 
L 437.76 207.36 
L 437.76 69.12 
L 253.44 69.12 
z
" style="fill: #ffffff"/>
   </g>
   <g id="matplotlib.axis_3">
    <g id="xtick_22">
     <g id="line2d_44">
      <g>
       <use xlink:href="#m01d326fb56" x="256.984615" y="138.240021" style="stroke: #000000; stroke-width: 0.8"/>
      </g>
     </g>
     <g id="text_10">
      <!-- −1.0 -->
      <g transform="translate(244.843209 152.838458) scale(0.1 -0.1)">
       <use xlink:href="#DejaVuSans-2212"/>
       <use xlink:href="#DejaVuSans-31" x="83.789062"/>
       <use xlink:href="#DejaVuSans-2e" x="147.412109"/>
       <use xlink:href="#DejaVuSans-30" x="179.199219"/>
      </g>
     </g>
    </g>
    <g id="xtick_23">
     <g id="line2d_45">
      <g>
       <use xlink:href="#m01d326fb56" x="301.292308" y="138.240021" style="stroke: #000000; stroke-width: 0.8"/>
      </g>
     </g>
     <g id="text_11">
      <!-- −0.5 -->
      <g transform="translate(289.150901 152.838458) scale(0.1 -0.1)">
       <use xlink:href="#DejaVuSans-2212"/>
       <use xlink:href="#DejaVuSans-30" x="83.789062"/>
       <use xlink:href="#DejaVuSans-2e" x="147.412109"/>
       <use xlink:href="#DejaVuSans-35" x="179.199219"/>
      </g>
     </g>
    </g>
    <g id="xtick_24">
     <g id="line2d_46">
      <g>
       <use xlink:href="#m01d326fb56" x="345.6" y="138.240021" style="stroke: #000000; stroke-width: 0.8"/>
      </g>
     </g>
    </g>
    <g id="xtick_25">
     <g id="line2d_47">
      <g>
       <use xlink:href="#m01d326fb56" x="389.907692" y="138.240021" style="stroke: #000000; stroke-width: 0.8"/>
      </g>
     </g>
     <g id="text_12">
      <!-- 0.5 -->
      <g transform="translate(381.95613 152.838458) scale(0.1 -0.1)">
       <use xlink:href="#DejaVuSans-30"/>
       <use xlink:href="#DejaVuSans-2e" x="63.623047"/>
       <use xlink:href="#DejaVuSans-35" x="95.410156"/>
      </g>
     </g>
    </g>
    <g id="xtick_26">
     <g id="line2d_48">
      <g>
       <use xlink:href="#m01d326fb56" x="434.215385" y="138.240021" style="stroke: #000000; stroke-width: 0.8"/>
      </g>
     </g>
     <g id="text_13">
      <!-- 1.0 -->
      <g transform="translate(426.263822 152.838458) scale(0.1 -0.1)">
       <use xlink:href="#DejaVuSans-31"/>
       <use xlink:href="#DejaVuSans-2e" x="63.623047"/>
       <use xlink:href="#DejaVuSans-30" x="95.410156"/>
      </g>
     </g>
    </g>
    <g id="xtick_27">
     <g id="line2d_49">
      <g>
       <use xlink:href="#mca58271f08" x="265.846154" y="138.240021" style="stroke: #000000; stroke-width: 0.6"/>
      </g>
     </g>
    </g>
    <g id="xtick_28">
     <g id="line2d_50">
      <g>
       <use xlink:href="#mca58271f08" x="274.707692" y="138.240021" style="stroke: #000000; stroke-width: 0.6"/>
      </g>
     </g>
    </g>
    <g id="xtick_29">
     <g id="line2d_51">
      <g>
       <use xlink:href="#mca58271f08" x="283.569231" y="138.240021" style="stroke: #000000; stroke-width: 0.6"/>
      </g>
     </g>
    </g>
    <g id="xtick_30">
     <g id="line2d_52">
      <g>
       <use xlink:href="#mca58271f08" x="292.430769" y="138.240021" style="stroke: #000000; stroke-width: 0.6"/>
      </g>
     </g>
    </g>
    <g id="xtick_31">
     <g id="line2d_53">
      <g>
       <use xlink:href="#mca58271f08" x="310.153846" y="138.240021" style="stroke: #000000; stroke-width: 0.6"/>
      </g>
     </g>
    </g>
    <g id="xtick_32">
     <g id="line2d_54">
      <g>
       <use xlink:href="#mca58271f08" x="319.015385" y="138.240021" style="stroke: #000000; stroke-width: 0.6"/>
      </g>
     </g>
    </g>
    <g id="xtick_33">
     <g id="line2d_55">
      <g>
       <use xlink:href="#mca58271f08" x="327.876923" y="138.240021" style="stroke: #000000; stroke-width: 0.6"/>
      </g>
     </g>
    </g>
    <g id="xtick_34">
     <g id="line2d_56">
      <g>
       <use xlink:href="#mca58271f08" x="336.738462" y="138.240021" style="stroke: #000000; stroke-width: 0.6"/>
      </g>
     </g>
    </g>
    <g id="xtick_35">
     <g id="line2d_57">
      <g>
       <use xlink:href="#mca58271f08" x="354.461538" y="138.240021" style="stroke: #000000; stroke-width: 0.6"/>
      </g>
     </g>
    </g>
    <g id="xtick_36">
     <g id="line2d_58">
      <g>
       <use xlink:href="#mca58271f08" x="363.323077" y="138.240021" style="stroke: #000000; stroke-width: 0.6"/>
      </g>
     </g>
    </g>
    <g id="xtick_37">
     <g id="line2d_59">
      <g>
       <use xlink:href="#mca58271f08" x="372.184615" y="138.240021" style="stroke: #000000; stroke-width: 0.6"/>
      </g>
     </g>
    </g>
    <g id="xtick_38">
     <g id="line2d_60">
      <g>
       <use xlink:href="#mca58271f08" x="381.046154" y="138.240021" style="stroke: #000000; stroke-width: 0.6"/>
      </g>
     </g>
    </g>
    <g id="xtick_39">
     <g id="line2d_61">
      <g>
       <use xlink:href="#mca58271f08" x="398.769231" y="138.240021" style="stroke: #000000; stroke-width: 0.6"/>
      </g>
     </g>
    </g>
    <g id="xtick_40">
     <g id="line2d_62">
      <g>
       <use xlink:href="#mca58271f08" x="407.630769" y="138.240021" style="stroke: #000000; stroke-width: 0.6"/>
      </g>
     </g>
    </g>
    <g id="xtick_41">
     <g id="line2d_63">
      <g>
       <use xlink:href="#mca58271f08" x="416.492308" y="138.240021" style="stroke: #000000; stroke-width: 0.6"/>
      </g>
     </g>
    </g>
    <g id="xtick_42">
     <g id="line2d_64">
      <g>
       <use xlink:href="#mca58271f08" x="425.353846" y="138.240021" style="stroke: #000000; stroke-width: 0.6"/>
      </g>
     </g>
    </g>
   </g>
   <g id="matplotlib.axis_4">
    <g id="ytick_22">
     <g id="line2d_65">
      <g>
       <use xlink:href="#m8583abf445" x="345.6" y="204.70158" style="stroke: #000000; stroke-width: 0.8"/>
      </g>
     </g>
     <g id="text_14">
      <!-- −1.0 -->
      <g transform="translate(314.317188 208.500798) scale(0.1 -0.1)">
       <use xlink:href="#DejaVuSans-2212"/>
       <use xlink:href="#DejaVuSans-31" x="83.789062"/>
       <use xlink:href="#DejaVuSans-2e" x="147.412109"/>
       <use xlink:href="#DejaVuSans-30" x="179.199219"/>
      </g>
     </g>
    </g>
    <g id="ytick_23">
     <g id="line2d_66">
      <g>
       <use xlink:href="#m8583abf445" x="345.6" y="171.4708" style="stroke: #000000; stroke-width: 0.8"/>
      </g>
     </g>
     <g id="text_15">
      <!-- −0.5 -->
      <g transform="translate(314.317188 175.270019) scale(0.1 -0.1)">
       <use xlink:href="#DejaVuSans-2212"/>
       <use xlink:href="#DejaVuSans-30" x="83.789062"/>
       <use xlink:href="#DejaVuSans-2e" x="147.412109"/>
       <use xlink:href="#DejaVuSans-35" x="179.199219"/>
      </g>
     </g>
    </g>
    <g id="ytick_24">
     <g id="line2d_67">
      <g>
       <use xlink:href="#m8583abf445" x="345.6" y="138.240021" style="stroke: #000000; stroke-width: 0.8"/>
      </g>
     </g>
    </g>
    <g id="ytick_25">
     <g id="line2d_68">
      <g>
       <use xlink:href="#m8583abf445" x="345.6" y="105.009241" style="stroke: #000000; stroke-width: 0.8"/>
      </g>
     </g>
     <g id="text_16">
      <!-- 0.5 -->
      <g transform="translate(322.696875 108.80846) scale(0.1 -0.1)">
       <use xlink:href="#DejaVuSans-30"/>
       <use xlink:href="#DejaVuSans-2e" x="63.623047"/>
       <use xlink:href="#DejaVuSans-35" x="95.410156"/>
      </g>
     </g>
    </g>
    <g id="ytick_26">
     <g id="line2d_69">
      <g>
       <use xlink:href="#m8583abf445" x="345.6" y="71.778462" style="stroke: #000000; stroke-width: 0.8"/>
      </g>
     </g>
     <g id="text_17">
      <!-- 1.0 -->
      <g transform="translate(322.696875 75.57768) scale(0.1 -0.1)">
       <use xlink:href="#DejaVuSans-31"/>
       <use xlink:href="#DejaVuSans-2e" x="63.623047"/>
       <use xlink:href="#DejaVuSans-30" x="95.410156"/>
      </g>
     </g>
    </g>
    <g id="ytick_27">
     <g id="line2d_70">
      <g>
       <use xlink:href="#m539f38cb9c" x="345.6" y="198.055424" style="stroke: #000000; stroke-width: 0.6"/>
      </g>
     </g>
    </g>
    <g id="ytick_28">
     <g id="line2d_71">
      <g>
       <use xlink:href="#m539f38cb9c" x="345.6" y="191.409268" style="stroke: #000000; stroke-width: 0.6"/>
      </g>
     </g>
    </g>
    <g id="ytick_29">
     <g id="line2d_72">
      <g>
       <use xlink:href="#m539f38cb9c" x="345.6" y="184.763112" style="stroke: #000000; stroke-width: 0.6"/>
      </g>
     </g>
    </g>
    <g id="ytick_30">
     <g id="line2d_73">
      <g>
       <use xlink:href="#m539f38cb9c" x="345.6" y="178.116956" style="stroke: #000000; stroke-width: 0.6"/>
      </g>
     </g>
    </g>
    <g id="ytick_31">
     <g id="line2d_74">
      <g>
       <use xlink:href="#m539f38cb9c" x="345.6" y="164.824644" style="stroke: #000000; stroke-width: 0.6"/>
      </g>
     </g>
    </g>
    <g id="ytick_32">
     <g id="line2d_75">
      <g>
       <use xlink:href="#m539f38cb9c" x="345.6" y="158.178488" style="stroke: #000000; stroke-width: 0.6"/>
      </g>
     </g>
    </g>
    <g id="ytick_33">
     <g id="line2d_76">
      <g>
       <use xlink:href="#m539f38cb9c" x="345.6" y="151.532332" style="stroke: #000000; stroke-width: 0.6"/>
      </g>
     </g>
    </g>
    <g id="ytick_34">
     <g id="line2d_77">
      <g>
       <use xlink:href="#m539f38cb9c" x="345.6" y="144.886176" style="stroke: #000000; stroke-width: 0.6"/>
      </g>
     </g>
    </g>
    <g id="ytick_35">
     <g id="line2d_78">
      <g>
       <use xlink:href="#m539f38cb9c" x="345.6" y="131.593865" style="stroke: #000000; stroke-width: 0.6"/>
      </g>
     </g>
    </g>
    <g id="ytick_36">
     <g id="line2d_79">
      <g>
       <use xlink:href="#m539f38cb9c" x="345.6" y="124.947709" style="stroke: #000000; stroke-width: 0.6"/>
      </g>
     </g>
    </g>
    <g id="ytick_37">
     <g id="line2d_80">
      <g>
       <use xlink:href="#m539f38cb9c" x="345.6" y="118.301553" style="stroke: #000000; stroke-width: 0.6"/>
      </g>
     </g>
    </g>
    <g id="ytick_38">
     <g id="line2d_81">
      <g>
       <use xlink:href="#m539f38cb9c" x="345.6" y="111.655397" style="stroke: #000000; stroke-width: 0.6"/>
      </g>
     </g>
    </g>
    <g id="ytick_39">
     <g id="line2d_82">
      <g>
       <use xlink:href="#m539f38cb9c" x="345.6" y="98.363085" style="stroke: #000000; stroke-width: 0.6"/>
      </g>
     </g>
    </g>
    <g id="ytick_40">
     <g id="line2d_83">
      <g>
       <use xlink:href="#m539f38cb9c" x="345.6" y="91.716929" style="stroke: #000000; stroke-width: 0.6"/>
      </g>
     </g>
    </g>
    <g id="ytick_41">
     <g id="line2d_84">
      <g>
       <use xlink:href="#m539f38cb9c" x="345.6" y="85.070773" style="stroke: #000000; stroke-width: 0.6"/>
      </g>
     </g>
    </g>
    <g id="ytick_42">
     <g id="line2d_85">
      <g>
       <use xlink:href="#m539f38cb9c" x="345.6" y="78.424617" style="stroke: #000000; stroke-width: 0.6"/>
      </g>
     </g>
    </g>
   </g>
   <g id="line2d_86">
    <path d="M 256.984615 71.778462 
L 257.978053 114.096624 
L 258.907732 144.803459 
L 259.807302 167.376524 
L 260.605735 182.267947 
L 261.363297 192.477535 
L 262.000221 198.45242 
L 262.557529 201.939717 
L 263.048723 203.800624 
L 263.434582 204.536692 
L 263.723977 204.701511 
L 264.013371 204.55611 
L 264.302765 204.119342 
L 264.704685 203.063494 
L 265.22716 200.980274 
L 265.927028 197.088379 
L 266.775839 190.962338 
L 267.860407 181.419184 
L 269.346668 166.30692 
L 274.523292 111.881373 
L 276.093595 98.513991 
L 277.276639 90.07644 
L 278.412833 83.426665 
L 279.348682 79.065792 
L 280.270879 75.771431 
L 281.080491 73.699292 
L 281.793433 72.50196 
L 282.30634 71.997693 
L 282.819247 71.786304 
L 283.216825 71.819945 
L 283.746928 72.126865 
L 284.241942 72.676851 
L 284.750969 73.499352 
L 285.50964 75.189189 
L 286.435823 77.96213 
L 287.45384 81.838539 
L 288.542615 86.844621 
L 289.997259 94.720836 
L 291.560122 104.393548 
L 293.60623 118.359348 
L 300.22506 164.847425 
L 302.195344 176.716797 
L 303.802282 185.116385 
L 305.28681 191.679452 
L 306.432357 195.883983 
L 307.622115 199.41155 
L 308.662746 201.771961 
L 309.388095 203.009613 
L 310.247604 204.039122 
L 310.819823 204.4613 
L 311.391256 204.673531 
L 312.106759 204.646158 
L 312.670632 204.39716 
L 313.466619 203.709461 
L 314.293745 202.586277 
L 315.210564 200.86889 
L 316.056977 198.858469 
L 317.212051 195.489216 
L 318.48468 190.996687 
L 319.947927 184.9169 
L 321.578392 177.142619 
L 323.568804 166.501236 
L 326.226885 150.948858 
L 332.914133 111.042793 
L 335.132366 99.429575 
L 336.895773 91.323114 
L 338.410699 85.320924 
L 339.738034 80.882814 
L 340.865226 77.763757 
L 341.983213 75.291844 
L 342.838618 73.833618 
L 343.772266 72.681288 
L 344.635207 72.030411 
L 345.287114 71.804974 
L 346.057734 71.835199 
L 346.644837 72.073921 
L 347.396325 72.650588 
L 348.081397 73.439543 
L 348.927611 74.756302 
L 349.960563 76.86612 
L 351.063354 79.709658 
L 352.282099 83.530613 
L 353.756648 89.044248 
L 355.27826 95.662768 
L 357.131958 104.827704 
L 359.388605 117.275842 
L 362.471952 135.696623 
L 367.453022 165.498708 
L 369.519674 176.625762 
L 371.230888 184.822277 
L 372.751397 191.134671 
L 374.098396 195.84145 
L 375.160149 198.903075 
L 376.25721 201.420824 
L 377.107184 202.896832 
L 377.88829 203.873822 
L 378.54699 204.407951 
L 379.287642 204.685678 
L 379.841926 204.66691 
L 380.477811 204.404134 
L 381.063477 203.93279 
L 381.844364 202.961433 
L 382.685142 201.478362 
L 383.658072 199.201348 
L 384.736054 195.988849 
L 385.955591 191.509088 
L 387.21548 185.986688 
L 388.660801 178.619197 
L 390.318957 168.969501 
L 392.174069 156.942645 
L 394.986046 137.128183 
L 399.170064 107.493503 
L 401.172043 94.899865 
L 402.802778 86.128695 
L 404.035582 80.653119 
L 405.065597 76.977429 
L 405.818381 74.86621 
L 406.666618 73.116445 
L 407.251108 72.320983 
L 407.827234 71.87944 
L 408.211318 71.779773 
L 408.595402 71.839518 
L 408.958488 72.045138 
L 409.39111 72.482428 
L 409.973638 73.406833 
L 410.573263 74.766603 
L 411.357428 77.177397 
L 412.193546 80.542007 
L 413.115938 85.199804 
L 414.198382 91.903648 
L 415.383731 100.703413 
L 416.756967 112.624263 
L 418.512113 130.05164 
L 424.303086 189.982207 
L 425.32925 197.443405 
L 426.069752 201.423413 
L 426.614878 203.429816 
L 427.036586 204.364863 
L 427.375071 204.685047 
L 427.600727 204.66965 
L 427.826383 204.460593 
L 428.171798 203.744153 
L 428.559443 202.330823 
L 429.024617 199.714944 
L 429.591174 195.046796 
L 430.180261 188.289138 
L 430.840464 178.153363 
L 431.608445 162.55231 
L 432.395297 141.788421 
L 433.239209 113.448878 
L 434.155415 74.636603 
L 434.215385 71.778462 
L 434.215385 71.778462 
" clip-path="url(#p2863462de6)" style="fill: none; stroke: #ff0000; stroke-linecap: square"/>
   </g>
   <g id="patch_6">
    <path d="M 345.6 207.36 
L 345.6 69.12 
" style="fill: none; stroke: #000000; stroke-width: 0.8; stroke-linejoin: miter; stroke-linecap: square"/>
   </g>
   <g id="patch_7">
    <path d="M 253.44 138.240021 
L 437.76 138.240021 
" style="fill: none; stroke: #000000; stroke-width: 0.8; stroke-linejoin: miter; stroke-linecap: square"/>
   </g>
   <g id="text_18">
    <!-- n=8 -->
    <g transform="translate(335.060156 63.12) scale(0.1 -0.1)">
     <defs>
      <path id="DejaVuSans-38" d="M 2034 2216 
Q 1584 2216 1326 1975 
Q 1069 1734 1069 1313 
Q 1069 891 1326 650 
Q 1584 409 2034 409 
Q 2484 409 2743 651 
Q 3003 894 3003 1313 
Q 3003 1734 2745 1975 
Q 2488 2216 2034 2216 
z
M 1403 2484 
Q 997 2584 770 2862 
Q 544 3141 544 3541 
Q 544 4100 942 4425 
Q 1341 4750 2034 4750 
Q 2731 4750 3128 4425 
Q 3525 4100 3525 3541 
Q 3525 3141 3298 2862 
Q 3072 2584 2669 2484 
Q 3125 2378 3379 2068 
Q 3634 1759 3634 1313 
Q 3634 634 3220 271 
Q 2806 -91 2034 -91 
Q 1263 -91 848 271 
Q 434 634 434 1313 
Q 434 1759 690 2068 
Q 947 2378 1403 2484 
z
M 1172 3481 
Q 1172 3119 1398 2916 
Q 1625 2713 2034 2713 
Q 2441 2713 2670 2916 
Q 2900 3119 2900 3481 
Q 2900 3844 2670 4047 
Q 2441 4250 2034 4250 
Q 1625 4250 1398 4047 
Q 1172 3844 1172 3481 
z
" transform="scale(0.015625)"/>
     </defs>
     <use xlink:href="#DejaVuSans-6e"/>
     <use xlink:href="#DejaVuSans-3d" x="63.378906"/>
     <use xlink:href="#DejaVuSans-38" x="147.167969"/>
    </g>
   </g>
  </g>
  <g id="axes_3">
   <g id="patch_8">
    <path d="M 253.44 307.584 
L 437.76 307.584 
L 437.76 255.744 
L 253.44 255.744 
z
" style="fill: #ffffff"/>
   </g>
   <g id="matplotlib.axis_5">
    <g id="xtick_43">
     <g id="line2d_87">
      <g>
       <use xlink:href="#m01d326fb56" x="256.984615" y="281.664" style="stroke: #000000; stroke-width: 0.8"/>
      </g>
     </g>
     <g id="text_19">
      <!-- −1.0 -->
      <g transform="translate(244.843209 296.262438) scale(0.1 -0.1)">
       <use xlink:href="#DejaVuSans-2212"/>
       <use xlink:href="#DejaVuSans-31" x="83.789062"/>
       <use xlink:href="#DejaVuSans-2e" x="147.412109"/>
       <use xlink:href="#DejaVuSans-30" x="179.199219"/>
      </g>
     </g>
    </g>
    <g id="xtick_44">
     <g id="line2d_88">
      <g>
       <use xlink:href="#m01d326fb56" x="301.292308" y="281.664" style="stroke: #000000; stroke-width: 0.8"/>
      </g>
     </g>
     <g id="text_20">
      <!-- −0.5 -->
      <g transform="translate(289.150901 296.262438) scale(0.1 -0.1)">
       <use xlink:href="#DejaVuSans-2212"/>
       <use xlink:href="#DejaVuSans-30" x="83.789062"/>
       <use xlink:href="#DejaVuSans-2e" x="147.412109"/>
       <use xlink:href="#DejaVuSans-35" x="179.199219"/>
      </g>
     </g>
    </g>
    <g id="xtick_45">
     <g id="line2d_89">
      <g>
       <use xlink:href="#m01d326fb56" x="345.6" y="281.664" style="stroke: #000000; stroke-width: 0.8"/>
      </g>
     </g>
    </g>
    <g id="xtick_46">
     <g id="line2d_90">
      <g>
       <use xlink:href="#m01d326fb56" x="389.907692" y="281.664" style="stroke: #000000; stroke-width: 0.8"/>
      </g>
     </g>
     <g id="text_21">
      <!-- 0.5 -->
      <g transform="translate(381.95613 296.262438) scale(0.1 -0.1)">
       <use xlink:href="#DejaVuSans-30"/>
       <use xlink:href="#DejaVuSans-2e" x="63.623047"/>
       <use xlink:href="#DejaVuSans-35" x="95.410156"/>
      </g>
     </g>
    </g>
    <g id="xtick_47">
     <g id="line2d_91">
      <g>
       <use xlink:href="#m01d326fb56" x="434.215385" y="281.664" style="stroke: #000000; stroke-width: 0.8"/>
      </g>
     </g>
     <g id="text_22">
      <!-- 1.0 -->
      <g transform="translate(426.263822 296.262438) scale(0.1 -0.1)">
       <use xlink:href="#DejaVuSans-31"/>
       <use xlink:href="#DejaVuSans-2e" x="63.623047"/>
       <use xlink:href="#DejaVuSans-30" x="95.410156"/>
      </g>
     </g>
    </g>
    <g id="xtick_48">
     <g id="line2d_92">
      <g>
       <use xlink:href="#mca58271f08" x="265.846154" y="281.664" style="stroke: #000000; stroke-width: 0.6"/>
      </g>
     </g>
    </g>
    <g id="xtick_49">
     <g id="line2d_93">
      <g>
       <use xlink:href="#mca58271f08" x="274.707692" y="281.664" style="stroke: #000000; stroke-width: 0.6"/>
      </g>
     </g>
    </g>
    <g id="xtick_50">
     <g id="line2d_94">
      <g>
       <use xlink:href="#mca58271f08" x="283.569231" y="281.664" style="stroke: #000000; stroke-width: 0.6"/>
      </g>
     </g>
    </g>
    <g id="xtick_51">
     <g id="line2d_95">
      <g>
       <use xlink:href="#mca58271f08" x="292.430769" y="281.664" style="stroke: #000000; stroke-width: 0.6"/>
      </g>
     </g>
    </g>
    <g id="xtick_52">
     <g id="line2d_96">
      <g>
       <use xlink:href="#mca58271f08" x="310.153846" y="281.664" style="stroke: #000000; stroke-width: 0.6"/>
      </g>
     </g>
    </g>
    <g id="xtick_53">
     <g id="line2d_97">
      <g>
       <use xlink:href="#mca58271f08" x="319.015385" y="281.664" style="stroke: #000000; stroke-width: 0.6"/>
      </g>
     </g>
    </g>
    <g id="xtick_54">
     <g id="line2d_98">
      <g>
       <use xlink:href="#mca58271f08" x="327.876923" y="281.664" style="stroke: #000000; stroke-width: 0.6"/>
      </g>
     </g>
    </g>
    <g id="xtick_55">
     <g id="line2d_99">
      <g>
       <use xlink:href="#mca58271f08" x="336.738462" y="281.664" style="stroke: #000000; stroke-width: 0.6"/>
      </g>
     </g>
    </g>
    <g id="xtick_56">
     <g id="line2d_100">
      <g>
       <use xlink:href="#mca58271f08" x="354.461538" y="281.664" style="stroke: #000000; stroke-width: 0.6"/>
      </g>
     </g>
    </g>
    <g id="xtick_57">
     <g id="line2d_101">
      <g>
       <use xlink:href="#mca58271f08" x="363.323077" y="281.664" style="stroke: #000000; stroke-width: 0.6"/>
      </g>
     </g>
    </g>
    <g id="xtick_58">
     <g id="line2d_102">
      <g>
       <use xlink:href="#mca58271f08" x="372.184615" y="281.664" style="stroke: #000000; stroke-width: 0.6"/>
      </g>
     </g>
    </g>
    <g id="xtick_59">
     <g id="line2d_103">
      <g>
       <use xlink:href="#mca58271f08" x="381.046154" y="281.664" style="stroke: #000000; stroke-width: 0.6"/>
      </g>
     </g>
    </g>
    <g id="xtick_60">
     <g id="line2d_104">
      <g>
       <use xlink:href="#mca58271f08" x="398.769231" y="281.664" style="stroke: #000000; stroke-width: 0.6"/>
      </g>
     </g>
    </g>
    <g id="xtick_61">
     <g id="line2d_105">
      <g>
       <use xlink:href="#mca58271f08" x="407.630769" y="281.664" style="stroke: #000000; stroke-width: 0.6"/>
      </g>
     </g>
    </g>
    <g id="xtick_62">
     <g id="line2d_106">
      <g>
       <use xlink:href="#mca58271f08" x="416.492308" y="281.664" style="stroke: #000000; stroke-width: 0.6"/>
      </g>
     </g>
    </g>
    <g id="xtick_63">
     <g id="line2d_107">
      <g>
       <use xlink:href="#mca58271f08" x="425.353846" y="281.664" style="stroke: #000000; stroke-width: 0.6"/>
      </g>
     </g>
    </g>
   </g>
   <g id="matplotlib.axis_6">
    <g id="ytick_43">
     <g id="line2d_108">
      <g>
       <use xlink:href="#m8583abf445" x="345.6" y="306.587078" style="stroke: #000000; stroke-width: 0.8"/>
      </g>
     </g>
     <g id="text_23">
      <!-- −1.0 -->
      <g transform="translate(314.317188 310.386296) scale(0.1 -0.1)">
       <use xlink:href="#DejaVuSans-2212"/>
       <use xlink:href="#DejaVuSans-31" x="83.789062"/>
       <use xlink:href="#DejaVuSans-2e" x="147.412109"/>
       <use xlink:href="#DejaVuSans-30" x="179.199219"/>
      </g>
     </g>
    </g>
    <g id="ytick_44">
     <g id="line2d_109">
      <g>
       <use xlink:href="#m8583abf445" x="345.6" y="294.125539" style="stroke: #000000; stroke-width: 0.8"/>
      </g>
     </g>
     <g id="text_24">
      <!-- −0.5 -->
      <g transform="translate(314.317188 297.924758) scale(0.1 -0.1)">
       <use xlink:href="#DejaVuSans-2212"/>
       <use xlink:href="#DejaVuSans-30" x="83.789062"/>
       <use xlink:href="#DejaVuSans-2e" x="147.412109"/>
       <use xlink:href="#DejaVuSans-35" x="179.199219"/>
      </g>
     </g>
    </g>
    <g id="ytick_45">
     <g id="line2d_110">
      <g>
       <use xlink:href="#m8583abf445" x="345.6" y="281.664" style="stroke: #000000; stroke-width: 0.8"/>
      </g>
     </g>
    </g>
    <g id="ytick_46">
     <g id="line2d_111">
      <g>
       <use xlink:href="#m8583abf445" x="345.6" y="269.202462" style="stroke: #000000; stroke-width: 0.8"/>
      </g>
     </g>
     <g id="text_25">
      <!-- 0.5 -->
      <g transform="translate(322.696875 273.00168) scale(0.1 -0.1)">
       <use xlink:href="#DejaVuSans-30"/>
       <use xlink:href="#DejaVuSans-2e" x="63.623047"/>
       <use xlink:href="#DejaVuSans-35" x="95.410156"/>
      </g>
     </g>
    </g>
    <g id="ytick_47">
     <g id="line2d_112">
      <g>
       <use xlink:href="#m8583abf445" x="345.6" y="256.740923" style="stroke: #000000; stroke-width: 0.8"/>
      </g>
     </g>
     <g id="text_26">
      <!-- 1.0 -->
      <g transform="translate(322.696875 260.540142) scale(0.1 -0.1)">
       <use xlink:href="#DejaVuSans-31"/>
       <use xlink:href="#DejaVuSans-2e" x="63.623047"/>
       <use xlink:href="#DejaVuSans-30" x="95.410156"/>
      </g>
     </g>
    </g>
    <g id="ytick_48">
     <g id="line2d_113">
      <g>
       <use xlink:href="#m539f38cb9c" x="345.6" y="304.09477" style="stroke: #000000; stroke-width: 0.6"/>
      </g>
     </g>
    </g>
    <g id="ytick_49">
     <g id="line2d_114">
      <g>
       <use xlink:href="#m539f38cb9c" x="345.6" y="301.602462" style="stroke: #000000; stroke-width: 0.6"/>
      </g>
     </g>
    </g>
    <g id="ytick_50">
     <g id="line2d_115">
      <g>
       <use xlink:href="#m539f38cb9c" x="345.6" y="299.110154" style="stroke: #000000; stroke-width: 0.6"/>
      </g>
     </g>
    </g>
    <g id="ytick_51">
     <g id="line2d_116">
      <g>
       <use xlink:href="#m539f38cb9c" x="345.6" y="296.617847" style="stroke: #000000; stroke-width: 0.6"/>
      </g>
     </g>
    </g>
    <g id="ytick_52">
     <g id="line2d_117">
      <g>
       <use xlink:href="#m539f38cb9c" x="345.6" y="291.633231" style="stroke: #000000; stroke-width: 0.6"/>
      </g>
     </g>
    </g>
    <g id="ytick_53">
     <g id="line2d_118">
      <g>
       <use xlink:href="#m539f38cb9c" x="345.6" y="289.140923" style="stroke: #000000; stroke-width: 0.6"/>
      </g>
     </g>
    </g>
    <g id="ytick_54">
     <g id="line2d_119">
      <g>
       <use xlink:href="#m539f38cb9c" x="345.6" y="286.648616" style="stroke: #000000; stroke-width: 0.6"/>
      </g>
     </g>
    </g>
    <g id="ytick_55">
     <g id="line2d_120">
      <g>
       <use xlink:href="#m539f38cb9c" x="345.6" y="284.156308" style="stroke: #000000; stroke-width: 0.6"/>
      </g>
     </g>
    </g>
    <g id="ytick_56">
     <g id="line2d_121">
      <g>
       <use xlink:href="#m539f38cb9c" x="345.6" y="279.171693" style="stroke: #000000; stroke-width: 0.6"/>
      </g>
     </g>
    </g>
    <g id="ytick_57">
     <g id="line2d_122">
      <g>
       <use xlink:href="#m539f38cb9c" x="345.6" y="276.679385" style="stroke: #000000; stroke-width: 0.6"/>
      </g>
     </g>
    </g>
    <g id="ytick_58">
     <g id="line2d_123">
      <g>
       <use xlink:href="#m539f38cb9c" x="345.6" y="274.187077" style="stroke: #000000; stroke-width: 0.6"/>
      </g>
     </g>
    </g>
    <g id="ytick_59">
     <g id="line2d_124">
      <g>
       <use xlink:href="#m539f38cb9c" x="345.6" y="271.694769" style="stroke: #000000; stroke-width: 0.6"/>
      </g>
     </g>
    </g>
    <g id="ytick_60">
     <g id="line2d_125">
      <g>
       <use xlink:href="#m539f38cb9c" x="345.6" y="266.710154" style="stroke: #000000; stroke-width: 0.6"/>
      </g>
     </g>
    </g>
    <g id="ytick_61">
     <g id="line2d_126">
      <g>
       <use xlink:href="#m539f38cb9c" x="345.6" y="264.217846" style="stroke: #000000; stroke-width: 0.6"/>
      </g>
     </g>
    </g>
    <g id="ytick_62">
     <g id="line2d_127">
      <g>
       <use xlink:href="#m539f38cb9c" x="345.6" y="261.725539" style="stroke: #000000; stroke-width: 0.6"/>
      </g>
     </g>
    </g>
    <g id="ytick_63">
     <g id="line2d_128">
      <g>
       <use xlink:href="#m539f38cb9c" x="345.6" y="259.233231" style="stroke: #000000; stroke-width: 0.6"/>
      </g>
     </g>
    </g>
   </g>
   <g id="line2d_129">
    <path d="M 256.984615 256.740923 
L 257.495731 285.351318 
L 257.946715 299.351568 
L 258.303225 304.82789 
L 258.570608 306.436635 
L 258.719153 306.576371 
L 258.83799 306.355235 
L 259.062032 305.244512 
L 259.418716 301.988769 
L 260.007223 294.078675 
L 261.941397 266.296081 
L 262.592601 260.554176 
L 263.0973 257.89577 
L 263.454347 256.955739 
L 263.701046 256.743263 
L 263.906629 256.82629 
L 264.153328 257.221945 
L 264.482261 258.217097 
L 264.956247 260.486813 
L 265.567189 264.602989 
L 266.504589 272.664464 
L 269.116041 296.078882 
L 269.93214 301.250367 
L 270.612881 304.283695 
L 271.172102 305.839385 
L 271.591519 306.444636 
L 271.929694 306.586927 
L 272.222507 306.467037 
L 272.573882 306.035587 
L 272.996055 305.122628 
L 273.559824 303.284452 
L 274.311515 299.875789 
L 275.190128 294.802238 
L 276.404027 286.601413 
L 278.916 269.555547 
L 280.000526 263.757984 
L 280.803748 260.482924 
L 281.455816 258.551054 
L 282.077155 257.351069 
L 282.588363 256.841578 
L 282.995587 256.74348 
L 283.402812 256.913887 
L 283.810036 257.345883 
L 284.318974 258.239006 
L 284.944352 259.840884 
L 285.673453 262.342787 
L 286.61 266.402462 
L 287.90015 273.129274 
L 292.176899 296.591536 
L 293.293069 301.082646 
L 294.097718 303.556988 
L 294.836514 305.20229 
L 295.485225 306.126917 
L 295.962427 306.490157 
L 296.433894 306.584522 
L 296.863066 306.443794 
L 297.346661 306.031171 
L 297.926975 305.191641 
L 298.613102 303.738891 
L 299.398056 301.514308 
L 300.309192 298.2721 
L 301.576392 292.82746 
L 303.439096 283.643817 
L 306.14047 270.376355 
L 307.431477 265.056304 
L 308.481232 261.55651 
L 309.331073 259.370869 
L 310.102692 257.937777 
L 310.797008 257.119837 
L 311.383582 256.785189 
L 311.881085 256.758582 
L 312.378588 256.966549 
L 312.855123 257.382329 
L 313.4638 258.213381 
L 314.117732 259.465565 
L 314.936851 261.523802 
L 315.908825 264.597991 
L 317.17068 269.430141 
L 318.828611 276.760016 
L 322.672962 294.159058 
L 324.007811 299.087997 
L 325.05942 302.217514 
L 325.891479 304.139418 
L 326.742341 305.549954 
L 327.435252 306.262488 
L 328.020369 306.551145 
L 328.600199 306.55203 
L 329.191894 306.261463 
L 329.662358 305.823224 
L 330.385134 304.801922 
L 331.169648 303.237308 
L 332.116548 300.764902 
L 333.170804 297.350727 
L 334.403914 292.642189 
L 336.358391 284.173657 
L 339.566522 270.142335 
L 341.049681 264.696457 
L 342.209254 261.26971 
L 343.151243 259.138138 
L 343.966195 257.817614 
L 344.648722 257.107662 
L 345.268473 256.785561 
L 345.79072 256.755699 
L 346.290529 256.934388 
L 346.866585 257.389853 
L 347.472213 258.151603 
L 348.149071 259.335073 
L 348.991725 261.272243 
L 349.888876 263.852902 
L 351.055045 267.896619 
L 352.512811 273.791381 
L 358.17968 297.87629 
L 359.336267 301.483841 
L 360.329927 303.88891 
L 361.05953 305.193963 
L 361.821852 306.109706 
L 362.463544 306.511101 
L 362.938766 306.585989 
L 363.45901 306.449324 
L 363.979254 306.084574 
L 364.565572 305.403316 
L 365.299079 304.158218 
L 366.054531 302.440003 
L 366.963717 299.829736 
L 368.01653 296.155343 
L 369.436332 290.325652 
L 371.559257 280.556138 
L 374.093193 269.166628 
L 375.48742 263.92687 
L 376.511846 260.844132 
L 377.456858 258.703915 
L 378.182759 257.571234 
L 378.779543 256.994651 
L 379.34167 256.75466 
L 379.85181 256.796073 
L 380.334464 257.063821 
L 380.934852 257.705792 
L 381.594135 258.798567 
L 382.404765 260.677615 
L 383.299679 263.39096 
L 384.416184 267.601926 
L 385.845354 274.033525 
L 388.794046 288.847486 
L 390.480183 296.612148 
L 391.716294 301.238037 
L 392.601375 303.774458 
L 393.359678 305.340247 
L 393.958464 306.143429 
L 394.47171 306.511055 
L 394.952752 306.57851 
L 395.439486 306.369381 
L 395.940905 305.860725 
L 396.510508 304.92448 
L 397.196769 303.302382 
L 398.016816 300.6926 
L 398.998866 296.700759 
L 400.172956 290.91621 
L 401.7825 281.864823 
L 404.25038 268.067362 
L 405.418394 262.766521 
L 406.319767 259.652393 
L 407.01127 257.974155 
L 407.538802 257.158201 
L 407.995828 256.797596 
L 408.376684 256.751903 
L 408.75754 256.942957 
L 409.180309 257.435359 
L 409.640837 258.307557 
L 410.200147 259.831065 
L 410.873729 262.31591 
L 411.701183 266.261435 
L 412.691703 272.071322 
L 414.030455 281.16671 
L 416.353737 296.903952 
L 417.338924 302.039239 
L 418.028213 304.622446 
L 418.575935 305.949139 
L 418.998333 306.48288 
L 419.300046 306.5866 
L 419.576252 306.471387 
L 419.907699 306.061881 
L 420.304582 305.176723 
L 420.787289 303.519684 
L 421.406039 300.487401 
L 422.13827 295.680999 
L 423.088191 287.842508 
L 426.128127 261.172775 
L 426.720337 258.207268 
L 427.117001 257.077309 
L 427.404238 256.752842 
L 427.59638 256.785662 
L 427.82695 257.10291 
L 428.134378 258.016353 
L 428.512875 259.936036 
L 428.98737 263.594957 
L 429.592339 270.185783 
L 430.39222 281.549094 
L 431.881097 303.053778 
L 432.283797 306.064164 
L 432.505097 306.586467 
L 432.604844 306.493923 
L 432.764439 305.85937 
L 432.983883 303.872939 
L 433.260011 299.205588 
L 433.601216 289.363 
L 434.010662 270.088752 
L 434.215385 256.740923 
L 434.215385 256.740923 
" clip-path="url(#p4029831139)" style="fill: none; stroke: #a52a2a; stroke-linecap: square"/>
   </g>
   <g id="patch_9">
    <path d="M 345.6 307.584 
L 345.6 255.744 
" style="fill: none; stroke: #000000; stroke-width: 0.8; stroke-linejoin: miter; stroke-linecap: square"/>
   </g>
   <g id="patch_10">
    <path d="M 253.44 281.664 
L 437.76 281.664 
" style="fill: none; stroke: #000000; stroke-width: 0.8; stroke-linejoin: miter; stroke-linecap: square"/>
   </g>
   <g id="text_27">
    <!-- n=16 -->
    <g transform="translate(331.878906 249.744) scale(0.1 -0.1)">
     <defs>
      <path id="DejaVuSans-36" d="M 2113 2584 
Q 1688 2584 1439 2293 
Q 1191 2003 1191 1497 
Q 1191 994 1439 701 
Q 1688 409 2113 409 
Q 2538 409 2786 701 
Q 3034 994 3034 1497 
Q 3034 2003 2786 2293 
Q 2538 2584 2113 2584 
z
M 3366 4563 
L 3366 3988 
Q 3128 4100 2886 4159 
Q 2644 4219 2406 4219 
Q 1781 4219 1451 3797 
Q 1122 3375 1075 2522 
Q 1259 2794 1537 2939 
Q 1816 3084 2150 3084 
Q 2853 3084 3261 2657 
Q 3669 2231 3669 1497 
Q 3669 778 3244 343 
Q 2819 -91 2113 -91 
Q 1303 -91 875 529 
Q 447 1150 447 2328 
Q 447 3434 972 4092 
Q 1497 4750 2381 4750 
Q 2619 4750 2861 4703 
Q 3103 4656 3366 4563 
z
" transform="scale(0.015625)"/>
     </defs>
     <use xlink:href="#DejaVuSans-6e"/>
     <use xlink:href="#DejaVuSans-3d" x="63.378906"/>
     <use xlink:href="#DejaVuSans-31" x="147.167969"/>
     <use xlink:href="#DejaVuSans-36" x="210.791016"/>
    </g>
   </g>
  </g>
  <g id="axes_4">
   <g id="patch_11">
    <path d="M 82.944 69.12 
L 405.504 69.12 
L 405.504 34.56 
L 82.944 34.56 
z
" style="fill: #ffffff"/>
   </g>
   <g id="matplotlib.axis_7"/>
   <g id="matplotlib.axis_8"/>
   <g id="text_28">
    <!-- Chebyshev polynomials -->
    <g style="fill: #0000ff" transform="translate(149.19025 56.255) scale(0.16 -0.16)">
     <defs>
      <path id="DejaVuSans-43" d="M 4122 4306 
L 4122 3641 
Q 3803 3938 3442 4084 
Q 3081 4231 2675 4231 
Q 1875 4231 1450 3742 
Q 1025 3253 1025 2328 
Q 1025 1406 1450 917 
Q 1875 428 2675 428 
Q 3081 428 3442 575 
Q 3803 722 4122 1019 
L 4122 359 
Q 3791 134 3420 21 
Q 3050 -91 2638 -91 
Q 1578 -91 968 557 
Q 359 1206 359 2328 
Q 359 3453 968 4101 
Q 1578 4750 2638 4750 
Q 3056 4750 3426 4639 
Q 3797 4528 4122 4306 
z
" transform="scale(0.015625)"/>
      <path id="DejaVuSans-68" d="M 3513 2113 
L 3513 0 
L 2938 0 
L 2938 2094 
Q 2938 2591 2744 2837 
Q 2550 3084 2163 3084 
Q 1697 3084 1428 2787 
Q 1159 2491 1159 1978 
L 1159 0 
L 581 0 
L 581 4863 
L 1159 4863 
L 1159 2956 
Q 1366 3272 1645 3428 
Q 1925 3584 2291 3584 
Q 2894 3584 3203 3211 
Q 3513 2838 3513 2113 
z
" transform="scale(0.015625)"/>
      <path id="DejaVuSans-65" d="M 3597 1894 
L 3597 1613 
L 953 1613 
Q 991 1019 1311 708 
Q 1631 397 2203 397 
Q 2534 397 2845 478 
Q 3156 559 3463 722 
L 3463 178 
Q 3153 47 2828 -22 
Q 2503 -91 2169 -91 
Q 1331 -91 842 396 
Q 353 884 353 1716 
Q 353 2575 817 3079 
Q 1281 3584 2069 3584 
Q 2775 3584 3186 3129 
Q 3597 2675 3597 1894 
z
M 3022 2063 
Q 3016 2534 2758 2815 
Q 2500 3097 2075 3097 
Q 1594 3097 1305 2825 
Q 1016 2553 972 2059 
L 3022 2063 
z
" transform="scale(0.015625)"/>
      <path id="DejaVuSans-62" d="M 3116 1747 
Q 3116 2381 2855 2742 
Q 2594 3103 2138 3103 
Q 1681 3103 1420 2742 
Q 1159 2381 1159 1747 
Q 1159 1113 1420 752 
Q 1681 391 2138 391 
Q 2594 391 2855 752 
Q 3116 1113 3116 1747 
z
M 1159 2969 
Q 1341 3281 1617 3432 
Q 1894 3584 2278 3584 
Q 2916 3584 3314 3078 
Q 3713 2572 3713 1747 
Q 3713 922 3314 415 
Q 2916 -91 2278 -91 
Q 1894 -91 1617 61 
Q 1341 213 1159 525 
L 1159 0 
L 581 0 
L 581 4863 
L 1159 4863 
L 1159 2969 
z
" transform="scale(0.015625)"/>
      <path id="DejaVuSans-79" d="M 2059 -325 
Q 1816 -950 1584 -1140 
Q 1353 -1331 966 -1331 
L 506 -1331 
L 506 -850 
L 844 -850 
Q 1081 -850 1212 -737 
Q 1344 -625 1503 -206 
L 1606 56 
L 191 3500 
L 800 3500 
L 1894 763 
L 2988 3500 
L 3597 3500 
L 2059 -325 
z
" transform="scale(0.015625)"/>
      <path id="DejaVuSans-73" d="M 2834 3397 
L 2834 2853 
Q 2591 2978 2328 3040 
Q 2066 3103 1784 3103 
Q 1356 3103 1142 2972 
Q 928 2841 928 2578 
Q 928 2378 1081 2264 
Q 1234 2150 1697 2047 
L 1894 2003 
Q 2506 1872 2764 1633 
Q 3022 1394 3022 966 
Q 3022 478 2636 193 
Q 2250 -91 1575 -91 
Q 1294 -91 989 -36 
Q 684 19 347 128 
L 347 722 
Q 666 556 975 473 
Q 1284 391 1588 391 
Q 1994 391 2212 530 
Q 2431 669 2431 922 
Q 2431 1156 2273 1281 
Q 2116 1406 1581 1522 
L 1381 1569 
Q 847 1681 609 1914 
Q 372 2147 372 2553 
Q 372 3047 722 3315 
Q 1072 3584 1716 3584 
Q 2034 3584 2315 3537 
Q 2597 3491 2834 3397 
z
" transform="scale(0.015625)"/>
      <path id="DejaVuSans-76" d="M 191 3500 
L 800 3500 
L 1894 563 
L 2988 3500 
L 3597 3500 
L 2284 0 
L 1503 0 
L 191 3500 
z
" transform="scale(0.015625)"/>
      <path id="DejaVuSans-20" transform="scale(0.015625)"/>
      <path id="DejaVuSans-70" d="M 1159 525 
L 1159 -1331 
L 581 -1331 
L 581 3500 
L 1159 3500 
L 1159 2969 
Q 1341 3281 1617 3432 
Q 1894 3584 2278 3584 
Q 2916 3584 3314 3078 
Q 3713 2572 3713 1747 
Q 3713 922 3314 415 
Q 2916 -91 2278 -91 
Q 1894 -91 1617 61 
Q 1341 213 1159 525 
z
M 3116 1747 
Q 3116 2381 2855 2742 
Q 2594 3103 2138 3103 
Q 1681 3103 1420 2742 
Q 1159 2381 1159 1747 
Q 1159 1113 1420 752 
Q 1681 391 2138 391 
Q 2594 391 2855 752 
Q 3116 1113 3116 1747 
z
" transform="scale(0.015625)"/>
      <path id="DejaVuSans-6f" d="M 1959 3097 
Q 1497 3097 1228 2736 
Q 959 2375 959 1747 
Q 959 1119 1226 758 
Q 1494 397 1959 397 
Q 2419 397 2687 759 
Q 2956 1122 2956 1747 
Q 2956 2369 2687 2733 
Q 2419 3097 1959 3097 
z
M 1959 3584 
Q 2709 3584 3137 3096 
Q 3566 2609 3566 1747 
Q 3566 888 3137 398 
Q 2709 -91 1959 -91 
Q 1206 -91 779 398 
Q 353 888 353 1747 
Q 353 2609 779 3096 
Q 1206 3584 1959 3584 
z
" transform="scale(0.015625)"/>
      <path id="DejaVuSans-6c" d="M 603 4863 
L 1178 4863 
L 1178 0 
L 603 0 
L 603 4863 
z
" transform="scale(0.015625)"/>
      <path id="DejaVuSans-6d" d="M 3328 2828 
Q 3544 3216 3844 3400 
Q 4144 3584 4550 3584 
Q 5097 3584 5394 3201 
Q 5691 2819 5691 2113 
L 5691 0 
L 5113 0 
L 5113 2094 
Q 5113 2597 4934 2840 
Q 4756 3084 4391 3084 
Q 3944 3084 3684 2787 
Q 3425 2491 3425 1978 
L 3425 0 
L 2847 0 
L 2847 2094 
Q 2847 2600 2669 2842 
Q 2491 3084 2119 3084 
Q 1678 3084 1418 2786 
Q 1159 2488 1159 1978 
L 1159 0 
L 581 0 
L 581 3500 
L 1159 3500 
L 1159 2956 
Q 1356 3278 1631 3431 
Q 1906 3584 2284 3584 
Q 2666 3584 2933 3390 
Q 3200 3197 3328 2828 
z
" transform="scale(0.015625)"/>
      <path id="DejaVuSans-69" d="M 603 3500 
L 1178 3500 
L 1178 0 
L 603 0 
L 603 3500 
z
M 603 4863 
L 1178 4863 
L 1178 4134 
L 603 4134 
L 603 4863 
z
" transform="scale(0.015625)"/>
      <path id="DejaVuSans-61" d="M 2194 1759 
Q 1497 1759 1228 1600 
Q 959 1441 959 1056 
Q 959 750 1161 570 
Q 1363 391 1709 391 
Q 2188 391 2477 730 
Q 2766 1069 2766 1631 
L 2766 1759 
L 2194 1759 
z
M 3341 1997 
L 3341 0 
L 2766 0 
L 2766 531 
Q 2569 213 2275 61 
Q 1981 -91 1556 -91 
Q 1019 -91 701 211 
Q 384 513 384 1019 
Q 384 1609 779 1909 
Q 1175 2209 1959 2209 
L 2766 2209 
L 2766 2266 
Q 2766 2663 2505 2880 
Q 2244 3097 1772 3097 
Q 1472 3097 1187 3025 
Q 903 2953 641 2809 
L 641 3341 
Q 956 3463 1253 3523 
Q 1550 3584 1831 3584 
Q 2591 3584 2966 3190 
Q 3341 2797 3341 1997 
z
" transform="scale(0.015625)"/>
     </defs>
     <use xlink:href="#DejaVuSans-43"/>
     <use xlink:href="#DejaVuSans-68" x="69.824219"/>
     <use xlink:href="#DejaVuSans-65" x="133.203125"/>
     <use xlink:href="#DejaVuSans-62" x="194.726562"/>
     <use xlink:href="#DejaVuSans-79" x="258.203125"/>
     <use xlink:href="#DejaVuSans-73" x="317.382812"/>
     <use xlink:href="#DejaVuSans-68" x="369.482422"/>
     <use xlink:href="#DejaVuSans-65" x="432.861328"/>
     <use xlink:href="#DejaVuSans-76" x="494.384766"/>
     <use xlink:href="#DejaVuSans-20" x="553.564453"/>
     <use xlink:href="#DejaVuSans-70" x="585.351562"/>
     <use xlink:href="#DejaVuSans-6f" x="648.828125"/>
     <use xlink:href="#DejaVuSans-6c" x="710.009766"/>
     <use xlink:href="#DejaVuSans-79" x="737.792969"/>
     <use xlink:href="#DejaVuSans-6e" x="796.972656"/>
     <use xlink:href="#DejaVuSans-6f" x="860.351562"/>
     <use xlink:href="#DejaVuSans-6d" x="921.533203"/>
     <use xlink:href="#DejaVuSans-69" x="1018.945312"/>
     <use xlink:href="#DejaVuSans-61" x="1046.728516"/>
     <use xlink:href="#DejaVuSans-6c" x="1108.007812"/>
     <use xlink:href="#DejaVuSans-73" x="1135.791016"/>
    </g>
   </g>
  </g>
 </g>
 <defs>
  <clipPath id="p758b56a6fe">
   <rect x="57.6" y="138.24" width="184.32" height="138.24"/>
  </clipPath>
  <clipPath id="p2863462de6">
   <rect x="253.44" y="69.12" width="184.32" height="138.24"/>
  </clipPath>
  <clipPath id="p4029831139">
   <rect x="253.44" y="255.744" width="184.32" height="51.84"/>
  </clipPath>
 </defs>
</svg>
