<?xml version="1.0" encoding="utf-8" standalone="no"?>
<!DOCTYPE svg PUBLIC "-//W3C//DTD SVG 1.1//EN"
  "http://www.w3.org/Graphics/SVG/1.1/DTD/svg11.dtd">
<!-- Created with matplotlib (http://matplotlib.org/) -->
<svg height="345.6pt" version="1.1" viewBox="0 0 460.8 345.6" width="460.8pt" xmlns="http://www.w3.org/2000/svg" xmlns:xlink="http://www.w3.org/1999/xlink">
 <defs>
  <style type="text/css">
*{stroke-linecap:butt;stroke-linejoin:round;}
  </style>
 </defs>
 <g id="figure_1">
  <g id="patch_1">
   <path d="M 0 345.6 
L 460.8 345.6 
L 460.8 0 
L 0 0 
z
" style="fill:#ffffff;"/>
  </g>
  <g id="axes_1">
   <g id="patch_2">
    <path d="M 57.6 276.48 
L 241.92 276.48 
L 241.92 138.24 
L 57.6 138.24 
z
" style="fill:#ffffff;"/>
   </g>
   <g id="matplotlib.axis_1">
    <g id="xtick_1">
     <g id="line2d_1">
      <defs>
       <path d="M 0 0 
L 0 3.5 
" id="m2790ebb8d2" style="stroke:#000000;stroke-width:0.8;"/>
      </defs>
      <g>
       <use style="stroke:#000000;stroke-width:0.8;" x="61.144615" xlink:href="#m2790ebb8d2" y="207.360019"/>
      </g>
     </g>
     <g id="text_1">
      <!-- -1 -->
      <defs>
       <path d="M 4.890625 31.390625 
L 31.203125 31.390625 
L 31.203125 23.390625 
L 4.890625 23.390625 
z
" id="DejaVuSans-2d"/>
       <path d="M 12.40625 8.296875 
L 28.515625 8.296875 
L 28.515625 63.921875 
L 10.984375 60.40625 
L 10.984375 69.390625 
L 28.421875 72.90625 
L 38.28125 72.90625 
L 38.28125 8.296875 
L 54.390625 8.296875 
L 54.390625 0 
L 12.40625 0 
z
" id="DejaVuSans-31"/>
      </defs>
      <g transform="translate(56.159459 221.958457)scale(0.1 -0.1)">
       <use xlink:href="#DejaVuSans-2d"/>
       <use x="36.083984" xlink:href="#DejaVuSans-31"/>
      </g>
     </g>
    </g>
    <g id="xtick_2">
     <g id="line2d_2">
      <g>
       <use style="stroke:#000000;stroke-width:0.8;" x="105.452308" xlink:href="#m2790ebb8d2" y="207.360019"/>
      </g>
     </g>
     <g id="text_2">
      <!-- -0.5 -->
      <defs>
       <path d="M 31.78125 66.40625 
Q 24.171875 66.40625 20.328125 58.90625 
Q 16.5 51.421875 16.5 36.375 
Q 16.5 21.390625 20.328125 13.890625 
Q 24.171875 6.390625 31.78125 6.390625 
Q 39.453125 6.390625 43.28125 13.890625 
Q 47.125 21.390625 47.125 36.375 
Q 47.125 51.421875 43.28125 58.90625 
Q 39.453125 66.40625 31.78125 66.40625 
z
M 31.78125 74.21875 
Q 44.046875 74.21875 50.515625 64.515625 
Q 56.984375 54.828125 56.984375 36.375 
Q 56.984375 17.96875 50.515625 8.265625 
Q 44.046875 -1.421875 31.78125 -1.421875 
Q 19.53125 -1.421875 13.0625 8.265625 
Q 6.59375 17.96875 6.59375 36.375 
Q 6.59375 54.828125 13.0625 64.515625 
Q 19.53125 74.21875 31.78125 74.21875 
z
" id="DejaVuSans-30"/>
       <path d="M 10.6875 12.40625 
L 21 12.40625 
L 21 0 
L 10.6875 0 
z
" id="DejaVuSans-2e"/>
       <path d="M 10.796875 72.90625 
L 49.515625 72.90625 
L 49.515625 64.59375 
L 19.828125 64.59375 
L 19.828125 46.734375 
Q 21.96875 47.46875 24.109375 47.828125 
Q 26.265625 48.1875 28.421875 48.1875 
Q 40.625 48.1875 47.75 41.5 
Q 54.890625 34.8125 54.890625 23.390625 
Q 54.890625 11.625 47.5625 5.09375 
Q 40.234375 -1.421875 26.90625 -1.421875 
Q 22.3125 -1.421875 17.546875 -0.640625 
Q 12.796875 0.140625 7.71875 1.703125 
L 7.71875 11.625 
Q 12.109375 9.234375 16.796875 8.0625 
Q 21.484375 6.890625 26.703125 6.890625 
Q 35.15625 6.890625 40.078125 11.328125 
Q 45.015625 15.765625 45.015625 23.390625 
Q 45.015625 31 40.078125 35.4375 
Q 35.15625 39.890625 26.703125 39.890625 
Q 22.75 39.890625 18.8125 39.015625 
Q 14.890625 38.140625 10.796875 36.28125 
z
" id="DejaVuSans-35"/>
      </defs>
      <g transform="translate(95.696839 221.958457)scale(0.1 -0.1)">
       <use xlink:href="#DejaVuSans-2d"/>
       <use x="36.083984" xlink:href="#DejaVuSans-30"/>
       <use x="99.707031" xlink:href="#DejaVuSans-2e"/>
       <use x="131.494141" xlink:href="#DejaVuSans-35"/>
      </g>
     </g>
    </g>
    <g id="xtick_3">
     <g id="line2d_3">
      <g>
       <use style="stroke:#000000;stroke-width:0.8;" x="149.76" xlink:href="#m2790ebb8d2" y="207.360019"/>
      </g>
     </g>
    </g>
    <g id="xtick_4">
     <g id="line2d_4">
      <g>
       <use style="stroke:#000000;stroke-width:0.8;" x="194.067692" xlink:href="#m2790ebb8d2" y="207.360019"/>
      </g>
     </g>
     <g id="text_3">
      <!-- 0.5 -->
      <g transform="translate(186.11613 221.958457)scale(0.1 -0.1)">
       <use xlink:href="#DejaVuSans-30"/>
       <use x="63.623047" xlink:href="#DejaVuSans-2e"/>
       <use x="95.410156" xlink:href="#DejaVuSans-35"/>
      </g>
     </g>
    </g>
    <g id="xtick_5">
     <g id="line2d_5">
      <g>
       <use style="stroke:#000000;stroke-width:0.8;" x="238.375385" xlink:href="#m2790ebb8d2" y="207.360019"/>
      </g>
     </g>
     <g id="text_4">
      <!-- 1 -->
      <g transform="translate(235.194135 221.958457)scale(0.1 -0.1)">
       <use xlink:href="#DejaVuSans-31"/>
      </g>
     </g>
    </g>
    <g id="xtick_6">
     <g id="line2d_6">
      <defs>
       <path d="M 0 0 
L 0 2 
" id="m00bb71251e" style="stroke:#000000;stroke-width:0.6;"/>
      </defs>
      <g>
       <use style="stroke:#000000;stroke-width:0.6;" x="70.006154" xlink:href="#m00bb71251e" y="207.360019"/>
      </g>
     </g>
    </g>
    <g id="xtick_7">
     <g id="line2d_7">
      <g>
       <use style="stroke:#000000;stroke-width:0.6;" x="78.867692" xlink:href="#m00bb71251e" y="207.360019"/>
      </g>
     </g>
    </g>
    <g id="xtick_8">
     <g id="line2d_8">
      <g>
       <use style="stroke:#000000;stroke-width:0.6;" x="87.729231" xlink:href="#m00bb71251e" y="207.360019"/>
      </g>
     </g>
    </g>
    <g id="xtick_9">
     <g id="line2d_9">
      <g>
       <use style="stroke:#000000;stroke-width:0.6;" x="96.590769" xlink:href="#m00bb71251e" y="207.360019"/>
      </g>
     </g>
    </g>
    <g id="xtick_10">
     <g id="line2d_10">
      <g>
       <use style="stroke:#000000;stroke-width:0.6;" x="114.313846" xlink:href="#m00bb71251e" y="207.360019"/>
      </g>
     </g>
    </g>
    <g id="xtick_11">
     <g id="line2d_11">
      <g>
       <use style="stroke:#000000;stroke-width:0.6;" x="123.175385" xlink:href="#m00bb71251e" y="207.360019"/>
      </g>
     </g>
    </g>
    <g id="xtick_12">
     <g id="line2d_12">
      <g>
       <use style="stroke:#000000;stroke-width:0.6;" x="132.036923" xlink:href="#m00bb71251e" y="207.360019"/>
      </g>
     </g>
    </g>
    <g id="xtick_13">
     <g id="line2d_13">
      <g>
       <use style="stroke:#000000;stroke-width:0.6;" x="140.898462" xlink:href="#m00bb71251e" y="207.360019"/>
      </g>
     </g>
    </g>
    <g id="xtick_14">
     <g id="line2d_14">
      <g>
       <use style="stroke:#000000;stroke-width:0.6;" x="158.621538" xlink:href="#m00bb71251e" y="207.360019"/>
      </g>
     </g>
    </g>
    <g id="xtick_15">
     <g id="line2d_15">
      <g>
       <use style="stroke:#000000;stroke-width:0.6;" x="167.483077" xlink:href="#m00bb71251e" y="207.360019"/>
      </g>
     </g>
    </g>
    <g id="xtick_16">
     <g id="line2d_16">
      <g>
       <use style="stroke:#000000;stroke-width:0.6;" x="176.344615" xlink:href="#m00bb71251e" y="207.360019"/>
      </g>
     </g>
    </g>
    <g id="xtick_17">
     <g id="line2d_17">
      <g>
       <use style="stroke:#000000;stroke-width:0.6;" x="185.206154" xlink:href="#m00bb71251e" y="207.360019"/>
      </g>
     </g>
    </g>
    <g id="xtick_18">
     <g id="line2d_18">
      <g>
       <use style="stroke:#000000;stroke-width:0.6;" x="202.929231" xlink:href="#m00bb71251e" y="207.360019"/>
      </g>
     </g>
    </g>
    <g id="xtick_19">
     <g id="line2d_19">
      <g>
       <use style="stroke:#000000;stroke-width:0.6;" x="211.790769" xlink:href="#m00bb71251e" y="207.360019"/>
      </g>
     </g>
    </g>
    <g id="xtick_20">
     <g id="line2d_20">
      <g>
       <use style="stroke:#000000;stroke-width:0.6;" x="220.652308" xlink:href="#m00bb71251e" y="207.360019"/>
      </g>
     </g>
    </g>
    <g id="xtick_21">
     <g id="line2d_21">
      <g>
       <use style="stroke:#000000;stroke-width:0.6;" x="229.513846" xlink:href="#m00bb71251e" y="207.360019"/>
      </g>
     </g>
    </g>
   </g>
   <g id="matplotlib.axis_2">
    <g id="ytick_1">
     <g id="line2d_22">
      <defs>
       <path d="M 0 0 
L -3.5 0 
" id="m3083ca5eb7" style="stroke:#000000;stroke-width:0.8;"/>
      </defs>
      <g>
       <use style="stroke:#000000;stroke-width:0.8;" x="149.76" xlink:href="#m3083ca5eb7" y="273.821577"/>
      </g>
     </g>
     <g id="text_5">
      <!-- -1 -->
      <g transform="translate(132.789688 277.620796)scale(0.1 -0.1)">
       <use xlink:href="#DejaVuSans-2d"/>
       <use x="36.083984" xlink:href="#DejaVuSans-31"/>
      </g>
     </g>
    </g>
    <g id="ytick_2">
     <g id="line2d_23">
      <g>
       <use style="stroke:#000000;stroke-width:0.8;" x="149.76" xlink:href="#m3083ca5eb7" y="240.590798"/>
      </g>
     </g>
     <g id="text_6">
      <!-- -0.5 -->
      <g transform="translate(123.249063 244.390017)scale(0.1 -0.1)">
       <use xlink:href="#DejaVuSans-2d"/>
       <use x="36.083984" xlink:href="#DejaVuSans-30"/>
       <use x="99.707031" xlink:href="#DejaVuSans-2e"/>
       <use x="131.494141" xlink:href="#DejaVuSans-35"/>
      </g>
     </g>
    </g>
    <g id="ytick_3">
     <g id="line2d_24">
      <g>
       <use style="stroke:#000000;stroke-width:0.8;" x="149.76" xlink:href="#m3083ca5eb7" y="207.360019"/>
      </g>
     </g>
    </g>
    <g id="ytick_4">
     <g id="line2d_25">
      <g>
       <use style="stroke:#000000;stroke-width:0.8;" x="149.76" xlink:href="#m3083ca5eb7" y="174.12924"/>
      </g>
     </g>
     <g id="text_7">
      <!-- 0.5 -->
      <g transform="translate(126.856875 177.928459)scale(0.1 -0.1)">
       <use xlink:href="#DejaVuSans-30"/>
       <use x="63.623047" xlink:href="#DejaVuSans-2e"/>
       <use x="95.410156" xlink:href="#DejaVuSans-35"/>
      </g>
     </g>
    </g>
    <g id="ytick_5">
     <g id="line2d_26">
      <g>
       <use style="stroke:#000000;stroke-width:0.8;" x="149.76" xlink:href="#m3083ca5eb7" y="140.898462"/>
      </g>
     </g>
     <g id="text_8">
      <!-- 1 -->
      <g transform="translate(136.3975 144.69768)scale(0.1 -0.1)">
       <use xlink:href="#DejaVuSans-31"/>
      </g>
     </g>
    </g>
    <g id="ytick_6">
     <g id="line2d_27">
      <defs>
       <path d="M 0 0 
L -2 0 
" id="m179a90e763" style="stroke:#000000;stroke-width:0.6;"/>
      </defs>
      <g>
       <use style="stroke:#000000;stroke-width:0.6;" x="149.76" xlink:href="#m179a90e763" y="267.175421"/>
      </g>
     </g>
    </g>
    <g id="ytick_7">
     <g id="line2d_28">
      <g>
       <use style="stroke:#000000;stroke-width:0.6;" x="149.76" xlink:href="#m179a90e763" y="260.529266"/>
      </g>
     </g>
    </g>
    <g id="ytick_8">
     <g id="line2d_29">
      <g>
       <use style="stroke:#000000;stroke-width:0.6;" x="149.76" xlink:href="#m179a90e763" y="253.88311"/>
      </g>
     </g>
    </g>
    <g id="ytick_9">
     <g id="line2d_30">
      <g>
       <use style="stroke:#000000;stroke-width:0.6;" x="149.76" xlink:href="#m179a90e763" y="247.236954"/>
      </g>
     </g>
    </g>
    <g id="ytick_10">
     <g id="line2d_31">
      <g>
       <use style="stroke:#000000;stroke-width:0.6;" x="149.76" xlink:href="#m179a90e763" y="233.944642"/>
      </g>
     </g>
    </g>
    <g id="ytick_11">
     <g id="line2d_32">
      <g>
       <use style="stroke:#000000;stroke-width:0.6;" x="149.76" xlink:href="#m179a90e763" y="227.298487"/>
      </g>
     </g>
    </g>
    <g id="ytick_12">
     <g id="line2d_33">
      <g>
       <use style="stroke:#000000;stroke-width:0.6;" x="149.76" xlink:href="#m179a90e763" y="220.652331"/>
      </g>
     </g>
    </g>
    <g id="ytick_13">
     <g id="line2d_34">
      <g>
       <use style="stroke:#000000;stroke-width:0.6;" x="149.76" xlink:href="#m179a90e763" y="214.006175"/>
      </g>
     </g>
    </g>
    <g id="ytick_14">
     <g id="line2d_35">
      <g>
       <use style="stroke:#000000;stroke-width:0.6;" x="149.76" xlink:href="#m179a90e763" y="200.713864"/>
      </g>
     </g>
    </g>
    <g id="ytick_15">
     <g id="line2d_36">
      <g>
       <use style="stroke:#000000;stroke-width:0.6;" x="149.76" xlink:href="#m179a90e763" y="194.067708"/>
      </g>
     </g>
    </g>
    <g id="ytick_16">
     <g id="line2d_37">
      <g>
       <use style="stroke:#000000;stroke-width:0.6;" x="149.76" xlink:href="#m179a90e763" y="187.421552"/>
      </g>
     </g>
    </g>
    <g id="ytick_17">
     <g id="line2d_38">
      <g>
       <use style="stroke:#000000;stroke-width:0.6;" x="149.76" xlink:href="#m179a90e763" y="180.775396"/>
      </g>
     </g>
    </g>
    <g id="ytick_18">
     <g id="line2d_39">
      <g>
       <use style="stroke:#000000;stroke-width:0.6;" x="149.76" xlink:href="#m179a90e763" y="167.483085"/>
      </g>
     </g>
    </g>
    <g id="ytick_19">
     <g id="line2d_40">
      <g>
       <use style="stroke:#000000;stroke-width:0.6;" x="149.76" xlink:href="#m179a90e763" y="160.836929"/>
      </g>
     </g>
    </g>
    <g id="ytick_20">
     <g id="line2d_41">
      <g>
       <use style="stroke:#000000;stroke-width:0.6;" x="149.76" xlink:href="#m179a90e763" y="154.190773"/>
      </g>
     </g>
    </g>
    <g id="ytick_21">
     <g id="line2d_42">
      <g>
       <use style="stroke:#000000;stroke-width:0.6;" x="149.76" xlink:href="#m179a90e763" y="147.544617"/>
      </g>
     </g>
    </g>
   </g>
   <g id="line2d_43">
    <path clip-path="url(#p26f17bbed6)" d="M 61.144615 140.898462 
L 63.153837 163.667092 
L 65.198309 184.180995 
L 66.902975 199.347274 
L 68.659105 213.225103 
L 70.459539 225.708332 
L 72.257885 236.509567 
L 73.861822 244.813912 
L 75.461348 251.915154 
L 76.989762 257.658086 
L 78.48248 262.336281 
L 79.824807 265.799115 
L 80.957791 268.200722 
L 82.239512 270.370278 
L 83.408417 271.866412 
L 84.433318 272.817599 
L 85.363971 273.402337 
L 86.415005 273.757442 
L 87.324978 273.814715 
L 88.246347 273.646702 
L 89.214908 273.235858 
L 90.209927 272.57565 
L 91.435991 271.44819 
L 92.42233 270.303825 
L 94.011051 268.046563 
L 95.534181 265.44063 
L 97.202678 262.137808 
L 98.823994 258.526723 
L 100.984017 253.179989 
L 103.406879 246.572221 
L 106.560505 237.226696 
L 110.900886 223.479609 
L 120.95082 191.154818 
L 124.090066 181.770687 
L 127.131376 173.308066 
L 129.838969 166.41044 
L 132.625809 160.033161 
L 135.072322 155.103771 
L 137.237045 151.304727 
L 139.052622 148.547752 
L 140.589107 146.5321 
L 142.072351 144.869905 
L 143.79409 143.29742 
L 145.412823 142.174931 
L 146.898656 141.452231 
L 148.055714 141.095054 
L 149.543607 140.901632 
L 151.074384 141.015409 
L 152.522387 141.414627 
L 153.965418 142.093224 
L 155.49656 143.117279 
L 156.951377 144.376999 
L 158.680003 146.231189 
L 160.541124 148.651893 
L 162.120753 151.042219 
L 164.134907 154.521411 
L 166.344724 158.869536 
L 168.702206 164.082644 
L 171.410557 170.741997 
L 174.512554 179.145907 
L 177.57806 188.130847 
L 181.713797 201.042696 
L 195.215014 243.985876 
L 197.646967 250.823426 
L 200.183311 257.309895 
L 202.173847 261.833522 
L 204.123597 265.693066 
L 205.940714 268.708468 
L 207.226884 270.465325 
L 208.358719 271.729897 
L 209.479623 272.704685 
L 210.616805 273.393596 
L 211.690857 273.750314 
L 212.707429 273.810381 
L 213.675328 273.604073 
L 214.55593 273.182869 
L 215.377894 272.580674 
L 216.393178 271.54681 
L 217.426106 270.152162 
L 218.542682 268.238068 
L 219.727017 265.724886 
L 221.083092 262.206577 
L 222.222539 258.695985 
L 223.755727 253.132529 
L 225.243707 246.764539 
L 226.821002 238.915293 
L 228.441002 229.612266 
L 230.126938 218.521794 
L 231.92861 204.993666 
L 233.779245 189.19352 
L 235.575987 171.904735 
L 237.51452 150.979898 
L 238.375385 140.898462 
L 238.375385 140.898462 
" style="fill:none;stroke:#0000ff;stroke-linecap:square;"/>
   </g>
   <g id="patch_3">
    <path d="M 149.76 276.48 
L 149.76 138.24 
" style="fill:none;stroke:#000000;stroke-linecap:square;stroke-linejoin:miter;stroke-width:0.8;"/>
   </g>
   <g id="patch_4">
    <path d="M 57.6 207.360019 
L 241.92 207.360019 
" style="fill:none;stroke:#000000;stroke-linecap:square;stroke-linejoin:miter;stroke-width:0.8;"/>
   </g>
   <g id="text_9">
    <!-- n=4 -->
    <defs>
     <path d="M 54.890625 33.015625 
L 54.890625 0 
L 45.90625 0 
L 45.90625 32.71875 
Q 45.90625 40.484375 42.875 44.328125 
Q 39.84375 48.1875 33.796875 48.1875 
Q 26.515625 48.1875 22.3125 43.546875 
Q 18.109375 38.921875 18.109375 30.90625 
L 18.109375 0 
L 9.078125 0 
L 9.078125 54.6875 
L 18.109375 54.6875 
L 18.109375 46.1875 
Q 21.34375 51.125 25.703125 53.5625 
Q 30.078125 56 35.796875 56 
Q 45.21875 56 50.046875 50.171875 
Q 54.890625 44.34375 54.890625 33.015625 
z
" id="DejaVuSans-6e"/>
     <path d="M 10.59375 45.40625 
L 73.1875 45.40625 
L 73.1875 37.203125 
L 10.59375 37.203125 
z
M 10.59375 25.484375 
L 73.1875 25.484375 
L 73.1875 17.1875 
L 10.59375 17.1875 
z
" id="DejaVuSans-3d"/>
     <path d="M 37.796875 64.3125 
L 12.890625 25.390625 
L 37.796875 25.390625 
z
M 35.203125 72.90625 
L 47.609375 72.90625 
L 47.609375 25.390625 
L 58.015625 25.390625 
L 58.015625 17.1875 
L 47.609375 17.1875 
L 47.609375 0 
L 37.796875 0 
L 37.796875 17.1875 
L 4.890625 17.1875 
L 4.890625 26.703125 
z
" id="DejaVuSans-34"/>
    </defs>
    <g transform="translate(139.220156 132.24)scale(0.1 -0.1)">
     <use xlink:href="#DejaVuSans-6e"/>
     <use x="63.378906" xlink:href="#DejaVuSans-3d"/>
     <use x="147.167969" xlink:href="#DejaVuSans-34"/>
    </g>
   </g>
  </g>
  <g id="axes_2">
   <g id="patch_5">
    <path d="M 253.44 207.36 
L 437.76 207.36 
L 437.76 69.12 
L 253.44 69.12 
z
" style="fill:#ffffff;"/>
   </g>
   <g id="matplotlib.axis_3">
    <g id="xtick_22">
     <g id="line2d_44">
      <g>
       <use style="stroke:#000000;stroke-width:0.8;" x="256.984615" xlink:href="#m2790ebb8d2" y="138.24"/>
      </g>
     </g>
     <g id="text_10">
      <!-- -1 -->
      <g transform="translate(251.999459 152.838438)scale(0.1 -0.1)">
       <use xlink:href="#DejaVuSans-2d"/>
       <use x="36.083984" xlink:href="#DejaVuSans-31"/>
      </g>
     </g>
    </g>
    <g id="xtick_23">
     <g id="line2d_45">
      <g>
       <use style="stroke:#000000;stroke-width:0.8;" x="301.292308" xlink:href="#m2790ebb8d2" y="138.24"/>
      </g>
     </g>
     <g id="text_11">
      <!-- -0.5 -->
      <g transform="translate(291.536839 152.838438)scale(0.1 -0.1)">
       <use xlink:href="#DejaVuSans-2d"/>
       <use x="36.083984" xlink:href="#DejaVuSans-30"/>
       <use x="99.707031" xlink:href="#DejaVuSans-2e"/>
       <use x="131.494141" xlink:href="#DejaVuSans-35"/>
      </g>
     </g>
    </g>
    <g id="xtick_24">
     <g id="line2d_46">
      <g>
       <use style="stroke:#000000;stroke-width:0.8;" x="345.6" xlink:href="#m2790ebb8d2" y="138.24"/>
      </g>
     </g>
    </g>
    <g id="xtick_25">
     <g id="line2d_47">
      <g>
       <use style="stroke:#000000;stroke-width:0.8;" x="389.907692" xlink:href="#m2790ebb8d2" y="138.24"/>
      </g>
     </g>
     <g id="text_12">
      <!-- 0.5 -->
      <g transform="translate(381.95613 152.838438)scale(0.1 -0.1)">
       <use xlink:href="#DejaVuSans-30"/>
       <use x="63.623047" xlink:href="#DejaVuSans-2e"/>
       <use x="95.410156" xlink:href="#DejaVuSans-35"/>
      </g>
     </g>
    </g>
    <g id="xtick_26">
     <g id="line2d_48">
      <g>
       <use style="stroke:#000000;stroke-width:0.8;" x="434.215385" xlink:href="#m2790ebb8d2" y="138.24"/>
      </g>
     </g>
     <g id="text_13">
      <!-- 1 -->
      <g transform="translate(431.034135 152.838438)scale(0.1 -0.1)">
       <use xlink:href="#DejaVuSans-31"/>
      </g>
     </g>
    </g>
    <g id="xtick_27">
     <g id="line2d_49">
      <g>
       <use style="stroke:#000000;stroke-width:0.6;" x="265.846154" xlink:href="#m00bb71251e" y="138.24"/>
      </g>
     </g>
    </g>
    <g id="xtick_28">
     <g id="line2d_50">
      <g>
       <use style="stroke:#000000;stroke-width:0.6;" x="274.707692" xlink:href="#m00bb71251e" y="138.24"/>
      </g>
     </g>
    </g>
    <g id="xtick_29">
     <g id="line2d_51">
      <g>
       <use style="stroke:#000000;stroke-width:0.6;" x="283.569231" xlink:href="#m00bb71251e" y="138.24"/>
      </g>
     </g>
    </g>
    <g id="xtick_30">
     <g id="line2d_52">
      <g>
       <use style="stroke:#000000;stroke-width:0.6;" x="292.430769" xlink:href="#m00bb71251e" y="138.24"/>
      </g>
     </g>
    </g>
    <g id="xtick_31">
     <g id="line2d_53">
      <g>
       <use style="stroke:#000000;stroke-width:0.6;" x="310.153846" xlink:href="#m00bb71251e" y="138.24"/>
      </g>
     </g>
    </g>
    <g id="xtick_32">
     <g id="line2d_54">
      <g>
       <use style="stroke:#000000;stroke-width:0.6;" x="319.015385" xlink:href="#m00bb71251e" y="138.24"/>
      </g>
     </g>
    </g>
    <g id="xtick_33">
     <g id="line2d_55">
      <g>
       <use style="stroke:#000000;stroke-width:0.6;" x="327.876923" xlink:href="#m00bb71251e" y="138.24"/>
      </g>
     </g>
    </g>
    <g id="xtick_34">
     <g id="line2d_56">
      <g>
       <use style="stroke:#000000;stroke-width:0.6;" x="336.738462" xlink:href="#m00bb71251e" y="138.24"/>
      </g>
     </g>
    </g>
    <g id="xtick_35">
     <g id="line2d_57">
      <g>
       <use style="stroke:#000000;stroke-width:0.6;" x="354.461538" xlink:href="#m00bb71251e" y="138.24"/>
      </g>
     </g>
    </g>
    <g id="xtick_36">
     <g id="line2d_58">
      <g>
       <use style="stroke:#000000;stroke-width:0.6;" x="363.323077" xlink:href="#m00bb71251e" y="138.24"/>
      </g>
     </g>
    </g>
    <g id="xtick_37">
     <g id="line2d_59">
      <g>
       <use style="stroke:#000000;stroke-width:0.6;" x="372.184615" xlink:href="#m00bb71251e" y="138.24"/>
      </g>
     </g>
    </g>
    <g id="xtick_38">
     <g id="line2d_60">
      <g>
       <use style="stroke:#000000;stroke-width:0.6;" x="381.046154" xlink:href="#m00bb71251e" y="138.24"/>
      </g>
     </g>
    </g>
    <g id="xtick_39">
     <g id="line2d_61">
      <g>
       <use style="stroke:#000000;stroke-width:0.6;" x="398.769231" xlink:href="#m00bb71251e" y="138.24"/>
      </g>
     </g>
    </g>
    <g id="xtick_40">
     <g id="line2d_62">
      <g>
       <use style="stroke:#000000;stroke-width:0.6;" x="407.630769" xlink:href="#m00bb71251e" y="138.24"/>
      </g>
     </g>
    </g>
    <g id="xtick_41">
     <g id="line2d_63">
      <g>
       <use style="stroke:#000000;stroke-width:0.6;" x="416.492308" xlink:href="#m00bb71251e" y="138.24"/>
      </g>
     </g>
    </g>
    <g id="xtick_42">
     <g id="line2d_64">
      <g>
       <use style="stroke:#000000;stroke-width:0.6;" x="425.353846" xlink:href="#m00bb71251e" y="138.24"/>
      </g>
     </g>
    </g>
   </g>
   <g id="matplotlib.axis_4">
    <g id="ytick_22">
     <g id="line2d_65">
      <g>
       <use style="stroke:#000000;stroke-width:0.8;" x="345.6" xlink:href="#m3083ca5eb7" y="204.701539"/>
      </g>
     </g>
     <g id="text_14">
      <!-- -1 -->
      <g transform="translate(328.629688 208.500758)scale(0.1 -0.1)">
       <use xlink:href="#DejaVuSans-2d"/>
       <use x="36.083984" xlink:href="#DejaVuSans-31"/>
      </g>
     </g>
    </g>
    <g id="ytick_23">
     <g id="line2d_66">
      <g>
       <use style="stroke:#000000;stroke-width:0.8;" x="345.6" xlink:href="#m3083ca5eb7" y="171.47077"/>
      </g>
     </g>
     <g id="text_15">
      <!-- -0.5 -->
      <g transform="translate(319.089063 175.269988)scale(0.1 -0.1)">
       <use xlink:href="#DejaVuSans-2d"/>
       <use x="36.083984" xlink:href="#DejaVuSans-30"/>
       <use x="99.707031" xlink:href="#DejaVuSans-2e"/>
       <use x="131.494141" xlink:href="#DejaVuSans-35"/>
      </g>
     </g>
    </g>
    <g id="ytick_24">
     <g id="line2d_67">
      <g>
       <use style="stroke:#000000;stroke-width:0.8;" x="345.6" xlink:href="#m3083ca5eb7" y="138.24"/>
      </g>
     </g>
    </g>
    <g id="ytick_25">
     <g id="line2d_68">
      <g>
       <use style="stroke:#000000;stroke-width:0.8;" x="345.6" xlink:href="#m3083ca5eb7" y="105.009231"/>
      </g>
     </g>
     <g id="text_16">
      <!-- 0.5 -->
      <g transform="translate(322.696875 108.80845)scale(0.1 -0.1)">
       <use xlink:href="#DejaVuSans-30"/>
       <use x="63.623047" xlink:href="#DejaVuSans-2e"/>
       <use x="95.410156" xlink:href="#DejaVuSans-35"/>
      </g>
     </g>
    </g>
    <g id="ytick_26">
     <g id="line2d_69">
      <g>
       <use style="stroke:#000000;stroke-width:0.8;" x="345.6" xlink:href="#m3083ca5eb7" y="71.778462"/>
      </g>
     </g>
     <g id="text_17">
      <!-- 1 -->
      <g transform="translate(332.2375 75.57768)scale(0.1 -0.1)">
       <use xlink:href="#DejaVuSans-31"/>
      </g>
     </g>
    </g>
    <g id="ytick_27">
     <g id="line2d_70">
      <g>
       <use style="stroke:#000000;stroke-width:0.6;" x="345.6" xlink:href="#m179a90e763" y="198.055385"/>
      </g>
     </g>
    </g>
    <g id="ytick_28">
     <g id="line2d_71">
      <g>
       <use style="stroke:#000000;stroke-width:0.6;" x="345.6" xlink:href="#m179a90e763" y="191.409231"/>
      </g>
     </g>
    </g>
    <g id="ytick_29">
     <g id="line2d_72">
      <g>
       <use style="stroke:#000000;stroke-width:0.6;" x="345.6" xlink:href="#m179a90e763" y="184.763077"/>
      </g>
     </g>
    </g>
    <g id="ytick_30">
     <g id="line2d_73">
      <g>
       <use style="stroke:#000000;stroke-width:0.6;" x="345.6" xlink:href="#m179a90e763" y="178.116924"/>
      </g>
     </g>
    </g>
    <g id="ytick_31">
     <g id="line2d_74">
      <g>
       <use style="stroke:#000000;stroke-width:0.6;" x="345.6" xlink:href="#m179a90e763" y="164.824616"/>
      </g>
     </g>
    </g>
    <g id="ytick_32">
     <g id="line2d_75">
      <g>
       <use style="stroke:#000000;stroke-width:0.6;" x="345.6" xlink:href="#m179a90e763" y="158.178462"/>
      </g>
     </g>
    </g>
    <g id="ytick_33">
     <g id="line2d_76">
      <g>
       <use style="stroke:#000000;stroke-width:0.6;" x="345.6" xlink:href="#m179a90e763" y="151.532308"/>
      </g>
     </g>
    </g>
    <g id="ytick_34">
     <g id="line2d_77">
      <g>
       <use style="stroke:#000000;stroke-width:0.6;" x="345.6" xlink:href="#m179a90e763" y="144.886154"/>
      </g>
     </g>
    </g>
    <g id="ytick_35">
     <g id="line2d_78">
      <g>
       <use style="stroke:#000000;stroke-width:0.6;" x="345.6" xlink:href="#m179a90e763" y="131.593846"/>
      </g>
     </g>
    </g>
    <g id="ytick_36">
     <g id="line2d_79">
      <g>
       <use style="stroke:#000000;stroke-width:0.6;" x="345.6" xlink:href="#m179a90e763" y="124.947693"/>
      </g>
     </g>
    </g>
    <g id="ytick_37">
     <g id="line2d_80">
      <g>
       <use style="stroke:#000000;stroke-width:0.6;" x="345.6" xlink:href="#m179a90e763" y="118.301539"/>
      </g>
     </g>
    </g>
    <g id="ytick_38">
     <g id="line2d_81">
      <g>
       <use style="stroke:#000000;stroke-width:0.6;" x="345.6" xlink:href="#m179a90e763" y="111.655385"/>
      </g>
     </g>
    </g>
    <g id="ytick_39">
     <g id="line2d_82">
      <g>
       <use style="stroke:#000000;stroke-width:0.6;" x="345.6" xlink:href="#m179a90e763" y="98.363077"/>
      </g>
     </g>
    </g>
    <g id="ytick_40">
     <g id="line2d_83">
      <g>
       <use style="stroke:#000000;stroke-width:0.6;" x="345.6" xlink:href="#m179a90e763" y="91.716923"/>
      </g>
     </g>
    </g>
    <g id="ytick_41">
     <g id="line2d_84">
      <g>
       <use style="stroke:#000000;stroke-width:0.6;" x="345.6" xlink:href="#m179a90e763" y="85.070769"/>
      </g>
     </g>
    </g>
    <g id="ytick_42">
     <g id="line2d_85">
      <g>
       <use style="stroke:#000000;stroke-width:0.6;" x="345.6" xlink:href="#m179a90e763" y="78.424615"/>
      </g>
     </g>
    </g>
   </g>
   <g id="line2d_86">
    <path clip-path="url(#p9c40e6a150)" d="M 256.984615 71.778462 
L 257.959585 113.403514 
L 258.906343 144.7634 
L 259.763531 166.426531 
L 260.58569 181.948166 
L 261.37078 192.560915 
L 262.027865 198.662113 
L 262.61115 202.195923 
L 263.080072 203.883394 
L 263.437183 204.539572 
L 263.734777 204.701498 
L 263.966704 204.599707 
L 264.314596 204.095514 
L 264.766007 202.859027 
L 265.283604 200.710797 
L 266.008241 196.563963 
L 266.877299 190.142584 
L 268.076704 179.338388 
L 269.655943 162.984017 
L 273.991482 116.900641 
L 275.691611 101.712563 
L 277.03834 91.654863 
L 278.217632 84.46443 
L 279.233698 79.546484 
L 280.057176 76.446052 
L 280.880589 74.140042 
L 281.627624 72.728538 
L 282.201169 72.077032 
L 282.796779 71.789514 
L 283.201208 71.815415 
L 283.653645 72.051463 
L 284.202099 72.623357 
L 284.750553 73.498576 
L 285.528386 75.237745 
L 286.460627 78.046593 
L 287.508142 82.068037 
L 288.759719 87.939294 
L 290.003147 94.75513 
L 291.778567 105.825399 
L 294.080374 121.729734 
L 299.968058 163.191144 
L 301.915609 175.12948 
L 303.562505 183.944765 
L 304.830442 189.791906 
L 306.237943 195.22529 
L 307.418748 198.870579 
L 308.295279 201.016726 
L 309.270837 202.832334 
L 309.99579 203.786643 
L 310.666592 204.36881 
L 311.374079 204.670151 
L 312.08331 204.652149 
L 312.585286 204.447582 
L 313.381985 203.801035 
L 314.150081 202.81073 
L 315.068486 201.166814 
L 316.105607 198.730895 
L 317.048934 196.007195 
L 318.26466 191.828788 
L 319.651593 186.221464 
L 321.341545 178.330366 
L 323.324193 167.865664 
L 325.61288 154.634972 
L 333.526982 107.698642 
L 335.601976 97.162864 
L 337.282322 89.701921 
L 338.84775 83.771388 
L 340.177544 79.593587 
L 341.24611 76.850747 
L 342.325147 74.663267 
L 343.307372 73.197241 
L 344.060718 72.419203 
L 344.840408 71.934669 
L 345.564745 71.778798 
L 346.289081 71.907023 
L 347.023049 72.326211 
L 347.706795 72.977184 
L 348.574758 74.161636 
L 349.457153 75.769764 
L 350.477543 78.124574 
L 351.592872 81.284504 
L 352.946944 85.900462 
L 354.383284 91.661926 
L 356.129493 99.733617 
L 357.962437 109.266261 
L 360.292163 122.553792 
L 369.357226 175.79518 
L 371.136868 184.400153 
L 372.643163 190.718881 
L 374.046051 195.67525 
L 375.308524 199.28279 
L 376.269224 201.444584 
L 377.208601 203.04441 
L 378.051961 204.031484 
L 378.804843 204.543651 
L 379.467991 204.700935 
L 380.096244 204.592803 
L 380.724498 204.232413 
L 381.466263 203.480654 
L 382.16331 202.452035 
L 383.030555 200.738406 
L 384.005447 198.244388 
L 384.992114 195.121429 
L 386.220351 190.422021 
L 387.591829 184.170196 
L 389.21828 175.507756 
L 391.017855 164.572386 
L 393.114088 150.473037 
L 400.990516 95.968306 
L 402.598057 87.140741 
L 403.900793 81.197211 
L 404.943224 77.367855 
L 405.842019 74.808228 
L 406.593164 73.240523 
L 407.318764 72.251273 
L 407.824461 71.880732 
L 408.295464 71.779123 
L 408.766467 71.918193 
L 409.217131 72.281243 
L 409.667795 72.873125 
L 410.331294 74.1677 
L 411.083219 76.252509 
L 411.946643 79.4632 
L 412.866103 83.841028 
L 413.832717 89.492492 
L 414.936475 97.211049 
L 416.197247 107.558128 
L 417.753439 122.264584 
L 419.968633 145.729842 
L 423.188498 179.970858 
L 424.4882 191.470855 
L 425.42936 198.057601 
L 426.218614 202.05488 
L 426.802838 203.91689 
L 427.220141 204.588177 
L 427.470523 204.701538 
L 427.717959 204.585756 
L 427.984564 204.193554 
L 428.352817 203.167145 
L 428.813133 201.033726 
L 429.33538 197.36565 
L 429.931344 191.394141 
L 430.587042 182.382486 
L 431.323612 168.846512 
L 432.079826 150.73183 
L 432.894171 125.84362 
L 433.787151 91.310666 
L 434.215385 71.778462 
L 434.215385 71.778462 
" style="fill:none;stroke:#ff0000;stroke-linecap:square;"/>
   </g>
   <g id="patch_6">
    <path d="M 345.6 207.36 
L 345.6 69.12 
" style="fill:none;stroke:#000000;stroke-linecap:square;stroke-linejoin:miter;stroke-width:0.8;"/>
   </g>
   <g id="patch_7">
    <path d="M 253.44 138.24 
L 437.76 138.24 
" style="fill:none;stroke:#000000;stroke-linecap:square;stroke-linejoin:miter;stroke-width:0.8;"/>
   </g>
   <g id="text_18">
    <!-- n=8 -->
    <defs>
     <path d="M 31.78125 34.625 
Q 24.75 34.625 20.71875 30.859375 
Q 16.703125 27.09375 16.703125 20.515625 
Q 16.703125 13.921875 20.71875 10.15625 
Q 24.75 6.390625 31.78125 6.390625 
Q 38.8125 6.390625 42.859375 10.171875 
Q 46.921875 13.96875 46.921875 20.515625 
Q 46.921875 27.09375 42.890625 30.859375 
Q 38.875 34.625 31.78125 34.625 
z
M 21.921875 38.8125 
Q 15.578125 40.375 12.03125 44.71875 
Q 8.5 49.078125 8.5 55.328125 
Q 8.5 64.0625 14.71875 69.140625 
Q 20.953125 74.21875 31.78125 74.21875 
Q 42.671875 74.21875 48.875 69.140625 
Q 55.078125 64.0625 55.078125 55.328125 
Q 55.078125 49.078125 51.53125 44.71875 
Q 48 40.375 41.703125 38.8125 
Q 48.828125 37.15625 52.796875 32.3125 
Q 56.78125 27.484375 56.78125 20.515625 
Q 56.78125 9.90625 50.3125 4.234375 
Q 43.84375 -1.421875 31.78125 -1.421875 
Q 19.734375 -1.421875 13.25 4.234375 
Q 6.78125 9.90625 6.78125 20.515625 
Q 6.78125 27.484375 10.78125 32.3125 
Q 14.796875 37.15625 21.921875 38.8125 
z
M 18.3125 54.390625 
Q 18.3125 48.734375 21.84375 45.5625 
Q 25.390625 42.390625 31.78125 42.390625 
Q 38.140625 42.390625 41.71875 45.5625 
Q 45.3125 48.734375 45.3125 54.390625 
Q 45.3125 60.0625 41.71875 63.234375 
Q 38.140625 66.40625 31.78125 66.40625 
Q 25.390625 66.40625 21.84375 63.234375 
Q 18.3125 60.0625 18.3125 54.390625 
z
" id="DejaVuSans-38"/>
    </defs>
    <g transform="translate(335.060156 63.12)scale(0.1 -0.1)">
     <use xlink:href="#DejaVuSans-6e"/>
     <use x="63.378906" xlink:href="#DejaVuSans-3d"/>
     <use x="147.167969" xlink:href="#DejaVuSans-38"/>
    </g>
   </g>
  </g>
 </g>
 <defs>
  <clipPath id="p26f17bbed6">
   <rect height="138.24" width="184.32" x="57.6" y="138.24"/>
  </clipPath>
  <clipPath id="p9c40e6a150">
   <rect height="138.24" width="184.32" x="253.44" y="69.12"/>
  </clipPath>
 </defs>
</svg>
