<?xml version="1.0" encoding="utf-8" standalone="no"?>
<!DOCTYPE svg PUBLIC "-//W3C//DTD SVG 1.1//EN"
  "http://www.w3.org/Graphics/SVG/1.1/DTD/svg11.dtd">
<svg xmlns:xlink="http://www.w3.org/1999/xlink" width="460.8pt" height="345.6pt" viewBox="0 0 460.8 345.6" xmlns="http://www.w3.org/2000/svg" version="1.1">
 <metadata>
  <rdf:RDF xmlns:dc="http://purl.org/dc/elements/1.1/" xmlns:cc="http://creativecommons.org/ns#" xmlns:rdf="http://www.w3.org/1999/02/22-rdf-syntax-ns#">
   <cc:Work>
    <dc:type rdf:resource="http://purl.org/dc/dcmitype/StillImage"/>
    <dc:date>2023-05-25T19:52:09.032837</dc:date>
    <dc:format>image/svg+xml</dc:format>
    <dc:creator>
     <cc:Agent>
      <dc:title>Matplotlib v3.6.2, https://matplotlib.org/</dc:title>
     </cc:Agent>
    </dc:creator>
   </cc:Work>
  </rdf:RDF>
 </metadata>
 <defs>
  <style type="text/css">*{stroke-linejoin: round; stroke-linecap: butt}</style>
 </defs>
 <g id="figure_1">
  <g id="patch_1">
   <path d="M 0 345.6 
L 460.8 345.6 
L 460.8 0 
L 0 0 
z
" style="fill: #ffffff"/>
  </g>
  <g id="axes_1">
   <g id="patch_2">
    <path d="M 57.6 307.584 
L 414.72 307.584 
L 414.72 41.472 
L 57.6 41.472 
z
" style="fill: #ffffff"/>
   </g>
   <g id="matplotlib.axis_1">
    <g id="xtick_1">
     <g id="line2d_1">
      <defs>
       <path id="m165e92eb75" d="M 0 0 
L 0 3.5 
" style="stroke: #000000; stroke-width: 0.8"/>
      </defs>
      <g>
       <use xlink:href="#m165e92eb75" x="72.205923" y="174.527948" style="stroke: #000000; stroke-width: 0.8"/>
      </g>
     </g>
     <g id="text_1">
      <!-- −3 -->
      <g transform="translate(64.834829 189.126386) scale(0.1 -0.1)">
       <defs>
        <path id="DejaVuSans-2212" d="M 678 2272 
L 4684 2272 
L 4684 1741 
L 678 1741 
L 678 2272 
z
" transform="scale(0.015625)"/>
        <path id="DejaVuSans-33" d="M 2597 2516 
Q 3050 2419 3304 2112 
Q 3559 1806 3559 1356 
Q 3559 666 3084 287 
Q 2609 -91 1734 -91 
Q 1441 -91 1130 -33 
Q 819 25 488 141 
L 488 750 
Q 750 597 1062 519 
Q 1375 441 1716 441 
Q 2309 441 2620 675 
Q 2931 909 2931 1356 
Q 2931 1769 2642 2001 
Q 2353 2234 1838 2234 
L 1294 2234 
L 1294 2753 
L 1863 2753 
Q 2328 2753 2575 2939 
Q 2822 3125 2822 3475 
Q 2822 3834 2567 4026 
Q 2313 4219 1838 4219 
Q 1578 4219 1281 4162 
Q 984 4106 628 3988 
L 628 4550 
Q 988 4650 1302 4700 
Q 1616 4750 1894 4750 
Q 2613 4750 3031 4423 
Q 3450 4097 3450 3541 
Q 3450 3153 3228 2886 
Q 3006 2619 2597 2516 
z
" transform="scale(0.015625)"/>
       </defs>
       <use xlink:href="#DejaVuSans-2212"/>
       <use xlink:href="#DejaVuSans-33" x="83.789062"/>
      </g>
     </g>
    </g>
    <g id="xtick_2">
     <g id="line2d_2">
      <g>
       <use xlink:href="#m165e92eb75" x="126.857282" y="174.527948" style="stroke: #000000; stroke-width: 0.8"/>
      </g>
     </g>
     <g id="text_2">
      <!-- −2 -->
      <g transform="translate(119.486188 189.126386) scale(0.1 -0.1)">
       <defs>
        <path id="DejaVuSans-32" d="M 1228 531 
L 3431 531 
L 3431 0 
L 469 0 
L 469 531 
Q 828 903 1448 1529 
Q 2069 2156 2228 2338 
Q 2531 2678 2651 2914 
Q 2772 3150 2772 3378 
Q 2772 3750 2511 3984 
Q 2250 4219 1831 4219 
Q 1534 4219 1204 4116 
Q 875 4013 500 3803 
L 500 4441 
Q 881 4594 1212 4672 
Q 1544 4750 1819 4750 
Q 2544 4750 2975 4387 
Q 3406 4025 3406 3419 
Q 3406 3131 3298 2873 
Q 3191 2616 2906 2266 
Q 2828 2175 2409 1742 
Q 1991 1309 1228 531 
z
" transform="scale(0.015625)"/>
       </defs>
       <use xlink:href="#DejaVuSans-2212"/>
       <use xlink:href="#DejaVuSans-32" x="83.789062"/>
      </g>
     </g>
    </g>
    <g id="xtick_3">
     <g id="line2d_3">
      <g>
       <use xlink:href="#m165e92eb75" x="181.508641" y="174.527948" style="stroke: #000000; stroke-width: 0.8"/>
      </g>
     </g>
     <g id="text_3">
      <!-- −1 -->
      <g transform="translate(174.137547 189.126386) scale(0.1 -0.1)">
       <defs>
        <path id="DejaVuSans-31" d="M 794 531 
L 1825 531 
L 1825 4091 
L 703 3866 
L 703 4441 
L 1819 4666 
L 2450 4666 
L 2450 531 
L 3481 531 
L 3481 0 
L 794 0 
L 794 531 
z
" transform="scale(0.015625)"/>
       </defs>
       <use xlink:href="#DejaVuSans-2212"/>
       <use xlink:href="#DejaVuSans-31" x="83.789062"/>
      </g>
     </g>
    </g>
    <g id="xtick_4">
     <g id="line2d_4">
      <g>
       <use xlink:href="#m165e92eb75" x="236.16" y="174.527948" style="stroke: #000000; stroke-width: 0.8"/>
      </g>
     </g>
    </g>
    <g id="xtick_5">
     <g id="line2d_5">
      <g>
       <use xlink:href="#m165e92eb75" x="290.811359" y="174.527948" style="stroke: #000000; stroke-width: 0.8"/>
      </g>
     </g>
     <g id="text_4">
      <!-- 1 -->
      <g transform="translate(287.630109 189.126386) scale(0.1 -0.1)">
       <use xlink:href="#DejaVuSans-31"/>
      </g>
     </g>
    </g>
    <g id="xtick_6">
     <g id="line2d_6">
      <g>
       <use xlink:href="#m165e92eb75" x="345.462718" y="174.527948" style="stroke: #000000; stroke-width: 0.8"/>
      </g>
     </g>
     <g id="text_5">
      <!-- 2 -->
      <g transform="translate(342.281468 189.126386) scale(0.1 -0.1)">
       <use xlink:href="#DejaVuSans-32"/>
      </g>
     </g>
    </g>
    <g id="xtick_7">
     <g id="line2d_7">
      <g>
       <use xlink:href="#m165e92eb75" x="400.114077" y="174.527948" style="stroke: #000000; stroke-width: 0.8"/>
      </g>
     </g>
     <g id="text_6">
      <!-- 3 -->
      <g transform="translate(396.932827 189.126386) scale(0.1 -0.1)">
       <use xlink:href="#DejaVuSans-33"/>
      </g>
     </g>
    </g>
    <g id="xtick_8">
     <g id="line2d_8">
      <defs>
       <path id="maf52617284" d="M 0 0 
L 0 2 
" style="stroke: #000000; stroke-width: 0.6"/>
      </defs>
      <g>
       <use xlink:href="#maf52617284" x="61.275651" y="174.527948" style="stroke: #000000; stroke-width: 0.6"/>
      </g>
     </g>
    </g>
    <g id="xtick_9">
     <g id="line2d_9">
      <g>
       <use xlink:href="#maf52617284" x="83.136195" y="174.527948" style="stroke: #000000; stroke-width: 0.6"/>
      </g>
     </g>
    </g>
    <g id="xtick_10">
     <g id="line2d_10">
      <g>
       <use xlink:href="#maf52617284" x="94.066467" y="174.527948" style="stroke: #000000; stroke-width: 0.6"/>
      </g>
     </g>
    </g>
    <g id="xtick_11">
     <g id="line2d_11">
      <g>
       <use xlink:href="#maf52617284" x="104.996739" y="174.527948" style="stroke: #000000; stroke-width: 0.6"/>
      </g>
     </g>
    </g>
    <g id="xtick_12">
     <g id="line2d_12">
      <g>
       <use xlink:href="#maf52617284" x="115.92701" y="174.527948" style="stroke: #000000; stroke-width: 0.6"/>
      </g>
     </g>
    </g>
    <g id="xtick_13">
     <g id="line2d_13">
      <g>
       <use xlink:href="#maf52617284" x="137.787554" y="174.527948" style="stroke: #000000; stroke-width: 0.6"/>
      </g>
     </g>
    </g>
    <g id="xtick_14">
     <g id="line2d_14">
      <g>
       <use xlink:href="#maf52617284" x="148.717826" y="174.527948" style="stroke: #000000; stroke-width: 0.6"/>
      </g>
     </g>
    </g>
    <g id="xtick_15">
     <g id="line2d_15">
      <g>
       <use xlink:href="#maf52617284" x="159.648098" y="174.527948" style="stroke: #000000; stroke-width: 0.6"/>
      </g>
     </g>
    </g>
    <g id="xtick_16">
     <g id="line2d_16">
      <g>
       <use xlink:href="#maf52617284" x="170.578369" y="174.527948" style="stroke: #000000; stroke-width: 0.6"/>
      </g>
     </g>
    </g>
    <g id="xtick_17">
     <g id="line2d_17">
      <g>
       <use xlink:href="#maf52617284" x="192.438913" y="174.527948" style="stroke: #000000; stroke-width: 0.6"/>
      </g>
     </g>
    </g>
    <g id="xtick_18">
     <g id="line2d_18">
      <g>
       <use xlink:href="#maf52617284" x="203.369185" y="174.527948" style="stroke: #000000; stroke-width: 0.6"/>
      </g>
     </g>
    </g>
    <g id="xtick_19">
     <g id="line2d_19">
      <g>
       <use xlink:href="#maf52617284" x="214.299456" y="174.527948" style="stroke: #000000; stroke-width: 0.6"/>
      </g>
     </g>
    </g>
    <g id="xtick_20">
     <g id="line2d_20">
      <g>
       <use xlink:href="#maf52617284" x="225.229728" y="174.527948" style="stroke: #000000; stroke-width: 0.6"/>
      </g>
     </g>
    </g>
    <g id="xtick_21">
     <g id="line2d_21">
      <g>
       <use xlink:href="#maf52617284" x="247.090272" y="174.527948" style="stroke: #000000; stroke-width: 0.6"/>
      </g>
     </g>
    </g>
    <g id="xtick_22">
     <g id="line2d_22">
      <g>
       <use xlink:href="#maf52617284" x="258.020544" y="174.527948" style="stroke: #000000; stroke-width: 0.6"/>
      </g>
     </g>
    </g>
    <g id="xtick_23">
     <g id="line2d_23">
      <g>
       <use xlink:href="#maf52617284" x="268.950815" y="174.527948" style="stroke: #000000; stroke-width: 0.6"/>
      </g>
     </g>
    </g>
    <g id="xtick_24">
     <g id="line2d_24">
      <g>
       <use xlink:href="#maf52617284" x="279.881087" y="174.527948" style="stroke: #000000; stroke-width: 0.6"/>
      </g>
     </g>
    </g>
    <g id="xtick_25">
     <g id="line2d_25">
      <g>
       <use xlink:href="#maf52617284" x="301.741631" y="174.527948" style="stroke: #000000; stroke-width: 0.6"/>
      </g>
     </g>
    </g>
    <g id="xtick_26">
     <g id="line2d_26">
      <g>
       <use xlink:href="#maf52617284" x="312.671902" y="174.527948" style="stroke: #000000; stroke-width: 0.6"/>
      </g>
     </g>
    </g>
    <g id="xtick_27">
     <g id="line2d_27">
      <g>
       <use xlink:href="#maf52617284" x="323.602174" y="174.527948" style="stroke: #000000; stroke-width: 0.6"/>
      </g>
     </g>
    </g>
    <g id="xtick_28">
     <g id="line2d_28">
      <g>
       <use xlink:href="#maf52617284" x="334.532446" y="174.527948" style="stroke: #000000; stroke-width: 0.6"/>
      </g>
     </g>
    </g>
    <g id="xtick_29">
     <g id="line2d_29">
      <g>
       <use xlink:href="#maf52617284" x="356.39299" y="174.527948" style="stroke: #000000; stroke-width: 0.6"/>
      </g>
     </g>
    </g>
    <g id="xtick_30">
     <g id="line2d_30">
      <g>
       <use xlink:href="#maf52617284" x="367.323261" y="174.527948" style="stroke: #000000; stroke-width: 0.6"/>
      </g>
     </g>
    </g>
    <g id="xtick_31">
     <g id="line2d_31">
      <g>
       <use xlink:href="#maf52617284" x="378.253533" y="174.527948" style="stroke: #000000; stroke-width: 0.6"/>
      </g>
     </g>
    </g>
    <g id="xtick_32">
     <g id="line2d_32">
      <g>
       <use xlink:href="#maf52617284" x="389.183805" y="174.527948" style="stroke: #000000; stroke-width: 0.6"/>
      </g>
     </g>
    </g>
    <g id="xtick_33">
     <g id="line2d_33">
      <g>
       <use xlink:href="#maf52617284" x="411.044349" y="174.527948" style="stroke: #000000; stroke-width: 0.6"/>
      </g>
     </g>
    </g>
   </g>
   <g id="matplotlib.axis_2">
    <g id="ytick_1">
     <g id="line2d_34">
      <defs>
       <path id="med60995903" d="M 0 0 
L -3.5 0 
" style="stroke: #000000; stroke-width: 0.8"/>
      </defs>
      <g>
       <use xlink:href="#med60995903" x="236.16" y="302.466551" style="stroke: #000000; stroke-width: 0.8"/>
      </g>
     </g>
     <g id="text_7">
      <!-- −1.0 -->
      <g transform="translate(204.877187 306.26577) scale(0.1 -0.1)">
       <defs>
        <path id="DejaVuSans-2e" d="M 684 794 
L 1344 794 
L 1344 0 
L 684 0 
L 684 794 
z
" transform="scale(0.015625)"/>
        <path id="DejaVuSans-30" d="M 2034 4250 
Q 1547 4250 1301 3770 
Q 1056 3291 1056 2328 
Q 1056 1369 1301 889 
Q 1547 409 2034 409 
Q 2525 409 2770 889 
Q 3016 1369 3016 2328 
Q 3016 3291 2770 3770 
Q 2525 4250 2034 4250 
z
M 2034 4750 
Q 2819 4750 3233 4129 
Q 3647 3509 3647 2328 
Q 3647 1150 3233 529 
Q 2819 -91 2034 -91 
Q 1250 -91 836 529 
Q 422 1150 422 2328 
Q 422 3509 836 4129 
Q 1250 4750 2034 4750 
z
" transform="scale(0.015625)"/>
       </defs>
       <use xlink:href="#DejaVuSans-2212"/>
       <use xlink:href="#DejaVuSans-31" x="83.789062"/>
       <use xlink:href="#DejaVuSans-2e" x="147.412109"/>
       <use xlink:href="#DejaVuSans-30" x="179.199219"/>
      </g>
     </g>
    </g>
    <g id="ytick_2">
     <g id="line2d_35">
      <g>
       <use xlink:href="#med60995903" x="236.16" y="238.49725" style="stroke: #000000; stroke-width: 0.8"/>
      </g>
     </g>
     <g id="text_8">
      <!-- −0.5 -->
      <g transform="translate(204.877187 242.296469) scale(0.1 -0.1)">
       <defs>
        <path id="DejaVuSans-35" d="M 691 4666 
L 3169 4666 
L 3169 4134 
L 1269 4134 
L 1269 2991 
Q 1406 3038 1543 3061 
Q 1681 3084 1819 3084 
Q 2600 3084 3056 2656 
Q 3513 2228 3513 1497 
Q 3513 744 3044 326 
Q 2575 -91 1722 -91 
Q 1428 -91 1123 -41 
Q 819 9 494 109 
L 494 744 
Q 775 591 1075 516 
Q 1375 441 1709 441 
Q 2250 441 2565 725 
Q 2881 1009 2881 1497 
Q 2881 1984 2565 2268 
Q 2250 2553 1709 2553 
Q 1456 2553 1204 2497 
Q 953 2441 691 2322 
L 691 4666 
z
" transform="scale(0.015625)"/>
       </defs>
       <use xlink:href="#DejaVuSans-2212"/>
       <use xlink:href="#DejaVuSans-30" x="83.789062"/>
       <use xlink:href="#DejaVuSans-2e" x="147.412109"/>
       <use xlink:href="#DejaVuSans-35" x="179.199219"/>
      </g>
     </g>
    </g>
    <g id="ytick_3">
     <g id="line2d_36">
      <g>
       <use xlink:href="#med60995903" x="236.16" y="174.527948" style="stroke: #000000; stroke-width: 0.8"/>
      </g>
     </g>
    </g>
    <g id="ytick_4">
     <g id="line2d_37">
      <g>
       <use xlink:href="#med60995903" x="236.16" y="110.558647" style="stroke: #000000; stroke-width: 0.8"/>
      </g>
     </g>
     <g id="text_9">
      <!-- 0.5 -->
      <g transform="translate(213.256875 114.357865) scale(0.1 -0.1)">
       <use xlink:href="#DejaVuSans-30"/>
       <use xlink:href="#DejaVuSans-2e" x="63.623047"/>
       <use xlink:href="#DejaVuSans-35" x="95.410156"/>
      </g>
     </g>
    </g>
    <g id="ytick_5">
     <g id="line2d_38">
      <g>
       <use xlink:href="#med60995903" x="236.16" y="46.589345" style="stroke: #000000; stroke-width: 0.8"/>
      </g>
     </g>
     <g id="text_10">
      <!-- 1.0 -->
      <g transform="translate(213.256875 50.388564) scale(0.1 -0.1)">
       <use xlink:href="#DejaVuSans-31"/>
       <use xlink:href="#DejaVuSans-2e" x="63.623047"/>
       <use xlink:href="#DejaVuSans-30" x="95.410156"/>
      </g>
     </g>
    </g>
    <g id="ytick_6">
     <g id="line2d_39">
      <defs>
       <path id="m83b71994e8" d="M 0 0 
L -2 0 
" style="stroke: #000000; stroke-width: 0.6"/>
      </defs>
      <g>
       <use xlink:href="#m83b71994e8" x="236.16" y="289.672691" style="stroke: #000000; stroke-width: 0.6"/>
      </g>
     </g>
    </g>
    <g id="ytick_7">
     <g id="line2d_40">
      <g>
       <use xlink:href="#m83b71994e8" x="236.16" y="276.878831" style="stroke: #000000; stroke-width: 0.6"/>
      </g>
     </g>
    </g>
    <g id="ytick_8">
     <g id="line2d_41">
      <g>
       <use xlink:href="#m83b71994e8" x="236.16" y="264.08497" style="stroke: #000000; stroke-width: 0.6"/>
      </g>
     </g>
    </g>
    <g id="ytick_9">
     <g id="line2d_42">
      <g>
       <use xlink:href="#m83b71994e8" x="236.16" y="251.29111" style="stroke: #000000; stroke-width: 0.6"/>
      </g>
     </g>
    </g>
    <g id="ytick_10">
     <g id="line2d_43">
      <g>
       <use xlink:href="#m83b71994e8" x="236.16" y="225.703389" style="stroke: #000000; stroke-width: 0.6"/>
      </g>
     </g>
    </g>
    <g id="ytick_11">
     <g id="line2d_44">
      <g>
       <use xlink:href="#m83b71994e8" x="236.16" y="212.909529" style="stroke: #000000; stroke-width: 0.6"/>
      </g>
     </g>
    </g>
    <g id="ytick_12">
     <g id="line2d_45">
      <g>
       <use xlink:href="#m83b71994e8" x="236.16" y="200.115669" style="stroke: #000000; stroke-width: 0.6"/>
      </g>
     </g>
    </g>
    <g id="ytick_13">
     <g id="line2d_46">
      <g>
       <use xlink:href="#m83b71994e8" x="236.16" y="187.321808" style="stroke: #000000; stroke-width: 0.6"/>
      </g>
     </g>
    </g>
    <g id="ytick_14">
     <g id="line2d_47">
      <g>
       <use xlink:href="#m83b71994e8" x="236.16" y="161.734088" style="stroke: #000000; stroke-width: 0.6"/>
      </g>
     </g>
    </g>
    <g id="ytick_15">
     <g id="line2d_48">
      <g>
       <use xlink:href="#m83b71994e8" x="236.16" y="148.940228" style="stroke: #000000; stroke-width: 0.6"/>
      </g>
     </g>
    </g>
    <g id="ytick_16">
     <g id="line2d_49">
      <g>
       <use xlink:href="#m83b71994e8" x="236.16" y="136.146367" style="stroke: #000000; stroke-width: 0.6"/>
      </g>
     </g>
    </g>
    <g id="ytick_17">
     <g id="line2d_50">
      <g>
       <use xlink:href="#m83b71994e8" x="236.16" y="123.352507" style="stroke: #000000; stroke-width: 0.6"/>
      </g>
     </g>
    </g>
    <g id="ytick_18">
     <g id="line2d_51">
      <g>
       <use xlink:href="#m83b71994e8" x="236.16" y="97.764786" style="stroke: #000000; stroke-width: 0.6"/>
      </g>
     </g>
    </g>
    <g id="ytick_19">
     <g id="line2d_52">
      <g>
       <use xlink:href="#m83b71994e8" x="236.16" y="84.970926" style="stroke: #000000; stroke-width: 0.6"/>
      </g>
     </g>
    </g>
    <g id="ytick_20">
     <g id="line2d_53">
      <g>
       <use xlink:href="#m83b71994e8" x="236.16" y="72.177066" style="stroke: #000000; stroke-width: 0.6"/>
      </g>
     </g>
    </g>
    <g id="ytick_21">
     <g id="line2d_54">
      <g>
       <use xlink:href="#m83b71994e8" x="236.16" y="59.383205" style="stroke: #000000; stroke-width: 0.6"/>
      </g>
     </g>
    </g>
   </g>
   <g id="line2d_55">
    <path d="M 64.467692 123.571515 
L 65.279128 78.647652 
L 65.820085 58.461609 
L 66.280453 48.876462 
L 66.558109 46.70401 
L 66.650662 46.592099 
L 66.743214 46.785698 
L 66.928318 48.082868 
L 67.205974 52.260325 
L 67.627795 63.475198 
L 68.180132 86.035887 
L 68.969186 129.875103 
L 71.239951 265.794761 
L 71.867062 288.92695 
L 72.306501 298.589804 
L 72.627948 301.965842 
L 72.788672 302.460677 
L 72.845328 302.445365 
L 72.95864 302.119192 
L 73.185265 300.295468 
L 73.468547 295.869453 
L 73.86514 285.872563 
L 74.375046 267.169189 
L 75.087503 232.300151 
L 78.084244 71.665236 
L 78.681327 54.954916 
L 79.116725 48.342282 
L 79.365524 46.769895 
L 79.489923 46.589932 
L 79.614323 46.812749 
L 79.800922 47.896126 
L 80.11192 51.661074 
L 80.485119 59.27795 
L 80.984218 74.304548 
L 81.721606 104.919843 
L 82.640337 152.259964 
L 84.543262 250.84496 
L 85.297576 279.058546 
L 85.911483 294.319578 
L 86.371913 300.657879 
L 86.678867 302.353551 
L 86.832344 302.438528 
L 86.98582 302.017971 
L 87.216035 300.450217 
L 87.583756 295.67347 
L 88.065027 285.430903 
L 88.63852 267.944459 
L 89.468515 234.564792 
L 91.054761 157.673969 
L 92.405229 97.114546 
L 93.240335 69.340904 
L 93.844071 55.710968 
L 94.343419 49.005891 
L 94.700096 46.84445 
L 94.914102 46.604569 
L 95.056773 46.882308 
L 95.270779 47.948229 
L 95.556121 50.559204 
L 95.957436 56.449076 
L 96.452406 67.048163 
L 97.12138 86.516513 
L 97.991398 118.713769 
L 99.897716 200.977051 
L 101.250149 253.492106 
L 102.057161 277.354943 
L 102.796788 292.656202 
L 103.266875 298.767966 
L 103.643617 301.56023 
L 103.926678 302.41662 
L 104.115385 302.398497 
L 104.304092 301.913643 
L 104.587152 300.324278 
L 104.964566 296.638698 
L 105.436333 289.635382 
L 106.096808 275.748528 
L 106.942274 252.113193 
L 107.941274 218.079488 
L 111.276198 98.708717 
L 112.13317 76.062077 
L 112.932261 60.350087 
L 113.474301 52.982085 
L 114.01634 48.394216 
L 114.364298 46.930397 
L 114.531576 46.637684 
L 114.698854 46.609905 
L 114.866132 46.844941 
L 115.200688 48.092354 
L 115.535244 50.352692 
L 116.037078 55.564203 
L 116.706189 65.675135 
L 117.508734 81.997207 
L 118.53918 108.292134 
L 120.131507 156.071913 
L 122.531189 228.650185 
L 123.820971 260.737978 
L 124.802485 279.70438 
L 125.643783 291.58395 
L 126.339004 298.154715 
L 126.86042 301.117854 
L 127.283034 302.287594 
L 127.531844 302.466462 
L 127.780653 302.272941 
L 128.029462 301.712686 
L 128.375094 300.338475 
L 128.893541 297.020944 
L 129.584804 290.38648 
L 130.276067 281.444015 
L 131.075173 268.587909 
L 132.299216 244.685612 
L 134.011183 205.755516 
L 137.336587 128.19056 
L 138.657728 101.805015 
L 139.975583 79.967509 
L 140.955495 67.102198 
L 141.786739 58.604809 
L 142.592584 52.53556 
L 143.237261 49.217941 
L 143.720768 47.615311 
L 144.08491 46.900568 
L 144.490855 46.592296 
L 144.693827 46.627696 
L 145.099773 47.069084 
L 145.505718 47.992055 
L 146.027813 49.86058 
L 146.549909 52.460429 
L 147.333053 57.640528 
L 148.327041 66.214798 
L 149.522553 79.058181 
L 150.811163 95.358673 
L 152.463237 118.84475 
L 158.945201 214.927396 
L 160.548016 235.109273 
L 162.127893 252.548407 
L 163.794971 268.070979 
L 165.158454 278.504705 
L 166.245886 285.37748 
L 167.336197 291.012867 
L 168.172295 294.513188 
L 169.008393 297.330889 
L 170.037751 299.908898 
L 171.06711 301.563911 
L 171.749548 302.185723 
L 172.431986 302.45257 
L 173.114424 302.38544 
L 173.796863 302.005457 
L 174.768821 300.965717 
L 175.740779 299.394411 
L 176.903586 296.898499 
L 178.177316 293.502774 
L 179.447414 289.544091 
L 181.012173 284.044653 
L 182.607736 277.911575 
L 186.746743 260.714256 
L 191.892169 239.365091 
L 195.03342 227.413972 
L 197.06464 220.324259 
L 199.989166 211.102017 
L 201.588811 206.568051 
L 203.578918 201.433432 
L 205.104506 197.871895 
L 207.403224 193.100943 
L 209.784958 188.878325 
L 211.939249 185.650717 
L 213.869061 183.202568 
L 215.279039 181.660172 
L 216.689017 180.311762 
L 219.515539 178.141632 
L 221.906251 176.797621 
L 223.16052 176.249672 
L 226.09558 175.326976 
L 229.281527 174.783027 
L 233.880452 174.537232 
L 241.048504 174.436384 
L 244.071351 174.139842 
L 246.877191 173.563148 
L 249.14222 172.813073 
L 251.650312 171.61494 
L 253.572337 170.390865 
L 255.432663 168.918958 
L 257.923987 166.453267 
L 259.91154 164.03769 
L 261.667055 161.543268 
L 264.062756 157.551096 
L 266.116838 153.552007 
L 268.295386 148.696225 
L 270.678883 142.629963 
L 272.690695 136.883837 
L 274.475437 131.307398 
L 276.962914 122.807459 
L 280.353174 109.987098 
L 283.348907 97.739373 
L 290.122263 69.527783 
L 292.443572 60.95833 
L 294.136377 55.571462 
L 295.115439 52.901643 
L 296.562853 49.692157 
L 297.28656 48.467817 
L 298.010267 47.529171 
L 298.66731 46.945148 
L 299.324353 46.635691 
L 300.101187 46.649823 
L 300.622667 46.904944 
L 301.144148 47.368273 
L 301.665628 48.049046 
L 302.187108 48.956336 
L 302.76956 50.248366 
L 303.934465 53.760417 
L 304.97855 58.018845 
L 306.083613 63.732975 
L 307.04876 69.77911 
L 308.013907 76.834845 
L 309.590959 90.561687 
L 311.01388 105.257476 
L 312.555303 123.516517 
L 314.560904 150.454327 
L 316.856247 184.455621 
L 321.022411 247.028201 
L 322.77952 269.786843 
L 323.98395 282.754041 
L 325.046835 291.862985 
L 325.931667 297.475773 
L 326.526538 300.126849 
L 327.126393 301.815688 
L 327.426321 302.272053 
L 327.726248 302.461276 
L 328.026176 302.377622 
L 328.326103 302.015877 
L 328.825275 300.784922 
L 329.423009 298.256317 
L 330.020742 294.55912 
L 330.724065 288.700565 
L 331.536892 279.910538 
L 332.463139 267.327425 
L 333.698135 246.58966 
L 334.975341 221.038055 
L 336.695291 181.943434 
L 340.117248 102.335292 
L 341.436063 77.16786 
L 342.347732 63.414245 
L 343.090439 54.955837 
L 343.74351 49.830386 
L 344.224985 47.551047 
L 344.545968 46.773029 
L 344.866951 46.605548 
L 345.027443 46.754544 
L 345.348426 47.523992 
L 345.669409 48.927796 
L 346.127902 52.04061 
L 346.723904 58.031622 
L 347.411632 67.626098 
L 348.191086 81.808827 
L 349.100449 102.378201 
L 350.252217 133.509346 
L 352.497575 202.627852 
L 354.256901 253.546123 
L 355.248428 276.472138 
L 355.988622 289.470031 
L 356.580778 296.842606 
L 357.101322 300.867487 
L 357.438021 302.175153 
L 357.662488 302.463667 
L 357.774721 302.430426 
L 357.999187 302.005812 
L 358.335886 300.467484 
L 358.672585 297.843939 
L 359.229098 291.14563 
L 359.707095 283.099278 
L 360.471889 266.081602 
L 361.295267 242.713152 
L 362.530334 200.337107 
L 365.635855 89.12102 
L 366.531584 66.265846 
L 367.144647 55.227199 
L 367.658184 49.320549 
L 368.069014 46.958917 
L 368.274429 46.596046 
L 368.4339 46.696775 
L 368.673105 47.479659 
L 368.992047 49.707187 
L 369.390723 54.385173 
L 369.880984 62.959162 
L 370.542564 79.184537 
L 371.36954 106.058651 
L 372.446364 149.10847 
L 375.054094 257.662564 
L 375.921236 283.323693 
L 376.540623 295.53199 
L 377.016434 300.876228 
L 377.333642 302.354223 
L 377.492245 302.449654 
L 377.650849 302.111252 
L 377.901792 300.685818 
L 378.271149 296.608648 
L 378.732845 288.261598 
L 379.286881 273.728156 
L 380.025595 247.583187 
L 381.048987 201.908145 
L 383.392296 91.802043 
L 384.194005 65.225259 
L 384.693062 54.121399 
L 385.129738 48.37485 
L 385.441649 46.690559 
L 385.566414 46.597604 
L 385.691178 46.839874 
L 385.878325 47.833865 
L 386.146843 50.579798 
L 386.553703 57.661135 
L 387.041935 70.602953 
L 387.62949 91.980604 
L 388.546725 135.233002 
L 391.204589 269.972273 
L 391.835376 289.790171 
L 392.273362 298.384649 
L 392.601851 301.750666 
L 392.820845 302.46324 
L 392.930341 302.35249 
L 393.149334 301.191736 
L 393.477824 297.11006 
L 393.872018 288.585773 
L 394.346513 273.386756 
L 395.010807 244.245201 
L 395.864899 197.189983 
L 397.767765 89.726146 
L 398.442299 63.568511 
L 398.927046 51.776954 
L 399.274923 47.449082 
L 399.48365 46.601524 
L 399.553225 46.615772 
L 399.692376 47.091857 
L 399.901102 48.925184 
L 400.179404 53.440866 
L 400.596856 64.51065 
L 401.101462 84.226179 
L 401.841161 123.288318 
L 404.586735 281.919011 
L 405.088579 296.281892 
L 405.423142 301.278497 
L 405.674064 302.465494 
L 405.757705 302.363558 
L 405.924986 301.409321 
L 406.175908 298.108722 
L 406.510471 290.289454 
L 406.971391 273.498202 
L 407.558669 243.402251 
L 407.852308 225.484381 
L 407.852308 225.484381 
" clip-path="url(#paffa6d5022)" style="fill: none; stroke: #0000ff; stroke-linecap: square"/>
   </g>
   <g id="patch_3">
    <path d="M 236.16 307.584 
L 236.16 41.472 
" style="fill: none; stroke: #000000; stroke-width: 0.8; stroke-linejoin: miter; stroke-linecap: square"/>
   </g>
   <g id="patch_4">
    <path d="M 57.6 174.527948 
L 414.72 174.527948 
" style="fill: none; stroke: #000000; stroke-width: 0.8; stroke-linejoin: miter; stroke-linecap: square"/>
   </g>
  </g>
  <g id="axes_2">
   <g id="patch_5">
    <path d="M 109.44 155.52 
L 213.12 155.52 
L 213.12 51.84 
L 109.44 51.84 
L 109.44 155.52 
z
" style="fill: none"/>
   </g>
   <g id="matplotlib.axis_3">
    <g id="xtick_34">
     <g id="line2d_56">
      <g>
       <use xlink:href="#m165e92eb75" x="111.433846" y="103.68" style="stroke: #000000; stroke-width: 0.8"/>
      </g>
     </g>
     <g id="text_11">
      <!-- −1.0 -->
      <g transform="translate(99.29244 118.278437) scale(0.1 -0.1)">
       <use xlink:href="#DejaVuSans-2212"/>
       <use xlink:href="#DejaVuSans-31" x="83.789062"/>
       <use xlink:href="#DejaVuSans-2e" x="147.412109"/>
       <use xlink:href="#DejaVuSans-30" x="179.199219"/>
      </g>
     </g>
    </g>
    <g id="xtick_35">
     <g id="line2d_57">
      <g>
       <use xlink:href="#m165e92eb75" x="136.356923" y="103.68" style="stroke: #000000; stroke-width: 0.8"/>
      </g>
     </g>
     <g id="text_12">
      <!-- −0.5 -->
      <g transform="translate(124.215517 118.278437) scale(0.1 -0.1)">
       <use xlink:href="#DejaVuSans-2212"/>
       <use xlink:href="#DejaVuSans-30" x="83.789062"/>
       <use xlink:href="#DejaVuSans-2e" x="147.412109"/>
       <use xlink:href="#DejaVuSans-35" x="179.199219"/>
      </g>
     </g>
    </g>
    <g id="xtick_36">
     <g id="line2d_58">
      <g>
       <use xlink:href="#m165e92eb75" x="161.28" y="103.68" style="stroke: #000000; stroke-width: 0.8"/>
      </g>
     </g>
    </g>
    <g id="xtick_37">
     <g id="line2d_59">
      <g>
       <use xlink:href="#m165e92eb75" x="186.203077" y="103.68" style="stroke: #000000; stroke-width: 0.8"/>
      </g>
     </g>
     <g id="text_13">
      <!-- 0.5 -->
      <g transform="translate(178.251514 118.278437) scale(0.1 -0.1)">
       <use xlink:href="#DejaVuSans-30"/>
       <use xlink:href="#DejaVuSans-2e" x="63.623047"/>
       <use xlink:href="#DejaVuSans-35" x="95.410156"/>
      </g>
     </g>
    </g>
    <g id="xtick_38">
     <g id="line2d_60">
      <g>
       <use xlink:href="#m165e92eb75" x="211.126154" y="103.68" style="stroke: #000000; stroke-width: 0.8"/>
      </g>
     </g>
     <g id="text_14">
      <!-- 1.0 -->
      <g transform="translate(203.174591 118.278437) scale(0.1 -0.1)">
       <use xlink:href="#DejaVuSans-31"/>
       <use xlink:href="#DejaVuSans-2e" x="63.623047"/>
       <use xlink:href="#DejaVuSans-30" x="95.410156"/>
      </g>
     </g>
    </g>
    <g id="xtick_39">
     <g id="line2d_61">
      <g>
       <use xlink:href="#maf52617284" x="116.418462" y="103.68" style="stroke: #000000; stroke-width: 0.6"/>
      </g>
     </g>
    </g>
    <g id="xtick_40">
     <g id="line2d_62">
      <g>
       <use xlink:href="#maf52617284" x="121.403077" y="103.68" style="stroke: #000000; stroke-width: 0.6"/>
      </g>
     </g>
    </g>
    <g id="xtick_41">
     <g id="line2d_63">
      <g>
       <use xlink:href="#maf52617284" x="126.387692" y="103.68" style="stroke: #000000; stroke-width: 0.6"/>
      </g>
     </g>
    </g>
    <g id="xtick_42">
     <g id="line2d_64">
      <g>
       <use xlink:href="#maf52617284" x="131.372308" y="103.68" style="stroke: #000000; stroke-width: 0.6"/>
      </g>
     </g>
    </g>
    <g id="xtick_43">
     <g id="line2d_65">
      <g>
       <use xlink:href="#maf52617284" x="141.341538" y="103.68" style="stroke: #000000; stroke-width: 0.6"/>
      </g>
     </g>
    </g>
    <g id="xtick_44">
     <g id="line2d_66">
      <g>
       <use xlink:href="#maf52617284" x="146.326154" y="103.68" style="stroke: #000000; stroke-width: 0.6"/>
      </g>
     </g>
    </g>
    <g id="xtick_45">
     <g id="line2d_67">
      <g>
       <use xlink:href="#maf52617284" x="151.310769" y="103.68" style="stroke: #000000; stroke-width: 0.6"/>
      </g>
     </g>
    </g>
    <g id="xtick_46">
     <g id="line2d_68">
      <g>
       <use xlink:href="#maf52617284" x="156.295385" y="103.68" style="stroke: #000000; stroke-width: 0.6"/>
      </g>
     </g>
    </g>
    <g id="xtick_47">
     <g id="line2d_69">
      <g>
       <use xlink:href="#maf52617284" x="166.264615" y="103.68" style="stroke: #000000; stroke-width: 0.6"/>
      </g>
     </g>
    </g>
    <g id="xtick_48">
     <g id="line2d_70">
      <g>
       <use xlink:href="#maf52617284" x="171.249231" y="103.68" style="stroke: #000000; stroke-width: 0.6"/>
      </g>
     </g>
    </g>
    <g id="xtick_49">
     <g id="line2d_71">
      <g>
       <use xlink:href="#maf52617284" x="176.233846" y="103.68" style="stroke: #000000; stroke-width: 0.6"/>
      </g>
     </g>
    </g>
    <g id="xtick_50">
     <g id="line2d_72">
      <g>
       <use xlink:href="#maf52617284" x="181.218462" y="103.68" style="stroke: #000000; stroke-width: 0.6"/>
      </g>
     </g>
    </g>
    <g id="xtick_51">
     <g id="line2d_73">
      <g>
       <use xlink:href="#maf52617284" x="191.187692" y="103.68" style="stroke: #000000; stroke-width: 0.6"/>
      </g>
     </g>
    </g>
    <g id="xtick_52">
     <g id="line2d_74">
      <g>
       <use xlink:href="#maf52617284" x="196.172308" y="103.68" style="stroke: #000000; stroke-width: 0.6"/>
      </g>
     </g>
    </g>
    <g id="xtick_53">
     <g id="line2d_75">
      <g>
       <use xlink:href="#maf52617284" x="201.156923" y="103.68" style="stroke: #000000; stroke-width: 0.6"/>
      </g>
     </g>
    </g>
    <g id="xtick_54">
     <g id="line2d_76">
      <g>
       <use xlink:href="#maf52617284" x="206.141538" y="103.68" style="stroke: #000000; stroke-width: 0.6"/>
      </g>
     </g>
    </g>
   </g>
   <g id="matplotlib.axis_4">
    <g id="ytick_22">
     <g id="line2d_77">
      <g>
       <use xlink:href="#med60995903" x="161.28" y="153.526154" style="stroke: #000000; stroke-width: 0.8"/>
      </g>
     </g>
     <g id="text_15">
      <!-- −1.0 -->
      <g transform="translate(129.997187 157.325373) scale(0.1 -0.1)">
       <use xlink:href="#DejaVuSans-2212"/>
       <use xlink:href="#DejaVuSans-31" x="83.789062"/>
       <use xlink:href="#DejaVuSans-2e" x="147.412109"/>
       <use xlink:href="#DejaVuSans-30" x="179.199219"/>
      </g>
     </g>
    </g>
    <g id="ytick_23">
     <g id="line2d_78">
      <g>
       <use xlink:href="#med60995903" x="161.28" y="128.603077" style="stroke: #000000; stroke-width: 0.8"/>
      </g>
     </g>
     <g id="text_16">
      <!-- −0.5 -->
      <g transform="translate(129.997187 132.402296) scale(0.1 -0.1)">
       <use xlink:href="#DejaVuSans-2212"/>
       <use xlink:href="#DejaVuSans-30" x="83.789062"/>
       <use xlink:href="#DejaVuSans-2e" x="147.412109"/>
       <use xlink:href="#DejaVuSans-35" x="179.199219"/>
      </g>
     </g>
    </g>
    <g id="ytick_24">
     <g id="line2d_79">
      <g>
       <use xlink:href="#med60995903" x="161.28" y="103.68" style="stroke: #000000; stroke-width: 0.8"/>
      </g>
     </g>
    </g>
    <g id="ytick_25">
     <g id="line2d_80">
      <g>
       <use xlink:href="#med60995903" x="161.28" y="78.756923" style="stroke: #000000; stroke-width: 0.8"/>
      </g>
     </g>
     <g id="text_17">
      <!-- 0.5 -->
      <g transform="translate(138.376875 82.556142) scale(0.1 -0.1)">
       <use xlink:href="#DejaVuSans-30"/>
       <use xlink:href="#DejaVuSans-2e" x="63.623047"/>
       <use xlink:href="#DejaVuSans-35" x="95.410156"/>
      </g>
     </g>
    </g>
    <g id="ytick_26">
     <g id="line2d_81">
      <g>
       <use xlink:href="#med60995903" x="161.28" y="53.833846" style="stroke: #000000; stroke-width: 0.8"/>
      </g>
     </g>
     <g id="text_18">
      <!-- 1.0 -->
      <g transform="translate(138.376875 57.633065) scale(0.1 -0.1)">
       <use xlink:href="#DejaVuSans-31"/>
       <use xlink:href="#DejaVuSans-2e" x="63.623047"/>
       <use xlink:href="#DejaVuSans-30" x="95.410156"/>
      </g>
     </g>
    </g>
    <g id="ytick_27">
     <g id="line2d_82">
      <g>
       <use xlink:href="#m83b71994e8" x="161.28" y="148.541538" style="stroke: #000000; stroke-width: 0.6"/>
      </g>
     </g>
    </g>
    <g id="ytick_28">
     <g id="line2d_83">
      <g>
       <use xlink:href="#m83b71994e8" x="161.28" y="143.556923" style="stroke: #000000; stroke-width: 0.6"/>
      </g>
     </g>
    </g>
    <g id="ytick_29">
     <g id="line2d_84">
      <g>
       <use xlink:href="#m83b71994e8" x="161.28" y="138.572308" style="stroke: #000000; stroke-width: 0.6"/>
      </g>
     </g>
    </g>
    <g id="ytick_30">
     <g id="line2d_85">
      <g>
       <use xlink:href="#m83b71994e8" x="161.28" y="133.587692" style="stroke: #000000; stroke-width: 0.6"/>
      </g>
     </g>
    </g>
    <g id="ytick_31">
     <g id="line2d_86">
      <g>
       <use xlink:href="#m83b71994e8" x="161.28" y="123.618462" style="stroke: #000000; stroke-width: 0.6"/>
      </g>
     </g>
    </g>
    <g id="ytick_32">
     <g id="line2d_87">
      <g>
       <use xlink:href="#m83b71994e8" x="161.28" y="118.633846" style="stroke: #000000; stroke-width: 0.6"/>
      </g>
     </g>
    </g>
    <g id="ytick_33">
     <g id="line2d_88">
      <g>
       <use xlink:href="#m83b71994e8" x="161.28" y="113.649231" style="stroke: #000000; stroke-width: 0.6"/>
      </g>
     </g>
    </g>
    <g id="ytick_34">
     <g id="line2d_89">
      <g>
       <use xlink:href="#m83b71994e8" x="161.28" y="108.664615" style="stroke: #000000; stroke-width: 0.6"/>
      </g>
     </g>
    </g>
    <g id="ytick_35">
     <g id="line2d_90">
      <g>
       <use xlink:href="#m83b71994e8" x="161.28" y="98.695385" style="stroke: #000000; stroke-width: 0.6"/>
      </g>
     </g>
    </g>
    <g id="ytick_36">
     <g id="line2d_91">
      <g>
       <use xlink:href="#m83b71994e8" x="161.28" y="93.710769" style="stroke: #000000; stroke-width: 0.6"/>
      </g>
     </g>
    </g>
    <g id="ytick_37">
     <g id="line2d_92">
      <g>
       <use xlink:href="#m83b71994e8" x="161.28" y="88.726154" style="stroke: #000000; stroke-width: 0.6"/>
      </g>
     </g>
    </g>
    <g id="ytick_38">
     <g id="line2d_93">
      <g>
       <use xlink:href="#m83b71994e8" x="161.28" y="83.741538" style="stroke: #000000; stroke-width: 0.6"/>
      </g>
     </g>
    </g>
    <g id="ytick_39">
     <g id="line2d_94">
      <g>
       <use xlink:href="#m83b71994e8" x="161.28" y="73.772308" style="stroke: #000000; stroke-width: 0.6"/>
      </g>
     </g>
    </g>
    <g id="ytick_40">
     <g id="line2d_95">
      <g>
       <use xlink:href="#m83b71994e8" x="161.28" y="68.787692" style="stroke: #000000; stroke-width: 0.6"/>
      </g>
     </g>
    </g>
    <g id="ytick_41">
     <g id="line2d_96">
      <g>
       <use xlink:href="#m83b71994e8" x="161.28" y="63.803077" style="stroke: #000000; stroke-width: 0.6"/>
      </g>
     </g>
    </g>
    <g id="ytick_42">
     <g id="line2d_97">
      <g>
       <use xlink:href="#m83b71994e8" x="161.28" y="58.818462" style="stroke: #000000; stroke-width: 0.6"/>
      </g>
     </g>
    </g>
   </g>
   <g id="patch_6">
    <path d="M 161.28 155.52 
L 161.28 51.84 
" style="fill: none; stroke: #000000; stroke-width: 0.8; stroke-linejoin: miter; stroke-linecap: square"/>
   </g>
   <g id="patch_7">
    <path d="M 109.44 103.68 
L 213.12 103.68 
" style="fill: none; stroke: #000000; stroke-width: 0.8; stroke-linejoin: miter; stroke-linecap: square"/>
   </g>
   <g id="patch_8">
    <path d="M 161.28 153.526154 
C 174.499355 153.526154 187.179058 148.274049 196.526553 138.926553 
C 205.874049 129.579058 211.126154 116.899355 211.126154 103.68 
C 211.126154 90.460645 205.874049 77.780942 196.526553 68.433447 
C 187.179058 59.085951 174.499355 53.833846 161.28 53.833846 
C 148.060645 53.833846 135.380942 59.085951 126.033447 68.433447 
C 116.685951 77.780942 111.433846 90.460645 111.433846 103.68 
C 111.433846 116.899355 116.685951 129.579058 126.033447 138.926553 
C 135.380942 148.274049 148.060645 153.526154 161.28 153.526154 
L 161.28 153.526154 
z
" clip-path="url(#pca348db61f)" style="fill: none; stroke: #ff0000; stroke-linejoin: miter"/>
   </g>
  </g>
 </g>
 <defs>
  <clipPath id="paffa6d5022">
   <rect x="57.6" y="41.472" width="357.12" height="266.112"/>
  </clipPath>
  <clipPath id="pca348db61f">
   <rect x="109.44" y="51.84" width="103.68" height="103.68"/>
  </clipPath>
 </defs>
</svg>
