<?xml version="1.0" encoding="utf-8" standalone="no"?>
<!DOCTYPE svg PUBLIC "-//W3C//DTD SVG 1.1//EN"
  "http://www.w3.org/Graphics/SVG/1.1/DTD/svg11.dtd">
<svg xmlns:xlink="http://www.w3.org/1999/xlink" width="460.8pt" height="345.6pt" viewBox="0 0 460.8 345.6" xmlns="http://www.w3.org/2000/svg" version="1.1">
 <metadata>
  <rdf:RDF xmlns:dc="http://purl.org/dc/elements/1.1/" xmlns:cc="http://creativecommons.org/ns#" xmlns:rdf="http://www.w3.org/1999/02/22-rdf-syntax-ns#">
   <cc:Work>
    <dc:type rdf:resource="http://purl.org/dc/dcmitype/StillImage"/>
    <dc:date>2022-01-31T17:27:51.786377</dc:date>
    <dc:format>image/svg+xml</dc:format>
    <dc:creator>
     <cc:Agent>
      <dc:title>Matplotlib v3.5.1, https://matplotlib.org/</dc:title>
     </cc:Agent>
    </dc:creator>
   </cc:Work>
  </rdf:RDF>
 </metadata>
 <defs>
  <style type="text/css">*{stroke-linejoin: round; stroke-linecap: butt}</style>
 </defs>
 <g id="figure_1">
  <g id="patch_1">
   <path d="M 0 345.6 
L 460.8 345.6 
L 460.8 0 
L 0 0 
z
" style="fill: #ffffff"/>
  </g>
  <g id="axes_1">
   <g id="patch_2">
    <path d="M 57.6 307.584 
L 414.72 307.584 
L 414.72 41.472 
L 57.6 41.472 
z
" style="fill: #ffffff"/>
   </g>
   <g id="matplotlib.axis_1">
    <g id="xtick_1">
     <g id="line2d_1">
      <defs>
       <path id="m5e78c00dbc" d="M 0 0 
L 0 3.5 
" style="stroke: #000000; stroke-width: 0.8"/>
      </defs>
      <g>
       <use xlink:href="#m5e78c00dbc" x="72.205923" y="174.527818" style="stroke: #000000; stroke-width: 0.8"/>
      </g>
     </g>
     <g id="text_1">
      <!-- −3 -->
      <g transform="translate(64.834829 189.126255)scale(0.1 -0.1)">
       <defs>
        <path id="DejaVuSans-2212" d="M 678 2272 
L 4684 2272 
L 4684 1741 
L 678 1741 
L 678 2272 
z
" transform="scale(0.015625)"/>
        <path id="DejaVuSans-33" d="M 2597 2516 
Q 3050 2419 3304 2112 
Q 3559 1806 3559 1356 
Q 3559 666 3084 287 
Q 2609 -91 1734 -91 
Q 1441 -91 1130 -33 
Q 819 25 488 141 
L 488 750 
Q 750 597 1062 519 
Q 1375 441 1716 441 
Q 2309 441 2620 675 
Q 2931 909 2931 1356 
Q 2931 1769 2642 2001 
Q 2353 2234 1838 2234 
L 1294 2234 
L 1294 2753 
L 1863 2753 
Q 2328 2753 2575 2939 
Q 2822 3125 2822 3475 
Q 2822 3834 2567 4026 
Q 2313 4219 1838 4219 
Q 1578 4219 1281 4162 
Q 984 4106 628 3988 
L 628 4550 
Q 988 4650 1302 4700 
Q 1616 4750 1894 4750 
Q 2613 4750 3031 4423 
Q 3450 4097 3450 3541 
Q 3450 3153 3228 2886 
Q 3006 2619 2597 2516 
z
" transform="scale(0.015625)"/>
       </defs>
       <use xlink:href="#DejaVuSans-2212"/>
       <use xlink:href="#DejaVuSans-33" x="83.789062"/>
      </g>
     </g>
    </g>
    <g id="xtick_2">
     <g id="line2d_2">
      <g>
       <use xlink:href="#m5e78c00dbc" x="126.857282" y="174.527818" style="stroke: #000000; stroke-width: 0.8"/>
      </g>
     </g>
     <g id="text_2">
      <!-- −2 -->
      <g transform="translate(119.486188 189.126255)scale(0.1 -0.1)">
       <defs>
        <path id="DejaVuSans-32" d="M 1228 531 
L 3431 531 
L 3431 0 
L 469 0 
L 469 531 
Q 828 903 1448 1529 
Q 2069 2156 2228 2338 
Q 2531 2678 2651 2914 
Q 2772 3150 2772 3378 
Q 2772 3750 2511 3984 
Q 2250 4219 1831 4219 
Q 1534 4219 1204 4116 
Q 875 4013 500 3803 
L 500 4441 
Q 881 4594 1212 4672 
Q 1544 4750 1819 4750 
Q 2544 4750 2975 4387 
Q 3406 4025 3406 3419 
Q 3406 3131 3298 2873 
Q 3191 2616 2906 2266 
Q 2828 2175 2409 1742 
Q 1991 1309 1228 531 
z
" transform="scale(0.015625)"/>
       </defs>
       <use xlink:href="#DejaVuSans-2212"/>
       <use xlink:href="#DejaVuSans-32" x="83.789062"/>
      </g>
     </g>
    </g>
    <g id="xtick_3">
     <g id="line2d_3">
      <g>
       <use xlink:href="#m5e78c00dbc" x="181.508641" y="174.527818" style="stroke: #000000; stroke-width: 0.8"/>
      </g>
     </g>
     <g id="text_3">
      <!-- −1 -->
      <g transform="translate(174.137547 189.126255)scale(0.1 -0.1)">
       <defs>
        <path id="DejaVuSans-31" d="M 794 531 
L 1825 531 
L 1825 4091 
L 703 3866 
L 703 4441 
L 1819 4666 
L 2450 4666 
L 2450 531 
L 3481 531 
L 3481 0 
L 794 0 
L 794 531 
z
" transform="scale(0.015625)"/>
       </defs>
       <use xlink:href="#DejaVuSans-2212"/>
       <use xlink:href="#DejaVuSans-31" x="83.789062"/>
      </g>
     </g>
    </g>
    <g id="xtick_4">
     <g id="line2d_4">
      <g>
       <use xlink:href="#m5e78c00dbc" x="236.16" y="174.527818" style="stroke: #000000; stroke-width: 0.8"/>
      </g>
     </g>
    </g>
    <g id="xtick_5">
     <g id="line2d_5">
      <g>
       <use xlink:href="#m5e78c00dbc" x="290.811359" y="174.527818" style="stroke: #000000; stroke-width: 0.8"/>
      </g>
     </g>
     <g id="text_4">
      <!-- 1 -->
      <g transform="translate(287.630109 189.126255)scale(0.1 -0.1)">
       <use xlink:href="#DejaVuSans-31"/>
      </g>
     </g>
    </g>
    <g id="xtick_6">
     <g id="line2d_6">
      <g>
       <use xlink:href="#m5e78c00dbc" x="345.462718" y="174.527818" style="stroke: #000000; stroke-width: 0.8"/>
      </g>
     </g>
     <g id="text_5">
      <!-- 2 -->
      <g transform="translate(342.281468 189.126255)scale(0.1 -0.1)">
       <use xlink:href="#DejaVuSans-32"/>
      </g>
     </g>
    </g>
    <g id="xtick_7">
     <g id="line2d_7">
      <g>
       <use xlink:href="#m5e78c00dbc" x="400.114077" y="174.527818" style="stroke: #000000; stroke-width: 0.8"/>
      </g>
     </g>
     <g id="text_6">
      <!-- 3 -->
      <g transform="translate(396.932827 189.126255)scale(0.1 -0.1)">
       <use xlink:href="#DejaVuSans-33"/>
      </g>
     </g>
    </g>
    <g id="xtick_8">
     <g id="line2d_8">
      <defs>
       <path id="m1a97fff296" d="M 0 0 
L 0 2 
" style="stroke: #000000; stroke-width: 0.6"/>
      </defs>
      <g>
       <use xlink:href="#m1a97fff296" x="61.275651" y="174.527818" style="stroke: #000000; stroke-width: 0.6"/>
      </g>
     </g>
    </g>
    <g id="xtick_9">
     <g id="line2d_9">
      <g>
       <use xlink:href="#m1a97fff296" x="83.136195" y="174.527818" style="stroke: #000000; stroke-width: 0.6"/>
      </g>
     </g>
    </g>
    <g id="xtick_10">
     <g id="line2d_10">
      <g>
       <use xlink:href="#m1a97fff296" x="94.066467" y="174.527818" style="stroke: #000000; stroke-width: 0.6"/>
      </g>
     </g>
    </g>
    <g id="xtick_11">
     <g id="line2d_11">
      <g>
       <use xlink:href="#m1a97fff296" x="104.996739" y="174.527818" style="stroke: #000000; stroke-width: 0.6"/>
      </g>
     </g>
    </g>
    <g id="xtick_12">
     <g id="line2d_12">
      <g>
       <use xlink:href="#m1a97fff296" x="115.92701" y="174.527818" style="stroke: #000000; stroke-width: 0.6"/>
      </g>
     </g>
    </g>
    <g id="xtick_13">
     <g id="line2d_13">
      <g>
       <use xlink:href="#m1a97fff296" x="137.787554" y="174.527818" style="stroke: #000000; stroke-width: 0.6"/>
      </g>
     </g>
    </g>
    <g id="xtick_14">
     <g id="line2d_14">
      <g>
       <use xlink:href="#m1a97fff296" x="148.717826" y="174.527818" style="stroke: #000000; stroke-width: 0.6"/>
      </g>
     </g>
    </g>
    <g id="xtick_15">
     <g id="line2d_15">
      <g>
       <use xlink:href="#m1a97fff296" x="159.648098" y="174.527818" style="stroke: #000000; stroke-width: 0.6"/>
      </g>
     </g>
    </g>
    <g id="xtick_16">
     <g id="line2d_16">
      <g>
       <use xlink:href="#m1a97fff296" x="170.578369" y="174.527818" style="stroke: #000000; stroke-width: 0.6"/>
      </g>
     </g>
    </g>
    <g id="xtick_17">
     <g id="line2d_17">
      <g>
       <use xlink:href="#m1a97fff296" x="192.438913" y="174.527818" style="stroke: #000000; stroke-width: 0.6"/>
      </g>
     </g>
    </g>
    <g id="xtick_18">
     <g id="line2d_18">
      <g>
       <use xlink:href="#m1a97fff296" x="203.369185" y="174.527818" style="stroke: #000000; stroke-width: 0.6"/>
      </g>
     </g>
    </g>
    <g id="xtick_19">
     <g id="line2d_19">
      <g>
       <use xlink:href="#m1a97fff296" x="214.299456" y="174.527818" style="stroke: #000000; stroke-width: 0.6"/>
      </g>
     </g>
    </g>
    <g id="xtick_20">
     <g id="line2d_20">
      <g>
       <use xlink:href="#m1a97fff296" x="225.229728" y="174.527818" style="stroke: #000000; stroke-width: 0.6"/>
      </g>
     </g>
    </g>
    <g id="xtick_21">
     <g id="line2d_21">
      <g>
       <use xlink:href="#m1a97fff296" x="247.090272" y="174.527818" style="stroke: #000000; stroke-width: 0.6"/>
      </g>
     </g>
    </g>
    <g id="xtick_22">
     <g id="line2d_22">
      <g>
       <use xlink:href="#m1a97fff296" x="258.020544" y="174.527818" style="stroke: #000000; stroke-width: 0.6"/>
      </g>
     </g>
    </g>
    <g id="xtick_23">
     <g id="line2d_23">
      <g>
       <use xlink:href="#m1a97fff296" x="268.950815" y="174.527818" style="stroke: #000000; stroke-width: 0.6"/>
      </g>
     </g>
    </g>
    <g id="xtick_24">
     <g id="line2d_24">
      <g>
       <use xlink:href="#m1a97fff296" x="279.881087" y="174.527818" style="stroke: #000000; stroke-width: 0.6"/>
      </g>
     </g>
    </g>
    <g id="xtick_25">
     <g id="line2d_25">
      <g>
       <use xlink:href="#m1a97fff296" x="301.741631" y="174.527818" style="stroke: #000000; stroke-width: 0.6"/>
      </g>
     </g>
    </g>
    <g id="xtick_26">
     <g id="line2d_26">
      <g>
       <use xlink:href="#m1a97fff296" x="312.671902" y="174.527818" style="stroke: #000000; stroke-width: 0.6"/>
      </g>
     </g>
    </g>
    <g id="xtick_27">
     <g id="line2d_27">
      <g>
       <use xlink:href="#m1a97fff296" x="323.602174" y="174.527818" style="stroke: #000000; stroke-width: 0.6"/>
      </g>
     </g>
    </g>
    <g id="xtick_28">
     <g id="line2d_28">
      <g>
       <use xlink:href="#m1a97fff296" x="334.532446" y="174.527818" style="stroke: #000000; stroke-width: 0.6"/>
      </g>
     </g>
    </g>
    <g id="xtick_29">
     <g id="line2d_29">
      <g>
       <use xlink:href="#m1a97fff296" x="356.39299" y="174.527818" style="stroke: #000000; stroke-width: 0.6"/>
      </g>
     </g>
    </g>
    <g id="xtick_30">
     <g id="line2d_30">
      <g>
       <use xlink:href="#m1a97fff296" x="367.323261" y="174.527818" style="stroke: #000000; stroke-width: 0.6"/>
      </g>
     </g>
    </g>
    <g id="xtick_31">
     <g id="line2d_31">
      <g>
       <use xlink:href="#m1a97fff296" x="378.253533" y="174.527818" style="stroke: #000000; stroke-width: 0.6"/>
      </g>
     </g>
    </g>
    <g id="xtick_32">
     <g id="line2d_32">
      <g>
       <use xlink:href="#m1a97fff296" x="389.183805" y="174.527818" style="stroke: #000000; stroke-width: 0.6"/>
      </g>
     </g>
    </g>
    <g id="xtick_33">
     <g id="line2d_33">
      <g>
       <use xlink:href="#m1a97fff296" x="411.044349" y="174.527818" style="stroke: #000000; stroke-width: 0.6"/>
      </g>
     </g>
    </g>
   </g>
   <g id="matplotlib.axis_2">
    <g id="ytick_1">
     <g id="line2d_34">
      <defs>
       <path id="mef837279a5" d="M 0 0 
L -3.5 0 
" style="stroke: #000000; stroke-width: 0.8"/>
      </defs>
      <g>
       <use xlink:href="#mef837279a5" x="236.16" y="302.466508" style="stroke: #000000; stroke-width: 0.8"/>
      </g>
     </g>
     <g id="text_7">
      <!-- −1.0 -->
      <g transform="translate(204.877187 306.265726)scale(0.1 -0.1)">
       <defs>
        <path id="DejaVuSans-2e" d="M 684 794 
L 1344 794 
L 1344 0 
L 684 0 
L 684 794 
z
" transform="scale(0.015625)"/>
        <path id="DejaVuSans-30" d="M 2034 4250 
Q 1547 4250 1301 3770 
Q 1056 3291 1056 2328 
Q 1056 1369 1301 889 
Q 1547 409 2034 409 
Q 2525 409 2770 889 
Q 3016 1369 3016 2328 
Q 3016 3291 2770 3770 
Q 2525 4250 2034 4250 
z
M 2034 4750 
Q 2819 4750 3233 4129 
Q 3647 3509 3647 2328 
Q 3647 1150 3233 529 
Q 2819 -91 2034 -91 
Q 1250 -91 836 529 
Q 422 1150 422 2328 
Q 422 3509 836 4129 
Q 1250 4750 2034 4750 
z
" transform="scale(0.015625)"/>
       </defs>
       <use xlink:href="#DejaVuSans-2212"/>
       <use xlink:href="#DejaVuSans-31" x="83.789062"/>
       <use xlink:href="#DejaVuSans-2e" x="147.412109"/>
       <use xlink:href="#DejaVuSans-30" x="179.199219"/>
      </g>
     </g>
    </g>
    <g id="ytick_2">
     <g id="line2d_35">
      <g>
       <use xlink:href="#mef837279a5" x="236.16" y="238.497163" style="stroke: #000000; stroke-width: 0.8"/>
      </g>
     </g>
     <g id="text_8">
      <!-- −0.5 -->
      <g transform="translate(204.877187 242.296381)scale(0.1 -0.1)">
       <defs>
        <path id="DejaVuSans-35" d="M 691 4666 
L 3169 4666 
L 3169 4134 
L 1269 4134 
L 1269 2991 
Q 1406 3038 1543 3061 
Q 1681 3084 1819 3084 
Q 2600 3084 3056 2656 
Q 3513 2228 3513 1497 
Q 3513 744 3044 326 
Q 2575 -91 1722 -91 
Q 1428 -91 1123 -41 
Q 819 9 494 109 
L 494 744 
Q 775 591 1075 516 
Q 1375 441 1709 441 
Q 2250 441 2565 725 
Q 2881 1009 2881 1497 
Q 2881 1984 2565 2268 
Q 2250 2553 1709 2553 
Q 1456 2553 1204 2497 
Q 953 2441 691 2322 
L 691 4666 
z
" transform="scale(0.015625)"/>
       </defs>
       <use xlink:href="#DejaVuSans-2212"/>
       <use xlink:href="#DejaVuSans-30" x="83.789062"/>
       <use xlink:href="#DejaVuSans-2e" x="147.412109"/>
       <use xlink:href="#DejaVuSans-35" x="179.199219"/>
      </g>
     </g>
    </g>
    <g id="ytick_3">
     <g id="line2d_36">
      <g>
       <use xlink:href="#mef837279a5" x="236.16" y="174.527818" style="stroke: #000000; stroke-width: 0.8"/>
      </g>
     </g>
    </g>
    <g id="ytick_4">
     <g id="line2d_37">
      <g>
       <use xlink:href="#mef837279a5" x="236.16" y="110.558473" style="stroke: #000000; stroke-width: 0.8"/>
      </g>
     </g>
     <g id="text_9">
      <!-- 0.5 -->
      <g transform="translate(213.256875 114.357692)scale(0.1 -0.1)">
       <use xlink:href="#DejaVuSans-30"/>
       <use xlink:href="#DejaVuSans-2e" x="63.623047"/>
       <use xlink:href="#DejaVuSans-35" x="95.410156"/>
      </g>
     </g>
    </g>
    <g id="ytick_5">
     <g id="line2d_38">
      <g>
       <use xlink:href="#mef837279a5" x="236.16" y="46.589128" style="stroke: #000000; stroke-width: 0.8"/>
      </g>
     </g>
     <g id="text_10">
      <!-- 1.0 -->
      <g transform="translate(213.256875 50.388347)scale(0.1 -0.1)">
       <use xlink:href="#DejaVuSans-31"/>
       <use xlink:href="#DejaVuSans-2e" x="63.623047"/>
       <use xlink:href="#DejaVuSans-30" x="95.410156"/>
      </g>
     </g>
    </g>
    <g id="ytick_6">
     <g id="line2d_39">
      <defs>
       <path id="m0451372b66" d="M 0 0 
L -2 0 
" style="stroke: #000000; stroke-width: 0.6"/>
      </defs>
      <g>
       <use xlink:href="#m0451372b66" x="236.16" y="289.672639" style="stroke: #000000; stroke-width: 0.6"/>
      </g>
     </g>
    </g>
    <g id="ytick_7">
     <g id="line2d_40">
      <g>
       <use xlink:href="#m0451372b66" x="236.16" y="276.87877" style="stroke: #000000; stroke-width: 0.6"/>
      </g>
     </g>
    </g>
    <g id="ytick_8">
     <g id="line2d_41">
      <g>
       <use xlink:href="#m0451372b66" x="236.16" y="264.084901" style="stroke: #000000; stroke-width: 0.6"/>
      </g>
     </g>
    </g>
    <g id="ytick_9">
     <g id="line2d_42">
      <g>
       <use xlink:href="#m0451372b66" x="236.16" y="251.291032" style="stroke: #000000; stroke-width: 0.6"/>
      </g>
     </g>
    </g>
    <g id="ytick_10">
     <g id="line2d_43">
      <g>
       <use xlink:href="#m0451372b66" x="236.16" y="225.703294" style="stroke: #000000; stroke-width: 0.6"/>
      </g>
     </g>
    </g>
    <g id="ytick_11">
     <g id="line2d_44">
      <g>
       <use xlink:href="#m0451372b66" x="236.16" y="212.909425" style="stroke: #000000; stroke-width: 0.6"/>
      </g>
     </g>
    </g>
    <g id="ytick_12">
     <g id="line2d_45">
      <g>
       <use xlink:href="#m0451372b66" x="236.16" y="200.115556" style="stroke: #000000; stroke-width: 0.6"/>
      </g>
     </g>
    </g>
    <g id="ytick_13">
     <g id="line2d_46">
      <g>
       <use xlink:href="#m0451372b66" x="236.16" y="187.321687" style="stroke: #000000; stroke-width: 0.6"/>
      </g>
     </g>
    </g>
    <g id="ytick_14">
     <g id="line2d_47">
      <g>
       <use xlink:href="#m0451372b66" x="236.16" y="161.733949" style="stroke: #000000; stroke-width: 0.6"/>
      </g>
     </g>
    </g>
    <g id="ytick_15">
     <g id="line2d_48">
      <g>
       <use xlink:href="#m0451372b66" x="236.16" y="148.94008" style="stroke: #000000; stroke-width: 0.6"/>
      </g>
     </g>
    </g>
    <g id="ytick_16">
     <g id="line2d_49">
      <g>
       <use xlink:href="#m0451372b66" x="236.16" y="136.146211" style="stroke: #000000; stroke-width: 0.6"/>
      </g>
     </g>
    </g>
    <g id="ytick_17">
     <g id="line2d_50">
      <g>
       <use xlink:href="#m0451372b66" x="236.16" y="123.352342" style="stroke: #000000; stroke-width: 0.6"/>
      </g>
     </g>
    </g>
    <g id="ytick_18">
     <g id="line2d_51">
      <g>
       <use xlink:href="#m0451372b66" x="236.16" y="97.764604" style="stroke: #000000; stroke-width: 0.6"/>
      </g>
     </g>
    </g>
    <g id="ytick_19">
     <g id="line2d_52">
      <g>
       <use xlink:href="#m0451372b66" x="236.16" y="84.970735" style="stroke: #000000; stroke-width: 0.6"/>
      </g>
     </g>
    </g>
    <g id="ytick_20">
     <g id="line2d_53">
      <g>
       <use xlink:href="#m0451372b66" x="236.16" y="72.176866" style="stroke: #000000; stroke-width: 0.6"/>
      </g>
     </g>
    </g>
    <g id="ytick_21">
     <g id="line2d_54">
      <g>
       <use xlink:href="#m0451372b66" x="236.16" y="59.382997" style="stroke: #000000; stroke-width: 0.6"/>
      </g>
     </g>
    </g>
   </g>
   <g id="line2d_55">
    <path d="M 64.467692 123.57135 
L 65.31655 76.966079 
L 65.904221 56.165195 
L 66.296002 48.68193 
L 66.557189 46.706444 
L 66.646009 46.590206 
L 66.734829 46.755392 
L 66.91247 47.924448 
L 67.178931 51.73793 
L 67.551811 61.042204 
L 68.025243 78.900778 
L 68.688049 113.056372 
L 69.92603 191.39695 
L 71.069325 257.816427 
L 71.687667 283.376586 
L 72.202952 296.830297 
L 72.563651 301.544681 
L 72.773873 302.448361 
L 72.885145 302.375538 
L 73.052054 301.55551 
L 73.330236 298.323138 
L 73.664054 291.475921 
L 74.164782 275.615865 
L 74.87443 243.59442 
L 75.701256 197.051721 
L 77.437641 98.552605 
L 78.132195 70.015306 
L 78.728822 53.998033 
L 79.144405 48.087242 
L 79.393754 46.693417 
L 79.476871 46.589651 
L 79.559987 46.665807 
L 79.72622 47.354922 
L 80.019275 50.287345 
L 80.439151 58.164323 
L 80.963996 73.596619 
L 81.627614 100.554532 
L 82.599027 150.008503 
L 84.461006 247.229058 
L 85.260996 277.917293 
L 85.810389 292.328997 
L 86.249902 299.419031 
L 86.62444 302.201359 
L 86.77922 302.466462 
L 86.934 302.216199 
L 87.16617 300.884233 
L 87.475731 297.360466 
L 87.862681 290.26516 
L 88.404412 275.720204 
L 89.077814 251.279007 
L 89.999507 209.788063 
L 92.375789 98.258347 
L 93.193953 70.625102 
L 93.796583 56.568216 
L 94.313123 49.290748 
L 94.657483 46.986512 
L 94.829663 46.6046 
L 94.915753 46.60557 
L 95.087933 46.989027 
L 95.346203 48.507262 
L 95.690563 52.249243 
L 96.058674 58.327336 
L 96.622717 71.480144 
L 97.327769 93.545036 
L 98.328582 132.656635 
L 101.29328 254.935641 
L 102.161295 279.911582 
L 102.739971 291.722921 
L 103.236094 298.45652 
L 103.587547 301.264177 
L 103.939001 302.429726 
L 104.056152 302.454626 
L 104.290454 301.96417 
L 104.524756 300.762453 
L 104.86776 297.75102 
L 105.302566 291.881409 
L 105.846073 281.545197 
L 106.498281 265.254178 
L 107.476685 234.539981 
L 108.704992 189.585479 
L 110.898999 110.307596 
L 111.948658 80.461762 
L 112.797522 62.603154 
L 113.461032 53.129297 
L 113.992914 48.534182 
L 114.391825 46.863727 
L 114.551746 46.620107 
L 114.711668 46.618428 
L 114.871589 46.85679 
L 115.191432 48.043857 
L 115.511274 50.157551 
L 115.991038 54.997912 
L 116.630723 64.36504 
L 117.3556 78.565475 
L 118.368184 103.59025 
L 119.856949 147.500464 
L 122.62811 231.299518 
L 123.856723 261.518585 
L 124.898941 281.278759 
L 125.658482 291.753606 
L 126.228137 297.307159 
L 126.776652 300.755357 
L 127.135281 302.00317 
L 127.374367 302.396782 
L 127.613453 302.443728 
L 127.852539 302.148424 
L 128.211169 301.075557 
L 128.62334 298.934233 
L 129.208597 294.299372 
L 129.75056 288.442776 
L 130.498567 278.118524 
L 131.495908 260.881022 
L 132.801458 233.757314 
L 134.549319 192.876838 
L 137.206604 130.98868 
L 138.709784 100.85098 
L 139.786149 82.797295 
L 140.723462 69.874268 
L 141.678064 59.586957 
L 142.432917 53.567734 
L 143.18777 49.424341 
L 143.754769 47.530592 
L 144.07015 46.921202 
L 144.385531 46.623194 
L 144.700913 46.630968 
L 145.016294 46.938256 
L 145.331675 47.538172 
L 145.962438 49.585525 
L 146.657153 53.081092 
L 147.351869 57.78265 
L 148.257344 65.546481 
L 149.142008 74.701932 
L 150.486592 91.05143 
L 152.277033 116.09342 
L 159.496558 222.132094 
L 161.152161 242.080797 
L 162.629409 257.535663 
L 164.223437 271.569309 
L 165.325048 279.64021 
L 166.669692 287.71487 
L 167.706973 292.651174 
L 168.616729 296.093981 
L 169.526484 298.747882 
L 170.252485 300.328069 
L 171.176825 301.688643 
L 171.678417 302.137797 
L 172.180008 302.39401 
L 172.681599 302.465596 
L 173.364325 302.281439 
L 174.047051 301.791909 
L 175.043212 300.573349 
L 176.039374 298.814052 
L 177.522573 295.327479 
L 178.507123 292.525088 
L 180.253579 286.78572 
L 182.539297 278.183053 
L 185.048333 267.895556 
L 191.228829 242.020341 
L 193.899843 231.59759 
L 196.446132 222.425515 
L 198.612327 215.294819 
L 200.79484 208.772891 
L 203.613769 201.34836 
L 205.391926 197.236541 
L 207.20322 193.488201 
L 209.513736 189.323506 
L 210.564289 187.647896 
L 212.009181 185.554769 
L 214.365516 182.63645 
L 216.670223 180.328388 
L 218.673183 178.7182 
L 220.346422 177.626999 
L 222.606948 176.478981 
L 224.08564 175.907512 
L 227.534571 175.030785 
L 229.468145 174.762694 
L 233.932954 174.536475 
L 241.702179 174.394392 
L 245.098233 173.968121 
L 247.949786 173.243391 
L 248.835469 172.931645 
L 250.749999 172.093717 
L 252.819152 170.904557 
L 255.669243 168.709861 
L 257.798012 166.592356 
L 260.144224 163.726947 
L 261.964387 161.085402 
L 263.030877 159.356567 
L 264.491995 156.760391 
L 266.732283 152.245407 
L 269.09389 146.752688 
L 271.156391 141.317999 
L 273.592785 134.120898 
L 276.408759 124.771814 
L 278.445075 117.364359 
L 281.39041 105.824741 
L 291.569387 64.051342 
L 293.572005 57.267737 
L 294.998114 53.201707 
L 296.195001 50.415987 
L 297.378443 48.332086 
L 298.49613 47.0714 
L 299.241255 46.658795 
L 299.613817 46.59113 
L 300.269222 46.709646 
L 300.924626 47.147043 
L 301.394467 47.66714 
L 302.334149 49.254113 
L 303.130349 51.200985 
L 304.109426 54.398809 
L 305.059672 58.395213 
L 306.009918 63.311986 
L 306.951611 69.124933 
L 308.293877 79.07232 
L 309.495594 89.654157 
L 310.863169 103.599644 
L 312.388035 121.424145 
L 314.042317 143.186332 
L 316.470547 178.587213 
L 321.266846 250.409611 
L 322.840463 270.501625 
L 323.988881 282.801647 
L 324.917446 290.885564 
L 325.876386 297.18206 
L 326.663934 300.602985 
L 327.323298 302.145068 
L 327.65298 302.439984 
L 327.982663 302.406843 
L 328.312345 302.038582 
L 328.642027 301.328946 
L 329.13655 299.612882 
L 329.558139 297.523192 
L 330.32838 292.197208 
L 331.10276 284.87249 
L 331.87714 275.599556 
L 332.804849 262.023889 
L 334.041794 240.08781 
L 335.598168 207.366536 
L 337.913491 152.749958 
L 340.150213 101.644881 
L 341.491712 76.232586 
L 342.404265 62.678283 
L 343.118285 54.691311 
L 343.689501 50.166969 
L 344.117913 47.94372 
L 344.533569 46.791614 
L 344.741397 46.597328 
L 344.949225 46.662192 
L 345.157053 46.989061 
L 345.572708 48.437589 
L 345.960785 50.754691 
L 346.501534 55.540425 
L 347.222531 64.707075 
L 348.002605 78.070826 
L 348.942782 98.528307 
L 350.063503 128.090538 
L 351.344327 166.52512 
L 353.994326 246.615798 
L 354.974422 270.709831 
L 355.725592 285.306143 
L 356.435603 295.301825 
L 356.957821 299.996911 
L 357.375596 302.011403 
L 357.584483 302.416838 
L 357.7139 302.463154 
L 357.843317 302.351407 
L 358.102151 301.650428 
L 358.490402 299.398127 
L 358.878653 295.704552 
L 359.396321 288.567161 
L 359.995012 277.270318 
L 360.844655 256.093946 
L 361.922444 222.064139 
L 363.175816 176.153393 
L 365.301785 99.33271 
L 366.205974 73.727447 
L 366.996565 57.511365 
L 367.523626 50.557499 
L 367.962843 47.361707 
L 368.226374 46.631195 
L 368.402061 46.649601 
L 368.577748 47.076236 
L 368.868182 48.681227 
L 369.273364 52.791023 
L 369.779842 60.941174 
L 370.370834 74.485147 
L 371.123777 97.392892 
L 372.091863 134.195568 
L 375.439129 270.155805 
L 376.182226 289.154572 
L 376.749064 298.324636 
L 377.126955 301.584287 
L 377.403058 302.449159 
L 377.493873 302.448345 
L 377.675503 302.01951 
L 377.947949 300.304806 
L 378.305599 296.109152 
L 378.73478 288.21916 
L 379.235491 275.272073 
L 379.950793 250.54014 
L 380.950402 206.637439 
L 383.624852 83.114213 
L 384.350204 61.257056 
L 384.926152 50.572294 
L 385.27892 47.312052 
L 385.49058 46.614035 
L 385.631687 46.682238 
L 385.843348 47.590352 
L 386.125562 50.305464 
L 386.478329 56.088072 
L 386.963145 68.201017 
L 387.491335 86.434396 
L 388.283621 121.859844 
L 389.837427 205.355374 
L 390.990142 261.49651 
L 391.673516 285.496031 
L 392.196172 297.202974 
L 392.536805 301.301 
L 392.809312 302.456677 
L 392.877438 302.444988 
L 393.013692 302.058359 
L 393.218072 300.569166 
L 393.558705 295.678927 
L 393.967465 285.947467 
L 394.552009 265.270946 
L 395.303566 229.054477 
L 396.642004 150.61893 
L 397.777717 89.269281 
L 398.467284 62.806114 
L 398.97784 50.922222 
L 399.291376 47.333839 
L 399.526529 46.592471 
L 399.683297 47.042361 
L 399.918449 49.137596 
L 400.231985 54.555707 
L 400.623906 65.398331 
L 401.172594 87.507296 
L 401.930377 128.617694 
L 404.502766 278.774415 
L 405.05931 295.66438 
L 405.430339 301.343467 
L 405.685743 302.466225 
L 405.825521 302.097267 
L 406.035189 300.234721 
L 406.314746 295.330468 
L 406.734081 282.975146 
L 407.293194 258.075669 
L 407.852308 225.484286 
L 407.852308 225.484286 
" clip-path="url(#pd533f47f7f)" style="fill: none; stroke: #0000ff; stroke-linecap: square"/>
   </g>
   <g id="patch_3">
    <path d="M 236.16 307.584 
L 236.16 41.472 
" style="fill: none; stroke: #000000; stroke-width: 0.8; stroke-linejoin: miter; stroke-linecap: square"/>
   </g>
   <g id="patch_4">
    <path d="M 57.6 174.527818 
L 414.72 174.527818 
" style="fill: none; stroke: #000000; stroke-width: 0.8; stroke-linejoin: miter; stroke-linecap: square"/>
   </g>
  </g>
  <g id="axes_2">
   <g id="patch_5">
    <path d="M 109.44 155.52 
L 213.12 155.52 
L 213.12 51.84 
L 109.44 51.84 
z
" style="fill: #ffffff"/>
   </g>
   <g id="matplotlib.axis_3">
    <g id="xtick_34">
     <g id="line2d_56">
      <g>
       <use xlink:href="#m5e78c00dbc" x="111.433846" y="103.68" style="stroke: #000000; stroke-width: 0.8"/>
      </g>
     </g>
     <g id="text_11">
      <!-- −1.0 -->
      <g transform="translate(99.29244 118.278437)scale(0.1 -0.1)">
       <use xlink:href="#DejaVuSans-2212"/>
       <use xlink:href="#DejaVuSans-31" x="83.789062"/>
       <use xlink:href="#DejaVuSans-2e" x="147.412109"/>
       <use xlink:href="#DejaVuSans-30" x="179.199219"/>
      </g>
     </g>
    </g>
    <g id="xtick_35">
     <g id="line2d_57">
      <g>
       <use xlink:href="#m5e78c00dbc" x="136.356923" y="103.68" style="stroke: #000000; stroke-width: 0.8"/>
      </g>
     </g>
     <g id="text_12">
      <!-- −0.5 -->
      <g transform="translate(124.215517 118.278437)scale(0.1 -0.1)">
       <use xlink:href="#DejaVuSans-2212"/>
       <use xlink:href="#DejaVuSans-30" x="83.789062"/>
       <use xlink:href="#DejaVuSans-2e" x="147.412109"/>
       <use xlink:href="#DejaVuSans-35" x="179.199219"/>
      </g>
     </g>
    </g>
    <g id="xtick_36">
     <g id="line2d_58">
      <g>
       <use xlink:href="#m5e78c00dbc" x="161.28" y="103.68" style="stroke: #000000; stroke-width: 0.8"/>
      </g>
     </g>
    </g>
    <g id="xtick_37">
     <g id="line2d_59">
      <g>
       <use xlink:href="#m5e78c00dbc" x="186.203077" y="103.68" style="stroke: #000000; stroke-width: 0.8"/>
      </g>
     </g>
     <g id="text_13">
      <!-- 0.5 -->
      <g transform="translate(178.251514 118.278437)scale(0.1 -0.1)">
       <use xlink:href="#DejaVuSans-30"/>
       <use xlink:href="#DejaVuSans-2e" x="63.623047"/>
       <use xlink:href="#DejaVuSans-35" x="95.410156"/>
      </g>
     </g>
    </g>
    <g id="xtick_38">
     <g id="line2d_60">
      <g>
       <use xlink:href="#m5e78c00dbc" x="211.126154" y="103.68" style="stroke: #000000; stroke-width: 0.8"/>
      </g>
     </g>
     <g id="text_14">
      <!-- 1.0 -->
      <g transform="translate(203.174591 118.278437)scale(0.1 -0.1)">
       <use xlink:href="#DejaVuSans-31"/>
       <use xlink:href="#DejaVuSans-2e" x="63.623047"/>
       <use xlink:href="#DejaVuSans-30" x="95.410156"/>
      </g>
     </g>
    </g>
    <g id="xtick_39">
     <g id="line2d_61">
      <g>
       <use xlink:href="#m1a97fff296" x="116.418462" y="103.68" style="stroke: #000000; stroke-width: 0.6"/>
      </g>
     </g>
    </g>
    <g id="xtick_40">
     <g id="line2d_62">
      <g>
       <use xlink:href="#m1a97fff296" x="121.403077" y="103.68" style="stroke: #000000; stroke-width: 0.6"/>
      </g>
     </g>
    </g>
    <g id="xtick_41">
     <g id="line2d_63">
      <g>
       <use xlink:href="#m1a97fff296" x="126.387692" y="103.68" style="stroke: #000000; stroke-width: 0.6"/>
      </g>
     </g>
    </g>
    <g id="xtick_42">
     <g id="line2d_64">
      <g>
       <use xlink:href="#m1a97fff296" x="131.372308" y="103.68" style="stroke: #000000; stroke-width: 0.6"/>
      </g>
     </g>
    </g>
    <g id="xtick_43">
     <g id="line2d_65">
      <g>
       <use xlink:href="#m1a97fff296" x="141.341538" y="103.68" style="stroke: #000000; stroke-width: 0.6"/>
      </g>
     </g>
    </g>
    <g id="xtick_44">
     <g id="line2d_66">
      <g>
       <use xlink:href="#m1a97fff296" x="146.326154" y="103.68" style="stroke: #000000; stroke-width: 0.6"/>
      </g>
     </g>
    </g>
    <g id="xtick_45">
     <g id="line2d_67">
      <g>
       <use xlink:href="#m1a97fff296" x="151.310769" y="103.68" style="stroke: #000000; stroke-width: 0.6"/>
      </g>
     </g>
    </g>
    <g id="xtick_46">
     <g id="line2d_68">
      <g>
       <use xlink:href="#m1a97fff296" x="156.295385" y="103.68" style="stroke: #000000; stroke-width: 0.6"/>
      </g>
     </g>
    </g>
    <g id="xtick_47">
     <g id="line2d_69">
      <g>
       <use xlink:href="#m1a97fff296" x="166.264615" y="103.68" style="stroke: #000000; stroke-width: 0.6"/>
      </g>
     </g>
    </g>
    <g id="xtick_48">
     <g id="line2d_70">
      <g>
       <use xlink:href="#m1a97fff296" x="171.249231" y="103.68" style="stroke: #000000; stroke-width: 0.6"/>
      </g>
     </g>
    </g>
    <g id="xtick_49">
     <g id="line2d_71">
      <g>
       <use xlink:href="#m1a97fff296" x="176.233846" y="103.68" style="stroke: #000000; stroke-width: 0.6"/>
      </g>
     </g>
    </g>
    <g id="xtick_50">
     <g id="line2d_72">
      <g>
       <use xlink:href="#m1a97fff296" x="181.218462" y="103.68" style="stroke: #000000; stroke-width: 0.6"/>
      </g>
     </g>
    </g>
    <g id="xtick_51">
     <g id="line2d_73">
      <g>
       <use xlink:href="#m1a97fff296" x="191.187692" y="103.68" style="stroke: #000000; stroke-width: 0.6"/>
      </g>
     </g>
    </g>
    <g id="xtick_52">
     <g id="line2d_74">
      <g>
       <use xlink:href="#m1a97fff296" x="196.172308" y="103.68" style="stroke: #000000; stroke-width: 0.6"/>
      </g>
     </g>
    </g>
    <g id="xtick_53">
     <g id="line2d_75">
      <g>
       <use xlink:href="#m1a97fff296" x="201.156923" y="103.68" style="stroke: #000000; stroke-width: 0.6"/>
      </g>
     </g>
    </g>
    <g id="xtick_54">
     <g id="line2d_76">
      <g>
       <use xlink:href="#m1a97fff296" x="206.141538" y="103.68" style="stroke: #000000; stroke-width: 0.6"/>
      </g>
     </g>
    </g>
   </g>
   <g id="matplotlib.axis_4">
    <g id="ytick_22">
     <g id="line2d_77">
      <g>
       <use xlink:href="#mef837279a5" x="161.28" y="153.526154" style="stroke: #000000; stroke-width: 0.8"/>
      </g>
     </g>
     <g id="text_15">
      <!-- −1.0 -->
      <g transform="translate(129.997187 157.325373)scale(0.1 -0.1)">
       <use xlink:href="#DejaVuSans-2212"/>
       <use xlink:href="#DejaVuSans-31" x="83.789062"/>
       <use xlink:href="#DejaVuSans-2e" x="147.412109"/>
       <use xlink:href="#DejaVuSans-30" x="179.199219"/>
      </g>
     </g>
    </g>
    <g id="ytick_23">
     <g id="line2d_78">
      <g>
       <use xlink:href="#mef837279a5" x="161.28" y="128.603077" style="stroke: #000000; stroke-width: 0.8"/>
      </g>
     </g>
     <g id="text_16">
      <!-- −0.5 -->
      <g transform="translate(129.997187 132.402296)scale(0.1 -0.1)">
       <use xlink:href="#DejaVuSans-2212"/>
       <use xlink:href="#DejaVuSans-30" x="83.789062"/>
       <use xlink:href="#DejaVuSans-2e" x="147.412109"/>
       <use xlink:href="#DejaVuSans-35" x="179.199219"/>
      </g>
     </g>
    </g>
    <g id="ytick_24">
     <g id="line2d_79">
      <g>
       <use xlink:href="#mef837279a5" x="161.28" y="103.68" style="stroke: #000000; stroke-width: 0.8"/>
      </g>
     </g>
    </g>
    <g id="ytick_25">
     <g id="line2d_80">
      <g>
       <use xlink:href="#mef837279a5" x="161.28" y="78.756923" style="stroke: #000000; stroke-width: 0.8"/>
      </g>
     </g>
     <g id="text_17">
      <!-- 0.5 -->
      <g transform="translate(138.376875 82.556142)scale(0.1 -0.1)">
       <use xlink:href="#DejaVuSans-30"/>
       <use xlink:href="#DejaVuSans-2e" x="63.623047"/>
       <use xlink:href="#DejaVuSans-35" x="95.410156"/>
      </g>
     </g>
    </g>
    <g id="ytick_26">
     <g id="line2d_81">
      <g>
       <use xlink:href="#mef837279a5" x="161.28" y="53.833846" style="stroke: #000000; stroke-width: 0.8"/>
      </g>
     </g>
     <g id="text_18">
      <!-- 1.0 -->
      <g transform="translate(138.376875 57.633065)scale(0.1 -0.1)">
       <use xlink:href="#DejaVuSans-31"/>
       <use xlink:href="#DejaVuSans-2e" x="63.623047"/>
       <use xlink:href="#DejaVuSans-30" x="95.410156"/>
      </g>
     </g>
    </g>
    <g id="ytick_27">
     <g id="line2d_82">
      <g>
       <use xlink:href="#m0451372b66" x="161.28" y="148.541538" style="stroke: #000000; stroke-width: 0.6"/>
      </g>
     </g>
    </g>
    <g id="ytick_28">
     <g id="line2d_83">
      <g>
       <use xlink:href="#m0451372b66" x="161.28" y="143.556923" style="stroke: #000000; stroke-width: 0.6"/>
      </g>
     </g>
    </g>
    <g id="ytick_29">
     <g id="line2d_84">
      <g>
       <use xlink:href="#m0451372b66" x="161.28" y="138.572308" style="stroke: #000000; stroke-width: 0.6"/>
      </g>
     </g>
    </g>
    <g id="ytick_30">
     <g id="line2d_85">
      <g>
       <use xlink:href="#m0451372b66" x="161.28" y="133.587692" style="stroke: #000000; stroke-width: 0.6"/>
      </g>
     </g>
    </g>
    <g id="ytick_31">
     <g id="line2d_86">
      <g>
       <use xlink:href="#m0451372b66" x="161.28" y="123.618462" style="stroke: #000000; stroke-width: 0.6"/>
      </g>
     </g>
    </g>
    <g id="ytick_32">
     <g id="line2d_87">
      <g>
       <use xlink:href="#m0451372b66" x="161.28" y="118.633846" style="stroke: #000000; stroke-width: 0.6"/>
      </g>
     </g>
    </g>
    <g id="ytick_33">
     <g id="line2d_88">
      <g>
       <use xlink:href="#m0451372b66" x="161.28" y="113.649231" style="stroke: #000000; stroke-width: 0.6"/>
      </g>
     </g>
    </g>
    <g id="ytick_34">
     <g id="line2d_89">
      <g>
       <use xlink:href="#m0451372b66" x="161.28" y="108.664615" style="stroke: #000000; stroke-width: 0.6"/>
      </g>
     </g>
    </g>
    <g id="ytick_35">
     <g id="line2d_90">
      <g>
       <use xlink:href="#m0451372b66" x="161.28" y="98.695385" style="stroke: #000000; stroke-width: 0.6"/>
      </g>
     </g>
    </g>
    <g id="ytick_36">
     <g id="line2d_91">
      <g>
       <use xlink:href="#m0451372b66" x="161.28" y="93.710769" style="stroke: #000000; stroke-width: 0.6"/>
      </g>
     </g>
    </g>
    <g id="ytick_37">
     <g id="line2d_92">
      <g>
       <use xlink:href="#m0451372b66" x="161.28" y="88.726154" style="stroke: #000000; stroke-width: 0.6"/>
      </g>
     </g>
    </g>
    <g id="ytick_38">
     <g id="line2d_93">
      <g>
       <use xlink:href="#m0451372b66" x="161.28" y="83.741538" style="stroke: #000000; stroke-width: 0.6"/>
      </g>
     </g>
    </g>
    <g id="ytick_39">
     <g id="line2d_94">
      <g>
       <use xlink:href="#m0451372b66" x="161.28" y="73.772308" style="stroke: #000000; stroke-width: 0.6"/>
      </g>
     </g>
    </g>
    <g id="ytick_40">
     <g id="line2d_95">
      <g>
       <use xlink:href="#m0451372b66" x="161.28" y="68.787692" style="stroke: #000000; stroke-width: 0.6"/>
      </g>
     </g>
    </g>
    <g id="ytick_41">
     <g id="line2d_96">
      <g>
       <use xlink:href="#m0451372b66" x="161.28" y="63.803077" style="stroke: #000000; stroke-width: 0.6"/>
      </g>
     </g>
    </g>
    <g id="ytick_42">
     <g id="line2d_97">
      <g>
       <use xlink:href="#m0451372b66" x="161.28" y="58.818462" style="stroke: #000000; stroke-width: 0.6"/>
      </g>
     </g>
    </g>
   </g>
   <g id="patch_6">
    <path d="M 161.28 155.52 
L 161.28 51.84 
" style="fill: none; stroke: #000000; stroke-width: 0.8; stroke-linejoin: miter; stroke-linecap: square"/>
   </g>
   <g id="patch_7">
    <path d="M 109.44 103.68 
L 213.12 103.68 
" style="fill: none; stroke: #000000; stroke-width: 0.8; stroke-linejoin: miter; stroke-linecap: square"/>
   </g>
   <g id="patch_8">
    <path d="M 161.28 153.526154 
C 174.499355 153.526154 187.179058 148.274049 196.526553 138.926553 
C 205.874049 129.579058 211.126154 116.899355 211.126154 103.68 
C 211.126154 90.460645 205.874049 77.780942 196.526553 68.433447 
C 187.179058 59.085951 174.499355 53.833846 161.28 53.833846 
C 148.060645 53.833846 135.380942 59.085951 126.033447 68.433447 
C 116.685951 77.780942 111.433846 90.460645 111.433846 103.68 
C 111.433846 116.899355 116.685951 129.579058 126.033447 138.926553 
C 135.380942 148.274049 148.060645 153.526154 161.28 153.526154 
L 161.28 153.526154 
z
" clip-path="url(#pb738a7a0d4)" style="fill: none; stroke: #ff0000; stroke-linejoin: miter"/>
   </g>
  </g>
 </g>
 <defs>
  <clipPath id="pd533f47f7f">
   <rect x="57.6" y="41.472" width="357.12" height="266.112"/>
  </clipPath>
  <clipPath id="pb738a7a0d4">
   <rect x="109.44" y="51.84" width="103.68" height="103.68"/>
  </clipPath>
 </defs>
</svg>
