<?xml version="1.0" encoding="utf-8" standalone="no"?>
<!DOCTYPE svg PUBLIC "-//W3C//DTD SVG 1.1//EN"
  "http://www.w3.org/Graphics/SVG/1.1/DTD/svg11.dtd">
<!-- Created with matplotlib (http://matplotlib.org/) -->
<svg height="345.6pt" version="1.1" viewBox="0 0 460.8 345.6" width="460.8pt" xmlns="http://www.w3.org/2000/svg" xmlns:xlink="http://www.w3.org/1999/xlink">
 <defs>
  <style type="text/css">
*{stroke-linecap:butt;stroke-linejoin:round;}
  </style>
 </defs>
 <g id="figure_1">
  <g id="patch_1">
   <path d="M 0 345.6 
L 460.8 345.6 
L 460.8 0 
L 0 0 
z
" style="fill:#ffffff;"/>
  </g>
  <g id="axes_1">
   <g id="patch_2">
    <path d="M 34.028322 332.28 
L 222.48 332.28 
L 222.48 13.32 
L 34.028322 13.32 
z
" style="fill:#ffffff;"/>
   </g>
   <g id="matplotlib.axis_1">
    <g id="xtick_1">
     <g id="line2d_1">
      <defs>
       <path d="M 0 0 
L 0 3.5 
" id="m0662a7d29c" style="stroke:#000000;stroke-width:0.8;"/>
      </defs>
      <g>
       <use style="stroke:#000000;stroke-width:0.8;" x="37.652392" xlink:href="#m0662a7d29c" y="172.796868"/>
      </g>
     </g>
    </g>
    <g id="xtick_2">
     <g id="line2d_2">
      <g>
       <use style="stroke:#000000;stroke-width:0.8;" x="66.491831" xlink:href="#m0662a7d29c" y="172.796868"/>
      </g>
     </g>
     <g id="text_1">
      <!-- 1 -->
      <defs>
       <path d="M 12.40625 8.296875 
L 28.515625 8.296875 
L 28.515625 63.921875 
L 10.984375 60.40625 
L 10.984375 69.390625 
L 28.421875 72.90625 
L 38.28125 72.90625 
L 38.28125 8.296875 
L 54.390625 8.296875 
L 54.390625 0 
L 12.40625 0 
z
" id="DejaVuSans-31"/>
      </defs>
      <g transform="translate(63.310581 187.395306)scale(0.1 -0.1)">
       <use xlink:href="#DejaVuSans-31"/>
      </g>
     </g>
    </g>
    <g id="xtick_3">
     <g id="line2d_3">
      <g>
       <use style="stroke:#000000;stroke-width:0.8;" x="95.33127" xlink:href="#m0662a7d29c" y="172.796868"/>
      </g>
     </g>
     <g id="text_2">
      <!-- 2 -->
      <defs>
       <path d="M 19.1875 8.296875 
L 53.609375 8.296875 
L 53.609375 0 
L 7.328125 0 
L 7.328125 8.296875 
Q 12.9375 14.109375 22.625 23.890625 
Q 32.328125 33.6875 34.8125 36.53125 
Q 39.546875 41.84375 41.421875 45.53125 
Q 43.3125 49.21875 43.3125 52.78125 
Q 43.3125 58.59375 39.234375 62.25 
Q 35.15625 65.921875 28.609375 65.921875 
Q 23.96875 65.921875 18.8125 64.3125 
Q 13.671875 62.703125 7.8125 59.421875 
L 7.8125 69.390625 
Q 13.765625 71.78125 18.9375 73 
Q 24.125 74.21875 28.421875 74.21875 
Q 39.75 74.21875 46.484375 68.546875 
Q 53.21875 62.890625 53.21875 53.421875 
Q 53.21875 48.921875 51.53125 44.890625 
Q 49.859375 40.875 45.40625 35.40625 
Q 44.1875 33.984375 37.640625 27.21875 
Q 31.109375 20.453125 19.1875 8.296875 
z
" id="DejaVuSans-32"/>
      </defs>
      <g transform="translate(92.15002 187.395306)scale(0.1 -0.1)">
       <use xlink:href="#DejaVuSans-32"/>
      </g>
     </g>
    </g>
    <g id="xtick_4">
     <g id="line2d_4">
      <g>
       <use style="stroke:#000000;stroke-width:0.8;" x="124.170708" xlink:href="#m0662a7d29c" y="172.796868"/>
      </g>
     </g>
     <g id="text_3">
      <!-- 3 -->
      <defs>
       <path d="M 40.578125 39.3125 
Q 47.65625 37.796875 51.625 33 
Q 55.609375 28.21875 55.609375 21.1875 
Q 55.609375 10.40625 48.1875 4.484375 
Q 40.765625 -1.421875 27.09375 -1.421875 
Q 22.515625 -1.421875 17.65625 -0.515625 
Q 12.796875 0.390625 7.625 2.203125 
L 7.625 11.71875 
Q 11.71875 9.328125 16.59375 8.109375 
Q 21.484375 6.890625 26.8125 6.890625 
Q 36.078125 6.890625 40.9375 10.546875 
Q 45.796875 14.203125 45.796875 21.1875 
Q 45.796875 27.640625 41.28125 31.265625 
Q 36.765625 34.90625 28.71875 34.90625 
L 20.21875 34.90625 
L 20.21875 43.015625 
L 29.109375 43.015625 
Q 36.375 43.015625 40.234375 45.921875 
Q 44.09375 48.828125 44.09375 54.296875 
Q 44.09375 59.90625 40.109375 62.90625 
Q 36.140625 65.921875 28.71875 65.921875 
Q 24.65625 65.921875 20.015625 65.03125 
Q 15.375 64.15625 9.8125 62.3125 
L 9.8125 71.09375 
Q 15.4375 72.65625 20.34375 73.4375 
Q 25.25 74.21875 29.59375 74.21875 
Q 40.828125 74.21875 47.359375 69.109375 
Q 53.90625 64.015625 53.90625 55.328125 
Q 53.90625 49.265625 50.4375 45.09375 
Q 46.96875 40.921875 40.578125 39.3125 
z
" id="DejaVuSans-33"/>
      </defs>
      <g transform="translate(120.989458 187.395306)scale(0.1 -0.1)">
       <use xlink:href="#DejaVuSans-33"/>
      </g>
     </g>
    </g>
    <g id="xtick_5">
     <g id="line2d_5">
      <g>
       <use style="stroke:#000000;stroke-width:0.8;" x="153.010147" xlink:href="#m0662a7d29c" y="172.796868"/>
      </g>
     </g>
     <g id="text_4">
      <!-- 4 -->
      <defs>
       <path d="M 37.796875 64.3125 
L 12.890625 25.390625 
L 37.796875 25.390625 
z
M 35.203125 72.90625 
L 47.609375 72.90625 
L 47.609375 25.390625 
L 58.015625 25.390625 
L 58.015625 17.1875 
L 47.609375 17.1875 
L 47.609375 0 
L 37.796875 0 
L 37.796875 17.1875 
L 4.890625 17.1875 
L 4.890625 26.703125 
z
" id="DejaVuSans-34"/>
      </defs>
      <g transform="translate(149.828897 187.395306)scale(0.1 -0.1)">
       <use xlink:href="#DejaVuSans-34"/>
      </g>
     </g>
    </g>
    <g id="xtick_6">
     <g id="line2d_6">
      <g>
       <use style="stroke:#000000;stroke-width:0.8;" x="181.849585" xlink:href="#m0662a7d29c" y="172.796868"/>
      </g>
     </g>
     <g id="text_5">
      <!-- 5 -->
      <defs>
       <path d="M 10.796875 72.90625 
L 49.515625 72.90625 
L 49.515625 64.59375 
L 19.828125 64.59375 
L 19.828125 46.734375 
Q 21.96875 47.46875 24.109375 47.828125 
Q 26.265625 48.1875 28.421875 48.1875 
Q 40.625 48.1875 47.75 41.5 
Q 54.890625 34.8125 54.890625 23.390625 
Q 54.890625 11.625 47.5625 5.09375 
Q 40.234375 -1.421875 26.90625 -1.421875 
Q 22.3125 -1.421875 17.546875 -0.640625 
Q 12.796875 0.140625 7.71875 1.703125 
L 7.71875 11.625 
Q 12.109375 9.234375 16.796875 8.0625 
Q 21.484375 6.890625 26.703125 6.890625 
Q 35.15625 6.890625 40.078125 11.328125 
Q 45.015625 15.765625 45.015625 23.390625 
Q 45.015625 31 40.078125 35.4375 
Q 35.15625 39.890625 26.703125 39.890625 
Q 22.75 39.890625 18.8125 39.015625 
Q 14.890625 38.140625 10.796875 36.28125 
z
" id="DejaVuSans-35"/>
      </defs>
      <g transform="translate(178.668335 187.395306)scale(0.1 -0.1)">
       <use xlink:href="#DejaVuSans-35"/>
      </g>
     </g>
    </g>
    <g id="xtick_7">
     <g id="line2d_7">
      <g>
       <use style="stroke:#000000;stroke-width:0.8;" x="210.689024" xlink:href="#m0662a7d29c" y="172.796868"/>
      </g>
     </g>
     <g id="text_6">
      <!-- 6 -->
      <defs>
       <path d="M 33.015625 40.375 
Q 26.375 40.375 22.484375 35.828125 
Q 18.609375 31.296875 18.609375 23.390625 
Q 18.609375 15.53125 22.484375 10.953125 
Q 26.375 6.390625 33.015625 6.390625 
Q 39.65625 6.390625 43.53125 10.953125 
Q 47.40625 15.53125 47.40625 23.390625 
Q 47.40625 31.296875 43.53125 35.828125 
Q 39.65625 40.375 33.015625 40.375 
z
M 52.59375 71.296875 
L 52.59375 62.3125 
Q 48.875 64.0625 45.09375 64.984375 
Q 41.3125 65.921875 37.59375 65.921875 
Q 27.828125 65.921875 22.671875 59.328125 
Q 17.53125 52.734375 16.796875 39.40625 
Q 19.671875 43.65625 24.015625 45.921875 
Q 28.375 48.1875 33.59375 48.1875 
Q 44.578125 48.1875 50.953125 41.515625 
Q 57.328125 34.859375 57.328125 23.390625 
Q 57.328125 12.15625 50.6875 5.359375 
Q 44.046875 -1.421875 33.015625 -1.421875 
Q 20.359375 -1.421875 13.671875 8.265625 
Q 6.984375 17.96875 6.984375 36.375 
Q 6.984375 53.65625 15.1875 63.9375 
Q 23.390625 74.21875 37.203125 74.21875 
Q 40.921875 74.21875 44.703125 73.484375 
Q 48.484375 72.75 52.59375 71.296875 
z
" id="DejaVuSans-36"/>
      </defs>
      <g transform="translate(207.507774 187.395306)scale(0.1 -0.1)">
       <use xlink:href="#DejaVuSans-36"/>
      </g>
     </g>
    </g>
    <g id="xtick_8">
     <g id="line2d_8">
      <defs>
       <path d="M 0 0 
L 0 2 
" id="maa66882f74" style="stroke:#000000;stroke-width:0.6;"/>
      </defs>
      <g>
       <use style="stroke:#000000;stroke-width:0.6;" x="43.42028" xlink:href="#maa66882f74" y="172.796868"/>
      </g>
     </g>
    </g>
    <g id="xtick_9">
     <g id="line2d_9">
      <g>
       <use style="stroke:#000000;stroke-width:0.6;" x="49.188168" xlink:href="#maa66882f74" y="172.796868"/>
      </g>
     </g>
    </g>
    <g id="xtick_10">
     <g id="line2d_10">
      <g>
       <use style="stroke:#000000;stroke-width:0.6;" x="54.956056" xlink:href="#maa66882f74" y="172.796868"/>
      </g>
     </g>
    </g>
    <g id="xtick_11">
     <g id="line2d_11">
      <g>
       <use style="stroke:#000000;stroke-width:0.6;" x="60.723943" xlink:href="#maa66882f74" y="172.796868"/>
      </g>
     </g>
    </g>
    <g id="xtick_12">
     <g id="line2d_12">
      <g>
       <use style="stroke:#000000;stroke-width:0.6;" x="72.259719" xlink:href="#maa66882f74" y="172.796868"/>
      </g>
     </g>
    </g>
    <g id="xtick_13">
     <g id="line2d_13">
      <g>
       <use style="stroke:#000000;stroke-width:0.6;" x="78.027606" xlink:href="#maa66882f74" y="172.796868"/>
      </g>
     </g>
    </g>
    <g id="xtick_14">
     <g id="line2d_14">
      <g>
       <use style="stroke:#000000;stroke-width:0.6;" x="83.795494" xlink:href="#maa66882f74" y="172.796868"/>
      </g>
     </g>
    </g>
    <g id="xtick_15">
     <g id="line2d_15">
      <g>
       <use style="stroke:#000000;stroke-width:0.6;" x="89.563382" xlink:href="#maa66882f74" y="172.796868"/>
      </g>
     </g>
    </g>
    <g id="xtick_16">
     <g id="line2d_16">
      <g>
       <use style="stroke:#000000;stroke-width:0.6;" x="101.099157" xlink:href="#maa66882f74" y="172.796868"/>
      </g>
     </g>
    </g>
    <g id="xtick_17">
     <g id="line2d_17">
      <g>
       <use style="stroke:#000000;stroke-width:0.6;" x="106.867045" xlink:href="#maa66882f74" y="172.796868"/>
      </g>
     </g>
    </g>
    <g id="xtick_18">
     <g id="line2d_18">
      <g>
       <use style="stroke:#000000;stroke-width:0.6;" x="112.634933" xlink:href="#maa66882f74" y="172.796868"/>
      </g>
     </g>
    </g>
    <g id="xtick_19">
     <g id="line2d_19">
      <g>
       <use style="stroke:#000000;stroke-width:0.6;" x="118.40282" xlink:href="#maa66882f74" y="172.796868"/>
      </g>
     </g>
    </g>
    <g id="xtick_20">
     <g id="line2d_20">
      <g>
       <use style="stroke:#000000;stroke-width:0.6;" x="129.938596" xlink:href="#maa66882f74" y="172.796868"/>
      </g>
     </g>
    </g>
    <g id="xtick_21">
     <g id="line2d_21">
      <g>
       <use style="stroke:#000000;stroke-width:0.6;" x="135.706484" xlink:href="#maa66882f74" y="172.796868"/>
      </g>
     </g>
    </g>
    <g id="xtick_22">
     <g id="line2d_22">
      <g>
       <use style="stroke:#000000;stroke-width:0.6;" x="141.474371" xlink:href="#maa66882f74" y="172.796868"/>
      </g>
     </g>
    </g>
    <g id="xtick_23">
     <g id="line2d_23">
      <g>
       <use style="stroke:#000000;stroke-width:0.6;" x="147.242259" xlink:href="#maa66882f74" y="172.796868"/>
      </g>
     </g>
    </g>
    <g id="xtick_24">
     <g id="line2d_24">
      <g>
       <use style="stroke:#000000;stroke-width:0.6;" x="158.778035" xlink:href="#maa66882f74" y="172.796868"/>
      </g>
     </g>
    </g>
    <g id="xtick_25">
     <g id="line2d_25">
      <g>
       <use style="stroke:#000000;stroke-width:0.6;" x="164.545922" xlink:href="#maa66882f74" y="172.796868"/>
      </g>
     </g>
    </g>
    <g id="xtick_26">
     <g id="line2d_26">
      <g>
       <use style="stroke:#000000;stroke-width:0.6;" x="170.31381" xlink:href="#maa66882f74" y="172.796868"/>
      </g>
     </g>
    </g>
    <g id="xtick_27">
     <g id="line2d_27">
      <g>
       <use style="stroke:#000000;stroke-width:0.6;" x="176.081698" xlink:href="#maa66882f74" y="172.796868"/>
      </g>
     </g>
    </g>
    <g id="xtick_28">
     <g id="line2d_28">
      <g>
       <use style="stroke:#000000;stroke-width:0.6;" x="187.617473" xlink:href="#maa66882f74" y="172.796868"/>
      </g>
     </g>
    </g>
    <g id="xtick_29">
     <g id="line2d_29">
      <g>
       <use style="stroke:#000000;stroke-width:0.6;" x="193.385361" xlink:href="#maa66882f74" y="172.796868"/>
      </g>
     </g>
    </g>
    <g id="xtick_30">
     <g id="line2d_30">
      <g>
       <use style="stroke:#000000;stroke-width:0.6;" x="199.153249" xlink:href="#maa66882f74" y="172.796868"/>
      </g>
     </g>
    </g>
    <g id="xtick_31">
     <g id="line2d_31">
      <g>
       <use style="stroke:#000000;stroke-width:0.6;" x="204.921136" xlink:href="#maa66882f74" y="172.796868"/>
      </g>
     </g>
    </g>
    <g id="xtick_32">
     <g id="line2d_32">
      <g>
       <use style="stroke:#000000;stroke-width:0.6;" x="216.456912" xlink:href="#maa66882f74" y="172.796868"/>
      </g>
     </g>
    </g>
    <g id="xtick_33">
     <g id="line2d_33">
      <g>
       <use style="stroke:#000000;stroke-width:0.6;" x="222.224799" xlink:href="#maa66882f74" y="172.796868"/>
      </g>
     </g>
    </g>
   </g>
   <g id="matplotlib.axis_2">
    <g id="ytick_1">
     <g id="line2d_34">
      <defs>
       <path d="M 0 0 
L -3.5 0 
" id="md49254aa41" style="stroke:#000000;stroke-width:0.8;"/>
      </defs>
      <g>
       <use style="stroke:#000000;stroke-width:0.8;" x="37.652392" xlink:href="#md49254aa41" y="326.14644"/>
      </g>
     </g>
     <g id="text_7">
      <!-- -1 -->
      <defs>
       <path d="M 4.890625 31.390625 
L 31.203125 31.390625 
L 31.203125 23.390625 
L 4.890625 23.390625 
z
" id="DejaVuSans-2d"/>
      </defs>
      <g transform="translate(20.68208 329.945659)scale(0.1 -0.1)">
       <use xlink:href="#DejaVuSans-2d"/>
       <use x="36.083984" xlink:href="#DejaVuSans-31"/>
      </g>
     </g>
    </g>
    <g id="ytick_2">
     <g id="line2d_35">
      <g>
       <use style="stroke:#000000;stroke-width:0.8;" x="37.652392" xlink:href="#md49254aa41" y="249.471654"/>
      </g>
     </g>
     <g id="text_8">
      <!-- -0.5 -->
      <defs>
       <path d="M 31.78125 66.40625 
Q 24.171875 66.40625 20.328125 58.90625 
Q 16.5 51.421875 16.5 36.375 
Q 16.5 21.390625 20.328125 13.890625 
Q 24.171875 6.390625 31.78125 6.390625 
Q 39.453125 6.390625 43.28125 13.890625 
Q 47.125 21.390625 47.125 36.375 
Q 47.125 51.421875 43.28125 58.90625 
Q 39.453125 66.40625 31.78125 66.40625 
z
M 31.78125 74.21875 
Q 44.046875 74.21875 50.515625 64.515625 
Q 56.984375 54.828125 56.984375 36.375 
Q 56.984375 17.96875 50.515625 8.265625 
Q 44.046875 -1.421875 31.78125 -1.421875 
Q 19.53125 -1.421875 13.0625 8.265625 
Q 6.59375 17.96875 6.59375 36.375 
Q 6.59375 54.828125 13.0625 64.515625 
Q 19.53125 74.21875 31.78125 74.21875 
z
" id="DejaVuSans-30"/>
       <path d="M 10.6875 12.40625 
L 21 12.40625 
L 21 0 
L 10.6875 0 
z
" id="DejaVuSans-2e"/>
      </defs>
      <g transform="translate(11.141455 253.270873)scale(0.1 -0.1)">
       <use xlink:href="#DejaVuSans-2d"/>
       <use x="36.083984" xlink:href="#DejaVuSans-30"/>
       <use x="99.707031" xlink:href="#DejaVuSans-2e"/>
       <use x="131.494141" xlink:href="#DejaVuSans-35"/>
      </g>
     </g>
    </g>
    <g id="ytick_3">
     <g id="line2d_36">
      <g>
       <use style="stroke:#000000;stroke-width:0.8;" x="37.652392" xlink:href="#md49254aa41" y="172.796868"/>
      </g>
     </g>
    </g>
    <g id="ytick_4">
     <g id="line2d_37">
      <g>
       <use style="stroke:#000000;stroke-width:0.8;" x="37.652392" xlink:href="#md49254aa41" y="96.122082"/>
      </g>
     </g>
     <g id="text_9">
      <!-- 0.5 -->
      <g transform="translate(14.749267 99.921301)scale(0.1 -0.1)">
       <use xlink:href="#DejaVuSans-30"/>
       <use x="63.623047" xlink:href="#DejaVuSans-2e"/>
       <use x="95.410156" xlink:href="#DejaVuSans-35"/>
      </g>
     </g>
    </g>
    <g id="ytick_5">
     <g id="line2d_38">
      <g>
       <use style="stroke:#000000;stroke-width:0.8;" x="37.652392" xlink:href="#md49254aa41" y="19.447296"/>
      </g>
     </g>
     <g id="text_10">
      <!-- 1 -->
      <g transform="translate(24.289892 23.246515)scale(0.1 -0.1)">
       <use xlink:href="#DejaVuSans-31"/>
      </g>
     </g>
    </g>
    <g id="ytick_6">
     <g id="line2d_39">
      <defs>
       <path d="M 0 0 
L -2 0 
" id="m2d3f20dc75" style="stroke:#000000;stroke-width:0.6;"/>
      </defs>
      <g>
       <use style="stroke:#000000;stroke-width:0.6;" x="37.652392" xlink:href="#m2d3f20dc75" y="310.811483"/>
      </g>
     </g>
    </g>
    <g id="ytick_7">
     <g id="line2d_40">
      <g>
       <use style="stroke:#000000;stroke-width:0.6;" x="37.652392" xlink:href="#m2d3f20dc75" y="295.476526"/>
      </g>
     </g>
    </g>
    <g id="ytick_8">
     <g id="line2d_41">
      <g>
       <use style="stroke:#000000;stroke-width:0.6;" x="37.652392" xlink:href="#m2d3f20dc75" y="280.141569"/>
      </g>
     </g>
    </g>
    <g id="ytick_9">
     <g id="line2d_42">
      <g>
       <use style="stroke:#000000;stroke-width:0.6;" x="37.652392" xlink:href="#m2d3f20dc75" y="264.806611"/>
      </g>
     </g>
    </g>
    <g id="ytick_10">
     <g id="line2d_43">
      <g>
       <use style="stroke:#000000;stroke-width:0.6;" x="37.652392" xlink:href="#m2d3f20dc75" y="234.136697"/>
      </g>
     </g>
    </g>
    <g id="ytick_11">
     <g id="line2d_44">
      <g>
       <use style="stroke:#000000;stroke-width:0.6;" x="37.652392" xlink:href="#m2d3f20dc75" y="218.80174"/>
      </g>
     </g>
    </g>
    <g id="ytick_12">
     <g id="line2d_45">
      <g>
       <use style="stroke:#000000;stroke-width:0.6;" x="37.652392" xlink:href="#m2d3f20dc75" y="203.466783"/>
      </g>
     </g>
    </g>
    <g id="ytick_13">
     <g id="line2d_46">
      <g>
       <use style="stroke:#000000;stroke-width:0.6;" x="37.652392" xlink:href="#m2d3f20dc75" y="188.131825"/>
      </g>
     </g>
    </g>
    <g id="ytick_14">
     <g id="line2d_47">
      <g>
       <use style="stroke:#000000;stroke-width:0.6;" x="37.652392" xlink:href="#m2d3f20dc75" y="157.461911"/>
      </g>
     </g>
    </g>
    <g id="ytick_15">
     <g id="line2d_48">
      <g>
       <use style="stroke:#000000;stroke-width:0.6;" x="37.652392" xlink:href="#m2d3f20dc75" y="142.126954"/>
      </g>
     </g>
    </g>
    <g id="ytick_16">
     <g id="line2d_49">
      <g>
       <use style="stroke:#000000;stroke-width:0.6;" x="37.652392" xlink:href="#m2d3f20dc75" y="126.791997"/>
      </g>
     </g>
    </g>
    <g id="ytick_17">
     <g id="line2d_50">
      <g>
       <use style="stroke:#000000;stroke-width:0.6;" x="37.652392" xlink:href="#m2d3f20dc75" y="111.457039"/>
      </g>
     </g>
    </g>
    <g id="ytick_18">
     <g id="line2d_51">
      <g>
       <use style="stroke:#000000;stroke-width:0.6;" x="37.652392" xlink:href="#m2d3f20dc75" y="80.787125"/>
      </g>
     </g>
    </g>
    <g id="ytick_19">
     <g id="line2d_52">
      <g>
       <use style="stroke:#000000;stroke-width:0.6;" x="37.652392" xlink:href="#m2d3f20dc75" y="65.452168"/>
      </g>
     </g>
    </g>
    <g id="ytick_20">
     <g id="line2d_53">
      <g>
       <use style="stroke:#000000;stroke-width:0.6;" x="37.652392" xlink:href="#m2d3f20dc75" y="50.11721"/>
      </g>
     </g>
    </g>
    <g id="ytick_21">
     <g id="line2d_54">
      <g>
       <use style="stroke:#000000;stroke-width:0.6;" x="37.652392" xlink:href="#m2d3f20dc75" y="34.782253"/>
      </g>
     </g>
    </g>
   </g>
   <g id="line2d_55">
    <path clip-path="url(#p6981577c0a)" d="M 37.652392 172.796868 
L 45.956249 129.24989 
L 49.566348 111.232743 
L 53.53121 92.565381 
L 56.984965 77.526642 
L 59.988784 65.549562 
L 62.092974 57.844687 
L 64.534506 49.673775 
L 66.998298 42.322555 
L 69.064211 36.890033 
L 71.065227 32.292525 
L 72.636212 29.155851 
L 73.952061 26.856181 
L 75.764248 24.187197 
L 77.584446 22.096917 
L 78.385113 21.367087 
L 80.104681 20.194755 
L 81.703765 19.591206 
L 82.195447 19.500238 
L 83.219832 19.453846 
L 84.130551 19.57505 
L 85.614463 20.099707 
L 87.23061 21.130857 
L 88.217759 21.995205 
L 89.659268 23.574417 
L 91.10724 25.535951 
L 92.143487 27.167906 
L 94.264112 31.091083 
L 95.504433 33.742184 
L 97.899446 39.584371 
L 99.554634 44.161133 
L 102.271675 52.584861 
L 104.02607 58.595649 
L 107.057028 69.96204 
L 110.487937 84.190416 
L 113.615247 98.256445 
L 116.785218 113.407212 
L 121.030947 134.788778 
L 128.574407 174.499698 
L 135.817894 212.556435 
L 140.18672 234.451584 
L 143.912306 252.026034 
L 147.040038 265.7722 
L 149.354719 275.250175 
L 152.761508 287.983723 
L 155.285446 296.391159 
L 157.189869 302.111946 
L 158.810983 306.538446 
L 160.142301 309.858287 
L 162.707293 315.425523 
L 164.426518 318.528258 
L 165.610129 320.364026 
L 166.956093 322.149448 
L 168.418052 323.720118 
L 169.272291 324.458617 
L 170.204524 325.112691 
L 171.171899 325.623162 
L 171.990088 325.920716 
L 172.800437 326.093948 
L 174.146324 326.114211 
L 174.884331 325.983571 
L 175.844581 325.663442 
L 177.666234 324.59091 
L 179.546106 322.849402 
L 180.255911 322.025598 
L 182.111444 319.446469 
L 183.935825 316.318902 
L 185.80284 312.523919 
L 187.916358 307.522397 
L 189.429584 303.495419 
L 191.269719 298.114898 
L 194.259829 288.294719 
L 195.991211 282.034055 
L 199.398924 268.584683 
L 203.114453 252.405082 
L 207.25613 232.82742 
L 211.532531 211.320823 
L 218.01123 177.287795 
L 218.855929 172.796868 
L 218.855929 172.796868 
" style="fill:none;stroke:#0000ff;stroke-linecap:square;"/>
   </g>
   <g id="patch_3">
    <path d="M 37.652392 332.28 
L 37.652392 13.32 
" style="fill:none;stroke:#000000;stroke-linecap:square;stroke-linejoin:miter;stroke-width:0.8;"/>
   </g>
   <g id="patch_4">
    <path d="M 34.028322 172.796868 
L 222.48 172.796868 
" style="fill:none;stroke:#000000;stroke-linecap:square;stroke-linejoin:miter;stroke-width:0.8;"/>
   </g>
  </g>
  <g id="axes_2">
   <g id="patch_5">
    <path d="M 259.028322 332.28 
L 447.48 332.28 
L 447.48 13.32 
L 259.028322 13.32 
z
" style="fill:#ffffff;"/>
   </g>
   <g id="matplotlib.axis_3">
    <g id="xtick_34">
     <g id="line2d_56">
      <g>
       <use style="stroke:#000000;stroke-width:0.8;" x="262.652392" xlink:href="#m0662a7d29c" y="172.801377"/>
      </g>
     </g>
    </g>
    <g id="xtick_35">
     <g id="line2d_57">
      <g>
       <use style="stroke:#000000;stroke-width:0.8;" x="291.491831" xlink:href="#m0662a7d29c" y="172.801377"/>
      </g>
     </g>
     <g id="text_11">
      <!-- 1 -->
      <g transform="translate(288.310581 187.399815)scale(0.1 -0.1)">
       <use xlink:href="#DejaVuSans-31"/>
      </g>
     </g>
    </g>
    <g id="xtick_36">
     <g id="line2d_58">
      <g>
       <use style="stroke:#000000;stroke-width:0.8;" x="320.33127" xlink:href="#m0662a7d29c" y="172.801377"/>
      </g>
     </g>
     <g id="text_12">
      <!-- 2 -->
      <g transform="translate(317.15002 187.399815)scale(0.1 -0.1)">
       <use xlink:href="#DejaVuSans-32"/>
      </g>
     </g>
    </g>
    <g id="xtick_37">
     <g id="line2d_59">
      <g>
       <use style="stroke:#000000;stroke-width:0.8;" x="349.170708" xlink:href="#m0662a7d29c" y="172.801377"/>
      </g>
     </g>
     <g id="text_13">
      <!-- 3 -->
      <g transform="translate(345.989458 187.399815)scale(0.1 -0.1)">
       <use xlink:href="#DejaVuSans-33"/>
      </g>
     </g>
    </g>
    <g id="xtick_38">
     <g id="line2d_60">
      <g>
       <use style="stroke:#000000;stroke-width:0.8;" x="378.010147" xlink:href="#m0662a7d29c" y="172.801377"/>
      </g>
     </g>
     <g id="text_14">
      <!-- 4 -->
      <g transform="translate(374.828897 187.399815)scale(0.1 -0.1)">
       <use xlink:href="#DejaVuSans-34"/>
      </g>
     </g>
    </g>
    <g id="xtick_39">
     <g id="line2d_61">
      <g>
       <use style="stroke:#000000;stroke-width:0.8;" x="406.849585" xlink:href="#m0662a7d29c" y="172.801377"/>
      </g>
     </g>
     <g id="text_15">
      <!-- 5 -->
      <g transform="translate(403.668335 187.399815)scale(0.1 -0.1)">
       <use xlink:href="#DejaVuSans-35"/>
      </g>
     </g>
    </g>
    <g id="xtick_40">
     <g id="line2d_62">
      <g>
       <use style="stroke:#000000;stroke-width:0.8;" x="435.689024" xlink:href="#m0662a7d29c" y="172.801377"/>
      </g>
     </g>
     <g id="text_16">
      <!-- 6 -->
      <g transform="translate(432.507774 187.399815)scale(0.1 -0.1)">
       <use xlink:href="#DejaVuSans-36"/>
      </g>
     </g>
    </g>
    <g id="xtick_41">
     <g id="line2d_63">
      <g>
       <use style="stroke:#000000;stroke-width:0.6;" x="268.42028" xlink:href="#maa66882f74" y="172.801377"/>
      </g>
     </g>
    </g>
    <g id="xtick_42">
     <g id="line2d_64">
      <g>
       <use style="stroke:#000000;stroke-width:0.6;" x="274.188168" xlink:href="#maa66882f74" y="172.801377"/>
      </g>
     </g>
    </g>
    <g id="xtick_43">
     <g id="line2d_65">
      <g>
       <use style="stroke:#000000;stroke-width:0.6;" x="279.956056" xlink:href="#maa66882f74" y="172.801377"/>
      </g>
     </g>
    </g>
    <g id="xtick_44">
     <g id="line2d_66">
      <g>
       <use style="stroke:#000000;stroke-width:0.6;" x="285.723943" xlink:href="#maa66882f74" y="172.801377"/>
      </g>
     </g>
    </g>
    <g id="xtick_45">
     <g id="line2d_67">
      <g>
       <use style="stroke:#000000;stroke-width:0.6;" x="297.259719" xlink:href="#maa66882f74" y="172.801377"/>
      </g>
     </g>
    </g>
    <g id="xtick_46">
     <g id="line2d_68">
      <g>
       <use style="stroke:#000000;stroke-width:0.6;" x="303.027606" xlink:href="#maa66882f74" y="172.801377"/>
      </g>
     </g>
    </g>
    <g id="xtick_47">
     <g id="line2d_69">
      <g>
       <use style="stroke:#000000;stroke-width:0.6;" x="308.795494" xlink:href="#maa66882f74" y="172.801377"/>
      </g>
     </g>
    </g>
    <g id="xtick_48">
     <g id="line2d_70">
      <g>
       <use style="stroke:#000000;stroke-width:0.6;" x="314.563382" xlink:href="#maa66882f74" y="172.801377"/>
      </g>
     </g>
    </g>
    <g id="xtick_49">
     <g id="line2d_71">
      <g>
       <use style="stroke:#000000;stroke-width:0.6;" x="326.099157" xlink:href="#maa66882f74" y="172.801377"/>
      </g>
     </g>
    </g>
    <g id="xtick_50">
     <g id="line2d_72">
      <g>
       <use style="stroke:#000000;stroke-width:0.6;" x="331.867045" xlink:href="#maa66882f74" y="172.801377"/>
      </g>
     </g>
    </g>
    <g id="xtick_51">
     <g id="line2d_73">
      <g>
       <use style="stroke:#000000;stroke-width:0.6;" x="337.634933" xlink:href="#maa66882f74" y="172.801377"/>
      </g>
     </g>
    </g>
    <g id="xtick_52">
     <g id="line2d_74">
      <g>
       <use style="stroke:#000000;stroke-width:0.6;" x="343.40282" xlink:href="#maa66882f74" y="172.801377"/>
      </g>
     </g>
    </g>
    <g id="xtick_53">
     <g id="line2d_75">
      <g>
       <use style="stroke:#000000;stroke-width:0.6;" x="354.938596" xlink:href="#maa66882f74" y="172.801377"/>
      </g>
     </g>
    </g>
    <g id="xtick_54">
     <g id="line2d_76">
      <g>
       <use style="stroke:#000000;stroke-width:0.6;" x="360.706484" xlink:href="#maa66882f74" y="172.801377"/>
      </g>
     </g>
    </g>
    <g id="xtick_55">
     <g id="line2d_77">
      <g>
       <use style="stroke:#000000;stroke-width:0.6;" x="366.474371" xlink:href="#maa66882f74" y="172.801377"/>
      </g>
     </g>
    </g>
    <g id="xtick_56">
     <g id="line2d_78">
      <g>
       <use style="stroke:#000000;stroke-width:0.6;" x="372.242259" xlink:href="#maa66882f74" y="172.801377"/>
      </g>
     </g>
    </g>
    <g id="xtick_57">
     <g id="line2d_79">
      <g>
       <use style="stroke:#000000;stroke-width:0.6;" x="383.778035" xlink:href="#maa66882f74" y="172.801377"/>
      </g>
     </g>
    </g>
    <g id="xtick_58">
     <g id="line2d_80">
      <g>
       <use style="stroke:#000000;stroke-width:0.6;" x="389.545922" xlink:href="#maa66882f74" y="172.801377"/>
      </g>
     </g>
    </g>
    <g id="xtick_59">
     <g id="line2d_81">
      <g>
       <use style="stroke:#000000;stroke-width:0.6;" x="395.31381" xlink:href="#maa66882f74" y="172.801377"/>
      </g>
     </g>
    </g>
    <g id="xtick_60">
     <g id="line2d_82">
      <g>
       <use style="stroke:#000000;stroke-width:0.6;" x="401.081698" xlink:href="#maa66882f74" y="172.801377"/>
      </g>
     </g>
    </g>
    <g id="xtick_61">
     <g id="line2d_83">
      <g>
       <use style="stroke:#000000;stroke-width:0.6;" x="412.617473" xlink:href="#maa66882f74" y="172.801377"/>
      </g>
     </g>
    </g>
    <g id="xtick_62">
     <g id="line2d_84">
      <g>
       <use style="stroke:#000000;stroke-width:0.6;" x="418.385361" xlink:href="#maa66882f74" y="172.801377"/>
      </g>
     </g>
    </g>
    <g id="xtick_63">
     <g id="line2d_85">
      <g>
       <use style="stroke:#000000;stroke-width:0.6;" x="424.153249" xlink:href="#maa66882f74" y="172.801377"/>
      </g>
     </g>
    </g>
    <g id="xtick_64">
     <g id="line2d_86">
      <g>
       <use style="stroke:#000000;stroke-width:0.6;" x="429.921136" xlink:href="#maa66882f74" y="172.801377"/>
      </g>
     </g>
    </g>
    <g id="xtick_65">
     <g id="line2d_87">
      <g>
       <use style="stroke:#000000;stroke-width:0.6;" x="441.456912" xlink:href="#maa66882f74" y="172.801377"/>
      </g>
     </g>
    </g>
    <g id="xtick_66">
     <g id="line2d_88">
      <g>
       <use style="stroke:#000000;stroke-width:0.6;" x="447.224799" xlink:href="#maa66882f74" y="172.801377"/>
      </g>
     </g>
    </g>
   </g>
   <g id="matplotlib.axis_4">
    <g id="ytick_22">
     <g id="line2d_89">
      <g>
       <use style="stroke:#000000;stroke-width:0.8;" x="262.652392" xlink:href="#md49254aa41" y="326.148908"/>
      </g>
     </g>
     <g id="text_17">
      <!-- -1 -->
      <g transform="translate(245.68208 329.948127)scale(0.1 -0.1)">
       <use xlink:href="#DejaVuSans-2d"/>
       <use x="36.083984" xlink:href="#DejaVuSans-31"/>
      </g>
     </g>
    </g>
    <g id="ytick_23">
     <g id="line2d_90">
      <g>
       <use style="stroke:#000000;stroke-width:0.8;" x="262.652392" xlink:href="#md49254aa41" y="249.475143"/>
      </g>
     </g>
     <g id="text_18">
      <!-- -0.5 -->
      <g transform="translate(236.141455 253.274362)scale(0.1 -0.1)">
       <use xlink:href="#DejaVuSans-2d"/>
       <use x="36.083984" xlink:href="#DejaVuSans-30"/>
       <use x="99.707031" xlink:href="#DejaVuSans-2e"/>
       <use x="131.494141" xlink:href="#DejaVuSans-35"/>
      </g>
     </g>
    </g>
    <g id="ytick_24">
     <g id="line2d_91">
      <g>
       <use style="stroke:#000000;stroke-width:0.8;" x="262.652392" xlink:href="#md49254aa41" y="172.801377"/>
      </g>
     </g>
    </g>
    <g id="ytick_25">
     <g id="line2d_92">
      <g>
       <use style="stroke:#000000;stroke-width:0.8;" x="262.652392" xlink:href="#md49254aa41" y="96.127612"/>
      </g>
     </g>
     <g id="text_19">
      <!-- 0.5 -->
      <g transform="translate(239.749267 99.92683)scale(0.1 -0.1)">
       <use xlink:href="#DejaVuSans-30"/>
       <use x="63.623047" xlink:href="#DejaVuSans-2e"/>
       <use x="95.410156" xlink:href="#DejaVuSans-35"/>
      </g>
     </g>
    </g>
    <g id="ytick_26">
     <g id="line2d_93">
      <g>
       <use style="stroke:#000000;stroke-width:0.8;" x="262.652392" xlink:href="#md49254aa41" y="19.453846"/>
      </g>
     </g>
     <g id="text_20">
      <!-- 1 -->
      <g transform="translate(249.289892 23.253065)scale(0.1 -0.1)">
       <use xlink:href="#DejaVuSans-31"/>
      </g>
     </g>
    </g>
    <g id="ytick_27">
     <g id="line2d_94">
      <g>
       <use style="stroke:#000000;stroke-width:0.6;" x="262.652392" xlink:href="#m2d3f20dc75" y="310.814155"/>
      </g>
     </g>
    </g>
    <g id="ytick_28">
     <g id="line2d_95">
      <g>
       <use style="stroke:#000000;stroke-width:0.6;" x="262.652392" xlink:href="#m2d3f20dc75" y="295.479402"/>
      </g>
     </g>
    </g>
    <g id="ytick_29">
     <g id="line2d_96">
      <g>
       <use style="stroke:#000000;stroke-width:0.6;" x="262.652392" xlink:href="#m2d3f20dc75" y="280.144649"/>
      </g>
     </g>
    </g>
    <g id="ytick_30">
     <g id="line2d_97">
      <g>
       <use style="stroke:#000000;stroke-width:0.6;" x="262.652392" xlink:href="#m2d3f20dc75" y="264.809896"/>
      </g>
     </g>
    </g>
    <g id="ytick_31">
     <g id="line2d_98">
      <g>
       <use style="stroke:#000000;stroke-width:0.6;" x="262.652392" xlink:href="#m2d3f20dc75" y="234.14039"/>
      </g>
     </g>
    </g>
    <g id="ytick_32">
     <g id="line2d_99">
      <g>
       <use style="stroke:#000000;stroke-width:0.6;" x="262.652392" xlink:href="#m2d3f20dc75" y="218.805637"/>
      </g>
     </g>
    </g>
    <g id="ytick_33">
     <g id="line2d_100">
      <g>
       <use style="stroke:#000000;stroke-width:0.6;" x="262.652392" xlink:href="#m2d3f20dc75" y="203.470884"/>
      </g>
     </g>
    </g>
    <g id="ytick_34">
     <g id="line2d_101">
      <g>
       <use style="stroke:#000000;stroke-width:0.6;" x="262.652392" xlink:href="#m2d3f20dc75" y="188.13613"/>
      </g>
     </g>
    </g>
    <g id="ytick_35">
     <g id="line2d_102">
      <g>
       <use style="stroke:#000000;stroke-width:0.6;" x="262.652392" xlink:href="#m2d3f20dc75" y="157.466624"/>
      </g>
     </g>
    </g>
    <g id="ytick_36">
     <g id="line2d_103">
      <g>
       <use style="stroke:#000000;stroke-width:0.6;" x="262.652392" xlink:href="#m2d3f20dc75" y="142.131871"/>
      </g>
     </g>
    </g>
    <g id="ytick_37">
     <g id="line2d_104">
      <g>
       <use style="stroke:#000000;stroke-width:0.6;" x="262.652392" xlink:href="#m2d3f20dc75" y="126.797118"/>
      </g>
     </g>
    </g>
    <g id="ytick_38">
     <g id="line2d_105">
      <g>
       <use style="stroke:#000000;stroke-width:0.6;" x="262.652392" xlink:href="#m2d3f20dc75" y="111.462365"/>
      </g>
     </g>
    </g>
    <g id="ytick_39">
     <g id="line2d_106">
      <g>
       <use style="stroke:#000000;stroke-width:0.6;" x="262.652392" xlink:href="#m2d3f20dc75" y="80.792859"/>
      </g>
     </g>
    </g>
    <g id="ytick_40">
     <g id="line2d_107">
      <g>
       <use style="stroke:#000000;stroke-width:0.6;" x="262.652392" xlink:href="#m2d3f20dc75" y="65.458105"/>
      </g>
     </g>
    </g>
    <g id="ytick_41">
     <g id="line2d_108">
      <g>
       <use style="stroke:#000000;stroke-width:0.6;" x="262.652392" xlink:href="#m2d3f20dc75" y="50.123352"/>
      </g>
     </g>
    </g>
    <g id="ytick_42">
     <g id="line2d_109">
      <g>
       <use style="stroke:#000000;stroke-width:0.6;" x="262.652392" xlink:href="#m2d3f20dc75" y="34.788599"/>
      </g>
     </g>
    </g>
   </g>
   <g id="line2d_110">
    <path clip-path="url(#p8d226fad31)" d="M 262.652392 19.453846 
L 263.837578 19.583321 
L 264.962227 19.945436 
L 266.443991 20.77725 
L 267.405209 21.531591 
L 269.259715 23.460886 
L 270.452516 25.028617 
L 271.528568 26.659841 
L 273.746811 30.661628 
L 275.056116 33.419854 
L 277.519478 39.38285 
L 279.436498 44.698919 
L 281.853301 52.204088 
L 283.960923 59.442042 
L 286.493364 68.935664 
L 288.706773 77.891461 
L 292.28324 93.519138 
L 296.250511 112.268197 
L 300.763856 134.967903 
L 306.922674 167.322534 
L 316.146742 215.784639 
L 320.432812 237.107029 
L 323.874113 253.222116 
L 327.083727 267.225836 
L 329.639782 277.550272 
L 332.592186 288.447304 
L 334.251964 294.048441 
L 336.930277 302.232613 
L 339.413443 308.825291 
L 340.74544 311.94919 
L 342.788637 316.162164 
L 344.588711 319.278454 
L 346.006963 321.332462 
L 347.737132 323.351481 
L 349.354187 324.748887 
L 350.577128 325.488719 
L 351.76822 325.945401 
L 353.427019 326.146154 
L 354.322478 326.043706 
L 355.422926 325.715504 
L 357.486291 324.500702 
L 358.759807 323.362977 
L 360.134788 321.805124 
L 361.499669 319.92379 
L 362.506647 318.324317 
L 364.231319 315.173938 
L 366.474203 310.317462 
L 368.802654 304.396645 
L 370.828847 298.54527 
L 373.392741 290.255811 
L 375.384452 283.172423 
L 378.277039 271.957725 
L 381.556608 258.043582 
L 384.437773 244.904755 
L 388.72922 224.043128 
L 393.826896 197.829819 
L 408.958371 118.675864 
L 412.933018 99.477533 
L 416.47757 83.519089 
L 419.647104 70.383064 
L 421.925421 61.695491 
L 424.618028 52.325688 
L 427.180294 44.382786 
L 429.322455 38.517293 
L 431.371657 33.59898 
L 432.846964 30.491735 
L 434.866242 26.843821 
L 435.644959 25.627274 
L 437.323561 23.370876 
L 439.065511 21.56452 
L 440.796146 20.316124 
L 442.01781 19.765214 
L 443.855929 19.453846 
L 443.855929 19.453846 
" style="fill:none;stroke:#0000ff;stroke-linecap:square;"/>
   </g>
   <g id="patch_6">
    <path d="M 262.652392 332.28 
L 262.652392 13.32 
" style="fill:none;stroke:#000000;stroke-linecap:square;stroke-linejoin:miter;stroke-width:0.8;"/>
   </g>
   <g id="patch_7">
    <path d="M 259.028322 172.801377 
L 447.48 172.801377 
" style="fill:none;stroke:#000000;stroke-linecap:square;stroke-linejoin:miter;stroke-width:0.8;"/>
   </g>
  </g>
  <g id="axes_3">
   <g id="patch_8">
    <path d="M 334.08 103.68 
L 403.2 103.68 
L 403.2 34.56 
L 334.08 34.56 
z
" style="fill:#ffffff;"/>
   </g>
   <g id="matplotlib.axis_5">
    <g id="xtick_67">
     <g id="line2d_111">
      <g>
       <use style="stroke:#000000;stroke-width:0.8;" x="335.409231" xlink:href="#m0662a7d29c" y="103.68"/>
      </g>
     </g>
     <g id="text_21">
      <!-- -1 -->
      <g transform="translate(332.418137 115.239063)scale(0.06 -0.06)">
       <use xlink:href="#DejaVuSans-2d"/>
       <use x="36.083984" xlink:href="#DejaVuSans-31"/>
      </g>
     </g>
    </g>
    <g id="xtick_68">
     <g id="line2d_112">
      <g>
       <use style="stroke:#000000;stroke-width:0.8;" x="352.024615" xlink:href="#m0662a7d29c" y="103.68"/>
      </g>
     </g>
     <g id="text_22">
      <!-- -0.5 -->
      <g transform="translate(346.171334 115.239063)scale(0.06 -0.06)">
       <use xlink:href="#DejaVuSans-2d"/>
       <use x="36.083984" xlink:href="#DejaVuSans-30"/>
       <use x="99.707031" xlink:href="#DejaVuSans-2e"/>
       <use x="131.494141" xlink:href="#DejaVuSans-35"/>
      </g>
     </g>
    </g>
    <g id="xtick_69">
     <g id="line2d_113">
      <g>
       <use style="stroke:#000000;stroke-width:0.8;" x="368.64" xlink:href="#m0662a7d29c" y="103.68"/>
      </g>
     </g>
     <g id="text_23">
      <!-- 0 -->
      <g transform="translate(366.73125 115.239063)scale(0.06 -0.06)">
       <use xlink:href="#DejaVuSans-30"/>
      </g>
     </g>
    </g>
    <g id="xtick_70">
     <g id="line2d_114">
      <g>
       <use style="stroke:#000000;stroke-width:0.8;" x="385.255385" xlink:href="#m0662a7d29c" y="103.68"/>
      </g>
     </g>
     <g id="text_24">
      <!-- 0.5 -->
      <g transform="translate(380.484447 115.239063)scale(0.06 -0.06)">
       <use xlink:href="#DejaVuSans-30"/>
       <use x="63.623047" xlink:href="#DejaVuSans-2e"/>
       <use x="95.410156" xlink:href="#DejaVuSans-35"/>
      </g>
     </g>
    </g>
    <g id="xtick_71">
     <g id="line2d_115">
      <g>
       <use style="stroke:#000000;stroke-width:0.8;" x="401.870769" xlink:href="#m0662a7d29c" y="103.68"/>
      </g>
     </g>
     <g id="text_25">
      <!-- 1 -->
      <g transform="translate(399.962019 115.239063)scale(0.06 -0.06)">
       <use xlink:href="#DejaVuSans-31"/>
      </g>
     </g>
    </g>
    <g id="xtick_72">
     <g id="line2d_116">
      <g>
       <use style="stroke:#000000;stroke-width:0.6;" x="338.732308" xlink:href="#maa66882f74" y="103.68"/>
      </g>
     </g>
    </g>
    <g id="xtick_73">
     <g id="line2d_117">
      <g>
       <use style="stroke:#000000;stroke-width:0.6;" x="342.055385" xlink:href="#maa66882f74" y="103.68"/>
      </g>
     </g>
    </g>
    <g id="xtick_74">
     <g id="line2d_118">
      <g>
       <use style="stroke:#000000;stroke-width:0.6;" x="345.378462" xlink:href="#maa66882f74" y="103.68"/>
      </g>
     </g>
    </g>
    <g id="xtick_75">
     <g id="line2d_119">
      <g>
       <use style="stroke:#000000;stroke-width:0.6;" x="348.701538" xlink:href="#maa66882f74" y="103.68"/>
      </g>
     </g>
    </g>
    <g id="xtick_76">
     <g id="line2d_120">
      <g>
       <use style="stroke:#000000;stroke-width:0.6;" x="355.347692" xlink:href="#maa66882f74" y="103.68"/>
      </g>
     </g>
    </g>
    <g id="xtick_77">
     <g id="line2d_121">
      <g>
       <use style="stroke:#000000;stroke-width:0.6;" x="358.670769" xlink:href="#maa66882f74" y="103.68"/>
      </g>
     </g>
    </g>
    <g id="xtick_78">
     <g id="line2d_122">
      <g>
       <use style="stroke:#000000;stroke-width:0.6;" x="361.993846" xlink:href="#maa66882f74" y="103.68"/>
      </g>
     </g>
    </g>
    <g id="xtick_79">
     <g id="line2d_123">
      <g>
       <use style="stroke:#000000;stroke-width:0.6;" x="365.316923" xlink:href="#maa66882f74" y="103.68"/>
      </g>
     </g>
    </g>
    <g id="xtick_80">
     <g id="line2d_124">
      <g>
       <use style="stroke:#000000;stroke-width:0.6;" x="371.963077" xlink:href="#maa66882f74" y="103.68"/>
      </g>
     </g>
    </g>
    <g id="xtick_81">
     <g id="line2d_125">
      <g>
       <use style="stroke:#000000;stroke-width:0.6;" x="375.286154" xlink:href="#maa66882f74" y="103.68"/>
      </g>
     </g>
    </g>
    <g id="xtick_82">
     <g id="line2d_126">
      <g>
       <use style="stroke:#000000;stroke-width:0.6;" x="378.609231" xlink:href="#maa66882f74" y="103.68"/>
      </g>
     </g>
    </g>
    <g id="xtick_83">
     <g id="line2d_127">
      <g>
       <use style="stroke:#000000;stroke-width:0.6;" x="381.932308" xlink:href="#maa66882f74" y="103.68"/>
      </g>
     </g>
    </g>
    <g id="xtick_84">
     <g id="line2d_128">
      <g>
       <use style="stroke:#000000;stroke-width:0.6;" x="388.578462" xlink:href="#maa66882f74" y="103.68"/>
      </g>
     </g>
    </g>
    <g id="xtick_85">
     <g id="line2d_129">
      <g>
       <use style="stroke:#000000;stroke-width:0.6;" x="391.901538" xlink:href="#maa66882f74" y="103.68"/>
      </g>
     </g>
    </g>
    <g id="xtick_86">
     <g id="line2d_130">
      <g>
       <use style="stroke:#000000;stroke-width:0.6;" x="395.224615" xlink:href="#maa66882f74" y="103.68"/>
      </g>
     </g>
    </g>
    <g id="xtick_87">
     <g id="line2d_131">
      <g>
       <use style="stroke:#000000;stroke-width:0.6;" x="398.547692" xlink:href="#maa66882f74" y="103.68"/>
      </g>
     </g>
    </g>
   </g>
   <g id="matplotlib.axis_6">
    <g id="ytick_43">
     <g id="line2d_132">
      <g>
       <use style="stroke:#000000;stroke-width:0.8;" x="334.08" xlink:href="#md49254aa41" y="102.350769"/>
      </g>
     </g>
     <g id="text_26">
      <!-- -1 -->
      <g transform="translate(321.097812 104.6303)scale(0.06 -0.06)">
       <use xlink:href="#DejaVuSans-2d"/>
       <use x="36.083984" xlink:href="#DejaVuSans-31"/>
      </g>
     </g>
    </g>
    <g id="ytick_44">
     <g id="line2d_133">
      <g>
       <use style="stroke:#000000;stroke-width:0.8;" x="334.08" xlink:href="#md49254aa41" y="85.735385"/>
      </g>
     </g>
     <g id="text_27">
      <!-- -0.5 -->
      <g transform="translate(315.373437 88.014916)scale(0.06 -0.06)">
       <use xlink:href="#DejaVuSans-2d"/>
       <use x="36.083984" xlink:href="#DejaVuSans-30"/>
       <use x="99.707031" xlink:href="#DejaVuSans-2e"/>
       <use x="131.494141" xlink:href="#DejaVuSans-35"/>
      </g>
     </g>
    </g>
    <g id="ytick_45">
     <g id="line2d_134">
      <g>
       <use style="stroke:#000000;stroke-width:0.8;" x="334.08" xlink:href="#md49254aa41" y="69.12"/>
      </g>
     </g>
     <g id="text_28">
      <!-- 0 -->
      <g transform="translate(323.2625 71.399531)scale(0.06 -0.06)">
       <use xlink:href="#DejaVuSans-30"/>
      </g>
     </g>
    </g>
    <g id="ytick_46">
     <g id="line2d_135">
      <g>
       <use style="stroke:#000000;stroke-width:0.8;" x="334.08" xlink:href="#md49254aa41" y="52.504615"/>
      </g>
     </g>
     <g id="text_29">
      <!-- 0.5 -->
      <g transform="translate(317.538125 54.784147)scale(0.06 -0.06)">
       <use xlink:href="#DejaVuSans-30"/>
       <use x="63.623047" xlink:href="#DejaVuSans-2e"/>
       <use x="95.410156" xlink:href="#DejaVuSans-35"/>
      </g>
     </g>
    </g>
    <g id="ytick_47">
     <g id="line2d_136">
      <g>
       <use style="stroke:#000000;stroke-width:0.8;" x="334.08" xlink:href="#md49254aa41" y="35.889231"/>
      </g>
     </g>
     <g id="text_30">
      <!-- 1 -->
      <g transform="translate(323.2625 38.168762)scale(0.06 -0.06)">
       <use xlink:href="#DejaVuSans-31"/>
      </g>
     </g>
    </g>
    <g id="ytick_48">
     <g id="line2d_137">
      <g>
       <use style="stroke:#000000;stroke-width:0.6;" x="334.08" xlink:href="#m2d3f20dc75" y="99.027692"/>
      </g>
     </g>
    </g>
    <g id="ytick_49">
     <g id="line2d_138">
      <g>
       <use style="stroke:#000000;stroke-width:0.6;" x="334.08" xlink:href="#m2d3f20dc75" y="95.704615"/>
      </g>
     </g>
    </g>
    <g id="ytick_50">
     <g id="line2d_139">
      <g>
       <use style="stroke:#000000;stroke-width:0.6;" x="334.08" xlink:href="#m2d3f20dc75" y="92.381538"/>
      </g>
     </g>
    </g>
    <g id="ytick_51">
     <g id="line2d_140">
      <g>
       <use style="stroke:#000000;stroke-width:0.6;" x="334.08" xlink:href="#m2d3f20dc75" y="89.058462"/>
      </g>
     </g>
    </g>
    <g id="ytick_52">
     <g id="line2d_141">
      <g>
       <use style="stroke:#000000;stroke-width:0.6;" x="334.08" xlink:href="#m2d3f20dc75" y="82.412308"/>
      </g>
     </g>
    </g>
    <g id="ytick_53">
     <g id="line2d_142">
      <g>
       <use style="stroke:#000000;stroke-width:0.6;" x="334.08" xlink:href="#m2d3f20dc75" y="79.089231"/>
      </g>
     </g>
    </g>
    <g id="ytick_54">
     <g id="line2d_143">
      <g>
       <use style="stroke:#000000;stroke-width:0.6;" x="334.08" xlink:href="#m2d3f20dc75" y="75.766154"/>
      </g>
     </g>
    </g>
    <g id="ytick_55">
     <g id="line2d_144">
      <g>
       <use style="stroke:#000000;stroke-width:0.6;" x="334.08" xlink:href="#m2d3f20dc75" y="72.443077"/>
      </g>
     </g>
    </g>
    <g id="ytick_56">
     <g id="line2d_145">
      <g>
       <use style="stroke:#000000;stroke-width:0.6;" x="334.08" xlink:href="#m2d3f20dc75" y="65.796923"/>
      </g>
     </g>
    </g>
    <g id="ytick_57">
     <g id="line2d_146">
      <g>
       <use style="stroke:#000000;stroke-width:0.6;" x="334.08" xlink:href="#m2d3f20dc75" y="62.473846"/>
      </g>
     </g>
    </g>
    <g id="ytick_58">
     <g id="line2d_147">
      <g>
       <use style="stroke:#000000;stroke-width:0.6;" x="334.08" xlink:href="#m2d3f20dc75" y="59.150769"/>
      </g>
     </g>
    </g>
    <g id="ytick_59">
     <g id="line2d_148">
      <g>
       <use style="stroke:#000000;stroke-width:0.6;" x="334.08" xlink:href="#m2d3f20dc75" y="55.827692"/>
      </g>
     </g>
    </g>
    <g id="ytick_60">
     <g id="line2d_149">
      <g>
       <use style="stroke:#000000;stroke-width:0.6;" x="334.08" xlink:href="#m2d3f20dc75" y="49.181538"/>
      </g>
     </g>
    </g>
    <g id="ytick_61">
     <g id="line2d_150">
      <g>
       <use style="stroke:#000000;stroke-width:0.6;" x="334.08" xlink:href="#m2d3f20dc75" y="45.858462"/>
      </g>
     </g>
    </g>
    <g id="ytick_62">
     <g id="line2d_151">
      <g>
       <use style="stroke:#000000;stroke-width:0.6;" x="334.08" xlink:href="#m2d3f20dc75" y="42.535385"/>
      </g>
     </g>
    </g>
    <g id="ytick_63">
     <g id="line2d_152">
      <g>
       <use style="stroke:#000000;stroke-width:0.6;" x="334.08" xlink:href="#m2d3f20dc75" y="39.212308"/>
      </g>
     </g>
    </g>
   </g>
   <g id="line2d_153">
    <path clip-path="url(#pb6a1230f9e)" d="M 334.08 69.12 
L 403.2 69.12 
" style="fill:none;stroke:#000000;stroke-linecap:square;stroke-width:0.8;"/>
   </g>
   <g id="line2d_154">
    <path clip-path="url(#pb6a1230f9e)" d="M 368.64 103.68 
L 368.64 34.56 
" style="fill:none;stroke:#000000;stroke-linecap:square;stroke-width:0.8;"/>
   </g>
   <g id="patch_9">
    <path d="M 334.08 103.68 
L 334.08 34.56 
" style="fill:none;stroke:#000000;stroke-linecap:square;stroke-linejoin:miter;stroke-width:0.8;"/>
   </g>
   <g id="patch_10">
    <path d="M 403.2 103.68 
L 403.2 34.56 
" style="fill:none;stroke:#000000;stroke-linecap:square;stroke-linejoin:miter;stroke-width:0.8;"/>
   </g>
   <g id="patch_11">
    <path d="M 334.08 103.68 
L 403.2 103.68 
" style="fill:none;stroke:#000000;stroke-linecap:square;stroke-linejoin:miter;stroke-width:0.8;"/>
   </g>
   <g id="patch_12">
    <path d="M 334.08 34.56 
L 403.2 34.56 
" style="fill:none;stroke:#000000;stroke-linecap:square;stroke-linejoin:miter;stroke-width:0.8;"/>
   </g>
   <g id="patch_13">
    <path clip-path="url(#pb6a1230f9e)" d="M 368.64 102.350769 
C 377.452903 102.350769 385.906039 98.849366 392.137702 92.617702 
C 398.369366 86.386039 401.870769 77.932903 401.870769 69.12 
C 401.870769 60.307097 398.369366 51.853961 392.137702 45.622298 
C 385.906039 39.390634 377.452903 35.889231 368.64 35.889231 
C 359.827097 35.889231 351.373961 39.390634 345.142298 45.622298 
C 338.910634 51.853961 335.409231 60.307097 335.409231 69.12 
C 335.409231 77.932903 338.910634 86.386039 345.142298 92.617702 
C 351.373961 98.849366 359.827097 102.350769 368.64 102.350769 
z
" style="fill:none;stroke:#ff0000;stroke-linejoin:miter;stroke-width:2;"/>
   </g>
  </g>
 </g>
 <defs>
  <clipPath id="p6981577c0a">
   <rect height="318.96" width="188.451678" x="34.028322" y="13.32"/>
  </clipPath>
  <clipPath id="p8d226fad31">
   <rect height="318.96" width="188.451678" x="259.028322" y="13.32"/>
  </clipPath>
  <clipPath id="pb6a1230f9e">
   <rect height="69.12" width="69.12" x="334.08" y="34.56"/>
  </clipPath>
 </defs>
</svg>
