<?xml version="1.0" encoding="utf-8" standalone="no"?>
<!DOCTYPE svg PUBLIC "-//W3C//DTD SVG 1.1//EN"
  "http://www.w3.org/Graphics/SVG/1.1/DTD/svg11.dtd">
<svg xmlns:xlink="http://www.w3.org/1999/xlink" width="288pt" height="216pt" viewBox="0 0 288 216" xmlns="http://www.w3.org/2000/svg" version="1.1">
 <metadata>
  <rdf:RDF xmlns:dc="http://purl.org/dc/elements/1.1/" xmlns:cc="http://creativecommons.org/ns#" xmlns:rdf="http://www.w3.org/1999/02/22-rdf-syntax-ns#">
   <cc:Work>
    <dc:type rdf:resource="http://purl.org/dc/dcmitype/StillImage"/>
    <dc:date>2022-01-31T17:28:01.280634</dc:date>
    <dc:format>image/svg+xml</dc:format>
    <dc:creator>
     <cc:Agent>
      <dc:title>Matplotlib v3.5.1, https://matplotlib.org/</dc:title>
     </cc:Agent>
    </dc:creator>
   </cc:Work>
  </rdf:RDF>
 </metadata>
 <defs>
  <style type="text/css">*{stroke-linejoin: round; stroke-linecap: butt}</style>
 </defs>
 <g id="figure_1">
  <g id="patch_1">
   <path d="M 0 216 
L 288 216 
L 288 0 
L 0 0 
z
" style="fill: #ffffff"/>
  </g>
  <g id="axes_1">
   <g id="patch_2">
    <path d="M 10.8 102.6 
L 138.6 102.6 
L 138.6 10.8 
L 10.8 10.8 
z
" style="fill: #ffffff"/>
   </g>
   <g id="matplotlib.axis_1"/>
   <g id="matplotlib.axis_2"/>
   <g id="line2d_1">
    <path d="M 13.257692 100.834615 
L 17.404425 98.823029 
L 22.646947 96.006607 
L 27.286899 93.274628 
L 32.891305 89.698325 
L 38.616218 85.762088 
L 44.88565 81.16353 
L 51.846078 75.76218 
L 59.742659 69.342387 
L 70.18463 60.551013 
L 91.655085 42.409523 
L 99.712843 35.933032 
L 106.346516 30.864093 
L 112.603862 26.357483 
L 118.327674 22.509382 
L 123.44491 19.319171 
L 128.559999 16.389272 
L 133.62298 13.764123 
L 136.142308 12.565385 
L 136.142308 12.565385 
" clip-path="url(#p22a45e7506)" style="fill: none; stroke: #0000ff; stroke-linecap: square"/>
   </g>
  </g>
  <g id="axes_2">
   <g id="patch_3">
    <path d="M 149.4 102.6 
L 277.2 102.6 
L 277.2 10.8 
L 149.4 10.8 
z
" style="fill: #ffffff"/>
   </g>
   <g id="matplotlib.axis_3"/>
   <g id="matplotlib.axis_4"/>
   <g id="line2d_2">
    <path d="M 151.857692 100.834615 
L 155.912656 90.404578 
L 160.362609 79.532319 
L 164.668737 69.635108 
L 168.774977 60.8138 
L 172.203305 53.938931 
L 175.973379 46.920863 
L 178.893202 41.892028 
L 181.893441 37.107443 
L 185.060385 32.490361 
L 187.790863 28.87613 
L 190.356387 25.796259 
L 193.074965 22.872869 
L 195.830607 20.272631 
L 198.059683 18.440238 
L 200.039039 17.018399 
L 202.696122 15.415973 
L 204.388473 14.579583 
L 206.909808 13.600997 
L 208.527212 13.142464 
L 210.282776 12.794904 
L 212.693449 12.572782 
L 215.175276 12.652855 
L 217.178839 12.945934 
L 219.785093 13.632015 
L 222.177968 14.564453 
L 224.618335 15.812191 
L 226.778853 17.16541 
L 228.744321 18.597788 
L 231.651369 21.064771 
L 233.999755 23.357874 
L 236.810668 26.450349 
L 239.504793 29.76428 
L 242.519387 33.870485 
L 245.689418 38.631406 
L 248.554531 43.314729 
L 252.263563 49.896672 
L 256.192939 57.483807 
L 259.61999 64.593161 
L 262.802384 71.58536 
L 266.668371 80.557515 
L 270.867091 90.856715 
L 274.742308 100.834615 
L 274.742308 100.834615 
" clip-path="url(#p21a3890625)" style="fill: none; stroke: #0000ff; stroke-linecap: square"/>
   </g>
  </g>
  <g id="axes_3">
   <g id="patch_4">
    <path d="M 10.8 205.2 
L 138.6 205.2 
L 138.6 113.4 
L 10.8 113.4 
z
" style="fill: #ffffff"/>
   </g>
   <g id="matplotlib.axis_5"/>
   <g id="matplotlib.axis_6"/>
   <g id="line2d_3">
    <path d="M 13.257692 203.434615 
L 15.510054 200.066822 
L 17.741373 197.063509 
L 20.385386 193.860219 
L 23.453321 190.540112 
L 26.609034 187.486064 
L 30.280206 184.303153 
L 33.733744 181.601479 
L 37.668183 178.800318 
L 42.038616 175.964144 
L 47.150555 172.932452 
L 52.874647 169.812227 
L 59.826415 166.297233 
L 69.013152 161.930412 
L 90.837208 151.681181 
L 98.007484 148.002942 
L 103.233755 145.104113 
L 108.074983 142.189854 
L 112.691054 139.140637 
L 116.724486 136.197227 
L 119.999018 133.56638 
L 123.636966 130.326908 
L 126.940644 127.025795 
L 129.606995 124.052096 
L 132.275544 120.735943 
L 134.612481 117.49263 
L 136.142308 115.165385 
L 136.142308 115.165385 
" clip-path="url(#p4701c1ab8e)" style="fill: none; stroke: #0000ff; stroke-linecap: square"/>
   </g>
  </g>
  <g id="axes_4">
   <g id="patch_5">
    <path d="M 149.4 205.2 
L 277.2 205.2 
L 277.2 113.4 
L 149.4 113.4 
z
" style="fill: #ffffff"/>
   </g>
   <g id="matplotlib.axis_7"/>
   <g id="matplotlib.axis_8"/>
   <g id="line2d_4">
    <path d="M 151.857692 115.165385 
L 154.039257 125.116514 
L 155.964454 132.904835 
L 158.003515 140.287629 
L 160.001048 146.773296 
L 162.238454 153.278908 
L 164.659158 159.536738 
L 166.972087 164.859809 
L 169.347064 169.745067 
L 171.750986 174.164204 
L 174.112804 178.051105 
L 176.426282 181.469325 
L 178.565273 184.321418 
L 181.005749 187.248226 
L 183.497198 189.909405 
L 185.544731 191.870395 
L 188.162042 194.104306 
L 191.013231 196.216866 
L 193.522692 197.820433 
L 196.365229 199.367919 
L 198.611591 200.400486 
L 201.752572 201.577758 
L 204.189223 202.286258 
L 207.164335 202.917939 
L 210.058563 203.292857 
L 212.849721 203.434615 
L 215.635113 203.362429 
L 218.536084 203.059523 
L 221.198022 202.574306 
L 224.173611 201.791238 
L 226.917067 200.836251 
L 230.192907 199.388666 
L 232.885112 197.933867 
L 235.762025 196.096155 
L 238.625307 193.954073 
L 241.569113 191.396513 
L 243.839031 189.155536 
L 246.562397 186.126817 
L 248.534222 183.680387 
L 251.157563 180.060036 
L 253.89236 175.789889 
L 256.50249 171.178262 
L 258.68669 166.86199 
L 261.196704 161.314913 
L 262.892534 157.165886 
L 265.009478 151.470987 
L 267.23986 144.766602 
L 268.988114 138.932848 
L 271.050359 131.298041 
L 273.150804 122.550959 
L 274.742308 115.165385 
L 274.742308 115.165385 
" clip-path="url(#pc3bff21d88)" style="fill: none; stroke: #0000ff; stroke-linecap: square"/>
   </g>
  </g>
 </g>
 <defs>
  <clipPath id="p22a45e7506">
   <rect x="10.8" y="10.8" width="127.8" height="91.8"/>
  </clipPath>
  <clipPath id="p21a3890625">
   <rect x="149.4" y="10.8" width="127.8" height="91.8"/>
  </clipPath>
  <clipPath id="p4701c1ab8e">
   <rect x="10.8" y="113.4" width="127.8" height="91.8"/>
  </clipPath>
  <clipPath id="pc3bff21d88">
   <rect x="149.4" y="113.4" width="127.8" height="91.8"/>
  </clipPath>
 </defs>
</svg>
