<?xml version="1.0" encoding="utf-8" standalone="no"?>
<!DOCTYPE svg PUBLIC "-//W3C//DTD SVG 1.1//EN"
  "http://www.w3.org/Graphics/SVG/1.1/DTD/svg11.dtd">
<!-- Created with matplotlib (http://matplotlib.org/) -->
<svg height="345.6pt" version="1.1" viewBox="0 0 460.8 345.6" width="460.8pt" xmlns="http://www.w3.org/2000/svg" xmlns:xlink="http://www.w3.org/1999/xlink">
 <defs>
  <style type="text/css">
*{stroke-linecap:butt;stroke-linejoin:round;}
  </style>
 </defs>
 <g id="figure_1">
  <g id="patch_1">
   <path d="M 0 345.6 
L 460.8 345.6 
L 460.8 0 
L 0 0 
z
" style="fill:#ffffff;"/>
  </g>
  <g id="axes_1">
   <g id="patch_2">
    <path d="M 57.6 276.48 
L 241.92 276.48 
L 241.92 138.24 
L 57.6 138.24 
z
" style="fill:#ffffff;"/>
   </g>
   <g id="matplotlib.axis_1">
    <g id="xtick_1">
     <g id="line2d_1">
      <defs>
       <path d="M 0 0 
L 0 3.5 
" id="m9fafdfd3af" style="stroke:#000000;stroke-width:0.8;"/>
      </defs>
      <g>
       <use style="stroke:#000000;stroke-width:0.8;" x="61.144615" xlink:href="#m9fafdfd3af" y="207.360237"/>
      </g>
     </g>
     <g id="text_1">
      <!-- -1 -->
      <defs>
       <path d="M 4.890625 31.390625 
L 31.203125 31.390625 
L 31.203125 23.390625 
L 4.890625 23.390625 
z
" id="DejaVuSans-2d"/>
       <path d="M 12.40625 8.296875 
L 28.515625 8.296875 
L 28.515625 63.921875 
L 10.984375 60.40625 
L 10.984375 69.390625 
L 28.421875 72.90625 
L 38.28125 72.90625 
L 38.28125 8.296875 
L 54.390625 8.296875 
L 54.390625 0 
L 12.40625 0 
z
" id="DejaVuSans-31"/>
      </defs>
      <g transform="translate(56.159459 221.958674)scale(0.1 -0.1)">
       <use xlink:href="#DejaVuSans-2d"/>
       <use x="36.083984" xlink:href="#DejaVuSans-31"/>
      </g>
     </g>
    </g>
    <g id="xtick_2">
     <g id="line2d_2">
      <g>
       <use style="stroke:#000000;stroke-width:0.8;" x="105.452308" xlink:href="#m9fafdfd3af" y="207.360237"/>
      </g>
     </g>
     <g id="text_2">
      <!-- -0.5 -->
      <defs>
       <path d="M 31.78125 66.40625 
Q 24.171875 66.40625 20.328125 58.90625 
Q 16.5 51.421875 16.5 36.375 
Q 16.5 21.390625 20.328125 13.890625 
Q 24.171875 6.390625 31.78125 6.390625 
Q 39.453125 6.390625 43.28125 13.890625 
Q 47.125 21.390625 47.125 36.375 
Q 47.125 51.421875 43.28125 58.90625 
Q 39.453125 66.40625 31.78125 66.40625 
z
M 31.78125 74.21875 
Q 44.046875 74.21875 50.515625 64.515625 
Q 56.984375 54.828125 56.984375 36.375 
Q 56.984375 17.96875 50.515625 8.265625 
Q 44.046875 -1.421875 31.78125 -1.421875 
Q 19.53125 -1.421875 13.0625 8.265625 
Q 6.59375 17.96875 6.59375 36.375 
Q 6.59375 54.828125 13.0625 64.515625 
Q 19.53125 74.21875 31.78125 74.21875 
z
" id="DejaVuSans-30"/>
       <path d="M 10.6875 12.40625 
L 21 12.40625 
L 21 0 
L 10.6875 0 
z
" id="DejaVuSans-2e"/>
       <path d="M 10.796875 72.90625 
L 49.515625 72.90625 
L 49.515625 64.59375 
L 19.828125 64.59375 
L 19.828125 46.734375 
Q 21.96875 47.46875 24.109375 47.828125 
Q 26.265625 48.1875 28.421875 48.1875 
Q 40.625 48.1875 47.75 41.5 
Q 54.890625 34.8125 54.890625 23.390625 
Q 54.890625 11.625 47.5625 5.09375 
Q 40.234375 -1.421875 26.90625 -1.421875 
Q 22.3125 -1.421875 17.546875 -0.640625 
Q 12.796875 0.140625 7.71875 1.703125 
L 7.71875 11.625 
Q 12.109375 9.234375 16.796875 8.0625 
Q 21.484375 6.890625 26.703125 6.890625 
Q 35.15625 6.890625 40.078125 11.328125 
Q 45.015625 15.765625 45.015625 23.390625 
Q 45.015625 31 40.078125 35.4375 
Q 35.15625 39.890625 26.703125 39.890625 
Q 22.75 39.890625 18.8125 39.015625 
Q 14.890625 38.140625 10.796875 36.28125 
z
" id="DejaVuSans-35"/>
      </defs>
      <g transform="translate(95.696839 221.958674)scale(0.1 -0.1)">
       <use xlink:href="#DejaVuSans-2d"/>
       <use x="36.083984" xlink:href="#DejaVuSans-30"/>
       <use x="99.707031" xlink:href="#DejaVuSans-2e"/>
       <use x="131.494141" xlink:href="#DejaVuSans-35"/>
      </g>
     </g>
    </g>
    <g id="xtick_3">
     <g id="line2d_3">
      <g>
       <use style="stroke:#000000;stroke-width:0.8;" x="149.76" xlink:href="#m9fafdfd3af" y="207.360237"/>
      </g>
     </g>
    </g>
    <g id="xtick_4">
     <g id="line2d_4">
      <g>
       <use style="stroke:#000000;stroke-width:0.8;" x="194.067692" xlink:href="#m9fafdfd3af" y="207.360237"/>
      </g>
     </g>
     <g id="text_3">
      <!-- 0.5 -->
      <g transform="translate(186.11613 221.958674)scale(0.1 -0.1)">
       <use xlink:href="#DejaVuSans-30"/>
       <use x="63.623047" xlink:href="#DejaVuSans-2e"/>
       <use x="95.410156" xlink:href="#DejaVuSans-35"/>
      </g>
     </g>
    </g>
    <g id="xtick_5">
     <g id="line2d_5">
      <g>
       <use style="stroke:#000000;stroke-width:0.8;" x="238.375385" xlink:href="#m9fafdfd3af" y="207.360237"/>
      </g>
     </g>
     <g id="text_4">
      <!-- 1 -->
      <g transform="translate(235.194135 221.958674)scale(0.1 -0.1)">
       <use xlink:href="#DejaVuSans-31"/>
      </g>
     </g>
    </g>
    <g id="xtick_6">
     <g id="line2d_6">
      <defs>
       <path d="M 0 0 
L 0 2 
" id="m0aa127a9f6" style="stroke:#000000;stroke-width:0.6;"/>
      </defs>
      <g>
       <use style="stroke:#000000;stroke-width:0.6;" x="70.006154" xlink:href="#m0aa127a9f6" y="207.360237"/>
      </g>
     </g>
    </g>
    <g id="xtick_7">
     <g id="line2d_7">
      <g>
       <use style="stroke:#000000;stroke-width:0.6;" x="78.867692" xlink:href="#m0aa127a9f6" y="207.360237"/>
      </g>
     </g>
    </g>
    <g id="xtick_8">
     <g id="line2d_8">
      <g>
       <use style="stroke:#000000;stroke-width:0.6;" x="87.729231" xlink:href="#m0aa127a9f6" y="207.360237"/>
      </g>
     </g>
    </g>
    <g id="xtick_9">
     <g id="line2d_9">
      <g>
       <use style="stroke:#000000;stroke-width:0.6;" x="96.590769" xlink:href="#m0aa127a9f6" y="207.360237"/>
      </g>
     </g>
    </g>
    <g id="xtick_10">
     <g id="line2d_10">
      <g>
       <use style="stroke:#000000;stroke-width:0.6;" x="114.313846" xlink:href="#m0aa127a9f6" y="207.360237"/>
      </g>
     </g>
    </g>
    <g id="xtick_11">
     <g id="line2d_11">
      <g>
       <use style="stroke:#000000;stroke-width:0.6;" x="123.175385" xlink:href="#m0aa127a9f6" y="207.360237"/>
      </g>
     </g>
    </g>
    <g id="xtick_12">
     <g id="line2d_12">
      <g>
       <use style="stroke:#000000;stroke-width:0.6;" x="132.036923" xlink:href="#m0aa127a9f6" y="207.360237"/>
      </g>
     </g>
    </g>
    <g id="xtick_13">
     <g id="line2d_13">
      <g>
       <use style="stroke:#000000;stroke-width:0.6;" x="140.898462" xlink:href="#m0aa127a9f6" y="207.360237"/>
      </g>
     </g>
    </g>
    <g id="xtick_14">
     <g id="line2d_14">
      <g>
       <use style="stroke:#000000;stroke-width:0.6;" x="158.621538" xlink:href="#m0aa127a9f6" y="207.360237"/>
      </g>
     </g>
    </g>
    <g id="xtick_15">
     <g id="line2d_15">
      <g>
       <use style="stroke:#000000;stroke-width:0.6;" x="167.483077" xlink:href="#m0aa127a9f6" y="207.360237"/>
      </g>
     </g>
    </g>
    <g id="xtick_16">
     <g id="line2d_16">
      <g>
       <use style="stroke:#000000;stroke-width:0.6;" x="176.344615" xlink:href="#m0aa127a9f6" y="207.360237"/>
      </g>
     </g>
    </g>
    <g id="xtick_17">
     <g id="line2d_17">
      <g>
       <use style="stroke:#000000;stroke-width:0.6;" x="185.206154" xlink:href="#m0aa127a9f6" y="207.360237"/>
      </g>
     </g>
    </g>
    <g id="xtick_18">
     <g id="line2d_18">
      <g>
       <use style="stroke:#000000;stroke-width:0.6;" x="202.929231" xlink:href="#m0aa127a9f6" y="207.360237"/>
      </g>
     </g>
    </g>
    <g id="xtick_19">
     <g id="line2d_19">
      <g>
       <use style="stroke:#000000;stroke-width:0.6;" x="211.790769" xlink:href="#m0aa127a9f6" y="207.360237"/>
      </g>
     </g>
    </g>
    <g id="xtick_20">
     <g id="line2d_20">
      <g>
       <use style="stroke:#000000;stroke-width:0.6;" x="220.652308" xlink:href="#m0aa127a9f6" y="207.360237"/>
      </g>
     </g>
    </g>
    <g id="xtick_21">
     <g id="line2d_21">
      <g>
       <use style="stroke:#000000;stroke-width:0.6;" x="229.513846" xlink:href="#m0aa127a9f6" y="207.360237"/>
      </g>
     </g>
    </g>
   </g>
   <g id="matplotlib.axis_2">
    <g id="ytick_1">
     <g id="line2d_22">
      <defs>
       <path d="M 0 0 
L -3.5 0 
" id="m7d2e6d5b15" style="stroke:#000000;stroke-width:0.8;"/>
      </defs>
      <g>
       <use style="stroke:#000000;stroke-width:0.8;" x="149.76" xlink:href="#m7d2e6d5b15" y="273.822012"/>
      </g>
     </g>
     <g id="text_5">
      <!-- -1 -->
      <g transform="translate(132.789688 277.621231)scale(0.1 -0.1)">
       <use xlink:href="#DejaVuSans-2d"/>
       <use x="36.083984" xlink:href="#DejaVuSans-31"/>
      </g>
     </g>
    </g>
    <g id="ytick_2">
     <g id="line2d_23">
      <g>
       <use style="stroke:#000000;stroke-width:0.8;" x="149.76" xlink:href="#m7d2e6d5b15" y="240.591124"/>
      </g>
     </g>
     <g id="text_6">
      <!-- -0.5 -->
      <g transform="translate(123.249063 244.390343)scale(0.1 -0.1)">
       <use xlink:href="#DejaVuSans-2d"/>
       <use x="36.083984" xlink:href="#DejaVuSans-30"/>
       <use x="99.707031" xlink:href="#DejaVuSans-2e"/>
       <use x="131.494141" xlink:href="#DejaVuSans-35"/>
      </g>
     </g>
    </g>
    <g id="ytick_3">
     <g id="line2d_24">
      <g>
       <use style="stroke:#000000;stroke-width:0.8;" x="149.76" xlink:href="#m7d2e6d5b15" y="207.360237"/>
      </g>
     </g>
    </g>
    <g id="ytick_4">
     <g id="line2d_25">
      <g>
       <use style="stroke:#000000;stroke-width:0.8;" x="149.76" xlink:href="#m7d2e6d5b15" y="174.129349"/>
      </g>
     </g>
     <g id="text_7">
      <!-- 0.5 -->
      <g transform="translate(126.856875 177.928568)scale(0.1 -0.1)">
       <use xlink:href="#DejaVuSans-30"/>
       <use x="63.623047" xlink:href="#DejaVuSans-2e"/>
       <use x="95.410156" xlink:href="#DejaVuSans-35"/>
      </g>
     </g>
    </g>
    <g id="ytick_5">
     <g id="line2d_26">
      <g>
       <use style="stroke:#000000;stroke-width:0.8;" x="149.76" xlink:href="#m7d2e6d5b15" y="140.898462"/>
      </g>
     </g>
     <g id="text_8">
      <!-- 1 -->
      <g transform="translate(136.3975 144.69768)scale(0.1 -0.1)">
       <use xlink:href="#DejaVuSans-31"/>
      </g>
     </g>
    </g>
    <g id="ytick_6">
     <g id="line2d_27">
      <defs>
       <path d="M 0 0 
L -2 0 
" id="m6ee0aaf489" style="stroke:#000000;stroke-width:0.6;"/>
      </defs>
      <g>
       <use style="stroke:#000000;stroke-width:0.6;" x="149.76" xlink:href="#m6ee0aaf489" y="267.175835"/>
      </g>
     </g>
    </g>
    <g id="ytick_7">
     <g id="line2d_28">
      <g>
       <use style="stroke:#000000;stroke-width:0.6;" x="149.76" xlink:href="#m6ee0aaf489" y="260.529657"/>
      </g>
     </g>
    </g>
    <g id="ytick_8">
     <g id="line2d_29">
      <g>
       <use style="stroke:#000000;stroke-width:0.6;" x="149.76" xlink:href="#m6ee0aaf489" y="253.88348"/>
      </g>
     </g>
    </g>
    <g id="ytick_9">
     <g id="line2d_30">
      <g>
       <use style="stroke:#000000;stroke-width:0.6;" x="149.76" xlink:href="#m6ee0aaf489" y="247.237302"/>
      </g>
     </g>
    </g>
    <g id="ytick_10">
     <g id="line2d_31">
      <g>
       <use style="stroke:#000000;stroke-width:0.6;" x="149.76" xlink:href="#m6ee0aaf489" y="233.944947"/>
      </g>
     </g>
    </g>
    <g id="ytick_11">
     <g id="line2d_32">
      <g>
       <use style="stroke:#000000;stroke-width:0.6;" x="149.76" xlink:href="#m6ee0aaf489" y="227.298769"/>
      </g>
     </g>
    </g>
    <g id="ytick_12">
     <g id="line2d_33">
      <g>
       <use style="stroke:#000000;stroke-width:0.6;" x="149.76" xlink:href="#m6ee0aaf489" y="220.652592"/>
      </g>
     </g>
    </g>
    <g id="ytick_13">
     <g id="line2d_34">
      <g>
       <use style="stroke:#000000;stroke-width:0.6;" x="149.76" xlink:href="#m6ee0aaf489" y="214.006414"/>
      </g>
     </g>
    </g>
    <g id="ytick_14">
     <g id="line2d_35">
      <g>
       <use style="stroke:#000000;stroke-width:0.6;" x="149.76" xlink:href="#m6ee0aaf489" y="200.714059"/>
      </g>
     </g>
    </g>
    <g id="ytick_15">
     <g id="line2d_36">
      <g>
       <use style="stroke:#000000;stroke-width:0.6;" x="149.76" xlink:href="#m6ee0aaf489" y="194.067882"/>
      </g>
     </g>
    </g>
    <g id="ytick_16">
     <g id="line2d_37">
      <g>
       <use style="stroke:#000000;stroke-width:0.6;" x="149.76" xlink:href="#m6ee0aaf489" y="187.421704"/>
      </g>
     </g>
    </g>
    <g id="ytick_17">
     <g id="line2d_38">
      <g>
       <use style="stroke:#000000;stroke-width:0.6;" x="149.76" xlink:href="#m6ee0aaf489" y="180.775527"/>
      </g>
     </g>
    </g>
    <g id="ytick_18">
     <g id="line2d_39">
      <g>
       <use style="stroke:#000000;stroke-width:0.6;" x="149.76" xlink:href="#m6ee0aaf489" y="167.483172"/>
      </g>
     </g>
    </g>
    <g id="ytick_19">
     <g id="line2d_40">
      <g>
       <use style="stroke:#000000;stroke-width:0.6;" x="149.76" xlink:href="#m6ee0aaf489" y="160.836994"/>
      </g>
     </g>
    </g>
    <g id="ytick_20">
     <g id="line2d_41">
      <g>
       <use style="stroke:#000000;stroke-width:0.6;" x="149.76" xlink:href="#m6ee0aaf489" y="154.190817"/>
      </g>
     </g>
    </g>
    <g id="ytick_21">
     <g id="line2d_42">
      <g>
       <use style="stroke:#000000;stroke-width:0.6;" x="149.76" xlink:href="#m6ee0aaf489" y="147.544639"/>
      </g>
     </g>
    </g>
   </g>
   <g id="line2d_43">
    <path clip-path="url(#p65527ea586)" d="M 61.144615 140.898462 
L 63.149225 163.617919 
L 65.118207 183.425932 
L 66.900558 199.327163 
L 68.815542 214.37869 
L 70.616989 226.719478 
L 72.22993 236.354245 
L 73.951368 245.242347 
L 75.398413 251.657596 
L 76.870275 257.244923 
L 78.327278 261.891621 
L 79.406472 264.793613 
L 80.845127 267.983032 
L 81.951091 269.931717 
L 83.106823 271.523565 
L 84.166615 272.602054 
L 85.017501 273.215374 
L 86.055452 273.671944 
L 86.926615 273.817955 
L 87.984046 273.71754 
L 88.972776 273.360893 
L 89.779161 272.89075 
L 90.816517 272.060362 
L 91.904384 270.93074 
L 93.287298 269.13637 
L 94.622732 267.05007 
L 96.447756 263.687509 
L 98.177125 260.012315 
L 100.204177 255.175696 
L 102.209415 249.910745 
L 105.185571 241.388899 
L 108.630087 230.76404 
L 114.156928 212.870407 
L 120.484293 192.595584 
L 123.849897 182.467499 
L 126.595676 174.747345 
L 129.376351 167.542395 
L 132.137312 161.094379 
L 134.383884 156.424496 
L 136.542804 152.463624 
L 138.651735 149.121979 
L 140.194596 147.021406 
L 141.779087 145.176176 
L 143.35049 143.6655 
L 144.944221 142.464103 
L 146.5146 141.610654 
L 148.035652 141.099708 
L 149.365677 140.908989 
L 150.852743 140.979299 
L 152.272952 141.325692 
L 153.656903 141.924685 
L 155.138966 142.850274 
L 156.766709 144.201763 
L 158.263229 145.749046 
L 159.968871 147.861464 
L 161.759302 150.46861 
L 163.503838 153.380493 
L 165.607323 157.358821 
L 167.871071 162.179924 
L 170.376201 168.118871 
L 173.107264 175.244107 
L 176.193484 183.99879 
L 179.809561 195.007321 
L 183.610463 207.161617 
L 192.4213 235.56692 
L 195.797157 245.670294 
L 198.127977 252.10927 
L 200.460631 257.972723 
L 202.350701 262.208553 
L 204.324428 266.055633 
L 205.76237 268.439747 
L 206.932551 270.092901 
L 208.408499 271.779605 
L 209.804586 272.933608 
L 210.920703 273.524638 
L 211.882741 273.783181 
L 212.600686 273.817605 
L 213.570829 273.639528 
L 214.438602 273.252611 
L 215.25451 272.684679 
L 216.274814 271.68469 
L 217.402189 270.188899 
L 218.579166 268.168601 
L 219.76498 265.636252 
L 221.027158 262.366055 
L 222.333006 258.328218 
L 223.790082 252.996829 
L 225.202536 246.954371 
L 226.693245 239.594905 
L 228.352742 230.152923 
L 230.116586 218.594683 
L 231.733125 206.548358 
L 233.570575 191.075135 
L 235.442209 173.260522 
L 237.207646 154.454586 
L 238.375385 140.898462 
L 238.375385 140.898462 
" style="fill:none;stroke:#0000ff;stroke-linecap:square;"/>
   </g>
   <g id="patch_3">
    <path d="M 149.76 276.48 
L 149.76 138.24 
" style="fill:none;stroke:#000000;stroke-linecap:square;stroke-linejoin:miter;stroke-width:0.8;"/>
   </g>
   <g id="patch_4">
    <path d="M 57.6 207.360237 
L 241.92 207.360237 
" style="fill:none;stroke:#000000;stroke-linecap:square;stroke-linejoin:miter;stroke-width:0.8;"/>
   </g>
   <g id="text_9">
    <!-- n=4 -->
    <defs>
     <path d="M 54.890625 33.015625 
L 54.890625 0 
L 45.90625 0 
L 45.90625 32.71875 
Q 45.90625 40.484375 42.875 44.328125 
Q 39.84375 48.1875 33.796875 48.1875 
Q 26.515625 48.1875 22.3125 43.546875 
Q 18.109375 38.921875 18.109375 30.90625 
L 18.109375 0 
L 9.078125 0 
L 9.078125 54.6875 
L 18.109375 54.6875 
L 18.109375 46.1875 
Q 21.34375 51.125 25.703125 53.5625 
Q 30.078125 56 35.796875 56 
Q 45.21875 56 50.046875 50.171875 
Q 54.890625 44.34375 54.890625 33.015625 
z
" id="DejaVuSans-6e"/>
     <path d="M 10.59375 45.40625 
L 73.1875 45.40625 
L 73.1875 37.203125 
L 10.59375 37.203125 
z
M 10.59375 25.484375 
L 73.1875 25.484375 
L 73.1875 17.1875 
L 10.59375 17.1875 
z
" id="DejaVuSans-3d"/>
     <path d="M 37.796875 64.3125 
L 12.890625 25.390625 
L 37.796875 25.390625 
z
M 35.203125 72.90625 
L 47.609375 72.90625 
L 47.609375 25.390625 
L 58.015625 25.390625 
L 58.015625 17.1875 
L 47.609375 17.1875 
L 47.609375 0 
L 37.796875 0 
L 37.796875 17.1875 
L 4.890625 17.1875 
L 4.890625 26.703125 
z
" id="DejaVuSans-34"/>
    </defs>
    <g transform="translate(139.220156 132.24)scale(0.1 -0.1)">
     <use xlink:href="#DejaVuSans-6e"/>
     <use x="63.378906" xlink:href="#DejaVuSans-3d"/>
     <use x="147.167969" xlink:href="#DejaVuSans-34"/>
    </g>
   </g>
  </g>
  <g id="axes_2">
   <g id="patch_5">
    <path d="M 253.44 207.36 
L 437.76 207.36 
L 437.76 69.12 
L 253.44 69.12 
z
" style="fill:#ffffff;"/>
   </g>
   <g id="matplotlib.axis_3">
    <g id="xtick_22">
     <g id="line2d_44">
      <g>
       <use style="stroke:#000000;stroke-width:0.8;" x="256.984615" xlink:href="#m9fafdfd3af" y="138.240002"/>
      </g>
     </g>
     <g id="text_10">
      <!-- -1 -->
      <g transform="translate(251.999459 152.838439)scale(0.1 -0.1)">
       <use xlink:href="#DejaVuSans-2d"/>
       <use x="36.083984" xlink:href="#DejaVuSans-31"/>
      </g>
     </g>
    </g>
    <g id="xtick_23">
     <g id="line2d_45">
      <g>
       <use style="stroke:#000000;stroke-width:0.8;" x="301.292308" xlink:href="#m9fafdfd3af" y="138.240002"/>
      </g>
     </g>
     <g id="text_11">
      <!-- -0.5 -->
      <g transform="translate(291.536839 152.838439)scale(0.1 -0.1)">
       <use xlink:href="#DejaVuSans-2d"/>
       <use x="36.083984" xlink:href="#DejaVuSans-30"/>
       <use x="99.707031" xlink:href="#DejaVuSans-2e"/>
       <use x="131.494141" xlink:href="#DejaVuSans-35"/>
      </g>
     </g>
    </g>
    <g id="xtick_24">
     <g id="line2d_46">
      <g>
       <use style="stroke:#000000;stroke-width:0.8;" x="345.6" xlink:href="#m9fafdfd3af" y="138.240002"/>
      </g>
     </g>
    </g>
    <g id="xtick_25">
     <g id="line2d_47">
      <g>
       <use style="stroke:#000000;stroke-width:0.8;" x="389.907692" xlink:href="#m9fafdfd3af" y="138.240002"/>
      </g>
     </g>
     <g id="text_12">
      <!-- 0.5 -->
      <g transform="translate(381.95613 152.838439)scale(0.1 -0.1)">
       <use xlink:href="#DejaVuSans-30"/>
       <use x="63.623047" xlink:href="#DejaVuSans-2e"/>
       <use x="95.410156" xlink:href="#DejaVuSans-35"/>
      </g>
     </g>
    </g>
    <g id="xtick_26">
     <g id="line2d_48">
      <g>
       <use style="stroke:#000000;stroke-width:0.8;" x="434.215385" xlink:href="#m9fafdfd3af" y="138.240002"/>
      </g>
     </g>
     <g id="text_13">
      <!-- 1 -->
      <g transform="translate(431.034135 152.838439)scale(0.1 -0.1)">
       <use xlink:href="#DejaVuSans-31"/>
      </g>
     </g>
    </g>
    <g id="xtick_27">
     <g id="line2d_49">
      <g>
       <use style="stroke:#000000;stroke-width:0.6;" x="265.846154" xlink:href="#m0aa127a9f6" y="138.240002"/>
      </g>
     </g>
    </g>
    <g id="xtick_28">
     <g id="line2d_50">
      <g>
       <use style="stroke:#000000;stroke-width:0.6;" x="274.707692" xlink:href="#m0aa127a9f6" y="138.240002"/>
      </g>
     </g>
    </g>
    <g id="xtick_29">
     <g id="line2d_51">
      <g>
       <use style="stroke:#000000;stroke-width:0.6;" x="283.569231" xlink:href="#m0aa127a9f6" y="138.240002"/>
      </g>
     </g>
    </g>
    <g id="xtick_30">
     <g id="line2d_52">
      <g>
       <use style="stroke:#000000;stroke-width:0.6;" x="292.430769" xlink:href="#m0aa127a9f6" y="138.240002"/>
      </g>
     </g>
    </g>
    <g id="xtick_31">
     <g id="line2d_53">
      <g>
       <use style="stroke:#000000;stroke-width:0.6;" x="310.153846" xlink:href="#m0aa127a9f6" y="138.240002"/>
      </g>
     </g>
    </g>
    <g id="xtick_32">
     <g id="line2d_54">
      <g>
       <use style="stroke:#000000;stroke-width:0.6;" x="319.015385" xlink:href="#m0aa127a9f6" y="138.240002"/>
      </g>
     </g>
    </g>
    <g id="xtick_33">
     <g id="line2d_55">
      <g>
       <use style="stroke:#000000;stroke-width:0.6;" x="327.876923" xlink:href="#m0aa127a9f6" y="138.240002"/>
      </g>
     </g>
    </g>
    <g id="xtick_34">
     <g id="line2d_56">
      <g>
       <use style="stroke:#000000;stroke-width:0.6;" x="336.738462" xlink:href="#m0aa127a9f6" y="138.240002"/>
      </g>
     </g>
    </g>
    <g id="xtick_35">
     <g id="line2d_57">
      <g>
       <use style="stroke:#000000;stroke-width:0.6;" x="354.461538" xlink:href="#m0aa127a9f6" y="138.240002"/>
      </g>
     </g>
    </g>
    <g id="xtick_36">
     <g id="line2d_58">
      <g>
       <use style="stroke:#000000;stroke-width:0.6;" x="363.323077" xlink:href="#m0aa127a9f6" y="138.240002"/>
      </g>
     </g>
    </g>
    <g id="xtick_37">
     <g id="line2d_59">
      <g>
       <use style="stroke:#000000;stroke-width:0.6;" x="372.184615" xlink:href="#m0aa127a9f6" y="138.240002"/>
      </g>
     </g>
    </g>
    <g id="xtick_38">
     <g id="line2d_60">
      <g>
       <use style="stroke:#000000;stroke-width:0.6;" x="381.046154" xlink:href="#m0aa127a9f6" y="138.240002"/>
      </g>
     </g>
    </g>
    <g id="xtick_39">
     <g id="line2d_61">
      <g>
       <use style="stroke:#000000;stroke-width:0.6;" x="398.769231" xlink:href="#m0aa127a9f6" y="138.240002"/>
      </g>
     </g>
    </g>
    <g id="xtick_40">
     <g id="line2d_62">
      <g>
       <use style="stroke:#000000;stroke-width:0.6;" x="407.630769" xlink:href="#m0aa127a9f6" y="138.240002"/>
      </g>
     </g>
    </g>
    <g id="xtick_41">
     <g id="line2d_63">
      <g>
       <use style="stroke:#000000;stroke-width:0.6;" x="416.492308" xlink:href="#m0aa127a9f6" y="138.240002"/>
      </g>
     </g>
    </g>
    <g id="xtick_42">
     <g id="line2d_64">
      <g>
       <use style="stroke:#000000;stroke-width:0.6;" x="425.353846" xlink:href="#m0aa127a9f6" y="138.240002"/>
      </g>
     </g>
    </g>
   </g>
   <g id="matplotlib.axis_4">
    <g id="ytick_22">
     <g id="line2d_65">
      <g>
       <use style="stroke:#000000;stroke-width:0.8;" x="345.6" xlink:href="#m7d2e6d5b15" y="204.701542"/>
      </g>
     </g>
     <g id="text_14">
      <!-- -1 -->
      <g transform="translate(328.629688 208.500761)scale(0.1 -0.1)">
       <use xlink:href="#DejaVuSans-2d"/>
       <use x="36.083984" xlink:href="#DejaVuSans-31"/>
      </g>
     </g>
    </g>
    <g id="ytick_23">
     <g id="line2d_66">
      <g>
       <use style="stroke:#000000;stroke-width:0.8;" x="345.6" xlink:href="#m7d2e6d5b15" y="171.470772"/>
      </g>
     </g>
     <g id="text_15">
      <!-- -0.5 -->
      <g transform="translate(319.089063 175.269991)scale(0.1 -0.1)">
       <use xlink:href="#DejaVuSans-2d"/>
       <use x="36.083984" xlink:href="#DejaVuSans-30"/>
       <use x="99.707031" xlink:href="#DejaVuSans-2e"/>
       <use x="131.494141" xlink:href="#DejaVuSans-35"/>
      </g>
     </g>
    </g>
    <g id="ytick_24">
     <g id="line2d_67">
      <g>
       <use style="stroke:#000000;stroke-width:0.8;" x="345.6" xlink:href="#m7d2e6d5b15" y="138.240002"/>
      </g>
     </g>
    </g>
    <g id="ytick_25">
     <g id="line2d_68">
      <g>
       <use style="stroke:#000000;stroke-width:0.8;" x="345.6" xlink:href="#m7d2e6d5b15" y="105.009232"/>
      </g>
     </g>
     <g id="text_16">
      <!-- 0.5 -->
      <g transform="translate(322.696875 108.80845)scale(0.1 -0.1)">
       <use xlink:href="#DejaVuSans-30"/>
       <use x="63.623047" xlink:href="#DejaVuSans-2e"/>
       <use x="95.410156" xlink:href="#DejaVuSans-35"/>
      </g>
     </g>
    </g>
    <g id="ytick_26">
     <g id="line2d_69">
      <g>
       <use style="stroke:#000000;stroke-width:0.8;" x="345.6" xlink:href="#m7d2e6d5b15" y="71.778462"/>
      </g>
     </g>
     <g id="text_17">
      <!-- 1 -->
      <g transform="translate(332.2375 75.57768)scale(0.1 -0.1)">
       <use xlink:href="#DejaVuSans-31"/>
      </g>
     </g>
    </g>
    <g id="ytick_27">
     <g id="line2d_70">
      <g>
       <use style="stroke:#000000;stroke-width:0.6;" x="345.6" xlink:href="#m6ee0aaf489" y="198.055388"/>
      </g>
     </g>
    </g>
    <g id="ytick_28">
     <g id="line2d_71">
      <g>
       <use style="stroke:#000000;stroke-width:0.6;" x="345.6" xlink:href="#m6ee0aaf489" y="191.409234"/>
      </g>
     </g>
    </g>
    <g id="ytick_29">
     <g id="line2d_72">
      <g>
       <use style="stroke:#000000;stroke-width:0.6;" x="345.6" xlink:href="#m6ee0aaf489" y="184.76308"/>
      </g>
     </g>
    </g>
    <g id="ytick_30">
     <g id="line2d_73">
      <g>
       <use style="stroke:#000000;stroke-width:0.6;" x="345.6" xlink:href="#m6ee0aaf489" y="178.116926"/>
      </g>
     </g>
    </g>
    <g id="ytick_31">
     <g id="line2d_74">
      <g>
       <use style="stroke:#000000;stroke-width:0.6;" x="345.6" xlink:href="#m6ee0aaf489" y="164.824618"/>
      </g>
     </g>
    </g>
    <g id="ytick_32">
     <g id="line2d_75">
      <g>
       <use style="stroke:#000000;stroke-width:0.6;" x="345.6" xlink:href="#m6ee0aaf489" y="158.178464"/>
      </g>
     </g>
    </g>
    <g id="ytick_33">
     <g id="line2d_76">
      <g>
       <use style="stroke:#000000;stroke-width:0.6;" x="345.6" xlink:href="#m6ee0aaf489" y="151.53231"/>
      </g>
     </g>
    </g>
    <g id="ytick_34">
     <g id="line2d_77">
      <g>
       <use style="stroke:#000000;stroke-width:0.6;" x="345.6" xlink:href="#m6ee0aaf489" y="144.886156"/>
      </g>
     </g>
    </g>
    <g id="ytick_35">
     <g id="line2d_78">
      <g>
       <use style="stroke:#000000;stroke-width:0.6;" x="345.6" xlink:href="#m6ee0aaf489" y="131.593848"/>
      </g>
     </g>
    </g>
    <g id="ytick_36">
     <g id="line2d_79">
      <g>
       <use style="stroke:#000000;stroke-width:0.6;" x="345.6" xlink:href="#m6ee0aaf489" y="124.947694"/>
      </g>
     </g>
    </g>
    <g id="ytick_37">
     <g id="line2d_80">
      <g>
       <use style="stroke:#000000;stroke-width:0.6;" x="345.6" xlink:href="#m6ee0aaf489" y="118.30154"/>
      </g>
     </g>
    </g>
    <g id="ytick_38">
     <g id="line2d_81">
      <g>
       <use style="stroke:#000000;stroke-width:0.6;" x="345.6" xlink:href="#m6ee0aaf489" y="111.655386"/>
      </g>
     </g>
    </g>
    <g id="ytick_39">
     <g id="line2d_82">
      <g>
       <use style="stroke:#000000;stroke-width:0.6;" x="345.6" xlink:href="#m6ee0aaf489" y="98.363078"/>
      </g>
     </g>
    </g>
    <g id="ytick_40">
     <g id="line2d_83">
      <g>
       <use style="stroke:#000000;stroke-width:0.6;" x="345.6" xlink:href="#m6ee0aaf489" y="91.716924"/>
      </g>
     </g>
    </g>
    <g id="ytick_41">
     <g id="line2d_84">
      <g>
       <use style="stroke:#000000;stroke-width:0.6;" x="345.6" xlink:href="#m6ee0aaf489" y="85.07077"/>
      </g>
     </g>
    </g>
    <g id="ytick_42">
     <g id="line2d_85">
      <g>
       <use style="stroke:#000000;stroke-width:0.6;" x="345.6" xlink:href="#m6ee0aaf489" y="78.424616"/>
      </g>
     </g>
    </g>
   </g>
   <g id="line2d_86">
    <path clip-path="url(#pd06bada38a)" d="M 256.984615 71.778462 
L 257.969674 113.782544 
L 258.918519 145.113773 
L 259.776942 166.719135 
L 260.609671 182.330402 
L 261.348619 192.312925 
L 262.014937 198.56453 
L 262.563338 201.968091 
L 263.043189 203.785535 
L 263.416456 204.515566 
L 263.721174 204.701396 
L 263.995952 204.573251 
L 264.270731 204.181423 
L 264.637102 203.275815 
L 265.186659 201.168448 
L 265.808397 197.828569 
L 266.670221 191.797303 
L 267.711335 182.82302 
L 269.275841 167.06179 
L 274.609164 111.092494 
L 276.064673 98.738685 
L 277.391757 89.336395 
L 278.477524 83.092437 
L 279.518711 78.383381 
L 280.382853 75.439294 
L 281.14797 73.560949 
L 281.847375 72.434977 
L 282.29174 72.00797 
L 282.858635 71.782005 
L 283.404462 71.894691 
L 283.890128 72.260166 
L 284.409663 72.919503 
L 285.075273 74.155156 
L 285.724512 75.764893 
L 286.58989 78.495074 
L 287.692373 82.863006 
L 289.007635 89.225798 
L 290.463578 97.491248 
L 292.212931 108.720786 
L 294.784124 126.784349 
L 299.353311 159.143549 
L 301.574005 173.144634 
L 303.24389 182.342271 
L 304.72082 189.320997 
L 306.078138 194.666896 
L 307.150433 198.117489 
L 308.233133 200.880529 
L 309.172119 202.676285 
L 309.930993 203.715094 
L 310.551798 204.289686 
L 311.219135 204.631526 
L 311.928113 204.683326 
L 312.595161 204.441978 
L 313.290418 203.89523 
L 314.078598 202.91786 
L 314.880718 201.54285 
L 315.860692 199.360069 
L 316.881686 196.52417 
L 318.158108 192.223657 
L 319.518424 186.79602 
L 321.222238 178.92158 
L 323.097748 169.115962 
L 325.61056 154.648824 
L 333.475354 107.976705 
L 335.488682 97.702891 
L 337.305243 89.607664 
L 338.864383 83.7141 
L 340.060988 79.926493 
L 341.131028 77.118964 
L 342.143923 74.988878 
L 343.101928 73.461853 
L 343.964261 72.501881 
L 344.63248 72.031836 
L 345.408584 71.788385 
L 346.030961 71.828757 
L 346.656586 72.080598 
L 347.282211 72.543494 
L 348.09635 73.459543 
L 348.969645 74.83146 
L 349.898134 76.723192 
L 351.052491 79.678748 
L 352.135761 83.035497 
L 353.606328 88.439868 
L 355.181573 95.216311 
L 357.028098 104.285929 
L 359.176604 116.058117 
L 362.373882 135.097837 
L 367.548615 166.037438 
L 369.663899 177.356035 
L 371.565233 186.294468 
L 373.066499 192.314084 
L 374.254129 196.327478 
L 375.466291 199.673306 
L 376.55106 201.978912 
L 377.44997 203.370934 
L 378.200597 204.160432 
L 378.894151 204.580969 
L 379.397661 204.697423 
L 380.11591 204.585358 
L 380.737901 204.22197 
L 381.310712 203.667613 
L 382.132858 202.503484 
L 382.990163 200.828843 
L 383.847467 198.688889 
L 384.949706 195.267812 
L 386.058549 191.091087 
L 387.314164 185.517555 
L 388.756509 178.095155 
L 390.57432 167.383508 
L 392.621127 153.891548 
L 395.157352 135.889734 
L 399.351324 106.288504 
L 401.146516 95.049094 
L 402.674352 86.760355 
L 403.880685 81.279578 
L 404.995488 77.199532 
L 405.834239 74.827254 
L 406.674544 73.103374 
L 407.271167 72.299826 
L 407.864248 71.862978 
L 408.212818 71.779694 
L 408.618731 71.848347 
L 409.024643 72.098392 
L 409.633511 72.819979 
L 410.222655 73.92093 
L 410.969565 75.895 
L 411.707652 78.486965 
L 412.558196 82.265471 
L 413.550643 87.733988 
L 414.725082 95.631956 
L 416.004925 105.881381 
L 417.488068 119.626142 
L 419.564992 141.319305 
L 423.285681 180.905241 
L 424.598509 192.330338 
L 425.513532 198.556532 
L 426.262998 202.231363 
L 426.804423 203.920528 
L 427.199732 204.569093 
L 427.515979 204.697609 
L 427.753165 204.550178 
L 428.048517 204.05655 
L 428.397516 203.00252 
L 428.862849 200.743494 
L 429.38729 196.923808 
L 430.00899 190.465729 
L 430.643762 181.473512 
L 431.411501 166.970181 
L 432.210309 147.136192 
L 433.031993 121.030853 
L 433.941749 84.492324 
L 434.215385 71.778462 
L 434.215385 71.778462 
" style="fill:none;stroke:#ff0000;stroke-linecap:square;"/>
   </g>
   <g id="patch_6">
    <path d="M 345.6 207.36 
L 345.6 69.12 
" style="fill:none;stroke:#000000;stroke-linecap:square;stroke-linejoin:miter;stroke-width:0.8;"/>
   </g>
   <g id="patch_7">
    <path d="M 253.44 138.240002 
L 437.76 138.240002 
" style="fill:none;stroke:#000000;stroke-linecap:square;stroke-linejoin:miter;stroke-width:0.8;"/>
   </g>
   <g id="text_18">
    <!-- n=8 -->
    <defs>
     <path d="M 31.78125 34.625 
Q 24.75 34.625 20.71875 30.859375 
Q 16.703125 27.09375 16.703125 20.515625 
Q 16.703125 13.921875 20.71875 10.15625 
Q 24.75 6.390625 31.78125 6.390625 
Q 38.8125 6.390625 42.859375 10.171875 
Q 46.921875 13.96875 46.921875 20.515625 
Q 46.921875 27.09375 42.890625 30.859375 
Q 38.875 34.625 31.78125 34.625 
z
M 21.921875 38.8125 
Q 15.578125 40.375 12.03125 44.71875 
Q 8.5 49.078125 8.5 55.328125 
Q 8.5 64.0625 14.71875 69.140625 
Q 20.953125 74.21875 31.78125 74.21875 
Q 42.671875 74.21875 48.875 69.140625 
Q 55.078125 64.0625 55.078125 55.328125 
Q 55.078125 49.078125 51.53125 44.71875 
Q 48 40.375 41.703125 38.8125 
Q 48.828125 37.15625 52.796875 32.3125 
Q 56.78125 27.484375 56.78125 20.515625 
Q 56.78125 9.90625 50.3125 4.234375 
Q 43.84375 -1.421875 31.78125 -1.421875 
Q 19.734375 -1.421875 13.25 4.234375 
Q 6.78125 9.90625 6.78125 20.515625 
Q 6.78125 27.484375 10.78125 32.3125 
Q 14.796875 37.15625 21.921875 38.8125 
z
M 18.3125 54.390625 
Q 18.3125 48.734375 21.84375 45.5625 
Q 25.390625 42.390625 31.78125 42.390625 
Q 38.140625 42.390625 41.71875 45.5625 
Q 45.3125 48.734375 45.3125 54.390625 
Q 45.3125 60.0625 41.71875 63.234375 
Q 38.140625 66.40625 31.78125 66.40625 
Q 25.390625 66.40625 21.84375 63.234375 
Q 18.3125 60.0625 18.3125 54.390625 
z
" id="DejaVuSans-38"/>
    </defs>
    <g transform="translate(335.060156 63.12)scale(0.1 -0.1)">
     <use xlink:href="#DejaVuSans-6e"/>
     <use x="63.378906" xlink:href="#DejaVuSans-3d"/>
     <use x="147.167969" xlink:href="#DejaVuSans-38"/>
    </g>
   </g>
  </g>
  <g id="axes_3">
   <g id="patch_8">
    <path d="M 253.44 307.584 
L 437.76 307.584 
L 437.76 255.744 
L 253.44 255.744 
z
" style="fill:#ffffff;"/>
   </g>
   <g id="matplotlib.axis_5">
    <g id="xtick_43">
     <g id="line2d_87">
      <g>
       <use style="stroke:#000000;stroke-width:0.8;" x="256.984615" xlink:href="#m9fafdfd3af" y="281.664002"/>
      </g>
     </g>
     <g id="text_19">
      <!-- -1 -->
      <g transform="translate(251.999459 296.26244)scale(0.1 -0.1)">
       <use xlink:href="#DejaVuSans-2d"/>
       <use x="36.083984" xlink:href="#DejaVuSans-31"/>
      </g>
     </g>
    </g>
    <g id="xtick_44">
     <g id="line2d_88">
      <g>
       <use style="stroke:#000000;stroke-width:0.8;" x="301.292308" xlink:href="#m9fafdfd3af" y="281.664002"/>
      </g>
     </g>
     <g id="text_20">
      <!-- -0.5 -->
      <g transform="translate(291.536839 296.26244)scale(0.1 -0.1)">
       <use xlink:href="#DejaVuSans-2d"/>
       <use x="36.083984" xlink:href="#DejaVuSans-30"/>
       <use x="99.707031" xlink:href="#DejaVuSans-2e"/>
       <use x="131.494141" xlink:href="#DejaVuSans-35"/>
      </g>
     </g>
    </g>
    <g id="xtick_45">
     <g id="line2d_89">
      <g>
       <use style="stroke:#000000;stroke-width:0.8;" x="345.6" xlink:href="#m9fafdfd3af" y="281.664002"/>
      </g>
     </g>
    </g>
    <g id="xtick_46">
     <g id="line2d_90">
      <g>
       <use style="stroke:#000000;stroke-width:0.8;" x="389.907692" xlink:href="#m9fafdfd3af" y="281.664002"/>
      </g>
     </g>
     <g id="text_21">
      <!-- 0.5 -->
      <g transform="translate(381.95613 296.26244)scale(0.1 -0.1)">
       <use xlink:href="#DejaVuSans-30"/>
       <use x="63.623047" xlink:href="#DejaVuSans-2e"/>
       <use x="95.410156" xlink:href="#DejaVuSans-35"/>
      </g>
     </g>
    </g>
    <g id="xtick_47">
     <g id="line2d_91">
      <g>
       <use style="stroke:#000000;stroke-width:0.8;" x="434.215385" xlink:href="#m9fafdfd3af" y="281.664002"/>
      </g>
     </g>
     <g id="text_22">
      <!-- 1 -->
      <g transform="translate(431.034135 296.26244)scale(0.1 -0.1)">
       <use xlink:href="#DejaVuSans-31"/>
      </g>
     </g>
    </g>
    <g id="xtick_48">
     <g id="line2d_92">
      <g>
       <use style="stroke:#000000;stroke-width:0.6;" x="265.846154" xlink:href="#m0aa127a9f6" y="281.664002"/>
      </g>
     </g>
    </g>
    <g id="xtick_49">
     <g id="line2d_93">
      <g>
       <use style="stroke:#000000;stroke-width:0.6;" x="274.707692" xlink:href="#m0aa127a9f6" y="281.664002"/>
      </g>
     </g>
    </g>
    <g id="xtick_50">
     <g id="line2d_94">
      <g>
       <use style="stroke:#000000;stroke-width:0.6;" x="283.569231" xlink:href="#m0aa127a9f6" y="281.664002"/>
      </g>
     </g>
    </g>
    <g id="xtick_51">
     <g id="line2d_95">
      <g>
       <use style="stroke:#000000;stroke-width:0.6;" x="292.430769" xlink:href="#m0aa127a9f6" y="281.664002"/>
      </g>
     </g>
    </g>
    <g id="xtick_52">
     <g id="line2d_96">
      <g>
       <use style="stroke:#000000;stroke-width:0.6;" x="310.153846" xlink:href="#m0aa127a9f6" y="281.664002"/>
      </g>
     </g>
    </g>
    <g id="xtick_53">
     <g id="line2d_97">
      <g>
       <use style="stroke:#000000;stroke-width:0.6;" x="319.015385" xlink:href="#m0aa127a9f6" y="281.664002"/>
      </g>
     </g>
    </g>
    <g id="xtick_54">
     <g id="line2d_98">
      <g>
       <use style="stroke:#000000;stroke-width:0.6;" x="327.876923" xlink:href="#m0aa127a9f6" y="281.664002"/>
      </g>
     </g>
    </g>
    <g id="xtick_55">
     <g id="line2d_99">
      <g>
       <use style="stroke:#000000;stroke-width:0.6;" x="336.738462" xlink:href="#m0aa127a9f6" y="281.664002"/>
      </g>
     </g>
    </g>
    <g id="xtick_56">
     <g id="line2d_100">
      <g>
       <use style="stroke:#000000;stroke-width:0.6;" x="354.461538" xlink:href="#m0aa127a9f6" y="281.664002"/>
      </g>
     </g>
    </g>
    <g id="xtick_57">
     <g id="line2d_101">
      <g>
       <use style="stroke:#000000;stroke-width:0.6;" x="363.323077" xlink:href="#m0aa127a9f6" y="281.664002"/>
      </g>
     </g>
    </g>
    <g id="xtick_58">
     <g id="line2d_102">
      <g>
       <use style="stroke:#000000;stroke-width:0.6;" x="372.184615" xlink:href="#m0aa127a9f6" y="281.664002"/>
      </g>
     </g>
    </g>
    <g id="xtick_59">
     <g id="line2d_103">
      <g>
       <use style="stroke:#000000;stroke-width:0.6;" x="381.046154" xlink:href="#m0aa127a9f6" y="281.664002"/>
      </g>
     </g>
    </g>
    <g id="xtick_60">
     <g id="line2d_104">
      <g>
       <use style="stroke:#000000;stroke-width:0.6;" x="398.769231" xlink:href="#m0aa127a9f6" y="281.664002"/>
      </g>
     </g>
    </g>
    <g id="xtick_61">
     <g id="line2d_105">
      <g>
       <use style="stroke:#000000;stroke-width:0.6;" x="407.630769" xlink:href="#m0aa127a9f6" y="281.664002"/>
      </g>
     </g>
    </g>
    <g id="xtick_62">
     <g id="line2d_106">
      <g>
       <use style="stroke:#000000;stroke-width:0.6;" x="416.492308" xlink:href="#m0aa127a9f6" y="281.664002"/>
      </g>
     </g>
    </g>
    <g id="xtick_63">
     <g id="line2d_107">
      <g>
       <use style="stroke:#000000;stroke-width:0.6;" x="425.353846" xlink:href="#m0aa127a9f6" y="281.664002"/>
      </g>
     </g>
    </g>
   </g>
   <g id="matplotlib.axis_6">
    <g id="ytick_43">
     <g id="line2d_108">
      <g>
       <use style="stroke:#000000;stroke-width:0.8;" x="345.6" xlink:href="#m7d2e6d5b15" y="306.587082"/>
      </g>
     </g>
     <g id="text_23">
      <!-- -1 -->
      <g transform="translate(328.629688 310.3863)scale(0.1 -0.1)">
       <use xlink:href="#DejaVuSans-2d"/>
       <use x="36.083984" xlink:href="#DejaVuSans-31"/>
      </g>
     </g>
    </g>
    <g id="ytick_44">
     <g id="line2d_109">
      <g>
       <use style="stroke:#000000;stroke-width:0.8;" x="345.6" xlink:href="#m7d2e6d5b15" y="294.125542"/>
      </g>
     </g>
     <g id="text_24">
      <!-- -0.5 -->
      <g transform="translate(319.089063 297.924761)scale(0.1 -0.1)">
       <use xlink:href="#DejaVuSans-2d"/>
       <use x="36.083984" xlink:href="#DejaVuSans-30"/>
       <use x="99.707031" xlink:href="#DejaVuSans-2e"/>
       <use x="131.494141" xlink:href="#DejaVuSans-35"/>
      </g>
     </g>
    </g>
    <g id="ytick_45">
     <g id="line2d_110">
      <g>
       <use style="stroke:#000000;stroke-width:0.8;" x="345.6" xlink:href="#m7d2e6d5b15" y="281.664002"/>
      </g>
     </g>
    </g>
    <g id="ytick_46">
     <g id="line2d_111">
      <g>
       <use style="stroke:#000000;stroke-width:0.8;" x="345.6" xlink:href="#m7d2e6d5b15" y="269.202463"/>
      </g>
     </g>
     <g id="text_25">
      <!-- 0.5 -->
      <g transform="translate(322.696875 273.001681)scale(0.1 -0.1)">
       <use xlink:href="#DejaVuSans-30"/>
       <use x="63.623047" xlink:href="#DejaVuSans-2e"/>
       <use x="95.410156" xlink:href="#DejaVuSans-35"/>
      </g>
     </g>
    </g>
    <g id="ytick_47">
     <g id="line2d_112">
      <g>
       <use style="stroke:#000000;stroke-width:0.8;" x="345.6" xlink:href="#m7d2e6d5b15" y="256.740923"/>
      </g>
     </g>
     <g id="text_26">
      <!-- 1 -->
      <g transform="translate(332.2375 260.540142)scale(0.1 -0.1)">
       <use xlink:href="#DejaVuSans-31"/>
      </g>
     </g>
    </g>
    <g id="ytick_48">
     <g id="line2d_113">
      <g>
       <use style="stroke:#000000;stroke-width:0.6;" x="345.6" xlink:href="#m6ee0aaf489" y="304.094774"/>
      </g>
     </g>
    </g>
    <g id="ytick_49">
     <g id="line2d_114">
      <g>
       <use style="stroke:#000000;stroke-width:0.6;" x="345.6" xlink:href="#m6ee0aaf489" y="301.602466"/>
      </g>
     </g>
    </g>
    <g id="ytick_50">
     <g id="line2d_115">
      <g>
       <use style="stroke:#000000;stroke-width:0.6;" x="345.6" xlink:href="#m6ee0aaf489" y="299.110158"/>
      </g>
     </g>
    </g>
    <g id="ytick_51">
     <g id="line2d_116">
      <g>
       <use style="stroke:#000000;stroke-width:0.6;" x="345.6" xlink:href="#m6ee0aaf489" y="296.61785"/>
      </g>
     </g>
    </g>
    <g id="ytick_52">
     <g id="line2d_117">
      <g>
       <use style="stroke:#000000;stroke-width:0.6;" x="345.6" xlink:href="#m6ee0aaf489" y="291.633234"/>
      </g>
     </g>
    </g>
    <g id="ytick_53">
     <g id="line2d_118">
      <g>
       <use style="stroke:#000000;stroke-width:0.6;" x="345.6" xlink:href="#m6ee0aaf489" y="289.140926"/>
      </g>
     </g>
    </g>
    <g id="ytick_54">
     <g id="line2d_119">
      <g>
       <use style="stroke:#000000;stroke-width:0.6;" x="345.6" xlink:href="#m6ee0aaf489" y="286.648618"/>
      </g>
     </g>
    </g>
    <g id="ytick_55">
     <g id="line2d_120">
      <g>
       <use style="stroke:#000000;stroke-width:0.6;" x="345.6" xlink:href="#m6ee0aaf489" y="284.15631"/>
      </g>
     </g>
    </g>
    <g id="ytick_56">
     <g id="line2d_121">
      <g>
       <use style="stroke:#000000;stroke-width:0.6;" x="345.6" xlink:href="#m6ee0aaf489" y="279.171694"/>
      </g>
     </g>
    </g>
    <g id="ytick_57">
     <g id="line2d_122">
      <g>
       <use style="stroke:#000000;stroke-width:0.6;" x="345.6" xlink:href="#m6ee0aaf489" y="276.679386"/>
      </g>
     </g>
    </g>
    <g id="ytick_58">
     <g id="line2d_123">
      <g>
       <use style="stroke:#000000;stroke-width:0.6;" x="345.6" xlink:href="#m6ee0aaf489" y="274.187079"/>
      </g>
     </g>
    </g>
    <g id="ytick_59">
     <g id="line2d_124">
      <g>
       <use style="stroke:#000000;stroke-width:0.6;" x="345.6" xlink:href="#m6ee0aaf489" y="271.694771"/>
      </g>
     </g>
    </g>
    <g id="ytick_60">
     <g id="line2d_125">
      <g>
       <use style="stroke:#000000;stroke-width:0.6;" x="345.6" xlink:href="#m6ee0aaf489" y="266.710155"/>
      </g>
     </g>
    </g>
    <g id="ytick_61">
     <g id="line2d_126">
      <g>
       <use style="stroke:#000000;stroke-width:0.6;" x="345.6" xlink:href="#m6ee0aaf489" y="264.217847"/>
      </g>
     </g>
    </g>
    <g id="ytick_62">
     <g id="line2d_127">
      <g>
       <use style="stroke:#000000;stroke-width:0.6;" x="345.6" xlink:href="#m6ee0aaf489" y="261.725539"/>
      </g>
     </g>
    </g>
    <g id="ytick_63">
     <g id="line2d_128">
      <g>
       <use style="stroke:#000000;stroke-width:0.6;" x="345.6" xlink:href="#m6ee0aaf489" y="259.233231"/>
      </g>
     </g>
    </g>
   </g>
   <g id="line2d_129">
    <path clip-path="url(#p050e221c02)" d="M 256.984615 256.740923 
L 257.498192 285.453298 
L 257.947572 299.370036 
L 258.322995 305.013239 
L 258.597606 306.498876 
L 258.733378 306.564755 
L 258.86915 306.252487 
L 259.095436 305.010147 
L 259.457495 301.547515 
L 260.096584 292.718874 
L 261.870882 267.067611 
L 262.524653 261.032772 
L 263.048666 258.083422 
L 263.432943 256.990722 
L 263.714356 256.741608 
L 263.934111 256.854692 
L 264.190492 257.30836 
L 264.556751 258.511715 
L 265.03245 260.933538 
L 265.689745 265.558342 
L 266.62863 273.825888 
L 269.004722 295.256755 
L 269.885578 300.998661 
L 270.575241 304.148308 
L 271.117544 305.725341 
L 271.578447 306.432991 
L 271.887495 306.585774 
L 272.205999 306.479682 
L 272.571783 306.039075 
L 272.99853 305.116064 
L 273.527287 303.408485 
L 274.216023 300.36251 
L 275.155619 295.018966 
L 276.313533 287.239247 
L 278.899854 269.652109 
L 279.983453 263.837672 
L 280.827658 260.400241 
L 281.520247 258.397205 
L 282.136357 257.269939 
L 282.587535 256.842055 
L 282.976342 256.742028 
L 283.365149 256.887024 
L 283.795141 257.325575 
L 284.307504 258.214702 
L 284.905262 259.725333 
L 285.671214 262.334148 
L 286.548672 266.111651 
L 287.748974 272.292029 
L 292.360825 297.408307 
L 293.441267 301.589396 
L 294.284346 304.030853 
L 294.947291 305.39507 
L 295.53998 306.182294 
L 296.026099 306.518236 
L 296.498423 306.577088 
L 296.970746 306.375002 
L 297.456801 305.900294 
L 298.014907 305.032676 
L 298.65878 303.625329 
L 299.444988 301.363705 
L 300.340255 298.150507 
L 301.48405 293.253609 
L 303.177789 284.9742 
L 306.13282 270.410647 
L 307.5194 264.732085 
L 308.632622 261.122591 
L 309.486471 259.038923 
L 310.245708 257.732254 
L 310.882468 257.050669 
L 311.379897 256.786267 
L 311.862964 256.755419 
L 312.39842 256.979656 
L 312.934511 257.471855 
L 313.62238 258.483603 
L 314.334468 259.958978 
L 315.172521 262.209745 
L 316.280077 265.931209 
L 317.55747 271.061708 
L 319.228566 278.622022 
L 322.499187 293.451933 
L 323.888758 298.688719 
L 324.989859 302.033789 
L 325.937136 304.229686 
L 326.680967 305.467726 
L 327.398229 306.234535 
L 328.034756 306.554607 
L 328.529967 306.567029 
L 329.104547 306.322746 
L 329.652165 305.83464 
L 330.359812 304.844664 
L 331.164584 303.248867 
L 332.06688 300.90939 
L 333.108845 297.568561 
L 334.498751 292.254371 
L 336.553453 283.294268 
L 339.55086 270.205025 
L 340.958438 264.999908 
L 342.130306 261.476141 
L 343.1294 259.180392 
L 343.88115 257.931712 
L 344.509663 257.222354 
L 345.146084 256.824581 
L 345.741501 256.749057 
L 346.234837 256.904473 
L 346.751289 257.277488 
L 347.337088 257.95691 
L 348.047353 259.135435 
L 348.860102 260.937258 
L 349.839117 263.696818 
L 350.964382 267.557763 
L 352.441025 273.48463 
L 355.19007 285.736578 
L 357.311294 294.689854 
L 358.670186 299.50343 
L 359.740122 302.544563 
L 360.63454 304.483278 
L 361.439615 305.709165 
L 362.026737 306.275069 
L 362.546944 306.53801 
L 363.133432 306.561633 
L 363.681156 306.321384 
L 364.227293 305.831024 
L 364.864814 304.947242 
L 365.662985 303.384084 
L 366.583685 300.989179 
L 367.64374 297.529118 
L 368.846988 292.847144 
L 370.62301 284.945298 
L 374.126295 269.030765 
L 375.425512 264.13598 
L 376.532606 260.789502 
L 377.424902 258.764295 
L 378.228938 257.514998 
L 378.822107 256.966096 
L 379.325533 256.757391 
L 379.828958 256.788909 
L 380.302904 257.039526 
L 380.85584 257.601883 
L 381.481745 258.584077 
L 382.216982 260.191484 
L 383.063827 262.614483 
L 384.051086 266.133745 
L 385.221259 271.107273 
L 386.895928 279.23752 
L 390.159179 295.240629 
L 391.401403 300.169622 
L 392.383626 303.217995 
L 393.161413 304.98847 
L 393.814838 305.986961 
L 394.312498 306.429356 
L 394.762062 306.584203 
L 395.211626 306.502181 
L 395.659908 306.182403 
L 396.160914 305.543982 
L 396.745422 304.429052 
L 397.404936 302.707101 
L 398.222647 299.929943 
L 399.267029 295.46613 
L 400.474485 289.293482 
L 402.917056 275.288774 
L 404.61274 266.294261 
L 405.704703 261.673165 
L 406.513678 259.11539 
L 407.152509 257.714885 
L 407.674856 257.016555 
L 408.124385 256.755951 
L 408.498993 256.787284 
L 408.900012 257.075868 
L 409.305344 257.637623 
L 409.879158 258.895181 
L 410.53546 260.981793 
L 411.315342 264.306617 
L 412.192842 269.015439 
L 413.436961 277.017045 
L 416.688619 298.811955 
L 417.576012 303.033758 
L 418.207222 305.131306 
L 418.713248 306.171135 
L 419.127529 306.556231 
L 419.431453 306.557157 
L 419.746448 306.298384 
L 420.106443 305.672617 
L 420.587536 304.282223 
L 421.14206 301.90272 
L 421.789005 298.127829 
L 422.631316 291.802842 
L 423.785214 281.344723 
L 425.673318 264.295638 
L 426.405243 259.611591 
L 426.907636 257.579913 
L 427.273013 256.846946 
L 427.513141 256.746116 
L 427.742904 256.95144 
L 428.004351 257.560375 
L 428.36085 259.05833 
L 428.828349 262.214821 
L 429.395367 267.817596 
L 430.112433 277.313155 
L 432.038785 304.501971 
L 432.379735 306.405646 
L 432.525857 306.585217 
L 432.623271 306.452243 
L 432.8181 305.499503 
L 433.052963 302.948115 
L 433.347149 297.156202 
L 433.711248 285.06047 
L 434.131362 262.550629 
L 434.215385 256.740923 
L 434.215385 256.740923 
" style="fill:none;stroke:#a52a2a;stroke-linecap:square;"/>
   </g>
   <g id="patch_9">
    <path d="M 345.6 307.584 
L 345.6 255.744 
" style="fill:none;stroke:#000000;stroke-linecap:square;stroke-linejoin:miter;stroke-width:0.8;"/>
   </g>
   <g id="patch_10">
    <path d="M 253.44 281.664002 
L 437.76 281.664002 
" style="fill:none;stroke:#000000;stroke-linecap:square;stroke-linejoin:miter;stroke-width:0.8;"/>
   </g>
   <g id="text_27">
    <!-- n=16 -->
    <defs>
     <path d="M 33.015625 40.375 
Q 26.375 40.375 22.484375 35.828125 
Q 18.609375 31.296875 18.609375 23.390625 
Q 18.609375 15.53125 22.484375 10.953125 
Q 26.375 6.390625 33.015625 6.390625 
Q 39.65625 6.390625 43.53125 10.953125 
Q 47.40625 15.53125 47.40625 23.390625 
Q 47.40625 31.296875 43.53125 35.828125 
Q 39.65625 40.375 33.015625 40.375 
z
M 52.59375 71.296875 
L 52.59375 62.3125 
Q 48.875 64.0625 45.09375 64.984375 
Q 41.3125 65.921875 37.59375 65.921875 
Q 27.828125 65.921875 22.671875 59.328125 
Q 17.53125 52.734375 16.796875 39.40625 
Q 19.671875 43.65625 24.015625 45.921875 
Q 28.375 48.1875 33.59375 48.1875 
Q 44.578125 48.1875 50.953125 41.515625 
Q 57.328125 34.859375 57.328125 23.390625 
Q 57.328125 12.15625 50.6875 5.359375 
Q 44.046875 -1.421875 33.015625 -1.421875 
Q 20.359375 -1.421875 13.671875 8.265625 
Q 6.984375 17.96875 6.984375 36.375 
Q 6.984375 53.65625 15.1875 63.9375 
Q 23.390625 74.21875 37.203125 74.21875 
Q 40.921875 74.21875 44.703125 73.484375 
Q 48.484375 72.75 52.59375 71.296875 
z
" id="DejaVuSans-36"/>
    </defs>
    <g transform="translate(331.878906 249.744)scale(0.1 -0.1)">
     <use xlink:href="#DejaVuSans-6e"/>
     <use x="63.378906" xlink:href="#DejaVuSans-3d"/>
     <use x="147.167969" xlink:href="#DejaVuSans-31"/>
     <use x="210.791016" xlink:href="#DejaVuSans-36"/>
    </g>
   </g>
  </g>
 </g>
 <defs>
  <clipPath id="p65527ea586">
   <rect height="138.24" width="184.32" x="57.6" y="138.24"/>
  </clipPath>
  <clipPath id="pd06bada38a">
   <rect height="138.24" width="184.32" x="253.44" y="69.12"/>
  </clipPath>
  <clipPath id="p050e221c02">
   <rect height="51.84" width="184.32" x="253.44" y="255.744"/>
  </clipPath>
 </defs>
</svg>
