<?xml version="1.0" encoding="utf-8" standalone="no"?>
<!DOCTYPE svg PUBLIC "-//W3C//DTD SVG 1.1//EN"
  "http://www.w3.org/Graphics/SVG/1.1/DTD/svg11.dtd">
<!-- Created with matplotlib (https://matplotlib.org/) -->
<svg height="345.6pt" version="1.1" viewBox="0 0 460.8 345.6" width="460.8pt" xmlns="http://www.w3.org/2000/svg" xmlns:xlink="http://www.w3.org/1999/xlink">
 <metadata>
  <rdf:RDF xmlns:cc="http://creativecommons.org/ns#" xmlns:dc="http://purl.org/dc/elements/1.1/" xmlns:rdf="http://www.w3.org/1999/02/22-rdf-syntax-ns#">
   <cc:Work>
    <dc:type rdf:resource="http://purl.org/dc/dcmitype/StillImage"/>
    <dc:date>2021-05-10T20:20:20.344640</dc:date>
    <dc:format>image/svg+xml</dc:format>
    <dc:creator>
     <cc:Agent>
      <dc:title>Matplotlib v3.3.4, https://matplotlib.org/</dc:title>
     </cc:Agent>
    </dc:creator>
   </cc:Work>
  </rdf:RDF>
 </metadata>
 <defs>
  <style type="text/css">*{stroke-linecap:butt;stroke-linejoin:round;}</style>
 </defs>
 <g id="figure_1">
  <g id="patch_1">
   <path d="M 0 345.6 
L 460.8 345.6 
L 460.8 0 
L 0 0 
z
" style="fill:#ffffff;"/>
  </g>
  <g id="axes_1">
   <g id="patch_2">
    <path d="M 57.6 307.584 
L 414.72 307.584 
L 414.72 41.472 
L 57.6 41.472 
z
" style="fill:#ffffff;"/>
   </g>
   <g id="matplotlib.axis_1">
    <g id="xtick_1">
     <g id="line2d_1">
      <defs>
       <path d="M 0 0 
L 0 3.5 
" id="mf8841ae5ca" style="stroke:#000000;stroke-width:0.8;"/>
      </defs>
      <g>
       <use style="stroke:#000000;stroke-width:0.8;" x="72.205923" xlink:href="#mf8841ae5ca" y="174.527914"/>
      </g>
     </g>
     <g id="text_1">
      <!-- −3 -->
      <g transform="translate(64.834829 189.126352)scale(0.1 -0.1)">
       <defs>
        <path d="M 10.59375 35.5 
L 73.1875 35.5 
L 73.1875 27.203125 
L 10.59375 27.203125 
z
" id="DejaVuSans-8722"/>
        <path d="M 40.578125 39.3125 
Q 47.65625 37.796875 51.625 33 
Q 55.609375 28.21875 55.609375 21.1875 
Q 55.609375 10.40625 48.1875 4.484375 
Q 40.765625 -1.421875 27.09375 -1.421875 
Q 22.515625 -1.421875 17.65625 -0.515625 
Q 12.796875 0.390625 7.625 2.203125 
L 7.625 11.71875 
Q 11.71875 9.328125 16.59375 8.109375 
Q 21.484375 6.890625 26.8125 6.890625 
Q 36.078125 6.890625 40.9375 10.546875 
Q 45.796875 14.203125 45.796875 21.1875 
Q 45.796875 27.640625 41.28125 31.265625 
Q 36.765625 34.90625 28.71875 34.90625 
L 20.21875 34.90625 
L 20.21875 43.015625 
L 29.109375 43.015625 
Q 36.375 43.015625 40.234375 45.921875 
Q 44.09375 48.828125 44.09375 54.296875 
Q 44.09375 59.90625 40.109375 62.90625 
Q 36.140625 65.921875 28.71875 65.921875 
Q 24.65625 65.921875 20.015625 65.03125 
Q 15.375 64.15625 9.8125 62.3125 
L 9.8125 71.09375 
Q 15.4375 72.65625 20.34375 73.4375 
Q 25.25 74.21875 29.59375 74.21875 
Q 40.828125 74.21875 47.359375 69.109375 
Q 53.90625 64.015625 53.90625 55.328125 
Q 53.90625 49.265625 50.4375 45.09375 
Q 46.96875 40.921875 40.578125 39.3125 
z
" id="DejaVuSans-51"/>
       </defs>
       <use xlink:href="#DejaVuSans-8722"/>
       <use x="83.789062" xlink:href="#DejaVuSans-51"/>
      </g>
     </g>
    </g>
    <g id="xtick_2">
     <g id="line2d_2">
      <g>
       <use style="stroke:#000000;stroke-width:0.8;" x="126.857282" xlink:href="#mf8841ae5ca" y="174.527914"/>
      </g>
     </g>
     <g id="text_2">
      <!-- −2 -->
      <g transform="translate(119.486188 189.126352)scale(0.1 -0.1)">
       <defs>
        <path d="M 19.1875 8.296875 
L 53.609375 8.296875 
L 53.609375 0 
L 7.328125 0 
L 7.328125 8.296875 
Q 12.9375 14.109375 22.625 23.890625 
Q 32.328125 33.6875 34.8125 36.53125 
Q 39.546875 41.84375 41.421875 45.53125 
Q 43.3125 49.21875 43.3125 52.78125 
Q 43.3125 58.59375 39.234375 62.25 
Q 35.15625 65.921875 28.609375 65.921875 
Q 23.96875 65.921875 18.8125 64.3125 
Q 13.671875 62.703125 7.8125 59.421875 
L 7.8125 69.390625 
Q 13.765625 71.78125 18.9375 73 
Q 24.125 74.21875 28.421875 74.21875 
Q 39.75 74.21875 46.484375 68.546875 
Q 53.21875 62.890625 53.21875 53.421875 
Q 53.21875 48.921875 51.53125 44.890625 
Q 49.859375 40.875 45.40625 35.40625 
Q 44.1875 33.984375 37.640625 27.21875 
Q 31.109375 20.453125 19.1875 8.296875 
z
" id="DejaVuSans-50"/>
       </defs>
       <use xlink:href="#DejaVuSans-8722"/>
       <use x="83.789062" xlink:href="#DejaVuSans-50"/>
      </g>
     </g>
    </g>
    <g id="xtick_3">
     <g id="line2d_3">
      <g>
       <use style="stroke:#000000;stroke-width:0.8;" x="181.508641" xlink:href="#mf8841ae5ca" y="174.527914"/>
      </g>
     </g>
     <g id="text_3">
      <!-- −1 -->
      <g transform="translate(174.137547 189.126352)scale(0.1 -0.1)">
       <defs>
        <path d="M 12.40625 8.296875 
L 28.515625 8.296875 
L 28.515625 63.921875 
L 10.984375 60.40625 
L 10.984375 69.390625 
L 28.421875 72.90625 
L 38.28125 72.90625 
L 38.28125 8.296875 
L 54.390625 8.296875 
L 54.390625 0 
L 12.40625 0 
z
" id="DejaVuSans-49"/>
       </defs>
       <use xlink:href="#DejaVuSans-8722"/>
       <use x="83.789062" xlink:href="#DejaVuSans-49"/>
      </g>
     </g>
    </g>
    <g id="xtick_4">
     <g id="line2d_4">
      <g>
       <use style="stroke:#000000;stroke-width:0.8;" x="236.16" xlink:href="#mf8841ae5ca" y="174.527914"/>
      </g>
     </g>
    </g>
    <g id="xtick_5">
     <g id="line2d_5">
      <g>
       <use style="stroke:#000000;stroke-width:0.8;" x="290.811359" xlink:href="#mf8841ae5ca" y="174.527914"/>
      </g>
     </g>
     <g id="text_4">
      <!-- 1 -->
      <g transform="translate(287.630109 189.126352)scale(0.1 -0.1)">
       <use xlink:href="#DejaVuSans-49"/>
      </g>
     </g>
    </g>
    <g id="xtick_6">
     <g id="line2d_6">
      <g>
       <use style="stroke:#000000;stroke-width:0.8;" x="345.462718" xlink:href="#mf8841ae5ca" y="174.527914"/>
      </g>
     </g>
     <g id="text_5">
      <!-- 2 -->
      <g transform="translate(342.281468 189.126352)scale(0.1 -0.1)">
       <use xlink:href="#DejaVuSans-50"/>
      </g>
     </g>
    </g>
    <g id="xtick_7">
     <g id="line2d_7">
      <g>
       <use style="stroke:#000000;stroke-width:0.8;" x="400.114077" xlink:href="#mf8841ae5ca" y="174.527914"/>
      </g>
     </g>
     <g id="text_6">
      <!-- 3 -->
      <g transform="translate(396.932827 189.126352)scale(0.1 -0.1)">
       <use xlink:href="#DejaVuSans-51"/>
      </g>
     </g>
    </g>
    <g id="xtick_8">
     <g id="line2d_8">
      <defs>
       <path d="M 0 0 
L 0 2 
" id="mfaecd878d1" style="stroke:#000000;stroke-width:0.6;"/>
      </defs>
      <g>
       <use style="stroke:#000000;stroke-width:0.6;" x="61.275651" xlink:href="#mfaecd878d1" y="174.527914"/>
      </g>
     </g>
    </g>
    <g id="xtick_9">
     <g id="line2d_9">
      <g>
       <use style="stroke:#000000;stroke-width:0.6;" x="83.136195" xlink:href="#mfaecd878d1" y="174.527914"/>
      </g>
     </g>
    </g>
    <g id="xtick_10">
     <g id="line2d_10">
      <g>
       <use style="stroke:#000000;stroke-width:0.6;" x="94.066467" xlink:href="#mfaecd878d1" y="174.527914"/>
      </g>
     </g>
    </g>
    <g id="xtick_11">
     <g id="line2d_11">
      <g>
       <use style="stroke:#000000;stroke-width:0.6;" x="104.996739" xlink:href="#mfaecd878d1" y="174.527914"/>
      </g>
     </g>
    </g>
    <g id="xtick_12">
     <g id="line2d_12">
      <g>
       <use style="stroke:#000000;stroke-width:0.6;" x="115.92701" xlink:href="#mfaecd878d1" y="174.527914"/>
      </g>
     </g>
    </g>
    <g id="xtick_13">
     <g id="line2d_13">
      <g>
       <use style="stroke:#000000;stroke-width:0.6;" x="137.787554" xlink:href="#mfaecd878d1" y="174.527914"/>
      </g>
     </g>
    </g>
    <g id="xtick_14">
     <g id="line2d_14">
      <g>
       <use style="stroke:#000000;stroke-width:0.6;" x="148.717826" xlink:href="#mfaecd878d1" y="174.527914"/>
      </g>
     </g>
    </g>
    <g id="xtick_15">
     <g id="line2d_15">
      <g>
       <use style="stroke:#000000;stroke-width:0.6;" x="159.648098" xlink:href="#mfaecd878d1" y="174.527914"/>
      </g>
     </g>
    </g>
    <g id="xtick_16">
     <g id="line2d_16">
      <g>
       <use style="stroke:#000000;stroke-width:0.6;" x="170.578369" xlink:href="#mfaecd878d1" y="174.527914"/>
      </g>
     </g>
    </g>
    <g id="xtick_17">
     <g id="line2d_17">
      <g>
       <use style="stroke:#000000;stroke-width:0.6;" x="192.438913" xlink:href="#mfaecd878d1" y="174.527914"/>
      </g>
     </g>
    </g>
    <g id="xtick_18">
     <g id="line2d_18">
      <g>
       <use style="stroke:#000000;stroke-width:0.6;" x="203.369185" xlink:href="#mfaecd878d1" y="174.527914"/>
      </g>
     </g>
    </g>
    <g id="xtick_19">
     <g id="line2d_19">
      <g>
       <use style="stroke:#000000;stroke-width:0.6;" x="214.299456" xlink:href="#mfaecd878d1" y="174.527914"/>
      </g>
     </g>
    </g>
    <g id="xtick_20">
     <g id="line2d_20">
      <g>
       <use style="stroke:#000000;stroke-width:0.6;" x="225.229728" xlink:href="#mfaecd878d1" y="174.527914"/>
      </g>
     </g>
    </g>
    <g id="xtick_21">
     <g id="line2d_21">
      <g>
       <use style="stroke:#000000;stroke-width:0.6;" x="247.090272" xlink:href="#mfaecd878d1" y="174.527914"/>
      </g>
     </g>
    </g>
    <g id="xtick_22">
     <g id="line2d_22">
      <g>
       <use style="stroke:#000000;stroke-width:0.6;" x="258.020544" xlink:href="#mfaecd878d1" y="174.527914"/>
      </g>
     </g>
    </g>
    <g id="xtick_23">
     <g id="line2d_23">
      <g>
       <use style="stroke:#000000;stroke-width:0.6;" x="268.950815" xlink:href="#mfaecd878d1" y="174.527914"/>
      </g>
     </g>
    </g>
    <g id="xtick_24">
     <g id="line2d_24">
      <g>
       <use style="stroke:#000000;stroke-width:0.6;" x="279.881087" xlink:href="#mfaecd878d1" y="174.527914"/>
      </g>
     </g>
    </g>
    <g id="xtick_25">
     <g id="line2d_25">
      <g>
       <use style="stroke:#000000;stroke-width:0.6;" x="301.741631" xlink:href="#mfaecd878d1" y="174.527914"/>
      </g>
     </g>
    </g>
    <g id="xtick_26">
     <g id="line2d_26">
      <g>
       <use style="stroke:#000000;stroke-width:0.6;" x="312.671902" xlink:href="#mfaecd878d1" y="174.527914"/>
      </g>
     </g>
    </g>
    <g id="xtick_27">
     <g id="line2d_27">
      <g>
       <use style="stroke:#000000;stroke-width:0.6;" x="323.602174" xlink:href="#mfaecd878d1" y="174.527914"/>
      </g>
     </g>
    </g>
    <g id="xtick_28">
     <g id="line2d_28">
      <g>
       <use style="stroke:#000000;stroke-width:0.6;" x="334.532446" xlink:href="#mfaecd878d1" y="174.527914"/>
      </g>
     </g>
    </g>
    <g id="xtick_29">
     <g id="line2d_29">
      <g>
       <use style="stroke:#000000;stroke-width:0.6;" x="356.39299" xlink:href="#mfaecd878d1" y="174.527914"/>
      </g>
     </g>
    </g>
    <g id="xtick_30">
     <g id="line2d_30">
      <g>
       <use style="stroke:#000000;stroke-width:0.6;" x="367.323261" xlink:href="#mfaecd878d1" y="174.527914"/>
      </g>
     </g>
    </g>
    <g id="xtick_31">
     <g id="line2d_31">
      <g>
       <use style="stroke:#000000;stroke-width:0.6;" x="378.253533" xlink:href="#mfaecd878d1" y="174.527914"/>
      </g>
     </g>
    </g>
    <g id="xtick_32">
     <g id="line2d_32">
      <g>
       <use style="stroke:#000000;stroke-width:0.6;" x="389.183805" xlink:href="#mfaecd878d1" y="174.527914"/>
      </g>
     </g>
    </g>
    <g id="xtick_33">
     <g id="line2d_33">
      <g>
       <use style="stroke:#000000;stroke-width:0.6;" x="411.044349" xlink:href="#mfaecd878d1" y="174.527914"/>
      </g>
     </g>
    </g>
   </g>
   <g id="matplotlib.axis_2">
    <g id="ytick_1">
     <g id="line2d_34">
      <defs>
       <path d="M 0 0 
L -3.5 0 
" id="mf28b12dd01" style="stroke:#000000;stroke-width:0.8;"/>
      </defs>
      <g>
       <use style="stroke:#000000;stroke-width:0.8;" x="236.16" xlink:href="#mf28b12dd01" y="302.466462"/>
      </g>
     </g>
     <g id="text_7">
      <!-- −1.0 -->
      <g transform="translate(204.877187 306.265681)scale(0.1 -0.1)">
       <defs>
        <path d="M 10.6875 12.40625 
L 21 12.40625 
L 21 0 
L 10.6875 0 
z
" id="DejaVuSans-46"/>
        <path d="M 31.78125 66.40625 
Q 24.171875 66.40625 20.328125 58.90625 
Q 16.5 51.421875 16.5 36.375 
Q 16.5 21.390625 20.328125 13.890625 
Q 24.171875 6.390625 31.78125 6.390625 
Q 39.453125 6.390625 43.28125 13.890625 
Q 47.125 21.390625 47.125 36.375 
Q 47.125 51.421875 43.28125 58.90625 
Q 39.453125 66.40625 31.78125 66.40625 
z
M 31.78125 74.21875 
Q 44.046875 74.21875 50.515625 64.515625 
Q 56.984375 54.828125 56.984375 36.375 
Q 56.984375 17.96875 50.515625 8.265625 
Q 44.046875 -1.421875 31.78125 -1.421875 
Q 19.53125 -1.421875 13.0625 8.265625 
Q 6.59375 17.96875 6.59375 36.375 
Q 6.59375 54.828125 13.0625 64.515625 
Q 19.53125 74.21875 31.78125 74.21875 
z
" id="DejaVuSans-48"/>
       </defs>
       <use xlink:href="#DejaVuSans-8722"/>
       <use x="83.789062" xlink:href="#DejaVuSans-49"/>
       <use x="147.412109" xlink:href="#DejaVuSans-46"/>
       <use x="179.199219" xlink:href="#DejaVuSans-48"/>
      </g>
     </g>
    </g>
    <g id="ytick_2">
     <g id="line2d_35">
      <g>
       <use style="stroke:#000000;stroke-width:0.8;" x="236.16" xlink:href="#mf28b12dd01" y="238.497188"/>
      </g>
     </g>
     <g id="text_8">
      <!-- −0.5 -->
      <g transform="translate(204.877187 242.296407)scale(0.1 -0.1)">
       <defs>
        <path d="M 10.796875 72.90625 
L 49.515625 72.90625 
L 49.515625 64.59375 
L 19.828125 64.59375 
L 19.828125 46.734375 
Q 21.96875 47.46875 24.109375 47.828125 
Q 26.265625 48.1875 28.421875 48.1875 
Q 40.625 48.1875 47.75 41.5 
Q 54.890625 34.8125 54.890625 23.390625 
Q 54.890625 11.625 47.5625 5.09375 
Q 40.234375 -1.421875 26.90625 -1.421875 
Q 22.3125 -1.421875 17.546875 -0.640625 
Q 12.796875 0.140625 7.71875 1.703125 
L 7.71875 11.625 
Q 12.109375 9.234375 16.796875 8.0625 
Q 21.484375 6.890625 26.703125 6.890625 
Q 35.15625 6.890625 40.078125 11.328125 
Q 45.015625 15.765625 45.015625 23.390625 
Q 45.015625 31 40.078125 35.4375 
Q 35.15625 39.890625 26.703125 39.890625 
Q 22.75 39.890625 18.8125 39.015625 
Q 14.890625 38.140625 10.796875 36.28125 
z
" id="DejaVuSans-53"/>
       </defs>
       <use xlink:href="#DejaVuSans-8722"/>
       <use x="83.789062" xlink:href="#DejaVuSans-48"/>
       <use x="147.412109" xlink:href="#DejaVuSans-46"/>
       <use x="179.199219" xlink:href="#DejaVuSans-53"/>
      </g>
     </g>
    </g>
    <g id="ytick_3">
     <g id="line2d_36">
      <g>
       <use style="stroke:#000000;stroke-width:0.8;" x="236.16" xlink:href="#mf28b12dd01" y="174.527914"/>
      </g>
     </g>
    </g>
    <g id="ytick_4">
     <g id="line2d_37">
      <g>
       <use style="stroke:#000000;stroke-width:0.8;" x="236.16" xlink:href="#mf28b12dd01" y="110.55864"/>
      </g>
     </g>
     <g id="text_9">
      <!-- 0.5 -->
      <g transform="translate(213.256875 114.357859)scale(0.1 -0.1)">
       <use xlink:href="#DejaVuSans-48"/>
       <use x="63.623047" xlink:href="#DejaVuSans-46"/>
       <use x="95.410156" xlink:href="#DejaVuSans-53"/>
      </g>
     </g>
    </g>
    <g id="ytick_5">
     <g id="line2d_38">
      <g>
       <use style="stroke:#000000;stroke-width:0.8;" x="236.16" xlink:href="#mf28b12dd01" y="46.589366"/>
      </g>
     </g>
     <g id="text_10">
      <!-- 1.0 -->
      <g transform="translate(213.256875 50.388585)scale(0.1 -0.1)">
       <use xlink:href="#DejaVuSans-49"/>
       <use x="63.623047" xlink:href="#DejaVuSans-46"/>
       <use x="95.410156" xlink:href="#DejaVuSans-48"/>
      </g>
     </g>
    </g>
    <g id="ytick_6">
     <g id="line2d_39">
      <defs>
       <path d="M 0 0 
L -2 0 
" id="mc7049daffb" style="stroke:#000000;stroke-width:0.6;"/>
      </defs>
      <g>
       <use style="stroke:#000000;stroke-width:0.6;" x="236.16" xlink:href="#mc7049daffb" y="289.672607"/>
      </g>
     </g>
    </g>
    <g id="ytick_7">
     <g id="line2d_40">
      <g>
       <use style="stroke:#000000;stroke-width:0.6;" x="236.16" xlink:href="#mc7049daffb" y="276.878753"/>
      </g>
     </g>
    </g>
    <g id="ytick_8">
     <g id="line2d_41">
      <g>
       <use style="stroke:#000000;stroke-width:0.6;" x="236.16" xlink:href="#mc7049daffb" y="264.084898"/>
      </g>
     </g>
    </g>
    <g id="ytick_9">
     <g id="line2d_42">
      <g>
       <use style="stroke:#000000;stroke-width:0.6;" x="236.16" xlink:href="#mc7049daffb" y="251.291043"/>
      </g>
     </g>
    </g>
    <g id="ytick_10">
     <g id="line2d_43">
      <g>
       <use style="stroke:#000000;stroke-width:0.6;" x="236.16" xlink:href="#mc7049daffb" y="225.703333"/>
      </g>
     </g>
    </g>
    <g id="ytick_11">
     <g id="line2d_44">
      <g>
       <use style="stroke:#000000;stroke-width:0.6;" x="236.16" xlink:href="#mc7049daffb" y="212.909479"/>
      </g>
     </g>
    </g>
    <g id="ytick_12">
     <g id="line2d_45">
      <g>
       <use style="stroke:#000000;stroke-width:0.6;" x="236.16" xlink:href="#mc7049daffb" y="200.115624"/>
      </g>
     </g>
    </g>
    <g id="ytick_13">
     <g id="line2d_46">
      <g>
       <use style="stroke:#000000;stroke-width:0.6;" x="236.16" xlink:href="#mc7049daffb" y="187.321769"/>
      </g>
     </g>
    </g>
    <g id="ytick_14">
     <g id="line2d_47">
      <g>
       <use style="stroke:#000000;stroke-width:0.6;" x="236.16" xlink:href="#mc7049daffb" y="161.734059"/>
      </g>
     </g>
    </g>
    <g id="ytick_15">
     <g id="line2d_48">
      <g>
       <use style="stroke:#000000;stroke-width:0.6;" x="236.16" xlink:href="#mc7049daffb" y="148.940204"/>
      </g>
     </g>
    </g>
    <g id="ytick_16">
     <g id="line2d_49">
      <g>
       <use style="stroke:#000000;stroke-width:0.6;" x="236.16" xlink:href="#mc7049daffb" y="136.14635"/>
      </g>
     </g>
    </g>
    <g id="ytick_17">
     <g id="line2d_50">
      <g>
       <use style="stroke:#000000;stroke-width:0.6;" x="236.16" xlink:href="#mc7049daffb" y="123.352495"/>
      </g>
     </g>
    </g>
    <g id="ytick_18">
     <g id="line2d_51">
      <g>
       <use style="stroke:#000000;stroke-width:0.6;" x="236.16" xlink:href="#mc7049daffb" y="97.764785"/>
      </g>
     </g>
    </g>
    <g id="ytick_19">
     <g id="line2d_52">
      <g>
       <use style="stroke:#000000;stroke-width:0.6;" x="236.16" xlink:href="#mc7049daffb" y="84.97093"/>
      </g>
     </g>
    </g>
    <g id="ytick_20">
     <g id="line2d_53">
      <g>
       <use style="stroke:#000000;stroke-width:0.6;" x="236.16" xlink:href="#mc7049daffb" y="72.177076"/>
      </g>
     </g>
    </g>
    <g id="ytick_21">
     <g id="line2d_54">
      <g>
       <use style="stroke:#000000;stroke-width:0.6;" x="236.16" xlink:href="#mc7049daffb" y="59.383221"/>
      </g>
     </g>
    </g>
   </g>
   <g id="line2d_55">
    <path clip-path="url(#p360f320a3b)" d="M 64.467692 123.571503 
L 65.275929 78.793239 
L 65.841694 57.849189 
L 66.245812 49.340247 
L 66.569107 46.674707 
L 66.649931 46.591805 
L 66.811578 47.124074 
L 67.054049 49.647333 
L 67.404606 56.835767 
L 67.842803 71.278227 
L 68.456278 100.104412 
L 69.308739 151.316754 
L 71.014046 255.094814 
L 71.692484 283.537266 
L 72.167391 296.151446 
L 72.50661 301.064372 
L 72.777985 302.452402 
L 72.890979 302.361185 
L 73.06047 301.491685 
L 73.342955 298.120585 
L 73.681936 291.021332 
L 74.133912 276.772352 
L 74.75814 249.476272 
L 75.619399 201.914397 
L 77.542204 93.663282 
L 78.24321 66.395279 
L 78.743928 53.705914 
L 79.152603 48.015834 
L 79.360992 46.784097 
L 79.465186 46.593595 
L 79.56938 46.685938 
L 79.777768 47.713224 
L 80.09035 51.322483 
L 80.507127 59.827942 
L 81.018743 75.530936 
L 81.701011 103.953457 
L 82.795549 160.765368 
L 84.475496 247.872793 
L 85.278041 278.452131 
L 85.901007 294.123076 
L 86.316317 300.133038 
L 86.662409 302.314203 
L 86.800846 302.462348 
L 86.939282 302.198563 
L 87.146938 301.037718 
L 87.439402 297.875331 
L 87.863447 290.24825 
L 88.372301 276.720609 
L 88.987083 254.923022 
L 89.813718 218.66863 
L 92.61328 89.326492 
L 93.329214 66.971359 
L 93.903424 54.692293 
L 94.33591 49.075092 
L 94.660274 46.97647 
L 94.876516 46.589538 
L 94.984638 46.698341 
L 95.20088 47.515024 
L 95.548579 50.47303 
L 95.942947 56.192876 
L 96.46877 67.457364 
L 97.12605 86.670692 
L 98.023844 120.027593 
L 101.792087 270.284967 
L 102.514789 287.620289 
L 103.11704 297.134274 
L 103.598841 301.32712 
L 103.905921 302.389841 
L 104.059461 302.452658 
L 104.213001 302.205543 
L 104.520082 300.793254 
L 104.827162 298.183536 
L 105.287782 292.117199 
L 105.901943 280.306951 
L 106.655683 260.767034 
L 107.706033 226.528049 
L 111.788475 84.501735 
L 112.575473 66.673527 
L 113.233292 55.919039 
L 113.747823 50.316144 
L 114.262353 47.239435 
L 114.594194 46.596384 
L 114.760114 46.665629 
L 114.926034 46.992547 
L 115.257875 48.407842 
L 115.755636 52.378574 
L 116.253397 58.453377 
L 116.917079 69.550568 
L 117.74206 87.485368 
L 118.929454 119.42405 
L 121.207931 189.730865 
L 122.899245 238.524623 
L 124.115626 266.976318 
L 125.045009 283.55986 
L 125.841084 293.751538 
L 126.503849 299.273711 
L 126.955075 301.475172 
L 127.314606 302.330999 
L 127.554293 302.464119 
L 127.79398 302.252084 
L 128.033667 301.700015 
L 128.393198 300.247636 
L 128.752728 298.067344 
L 129.302683 293.387127 
L 130.035956 284.795386 
L 130.877255 272.000853 
L 131.973889 251.455944 
L 133.489801 218.045568 
L 137.826267 117.951435 
L 139.237161 91.597568 
L 140.313112 75.196355 
L 141.213644 64.221958 
L 142.090711 56.06379 
L 142.897386 50.797548 
L 143.502391 48.246074 
L 144.063318 46.931322 
L 144.343781 46.645193 
L 144.624245 46.601511 
L 144.904708 46.795951 
L 145.185171 47.223797 
L 145.746098 48.759019 
L 146.379535 51.53413 
L 147.012973 55.345164 
L 147.750275 60.982846 
L 148.695306 69.90014 
L 149.818569 82.602399 
L 151.443052 104.067029 
L 153.499544 134.462252 
L 157.987271 201.822726 
L 159.97997 228.227178 
L 161.803129 249.175258 
L 163.393824 264.612795 
L 164.831172 276.185816 
L 166.123837 284.669103 
L 167.32643 290.967746 
L 168.205856 294.639158 
L 169.237409 297.98757 
L 170.268962 300.358552 
L 171.265576 301.782485 
L 171.763883 302.194816 
L 172.262189 302.418118 
L 172.844334 302.450503 
L 173.426479 302.249145 
L 173.994366 301.840032 
L 175.05778 300.551319 
L 176.048831 298.79492 
L 177.013014 296.632223 
L 178.418987 292.789969 
L 179.444662 289.55312 
L 181.281236 283.042501 
L 182.721732 277.457767 
L 186.362442 262.344409 
L 191.531454 240.803999 
L 194.624333 228.90576 
L 197.929277 217.473705 
L 199.792602 211.684174 
L 202.720866 203.578769 
L 204.507846 199.226556 
L 207.035236 193.817657 
L 209.253043 189.760053 
L 211.24676 186.629421 
L 213.499219 183.640785 
L 214.934489 182.018651 
L 216.773367 180.236932 
L 218.608507 178.764941 
L 221.30928 177.094832 
L 223.720011 176.036772 
L 225.887644 175.377497 
L 229.121467 174.801217 
L 231.788423 174.593395 
L 241.804574 174.386955 
L 245.433354 173.902875 
L 248.202787 173.159015 
L 250.672248 172.132519 
L 252.13824 171.330933 
L 253.95008 170.115806 
L 255.641562 168.734676 
L 258.116501 166.237361 
L 260.362436 163.430299 
L 262.612234 160.051717 
L 264.56271 156.62801 
L 267.230104 151.151387 
L 269.791241 144.982558 
L 272.010744 138.890207 
L 274.675867 130.653408 
L 277.084071 122.372703 
L 279.396379 113.735108 
L 282.124066 102.826605 
L 291.210053 65.373698 
L 293.105514 58.74817 
L 294.862664 53.555503 
L 296.476573 49.856055 
L 297.283527 48.47239 
L 298.090482 47.443808 
L 298.99752 46.754147 
L 299.451039 46.609201 
L 300.27165 46.710904 
L 301.005832 47.224591 
L 301.372924 47.63964 
L 301.951606 48.518001 
L 302.837644 50.419135 
L 303.759712 53.152104 
L 304.514965 55.994463 
L 305.647846 61.327958 
L 306.780727 67.999596 
L 307.796031 75.153015 
L 308.875826 83.999299 
L 310.495765 99.657964 
L 312.134597 118.304101 
L 313.873742 140.866099 
L 316.266796 175.505768 
L 321.388053 252.064038 
L 322.97749 272.087631 
L 324.121499 284.065714 
L 324.979506 291.359093 
L 325.955668 297.600732 
L 326.606442 300.410045 
L 327.257216 302.047117 
L 327.582603 302.404269 
L 327.8778 302.453362 
L 328.185621 302.220156 
L 328.493443 301.691348 
L 329.109087 299.728862 
L 329.72473 296.536897 
L 330.340374 292.098772 
L 331.169035 284.154408 
L 331.997696 273.984481 
L 332.987424 259.05024 
L 334.277657 235.458476 
L 335.567889 208.046302 
L 337.858577 154.067937 
L 340.042339 103.913622 
L 341.429586 77.27745 
L 342.39819 62.756869 
L 343.225601 53.710203 
L 343.909387 48.897235 
L 344.314507 47.273472 
L 344.584587 46.720331 
L 344.854668 46.600593 
L 345.124748 46.921192 
L 345.394828 47.687595 
L 345.799949 49.681228 
L 346.363542 54.147586 
L 346.927136 60.571869 
L 347.631628 71.283357 
L 348.397883 86.126101 
L 349.423962 110.61498 
L 350.860472 151.613031 
L 354.28481 254.264017 
L 355.258879 276.682276 
L 356.078426 290.770002 
L 356.697345 297.949807 
L 357.19248 301.323869 
L 357.563831 302.394845 
L 357.687614 302.466462 
L 357.811398 302.393658 
L 358.093043 301.685899 
L 358.408765 299.991533 
L 358.882349 295.662467 
L 359.504393 286.764475 
L 360.117037 274.5854 
L 360.882842 255.013346 
L 361.836239 225.023354 
L 363.085347 179.581697 
L 365.277195 100.115031 
L 366.207141 73.699073 
L 366.871389 59.636707 
L 367.442675 51.409692 
L 367.874519 47.808013 
L 368.200408 46.663161 
L 368.320168 46.590629 
L 368.439929 46.707199 
L 368.679449 47.510794 
L 369.03873 50.146627 
L 369.51777 56.312505 
L 370.034884 66.271403 
L 370.666219 82.768423 
L 371.452713 109.107103 
L 372.704684 160.27115 
L 374.943152 253.777106 
L 375.766938 279.43418 
L 376.453426 294.160493 
L 376.863018 299.555733 
L 377.271459 302.198987 
L 377.407606 302.452449 
L 377.543753 302.387349 
L 377.816048 301.295533 
L 378.088342 298.919761 
L 378.496783 292.972926 
L 379.070362 279.968599 
L 379.773361 257.292642 
L 380.574709 224.121785 
L 384.017336 70.222777 
L 384.649623 54.901609 
L 385.145165 48.243335 
L 385.377231 46.869203 
L 385.493264 46.611574 
L 385.609297 46.643017 
L 385.841363 47.577573 
L 386.189462 51.157841 
L 386.653594 59.924659 
L 387.176414 74.967712 
L 387.875299 102.554575 
L 388.897229 153.860868 
L 390.882968 256.973685 
L 391.572387 282.524741 
L 392.06672 294.896571 
L 392.468237 300.710169 
L 392.769375 302.407334 
L 392.869754 302.452312 
L 393.070512 301.753769 
L 393.37165 298.734469 
L 393.742828 291.805218 
L 394.254088 276.746382 
L 394.850557 252.010166 
L 395.617446 211.588759 
L 398.006348 79.320502 
L 398.608451 58.806291 
L 399.038523 50.000184 
L 399.382582 46.845727 
L 399.554611 46.617591 
L 399.72664 47.300767 
L 399.984684 50.034339 
L 400.365027 57.741621 
L 400.864846 74.173396 
L 401.507471 104.406698 
L 402.364305 155.750412 
L 404.10588 261.377985 
L 404.779046 288.346689 
L 405.199775 298.366529 
L 405.548796 302.151594 
L 405.692766 302.464301 
L 405.836735 302.037346 
L 406.05269 300.008404 
L 406.340628 294.738642 
L 406.772537 281.556108 
L 407.348415 255.158364 
L 407.852308 225.484325 
L 407.852308 225.484325 
" style="fill:none;stroke:#0000ff;stroke-linecap:square;"/>
   </g>
   <g id="patch_3">
    <path d="M 236.16 307.584 
L 236.16 41.472 
" style="fill:none;stroke:#000000;stroke-linecap:square;stroke-linejoin:miter;stroke-width:0.8;"/>
   </g>
   <g id="patch_4">
    <path d="M 57.6 174.527914 
L 414.72 174.527914 
" style="fill:none;stroke:#000000;stroke-linecap:square;stroke-linejoin:miter;stroke-width:0.8;"/>
   </g>
  </g>
  <g id="axes_2">
   <g id="patch_5">
    <path d="M 109.44 155.52 
L 213.12 155.52 
L 213.12 51.84 
L 109.44 51.84 
z
" style="fill:#ffffff;"/>
   </g>
   <g id="matplotlib.axis_3">
    <g id="xtick_34">
     <g id="line2d_56">
      <g>
       <use style="stroke:#000000;stroke-width:0.8;" x="111.433846" xlink:href="#mf8841ae5ca" y="103.68"/>
      </g>
     </g>
     <g id="text_11">
      <!-- −1.0 -->
      <g transform="translate(99.29244 118.278437)scale(0.1 -0.1)">
       <use xlink:href="#DejaVuSans-8722"/>
       <use x="83.789062" xlink:href="#DejaVuSans-49"/>
       <use x="147.412109" xlink:href="#DejaVuSans-46"/>
       <use x="179.199219" xlink:href="#DejaVuSans-48"/>
      </g>
     </g>
    </g>
    <g id="xtick_35">
     <g id="line2d_57">
      <g>
       <use style="stroke:#000000;stroke-width:0.8;" x="136.356923" xlink:href="#mf8841ae5ca" y="103.68"/>
      </g>
     </g>
     <g id="text_12">
      <!-- −0.5 -->
      <g transform="translate(124.215517 118.278437)scale(0.1 -0.1)">
       <use xlink:href="#DejaVuSans-8722"/>
       <use x="83.789062" xlink:href="#DejaVuSans-48"/>
       <use x="147.412109" xlink:href="#DejaVuSans-46"/>
       <use x="179.199219" xlink:href="#DejaVuSans-53"/>
      </g>
     </g>
    </g>
    <g id="xtick_36">
     <g id="line2d_58">
      <g>
       <use style="stroke:#000000;stroke-width:0.8;" x="161.28" xlink:href="#mf8841ae5ca" y="103.68"/>
      </g>
     </g>
    </g>
    <g id="xtick_37">
     <g id="line2d_59">
      <g>
       <use style="stroke:#000000;stroke-width:0.8;" x="186.203077" xlink:href="#mf8841ae5ca" y="103.68"/>
      </g>
     </g>
     <g id="text_13">
      <!-- 0.5 -->
      <g transform="translate(178.251514 118.278437)scale(0.1 -0.1)">
       <use xlink:href="#DejaVuSans-48"/>
       <use x="63.623047" xlink:href="#DejaVuSans-46"/>
       <use x="95.410156" xlink:href="#DejaVuSans-53"/>
      </g>
     </g>
    </g>
    <g id="xtick_38">
     <g id="line2d_60">
      <g>
       <use style="stroke:#000000;stroke-width:0.8;" x="211.126154" xlink:href="#mf8841ae5ca" y="103.68"/>
      </g>
     </g>
     <g id="text_14">
      <!-- 1.0 -->
      <g transform="translate(203.174591 118.278437)scale(0.1 -0.1)">
       <use xlink:href="#DejaVuSans-49"/>
       <use x="63.623047" xlink:href="#DejaVuSans-46"/>
       <use x="95.410156" xlink:href="#DejaVuSans-48"/>
      </g>
     </g>
    </g>
    <g id="xtick_39">
     <g id="line2d_61">
      <g>
       <use style="stroke:#000000;stroke-width:0.6;" x="116.418462" xlink:href="#mfaecd878d1" y="103.68"/>
      </g>
     </g>
    </g>
    <g id="xtick_40">
     <g id="line2d_62">
      <g>
       <use style="stroke:#000000;stroke-width:0.6;" x="121.403077" xlink:href="#mfaecd878d1" y="103.68"/>
      </g>
     </g>
    </g>
    <g id="xtick_41">
     <g id="line2d_63">
      <g>
       <use style="stroke:#000000;stroke-width:0.6;" x="126.387692" xlink:href="#mfaecd878d1" y="103.68"/>
      </g>
     </g>
    </g>
    <g id="xtick_42">
     <g id="line2d_64">
      <g>
       <use style="stroke:#000000;stroke-width:0.6;" x="131.372308" xlink:href="#mfaecd878d1" y="103.68"/>
      </g>
     </g>
    </g>
    <g id="xtick_43">
     <g id="line2d_65">
      <g>
       <use style="stroke:#000000;stroke-width:0.6;" x="141.341538" xlink:href="#mfaecd878d1" y="103.68"/>
      </g>
     </g>
    </g>
    <g id="xtick_44">
     <g id="line2d_66">
      <g>
       <use style="stroke:#000000;stroke-width:0.6;" x="146.326154" xlink:href="#mfaecd878d1" y="103.68"/>
      </g>
     </g>
    </g>
    <g id="xtick_45">
     <g id="line2d_67">
      <g>
       <use style="stroke:#000000;stroke-width:0.6;" x="151.310769" xlink:href="#mfaecd878d1" y="103.68"/>
      </g>
     </g>
    </g>
    <g id="xtick_46">
     <g id="line2d_68">
      <g>
       <use style="stroke:#000000;stroke-width:0.6;" x="156.295385" xlink:href="#mfaecd878d1" y="103.68"/>
      </g>
     </g>
    </g>
    <g id="xtick_47">
     <g id="line2d_69">
      <g>
       <use style="stroke:#000000;stroke-width:0.6;" x="166.264615" xlink:href="#mfaecd878d1" y="103.68"/>
      </g>
     </g>
    </g>
    <g id="xtick_48">
     <g id="line2d_70">
      <g>
       <use style="stroke:#000000;stroke-width:0.6;" x="171.249231" xlink:href="#mfaecd878d1" y="103.68"/>
      </g>
     </g>
    </g>
    <g id="xtick_49">
     <g id="line2d_71">
      <g>
       <use style="stroke:#000000;stroke-width:0.6;" x="176.233846" xlink:href="#mfaecd878d1" y="103.68"/>
      </g>
     </g>
    </g>
    <g id="xtick_50">
     <g id="line2d_72">
      <g>
       <use style="stroke:#000000;stroke-width:0.6;" x="181.218462" xlink:href="#mfaecd878d1" y="103.68"/>
      </g>
     </g>
    </g>
    <g id="xtick_51">
     <g id="line2d_73">
      <g>
       <use style="stroke:#000000;stroke-width:0.6;" x="191.187692" xlink:href="#mfaecd878d1" y="103.68"/>
      </g>
     </g>
    </g>
    <g id="xtick_52">
     <g id="line2d_74">
      <g>
       <use style="stroke:#000000;stroke-width:0.6;" x="196.172308" xlink:href="#mfaecd878d1" y="103.68"/>
      </g>
     </g>
    </g>
    <g id="xtick_53">
     <g id="line2d_75">
      <g>
       <use style="stroke:#000000;stroke-width:0.6;" x="201.156923" xlink:href="#mfaecd878d1" y="103.68"/>
      </g>
     </g>
    </g>
    <g id="xtick_54">
     <g id="line2d_76">
      <g>
       <use style="stroke:#000000;stroke-width:0.6;" x="206.141538" xlink:href="#mfaecd878d1" y="103.68"/>
      </g>
     </g>
    </g>
   </g>
   <g id="matplotlib.axis_4">
    <g id="ytick_22">
     <g id="line2d_77">
      <g>
       <use style="stroke:#000000;stroke-width:0.8;" x="161.28" xlink:href="#mf28b12dd01" y="153.526154"/>
      </g>
     </g>
     <g id="text_15">
      <!-- −1.0 -->
      <g transform="translate(129.997187 157.325373)scale(0.1 -0.1)">
       <use xlink:href="#DejaVuSans-8722"/>
       <use x="83.789062" xlink:href="#DejaVuSans-49"/>
       <use x="147.412109" xlink:href="#DejaVuSans-46"/>
       <use x="179.199219" xlink:href="#DejaVuSans-48"/>
      </g>
     </g>
    </g>
    <g id="ytick_23">
     <g id="line2d_78">
      <g>
       <use style="stroke:#000000;stroke-width:0.8;" x="161.28" xlink:href="#mf28b12dd01" y="128.603077"/>
      </g>
     </g>
     <g id="text_16">
      <!-- −0.5 -->
      <g transform="translate(129.997187 132.402296)scale(0.1 -0.1)">
       <use xlink:href="#DejaVuSans-8722"/>
       <use x="83.789062" xlink:href="#DejaVuSans-48"/>
       <use x="147.412109" xlink:href="#DejaVuSans-46"/>
       <use x="179.199219" xlink:href="#DejaVuSans-53"/>
      </g>
     </g>
    </g>
    <g id="ytick_24">
     <g id="line2d_79">
      <g>
       <use style="stroke:#000000;stroke-width:0.8;" x="161.28" xlink:href="#mf28b12dd01" y="103.68"/>
      </g>
     </g>
    </g>
    <g id="ytick_25">
     <g id="line2d_80">
      <g>
       <use style="stroke:#000000;stroke-width:0.8;" x="161.28" xlink:href="#mf28b12dd01" y="78.756923"/>
      </g>
     </g>
     <g id="text_17">
      <!-- 0.5 -->
      <g transform="translate(138.376875 82.556142)scale(0.1 -0.1)">
       <use xlink:href="#DejaVuSans-48"/>
       <use x="63.623047" xlink:href="#DejaVuSans-46"/>
       <use x="95.410156" xlink:href="#DejaVuSans-53"/>
      </g>
     </g>
    </g>
    <g id="ytick_26">
     <g id="line2d_81">
      <g>
       <use style="stroke:#000000;stroke-width:0.8;" x="161.28" xlink:href="#mf28b12dd01" y="53.833846"/>
      </g>
     </g>
     <g id="text_18">
      <!-- 1.0 -->
      <g transform="translate(138.376875 57.633065)scale(0.1 -0.1)">
       <use xlink:href="#DejaVuSans-49"/>
       <use x="63.623047" xlink:href="#DejaVuSans-46"/>
       <use x="95.410156" xlink:href="#DejaVuSans-48"/>
      </g>
     </g>
    </g>
    <g id="ytick_27">
     <g id="line2d_82">
      <g>
       <use style="stroke:#000000;stroke-width:0.6;" x="161.28" xlink:href="#mc7049daffb" y="148.541538"/>
      </g>
     </g>
    </g>
    <g id="ytick_28">
     <g id="line2d_83">
      <g>
       <use style="stroke:#000000;stroke-width:0.6;" x="161.28" xlink:href="#mc7049daffb" y="143.556923"/>
      </g>
     </g>
    </g>
    <g id="ytick_29">
     <g id="line2d_84">
      <g>
       <use style="stroke:#000000;stroke-width:0.6;" x="161.28" xlink:href="#mc7049daffb" y="138.572308"/>
      </g>
     </g>
    </g>
    <g id="ytick_30">
     <g id="line2d_85">
      <g>
       <use style="stroke:#000000;stroke-width:0.6;" x="161.28" xlink:href="#mc7049daffb" y="133.587692"/>
      </g>
     </g>
    </g>
    <g id="ytick_31">
     <g id="line2d_86">
      <g>
       <use style="stroke:#000000;stroke-width:0.6;" x="161.28" xlink:href="#mc7049daffb" y="123.618462"/>
      </g>
     </g>
    </g>
    <g id="ytick_32">
     <g id="line2d_87">
      <g>
       <use style="stroke:#000000;stroke-width:0.6;" x="161.28" xlink:href="#mc7049daffb" y="118.633846"/>
      </g>
     </g>
    </g>
    <g id="ytick_33">
     <g id="line2d_88">
      <g>
       <use style="stroke:#000000;stroke-width:0.6;" x="161.28" xlink:href="#mc7049daffb" y="113.649231"/>
      </g>
     </g>
    </g>
    <g id="ytick_34">
     <g id="line2d_89">
      <g>
       <use style="stroke:#000000;stroke-width:0.6;" x="161.28" xlink:href="#mc7049daffb" y="108.664615"/>
      </g>
     </g>
    </g>
    <g id="ytick_35">
     <g id="line2d_90">
      <g>
       <use style="stroke:#000000;stroke-width:0.6;" x="161.28" xlink:href="#mc7049daffb" y="98.695385"/>
      </g>
     </g>
    </g>
    <g id="ytick_36">
     <g id="line2d_91">
      <g>
       <use style="stroke:#000000;stroke-width:0.6;" x="161.28" xlink:href="#mc7049daffb" y="93.710769"/>
      </g>
     </g>
    </g>
    <g id="ytick_37">
     <g id="line2d_92">
      <g>
       <use style="stroke:#000000;stroke-width:0.6;" x="161.28" xlink:href="#mc7049daffb" y="88.726154"/>
      </g>
     </g>
    </g>
    <g id="ytick_38">
     <g id="line2d_93">
      <g>
       <use style="stroke:#000000;stroke-width:0.6;" x="161.28" xlink:href="#mc7049daffb" y="83.741538"/>
      </g>
     </g>
    </g>
    <g id="ytick_39">
     <g id="line2d_94">
      <g>
       <use style="stroke:#000000;stroke-width:0.6;" x="161.28" xlink:href="#mc7049daffb" y="73.772308"/>
      </g>
     </g>
    </g>
    <g id="ytick_40">
     <g id="line2d_95">
      <g>
       <use style="stroke:#000000;stroke-width:0.6;" x="161.28" xlink:href="#mc7049daffb" y="68.787692"/>
      </g>
     </g>
    </g>
    <g id="ytick_41">
     <g id="line2d_96">
      <g>
       <use style="stroke:#000000;stroke-width:0.6;" x="161.28" xlink:href="#mc7049daffb" y="63.803077"/>
      </g>
     </g>
    </g>
    <g id="ytick_42">
     <g id="line2d_97">
      <g>
       <use style="stroke:#000000;stroke-width:0.6;" x="161.28" xlink:href="#mc7049daffb" y="58.818462"/>
      </g>
     </g>
    </g>
   </g>
   <g id="patch_6">
    <path d="M 161.28 155.52 
L 161.28 51.84 
" style="fill:none;stroke:#000000;stroke-linecap:square;stroke-linejoin:miter;stroke-width:0.8;"/>
   </g>
   <g id="patch_7">
    <path d="M 109.44 103.68 
L 213.12 103.68 
" style="fill:none;stroke:#000000;stroke-linecap:square;stroke-linejoin:miter;stroke-width:0.8;"/>
   </g>
   <g id="patch_8">
    <path clip-path="url(#p85302be944)" d="M 161.28 153.526154 
C 174.499355 153.526154 187.179058 148.274049 196.526553 138.926553 
C 205.874049 129.579058 211.126154 116.899355 211.126154 103.68 
C 211.126154 90.460645 205.874049 77.780942 196.526553 68.433447 
C 187.179058 59.085951 174.499355 53.833846 161.28 53.833846 
C 148.060645 53.833846 135.380942 59.085951 126.033447 68.433447 
C 116.685951 77.780942 111.433846 90.460645 111.433846 103.68 
C 111.433846 116.899355 116.685951 129.579058 126.033447 138.926553 
C 135.380942 148.274049 148.060645 153.526154 161.28 153.526154 
z
" style="fill:none;stroke:#ff0000;stroke-linejoin:miter;"/>
   </g>
  </g>
 </g>
 <defs>
  <clipPath id="p360f320a3b">
   <rect height="266.112" width="357.12" x="57.6" y="41.472"/>
  </clipPath>
  <clipPath id="p85302be944">
   <rect height="103.68" width="103.68" x="109.44" y="51.84"/>
  </clipPath>
 </defs>
</svg>
