<?xml version="1.0" encoding="utf-8" standalone="no"?>
<!DOCTYPE svg PUBLIC "-//W3C//DTD SVG 1.1//EN"
  "http://www.w3.org/Graphics/SVG/1.1/DTD/svg11.dtd">
<!-- Created with matplotlib (https://matplotlib.org/) -->
<svg height="345.6pt" version="1.1" viewBox="0 0 460.8 345.6" width="460.8pt" xmlns="http://www.w3.org/2000/svg" xmlns:xlink="http://www.w3.org/1999/xlink">
 <metadata>
  <rdf:RDF xmlns:cc="http://creativecommons.org/ns#" xmlns:dc="http://purl.org/dc/elements/1.1/" xmlns:rdf="http://www.w3.org/1999/02/22-rdf-syntax-ns#">
   <cc:Work>
    <dc:type rdf:resource="http://purl.org/dc/dcmitype/StillImage"/>
    <dc:date>2021-08-24T12:30:37.536615</dc:date>
    <dc:format>image/svg+xml</dc:format>
    <dc:creator>
     <cc:Agent>
      <dc:title>Matplotlib v3.3.4, https://matplotlib.org/</dc:title>
     </cc:Agent>
    </dc:creator>
   </cc:Work>
  </rdf:RDF>
 </metadata>
 <defs>
  <style type="text/css">*{stroke-linecap:butt;stroke-linejoin:round;}</style>
 </defs>
 <g id="figure_1">
  <g id="patch_1">
   <path d="M 0 345.6 
L 460.8 345.6 
L 460.8 0 
L 0 0 
z
" style="fill:#ffffff;"/>
  </g>
  <g id="axes_1">
   <g id="patch_2">
    <path d="M 57.6 307.584 
L 414.72 307.584 
L 414.72 41.472 
L 57.6 41.472 
z
" style="fill:#ffffff;"/>
   </g>
   <g id="matplotlib.axis_1">
    <g id="xtick_1">
     <g id="line2d_1">
      <defs>
       <path d="M 0 0 
L 0 3.5 
" id="m4e72bf9723" style="stroke:#000000;stroke-width:0.8;"/>
      </defs>
      <g>
       <use style="stroke:#000000;stroke-width:0.8;" x="72.205923" xlink:href="#m4e72bf9723" y="174.527994"/>
      </g>
     </g>
     <g id="text_1">
      <!-- −3 -->
      <g transform="translate(64.834829 189.126431)scale(0.1 -0.1)">
       <defs>
        <path d="M 10.59375 35.5 
L 73.1875 35.5 
L 73.1875 27.203125 
L 10.59375 27.203125 
z
" id="DejaVuSans-8722"/>
        <path d="M 40.578125 39.3125 
Q 47.65625 37.796875 51.625 33 
Q 55.609375 28.21875 55.609375 21.1875 
Q 55.609375 10.40625 48.1875 4.484375 
Q 40.765625 -1.421875 27.09375 -1.421875 
Q 22.515625 -1.421875 17.65625 -0.515625 
Q 12.796875 0.390625 7.625 2.203125 
L 7.625 11.71875 
Q 11.71875 9.328125 16.59375 8.109375 
Q 21.484375 6.890625 26.8125 6.890625 
Q 36.078125 6.890625 40.9375 10.546875 
Q 45.796875 14.203125 45.796875 21.1875 
Q 45.796875 27.640625 41.28125 31.265625 
Q 36.765625 34.90625 28.71875 34.90625 
L 20.21875 34.90625 
L 20.21875 43.015625 
L 29.109375 43.015625 
Q 36.375 43.015625 40.234375 45.921875 
Q 44.09375 48.828125 44.09375 54.296875 
Q 44.09375 59.90625 40.109375 62.90625 
Q 36.140625 65.921875 28.71875 65.921875 
Q 24.65625 65.921875 20.015625 65.03125 
Q 15.375 64.15625 9.8125 62.3125 
L 9.8125 71.09375 
Q 15.4375 72.65625 20.34375 73.4375 
Q 25.25 74.21875 29.59375 74.21875 
Q 40.828125 74.21875 47.359375 69.109375 
Q 53.90625 64.015625 53.90625 55.328125 
Q 53.90625 49.265625 50.4375 45.09375 
Q 46.96875 40.921875 40.578125 39.3125 
z
" id="DejaVuSans-51"/>
       </defs>
       <use xlink:href="#DejaVuSans-8722"/>
       <use x="83.789062" xlink:href="#DejaVuSans-51"/>
      </g>
     </g>
    </g>
    <g id="xtick_2">
     <g id="line2d_2">
      <g>
       <use style="stroke:#000000;stroke-width:0.8;" x="126.857282" xlink:href="#m4e72bf9723" y="174.527994"/>
      </g>
     </g>
     <g id="text_2">
      <!-- −2 -->
      <g transform="translate(119.486188 189.126431)scale(0.1 -0.1)">
       <defs>
        <path d="M 19.1875 8.296875 
L 53.609375 8.296875 
L 53.609375 0 
L 7.328125 0 
L 7.328125 8.296875 
Q 12.9375 14.109375 22.625 23.890625 
Q 32.328125 33.6875 34.8125 36.53125 
Q 39.546875 41.84375 41.421875 45.53125 
Q 43.3125 49.21875 43.3125 52.78125 
Q 43.3125 58.59375 39.234375 62.25 
Q 35.15625 65.921875 28.609375 65.921875 
Q 23.96875 65.921875 18.8125 64.3125 
Q 13.671875 62.703125 7.8125 59.421875 
L 7.8125 69.390625 
Q 13.765625 71.78125 18.9375 73 
Q 24.125 74.21875 28.421875 74.21875 
Q 39.75 74.21875 46.484375 68.546875 
Q 53.21875 62.890625 53.21875 53.421875 
Q 53.21875 48.921875 51.53125 44.890625 
Q 49.859375 40.875 45.40625 35.40625 
Q 44.1875 33.984375 37.640625 27.21875 
Q 31.109375 20.453125 19.1875 8.296875 
z
" id="DejaVuSans-50"/>
       </defs>
       <use xlink:href="#DejaVuSans-8722"/>
       <use x="83.789062" xlink:href="#DejaVuSans-50"/>
      </g>
     </g>
    </g>
    <g id="xtick_3">
     <g id="line2d_3">
      <g>
       <use style="stroke:#000000;stroke-width:0.8;" x="181.508641" xlink:href="#m4e72bf9723" y="174.527994"/>
      </g>
     </g>
     <g id="text_3">
      <!-- −1 -->
      <g transform="translate(174.137547 189.126431)scale(0.1 -0.1)">
       <defs>
        <path d="M 12.40625 8.296875 
L 28.515625 8.296875 
L 28.515625 63.921875 
L 10.984375 60.40625 
L 10.984375 69.390625 
L 28.421875 72.90625 
L 38.28125 72.90625 
L 38.28125 8.296875 
L 54.390625 8.296875 
L 54.390625 0 
L 12.40625 0 
z
" id="DejaVuSans-49"/>
       </defs>
       <use xlink:href="#DejaVuSans-8722"/>
       <use x="83.789062" xlink:href="#DejaVuSans-49"/>
      </g>
     </g>
    </g>
    <g id="xtick_4">
     <g id="line2d_4">
      <g>
       <use style="stroke:#000000;stroke-width:0.8;" x="236.16" xlink:href="#m4e72bf9723" y="174.527994"/>
      </g>
     </g>
    </g>
    <g id="xtick_5">
     <g id="line2d_5">
      <g>
       <use style="stroke:#000000;stroke-width:0.8;" x="290.811359" xlink:href="#m4e72bf9723" y="174.527994"/>
      </g>
     </g>
     <g id="text_4">
      <!-- 1 -->
      <g transform="translate(287.630109 189.126431)scale(0.1 -0.1)">
       <use xlink:href="#DejaVuSans-49"/>
      </g>
     </g>
    </g>
    <g id="xtick_6">
     <g id="line2d_6">
      <g>
       <use style="stroke:#000000;stroke-width:0.8;" x="345.462718" xlink:href="#m4e72bf9723" y="174.527994"/>
      </g>
     </g>
     <g id="text_5">
      <!-- 2 -->
      <g transform="translate(342.281468 189.126431)scale(0.1 -0.1)">
       <use xlink:href="#DejaVuSans-50"/>
      </g>
     </g>
    </g>
    <g id="xtick_7">
     <g id="line2d_7">
      <g>
       <use style="stroke:#000000;stroke-width:0.8;" x="400.114077" xlink:href="#m4e72bf9723" y="174.527994"/>
      </g>
     </g>
     <g id="text_6">
      <!-- 3 -->
      <g transform="translate(396.932827 189.126431)scale(0.1 -0.1)">
       <use xlink:href="#DejaVuSans-51"/>
      </g>
     </g>
    </g>
    <g id="xtick_8">
     <g id="line2d_8">
      <defs>
       <path d="M 0 0 
L 0 2 
" id="m03beb5538d" style="stroke:#000000;stroke-width:0.6;"/>
      </defs>
      <g>
       <use style="stroke:#000000;stroke-width:0.6;" x="61.275651" xlink:href="#m03beb5538d" y="174.527994"/>
      </g>
     </g>
    </g>
    <g id="xtick_9">
     <g id="line2d_9">
      <g>
       <use style="stroke:#000000;stroke-width:0.6;" x="83.136195" xlink:href="#m03beb5538d" y="174.527994"/>
      </g>
     </g>
    </g>
    <g id="xtick_10">
     <g id="line2d_10">
      <g>
       <use style="stroke:#000000;stroke-width:0.6;" x="94.066467" xlink:href="#m03beb5538d" y="174.527994"/>
      </g>
     </g>
    </g>
    <g id="xtick_11">
     <g id="line2d_11">
      <g>
       <use style="stroke:#000000;stroke-width:0.6;" x="104.996739" xlink:href="#m03beb5538d" y="174.527994"/>
      </g>
     </g>
    </g>
    <g id="xtick_12">
     <g id="line2d_12">
      <g>
       <use style="stroke:#000000;stroke-width:0.6;" x="115.92701" xlink:href="#m03beb5538d" y="174.527994"/>
      </g>
     </g>
    </g>
    <g id="xtick_13">
     <g id="line2d_13">
      <g>
       <use style="stroke:#000000;stroke-width:0.6;" x="137.787554" xlink:href="#m03beb5538d" y="174.527994"/>
      </g>
     </g>
    </g>
    <g id="xtick_14">
     <g id="line2d_14">
      <g>
       <use style="stroke:#000000;stroke-width:0.6;" x="148.717826" xlink:href="#m03beb5538d" y="174.527994"/>
      </g>
     </g>
    </g>
    <g id="xtick_15">
     <g id="line2d_15">
      <g>
       <use style="stroke:#000000;stroke-width:0.6;" x="159.648098" xlink:href="#m03beb5538d" y="174.527994"/>
      </g>
     </g>
    </g>
    <g id="xtick_16">
     <g id="line2d_16">
      <g>
       <use style="stroke:#000000;stroke-width:0.6;" x="170.578369" xlink:href="#m03beb5538d" y="174.527994"/>
      </g>
     </g>
    </g>
    <g id="xtick_17">
     <g id="line2d_17">
      <g>
       <use style="stroke:#000000;stroke-width:0.6;" x="192.438913" xlink:href="#m03beb5538d" y="174.527994"/>
      </g>
     </g>
    </g>
    <g id="xtick_18">
     <g id="line2d_18">
      <g>
       <use style="stroke:#000000;stroke-width:0.6;" x="203.369185" xlink:href="#m03beb5538d" y="174.527994"/>
      </g>
     </g>
    </g>
    <g id="xtick_19">
     <g id="line2d_19">
      <g>
       <use style="stroke:#000000;stroke-width:0.6;" x="214.299456" xlink:href="#m03beb5538d" y="174.527994"/>
      </g>
     </g>
    </g>
    <g id="xtick_20">
     <g id="line2d_20">
      <g>
       <use style="stroke:#000000;stroke-width:0.6;" x="225.229728" xlink:href="#m03beb5538d" y="174.527994"/>
      </g>
     </g>
    </g>
    <g id="xtick_21">
     <g id="line2d_21">
      <g>
       <use style="stroke:#000000;stroke-width:0.6;" x="247.090272" xlink:href="#m03beb5538d" y="174.527994"/>
      </g>
     </g>
    </g>
    <g id="xtick_22">
     <g id="line2d_22">
      <g>
       <use style="stroke:#000000;stroke-width:0.6;" x="258.020544" xlink:href="#m03beb5538d" y="174.527994"/>
      </g>
     </g>
    </g>
    <g id="xtick_23">
     <g id="line2d_23">
      <g>
       <use style="stroke:#000000;stroke-width:0.6;" x="268.950815" xlink:href="#m03beb5538d" y="174.527994"/>
      </g>
     </g>
    </g>
    <g id="xtick_24">
     <g id="line2d_24">
      <g>
       <use style="stroke:#000000;stroke-width:0.6;" x="279.881087" xlink:href="#m03beb5538d" y="174.527994"/>
      </g>
     </g>
    </g>
    <g id="xtick_25">
     <g id="line2d_25">
      <g>
       <use style="stroke:#000000;stroke-width:0.6;" x="301.741631" xlink:href="#m03beb5538d" y="174.527994"/>
      </g>
     </g>
    </g>
    <g id="xtick_26">
     <g id="line2d_26">
      <g>
       <use style="stroke:#000000;stroke-width:0.6;" x="312.671902" xlink:href="#m03beb5538d" y="174.527994"/>
      </g>
     </g>
    </g>
    <g id="xtick_27">
     <g id="line2d_27">
      <g>
       <use style="stroke:#000000;stroke-width:0.6;" x="323.602174" xlink:href="#m03beb5538d" y="174.527994"/>
      </g>
     </g>
    </g>
    <g id="xtick_28">
     <g id="line2d_28">
      <g>
       <use style="stroke:#000000;stroke-width:0.6;" x="334.532446" xlink:href="#m03beb5538d" y="174.527994"/>
      </g>
     </g>
    </g>
    <g id="xtick_29">
     <g id="line2d_29">
      <g>
       <use style="stroke:#000000;stroke-width:0.6;" x="356.39299" xlink:href="#m03beb5538d" y="174.527994"/>
      </g>
     </g>
    </g>
    <g id="xtick_30">
     <g id="line2d_30">
      <g>
       <use style="stroke:#000000;stroke-width:0.6;" x="367.323261" xlink:href="#m03beb5538d" y="174.527994"/>
      </g>
     </g>
    </g>
    <g id="xtick_31">
     <g id="line2d_31">
      <g>
       <use style="stroke:#000000;stroke-width:0.6;" x="378.253533" xlink:href="#m03beb5538d" y="174.527994"/>
      </g>
     </g>
    </g>
    <g id="xtick_32">
     <g id="line2d_32">
      <g>
       <use style="stroke:#000000;stroke-width:0.6;" x="389.183805" xlink:href="#m03beb5538d" y="174.527994"/>
      </g>
     </g>
    </g>
    <g id="xtick_33">
     <g id="line2d_33">
      <g>
       <use style="stroke:#000000;stroke-width:0.6;" x="411.044349" xlink:href="#m03beb5538d" y="174.527994"/>
      </g>
     </g>
    </g>
   </g>
   <g id="matplotlib.axis_2">
    <g id="ytick_1">
     <g id="line2d_34">
      <defs>
       <path d="M 0 0 
L -3.5 0 
" id="m40124ee442" style="stroke:#000000;stroke-width:0.8;"/>
      </defs>
      <g>
       <use style="stroke:#000000;stroke-width:0.8;" x="236.16" xlink:href="#m40124ee442" y="302.466514"/>
      </g>
     </g>
     <g id="text_7">
      <!-- −1.0 -->
      <g transform="translate(204.877187 306.265733)scale(0.1 -0.1)">
       <defs>
        <path d="M 10.6875 12.40625 
L 21 12.40625 
L 21 0 
L 10.6875 0 
z
" id="DejaVuSans-46"/>
        <path d="M 31.78125 66.40625 
Q 24.171875 66.40625 20.328125 58.90625 
Q 16.5 51.421875 16.5 36.375 
Q 16.5 21.390625 20.328125 13.890625 
Q 24.171875 6.390625 31.78125 6.390625 
Q 39.453125 6.390625 43.28125 13.890625 
Q 47.125 21.390625 47.125 36.375 
Q 47.125 51.421875 43.28125 58.90625 
Q 39.453125 66.40625 31.78125 66.40625 
z
M 31.78125 74.21875 
Q 44.046875 74.21875 50.515625 64.515625 
Q 56.984375 54.828125 56.984375 36.375 
Q 56.984375 17.96875 50.515625 8.265625 
Q 44.046875 -1.421875 31.78125 -1.421875 
Q 19.53125 -1.421875 13.0625 8.265625 
Q 6.59375 17.96875 6.59375 36.375 
Q 6.59375 54.828125 13.0625 64.515625 
Q 19.53125 74.21875 31.78125 74.21875 
z
" id="DejaVuSans-48"/>
       </defs>
       <use xlink:href="#DejaVuSans-8722"/>
       <use x="83.789062" xlink:href="#DejaVuSans-49"/>
       <use x="147.412109" xlink:href="#DejaVuSans-46"/>
       <use x="179.199219" xlink:href="#DejaVuSans-48"/>
      </g>
     </g>
    </g>
    <g id="ytick_2">
     <g id="line2d_35">
      <g>
       <use style="stroke:#000000;stroke-width:0.8;" x="236.16" xlink:href="#m40124ee442" y="238.497254"/>
      </g>
     </g>
     <g id="text_8">
      <!-- −0.5 -->
      <g transform="translate(204.877187 242.296473)scale(0.1 -0.1)">
       <defs>
        <path d="M 10.796875 72.90625 
L 49.515625 72.90625 
L 49.515625 64.59375 
L 19.828125 64.59375 
L 19.828125 46.734375 
Q 21.96875 47.46875 24.109375 47.828125 
Q 26.265625 48.1875 28.421875 48.1875 
Q 40.625 48.1875 47.75 41.5 
Q 54.890625 34.8125 54.890625 23.390625 
Q 54.890625 11.625 47.5625 5.09375 
Q 40.234375 -1.421875 26.90625 -1.421875 
Q 22.3125 -1.421875 17.546875 -0.640625 
Q 12.796875 0.140625 7.71875 1.703125 
L 7.71875 11.625 
Q 12.109375 9.234375 16.796875 8.0625 
Q 21.484375 6.890625 26.703125 6.890625 
Q 35.15625 6.890625 40.078125 11.328125 
Q 45.015625 15.765625 45.015625 23.390625 
Q 45.015625 31 40.078125 35.4375 
Q 35.15625 39.890625 26.703125 39.890625 
Q 22.75 39.890625 18.8125 39.015625 
Q 14.890625 38.140625 10.796875 36.28125 
z
" id="DejaVuSans-53"/>
       </defs>
       <use xlink:href="#DejaVuSans-8722"/>
       <use x="83.789062" xlink:href="#DejaVuSans-48"/>
       <use x="147.412109" xlink:href="#DejaVuSans-46"/>
       <use x="179.199219" xlink:href="#DejaVuSans-53"/>
      </g>
     </g>
    </g>
    <g id="ytick_3">
     <g id="line2d_36">
      <g>
       <use style="stroke:#000000;stroke-width:0.8;" x="236.16" xlink:href="#m40124ee442" y="174.527994"/>
      </g>
     </g>
    </g>
    <g id="ytick_4">
     <g id="line2d_37">
      <g>
       <use style="stroke:#000000;stroke-width:0.8;" x="236.16" xlink:href="#m40124ee442" y="110.558734"/>
      </g>
     </g>
     <g id="text_9">
      <!-- 0.5 -->
      <g transform="translate(213.256875 114.357952)scale(0.1 -0.1)">
       <use xlink:href="#DejaVuSans-48"/>
       <use x="63.623047" xlink:href="#DejaVuSans-46"/>
       <use x="95.410156" xlink:href="#DejaVuSans-53"/>
      </g>
     </g>
    </g>
    <g id="ytick_5">
     <g id="line2d_38">
      <g>
       <use style="stroke:#000000;stroke-width:0.8;" x="236.16" xlink:href="#m40124ee442" y="46.589474"/>
      </g>
     </g>
     <g id="text_10">
      <!-- 1.0 -->
      <g transform="translate(213.256875 50.388692)scale(0.1 -0.1)">
       <use xlink:href="#DejaVuSans-49"/>
       <use x="63.623047" xlink:href="#DejaVuSans-46"/>
       <use x="95.410156" xlink:href="#DejaVuSans-48"/>
      </g>
     </g>
    </g>
    <g id="ytick_6">
     <g id="line2d_39">
      <defs>
       <path d="M 0 0 
L -2 0 
" id="me76214c140" style="stroke:#000000;stroke-width:0.6;"/>
      </defs>
      <g>
       <use style="stroke:#000000;stroke-width:0.6;" x="236.16" xlink:href="#me76214c140" y="289.672662"/>
      </g>
     </g>
    </g>
    <g id="ytick_7">
     <g id="line2d_40">
      <g>
       <use style="stroke:#000000;stroke-width:0.6;" x="236.16" xlink:href="#me76214c140" y="276.87881"/>
      </g>
     </g>
    </g>
    <g id="ytick_8">
     <g id="line2d_41">
      <g>
       <use style="stroke:#000000;stroke-width:0.6;" x="236.16" xlink:href="#me76214c140" y="264.084958"/>
      </g>
     </g>
    </g>
    <g id="ytick_9">
     <g id="line2d_42">
      <g>
       <use style="stroke:#000000;stroke-width:0.6;" x="236.16" xlink:href="#me76214c140" y="251.291106"/>
      </g>
     </g>
    </g>
    <g id="ytick_10">
     <g id="line2d_43">
      <g>
       <use style="stroke:#000000;stroke-width:0.6;" x="236.16" xlink:href="#me76214c140" y="225.703402"/>
      </g>
     </g>
    </g>
    <g id="ytick_11">
     <g id="line2d_44">
      <g>
       <use style="stroke:#000000;stroke-width:0.6;" x="236.16" xlink:href="#me76214c140" y="212.90955"/>
      </g>
     </g>
    </g>
    <g id="ytick_12">
     <g id="line2d_45">
      <g>
       <use style="stroke:#000000;stroke-width:0.6;" x="236.16" xlink:href="#me76214c140" y="200.115698"/>
      </g>
     </g>
    </g>
    <g id="ytick_13">
     <g id="line2d_46">
      <g>
       <use style="stroke:#000000;stroke-width:0.6;" x="236.16" xlink:href="#me76214c140" y="187.321846"/>
      </g>
     </g>
    </g>
    <g id="ytick_14">
     <g id="line2d_47">
      <g>
       <use style="stroke:#000000;stroke-width:0.6;" x="236.16" xlink:href="#me76214c140" y="161.734142"/>
      </g>
     </g>
    </g>
    <g id="ytick_15">
     <g id="line2d_48">
      <g>
       <use style="stroke:#000000;stroke-width:0.6;" x="236.16" xlink:href="#me76214c140" y="148.94029"/>
      </g>
     </g>
    </g>
    <g id="ytick_16">
     <g id="line2d_49">
      <g>
       <use style="stroke:#000000;stroke-width:0.6;" x="236.16" xlink:href="#me76214c140" y="136.146438"/>
      </g>
     </g>
    </g>
    <g id="ytick_17">
     <g id="line2d_50">
      <g>
       <use style="stroke:#000000;stroke-width:0.6;" x="236.16" xlink:href="#me76214c140" y="123.352586"/>
      </g>
     </g>
    </g>
    <g id="ytick_18">
     <g id="line2d_51">
      <g>
       <use style="stroke:#000000;stroke-width:0.6;" x="236.16" xlink:href="#me76214c140" y="97.764882"/>
      </g>
     </g>
    </g>
    <g id="ytick_19">
     <g id="line2d_52">
      <g>
       <use style="stroke:#000000;stroke-width:0.6;" x="236.16" xlink:href="#me76214c140" y="84.97103"/>
      </g>
     </g>
    </g>
    <g id="ytick_20">
     <g id="line2d_53">
      <g>
       <use style="stroke:#000000;stroke-width:0.6;" x="236.16" xlink:href="#me76214c140" y="72.177178"/>
      </g>
     </g>
    </g>
    <g id="ytick_21">
     <g id="line2d_54">
      <g>
       <use style="stroke:#000000;stroke-width:0.6;" x="236.16" xlink:href="#me76214c140" y="59.383326"/>
      </g>
     </g>
    </g>
   </g>
   <g id="line2d_55">
    <path clip-path="url(#paa87222501)" d="M 64.467692 123.571594 
L 65.310034 77.256277 
L 65.816842 58.554988 
L 66.203315 49.96733 
L 66.49317 46.965469 
L 66.686407 46.630852 
L 66.879643 47.625043 
L 67.169498 51.561888 
L 67.555971 61.171186 
L 68.039063 79.513723 
L 68.768967 117.786539 
L 71.600652 280.365484 
L 72.108909 294.952885 
L 72.532457 301.294464 
L 72.786585 302.459317 
L 72.871295 302.405337 
L 73.040714 301.63808 
L 73.294842 298.861834 
L 73.63368 292.228065 
L 74.092858 278.275976 
L 74.708007 251.944053 
L 75.528205 207.288772 
L 77.475228 96.773431 
L 78.168119 68.813442 
L 78.707034 54.430173 
L 79.120478 48.306691 
L 79.42461 46.634209 
L 79.546264 46.641202 
L 79.728743 47.371208 
L 79.994248 49.952993 
L 80.326348 55.637692 
L 80.824497 68.933422 
L 81.488696 94.326395 
L 82.40197 139.373876 
L 84.644673 255.170195 
L 85.394426 281.958569 
L 85.97011 295.376366 
L 86.379183 300.721535 
L 86.706442 302.406186 
L 86.788256 302.465992 
L 86.870071 302.381821 
L 87.113854 301.28371 
L 87.47953 297.3051 
L 87.967097 287.863333 
L 88.576557 270.082895 
L 89.310362 241.516496 
L 90.450862 187.625102 
L 92.231741 103.998014 
L 93.14783 71.934762 
L 93.761421 57.227614 
L 94.252294 49.911294 
L 94.620449 47.136061 
L 94.865885 46.5898 
L 94.988603 46.706253 
L 95.181213 47.408059 
L 95.470127 49.631394 
L 95.855345 54.712217 
L 96.336868 64.262821 
L 97.011001 82.94089 
L 97.877743 114.164984 
L 99.487625 183.204563 
L 100.997496 244.696054 
L 101.945295 274.468245 
L 102.622294 289.658963 
L 103.163894 297.67699 
L 103.579389 301.217631 
L 103.856387 302.30315 
L 103.994885 302.464187 
L 104.133384 302.372271 
L 104.410244 301.43784 
L 104.686967 299.52118 
L 105.102052 294.86541 
L 105.650322 285.632144 
L 106.283931 271.034598 
L 107.24669 242.309269 
L 108.505684 197.126366 
L 110.887869 110.663364 
L 111.94605 80.52623 
L 112.709329 64.167314 
L 113.345395 54.484954 
L 113.820866 49.725105 
L 114.266903 47.223634 
L 114.554451 46.618418 
L 114.698224 46.609644 
L 114.841998 46.795032 
L 115.129545 47.741385 
L 115.560866 50.56674 
L 115.992187 55.01216 
L 116.608893 63.99419 
L 117.376932 79.035397 
L 118.33822 102.77886 
L 119.746265 144.067185 
L 122.800877 235.936233 
L 123.888859 262.214827 
L 124.876041 280.909881 
L 125.665356 291.832539 
L 126.323118 298.037922 
L 126.794337 300.8355 
L 127.134004 302.000136 
L 127.473671 302.458146 
L 127.643504 302.425322 
L 127.813337 302.220097 
L 128.233021 300.986147 
L 128.652704 298.745548 
L 129.28223 293.58931 
L 130.025172 284.940009 
L 130.913673 271.383638 
L 131.979874 251.333892 
L 133.252 223.55283 
L 138.30142 108.519656 
L 139.700338 84.11494 
L 140.747865 69.5749 
L 141.680872 59.561408 
L 142.380628 53.924424 
L 143.136832 49.645645 
L 143.640969 47.828239 
L 144.145105 46.822711 
L 144.560415 46.590468 
L 144.723657 46.643532 
L 145.050141 46.989095 
L 145.376625 47.647417 
L 145.985716 49.682408 
L 146.55093 52.466329 
L 147.407653 58.209702 
L 148.268827 65.656219 
L 149.481822 78.581018 
L 150.918614 96.810837 
L 152.955432 126.206763 
L 158.16928 204.366105 
L 159.95604 227.930589 
L 161.691333 247.988366 
L 163.071943 261.710512 
L 164.398699 272.942245 
L 165.823347 282.857719 
L 166.891833 288.865022 
L 167.769216 292.91269 
L 168.646599 296.193437 
L 169.544663 298.79317 
L 170.506285 300.772585 
L 170.987096 301.46676 
L 171.607093 302.085896 
L 172.227091 302.408458 
L 172.847088 302.450141 
L 173.467086 302.226768 
L 173.998973 301.83594 
L 174.53086 301.271669 
L 175.594634 299.662254 
L 176.921085 296.856241 
L 178.445443 292.710778 
L 180.059641 287.464801 
L 182.053102 280.092256 
L 184.404976 270.585498 
L 191.897537 239.343774 
L 194.673112 228.726858 
L 197.564691 218.663227 
L 200.034058 210.969843 
L 202.392507 204.427225 
L 204.622462 198.962609 
L 206.580261 194.728406 
L 208.390337 191.264459 
L 210.444676 187.832189 
L 211.695125 185.989581 
L 213.90228 183.163943 
L 215.532008 181.404375 
L 217.113569 179.941885 
L 218.69513 178.702618 
L 220.842778 177.344452 
L 222.25889 176.633358 
L 225.061704 175.59942 
L 227.601955 175.019265 
L 229.515707 174.757897 
L 233.526133 174.542315 
L 241.776403 174.389135 
L 245.797305 173.826436 
L 247.829725 173.282409 
L 249.054221 172.847754 
L 250.519772 172.207303 
L 252.516677 171.098487 
L 254.179493 169.943059 
L 256.585518 167.851931 
L 258.087609 166.270082 
L 260.42127 163.349459 
L 262.217189 160.688174 
L 264.263414 157.184504 
L 266.060461 153.669207 
L 267.818797 149.813997 
L 269.668415 145.299411 
L 271.824535 139.428308 
L 274.239584 132.069917 
L 276.609476 124.065071 
L 279.229019 114.380981 
L 282.591833 100.894718 
L 291.060375 65.932408 
L 292.460793 60.899425 
L 294.499434 54.539156 
L 295.782526 51.304672 
L 296.694701 49.449045 
L 297.497906 48.163205 
L 298.301111 47.238113 
L 298.807503 46.855567 
L 299.313896 46.638497 
L 299.820288 46.595535 
L 300.326681 46.735316 
L 301.136825 47.360412 
L 301.94697 48.509955 
L 302.613011 49.871687 
L 303.279051 51.628805 
L 304.278112 55.043099 
L 305.388598 59.991471 
L 306.37211 65.435795 
L 307.355623 71.912261 
L 308.851456 83.785623 
L 310.355393 98.189525 
L 311.825111 114.577144 
L 313.740033 139.041205 
L 316.000386 171.499651 
L 321.793106 257.476177 
L 323.263536 275.300192 
L 324.442728 286.980228 
L 325.333531 293.889947 
L 326.206209 298.816377 
L 326.860717 301.193264 
L 327.325164 302.147652 
L 327.571442 302.397295 
L 327.817719 302.464897 
L 328.063997 302.347393 
L 328.310275 302.04196 
L 328.80283 300.857313 
L 329.35086 298.623199 
L 330.02381 294.537075 
L 330.766205 288.297788 
L 331.5086 280.252378 
L 332.436595 267.724831 
L 333.292607 253.868577 
L 334.716538 226.507232 
L 336.491478 186.762906 
L 340.358951 97.338354 
L 341.554472 75.192356 
L 342.498156 61.489019 
L 343.202735 53.914411 
L 343.766399 49.692637 
L 344.203535 47.624586 
L 344.514144 46.823245 
L 344.824753 46.592392 
L 344.980057 46.694416 
L 345.290666 47.339026 
L 345.601275 48.576652 
L 346.067188 51.553595 
L 346.662564 57.314399 
L 347.309881 66.02959 
L 348.038472 78.76766 
L 348.977799 99.373889 
L 350.27124 134.061456 
L 352.402724 199.677891 
L 354.19919 252.049807 
L 355.22545 276.007395 
L 356.080666 290.801667 
L 356.764838 298.537368 
L 357.2277 301.480035 
L 357.574846 302.407101 
L 357.690562 302.466462 
L 357.921993 302.205847 
L 358.153424 301.435705 
L 358.50057 299.319756 
L 358.968855 294.641412 
L 359.556472 285.858026 
L 360.211558 272.420222 
L 361.100408 248.664467 
L 362.257271 210.265014 
L 365.926467 80.927915 
L 366.70431 62.742465 
L 367.287693 53.262888 
L 367.773845 48.438257 
L 368.065536 46.969932 
L 368.259997 46.603606 
L 368.357227 46.606558 
L 368.551688 46.987425 
L 368.860523 48.624836 
L 369.203645 51.929805 
L 369.66114 58.736843 
L 370.23301 70.955715 
L 370.945834 91.460786 
L 371.955635 128.629523 
L 373.785981 207.640589 
L 375.116061 259.779823 
L 375.88024 282.321464 
L 376.468135 294.400168 
L 376.949798 300.350571 
L 377.238795 302.091105 
L 377.43146 302.46417 
L 377.527793 302.411578 
L 377.720458 301.825204 
L 378.009455 299.739908 
L 378.394785 294.722746 
L 378.876447 284.95266 
L 379.498302 266.979322 
L 380.285024 236.859825 
L 381.276057 190.850819 
L 383.306686 95.176318 
L 384.155734 66.262928 
L 384.706072 53.895027 
L 385.164687 48.08412 
L 385.439856 46.694458 
L 385.577081 46.605321 
L 385.714305 46.921837 
L 385.920141 48.159545 
L 386.19459 51.230111 
L 386.606263 58.826963 
L 387.15516 74.25607 
L 387.76985 97.912564 
L 388.710689 143.851804 
L 391.031646 263.198264 
L 391.754412 287.714466 
L 392.236256 297.834828 
L 392.557485 301.455689 
L 392.798407 302.447337 
L 392.878714 302.443622 
L 393.032094 301.968974 
L 393.262162 300.105096 
L 393.574651 295.377176 
L 393.98675 285.388071 
L 394.563688 264.783981 
L 395.305466 228.952208 
L 396.883323 136.428778 
L 397.920137 82.94662 
L 398.553746 60.294045 
L 399.014743 50.348847 
L 399.374988 46.876817 
L 399.519085 46.590293 
L 399.663183 46.942592 
L 399.87933 48.67149 
L 400.167525 53.200498 
L 400.599818 64.607014 
L 401.103495 84.318469 
L 401.745948 117.721711 
L 403.139162 205.923324 
L 404.104073 261.289993 
L 404.77951 288.360915 
L 405.261966 299.350036 
L 405.560402 302.204159 
L 405.679777 302.466443 
L 405.799152 302.220346 
L 405.978214 300.895988 
L 406.268067 296.339309 
L 406.625799 286.719322 
L 407.136844 265.917577 
L 407.852308 225.484394 
L 407.852308 225.484394 
" style="fill:none;stroke:#0000ff;stroke-linecap:square;"/>
   </g>
   <g id="patch_3">
    <path d="M 236.16 307.584 
L 236.16 41.472 
" style="fill:none;stroke:#000000;stroke-linecap:square;stroke-linejoin:miter;stroke-width:0.8;"/>
   </g>
   <g id="patch_4">
    <path d="M 57.6 174.527994 
L 414.72 174.527994 
" style="fill:none;stroke:#000000;stroke-linecap:square;stroke-linejoin:miter;stroke-width:0.8;"/>
   </g>
  </g>
  <g id="axes_2">
   <g id="patch_5">
    <path d="M 109.44 155.52 
L 213.12 155.52 
L 213.12 51.84 
L 109.44 51.84 
z
" style="fill:none;"/>
   </g>
   <g id="matplotlib.axis_3">
    <g id="xtick_34">
     <g id="line2d_56">
      <g>
       <use style="stroke:#000000;stroke-width:0.8;" x="111.433846" xlink:href="#m4e72bf9723" y="103.68"/>
      </g>
     </g>
     <g id="text_11">
      <!-- −1.0 -->
      <g transform="translate(99.29244 118.278437)scale(0.1 -0.1)">
       <use xlink:href="#DejaVuSans-8722"/>
       <use x="83.789062" xlink:href="#DejaVuSans-49"/>
       <use x="147.412109" xlink:href="#DejaVuSans-46"/>
       <use x="179.199219" xlink:href="#DejaVuSans-48"/>
      </g>
     </g>
    </g>
    <g id="xtick_35">
     <g id="line2d_57">
      <g>
       <use style="stroke:#000000;stroke-width:0.8;" x="136.356923" xlink:href="#m4e72bf9723" y="103.68"/>
      </g>
     </g>
     <g id="text_12">
      <!-- −0.5 -->
      <g transform="translate(124.215517 118.278437)scale(0.1 -0.1)">
       <use xlink:href="#DejaVuSans-8722"/>
       <use x="83.789062" xlink:href="#DejaVuSans-48"/>
       <use x="147.412109" xlink:href="#DejaVuSans-46"/>
       <use x="179.199219" xlink:href="#DejaVuSans-53"/>
      </g>
     </g>
    </g>
    <g id="xtick_36">
     <g id="line2d_58">
      <g>
       <use style="stroke:#000000;stroke-width:0.8;" x="161.28" xlink:href="#m4e72bf9723" y="103.68"/>
      </g>
     </g>
    </g>
    <g id="xtick_37">
     <g id="line2d_59">
      <g>
       <use style="stroke:#000000;stroke-width:0.8;" x="186.203077" xlink:href="#m4e72bf9723" y="103.68"/>
      </g>
     </g>
     <g id="text_13">
      <!-- 0.5 -->
      <g transform="translate(178.251514 118.278437)scale(0.1 -0.1)">
       <use xlink:href="#DejaVuSans-48"/>
       <use x="63.623047" xlink:href="#DejaVuSans-46"/>
       <use x="95.410156" xlink:href="#DejaVuSans-53"/>
      </g>
     </g>
    </g>
    <g id="xtick_38">
     <g id="line2d_60">
      <g>
       <use style="stroke:#000000;stroke-width:0.8;" x="211.126154" xlink:href="#m4e72bf9723" y="103.68"/>
      </g>
     </g>
     <g id="text_14">
      <!-- 1.0 -->
      <g transform="translate(203.174591 118.278437)scale(0.1 -0.1)">
       <use xlink:href="#DejaVuSans-49"/>
       <use x="63.623047" xlink:href="#DejaVuSans-46"/>
       <use x="95.410156" xlink:href="#DejaVuSans-48"/>
      </g>
     </g>
    </g>
    <g id="xtick_39">
     <g id="line2d_61">
      <g>
       <use style="stroke:#000000;stroke-width:0.6;" x="116.418462" xlink:href="#m03beb5538d" y="103.68"/>
      </g>
     </g>
    </g>
    <g id="xtick_40">
     <g id="line2d_62">
      <g>
       <use style="stroke:#000000;stroke-width:0.6;" x="121.403077" xlink:href="#m03beb5538d" y="103.68"/>
      </g>
     </g>
    </g>
    <g id="xtick_41">
     <g id="line2d_63">
      <g>
       <use style="stroke:#000000;stroke-width:0.6;" x="126.387692" xlink:href="#m03beb5538d" y="103.68"/>
      </g>
     </g>
    </g>
    <g id="xtick_42">
     <g id="line2d_64">
      <g>
       <use style="stroke:#000000;stroke-width:0.6;" x="131.372308" xlink:href="#m03beb5538d" y="103.68"/>
      </g>
     </g>
    </g>
    <g id="xtick_43">
     <g id="line2d_65">
      <g>
       <use style="stroke:#000000;stroke-width:0.6;" x="141.341538" xlink:href="#m03beb5538d" y="103.68"/>
      </g>
     </g>
    </g>
    <g id="xtick_44">
     <g id="line2d_66">
      <g>
       <use style="stroke:#000000;stroke-width:0.6;" x="146.326154" xlink:href="#m03beb5538d" y="103.68"/>
      </g>
     </g>
    </g>
    <g id="xtick_45">
     <g id="line2d_67">
      <g>
       <use style="stroke:#000000;stroke-width:0.6;" x="151.310769" xlink:href="#m03beb5538d" y="103.68"/>
      </g>
     </g>
    </g>
    <g id="xtick_46">
     <g id="line2d_68">
      <g>
       <use style="stroke:#000000;stroke-width:0.6;" x="156.295385" xlink:href="#m03beb5538d" y="103.68"/>
      </g>
     </g>
    </g>
    <g id="xtick_47">
     <g id="line2d_69">
      <g>
       <use style="stroke:#000000;stroke-width:0.6;" x="166.264615" xlink:href="#m03beb5538d" y="103.68"/>
      </g>
     </g>
    </g>
    <g id="xtick_48">
     <g id="line2d_70">
      <g>
       <use style="stroke:#000000;stroke-width:0.6;" x="171.249231" xlink:href="#m03beb5538d" y="103.68"/>
      </g>
     </g>
    </g>
    <g id="xtick_49">
     <g id="line2d_71">
      <g>
       <use style="stroke:#000000;stroke-width:0.6;" x="176.233846" xlink:href="#m03beb5538d" y="103.68"/>
      </g>
     </g>
    </g>
    <g id="xtick_50">
     <g id="line2d_72">
      <g>
       <use style="stroke:#000000;stroke-width:0.6;" x="181.218462" xlink:href="#m03beb5538d" y="103.68"/>
      </g>
     </g>
    </g>
    <g id="xtick_51">
     <g id="line2d_73">
      <g>
       <use style="stroke:#000000;stroke-width:0.6;" x="191.187692" xlink:href="#m03beb5538d" y="103.68"/>
      </g>
     </g>
    </g>
    <g id="xtick_52">
     <g id="line2d_74">
      <g>
       <use style="stroke:#000000;stroke-width:0.6;" x="196.172308" xlink:href="#m03beb5538d" y="103.68"/>
      </g>
     </g>
    </g>
    <g id="xtick_53">
     <g id="line2d_75">
      <g>
       <use style="stroke:#000000;stroke-width:0.6;" x="201.156923" xlink:href="#m03beb5538d" y="103.68"/>
      </g>
     </g>
    </g>
    <g id="xtick_54">
     <g id="line2d_76">
      <g>
       <use style="stroke:#000000;stroke-width:0.6;" x="206.141538" xlink:href="#m03beb5538d" y="103.68"/>
      </g>
     </g>
    </g>
   </g>
   <g id="matplotlib.axis_4">
    <g id="ytick_22">
     <g id="line2d_77">
      <g>
       <use style="stroke:#000000;stroke-width:0.8;" x="161.28" xlink:href="#m40124ee442" y="153.526154"/>
      </g>
     </g>
     <g id="text_15">
      <!-- −1.0 -->
      <g transform="translate(129.997187 157.325373)scale(0.1 -0.1)">
       <use xlink:href="#DejaVuSans-8722"/>
       <use x="83.789062" xlink:href="#DejaVuSans-49"/>
       <use x="147.412109" xlink:href="#DejaVuSans-46"/>
       <use x="179.199219" xlink:href="#DejaVuSans-48"/>
      </g>
     </g>
    </g>
    <g id="ytick_23">
     <g id="line2d_78">
      <g>
       <use style="stroke:#000000;stroke-width:0.8;" x="161.28" xlink:href="#m40124ee442" y="128.603077"/>
      </g>
     </g>
     <g id="text_16">
      <!-- −0.5 -->
      <g transform="translate(129.997187 132.402296)scale(0.1 -0.1)">
       <use xlink:href="#DejaVuSans-8722"/>
       <use x="83.789062" xlink:href="#DejaVuSans-48"/>
       <use x="147.412109" xlink:href="#DejaVuSans-46"/>
       <use x="179.199219" xlink:href="#DejaVuSans-53"/>
      </g>
     </g>
    </g>
    <g id="ytick_24">
     <g id="line2d_79">
      <g>
       <use style="stroke:#000000;stroke-width:0.8;" x="161.28" xlink:href="#m40124ee442" y="103.68"/>
      </g>
     </g>
    </g>
    <g id="ytick_25">
     <g id="line2d_80">
      <g>
       <use style="stroke:#000000;stroke-width:0.8;" x="161.28" xlink:href="#m40124ee442" y="78.756923"/>
      </g>
     </g>
     <g id="text_17">
      <!-- 0.5 -->
      <g transform="translate(138.376875 82.556142)scale(0.1 -0.1)">
       <use xlink:href="#DejaVuSans-48"/>
       <use x="63.623047" xlink:href="#DejaVuSans-46"/>
       <use x="95.410156" xlink:href="#DejaVuSans-53"/>
      </g>
     </g>
    </g>
    <g id="ytick_26">
     <g id="line2d_81">
      <g>
       <use style="stroke:#000000;stroke-width:0.8;" x="161.28" xlink:href="#m40124ee442" y="53.833846"/>
      </g>
     </g>
     <g id="text_18">
      <!-- 1.0 -->
      <g transform="translate(138.376875 57.633065)scale(0.1 -0.1)">
       <use xlink:href="#DejaVuSans-49"/>
       <use x="63.623047" xlink:href="#DejaVuSans-46"/>
       <use x="95.410156" xlink:href="#DejaVuSans-48"/>
      </g>
     </g>
    </g>
    <g id="ytick_27">
     <g id="line2d_82">
      <g>
       <use style="stroke:#000000;stroke-width:0.6;" x="161.28" xlink:href="#me76214c140" y="148.541538"/>
      </g>
     </g>
    </g>
    <g id="ytick_28">
     <g id="line2d_83">
      <g>
       <use style="stroke:#000000;stroke-width:0.6;" x="161.28" xlink:href="#me76214c140" y="143.556923"/>
      </g>
     </g>
    </g>
    <g id="ytick_29">
     <g id="line2d_84">
      <g>
       <use style="stroke:#000000;stroke-width:0.6;" x="161.28" xlink:href="#me76214c140" y="138.572308"/>
      </g>
     </g>
    </g>
    <g id="ytick_30">
     <g id="line2d_85">
      <g>
       <use style="stroke:#000000;stroke-width:0.6;" x="161.28" xlink:href="#me76214c140" y="133.587692"/>
      </g>
     </g>
    </g>
    <g id="ytick_31">
     <g id="line2d_86">
      <g>
       <use style="stroke:#000000;stroke-width:0.6;" x="161.28" xlink:href="#me76214c140" y="123.618462"/>
      </g>
     </g>
    </g>
    <g id="ytick_32">
     <g id="line2d_87">
      <g>
       <use style="stroke:#000000;stroke-width:0.6;" x="161.28" xlink:href="#me76214c140" y="118.633846"/>
      </g>
     </g>
    </g>
    <g id="ytick_33">
     <g id="line2d_88">
      <g>
       <use style="stroke:#000000;stroke-width:0.6;" x="161.28" xlink:href="#me76214c140" y="113.649231"/>
      </g>
     </g>
    </g>
    <g id="ytick_34">
     <g id="line2d_89">
      <g>
       <use style="stroke:#000000;stroke-width:0.6;" x="161.28" xlink:href="#me76214c140" y="108.664615"/>
      </g>
     </g>
    </g>
    <g id="ytick_35">
     <g id="line2d_90">
      <g>
       <use style="stroke:#000000;stroke-width:0.6;" x="161.28" xlink:href="#me76214c140" y="98.695385"/>
      </g>
     </g>
    </g>
    <g id="ytick_36">
     <g id="line2d_91">
      <g>
       <use style="stroke:#000000;stroke-width:0.6;" x="161.28" xlink:href="#me76214c140" y="93.710769"/>
      </g>
     </g>
    </g>
    <g id="ytick_37">
     <g id="line2d_92">
      <g>
       <use style="stroke:#000000;stroke-width:0.6;" x="161.28" xlink:href="#me76214c140" y="88.726154"/>
      </g>
     </g>
    </g>
    <g id="ytick_38">
     <g id="line2d_93">
      <g>
       <use style="stroke:#000000;stroke-width:0.6;" x="161.28" xlink:href="#me76214c140" y="83.741538"/>
      </g>
     </g>
    </g>
    <g id="ytick_39">
     <g id="line2d_94">
      <g>
       <use style="stroke:#000000;stroke-width:0.6;" x="161.28" xlink:href="#me76214c140" y="73.772308"/>
      </g>
     </g>
    </g>
    <g id="ytick_40">
     <g id="line2d_95">
      <g>
       <use style="stroke:#000000;stroke-width:0.6;" x="161.28" xlink:href="#me76214c140" y="68.787692"/>
      </g>
     </g>
    </g>
    <g id="ytick_41">
     <g id="line2d_96">
      <g>
       <use style="stroke:#000000;stroke-width:0.6;" x="161.28" xlink:href="#me76214c140" y="63.803077"/>
      </g>
     </g>
    </g>
    <g id="ytick_42">
     <g id="line2d_97">
      <g>
       <use style="stroke:#000000;stroke-width:0.6;" x="161.28" xlink:href="#me76214c140" y="58.818462"/>
      </g>
     </g>
    </g>
   </g>
   <g id="patch_6">
    <path d="M 161.28 155.52 
L 161.28 51.84 
" style="fill:none;stroke:#000000;stroke-linecap:square;stroke-linejoin:miter;stroke-width:0.8;"/>
   </g>
   <g id="patch_7">
    <path d="M 109.44 103.68 
L 213.12 103.68 
" style="fill:none;stroke:#000000;stroke-linecap:square;stroke-linejoin:miter;stroke-width:0.8;"/>
   </g>
   <g id="patch_8">
    <path clip-path="url(#pc6ad9a1547)" d="M 161.28 153.526154 
C 174.499355 153.526154 187.179058 148.274049 196.526553 138.926553 
C 205.874049 129.579058 211.126154 116.899355 211.126154 103.68 
C 211.126154 90.460645 205.874049 77.780942 196.526553 68.433447 
C 187.179058 59.085951 174.499355 53.833846 161.28 53.833846 
C 148.060645 53.833846 135.380942 59.085951 126.033447 68.433447 
C 116.685951 77.780942 111.433846 90.460645 111.433846 103.68 
C 111.433846 116.899355 116.685951 129.579058 126.033447 138.926553 
C 135.380942 148.274049 148.060645 153.526154 161.28 153.526154 
z
" style="fill:none;stroke:#ff0000;stroke-linejoin:miter;"/>
   </g>
  </g>
 </g>
 <defs>
  <clipPath id="paa87222501">
   <rect height="266.112" width="357.12" x="57.6" y="41.472"/>
  </clipPath>
  <clipPath id="pc6ad9a1547">
   <rect height="103.68" width="103.68" x="109.44" y="51.84"/>
  </clipPath>
 </defs>
</svg>
