<?xml version="1.0" encoding="utf-8" standalone="no"?>
<!DOCTYPE svg PUBLIC "-//W3C//DTD SVG 1.1//EN"
  "http://www.w3.org/Graphics/SVG/1.1/DTD/svg11.dtd">
<!-- Created with matplotlib (http://matplotlib.org/) -->
<svg height="216pt" version="1.1" viewBox="0 0 288 216" width="288pt" xmlns="http://www.w3.org/2000/svg" xmlns:xlink="http://www.w3.org/1999/xlink">
 <defs>
  <style type="text/css">
*{stroke-linecap:butt;stroke-linejoin:round;}
  </style>
 </defs>
 <g id="figure_1">
  <g id="patch_1">
   <path d="M 0 216 
L 288 216 
L 288 0 
L 0 0 
z
" style="fill:#ffffff;"/>
  </g>
  <g id="axes_1">
   <g id="patch_2">
    <path d="M 13.32 100.08 
L 136.08 100.08 
L 136.08 13.32 
L 13.32 13.32 
z
" style="fill:#ffffff;"/>
   </g>
   <g id="matplotlib.axis_1"/>
   <g id="matplotlib.axis_2"/>
   <g id="line2d_1">
    <path clip-path="url(#pa9d6200c42)" d="M 15.680769 98.411538 
L 20.627481 96.022944 
L 24.982203 93.6911 
L 30.202805 90.631473 
L 35.546861 87.224895 
L 41.012072 83.482648 
L 47.124624 79.026837 
L 54.272563 73.516338 
L 61.909251 67.358951 
L 73.69298 57.545747 
L 89.951385 44.032571 
L 97.921095 37.696096 
L 105.096635 32.283887 
L 111.312946 27.883841 
L 117.185387 24.019783 
L 122.675062 20.699237 
L 127.141017 18.226274 
L 131.865605 15.850061 
L 133.719231 14.988462 
L 133.719231 14.988462 
" style="fill:none;stroke:#0000ff;stroke-linecap:square;"/>
   </g>
  </g>
  <g id="axes_2">
   <g id="patch_3">
    <path d="M 151.92 100.08 
L 274.68 100.08 
L 274.68 13.32 
L 151.92 13.32 
z
" style="fill:#ffffff;"/>
   </g>
   <g id="matplotlib.axis_3"/>
   <g id="matplotlib.axis_4"/>
   <g id="line2d_2">
    <path clip-path="url(#p88d16946a9)" d="M 154.280769 98.411538 
L 158.901418 86.768663 
L 163.36845 76.151018 
L 167.310378 67.351784 
L 171.245011 59.142962 
L 175.213196 51.482154 
L 178.387536 45.824012 
L 181.403375 40.851733 
L 184.319456 36.430097 
L 186.653078 33.172518 
L 189.604291 29.418953 
L 192.23646 26.423226 
L 194.622326 23.999848 
L 197.506766 21.446677 
L 200.042124 19.547459 
L 202.574259 17.976461 
L 204.886348 16.828837 
L 207.206234 15.954388 
L 209.195702 15.426559 
L 211.517077 15.070725 
L 213.443582 14.988462 
L 215.267899 15.088795 
L 217.619995 15.473853 
L 219.823267 16.095282 
L 221.152659 16.59188 
L 223.717623 17.807664 
L 226.070834 19.219898 
L 228.185728 20.729569 
L 231.132561 23.208846 
L 233.736129 25.758857 
L 235.870742 28.097594 
L 238.244738 30.95711 
L 241.025151 34.646229 
L 243.951027 38.915922 
L 246.815781 43.47157 
L 249.493513 48.055895 
L 252.909539 54.346238 
L 256.625042 61.727694 
L 260.033171 68.968643 
L 263.679257 77.185082 
L 267.455078 86.173127 
L 271.822138 97.128857 
L 272.319231 98.411538 
L 272.319231 98.411538 
" style="fill:none;stroke:#0000ff;stroke-linecap:square;"/>
   </g>
  </g>
  <g id="axes_3">
   <g id="patch_4">
    <path d="M 13.32 202.68 
L 136.08 202.68 
L 136.08 115.92 
L 13.32 115.92 
z
" style="fill:#ffffff;"/>
   </g>
   <g id="matplotlib.axis_5"/>
   <g id="matplotlib.axis_6"/>
   <g id="line2d_3">
    <path clip-path="url(#p38eabcf3b6)" d="M 15.680769 201.011538 
L 17.819889 197.862673 
L 20.169942 194.76151 
L 22.844905 191.606719 
L 25.770249 188.529106 
L 28.73457 185.732672 
L 31.675655 183.219543 
L 35.016857 180.622477 
L 39.211894 177.674065 
L 43.352557 175.033445 
L 48.613854 171.974062 
L 54.739163 168.720083 
L 61.690243 165.301289 
L 71.465525 160.769262 
L 89.036544 152.663081 
L 95.961983 149.211123 
L 101.997504 145.946434 
L 106.781031 143.115457 
L 111.300699 140.173597 
L 115.357706 137.245268 
L 119.094385 134.238972 
L 122.205493 131.450928 
L 124.825596 128.854831 
L 127.752451 125.625661 
L 130.463517 122.25338 
L 132.913801 118.814509 
L 133.719231 117.588462 
L 133.719231 117.588462 
" style="fill:none;stroke:#0000ff;stroke-linecap:square;"/>
   </g>
  </g>
  <g id="axes_4">
   <g id="patch_5">
    <path d="M 151.92 202.68 
L 274.68 202.68 
L 274.68 115.92 
L 151.92 115.92 
z
" style="fill:#ffffff;"/>
   </g>
   <g id="matplotlib.axis_7"/>
   <g id="matplotlib.axis_8"/>
   <g id="line2d_4">
    <path clip-path="url(#p5689bd8d66)" d="M 154.280769 117.588462 
L 156.23987 126.417131 
L 158.07447 133.782057 
L 159.993683 140.686019 
L 162.214346 147.796994 
L 164.115024 153.237377 
L 166.022801 158.176455 
L 168.331214 163.540741 
L 170.632226 168.304401 
L 173.285915 173.169861 
L 175.688038 177.066557 
L 178.119979 180.579492 
L 180.580209 183.739665 
L 182.904795 186.399172 
L 185.755986 189.271753 
L 188.556265 191.716117 
L 190.987015 193.562643 
L 193.683087 195.335764 
L 196.328476 196.814586 
L 199.223038 198.156372 
L 201.699623 199.08812 
L 204.350349 199.874881 
L 206.950695 200.442966 
L 209.826986 200.843108 
L 212.752898 201.008908 
L 215.100235 200.967489 
L 218.263174 200.665391 
L 221.257882 200.114993 
L 223.519257 199.524657 
L 225.887422 198.740005 
L 228.9772 197.449193 
L 231.178961 196.335312 
L 233.922874 194.706627 
L 236.582992 192.855024 
L 239.018589 190.905184 
L 241.822824 188.331317 
L 244.252898 185.788335 
L 246.672594 182.937274 
L 249.108147 179.711012 
L 251.647437 175.920929 
L 253.68409 172.528516 
L 255.917349 168.402848 
L 258.120898 163.863564 
L 260.177593 159.150699 
L 262.470105 153.277812 
L 264.29387 148.072662 
L 266.166767 142.163921 
L 268.075586 135.469748 
L 270.182729 127.165184 
L 272.319231 117.588462 
L 272.319231 117.588462 
" style="fill:none;stroke:#0000ff;stroke-linecap:square;"/>
   </g>
  </g>
 </g>
 <defs>
  <clipPath id="pa9d6200c42">
   <rect height="86.76" width="122.76" x="13.32" y="13.32"/>
  </clipPath>
  <clipPath id="p88d16946a9">
   <rect height="86.76" width="122.76" x="151.92" y="13.32"/>
  </clipPath>
  <clipPath id="p38eabcf3b6">
   <rect height="86.76" width="122.76" x="13.32" y="115.92"/>
  </clipPath>
  <clipPath id="p5689bd8d66">
   <rect height="86.76" width="122.76" x="151.92" y="115.92"/>
  </clipPath>
 </defs>
</svg>
