<?xml version="1.0" encoding="utf-8" standalone="no"?>
<!DOCTYPE svg PUBLIC "-//W3C//DTD SVG 1.1//EN"
  "http://www.w3.org/Graphics/SVG/1.1/DTD/svg11.dtd">
<!-- Created with matplotlib (http://matplotlib.org/) -->
<svg height="345.6pt" version="1.1" viewBox="0 0 460.8 345.6" width="460.8pt" xmlns="http://www.w3.org/2000/svg" xmlns:xlink="http://www.w3.org/1999/xlink">
 <defs>
  <style type="text/css">
*{stroke-linecap:butt;stroke-linejoin:round;}
  </style>
 </defs>
 <g id="figure_1">
  <g id="patch_1">
   <path d="M 0 345.6 
L 460.8 345.6 
L 460.8 0 
L 0 0 
z
" style="fill:#ffffff;"/>
  </g>
  <g id="axes_1">
   <g id="patch_2">
    <path d="M 15.780505 334.47226 
L 458.28 334.47226 
L 458.28 2.52 
L 15.780505 2.52 
z
" style="fill:#ffffff;"/>
   </g>
   <g id="matplotlib.axis_1">
    <g id="xtick_1">
     <g id="line2d_1">
      <defs>
       <path d="M 0 0 
L 0 3.5 
" id="m2a2e9e2f5f" style="stroke:#000000;stroke-width:0.8;"/>
      </defs>
      <g>
       <use style="stroke:#000000;stroke-width:0.8;" x="19.99233" xlink:href="#m2a2e9e2f5f" y="328.088563"/>
      </g>
     </g>
    </g>
    <g id="xtick_2">
     <g id="line2d_2">
      <g>
       <use style="stroke:#000000;stroke-width:0.8;" x="105.947943" xlink:href="#m2a2e9e2f5f" y="328.088563"/>
      </g>
     </g>
     <g id="text_1">
      <!-- 20 -->
      <defs>
       <path d="M 19.1875 8.296875 
L 53.609375 8.296875 
L 53.609375 0 
L 7.328125 0 
L 7.328125 8.296875 
Q 12.9375 14.109375 22.625 23.890625 
Q 32.328125 33.6875 34.8125 36.53125 
Q 39.546875 41.84375 41.421875 45.53125 
Q 43.3125 49.21875 43.3125 52.78125 
Q 43.3125 58.59375 39.234375 62.25 
Q 35.15625 65.921875 28.609375 65.921875 
Q 23.96875 65.921875 18.8125 64.3125 
Q 13.671875 62.703125 7.8125 59.421875 
L 7.8125 69.390625 
Q 13.765625 71.78125 18.9375 73 
Q 24.125 74.21875 28.421875 74.21875 
Q 39.75 74.21875 46.484375 68.546875 
Q 53.21875 62.890625 53.21875 53.421875 
Q 53.21875 48.921875 51.53125 44.890625 
Q 49.859375 40.875 45.40625 35.40625 
Q 44.1875 33.984375 37.640625 27.21875 
Q 31.109375 20.453125 19.1875 8.296875 
z
" id="DejaVuSans-32"/>
       <path d="M 31.78125 66.40625 
Q 24.171875 66.40625 20.328125 58.90625 
Q 16.5 51.421875 16.5 36.375 
Q 16.5 21.390625 20.328125 13.890625 
Q 24.171875 6.390625 31.78125 6.390625 
Q 39.453125 6.390625 43.28125 13.890625 
Q 47.125 21.390625 47.125 36.375 
Q 47.125 51.421875 43.28125 58.90625 
Q 39.453125 66.40625 31.78125 66.40625 
z
M 31.78125 74.21875 
Q 44.046875 74.21875 50.515625 64.515625 
Q 56.984375 54.828125 56.984375 36.375 
Q 56.984375 17.96875 50.515625 8.265625 
Q 44.046875 -1.421875 31.78125 -1.421875 
Q 19.53125 -1.421875 13.0625 8.265625 
Q 6.59375 17.96875 6.59375 36.375 
Q 6.59375 54.828125 13.0625 64.515625 
Q 19.53125 74.21875 31.78125 74.21875 
z
" id="DejaVuSans-30"/>
      </defs>
      <g transform="translate(99.585443 342.687001)scale(0.1 -0.1)">
       <use xlink:href="#DejaVuSans-32"/>
       <use x="63.623047" xlink:href="#DejaVuSans-30"/>
      </g>
     </g>
    </g>
    <g id="xtick_3">
     <g id="line2d_3">
      <g>
       <use style="stroke:#000000;stroke-width:0.8;" x="191.903556" xlink:href="#m2a2e9e2f5f" y="328.088563"/>
      </g>
     </g>
     <g id="text_2">
      <!-- 40 -->
      <defs>
       <path d="M 37.796875 64.3125 
L 12.890625 25.390625 
L 37.796875 25.390625 
z
M 35.203125 72.90625 
L 47.609375 72.90625 
L 47.609375 25.390625 
L 58.015625 25.390625 
L 58.015625 17.1875 
L 47.609375 17.1875 
L 47.609375 0 
L 37.796875 0 
L 37.796875 17.1875 
L 4.890625 17.1875 
L 4.890625 26.703125 
z
" id="DejaVuSans-34"/>
      </defs>
      <g transform="translate(185.541056 342.687001)scale(0.1 -0.1)">
       <use xlink:href="#DejaVuSans-34"/>
       <use x="63.623047" xlink:href="#DejaVuSans-30"/>
      </g>
     </g>
    </g>
    <g id="xtick_4">
     <g id="line2d_4">
      <g>
       <use style="stroke:#000000;stroke-width:0.8;" x="277.859169" xlink:href="#m2a2e9e2f5f" y="328.088563"/>
      </g>
     </g>
     <g id="text_3">
      <!-- 60 -->
      <defs>
       <path d="M 33.015625 40.375 
Q 26.375 40.375 22.484375 35.828125 
Q 18.609375 31.296875 18.609375 23.390625 
Q 18.609375 15.53125 22.484375 10.953125 
Q 26.375 6.390625 33.015625 6.390625 
Q 39.65625 6.390625 43.53125 10.953125 
Q 47.40625 15.53125 47.40625 23.390625 
Q 47.40625 31.296875 43.53125 35.828125 
Q 39.65625 40.375 33.015625 40.375 
z
M 52.59375 71.296875 
L 52.59375 62.3125 
Q 48.875 64.0625 45.09375 64.984375 
Q 41.3125 65.921875 37.59375 65.921875 
Q 27.828125 65.921875 22.671875 59.328125 
Q 17.53125 52.734375 16.796875 39.40625 
Q 19.671875 43.65625 24.015625 45.921875 
Q 28.375 48.1875 33.59375 48.1875 
Q 44.578125 48.1875 50.953125 41.515625 
Q 57.328125 34.859375 57.328125 23.390625 
Q 57.328125 12.15625 50.6875 5.359375 
Q 44.046875 -1.421875 33.015625 -1.421875 
Q 20.359375 -1.421875 13.671875 8.265625 
Q 6.984375 17.96875 6.984375 36.375 
Q 6.984375 53.65625 15.1875 63.9375 
Q 23.390625 74.21875 37.203125 74.21875 
Q 40.921875 74.21875 44.703125 73.484375 
Q 48.484375 72.75 52.59375 71.296875 
z
" id="DejaVuSans-36"/>
      </defs>
      <g transform="translate(271.496669 342.687001)scale(0.1 -0.1)">
       <use xlink:href="#DejaVuSans-36"/>
       <use x="63.623047" xlink:href="#DejaVuSans-30"/>
      </g>
     </g>
    </g>
    <g id="xtick_5">
     <g id="line2d_5">
      <g>
       <use style="stroke:#000000;stroke-width:0.8;" x="363.814781" xlink:href="#m2a2e9e2f5f" y="328.088563"/>
      </g>
     </g>
     <g id="text_4">
      <!-- 80 -->
      <defs>
       <path d="M 31.78125 34.625 
Q 24.75 34.625 20.71875 30.859375 
Q 16.703125 27.09375 16.703125 20.515625 
Q 16.703125 13.921875 20.71875 10.15625 
Q 24.75 6.390625 31.78125 6.390625 
Q 38.8125 6.390625 42.859375 10.171875 
Q 46.921875 13.96875 46.921875 20.515625 
Q 46.921875 27.09375 42.890625 30.859375 
Q 38.875 34.625 31.78125 34.625 
z
M 21.921875 38.8125 
Q 15.578125 40.375 12.03125 44.71875 
Q 8.5 49.078125 8.5 55.328125 
Q 8.5 64.0625 14.71875 69.140625 
Q 20.953125 74.21875 31.78125 74.21875 
Q 42.671875 74.21875 48.875 69.140625 
Q 55.078125 64.0625 55.078125 55.328125 
Q 55.078125 49.078125 51.53125 44.71875 
Q 48 40.375 41.703125 38.8125 
Q 48.828125 37.15625 52.796875 32.3125 
Q 56.78125 27.484375 56.78125 20.515625 
Q 56.78125 9.90625 50.3125 4.234375 
Q 43.84375 -1.421875 31.78125 -1.421875 
Q 19.734375 -1.421875 13.25 4.234375 
Q 6.78125 9.90625 6.78125 20.515625 
Q 6.78125 27.484375 10.78125 32.3125 
Q 14.796875 37.15625 21.921875 38.8125 
z
M 18.3125 54.390625 
Q 18.3125 48.734375 21.84375 45.5625 
Q 25.390625 42.390625 31.78125 42.390625 
Q 38.140625 42.390625 41.71875 45.5625 
Q 45.3125 48.734375 45.3125 54.390625 
Q 45.3125 60.0625 41.71875 63.234375 
Q 38.140625 66.40625 31.78125 66.40625 
Q 25.390625 66.40625 21.84375 63.234375 
Q 18.3125 60.0625 18.3125 54.390625 
z
" id="DejaVuSans-38"/>
      </defs>
      <g transform="translate(357.452281 342.687001)scale(0.1 -0.1)">
       <use xlink:href="#DejaVuSans-38"/>
       <use x="63.623047" xlink:href="#DejaVuSans-30"/>
      </g>
     </g>
    </g>
    <g id="xtick_6">
     <g id="line2d_6">
      <g>
       <use style="stroke:#000000;stroke-width:0.8;" x="449.770394" xlink:href="#m2a2e9e2f5f" y="328.088563"/>
      </g>
     </g>
     <g id="text_5">
      <!-- 100 -->
      <defs>
       <path d="M 12.40625 8.296875 
L 28.515625 8.296875 
L 28.515625 63.921875 
L 10.984375 60.40625 
L 10.984375 69.390625 
L 28.421875 72.90625 
L 38.28125 72.90625 
L 38.28125 8.296875 
L 54.390625 8.296875 
L 54.390625 0 
L 12.40625 0 
z
" id="DejaVuSans-31"/>
      </defs>
      <g transform="translate(440.226644 342.687001)scale(0.1 -0.1)">
       <use xlink:href="#DejaVuSans-31"/>
       <use x="63.623047" xlink:href="#DejaVuSans-30"/>
       <use x="127.246094" xlink:href="#DejaVuSans-30"/>
      </g>
     </g>
    </g>
    <g id="xtick_7">
     <g id="line2d_7">
      <defs>
       <path d="M 0 0 
L 0 2 
" id="mffa59016b2" style="stroke:#000000;stroke-width:0.6;"/>
      </defs>
      <g>
       <use style="stroke:#000000;stroke-width:0.6;" x="41.481233" xlink:href="#mffa59016b2" y="328.088563"/>
      </g>
     </g>
    </g>
    <g id="xtick_8">
     <g id="line2d_8">
      <g>
       <use style="stroke:#000000;stroke-width:0.6;" x="62.970136" xlink:href="#mffa59016b2" y="328.088563"/>
      </g>
     </g>
    </g>
    <g id="xtick_9">
     <g id="line2d_9">
      <g>
       <use style="stroke:#000000;stroke-width:0.6;" x="84.45904" xlink:href="#mffa59016b2" y="328.088563"/>
      </g>
     </g>
    </g>
    <g id="xtick_10">
     <g id="line2d_10">
      <g>
       <use style="stroke:#000000;stroke-width:0.6;" x="127.436846" xlink:href="#mffa59016b2" y="328.088563"/>
      </g>
     </g>
    </g>
    <g id="xtick_11">
     <g id="line2d_11">
      <g>
       <use style="stroke:#000000;stroke-width:0.6;" x="148.925749" xlink:href="#mffa59016b2" y="328.088563"/>
      </g>
     </g>
    </g>
    <g id="xtick_12">
     <g id="line2d_12">
      <g>
       <use style="stroke:#000000;stroke-width:0.6;" x="170.414652" xlink:href="#mffa59016b2" y="328.088563"/>
      </g>
     </g>
    </g>
    <g id="xtick_13">
     <g id="line2d_13">
      <g>
       <use style="stroke:#000000;stroke-width:0.6;" x="213.392459" xlink:href="#mffa59016b2" y="328.088563"/>
      </g>
     </g>
    </g>
    <g id="xtick_14">
     <g id="line2d_14">
      <g>
       <use style="stroke:#000000;stroke-width:0.6;" x="234.881362" xlink:href="#mffa59016b2" y="328.088563"/>
      </g>
     </g>
    </g>
    <g id="xtick_15">
     <g id="line2d_15">
      <g>
       <use style="stroke:#000000;stroke-width:0.6;" x="256.370265" xlink:href="#mffa59016b2" y="328.088563"/>
      </g>
     </g>
    </g>
    <g id="xtick_16">
     <g id="line2d_16">
      <g>
       <use style="stroke:#000000;stroke-width:0.6;" x="299.348072" xlink:href="#mffa59016b2" y="328.088563"/>
      </g>
     </g>
    </g>
    <g id="xtick_17">
     <g id="line2d_17">
      <g>
       <use style="stroke:#000000;stroke-width:0.6;" x="320.836975" xlink:href="#mffa59016b2" y="328.088563"/>
      </g>
     </g>
    </g>
    <g id="xtick_18">
     <g id="line2d_18">
      <g>
       <use style="stroke:#000000;stroke-width:0.6;" x="342.325878" xlink:href="#mffa59016b2" y="328.088563"/>
      </g>
     </g>
    </g>
    <g id="xtick_19">
     <g id="line2d_19">
      <g>
       <use style="stroke:#000000;stroke-width:0.6;" x="385.303685" xlink:href="#mffa59016b2" y="328.088563"/>
      </g>
     </g>
    </g>
    <g id="xtick_20">
     <g id="line2d_20">
      <g>
       <use style="stroke:#000000;stroke-width:0.6;" x="406.792588" xlink:href="#mffa59016b2" y="328.088563"/>
      </g>
     </g>
    </g>
    <g id="xtick_21">
     <g id="line2d_21">
      <g>
       <use style="stroke:#000000;stroke-width:0.6;" x="428.281491" xlink:href="#mffa59016b2" y="328.088563"/>
      </g>
     </g>
    </g>
   </g>
   <g id="matplotlib.axis_2">
    <g id="ytick_1">
     <g id="line2d_22">
      <defs>
       <path d="M 0 0 
L -3.5 0 
" id="m3332729414" style="stroke:#000000;stroke-width:0.8;"/>
      </defs>
      <g>
       <use style="stroke:#000000;stroke-width:0.8;" x="19.99233" xlink:href="#m3332729414" y="328.088563"/>
      </g>
     </g>
    </g>
    <g id="ytick_2">
     <g id="line2d_23">
      <g>
       <use style="stroke:#000000;stroke-width:0.8;" x="19.99233" xlink:href="#m3332729414" y="264.25159"/>
      </g>
     </g>
     <g id="text_6">
      <!-- 5 -->
      <defs>
       <path d="M 10.796875 72.90625 
L 49.515625 72.90625 
L 49.515625 64.59375 
L 19.828125 64.59375 
L 19.828125 46.734375 
Q 21.96875 47.46875 24.109375 47.828125 
Q 26.265625 48.1875 28.421875 48.1875 
Q 40.625 48.1875 47.75 41.5 
Q 54.890625 34.8125 54.890625 23.390625 
Q 54.890625 11.625 47.5625 5.09375 
Q 40.234375 -1.421875 26.90625 -1.421875 
Q 22.3125 -1.421875 17.546875 -0.640625 
Q 12.796875 0.140625 7.71875 1.703125 
L 7.71875 11.625 
Q 12.109375 9.234375 16.796875 8.0625 
Q 21.484375 6.890625 26.703125 6.890625 
Q 35.15625 6.890625 40.078125 11.328125 
Q 45.015625 15.765625 45.015625 23.390625 
Q 45.015625 31 40.078125 35.4375 
Q 35.15625 39.890625 26.703125 39.890625 
Q 22.75 39.890625 18.8125 39.015625 
Q 14.890625 38.140625 10.796875 36.28125 
z
" id="DejaVuSans-35"/>
      </defs>
      <g transform="translate(6.62983 268.050809)scale(0.1 -0.1)">
       <use xlink:href="#DejaVuSans-35"/>
      </g>
     </g>
    </g>
    <g id="ytick_3">
     <g id="line2d_24">
      <g>
       <use style="stroke:#000000;stroke-width:0.8;" x="19.99233" xlink:href="#m3332729414" y="200.414617"/>
      </g>
     </g>
     <g id="text_7">
      <!-- 10 -->
      <g transform="translate(0.26733 204.213836)scale(0.1 -0.1)">
       <use xlink:href="#DejaVuSans-31"/>
       <use x="63.623047" xlink:href="#DejaVuSans-30"/>
      </g>
     </g>
    </g>
    <g id="ytick_4">
     <g id="line2d_25">
      <g>
       <use style="stroke:#000000;stroke-width:0.8;" x="19.99233" xlink:href="#m3332729414" y="136.577644"/>
      </g>
     </g>
     <g id="text_8">
      <!-- 15 -->
      <g transform="translate(0.26733 140.376862)scale(0.1 -0.1)">
       <use xlink:href="#DejaVuSans-31"/>
       <use x="63.623047" xlink:href="#DejaVuSans-35"/>
      </g>
     </g>
    </g>
    <g id="ytick_5">
     <g id="line2d_26">
      <g>
       <use style="stroke:#000000;stroke-width:0.8;" x="19.99233" xlink:href="#m3332729414" y="72.74067"/>
      </g>
     </g>
     <g id="text_9">
      <!-- 20 -->
      <g transform="translate(0.26733 76.539889)scale(0.1 -0.1)">
       <use xlink:href="#DejaVuSans-32"/>
       <use x="63.623047" xlink:href="#DejaVuSans-30"/>
      </g>
     </g>
    </g>
    <g id="ytick_6">
     <g id="line2d_27">
      <g>
       <use style="stroke:#000000;stroke-width:0.8;" x="19.99233" xlink:href="#m3332729414" y="8.903697"/>
      </g>
     </g>
     <g id="text_10">
      <!-- 25 -->
      <g transform="translate(0.26733 12.702916)scale(0.1 -0.1)">
       <use xlink:href="#DejaVuSans-32"/>
       <use x="63.623047" xlink:href="#DejaVuSans-35"/>
      </g>
     </g>
    </g>
    <g id="ytick_7">
     <g id="line2d_28">
      <defs>
       <path d="M 0 0 
L -2 0 
" id="m4a8cd49e40" style="stroke:#000000;stroke-width:0.6;"/>
      </defs>
      <g>
       <use style="stroke:#000000;stroke-width:0.6;" x="19.99233" xlink:href="#m4a8cd49e40" y="315.321168"/>
      </g>
     </g>
    </g>
    <g id="ytick_8">
     <g id="line2d_29">
      <g>
       <use style="stroke:#000000;stroke-width:0.6;" x="19.99233" xlink:href="#m4a8cd49e40" y="302.553774"/>
      </g>
     </g>
    </g>
    <g id="ytick_9">
     <g id="line2d_30">
      <g>
       <use style="stroke:#000000;stroke-width:0.6;" x="19.99233" xlink:href="#m4a8cd49e40" y="289.786379"/>
      </g>
     </g>
    </g>
    <g id="ytick_10">
     <g id="line2d_31">
      <g>
       <use style="stroke:#000000;stroke-width:0.6;" x="19.99233" xlink:href="#m4a8cd49e40" y="277.018985"/>
      </g>
     </g>
    </g>
    <g id="ytick_11">
     <g id="line2d_32">
      <g>
       <use style="stroke:#000000;stroke-width:0.6;" x="19.99233" xlink:href="#m4a8cd49e40" y="251.484195"/>
      </g>
     </g>
    </g>
    <g id="ytick_12">
     <g id="line2d_33">
      <g>
       <use style="stroke:#000000;stroke-width:0.6;" x="19.99233" xlink:href="#m4a8cd49e40" y="238.716801"/>
      </g>
     </g>
    </g>
    <g id="ytick_13">
     <g id="line2d_34">
      <g>
       <use style="stroke:#000000;stroke-width:0.6;" x="19.99233" xlink:href="#m4a8cd49e40" y="225.949406"/>
      </g>
     </g>
    </g>
    <g id="ytick_14">
     <g id="line2d_35">
      <g>
       <use style="stroke:#000000;stroke-width:0.6;" x="19.99233" xlink:href="#m4a8cd49e40" y="213.182011"/>
      </g>
     </g>
    </g>
    <g id="ytick_15">
     <g id="line2d_36">
      <g>
       <use style="stroke:#000000;stroke-width:0.6;" x="19.99233" xlink:href="#m4a8cd49e40" y="187.647222"/>
      </g>
     </g>
    </g>
    <g id="ytick_16">
     <g id="line2d_37">
      <g>
       <use style="stroke:#000000;stroke-width:0.6;" x="19.99233" xlink:href="#m4a8cd49e40" y="174.879827"/>
      </g>
     </g>
    </g>
    <g id="ytick_17">
     <g id="line2d_38">
      <g>
       <use style="stroke:#000000;stroke-width:0.6;" x="19.99233" xlink:href="#m4a8cd49e40" y="162.112433"/>
      </g>
     </g>
    </g>
    <g id="ytick_18">
     <g id="line2d_39">
      <g>
       <use style="stroke:#000000;stroke-width:0.6;" x="19.99233" xlink:href="#m4a8cd49e40" y="149.345038"/>
      </g>
     </g>
    </g>
    <g id="ytick_19">
     <g id="line2d_40">
      <g>
       <use style="stroke:#000000;stroke-width:0.6;" x="19.99233" xlink:href="#m4a8cd49e40" y="123.810249"/>
      </g>
     </g>
    </g>
    <g id="ytick_20">
     <g id="line2d_41">
      <g>
       <use style="stroke:#000000;stroke-width:0.6;" x="19.99233" xlink:href="#m4a8cd49e40" y="111.042854"/>
      </g>
     </g>
    </g>
    <g id="ytick_21">
     <g id="line2d_42">
      <g>
       <use style="stroke:#000000;stroke-width:0.6;" x="19.99233" xlink:href="#m4a8cd49e40" y="98.27546"/>
      </g>
     </g>
    </g>
    <g id="ytick_22">
     <g id="line2d_43">
      <g>
       <use style="stroke:#000000;stroke-width:0.6;" x="19.99233" xlink:href="#m4a8cd49e40" y="85.508065"/>
      </g>
     </g>
    </g>
    <g id="ytick_23">
     <g id="line2d_44">
      <g>
       <use style="stroke:#000000;stroke-width:0.6;" x="19.99233" xlink:href="#m4a8cd49e40" y="59.973276"/>
      </g>
     </g>
    </g>
    <g id="ytick_24">
     <g id="line2d_45">
      <g>
       <use style="stroke:#000000;stroke-width:0.6;" x="19.99233" xlink:href="#m4a8cd49e40" y="47.205881"/>
      </g>
     </g>
    </g>
    <g id="ytick_25">
     <g id="line2d_46">
      <g>
       <use style="stroke:#000000;stroke-width:0.6;" x="19.99233" xlink:href="#m4a8cd49e40" y="34.438487"/>
      </g>
     </g>
    </g>
    <g id="ytick_26">
     <g id="line2d_47">
      <g>
       <use style="stroke:#000000;stroke-width:0.6;" x="19.99233" xlink:href="#m4a8cd49e40" y="21.671092"/>
      </g>
     </g>
    </g>
   </g>
   <g id="line2d_48">
    <path clip-path="url(#p0b257bc2c5)" d="M 24.290111 328.088563 
L 25.402872 328.088563 
L 27.842893 328.088563 
L 28.162411 328.088563 
L 28.375151 328.088563 
L 28.481521 328.088563 
L 28.534706 328.088563 
" style="fill:none;stroke:#0000ff;stroke-linecap:square;"/>
   </g>
   <g id="line2d_49">
    <path clip-path="url(#p0b257bc2c5)" d="M 29.013371 315.321168 
L 31.059754 315.321168 
L 32.460192 315.321168 
L 32.672932 315.321168 
L 32.779302 315.321168 
L 32.832487 315.321168 
" style="fill:none;stroke:#0000ff;stroke-linecap:square;"/>
   </g>
   <g id="line2d_50">
    <path clip-path="url(#p0b257bc2c5)" d="M 33.311152 302.553774 
L 33.475341 302.553774 
L 35.981056 302.553774 
L 37.021129 302.553774 
L 39.873312 302.553774 
L 40.353499 302.553774 
L 41.055753 302.553774 
L 41.268493 302.553774 
L 41.374863 302.553774 
L 41.428048 302.553774 
" style="fill:none;stroke:#0000ff;stroke-linecap:square;"/>
   </g>
   <g id="line2d_51">
    <path clip-path="url(#p0b257bc2c5)" d="M 41.906713 289.786379 
L 43.092981 289.786379 
L 45.716143 289.786379 
L 48.499712 289.786379 
L 48.964306 289.786379 
L 49.651314 289.786379 
L 49.864054 289.786379 
L 49.970424 289.786379 
L 50.023609 289.786379 
" style="fill:none;stroke:#0000ff;stroke-linecap:square;"/>
   </g>
   <g id="line2d_52">
    <path clip-path="url(#p0b257bc2c5)" d="M 50.502275 277.018985 
L 52.826232 277.018985 
L 54.955549 277.018985 
L 55.999812 277.018985 
L 57.590719 277.018985 
L 61.01088 277.018985 
L 62.293409 277.018985 
L 65.812784 277.018985 
L 66.842437 277.018985 
L 67.055177 277.018985 
L 67.161547 277.018985 
L 67.214732 277.018985 
" style="fill:none;stroke:#0000ff;stroke-linecap:square;"/>
   </g>
   <g id="line2d_53">
    <path clip-path="url(#p0b257bc2c5)" d="M 67.693397 264.25159 
L 67.727498 264.25159 
L 68.776861 264.25159 
L 71.43107 264.25159 
L 72.97425 264.25159 
L 75.437998 264.25159 
L 75.650738 264.25159 
L 75.757108 264.25159 
L 75.810293 264.25159 
" style="fill:none;stroke:#0000ff;stroke-linecap:square;"/>
   </g>
   <g id="line2d_54">
    <path clip-path="url(#p0b257bc2c5)" d="M 76.288959 251.484195 
L 76.351959 251.484195 
L 77.707326 251.484195 
L 80.077421 251.484195 
L 81.094613 251.484195 
L 83.267731 251.484195 
L 85.438701 251.484195 
L 89.44313 251.484195 
L 91.292211 251.484195 
L 92.629121 251.484195 
L 93.028627 251.484195 
" style="fill:none;stroke:#0000ff;stroke-linecap:square;"/>
   </g>
   <g id="line2d_55">
    <path clip-path="url(#p0b257bc2c5)" d="M 93.085059 238.716801 
L 93.141491 238.716801 
L 93.254354 238.716801 
L 93.480081 238.716801 
L 94.999385 238.716801 
L 97.24035 238.716801 
L 98.709103 238.716801 
L 101.020963 238.716801 
L 101.224682 238.716801 
L 101.437422 238.716801 
L 101.543792 238.716801 
L 101.596977 238.716801 
" style="fill:none;stroke:#0000ff;stroke-linecap:square;"/>
   </g>
   <g id="line2d_56">
    <path clip-path="url(#p0b257bc2c5)" d="M 102.075642 225.949406 
L 103.954351 225.949406 
L 105.812358 225.949406 
L 107.476345 225.949406 
L 110.660012 225.949406 
L 111.151966 225.949406 
L 114.447343 225.949406 
L 115.862867 225.949406 
L 117.771455 225.949406 
L 118.415804 225.949406 
L 118.628545 225.949406 
L 118.734915 225.949406 
L 118.7881 225.949406 
" style="fill:none;stroke:#0000ff;stroke-linecap:square;"/>
   </g>
   <g id="line2d_57">
    <path clip-path="url(#p0b257bc2c5)" d="M 119.266765 213.182011 
L 120.560145 213.182011 
L 121.762568 213.182011 
L 124.087432 213.182011 
L 126.489509 213.182011 
L 129.379122 213.182011 
L 130.315706 213.182011 
L 132.676023 213.182011 
L 136.032641 213.182011 
L 138.202915 213.182011 
L 138.904946 213.182011 
L 141.859841 213.182011 
L 142.971149 213.182011 
L 144.202488 213.182011 
L 144.415228 213.182011 
L 144.521599 213.182011 
L 144.574784 213.182011 
" style="fill:none;stroke:#0000ff;stroke-linecap:square;"/>
   </g>
   <g id="line2d_58">
    <path clip-path="url(#p0b257bc2c5)" d="M 145.053449 200.414617 
L 145.442063 200.414617 
L 147.810302 200.414617 
L 150.408885 200.414617 
L 151.524935 200.414617 
L 152.79805 200.414617 
L 153.01079 200.414617 
L 153.11716 200.414617 
L 153.170345 200.414617 
" style="fill:none;stroke:#0000ff;stroke-linecap:square;"/>
   </g>
   <g id="line2d_59">
    <path clip-path="url(#p0b257bc2c5)" d="M 153.64901 187.647222 
L 155.294597 187.647222 
L 157.27557 187.647222 
L 158.93307 187.647222 
L 161.159566 187.647222 
L 163.051476 187.647222 
L 164.968499 187.647222 
L 167.060347 187.647222 
L 168.671512 187.647222 
L 171.103314 187.647222 
L 174.122032 187.647222 
L 176.617876 187.647222 
L 177.270543 187.647222 
L 178.584733 187.647222 
L 178.797474 187.647222 
L 178.903844 187.647222 
L 178.957029 187.647222 
" style="fill:none;stroke:#0000ff;stroke-linecap:square;"/>
   </g>
   <g id="line2d_60">
    <path clip-path="url(#p0b257bc2c5)" d="M 179.435694 174.879827 
L 179.519549 174.879827 
L 182.18338 174.879827 
L 184.919015 174.879827 
L 186.100202 174.879827 
L 189.132622 174.879827 
L 190.532925 174.879827 
L 192.198193 174.879827 
L 194.420502 174.879827 
L 195.775856 174.879827 
L 196.160747 174.879827 
" style="fill:none;stroke:#0000ff;stroke-linecap:square;"/>
   </g>
   <g id="line2d_61">
    <path clip-path="url(#p0b257bc2c5)" d="M 196.25697 162.112433 
L 196.353193 162.112433 
L 196.545638 162.112433 
L 196.626817 162.112433 
L 198.665537 162.112433 
L 201.482681 162.112433 
L 203.340921 162.112433 
L 204.371417 162.112433 
L 204.584157 162.112433 
L 204.690528 162.112433 
L 204.743713 162.112433 
" style="fill:none;stroke:#0000ff;stroke-linecap:square;"/>
   </g>
   <g id="line2d_62">
    <path clip-path="url(#p0b257bc2c5)" d="M 205.222378 149.345038 
L 205.348586 149.345038 
L 208.405816 149.345038 
L 209.495151 149.345038 
L 213.187175 149.345038 
L 215.485102 149.345038 
L 217.497298 149.345038 
L 218.608425 149.345038 
L 220.655154 149.345038 
L 221.56254 149.345038 
L 221.77528 149.345038 
L 221.88165 149.345038 
L 221.934835 149.345038 
" style="fill:none;stroke:#0000ff;stroke-linecap:square;"/>
   </g>
   <g id="line2d_63">
    <path clip-path="url(#p0b257bc2c5)" d="M 222.4135 136.577644 
L 224.119628 136.577644 
L 225.948519 136.577644 
L 227.982504 136.577644 
L 229.180963 136.577644 
L 230.873814 136.577644 
L 232.796031 136.577644 
L 235.411442 136.577644 
L 238.699754 136.577644 
L 239.852922 136.577644 
L 241.411091 136.577644 
L 245.083219 136.577644 
L 245.953749 136.577644 
L 247.349224 136.577644 
L 247.561964 136.577644 
L 247.668334 136.577644 
L 247.721519 136.577644 
" style="fill:none;stroke:#0000ff;stroke-linecap:square;"/>
   </g>
   <g id="line2d_64">
    <path clip-path="url(#p0b257bc2c5)" d="M 248.200184 123.810249 
L 249.734595 123.810249 
L 251.445662 123.810249 
L 252.093323 123.810249 
L 255.935551 123.810249 
L 256.718556 123.810249 
L 259.190546 123.810249 
L 261.211513 123.810249 
L 264.013998 123.810249 
L 264.833807 123.810249 
L 268.519285 123.810249 
L 269.558845 123.810249 
L 271.882222 123.810249 
L 273.135908 123.810249 
L 273.348648 123.810249 
L 273.455018 123.810249 
L 273.508203 123.810249 
" style="fill:none;stroke:#0000ff;stroke-linecap:square;"/>
   </g>
   <g id="line2d_65">
    <path clip-path="url(#p0b257bc2c5)" d="M 273.986868 111.042854 
L 274.673358 111.042854 
L 276.178778 111.042854 
L 278.356656 111.042854 
L 280.498606 111.042854 
L 281.731469 111.042854 
L 281.944209 111.042854 
L 282.050579 111.042854 
L 282.103764 111.042854 
" style="fill:none;stroke:#0000ff;stroke-linecap:square;"/>
   </g>
   <g id="line2d_66">
    <path clip-path="url(#p0b257bc2c5)" d="M 282.582429 98.27546 
L 282.637894 98.27546 
L 284.117772 98.27546 
L 288.205792 98.27546 
L 289.080906 98.27546 
L 291.677202 98.27546 
L 293.975486 98.27546 
L 296.822437 98.27546 
L 297.801658 98.27546 
L 299.831443 98.27546 
L 303.05275 98.27546 
L 305.430101 98.27546 
L 307.453088 98.27546 
L 307.518153 98.27546 
L 307.730893 98.27546 
L 307.837263 98.27546 
L 307.890448 98.27546 
" style="fill:none;stroke:#0000ff;stroke-linecap:square;"/>
   </g>
   <g id="line2d_67">
    <path clip-path="url(#p0b257bc2c5)" d="M 308.369113 85.508065 
L 309.005076 85.508065 
L 310.783627 85.508065 
L 311.867048 85.508065 
L 314.82717 85.508065 
L 318.234104 85.508065 
L 319.205346 85.508065 
L 321.233308 85.508065 
L 322.634274 85.508065 
L 324.709275 85.508065 
L 324.922016 85.508065 
L 325.028386 85.508065 
L 325.081571 85.508065 
" style="fill:none;stroke:#0000ff;stroke-linecap:square;"/>
   </g>
   <g id="line2d_68">
    <path clip-path="url(#p0b257bc2c5)" d="M 325.560236 72.74067 
L 326.094054 72.74067 
L 327.11882 72.74067 
L 329.091653 72.74067 
L 331.533284 72.74067 
L 333.304837 72.74067 
L 333.517577 72.74067 
L 333.623947 72.74067 
L 333.677132 72.74067 
" style="fill:none;stroke:#0000ff;stroke-linecap:square;"/>
   </g>
   <g id="line2d_69">
    <path clip-path="url(#p0b257bc2c5)" d="M 334.155797 59.973276 
L 334.496106 59.973276 
L 337.286748 59.973276 
L 337.756013 59.973276 
L 340.348589 59.973276 
L 343.036548 59.973276 
L 345.759994 59.973276 
L 346.743393 59.973276 
L 348.827954 59.973276 
L 351.857489 59.973276 
L 353.216138 59.973276 
L 356.411037 59.973276 
L 358.153629 59.973276 
L 359.091521 59.973276 
L 359.304261 59.973276 
L 359.410631 59.973276 
L 359.463816 59.973276 
" style="fill:none;stroke:#0000ff;stroke-linecap:square;"/>
   </g>
   <g id="line2d_70">
    <path clip-path="url(#p0b257bc2c5)" d="M 359.942481 47.205881 
L 360.150386 47.205881 
L 361.167256 47.205881 
L 363.365078 47.205881 
L 366.519443 47.205881 
L 368.069951 47.205881 
L 370.252716 47.205881 
L 372.633867 47.205881 
L 375.703957 47.205881 
L 376.282643 47.205881 
L 376.608114 47.205881 
L 376.6738 47.205881 
" style="fill:none;stroke:#0000ff;stroke-linecap:square;"/>
   </g>
   <g id="line2d_71">
    <path clip-path="url(#p0b257bc2c5)" d="M 376.739486 34.438487 
L 376.870859 34.438487 
L 377.133604 34.438487 
L 379.73677 34.438487 
L 382.217165 34.438487 
L 384.253803 34.438487 
L 386.300652 34.438487 
L 388.543855 34.438487 
L 390.235983 34.438487 
L 392.862449 34.438487 
L 394.045858 34.438487 
L 396.753006 34.438487 
L 399.231619 34.438487 
L 399.799684 34.438487 
L 402.069327 34.438487 
L 402.282067 34.438487 
L 402.388437 34.438487 
L 402.441622 34.438487 
" style="fill:none;stroke:#0000ff;stroke-linecap:square;"/>
   </g>
   <g id="line2d_72">
    <path clip-path="url(#p0b257bc2c5)" d="M 402.920288 21.671092 
L 403.389661 21.671092 
L 405.358804 21.671092 
L 406.36067 21.671092 
L 408.231384 21.671092 
L 410.387332 21.671092 
L 414.428934 21.671092 
L 414.987473 21.671092 
L 418.5209 21.671092 
L 418.771771 21.671092 
L 421.555184 21.671092 
L 423.430311 21.671092 
L 425.359767 21.671092 
L 428.029535 21.671092 
L 431.241524 21.671092 
L 432.126239 21.671092 
L 434.948068 21.671092 
L 436.451572 21.671092 
L 436.816496 21.671092 
" style="fill:none;stroke:#0000ff;stroke-linecap:square;"/>
   </g>
   <g id="line2d_73">
    <path clip-path="url(#p0b257bc2c5)" d="M 436.907727 8.903697 
L 436.998959 8.903697 
L 437.181421 8.903697 
L 437.302533 8.903697 
L 438.874815 8.903697 
L 440.732907 8.903697 
L 443.292147 8.903697 
L 445.845423 8.903697 
L 446.708451 8.903697 
L 449.770394 8.903697 
" style="fill:none;stroke:#0000ff;stroke-linecap:square;"/>
   </g>
   <g id="patch_3">
    <path d="M 19.99233 334.47226 
L 19.99233 2.52 
" style="fill:none;stroke:#000000;stroke-linecap:square;stroke-linejoin:miter;stroke-width:0.8;"/>
   </g>
   <g id="patch_4">
    <path d="M 15.780505 328.088563 
L 458.28 328.088563 
" style="fill:none;stroke:#000000;stroke-linecap:square;stroke-linejoin:miter;stroke-width:0.8;"/>
   </g>
  </g>
 </g>
 <defs>
  <clipPath id="p0b257bc2c5">
   <rect height="331.95226" width="442.499495" x="15.780505" y="2.52"/>
  </clipPath>
 </defs>
</svg>
