<?xml version="1.0" encoding="utf-8" standalone="no"?>
<!DOCTYPE svg PUBLIC "-//W3C//DTD SVG 1.1//EN"
  "http://www.w3.org/Graphics/SVG/1.1/DTD/svg11.dtd">
<!-- Created with matplotlib (http://matplotlib.org/) -->
<svg height="345.6pt" version="1.1" viewBox="0 0 460.8 345.6" width="460.8pt" xmlns="http://www.w3.org/2000/svg" xmlns:xlink="http://www.w3.org/1999/xlink">
 <defs>
  <style type="text/css">
*{stroke-linecap:butt;stroke-linejoin:round;}
  </style>
 </defs>
 <g id="figure_1">
  <g id="patch_1">
   <path d="M 0 345.6 
L 460.8 345.6 
L 460.8 0 
L 0 0 
z
" style="fill:#ffffff;"/>
  </g>
  <g id="axes_1">
   <g id="patch_2">
    <path d="M 2.52 343.08 
L 458.28 343.08 
L 458.28 2.52 
L 2.52 2.52 
z
" style="fill:#ffffff;"/>
   </g>
   <g id="patch_3">
    <path clip-path="url(#p91ddfc33a8)" d="M 449.515385 41.815385 
L 447.809915 42.707456 
L 445.594286 43.866373 
L 442.0772 45.706037 
L 441.50023 46.00783 
L 438.012751 47.832007 
L 435.579688 49.104656 
L 433.207169 50.345638 
L 431.95022 51.003103 
L 428.942504 52.576334 
L 426.833951 53.679244 
L 424.735622 54.776806 
L 422.350965 56.024135 
L 420.388326 57.050723 
L 417.675164 58.469882 
L 417.398413 58.614641 
L 413.785216 60.504577 
L 411.956812 61.460951 
L 409.611896 62.687494 
L 406.610763 64.25728 
L 405.45265 64.863049 
L 402.583072 66.364024 
L 402.107449 66.612806 
L 399.532178 67.959839 
L 395.675152 69.977314 
L 394.498492 70.592783 
L 393.209317 71.267105 
L 389.898493 72.99888 
L 388.60942 73.673149 
L 384.591789 75.77463 
L 382.468522 76.885237 
L 381.471415 77.406788 
L 378.392103 79.017468 
L 376.296166 80.113779 
L 374.183741 81.218713 
L 372.532396 82.082474 
L 370.755663 83.01182 
L 367.163746 84.890626 
L 365.076211 85.982542 
L 363.839621 86.629358 
L 361.300418 87.957526 
L 358.42755 89.460222 
L 357.743525 89.818012 
L 354.903681 91.303434 
L 353.345872 92.118269 
L 349.973467 93.882255 
L 347.610416 95.118284 
L 346.599758 95.646923 
L 342.77039 97.649931 
L 340.706593 98.72943 
L 338.481861 99.893109 
L 337.237859 100.543803 
L 335.555856 101.423599 
L 331.864687 103.35432 
L 330.195102 104.227621 
L 327.782704 105.489461 
L 326.870875 105.966407 
L 323.278644 107.845376 
L 321.635413 108.704893 
L 319.330539 109.910491 
L 317.601894 110.814684 
L 315.432786 111.949268 
L 313.218782 113.107336 
L 310.794016 114.375645 
L 307.574429 116.059698 
L 306.452186 116.646704 
L 304.528907 117.652703 
L 303.052653 118.42488 
L 300.17989 119.927521 
L 296.676181 121.760188 
L 295.197419 122.533676 
L 292.786779 123.794597 
L 290.132594 125.182907 
L 288.72005 125.92176 
L 287.407748 126.608178 
L 284.033702 128.373023 
L 282.113458 129.377435 
L 280.031209 130.466586 
L 276.743286 132.186383 
L 275.194621 132.996435 
L 273.332038 133.970686 
L 270.04139 135.691908 
L 269.234794 136.113811 
L 265.735999 137.943907 
L 265.626807 138.001022 
L 263.065029 139.340997 
L 259.346743 141.285901 
L 257.20221 142.407631 
L 256.598223 142.723555 
L 253.081227 144.563172 
L 252.083511 145.085042 
L 248.990305 146.70299 
L 246.485978 148.012915 
L 245.794024 148.374851 
L 243.151226 149.757206 
L 240.418423 151.186639 
L 239.003069 151.926961 
L 235.350885 153.83729 
L 234.788651 154.131374 
L 231.904761 155.639835 
L 230.079202 156.594721 
L 227.135959 158.134228 
L 224.231705 159.653341 
L 222.981096 160.30749 
L 221.569008 161.046104 
L 218.482384 162.660608 
L 216.108769 163.902162 
L 214.047593 164.980291 
L 211.708228 166.203931 
L 209.942212 167.127671 
L 208.26687 168.003984 
L 205.821078 169.283291 
L 203.483174 170.506166 
L 201.470175 171.559095 
L 199.07624 172.811279 
L 196.246857 174.291229 
L 193.179654 175.895575 
L 191.432932 176.809223 
L 190.374929 177.362627 
L 187.940227 178.636135 
L 185.881261 179.713107 
L 183.016453 181.211587 
L 181.19757 182.162981 
L 179.21013 183.202541 
L 176.859701 184.431967 
L 174.707033 185.557952 
L 171.854371 187.050079 
L 170.172263 187.929931 
L 168.706793 188.696466 
L 165.861177 190.184908 
L 164.150468 191.079719 
L 161.143554 192.65253 
L 159.716567 193.398937 
L 157.416364 194.602092 
L 154.152273 196.309423 
L 152.115737 197.374663 
L 150.231139 198.36043 
L 147.363506 199.860388 
L 145.507518 200.83119 
L 142.327451 202.494571 
L 141.122053 203.125072 
L 139.329115 204.062895 
L 136.981836 205.290674 
L 134.122405 206.786341 
L 132.645582 207.558815 
L 130.371638 208.748235 
L 128.873943 209.531627 
L 126.359028 210.84709 
L 123.326086 212.433515 
L 121.268727 213.509647 
L 118.523543 214.945557 
L 116.405847 216.053248 
L 114.523712 217.037727 
L 112.111571 218.299433 
L 111.214524 218.768647 
L 107.973608 220.463856 
L 106.844251 221.054583 
L 102.965782 223.083273 
L 102.470685 223.342241 
L 99.816473 224.730566 
L 96.425667 226.504177 
L 95.384044 227.049013 
L 92.453018 228.582129 
L 90.218125 229.751123 
L 88.301379 230.753706 
L 86.834465 231.520997 
L 84.643799 232.666857 
L 82.786148 233.638529 
L 80.228638 234.976272 
L 76.845773 236.74573 
L 74.332778 238.060189 
L 73.711212 238.385308 
L 71.773595 239.398807 
L 68.068383 241.336873 
L 65.519946 242.669871 
L 64.597753 243.152238 
L 62.815457 244.084494 
L 60.488611 245.301585 
L 57.283546 246.978041 
L 55.745987 247.782284 
L 53.357067 249.031844 
L 50.93853 250.296896 
L 49.800512 250.892153 
L 46.693145 252.517507 
L 44.215985 253.813222 
L 41.080217 255.453432 
L 39.407578 256.328331 
L 38.600147 256.750669 
L 35.24483 258.505718 
L 32.357898 260.01577 
L 30.358936 261.061356 
L 29.407157 261.559198 
L 26.395786 263.134341 
L 24.904131 263.914573 
L 21.889191 265.491582 
L 19.216616 266.889512 
L 17.870101 267.593826 
L 16.241444 268.445719 
L 12.469128 270.418885 
L 11.284615 271.038462 
L 11.284615 279.073397 
L 14.207717 277.64078 
L 15.12562 277.191412 
L 17.611628 275.975592 
L 21.069648 274.287475 
L 21.78108 273.94063 
L 24.352986 272.688093 
L 27.764026 271.030247 
L 27.948878 270.940518 
L 31.463234 269.236874 
L 33.848783 268.082978 
L 34.73654 267.65411 
L 38.331932 265.920316 
L 39.819575 265.20444 
L 41.748797 264.277428 
L 45.191227 262.627254 
L 47.494097 261.526287 
L 48.96714 260.823333 
L 51.689132 259.527102 
L 54.05501 258.403445 
L 54.971934 257.968732 
L 56.609035 257.193687 
L 59.537493 255.810925 
L 62.085178 254.61192 
L 63.843303 253.786747 
L 67.11976 252.254067 
L 68.927125 251.411583 
L 71.283343 250.316582 
L 71.925617 250.018773 
L 74.841847 248.670346 
L 77.301087 247.53822 
L 79.70908 246.434353 
L 82.557899 245.134687 
L 83.553362 244.682222 
L 85.683721 243.716961 
L 88.2935 242.540373 
L 91.491077 241.108172 
L 92.736892 240.55312 
L 95.319541 239.408032 
L 98.196084 238.141966 
L 98.861445 237.850588 
L 102.354725 236.330404 
L 104.823822 235.266226 
L 105.886803 234.810877 
L 107.498556 234.123808 
L 110.161603 232.997901 
L 112.556545 231.995896 
L 114.575361 231.159563 
L 116.294075 230.453915 
L 118.26979 229.650412 
L 121.646549 228.297553 
L 124.441844 227.198965 
L 126.016435 226.5894 
L 127.227671 226.125347 
L 129.673077 225.202139 
L 133.184158 223.911612 
L 134.213034 223.541988 
L 136.699608 222.666252 
L 139.57894 221.686161 
L 140.222119 221.472659 
L 142.347321 220.782542 
L 143.959653 220.275791 
L 145.571985 219.784847 
L 146.933325 219.383605 
L 148.294665 218.995453 
L 149.237333 218.734855 
L 151.339406 218.179863 
L 152.779337 217.822338 
L 154.219269 217.485094 
L 155.786728 217.14321 
L 157.495315 216.803627 
L 159.203902 216.502543 
L 160.184483 216.348962 
L 161.165063 216.210661 
L 162.126357 216.091011 
L 163.087651 215.988329 
L 164.466413 215.873338 
L 165.62389 215.809076 
L 166.781368 215.777467 
L 167.485843 215.775666 
L 168.190317 215.788105 
L 168.894792 215.815739 
L 169.599266 215.859609 
L 170.264038 215.916926 
L 170.928809 215.990775 
L 171.593581 216.082309 
L 172.258353 216.192798 
L 172.766008 216.290799 
L 173.273662 216.401343 
L 173.781317 216.525161 
L 174.288972 216.663046 
L 174.882571 216.843266 
L 175.476169 217.045389 
L 176.069767 217.271066 
L 176.663365 217.522123 
L 177.234745 217.789638 
L 177.806125 218.08454 
L 178.377505 218.409048 
L 178.948885 218.765632 
L 179.531555 219.165154 
L 180.114224 219.604179 
L 180.696894 220.086401 
L 180.988229 220.344994 
L 181.279564 220.615993 
L 181.76455 221.096316 
L 182.249536 221.615805 
L 182.734523 222.1779 
L 182.977016 222.476113 
L 183.219509 222.786461 
L 183.610024 223.313185 
L 184.000538 223.875374 
L 184.391053 224.475826 
L 184.781567 225.117645 
L 184.976824 225.455132 
L 185.172082 225.804284 
L 185.367339 226.165597 
L 185.562596 226.539592 
L 185.757854 226.926824 
L 185.953111 227.327877 
L 186.148368 227.743373 
L 186.343625 228.173971 
L 186.59108 228.742478 
L 186.838535 229.337897 
L 187.08599 229.961883 
L 187.333445 230.616229 
L 187.509521 231.101382 
L 187.685598 231.603641 
L 187.861674 232.123809 
L 188.037751 232.662736 
L 188.213827 233.221329 
L 188.389903 233.800555 
L 188.56598 234.401444 
L 188.742056 235.025098 
L 188.946292 235.778564 
L 189.150528 236.566223 
L 189.354764 237.390218 
L 189.559 238.252875 
L 189.763235 239.156726 
L 189.967471 240.104527 
L 190.069589 240.595839 
L 190.171707 241.099287 
L 190.273825 241.615294 
L 190.375943 242.144298 
L 190.478061 242.686761 
L 190.580178 243.243165 
L 190.682296 243.814018 
L 190.784414 244.39985 
L 190.886532 245.001219 
L 190.98865 245.618712 
L 191.090768 246.252943 
L 191.192886 246.904562 
L 191.295004 247.574248 
L 191.397122 248.262719 
L 191.49924 248.970733 
L 191.601357 249.699085 
L 191.703475 250.448619 
L 191.805593 251.220221 
L 191.907711 252.014832 
L 192.009829 252.833444 
L 192.089729 253.491361 
L 192.169628 254.165144 
L 192.249528 254.855348 
L 192.329428 255.562553 
L 192.409328 256.287367 
L 192.489227 257.030429 
L 192.569127 257.792408 
L 192.649027 258.574007 
L 192.728927 259.375963 
L 192.808826 260.199051 
L 192.888726 261.044087 
L 192.968626 261.911927 
L 193.048526 262.803476 
L 193.128425 263.719683 
L 193.208325 264.661552 
L 193.288225 265.630141 
L 193.358957 266.510789 
L 193.429689 267.414068 
L 193.500422 268.340834 
L 193.571154 269.29199 
L 193.641886 270.268483 
L 193.712618 271.271311 
L 193.783351 272.301524 
L 193.854083 273.360231 
L 193.924815 274.4486 
L 193.995547 275.567863 
L 194.06628 276.719323 
L 194.137012 277.904356 
L 194.207744 279.124418 
L 194.278477 280.381052 
L 194.349209 281.67589 
L 194.419941 283.010665 
L 194.490673 284.387216 
L 194.561406 285.807495 
L 194.632138 287.273581 
L 194.70287 288.787683 
L 194.773602 290.352158 
L 194.844335 291.969518 
L 194.915067 293.642444 
L 194.985799 295.373804 
L 195.056532 297.166664 
L 195.127264 299.02431 
L 195.197996 300.950267 
L 195.268728 302.94832 
L 195.339461 305.022537 
L 195.410193 307.177301 
L 195.480925 309.417337 
L 195.551657 311.747746 
L 195.616721 313.975913 
L 195.681784 316.289845 
L 195.746847 318.694537 
L 195.811911 321.19538 
L 195.876974 323.7982 
L 195.942037 326.509303 
L 196.007101 329.335526 
L 196.072164 332.284297 
L 196.137227 335.363692 
L 196.202291 338.582518 
L 196.267354 341.950387 
L 196.332418 345.477819 
L 196.397481 349.176347 
L 196.462544 353.058642 
L 196.527608 357.138659 
L 196.592671 361.431804 
L 196.657734 365.955122 
L 196.722798 370.727531 
L 196.787861 375.770077 
L 196.852924 381.106247 
L 196.917988 386.762331 
L 196.983051 392.767857 
L 197.048114 399.1561 
L 197.113178 405.964699 
L 197.178241 413.236396 
L 197.243304 421.019931 
L 197.308368 429.371135 
L 197.373431 438.354262 
L 197.438494 448.043647 
L 197.503558 458.525756 
L 197.568621 469.901774 
L 197.633684 482.290872 
L 197.737844 504.59694 
L 197.842003 530.609256 
L 197.946163 561.333437 
L 198.050322 598.175088 
L 198.154482 643.160631 
L 198.258641 699.322591 
L 198.362801 771.412491 
L 198.46696 867.31998 
L 198.57112 1001.175901 
L 198.675279 1201.045105 
L 198.779438 1531.720499 
L 198.883598 2184.020372 
L 198.987757 4071.215254 
L 199.091917 72759.137158 
L 199.196076 -4155.900937 
L 199.300236 -1919.78611 
L 199.404395 -1203.054677 
L 199.508555 -849.841517 
L 199.612714 -639.542669 
L 199.716874 -500.021632 
L 199.821033 -400.698199 
L 199.925193 -326.391028 
L 200.029352 -268.708666 
L 200.133511 -222.635318 
L 200.237671 -184.988529 
L 200.34183 -153.651682 
L 200.44599 -127.16227 
L 200.550149 -104.477338 
L 200.654309 -84.833103 
L 200.758468 -67.657405 
L 200.862628 -52.513161 
L 200.966787 -39.06072 
L 201.056762 -28.594771 
L 201.146737 -19.050589 
L 201.236712 -10.311845 
L 201.326687 -2.280993 
L 201.416662 5.124372 
L 201.506636 11.974344 
L 201.596611 18.328921 
L 201.686586 24.239759 
L 201.776561 29.751576 
L 201.866536 34.903276 
L 201.956511 39.728865 
L 202.046486 44.258199 
L 202.13646 48.517596 
L 202.226435 52.530351 
L 202.31641 56.317149 
L 202.406385 59.896428 
L 202.49636 63.284673 
L 202.586335 66.496668 
L 202.67631 69.545709 
L 202.766284 72.443791 
L 202.856259 75.201756 
L 202.946234 77.829436 
L 203.036209 80.335762 
L 203.126184 82.728868 
L 203.216159 85.016178 
L 203.306134 87.204479 
L 203.396108 89.299991 
L 203.486083 91.308424 
L 203.576058 93.23503 
L 203.666033 95.084645 
L 203.756008 96.861732 
L 203.845983 98.570419 
L 203.894479 99.464371 
L 203.942974 100.340129 
L 203.99147 101.198234 
L 204.039966 102.039207 
L 204.088462 102.863546 
L 204.136958 103.671733 
L 204.185454 104.46423 
L 204.233949 105.241482 
L 204.296508 106.22229 
L 204.359066 107.17932 
L 204.421624 108.113411 
L 204.484183 109.025364 
L 204.546741 109.915941 
L 204.609299 110.78587 
L 204.671858 111.635849 
L 204.734416 112.466541 
L 204.796974 113.278582 
L 204.859533 114.072581 
L 204.922091 114.84912 
L 204.984649 115.608755 
L 205.047208 116.352021 
L 205.109766 117.079429 
L 205.172325 117.791471 
L 205.234883 118.488615 
L 205.297441 119.171314 
L 205.36 119.840002 
L 205.422558 120.495095 
L 205.485116 121.136993 
L 205.547675 121.76608 
L 205.610233 122.382726 
L 205.672791 122.987287 
L 205.73535 123.580105 
L 205.860466 124.731818 
L 205.985583 125.840359 
L 206.1107 126.908043 
L 206.235816 127.937022 
L 206.338979 128.757759 
L 206.442142 129.554601 
L 206.545304 130.328544 
L 206.648467 131.080529 
L 206.75163 131.811446 
L 206.854792 132.522138 
L 206.957955 133.213404 
L 207.061118 133.886001 
L 207.16428 134.540647 
L 207.267443 135.178026 
L 207.370606 135.798784 
L 207.473768 136.403539 
L 207.576931 136.992876 
L 207.680094 137.567354 
L 207.783256 138.127505 
L 207.886419 138.673835 
L 207.989582 139.206827 
L 208.092744 139.726943 
L 208.195907 140.234623 
L 208.29907 140.730286 
L 208.505395 141.687155 
L 208.71172 142.600557 
L 208.918046 143.473249 
L 209.124371 144.30776 
L 209.330696 145.106416 
L 209.537022 145.871357 
L 209.731878 146.564604 
L 209.926734 147.231085 
L 210.12159 147.872232 
L 210.316446 148.489379 
L 210.511302 149.083766 
L 210.706158 149.656554 
L 210.901014 150.208823 
L 211.095871 150.741586 
L 211.290727 151.255791 
L 211.485583 151.752325 
L 211.680439 152.232021 
L 211.875295 152.695662 
L 212.070151 153.143983 
L 212.265007 153.577677 
L 212.459863 153.997395 
L 212.654719 154.403751 
L 212.900663 154.898468 
L 213.146607 155.373912 
L 213.392551 155.831103 
L 213.638495 156.270988 
L 213.969602 156.837415 
L 214.300709 157.376078 
L 214.631816 157.888808 
L 214.962923 158.377282 
L 215.294029 158.843044 
L 215.625136 159.287514 
L 215.956243 159.711999 
L 216.28735 160.11771 
L 216.636145 160.526019 
L 216.984941 160.915944 
L 217.333736 161.288603 
L 217.682531 161.645031 
L 218.031327 161.986188 
L 218.380122 162.312966 
L 218.728917 162.626194 
L 219.077712 162.926646 
L 219.590859 163.346949 
L 220.104005 163.743261 
L 220.703849 164.178675 
L 221.303693 164.586684 
L 221.903538 164.969772 
L 222.503382 165.33018 
L 223.29415 165.774045 
L 224.084919 166.186157 
L 224.875687 166.570199 
L 225.666455 166.929448 
L 226.438617 167.259132 
L 227.089822 167.522794 
L 227.741027 167.774739 
L 229.043436 168.248376 
L 230.172626 168.632014 
L 231.301817 168.995999 
L 232.978357 169.509968 
L 235.313777 170.195824 
L 238.000327 170.97904 
L 239.325073 171.375833 
L 240.649819 171.786423 
L 241.940259 172.204419 
L 243.230699 172.64493 
L 244.463375 173.09115 
L 245.805204 173.610271 
L 247.147034 174.169911 
L 248.228388 174.654646 
L 249.309742 175.173258 
L 250.289248 175.6754 
L 251.348414 176.256587 
L 252.407579 176.881463 
L 252.937161 177.211658 
L 253.466744 177.554473 
L 253.996327 177.910528 
L 254.525909 178.280476 
L 254.981935 178.610692 
L 255.867449 179.284507 
L 256.310205 179.638452 
L 256.752962 180.004383 
L 257.195718 180.382798 
L 257.638475 180.77422 
L 258.081231 181.179195 
L 258.523988 181.598295 
L 258.939837 182.005326 
L 259.355687 182.42587 
L 259.732814 182.819397 
L 260.10994 183.224914 
L 260.487067 183.642868 
L 260.864194 184.073726 
L 261.241321 184.517974 
L 261.618448 184.976125 
L 261.995575 185.448712 
L 262.372702 185.936296 
L 262.771165 186.468411 
L 263.169628 187.018653 
L 263.568092 187.587789 
L 263.966555 188.176629 
L 264.365018 188.786023 
L 264.763481 189.416874 
L 265.161945 190.070131 
L 265.560408 190.7468 
L 265.753362 191.083201 
L 266.240133 191.958205 
L 266.726904 192.87267 
L 267.213675 193.828882 
L 267.700446 194.829303 
L 267.943832 195.346912 
L 268.187217 195.876584 
L 268.430603 196.418684 
L 268.673988 196.973591 
L 268.917374 197.541698 
L 269.16076 198.123417 
L 269.404145 198.719174 
L 269.647531 199.329415 
L 270.030584 200.320306 
L 270.413637 201.350136 
L 270.716309 202.192739 
L 271.018981 203.061991 
L 271.321654 203.959021 
L 271.624326 204.885019 
L 271.926998 205.841245 
L 272.229671 206.829031 
L 272.532343 207.849788 
L 272.835016 208.905014 
L 273.12243 209.940393 
L 273.409845 211.009724 
L 273.697259 212.11453 
L 273.984674 213.256432 
L 274.272089 214.437146 
L 274.559503 215.658495 
L 274.846918 216.92242 
L 275.134332 218.230985 
L 275.36654 219.322297 
L 275.598747 220.445408 
L 275.830954 221.601612 
L 276.063161 222.792276 
L 276.295368 224.018842 
L 276.527576 225.282833 
L 276.759783 226.585858 
L 276.99199 227.929622 
L 277.127967 228.736139 
L 277.263944 229.557621 
L 277.399921 230.394461 
L 277.535898 231.247064 
L 277.671875 232.115851 
L 277.807851 233.001256 
L 277.943828 233.903733 
L 278.079805 234.823747 
L 278.215782 235.761785 
L 278.351759 236.718348 
L 278.487736 237.693958 
L 278.623713 238.689157 
L 278.75969 239.704507 
L 278.895667 240.740592 
L 279.031644 241.798017 
L 279.167621 242.877414 
L 279.345241 244.32156 
L 279.52286 245.805844 
L 279.70048 247.331877 
L 279.8781 248.901355 
L 279.96691 249.702942 
L 280.05572 250.516069 
L 280.144529 251.340976 
L 280.233339 252.177909 
L 280.322149 253.02712 
L 280.410959 253.88887 
L 280.499769 254.763427 
L 280.588579 255.651065 
L 280.677389 256.552068 
L 280.766199 257.466726 
L 280.855008 258.39534 
L 280.943818 259.338218 
L 281.032628 260.295678 
L 281.121438 261.268046 
L 281.210248 262.255662 
L 281.299058 263.25887 
L 281.387868 264.278031 
L 281.476678 265.313512 
L 281.565487 266.365693 
L 281.654297 267.434969 
L 281.743107 268.521742 
L 281.831917 269.626431 
L 281.920727 270.749467 
L 282.009537 271.891294 
L 282.139602 273.598417 
L 282.269668 275.348336 
L 282.399733 277.142627 
L 282.464766 278.056926 
L 282.529798 278.982944 
L 282.594831 279.920901 
L 282.659864 280.871023 
L 282.724896 281.83354 
L 282.789929 282.808691 
L 282.854962 283.796716 
L 282.919994 284.797866 
L 282.985027 285.812397 
L 283.05006 286.840571 
L 283.115093 287.882656 
L 283.180125 288.93893 
L 283.245158 290.009677 
L 283.310191 291.095187 
L 283.375223 292.19576 
L 283.440256 293.311703 
L 283.505289 294.443333 
L 283.570321 295.590973 
L 283.635354 296.754957 
L 283.700387 297.935629 
L 283.76542 299.13334 
L 283.830452 300.348453 
L 283.895485 301.581341 
L 283.960518 302.832388 
L 284.02555 304.101988 
L 284.090583 305.390548 
L 284.170432 306.999234 
L 284.250282 308.637934 
L 284.330131 310.307477 
L 284.409981 312.008723 
L 284.48983 313.742564 
L 284.569679 315.509926 
L 284.649529 317.31177 
L 284.729378 319.149096 
L 284.809228 321.02294 
L 284.889077 322.93438 
L 284.968927 324.884539 
L 285.048776 326.874581 
L 285.128625 328.90572 
L 285.208475 330.979219 
L 285.288324 333.096394 
L 285.368174 335.258616 
L 285.448023 337.467311 
L 285.527873 339.723971 
L 285.607722 342.030147 
L 285.687571 344.387463 
L 285.767421 346.79761 
L 285.84727 349.262358 
L 285.92712 351.783555 
L 286.006969 354.363133 
L 286.086818 357.003115 
L 286.166668 359.705617 
L 286.246517 362.472855 
L 286.326367 365.307153 
L 286.406216 368.210944 
L 286.486066 371.186784 
L 286.565915 374.237352 
L 286.645764 377.365466 
L 286.728796 380.703658 
L 286.811827 384.132401 
L 286.894859 387.655387 
L 286.97789 391.276512 
L 287.060922 394.999888 
L 287.143953 398.829863 
L 287.226984 402.771033 
L 287.310016 406.828262 
L 287.393047 411.006703 
L 287.476079 415.311818 
L 287.55911 419.749402 
L 287.642142 424.325608 
L 287.725173 429.046979 
L 287.808205 433.920473 
L 287.891236 438.953502 
L 287.974267 444.153967 
L 288.057299 449.530297 
L 288.14033 455.091502 
L 288.223362 460.847212 
L 288.306393 466.807741 
L 288.389425 472.984145 
L 288.472456 479.388289 
L 288.555488 486.032926 
L 288.638519 492.931777 
L 288.72155 500.099628 
L 288.804582 507.552434 
L 288.887613 515.307437 
L 288.970645 523.3833 
L 289.053676 531.800253 
L 289.136708 540.580264 
L 289.219739 549.747229 
L 289.302771 559.327189 
L 289.335613 563.236573 
L 289.368454 567.216859 
L 289.401296 571.269986 
L 289.434138 575.397963 
L 289.46698 579.602876 
L 289.499822 583.886887 
L 289.532664 588.252241 
L 289.565506 592.701269 
L 289.598348 597.236391 
L 289.63119 601.860123 
L 289.664032 606.575076 
L 289.696874 611.38397 
L 289.729716 616.28963 
L 289.762558 621.294997 
L 289.7954 626.403133 
L 289.828242 631.617226 
L 289.861084 636.940596 
L 289.893926 642.376706 
L 289.926768 647.929165 
L 289.95961 653.601737 
L 289.992451 659.398351 
L 290.025293 665.323111 
L 290.058135 671.380301 
L 290.090977 677.574401 
L 290.123819 683.910092 
L 290.156661 690.392273 
L 290.189503 697.026073 
L 290.222345 703.816861 
L 290.255187 710.770262 
L 290.288029 717.892176 
L 290.320871 725.188788 
L 290.353713 732.666593 
L 290.415898 747.346433 
L 290.478083 762.7504 
L 290.540268 778.933318 
L 290.602453 795.955687 
L 290.664638 813.88444 
L 290.726824 832.793817 
L 290.789009 852.766398 
L 290.851194 873.894298 
L 290.913379 896.280595 
L 290.975564 920.040999 
L 291.037749 945.305859 
L 291.099934 972.222547 
L 291.162119 1000.958333 
L 291.224305 1031.703863 
L 291.28649 1064.677382 
L 291.348675 1100.129926 
L 291.41086 1138.351716 
L 291.473045 1179.680113 
L 291.53523 1224.509596 
L 291.597415 1273.304383 
L 291.6596 1326.614559 
L 291.721785 1385.096886 
L 291.783971 1449.541985 
L 291.846156 1520.910268 
L 291.908341 1600.380106 
L 291.970526 1689.413373 
L 292.032711 1789.84617 
L 292.094896 1904.016755 
L 292.157081 2034.949812 
L 292.219266 2186.628292 
L 292.281452 2364.40554 
L 292.343637 2575.650154 
L 292.421231 2902.431225 
L 292.498826 3329.532191 
L 292.576421 3911.519082 
L 292.654016 4751.294428 
L 292.73161 6068.844674 
L 292.809205 8433.963831 
L 292.8868 13920.342476 
L 292.964394 40691.952 
L 293.041989 -43052.06543 
L 293.119584 -13970.537758 
L 293.197179 -8299.536479 
L 293.274773 -5883.556375 
L 293.352368 -4545.07629 
L 293.429963 -3694.706454 
L 293.507558 -3106.626241 
L 293.585152 -2675.702334 
L 293.662747 -2346.366384 
L 293.740342 -2086.48551 
L 293.817936 -1876.186044 
L 293.895531 -1702.516234 
L 293.973126 -1556.67404 
L 294.050721 -1432.468435 
L 294.128315 -1325.418088 
L 294.20591 -1232.199303 
L 294.283505 -1150.294883 
L 294.361099 -1077.763504 
L 294.438694 -1013.083938 
L 294.516289 -955.047254 
L 294.593884 -902.680585 
L 294.671478 -855.192199 
L 294.749073 -811.931207 
L 294.826668 -772.357588 
L 294.908434 -734.149903 
L 294.990201 -699.09187 
L 295.071967 -666.809811 
L 295.153733 -636.98691 
L 295.2355 -609.352796 
L 295.317266 -583.675331 
L 295.399033 -559.754081 
L 295.480799 -537.415087 
L 295.562565 -516.506629 
L 295.644332 -496.895783 
L 295.726098 -478.465601 
L 295.807865 -461.112777 
L 295.889631 -444.745716 
L 295.971397 -429.282918 
L 296.053164 -414.65163 
L 296.13493 -400.786697 
L 296.216697 -387.629599 
L 296.298463 -375.127626 
L 296.380229 -363.233175 
L 296.461996 -351.903145 
L 296.543762 -341.09842 
L 296.625528 -330.783415 
L 296.707295 -320.925688 
L 296.789061 -311.495603 
L 296.870828 -302.466029 
L 296.952594 -293.812082 
L 297.03436 -285.510898 
L 297.116127 -277.541434 
L 297.197893 -269.884285 
L 297.27966 -262.521532 
L 297.361426 -255.436601 
L 297.443192 -248.61414 
L 297.488575 -244.935471 
L 297.533958 -241.330955 
L 297.57934 -237.798384 
L 297.624723 -234.335638 
L 297.670106 -230.94068 
L 297.715488 -227.611552 
L 297.760871 -224.346368 
L 297.806254 -221.143316 
L 297.851636 -218.000651 
L 297.897019 -214.916691 
L 297.942402 -211.88982 
L 297.987784 -208.918477 
L 298.033167 -206.001159 
L 298.07855 -203.136416 
L 298.123932 -200.32285 
L 298.169315 -197.559113 
L 298.214698 -194.843901 
L 298.26008 -192.175959 
L 298.305463 -189.554072 
L 298.350845 -186.977068 
L 298.396228 -184.443812 
L 298.441611 -181.953211 
L 298.486993 -179.504204 
L 298.532376 -177.095767 
L 298.577759 -174.726909 
L 298.623141 -172.396671 
L 298.668524 -170.104126 
L 298.713907 -167.848373 
L 298.759289 -165.628544 
L 298.804672 -163.443793 
L 298.850055 -161.293306 
L 298.895437 -159.176289 
L 298.96601 -155.948896 
L 299.036583 -152.797818 
L 299.107155 -149.720406 
L 299.177728 -146.714135 
L 299.248301 -143.776592 
L 299.318874 -140.905473 
L 299.389446 -138.098576 
L 299.460019 -135.353794 
L 299.530592 -132.669113 
L 299.601165 -130.042604 
L 299.671737 -127.47242 
L 299.74231 -124.956791 
L 299.812883 -122.49402 
L 299.883455 -120.082482 
L 299.954028 -117.720615 
L 300.024601 -115.406921 
L 300.095174 -113.139963 
L 300.165746 -110.918358 
L 300.236319 -108.740779 
L 300.306892 -106.60595 
L 300.377465 -104.512643 
L 300.448037 -102.459678 
L 300.51861 -100.445917 
L 300.589183 -98.470267 
L 300.659756 -96.531673 
L 300.730328 -94.629121 
L 300.800901 -92.761632 
L 300.871474 -90.928261 
L 300.942046 -89.1281 
L 301.012619 -87.36027 
L 301.083192 -85.623925 
L 301.153765 -83.918245 
L 301.216655 -82.423432 
L 301.279546 -80.951804 
L 301.342437 -79.502836 
L 301.405328 -78.07602 
L 301.468218 -76.670862 
L 301.531109 -75.286882 
L 301.594 -73.923616 
L 301.65689 -72.580612 
L 301.719781 -71.257431 
L 301.782672 -69.953648 
L 301.845563 -68.668848 
L 301.908453 -67.40263 
L 301.971344 -66.154602 
L 302.034235 -64.924384 
L 302.097125 -63.711608 
L 302.160016 -62.515913 
L 302.222907 -61.336949 
L 302.285798 -60.174378 
L 302.348688 -59.027868 
L 302.411579 -57.897097 
L 302.47447 -56.781751 
L 302.53736 -55.681525 
L 302.600251 -54.596123 
L 302.663142 -53.525253 
L 302.726033 -52.468636 
L 302.788923 -51.425995 
L 302.851814 -50.397063 
L 302.914705 -49.381579 
L 302.977596 -48.379288 
L 303.040486 -47.389944 
L 303.103377 -46.413303 
L 303.166268 -45.44913 
L 303.249802 -44.187356 
L 303.333337 -42.946648 
L 303.416871 -41.726502 
L 303.500405 -40.526426 
L 303.58394 -39.345945 
L 303.667474 -38.184598 
L 303.751009 -37.041939 
L 303.834543 -35.917536 
L 303.918078 -34.81097 
L 304.001612 -33.721834 
L 304.085146 -32.649735 
L 304.168681 -31.59429 
L 304.252215 -30.555127 
L 304.33575 -29.531888 
L 304.419284 -28.524223 
L 304.502819 -27.531792 
L 304.586353 -26.554265 
L 304.669887 -25.591324 
L 304.753422 -24.642656 
L 304.836956 -23.707959 
L 304.920491 -22.78694 
L 305.004025 -21.879314 
L 305.08756 -20.984801 
L 305.171094 -20.103134 
L 305.254628 -19.234048 
L 305.338163 -18.377288 
L 305.421697 -17.532606 
L 305.505232 -16.69976 
L 305.672301 -15.068637 
L 305.839369 -13.482109 
L 305.953236 -12.42547 
L 306.067103 -11.388225 
L 306.18097 -10.369872 
L 306.294838 -9.369925 
L 306.408705 -8.387916 
L 306.522572 -7.423392 
L 306.636439 -6.475914 
L 306.750306 -5.545059 
L 306.864173 -4.630418 
L 306.97804 -3.731595 
L 307.091907 -2.848205 
L 307.205774 -1.979879 
L 307.319641 -1.126256 
L 307.433508 -0.286989 
L 307.547375 0.538259 
L 307.661242 1.349814 
L 307.775109 2.147994 
L 307.888976 2.933105 
L 308.002843 3.705444 
L 308.11671 4.465301 
L 308.230577 5.212954 
L 308.344444 5.948676 
L 308.572178 7.385372 
L 308.799912 8.777406 
L 309.027646 10.126682 
L 309.25538 11.434995 
L 309.483114 12.704044 
L 309.677023 13.754853 
L 309.870931 14.7793 
L 310.064839 15.778285 
L 310.258748 16.752664 
L 310.44025 17.643138 
L 310.621753 18.513417 
L 310.803256 19.364118 
L 310.984759 20.195832 
L 311.166261 21.009129 
L 311.347764 21.804555 
L 311.529267 22.582635 
L 311.71077 23.343872 
L 311.892273 24.088753 
L 312.073775 24.817744 
L 312.255278 25.531293 
L 312.436781 26.229834 
L 312.618284 26.913781 
L 312.799786 27.583537 
L 312.981289 28.239487 
L 313.162792 28.882004 
L 313.468387 29.934446 
L 313.773981 30.951455 
L 314.079576 31.934571 
L 314.38517 32.885244 
L 314.690765 33.804845 
L 314.996359 34.694667 
L 315.301954 35.555933 
L 315.607549 36.389799 
L 315.973009 37.352571 
L 316.33847 38.279484 
L 316.70393 39.172195 
L 317.069391 40.032259 
L 317.387097 40.754552 
L 317.704803 41.454188 
L 318.02251 42.132027 
L 318.340216 42.788889 
L 318.657922 43.42555 
L 318.975628 44.042752 
L 319.293334 44.641198 
L 319.611041 45.221559 
L 320.113461 46.103973 
L 320.615882 46.945124 
L 321.118303 47.74722 
L 321.620723 48.512312 
L 322.090036 49.195251 
L 322.559349 49.849025 
L 323.028662 50.475 
L 323.497974 51.074455 
L 323.889755 51.55544 
L 324.281536 52.019444 
L 324.673317 52.467096 
L 325.065098 52.898992 
L 325.456879 53.315702 
L 325.84866 53.717768 
L 326.240441 54.105706 
L 326.632222 54.480007 
L 327.208092 55.006412 
L 327.783962 55.505774 
L 328.180211 55.834361 
L 328.57646 56.151175 
L 329.368958 56.751015 
L 330.161457 57.3082 
L 330.953955 57.82539 
L 331.467727 58.140473 
L 331.981499 58.4404 
L 332.495271 58.725759 
L 333.009043 58.997108 
L 333.962685 59.465428 
L 334.554511 59.734101 
L 335.146337 59.986802 
L 335.738163 60.22419 
L 336.329989 60.44689 
L 337.058019 60.701563 
L 337.786048 60.935935 
L 338.514077 61.150976 
L 339.242107 61.347592 
L 339.941617 61.519942 
L 340.641128 61.67678 
L 341.432749 61.836401 
L 342.22437 61.977922 
L 343.015992 62.102197 
L 343.807613 62.210027 
L 344.540419 62.295842 
L 345.273225 62.36877 
L 346.006031 62.429343 
L 346.738837 62.478062 
L 347.501822 62.516703 
L 348.264806 62.543514 
L 349.212774 62.561066 
L 350.160741 62.561961 
L 351.376061 62.540031 
L 352.59138 62.493627 
L 354.157996 62.400042 
L 355.080505 62.328195 
L 356.003015 62.244606 
L 357.848033 62.044187 
L 358.8782 61.914102 
L 360.588386 61.67131 
L 362.298572 61.397153 
L 363.858524 61.121626 
L 365.309116 60.845033 
L 366.759708 60.549973 
L 367.629108 60.364722 
L 369.465221 59.953886 
L 371.301334 59.517974 
L 373.121727 59.062713 
L 373.868903 58.869558 
L 376.495417 58.163281 
L 377.953793 57.753803 
L 379.634986 57.267427 
L 381.31618 56.766525 
L 384.393334 55.814689 
L 385.869097 55.343197 
L 387.863878 54.691474 
L 389.893487 54.012322 
L 392.08809 53.260868 
L 393.40314 52.802535 
L 396.824419 51.583722 
L 398.234581 51.070898 
L 400.349106 50.291207 
L 402.538257 49.471148 
L 404.791176 48.614336 
L 408.449228 47.197255 
L 409.063509 46.956323 
L 412.83176 45.460902 
L 414.061113 44.966842 
L 416.663472 43.911542 
L 418.165696 43.296766 
L 420.415292 42.368846 
L 423.696661 41.000492 
L 424.463574 40.678263 
L 427.606018 39.34885 
L 430.564415 38.084616 
L 431.884805 37.516603 
L 434.861879 36.227815 
L 435.869962 35.788963 
L 438.063723 34.829843 
L 439.616414 34.147712 
L 442.820729 32.731757 
L 446.077708 31.281751 
L 448.291788 30.290178 
L 449.515385 29.74024 
z
" style="fill:#cccccc;opacity:0.5;"/>
   </g>
   <g id="matplotlib.axis_1">
    <g id="xtick_1">
     <g id="line2d_1">
      <defs>
       <path d="M 0 0 
L 0 3.5 
" id="m59703534c9" style="stroke:#000000;stroke-width:0.8;"/>
      </defs>
      <g>
       <use style="stroke:#000000;stroke-width:0.8;" x="42.586813" xlink:href="#m59703534c9" y="172.8"/>
      </g>
     </g>
     <g id="text_1">
      <!-- -6 -->
      <defs>
       <path d="M 4.890625 31.390625 
L 31.203125 31.390625 
L 31.203125 23.390625 
L 4.890625 23.390625 
z
" id="DejaVuSans-2d"/>
       <path d="M 33.015625 40.375 
Q 26.375 40.375 22.484375 35.828125 
Q 18.609375 31.296875 18.609375 23.390625 
Q 18.609375 15.53125 22.484375 10.953125 
Q 26.375 6.390625 33.015625 6.390625 
Q 39.65625 6.390625 43.53125 10.953125 
Q 47.40625 15.53125 47.40625 23.390625 
Q 47.40625 31.296875 43.53125 35.828125 
Q 39.65625 40.375 33.015625 40.375 
z
M 52.59375 71.296875 
L 52.59375 62.3125 
Q 48.875 64.0625 45.09375 64.984375 
Q 41.3125 65.921875 37.59375 65.921875 
Q 27.828125 65.921875 22.671875 59.328125 
Q 17.53125 52.734375 16.796875 39.40625 
Q 19.671875 43.65625 24.015625 45.921875 
Q 28.375 48.1875 33.59375 48.1875 
Q 44.578125 48.1875 50.953125 41.515625 
Q 57.328125 34.859375 57.328125 23.390625 
Q 57.328125 12.15625 50.6875 5.359375 
Q 44.046875 -1.421875 33.015625 -1.421875 
Q 20.359375 -1.421875 13.671875 8.265625 
Q 6.984375 17.96875 6.984375 36.375 
Q 6.984375 53.65625 15.1875 63.9375 
Q 23.390625 74.21875 37.203125 74.21875 
Q 40.921875 74.21875 44.703125 73.484375 
Q 48.484375 72.75 52.59375 71.296875 
z
" id="DejaVuSans-36"/>
      </defs>
      <g transform="translate(37.601657 187.398437)scale(0.1 -0.1)">
       <use xlink:href="#DejaVuSans-2d"/>
       <use x="36.083984" xlink:href="#DejaVuSans-36"/>
      </g>
     </g>
    </g>
    <g id="xtick_2">
     <g id="line2d_2">
      <g>
       <use style="stroke:#000000;stroke-width:0.8;" x="105.191209" xlink:href="#m59703534c9" y="172.8"/>
      </g>
     </g>
     <g id="text_2">
      <!-- -4 -->
      <defs>
       <path d="M 37.796875 64.3125 
L 12.890625 25.390625 
L 37.796875 25.390625 
z
M 35.203125 72.90625 
L 47.609375 72.90625 
L 47.609375 25.390625 
L 58.015625 25.390625 
L 58.015625 17.1875 
L 47.609375 17.1875 
L 47.609375 0 
L 37.796875 0 
L 37.796875 17.1875 
L 4.890625 17.1875 
L 4.890625 26.703125 
z
" id="DejaVuSans-34"/>
      </defs>
      <g transform="translate(100.206053 187.398437)scale(0.1 -0.1)">
       <use xlink:href="#DejaVuSans-2d"/>
       <use x="36.083984" xlink:href="#DejaVuSans-34"/>
      </g>
     </g>
    </g>
    <g id="xtick_3">
     <g id="line2d_3">
      <g>
       <use style="stroke:#000000;stroke-width:0.8;" x="167.795604" xlink:href="#m59703534c9" y="172.8"/>
      </g>
     </g>
     <g id="text_3">
      <!-- -2 -->
      <defs>
       <path d="M 19.1875 8.296875 
L 53.609375 8.296875 
L 53.609375 0 
L 7.328125 0 
L 7.328125 8.296875 
Q 12.9375 14.109375 22.625 23.890625 
Q 32.328125 33.6875 34.8125 36.53125 
Q 39.546875 41.84375 41.421875 45.53125 
Q 43.3125 49.21875 43.3125 52.78125 
Q 43.3125 58.59375 39.234375 62.25 
Q 35.15625 65.921875 28.609375 65.921875 
Q 23.96875 65.921875 18.8125 64.3125 
Q 13.671875 62.703125 7.8125 59.421875 
L 7.8125 69.390625 
Q 13.765625 71.78125 18.9375 73 
Q 24.125 74.21875 28.421875 74.21875 
Q 39.75 74.21875 46.484375 68.546875 
Q 53.21875 62.890625 53.21875 53.421875 
Q 53.21875 48.921875 51.53125 44.890625 
Q 49.859375 40.875 45.40625 35.40625 
Q 44.1875 33.984375 37.640625 27.21875 
Q 31.109375 20.453125 19.1875 8.296875 
z
" id="DejaVuSans-32"/>
      </defs>
      <g transform="translate(162.810448 187.398437)scale(0.1 -0.1)">
       <use xlink:href="#DejaVuSans-2d"/>
       <use x="36.083984" xlink:href="#DejaVuSans-32"/>
      </g>
     </g>
    </g>
    <g id="xtick_4">
     <g id="line2d_4">
      <g>
       <use style="stroke:#000000;stroke-width:0.8;" x="230.4" xlink:href="#m59703534c9" y="172.8"/>
      </g>
     </g>
    </g>
    <g id="xtick_5">
     <g id="line2d_5">
      <g>
       <use style="stroke:#000000;stroke-width:0.8;" x="293.004396" xlink:href="#m59703534c9" y="172.8"/>
      </g>
     </g>
     <g id="text_4">
      <!-- 2 -->
      <g transform="translate(289.823146 187.398437)scale(0.1 -0.1)">
       <use xlink:href="#DejaVuSans-32"/>
      </g>
     </g>
    </g>
    <g id="xtick_6">
     <g id="line2d_6">
      <g>
       <use style="stroke:#000000;stroke-width:0.8;" x="355.608791" xlink:href="#m59703534c9" y="172.8"/>
      </g>
     </g>
     <g id="text_5">
      <!-- 4 -->
      <g transform="translate(352.427541 187.398437)scale(0.1 -0.1)">
       <use xlink:href="#DejaVuSans-34"/>
      </g>
     </g>
    </g>
    <g id="xtick_7">
     <g id="line2d_7">
      <g>
       <use style="stroke:#000000;stroke-width:0.8;" x="418.213187" xlink:href="#m59703534c9" y="172.8"/>
      </g>
     </g>
     <g id="text_6">
      <!-- 6 -->
      <g transform="translate(415.031937 187.398437)scale(0.1 -0.1)">
       <use xlink:href="#DejaVuSans-36"/>
      </g>
     </g>
    </g>
    <g id="xtick_8">
     <g id="line2d_8">
      <defs>
       <path d="M 0 0 
L 0 2 
" id="mecd45a13a7" style="stroke:#000000;stroke-width:0.6;"/>
      </defs>
      <g>
       <use style="stroke:#000000;stroke-width:0.6;" x="11.284615" xlink:href="#mecd45a13a7" y="172.8"/>
      </g>
     </g>
    </g>
    <g id="xtick_9">
     <g id="line2d_9">
      <g>
       <use style="stroke:#000000;stroke-width:0.6;" x="26.935714" xlink:href="#mecd45a13a7" y="172.8"/>
      </g>
     </g>
    </g>
    <g id="xtick_10">
     <g id="line2d_10">
      <g>
       <use style="stroke:#000000;stroke-width:0.6;" x="58.237912" xlink:href="#mecd45a13a7" y="172.8"/>
      </g>
     </g>
    </g>
    <g id="xtick_11">
     <g id="line2d_11">
      <g>
       <use style="stroke:#000000;stroke-width:0.6;" x="73.889011" xlink:href="#mecd45a13a7" y="172.8"/>
      </g>
     </g>
    </g>
    <g id="xtick_12">
     <g id="line2d_12">
      <g>
       <use style="stroke:#000000;stroke-width:0.6;" x="89.54011" xlink:href="#mecd45a13a7" y="172.8"/>
      </g>
     </g>
    </g>
    <g id="xtick_13">
     <g id="line2d_13">
      <g>
       <use style="stroke:#000000;stroke-width:0.6;" x="120.842308" xlink:href="#mecd45a13a7" y="172.8"/>
      </g>
     </g>
    </g>
    <g id="xtick_14">
     <g id="line2d_14">
      <g>
       <use style="stroke:#000000;stroke-width:0.6;" x="136.493407" xlink:href="#mecd45a13a7" y="172.8"/>
      </g>
     </g>
    </g>
    <g id="xtick_15">
     <g id="line2d_15">
      <g>
       <use style="stroke:#000000;stroke-width:0.6;" x="152.144505" xlink:href="#mecd45a13a7" y="172.8"/>
      </g>
     </g>
    </g>
    <g id="xtick_16">
     <g id="line2d_16">
      <g>
       <use style="stroke:#000000;stroke-width:0.6;" x="183.446703" xlink:href="#mecd45a13a7" y="172.8"/>
      </g>
     </g>
    </g>
    <g id="xtick_17">
     <g id="line2d_17">
      <g>
       <use style="stroke:#000000;stroke-width:0.6;" x="199.097802" xlink:href="#mecd45a13a7" y="172.8"/>
      </g>
     </g>
    </g>
    <g id="xtick_18">
     <g id="line2d_18">
      <g>
       <use style="stroke:#000000;stroke-width:0.6;" x="214.748901" xlink:href="#mecd45a13a7" y="172.8"/>
      </g>
     </g>
    </g>
    <g id="xtick_19">
     <g id="line2d_19">
      <g>
       <use style="stroke:#000000;stroke-width:0.6;" x="246.051099" xlink:href="#mecd45a13a7" y="172.8"/>
      </g>
     </g>
    </g>
    <g id="xtick_20">
     <g id="line2d_20">
      <g>
       <use style="stroke:#000000;stroke-width:0.6;" x="261.702198" xlink:href="#mecd45a13a7" y="172.8"/>
      </g>
     </g>
    </g>
    <g id="xtick_21">
     <g id="line2d_21">
      <g>
       <use style="stroke:#000000;stroke-width:0.6;" x="277.353297" xlink:href="#mecd45a13a7" y="172.8"/>
      </g>
     </g>
    </g>
    <g id="xtick_22">
     <g id="line2d_22">
      <g>
       <use style="stroke:#000000;stroke-width:0.6;" x="308.655495" xlink:href="#mecd45a13a7" y="172.8"/>
      </g>
     </g>
    </g>
    <g id="xtick_23">
     <g id="line2d_23">
      <g>
       <use style="stroke:#000000;stroke-width:0.6;" x="324.306593" xlink:href="#mecd45a13a7" y="172.8"/>
      </g>
     </g>
    </g>
    <g id="xtick_24">
     <g id="line2d_24">
      <g>
       <use style="stroke:#000000;stroke-width:0.6;" x="339.957692" xlink:href="#mecd45a13a7" y="172.8"/>
      </g>
     </g>
    </g>
    <g id="xtick_25">
     <g id="line2d_25">
      <g>
       <use style="stroke:#000000;stroke-width:0.6;" x="371.25989" xlink:href="#mecd45a13a7" y="172.8"/>
      </g>
     </g>
    </g>
    <g id="xtick_26">
     <g id="line2d_26">
      <g>
       <use style="stroke:#000000;stroke-width:0.6;" x="386.910989" xlink:href="#mecd45a13a7" y="172.8"/>
      </g>
     </g>
    </g>
    <g id="xtick_27">
     <g id="line2d_27">
      <g>
       <use style="stroke:#000000;stroke-width:0.6;" x="402.562088" xlink:href="#mecd45a13a7" y="172.8"/>
      </g>
     </g>
    </g>
    <g id="xtick_28">
     <g id="line2d_28">
      <g>
       <use style="stroke:#000000;stroke-width:0.6;" x="433.864286" xlink:href="#mecd45a13a7" y="172.8"/>
      </g>
     </g>
    </g>
    <g id="xtick_29">
     <g id="line2d_29">
      <g>
       <use style="stroke:#000000;stroke-width:0.6;" x="449.515385" xlink:href="#mecd45a13a7" y="172.8"/>
      </g>
     </g>
    </g>
   </g>
   <g id="matplotlib.axis_2">
    <g id="ytick_1">
     <g id="line2d_30">
      <defs>
       <path d="M 0 0 
L -3.5 0 
" id="mc5be223bfa" style="stroke:#000000;stroke-width:0.8;"/>
      </defs>
      <g>
       <use style="stroke:#000000;stroke-width:0.8;" x="230.4" xlink:href="#mc5be223bfa" y="336.530769"/>
      </g>
     </g>
     <g id="text_7">
      <!-- -20 -->
      <defs>
       <path d="M 31.78125 66.40625 
Q 24.171875 66.40625 20.328125 58.90625 
Q 16.5 51.421875 16.5 36.375 
Q 16.5 21.390625 20.328125 13.890625 
Q 24.171875 6.390625 31.78125 6.390625 
Q 39.453125 6.390625 43.28125 13.890625 
Q 47.125 21.390625 47.125 36.375 
Q 47.125 51.421875 43.28125 58.90625 
Q 39.453125 66.40625 31.78125 66.40625 
z
M 31.78125 74.21875 
Q 44.046875 74.21875 50.515625 64.515625 
Q 56.984375 54.828125 56.984375 36.375 
Q 56.984375 17.96875 50.515625 8.265625 
Q 44.046875 -1.421875 31.78125 -1.421875 
Q 19.53125 -1.421875 13.0625 8.265625 
Q 6.59375 17.96875 6.59375 36.375 
Q 6.59375 54.828125 13.0625 64.515625 
Q 19.53125 74.21875 31.78125 74.21875 
z
" id="DejaVuSans-30"/>
      </defs>
      <g transform="translate(207.067187 340.329988)scale(0.1 -0.1)">
       <use xlink:href="#DejaVuSans-2d"/>
       <use x="36.083984" xlink:href="#DejaVuSans-32"/>
       <use x="99.707031" xlink:href="#DejaVuSans-30"/>
      </g>
     </g>
    </g>
    <g id="ytick_2">
     <g id="line2d_31">
      <g>
       <use style="stroke:#000000;stroke-width:0.8;" x="230.4" xlink:href="#mc5be223bfa" y="295.598077"/>
      </g>
     </g>
     <g id="text_8">
      <!-- -15 -->
      <defs>
       <path d="M 12.40625 8.296875 
L 28.515625 8.296875 
L 28.515625 63.921875 
L 10.984375 60.40625 
L 10.984375 69.390625 
L 28.421875 72.90625 
L 38.28125 72.90625 
L 38.28125 8.296875 
L 54.390625 8.296875 
L 54.390625 0 
L 12.40625 0 
z
" id="DejaVuSans-31"/>
       <path d="M 10.796875 72.90625 
L 49.515625 72.90625 
L 49.515625 64.59375 
L 19.828125 64.59375 
L 19.828125 46.734375 
Q 21.96875 47.46875 24.109375 47.828125 
Q 26.265625 48.1875 28.421875 48.1875 
Q 40.625 48.1875 47.75 41.5 
Q 54.890625 34.8125 54.890625 23.390625 
Q 54.890625 11.625 47.5625 5.09375 
Q 40.234375 -1.421875 26.90625 -1.421875 
Q 22.3125 -1.421875 17.546875 -0.640625 
Q 12.796875 0.140625 7.71875 1.703125 
L 7.71875 11.625 
Q 12.109375 9.234375 16.796875 8.0625 
Q 21.484375 6.890625 26.703125 6.890625 
Q 35.15625 6.890625 40.078125 11.328125 
Q 45.015625 15.765625 45.015625 23.390625 
Q 45.015625 31 40.078125 35.4375 
Q 35.15625 39.890625 26.703125 39.890625 
Q 22.75 39.890625 18.8125 39.015625 
Q 14.890625 38.140625 10.796875 36.28125 
z
" id="DejaVuSans-35"/>
      </defs>
      <g transform="translate(207.067187 299.397296)scale(0.1 -0.1)">
       <use xlink:href="#DejaVuSans-2d"/>
       <use x="36.083984" xlink:href="#DejaVuSans-31"/>
       <use x="99.707031" xlink:href="#DejaVuSans-35"/>
      </g>
     </g>
    </g>
    <g id="ytick_3">
     <g id="line2d_32">
      <g>
       <use style="stroke:#000000;stroke-width:0.8;" x="230.4" xlink:href="#mc5be223bfa" y="254.665385"/>
      </g>
     </g>
     <g id="text_9">
      <!-- -10 -->
      <g transform="translate(207.067187 258.464603)scale(0.1 -0.1)">
       <use xlink:href="#DejaVuSans-2d"/>
       <use x="36.083984" xlink:href="#DejaVuSans-31"/>
       <use x="99.707031" xlink:href="#DejaVuSans-30"/>
      </g>
     </g>
    </g>
    <g id="ytick_4">
     <g id="line2d_33">
      <g>
       <use style="stroke:#000000;stroke-width:0.8;" x="230.4" xlink:href="#mc5be223bfa" y="213.732692"/>
      </g>
     </g>
     <g id="text_10">
      <!-- -5 -->
      <g transform="translate(213.429687 217.531911)scale(0.1 -0.1)">
       <use xlink:href="#DejaVuSans-2d"/>
       <use x="36.083984" xlink:href="#DejaVuSans-35"/>
      </g>
     </g>
    </g>
    <g id="ytick_5">
     <g id="line2d_34">
      <g>
       <use style="stroke:#000000;stroke-width:0.8;" x="230.4" xlink:href="#mc5be223bfa" y="172.8"/>
      </g>
     </g>
    </g>
    <g id="ytick_6">
     <g id="line2d_35">
      <g>
       <use style="stroke:#000000;stroke-width:0.8;" x="230.4" xlink:href="#mc5be223bfa" y="131.867308"/>
      </g>
     </g>
     <g id="text_11">
      <!-- 5 -->
      <g transform="translate(217.0375 135.666526)scale(0.1 -0.1)">
       <use xlink:href="#DejaVuSans-35"/>
      </g>
     </g>
    </g>
    <g id="ytick_7">
     <g id="line2d_36">
      <g>
       <use style="stroke:#000000;stroke-width:0.8;" x="230.4" xlink:href="#mc5be223bfa" y="90.934615"/>
      </g>
     </g>
     <g id="text_12">
      <!-- 10 -->
      <g transform="translate(210.675 94.733834)scale(0.1 -0.1)">
       <use xlink:href="#DejaVuSans-31"/>
       <use x="63.623047" xlink:href="#DejaVuSans-30"/>
      </g>
     </g>
    </g>
    <g id="ytick_8">
     <g id="line2d_37">
      <g>
       <use style="stroke:#000000;stroke-width:0.8;" x="230.4" xlink:href="#mc5be223bfa" y="50.001923"/>
      </g>
     </g>
     <g id="text_13">
      <!-- 15 -->
      <g transform="translate(210.675 53.801142)scale(0.1 -0.1)">
       <use xlink:href="#DejaVuSans-31"/>
       <use x="63.623047" xlink:href="#DejaVuSans-35"/>
      </g>
     </g>
    </g>
    <g id="ytick_9">
     <g id="line2d_38">
      <g>
       <use style="stroke:#000000;stroke-width:0.8;" x="230.4" xlink:href="#mc5be223bfa" y="9.069231"/>
      </g>
     </g>
     <g id="text_14">
      <!-- 20 -->
      <g transform="translate(210.675 12.86845)scale(0.1 -0.1)">
       <use xlink:href="#DejaVuSans-32"/>
       <use x="63.623047" xlink:href="#DejaVuSans-30"/>
      </g>
     </g>
    </g>
    <g id="ytick_10">
     <g id="line2d_39">
      <defs>
       <path d="M 0 0 
L -2 0 
" id="mb90b3603e5" style="stroke:#000000;stroke-width:0.6;"/>
      </defs>
      <g>
       <use style="stroke:#000000;stroke-width:0.6;" x="230.4" xlink:href="#mb90b3603e5" y="328.344231"/>
      </g>
     </g>
    </g>
    <g id="ytick_11">
     <g id="line2d_40">
      <g>
       <use style="stroke:#000000;stroke-width:0.6;" x="230.4" xlink:href="#mb90b3603e5" y="320.157692"/>
      </g>
     </g>
    </g>
    <g id="ytick_12">
     <g id="line2d_41">
      <g>
       <use style="stroke:#000000;stroke-width:0.6;" x="230.4" xlink:href="#mb90b3603e5" y="311.971154"/>
      </g>
     </g>
    </g>
    <g id="ytick_13">
     <g id="line2d_42">
      <g>
       <use style="stroke:#000000;stroke-width:0.6;" x="230.4" xlink:href="#mb90b3603e5" y="303.784615"/>
      </g>
     </g>
    </g>
    <g id="ytick_14">
     <g id="line2d_43">
      <g>
       <use style="stroke:#000000;stroke-width:0.6;" x="230.4" xlink:href="#mb90b3603e5" y="287.411538"/>
      </g>
     </g>
    </g>
    <g id="ytick_15">
     <g id="line2d_44">
      <g>
       <use style="stroke:#000000;stroke-width:0.6;" x="230.4" xlink:href="#mb90b3603e5" y="279.225"/>
      </g>
     </g>
    </g>
    <g id="ytick_16">
     <g id="line2d_45">
      <g>
       <use style="stroke:#000000;stroke-width:0.6;" x="230.4" xlink:href="#mb90b3603e5" y="271.038462"/>
      </g>
     </g>
    </g>
    <g id="ytick_17">
     <g id="line2d_46">
      <g>
       <use style="stroke:#000000;stroke-width:0.6;" x="230.4" xlink:href="#mb90b3603e5" y="262.851923"/>
      </g>
     </g>
    </g>
    <g id="ytick_18">
     <g id="line2d_47">
      <g>
       <use style="stroke:#000000;stroke-width:0.6;" x="230.4" xlink:href="#mb90b3603e5" y="246.478846"/>
      </g>
     </g>
    </g>
    <g id="ytick_19">
     <g id="line2d_48">
      <g>
       <use style="stroke:#000000;stroke-width:0.6;" x="230.4" xlink:href="#mb90b3603e5" y="238.292308"/>
      </g>
     </g>
    </g>
    <g id="ytick_20">
     <g id="line2d_49">
      <g>
       <use style="stroke:#000000;stroke-width:0.6;" x="230.4" xlink:href="#mb90b3603e5" y="230.105769"/>
      </g>
     </g>
    </g>
    <g id="ytick_21">
     <g id="line2d_50">
      <g>
       <use style="stroke:#000000;stroke-width:0.6;" x="230.4" xlink:href="#mb90b3603e5" y="221.919231"/>
      </g>
     </g>
    </g>
    <g id="ytick_22">
     <g id="line2d_51">
      <g>
       <use style="stroke:#000000;stroke-width:0.6;" x="230.4" xlink:href="#mb90b3603e5" y="205.546154"/>
      </g>
     </g>
    </g>
    <g id="ytick_23">
     <g id="line2d_52">
      <g>
       <use style="stroke:#000000;stroke-width:0.6;" x="230.4" xlink:href="#mb90b3603e5" y="197.359615"/>
      </g>
     </g>
    </g>
    <g id="ytick_24">
     <g id="line2d_53">
      <g>
       <use style="stroke:#000000;stroke-width:0.6;" x="230.4" xlink:href="#mb90b3603e5" y="189.173077"/>
      </g>
     </g>
    </g>
    <g id="ytick_25">
     <g id="line2d_54">
      <g>
       <use style="stroke:#000000;stroke-width:0.6;" x="230.4" xlink:href="#mb90b3603e5" y="180.986538"/>
      </g>
     </g>
    </g>
    <g id="ytick_26">
     <g id="line2d_55">
      <g>
       <use style="stroke:#000000;stroke-width:0.6;" x="230.4" xlink:href="#mb90b3603e5" y="164.613462"/>
      </g>
     </g>
    </g>
    <g id="ytick_27">
     <g id="line2d_56">
      <g>
       <use style="stroke:#000000;stroke-width:0.6;" x="230.4" xlink:href="#mb90b3603e5" y="156.426923"/>
      </g>
     </g>
    </g>
    <g id="ytick_28">
     <g id="line2d_57">
      <g>
       <use style="stroke:#000000;stroke-width:0.6;" x="230.4" xlink:href="#mb90b3603e5" y="148.240385"/>
      </g>
     </g>
    </g>
    <g id="ytick_29">
     <g id="line2d_58">
      <g>
       <use style="stroke:#000000;stroke-width:0.6;" x="230.4" xlink:href="#mb90b3603e5" y="140.053846"/>
      </g>
     </g>
    </g>
    <g id="ytick_30">
     <g id="line2d_59">
      <g>
       <use style="stroke:#000000;stroke-width:0.6;" x="230.4" xlink:href="#mb90b3603e5" y="123.680769"/>
      </g>
     </g>
    </g>
    <g id="ytick_31">
     <g id="line2d_60">
      <g>
       <use style="stroke:#000000;stroke-width:0.6;" x="230.4" xlink:href="#mb90b3603e5" y="115.494231"/>
      </g>
     </g>
    </g>
    <g id="ytick_32">
     <g id="line2d_61">
      <g>
       <use style="stroke:#000000;stroke-width:0.6;" x="230.4" xlink:href="#mb90b3603e5" y="107.307692"/>
      </g>
     </g>
    </g>
    <g id="ytick_33">
     <g id="line2d_62">
      <g>
       <use style="stroke:#000000;stroke-width:0.6;" x="230.4" xlink:href="#mb90b3603e5" y="99.121154"/>
      </g>
     </g>
    </g>
    <g id="ytick_34">
     <g id="line2d_63">
      <g>
       <use style="stroke:#000000;stroke-width:0.6;" x="230.4" xlink:href="#mb90b3603e5" y="82.748077"/>
      </g>
     </g>
    </g>
    <g id="ytick_35">
     <g id="line2d_64">
      <g>
       <use style="stroke:#000000;stroke-width:0.6;" x="230.4" xlink:href="#mb90b3603e5" y="74.561538"/>
      </g>
     </g>
    </g>
    <g id="ytick_36">
     <g id="line2d_65">
      <g>
       <use style="stroke:#000000;stroke-width:0.6;" x="230.4" xlink:href="#mb90b3603e5" y="66.375"/>
      </g>
     </g>
    </g>
    <g id="ytick_37">
     <g id="line2d_66">
      <g>
       <use style="stroke:#000000;stroke-width:0.6;" x="230.4" xlink:href="#mb90b3603e5" y="58.188462"/>
      </g>
     </g>
    </g>
    <g id="ytick_38">
     <g id="line2d_67">
      <g>
       <use style="stroke:#000000;stroke-width:0.6;" x="230.4" xlink:href="#mb90b3603e5" y="41.815385"/>
      </g>
     </g>
    </g>
    <g id="ytick_39">
     <g id="line2d_68">
      <g>
       <use style="stroke:#000000;stroke-width:0.6;" x="230.4" xlink:href="#mb90b3603e5" y="33.628846"/>
      </g>
     </g>
    </g>
    <g id="ytick_40">
     <g id="line2d_69">
      <g>
       <use style="stroke:#000000;stroke-width:0.6;" x="230.4" xlink:href="#mb90b3603e5" y="25.442308"/>
      </g>
     </g>
    </g>
    <g id="ytick_41">
     <g id="line2d_70">
      <g>
       <use style="stroke:#000000;stroke-width:0.6;" x="230.4" xlink:href="#mb90b3603e5" y="17.255769"/>
      </g>
     </g>
    </g>
   </g>
   <g id="line2d_71">
    <path clip-path="url(#p91ddfc33a8)" d="M 11.284615 279.073397 
L 39.819575 265.20444 
L 62.085178 254.61192 
L 79.70908 246.434353 
L 95.319541 239.408032 
L 107.498556 234.123808 
L 118.26979 229.650412 
L 127.227671 226.125347 
L 136.699608 222.666252 
L 143.959653 220.275791 
L 149.237333 218.734855 
L 154.219269 217.485094 
L 159.203902 216.502543 
L 163.087651 215.988329 
L 166.781368 215.777467 
L 169.599266 215.859609 
L 172.258353 216.192798 
L 174.288972 216.663046 
L 176.069767 217.271066 
L 177.806125 218.08454 
L 179.531555 219.165154 
L 181.279564 220.615993 
L 182.734523 222.1779 
L 184.000538 223.875374 
L 185.367339 226.165597 
L 186.59108 228.742478 
L 187.685598 231.603641 
L 188.742056 235.025098 
L 189.763235 239.156726 
L 190.784414 244.39985 
L 191.703475 250.448619 
L 192.569127 257.792408 
L 193.358957 266.510789 
L 194.06628 276.719323 
L 194.773602 290.352158 
L 195.410193 307.177301 
L 196.007101 329.335526 
L 196.352159 346.6 
M 199.189979 346.6 
L 199.19045 -1 
M 201.342251 -1 
L 201.866536 34.903276 
L 202.49636 63.284673 
L 203.216159 85.016178 
L 203.99147 101.198234 
L 204.796974 113.278582 
L 205.672791 122.987287 
L 206.545304 130.328544 
L 207.473768 136.403539 
L 208.505395 141.687155 
L 209.537022 145.871357 
L 210.706158 149.656554 
L 211.875295 152.695662 
L 213.146607 155.373912 
L 214.300709 157.376078 
L 215.625136 159.287514 
L 216.984941 160.915944 
L 218.728917 162.626194 
L 220.104005 163.743261 
L 221.903538 164.969772 
L 224.084919 166.186157 
L 227.089822 167.522794 
L 230.172626 168.632014 
L 235.313777 170.195824 
L 241.940259 172.204419 
L 245.805204 173.610271 
L 249.309742 175.173258 
L 252.407579 176.881463 
L 254.981935 178.610692 
L 257.195718 180.382798 
L 259.355687 182.42587 
L 261.241321 184.517974 
L 263.169628 187.018653 
L 264.763481 189.416874 
L 266.240133 191.958205 
L 267.943832 195.346912 
L 269.404145 198.719174 
L 271.018981 203.061991 
L 272.532343 207.849788 
L 273.984674 213.256432 
L 275.36654 219.322297 
L 276.759783 226.585858 
L 278.079805 234.823747 
L 279.345241 244.32156 
L 280.499769 254.763427 
L 281.565487 266.365693 
L 282.659864 280.871023 
L 283.635354 296.754957 
L 284.569679 315.509926 
L 285.448023 337.467311 
L 285.760874 346.6 
M 293.001777 346.6 
L 293.002099 -1 
M 307.33677 -1 
L 308.572178 7.385372 
L 309.870931 14.7793 
L 311.166261 21.009129 
L 312.618284 26.913781 
L 314.079576 31.934571 
L 315.607549 36.389799 
L 317.069391 40.032259 
L 318.657922 43.42555 
L 320.113461 46.103973 
L 321.620723 48.512312 
L 323.497974 51.074455 
L 325.456879 53.315702 
L 327.208092 55.006412 
L 329.368958 56.751015 
L 331.467727 58.140473 
L 333.009043 58.997108 
L 335.738163 60.22419 
L 338.514077 61.150976 
L 341.432749 61.836401 
L 344.540419 62.295842 
L 347.501822 62.516703 
L 350.160741 62.561961 
L 354.157996 62.400042 
L 357.848033 62.044187 
L 362.298572 61.397153 
L 367.629108 60.364722 
L 373.868903 58.869558 
L 381.31618 56.766525 
L 389.893487 54.012322 
L 398.234581 51.070898 
L 408.449228 47.197255 
L 418.165696 43.296766 
L 430.564415 38.084616 
L 442.820729 32.731757 
L 449.515385 29.74024 
L 449.515385 29.74024 
" style="fill:none;stroke:#0000cc;stroke-linecap:square;"/>
   </g>
   <g id="line2d_72">
    <path clip-path="url(#p91ddfc33a8)" d="M 11.284615 271.038462 
L 449.515385 41.815385 
L 449.515385 41.815385 
" style="fill:none;stroke:#3ccc00;stroke-linecap:square;"/>
   </g>
   <g id="patch_4">
    <path d="M 230.4 343.08 
L 230.4 2.52 
" style="fill:none;stroke:#000000;stroke-linecap:square;stroke-linejoin:miter;stroke-width:0.8;"/>
   </g>
   <g id="patch_5">
    <path d="M 2.52 172.8 
L 458.28 172.8 
" style="fill:none;stroke:#000000;stroke-linecap:square;stroke-linejoin:miter;stroke-width:0.8;"/>
   </g>
  </g>
 </g>
 <defs>
  <clipPath id="p91ddfc33a8">
   <rect height="340.56" width="455.76" x="2.52" y="2.52"/>
  </clipPath>
 </defs>
</svg>
