<?xml version="1.0" encoding="utf-8" standalone="no"?>
<!DOCTYPE svg PUBLIC "-//W3C//DTD SVG 1.1//EN"
  "http://www.w3.org/Graphics/SVG/1.1/DTD/svg11.dtd">
<!-- Created with matplotlib (https://matplotlib.org/) -->
<svg height="345.6pt" version="1.1" viewBox="0 0 460.8 345.6" width="460.8pt" xmlns="http://www.w3.org/2000/svg" xmlns:xlink="http://www.w3.org/1999/xlink">
 <metadata>
  <rdf:RDF xmlns:cc="http://creativecommons.org/ns#" xmlns:dc="http://purl.org/dc/elements/1.1/" xmlns:rdf="http://www.w3.org/1999/02/22-rdf-syntax-ns#">
   <cc:Work>
    <dc:type rdf:resource="http://purl.org/dc/dcmitype/StillImage"/>
    <dc:date>2020-10-25T12:18:12.026019</dc:date>
    <dc:format>image/svg+xml</dc:format>
    <dc:creator>
     <cc:Agent>
      <dc:title>Matplotlib v3.3.1, https://matplotlib.org/</dc:title>
     </cc:Agent>
    </dc:creator>
   </cc:Work>
  </rdf:RDF>
 </metadata>
 <defs>
  <style type="text/css">*{stroke-linecap:butt;stroke-linejoin:round;}</style>
 </defs>
 <g id="figure_1">
  <g id="patch_1">
   <path d="M 0 345.6 
L 460.8 345.6 
L 460.8 0 
L 0 0 
z
" style="fill:#ffffff;"/>
  </g>
  <g id="axes_1">
   <g id="patch_2">
    <path d="M 0 345.6 
L 460.8 345.6 
L 460.8 0 
L 0 0 
z
" style="fill:#ffffff;"/>
   </g>
   <g id="matplotlib.axis_1">
    <g id="xtick_1">
     <g id="line2d_1">
      <defs>
       <path d="M 0 0 
L 0 3.5 
" id="m6e2de0dabc" style="stroke:#000000;stroke-width:0.8;"/>
      </defs>
      <g>
       <use style="stroke:#000000;stroke-width:0.8;" x="8.861538" xlink:href="#m6e2de0dabc" y="172.8"/>
      </g>
     </g>
     <g id="text_1">
      <!-- −4 -->
      <g transform="translate(1.490445 187.398437)scale(0.1 -0.1)">
       <defs>
        <path d="M 10.59375 35.5 
L 73.1875 35.5 
L 73.1875 27.203125 
L 10.59375 27.203125 
z
" id="DejaVuSans-8722"/>
        <path d="M 37.796875 64.3125 
L 12.890625 25.390625 
L 37.796875 25.390625 
z
M 35.203125 72.90625 
L 47.609375 72.90625 
L 47.609375 25.390625 
L 58.015625 25.390625 
L 58.015625 17.1875 
L 47.609375 17.1875 
L 47.609375 0 
L 37.796875 0 
L 37.796875 17.1875 
L 4.890625 17.1875 
L 4.890625 26.703125 
z
" id="DejaVuSans-52"/>
       </defs>
       <use xlink:href="#DejaVuSans-8722"/>
       <use x="83.789062" xlink:href="#DejaVuSans-52"/>
      </g>
     </g>
    </g>
    <g id="xtick_2">
     <g id="line2d_2">
      <g>
       <use style="stroke:#000000;stroke-width:0.8;" x="64.246154" xlink:href="#m6e2de0dabc" y="172.8"/>
      </g>
     </g>
     <g id="text_2">
      <!-- −3 -->
      <g transform="translate(56.87506 187.398437)scale(0.1 -0.1)">
       <defs>
        <path d="M 40.578125 39.3125 
Q 47.65625 37.796875 51.625 33 
Q 55.609375 28.21875 55.609375 21.1875 
Q 55.609375 10.40625 48.1875 4.484375 
Q 40.765625 -1.421875 27.09375 -1.421875 
Q 22.515625 -1.421875 17.65625 -0.515625 
Q 12.796875 0.390625 7.625 2.203125 
L 7.625 11.71875 
Q 11.71875 9.328125 16.59375 8.109375 
Q 21.484375 6.890625 26.8125 6.890625 
Q 36.078125 6.890625 40.9375 10.546875 
Q 45.796875 14.203125 45.796875 21.1875 
Q 45.796875 27.640625 41.28125 31.265625 
Q 36.765625 34.90625 28.71875 34.90625 
L 20.21875 34.90625 
L 20.21875 43.015625 
L 29.109375 43.015625 
Q 36.375 43.015625 40.234375 45.921875 
Q 44.09375 48.828125 44.09375 54.296875 
Q 44.09375 59.90625 40.109375 62.90625 
Q 36.140625 65.921875 28.71875 65.921875 
Q 24.65625 65.921875 20.015625 65.03125 
Q 15.375 64.15625 9.8125 62.3125 
L 9.8125 71.09375 
Q 15.4375 72.65625 20.34375 73.4375 
Q 25.25 74.21875 29.59375 74.21875 
Q 40.828125 74.21875 47.359375 69.109375 
Q 53.90625 64.015625 53.90625 55.328125 
Q 53.90625 49.265625 50.4375 45.09375 
Q 46.96875 40.921875 40.578125 39.3125 
z
" id="DejaVuSans-51"/>
       </defs>
       <use xlink:href="#DejaVuSans-8722"/>
       <use x="83.789062" xlink:href="#DejaVuSans-51"/>
      </g>
     </g>
    </g>
    <g id="xtick_3">
     <g id="line2d_3">
      <g>
       <use style="stroke:#000000;stroke-width:0.8;" x="119.630769" xlink:href="#m6e2de0dabc" y="172.8"/>
      </g>
     </g>
     <g id="text_3">
      <!-- −2 -->
      <g transform="translate(112.259675 187.398437)scale(0.1 -0.1)">
       <defs>
        <path d="M 19.1875 8.296875 
L 53.609375 8.296875 
L 53.609375 0 
L 7.328125 0 
L 7.328125 8.296875 
Q 12.9375 14.109375 22.625 23.890625 
Q 32.328125 33.6875 34.8125 36.53125 
Q 39.546875 41.84375 41.421875 45.53125 
Q 43.3125 49.21875 43.3125 52.78125 
Q 43.3125 58.59375 39.234375 62.25 
Q 35.15625 65.921875 28.609375 65.921875 
Q 23.96875 65.921875 18.8125 64.3125 
Q 13.671875 62.703125 7.8125 59.421875 
L 7.8125 69.390625 
Q 13.765625 71.78125 18.9375 73 
Q 24.125 74.21875 28.421875 74.21875 
Q 39.75 74.21875 46.484375 68.546875 
Q 53.21875 62.890625 53.21875 53.421875 
Q 53.21875 48.921875 51.53125 44.890625 
Q 49.859375 40.875 45.40625 35.40625 
Q 44.1875 33.984375 37.640625 27.21875 
Q 31.109375 20.453125 19.1875 8.296875 
z
" id="DejaVuSans-50"/>
       </defs>
       <use xlink:href="#DejaVuSans-8722"/>
       <use x="83.789062" xlink:href="#DejaVuSans-50"/>
      </g>
     </g>
    </g>
    <g id="xtick_4">
     <g id="line2d_4">
      <g>
       <use style="stroke:#000000;stroke-width:0.8;" x="175.015385" xlink:href="#m6e2de0dabc" y="172.8"/>
      </g>
     </g>
     <g id="text_4">
      <!-- −1 -->
      <g transform="translate(167.644291 187.398437)scale(0.1 -0.1)">
       <defs>
        <path d="M 12.40625 8.296875 
L 28.515625 8.296875 
L 28.515625 63.921875 
L 10.984375 60.40625 
L 10.984375 69.390625 
L 28.421875 72.90625 
L 38.28125 72.90625 
L 38.28125 8.296875 
L 54.390625 8.296875 
L 54.390625 0 
L 12.40625 0 
z
" id="DejaVuSans-49"/>
       </defs>
       <use xlink:href="#DejaVuSans-8722"/>
       <use x="83.789062" xlink:href="#DejaVuSans-49"/>
      </g>
     </g>
    </g>
    <g id="xtick_5">
     <g id="line2d_5">
      <g>
       <use style="stroke:#000000;stroke-width:0.8;" x="230.4" xlink:href="#m6e2de0dabc" y="172.8"/>
      </g>
     </g>
    </g>
    <g id="xtick_6">
     <g id="line2d_6">
      <g>
       <use style="stroke:#000000;stroke-width:0.8;" x="285.784615" xlink:href="#m6e2de0dabc" y="172.8"/>
      </g>
     </g>
     <g id="text_5">
      <!-- 1 -->
      <g transform="translate(282.603365 187.398437)scale(0.1 -0.1)">
       <use xlink:href="#DejaVuSans-49"/>
      </g>
     </g>
    </g>
    <g id="xtick_7">
     <g id="line2d_7">
      <g>
       <use style="stroke:#000000;stroke-width:0.8;" x="341.169231" xlink:href="#m6e2de0dabc" y="172.8"/>
      </g>
     </g>
     <g id="text_6">
      <!-- 2 -->
      <g transform="translate(337.987981 187.398437)scale(0.1 -0.1)">
       <use xlink:href="#DejaVuSans-50"/>
      </g>
     </g>
    </g>
    <g id="xtick_8">
     <g id="line2d_8">
      <g>
       <use style="stroke:#000000;stroke-width:0.8;" x="396.553846" xlink:href="#m6e2de0dabc" y="172.8"/>
      </g>
     </g>
     <g id="text_7">
      <!-- 3 -->
      <g transform="translate(393.372596 187.398437)scale(0.1 -0.1)">
       <use xlink:href="#DejaVuSans-51"/>
      </g>
     </g>
    </g>
    <g id="xtick_9">
     <g id="line2d_9">
      <g>
       <use style="stroke:#000000;stroke-width:0.8;" x="451.938462" xlink:href="#m6e2de0dabc" y="172.8"/>
      </g>
     </g>
     <g id="text_8">
      <!-- 4 -->
      <g transform="translate(448.757212 187.398437)scale(0.1 -0.1)">
       <use xlink:href="#DejaVuSans-52"/>
      </g>
     </g>
    </g>
    <g id="xtick_10">
     <g id="line2d_10">
      <defs>
       <path d="M 0 0 
L 0 2 
" id="m715e925519" style="stroke:#000000;stroke-width:0.6;"/>
      </defs>
      <g>
       <use style="stroke:#000000;stroke-width:0.6;" x="19.938462" xlink:href="#m715e925519" y="172.8"/>
      </g>
     </g>
    </g>
    <g id="xtick_11">
     <g id="line2d_11">
      <g>
       <use style="stroke:#000000;stroke-width:0.6;" x="31.015385" xlink:href="#m715e925519" y="172.8"/>
      </g>
     </g>
    </g>
    <g id="xtick_12">
     <g id="line2d_12">
      <g>
       <use style="stroke:#000000;stroke-width:0.6;" x="42.092308" xlink:href="#m715e925519" y="172.8"/>
      </g>
     </g>
    </g>
    <g id="xtick_13">
     <g id="line2d_13">
      <g>
       <use style="stroke:#000000;stroke-width:0.6;" x="53.169231" xlink:href="#m715e925519" y="172.8"/>
      </g>
     </g>
    </g>
    <g id="xtick_14">
     <g id="line2d_14">
      <g>
       <use style="stroke:#000000;stroke-width:0.6;" x="75.323077" xlink:href="#m715e925519" y="172.8"/>
      </g>
     </g>
    </g>
    <g id="xtick_15">
     <g id="line2d_15">
      <g>
       <use style="stroke:#000000;stroke-width:0.6;" x="86.4" xlink:href="#m715e925519" y="172.8"/>
      </g>
     </g>
    </g>
    <g id="xtick_16">
     <g id="line2d_16">
      <g>
       <use style="stroke:#000000;stroke-width:0.6;" x="97.476923" xlink:href="#m715e925519" y="172.8"/>
      </g>
     </g>
    </g>
    <g id="xtick_17">
     <g id="line2d_17">
      <g>
       <use style="stroke:#000000;stroke-width:0.6;" x="108.553846" xlink:href="#m715e925519" y="172.8"/>
      </g>
     </g>
    </g>
    <g id="xtick_18">
     <g id="line2d_18">
      <g>
       <use style="stroke:#000000;stroke-width:0.6;" x="130.707692" xlink:href="#m715e925519" y="172.8"/>
      </g>
     </g>
    </g>
    <g id="xtick_19">
     <g id="line2d_19">
      <g>
       <use style="stroke:#000000;stroke-width:0.6;" x="141.784615" xlink:href="#m715e925519" y="172.8"/>
      </g>
     </g>
    </g>
    <g id="xtick_20">
     <g id="line2d_20">
      <g>
       <use style="stroke:#000000;stroke-width:0.6;" x="152.861538" xlink:href="#m715e925519" y="172.8"/>
      </g>
     </g>
    </g>
    <g id="xtick_21">
     <g id="line2d_21">
      <g>
       <use style="stroke:#000000;stroke-width:0.6;" x="163.938462" xlink:href="#m715e925519" y="172.8"/>
      </g>
     </g>
    </g>
    <g id="xtick_22">
     <g id="line2d_22">
      <g>
       <use style="stroke:#000000;stroke-width:0.6;" x="186.092308" xlink:href="#m715e925519" y="172.8"/>
      </g>
     </g>
    </g>
    <g id="xtick_23">
     <g id="line2d_23">
      <g>
       <use style="stroke:#000000;stroke-width:0.6;" x="197.169231" xlink:href="#m715e925519" y="172.8"/>
      </g>
     </g>
    </g>
    <g id="xtick_24">
     <g id="line2d_24">
      <g>
       <use style="stroke:#000000;stroke-width:0.6;" x="208.246154" xlink:href="#m715e925519" y="172.8"/>
      </g>
     </g>
    </g>
    <g id="xtick_25">
     <g id="line2d_25">
      <g>
       <use style="stroke:#000000;stroke-width:0.6;" x="219.323077" xlink:href="#m715e925519" y="172.8"/>
      </g>
     </g>
    </g>
    <g id="xtick_26">
     <g id="line2d_26">
      <g>
       <use style="stroke:#000000;stroke-width:0.6;" x="241.476923" xlink:href="#m715e925519" y="172.8"/>
      </g>
     </g>
    </g>
    <g id="xtick_27">
     <g id="line2d_27">
      <g>
       <use style="stroke:#000000;stroke-width:0.6;" x="252.553846" xlink:href="#m715e925519" y="172.8"/>
      </g>
     </g>
    </g>
    <g id="xtick_28">
     <g id="line2d_28">
      <g>
       <use style="stroke:#000000;stroke-width:0.6;" x="263.630769" xlink:href="#m715e925519" y="172.8"/>
      </g>
     </g>
    </g>
    <g id="xtick_29">
     <g id="line2d_29">
      <g>
       <use style="stroke:#000000;stroke-width:0.6;" x="274.707692" xlink:href="#m715e925519" y="172.8"/>
      </g>
     </g>
    </g>
    <g id="xtick_30">
     <g id="line2d_30">
      <g>
       <use style="stroke:#000000;stroke-width:0.6;" x="296.861538" xlink:href="#m715e925519" y="172.8"/>
      </g>
     </g>
    </g>
    <g id="xtick_31">
     <g id="line2d_31">
      <g>
       <use style="stroke:#000000;stroke-width:0.6;" x="307.938462" xlink:href="#m715e925519" y="172.8"/>
      </g>
     </g>
    </g>
    <g id="xtick_32">
     <g id="line2d_32">
      <g>
       <use style="stroke:#000000;stroke-width:0.6;" x="319.015385" xlink:href="#m715e925519" y="172.8"/>
      </g>
     </g>
    </g>
    <g id="xtick_33">
     <g id="line2d_33">
      <g>
       <use style="stroke:#000000;stroke-width:0.6;" x="330.092308" xlink:href="#m715e925519" y="172.8"/>
      </g>
     </g>
    </g>
    <g id="xtick_34">
     <g id="line2d_34">
      <g>
       <use style="stroke:#000000;stroke-width:0.6;" x="352.246154" xlink:href="#m715e925519" y="172.8"/>
      </g>
     </g>
    </g>
    <g id="xtick_35">
     <g id="line2d_35">
      <g>
       <use style="stroke:#000000;stroke-width:0.6;" x="363.323077" xlink:href="#m715e925519" y="172.8"/>
      </g>
     </g>
    </g>
    <g id="xtick_36">
     <g id="line2d_36">
      <g>
       <use style="stroke:#000000;stroke-width:0.6;" x="374.4" xlink:href="#m715e925519" y="172.8"/>
      </g>
     </g>
    </g>
    <g id="xtick_37">
     <g id="line2d_37">
      <g>
       <use style="stroke:#000000;stroke-width:0.6;" x="385.476923" xlink:href="#m715e925519" y="172.8"/>
      </g>
     </g>
    </g>
    <g id="xtick_38">
     <g id="line2d_38">
      <g>
       <use style="stroke:#000000;stroke-width:0.6;" x="407.630769" xlink:href="#m715e925519" y="172.8"/>
      </g>
     </g>
    </g>
    <g id="xtick_39">
     <g id="line2d_39">
      <g>
       <use style="stroke:#000000;stroke-width:0.6;" x="418.707692" xlink:href="#m715e925519" y="172.8"/>
      </g>
     </g>
    </g>
    <g id="xtick_40">
     <g id="line2d_40">
      <g>
       <use style="stroke:#000000;stroke-width:0.6;" x="429.784615" xlink:href="#m715e925519" y="172.8"/>
      </g>
     </g>
    </g>
    <g id="xtick_41">
     <g id="line2d_41">
      <g>
       <use style="stroke:#000000;stroke-width:0.6;" x="440.861538" xlink:href="#m715e925519" y="172.8"/>
      </g>
     </g>
    </g>
   </g>
   <g id="matplotlib.axis_2">
    <g id="ytick_1">
     <g id="line2d_42">
      <defs>
       <path d="M 0 0 
L -3.5 0 
" id="m21e703978c" style="stroke:#000000;stroke-width:0.8;"/>
      </defs>
      <g>
       <use style="stroke:#000000;stroke-width:0.8;" x="230.4" xlink:href="#m21e703978c" y="331.465236"/>
      </g>
     </g>
     <g id="text_9">
      <!-- −3 -->
      <g transform="translate(208.657813 335.264454)scale(0.1 -0.1)">
       <use xlink:href="#DejaVuSans-8722"/>
       <use x="83.789062" xlink:href="#DejaVuSans-51"/>
      </g>
     </g>
    </g>
    <g id="ytick_2">
     <g id="line2d_43">
      <g>
       <use style="stroke:#000000;stroke-width:0.8;" x="230.4" xlink:href="#m21e703978c" y="278.576824"/>
      </g>
     </g>
     <g id="text_10">
      <!-- −2 -->
      <g transform="translate(208.657813 282.376042)scale(0.1 -0.1)">
       <use xlink:href="#DejaVuSans-8722"/>
       <use x="83.789062" xlink:href="#DejaVuSans-50"/>
      </g>
     </g>
    </g>
    <g id="ytick_3">
     <g id="line2d_44">
      <g>
       <use style="stroke:#000000;stroke-width:0.8;" x="230.4" xlink:href="#m21e703978c" y="225.688412"/>
      </g>
     </g>
     <g id="text_11">
      <!-- −1 -->
      <g transform="translate(208.657813 229.487631)scale(0.1 -0.1)">
       <use xlink:href="#DejaVuSans-8722"/>
       <use x="83.789062" xlink:href="#DejaVuSans-49"/>
      </g>
     </g>
    </g>
    <g id="ytick_4">
     <g id="line2d_45">
      <g>
       <use style="stroke:#000000;stroke-width:0.8;" x="230.4" xlink:href="#m21e703978c" y="172.8"/>
      </g>
     </g>
    </g>
    <g id="ytick_5">
     <g id="line2d_46">
      <g>
       <use style="stroke:#000000;stroke-width:0.8;" x="230.4" xlink:href="#m21e703978c" y="119.911588"/>
      </g>
     </g>
     <g id="text_12">
      <!-- 1 -->
      <g transform="translate(217.0375 123.710807)scale(0.1 -0.1)">
       <use xlink:href="#DejaVuSans-49"/>
      </g>
     </g>
    </g>
    <g id="ytick_6">
     <g id="line2d_47">
      <g>
       <use style="stroke:#000000;stroke-width:0.8;" x="230.4" xlink:href="#m21e703978c" y="67.023176"/>
      </g>
     </g>
     <g id="text_13">
      <!-- 2 -->
      <g transform="translate(217.0375 70.822395)scale(0.1 -0.1)">
       <use xlink:href="#DejaVuSans-50"/>
      </g>
     </g>
    </g>
    <g id="ytick_7">
     <g id="line2d_48">
      <g>
       <use style="stroke:#000000;stroke-width:0.8;" x="230.4" xlink:href="#m21e703978c" y="14.134764"/>
      </g>
     </g>
     <g id="text_14">
      <!-- 3 -->
      <g transform="translate(217.0375 17.933983)scale(0.1 -0.1)">
       <use xlink:href="#DejaVuSans-51"/>
      </g>
     </g>
    </g>
    <g id="ytick_8">
     <g id="line2d_49">
      <defs>
       <path d="M 0 0 
L -2 0 
" id="m51208927e1" style="stroke:#000000;stroke-width:0.6;"/>
      </defs>
      <g>
       <use style="stroke:#000000;stroke-width:0.6;" x="230.4" xlink:href="#m51208927e1" y="342.042918"/>
      </g>
     </g>
    </g>
    <g id="ytick_9">
     <g id="line2d_50">
      <g>
       <use style="stroke:#000000;stroke-width:0.6;" x="230.4" xlink:href="#m51208927e1" y="320.887553"/>
      </g>
     </g>
    </g>
    <g id="ytick_10">
     <g id="line2d_51">
      <g>
       <use style="stroke:#000000;stroke-width:0.6;" x="230.4" xlink:href="#m51208927e1" y="310.309871"/>
      </g>
     </g>
    </g>
    <g id="ytick_11">
     <g id="line2d_52">
      <g>
       <use style="stroke:#000000;stroke-width:0.6;" x="230.4" xlink:href="#m51208927e1" y="299.732188"/>
      </g>
     </g>
    </g>
    <g id="ytick_12">
     <g id="line2d_53">
      <g>
       <use style="stroke:#000000;stroke-width:0.6;" x="230.4" xlink:href="#m51208927e1" y="289.154506"/>
      </g>
     </g>
    </g>
    <g id="ytick_13">
     <g id="line2d_54">
      <g>
       <use style="stroke:#000000;stroke-width:0.6;" x="230.4" xlink:href="#m51208927e1" y="267.999141"/>
      </g>
     </g>
    </g>
    <g id="ytick_14">
     <g id="line2d_55">
      <g>
       <use style="stroke:#000000;stroke-width:0.6;" x="230.4" xlink:href="#m51208927e1" y="257.421459"/>
      </g>
     </g>
    </g>
    <g id="ytick_15">
     <g id="line2d_56">
      <g>
       <use style="stroke:#000000;stroke-width:0.6;" x="230.4" xlink:href="#m51208927e1" y="246.843777"/>
      </g>
     </g>
    </g>
    <g id="ytick_16">
     <g id="line2d_57">
      <g>
       <use style="stroke:#000000;stroke-width:0.6;" x="230.4" xlink:href="#m51208927e1" y="236.266094"/>
      </g>
     </g>
    </g>
    <g id="ytick_17">
     <g id="line2d_58">
      <g>
       <use style="stroke:#000000;stroke-width:0.6;" x="230.4" xlink:href="#m51208927e1" y="215.110729"/>
      </g>
     </g>
    </g>
    <g id="ytick_18">
     <g id="line2d_59">
      <g>
       <use style="stroke:#000000;stroke-width:0.6;" x="230.4" xlink:href="#m51208927e1" y="204.533047"/>
      </g>
     </g>
    </g>
    <g id="ytick_19">
     <g id="line2d_60">
      <g>
       <use style="stroke:#000000;stroke-width:0.6;" x="230.4" xlink:href="#m51208927e1" y="193.955365"/>
      </g>
     </g>
    </g>
    <g id="ytick_20">
     <g id="line2d_61">
      <g>
       <use style="stroke:#000000;stroke-width:0.6;" x="230.4" xlink:href="#m51208927e1" y="183.377682"/>
      </g>
     </g>
    </g>
    <g id="ytick_21">
     <g id="line2d_62">
      <g>
       <use style="stroke:#000000;stroke-width:0.6;" x="230.4" xlink:href="#m51208927e1" y="162.222318"/>
      </g>
     </g>
    </g>
    <g id="ytick_22">
     <g id="line2d_63">
      <g>
       <use style="stroke:#000000;stroke-width:0.6;" x="230.4" xlink:href="#m51208927e1" y="151.644635"/>
      </g>
     </g>
    </g>
    <g id="ytick_23">
     <g id="line2d_64">
      <g>
       <use style="stroke:#000000;stroke-width:0.6;" x="230.4" xlink:href="#m51208927e1" y="141.066953"/>
      </g>
     </g>
    </g>
    <g id="ytick_24">
     <g id="line2d_65">
      <g>
       <use style="stroke:#000000;stroke-width:0.6;" x="230.4" xlink:href="#m51208927e1" y="130.489271"/>
      </g>
     </g>
    </g>
    <g id="ytick_25">
     <g id="line2d_66">
      <g>
       <use style="stroke:#000000;stroke-width:0.6;" x="230.4" xlink:href="#m51208927e1" y="109.333906"/>
      </g>
     </g>
    </g>
    <g id="ytick_26">
     <g id="line2d_67">
      <g>
       <use style="stroke:#000000;stroke-width:0.6;" x="230.4" xlink:href="#m51208927e1" y="98.756223"/>
      </g>
     </g>
    </g>
    <g id="ytick_27">
     <g id="line2d_68">
      <g>
       <use style="stroke:#000000;stroke-width:0.6;" x="230.4" xlink:href="#m51208927e1" y="88.178541"/>
      </g>
     </g>
    </g>
    <g id="ytick_28">
     <g id="line2d_69">
      <g>
       <use style="stroke:#000000;stroke-width:0.6;" x="230.4" xlink:href="#m51208927e1" y="77.600859"/>
      </g>
     </g>
    </g>
    <g id="ytick_29">
     <g id="line2d_70">
      <g>
       <use style="stroke:#000000;stroke-width:0.6;" x="230.4" xlink:href="#m51208927e1" y="56.445494"/>
      </g>
     </g>
    </g>
    <g id="ytick_30">
     <g id="line2d_71">
      <g>
       <use style="stroke:#000000;stroke-width:0.6;" x="230.4" xlink:href="#m51208927e1" y="45.867812"/>
      </g>
     </g>
    </g>
    <g id="ytick_31">
     <g id="line2d_72">
      <g>
       <use style="stroke:#000000;stroke-width:0.6;" x="230.4" xlink:href="#m51208927e1" y="35.290129"/>
      </g>
     </g>
    </g>
    <g id="ytick_32">
     <g id="line2d_73">
      <g>
       <use style="stroke:#000000;stroke-width:0.6;" x="230.4" xlink:href="#m51208927e1" y="24.712447"/>
      </g>
     </g>
    </g>
    <g id="ytick_33">
     <g id="line2d_74">
      <g>
       <use style="stroke:#000000;stroke-width:0.6;" x="230.4" xlink:href="#m51208927e1" y="3.557082"/>
      </g>
     </g>
    </g>
   </g>
   <g id="line2d_75">
    <path clip-path="url(#pb270f348cf)" d="M 8.861538 182.806521 
L 16.989165 181.7641 
L 22.25104 180.938309 
L 30.479699 179.410526 
L 36.915484 178.0179 
L 45.121773 175.998357 
L 52.703553 173.900587 
L 62.538264 170.87125 
L 71.949043 167.679201 
L 80.207346 164.673662 
L 91.896908 160.155618 
L 104.153189 155.184082 
L 141.175913 139.996767 
L 151.141973 136.202475 
L 159.70063 133.149272 
L 169.573123 129.920654 
L 174.778382 128.364212 
L 183.792593 125.936499 
L 192.501649 123.943383 
L 198.936288 122.710829 
L 205.638954 121.655914 
L 210.386359 121.055117 
L 217.596069 120.381436 
L 224.169823 120.023058 
L 230.480759 119.911607 
L 236.942513 120.034507 
L 243.962272 120.438568 
L 250.549903 121.070638 
L 256.593675 121.861278 
L 261.911745 122.719243 
L 268.932437 124.076131 
L 277.247555 125.996516 
L 284.396316 127.900666 
L 293.952799 130.777466 
L 303.398519 133.948171 
L 313.268276 137.550499 
L 325.694002 142.405595 
L 340.778891 148.592084 
L 366.334663 159.12981 
L 377.408023 163.470392 
L 388.48529 167.54992 
L 397.201828 170.52536 
L 404.451729 172.816964 
L 413.479386 175.412311 
L 421.674973 177.500614 
L 429.079399 179.155372 
L 437.957094 180.838014 
L 445.058251 181.942473 
L 451.938462 182.806521 
L 451.938462 182.806521 
" style="fill:none;stroke:#0000ff;stroke-linecap:square;"/>
   </g>
   <g id="line2d_76">
    <path clip-path="url(#pb270f348cf)" d="M 8.861538 34.519308 
L 11.811566 28.143843 
L 14.246921 23.352544 
L 16.500501 19.30182 
L 19.120032 15.057882 
L 21.530068 11.595222 
L 23.465257 9.12113 
L 25.569256 6.73998 
L 28.24937 4.170391 
L 30.609705 2.334327 
L 32.301464 1.262111 
L 33.878737 0.444125 
L 35.456011 -0.200153 
L 37.011327 -0.667054 
L 38.845974 -1 
M 42.503183 -1 
L 44.77475 -0.565785 
L 46.646935 0.044696 
L 48.189641 0.712207 
L 49.682342 1.496742 
L 51.175043 2.415003 
L 52.706593 3.493295 
L 54.382406 4.827549 
L 57.34602 7.56952 
L 59.668052 10.046034 
L 62.341375 13.237094 
L 65.44724 17.376775 
L 69.021026 22.675853 
L 72.178105 27.795837 
L 75.479227 33.549372 
L 78.383176 38.916118 
L 81.866936 45.689131 
L 87.173624 56.59861 
L 91.355484 65.595442 
L 99.702839 84.229927 
L 115.275845 119.339925 
L 121.963573 133.711289 
L 126.710487 143.408634 
L 132.312604 154.170572 
L 135.695548 160.256823 
L 139.876892 167.301718 
L 144.134929 173.890026 
L 147.460086 178.597931 
L 150.019362 181.949167 
L 153.791602 186.442857 
L 156.860064 189.69679 
L 159.491287 192.195083 
L 161.457254 193.88402 
L 165.18512 196.666732 
L 168.100637 198.459414 
L 171.207159 200.000503 
L 174.155101 201.114108 
L 177.147659 201.902231 
L 179.931397 202.331689 
L 183.234515 202.471311 
L 185.153042 202.373117 
L 188.356989 201.925409 
L 190.639376 201.397519 
L 194.456359 200.145624 
L 197.366468 198.898229 
L 200.57564 197.249689 
L 203.921516 195.25008 
L 208.371979 192.193271 
L 212.496615 189.010984 
L 215.142187 186.820735 
L 221.031056 181.61898 
L 229.070882 174.068849 
L 239.95274 163.813159 
L 245.855331 158.612169 
L 250.010762 155.23483 
L 254.235457 152.114303 
L 257.916867 149.700261 
L 261.057698 147.895892 
L 264.06997 146.408235 
L 266.731958 145.306642 
L 269.823526 144.294736 
L 272.640009 143.637054 
L 275.785966 143.215429 
L 278.87863 143.136862 
L 281.764348 143.374973 
L 284.962455 144.000753 
L 288.065724 144.980491 
L 290.80918 146.157729 
L 292.719133 147.15161 
L 296.018827 149.208196 
L 299.546841 151.884216 
L 302.34439 154.355883 
L 304.972253 156.957241 
L 308.220885 160.542748 
L 311.645187 164.755941 
L 314.907702 169.172771 
L 319.022817 175.282465 
L 322.097731 180.221593 
L 326.73104 188.228245 
L 331.498906 197.115048 
L 335.978136 205.991686 
L 340.13637 214.62379 
L 347.144197 229.83819 
L 356.978433 252.014602 
L 366.759069 274.086839 
L 373.818842 289.407852 
L 379.070382 300.184177 
L 383.935112 309.52354 
L 388.471302 317.550295 
L 392.422596 323.918755 
L 395.404511 328.29585 
L 398.435594 332.333885 
L 400.772043 335.145181 
L 402.810934 337.372902 
L 405.638535 340.098357 
L 408.635741 342.504119 
L 411.233657 344.169052 
L 413.435932 345.263303 
L 415.355105 345.972681 
L 416.962048 346.387728 
L 418.332519 346.6 
M 421.937581 346.6 
L 422.400633 346.544009 
L 423.898426 346.239553 
L 426.603328 345.299669 
L 428.832745 344.142112 
L 431.018816 342.666483 
L 433.429439 340.644064 
L 435.706346 338.349845 
L 438.054909 335.589995 
L 440.44622 332.367632 
L 443.029412 328.41832 
L 445.994645 323.285602 
L 448.558654 318.33283 
L 450.55862 314.140325 
L 451.938462 311.080692 
L 451.938462 311.080692 
" style="fill:none;stroke:#ff0000;stroke-linecap:square;"/>
   </g>
   <g id="line2d_77">
    <path clip-path="url(#pb270f348cf)" d="M 8.861538 234.035329 
L 11.125958 229.200395 
L 14.006476 223.62573 
L 16.775096 218.769502 
L 19.583087 214.257292 
L 22.72597 209.613552 
L 25.630316 205.637843 
L 29.690095 200.491518 
L 32.635207 197.002023 
L 36.697913 192.454515 
L 41.449966 187.437593 
L 49.658491 179.273624 
L 68.322137 161.240131 
L 73.891434 155.522829 
L 77.635307 151.470517 
L 83.216737 144.988361 
L 88.033387 138.819223 
L 92.397366 132.604141 
L 96.0788 126.753838 
L 99.111424 121.402322 
L 101.764694 116.231058 
L 104.065399 111.298622 
L 106.705194 105.016126 
L 108.779743 99.514312 
L 111.085417 92.687261 
L 112.880803 86.745144 
L 114.939094 79.110815 
L 116.807345 71.256017 
L 118.426986 63.574549 
L 119.972445 55.326896 
L 121.623827 45.303218 
L 122.888844 36.594029 
L 124.586747 23.153665 
L 125.939165 10.656945 
L 127.04112 -1 
M 143.30528 -1 
L 143.305324 346.6 
M 159.763201 346.6 
L 161.134261 332.307858 
L 162.637252 318.910961 
L 164.196279 306.984152 
L 165.814633 296.281362 
L 167.49303 286.622356 
L 169.234597 277.84747 
L 171.350424 268.556657 
L 173.482781 260.409352 
L 175.612249 253.248557 
L 178.236763 245.496527 
L 180.365506 239.915227 
L 182.917108 233.902132 
L 185.43395 228.567248 
L 188.54222 222.643304 
L 191.895792 216.916404 
L 195.617208 211.201775 
L 198.770395 206.781206 
L 202.560681 201.875619 
L 206.679612 196.946029 
L 210.949236 192.177392 
L 216.727693 186.127934 
L 222.686755 180.213598 
L 243.448319 160.104003 
L 250.115576 153.135279 
L 254.863293 147.791347 
L 259.068065 142.685177 
L 263.119692 137.329084 
L 266.084469 133.067392 
L 269.762234 127.275837 
L 271.77667 123.817146 
L 274.425665 118.895996 
L 276.91653 113.810008 
L 279.245166 108.571201 
L 281.421915 103.166176 
L 283.39153 97.769988 
L 285.529814 91.258742 
L 287.235144 85.483367 
L 288.852571 79.435661 
L 290.670058 71.849303 
L 292.448899 63.443637 
L 294.264193 53.630456 
L 295.801896 44.108856 
L 297.298379 33.520112 
L 298.703027 22.111998 
L 300.161456 8.380303 
L 301.036533 -1 
M 317.361449 -1 
L 317.361573 346.6 
M 333.759806 346.6 
L 334.974968 333.816808 
L 336.210227 322.472364 
L 337.896704 309.111373 
L 339.464612 298.443917 
L 340.979862 289.415358 
L 342.741567 280.197542 
L 344.472539 272.231563 
L 345.883052 266.401733 
L 347.553346 260.143007 
L 349.607672 253.250068 
L 351.677407 247.049996 
L 354.421533 239.765557 
L 356.565829 234.681826 
L 358.958978 229.525445 
L 362.318876 223.040098 
L 364.051341 219.982718 
L 367.502503 214.369002 
L 370.56855 209.825486 
L 373.615899 205.646071 
L 377.415435 200.816547 
L 381.761081 195.704268 
L 386.414996 190.600329 
L 393.371573 183.468734 
L 401.813491 175.267808 
L 413.639525 163.890107 
L 419.158356 158.359278 
L 425.368285 151.757335 
L 429.516838 147.01855 
L 432.941949 142.839279 
L 435.425871 139.622229 
L 439.901694 133.333667 
L 442.466978 129.38046 
L 445.432697 124.416693 
L 447.780659 120.129278 
L 450.611198 114.451636 
L 451.938462 111.564671 
L 451.938462 111.564671 
" style="fill:none;stroke:#008000;stroke-linecap:square;"/>
   </g>
   <g id="patch_3">
    <path d="M 230.4 345.6 
L 230.4 0 
" style="fill:none;stroke:#000000;stroke-linecap:square;stroke-linejoin:miter;stroke-width:0.8;"/>
   </g>
   <g id="patch_4">
    <path d="M 0 172.8 
L 460.8 172.8 
" style="fill:none;stroke:#000000;stroke-linecap:square;stroke-linejoin:miter;stroke-width:0.8;"/>
   </g>
  </g>
 </g>
 <defs>
  <clipPath id="pb270f348cf">
   <rect height="345.6" width="460.8" x="0" y="0"/>
  </clipPath>
 </defs>
</svg>
