<?xml version="1.0" encoding="utf-8" standalone="no"?>
<!DOCTYPE svg PUBLIC "-//W3C//DTD SVG 1.1//EN"
  "http://www.w3.org/Graphics/SVG/1.1/DTD/svg11.dtd">
<svg xmlns:xlink="http://www.w3.org/1999/xlink" width="460.8pt" height="345.6pt" viewBox="0 0 460.8 345.6" xmlns="http://www.w3.org/2000/svg" version="1.1">
 <metadata>
  <rdf:RDF xmlns:dc="http://purl.org/dc/elements/1.1/" xmlns:cc="http://creativecommons.org/ns#" xmlns:rdf="http://www.w3.org/1999/02/22-rdf-syntax-ns#">
   <cc:Work>
    <dc:type rdf:resource="http://purl.org/dc/dcmitype/StillImage"/>
    <dc:date>2023-05-25T19:53:18.709225</dc:date>
    <dc:format>image/svg+xml</dc:format>
    <dc:creator>
     <cc:Agent>
      <dc:title>Matplotlib v3.6.2, https://matplotlib.org/</dc:title>
     </cc:Agent>
    </dc:creator>
   </cc:Work>
  </rdf:RDF>
 </metadata>
 <defs>
  <style type="text/css">*{stroke-linejoin: round; stroke-linecap: butt}</style>
 </defs>
 <g id="figure_1">
  <g id="patch_1">
   <path d="M 0 345.6 
L 460.8 345.6 
L 460.8 0 
L 0 0 
z
" style="fill: #ffffff"/>
  </g>
  <g id="axes_1">
   <g id="patch_2">
    <path d="M 65.878202 345.6 
L 394.921798 345.6 
L 394.921798 0 
L 65.878202 0 
z
" style="fill: #ffffff"/>
   </g>
   <g id="matplotlib.axis_1">
    <g id="xtick_1">
     <g id="line2d_1">
      <defs>
       <path id="mfe44cb39e8" d="M 0 0 
L 0 3.5 
" style="stroke: #000000; stroke-width: 0.8"/>
      </defs>
      <g>
       <use xlink:href="#mfe44cb39e8" x="147.317892" y="172.806885" style="stroke: #000000; stroke-width: 0.8"/>
      </g>
     </g>
     <g id="text_1">
      <!-- −0.5 -->
      <g transform="translate(135.176486 187.405322) scale(0.1 -0.1)">
       <defs>
        <path id="DejaVuSans-2212" d="M 678 2272 
L 4684 2272 
L 4684 1741 
L 678 1741 
L 678 2272 
z
" transform="scale(0.015625)"/>
        <path id="DejaVuSans-30" d="M 2034 4250 
Q 1547 4250 1301 3770 
Q 1056 3291 1056 2328 
Q 1056 1369 1301 889 
Q 1547 409 2034 409 
Q 2525 409 2770 889 
Q 3016 1369 3016 2328 
Q 3016 3291 2770 3770 
Q 2525 4250 2034 4250 
z
M 2034 4750 
Q 2819 4750 3233 4129 
Q 3647 3509 3647 2328 
Q 3647 1150 3233 529 
Q 2819 -91 2034 -91 
Q 1250 -91 836 529 
Q 422 1150 422 2328 
Q 422 3509 836 4129 
Q 1250 4750 2034 4750 
z
" transform="scale(0.015625)"/>
        <path id="DejaVuSans-2e" d="M 684 794 
L 1344 794 
L 1344 0 
L 684 0 
L 684 794 
z
" transform="scale(0.015625)"/>
        <path id="DejaVuSans-35" d="M 691 4666 
L 3169 4666 
L 3169 4134 
L 1269 4134 
L 1269 2991 
Q 1406 3038 1543 3061 
Q 1681 3084 1819 3084 
Q 2600 3084 3056 2656 
Q 3513 2228 3513 1497 
Q 3513 744 3044 326 
Q 2575 -91 1722 -91 
Q 1428 -91 1123 -41 
Q 819 9 494 109 
L 494 744 
Q 775 591 1075 516 
Q 1375 441 1709 441 
Q 2250 441 2565 725 
Q 2881 1009 2881 1497 
Q 2881 1984 2565 2268 
Q 2250 2553 1709 2553 
Q 1456 2553 1204 2497 
Q 953 2441 691 2322 
L 691 4666 
z
" transform="scale(0.015625)"/>
       </defs>
       <use xlink:href="#DejaVuSans-2212"/>
       <use xlink:href="#DejaVuSans-30" x="83.789062"/>
       <use xlink:href="#DejaVuSans-2e" x="147.412109"/>
       <use xlink:href="#DejaVuSans-35" x="179.199219"/>
      </g>
     </g>
    </g>
    <g id="xtick_2">
     <g id="line2d_2">
      <g>
       <use xlink:href="#mfe44cb39e8" x="230.399719" y="172.806885" style="stroke: #000000; stroke-width: 0.8"/>
      </g>
     </g>
    </g>
    <g id="xtick_3">
     <g id="line2d_3">
      <g>
       <use xlink:href="#mfe44cb39e8" x="313.481547" y="172.806885" style="stroke: #000000; stroke-width: 0.8"/>
      </g>
     </g>
     <g id="text_2">
      <!-- 0.5 -->
      <g transform="translate(305.529984 187.405322) scale(0.1 -0.1)">
       <use xlink:href="#DejaVuSans-30"/>
       <use xlink:href="#DejaVuSans-2e" x="63.623047"/>
       <use xlink:href="#DejaVuSans-35" x="95.410156"/>
      </g>
     </g>
    </g>
    <g id="xtick_4">
     <g id="line2d_4">
      <defs>
       <path id="m79b41d3302" d="M 0 0 
L 0 2 
" style="stroke: #000000; stroke-width: 0.6"/>
      </defs>
      <g>
       <use xlink:href="#m79b41d3302" x="80.85243" y="172.806885" style="stroke: #000000; stroke-width: 0.6"/>
      </g>
     </g>
    </g>
    <g id="xtick_5">
     <g id="line2d_5">
      <g>
       <use xlink:href="#m79b41d3302" x="97.468795" y="172.806885" style="stroke: #000000; stroke-width: 0.6"/>
      </g>
     </g>
    </g>
    <g id="xtick_6">
     <g id="line2d_6">
      <g>
       <use xlink:href="#m79b41d3302" x="114.085161" y="172.806885" style="stroke: #000000; stroke-width: 0.6"/>
      </g>
     </g>
    </g>
    <g id="xtick_7">
     <g id="line2d_7">
      <g>
       <use xlink:href="#m79b41d3302" x="130.701526" y="172.806885" style="stroke: #000000; stroke-width: 0.6"/>
      </g>
     </g>
    </g>
    <g id="xtick_8">
     <g id="line2d_8">
      <g>
       <use xlink:href="#m79b41d3302" x="163.934257" y="172.806885" style="stroke: #000000; stroke-width: 0.6"/>
      </g>
     </g>
    </g>
    <g id="xtick_9">
     <g id="line2d_9">
      <g>
       <use xlink:href="#m79b41d3302" x="180.550623" y="172.806885" style="stroke: #000000; stroke-width: 0.6"/>
      </g>
     </g>
    </g>
    <g id="xtick_10">
     <g id="line2d_10">
      <g>
       <use xlink:href="#m79b41d3302" x="197.166988" y="172.806885" style="stroke: #000000; stroke-width: 0.6"/>
      </g>
     </g>
    </g>
    <g id="xtick_11">
     <g id="line2d_11">
      <g>
       <use xlink:href="#m79b41d3302" x="213.783354" y="172.806885" style="stroke: #000000; stroke-width: 0.6"/>
      </g>
     </g>
    </g>
    <g id="xtick_12">
     <g id="line2d_12">
      <g>
       <use xlink:href="#m79b41d3302" x="247.016085" y="172.806885" style="stroke: #000000; stroke-width: 0.6"/>
      </g>
     </g>
    </g>
    <g id="xtick_13">
     <g id="line2d_13">
      <g>
       <use xlink:href="#m79b41d3302" x="263.63245" y="172.806885" style="stroke: #000000; stroke-width: 0.6"/>
      </g>
     </g>
    </g>
    <g id="xtick_14">
     <g id="line2d_14">
      <g>
       <use xlink:href="#m79b41d3302" x="280.248816" y="172.806885" style="stroke: #000000; stroke-width: 0.6"/>
      </g>
     </g>
    </g>
    <g id="xtick_15">
     <g id="line2d_15">
      <g>
       <use xlink:href="#m79b41d3302" x="296.865181" y="172.806885" style="stroke: #000000; stroke-width: 0.6"/>
      </g>
     </g>
    </g>
    <g id="xtick_16">
     <g id="line2d_16">
      <g>
       <use xlink:href="#m79b41d3302" x="330.097912" y="172.806885" style="stroke: #000000; stroke-width: 0.6"/>
      </g>
     </g>
    </g>
    <g id="xtick_17">
     <g id="line2d_17">
      <g>
       <use xlink:href="#m79b41d3302" x="346.714278" y="172.806885" style="stroke: #000000; stroke-width: 0.6"/>
      </g>
     </g>
    </g>
    <g id="xtick_18">
     <g id="line2d_18">
      <g>
       <use xlink:href="#m79b41d3302" x="363.330643" y="172.806885" style="stroke: #000000; stroke-width: 0.6"/>
      </g>
     </g>
    </g>
    <g id="xtick_19">
     <g id="line2d_19">
      <g>
       <use xlink:href="#m79b41d3302" x="379.947009" y="172.806885" style="stroke: #000000; stroke-width: 0.6"/>
      </g>
     </g>
    </g>
   </g>
   <g id="matplotlib.axis_2">
    <g id="ytick_1">
     <g id="line2d_20">
      <defs>
       <path id="m9236ec23e4" d="M 0 0 
L -3.5 0 
" style="stroke: #000000; stroke-width: 0.8"/>
      </defs>
      <g>
       <use xlink:href="#m9236ec23e4" x="230.399719" y="338.97054" style="stroke: #000000; stroke-width: 0.8"/>
      </g>
     </g>
     <g id="text_3">
      <!-- −1.0 -->
      <g transform="translate(199.116907 342.769758) scale(0.1 -0.1)">
       <defs>
        <path id="DejaVuSans-31" d="M 794 531 
L 1825 531 
L 1825 4091 
L 703 3866 
L 703 4441 
L 1819 4666 
L 2450 4666 
L 2450 531 
L 3481 531 
L 3481 0 
L 794 0 
L 794 531 
z
" transform="scale(0.015625)"/>
       </defs>
       <use xlink:href="#DejaVuSans-2212"/>
       <use xlink:href="#DejaVuSans-31" x="83.789062"/>
       <use xlink:href="#DejaVuSans-2e" x="147.412109"/>
       <use xlink:href="#DejaVuSans-30" x="179.199219"/>
      </g>
     </g>
    </g>
    <g id="ytick_2">
     <g id="line2d_21">
      <g>
       <use xlink:href="#m9236ec23e4" x="230.399719" y="255.888712" style="stroke: #000000; stroke-width: 0.8"/>
      </g>
     </g>
     <g id="text_4">
      <!-- −0.5 -->
      <g transform="translate(199.116907 259.687931) scale(0.1 -0.1)">
       <use xlink:href="#DejaVuSans-2212"/>
       <use xlink:href="#DejaVuSans-30" x="83.789062"/>
       <use xlink:href="#DejaVuSans-2e" x="147.412109"/>
       <use xlink:href="#DejaVuSans-35" x="179.199219"/>
      </g>
     </g>
    </g>
    <g id="ytick_3">
     <g id="line2d_22">
      <g>
       <use xlink:href="#m9236ec23e4" x="230.399719" y="172.806885" style="stroke: #000000; stroke-width: 0.8"/>
      </g>
     </g>
    </g>
    <g id="ytick_4">
     <g id="line2d_23">
      <g>
       <use xlink:href="#m9236ec23e4" x="230.399719" y="89.725057" style="stroke: #000000; stroke-width: 0.8"/>
      </g>
     </g>
     <g id="text_5">
      <!-- 0.5 -->
      <g transform="translate(207.496594 93.524276) scale(0.1 -0.1)">
       <use xlink:href="#DejaVuSans-30"/>
       <use xlink:href="#DejaVuSans-2e" x="63.623047"/>
       <use xlink:href="#DejaVuSans-35" x="95.410156"/>
      </g>
     </g>
    </g>
    <g id="ytick_5">
     <g id="line2d_24">
      <g>
       <use xlink:href="#m9236ec23e4" x="230.399719" y="6.64323" style="stroke: #000000; stroke-width: 0.8"/>
      </g>
     </g>
     <g id="text_6">
      <!-- 1.0 -->
      <g transform="translate(207.496594 10.442449) scale(0.1 -0.1)">
       <use xlink:href="#DejaVuSans-31"/>
       <use xlink:href="#DejaVuSans-2e" x="63.623047"/>
       <use xlink:href="#DejaVuSans-30" x="95.410156"/>
      </g>
     </g>
    </g>
    <g id="ytick_6">
     <g id="line2d_25">
      <defs>
       <path id="m75fb53b247" d="M 0 0 
L -2 0 
" style="stroke: #000000; stroke-width: 0.6"/>
      </defs>
      <g>
       <use xlink:href="#m75fb53b247" x="230.399719" y="322.354174" style="stroke: #000000; stroke-width: 0.6"/>
      </g>
     </g>
    </g>
    <g id="ytick_7">
     <g id="line2d_26">
      <g>
       <use xlink:href="#m75fb53b247" x="230.399719" y="305.737809" style="stroke: #000000; stroke-width: 0.6"/>
      </g>
     </g>
    </g>
    <g id="ytick_8">
     <g id="line2d_27">
      <g>
       <use xlink:href="#m75fb53b247" x="230.399719" y="289.121443" style="stroke: #000000; stroke-width: 0.6"/>
      </g>
     </g>
    </g>
    <g id="ytick_9">
     <g id="line2d_28">
      <g>
       <use xlink:href="#m75fb53b247" x="230.399719" y="272.505078" style="stroke: #000000; stroke-width: 0.6"/>
      </g>
     </g>
    </g>
    <g id="ytick_10">
     <g id="line2d_29">
      <g>
       <use xlink:href="#m75fb53b247" x="230.399719" y="239.272347" style="stroke: #000000; stroke-width: 0.6"/>
      </g>
     </g>
    </g>
    <g id="ytick_11">
     <g id="line2d_30">
      <g>
       <use xlink:href="#m75fb53b247" x="230.399719" y="222.655981" style="stroke: #000000; stroke-width: 0.6"/>
      </g>
     </g>
    </g>
    <g id="ytick_12">
     <g id="line2d_31">
      <g>
       <use xlink:href="#m75fb53b247" x="230.399719" y="206.039616" style="stroke: #000000; stroke-width: 0.6"/>
      </g>
     </g>
    </g>
    <g id="ytick_13">
     <g id="line2d_32">
      <g>
       <use xlink:href="#m75fb53b247" x="230.399719" y="189.42325" style="stroke: #000000; stroke-width: 0.6"/>
      </g>
     </g>
    </g>
    <g id="ytick_14">
     <g id="line2d_33">
      <g>
       <use xlink:href="#m75fb53b247" x="230.399719" y="156.190519" style="stroke: #000000; stroke-width: 0.6"/>
      </g>
     </g>
    </g>
    <g id="ytick_15">
     <g id="line2d_34">
      <g>
       <use xlink:href="#m75fb53b247" x="230.399719" y="139.574154" style="stroke: #000000; stroke-width: 0.6"/>
      </g>
     </g>
    </g>
    <g id="ytick_16">
     <g id="line2d_35">
      <g>
       <use xlink:href="#m75fb53b247" x="230.399719" y="122.957788" style="stroke: #000000; stroke-width: 0.6"/>
      </g>
     </g>
    </g>
    <g id="ytick_17">
     <g id="line2d_36">
      <g>
       <use xlink:href="#m75fb53b247" x="230.399719" y="106.341423" style="stroke: #000000; stroke-width: 0.6"/>
      </g>
     </g>
    </g>
    <g id="ytick_18">
     <g id="line2d_37">
      <g>
       <use xlink:href="#m75fb53b247" x="230.399719" y="73.108692" style="stroke: #000000; stroke-width: 0.6"/>
      </g>
     </g>
    </g>
    <g id="ytick_19">
     <g id="line2d_38">
      <g>
       <use xlink:href="#m75fb53b247" x="230.399719" y="56.492326" style="stroke: #000000; stroke-width: 0.6"/>
      </g>
     </g>
    </g>
    <g id="ytick_20">
     <g id="line2d_39">
      <g>
       <use xlink:href="#m75fb53b247" x="230.399719" y="39.875961" style="stroke: #000000; stroke-width: 0.6"/>
      </g>
     </g>
    </g>
    <g id="ytick_21">
     <g id="line2d_40">
      <g>
       <use xlink:href="#m75fb53b247" x="230.399719" y="23.259596" style="stroke: #000000; stroke-width: 0.6"/>
      </g>
     </g>
    </g>
   </g>
   <g id="line2d_41">
    <path d="M 230.399719 172.806885 
L 234.679143 172.668851 
L 241.808619 172.200918 
L 250.28727 171.397604 
L 258.406689 170.426936 
L 267.576125 169.121763 
L 274.755742 167.955101 
L 282.307635 166.595428 
L 292.113314 164.629432 
L 302.205005 162.366889 
L 322.568395 157.017174 
L 332.610396 153.948672 
L 339.745995 151.567756 
L 346.600486 149.101126 
L 353.111227 146.569446 
L 362.83235 142.363146 
L 369.462739 139.101765 
L 375.220387 135.886754 
L 380.023986 132.770899 
L 383.492359 130.081166 
L 385.781136 127.892329 
L 387.400605 125.849593 
L 387.95518 124.890379 
L 388.338187 123.976386 
L 388.549008 123.110347 
L 388.587411 122.2949 
L 388.36531 121.276789 
L 387.829503 120.361808 
L 386.982745 119.555467 
L 385.829048 118.862818 
L 384.234553 118.244668 
L 382.292563 117.771122 
L 380.013033 117.446542 
L 377.407488 117.274475 
L 374.488965 117.25761 
L 371.271936 117.397752 
L 367.772236 117.69579 
L 364.006975 118.151679 
L 359.305849 118.881185 
L 354.29946 119.820664 
L 349.020455 120.965095 
L 338.847665 123.544458 
L 329.211233 126.374199 
L 324.270976 127.953891 
L 312.462909 132.052953 
L 300.628655 136.589473 
L 293.082486 139.696716 
L 285.708535 142.892459 
L 277.835497 146.479855 
L 266.767161 151.83958 
L 256.82582 156.991221 
L 248.031995 161.848777 
L 240.878211 166.0487 
L 233.98394 170.376359 
L 230.419401 172.792658 
L 232.127365 171.490149 
L 236.036898 168.338628 
L 241.841136 163.383504 
L 248.186858 157.666692 
L 253.570568 152.596855 
L 259.401404 146.888203 
L 265.57105 140.60254 
L 274.059729 131.529832 
L 279.978169 124.895453 
L 285.876258 118.008243 
L 297.285081 103.780226 
L 301.969824 97.520856 
L 309.269214 87.133222 
L 314.536076 78.998364 
L 318.974122 71.53166 
L 322.588138 64.806052 
L 325.598315 58.425855 
L 326.848552 55.394465 
L 327.883911 52.563997 
L 328.7011 49.947449 
L 329.297873 47.556989 
L 329.67303 45.40389 
L 329.826411 43.498472 
L 329.620026 41.018724 
L 329.125443 39.626868 
L 328.346369 38.604042 
L 327.852289 38.233519 
L 327.28986 37.957993 
L 326.660213 37.778094 
L 325.864845 37.690363 
L 324.986243 37.727203 
L 322.987847 38.175435 
L 320.683442 39.122099 
L 318.093539 40.562693 
L 314.852174 42.773929 
L 311.994721 45.015262 
L 308.958277 47.641738 
L 305.763492 50.638277 
L 302.431688 53.987297 
L 298.984694 57.668811 
L 295.444681 61.660539 
L 291.833998 65.938034 
L 288.175001 70.474831 
L 283.798411 76.159069 
L 279.421573 82.118365 
L 271.92909 92.954999 
L 260.137083 111.703616 
L 252.230661 125.572691 
L 247.800361 133.883261 
L 244.067097 141.242584 
L 239.828659 150.07366 
L 235.677489 159.360111 
L 232.561578 166.942682 
L 230.400511 172.804454 
L 230.876033 171.235094 
L 232.494822 165.247135 
L 234.451528 156.96076 
L 236.42796 147.355189 
L 237.779119 139.918095 
L 239.098199 131.769451 
L 240.621786 120.820317 
L 241.439444 113.930374 
L 242.168053 106.846032 
L 242.793535 99.622219 
L 243.534814 88.207692 
L 244.036735 71.835033 
L 244.017129 63.864558 
L 243.811215 56.144869 
L 243.158431 45.265934 
L 242.400336 37.700746 
L 241.300079 30.034427 
L 240.1169 24.008533 
L 238.941647 19.406882 
L 237.649237 15.461562 
L 236.257057 12.210138 
L 235.529422 10.854586 
L 234.685978 9.545055 
L 233.823598 8.475171 
L 232.946081 7.648194 
L 232.057299 7.066643 
L 231.161181 6.73229 
L 230.261692 6.646154 
L 229.362814 6.808498 
L 228.468526 7.218827 
L 227.577566 7.880518 
L 226.699237 8.789838 
L 225.837459 9.943982 
L 224.996069 11.339393 
L 224.098479 13.147994 
L 223.23488 15.236608 
L 222.409866 17.597451 
L 221.627793 20.22173 
L 220.208559 26.220572 
L 219.006311 33.143963 
L 218.027534 41.057915 
L 217.260848 50.639036 
L 216.83765 60.934287 
L 216.756563 66.289928 
L 216.852528 77.292286 
L 217.611951 94.146641 
L 218.610225 106.622278 
L 219.913527 118.691671 
L 221.624864 131.264915 
L 223.500007 142.651608 
L 225.277776 151.928595 
L 226.947317 159.620196 
L 228.934249 167.674217 
L 230.395332 172.793466 
L 229.813872 171.123515 
L 227.794679 165.819366 
L 225.420718 160.059732 
L 221.249406 150.674911 
L 218.097405 144.026442 
L 213.219208 134.307616 
L 207.602704 123.815173 
L 202.087476 114.120481 
L 196.141707 104.25985 
L 183.341959 84.88128 
L 178.697386 78.436337 
L 174.037364 72.279593 
L 169.474449 66.557164 
L 162.774724 58.730818 
L 158.467433 54.090764 
L 156.377621 51.960809 
L 153.196378 48.885525 
L 150.157715 46.156842 
L 147.281208 43.78988 
L 144.585741 41.797438 
L 142.402837 40.377325 
L 140.381787 39.253731 
L 138.53324 38.430605 
L 136.867151 37.91048 
L 135.110724 37.687753 
L 134.342049 37.742697 
L 133.648651 37.908073 
L 133.032069 38.183321 
L 132.493715 38.567699 
L 132.034876 39.060282 
L 131.656707 39.659971 
L 131.311774 40.516033 
L 131.085163 41.520954 
L 130.978068 42.671887 
L 130.991393 43.965649 
L 131.381404 46.967319 
L 132.256347 50.494215 
L 133.513535 54.244933 
L 135.186404 58.391898 
L 138.031799 64.450352 
L 141.554583 71.051838 
L 145.707019 78.098113 
L 150.430334 85.486139 
L 154.567446 91.562078 
L 158.985358 97.733545 
L 163.641017 103.945698 
L 168.488277 110.144226 
L 176.94643 120.403465 
L 185.562251 130.23089 
L 195.199714 140.572731 
L 201.697324 147.186688 
L 210.051638 155.279436 
L 217.065086 161.70856 
L 224.117539 167.80263 
L 229.427328 172.074615 
L 230.396694 172.804683 
L 229.240026 171.996633 
L 223.927154 168.522207 
L 216.937971 164.266695 
L 209.522781 160.020665 
L 200.714247 155.26485 
L 190.257577 149.96898 
L 186.219179 148.017038 
L 177.783574 144.098851 
L 168.962747 140.225557 
L 159.874761 136.470955 
L 149.980536 132.658135 
L 140.078309 129.13942 
L 132.694512 126.720676 
L 125.465052 124.535754 
L 119.187386 122.799116 
L 113.134163 121.281712 
L 107.351172 119.99513 
L 98.246742 118.359818 
L 91.559055 117.554465 
L 85.734192 117.248793 
L 83.174141 117.282468 
L 80.862714 117.438865 
L 77.800404 117.917373 
L 76.092395 118.400091 
L 74.687386 119.006861 
L 73.591763 119.733397 
L 72.81065 120.574876 
L 72.347876 121.525967 
L 72.205964 122.580872 
L 72.386104 123.733364 
L 72.888152 124.97683 
L 73.632251 126.193998 
L 74.644901 127.476518 
L 76.067157 128.957648 
L 77.805887 130.503015 
L 79.854256 132.104464 
L 82.204087 133.753715 
L 84.845893 135.442409 
L 87.768915 137.162164 
L 94.409474 140.661481 
L 100.382098 143.463688 
L 106.902388 146.249859 
L 113.901366 148.989653 
L 125.920522 153.21095 
L 138.095086 156.977663 
L 150.611187 160.399356 
L 160.768008 162.875057 
L 175.665958 166.0521 
L 185.132112 167.798135 
L 195.327112 169.439887 
L 205.686172 170.8426 
L 214.275774 171.782904 
L 223.739946 172.538158 
L 230.201387 172.805514 
L 230.391008 172.806872 
L 227.893642 172.868616 
L 221.866237 173.197523 
L 215.091611 173.753188 
L 207.129678 174.598274 
L 198.714258 175.68484 
L 190.313268 176.949898 
L 180.978422 178.555777 
L 175.95261 179.505699 
L 165.589257 181.652559 
L 136.635169 189.063764 
L 126.175967 192.318879 
L 116.192337 195.775688 
L 110.753244 197.827592 
L 105.565057 199.915338 
L 100.659327 202.026314 
L 93.644338 205.332239 
L 89.138228 207.688799 
L 85.108879 210.010884 
L 81.586232 212.278195 
L 78.736902 214.359551 
L 76.500096 216.250004 
L 74.721415 218.050105 
L 73.410854 219.745794 
L 72.571702 221.333087 
L 72.217248 222.796364 
L 72.224812 223.473587 
L 72.355428 224.112499 
L 72.608746 224.711649 
L 72.984222 225.269648 
L 73.48112 225.785172 
L 74.5455 226.529344 
L 75.923158 227.153033 
L 77.607749 227.651823 
L 79.59167 228.021879 
L 81.866089 228.259979 
L 84.420998 228.363542 
L 87.245254 228.33065 
L 90.326635 228.160074 
L 96.757662 227.466865 
L 103.95075 226.290673 
L 110.826359 224.865862 
L 119.147402 222.825202 
L 127.900341 220.363231 
L 136.958995 217.518304 
L 146.19407 214.337102 
L 160.834261 208.757733 
L 168.038191 205.781117 
L 175.082056 202.72524 
L 188.257136 196.61798 
L 197.408242 192.062262 
L 205.668119 187.709866 
L 212.895638 183.691848 
L 220.687017 179.099828 
L 227.073354 175.068317 
L 230.398606 172.807695 
L 229.29403 173.641528 
L 224.700171 177.326795 
L 219.170939 182.043844 
L 213.448441 187.177644 
L 206.872354 193.359506 
L 200.259864 199.866087 
L 193.24506 207.086207 
L 187.062089 213.730064 
L 180.802686 220.739572 
L 167.707688 236.450785 
L 161.424867 244.591038 
L 152.720656 256.724667 
L 147.539738 264.582559 
L 142.777044 272.420399 
L 138.597497 280.050673 
L 135.374896 286.789642 
L 134.122919 289.781866 
L 133.076123 292.583627 
L 132.237752 295.182629 
L 131.607738 297.577563 
L 131.191667 299.745382 
L 130.989904 301.676085 
L 131.001854 303.360602 
L 131.225971 304.790844 
L 131.659784 305.959741 
L 132.299914 306.861288 
L 133.142105 307.490575 
L 134.135908 307.835015 
L 135.305987 307.922733 
L 136.64646 307.75238 
L 138.150819 307.323613 
L 140.372815 306.364548 
L 142.849621 304.961765 
L 146.594048 302.354211 
L 150.722142 298.966783 
L 155.177877 294.837308 
L 159.90237 290.013483 
L 164.806287 284.585079 
L 169.85494 278.591243 
L 174.987362 272.104408 
L 180.143315 265.203948 
L 187.052541 255.362194 
L 193.75972 245.145484 
L 201.017889 233.310445 
L 205.244314 226.012833 
L 209.204764 218.873798 
L 214.582732 208.651683 
L 219.489285 198.691545 
L 223.544079 189.87253 
L 226.637214 182.651002 
L 229.648712 174.946432 
L 230.398761 172.809827 
L 229.838419 174.671032 
L 228.286103 180.439773 
L 226.40829 188.38011 
L 224.463197 197.781697 
L 222.62593 208.028753 
L 220.874358 219.536793 
L 219.811713 227.765632 
L 219.021579 234.837433 
L 218.329471 242.083588 
L 217.292671 256.866733 
L 216.770716 272.985553 
L 216.777439 281.395371 
L 217.201917 293.956398 
L 217.818923 302.398011 
L 218.68734 310.195136 
L 219.792271 317.237122 
L 220.427208 320.443197 
L 221.847494 326.171206 
L 223.193615 330.268011 
L 224.065413 332.392374 
L 224.972157 334.230619 
L 225.908888 335.775736 
L 226.870459 337.021831 
L 227.851571 337.96415 
L 228.846799 338.599098 
L 229.850636 338.924251 
L 230.729508 338.953846 
L 231.606987 338.746374 
L 232.479366 338.302437 
L 233.342965 337.623327 
L 234.194141 336.711018 
L 235.029315 335.568163 
L 235.84498 334.198083 
L 236.637722 332.60476 
L 237.622791 330.22287 
L 238.557262 327.487557 
L 239.434724 324.412075 
L 240.731059 318.691272 
L 241.700707 313.087149 
L 242.589387 306.272243 
L 243.274574 298.876272 
L 243.537833 294.987377 
L 243.901977 286.884953 
L 244.047258 275.315796 
L 243.796329 263.344198 
L 242.519172 242.651607 
L 240.920227 227.204911 
L 239.573245 217.050221 
L 238.037341 207.214048 
L 236.443757 198.34105 
L 234.874755 190.598276 
L 232.829955 181.70598 
L 231.098737 175.150753 
L 230.412829 172.8468 
L 230.804603 173.983234 
L 233.07643 179.974388 
L 235.228267 185.199832 
L 238.036254 191.620784 
L 241.506812 199.104373 
L 246.611255 209.424446 
L 250.512952 216.869182 
L 252.602701 220.720115 
L 257.037492 228.60853 
L 261.281415 235.825997 
L 265.737061 243.082852 
L 273.551594 255.074042 
L 277.577983 260.903587 
L 281.647865 266.56074 
L 290.154723 277.618366 
L 296.391678 285.041156 
L 299.754766 288.785548 
L 303.02843 292.242011 
L 307.902056 297.006219 
L 311.187681 299.92335 
L 314.276764 302.408456 
L 317.145149 304.445708 
L 320.271863 306.286118 
L 321.921125 307.046938 
L 323.43028 307.572962 
L 324.792903 307.863181 
L 326.003045 307.917436 
L 327.055262 307.736412 
L 327.944647 307.321635 
L 328.666851 306.675452 
L 329.195811 305.847728 
L 329.566954 304.816349 
L 329.778051 303.585354 
L 329.827404 302.1594 
L 329.718856 300.587963 
L 329.455162 298.841913 
L 329.036254 296.927134 
L 327.735054 292.617294 
L 325.824895 287.714626 
L 323.139057 281.907615 
L 320.27239 276.414552 
L 316.946297 270.584591 
L 313.193909 264.478941 
L 309.053775 258.160766 
L 302.621759 248.986894 
L 295.641072 239.700087 
L 282.942182 224.143355 
L 276.426411 216.705201 
L 269.946896 209.625219 
L 264.800966 204.212754 
L 255.041775 194.436094 
L 247.994008 187.769124 
L 241.174377 181.646882 
L 234.923726 176.35985 
L 230.406154 172.811546 
L 231.899579 173.849174 
L 237.063847 177.21223 
L 243.662107 181.229424 
L 249.222436 184.440848 
L 257.637064 189.055778 
L 267.296899 194.039447 
L 277.190953 198.832084 
L 287.783146 203.636365 
L 302.583027 209.802031 
L 316.919103 215.159515 
L 325.331679 218.006037 
L 333.579373 220.565121 
L 345.427197 223.790163 
L 353.890534 225.709795 
L 358.378468 226.570347 
L 362.629631 227.265375 
L 369.874336 228.113268 
L 372.901266 228.305114 
L 375.690627 228.368175 
L 378.231163 228.303413 
L 380.512547 228.112394 
L 382.525425 227.797271 
L 384.261464 227.360761 
L 385.713383 226.806124 
L 386.736428 226.233234 
L 387.538366 225.577323 
L 388.124308 224.828335 
L 388.476681 224.000053 
L 388.594036 223.096154 
L 388.475641 222.120541 
L 388.121477 221.077328 
L 387.532244 219.970817 
L 386.709362 218.80548 
L 385.654966 217.585936 
L 383.951407 215.934893 
L 381.872835 214.211565 
L 379.429111 212.426719 
L 374.829704 209.493992 
L 372.913197 208.385268 
L 368.750725 206.14231 
L 364.17295 203.87993 
L 359.21126 201.615297 
L 354.235451 199.502535 
L 348.98186 197.415664 
L 343.482615 195.367257 
L 337.771447 193.369146 
L 329.991374 190.834522 
L 321.988254 188.428605 
L 305.657237 184.078 
L 292.322656 181.028788 
L 284.628225 179.463145 
L 277.184854 178.081312 
L 263.353207 175.864544 
L 253.156994 174.538252 
L 244.5802 173.64941 
L 236.872877 173.064339 
L 230.399719 172.806885 
L 230.399719 172.806885 
" clip-path="url(#p7193e673ba)" style="fill: none; stroke: #0000ff; stroke-linecap: square"/>
   </g>
   <g id="patch_3">
    <path d="M 230.399719 345.6 
L 230.399719 0 
" style="fill: none; stroke: #000000; stroke-width: 0.8; stroke-linejoin: miter; stroke-linecap: square"/>
   </g>
   <g id="patch_4">
    <path d="M 65.878202 172.806885 
L 394.921798 172.806885 
" style="fill: none; stroke: #000000; stroke-width: 0.8; stroke-linejoin: miter; stroke-linecap: square"/>
   </g>
  </g>
 </g>
 <defs>
  <clipPath id="p7193e673ba">
   <rect x="65.878202" y="0" width="329.043596" height="345.6"/>
  </clipPath>
 </defs>
</svg>
