<?xml version="1.0" encoding="utf-8" standalone="no"?>
<!DOCTYPE svg PUBLIC "-//W3C//DTD SVG 1.1//EN"
  "http://www.w3.org/Graphics/SVG/1.1/DTD/svg11.dtd">
<!-- Created with matplotlib (https://matplotlib.org/) -->
<svg height="345.6pt" version="1.1" viewBox="0 0 460.8 345.6" width="460.8pt" xmlns="http://www.w3.org/2000/svg" xmlns:xlink="http://www.w3.org/1999/xlink">
 <metadata>
  <rdf:RDF xmlns:cc="http://creativecommons.org/ns#" xmlns:dc="http://purl.org/dc/elements/1.1/" xmlns:rdf="http://www.w3.org/1999/02/22-rdf-syntax-ns#">
   <cc:Work>
    <dc:type rdf:resource="http://purl.org/dc/dcmitype/StillImage"/>
    <dc:date>2021-05-10T20:21:26.296694</dc:date>
    <dc:format>image/svg+xml</dc:format>
    <dc:creator>
     <cc:Agent>
      <dc:title>Matplotlib v3.3.4, https://matplotlib.org/</dc:title>
     </cc:Agent>
    </dc:creator>
   </cc:Work>
  </rdf:RDF>
 </metadata>
 <defs>
  <style type="text/css">*{stroke-linecap:butt;stroke-linejoin:round;}</style>
 </defs>
 <g id="figure_1">
  <g id="patch_1">
   <path d="M 0 345.6 
L 460.8 345.6 
L 460.8 0 
L 0 0 
z
" style="fill:#ffffff;"/>
  </g>
  <g id="axes_1">
   <g id="patch_2">
    <path d="M 1.359824 345.6 
L 460.8 345.6 
L 460.8 0 
L 1.359824 0 
z
" style="fill:#ffffff;"/>
   </g>
   <g id="matplotlib.axis_1">
    <g id="xtick_1">
     <g id="line2d_1">
      <defs>
       <path d="M 0 0 
L 0 3.5 
" id="m13be076bf3" style="stroke:#000000;stroke-width:0.8;"/>
      </defs>
      <g>
       <use style="stroke:#000000;stroke-width:0.8;" x="7.692869" xlink:href="#m13be076bf3" y="172.8"/>
      </g>
     </g>
     <g id="text_1">
      <!-- −3 -->
      <g transform="translate(0.321775 187.398437)scale(0.1 -0.1)">
       <defs>
        <path d="M 10.59375 35.5 
L 73.1875 35.5 
L 73.1875 27.203125 
L 10.59375 27.203125 
z
" id="DejaVuSans-8722"/>
        <path d="M 40.578125 39.3125 
Q 47.65625 37.796875 51.625 33 
Q 55.609375 28.21875 55.609375 21.1875 
Q 55.609375 10.40625 48.1875 4.484375 
Q 40.765625 -1.421875 27.09375 -1.421875 
Q 22.515625 -1.421875 17.65625 -0.515625 
Q 12.796875 0.390625 7.625 2.203125 
L 7.625 11.71875 
Q 11.71875 9.328125 16.59375 8.109375 
Q 21.484375 6.890625 26.8125 6.890625 
Q 36.078125 6.890625 40.9375 10.546875 
Q 45.796875 14.203125 45.796875 21.1875 
Q 45.796875 27.640625 41.28125 31.265625 
Q 36.765625 34.90625 28.71875 34.90625 
L 20.21875 34.90625 
L 20.21875 43.015625 
L 29.109375 43.015625 
Q 36.375 43.015625 40.234375 45.921875 
Q 44.09375 48.828125 44.09375 54.296875 
Q 44.09375 59.90625 40.109375 62.90625 
Q 36.140625 65.921875 28.71875 65.921875 
Q 24.65625 65.921875 20.015625 65.03125 
Q 15.375 64.15625 9.8125 62.3125 
L 9.8125 71.09375 
Q 15.4375 72.65625 20.34375 73.4375 
Q 25.25 74.21875 29.59375 74.21875 
Q 40.828125 74.21875 47.359375 69.109375 
Q 53.90625 64.015625 53.90625 55.328125 
Q 53.90625 49.265625 50.4375 45.09375 
Q 46.96875 40.921875 40.578125 39.3125 
z
" id="DejaVuSans-51"/>
       </defs>
       <use xlink:href="#DejaVuSans-8722"/>
       <use x="83.789062" xlink:href="#DejaVuSans-51"/>
      </g>
     </g>
    </g>
    <g id="xtick_2">
     <g id="line2d_2">
      <g>
       <use style="stroke:#000000;stroke-width:0.8;" x="71.160261" xlink:href="#m13be076bf3" y="172.8"/>
      </g>
     </g>
     <g id="text_2">
      <!-- −2 -->
      <g transform="translate(63.789167 187.398437)scale(0.1 -0.1)">
       <defs>
        <path d="M 19.1875 8.296875 
L 53.609375 8.296875 
L 53.609375 0 
L 7.328125 0 
L 7.328125 8.296875 
Q 12.9375 14.109375 22.625 23.890625 
Q 32.328125 33.6875 34.8125 36.53125 
Q 39.546875 41.84375 41.421875 45.53125 
Q 43.3125 49.21875 43.3125 52.78125 
Q 43.3125 58.59375 39.234375 62.25 
Q 35.15625 65.921875 28.609375 65.921875 
Q 23.96875 65.921875 18.8125 64.3125 
Q 13.671875 62.703125 7.8125 59.421875 
L 7.8125 69.390625 
Q 13.765625 71.78125 18.9375 73 
Q 24.125 74.21875 28.421875 74.21875 
Q 39.75 74.21875 46.484375 68.546875 
Q 53.21875 62.890625 53.21875 53.421875 
Q 53.21875 48.921875 51.53125 44.890625 
Q 49.859375 40.875 45.40625 35.40625 
Q 44.1875 33.984375 37.640625 27.21875 
Q 31.109375 20.453125 19.1875 8.296875 
z
" id="DejaVuSans-50"/>
       </defs>
       <use xlink:href="#DejaVuSans-8722"/>
       <use x="83.789062" xlink:href="#DejaVuSans-50"/>
      </g>
     </g>
    </g>
    <g id="xtick_3">
     <g id="line2d_3">
      <g>
       <use style="stroke:#000000;stroke-width:0.8;" x="134.627653" xlink:href="#m13be076bf3" y="172.8"/>
      </g>
     </g>
     <g id="text_3">
      <!-- −1 -->
      <g transform="translate(127.256559 187.398437)scale(0.1 -0.1)">
       <defs>
        <path d="M 12.40625 8.296875 
L 28.515625 8.296875 
L 28.515625 63.921875 
L 10.984375 60.40625 
L 10.984375 69.390625 
L 28.421875 72.90625 
L 38.28125 72.90625 
L 38.28125 8.296875 
L 54.390625 8.296875 
L 54.390625 0 
L 12.40625 0 
z
" id="DejaVuSans-49"/>
       </defs>
       <use xlink:href="#DejaVuSans-8722"/>
       <use x="83.789062" xlink:href="#DejaVuSans-49"/>
      </g>
     </g>
    </g>
    <g id="xtick_4">
     <g id="line2d_4">
      <g>
       <use style="stroke:#000000;stroke-width:0.8;" x="198.095045" xlink:href="#m13be076bf3" y="172.8"/>
      </g>
     </g>
    </g>
    <g id="xtick_5">
     <g id="line2d_5">
      <g>
       <use style="stroke:#000000;stroke-width:0.8;" x="261.562436" xlink:href="#m13be076bf3" y="172.8"/>
      </g>
     </g>
     <g id="text_4">
      <!-- 1 -->
      <g transform="translate(258.381186 187.398437)scale(0.1 -0.1)">
       <use xlink:href="#DejaVuSans-49"/>
      </g>
     </g>
    </g>
    <g id="xtick_6">
     <g id="line2d_6">
      <g>
       <use style="stroke:#000000;stroke-width:0.8;" x="325.029828" xlink:href="#m13be076bf3" y="172.8"/>
      </g>
     </g>
     <g id="text_5">
      <!-- 2 -->
      <g transform="translate(321.848578 187.398437)scale(0.1 -0.1)">
       <use xlink:href="#DejaVuSans-50"/>
      </g>
     </g>
    </g>
    <g id="xtick_7">
     <g id="line2d_7">
      <g>
       <use style="stroke:#000000;stroke-width:0.8;" x="388.49722" xlink:href="#m13be076bf3" y="172.8"/>
      </g>
     </g>
     <g id="text_6">
      <!-- 3 -->
      <g transform="translate(385.31597 187.398437)scale(0.1 -0.1)">
       <use xlink:href="#DejaVuSans-51"/>
      </g>
     </g>
    </g>
    <g id="xtick_8">
     <g id="line2d_8">
      <g>
       <use style="stroke:#000000;stroke-width:0.8;" x="451.964612" xlink:href="#m13be076bf3" y="172.8"/>
      </g>
     </g>
     <g id="text_7">
      <!-- 4 -->
      <g transform="translate(448.783362 187.398437)scale(0.1 -0.1)">
       <defs>
        <path d="M 37.796875 64.3125 
L 12.890625 25.390625 
L 37.796875 25.390625 
z
M 35.203125 72.90625 
L 47.609375 72.90625 
L 47.609375 25.390625 
L 58.015625 25.390625 
L 58.015625 17.1875 
L 47.609375 17.1875 
L 47.609375 0 
L 37.796875 0 
L 37.796875 17.1875 
L 4.890625 17.1875 
L 4.890625 26.703125 
z
" id="DejaVuSans-52"/>
       </defs>
       <use xlink:href="#DejaVuSans-52"/>
      </g>
     </g>
    </g>
    <g id="xtick_9">
     <g id="line2d_9">
      <defs>
       <path d="M 0 0 
L 0 2 
" id="ma1d166bc90" style="stroke:#000000;stroke-width:0.6;"/>
      </defs>
      <g>
       <use style="stroke:#000000;stroke-width:0.6;" x="20.386347" xlink:href="#ma1d166bc90" y="172.8"/>
      </g>
     </g>
    </g>
    <g id="xtick_10">
     <g id="line2d_10">
      <g>
       <use style="stroke:#000000;stroke-width:0.6;" x="33.079826" xlink:href="#ma1d166bc90" y="172.8"/>
      </g>
     </g>
    </g>
    <g id="xtick_11">
     <g id="line2d_11">
      <g>
       <use style="stroke:#000000;stroke-width:0.6;" x="45.773304" xlink:href="#ma1d166bc90" y="172.8"/>
      </g>
     </g>
    </g>
    <g id="xtick_12">
     <g id="line2d_12">
      <g>
       <use style="stroke:#000000;stroke-width:0.6;" x="58.466782" xlink:href="#ma1d166bc90" y="172.8"/>
      </g>
     </g>
    </g>
    <g id="xtick_13">
     <g id="line2d_13">
      <g>
       <use style="stroke:#000000;stroke-width:0.6;" x="83.853739" xlink:href="#ma1d166bc90" y="172.8"/>
      </g>
     </g>
    </g>
    <g id="xtick_14">
     <g id="line2d_14">
      <g>
       <use style="stroke:#000000;stroke-width:0.6;" x="96.547218" xlink:href="#ma1d166bc90" y="172.8"/>
      </g>
     </g>
    </g>
    <g id="xtick_15">
     <g id="line2d_15">
      <g>
       <use style="stroke:#000000;stroke-width:0.6;" x="109.240696" xlink:href="#ma1d166bc90" y="172.8"/>
      </g>
     </g>
    </g>
    <g id="xtick_16">
     <g id="line2d_16">
      <g>
       <use style="stroke:#000000;stroke-width:0.6;" x="121.934174" xlink:href="#ma1d166bc90" y="172.8"/>
      </g>
     </g>
    </g>
    <g id="xtick_17">
     <g id="line2d_17">
      <g>
       <use style="stroke:#000000;stroke-width:0.6;" x="147.321131" xlink:href="#ma1d166bc90" y="172.8"/>
      </g>
     </g>
    </g>
    <g id="xtick_18">
     <g id="line2d_18">
      <g>
       <use style="stroke:#000000;stroke-width:0.6;" x="160.014609" xlink:href="#ma1d166bc90" y="172.8"/>
      </g>
     </g>
    </g>
    <g id="xtick_19">
     <g id="line2d_19">
      <g>
       <use style="stroke:#000000;stroke-width:0.6;" x="172.708088" xlink:href="#ma1d166bc90" y="172.8"/>
      </g>
     </g>
    </g>
    <g id="xtick_20">
     <g id="line2d_20">
      <g>
       <use style="stroke:#000000;stroke-width:0.6;" x="185.401566" xlink:href="#ma1d166bc90" y="172.8"/>
      </g>
     </g>
    </g>
    <g id="xtick_21">
     <g id="line2d_21">
      <g>
       <use style="stroke:#000000;stroke-width:0.6;" x="210.788523" xlink:href="#ma1d166bc90" y="172.8"/>
      </g>
     </g>
    </g>
    <g id="xtick_22">
     <g id="line2d_22">
      <g>
       <use style="stroke:#000000;stroke-width:0.6;" x="223.482001" xlink:href="#ma1d166bc90" y="172.8"/>
      </g>
     </g>
    </g>
    <g id="xtick_23">
     <g id="line2d_23">
      <g>
       <use style="stroke:#000000;stroke-width:0.6;" x="236.17548" xlink:href="#ma1d166bc90" y="172.8"/>
      </g>
     </g>
    </g>
    <g id="xtick_24">
     <g id="line2d_24">
      <g>
       <use style="stroke:#000000;stroke-width:0.6;" x="248.868958" xlink:href="#ma1d166bc90" y="172.8"/>
      </g>
     </g>
    </g>
    <g id="xtick_25">
     <g id="line2d_25">
      <g>
       <use style="stroke:#000000;stroke-width:0.6;" x="274.255915" xlink:href="#ma1d166bc90" y="172.8"/>
      </g>
     </g>
    </g>
    <g id="xtick_26">
     <g id="line2d_26">
      <g>
       <use style="stroke:#000000;stroke-width:0.6;" x="286.949393" xlink:href="#ma1d166bc90" y="172.8"/>
      </g>
     </g>
    </g>
    <g id="xtick_27">
     <g id="line2d_27">
      <g>
       <use style="stroke:#000000;stroke-width:0.6;" x="299.642872" xlink:href="#ma1d166bc90" y="172.8"/>
      </g>
     </g>
    </g>
    <g id="xtick_28">
     <g id="line2d_28">
      <g>
       <use style="stroke:#000000;stroke-width:0.6;" x="312.33635" xlink:href="#ma1d166bc90" y="172.8"/>
      </g>
     </g>
    </g>
    <g id="xtick_29">
     <g id="line2d_29">
      <g>
       <use style="stroke:#000000;stroke-width:0.6;" x="337.723307" xlink:href="#ma1d166bc90" y="172.8"/>
      </g>
     </g>
    </g>
    <g id="xtick_30">
     <g id="line2d_30">
      <g>
       <use style="stroke:#000000;stroke-width:0.6;" x="350.416785" xlink:href="#ma1d166bc90" y="172.8"/>
      </g>
     </g>
    </g>
    <g id="xtick_31">
     <g id="line2d_31">
      <g>
       <use style="stroke:#000000;stroke-width:0.6;" x="363.110263" xlink:href="#ma1d166bc90" y="172.8"/>
      </g>
     </g>
    </g>
    <g id="xtick_32">
     <g id="line2d_32">
      <g>
       <use style="stroke:#000000;stroke-width:0.6;" x="375.803742" xlink:href="#ma1d166bc90" y="172.8"/>
      </g>
     </g>
    </g>
    <g id="xtick_33">
     <g id="line2d_33">
      <g>
       <use style="stroke:#000000;stroke-width:0.6;" x="401.190699" xlink:href="#ma1d166bc90" y="172.8"/>
      </g>
     </g>
    </g>
    <g id="xtick_34">
     <g id="line2d_34">
      <g>
       <use style="stroke:#000000;stroke-width:0.6;" x="413.884177" xlink:href="#ma1d166bc90" y="172.8"/>
      </g>
     </g>
    </g>
    <g id="xtick_35">
     <g id="line2d_35">
      <g>
       <use style="stroke:#000000;stroke-width:0.6;" x="426.577655" xlink:href="#ma1d166bc90" y="172.8"/>
      </g>
     </g>
    </g>
    <g id="xtick_36">
     <g id="line2d_36">
      <g>
       <use style="stroke:#000000;stroke-width:0.6;" x="439.271134" xlink:href="#ma1d166bc90" y="172.8"/>
      </g>
     </g>
    </g>
   </g>
   <g id="matplotlib.axis_2">
    <g id="ytick_1">
     <g id="line2d_37">
      <defs>
       <path d="M 0 0 
L -3.5 0 
" id="m384ede30f2" style="stroke:#000000;stroke-width:0.8;"/>
      </defs>
      <g>
       <use style="stroke:#000000;stroke-width:0.8;" x="198.095045" xlink:href="#m384ede30f2" y="305.723077"/>
      </g>
     </g>
     <g id="text_8">
      <!-- −4 -->
      <g transform="translate(176.352857 309.522296)scale(0.1 -0.1)">
       <use xlink:href="#DejaVuSans-8722"/>
       <use x="83.789062" xlink:href="#DejaVuSans-52"/>
      </g>
     </g>
    </g>
    <g id="ytick_2">
     <g id="line2d_38">
      <g>
       <use style="stroke:#000000;stroke-width:0.8;" x="198.095045" xlink:href="#m384ede30f2" y="239.261538"/>
      </g>
     </g>
     <g id="text_9">
      <!-- −2 -->
      <g transform="translate(176.352857 243.060757)scale(0.1 -0.1)">
       <use xlink:href="#DejaVuSans-8722"/>
       <use x="83.789062" xlink:href="#DejaVuSans-50"/>
      </g>
     </g>
    </g>
    <g id="ytick_3">
     <g id="line2d_39">
      <g>
       <use style="stroke:#000000;stroke-width:0.8;" x="198.095045" xlink:href="#m384ede30f2" y="172.8"/>
      </g>
     </g>
    </g>
    <g id="ytick_4">
     <g id="line2d_40">
      <g>
       <use style="stroke:#000000;stroke-width:0.8;" x="198.095045" xlink:href="#m384ede30f2" y="106.338462"/>
      </g>
     </g>
     <g id="text_10">
      <!-- 2 -->
      <g transform="translate(184.732545 110.13768)scale(0.1 -0.1)">
       <use xlink:href="#DejaVuSans-50"/>
      </g>
     </g>
    </g>
    <g id="ytick_5">
     <g id="line2d_41">
      <g>
       <use style="stroke:#000000;stroke-width:0.8;" x="198.095045" xlink:href="#m384ede30f2" y="39.876923"/>
      </g>
     </g>
     <g id="text_11">
      <!-- 4 -->
      <g transform="translate(184.732545 43.676142)scale(0.1 -0.1)">
       <use xlink:href="#DejaVuSans-52"/>
      </g>
     </g>
    </g>
    <g id="ytick_6">
     <g id="line2d_42">
      <defs>
       <path d="M 0 0 
L -2 0 
" id="m4ddbc3d21e" style="stroke:#000000;stroke-width:0.6;"/>
      </defs>
      <g>
       <use style="stroke:#000000;stroke-width:0.6;" x="198.095045" xlink:href="#m4ddbc3d21e" y="338.953846"/>
      </g>
     </g>
    </g>
    <g id="ytick_7">
     <g id="line2d_43">
      <g>
       <use style="stroke:#000000;stroke-width:0.6;" x="198.095045" xlink:href="#m4ddbc3d21e" y="322.338462"/>
      </g>
     </g>
    </g>
    <g id="ytick_8">
     <g id="line2d_44">
      <g>
       <use style="stroke:#000000;stroke-width:0.6;" x="198.095045" xlink:href="#m4ddbc3d21e" y="289.107692"/>
      </g>
     </g>
    </g>
    <g id="ytick_9">
     <g id="line2d_45">
      <g>
       <use style="stroke:#000000;stroke-width:0.6;" x="198.095045" xlink:href="#m4ddbc3d21e" y="272.492308"/>
      </g>
     </g>
    </g>
    <g id="ytick_10">
     <g id="line2d_46">
      <g>
       <use style="stroke:#000000;stroke-width:0.6;" x="198.095045" xlink:href="#m4ddbc3d21e" y="255.876923"/>
      </g>
     </g>
    </g>
    <g id="ytick_11">
     <g id="line2d_47">
      <g>
       <use style="stroke:#000000;stroke-width:0.6;" x="198.095045" xlink:href="#m4ddbc3d21e" y="222.646154"/>
      </g>
     </g>
    </g>
    <g id="ytick_12">
     <g id="line2d_48">
      <g>
       <use style="stroke:#000000;stroke-width:0.6;" x="198.095045" xlink:href="#m4ddbc3d21e" y="206.030769"/>
      </g>
     </g>
    </g>
    <g id="ytick_13">
     <g id="line2d_49">
      <g>
       <use style="stroke:#000000;stroke-width:0.6;" x="198.095045" xlink:href="#m4ddbc3d21e" y="189.415385"/>
      </g>
     </g>
    </g>
    <g id="ytick_14">
     <g id="line2d_50">
      <g>
       <use style="stroke:#000000;stroke-width:0.6;" x="198.095045" xlink:href="#m4ddbc3d21e" y="156.184615"/>
      </g>
     </g>
    </g>
    <g id="ytick_15">
     <g id="line2d_51">
      <g>
       <use style="stroke:#000000;stroke-width:0.6;" x="198.095045" xlink:href="#m4ddbc3d21e" y="139.569231"/>
      </g>
     </g>
    </g>
    <g id="ytick_16">
     <g id="line2d_52">
      <g>
       <use style="stroke:#000000;stroke-width:0.6;" x="198.095045" xlink:href="#m4ddbc3d21e" y="122.953846"/>
      </g>
     </g>
    </g>
    <g id="ytick_17">
     <g id="line2d_53">
      <g>
       <use style="stroke:#000000;stroke-width:0.6;" x="198.095045" xlink:href="#m4ddbc3d21e" y="89.723077"/>
      </g>
     </g>
    </g>
    <g id="ytick_18">
     <g id="line2d_54">
      <g>
       <use style="stroke:#000000;stroke-width:0.6;" x="198.095045" xlink:href="#m4ddbc3d21e" y="73.107692"/>
      </g>
     </g>
    </g>
    <g id="ytick_19">
     <g id="line2d_55">
      <g>
       <use style="stroke:#000000;stroke-width:0.6;" x="198.095045" xlink:href="#m4ddbc3d21e" y="56.492308"/>
      </g>
     </g>
    </g>
    <g id="ytick_20">
     <g id="line2d_56">
      <g>
       <use style="stroke:#000000;stroke-width:0.6;" x="198.095045" xlink:href="#m4ddbc3d21e" y="23.261538"/>
      </g>
     </g>
    </g>
    <g id="ytick_21">
     <g id="line2d_57">
      <g>
       <use style="stroke:#000000;stroke-width:0.6;" x="198.095045" xlink:href="#m4ddbc3d21e" y="6.646154"/>
      </g>
     </g>
    </g>
   </g>
   <g id="line2d_58">
    <path clip-path="url(#p3671f7f063)" d="M 10.195212 320.750485 
L 10.79947 293.55949 
L 11.464154 273.765384 
L 12.128837 259.951027 
L 12.899734 248.399543 
L 13.686635 239.725882 
L 14.551601 232.544407 
L 15.524688 226.426332 
L 16.605896 221.270221 
L 17.485993 217.969875 
L 18.481775 214.94347 
L 19.7454 211.90833 
L 20.548924 210.338279 
L 21.62029 208.58594 
L 23.061642 206.718038 
L 24.463122 205.32439 
L 26.024054 204.157941 
L 27.303858 203.44985 
L 28.692235 202.8952 
L 30.398457 202.477357 
L 32.313953 202.313745 
L 34.249688 202.446964 
L 36.434075 202.940336 
L 38.184319 203.598594 
L 39.815849 204.432286 
L 41.614412 205.616751 
L 43.474814 207.168254 
L 44.901936 208.614324 
L 46.821629 210.96987 
L 48.429806 213.373768 
L 49.471742 215.180863 
L 50.983894 218.220131 
L 52.414434 221.641958 
L 53.810135 225.617133 
L 54.919476 229.332091 
L 56.372327 235.138483 
L 57.652725 241.390814 
L 58.798639 248.17069 
L 59.843569 255.627188 
L 60.888498 264.682197 
L 61.945953 276.029626 
L 62.940003 289.455514 
L 63.846172 304.967189 
L 64.669963 322.915439 
L 65.483032 345.83308 
L 65.506288 346.6 
L 65.506288 346.6 
" style="fill:none;stroke:#0000ff;stroke-linecap:square;"/>
   </g>
   <g id="line2d_59">
    <path clip-path="url(#p3671f7f063)" d="M 71.12235 346.6 
L 71.122376 -1 
" style="fill:none;stroke:#cccccc;stroke-dasharray:3.7,1.6;stroke-dashoffset:0;"/>
   </g>
   <g id="line2d_60">
    <path clip-path="url(#p3671f7f063)" d="M 77.972673 -1 
L 78.778042 14.886161 
L 79.741205 29.827684 
L 80.704368 41.613345 
L 81.658728 51.026042 
L 82.790679 60.024592 
L 83.922631 67.255542 
L 85.182768 73.73557 
L 86.335282 78.539896 
L 87.487796 82.493795 
L 88.600311 85.650216 
L 89.632828 88.092612 
L 90.918366 90.57695 
L 92.203903 92.531283 
L 93.060929 93.575416 
L 94.225101 94.696052 
L 95.344452 95.477121 
L 96.463803 95.989638 
L 97.501781 96.238947 
L 98.539759 96.280152 
L 99.521494 96.132951 
L 100.503229 95.807422 
L 101.484965 95.303972 
L 102.903188 94.25862 
L 104.212653 92.949286 
L 105.697208 91.042555 
L 107.006719 88.959589 
L 108.43112 86.224388 
L 109.650603 83.450479 
L 111.06198 79.675951 
L 112.39804 75.462543 
L 113.631795 70.927191 
L 115.116935 64.49212 
L 116.373862 58.043997 
L 117.703739 49.99251 
L 119.082249 39.983588 
L 120.392141 28.4715 
L 121.483717 16.966164 
L 122.708107 1.369662 
L 122.873135 -1 
L 122.873135 -1 
" style="fill:none;stroke:#0000ff;stroke-linecap:square;"/>
   </g>
   <g id="line2d_61">
    <path clip-path="url(#p3671f7f063)" d="M 134.600397 -1 
L 134.600556 346.6 
" style="fill:none;stroke:#cccccc;stroke-dasharray:3.7,1.6;stroke-dashoffset:0;"/>
   </g>
   <g id="line2d_62">
    <path clip-path="url(#p3671f7f063)" d="M 148.906577 346.6 
L 150.026712 336.991913 
L 151.201152 328.52722 
L 152.588578 320.228467 
L 153.866492 313.908389 
L 155.205086 308.405942 
L 156.571577 303.778424 
L 157.775988 300.410044 
L 159.221282 297.132146 
L 160.490701 294.864469 
L 161.714261 293.168317 
L 162.931685 291.922568 
L 163.830945 291.270496 
L 164.730205 290.83807 
L 165.824211 290.601339 
L 166.618463 290.626062 
L 167.517739 290.853314 
L 168.417014 291.293848 
L 169.553666 292.161937 
L 170.690318 293.389676 
L 171.739313 294.85801 
L 172.90422 296.890717 
L 173.7779 298.713438 
L 175.194202 302.264743 
L 176.511256 306.309121 
L 177.637861 310.41945 
L 178.7999 315.385185 
L 179.973751 321.274255 
L 181.298117 329.17796 
L 182.50606 337.807218 
L 183.548685 346.6 
L 183.548685 346.6 
" style="fill:none;stroke:#0000ff;stroke-linecap:square;"/>
   </g>
   <g id="line2d_63">
    <path clip-path="url(#p3671f7f063)" d="M 198.054077 346.6 
L 198.05427 -1 
" style="fill:none;stroke:#cccccc;stroke-dasharray:3.7,1.6;stroke-dashoffset:0;"/>
   </g>
   <g id="line2d_64">
    <path clip-path="url(#p3671f7f063)" d="M 209.315956 -1 
L 210.322197 14.082275 
L 211.534117 29.182494 
L 212.746038 41.720871 
L 213.957958 52.28661 
L 215.342793 62.480427 
L 216.787635 71.443477 
L 218.206335 78.935559 
L 219.66198 85.546549 
L 221.176159 91.488313 
L 222.859543 97.186867 
L 224.560952 102.157214 
L 226.264976 106.485082 
L 228.306769 110.970176 
L 230.028853 114.262084 
L 231.781469 117.227608 
L 233.488852 119.798707 
L 235.292724 122.223122 
L 237.27237 124.587485 
L 240.003353 127.420293 
L 242.455377 129.609095 
L 244.308494 131.074794 
L 247.261289 133.124646 
L 249.886519 134.694576 
L 253.572667 136.564129 
L 256.29898 137.73356 
L 260.529115 139.248092 
L 265.194275 140.564552 
L 268.646561 141.338118 
L 272.645934 142.05135 
L 277.07369 142.640571 
L 282.551576 143.115202 
L 286.042251 143.286555 
L 293.485232 143.346673 
L 297.73189 143.208665 
L 303.659172 142.819393 
L 308.152096 142.376031 
L 315.264504 141.415419 
L 321.629728 140.283012 
L 328.258351 138.818762 
L 334.31055 137.21256 
L 338.189341 136.039062 
L 344.275562 133.95375 
L 348.248415 132.420125 
L 352.688288 130.531975 
L 358.39654 127.811227 
L 364.273613 124.630162 
L 369.217607 121.622778 
L 372.886857 119.17562 
L 376.605712 116.492133 
L 381.054167 112.990572 
L 384.117045 110.379925 
L 387.74079 107.063562 
L 392.606887 102.18822 
L 397.205001 97.092085 
L 401.410665 91.970253 
L 404.572596 87.802528 
L 408.742093 81.852721 
L 412.529412 75.960839 
L 416.526154 69.191221 
L 420.295066 62.239263 
L 422.770747 57.347497 
L 426.29746 49.897796 
L 429.921566 41.606176 
L 433.365104 33.077181 
L 436.670979 24.240656 
L 439.783078 15.293126 
L 443.1389 4.904457 
L 444.936316 -1 
L 444.936316 -1 
" style="fill:none;stroke:#0000ff;stroke-linecap:square;"/>
   </g>
   <g id="patch_3">
    <path d="M 198.095045 345.6 
L 198.095045 0 
" style="fill:none;stroke:#000000;stroke-linecap:square;stroke-linejoin:miter;stroke-width:0.8;"/>
   </g>
   <g id="patch_4">
    <path d="M 1.359824 172.8 
L 460.8 172.8 
" style="fill:none;stroke:#000000;stroke-linecap:square;stroke-linejoin:miter;stroke-width:0.8;"/>
   </g>
  </g>
 </g>
 <defs>
  <clipPath id="p3671f7f063">
   <rect height="345.6" width="459.440176" x="1.359824" y="0"/>
  </clipPath>
 </defs>
</svg>
