<?xml version="1.0" encoding="utf-8" standalone="no"?>
<!DOCTYPE svg PUBLIC "-//W3C//DTD SVG 1.1//EN"
  "http://www.w3.org/Graphics/SVG/1.1/DTD/svg11.dtd">
<!-- Created with matplotlib (https://matplotlib.org/) -->
<svg height="345.6pt" version="1.1" viewBox="0 0 460.8 345.6" width="460.8pt" xmlns="http://www.w3.org/2000/svg" xmlns:xlink="http://www.w3.org/1999/xlink">
 <metadata>
  <rdf:RDF xmlns:cc="http://creativecommons.org/ns#" xmlns:dc="http://purl.org/dc/elements/1.1/" xmlns:rdf="http://www.w3.org/1999/02/22-rdf-syntax-ns#">
   <cc:Work>
    <dc:type rdf:resource="http://purl.org/dc/dcmitype/StillImage"/>
    <dc:date>2021-05-10T20:21:06.769563</dc:date>
    <dc:format>image/svg+xml</dc:format>
    <dc:creator>
     <cc:Agent>
      <dc:title>Matplotlib v3.3.4, https://matplotlib.org/</dc:title>
     </cc:Agent>
    </dc:creator>
   </cc:Work>
  </rdf:RDF>
 </metadata>
 <defs>
  <style type="text/css">*{stroke-linecap:butt;stroke-linejoin:round;}</style>
 </defs>
 <g id="figure_1">
  <g id="patch_1">
   <path d="M 0 345.6 
L 460.8 345.6 
L 460.8 0 
L 0 0 
z
" style="fill:#ffffff;"/>
  </g>
  <g id="axes_1">
   <g id="patch_2">
    <path d="M 65.339923 345.6 
L 395.460077 345.6 
L 395.460077 0 
L 65.339923 0 
z
" style="fill:#ffffff;"/>
   </g>
   <g id="patch_3">
    <path clip-path="url(#pf5673f982e)" d="M 389.111613 172.804066 
L 388.911044 170.533985 
L 388.310443 168.290962 
L 387.113638 165.752585 
L 385.995543 164.086341 
L 384.636451 162.486222 
L 382.774751 160.738441 
L 380.606942 159.114502 
L 378.565106 157.864214 
L 376.322451 156.723741 
L 372.599325 155.240983 
L 368.467732 154.05873 
L 365.40385 153.435101 
L 362.171015 152.976099 
L 358.113618 152.655231 
L 352.930216 152.612223 
L 347.4828 152.965208 
L 339.222284 154.205842 
L 336.626395 154.761031 
L 327.333013 157.368765 
L 320.311211 159.971314 
L 304.43319 167.897396 
L 303.321285 168.563143 
L 292.237835 176.06357 
L 284.95043 181.931163 
L 277.886276 188.440399 
L 273.823307 192.604114 
L 269.908884 196.94743 
L 266.149564 201.465896 
L 262.565092 206.138002 
L 258.872455 211.38592 
L 255.414643 216.779187 
L 251.659394 223.290131 
L 248.263985 229.938838 
L 245.574993 235.898399 
L 243.130687 242.059988 
L 241.007365 248.249212 
L 239.224379 254.379749 
L 237.369459 262.386092 
L 236.06678 270.278933 
L 235.495348 275.518579 
L 235.192082 280.118057 
L 235.080837 284.62448 
L 235.201075 290.029849 
L 235.847994 297.438808 
L 237.021393 304.402289 
L 237.754242 307.547883 
L 238.87773 311.500435 
L 240.170538 315.228424 
L 242.039735 319.628624 
L 244.132046 323.620602 
L 247.552271 328.711367 
L 249.223121 330.710501 
L 255.055813 335.795692 
L 258.107146 337.465524 
L 263.7283 338.92845 
L 265.335013 338.953846 
L 270.330881 337.743163 
L 273.467506 335.703383 
L 274.610028 334.609814 
L 276.652874 331.956021 
L 278.303323 328.733801 
L 279.184473 326.214456 
L 279.844663 323.461084 
L 280.239414 320.794309 
L 280.435939 317.962388 
L 280.456681 316.340591 
L 280.267222 312.505542 
L 279.739755 308.470823 
L 278.925674 304.516589 
L 278.048285 301.260166 
L 276.96672 297.932685 
L 275.679029 294.546335 
L 274.184 291.113429 
L 271.67113 286.122439 
L 268.786128 281.186841 
L 265.492419 276.253596 
L 262.292251 271.98074 
L 258.41131 267.321775 
L 254.177008 262.754037 
L 250.265217 258.922669 
L 246.112156 255.197542 
L 241.44956 251.376451 
L 237.066523 248.088879 
L 230.747714 243.804256 
L 224.112681 239.815397 
L 219.140705 237.133294 
L 210.701641 233.125331 
L 201.970796 229.638177 
L 192.564834 226.571063 
L 180.18023 223.551602 
L 176.254168 222.826971 
L 166.750701 221.526903 
L 150.059146 220.800008 
L 145.62803 220.94773 
L 138.036009 221.548335 
L 130.673906 222.570529 
L 125.665094 223.529813 
L 120.807479 224.678971 
L 112.91469 227.049729 
L 106.890878 229.332492 
L 101.26497 231.898106 
L 99.473383 232.815652 
L 95.250763 235.199554 
L 91.34483 237.725454 
L 88.038441 240.158728 
L 85.021051 242.675522 
L 83.085526 244.476505 
L 81.297556 246.302758 
L 79.661633 248.144602 
L 78.176231 249.99839 
L 76.842568 251.85741 
L 75.661522 253.714909 
L 74.276454 256.277179 
L 73.186558 258.805336 
L 72.545496 260.725781 
L 72.079504 262.606701 
L 71.688387 265.621628 
L 71.741009 268.218376 
L 72.173168 270.648242 
L 72.656236 272.135954 
L 73.293369 273.533717 
L 74.377512 275.248385 
L 75.71835 276.774432 
L 76.740985 277.673201 
L 79.027995 279.153139 
L 81.678405 280.250179 
L 84.798739 280.959205 
L 88.240927 281.197111 
L 89.452368 281.167855 
L 94.316943 280.544222 
L 101.957208 278.14691 
L 109.64389 274.168949 
L 110.546166 273.601505 
L 116.803808 269.068926 
L 124.63527 261.813289 
L 129.319332 256.503985 
L 135.835126 247.614877 
L 140.354692 240.119161 
L 143.632186 233.754523 
L 146.609535 227.0447 
L 149.407473 219.590256 
L 151.23171 213.842247 
L 152.911463 207.58561 
L 154.317649 201.188038 
L 155.653733 193.195871 
L 156.551561 185.079059 
L 156.940662 178.717609 
L 157.044839 170.826772 
L 156.731728 162.947114 
L 156.490922 159.816983 
L 155.996322 155.057138 
L 155.35022 150.334519 
L 154.195799 143.805483 
L 152.75689 137.395181 
L 150.968155 130.878728 
L 148.895222 124.546949 
L 146.511393 118.324768 
L 143.867771 112.348457 
L 142.10177 108.767457 
L 136.9053 99.654838 
L 132.493642 93.190778 
L 128.237456 87.805652 
L 123.812956 82.942619 
L 122.041615 81.182031 
L 111.240712 72.457957 
L 109.599168 71.411609 
L 100.02469 66.703622 
L 93.793741 64.960649 
L 89.857161 64.461978 
L 85.505901 64.558014 
L 83.451209 64.88976 
L 80.230312 65.890062 
L 77.460077 67.401465 
L 76.228911 68.362004 
L 74.195386 70.609323 
L 73.391775 71.891513 
L 72.736334 73.270708 
L 72.126163 75.142409 
L 71.766735 77.143999 
L 71.69123 78.035444 
L 71.706106 80.279959 
L 72.006033 82.62445 
L 72.472225 84.62534 
L 73.137941 86.672594 
L 74.0044 88.756101 
L 75.072231 90.865678 
L 77.135587 94.178069 
L 79.404952 97.156871 
L 81.290275 99.297568 
L 83.376563 101.413215 
L 85.607517 103.447392 
L 88.024303 105.438325 
L 90.623018 107.376736 
L 93.399234 109.253563 
L 96.565029 111.186063 
L 99.973935 113.054118 
L 103.572287 114.817562 
L 110.425339 117.668601 
L 115.688562 119.466882 
L 121.201769 121.030838 
L 130.38058 122.987481 
L 138.029615 124.059101 
L 145.927234 124.675007 
L 153.52504 124.822451 
L 167.018235 124.053383 
L 170.170719 123.687106 
L 183.787584 121.293008 
L 191.070306 119.461687 
L 204.962608 114.84685 
L 211.380404 112.184406 
L 217.635578 109.238398 
L 222.993964 106.418182 
L 229.134251 102.81947 
L 236.065915 98.232015 
L 242.592869 93.327241 
L 247.502789 89.199304 
L 252.203246 84.829622 
L 256.572989 80.328681 
L 259.690744 76.805767 
L 263.390241 72.210633 
L 266.735817 67.564877 
L 268.703525 64.553107 
L 270.519131 61.540109 
L 272.181533 58.533787 
L 273.69004 55.542074 
L 275.409105 51.71526 
L 276.949279 47.724852 
L 278.204105 43.815683 
L 279.326206 39.315822 
L 280.060216 34.990246 
L 280.335974 32.261854 
L 280.445298 27.974411 
L 280.140577 23.989456 
L 279.756608 21.702026 
L 279.15033 19.278056 
L 278.370403 17.039016 
L 277.153752 14.493541 
L 275.697219 12.277585 
L 273.595977 10.016668 
L 271.729037 8.623965 
L 269.705826 7.592722 
L 265.086581 6.646154 
L 260.482745 7.270072 
L 259.219354 7.688101 
L 253.157004 11.177915 
L 252.187336 11.978106 
L 249.072547 15.066563 
L 246.133829 18.827904 
L 244.036609 22.152736 
L 242.10431 25.843401 
L 241.658062 26.803391 
L 239.418908 32.461018 
L 237.593822 38.701292 
L 237.227926 40.258578 
L 235.94108 47.460816 
L 235.508049 51.250817 
L 235.222649 55.154517 
L 235.089651 59.170189 
L 235.114118 63.280497 
L 235.359214 68.359566 
L 235.957362 74.474117 
L 236.896786 80.703687 
L 237.719059 84.924407 
L 238.697195 89.173294 
L 240.514894 95.77004 
L 242.573652 102.013776 
L 244.960049 108.236611 
L 247.226125 113.453681 
L 249.716925 118.617819 
L 252.608262 124.037096 
L 257.279358 131.800741 
L 262.433446 139.291055 
L 266.792226 144.940831 
L 271.404673 150.361386 
L 277.093056 156.380548 
L 285.593256 164.227372 
L 288.765015 166.848188 
L 299.685252 174.760763 
L 305.863093 178.544783 
L 320.111571 185.554878 
L 323.576824 186.914676 
L 332.800765 189.889936 
L 339.030333 191.36388 
L 345.075374 192.366238 
L 349.449416 192.814993 
L 353.675774 193.013383 
L 355.679603 193.02165 
L 359.993854 192.837538 
L 364.079628 192.384341 
L 367.062471 191.859791 
L 369.887753 191.190761 
L 374.525087 189.656878 
L 376.629687 188.74052 
L 378.584554 187.733047 
L 379.868166 186.972862 
L 382.453494 185.134071 
L 384.632421 183.12617 
L 386.258528 181.165755 
L 387.546609 179.069125 
L 388.45353 176.899518 
L 388.946906 174.861861 
L 389.111613 172.804066 
z
" style="fill:#808080;opacity:0.5;"/>
   </g>
   <g id="matplotlib.axis_1">
    <g id="xtick_1">
     <g id="line2d_1">
      <defs>
       <path d="M 0 0 
L 0 3.5 
" id="m9b6130f96c" style="stroke:#000000;stroke-width:0.8;"/>
      </defs>
      <g>
       <use style="stroke:#000000;stroke-width:0.8;" x="99.044527" xlink:href="#m9b6130f96c" y="172.804066"/>
      </g>
     </g>
     <g id="text_1">
      <!-- −2 -->
      <g transform="translate(91.673433 187.402503)scale(0.1 -0.1)">
       <defs>
        <path d="M 10.59375 35.5 
L 73.1875 35.5 
L 73.1875 27.203125 
L 10.59375 27.203125 
z
" id="DejaVuSans-8722"/>
        <path d="M 19.1875 8.296875 
L 53.609375 8.296875 
L 53.609375 0 
L 7.328125 0 
L 7.328125 8.296875 
Q 12.9375 14.109375 22.625 23.890625 
Q 32.328125 33.6875 34.8125 36.53125 
Q 39.546875 41.84375 41.421875 45.53125 
Q 43.3125 49.21875 43.3125 52.78125 
Q 43.3125 58.59375 39.234375 62.25 
Q 35.15625 65.921875 28.609375 65.921875 
Q 23.96875 65.921875 18.8125 64.3125 
Q 13.671875 62.703125 7.8125 59.421875 
L 7.8125 69.390625 
Q 13.765625 71.78125 18.9375 73 
Q 24.125 74.21875 28.421875 74.21875 
Q 39.75 74.21875 46.484375 68.546875 
Q 53.21875 62.890625 53.21875 53.421875 
Q 53.21875 48.921875 51.53125 44.890625 
Q 49.859375 40.875 45.40625 35.40625 
Q 44.1875 33.984375 37.640625 27.21875 
Q 31.109375 20.453125 19.1875 8.296875 
z
" id="DejaVuSans-50"/>
       </defs>
       <use xlink:href="#DejaVuSans-8722"/>
       <use x="83.789062" xlink:href="#DejaVuSans-50"/>
      </g>
     </g>
    </g>
    <g id="xtick_2">
     <g id="line2d_2">
      <g>
       <use style="stroke:#000000;stroke-width:0.8;" x="157.057944" xlink:href="#m9b6130f96c" y="172.804066"/>
      </g>
     </g>
     <g id="text_2">
      <!-- −1 -->
      <g transform="translate(149.68685 187.402503)scale(0.1 -0.1)">
       <defs>
        <path d="M 12.40625 8.296875 
L 28.515625 8.296875 
L 28.515625 63.921875 
L 10.984375 60.40625 
L 10.984375 69.390625 
L 28.421875 72.90625 
L 38.28125 72.90625 
L 38.28125 8.296875 
L 54.390625 8.296875 
L 54.390625 0 
L 12.40625 0 
z
" id="DejaVuSans-49"/>
       </defs>
       <use xlink:href="#DejaVuSans-8722"/>
       <use x="83.789062" xlink:href="#DejaVuSans-49"/>
      </g>
     </g>
    </g>
    <g id="xtick_3">
     <g id="line2d_3">
      <g>
       <use style="stroke:#000000;stroke-width:0.8;" x="215.071361" xlink:href="#m9b6130f96c" y="172.804066"/>
      </g>
     </g>
    </g>
    <g id="xtick_4">
     <g id="line2d_4">
      <g>
       <use style="stroke:#000000;stroke-width:0.8;" x="273.084778" xlink:href="#m9b6130f96c" y="172.804066"/>
      </g>
     </g>
     <g id="text_3">
      <!-- 1 -->
      <g transform="translate(269.903528 187.402503)scale(0.1 -0.1)">
       <use xlink:href="#DejaVuSans-49"/>
      </g>
     </g>
    </g>
    <g id="xtick_5">
     <g id="line2d_5">
      <g>
       <use style="stroke:#000000;stroke-width:0.8;" x="331.098196" xlink:href="#m9b6130f96c" y="172.804066"/>
      </g>
     </g>
     <g id="text_4">
      <!-- 2 -->
      <g transform="translate(327.916946 187.402503)scale(0.1 -0.1)">
       <use xlink:href="#DejaVuSans-50"/>
      </g>
     </g>
    </g>
    <g id="xtick_6">
     <g id="line2d_6">
      <g>
       <use style="stroke:#000000;stroke-width:0.8;" x="389.111613" xlink:href="#m9b6130f96c" y="172.804066"/>
      </g>
     </g>
     <g id="text_5">
      <!-- 3 -->
      <g transform="translate(385.930363 187.402503)scale(0.1 -0.1)">
       <defs>
        <path d="M 40.578125 39.3125 
Q 47.65625 37.796875 51.625 33 
Q 55.609375 28.21875 55.609375 21.1875 
Q 55.609375 10.40625 48.1875 4.484375 
Q 40.765625 -1.421875 27.09375 -1.421875 
Q 22.515625 -1.421875 17.65625 -0.515625 
Q 12.796875 0.390625 7.625 2.203125 
L 7.625 11.71875 
Q 11.71875 9.328125 16.59375 8.109375 
Q 21.484375 6.890625 26.8125 6.890625 
Q 36.078125 6.890625 40.9375 10.546875 
Q 45.796875 14.203125 45.796875 21.1875 
Q 45.796875 27.640625 41.28125 31.265625 
Q 36.765625 34.90625 28.71875 34.90625 
L 20.21875 34.90625 
L 20.21875 43.015625 
L 29.109375 43.015625 
Q 36.375 43.015625 40.234375 45.921875 
Q 44.09375 48.828125 44.09375 54.296875 
Q 44.09375 59.90625 40.109375 62.90625 
Q 36.140625 65.921875 28.71875 65.921875 
Q 24.65625 65.921875 20.015625 65.03125 
Q 15.375 64.15625 9.8125 62.3125 
L 9.8125 71.09375 
Q 15.4375 72.65625 20.34375 73.4375 
Q 25.25 74.21875 29.59375 74.21875 
Q 40.828125 74.21875 47.359375 69.109375 
Q 53.90625 64.015625 53.90625 55.328125 
Q 53.90625 49.265625 50.4375 45.09375 
Q 46.96875 40.921875 40.578125 39.3125 
z
" id="DejaVuSans-51"/>
       </defs>
       <use xlink:href="#DejaVuSans-51"/>
      </g>
     </g>
    </g>
    <g id="xtick_7">
     <g id="line2d_7">
      <defs>
       <path d="M 0 0 
L 0 2 
" id="ma135c63e2d" style="stroke:#000000;stroke-width:0.6;"/>
      </defs>
      <g>
       <use style="stroke:#000000;stroke-width:0.6;" x="75.83916" xlink:href="#ma135c63e2d" y="172.804066"/>
      </g>
     </g>
    </g>
    <g id="xtick_8">
     <g id="line2d_8">
      <g>
       <use style="stroke:#000000;stroke-width:0.6;" x="87.441843" xlink:href="#ma135c63e2d" y="172.804066"/>
      </g>
     </g>
    </g>
    <g id="xtick_9">
     <g id="line2d_9">
      <g>
       <use style="stroke:#000000;stroke-width:0.6;" x="110.64721" xlink:href="#ma135c63e2d" y="172.804066"/>
      </g>
     </g>
    </g>
    <g id="xtick_10">
     <g id="line2d_10">
      <g>
       <use style="stroke:#000000;stroke-width:0.6;" x="122.249894" xlink:href="#ma135c63e2d" y="172.804066"/>
      </g>
     </g>
    </g>
    <g id="xtick_11">
     <g id="line2d_11">
      <g>
       <use style="stroke:#000000;stroke-width:0.6;" x="133.852577" xlink:href="#ma135c63e2d" y="172.804066"/>
      </g>
     </g>
    </g>
    <g id="xtick_12">
     <g id="line2d_12">
      <g>
       <use style="stroke:#000000;stroke-width:0.6;" x="145.455261" xlink:href="#ma135c63e2d" y="172.804066"/>
      </g>
     </g>
    </g>
    <g id="xtick_13">
     <g id="line2d_13">
      <g>
       <use style="stroke:#000000;stroke-width:0.6;" x="168.660628" xlink:href="#ma135c63e2d" y="172.804066"/>
      </g>
     </g>
    </g>
    <g id="xtick_14">
     <g id="line2d_14">
      <g>
       <use style="stroke:#000000;stroke-width:0.6;" x="180.263311" xlink:href="#ma135c63e2d" y="172.804066"/>
      </g>
     </g>
    </g>
    <g id="xtick_15">
     <g id="line2d_15">
      <g>
       <use style="stroke:#000000;stroke-width:0.6;" x="191.865994" xlink:href="#ma135c63e2d" y="172.804066"/>
      </g>
     </g>
    </g>
    <g id="xtick_16">
     <g id="line2d_16">
      <g>
       <use style="stroke:#000000;stroke-width:0.6;" x="203.468678" xlink:href="#ma135c63e2d" y="172.804066"/>
      </g>
     </g>
    </g>
    <g id="xtick_17">
     <g id="line2d_17">
      <g>
       <use style="stroke:#000000;stroke-width:0.6;" x="226.674045" xlink:href="#ma135c63e2d" y="172.804066"/>
      </g>
     </g>
    </g>
    <g id="xtick_18">
     <g id="line2d_18">
      <g>
       <use style="stroke:#000000;stroke-width:0.6;" x="238.276728" xlink:href="#ma135c63e2d" y="172.804066"/>
      </g>
     </g>
    </g>
    <g id="xtick_19">
     <g id="line2d_19">
      <g>
       <use style="stroke:#000000;stroke-width:0.6;" x="249.879412" xlink:href="#ma135c63e2d" y="172.804066"/>
      </g>
     </g>
    </g>
    <g id="xtick_20">
     <g id="line2d_20">
      <g>
       <use style="stroke:#000000;stroke-width:0.6;" x="261.482095" xlink:href="#ma135c63e2d" y="172.804066"/>
      </g>
     </g>
    </g>
    <g id="xtick_21">
     <g id="line2d_21">
      <g>
       <use style="stroke:#000000;stroke-width:0.6;" x="284.687462" xlink:href="#ma135c63e2d" y="172.804066"/>
      </g>
     </g>
    </g>
    <g id="xtick_22">
     <g id="line2d_22">
      <g>
       <use style="stroke:#000000;stroke-width:0.6;" x="296.290145" xlink:href="#ma135c63e2d" y="172.804066"/>
      </g>
     </g>
    </g>
    <g id="xtick_23">
     <g id="line2d_23">
      <g>
       <use style="stroke:#000000;stroke-width:0.6;" x="307.892829" xlink:href="#ma135c63e2d" y="172.804066"/>
      </g>
     </g>
    </g>
    <g id="xtick_24">
     <g id="line2d_24">
      <g>
       <use style="stroke:#000000;stroke-width:0.6;" x="319.495512" xlink:href="#ma135c63e2d" y="172.804066"/>
      </g>
     </g>
    </g>
    <g id="xtick_25">
     <g id="line2d_25">
      <g>
       <use style="stroke:#000000;stroke-width:0.6;" x="342.700879" xlink:href="#ma135c63e2d" y="172.804066"/>
      </g>
     </g>
    </g>
    <g id="xtick_26">
     <g id="line2d_26">
      <g>
       <use style="stroke:#000000;stroke-width:0.6;" x="354.303563" xlink:href="#ma135c63e2d" y="172.804066"/>
      </g>
     </g>
    </g>
    <g id="xtick_27">
     <g id="line2d_27">
      <g>
       <use style="stroke:#000000;stroke-width:0.6;" x="365.906246" xlink:href="#ma135c63e2d" y="172.804066"/>
      </g>
     </g>
    </g>
    <g id="xtick_28">
     <g id="line2d_28">
      <g>
       <use style="stroke:#000000;stroke-width:0.6;" x="377.508929" xlink:href="#ma135c63e2d" y="172.804066"/>
      </g>
     </g>
    </g>
   </g>
   <g id="matplotlib.axis_2">
    <g id="ytick_1">
     <g id="line2d_29">
      <defs>
       <path d="M 0 0 
L -3.5 0 
" id="m8486724aa2" style="stroke:#000000;stroke-width:0.8;"/>
      </defs>
      <g>
       <use style="stroke:#000000;stroke-width:0.8;" x="215.071361" xlink:href="#m8486724aa2" y="288.8309"/>
      </g>
     </g>
     <g id="text_6">
      <!-- −2 -->
      <g transform="translate(193.329174 292.630119)scale(0.1 -0.1)">
       <use xlink:href="#DejaVuSans-8722"/>
       <use x="83.789062" xlink:href="#DejaVuSans-50"/>
      </g>
     </g>
    </g>
    <g id="ytick_2">
     <g id="line2d_30">
      <g>
       <use style="stroke:#000000;stroke-width:0.8;" x="215.071361" xlink:href="#m8486724aa2" y="230.817483"/>
      </g>
     </g>
     <g id="text_7">
      <!-- −1 -->
      <g transform="translate(193.329174 234.616702)scale(0.1 -0.1)">
       <use xlink:href="#DejaVuSans-8722"/>
       <use x="83.789062" xlink:href="#DejaVuSans-49"/>
      </g>
     </g>
    </g>
    <g id="ytick_3">
     <g id="line2d_31">
      <g>
       <use style="stroke:#000000;stroke-width:0.8;" x="215.071361" xlink:href="#m8486724aa2" y="172.804066"/>
      </g>
     </g>
    </g>
    <g id="ytick_4">
     <g id="line2d_32">
      <g>
       <use style="stroke:#000000;stroke-width:0.8;" x="215.071361" xlink:href="#m8486724aa2" y="114.790648"/>
      </g>
     </g>
     <g id="text_8">
      <!-- 1 -->
      <g transform="translate(201.708861 118.589867)scale(0.1 -0.1)">
       <use xlink:href="#DejaVuSans-49"/>
      </g>
     </g>
    </g>
    <g id="ytick_5">
     <g id="line2d_33">
      <g>
       <use style="stroke:#000000;stroke-width:0.8;" x="215.071361" xlink:href="#m8486724aa2" y="56.777231"/>
      </g>
     </g>
     <g id="text_9">
      <!-- 2 -->
      <g transform="translate(201.708861 60.57645)scale(0.1 -0.1)">
       <use xlink:href="#DejaVuSans-50"/>
      </g>
     </g>
    </g>
    <g id="ytick_6">
     <g id="line2d_34">
      <defs>
       <path d="M 0 0 
L -2 0 
" id="m49c4a0df46" style="stroke:#000000;stroke-width:0.6;"/>
      </defs>
      <g>
       <use style="stroke:#000000;stroke-width:0.6;" x="215.071361" xlink:href="#m49c4a0df46" y="335.241634"/>
      </g>
     </g>
    </g>
    <g id="ytick_7">
     <g id="line2d_35">
      <g>
       <use style="stroke:#000000;stroke-width:0.6;" x="215.071361" xlink:href="#m49c4a0df46" y="323.63895"/>
      </g>
     </g>
    </g>
    <g id="ytick_8">
     <g id="line2d_36">
      <g>
       <use style="stroke:#000000;stroke-width:0.6;" x="215.071361" xlink:href="#m49c4a0df46" y="312.036267"/>
      </g>
     </g>
    </g>
    <g id="ytick_9">
     <g id="line2d_37">
      <g>
       <use style="stroke:#000000;stroke-width:0.6;" x="215.071361" xlink:href="#m49c4a0df46" y="300.433583"/>
      </g>
     </g>
    </g>
    <g id="ytick_10">
     <g id="line2d_38">
      <g>
       <use style="stroke:#000000;stroke-width:0.6;" x="215.071361" xlink:href="#m49c4a0df46" y="277.228217"/>
      </g>
     </g>
    </g>
    <g id="ytick_11">
     <g id="line2d_39">
      <g>
       <use style="stroke:#000000;stroke-width:0.6;" x="215.071361" xlink:href="#m49c4a0df46" y="265.625533"/>
      </g>
     </g>
    </g>
    <g id="ytick_12">
     <g id="line2d_40">
      <g>
       <use style="stroke:#000000;stroke-width:0.6;" x="215.071361" xlink:href="#m49c4a0df46" y="254.02285"/>
      </g>
     </g>
    </g>
    <g id="ytick_13">
     <g id="line2d_41">
      <g>
       <use style="stroke:#000000;stroke-width:0.6;" x="215.071361" xlink:href="#m49c4a0df46" y="242.420166"/>
      </g>
     </g>
    </g>
    <g id="ytick_14">
     <g id="line2d_42">
      <g>
       <use style="stroke:#000000;stroke-width:0.6;" x="215.071361" xlink:href="#m49c4a0df46" y="219.214799"/>
      </g>
     </g>
    </g>
    <g id="ytick_15">
     <g id="line2d_43">
      <g>
       <use style="stroke:#000000;stroke-width:0.6;" x="215.071361" xlink:href="#m49c4a0df46" y="207.612116"/>
      </g>
     </g>
    </g>
    <g id="ytick_16">
     <g id="line2d_44">
      <g>
       <use style="stroke:#000000;stroke-width:0.6;" x="215.071361" xlink:href="#m49c4a0df46" y="196.009432"/>
      </g>
     </g>
    </g>
    <g id="ytick_17">
     <g id="line2d_45">
      <g>
       <use style="stroke:#000000;stroke-width:0.6;" x="215.071361" xlink:href="#m49c4a0df46" y="184.406749"/>
      </g>
     </g>
    </g>
    <g id="ytick_18">
     <g id="line2d_46">
      <g>
       <use style="stroke:#000000;stroke-width:0.6;" x="215.071361" xlink:href="#m49c4a0df46" y="161.201382"/>
      </g>
     </g>
    </g>
    <g id="ytick_19">
     <g id="line2d_47">
      <g>
       <use style="stroke:#000000;stroke-width:0.6;" x="215.071361" xlink:href="#m49c4a0df46" y="149.598699"/>
      </g>
     </g>
    </g>
    <g id="ytick_20">
     <g id="line2d_48">
      <g>
       <use style="stroke:#000000;stroke-width:0.6;" x="215.071361" xlink:href="#m49c4a0df46" y="137.996015"/>
      </g>
     </g>
    </g>
    <g id="ytick_21">
     <g id="line2d_49">
      <g>
       <use style="stroke:#000000;stroke-width:0.6;" x="215.071361" xlink:href="#m49c4a0df46" y="126.393332"/>
      </g>
     </g>
    </g>
    <g id="ytick_22">
     <g id="line2d_50">
      <g>
       <use style="stroke:#000000;stroke-width:0.6;" x="215.071361" xlink:href="#m49c4a0df46" y="103.187965"/>
      </g>
     </g>
    </g>
    <g id="ytick_23">
     <g id="line2d_51">
      <g>
       <use style="stroke:#000000;stroke-width:0.6;" x="215.071361" xlink:href="#m49c4a0df46" y="91.585282"/>
      </g>
     </g>
    </g>
    <g id="ytick_24">
     <g id="line2d_52">
      <g>
       <use style="stroke:#000000;stroke-width:0.6;" x="215.071361" xlink:href="#m49c4a0df46" y="79.982598"/>
      </g>
     </g>
    </g>
    <g id="ytick_25">
     <g id="line2d_53">
      <g>
       <use style="stroke:#000000;stroke-width:0.6;" x="215.071361" xlink:href="#m49c4a0df46" y="68.379915"/>
      </g>
     </g>
    </g>
    <g id="ytick_26">
     <g id="line2d_54">
      <g>
       <use style="stroke:#000000;stroke-width:0.6;" x="215.071361" xlink:href="#m49c4a0df46" y="45.174548"/>
      </g>
     </g>
    </g>
    <g id="ytick_27">
     <g id="line2d_55">
      <g>
       <use style="stroke:#000000;stroke-width:0.6;" x="215.071361" xlink:href="#m49c4a0df46" y="33.571864"/>
      </g>
     </g>
    </g>
    <g id="ytick_28">
     <g id="line2d_56">
      <g>
       <use style="stroke:#000000;stroke-width:0.6;" x="215.071361" xlink:href="#m49c4a0df46" y="21.969181"/>
      </g>
     </g>
    </g>
    <g id="ytick_29">
     <g id="line2d_57">
      <g>
       <use style="stroke:#000000;stroke-width:0.6;" x="215.071361" xlink:href="#m49c4a0df46" y="10.366497"/>
      </g>
     </g>
    </g>
   </g>
   <g id="line2d_58">
    <path clip-path="url(#pf5673f982e)" d="M 389.111613 172.804066 
L 388.911044 170.533985 
L 388.310443 168.290962 
L 387.113638 165.752585 
L 385.995543 164.086341 
L 384.636451 162.486222 
L 382.774751 160.738441 
L 380.606942 159.114502 
L 378.565106 157.864214 
L 376.322451 156.723741 
L 372.599325 155.240983 
L 368.467732 154.05873 
L 365.40385 153.435101 
L 362.171015 152.976099 
L 358.113618 152.655231 
L 352.930216 152.612223 
L 347.4828 152.965208 
L 339.222284 154.205842 
L 336.626395 154.761031 
L 327.333013 157.368765 
L 320.311211 159.971314 
L 303.321285 168.563143 
L 292.237835 176.06357 
L 284.95043 181.931163 
L 277.886276 188.440399 
L 273.823307 192.604114 
L 269.908884 196.94743 
L 266.149564 201.465896 
L 262.565092 206.138002 
L 258.872455 211.38592 
L 255.414643 216.779187 
L 251.659394 223.290131 
L 248.263985 229.938838 
L 245.574993 235.898399 
L 243.130687 242.059988 
L 241.007365 248.249212 
L 239.224379 254.379749 
L 237.369459 262.386092 
L 236.06678 270.278933 
L 235.495348 275.518579 
L 235.192082 280.118057 
L 235.080837 284.62448 
L 235.201075 290.029849 
L 235.847994 297.438808 
L 237.021393 304.402289 
L 237.754242 307.547883 
L 238.87773 311.500435 
L 240.170538 315.228424 
L 242.039735 319.628624 
L 244.132046 323.620602 
L 247.552271 328.711367 
L 249.223121 330.710501 
L 255.055813 335.795692 
L 258.107146 337.465524 
L 263.7283 338.92845 
L 265.335013 338.953846 
L 270.330881 337.743163 
L 273.467506 335.703383 
L 274.610028 334.609814 
L 276.652874 331.956021 
L 278.303323 328.733801 
L 279.184473 326.214456 
L 279.844663 323.461084 
L 280.239414 320.794309 
L 280.456681 316.340591 
L 280.267222 312.505542 
L 279.739755 308.470823 
L 278.925674 304.516589 
L 278.048285 301.260166 
L 276.96672 297.932685 
L 275.679029 294.546335 
L 274.184 291.113429 
L 271.67113 286.122439 
L 268.786128 281.186841 
L 265.492419 276.253596 
L 262.292251 271.98074 
L 258.41131 267.321775 
L 254.177008 262.754037 
L 250.265217 258.922669 
L 246.112156 255.197542 
L 241.44956 251.376451 
L 237.066523 248.088879 
L 230.747714 243.804256 
L 224.112681 239.815397 
L 219.140705 237.133294 
L 210.701641 233.125331 
L 201.970796 229.638177 
L 192.564834 226.571063 
L 180.18023 223.551602 
L 176.254168 222.826971 
L 166.750701 221.526903 
L 150.059146 220.800008 
L 145.62803 220.94773 
L 138.036009 221.548335 
L 130.673906 222.570529 
L 125.665094 223.529813 
L 120.807479 224.678971 
L 112.91469 227.049729 
L 106.890878 229.332492 
L 99.473383 232.815652 
L 95.250763 235.199554 
L 91.34483 237.725454 
L 88.038441 240.158728 
L 85.021051 242.675522 
L 83.085526 244.476505 
L 81.297556 246.302758 
L 79.661633 248.144602 
L 78.176231 249.99839 
L 76.842568 251.85741 
L 75.661522 253.714909 
L 74.276454 256.277179 
L 73.186558 258.805336 
L 72.545496 260.725781 
L 72.079504 262.606701 
L 71.688387 265.621628 
L 71.741009 268.218376 
L 72.173168 270.648242 
L 72.656236 272.135954 
L 73.293369 273.533717 
L 74.377512 275.248385 
L 75.71835 276.774432 
L 76.740985 277.673201 
L 79.027995 279.153139 
L 81.678405 280.250179 
L 84.798739 280.959205 
L 88.240927 281.197111 
L 89.452368 281.167855 
L 94.316943 280.544222 
L 101.957208 278.14691 
L 110.546166 273.601505 
L 116.803808 269.068926 
L 124.63527 261.813289 
L 129.319332 256.503985 
L 135.835126 247.614877 
L 140.354692 240.119161 
L 143.632186 233.754523 
L 146.609535 227.0447 
L 149.407473 219.590256 
L 151.23171 213.842247 
L 152.911463 207.58561 
L 154.317649 201.188038 
L 155.653733 193.195871 
L 156.551561 185.079059 
L 156.940662 178.717609 
L 157.044839 170.826772 
L 156.731728 162.947114 
L 156.490922 159.816983 
L 155.996322 155.057138 
L 155.35022 150.334519 
L 154.195799 143.805483 
L 152.75689 137.395181 
L 150.968155 130.878728 
L 148.895222 124.546949 
L 146.511393 118.324768 
L 143.867771 112.348457 
L 142.10177 108.767457 
L 136.9053 99.654838 
L 132.493642 93.190778 
L 128.237456 87.805652 
L 123.812956 82.942619 
L 122.041615 81.182031 
L 111.240712 72.457957 
L 109.599168 71.411609 
L 100.02469 66.703622 
L 93.793741 64.960649 
L 89.857161 64.461978 
L 85.505901 64.558014 
L 83.451209 64.88976 
L 80.230312 65.890062 
L 77.460077 67.401465 
L 76.228911 68.362004 
L 74.195386 70.609323 
L 73.391775 71.891513 
L 72.736334 73.270708 
L 72.126163 75.142409 
L 71.69123 78.035444 
L 71.706106 80.279959 
L 72.006033 82.62445 
L 72.472225 84.62534 
L 73.137941 86.672594 
L 74.0044 88.756101 
L 75.072231 90.865678 
L 77.135587 94.178069 
L 79.404952 97.156871 
L 81.290275 99.297568 
L 83.376563 101.413215 
L 85.607517 103.447392 
L 88.024303 105.438325 
L 90.623018 107.376736 
L 93.399234 109.253563 
L 96.565029 111.186063 
L 99.973935 113.054118 
L 103.572287 114.817562 
L 110.425339 117.668601 
L 115.688562 119.466882 
L 121.201769 121.030838 
L 130.38058 122.987481 
L 138.029615 124.059101 
L 145.927234 124.675007 
L 153.52504 124.822451 
L 167.018235 124.053383 
L 170.170719 123.687106 
L 183.787584 121.293008 
L 191.070306 119.461687 
L 204.962608 114.84685 
L 211.380404 112.184406 
L 217.635578 109.238398 
L 222.993964 106.418182 
L 229.134251 102.81947 
L 236.065915 98.232015 
L 242.592869 93.327241 
L 247.502789 89.199304 
L 252.203246 84.829622 
L 256.572989 80.328681 
L 259.690744 76.805767 
L 263.390241 72.210633 
L 266.735817 67.564877 
L 268.703525 64.553107 
L 270.519131 61.540109 
L 272.181533 58.533787 
L 273.69004 55.542074 
L 275.409105 51.71526 
L 276.949279 47.724852 
L 278.204105 43.815683 
L 279.326206 39.315822 
L 280.060216 34.990246 
L 280.335974 32.261854 
L 280.445298 27.974411 
L 280.140577 23.989456 
L 279.756608 21.702026 
L 279.15033 19.278056 
L 278.370403 17.039016 
L 277.153752 14.493541 
L 275.697219 12.277585 
L 273.595977 10.016668 
L 271.729037 8.623965 
L 269.705826 7.592722 
L 265.086581 6.646154 
L 260.482745 7.270072 
L 259.219354 7.688101 
L 253.157004 11.177915 
L 252.187336 11.978106 
L 249.072547 15.066563 
L 246.133829 18.827904 
L 244.036609 22.152736 
L 241.658062 26.803391 
L 239.418908 32.461018 
L 237.227926 40.258578 
L 235.94108 47.460816 
L 235.508049 51.250817 
L 235.222649 55.154517 
L 235.089651 59.170189 
L 235.114118 63.280497 
L 235.359214 68.359566 
L 235.957362 74.474117 
L 236.896786 80.703687 
L 237.719059 84.924407 
L 238.697195 89.173294 
L 240.514894 95.77004 
L 242.573652 102.013776 
L 244.960049 108.236611 
L 247.226125 113.453681 
L 249.716925 118.617819 
L 252.608262 124.037096 
L 257.279358 131.800741 
L 262.433446 139.291055 
L 266.792226 144.940831 
L 271.404673 150.361386 
L 277.093056 156.380548 
L 285.593256 164.227372 
L 288.765015 166.848188 
L 299.685252 174.760763 
L 305.863093 178.544783 
L 320.111571 185.554878 
L 323.576824 186.914676 
L 332.800765 189.889936 
L 339.030333 191.36388 
L 345.075374 192.366238 
L 349.449416 192.814993 
L 355.679603 193.02165 
L 359.993854 192.837538 
L 364.079628 192.384341 
L 367.062471 191.859791 
L 369.887753 191.190761 
L 374.525087 189.656878 
L 376.629687 188.74052 
L 379.868166 186.972862 
L 382.453494 185.134071 
L 384.632421 183.12617 
L 386.258528 181.165755 
L 387.546609 179.069125 
L 388.45353 176.899518 
L 388.946906 174.861861 
L 389.111613 172.804066 
L 389.111613 172.804066 
" style="fill:none;stroke:#0000ff;stroke-linecap:square;"/>
   </g>
   <g id="patch_4">
    <path d="M 215.071361 345.6 
L 215.071361 0 
" style="fill:none;stroke:#000000;stroke-linecap:square;stroke-linejoin:miter;stroke-width:0.8;"/>
   </g>
   <g id="patch_5">
    <path d="M 65.339923 172.804066 
L 395.460077 172.804066 
" style="fill:none;stroke:#000000;stroke-linecap:square;stroke-linejoin:miter;stroke-width:0.8;"/>
   </g>
  </g>
 </g>
 <defs>
  <clipPath id="pf5673f982e">
   <rect height="345.6" width="330.120155" x="65.339923" y="0"/>
  </clipPath>
 </defs>
</svg>
