<?xml version="1.0" encoding="utf-8" standalone="no"?>
<!DOCTYPE svg PUBLIC "-//W3C//DTD SVG 1.1//EN"
  "http://www.w3.org/Graphics/SVG/1.1/DTD/svg11.dtd">
<svg xmlns:xlink="http://www.w3.org/1999/xlink" width="460.8pt" height="345.6pt" viewBox="0 0 460.8 345.6" xmlns="http://www.w3.org/2000/svg" version="1.1">
 <metadata>
  <rdf:RDF xmlns:dc="http://purl.org/dc/elements/1.1/" xmlns:cc="http://creativecommons.org/ns#" xmlns:rdf="http://www.w3.org/1999/02/22-rdf-syntax-ns#">
   <cc:Work>
    <dc:type rdf:resource="http://purl.org/dc/dcmitype/StillImage"/>
    <dc:date>2022-01-31T17:28:33.079715</dc:date>
    <dc:format>image/svg+xml</dc:format>
    <dc:creator>
     <cc:Agent>
      <dc:title>Matplotlib v3.5.1, https://matplotlib.org/</dc:title>
     </cc:Agent>
    </dc:creator>
   </cc:Work>
  </rdf:RDF>
 </metadata>
 <defs>
  <style type="text/css">*{stroke-linejoin: round; stroke-linecap: butt}</style>
 </defs>
 <g id="figure_1">
  <g id="patch_1">
   <path d="M 0 345.6 
L 460.8 345.6 
L 460.8 0 
L 0 0 
z
" style="fill: #ffffff"/>
  </g>
  <g id="axes_1">
   <g id="patch_2">
    <path d="M 65.032303 152.646154 
L 395.767697 152.646154 
L 395.767697 10.8 
L 65.032303 10.8 
z
" style="fill: #ffffff"/>
   </g>
   <g id="matplotlib.axis_1">
    <g id="xtick_1">
     <g id="line2d_1">
      <defs>
       <path id="m9d6f1add9a" d="M 0 0 
L 0 3.5 
" style="stroke: #000000; stroke-width: 0.8"/>
      </defs>
      <g>
       <use xlink:href="#m9d6f1add9a" x="71.392599" y="149.918343" style="stroke: #000000; stroke-width: 0.8"/>
      </g>
     </g>
    </g>
    <g id="xtick_2">
     <g id="line2d_2">
      <g>
       <use xlink:href="#m9d6f1add9a" x="150.896299" y="149.918343" style="stroke: #000000; stroke-width: 0.8"/>
      </g>
     </g>
     <g id="text_1">
      <!-- 0.5 -->
      <g transform="translate(142.944737 164.516781)scale(0.1 -0.1)">
       <defs>
        <path id="DejaVuSans-30" d="M 2034 4250 
Q 1547 4250 1301 3770 
Q 1056 3291 1056 2328 
Q 1056 1369 1301 889 
Q 1547 409 2034 409 
Q 2525 409 2770 889 
Q 3016 1369 3016 2328 
Q 3016 3291 2770 3770 
Q 2525 4250 2034 4250 
z
M 2034 4750 
Q 2819 4750 3233 4129 
Q 3647 3509 3647 2328 
Q 3647 1150 3233 529 
Q 2819 -91 2034 -91 
Q 1250 -91 836 529 
Q 422 1150 422 2328 
Q 422 3509 836 4129 
Q 1250 4750 2034 4750 
z
" transform="scale(0.015625)"/>
        <path id="DejaVuSans-2e" d="M 684 794 
L 1344 794 
L 1344 0 
L 684 0 
L 684 794 
z
" transform="scale(0.015625)"/>
        <path id="DejaVuSans-35" d="M 691 4666 
L 3169 4666 
L 3169 4134 
L 1269 4134 
L 1269 2991 
Q 1406 3038 1543 3061 
Q 1681 3084 1819 3084 
Q 2600 3084 3056 2656 
Q 3513 2228 3513 1497 
Q 3513 744 3044 326 
Q 2575 -91 1722 -91 
Q 1428 -91 1123 -41 
Q 819 9 494 109 
L 494 744 
Q 775 591 1075 516 
Q 1375 441 1709 441 
Q 2250 441 2565 725 
Q 2881 1009 2881 1497 
Q 2881 1984 2565 2268 
Q 2250 2553 1709 2553 
Q 1456 2553 1204 2497 
Q 953 2441 691 2322 
L 691 4666 
z
" transform="scale(0.015625)"/>
       </defs>
       <use xlink:href="#DejaVuSans-30"/>
       <use xlink:href="#DejaVuSans-2e" x="63.623047"/>
       <use xlink:href="#DejaVuSans-35" x="95.410156"/>
      </g>
     </g>
    </g>
    <g id="xtick_3">
     <g id="line2d_3">
      <g>
       <use xlink:href="#m9d6f1add9a" x="230.4" y="149.918343" style="stroke: #000000; stroke-width: 0.8"/>
      </g>
     </g>
     <g id="text_2">
      <!-- 1.0 -->
      <g transform="translate(222.448438 164.516781)scale(0.1 -0.1)">
       <defs>
        <path id="DejaVuSans-31" d="M 794 531 
L 1825 531 
L 1825 4091 
L 703 3866 
L 703 4441 
L 1819 4666 
L 2450 4666 
L 2450 531 
L 3481 531 
L 3481 0 
L 794 0 
L 794 531 
z
" transform="scale(0.015625)"/>
       </defs>
       <use xlink:href="#DejaVuSans-31"/>
       <use xlink:href="#DejaVuSans-2e" x="63.623047"/>
       <use xlink:href="#DejaVuSans-30" x="95.410156"/>
      </g>
     </g>
    </g>
    <g id="xtick_4">
     <g id="line2d_4">
      <g>
       <use xlink:href="#m9d6f1add9a" x="309.903701" y="149.918343" style="stroke: #000000; stroke-width: 0.8"/>
      </g>
     </g>
     <g id="text_3">
      <!-- 1.5 -->
      <g transform="translate(301.952138 164.516781)scale(0.1 -0.1)">
       <use xlink:href="#DejaVuSans-31"/>
       <use xlink:href="#DejaVuSans-2e" x="63.623047"/>
       <use xlink:href="#DejaVuSans-35" x="95.410156"/>
      </g>
     </g>
    </g>
    <g id="xtick_5">
     <g id="line2d_5">
      <g>
       <use xlink:href="#m9d6f1add9a" x="389.407401" y="149.918343" style="stroke: #000000; stroke-width: 0.8"/>
      </g>
     </g>
     <g id="text_4">
      <!-- 2.0 -->
      <g transform="translate(381.455839 164.516781)scale(0.1 -0.1)">
       <defs>
        <path id="DejaVuSans-32" d="M 1228 531 
L 3431 531 
L 3431 0 
L 469 0 
L 469 531 
Q 828 903 1448 1529 
Q 2069 2156 2228 2338 
Q 2531 2678 2651 2914 
Q 2772 3150 2772 3378 
Q 2772 3750 2511 3984 
Q 2250 4219 1831 4219 
Q 1534 4219 1204 4116 
Q 875 4013 500 3803 
L 500 4441 
Q 881 4594 1212 4672 
Q 1544 4750 1819 4750 
Q 2544 4750 2975 4387 
Q 3406 4025 3406 3419 
Q 3406 3131 3298 2873 
Q 3191 2616 2906 2266 
Q 2828 2175 2409 1742 
Q 1991 1309 1228 531 
z
" transform="scale(0.015625)"/>
       </defs>
       <use xlink:href="#DejaVuSans-32"/>
       <use xlink:href="#DejaVuSans-2e" x="63.623047"/>
       <use xlink:href="#DejaVuSans-30" x="95.410156"/>
      </g>
     </g>
    </g>
    <g id="xtick_6">
     <g id="line2d_6">
      <defs>
       <path id="m1acd760fcd" d="M 0 0 
L 0 2 
" style="stroke: #000000; stroke-width: 0.6"/>
      </defs>
      <g>
       <use xlink:href="#m1acd760fcd" x="87.293339" y="149.918343" style="stroke: #000000; stroke-width: 0.6"/>
      </g>
     </g>
    </g>
    <g id="xtick_7">
     <g id="line2d_7">
      <g>
       <use xlink:href="#m1acd760fcd" x="103.194079" y="149.918343" style="stroke: #000000; stroke-width: 0.6"/>
      </g>
     </g>
    </g>
    <g id="xtick_8">
     <g id="line2d_8">
      <g>
       <use xlink:href="#m1acd760fcd" x="119.094819" y="149.918343" style="stroke: #000000; stroke-width: 0.6"/>
      </g>
     </g>
    </g>
    <g id="xtick_9">
     <g id="line2d_9">
      <g>
       <use xlink:href="#m1acd760fcd" x="134.995559" y="149.918343" style="stroke: #000000; stroke-width: 0.6"/>
      </g>
     </g>
    </g>
    <g id="xtick_10">
     <g id="line2d_10">
      <g>
       <use xlink:href="#m1acd760fcd" x="166.797039" y="149.918343" style="stroke: #000000; stroke-width: 0.6"/>
      </g>
     </g>
    </g>
    <g id="xtick_11">
     <g id="line2d_11">
      <g>
       <use xlink:href="#m1acd760fcd" x="182.69778" y="149.918343" style="stroke: #000000; stroke-width: 0.6"/>
      </g>
     </g>
    </g>
    <g id="xtick_12">
     <g id="line2d_12">
      <g>
       <use xlink:href="#m1acd760fcd" x="198.59852" y="149.918343" style="stroke: #000000; stroke-width: 0.6"/>
      </g>
     </g>
    </g>
    <g id="xtick_13">
     <g id="line2d_13">
      <g>
       <use xlink:href="#m1acd760fcd" x="214.49926" y="149.918343" style="stroke: #000000; stroke-width: 0.6"/>
      </g>
     </g>
    </g>
    <g id="xtick_14">
     <g id="line2d_14">
      <g>
       <use xlink:href="#m1acd760fcd" x="246.30074" y="149.918343" style="stroke: #000000; stroke-width: 0.6"/>
      </g>
     </g>
    </g>
    <g id="xtick_15">
     <g id="line2d_15">
      <g>
       <use xlink:href="#m1acd760fcd" x="262.20148" y="149.918343" style="stroke: #000000; stroke-width: 0.6"/>
      </g>
     </g>
    </g>
    <g id="xtick_16">
     <g id="line2d_16">
      <g>
       <use xlink:href="#m1acd760fcd" x="278.10222" y="149.918343" style="stroke: #000000; stroke-width: 0.6"/>
      </g>
     </g>
    </g>
    <g id="xtick_17">
     <g id="line2d_17">
      <g>
       <use xlink:href="#m1acd760fcd" x="294.002961" y="149.918343" style="stroke: #000000; stroke-width: 0.6"/>
      </g>
     </g>
    </g>
    <g id="xtick_18">
     <g id="line2d_18">
      <g>
       <use xlink:href="#m1acd760fcd" x="325.804441" y="149.918343" style="stroke: #000000; stroke-width: 0.6"/>
      </g>
     </g>
    </g>
    <g id="xtick_19">
     <g id="line2d_19">
      <g>
       <use xlink:href="#m1acd760fcd" x="341.705181" y="149.918343" style="stroke: #000000; stroke-width: 0.6"/>
      </g>
     </g>
    </g>
    <g id="xtick_20">
     <g id="line2d_20">
      <g>
       <use xlink:href="#m1acd760fcd" x="357.605921" y="149.918343" style="stroke: #000000; stroke-width: 0.6"/>
      </g>
     </g>
    </g>
    <g id="xtick_21">
     <g id="line2d_21">
      <g>
       <use xlink:href="#m1acd760fcd" x="373.506661" y="149.918343" style="stroke: #000000; stroke-width: 0.6"/>
      </g>
     </g>
    </g>
   </g>
   <g id="matplotlib.axis_2">
    <g id="ytick_1">
     <g id="line2d_22">
      <defs>
       <path id="ma096fe3b0c" d="M 0 0 
L -3.5 0 
" style="stroke: #000000; stroke-width: 0.8"/>
      </defs>
      <g>
       <use xlink:href="#ma096fe3b0c" x="71.392599" y="149.918343" style="stroke: #000000; stroke-width: 0.8"/>
      </g>
     </g>
    </g>
    <g id="ytick_2">
     <g id="line2d_23">
      <g>
       <use xlink:href="#ma096fe3b0c" x="71.392599" y="124.477159" style="stroke: #000000; stroke-width: 0.8"/>
      </g>
     </g>
     <g id="text_5">
      <!-- 0.2 -->
      <g transform="translate(48.489474 128.276378)scale(0.1 -0.1)">
       <use xlink:href="#DejaVuSans-30"/>
       <use xlink:href="#DejaVuSans-2e" x="63.623047"/>
       <use xlink:href="#DejaVuSans-32" x="95.410156"/>
      </g>
     </g>
    </g>
    <g id="ytick_3">
     <g id="line2d_24">
      <g>
       <use xlink:href="#ma096fe3b0c" x="71.392599" y="99.035975" style="stroke: #000000; stroke-width: 0.8"/>
      </g>
     </g>
     <g id="text_6">
      <!-- 0.4 -->
      <g transform="translate(48.489474 102.835193)scale(0.1 -0.1)">
       <defs>
        <path id="DejaVuSans-34" d="M 2419 4116 
L 825 1625 
L 2419 1625 
L 2419 4116 
z
M 2253 4666 
L 3047 4666 
L 3047 1625 
L 3713 1625 
L 3713 1100 
L 3047 1100 
L 3047 0 
L 2419 0 
L 2419 1100 
L 313 1100 
L 313 1709 
L 2253 4666 
z
" transform="scale(0.015625)"/>
       </defs>
       <use xlink:href="#DejaVuSans-30"/>
       <use xlink:href="#DejaVuSans-2e" x="63.623047"/>
       <use xlink:href="#DejaVuSans-34" x="95.410156"/>
      </g>
     </g>
    </g>
    <g id="ytick_4">
     <g id="line2d_25">
      <g>
       <use xlink:href="#ma096fe3b0c" x="71.392599" y="73.594791" style="stroke: #000000; stroke-width: 0.8"/>
      </g>
     </g>
     <g id="text_7">
      <!-- 0.6 -->
      <g transform="translate(48.489474 77.394009)scale(0.1 -0.1)">
       <defs>
        <path id="DejaVuSans-36" d="M 2113 2584 
Q 1688 2584 1439 2293 
Q 1191 2003 1191 1497 
Q 1191 994 1439 701 
Q 1688 409 2113 409 
Q 2538 409 2786 701 
Q 3034 994 3034 1497 
Q 3034 2003 2786 2293 
Q 2538 2584 2113 2584 
z
M 3366 4563 
L 3366 3988 
Q 3128 4100 2886 4159 
Q 2644 4219 2406 4219 
Q 1781 4219 1451 3797 
Q 1122 3375 1075 2522 
Q 1259 2794 1537 2939 
Q 1816 3084 2150 3084 
Q 2853 3084 3261 2657 
Q 3669 2231 3669 1497 
Q 3669 778 3244 343 
Q 2819 -91 2113 -91 
Q 1303 -91 875 529 
Q 447 1150 447 2328 
Q 447 3434 972 4092 
Q 1497 4750 2381 4750 
Q 2619 4750 2861 4703 
Q 3103 4656 3366 4563 
z
" transform="scale(0.015625)"/>
       </defs>
       <use xlink:href="#DejaVuSans-30"/>
       <use xlink:href="#DejaVuSans-2e" x="63.623047"/>
       <use xlink:href="#DejaVuSans-36" x="95.410156"/>
      </g>
     </g>
    </g>
    <g id="ytick_5">
     <g id="line2d_26">
      <g>
       <use xlink:href="#ma096fe3b0c" x="71.392599" y="48.153606" style="stroke: #000000; stroke-width: 0.8"/>
      </g>
     </g>
     <g id="text_8">
      <!-- 0.8 -->
      <g transform="translate(48.489474 51.952825)scale(0.1 -0.1)">
       <defs>
        <path id="DejaVuSans-38" d="M 2034 2216 
Q 1584 2216 1326 1975 
Q 1069 1734 1069 1313 
Q 1069 891 1326 650 
Q 1584 409 2034 409 
Q 2484 409 2743 651 
Q 3003 894 3003 1313 
Q 3003 1734 2745 1975 
Q 2488 2216 2034 2216 
z
M 1403 2484 
Q 997 2584 770 2862 
Q 544 3141 544 3541 
Q 544 4100 942 4425 
Q 1341 4750 2034 4750 
Q 2731 4750 3128 4425 
Q 3525 4100 3525 3541 
Q 3525 3141 3298 2862 
Q 3072 2584 2669 2484 
Q 3125 2378 3379 2068 
Q 3634 1759 3634 1313 
Q 3634 634 3220 271 
Q 2806 -91 2034 -91 
Q 1263 -91 848 271 
Q 434 634 434 1313 
Q 434 1759 690 2068 
Q 947 2378 1403 2484 
z
M 1172 3481 
Q 1172 3119 1398 2916 
Q 1625 2713 2034 2713 
Q 2441 2713 2670 2916 
Q 2900 3119 2900 3481 
Q 2900 3844 2670 4047 
Q 2441 4250 2034 4250 
Q 1625 4250 1398 4047 
Q 1172 3844 1172 3481 
z
" transform="scale(0.015625)"/>
       </defs>
       <use xlink:href="#DejaVuSans-30"/>
       <use xlink:href="#DejaVuSans-2e" x="63.623047"/>
       <use xlink:href="#DejaVuSans-38" x="95.410156"/>
      </g>
     </g>
    </g>
    <g id="ytick_6">
     <g id="line2d_27">
      <g>
       <use xlink:href="#ma096fe3b0c" x="71.392599" y="22.712422" style="stroke: #000000; stroke-width: 0.8"/>
      </g>
     </g>
     <g id="text_9">
      <!-- 1.0 -->
      <g transform="translate(48.489474 26.511641)scale(0.1 -0.1)">
       <use xlink:href="#DejaVuSans-31"/>
       <use xlink:href="#DejaVuSans-2e" x="63.623047"/>
       <use xlink:href="#DejaVuSans-30" x="95.410156"/>
      </g>
     </g>
    </g>
    <g id="ytick_7">
     <g id="line2d_28">
      <defs>
       <path id="mc8287b8446" d="M 0 0 
L -2 0 
" style="stroke: #000000; stroke-width: 0.6"/>
      </defs>
      <g>
       <use xlink:href="#mc8287b8446" x="71.392599" y="143.558047" style="stroke: #000000; stroke-width: 0.6"/>
      </g>
     </g>
    </g>
    <g id="ytick_8">
     <g id="line2d_29">
      <g>
       <use xlink:href="#mc8287b8446" x="71.392599" y="137.197751" style="stroke: #000000; stroke-width: 0.6"/>
      </g>
     </g>
    </g>
    <g id="ytick_9">
     <g id="line2d_30">
      <g>
       <use xlink:href="#mc8287b8446" x="71.392599" y="130.837455" style="stroke: #000000; stroke-width: 0.6"/>
      </g>
     </g>
    </g>
    <g id="ytick_10">
     <g id="line2d_31">
      <g>
       <use xlink:href="#mc8287b8446" x="71.392599" y="118.116863" style="stroke: #000000; stroke-width: 0.6"/>
      </g>
     </g>
    </g>
    <g id="ytick_11">
     <g id="line2d_32">
      <g>
       <use xlink:href="#mc8287b8446" x="71.392599" y="111.756567" style="stroke: #000000; stroke-width: 0.6"/>
      </g>
     </g>
    </g>
    <g id="ytick_12">
     <g id="line2d_33">
      <g>
       <use xlink:href="#mc8287b8446" x="71.392599" y="105.396271" style="stroke: #000000; stroke-width: 0.6"/>
      </g>
     </g>
    </g>
    <g id="ytick_13">
     <g id="line2d_34">
      <g>
       <use xlink:href="#mc8287b8446" x="71.392599" y="92.675679" style="stroke: #000000; stroke-width: 0.6"/>
      </g>
     </g>
    </g>
    <g id="ytick_14">
     <g id="line2d_35">
      <g>
       <use xlink:href="#mc8287b8446" x="71.392599" y="86.315383" style="stroke: #000000; stroke-width: 0.6"/>
      </g>
     </g>
    </g>
    <g id="ytick_15">
     <g id="line2d_36">
      <g>
       <use xlink:href="#mc8287b8446" x="71.392599" y="79.955087" style="stroke: #000000; stroke-width: 0.6"/>
      </g>
     </g>
    </g>
    <g id="ytick_16">
     <g id="line2d_37">
      <g>
       <use xlink:href="#mc8287b8446" x="71.392599" y="67.234494" style="stroke: #000000; stroke-width: 0.6"/>
      </g>
     </g>
    </g>
    <g id="ytick_17">
     <g id="line2d_38">
      <g>
       <use xlink:href="#mc8287b8446" x="71.392599" y="60.874198" style="stroke: #000000; stroke-width: 0.6"/>
      </g>
     </g>
    </g>
    <g id="ytick_18">
     <g id="line2d_39">
      <g>
       <use xlink:href="#mc8287b8446" x="71.392599" y="54.513902" style="stroke: #000000; stroke-width: 0.6"/>
      </g>
     </g>
    </g>
    <g id="ytick_19">
     <g id="line2d_40">
      <g>
       <use xlink:href="#mc8287b8446" x="71.392599" y="41.79331" style="stroke: #000000; stroke-width: 0.6"/>
      </g>
     </g>
    </g>
    <g id="ytick_20">
     <g id="line2d_41">
      <g>
       <use xlink:href="#mc8287b8446" x="71.392599" y="35.433014" style="stroke: #000000; stroke-width: 0.6"/>
      </g>
     </g>
    </g>
    <g id="ytick_21">
     <g id="line2d_42">
      <g>
       <use xlink:href="#mc8287b8446" x="71.392599" y="29.072718" style="stroke: #000000; stroke-width: 0.6"/>
      </g>
     </g>
    </g>
    <g id="ytick_22">
     <g id="line2d_43">
      <g>
       <use xlink:href="#mc8287b8446" x="71.392599" y="16.352126" style="stroke: #000000; stroke-width: 0.6"/>
      </g>
     </g>
    </g>
   </g>
   <g id="line2d_44">
    <path d="M 71.392599 149.918343 
L 84.704488 123.480513 
L 92.970728 107.549573 
L 100.35974 93.875209 
L 106.309947 83.371328 
L 112.226015 73.463468 
L 116.911148 66.044116 
L 121.181827 59.639925 
L 125.555937 53.459167 
L 129.503447 48.227373 
L 133.634509 43.119166 
L 137.485625 38.706472 
L 140.919882 35.063198 
L 145.017266 31.083625 
L 149.113456 27.510622 
L 152.430629 24.91716 
L 154.910798 23.154345 
L 157.999938 21.169828 
L 161.441966 19.234006 
L 164.171425 17.90434 
L 167.272645 16.612399 
L 171.273311 15.285732 
L 174.976189 14.393686 
L 177.780599 13.928856 
L 181.636094 13.579695 
L 185.168384 13.546848 
L 188.762028 13.786245 
L 191.640496 14.170057 
L 195.337011 14.904365 
L 198.014136 15.599472 
L 201.60207 16.736978 
L 205.265344 18.130351 
L 209.669498 20.097318 
L 213.650851 22.131067 
L 217.957348 24.582714 
L 222.215338 27.241963 
L 226.08104 29.839752 
L 232.017152 34.128965 
L 238.919647 39.501711 
L 245.8057 45.185432 
L 253.230187 51.572797 
L 266.090308 62.971178 
L 281.901313 76.953134 
L 290.805547 84.552331 
L 297.864309 90.346557 
L 305.079811 96.013362 
L 310.662932 100.199006 
L 318.304962 105.622889 
L 325.680884 110.505105 
L 331.115194 113.87336 
L 337.697367 117.689849 
L 344.258996 121.207807 
L 350.438721 124.26276 
L 355.757174 126.695751 
L 362.94065 129.702923 
L 369.830487 132.298448 
L 375.946034 134.377655 
L 382.53757 136.39581 
L 389.407401 138.269055 
L 389.407401 138.269055 
" clip-path="url(#p7b7a1d14ca)" style="fill: none; stroke: #0000ff; stroke-linecap: square"/>
   </g>
   <g id="line2d_45">
    <path d="M 71.392599 149.918343 
L 82.896234 127.150657 
L 88.231172 116.988127 
L 94.262146 106.032973 
L 98.667326 98.486277 
L 103.39093 90.900639 
L 107.418627 84.896547 
L 111.569588 79.196562 
L 114.231236 75.817935 
L 117.448793 72.034589 
L 121.45227 67.802413 
L 123.503155 65.843402 
L 126.693538 63.082155 
L 129.094208 61.236134 
L 131.994713 59.272469 
L 134.713538 57.696706 
L 137.193813 56.481713 
L 139.470286 55.551838 
L 141.486679 54.874706 
L 144.051246 54.209518 
L 147.044275 53.705398 
L 149.599858 53.501262 
L 152.142537 53.499051 
L 154.288249 53.648452 
L 157.133917 54.052732 
L 160.180023 54.735138 
L 162.777548 55.511015 
L 165.830441 56.638445 
L 168.672245 57.884614 
L 171.734104 59.424644 
L 175.767126 61.738646 
L 180.025446 64.495473 
L 184.819194 67.928894 
L 190.978517 72.75376 
L 197.316643 78.074589 
L 206.031651 85.732449 
L 222.55403 100.317904 
L 229.409464 106.072087 
L 235.930338 111.260632 
L 242.276177 115.99122 
L 248.806407 120.494673 
L 254.34382 124.006917 
L 259.977637 127.284715 
L 264.243907 129.568334 
L 269.97374 132.370287 
L 276.167306 135.067767 
L 281.660503 137.18579 
L 287.984043 139.324516 
L 294.87657 141.319228 
L 299.567515 142.493473 
L 306.020697 143.889966 
L 313.531812 145.231706 
L 321.804052 146.406991 
L 329.918602 147.303483 
L 338.056865 147.994921 
L 348.993471 148.667968 
L 360.791733 149.150451 
L 375.826641 149.519709 
L 389.407401 149.704979 
L 389.407401 149.704979 
" clip-path="url(#p7b7a1d14ca)" style="fill: none; stroke: #0000ff; stroke-linecap: square"/>
   </g>
   <g id="line2d_46">
    <path d="M 71.392599 149.918343 
L 81.253149 130.423456 
L 85.722601 121.948222 
L 90.48424 113.351237 
L 94.393747 106.715061 
L 97.524822 101.721787 
L 100.967807 96.599125 
L 104.521977 91.750249 
L 107.3449 88.237683 
L 110.150226 85.057994 
L 113.29363 81.87566 
L 115.995672 79.46904 
L 118.357828 77.61769 
L 121.47053 75.540036 
L 123.188692 74.569415 
L 125.483642 73.467366 
L 127.749248 72.595445 
L 129.928779 71.95629 
L 131.828464 71.55606 
L 134.58969 71.228668 
L 136.965209 71.18114 
L 139.623692 71.374997 
L 142.558897 71.878406 
L 145.299925 72.607827 
L 147.98083 73.548466 
L 151.182021 74.944619 
L 154.699923 76.790889 
L 158.842745 79.334766 
L 162.709242 82.017592 
L 167.993569 86.072204 
L 173.458607 90.614121 
L 181.049533 97.265613 
L 193.701102 108.460067 
L 200.834642 114.46262 
L 206.892216 119.238981 
L 211.558522 122.674776 
L 217.91568 126.977445 
L 223.289445 130.256891 
L 228.077204 132.89832 
L 232.186073 134.956643 
L 237.516234 137.347928 
L 242.476923 139.303154 
L 247.67225 141.089114 
L 251.568131 142.26494 
L 256.336559 143.528641 
L 261.249095 144.646221 
L 268.480694 145.991676 
L 274.233558 146.842534 
L 282.152974 147.751622 
L 290.556109 148.450719 
L 300.454776 149.012268 
L 311.985791 149.417824 
L 326.860254 149.69691 
L 349.34465 149.860289 
L 389.407401 149.914435 
L 389.407401 149.914435 
" clip-path="url(#p7b7a1d14ca)" style="fill: none; stroke: #0000ff; stroke-linecap: square"/>
   </g>
   <g id="patch_3">
    <path d="M 71.392599 152.646154 
L 71.392599 10.8 
" style="fill: none; stroke: #000000; stroke-width: 0.8; stroke-linejoin: miter; stroke-linecap: square"/>
   </g>
   <g id="patch_4">
    <path d="M 65.032303 149.918343 
L 395.767697 149.918343 
" style="fill: none; stroke: #000000; stroke-width: 0.8; stroke-linejoin: miter; stroke-linecap: square"/>
   </g>
  </g>
  <g id="axes_2">
   <g id="patch_5">
    <path d="M 65.024702 320.046154 
L 395.775298 320.046154 
L 395.775298 178.2 
L 65.024702 178.2 
z
" style="fill: #ffffff"/>
   </g>
   <g id="matplotlib.axis_3">
    <g id="xtick_22">
     <g id="line2d_47">
      <g>
       <use xlink:href="#m9d6f1add9a" x="71.38529" y="317.318343" style="stroke: #000000; stroke-width: 0.8"/>
      </g>
     </g>
    </g>
    <g id="xtick_23">
     <g id="line2d_48">
      <g>
       <use xlink:href="#m9d6f1add9a" x="150.892645" y="317.318343" style="stroke: #000000; stroke-width: 0.8"/>
      </g>
     </g>
     <g id="text_10">
      <!-- 0.5 -->
      <g transform="translate(142.941083 331.916781)scale(0.1 -0.1)">
       <use xlink:href="#DejaVuSans-30"/>
       <use xlink:href="#DejaVuSans-2e" x="63.623047"/>
       <use xlink:href="#DejaVuSans-35" x="95.410156"/>
      </g>
     </g>
    </g>
    <g id="xtick_24">
     <g id="line2d_49">
      <g>
       <use xlink:href="#m9d6f1add9a" x="230.4" y="317.318343" style="stroke: #000000; stroke-width: 0.8"/>
      </g>
     </g>
     <g id="text_11">
      <!-- 1.0 -->
      <g transform="translate(222.448438 331.916781)scale(0.1 -0.1)">
       <use xlink:href="#DejaVuSans-31"/>
       <use xlink:href="#DejaVuSans-2e" x="63.623047"/>
       <use xlink:href="#DejaVuSans-30" x="95.410156"/>
      </g>
     </g>
    </g>
    <g id="xtick_25">
     <g id="line2d_50">
      <g>
       <use xlink:href="#m9d6f1add9a" x="309.907355" y="317.318343" style="stroke: #000000; stroke-width: 0.8"/>
      </g>
     </g>
     <g id="text_12">
      <!-- 1.5 -->
      <g transform="translate(301.955792 331.916781)scale(0.1 -0.1)">
       <use xlink:href="#DejaVuSans-31"/>
       <use xlink:href="#DejaVuSans-2e" x="63.623047"/>
       <use xlink:href="#DejaVuSans-35" x="95.410156"/>
      </g>
     </g>
    </g>
    <g id="xtick_26">
     <g id="line2d_51">
      <g>
       <use xlink:href="#m9d6f1add9a" x="389.41471" y="317.318343" style="stroke: #000000; stroke-width: 0.8"/>
      </g>
     </g>
     <g id="text_13">
      <!-- 2.0 -->
      <g transform="translate(381.463147 331.916781)scale(0.1 -0.1)">
       <use xlink:href="#DejaVuSans-32"/>
       <use xlink:href="#DejaVuSans-2e" x="63.623047"/>
       <use xlink:href="#DejaVuSans-30" x="95.410156"/>
      </g>
     </g>
    </g>
    <g id="xtick_27">
     <g id="line2d_52">
      <g>
       <use xlink:href="#m1acd760fcd" x="87.286761" y="317.318343" style="stroke: #000000; stroke-width: 0.6"/>
      </g>
     </g>
    </g>
    <g id="xtick_28">
     <g id="line2d_53">
      <g>
       <use xlink:href="#m1acd760fcd" x="103.188232" y="317.318343" style="stroke: #000000; stroke-width: 0.6"/>
      </g>
     </g>
    </g>
    <g id="xtick_29">
     <g id="line2d_54">
      <g>
       <use xlink:href="#m1acd760fcd" x="119.089703" y="317.318343" style="stroke: #000000; stroke-width: 0.6"/>
      </g>
     </g>
    </g>
    <g id="xtick_30">
     <g id="line2d_55">
      <g>
       <use xlink:href="#m1acd760fcd" x="134.991174" y="317.318343" style="stroke: #000000; stroke-width: 0.6"/>
      </g>
     </g>
    </g>
    <g id="xtick_31">
     <g id="line2d_56">
      <g>
       <use xlink:href="#m1acd760fcd" x="166.794116" y="317.318343" style="stroke: #000000; stroke-width: 0.6"/>
      </g>
     </g>
    </g>
    <g id="xtick_32">
     <g id="line2d_57">
      <g>
       <use xlink:href="#m1acd760fcd" x="182.695587" y="317.318343" style="stroke: #000000; stroke-width: 0.6"/>
      </g>
     </g>
    </g>
    <g id="xtick_33">
     <g id="line2d_58">
      <g>
       <use xlink:href="#m1acd760fcd" x="198.597058" y="317.318343" style="stroke: #000000; stroke-width: 0.6"/>
      </g>
     </g>
    </g>
    <g id="xtick_34">
     <g id="line2d_59">
      <g>
       <use xlink:href="#m1acd760fcd" x="214.498529" y="317.318343" style="stroke: #000000; stroke-width: 0.6"/>
      </g>
     </g>
    </g>
    <g id="xtick_35">
     <g id="line2d_60">
      <g>
       <use xlink:href="#m1acd760fcd" x="246.301471" y="317.318343" style="stroke: #000000; stroke-width: 0.6"/>
      </g>
     </g>
    </g>
    <g id="xtick_36">
     <g id="line2d_61">
      <g>
       <use xlink:href="#m1acd760fcd" x="262.202942" y="317.318343" style="stroke: #000000; stroke-width: 0.6"/>
      </g>
     </g>
    </g>
    <g id="xtick_37">
     <g id="line2d_62">
      <g>
       <use xlink:href="#m1acd760fcd" x="278.104413" y="317.318343" style="stroke: #000000; stroke-width: 0.6"/>
      </g>
     </g>
    </g>
    <g id="xtick_38">
     <g id="line2d_63">
      <g>
       <use xlink:href="#m1acd760fcd" x="294.005884" y="317.318343" style="stroke: #000000; stroke-width: 0.6"/>
      </g>
     </g>
    </g>
    <g id="xtick_39">
     <g id="line2d_64">
      <g>
       <use xlink:href="#m1acd760fcd" x="325.808826" y="317.318343" style="stroke: #000000; stroke-width: 0.6"/>
      </g>
     </g>
    </g>
    <g id="xtick_40">
     <g id="line2d_65">
      <g>
       <use xlink:href="#m1acd760fcd" x="341.710297" y="317.318343" style="stroke: #000000; stroke-width: 0.6"/>
      </g>
     </g>
    </g>
    <g id="xtick_41">
     <g id="line2d_66">
      <g>
       <use xlink:href="#m1acd760fcd" x="357.611768" y="317.318343" style="stroke: #000000; stroke-width: 0.6"/>
      </g>
     </g>
    </g>
    <g id="xtick_42">
     <g id="line2d_67">
      <g>
       <use xlink:href="#m1acd760fcd" x="373.513239" y="317.318343" style="stroke: #000000; stroke-width: 0.6"/>
      </g>
     </g>
    </g>
   </g>
   <g id="matplotlib.axis_4">
    <g id="ytick_23">
     <g id="line2d_68">
      <g>
       <use xlink:href="#ma096fe3b0c" x="71.38529" y="317.318343" style="stroke: #000000; stroke-width: 0.8"/>
      </g>
     </g>
    </g>
    <g id="ytick_24">
     <g id="line2d_69">
      <g>
       <use xlink:href="#ma096fe3b0c" x="71.38529" y="291.87599" style="stroke: #000000; stroke-width: 0.8"/>
      </g>
     </g>
     <g id="text_14">
      <!-- 0.2 -->
      <g transform="translate(48.482165 295.675208)scale(0.1 -0.1)">
       <use xlink:href="#DejaVuSans-30"/>
       <use xlink:href="#DejaVuSans-2e" x="63.623047"/>
       <use xlink:href="#DejaVuSans-32" x="95.410156"/>
      </g>
     </g>
    </g>
    <g id="ytick_25">
     <g id="line2d_70">
      <g>
       <use xlink:href="#ma096fe3b0c" x="71.38529" y="266.433636" style="stroke: #000000; stroke-width: 0.8"/>
      </g>
     </g>
     <g id="text_15">
      <!-- 0.4 -->
      <g transform="translate(48.482165 270.232855)scale(0.1 -0.1)">
       <use xlink:href="#DejaVuSans-30"/>
       <use xlink:href="#DejaVuSans-2e" x="63.623047"/>
       <use xlink:href="#DejaVuSans-34" x="95.410156"/>
      </g>
     </g>
    </g>
    <g id="ytick_26">
     <g id="line2d_71">
      <g>
       <use xlink:href="#ma096fe3b0c" x="71.38529" y="240.991282" style="stroke: #000000; stroke-width: 0.8"/>
      </g>
     </g>
     <g id="text_16">
      <!-- 0.6 -->
      <g transform="translate(48.482165 244.790501)scale(0.1 -0.1)">
       <use xlink:href="#DejaVuSans-30"/>
       <use xlink:href="#DejaVuSans-2e" x="63.623047"/>
       <use xlink:href="#DejaVuSans-36" x="95.410156"/>
      </g>
     </g>
    </g>
    <g id="ytick_27">
     <g id="line2d_72">
      <g>
       <use xlink:href="#ma096fe3b0c" x="71.38529" y="215.548929" style="stroke: #000000; stroke-width: 0.8"/>
      </g>
     </g>
     <g id="text_17">
      <!-- 0.8 -->
      <g transform="translate(48.482165 219.348148)scale(0.1 -0.1)">
       <use xlink:href="#DejaVuSans-30"/>
       <use xlink:href="#DejaVuSans-2e" x="63.623047"/>
       <use xlink:href="#DejaVuSans-38" x="95.410156"/>
      </g>
     </g>
    </g>
    <g id="ytick_28">
     <g id="line2d_73">
      <g>
       <use xlink:href="#ma096fe3b0c" x="71.38529" y="190.106575" style="stroke: #000000; stroke-width: 0.8"/>
      </g>
     </g>
     <g id="text_18">
      <!-- 1.0 -->
      <g transform="translate(48.482165 193.905794)scale(0.1 -0.1)">
       <use xlink:href="#DejaVuSans-31"/>
       <use xlink:href="#DejaVuSans-2e" x="63.623047"/>
       <use xlink:href="#DejaVuSans-30" x="95.410156"/>
      </g>
     </g>
    </g>
    <g id="ytick_29">
     <g id="line2d_74">
      <g>
       <use xlink:href="#mc8287b8446" x="71.38529" y="310.957755" style="stroke: #000000; stroke-width: 0.6"/>
      </g>
     </g>
    </g>
    <g id="ytick_30">
     <g id="line2d_75">
      <g>
       <use xlink:href="#mc8287b8446" x="71.38529" y="304.597166" style="stroke: #000000; stroke-width: 0.6"/>
      </g>
     </g>
    </g>
    <g id="ytick_31">
     <g id="line2d_76">
      <g>
       <use xlink:href="#mc8287b8446" x="71.38529" y="298.236578" style="stroke: #000000; stroke-width: 0.6"/>
      </g>
     </g>
    </g>
    <g id="ytick_32">
     <g id="line2d_77">
      <g>
       <use xlink:href="#mc8287b8446" x="71.38529" y="285.515401" style="stroke: #000000; stroke-width: 0.6"/>
      </g>
     </g>
    </g>
    <g id="ytick_33">
     <g id="line2d_78">
      <g>
       <use xlink:href="#mc8287b8446" x="71.38529" y="279.154813" style="stroke: #000000; stroke-width: 0.6"/>
      </g>
     </g>
    </g>
    <g id="ytick_34">
     <g id="line2d_79">
      <g>
       <use xlink:href="#mc8287b8446" x="71.38529" y="272.794224" style="stroke: #000000; stroke-width: 0.6"/>
      </g>
     </g>
    </g>
    <g id="ytick_35">
     <g id="line2d_80">
      <g>
       <use xlink:href="#mc8287b8446" x="71.38529" y="260.073048" style="stroke: #000000; stroke-width: 0.6"/>
      </g>
     </g>
    </g>
    <g id="ytick_36">
     <g id="line2d_81">
      <g>
       <use xlink:href="#mc8287b8446" x="71.38529" y="253.712459" style="stroke: #000000; stroke-width: 0.6"/>
      </g>
     </g>
    </g>
    <g id="ytick_37">
     <g id="line2d_82">
      <g>
       <use xlink:href="#mc8287b8446" x="71.38529" y="247.351871" style="stroke: #000000; stroke-width: 0.6"/>
      </g>
     </g>
    </g>
    <g id="ytick_38">
     <g id="line2d_83">
      <g>
       <use xlink:href="#mc8287b8446" x="71.38529" y="234.630694" style="stroke: #000000; stroke-width: 0.6"/>
      </g>
     </g>
    </g>
    <g id="ytick_39">
     <g id="line2d_84">
      <g>
       <use xlink:href="#mc8287b8446" x="71.38529" y="228.270106" style="stroke: #000000; stroke-width: 0.6"/>
      </g>
     </g>
    </g>
    <g id="ytick_40">
     <g id="line2d_85">
      <g>
       <use xlink:href="#mc8287b8446" x="71.38529" y="221.909517" style="stroke: #000000; stroke-width: 0.6"/>
      </g>
     </g>
    </g>
    <g id="ytick_41">
     <g id="line2d_86">
      <g>
       <use xlink:href="#mc8287b8446" x="71.38529" y="209.18834" style="stroke: #000000; stroke-width: 0.6"/>
      </g>
     </g>
    </g>
    <g id="ytick_42">
     <g id="line2d_87">
      <g>
       <use xlink:href="#mc8287b8446" x="71.38529" y="202.827752" style="stroke: #000000; stroke-width: 0.6"/>
      </g>
     </g>
    </g>
    <g id="ytick_43">
     <g id="line2d_88">
      <g>
       <use xlink:href="#mc8287b8446" x="71.38529" y="196.467164" style="stroke: #000000; stroke-width: 0.6"/>
      </g>
     </g>
    </g>
    <g id="ytick_44">
     <g id="line2d_89">
      <g>
       <use xlink:href="#mc8287b8446" x="71.38529" y="183.745987" style="stroke: #000000; stroke-width: 0.6"/>
      </g>
     </g>
    </g>
   </g>
   <g id="line2d_90">
    <path d="M 71.38529 317.318343 
L 83.921109 292.402039 
L 92.373761 276.066371 
L 98.910308 263.893288 
L 103.063614 256.426898 
L 109.078227 246.051465 
L 113.939646 238.091684 
L 119.147566 230.034547 
L 123.315354 223.964736 
L 127.832285 217.79038 
L 131.795615 212.735433 
L 135.947412 207.817955 
L 138.780951 204.689986 
L 143.257044 200.134622 
L 147.136831 196.574973 
L 150.833659 193.523544 
L 153.71763 191.375272 
L 157.900774 188.621959 
L 161.909866 186.385578 
L 164.627958 185.09217 
L 168.024619 183.726777 
L 171.376184 182.649665 
L 174.902842 181.801525 
L 178.147774 181.274699 
L 182.081861 180.954242 
L 184.605331 180.927811 
L 187.694614 181.080859 
L 190.246011 181.357162 
L 193.722315 181.944981 
L 196.953768 182.702333 
L 200.094089 183.625098 
L 203.491508 184.82157 
L 208.068286 186.741125 
L 212.514932 188.921703 
L 216.67776 191.222806 
L 222.207524 194.631489 
L 227.672215 198.35028 
L 232.627407 201.983113 
L 239.272487 207.180474 
L 247.215213 213.775079 
L 256.297335 221.660168 
L 288.581356 250.076119 
L 296.067601 256.288503 
L 302.868622 261.7013 
L 310.786396 267.684502 
L 317.17815 272.241281 
L 323.426217 276.445675 
L 328.449357 279.641 
L 334.944819 283.524675 
L 341.385949 287.098386 
L 347.410879 290.193023 
L 353.025998 292.865002 
L 360.066981 295.934217 
L 364.694067 297.786419 
L 371.966508 300.445034 
L 378.482563 302.578085 
L 384.541007 304.363031 
L 389.41471 305.668519 
L 389.41471 305.668519 
" clip-path="url(#p4ea4f26621)" style="fill: none; stroke: #ff0000; stroke-linecap: square"/>
   </g>
   <g id="line2d_91">
    <path d="M 71.38529 317.318343 
L 81.97712 296.321825 
L 88.240704 284.356604 
L 93.278561 275.160763 
L 97.557066 267.735201 
L 101.278317 261.612077 
L 105.580209 254.969962 
L 108.727075 250.433811 
L 112.57414 245.285193 
L 115.799365 241.32257 
L 119.668324 237.013142 
L 122.552106 234.125508 
L 125.485022 231.478843 
L 128.203486 229.290155 
L 131.36824 227.064772 
L 133.338813 225.854687 
L 136.192251 224.340529 
L 139.612699 222.893655 
L 142.254668 222.047137 
L 145.063772 221.401366 
L 147.172952 221.085321 
L 149.860732 220.887362 
L 152.15312 220.895157 
L 154.282279 221.043777 
L 156.908873 221.408594 
L 159.834992 222.041736 
L 162.553576 222.833996 
L 165.370542 223.851133 
L 169.324472 225.593164 
L 171.776057 226.844379 
L 175.807321 229.160713 
L 179.439593 231.496333 
L 183.527705 234.370688 
L 187.596433 237.451568 
L 192.343326 241.271683 
L 199.440261 247.312268 
L 210.568885 257.177783 
L 221.170387 266.524206 
L 229.135568 273.245638 
L 235.493252 278.320764 
L 242.227937 283.354588 
L 247.311173 286.8956 
L 253.105357 290.64441 
L 257.777374 293.43837 
L 262.950266 296.292098 
L 268.27309 298.968262 
L 273.631207 301.40228 
L 279.316935 303.711278 
L 285.184271 305.81431 
L 290.705626 307.551006 
L 296.789438 309.213991 
L 303.588216 310.790762 
L 309.686612 311.979503 
L 316.059802 313.021263 
L 324.410669 314.119609 
L 332.290663 314.924017 
L 341.811286 315.655006 
L 352.12732 316.216997 
L 363.101578 316.62208 
L 380.119867 316.989963 
L 389.41471 317.104969 
L 389.41471 317.104969 
" clip-path="url(#p4ea4f26621)" style="fill: none; stroke-dasharray: 3.7,1.6; stroke-dashoffset: 0; stroke: #ff0000"/>
   </g>
   <g id="line2d_92">
    <path d="M 71.38529 317.318343 
L 80.396541 299.468641 
L 85.731564 289.317948 
L 90.197245 281.241444 
L 94.857755 273.343955 
L 98.020716 268.347864 
L 101.966688 262.579126 
L 104.29291 259.43844 
L 107.987353 254.872305 
L 111.221821 251.318712 
L 114.02716 248.583961 
L 116.855911 246.160008 
L 118.944893 244.587349 
L 121.332143 243.017202 
L 124.217976 241.441887 
L 126.461828 240.459341 
L 129.282742 239.520677 
L 132.150386 238.898177 
L 134.639234 238.6216 
L 137.123408 238.581986 
L 139.450167 238.751465 
L 141.479474 239.05614 
L 144.144665 239.668382 
L 147.155199 240.633624 
L 150.297012 241.928528 
L 153.72005 243.644358 
L 156.968559 245.536774 
L 160.750294 248.023457 
L 166.062782 251.944842 
L 169.87792 255.004407 
L 177.384263 261.421061 
L 199.425035 280.704978 
L 205.833174 285.827939 
L 210.348969 289.205338 
L 215.706867 292.932962 
L 220.120663 295.762585 
L 225.108008 298.690557 
L 229.868083 301.218168 
L 234.263271 303.32464 
L 239.949555 305.737904 
L 243.244796 306.982838 
L 249.294535 308.994459 
L 255.417629 310.698794 
L 259.784966 311.731009 
L 264.420657 312.676918 
L 270.506359 313.711218 
L 277.803579 314.686202 
L 284.908534 315.40731 
L 294.37655 316.096106 
L 305.437606 316.614146 
L 317.771569 316.951343 
L 334.598949 317.176599 
L 362.631896 317.293536 
L 389.41471 317.314435 
L 389.41471 317.314435 
" clip-path="url(#p4ea4f26621)" style="fill: none; stroke-dasharray: 6.4,1.6,1,1.6; stroke-dashoffset: 0; stroke: #008000"/>
   </g>
   <g id="patch_6">
    <path d="M 71.38529 320.046154 
L 71.38529 178.2 
" style="fill: none; stroke: #000000; stroke-width: 0.8; stroke-linejoin: miter; stroke-linecap: square"/>
   </g>
   <g id="patch_7">
    <path d="M 65.024702 317.318343 
L 395.775298 317.318343 
" style="fill: none; stroke: #000000; stroke-width: 0.8; stroke-linejoin: miter; stroke-linecap: square"/>
   </g>
  </g>
 </g>
 <defs>
  <clipPath id="p7b7a1d14ca">
   <rect x="65.032303" y="10.8" width="330.735395" height="141.846154"/>
  </clipPath>
  <clipPath id="p4ea4f26621">
   <rect x="65.024702" y="178.2" width="330.750597" height="141.846154"/>
  </clipPath>
 </defs>
</svg>
