<?xml version="1.0" encoding="utf-8" standalone="no"?>
<!DOCTYPE svg PUBLIC "-//W3C//DTD SVG 1.1//EN"
  "http://www.w3.org/Graphics/SVG/1.1/DTD/svg11.dtd">
<svg xmlns:xlink="http://www.w3.org/1999/xlink" width="460.8pt" height="345.6pt" viewBox="0 0 460.8 345.6" xmlns="http://www.w3.org/2000/svg" version="1.1">
 <metadata>
  <rdf:RDF xmlns:dc="http://purl.org/dc/elements/1.1/" xmlns:cc="http://creativecommons.org/ns#" xmlns:rdf="http://www.w3.org/1999/02/22-rdf-syntax-ns#">
   <cc:Work>
    <dc:type rdf:resource="http://purl.org/dc/dcmitype/StillImage"/>
    <dc:date>2023-12-06T18:15:03.631374</dc:date>
    <dc:format>image/svg+xml</dc:format>
    <dc:creator>
     <cc:Agent>
      <dc:title>Matplotlib v3.8.0, https://matplotlib.org/</dc:title>
     </cc:Agent>
    </dc:creator>
   </cc:Work>
  </rdf:RDF>
 </metadata>
 <defs>
  <style type="text/css">*{stroke-linejoin: round; stroke-linecap: butt}</style>
 </defs>
 <g id="figure_1">
  <g id="patch_1">
   <path d="M 0 345.6 
L 460.8 345.6 
L 460.8 0 
L 0 0 
z
" style="fill: #ffffff"/>
  </g>
  <g id="axes_1">
   <g id="patch_2">
    <path d="M 48.641036 345.6 
L 412.158964 345.6 
L 412.158964 0 
L 48.641036 0 
z
" style="fill: #ffffff"/>
   </g>
   <g id="matplotlib.axis_1">
    <g id="xtick_1">
     <g id="line2d_1">
      <defs>
       <path id="m2f04caddce" d="M 0 0 
L 0 3.5 
" style="stroke: #000000; stroke-width: 0.8"/>
      </defs>
      <g>
       <use xlink:href="#m2f04caddce" x="70.34898" y="159.962641" style="stroke: #000000; stroke-width: 0.8"/>
      </g>
     </g>
     <g id="text_1">
      <!-- −2 -->
      <g transform="translate(62.977886 174.561078) scale(0.1 -0.1)">
       <defs>
        <path id="DejaVuSans-2212" d="M 678 2272 
L 4684 2272 
L 4684 1741 
L 678 1741 
L 678 2272 
z
" transform="scale(0.015625)"/>
        <path id="DejaVuSans-32" d="M 1228 531 
L 3431 531 
L 3431 0 
L 469 0 
L 469 531 
Q 828 903 1448 1529 
Q 2069 2156 2228 2338 
Q 2531 2678 2651 2914 
Q 2772 3150 2772 3378 
Q 2772 3750 2511 3984 
Q 2250 4219 1831 4219 
Q 1534 4219 1204 4116 
Q 875 4013 500 3803 
L 500 4441 
Q 881 4594 1212 4672 
Q 1544 4750 1819 4750 
Q 2544 4750 2975 4387 
Q 3406 4025 3406 3419 
Q 3406 3131 3298 2873 
Q 3191 2616 2906 2266 
Q 2828 2175 2409 1742 
Q 1991 1309 1228 531 
z
" transform="scale(0.015625)"/>
       </defs>
       <use xlink:href="#DejaVuSans-2212"/>
       <use xlink:href="#DejaVuSans-32" x="83.789062"/>
      </g>
     </g>
    </g>
    <g id="xtick_2">
     <g id="line2d_2">
      <g>
       <use xlink:href="#m2f04caddce" x="145.003656" y="159.962641" style="stroke: #000000; stroke-width: 0.8"/>
      </g>
     </g>
     <g id="text_2">
      <!-- −1 -->
      <g transform="translate(137.632563 174.561078) scale(0.1 -0.1)">
       <defs>
        <path id="DejaVuSans-31" d="M 794 531 
L 1825 531 
L 1825 4091 
L 703 3866 
L 703 4441 
L 1819 4666 
L 2450 4666 
L 2450 531 
L 3481 531 
L 3481 0 
L 794 0 
L 794 531 
z
" transform="scale(0.015625)"/>
       </defs>
       <use xlink:href="#DejaVuSans-2212"/>
       <use xlink:href="#DejaVuSans-31" x="83.789062"/>
      </g>
     </g>
    </g>
    <g id="xtick_3">
     <g id="line2d_3">
      <g>
       <use xlink:href="#m2f04caddce" x="219.658333" y="159.962641" style="stroke: #000000; stroke-width: 0.8"/>
      </g>
     </g>
    </g>
    <g id="xtick_4">
     <g id="line2d_4">
      <g>
       <use xlink:href="#m2f04caddce" x="294.313009" y="159.962641" style="stroke: #000000; stroke-width: 0.8"/>
      </g>
     </g>
     <g id="text_3">
      <!-- 1 -->
      <g transform="translate(291.131759 174.561078) scale(0.1 -0.1)">
       <use xlink:href="#DejaVuSans-31"/>
      </g>
     </g>
    </g>
    <g id="xtick_5">
     <g id="line2d_5">
      <g>
       <use xlink:href="#m2f04caddce" x="368.967686" y="159.962641" style="stroke: #000000; stroke-width: 0.8"/>
      </g>
     </g>
     <g id="text_4">
      <!-- 2 -->
      <g transform="translate(365.786436 174.561078) scale(0.1 -0.1)">
       <use xlink:href="#DejaVuSans-32"/>
      </g>
     </g>
    </g>
    <g id="xtick_6">
     <g id="line2d_6">
      <defs>
       <path id="mb992303e5c" d="M 0 0 
L 0 2 
" style="stroke: #000000; stroke-width: 0.6"/>
      </defs>
      <g>
       <use xlink:href="#mb992303e5c" x="55.418045" y="159.962641" style="stroke: #000000; stroke-width: 0.6"/>
      </g>
     </g>
    </g>
    <g id="xtick_7">
     <g id="line2d_7">
      <g>
       <use xlink:href="#mb992303e5c" x="85.279915" y="159.962641" style="stroke: #000000; stroke-width: 0.6"/>
      </g>
     </g>
    </g>
    <g id="xtick_8">
     <g id="line2d_8">
      <g>
       <use xlink:href="#mb992303e5c" x="100.210851" y="159.962641" style="stroke: #000000; stroke-width: 0.6"/>
      </g>
     </g>
    </g>
    <g id="xtick_9">
     <g id="line2d_9">
      <g>
       <use xlink:href="#mb992303e5c" x="115.141786" y="159.962641" style="stroke: #000000; stroke-width: 0.6"/>
      </g>
     </g>
    </g>
    <g id="xtick_10">
     <g id="line2d_10">
      <g>
       <use xlink:href="#mb992303e5c" x="130.072721" y="159.962641" style="stroke: #000000; stroke-width: 0.6"/>
      </g>
     </g>
    </g>
    <g id="xtick_11">
     <g id="line2d_11">
      <g>
       <use xlink:href="#mb992303e5c" x="159.934592" y="159.962641" style="stroke: #000000; stroke-width: 0.6"/>
      </g>
     </g>
    </g>
    <g id="xtick_12">
     <g id="line2d_12">
      <g>
       <use xlink:href="#mb992303e5c" x="174.865527" y="159.962641" style="stroke: #000000; stroke-width: 0.6"/>
      </g>
     </g>
    </g>
    <g id="xtick_13">
     <g id="line2d_13">
      <g>
       <use xlink:href="#mb992303e5c" x="189.796462" y="159.962641" style="stroke: #000000; stroke-width: 0.6"/>
      </g>
     </g>
    </g>
    <g id="xtick_14">
     <g id="line2d_14">
      <g>
       <use xlink:href="#mb992303e5c" x="204.727398" y="159.962641" style="stroke: #000000; stroke-width: 0.6"/>
      </g>
     </g>
    </g>
    <g id="xtick_15">
     <g id="line2d_15">
      <g>
       <use xlink:href="#mb992303e5c" x="234.589268" y="159.962641" style="stroke: #000000; stroke-width: 0.6"/>
      </g>
     </g>
    </g>
    <g id="xtick_16">
     <g id="line2d_16">
      <g>
       <use xlink:href="#mb992303e5c" x="249.520203" y="159.962641" style="stroke: #000000; stroke-width: 0.6"/>
      </g>
     </g>
    </g>
    <g id="xtick_17">
     <g id="line2d_17">
      <g>
       <use xlink:href="#mb992303e5c" x="264.451139" y="159.962641" style="stroke: #000000; stroke-width: 0.6"/>
      </g>
     </g>
    </g>
    <g id="xtick_18">
     <g id="line2d_18">
      <g>
       <use xlink:href="#mb992303e5c" x="279.382074" y="159.962641" style="stroke: #000000; stroke-width: 0.6"/>
      </g>
     </g>
    </g>
    <g id="xtick_19">
     <g id="line2d_19">
      <g>
       <use xlink:href="#mb992303e5c" x="309.243945" y="159.962641" style="stroke: #000000; stroke-width: 0.6"/>
      </g>
     </g>
    </g>
    <g id="xtick_20">
     <g id="line2d_20">
      <g>
       <use xlink:href="#mb992303e5c" x="324.17488" y="159.962641" style="stroke: #000000; stroke-width: 0.6"/>
      </g>
     </g>
    </g>
    <g id="xtick_21">
     <g id="line2d_21">
      <g>
       <use xlink:href="#mb992303e5c" x="339.105815" y="159.962641" style="stroke: #000000; stroke-width: 0.6"/>
      </g>
     </g>
    </g>
    <g id="xtick_22">
     <g id="line2d_22">
      <g>
       <use xlink:href="#mb992303e5c" x="354.036751" y="159.962641" style="stroke: #000000; stroke-width: 0.6"/>
      </g>
     </g>
    </g>
    <g id="xtick_23">
     <g id="line2d_23">
      <g>
       <use xlink:href="#mb992303e5c" x="383.898621" y="159.962641" style="stroke: #000000; stroke-width: 0.6"/>
      </g>
     </g>
    </g>
    <g id="xtick_24">
     <g id="line2d_24">
      <g>
       <use xlink:href="#mb992303e5c" x="398.829556" y="159.962641" style="stroke: #000000; stroke-width: 0.6"/>
      </g>
     </g>
    </g>
   </g>
   <g id="matplotlib.axis_2">
    <g id="ytick_1">
     <g id="line2d_25">
      <defs>
       <path id="m89545d0ba1" d="M 0 0 
L -3.5 0 
" style="stroke: #000000; stroke-width: 0.8"/>
      </defs>
      <g>
       <use xlink:href="#m89545d0ba1" x="219.658333" y="309.271994" style="stroke: #000000; stroke-width: 0.8"/>
      </g>
     </g>
     <g id="text_5">
      <!-- −2 -->
      <g transform="translate(197.916145 313.071213) scale(0.1 -0.1)">
       <use xlink:href="#DejaVuSans-2212"/>
       <use xlink:href="#DejaVuSans-32" x="83.789062"/>
      </g>
     </g>
    </g>
    <g id="ytick_2">
     <g id="line2d_26">
      <g>
       <use xlink:href="#m89545d0ba1" x="219.658333" y="234.617317" style="stroke: #000000; stroke-width: 0.8"/>
      </g>
     </g>
     <g id="text_6">
      <!-- −1 -->
      <g transform="translate(197.916145 238.416536) scale(0.1 -0.1)">
       <use xlink:href="#DejaVuSans-2212"/>
       <use xlink:href="#DejaVuSans-31" x="83.789062"/>
      </g>
     </g>
    </g>
    <g id="ytick_3">
     <g id="line2d_27">
      <g>
       <use xlink:href="#m89545d0ba1" x="219.658333" y="159.962641" style="stroke: #000000; stroke-width: 0.8"/>
      </g>
     </g>
    </g>
    <g id="ytick_4">
     <g id="line2d_28">
      <g>
       <use xlink:href="#m89545d0ba1" x="219.658333" y="85.307965" style="stroke: #000000; stroke-width: 0.8"/>
      </g>
     </g>
     <g id="text_7">
      <!-- 1 -->
      <g transform="translate(206.295833 89.107183) scale(0.1 -0.1)">
       <use xlink:href="#DejaVuSans-31"/>
      </g>
     </g>
    </g>
    <g id="ytick_5">
     <g id="line2d_29">
      <g>
       <use xlink:href="#m89545d0ba1" x="219.658333" y="10.653288" style="stroke: #000000; stroke-width: 0.8"/>
      </g>
     </g>
     <g id="text_8">
      <!-- 2 -->
      <g transform="translate(206.295833 14.452507) scale(0.1 -0.1)">
       <use xlink:href="#DejaVuSans-32"/>
      </g>
     </g>
    </g>
    <g id="ytick_6">
     <g id="line2d_30">
      <defs>
       <path id="m63d5d3eee6" d="M 0 0 
L -2 0 
" style="stroke: #000000; stroke-width: 0.6"/>
      </defs>
      <g>
       <use xlink:href="#m63d5d3eee6" x="219.658333" y="339.133865" style="stroke: #000000; stroke-width: 0.6"/>
      </g>
     </g>
    </g>
    <g id="ytick_7">
     <g id="line2d_31">
      <g>
       <use xlink:href="#m63d5d3eee6" x="219.658333" y="324.202929" style="stroke: #000000; stroke-width: 0.6"/>
      </g>
     </g>
    </g>
    <g id="ytick_8">
     <g id="line2d_32">
      <g>
       <use xlink:href="#m63d5d3eee6" x="219.658333" y="294.341059" style="stroke: #000000; stroke-width: 0.6"/>
      </g>
     </g>
    </g>
    <g id="ytick_9">
     <g id="line2d_33">
      <g>
       <use xlink:href="#m63d5d3eee6" x="219.658333" y="279.410123" style="stroke: #000000; stroke-width: 0.6"/>
      </g>
     </g>
    </g>
    <g id="ytick_10">
     <g id="line2d_34">
      <g>
       <use xlink:href="#m63d5d3eee6" x="219.658333" y="264.479188" style="stroke: #000000; stroke-width: 0.6"/>
      </g>
     </g>
    </g>
    <g id="ytick_11">
     <g id="line2d_35">
      <g>
       <use xlink:href="#m63d5d3eee6" x="219.658333" y="249.548253" style="stroke: #000000; stroke-width: 0.6"/>
      </g>
     </g>
    </g>
    <g id="ytick_12">
     <g id="line2d_36">
      <g>
       <use xlink:href="#m63d5d3eee6" x="219.658333" y="219.686382" style="stroke: #000000; stroke-width: 0.6"/>
      </g>
     </g>
    </g>
    <g id="ytick_13">
     <g id="line2d_37">
      <g>
       <use xlink:href="#m63d5d3eee6" x="219.658333" y="204.755447" style="stroke: #000000; stroke-width: 0.6"/>
      </g>
     </g>
    </g>
    <g id="ytick_14">
     <g id="line2d_38">
      <g>
       <use xlink:href="#m63d5d3eee6" x="219.658333" y="189.824512" style="stroke: #000000; stroke-width: 0.6"/>
      </g>
     </g>
    </g>
    <g id="ytick_15">
     <g id="line2d_39">
      <g>
       <use xlink:href="#m63d5d3eee6" x="219.658333" y="174.893576" style="stroke: #000000; stroke-width: 0.6"/>
      </g>
     </g>
    </g>
    <g id="ytick_16">
     <g id="line2d_40">
      <g>
       <use xlink:href="#m63d5d3eee6" x="219.658333" y="145.031706" style="stroke: #000000; stroke-width: 0.6"/>
      </g>
     </g>
    </g>
    <g id="ytick_17">
     <g id="line2d_41">
      <g>
       <use xlink:href="#m63d5d3eee6" x="219.658333" y="130.10077" style="stroke: #000000; stroke-width: 0.6"/>
      </g>
     </g>
    </g>
    <g id="ytick_18">
     <g id="line2d_42">
      <g>
       <use xlink:href="#m63d5d3eee6" x="219.658333" y="115.169835" style="stroke: #000000; stroke-width: 0.6"/>
      </g>
     </g>
    </g>
    <g id="ytick_19">
     <g id="line2d_43">
      <g>
       <use xlink:href="#m63d5d3eee6" x="219.658333" y="100.2389" style="stroke: #000000; stroke-width: 0.6"/>
      </g>
     </g>
    </g>
    <g id="ytick_20">
     <g id="line2d_44">
      <g>
       <use xlink:href="#m63d5d3eee6" x="219.658333" y="70.377029" style="stroke: #000000; stroke-width: 0.6"/>
      </g>
     </g>
    </g>
    <g id="ytick_21">
     <g id="line2d_45">
      <g>
       <use xlink:href="#m63d5d3eee6" x="219.658333" y="55.446094" style="stroke: #000000; stroke-width: 0.6"/>
      </g>
     </g>
    </g>
    <g id="ytick_22">
     <g id="line2d_46">
      <g>
       <use xlink:href="#m63d5d3eee6" x="219.658333" y="40.515159" style="stroke: #000000; stroke-width: 0.6"/>
      </g>
     </g>
    </g>
    <g id="ytick_23">
     <g id="line2d_47">
      <g>
       <use xlink:href="#m63d5d3eee6" x="219.658333" y="25.584223" style="stroke: #000000; stroke-width: 0.6"/>
      </g>
     </g>
    </g>
   </g>
   <g id="line2d_48">
    <path d="M 219.658333 159.962641 
L 219.658333 159.962641 
L 219.658333 159.962641 
L 219.658333 159.962641 
L 219.658333 159.962641 
L 219.658333 159.962641 
L 219.658333 159.962641 
L 219.658333 159.962641 
L 219.658333 159.962641 
L 219.658333 159.962641 
L 219.658333 159.962641 
L 219.658333 159.962641 
L 219.658333 159.962641 
L 219.658333 159.962641 
L 219.658333 159.962641 
L 219.658333 159.962641 
L 219.658333 159.962641 
L 219.658333 159.962641 
L 219.658333 159.962641 
L 219.658333 159.962641 
L 219.658333 159.962641 
L 219.658333 159.962641 
L 219.658333 159.962641 
" clip-path="url(#p6fd57802bd)" style="fill: none; stroke: #0000ff; stroke-linecap: square"/>
   </g>
   <g id="line2d_49">
    <path d="M 197.581335 113.161734 
L 196.475329 113.699621 
L 192.597071 115.855874 
L 189.966413 117.582119 
L 187.196143 119.664689 
L 186.10854 120.565558 
L 184.820758 121.699577 
L 181.336364 125.189872 
L 179.495278 127.333701 
L 178.372871 128.766017 
L 176.719555 131.083928 
L 174.938777 133.926511 
L 173.270224 137.030958 
L 172.046777 139.692998 
L 171.320486 141.491817 
L 169.74192 146.321877 
L 169.437723 147.488306 
L 168.517398 152.068119 
L 168.456231 152.475086 
L 168.437872 152.601719 
L 168.433332 152.633384 
" clip-path="url(#p6fd57802bd)" style="fill: none; stroke: #0000ff; stroke-linecap: square"/>
   </g>
   <g id="line2d_50">
    <path d="M 138.447223 148.496635 
L 138.391511 148.898405 
L 138.334132 149.328359 
L 137.795856 154.937851 
L 137.65275 161.303522 
L 137.706768 163.226788 
L 138.054537 168.18056 
L 138.618854 172.584707 
L 140.622308 181.872009 
L 142.014217 186.384316 
L 143.287173 189.865143 
L 145.418135 194.821022 
L 146.757636 197.541919 
L 148.371769 200.520494 
L 151.787658 206.009196 
L 155.316274 210.823364 
L 157.473168 213.43898 
L 160.439948 216.706773 
L 163.392145 219.63533 
L 165.334415 221.40876 
L 165.690676 221.721896 
L 165.869484 221.877691 
L 165.959056 221.955393 
" clip-path="url(#p6fd57802bd)" style="fill: none; stroke: #0000ff; stroke-linecap: square"/>
   </g>
   <g id="line2d_51">
    <path d="M 152.92099 239.063855 
L 154.428333 240.311393 
L 158.757891 243.640662 
L 165.70861 248.281961 
L 168.025074 249.655905 
L 173.156435 252.420461 
L 177.437322 254.452117 
L 187.374177 258.291722 
L 189.470115 258.9553 
L 197.369749 261.027442 
L 201.099472 261.778375 
L 207.503539 262.739759 
L 211.821644 263.158868 
L 222.156555 263.425841 
L 225.174271 263.308901 
L 231.744101 262.747899 
L 238.051477 261.808442 
L 241.974284 261.021402 
L 247.865673 259.537843 
L 248.739053 259.286287 
L 248.95705 259.2222 
" clip-path="url(#p6fd57802bd)" style="fill: none; stroke: #0000ff; stroke-linecap: square"/>
   </g>
   <g id="line2d_52">
    <path d="M 253.926013 275.124463 
L 254.431362 274.972882 
L 255.071261 274.777464 
L 259.212831 273.417305 
L 266.601662 270.564824 
L 274.013919 267.116686 
L 282.406162 262.428387 
L 285.390623 260.5399 
L 294.490318 253.966328 
L 295.969946 252.769197 
L 301.591266 247.846164 
L 308.519469 240.834253 
L 314.213505 234.096564 
L 314.764709 233.388089 
L 319.936449 226.150393 
L 322.97765 221.294834 
L 325.843436 216.187573 
L 329.034878 209.694829 
L 332.560458 201.067741 
L 334.628759 194.867086 
L 334.828694 194.201611 
L 334.927217 193.868442 
L 334.976118 193.701752 
" clip-path="url(#p6fd57802bd)" style="fill: none; stroke: #0000ff; stroke-linecap: square"/>
   </g>
   <g id="line2d_53">
    <path d="M 348.517504 195.85016 
L 348.836317 194.685089 
L 349.088983 193.731068 
L 351.101173 184.769491 
L 352.528999 175.389436 
L 353.295523 165.767932 
L 353.393352 162.709376 
L 353.163821 151.662973 
L 352.741712 146.493637 
L 350.776043 133.491032 
L 350.074845 130.228262 
L 347.573467 120.843355 
L 346.013699 116.065927 
L 341.269731 104.255659 
L 337.183694 96.084715 
L 336.393017 94.650977 
L 330.835563 85.583723 
L 325.357259 77.98498 
L 321.512421 73.254252 
" clip-path="url(#p6fd57802bd)" style="fill: none; stroke: #0000ff; stroke-linecap: square"/>
   </g>
   <g id="line2d_54">
    <path d="M 329.112764 64.445752 
L 328.982581 64.296778 
L 328.721606 63.999363 
L 328.197233 63.406669 
L 328.067477 63.261008 
L 322.996044 57.859429 
L 317.370823 52.463721 
L 311.290925 47.236351 
L 306.820243 43.744958 
L 296.783649 36.855232 
L 289.553726 32.611228 
L 281.270609 28.404 
L 276.947827 26.464842 
L 267.562695 22.817023 
L 262.181679 21.054349 
L 255.000826 19.056088 
L 241.045892 16.274365 
L 233.54458 15.356553 
L 224.851903 14.784215 
L 222.228512 14.714086 
L 211.240655 14.935433 
L 202.683069 15.686555 
L 200.185112 16.002431 
L 199.352894 16.117455 
L 198.937038 16.176771 
L 198.729174 16.20688 
" clip-path="url(#p6fd57802bd)" style="fill: none; stroke: #0000ff; stroke-linecap: square"/>
   </g>
   <g id="line2d_55">
    <path d="M 195.295997 6.646154 
L 188.077118 7.968906 
L 186.525429 8.299596 
L 170.321645 12.771066 
L 163.638625 15.182598 
L 159.883523 16.692125 
L 145.509708 23.575508 
L 139.778435 26.851145 
L 135.32604 29.62641 
L 124.520596 37.291211 
L 118.920597 41.846693 
L 114.152202 46.085844 
L 105.379032 54.892617 
L 101.603702 59.153055 
L 96.993248 64.816724 
L 91.468692 72.401892 
L 86.499175 80.162219 
L 78.963868 94.353676 
L 78.792815 94.721745 
L 78.460013 95.445178 
L 78.295004 95.807533 
" clip-path="url(#p6fd57802bd)" style="fill: none; stroke: #0000ff; stroke-linecap: square"/>
   </g>
   <g id="line2d_56">
    <path d="M 70.114577 92.557006 
L 69.430936 94.094714 
L 69.157605 94.721661 
L 65.158872 104.855735 
L 62.441375 113.168596 
L 59.831248 123.055221 
L 57.87165 132.908552 
L 56.927122 139.33723 
L 56.060813 148.016674 
L 55.631765 158.499877 
L 55.997133 171.001942 
L 56.611482 177.923125 
L 58.047314 188.047033 
L 59.301599 194.496286 
L 61.874479 204.808044 
L 65.594426 216.275757 
L 71.166963 229.656025 
L 72.822402 233.079424 
L 79.105922 244.531396 
L 80.999913 247.602228 
" clip-path="url(#p6fd57802bd)" style="fill: none; stroke: #0000ff; stroke-linecap: square"/>
   </g>
   <g id="line2d_57">
    <path d="M 75.51018 253.613527 
L 75.640369 253.813612 
L 75.901581 254.213236 
L 76.427328 255.010302 
L 76.514261 255.141174 
L 83.042549 264.295311 
L 85.786381 267.79343 
L 93.194296 276.392989 
L 99.302325 282.69654 
L 108.092945 290.738567 
L 115.042311 296.361565 
L 121.684303 301.208059 
L 134.536062 309.305795 
L 146.007236 315.283903 
L 155.885342 319.594042 
L 159.552955 321.010839 
L 169.580909 324.405428 
L 176.013612 326.228443 
L 190.062349 329.294435 
L 200.904624 330.835333 
L 208.698829 331.511666 
L 215.106849 331.801119 
L 218.430873 331.857004 
L 219.424985 331.861228 
L 219.922046 331.861184 
L 220.170576 331.860623 
" clip-path="url(#p6fd57802bd)" style="fill: none; stroke: #0000ff; stroke-linecap: square"/>
   </g>
   <g id="line2d_58">
    <path d="M 222.521019 338.953846 
L 231.983556 338.551933 
L 238.220484 338.011772 
L 246.110788 337.011544 
L 263.625275 333.493487 
L 268.945911 332.057908 
L 282.149481 327.715146 
L 292.281876 323.58375 
L 299.701224 320.085038 
L 307.234355 316.092352 
L 315.810773 310.961829 
L 325.40323 304.406621 
L 335.001987 296.863656 
L 342.436812 290.237318 
L 351.406845 281.158252 
L 354.35825 277.869294 
L 362.279145 268.153909 
L 367.45074 260.974773 
L 369.599009 257.757529 
L 370.162064 256.888764 
L 370.441706 256.453164 
L 370.581054 256.235061 
" clip-path="url(#p6fd57802bd)" style="fill: none; stroke: #0000ff; stroke-linecap: square"/>
   </g>
   <g id="line2d_59">
    <path d="M 377.342413 257.684975 
L 380.919323 251.662242 
L 383.204743 247.521168 
L 390.621849 231.972361 
L 393.694967 224.190156 
L 396.612259 215.651347 
L 400.690906 200.473519 
L 402.814848 189.417941 
L 404.090441 179.93065 
L 404.808328 171.512663 
L 405.168235 159.962641 
" clip-path="url(#p6fd57802bd)" style="fill: none; stroke: #0000ff; stroke-linecap: square"/>
   </g>
   <g id="patch_3">
    <path d="M 219.658333 345.6 
L 219.658333 0 
" style="fill: none; stroke: #000000; stroke-width: 0.8; stroke-linejoin: miter; stroke-linecap: square"/>
   </g>
   <g id="patch_4">
    <path d="M 48.641036 159.962641 
L 412.158964 159.962641 
" style="fill: none; stroke: #000000; stroke-width: 0.8; stroke-linejoin: miter; stroke-linecap: square"/>
   </g>
  </g>
 </g>
 <defs>
  <clipPath id="p6fd57802bd">
   <rect x="48.641036" y="0" width="363.517929" height="345.6"/>
  </clipPath>
 </defs>
</svg>
