<?xml version="1.0" encoding="utf-8" standalone="no"?>
<!DOCTYPE svg PUBLIC "-//W3C//DTD SVG 1.1//EN"
  "http://www.w3.org/Graphics/SVG/1.1/DTD/svg11.dtd">
<svg xmlns:xlink="http://www.w3.org/1999/xlink" width="460.8pt" height="345.6pt" viewBox="0 0 460.8 345.6" xmlns="http://www.w3.org/2000/svg" version="1.1">
 <metadata>
  <rdf:RDF xmlns:dc="http://purl.org/dc/elements/1.1/" xmlns:cc="http://creativecommons.org/ns#" xmlns:rdf="http://www.w3.org/1999/02/22-rdf-syntax-ns#">
   <cc:Work>
    <dc:type rdf:resource="http://purl.org/dc/dcmitype/StillImage"/>
    <dc:date>2022-09-21T15:21:25.521746</dc:date>
    <dc:format>image/svg+xml</dc:format>
    <dc:creator>
     <cc:Agent>
      <dc:title>Matplotlib v3.5.2, https://matplotlib.org/</dc:title>
     </cc:Agent>
    </dc:creator>
   </cc:Work>
  </rdf:RDF>
 </metadata>
 <defs>
  <style type="text/css">*{stroke-linejoin: round; stroke-linecap: butt}</style>
 </defs>
 <g id="figure_1">
  <g id="patch_1">
   <path d="M 0 345.6 
L 460.8 345.6 
L 460.8 0 
L 0 0 
z
" style="fill: #ffffff"/>
  </g>
  <g id="axes_1">
   <g id="patch_2">
    <path d="M 0 345.6 
L 460.8 345.6 
L 460.8 0 
L 0 0 
z
" style="fill: #ffffff"/>
   </g>
   <g id="matplotlib.axis_1">
    <g id="xtick_1">
     <g id="line2d_1">
      <defs>
       <path id="me6dccc6df6" d="M 0 0 
L 0 3.5 
" style="stroke: #000000; stroke-width: 0.8"/>
      </defs>
      <g>
       <use xlink:href="#me6dccc6df6" x="40.50989" y="172.8" style="stroke: #000000; stroke-width: 0.8"/>
      </g>
     </g>
     <g id="text_1">
      <!-- −3 -->
      <g transform="translate(33.138796 187.398437)scale(0.1 -0.1)">
       <defs>
        <path id="DejaVuSans-2212" d="M 678 2272 
L 4684 2272 
L 4684 1741 
L 678 1741 
L 678 2272 
z
" transform="scale(0.015625)"/>
        <path id="DejaVuSans-33" d="M 2597 2516 
Q 3050 2419 3304 2112 
Q 3559 1806 3559 1356 
Q 3559 666 3084 287 
Q 2609 -91 1734 -91 
Q 1441 -91 1130 -33 
Q 819 25 488 141 
L 488 750 
Q 750 597 1062 519 
Q 1375 441 1716 441 
Q 2309 441 2620 675 
Q 2931 909 2931 1356 
Q 2931 1769 2642 2001 
Q 2353 2234 1838 2234 
L 1294 2234 
L 1294 2753 
L 1863 2753 
Q 2328 2753 2575 2939 
Q 2822 3125 2822 3475 
Q 2822 3834 2567 4026 
Q 2313 4219 1838 4219 
Q 1578 4219 1281 4162 
Q 984 4106 628 3988 
L 628 4550 
Q 988 4650 1302 4700 
Q 1616 4750 1894 4750 
Q 2613 4750 3031 4423 
Q 3450 4097 3450 3541 
Q 3450 3153 3228 2886 
Q 3006 2619 2597 2516 
z
" transform="scale(0.015625)"/>
       </defs>
       <use xlink:href="#DejaVuSans-2212"/>
       <use xlink:href="#DejaVuSans-33" x="83.789062"/>
      </g>
     </g>
    </g>
    <g id="xtick_2">
     <g id="line2d_2">
      <g>
       <use xlink:href="#me6dccc6df6" x="103.806593" y="172.8" style="stroke: #000000; stroke-width: 0.8"/>
      </g>
     </g>
     <g id="text_2">
      <!-- −2 -->
      <g transform="translate(96.4355 187.398437)scale(0.1 -0.1)">
       <defs>
        <path id="DejaVuSans-32" d="M 1228 531 
L 3431 531 
L 3431 0 
L 469 0 
L 469 531 
Q 828 903 1448 1529 
Q 2069 2156 2228 2338 
Q 2531 2678 2651 2914 
Q 2772 3150 2772 3378 
Q 2772 3750 2511 3984 
Q 2250 4219 1831 4219 
Q 1534 4219 1204 4116 
Q 875 4013 500 3803 
L 500 4441 
Q 881 4594 1212 4672 
Q 1544 4750 1819 4750 
Q 2544 4750 2975 4387 
Q 3406 4025 3406 3419 
Q 3406 3131 3298 2873 
Q 3191 2616 2906 2266 
Q 2828 2175 2409 1742 
Q 1991 1309 1228 531 
z
" transform="scale(0.015625)"/>
       </defs>
       <use xlink:href="#DejaVuSans-2212"/>
       <use xlink:href="#DejaVuSans-32" x="83.789062"/>
      </g>
     </g>
    </g>
    <g id="xtick_3">
     <g id="line2d_3">
      <g>
       <use xlink:href="#me6dccc6df6" x="167.103297" y="172.8" style="stroke: #000000; stroke-width: 0.8"/>
      </g>
     </g>
     <g id="text_3">
      <!-- −1 -->
      <g transform="translate(159.732203 187.398437)scale(0.1 -0.1)">
       <defs>
        <path id="DejaVuSans-31" d="M 794 531 
L 1825 531 
L 1825 4091 
L 703 3866 
L 703 4441 
L 1819 4666 
L 2450 4666 
L 2450 531 
L 3481 531 
L 3481 0 
L 794 0 
L 794 531 
z
" transform="scale(0.015625)"/>
       </defs>
       <use xlink:href="#DejaVuSans-2212"/>
       <use xlink:href="#DejaVuSans-31" x="83.789062"/>
      </g>
     </g>
    </g>
    <g id="xtick_4">
     <g id="line2d_4">
      <g>
       <use xlink:href="#me6dccc6df6" x="230.4" y="172.8" style="stroke: #000000; stroke-width: 0.8"/>
      </g>
     </g>
    </g>
    <g id="xtick_5">
     <g id="line2d_5">
      <g>
       <use xlink:href="#me6dccc6df6" x="293.696703" y="172.8" style="stroke: #000000; stroke-width: 0.8"/>
      </g>
     </g>
     <g id="text_4">
      <!-- 1 -->
      <g transform="translate(290.515453 187.398437)scale(0.1 -0.1)">
       <use xlink:href="#DejaVuSans-31"/>
      </g>
     </g>
    </g>
    <g id="xtick_6">
     <g id="line2d_6">
      <g>
       <use xlink:href="#me6dccc6df6" x="356.993407" y="172.8" style="stroke: #000000; stroke-width: 0.8"/>
      </g>
     </g>
     <g id="text_5">
      <!-- 2 -->
      <g transform="translate(353.812157 187.398437)scale(0.1 -0.1)">
       <use xlink:href="#DejaVuSans-32"/>
      </g>
     </g>
    </g>
    <g id="xtick_7">
     <g id="line2d_7">
      <g>
       <use xlink:href="#me6dccc6df6" x="420.29011" y="172.8" style="stroke: #000000; stroke-width: 0.8"/>
      </g>
     </g>
     <g id="text_6">
      <!-- 3 -->
      <g transform="translate(417.10886 187.398437)scale(0.1 -0.1)">
       <use xlink:href="#DejaVuSans-33"/>
      </g>
     </g>
    </g>
    <g id="xtick_8">
     <g id="line2d_8">
      <defs>
       <path id="m24ddd4ea42" d="M 0 0 
L 0 2 
" style="stroke: #000000; stroke-width: 0.6"/>
      </defs>
      <g>
       <use xlink:href="#m24ddd4ea42" x="2.531868" y="172.8" style="stroke: #000000; stroke-width: 0.6"/>
      </g>
     </g>
    </g>
    <g id="xtick_9">
     <g id="line2d_9">
      <g>
       <use xlink:href="#m24ddd4ea42" x="15.191209" y="172.8" style="stroke: #000000; stroke-width: 0.6"/>
      </g>
     </g>
    </g>
    <g id="xtick_10">
     <g id="line2d_10">
      <g>
       <use xlink:href="#m24ddd4ea42" x="27.850549" y="172.8" style="stroke: #000000; stroke-width: 0.6"/>
      </g>
     </g>
    </g>
    <g id="xtick_11">
     <g id="line2d_11">
      <g>
       <use xlink:href="#m24ddd4ea42" x="53.169231" y="172.8" style="stroke: #000000; stroke-width: 0.6"/>
      </g>
     </g>
    </g>
    <g id="xtick_12">
     <g id="line2d_12">
      <g>
       <use xlink:href="#m24ddd4ea42" x="65.828571" y="172.8" style="stroke: #000000; stroke-width: 0.6"/>
      </g>
     </g>
    </g>
    <g id="xtick_13">
     <g id="line2d_13">
      <g>
       <use xlink:href="#m24ddd4ea42" x="78.487912" y="172.8" style="stroke: #000000; stroke-width: 0.6"/>
      </g>
     </g>
    </g>
    <g id="xtick_14">
     <g id="line2d_14">
      <g>
       <use xlink:href="#m24ddd4ea42" x="91.147253" y="172.8" style="stroke: #000000; stroke-width: 0.6"/>
      </g>
     </g>
    </g>
    <g id="xtick_15">
     <g id="line2d_15">
      <g>
       <use xlink:href="#m24ddd4ea42" x="116.465934" y="172.8" style="stroke: #000000; stroke-width: 0.6"/>
      </g>
     </g>
    </g>
    <g id="xtick_16">
     <g id="line2d_16">
      <g>
       <use xlink:href="#m24ddd4ea42" x="129.125275" y="172.8" style="stroke: #000000; stroke-width: 0.6"/>
      </g>
     </g>
    </g>
    <g id="xtick_17">
     <g id="line2d_17">
      <g>
       <use xlink:href="#m24ddd4ea42" x="141.784615" y="172.8" style="stroke: #000000; stroke-width: 0.6"/>
      </g>
     </g>
    </g>
    <g id="xtick_18">
     <g id="line2d_18">
      <g>
       <use xlink:href="#m24ddd4ea42" x="154.443956" y="172.8" style="stroke: #000000; stroke-width: 0.6"/>
      </g>
     </g>
    </g>
    <g id="xtick_19">
     <g id="line2d_19">
      <g>
       <use xlink:href="#m24ddd4ea42" x="179.762637" y="172.8" style="stroke: #000000; stroke-width: 0.6"/>
      </g>
     </g>
    </g>
    <g id="xtick_20">
     <g id="line2d_20">
      <g>
       <use xlink:href="#m24ddd4ea42" x="192.421978" y="172.8" style="stroke: #000000; stroke-width: 0.6"/>
      </g>
     </g>
    </g>
    <g id="xtick_21">
     <g id="line2d_21">
      <g>
       <use xlink:href="#m24ddd4ea42" x="205.081319" y="172.8" style="stroke: #000000; stroke-width: 0.6"/>
      </g>
     </g>
    </g>
    <g id="xtick_22">
     <g id="line2d_22">
      <g>
       <use xlink:href="#m24ddd4ea42" x="217.740659" y="172.8" style="stroke: #000000; stroke-width: 0.6"/>
      </g>
     </g>
    </g>
    <g id="xtick_23">
     <g id="line2d_23">
      <g>
       <use xlink:href="#m24ddd4ea42" x="243.059341" y="172.8" style="stroke: #000000; stroke-width: 0.6"/>
      </g>
     </g>
    </g>
    <g id="xtick_24">
     <g id="line2d_24">
      <g>
       <use xlink:href="#m24ddd4ea42" x="255.718681" y="172.8" style="stroke: #000000; stroke-width: 0.6"/>
      </g>
     </g>
    </g>
    <g id="xtick_25">
     <g id="line2d_25">
      <g>
       <use xlink:href="#m24ddd4ea42" x="268.378022" y="172.8" style="stroke: #000000; stroke-width: 0.6"/>
      </g>
     </g>
    </g>
    <g id="xtick_26">
     <g id="line2d_26">
      <g>
       <use xlink:href="#m24ddd4ea42" x="281.037363" y="172.8" style="stroke: #000000; stroke-width: 0.6"/>
      </g>
     </g>
    </g>
    <g id="xtick_27">
     <g id="line2d_27">
      <g>
       <use xlink:href="#m24ddd4ea42" x="306.356044" y="172.8" style="stroke: #000000; stroke-width: 0.6"/>
      </g>
     </g>
    </g>
    <g id="xtick_28">
     <g id="line2d_28">
      <g>
       <use xlink:href="#m24ddd4ea42" x="319.015385" y="172.8" style="stroke: #000000; stroke-width: 0.6"/>
      </g>
     </g>
    </g>
    <g id="xtick_29">
     <g id="line2d_29">
      <g>
       <use xlink:href="#m24ddd4ea42" x="331.674725" y="172.8" style="stroke: #000000; stroke-width: 0.6"/>
      </g>
     </g>
    </g>
    <g id="xtick_30">
     <g id="line2d_30">
      <g>
       <use xlink:href="#m24ddd4ea42" x="344.334066" y="172.8" style="stroke: #000000; stroke-width: 0.6"/>
      </g>
     </g>
    </g>
    <g id="xtick_31">
     <g id="line2d_31">
      <g>
       <use xlink:href="#m24ddd4ea42" x="369.652747" y="172.8" style="stroke: #000000; stroke-width: 0.6"/>
      </g>
     </g>
    </g>
    <g id="xtick_32">
     <g id="line2d_32">
      <g>
       <use xlink:href="#m24ddd4ea42" x="382.312088" y="172.8" style="stroke: #000000; stroke-width: 0.6"/>
      </g>
     </g>
    </g>
    <g id="xtick_33">
     <g id="line2d_33">
      <g>
       <use xlink:href="#m24ddd4ea42" x="394.971429" y="172.8" style="stroke: #000000; stroke-width: 0.6"/>
      </g>
     </g>
    </g>
    <g id="xtick_34">
     <g id="line2d_34">
      <g>
       <use xlink:href="#m24ddd4ea42" x="407.630769" y="172.8" style="stroke: #000000; stroke-width: 0.6"/>
      </g>
     </g>
    </g>
    <g id="xtick_35">
     <g id="line2d_35">
      <g>
       <use xlink:href="#m24ddd4ea42" x="432.949451" y="172.8" style="stroke: #000000; stroke-width: 0.6"/>
      </g>
     </g>
    </g>
    <g id="xtick_36">
     <g id="line2d_36">
      <g>
       <use xlink:href="#m24ddd4ea42" x="445.608791" y="172.8" style="stroke: #000000; stroke-width: 0.6"/>
      </g>
     </g>
    </g>
    <g id="xtick_37">
     <g id="line2d_37">
      <g>
       <use xlink:href="#m24ddd4ea42" x="458.268132" y="172.8" style="stroke: #000000; stroke-width: 0.6"/>
      </g>
     </g>
    </g>
   </g>
   <g id="matplotlib.axis_2">
    <g id="ytick_1">
     <g id="line2d_38">
      <defs>
       <path id="mec5cbe27ef" d="M 0 0 
L -3.5 0 
" style="stroke: #000000; stroke-width: 0.8"/>
      </defs>
      <g>
       <use xlink:href="#mec5cbe27ef" x="230.4" y="305.723077" style="stroke: #000000; stroke-width: 0.8"/>
      </g>
     </g>
     <g id="text_7">
      <!-- −4 -->
      <g transform="translate(208.657812 309.522296)scale(0.1 -0.1)">
       <defs>
        <path id="DejaVuSans-34" d="M 2419 4116 
L 825 1625 
L 2419 1625 
L 2419 4116 
z
M 2253 4666 
L 3047 4666 
L 3047 1625 
L 3713 1625 
L 3713 1100 
L 3047 1100 
L 3047 0 
L 2419 0 
L 2419 1100 
L 313 1100 
L 313 1709 
L 2253 4666 
z
" transform="scale(0.015625)"/>
       </defs>
       <use xlink:href="#DejaVuSans-2212"/>
       <use xlink:href="#DejaVuSans-34" x="83.789062"/>
      </g>
     </g>
    </g>
    <g id="ytick_2">
     <g id="line2d_39">
      <g>
       <use xlink:href="#mec5cbe27ef" x="230.4" y="239.261538" style="stroke: #000000; stroke-width: 0.8"/>
      </g>
     </g>
     <g id="text_8">
      <!-- −2 -->
      <g transform="translate(208.657812 243.060757)scale(0.1 -0.1)">
       <use xlink:href="#DejaVuSans-2212"/>
       <use xlink:href="#DejaVuSans-32" x="83.789062"/>
      </g>
     </g>
    </g>
    <g id="ytick_3">
     <g id="line2d_40">
      <g>
       <use xlink:href="#mec5cbe27ef" x="230.4" y="172.8" style="stroke: #000000; stroke-width: 0.8"/>
      </g>
     </g>
    </g>
    <g id="ytick_4">
     <g id="line2d_41">
      <g>
       <use xlink:href="#mec5cbe27ef" x="230.4" y="106.338462" style="stroke: #000000; stroke-width: 0.8"/>
      </g>
     </g>
     <g id="text_9">
      <!-- 2 -->
      <g transform="translate(217.0375 110.13768)scale(0.1 -0.1)">
       <use xlink:href="#DejaVuSans-32"/>
      </g>
     </g>
    </g>
    <g id="ytick_5">
     <g id="line2d_42">
      <g>
       <use xlink:href="#mec5cbe27ef" x="230.4" y="39.876923" style="stroke: #000000; stroke-width: 0.8"/>
      </g>
     </g>
     <g id="text_10">
      <!-- 4 -->
      <g transform="translate(217.0375 43.676142)scale(0.1 -0.1)">
       <use xlink:href="#DejaVuSans-34"/>
      </g>
     </g>
    </g>
    <g id="ytick_6">
     <g id="line2d_43">
      <defs>
       <path id="m52bc11ad59" d="M 0 0 
L -2 0 
" style="stroke: #000000; stroke-width: 0.6"/>
      </defs>
      <g>
       <use xlink:href="#m52bc11ad59" x="230.4" y="338.953846" style="stroke: #000000; stroke-width: 0.6"/>
      </g>
     </g>
    </g>
    <g id="ytick_7">
     <g id="line2d_44">
      <g>
       <use xlink:href="#m52bc11ad59" x="230.4" y="322.338462" style="stroke: #000000; stroke-width: 0.6"/>
      </g>
     </g>
    </g>
    <g id="ytick_8">
     <g id="line2d_45">
      <g>
       <use xlink:href="#m52bc11ad59" x="230.4" y="289.107692" style="stroke: #000000; stroke-width: 0.6"/>
      </g>
     </g>
    </g>
    <g id="ytick_9">
     <g id="line2d_46">
      <g>
       <use xlink:href="#m52bc11ad59" x="230.4" y="272.492308" style="stroke: #000000; stroke-width: 0.6"/>
      </g>
     </g>
    </g>
    <g id="ytick_10">
     <g id="line2d_47">
      <g>
       <use xlink:href="#m52bc11ad59" x="230.4" y="255.876923" style="stroke: #000000; stroke-width: 0.6"/>
      </g>
     </g>
    </g>
    <g id="ytick_11">
     <g id="line2d_48">
      <g>
       <use xlink:href="#m52bc11ad59" x="230.4" y="222.646154" style="stroke: #000000; stroke-width: 0.6"/>
      </g>
     </g>
    </g>
    <g id="ytick_12">
     <g id="line2d_49">
      <g>
       <use xlink:href="#m52bc11ad59" x="230.4" y="206.030769" style="stroke: #000000; stroke-width: 0.6"/>
      </g>
     </g>
    </g>
    <g id="ytick_13">
     <g id="line2d_50">
      <g>
       <use xlink:href="#m52bc11ad59" x="230.4" y="189.415385" style="stroke: #000000; stroke-width: 0.6"/>
      </g>
     </g>
    </g>
    <g id="ytick_14">
     <g id="line2d_51">
      <g>
       <use xlink:href="#m52bc11ad59" x="230.4" y="156.184615" style="stroke: #000000; stroke-width: 0.6"/>
      </g>
     </g>
    </g>
    <g id="ytick_15">
     <g id="line2d_52">
      <g>
       <use xlink:href="#m52bc11ad59" x="230.4" y="139.569231" style="stroke: #000000; stroke-width: 0.6"/>
      </g>
     </g>
    </g>
    <g id="ytick_16">
     <g id="line2d_53">
      <g>
       <use xlink:href="#m52bc11ad59" x="230.4" y="122.953846" style="stroke: #000000; stroke-width: 0.6"/>
      </g>
     </g>
    </g>
    <g id="ytick_17">
     <g id="line2d_54">
      <g>
       <use xlink:href="#m52bc11ad59" x="230.4" y="89.723077" style="stroke: #000000; stroke-width: 0.6"/>
      </g>
     </g>
    </g>
    <g id="ytick_18">
     <g id="line2d_55">
      <g>
       <use xlink:href="#m52bc11ad59" x="230.4" y="73.107692" style="stroke: #000000; stroke-width: 0.6"/>
      </g>
     </g>
    </g>
    <g id="ytick_19">
     <g id="line2d_56">
      <g>
       <use xlink:href="#m52bc11ad59" x="230.4" y="56.492308" style="stroke: #000000; stroke-width: 0.6"/>
      </g>
     </g>
    </g>
    <g id="ytick_20">
     <g id="line2d_57">
      <g>
       <use xlink:href="#m52bc11ad59" x="230.4" y="23.261538" style="stroke: #000000; stroke-width: 0.6"/>
      </g>
     </g>
    </g>
    <g id="ytick_21">
     <g id="line2d_58">
      <g>
       <use xlink:href="#m52bc11ad59" x="230.4" y="6.646154" style="stroke: #000000; stroke-width: 0.6"/>
      </g>
     </g>
    </g>
   </g>
   <g id="line2d_59">
    <path d="M 8.861538 165.046154 
L 11.155909 164.894006 
L 13.149136 164.758084 
L 14.671888 164.651816 
L 18.674912 164.361961 
L 20.648791 164.213175 
L 22.178527 164.09508 
L 24.172977 163.937327 
L 25.654687 163.817269 
L 29.3287 163.508567 
L 30.14047 163.438161 
L 33.398328 163.147183 
L 34.822566 163.015585 
L 38.480314 162.664677 
L 40.066813 162.506418 
" clip-path="url(#p7e7d5b9db2)" style="fill: none; stroke: #0000ff; stroke-linecap: square"/>
   </g>
   <g id="line2d_60">
    <path d="M 40.56077 165.41169 
L 40.615654 165.407701 
L 40.725422 165.399713 
L 40.944958 165.383697 
L 40.952967 165.383112 
L 42.077111 165.300251 
L 45.503295 165.038704 
L 46.267092 164.97848 
L 47.839285 164.852222 
L 50.945166 164.593364 
L 54.315605 164.297424 
L 56.193034 164.12536 
L 58.863677 163.871154 
L 59.310448 163.827503 
L 62.684215 163.486926 
L 65.312525 163.207502 
L 66.015713 163.130536 
L 68.719191 162.825517 
L 71.396867 162.508416 
L 73.145209 162.292827 
L 76.450666 161.865535 
L 76.830643 161.814686 
L 79.973484 161.379589 
L 83.238154 160.898473 
L 83.999361 160.781738 
L 87.583788 160.207202 
L 90.123113 159.773707 
L 90.918514 159.633099 
L 94.544048 158.960975 
L 95.190102 158.835553 
L 97.325402 158.40804 
L 100.322019 157.772395 
L 103.274972 157.101606 
L 103.363516 157.080766 
L 103.585055 157.028433 
L 103.695824 157.002163 
L 103.751209 156.989002 
" clip-path="url(#p7e7d5b9db2)" style="fill: none; stroke: #0000ff; stroke-linecap: square"/>
   </g>
   <g id="line2d_61">
    <path d="M 104.24967 163.241863 
L 105.144417 163.111292 
L 106.231139 162.948874 
L 108.502456 162.595167 
L 111.836189 162.0383 
L 114.299251 161.595174 
L 114.924531 161.478051 
L 117.921356 160.888641 
L 119.308354 160.599096 
L 121.466298 160.12568 
L 124.231326 159.474688 
L 127.057729 158.751933 
L 129.389944 158.106763 
L 130.982202 157.638344 
L 132.518555 157.163049 
L 135.052292 156.324579 
L 136.632901 155.763857 
L 138.21351 155.171402 
L 139.33049 154.732179 
L 141.354448 153.889306 
L 143.378405 152.980072 
L 144.083761 152.646222 
L 145.490435 151.952155 
L 146.897108 151.217811 
L 148.54771 150.300114 
L 150.198313 149.315966 
L 151.168084 148.703935 
L 152.287375 147.963877 
L 153.406666 147.185154 
L 154.881184 146.095204 
L 156.355703 144.925302 
L 157.285833 144.142304 
L 158.215963 143.321576 
L 158.924642 142.669276 
L 159.633321 141.992228 
L 160.706154 140.917075 
L 161.778988 139.776741 
L 162.37991 139.107359 
L 162.980832 138.414556 
L 163.581753 137.697119 
L 164.182675 136.953754 
L 165.047625 135.835441 
L 165.912576 134.656007 
L 166.66022 133.583452 
L 166.881758 133.255637 
L 166.992527 133.089956 
L 167.047912 133.006667 
" clip-path="url(#p7e7d5b9db2)" style="fill: none; stroke: #0000ff; stroke-linecap: square"/>
   </g>
   <g id="line2d_62">
    <path d="M 167.546374 159.281105 
L 170.237127 157.748752 
L 172.703488 156.057408 
L 174.528567 154.57807 
L 176.606844 152.589448 
L 178.494857 150.421685 
L 179.824382 148.630928 
L 181.426177 146.102552 
L 182.906978 143.303989 
L 184.38778 139.921373 
L 185.52508 136.803839 
L 186.66238 133.094528 
L 187.74589 128.842112 
L 188.928303 123.124133 
L 189.96072 116.866829 
L 190.993138 108.936846 
L 191.819072 100.886217 
L 192.641779 90.697009 
L 193.3869 78.765548 
L 194.106519 63.602335 
L 194.736185 45.870018 
L 195.365851 21.535247 
L 195.794916 -1 
L 195.794916 -1 
" clip-path="url(#p7e7d5b9db2)" style="fill: none; stroke: #0000ff; stroke-linecap: square"/>
   </g>
   <g id="line2d_63">
    <path d="M 198.733676 -1 
L 198.734473 346.6 
" clip-path="url(#p7e7d5b9db2)" style="fill: none; stroke-dasharray: 3.7,1.6; stroke-dashoffset: 0; stroke: #cccccc"/>
   </g>
   <g id="line2d_64">
    <path d="M 201.853974 346.6 
L 202.44688 319.383645 
L 203.174482 295.998494 
L 203.870565 279.855613 
L 204.696639 265.611075 
L 205.532488 254.738265 
L 206.430957 245.698249 
L 207.392048 238.117526 
L 208.353139 232.06224 
L 209.554503 226.018293 
L 210.770349 221.14219 
L 212.03484 217.028385 
L 213.47943 213.205323 
L 214.704141 210.516229 
L 215.997892 208.099663 
L 217.581599 205.605895 
L 219.402909 203.226868 
L 221.405211 201.071836 
L 223.407512 199.286111 
L 226.046685 197.361041 
L 228.001804 196.179679 
L 230.34496 194.979584 
L 230.34496 194.979584 
" clip-path="url(#p7e7d5b9db2)" style="fill: none; stroke: #0000ff; stroke-linecap: square"/>
   </g>
   <g id="line2d_65">
    <path d="M 230.444584 150.666925 
L 230.843077 150.84959 
L 232.254064 151.455361 
L 233.239574 151.843438 
L 234.927782 152.448378 
L 236.633096 152.990941 
L 238.33841 153.472745 
L 239.77655 153.836823 
L 241.554467 154.238846 
L 243.332385 154.592748 
L 245.180686 154.914482 
L 246.32574 155.092028 
L 248.664226 155.406948 
L 250.646146 155.627362 
L 253.191471 155.852799 
L 255.815881 156.021948 
L 257.528229 156.099449 
L 259.240578 156.151857 
L 260.679906 156.176846 
L 261.696346 156.184102 
L 264.093153 156.167257 
L 266.290009 156.109665 
L 269.54881 155.947988 
L 271.806736 155.780085 
L 274.180799 155.55089 
L 275.861861 155.353715 
L 277.291811 155.161645 
L 278.721761 154.945737 
L 280.912035 154.565063 
L 283.112684 154.115339 
L 284.107897 153.887518 
L 285.253305 153.604778 
L 286.398714 153.298477 
L 287.671791 152.92811 
L 288.944868 152.523403 
L 290.654443 151.919932 
L 291.954034 151.40975 
L 293.253626 150.84959 
L 293.498663 150.737902 
L 293.621182 150.681299 
" clip-path="url(#p7e7d5b9db2)" style="fill: none; stroke: #0000ff; stroke-linecap: square"/>
   </g>
   <g id="line2d_66">
    <path d="M 293.713071 106.315533 
L 295.245566 104.040173 
L 297.120065 100.870945 
L 299.025444 97.129445 
L 300.712484 93.284698 
L 302.363602 88.930029 
L 304.080844 83.634715 
L 305.368776 79.032517 
L 306.910538 72.638723 
L 308.248617 66.119239 
L 309.617226 58.26761 
L 310.821265 50.105244 
L 311.953083 41.066157 
L 313.0849 30.32938 
L 314.216717 17.377852 
L 315.273854 2.621819 
L 315.502998 -1 
L 315.502998 -1 
" clip-path="url(#p7e7d5b9db2)" style="fill: none; stroke: #0000ff; stroke-linecap: square"/>
   </g>
   <g id="line2d_67">
    <path d="M 325.372535 -1 
L 325.372689 346.6 
" clip-path="url(#p7e7d5b9db2)" style="fill: none; stroke-dasharray: 3.7,1.6; stroke-dashoffset: 0; stroke: #cccccc"/>
   </g>
   <g id="line2d_68">
    <path d="M 333.850468 346.6 
L 334.812964 327.826204 
L 335.898409 310.780514 
L 337.06658 295.980128 
L 338.117933 284.988239 
L 339.400254 273.823268 
L 340.709723 264.361003 
L 342.040315 256.281223 
L 343.265564 249.914105 
L 344.651589 243.698069 
L 346.144051 237.944291 
L 347.834811 232.36354 
L 349.671358 227.1966 
L 351.421974 222.962934 
L 352.963379 219.689877 
L 354.578566 216.639984 
L 356.938022 212.760816 
L 356.938022 212.760816 
" clip-path="url(#p7e7d5b9db2)" style="fill: none; stroke: #0000ff; stroke-linecap: square"/>
   </g>
   <g id="line2d_69">
    <path d="M 357.436484 238.160913 
L 357.88571 237.076638 
L 358.334936 236.022903 
L 358.923556 234.68636 
L 359.512176 233.397511 
L 360.100796 232.153914 
L 360.689415 230.953293 
L 361.491968 229.381728 
L 362.294521 227.881125 
L 363.097073 226.44692 
L 363.899626 225.074929 
L 364.867897 223.497005 
L 365.836169 221.997909 
L 366.793133 220.58831 
L 367.659619 219.369607 
L 368.526105 218.202215 
L 369.392591 217.083071 
L 370.259077 216.009347 
L 370.67747 215.506366 
L 371.733048 214.279889 
L 372.788626 213.11101 
L 373.844204 211.995913 
L 374.899782 210.93111 
L 375.933514 209.934011 
L 376.967246 208.979323 
L 378.078642 207.997321 
L 379.190037 207.058505 
L 380.291588 206.167995 
L 382.010828 204.852066 
L 383.730068 203.619113 
L 384.569068 203.04533 
L 386.413255 201.843706 
L 388.257442 200.717976 
L 389.197417 200.171229 
L 390.943613 199.200555 
L 392.68981 198.284466 
L 394.059102 197.601517 
L 395.601164 196.867121 
L 397.581532 195.974179 
L 399.561901 195.133367 
L 400.359348 194.808551 
L 403.08481 193.753692 
L 405.849786 192.763882 
L 406.663613 192.486723 
L 408.561429 191.863738 
L 410.459245 191.271585 
L 411.872986 190.849257 
L 413.603179 190.352923 
L 416.554282 189.554855 
L 418.95184 188.947956 
L 419.847033 188.730229 
L 420.068571 188.677062 
L 420.179341 188.650584 
L 420.234725 188.637371 
" clip-path="url(#p7e7d5b9db2)" style="fill: none; stroke: #0000ff; stroke-linecap: square"/>
   </g>
   <g id="line2d_70">
    <path d="M 420.733187 194.806928 
L 421.481145 194.562382 
L 423.481309 193.929088 
L 425.405422 193.346865 
L 427.878742 192.63479 
L 428.844737 192.367171 
L 431.983275 191.535716 
L 433.15295 191.239963 
L 436.513779 190.429716 
L 437.551566 190.190753 
L 439.964589 189.654326 
L 443.176538 188.979454 
L 444.9529 188.624161 
L 447.150443 188.201203 
L 448.67816 187.917453 
L 451.938462 187.338462 
" clip-path="url(#p7e7d5b9db2)" style="fill: none; stroke: #0000ff; stroke-linecap: square"/>
   </g>
   <g id="patch_3">
    <path d="M 230.4 345.6 
L 230.4 0 
" style="fill: none; stroke: #000000; stroke-width: 0.8; stroke-linejoin: miter; stroke-linecap: square"/>
   </g>
   <g id="patch_4">
    <path d="M 0 172.8 
L 460.8 172.8 
" style="fill: none; stroke: #000000; stroke-width: 0.8; stroke-linejoin: miter; stroke-linecap: square"/>
   </g>
  </g>
 </g>
 <defs>
  <clipPath id="p7e7d5b9db2">
   <rect x="0" y="0" width="460.8" height="345.6"/>
  </clipPath>
 </defs>
</svg>
