<?xml version="1.0" encoding="utf-8" standalone="no"?>
<!DOCTYPE svg PUBLIC "-//W3C//DTD SVG 1.1//EN"
  "http://www.w3.org/Graphics/SVG/1.1/DTD/svg11.dtd">
<svg xmlns:xlink="http://www.w3.org/1999/xlink" width="460.8pt" height="345.6pt" viewBox="0 0 460.8 345.6" xmlns="http://www.w3.org/2000/svg" version="1.1">
 <metadata>
  <rdf:RDF xmlns:dc="http://purl.org/dc/elements/1.1/" xmlns:cc="http://creativecommons.org/ns#" xmlns:rdf="http://www.w3.org/1999/02/22-rdf-syntax-ns#">
   <cc:Work>
    <dc:type rdf:resource="http://purl.org/dc/dcmitype/StillImage"/>
    <dc:date>2022-05-16T19:39:00.815157</dc:date>
    <dc:format>image/svg+xml</dc:format>
    <dc:creator>
     <cc:Agent>
      <dc:title>Matplotlib v3.5.1, https://matplotlib.org/</dc:title>
     </cc:Agent>
    </dc:creator>
   </cc:Work>
  </rdf:RDF>
 </metadata>
 <defs>
  <style type="text/css">*{stroke-linejoin: round; stroke-linecap: butt}</style>
 </defs>
 <g id="figure_1">
  <g id="patch_1">
   <path d="M 0 345.6 
L 460.8 345.6 
L 460.8 0 
L 0 0 
z
" style="fill: #ffffff"/>
  </g>
  <g id="axes_1">
   <g id="patch_2">
    <path d="M 146.769808 334.520258 
L 314.030192 334.520258 
L 314.030192 0 
L 146.769808 0 
z
" style="fill: #ffffff"/>
   </g>
   <g id="patch_3">
    <path d="M 149.986354 6.433082 
L 150.886189 13.591487 
L 151.260924 16.548834 
L 152.132858 23.375928 
L 153.13703 31.144706 
L 154.301488 40.02792 
L 154.958138 44.977776 
L 155.771699 51.050942 
L 156.752617 58.285845 
L 157.051633 60.472246 
L 158.222034 68.944641 
L 158.518633 71.07005 
L 159.670376 79.24036 
L 160.395456 84.316292 
L 160.960675 88.236841 
L 162.220123 96.858469 
L 163.243151 103.745522 
L 163.750196 107.120375 
L 164.854947 114.384929 
L 165.03289 115.543686 
L 166.290672 123.644456 
L 166.756952 126.607555 
L 168.047055 134.693138 
L 168.964063 140.339713 
L 169.232772 141.97847 
L 169.817889 145.522028 
L 171.034516 152.781066 
L 171.681093 156.578964 
L 172.899721 163.623932 
L 173.804037 168.756347 
L 174.286681 171.462281 
L 174.768037 174.137908 
L 175.55037 178.437349 
L 176.369176 182.872018 
L 177.359901 188.148626 
L 178.602848 194.630468 
L 178.950557 196.416222 
L 180.227257 202.869908 
L 180.520256 204.328128 
L 181.291636 208.126363 
L 182.570331 214.292192 
L 183.518553 218.759451 
L 183.910537 220.580035 
L 185.083671 225.937356 
L 185.538086 227.975736 
L 186.220259 230.997203 
L 187.258132 235.505332 
L 188.216625 239.57348 
L 188.793153 241.976423 
L 189.464887 244.734477 
L 190.408096 248.531399 
L 191.428362 252.538869 
L 191.647653 253.386692 
L 193.072305 258.778195 
L 193.245961 259.421579 
L 194.287796 263.218514 
L 194.922962 265.48037 
L 196.360683 270.451919 
L 196.618253 271.320861 
L 197.477924 274.173278 
L 198.103846 276.203857 
L 199.17689 279.594274 
L 199.718814 281.263016 
L 200.94172 284.921346 
L 202.05213 288.114265 
L 202.686644 289.883696 
L 203.374539 291.756741 
L 203.732785 292.713553 
L 205.296424 296.740273 
L 205.597585 297.487894 
L 206.801433 300.386279 
L 207.533653 302.078656 
L 207.981915 303.0884 
L 209.294045 305.929172 
L 209.920516 307.225074 
L 210.541551 308.471194 
L 211.756115 310.797344 
L 212.448707 312.058102 
L 212.910385 312.872008 
L 213.964895 314.651504 
L 214.564899 315.614637 
L 215.417941 316.922292 
L 216.20534 318.065069 
L 217.37796 319.652603 
L 218.212349 320.698928 
L 218.406199 320.9321 
L 219.569022 322.252334 
L 220.491574 323.204071 
L 220.965403 323.659978 
L 221.568178 324.207674 
L 222.458552 324.950556 
L 223.385079 325.639866 
L 224.591436 326.409372 
L 225.250963 326.768855 
L 225.887192 327.074632 
L 226.618239 327.376258 
L 227.442192 327.652484 
L 228.596701 327.925907 
L 229.483118 328.045848 
L 229.747647 328.066497 
L 230.499168 328.087176 
L 231.961335 327.966404 
L 232.366358 327.895332 
L 233.566316 327.588966 
L 233.852448 327.494761 
L 234.833065 327.110117 
L 236.042287 326.504084 
L 236.479053 326.249426 
L 237.541108 325.55101 
L 237.959167 325.245312 
L 238.838475 324.545587 
L 239.395416 324.062602 
L 240.15271 323.356362 
L 241.014921 322.482819 
L 242.142995 321.228236 
L 243.217715 319.91523 
L 243.892611 319.031961 
L 244.181748 318.639687 
L 245.6822 316.470452 
L 246.517349 315.166031 
L 247.143365 314.142754 
L 247.436658 313.649931 
L 248.457353 311.86813 
L 249.447907 310.039846 
L 250.435568 308.119713 
L 251.299596 306.360353 
L 251.582042 305.76912 
L 253.016109 302.6448 
L 253.428335 301.708848 
L 253.89331 300.632842 
L 255.270274 297.320225 
L 256.128006 295.1614 
L 256.659192 293.787757 
L 257.103274 292.617823 
L 258.054073 290.046971 
L 259.355246 286.382989 
L 260.236626 283.805418 
L 260.701599 282.414478 
L 261.646384 279.521953 
L 262.014187 278.371884 
L 263.156776 274.713321 
L 264.06438 271.714621 
L 264.705239 269.547879 
L 265.196138 267.860513 
L 266.242239 264.184776 
L 267.091424 261.120893 
L 268.352231 256.439537 
L 268.947432 254.174612 
L 269.322119 252.730736 
L 270.635208 247.560437 
L 271.380681 244.5488 
L 271.683022 243.311611 
L 273.039312 237.649734 
L 273.400463 236.111244 
L 274.666109 230.617224 
L 275.419877 227.269486 
L 276.111032 224.150158 
L 276.715998 221.380816 
L 277.878727 215.955974 
L 278.187133 214.494503 
L 279.082077 210.199979 
L 280.374062 203.85965 
L 280.739179 202.037769 
L 282.099696 195.132196 
L 282.814706 191.4292 
L 283.394951 188.386756 
L 283.81125 186.18331 
L 285.019443 179.690784 
L 286.078785 173.878657 
L 286.212227 173.138608 
L 287.418503 166.368363 
L 288.473961 160.325843 
L 288.750827 158.722428 
L 290.02533 151.243054 
L 290.905979 145.98059 
L 291.300318 143.599142 
L 291.883816 140.046962 
L 292.63829 135.403713 
L 293.517128 129.923697 
L 294.670493 122.615262 
L 295.606308 116.588108 
L 296.443807 111.12029 
L 297.332765 105.240165 
L 297.861924 101.702648 
L 299.060049 93.590034 
L 299.611728 89.806551 
L 300.330508 84.831644 
L 301.285071 78.145349 
L 302.216017 71.537161 
L 302.810597 67.271506 
L 303.447112 62.666021 
L 304.200583 57.162199 
L 305.031785 51.025069 
L 305.754055 45.636421 
L 306.853399 37.334915 
L 307.432612 32.912727 
L 308.05636 28.113191 
L 309.503914 16.825608 
L 309.68375 15.408742 
L 310.813646 6.433082 
z
" clip-path="url(#p579cb4026b)" style="fill: #808080; opacity: 0.5"/>
   </g>
   <g id="matplotlib.axis_1">
    <g id="xtick_1">
     <g id="line2d_1">
      <defs>
       <path id="mf06e98980b" d="M 0 0 
L 0 3.5 
" style="stroke: #000000; stroke-width: 0.8"/>
      </defs>
      <g>
       <use xlink:href="#mf06e98980b" x="149.986354" y="328.087665" style="stroke: #000000; stroke-width: 0.8"/>
      </g>
     </g>
     <g id="text_1">
      <!-- −4 -->
      <g transform="translate(142.61526 342.686103)scale(0.1 -0.1)">
       <defs>
        <path id="DejaVuSans-2212" d="M 678 2272 
L 4684 2272 
L 4684 1741 
L 678 1741 
L 678 2272 
z
" transform="scale(0.015625)"/>
        <path id="DejaVuSans-34" d="M 2419 4116 
L 825 1625 
L 2419 1625 
L 2419 4116 
z
M 2253 4666 
L 3047 4666 
L 3047 1625 
L 3713 1625 
L 3713 1100 
L 3047 1100 
L 3047 0 
L 2419 0 
L 2419 1100 
L 313 1100 
L 313 1709 
L 2253 4666 
z
" transform="scale(0.015625)"/>
       </defs>
       <use xlink:href="#DejaVuSans-2212"/>
       <use xlink:href="#DejaVuSans-34" x="83.789062"/>
      </g>
     </g>
    </g>
    <g id="xtick_2">
     <g id="line2d_2">
      <g>
       <use xlink:href="#mf06e98980b" x="170.089766" y="328.087665" style="stroke: #000000; stroke-width: 0.8"/>
      </g>
     </g>
     <g id="text_2">
      <!-- −3 -->
      <g transform="translate(162.718672 342.686103)scale(0.1 -0.1)">
       <defs>
        <path id="DejaVuSans-33" d="M 2597 2516 
Q 3050 2419 3304 2112 
Q 3559 1806 3559 1356 
Q 3559 666 3084 287 
Q 2609 -91 1734 -91 
Q 1441 -91 1130 -33 
Q 819 25 488 141 
L 488 750 
Q 750 597 1062 519 
Q 1375 441 1716 441 
Q 2309 441 2620 675 
Q 2931 909 2931 1356 
Q 2931 1769 2642 2001 
Q 2353 2234 1838 2234 
L 1294 2234 
L 1294 2753 
L 1863 2753 
Q 2328 2753 2575 2939 
Q 2822 3125 2822 3475 
Q 2822 3834 2567 4026 
Q 2313 4219 1838 4219 
Q 1578 4219 1281 4162 
Q 984 4106 628 3988 
L 628 4550 
Q 988 4650 1302 4700 
Q 1616 4750 1894 4750 
Q 2613 4750 3031 4423 
Q 3450 4097 3450 3541 
Q 3450 3153 3228 2886 
Q 3006 2619 2597 2516 
z
" transform="scale(0.015625)"/>
       </defs>
       <use xlink:href="#DejaVuSans-2212"/>
       <use xlink:href="#DejaVuSans-33" x="83.789062"/>
      </g>
     </g>
    </g>
    <g id="xtick_3">
     <g id="line2d_3">
      <g>
       <use xlink:href="#mf06e98980b" x="190.193177" y="328.087665" style="stroke: #000000; stroke-width: 0.8"/>
      </g>
     </g>
     <g id="text_3">
      <!-- −2 -->
      <g transform="translate(182.822083 342.686103)scale(0.1 -0.1)">
       <defs>
        <path id="DejaVuSans-32" d="M 1228 531 
L 3431 531 
L 3431 0 
L 469 0 
L 469 531 
Q 828 903 1448 1529 
Q 2069 2156 2228 2338 
Q 2531 2678 2651 2914 
Q 2772 3150 2772 3378 
Q 2772 3750 2511 3984 
Q 2250 4219 1831 4219 
Q 1534 4219 1204 4116 
Q 875 4013 500 3803 
L 500 4441 
Q 881 4594 1212 4672 
Q 1544 4750 1819 4750 
Q 2544 4750 2975 4387 
Q 3406 4025 3406 3419 
Q 3406 3131 3298 2873 
Q 3191 2616 2906 2266 
Q 2828 2175 2409 1742 
Q 1991 1309 1228 531 
z
" transform="scale(0.015625)"/>
       </defs>
       <use xlink:href="#DejaVuSans-2212"/>
       <use xlink:href="#DejaVuSans-32" x="83.789062"/>
      </g>
     </g>
    </g>
    <g id="xtick_4">
     <g id="line2d_4">
      <g>
       <use xlink:href="#mf06e98980b" x="210.296589" y="328.087665" style="stroke: #000000; stroke-width: 0.8"/>
      </g>
     </g>
     <g id="text_4">
      <!-- −1 -->
      <g transform="translate(202.925495 342.686103)scale(0.1 -0.1)">
       <defs>
        <path id="DejaVuSans-31" d="M 794 531 
L 1825 531 
L 1825 4091 
L 703 3866 
L 703 4441 
L 1819 4666 
L 2450 4666 
L 2450 531 
L 3481 531 
L 3481 0 
L 794 0 
L 794 531 
z
" transform="scale(0.015625)"/>
       </defs>
       <use xlink:href="#DejaVuSans-2212"/>
       <use xlink:href="#DejaVuSans-31" x="83.789062"/>
      </g>
     </g>
    </g>
    <g id="xtick_5">
     <g id="line2d_5">
      <g>
       <use xlink:href="#mf06e98980b" x="230.4" y="328.087665" style="stroke: #000000; stroke-width: 0.8"/>
      </g>
     </g>
    </g>
    <g id="xtick_6">
     <g id="line2d_6">
      <g>
       <use xlink:href="#mf06e98980b" x="250.503411" y="328.087665" style="stroke: #000000; stroke-width: 0.8"/>
      </g>
     </g>
     <g id="text_5">
      <!-- 1 -->
      <g transform="translate(247.322161 342.686103)scale(0.1 -0.1)">
       <use xlink:href="#DejaVuSans-31"/>
      </g>
     </g>
    </g>
    <g id="xtick_7">
     <g id="line2d_7">
      <g>
       <use xlink:href="#mf06e98980b" x="270.606823" y="328.087665" style="stroke: #000000; stroke-width: 0.8"/>
      </g>
     </g>
     <g id="text_6">
      <!-- 2 -->
      <g transform="translate(267.425573 342.686103)scale(0.1 -0.1)">
       <use xlink:href="#DejaVuSans-32"/>
      </g>
     </g>
    </g>
    <g id="xtick_8">
     <g id="line2d_8">
      <g>
       <use xlink:href="#mf06e98980b" x="290.710234" y="328.087665" style="stroke: #000000; stroke-width: 0.8"/>
      </g>
     </g>
     <g id="text_7">
      <!-- 3 -->
      <g transform="translate(287.528984 342.686103)scale(0.1 -0.1)">
       <use xlink:href="#DejaVuSans-33"/>
      </g>
     </g>
    </g>
    <g id="xtick_9">
     <g id="line2d_9">
      <g>
       <use xlink:href="#mf06e98980b" x="310.813646" y="328.087665" style="stroke: #000000; stroke-width: 0.8"/>
      </g>
     </g>
     <g id="text_8">
      <!-- 4 -->
      <g transform="translate(307.632396 342.686103)scale(0.1 -0.1)">
       <use xlink:href="#DejaVuSans-34"/>
      </g>
     </g>
    </g>
    <g id="xtick_10">
     <g id="line2d_10">
      <defs>
       <path id="m1f3398394e" d="M 0 0 
L 0 2 
" style="stroke: #000000; stroke-width: 0.6"/>
      </defs>
      <g>
       <use xlink:href="#m1f3398394e" x="154.007036" y="328.087665" style="stroke: #000000; stroke-width: 0.6"/>
      </g>
     </g>
    </g>
    <g id="xtick_11">
     <g id="line2d_11">
      <g>
       <use xlink:href="#m1f3398394e" x="158.027719" y="328.087665" style="stroke: #000000; stroke-width: 0.6"/>
      </g>
     </g>
    </g>
    <g id="xtick_12">
     <g id="line2d_12">
      <g>
       <use xlink:href="#m1f3398394e" x="162.048401" y="328.087665" style="stroke: #000000; stroke-width: 0.6"/>
      </g>
     </g>
    </g>
    <g id="xtick_13">
     <g id="line2d_13">
      <g>
       <use xlink:href="#m1f3398394e" x="166.069083" y="328.087665" style="stroke: #000000; stroke-width: 0.6"/>
      </g>
     </g>
    </g>
    <g id="xtick_14">
     <g id="line2d_14">
      <g>
       <use xlink:href="#m1f3398394e" x="174.110448" y="328.087665" style="stroke: #000000; stroke-width: 0.6"/>
      </g>
     </g>
    </g>
    <g id="xtick_15">
     <g id="line2d_15">
      <g>
       <use xlink:href="#m1f3398394e" x="178.13113" y="328.087665" style="stroke: #000000; stroke-width: 0.6"/>
      </g>
     </g>
    </g>
    <g id="xtick_16">
     <g id="line2d_16">
      <g>
       <use xlink:href="#m1f3398394e" x="182.151812" y="328.087665" style="stroke: #000000; stroke-width: 0.6"/>
      </g>
     </g>
    </g>
    <g id="xtick_17">
     <g id="line2d_17">
      <g>
       <use xlink:href="#m1f3398394e" x="186.172495" y="328.087665" style="stroke: #000000; stroke-width: 0.6"/>
      </g>
     </g>
    </g>
    <g id="xtick_18">
     <g id="line2d_18">
      <g>
       <use xlink:href="#m1f3398394e" x="194.213859" y="328.087665" style="stroke: #000000; stroke-width: 0.6"/>
      </g>
     </g>
    </g>
    <g id="xtick_19">
     <g id="line2d_19">
      <g>
       <use xlink:href="#m1f3398394e" x="198.234542" y="328.087665" style="stroke: #000000; stroke-width: 0.6"/>
      </g>
     </g>
    </g>
    <g id="xtick_20">
     <g id="line2d_20">
      <g>
       <use xlink:href="#m1f3398394e" x="202.255224" y="328.087665" style="stroke: #000000; stroke-width: 0.6"/>
      </g>
     </g>
    </g>
    <g id="xtick_21">
     <g id="line2d_21">
      <g>
       <use xlink:href="#m1f3398394e" x="206.275906" y="328.087665" style="stroke: #000000; stroke-width: 0.6"/>
      </g>
     </g>
    </g>
    <g id="xtick_22">
     <g id="line2d_22">
      <g>
       <use xlink:href="#m1f3398394e" x="214.317271" y="328.087665" style="stroke: #000000; stroke-width: 0.6"/>
      </g>
     </g>
    </g>
    <g id="xtick_23">
     <g id="line2d_23">
      <g>
       <use xlink:href="#m1f3398394e" x="218.337953" y="328.087665" style="stroke: #000000; stroke-width: 0.6"/>
      </g>
     </g>
    </g>
    <g id="xtick_24">
     <g id="line2d_24">
      <g>
       <use xlink:href="#m1f3398394e" x="222.358635" y="328.087665" style="stroke: #000000; stroke-width: 0.6"/>
      </g>
     </g>
    </g>
    <g id="xtick_25">
     <g id="line2d_25">
      <g>
       <use xlink:href="#m1f3398394e" x="226.379318" y="328.087665" style="stroke: #000000; stroke-width: 0.6"/>
      </g>
     </g>
    </g>
    <g id="xtick_26">
     <g id="line2d_26">
      <g>
       <use xlink:href="#m1f3398394e" x="234.420682" y="328.087665" style="stroke: #000000; stroke-width: 0.6"/>
      </g>
     </g>
    </g>
    <g id="xtick_27">
     <g id="line2d_27">
      <g>
       <use xlink:href="#m1f3398394e" x="238.441365" y="328.087665" style="stroke: #000000; stroke-width: 0.6"/>
      </g>
     </g>
    </g>
    <g id="xtick_28">
     <g id="line2d_28">
      <g>
       <use xlink:href="#m1f3398394e" x="242.462047" y="328.087665" style="stroke: #000000; stroke-width: 0.6"/>
      </g>
     </g>
    </g>
    <g id="xtick_29">
     <g id="line2d_29">
      <g>
       <use xlink:href="#m1f3398394e" x="246.482729" y="328.087665" style="stroke: #000000; stroke-width: 0.6"/>
      </g>
     </g>
    </g>
    <g id="xtick_30">
     <g id="line2d_30">
      <g>
       <use xlink:href="#m1f3398394e" x="254.524094" y="328.087665" style="stroke: #000000; stroke-width: 0.6"/>
      </g>
     </g>
    </g>
    <g id="xtick_31">
     <g id="line2d_31">
      <g>
       <use xlink:href="#m1f3398394e" x="258.544776" y="328.087665" style="stroke: #000000; stroke-width: 0.6"/>
      </g>
     </g>
    </g>
    <g id="xtick_32">
     <g id="line2d_32">
      <g>
       <use xlink:href="#m1f3398394e" x="262.565458" y="328.087665" style="stroke: #000000; stroke-width: 0.6"/>
      </g>
     </g>
    </g>
    <g id="xtick_33">
     <g id="line2d_33">
      <g>
       <use xlink:href="#m1f3398394e" x="266.586141" y="328.087665" style="stroke: #000000; stroke-width: 0.6"/>
      </g>
     </g>
    </g>
    <g id="xtick_34">
     <g id="line2d_34">
      <g>
       <use xlink:href="#m1f3398394e" x="274.627505" y="328.087665" style="stroke: #000000; stroke-width: 0.6"/>
      </g>
     </g>
    </g>
    <g id="xtick_35">
     <g id="line2d_35">
      <g>
       <use xlink:href="#m1f3398394e" x="278.648188" y="328.087665" style="stroke: #000000; stroke-width: 0.6"/>
      </g>
     </g>
    </g>
    <g id="xtick_36">
     <g id="line2d_36">
      <g>
       <use xlink:href="#m1f3398394e" x="282.66887" y="328.087665" style="stroke: #000000; stroke-width: 0.6"/>
      </g>
     </g>
    </g>
    <g id="xtick_37">
     <g id="line2d_37">
      <g>
       <use xlink:href="#m1f3398394e" x="286.689552" y="328.087665" style="stroke: #000000; stroke-width: 0.6"/>
      </g>
     </g>
    </g>
    <g id="xtick_38">
     <g id="line2d_38">
      <g>
       <use xlink:href="#m1f3398394e" x="294.730917" y="328.087665" style="stroke: #000000; stroke-width: 0.6"/>
      </g>
     </g>
    </g>
    <g id="xtick_39">
     <g id="line2d_39">
      <g>
       <use xlink:href="#m1f3398394e" x="298.751599" y="328.087665" style="stroke: #000000; stroke-width: 0.6"/>
      </g>
     </g>
    </g>
    <g id="xtick_40">
     <g id="line2d_40">
      <g>
       <use xlink:href="#m1f3398394e" x="302.772281" y="328.087665" style="stroke: #000000; stroke-width: 0.6"/>
      </g>
     </g>
    </g>
    <g id="xtick_41">
     <g id="line2d_41">
      <g>
       <use xlink:href="#m1f3398394e" x="306.792964" y="328.087665" style="stroke: #000000; stroke-width: 0.6"/>
      </g>
     </g>
    </g>
   </g>
   <g id="matplotlib.axis_2">
    <g id="ytick_1">
     <g id="line2d_42">
      <defs>
       <path id="m2dd846aa17" d="M 0 0 
L -3.5 0 
" style="stroke: #000000; stroke-width: 0.8"/>
      </defs>
      <g>
       <use xlink:href="#m2dd846aa17" x="230.4" y="328.087665" style="stroke: #000000; stroke-width: 0.8"/>
      </g>
     </g>
    </g>
    <g id="ytick_2">
     <g id="line2d_43">
      <g>
       <use xlink:href="#m2dd846aa17" x="230.4" y="287.880842" style="stroke: #000000; stroke-width: 0.8"/>
      </g>
     </g>
     <g id="text_9">
      <!-- 2 -->
      <g transform="translate(217.0375 291.680061)scale(0.1 -0.1)">
       <use xlink:href="#DejaVuSans-32"/>
      </g>
     </g>
    </g>
    <g id="ytick_3">
     <g id="line2d_44">
      <g>
       <use xlink:href="#m2dd846aa17" x="230.4" y="247.67402" style="stroke: #000000; stroke-width: 0.8"/>
      </g>
     </g>
     <g id="text_10">
      <!-- 4 -->
      <g transform="translate(217.0375 251.473238)scale(0.1 -0.1)">
       <use xlink:href="#DejaVuSans-34"/>
      </g>
     </g>
    </g>
    <g id="ytick_4">
     <g id="line2d_45">
      <g>
       <use xlink:href="#m2dd846aa17" x="230.4" y="207.467197" style="stroke: #000000; stroke-width: 0.8"/>
      </g>
     </g>
     <g id="text_11">
      <!-- 6 -->
      <g transform="translate(217.0375 211.266415)scale(0.1 -0.1)">
       <defs>
        <path id="DejaVuSans-36" d="M 2113 2584 
Q 1688 2584 1439 2293 
Q 1191 2003 1191 1497 
Q 1191 994 1439 701 
Q 1688 409 2113 409 
Q 2538 409 2786 701 
Q 3034 994 3034 1497 
Q 3034 2003 2786 2293 
Q 2538 2584 2113 2584 
z
M 3366 4563 
L 3366 3988 
Q 3128 4100 2886 4159 
Q 2644 4219 2406 4219 
Q 1781 4219 1451 3797 
Q 1122 3375 1075 2522 
Q 1259 2794 1537 2939 
Q 1816 3084 2150 3084 
Q 2853 3084 3261 2657 
Q 3669 2231 3669 1497 
Q 3669 778 3244 343 
Q 2819 -91 2113 -91 
Q 1303 -91 875 529 
Q 447 1150 447 2328 
Q 447 3434 972 4092 
Q 1497 4750 2381 4750 
Q 2619 4750 2861 4703 
Q 3103 4656 3366 4563 
z
" transform="scale(0.015625)"/>
       </defs>
       <use xlink:href="#DejaVuSans-36"/>
      </g>
     </g>
    </g>
    <g id="ytick_5">
     <g id="line2d_46">
      <g>
       <use xlink:href="#m2dd846aa17" x="230.4" y="167.260374" style="stroke: #000000; stroke-width: 0.8"/>
      </g>
     </g>
     <g id="text_12">
      <!-- 8 -->
      <g transform="translate(217.0375 171.059592)scale(0.1 -0.1)">
       <defs>
        <path id="DejaVuSans-38" d="M 2034 2216 
Q 1584 2216 1326 1975 
Q 1069 1734 1069 1313 
Q 1069 891 1326 650 
Q 1584 409 2034 409 
Q 2484 409 2743 651 
Q 3003 894 3003 1313 
Q 3003 1734 2745 1975 
Q 2488 2216 2034 2216 
z
M 1403 2484 
Q 997 2584 770 2862 
Q 544 3141 544 3541 
Q 544 4100 942 4425 
Q 1341 4750 2034 4750 
Q 2731 4750 3128 4425 
Q 3525 4100 3525 3541 
Q 3525 3141 3298 2862 
Q 3072 2584 2669 2484 
Q 3125 2378 3379 2068 
Q 3634 1759 3634 1313 
Q 3634 634 3220 271 
Q 2806 -91 2034 -91 
Q 1263 -91 848 271 
Q 434 634 434 1313 
Q 434 1759 690 2068 
Q 947 2378 1403 2484 
z
M 1172 3481 
Q 1172 3119 1398 2916 
Q 1625 2713 2034 2713 
Q 2441 2713 2670 2916 
Q 2900 3119 2900 3481 
Q 2900 3844 2670 4047 
Q 2441 4250 2034 4250 
Q 1625 4250 1398 4047 
Q 1172 3844 1172 3481 
z
" transform="scale(0.015625)"/>
       </defs>
       <use xlink:href="#DejaVuSans-38"/>
      </g>
     </g>
    </g>
    <g id="ytick_6">
     <g id="line2d_47">
      <g>
       <use xlink:href="#m2dd846aa17" x="230.4" y="127.053551" style="stroke: #000000; stroke-width: 0.8"/>
      </g>
     </g>
     <g id="text_13">
      <!-- 10 -->
      <g transform="translate(210.675 130.852769)scale(0.1 -0.1)">
       <defs>
        <path id="DejaVuSans-30" d="M 2034 4250 
Q 1547 4250 1301 3770 
Q 1056 3291 1056 2328 
Q 1056 1369 1301 889 
Q 1547 409 2034 409 
Q 2525 409 2770 889 
Q 3016 1369 3016 2328 
Q 3016 3291 2770 3770 
Q 2525 4250 2034 4250 
z
M 2034 4750 
Q 2819 4750 3233 4129 
Q 3647 3509 3647 2328 
Q 3647 1150 3233 529 
Q 2819 -91 2034 -91 
Q 1250 -91 836 529 
Q 422 1150 422 2328 
Q 422 3509 836 4129 
Q 1250 4750 2034 4750 
z
" transform="scale(0.015625)"/>
       </defs>
       <use xlink:href="#DejaVuSans-31"/>
       <use xlink:href="#DejaVuSans-30" x="63.623047"/>
      </g>
     </g>
    </g>
    <g id="ytick_7">
     <g id="line2d_48">
      <g>
       <use xlink:href="#m2dd846aa17" x="230.4" y="86.846728" style="stroke: #000000; stroke-width: 0.8"/>
      </g>
     </g>
     <g id="text_14">
      <!-- 12 -->
      <g transform="translate(210.675 90.645947)scale(0.1 -0.1)">
       <use xlink:href="#DejaVuSans-31"/>
       <use xlink:href="#DejaVuSans-32" x="63.623047"/>
      </g>
     </g>
    </g>
    <g id="ytick_8">
     <g id="line2d_49">
      <g>
       <use xlink:href="#m2dd846aa17" x="230.4" y="46.639905" style="stroke: #000000; stroke-width: 0.8"/>
      </g>
     </g>
     <g id="text_15">
      <!-- 14 -->
      <g transform="translate(210.675 50.439124)scale(0.1 -0.1)">
       <use xlink:href="#DejaVuSans-31"/>
       <use xlink:href="#DejaVuSans-34" x="63.623047"/>
      </g>
     </g>
    </g>
    <g id="ytick_9">
     <g id="line2d_50">
      <g>
       <use xlink:href="#m2dd846aa17" x="230.4" y="6.433082" style="stroke: #000000; stroke-width: 0.8"/>
      </g>
     </g>
     <g id="text_16">
      <!-- 16 -->
      <g transform="translate(210.675 10.232301)scale(0.1 -0.1)">
       <use xlink:href="#DejaVuSans-31"/>
       <use xlink:href="#DejaVuSans-36" x="63.623047"/>
      </g>
     </g>
    </g>
    <g id="ytick_10">
     <g id="line2d_51">
      <defs>
       <path id="med0ca67b34" d="M 0 0 
L -2 0 
" style="stroke: #000000; stroke-width: 0.6"/>
      </defs>
      <g>
       <use xlink:href="#med0ca67b34" x="230.4" y="318.03596" style="stroke: #000000; stroke-width: 0.6"/>
      </g>
     </g>
    </g>
    <g id="ytick_11">
     <g id="line2d_52">
      <g>
       <use xlink:href="#med0ca67b34" x="230.4" y="307.984254" style="stroke: #000000; stroke-width: 0.6"/>
      </g>
     </g>
    </g>
    <g id="ytick_12">
     <g id="line2d_53">
      <g>
       <use xlink:href="#med0ca67b34" x="230.4" y="297.932548" style="stroke: #000000; stroke-width: 0.6"/>
      </g>
     </g>
    </g>
    <g id="ytick_13">
     <g id="line2d_54">
      <g>
       <use xlink:href="#med0ca67b34" x="230.4" y="277.829137" style="stroke: #000000; stroke-width: 0.6"/>
      </g>
     </g>
    </g>
    <g id="ytick_14">
     <g id="line2d_55">
      <g>
       <use xlink:href="#med0ca67b34" x="230.4" y="267.777431" style="stroke: #000000; stroke-width: 0.6"/>
      </g>
     </g>
    </g>
    <g id="ytick_15">
     <g id="line2d_56">
      <g>
       <use xlink:href="#med0ca67b34" x="230.4" y="257.725725" style="stroke: #000000; stroke-width: 0.6"/>
      </g>
     </g>
    </g>
    <g id="ytick_16">
     <g id="line2d_57">
      <g>
       <use xlink:href="#med0ca67b34" x="230.4" y="237.622314" style="stroke: #000000; stroke-width: 0.6"/>
      </g>
     </g>
    </g>
    <g id="ytick_17">
     <g id="line2d_58">
      <g>
       <use xlink:href="#med0ca67b34" x="230.4" y="227.570608" style="stroke: #000000; stroke-width: 0.6"/>
      </g>
     </g>
    </g>
    <g id="ytick_18">
     <g id="line2d_59">
      <g>
       <use xlink:href="#med0ca67b34" x="230.4" y="217.518902" style="stroke: #000000; stroke-width: 0.6"/>
      </g>
     </g>
    </g>
    <g id="ytick_19">
     <g id="line2d_60">
      <g>
       <use xlink:href="#med0ca67b34" x="230.4" y="197.415491" style="stroke: #000000; stroke-width: 0.6"/>
      </g>
     </g>
    </g>
    <g id="ytick_20">
     <g id="line2d_61">
      <g>
       <use xlink:href="#med0ca67b34" x="230.4" y="187.363785" style="stroke: #000000; stroke-width: 0.6"/>
      </g>
     </g>
    </g>
    <g id="ytick_21">
     <g id="line2d_62">
      <g>
       <use xlink:href="#med0ca67b34" x="230.4" y="177.312079" style="stroke: #000000; stroke-width: 0.6"/>
      </g>
     </g>
    </g>
    <g id="ytick_22">
     <g id="line2d_63">
      <g>
       <use xlink:href="#med0ca67b34" x="230.4" y="157.208668" style="stroke: #000000; stroke-width: 0.6"/>
      </g>
     </g>
    </g>
    <g id="ytick_23">
     <g id="line2d_64">
      <g>
       <use xlink:href="#med0ca67b34" x="230.4" y="147.156962" style="stroke: #000000; stroke-width: 0.6"/>
      </g>
     </g>
    </g>
    <g id="ytick_24">
     <g id="line2d_65">
      <g>
       <use xlink:href="#med0ca67b34" x="230.4" y="137.105256" style="stroke: #000000; stroke-width: 0.6"/>
      </g>
     </g>
    </g>
    <g id="ytick_25">
     <g id="line2d_66">
      <g>
       <use xlink:href="#med0ca67b34" x="230.4" y="117.001845" style="stroke: #000000; stroke-width: 0.6"/>
      </g>
     </g>
    </g>
    <g id="ytick_26">
     <g id="line2d_67">
      <g>
       <use xlink:href="#med0ca67b34" x="230.4" y="106.950139" style="stroke: #000000; stroke-width: 0.6"/>
      </g>
     </g>
    </g>
    <g id="ytick_27">
     <g id="line2d_68">
      <g>
       <use xlink:href="#med0ca67b34" x="230.4" y="96.898434" style="stroke: #000000; stroke-width: 0.6"/>
      </g>
     </g>
    </g>
    <g id="ytick_28">
     <g id="line2d_69">
      <g>
       <use xlink:href="#med0ca67b34" x="230.4" y="76.795022" style="stroke: #000000; stroke-width: 0.6"/>
      </g>
     </g>
    </g>
    <g id="ytick_29">
     <g id="line2d_70">
      <g>
       <use xlink:href="#med0ca67b34" x="230.4" y="66.743316" style="stroke: #000000; stroke-width: 0.6"/>
      </g>
     </g>
    </g>
    <g id="ytick_30">
     <g id="line2d_71">
      <g>
       <use xlink:href="#med0ca67b34" x="230.4" y="56.691611" style="stroke: #000000; stroke-width: 0.6"/>
      </g>
     </g>
    </g>
    <g id="ytick_31">
     <g id="line2d_72">
      <g>
       <use xlink:href="#med0ca67b34" x="230.4" y="36.588199" style="stroke: #000000; stroke-width: 0.6"/>
      </g>
     </g>
    </g>
    <g id="ytick_32">
     <g id="line2d_73">
      <g>
       <use xlink:href="#med0ca67b34" x="230.4" y="26.536493" style="stroke: #000000; stroke-width: 0.6"/>
      </g>
     </g>
    </g>
    <g id="ytick_33">
     <g id="line2d_74">
      <g>
       <use xlink:href="#med0ca67b34" x="230.4" y="16.484788" style="stroke: #000000; stroke-width: 0.6"/>
      </g>
     </g>
    </g>
   </g>
   <g id="line2d_75">
    <path d="M 149.986354 6.433082 
L 154.301488 40.02792 
L 158.518633 71.07005 
L 162.220123 96.858469 
L 166.290672 123.644456 
L 169.817889 145.522028 
L 173.804037 168.756347 
L 177.359901 188.148626 
L 181.291636 208.126363 
L 185.083671 225.937356 
L 188.216625 239.57348 
L 191.428362 252.538869 
L 194.287796 263.218514 
L 197.477924 274.173278 
L 199.718814 281.263016 
L 202.686644 289.883696 
L 205.597585 297.487894 
L 207.981915 303.0884 
L 210.541551 308.471194 
L 212.910385 312.872008 
L 215.417941 316.922292 
L 217.37796 319.652603 
L 219.569022 322.252334 
L 221.568178 324.207674 
L 223.385079 325.639866 
L 225.250963 326.768855 
L 226.618239 327.376258 
L 228.596701 327.925907 
L 230.499168 328.087176 
L 232.366358 327.895332 
L 233.852448 327.494761 
L 234.833065 327.110117 
L 236.479053 326.249426 
L 237.959167 325.245312 
L 239.395416 324.062602 
L 241.014921 322.482819 
L 243.217715 319.91523 
L 244.181748 318.639687 
L 246.517349 315.166031 
L 248.457353 311.86813 
L 250.435568 308.119713 
L 253.016109 302.6448 
L 255.270274 297.320225 
L 258.054073 290.046971 
L 260.701599 282.414478 
L 263.156776 274.713321 
L 266.242239 264.184776 
L 269.322119 252.730736 
L 273.039312 237.649734 
L 276.111032 224.150158 
L 279.082077 210.199979 
L 282.814706 191.4292 
L 286.212227 173.138608 
L 290.02533 151.243054 
L 293.517128 129.923697 
L 297.861924 101.702648 
L 302.216017 71.537161 
L 305.754055 45.636421 
L 309.68375 15.408742 
L 310.813646 6.433082 
L 310.813646 6.433082 
" clip-path="url(#p579cb4026b)" style="fill: none; stroke: #0000ff; stroke-linecap: square"/>
   </g>
   <g id="patch_4">
    <path d="M 230.4 334.520258 
L 230.4 0 
" style="fill: none; stroke: #000000; stroke-width: 0.8; stroke-linejoin: miter; stroke-linecap: square"/>
   </g>
   <g id="patch_5">
    <path d="M 146.769808 328.087665 
L 314.030192 328.087665 
" style="fill: none; stroke: #000000; stroke-width: 0.8; stroke-linejoin: miter; stroke-linecap: square"/>
   </g>
  </g>
 </g>
 <defs>
  <clipPath id="p579cb4026b">
   <rect x="146.769808" y="0" width="167.260383" height="334.520258"/>
  </clipPath>
 </defs>
</svg>
