<?xml version="1.0" encoding="utf-8" standalone="no"?>
<!DOCTYPE svg PUBLIC "-//W3C//DTD SVG 1.1//EN"
  "http://www.w3.org/Graphics/SVG/1.1/DTD/svg11.dtd">
<svg xmlns:xlink="http://www.w3.org/1999/xlink" width="576pt" height="144pt" viewBox="0 0 576 144" xmlns="http://www.w3.org/2000/svg" version="1.1">
 <metadata>
  <rdf:RDF xmlns:dc="http://purl.org/dc/elements/1.1/" xmlns:cc="http://creativecommons.org/ns#" xmlns:rdf="http://www.w3.org/1999/02/22-rdf-syntax-ns#">
   <cc:Work>
    <dc:type rdf:resource="http://purl.org/dc/dcmitype/StillImage"/>
    <dc:date>2024-03-20T19:27:00.058612</dc:date>
    <dc:format>image/svg+xml</dc:format>
    <dc:creator>
     <cc:Agent>
      <dc:title>Matplotlib v3.8.0, https://matplotlib.org/</dc:title>
     </cc:Agent>
    </dc:creator>
   </cc:Work>
  </rdf:RDF>
 </metadata>
 <defs>
  <style type="text/css">*{stroke-linejoin: round; stroke-linecap: butt}</style>
 </defs>
 <g id="figure_1">
  <g id="patch_1">
   <path d="M 0 144 
L 576 144 
L 576 0 
L 0 0 
z
" style="fill: #ffffff"/>
  </g>
  <g id="axes_1">
   <g id="patch_2">
    <path d="M 0 140.112916 
L 576 140.112916 
L 576 1.718301 
L 0 1.718301 
z
" style="fill: #ffffff"/>
   </g>
   <g id="matplotlib.axis_1">
    <g id="xtick_1">
     <g id="line2d_1">
      <defs>
       <path id="m5c2012192f" d="M 0 0 
L 0 3.5 
" style="stroke: #000000; stroke-width: 0.8"/>
      </defs>
      <g>
       <use xlink:href="#m5c2012192f" x="11.076923" y="70.920822" style="stroke: #000000; stroke-width: 0.8"/>
      </g>
     </g>
     <g id="text_1">
      <!-- −3 -->
      <g transform="translate(3.705829 85.519259) scale(0.1 -0.1)">
       <defs>
        <path id="DejaVuSans-2212" d="M 678 2272 
L 4684 2272 
L 4684 1741 
L 678 1741 
L 678 2272 
z
" transform="scale(0.015625)"/>
        <path id="DejaVuSans-33" d="M 2597 2516 
Q 3050 2419 3304 2112 
Q 3559 1806 3559 1356 
Q 3559 666 3084 287 
Q 2609 -91 1734 -91 
Q 1441 -91 1130 -33 
Q 819 25 488 141 
L 488 750 
Q 750 597 1062 519 
Q 1375 441 1716 441 
Q 2309 441 2620 675 
Q 2931 909 2931 1356 
Q 2931 1769 2642 2001 
Q 2353 2234 1838 2234 
L 1294 2234 
L 1294 2753 
L 1863 2753 
Q 2328 2753 2575 2939 
Q 2822 3125 2822 3475 
Q 2822 3834 2567 4026 
Q 2313 4219 1838 4219 
Q 1578 4219 1281 4162 
Q 984 4106 628 3988 
L 628 4550 
Q 988 4650 1302 4700 
Q 1616 4750 1894 4750 
Q 2613 4750 3031 4423 
Q 3450 4097 3450 3541 
Q 3450 3153 3228 2886 
Q 3006 2619 2597 2516 
z
" transform="scale(0.015625)"/>
       </defs>
       <use xlink:href="#DejaVuSans-2212"/>
       <use xlink:href="#DejaVuSans-33" x="83.789062"/>
      </g>
     </g>
    </g>
    <g id="xtick_2">
     <g id="line2d_2">
      <g>
       <use xlink:href="#m5c2012192f" x="103.384615" y="70.920822" style="stroke: #000000; stroke-width: 0.8"/>
      </g>
     </g>
     <g id="text_2">
      <!-- −2 -->
      <g transform="translate(96.013522 85.519259) scale(0.1 -0.1)">
       <defs>
        <path id="DejaVuSans-32" d="M 1228 531 
L 3431 531 
L 3431 0 
L 469 0 
L 469 531 
Q 828 903 1448 1529 
Q 2069 2156 2228 2338 
Q 2531 2678 2651 2914 
Q 2772 3150 2772 3378 
Q 2772 3750 2511 3984 
Q 2250 4219 1831 4219 
Q 1534 4219 1204 4116 
Q 875 4013 500 3803 
L 500 4441 
Q 881 4594 1212 4672 
Q 1544 4750 1819 4750 
Q 2544 4750 2975 4387 
Q 3406 4025 3406 3419 
Q 3406 3131 3298 2873 
Q 3191 2616 2906 2266 
Q 2828 2175 2409 1742 
Q 1991 1309 1228 531 
z
" transform="scale(0.015625)"/>
       </defs>
       <use xlink:href="#DejaVuSans-2212"/>
       <use xlink:href="#DejaVuSans-32" x="83.789062"/>
      </g>
     </g>
    </g>
    <g id="xtick_3">
     <g id="line2d_3">
      <g>
       <use xlink:href="#m5c2012192f" x="195.692308" y="70.920822" style="stroke: #000000; stroke-width: 0.8"/>
      </g>
     </g>
     <g id="text_3">
      <!-- −1 -->
      <g transform="translate(188.321214 85.519259) scale(0.1 -0.1)">
       <defs>
        <path id="DejaVuSans-31" d="M 794 531 
L 1825 531 
L 1825 4091 
L 703 3866 
L 703 4441 
L 1819 4666 
L 2450 4666 
L 2450 531 
L 3481 531 
L 3481 0 
L 794 0 
L 794 531 
z
" transform="scale(0.015625)"/>
       </defs>
       <use xlink:href="#DejaVuSans-2212"/>
       <use xlink:href="#DejaVuSans-31" x="83.789062"/>
      </g>
     </g>
    </g>
    <g id="xtick_4">
     <g id="line2d_4">
      <g>
       <use xlink:href="#m5c2012192f" x="288" y="70.920822" style="stroke: #000000; stroke-width: 0.8"/>
      </g>
     </g>
    </g>
    <g id="xtick_5">
     <g id="line2d_5">
      <g>
       <use xlink:href="#m5c2012192f" x="380.307692" y="70.920822" style="stroke: #000000; stroke-width: 0.8"/>
      </g>
     </g>
     <g id="text_4">
      <!-- 1 -->
      <g transform="translate(377.126442 85.519259) scale(0.1 -0.1)">
       <use xlink:href="#DejaVuSans-31"/>
      </g>
     </g>
    </g>
    <g id="xtick_6">
     <g id="line2d_6">
      <g>
       <use xlink:href="#m5c2012192f" x="472.615385" y="70.920822" style="stroke: #000000; stroke-width: 0.8"/>
      </g>
     </g>
     <g id="text_5">
      <!-- 2 -->
      <g transform="translate(469.434135 85.519259) scale(0.1 -0.1)">
       <use xlink:href="#DejaVuSans-32"/>
      </g>
     </g>
    </g>
    <g id="xtick_7">
     <g id="line2d_7">
      <g>
       <use xlink:href="#m5c2012192f" x="564.923077" y="70.920822" style="stroke: #000000; stroke-width: 0.8"/>
      </g>
     </g>
     <g id="text_6">
      <!-- 3 -->
      <g transform="translate(561.741827 85.519259) scale(0.1 -0.1)">
       <use xlink:href="#DejaVuSans-33"/>
      </g>
     </g>
    </g>
    <g id="xtick_8">
     <g id="line2d_8">
      <defs>
       <path id="ma0e82d344b" d="M 0 0 
L 0 2 
" style="stroke: #000000; stroke-width: 0.6"/>
      </defs>
      <g>
       <use xlink:href="#ma0e82d344b" x="29.538462" y="70.920822" style="stroke: #000000; stroke-width: 0.6"/>
      </g>
     </g>
    </g>
    <g id="xtick_9">
     <g id="line2d_9">
      <g>
       <use xlink:href="#ma0e82d344b" x="48" y="70.920822" style="stroke: #000000; stroke-width: 0.6"/>
      </g>
     </g>
    </g>
    <g id="xtick_10">
     <g id="line2d_10">
      <g>
       <use xlink:href="#ma0e82d344b" x="66.461538" y="70.920822" style="stroke: #000000; stroke-width: 0.6"/>
      </g>
     </g>
    </g>
    <g id="xtick_11">
     <g id="line2d_11">
      <g>
       <use xlink:href="#ma0e82d344b" x="84.923077" y="70.920822" style="stroke: #000000; stroke-width: 0.6"/>
      </g>
     </g>
    </g>
    <g id="xtick_12">
     <g id="line2d_12">
      <g>
       <use xlink:href="#ma0e82d344b" x="121.846154" y="70.920822" style="stroke: #000000; stroke-width: 0.6"/>
      </g>
     </g>
    </g>
    <g id="xtick_13">
     <g id="line2d_13">
      <g>
       <use xlink:href="#ma0e82d344b" x="140.307692" y="70.920822" style="stroke: #000000; stroke-width: 0.6"/>
      </g>
     </g>
    </g>
    <g id="xtick_14">
     <g id="line2d_14">
      <g>
       <use xlink:href="#ma0e82d344b" x="158.769231" y="70.920822" style="stroke: #000000; stroke-width: 0.6"/>
      </g>
     </g>
    </g>
    <g id="xtick_15">
     <g id="line2d_15">
      <g>
       <use xlink:href="#ma0e82d344b" x="177.230769" y="70.920822" style="stroke: #000000; stroke-width: 0.6"/>
      </g>
     </g>
    </g>
    <g id="xtick_16">
     <g id="line2d_16">
      <g>
       <use xlink:href="#ma0e82d344b" x="214.153846" y="70.920822" style="stroke: #000000; stroke-width: 0.6"/>
      </g>
     </g>
    </g>
    <g id="xtick_17">
     <g id="line2d_17">
      <g>
       <use xlink:href="#ma0e82d344b" x="232.615385" y="70.920822" style="stroke: #000000; stroke-width: 0.6"/>
      </g>
     </g>
    </g>
    <g id="xtick_18">
     <g id="line2d_18">
      <g>
       <use xlink:href="#ma0e82d344b" x="251.076923" y="70.920822" style="stroke: #000000; stroke-width: 0.6"/>
      </g>
     </g>
    </g>
    <g id="xtick_19">
     <g id="line2d_19">
      <g>
       <use xlink:href="#ma0e82d344b" x="269.538462" y="70.920822" style="stroke: #000000; stroke-width: 0.6"/>
      </g>
     </g>
    </g>
    <g id="xtick_20">
     <g id="line2d_20">
      <g>
       <use xlink:href="#ma0e82d344b" x="306.461538" y="70.920822" style="stroke: #000000; stroke-width: 0.6"/>
      </g>
     </g>
    </g>
    <g id="xtick_21">
     <g id="line2d_21">
      <g>
       <use xlink:href="#ma0e82d344b" x="324.923077" y="70.920822" style="stroke: #000000; stroke-width: 0.6"/>
      </g>
     </g>
    </g>
    <g id="xtick_22">
     <g id="line2d_22">
      <g>
       <use xlink:href="#ma0e82d344b" x="343.384615" y="70.920822" style="stroke: #000000; stroke-width: 0.6"/>
      </g>
     </g>
    </g>
    <g id="xtick_23">
     <g id="line2d_23">
      <g>
       <use xlink:href="#ma0e82d344b" x="361.846154" y="70.920822" style="stroke: #000000; stroke-width: 0.6"/>
      </g>
     </g>
    </g>
    <g id="xtick_24">
     <g id="line2d_24">
      <g>
       <use xlink:href="#ma0e82d344b" x="398.769231" y="70.920822" style="stroke: #000000; stroke-width: 0.6"/>
      </g>
     </g>
    </g>
    <g id="xtick_25">
     <g id="line2d_25">
      <g>
       <use xlink:href="#ma0e82d344b" x="417.230769" y="70.920822" style="stroke: #000000; stroke-width: 0.6"/>
      </g>
     </g>
    </g>
    <g id="xtick_26">
     <g id="line2d_26">
      <g>
       <use xlink:href="#ma0e82d344b" x="435.692308" y="70.920822" style="stroke: #000000; stroke-width: 0.6"/>
      </g>
     </g>
    </g>
    <g id="xtick_27">
     <g id="line2d_27">
      <g>
       <use xlink:href="#ma0e82d344b" x="454.153846" y="70.920822" style="stroke: #000000; stroke-width: 0.6"/>
      </g>
     </g>
    </g>
    <g id="xtick_28">
     <g id="line2d_28">
      <g>
       <use xlink:href="#ma0e82d344b" x="491.076923" y="70.920822" style="stroke: #000000; stroke-width: 0.6"/>
      </g>
     </g>
    </g>
    <g id="xtick_29">
     <g id="line2d_29">
      <g>
       <use xlink:href="#ma0e82d344b" x="509.538462" y="70.920822" style="stroke: #000000; stroke-width: 0.6"/>
      </g>
     </g>
    </g>
    <g id="xtick_30">
     <g id="line2d_30">
      <g>
       <use xlink:href="#ma0e82d344b" x="528" y="70.920822" style="stroke: #000000; stroke-width: 0.6"/>
      </g>
     </g>
    </g>
    <g id="xtick_31">
     <g id="line2d_31">
      <g>
       <use xlink:href="#ma0e82d344b" x="546.461538" y="70.920822" style="stroke: #000000; stroke-width: 0.6"/>
      </g>
     </g>
    </g>
   </g>
   <g id="matplotlib.axis_2">
    <g id="ytick_1">
     <g id="line2d_32">
      <defs>
       <path id="m77c18d0732" d="M 0 0 
L -3.5 0 
" style="stroke: #000000; stroke-width: 0.8"/>
      </defs>
      <g>
       <use xlink:href="#m77c18d0732" x="288" y="137.462082" style="stroke: #000000; stroke-width: 0.8"/>
      </g>
     </g>
     <g id="text_7">
      <!-- −1.0 -->
      <g transform="translate(256.717187 141.261301) scale(0.1 -0.1)">
       <defs>
        <path id="DejaVuSans-2e" d="M 684 794 
L 1344 794 
L 1344 0 
L 684 0 
L 684 794 
z
" transform="scale(0.015625)"/>
        <path id="DejaVuSans-30" d="M 2034 4250 
Q 1547 4250 1301 3770 
Q 1056 3291 1056 2328 
Q 1056 1369 1301 889 
Q 1547 409 2034 409 
Q 2525 409 2770 889 
Q 3016 1369 3016 2328 
Q 3016 3291 2770 3770 
Q 2525 4250 2034 4250 
z
M 2034 4750 
Q 2819 4750 3233 4129 
Q 3647 3509 3647 2328 
Q 3647 1150 3233 529 
Q 2819 -91 2034 -91 
Q 1250 -91 836 529 
Q 422 1150 422 2328 
Q 422 3509 836 4129 
Q 1250 4750 2034 4750 
z
" transform="scale(0.015625)"/>
       </defs>
       <use xlink:href="#DejaVuSans-2212"/>
       <use xlink:href="#DejaVuSans-31" x="83.789062"/>
       <use xlink:href="#DejaVuSans-2e" x="147.412109"/>
       <use xlink:href="#DejaVuSans-30" x="179.199219"/>
      </g>
     </g>
    </g>
    <g id="ytick_2">
     <g id="line2d_33">
      <g>
       <use xlink:href="#m77c18d0732" x="288" y="104.191452" style="stroke: #000000; stroke-width: 0.8"/>
      </g>
     </g>
     <g id="text_8">
      <!-- −0.5 -->
      <g transform="translate(256.717187 107.990671) scale(0.1 -0.1)">
       <defs>
        <path id="DejaVuSans-35" d="M 691 4666 
L 3169 4666 
L 3169 4134 
L 1269 4134 
L 1269 2991 
Q 1406 3038 1543 3061 
Q 1681 3084 1819 3084 
Q 2600 3084 3056 2656 
Q 3513 2228 3513 1497 
Q 3513 744 3044 326 
Q 2575 -91 1722 -91 
Q 1428 -91 1123 -41 
Q 819 9 494 109 
L 494 744 
Q 775 591 1075 516 
Q 1375 441 1709 441 
Q 2250 441 2565 725 
Q 2881 1009 2881 1497 
Q 2881 1984 2565 2268 
Q 2250 2553 1709 2553 
Q 1456 2553 1204 2497 
Q 953 2441 691 2322 
L 691 4666 
z
" transform="scale(0.015625)"/>
       </defs>
       <use xlink:href="#DejaVuSans-2212"/>
       <use xlink:href="#DejaVuSans-30" x="83.789062"/>
       <use xlink:href="#DejaVuSans-2e" x="147.412109"/>
       <use xlink:href="#DejaVuSans-35" x="179.199219"/>
      </g>
     </g>
    </g>
    <g id="ytick_3">
     <g id="line2d_34">
      <g>
       <use xlink:href="#m77c18d0732" x="288" y="70.920822" style="stroke: #000000; stroke-width: 0.8"/>
      </g>
     </g>
    </g>
    <g id="ytick_4">
     <g id="line2d_35">
      <g>
       <use xlink:href="#m77c18d0732" x="288" y="37.650192" style="stroke: #000000; stroke-width: 0.8"/>
      </g>
     </g>
     <g id="text_9">
      <!-- 0.5 -->
      <g transform="translate(265.096875 41.449411) scale(0.1 -0.1)">
       <use xlink:href="#DejaVuSans-30"/>
       <use xlink:href="#DejaVuSans-2e" x="63.623047"/>
       <use xlink:href="#DejaVuSans-35" x="95.410156"/>
      </g>
     </g>
    </g>
    <g id="ytick_5">
     <g id="line2d_36">
      <g>
       <use xlink:href="#m77c18d0732" x="288" y="4.379562" style="stroke: #000000; stroke-width: 0.8"/>
      </g>
     </g>
     <g id="text_10">
      <!-- 1.0 -->
      <g transform="translate(265.096875 8.17878) scale(0.1 -0.1)">
       <use xlink:href="#DejaVuSans-31"/>
       <use xlink:href="#DejaVuSans-2e" x="63.623047"/>
       <use xlink:href="#DejaVuSans-30" x="95.410156"/>
      </g>
     </g>
    </g>
    <g id="ytick_6">
     <g id="line2d_37">
      <defs>
       <path id="m9241ca51a7" d="M 0 0 
L -2 0 
" style="stroke: #000000; stroke-width: 0.6"/>
      </defs>
      <g>
       <use xlink:href="#m9241ca51a7" x="288" y="130.807956" style="stroke: #000000; stroke-width: 0.6"/>
      </g>
     </g>
    </g>
    <g id="ytick_7">
     <g id="line2d_38">
      <g>
       <use xlink:href="#m9241ca51a7" x="288" y="124.15383" style="stroke: #000000; stroke-width: 0.6"/>
      </g>
     </g>
    </g>
    <g id="ytick_8">
     <g id="line2d_39">
      <g>
       <use xlink:href="#m9241ca51a7" x="288" y="117.499704" style="stroke: #000000; stroke-width: 0.6"/>
      </g>
     </g>
    </g>
    <g id="ytick_9">
     <g id="line2d_40">
      <g>
       <use xlink:href="#m9241ca51a7" x="288" y="110.845578" style="stroke: #000000; stroke-width: 0.6"/>
      </g>
     </g>
    </g>
    <g id="ytick_10">
     <g id="line2d_41">
      <g>
       <use xlink:href="#m9241ca51a7" x="288" y="97.537326" style="stroke: #000000; stroke-width: 0.6"/>
      </g>
     </g>
    </g>
    <g id="ytick_11">
     <g id="line2d_42">
      <g>
       <use xlink:href="#m9241ca51a7" x="288" y="90.8832" style="stroke: #000000; stroke-width: 0.6"/>
      </g>
     </g>
    </g>
    <g id="ytick_12">
     <g id="line2d_43">
      <g>
       <use xlink:href="#m9241ca51a7" x="288" y="84.229074" style="stroke: #000000; stroke-width: 0.6"/>
      </g>
     </g>
    </g>
    <g id="ytick_13">
     <g id="line2d_44">
      <g>
       <use xlink:href="#m9241ca51a7" x="288" y="77.574948" style="stroke: #000000; stroke-width: 0.6"/>
      </g>
     </g>
    </g>
    <g id="ytick_14">
     <g id="line2d_45">
      <g>
       <use xlink:href="#m9241ca51a7" x="288" y="64.266696" style="stroke: #000000; stroke-width: 0.6"/>
      </g>
     </g>
    </g>
    <g id="ytick_15">
     <g id="line2d_46">
      <g>
       <use xlink:href="#m9241ca51a7" x="288" y="57.61257" style="stroke: #000000; stroke-width: 0.6"/>
      </g>
     </g>
    </g>
    <g id="ytick_16">
     <g id="line2d_47">
      <g>
       <use xlink:href="#m9241ca51a7" x="288" y="50.958444" style="stroke: #000000; stroke-width: 0.6"/>
      </g>
     </g>
    </g>
    <g id="ytick_17">
     <g id="line2d_48">
      <g>
       <use xlink:href="#m9241ca51a7" x="288" y="44.304318" style="stroke: #000000; stroke-width: 0.6"/>
      </g>
     </g>
    </g>
    <g id="ytick_18">
     <g id="line2d_49">
      <g>
       <use xlink:href="#m9241ca51a7" x="288" y="30.996066" style="stroke: #000000; stroke-width: 0.6"/>
      </g>
     </g>
    </g>
    <g id="ytick_19">
     <g id="line2d_50">
      <g>
       <use xlink:href="#m9241ca51a7" x="288" y="24.34194" style="stroke: #000000; stroke-width: 0.6"/>
      </g>
     </g>
    </g>
    <g id="ytick_20">
     <g id="line2d_51">
      <g>
       <use xlink:href="#m9241ca51a7" x="288" y="17.687814" style="stroke: #000000; stroke-width: 0.6"/>
      </g>
     </g>
    </g>
    <g id="ytick_21">
     <g id="line2d_52">
      <g>
       <use xlink:href="#m9241ca51a7" x="288" y="11.033688" style="stroke: #000000; stroke-width: 0.6"/>
      </g>
     </g>
    </g>
   </g>
   <g id="line2d_53">
    <path d="M 11.076923 43.497939 
L 13.482369 34.429416 
L 15.866504 26.377725 
L 17.654606 21.050652 
L 19.523998 16.203084 
L 20.953605 13.026266 
L 22.789599 9.652879 
L 24.333875 7.449492 
L 25.363392 6.308207 
L 26.691741 5.225984 
L 27.912127 4.619758 
L 28.725718 4.421256 
L 29.656921 4.394467 
L 30.705736 4.617747 
L 31.886596 5.185405 
L 33.1995 6.200933 
L 34.747795 7.901929 
L 36.085558 9.792559 
L 37.423321 12.05447 
L 39.053864 15.284278 
L 41.021646 19.82006 
L 43.225094 25.63793 
L 46.165931 34.425196 
L 48.378097 41.646649 
L 51.334579 51.875876 
L 62.828394 92.653739 
L 65.859082 102.34337 
L 68.006738 108.671431 
L 70.789808 116.085582 
L 72.696048 120.595279 
L 74.747329 124.890832 
L 76.395091 127.903083 
L 78.378287 130.992942 
L 80.117259 133.210655 
L 81.856231 134.963593 
L 83.481047 136.180363 
L 84.676495 136.816862 
L 86.239454 137.321273 
L 87.148569 137.445818 
L 88.057685 137.447892 
L 88.966801 137.329148 
L 89.989399 137.053524 
L 91.011998 136.630344 
L 92.034597 136.062861 
L 94.064428 134.523072 
L 95.831046 132.755451 
L 97.597663 130.613342 
L 99.150758 128.439838 
L 100.703852 126.012722 
L 103.036926 121.929588 
L 105.283608 117.554009 
L 108.19714 111.327367 
L 111.724162 103.124999 
L 114.970669 95.113344 
L 130.549797 55.612021 
L 133.713819 48.235142 
L 137.039764 40.960273 
L 140.346449 34.291358 
L 143.247216 28.951848 
L 146.713053 23.241318 
L 149.033681 19.840798 
L 151.580937 16.506991 
L 154.128193 13.593156 
L 156.38997 11.356716 
L 158.679769 9.42485 
L 160.971487 7.81997 
L 163.297277 6.51887 
L 165.437651 5.604155 
L 167.360456 5.005457 
L 169.837957 4.532583 
L 171.646326 4.390412 
L 173.972442 4.446427 
L 176.298558 4.756264 
L 178.642776 5.308331 
L 181.593293 6.318347 
L 183.190628 7.00019 
L 185.233158 7.998984 
L 188.802271 10.053095 
L 191.265389 11.672684 
L 195.641388 14.888641 
L 200.303667 18.690603 
L 205.806338 23.518894 
L 226.518445 42.360353 
L 231.463373 46.540419 
L 237.196978 51.072088 
L 241.030015 53.883838 
L 246.648518 57.656702 
L 250.213418 59.822533 
L 254.299636 62.077861 
L 256.977768 63.421231 
L 261.248624 65.338733 
L 265.331665 66.91039 
L 268.663412 68.001812 
L 272.47168 69.038013 
L 277.167848 70.004536 
L 282.201523 70.658254 
L 286.240644 70.896649 
L 290.828325 70.858352 
L 294.430951 70.597851 
L 298.910637 69.991211 
L 302.957972 69.17375 
L 307.633275 67.911611 
L 313.162279 65.980953 
L 318.386556 63.724214 
L 321.986112 61.928181 
L 325.665423 59.89293 
L 328.939625 57.916171 
L 334.137894 54.469391 
L 340.582134 49.705808 
L 346.280689 45.092222 
L 351.017207 41.019132 
L 357.989843 34.73881 
L 370.151583 23.556811 
L 377.514043 17.169709 
L 382.482565 13.278443 
L 385.588161 11.094349 
L 388.639305 9.179051 
L 391.521277 7.614122 
L 393.810855 6.562089 
L 396.252529 5.646964 
L 398.694202 4.964983 
L 400.712323 4.591492 
L 402.736975 4.401685 
L 404.812459 4.41074 
L 406.887943 4.637195 
L 408.471161 4.962822 
L 411.205352 5.851048 
L 413.761465 7.070853 
L 416.035891 8.485422 
L 418.310316 10.219484 
L 420.30871 12.012529 
L 422.967195 14.79472 
L 425.639696 18.052194 
L 428.038264 21.368786 
L 430.579462 25.283549 
L 432.713089 28.882253 
L 435.13299 33.296886 
L 437.976534 38.914545 
L 441.232365 45.872977 
L 444.309161 52.905484 
L 447.824754 61.390001 
L 451.307434 70.14551 
L 462.811713 99.555706 
L 466.436336 108.224916 
L 469.764471 115.583079 
L 472.679688 121.400436 
L 475.450691 126.265094 
L 477.249955 129.025605 
L 479.336065 131.790758 
L 481.22007 133.853758 
L 483.010119 135.405483 
L 484.606008 136.435061 
L 486.007738 137.052543 
L 486.708602 137.257829 
L 487.734825 137.431368 
L 488.761047 137.451481 
L 489.78727 137.315744 
L 491.635279 136.671912 
L 492.457065 136.218684 
L 493.431826 135.546764 
L 494.406587 134.728566 
L 496.356109 132.652868 
L 498.002811 130.445257 
L 499.976054 127.259426 
L 502.071678 123.247043 
L 504.245629 118.428022 
L 506.453857 112.889074 
L 509.338523 104.76482 
L 512.231904 95.742848 
L 515.091639 86.142621 
L 519.550242 70.309245 
L 526.307084 46.129139 
L 529.400522 35.804152 
L 532.306371 26.965379 
L 534.747589 20.394502 
L 536.423342 16.423887 
L 538.220556 12.716674 
L 539.580649 10.322929 
L 540.969558 8.269524 
L 542.387284 6.602435 
L 543.685262 5.472619 
L 544.863493 4.786346 
L 545.920626 4.452303 
L 546.85666 4.382894 
L 547.792694 4.528782 
L 548.728728 4.89183 
L 549.759219 5.543998 
L 550.884167 6.558563 
L 552.145898 8.071173 
L 553.544414 10.206238 
L 555.057676 13.049477 
L 556.685684 16.70837 
L 558.275369 20.855418 
L 560.506551 27.569042 
L 561.962052 32.463238 
L 563.927732 39.642415 
L 564.923077 43.497939 
L 564.923077 43.497939 
" clip-path="url(#p888ce35f71)" style="fill: none; stroke: #0000ff; stroke-linecap: square"/>
   </g>
   <g id="patch_3">
    <path d="M 288 140.112916 
L 288 1.718301 
" style="fill: none; stroke: #000000; stroke-width: 0.8; stroke-linejoin: miter; stroke-linecap: square"/>
   </g>
   <g id="patch_4">
    <path d="M 0 70.920822 
L 576 70.920822 
" style="fill: none; stroke: #000000; stroke-width: 0.8; stroke-linejoin: miter; stroke-linecap: square"/>
   </g>
  </g>
 </g>
 <defs>
  <clipPath id="p888ce35f71">
   <rect x="0" y="1.718301" width="576" height="138.394615"/>
  </clipPath>
 </defs>
</svg>
