<?xml version="1.0" encoding="utf-8" standalone="no"?>
<!DOCTYPE svg PUBLIC "-//W3C//DTD SVG 1.1//EN"
  "http://www.w3.org/Graphics/SVG/1.1/DTD/svg11.dtd">
<svg xmlns:xlink="http://www.w3.org/1999/xlink" width="460.8pt" height="345.6pt" viewBox="0 0 460.8 345.6" xmlns="http://www.w3.org/2000/svg" version="1.1">
 <metadata>
  <rdf:RDF xmlns:dc="http://purl.org/dc/elements/1.1/" xmlns:cc="http://creativecommons.org/ns#" xmlns:rdf="http://www.w3.org/1999/02/22-rdf-syntax-ns#">
   <cc:Work>
    <dc:type rdf:resource="http://purl.org/dc/dcmitype/StillImage"/>
    <dc:date>2022-05-16T19:39:19.415226</dc:date>
    <dc:format>image/svg+xml</dc:format>
    <dc:creator>
     <cc:Agent>
      <dc:title>Matplotlib v3.5.1, https://matplotlib.org/</dc:title>
     </cc:Agent>
    </dc:creator>
   </cc:Work>
  </rdf:RDF>
 </metadata>
 <defs>
  <style type="text/css">*{stroke-linejoin: round; stroke-linecap: butt}</style>
 </defs>
 <g id="figure_1">
  <g id="patch_1">
   <path d="M 0 345.6 
L 460.8 345.6 
L 460.8 0 
L 0 0 
z
" style="fill: #ffffff"/>
  </g>
  <g id="axes_1">
   <g id="patch_2">
    <path d="M 9.33054 334.520722 
L 459.416766 334.520722 
L 459.416766 0 
L 9.33054 0 
z
" style="fill: #ffffff"/>
   </g>
   <g id="patch_3">
    <path d="M 450.761262 6.433091 
L 450.675816 13.994156 
L 450.59037 13.994156 
L 450.419478 13.994156 
L 450.077693 13.994156 
L 449.394124 13.994156 
L 448.026987 13.994156 
L 447.083901 13.994156 
L 446.612359 13.994156 
L 446.494473 13.994156 
L 446.43553 13.994156 
L 446.376587 12.002499 
L 446.140816 12.002499 
L 443.679766 12.002499 
L 442.557539 12.002499 
L 442.179184 12.002499 
L 442.084595 12.002499 
L 441.990006 16.099215 
L 441.800829 16.099215 
L 441.044119 16.099215 
L 439.5307 16.099215 
L 436.917262 16.565308 
L 434.506423 16.565308 
L 433.887093 16.565308 
L 433.39485 16.565308 
L 433.33332 16.565308 
L 433.27179 15.789517 
L 433.148729 15.789517 
L 432.902608 15.789517 
L 431.918122 15.789517 
L 429.686947 15.789517 
L 429.159418 15.789517 
L 429.027536 15.789517 
L 428.961595 15.789517 
L 428.895654 17.527244 
L 428.63189 17.527244 
L 427.576833 17.527244 
L 425.953526 17.527244 
L 425.141873 17.527244 
L 424.736046 17.527244 
L 424.533133 17.527244 
L 424.431676 16.745113 
L 424.330219 16.745113 
L 422.078299 16.745113 
L 420.451657 16.745113 
L 420.243911 16.745113 
L 420.140037 18.531003 
L 420.036164 18.531003 
L 419.62067 18.531003 
L 418.789682 18.531003 
L 417.127707 18.531003 
L 415.829648 18.531003 
L 415.794073 18.531003 
L 415.758497 22.969575 
L 415.687346 22.969575 
L 415.545043 22.969575 
L 415.260437 22.969575 
L 414.691226 22.969575 
L 412.62345 22.969575 
L 411.589563 22.969575 
L 411.460327 22.969575 
L 411.331091 22.221843 
L 411.072619 22.221843 
L 410.555675 22.221843 
L 408.994649 22.221843 
L 407.849289 22.221843 
L 407.276608 22.221843 
L 407.133438 22.221843 
L 407.061853 22.221843 
L 406.990268 20.121229 
L 406.703928 20.121229 
L 405.795702 20.121229 
L 403.043553 20.121229 
L 402.702203 20.121229 
L 402.616866 19.324136 
L 402.531529 19.324136 
L 402.360854 19.324136 
L 401.678155 19.324136 
L 400.312758 19.324136 
L 399.170595 19.324136 
L 398.599513 19.324136 
L 398.313972 19.324136 
L 398.242587 21.242307 
L 398.171202 21.242307 
L 398.028432 21.242307 
L 396.258618 21.242307 
L 394.165564 21.242307 
L 392.213792 21.8224 
L 390.861941 21.8224 
L 390.186015 21.8224 
L 389.848052 21.8224 
L 389.67907 21.8224 
L 389.59458 21.8224 
L 389.510089 21.017188 
L 388.159337 21.017188 
L 385.357078 21.017188 
L 383.759411 21.608413 
L 382.253313 21.608413 
L 381.500264 21.608413 
L 381.12374 21.608413 
L 380.935477 21.608413 
L 380.841346 21.608413 
L 380.747215 19.348556 
L 379.420099 19.348556 
L 377.824068 19.348556 
L 377.026052 19.348556 
L 376.627044 19.348556 
L 376.527292 19.348556 
L 376.427541 22.834123 
L 376.228037 22.834123 
L 373.965944 22.834123 
L 372.395974 22.834123 
L 372.227097 22.834123 
L 372.142658 22.834123 
L 372.100439 22.834123 
L 372.05822 20.533599 
L 371.720467 20.533599 
L 371.04496 20.533599 
L 368.016318 20.533599 
L 367.841414 20.533599 
L 367.753962 20.533599 
L 367.66651 24.121118 
L 367.316702 24.121118 
L 366.617086 24.121118 
L 365.217855 24.121118 
L 364.697406 24.121118 
L 363.73127 24.121118 
L 363.489736 24.121118 
L 363.36897 24.121118 
L 363.248203 26.294256 
L 362.765135 26.294256 
L 360.832864 26.294256 
L 359.91225 26.294256 
L 359.0975 26.294256 
L 358.995657 26.294256 
L 358.893813 25.474113 
L 358.690125 25.474113 
L 358.282751 25.474113 
L 356.653252 25.474113 
L 355.490826 25.474113 
L 354.909614 25.474113 
L 354.619007 25.474113 
L 354.546356 27.721267 
L 354.473704 27.721267 
L 354.328401 27.721267 
L 351.894167 27.721267 
L 350.862813 27.721267 
L 350.347136 27.721267 
L 350.218217 27.721267 
L 350.153757 28.462938 
L 350.089298 28.462938 
L 349.831459 28.462938 
L 349.531131 28.462938 
L 346.135142 28.462938 
L 345.971739 28.462938 
L 345.890037 28.462938 
L 345.849186 28.462938 
L 345.808335 27.638905 
L 345.481528 27.638905 
L 344.827914 27.638905 
L 342.100157 27.638905 
L 341.72092 27.638905 
L 341.531302 27.638905 
L 341.436493 28.399507 
L 341.341683 28.399507 
L 340.583209 28.399507 
L 339.066262 28.399507 
L 338.613483 28.399507 
L 337.775246 28.399507 
L 337.356128 28.399507 
L 337.146569 28.399507 
L 337.041789 29.180948 
L 336.93701 29.180948 
L 335.260537 29.180948 
L 333.76106 29.180948 
L 333.192294 29.180948 
L 332.907911 29.180948 
L 332.765719 29.180948 
L 332.694623 31.635639 
L 332.623527 31.635639 
L 331.485994 31.635639 
L 329.621903 31.635639 
L 328.930014 31.635639 
L 328.58407 31.635639 
L 328.411098 31.635639 
L 328.324611 32.484672 
L 328.238125 32.484672 
L 326.854347 32.484672 
L 324.044591 32.484672 
L 324.007731 32.484672 
L 323.989301 32.484672 
L 323.970871 31.659232 
L 323.89715 31.659232 
L 323.749709 31.659232 
L 323.454827 31.659232 
L 321.13249 31.659232 
L 320.108308 31.659232 
L 319.852263 31.659232 
L 319.72424 31.659232 
L 319.596217 29.086518 
L 319.084126 29.086518 
L 317.035762 29.086518 
L 316.038556 29.086518 
L 315.548253 29.086518 
L 315.303101 29.086518 
L 315.241813 33.432907 
L 315.180525 33.432907 
L 315.057949 33.432907 
L 314.077342 33.432907 
L 311.973817 33.432907 
L 310.969224 33.432907 
L 310.906437 33.432907 
L 310.84365 34.359453 
L 310.718075 34.359453 
L 310.466927 34.359453 
L 309.96463 34.359453 
L 308.201026 34.359453 
L 306.65484 34.359453 
L 306.558203 34.359453 
L 306.461567 42.52081 
L 306.268294 42.52081 
L 305.881747 42.52081 
L 305.108654 42.52081 
L 303.595854 42.52081 
L 302.839453 42.52081 
L 302.461253 42.52081 
L 302.272153 42.52081 
L 302.177603 42.52081 
L 302.083053 41.786277 
L 301.255897 41.786277 
L 299.42882 41.786277 
L 298.515282 41.786277 
L 298.058513 41.786277 
L 297.830128 41.786277 
L 297.715936 39.170805 
L 297.601744 39.170805 
L 295.629277 39.170805 
L 295.112079 39.170805 
L 294.07992 39.170805 
L 293.56384 39.170805 
L 293.43482 39.170805 
L 293.37031 38.359779 
L 293.3058 38.359779 
L 293.04776 38.359779 
L 289.900668 38.359779 
L 289.137285 38.359779 
L 289.041863 38.359779 
L 288.94644 47.112196 
L 288.755594 47.112196 
L 288.373903 47.112196 
L 286.847139 47.112196 
L 285.806418 47.112196 
L 285.053983 47.112196 
L 284.677766 47.112196 
L 284.583711 52.252854 
L 284.489657 52.252854 
L 284.301548 52.252854 
L 282.796678 52.252854 
L 281.449228 52.252854 
L 280.775502 52.252854 
L 280.43864 52.252854 
L 280.354424 52.252854 
L 280.270208 49.637459 
L 280.101777 49.637459 
L 278.050751 49.637459 
L 277.131928 49.637459 
L 276.281493 49.637459 
L 276.068885 49.637459 
L 275.96258 49.637459 
L 275.909428 49.637459 
L 275.856276 48.94885 
L 275.431059 48.94885 
L 271.707001 48.94885 
L 271.592721 48.94885 
L 271.535581 48.94885 
L 271.478441 50.286686 
L 271.249882 50.286686 
L 270.792763 50.286686 
L 269.878526 50.286686 
L 268.452136 50.286686 
L 267.738941 50.286686 
L 267.382343 50.286686 
L 267.204045 50.286686 
L 267.114895 47.499145 
L 267.025746 47.499145 
L 266.803327 47.499145 
L 263.073533 47.499145 
L 262.920972 47.499145 
L 262.844691 47.499145 
L 262.768411 48.858875 
L 262.463289 48.858875 
L 261.853046 48.858875 
L 260.632559 48.858875 
L 259.492119 48.858875 
L 258.921899 48.858875 
L 258.636789 48.858875 
L 258.494234 48.858875 
L 258.422957 48.858875 
L 258.351679 50.268048 
L 256.808578 50.268048 
L 254.870527 50.268048 
L 254.401127 50.268048 
L 254.166427 50.268048 
L 254.049077 50.268048 
L 253.990402 51.729414 
L 253.931727 51.729414 
L 252.992927 51.729414 
L 251.143127 51.729414 
L 249.736155 51.729414 
L 249.648219 57.733137 
L 249.560283 57.733137 
L 249.384411 57.733137 
L 249.032668 57.733137 
L 248.329182 57.733137 
L 246.570638 57.733137 
L 245.51053 57.733137 
L 245.378017 57.733137 
L 245.31176 57.733137 
L 245.245503 54.820764 
L 244.980476 54.820764 
L 244.450422 54.820764 
L 242.588357 54.820764 
L 241.654868 54.820764 
L 241.188124 54.820764 
L 240.954752 54.820764 
L 240.896409 56.457361 
L 240.838066 56.457361 
L 240.72138 56.457361 
L 237.661616 56.457361 
L 237.013556 56.457361 
L 236.689527 56.457361 
L 236.608519 56.457361 
L 236.568015 56.457361 
L 236.527512 55.7812 
L 236.365497 55.7812 
L 232.222964 55.7812 
L 232.189566 55.7812 
L 232.172867 52.650683 
L 232.156167 52.650683 
L 232.08937 52.650683 
L 231.955777 52.650683 
L 231.688589 52.650683 
L 229.610082 52.650683 
L 228.554936 52.650683 
L 228.027363 52.650683 
L 227.89547 52.650683 
L 227.829523 52.650683 
L 227.763576 51.867042 
L 227.49979 51.867042 
L 225.625854 51.867042 
L 223.64031 51.867042 
L 223.516213 51.867042 
L 223.392117 61.17015 
L 223.143924 61.17015 
L 222.647538 61.17015 
L 221.654765 61.17015 
L 220.776286 61.17015 
L 219.765203 61.17015 
L 219.259661 61.17015 
L 219.133276 61.17015 
L 219.070083 70.87774 
L 219.006891 70.87774 
L 218.75412 70.87774 
L 215.947306 70.87774 
L 214.848946 70.87774 
L 214.711651 70.87774 
L 214.643004 67.804434 
L 214.574356 67.804434 
L 214.299767 67.804434 
L 213.750587 67.804434 
L 210.990013 67.804434 
L 209.625792 67.293957 
L 207.878459 67.293957 
L 206.016035 67.293957 
L 205.899634 63.994362 
L 205.783232 63.994362 
L 205.550429 63.994362 
L 205.084823 63.994362 
L 204.153611 63.994362 
L 202.280528 63.994362 
L 201.918705 63.994362 
L 201.737793 63.994362 
L 201.647337 63.994362 
L 201.602109 63.994362 
L 201.579495 71.862511 
L 201.556881 71.862511 
L 197.674292 71.862511 
L 197.409679 71.862511 
L 197.277372 71.862511 
L 197.211218 68.513389 
L 197.145065 68.513389 
L 196.615837 68.513389 
L 195.557383 68.513389 
L 193.608577 68.513389 
L 192.855233 68.513389 
L 192.727287 70.942366 
L 192.599342 70.942366 
L 192.34345 70.942366 
L 191.831666 70.942366 
L 190.808099 70.942366 
L 188.760965 70.942366 
L 188.500727 70.942366 
L 188.435668 73.495905 
L 188.370608 73.495905 
L 188.240489 73.495905 
L 187.720013 73.495905 
L 186.679061 73.495905 
L 185.118609 73.495905 
L 183.805631 73.054602 
L 180.016297 73.054602 
L 179.85029 73.054602 
L 179.767286 73.054602 
L 179.725785 75.803259 
L 179.684283 75.803259 
L 179.352269 75.803259 
L 178.68824 75.803259 
L 175.847851 75.803259 
L 175.453974 75.803259 
L 175.387742 75.803259 
L 175.321511 78.704618 
L 175.189049 78.704618 
L 174.924124 78.704618 
L 174.394274 78.704618 
L 173.334574 78.704618 
L 171.705669 78.704618 
L 171.298443 78.704618 
L 171.09483 78.704618 
L 170.993024 78.704618 
L 170.891217 74.976849 
L 170.076765 74.976849 
L 168.143049 74.976849 
L 167.328533 74.976849 
L 166.921276 74.976849 
L 166.717647 74.976849 
L 166.615832 85.019342 
L 166.514018 85.019342 
L 164.884987 85.019342 
L 164.505199 85.019342 
L 162.816715 85.019342 
L 162.394594 85.019342 
L 162.289064 85.019342 
L 162.183534 81.257003 
L 161.972473 81.257003 
L 161.128231 81.257003 
L 159.23503 81.257003 
L 158.376245 81.257003 
L 157.946852 81.257003 
L 157.893178 81.257003 
L 157.839503 84.691462 
L 157.732155 84.691462 
L 157.517459 84.691462 
L 154.227634 84.691462 
L 152.393355 84.511657 
L 150.838939 84.511657 
L 149.347034 84.511657 
L 149.160546 84.511657 
L 149.067302 104.138382 
L 148.974058 104.138382 
L 148.601082 104.138382 
L 147.85513 104.138382 
L 146.21788 104.138382 
L 143.89412 104.61676 
L 141.946317 104.61676 
L 140.93922 104.61676 
L 140.435671 104.61676 
L 140.372727 100.882483 
L 140.309784 100.882483 
L 140.183897 100.882483 
L 139.932122 100.882483 
L 137.849891 100.882483 
L 134.715196 101.275708 
L 132.585244 101.275708 
L 131.886374 101.275708 
L 131.711657 101.275708 
L 131.667978 101.275708 
L 131.624298 97.125676 
L 131.53694 97.125676 
L 131.187505 97.125676 
L 129.543634 97.125676 
L 126.906602 97.400086 
L 125.525971 97.400086 
L 123.311143 97.400086 
L 122.999221 97.400086 
L 122.92124 97.400086 
L 122.843259 107.606623 
L 122.687298 107.606623 
L 122.063454 107.606623 
L 120.815764 107.606623 
L 119.269329 107.606623 
L 118.88272 107.606623 
L 118.689415 107.606623 
L 118.592763 107.606623 
L 118.496111 113.530636 
L 117.722893 113.530636 
L 116.012498 113.530636 
L 114.356411 113.530636 
L 114.252905 113.530636 
L 114.1494 114.588146 
L 113.942389 114.588146 
L 113.528367 114.588146 
L 112.700323 114.588146 
L 111.465076 114.588146 
L 110.305443 114.588146 
L 110.015535 114.588146 
L 109.870581 114.588146 
L 109.798104 114.588146 
L 109.725627 121.408805 
L 109.145811 121.408805 
L 107.084222 121.408805 
L 105.80098 121.408805 
L 105.48017 121.408805 
L 105.399967 117.020419 
L 105.319764 117.020419 
L 105.159359 117.020419 
L 104.517738 117.020419 
L 101.875755 117.020419 
L 101.338495 117.020419 
L 101.069865 117.020419 
L 101.002708 118.428577 
L 100.93555 118.428577 
L 100.801235 118.428577 
L 99.726716 118.428577 
L 97.518151 118.428577 
L 97.119007 118.428577 
L 96.677472 118.428577 
L 96.567088 126.599369 
L 96.456705 126.599369 
L 96.235937 126.599369 
L 95.352867 126.599369 
L 93.586727 126.599369 
L 92.904243 126.599369 
L 92.563001 126.599369 
L 92.392379 126.599369 
L 92.307069 126.599369 
L 92.221758 121.741889 
L 90.85679 121.741889 
L 88.90305 121.741889 
L 88.339881 121.741889 
L 88.058296 121.741889 
L 87.9879 121.741889 
L 87.917504 131.141113 
L 87.776712 131.141113 
L 86.650374 131.141113 
L 85.103243 131.141113 
L 83.774134 131.141113 
L 83.607995 131.141113 
L 83.524926 141.793566 
L 83.441857 141.793566 
L 83.10958 141.793566 
L 82.445025 141.793566 
L 80.225141 141.793566 
L 79.668798 141.793566 
L 79.343765 141.793566 
L 79.262507 141.793566 
L 79.181249 145.474148 
L 79.018733 145.474148 
L 78.368667 145.474148 
L 77.068536 145.474148 
L 75.440063 145.474148 
L 75.032945 145.474148 
L 74.829386 145.474148 
L 74.727606 140.573965 
L 74.625827 140.573965 
L 73.81159 140.573965 
L 72.944024 140.573965 
L 71.025749 140.573965 
L 70.723244 140.573965 
L 70.571992 140.573965 
L 70.496366 140.573965 
L 70.42074 144.766343 
L 69.815731 144.766343 
L 68.605713 144.766343 
L 67.284988 144.766343 
L 66.624626 144.766343 
L 66.294445 144.766343 
L 66.129354 144.766343 
L 66.046809 160.531073 
L 65.964263 160.531073 
L 62.621465 160.531073 
L 61.888612 160.531073 
L 61.705398 160.531073 
L 61.659595 155.666528 
L 61.613791 155.666528 
L 61.522185 155.666528 
L 61.155758 155.666528 
L 58.936502 155.666528 
L 57.612429 155.666528 
L 57.44692 155.666528 
L 57.364166 155.666528 
L 57.281411 176.145663 
L 56.950393 176.145663 
L 56.288356 176.145663 
L 55.519168 176.145663 
L 53.795101 176.145663 
L 53.364084 176.145663 
L 53.148576 176.145663 
L 53.040822 176.145663 
L 52.933068 186.880693 
L 52.071034 186.880693 
L 49.623747 186.880693 
L 48.885517 186.880693 
L 48.70096 186.880693 
L 48.608681 186.880693 
L 48.562542 183.695574 
L 48.516402 183.695574 
L 48.147287 183.695574 
L 47.142533 183.695574 
L 44.629467 183.695574 
L 44.300297 183.695574 
L 44.218004 183.695574 
L 44.135711 199.267267 
L 43.971126 199.267267 
L 43.312785 199.267267 
L 41.996102 199.267267 
L 40.168598 199.267267 
L 39.888605 199.267267 
L 39.818607 197.285415 
L 39.748609 197.285415 
L 39.608612 197.285415 
L 39.048627 197.285415 
L 37.928655 197.285415 
L 36.271205 197.285415 
L 35.772872 197.285415 
L 35.523706 197.285415 
L 35.461414 224.040414 
L 35.399123 224.040414 
L 35.27454 224.040414 
L 34.277875 224.040414 
L 32.16713 224.040414 
L 31.111758 224.040414 
L 30.979836 228.995043 
L 30.847915 228.995043 
L 30.584072 228.995043 
L 30.056385 228.995043 
L 28.438942 228.995043 
L 27.327109 228.995043 
L 26.771192 228.995043 
L 26.701703 238.904302 
L 26.632213 238.904302 
L 26.493234 238.904302 
L 26.215276 238.904302 
L 25.41468 238.904302 
L 23.428042 238.904302 
L 22.434723 238.904302 
L 22.310558 209.176526 
L 22.186393 209.176526 
L 21.938064 209.176526 
L 21.441404 209.176526 
L 20.671367 209.176526 
L 17.986044 209.176526 
L 17.986044 328.087631 
L 18.577719 319.559177 
L 19.169393 311.992396 
L 19.761068 305.192223 
L 20.352743 299.017514 
L 21.735219 286.47939 
L 22.669147 279.165634 
L 23.603074 272.570469 
L 25.470929 261.053009 
L 26.775179 254.041342 
L 28.942015 243.801246 
L 30.63411 236.76585 
L 32.452257 229.946769 
L 34.270403 223.756477 
L 34.817113 222.001384 
L 37.691697 213.459429 
L 40.161129 206.899651 
L 42.135627 202.079644 
L 44.725035 196.241178 
L 45.573901 194.432569 
L 48.890624 187.798731 
L 49.857293 185.98244 
L 52.92772 180.518944 
L 55.338653 176.520143 
L 56.343633 174.92109 
L 59.817899 169.669086 
L 61.681597 167.012291 
L 63.091196 165.070387 
L 65.406957 161.997166 
L 67.819777 158.937987 
L 69.948559 156.349956 
L 71.450524 154.582153 
L 73.457469 152.290334 
L 76.72824 148.715123 
L 79.959627 145.360461 
L 80.76639 144.548415 
L 83.593684 141.77766 
L 86.284471 139.242748 
L 87.236298 138.368477 
L 90.29223 135.636059 
L 92.798081 133.475552 
L 95.162778 131.498555 
L 97.251828 129.799133 
L 97.706723 129.434712 
L 101.126094 126.756913 
L 103.32165 125.092127 
L 104.441903 124.258325 
L 108.233687 121.510517 
L 110.325086 120.041682 
L 112.539501 118.520676 
L 113.168049 118.095149 
L 116.903107 115.620638 
L 117.220157 115.414726 
L 120.067176 113.59344 
L 123.15562 111.671989 
L 124.286934 110.98168 
L 125.905893 110.005993 
L 129.941701 107.633717 
L 131.185241 106.919322 
L 132.945361 105.920971 
L 134.630168 104.979036 
L 138.010821 103.127921 
L 139.709145 102.216884 
L 141.632618 101.199771 
L 143.749276 100.098017 
L 146.975934 98.452504 
L 147.964289 97.956427 
L 149.779864 97.054585 
L 151.987514 95.974053 
L 154.898898 94.575142 
L 157.920698 93.153341 
L 159.945057 92.217407 
L 162.348476 91.122888 
L 164.248257 90.27017 
L 165.97932 89.502494 
L 168.124323 88.563257 
L 170.686826 87.458154 
L 171.414194 87.147754 
L 173.540857 86.248353 
L 175.660151 85.363889 
L 179.242514 83.894805 
L 181.940225 82.809331 
L 184.305328 81.871904 
L 184.611561 81.751477 
L 188.479347 80.248754 
L 190.23855 79.576228 
L 192.782436 78.61548 
L 194.222799 78.077528 
L 196.795054 77.12742 
L 198.530018 76.494085 
L 200.240692 75.875409 
L 203.819324 74.599309 
L 205.27775 74.086124 
L 206.547292 73.642572 
L 210.376865 72.322066 
L 211.189223 72.045256 
L 213.143089 71.384112 
L 215.766063 70.506666 
L 218.244746 69.687888 
L 220.254012 69.031418 
L 221.910952 68.494844 
L 225.006786 67.503649 
L 226.83821 66.924092 
L 228.003446 66.557937 
L 231.454948 65.484926 
L 232.593804 65.134603 
L 235.41727 64.273875 
L 237.591055 63.618635 
L 239.255254 63.121281 
L 241.062218 62.585398 
L 244.408772 61.604076 
L 246.406497 61.025035 
L 247.88052 60.600967 
L 251.406671 59.597243 
L 253.703925 58.951301 
L 254.171353 58.820627 
L 257.338591 57.941826 
L 260.295481 57.131637 
L 261.868064 56.704695 
L 263.171261 56.352934 
L 266.308116 55.513704 
L 267.480593 55.202694 
L 271.151259 54.238221 
L 273.386113 53.657719 
L 274.043909 53.487808 
L 277.554874 52.588111 
L 279.163961 52.179769 
L 281.997225 51.466742 
L 283.835875 51.008038 
L 285.147521 50.682714 
L 288.028116 49.973729 
L 289.854167 49.528138 
L 292.18992 48.962443 
L 294.067954 48.511032 
L 295.660019 48.130719 
L 298.088844 47.554636 
L 301.712947 46.704132 
L 302.005873 46.635856 
L 305.040255 45.932647 
L 308.077968 45.235963 
L 309.931939 44.814287 
L 312.605198 44.21089 
L 313.996863 43.898901 
L 315.396077 43.586674 
L 317.528516 43.113604 
L 319.299879 42.723154 
L 321.962684 42.140446 
L 323.576843 41.789661 
L 327.682705 40.905552 
L 328.720855 40.68384 
L 330.696319 40.26396 
L 334.180947 39.529648 
L 334.934717 39.371857 
L 337.730829 38.789747 
L 339.662158 38.390598 
L 341.621498 37.988068 
L 345.015981 37.296358 
L 347.388151 36.817163 
L 349.368961 36.419627 
L 350.24556 36.244447 
L 352.550613 35.785973 
L 354.967055 35.308679 
L 357.075916 34.894891 
L 359.602691 34.402436 
L 361.074826 34.11718 
L 363.249497 33.697997 
L 365.574281 33.252752 
L 367.537803 32.878981 
L 369.212164 32.561889 
L 372.932408 31.862657 
L 373.748548 31.710229 
L 376.917095 31.121706 
L 379.931105 30.566631 
L 380.734671 30.419413 
L 383.234573 29.963469 
L 384.449044 29.74308 
L 387.517064 29.189528 
L 388.845695 28.951216 
L 392.41863 28.314512 
L 394.116921 28.013976 
L 395.475568 27.774509 
L 397.525661 27.414779 
L 401.524518 26.718595 
L 401.974304 26.640739 
L 404.042763 26.283853 
L 408.226731 25.567707 
L 409.367418 25.373779 
L 412.060068 24.918211 
L 414.238983 24.551809 
L 415.485577 24.34308 
L 418.415238 23.855076 
L 420.559927 23.500062 
L 421.915694 23.276603 
L 424.851497 22.795253 
L 427.435169 22.374473 
L 429.798561 21.991862 
L 431.796992 21.670027 
L 434.226759 21.280792 
L 435.193575 21.126539 
L 438.548108 20.594061 
L 440.170775 20.337995 
L 441.817642 20.079105 
L 444.863283 19.602937 
L 446.694959 19.318182 
L 448.997786 18.961886 
L 450.761262 18.69031 
z
" clip-path="url(#pf26ae8378b)" style="fill: #ff0000; opacity: 0.5"/>
   </g>
   <g id="matplotlib.axis_1">
    <g id="xtick_1">
     <g id="line2d_1">
      <defs>
       <path id="m16c32ae83c" d="M 0 0 
L 0 3.5 
" style="stroke: #000000; stroke-width: 0.8"/>
      </defs>
      <g>
       <use xlink:href="#m16c32ae83c" x="13.614577" y="328.087631" style="stroke: #000000; stroke-width: 0.8"/>
      </g>
     </g>
    </g>
    <g id="xtick_2">
     <g id="line2d_2">
      <g>
       <use xlink:href="#m16c32ae83c" x="101.043914" y="328.087631" style="stroke: #000000; stroke-width: 0.8"/>
      </g>
     </g>
     <g id="text_1">
      <!-- 20 -->
      <g transform="translate(94.681414 342.686069)scale(0.1 -0.1)">
       <defs>
        <path id="DejaVuSans-32" d="M 1228 531 
L 3431 531 
L 3431 0 
L 469 0 
L 469 531 
Q 828 903 1448 1529 
Q 2069 2156 2228 2338 
Q 2531 2678 2651 2914 
Q 2772 3150 2772 3378 
Q 2772 3750 2511 3984 
Q 2250 4219 1831 4219 
Q 1534 4219 1204 4116 
Q 875 4013 500 3803 
L 500 4441 
Q 881 4594 1212 4672 
Q 1544 4750 1819 4750 
Q 2544 4750 2975 4387 
Q 3406 4025 3406 3419 
Q 3406 3131 3298 2873 
Q 3191 2616 2906 2266 
Q 2828 2175 2409 1742 
Q 1991 1309 1228 531 
z
" transform="scale(0.015625)"/>
        <path id="DejaVuSans-30" d="M 2034 4250 
Q 1547 4250 1301 3770 
Q 1056 3291 1056 2328 
Q 1056 1369 1301 889 
Q 1547 409 2034 409 
Q 2525 409 2770 889 
Q 3016 1369 3016 2328 
Q 3016 3291 2770 3770 
Q 2525 4250 2034 4250 
z
M 2034 4750 
Q 2819 4750 3233 4129 
Q 3647 3509 3647 2328 
Q 3647 1150 3233 529 
Q 2819 -91 2034 -91 
Q 1250 -91 836 529 
Q 422 1150 422 2328 
Q 422 3509 836 4129 
Q 1250 4750 2034 4750 
z
" transform="scale(0.015625)"/>
       </defs>
       <use xlink:href="#DejaVuSans-32"/>
       <use xlink:href="#DejaVuSans-30" x="63.623047"/>
      </g>
     </g>
    </g>
    <g id="xtick_3">
     <g id="line2d_3">
      <g>
       <use xlink:href="#m16c32ae83c" x="188.473251" y="328.087631" style="stroke: #000000; stroke-width: 0.8"/>
      </g>
     </g>
     <g id="text_2">
      <!-- 40 -->
      <g transform="translate(182.110751 342.686069)scale(0.1 -0.1)">
       <defs>
        <path id="DejaVuSans-34" d="M 2419 4116 
L 825 1625 
L 2419 1625 
L 2419 4116 
z
M 2253 4666 
L 3047 4666 
L 3047 1625 
L 3713 1625 
L 3713 1100 
L 3047 1100 
L 3047 0 
L 2419 0 
L 2419 1100 
L 313 1100 
L 313 1709 
L 2253 4666 
z
" transform="scale(0.015625)"/>
       </defs>
       <use xlink:href="#DejaVuSans-34"/>
       <use xlink:href="#DejaVuSans-30" x="63.623047"/>
      </g>
     </g>
    </g>
    <g id="xtick_4">
     <g id="line2d_4">
      <g>
       <use xlink:href="#m16c32ae83c" x="275.902588" y="328.087631" style="stroke: #000000; stroke-width: 0.8"/>
      </g>
     </g>
     <g id="text_3">
      <!-- 60 -->
      <g transform="translate(269.540088 342.686069)scale(0.1 -0.1)">
       <defs>
        <path id="DejaVuSans-36" d="M 2113 2584 
Q 1688 2584 1439 2293 
Q 1191 2003 1191 1497 
Q 1191 994 1439 701 
Q 1688 409 2113 409 
Q 2538 409 2786 701 
Q 3034 994 3034 1497 
Q 3034 2003 2786 2293 
Q 2538 2584 2113 2584 
z
M 3366 4563 
L 3366 3988 
Q 3128 4100 2886 4159 
Q 2644 4219 2406 4219 
Q 1781 4219 1451 3797 
Q 1122 3375 1075 2522 
Q 1259 2794 1537 2939 
Q 1816 3084 2150 3084 
Q 2853 3084 3261 2657 
Q 3669 2231 3669 1497 
Q 3669 778 3244 343 
Q 2819 -91 2113 -91 
Q 1303 -91 875 529 
Q 447 1150 447 2328 
Q 447 3434 972 4092 
Q 1497 4750 2381 4750 
Q 2619 4750 2861 4703 
Q 3103 4656 3366 4563 
z
" transform="scale(0.015625)"/>
       </defs>
       <use xlink:href="#DejaVuSans-36"/>
       <use xlink:href="#DejaVuSans-30" x="63.623047"/>
      </g>
     </g>
    </g>
    <g id="xtick_5">
     <g id="line2d_5">
      <g>
       <use xlink:href="#m16c32ae83c" x="363.331925" y="328.087631" style="stroke: #000000; stroke-width: 0.8"/>
      </g>
     </g>
     <g id="text_4">
      <!-- 80 -->
      <g transform="translate(356.969425 342.686069)scale(0.1 -0.1)">
       <defs>
        <path id="DejaVuSans-38" d="M 2034 2216 
Q 1584 2216 1326 1975 
Q 1069 1734 1069 1313 
Q 1069 891 1326 650 
Q 1584 409 2034 409 
Q 2484 409 2743 651 
Q 3003 894 3003 1313 
Q 3003 1734 2745 1975 
Q 2488 2216 2034 2216 
z
M 1403 2484 
Q 997 2584 770 2862 
Q 544 3141 544 3541 
Q 544 4100 942 4425 
Q 1341 4750 2034 4750 
Q 2731 4750 3128 4425 
Q 3525 4100 3525 3541 
Q 3525 3141 3298 2862 
Q 3072 2584 2669 2484 
Q 3125 2378 3379 2068 
Q 3634 1759 3634 1313 
Q 3634 634 3220 271 
Q 2806 -91 2034 -91 
Q 1263 -91 848 271 
Q 434 634 434 1313 
Q 434 1759 690 2068 
Q 947 2378 1403 2484 
z
M 1172 3481 
Q 1172 3119 1398 2916 
Q 1625 2713 2034 2713 
Q 2441 2713 2670 2916 
Q 2900 3119 2900 3481 
Q 2900 3844 2670 4047 
Q 2441 4250 2034 4250 
Q 1625 4250 1398 4047 
Q 1172 3844 1172 3481 
z
" transform="scale(0.015625)"/>
       </defs>
       <use xlink:href="#DejaVuSans-38"/>
       <use xlink:href="#DejaVuSans-30" x="63.623047"/>
      </g>
     </g>
    </g>
    <g id="xtick_6">
     <g id="line2d_6">
      <g>
       <use xlink:href="#m16c32ae83c" x="450.761262" y="328.087631" style="stroke: #000000; stroke-width: 0.8"/>
      </g>
     </g>
     <g id="text_5">
      <!-- 100 -->
      <g transform="translate(441.217512 342.686069)scale(0.1 -0.1)">
       <defs>
        <path id="DejaVuSans-31" d="M 794 531 
L 1825 531 
L 1825 4091 
L 703 3866 
L 703 4441 
L 1819 4666 
L 2450 4666 
L 2450 531 
L 3481 531 
L 3481 0 
L 794 0 
L 794 531 
z
" transform="scale(0.015625)"/>
       </defs>
       <use xlink:href="#DejaVuSans-31"/>
       <use xlink:href="#DejaVuSans-30" x="63.623047"/>
       <use xlink:href="#DejaVuSans-30" x="127.246094"/>
      </g>
     </g>
    </g>
    <g id="xtick_7">
     <g id="line2d_7">
      <defs>
       <path id="m5a3717b231" d="M 0 0 
L 0 2 
" style="stroke: #000000; stroke-width: 0.6"/>
      </defs>
      <g>
       <use xlink:href="#m5a3717b231" x="35.471912" y="328.087631" style="stroke: #000000; stroke-width: 0.6"/>
      </g>
     </g>
    </g>
    <g id="xtick_8">
     <g id="line2d_8">
      <g>
       <use xlink:href="#m5a3717b231" x="57.329246" y="328.087631" style="stroke: #000000; stroke-width: 0.6"/>
      </g>
     </g>
    </g>
    <g id="xtick_9">
     <g id="line2d_9">
      <g>
       <use xlink:href="#m5a3717b231" x="79.18658" y="328.087631" style="stroke: #000000; stroke-width: 0.6"/>
      </g>
     </g>
    </g>
    <g id="xtick_10">
     <g id="line2d_10">
      <g>
       <use xlink:href="#m5a3717b231" x="122.901249" y="328.087631" style="stroke: #000000; stroke-width: 0.6"/>
      </g>
     </g>
    </g>
    <g id="xtick_11">
     <g id="line2d_11">
      <g>
       <use xlink:href="#m5a3717b231" x="144.758583" y="328.087631" style="stroke: #000000; stroke-width: 0.6"/>
      </g>
     </g>
    </g>
    <g id="xtick_12">
     <g id="line2d_12">
      <g>
       <use xlink:href="#m5a3717b231" x="166.615917" y="328.087631" style="stroke: #000000; stroke-width: 0.6"/>
      </g>
     </g>
    </g>
    <g id="xtick_13">
     <g id="line2d_13">
      <g>
       <use xlink:href="#m5a3717b231" x="210.330585" y="328.087631" style="stroke: #000000; stroke-width: 0.6"/>
      </g>
     </g>
    </g>
    <g id="xtick_14">
     <g id="line2d_14">
      <g>
       <use xlink:href="#m5a3717b231" x="232.18792" y="328.087631" style="stroke: #000000; stroke-width: 0.6"/>
      </g>
     </g>
    </g>
    <g id="xtick_15">
     <g id="line2d_15">
      <g>
       <use xlink:href="#m5a3717b231" x="254.045254" y="328.087631" style="stroke: #000000; stroke-width: 0.6"/>
      </g>
     </g>
    </g>
    <g id="xtick_16">
     <g id="line2d_16">
      <g>
       <use xlink:href="#m5a3717b231" x="297.759922" y="328.087631" style="stroke: #000000; stroke-width: 0.6"/>
      </g>
     </g>
    </g>
    <g id="xtick_17">
     <g id="line2d_17">
      <g>
       <use xlink:href="#m5a3717b231" x="319.617257" y="328.087631" style="stroke: #000000; stroke-width: 0.6"/>
      </g>
     </g>
    </g>
    <g id="xtick_18">
     <g id="line2d_18">
      <g>
       <use xlink:href="#m5a3717b231" x="341.474591" y="328.087631" style="stroke: #000000; stroke-width: 0.6"/>
      </g>
     </g>
    </g>
    <g id="xtick_19">
     <g id="line2d_19">
      <g>
       <use xlink:href="#m5a3717b231" x="385.189259" y="328.087631" style="stroke: #000000; stroke-width: 0.6"/>
      </g>
     </g>
    </g>
    <g id="xtick_20">
     <g id="line2d_20">
      <g>
       <use xlink:href="#m5a3717b231" x="407.046594" y="328.087631" style="stroke: #000000; stroke-width: 0.6"/>
      </g>
     </g>
    </g>
    <g id="xtick_21">
     <g id="line2d_21">
      <g>
       <use xlink:href="#m5a3717b231" x="428.903928" y="328.087631" style="stroke: #000000; stroke-width: 0.6"/>
      </g>
     </g>
    </g>
   </g>
   <g id="matplotlib.axis_2">
    <g id="ytick_1">
     <g id="line2d_22">
      <defs>
       <path id="m92d6c4db63" d="M 0 0 
L -3.5 0 
" style="stroke: #000000; stroke-width: 0.8"/>
      </defs>
      <g>
       <use xlink:href="#m92d6c4db63" x="13.614577" y="328.087631" style="stroke: #000000; stroke-width: 0.8"/>
      </g>
     </g>
    </g>
    <g id="ytick_2">
     <g id="line2d_23">
      <g>
       <use xlink:href="#m92d6c4db63" x="13.614577" y="268.632078" style="stroke: #000000; stroke-width: 0.8"/>
      </g>
     </g>
     <g id="text_6">
      <!-- 1 -->
      <g transform="translate(0.252077 272.431297)scale(0.1 -0.1)">
       <use xlink:href="#DejaVuSans-31"/>
      </g>
     </g>
    </g>
    <g id="ytick_3">
     <g id="line2d_24">
      <g>
       <use xlink:href="#m92d6c4db63" x="13.614577" y="209.176526" style="stroke: #000000; stroke-width: 0.8"/>
      </g>
     </g>
     <g id="text_7">
      <!-- 2 -->
      <g transform="translate(0.252077 212.975744)scale(0.1 -0.1)">
       <use xlink:href="#DejaVuSans-32"/>
      </g>
     </g>
    </g>
    <g id="ytick_4">
     <g id="line2d_25">
      <g>
       <use xlink:href="#m92d6c4db63" x="13.614577" y="149.720973" style="stroke: #000000; stroke-width: 0.8"/>
      </g>
     </g>
     <g id="text_8">
      <!-- 3 -->
      <g transform="translate(0.252077 153.520192)scale(0.1 -0.1)">
       <defs>
        <path id="DejaVuSans-33" d="M 2597 2516 
Q 3050 2419 3304 2112 
Q 3559 1806 3559 1356 
Q 3559 666 3084 287 
Q 2609 -91 1734 -91 
Q 1441 -91 1130 -33 
Q 819 25 488 141 
L 488 750 
Q 750 597 1062 519 
Q 1375 441 1716 441 
Q 2309 441 2620 675 
Q 2931 909 2931 1356 
Q 2931 1769 2642 2001 
Q 2353 2234 1838 2234 
L 1294 2234 
L 1294 2753 
L 1863 2753 
Q 2328 2753 2575 2939 
Q 2822 3125 2822 3475 
Q 2822 3834 2567 4026 
Q 2313 4219 1838 4219 
Q 1578 4219 1281 4162 
Q 984 4106 628 3988 
L 628 4550 
Q 988 4650 1302 4700 
Q 1616 4750 1894 4750 
Q 2613 4750 3031 4423 
Q 3450 4097 3450 3541 
Q 3450 3153 3228 2886 
Q 3006 2619 2597 2516 
z
" transform="scale(0.015625)"/>
       </defs>
       <use xlink:href="#DejaVuSans-33"/>
      </g>
     </g>
    </g>
    <g id="ytick_5">
     <g id="line2d_26">
      <g>
       <use xlink:href="#m92d6c4db63" x="13.614577" y="90.26542" style="stroke: #000000; stroke-width: 0.8"/>
      </g>
     </g>
     <g id="text_9">
      <!-- 4 -->
      <g transform="translate(0.252077 94.064639)scale(0.1 -0.1)">
       <use xlink:href="#DejaVuSans-34"/>
      </g>
     </g>
    </g>
    <g id="ytick_6">
     <g id="line2d_27">
      <g>
       <use xlink:href="#m92d6c4db63" x="13.614577" y="30.809867" style="stroke: #000000; stroke-width: 0.8"/>
      </g>
     </g>
     <g id="text_10">
      <!-- 5 -->
      <g transform="translate(0.252077 34.609086)scale(0.1 -0.1)">
       <defs>
        <path id="DejaVuSans-35" d="M 691 4666 
L 3169 4666 
L 3169 4134 
L 1269 4134 
L 1269 2991 
Q 1406 3038 1543 3061 
Q 1681 3084 1819 3084 
Q 2600 3084 3056 2656 
Q 3513 2228 3513 1497 
Q 3513 744 3044 326 
Q 2575 -91 1722 -91 
Q 1428 -91 1123 -41 
Q 819 9 494 109 
L 494 744 
Q 775 591 1075 516 
Q 1375 441 1709 441 
Q 2250 441 2565 725 
Q 2881 1009 2881 1497 
Q 2881 1984 2565 2268 
Q 2250 2553 1709 2553 
Q 1456 2553 1204 2497 
Q 953 2441 691 2322 
L 691 4666 
z
" transform="scale(0.015625)"/>
       </defs>
       <use xlink:href="#DejaVuSans-35"/>
      </g>
     </g>
    </g>
    <g id="ytick_7">
     <g id="line2d_28">
      <defs>
       <path id="m681d148445" d="M 0 0 
L -2 0 
" style="stroke: #000000; stroke-width: 0.6"/>
      </defs>
      <g>
       <use xlink:href="#m681d148445" x="13.614577" y="316.196521" style="stroke: #000000; stroke-width: 0.6"/>
      </g>
     </g>
    </g>
    <g id="ytick_8">
     <g id="line2d_29">
      <g>
       <use xlink:href="#m681d148445" x="13.614577" y="304.30541" style="stroke: #000000; stroke-width: 0.6"/>
      </g>
     </g>
    </g>
    <g id="ytick_9">
     <g id="line2d_30">
      <g>
       <use xlink:href="#m681d148445" x="13.614577" y="292.414299" style="stroke: #000000; stroke-width: 0.6"/>
      </g>
     </g>
    </g>
    <g id="ytick_10">
     <g id="line2d_31">
      <g>
       <use xlink:href="#m681d148445" x="13.614577" y="280.523189" style="stroke: #000000; stroke-width: 0.6"/>
      </g>
     </g>
    </g>
    <g id="ytick_11">
     <g id="line2d_32">
      <g>
       <use xlink:href="#m681d148445" x="13.614577" y="256.740968" style="stroke: #000000; stroke-width: 0.6"/>
      </g>
     </g>
    </g>
    <g id="ytick_12">
     <g id="line2d_33">
      <g>
       <use xlink:href="#m681d148445" x="13.614577" y="244.849857" style="stroke: #000000; stroke-width: 0.6"/>
      </g>
     </g>
    </g>
    <g id="ytick_13">
     <g id="line2d_34">
      <g>
       <use xlink:href="#m681d148445" x="13.614577" y="232.958747" style="stroke: #000000; stroke-width: 0.6"/>
      </g>
     </g>
    </g>
    <g id="ytick_14">
     <g id="line2d_35">
      <g>
       <use xlink:href="#m681d148445" x="13.614577" y="221.067636" style="stroke: #000000; stroke-width: 0.6"/>
      </g>
     </g>
    </g>
    <g id="ytick_15">
     <g id="line2d_36">
      <g>
       <use xlink:href="#m681d148445" x="13.614577" y="197.285415" style="stroke: #000000; stroke-width: 0.6"/>
      </g>
     </g>
    </g>
    <g id="ytick_16">
     <g id="line2d_37">
      <g>
       <use xlink:href="#m681d148445" x="13.614577" y="185.394305" style="stroke: #000000; stroke-width: 0.6"/>
      </g>
     </g>
    </g>
    <g id="ytick_17">
     <g id="line2d_38">
      <g>
       <use xlink:href="#m681d148445" x="13.614577" y="173.503194" style="stroke: #000000; stroke-width: 0.6"/>
      </g>
     </g>
    </g>
    <g id="ytick_18">
     <g id="line2d_39">
      <g>
       <use xlink:href="#m681d148445" x="13.614577" y="161.612083" style="stroke: #000000; stroke-width: 0.6"/>
      </g>
     </g>
    </g>
    <g id="ytick_19">
     <g id="line2d_40">
      <g>
       <use xlink:href="#m681d148445" x="13.614577" y="137.829862" style="stroke: #000000; stroke-width: 0.6"/>
      </g>
     </g>
    </g>
    <g id="ytick_20">
     <g id="line2d_41">
      <g>
       <use xlink:href="#m681d148445" x="13.614577" y="125.938752" style="stroke: #000000; stroke-width: 0.6"/>
      </g>
     </g>
    </g>
    <g id="ytick_21">
     <g id="line2d_42">
      <g>
       <use xlink:href="#m681d148445" x="13.614577" y="114.047641" style="stroke: #000000; stroke-width: 0.6"/>
      </g>
     </g>
    </g>
    <g id="ytick_22">
     <g id="line2d_43">
      <g>
       <use xlink:href="#m681d148445" x="13.614577" y="102.156531" style="stroke: #000000; stroke-width: 0.6"/>
      </g>
     </g>
    </g>
    <g id="ytick_23">
     <g id="line2d_44">
      <g>
       <use xlink:href="#m681d148445" x="13.614577" y="78.37431" style="stroke: #000000; stroke-width: 0.6"/>
      </g>
     </g>
    </g>
    <g id="ytick_24">
     <g id="line2d_45">
      <g>
       <use xlink:href="#m681d148445" x="13.614577" y="66.483199" style="stroke: #000000; stroke-width: 0.6"/>
      </g>
     </g>
    </g>
    <g id="ytick_25">
     <g id="line2d_46">
      <g>
       <use xlink:href="#m681d148445" x="13.614577" y="54.592089" style="stroke: #000000; stroke-width: 0.6"/>
      </g>
     </g>
    </g>
    <g id="ytick_26">
     <g id="line2d_47">
      <g>
       <use xlink:href="#m681d148445" x="13.614577" y="42.700978" style="stroke: #000000; stroke-width: 0.6"/>
      </g>
     </g>
    </g>
    <g id="ytick_27">
     <g id="line2d_48">
      <g>
       <use xlink:href="#m681d148445" x="13.614577" y="18.918757" style="stroke: #000000; stroke-width: 0.6"/>
      </g>
     </g>
    </g>
    <g id="ytick_28">
     <g id="line2d_49">
      <g>
       <use xlink:href="#m681d148445" x="13.614577" y="7.027646" style="stroke: #000000; stroke-width: 0.6"/>
      </g>
     </g>
    </g>
   </g>
   <g id="line2d_50">
    <path d="M 17.986044 328.087631 
L 19.169393 311.992396 
L 20.352743 299.017514 
L 21.735219 286.47939 
L 23.603074 272.570469 
L 25.470929 261.053009 
L 26.775179 254.041342 
L 28.942015 243.801246 
L 30.63411 236.76585 
L 32.452257 229.946769 
L 34.817113 222.001384 
L 37.691697 213.459429 
L 40.161129 206.899651 
L 42.135627 202.079644 
L 45.573901 194.432569 
L 49.857293 185.98244 
L 52.92772 180.518944 
L 56.343633 174.92109 
L 61.681597 167.012291 
L 65.406957 161.997166 
L 69.948559 156.349956 
L 73.457469 152.290334 
L 76.72824 148.715123 
L 80.76639 144.548415 
L 86.284471 139.242748 
L 90.29223 135.636059 
L 95.162778 131.498555 
L 101.126094 126.756913 
L 104.441903 124.258325 
L 112.539501 118.520676 
L 117.220157 115.414726 
L 124.286934 110.98168 
L 131.185241 106.919322 
L 138.010821 103.127921 
L 143.749276 100.098017 
L 151.987514 95.974053 
L 159.945057 92.217407 
L 168.124323 88.563257 
L 175.660151 85.363889 
L 184.611561 81.751477 
L 196.795054 77.12742 
L 206.547292 73.642572 
L 220.254012 69.031418 
L 232.593804 65.134603 
L 246.406497 61.025035 
L 260.295481 57.131637 
L 274.043909 53.487808 
L 289.854167 49.528138 
L 305.040255 45.932647 
L 323.576843 41.789661 
L 341.621498 37.988068 
L 361.074826 34.11718 
L 380.734671 30.419413 
L 401.974304 26.640739 
L 424.851497 22.795253 
L 448.997786 18.961886 
L 450.761262 18.69031 
L 450.761262 18.69031 
" clip-path="url(#pf26ae8378b)" style="fill: none; stroke: #0000ff; stroke-linecap: square"/>
   </g>
   <g id="patch_4">
    <path d="M 13.614577 334.520722 
L 13.614577 0 
" style="fill: none; stroke: #000000; stroke-width: 0.8; stroke-linejoin: miter; stroke-linecap: square"/>
   </g>
   <g id="patch_5">
    <path d="M 9.33054 328.087631 
L 459.416766 328.087631 
" style="fill: none; stroke: #000000; stroke-width: 0.8; stroke-linejoin: miter; stroke-linecap: square"/>
   </g>
  </g>
 </g>
 <defs>
  <clipPath id="pf26ae8378b">
   <rect x="9.33054" y="0" width="450.086227" height="334.520722"/>
  </clipPath>
 </defs>
</svg>
