<?xml version="1.0" encoding="utf-8" standalone="no"?>
<!DOCTYPE svg PUBLIC "-//W3C//DTD SVG 1.1//EN"
  "http://www.w3.org/Graphics/SVG/1.1/DTD/svg11.dtd">
<!-- Created with matplotlib (http://matplotlib.org/) -->
<svg height="345.6pt" version="1.1" viewBox="0 0 460.8 345.6" width="460.8pt" xmlns="http://www.w3.org/2000/svg" xmlns:xlink="http://www.w3.org/1999/xlink">
 <defs>
  <style type="text/css">
*{stroke-linecap:butt;stroke-linejoin:round;}
  </style>
 </defs>
 <g id="figure_1">
  <g id="patch_1">
   <path d="M 0 345.6 
L 460.8 345.6 
L 460.8 0 
L 0 0 
z
" style="fill:#ffffff;"/>
  </g>
  <g id="axes_1">
   <g id="patch_2">
    <path d="M 19.482308 343.08 
L 458.28 343.08 
L 458.28 2.52 
L 19.482308 2.52 
z
" style="fill:#ffffff;"/>
   </g>
   <g id="matplotlib.axis_1">
    <g id="xtick_1">
     <g id="line2d_1">
      <defs>
       <path d="M 0 0 
L 0 3.5 
" id="mb50fab94ae" style="stroke:#000000;stroke-width:0.8;"/>
      </defs>
      <g>
       <use style="stroke:#000000;stroke-width:0.8;" x="27.920725" xlink:href="#mb50fab94ae" y="172.813618"/>
      </g>
     </g>
    </g>
    <g id="xtick_2">
     <g id="line2d_2">
      <g>
       <use style="stroke:#000000;stroke-width:0.8;" x="112.304896" xlink:href="#mb50fab94ae" y="172.813618"/>
      </g>
     </g>
     <g id="text_1">
      <!-- 2 -->
      <defs>
       <path d="M 19.1875 8.296875 
L 53.609375 8.296875 
L 53.609375 0 
L 7.328125 0 
L 7.328125 8.296875 
Q 12.9375 14.109375 22.625 23.890625 
Q 32.328125 33.6875 34.8125 36.53125 
Q 39.546875 41.84375 41.421875 45.53125 
Q 43.3125 49.21875 43.3125 52.78125 
Q 43.3125 58.59375 39.234375 62.25 
Q 35.15625 65.921875 28.609375 65.921875 
Q 23.96875 65.921875 18.8125 64.3125 
Q 13.671875 62.703125 7.8125 59.421875 
L 7.8125 69.390625 
Q 13.765625 71.78125 18.9375 73 
Q 24.125 74.21875 28.421875 74.21875 
Q 39.75 74.21875 46.484375 68.546875 
Q 53.21875 62.890625 53.21875 53.421875 
Q 53.21875 48.921875 51.53125 44.890625 
Q 49.859375 40.875 45.40625 35.40625 
Q 44.1875 33.984375 37.640625 27.21875 
Q 31.109375 20.453125 19.1875 8.296875 
z
" id="DejaVuSans-32"/>
      </defs>
      <g transform="translate(109.123646 187.412056)scale(0.1 -0.1)">
       <use xlink:href="#DejaVuSans-32"/>
      </g>
     </g>
    </g>
    <g id="xtick_3">
     <g id="line2d_3">
      <g>
       <use style="stroke:#000000;stroke-width:0.8;" x="196.689068" xlink:href="#mb50fab94ae" y="172.813618"/>
      </g>
     </g>
     <g id="text_2">
      <!-- 4 -->
      <defs>
       <path d="M 37.796875 64.3125 
L 12.890625 25.390625 
L 37.796875 25.390625 
z
M 35.203125 72.90625 
L 47.609375 72.90625 
L 47.609375 25.390625 
L 58.015625 25.390625 
L 58.015625 17.1875 
L 47.609375 17.1875 
L 47.609375 0 
L 37.796875 0 
L 37.796875 17.1875 
L 4.890625 17.1875 
L 4.890625 26.703125 
z
" id="DejaVuSans-34"/>
      </defs>
      <g transform="translate(193.507818 187.412056)scale(0.1 -0.1)">
       <use xlink:href="#DejaVuSans-34"/>
      </g>
     </g>
    </g>
    <g id="xtick_4">
     <g id="line2d_4">
      <g>
       <use style="stroke:#000000;stroke-width:0.8;" x="281.07324" xlink:href="#mb50fab94ae" y="172.813618"/>
      </g>
     </g>
     <g id="text_3">
      <!-- 6 -->
      <defs>
       <path d="M 33.015625 40.375 
Q 26.375 40.375 22.484375 35.828125 
Q 18.609375 31.296875 18.609375 23.390625 
Q 18.609375 15.53125 22.484375 10.953125 
Q 26.375 6.390625 33.015625 6.390625 
Q 39.65625 6.390625 43.53125 10.953125 
Q 47.40625 15.53125 47.40625 23.390625 
Q 47.40625 31.296875 43.53125 35.828125 
Q 39.65625 40.375 33.015625 40.375 
z
M 52.59375 71.296875 
L 52.59375 62.3125 
Q 48.875 64.0625 45.09375 64.984375 
Q 41.3125 65.921875 37.59375 65.921875 
Q 27.828125 65.921875 22.671875 59.328125 
Q 17.53125 52.734375 16.796875 39.40625 
Q 19.671875 43.65625 24.015625 45.921875 
Q 28.375 48.1875 33.59375 48.1875 
Q 44.578125 48.1875 50.953125 41.515625 
Q 57.328125 34.859375 57.328125 23.390625 
Q 57.328125 12.15625 50.6875 5.359375 
Q 44.046875 -1.421875 33.015625 -1.421875 
Q 20.359375 -1.421875 13.671875 8.265625 
Q 6.984375 17.96875 6.984375 36.375 
Q 6.984375 53.65625 15.1875 63.9375 
Q 23.390625 74.21875 37.203125 74.21875 
Q 40.921875 74.21875 44.703125 73.484375 
Q 48.484375 72.75 52.59375 71.296875 
z
" id="DejaVuSans-36"/>
      </defs>
      <g transform="translate(277.89199 187.412056)scale(0.1 -0.1)">
       <use xlink:href="#DejaVuSans-36"/>
      </g>
     </g>
    </g>
    <g id="xtick_5">
     <g id="line2d_5">
      <g>
       <use style="stroke:#000000;stroke-width:0.8;" x="365.457411" xlink:href="#mb50fab94ae" y="172.813618"/>
      </g>
     </g>
     <g id="text_4">
      <!-- 8 -->
      <defs>
       <path d="M 31.78125 34.625 
Q 24.75 34.625 20.71875 30.859375 
Q 16.703125 27.09375 16.703125 20.515625 
Q 16.703125 13.921875 20.71875 10.15625 
Q 24.75 6.390625 31.78125 6.390625 
Q 38.8125 6.390625 42.859375 10.171875 
Q 46.921875 13.96875 46.921875 20.515625 
Q 46.921875 27.09375 42.890625 30.859375 
Q 38.875 34.625 31.78125 34.625 
z
M 21.921875 38.8125 
Q 15.578125 40.375 12.03125 44.71875 
Q 8.5 49.078125 8.5 55.328125 
Q 8.5 64.0625 14.71875 69.140625 
Q 20.953125 74.21875 31.78125 74.21875 
Q 42.671875 74.21875 48.875 69.140625 
Q 55.078125 64.0625 55.078125 55.328125 
Q 55.078125 49.078125 51.53125 44.71875 
Q 48 40.375 41.703125 38.8125 
Q 48.828125 37.15625 52.796875 32.3125 
Q 56.78125 27.484375 56.78125 20.515625 
Q 56.78125 9.90625 50.3125 4.234375 
Q 43.84375 -1.421875 31.78125 -1.421875 
Q 19.734375 -1.421875 13.25 4.234375 
Q 6.78125 9.90625 6.78125 20.515625 
Q 6.78125 27.484375 10.78125 32.3125 
Q 14.796875 37.15625 21.921875 38.8125 
z
M 18.3125 54.390625 
Q 18.3125 48.734375 21.84375 45.5625 
Q 25.390625 42.390625 31.78125 42.390625 
Q 38.140625 42.390625 41.71875 45.5625 
Q 45.3125 48.734375 45.3125 54.390625 
Q 45.3125 60.0625 41.71875 63.234375 
Q 38.140625 66.40625 31.78125 66.40625 
Q 25.390625 66.40625 21.84375 63.234375 
Q 18.3125 60.0625 18.3125 54.390625 
z
" id="DejaVuSans-38"/>
      </defs>
      <g transform="translate(362.276161 187.412056)scale(0.1 -0.1)">
       <use xlink:href="#DejaVuSans-38"/>
      </g>
     </g>
    </g>
    <g id="xtick_6">
     <g id="line2d_6">
      <g>
       <use style="stroke:#000000;stroke-width:0.8;" x="449.841583" xlink:href="#mb50fab94ae" y="172.813618"/>
      </g>
     </g>
     <g id="text_5">
      <!-- 10 -->
      <defs>
       <path d="M 12.40625 8.296875 
L 28.515625 8.296875 
L 28.515625 63.921875 
L 10.984375 60.40625 
L 10.984375 69.390625 
L 28.421875 72.90625 
L 38.28125 72.90625 
L 38.28125 8.296875 
L 54.390625 8.296875 
L 54.390625 0 
L 12.40625 0 
z
" id="DejaVuSans-31"/>
       <path d="M 31.78125 66.40625 
Q 24.171875 66.40625 20.328125 58.90625 
Q 16.5 51.421875 16.5 36.375 
Q 16.5 21.390625 20.328125 13.890625 
Q 24.171875 6.390625 31.78125 6.390625 
Q 39.453125 6.390625 43.28125 13.890625 
Q 47.125 21.390625 47.125 36.375 
Q 47.125 51.421875 43.28125 58.90625 
Q 39.453125 66.40625 31.78125 66.40625 
z
M 31.78125 74.21875 
Q 44.046875 74.21875 50.515625 64.515625 
Q 56.984375 54.828125 56.984375 36.375 
Q 56.984375 17.96875 50.515625 8.265625 
Q 44.046875 -1.421875 31.78125 -1.421875 
Q 19.53125 -1.421875 13.0625 8.265625 
Q 6.59375 17.96875 6.59375 36.375 
Q 6.59375 54.828125 13.0625 64.515625 
Q 19.53125 74.21875 31.78125 74.21875 
z
" id="DejaVuSans-30"/>
      </defs>
      <g transform="translate(443.479083 187.412056)scale(0.1 -0.1)">
       <use xlink:href="#DejaVuSans-31"/>
       <use x="63.623047" xlink:href="#DejaVuSans-30"/>
      </g>
     </g>
    </g>
    <g id="xtick_7">
     <g id="line2d_7">
      <defs>
       <path d="M 0 0 
L 0 2 
" id="mbe637e6899" style="stroke:#000000;stroke-width:0.6;"/>
      </defs>
      <g>
       <use style="stroke:#000000;stroke-width:0.6;" x="49.016768" xlink:href="#mbe637e6899" y="172.813618"/>
      </g>
     </g>
    </g>
    <g id="xtick_8">
     <g id="line2d_8">
      <g>
       <use style="stroke:#000000;stroke-width:0.6;" x="70.112811" xlink:href="#mbe637e6899" y="172.813618"/>
      </g>
     </g>
    </g>
    <g id="xtick_9">
     <g id="line2d_9">
      <g>
       <use style="stroke:#000000;stroke-width:0.6;" x="91.208854" xlink:href="#mbe637e6899" y="172.813618"/>
      </g>
     </g>
    </g>
    <g id="xtick_10">
     <g id="line2d_10">
      <g>
       <use style="stroke:#000000;stroke-width:0.6;" x="133.400939" xlink:href="#mbe637e6899" y="172.813618"/>
      </g>
     </g>
    </g>
    <g id="xtick_11">
     <g id="line2d_11">
      <g>
       <use style="stroke:#000000;stroke-width:0.6;" x="154.496982" xlink:href="#mbe637e6899" y="172.813618"/>
      </g>
     </g>
    </g>
    <g id="xtick_12">
     <g id="line2d_12">
      <g>
       <use style="stroke:#000000;stroke-width:0.6;" x="175.593025" xlink:href="#mbe637e6899" y="172.813618"/>
      </g>
     </g>
    </g>
    <g id="xtick_13">
     <g id="line2d_13">
      <g>
       <use style="stroke:#000000;stroke-width:0.6;" x="217.785111" xlink:href="#mbe637e6899" y="172.813618"/>
      </g>
     </g>
    </g>
    <g id="xtick_14">
     <g id="line2d_14">
      <g>
       <use style="stroke:#000000;stroke-width:0.6;" x="238.881154" xlink:href="#mbe637e6899" y="172.813618"/>
      </g>
     </g>
    </g>
    <g id="xtick_15">
     <g id="line2d_15">
      <g>
       <use style="stroke:#000000;stroke-width:0.6;" x="259.977197" xlink:href="#mbe637e6899" y="172.813618"/>
      </g>
     </g>
    </g>
    <g id="xtick_16">
     <g id="line2d_16">
      <g>
       <use style="stroke:#000000;stroke-width:0.6;" x="302.169283" xlink:href="#mbe637e6899" y="172.813618"/>
      </g>
     </g>
    </g>
    <g id="xtick_17">
     <g id="line2d_17">
      <g>
       <use style="stroke:#000000;stroke-width:0.6;" x="323.265325" xlink:href="#mbe637e6899" y="172.813618"/>
      </g>
     </g>
    </g>
    <g id="xtick_18">
     <g id="line2d_18">
      <g>
       <use style="stroke:#000000;stroke-width:0.6;" x="344.361368" xlink:href="#mbe637e6899" y="172.813618"/>
      </g>
     </g>
    </g>
    <g id="xtick_19">
     <g id="line2d_19">
      <g>
       <use style="stroke:#000000;stroke-width:0.6;" x="386.553454" xlink:href="#mbe637e6899" y="172.813618"/>
      </g>
     </g>
    </g>
    <g id="xtick_20">
     <g id="line2d_20">
      <g>
       <use style="stroke:#000000;stroke-width:0.6;" x="407.649497" xlink:href="#mbe637e6899" y="172.813618"/>
      </g>
     </g>
    </g>
    <g id="xtick_21">
     <g id="line2d_21">
      <g>
       <use style="stroke:#000000;stroke-width:0.6;" x="428.74554" xlink:href="#mbe637e6899" y="172.813618"/>
      </g>
     </g>
    </g>
   </g>
   <g id="matplotlib.axis_2">
    <g id="ytick_1">
     <g id="line2d_22">
      <defs>
       <path d="M 0 0 
L -3.5 0 
" id="md5fd6ad559" style="stroke:#000000;stroke-width:0.8;"/>
      </defs>
      <g>
       <use style="stroke:#000000;stroke-width:0.8;" x="27.920725" xlink:href="#md5fd6ad559" y="336.580486"/>
      </g>
     </g>
     <g id="text_6">
      <!-- -1 -->
      <defs>
       <path d="M 4.890625 31.390625 
L 31.203125 31.390625 
L 31.203125 23.390625 
L 4.890625 23.390625 
z
" id="DejaVuSans-2d"/>
      </defs>
      <g transform="translate(10.950412 340.379705)scale(0.1 -0.1)">
       <use xlink:href="#DejaVuSans-2d"/>
       <use x="36.083984" xlink:href="#DejaVuSans-31"/>
      </g>
     </g>
    </g>
    <g id="ytick_2">
     <g id="line2d_23">
      <g>
       <use style="stroke:#000000;stroke-width:0.8;" x="27.920725" xlink:href="#md5fd6ad559" y="254.697052"/>
      </g>
     </g>
     <g id="text_7">
      <!-- -0.5 -->
      <defs>
       <path d="M 10.6875 12.40625 
L 21 12.40625 
L 21 0 
L 10.6875 0 
z
" id="DejaVuSans-2e"/>
       <path d="M 10.796875 72.90625 
L 49.515625 72.90625 
L 49.515625 64.59375 
L 19.828125 64.59375 
L 19.828125 46.734375 
Q 21.96875 47.46875 24.109375 47.828125 
Q 26.265625 48.1875 28.421875 48.1875 
Q 40.625 48.1875 47.75 41.5 
Q 54.890625 34.8125 54.890625 23.390625 
Q 54.890625 11.625 47.5625 5.09375 
Q 40.234375 -1.421875 26.90625 -1.421875 
Q 22.3125 -1.421875 17.546875 -0.640625 
Q 12.796875 0.140625 7.71875 1.703125 
L 7.71875 11.625 
Q 12.109375 9.234375 16.796875 8.0625 
Q 21.484375 6.890625 26.703125 6.890625 
Q 35.15625 6.890625 40.078125 11.328125 
Q 45.015625 15.765625 45.015625 23.390625 
Q 45.015625 31 40.078125 35.4375 
Q 35.15625 39.890625 26.703125 39.890625 
Q 22.75 39.890625 18.8125 39.015625 
Q 14.890625 38.140625 10.796875 36.28125 
z
" id="DejaVuSans-35"/>
      </defs>
      <g transform="translate(1.409787 258.496271)scale(0.1 -0.1)">
       <use xlink:href="#DejaVuSans-2d"/>
       <use x="36.083984" xlink:href="#DejaVuSans-30"/>
       <use x="99.707031" xlink:href="#DejaVuSans-2e"/>
       <use x="131.494141" xlink:href="#DejaVuSans-35"/>
      </g>
     </g>
    </g>
    <g id="ytick_3">
     <g id="line2d_24">
      <g>
       <use style="stroke:#000000;stroke-width:0.8;" x="27.920725" xlink:href="#md5fd6ad559" y="172.813618"/>
      </g>
     </g>
    </g>
    <g id="ytick_4">
     <g id="line2d_25">
      <g>
       <use style="stroke:#000000;stroke-width:0.8;" x="27.920725" xlink:href="#md5fd6ad559" y="90.930184"/>
      </g>
     </g>
     <g id="text_8">
      <!-- 0.5 -->
      <g transform="translate(5.0176 94.729403)scale(0.1 -0.1)">
       <use xlink:href="#DejaVuSans-30"/>
       <use x="63.623047" xlink:href="#DejaVuSans-2e"/>
       <use x="95.410156" xlink:href="#DejaVuSans-35"/>
      </g>
     </g>
    </g>
    <g id="ytick_5">
     <g id="line2d_26">
      <g>
       <use style="stroke:#000000;stroke-width:0.8;" x="27.920725" xlink:href="#md5fd6ad559" y="9.04675"/>
      </g>
     </g>
     <g id="text_9">
      <!-- 1 -->
      <g transform="translate(14.558225 12.845969)scale(0.1 -0.1)">
       <use xlink:href="#DejaVuSans-31"/>
      </g>
     </g>
    </g>
    <g id="ytick_6">
     <g id="line2d_27">
      <defs>
       <path d="M 0 0 
L -2 0 
" id="m763fb0287d" style="stroke:#000000;stroke-width:0.6;"/>
      </defs>
      <g>
       <use style="stroke:#000000;stroke-width:0.6;" x="27.920725" xlink:href="#m763fb0287d" y="320.203799"/>
      </g>
     </g>
    </g>
    <g id="ytick_7">
     <g id="line2d_28">
      <g>
       <use style="stroke:#000000;stroke-width:0.6;" x="27.920725" xlink:href="#m763fb0287d" y="303.827113"/>
      </g>
     </g>
    </g>
    <g id="ytick_8">
     <g id="line2d_29">
      <g>
       <use style="stroke:#000000;stroke-width:0.6;" x="27.920725" xlink:href="#m763fb0287d" y="287.450426"/>
      </g>
     </g>
    </g>
    <g id="ytick_9">
     <g id="line2d_30">
      <g>
       <use style="stroke:#000000;stroke-width:0.6;" x="27.920725" xlink:href="#m763fb0287d" y="271.073739"/>
      </g>
     </g>
    </g>
    <g id="ytick_10">
     <g id="line2d_31">
      <g>
       <use style="stroke:#000000;stroke-width:0.6;" x="27.920725" xlink:href="#m763fb0287d" y="254.697052"/>
      </g>
     </g>
    </g>
    <g id="ytick_11">
     <g id="line2d_32">
      <g>
       <use style="stroke:#000000;stroke-width:0.6;" x="27.920725" xlink:href="#m763fb0287d" y="238.320365"/>
      </g>
     </g>
    </g>
    <g id="ytick_12">
     <g id="line2d_33">
      <g>
       <use style="stroke:#000000;stroke-width:0.6;" x="27.920725" xlink:href="#m763fb0287d" y="221.943679"/>
      </g>
     </g>
    </g>
    <g id="ytick_13">
     <g id="line2d_34">
      <g>
       <use style="stroke:#000000;stroke-width:0.6;" x="27.920725" xlink:href="#m763fb0287d" y="205.566992"/>
      </g>
     </g>
    </g>
    <g id="ytick_14">
     <g id="line2d_35">
      <g>
       <use style="stroke:#000000;stroke-width:0.6;" x="27.920725" xlink:href="#m763fb0287d" y="189.190305"/>
      </g>
     </g>
    </g>
    <g id="ytick_15">
     <g id="line2d_36">
      <g>
       <use style="stroke:#000000;stroke-width:0.6;" x="27.920725" xlink:href="#m763fb0287d" y="172.813618"/>
      </g>
     </g>
    </g>
    <g id="ytick_16">
     <g id="line2d_37">
      <g>
       <use style="stroke:#000000;stroke-width:0.6;" x="27.920725" xlink:href="#m763fb0287d" y="156.436931"/>
      </g>
     </g>
    </g>
    <g id="ytick_17">
     <g id="line2d_38">
      <g>
       <use style="stroke:#000000;stroke-width:0.6;" x="27.920725" xlink:href="#m763fb0287d" y="140.060244"/>
      </g>
     </g>
    </g>
    <g id="ytick_18">
     <g id="line2d_39">
      <g>
       <use style="stroke:#000000;stroke-width:0.6;" x="27.920725" xlink:href="#m763fb0287d" y="123.683558"/>
      </g>
     </g>
    </g>
    <g id="ytick_19">
     <g id="line2d_40">
      <g>
       <use style="stroke:#000000;stroke-width:0.6;" x="27.920725" xlink:href="#m763fb0287d" y="107.306871"/>
      </g>
     </g>
    </g>
    <g id="ytick_20">
     <g id="line2d_41">
      <g>
       <use style="stroke:#000000;stroke-width:0.6;" x="27.920725" xlink:href="#m763fb0287d" y="90.930184"/>
      </g>
     </g>
    </g>
    <g id="ytick_21">
     <g id="line2d_42">
      <g>
       <use style="stroke:#000000;stroke-width:0.6;" x="27.920725" xlink:href="#m763fb0287d" y="74.553497"/>
      </g>
     </g>
    </g>
    <g id="ytick_22">
     <g id="line2d_43">
      <g>
       <use style="stroke:#000000;stroke-width:0.6;" x="27.920725" xlink:href="#m763fb0287d" y="58.17681"/>
      </g>
     </g>
    </g>
    <g id="ytick_23">
     <g id="line2d_44">
      <g>
       <use style="stroke:#000000;stroke-width:0.6;" x="27.920725" xlink:href="#m763fb0287d" y="41.800123"/>
      </g>
     </g>
    </g>
    <g id="ytick_24">
     <g id="line2d_45">
      <g>
       <use style="stroke:#000000;stroke-width:0.6;" x="27.920725" xlink:href="#m763fb0287d" y="25.423437"/>
      </g>
     </g>
    </g>
    <g id="ytick_25">
     <g id="line2d_46">
      <g>
       <use style="stroke:#000000;stroke-width:0.6;" x="27.920725" xlink:href="#m763fb0287d" y="9.04675"/>
      </g>
     </g>
    </g>
   </g>
   <g id="line2d_47">
    <defs>
     <path d="M 2.937419 -2.857888 
L 2.736636 -2.632334 
Q 2.552803 -2.423729 1.868318 -1.526728 
Q 1.185137 -0.629726 0.925684 -0.246415 
Q 0.517601 0.346806 -1.026076 2.808344 
Q -1.151239 3 -1.359844 3 
L -1.894394 3 
Q -2.044329 3 -2.349413 2.174707 
Q -2.653194 1.34811 -2.653194 1.022164 
Q -2.653194 0.880052 -2.528031 0.805737 
L -2.027379 0.529335 
Q -1.928292 0.479791 -1.818774 0.479791 
Q -1.72751 0.479791 -1.636245 0.676662 
Q -1.543677 0.872229 -1.444589 1.126467 
Q -1.344198 1.380704 -1.25163 1.473272 
L 0.750978 -1.522816 
Q 1.443286 -2.548892 1.794003 -2.732725 
Q 2.219035 -2.958279 2.895698 -3 
z
" id="m596ebac623" style="stroke:#0000ff;"/>
    </defs>
    <g clip-path="url(#pf99256db7a)">
     <use style="fill:#0000ff;stroke:#0000ff;" x="27.920725" xlink:href="#m596ebac623" y="172.813618"/>
     <use style="fill:#0000ff;stroke:#0000ff;" x="37.376881" xlink:href="#m596ebac623" y="136.416435"/>
     <use style="fill:#0000ff;stroke:#0000ff;" x="46.833037" xlink:href="#m596ebac623" y="101.83986"/>
     <use style="fill:#0000ff;stroke:#0000ff;" x="54.967107" xlink:href="#m596ebac623" y="74.877578"/>
     <use style="fill:#0000ff;stroke:#0000ff;" x="63.101177" xlink:href="#m596ebac623" y="51.543994"/>
     <use style="fill:#0000ff;stroke:#0000ff;" x="71.235247" xlink:href="#m596ebac623" y="32.703658"/>
     <use style="fill:#0000ff;stroke:#0000ff;" x="79.369317" xlink:href="#m596ebac623" y="19.054636"/>
     <use style="fill:#0000ff;stroke:#0000ff;" x="84.544547" xlink:href="#m596ebac623" y="13.312699"/>
     <use style="fill:#0000ff;stroke:#0000ff;" x="89.719777" xlink:href="#m596ebac623" y="9.967476"/>
     <use style="fill:#0000ff;stroke:#0000ff;" x="94.895007" xlink:href="#m596ebac623" y="9.069231"/>
     <use style="fill:#0000ff;stroke:#0000ff;" x="100.070237" xlink:href="#m596ebac623" y="10.631462"/>
     <use style="fill:#0000ff;stroke:#0000ff;" x="105.930813" xlink:href="#m596ebac623" y="15.340253"/>
     <use style="fill:#0000ff;stroke:#0000ff;" x="111.791388" xlink:href="#m596ebac623" y="23.082427"/>
     <use style="fill:#0000ff;stroke:#0000ff;" x="117.651963" xlink:href="#m596ebac623" y="33.708848"/>
     <use style="fill:#0000ff;stroke:#0000ff;" x="123.512538" xlink:href="#m596ebac623" y="47.01482"/>
     <use style="fill:#0000ff;stroke:#0000ff;" x="128.926713" xlink:href="#m596ebac623" y="61.467252"/>
     <use style="fill:#0000ff;stroke:#0000ff;" x="134.340889" xlink:href="#m596ebac623" y="77.75066"/>
     <use style="fill:#0000ff;stroke:#0000ff;" x="145.169239" xlink:href="#m596ebac623" y="114.713642"/>
     <use style="fill:#0000ff;stroke:#0000ff;" x="152.985849" xlink:href="#m596ebac623" y="143.912194"/>
     <use style="fill:#0000ff;stroke:#0000ff;" x="165.5716" xlink:href="#m596ebac623" y="192.562927"/>
     <use style="fill:#0000ff;stroke:#0000ff;" x="178.157351" xlink:href="#m596ebac623" y="239.469343"/>
     <use style="fill:#0000ff;stroke:#0000ff;" x="187.299238" xlink:href="#m596ebac623" y="270.069501"/>
     <use style="fill:#0000ff;stroke:#0000ff;" x="196.441125" xlink:href="#m596ebac623" y="296.121602"/>
     <use style="fill:#0000ff;stroke:#0000ff;" x="205.583012" xlink:href="#m596ebac623" y="316.407352"/>
     <use style="fill:#0000ff;stroke:#0000ff;" x="210.153956" xlink:href="#m596ebac623" y="324.079552"/>
     <use style="fill:#0000ff;stroke:#0000ff;" x="214.724899" xlink:href="#m596ebac623" y="329.97811"/>
     <use style="fill:#0000ff;stroke:#0000ff;" x="223.432245" xlink:href="#m596ebac623" y="336.075574"/>
     <use style="fill:#0000ff;stroke:#0000ff;" x="227.785917" xlink:href="#m596ebac623" y="336.530769"/>
     <use style="fill:#0000ff;stroke:#0000ff;" x="232.13959" xlink:href="#m596ebac623" y="335.244324"/>
     <use style="fill:#0000ff;stroke:#0000ff;" x="238.683098" xlink:href="#m596ebac623" y="330.069977"/>
     <use style="fill:#0000ff;stroke:#0000ff;" x="245.226605" xlink:href="#m596ebac623" y="321.120805"/>
     <use style="fill:#0000ff;stroke:#0000ff;" x="251.411578" xlink:href="#m596ebac623" y="309.38454"/>
     <use style="fill:#0000ff;stroke:#0000ff;" x="257.596552" xlink:href="#m596ebac623" y="294.718771"/>
     <use style="fill:#0000ff;stroke:#0000ff;" x="263.781525" xlink:href="#m596ebac623" y="277.438085"/>
     <use style="fill:#0000ff;stroke:#0000ff;" x="269.966499" xlink:href="#m596ebac623" y="257.91316"/>
     <use style="fill:#0000ff;stroke:#0000ff;" x="278.475433" xlink:href="#m596ebac623" y="228.161462"/>
     <use style="fill:#0000ff;stroke:#0000ff;" x="286.984367" xlink:href="#m596ebac623" y="196.166313"/>
     <use style="fill:#0000ff;stroke:#0000ff;" x="304.002235" xlink:href="#m596ebac623" y="130.671553"/>
     <use style="fill:#0000ff;stroke:#0000ff;" x="314.330615" xlink:href="#m596ebac623" y="93.574538"/>
     <use style="fill:#0000ff;stroke:#0000ff;" x="323.877327" xlink:href="#m596ebac623" y="63.441497"/>
     <use style="fill:#0000ff;stroke:#0000ff;" x="333.424039" xlink:href="#m596ebac623" y="38.884146"/>
     <use style="fill:#0000ff;stroke:#0000ff;" x="341.2243" xlink:href="#m596ebac623" y="23.841592"/>
     <use style="fill:#0000ff;stroke:#0000ff;" x="349.024561" xlink:href="#m596ebac623" y="13.876231"/>
     <use style="fill:#0000ff;stroke:#0000ff;" x="356.824822" xlink:href="#m596ebac623" y="9.327698"/>
     <use style="fill:#0000ff;stroke:#0000ff;" x="364.625083" xlink:href="#m596ebac623" y="10.351013"/>
     <use style="fill:#0000ff;stroke:#0000ff;" x="371.131893" xlink:href="#m596ebac623" y="15.44768"/>
     <use style="fill:#0000ff;stroke:#0000ff;" x="377.638704" xlink:href="#m596ebac623" y="24.279636"/>
     <use style="fill:#0000ff;stroke:#0000ff;" x="384.145515" xlink:href="#m596ebac623" y="36.637242"/>
     <use style="fill:#0000ff;stroke:#0000ff;" x="390.652325" xlink:href="#m596ebac623" y="52.227175"/>
     <use style="fill:#0000ff;stroke:#0000ff;" x="396.682096" xlink:href="#m596ebac623" y="69.238544"/>
     <use style="fill:#0000ff;stroke:#0000ff;" x="402.711868" xlink:href="#m596ebac623" y="88.361728"/>
     <use style="fill:#0000ff;stroke:#0000ff;" x="415.394149" xlink:href="#m596ebac623" y="133.691608"/>
     <use style="fill:#0000ff;stroke:#0000ff;" x="428.07643" xlink:href="#m596ebac623" y="182.529666"/>
     <use style="fill:#0000ff;stroke:#0000ff;" x="438.959007" xlink:href="#m596ebac623" y="223.908154"/>
     <use style="fill:#0000ff;stroke:#0000ff;" x="449.841583" xlink:href="#m596ebac623" y="261.906252"/>
    </g>
   </g>
   <g id="patch_3">
    <path d="M 27.920725 343.08 
L 27.920725 2.52 
" style="fill:none;stroke:#000000;stroke-linecap:square;stroke-linejoin:miter;stroke-width:0.8;"/>
   </g>
   <g id="patch_4">
    <path d="M 19.482308 172.813618 
L 458.28 172.813618 
" style="fill:none;stroke:#000000;stroke-linecap:square;stroke-linejoin:miter;stroke-width:0.8;"/>
   </g>
  </g>
 </g>
 <defs>
  <clipPath id="pf99256db7a">
   <rect height="340.56" width="438.797692" x="19.482308" y="2.52"/>
  </clipPath>
 </defs>
</svg>
