<?xml version="1.0" encoding="utf-8" standalone="no"?>
<!DOCTYPE svg PUBLIC "-//W3C//DTD SVG 1.1//EN"
  "http://www.w3.org/Graphics/SVG/1.1/DTD/svg11.dtd">
<!-- Created with matplotlib (https://matplotlib.org/) -->
<svg height="345.6pt" version="1.1" viewBox="0 0 460.8 345.6" width="460.8pt" xmlns="http://www.w3.org/2000/svg" xmlns:xlink="http://www.w3.org/1999/xlink">
 <metadata>
  <rdf:RDF xmlns:cc="http://creativecommons.org/ns#" xmlns:dc="http://purl.org/dc/elements/1.1/" xmlns:rdf="http://www.w3.org/1999/02/22-rdf-syntax-ns#">
   <cc:Work>
    <dc:type rdf:resource="http://purl.org/dc/dcmitype/StillImage"/>
    <dc:date>2020-10-25T12:18:55.625177</dc:date>
    <dc:format>image/svg+xml</dc:format>
    <dc:creator>
     <cc:Agent>
      <dc:title>Matplotlib v3.3.1, https://matplotlib.org/</dc:title>
     </cc:Agent>
    </dc:creator>
   </cc:Work>
  </rdf:RDF>
 </metadata>
 <defs>
  <style type="text/css">*{stroke-linecap:butt;stroke-linejoin:round;}</style>
 </defs>
 <g id="figure_1">
  <g id="patch_1">
   <path d="M 0 345.6 
L 460.8 345.6 
L 460.8 0 
L 0 0 
z
" style="fill:#ffffff;"/>
  </g>
  <g id="axes_1">
   <g id="patch_2">
    <path d="M 9.329683 334.520722 
L 459.508497 334.520722 
L 459.508497 0 
L 9.329683 0 
z
" style="fill:#ffffff;"/>
   </g>
   <g id="patch_3">
    <path clip-path="url(#p0ddf8b3414)" d="M 450.851212 6.433091 
L 450.783599 13.994156 
L 450.715986 13.994156 
L 450.580759 13.994156 
L 450.310306 13.994156 
L 449.769399 13.994156 
L 448.687586 13.994156 
L 447.182659 13.994156 
L 446.806427 13.994156 
L 446.618311 13.994156 
L 446.524253 13.994156 
L 446.430195 12.002499 
L 445.677732 12.002499 
L 445.232915 12.002499 
L 443.077625 12.002499 
L 442.333332 12.002499 
L 442.147259 12.002499 
L 442.054223 16.099215 
L 441.961186 16.099215 
L 441.58904 16.099215 
L 440.100454 16.099215 
L 437.475699 16.565308 
L 435.911885 16.565308 
L 433.831098 16.565308 
L 433.508037 16.565308 
L 433.427272 16.565308 
L 433.346507 15.789517 
L 433.184976 15.789517 
L 432.538855 15.789517 
L 431.246612 15.789517 
L 429.986837 15.789517 
L 429.35695 15.789517 
L 429.042007 15.789517 
L 428.963271 17.527244 
L 428.884535 17.527244 
L 428.727063 17.527244 
L 426.967048 17.527244 
L 425.150432 17.527244 
L 424.730114 17.527244 
L 424.625034 17.527244 
L 424.519955 16.745113 
L 424.309796 16.745113 
L 423.469159 16.745113 
L 421.787885 16.745113 
L 420.921115 16.745113 
L 420.48773 16.745113 
L 420.271037 16.745113 
L 420.216864 18.531003 
L 420.162691 18.531003 
L 420.054345 18.531003 
L 417.414191 18.531003 
L 416.052232 18.531003 
L 415.925533 18.531003 
L 415.862183 22.969575 
L 415.798833 22.969575 
L 415.545435 22.969575 
L 415.038639 22.969575 
L 414.025047 22.969575 
L 412.658808 22.969575 
L 411.975688 22.969575 
L 411.634128 22.969575 
L 411.548738 22.969575 
L 411.463349 22.221843 
L 411.292569 22.221843 
L 409.61246 22.221843 
L 407.779738 22.221843 
L 407.413856 22.221843 
L 407.230915 22.221843 
L 407.139444 22.221843 
L 407.047974 20.121229 
L 406.31621 20.121229 
L 404.852682 20.121229 
L 403.665426 20.121229 
L 403.028415 20.121229 
L 402.869163 20.121229 
L 402.789536 20.121229 
L 402.70991 19.324136 
L 402.391405 19.324136 
L 401.117383 19.324136 
L 399.537384 19.324136 
L 398.75446 19.324136 
L 398.558728 19.324136 
L 398.460863 19.324136 
L 398.362997 21.242307 
L 397.971535 21.242307 
L 396.405685 21.242307 
L 394.2655 21.242307 
L 392.801043 21.8224 
L 391.14886 21.8224 
L 390.322768 21.8224 
L 389.909723 21.8224 
L 389.7032 21.8224 
L 389.599938 21.017188 
L 389.496677 21.017188 
L 387.297355 21.017188 
L 385.426175 21.017188 
L 382.558533 21.608413 
L 381.776656 21.608413 
L 380.972923 21.608413 
L 380.872457 19.348556 
L 380.77199 19.348556 
L 380.571057 19.348556 
L 380.169191 19.348556 
L 378.561726 19.348556 
L 377.511069 19.348556 
L 376.699837 19.348556 
L 376.598433 19.348556 
L 376.497029 22.834123 
L 376.294221 22.834123 
L 375.888604 22.834123 
L 374.26614 22.834123 
L 373.085036 22.834123 
L 372.230231 22.834123 
L 372.176806 22.834123 
L 372.12338 20.533599 
L 372.01653 20.533599 
L 371.802829 20.533599 
L 371.375426 20.533599 
L 368.900272 20.533599 
L 368.249939 20.533599 
L 367.924772 20.533599 
L 367.84348 20.533599 
L 367.762189 24.121118 
L 367.599605 24.121118 
L 366.298938 24.121118 
L 364.349851 24.121118 
L 363.533702 24.121118 
L 363.431684 24.121118 
L 363.329665 26.294256 
L 363.125628 26.294256 
L 362.717554 26.294256 
L 361.085256 26.294256 
L 359.162182 26.294256 
L 359.076249 26.294256 
L 358.990315 25.474113 
L 358.818448 25.474113 
L 358.474713 25.474113 
L 357.787244 25.474113 
L 356.412307 25.474113 
L 355.516799 25.474113 
L 355.069045 25.474113 
L 354.845168 25.474113 
L 354.733229 25.474113 
L 354.67726 25.474113 
L 354.621291 27.721267 
L 352.097951 27.721267 
L 350.932769 27.721267 
L 350.350178 27.721267 
L 350.277354 28.462938 
L 350.20453 28.462938 
L 350.058882 28.462938 
L 349.767587 28.462938 
L 349.421927 28.462938 
L 347.322661 28.462938 
L 346.498478 28.462938 
L 346.086386 28.462938 
L 345.983363 28.462938 
L 345.88034 27.638905 
L 345.674294 27.638905 
L 344.025928 27.638905 
L 342.595451 27.638905 
L 341.880213 27.638905 
L 341.701403 27.638905 
L 341.611998 27.638905 
L 341.522594 28.399507 
L 341.164974 28.399507 
L 339.58186 28.399507 
L 337.779518 28.399507 
L 337.210224 28.399507 
L 337.139063 29.180948 
L 337.067901 29.180948 
L 336.925577 29.180948 
L 336.640931 29.180948 
L 335.502343 29.180948 
L 332.97894 29.180948 
L 332.883519 29.180948 
L 332.835809 29.180948 
L 332.811954 29.180948 
L 332.788098 31.635639 
L 332.597257 31.635639 
L 332.215574 31.635639 
L 329.439503 31.635639 
L 328.471431 31.635639 
L 328.410927 32.484672 
L 328.350422 32.484672 
L 328.229413 32.484672 
L 327.987395 32.484672 
L 327.503359 32.484672 
L 325.116398 32.484672 
L 324.102133 32.484672 
L 324.038741 31.659232 
L 323.97535 31.659232 
L 323.848566 31.659232 
L 323.595 31.659232 
L 323.087868 31.659232 
L 320.847673 31.659232 
L 319.687021 31.659232 
L 319.614481 29.086518 
L 319.54194 29.086518 
L 319.396859 29.086518 
L 319.106696 29.086518 
L 318.52637 29.086518 
L 316.782898 29.086518 
L 315.997667 29.086518 
L 315.605052 29.086518 
L 315.408744 29.086518 
L 315.31059 29.086518 
L 315.212437 33.432907 
L 313.641976 33.432907 
L 311.054274 33.432907 
L 310.976875 33.432907 
L 310.938175 33.432907 
L 310.899475 34.359453 
L 310.744677 34.359453 
L 310.435079 34.359453 
L 309.815884 34.359453 
L 307.063179 34.359453 
L 306.791412 34.359453 
L 306.655528 34.359453 
L 306.587586 34.359453 
L 306.519644 42.52081 
L 305.97611 42.52081 
L 304.88904 42.52081 
L 303.464051 42.52081 
L 302.751557 42.52081 
L 302.395309 42.52081 
L 302.217186 42.52081 
L 302.128124 41.786277 
L 302.039062 41.786277 
L 301.49319 41.786277 
L 298.87358 41.786277 
L 298.016091 41.786277 
L 297.908905 41.786277 
L 297.801718 39.170805 
L 297.587346 39.170805 
L 297.158602 39.170805 
L 295.443623 39.170805 
L 293.676862 39.170805 
L 293.515522 39.170805 
L 293.434853 38.359779 
L 293.354183 38.359779 
L 293.031504 38.359779 
L 292.386147 38.359779 
L 291.095431 38.359779 
L 289.198648 38.359779 
L 289.12075 38.359779 
L 289.081801 38.359779 
L 289.062326 47.112196 
L 289.042852 47.112196 
L 288.887055 47.112196 
L 288.575462 47.112196 
L 286.462873 47.112196 
L 284.995999 47.112196 
L 284.81264 47.112196 
L 284.72096 47.112196 
L 284.629281 52.252854 
L 284.262562 52.252854 
L 283.529125 52.252854 
L 280.820421 52.252854 
L 280.562417 52.252854 
L 280.433415 52.252854 
L 280.368914 52.252854 
L 280.304413 49.637459 
L 279.788404 49.637459 
L 278.756386 49.637459 
L 277.092632 49.637459 
L 276.245544 49.637459 
L 276.033772 49.637459 
L 275.980829 49.637459 
L 275.927886 48.94885 
L 275.821999 48.94885 
L 275.398455 48.94885 
L 272.565491 48.94885 
L 271.778975 48.94885 
L 271.68066 48.94885 
L 271.582346 50.286686 
L 271.385717 50.286686 
L 270.992459 50.286686 
L 269.419427 50.286686 
L 269.195519 50.286686 
L 267.446819 50.286686 
L 267.228231 50.286686 
L 267.118937 47.499145 
L 267.009644 47.499145 
L 266.572469 47.499145 
L 265.698118 47.499145 
L 264.676924 47.499145 
L 263.359262 47.499145 
L 263.029846 47.499145 
L 262.865139 47.499145 
L 262.782785 48.858875 
L 262.700431 48.858875 
L 262.0416 48.858875 
L 259.28611 48.858875 
L 258.732108 48.858875 
L 258.593608 48.858875 
L 258.524358 48.858875 
L 258.455108 50.268048 
L 258.178107 50.268048 
L 257.070104 50.268048 
L 255.885823 50.268048 
L 254.869211 50.268048 
L 254.360904 50.268048 
L 254.106751 50.268048 
L 254.043213 51.729414 
L 253.979674 51.729414 
L 253.852598 51.729414 
L 251.073935 51.729414 
L 250.294234 51.729414 
L 249.904383 51.729414 
L 249.806921 51.729414 
L 249.709458 57.733137 
L 249.514533 57.733137 
L 247.95513 57.733137 
L 247.107858 57.733137 
L 245.507474 57.733137 
L 245.40745 57.733137 
L 245.307426 54.820764 
L 245.107378 54.820764 
L 244.707282 54.820764 
L 243.907089 54.820764 
L 242.90842 54.820764 
L 241.029398 54.820764 
L 240.911959 56.457361 
L 240.79452 56.457361 
L 240.559643 56.457361 
L 240.089887 56.457361 
L 239.150376 56.457361 
L 236.800896 56.457361 
L 236.68945 56.457361 
L 236.633727 56.457361 
L 236.605866 56.457361 
L 236.578005 55.7812 
L 236.355113 55.7812 
L 235.909331 55.7812 
L 233.981502 55.7812 
L 232.57762 55.7812 
L 232.402135 55.7812 
L 232.314392 55.7812 
L 232.22665 52.650683 
L 231.875679 52.650683 
L 231.173738 52.650683 
L 229.629927 52.650683 
L 228.264303 52.650683 
L 227.922897 52.650683 
L 227.837545 51.867042 
L 227.752194 51.867042 
L 227.581491 51.867042 
L 226.898678 51.867042 
L 223.96871 51.867042 
L 223.495616 51.867042 
L 223.436479 61.17015 
L 223.377343 61.17015 
L 223.259069 61.17015 
L 223.022522 61.17015 
L 222.076334 61.17015 
L 221.273445 61.17015 
L 219.876307 61.17015 
L 219.177739 61.17015 
L 219.090418 70.87774 
L 219.003097 70.87774 
L 218.828455 70.87774 
L 218.47917 70.87774 
L 216.508821 70.87774 
L 215.115645 70.87774 
L 214.767351 70.87774 
L 214.680277 67.804434 
L 214.593204 67.804434 
L 214.419057 67.804434 
L 213.722469 67.804434 
L 211.368648 67.804434 
L 210.223153 67.293957 
L 206.399885 67.293957 
L 206.135945 67.293957 
L 206.003975 67.293957 
L 205.970983 63.994362 
L 205.93799 63.994362 
L 205.872005 63.994362 
L 205.344126 63.994362 
L 203.959908 63.994362 
L 202.395736 63.994362 
L 202.004693 63.994362 
L 201.809172 63.994362 
L 201.711411 63.994362 
L 201.61365 71.862511 
L 200.831565 71.862511 
L 198.352381 71.862511 
L 197.765749 71.862511 
L 197.472433 71.862511 
L 197.325775 71.862511 
L 197.252446 68.513389 
L 197.179117 68.513389 
L 196.005854 68.513389 
L 194.926733 68.513389 
L 193.075881 68.513389 
L 192.959213 68.513389 
L 192.842545 70.942366 
L 192.609209 70.942366 
L 192.142538 70.942366 
L 191.209195 70.942366 
L 189.34251 70.942366 
L 188.825181 70.942366 
L 188.566517 70.942366 
L 188.501851 73.495905 
L 188.437185 73.495905 
L 188.307853 73.495905 
L 187.273196 73.495905 
L 186.07894 73.495905 
L 183.466197 73.054602 
L 182.044095 73.054602 
L 180.424888 73.054602 
L 180.020086 73.054602 
L 179.817685 73.054602 
L 179.716484 75.803259 
L 179.615284 75.803259 
L 178.80568 75.803259 
L 176.543322 75.803259 
L 175.940844 75.803259 
L 175.639606 75.803259 
L 175.488987 75.803259 
L 175.413677 75.803259 
L 175.338367 78.704618 
L 174.133413 78.704618 
L 172.839597 78.704618 
L 171.14106 78.704618 
L 171.034901 78.704618 
L 170.928742 74.976849 
L 170.716425 74.976849 
L 170.291791 74.976849 
L 169.442522 74.976849 
L 167.057556 74.976849 
L 166.786092 74.976849 
L 166.65036 74.976849 
L 166.582493 85.019342 
L 166.514627 85.019342 
L 165.971699 85.019342 
L 164.885841 85.019342 
L 164.223239 85.019342 
L 162.532675 85.019342 
L 162.321354 85.019342 
L 162.215694 81.257003 
L 162.110034 81.257003 
L 161.687393 81.257003 
L 160.842111 81.257003 
L 160.080309 81.257003 
L 158.757294 81.257003 
L 158.095786 81.257003 
L 157.930409 81.257003 
L 157.847721 84.691462 
L 157.765033 84.691462 
L 157.434279 84.691462 
L 155.684126 84.691462 
L 151.810739 84.511657 
L 150.572966 84.511657 
L 149.367881 84.511657 
L 149.217245 84.511657 
L 149.141928 104.138382 
L 149.06661 104.138382 
L 148.765338 104.138382 
L 148.162796 104.138382 
L 145.715369 104.138382 
L 143.261589 104.61676 
L 142.983252 104.61676 
L 141.13753 104.61676 
L 140.676099 104.61676 
L 140.445384 104.61676 
L 140.330027 100.882483 
L 140.214669 100.882483 
L 139.291808 100.882483 
L 138.666577 100.882483 
L 135.480734 101.275708 
L 132.824618 101.275708 
L 131.743891 101.275708 
L 131.676346 101.275708 
L 131.6088 97.125676 
L 131.473709 97.125676 
L 131.203528 97.125676 
L 130.663164 97.125676 
L 128.191877 97.125676 
L 126.630263 97.400086 
L 124.091469 97.400086 
L 123.136731 97.400086 
L 122.94007 97.400086 
L 122.841739 107.606623 
L 122.743409 107.606623 
L 122.350086 107.606623 
L 121.563442 107.606623 
L 119.990153 107.606623 
L 118.720596 107.606623 
L 118.561901 107.606623 
L 118.482554 113.530636 
L 118.403207 113.530636 
L 118.085818 113.530636 
L 117.451039 113.530636 
L 115.097813 113.530636 
L 114.618243 113.530636 
L 114.285142 113.530636 
L 114.201867 113.530636 
L 114.118591 114.588146 
L 113.952041 114.588146 
L 113.285839 114.588146 
L 111.953434 114.588146 
L 110.381015 114.588146 
L 109.98791 114.588146 
L 109.889634 114.588146 
L 109.791357 121.408805 
L 109.594805 121.408805 
L 108.808595 121.408805 
L 107.867276 121.408805 
L 106.219913 121.408805 
L 105.808072 121.408805 
L 105.602152 121.408805 
L 105.499191 121.408805 
L 105.396231 117.020419 
L 104.57255 117.020419 
L 102.524459 117.020419 
L 101.714509 117.020419 
L 101.107825 117.020419 
L 101.03199 118.428577 
L 100.956154 118.428577 
L 100.804483 118.428577 
L 100.501142 118.428577 
L 99.287774 118.428577 
L 97.891537 118.428577 
L 97.193418 118.428577 
L 96.844358 118.428577 
L 96.757093 118.428577 
L 96.669829 126.599369 
L 96.495299 126.599369 
L 95.093824 126.599369 
L 93.397442 126.599369 
L 92.549251 126.599369 
L 92.337204 126.599369 
L 92.23118 121.741889 
L 92.125156 121.741889 
L 91.701061 121.741889 
L 88.989842 121.741889 
L 88.061609 121.741889 
L 87.945579 121.741889 
L 87.887565 131.141113 
L 87.82955 131.141113 
L 87.597492 131.141113 
L 87.133375 131.141113 
L 85.781093 131.141113 
L 84.36386 131.141113 
L 83.655244 131.141113 
L 83.566667 141.793566 
L 83.47809 141.793566 
L 83.300936 141.793566 
L 82.946627 141.793566 
L 81.527675 141.793566 
L 79.817804 141.793566 
L 79.390336 141.793566 
L 79.283469 141.793566 
L 79.176602 145.474148 
L 78.962869 145.474148 
L 78.107933 145.474148 
L 76.241638 145.474148 
L 75.430488 145.474148 
L 75.024913 145.474148 
L 74.92352 145.474148 
L 74.872823 145.474148 
L 74.822126 140.573965 
L 74.619339 140.573965 
L 71.540024 140.573965 
L 70.918245 140.573965 
L 70.607356 140.573965 
L 70.529634 140.573965 
L 70.490773 140.573965 
L 70.451912 144.766343 
L 70.296467 144.766343 
L 68.436932 144.766343 
L 66.826859 144.766343 
L 66.424341 144.766343 
L 66.223082 144.766343 
L 66.122453 144.766343 
L 66.021823 160.531073 
L 65.216787 160.531073 
L 63.990253 160.531073 
L 62.573442 160.531073 
L 62.109922 160.531073 
L 61.878162 160.531073 
L 61.762282 160.531073 
L 61.646402 155.666528 
L 60.719362 155.666528 
L 58.865282 155.666528 
L 57.898532 155.666528 
L 57.372236 155.666528 
L 57.306449 176.145663 
L 57.240662 176.145663 
L 57.109088 176.145663 
L 56.84594 176.145663 
L 55.793347 176.145663 
L 54.298159 176.145663 
L 53.550566 176.145663 
L 53.176769 176.145663 
L 52.98987 176.145663 
L 52.896421 186.880693 
L 52.802972 186.880693 
L 51.33833 186.880693 
L 49.056621 186.880693 
L 48.751913 186.880693 
L 48.599559 186.880693 
L 48.523382 183.695574 
L 48.447205 183.695574 
L 47.837788 183.695574 
L 46.618955 183.695574 
L 44.971041 183.695574 
L 44.559062 183.695574 
L 44.353073 183.695574 
L 44.250078 183.695574 
L 44.147083 199.267267 
L 43.323126 199.267267 
L 41.916823 199.267267 
L 40.341431 199.267267 
L 39.947583 199.267267 
L 39.849121 199.267267 
L 39.750659 197.285415 
L 39.553735 197.285415 
L 38.766039 197.285415 
L 37.298958 197.285415 
L 36.117865 197.285415 
L 35.744794 197.285415 
L 35.558259 197.285415 
L 35.464991 224.040414 
L 35.371723 224.040414 
L 34.625581 224.040414 
L 33.133296 224.040414 
L 31.138483 224.040414 
L 31.084998 228.995043 
L 31.031513 228.995043 
L 30.924542 228.995043 
L 30.710601 228.995043 
L 30.282718 228.995043 
L 29.426953 228.995043 
L 27.877873 228.995043 
L 27.103334 228.995043 
L 26.909699 228.995043 
L 26.812881 228.995043 
L 26.716064 238.904302 
L 26.328794 238.904302 
L 24.592052 238.904302 
L 23.369907 238.904302 
L 22.655223 238.904302 
L 22.476552 238.904302 
L 22.387216 238.904302 
L 22.297881 209.176526 
L 21.940538 209.176526 
L 20.511169 209.176526 
L 17.986968 209.176526 
L 17.986968 328.087631 
L 18.594844 319.341903 
L 19.202721 311.604628 
L 19.810597 304.667099 
L 20.418473 298.379367 
L 21.659391 287.123711 
L 22.971954 276.969555 
L 24.284517 268.150496 
L 26.294453 256.555335 
L 28.002228 248.066249 
L 29.688635 240.61972 
L 31.375041 233.916805 
L 33.716152 225.597752 
L 35.679784 219.335864 
L 36.944985 215.589938 
L 40.710149 205.538228 
L 41.192376 204.353038 
L 43.934853 197.983541 
L 46.868487 191.77864 
L 48.670417 188.233305 
L 50.498794 184.817527 
L 52.605512 181.085715 
L 55.33005 176.547856 
L 58.171326 172.120947 
L 59.807176 169.698535 
L 62.433381 165.983485 
L 64.363318 163.378646 
L 66.747996 160.293568 
L 67.977713 158.756367 
L 69.822087 156.514806 
L 71.455996 154.589644 
L 74.311894 151.351714 
L 76.841608 148.608396 
L 79.202626 146.145295 
L 80.154077 145.177682 
L 84.31349 141.103969 
L 84.416958 141.005716 
L 87.758249 137.907684 
L 90.5601 135.415602 
L 91.889114 134.265084 
L 94.53052 132.03532 
L 95.490454 131.242974 
L 97.761729 129.404618 
L 101.297307 126.639435 
L 103.457755 125.004108 
L 104.22964 124.429357 
L 106.395447 122.842451 
L 108.311883 121.468853 
L 111.545061 119.213303 
L 112.968465 118.243811 
L 115.007932 116.878653 
L 117.472147 115.265353 
L 120.240657 113.497876 
L 123.048306 111.751675 
L 123.912088 111.223454 
L 126.074587 109.918972 
L 129.804093 107.727073 
L 131.004611 107.036454 
L 132.911692 105.953762 
L 135.804077 104.344285 
L 137.039517 103.668401 
L 139.880065 102.139709 
L 142.396056 100.814136 
L 143.38828 100.29848 
L 146.037817 98.94061 
L 148.691198 97.607729 
L 151.538506 96.206247 
L 152.020661 95.971792 
L 155.946393 94.092697 
L 157.727173 93.257331 
L 158.696711 92.80685 
L 162.274441 91.170169 
L 164.389574 90.221 
L 166.365235 89.346371 
L 167.128013 89.011711 
L 170.138579 87.706897 
L 171.437459 87.151679 
L 174.675867 85.787051 
L 177.707196 84.53432 
L 179.400604 83.844538 
L 180.130175 83.549528 
L 182.89496 82.443167 
L 186.099997 81.18303 
L 186.966744 80.846268 
L 190.915003 79.333237 
L 191.529659 79.100727 
L 193.148431 78.492206 
L 197.110305 77.025724 
L 199.477507 76.164544 
L 201.536232 75.424458 
L 203.188809 74.83622 
L 205.905709 73.88019 
L 206.282473 73.748681 
L 209.073 72.782582 
L 211.385183 71.992481 
L 214.65674 70.89019 
L 215.947754 70.460135 
L 218.774454 69.528025 
L 221.235266 68.726964 
L 222.306345 68.381261 
L 224.617164 67.64142 
L 225.920518 67.227699 
L 228.830661 66.313031 
L 231.205434 65.57575 
L 232.612476 65.142701 
L 236.215338 64.046399 
L 237.848549 63.555266 
L 239.693311 63.004802 
L 241.865616 62.36233 
L 245.190065 61.39085 
L 246.965045 60.877855 
L 248.612658 60.405152 
L 251.1509 59.683372 
L 253.068773 59.143099 
L 254.748633 58.673419 
L 256.785098 58.108401 
L 259.989775 57.228775 
L 260.972469 56.961334 
L 263.343109 56.320512 
L 266.378637 55.508783 
L 268.631046 54.912744 
L 271.103954 54.264388 
L 272.174953 53.98552 
L 274.72279 53.326726 
L 276.927129 52.761916 
L 278.899786 52.260464 
L 281.461834 51.614727 
L 283.454774 51.116683 
L 285.554111 50.596013 
L 287.671127 50.075013 
L 290.812739 49.30923 
L 293.056333 48.767637 
L 294.368157 48.45298 
L 296.404889 47.967346 
L 297.705275 47.659111 
L 301.40416 46.790005 
L 302.227486 46.598073 
L 305.049106 45.944432 
L 308.141684 45.235252 
L 308.776297 45.090646 
L 311.638065 44.442387 
L 313.349814 44.057604 
L 316.391877 43.379171 
L 318.295635 42.958059 
L 319.459706 42.701861 
L 322.620106 42.01118 
L 324.765806 41.546269 
L 326.265583 41.22321 
L 329.551866 40.520715 
L 331.334655 40.142666 
L 333.043573 39.782268 
L 335.55466 39.256182 
L 337.78594 38.792149 
L 340.590423 38.213417 
L 341.918557 37.941074 
L 343.263617 37.666381 
L 347.108818 36.887237 
L 347.621039 36.784126 
L 350.639464 36.179702 
L 352.574555 35.795051 
L 354.363577 35.441384 
L 357.024394 34.918794 
L 358.500943 34.630541 
L 361.040538 34.137634 
L 362.809417 33.796438 
L 366.110439 33.164308 
L 368.03009 32.79942 
L 370.98731 32.24116 
L 372.476814 31.961721 
L 373.729427 31.72762 
L 376.696095 31.176411 
L 379.90427 30.585376 
L 382.230385 30.16007 
L 382.795505 30.057149 
L 385.831527 29.506903 
L 387.726237 29.165777 
L 390.493812 28.670592 
L 392.444775 28.323698 
L 395.225042 27.832424 
L 396.658832 27.58047 
L 399.446818 27.093237 
L 400.472959 26.914793 
L 402.441391 26.573807 
L 404.561371 26.208494 
L 406.81628 25.822097 
L 410.487218 25.197769 
L 410.640662 25.171798 
L 413.138271 24.750476 
L 416.862738 24.127063 
L 418.070817 23.926087 
L 420.328729 23.552065 
L 423.421681 23.043076 
L 424.448085 22.875015 
L 426.938098 22.469045 
L 428.330084 22.243161 
L 431.888075 21.669218 
L 432.708199 21.537615 
L 434.93671 21.18131 
L 437.361548 20.795749 
L 439.452336 20.465072 
L 443.031958 19.902672 
L 444.738771 19.636161 
L 446.760602 19.321823 
L 449.19514 18.945262 
L 450.851212 18.69031 
z
" style="fill:#ff0000;opacity:0.5;"/>
   </g>
   <g id="matplotlib.axis_1">
    <g id="xtick_1">
     <g id="line2d_1">
      <defs>
       <path d="M 0 0 
L 0 3.5 
" id="m6f94f038c0" style="stroke:#000000;stroke-width:0.8;"/>
      </defs>
      <g>
       <use style="stroke:#000000;stroke-width:0.8;" x="13.614602" xlink:href="#m6f94f038c0" y="328.087631"/>
      </g>
     </g>
    </g>
    <g id="xtick_2">
     <g id="line2d_2">
      <g>
       <use style="stroke:#000000;stroke-width:0.8;" x="101.061924" xlink:href="#m6f94f038c0" y="328.087631"/>
      </g>
     </g>
     <g id="text_1">
      <!-- 20 -->
      <g transform="translate(94.699424 342.686069)scale(0.1 -0.1)">
       <defs>
        <path d="M 19.1875 8.296875 
L 53.609375 8.296875 
L 53.609375 0 
L 7.328125 0 
L 7.328125 8.296875 
Q 12.9375 14.109375 22.625 23.890625 
Q 32.328125 33.6875 34.8125 36.53125 
Q 39.546875 41.84375 41.421875 45.53125 
Q 43.3125 49.21875 43.3125 52.78125 
Q 43.3125 58.59375 39.234375 62.25 
Q 35.15625 65.921875 28.609375 65.921875 
Q 23.96875 65.921875 18.8125 64.3125 
Q 13.671875 62.703125 7.8125 59.421875 
L 7.8125 69.390625 
Q 13.765625 71.78125 18.9375 73 
Q 24.125 74.21875 28.421875 74.21875 
Q 39.75 74.21875 46.484375 68.546875 
Q 53.21875 62.890625 53.21875 53.421875 
Q 53.21875 48.921875 51.53125 44.890625 
Q 49.859375 40.875 45.40625 35.40625 
Q 44.1875 33.984375 37.640625 27.21875 
Q 31.109375 20.453125 19.1875 8.296875 
z
" id="DejaVuSans-50"/>
        <path d="M 31.78125 66.40625 
Q 24.171875 66.40625 20.328125 58.90625 
Q 16.5 51.421875 16.5 36.375 
Q 16.5 21.390625 20.328125 13.890625 
Q 24.171875 6.390625 31.78125 6.390625 
Q 39.453125 6.390625 43.28125 13.890625 
Q 47.125 21.390625 47.125 36.375 
Q 47.125 51.421875 43.28125 58.90625 
Q 39.453125 66.40625 31.78125 66.40625 
z
M 31.78125 74.21875 
Q 44.046875 74.21875 50.515625 64.515625 
Q 56.984375 54.828125 56.984375 36.375 
Q 56.984375 17.96875 50.515625 8.265625 
Q 44.046875 -1.421875 31.78125 -1.421875 
Q 19.53125 -1.421875 13.0625 8.265625 
Q 6.59375 17.96875 6.59375 36.375 
Q 6.59375 54.828125 13.0625 64.515625 
Q 19.53125 74.21875 31.78125 74.21875 
z
" id="DejaVuSans-48"/>
       </defs>
       <use xlink:href="#DejaVuSans-50"/>
       <use x="63.623047" xlink:href="#DejaVuSans-48"/>
      </g>
     </g>
    </g>
    <g id="xtick_3">
     <g id="line2d_3">
      <g>
       <use style="stroke:#000000;stroke-width:0.8;" x="188.509246" xlink:href="#m6f94f038c0" y="328.087631"/>
      </g>
     </g>
     <g id="text_2">
      <!-- 40 -->
      <g transform="translate(182.146746 342.686069)scale(0.1 -0.1)">
       <defs>
        <path d="M 37.796875 64.3125 
L 12.890625 25.390625 
L 37.796875 25.390625 
z
M 35.203125 72.90625 
L 47.609375 72.90625 
L 47.609375 25.390625 
L 58.015625 25.390625 
L 58.015625 17.1875 
L 47.609375 17.1875 
L 47.609375 0 
L 37.796875 0 
L 37.796875 17.1875 
L 4.890625 17.1875 
L 4.890625 26.703125 
z
" id="DejaVuSans-52"/>
       </defs>
       <use xlink:href="#DejaVuSans-52"/>
       <use x="63.623047" xlink:href="#DejaVuSans-48"/>
      </g>
     </g>
    </g>
    <g id="xtick_4">
     <g id="line2d_4">
      <g>
       <use style="stroke:#000000;stroke-width:0.8;" x="275.956568" xlink:href="#m6f94f038c0" y="328.087631"/>
      </g>
     </g>
     <g id="text_3">
      <!-- 60 -->
      <g transform="translate(269.594068 342.686069)scale(0.1 -0.1)">
       <defs>
        <path d="M 33.015625 40.375 
Q 26.375 40.375 22.484375 35.828125 
Q 18.609375 31.296875 18.609375 23.390625 
Q 18.609375 15.53125 22.484375 10.953125 
Q 26.375 6.390625 33.015625 6.390625 
Q 39.65625 6.390625 43.53125 10.953125 
Q 47.40625 15.53125 47.40625 23.390625 
Q 47.40625 31.296875 43.53125 35.828125 
Q 39.65625 40.375 33.015625 40.375 
z
M 52.59375 71.296875 
L 52.59375 62.3125 
Q 48.875 64.0625 45.09375 64.984375 
Q 41.3125 65.921875 37.59375 65.921875 
Q 27.828125 65.921875 22.671875 59.328125 
Q 17.53125 52.734375 16.796875 39.40625 
Q 19.671875 43.65625 24.015625 45.921875 
Q 28.375 48.1875 33.59375 48.1875 
Q 44.578125 48.1875 50.953125 41.515625 
Q 57.328125 34.859375 57.328125 23.390625 
Q 57.328125 12.15625 50.6875 5.359375 
Q 44.046875 -1.421875 33.015625 -1.421875 
Q 20.359375 -1.421875 13.671875 8.265625 
Q 6.984375 17.96875 6.984375 36.375 
Q 6.984375 53.65625 15.1875 63.9375 
Q 23.390625 74.21875 37.203125 74.21875 
Q 40.921875 74.21875 44.703125 73.484375 
Q 48.484375 72.75 52.59375 71.296875 
z
" id="DejaVuSans-54"/>
       </defs>
       <use xlink:href="#DejaVuSans-54"/>
       <use x="63.623047" xlink:href="#DejaVuSans-48"/>
      </g>
     </g>
    </g>
    <g id="xtick_5">
     <g id="line2d_5">
      <g>
       <use style="stroke:#000000;stroke-width:0.8;" x="363.40389" xlink:href="#m6f94f038c0" y="328.087631"/>
      </g>
     </g>
     <g id="text_4">
      <!-- 80 -->
      <g transform="translate(357.04139 342.686069)scale(0.1 -0.1)">
       <defs>
        <path d="M 31.78125 34.625 
Q 24.75 34.625 20.71875 30.859375 
Q 16.703125 27.09375 16.703125 20.515625 
Q 16.703125 13.921875 20.71875 10.15625 
Q 24.75 6.390625 31.78125 6.390625 
Q 38.8125 6.390625 42.859375 10.171875 
Q 46.921875 13.96875 46.921875 20.515625 
Q 46.921875 27.09375 42.890625 30.859375 
Q 38.875 34.625 31.78125 34.625 
z
M 21.921875 38.8125 
Q 15.578125 40.375 12.03125 44.71875 
Q 8.5 49.078125 8.5 55.328125 
Q 8.5 64.0625 14.71875 69.140625 
Q 20.953125 74.21875 31.78125 74.21875 
Q 42.671875 74.21875 48.875 69.140625 
Q 55.078125 64.0625 55.078125 55.328125 
Q 55.078125 49.078125 51.53125 44.71875 
Q 48 40.375 41.703125 38.8125 
Q 48.828125 37.15625 52.796875 32.3125 
Q 56.78125 27.484375 56.78125 20.515625 
Q 56.78125 9.90625 50.3125 4.234375 
Q 43.84375 -1.421875 31.78125 -1.421875 
Q 19.734375 -1.421875 13.25 4.234375 
Q 6.78125 9.90625 6.78125 20.515625 
Q 6.78125 27.484375 10.78125 32.3125 
Q 14.796875 37.15625 21.921875 38.8125 
z
M 18.3125 54.390625 
Q 18.3125 48.734375 21.84375 45.5625 
Q 25.390625 42.390625 31.78125 42.390625 
Q 38.140625 42.390625 41.71875 45.5625 
Q 45.3125 48.734375 45.3125 54.390625 
Q 45.3125 60.0625 41.71875 63.234375 
Q 38.140625 66.40625 31.78125 66.40625 
Q 25.390625 66.40625 21.84375 63.234375 
Q 18.3125 60.0625 18.3125 54.390625 
z
" id="DejaVuSans-56"/>
       </defs>
       <use xlink:href="#DejaVuSans-56"/>
       <use x="63.623047" xlink:href="#DejaVuSans-48"/>
      </g>
     </g>
    </g>
    <g id="xtick_6">
     <g id="line2d_6">
      <g>
       <use style="stroke:#000000;stroke-width:0.8;" x="450.851212" xlink:href="#m6f94f038c0" y="328.087631"/>
      </g>
     </g>
     <g id="text_5">
      <!-- 100 -->
      <g transform="translate(441.307462 342.686069)scale(0.1 -0.1)">
       <defs>
        <path d="M 12.40625 8.296875 
L 28.515625 8.296875 
L 28.515625 63.921875 
L 10.984375 60.40625 
L 10.984375 69.390625 
L 28.421875 72.90625 
L 38.28125 72.90625 
L 38.28125 8.296875 
L 54.390625 8.296875 
L 54.390625 0 
L 12.40625 0 
z
" id="DejaVuSans-49"/>
       </defs>
       <use xlink:href="#DejaVuSans-49"/>
       <use x="63.623047" xlink:href="#DejaVuSans-48"/>
       <use x="127.246094" xlink:href="#DejaVuSans-48"/>
      </g>
     </g>
    </g>
    <g id="xtick_7">
     <g id="line2d_7">
      <defs>
       <path d="M 0 0 
L 0 2 
" id="mfd2c43ed62" style="stroke:#000000;stroke-width:0.6;"/>
      </defs>
      <g>
       <use style="stroke:#000000;stroke-width:0.6;" x="35.476433" xlink:href="#mfd2c43ed62" y="328.087631"/>
      </g>
     </g>
    </g>
    <g id="xtick_8">
     <g id="line2d_8">
      <g>
       <use style="stroke:#000000;stroke-width:0.6;" x="57.338263" xlink:href="#mfd2c43ed62" y="328.087631"/>
      </g>
     </g>
    </g>
    <g id="xtick_9">
     <g id="line2d_9">
      <g>
       <use style="stroke:#000000;stroke-width:0.6;" x="79.200094" xlink:href="#mfd2c43ed62" y="328.087631"/>
      </g>
     </g>
    </g>
    <g id="xtick_10">
     <g id="line2d_10">
      <g>
       <use style="stroke:#000000;stroke-width:0.6;" x="122.923755" xlink:href="#mfd2c43ed62" y="328.087631"/>
      </g>
     </g>
    </g>
    <g id="xtick_11">
     <g id="line2d_11">
      <g>
       <use style="stroke:#000000;stroke-width:0.6;" x="144.785585" xlink:href="#mfd2c43ed62" y="328.087631"/>
      </g>
     </g>
    </g>
    <g id="xtick_12">
     <g id="line2d_12">
      <g>
       <use style="stroke:#000000;stroke-width:0.6;" x="166.647416" xlink:href="#mfd2c43ed62" y="328.087631"/>
      </g>
     </g>
    </g>
    <g id="xtick_13">
     <g id="line2d_13">
      <g>
       <use style="stroke:#000000;stroke-width:0.6;" x="210.371077" xlink:href="#mfd2c43ed62" y="328.087631"/>
      </g>
     </g>
    </g>
    <g id="xtick_14">
     <g id="line2d_14">
      <g>
       <use style="stroke:#000000;stroke-width:0.6;" x="232.232907" xlink:href="#mfd2c43ed62" y="328.087631"/>
      </g>
     </g>
    </g>
    <g id="xtick_15">
     <g id="line2d_15">
      <g>
       <use style="stroke:#000000;stroke-width:0.6;" x="254.094738" xlink:href="#mfd2c43ed62" y="328.087631"/>
      </g>
     </g>
    </g>
    <g id="xtick_16">
     <g id="line2d_16">
      <g>
       <use style="stroke:#000000;stroke-width:0.6;" x="297.818399" xlink:href="#mfd2c43ed62" y="328.087631"/>
      </g>
     </g>
    </g>
    <g id="xtick_17">
     <g id="line2d_17">
      <g>
       <use style="stroke:#000000;stroke-width:0.6;" x="319.680229" xlink:href="#mfd2c43ed62" y="328.087631"/>
      </g>
     </g>
    </g>
    <g id="xtick_18">
     <g id="line2d_18">
      <g>
       <use style="stroke:#000000;stroke-width:0.6;" x="341.54206" xlink:href="#mfd2c43ed62" y="328.087631"/>
      </g>
     </g>
    </g>
    <g id="xtick_19">
     <g id="line2d_19">
      <g>
       <use style="stroke:#000000;stroke-width:0.6;" x="385.265721" xlink:href="#mfd2c43ed62" y="328.087631"/>
      </g>
     </g>
    </g>
    <g id="xtick_20">
     <g id="line2d_20">
      <g>
       <use style="stroke:#000000;stroke-width:0.6;" x="407.127551" xlink:href="#mfd2c43ed62" y="328.087631"/>
      </g>
     </g>
    </g>
    <g id="xtick_21">
     <g id="line2d_21">
      <g>
       <use style="stroke:#000000;stroke-width:0.6;" x="428.989382" xlink:href="#mfd2c43ed62" y="328.087631"/>
      </g>
     </g>
    </g>
   </g>
   <g id="matplotlib.axis_2">
    <g id="ytick_1">
     <g id="line2d_22">
      <defs>
       <path d="M 0 0 
L -3.5 0 
" id="m20746fa565" style="stroke:#000000;stroke-width:0.8;"/>
      </defs>
      <g>
       <use style="stroke:#000000;stroke-width:0.8;" x="13.614602" xlink:href="#m20746fa565" y="328.087631"/>
      </g>
     </g>
    </g>
    <g id="ytick_2">
     <g id="line2d_23">
      <g>
       <use style="stroke:#000000;stroke-width:0.8;" x="13.614602" xlink:href="#m20746fa565" y="268.632078"/>
      </g>
     </g>
     <g id="text_6">
      <!-- 1 -->
      <g transform="translate(0.252102 272.431297)scale(0.1 -0.1)">
       <use xlink:href="#DejaVuSans-49"/>
      </g>
     </g>
    </g>
    <g id="ytick_3">
     <g id="line2d_24">
      <g>
       <use style="stroke:#000000;stroke-width:0.8;" x="13.614602" xlink:href="#m20746fa565" y="209.176526"/>
      </g>
     </g>
     <g id="text_7">
      <!-- 2 -->
      <g transform="translate(0.252102 212.975744)scale(0.1 -0.1)">
       <use xlink:href="#DejaVuSans-50"/>
      </g>
     </g>
    </g>
    <g id="ytick_4">
     <g id="line2d_25">
      <g>
       <use style="stroke:#000000;stroke-width:0.8;" x="13.614602" xlink:href="#m20746fa565" y="149.720973"/>
      </g>
     </g>
     <g id="text_8">
      <!-- 3 -->
      <g transform="translate(0.252102 153.520192)scale(0.1 -0.1)">
       <defs>
        <path d="M 40.578125 39.3125 
Q 47.65625 37.796875 51.625 33 
Q 55.609375 28.21875 55.609375 21.1875 
Q 55.609375 10.40625 48.1875 4.484375 
Q 40.765625 -1.421875 27.09375 -1.421875 
Q 22.515625 -1.421875 17.65625 -0.515625 
Q 12.796875 0.390625 7.625 2.203125 
L 7.625 11.71875 
Q 11.71875 9.328125 16.59375 8.109375 
Q 21.484375 6.890625 26.8125 6.890625 
Q 36.078125 6.890625 40.9375 10.546875 
Q 45.796875 14.203125 45.796875 21.1875 
Q 45.796875 27.640625 41.28125 31.265625 
Q 36.765625 34.90625 28.71875 34.90625 
L 20.21875 34.90625 
L 20.21875 43.015625 
L 29.109375 43.015625 
Q 36.375 43.015625 40.234375 45.921875 
Q 44.09375 48.828125 44.09375 54.296875 
Q 44.09375 59.90625 40.109375 62.90625 
Q 36.140625 65.921875 28.71875 65.921875 
Q 24.65625 65.921875 20.015625 65.03125 
Q 15.375 64.15625 9.8125 62.3125 
L 9.8125 71.09375 
Q 15.4375 72.65625 20.34375 73.4375 
Q 25.25 74.21875 29.59375 74.21875 
Q 40.828125 74.21875 47.359375 69.109375 
Q 53.90625 64.015625 53.90625 55.328125 
Q 53.90625 49.265625 50.4375 45.09375 
Q 46.96875 40.921875 40.578125 39.3125 
z
" id="DejaVuSans-51"/>
       </defs>
       <use xlink:href="#DejaVuSans-51"/>
      </g>
     </g>
    </g>
    <g id="ytick_5">
     <g id="line2d_26">
      <g>
       <use style="stroke:#000000;stroke-width:0.8;" x="13.614602" xlink:href="#m20746fa565" y="90.26542"/>
      </g>
     </g>
     <g id="text_9">
      <!-- 4 -->
      <g transform="translate(0.252102 94.064639)scale(0.1 -0.1)">
       <use xlink:href="#DejaVuSans-52"/>
      </g>
     </g>
    </g>
    <g id="ytick_6">
     <g id="line2d_27">
      <g>
       <use style="stroke:#000000;stroke-width:0.8;" x="13.614602" xlink:href="#m20746fa565" y="30.809867"/>
      </g>
     </g>
     <g id="text_10">
      <!-- 5 -->
      <g transform="translate(0.252102 34.609086)scale(0.1 -0.1)">
       <defs>
        <path d="M 10.796875 72.90625 
L 49.515625 72.90625 
L 49.515625 64.59375 
L 19.828125 64.59375 
L 19.828125 46.734375 
Q 21.96875 47.46875 24.109375 47.828125 
Q 26.265625 48.1875 28.421875 48.1875 
Q 40.625 48.1875 47.75 41.5 
Q 54.890625 34.8125 54.890625 23.390625 
Q 54.890625 11.625 47.5625 5.09375 
Q 40.234375 -1.421875 26.90625 -1.421875 
Q 22.3125 -1.421875 17.546875 -0.640625 
Q 12.796875 0.140625 7.71875 1.703125 
L 7.71875 11.625 
Q 12.109375 9.234375 16.796875 8.0625 
Q 21.484375 6.890625 26.703125 6.890625 
Q 35.15625 6.890625 40.078125 11.328125 
Q 45.015625 15.765625 45.015625 23.390625 
Q 45.015625 31 40.078125 35.4375 
Q 35.15625 39.890625 26.703125 39.890625 
Q 22.75 39.890625 18.8125 39.015625 
Q 14.890625 38.140625 10.796875 36.28125 
z
" id="DejaVuSans-53"/>
       </defs>
       <use xlink:href="#DejaVuSans-53"/>
      </g>
     </g>
    </g>
    <g id="ytick_7">
     <g id="line2d_28">
      <defs>
       <path d="M 0 0 
L -2 0 
" id="m0ed7842aa1" style="stroke:#000000;stroke-width:0.6;"/>
      </defs>
      <g>
       <use style="stroke:#000000;stroke-width:0.6;" x="13.614602" xlink:href="#m0ed7842aa1" y="316.196521"/>
      </g>
     </g>
    </g>
    <g id="ytick_8">
     <g id="line2d_29">
      <g>
       <use style="stroke:#000000;stroke-width:0.6;" x="13.614602" xlink:href="#m0ed7842aa1" y="304.30541"/>
      </g>
     </g>
    </g>
    <g id="ytick_9">
     <g id="line2d_30">
      <g>
       <use style="stroke:#000000;stroke-width:0.6;" x="13.614602" xlink:href="#m0ed7842aa1" y="292.414299"/>
      </g>
     </g>
    </g>
    <g id="ytick_10">
     <g id="line2d_31">
      <g>
       <use style="stroke:#000000;stroke-width:0.6;" x="13.614602" xlink:href="#m0ed7842aa1" y="280.523189"/>
      </g>
     </g>
    </g>
    <g id="ytick_11">
     <g id="line2d_32">
      <g>
       <use style="stroke:#000000;stroke-width:0.6;" x="13.614602" xlink:href="#m0ed7842aa1" y="256.740968"/>
      </g>
     </g>
    </g>
    <g id="ytick_12">
     <g id="line2d_33">
      <g>
       <use style="stroke:#000000;stroke-width:0.6;" x="13.614602" xlink:href="#m0ed7842aa1" y="244.849857"/>
      </g>
     </g>
    </g>
    <g id="ytick_13">
     <g id="line2d_34">
      <g>
       <use style="stroke:#000000;stroke-width:0.6;" x="13.614602" xlink:href="#m0ed7842aa1" y="232.958747"/>
      </g>
     </g>
    </g>
    <g id="ytick_14">
     <g id="line2d_35">
      <g>
       <use style="stroke:#000000;stroke-width:0.6;" x="13.614602" xlink:href="#m0ed7842aa1" y="221.067636"/>
      </g>
     </g>
    </g>
    <g id="ytick_15">
     <g id="line2d_36">
      <g>
       <use style="stroke:#000000;stroke-width:0.6;" x="13.614602" xlink:href="#m0ed7842aa1" y="197.285415"/>
      </g>
     </g>
    </g>
    <g id="ytick_16">
     <g id="line2d_37">
      <g>
       <use style="stroke:#000000;stroke-width:0.6;" x="13.614602" xlink:href="#m0ed7842aa1" y="185.394305"/>
      </g>
     </g>
    </g>
    <g id="ytick_17">
     <g id="line2d_38">
      <g>
       <use style="stroke:#000000;stroke-width:0.6;" x="13.614602" xlink:href="#m0ed7842aa1" y="173.503194"/>
      </g>
     </g>
    </g>
    <g id="ytick_18">
     <g id="line2d_39">
      <g>
       <use style="stroke:#000000;stroke-width:0.6;" x="13.614602" xlink:href="#m0ed7842aa1" y="161.612083"/>
      </g>
     </g>
    </g>
    <g id="ytick_19">
     <g id="line2d_40">
      <g>
       <use style="stroke:#000000;stroke-width:0.6;" x="13.614602" xlink:href="#m0ed7842aa1" y="137.829862"/>
      </g>
     </g>
    </g>
    <g id="ytick_20">
     <g id="line2d_41">
      <g>
       <use style="stroke:#000000;stroke-width:0.6;" x="13.614602" xlink:href="#m0ed7842aa1" y="125.938752"/>
      </g>
     </g>
    </g>
    <g id="ytick_21">
     <g id="line2d_42">
      <g>
       <use style="stroke:#000000;stroke-width:0.6;" x="13.614602" xlink:href="#m0ed7842aa1" y="114.047641"/>
      </g>
     </g>
    </g>
    <g id="ytick_22">
     <g id="line2d_43">
      <g>
       <use style="stroke:#000000;stroke-width:0.6;" x="13.614602" xlink:href="#m0ed7842aa1" y="102.156531"/>
      </g>
     </g>
    </g>
    <g id="ytick_23">
     <g id="line2d_44">
      <g>
       <use style="stroke:#000000;stroke-width:0.6;" x="13.614602" xlink:href="#m0ed7842aa1" y="78.37431"/>
      </g>
     </g>
    </g>
    <g id="ytick_24">
     <g id="line2d_45">
      <g>
       <use style="stroke:#000000;stroke-width:0.6;" x="13.614602" xlink:href="#m0ed7842aa1" y="66.483199"/>
      </g>
     </g>
    </g>
    <g id="ytick_25">
     <g id="line2d_46">
      <g>
       <use style="stroke:#000000;stroke-width:0.6;" x="13.614602" xlink:href="#m0ed7842aa1" y="54.592089"/>
      </g>
     </g>
    </g>
    <g id="ytick_26">
     <g id="line2d_47">
      <g>
       <use style="stroke:#000000;stroke-width:0.6;" x="13.614602" xlink:href="#m0ed7842aa1" y="42.700978"/>
      </g>
     </g>
    </g>
    <g id="ytick_27">
     <g id="line2d_48">
      <g>
       <use style="stroke:#000000;stroke-width:0.6;" x="13.614602" xlink:href="#m0ed7842aa1" y="18.918757"/>
      </g>
     </g>
    </g>
    <g id="ytick_28">
     <g id="line2d_49">
      <g>
       <use style="stroke:#000000;stroke-width:0.6;" x="13.614602" xlink:href="#m0ed7842aa1" y="7.027646"/>
      </g>
     </g>
    </g>
   </g>
   <g id="line2d_50">
    <path clip-path="url(#p0ddf8b3414)" d="M 17.986968 328.087631 
L 19.202721 311.604628 
L 20.418473 298.379367 
L 21.659391 287.123711 
L 22.971954 276.969555 
L 24.284517 268.150496 
L 26.294453 256.555335 
L 28.002228 248.066249 
L 29.688635 240.61972 
L 31.375041 233.916805 
L 33.716152 225.597752 
L 36.944985 215.589938 
L 41.192376 204.353038 
L 43.934853 197.983541 
L 46.868487 191.77864 
L 50.498794 184.817527 
L 52.605512 181.085715 
L 55.33005 176.547856 
L 59.807176 169.698535 
L 64.363318 163.378646 
L 67.977713 158.756367 
L 71.455996 154.589644 
L 76.841608 148.608396 
L 80.154077 145.177682 
L 84.416958 141.005716 
L 90.5601 135.415602 
L 95.490454 131.242974 
L 101.297307 126.639435 
L 108.311883 121.468853 
L 115.007932 116.878653 
L 120.240657 113.497876 
L 126.074587 109.918972 
L 132.911692 105.953762 
L 139.880065 102.139709 
L 148.691198 97.607729 
L 157.727173 93.257331 
L 167.128013 89.011711 
L 177.707196 84.53432 
L 186.966744 80.846268 
L 199.477507 76.164544 
L 211.385183 71.992481 
L 224.617164 67.64142 
L 237.848549 63.555266 
L 251.1509 59.683372 
L 266.378637 55.508783 
L 281.461834 51.614727 
L 297.705275 47.659111 
L 316.391877 43.379171 
L 333.043573 39.782268 
L 352.574555 35.795051 
L 372.476814 31.961721 
L 392.444775 28.323698 
L 413.138271 24.750476 
L 437.361548 20.795749 
L 450.851212 18.69031 
L 450.851212 18.69031 
" style="fill:none;stroke:#0000ff;stroke-linecap:square;"/>
   </g>
   <g id="patch_4">
    <path d="M 13.614602 334.520722 
L 13.614602 0 
" style="fill:none;stroke:#000000;stroke-linecap:square;stroke-linejoin:miter;stroke-width:0.8;"/>
   </g>
   <g id="patch_5">
    <path d="M 9.329683 328.087631 
L 459.508497 328.087631 
" style="fill:none;stroke:#000000;stroke-linecap:square;stroke-linejoin:miter;stroke-width:0.8;"/>
   </g>
  </g>
 </g>
 <defs>
  <clipPath id="p0ddf8b3414">
   <rect height="334.520722" width="450.178814" x="9.329683" y="0"/>
  </clipPath>
 </defs>
</svg>
