<?xml version="1.0" encoding="utf-8" standalone="no"?>
<!DOCTYPE svg PUBLIC "-//W3C//DTD SVG 1.1//EN"
  "http://www.w3.org/Graphics/SVG/1.1/DTD/svg11.dtd">
<!-- Created with matplotlib (http://matplotlib.org/) -->
<svg height="345.6pt" version="1.1" viewBox="0 0 460.8 345.6" width="460.8pt" xmlns="http://www.w3.org/2000/svg" xmlns:xlink="http://www.w3.org/1999/xlink">
 <defs>
  <style type="text/css">
*{stroke-linecap:butt;stroke-linejoin:round;}
  </style>
 </defs>
 <g id="figure_1">
  <g id="patch_1">
   <path d="M 0 345.6 
L 460.8 345.6 
L 460.8 0 
L 0 0 
z
" style="fill:#ffffff;"/>
  </g>
  <g id="axes_1">
   <g id="patch_2">
    <path d="M 82.93265 343.08 
L 377.86735 343.08 
L 377.86735 2.52 
L 82.93265 2.52 
z
" style="fill:#ffffff;"/>
   </g>
   <g id="matplotlib.axis_1">
    <g id="xtick_1">
     <g id="line2d_1">
      <defs>
       <path d="M 0 0 
L 0 3.5 
" id="m4108bc8f68" style="stroke:#000000;stroke-width:0.8;"/>
      </defs>
      <g>
       <use style="stroke:#000000;stroke-width:0.8;" x="120.113716" xlink:href="#m4108bc8f68" y="172.800964"/>
      </g>
     </g>
    </g>
    <g id="xtick_2">
     <g id="line2d_2">
      <g>
       <use style="stroke:#000000;stroke-width:0.8;" x="183.134169" xlink:href="#m4108bc8f68" y="172.800964"/>
      </g>
     </g>
     <g id="text_1">
      <!-- 1 -->
      <defs>
       <path d="M 12.40625 8.296875 
L 28.515625 8.296875 
L 28.515625 63.921875 
L 10.984375 60.40625 
L 10.984375 69.390625 
L 28.421875 72.90625 
L 38.28125 72.90625 
L 38.28125 8.296875 
L 54.390625 8.296875 
L 54.390625 0 
L 12.40625 0 
z
" id="DejaVuSans-31"/>
      </defs>
      <g transform="translate(179.952919 187.399401)scale(0.1 -0.1)">
       <use xlink:href="#DejaVuSans-31"/>
      </g>
     </g>
    </g>
    <g id="xtick_3">
     <g id="line2d_3">
      <g>
       <use style="stroke:#000000;stroke-width:0.8;" x="246.154622" xlink:href="#m4108bc8f68" y="172.800964"/>
      </g>
     </g>
     <g id="text_2">
      <!-- 2 -->
      <defs>
       <path d="M 19.1875 8.296875 
L 53.609375 8.296875 
L 53.609375 0 
L 7.328125 0 
L 7.328125 8.296875 
Q 12.9375 14.109375 22.625 23.890625 
Q 32.328125 33.6875 34.8125 36.53125 
Q 39.546875 41.84375 41.421875 45.53125 
Q 43.3125 49.21875 43.3125 52.78125 
Q 43.3125 58.59375 39.234375 62.25 
Q 35.15625 65.921875 28.609375 65.921875 
Q 23.96875 65.921875 18.8125 64.3125 
Q 13.671875 62.703125 7.8125 59.421875 
L 7.8125 69.390625 
Q 13.765625 71.78125 18.9375 73 
Q 24.125 74.21875 28.421875 74.21875 
Q 39.75 74.21875 46.484375 68.546875 
Q 53.21875 62.890625 53.21875 53.421875 
Q 53.21875 48.921875 51.53125 44.890625 
Q 49.859375 40.875 45.40625 35.40625 
Q 44.1875 33.984375 37.640625 27.21875 
Q 31.109375 20.453125 19.1875 8.296875 
z
" id="DejaVuSans-32"/>
      </defs>
      <g transform="translate(242.973372 187.399401)scale(0.1 -0.1)">
       <use xlink:href="#DejaVuSans-32"/>
      </g>
     </g>
    </g>
    <g id="xtick_4">
     <g id="line2d_4">
      <g>
       <use style="stroke:#000000;stroke-width:0.8;" x="309.175075" xlink:href="#m4108bc8f68" y="172.800964"/>
      </g>
     </g>
     <g id="text_3">
      <!-- 3 -->
      <defs>
       <path d="M 40.578125 39.3125 
Q 47.65625 37.796875 51.625 33 
Q 55.609375 28.21875 55.609375 21.1875 
Q 55.609375 10.40625 48.1875 4.484375 
Q 40.765625 -1.421875 27.09375 -1.421875 
Q 22.515625 -1.421875 17.65625 -0.515625 
Q 12.796875 0.390625 7.625 2.203125 
L 7.625 11.71875 
Q 11.71875 9.328125 16.59375 8.109375 
Q 21.484375 6.890625 26.8125 6.890625 
Q 36.078125 6.890625 40.9375 10.546875 
Q 45.796875 14.203125 45.796875 21.1875 
Q 45.796875 27.640625 41.28125 31.265625 
Q 36.765625 34.90625 28.71875 34.90625 
L 20.21875 34.90625 
L 20.21875 43.015625 
L 29.109375 43.015625 
Q 36.375 43.015625 40.234375 45.921875 
Q 44.09375 48.828125 44.09375 54.296875 
Q 44.09375 59.90625 40.109375 62.90625 
Q 36.140625 65.921875 28.71875 65.921875 
Q 24.65625 65.921875 20.015625 65.03125 
Q 15.375 64.15625 9.8125 62.3125 
L 9.8125 71.09375 
Q 15.4375 72.65625 20.34375 73.4375 
Q 25.25 74.21875 29.59375 74.21875 
Q 40.828125 74.21875 47.359375 69.109375 
Q 53.90625 64.015625 53.90625 55.328125 
Q 53.90625 49.265625 50.4375 45.09375 
Q 46.96875 40.921875 40.578125 39.3125 
z
" id="DejaVuSans-33"/>
      </defs>
      <g transform="translate(305.993825 187.399401)scale(0.1 -0.1)">
       <use xlink:href="#DejaVuSans-33"/>
      </g>
     </g>
    </g>
    <g id="xtick_5">
     <g id="line2d_5">
      <g>
       <use style="stroke:#000000;stroke-width:0.8;" x="372.195529" xlink:href="#m4108bc8f68" y="172.800964"/>
      </g>
     </g>
     <g id="text_4">
      <!-- 4 -->
      <defs>
       <path d="M 37.796875 64.3125 
L 12.890625 25.390625 
L 37.796875 25.390625 
z
M 35.203125 72.90625 
L 47.609375 72.90625 
L 47.609375 25.390625 
L 58.015625 25.390625 
L 58.015625 17.1875 
L 47.609375 17.1875 
L 47.609375 0 
L 37.796875 0 
L 37.796875 17.1875 
L 4.890625 17.1875 
L 4.890625 26.703125 
z
" id="DejaVuSans-34"/>
      </defs>
      <g transform="translate(369.014279 187.399401)scale(0.1 -0.1)">
       <use xlink:href="#DejaVuSans-34"/>
      </g>
     </g>
    </g>
    <g id="xtick_6">
     <g id="line2d_6">
      <defs>
       <path d="M 0 0 
L 0 2 
" id="m136828d512" style="stroke:#000000;stroke-width:0.6;"/>
      </defs>
      <g>
       <use style="stroke:#000000;stroke-width:0.6;" x="94.905535" xlink:href="#m136828d512" y="172.800964"/>
      </g>
     </g>
    </g>
    <g id="xtick_7">
     <g id="line2d_7">
      <g>
       <use style="stroke:#000000;stroke-width:0.6;" x="107.509626" xlink:href="#m136828d512" y="172.800964"/>
      </g>
     </g>
    </g>
    <g id="xtick_8">
     <g id="line2d_8">
      <g>
       <use style="stroke:#000000;stroke-width:0.6;" x="132.717807" xlink:href="#m136828d512" y="172.800964"/>
      </g>
     </g>
    </g>
    <g id="xtick_9">
     <g id="line2d_9">
      <g>
       <use style="stroke:#000000;stroke-width:0.6;" x="145.321897" xlink:href="#m136828d512" y="172.800964"/>
      </g>
     </g>
    </g>
    <g id="xtick_10">
     <g id="line2d_10">
      <g>
       <use style="stroke:#000000;stroke-width:0.6;" x="157.925988" xlink:href="#m136828d512" y="172.800964"/>
      </g>
     </g>
    </g>
    <g id="xtick_11">
     <g id="line2d_11">
      <g>
       <use style="stroke:#000000;stroke-width:0.6;" x="170.530079" xlink:href="#m136828d512" y="172.800964"/>
      </g>
     </g>
    </g>
    <g id="xtick_12">
     <g id="line2d_12">
      <g>
       <use style="stroke:#000000;stroke-width:0.6;" x="183.134169" xlink:href="#m136828d512" y="172.800964"/>
      </g>
     </g>
    </g>
    <g id="xtick_13">
     <g id="line2d_13">
      <g>
       <use style="stroke:#000000;stroke-width:0.6;" x="195.73826" xlink:href="#m136828d512" y="172.800964"/>
      </g>
     </g>
    </g>
    <g id="xtick_14">
     <g id="line2d_14">
      <g>
       <use style="stroke:#000000;stroke-width:0.6;" x="208.34235" xlink:href="#m136828d512" y="172.800964"/>
      </g>
     </g>
    </g>
    <g id="xtick_15">
     <g id="line2d_15">
      <g>
       <use style="stroke:#000000;stroke-width:0.6;" x="220.946441" xlink:href="#m136828d512" y="172.800964"/>
      </g>
     </g>
    </g>
    <g id="xtick_16">
     <g id="line2d_16">
      <g>
       <use style="stroke:#000000;stroke-width:0.6;" x="233.550532" xlink:href="#m136828d512" y="172.800964"/>
      </g>
     </g>
    </g>
    <g id="xtick_17">
     <g id="line2d_17">
      <g>
       <use style="stroke:#000000;stroke-width:0.6;" x="246.154622" xlink:href="#m136828d512" y="172.800964"/>
      </g>
     </g>
    </g>
    <g id="xtick_18">
     <g id="line2d_18">
      <g>
       <use style="stroke:#000000;stroke-width:0.6;" x="258.758713" xlink:href="#m136828d512" y="172.800964"/>
      </g>
     </g>
    </g>
    <g id="xtick_19">
     <g id="line2d_19">
      <g>
       <use style="stroke:#000000;stroke-width:0.6;" x="271.362804" xlink:href="#m136828d512" y="172.800964"/>
      </g>
     </g>
    </g>
    <g id="xtick_20">
     <g id="line2d_20">
      <g>
       <use style="stroke:#000000;stroke-width:0.6;" x="283.966894" xlink:href="#m136828d512" y="172.800964"/>
      </g>
     </g>
    </g>
    <g id="xtick_21">
     <g id="line2d_21">
      <g>
       <use style="stroke:#000000;stroke-width:0.6;" x="296.570985" xlink:href="#m136828d512" y="172.800964"/>
      </g>
     </g>
    </g>
    <g id="xtick_22">
     <g id="line2d_22">
      <g>
       <use style="stroke:#000000;stroke-width:0.6;" x="309.175075" xlink:href="#m136828d512" y="172.800964"/>
      </g>
     </g>
    </g>
    <g id="xtick_23">
     <g id="line2d_23">
      <g>
       <use style="stroke:#000000;stroke-width:0.6;" x="321.779166" xlink:href="#m136828d512" y="172.800964"/>
      </g>
     </g>
    </g>
    <g id="xtick_24">
     <g id="line2d_24">
      <g>
       <use style="stroke:#000000;stroke-width:0.6;" x="334.383257" xlink:href="#m136828d512" y="172.800964"/>
      </g>
     </g>
    </g>
    <g id="xtick_25">
     <g id="line2d_25">
      <g>
       <use style="stroke:#000000;stroke-width:0.6;" x="346.987347" xlink:href="#m136828d512" y="172.800964"/>
      </g>
     </g>
    </g>
    <g id="xtick_26">
     <g id="line2d_26">
      <g>
       <use style="stroke:#000000;stroke-width:0.6;" x="359.591438" xlink:href="#m136828d512" y="172.800964"/>
      </g>
     </g>
    </g>
    <g id="xtick_27">
     <g id="line2d_27">
      <g>
       <use style="stroke:#000000;stroke-width:0.6;" x="372.195529" xlink:href="#m136828d512" y="172.800964"/>
      </g>
     </g>
    </g>
   </g>
   <g id="matplotlib.axis_2">
    <g id="ytick_1">
     <g id="line2d_28">
      <defs>
       <path d="M 0 0 
L -3.5 0 
" id="m386705e054" style="stroke:#000000;stroke-width:0.8;"/>
      </defs>
      <g>
       <use style="stroke:#000000;stroke-width:0.8;" x="120.113716" xlink:href="#m386705e054" y="298.84187"/>
      </g>
     </g>
     <g id="text_5">
      <!-- -2 -->
      <defs>
       <path d="M 4.890625 31.390625 
L 31.203125 31.390625 
L 31.203125 23.390625 
L 4.890625 23.390625 
z
" id="DejaVuSans-2d"/>
      </defs>
      <g transform="translate(103.143404 302.641089)scale(0.1 -0.1)">
       <use xlink:href="#DejaVuSans-2d"/>
       <use x="36.083984" xlink:href="#DejaVuSans-32"/>
      </g>
     </g>
    </g>
    <g id="ytick_2">
     <g id="line2d_29">
      <g>
       <use style="stroke:#000000;stroke-width:0.8;" x="120.113716" xlink:href="#m386705e054" y="235.821417"/>
      </g>
     </g>
     <g id="text_6">
      <!-- -1 -->
      <g transform="translate(103.143404 239.620635)scale(0.1 -0.1)">
       <use xlink:href="#DejaVuSans-2d"/>
       <use x="36.083984" xlink:href="#DejaVuSans-31"/>
      </g>
     </g>
    </g>
    <g id="ytick_3">
     <g id="line2d_30">
      <g>
       <use style="stroke:#000000;stroke-width:0.8;" x="120.113716" xlink:href="#m386705e054" y="172.800964"/>
      </g>
     </g>
    </g>
    <g id="ytick_4">
     <g id="line2d_31">
      <g>
       <use style="stroke:#000000;stroke-width:0.8;" x="120.113716" xlink:href="#m386705e054" y="109.78051"/>
      </g>
     </g>
     <g id="text_7">
      <!-- 1 -->
      <g transform="translate(106.751216 113.579729)scale(0.1 -0.1)">
       <use xlink:href="#DejaVuSans-31"/>
      </g>
     </g>
    </g>
    <g id="ytick_5">
     <g id="line2d_32">
      <g>
       <use style="stroke:#000000;stroke-width:0.8;" x="120.113716" xlink:href="#m386705e054" y="46.760057"/>
      </g>
     </g>
     <g id="text_8">
      <!-- 2 -->
      <g transform="translate(106.751216 50.559276)scale(0.1 -0.1)">
       <use xlink:href="#DejaVuSans-32"/>
      </g>
     </g>
    </g>
    <g id="ytick_6">
     <g id="line2d_33">
      <defs>
       <path d="M 0 0 
L -2 0 
" id="m7766768473" style="stroke:#000000;stroke-width:0.6;"/>
      </defs>
      <g>
       <use style="stroke:#000000;stroke-width:0.6;" x="120.113716" xlink:href="#m7766768473" y="336.654142"/>
      </g>
     </g>
    </g>
    <g id="ytick_7">
     <g id="line2d_34">
      <g>
       <use style="stroke:#000000;stroke-width:0.6;" x="120.113716" xlink:href="#m7766768473" y="324.050051"/>
      </g>
     </g>
    </g>
    <g id="ytick_8">
     <g id="line2d_35">
      <g>
       <use style="stroke:#000000;stroke-width:0.6;" x="120.113716" xlink:href="#m7766768473" y="311.44596"/>
      </g>
     </g>
    </g>
    <g id="ytick_9">
     <g id="line2d_36">
      <g>
       <use style="stroke:#000000;stroke-width:0.6;" x="120.113716" xlink:href="#m7766768473" y="286.237779"/>
      </g>
     </g>
    </g>
    <g id="ytick_10">
     <g id="line2d_37">
      <g>
       <use style="stroke:#000000;stroke-width:0.6;" x="120.113716" xlink:href="#m7766768473" y="273.633689"/>
      </g>
     </g>
    </g>
    <g id="ytick_11">
     <g id="line2d_38">
      <g>
       <use style="stroke:#000000;stroke-width:0.6;" x="120.113716" xlink:href="#m7766768473" y="261.029598"/>
      </g>
     </g>
    </g>
    <g id="ytick_12">
     <g id="line2d_39">
      <g>
       <use style="stroke:#000000;stroke-width:0.6;" x="120.113716" xlink:href="#m7766768473" y="248.425507"/>
      </g>
     </g>
    </g>
    <g id="ytick_13">
     <g id="line2d_40">
      <g>
       <use style="stroke:#000000;stroke-width:0.6;" x="120.113716" xlink:href="#m7766768473" y="223.217326"/>
      </g>
     </g>
    </g>
    <g id="ytick_14">
     <g id="line2d_41">
      <g>
       <use style="stroke:#000000;stroke-width:0.6;" x="120.113716" xlink:href="#m7766768473" y="210.613235"/>
      </g>
     </g>
    </g>
    <g id="ytick_15">
     <g id="line2d_42">
      <g>
       <use style="stroke:#000000;stroke-width:0.6;" x="120.113716" xlink:href="#m7766768473" y="198.009145"/>
      </g>
     </g>
    </g>
    <g id="ytick_16">
     <g id="line2d_43">
      <g>
       <use style="stroke:#000000;stroke-width:0.6;" x="120.113716" xlink:href="#m7766768473" y="185.405054"/>
      </g>
     </g>
    </g>
    <g id="ytick_17">
     <g id="line2d_44">
      <g>
       <use style="stroke:#000000;stroke-width:0.6;" x="120.113716" xlink:href="#m7766768473" y="160.196873"/>
      </g>
     </g>
    </g>
    <g id="ytick_18">
     <g id="line2d_45">
      <g>
       <use style="stroke:#000000;stroke-width:0.6;" x="120.113716" xlink:href="#m7766768473" y="147.592782"/>
      </g>
     </g>
    </g>
    <g id="ytick_19">
     <g id="line2d_46">
      <g>
       <use style="stroke:#000000;stroke-width:0.6;" x="120.113716" xlink:href="#m7766768473" y="134.988692"/>
      </g>
     </g>
    </g>
    <g id="ytick_20">
     <g id="line2d_47">
      <g>
       <use style="stroke:#000000;stroke-width:0.6;" x="120.113716" xlink:href="#m7766768473" y="122.384601"/>
      </g>
     </g>
    </g>
    <g id="ytick_21">
     <g id="line2d_48">
      <g>
       <use style="stroke:#000000;stroke-width:0.6;" x="120.113716" xlink:href="#m7766768473" y="97.17642"/>
      </g>
     </g>
    </g>
    <g id="ytick_22">
     <g id="line2d_49">
      <g>
       <use style="stroke:#000000;stroke-width:0.6;" x="120.113716" xlink:href="#m7766768473" y="84.572329"/>
      </g>
     </g>
    </g>
    <g id="ytick_23">
     <g id="line2d_50">
      <g>
       <use style="stroke:#000000;stroke-width:0.6;" x="120.113716" xlink:href="#m7766768473" y="71.968239"/>
      </g>
     </g>
    </g>
    <g id="ytick_24">
     <g id="line2d_51">
      <g>
       <use style="stroke:#000000;stroke-width:0.6;" x="120.113716" xlink:href="#m7766768473" y="59.364148"/>
      </g>
     </g>
    </g>
    <g id="ytick_25">
     <g id="line2d_52">
      <g>
       <use style="stroke:#000000;stroke-width:0.6;" x="120.113716" xlink:href="#m7766768473" y="34.155967"/>
      </g>
     </g>
    </g>
    <g id="ytick_26">
     <g id="line2d_53">
      <g>
       <use style="stroke:#000000;stroke-width:0.6;" x="120.113716" xlink:href="#m7766768473" y="21.551876"/>
      </g>
     </g>
    </g>
    <g id="ytick_27">
     <g id="line2d_54">
      <g>
       <use style="stroke:#000000;stroke-width:0.6;" x="120.113716" xlink:href="#m7766768473" y="8.947785"/>
      </g>
     </g>
    </g>
   </g>
   <g id="line2d_55">
    <path clip-path="url(#p9e7ddcf0f1)" d="M 372.195529 172.800964 
L 372.020117 165.124672 
L 371.738054 160.409666 
L 371.039745 153.126516 
L 370.025508 145.884803 
L 369.227029 141.358959 
L 367.954141 135.29219 
L 366.464693 129.302518 
L 365.042327 124.312115 
L 363.467506 119.373222 
L 361.872701 114.843953 
L 360.150278 110.367486 
L 358.076464 105.431646 
L 355.286146 99.407831 
L 352.263769 93.512152 
L 348.817517 87.420001 
L 343.544035 79.114919 
L 339.987048 74.072018 
L 333.977341 66.373672 
L 329.603734 61.317038 
L 323.113323 54.521571 
L 319.013405 50.6095 
L 314.793089 46.855627 
L 311.415695 44.035026 
L 306.442777 40.155711 
L 302.067949 36.993184 
L 297.60551 33.991484 
L 289.532685 29.09243 
L 286.936233 27.65311 
L 280.943435 24.568934 
L 274.857884 21.760591 
L 267.710488 18.855783 
L 262.02552 16.834753 
L 256.298947 15.048086 
L 248.037137 12.896089 
L 241.940511 11.621456 
L 235.445973 10.549909 
L 229.724573 9.84731 
L 222.915136 9.303373 
L 214.890076 9.069231 
L 211.822434 9.096419 
L 206.111499 9.320338 
L 200.459103 9.76646 
L 195.296105 10.372459 
L 190.320076 11.139641 
L 181.688652 12.910389 
L 176.8207 14.164736 
L 171.513129 15.752405 
L 161.850305 19.268498 
L 158.691693 20.604416 
L 150.82258 24.367942 
L 147.761347 26.011594 
L 142.258471 29.242678 
L 133.262866 35.382126 
L 126.321865 40.976934 
L 121.804803 45.102267 
L 115.826705 51.279328 
L 111.820895 55.978798 
L 108.284628 60.596416 
L 105.026324 65.337755 
L 102.136606 70.040698 
L 99.103502 75.64737 
L 97.433992 79.125173 
L 94.88614 85.200538 
L 92.764271 91.349123 
L 91.378755 96.296049 
L 90.284629 101.188026 
L 89.746286 104.199708 
L 89.163302 108.435234 
L 88.65652 115.228699 
L 88.619454 119.858431 
L 88.842217 124.506264 
L 89.214619 128.217897 
L 89.609193 130.982947 
L 90.697897 136.435879 
L 91.865359 140.721506 
L 93.005587 144.1189 
L 94.907868 148.761248 
L 96.84838 152.642232 
L 97.73638 154.210153 
L 100.543061 158.519054 
L 102.204286 160.695536 
L 104.873119 163.728661 
L 107.368486 166.125536 
L 109.20488 167.650846 
L 111.084988 169.018579 
L 113.478264 170.487313 
L 115.479395 171.481369 
L 117.503146 172.255225 
L 119.520169 172.743018 
L 120.112785 172.800967 
L 119.716423 172.832633 
L 118.398177 173.088975 
L 116.475933 173.708644 
L 114.336976 174.661505 
L 112.617745 175.607924 
L 110.607294 176.912794 
L 107.883995 179.028668 
L 105.73055 181.005198 
L 104.016823 182.789714 
L 101.091301 186.337386 
L 99.081923 189.215145 
L 97.526696 191.751871 
L 95.343837 195.906159 
L 93.520277 200.121426 
L 92.126194 204.048679 
L 91.416179 206.40716 
L 90.009255 212.357841 
L 89.516246 215.209883 
L 88.876077 220.669073 
L 88.651985 224.533306 
L 88.604471 227.784665 
L 88.750452 232.37369 
L 89.090175 236.500485 
L 89.533758 240.020778 
L 91.136588 248.321203 
L 92.24345 252.50862 
L 94.699464 259.908721 
L 97.055191 265.639025 
L 101.58647 274.601489 
L 105.190529 280.516156 
L 108.152337 284.822861 
L 111.340518 289.023888 
L 117.484605 296.127482 
L 123.537366 302.131949 
L 129.875256 307.592829 
L 136.612689 312.640428 
L 144.527284 317.736081 
L 151.734157 321.703307 
L 159.766644 325.462951 
L 164.119517 327.234854 
L 173.198544 330.379146 
L 180.99836 332.525128 
L 191.90687 334.726707 
L 194.757347 335.155156 
L 201.686631 335.951517 
L 210.518997 336.474316 
L 215.432737 336.530769 
L 225.301243 336.14402 
L 230.50605 335.671903 
L 236.408149 334.911724 
L 243.935611 333.592222 
L 249.778616 332.293276 
L 254.958606 330.936753 
L 263.644589 328.217051 
L 268.419536 326.476356 
L 273.156607 324.570507 
L 282.052114 320.486799 
L 287.338251 317.730132 
L 292.540471 314.760882 
L 298.536149 311.002401 
L 302.227293 308.497462 
L 309.049757 303.451793 
L 313.876702 299.527185 
L 318.566165 295.402916 
L 322.330637 291.84856 
L 326.385774 287.752365 
L 330.107821 283.723037 
L 333.618391 279.659333 
L 337.002229 275.471593 
L 339.838622 271.73185 
L 344.845143 264.537225 
L 348.230848 259.161956 
L 351.414738 253.647502 
L 354.027611 248.719972 
L 356.439449 243.780173 
L 359.151089 237.668104 
L 361.552428 231.620104 
L 363.719309 225.473409 
L 365.10835 221.07055 
L 367.440709 212.483268 
L 369.059921 205.107431 
L 369.885347 200.566727 
L 371.042499 192.452047 
L 371.641497 186.435361 
L 372.023675 180.399052 
L 372.195529 172.800964 
L 372.195529 172.800964 
" style="fill:none;stroke:#33ff00;stroke-linecap:square;"/>
   </g>
   <g id="patch_3">
    <path d="M 120.113716 343.08 
L 120.113716 2.52 
" style="fill:none;stroke:#000000;stroke-linecap:square;stroke-linejoin:miter;stroke-width:0.8;"/>
   </g>
   <g id="patch_4">
    <path d="M 82.93265 172.800964 
L 377.86735 172.800964 
" style="fill:none;stroke:#000000;stroke-linecap:square;stroke-linejoin:miter;stroke-width:0.8;"/>
   </g>
  </g>
 </g>
 <defs>
  <clipPath id="p9e7ddcf0f1">
   <rect height="340.56" width="294.9347" x="82.93265" y="2.52"/>
  </clipPath>
 </defs>
</svg>
