<?xml version="1.0" encoding="utf-8" standalone="no"?>
<!DOCTYPE svg PUBLIC "-//W3C//DTD SVG 1.1//EN"
  "http://www.w3.org/Graphics/SVG/1.1/DTD/svg11.dtd">
<svg xmlns:xlink="http://www.w3.org/1999/xlink" width="460.8pt" height="345.6pt" viewBox="0 0 460.8 345.6" xmlns="http://www.w3.org/2000/svg" version="1.1">
 <metadata>
  <rdf:RDF xmlns:dc="http://purl.org/dc/elements/1.1/" xmlns:cc="http://creativecommons.org/ns#" xmlns:rdf="http://www.w3.org/1999/02/22-rdf-syntax-ns#">
   <cc:Work>
    <dc:type rdf:resource="http://purl.org/dc/dcmitype/StillImage"/>
    <dc:date>2022-05-16T19:39:20.566942</dc:date>
    <dc:format>image/svg+xml</dc:format>
    <dc:creator>
     <cc:Agent>
      <dc:title>Matplotlib v3.5.1, https://matplotlib.org/</dc:title>
     </cc:Agent>
    </dc:creator>
   </cc:Work>
  </rdf:RDF>
 </metadata>
 <defs>
  <style type="text/css">*{stroke-linejoin: round; stroke-linecap: butt}</style>
 </defs>
 <g id="figure_1">
  <g id="patch_1">
   <path d="M 0 345.6 
L 460.8 345.6 
L 460.8 0 
L 0 0 
z
" style="fill: #ffffff"/>
  </g>
  <g id="axes_1">
   <g id="patch_2">
    <path d="M 23.323698 345.6 
L 460.8 345.6 
L 460.8 0 
L 23.323698 0 
z
" style="fill: #ffffff"/>
   </g>
   <g id="patch_3">
    <path d="M 31.736704 214.962008 
L 31.736704 214.962008 
L 33.658539 198.606903 
L 36.447926 175.078126 
L 37.940591 162.683565 
L 39.66187 148.638387 
L 41.889201 130.967208 
L 43.620835 117.707613 
L 46.005946 100.26286 
L 47.716639 88.417865 
L 49.673269 75.636186 
L 51.629898 63.748733 
L 52.616557 58.117093 
L 54.87934 46.178323 
L 57.856491 32.67385 
L 59.66046 25.780423 
L 60.817657 21.890782 
L 62.808552 16.197112 
L 65.344975 10.812031 
L 66.932487 8.524055 
L 68.519999 7.076131 
L 69.371531 6.646154 
L 71.954691 6.818113 
L 74.554891 9.209649 
L 76.950876 13.337751 
L 77.620479 14.813186 
L 79.350601 19.258651 
L 81.34605 25.485849 
L 83.341498 32.83784 
L 84.916811 39.394851 
L 87.402958 51.004028 
L 89.507784 61.942327 
L 90.981646 70.151314 
L 92.277474 77.710175 
L 94.39606 90.68765 
L 98.122823 115.063091 
L 100.294826 129.961115 
L 101.903267 141.222185 
L 103.135131 149.939359 
L 105.401158 166.094219 
L 107.866549 183.691387 
L 109.732893 196.909611 
L 111.02435 205.954431 
L 114.097143 226.963676 
L 115.956191 239.208341 
L 117.46381 248.816375 
L 121.018147 270.099119 
L 121.615551 273.463406 
L 124.435485 288.410569 
L 125.955486 295.781832 
L 128.664537 307.624878 
L 130.374112 314.195194 
L 132.083687 320.032476 
L 133.183408 323.388943 
L 135.806987 330.102857 
L 137.533523 333.5074 
L 139.415696 336.289283 
L 142.146337 338.593831 
L 144.439408 338.953846 
L 146.474081 338.088163 
L 148.171274 336.532631 
L 149.800006 334.346237 
L 152.421371 329.455466 
L 154.783879 323.674527 
L 156.335071 319.215863 
L 158.473336 312.269357 
L 160.061165 306.554432 
L 163.811645 291.399725 
L 164.782434 287.144801 
L 166.395135 279.819304 
L 169.471612 265.099657 
L 171.728845 253.830414 
L 172.532871 249.748402 
L 175.755579 233.181702 
L 177.972826 221.734131 
L 178.683463 218.080386 
L 182.688176 197.866541 
L 184.281887 190.099464 
L 186.071463 181.641944 
L 187.116913 176.851688 
L 189.862508 164.88925 
L 191.596875 157.855868 
L 195.260631 144.541211 
L 196.890144 139.362527 
L 198.055229 135.961865 
L 200.287757 130.182287 
L 203.377384 123.857454 
L 205.151607 121.137906 
L 206.88452 119.139776 
L 208.454058 117.897166 
L 210.349922 117.117951 
L 212.245787 117.126286 
L 212.595579 117.213333 
L 215.754741 119.187698 
L 218.172087 122.106878 
L 220.468968 125.960254 
L 222.433196 130.046746 
L 225.057479 136.56801 
L 226.124602 139.543792 
L 228.436765 146.580112 
L 231.146468 155.747055 
L 231.999981 158.816467 
L 234.972131 170.080093 
L 236.245336 175.13794 
L 237.963227 182.137098 
L 241.170677 195.590048 
L 242.231487 200.106991 
L 244.868283 211.373453 
L 247.814465 223.855632 
L 249.19598 229.605615 
L 250.727483 235.863421 
L 254.316224 249.874451 
L 256.145816 256.57016 
L 257.033333 259.6895 
L 259.395712 267.535569 
L 261.091431 272.719479 
L 264.920626 282.879304 
L 266.180301 285.71471 
L 268.70121 290.581965 
L 270.186232 292.926869 
L 272.100873 295.360474 
L 273.857958 296.998001 
L 277.413015 298.541076 
L 278.340867 298.552675 
L 281.655045 297.284802 
L 283.088655 296.113014 
L 286.282417 292.19825 
L 288.069481 289.254919 
L 290.532011 284.368974 
L 292.247182 280.433133 
L 294.82637 273.761771 
L 295.436313 272.061704 
L 297.796094 265.086578 
L 300.558478 256.2144 
L 301.442695 253.237371 
L 305.270648 239.757971 
L 307.359274 232.111713 
L 308.913364 226.346987 
L 311.011036 218.52513 
L 312.847863 211.692574 
L 314.352019 206.146734 
L 317.886857 193.453661 
L 320.043256 186.059935 
L 320.707366 183.851207 
L 324.393796 172.298922 
L 326.610481 166.024747 
L 326.987458 165.014285 
L 329.074041 159.741094 
L 331.037349 155.304005 
L 333.226422 150.999771 
L 335.922062 146.689014 
L 339.149309 143.041581 
L 340.303162 142.15055 
L 343.219956 140.885985 
L 345.193149 140.836809 
L 347.553688 141.627624 
L 349.710306 143.145677 
L 351.214179 144.642744 
L 353.225188 147.189609 
L 355.805909 151.330759 
L 356.744063 153.067284 
L 358.356802 156.324684 
L 361.457107 163.483821 
L 363.901519 169.870406 
L 365.235305 173.59609 
L 368.711015 183.971161 
L 369.086691 185.141637 
L 371.604197 193.177261 
L 373.883109 200.670214 
L 375.262237 205.267086 
L 377.755948 213.623962 
L 380.52227 222.841084 
L 382.591052 229.60667 
L 384.260737 234.938445 
L 386.768261 242.653382 
L 389.155254 249.585858 
L 390.742256 253.92955 
L 392.740519 259.05526 
L 395.718924 265.896754 
L 396.979549 268.477442 
L 398.730991 271.729044 
L 401.704426 276.308539 
L 404.477354 279.452389 
L 406.62499 281.109063 
L 407.012627 281.334373 
L 409.07336 282.150202 
L 412.395311 282.107592 
L 414.899234 280.976687 
L 416.964492 279.349204 
L 419.237753 276.855639 
L 420.209396 275.573005 
L 422.644947 271.813311 
L 424.163192 269.094578 
L 426.315584 264.781278 
L 428.124316 260.771842 
L 430.96949 253.832897 
L 434.224361 245.097941 
L 436.028868 239.963022 
L 437.383996 235.999434 
L 440.683238 226.075185 
L 441.602113 223.266504 
L 444.289426 215.017561 
L 446.211599 209.141836 
L 448.990831 200.792366 
L 450.874931 195.294778 
L 452.386994 191.012118 
L 452.386994 214.962008 
z
" clip-path="url(#p1a300c1cbc)" style="fill: #b2b3ff; opacity: 0.5"/>
   </g>
   <g id="patch_4">
    <path d="M 31.736704 214.962008 
L 31.736704 214.962008 
L 34.272094 214.311874 
L 36.052223 213.082773 
L 37.092053 212.073544 
L 39.220878 209.349738 
L 42.390409 203.712594 
L 44.312197 199.420158 
L 47.484839 191.001954 
L 48.970531 186.534973 
L 49.707027 184.206215 
L 53.588033 170.817058 
L 55.779342 162.547827 
L 56.200466 160.910053 
L 58.24959 152.752398 
L 61.332047 140.027654 
L 63.6151 130.396423 
L 66.070524 119.990402 
L 68.117171 111.382369 
L 69.747081 104.630507 
L 71.406113 97.89991 
L 74.390525 86.292656 
L 76.973573 76.927916 
L 78.359047 72.222831 
L 81.02601 63.892038 
L 81.637217 62.129946 
L 85.138416 53.214374 
L 86.183431 50.969908 
L 88.296642 47.062192 
L 91.594592 42.751645 
L 93.338629 41.399489 
L 94.538675 40.854711 
L 96.92014 40.724237 
L 99.231963 41.825416 
L 102.046 44.811542 
L 102.803502 45.923482 
L 105.435688 50.792373 
L 107.993542 56.990322 
L 109.242622 60.526941 
L 111.106176 66.403987 
L 114.93516 80.612353 
L 115.675809 83.671294 
L 119.063752 98.824932 
L 119.574405 101.262962 
L 122.498018 115.907341 
L 123.916855 123.392852 
L 127.093207 140.882741 
L 129.785752 156.318265 
L 131.524643 166.487404 
L 132.470828 172.063787 
L 135.488513 189.934153 
L 137.833928 203.776371 
L 138.507118 207.72068 
L 140.975522 222.001122 
L 142.92147 232.983807 
L 146.646341 253.050029 
L 148.254709 261.228951 
L 149.611786 267.862491 
L 152.924162 282.892879 
L 153.479521 285.237297 
L 156.20882 295.95654 
L 158.262912 303.089648 
L 160.452839 309.750619 
L 162.45198 314.940181 
L 165.956922 321.896016 
L 167.683849 324.291427 
L 169.706105 326.216317 
L 172.013345 327.248043 
L 173.226544 327.294085 
L 175.569671 326.424555 
L 177.533688 324.739251 
L 180.147952 321.18428 
L 180.762838 320.137081 
L 183.996403 313.369841 
L 185.02753 310.785834 
L 188.966212 299.18442 
L 189.631232 296.974758 
L 193.180853 284.109273 
L 194.508106 278.884443 
L 197.38543 266.919331 
L 198.047687 264.058991 
L 201.101807 250.469745 
L 202.818884 242.613365 
L 204.294071 235.787026 
L 207.63224 220.249056 
L 210.100285 208.84935 
L 211.809439 201.084493 
L 212.896679 196.225195 
L 215.598539 184.504428 
L 217.518702 176.556026 
L 220.564659 164.756774 
L 222.727512 157.083158 
L 225.000085 149.737928 
L 226.064509 146.570826 
L 228.649612 139.656507 
L 230.535315 135.345156 
L 231.882179 132.66156 
L 235.557436 127.085124 
L 237.705053 125.044039 
L 238.701035 124.407397 
L 241.073331 123.685409 
L 243.691954 124.18268 
L 245.441081 125.261095 
L 246.692157 126.391986 
L 248.744593 128.880836 
L 250.60558 131.796436 
L 252.747232 135.891603 
L 255.764179 142.914096 
L 258.380047 150.081132 
L 260.461429 156.418505 
L 261.859645 160.957028 
L 263.593172 166.862678 
L 267.217726 180.035789 
L 268.127388 183.482024 
L 269.559911 188.995146 
L 272.542188 200.71012 
L 275.850765 213.850842 
L 277.182811 219.116245 
L 280.098395 230.457966 
L 280.182058 230.77819 
L 283.34773 242.594765 
L 285.638214 250.689697 
L 287.30892 256.294696 
L 289.846405 264.244068 
L 291.8514 269.984209 
L 293.926789 275.368385 
L 295.810246 279.72536 
L 297.691825 283.543789 
L 301.148467 289.083965 
L 302.368449 290.564712 
L 303.880859 292.047072 
L 307.028783 293.858596 
L 307.748545 294.029246 
L 310.932556 293.698001 
L 312.167526 293.096731 
L 314.799643 290.952557 
L 317.842173 287.060793 
L 318.266723 286.401979 
L 322.142858 279.157298 
L 323.097466 277.05161 
L 325.105215 272.243197 
L 328.378811 263.404017 
L 330.23005 257.928015 
L 331.499653 254.001481 
L 334.822425 243.183152 
L 336.004758 239.182361 
L 337.410856 234.348118 
L 340.760484 222.619848 
L 342.035655 218.122642 
L 343.942161 211.417004 
L 346.118855 203.848861 
L 347.861781 197.906764 
L 350.239058 190.047006 
L 353.716025 179.242621 
L 355.118395 175.172506 
L 356.417848 171.571286 
L 358.389739 166.448343 
L 361.775655 158.719398 
L 363.452954 155.437336 
L 365.231471 152.381297 
L 367.110089 149.64793 
L 369.521727 146.912718 
L 372.550628 144.749407 
L 374.528595 144.115508 
L 376.12684 144.055225 
L 377.553502 144.3415 
L 381.419767 146.704602 
L 383.257777 148.618602 
L 384.599834 150.325367 
L 387.432005 154.744794 
L 389.09677 157.832207 
L 391.120669 162.038222 
L 393.34647 167.190951 
L 394.372027 169.735185 
L 397.232498 177.332839 
L 399.486693 183.767204 
L 402.273602 192.146289 
L 404.747684 199.866578 
L 406.76772 206.289311 
L 407.891743 209.886072 
L 409.16601 213.967356 
L 412.07438 223.220936 
L 414.258062 230.029717 
L 415.691554 234.395743 
L 419.157071 244.47883 
L 421.115776 249.80597 
L 423.16456 255.030255 
L 424.334523 257.836203 
L 426.36077 262.361872 
L 429.685077 268.781298 
L 430.798696 270.630699 
L 434.036485 275.088328 
L 435.304385 276.446494 
L 437.401006 278.197396 
L 440.022966 279.501459 
L 442.698736 279.805144 
L 444.028002 279.57019 
L 446.492924 278.463987 
L 447.277336 277.931743 
L 450.989681 274.269991 
L 452.386994 272.420908 
L 452.386994 214.962008 
z
" clip-path="url(#p1a300c1cbc)" style="fill: #c9ffb2; opacity: 0.5"/>
   </g>
   <g id="patch_5">
    <path d="M 31.736704 214.962008 
L 31.736704 214.962008 
L 33.858391 214.954349 
L 36.402568 214.880752 
L 38.386755 214.727501 
L 40.415714 214.442992 
L 41.81838 214.151515 
L 44.364692 213.382243 
L 47.019691 212.190972 
L 49.690644 210.525857 
L 51.059089 209.472316 
L 53.21049 207.520835 
L 53.993518 206.717316 
L 56.512377 203.781137 
L 59.802491 199.111441 
L 60.583162 197.861872 
L 63.370502 192.955451 
L 66.311069 187.03505 
L 67.775007 183.810897 
L 69.576564 179.60093 
L 71.630261 174.491478 
L 74.537689 166.738096 
L 75.786736 163.237816 
L 78.721956 154.667537 
L 79.495406 152.3389 
L 82.380161 143.449744 
L 83.54002 139.804219 
L 85.987935 132.02721 
L 89.769577 119.958965 
L 91.806162 113.531143 
L 92.358872 111.804799 
L 96.114302 100.388745 
L 97.779838 95.558412 
L 99.292668 91.330405 
L 101.356173 85.848832 
L 102.760568 82.331595 
L 105.356518 76.348528 
L 107.324616 72.312544 
L 109.17963 68.944909 
L 112.500365 64.07758 
L 114.420971 61.997184 
L 116.624566 60.31912 
L 118.084857 59.641684 
L 119.992561 59.296167 
L 121.582238 59.486181 
L 125.06774 61.459839 
L 127.340632 63.915274 
L 128.508653 65.537362 
L 132.072023 71.985997 
L 134.069759 76.573017 
L 135.161578 79.367488 
L 138.108648 87.891267 
L 139.665656 92.949978 
L 140.996781 97.56432 
L 144.56562 111.163842 
L 145.789855 116.209455 
L 148.199442 126.646657 
L 150.787272 138.516899 
L 151.619759 142.462015 
L 154.53564 156.681716 
L 155.976499 163.897424 
L 157.707238 172.686323 
L 160.241476 185.711148 
L 163.844362 204.305715 
L 163.861094 204.391764 
L 166.957128 220.172724 
L 168.168762 226.241058 
L 170.684825 238.560797 
L 172.436346 246.857207 
L 174.965858 258.336945 
L 177.376085 268.624028 
L 178.810661 274.40347 
L 181.785123 285.471412 
L 182.919933 289.342233 
L 185.885603 298.461321 
L 188.095474 304.260686 
L 189.436375 307.343226 
L 192.808627 313.576616 
L 195.204895 316.643001 
L 196.445755 317.776415 
L 198.644333 319.016366 
L 200.217312 319.299686 
L 202.14194 318.964062 
L 205.103506 317.000718 
L 207.919376 313.552042 
L 209.642013 310.711419 
L 211.754784 306.504567 
L 213.459557 302.556895 
L 214.666485 299.478336 
L 218.523608 288.189634 
L 220.498803 281.639347 
L 221.369323 278.605934 
L 223.738188 269.946447 
L 225.907974 261.563263 
L 228.511017 251.0549 
L 231.342073 239.229135 
L 233.352737 230.681728 
L 234.328159 226.514987 
L 236.360041 217.836986 
L 239.893512 202.934317 
L 241.770493 195.221238 
L 242.083413 193.954443 
L 246.028376 178.587586 
L 247.445582 173.394662 
L 248.882272 168.340673 
L 251.940699 158.377439 
L 253.753869 153.039486 
L 256.306102 146.319765 
L 257.713798 143.037012 
L 259.028915 140.255846 
L 261.101502 136.453798 
L 263.874069 132.521227 
L 266.279153 130.213356 
L 268.20938 129.116746 
L 271.24756 128.762375 
L 273.55355 129.6067 
L 275.763442 131.300791 
L 275.962573 131.495218 
L 278.413442 134.439754 
L 280.258751 137.310755 
L 283.848193 144.404497 
L 285.445681 148.157516 
L 287.599418 153.745996 
L 290.354396 161.692127 
L 292.384524 168.04814 
L 292.803692 169.40732 
L 295.88569 179.821786 
L 297.246646 184.620128 
L 300.670937 197.069543 
L 301.79283 201.226178 
L 305.147497 213.72805 
L 307.211125 221.376333 
L 308.034608 224.399952 
L 310.779673 234.291378 
L 313.636523 244.150879 
L 315.296173 249.609803 
L 316.076276 252.095941 
L 318.445446 259.294794 
L 321.861042 268.612059 
L 324.384171 274.576721 
L 324.542418 274.922709 
L 327.714716 281.115311 
L 330.342685 285.1193 
L 330.896331 285.827078 
L 334.573619 289.290244 
L 335.962094 290.028589 
L 337.646222 290.50051 
L 340.915808 290.091585 
L 342.339462 289.372064 
L 345.349891 286.795187 
L 345.697608 286.407284 
L 349.324794 281.295039 
L 350.079502 279.995968 
L 352.689866 274.91893 
L 355.488576 268.542627 
L 357.999902 262.091663 
L 359.415771 258.186502 
L 361.532018 252.035845 
L 363.927885 244.688724 
L 366.306587 237.080122 
L 366.982445 234.874384 
L 369.667836 225.980338 
L 372.555276 216.307214 
L 374.416875 210.090156 
L 376.842766 202.101244 
L 378.388914 197.11834 
L 380.170434 191.521249 
L 381.765367 186.671065 
L 384.381983 179.113356 
L 387.492128 170.906286 
L 388.023289 169.600257 
L 391.115418 162.614983 
L 393.840797 157.407637 
L 395.563256 154.613228 
L 397.80084 151.589463 
L 399.541987 149.727669 
L 401.655871 148.061375 
L 403.822378 147.041857 
L 404.961597 146.787745 
L 407.831235 147.00965 
L 409.237393 147.565829 
L 412.371251 149.842146 
L 414.365026 152.013133 
L 416.612528 155.103174 
L 419.373952 159.777801 
L 421.374256 163.724172 
L 423.211715 167.728777 
L 424.472625 170.67052 
L 427.32951 177.855958 
L 429.796213 184.557602 
L 431.261408 188.716983 
L 432.925743 193.572406 
L 435.008367 199.799725 
L 437.80385 208.324469 
L 440.154821 215.542612 
L 442.231078 221.879804 
L 444.876153 229.804033 
L 445.786138 232.471708 
L 447.99694 238.785869 
L 450.299358 245.052771 
L 452.386994 250.403678 
L 452.386994 214.962008 
z
" clip-path="url(#p1a300c1cbc)" style="fill: #ffb2df; opacity: 0.5"/>
   </g>
   <g id="patch_6">
    <path d="M 31.736704 214.962008 
L 31.736704 214.962008 
L 34.010997 214.961881 
L 35.203278 214.961321 
L 38.873148 214.94971 
L 39.895461 214.941036 
L 42.970429 214.887138 
L 44.773088 214.826898 
L 45.481918 214.795387 
L 47.892873 214.646563 
L 49.918251 214.460057 
L 52.511049 214.116236 
L 55.906958 213.438995 
L 57.634571 212.974369 
L 59.903851 212.219515 
L 61.559825 211.553254 
L 62.73284 211.016993 
L 66.413715 208.952094 
L 67.420395 208.278271 
L 70.337704 206.037039 
L 72.000674 204.557003 
L 73.300075 203.293224 
L 76.125015 200.208464 
L 78.101024 197.767551 
L 81.300995 193.307259 
L 83.006901 190.670601 
L 84.372001 188.431229 
L 86.233489 185.193862 
L 89.550627 178.912647 
L 90.575787 176.843348 
L 92.200342 173.446048 
L 95.075369 167.099247 
L 96.587821 163.602245 
L 99.060822 157.67609 
L 100.438718 154.274911 
L 103.894556 145.494031 
L 106.77523 137.981028 
L 108.521468 133.381686 
L 109.021034 132.063478 
L 111.870656 124.557663 
L 115.224188 115.856172 
L 115.529148 115.077423 
L 119.415014 105.433186 
L 120.250865 103.441959 
L 123.09503 96.950194 
L 125.238801 92.396415 
L 127.140137 88.643212 
L 129.517524 84.377904 
L 130.13293 83.35791 
L 132.728281 79.470115 
L 134.752783 76.935135 
L 136.506761 75.118615 
L 138.558484 73.467928 
L 140.998528 72.206802 
L 143.994916 71.757514 
L 146.397454 72.310822 
L 148.648984 73.58996 
L 150.363964 75.066249 
L 151.270963 76.02383 
L 154.85762 81.011324 
L 156.025405 83.047119 
L 157.54774 86.001348 
L 161.45511 95.105103 
L 163.530663 100.799095 
L 165.617201 107.091809 
L 167.904317 114.608147 
L 169.267136 119.376234 
L 171.957522 129.373265 
L 172.567965 131.74209 
L 175.595255 143.979111 
L 178.005263 154.229966 
L 178.781004 157.61052 
L 180.982544 167.38274 
L 184.787325 184.724814 
L 186.025196 190.440133 
L 187.451247 197.040502 
L 191.19096 214.28651 
L 191.376129 215.133465 
L 193.768805 225.972194 
L 195.833716 235.118816 
L 198.062872 244.703019 
L 200.500125 254.750743 
L 202.653394 263.179295 
L 206.104438 275.649504 
L 207.359097 279.826963 
L 209.55186 286.625059 
L 212.424123 294.487838 
L 214.258802 298.848564 
L 214.883142 300.209612 
L 218.185911 306.33058 
L 219.479138 308.21861 
L 222.557522 311.524529 
L 224.750378 312.841672 
L 225.680481 313.137296 
L 227.55294 313.256796 
L 229.921777 312.501722 
L 232.360801 310.681248 
L 234.175425 308.655732 
L 237.686629 303.173956 
L 238.068532 302.458076 
L 241.651881 294.667159 
L 242.801761 291.776748 
L 246.181238 282.289196 
L 246.591031 281.045191 
L 248.522476 274.935245 
L 250.933775 266.789028 
L 254.228242 254.889728 
L 255.902822 248.573049 
L 257.177582 243.671979 
L 260.140868 232.062964 
L 261.513439 226.625765 
L 263.621483 218.261616 
L 267.27689 203.910915 
L 267.651206 202.46404 
L 270.856141 190.350596 
L 273.194589 181.914344 
L 274.985942 175.743791 
L 277.732982 166.866055 
L 279.410287 161.840236 
L 280.787318 157.960931 
L 282.795464 152.732346 
L 286.1096 145.307134 
L 287.78915 142.156278 
L 289.318112 139.664252 
L 292.098351 136.084235 
L 294.725103 133.862836 
L 295.272079 133.544576 
L 298.466183 132.687438 
L 301.222394 133.31974 
L 301.778571 133.59999 
L 304.338784 135.539614 
L 305.587913 136.866222 
L 308.769703 141.328392 
L 310.016398 143.483723 
L 312.372096 148.144719 
L 315.076547 154.379624 
L 316.588053 158.240889 
L 319.204094 165.493824 
L 320.800612 170.236893 
L 323.351895 178.239233 
L 325.977914 186.916515 
L 327.59611 192.43218 
L 330.51523 202.594239 
L 331.7934 207.092016 
L 333.504928 213.123938 
L 335.9592 221.724314 
L 338.072068 229.009087 
L 340.009124 235.5306 
L 343.203733 245.822432 
L 345.636261 253.159802 
L 345.6577 253.222244 
L 348.354281 260.729251 
L 350.67751 266.591918 
L 352.263183 270.237424 
L 355.999747 277.574492 
L 357.405288 279.848238 
L 359.49892 282.714546 
L 361.628077 284.970038 
L 362.719302 285.8623 
L 366.722151 287.576323 
L 366.962157 287.60072 
L 369.878488 287.189773 
L 371.764134 286.234464 
L 373.444676 284.935429 
L 376.557092 281.450261 
L 379.229527 277.39308 
L 380.431242 275.26658 
L 382.541034 271.107875 
L 385.211905 265.123992 
L 387.236337 260.10705 
L 388.799651 255.980663 
L 390.168689 252.205766 
L 394.216411 240.32031 
L 395.071081 237.700207 
L 397.758741 229.289199 
L 400.305912 221.169025 
L 402.151353 215.260713 
L 404.395571 208.11647 
L 406.104685 202.749856 
L 408.677077 194.872904 
L 411.134508 187.662006 
L 411.271329 187.271452 
L 414.040615 179.656809 
L 416.24803 174.03607 
L 417.616902 170.778101 
L 421.273844 163.035032 
L 422.767167 160.310892 
L 424.520211 157.461531 
L 428.067062 152.91302 
L 430.106979 151.068421 
L 430.921354 150.493906 
L 433.112587 149.413313 
L 435.914166 149.027827 
L 438.337392 149.595335 
L 439.396345 150.103067 
L 441.0771 151.228162 
L 443.848076 153.916978 
L 445.082854 155.43847 
L 447.394202 158.797177 
L 449.797325 162.956007 
L 452.386994 168.13561 
L 452.386994 214.962008 
z
" clip-path="url(#p1a300c1cbc)" style="fill: #b2f5ff; opacity: 0.5"/>
   </g>
   <g id="patch_7">
    <path d="M 31.736704 214.962008 
L 31.736704 214.962008 
L 33.778304 214.962007 
L 35.069996 214.961999 
L 38.899639 214.961583 
L 40.928686 214.960532 
L 43.222219 214.957532 
L 44.55277 214.954289 
L 46.544288 214.946197 
L 47.60486 214.939732 
L 50.060003 214.916637 
L 53.771034 214.849522 
L 55.124303 214.811349 
L 57.589806 214.716185 
L 59.237817 214.629977 
L 60.699225 214.535235 
L 63.716051 214.273759 
L 65.543658 214.063677 
L 68.47646 213.627019 
L 69.50673 213.440298 
L 72.15224 212.869364 
L 73.926762 212.40422 
L 75.498947 211.930629 
L 77.968329 211.058211 
L 79.595703 210.389558 
L 82.426067 209.031264 
L 85.168232 207.456537 
L 87.34357 206.010185 
L 88.447432 205.205575 
L 91.165658 203.011016 
L 93.372517 200.996415 
L 95.76758 198.563418 
L 97.663253 196.450301 
L 99.538005 194.194309 
L 101.373059 191.824196 
L 103.556275 188.79485 
L 105.19848 186.366582 
L 107.355081 182.984877 
L 110.494595 177.680745 
L 112.031433 174.925861 
L 113.958144 171.332542 
L 115.433869 168.480551 
L 118.750743 161.781538 
L 119.795667 159.596093 
L 122.214027 154.419138 
L 124.842512 148.634498 
L 127.263073 143.200147 
L 128.00189 141.527092 
L 132.113458 132.165585 
L 134.209641 127.407574 
L 134.692956 126.316562 
L 137.358048 120.366759 
L 140.439398 113.693774 
L 141.742078 110.963923 
L 144.148272 106.102162 
L 144.863584 104.708287 
L 148.071307 98.79787 
L 150.397862 94.909698 
L 153.136308 90.833297 
L 154.196187 89.415483 
L 156.101103 87.110137 
L 158.215518 84.940485 
L 161.19104 82.6357 
L 163.179008 81.616694 
L 164.060508 81.304772 
L 167.185791 80.920142 
L 169.783249 81.488462 
L 171.074915 82.080636 
L 173.430583 83.700703 
L 176.279719 86.604421 
L 178.409792 89.454822 
L 178.913146 90.213218 
L 180.852692 93.436979 
L 183.333 98.249355 
L 186.959806 106.640601 
L 188.213847 109.902585 
L 190.22285 115.496928 
L 191.38616 118.936292 
L 195.533818 132.306506 
L 196.87429 136.967861 
L 197.693612 139.891408 
L 201.737111 155.056363 
L 202.971106 159.897018 
L 204.347055 165.391757 
L 208.232674 181.343279 
L 209.184483 185.32198 
L 210.48822 190.799963 
L 213.725817 204.464438 
L 216.074542 214.340682 
L 218.503623 224.42761 
L 219.076917 226.77998 
L 221.291081 235.731127 
L 223.798407 245.547208 
L 226.872959 256.988226 
L 227.373468 258.778216 
L 230.8725 270.634621 
L 233.227494 277.891628 
L 234.026735 280.208686 
L 236.61244 287.160964 
L 238.032372 290.606492 
L 240.172737 295.271873 
L 243.465304 301.142097 
L 245.206097 303.577003 
L 247.562323 306.110597 
L 250.46284 307.999813 
L 250.805109 308.132248 
L 253.003361 308.525394 
L 256.151031 307.713212 
L 256.993897 307.22316 
L 259.395636 305.205797 
L 262.678953 301.000103 
L 264.283764 298.359852 
L 266.33876 294.445672 
L 268.688797 289.274031 
L 271.4161 282.411606 
L 272.724049 278.81903 
L 275.109415 271.812499 
L 277.856194 263.10162 
L 278.229983 261.869326 
L 282.125745 248.478051 
L 283.887183 242.159913 
L 286.02511 234.343148 
L 287.837623 227.635401 
L 290.380997 218.180617 
L 291.670237 213.4013 
L 294.609963 202.633622 
L 294.922467 201.504858 
L 297.460249 192.498198 
L 299.998757 183.849028 
L 302.093129 177.057274 
L 304.969832 168.34219 
L 305.838518 165.867822 
L 307.856079 160.431879 
L 309.897196 155.407563 
L 313.285535 148.221343 
L 315.682046 144.076223 
L 316.365197 143.044119 
L 319.991568 138.719374 
L 320.455995 138.308773 
L 322.423722 136.937116 
L 325.051766 136.042294 
L 327.546573 136.188259 
L 328.820007 136.634536 
L 330.959555 137.94268 
L 334.742344 141.921482 
L 335.751625 143.32964 
L 339.275803 149.323549 
L 339.668826 150.091172 
L 342.586023 156.36545 
L 345.586163 163.790596 
L 347.552126 169.12535 
L 348.797733 172.674624 
L 351.645404 181.212435 
L 352.455429 183.733809 
L 355.189315 192.481334 
L 357.683349 200.695287 
L 359.24103 205.891012 
L 360.924537 211.527973 
L 362.715805 217.515051 
L 365.08162 225.341226 
L 366.976467 231.488722 
L 369.646474 239.877728 
L 372.617838 248.706726 
L 374.288004 253.379131 
L 375.574994 256.816109 
L 378.137449 263.188527 
L 380.672723 268.810876 
L 382.955003 273.23357 
L 385.357945 277.186138 
L 386.292613 278.519256 
L 388.970757 281.680185 
L 390.818491 283.275956 
L 392.656072 284.378302 
L 395.00696 285.075253 
L 398.400738 284.664903 
L 399.504841 284.173322 
L 402.210436 282.240188 
L 404.126918 280.260408 
L 405.139018 279.017073 
L 407.70688 275.273277 
L 410.028187 271.19923 
L 411.295397 268.716678 
L 414.528911 261.626762 
L 416.364895 257.165345 
L 419.154719 249.870196 
L 420.835399 245.219254 
L 422.926534 239.214344 
L 424.339111 235.047188 
L 426.664163 228.04642 
L 429.674622 218.834876 
L 431.252787 213.993252 
L 433.611475 206.809804 
L 435.955182 199.807689 
L 438.468718 192.539498 
L 439.685671 189.137855 
L 442.122448 182.609302 
L 444.784818 175.985173 
L 446.203138 172.705376 
L 447.897103 169.039038 
L 449.410351 166.011064 
L 452.386994 160.789779 
L 452.386994 214.962008 
z
" clip-path="url(#p1a300c1cbc)" style="fill: #fff2b2; opacity: 0.5"/>
   </g>
   <g id="matplotlib.axis_1">
    <g id="xtick_1">
     <g id="line2d_1">
      <defs>
       <path id="mc72cecdff3" d="M 0 0 
L 0 3.5 
" style="stroke: #000000; stroke-width: 0.8"/>
      </defs>
      <g>
       <use xlink:href="#mc72cecdff3" x="31.736704" y="214.962008" style="stroke: #000000; stroke-width: 0.8"/>
      </g>
     </g>
    </g>
    <g id="xtick_2">
     <g id="line2d_2">
      <g>
       <use xlink:href="#mc72cecdff3" x="136.899277" y="214.962008" style="stroke: #000000; stroke-width: 0.8"/>
      </g>
     </g>
     <g id="text_1">
      <!-- 5 -->
      <g transform="translate(133.718027 229.560446)scale(0.1 -0.1)">
       <defs>
        <path id="DejaVuSans-35" d="M 691 4666 
L 3169 4666 
L 3169 4134 
L 1269 4134 
L 1269 2991 
Q 1406 3038 1543 3061 
Q 1681 3084 1819 3084 
Q 2600 3084 3056 2656 
Q 3513 2228 3513 1497 
Q 3513 744 3044 326 
Q 2575 -91 1722 -91 
Q 1428 -91 1123 -41 
Q 819 9 494 109 
L 494 744 
Q 775 591 1075 516 
Q 1375 441 1709 441 
Q 2250 441 2565 725 
Q 2881 1009 2881 1497 
Q 2881 1984 2565 2268 
Q 2250 2553 1709 2553 
Q 1456 2553 1204 2497 
Q 953 2441 691 2322 
L 691 4666 
z
" transform="scale(0.015625)"/>
       </defs>
       <use xlink:href="#DejaVuSans-35"/>
      </g>
     </g>
    </g>
    <g id="xtick_3">
     <g id="line2d_3">
      <g>
       <use xlink:href="#mc72cecdff3" x="242.061849" y="214.962008" style="stroke: #000000; stroke-width: 0.8"/>
      </g>
     </g>
     <g id="text_2">
      <!-- 10 -->
      <g transform="translate(235.699349 229.560446)scale(0.1 -0.1)">
       <defs>
        <path id="DejaVuSans-31" d="M 794 531 
L 1825 531 
L 1825 4091 
L 703 3866 
L 703 4441 
L 1819 4666 
L 2450 4666 
L 2450 531 
L 3481 531 
L 3481 0 
L 794 0 
L 794 531 
z
" transform="scale(0.015625)"/>
        <path id="DejaVuSans-30" d="M 2034 4250 
Q 1547 4250 1301 3770 
Q 1056 3291 1056 2328 
Q 1056 1369 1301 889 
Q 1547 409 2034 409 
Q 2525 409 2770 889 
Q 3016 1369 3016 2328 
Q 3016 3291 2770 3770 
Q 2525 4250 2034 4250 
z
M 2034 4750 
Q 2819 4750 3233 4129 
Q 3647 3509 3647 2328 
Q 3647 1150 3233 529 
Q 2819 -91 2034 -91 
Q 1250 -91 836 529 
Q 422 1150 422 2328 
Q 422 3509 836 4129 
Q 1250 4750 2034 4750 
z
" transform="scale(0.015625)"/>
       </defs>
       <use xlink:href="#DejaVuSans-31"/>
       <use xlink:href="#DejaVuSans-30" x="63.623047"/>
      </g>
     </g>
    </g>
    <g id="xtick_4">
     <g id="line2d_4">
      <g>
       <use xlink:href="#mc72cecdff3" x="347.224422" y="214.962008" style="stroke: #000000; stroke-width: 0.8"/>
      </g>
     </g>
     <g id="text_3">
      <!-- 15 -->
      <g transform="translate(340.861922 229.560446)scale(0.1 -0.1)">
       <use xlink:href="#DejaVuSans-31"/>
       <use xlink:href="#DejaVuSans-35" x="63.623047"/>
      </g>
     </g>
    </g>
    <g id="xtick_5">
     <g id="line2d_5">
      <g>
       <use xlink:href="#mc72cecdff3" x="452.386994" y="214.962008" style="stroke: #000000; stroke-width: 0.8"/>
      </g>
     </g>
     <g id="text_4">
      <!-- 20 -->
      <g transform="translate(446.024494 229.560446)scale(0.1 -0.1)">
       <defs>
        <path id="DejaVuSans-32" d="M 1228 531 
L 3431 531 
L 3431 0 
L 469 0 
L 469 531 
Q 828 903 1448 1529 
Q 2069 2156 2228 2338 
Q 2531 2678 2651 2914 
Q 2772 3150 2772 3378 
Q 2772 3750 2511 3984 
Q 2250 4219 1831 4219 
Q 1534 4219 1204 4116 
Q 875 4013 500 3803 
L 500 4441 
Q 881 4594 1212 4672 
Q 1544 4750 1819 4750 
Q 2544 4750 2975 4387 
Q 3406 4025 3406 3419 
Q 3406 3131 3298 2873 
Q 3191 2616 2906 2266 
Q 2828 2175 2409 1742 
Q 1991 1309 1228 531 
z
" transform="scale(0.015625)"/>
       </defs>
       <use xlink:href="#DejaVuSans-32"/>
       <use xlink:href="#DejaVuSans-30" x="63.623047"/>
      </g>
     </g>
    </g>
    <g id="xtick_6">
     <g id="line2d_6">
      <defs>
       <path id="m3c68729fa3" d="M 0 0 
L 0 2 
" style="stroke: #000000; stroke-width: 0.6"/>
      </defs>
      <g>
       <use xlink:href="#m3c68729fa3" x="52.769219" y="214.962008" style="stroke: #000000; stroke-width: 0.6"/>
      </g>
     </g>
    </g>
    <g id="xtick_7">
     <g id="line2d_7">
      <g>
       <use xlink:href="#m3c68729fa3" x="73.801733" y="214.962008" style="stroke: #000000; stroke-width: 0.6"/>
      </g>
     </g>
    </g>
    <g id="xtick_8">
     <g id="line2d_8">
      <g>
       <use xlink:href="#m3c68729fa3" x="94.834248" y="214.962008" style="stroke: #000000; stroke-width: 0.6"/>
      </g>
     </g>
    </g>
    <g id="xtick_9">
     <g id="line2d_9">
      <g>
       <use xlink:href="#m3c68729fa3" x="115.866762" y="214.962008" style="stroke: #000000; stroke-width: 0.6"/>
      </g>
     </g>
    </g>
    <g id="xtick_10">
     <g id="line2d_10">
      <g>
       <use xlink:href="#m3c68729fa3" x="157.931791" y="214.962008" style="stroke: #000000; stroke-width: 0.6"/>
      </g>
     </g>
    </g>
    <g id="xtick_11">
     <g id="line2d_11">
      <g>
       <use xlink:href="#m3c68729fa3" x="178.964306" y="214.962008" style="stroke: #000000; stroke-width: 0.6"/>
      </g>
     </g>
    </g>
    <g id="xtick_12">
     <g id="line2d_12">
      <g>
       <use xlink:href="#m3c68729fa3" x="199.99682" y="214.962008" style="stroke: #000000; stroke-width: 0.6"/>
      </g>
     </g>
    </g>
    <g id="xtick_13">
     <g id="line2d_13">
      <g>
       <use xlink:href="#m3c68729fa3" x="221.029335" y="214.962008" style="stroke: #000000; stroke-width: 0.6"/>
      </g>
     </g>
    </g>
    <g id="xtick_14">
     <g id="line2d_14">
      <g>
       <use xlink:href="#m3c68729fa3" x="263.094364" y="214.962008" style="stroke: #000000; stroke-width: 0.6"/>
      </g>
     </g>
    </g>
    <g id="xtick_15">
     <g id="line2d_15">
      <g>
       <use xlink:href="#m3c68729fa3" x="284.126878" y="214.962008" style="stroke: #000000; stroke-width: 0.6"/>
      </g>
     </g>
    </g>
    <g id="xtick_16">
     <g id="line2d_16">
      <g>
       <use xlink:href="#m3c68729fa3" x="305.159393" y="214.962008" style="stroke: #000000; stroke-width: 0.6"/>
      </g>
     </g>
    </g>
    <g id="xtick_17">
     <g id="line2d_17">
      <g>
       <use xlink:href="#m3c68729fa3" x="326.191907" y="214.962008" style="stroke: #000000; stroke-width: 0.6"/>
      </g>
     </g>
    </g>
    <g id="xtick_18">
     <g id="line2d_18">
      <g>
       <use xlink:href="#m3c68729fa3" x="368.256936" y="214.962008" style="stroke: #000000; stroke-width: 0.6"/>
      </g>
     </g>
    </g>
    <g id="xtick_19">
     <g id="line2d_19">
      <g>
       <use xlink:href="#m3c68729fa3" x="389.289451" y="214.962008" style="stroke: #000000; stroke-width: 0.6"/>
      </g>
     </g>
    </g>
    <g id="xtick_20">
     <g id="line2d_20">
      <g>
       <use xlink:href="#m3c68729fa3" x="410.321965" y="214.962008" style="stroke: #000000; stroke-width: 0.6"/>
      </g>
     </g>
    </g>
    <g id="xtick_21">
     <g id="line2d_21">
      <g>
       <use xlink:href="#m3c68729fa3" x="431.35448" y="214.962008" style="stroke: #000000; stroke-width: 0.6"/>
      </g>
     </g>
    </g>
   </g>
   <g id="matplotlib.axis_2">
    <g id="ytick_1">
     <g id="line2d_22">
      <defs>
       <path id="mc8f891d9c1" d="M 0 0 
L -3.5 0 
" style="stroke: #000000; stroke-width: 0.8"/>
      </defs>
      <g>
       <use xlink:href="#mc8f891d9c1" x="31.736704" y="286.632727" style="stroke: #000000; stroke-width: 0.8"/>
      </g>
     </g>
     <g id="text_5">
      <!-- −0.2 -->
      <g transform="translate(0.453892 290.431946)scale(0.1 -0.1)">
       <defs>
        <path id="DejaVuSans-2212" d="M 678 2272 
L 4684 2272 
L 4684 1741 
L 678 1741 
L 678 2272 
z
" transform="scale(0.015625)"/>
        <path id="DejaVuSans-2e" d="M 684 794 
L 1344 794 
L 1344 0 
L 684 0 
L 684 794 
z
" transform="scale(0.015625)"/>
       </defs>
       <use xlink:href="#DejaVuSans-2212"/>
       <use xlink:href="#DejaVuSans-30" x="83.789062"/>
       <use xlink:href="#DejaVuSans-2e" x="147.412109"/>
       <use xlink:href="#DejaVuSans-32" x="179.199219"/>
      </g>
     </g>
    </g>
    <g id="ytick_2">
     <g id="line2d_23">
      <g>
       <use xlink:href="#mc8f891d9c1" x="31.736704" y="214.962008" style="stroke: #000000; stroke-width: 0.8"/>
      </g>
     </g>
    </g>
    <g id="ytick_3">
     <g id="line2d_24">
      <g>
       <use xlink:href="#mc8f891d9c1" x="31.736704" y="143.291289" style="stroke: #000000; stroke-width: 0.8"/>
      </g>
     </g>
     <g id="text_6">
      <!-- 0.2 -->
      <g transform="translate(8.833579 147.090508)scale(0.1 -0.1)">
       <use xlink:href="#DejaVuSans-30"/>
       <use xlink:href="#DejaVuSans-2e" x="63.623047"/>
       <use xlink:href="#DejaVuSans-32" x="95.410156"/>
      </g>
     </g>
    </g>
    <g id="ytick_4">
     <g id="line2d_25">
      <g>
       <use xlink:href="#mc8f891d9c1" x="31.736704" y="71.620571" style="stroke: #000000; stroke-width: 0.8"/>
      </g>
     </g>
     <g id="text_7">
      <!-- 0.4 -->
      <g transform="translate(8.833579 75.419789)scale(0.1 -0.1)">
       <defs>
        <path id="DejaVuSans-34" d="M 2419 4116 
L 825 1625 
L 2419 1625 
L 2419 4116 
z
M 2253 4666 
L 3047 4666 
L 3047 1625 
L 3713 1625 
L 3713 1100 
L 3047 1100 
L 3047 0 
L 2419 0 
L 2419 1100 
L 313 1100 
L 313 1709 
L 2253 4666 
z
" transform="scale(0.015625)"/>
       </defs>
       <use xlink:href="#DejaVuSans-30"/>
       <use xlink:href="#DejaVuSans-2e" x="63.623047"/>
       <use xlink:href="#DejaVuSans-34" x="95.410156"/>
      </g>
     </g>
    </g>
    <g id="ytick_5">
     <g id="line2d_26">
      <defs>
       <path id="m0074b88daa" d="M 0 0 
L -2 0 
" style="stroke: #000000; stroke-width: 0.6"/>
      </defs>
      <g>
       <use xlink:href="#m0074b88daa" x="31.736704" y="340.385766" style="stroke: #000000; stroke-width: 0.6"/>
      </g>
     </g>
    </g>
    <g id="ytick_6">
     <g id="line2d_27">
      <g>
       <use xlink:href="#m0074b88daa" x="31.736704" y="322.468087" style="stroke: #000000; stroke-width: 0.6"/>
      </g>
     </g>
    </g>
    <g id="ytick_7">
     <g id="line2d_28">
      <g>
       <use xlink:href="#m0074b88daa" x="31.736704" y="304.550407" style="stroke: #000000; stroke-width: 0.6"/>
      </g>
     </g>
    </g>
    <g id="ytick_8">
     <g id="line2d_29">
      <g>
       <use xlink:href="#m0074b88daa" x="31.736704" y="268.715047" style="stroke: #000000; stroke-width: 0.6"/>
      </g>
     </g>
    </g>
    <g id="ytick_9">
     <g id="line2d_30">
      <g>
       <use xlink:href="#m0074b88daa" x="31.736704" y="250.797368" style="stroke: #000000; stroke-width: 0.6"/>
      </g>
     </g>
    </g>
    <g id="ytick_10">
     <g id="line2d_31">
      <g>
       <use xlink:href="#m0074b88daa" x="31.736704" y="232.879688" style="stroke: #000000; stroke-width: 0.6"/>
      </g>
     </g>
    </g>
    <g id="ytick_11">
     <g id="line2d_32">
      <g>
       <use xlink:href="#m0074b88daa" x="31.736704" y="197.044329" style="stroke: #000000; stroke-width: 0.6"/>
      </g>
     </g>
    </g>
    <g id="ytick_12">
     <g id="line2d_33">
      <g>
       <use xlink:href="#m0074b88daa" x="31.736704" y="179.126649" style="stroke: #000000; stroke-width: 0.6"/>
      </g>
     </g>
    </g>
    <g id="ytick_13">
     <g id="line2d_34">
      <g>
       <use xlink:href="#m0074b88daa" x="31.736704" y="161.208969" style="stroke: #000000; stroke-width: 0.6"/>
      </g>
     </g>
    </g>
    <g id="ytick_14">
     <g id="line2d_35">
      <g>
       <use xlink:href="#m0074b88daa" x="31.736704" y="125.37361" style="stroke: #000000; stroke-width: 0.6"/>
      </g>
     </g>
    </g>
    <g id="ytick_15">
     <g id="line2d_36">
      <g>
       <use xlink:href="#m0074b88daa" x="31.736704" y="107.45593" style="stroke: #000000; stroke-width: 0.6"/>
      </g>
     </g>
    </g>
    <g id="ytick_16">
     <g id="line2d_37">
      <g>
       <use xlink:href="#m0074b88daa" x="31.736704" y="89.53825" style="stroke: #000000; stroke-width: 0.6"/>
      </g>
     </g>
    </g>
    <g id="ytick_17">
     <g id="line2d_38">
      <g>
       <use xlink:href="#m0074b88daa" x="31.736704" y="53.702891" style="stroke: #000000; stroke-width: 0.6"/>
      </g>
     </g>
    </g>
    <g id="ytick_18">
     <g id="line2d_39">
      <g>
       <use xlink:href="#m0074b88daa" x="31.736704" y="35.785211" style="stroke: #000000; stroke-width: 0.6"/>
      </g>
     </g>
    </g>
    <g id="ytick_19">
     <g id="line2d_40">
      <g>
       <use xlink:href="#m0074b88daa" x="31.736704" y="17.867532" style="stroke: #000000; stroke-width: 0.6"/>
      </g>
     </g>
    </g>
   </g>
   <g id="line2d_41">
    <path d="M 31.736704 214.962008 
L 37.940591 162.683565 
L 41.889201 130.967208 
L 46.005946 100.26286 
L 49.673269 75.636186 
L 52.616557 58.117093 
L 54.87934 46.178323 
L 57.856491 32.67385 
L 59.66046 25.780423 
L 60.817657 21.890782 
L 62.808552 16.197112 
L 65.344975 10.812031 
L 66.932487 8.524055 
L 68.519999 7.076131 
L 69.371531 6.646154 
L 71.954691 6.818113 
L 74.554891 9.209649 
L 76.950876 13.337751 
L 77.620479 14.813186 
L 79.350601 19.258651 
L 81.34605 25.485849 
L 83.341498 32.83784 
L 84.916811 39.394851 
L 87.402958 51.004028 
L 90.981646 70.151314 
L 94.39606 90.68765 
L 100.294826 129.961115 
L 107.866549 183.691387 
L 111.02435 205.954431 
L 115.956191 239.208341 
L 117.46381 248.816375 
L 121.615551 273.463406 
L 124.435485 288.410569 
L 125.955486 295.781832 
L 128.664537 307.624878 
L 130.374112 314.195194 
L 132.083687 320.032476 
L 133.183408 323.388943 
L 135.806987 330.102857 
L 137.533523 333.5074 
L 139.415696 336.289283 
L 142.146337 338.593831 
L 144.439408 338.953846 
L 146.474081 338.088163 
L 148.171274 336.532631 
L 149.800006 334.346237 
L 152.421371 329.455466 
L 154.783879 323.674527 
L 156.335071 319.215863 
L 158.473336 312.269357 
L 160.061165 306.554432 
L 164.782434 287.144801 
L 166.395135 279.819304 
L 171.728845 253.830414 
L 184.281887 190.099464 
L 187.116913 176.851688 
L 189.862508 164.88925 
L 191.596875 157.855868 
L 195.260631 144.541211 
L 198.055229 135.961865 
L 200.287757 130.182287 
L 203.377384 123.857454 
L 205.151607 121.137906 
L 206.88452 119.139776 
L 208.454058 117.897166 
L 210.349922 117.117951 
L 212.595579 117.213333 
L 215.754741 119.187698 
L 218.172087 122.106878 
L 220.468968 125.960254 
L 222.433196 130.046746 
L 225.057479 136.56801 
L 226.124602 139.543792 
L 228.436765 146.580112 
L 231.999981 158.816467 
L 236.245336 175.13794 
L 241.170677 195.590048 
L 250.727483 235.863421 
L 256.145816 256.57016 
L 257.033333 259.6895 
L 259.395712 267.535569 
L 261.091431 272.719479 
L 264.920626 282.879304 
L 266.180301 285.71471 
L 268.70121 290.581965 
L 270.186232 292.926869 
L 272.100873 295.360474 
L 273.857958 296.998001 
L 277.413015 298.541076 
L 278.340867 298.552675 
L 281.655045 297.284802 
L 283.088655 296.113014 
L 286.282417 292.19825 
L 288.069481 289.254919 
L 290.532011 284.368974 
L 292.247182 280.433133 
L 295.436313 272.061704 
L 297.796094 265.086578 
L 301.442695 253.237371 
L 307.359274 232.111713 
L 317.886857 193.453661 
L 320.707366 183.851207 
L 324.393796 172.298922 
L 326.987458 165.014285 
L 329.074041 159.741094 
L 331.037349 155.304005 
L 333.226422 150.999771 
L 335.922062 146.689014 
L 339.149309 143.041581 
L 340.303162 142.15055 
L 343.219956 140.885985 
L 345.193149 140.836809 
L 347.553688 141.627624 
L 349.710306 143.145677 
L 351.214179 144.642744 
L 353.225188 147.189609 
L 355.805909 151.330759 
L 356.744063 153.067284 
L 358.356802 156.324684 
L 361.457107 163.483821 
L 365.235305 173.59609 
L 369.086691 185.141637 
L 373.883109 200.670214 
L 384.260737 234.938445 
L 386.768261 242.653382 
L 390.742256 253.92955 
L 392.740519 259.05526 
L 395.718924 265.896754 
L 396.979549 268.477442 
L 398.730991 271.729044 
L 401.704426 276.308539 
L 404.477354 279.452389 
L 407.012627 281.334373 
L 409.07336 282.150202 
L 412.395311 282.107592 
L 414.899234 280.976687 
L 416.964492 279.349204 
L 419.237753 276.855639 
L 420.209396 275.573005 
L 422.644947 271.813311 
L 424.163192 269.094578 
L 426.315584 264.781278 
L 428.124316 260.771842 
L 430.96949 253.832897 
L 436.028868 239.963022 
L 440.683238 226.075185 
L 448.990831 200.792366 
L 452.386994 191.012118 
L 452.386994 191.012118 
" clip-path="url(#p1a300c1cbc)" style="fill: none; stroke: #0000cc; stroke-linecap: square"/>
   </g>
   <g id="line2d_42">
    <path d="M 31.736704 214.962008 
L 34.272094 214.311874 
L 36.052223 213.082773 
L 37.092053 212.073544 
L 39.220878 209.349738 
L 42.390409 203.712594 
L 44.312197 199.420158 
L 47.484839 191.001954 
L 49.707027 184.206215 
L 53.588033 170.817058 
L 56.200466 160.910053 
L 61.332047 140.027654 
L 71.406113 97.89991 
L 74.390525 86.292656 
L 78.359047 72.222831 
L 81.637217 62.129946 
L 85.138416 53.214374 
L 86.183431 50.969908 
L 88.296642 47.062192 
L 91.594592 42.751645 
L 93.338629 41.399489 
L 94.538675 40.854711 
L 96.92014 40.724237 
L 99.231963 41.825416 
L 102.046 44.811542 
L 102.803502 45.923482 
L 105.435688 50.792373 
L 107.993542 56.990322 
L 109.242622 60.526941 
L 111.106176 66.403987 
L 115.675809 83.671294 
L 119.574405 101.262962 
L 123.916855 123.392852 
L 129.785752 156.318265 
L 142.92147 232.983807 
L 148.254709 261.228951 
L 149.611786 267.862491 
L 153.479521 285.237297 
L 156.20882 295.95654 
L 158.262912 303.089648 
L 160.452839 309.750619 
L 162.45198 314.940181 
L 165.956922 321.896016 
L 167.683849 324.291427 
L 169.706105 326.216317 
L 172.013345 327.248043 
L 173.226544 327.294085 
L 175.569671 326.424555 
L 177.533688 324.739251 
L 180.147952 321.18428 
L 180.762838 320.137081 
L 183.996403 313.369841 
L 185.02753 310.785834 
L 189.631232 296.974758 
L 194.508106 278.884443 
L 198.047687 264.058991 
L 204.294071 235.787026 
L 212.896679 196.225195 
L 217.518702 176.556026 
L 220.564659 164.756774 
L 222.727512 157.083158 
L 226.064509 146.570826 
L 228.649612 139.656507 
L 230.535315 135.345156 
L 231.882179 132.66156 
L 235.557436 127.085124 
L 237.705053 125.044039 
L 238.701035 124.407397 
L 241.073331 123.685409 
L 243.691954 124.18268 
L 245.441081 125.261095 
L 246.692157 126.391986 
L 248.744593 128.880836 
L 250.60558 131.796436 
L 252.747232 135.891603 
L 255.764179 142.914096 
L 258.380047 150.081132 
L 261.859645 160.957028 
L 263.593172 166.862678 
L 268.127388 183.482024 
L 272.542188 200.71012 
L 280.182058 230.77819 
L 283.34773 242.594765 
L 287.30892 256.294696 
L 289.846405 264.244068 
L 291.8514 269.984209 
L 293.926789 275.368385 
L 295.810246 279.72536 
L 297.691825 283.543789 
L 301.148467 289.083965 
L 302.368449 290.564712 
L 303.880859 292.047072 
L 307.028783 293.858596 
L 307.748545 294.029246 
L 310.932556 293.698001 
L 312.167526 293.096731 
L 314.799643 290.952557 
L 318.266723 286.401979 
L 322.142858 279.157298 
L 323.097466 277.05161 
L 325.105215 272.243197 
L 328.378811 263.404017 
L 331.499653 254.001481 
L 336.004758 239.182361 
L 342.035655 218.122642 
L 347.861781 197.906764 
L 350.239058 190.047006 
L 355.118395 175.172506 
L 356.417848 171.571286 
L 358.389739 166.448343 
L 361.775655 158.719398 
L 363.452954 155.437336 
L 365.231471 152.381297 
L 367.110089 149.64793 
L 369.521727 146.912718 
L 372.550628 144.749407 
L 374.528595 144.115508 
L 376.12684 144.055225 
L 377.553502 144.3415 
L 381.419767 146.704602 
L 383.257777 148.618602 
L 384.599834 150.325367 
L 387.432005 154.744794 
L 389.09677 157.832207 
L 391.120669 162.038222 
L 394.372027 169.735185 
L 397.232498 177.332839 
L 399.486693 183.767204 
L 404.747684 199.866578 
L 415.691554 234.395743 
L 419.157071 244.47883 
L 421.115776 249.80597 
L 424.334523 257.836203 
L 426.36077 262.361872 
L 429.685077 268.781298 
L 430.798696 270.630699 
L 434.036485 275.088328 
L 435.304385 276.446494 
L 437.401006 278.197396 
L 440.022966 279.501459 
L 442.698736 279.805144 
L 444.028002 279.57019 
L 446.492924 278.463987 
L 447.277336 277.931743 
L 450.989681 274.269991 
L 452.386994 272.420908 
L 452.386994 272.420908 
" clip-path="url(#p1a300c1cbc)" style="fill: none; stroke: #3ccc00; stroke-linecap: square"/>
   </g>
   <g id="line2d_43">
    <path d="M 31.736704 214.962008 
L 36.402568 214.880752 
L 38.386755 214.727501 
L 41.81838 214.151515 
L 44.364692 213.382243 
L 47.019691 212.190972 
L 49.690644 210.525857 
L 51.059089 209.472316 
L 53.993518 206.717316 
L 56.512377 203.781137 
L 60.583162 197.861872 
L 63.370502 192.955451 
L 66.311069 187.03505 
L 69.576564 179.60093 
L 71.630261 174.491478 
L 75.786736 163.237816 
L 79.495406 152.3389 
L 85.987935 132.02721 
L 92.358872 111.804799 
L 97.779838 95.558412 
L 101.356173 85.848832 
L 102.760568 82.331595 
L 105.356518 76.348528 
L 107.324616 72.312544 
L 109.17963 68.944909 
L 112.500365 64.07758 
L 114.420971 61.997184 
L 116.624566 60.31912 
L 118.084857 59.641684 
L 119.992561 59.296167 
L 121.582238 59.486181 
L 125.06774 61.459839 
L 127.340632 63.915274 
L 128.508653 65.537362 
L 132.072023 71.985997 
L 134.069759 76.573017 
L 135.161578 79.367488 
L 138.108648 87.891267 
L 140.996781 97.56432 
L 145.789855 116.209455 
L 148.199442 126.646657 
L 151.619759 142.462015 
L 157.707238 172.686323 
L 168.168762 226.241058 
L 172.436346 246.857207 
L 174.965858 258.336945 
L 178.810661 274.40347 
L 182.919933 289.342233 
L 185.885603 298.461321 
L 188.095474 304.260686 
L 189.436375 307.343226 
L 192.808627 313.576616 
L 195.204895 316.643001 
L 196.445755 317.776415 
L 198.644333 319.016366 
L 200.217312 319.299686 
L 202.14194 318.964062 
L 205.103506 317.000718 
L 207.919376 313.552042 
L 209.642013 310.711419 
L 211.754784 306.504567 
L 213.459557 302.556895 
L 214.666485 299.478336 
L 218.523608 288.189634 
L 221.369323 278.605934 
L 223.738188 269.946447 
L 225.907974 261.563263 
L 231.342073 239.229135 
L 242.083413 193.954443 
L 247.445582 173.394662 
L 248.882272 168.340673 
L 251.940699 158.377439 
L 253.753869 153.039486 
L 256.306102 146.319765 
L 257.713798 143.037012 
L 259.028915 140.255846 
L 261.101502 136.453798 
L 263.874069 132.521227 
L 266.279153 130.213356 
L 268.20938 129.116746 
L 271.24756 128.762375 
L 273.55355 129.6067 
L 275.962573 131.495218 
L 278.413442 134.439754 
L 280.258751 137.310755 
L 283.848193 144.404497 
L 285.445681 148.157516 
L 287.599418 153.745996 
L 290.354396 161.692127 
L 292.803692 169.40732 
L 297.246646 184.620128 
L 305.147497 213.72805 
L 310.779673 234.291378 
L 315.296173 249.609803 
L 318.445446 259.294794 
L 321.861042 268.612059 
L 324.542418 274.922709 
L 327.714716 281.115311 
L 330.896331 285.827078 
L 334.573619 289.290244 
L 335.962094 290.028589 
L 337.646222 290.50051 
L 340.915808 290.091585 
L 342.339462 289.372064 
L 345.697608 286.407284 
L 349.324794 281.295039 
L 350.079502 279.995968 
L 352.689866 274.91893 
L 355.488576 268.542627 
L 359.415771 258.186502 
L 361.532018 252.035845 
L 366.306587 237.080122 
L 369.667836 225.980338 
L 378.388914 197.11834 
L 381.765367 186.671065 
L 384.381983 179.113356 
L 388.023289 169.600257 
L 391.115418 162.614983 
L 393.840797 157.407637 
L 395.563256 154.613228 
L 397.80084 151.589463 
L 399.541987 149.727669 
L 401.655871 148.061375 
L 403.822378 147.041857 
L 404.961597 146.787745 
L 407.831235 147.00965 
L 409.237393 147.565829 
L 412.371251 149.842146 
L 414.365026 152.013133 
L 416.612528 155.103174 
L 419.373952 159.777801 
L 421.374256 163.724172 
L 424.472625 170.67052 
L 427.32951 177.855958 
L 431.261408 188.716983 
L 435.008367 199.799725 
L 445.786138 232.471708 
L 450.299358 245.052771 
L 452.386994 250.403678 
L 452.386994 250.403678 
" clip-path="url(#p1a300c1cbc)" style="fill: none; stroke: #cc0077; stroke-linecap: square"/>
   </g>
   <g id="line2d_44">
    <path d="M 31.736704 214.962008 
L 42.970429 214.887138 
L 47.892873 214.646563 
L 52.511049 214.116236 
L 55.906958 213.438995 
L 57.634571 212.974369 
L 61.559825 211.553254 
L 62.73284 211.016993 
L 67.420395 208.278271 
L 70.337704 206.037039 
L 73.300075 203.293224 
L 76.125015 200.208464 
L 78.101024 197.767551 
L 81.300995 193.307259 
L 84.372001 188.431229 
L 86.233489 185.193862 
L 90.575787 176.843348 
L 92.200342 173.446048 
L 96.587821 163.602245 
L 100.438718 154.274911 
L 106.77523 137.981028 
L 115.529148 115.077423 
L 120.250865 103.441959 
L 123.09503 96.950194 
L 125.238801 92.396415 
L 127.140137 88.643212 
L 130.13293 83.35791 
L 132.728281 79.470115 
L 134.752783 76.935135 
L 136.506761 75.118615 
L 138.558484 73.467928 
L 140.998528 72.206802 
L 143.994916 71.757514 
L 146.397454 72.310822 
L 148.648984 73.58996 
L 150.363964 75.066249 
L 151.270963 76.02383 
L 154.85762 81.011324 
L 156.025405 83.047119 
L 157.54774 86.001348 
L 161.45511 95.105103 
L 163.530663 100.799095 
L 165.617201 107.091809 
L 169.267136 119.376234 
L 172.567965 131.74209 
L 175.595255 143.979111 
L 178.781004 157.61052 
L 184.787325 184.724814 
L 193.768805 225.972194 
L 198.062872 244.703019 
L 202.653394 263.179295 
L 207.359097 279.826963 
L 209.55186 286.625059 
L 212.424123 294.487838 
L 214.883142 300.209612 
L 218.185911 306.33058 
L 219.479138 308.21861 
L 222.557522 311.524529 
L 224.750378 312.841672 
L 225.680481 313.137296 
L 227.55294 313.256796 
L 229.921777 312.501722 
L 232.360801 310.681248 
L 234.175425 308.655732 
L 238.068532 302.458076 
L 241.651881 294.667159 
L 242.801761 291.776748 
L 246.591031 281.045191 
L 248.522476 274.935245 
L 250.933775 266.789028 
L 255.902822 248.573049 
L 261.513439 226.625765 
L 267.651206 202.46404 
L 273.194589 181.914344 
L 274.985942 175.743791 
L 277.732982 166.866055 
L 280.787318 157.960931 
L 282.795464 152.732346 
L 286.1096 145.307134 
L 287.78915 142.156278 
L 289.318112 139.664252 
L 292.098351 136.084235 
L 295.272079 133.544576 
L 298.466183 132.687438 
L 301.222394 133.31974 
L 301.778571 133.59999 
L 304.338784 135.539614 
L 305.587913 136.866222 
L 308.769703 141.328392 
L 310.016398 143.483723 
L 312.372096 148.144719 
L 315.076547 154.379624 
L 316.588053 158.240889 
L 320.800612 170.236893 
L 323.351895 178.239233 
L 327.59611 192.43218 
L 340.009124 235.5306 
L 343.203733 245.822432 
L 345.6577 253.222244 
L 348.354281 260.729251 
L 350.67751 266.591918 
L 352.263183 270.237424 
L 355.999747 277.574492 
L 357.405288 279.848238 
L 359.49892 282.714546 
L 361.628077 284.970038 
L 362.719302 285.8623 
L 366.962157 287.60072 
L 369.878488 287.189773 
L 371.764134 286.234464 
L 373.444676 284.935429 
L 376.557092 281.450261 
L 379.229527 277.39308 
L 380.431242 275.26658 
L 382.541034 271.107875 
L 385.211905 265.123992 
L 388.799651 255.980663 
L 390.168689 252.205766 
L 395.071081 237.700207 
L 402.151353 215.260713 
L 406.104685 202.749856 
L 411.271329 187.271452 
L 414.040615 179.656809 
L 417.616902 170.778101 
L 421.273844 163.035032 
L 422.767167 160.310892 
L 424.520211 157.461531 
L 428.067062 152.91302 
L 430.106979 151.068421 
L 430.921354 150.493906 
L 433.112587 149.413313 
L 435.914166 149.027827 
L 438.337392 149.595335 
L 439.396345 150.103067 
L 441.0771 151.228162 
L 443.848076 153.916978 
L 445.082854 155.43847 
L 447.394202 158.797177 
L 449.797325 162.956007 
L 452.386994 168.13561 
L 452.386994 168.13561 
" clip-path="url(#p1a300c1cbc)" style="fill: none; stroke: #00b3cc; stroke-linecap: square"/>
   </g>
   <g id="line2d_45">
    <path d="M 31.736704 214.962008 
L 50.060003 214.916637 
L 57.589806 214.716185 
L 60.699225 214.535235 
L 65.543658 214.063677 
L 69.50673 213.440298 
L 73.926762 212.40422 
L 75.498947 211.930629 
L 79.595703 210.389558 
L 82.426067 209.031264 
L 85.168232 207.456537 
L 88.447432 205.205575 
L 91.165658 203.011016 
L 93.372517 200.996415 
L 95.76758 198.563418 
L 99.538005 194.194309 
L 101.373059 191.824196 
L 105.19848 186.366582 
L 107.355081 182.984877 
L 112.031433 174.925861 
L 115.433869 168.480551 
L 119.795667 159.596093 
L 124.842512 148.634498 
L 141.742078 110.963923 
L 144.863584 104.708287 
L 148.071307 98.79787 
L 150.397862 94.909698 
L 154.196187 89.415483 
L 156.101103 87.110137 
L 158.215518 84.940485 
L 161.19104 82.6357 
L 163.179008 81.616694 
L 164.060508 81.304772 
L 167.185791 80.920142 
L 169.783249 81.488462 
L 171.074915 82.080636 
L 173.430583 83.700703 
L 176.279719 86.604421 
L 178.913146 90.213218 
L 180.852692 93.436979 
L 183.333 98.249355 
L 186.959806 106.640601 
L 188.213847 109.902585 
L 191.38616 118.936292 
L 196.87429 136.967861 
L 197.693612 139.891408 
L 202.971106 159.897018 
L 208.232674 181.343279 
L 221.291081 235.731127 
L 223.798407 245.547208 
L 227.373468 258.778216 
L 230.8725 270.634621 
L 234.026735 280.208686 
L 236.61244 287.160964 
L 238.032372 290.606492 
L 240.172737 295.271873 
L 243.465304 301.142097 
L 245.206097 303.577003 
L 247.562323 306.110597 
L 250.805109 308.132248 
L 253.003361 308.525394 
L 256.151031 307.713212 
L 256.993897 307.22316 
L 259.395636 305.205797 
L 262.678953 301.000103 
L 264.283764 298.359852 
L 266.33876 294.445672 
L 268.688797 289.274031 
L 271.4161 282.411606 
L 272.724049 278.81903 
L 275.109415 271.812499 
L 278.229983 261.869326 
L 283.887183 242.159913 
L 297.460249 192.498198 
L 302.093129 177.057274 
L 305.838518 165.867822 
L 307.856079 160.431879 
L 309.897196 155.407563 
L 313.285535 148.221343 
L 316.365197 143.044119 
L 320.455995 138.308773 
L 322.423722 136.937116 
L 325.051766 136.042294 
L 327.546573 136.188259 
L 328.820007 136.634536 
L 330.959555 137.94268 
L 334.742344 141.921482 
L 335.751625 143.32964 
L 339.668826 150.091172 
L 342.586023 156.36545 
L 345.586163 163.790596 
L 348.797733 172.674624 
L 352.455429 183.733809 
L 357.683349 200.695287 
L 366.976467 231.488722 
L 369.646474 239.877728 
L 374.288004 253.379131 
L 375.574994 256.816109 
L 378.137449 263.188527 
L 380.672723 268.810876 
L 382.955003 273.23357 
L 386.292613 278.519256 
L 388.970757 281.680185 
L 390.818491 283.275956 
L 392.656072 284.378302 
L 395.00696 285.075253 
L 398.400738 284.664903 
L 399.504841 284.173322 
L 402.210436 282.240188 
L 404.126918 280.260408 
L 405.139018 279.017073 
L 407.70688 275.273277 
L 410.028187 271.19923 
L 411.295397 268.716678 
L 414.528911 261.626762 
L 416.364895 257.165345 
L 420.835399 245.219254 
L 424.339111 235.047188 
L 439.685671 189.137855 
L 442.122448 182.609302 
L 446.203138 172.705376 
L 449.410351 166.011064 
L 452.386994 160.789779 
L 452.386994 160.789779 
" clip-path="url(#p1a300c1cbc)" style="fill: none; stroke: #ccaa00; stroke-linecap: square"/>
   </g>
   <g id="patch_8">
    <path d="M 31.736704 345.6 
L 31.736704 -0 
" style="fill: none; stroke: #000000; stroke-width: 0.8; stroke-linejoin: miter; stroke-linecap: square"/>
   </g>
   <g id="patch_9">
    <path d="M 23.323698 214.962008 
L 460.8 214.962008 
" style="fill: none; stroke: #000000; stroke-width: 0.8; stroke-linejoin: miter; stroke-linecap: square"/>
   </g>
  </g>
 </g>
 <defs>
  <clipPath id="p1a300c1cbc">
   <rect x="23.323698" y="0" width="437.476302" height="345.6"/>
  </clipPath>
 </defs>
</svg>
