<?xml version="1.0" encoding="utf-8" standalone="no"?>
<!DOCTYPE svg PUBLIC "-//W3C//DTD SVG 1.1//EN"
  "http://www.w3.org/Graphics/SVG/1.1/DTD/svg11.dtd">
<!-- Created with matplotlib (http://matplotlib.org/) -->
<svg height="345.6pt" version="1.1" viewBox="0 0 460.8 345.6" width="460.8pt" xmlns="http://www.w3.org/2000/svg" xmlns:xlink="http://www.w3.org/1999/xlink">
 <defs>
  <style type="text/css">
*{stroke-linecap:butt;stroke-linejoin:round;}
  </style>
 </defs>
 <g id="figure_1">
  <g id="patch_1">
   <path d="M 0 345.6 
L 460.8 345.6 
L 460.8 0 
L 0 0 
z
" style="fill:#ffffff;"/>
  </g>
  <g id="axes_1">
   <g id="patch_2">
    <path d="M 51.449523 343.08 
L 409.350477 343.08 
L 409.350477 2.52 
L 51.449523 2.52 
z
" style="fill:#ffffff;"/>
   </g>
   <g id="matplotlib.axis_1">
    <g id="xtick_1">
     <g id="line2d_1">
      <defs>
       <path d="M 0 0 
L 0 3.5 
" id="m6832c72665" style="stroke:#000000;stroke-width:0.8;"/>
      </defs>
      <g>
       <use style="stroke:#000000;stroke-width:0.8;" x="72.77784" xlink:href="#m6832c72665" y="160.281654"/>
      </g>
     </g>
     <g id="text_1">
      <!-- -2 -->
      <defs>
       <path d="M 4.890625 31.390625 
L 31.203125 31.390625 
L 31.203125 23.390625 
L 4.890625 23.390625 
z
" id="DejaVuSans-2d"/>
       <path d="M 19.1875 8.296875 
L 53.609375 8.296875 
L 53.609375 0 
L 7.328125 0 
L 7.328125 8.296875 
Q 12.9375 14.109375 22.625 23.890625 
Q 32.328125 33.6875 34.8125 36.53125 
Q 39.546875 41.84375 41.421875 45.53125 
Q 43.3125 49.21875 43.3125 52.78125 
Q 43.3125 58.59375 39.234375 62.25 
Q 35.15625 65.921875 28.609375 65.921875 
Q 23.96875 65.921875 18.8125 64.3125 
Q 13.671875 62.703125 7.8125 59.421875 
L 7.8125 69.390625 
Q 13.765625 71.78125 18.9375 73 
Q 24.125 74.21875 28.421875 74.21875 
Q 39.75 74.21875 46.484375 68.546875 
Q 53.21875 62.890625 53.21875 53.421875 
Q 53.21875 48.921875 51.53125 44.890625 
Q 49.859375 40.875 45.40625 35.40625 
Q 44.1875 33.984375 37.640625 27.21875 
Q 31.109375 20.453125 19.1875 8.296875 
z
" id="DejaVuSans-32"/>
      </defs>
      <g transform="translate(67.792684 174.880092)scale(0.1 -0.1)">
       <use xlink:href="#DejaVuSans-2d"/>
       <use x="36.083984" xlink:href="#DejaVuSans-32"/>
      </g>
     </g>
    </g>
    <g id="xtick_2">
     <g id="line2d_2">
      <g>
       <use style="stroke:#000000;stroke-width:0.8;" x="146.28883" xlink:href="#m6832c72665" y="160.281654"/>
      </g>
     </g>
     <g id="text_2">
      <!-- -1 -->
      <defs>
       <path d="M 12.40625 8.296875 
L 28.515625 8.296875 
L 28.515625 63.921875 
L 10.984375 60.40625 
L 10.984375 69.390625 
L 28.421875 72.90625 
L 38.28125 72.90625 
L 38.28125 8.296875 
L 54.390625 8.296875 
L 54.390625 0 
L 12.40625 0 
z
" id="DejaVuSans-31"/>
      </defs>
      <g transform="translate(141.303673 174.880092)scale(0.1 -0.1)">
       <use xlink:href="#DejaVuSans-2d"/>
       <use x="36.083984" xlink:href="#DejaVuSans-31"/>
      </g>
     </g>
    </g>
    <g id="xtick_3">
     <g id="line2d_3">
      <g>
       <use style="stroke:#000000;stroke-width:0.8;" x="219.799819" xlink:href="#m6832c72665" y="160.281654"/>
      </g>
     </g>
    </g>
    <g id="xtick_4">
     <g id="line2d_4">
      <g>
       <use style="stroke:#000000;stroke-width:0.8;" x="293.310809" xlink:href="#m6832c72665" y="160.281654"/>
      </g>
     </g>
     <g id="text_3">
      <!-- 1 -->
      <g transform="translate(290.129559 174.880092)scale(0.1 -0.1)">
       <use xlink:href="#DejaVuSans-31"/>
      </g>
     </g>
    </g>
    <g id="xtick_5">
     <g id="line2d_5">
      <g>
       <use style="stroke:#000000;stroke-width:0.8;" x="366.821799" xlink:href="#m6832c72665" y="160.281654"/>
      </g>
     </g>
     <g id="text_4">
      <!-- 2 -->
      <g transform="translate(363.640549 174.880092)scale(0.1 -0.1)">
       <use xlink:href="#DejaVuSans-32"/>
      </g>
     </g>
    </g>
    <g id="xtick_6">
     <g id="line2d_6">
      <defs>
       <path d="M 0 0 
L 0 2 
" id="m67ccc85954" style="stroke:#000000;stroke-width:0.6;"/>
      </defs>
      <g>
       <use style="stroke:#000000;stroke-width:0.6;" x="58.075642" xlink:href="#m67ccc85954" y="160.281654"/>
      </g>
     </g>
    </g>
    <g id="xtick_7">
     <g id="line2d_7">
      <g>
       <use style="stroke:#000000;stroke-width:0.6;" x="87.480038" xlink:href="#m67ccc85954" y="160.281654"/>
      </g>
     </g>
    </g>
    <g id="xtick_8">
     <g id="line2d_8">
      <g>
       <use style="stroke:#000000;stroke-width:0.6;" x="102.182236" xlink:href="#m67ccc85954" y="160.281654"/>
      </g>
     </g>
    </g>
    <g id="xtick_9">
     <g id="line2d_9">
      <g>
       <use style="stroke:#000000;stroke-width:0.6;" x="116.884434" xlink:href="#m67ccc85954" y="160.281654"/>
      </g>
     </g>
    </g>
    <g id="xtick_10">
     <g id="line2d_10">
      <g>
       <use style="stroke:#000000;stroke-width:0.6;" x="131.586632" xlink:href="#m67ccc85954" y="160.281654"/>
      </g>
     </g>
    </g>
    <g id="xtick_11">
     <g id="line2d_11">
      <g>
       <use style="stroke:#000000;stroke-width:0.6;" x="146.28883" xlink:href="#m67ccc85954" y="160.281654"/>
      </g>
     </g>
    </g>
    <g id="xtick_12">
     <g id="line2d_12">
      <g>
       <use style="stroke:#000000;stroke-width:0.6;" x="160.991028" xlink:href="#m67ccc85954" y="160.281654"/>
      </g>
     </g>
    </g>
    <g id="xtick_13">
     <g id="line2d_13">
      <g>
       <use style="stroke:#000000;stroke-width:0.6;" x="175.693225" xlink:href="#m67ccc85954" y="160.281654"/>
      </g>
     </g>
    </g>
    <g id="xtick_14">
     <g id="line2d_14">
      <g>
       <use style="stroke:#000000;stroke-width:0.6;" x="190.395423" xlink:href="#m67ccc85954" y="160.281654"/>
      </g>
     </g>
    </g>
    <g id="xtick_15">
     <g id="line2d_15">
      <g>
       <use style="stroke:#000000;stroke-width:0.6;" x="205.097621" xlink:href="#m67ccc85954" y="160.281654"/>
      </g>
     </g>
    </g>
    <g id="xtick_16">
     <g id="line2d_16">
      <g>
       <use style="stroke:#000000;stroke-width:0.6;" x="219.799819" xlink:href="#m67ccc85954" y="160.281654"/>
      </g>
     </g>
    </g>
    <g id="xtick_17">
     <g id="line2d_17">
      <g>
       <use style="stroke:#000000;stroke-width:0.6;" x="234.502017" xlink:href="#m67ccc85954" y="160.281654"/>
      </g>
     </g>
    </g>
    <g id="xtick_18">
     <g id="line2d_18">
      <g>
       <use style="stroke:#000000;stroke-width:0.6;" x="249.204215" xlink:href="#m67ccc85954" y="160.281654"/>
      </g>
     </g>
    </g>
    <g id="xtick_19">
     <g id="line2d_19">
      <g>
       <use style="stroke:#000000;stroke-width:0.6;" x="263.906413" xlink:href="#m67ccc85954" y="160.281654"/>
      </g>
     </g>
    </g>
    <g id="xtick_20">
     <g id="line2d_20">
      <g>
       <use style="stroke:#000000;stroke-width:0.6;" x="278.608611" xlink:href="#m67ccc85954" y="160.281654"/>
      </g>
     </g>
    </g>
    <g id="xtick_21">
     <g id="line2d_21">
      <g>
       <use style="stroke:#000000;stroke-width:0.6;" x="293.310809" xlink:href="#m67ccc85954" y="160.281654"/>
      </g>
     </g>
    </g>
    <g id="xtick_22">
     <g id="line2d_22">
      <g>
       <use style="stroke:#000000;stroke-width:0.6;" x="308.013007" xlink:href="#m67ccc85954" y="160.281654"/>
      </g>
     </g>
    </g>
    <g id="xtick_23">
     <g id="line2d_23">
      <g>
       <use style="stroke:#000000;stroke-width:0.6;" x="322.715205" xlink:href="#m67ccc85954" y="160.281654"/>
      </g>
     </g>
    </g>
    <g id="xtick_24">
     <g id="line2d_24">
      <g>
       <use style="stroke:#000000;stroke-width:0.6;" x="337.417403" xlink:href="#m67ccc85954" y="160.281654"/>
      </g>
     </g>
    </g>
    <g id="xtick_25">
     <g id="line2d_25">
      <g>
       <use style="stroke:#000000;stroke-width:0.6;" x="352.119601" xlink:href="#m67ccc85954" y="160.281654"/>
      </g>
     </g>
    </g>
    <g id="xtick_26">
     <g id="line2d_26">
      <g>
       <use style="stroke:#000000;stroke-width:0.6;" x="366.821799" xlink:href="#m67ccc85954" y="160.281654"/>
      </g>
     </g>
    </g>
    <g id="xtick_27">
     <g id="line2d_27">
      <g>
       <use style="stroke:#000000;stroke-width:0.6;" x="381.523997" xlink:href="#m67ccc85954" y="160.281654"/>
      </g>
     </g>
    </g>
    <g id="xtick_28">
     <g id="line2d_28">
      <g>
       <use style="stroke:#000000;stroke-width:0.6;" x="396.226195" xlink:href="#m67ccc85954" y="160.281654"/>
      </g>
     </g>
    </g>
   </g>
   <g id="matplotlib.axis_2">
    <g id="ytick_1">
     <g id="line2d_29">
      <defs>
       <path d="M 0 0 
L -3.5 0 
" id="m36b2c1ed0d" style="stroke:#000000;stroke-width:0.8;"/>
      </defs>
      <g>
       <use style="stroke:#000000;stroke-width:0.8;" x="219.799819" xlink:href="#m36b2c1ed0d" y="307.303634"/>
      </g>
     </g>
     <g id="text_5">
      <!-- -2 -->
      <g transform="translate(202.829507 311.102853)scale(0.1 -0.1)">
       <use xlink:href="#DejaVuSans-2d"/>
       <use x="36.083984" xlink:href="#DejaVuSans-32"/>
      </g>
     </g>
    </g>
    <g id="ytick_2">
     <g id="line2d_30">
      <g>
       <use style="stroke:#000000;stroke-width:0.8;" x="219.799819" xlink:href="#m36b2c1ed0d" y="233.792644"/>
      </g>
     </g>
     <g id="text_6">
      <!-- -1 -->
      <g transform="translate(202.829507 237.591863)scale(0.1 -0.1)">
       <use xlink:href="#DejaVuSans-2d"/>
       <use x="36.083984" xlink:href="#DejaVuSans-31"/>
      </g>
     </g>
    </g>
    <g id="ytick_3">
     <g id="line2d_31">
      <g>
       <use style="stroke:#000000;stroke-width:0.8;" x="219.799819" xlink:href="#m36b2c1ed0d" y="160.281654"/>
      </g>
     </g>
    </g>
    <g id="ytick_4">
     <g id="line2d_32">
      <g>
       <use style="stroke:#000000;stroke-width:0.8;" x="219.799819" xlink:href="#m36b2c1ed0d" y="86.770665"/>
      </g>
     </g>
     <g id="text_7">
      <!-- 1 -->
      <g transform="translate(206.437319 90.569884)scale(0.1 -0.1)">
       <use xlink:href="#DejaVuSans-31"/>
      </g>
     </g>
    </g>
    <g id="ytick_5">
     <g id="line2d_33">
      <g>
       <use style="stroke:#000000;stroke-width:0.8;" x="219.799819" xlink:href="#m36b2c1ed0d" y="13.259675"/>
      </g>
     </g>
     <g id="text_8">
      <!-- 2 -->
      <g transform="translate(206.437319 17.058894)scale(0.1 -0.1)">
       <use xlink:href="#DejaVuSans-32"/>
      </g>
     </g>
    </g>
    <g id="ytick_6">
     <g id="line2d_34">
      <defs>
       <path d="M 0 0 
L -2 0 
" id="m996d6bee8d" style="stroke:#000000;stroke-width:0.6;"/>
      </defs>
      <g>
       <use style="stroke:#000000;stroke-width:0.6;" x="219.799819" xlink:href="#m996d6bee8d" y="336.70803"/>
      </g>
     </g>
    </g>
    <g id="ytick_7">
     <g id="line2d_35">
      <g>
       <use style="stroke:#000000;stroke-width:0.6;" x="219.799819" xlink:href="#m996d6bee8d" y="322.005832"/>
      </g>
     </g>
    </g>
    <g id="ytick_8">
     <g id="line2d_36">
      <g>
       <use style="stroke:#000000;stroke-width:0.6;" x="219.799819" xlink:href="#m996d6bee8d" y="292.601436"/>
      </g>
     </g>
    </g>
    <g id="ytick_9">
     <g id="line2d_37">
      <g>
       <use style="stroke:#000000;stroke-width:0.6;" x="219.799819" xlink:href="#m996d6bee8d" y="277.899238"/>
      </g>
     </g>
    </g>
    <g id="ytick_10">
     <g id="line2d_38">
      <g>
       <use style="stroke:#000000;stroke-width:0.6;" x="219.799819" xlink:href="#m996d6bee8d" y="263.19704"/>
      </g>
     </g>
    </g>
    <g id="ytick_11">
     <g id="line2d_39">
      <g>
       <use style="stroke:#000000;stroke-width:0.6;" x="219.799819" xlink:href="#m996d6bee8d" y="248.494842"/>
      </g>
     </g>
    </g>
    <g id="ytick_12">
     <g id="line2d_40">
      <g>
       <use style="stroke:#000000;stroke-width:0.6;" x="219.799819" xlink:href="#m996d6bee8d" y="233.792644"/>
      </g>
     </g>
    </g>
    <g id="ytick_13">
     <g id="line2d_41">
      <g>
       <use style="stroke:#000000;stroke-width:0.6;" x="219.799819" xlink:href="#m996d6bee8d" y="219.090446"/>
      </g>
     </g>
    </g>
    <g id="ytick_14">
     <g id="line2d_42">
      <g>
       <use style="stroke:#000000;stroke-width:0.6;" x="219.799819" xlink:href="#m996d6bee8d" y="204.388248"/>
      </g>
     </g>
    </g>
    <g id="ytick_15">
     <g id="line2d_43">
      <g>
       <use style="stroke:#000000;stroke-width:0.6;" x="219.799819" xlink:href="#m996d6bee8d" y="189.68605"/>
      </g>
     </g>
    </g>
    <g id="ytick_16">
     <g id="line2d_44">
      <g>
       <use style="stroke:#000000;stroke-width:0.6;" x="219.799819" xlink:href="#m996d6bee8d" y="174.983852"/>
      </g>
     </g>
    </g>
    <g id="ytick_17">
     <g id="line2d_45">
      <g>
       <use style="stroke:#000000;stroke-width:0.6;" x="219.799819" xlink:href="#m996d6bee8d" y="160.281654"/>
      </g>
     </g>
    </g>
    <g id="ytick_18">
     <g id="line2d_46">
      <g>
       <use style="stroke:#000000;stroke-width:0.6;" x="219.799819" xlink:href="#m996d6bee8d" y="145.579457"/>
      </g>
     </g>
    </g>
    <g id="ytick_19">
     <g id="line2d_47">
      <g>
       <use style="stroke:#000000;stroke-width:0.6;" x="219.799819" xlink:href="#m996d6bee8d" y="130.877259"/>
      </g>
     </g>
    </g>
    <g id="ytick_20">
     <g id="line2d_48">
      <g>
       <use style="stroke:#000000;stroke-width:0.6;" x="219.799819" xlink:href="#m996d6bee8d" y="116.175061"/>
      </g>
     </g>
    </g>
    <g id="ytick_21">
     <g id="line2d_49">
      <g>
       <use style="stroke:#000000;stroke-width:0.6;" x="219.799819" xlink:href="#m996d6bee8d" y="101.472863"/>
      </g>
     </g>
    </g>
    <g id="ytick_22">
     <g id="line2d_50">
      <g>
       <use style="stroke:#000000;stroke-width:0.6;" x="219.799819" xlink:href="#m996d6bee8d" y="86.770665"/>
      </g>
     </g>
    </g>
    <g id="ytick_23">
     <g id="line2d_51">
      <g>
       <use style="stroke:#000000;stroke-width:0.6;" x="219.799819" xlink:href="#m996d6bee8d" y="72.068467"/>
      </g>
     </g>
    </g>
    <g id="ytick_24">
     <g id="line2d_52">
      <g>
       <use style="stroke:#000000;stroke-width:0.6;" x="219.799819" xlink:href="#m996d6bee8d" y="57.366269"/>
      </g>
     </g>
    </g>
    <g id="ytick_25">
     <g id="line2d_53">
      <g>
       <use style="stroke:#000000;stroke-width:0.6;" x="219.799819" xlink:href="#m996d6bee8d" y="42.664071"/>
      </g>
     </g>
    </g>
    <g id="ytick_26">
     <g id="line2d_54">
      <g>
       <use style="stroke:#000000;stroke-width:0.6;" x="219.799819" xlink:href="#m996d6bee8d" y="27.961873"/>
      </g>
     </g>
    </g>
    <g id="ytick_27">
     <g id="line2d_55">
      <g>
       <use style="stroke:#000000;stroke-width:0.6;" x="219.799819" xlink:href="#m996d6bee8d" y="13.259675"/>
      </g>
     </g>
    </g>
   </g>
   <g id="line2d_56">
    <path clip-path="url(#p6d77b2bc3f)" d="M 219.799819 160.281654 
L 219.799819 160.281654 
L 219.799819 160.281654 
L 219.799819 160.281654 
L 219.799819 160.281654 
L 219.799819 160.281654 
L 219.799819 160.281654 
L 219.799819 160.281654 
L 219.799819 160.281654 
L 219.799819 160.281654 
L 219.799819 160.281654 
L 219.799819 160.281654 
L 219.799819 160.281654 
L 219.799819 160.281654 
L 219.799819 160.281654 
L 219.799819 160.281654 
L 219.799819 160.281654 
L 219.799819 160.281654 
L 219.799819 160.281654 
L 219.799819 160.281654 
L 219.799819 160.281654 
" style="fill:none;stroke:#0000ff;stroke-linecap:square;"/>
   </g>
   <g id="line2d_57">
    <path clip-path="url(#p6d77b2bc3f)" d="M 198.061034 114.197723 
L 196.893083 114.766987 
L 193.19508 116.824879 
L 191.655666 117.80566 
L 190.110682 118.870802 
L 187.412416 120.945162 
L 183.48772 124.536236 
L 182.200727 125.892532 
L 179.55194 129.034067 
L 179.145672 129.564496 
L 177.182689 132.351675 
L 175.154624 135.723355 
L 173.515699 138.972415 
L 172.781621 140.645145 
L 171.791534 143.208048 
L 170.796573 146.317938 
L 169.87493 150.092988 
L 169.781567 150.56168 
L 169.442347 152.508075 
L 169.398234 152.79943 
L 169.376809 152.945201 
L 169.366255 153.01811 
" style="fill:none;stroke:#0000ff;stroke-linecap:square;"/>
   </g>
   <g id="line2d_58">
    <path clip-path="url(#p6d77b2bc3f)" d="M 139.72148 149.810286 
L 139.371768 152.966016 
L 139.143848 156.182343 
L 139.082136 162.898065 
L 139.186325 165.145249 
L 139.610028 169.862228 
L 140.362348 174.837687 
L 140.973415 177.848326 
L 141.97758 181.866118 
L 144.112879 188.453929 
L 145.383905 191.657786 
L 148.225902 197.689732 
L 149.298294 199.673594 
L 153.771384 206.783651 
L 154.367896 207.619307 
L 158.642242 213.025761 
L 160.953894 215.593019 
L 165.175316 219.765717 
L 166.308127 220.786438 
L 166.65893 221.094777 
L 166.834999 221.248184 
L 166.923199 221.324697 
" style="fill:none;stroke:#0000ff;stroke-linecap:square;"/>
   </g>
   <g id="line2d_59">
    <path clip-path="url(#p6d77b2bc3f)" d="M 154.084872 238.171062 
L 156.80342 240.38576 
L 160.792839 243.368298 
L 163.48826 245.218233 
L 170.734672 249.600328 
L 175.360099 251.98948 
L 179.5265 253.894014 
L 185.398589 256.207508 
L 193.80081 258.81726 
L 198.855301 260.014002 
L 202.981072 260.792071 
L 206.39267 261.303743 
L 216.641709 262.140579 
L 223.143232 262.134665 
L 229.403131 261.736031 
L 234.5072 261.122653 
L 236.065455 260.883062 
L 243.500005 259.395303 
L 247.575032 258.331395 
" style="fill:none;stroke:#0000ff;stroke-linecap:square;"/>
   </g>
   <g id="line2d_60">
    <path clip-path="url(#p6d77b2bc3f)" d="M 253.466834 273.701729 
L 253.624401 273.654839 
L 253.939338 273.560401 
L 254.56842 273.368902 
L 254.670232 273.33755 
L 261.979429 270.818805 
L 266.574357 268.954207 
L 276.421355 264.164198 
L 282.025587 260.907372 
L 286.387575 258.075581 
L 290.794312 254.925002 
L 294.885229 251.713391 
L 303.490034 243.908977 
L 307.341983 239.867776 
L 309.151328 237.830923 
L 313.985485 231.882224 
L 318.420503 225.638689 
L 323.179979 217.81533 
L 325.11038 214.200732 
L 329.063401 205.65842 
L 331.24592 199.997493 
L 332.928854 194.914048 
L 333.008933 194.651374 
L 333.205806 193.996094 
L 333.30282 193.668029 
L 333.350971 193.503892 
" style="fill:none;stroke:#0000ff;stroke-linecap:square;"/>
   </g>
   <g id="line2d_61">
    <path clip-path="url(#p6d77b2bc3f)" d="M 346.684907 195.619387 
L 348.933454 186.225545 
L 350.044554 179.900268 
L 350.552095 176.169493 
L 351.473054 163.558868 
L 351.513736 160.12303 
L 351.321776 153.171384 
L 350.233907 141.964182 
L 348.76778 133.526353 
L 347.692863 128.786411 
L 345.382652 120.563485 
L 342.40813 112.159069 
L 341.477226 109.851606 
L 335.645767 97.605524 
L 335.199795 96.788138 
L 328.025779 85.210205 
L 326.204398 82.650176 
L 320.093534 74.901611 
L 320.016079 74.810711 
L 319.539614 74.255181 
L 319.300226 73.97841 
L 319.180244 73.840275 
" style="fill:none;stroke:#0000ff;stroke-linecap:square;"/>
   </g>
   <g id="line2d_62">
    <path clip-path="url(#p6d77b2bc3f)" d="M 326.548169 65.061461 
L 321.905172 60.09886 
L 319.743749 57.942481 
L 308.711965 48.224858 
L 304.921569 45.319125 
L 300.780195 42.365268 
L 291.135295 36.292359 
L 281.235208 31.100431 
L 279.236336 30.168642 
L 270.238975 26.423569 
L 259.473456 22.847678 
L 250.485335 20.565891 
L 243.899948 19.280664 
L 237.715241 18.362194 
L 223.590536 17.286109 
L 217.696016 17.251345 
L 212.348253 17.43009 
L 204.571499 18.048769 
L 200.624923 18.52687 
L 199.199084 18.727053 
" style="fill:none;stroke:#0000ff;stroke-linecap:square;"/>
   </g>
   <g id="line2d_63">
    <path clip-path="url(#p6d77b2bc3f)" d="M 197.404851 9.069231 
L 197.024415 9.126064 
L 196.263978 9.2426 
L 195.810707 9.313929 
L 181.926951 12.185816 
L 176.413026 13.706357 
L 164.39317 17.814694 
L 158.749005 20.140548 
L 148.310813 25.16669 
L 139.448625 30.241595 
L 136.021381 32.422728 
L 125.568548 39.918873 
L 122.549899 42.344448 
L 117.655907 46.556754 
L 108.100988 55.925999 
L 99.792998 65.597471 
L 98.021025 67.887624 
L 91.131772 77.751265 
L 85.534019 87.210275 
L 82.254562 93.588073 
L 81.260751 95.677799 
L 80.889454 96.480072 
L 80.705546 96.88201 
L 80.614029 97.083178 
" style="fill:none;stroke:#0000ff;stroke-linecap:square;"/>
   </g>
   <g id="line2d_64">
    <path clip-path="url(#p6d77b2bc3f)" d="M 71.87386 95.422803 
L 70.110117 99.604204 
L 68.852066 102.805263 
L 65.923231 111.182211 
L 61.635358 127.528594 
L 60.25279 135.112121 
L 59.185328 143.20111 
L 58.487368 152.093056 
L 58.332234 164.402174 
L 58.424957 167.131014 
L 59.311105 178.506155 
L 61.40804 191.917145 
L 61.842384 194.019003 
L 64.458468 204.528965 
L 69.462403 219.336047 
L 70.102358 220.93996 
L 74.993081 231.834212 
L 81.230194 243.270924 
L 83.265604 246.57863 
L 84.102654 247.888955 
L 84.208171 248.052178 
" style="fill:none;stroke:#0000ff;stroke-linecap:square;"/>
   </g>
   <g id="line2d_65">
    <path clip-path="url(#p6d77b2bc3f)" d="M 78.039293 252.773265 
L 78.486118 253.454518 
L 78.84867 254.002082 
L 82.784444 259.667427 
L 93.565449 273.045251 
L 98.406886 278.241396 
L 105.172411 284.826033 
L 111.861512 290.665959 
L 122.913254 299.075524 
L 130.237057 303.910539 
L 132.391951 305.232023 
L 145.854765 312.540887 
L 151.63813 315.21625 
L 164.361531 320.210829 
L 174.903676 323.484232 
L 181.451337 325.145655 
L 190.92912 327.066629 
L 204.768281 328.878208 
L 210.590621 329.296256 
L 216.571721 329.516179 
L 218.591164 329.542648 
L 219.570046 329.546808 
L 220.059492 329.546764 
L 220.304215 329.546212 
" style="fill:none;stroke:#0000ff;stroke-linecap:square;"/>
   </g>
   <g id="line2d_66">
    <path clip-path="url(#p6d77b2bc3f)" d="M 222.61865 336.530769 
L 226.226496 336.436115 
L 242.072548 335.140517 
L 245.86548 334.615465 
L 258.05303 332.352536 
L 273.221723 328.263191 
L 284.980172 324.059607 
L 285.981215 323.65766 
L 301.969677 316.229757 
L 308.159937 312.807672 
L 314.59151 308.896027 
L 325.039058 301.690278 
L 331.824354 296.377943 
L 340.743594 288.516984 
L 350.793642 278.23213 
L 357.748397 270.017182 
L 358.746483 268.750641 
L 366.23922 258.39994 
L 367.44345 256.578355 
L 367.99788 255.722899 
L 368.273237 255.293972 
L 368.41045 255.07921 
" style="fill:none;stroke:#0000ff;stroke-linecap:square;"/>
   </g>
   <g id="line2d_67">
    <path clip-path="url(#p6d77b2bc3f)" d="M 375.068228 256.506912 
L 376.460441 254.223278 
L 384.443271 239.402529 
L 385.899969 236.29691 
L 391.137582 223.613716 
L 395.540638 210.10879 
L 396.688201 205.867612 
L 399.040074 195.50253 
L 401.205987 181.714836 
L 402.362088 166.494296 
L 402.467766 160.281654 
" style="fill:none;stroke:#0000ff;stroke-linecap:square;"/>
   </g>
   <g id="patch_3">
    <path d="M 219.799819 343.08 
L 219.799819 2.52 
" style="fill:none;stroke:#000000;stroke-linecap:square;stroke-linejoin:miter;stroke-width:0.8;"/>
   </g>
   <g id="patch_4">
    <path d="M 51.449523 160.281654 
L 409.350477 160.281654 
" style="fill:none;stroke:#000000;stroke-linecap:square;stroke-linejoin:miter;stroke-width:0.8;"/>
   </g>
  </g>
 </g>
 <defs>
  <clipPath id="p6d77b2bc3f">
   <rect height="340.56" width="357.900954" x="51.449523" y="2.52"/>
  </clipPath>
 </defs>
</svg>
