<?xml version="1.0" encoding="utf-8" standalone="no"?>
<!DOCTYPE svg PUBLIC "-//W3C//DTD SVG 1.1//EN"
  "http://www.w3.org/Graphics/SVG/1.1/DTD/svg11.dtd">
<svg xmlns:xlink="http://www.w3.org/1999/xlink" width="460.8pt" height="345.6pt" viewBox="0 0 460.8 345.6" xmlns="http://www.w3.org/2000/svg" version="1.1">
 <metadata>
  <rdf:RDF xmlns:dc="http://purl.org/dc/elements/1.1/" xmlns:cc="http://creativecommons.org/ns#" xmlns:rdf="http://www.w3.org/1999/02/22-rdf-syntax-ns#">
   <cc:Work>
    <dc:type rdf:resource="http://purl.org/dc/dcmitype/StillImage"/>
    <dc:date>2023-08-21T20:31:26.084049</dc:date>
    <dc:format>image/svg+xml</dc:format>
    <dc:creator>
     <cc:Agent>
      <dc:title>Matplotlib v3.6.2, https://matplotlib.org/</dc:title>
     </cc:Agent>
    </dc:creator>
   </cc:Work>
  </rdf:RDF>
 </metadata>
 <defs>
  <style type="text/css">*{stroke-linejoin: round; stroke-linecap: butt}</style>
 </defs>
 <g id="figure_1">
  <g id="patch_1">
   <path d="M 0 345.6 
L 460.8 345.6 
L 460.8 0 
L 0 0 
z
" style="fill: #ffffff"/>
  </g>
  <g id="axes_1">
   <g id="patch_2">
    <path d="M 23.323698 345.6 
L 460.8 345.6 
L 460.8 3.819603 
L 23.323698 3.819603 
z
" style="fill: #ffffff"/>
   </g>
   <g id="patch_3">
    <path d="M 31.736704 216.459905 
L 31.736704 216.459905 
L 33.20905 204.071635 
L 35.112579 188.129427 
L 38.988898 156.305706 
L 40.184016 146.765333 
L 41.887918 133.460097 
L 43.399702 121.993833 
L 46.319335 100.918007 
L 49.006648 82.976365 
L 51.700618 66.612985 
L 53.076759 58.944275 
L 55.27573 47.73261 
L 57.656496 37.125329 
L 58.27048 34.659248 
L 60.159972 27.786731 
L 62.049464 22.022903 
L 62.466236 20.903788 
L 64.875309 15.531745 
L 67.287999 12.050436 
L 68.898677 10.793684 
L 70.509356 10.392303 
L 71.518458 10.575094 
L 73.516382 11.915695 
L 76.289665 15.895594 
L 77.345232 18.042551 
L 79.672458 23.96689 
L 81.886366 31.066114 
L 83.535374 37.23465 
L 86.668922 50.885425 
L 89.762571 66.606667 
L 90.012905 67.967183 
L 92.16901 80.181073 
L 94.757061 95.897483 
L 96.397315 106.366153 
L 98.953243 123.31322 
L 101.827146 143.05485 
L 103.05746 151.654877 
L 105.660187 169.994589 
L 107.986815 186.401645 
L 110.305528 202.594974 
L 112.050345 214.579735 
L 113.427536 223.869051 
L 115.281486 236.076828 
L 117.555309 250.483386 
L 119.83043 264.152093 
L 121.80517 275.316799 
L 123.733694 285.518956 
L 125.662218 294.965206 
L 125.876667 295.966405 
L 128.908216 309.004809 
L 131.158079 317.266113 
L 132.37855 321.218056 
L 134.309342 326.685409 
L 136.240134 331.169811 
L 136.816537 332.315215 
L 139.01597 335.8608 
L 141.4656 338.263326 
L 144.18761 339.0273 
L 146.325653 338.241115 
L 147.495963 337.304856 
L 149.878097 334.323839 
L 152.904274 328.544383 
L 154.291642 325.189373 
L 156.609173 318.661006 
L 159.244241 309.939803 
L 161.615617 301.032851 
L 162.724085 296.561413 
L 163.858851 291.799506 
L 166.068602 282.046344 
L 168.825498 269.133454 
L 170.626772 260.349216 
L 172.763759 249.674791 
L 176.411934 231.113748 
L 178.032961 222.846598 
L 179.859664 213.597768 
L 181.717404 204.329996 
L 183.32338 196.482023 
L 187.022195 179.220558 
L 187.671701 176.33354 
L 190.218619 165.512467 
L 192.985113 154.782137 
L 195.418197 146.349463 
L 196.751252 142.164576 
L 198.160367 138.095611 
L 200.378384 132.463418 
L 203.435306 126.325586 
L 205.009314 123.92703 
L 207.104065 121.557597 
L 209.758617 119.919843 
L 212.374092 119.800144 
L 213.96855 120.447455 
L 216.243205 122.296333 
L 216.869394 122.992524 
L 220.183203 127.973426 
L 221.909077 131.394869 
L 223.543952 135.127055 
L 225.96436 141.473363 
L 227.724862 146.657823 
L 230.155618 154.521732 
L 232.789273 163.846906 
L 234.314222 169.571189 
L 236.245077 177.101876 
L 238.442063 185.977781 
L 241.198356 197.431341 
L 244.094819 209.648245 
L 245.813083 216.891874 
L 247.838514 225.348845 
L 250.008131 234.228284 
L 251.975841 242.046762 
L 252.989712 245.965916 
L 256.423777 258.554925 
L 257.605359 262.602354 
L 259.131595 267.584439 
L 261.275484 274.072237 
L 264.127436 281.685 
L 266.473165 286.996875 
L 269.079818 291.820764 
L 270.581918 294.06166 
L 272.75531 296.584544 
L 275.716739 298.624224 
L 277.445053 299.061788 
L 279.400677 298.888413 
L 282.102074 297.495428 
L 283.324119 296.434089 
L 286.278015 292.796817 
L 288.362645 289.355468 
L 290.274952 285.599533 
L 292.160111 281.370516 
L 294.137356 276.414123 
L 295.385722 273.030936 
L 297.159732 267.91412 
L 300.4963 257.43309 
L 302.663202 250.133262 
L 304.583983 243.413026 
L 307.145718 234.187347 
L 308.919023 227.690541 
L 310.147435 223.165207 
L 312.430591 214.758567 
L 314.678858 206.565845 
L 318.123689 194.386347 
L 319.704032 189.024798 
L 320.83946 185.283972 
L 323.15306 177.996721 
L 324.626743 173.620229 
L 328.372992 163.576338 
L 329.112033 161.796891 
L 331.761271 156.018749 
L 334.005345 151.903439 
L 336.415037 148.329768 
L 338.943198 145.563142 
L 339.914578 144.774645 
L 342.527035 143.422332 
L 344.830867 143.164871 
L 346.876347 143.668479 
L 349.570602 145.366311 
L 350.852128 146.577202 
L 353.330023 149.630054 
L 356.019827 153.95585 
L 357.038218 155.853277 
L 358.439151 158.683508 
L 362.250016 167.566935 
L 364.257902 172.865534 
L 364.826277 174.433471 
L 367.739334 182.880712 
L 370.920662 192.745143 
L 371.039943 193.125115 
L 374.282841 203.64899 
L 377.077297 212.889164 
L 379.242726 220.049466 
L 379.781567 221.82134 
L 382.748943 231.43657 
L 383.704354 234.461123 
L 386.611699 243.362268 
L 389.178689 250.742677 
L 391.434722 256.770603 
L 393.942101 262.883096 
L 395.498508 266.331642 
L 398.213872 271.653328 
L 400.551143 275.474574 
L 401.108457 276.276755 
L 403.458233 279.180402 
L 406.340347 281.653408 
L 407.441482 282.274042 
L 411.09523 283.031467 
L 412.689657 282.734649 
L 413.878932 282.267195 
L 416.06799 280.865176 
L 417.767743 279.302843 
L 420.288126 276.251848 
L 423.444696 271.263335 
L 424.559763 269.211171 
L 426.693687 264.894139 
L 429.926337 257.4716 
L 430.857724 255.157415 
L 432.392134 251.194124 
L 435.702865 242.097329 
L 437.75447 236.166337 
L 439.550871 230.842641 
L 441.831346 223.972865 
L 443.940422 217.573405 
L 446.538299 209.727155 
L 448.608253 203.577801 
L 450.154974 199.080548 
L 452.386994 192.790907 
L 452.386994 216.459905 
z
" clip-path="url(#pc3482e4b79)" style="fill: #b2b3ff; opacity: 0.5"/>
   </g>
   <g id="patch_4">
    <path d="M 31.736704 216.459905 
L 31.736704 216.459905 
L 34.24568 215.830698 
L 35.099844 215.330421 
L 38.154645 212.369804 
L 40.301487 209.219936 
L 41.592124 206.916545 
L 44.175734 201.422134 
L 46.936592 194.329431 
L 49.335666 187.234348 
L 49.823676 185.693714 
L 52.022453 178.379828 
L 55.465434 165.857495 
L 56.663093 161.247796 
L 58.787413 152.819038 
L 61.589988 141.33494 
L 64.077261 130.950086 
L 65.303839 125.810092 
L 67.891576 115.027025 
L 69.714357 107.555175 
L 72.62234 96.009523 
L 72.97137 94.663914 
L 77.181288 79.332637 
L 77.623459 77.834061 
L 81.047191 67.100437 
L 82.52355 62.998287 
L 84.948307 57.034002 
L 86.14702 54.465088 
L 89.453411 48.78339 
L 91.291332 46.567544 
L 92.341419 45.61756 
L 94.267097 44.488917 
L 96.192775 44.171333 
L 97.409498 44.395733 
L 98.90792 45.128828 
L 100.470063 46.432251 
L 103.521376 50.563806 
L 106.058372 55.576996 
L 107.281692 58.495543 
L 109.19191 63.687901 
L 112.784035 75.459609 
L 114.46214 81.805349 
L 115.663305 86.657192 
L 118.633286 99.683292 
L 121.375056 112.877919 
L 121.986487 115.956441 
L 124.930138 131.37822 
L 127.656301 146.40114 
L 128.219052 149.572867 
L 131.370739 167.659809 
L 133.713248 181.328619 
L 134.327286 184.92466 
L 136.887911 199.902577 
L 139.893741 217.271449 
L 142.002586 229.180379 
L 142.992468 234.66076 
L 145.878471 250.132083 
L 147.455462 258.208042 
L 150.110295 271.082935 
L 153.212925 284.805313 
L 153.486657 285.940412 
L 157.401821 300.699198 
L 159.509122 307.421231 
L 161.528273 313.002437 
L 163.015336 316.554491 
L 164.984728 320.508595 
L 166.132544 322.411576 
L 168.029966 324.899403 
L 169.927388 326.560356 
L 172.175536 327.454617 
L 172.501384 327.487825 
L 175.600338 326.595742 
L 177.082311 325.407553 
L 180.712135 320.489727 
L 180.870418 320.212403 
L 183.987645 313.734423 
L 186.845417 306.192904 
L 187.94428 302.916677 
L 190.264659 295.369431 
L 193.162763 284.865145 
L 193.962669 281.778988 
L 195.961443 273.759314 
L 198.418191 263.384719 
L 200.991613 252.045156 
L 203.415006 241.067278 
L 205.03174 233.651248 
L 207.321593 223.11238 
L 210.060491 210.599118 
L 210.439645 208.884909 
L 212.901304 197.922568 
L 216.556902 182.39513 
L 217.908836 176.952888 
L 219.593519 170.444392 
L 220.999438 165.269461 
L 224.04172 154.968765 
L 225.198014 151.405333 
L 227.472324 145.011116 
L 229.895188 139.152564 
L 232.211707 134.526613 
L 234.388347 131.087837 
L 236.293747 128.820831 
L 239.266164 126.69701 
L 241.652276 126.247375 
L 243.087485 126.513515 
L 245.914636 128.199557 
L 246.970065 129.216552 
L 248.981381 131.721107 
L 250.547289 134.170341 
L 252.969092 138.779134 
L 255.905659 145.615876 
L 258.777251 153.494533 
L 259.228889 154.831167 
L 261.583081 162.18461 
L 264.144526 170.838992 
L 266.444593 179.087281 
L 268.13006 185.359197 
L 271.155444 196.961711 
L 273.707947 206.94863 
L 274.795658 211.221833 
L 276.521098 217.984711 
L 279.477077 229.413496 
L 280.927854 234.895819 
L 283.273463 243.502183 
L 284.47429 247.757534 
L 287.527023 258.01052 
L 289.094239 262.910314 
L 291.355396 269.480366 
L 293.428729 274.934456 
L 296.303564 281.505232 
L 297.637203 284.135471 
L 300.609974 288.987603 
L 302.808912 291.642686 
L 304.215444 292.912256 
L 307.475346 294.546368 
L 308.680544 294.684939 
L 310.313322 294.472675 
L 312.612213 293.401159 
L 315.051804 291.296407 
L 316.102112 290.09171 
L 318.403499 286.846446 
L 321.528712 281.177255 
L 324.371894 274.861983 
L 324.803722 273.814059 
L 326.880865 268.472797 
L 330.33307 258.611972 
L 332.456219 252.037036 
L 334.408225 245.719006 
L 336.909096 237.331695 
L 338.923095 230.412028 
L 340.39732 225.292754 
L 342.873365 216.666538 
L 345.22189 208.543358 
L 347.237477 201.6934 
L 348.165479 198.595269 
L 351.855503 186.758621 
L 353.928164 180.539506 
L 355.513505 176.037178 
L 356.530977 173.276337 
L 359.12647 166.735352 
L 362.500973 159.428383 
L 363.774026 157.055658 
L 364.892328 155.1549 
L 367.796682 151.05355 
L 368.906254 149.815356 
L 371.829877 147.450792 
L 374.136621 146.519882 
L 376.063329 146.379501 
L 377.785745 146.74356 
L 381.215136 148.823036 
L 381.833061 149.385449 
L 384.591189 152.569672 
L 387.046405 156.291995 
L 389.604602 160.998306 
L 390.325526 162.467454 
L 393.379186 169.327762 
L 395.901321 175.692246 
L 398.355303 182.396047 
L 400.339617 188.121728 
L 401.22219 190.741324 
L 402.865973 195.719035 
L 406.36017 206.602918 
L 407.897737 211.462474 
L 410.005422 218.129315 
L 412.637477 226.372031 
L 414.056347 230.736488 
L 416.184508 237.126435 
L 419.006837 245.214724 
L 421.47171 251.818697 
L 423.262657 256.295819 
L 424.180026 258.472787 
L 426.977953 264.578176 
L 428.95905 268.373848 
L 431.0824 271.916341 
L 433.129272 274.786518 
L 434.704887 276.616095 
L 438.180289 279.438999 
L 439.873287 280.195284 
L 441.962236 280.562398 
L 443.198106 280.48489 
L 446.601618 279.149307 
L 447.885565 278.224976 
L 451.1131 274.920856 
L 452.386994 273.244908 
L 452.386994 216.459905 
z
" clip-path="url(#pc3482e4b79)" style="fill: #c9ffb2; opacity: 0.5"/>
   </g>
   <g id="patch_5">
    <path d="M 31.736704 216.459905 
L 31.736704 216.459905 
L 33.589961 216.45486 
L 35.556734 216.415791 
L 38.369222 216.229969 
L 40.726227 215.890372 
L 42.370241 215.521571 
L 43.503997 215.192866 
L 47.034841 213.713397 
L 47.779797 213.302815 
L 51.663945 210.529139 
L 52.68035 209.615329 
L 54.61101 207.650018 
L 57.790392 203.730086 
L 58.182859 203.18558 
L 60.599864 199.533315 
L 63.096109 195.219163 
L 65.910748 189.700595 
L 67.250214 186.83681 
L 69.644036 181.352746 
L 72.895562 173.199828 
L 74.818265 168.032769 
L 75.880041 165.080227 
L 78.651775 157.080095 
L 81.036959 149.912418 
L 82.813728 144.443444 
L 83.649766 141.841103 
L 87.471754 129.812686 
L 89.358452 123.862906 
L 90.09134 121.56186 
L 91.988867 115.653682 
L 95.211013 105.885451 
L 96.272394 102.770225 
L 100.102077 92.112137 
L 101.822236 87.687413 
L 104.280527 81.837642 
L 106.480854 77.138046 
L 108.557691 73.222418 
L 110.841771 69.555941 
L 111.929392 68.061723 
L 114.804549 64.945638 
L 115.601553 64.305277 
L 118.562549 62.818466 
L 121.434307 62.771714 
L 122.533722 63.128844 
L 125.708152 65.349164 
L 127.306029 67.14089 
L 128.845587 69.295014 
L 131.859847 74.719381 
L 134.233406 80.095262 
L 134.415755 80.547675 
L 137.455772 88.894075 
L 140.521884 98.782624 
L 140.681569 99.335995 
L 144.371975 113.107124 
L 146.132514 120.29305 
L 147.924337 127.97119 
L 149.837453 136.53413 
L 151.302683 143.318649 
L 154.392003 158.158231 
L 156.982573 171.029684 
L 158.892188 180.682286 
L 160.428959 188.508553 
L 162.183167 197.464489 
L 165.673673 215.183643 
L 166.694658 220.300984 
L 170.054307 236.771078 
L 171.089032 241.696308 
L 174.083686 255.442268 
L 176.45529 265.689328 
L 176.83359 267.26437 
L 179.524828 277.945409 
L 181.574924 285.411943 
L 184.918187 296.201782 
L 185.311912 297.351761 
L 188.565575 305.817039 
L 189.700513 308.318364 
L 192.380789 313.257854 
L 193.961341 315.517544 
L 197.278135 318.646781 
L 198.338343 319.181595 
L 200.0307 319.566643 
L 203.468458 318.585414 
L 205.347328 317.066156 
L 207.395897 314.63965 
L 209.596372 311.167579 
L 210.431996 309.622073 
L 213.285699 303.446888 
L 214.911267 299.340606 
L 216.864313 293.883096 
L 219.347222 286.187088 
L 220.971434 280.738064 
L 223.185215 272.846184 
L 226.465406 260.327412 
L 228.431438 252.452908 
L 231.148265 241.251788 
L 232.966423 233.623742 
L 233.6446 230.763834 
L 236.645517 218.099476 
L 238.380725 210.832483 
L 241.977882 196.120271 
L 242.466584 194.173977 
L 245.694347 181.749178 
L 248.220485 172.658818 
L 248.623268 171.269438 
L 252.470811 158.951012 
L 254.377539 153.553636 
L 256.164266 148.966505 
L 258.528206 143.643646 
L 259.002312 142.682759 
L 262.771244 136.372691 
L 265.107316 133.688308 
L 267.344502 132.024398 
L 268.974988 131.376968 
L 270.953136 131.232763 
L 273.085508 131.860252 
L 275.258349 133.32289 
L 276.397833 134.415476 
L 278.840434 137.490213 
L 281.351345 141.65047 
L 282.557017 143.990209 
L 284.438098 148.059374 
L 288.561097 158.608078 
L 289.230904 160.512666 
L 292.198459 169.50484 
L 293.027171 172.161674 
L 296.308144 183.192601 
L 298.918495 192.425688 
L 301.062887 200.209542 
L 303.00869 207.358679 
L 303.422 208.882051 
L 306.39435 219.817227 
L 307.741225 224.724914 
L 311.361255 237.587019 
L 313.75202 245.688806 
L 314.80705 249.134301 
L 316.973099 255.915188 
L 319.685287 263.767618 
L 321.917336 269.621062 
L 323.657954 273.763364 
L 326.199933 279.0925 
L 328.34178 282.87567 
L 330.147848 285.536954 
L 332.659667 288.402656 
L 333.547431 289.177615 
L 336.600648 290.877007 
L 337.524189 291.094118 
L 340.722563 290.780015 
L 341.978598 290.207871 
L 345.542938 287.240009 
L 346.951701 285.535305 
L 348.474788 283.367296 
L 351.588154 277.937698 
L 352.481199 276.146463 
L 355.727172 268.834207 
L 358.099005 262.772553 
L 358.352938 262.091315 
L 361.924581 251.934636 
L 363.05156 248.535129 
L 365.892955 239.644278 
L 367.131322 235.656447 
L 370.929453 223.176193 
L 371.468042 221.391592 
L 374.05221 212.844709 
L 377.334065 202.174375 
L 378.180942 199.481826 
L 380.2375 193.089283 
L 381.915264 188.058978 
L 385.307661 178.523787 
L 386.779646 174.697351 
L 389.850172 167.421345 
L 391.912817 163.126002 
L 392.307439 162.362415 
L 395.959667 156.239418 
L 398.300305 153.258727 
L 399.501106 152.02889 
L 402.516489 149.860718 
L 403.14089 149.578522 
L 406.389552 149.042184 
L 407.368727 149.186996 
L 409.221716 149.846455 
L 411.724785 151.525772 
L 414.093092 153.924894 
L 417.461134 158.624079 
L 418.582926 160.505899 
L 421.653725 166.402576 
L 423.390944 170.184719 
L 424.343572 172.383547 
L 426.224279 176.962641 
L 429.030467 184.313173 
L 432.017623 192.68754 
L 434.008907 198.504438 
L 435.010588 201.482084 
L 436.676049 206.486554 
L 439.258578 214.315213 
L 441.137386 220.005827 
L 443.65136 227.528731 
L 447.028486 237.302266 
L 447.541365 238.739769 
L 450.377529 246.401728 
L 452.386994 251.485903 
L 452.386994 216.459905 
z
" clip-path="url(#pc3482e4b79)" style="fill: #ffb2df; opacity: 0.5"/>
   </g>
   <g id="patch_6">
    <path d="M 31.736704 216.459905 
L 31.736704 216.459905 
L 33.707062 216.459834 
L 35.772555 216.458657 
L 37.068345 216.456109 
L 39.692345 216.44116 
L 43.014527 216.384753 
L 44.112499 216.351249 
L 46.085899 216.264707 
L 48.856826 216.06826 
L 50.656665 215.88002 
L 52.584278 215.612499 
L 55.186887 215.121025 
L 57.180763 214.624796 
L 60.186714 213.644234 
L 62.190733 212.812877 
L 63.647193 212.109288 
L 66.015335 210.770697 
L 67.95278 209.482476 
L 70.253837 207.709433 
L 71.20425 206.896154 
L 73.31278 204.915297 
L 76.092956 201.916612 
L 77.601952 200.098487 
L 80.128518 196.746768 
L 82.018112 193.985445 
L 83.61155 191.487123 
L 85.955998 187.53099 
L 89.257744 181.406853 
L 90.704434 178.5276 
L 92.503407 174.78913 
L 95.711138 167.718156 
L 97.034814 164.662078 
L 100.070526 157.389003 
L 100.678965 155.892077 
L 102.593444 151.110089 
L 105.442892 143.831294 
L 108.755994 135.224846 
L 110.486937 130.712121 
L 112.610681 125.200998 
L 113.540801 122.806125 
L 116.352001 115.683686 
L 118.93407 109.362871 
L 119.80642 107.289961 
L 122.955169 100.136471 
L 124.849182 96.125839 
L 127.103728 91.690945 
L 128.36991 89.380237 
L 131.707358 83.987197 
L 132.196605 83.28835 
L 134.889206 79.899442 
L 137.700122 77.244662 
L 138.511553 76.65679 
L 140.902622 75.413263 
L 143.804814 74.926447 
L 146.169428 75.394594 
L 148.712074 76.791953 
L 150.654851 78.495203 
L 152.171733 80.21105 
L 154.734452 83.879641 
L 157.058169 88.036396 
L 159.035292 92.185029 
L 161.564605 98.291229 
L 162.552614 100.913165 
L 165.784279 110.376314 
L 167.775915 116.849782 
L 168.452919 119.155095 
L 172.124243 132.510872 
L 172.444722 133.74058 
L 176.085453 148.337108 
L 177.573042 154.594563 
L 179.532359 163.049516 
L 181.347255 171.060411 
L 182.963824 178.309085 
L 186.705165 195.334888 
L 187.611323 199.481039 
L 191.256587 216.089092 
L 192.268945 220.650608 
L 195.364134 234.344791 
L 196.364136 238.663712 
L 199.294001 250.929251 
L 201.089516 258.106244 
L 203.977428 268.99895 
L 204.915016 272.342426 
L 206.480208 277.692955 
L 209.318796 286.599627 
L 212.095175 294.225245 
L 213.474146 297.583985 
L 215.801659 302.571734 
L 218.197316 306.774587 
L 219.861392 309.118886 
L 221.423697 310.880864 
L 224.858929 313.233693 
L 225.796585 313.509344 
L 227.769406 313.575082 
L 230.244533 312.677149 
L 231.992969 311.3939 
L 234.904513 308.094783 
L 236.910084 305.00575 
L 239.380343 300.330102 
L 240.964102 296.852096 
L 243.566081 290.37784 
L 244.891084 286.741814 
L 246.776026 281.206913 
L 249.726399 271.776372 
L 250.809415 268.106894 
L 253.194818 259.690159 
L 255.579976 250.891737 
L 258.409228 240.094213 
L 259.614246 235.415055 
L 262.922087 222.461608 
L 264.424274 216.581312 
L 265.660424 211.769273 
L 267.638006 204.158847 
L 269.76289 196.159221 
L 273.729448 181.950717 
L 273.914914 181.315 
L 277.193054 170.592377 
L 279.599057 163.422226 
L 281.55227 158.098092 
L 284.017763 152.075351 
L 285.943102 147.953412 
L 287.428681 145.140786 
L 289.369382 141.968952 
L 291.314429 139.37992 
L 292.808565 137.802452 
L 296.559083 135.452586 
L 298.674033 135.153752 
L 301.072857 135.709286 
L 301.309298 135.815124 
L 304.749469 138.373246 
L 306.938241 140.967037 
L 309.250311 144.485025 
L 311.202768 148.047081 
L 312.527995 150.756892 
L 314.310863 154.753891 
L 318.151235 164.606103 
L 319.316263 167.893946 
L 320.908431 172.583639 
L 323.799891 181.602852 
L 326.263226 189.696489 
L 327.670091 194.445929 
L 329.27831 199.956962 
L 331.389124 207.274759 
L 333.837509 215.80025 
L 337.008893 226.737825 
L 337.249514 227.557114 
L 339.622328 235.514678 
L 341.767942 242.467844 
L 345.367081 253.431471 
L 346.101707 255.540188 
L 349.208492 263.888858 
L 351.133808 268.551378 
L 352.7061 272.039404 
L 354.938951 276.464188 
L 356.946062 279.880956 
L 359.316686 283.196214 
L 362.337848 286.240681 
L 364.463064 287.565652 
L 365.985368 288.093732 
L 368.016513 288.248739 
L 369.549042 287.950907 
L 372.521967 286.3686 
L 374.717877 284.368316 
L 375.837836 283.08444 
L 377.418528 280.978805 
L 380.085434 276.680269 
L 382.830342 271.34376 
L 384.985654 266.563284 
L 387.764028 259.721937 
L 389.140997 256.080588 
L 390.5131 252.306815 
L 392.764955 245.840285 
L 394.987224 239.18683 
L 397.363591 231.854155 
L 399.47283 225.227471 
L 400.743318 221.209982 
L 404.385771 209.725288 
L 405.345496 206.736507 
L 408.940201 195.827181 
L 409.556123 194.01747 
L 411.926651 187.262882 
L 414.41413 180.599243 
L 416.954599 174.329392 
L 417.614215 172.800342 
L 420.113379 167.412412 
L 422.228705 163.390054 
L 425.854322 157.750097 
L 427.312356 155.956214 
L 428.927814 154.300084 
L 432.041697 152.117797 
L 434.230486 151.395232 
L 436.42411 151.348682 
L 437.837045 151.676838 
L 439.785342 152.584754 
L 442.698229 154.905846 
L 444.971781 157.491377 
L 446.877602 160.156344 
L 447.736832 161.499881 
L 451.246288 167.844329 
L 452.386994 170.182702 
L 452.386994 216.459905 
z
" clip-path="url(#pc3482e4b79)" style="fill: #b2f5ff; opacity: 0.5"/>
   </g>
   <g id="patch_7">
    <path d="M 31.736704 216.459905 
L 31.736704 216.459905 
L 34.185953 216.459903 
L 34.926282 216.459898 
L 38.646137 216.459554 
L 40.387874 216.458827 
L 41.253549 216.458171 
L 44.87089 216.451288 
L 47.166889 216.44074 
L 48.816457 216.42822 
L 50.125344 216.414271 
L 51.87705 216.388439 
L 55.927996 216.284249 
L 56.738941 216.25355 
L 59.673088 216.10578 
L 61.210143 216.000908 
L 64.255184 215.722879 
L 65.155195 215.619862 
L 67.563652 215.28911 
L 69.991577 214.862675 
L 72.18725 214.383397 
L 73.630244 214.013824 
L 76.252282 213.218124 
L 78.046809 212.571777 
L 79.793787 211.855308 
L 81.657864 210.988474 
L 84.692418 209.331609 
L 86.276412 208.336659 
L 88.253555 206.961055 
L 91.215377 204.606536 
L 92.942922 203.062306 
L 94.909154 201.145147 
L 96.569916 199.389979 
L 100.001813 195.358753 
L 101.312182 193.673716 
L 102.567382 191.983577 
L 106.592327 186.064344 
L 108.631415 182.779735 
L 109.004926 182.157756 
L 112.316127 176.378084 
L 113.555354 174.096844 
L 116.043163 169.336146 
L 118.459492 164.499192 
L 121.47012 158.217171 
L 123.656497 153.507315 
L 124.72986 151.158088 
L 127.042185 146.032958 
L 128.790474 142.116394 
L 132.055446 134.765092 
L 133.928601 130.560554 
L 136.191736 125.531681 
L 136.954312 123.856272 
L 140.410729 116.439427 
L 141.123053 114.955873 
L 144.508092 108.180738 
L 145.961679 105.43518 
L 147.53577 102.592104 
L 151.082813 96.755306 
L 152.296487 94.961666 
L 154.2014 92.37917 
L 156.351962 89.831433 
L 158.954138 87.3149 
L 160.341717 86.243815 
L 162.17786 85.13241 
L 164.346989 84.28877 
L 166.868334 83.97688 
L 168.809555 84.245779 
L 170.299651 84.761097 
L 173.162003 86.520425 
L 175.867321 89.128773 
L 177.954355 91.774131 
L 179.955804 94.828267 
L 181.722029 97.940681 
L 184.906038 104.521234 
L 186.042529 107.164979 
L 187.130493 109.837195 
L 190.546748 119.093518 
L 191.379479 121.540487 
L 194.293585 130.652049 
L 195.822036 135.751308 
L 199.362186 148.315005 
L 200.34256 151.961001 
L 203.239209 163.091263 
L 205.467851 171.960124 
L 206.300975 175.330425 
L 210.216775 191.451957 
L 211.030457 194.83962 
L 212.985691 202.997733 
L 216.549337 217.807059 
L 218.596463 226.191808 
L 219.128303 228.347027 
L 223.021769 243.722688 
L 224.283035 248.515284 
L 226.003211 254.869038 
L 229.022368 265.431302 
L 229.388078 266.654006 
L 233.376778 279.084907 
L 234.02031 280.923242 
L 236.348504 287.149718 
L 239.755023 294.978646 
L 241.7035 298.724513 
L 243.178571 301.18834 
L 246.077757 305.063817 
L 247.465747 306.454111 
L 248.961249 307.608784 
L 251.173083 308.656981 
L 254.674278 308.698366 
L 255.506284 308.417338 
L 257.474002 307.312783 
L 259.159779 305.880868 
L 261.722139 302.866751 
L 264.980963 297.632327 
L 266.953892 293.742526 
L 268.965834 289.251833 
L 270.696785 284.991074 
L 271.746842 282.238062 
L 274.860241 273.392445 
L 277.653449 264.691136 
L 278.377923 262.33226 
L 281.035931 253.374336 
L 283.057103 246.297471 
L 284.840385 239.910982 
L 287.255083 231.120493 
L 288.935233 224.952958 
L 292.053261 213.519028 
L 294.42742 204.929397 
L 295.124665 202.440821 
L 297.035565 195.727138 
L 300.101608 185.374482 
L 301.343919 181.361565 
L 305.330096 169.363441 
L 305.554512 168.732545 
L 308.091101 161.9728 
L 310.781414 155.608988 
L 312.196492 152.622246 
L 316.009592 145.908114 
L 316.889145 144.648628 
L 319.101073 141.980377 
L 321.447703 139.948684 
L 322.482023 139.318976 
L 325.672757 138.412218 
L 328.35907 138.862937 
L 328.858271 139.068152 
L 330.928217 140.320011 
L 334.384614 143.816645 
L 335.519473 145.335168 
L 337.784718 148.888388 
L 341.137175 155.348323 
L 342.170309 157.607827 
L 345.356029 165.294245 
L 347.093922 169.902055 
L 348.835072 174.775483 
L 350.713991 180.287938 
L 353.809213 189.837829 
L 354.299845 191.395141 
L 358.213722 204.105077 
L 360.022156 210.079186 
L 360.866993 212.875696 
L 362.655583 218.784652 
L 365.20139 227.105119 
L 367.849559 235.54314 
L 370.20116 242.756621 
L 371.368413 246.213561 
L 373.571206 252.472475 
L 377.114059 261.683576 
L 377.883037 263.524952 
L 380.893565 270.127105 
L 383.647791 275.249382 
L 384.891944 277.254541 
L 387.839943 281.195952 
L 388.01152 281.389297 
L 390.672656 283.86563 
L 393.275555 285.32059 
L 396.155651 285.798403 
L 396.952898 285.720024 
L 399.330608 284.947582 
L 401.979387 283.151536 
L 402.897252 282.304343 
L 406.103014 278.471108 
L 408.26588 275.151565 
L 410.010069 272.071365 
L 411.605728 268.957107 
L 414.939888 261.615729 
L 416.900927 256.828182 
L 419.398757 250.30207 
L 421.51226 244.465324 
L 422.417271 241.892447 
L 424.520928 235.774124 
L 426.005235 231.365809 
L 429.389714 221.151776 
L 430.763417 216.984838 
L 432.655272 211.269573 
L 435.922078 201.579766 
L 437.443428 197.194704 
L 438.913163 193.062876 
L 440.811604 187.907926 
L 444.451994 178.726696 
L 446.82558 173.335117 
L 447.657405 171.571115 
L 449.927495 167.1159 
L 452.386994 162.923025 
L 452.386994 216.459905 
z
" clip-path="url(#pc3482e4b79)" style="fill: #fff2b2; opacity: 0.5"/>
   </g>
   <g id="matplotlib.axis_1">
    <g id="xtick_1">
     <g id="line2d_1">
      <defs>
       <path id="m982294d4e9" d="M 0 0 
L 0 3.5 
" style="stroke: #000000; stroke-width: 0.8"/>
      </defs>
      <g>
       <use xlink:href="#m982294d4e9" x="31.736704" y="216.459905" style="stroke: #000000; stroke-width: 0.8"/>
      </g>
     </g>
    </g>
    <g id="xtick_2">
     <g id="line2d_2">
      <g>
       <use xlink:href="#m982294d4e9" x="136.899277" y="216.459905" style="stroke: #000000; stroke-width: 0.8"/>
      </g>
     </g>
     <g id="text_1">
      <!-- 5 -->
      <g transform="translate(133.718027 231.058342) scale(0.1 -0.1)">
       <defs>
        <path id="DejaVuSans-35" d="M 691 4666 
L 3169 4666 
L 3169 4134 
L 1269 4134 
L 1269 2991 
Q 1406 3038 1543 3061 
Q 1681 3084 1819 3084 
Q 2600 3084 3056 2656 
Q 3513 2228 3513 1497 
Q 3513 744 3044 326 
Q 2575 -91 1722 -91 
Q 1428 -91 1123 -41 
Q 819 9 494 109 
L 494 744 
Q 775 591 1075 516 
Q 1375 441 1709 441 
Q 2250 441 2565 725 
Q 2881 1009 2881 1497 
Q 2881 1984 2565 2268 
Q 2250 2553 1709 2553 
Q 1456 2553 1204 2497 
Q 953 2441 691 2322 
L 691 4666 
z
" transform="scale(0.015625)"/>
       </defs>
       <use xlink:href="#DejaVuSans-35"/>
      </g>
     </g>
    </g>
    <g id="xtick_3">
     <g id="line2d_3">
      <g>
       <use xlink:href="#m982294d4e9" x="242.061849" y="216.459905" style="stroke: #000000; stroke-width: 0.8"/>
      </g>
     </g>
     <g id="text_2">
      <!-- 10 -->
      <g transform="translate(235.699349 231.058342) scale(0.1 -0.1)">
       <defs>
        <path id="DejaVuSans-31" d="M 794 531 
L 1825 531 
L 1825 4091 
L 703 3866 
L 703 4441 
L 1819 4666 
L 2450 4666 
L 2450 531 
L 3481 531 
L 3481 0 
L 794 0 
L 794 531 
z
" transform="scale(0.015625)"/>
        <path id="DejaVuSans-30" d="M 2034 4250 
Q 1547 4250 1301 3770 
Q 1056 3291 1056 2328 
Q 1056 1369 1301 889 
Q 1547 409 2034 409 
Q 2525 409 2770 889 
Q 3016 1369 3016 2328 
Q 3016 3291 2770 3770 
Q 2525 4250 2034 4250 
z
M 2034 4750 
Q 2819 4750 3233 4129 
Q 3647 3509 3647 2328 
Q 3647 1150 3233 529 
Q 2819 -91 2034 -91 
Q 1250 -91 836 529 
Q 422 1150 422 2328 
Q 422 3509 836 4129 
Q 1250 4750 2034 4750 
z
" transform="scale(0.015625)"/>
       </defs>
       <use xlink:href="#DejaVuSans-31"/>
       <use xlink:href="#DejaVuSans-30" x="63.623047"/>
      </g>
     </g>
    </g>
    <g id="xtick_4">
     <g id="line2d_4">
      <g>
       <use xlink:href="#m982294d4e9" x="347.224422" y="216.459905" style="stroke: #000000; stroke-width: 0.8"/>
      </g>
     </g>
     <g id="text_3">
      <!-- 15 -->
      <g transform="translate(340.861922 231.058342) scale(0.1 -0.1)">
       <use xlink:href="#DejaVuSans-31"/>
       <use xlink:href="#DejaVuSans-35" x="63.623047"/>
      </g>
     </g>
    </g>
    <g id="xtick_5">
     <g id="line2d_5">
      <g>
       <use xlink:href="#m982294d4e9" x="452.386994" y="216.459905" style="stroke: #000000; stroke-width: 0.8"/>
      </g>
     </g>
     <g id="text_4">
      <!-- 20 -->
      <g transform="translate(446.024494 231.058342) scale(0.1 -0.1)">
       <defs>
        <path id="DejaVuSans-32" d="M 1228 531 
L 3431 531 
L 3431 0 
L 469 0 
L 469 531 
Q 828 903 1448 1529 
Q 2069 2156 2228 2338 
Q 2531 2678 2651 2914 
Q 2772 3150 2772 3378 
Q 2772 3750 2511 3984 
Q 2250 4219 1831 4219 
Q 1534 4219 1204 4116 
Q 875 4013 500 3803 
L 500 4441 
Q 881 4594 1212 4672 
Q 1544 4750 1819 4750 
Q 2544 4750 2975 4387 
Q 3406 4025 3406 3419 
Q 3406 3131 3298 2873 
Q 3191 2616 2906 2266 
Q 2828 2175 2409 1742 
Q 1991 1309 1228 531 
z
" transform="scale(0.015625)"/>
       </defs>
       <use xlink:href="#DejaVuSans-32"/>
       <use xlink:href="#DejaVuSans-30" x="63.623047"/>
      </g>
     </g>
    </g>
    <g id="xtick_6">
     <g id="line2d_6">
      <defs>
       <path id="m069cf5e633" d="M 0 0 
L 0 2 
" style="stroke: #000000; stroke-width: 0.6"/>
      </defs>
      <g>
       <use xlink:href="#m069cf5e633" x="52.769219" y="216.459905" style="stroke: #000000; stroke-width: 0.6"/>
      </g>
     </g>
    </g>
    <g id="xtick_7">
     <g id="line2d_7">
      <g>
       <use xlink:href="#m069cf5e633" x="73.801733" y="216.459905" style="stroke: #000000; stroke-width: 0.6"/>
      </g>
     </g>
    </g>
    <g id="xtick_8">
     <g id="line2d_8">
      <g>
       <use xlink:href="#m069cf5e633" x="94.834248" y="216.459905" style="stroke: #000000; stroke-width: 0.6"/>
      </g>
     </g>
    </g>
    <g id="xtick_9">
     <g id="line2d_9">
      <g>
       <use xlink:href="#m069cf5e633" x="115.866762" y="216.459905" style="stroke: #000000; stroke-width: 0.6"/>
      </g>
     </g>
    </g>
    <g id="xtick_10">
     <g id="line2d_10">
      <g>
       <use xlink:href="#m069cf5e633" x="157.931791" y="216.459905" style="stroke: #000000; stroke-width: 0.6"/>
      </g>
     </g>
    </g>
    <g id="xtick_11">
     <g id="line2d_11">
      <g>
       <use xlink:href="#m069cf5e633" x="178.964306" y="216.459905" style="stroke: #000000; stroke-width: 0.6"/>
      </g>
     </g>
    </g>
    <g id="xtick_12">
     <g id="line2d_12">
      <g>
       <use xlink:href="#m069cf5e633" x="199.99682" y="216.459905" style="stroke: #000000; stroke-width: 0.6"/>
      </g>
     </g>
    </g>
    <g id="xtick_13">
     <g id="line2d_13">
      <g>
       <use xlink:href="#m069cf5e633" x="221.029335" y="216.459905" style="stroke: #000000; stroke-width: 0.6"/>
      </g>
     </g>
    </g>
    <g id="xtick_14">
     <g id="line2d_14">
      <g>
       <use xlink:href="#m069cf5e633" x="263.094364" y="216.459905" style="stroke: #000000; stroke-width: 0.6"/>
      </g>
     </g>
    </g>
    <g id="xtick_15">
     <g id="line2d_15">
      <g>
       <use xlink:href="#m069cf5e633" x="284.126878" y="216.459905" style="stroke: #000000; stroke-width: 0.6"/>
      </g>
     </g>
    </g>
    <g id="xtick_16">
     <g id="line2d_16">
      <g>
       <use xlink:href="#m069cf5e633" x="305.159393" y="216.459905" style="stroke: #000000; stroke-width: 0.6"/>
      </g>
     </g>
    </g>
    <g id="xtick_17">
     <g id="line2d_17">
      <g>
       <use xlink:href="#m069cf5e633" x="326.191907" y="216.459905" style="stroke: #000000; stroke-width: 0.6"/>
      </g>
     </g>
    </g>
    <g id="xtick_18">
     <g id="line2d_18">
      <g>
       <use xlink:href="#m069cf5e633" x="368.256936" y="216.459905" style="stroke: #000000; stroke-width: 0.6"/>
      </g>
     </g>
    </g>
    <g id="xtick_19">
     <g id="line2d_19">
      <g>
       <use xlink:href="#m069cf5e633" x="389.289451" y="216.459905" style="stroke: #000000; stroke-width: 0.6"/>
      </g>
     </g>
    </g>
    <g id="xtick_20">
     <g id="line2d_20">
      <g>
       <use xlink:href="#m069cf5e633" x="410.321965" y="216.459905" style="stroke: #000000; stroke-width: 0.6"/>
      </g>
     </g>
    </g>
    <g id="xtick_21">
     <g id="line2d_21">
      <g>
       <use xlink:href="#m069cf5e633" x="431.35448" y="216.459905" style="stroke: #000000; stroke-width: 0.6"/>
      </g>
     </g>
    </g>
   </g>
   <g id="matplotlib.axis_2">
    <g id="ytick_1">
     <g id="line2d_22">
      <defs>
       <path id="mcf7794cbf1" d="M 0 0 
L -3.5 0 
" style="stroke: #000000; stroke-width: 0.8"/>
      </defs>
      <g>
       <use xlink:href="#mcf7794cbf1" x="31.736704" y="287.290046" style="stroke: #000000; stroke-width: 0.8"/>
      </g>
     </g>
     <g id="text_5">
      <!-- −0.2 -->
      <g transform="translate(0.453892 291.089265) scale(0.1 -0.1)">
       <defs>
        <path id="DejaVuSans-2212" d="M 678 2272 
L 4684 2272 
L 4684 1741 
L 678 1741 
L 678 2272 
z
" transform="scale(0.015625)"/>
        <path id="DejaVuSans-2e" d="M 684 794 
L 1344 794 
L 1344 0 
L 684 0 
L 684 794 
z
" transform="scale(0.015625)"/>
       </defs>
       <use xlink:href="#DejaVuSans-2212"/>
       <use xlink:href="#DejaVuSans-30" x="83.789062"/>
       <use xlink:href="#DejaVuSans-2e" x="147.412109"/>
       <use xlink:href="#DejaVuSans-32" x="179.199219"/>
      </g>
     </g>
    </g>
    <g id="ytick_2">
     <g id="line2d_23">
      <g>
       <use xlink:href="#mcf7794cbf1" x="31.736704" y="216.459905" style="stroke: #000000; stroke-width: 0.8"/>
      </g>
     </g>
    </g>
    <g id="ytick_3">
     <g id="line2d_24">
      <g>
       <use xlink:href="#mcf7794cbf1" x="31.736704" y="145.629764" style="stroke: #000000; stroke-width: 0.8"/>
      </g>
     </g>
     <g id="text_6">
      <!-- 0.2 -->
      <g transform="translate(8.833579 149.428983) scale(0.1 -0.1)">
       <use xlink:href="#DejaVuSans-30"/>
       <use xlink:href="#DejaVuSans-2e" x="63.623047"/>
       <use xlink:href="#DejaVuSans-32" x="95.410156"/>
      </g>
     </g>
    </g>
    <g id="ytick_4">
     <g id="line2d_25">
      <g>
       <use xlink:href="#mcf7794cbf1" x="31.736704" y="74.799623" style="stroke: #000000; stroke-width: 0.8"/>
      </g>
     </g>
     <g id="text_7">
      <!-- 0.4 -->
      <g transform="translate(8.833579 78.598842) scale(0.1 -0.1)">
       <defs>
        <path id="DejaVuSans-34" d="M 2419 4116 
L 825 1625 
L 2419 1625 
L 2419 4116 
z
M 2253 4666 
L 3047 4666 
L 3047 1625 
L 3713 1625 
L 3713 1100 
L 3047 1100 
L 3047 0 
L 2419 0 
L 2419 1100 
L 313 1100 
L 313 1709 
L 2253 4666 
z
" transform="scale(0.015625)"/>
       </defs>
       <use xlink:href="#DejaVuSans-30"/>
       <use xlink:href="#DejaVuSans-2e" x="63.623047"/>
       <use xlink:href="#DejaVuSans-34" x="95.410156"/>
      </g>
     </g>
    </g>
    <g id="ytick_5">
     <g id="line2d_26">
      <g>
       <use xlink:href="#mcf7794cbf1" x="31.736704" y="3.969483" style="stroke: #000000; stroke-width: 0.8"/>
      </g>
     </g>
     <g id="text_8">
      <!-- 0.6 -->
      <g transform="translate(8.833579 7.768701) scale(0.1 -0.1)">
       <defs>
        <path id="DejaVuSans-36" d="M 2113 2584 
Q 1688 2584 1439 2293 
Q 1191 2003 1191 1497 
Q 1191 994 1439 701 
Q 1688 409 2113 409 
Q 2538 409 2786 701 
Q 3034 994 3034 1497 
Q 3034 2003 2786 2293 
Q 2538 2584 2113 2584 
z
M 3366 4563 
L 3366 3988 
Q 3128 4100 2886 4159 
Q 2644 4219 2406 4219 
Q 1781 4219 1451 3797 
Q 1122 3375 1075 2522 
Q 1259 2794 1537 2939 
Q 1816 3084 2150 3084 
Q 2853 3084 3261 2657 
Q 3669 2231 3669 1497 
Q 3669 778 3244 343 
Q 2819 -91 2113 -91 
Q 1303 -91 875 529 
Q 447 1150 447 2328 
Q 447 3434 972 4092 
Q 1497 4750 2381 4750 
Q 2619 4750 2861 4703 
Q 3103 4656 3366 4563 
z
" transform="scale(0.015625)"/>
       </defs>
       <use xlink:href="#DejaVuSans-30"/>
       <use xlink:href="#DejaVuSans-2e" x="63.623047"/>
       <use xlink:href="#DejaVuSans-36" x="95.410156"/>
      </g>
     </g>
    </g>
    <g id="ytick_6">
     <g id="line2d_27">
      <defs>
       <path id="mf7cfa2502c" d="M 0 0 
L -2 0 
" style="stroke: #000000; stroke-width: 0.6"/>
      </defs>
      <g>
       <use xlink:href="#mf7cfa2502c" x="31.736704" y="340.412651" style="stroke: #000000; stroke-width: 0.6"/>
      </g>
     </g>
    </g>
    <g id="ytick_7">
     <g id="line2d_28">
      <g>
       <use xlink:href="#mf7cfa2502c" x="31.736704" y="322.705116" style="stroke: #000000; stroke-width: 0.6"/>
      </g>
     </g>
    </g>
    <g id="ytick_8">
     <g id="line2d_29">
      <g>
       <use xlink:href="#mf7cfa2502c" x="31.736704" y="304.997581" style="stroke: #000000; stroke-width: 0.6"/>
      </g>
     </g>
    </g>
    <g id="ytick_9">
     <g id="line2d_30">
      <g>
       <use xlink:href="#mf7cfa2502c" x="31.736704" y="269.582511" style="stroke: #000000; stroke-width: 0.6"/>
      </g>
     </g>
    </g>
    <g id="ytick_10">
     <g id="line2d_31">
      <g>
       <use xlink:href="#mf7cfa2502c" x="31.736704" y="251.874975" style="stroke: #000000; stroke-width: 0.6"/>
      </g>
     </g>
    </g>
    <g id="ytick_11">
     <g id="line2d_32">
      <g>
       <use xlink:href="#mf7cfa2502c" x="31.736704" y="234.16744" style="stroke: #000000; stroke-width: 0.6"/>
      </g>
     </g>
    </g>
    <g id="ytick_12">
     <g id="line2d_33">
      <g>
       <use xlink:href="#mf7cfa2502c" x="31.736704" y="198.75237" style="stroke: #000000; stroke-width: 0.6"/>
      </g>
     </g>
    </g>
    <g id="ytick_13">
     <g id="line2d_34">
      <g>
       <use xlink:href="#mf7cfa2502c" x="31.736704" y="181.044835" style="stroke: #000000; stroke-width: 0.6"/>
      </g>
     </g>
    </g>
    <g id="ytick_14">
     <g id="line2d_35">
      <g>
       <use xlink:href="#mf7cfa2502c" x="31.736704" y="163.337299" style="stroke: #000000; stroke-width: 0.6"/>
      </g>
     </g>
    </g>
    <g id="ytick_15">
     <g id="line2d_36">
      <g>
       <use xlink:href="#mf7cfa2502c" x="31.736704" y="127.922229" style="stroke: #000000; stroke-width: 0.6"/>
      </g>
     </g>
    </g>
    <g id="ytick_16">
     <g id="line2d_37">
      <g>
       <use xlink:href="#mf7cfa2502c" x="31.736704" y="110.214694" style="stroke: #000000; stroke-width: 0.6"/>
      </g>
     </g>
    </g>
    <g id="ytick_17">
     <g id="line2d_38">
      <g>
       <use xlink:href="#mf7cfa2502c" x="31.736704" y="92.507159" style="stroke: #000000; stroke-width: 0.6"/>
      </g>
     </g>
    </g>
    <g id="ytick_18">
     <g id="line2d_39">
      <g>
       <use xlink:href="#mf7cfa2502c" x="31.736704" y="57.092088" style="stroke: #000000; stroke-width: 0.6"/>
      </g>
     </g>
    </g>
    <g id="ytick_19">
     <g id="line2d_40">
      <g>
       <use xlink:href="#mf7cfa2502c" x="31.736704" y="39.384553" style="stroke: #000000; stroke-width: 0.6"/>
      </g>
     </g>
    </g>
    <g id="ytick_20">
     <g id="line2d_41">
      <g>
       <use xlink:href="#mf7cfa2502c" x="31.736704" y="21.677018" style="stroke: #000000; stroke-width: 0.6"/>
      </g>
     </g>
    </g>
   </g>
   <g id="line2d_42">
    <path d="M 31.736704 216.459905 
L 38.988898 156.305706 
L 41.887918 133.460097 
L 43.399702 121.993833 
L 46.319335 100.918007 
L 49.006648 82.976365 
L 51.700618 66.612985 
L 53.076759 58.944275 
L 55.27573 47.73261 
L 58.27048 34.659248 
L 60.159972 27.786731 
L 62.466236 20.903788 
L 64.875309 15.531745 
L 67.287999 12.050436 
L 68.898677 10.793684 
L 70.509356 10.392303 
L 71.518458 10.575094 
L 73.516382 11.915695 
L 76.289665 15.895594 
L 77.345232 18.042551 
L 79.672458 23.96689 
L 81.886366 31.066114 
L 83.535374 37.23465 
L 86.668922 50.885425 
L 90.012905 67.967183 
L 92.16901 80.181073 
L 96.397315 106.366153 
L 101.827146 143.05485 
L 113.427536 223.869051 
L 117.555309 250.483386 
L 119.83043 264.152093 
L 121.80517 275.316799 
L 123.733694 285.518956 
L 125.876667 295.966405 
L 128.908216 309.004809 
L 131.158079 317.266113 
L 132.37855 321.218056 
L 134.309342 326.685409 
L 136.816537 332.315215 
L 139.01597 335.8608 
L 141.4656 338.263326 
L 144.18761 339.0273 
L 146.325653 338.241115 
L 147.495963 337.304856 
L 149.878097 334.323839 
L 152.904274 328.544383 
L 154.291642 325.189373 
L 156.609173 318.661006 
L 159.244241 309.939803 
L 162.724085 296.561413 
L 163.858851 291.799506 
L 166.068602 282.046344 
L 170.626772 260.349216 
L 178.032961 222.846598 
L 183.32338 196.482023 
L 187.671701 176.33354 
L 190.218619 165.512467 
L 192.985113 154.782137 
L 195.418197 146.349463 
L 198.160367 138.095611 
L 200.378384 132.463418 
L 203.435306 126.325586 
L 205.009314 123.92703 
L 207.104065 121.557597 
L 209.758617 119.919843 
L 212.374092 119.800144 
L 213.96855 120.447455 
L 216.243205 122.296333 
L 216.869394 122.992524 
L 220.183203 127.973426 
L 221.909077 131.394869 
L 223.543952 135.127055 
L 225.96436 141.473363 
L 227.724862 146.657823 
L 230.155618 154.521732 
L 234.314222 169.571189 
L 238.442063 185.977781 
L 252.989712 245.965916 
L 257.605359 262.602354 
L 259.131595 267.584439 
L 261.275484 274.072237 
L 264.127436 281.685 
L 266.473165 286.996875 
L 269.079818 291.820764 
L 270.581918 294.06166 
L 272.75531 296.584544 
L 275.716739 298.624224 
L 277.445053 299.061788 
L 279.400677 298.888413 
L 282.102074 297.495428 
L 283.324119 296.434089 
L 286.278015 292.796817 
L 288.362645 289.355468 
L 290.274952 285.599533 
L 292.160111 281.370516 
L 295.385722 273.030936 
L 297.159732 267.91412 
L 300.4963 257.43309 
L 304.583983 243.413026 
L 312.430591 214.758567 
L 318.123689 194.386347 
L 320.83946 185.283972 
L 324.626743 173.620229 
L 329.112033 161.796891 
L 331.761271 156.018749 
L 334.005345 151.903439 
L 336.415037 148.329768 
L 338.943198 145.563142 
L 339.914578 144.774645 
L 342.527035 143.422332 
L 344.830867 143.164871 
L 346.876347 143.668479 
L 349.570602 145.366311 
L 350.852128 146.577202 
L 353.330023 149.630054 
L 356.019827 153.95585 
L 358.439151 158.683508 
L 362.250016 167.566935 
L 364.826277 174.433471 
L 367.739334 182.880712 
L 371.039943 193.125115 
L 386.611699 243.362268 
L 389.178689 250.742677 
L 391.434722 256.770603 
L 393.942101 262.883096 
L 395.498508 266.331642 
L 398.213872 271.653328 
L 401.108457 276.276755 
L 403.458233 279.180402 
L 406.340347 281.653408 
L 407.441482 282.274042 
L 411.09523 283.031467 
L 412.689657 282.734649 
L 413.878932 282.267195 
L 416.06799 280.865176 
L 417.767743 279.302843 
L 420.288126 276.251848 
L 423.444696 271.263335 
L 424.559763 269.211171 
L 426.693687 264.894139 
L 430.857724 255.157415 
L 432.392134 251.194124 
L 437.75447 236.166337 
L 443.940422 217.573405 
L 450.154974 199.080548 
L 452.386994 192.790907 
L 452.386994 192.790907 
" clip-path="url(#pc3482e4b79)" style="fill: none; stroke: #0000cc; stroke-linecap: square"/>
   </g>
   <g id="line2d_43">
    <path d="M 31.736704 216.459905 
L 34.24568 215.830698 
L 35.099844 215.330421 
L 38.154645 212.369804 
L 40.301487 209.219936 
L 41.592124 206.916545 
L 44.175734 201.422134 
L 46.936592 194.329431 
L 49.823676 185.693714 
L 52.022453 178.379828 
L 56.663093 161.247796 
L 61.589988 141.33494 
L 69.714357 107.555175 
L 72.97137 94.663914 
L 77.623459 77.834061 
L 81.047191 67.100437 
L 82.52355 62.998287 
L 84.948307 57.034002 
L 86.14702 54.465088 
L 89.453411 48.78339 
L 91.291332 46.567544 
L 92.341419 45.61756 
L 94.267097 44.488917 
L 96.192775 44.171333 
L 97.409498 44.395733 
L 98.90792 45.128828 
L 100.470063 46.432251 
L 103.521376 50.563806 
L 106.058372 55.576996 
L 107.281692 58.495543 
L 109.19191 63.687901 
L 112.784035 75.459609 
L 115.663305 86.657192 
L 118.633286 99.683292 
L 121.986487 115.956441 
L 124.930138 131.37822 
L 128.219052 149.572867 
L 136.887911 199.902577 
L 142.992468 234.66076 
L 147.455462 258.208042 
L 150.110295 271.082935 
L 153.486657 285.940412 
L 157.401821 300.699198 
L 159.509122 307.421231 
L 161.528273 313.002437 
L 163.015336 316.554491 
L 164.984728 320.508595 
L 166.132544 322.411576 
L 168.029966 324.899403 
L 169.927388 326.560356 
L 172.501384 327.487825 
L 175.600338 326.595742 
L 177.082311 325.407553 
L 180.870418 320.212403 
L 183.987645 313.734423 
L 186.845417 306.192904 
L 187.94428 302.916677 
L 190.264659 295.369431 
L 193.962669 281.778988 
L 195.961443 273.759314 
L 200.991613 252.045156 
L 212.901304 197.922568 
L 217.908836 176.952888 
L 220.999438 165.269461 
L 225.198014 151.405333 
L 227.472324 145.011116 
L 229.895188 139.152564 
L 232.211707 134.526613 
L 234.388347 131.087837 
L 236.293747 128.820831 
L 239.266164 126.69701 
L 241.652276 126.247375 
L 243.087485 126.513515 
L 245.914636 128.199557 
L 246.970065 129.216552 
L 248.981381 131.721107 
L 250.547289 134.170341 
L 252.969092 138.779134 
L 255.905659 145.615876 
L 259.228889 154.831167 
L 261.583081 162.18461 
L 264.144526 170.838992 
L 268.13006 185.359197 
L 274.795658 211.221833 
L 280.927854 234.895819 
L 284.47429 247.757534 
L 289.094239 262.910314 
L 291.355396 269.480366 
L 293.428729 274.934456 
L 296.303564 281.505232 
L 297.637203 284.135471 
L 300.609974 288.987603 
L 302.808912 291.642686 
L 304.215444 292.912256 
L 307.475346 294.546368 
L 308.680544 294.684939 
L 310.313322 294.472675 
L 312.612213 293.401159 
L 315.051804 291.296407 
L 316.102112 290.09171 
L 318.403499 286.846446 
L 321.528712 281.177255 
L 324.803722 273.814059 
L 326.880865 268.472797 
L 330.33307 258.611972 
L 334.408225 245.719006 
L 340.39732 225.292754 
L 348.165479 198.595269 
L 351.855503 186.758621 
L 355.513505 176.037178 
L 356.530977 173.276337 
L 359.12647 166.735352 
L 362.500973 159.428383 
L 364.892328 155.1549 
L 367.796682 151.05355 
L 368.906254 149.815356 
L 371.829877 147.450792 
L 374.136621 146.519882 
L 376.063329 146.379501 
L 377.785745 146.74356 
L 381.215136 148.823036 
L 381.833061 149.385449 
L 384.591189 152.569672 
L 387.046405 156.291995 
L 390.325526 162.467454 
L 393.379186 169.327762 
L 395.901321 175.692246 
L 400.339617 188.121728 
L 402.865973 195.719035 
L 416.184508 237.126435 
L 419.006837 245.214724 
L 421.47171 251.818697 
L 424.180026 258.472787 
L 426.977953 264.578176 
L 428.95905 268.373848 
L 431.0824 271.916341 
L 433.129272 274.786518 
L 434.704887 276.616095 
L 438.180289 279.438999 
L 439.873287 280.195284 
L 441.962236 280.562398 
L 443.198106 280.48489 
L 446.601618 279.149307 
L 447.885565 278.224976 
L 451.1131 274.920856 
L 452.386994 273.244908 
L 452.386994 273.244908 
" clip-path="url(#pc3482e4b79)" style="fill: none; stroke: #3ccc00; stroke-linecap: square"/>
   </g>
   <g id="line2d_44">
    <path d="M 31.736704 216.459905 
L 35.556734 216.415791 
L 38.369222 216.229969 
L 40.726227 215.890372 
L 43.503997 215.192866 
L 47.779797 213.302815 
L 51.663945 210.529139 
L 52.68035 209.615329 
L 54.61101 207.650018 
L 58.182859 203.18558 
L 60.599864 199.533315 
L 63.096109 195.219163 
L 67.250214 186.83681 
L 69.644036 181.352746 
L 72.895562 173.199828 
L 75.880041 165.080227 
L 81.036959 149.912418 
L 87.471754 129.812686 
L 91.988867 115.653682 
L 96.272394 102.770225 
L 100.102077 92.112137 
L 101.822236 87.687413 
L 104.280527 81.837642 
L 106.480854 77.138046 
L 108.557691 73.222418 
L 110.841771 69.555941 
L 111.929392 68.061723 
L 114.804549 64.945638 
L 115.601553 64.305277 
L 118.562549 62.818466 
L 121.434307 62.771714 
L 122.533722 63.128844 
L 125.708152 65.349164 
L 127.306029 67.14089 
L 128.845587 69.295014 
L 131.859847 74.719381 
L 134.415755 80.547675 
L 137.455772 88.894075 
L 140.681569 99.335995 
L 144.371975 113.107124 
L 147.924337 127.97119 
L 151.302683 143.318649 
L 156.982573 171.029684 
L 170.054307 236.771078 
L 174.083686 255.442268 
L 176.83359 267.26437 
L 179.524828 277.945409 
L 181.574924 285.411943 
L 185.311912 297.351761 
L 188.565575 305.817039 
L 189.700513 308.318364 
L 192.380789 313.257854 
L 193.961341 315.517544 
L 197.278135 318.646781 
L 198.338343 319.181595 
L 200.0307 319.566643 
L 203.468458 318.585414 
L 205.347328 317.066156 
L 207.395897 314.63965 
L 209.596372 311.167579 
L 210.431996 309.622073 
L 213.285699 303.446888 
L 214.911267 299.340606 
L 216.864313 293.883096 
L 219.347222 286.187088 
L 220.971434 280.738064 
L 223.185215 272.846184 
L 228.431438 252.452908 
L 233.6446 230.763834 
L 238.380725 210.832483 
L 242.466584 194.173977 
L 245.694347 181.749178 
L 248.623268 171.269438 
L 252.470811 158.951012 
L 254.377539 153.553636 
L 256.164266 148.966505 
L 259.002312 142.682759 
L 262.771244 136.372691 
L 265.107316 133.688308 
L 267.344502 132.024398 
L 268.974988 131.376968 
L 270.953136 131.232763 
L 273.085508 131.860252 
L 275.258349 133.32289 
L 276.397833 134.415476 
L 278.840434 137.490213 
L 281.351345 141.65047 
L 282.557017 143.990209 
L 284.438098 148.059374 
L 289.230904 160.512666 
L 293.027171 172.161674 
L 296.308144 183.192601 
L 301.062887 200.209542 
L 307.741225 224.724914 
L 313.75202 245.688806 
L 316.973099 255.915188 
L 319.685287 263.767618 
L 321.917336 269.621062 
L 323.657954 273.763364 
L 326.199933 279.0925 
L 328.34178 282.87567 
L 330.147848 285.536954 
L 332.659667 288.402656 
L 333.547431 289.177615 
L 336.600648 290.877007 
L 337.524189 291.094118 
L 340.722563 290.780015 
L 341.978598 290.207871 
L 345.542938 287.240009 
L 346.951701 285.535305 
L 348.474788 283.367296 
L 351.588154 277.937698 
L 352.481199 276.146463 
L 355.727172 268.834207 
L 358.352938 262.091315 
L 363.05156 248.535129 
L 367.131322 235.656447 
L 378.180942 199.481826 
L 381.915264 188.058978 
L 386.779646 174.697351 
L 389.850172 167.421345 
L 392.307439 162.362415 
L 395.959667 156.239418 
L 398.300305 153.258727 
L 399.501106 152.02889 
L 402.516489 149.860718 
L 403.14089 149.578522 
L 406.389552 149.042184 
L 407.368727 149.186996 
L 409.221716 149.846455 
L 411.724785 151.525772 
L 414.093092 153.924894 
L 417.461134 158.624079 
L 418.582926 160.505899 
L 421.653725 166.402576 
L 424.343572 172.383547 
L 426.224279 176.962641 
L 429.030467 184.313173 
L 434.008907 198.504438 
L 441.137386 220.005827 
L 447.028486 237.302266 
L 450.377529 246.401728 
L 452.386994 251.485903 
L 452.386994 251.485903 
" clip-path="url(#pc3482e4b79)" style="fill: none; stroke: #cc0077; stroke-linecap: square"/>
   </g>
   <g id="line2d_45">
    <path d="M 31.736704 216.459905 
L 44.112499 216.351249 
L 48.856826 216.06826 
L 52.584278 215.612499 
L 55.186887 215.121025 
L 57.180763 214.624796 
L 60.186714 213.644234 
L 63.647193 212.109288 
L 66.015335 210.770697 
L 67.95278 209.482476 
L 71.20425 206.896154 
L 73.31278 204.915297 
L 76.092956 201.916612 
L 77.601952 200.098487 
L 80.128518 196.746768 
L 83.61155 191.487123 
L 85.955998 187.53099 
L 90.704434 178.5276 
L 92.503407 174.78913 
L 97.034814 164.662078 
L 102.593444 151.110089 
L 110.486937 130.712121 
L 116.352001 115.683686 
L 119.80642 107.289961 
L 122.955169 100.136471 
L 124.849182 96.125839 
L 128.36991 89.380237 
L 132.196605 83.28835 
L 134.889206 79.899442 
L 137.700122 77.244662 
L 138.511553 76.65679 
L 140.902622 75.413263 
L 143.804814 74.926447 
L 146.169428 75.394594 
L 148.712074 76.791953 
L 150.654851 78.495203 
L 152.171733 80.21105 
L 154.734452 83.879641 
L 157.058169 88.036396 
L 159.035292 92.185029 
L 162.552614 100.913165 
L 165.784279 110.376314 
L 168.452919 119.155095 
L 172.444722 133.74058 
L 177.573042 154.594563 
L 182.963824 178.309085 
L 195.364134 234.344791 
L 199.294001 250.929251 
L 201.089516 258.106244 
L 204.915016 272.342426 
L 206.480208 277.692955 
L 209.318796 286.599627 
L 212.095175 294.225245 
L 213.474146 297.583985 
L 215.801659 302.571734 
L 218.197316 306.774587 
L 219.861392 309.118886 
L 221.423697 310.880864 
L 224.858929 313.233693 
L 225.796585 313.509344 
L 227.769406 313.575082 
L 230.244533 312.677149 
L 231.992969 311.3939 
L 234.904513 308.094783 
L 236.910084 305.00575 
L 239.380343 300.330102 
L 240.964102 296.852096 
L 243.566081 290.37784 
L 244.891084 286.741814 
L 246.776026 281.206913 
L 250.809415 268.106894 
L 255.579976 250.891737 
L 262.922087 222.461608 
L 267.638006 204.158847 
L 269.76289 196.159221 
L 273.914914 181.315 
L 277.193054 170.592377 
L 279.599057 163.422226 
L 281.55227 158.098092 
L 284.017763 152.075351 
L 285.943102 147.953412 
L 287.428681 145.140786 
L 289.369382 141.968952 
L 291.314429 139.37992 
L 292.808565 137.802452 
L 296.559083 135.452586 
L 298.674033 135.153752 
L 301.309298 135.815124 
L 304.749469 138.373246 
L 306.938241 140.967037 
L 309.250311 144.485025 
L 311.202768 148.047081 
L 312.527995 150.756892 
L 314.310863 154.753891 
L 319.316263 167.893946 
L 320.908431 172.583639 
L 323.799891 181.602852 
L 329.27831 199.956962 
L 339.622328 235.514678 
L 341.767942 242.467844 
L 346.101707 255.540188 
L 349.208492 263.888858 
L 351.133808 268.551378 
L 352.7061 272.039404 
L 354.938951 276.464188 
L 356.946062 279.880956 
L 359.316686 283.196214 
L 362.337848 286.240681 
L 364.463064 287.565652 
L 365.985368 288.093732 
L 368.016513 288.248739 
L 369.549042 287.950907 
L 372.521967 286.3686 
L 374.717877 284.368316 
L 375.837836 283.08444 
L 377.418528 280.978805 
L 380.085434 276.680269 
L 382.830342 271.34376 
L 384.985654 266.563284 
L 389.140997 256.080588 
L 392.764955 245.840285 
L 397.363591 231.854155 
L 408.940201 195.827181 
L 411.926651 187.262882 
L 414.41413 180.599243 
L 417.614215 172.800342 
L 420.113379 167.412412 
L 422.228705 163.390054 
L 425.854322 157.750097 
L 427.312356 155.956214 
L 428.927814 154.300084 
L 432.041697 152.117797 
L 434.230486 151.395232 
L 436.42411 151.348682 
L 437.837045 151.676838 
L 439.785342 152.584754 
L 442.698229 154.905846 
L 444.971781 157.491377 
L 447.736832 161.499881 
L 451.246288 167.844329 
L 452.386994 170.182702 
L 452.386994 170.182702 
" clip-path="url(#pc3482e4b79)" style="fill: none; stroke: #00b3cc; stroke-linecap: square"/>
   </g>
   <g id="line2d_46">
    <path d="M 31.736704 216.459905 
L 51.87705 216.388439 
L 59.673088 216.10578 
L 64.255184 215.722879 
L 67.563652 215.28911 
L 72.18725 214.383397 
L 73.630244 214.013824 
L 78.046809 212.571777 
L 81.657864 210.988474 
L 84.692418 209.331609 
L 86.276412 208.336659 
L 88.253555 206.961055 
L 91.215377 204.606536 
L 92.942922 203.062306 
L 96.569916 199.389979 
L 101.312182 193.673716 
L 102.567382 191.983577 
L 106.592327 186.064344 
L 109.004926 182.157756 
L 113.555354 174.096844 
L 118.459492 164.499192 
L 123.656497 153.507315 
L 128.790474 142.116394 
L 136.954312 123.856272 
L 141.123053 114.955873 
L 145.961679 105.43518 
L 147.53577 102.592104 
L 152.296487 94.961666 
L 154.2014 92.37917 
L 156.351962 89.831433 
L 158.954138 87.3149 
L 160.341717 86.243815 
L 162.17786 85.13241 
L 164.346989 84.28877 
L 166.868334 83.97688 
L 168.809555 84.245779 
L 170.299651 84.761097 
L 173.162003 86.520425 
L 175.867321 89.128773 
L 177.954355 91.774131 
L 179.955804 94.828267 
L 181.722029 97.940681 
L 184.906038 104.521234 
L 187.130493 109.837195 
L 191.379479 121.540487 
L 195.822036 135.751308 
L 200.34256 151.961001 
L 205.467851 171.960124 
L 211.030457 194.83962 
L 219.128303 228.347027 
L 224.283035 248.515284 
L 226.003211 254.869038 
L 229.388078 266.654006 
L 234.02031 280.923242 
L 236.348504 287.149718 
L 239.755023 294.978646 
L 241.7035 298.724513 
L 243.178571 301.18834 
L 246.077757 305.063817 
L 247.465747 306.454111 
L 248.961249 307.608784 
L 251.173083 308.656981 
L 254.674278 308.698366 
L 255.506284 308.417338 
L 257.474002 307.312783 
L 259.159779 305.880868 
L 261.722139 302.866751 
L 264.980963 297.632327 
L 266.953892 293.742526 
L 268.965834 289.251833 
L 271.746842 282.238062 
L 274.860241 273.392445 
L 278.377923 262.33226 
L 283.057103 246.297471 
L 288.935233 224.952958 
L 295.124665 202.440821 
L 297.035565 195.727138 
L 301.343919 181.361565 
L 305.554512 168.732545 
L 308.091101 161.9728 
L 310.781414 155.608988 
L 312.196492 152.622246 
L 316.009592 145.908114 
L 316.889145 144.648628 
L 319.101073 141.980377 
L 321.447703 139.948684 
L 322.482023 139.318976 
L 325.672757 138.412218 
L 328.35907 138.862937 
L 328.858271 139.068152 
L 330.928217 140.320011 
L 334.384614 143.816645 
L 335.519473 145.335168 
L 337.784718 148.888388 
L 341.137175 155.348323 
L 342.170309 157.607827 
L 345.356029 165.294245 
L 348.835072 174.775483 
L 350.713991 180.287938 
L 354.299845 191.395141 
L 370.20116 242.756621 
L 373.571206 252.472475 
L 377.883037 263.524952 
L 380.893565 270.127105 
L 383.647791 275.249382 
L 384.891944 277.254541 
L 388.01152 281.389297 
L 390.672656 283.86563 
L 393.275555 285.32059 
L 396.155651 285.798403 
L 396.952898 285.720024 
L 399.330608 284.947582 
L 401.979387 283.151536 
L 402.897252 282.304343 
L 406.103014 278.471108 
L 408.26588 275.151565 
L 410.010069 272.071365 
L 411.605728 268.957107 
L 414.939888 261.615729 
L 416.900927 256.828182 
L 419.398757 250.30207 
L 422.417271 241.892447 
L 426.005235 231.365809 
L 437.443428 197.194704 
L 440.811604 187.907926 
L 444.451994 178.726696 
L 447.657405 171.571115 
L 449.927495 167.1159 
L 452.386994 162.923025 
L 452.386994 162.923025 
" clip-path="url(#pc3482e4b79)" style="fill: none; stroke: #ccaa00; stroke-linecap: square"/>
   </g>
   <g id="patch_8">
    <path d="M 31.736704 345.6 
L 31.736704 3.819603 
" style="fill: none; stroke: #000000; stroke-width: 0.8; stroke-linejoin: miter; stroke-linecap: square"/>
   </g>
   <g id="patch_9">
    <path d="M 23.323698 216.459905 
L 460.8 216.459905 
" style="fill: none; stroke: #000000; stroke-width: 0.8; stroke-linejoin: miter; stroke-linecap: square"/>
   </g>
  </g>
 </g>
 <defs>
  <clipPath id="pc3482e4b79">
   <rect x="23.323698" y="3.819603" width="437.476302" height="341.780397"/>
  </clipPath>
 </defs>
</svg>
