<?xml version="1.0" encoding="utf-8" standalone="no"?>
<!DOCTYPE svg PUBLIC "-//W3C//DTD SVG 1.1//EN"
  "http://www.w3.org/Graphics/SVG/1.1/DTD/svg11.dtd">
<!-- Created with matplotlib (http://matplotlib.org/) -->
<svg height="345.6pt" version="1.1" viewBox="0 0 460.8 345.6" width="460.8pt" xmlns="http://www.w3.org/2000/svg" xmlns:xlink="http://www.w3.org/1999/xlink">
 <defs>
  <style type="text/css">
*{stroke-linecap:butt;stroke-linejoin:round;}
  </style>
 </defs>
 <g id="figure_1">
  <g id="patch_1">
   <path d="M 0 345.6 
L 460.8 345.6 
L 460.8 0 
L 0 0 
z
" style="fill:#ffffff;"/>
  </g>
  <g id="axes_1">
   <g id="patch_2">
    <path d="M 38.582714 343.08 
L 422.217286 343.08 
L 422.217286 2.52 
L 38.582714 2.52 
z
" style="fill:#ffffff;"/>
   </g>
   <g id="patch_3">
    <path clip-path="url(#pe62bac5175)" d="M 119.57098 195.397332 
L 119.795656 191.750805 
L 120.221895 187.212842 
L 121.241663 179.983285 
L 122.135355 175.276137 
L 124.171241 166.963952 
L 124.631891 165.365221 
L 126.094361 160.740697 
L 128.546051 154.097603 
L 130.546734 149.391388 
L 132.473719 145.301471 
L 136.440999 137.896699 
L 138.40747 134.621487 
L 142.686509 128.189198 
L 144.822329 125.275667 
L 146.95264 122.536985 
L 150.227914 118.614358 
L 154.037428 114.435672 
L 159.324878 109.220065 
L 161.271231 107.451063 
L 168.397988 101.576878 
L 171.275267 99.447956 
L 174.824954 96.99497 
L 180.057516 93.702638 
L 181.773377 92.701824 
L 188.833293 88.964122 
L 191.82661 87.554042 
L 197.061401 85.322482 
L 202.475198 83.313331 
L 210.002744 80.997147 
L 210.227815 80.936153 
L 215.407522 79.661192 
L 220.92739 78.568698 
L 229.310174 77.420424 
L 232.650827 77.131456 
L 236.269753 76.925797 
L 241.317506 76.824838 
L 247.032265 76.972076 
L 254.819685 77.623597 
L 260.237146 78.388859 
L 262.407399 78.768703 
L 268.047733 79.95645 
L 274.738491 81.752933 
L 277.393767 82.58696 
L 279.774533 83.395317 
L 284.891314 85.333203 
L 292.296764 88.65179 
L 295.983145 90.547404 
L 298.459913 91.918484 
L 301.928673 93.977962 
L 308.561551 98.407559 
L 311.307189 100.448716 
L 314.074973 102.642226 
L 320.252192 108.088637 
L 323.181651 110.974112 
L 327.221292 115.329355 
L 329.798677 118.370126 
L 330.869437 119.701348 
L 335.294498 125.69601 
L 336.395789 127.329884 
L 340.793835 134.577528 
L 341.975048 136.764338 
L 344.51029 141.914222 
L 346.577886 146.711719 
L 347.5744 149.280882 
L 349.285822 154.230216 
L 350.361398 157.820177 
L 351.99244 164.435617 
L 352.96256 169.619827 
L 353.299706 171.858585 
L 354.026955 178.670832 
L 354.222896 182.062614 
L 354.307516 187.510155 
L 354.20569 191.150875 
L 353.968534 194.885246 
L 353.395297 200.208733 
L 352.909095 203.447303 
L 351.74048 209.384739 
L 351.573449 210.106405 
L 350.272232 215.073813 
L 347.872232 222.339671 
L 347.696584 222.807373 
L 345.421982 228.320577 
L 343.701246 231.966014 
L 341.974796 235.283436 
L 338.961753 240.442177 
L 336.034057 244.857513 
L 333.369303 248.472713 
L 332.749049 249.266634 
L 329.654136 252.992697 
L 326.650604 256.276548 
L 323.105881 259.791745 
L 319.991686 262.598724 
L 316.942701 265.120598 
L 312.321455 268.561964 
L 308.982627 270.7904 
L 305.904755 272.669506 
L 302.800284 274.405826 
L 298.819064 276.413284 
L 295.642656 277.848082 
L 293.206587 278.852784 
L 288.147888 280.685601 
L 285.055053 281.64403 
L 279.249727 283.124626 
L 275.404975 283.883349 
L 273.218094 284.237756 
L 268.29195 284.834012 
L 266.478895 284.983539 
L 260.978001 285.208061 
L 258.537412 285.197186 
L 252.944277 284.914011 
L 250.468901 284.672502 
L 244.672399 283.821298 
L 243.590513 283.617135 
L 239.838897 282.795489 
L 236.023087 281.773361 
L 231.950499 280.465239 
L 228.73431 279.265217 
L 224.341224 277.372026 
L 222.037732 276.254442 
L 218.732774 274.489517 
L 214.898242 272.183488 
L 210.610007 269.237165 
L 208.841375 267.895821 
L 207.442915 266.777934 
L 203.540148 263.361524 
L 200.779453 260.643574 
L 199.947336 259.768224 
L 196.553281 255.884635 
L 194.366206 253.068834 
L 193.154013 251.380111 
L 190.482901 247.261212 
L 189.603462 245.76016 
L 188.148114 243.076927 
L 186.624223 239.934556 
L 184.914042 235.842352 
L 183.916372 233.050993 
L 182.605663 228.638671 
L 182.069 226.433035 
L 181.745756 224.920859 
L 180.831463 219.066535 
L 180.633785 216.979031 
L 180.450007 213.337671 
L 180.437995 212.617887 
L 180.525075 208.501431 
L 180.72535 205.832033 
L 181.076351 202.919107 
L 181.830504 198.73851 
L 182.400353 196.348066 
L 183.155836 193.699752 
L 184.027831 191.109596 
L 185.410757 187.655229 
L 186.523548 185.272652 
L 187.43565 183.513789 
L 188.179524 182.184872 
L 190.671177 178.275252 
L 192.429495 175.909624 
L 193.530208 174.561053 
L 194.918003 172.986152 
L 197.509869 170.368049 
L 198.629276 169.351551 
L 200.003134 168.188041 
L 202.017429 166.635759 
L 204.891501 164.706064 
L 206.415959 163.80676 
L 209.846749 162.070714 
L 210.569454 161.753173 
L 212.818262 160.867135 
L 216.095632 159.842729 
L 217.254341 159.554168 
L 219.514669 159.10008 
L 221.596057 158.808602 
L 225.267527 158.592824 
L 227.517002 158.653542 
L 229.320233 158.812524 
L 231.691419 159.17877 
L 234.017313 159.723753 
L 235.056111 160.031158 
L 237.417255 160.891195 
L 238.40451 161.323126 
L 239.761359 161.99413 
L 241.708615 163.133175 
L 243.658047 164.52078 
L 245.123372 165.766291 
L 245.975316 166.589238 
L 247.912239 168.817701 
L 249.105421 170.538585 
L 250.10388 172.304407 
L 250.369293 172.846558 
L 251.408004 175.469852 
L 251.819694 176.91513 
L 252.2246 178.972073 
L 252.388908 180.429919 
L 252.456521 182.137519 
L 252.389987 183.872651 
L 252.126336 185.985967 
L 252.089293 186.195219 
L 251.573342 188.415439 
L 251.068258 189.99102 
L 250.443046 191.567842 
L 249.576767 193.366534 
L 248.389666 195.397332 
L 248.389666 195.397332 
L 249.531736 193.417695 
L 249.946548 192.567519 
L 250.624846 190.930838 
L 251.305442 188.705899 
L 251.615698 187.193079 
L 251.800151 185.739979 
L 251.873794 184.303744 
L 251.812869 182.509365 
L 251.585923 180.759952 
L 251.542988 180.527677 
L 251.193426 179.037447 
L 250.726416 177.592162 
L 250.27576 176.481354 
L 249.860558 175.606489 
L 249.241878 174.480827 
L 248.311343 173.061075 
L 246.513151 170.90311 
L 245.950468 170.338854 
L 244.579441 169.127398 
L 242.626484 167.718846 
L 241.357335 166.96262 
L 240.352816 166.439063 
L 238.264246 165.535137 
L 236.339012 164.895727 
L 235.465978 164.660841 
L 234.326598 164.40245 
L 232.473127 164.092132 
L 229.426619 163.85787 
L 228.866022 163.850287 
L 227.024788 163.900311 
L 224.171182 164.200084 
L 222.614144 164.476112 
L 220.633552 164.942098 
L 218.290394 165.661944 
L 215.981229 166.555678 
L 214.52201 167.218809 
L 212.712575 168.152343 
L 211.227906 169.015323 
L 210.119301 169.720093 
L 208.059559 171.176761 
L 206.198497 172.673166 
L 205.076788 173.666811 
L 203.198529 175.504608 
L 200.923433 178.071466 
L 199.903499 179.3668 
L 198.010998 182.064862 
L 196.806029 184.029089 
L 196.675881 184.255057 
L 195.522006 186.398638 
L 193.917748 189.918328 
L 193.226706 191.710218 
L 192.342973 194.373817 
L 191.5558 197.305144 
L 191.397084 197.99647 
L 190.878936 200.652805 
L 190.417403 204.081643 
L 190.19693 207.09775 
L 190.153168 208.441496 
L 190.215237 212.389647 
L 190.396679 214.853208 
L 190.630357 216.898714 
L 190.976687 219.160343 
L 191.837417 223.238793 
L 192.038215 224.022745 
L 192.783351 226.609264 
L 194.354485 231.016643 
L 195.365338 233.389998 
L 195.852383 234.442699 
L 196.901676 236.550193 
L 199.166958 240.526255 
L 200.768576 242.982887 
L 202.308515 245.132125 
L 203.699171 246.923546 
L 205.332624 248.873012 
L 209.032406 252.779358 
L 209.723054 253.441509 
L 213.121933 256.440709 
L 214.426529 257.488386 
L 218.027269 260.120347 
L 220.068631 261.459212 
L 222.518093 262.933753 
L 225.752738 264.67839 
L 227.825878 265.68424 
L 229.89626 266.606674 
L 233.150338 267.899893 
L 236.857434 269.15369 
L 239.091637 269.802404 
L 242.294026 270.598283 
L 246.3174 271.383189 
L 248.562082 271.720436 
L 254.206307 272.259917 
L 255.428663 272.319657 
L 258.698314 272.380979 
L 262.757926 272.258927 
L 264.433123 272.144744 
L 267.900494 271.789671 
L 270.969934 271.340857 
L 276.129604 270.297066 
L 279.705423 269.355439 
L 283.675094 268.093047 
L 284.660897 267.743064 
L 290.351748 265.425476 
L 293.300885 264.015038 
L 293.985283 263.666164 
L 298.757948 260.994291 
L 300.372512 259.990618 
L 305.026832 256.787117 
L 307.641043 254.767259 
L 308.630424 253.957561 
L 311.746581 251.230797 
L 314.584878 248.490218 
L 317.09468 245.834058 
L 319.058724 243.582035 
L 322.205685 239.602081 
L 324.240688 236.739582 
L 326.333946 233.505762 
L 328.876089 229.084461 
L 329.106243 228.651987 
L 331.112319 224.601132 
L 332.703248 220.944087 
L 334.710833 215.507679 
L 335.672156 212.419497 
L 336.83171 208.010203 
L 337.271998 206.037705 
L 337.97395 202.320115 
L 338.701941 196.938369 
L 338.862666 195.236948 
L 339.149967 190.065746 
L 339.144631 185.129685 
L 339.089087 183.627516 
L 338.835065 179.814694 
L 338.030877 173.3476 
L 337.500174 170.368325 
L 336.801657 167.109687 
L 335.747976 163.024905 
L 335.065959 160.726929 
L 333.97369 157.435112 
L 332.128367 152.635101 
L 330.763739 149.521993 
L 328.704944 145.329841 
L 327.293218 142.72962 
L 324.466486 138.039826 
L 321.676088 133.942962 
L 320.701908 132.61508 
L 318.163355 129.367328 
L 315.513163 126.263317 
L 311.723244 122.252774 
L 307.527812 118.307578 
L 307.091542 117.923706 
L 303.572151 114.99084 
L 300.17274 112.412846 
L 295.990678 109.548314 
L 290.911285 106.476849 
L 288.59865 105.213895 
L 284.368187 103.106443 
L 282.513856 102.261316 
L 278.843449 100.722548 
L 271.793512 98.238199 
L 268.756941 97.348706 
L 265.263304 96.453656 
L 260.473931 95.442724 
L 258.406663 95.081648 
L 251.040462 94.15409 
L 249.988905 94.066693 
L 244.576763 93.792092 
L 241.134219 93.76911 
L 235.670696 93.973813 
L 229.186439 94.602167 
L 226.69425 94.956062 
L 220.286191 96.157917 
L 219.717077 96.285293 
L 212.822872 98.103469 
L 211.313552 98.570873 
L 205.893803 100.463049 
L 201.706724 102.162924 
L 197.397427 104.141525 
L 193.065482 106.3793 
L 189.784503 108.251111 
L 185.369416 111.029033 
L 183.409623 112.36388 
L 178.379099 116.103132 
L 174.589432 119.247103 
L 171.802766 121.759948 
L 167.275678 126.254577 
L 166.101579 127.513177 
L 161.114163 133.359276 
L 158.397973 136.939823 
L 157.143726 138.705217 
L 155.049047 141.834237 
L 152.02987 146.813632 
L 149.907245 150.725863 
L 148.552201 153.44553 
L 145.20441 161.168868 
L 143.647714 165.447864 
L 142.656597 168.510304 
L 141.504743 172.533435 
L 140.003018 178.971583 
L 139.443109 181.966894 
L 139.143835 183.794219 
L 138.395478 189.666097 
L 137.973649 195.397332 
z
" style="fill:#b2b3ff;opacity:0.5;"/>
   </g>
   <g id="patch_4">
    <path clip-path="url(#pe62bac5175)" d="M 82.765641 195.397332 
L 83.404114 186.743299 
L 84.066669 181.120825 
L 85.051925 174.779897 
L 86.696331 166.63319 
L 88.510666 159.448133 
L 90.842501 151.76761 
L 91.579564 149.591146 
L 94.826459 141.014292 
L 98.344174 133.074637 
L 100.947003 127.848151 
L 104.101798 122.081391 
L 107.727379 116.072231 
L 110.527964 111.803859 
L 113.519719 107.549277 
L 118.830947 100.654505 
L 124.241865 94.356143 
L 126.323447 92.10155 
L 131.283628 87.062157 
L 135.73594 82.899855 
L 141.695097 77.802298 
L 150.218896 71.338985 
L 156.675601 67.016274 
L 161.044773 64.344806 
L 163.997845 62.648101 
L 172.363899 58.28921 
L 177.693411 55.837631 
L 182.148134 53.971663 
L 187.696791 51.870997 
L 195.814919 49.225138 
L 199.47482 48.192442 
L 211.007799 45.563457 
L 217.573088 44.478529 
L 219.613217 44.200913 
L 230.134005 43.211171 
L 233.131814 43.063673 
L 242.131362 42.977629 
L 248.142419 43.21888 
L 255.052378 43.794305 
L 261.613556 44.639877 
L 265.012235 45.194359 
L 272.732171 46.755893 
L 278.225039 48.129066 
L 284.482619 49.968802 
L 292.204701 52.661635 
L 296.937853 54.554588 
L 302.29062 56.929719 
L 307.921439 59.711891 
L 311.706954 61.755488 
L 320.256814 66.926424 
L 323.978691 69.438206 
L 328.90686 73.032442 
L 334.599783 77.602595 
L 340.995595 83.344253 
L 343.574172 85.864733 
L 349.589705 92.276848 
L 351.542844 94.538876 
L 355.866211 99.912371 
L 358.966549 104.121844 
L 364.185329 112.039103 
L 365.448407 114.144132 
L 369.4426 121.41828 
L 372.318974 127.3909 
L 373.640952 130.405698 
L 375.340124 134.597045 
L 378.634823 144.141002 
L 379.518031 147.161797 
L 381.674786 155.975154 
L 382.013072 157.6379 
L 383.128379 164.11858 
L 383.738879 168.830418 
L 384.428206 177.513356 
L 384.575554 184.505031 
L 384.40463 190.648391 
L 384.169333 194.295968 
L 383.839623 197.884898 
L 382.718855 206.063031 
L 381.359258 212.983051 
L 381.071656 214.236108 
L 379.140824 221.518383 
L 376.987082 228.137961 
L 374.755552 233.972901 
L 374.105464 235.528436 
L 371.717491 240.807676 
L 367.136564 249.490733 
L 364.962304 253.115286 
L 362.070454 257.551294 
L 357.846209 263.381573 
L 355.090657 266.837904 
L 352.809079 269.521133 
L 347.94814 274.766804 
L 344.724271 277.934286 
L 339.19345 282.867859 
L 335.107715 286.151672 
L 331.991208 288.4709 
L 325.633625 292.749602 
L 321.735981 295.096606 
L 316.763735 297.810561 
L 313.576829 299.39422 
L 309.60989 301.204075 
L 305.274231 302.986134 
L 297.880321 305.576602 
L 295.79754 306.20813 
L 287.193223 308.378293 
L 283.605467 309.079801 
L 279.718555 309.70779 
L 276.063728 310.174458 
L 268.505407 310.762521 
L 267.135202 310.814924 
L 261.439262 310.854333 
L 256.310003 310.642342 
L 252.213523 310.302638 
L 243.496371 309.064484 
L 240.95987 308.568985 
L 233.802502 306.82813 
L 230.058402 305.708035 
L 226.012482 304.32769 
L 221.800712 302.694171 
L 218.464283 301.25027 
L 213.558289 298.870732 
L 209.780481 296.815442 
L 203.941585 293.21839 
L 202.356555 292.146054 
L 196.828236 288.047255 
L 193.283214 285.092193 
L 190.692018 282.748035 
L 188.11208 280.24101 
L 183.453663 275.206674 
L 182.922756 274.585695 
L 179.672313 270.535963 
L 175.664769 264.838619 
L 174.920639 263.675372 
L 173.004607 260.49384 
L 170.752544 256.341312 
L 167.873139 250.133969 
L 166.717891 247.239666 
L 164.864213 241.841691 
L 163.85856 238.320536 
L 162.844106 234.033243 
L 162.246486 230.904643 
L 161.928408 228.915998 
L 161.332127 223.836138 
L 161.080454 219.831648 
L 161.040349 214.713795 
L 161.264529 210.281108 
L 161.302457 209.813031 
L 161.957432 204.30994 
L 162.630236 200.562878 
L 163.592339 196.443522 
L 164.765148 192.433159 
L 165.400001 190.551901 
L 167.103744 186.167201 
L 168.261553 183.58952 
L 170.001778 180.152557 
L 171.233247 177.969812 
L 173.133347 174.922341 
L 175.102583 172.098548 
L 177.711391 168.779655 
L 180.303292 165.872447 
L 182.420203 163.740947 
L 185.948034 160.602618 
L 188.083836 158.923882 
L 189.256092 158.066806 
L 192.584888 155.862397 
L 194.855529 154.540049 
L 199.03017 152.461107 
L 201.921687 151.27179 
L 203.023229 150.870248 
L 205.883671 149.956526 
L 209.148989 149.136201 
L 213.376816 148.420659 
L 216.468751 148.144646 
L 216.853534 148.125049 
L 222.040394 148.187593 
L 222.747196 148.244454 
L 225.826982 148.634465 
L 227.702777 148.990246 
L 231.884647 150.1344 
L 233.662746 150.781944 
L 235.53931 151.581976 
L 237.228181 152.414472 
L 239.27521 153.58392 
L 241.218405 154.880975 
L 241.804671 155.312946 
L 243.781623 156.931109 
L 245.236265 158.308508 
L 247.113127 160.387208 
L 248.371597 162.031924 
L 249.508979 163.758245 
L 250.690198 165.898792 
L 251.097309 166.753225 
L 252.372624 170.099796 
L 252.745619 171.419805 
L 253.336221 174.388987 
L 253.59504 177.21715 
L 253.607487 179.161657 
L 253.478506 181.197701 
L 253.20108 183.255484 
L 253.041916 184.111647 
L 252.579256 186.07327 
L 251.975154 188.042408 
L 251.712111 188.779771 
L 250.786969 191.017756 
L 249.666839 193.249013 
L 248.389666 195.397332 
L 248.389666 195.397332 
L 249.359613 193.785497 
L 250.209295 192.164307 
L 250.544384 191.452194 
L 251.418045 189.310002 
L 251.983749 187.572923 
L 252.424891 185.841275 
L 252.741508 184.140519 
L 252.942908 182.453149 
L 253.037172 180.392273 
L 253.035266 179.925608 
L 252.917893 177.812948 
L 252.446702 174.858146 
L 252.091323 173.453814 
L 251.273978 171.054045 
L 250.497383 169.303626 
L 249.592165 167.620734 
L 248.657478 166.146659 
L 247.173572 164.178687 
L 246.687041 163.609019 
L 245.012332 161.866125 
L 243.426951 160.466435 
L 241.803915 159.232131 
L 239.23605 157.608756 
L 237.622837 156.761324 
L 235.950318 156.003656 
L 232.899582 154.900399 
L 230.766056 154.319611 
L 228.598608 153.875078 
L 225.61865 153.485651 
L 223.965943 153.374245 
L 220.370915 153.376904 
L 218.534531 153.503955 
L 216.888795 153.688644 
L 214.462824 154.082111 
L 211.677592 154.712106 
L 209.113281 155.462609 
L 206.680925 156.329127 
L 203.183072 157.849936 
L 201.525949 158.689084 
L 198.893866 160.1888 
L 197.41197 161.128418 
L 193.451879 164.009337 
L 192.015984 165.200159 
L 190.824718 166.253598 
L 188.499994 168.49692 
L 186.413164 170.748601 
L 184.466132 173.086443 
L 181.907496 176.581147 
L 180.322768 179.043848 
L 178.319635 182.582607 
L 177.117266 185.001981 
L 176.405003 186.569201 
L 174.807213 190.568986 
L 173.51709 194.516589 
L 172.790767 197.201281 
L 172.050357 200.530592 
L 171.580304 203.195611 
L 171.113316 206.782046 
L 170.789004 211.236845 
L 170.745321 212.589477 
L 170.767547 216.731613 
L 171.125696 221.939358 
L 171.200447 222.627796 
L 171.912526 227.497796 
L 172.874957 232.064429 
L 173.78446 235.477568 
L 174.215679 236.909979 
L 176.221573 242.585763 
L 177.532805 245.702356 
L 178.551612 247.900714 
L 180.097348 250.946633 
L 181.801727 253.983899 
L 184.119118 257.692909 
L 185.812056 260.155944 
L 188.948822 264.280426 
L 192.1005 267.958163 
L 194.016073 270.00387 
L 196.364979 272.34292 
L 200.823351 276.337863 
L 203.377025 278.397132 
L 208.339577 281.988124 
L 210.526671 283.41566 
L 215.195595 286.179038 
L 215.615347 286.409642 
L 221.426571 289.32344 
L 226.369477 291.420918 
L 230.773777 293.019049 
L 231.956219 293.406828 
L 238.473305 295.245832 
L 241.751476 295.987306 
L 246.582484 296.865712 
L 251.318299 297.486463 
L 255.221214 297.823684 
L 257.709325 297.957741 
L 263.036148 298.035365 
L 266.751968 297.921669 
L 270.545347 297.663685 
L 274.966356 297.181591 
L 282.443829 295.916684 
L 283.108992 295.776406 
L 288.183499 294.553794 
L 294.404995 292.67757 
L 299.274931 290.90656 
L 301.376416 290.056862 
L 305.620131 288.177255 
L 309.906502 286.04616 
L 313.726124 283.938175 
L 318.584876 280.951072 
L 324.421639 276.865935 
L 327.557044 274.423634 
L 331.269331 271.282621 
L 334.829545 267.989162 
L 335.906579 266.933536 
L 341.921651 260.460022 
L 344.843228 256.907959 
L 345.896319 255.551239 
L 348.117044 252.541852 
L 351.228842 247.93857 
L 353.711741 243.877962 
L 356.545522 238.714479 
L 359.648907 232.199559 
L 360.206659 230.905494 
L 362.243177 225.759001 
L 363.761668 221.365061 
L 365.824937 214.207272 
L 366.634266 210.807895 
L 367.648016 205.720042 
L 368.583809 199.424445 
L 368.994402 195.484799 
L 369.419555 187.604564 
L 369.443382 185.792908 
L 369.197482 177.43025 
L 368.704234 171.819521 
L 368.173896 167.706228 
L 367.210963 162.062656 
L 366.598973 159.118535 
L 364.791953 151.968266 
L 363.016019 146.269014 
L 361.965645 143.292322 
L 360.132703 138.601056 
L 357.133947 131.929593 
L 354.683437 127.147529 
L 351.470672 121.549388 
L 349.049741 117.729632 
L 346.183308 113.567155 
L 344.709961 111.559304 
L 338.78115 104.231547 
L 337.710194 103.020025 
L 334.237616 99.294807 
L 330.46912 95.569334 
L 324.209134 90.010522 
L 321.526067 87.840775 
L 316.584692 84.141735 
L 312.421805 81.299162 
L 308.743646 78.97872 
L 300.992017 74.624587 
L 298.042105 73.144851 
L 294.346738 71.420114 
L 287.68557 68.654439 
L 283.39737 67.095611 
L 274.942265 64.500933 
L 271.790969 63.689748 
L 262.6455 61.793689 
L 261.828725 61.656723 
L 255.487982 60.76963 
L 245.058674 59.976786 
L 240.38751 59.88605 
L 235.809751 59.954614 
L 228.333628 60.40175 
L 223.013403 60.974466 
L 218.001175 61.709767 
L 214.30321 62.375581 
L 209.404211 63.421523 
L 201.90874 65.392224 
L 197.704894 66.699633 
L 193.267254 68.242989 
L 184.880605 71.638468 
L 180.851622 73.50393 
L 172.851739 77.69244 
L 170.918059 78.807204 
L 162.608008 84.091799 
L 157.905921 87.466675 
L 154.440887 90.149971 
L 152.514706 91.718658 
L 143.765956 99.616543 
L 141.823605 101.561324 
L 138.019022 105.601766 
L 131.707576 113.078592 
L 130.855198 114.173184 
L 125.623989 121.419789 
L 124.103138 123.720277 
L 119.64958 131.078016 
L 116.406897 137.15608 
L 115.422937 139.150749 
L 112.176954 146.361997 
L 110.218328 151.309608 
L 106.750824 161.763241 
L 106.083529 164.140877 
L 104.032688 172.72017 
L 103.329599 176.346316 
L 102.529018 181.253572 
L 101.417956 191.3241 
L 101.16831 195.397332 
z
" style="fill:#ffb2df;opacity:0.5;"/>
   </g>
   <g id="patch_5">
    <path clip-path="url(#pe62bac5175)" d="M 45.960302 195.397332 
L 46.521135 187.142739 
L 47.639814 177.296203 
L 49.553874 165.918946 
L 51.18461 158.440778 
L 52.961065 151.535095 
L 55.688971 142.506247 
L 56.572591 139.87635 
L 60.969073 128.281391 
L 63.369154 122.744395 
L 66.392103 116.359637 
L 71.268611 107.141623 
L 77.294928 97.152188 
L 79.435544 93.902681 
L 86.527312 84.042341 
L 89.319888 80.489858 
L 95.868663 72.774503 
L 103.242891 64.976508 
L 108.185965 60.203582 
L 112.666671 56.157267 
L 119.72447 50.272274 
L 128.731311 43.539313 
L 132.973347 40.641892 
L 142.707197 34.594907 
L 144.0025 33.84985 
L 151.139732 29.980618 
L 165.135573 23.479606 
L 172.720025 20.51476 
L 179.80349 18.078418 
L 181.564461 17.521086 
L 189.400519 15.268184 
L 198.618763 13.080275 
L 205.717711 11.726337 
L 216.810378 10.173 
L 221.301228 9.736209 
L 232.456617 9.124984 
L 236.680325 9.069231 
L 249.883508 9.518247 
L 252.686539 9.735826 
L 260.508787 10.572198 
L 273.694987 12.760467 
L 278.376335 13.778585 
L 289.203107 16.636286 
L 295.597028 18.66597 
L 298.762726 19.768579 
L 311.276228 24.792661 
L 314.726392 26.374056 
L 320.379512 29.160126 
L 325.472642 31.887302 
L 332.345571 35.914901 
L 339.994267 40.90489 
L 347.587493 46.444202 
L 354.246981 51.841162 
L 360.717147 57.631646 
L 366.275228 63.096445 
L 370.281988 67.35541 
L 373.027297 70.445921 
L 381.511112 81.035441 
L 384.125638 84.67141 
L 387.554784 89.763179 
L 390.913445 95.16285 
L 396.931505 106.140206 
L 399.712057 111.955033 
L 401.605953 116.273489 
L 403.962646 122.160719 
L 407.446513 132.320766 
L 408.243188 134.987808 
L 410.988432 145.791243 
L 411.648354 148.949812 
L 413.365888 159.266004 
L 414.121178 165.892413 
L 414.554834 171.574817 
L 414.817761 178.509457 
L 414.599604 190.174567 
L 414.053239 197.324241 
L 413.288023 203.76755 
L 412.951274 206.068032 
L 411.500632 214.137664 
L 409.819437 221.432798 
L 406.898904 231.494887 
L 404.79736 237.525722 
L 402.595912 243.129186 
L 400.81533 247.253653 
L 397.908525 253.376245 
L 394.37798 260.015287 
L 389.880653 267.505404 
L 387.987952 270.394938 
L 382.903755 277.526982 
L 380.030565 281.207635 
L 374.635994 287.546193 
L 368.762145 293.723112 
L 366.207814 296.203923 
L 359.707142 302.023642 
L 355.391011 305.53353 
L 350.192573 309.424199 
L 345.099537 312.908702 
L 338.443394 317.015672 
L 331.476516 320.81617 
L 328.289238 322.396078 
L 324.586609 324.112303 
L 319.793952 326.150518 
L 309.480367 329.870734 
L 306.644389 330.740989 
L 296.267491 333.388746 
L 293.79433 333.898402 
L 288.314679 334.864896 
L 277.73643 336.106157 
L 273.118301 336.392831 
L 268.638047 336.523262 
L 259.280084 336.324823 
L 259.087603 336.314015 
L 252.734642 335.803363 
L 246.962893 335.077046 
L 235.617112 332.896859 
L 235.008494 332.750822 
L 227.69875 330.755498 
L 222.773743 329.151168 
L 216.991625 326.98562 
L 210.424286 324.133021 
L 208.050273 322.992684 
L 199.145969 318.153506 
L 195.594629 315.955084 
L 189.381024 311.695048 
L 185.054114 308.383903 
L 180.938964 304.938382 
L 179.366098 303.537649 
L 172.755937 297.072087 
L 169.94132 293.994073 
L 165.44889 288.591783 
L 164.155802 286.908301 
L 161.372822 283.056382 
L 156.540079 275.456693 
L 155.96058 274.449756 
L 153.370504 269.62994 
L 151.250161 265.209276 
L 149.555879 261.270135 
L 146.759698 253.609143 
L 145.064527 247.823522 
L 144.47056 245.455552 
L 143.036366 238.399963 
L 142.415389 234.181961 
L 141.916652 229.317957 
L 141.648125 224.382459 
L 141.60319 220.909243 
L 141.783702 215.316493 
L 142.356849 209.109696 
L 142.526283 207.820387 
L 143.544065 201.850535 
L 144.318442 198.377185 
L 145.712582 193.272308 
L 147.602355 187.704859 
L 148.569822 185.241669 
L 151.120937 179.589176 
L 151.965244 177.926577 
L 155.411123 171.921331 
L 156.483832 170.260309 
L 159.599608 165.874676 
L 162.585049 162.181311 
L 165.128333 159.358539 
L 166.938253 157.507354 
L 172.138718 152.815709 
L 175.304658 150.357207 
L 176.838038 149.262835 
L 180.896853 146.645098 
L 183.319921 145.262989 
L 186.970157 143.418185 
L 189.45882 142.315919 
L 193.735601 140.701926 
L 198.427786 139.322771 
L 201.977808 138.543815 
L 203.579736 138.266029 
L 207.427223 137.785883 
L 212.355604 137.560675 
L 213.670125 137.576071 
L 217.918138 137.850767 
L 219.874837 138.096888 
L 223.390515 138.739565 
L 227.214621 139.752294 
L 231.225052 141.205739 
L 233.67887 142.318679 
L 236.464994 143.818908 
L 238.492398 145.091363 
L 241.116838 147.005404 
L 242.535564 148.187425 
L 244.57015 150.101583 
L 247.198353 153.063402 
L 249.243622 155.908431 
L 250.824644 158.60777 
L 252.440362 162.140084 
L 253.446056 165.108407 
L 253.725307 166.137272 
L 254.419972 169.613373 
L 254.725308 172.632846 
L 254.780318 174.681149 
L 254.618778 177.945616 
L 254.36734 179.959115 
L 253.996716 181.986389 
L 253.339857 184.609994 
L 252.474986 187.242755 
L 251.472666 189.705691 
L 250.609311 191.521085 
L 249.638873 193.330589 
L 248.389666 195.397332 
L 248.389666 195.397332 
L 250.083636 192.499763 
L 251.029026 190.584229 
L 252.020161 188.208173 
L 252.819009 185.832467 
L 253.065968 184.958645 
L 253.757876 181.774874 
L 254.130167 178.574195 
L 254.199463 176.494605 
L 254.133563 174.442664 
L 253.819982 171.616448 
L 253.331167 169.163626 
L 252.652753 166.779528 
L 251.952643 164.862375 
L 250.827536 162.385736 
L 249.705967 160.362654 
L 247.385183 157.011062 
L 246.46748 155.898751 
L 243.485669 152.850521 
L 241.363905 151.080847 
L 239.952628 150.047182 
L 236.270282 147.788777 
L 235.467434 147.369393 
L 230.922639 145.408641 
L 228.443175 144.601302 
L 226.452161 144.07219 
L 223.817078 143.523575 
L 222.10466 143.254696 
L 216.602198 142.827683 
L 215.068432 142.822088 
L 212.935139 142.893623 
L 209.688944 143.176498 
L 204.097835 144.149602 
L 203.026348 144.406275 
L 198.140113 145.867598 
L 195.811748 146.735558 
L 191.54259 148.627965 
L 190.397763 149.204365 
L 186.609568 151.332056 
L 182.173671 154.287504 
L 179.550856 156.296133 
L 178.094314 157.50387 
L 175.176287 160.141119 
L 173.822801 161.471821 
L 170.225015 165.388509 
L 167.911486 168.244809 
L 164.627569 172.866171 
L 163.957298 173.907176 
L 161.059257 178.892247 
L 159.464439 182.054265 
L 157.876028 185.605649 
L 156.371974 189.471666 
L 155.677785 191.479393 
L 154.399984 195.704416 
L 152.781436 202.779544 
L 152.586921 203.871174 
L 152.055985 207.393549 
L 151.557767 212.278767 
L 151.310242 218.90836 
L 151.46775 224.363224 
L 151.659675 227.002999 
L 152.266048 232.259449 
L 152.468021 233.596486 
L 153.552947 239.318184 
L 154.859822 244.539371 
L 156.886388 250.936639 
L 157.317599 252.12927 
L 158.723855 255.727966 
L 160.733134 260.273335 
L 164.66254 267.785899 
L 166.259195 270.46236 
L 169.209257 274.980023 
L 172.517362 279.512433 
L 173.41791 280.664071 
L 176.362654 284.218053 
L 181.255677 289.507633 
L 185.419737 293.505696 
L 188.728354 296.402301 
L 192.550339 299.476666 
L 195.531621 301.692026 
L 199.010912 304.092702 
L 203.001666 306.62085 
L 207.853044 309.397018 
L 214.203776 312.582633 
L 221.503655 315.674678 
L 225.44055 317.108732 
L 231.530484 319.025316 
L 236.219551 320.262829 
L 238.683059 320.832981 
L 246.363044 322.268812 
L 250.370714 322.818293 
L 253.973063 323.198143 
L 260.510565 323.616418 
L 264.749493 323.703239 
L 271.113361 323.563799 
L 276.972275 323.149933 
L 282.324206 322.531949 
L 290.090988 321.223146 
L 294.532619 320.251677 
L 302.480335 318.096894 
L 306.289247 316.869194 
L 308.988615 315.920198 
L 317.324093 312.560229 
L 323.12859 309.817082 
L 324.185865 309.279869 
L 333.579522 303.963993 
L 336.602082 302.032763 
L 339.978225 299.737962 
L 345.096629 295.962611 
L 349.795814 292.15397 
L 356.670688 285.913096 
L 358.583564 284.018423 
L 363.101592 279.232899 
L 366.62793 275.15962 
L 372.301504 267.866852 
L 375.685516 262.995175 
L 379.165679 257.480959 
L 381.996921 252.534807 
L 384.964644 246.794959 
L 386.474845 243.605608 
L 389.988114 235.258789 
L 391.421048 231.36453 
L 393.450698 225.149951 
L 394.339886 222.082774 
L 396.771896 211.946873 
L 397.456208 208.336954 
L 398.925251 197.819822 
L 399.289558 193.735979 
L 399.495103 190.547662 
L 399.708729 182.218664 
L 399.437409 173.547686 
L 398.732991 165.483634 
L 398.315814 162.165685 
L 396.874874 153.517411 
L 396.514091 151.73744 
L 393.677246 140.363084 
L 393.380432 139.354607 
L 389.117236 126.999025 
L 389.034285 126.788578 
L 386.193448 120.066107 
L 383.438158 114.275341 
L 377.635458 103.739061 
L 376.029603 101.130165 
L 370.935587 93.533903 
L 367.055725 88.32786 
L 364.161968 84.717848 
L 359.936936 79.810343 
L 355.795362 75.367948 
L 347.456975 67.36225 
L 343.705773 64.116138 
L 339.181984 60.459963 
L 334.915567 57.250014 
L 328.788141 53.009846 
L 323.841487 49.879747 
L 317.31212 46.116407 
L 311.793993 43.239807 
L 301.53934 38.574783 
L 295.411056 36.180751 
L 292.15787 35.02313 
L 284.370459 32.558066 
L 279.300042 31.17725 
L 271.114682 29.30705 
L 260.552126 27.52583 
L 254.542248 26.821068 
L 249.107548 26.372804 
L 241.335436 26.040106 
L 229.693707 26.215222 
L 224.764969 26.53236 
L 219.058534 27.080936 
L 208.577794 28.600941 
L 204.873957 29.299101 
L 196.88441 31.097713 
L 191.276727 32.604168 
L 183.821515 34.928675 
L 173.206011 38.90067 
L 170.558084 40.018171 
L 160.641045 44.680276 
L 155.721904 47.28676 
L 152.191702 49.284763 
L 145.720874 53.239178 
L 135.758576 60.130247 
L 131.802595 63.163517 
L 126.02309 67.931558 
L 119.174036 74.154554 
L 112.399031 81.009432 
L 110.018169 83.605384 
L 103.661389 91.08446 
L 101.746258 93.511768 
L 95.668877 101.843357 
L 92.921381 105.971362 
L 88.220457 113.673206 
L 82.583405 124.263083 
L 81.432835 126.655735 
L 76.338672 138.545069 
L 75.521522 140.700185 
L 71.421255 153.079074 
L 69.898805 158.626783 
L 68.687904 163.623646 
L 67.379755 169.885891 
L 65.908142 178.809895 
L 65.284044 183.784018 
L 64.362971 195.397332 
z
" style="fill:#fff2b2;opacity:0.5;"/>
   </g>
   <g id="matplotlib.axis_1">
    <g id="xtick_1">
     <g id="line2d_1">
      <defs>
       <path d="M 0 0 
L 0 3.5 
" id="m69315910a8" style="stroke:#000000;stroke-width:0.8;"/>
      </defs>
      <g>
       <use style="stroke:#000000;stroke-width:0.8;" x="84.324909" xlink:href="#m69315910a8" y="195.397332"/>
      </g>
     </g>
     <g id="text_1">
      <!-- -4 -->
      <defs>
       <path d="M 4.890625 31.390625 
L 31.203125 31.390625 
L 31.203125 23.390625 
L 4.890625 23.390625 
z
" id="DejaVuSans-2d"/>
       <path d="M 37.796875 64.3125 
L 12.890625 25.390625 
L 37.796875 25.390625 
z
M 35.203125 72.90625 
L 47.609375 72.90625 
L 47.609375 25.390625 
L 58.015625 25.390625 
L 58.015625 17.1875 
L 47.609375 17.1875 
L 47.609375 0 
L 37.796875 0 
L 37.796875 17.1875 
L 4.890625 17.1875 
L 4.890625 26.703125 
z
" id="DejaVuSans-34"/>
      </defs>
      <g transform="translate(79.339752 209.995769)scale(0.1 -0.1)">
       <use xlink:href="#DejaVuSans-2d"/>
       <use x="36.083984" xlink:href="#DejaVuSans-34"/>
      </g>
     </g>
    </g>
    <g id="xtick_2">
     <g id="line2d_2">
      <g>
       <use style="stroke:#000000;stroke-width:0.8;" x="166.357287" xlink:href="#m69315910a8" y="195.397332"/>
      </g>
     </g>
     <g id="text_2">
      <!-- -2 -->
      <defs>
       <path d="M 19.1875 8.296875 
L 53.609375 8.296875 
L 53.609375 0 
L 7.328125 0 
L 7.328125 8.296875 
Q 12.9375 14.109375 22.625 23.890625 
Q 32.328125 33.6875 34.8125 36.53125 
Q 39.546875 41.84375 41.421875 45.53125 
Q 43.3125 49.21875 43.3125 52.78125 
Q 43.3125 58.59375 39.234375 62.25 
Q 35.15625 65.921875 28.609375 65.921875 
Q 23.96875 65.921875 18.8125 64.3125 
Q 13.671875 62.703125 7.8125 59.421875 
L 7.8125 69.390625 
Q 13.765625 71.78125 18.9375 73 
Q 24.125 74.21875 28.421875 74.21875 
Q 39.75 74.21875 46.484375 68.546875 
Q 53.21875 62.890625 53.21875 53.421875 
Q 53.21875 48.921875 51.53125 44.890625 
Q 49.859375 40.875 45.40625 35.40625 
Q 44.1875 33.984375 37.640625 27.21875 
Q 31.109375 20.453125 19.1875 8.296875 
z
" id="DejaVuSans-32"/>
      </defs>
      <g transform="translate(161.372131 209.995769)scale(0.1 -0.1)">
       <use xlink:href="#DejaVuSans-2d"/>
       <use x="36.083984" xlink:href="#DejaVuSans-32"/>
      </g>
     </g>
    </g>
    <g id="xtick_3">
     <g id="line2d_3">
      <g>
       <use style="stroke:#000000;stroke-width:0.8;" x="248.389666" xlink:href="#m69315910a8" y="195.397332"/>
      </g>
     </g>
    </g>
    <g id="xtick_4">
     <g id="line2d_4">
      <g>
       <use style="stroke:#000000;stroke-width:0.8;" x="330.422045" xlink:href="#m69315910a8" y="195.397332"/>
      </g>
     </g>
     <g id="text_3">
      <!-- 2 -->
      <g transform="translate(327.240795 209.995769)scale(0.1 -0.1)">
       <use xlink:href="#DejaVuSans-32"/>
      </g>
     </g>
    </g>
    <g id="xtick_5">
     <g id="line2d_5">
      <g>
       <use style="stroke:#000000;stroke-width:0.8;" x="412.454424" xlink:href="#m69315910a8" y="195.397332"/>
      </g>
     </g>
     <g id="text_4">
      <!-- 4 -->
      <g transform="translate(409.273174 209.995769)scale(0.1 -0.1)">
       <use xlink:href="#DejaVuSans-34"/>
      </g>
     </g>
    </g>
    <g id="xtick_6">
     <g id="line2d_6">
      <defs>
       <path d="M 0 0 
L 0 2 
" id="m086ca3f6f1" style="stroke:#000000;stroke-width:0.6;"/>
      </defs>
      <g>
       <use style="stroke:#000000;stroke-width:0.6;" x="43.308719" xlink:href="#m086ca3f6f1" y="195.397332"/>
      </g>
     </g>
    </g>
    <g id="xtick_7">
     <g id="line2d_7">
      <g>
       <use style="stroke:#000000;stroke-width:0.6;" x="63.816814" xlink:href="#m086ca3f6f1" y="195.397332"/>
      </g>
     </g>
    </g>
    <g id="xtick_8">
     <g id="line2d_8">
      <g>
       <use style="stroke:#000000;stroke-width:0.6;" x="104.833003" xlink:href="#m086ca3f6f1" y="195.397332"/>
      </g>
     </g>
    </g>
    <g id="xtick_9">
     <g id="line2d_9">
      <g>
       <use style="stroke:#000000;stroke-width:0.6;" x="125.341098" xlink:href="#m086ca3f6f1" y="195.397332"/>
      </g>
     </g>
    </g>
    <g id="xtick_10">
     <g id="line2d_10">
      <g>
       <use style="stroke:#000000;stroke-width:0.6;" x="145.849193" xlink:href="#m086ca3f6f1" y="195.397332"/>
      </g>
     </g>
    </g>
    <g id="xtick_11">
     <g id="line2d_11">
      <g>
       <use style="stroke:#000000;stroke-width:0.6;" x="186.865382" xlink:href="#m086ca3f6f1" y="195.397332"/>
      </g>
     </g>
    </g>
    <g id="xtick_12">
     <g id="line2d_12">
      <g>
       <use style="stroke:#000000;stroke-width:0.6;" x="207.373477" xlink:href="#m086ca3f6f1" y="195.397332"/>
      </g>
     </g>
    </g>
    <g id="xtick_13">
     <g id="line2d_13">
      <g>
       <use style="stroke:#000000;stroke-width:0.6;" x="227.881572" xlink:href="#m086ca3f6f1" y="195.397332"/>
      </g>
     </g>
    </g>
    <g id="xtick_14">
     <g id="line2d_14">
      <g>
       <use style="stroke:#000000;stroke-width:0.6;" x="268.897761" xlink:href="#m086ca3f6f1" y="195.397332"/>
      </g>
     </g>
    </g>
    <g id="xtick_15">
     <g id="line2d_15">
      <g>
       <use style="stroke:#000000;stroke-width:0.6;" x="289.405856" xlink:href="#m086ca3f6f1" y="195.397332"/>
      </g>
     </g>
    </g>
    <g id="xtick_16">
     <g id="line2d_16">
      <g>
       <use style="stroke:#000000;stroke-width:0.6;" x="309.913951" xlink:href="#m086ca3f6f1" y="195.397332"/>
      </g>
     </g>
    </g>
    <g id="xtick_17">
     <g id="line2d_17">
      <g>
       <use style="stroke:#000000;stroke-width:0.6;" x="350.93014" xlink:href="#m086ca3f6f1" y="195.397332"/>
      </g>
     </g>
    </g>
    <g id="xtick_18">
     <g id="line2d_18">
      <g>
       <use style="stroke:#000000;stroke-width:0.6;" x="371.438235" xlink:href="#m086ca3f6f1" y="195.397332"/>
      </g>
     </g>
    </g>
    <g id="xtick_19">
     <g id="line2d_19">
      <g>
       <use style="stroke:#000000;stroke-width:0.6;" x="391.94633" xlink:href="#m086ca3f6f1" y="195.397332"/>
      </g>
     </g>
    </g>
   </g>
   <g id="matplotlib.axis_2">
    <g id="ytick_1">
     <g id="line2d_20">
      <defs>
       <path d="M 0 0 
L -3.5 0 
" id="m3110927604" style="stroke:#000000;stroke-width:0.8;"/>
      </defs>
      <g>
       <use style="stroke:#000000;stroke-width:0.8;" x="248.389666" xlink:href="#m3110927604" y="318.4459"/>
      </g>
     </g>
     <g id="text_5">
      <!-- -3 -->
      <defs>
       <path d="M 40.578125 39.3125 
Q 47.65625 37.796875 51.625 33 
Q 55.609375 28.21875 55.609375 21.1875 
Q 55.609375 10.40625 48.1875 4.484375 
Q 40.765625 -1.421875 27.09375 -1.421875 
Q 22.515625 -1.421875 17.65625 -0.515625 
Q 12.796875 0.390625 7.625 2.203125 
L 7.625 11.71875 
Q 11.71875 9.328125 16.59375 8.109375 
Q 21.484375 6.890625 26.8125 6.890625 
Q 36.078125 6.890625 40.9375 10.546875 
Q 45.796875 14.203125 45.796875 21.1875 
Q 45.796875 27.640625 41.28125 31.265625 
Q 36.765625 34.90625 28.71875 34.90625 
L 20.21875 34.90625 
L 20.21875 43.015625 
L 29.109375 43.015625 
Q 36.375 43.015625 40.234375 45.921875 
Q 44.09375 48.828125 44.09375 54.296875 
Q 44.09375 59.90625 40.109375 62.90625 
Q 36.140625 65.921875 28.71875 65.921875 
Q 24.65625 65.921875 20.015625 65.03125 
Q 15.375 64.15625 9.8125 62.3125 
L 9.8125 71.09375 
Q 15.4375 72.65625 20.34375 73.4375 
Q 25.25 74.21875 29.59375 74.21875 
Q 40.828125 74.21875 47.359375 69.109375 
Q 53.90625 64.015625 53.90625 55.328125 
Q 53.90625 49.265625 50.4375 45.09375 
Q 46.96875 40.921875 40.578125 39.3125 
z
" id="DejaVuSans-33"/>
      </defs>
      <g transform="translate(231.419354 322.245119)scale(0.1 -0.1)">
       <use xlink:href="#DejaVuSans-2d"/>
       <use x="36.083984" xlink:href="#DejaVuSans-33"/>
      </g>
     </g>
    </g>
    <g id="ytick_2">
     <g id="line2d_21">
      <g>
       <use style="stroke:#000000;stroke-width:0.8;" x="248.389666" xlink:href="#m3110927604" y="277.429711"/>
      </g>
     </g>
     <g id="text_6">
      <!-- -2 -->
      <g transform="translate(231.419354 281.22893)scale(0.1 -0.1)">
       <use xlink:href="#DejaVuSans-2d"/>
       <use x="36.083984" xlink:href="#DejaVuSans-32"/>
      </g>
     </g>
    </g>
    <g id="ytick_3">
     <g id="line2d_22">
      <g>
       <use style="stroke:#000000;stroke-width:0.8;" x="248.389666" xlink:href="#m3110927604" y="236.413521"/>
      </g>
     </g>
     <g id="text_7">
      <!-- -1 -->
      <defs>
       <path d="M 12.40625 8.296875 
L 28.515625 8.296875 
L 28.515625 63.921875 
L 10.984375 60.40625 
L 10.984375 69.390625 
L 28.421875 72.90625 
L 38.28125 72.90625 
L 38.28125 8.296875 
L 54.390625 8.296875 
L 54.390625 0 
L 12.40625 0 
z
" id="DejaVuSans-31"/>
      </defs>
      <g transform="translate(231.419354 240.21274)scale(0.1 -0.1)">
       <use xlink:href="#DejaVuSans-2d"/>
       <use x="36.083984" xlink:href="#DejaVuSans-31"/>
      </g>
     </g>
    </g>
    <g id="ytick_4">
     <g id="line2d_23">
      <g>
       <use style="stroke:#000000;stroke-width:0.8;" x="248.389666" xlink:href="#m3110927604" y="195.397332"/>
      </g>
     </g>
    </g>
    <g id="ytick_5">
     <g id="line2d_24">
      <g>
       <use style="stroke:#000000;stroke-width:0.8;" x="248.389666" xlink:href="#m3110927604" y="154.381142"/>
      </g>
     </g>
     <g id="text_8">
      <!-- 1 -->
      <g transform="translate(235.027166 158.180361)scale(0.1 -0.1)">
       <use xlink:href="#DejaVuSans-31"/>
      </g>
     </g>
    </g>
    <g id="ytick_6">
     <g id="line2d_25">
      <g>
       <use style="stroke:#000000;stroke-width:0.8;" x="248.389666" xlink:href="#m3110927604" y="113.364953"/>
      </g>
     </g>
     <g id="text_9">
      <!-- 2 -->
      <g transform="translate(235.027166 117.164172)scale(0.1 -0.1)">
       <use xlink:href="#DejaVuSans-32"/>
      </g>
     </g>
    </g>
    <g id="ytick_7">
     <g id="line2d_26">
      <g>
       <use style="stroke:#000000;stroke-width:0.8;" x="248.389666" xlink:href="#m3110927604" y="72.348763"/>
      </g>
     </g>
     <g id="text_10">
      <!-- 3 -->
      <g transform="translate(235.027166 76.147982)scale(0.1 -0.1)">
       <use xlink:href="#DejaVuSans-33"/>
      </g>
     </g>
    </g>
    <g id="ytick_8">
     <g id="line2d_27">
      <g>
       <use style="stroke:#000000;stroke-width:0.8;" x="248.389666" xlink:href="#m3110927604" y="31.332574"/>
      </g>
     </g>
     <g id="text_11">
      <!-- 4 -->
      <g transform="translate(235.027166 35.131793)scale(0.1 -0.1)">
       <use xlink:href="#DejaVuSans-34"/>
      </g>
     </g>
    </g>
    <g id="ytick_9">
     <g id="line2d_28">
      <defs>
       <path d="M 0 0 
L -2 0 
" id="ma7baabe3be" style="stroke:#000000;stroke-width:0.6;"/>
      </defs>
      <g>
       <use style="stroke:#000000;stroke-width:0.6;" x="248.389666" xlink:href="#ma7baabe3be" y="343.055614"/>
      </g>
     </g>
    </g>
    <g id="ytick_10">
     <g id="line2d_29">
      <g>
       <use style="stroke:#000000;stroke-width:0.6;" x="248.389666" xlink:href="#ma7baabe3be" y="334.852376"/>
      </g>
     </g>
    </g>
    <g id="ytick_11">
     <g id="line2d_30">
      <g>
       <use style="stroke:#000000;stroke-width:0.6;" x="248.389666" xlink:href="#ma7baabe3be" y="326.649138"/>
      </g>
     </g>
    </g>
    <g id="ytick_12">
     <g id="line2d_31">
      <g>
       <use style="stroke:#000000;stroke-width:0.6;" x="248.389666" xlink:href="#ma7baabe3be" y="310.242662"/>
      </g>
     </g>
    </g>
    <g id="ytick_13">
     <g id="line2d_32">
      <g>
       <use style="stroke:#000000;stroke-width:0.6;" x="248.389666" xlink:href="#ma7baabe3be" y="302.039424"/>
      </g>
     </g>
    </g>
    <g id="ytick_14">
     <g id="line2d_33">
      <g>
       <use style="stroke:#000000;stroke-width:0.6;" x="248.389666" xlink:href="#ma7baabe3be" y="293.836187"/>
      </g>
     </g>
    </g>
    <g id="ytick_15">
     <g id="line2d_34">
      <g>
       <use style="stroke:#000000;stroke-width:0.6;" x="248.389666" xlink:href="#ma7baabe3be" y="285.632949"/>
      </g>
     </g>
    </g>
    <g id="ytick_16">
     <g id="line2d_35">
      <g>
       <use style="stroke:#000000;stroke-width:0.6;" x="248.389666" xlink:href="#ma7baabe3be" y="269.226473"/>
      </g>
     </g>
    </g>
    <g id="ytick_17">
     <g id="line2d_36">
      <g>
       <use style="stroke:#000000;stroke-width:0.6;" x="248.389666" xlink:href="#ma7baabe3be" y="261.023235"/>
      </g>
     </g>
    </g>
    <g id="ytick_18">
     <g id="line2d_37">
      <g>
       <use style="stroke:#000000;stroke-width:0.6;" x="248.389666" xlink:href="#ma7baabe3be" y="252.819997"/>
      </g>
     </g>
    </g>
    <g id="ytick_19">
     <g id="line2d_38">
      <g>
       <use style="stroke:#000000;stroke-width:0.6;" x="248.389666" xlink:href="#ma7baabe3be" y="244.616759"/>
      </g>
     </g>
    </g>
    <g id="ytick_20">
     <g id="line2d_39">
      <g>
       <use style="stroke:#000000;stroke-width:0.6;" x="248.389666" xlink:href="#ma7baabe3be" y="228.210283"/>
      </g>
     </g>
    </g>
    <g id="ytick_21">
     <g id="line2d_40">
      <g>
       <use style="stroke:#000000;stroke-width:0.6;" x="248.389666" xlink:href="#ma7baabe3be" y="220.007046"/>
      </g>
     </g>
    </g>
    <g id="ytick_22">
     <g id="line2d_41">
      <g>
       <use style="stroke:#000000;stroke-width:0.6;" x="248.389666" xlink:href="#ma7baabe3be" y="211.803808"/>
      </g>
     </g>
    </g>
    <g id="ytick_23">
     <g id="line2d_42">
      <g>
       <use style="stroke:#000000;stroke-width:0.6;" x="248.389666" xlink:href="#ma7baabe3be" y="203.60057"/>
      </g>
     </g>
    </g>
    <g id="ytick_24">
     <g id="line2d_43">
      <g>
       <use style="stroke:#000000;stroke-width:0.6;" x="248.389666" xlink:href="#ma7baabe3be" y="187.194094"/>
      </g>
     </g>
    </g>
    <g id="ytick_25">
     <g id="line2d_44">
      <g>
       <use style="stroke:#000000;stroke-width:0.6;" x="248.389666" xlink:href="#ma7baabe3be" y="178.990856"/>
      </g>
     </g>
    </g>
    <g id="ytick_26">
     <g id="line2d_45">
      <g>
       <use style="stroke:#000000;stroke-width:0.6;" x="248.389666" xlink:href="#ma7baabe3be" y="170.787618"/>
      </g>
     </g>
    </g>
    <g id="ytick_27">
     <g id="line2d_46">
      <g>
       <use style="stroke:#000000;stroke-width:0.6;" x="248.389666" xlink:href="#ma7baabe3be" y="162.58438"/>
      </g>
     </g>
    </g>
    <g id="ytick_28">
     <g id="line2d_47">
      <g>
       <use style="stroke:#000000;stroke-width:0.6;" x="248.389666" xlink:href="#ma7baabe3be" y="146.177904"/>
      </g>
     </g>
    </g>
    <g id="ytick_29">
     <g id="line2d_48">
      <g>
       <use style="stroke:#000000;stroke-width:0.6;" x="248.389666" xlink:href="#ma7baabe3be" y="137.974667"/>
      </g>
     </g>
    </g>
    <g id="ytick_30">
     <g id="line2d_49">
      <g>
       <use style="stroke:#000000;stroke-width:0.6;" x="248.389666" xlink:href="#ma7baabe3be" y="129.771429"/>
      </g>
     </g>
    </g>
    <g id="ytick_31">
     <g id="line2d_50">
      <g>
       <use style="stroke:#000000;stroke-width:0.6;" x="248.389666" xlink:href="#ma7baabe3be" y="121.568191"/>
      </g>
     </g>
    </g>
    <g id="ytick_32">
     <g id="line2d_51">
      <g>
       <use style="stroke:#000000;stroke-width:0.6;" x="248.389666" xlink:href="#ma7baabe3be" y="105.161715"/>
      </g>
     </g>
    </g>
    <g id="ytick_33">
     <g id="line2d_52">
      <g>
       <use style="stroke:#000000;stroke-width:0.6;" x="248.389666" xlink:href="#ma7baabe3be" y="96.958477"/>
      </g>
     </g>
    </g>
    <g id="ytick_34">
     <g id="line2d_53">
      <g>
       <use style="stroke:#000000;stroke-width:0.6;" x="248.389666" xlink:href="#ma7baabe3be" y="88.755239"/>
      </g>
     </g>
    </g>
    <g id="ytick_35">
     <g id="line2d_54">
      <g>
       <use style="stroke:#000000;stroke-width:0.6;" x="248.389666" xlink:href="#ma7baabe3be" y="80.552001"/>
      </g>
     </g>
    </g>
    <g id="ytick_36">
     <g id="line2d_55">
      <g>
       <use style="stroke:#000000;stroke-width:0.6;" x="248.389666" xlink:href="#ma7baabe3be" y="64.145526"/>
      </g>
     </g>
    </g>
    <g id="ytick_37">
     <g id="line2d_56">
      <g>
       <use style="stroke:#000000;stroke-width:0.6;" x="248.389666" xlink:href="#ma7baabe3be" y="55.942288"/>
      </g>
     </g>
    </g>
    <g id="ytick_38">
     <g id="line2d_57">
      <g>
       <use style="stroke:#000000;stroke-width:0.6;" x="248.389666" xlink:href="#ma7baabe3be" y="47.73905"/>
      </g>
     </g>
    </g>
    <g id="ytick_39">
     <g id="line2d_58">
      <g>
       <use style="stroke:#000000;stroke-width:0.6;" x="248.389666" xlink:href="#ma7baabe3be" y="39.535812"/>
      </g>
     </g>
    </g>
    <g id="ytick_40">
     <g id="line2d_59">
      <g>
       <use style="stroke:#000000;stroke-width:0.6;" x="248.389666" xlink:href="#ma7baabe3be" y="23.129336"/>
      </g>
     </g>
    </g>
    <g id="ytick_41">
     <g id="line2d_60">
      <g>
       <use style="stroke:#000000;stroke-width:0.6;" x="248.389666" xlink:href="#ma7baabe3be" y="14.926098"/>
      </g>
     </g>
    </g>
    <g id="ytick_42">
     <g id="line2d_61">
      <g>
       <use style="stroke:#000000;stroke-width:0.6;" x="248.389666" xlink:href="#ma7baabe3be" y="6.72286"/>
      </g>
     </g>
    </g>
   </g>
   <g id="line2d_62">
    <path clip-path="url(#pe62bac5175)" d="M 248.389666 195.397332 
L 249.946548 192.567519 
L 250.624846 190.930838 
L 251.305442 188.705899 
L 251.615698 187.193079 
L 251.873794 184.303744 
L 251.812869 182.509365 
L 251.542988 180.527677 
L 251.193426 179.037447 
L 250.27576 176.481354 
L 249.241878 174.480827 
L 248.311343 173.061075 
L 245.950468 170.338854 
L 244.579441 169.127398 
L 242.626484 167.718846 
L 240.352816 166.439063 
L 238.264246 165.535137 
L 235.465978 164.660841 
L 232.473127 164.092132 
L 228.866022 163.850287 
L 227.024788 163.900311 
L 224.171182 164.200084 
L 222.614144 164.476112 
L 220.633552 164.942098 
L 218.290394 165.661944 
L 214.52201 167.218809 
L 211.227906 169.015323 
L 210.119301 169.720093 
L 208.059559 171.176761 
L 205.076788 173.666811 
L 203.198529 175.504608 
L 199.903499 179.3668 
L 198.010998 182.064862 
L 196.675881 184.255057 
L 195.522006 186.398638 
L 193.917748 189.918328 
L 193.226706 191.710218 
L 192.342973 194.373817 
L 191.397084 197.99647 
L 190.878936 200.652805 
L 190.417403 204.081643 
L 190.153168 208.441496 
L 190.215237 212.389647 
L 190.630357 216.898714 
L 190.976687 219.160343 
L 192.038215 224.022745 
L 192.783351 226.609264 
L 194.354485 231.016643 
L 195.852383 234.442699 
L 196.901676 236.550193 
L 199.166958 240.526255 
L 200.768576 242.982887 
L 203.699171 246.923546 
L 205.332624 248.873012 
L 209.723054 253.441509 
L 214.426529 257.488386 
L 218.027269 260.120347 
L 222.518093 262.933753 
L 227.825878 265.68424 
L 229.89626 266.606674 
L 233.150338 267.899893 
L 239.091637 269.802404 
L 242.294026 270.598283 
L 248.562082 271.720436 
L 255.428663 272.319657 
L 258.698314 272.380979 
L 264.433123 272.144744 
L 267.900494 271.789671 
L 270.969934 271.340857 
L 276.129604 270.297066 
L 279.705423 269.355439 
L 284.660897 267.743064 
L 290.351748 265.425476 
L 293.985283 263.666164 
L 300.372512 259.990618 
L 305.026832 256.787117 
L 308.630424 253.957561 
L 311.746581 251.230797 
L 314.584878 248.490218 
L 317.09468 245.834058 
L 319.058724 243.582035 
L 322.205685 239.602081 
L 324.240688 236.739582 
L 326.333946 233.505762 
L 329.106243 228.651987 
L 331.112319 224.601132 
L 332.703248 220.944087 
L 334.710833 215.507679 
L 335.672156 212.419497 
L 337.271998 206.037705 
L 337.97395 202.320115 
L 338.862666 195.236948 
L 339.149967 190.065746 
L 339.089087 183.627516 
L 338.835065 179.814694 
L 338.030877 173.3476 
L 337.500174 170.368325 
L 336.801657 167.109687 
L 335.065959 160.726929 
L 333.97369 157.435112 
L 332.128367 152.635101 
L 330.763739 149.521993 
L 328.704944 145.329841 
L 327.293218 142.72962 
L 324.466486 138.039826 
L 320.701908 132.61508 
L 318.163355 129.367328 
L 315.513163 126.263317 
L 311.723244 122.252774 
L 307.091542 117.923706 
L 303.572151 114.99084 
L 300.17274 112.412846 
L 295.990678 109.548314 
L 290.911285 106.476849 
L 288.59865 105.213895 
L 282.513856 102.261316 
L 278.843449 100.722548 
L 271.793512 98.238199 
L 268.756941 97.348706 
L 265.263304 96.453656 
L 258.406663 95.081648 
L 249.988905 94.066693 
L 244.576763 93.792092 
L 241.134219 93.76911 
L 235.670696 93.973813 
L 229.186439 94.602167 
L 226.69425 94.956062 
L 219.717077 96.285293 
L 211.313552 98.570873 
L 205.893803 100.463049 
L 201.706724 102.162924 
L 197.397427 104.141525 
L 193.065482 106.3793 
L 189.784503 108.251111 
L 183.409623 112.36388 
L 178.379099 116.103132 
L 174.589432 119.247103 
L 171.802766 121.759948 
L 166.101579 127.513177 
L 161.114163 133.359276 
L 157.143726 138.705217 
L 155.049047 141.834237 
L 152.02987 146.813632 
L 148.552201 153.44553 
L 145.20441 161.168868 
L 143.647714 165.447864 
L 142.656597 168.510304 
L 141.504743 172.533435 
L 140.003018 178.971583 
L 139.143835 183.794219 
L 138.395478 189.666097 
L 137.973649 195.397332 
L 137.973649 195.397332 
" style="fill:none;stroke:#0000cc;stroke-linecap:square;"/>
   </g>
   <g id="line2d_63">
    <path clip-path="url(#pe62bac5175)" d="M 248.389666 195.397332 
L 250.126945 192.265366 
L 250.971659 190.256088 
L 251.793041 187.583986 
L 252.388338 183.893848 
L 252.456012 182.003115 
L 252.302026 179.553088 
L 252.074345 178.079836 
L 251.363616 175.333853 
L 250.21591 172.528682 
L 249.283587 170.827581 
L 247.662891 168.49704 
L 246.627692 167.278127 
L 244.022634 164.812651 
L 242.73458 163.829092 
L 240.32279 162.300033 
L 237.36135 160.868075 
L 235.819747 160.283994 
L 232.083878 159.257401 
L 229.550497 158.840117 
L 227.39947 158.646637 
L 222.88698 158.689008 
L 220.626197 158.929309 
L 216.89639 159.639256 
L 214.181061 160.403389 
L 210.34137 161.851637 
L 206.823213 163.580249 
L 202.938186 165.98266 
L 199.886066 168.283744 
L 195.454534 172.411444 
L 194.081054 173.920063 
L 192.481366 175.843935 
L 190.111265 179.090848 
L 187.551807 183.300451 
L 185.402901 187.673139 
L 183.576381 192.400221 
L 182.513925 195.918281 
L 181.47101 200.5265 
L 180.889912 204.321201 
L 180.531028 208.392205 
L 180.442358 210.875593 
L 180.461701 213.790916 
L 180.61058 216.674694 
L 180.878993 219.483406 
L 181.715434 224.769736 
L 182.651115 228.811887 
L 183.754992 232.561252 
L 185.169314 236.50156 
L 186.99731 240.740916 
L 188.455392 243.666476 
L 191.469756 248.854008 
L 194.070882 252.666501 
L 196.099241 255.322397 
L 198.069517 257.685739 
L 201.054108 260.926506 
L 203.974531 263.765078 
L 208.242442 267.423447 
L 214.880846 272.17235 
L 216.916026 273.433166 
L 221.061778 275.753574 
L 223.677596 277.059178 
L 228.576303 279.202312 
L 234.448318 281.294772 
L 238.69735 282.509769 
L 244.658704 283.818804 
L 253.05301 284.922972 
L 259.087746 285.205586 
L 264.989941 285.078321 
L 269.563573 284.706746 
L 272.280171 284.372783 
L 275.582652 283.852111 
L 278.779175 283.226857 
L 285.133265 281.62127 
L 288.258917 280.648945 
L 291.842057 279.380367 
L 294.706908 278.243651 
L 297.942627 276.823598 
L 302.975977 274.311659 
L 305.251066 273.048056 
L 309.445391 270.493659 
L 312.155111 268.677899 
L 316.947912 265.116467 
L 319.278832 263.207534 
L 321.822605 260.978351 
L 326.629888 256.298173 
L 328.944928 253.795691 
L 331.253613 251.114029 
L 333.453892 248.363126 
L 336.102476 244.759985 
L 340.633617 237.66812 
L 343.57809 232.213025 
L 345.00212 229.24585 
L 347.511311 223.293246 
L 348.683471 220.081798 
L 350.259979 215.116172 
L 351.627748 209.874397 
L 352.625275 205.07232 
L 353.872929 195.984586 
L 354.312041 186.921925 
L 353.935169 177.516685 
L 353.593294 174.141438 
L 352.553521 167.257506 
L 351.168852 160.869362 
L 349.655072 155.412183 
L 347.897178 150.157217 
L 345.393237 143.885709 
L 344.092432 141.016405 
L 342.450295 137.679174 
L 339.768474 132.770651 
L 337.999722 129.829026 
L 335.099738 125.413525 
L 331.940743 121.076682 
L 328.683621 117.027298 
L 323.792317 111.603142 
L 318.973137 106.893297 
L 316.608838 104.779241 
L 311.135143 100.316974 
L 306.576211 97.010057 
L 303.84785 95.190787 
L 298.959825 92.20509 
L 296.373854 90.758369 
L 290.229345 87.661383 
L 285.4496 85.561706 
L 280.904912 83.799575 
L 276.461723 82.286177 
L 269.914377 80.414598 
L 263.334245 78.943873 
L 260.152883 78.374964 
L 255.188266 77.667468 
L 248.00662 77.025001 
L 239.619792 76.834641 
L 235.19067 76.975462 
L 227.731111 77.590281 
L 224.159578 78.05374 
L 217.860147 79.142295 
L 211.942832 80.486792 
L 209.042802 81.262592 
L 199.506953 84.378237 
L 193.31595 86.889309 
L 187.900799 89.424064 
L 182.608779 92.228046 
L 176.965013 95.603475 
L 172.021063 98.917081 
L 168.239264 101.698159 
L 162.148846 106.677853 
L 160.11612 108.491731 
L 154.779437 113.664989 
L 149.735327 119.183636 
L 147.972216 121.280299 
L 144.692942 125.447199 
L 141.683301 129.621462 
L 139.297992 133.209603 
L 135.380558 139.762418 
L 132.559302 145.128336 
L 129.662609 151.405977 
L 127.414967 157.020686 
L 124.503257 165.803788 
L 123.581649 169.13582 
L 121.533648 178.335386 
L 120.874157 182.264701 
L 119.914153 190.300256 
L 119.57098 195.397332 
L 119.57098 195.397332 
" style="fill:none;stroke:#3ccc00;stroke-linecap:square;"/>
   </g>
   <g id="line2d_64">
    <path clip-path="url(#pe62bac5175)" d="M 248.389666 195.397332 
L 250.209295 192.164307 
L 250.544384 191.452194 
L 251.418045 189.310002 
L 251.983749 187.572923 
L 252.424891 185.841275 
L 252.942908 182.453149 
L 253.035266 179.925608 
L 252.917893 177.812948 
L 252.446702 174.858146 
L 252.091323 173.453814 
L 251.273978 171.054045 
L 250.497383 169.303626 
L 249.592165 167.620734 
L 248.657478 166.146659 
L 246.687041 163.609019 
L 245.012332 161.866125 
L 243.426951 160.466435 
L 241.803915 159.232131 
L 239.23605 157.608756 
L 235.950318 156.003656 
L 232.899582 154.900399 
L 230.766056 154.319611 
L 228.598608 153.875078 
L 223.965943 153.374245 
L 220.370915 153.376904 
L 216.888795 153.688644 
L 214.462824 154.082111 
L 211.677592 154.712106 
L 209.113281 155.462609 
L 206.680925 156.329127 
L 201.525949 158.689084 
L 197.41197 161.128418 
L 193.451879 164.009337 
L 190.824718 166.253598 
L 188.499994 168.49692 
L 186.413164 170.748601 
L 184.466132 173.086443 
L 181.907496 176.581147 
L 180.322768 179.043848 
L 178.319635 182.582607 
L 176.405003 186.569201 
L 174.807213 190.568986 
L 173.51709 194.516589 
L 172.790767 197.201281 
L 172.050357 200.530592 
L 171.580304 203.195611 
L 171.113316 206.782046 
L 170.745321 212.589477 
L 170.767547 216.731613 
L 171.200447 222.627796 
L 171.912526 227.497796 
L 172.874957 232.064429 
L 174.215679 236.909979 
L 176.221573 242.585763 
L 178.551612 247.900714 
L 180.097348 250.946633 
L 181.801727 253.983899 
L 184.119118 257.692909 
L 185.812056 260.155944 
L 188.948822 264.280426 
L 192.1005 267.958163 
L 194.016073 270.00387 
L 196.364979 272.34292 
L 200.823351 276.337863 
L 203.377025 278.397132 
L 208.339577 281.988124 
L 210.526671 283.41566 
L 215.615347 286.409642 
L 221.426571 289.32344 
L 226.369477 291.420918 
L 231.956219 293.406828 
L 238.473305 295.245832 
L 241.751476 295.987306 
L 246.582484 296.865712 
L 251.318299 297.486463 
L 257.709325 297.957741 
L 263.036148 298.035365 
L 266.751968 297.921669 
L 270.545347 297.663685 
L 274.966356 297.181591 
L 283.108992 295.776406 
L 288.183499 294.553794 
L 294.404995 292.67757 
L 301.376416 290.056862 
L 305.620131 288.177255 
L 309.906502 286.04616 
L 313.726124 283.938175 
L 318.584876 280.951072 
L 324.421639 276.865935 
L 327.557044 274.423634 
L 331.269331 271.282621 
L 335.906579 266.933536 
L 341.921651 260.460022 
L 345.896319 255.551239 
L 348.117044 252.541852 
L 351.228842 247.93857 
L 353.711741 243.877962 
L 356.545522 238.714479 
L 360.206659 230.905494 
L 362.243177 225.759001 
L 363.761668 221.365061 
L 365.824937 214.207272 
L 366.634266 210.807895 
L 367.648016 205.720042 
L 368.583809 199.424445 
L 368.994402 195.484799 
L 369.443382 185.792908 
L 369.197482 177.43025 
L 368.704234 171.819521 
L 368.173896 167.706228 
L 366.598973 159.118535 
L 364.791953 151.968266 
L 363.016019 146.269014 
L 361.965645 143.292322 
L 360.132703 138.601056 
L 357.133947 131.929593 
L 354.683437 127.147529 
L 351.470672 121.549388 
L 349.049741 117.729632 
L 344.709961 111.559304 
L 337.710194 103.020025 
L 334.237616 99.294807 
L 330.46912 95.569334 
L 324.209134 90.010522 
L 321.526067 87.840775 
L 316.584692 84.141735 
L 312.421805 81.299162 
L 308.743646 78.97872 
L 300.992017 74.624587 
L 298.042105 73.144851 
L 294.346738 71.420114 
L 287.68557 68.654439 
L 283.39737 67.095611 
L 274.942265 64.500933 
L 271.790969 63.689748 
L 261.828725 61.656723 
L 255.487982 60.76963 
L 245.058674 59.976786 
L 240.38751 59.88605 
L 235.809751 59.954614 
L 228.333628 60.40175 
L 223.013403 60.974466 
L 218.001175 61.709767 
L 214.30321 62.375581 
L 209.404211 63.421523 
L 201.90874 65.392224 
L 197.704894 66.699633 
L 193.267254 68.242989 
L 184.880605 71.638468 
L 180.851622 73.50393 
L 170.918059 78.807204 
L 162.608008 84.091799 
L 157.905921 87.466675 
L 152.514706 91.718658 
L 143.765956 99.616543 
L 141.823605 101.561324 
L 138.019022 105.601766 
L 130.855198 114.173184 
L 125.623989 121.419789 
L 124.103138 123.720277 
L 119.64958 131.078016 
L 115.422937 139.150749 
L 112.176954 146.361997 
L 110.218328 151.309608 
L 106.750824 161.763241 
L 106.083529 164.140877 
L 104.032688 172.72017 
L 103.329599 176.346316 
L 102.529018 181.253572 
L 101.417956 191.3241 
L 101.16831 195.397332 
L 101.16831 195.397332 
" style="fill:none;stroke:#cc0077;stroke-linecap:square;"/>
   </g>
   <g id="line2d_65">
    <path clip-path="url(#pe62bac5175)" d="M 248.389666 195.397332 
L 250.233148 192.171523 
L 251.680314 188.865208 
L 252.714834 185.555068 
L 253.1429 183.584871 
L 253.562339 180.159821 
L 253.612719 177.797838 
L 253.410762 174.951067 
L 253.055442 172.767928 
L 252.185265 169.516887 
L 250.838918 166.202472 
L 249.781503 164.215302 
L 248.287485 161.914229 
L 246.914164 160.147709 
L 245.200671 158.272613 
L 242.891661 156.169902 
L 240.787789 154.576252 
L 238.60025 153.177504 
L 235.2328 151.442649 
L 233.203912 150.604937 
L 231.111779 149.884243 
L 228.822922 149.247687 
L 225.4608 148.57568 
L 223.052054 148.272673 
L 219.009577 148.076495 
L 215.626672 148.198976 
L 212.873034 148.485476 
L 209.122901 149.141826 
L 204.896037 150.251178 
L 201.594878 151.396324 
L 197.877192 152.991461 
L 193.932534 155.060613 
L 190.959381 156.897807 
L 188.529649 158.592739 
L 185.031524 161.372128 
L 181.204385 164.940362 
L 178.772067 167.547144 
L 175.454727 171.624458 
L 173.311658 174.6537 
L 170.421136 179.388592 
L 167.360317 185.572213 
L 166.254919 188.248139 
L 163.893308 195.332473 
L 162.540569 201.007187 
L 161.674721 206.307073 
L 161.124348 212.45257 
L 161.038843 214.779658 
L 161.140309 221.118243 
L 161.637374 226.759317 
L 162.956822 234.561502 
L 164.912591 241.99821 
L 167.100007 248.229465 
L 169.373741 253.519461 
L 171.270433 257.341958 
L 174.013002 262.203649 
L 175.969958 265.305102 
L 179.401996 270.178227 
L 181.562831 272.945273 
L 185.810733 277.842219 
L 189.929072 282.025479 
L 195.782716 287.204184 
L 199.342349 289.983437 
L 204.225221 293.405766 
L 210.795488 297.38764 
L 212.971403 298.564601 
L 220.484641 302.140863 
L 224.763123 303.86452 
L 232.693685 306.511797 
L 236.116008 307.44728 
L 240.952518 308.567458 
L 249.194307 309.954032 
L 252.47958 310.32934 
L 259.339627 310.796045 
L 264.428383 310.869562 
L 269.761557 310.699874 
L 278.696231 309.850366 
L 284.576206 308.901604 
L 288.364479 308.123671 
L 298.515965 305.375419 
L 302.680216 303.958023 
L 311.116668 300.537247 
L 317.810886 297.26411 
L 324.636952 293.368886 
L 332.094777 288.396273 
L 340.04569 282.145826 
L 343.657927 278.932612 
L 350.176094 272.437163 
L 353.254236 269.009486 
L 358.213489 262.901544 
L 363.441804 255.497959 
L 367.144836 249.476411 
L 369.967825 244.317199 
L 372.932631 238.200159 
L 376.130519 230.478523 
L 378.93871 222.194179 
L 380.326578 217.250669 
L 381.814602 210.873024 
L 383.414834 201.449044 
L 384.330195 191.982334 
L 384.526815 187.522544 
L 384.446138 177.90669 
L 384.112221 172.65988 
L 383.141691 164.209125 
L 382.300252 159.139922 
L 381.384306 154.625251 
L 379.75986 148.036523 
L 378.08474 142.378701 
L 376.420999 137.488453 
L 372.947762 128.800735 
L 371.44857 125.505525 
L 369.471293 121.474445 
L 367.273109 117.341332 
L 362.896884 109.973945 
L 357.860152 102.582044 
L 355.098345 98.918227 
L 350.173728 92.943236 
L 346.10269 88.464209 
L 341.687159 84.007871 
L 337.606249 80.215787 
L 331.807237 75.301673 
L 321.241029 67.574449 
L 313.975848 63.050507 
L 309.079579 60.321904 
L 301.074616 56.367659 
L 295.239309 53.853414 
L 288.303165 51.241277 
L 277.848534 48.027825 
L 274.094743 47.07588 
L 265.740969 45.32373 
L 258.215396 44.165228 
L 253.937739 43.679758 
L 249.084842 43.278509 
L 243.331417 43.006629 
L 231.366518 43.143334 
L 222.543185 43.851124 
L 212.833416 45.232252 
L 206.892458 46.394423 
L 201.461647 47.672454 
L 193.152936 50.038104 
L 189.811767 51.133596 
L 179.162606 55.204152 
L 167.711534 60.633527 
L 157.711731 66.364874 
L 150.972205 70.810461 
L 144.169608 75.83087 
L 138.972371 80.067836 
L 134.129706 84.364572 
L 129.124441 89.200725 
L 122.873581 95.886938 
L 118.522446 101.03434 
L 115.771036 104.531258 
L 110.386961 112.011822 
L 106.210307 118.514851 
L 102.787984 124.415402 
L 99.044679 131.620589 
L 97.311117 135.289769 
L 94.125252 142.747561 
L 91.549311 149.678521 
L 89.228979 156.932362 
L 87.167071 164.631035 
L 85.549405 172.078929 
L 83.960119 181.922765 
L 83.207668 188.834748 
L 82.765641 195.397332 
L 82.765641 195.397332 
" style="fill:none;stroke:#00b3cc;stroke-linecap:square;"/>
   </g>
   <g id="line2d_66">
    <path clip-path="url(#pe62bac5175)" d="M 248.389666 195.397332 
L 250.083636 192.499763 
L 251.029026 190.584229 
L 252.020161 188.208173 
L 253.065968 184.958645 
L 253.757876 181.774874 
L 254.130167 178.574195 
L 254.199463 176.494605 
L 254.133563 174.442664 
L 253.819982 171.616448 
L 253.331167 169.163626 
L 252.652753 166.779528 
L 251.952643 164.862375 
L 250.827536 162.385736 
L 249.705967 160.362654 
L 247.385183 157.011062 
L 246.46748 155.898751 
L 243.485669 152.850521 
L 239.952628 150.047182 
L 235.467434 147.369393 
L 230.922639 145.408641 
L 228.443175 144.601302 
L 226.452161 144.07219 
L 222.10466 143.254696 
L 216.602198 142.827683 
L 212.935139 142.893623 
L 209.688944 143.176498 
L 203.026348 144.406275 
L 198.140113 145.867598 
L 195.811748 146.735558 
L 190.397763 149.204365 
L 186.609568 151.332056 
L 182.173671 154.287504 
L 178.094314 157.50387 
L 173.822801 161.471821 
L 170.225015 165.388509 
L 167.911486 168.244809 
L 163.957298 173.907176 
L 161.059257 178.892247 
L 159.464439 182.054265 
L 157.876028 185.605649 
L 155.677785 191.479393 
L 154.399984 195.704416 
L 152.586921 203.871174 
L 152.055985 207.393549 
L 151.557767 212.278767 
L 151.310242 218.90836 
L 151.46775 224.363224 
L 151.659675 227.002999 
L 152.468021 233.596486 
L 153.552947 239.318184 
L 154.859822 244.539371 
L 157.317599 252.12927 
L 158.723855 255.727966 
L 160.733134 260.273335 
L 164.66254 267.785899 
L 166.259195 270.46236 
L 169.209257 274.980023 
L 173.41791 280.664071 
L 176.362654 284.218053 
L 181.255677 289.507633 
L 185.419737 293.505696 
L 188.728354 296.402301 
L 192.550339 299.476666 
L 195.531621 301.692026 
L 199.010912 304.092702 
L 203.001666 306.62085 
L 207.853044 309.397018 
L 214.203776 312.582633 
L 221.503655 315.674678 
L 225.44055 317.108732 
L 231.530484 319.025316 
L 238.683059 320.832981 
L 246.363044 322.268812 
L 250.370714 322.818293 
L 253.973063 323.198143 
L 260.510565 323.616418 
L 264.749493 323.703239 
L 271.113361 323.563799 
L 276.972275 323.149933 
L 282.324206 322.531949 
L 290.090988 321.223146 
L 294.532619 320.251677 
L 302.480335 318.096894 
L 308.988615 315.920198 
L 317.324093 312.560229 
L 324.185865 309.279869 
L 333.579522 303.963993 
L 336.602082 302.032763 
L 339.978225 299.737962 
L 345.096629 295.962611 
L 349.795814 292.15397 
L 356.670688 285.913096 
L 358.583564 284.018423 
L 363.101592 279.232899 
L 366.62793 275.15962 
L 372.301504 267.866852 
L 375.685516 262.995175 
L 379.165679 257.480959 
L 381.996921 252.534807 
L 384.964644 246.794959 
L 386.474845 243.605608 
L 389.988114 235.258789 
L 391.421048 231.36453 
L 394.339886 222.082774 
L 396.771896 211.946873 
L 397.456208 208.336954 
L 398.925251 197.819822 
L 399.495103 190.547662 
L 399.708729 182.218664 
L 399.437409 173.547686 
L 398.732991 165.483634 
L 398.315814 162.165685 
L 396.514091 151.73744 
L 393.380432 139.354607 
L 389.034285 126.788578 
L 386.193448 120.066107 
L 383.438158 114.275341 
L 377.635458 103.739061 
L 376.029603 101.130165 
L 370.935587 93.533903 
L 367.055725 88.32786 
L 364.161968 84.717848 
L 359.936936 79.810343 
L 355.795362 75.367948 
L 347.456975 67.36225 
L 343.705773 64.116138 
L 339.181984 60.459963 
L 334.915567 57.250014 
L 328.788141 53.009846 
L 323.841487 49.879747 
L 317.31212 46.116407 
L 311.793993 43.239807 
L 301.53934 38.574783 
L 292.15787 35.02313 
L 284.370459 32.558066 
L 279.300042 31.17725 
L 271.114682 29.30705 
L 260.552126 27.52583 
L 254.542248 26.821068 
L 249.107548 26.372804 
L 241.335436 26.040106 
L 229.693707 26.215222 
L 224.764969 26.53236 
L 219.058534 27.080936 
L 208.577794 28.600941 
L 204.873957 29.299101 
L 196.88441 31.097713 
L 191.276727 32.604168 
L 183.821515 34.928675 
L 173.206011 38.90067 
L 170.558084 40.018171 
L 160.641045 44.680276 
L 155.721904 47.28676 
L 152.191702 49.284763 
L 145.720874 53.239178 
L 135.758576 60.130247 
L 131.802595 63.163517 
L 126.02309 67.931558 
L 119.174036 74.154554 
L 112.399031 81.009432 
L 110.018169 83.605384 
L 103.661389 91.08446 
L 101.746258 93.511768 
L 95.668877 101.843357 
L 92.921381 105.971362 
L 88.220457 113.673206 
L 81.432835 126.655735 
L 75.521522 140.700185 
L 71.421255 153.079074 
L 69.898805 158.626783 
L 68.687904 163.623646 
L 67.379755 169.885891 
L 65.908142 178.809895 
L 65.284044 183.784018 
L 64.362971 195.397332 
L 64.362971 195.397332 
" style="fill:none;stroke:#ccaa00;stroke-linecap:square;"/>
   </g>
   <g id="line2d_67">
    <path clip-path="url(#pe62bac5175)" d="M 248.389666 195.397332 
L 249.910601 192.844522 
L 251.725373 189.127026 
L 252.698481 186.620134 
L 253.778546 182.951369 
L 254.317591 180.273615 
L 254.648663 177.618851 
L 254.767477 175.536498 
L 254.74326 172.9814 
L 254.580897 170.878854 
L 254.009545 167.345125 
L 253.48484 165.243985 
L 252.831829 163.192403 
L 251.473129 159.902616 
L 249.523322 156.347788 
L 248.149709 154.314286 
L 245.943419 151.569248 
L 244.220943 149.752529 
L 240.96348 146.884275 
L 237.890323 144.696161 
L 235.725779 143.394373 
L 232.402519 141.71703 
L 229.008642 140.349815 
L 225.782645 139.332808 
L 220.049807 138.122698 
L 217.325957 137.791424 
L 213.098098 137.565403 
L 208.038893 137.733974 
L 203.577951 138.266313 
L 201.161357 138.702998 
L 197.43279 139.581718 
L 193.685235 140.718924 
L 187.689948 143.086718 
L 183.197206 145.32989 
L 181.319977 146.394349 
L 178.388631 148.216266 
L 172.207373 152.759406 
L 167.787375 156.680233 
L 163.165887 161.512259 
L 160.40362 164.835545 
L 156.898015 169.641306 
L 154.460651 173.468452 
L 153.137562 175.754407 
L 150.975239 179.885258 
L 148.117526 186.36676 
L 146.571157 190.595834 
L 144.974162 195.833341 
L 143.518655 201.975964 
L 142.630356 207.088225 
L 141.925447 213.311199 
L 141.620673 219.417231 
L 141.734563 226.511247 
L 141.983335 230.12506 
L 142.439869 234.37415 
L 143.089918 238.715666 
L 144.751242 246.603056 
L 145.941381 250.964384 
L 147.3829 255.478395 
L 148.717552 259.150611 
L 150.161121 262.725853 
L 152.118665 267.080232 
L 156.561715 275.493835 
L 161.66324 283.474133 
L 165.561619 288.735607 
L 170.519761 294.644445 
L 172.739526 297.054753 
L 178.882391 303.096962 
L 183.247912 306.909205 
L 186.953648 309.874788 
L 192.360656 313.80668 
L 196.652237 316.626892 
L 201.988156 319.798865 
L 208.427153 323.177735 
L 216.413389 326.751645 
L 220.699153 328.410037 
L 224.899206 329.869958 
L 230.94942 331.698488 
L 238.498495 333.547357 
L 246.407276 334.993739 
L 250.654709 335.570698 
L 258.003505 336.248043 
L 265.830266 336.530769 
L 276.058579 336.228188 
L 278.860293 336.012996 
L 288.410919 334.849841 
L 291.571791 334.317311 
L 296.188759 333.40568 
L 302.365115 331.933784 
L 311.095513 329.346219 
L 313.942163 328.369965 
L 323.439537 324.618675 
L 328.174583 322.451123 
L 334.759238 319.086201 
L 340.584747 315.747164 
L 349.774337 309.722171 
L 357.559482 303.803334 
L 364.630803 297.678731 
L 371.326419 291.11135 
L 378.777763 282.742894 
L 381.825748 278.935047 
L 385.918306 273.402056 
L 389.668794 267.835902 
L 393.8239 260.991273 
L 399.739372 249.600102 
L 403.369294 241.230841 
L 405.76384 234.848381 
L 407.823769 228.56367 
L 410.036684 220.571274 
L 411.405447 214.596143 
L 412.63484 208.045143 
L 413.729485 200.323538 
L 414.494092 191.939284 
L 414.760257 186.427513 
L 414.839698 180.606715 
L 414.690966 174.251472 
L 414.244777 167.274418 
L 412.963239 156.451945 
L 411.471514 148.072915 
L 410.233879 142.50465 
L 408.535008 136.007002 
L 406.86159 130.458402 
L 403.270029 120.363071 
L 399.846322 112.250756 
L 394.058316 100.661523 
L 390.874984 95.098422 
L 388.731644 91.605047 
L 382.719546 82.691348 
L 379.910964 78.904286 
L 376.028478 74.001084 
L 368.259009 65.16942 
L 365.361315 62.163969 
L 361.822034 58.679796 
L 353.72135 51.395367 
L 345.585686 44.923393 
L 340.611701 41.332638 
L 334.713001 37.399965 
L 325.096464 31.67858 
L 318.495899 28.204302 
L 308.076719 23.403838 
L 297.055319 19.165722 
L 287.949257 16.268559 
L 278.851902 13.889248 
L 270.019624 12.050694 
L 265.730665 11.320526 
L 250.954218 9.596274 
L 237.718182 9.070292 
L 229.774638 9.210437 
L 223.940283 9.530725 
L 217.853274 10.061758 
L 206.69785 11.56164 
L 196.545657 13.529577 
L 187.829953 15.690365 
L 174.505344 19.870968 
L 167.364162 22.569244 
L 162.511127 24.594424 
L 156.239035 27.45102 
L 142.836494 34.519927 
L 133.380195 40.372675 
L 124.187971 46.8329 
L 120.420096 49.722438 
L 110.94617 57.680991 
L 107.547662 60.801074 
L 100.119452 68.174393 
L 94.971954 73.783904 
L 90.523562 79.009552 
L 87.082982 83.321837 
L 78.447686 95.384827 
L 72.877888 104.339588 
L 66.65596 115.829222 
L 65.399245 118.392288 
L 59.85006 131.033063 
L 58.451257 134.650909 
L 55.630519 142.684615 
L 53.477966 149.699458 
L 50.343034 162.127815 
L 49.319342 167.122442 
L 48.067987 174.36876 
L 46.333039 189.410261 
L 45.960302 195.397332 
L 45.960302 195.397332 
" style="fill:none;stroke:#6e00cc;stroke-linecap:square;"/>
   </g>
   <g id="patch_6">
    <path d="M 248.389666 343.08 
L 248.389666 2.52 
" style="fill:none;stroke:#000000;stroke-linecap:square;stroke-linejoin:miter;stroke-width:0.8;"/>
   </g>
   <g id="patch_7">
    <path d="M 38.582714 195.397332 
L 422.217286 195.397332 
" style="fill:none;stroke:#000000;stroke-linecap:square;stroke-linejoin:miter;stroke-width:0.8;"/>
   </g>
  </g>
 </g>
 <defs>
  <clipPath id="pe62bac5175">
   <rect height="340.56" width="383.634573" x="38.582714" y="2.52"/>
  </clipPath>
 </defs>
</svg>
