<?xml version="1.0" encoding="utf-8" standalone="no"?>
<!DOCTYPE svg PUBLIC "-//W3C//DTD SVG 1.1//EN"
  "http://www.w3.org/Graphics/SVG/1.1/DTD/svg11.dtd">
<svg xmlns:xlink="http://www.w3.org/1999/xlink" width="460.8pt" height="345.6pt" viewBox="0 0 460.8 345.6" xmlns="http://www.w3.org/2000/svg" version="1.1">
 <metadata>
  <rdf:RDF xmlns:dc="http://purl.org/dc/elements/1.1/" xmlns:cc="http://creativecommons.org/ns#" xmlns:rdf="http://www.w3.org/1999/02/22-rdf-syntax-ns#">
   <cc:Work>
    <dc:type rdf:resource="http://purl.org/dc/dcmitype/StillImage"/>
    <dc:date>2024-03-20T19:27:17.394521</dc:date>
    <dc:format>image/svg+xml</dc:format>
    <dc:creator>
     <cc:Agent>
      <dc:title>Matplotlib v3.8.0, https://matplotlib.org/</dc:title>
     </cc:Agent>
    </dc:creator>
   </cc:Work>
  </rdf:RDF>
 </metadata>
 <defs>
  <style type="text/css">*{stroke-linejoin: round; stroke-linecap: butt}</style>
 </defs>
 <g id="figure_1">
  <g id="patch_1">
   <path d="M 0 345.6 
L 460.8 345.6 
L 460.8 0 
L 0 0 
z
" style="fill: #ffffff"/>
  </g>
  <g id="axes_1">
   <g id="patch_2">
    <path d="M 48.669099 345.6 
L 412.130901 345.6 
L 412.130901 0 
L 48.669099 0 
z
" style="fill: #ffffff"/>
   </g>
   <g id="matplotlib.axis_1">
    <g id="xtick_1">
     <g id="line2d_1">
      <defs>
       <path id="m2065b9977a" d="M 0 0 
L 0 3.5 
" style="stroke: #000000; stroke-width: 0.8"/>
      </defs>
      <g>
       <use xlink:href="#m2065b9977a" x="70.342289" y="159.953349" style="stroke: #000000; stroke-width: 0.8"/>
      </g>
     </g>
     <g id="text_1">
      <!-- −2 -->
      <g transform="translate(62.971195 174.551786) scale(0.1 -0.1)">
       <defs>
        <path id="DejaVuSans-2212" d="M 678 2272 
L 4684 2272 
L 4684 1741 
L 678 1741 
L 678 2272 
z
" transform="scale(0.015625)"/>
        <path id="DejaVuSans-32" d="M 1228 531 
L 3431 531 
L 3431 0 
L 469 0 
L 469 531 
Q 828 903 1448 1529 
Q 2069 2156 2228 2338 
Q 2531 2678 2651 2914 
Q 2772 3150 2772 3378 
Q 2772 3750 2511 3984 
Q 2250 4219 1831 4219 
Q 1534 4219 1204 4116 
Q 875 4013 500 3803 
L 500 4441 
Q 881 4594 1212 4672 
Q 1544 4750 1819 4750 
Q 2544 4750 2975 4387 
Q 3406 4025 3406 3419 
Q 3406 3131 3298 2873 
Q 3191 2616 2906 2266 
Q 2828 2175 2409 1742 
Q 1991 1309 1228 531 
z
" transform="scale(0.015625)"/>
       </defs>
       <use xlink:href="#DejaVuSans-2212"/>
       <use xlink:href="#DejaVuSans-32" x="83.789062"/>
      </g>
     </g>
    </g>
    <g id="xtick_2">
     <g id="line2d_2">
      <g>
       <use xlink:href="#m2065b9977a" x="144.992441" y="159.953349" style="stroke: #000000; stroke-width: 0.8"/>
      </g>
     </g>
     <g id="text_2">
      <!-- −1 -->
      <g transform="translate(137.621347 174.551786) scale(0.1 -0.1)">
       <defs>
        <path id="DejaVuSans-31" d="M 794 531 
L 1825 531 
L 1825 4091 
L 703 3866 
L 703 4441 
L 1819 4666 
L 2450 4666 
L 2450 531 
L 3481 531 
L 3481 0 
L 794 0 
L 794 531 
z
" transform="scale(0.015625)"/>
       </defs>
       <use xlink:href="#DejaVuSans-2212"/>
       <use xlink:href="#DejaVuSans-31" x="83.789062"/>
      </g>
     </g>
    </g>
    <g id="xtick_3">
     <g id="line2d_3">
      <g>
       <use xlink:href="#m2065b9977a" x="219.642592" y="159.953349" style="stroke: #000000; stroke-width: 0.8"/>
      </g>
     </g>
    </g>
    <g id="xtick_4">
     <g id="line2d_4">
      <g>
       <use xlink:href="#m2065b9977a" x="294.292744" y="159.953349" style="stroke: #000000; stroke-width: 0.8"/>
      </g>
     </g>
     <g id="text_3">
      <!-- 1 -->
      <g transform="translate(291.111494 174.551786) scale(0.1 -0.1)">
       <use xlink:href="#DejaVuSans-31"/>
      </g>
     </g>
    </g>
    <g id="xtick_5">
     <g id="line2d_5">
      <g>
       <use xlink:href="#m2065b9977a" x="368.942896" y="159.953349" style="stroke: #000000; stroke-width: 0.8"/>
      </g>
     </g>
     <g id="text_4">
      <!-- 2 -->
      <g transform="translate(365.761646 174.551786) scale(0.1 -0.1)">
       <use xlink:href="#DejaVuSans-32"/>
      </g>
     </g>
    </g>
    <g id="xtick_6">
     <g id="line2d_6">
      <defs>
       <path id="m89a12031fb" d="M 0 0 
L 0 2 
" style="stroke: #000000; stroke-width: 0.6"/>
      </defs>
      <g>
       <use xlink:href="#m89a12031fb" x="55.412259" y="159.953349" style="stroke: #000000; stroke-width: 0.6"/>
      </g>
     </g>
    </g>
    <g id="xtick_7">
     <g id="line2d_7">
      <g>
       <use xlink:href="#m89a12031fb" x="85.272319" y="159.953349" style="stroke: #000000; stroke-width: 0.6"/>
      </g>
     </g>
    </g>
    <g id="xtick_8">
     <g id="line2d_8">
      <g>
       <use xlink:href="#m89a12031fb" x="100.20235" y="159.953349" style="stroke: #000000; stroke-width: 0.6"/>
      </g>
     </g>
    </g>
    <g id="xtick_9">
     <g id="line2d_9">
      <g>
       <use xlink:href="#m89a12031fb" x="115.13238" y="159.953349" style="stroke: #000000; stroke-width: 0.6"/>
      </g>
     </g>
    </g>
    <g id="xtick_10">
     <g id="line2d_10">
      <g>
       <use xlink:href="#m89a12031fb" x="130.06241" y="159.953349" style="stroke: #000000; stroke-width: 0.6"/>
      </g>
     </g>
    </g>
    <g id="xtick_11">
     <g id="line2d_11">
      <g>
       <use xlink:href="#m89a12031fb" x="159.922471" y="159.953349" style="stroke: #000000; stroke-width: 0.6"/>
      </g>
     </g>
    </g>
    <g id="xtick_12">
     <g id="line2d_12">
      <g>
       <use xlink:href="#m89a12031fb" x="174.852501" y="159.953349" style="stroke: #000000; stroke-width: 0.6"/>
      </g>
     </g>
    </g>
    <g id="xtick_13">
     <g id="line2d_13">
      <g>
       <use xlink:href="#m89a12031fb" x="189.782532" y="159.953349" style="stroke: #000000; stroke-width: 0.6"/>
      </g>
     </g>
    </g>
    <g id="xtick_14">
     <g id="line2d_14">
      <g>
       <use xlink:href="#m89a12031fb" x="204.712562" y="159.953349" style="stroke: #000000; stroke-width: 0.6"/>
      </g>
     </g>
    </g>
    <g id="xtick_15">
     <g id="line2d_15">
      <g>
       <use xlink:href="#m89a12031fb" x="234.572623" y="159.953349" style="stroke: #000000; stroke-width: 0.6"/>
      </g>
     </g>
    </g>
    <g id="xtick_16">
     <g id="line2d_16">
      <g>
       <use xlink:href="#m89a12031fb" x="249.502653" y="159.953349" style="stroke: #000000; stroke-width: 0.6"/>
      </g>
     </g>
    </g>
    <g id="xtick_17">
     <g id="line2d_17">
      <g>
       <use xlink:href="#m89a12031fb" x="264.432684" y="159.953349" style="stroke: #000000; stroke-width: 0.6"/>
      </g>
     </g>
    </g>
    <g id="xtick_18">
     <g id="line2d_18">
      <g>
       <use xlink:href="#m89a12031fb" x="279.362714" y="159.953349" style="stroke: #000000; stroke-width: 0.6"/>
      </g>
     </g>
    </g>
    <g id="xtick_19">
     <g id="line2d_19">
      <g>
       <use xlink:href="#m89a12031fb" x="309.222775" y="159.953349" style="stroke: #000000; stroke-width: 0.6"/>
      </g>
     </g>
    </g>
    <g id="xtick_20">
     <g id="line2d_20">
      <g>
       <use xlink:href="#m89a12031fb" x="324.152805" y="159.953349" style="stroke: #000000; stroke-width: 0.6"/>
      </g>
     </g>
    </g>
    <g id="xtick_21">
     <g id="line2d_21">
      <g>
       <use xlink:href="#m89a12031fb" x="339.082835" y="159.953349" style="stroke: #000000; stroke-width: 0.6"/>
      </g>
     </g>
    </g>
    <g id="xtick_22">
     <g id="line2d_22">
      <g>
       <use xlink:href="#m89a12031fb" x="354.012866" y="159.953349" style="stroke: #000000; stroke-width: 0.6"/>
      </g>
     </g>
    </g>
    <g id="xtick_23">
     <g id="line2d_23">
      <g>
       <use xlink:href="#m89a12031fb" x="383.872926" y="159.953349" style="stroke: #000000; stroke-width: 0.6"/>
      </g>
     </g>
    </g>
    <g id="xtick_24">
     <g id="line2d_24">
      <g>
       <use xlink:href="#m89a12031fb" x="398.802957" y="159.953349" style="stroke: #000000; stroke-width: 0.6"/>
      </g>
     </g>
    </g>
   </g>
   <g id="matplotlib.axis_2">
    <g id="ytick_1">
     <g id="line2d_25">
      <defs>
       <path id="m58a61a11b6" d="M 0 0 
L -3.5 0 
" style="stroke: #000000; stroke-width: 0.8"/>
      </defs>
      <g>
       <use xlink:href="#m58a61a11b6" x="219.642592" y="309.253652" style="stroke: #000000; stroke-width: 0.8"/>
      </g>
     </g>
     <g id="text_5">
      <!-- −2 -->
      <g transform="translate(197.900405 313.052871) scale(0.1 -0.1)">
       <use xlink:href="#DejaVuSans-2212"/>
       <use xlink:href="#DejaVuSans-32" x="83.789062"/>
      </g>
     </g>
    </g>
    <g id="ytick_2">
     <g id="line2d_26">
      <g>
       <use xlink:href="#m58a61a11b6" x="219.642592" y="234.603501" style="stroke: #000000; stroke-width: 0.8"/>
      </g>
     </g>
     <g id="text_6">
      <!-- −1 -->
      <g transform="translate(197.900405 238.402719) scale(0.1 -0.1)">
       <use xlink:href="#DejaVuSans-2212"/>
       <use xlink:href="#DejaVuSans-31" x="83.789062"/>
      </g>
     </g>
    </g>
    <g id="ytick_3">
     <g id="line2d_27">
      <g>
       <use xlink:href="#m58a61a11b6" x="219.642592" y="159.953349" style="stroke: #000000; stroke-width: 0.8"/>
      </g>
     </g>
    </g>
    <g id="ytick_4">
     <g id="line2d_28">
      <g>
       <use xlink:href="#m58a61a11b6" x="219.642592" y="85.303197" style="stroke: #000000; stroke-width: 0.8"/>
      </g>
     </g>
     <g id="text_7">
      <!-- 1 -->
      <g transform="translate(206.280092 89.102416) scale(0.1 -0.1)">
       <use xlink:href="#DejaVuSans-31"/>
      </g>
     </g>
    </g>
    <g id="ytick_5">
     <g id="line2d_29">
      <g>
       <use xlink:href="#m58a61a11b6" x="219.642592" y="10.653045" style="stroke: #000000; stroke-width: 0.8"/>
      </g>
     </g>
     <g id="text_8">
      <!-- 2 -->
      <g transform="translate(206.280092 14.452264) scale(0.1 -0.1)">
       <use xlink:href="#DejaVuSans-32"/>
      </g>
     </g>
    </g>
    <g id="ytick_6">
     <g id="line2d_30">
      <defs>
       <path id="m259c135c74" d="M 0 0 
L -2 0 
" style="stroke: #000000; stroke-width: 0.6"/>
      </defs>
      <g>
       <use xlink:href="#m259c135c74" x="219.642592" y="339.113713" style="stroke: #000000; stroke-width: 0.6"/>
      </g>
     </g>
    </g>
    <g id="ytick_7">
     <g id="line2d_31">
      <g>
       <use xlink:href="#m259c135c74" x="219.642592" y="324.183683" style="stroke: #000000; stroke-width: 0.6"/>
      </g>
     </g>
    </g>
    <g id="ytick_8">
     <g id="line2d_32">
      <g>
       <use xlink:href="#m259c135c74" x="219.642592" y="294.323622" style="stroke: #000000; stroke-width: 0.6"/>
      </g>
     </g>
    </g>
    <g id="ytick_9">
     <g id="line2d_33">
      <g>
       <use xlink:href="#m259c135c74" x="219.642592" y="279.393592" style="stroke: #000000; stroke-width: 0.6"/>
      </g>
     </g>
    </g>
    <g id="ytick_10">
     <g id="line2d_34">
      <g>
       <use xlink:href="#m259c135c74" x="219.642592" y="264.463561" style="stroke: #000000; stroke-width: 0.6"/>
      </g>
     </g>
    </g>
    <g id="ytick_11">
     <g id="line2d_35">
      <g>
       <use xlink:href="#m259c135c74" x="219.642592" y="249.533531" style="stroke: #000000; stroke-width: 0.6"/>
      </g>
     </g>
    </g>
    <g id="ytick_12">
     <g id="line2d_36">
      <g>
       <use xlink:href="#m259c135c74" x="219.642592" y="219.67347" style="stroke: #000000; stroke-width: 0.6"/>
      </g>
     </g>
    </g>
    <g id="ytick_13">
     <g id="line2d_37">
      <g>
       <use xlink:href="#m259c135c74" x="219.642592" y="204.74344" style="stroke: #000000; stroke-width: 0.6"/>
      </g>
     </g>
    </g>
    <g id="ytick_14">
     <g id="line2d_38">
      <g>
       <use xlink:href="#m259c135c74" x="219.642592" y="189.813409" style="stroke: #000000; stroke-width: 0.6"/>
      </g>
     </g>
    </g>
    <g id="ytick_15">
     <g id="line2d_39">
      <g>
       <use xlink:href="#m259c135c74" x="219.642592" y="174.883379" style="stroke: #000000; stroke-width: 0.6"/>
      </g>
     </g>
    </g>
    <g id="ytick_16">
     <g id="line2d_40">
      <g>
       <use xlink:href="#m259c135c74" x="219.642592" y="145.023318" style="stroke: #000000; stroke-width: 0.6"/>
      </g>
     </g>
    </g>
    <g id="ytick_17">
     <g id="line2d_41">
      <g>
       <use xlink:href="#m259c135c74" x="219.642592" y="130.093288" style="stroke: #000000; stroke-width: 0.6"/>
      </g>
     </g>
    </g>
    <g id="ytick_18">
     <g id="line2d_42">
      <g>
       <use xlink:href="#m259c135c74" x="219.642592" y="115.163258" style="stroke: #000000; stroke-width: 0.6"/>
      </g>
     </g>
    </g>
    <g id="ytick_19">
     <g id="line2d_43">
      <g>
       <use xlink:href="#m259c135c74" x="219.642592" y="100.233227" style="stroke: #000000; stroke-width: 0.6"/>
      </g>
     </g>
    </g>
    <g id="ytick_20">
     <g id="line2d_44">
      <g>
       <use xlink:href="#m259c135c74" x="219.642592" y="70.373167" style="stroke: #000000; stroke-width: 0.6"/>
      </g>
     </g>
    </g>
    <g id="ytick_21">
     <g id="line2d_45">
      <g>
       <use xlink:href="#m259c135c74" x="219.642592" y="55.443136" style="stroke: #000000; stroke-width: 0.6"/>
      </g>
     </g>
    </g>
    <g id="ytick_22">
     <g id="line2d_46">
      <g>
       <use xlink:href="#m259c135c74" x="219.642592" y="40.513106" style="stroke: #000000; stroke-width: 0.6"/>
      </g>
     </g>
    </g>
    <g id="ytick_23">
     <g id="line2d_47">
      <g>
       <use xlink:href="#m259c135c74" x="219.642592" y="25.583076" style="stroke: #000000; stroke-width: 0.6"/>
      </g>
     </g>
    </g>
   </g>
   <g id="line2d_48">
    <path d="M 219.642592 159.953349 
L 219.642592 159.953349 
L 219.642592 159.953349 
L 219.642592 159.953349 
L 219.642592 159.953349 
L 219.642592 159.953349 
L 219.642592 159.953349 
L 219.642592 159.953349 
L 219.642592 159.953349 
L 219.642592 159.953349 
L 219.642592 159.953349 
L 219.642592 159.953349 
L 219.642592 159.953349 
L 219.642592 159.953349 
L 219.642592 159.953349 
L 219.642592 159.953349 
L 219.642592 159.953349 
L 219.642592 159.953349 
L 219.642592 159.953349 
L 219.642592 159.953349 
L 219.642592 159.953349 
L 219.642592 159.953349 
L 219.642592 159.953349 
" clip-path="url(#pc32669112d)" style="fill: none; stroke: #0000ff; stroke-linecap: square"/>
   </g>
   <g id="line2d_49">
    <path d="M 197.566933 113.155278 
L 196.411275 113.71808 
L 193.263436 115.438921 
L 190.318485 117.321308 
L 188.642785 118.523817 
L 186.757902 120.003489 
L 183.63866 122.790047 
L 182.505682 123.922195 
L 179.53889 127.25645 
L 177.705284 129.644005 
L 176.480054 131.41584 
L 174.971035 133.841165 
L 172.572449 138.463915 
L 172.534267 138.547746 
L 170.617312 143.402939 
L 170.230048 144.597742 
L 169.050313 149.099069 
L 168.792168 150.381072 
L 168.504757 152.059306 
" clip-path="url(#pc32669112d)" style="fill: none; stroke: #0000ff; stroke-linecap: square"/>
   </g>
   <g id="line2d_50">
    <path d="M 138.437727 148.478678 
L 138.421511 148.594029 
L 138.38957 148.824801 
L 138.327655 149.28661 
L 138.32332 149.319711 
L 137.810329 154.533116 
L 137.643923 161.408145 
L 137.720115 163.775122 
L 138.009846 167.826909 
L 139.420909 176.993882 
L 140.579 181.744326 
L 141.133802 183.665542 
L 143.023723 189.201376 
L 145.329802 194.644954 
L 146.115144 196.279821 
L 149.668408 202.726142 
L 150.614085 204.236116 
L 153.120923 207.919646 
L 157.454873 213.419093 
L 161.323277 217.614043 
L 162.825819 219.095149 
L 165.321967 221.395744 
L 165.678206 221.708861 
L 165.857003 221.864646 
L 165.946571 221.942344 
" clip-path="url(#pc32669112d)" style="fill: none; stroke: #0000ff; stroke-linecap: square"/>
   </g>
   <g id="line2d_51">
    <path d="M 152.909294 239.049768 
L 153.612699 239.637913 
L 159.460441 244.141741 
L 165.703255 248.271663 
L 171.186985 251.395302 
L 172.86884 252.266905 
L 177.771185 254.591406 
L 183.053429 256.756292 
L 193.352034 260.045222 
L 196.994634 260.931795 
L 204.359743 262.305736 
L 206.131189 262.554609 
L 211.670156 263.132886 
L 221.105328 263.430095 
L 227.904889 263.11008 
L 235.017151 262.292 
L 240.477971 261.32131 
L 246.877049 259.792525 
L 247.848223 259.522516 
L 247.99191 259.481701 
L 248.531167 259.326519 
L 248.800478 259.247832 
" clip-path="url(#pc32669112d)" style="fill: none; stroke: #0000ff; stroke-linecap: square"/>
   </g>
   <g id="line2d_52">
    <path d="M 253.806261 275.138473 
L 255.053374 274.761213 
L 261.59976 272.533832 
L 269.436099 269.29399 
L 274.123722 267.035447 
L 277.832902 265.065941 
L 285.486033 260.449173 
L 293.170906 254.971012 
L 294.889249 253.616095 
L 301.204964 248.17097 
L 308.088775 241.267812 
L 311.940417 236.868112 
L 317.434217 229.749963 
L 319.472787 226.801695 
L 324.010386 219.46917 
L 326.051165 215.738515 
L 330.670859 205.86079 
L 332.90809 200.024489 
L 334.084336 196.530071 
L 334.60605 194.855678 
L 334.805973 194.190244 
L 334.904491 193.857095 
L 334.953388 193.690415 
" clip-path="url(#pc32669112d)" style="fill: none; stroke: #0000ff; stroke-linecap: square"/>
   </g>
   <g id="line2d_53">
    <path d="M 348.493954 195.838692 
L 350.300714 188.569541 
L 351.383673 183.077338 
L 352.374975 176.462308 
L 353.107958 168.752636 
L 353.388961 158.423591 
L 353.248588 153.639161 
L 352.630532 145.648134 
L 351.32414 136.492717 
L 349.962377 129.833836 
L 348.578921 124.374503 
L 344.859152 112.929478 
L 340.984453 103.680941 
L 337.075847 95.923184 
L 334.545949 91.486935 
L 331.359472 86.40221 
L 325.514534 78.212519 
L 321.640143 73.426296 
L 321.490507 73.250215 
L 320.987386 72.662663 
L 320.734554 72.36998 
L 320.607821 72.223913 
" clip-path="url(#pc32669112d)" style="fill: none; stroke: #0000ff; stroke-linecap: square"/>
   </g>
   <g id="line2d_54">
    <path d="M 328.045166 63.257576 
L 326.418863 61.464677 
L 315.658649 50.948269 
L 311.285407 47.246716 
L 304.277128 41.893255 
L 301.995423 40.290482 
L 291.796297 33.877842 
L 287.850044 31.699951 
L 275.549059 25.88002 
L 266.357307 22.407262 
L 259.835775 20.362165 
L 248.613329 17.609094 
L 246.941091 17.278956 
L 238.726404 15.949882 
L 227.070163 14.880879 
L 218.064266 14.699436 
L 211.949813 14.8947 
L 202.821557 15.668065 
L 200.170552 16.001864 
L 199.338384 16.116881 
L 198.922553 16.176193 
L 198.714703 16.206301 
" clip-path="url(#pc32669112d)" style="fill: none; stroke: #0000ff; stroke-linecap: square"/>
   </g>
   <g id="line2d_55">
    <path d="M 195.281733 6.646154 
L 189.641858 7.649365 
L 180.125187 9.836987 
L 177.719846 10.490876 
L 169.594113 13.012214 
L 155.455416 18.614911 
L 145.817125 23.401718 
L 140.706009 26.291225 
L 135.095381 29.767649 
L 125.569254 36.4756 
L 122.524993 38.855374 
L 112.882791 47.263987 
L 104.289399 56.077518 
L 97.618273 64.002252 
L 95.775689 66.393006 
L 91.465883 72.390351 
L 85.002239 82.697135 
L 82.27955 87.648839 
L 78.956655 94.34836 
L 78.579604 95.163066 
L 78.392847 95.571233 
L 78.299911 95.775518 
" clip-path="url(#pc32669112d)" style="fill: none; stroke: #0000ff; stroke-linecap: square"/>
   </g>
   <g id="line2d_56">
    <path d="M 69.424301 94.089413 
L 68.078638 97.247999 
L 65.558028 103.725773 
L 61.277587 117.243653 
L 59.553563 124.244864 
L 57.7109 133.843578 
L 56.905955 139.450179 
L 55.680121 155.492274 
L 55.658749 156.362775 
L 55.809808 167.853478 
L 56.51217 177.043062 
L 57.587532 185.286142 
L 60.302113 198.866131 
L 61.762811 204.423201 
L 66.607942 218.978672 
L 69.791911 226.649424 
L 71.221927 229.773826 
L 75.532572 238.285304 
L 80.992577 247.587624 
L 81.068659 247.707882 
L 81.55927 248.477861 
L 81.806181 248.861823 
L 81.930037 249.053547 
" clip-path="url(#pc32669112d)" style="fill: none; stroke: #0000ff; stroke-linecap: square"/>
   </g>
   <g id="line2d_57">
    <path d="M 76.507196 255.126113 
L 80.612961 261.029352 
L 86.957243 269.224548 
L 93.84516 277.088326 
L 103.259752 286.446951 
L 110.969158 293.128728 
L 115.235738 296.499332 
L 125.347346 303.668356 
L 136.016714 310.127612 
L 144.955012 314.767309 
L 150.322507 317.243916 
L 165.669666 323.148079 
L 166.990041 323.578853 
L 176.611891 326.368359 
L 189.732176 329.219305 
L 203.752038 331.105583 
L 211.800047 331.662671 
L 218.415207 331.837293 
L 219.660885 331.841674 
L 220.283728 331.84048 
" clip-path="url(#pc32669112d)" style="fill: none; stroke: #0000ff; stroke-linecap: square"/>
   </g>
   <g id="line2d_58">
    <path d="M 220.634575 338.953846 
L 220.958881 338.951755 
L 222.505105 338.933706 
L 230.087961 338.651576 
L 245.080695 337.139875 
L 247.255136 336.814055 
L 266.112974 332.819383 
L 271.928926 331.150023 
L 278.138332 329.129028 
L 288.261431 325.282164 
L 302.399352 318.677893 
L 313.628353 312.297823 
L 318.643937 309.087168 
L 324.169416 305.267854 
L 335.395278 296.49447 
L 343.022128 289.643951 
L 346.432649 286.311743 
L 358.448013 272.980856 
L 364.756317 264.758735 
L 369.574181 257.74231 
L 370.229825 256.729624 
L 370.555084 256.22163 
L 370.636131 256.094461 
" clip-path="url(#pc32669112d)" style="fill: none; stroke: #0000ff; stroke-linecap: square"/>
   </g>
   <g id="line2d_59">
    <path d="M 376.366465 259.187315 
L 377.317116 257.66976 
L 381.798877 250.037152 
L 386.334186 241.33925 
L 389.258187 235.055295 
L 393.90151 223.542515 
L 397.757492 211.76874 
L 400.597686 200.757838 
L 403.080262 187.528223 
L 403.706393 182.980936 
L 404.500333 175.360101 
L 405.141251 159.953349 
" clip-path="url(#pc32669112d)" style="fill: none; stroke: #0000ff; stroke-linecap: square"/>
   </g>
   <g id="patch_3">
    <path d="M 219.642592 345.6 
L 219.642592 0 
" style="fill: none; stroke: #000000; stroke-width: 0.8; stroke-linejoin: miter; stroke-linecap: square"/>
   </g>
   <g id="patch_4">
    <path d="M 48.669099 159.953349 
L 412.130901 159.953349 
" style="fill: none; stroke: #000000; stroke-width: 0.8; stroke-linejoin: miter; stroke-linecap: square"/>
   </g>
  </g>
 </g>
 <defs>
  <clipPath id="pc32669112d">
   <rect x="48.669099" y="0" width="363.461802" height="345.6"/>
  </clipPath>
 </defs>
</svg>
