<?xml version="1.0" encoding="utf-8" standalone="no"?>
<!DOCTYPE svg PUBLIC "-//W3C//DTD SVG 1.1//EN"
  "http://www.w3.org/Graphics/SVG/1.1/DTD/svg11.dtd">
<svg xmlns:xlink="http://www.w3.org/1999/xlink" width="460.8pt" height="345.6pt" viewBox="0 0 460.8 345.6" xmlns="http://www.w3.org/2000/svg" version="1.1">
 <metadata>
  <rdf:RDF xmlns:dc="http://purl.org/dc/elements/1.1/" xmlns:cc="http://creativecommons.org/ns#" xmlns:rdf="http://www.w3.org/1999/02/22-rdf-syntax-ns#">
   <cc:Work>
    <dc:type rdf:resource="http://purl.org/dc/dcmitype/StillImage"/>
    <dc:date>2022-05-16T19:39:13.256136</dc:date>
    <dc:format>image/svg+xml</dc:format>
    <dc:creator>
     <cc:Agent>
      <dc:title>Matplotlib v3.5.1, https://matplotlib.org/</dc:title>
     </cc:Agent>
    </dc:creator>
   </cc:Work>
  </rdf:RDF>
 </metadata>
 <defs>
  <style type="text/css">*{stroke-linejoin: round; stroke-linecap: butt}</style>
 </defs>
 <g id="figure_1">
  <g id="patch_1">
   <path d="M 0 345.6 
L 460.8 345.6 
L 460.8 0 
L 0 0 
z
" style="fill: #ffffff"/>
  </g>
  <g id="axes_1">
   <g id="patch_2">
    <path d="M 0 345.6 
L 460.8 345.6 
L 460.8 0 
L 0 0 
z
" style="fill: #ffffff"/>
   </g>
   <g id="PathCollection_1">
    <defs>
     <path id="C0_0_ed04030076" d="M 0 2.236068 
C 0.593012 2.236068 1.161816 2.000462 1.581139 1.581139 
C 2.000462 1.161816 2.236068 0.593012 2.236068 -0 
C 2.236068 -0.593012 2.000462 -1.161816 1.581139 -1.581139 
C 1.161816 -2.000462 0.593012 -2.236068 0 -2.236068 
C -0.593012 -2.236068 -1.161816 -2.000462 -1.581139 -1.581139 
C -2.000462 -1.161816 -2.236068 -0.593012 -2.236068 0 
C -2.236068 0.593012 -2.000462 1.161816 -1.581139 1.581139 
C -1.161816 2.000462 -0.593012 2.236068 0 2.236068 
z
"/>
    </defs>
    <g clip-path="url(#p3650fea519)">
     <use xlink:href="#C0_0_ed04030076" x="125.460729" y="338.953846" style="fill: #ff0000"/>
    </g>
    <g clip-path="url(#p3650fea519)">
     <use xlink:href="#C0_0_ed04030076" x="242.059919" y="255.876923" style="fill: #ff0000"/>
    </g>
    <g clip-path="url(#p3650fea519)">
     <use xlink:href="#C0_0_ed04030076" x="242.059919" y="297.415385" style="fill: #ff0000"/>
    </g>
    <g clip-path="url(#p3650fea519)">
     <use xlink:href="#C0_0_ed04030076" x="358.659109" y="172.8" style="fill: #ff0000"/>
    </g>
   </g>
   <g id="matplotlib.axis_1"/>
   <g id="matplotlib.axis_2"/>
   <g id="line2d_1">
    <path d="M 8.861538 297.415385 
L 16.042883 302.374523 
L 21.949566 306.217236 
L 29.209461 310.648253 
L 35.138851 314.028267 
L 43.030875 318.193796 
L 47.836877 320.544019 
L 53.128191 322.968327 
L 59.546746 325.67946 
L 66.447456 328.313427 
L 71.511077 330.061085 
L 77.526323 331.933573 
L 81.588207 333.072936 
L 89.262699 334.950444 
L 96.483577 336.388354 
L 102.002332 337.272504 
L 109.096716 338.135685 
L 113.633628 338.526464 
L 120.345282 338.873895 
L 125.561958 338.953815 
L 130.701122 338.869941 
L 137.207029 338.532284 
L 143.885174 337.91668 
L 150.790917 336.993485 
L 158.300721 335.65877 
L 163.785672 334.466161 
L 169.490795 333.030624 
L 174.852537 331.500193 
L 179.873534 329.907742 
L 186.722598 327.48711 
L 194.007201 324.597975 
L 200.735147 321.641571 
L 206.781782 318.748545 
L 212.619714 315.74339 
L 218.621164 312.43697 
L 224.750381 308.83299 
L 232.682862 303.827884 
L 239.592776 299.154627 
L 244.148251 295.914123 
L 250.874331 290.897735 
L 259.046238 284.43106 
L 264.04542 280.27388 
L 270.915387 274.311873 
L 279.20532 266.733589 
L 286.505998 259.711873 
L 293.140812 253.048083 
L 299.741221 246.151941 
L 306.721807 238.568931 
L 314.069991 230.264901 
L 320.798893 222.371298 
L 327.432712 214.318392 
L 336.345421 203.07575 
L 343.970756 193.071721 
L 351.57915 182.73579 
L 358.110075 173.581453 
L 367.584935 159.837279 
L 376.54651 146.33287 
L 385.461493 132.411746 
L 394.229446 118.246506 
L 401.999359 105.301066 
L 410.12239 91.372856 
L 419.625797 74.56597 
L 427.871125 59.53688 
L 436.717641 42.950005 
L 444.555652 27.854479 
L 451.938462 13.292308 
L 451.938462 13.292308 
" clip-path="url(#p3650fea519)" style="fill: none; stroke: #0000ff; stroke-linecap: square"/>
   </g>
   <g id="line2d_2">
    <path d="M 125.460729 338.953846 
L 358.659109 172.8 
" clip-path="url(#p3650fea519)" style="fill: none; stroke: #008000; stroke-linecap: square"/>
   </g>
   <g id="line2d_3">
    <path d="M 242.059919 255.876923 
L 242.059919 297.415385 
" clip-path="url(#p3650fea519)" style="fill: none; stroke: #800080; stroke-linecap: square"/>
   </g>
   <g id="text_1">
    <!-- A -->
    <g style="fill: #ff0000" transform="translate(110.380497 325.097837)scale(0.1 -0.1)">
     <defs>
      <path id="DejaVuSans-41" d="M 2188 4044 
L 1331 1722 
L 3047 1722 
L 2188 4044 
z
M 1831 4666 
L 2547 4666 
L 4325 0 
L 3669 0 
L 3244 1197 
L 1141 1197 
L 716 0 
L 50 0 
L 1831 4666 
z
" transform="scale(0.015625)"/>
     </defs>
     <use xlink:href="#DejaVuSans-41"/>
    </g>
   </g>
   <g id="text_2">
    <!-- B -->
    <g style="fill: #ff0000" transform="translate(357.560624 158.94399)scale(0.1 -0.1)">
     <defs>
      <path id="DejaVuSans-42" d="M 1259 2228 
L 1259 519 
L 2272 519 
Q 2781 519 3026 730 
Q 3272 941 3272 1375 
Q 3272 1813 3026 2020 
Q 2781 2228 2272 2228 
L 1259 2228 
z
M 1259 4147 
L 1259 2741 
L 2194 2741 
Q 2656 2741 2882 2914 
Q 3109 3088 3109 3444 
Q 3109 3797 2882 3972 
Q 2656 4147 2194 4147 
L 1259 4147 
z
M 628 4666 
L 2241 4666 
Q 2963 4666 3353 4366 
Q 3744 4066 3744 3513 
Q 3744 3084 3544 2831 
Q 3344 2578 2956 2516 
Q 3422 2416 3680 2098 
Q 3938 1781 3938 1306 
Q 3938 681 3513 340 
Q 3088 0 2303 0 
L 628 0 
L 628 4666 
z
" transform="scale(0.015625)"/>
     </defs>
     <use xlink:href="#DejaVuSans-42"/>
    </g>
   </g>
   <g id="text_3">
    <!-- C -->
    <g style="fill: #ff0000" transform="translate(233.904545 247.005529)scale(0.1 -0.1)">
     <defs>
      <path id="DejaVuSans-43" d="M 4122 4306 
L 4122 3641 
Q 3803 3938 3442 4084 
Q 3081 4231 2675 4231 
Q 1875 4231 1450 3742 
Q 1025 3253 1025 2328 
Q 1025 1406 1450 917 
Q 1875 428 2675 428 
Q 3081 428 3442 575 
Q 3803 722 4122 1019 
L 4122 359 
Q 3791 134 3420 21 
Q 3050 -91 2638 -91 
Q 1578 -91 968 557 
Q 359 1206 359 2328 
Q 359 3453 968 4101 
Q 1578 4750 2638 4750 
Q 3056 4750 3426 4639 
Q 3797 4528 4122 4306 
z
" transform="scale(0.015625)"/>
     </defs>
     <use xlink:href="#DejaVuSans-43"/>
    </g>
   </g>
   <g id="text_4">
    <!-- D -->
    <g style="fill: #ff0000" transform="translate(245.20587 311.805529)scale(0.1 -0.1)">
     <defs>
      <path id="DejaVuSans-44" d="M 1259 4147 
L 1259 519 
L 2022 519 
Q 2988 519 3436 956 
Q 3884 1394 3884 2338 
Q 3884 3275 3436 3711 
Q 2988 4147 2022 4147 
L 1259 4147 
z
M 628 4666 
L 1925 4666 
Q 3281 4666 3915 4102 
Q 4550 3538 4550 2338 
Q 4550 1131 3912 565 
Q 3275 0 1925 0 
L 628 0 
L 628 4666 
z
" transform="scale(0.015625)"/>
     </defs>
     <use xlink:href="#DejaVuSans-44"/>
    </g>
   </g>
  </g>
 </g>
 <defs>
  <clipPath id="p3650fea519">
   <rect x="0" y="0" width="460.8" height="345.6"/>
  </clipPath>
 </defs>
</svg>
