<?xml version="1.0" encoding="utf-8" standalone="no"?>
<!DOCTYPE svg PUBLIC "-//W3C//DTD SVG 1.1//EN"
  "http://www.w3.org/Graphics/SVG/1.1/DTD/svg11.dtd">
<svg xmlns:xlink="http://www.w3.org/1999/xlink" width="460.8pt" height="345.6pt" viewBox="0 0 460.8 345.6" xmlns="http://www.w3.org/2000/svg" version="1.1">
 <metadata>
  <rdf:RDF xmlns:dc="http://purl.org/dc/elements/1.1/" xmlns:cc="http://creativecommons.org/ns#" xmlns:rdf="http://www.w3.org/1999/02/22-rdf-syntax-ns#">
   <cc:Work>
    <dc:type rdf:resource="http://purl.org/dc/dcmitype/StillImage"/>
    <dc:date>2024-03-20T19:26:52.070679</dc:date>
    <dc:format>image/svg+xml</dc:format>
    <dc:creator>
     <cc:Agent>
      <dc:title>Matplotlib v3.8.0, https://matplotlib.org/</dc:title>
     </cc:Agent>
    </dc:creator>
   </cc:Work>
  </rdf:RDF>
 </metadata>
 <defs>
  <style type="text/css">*{stroke-linejoin: round; stroke-linecap: butt}</style>
 </defs>
 <g id="figure_1">
  <g id="patch_1">
   <path d="M 0 345.6 
L 460.8 345.6 
L 460.8 0 
L 0 0 
z
" style="fill: #ffffff"/>
  </g>
  <g id="axes_1">
   <g id="patch_2">
    <path d="M 42.1 150.319867 
L 225 150.319867 
L 225 12.437788 
L 42.1 12.437788 
z
" style="fill: #ffffff"/>
   </g>
   <g id="patch_3">
    <path d="M 45.617308 81.377774 
L 45.617308 81.377774 
L 46.752453 84.065531 
L 47.165975 85.043789 
L 48.070488 87.180485 
L 48.741772 88.762441 
L 49.813435 91.278757 
L 50.82929 93.650693 
L 51.388636 94.950019 
L 52.810506 98.227336 
L 53.430656 99.643619 
L 54.495521 102.054229 
L 55.314318 103.88763 
L 55.973659 105.35006 
L 56.987326 107.572163 
L 58.170663 110.122549 
L 58.663738 111.170344 
L 59.68344 113.307539 
L 60.69665 115.389163 
L 61.085575 116.176514 
L 62.036962 118.073905 
L 62.93081 119.817959 
L 64.270211 122.357445 
L 65.098759 123.881752 
L 65.946026 125.401973 
L 66.927308 127.11215 
L 67.33409 127.804728 
L 68.170401 129.19765 
L 69.006712 130.547883 
L 69.777216 131.753048 
L 70.567356 132.949276 
L 71.371467 134.124458 
L 72.288379 135.411322 
L 73.303041 136.767741 
L 73.515755 137.04293 
L 74.473352 138.241739 
L 75.765462 139.75359 
L 76.831731 140.907655 
L 77.405426 141.492949 
L 78.721446 142.739783 
L 79.492755 143.407668 
L 79.876045 143.722075 
L 81.039317 144.604472 
L 82.156538 145.349159 
L 82.558094 145.591978 
L 83.320397 146.01654 
L 84.068659 146.386657 
L 84.81692 146.710317 
L 85.03548 146.796055 
L 86.42906 147.248733 
L 86.85973 147.355648 
L 87.984664 147.561175 
L 89.00466 147.655136 
L 89.427636 147.668289 
L 90.700249 147.616576 
L 91.256228 147.550996 
L 91.974441 147.427636 
L 92.692655 147.26079 
L 93.213638 147.11261 
L 94.562099 146.623469 
L 95.502696 146.192555 
L 96.166522 145.844353 
L 96.610958 145.590952 
L 97.419903 145.088217 
L 98.303527 144.478279 
L 99.119563 143.859129 
L 100.184686 142.971181 
L 101.329456 141.917439 
L 101.966319 141.287263 
L 102.712618 140.509357 
L 104.050616 139.009839 
L 105.042124 137.813497 
L 106.047494 136.528134 
L 107.002692 135.240979 
L 107.485867 134.565902 
L 108.299206 133.393841 
L 108.988192 132.366579 
L 110.548528 129.926948 
L 110.874736 129.397587 
L 111.838705 127.795451 
L 113.14839 125.530894 
L 114.065414 123.887449 
L 114.79287 122.551196 
L 115.537628 121.154359 
L 116.584427 119.143651 
L 117.080018 118.173115 
L 118.382966 115.567268 
L 119.081568 114.139218 
L 119.424814 113.430039 
L 120.944731 110.233291 
L 121.551745 108.932291 
L 122.668132 106.506177 
L 123.54826 104.565127 
L 124.374378 102.722298 
L 125.305706 100.622563 
L 125.964756 99.123684 
L 126.605421 97.657182 
L 127.914171 94.63574 
L 128.86046 92.432656 
L 129.685312 90.501899 
L 130.476278 88.642997 
L 131.005017 87.397045 
L 132.143606 84.707297 
L 133.519695 81.449549 
L 133.82991 80.714842 
L 135.179938 77.519589 
L 135.383506 77.038378 
L 136.895402 73.473328 
L 137.69792 71.589702 
L 138.008048 70.863856 
L 139.142963 68.219299 
L 140.153004 65.883777 
L 141.329519 63.188964 
L 141.88206 61.934167 
L 143.167092 59.046044 
L 143.50118 58.302641 
L 144.777907 55.492908 
L 145.914913 53.035819 
L 146.401929 51.997439 
L 147.026856 50.678088 
L 148.287397 48.064061 
L 148.725378 47.171351 
L 149.717504 45.180478 
L 151.083011 42.515216 
L 151.768957 41.210862 
L 152.202051 40.39969 
L 153.712531 37.648625 
L 154.43118 36.383955 
L 155.059152 35.303112 
L 155.684198 34.250333 
L 156.519876 32.879586 
L 157.355555 31.552068 
L 157.680398 31.04796 
L 159.158762 28.840388 
L 159.808715 27.915866 
L 160.792078 26.572043 
L 161.221449 26.006402 
L 162.169213 24.804156 
L 163.326321 23.424417 
L 164.258775 22.384507 
L 165.36105 21.239728 
L 166.052016 20.569561 
L 166.858985 19.833821 
L 167.380887 19.385189 
L 168.126571 18.781624 
L 168.872255 18.222485 
L 169.051747 18.094575 
L 170.472703 17.174222 
L 171.345572 16.690756 
L 171.831423 16.448876 
L 172.913971 15.980385 
L 173.928217 15.630192 
L 174.818444 15.393941 
L 175.373658 15.280378 
L 176.365045 15.142302 
L 177.244069 15.089367 
L 177.924832 15.09329 
L 178.988583 15.177912 
L 180.04189 15.355906 
L 180.798978 15.54161 
L 181.95421 15.917736 
L 182.503663 16.135801 
L 183.15247 16.425661 
L 184.554664 17.171082 
L 184.962412 17.418175 
L 185.755634 17.937696 
L 186.548856 18.508166 
L 187.454276 19.221004 
L 187.9644 19.651319 
L 188.855328 20.451946 
L 189.876202 21.445178 
L 190.309359 21.890777 
L 191.02835 22.661813 
L 192.141837 23.93217 
L 192.963758 24.928316 
L 194.369668 26.744581 
L 195.325051 28.057758 
L 196.005481 29.030976 
L 197.132652 30.710948 
L 197.512148 31.295186 
L 198.505597 32.867931 
L 199.804064 35.015366 
L 200.709045 36.571322 
L 201.42778 37.840512 
L 201.868719 38.633413 
L 203.054611 40.817967 
L 203.390339 41.449812 
L 204.866896 44.295667 
L 205.551962 45.651567 
L 206.40948 47.378849 
L 207.39177 49.39657 
L 208.667734 52.075957 
L 209.266692 53.355046 
L 210.308152 55.609317 
L 210.718789 56.508133 
L 211.331073 57.858202 
L 212.401124 60.244266 
L 213.961709 63.778551 
L 214.302245 64.557423 
L 215.401611 67.088294 
L 216.175108 68.882415 
L 216.660243 70.012641 
L 218.075497 73.328039 
L 218.549552 74.44359 
L 219.762963 77.307306 
L 220.504777 79.062136 
L 221.482692 81.377774 
L 221.482692 81.377774 
z
" clip-path="url(#pbb82050306)" style="fill: #808080; opacity: 0.5"/>
   </g>
   <g id="matplotlib.axis_1">
    <g id="xtick_1">
     <g id="line2d_1">
      <defs>
       <path id="m5e017e0bdf" d="M 0 0 
L 0 3.5 
" style="stroke: #000000; stroke-width: 0.8"/>
      </defs>
      <g>
       <use xlink:href="#m5e017e0bdf" x="49.580464" y="150.319867" style="stroke: #000000; stroke-width: 0.8"/>
      </g>
     </g>
     <g id="text_1">
      <!-- −3 -->
      <g transform="translate(42.20937 164.918304) scale(0.1 -0.1)">
       <defs>
        <path id="DejaVuSans-2212" d="M 678 2272 
L 4684 2272 
L 4684 1741 
L 678 1741 
L 678 2272 
z
" transform="scale(0.015625)"/>
        <path id="DejaVuSans-33" d="M 2597 2516 
Q 3050 2419 3304 2112 
Q 3559 1806 3559 1356 
Q 3559 666 3084 287 
Q 2609 -91 1734 -91 
Q 1441 -91 1130 -33 
Q 819 25 488 141 
L 488 750 
Q 750 597 1062 519 
Q 1375 441 1716 441 
Q 2309 441 2620 675 
Q 2931 909 2931 1356 
Q 2931 1769 2642 2001 
Q 2353 2234 1838 2234 
L 1294 2234 
L 1294 2753 
L 1863 2753 
Q 2328 2753 2575 2939 
Q 2822 3125 2822 3475 
Q 2822 3834 2567 4026 
Q 2313 4219 1838 4219 
Q 1578 4219 1281 4162 
Q 984 4106 628 3988 
L 628 4550 
Q 988 4650 1302 4700 
Q 1616 4750 1894 4750 
Q 2613 4750 3031 4423 
Q 3450 4097 3450 3541 
Q 3450 3153 3228 2886 
Q 3006 2619 2597 2516 
z
" transform="scale(0.015625)"/>
       </defs>
       <use xlink:href="#DejaVuSans-2212"/>
       <use xlink:href="#DejaVuSans-33" x="83.789062"/>
      </g>
     </g>
    </g>
    <g id="xtick_2">
     <g id="line2d_2">
      <g>
       <use xlink:href="#m5e017e0bdf" x="77.570309" y="150.319867" style="stroke: #000000; stroke-width: 0.8"/>
      </g>
     </g>
     <g id="text_2">
      <!-- −2 -->
      <g transform="translate(70.199216 164.918304) scale(0.1 -0.1)">
       <defs>
        <path id="DejaVuSans-32" d="M 1228 531 
L 3431 531 
L 3431 0 
L 469 0 
L 469 531 
Q 828 903 1448 1529 
Q 2069 2156 2228 2338 
Q 2531 2678 2651 2914 
Q 2772 3150 2772 3378 
Q 2772 3750 2511 3984 
Q 2250 4219 1831 4219 
Q 1534 4219 1204 4116 
Q 875 4013 500 3803 
L 500 4441 
Q 881 4594 1212 4672 
Q 1544 4750 1819 4750 
Q 2544 4750 2975 4387 
Q 3406 4025 3406 3419 
Q 3406 3131 3298 2873 
Q 3191 2616 2906 2266 
Q 2828 2175 2409 1742 
Q 1991 1309 1228 531 
z
" transform="scale(0.015625)"/>
       </defs>
       <use xlink:href="#DejaVuSans-2212"/>
       <use xlink:href="#DejaVuSans-32" x="83.789062"/>
      </g>
     </g>
    </g>
    <g id="xtick_3">
     <g id="line2d_3">
      <g>
       <use xlink:href="#m5e017e0bdf" x="105.560155" y="150.319867" style="stroke: #000000; stroke-width: 0.8"/>
      </g>
     </g>
     <g id="text_3">
      <!-- −1 -->
      <g transform="translate(98.189061 164.918304) scale(0.1 -0.1)">
       <defs>
        <path id="DejaVuSans-31" d="M 794 531 
L 1825 531 
L 1825 4091 
L 703 3866 
L 703 4441 
L 1819 4666 
L 2450 4666 
L 2450 531 
L 3481 531 
L 3481 0 
L 794 0 
L 794 531 
z
" transform="scale(0.015625)"/>
       </defs>
       <use xlink:href="#DejaVuSans-2212"/>
       <use xlink:href="#DejaVuSans-31" x="83.789062"/>
      </g>
     </g>
    </g>
    <g id="xtick_4">
     <g id="line2d_4">
      <g>
       <use xlink:href="#m5e017e0bdf" x="133.55" y="150.319867" style="stroke: #000000; stroke-width: 0.8"/>
      </g>
     </g>
     <g id="text_4">
      <!-- 0 -->
      <g transform="translate(130.36875 164.918304) scale(0.1 -0.1)">
       <defs>
        <path id="DejaVuSans-30" d="M 2034 4250 
Q 1547 4250 1301 3770 
Q 1056 3291 1056 2328 
Q 1056 1369 1301 889 
Q 1547 409 2034 409 
Q 2525 409 2770 889 
Q 3016 1369 3016 2328 
Q 3016 3291 2770 3770 
Q 2525 4250 2034 4250 
z
M 2034 4750 
Q 2819 4750 3233 4129 
Q 3647 3509 3647 2328 
Q 3647 1150 3233 529 
Q 2819 -91 2034 -91 
Q 1250 -91 836 529 
Q 422 1150 422 2328 
Q 422 3509 836 4129 
Q 1250 4750 2034 4750 
z
" transform="scale(0.015625)"/>
       </defs>
       <use xlink:href="#DejaVuSans-30"/>
      </g>
     </g>
    </g>
    <g id="xtick_5">
     <g id="line2d_5">
      <g>
       <use xlink:href="#m5e017e0bdf" x="161.539845" y="150.319867" style="stroke: #000000; stroke-width: 0.8"/>
      </g>
     </g>
     <g id="text_5">
      <!-- 1 -->
      <g transform="translate(158.358595 164.918304) scale(0.1 -0.1)">
       <use xlink:href="#DejaVuSans-31"/>
      </g>
     </g>
    </g>
    <g id="xtick_6">
     <g id="line2d_6">
      <g>
       <use xlink:href="#m5e017e0bdf" x="189.529691" y="150.319867" style="stroke: #000000; stroke-width: 0.8"/>
      </g>
     </g>
     <g id="text_6">
      <!-- 2 -->
      <g transform="translate(186.348441 164.918304) scale(0.1 -0.1)">
       <use xlink:href="#DejaVuSans-32"/>
      </g>
     </g>
    </g>
    <g id="xtick_7">
     <g id="line2d_7">
      <g>
       <use xlink:href="#m5e017e0bdf" x="217.519536" y="150.319867" style="stroke: #000000; stroke-width: 0.8"/>
      </g>
     </g>
     <g id="text_7">
      <!-- 3 -->
      <g transform="translate(214.338286 164.918304) scale(0.1 -0.1)">
       <use xlink:href="#DejaVuSans-33"/>
      </g>
     </g>
    </g>
    <g id="xtick_8">
     <g id="line2d_8">
      <defs>
       <path id="m537c6bee80" d="M 0 0 
L 0 2 
" style="stroke: #000000; stroke-width: 0.6"/>
      </defs>
      <g>
       <use xlink:href="#m537c6bee80" x="43.982495" y="150.319867" style="stroke: #000000; stroke-width: 0.6"/>
      </g>
     </g>
    </g>
    <g id="xtick_9">
     <g id="line2d_9">
      <g>
       <use xlink:href="#m537c6bee80" x="55.178433" y="150.319867" style="stroke: #000000; stroke-width: 0.6"/>
      </g>
     </g>
    </g>
    <g id="xtick_10">
     <g id="line2d_10">
      <g>
       <use xlink:href="#m537c6bee80" x="60.776402" y="150.319867" style="stroke: #000000; stroke-width: 0.6"/>
      </g>
     </g>
    </g>
    <g id="xtick_11">
     <g id="line2d_11">
      <g>
       <use xlink:href="#m537c6bee80" x="66.374371" y="150.319867" style="stroke: #000000; stroke-width: 0.6"/>
      </g>
     </g>
    </g>
    <g id="xtick_12">
     <g id="line2d_12">
      <g>
       <use xlink:href="#m537c6bee80" x="71.97234" y="150.319867" style="stroke: #000000; stroke-width: 0.6"/>
      </g>
     </g>
    </g>
    <g id="xtick_13">
     <g id="line2d_13">
      <g>
       <use xlink:href="#m537c6bee80" x="83.168278" y="150.319867" style="stroke: #000000; stroke-width: 0.6"/>
      </g>
     </g>
    </g>
    <g id="xtick_14">
     <g id="line2d_14">
      <g>
       <use xlink:href="#m537c6bee80" x="88.766248" y="150.319867" style="stroke: #000000; stroke-width: 0.6"/>
      </g>
     </g>
    </g>
    <g id="xtick_15">
     <g id="line2d_15">
      <g>
       <use xlink:href="#m537c6bee80" x="94.364217" y="150.319867" style="stroke: #000000; stroke-width: 0.6"/>
      </g>
     </g>
    </g>
    <g id="xtick_16">
     <g id="line2d_16">
      <g>
       <use xlink:href="#m537c6bee80" x="99.962186" y="150.319867" style="stroke: #000000; stroke-width: 0.6"/>
      </g>
     </g>
    </g>
    <g id="xtick_17">
     <g id="line2d_17">
      <g>
       <use xlink:href="#m537c6bee80" x="111.158124" y="150.319867" style="stroke: #000000; stroke-width: 0.6"/>
      </g>
     </g>
    </g>
    <g id="xtick_18">
     <g id="line2d_18">
      <g>
       <use xlink:href="#m537c6bee80" x="116.756093" y="150.319867" style="stroke: #000000; stroke-width: 0.6"/>
      </g>
     </g>
    </g>
    <g id="xtick_19">
     <g id="line2d_19">
      <g>
       <use xlink:href="#m537c6bee80" x="122.354062" y="150.319867" style="stroke: #000000; stroke-width: 0.6"/>
      </g>
     </g>
    </g>
    <g id="xtick_20">
     <g id="line2d_20">
      <g>
       <use xlink:href="#m537c6bee80" x="127.952031" y="150.319867" style="stroke: #000000; stroke-width: 0.6"/>
      </g>
     </g>
    </g>
    <g id="xtick_21">
     <g id="line2d_21">
      <g>
       <use xlink:href="#m537c6bee80" x="139.147969" y="150.319867" style="stroke: #000000; stroke-width: 0.6"/>
      </g>
     </g>
    </g>
    <g id="xtick_22">
     <g id="line2d_22">
      <g>
       <use xlink:href="#m537c6bee80" x="144.745938" y="150.319867" style="stroke: #000000; stroke-width: 0.6"/>
      </g>
     </g>
    </g>
    <g id="xtick_23">
     <g id="line2d_23">
      <g>
       <use xlink:href="#m537c6bee80" x="150.343907" y="150.319867" style="stroke: #000000; stroke-width: 0.6"/>
      </g>
     </g>
    </g>
    <g id="xtick_24">
     <g id="line2d_24">
      <g>
       <use xlink:href="#m537c6bee80" x="155.941876" y="150.319867" style="stroke: #000000; stroke-width: 0.6"/>
      </g>
     </g>
    </g>
    <g id="xtick_25">
     <g id="line2d_25">
      <g>
       <use xlink:href="#m537c6bee80" x="167.137814" y="150.319867" style="stroke: #000000; stroke-width: 0.6"/>
      </g>
     </g>
    </g>
    <g id="xtick_26">
     <g id="line2d_26">
      <g>
       <use xlink:href="#m537c6bee80" x="172.735783" y="150.319867" style="stroke: #000000; stroke-width: 0.6"/>
      </g>
     </g>
    </g>
    <g id="xtick_27">
     <g id="line2d_27">
      <g>
       <use xlink:href="#m537c6bee80" x="178.333752" y="150.319867" style="stroke: #000000; stroke-width: 0.6"/>
      </g>
     </g>
    </g>
    <g id="xtick_28">
     <g id="line2d_28">
      <g>
       <use xlink:href="#m537c6bee80" x="183.931722" y="150.319867" style="stroke: #000000; stroke-width: 0.6"/>
      </g>
     </g>
    </g>
    <g id="xtick_29">
     <g id="line2d_29">
      <g>
       <use xlink:href="#m537c6bee80" x="195.12766" y="150.319867" style="stroke: #000000; stroke-width: 0.6"/>
      </g>
     </g>
    </g>
    <g id="xtick_30">
     <g id="line2d_30">
      <g>
       <use xlink:href="#m537c6bee80" x="200.725629" y="150.319867" style="stroke: #000000; stroke-width: 0.6"/>
      </g>
     </g>
    </g>
    <g id="xtick_31">
     <g id="line2d_31">
      <g>
       <use xlink:href="#m537c6bee80" x="206.323598" y="150.319867" style="stroke: #000000; stroke-width: 0.6"/>
      </g>
     </g>
    </g>
    <g id="xtick_32">
     <g id="line2d_32">
      <g>
       <use xlink:href="#m537c6bee80" x="211.921567" y="150.319867" style="stroke: #000000; stroke-width: 0.6"/>
      </g>
     </g>
    </g>
    <g id="xtick_33">
     <g id="line2d_33">
      <g>
       <use xlink:href="#m537c6bee80" x="223.117505" y="150.319867" style="stroke: #000000; stroke-width: 0.6"/>
      </g>
     </g>
    </g>
   </g>
   <g id="matplotlib.axis_2">
    <g id="ytick_1">
     <g id="line2d_34">
      <defs>
       <path id="medd64927e8" d="M 0 0 
L -3.5 0 
" style="stroke: #000000; stroke-width: 0.8"/>
      </defs>
      <g>
       <use xlink:href="#medd64927e8" x="42.1" y="147.669318" style="stroke: #000000; stroke-width: 0.8"/>
      </g>
     </g>
     <g id="text_8">
      <!-- −1.0 -->
      <g transform="translate(10.817188 151.468537) scale(0.1 -0.1)">
       <defs>
        <path id="DejaVuSans-2e" d="M 684 794 
L 1344 794 
L 1344 0 
L 684 0 
L 684 794 
z
" transform="scale(0.015625)"/>
       </defs>
       <use xlink:href="#DejaVuSans-2212"/>
       <use xlink:href="#DejaVuSans-31" x="83.789062"/>
       <use xlink:href="#DejaVuSans-2e" x="147.412109"/>
       <use xlink:href="#DejaVuSans-30" x="179.199219"/>
      </g>
     </g>
    </g>
    <g id="ytick_2">
     <g id="line2d_35">
      <g>
       <use xlink:href="#medd64927e8" x="42.1" y="114.523546" style="stroke: #000000; stroke-width: 0.8"/>
      </g>
     </g>
     <g id="text_9">
      <!-- −0.5 -->
      <g transform="translate(10.817188 118.322765) scale(0.1 -0.1)">
       <defs>
        <path id="DejaVuSans-35" d="M 691 4666 
L 3169 4666 
L 3169 4134 
L 1269 4134 
L 1269 2991 
Q 1406 3038 1543 3061 
Q 1681 3084 1819 3084 
Q 2600 3084 3056 2656 
Q 3513 2228 3513 1497 
Q 3513 744 3044 326 
Q 2575 -91 1722 -91 
Q 1428 -91 1123 -41 
Q 819 9 494 109 
L 494 744 
Q 775 591 1075 516 
Q 1375 441 1709 441 
Q 2250 441 2565 725 
Q 2881 1009 2881 1497 
Q 2881 1984 2565 2268 
Q 2250 2553 1709 2553 
Q 1456 2553 1204 2497 
Q 953 2441 691 2322 
L 691 4666 
z
" transform="scale(0.015625)"/>
       </defs>
       <use xlink:href="#DejaVuSans-2212"/>
       <use xlink:href="#DejaVuSans-30" x="83.789062"/>
       <use xlink:href="#DejaVuSans-2e" x="147.412109"/>
       <use xlink:href="#DejaVuSans-35" x="179.199219"/>
      </g>
     </g>
    </g>
    <g id="ytick_3">
     <g id="line2d_36">
      <g>
       <use xlink:href="#medd64927e8" x="42.1" y="81.377774" style="stroke: #000000; stroke-width: 0.8"/>
      </g>
     </g>
     <g id="text_10">
      <!-- 0.0 -->
      <g transform="translate(19.196875 85.176993) scale(0.1 -0.1)">
       <use xlink:href="#DejaVuSans-30"/>
       <use xlink:href="#DejaVuSans-2e" x="63.623047"/>
       <use xlink:href="#DejaVuSans-30" x="95.410156"/>
      </g>
     </g>
    </g>
    <g id="ytick_4">
     <g id="line2d_37">
      <g>
       <use xlink:href="#medd64927e8" x="42.1" y="48.232002" style="stroke: #000000; stroke-width: 0.8"/>
      </g>
     </g>
     <g id="text_11">
      <!-- 0.5 -->
      <g transform="translate(19.196875 52.031221) scale(0.1 -0.1)">
       <use xlink:href="#DejaVuSans-30"/>
       <use xlink:href="#DejaVuSans-2e" x="63.623047"/>
       <use xlink:href="#DejaVuSans-35" x="95.410156"/>
      </g>
     </g>
    </g>
    <g id="ytick_5">
     <g id="line2d_38">
      <g>
       <use xlink:href="#medd64927e8" x="42.1" y="15.08623" style="stroke: #000000; stroke-width: 0.8"/>
      </g>
     </g>
     <g id="text_12">
      <!-- 1.0 -->
      <g transform="translate(19.196875 18.885449) scale(0.1 -0.1)">
       <use xlink:href="#DejaVuSans-31"/>
       <use xlink:href="#DejaVuSans-2e" x="63.623047"/>
       <use xlink:href="#DejaVuSans-30" x="95.410156"/>
      </g>
     </g>
    </g>
    <g id="ytick_6">
     <g id="line2d_39">
      <defs>
       <path id="mebfb6b6750" d="M 0 0 
L -2 0 
" style="stroke: #000000; stroke-width: 0.6"/>
      </defs>
      <g>
       <use xlink:href="#mebfb6b6750" x="42.1" y="141.040164" style="stroke: #000000; stroke-width: 0.6"/>
      </g>
     </g>
    </g>
    <g id="ytick_7">
     <g id="line2d_40">
      <g>
       <use xlink:href="#mebfb6b6750" x="42.1" y="134.41101" style="stroke: #000000; stroke-width: 0.6"/>
      </g>
     </g>
    </g>
    <g id="ytick_8">
     <g id="line2d_41">
      <g>
       <use xlink:href="#mebfb6b6750" x="42.1" y="127.781855" style="stroke: #000000; stroke-width: 0.6"/>
      </g>
     </g>
    </g>
    <g id="ytick_9">
     <g id="line2d_42">
      <g>
       <use xlink:href="#mebfb6b6750" x="42.1" y="121.152701" style="stroke: #000000; stroke-width: 0.6"/>
      </g>
     </g>
    </g>
    <g id="ytick_10">
     <g id="line2d_43">
      <g>
       <use xlink:href="#mebfb6b6750" x="42.1" y="107.894392" style="stroke: #000000; stroke-width: 0.6"/>
      </g>
     </g>
    </g>
    <g id="ytick_11">
     <g id="line2d_44">
      <g>
       <use xlink:href="#mebfb6b6750" x="42.1" y="101.265238" style="stroke: #000000; stroke-width: 0.6"/>
      </g>
     </g>
    </g>
    <g id="ytick_12">
     <g id="line2d_45">
      <g>
       <use xlink:href="#mebfb6b6750" x="42.1" y="94.636083" style="stroke: #000000; stroke-width: 0.6"/>
      </g>
     </g>
    </g>
    <g id="ytick_13">
     <g id="line2d_46">
      <g>
       <use xlink:href="#mebfb6b6750" x="42.1" y="88.006929" style="stroke: #000000; stroke-width: 0.6"/>
      </g>
     </g>
    </g>
    <g id="ytick_14">
     <g id="line2d_47">
      <g>
       <use xlink:href="#mebfb6b6750" x="42.1" y="74.74862" style="stroke: #000000; stroke-width: 0.6"/>
      </g>
     </g>
    </g>
    <g id="ytick_15">
     <g id="line2d_48">
      <g>
       <use xlink:href="#mebfb6b6750" x="42.1" y="68.119466" style="stroke: #000000; stroke-width: 0.6"/>
      </g>
     </g>
    </g>
    <g id="ytick_16">
     <g id="line2d_49">
      <g>
       <use xlink:href="#mebfb6b6750" x="42.1" y="61.490311" style="stroke: #000000; stroke-width: 0.6"/>
      </g>
     </g>
    </g>
    <g id="ytick_17">
     <g id="line2d_50">
      <g>
       <use xlink:href="#mebfb6b6750" x="42.1" y="54.861157" style="stroke: #000000; stroke-width: 0.6"/>
      </g>
     </g>
    </g>
    <g id="ytick_18">
     <g id="line2d_51">
      <g>
       <use xlink:href="#mebfb6b6750" x="42.1" y="41.602848" style="stroke: #000000; stroke-width: 0.6"/>
      </g>
     </g>
    </g>
    <g id="ytick_19">
     <g id="line2d_52">
      <g>
       <use xlink:href="#mebfb6b6750" x="42.1" y="34.973694" style="stroke: #000000; stroke-width: 0.6"/>
      </g>
     </g>
    </g>
    <g id="ytick_20">
     <g id="line2d_53">
      <g>
       <use xlink:href="#mebfb6b6750" x="42.1" y="28.344539" style="stroke: #000000; stroke-width: 0.6"/>
      </g>
     </g>
    </g>
    <g id="ytick_21">
     <g id="line2d_54">
      <g>
       <use xlink:href="#mebfb6b6750" x="42.1" y="21.715385" style="stroke: #000000; stroke-width: 0.6"/>
      </g>
     </g>
    </g>
   </g>
   <g id="line2d_55">
    <path d="M 45.617308 81.377774 
L 53.430656 99.643619 
L 58.170663 110.122549 
L 61.085575 116.176514 
L 64.270211 122.357445 
L 67.33409 127.804728 
L 69.777216 131.753048 
L 72.288379 135.411322 
L 74.473352 138.241739 
L 76.831731 140.907655 
L 78.721446 142.739783 
L 81.039317 144.604472 
L 83.320397 146.01654 
L 85.03548 146.796055 
L 86.85973 147.355648 
L 89.00466 147.655136 
L 90.700249 147.616576 
L 91.974441 147.427636 
L 93.213638 147.11261 
L 95.502696 146.192555 
L 97.419903 145.088217 
L 99.119563 143.859129 
L 101.329456 141.917439 
L 102.712618 140.509357 
L 105.042124 137.813497 
L 107.485867 134.565902 
L 108.988192 132.366579 
L 111.838705 127.795451 
L 114.79287 122.551196 
L 117.080018 118.173115 
L 120.944731 110.233291 
L 124.374378 102.722298 
L 129.685312 90.501899 
L 143.50118 58.302641 
L 147.026856 50.678088 
L 151.083011 42.515216 
L 154.43118 36.383955 
L 157.355555 31.552068 
L 159.808715 27.915866 
L 162.169213 24.804156 
L 164.258775 22.384507 
L 166.858985 19.833821 
L 169.051747 18.094575 
L 171.345572 16.690756 
L 172.913971 15.980385 
L 174.818444 15.393941 
L 176.365045 15.142302 
L 177.924832 15.09329 
L 180.04189 15.355906 
L 181.95421 15.917736 
L 183.15247 16.425661 
L 184.962412 17.418175 
L 186.548856 18.508166 
L 188.855328 20.451946 
L 191.02835 22.661813 
L 192.963758 24.928316 
L 196.005481 29.030976 
L 198.505597 32.867931 
L 201.868719 38.633413 
L 204.866896 44.295667 
L 207.39177 49.39657 
L 211.331073 57.858202 
L 216.660243 70.012641 
L 221.482692 81.377774 
L 221.482692 81.377774 
" clip-path="url(#pbb82050306)" style="fill: none; stroke: #0000ff; stroke-linecap: square"/>
   </g>
   <g id="patch_4">
    <path d="M 42.1 150.319867 
L 42.1 12.437788 
" style="fill: none; stroke: #000000; stroke-width: 0.8; stroke-linejoin: miter; stroke-linecap: square"/>
   </g>
   <g id="patch_5">
    <path d="M 225 150.319867 
L 225 12.437788 
" style="fill: none; stroke: #000000; stroke-width: 0.8; stroke-linejoin: miter; stroke-linecap: square"/>
   </g>
   <g id="patch_6">
    <path d="M 42.1 150.319867 
L 225 150.319867 
" style="fill: none; stroke: #000000; stroke-width: 0.8; stroke-linejoin: miter; stroke-linecap: square"/>
   </g>
   <g id="patch_7">
    <path d="M 42.1 12.437788 
L 225 12.437788 
" style="fill: none; stroke: #000000; stroke-width: 0.8; stroke-linejoin: miter; stroke-linecap: square"/>
   </g>
  </g>
  <g id="axes_2">
   <g id="patch_8">
    <path d="M 267.1 150.319867 
L 450 150.319867 
L 450 12.437788 
L 267.1 12.437788 
z
" style="fill: #ffffff"/>
   </g>
   <g id="patch_9">
    <path d="M 270.617308 147.668289 
L 270.617308 81.377563 
L 271.265896 82.913577 
L 272.1052 84.899909 
L 273.546084 88.301587 
L 273.807092 88.91608 
L 275.202599 92.189109 
L 275.498646 92.880277 
L 276.942113 96.230422 
L 277.503288 97.522679 
L 278.564486 99.948212 
L 279.110374 101.185748 
L 280.656557 104.648524 
L 281.289954 106.04715 
L 282.229221 108.097715 
L 283.409655 110.631839 
L 283.705437 111.258841 
L 285.10677 114.182866 
L 285.608082 115.209313 
L 286.580441 117.16901 
L 287.382987 118.754033 
L 288.158059 120.255644 
L 288.866315 121.601767 
L 290.070589 123.831054 
L 291.174065 125.804858 
L 291.864092 127.004226 
L 292.30647 127.758603 
L 293.523361 129.77341 
L 294.818747 131.817592 
L 295.288355 132.532202 
L 296.580382 134.423401 
L 296.705127 134.600075 
L 297.608331 135.847521 
L 298.648484 137.213769 
L 299.370887 138.117388 
L 300.127065 139.022761 
L 300.883243 139.886062 
L 301.596176 140.660895 
L 302.163759 141.250285 
L 303.132274 142.199036 
L 304.075337 143.052893 
L 304.759086 143.628237 
L 305.689608 144.351492 
L 306.513004 144.933468 
L 307.536072 145.579902 
L 308.276666 145.994384 
L 309.017261 146.363629 
L 309.454924 146.560468 
L 310.23231 146.870775 
L 311.273234 147.207132 
L 312.536188 147.492967 
L 312.747311 147.527631 
L 313.762685 147.641739 
L 314.79914 147.668289 
L 315.606172 147.626022 
L 316.947504 147.433979 
L 317.103596 147.401767 
L 317.851863 147.218854 
L 318.60013 146.988888 
L 319.283939 146.737724 
L 320.399355 146.244396 
L 321.097094 145.883376 
L 321.568854 145.616552 
L 322.414826 145.092429 
L 323.357282 144.440017 
L 324.712061 143.377136 
L 325.336796 142.837916 
L 326.439673 141.811446 
L 327.567985 140.664231 
L 328.443284 139.707816 
L 329.372299 138.630332 
L 330.183164 137.638291 
L 330.658836 137.034311 
L 331.953841 135.309062 
L 332.699851 134.262557 
L 333.269054 133.438771 
L 333.847724 132.579215 
L 335.018468 130.773661 
L 336.32816 128.651572 
L 337.03379 127.46504 
L 337.691972 126.331875 
L 338.315901 125.234723 
L 339.398969 123.278771 
L 340.704153 120.838616 
L 341.719138 118.881437 
L 342.328746 117.68207 
L 342.929216 116.483845 
L 343.723602 114.87393 
L 345.106766 112.007179 
L 346.115315 109.869307 
L 346.8665 108.252795 
L 347.339714 107.224449 
L 348.15438 105.436952 
L 349.436242 102.583684 
L 349.840433 101.674497 
L 351.46897 97.97034 
L 352.095999 96.528477 
L 352.504162 95.58577 
L 353.847043 92.463967 
L 354.30058 91.403503 
L 355.496499 88.595307 
L 356.351176 86.580024 
L 357.3802 84.147375 
L 358.461831 81.586387 
L 358.694416 81.035522 
L 359.742036 78.555132 
L 360.996362 75.59084 
L 361.880228 73.508664 
L 362.906214 71.101668 
L 363.610818 69.456446 
L 364.721823 66.878045 
L 365.121916 65.9549 
L 365.662603 64.7124 
L 366.746162 62.24156 
L 367.769449 59.934423 
L 368.825402 57.583713 
L 369.559922 55.968334 
L 370.064866 54.867927 
L 371.770339 51.217101 
L 372.222084 50.268279 
L 372.902051 48.855466 
L 373.674901 47.273011 
L 375.273917 44.082827 
L 375.862767 42.938132 
L 376.504646 41.70975 
L 377.713134 39.454147 
L 378.73308 37.61109 
L 378.988828 37.157967 
L 380.587017 34.411465 
L 380.872399 33.93689 
L 381.881031 32.299439 
L 382.947704 30.637137 
L 383.960064 29.127587 
L 384.367048 28.53988 
L 385.553696 26.890503 
L 386.602891 25.513651 
L 387.516472 24.378624 
L 387.816444 24.019125 
L 389.272607 22.368339 
L 390.272424 21.327096 
L 390.988016 20.628822 
L 391.326111 20.312693 
L 392.395129 19.371964 
L 393.084704 18.813045 
L 394.464364 17.809099 
L 395.119891 17.386067 
L 395.921148 16.916681 
L 397.153814 16.297831 
L 397.726772 16.053081 
L 398.865137 15.648111 
L 399.652668 15.431533 
L 400.361894 15.281161 
L 401.09667 15.170128 
L 401.831446 15.104719 
L 402.190441 15.089367 
L 403.147151 15.101708 
L 404.279757 15.216395 
L 404.553616 15.260399 
L 405.456432 15.450262 
L 406.477968 15.747785 
L 407.773976 16.250977 
L 408.069704 16.385405 
L 409.399082 17.079067 
L 410.229543 17.586102 
L 410.806419 17.971391 
L 411.547078 18.505532 
L 412.287737 19.083696 
L 412.70164 19.425816 
L 413.66451 20.273978 
L 414.539723 21.107683 
L 415.911922 22.533086 
L 416.315943 22.97988 
L 416.95858 23.715583 
L 418.063585 25.051451 
L 419.00038 26.252804 
L 420.244807 27.943916 
L 420.6115 28.462531 
L 421.954326 30.438531 
L 422.521286 31.308292 
L 423.068257 32.166862 
L 424.476157 34.462443 
L 425.503506 36.212772 
L 426.049521 37.167949 
L 427.116693 39.083053 
L 427.831609 40.400572 
L 428.57445 41.797862 
L 429.615684 43.803126 
L 430.558738 45.664258 
L 431.064919 46.680068 
L 432.012118 48.611143 
L 433.36874 51.441703 
L 433.697251 52.137965 
L 435.22129 55.419235 
L 436.015858 57.161086 
L 436.655965 58.578586 
L 437.605703 60.703505 
L 438.581807 62.912191 
L 439.65383 65.363689 
L 440.525534 67.374579 
L 440.757725 67.912581 
L 442.22446 71.330991 
L 443.114457 73.419288 
L 444.171179 75.909069 
L 444.558411 76.82358 
L 445.773106 79.697119 
L 446.482692 81.377563 
L 446.482692 147.668289 
z
" clip-path="url(#p334dcfbcf7)" style="fill: #808080"/>
   </g>
   <g id="matplotlib.axis_3">
    <g id="xtick_34">
     <g id="line2d_56">
      <g>
       <use xlink:href="#m5e017e0bdf" x="274.580464" y="150.319867" style="stroke: #000000; stroke-width: 0.8"/>
      </g>
     </g>
     <g id="text_13">
      <!-- −3 -->
      <g transform="translate(267.20937 164.918304) scale(0.1 -0.1)">
       <use xlink:href="#DejaVuSans-2212"/>
       <use xlink:href="#DejaVuSans-33" x="83.789062"/>
      </g>
     </g>
    </g>
    <g id="xtick_35">
     <g id="line2d_57">
      <g>
       <use xlink:href="#m5e017e0bdf" x="302.570309" y="150.319867" style="stroke: #000000; stroke-width: 0.8"/>
      </g>
     </g>
     <g id="text_14">
      <!-- −2 -->
      <g transform="translate(295.199216 164.918304) scale(0.1 -0.1)">
       <use xlink:href="#DejaVuSans-2212"/>
       <use xlink:href="#DejaVuSans-32" x="83.789062"/>
      </g>
     </g>
    </g>
    <g id="xtick_36">
     <g id="line2d_58">
      <g>
       <use xlink:href="#m5e017e0bdf" x="330.560155" y="150.319867" style="stroke: #000000; stroke-width: 0.8"/>
      </g>
     </g>
     <g id="text_15">
      <!-- −1 -->
      <g transform="translate(323.189061 164.918304) scale(0.1 -0.1)">
       <use xlink:href="#DejaVuSans-2212"/>
       <use xlink:href="#DejaVuSans-31" x="83.789062"/>
      </g>
     </g>
    </g>
    <g id="xtick_37">
     <g id="line2d_59">
      <g>
       <use xlink:href="#m5e017e0bdf" x="358.55" y="150.319867" style="stroke: #000000; stroke-width: 0.8"/>
      </g>
     </g>
     <g id="text_16">
      <!-- 0 -->
      <g transform="translate(355.36875 164.918304) scale(0.1 -0.1)">
       <use xlink:href="#DejaVuSans-30"/>
      </g>
     </g>
    </g>
    <g id="xtick_38">
     <g id="line2d_60">
      <g>
       <use xlink:href="#m5e017e0bdf" x="386.539845" y="150.319867" style="stroke: #000000; stroke-width: 0.8"/>
      </g>
     </g>
     <g id="text_17">
      <!-- 1 -->
      <g transform="translate(383.358595 164.918304) scale(0.1 -0.1)">
       <use xlink:href="#DejaVuSans-31"/>
      </g>
     </g>
    </g>
    <g id="xtick_39">
     <g id="line2d_61">
      <g>
       <use xlink:href="#m5e017e0bdf" x="414.529691" y="150.319867" style="stroke: #000000; stroke-width: 0.8"/>
      </g>
     </g>
     <g id="text_18">
      <!-- 2 -->
      <g transform="translate(411.348441 164.918304) scale(0.1 -0.1)">
       <use xlink:href="#DejaVuSans-32"/>
      </g>
     </g>
    </g>
    <g id="xtick_40">
     <g id="line2d_62">
      <g>
       <use xlink:href="#m5e017e0bdf" x="442.519536" y="150.319867" style="stroke: #000000; stroke-width: 0.8"/>
      </g>
     </g>
     <g id="text_19">
      <!-- 3 -->
      <g transform="translate(439.338286 164.918304) scale(0.1 -0.1)">
       <use xlink:href="#DejaVuSans-33"/>
      </g>
     </g>
    </g>
    <g id="xtick_41">
     <g id="line2d_63">
      <g>
       <use xlink:href="#m537c6bee80" x="268.982495" y="150.319867" style="stroke: #000000; stroke-width: 0.6"/>
      </g>
     </g>
    </g>
    <g id="xtick_42">
     <g id="line2d_64">
      <g>
       <use xlink:href="#m537c6bee80" x="280.178433" y="150.319867" style="stroke: #000000; stroke-width: 0.6"/>
      </g>
     </g>
    </g>
    <g id="xtick_43">
     <g id="line2d_65">
      <g>
       <use xlink:href="#m537c6bee80" x="285.776402" y="150.319867" style="stroke: #000000; stroke-width: 0.6"/>
      </g>
     </g>
    </g>
    <g id="xtick_44">
     <g id="line2d_66">
      <g>
       <use xlink:href="#m537c6bee80" x="291.374371" y="150.319867" style="stroke: #000000; stroke-width: 0.6"/>
      </g>
     </g>
    </g>
    <g id="xtick_45">
     <g id="line2d_67">
      <g>
       <use xlink:href="#m537c6bee80" x="296.97234" y="150.319867" style="stroke: #000000; stroke-width: 0.6"/>
      </g>
     </g>
    </g>
    <g id="xtick_46">
     <g id="line2d_68">
      <g>
       <use xlink:href="#m537c6bee80" x="308.168278" y="150.319867" style="stroke: #000000; stroke-width: 0.6"/>
      </g>
     </g>
    </g>
    <g id="xtick_47">
     <g id="line2d_69">
      <g>
       <use xlink:href="#m537c6bee80" x="313.766248" y="150.319867" style="stroke: #000000; stroke-width: 0.6"/>
      </g>
     </g>
    </g>
    <g id="xtick_48">
     <g id="line2d_70">
      <g>
       <use xlink:href="#m537c6bee80" x="319.364217" y="150.319867" style="stroke: #000000; stroke-width: 0.6"/>
      </g>
     </g>
    </g>
    <g id="xtick_49">
     <g id="line2d_71">
      <g>
       <use xlink:href="#m537c6bee80" x="324.962186" y="150.319867" style="stroke: #000000; stroke-width: 0.6"/>
      </g>
     </g>
    </g>
    <g id="xtick_50">
     <g id="line2d_72">
      <g>
       <use xlink:href="#m537c6bee80" x="336.158124" y="150.319867" style="stroke: #000000; stroke-width: 0.6"/>
      </g>
     </g>
    </g>
    <g id="xtick_51">
     <g id="line2d_73">
      <g>
       <use xlink:href="#m537c6bee80" x="341.756093" y="150.319867" style="stroke: #000000; stroke-width: 0.6"/>
      </g>
     </g>
    </g>
    <g id="xtick_52">
     <g id="line2d_74">
      <g>
       <use xlink:href="#m537c6bee80" x="347.354062" y="150.319867" style="stroke: #000000; stroke-width: 0.6"/>
      </g>
     </g>
    </g>
    <g id="xtick_53">
     <g id="line2d_75">
      <g>
       <use xlink:href="#m537c6bee80" x="352.952031" y="150.319867" style="stroke: #000000; stroke-width: 0.6"/>
      </g>
     </g>
    </g>
    <g id="xtick_54">
     <g id="line2d_76">
      <g>
       <use xlink:href="#m537c6bee80" x="364.147969" y="150.319867" style="stroke: #000000; stroke-width: 0.6"/>
      </g>
     </g>
    </g>
    <g id="xtick_55">
     <g id="line2d_77">
      <g>
       <use xlink:href="#m537c6bee80" x="369.745938" y="150.319867" style="stroke: #000000; stroke-width: 0.6"/>
      </g>
     </g>
    </g>
    <g id="xtick_56">
     <g id="line2d_78">
      <g>
       <use xlink:href="#m537c6bee80" x="375.343907" y="150.319867" style="stroke: #000000; stroke-width: 0.6"/>
      </g>
     </g>
    </g>
    <g id="xtick_57">
     <g id="line2d_79">
      <g>
       <use xlink:href="#m537c6bee80" x="380.941876" y="150.319867" style="stroke: #000000; stroke-width: 0.6"/>
      </g>
     </g>
    </g>
    <g id="xtick_58">
     <g id="line2d_80">
      <g>
       <use xlink:href="#m537c6bee80" x="392.137814" y="150.319867" style="stroke: #000000; stroke-width: 0.6"/>
      </g>
     </g>
    </g>
    <g id="xtick_59">
     <g id="line2d_81">
      <g>
       <use xlink:href="#m537c6bee80" x="397.735783" y="150.319867" style="stroke: #000000; stroke-width: 0.6"/>
      </g>
     </g>
    </g>
    <g id="xtick_60">
     <g id="line2d_82">
      <g>
       <use xlink:href="#m537c6bee80" x="403.333752" y="150.319867" style="stroke: #000000; stroke-width: 0.6"/>
      </g>
     </g>
    </g>
    <g id="xtick_61">
     <g id="line2d_83">
      <g>
       <use xlink:href="#m537c6bee80" x="408.931722" y="150.319867" style="stroke: #000000; stroke-width: 0.6"/>
      </g>
     </g>
    </g>
    <g id="xtick_62">
     <g id="line2d_84">
      <g>
       <use xlink:href="#m537c6bee80" x="420.12766" y="150.319867" style="stroke: #000000; stroke-width: 0.6"/>
      </g>
     </g>
    </g>
    <g id="xtick_63">
     <g id="line2d_85">
      <g>
       <use xlink:href="#m537c6bee80" x="425.725629" y="150.319867" style="stroke: #000000; stroke-width: 0.6"/>
      </g>
     </g>
    </g>
    <g id="xtick_64">
     <g id="line2d_86">
      <g>
       <use xlink:href="#m537c6bee80" x="431.323598" y="150.319867" style="stroke: #000000; stroke-width: 0.6"/>
      </g>
     </g>
    </g>
    <g id="xtick_65">
     <g id="line2d_87">
      <g>
       <use xlink:href="#m537c6bee80" x="436.921567" y="150.319867" style="stroke: #000000; stroke-width: 0.6"/>
      </g>
     </g>
    </g>
    <g id="xtick_66">
     <g id="line2d_88">
      <g>
       <use xlink:href="#m537c6bee80" x="448.117505" y="150.319867" style="stroke: #000000; stroke-width: 0.6"/>
      </g>
     </g>
    </g>
   </g>
   <g id="matplotlib.axis_4">
    <g id="ytick_22">
     <g id="line2d_89">
      <g>
       <use xlink:href="#medd64927e8" x="267.1" y="147.670253" style="stroke: #000000; stroke-width: 0.8"/>
      </g>
     </g>
     <g id="text_20">
      <!-- −1.0 -->
      <g transform="translate(235.817188 151.469472) scale(0.1 -0.1)">
       <use xlink:href="#DejaVuSans-2212"/>
       <use xlink:href="#DejaVuSans-31" x="83.789062"/>
       <use xlink:href="#DejaVuSans-2e" x="147.412109"/>
       <use xlink:href="#DejaVuSans-30" x="179.199219"/>
      </g>
     </g>
    </g>
    <g id="ytick_23">
     <g id="line2d_90">
      <g>
       <use xlink:href="#medd64927e8" x="267.1" y="114.523908" style="stroke: #000000; stroke-width: 0.8"/>
      </g>
     </g>
     <g id="text_21">
      <!-- −0.5 -->
      <g transform="translate(235.817188 118.323127) scale(0.1 -0.1)">
       <use xlink:href="#DejaVuSans-2212"/>
       <use xlink:href="#DejaVuSans-30" x="83.789062"/>
       <use xlink:href="#DejaVuSans-2e" x="147.412109"/>
       <use xlink:href="#DejaVuSans-35" x="179.199219"/>
      </g>
     </g>
    </g>
    <g id="ytick_24">
     <g id="line2d_91">
      <g>
       <use xlink:href="#medd64927e8" x="267.1" y="81.377563" style="stroke: #000000; stroke-width: 0.8"/>
      </g>
     </g>
     <g id="text_22">
      <!-- 0.0 -->
      <g transform="translate(244.196875 85.176782) scale(0.1 -0.1)">
       <use xlink:href="#DejaVuSans-30"/>
       <use xlink:href="#DejaVuSans-2e" x="63.623047"/>
       <use xlink:href="#DejaVuSans-30" x="95.410156"/>
      </g>
     </g>
    </g>
    <g id="ytick_25">
     <g id="line2d_92">
      <g>
       <use xlink:href="#medd64927e8" x="267.1" y="48.231218" style="stroke: #000000; stroke-width: 0.8"/>
      </g>
     </g>
     <g id="text_23">
      <!-- 0.5 -->
      <g transform="translate(244.196875 52.030437) scale(0.1 -0.1)">
       <use xlink:href="#DejaVuSans-30"/>
       <use xlink:href="#DejaVuSans-2e" x="63.623047"/>
       <use xlink:href="#DejaVuSans-35" x="95.410156"/>
      </g>
     </g>
    </g>
    <g id="ytick_26">
     <g id="line2d_93">
      <g>
       <use xlink:href="#medd64927e8" x="267.1" y="15.084873" style="stroke: #000000; stroke-width: 0.8"/>
      </g>
     </g>
     <g id="text_24">
      <!-- 1.0 -->
      <g transform="translate(244.196875 18.884092) scale(0.1 -0.1)">
       <use xlink:href="#DejaVuSans-31"/>
       <use xlink:href="#DejaVuSans-2e" x="63.623047"/>
       <use xlink:href="#DejaVuSans-30" x="95.410156"/>
      </g>
     </g>
    </g>
    <g id="ytick_27">
     <g id="line2d_94">
      <g>
       <use xlink:href="#mebfb6b6750" x="267.1" y="141.040984" style="stroke: #000000; stroke-width: 0.6"/>
      </g>
     </g>
    </g>
    <g id="ytick_28">
     <g id="line2d_95">
      <g>
       <use xlink:href="#mebfb6b6750" x="267.1" y="134.411715" style="stroke: #000000; stroke-width: 0.6"/>
      </g>
     </g>
    </g>
    <g id="ytick_29">
     <g id="line2d_96">
      <g>
       <use xlink:href="#mebfb6b6750" x="267.1" y="127.782446" style="stroke: #000000; stroke-width: 0.6"/>
      </g>
     </g>
    </g>
    <g id="ytick_30">
     <g id="line2d_97">
      <g>
       <use xlink:href="#mebfb6b6750" x="267.1" y="121.153177" style="stroke: #000000; stroke-width: 0.6"/>
      </g>
     </g>
    </g>
    <g id="ytick_31">
     <g id="line2d_98">
      <g>
       <use xlink:href="#mebfb6b6750" x="267.1" y="107.894639" style="stroke: #000000; stroke-width: 0.6"/>
      </g>
     </g>
    </g>
    <g id="ytick_32">
     <g id="line2d_99">
      <g>
       <use xlink:href="#mebfb6b6750" x="267.1" y="101.26537" style="stroke: #000000; stroke-width: 0.6"/>
      </g>
     </g>
    </g>
    <g id="ytick_33">
     <g id="line2d_100">
      <g>
       <use xlink:href="#mebfb6b6750" x="267.1" y="94.636101" style="stroke: #000000; stroke-width: 0.6"/>
      </g>
     </g>
    </g>
    <g id="ytick_34">
     <g id="line2d_101">
      <g>
       <use xlink:href="#mebfb6b6750" x="267.1" y="88.006832" style="stroke: #000000; stroke-width: 0.6"/>
      </g>
     </g>
    </g>
    <g id="ytick_35">
     <g id="line2d_102">
      <g>
       <use xlink:href="#mebfb6b6750" x="267.1" y="74.748294" style="stroke: #000000; stroke-width: 0.6"/>
      </g>
     </g>
    </g>
    <g id="ytick_36">
     <g id="line2d_103">
      <g>
       <use xlink:href="#mebfb6b6750" x="267.1" y="68.119025" style="stroke: #000000; stroke-width: 0.6"/>
      </g>
     </g>
    </g>
    <g id="ytick_37">
     <g id="line2d_104">
      <g>
       <use xlink:href="#mebfb6b6750" x="267.1" y="61.489756" style="stroke: #000000; stroke-width: 0.6"/>
      </g>
     </g>
    </g>
    <g id="ytick_38">
     <g id="line2d_105">
      <g>
       <use xlink:href="#mebfb6b6750" x="267.1" y="54.860487" style="stroke: #000000; stroke-width: 0.6"/>
      </g>
     </g>
    </g>
    <g id="ytick_39">
     <g id="line2d_106">
      <g>
       <use xlink:href="#mebfb6b6750" x="267.1" y="41.601949" style="stroke: #000000; stroke-width: 0.6"/>
      </g>
     </g>
    </g>
    <g id="ytick_40">
     <g id="line2d_107">
      <g>
       <use xlink:href="#mebfb6b6750" x="267.1" y="34.97268" style="stroke: #000000; stroke-width: 0.6"/>
      </g>
     </g>
    </g>
    <g id="ytick_41">
     <g id="line2d_108">
      <g>
       <use xlink:href="#mebfb6b6750" x="267.1" y="28.343411" style="stroke: #000000; stroke-width: 0.6"/>
      </g>
     </g>
    </g>
    <g id="ytick_42">
     <g id="line2d_109">
      <g>
       <use xlink:href="#mebfb6b6750" x="267.1" y="21.714142" style="stroke: #000000; stroke-width: 0.6"/>
      </g>
     </g>
    </g>
   </g>
   <g id="line2d_110">
    <path d="M 270.617308 81.377563 
L 278.564486 99.948212 
L 282.229221 108.097715 
L 285.608082 115.209313 
L 288.866315 121.601767 
L 292.30647 127.758603 
L 295.288355 132.532202 
L 297.608331 135.847521 
L 300.127065 139.022761 
L 302.163759 141.250285 
L 304.075337 143.052893 
L 305.689608 144.351492 
L 307.536072 145.579902 
L 309.454924 146.560468 
L 311.273234 147.207132 
L 312.747311 147.527631 
L 314.79914 147.668289 
L 315.606172 147.626022 
L 317.851863 147.218854 
L 319.283939 146.737724 
L 321.568854 145.616552 
L 323.357282 144.440017 
L 325.336796 142.837916 
L 327.567985 140.664231 
L 329.372299 138.630332 
L 331.953841 135.309062 
L 333.847724 132.579215 
L 337.03379 127.46504 
L 339.398969 123.278771 
L 342.929216 116.483845 
L 346.115315 109.869307 
L 349.840433 101.674497 
L 355.496499 88.595307 
L 367.769449 59.934423 
L 372.222084 50.268279 
L 375.862767 42.938132 
L 378.988828 37.157967 
L 381.881031 32.299439 
L 384.367048 28.53988 
L 386.602891 25.513651 
L 389.272607 22.368339 
L 391.326111 20.312693 
L 393.084704 18.813045 
L 395.119891 17.386067 
L 397.153814 16.297831 
L 398.865137 15.648111 
L 400.361894 15.281161 
L 402.190441 15.089367 
L 404.279757 15.216395 
L 405.456432 15.450262 
L 406.477968 15.747785 
L 408.069704 16.385405 
L 410.229543 17.586102 
L 412.287737 19.083696 
L 413.66451 20.273978 
L 415.911922 22.533086 
L 418.063585 25.051451 
L 420.6115 28.462531 
L 423.068257 32.166862 
L 426.049521 37.167949 
L 428.57445 41.797862 
L 432.012118 48.611143 
L 436.015858 57.161086 
L 440.757725 67.912581 
L 446.482692 81.377563 
L 446.482692 81.377563 
" clip-path="url(#p334dcfbcf7)" style="fill: none; stroke: #0000ff; stroke-linecap: square"/>
   </g>
   <g id="patch_10">
    <path d="M 267.1 150.319867 
L 267.1 12.437788 
" style="fill: none; stroke: #000000; stroke-width: 0.8; stroke-linejoin: miter; stroke-linecap: square"/>
   </g>
   <g id="patch_11">
    <path d="M 450 150.319867 
L 450 12.437788 
" style="fill: none; stroke: #000000; stroke-width: 0.8; stroke-linejoin: miter; stroke-linecap: square"/>
   </g>
   <g id="patch_12">
    <path d="M 267.1 150.319867 
L 450 150.319867 
" style="fill: none; stroke: #000000; stroke-width: 0.8; stroke-linejoin: miter; stroke-linecap: square"/>
   </g>
   <g id="patch_13">
    <path d="M 267.1 12.437788 
L 450 12.437788 
" style="fill: none; stroke: #000000; stroke-width: 0.8; stroke-linejoin: miter; stroke-linecap: square"/>
   </g>
  </g>
  <g id="axes_3">
   <g id="patch_14">
    <path d="M 42.1 317.72 
L 225 317.72 
L 225 179.837921 
L 42.1 179.837921 
z
" style="fill: #ffffff"/>
   </g>
   <g id="patch_15">
    <path d="M 45.617308 182.4895 
L 45.617308 248.777175 
L 46.81874 251.621831 
L 47.677121 253.651331 
L 48.148737 254.764561 
L 49.240223 257.333919 
L 49.769743 258.575961 
L 50.786913 260.95162 
L 52.093254 263.978635 
L 53.046421 266.166767 
L 53.883225 268.071234 
L 54.097707 268.556662 
L 55.214576 271.065004 
L 56.14024 273.117207 
L 57.252836 275.548416 
L 58.257306 277.707126 
L 58.487413 278.196507 
L 60.099355 281.567107 
L 60.394225 282.172246 
L 61.530724 284.469333 
L 62.384081 286.155663 
L 63.569128 288.439495 
L 63.757127 288.795381 
L 65.39597 291.819535 
L 66.085356 293.048162 
L 66.833319 294.350785 
L 67.69239 295.806702 
L 68.222448 296.68301 
L 69.234293 298.307861 
L 70.117726 299.673653 
L 71.036467 301.040233 
L 72.15237 302.62422 
L 72.731357 303.412507 
L 74.195349 305.300696 
L 74.682091 305.89447 
L 75.3672 306.700925 
L 76.293614 307.73615 
L 77.4116 308.899353 
L 78.753924 310.16911 
L 79.571759 310.873697 
L 79.811699 311.07038 
L 81.228627 312.138067 
L 82.264272 312.815897 
L 82.954232 313.218873 
L 83.345582 313.430056 
L 84.09617 313.799692 
L 85.026056 314.192756 
L 86.172225 314.57787 
L 87.421647 314.871981 
L 88.322124 315.002325 
L 88.763674 315.041202 
L 89.753826 315.068422 
L 90.425635 315.039655 
L 91.547437 314.906551 
L 92.611452 314.682154 
L 93.343702 314.472382 
L 93.944705 314.266607 
L 94.943481 313.857913 
L 96.048055 313.309461 
L 96.742388 312.913208 
L 97.449037 312.469408 
L 98.866212 311.457342 
L 99.832487 310.674997 
L 100.244701 310.318745 
L 101.521475 309.130966 
L 101.961826 308.692057 
L 103.407417 307.147554 
L 104.055386 306.404463 
L 105.251348 304.952136 
L 105.551837 304.571008 
L 106.655843 303.115861 
L 107.06586 302.553784 
L 108.453418 300.566755 
L 109.533335 298.931962 
L 110.243128 297.816654 
L 111.106745 296.417185 
L 112.001545 294.919366 
L 112.640192 293.821396 
L 113.891397 291.602875 
L 114.918069 289.718364 
L 115.673219 288.296945 
L 116.623723 286.467052 
L 117.400833 284.938587 
L 118.039901 283.66069 
L 119.263866 281.163033 
L 120.150066 279.315702 
L 120.529119 278.516092 
L 121.738723 275.928685 
L 122.083387 275.181936 
L 123.071913 273.01838 
L 124.048212 270.8519 
L 124.917218 268.900838 
L 126.057513 266.311565 
L 126.591324 265.089175 
L 127.53248 262.919816 
L 128.969245 259.578085 
L 129.60612 258.087169 
L 130.255602 256.56178 
L 131.125081 254.513286 
L 132.514265 251.229698 
L 133.148102 249.729017 
L 134.303787 246.992086 
L 134.531302 246.453488 
L 135.33236 244.558602 
L 137.075327 240.449683 
L 137.403081 239.680152 
L 138.748651 236.535114 
L 139.320073 235.207652 
L 140.368278 232.787681 
L 141.483788 230.237032 
L 141.627083 229.911433 
L 142.589621 227.737561 
L 144.028385 224.535312 
L 144.863126 222.706254 
L 145.265133 221.83356 
L 146.096482 220.046668 
L 147.118096 217.885694 
L 148.160171 215.723852 
L 149.284038 213.44376 
L 150.114157 211.795993 
L 151.064911 209.948811 
L 151.725944 208.690792 
L 152.919837 206.475805 
L 153.688422 205.090344 
L 154.239965 204.116367 
L 154.778606 203.181905 
L 156.399222 200.473576 
L 157.201864 199.191621 
L 158.002608 197.953327 
L 159.02246 196.436548 
L 159.719541 195.439669 
L 160.589818 194.241608 
L 161.217022 193.410793 
L 162.036516 192.36722 
L 162.986533 191.218008 
L 164.116657 189.937378 
L 165.156098 188.844137 
L 166.13777 187.887513 
L 166.771217 187.309913 
L 167.576661 186.620981 
L 168.139168 186.170332 
L 169.363178 185.27733 
L 170.213216 184.728513 
L 171.4155 184.053234 
L 171.948473 183.792015 
L 172.723354 183.454286 
L 173.668959 183.109992 
L 174.725072 182.814068 
L 175.455064 182.664388 
L 176.71314 182.511996 
L 177.179625 182.4895 
L 178.402651 182.517935 
L 179.053267 182.584617 
L 179.536021 182.65721 
L 180.698218 182.912592 
L 182.075936 183.362359 
L 182.41488 183.497347 
L 183.714566 184.103497 
L 184.799309 184.716207 
L 185.001655 184.841178 
L 185.834691 185.390787 
L 186.638146 185.974073 
L 187.441602 186.609105 
L 187.739224 186.85737 
L 188.556967 187.575454 
L 189.445326 188.414724 
L 190.26692 189.245054 
L 191.402641 190.477149 
L 192.658464 191.951184 
L 193.417256 192.897455 
L 194.314371 194.069144 
L 195.268372 195.376756 
L 195.913419 196.296142 
L 197.017971 197.934911 
L 197.330224 198.412652 
L 198.239505 199.839318 
L 198.980035 201.039438 
L 200.053235 202.837763 
L 200.952585 204.396893 
L 202.010397 206.289247 
L 203.138009 208.373216 
L 203.645626 209.332965 
L 204.916197 211.791396 
L 205.545875 213.038325 
L 206.104485 214.159678 
L 207.171628 216.339808 
L 208.62127 219.376275 
L 209.018112 220.221607 
L 210.144638 222.651979 
L 210.740499 223.954855 
L 211.394865 225.398593 
L 212.394363 227.628194 
L 213.733715 230.657682 
L 214.52824 232.474872 
L 215.621098 234.995551 
L 216.274298 236.512436 
L 216.997228 238.199002 
L 218.05972 240.690239 
L 219.16465 243.293288 
L 219.499417 244.083822 
L 220.845872 247.26903 
L 221.482692 248.777175 
L 221.482692 182.4895 
z
" clip-path="url(#p9400d27667)" style="fill: #808080; opacity: 0.5"/>
   </g>
   <g id="matplotlib.axis_5">
    <g id="xtick_67">
     <g id="line2d_111">
      <g>
       <use xlink:href="#m5e017e0bdf" x="49.580464" y="317.72" style="stroke: #000000; stroke-width: 0.8"/>
      </g>
     </g>
     <g id="text_25">
      <!-- −3 -->
      <g transform="translate(42.20937 332.318437) scale(0.1 -0.1)">
       <use xlink:href="#DejaVuSans-2212"/>
       <use xlink:href="#DejaVuSans-33" x="83.789062"/>
      </g>
     </g>
    </g>
    <g id="xtick_68">
     <g id="line2d_112">
      <g>
       <use xlink:href="#m5e017e0bdf" x="77.570309" y="317.72" style="stroke: #000000; stroke-width: 0.8"/>
      </g>
     </g>
     <g id="text_26">
      <!-- −2 -->
      <g transform="translate(70.199216 332.318437) scale(0.1 -0.1)">
       <use xlink:href="#DejaVuSans-2212"/>
       <use xlink:href="#DejaVuSans-32" x="83.789062"/>
      </g>
     </g>
    </g>
    <g id="xtick_69">
     <g id="line2d_113">
      <g>
       <use xlink:href="#m5e017e0bdf" x="105.560155" y="317.72" style="stroke: #000000; stroke-width: 0.8"/>
      </g>
     </g>
     <g id="text_27">
      <!-- −1 -->
      <g transform="translate(98.189061 332.318437) scale(0.1 -0.1)">
       <use xlink:href="#DejaVuSans-2212"/>
       <use xlink:href="#DejaVuSans-31" x="83.789062"/>
      </g>
     </g>
    </g>
    <g id="xtick_70">
     <g id="line2d_114">
      <g>
       <use xlink:href="#m5e017e0bdf" x="133.55" y="317.72" style="stroke: #000000; stroke-width: 0.8"/>
      </g>
     </g>
     <g id="text_28">
      <!-- 0 -->
      <g transform="translate(130.36875 332.318437) scale(0.1 -0.1)">
       <use xlink:href="#DejaVuSans-30"/>
      </g>
     </g>
    </g>
    <g id="xtick_71">
     <g id="line2d_115">
      <g>
       <use xlink:href="#m5e017e0bdf" x="161.539845" y="317.72" style="stroke: #000000; stroke-width: 0.8"/>
      </g>
     </g>
     <g id="text_29">
      <!-- 1 -->
      <g transform="translate(158.358595 332.318437) scale(0.1 -0.1)">
       <use xlink:href="#DejaVuSans-31"/>
      </g>
     </g>
    </g>
    <g id="xtick_72">
     <g id="line2d_116">
      <g>
       <use xlink:href="#m5e017e0bdf" x="189.529691" y="317.72" style="stroke: #000000; stroke-width: 0.8"/>
      </g>
     </g>
     <g id="text_30">
      <!-- 2 -->
      <g transform="translate(186.348441 332.318437) scale(0.1 -0.1)">
       <use xlink:href="#DejaVuSans-32"/>
      </g>
     </g>
    </g>
    <g id="xtick_73">
     <g id="line2d_117">
      <g>
       <use xlink:href="#m5e017e0bdf" x="217.519536" y="317.72" style="stroke: #000000; stroke-width: 0.8"/>
      </g>
     </g>
     <g id="text_31">
      <!-- 3 -->
      <g transform="translate(214.338286 332.318437) scale(0.1 -0.1)">
       <use xlink:href="#DejaVuSans-33"/>
      </g>
     </g>
    </g>
    <g id="xtick_74">
     <g id="line2d_118">
      <g>
       <use xlink:href="#m537c6bee80" x="43.982495" y="317.72" style="stroke: #000000; stroke-width: 0.6"/>
      </g>
     </g>
    </g>
    <g id="xtick_75">
     <g id="line2d_119">
      <g>
       <use xlink:href="#m537c6bee80" x="55.178433" y="317.72" style="stroke: #000000; stroke-width: 0.6"/>
      </g>
     </g>
    </g>
    <g id="xtick_76">
     <g id="line2d_120">
      <g>
       <use xlink:href="#m537c6bee80" x="60.776402" y="317.72" style="stroke: #000000; stroke-width: 0.6"/>
      </g>
     </g>
    </g>
    <g id="xtick_77">
     <g id="line2d_121">
      <g>
       <use xlink:href="#m537c6bee80" x="66.374371" y="317.72" style="stroke: #000000; stroke-width: 0.6"/>
      </g>
     </g>
    </g>
    <g id="xtick_78">
     <g id="line2d_122">
      <g>
       <use xlink:href="#m537c6bee80" x="71.97234" y="317.72" style="stroke: #000000; stroke-width: 0.6"/>
      </g>
     </g>
    </g>
    <g id="xtick_79">
     <g id="line2d_123">
      <g>
       <use xlink:href="#m537c6bee80" x="83.168278" y="317.72" style="stroke: #000000; stroke-width: 0.6"/>
      </g>
     </g>
    </g>
    <g id="xtick_80">
     <g id="line2d_124">
      <g>
       <use xlink:href="#m537c6bee80" x="88.766248" y="317.72" style="stroke: #000000; stroke-width: 0.6"/>
      </g>
     </g>
    </g>
    <g id="xtick_81">
     <g id="line2d_125">
      <g>
       <use xlink:href="#m537c6bee80" x="94.364217" y="317.72" style="stroke: #000000; stroke-width: 0.6"/>
      </g>
     </g>
    </g>
    <g id="xtick_82">
     <g id="line2d_126">
      <g>
       <use xlink:href="#m537c6bee80" x="99.962186" y="317.72" style="stroke: #000000; stroke-width: 0.6"/>
      </g>
     </g>
    </g>
    <g id="xtick_83">
     <g id="line2d_127">
      <g>
       <use xlink:href="#m537c6bee80" x="111.158124" y="317.72" style="stroke: #000000; stroke-width: 0.6"/>
      </g>
     </g>
    </g>
    <g id="xtick_84">
     <g id="line2d_128">
      <g>
       <use xlink:href="#m537c6bee80" x="116.756093" y="317.72" style="stroke: #000000; stroke-width: 0.6"/>
      </g>
     </g>
    </g>
    <g id="xtick_85">
     <g id="line2d_129">
      <g>
       <use xlink:href="#m537c6bee80" x="122.354062" y="317.72" style="stroke: #000000; stroke-width: 0.6"/>
      </g>
     </g>
    </g>
    <g id="xtick_86">
     <g id="line2d_130">
      <g>
       <use xlink:href="#m537c6bee80" x="127.952031" y="317.72" style="stroke: #000000; stroke-width: 0.6"/>
      </g>
     </g>
    </g>
    <g id="xtick_87">
     <g id="line2d_131">
      <g>
       <use xlink:href="#m537c6bee80" x="139.147969" y="317.72" style="stroke: #000000; stroke-width: 0.6"/>
      </g>
     </g>
    </g>
    <g id="xtick_88">
     <g id="line2d_132">
      <g>
       <use xlink:href="#m537c6bee80" x="144.745938" y="317.72" style="stroke: #000000; stroke-width: 0.6"/>
      </g>
     </g>
    </g>
    <g id="xtick_89">
     <g id="line2d_133">
      <g>
       <use xlink:href="#m537c6bee80" x="150.343907" y="317.72" style="stroke: #000000; stroke-width: 0.6"/>
      </g>
     </g>
    </g>
    <g id="xtick_90">
     <g id="line2d_134">
      <g>
       <use xlink:href="#m537c6bee80" x="155.941876" y="317.72" style="stroke: #000000; stroke-width: 0.6"/>
      </g>
     </g>
    </g>
    <g id="xtick_91">
     <g id="line2d_135">
      <g>
       <use xlink:href="#m537c6bee80" x="167.137814" y="317.72" style="stroke: #000000; stroke-width: 0.6"/>
      </g>
     </g>
    </g>
    <g id="xtick_92">
     <g id="line2d_136">
      <g>
       <use xlink:href="#m537c6bee80" x="172.735783" y="317.72" style="stroke: #000000; stroke-width: 0.6"/>
      </g>
     </g>
    </g>
    <g id="xtick_93">
     <g id="line2d_137">
      <g>
       <use xlink:href="#m537c6bee80" x="178.333752" y="317.72" style="stroke: #000000; stroke-width: 0.6"/>
      </g>
     </g>
    </g>
    <g id="xtick_94">
     <g id="line2d_138">
      <g>
       <use xlink:href="#m537c6bee80" x="183.931722" y="317.72" style="stroke: #000000; stroke-width: 0.6"/>
      </g>
     </g>
    </g>
    <g id="xtick_95">
     <g id="line2d_139">
      <g>
       <use xlink:href="#m537c6bee80" x="195.12766" y="317.72" style="stroke: #000000; stroke-width: 0.6"/>
      </g>
     </g>
    </g>
    <g id="xtick_96">
     <g id="line2d_140">
      <g>
       <use xlink:href="#m537c6bee80" x="200.725629" y="317.72" style="stroke: #000000; stroke-width: 0.6"/>
      </g>
     </g>
    </g>
    <g id="xtick_97">
     <g id="line2d_141">
      <g>
       <use xlink:href="#m537c6bee80" x="206.323598" y="317.72" style="stroke: #000000; stroke-width: 0.6"/>
      </g>
     </g>
    </g>
    <g id="xtick_98">
     <g id="line2d_142">
      <g>
       <use xlink:href="#m537c6bee80" x="211.921567" y="317.72" style="stroke: #000000; stroke-width: 0.6"/>
      </g>
     </g>
    </g>
    <g id="xtick_99">
     <g id="line2d_143">
      <g>
       <use xlink:href="#m537c6bee80" x="223.117505" y="317.72" style="stroke: #000000; stroke-width: 0.6"/>
      </g>
     </g>
    </g>
   </g>
   <g id="matplotlib.axis_6">
    <g id="ytick_43">
     <g id="line2d_144">
      <g>
       <use xlink:href="#medd64927e8" x="42.1" y="315.069647" style="stroke: #000000; stroke-width: 0.8"/>
      </g>
     </g>
     <g id="text_32">
      <!-- −1.0 -->
      <g transform="translate(10.817188 318.868866) scale(0.1 -0.1)">
       <use xlink:href="#DejaVuSans-2212"/>
       <use xlink:href="#DejaVuSans-31" x="83.789062"/>
       <use xlink:href="#DejaVuSans-2e" x="147.412109"/>
       <use xlink:href="#DejaVuSans-30" x="179.199219"/>
      </g>
     </g>
    </g>
    <g id="ytick_44">
     <g id="line2d_145">
      <g>
       <use xlink:href="#medd64927e8" x="42.1" y="281.923411" style="stroke: #000000; stroke-width: 0.8"/>
      </g>
     </g>
     <g id="text_33">
      <!-- −0.5 -->
      <g transform="translate(10.817188 285.72263) scale(0.1 -0.1)">
       <use xlink:href="#DejaVuSans-2212"/>
       <use xlink:href="#DejaVuSans-30" x="83.789062"/>
       <use xlink:href="#DejaVuSans-2e" x="147.412109"/>
       <use xlink:href="#DejaVuSans-35" x="179.199219"/>
      </g>
     </g>
    </g>
    <g id="ytick_45">
     <g id="line2d_146">
      <g>
       <use xlink:href="#medd64927e8" x="42.1" y="248.777175" style="stroke: #000000; stroke-width: 0.8"/>
      </g>
     </g>
     <g id="text_34">
      <!-- 0.0 -->
      <g transform="translate(19.196875 252.576394) scale(0.1 -0.1)">
       <use xlink:href="#DejaVuSans-30"/>
       <use xlink:href="#DejaVuSans-2e" x="63.623047"/>
       <use xlink:href="#DejaVuSans-30" x="95.410156"/>
      </g>
     </g>
    </g>
    <g id="ytick_46">
     <g id="line2d_147">
      <g>
       <use xlink:href="#medd64927e8" x="42.1" y="215.630939" style="stroke: #000000; stroke-width: 0.8"/>
      </g>
     </g>
     <g id="text_35">
      <!-- 0.5 -->
      <g transform="translate(19.196875 219.430158) scale(0.1 -0.1)">
       <use xlink:href="#DejaVuSans-30"/>
       <use xlink:href="#DejaVuSans-2e" x="63.623047"/>
       <use xlink:href="#DejaVuSans-35" x="95.410156"/>
      </g>
     </g>
    </g>
    <g id="ytick_47">
     <g id="line2d_148">
      <g>
       <use xlink:href="#medd64927e8" x="42.1" y="182.484703" style="stroke: #000000; stroke-width: 0.8"/>
      </g>
     </g>
     <g id="text_36">
      <!-- 1.0 -->
      <g transform="translate(19.196875 186.283922) scale(0.1 -0.1)">
       <use xlink:href="#DejaVuSans-31"/>
       <use xlink:href="#DejaVuSans-2e" x="63.623047"/>
       <use xlink:href="#DejaVuSans-30" x="95.410156"/>
      </g>
     </g>
    </g>
    <g id="ytick_48">
     <g id="line2d_149">
      <g>
       <use xlink:href="#mebfb6b6750" x="42.1" y="308.4404" style="stroke: #000000; stroke-width: 0.6"/>
      </g>
     </g>
    </g>
    <g id="ytick_49">
     <g id="line2d_150">
      <g>
       <use xlink:href="#mebfb6b6750" x="42.1" y="301.811152" style="stroke: #000000; stroke-width: 0.6"/>
      </g>
     </g>
    </g>
    <g id="ytick_50">
     <g id="line2d_151">
      <g>
       <use xlink:href="#mebfb6b6750" x="42.1" y="295.181905" style="stroke: #000000; stroke-width: 0.6"/>
      </g>
     </g>
    </g>
    <g id="ytick_51">
     <g id="line2d_152">
      <g>
       <use xlink:href="#mebfb6b6750" x="42.1" y="288.552658" style="stroke: #000000; stroke-width: 0.6"/>
      </g>
     </g>
    </g>
    <g id="ytick_52">
     <g id="line2d_153">
      <g>
       <use xlink:href="#mebfb6b6750" x="42.1" y="275.294164" style="stroke: #000000; stroke-width: 0.6"/>
      </g>
     </g>
    </g>
    <g id="ytick_53">
     <g id="line2d_154">
      <g>
       <use xlink:href="#mebfb6b6750" x="42.1" y="268.664916" style="stroke: #000000; stroke-width: 0.6"/>
      </g>
     </g>
    </g>
    <g id="ytick_54">
     <g id="line2d_155">
      <g>
       <use xlink:href="#mebfb6b6750" x="42.1" y="262.035669" style="stroke: #000000; stroke-width: 0.6"/>
      </g>
     </g>
    </g>
    <g id="ytick_55">
     <g id="line2d_156">
      <g>
       <use xlink:href="#mebfb6b6750" x="42.1" y="255.406422" style="stroke: #000000; stroke-width: 0.6"/>
      </g>
     </g>
    </g>
    <g id="ytick_56">
     <g id="line2d_157">
      <g>
       <use xlink:href="#mebfb6b6750" x="42.1" y="242.147928" style="stroke: #000000; stroke-width: 0.6"/>
      </g>
     </g>
    </g>
    <g id="ytick_57">
     <g id="line2d_158">
      <g>
       <use xlink:href="#mebfb6b6750" x="42.1" y="235.51868" style="stroke: #000000; stroke-width: 0.6"/>
      </g>
     </g>
    </g>
    <g id="ytick_58">
     <g id="line2d_159">
      <g>
       <use xlink:href="#mebfb6b6750" x="42.1" y="228.889433" style="stroke: #000000; stroke-width: 0.6"/>
      </g>
     </g>
    </g>
    <g id="ytick_59">
     <g id="line2d_160">
      <g>
       <use xlink:href="#mebfb6b6750" x="42.1" y="222.260186" style="stroke: #000000; stroke-width: 0.6"/>
      </g>
     </g>
    </g>
    <g id="ytick_60">
     <g id="line2d_161">
      <g>
       <use xlink:href="#mebfb6b6750" x="42.1" y="209.001692" style="stroke: #000000; stroke-width: 0.6"/>
      </g>
     </g>
    </g>
    <g id="ytick_61">
     <g id="line2d_162">
      <g>
       <use xlink:href="#mebfb6b6750" x="42.1" y="202.372444" style="stroke: #000000; stroke-width: 0.6"/>
      </g>
     </g>
    </g>
    <g id="ytick_62">
     <g id="line2d_163">
      <g>
       <use xlink:href="#mebfb6b6750" x="42.1" y="195.743197" style="stroke: #000000; stroke-width: 0.6"/>
      </g>
     </g>
    </g>
    <g id="ytick_63">
     <g id="line2d_164">
      <g>
       <use xlink:href="#mebfb6b6750" x="42.1" y="189.11395" style="stroke: #000000; stroke-width: 0.6"/>
      </g>
     </g>
    </g>
   </g>
   <g id="line2d_165">
    <path d="M 45.617308 248.777175 
L 53.883225 268.071234 
L 58.257306 277.707126 
L 61.530724 284.469333 
L 63.757127 288.795381 
L 66.833319 294.350785 
L 69.234293 298.307861 
L 72.15237 302.62422 
L 74.682091 305.89447 
L 76.293614 307.73615 
L 78.753924 310.16911 
L 79.811699 311.07038 
L 82.264272 312.815897 
L 84.09617 313.799692 
L 86.172225 314.57787 
L 88.322124 315.002325 
L 89.753826 315.068422 
L 91.547437 314.906551 
L 93.343702 314.472382 
L 94.943481 313.857913 
L 96.742388 312.913208 
L 98.866212 311.457342 
L 100.244701 310.318745 
L 101.961826 308.692057 
L 104.055386 306.404463 
L 106.655843 303.115861 
L 108.453418 300.566755 
L 111.106745 296.417185 
L 113.891397 291.602875 
L 117.400833 284.938587 
L 120.529119 278.516092 
L 124.917218 268.900838 
L 130.255602 256.56178 
L 142.589621 227.737561 
L 147.118096 217.885694 
L 151.064911 209.948811 
L 154.239965 204.116367 
L 157.201864 199.191621 
L 159.719541 195.439669 
L 162.036516 192.36722 
L 164.116657 189.937378 
L 166.13777 187.887513 
L 168.139168 186.170332 
L 170.213216 184.728513 
L 171.948473 183.792015 
L 173.668959 183.109992 
L 175.455064 182.664388 
L 177.179625 182.4895 
L 179.053267 182.584617 
L 180.698218 182.912592 
L 182.41488 183.497347 
L 184.799309 184.716207 
L 186.638146 185.974073 
L 188.556967 187.575454 
L 190.26692 189.245054 
L 192.658464 191.951184 
L 195.268372 195.376756 
L 197.330224 198.412652 
L 200.053235 202.837763 
L 203.138009 208.373216 
L 206.104485 214.159678 
L 210.144638 222.651979 
L 214.52824 232.474872 
L 221.482692 248.777175 
L 221.482692 248.777175 
" clip-path="url(#p9400d27667)" style="fill: none; stroke: #0000ff; stroke-linecap: square"/>
   </g>
   <g id="patch_16">
    <path d="M 42.1 317.72 
L 42.1 179.837921 
" style="fill: none; stroke: #000000; stroke-width: 0.8; stroke-linejoin: miter; stroke-linecap: square"/>
   </g>
   <g id="patch_17">
    <path d="M 225 317.72 
L 225 179.837921 
" style="fill: none; stroke: #000000; stroke-width: 0.8; stroke-linejoin: miter; stroke-linecap: square"/>
   </g>
   <g id="patch_18">
    <path d="M 42.1 317.72 
L 225 317.72 
" style="fill: none; stroke: #000000; stroke-width: 0.8; stroke-linejoin: miter; stroke-linecap: square"/>
   </g>
   <g id="patch_19">
    <path d="M 42.1 179.837921 
L 225 179.837921 
" style="fill: none; stroke: #000000; stroke-width: 0.8; stroke-linejoin: miter; stroke-linecap: square"/>
   </g>
  </g>
  <g id="axes_4">
   <g id="patch_20">
    <path d="M 267.1 317.72 
L 450 317.72 
L 450 179.837921 
L 267.1 179.837921 
z
" style="fill: #ffffff"/>
   </g>
   <g id="patch_21">
    <path d="M 446.482692 299.132713 
L 446.035514 298.836121 
L 444.594281 297.880219 
L 444.033097 297.508012 
L 442.834393 296.712968 
L 442.236841 296.31664 
L 440.988944 295.488969 
L 439.934835 294.789828 
L 439.691642 294.62853 
L 438.472457 293.819902 
L 438.012322 293.514716 
L 436.437918 292.470489 
L 435.781254 292.034954 
L 434.804243 291.386949 
L 433.759715 290.694163 
L 433.552175 290.556511 
L 432.278674 289.711858 
L 431.31711 289.074098 
L 430.244358 288.362592 
L 429.256862 287.707632 
L 428.529117 287.224954 
L 428.22089 287.020521 
L 426.709987 286.01841 
L 426.220989 285.694081 
L 425.084103 284.940039 
L 424.463694 284.52855 
L 423.704815 284.025222 
L 422.880123 283.478242 
L 421.412941 282.50513 
L 420.693503 282.027961 
L 419.560489 281.276485 
L 419.36712 281.148233 
L 418.301093 280.441188 
L 417.263269 279.752848 
L 416.073243 278.96356 
L 415.865236 278.825599 
L 414.660007 278.026227 
L 413.903409 277.524412 
L 412.800863 276.793145 
L 411.77988 276.115975 
L 411.161076 275.705552 
L 409.953986 274.904946 
L 409.071559 274.319673 
L 408.611963 274.014845 
L 407.615968 273.354248 
L 407.014848 272.955554 
L 405.759368 272.122853 
L 404.685832 271.410828 
L 404.250596 271.122156 
L 403.230236 270.445399 
L 402.599892 270.027322 
L 401.603866 269.366705 
L 400.248673 268.467869 
L 399.863662 268.21251 
L 398.543822 267.337122 
L 398.090159 267.036229 
L 397.100211 266.379643 
L 395.693583 265.446693 
L 395.363942 265.228058 
L 393.932443 264.278612 
L 393.501195 263.992585 
L 392.805714 263.531306 
L 392.005835 263.000784 
L 390.641089 262.095612 
L 389.91482 261.613912 
L 389.154607 261.109699 
L 387.980724 260.331118 
L 387.684715 260.134788 
L 386.466467 259.326782 
L 385.923558 258.966696 
L 384.401802 257.957387 
L 383.6059 257.429503 
L 383.083577 257.083071 
L 381.615832 256.109585 
L 380.812377 255.576691 
L 380.348782 255.26921 
L 379.610952 254.779843 
L 378.586649 254.100471 
L 377.261317 253.221441 
L 376.944729 253.011463 
L 375.742816 252.21429 
L 374.517246 251.401427 
L 373.653348 250.828445 
L 373.035485 250.418645 
L 372.573709 250.112371 
L 371.681927 249.520894 
L 370.577189 248.788173 
L 369.562946 248.115474 
L 368.62378 247.492569 
L 367.574906 246.796901 
L 366.708797 246.222452 
L 366.373253 245.999901 
L 365.071876 245.136759 
L 363.941225 244.386852 
L 363.295669 243.958685 
L 362.155457 243.202436 
L 361.884069 243.022437 
L 360.796069 242.300818 
L 360.28101 241.959204 
L 359.428277 241.393626 
L 358.116734 240.523741 
L 356.802278 239.651925 
L 356.463571 239.427277 
L 355.791472 238.981505 
L 354.869925 238.370287 
L 353.312595 237.337383 
L 352.93085 237.08419 
L 352.217734 236.611214 
L 351.279333 235.988816 
L 350.032936 235.16214 
L 349.173599 234.592182 
L 348.652181 234.24635 
L 347.234573 233.306118 
L 346.605033 232.888573 
L 346.057347 232.525319 
L 344.788264 231.683596 
L 344.025238 231.177517 
L 342.875379 230.41487 
L 342.493494 230.161583 
L 341.243602 229.332589 
L 340.397804 228.771611 
L 339.968642 228.486968 
L 338.274629 227.363409 
L 337.950017 227.14811 
L 336.530873 226.206858 
L 335.81342 225.731006 
L 335.233224 225.346189 
L 333.978395 224.51392 
L 333.102045 223.932678 
L 332.679766 223.652601 
L 331.775307 223.052716 
L 330.599917 222.273135 
L 330.234403 222.030707 
L 329.337665 221.435942 
L 327.981922 220.536742 
L 326.903227 219.821295 
L 325.924591 219.172212 
L 325.318085 218.769945 
L 324.627056 218.311618 
L 323.70564 217.700487 
L 322.334941 216.791367 
L 322.149535 216.668395 
L 320.876241 215.82388 
L 319.73102 215.064308 
L 319.587565 214.969161 
L 318.518307 214.259973 
L 317.552943 213.619693 
L 316.176379 212.706683 
L 315.281132 212.112908 
L 314.414469 211.538091 
L 313.533679 210.953905 
L 313.026132 210.617272 
L 312.396303 210.199537 
L 311.173334 209.388399 
L 310.509903 208.948377 
L 309.820485 208.491118 
L 308.895999 207.87795 
L 307.938917 207.243162 
L 306.441952 206.250296 
L 305.827214 205.84257 
L 305.37183 205.540535 
L 304.087241 204.688528 
L 303.120084 204.047058 
L 302.050942 203.337946 
L 301.573082 203.021004 
L 301.104158 202.70999 
L 299.581681 201.700202 
L 298.667991 201.094195 
L 297.948962 200.617297 
L 296.998784 199.987089 
L 296.343123 199.55222 
L 295.377967 198.912077 
L 294.361979 198.23822 
L 293.852587 197.900365 
L 292.329786 196.890362 
L 291.625024 196.422927 
L 291.041135 196.035661 
L 289.680254 195.133053 
L 289.533761 195.035891 
L 288.576341 194.400879 
L 287.653358 193.788708 
L 286.113343 192.767289 
L 285.345877 192.258265 
L 284.931424 191.983378 
L 283.451224 191.001631 
L 283.01166 190.710089 
L 282.294301 190.234299 
L 281.37013 189.62134 
L 280.009025 188.718583 
L 279.255168 188.218585 
L 278.428439 187.670255 
L 277.373103 186.9703 
L 276.673117 186.506033 
L 276.168473 186.171326 
L 274.769919 185.243731 
L 273.890001 184.660123 
L 273.390183 184.328617 
L 271.98997 183.399922 
L 271.466683 183.05285 
L 270.617308 182.4895 
L 270.617308 259.375451 
L 271.336583 260.806477 
L 272.048401 262.221739 
L 273.653416 265.404733 
L 274.224358 266.532761 
L 275.426249 268.897076 
L 275.546294 269.132331 
L 277.226405 272.404098 
L 277.377446 272.696101 
L 278.980922 275.77048 
L 279.0995 275.99582 
L 279.89872 277.506629 
L 281.035997 279.630704 
L 281.765068 280.975012 
L 283.371293 283.883688 
L 284.188474 285.333127 
L 284.509691 285.896882 
L 285.317443 287.298935 
L 286.297995 288.969565 
L 287.049255 290.225072 
L 288.590138 292.729688 
L 289.118154 293.565074 
L 290.257942 295.326491 
L 291.034048 296.491941 
L 291.864083 297.706771 
L 292.733575 298.943185 
L 293.954828 300.615063 
L 294.166545 300.897004 
L 295.566619 302.700919 
L 296.454213 303.788673 
L 296.837242 304.244346 
L 297.640703 305.172792 
L 298.532386 306.158975 
L 299.760531 307.439351 
L 301.034374 308.669588 
L 301.962435 309.501739 
L 302.056001 309.582593 
L 302.80141 310.206611 
L 303.546818 310.794581 
L 304.298447 311.350532 
L 304.80067 311.701144 
L 305.872865 312.393156 
L 307.290661 313.188633 
L 307.558289 313.323358 
L 308.570103 313.788038 
L 309.579443 314.180746 
L 310.539831 314.488255 
L 311.073266 314.63105 
L 312.399227 314.898961 
L 312.765068 314.95097 
L 313.487036 315.025743 
L 314.542268 315.068422 
L 315.857177 315.010844 
L 316.547835 314.931409 
L 317.638541 314.7371 
L 318.27679 314.584388 
L 319.425281 314.237352 
L 319.870326 314.078008 
L 320.935494 313.640561 
L 321.548028 313.353371 
L 322.764428 312.706564 
L 323.31098 312.383071 
L 324.493051 311.614474 
L 325.444348 310.928207 
L 325.86455 310.606064 
L 326.981477 309.693853 
L 328.29523 308.518471 
L 328.609107 308.221531 
L 330.101118 306.726694 
L 331.103535 305.646555 
L 331.885011 304.763249 
L 332.090212 304.525417 
L 333.473791 302.859128 
L 334.244636 301.884424 
L 335.312756 300.480703 
L 336.304914 299.123145 
L 336.808025 298.415554 
L 337.79491 296.991148 
L 338.889312 295.356957 
L 339.737545 294.052386 
L 340.435054 292.955713 
L 341.357312 291.473773 
L 342.413197 289.734427 
L 343.493198 287.910685 
L 343.849706 287.299207 
L 344.942093 285.397783 
L 345.410039 284.570975 
L 346.963841 281.776362 
L 347.668225 280.486222 
L 348.137632 279.618989 
L 349.141588 277.745374 
L 349.805161 276.49387 
L 351.061715 274.098219 
L 352.046435 272.199849 
L 352.990408 270.365098 
L 353.482813 269.402944 
L 354.458956 267.486687 
L 355.23545 265.955201 
L 355.965317 264.511039 
L 357.032131 262.394164 
L 357.887424 260.693693 
L 359.076144 258.328612 
L 360.194361 256.105451 
L 361.032253 254.442838 
L 361.420429 253.673995 
L 362.941826 250.672591 
L 363.022837 250.513416 
L 364.536103 247.555142 
L 365.074522 246.510477 
L 366.059042 244.612853 
L 366.885943 243.033047 
L 367.976836 240.970924 
L 368.819808 239.396432 
L 369.635726 237.889714 
L 370.886519 235.615815 
L 371.363155 234.761546 
L 372.060083 233.525369 
L 373.351658 231.277371 
L 373.96088 230.237489 
L 374.618923 229.129797 
L 375.394094 227.846433 
L 376.739027 225.67771 
L 377.361817 224.699508 
L 378.671432 222.699098 
L 379.750724 221.110657 
L 380.153993 220.531623 
L 380.976741 219.375414 
L 381.842619 218.195936 
L 382.668588 217.107528 
L 384.098434 215.310906 
L 384.265164 215.108806 
L 385.637434 213.505722 
L 386.801505 212.232129 
L 387.439236 211.568829 
L 388.112831 210.895184 
L 388.635204 210.392081 
L 389.597851 209.50976 
L 391.030737 208.305965 
L 391.278301 208.111455 
L 392.672447 207.091388 
L 393.73821 206.398933 
L 394.607928 205.890718 
L 395.431548 205.457036 
L 395.861038 205.249383 
L 396.783252 204.846623 
L 398.007278 204.403533 
L 398.322857 204.306309 
L 399.412798 204.024431 
L 400.133181 203.88417 
L 400.853564 203.780664 
L 401.507425 203.718596 
L 402.714841 203.683819 
L 403.412703 203.710974 
L 403.713192 203.733326 
L 404.872381 203.879605 
L 405.868684 204.081394 
L 406.737168 204.314453 
L 407.743047 204.650614 
L 408.081042 204.779457 
L 409.497693 205.405856 
L 410.185871 205.760142 
L 410.89181 206.157244 
L 412.217963 206.994536 
L 412.934451 207.495952 
L 413.48973 207.907949 
L 414.941029 209.079977 
L 415.754042 209.79584 
L 416.366493 210.362764 
L 416.966546 210.940971 
L 418.15736 212.154083 
L 418.741398 212.780435 
L 419.564495 213.697541 
L 420.387592 214.654146 
L 421.287715 215.744509 
L 421.773435 216.351701 
L 422.522719 217.313714 
L 423.908148 219.171338 
L 424.125349 219.471617 
L 425.553129 221.504477 
L 426.150973 222.385258 
L 427.456269 224.366383 
L 427.714628 224.767674 
L 428.813515 226.507023 
L 429.332958 227.34701 
L 430.802484 229.782143 
L 431.892855 231.642071 
L 432.345211 232.426204 
L 433.356657 234.204641 
L 433.672048 234.766028 
L 434.660055 236.54455 
L 435.923114 238.859317 
L 436.750075 240.397786 
L 437.488068 241.784768 
L 438.382102 243.481299 
L 439.448849 245.526645 
L 440.024756 246.639421 
L 440.806535 248.158522 
L 442.473073 251.424536 
L 442.848603 252.164789 
L 443.652389 253.753422 
L 444.463852 255.361927 
L 445.981581 258.378414 
L 446.482692 259.375451 
z
" clip-path="url(#p8b8a95b5fe)" style="fill: #0000ff; opacity: 0.2"/>
   </g>
   <g id="matplotlib.axis_7">
    <g id="xtick_100">
     <g id="line2d_166">
      <g>
       <use xlink:href="#m5e017e0bdf" x="274.580464" y="317.72" style="stroke: #000000; stroke-width: 0.8"/>
      </g>
     </g>
     <g id="text_37">
      <!-- −3 -->
      <g transform="translate(267.20937 332.318437) scale(0.1 -0.1)">
       <use xlink:href="#DejaVuSans-2212"/>
       <use xlink:href="#DejaVuSans-33" x="83.789062"/>
      </g>
     </g>
    </g>
    <g id="xtick_101">
     <g id="line2d_167">
      <g>
       <use xlink:href="#m5e017e0bdf" x="302.570309" y="317.72" style="stroke: #000000; stroke-width: 0.8"/>
      </g>
     </g>
     <g id="text_38">
      <!-- −2 -->
      <g transform="translate(295.199216 332.318437) scale(0.1 -0.1)">
       <use xlink:href="#DejaVuSans-2212"/>
       <use xlink:href="#DejaVuSans-32" x="83.789062"/>
      </g>
     </g>
    </g>
    <g id="xtick_102">
     <g id="line2d_168">
      <g>
       <use xlink:href="#m5e017e0bdf" x="330.560155" y="317.72" style="stroke: #000000; stroke-width: 0.8"/>
      </g>
     </g>
     <g id="text_39">
      <!-- −1 -->
      <g transform="translate(323.189061 332.318437) scale(0.1 -0.1)">
       <use xlink:href="#DejaVuSans-2212"/>
       <use xlink:href="#DejaVuSans-31" x="83.789062"/>
      </g>
     </g>
    </g>
    <g id="xtick_103">
     <g id="line2d_169">
      <g>
       <use xlink:href="#m5e017e0bdf" x="358.55" y="317.72" style="stroke: #000000; stroke-width: 0.8"/>
      </g>
     </g>
     <g id="text_40">
      <!-- 0 -->
      <g transform="translate(355.36875 332.318437) scale(0.1 -0.1)">
       <use xlink:href="#DejaVuSans-30"/>
      </g>
     </g>
    </g>
    <g id="xtick_104">
     <g id="line2d_170">
      <g>
       <use xlink:href="#m5e017e0bdf" x="386.539845" y="317.72" style="stroke: #000000; stroke-width: 0.8"/>
      </g>
     </g>
     <g id="text_41">
      <!-- 1 -->
      <g transform="translate(383.358595 332.318437) scale(0.1 -0.1)">
       <use xlink:href="#DejaVuSans-31"/>
      </g>
     </g>
    </g>
    <g id="xtick_105">
     <g id="line2d_171">
      <g>
       <use xlink:href="#m5e017e0bdf" x="414.529691" y="317.72" style="stroke: #000000; stroke-width: 0.8"/>
      </g>
     </g>
     <g id="text_42">
      <!-- 2 -->
      <g transform="translate(411.348441 332.318437) scale(0.1 -0.1)">
       <use xlink:href="#DejaVuSans-32"/>
      </g>
     </g>
    </g>
    <g id="xtick_106">
     <g id="line2d_172">
      <g>
       <use xlink:href="#m5e017e0bdf" x="442.519536" y="317.72" style="stroke: #000000; stroke-width: 0.8"/>
      </g>
     </g>
     <g id="text_43">
      <!-- 3 -->
      <g transform="translate(439.338286 332.318437) scale(0.1 -0.1)">
       <use xlink:href="#DejaVuSans-33"/>
      </g>
     </g>
    </g>
    <g id="xtick_107">
     <g id="line2d_173">
      <g>
       <use xlink:href="#m537c6bee80" x="268.982495" y="317.72" style="stroke: #000000; stroke-width: 0.6"/>
      </g>
     </g>
    </g>
    <g id="xtick_108">
     <g id="line2d_174">
      <g>
       <use xlink:href="#m537c6bee80" x="280.178433" y="317.72" style="stroke: #000000; stroke-width: 0.6"/>
      </g>
     </g>
    </g>
    <g id="xtick_109">
     <g id="line2d_175">
      <g>
       <use xlink:href="#m537c6bee80" x="285.776402" y="317.72" style="stroke: #000000; stroke-width: 0.6"/>
      </g>
     </g>
    </g>
    <g id="xtick_110">
     <g id="line2d_176">
      <g>
       <use xlink:href="#m537c6bee80" x="291.374371" y="317.72" style="stroke: #000000; stroke-width: 0.6"/>
      </g>
     </g>
    </g>
    <g id="xtick_111">
     <g id="line2d_177">
      <g>
       <use xlink:href="#m537c6bee80" x="296.97234" y="317.72" style="stroke: #000000; stroke-width: 0.6"/>
      </g>
     </g>
    </g>
    <g id="xtick_112">
     <g id="line2d_178">
      <g>
       <use xlink:href="#m537c6bee80" x="308.168278" y="317.72" style="stroke: #000000; stroke-width: 0.6"/>
      </g>
     </g>
    </g>
    <g id="xtick_113">
     <g id="line2d_179">
      <g>
       <use xlink:href="#m537c6bee80" x="313.766248" y="317.72" style="stroke: #000000; stroke-width: 0.6"/>
      </g>
     </g>
    </g>
    <g id="xtick_114">
     <g id="line2d_180">
      <g>
       <use xlink:href="#m537c6bee80" x="319.364217" y="317.72" style="stroke: #000000; stroke-width: 0.6"/>
      </g>
     </g>
    </g>
    <g id="xtick_115">
     <g id="line2d_181">
      <g>
       <use xlink:href="#m537c6bee80" x="324.962186" y="317.72" style="stroke: #000000; stroke-width: 0.6"/>
      </g>
     </g>
    </g>
    <g id="xtick_116">
     <g id="line2d_182">
      <g>
       <use xlink:href="#m537c6bee80" x="336.158124" y="317.72" style="stroke: #000000; stroke-width: 0.6"/>
      </g>
     </g>
    </g>
    <g id="xtick_117">
     <g id="line2d_183">
      <g>
       <use xlink:href="#m537c6bee80" x="341.756093" y="317.72" style="stroke: #000000; stroke-width: 0.6"/>
      </g>
     </g>
    </g>
    <g id="xtick_118">
     <g id="line2d_184">
      <g>
       <use xlink:href="#m537c6bee80" x="347.354062" y="317.72" style="stroke: #000000; stroke-width: 0.6"/>
      </g>
     </g>
    </g>
    <g id="xtick_119">
     <g id="line2d_185">
      <g>
       <use xlink:href="#m537c6bee80" x="352.952031" y="317.72" style="stroke: #000000; stroke-width: 0.6"/>
      </g>
     </g>
    </g>
    <g id="xtick_120">
     <g id="line2d_186">
      <g>
       <use xlink:href="#m537c6bee80" x="364.147969" y="317.72" style="stroke: #000000; stroke-width: 0.6"/>
      </g>
     </g>
    </g>
    <g id="xtick_121">
     <g id="line2d_187">
      <g>
       <use xlink:href="#m537c6bee80" x="369.745938" y="317.72" style="stroke: #000000; stroke-width: 0.6"/>
      </g>
     </g>
    </g>
    <g id="xtick_122">
     <g id="line2d_188">
      <g>
       <use xlink:href="#m537c6bee80" x="375.343907" y="317.72" style="stroke: #000000; stroke-width: 0.6"/>
      </g>
     </g>
    </g>
    <g id="xtick_123">
     <g id="line2d_189">
      <g>
       <use xlink:href="#m537c6bee80" x="380.941876" y="317.72" style="stroke: #000000; stroke-width: 0.6"/>
      </g>
     </g>
    </g>
    <g id="xtick_124">
     <g id="line2d_190">
      <g>
       <use xlink:href="#m537c6bee80" x="392.137814" y="317.72" style="stroke: #000000; stroke-width: 0.6"/>
      </g>
     </g>
    </g>
    <g id="xtick_125">
     <g id="line2d_191">
      <g>
       <use xlink:href="#m537c6bee80" x="397.735783" y="317.72" style="stroke: #000000; stroke-width: 0.6"/>
      </g>
     </g>
    </g>
    <g id="xtick_126">
     <g id="line2d_192">
      <g>
       <use xlink:href="#m537c6bee80" x="403.333752" y="317.72" style="stroke: #000000; stroke-width: 0.6"/>
      </g>
     </g>
    </g>
    <g id="xtick_127">
     <g id="line2d_193">
      <g>
       <use xlink:href="#m537c6bee80" x="408.931722" y="317.72" style="stroke: #000000; stroke-width: 0.6"/>
      </g>
     </g>
    </g>
    <g id="xtick_128">
     <g id="line2d_194">
      <g>
       <use xlink:href="#m537c6bee80" x="420.12766" y="317.72" style="stroke: #000000; stroke-width: 0.6"/>
      </g>
     </g>
    </g>
    <g id="xtick_129">
     <g id="line2d_195">
      <g>
       <use xlink:href="#m537c6bee80" x="425.725629" y="317.72" style="stroke: #000000; stroke-width: 0.6"/>
      </g>
     </g>
    </g>
    <g id="xtick_130">
     <g id="line2d_196">
      <g>
       <use xlink:href="#m537c6bee80" x="431.323598" y="317.72" style="stroke: #000000; stroke-width: 0.6"/>
      </g>
     </g>
    </g>
    <g id="xtick_131">
     <g id="line2d_197">
      <g>
       <use xlink:href="#m537c6bee80" x="436.921567" y="317.72" style="stroke: #000000; stroke-width: 0.6"/>
      </g>
     </g>
    </g>
    <g id="xtick_132">
     <g id="line2d_198">
      <g>
       <use xlink:href="#m537c6bee80" x="448.117505" y="317.72" style="stroke: #000000; stroke-width: 0.6"/>
      </g>
     </g>
    </g>
   </g>
   <g id="matplotlib.axis_8">
    <g id="ytick_64">
     <g id="line2d_199">
      <g>
       <use xlink:href="#medd64927e8" x="267.1" y="315.068482" style="stroke: #000000; stroke-width: 0.8"/>
      </g>
     </g>
     <g id="text_44">
      <!-- −1.0 -->
      <g transform="translate(235.817188 318.867701) scale(0.1 -0.1)">
       <use xlink:href="#DejaVuSans-2212"/>
       <use xlink:href="#DejaVuSans-31" x="83.789062"/>
       <use xlink:href="#DejaVuSans-2e" x="147.412109"/>
       <use xlink:href="#DejaVuSans-30" x="179.199219"/>
      </g>
     </g>
    </g>
    <g id="ytick_65">
     <g id="line2d_200">
      <g>
       <use xlink:href="#medd64927e8" x="267.1" y="287.221966" style="stroke: #000000; stroke-width: 0.8"/>
      </g>
     </g>
     <g id="text_45">
      <!-- −0.5 -->
      <g transform="translate(235.817188 291.021185) scale(0.1 -0.1)">
       <use xlink:href="#DejaVuSans-2212"/>
       <use xlink:href="#DejaVuSans-30" x="83.789062"/>
       <use xlink:href="#DejaVuSans-2e" x="147.412109"/>
       <use xlink:href="#DejaVuSans-35" x="179.199219"/>
      </g>
     </g>
    </g>
    <g id="ytick_66">
     <g id="line2d_201">
      <g>
       <use xlink:href="#medd64927e8" x="267.1" y="259.375451" style="stroke: #000000; stroke-width: 0.8"/>
      </g>
     </g>
     <g id="text_46">
      <!-- 0.0 -->
      <g transform="translate(244.196875 263.174669) scale(0.1 -0.1)">
       <use xlink:href="#DejaVuSans-30"/>
       <use xlink:href="#DejaVuSans-2e" x="63.623047"/>
       <use xlink:href="#DejaVuSans-30" x="95.410156"/>
      </g>
     </g>
    </g>
    <g id="ytick_67">
     <g id="line2d_202">
      <g>
       <use xlink:href="#medd64927e8" x="267.1" y="231.528935" style="stroke: #000000; stroke-width: 0.8"/>
      </g>
     </g>
     <g id="text_47">
      <!-- 0.5 -->
      <g transform="translate(244.196875 235.328153) scale(0.1 -0.1)">
       <use xlink:href="#DejaVuSans-30"/>
       <use xlink:href="#DejaVuSans-2e" x="63.623047"/>
       <use xlink:href="#DejaVuSans-35" x="95.410156"/>
      </g>
     </g>
    </g>
    <g id="ytick_68">
     <g id="line2d_203">
      <g>
       <use xlink:href="#medd64927e8" x="267.1" y="203.682419" style="stroke: #000000; stroke-width: 0.8"/>
      </g>
     </g>
     <g id="text_48">
      <!-- 1.0 -->
      <g transform="translate(244.196875 207.481637) scale(0.1 -0.1)">
       <use xlink:href="#DejaVuSans-31"/>
       <use xlink:href="#DejaVuSans-2e" x="63.623047"/>
       <use xlink:href="#DejaVuSans-30" x="95.410156"/>
      </g>
     </g>
    </g>
    <g id="ytick_69">
     <g id="line2d_204">
      <g>
       <use xlink:href="#mebfb6b6750" x="267.1" y="309.499179" style="stroke: #000000; stroke-width: 0.6"/>
      </g>
     </g>
    </g>
    <g id="ytick_70">
     <g id="line2d_205">
      <g>
       <use xlink:href="#mebfb6b6750" x="267.1" y="303.929876" style="stroke: #000000; stroke-width: 0.6"/>
      </g>
     </g>
    </g>
    <g id="ytick_71">
     <g id="line2d_206">
      <g>
       <use xlink:href="#mebfb6b6750" x="267.1" y="298.360573" style="stroke: #000000; stroke-width: 0.6"/>
      </g>
     </g>
    </g>
    <g id="ytick_72">
     <g id="line2d_207">
      <g>
       <use xlink:href="#mebfb6b6750" x="267.1" y="292.79127" style="stroke: #000000; stroke-width: 0.6"/>
      </g>
     </g>
    </g>
    <g id="ytick_73">
     <g id="line2d_208">
      <g>
       <use xlink:href="#mebfb6b6750" x="267.1" y="281.652663" style="stroke: #000000; stroke-width: 0.6"/>
      </g>
     </g>
    </g>
    <g id="ytick_74">
     <g id="line2d_209">
      <g>
       <use xlink:href="#mebfb6b6750" x="267.1" y="276.08336" style="stroke: #000000; stroke-width: 0.6"/>
      </g>
     </g>
    </g>
    <g id="ytick_75">
     <g id="line2d_210">
      <g>
       <use xlink:href="#mebfb6b6750" x="267.1" y="270.514057" style="stroke: #000000; stroke-width: 0.6"/>
      </g>
     </g>
    </g>
    <g id="ytick_76">
     <g id="line2d_211">
      <g>
       <use xlink:href="#mebfb6b6750" x="267.1" y="264.944754" style="stroke: #000000; stroke-width: 0.6"/>
      </g>
     </g>
    </g>
    <g id="ytick_77">
     <g id="line2d_212">
      <g>
       <use xlink:href="#mebfb6b6750" x="267.1" y="253.806147" style="stroke: #000000; stroke-width: 0.6"/>
      </g>
     </g>
    </g>
    <g id="ytick_78">
     <g id="line2d_213">
      <g>
       <use xlink:href="#mebfb6b6750" x="267.1" y="248.236844" style="stroke: #000000; stroke-width: 0.6"/>
      </g>
     </g>
    </g>
    <g id="ytick_79">
     <g id="line2d_214">
      <g>
       <use xlink:href="#mebfb6b6750" x="267.1" y="242.667541" style="stroke: #000000; stroke-width: 0.6"/>
      </g>
     </g>
    </g>
    <g id="ytick_80">
     <g id="line2d_215">
      <g>
       <use xlink:href="#mebfb6b6750" x="267.1" y="237.098238" style="stroke: #000000; stroke-width: 0.6"/>
      </g>
     </g>
    </g>
    <g id="ytick_81">
     <g id="line2d_216">
      <g>
       <use xlink:href="#mebfb6b6750" x="267.1" y="225.959631" style="stroke: #000000; stroke-width: 0.6"/>
      </g>
     </g>
    </g>
    <g id="ytick_82">
     <g id="line2d_217">
      <g>
       <use xlink:href="#mebfb6b6750" x="267.1" y="220.390328" style="stroke: #000000; stroke-width: 0.6"/>
      </g>
     </g>
    </g>
    <g id="ytick_83">
     <g id="line2d_218">
      <g>
       <use xlink:href="#mebfb6b6750" x="267.1" y="214.821025" style="stroke: #000000; stroke-width: 0.6"/>
      </g>
     </g>
    </g>
    <g id="ytick_84">
     <g id="line2d_219">
      <g>
       <use xlink:href="#mebfb6b6750" x="267.1" y="209.251722" style="stroke: #000000; stroke-width: 0.6"/>
      </g>
     </g>
    </g>
    <g id="ytick_85">
     <g id="line2d_220">
      <g>
       <use xlink:href="#mebfb6b6750" x="267.1" y="198.113115" style="stroke: #000000; stroke-width: 0.6"/>
      </g>
     </g>
    </g>
    <g id="ytick_86">
     <g id="line2d_221">
      <g>
       <use xlink:href="#mebfb6b6750" x="267.1" y="192.543812" style="stroke: #000000; stroke-width: 0.6"/>
      </g>
     </g>
    </g>
    <g id="ytick_87">
     <g id="line2d_222">
      <g>
       <use xlink:href="#mebfb6b6750" x="267.1" y="186.974509" style="stroke: #000000; stroke-width: 0.6"/>
      </g>
     </g>
    </g>
    <g id="ytick_88">
     <g id="line2d_223">
      <g>
       <use xlink:href="#mebfb6b6750" x="267.1" y="181.405206" style="stroke: #000000; stroke-width: 0.6"/>
      </g>
     </g>
    </g>
   </g>
   <g id="line2d_224">
    <path d="M 270.617308 259.375451 
L 278.980922 275.77048 
L 283.371293 283.883688 
L 287.049255 290.225072 
L 291.034048 296.491941 
L 294.166545 300.897004 
L 296.837242 304.244346 
L 298.532386 306.158975 
L 301.034374 308.669588 
L 303.546818 310.794581 
L 305.872865 312.393156 
L 308.570103 313.788038 
L 310.539831 314.488255 
L 312.399227 314.898961 
L 313.487036 315.025743 
L 315.857177 315.010844 
L 317.638541 314.7371 
L 319.425281 314.237352 
L 320.935494 313.640561 
L 322.764428 312.706564 
L 324.493051 311.614474 
L 326.981477 309.693853 
L 328.609107 308.221531 
L 331.103535 305.646555 
L 333.473791 302.859128 
L 336.304914 299.123145 
L 338.889312 295.356957 
L 342.413197 289.734427 
L 345.410039 284.570975 
L 349.805161 276.49387 
L 355.965317 264.511039 
L 366.885943 243.033047 
L 371.363155 234.761546 
L 374.618923 229.129797 
L 377.361817 224.699508 
L 380.976741 219.375414 
L 382.668588 217.107528 
L 385.637434 213.505722 
L 388.112831 210.895184 
L 389.597851 209.50976 
L 391.278301 208.111455 
L 393.73821 206.398933 
L 395.861038 205.249383 
L 398.007278 204.403533 
L 399.412798 204.024431 
L 401.507425 203.718596 
L 403.713192 203.733326 
L 405.868684 204.081394 
L 408.081042 204.779457 
L 410.185871 205.760142 
L 412.217963 206.994536 
L 413.48973 207.907949 
L 416.366493 210.362764 
L 418.741398 212.780435 
L 421.287715 215.744509 
L 423.908148 219.171338 
L 426.150973 222.385258 
L 429.332958 227.34701 
L 433.356657 234.204641 
L 437.488068 241.784768 
L 442.848603 252.164789 
L 446.482692 259.375451 
L 446.482692 259.375451 
" clip-path="url(#p8b8a95b5fe)" style="fill: none; stroke: #0000ff; stroke-linecap: square"/>
   </g>
   <g id="patch_22">
    <path d="M 267.1 317.72 
L 267.1 179.837921 
" style="fill: none; stroke: #000000; stroke-width: 0.8; stroke-linejoin: miter; stroke-linecap: square"/>
   </g>
   <g id="patch_23">
    <path d="M 450 317.72 
L 450 179.837921 
" style="fill: none; stroke: #000000; stroke-width: 0.8; stroke-linejoin: miter; stroke-linecap: square"/>
   </g>
   <g id="patch_24">
    <path d="M 267.1 317.72 
L 450 317.72 
" style="fill: none; stroke: #000000; stroke-width: 0.8; stroke-linejoin: miter; stroke-linecap: square"/>
   </g>
   <g id="patch_25">
    <path d="M 267.1 179.837921 
L 450 179.837921 
" style="fill: none; stroke: #000000; stroke-width: 0.8; stroke-linejoin: miter; stroke-linecap: square"/>
   </g>
  </g>
 </g>
 <defs>
  <clipPath id="pbb82050306">
   <rect x="42.1" y="12.437788" width="182.9" height="137.882079"/>
  </clipPath>
  <clipPath id="p334dcfbcf7">
   <rect x="267.1" y="12.437788" width="182.9" height="137.882079"/>
  </clipPath>
  <clipPath id="p9400d27667">
   <rect x="42.1" y="179.837921" width="182.9" height="137.882079"/>
  </clipPath>
  <clipPath id="p8b8a95b5fe">
   <rect x="267.1" y="179.837921" width="182.9" height="137.882079"/>
  </clipPath>
 </defs>
</svg>
