<?xml version="1.0" encoding="utf-8" standalone="no"?>
<!DOCTYPE svg PUBLIC "-//W3C//DTD SVG 1.1//EN"
  "http://www.w3.org/Graphics/SVG/1.1/DTD/svg11.dtd">
<svg xmlns:xlink="http://www.w3.org/1999/xlink" width="460.8pt" height="345.6pt" viewBox="0 0 460.8 345.6" xmlns="http://www.w3.org/2000/svg" version="1.1">
 <metadata>
  <rdf:RDF xmlns:dc="http://purl.org/dc/elements/1.1/" xmlns:cc="http://creativecommons.org/ns#" xmlns:rdf="http://www.w3.org/1999/02/22-rdf-syntax-ns#">
   <cc:Work>
    <dc:type rdf:resource="http://purl.org/dc/dcmitype/StillImage"/>
    <dc:date>2024-03-20T19:26:56.941322</dc:date>
    <dc:format>image/svg+xml</dc:format>
    <dc:creator>
     <cc:Agent>
      <dc:title>Matplotlib v3.8.0, https://matplotlib.org/</dc:title>
     </cc:Agent>
    </dc:creator>
   </cc:Work>
  </rdf:RDF>
 </metadata>
 <defs>
  <style type="text/css">*{stroke-linejoin: round; stroke-linecap: butt}</style>
 </defs>
 <g id="figure_1">
  <g id="patch_1">
   <path d="M 0 345.6 
L 460.8 345.6 
L 460.8 0 
L 0 0 
z
" style="fill: #ffffff"/>
  </g>
  <g id="axes_1">
   <g id="patch_2">
    <path d="M 23.323698 345.6 
L 460.8 345.6 
L 460.8 3.933541 
L 23.323698 3.933541 
z
" style="fill: #ffffff"/>
   </g>
   <g id="patch_3">
    <path d="M 31.736704 216.509787 
L 31.736704 216.509787 
L 32.983904 206.011228 
L 36.252461 178.69948 
L 38.862881 157.354412 
L 41.049114 139.992328 
L 41.386425 137.365142 
L 44.141608 116.520171 
L 47.220782 94.749047 
L 49.371591 80.673116 
L 50.919274 71.190432 
L 52.484886 62.190942 
L 54.880943 49.652587 
L 58.007511 35.702573 
L 59.065537 31.634272 
L 61.147053 24.633289 
L 62.421093 21.019248 
L 64.102867 17.045147 
L 65.784641 13.990145 
L 68.337214 11.128825 
L 68.879699 10.797664 
L 71.309857 10.50405 
L 72.899752 11.358295 
L 74.489648 13.029603 
L 75.205828 14.045981 
L 77.453455 18.278163 
L 79.395675 23.175655 
L 81.013455 28.100287 
L 82.631235 33.762312 
L 84.695192 42.004563 
L 86.425873 49.745663 
L 88.785728 61.427657 
L 91.699447 77.460511 
L 93.65309 89.07965 
L 95.494482 100.578218 
L 97.605618 114.313543 
L 98.56665 120.731054 
L 100.467595 133.670833 
L 102.767278 149.652505 
L 104.862755 164.399889 
L 108.535527 190.296749 
L 109.454106 196.721873 
L 112.585667 218.260847 
L 114.359164 230.10371 
L 116.913849 246.54723 
L 118.593154 256.879577 
L 121.445526 273.400831 
L 121.635826 274.452451 
L 123.716561 285.500131 
L 126.183206 297.451762 
L 128.239521 306.386606 
L 131.419002 318.220229 
L 134.233203 326.567981 
L 136.323224 331.421448 
L 138.14273 334.691933 
L 139.980038 337.083523 
L 141.306397 338.239571 
L 143.008891 339.024387 
L 144.711384 339.029491 
L 146.160225 338.427737 
L 148.609052 336.17138 
L 149.581628 334.853854 
L 152.607913 329.285449 
L 153.781271 326.552952 
L 157.455575 316.080692 
L 159.190672 310.20519 
L 161.694668 300.792866 
L 162.810803 296.275407 
L 165.661674 283.954535 
L 167.681011 274.647586 
L 168.273077 271.842492 
L 171.536211 255.895025 
L 172.400394 251.56433 
L 175.026189 238.244503 
L 177.563911 225.287466 
L 179.593844 214.986306 
L 182.195958 202.019331 
L 183.516293 195.595912 
L 185.428754 186.539158 
L 189.160242 169.944895 
L 190.197892 165.633181 
L 191.48567 160.490834 
L 194.899275 148.095106 
L 195.587453 145.831243 
L 199.182098 135.409341 
L 200.880181 131.351329 
L 203.311673 126.561713 
L 204.347536 124.896421 
L 206.862198 121.807051 
L 208.846738 120.333701 
L 211.515673 119.700344 
L 213.72837 120.339243 
L 214.582496 120.864193 
L 217.27139 123.505991 
L 219.992224 127.654536 
L 221.596118 130.760769 
L 224.000092 136.278241 
L 225.285874 139.628855 
L 227.868843 147.132698 
L 230.524914 155.815472 
L 232.407142 162.482711 
L 235.58663 174.54031 
L 235.783758 175.315666 
L 238.392267 185.815216 
L 241.732275 199.72124 
L 243.60964 207.645847 
L 246.209714 218.60746 
L 246.952956 221.717861 
L 249.99095 234.21361 
L 251.060942 238.499589 
L 253.518434 248.034666 
L 256.769762 259.818098 
L 257.257955 261.491029 
L 259.259018 268.051014 
L 261.559722 274.950492 
L 263.947192 281.307832 
L 266.312657 286.730993 
L 268.275809 290.527632 
L 270.220453 293.629929 
L 273.165279 297.035339 
L 274.688877 298.172511 
L 276.843722 299.044814 
L 278.140394 299.153503 
L 281.554408 297.956621 
L 283.403195 296.427854 
L 286.393447 292.695254 
L 286.545481 292.465186 
L 289.624932 287.007346 
L 292.183757 281.381763 
L 294.753118 274.834527 
L 295.912364 271.613306 
L 298.140738 265.004123 
L 300.557315 257.293236 
L 301.53928 254.021498 
L 304.201629 244.824129 
L 307.556247 232.743348 
L 309.253771 226.511106 
L 311.788172 217.169329 
L 313.167032 212.109763 
L 314.991945 205.483811 
L 317.37405 197.029847 
L 318.313561 193.777183 
L 322.338542 180.547419 
L 323.917012 175.73923 
L 324.95383 172.717462 
L 328.063076 164.379102 
L 329.04342 161.994229 
L 332.522103 154.57398 
L 333.305453 153.140025 
L 335.156956 150.115673 
L 337.554039 146.987694 
L 340.416219 144.458209 
L 343.228192 143.281175 
L 343.7053 143.211132 
L 347.309035 143.892703 
L 348.220463 144.400489 
L 350.080873 145.848529 
L 353.01962 149.22909 
L 355.215895 152.589325 
L 356.23349 154.375529 
L 360.10224 162.392261 
L 360.961817 164.417494 
L 362.660679 168.655586 
L 365.849008 177.363465 
L 368.335388 184.725652 
L 369.232539 187.482575 
L 371.13147 193.460727 
L 374.62424 204.819778 
L 376.095249 209.682995 
L 378.661521 218.182942 
L 379.787937 221.893592 
L 381.872166 228.6796 
L 384.456713 236.86679 
L 387.637145 246.42906 
L 389.829857 252.589573 
L 390.959417 255.600383 
L 392.818018 260.286051 
L 395.990526 267.426736 
L 397.363264 270.149522 
L 400.584463 275.589621 
L 401.75894 277.224905 
L 403.534509 279.328369 
L 406.620339 281.895952 
L 409.012619 282.913313 
L 409.417827 283.000588 
L 411.26487 283.085866 
L 415.146947 281.607333 
L 415.754808 281.175674 
L 418.943713 278.052857 
L 420.517515 275.997997 
L 423.312065 271.562497 
L 425.482725 267.468716 
L 426.517794 265.331611 
L 429.591054 258.347799 
L 431.031185 254.778775 
L 434.41232 245.780134 
L 434.814018 244.661409 
L 438.550857 233.873305 
L 440.33297 228.5504 
L 440.78657 227.184007 
L 443.553665 218.797699 
L 446.752398 209.133543 
L 449.078307 202.246853 
L 450.568345 197.941161 
L 452.386994 192.834376 
L 452.386994 216.509787 
z
" clip-path="url(#p4d8a6f270f)" style="fill: #b2b3ff; opacity: 0.5"/>
   </g>
   <g id="patch_4">
    <path d="M 31.736704 216.509787 
L 31.736704 216.509787 
L 32.887174 216.37733 
L 35.798591 214.863374 
L 38.662292 211.751855 
L 40.131682 209.548379 
L 41.487787 207.161274 
L 45.467553 198.298762 
L 47.164819 193.733912 
L 48.288529 190.474349 
L 51.157782 181.366475 
L 52.100851 178.147909 
L 54.953258 167.829201 
L 56.9958 159.982218 
L 58.42951 154.291911 
L 60.349909 146.487256 
L 62.684787 136.805012 
L 64.602933 128.773074 
L 68.634132 111.988053 
L 70.129389 105.895392 
L 70.995927 102.418776 
L 74.941631 87.281502 
L 76.189023 82.793175 
L 77.650429 77.755724 
L 79.317145 72.334037 
L 82.776598 62.337957 
L 84.392947 58.318281 
L 87.731589 51.483245 
L 88.560594 50.112297 
L 90.692444 47.217074 
L 94.000827 44.600378 
L 94.596386 44.37989 
L 96.418996 44.19121 
L 98.241605 44.743762 
L 98.942911 45.155455 
L 100.720157 46.695962 
L 103.185704 50.011914 
L 104.850679 53.019558 
L 107.605346 59.328586 
L 110.398527 67.365918 
L 111.528336 71.066619 
L 115.135572 84.50871 
L 116.664509 90.905456 
L 117.838909 96.079692 
L 120.554422 108.841659 
L 122.771751 120.000359 
L 124.244646 127.730486 
L 127.409652 145.048346 
L 128.146675 149.195419 
L 132.088471 171.872821 
L 132.294459 173.073978 
L 136.351887 196.819046 
L 137.488236 203.443984 
L 139.101799 212.780676 
L 142.621067 232.668016 
L 143.451215 237.228493 
L 145.07226 245.951989 
L 148.488512 263.394181 
L 149.784139 269.618358 
L 152.968106 283.847424 
L 154.238263 289.059904 
L 157.501303 301.109305 
L 159.531394 307.562002 
L 159.681158 308.004762 
L 163.160051 316.951449 
L 164.580341 319.845199 
L 166.773499 323.422886 
L 168.393755 325.361461 
L 171.46044 327.376235 
L 172.888924 327.575633 
L 176.232126 326.228247 
L 176.870231 325.686771 
L 178.725605 323.60718 
L 180.580979 320.79377 
L 181.45448 319.222699 
L 184.661501 312.164586 
L 187.026516 305.740843 
L 188.886979 300.022714 
L 191.133707 292.40825 
L 192.262843 288.314119 
L 193.570633 283.368877 
L 196.735901 270.609522 
L 199.425799 259.055208 
L 200.446803 254.538555 
L 203.114088 242.498341 
L 205.819893 230.077475 
L 208.156483 219.330099 
L 210.11458 210.402455 
L 210.998924 206.414494 
L 213.71923 194.403041 
L 216.521094 182.58242 
L 217.198369 179.829926 
L 220.421655 167.40302 
L 221.61941 163.1027 
L 223.767431 155.877061 
L 227.077819 146.090634 
L 228.927587 141.399751 
L 231.394683 136.074401 
L 232.165022 134.637824 
L 235.064783 130.229294 
L 236.283435 128.857344 
L 238.73759 126.973589 
L 241.139149 126.275225 
L 242.526913 126.387313 
L 245.913683 128.224699 
L 248.044027 130.489177 
L 249.042854 131.836079 
L 251.312725 135.549412 
L 253.733234 140.460419 
L 256.042589 145.996724 
L 257.91321 151.040848 
L 260.65883 159.257735 
L 261.300486 161.30438 
L 265.138883 174.394056 
L 266.269061 178.4838 
L 268.559427 187.024098 
L 271.036744 196.544856 
L 272.787834 203.384011 
L 274.930412 211.799674 
L 277.286883 221.021481 
L 279.343862 228.958345 
L 280.11097 231.875754 
L 283.550849 244.552539 
L 286.339037 254.185046 
L 288.365646 260.727628 
L 288.935753 262.489477 
L 291.159346 268.999649 
L 294.132327 276.718721 
L 296.909509 282.80201 
L 298.919171 286.470967 
L 300.126088 288.36468 
L 302.510695 291.400416 
L 304.311496 293.057231 
L 305.747611 293.979873 
L 309.360066 294.723448 
L 311.562746 294.072447 
L 313.506978 292.813907 
L 315.842646 290.475635 
L 316.049638 290.225928 
L 320.053209 284.096502 
L 321.552104 281.197033 
L 324.336013 275.013777 
L 325.765156 271.466948 
L 327.249864 267.538183 
L 328.851526 263.044114 
L 330.887797 256.988474 
L 333.380297 249.133925 
L 336.307666 239.429378 
L 338.000678 233.649474 
L 339.886882 227.121316 
L 343.008567 216.246159 
L 345.207217 208.641475 
L 347.108484 202.173134 
L 348.66412 196.992624 
L 350.524567 190.969959 
L 354.030299 180.282524 
L 354.557429 178.763985 
L 357.886414 169.804174 
L 359.082915 166.875252 
L 360.83469 162.893012 
L 364.201035 156.342909 
L 366.404008 152.899673 
L 367.122653 151.927906 
L 369.924285 148.874712 
L 372.925733 146.936059 
L 374.882161 146.42766 
L 377.011024 146.553793 
L 377.452307 146.668154 
L 381.183919 148.827668 
L 383.03478 150.671088 
L 384.119536 151.981011 
L 387.056187 156.342006 
L 388.281246 158.496607 
L 390.32922 162.510391 
L 392.932065 168.299015 
L 394.549337 172.246195 
L 398.378729 182.502844 
L 398.595958 183.117974 
L 402.567321 194.850137 
L 404.144216 199.707724 
L 406.830833 208.13586 
L 407.239967 209.429235 
L 410.105885 218.496693 
L 412.905862 227.255641 
L 413.70079 229.70303 
L 416.642638 238.528101 
L 419.480319 246.577696 
L 420.985486 250.613618 
L 423.714033 257.438183 
L 424.460782 259.183869 
L 427.973358 266.60604 
L 428.537938 267.66935 
L 431.573564 272.71996 
L 433.942706 275.839003 
L 435.069085 277.05715 
L 438.320772 279.584287 
L 439.817859 280.244163 
L 442.554783 280.619781 
L 442.954587 280.584698 
L 446.116841 279.505986 
L 448.47841 277.788605 
L 451.018611 275.102734 
L 452.386994 273.310177 
L 452.386994 216.509787 
z
" clip-path="url(#p4d8a6f270f)" style="fill: #c9ffb2; opacity: 0.5"/>
   </g>
   <g id="patch_5">
    <path d="M 31.736704 216.509787 
L 31.736704 216.509787 
L 34.89285 216.484884 
L 36.292167 216.435019 
L 38.241844 216.292736 
L 40.774176 215.931006 
L 42.695141 215.483531 
L 44.947908 214.725428 
L 46.847577 213.860046 
L 47.915088 213.273282 
L 50.007307 211.895876 
L 53.48011 208.886054 
L 55.933006 206.172381 
L 56.752887 205.151617 
L 59.330701 201.561243 
L 61.011324 198.905236 
L 63.144415 195.174362 
L 65.509357 190.572163 
L 67.299247 186.770965 
L 70.519414 179.274482 
L 72.752874 173.611782 
L 73.605528 171.357634 
L 76.045009 164.651392 
L 77.624425 160.125828 
L 80.46269 151.690727 
L 82.929304 144.114926 
L 84.86123 138.074397 
L 87.306393 130.361545 
L 88.177479 127.610165 
L 90.567397 120.095809 
L 92.113744 115.290549 
L 96.10445 103.278326 
L 97.939115 98.027098 
L 99.417118 93.958629 
L 100.460913 91.18439 
L 103.177944 84.401977 
L 104.858743 80.56393 
L 108.842137 72.739097 
L 109.748134 71.234872 
L 112.148393 67.790861 
L 113.47442 66.242288 
L 116.654078 63.622216 
L 119.436785 62.664204 
L 120.33175 62.63166 
L 122.281122 63.036492 
L 124.981824 64.693038 
L 126.83945 66.58019 
L 128.799148 69.233896 
L 130.96776 72.959789 
L 132.290893 75.635912 
L 134.39576 80.510837 
L 137.458463 88.917441 
L 139.004291 93.727 
L 142.557134 106.125277 
L 144.047169 111.84431 
L 144.876263 115.149659 
L 147.683551 126.944909 
L 150.231828 138.370759 
L 152.405977 148.573388 
L 154.369729 158.083073 
L 157.499619 173.670704 
L 158.350026 177.970983 
L 161.261479 192.801906 
L 162.707743 200.186435 
L 164.250175 208.036914 
L 166.459594 219.177135 
L 168.954677 231.507689 
L 170.343753 238.212627 
L 172.854351 249.957606 
L 174.445916 257.107804 
L 176.786227 267.131719 
L 180.561761 281.866005 
L 182.033764 287.066619 
L 184.497857 295.016345 
L 185.548005 298.100639 
L 187.361087 302.976634 
L 191.240218 311.3999 
L 192.511464 313.53942 
L 194.915197 316.719547 
L 197.531525 318.872785 
L 199.086259 319.500568 
L 200.436229 319.651283 
L 202.909265 318.982228 
L 205.059129 317.420762 
L 206.686344 315.64635 
L 209.8392 310.80653 
L 210.519975 309.527337 
L 214.124234 301.452802 
L 215.21319 298.60549 
L 218.290216 289.631322 
L 219.215034 286.685646 
L 220.972817 280.800592 
L 224.339711 268.605793 
L 226.196155 261.448671 
L 227.920278 254.582443 
L 231.412738 240.203349 
L 233.017936 233.461176 
L 235.659143 222.307693 
L 237.686715 213.779108 
L 239.563007 205.980141 
L 241.858267 196.643399 
L 243.697617 189.384325 
L 245.703395 181.756003 
L 247.186746 176.341762 
L 249.661397 167.807952 
L 252.18858 159.826379 
L 253.304861 156.562089 
L 255.420366 150.851243 
L 258.827221 143.06337 
L 259.364404 142.003199 
L 261.957532 137.559681 
L 265.063248 133.75751 
L 266.377911 132.660722 
L 268.712059 131.475899 
L 271.175751 131.287231 
L 271.812074 131.415139 
L 274.596394 132.817566 
L 277.36345 135.54101 
L 278.019438 136.375305 
L 282.193189 143.291573 
L 283.714219 146.465588 
L 284.611275 148.490144 
L 288.101413 157.363781 
L 289.828959 162.289305 
L 292.292098 169.839341 
L 294.21131 176.093506 
L 295.049026 178.911123 
L 298.807532 192.070245 
L 300.732377 199.04672 
L 301.671126 202.484492 
L 305.375798 216.129926 
L 305.888948 218.01534 
L 307.946433 225.520519 
L 311.408742 237.807124 
L 313.183258 243.853739 
L 314.690633 248.817058 
L 317.603624 257.86884 
L 318.975539 261.849398 
L 321.625643 268.953812 
L 323.793712 274.135527 
L 326.118975 279.003356 
L 326.759949 280.212922 
L 330.596861 286.190141 
L 332.485291 288.305048 
L 333.73138 289.392089 
L 335.248288 290.379726 
L 337.528871 291.164973 
L 340.14483 291.028742 
L 342.377921 290.043401 
L 344.927621 287.960897 
L 345.667516 287.170164 
L 347.984654 284.169334 
L 350.452547 280.135343 
L 353.171581 274.759832 
L 355.567892 269.284855 
L 357.161748 265.297626 
L 358.901838 260.660669 
L 362.04098 251.646773 
L 363.466288 247.322433 
L 366.757162 236.922563 
L 368.198286 232.234631 
L 370.881519 223.386715 
L 371.390933 221.69842 
L 373.193732 215.726814 
L 375.51296 208.104839 
L 378.664206 198.004805 
L 380.488643 192.368181 
L 382.708855 185.788506 
L 384.713891 180.163861 
L 387.647968 172.577152 
L 388.286212 171.039743 
L 391.468425 164.044349 
L 394.092556 159.186896 
L 395.012719 157.692783 
L 398.294086 153.29839 
L 399.558413 152.00777 
L 401.262343 150.633144 
L 403.063895 149.641973 
L 406.402822 149.074814 
L 407.314395 149.206906 
L 410.876717 150.888732 
L 412.37291 152.137793 
L 413.337372 153.108401 
L 415.541074 155.798789 
L 418.319564 160.085084 
L 420.600322 164.297336 
L 422.516232 168.279248 
L 424.134677 171.931953 
L 427.908268 181.346124 
L 428.131668 181.938143 
L 431.739368 191.931036 
L 433.886395 198.187259 
L 436.520247 206.063257 
L 437.78021 209.87662 
L 438.900259 213.276488 
L 442.283029 223.504057 
L 444.317575 229.546491 
L 447.059371 237.444785 
L 448.771809 242.18381 
L 451.031742 248.149657 
L 452.386994 251.545277 
L 452.386994 216.509787 
z
" clip-path="url(#p4d8a6f270f)" style="fill: #ffb2df; opacity: 0.5"/>
   </g>
   <g id="patch_6">
    <path d="M 31.736704 216.509787 
L 31.736704 216.509787 
L 33.000747 216.509775 
L 35.663547 216.508668 
L 37.837759 216.503283 
L 39.270572 216.494697 
L 43.338673 216.425663 
L 44.759637 216.37677 
L 46.191145 216.308814 
L 49.071617 216.09835 
L 50.332558 215.967732 
L 53.296593 215.543564 
L 55.823868 215.024144 
L 56.554147 214.842437 
L 58.941542 214.13619 
L 61.977161 212.957739 
L 63.690222 212.135858 
L 66.000744 210.828064 
L 68.533357 209.108532 
L 69.706071 208.20396 
L 70.941693 207.173034 
L 73.354031 204.920803 
L 76.347471 201.66534 
L 77.573121 200.179961 
L 80.833046 195.787043 
L 81.44421 194.891248 
L 84.3445 190.328778 
L 86.492438 186.621196 
L 89.15492 181.647491 
L 90.531774 178.916999 
L 92.480984 174.875376 
L 94.445042 170.605525 
L 97.477279 163.659591 
L 99.023423 159.970736 
L 100.585155 156.157178 
L 103.499112 148.846232 
L 105.237467 144.3914 
L 107.169448 139.386439 
L 110.921284 129.607886 
L 111.43845 128.263264 
L 113.177182 123.765353 
L 116.478446 115.391006 
L 119.136371 108.899776 
L 121.370635 103.68652 
L 123.339304 99.321838 
L 125.405037 95.013379 
L 126.864532 92.158743 
L 129.35119 87.700851 
L 130.055117 86.539459 
L 133.622841 81.407956 
L 135.475374 79.281552 
L 137.791069 77.186831 
L 139.275193 76.191239 
L 141.169379 75.332577 
L 143.133324 74.948128 
L 145.472951 75.185963 
L 148.482249 76.639035 
L 150.503149 78.354703 
L 151.654963 79.60121 
L 153.601691 82.15249 
L 156.499287 86.979921 
L 158.787494 91.650714 
L 161.668182 98.57789 
L 162.108784 99.737453 
L 163.925679 104.790506 
L 166.540632 112.801113 
L 169.304782 122.152578 
L 171.590037 130.509295 
L 173.752903 138.886042 
L 174.708657 142.718875 
L 178.091232 156.842341 
L 180.194559 165.990786 
L 182.357046 175.616492 
L 183.784935 182.062989 
L 185.400534 189.415379 
L 188.687914 204.4509 
L 191.042853 215.171686 
L 192.11804 220.023577 
L 193.679398 226.997491 
L 197.296805 242.692044 
L 199.30527 251.034399 
L 201.856551 261.143912 
L 202.428164 263.324419 
L 204.206632 269.889874 
L 207.270368 280.345913 
L 208.282923 283.541836 
L 210.498222 290.045866 
L 213.662741 298.09235 
L 215.11681 301.267785 
L 218.429535 307.204824 
L 219.012348 308.057211 
L 222.903885 312.228423 
L 225.110342 313.399195 
L 226.324579 313.671415 
L 227.647537 313.667388 
L 231.106265 312.186973 
L 233.399058 310.054618 
L 233.712841 309.69301 
L 235.768473 306.91826 
L 239.748416 299.626768 
L 241.111797 296.580974 
L 243.289385 291.179267 
L 245.500083 285.067112 
L 247.276253 279.73792 
L 249.242418 273.447464 
L 251.402468 266.118614 
L 254.584718 254.663582 
L 256.6691 246.831596 
L 257.666686 243.014482 
L 260.436647 232.258371 
L 262.161861 225.495895 
L 263.584055 219.918185 
L 267.151719 206.064831 
L 268.437006 201.171388 
L 269.64894 196.626935 
L 272.81932 185.152202 
L 275.291885 176.727381 
L 277.885007 168.501894 
L 279.148667 164.750801 
L 281.123365 159.261222 
L 282.877876 154.792411 
L 284.711331 150.561924 
L 286.623395 146.65577 
L 289.935727 141.182825 
L 291.633821 139.041307 
L 292.858472 137.784567 
L 295.603883 135.858703 
L 298.592335 135.179384 
L 299.937702 135.356346 
L 301.752736 136.066239 
L 303.650928 137.379797 
L 305.875129 139.644691 
L 309.507126 144.953849 
L 311.10976 147.896887 
L 312.619893 150.985369 
L 314.774022 155.888652 
L 317.16386 161.957875 
L 318.73148 166.263951 
L 321.279913 173.746385 
L 322.468544 177.415933 
L 325.736435 187.981707 
L 328.432826 197.095066 
L 329.510509 200.803849 
L 331.489028 207.669957 
L 333.664214 215.247122 
L 337.10489 227.117672 
L 338.055352 230.33952 
L 339.774744 236.072243 
L 343.523284 247.996176 
L 345.450758 253.734036 
L 347.559724 259.639263 
L 349.006684 263.43903 
L 351.810891 270.154266 
L 352.971123 272.662784 
L 355.517931 277.572051 
L 357.742153 281.150324 
L 360.210897 284.305566 
L 362.031831 286.062612 
L 363.716984 287.247299 
L 365.495169 288.031447 
L 368.702095 288.228763 
L 369.027007 288.161556 
L 372.383817 286.539961 
L 373.321772 285.789122 
L 377.050245 281.567078 
L 378.760851 278.996065 
L 381.271961 274.547703 
L 382.849874 271.36742 
L 383.847751 269.212552 
L 386.895095 261.999963 
L 388.448421 257.99242 
L 391.366799 249.951448 
L 393.507438 243.701078 
L 395.51127 237.641827 
L 397.63831 231.049685 
L 398.724657 227.639402 
L 401.05213 220.283451 
L 403.876181 211.369665 
L 406.582074 202.972184 
L 408.39495 197.49053 
L 410.80413 190.459942 
L 412.896142 184.650641 
L 413.844313 182.12348 
L 416.386476 175.718991 
L 418.556887 170.728414 
L 420.878279 165.934895 
L 422.710748 162.581917 
L 424.077751 160.343216 
L 426.487218 156.970773 
L 429.227925 154.064399 
L 431.68909 152.32968 
L 432.801432 151.822934 
L 436.484078 151.389165 
L 436.545734 151.398168 
L 439.865559 152.665925 
L 442.559871 154.803203 
L 443.181969 155.433664 
L 446.159144 159.134269 
L 448.231331 162.34705 
L 449.518028 164.589145 
L 452.386994 170.220044 
L 452.386994 216.509787 
z
" clip-path="url(#p4d8a6f270f)" style="fill: #b2f5ff; opacity: 0.5"/>
   </g>
   <g id="patch_7">
    <path d="M 31.736704 216.509787 
L 31.736704 216.509787 
L 33.306411 216.509787 
L 35.44747 216.509771 
L 37.388908 216.509658 
L 41.107291 216.508181 
L 43.019892 216.505737 
L 44.922032 216.501 
L 45.784829 216.49775 
L 49.569671 216.470559 
L 50.590068 216.458159 
L 53.808098 216.397669 
L 54.399556 216.382141 
L 56.643319 216.307201 
L 59.950546 216.138174 
L 62.357605 215.9577 
L 63.631533 215.838022 
L 66.311856 215.52115 
L 67.763076 215.307369 
L 70.582083 214.792483 
L 71.832626 214.516705 
L 73.199392 214.178234 
L 76.929337 213.033431 
L 77.706757 212.749883 
L 80.004658 211.811296 
L 83.145451 210.263997 
L 84.232526 209.651333 
L 86.804098 208.031914 
L 88.989057 206.457123 
L 91.509127 204.399635 
L 92.931084 203.119584 
L 94.508353 201.595809 
L 97.705447 198.161848 
L 99.619228 195.879751 
L 102.341192 192.336974 
L 103.884508 190.172855 
L 105.76629 187.382775 
L 107.0916 185.319033 
L 110.922556 178.90751 
L 112.788446 175.554733 
L 114.266385 172.798342 
L 115.556334 170.323385 
L 119.261892 162.886096 
L 120.579965 160.135867 
L 122.255499 156.571706 
L 124.319655 152.090876 
L 127.658671 144.685434 
L 129.433386 140.699944 
L 131.918743 135.100605 
L 133.176357 132.272971 
L 135.932258 126.129669 
L 138.123572 121.335764 
L 139.140907 119.149074 
L 142.573555 112.01488 
L 143.797091 109.58302 
L 146.692637 104.116719 
L 148.68971 100.620492 
L 149.157739 99.837304 
L 151.313934 96.42258 
L 153.912175 92.768567 
L 155.606118 90.684714 
L 158.002497 88.175314 
L 160.39212 86.223183 
L 162.588252 84.947379 
L 163.88134 84.439992 
L 166.345011 83.994948 
L 168.262808 84.138392 
L 170.429995 84.833323 
L 173.330291 86.670449 
L 175.194684 88.408981 
L 177.201162 90.771625 
L 180.237913 95.316318 
L 180.77101 96.233789 
L 184.458105 103.540594 
L 185.310762 105.465038 
L 187.461958 110.699597 
L 190.066969 117.739876 
L 192.468189 124.871912 
L 194.759142 132.20999 
L 195.683803 135.309472 
L 198.526182 145.29057 
L 201.313724 155.669472 
L 202.510769 160.280688 
L 205.693773 172.909485 
L 207.38403 179.788572 
L 209.676988 189.251893 
L 211.830034 198.219187 
L 214.250741 208.32076 
L 215.964163 215.438807 
L 216.986242 219.657637 
L 219.202127 228.698504 
L 221.090783 236.250129 
L 223.123231 244.169469 
L 226.194485 255.621907 
L 228.484877 263.673632 
L 230.969145 271.850724 
L 233.094702 278.330349 
L 234.72105 282.936195 
L 236.839298 288.443485 
L 238.013007 291.242715 
L 241.476528 298.388705 
L 243.727673 302.094789 
L 246.146706 305.213977 
L 247.250272 306.332518 
L 249.884894 308.21727 
L 251.821025 308.88914 
L 252.826414 308.998568 
L 256.574993 307.968456 
L 257.602018 307.294137 
L 259.560524 305.549497 
L 262.686197 301.550893 
L 263.942767 299.537219 
L 265.883267 295.989872 
L 269.056186 289.107836 
L 271.159096 283.862303 
L 271.673341 282.502503 
L 274.767072 273.736348 
L 276.592178 268.137872 
L 279.631759 258.22361 
L 281.912938 250.386989 
L 283.320637 245.418789 
L 285.676464 236.937415 
L 287.206621 231.351896 
L 289.098561 224.404654 
L 291.227245 216.587904 
L 292.903311 210.474444 
L 295.458337 201.302422 
L 298.27269 191.523308 
L 300.571704 183.883386 
L 301.790864 179.987092 
L 305.450015 169.062706 
L 307.345854 163.921472 
L 308.830359 160.17256 
L 310.392466 156.508185 
L 312.498003 152.051885 
L 314.562164 148.251981 
L 317.391329 144.009983 
L 320.075575 141.065101 
L 320.636779 140.585866 
L 322.473304 139.35258 
L 325.830323 138.436806 
L 326.714936 138.484456 
L 330.414673 139.978725 
L 331.523533 140.827746 
L 333.232126 142.489175 
L 336.176174 146.325535 
L 337.704786 148.783026 
L 339.667796 152.380392 
L 342.293189 157.918532 
L 343.814455 161.479703 
L 347.633233 171.423138 
L 349.792574 177.593473 
L 351.539003 182.822345 
L 353.02122 187.40112 
L 354.662104 192.594727 
L 358.186578 204.062191 
L 358.329614 204.533513 
L 360.543787 211.854483 
L 363.462083 221.487231 
L 365.738747 228.892229 
L 367.338544 233.992187 
L 369.248347 239.92738 
L 372.249568 248.819693 
L 375.186138 256.873273 
L 376.798456 260.972565 
L 378.779831 265.658238 
L 380.453547 269.289341 
L 382.088405 272.526998 
L 383.948013 275.817245 
L 387.448045 280.806551 
L 388.232612 281.700027 
L 390.718906 283.968051 
L 393.011127 285.285481 
L 396.334859 285.857395 
L 396.854961 285.803214 
L 399.382052 284.990448 
L 402.643804 282.617445 
L 403.030065 282.240036 
L 405.633559 279.182178 
L 408.147137 275.41429 
L 410.546385 271.12001 
L 412.199311 267.793721 
L 414.118732 263.584547 
L 416.013285 259.096157 
L 417.623702 255.046273 
L 421.318145 245.069461 
L 422.980958 240.326939 
L 425.955224 231.569266 
L 427.466911 227.026288 
L 429.784595 220.004498 
L 431.32481 215.334087 
L 433.022249 210.215431 
L 435.599937 202.566557 
L 437.117476 198.170556 
L 440.359483 189.157655 
L 442.807478 182.789146 
L 444.300948 179.126524 
L 445.145726 177.137471 
L 449.04276 168.82494 
L 450.817984 165.555095 
L 452.386994 162.9584 
L 452.386994 216.509787 
z
" clip-path="url(#p4d8a6f270f)" style="fill: #fff2b2; opacity: 0.5"/>
   </g>
   <g id="matplotlib.axis_1">
    <g id="xtick_1">
     <g id="line2d_1">
      <defs>
       <path id="m0d5c868957" d="M 0 0 
L 0 3.5 
" style="stroke: #000000; stroke-width: 0.8"/>
      </defs>
      <g>
       <use xlink:href="#m0d5c868957" x="31.736704" y="216.509787" style="stroke: #000000; stroke-width: 0.8"/>
      </g>
     </g>
    </g>
    <g id="xtick_2">
     <g id="line2d_2">
      <g>
       <use xlink:href="#m0d5c868957" x="136.899277" y="216.509787" style="stroke: #000000; stroke-width: 0.8"/>
      </g>
     </g>
     <g id="text_1">
      <!-- 5 -->
      <g transform="translate(133.718027 231.108225) scale(0.1 -0.1)">
       <defs>
        <path id="DejaVuSans-35" d="M 691 4666 
L 3169 4666 
L 3169 4134 
L 1269 4134 
L 1269 2991 
Q 1406 3038 1543 3061 
Q 1681 3084 1819 3084 
Q 2600 3084 3056 2656 
Q 3513 2228 3513 1497 
Q 3513 744 3044 326 
Q 2575 -91 1722 -91 
Q 1428 -91 1123 -41 
Q 819 9 494 109 
L 494 744 
Q 775 591 1075 516 
Q 1375 441 1709 441 
Q 2250 441 2565 725 
Q 2881 1009 2881 1497 
Q 2881 1984 2565 2268 
Q 2250 2553 1709 2553 
Q 1456 2553 1204 2497 
Q 953 2441 691 2322 
L 691 4666 
z
" transform="scale(0.015625)"/>
       </defs>
       <use xlink:href="#DejaVuSans-35"/>
      </g>
     </g>
    </g>
    <g id="xtick_3">
     <g id="line2d_3">
      <g>
       <use xlink:href="#m0d5c868957" x="242.061849" y="216.509787" style="stroke: #000000; stroke-width: 0.8"/>
      </g>
     </g>
     <g id="text_2">
      <!-- 10 -->
      <g transform="translate(235.699349 231.108225) scale(0.1 -0.1)">
       <defs>
        <path id="DejaVuSans-31" d="M 794 531 
L 1825 531 
L 1825 4091 
L 703 3866 
L 703 4441 
L 1819 4666 
L 2450 4666 
L 2450 531 
L 3481 531 
L 3481 0 
L 794 0 
L 794 531 
z
" transform="scale(0.015625)"/>
        <path id="DejaVuSans-30" d="M 2034 4250 
Q 1547 4250 1301 3770 
Q 1056 3291 1056 2328 
Q 1056 1369 1301 889 
Q 1547 409 2034 409 
Q 2525 409 2770 889 
Q 3016 1369 3016 2328 
Q 3016 3291 2770 3770 
Q 2525 4250 2034 4250 
z
M 2034 4750 
Q 2819 4750 3233 4129 
Q 3647 3509 3647 2328 
Q 3647 1150 3233 529 
Q 2819 -91 2034 -91 
Q 1250 -91 836 529 
Q 422 1150 422 2328 
Q 422 3509 836 4129 
Q 1250 4750 2034 4750 
z
" transform="scale(0.015625)"/>
       </defs>
       <use xlink:href="#DejaVuSans-31"/>
       <use xlink:href="#DejaVuSans-30" x="63.623047"/>
      </g>
     </g>
    </g>
    <g id="xtick_4">
     <g id="line2d_4">
      <g>
       <use xlink:href="#m0d5c868957" x="347.224422" y="216.509787" style="stroke: #000000; stroke-width: 0.8"/>
      </g>
     </g>
     <g id="text_3">
      <!-- 15 -->
      <g transform="translate(340.861922 231.108225) scale(0.1 -0.1)">
       <use xlink:href="#DejaVuSans-31"/>
       <use xlink:href="#DejaVuSans-35" x="63.623047"/>
      </g>
     </g>
    </g>
    <g id="xtick_5">
     <g id="line2d_5">
      <g>
       <use xlink:href="#m0d5c868957" x="452.386994" y="216.509787" style="stroke: #000000; stroke-width: 0.8"/>
      </g>
     </g>
     <g id="text_4">
      <!-- 20 -->
      <g transform="translate(446.024494 231.108225) scale(0.1 -0.1)">
       <defs>
        <path id="DejaVuSans-32" d="M 1228 531 
L 3431 531 
L 3431 0 
L 469 0 
L 469 531 
Q 828 903 1448 1529 
Q 2069 2156 2228 2338 
Q 2531 2678 2651 2914 
Q 2772 3150 2772 3378 
Q 2772 3750 2511 3984 
Q 2250 4219 1831 4219 
Q 1534 4219 1204 4116 
Q 875 4013 500 3803 
L 500 4441 
Q 881 4594 1212 4672 
Q 1544 4750 1819 4750 
Q 2544 4750 2975 4387 
Q 3406 4025 3406 3419 
Q 3406 3131 3298 2873 
Q 3191 2616 2906 2266 
Q 2828 2175 2409 1742 
Q 1991 1309 1228 531 
z
" transform="scale(0.015625)"/>
       </defs>
       <use xlink:href="#DejaVuSans-32"/>
       <use xlink:href="#DejaVuSans-30" x="63.623047"/>
      </g>
     </g>
    </g>
    <g id="xtick_6">
     <g id="line2d_6">
      <defs>
       <path id="ma865b1e6d7" d="M 0 0 
L 0 2 
" style="stroke: #000000; stroke-width: 0.6"/>
      </defs>
      <g>
       <use xlink:href="#ma865b1e6d7" x="52.769219" y="216.509787" style="stroke: #000000; stroke-width: 0.6"/>
      </g>
     </g>
    </g>
    <g id="xtick_7">
     <g id="line2d_7">
      <g>
       <use xlink:href="#ma865b1e6d7" x="73.801733" y="216.509787" style="stroke: #000000; stroke-width: 0.6"/>
      </g>
     </g>
    </g>
    <g id="xtick_8">
     <g id="line2d_8">
      <g>
       <use xlink:href="#ma865b1e6d7" x="94.834248" y="216.509787" style="stroke: #000000; stroke-width: 0.6"/>
      </g>
     </g>
    </g>
    <g id="xtick_9">
     <g id="line2d_9">
      <g>
       <use xlink:href="#ma865b1e6d7" x="115.866762" y="216.509787" style="stroke: #000000; stroke-width: 0.6"/>
      </g>
     </g>
    </g>
    <g id="xtick_10">
     <g id="line2d_10">
      <g>
       <use xlink:href="#ma865b1e6d7" x="157.931791" y="216.509787" style="stroke: #000000; stroke-width: 0.6"/>
      </g>
     </g>
    </g>
    <g id="xtick_11">
     <g id="line2d_11">
      <g>
       <use xlink:href="#ma865b1e6d7" x="178.964306" y="216.509787" style="stroke: #000000; stroke-width: 0.6"/>
      </g>
     </g>
    </g>
    <g id="xtick_12">
     <g id="line2d_12">
      <g>
       <use xlink:href="#ma865b1e6d7" x="199.99682" y="216.509787" style="stroke: #000000; stroke-width: 0.6"/>
      </g>
     </g>
    </g>
    <g id="xtick_13">
     <g id="line2d_13">
      <g>
       <use xlink:href="#ma865b1e6d7" x="221.029335" y="216.509787" style="stroke: #000000; stroke-width: 0.6"/>
      </g>
     </g>
    </g>
    <g id="xtick_14">
     <g id="line2d_14">
      <g>
       <use xlink:href="#ma865b1e6d7" x="263.094364" y="216.509787" style="stroke: #000000; stroke-width: 0.6"/>
      </g>
     </g>
    </g>
    <g id="xtick_15">
     <g id="line2d_15">
      <g>
       <use xlink:href="#ma865b1e6d7" x="284.126878" y="216.509787" style="stroke: #000000; stroke-width: 0.6"/>
      </g>
     </g>
    </g>
    <g id="xtick_16">
     <g id="line2d_16">
      <g>
       <use xlink:href="#ma865b1e6d7" x="305.159393" y="216.509787" style="stroke: #000000; stroke-width: 0.6"/>
      </g>
     </g>
    </g>
    <g id="xtick_17">
     <g id="line2d_17">
      <g>
       <use xlink:href="#ma865b1e6d7" x="326.191907" y="216.509787" style="stroke: #000000; stroke-width: 0.6"/>
      </g>
     </g>
    </g>
    <g id="xtick_18">
     <g id="line2d_18">
      <g>
       <use xlink:href="#ma865b1e6d7" x="368.256936" y="216.509787" style="stroke: #000000; stroke-width: 0.6"/>
      </g>
     </g>
    </g>
    <g id="xtick_19">
     <g id="line2d_19">
      <g>
       <use xlink:href="#ma865b1e6d7" x="389.289451" y="216.509787" style="stroke: #000000; stroke-width: 0.6"/>
      </g>
     </g>
    </g>
    <g id="xtick_20">
     <g id="line2d_20">
      <g>
       <use xlink:href="#ma865b1e6d7" x="410.321965" y="216.509787" style="stroke: #000000; stroke-width: 0.6"/>
      </g>
     </g>
    </g>
    <g id="xtick_21">
     <g id="line2d_21">
      <g>
       <use xlink:href="#ma865b1e6d7" x="431.35448" y="216.509787" style="stroke: #000000; stroke-width: 0.6"/>
      </g>
     </g>
    </g>
   </g>
   <g id="matplotlib.axis_2">
    <g id="ytick_1">
     <g id="line2d_22">
      <defs>
       <path id="md545339404" d="M 0 0 
L -3.5 0 
" style="stroke: #000000; stroke-width: 0.8"/>
      </defs>
      <g>
       <use xlink:href="#md545339404" x="31.736704" y="287.359121" style="stroke: #000000; stroke-width: 0.8"/>
      </g>
     </g>
     <g id="text_5">
      <!-- −0.2 -->
      <g transform="translate(0.453892 291.15834) scale(0.1 -0.1)">
       <defs>
        <path id="DejaVuSans-2212" d="M 678 2272 
L 4684 2272 
L 4684 1741 
L 678 1741 
L 678 2272 
z
" transform="scale(0.015625)"/>
        <path id="DejaVuSans-2e" d="M 684 794 
L 1344 794 
L 1344 0 
L 684 0 
L 684 794 
z
" transform="scale(0.015625)"/>
       </defs>
       <use xlink:href="#DejaVuSans-2212"/>
       <use xlink:href="#DejaVuSans-30" x="83.789062"/>
       <use xlink:href="#DejaVuSans-2e" x="147.412109"/>
       <use xlink:href="#DejaVuSans-32" x="179.199219"/>
      </g>
     </g>
    </g>
    <g id="ytick_2">
     <g id="line2d_23">
      <g>
       <use xlink:href="#md545339404" x="31.736704" y="216.509787" style="stroke: #000000; stroke-width: 0.8"/>
      </g>
     </g>
    </g>
    <g id="ytick_3">
     <g id="line2d_24">
      <g>
       <use xlink:href="#md545339404" x="31.736704" y="145.660453" style="stroke: #000000; stroke-width: 0.8"/>
      </g>
     </g>
     <g id="text_6">
      <!-- 0.2 -->
      <g transform="translate(8.833579 149.459672) scale(0.1 -0.1)">
       <use xlink:href="#DejaVuSans-30"/>
       <use xlink:href="#DejaVuSans-2e" x="63.623047"/>
       <use xlink:href="#DejaVuSans-32" x="95.410156"/>
      </g>
     </g>
    </g>
    <g id="ytick_4">
     <g id="line2d_25">
      <g>
       <use xlink:href="#md545339404" x="31.736704" y="74.81112" style="stroke: #000000; stroke-width: 0.8"/>
      </g>
     </g>
     <g id="text_7">
      <!-- 0.4 -->
      <g transform="translate(8.833579 78.610338) scale(0.1 -0.1)">
       <defs>
        <path id="DejaVuSans-34" d="M 2419 4116 
L 825 1625 
L 2419 1625 
L 2419 4116 
z
M 2253 4666 
L 3047 4666 
L 3047 1625 
L 3713 1625 
L 3713 1100 
L 3047 1100 
L 3047 0 
L 2419 0 
L 2419 1100 
L 313 1100 
L 313 1709 
L 2253 4666 
z
" transform="scale(0.015625)"/>
       </defs>
       <use xlink:href="#DejaVuSans-30"/>
       <use xlink:href="#DejaVuSans-2e" x="63.623047"/>
       <use xlink:href="#DejaVuSans-34" x="95.410156"/>
      </g>
     </g>
    </g>
    <g id="ytick_5">
     <g id="line2d_26">
      <g>
       <use xlink:href="#md545339404" x="31.736704" y="3.961786" style="stroke: #000000; stroke-width: 0.8"/>
      </g>
     </g>
     <g id="text_8">
      <!-- 0.6 -->
      <g transform="translate(8.833579 7.761005) scale(0.1 -0.1)">
       <defs>
        <path id="DejaVuSans-36" d="M 2113 2584 
Q 1688 2584 1439 2293 
Q 1191 2003 1191 1497 
Q 1191 994 1439 701 
Q 1688 409 2113 409 
Q 2538 409 2786 701 
Q 3034 994 3034 1497 
Q 3034 2003 2786 2293 
Q 2538 2584 2113 2584 
z
M 3366 4563 
L 3366 3988 
Q 3128 4100 2886 4159 
Q 2644 4219 2406 4219 
Q 1781 4219 1451 3797 
Q 1122 3375 1075 2522 
Q 1259 2794 1537 2939 
Q 1816 3084 2150 3084 
Q 2853 3084 3261 2657 
Q 3669 2231 3669 1497 
Q 3669 778 3244 343 
Q 2819 -91 2113 -91 
Q 1303 -91 875 529 
Q 447 1150 447 2328 
Q 447 3434 972 4092 
Q 1497 4750 2381 4750 
Q 2619 4750 2861 4703 
Q 3103 4656 3366 4563 
z
" transform="scale(0.015625)"/>
       </defs>
       <use xlink:href="#DejaVuSans-30"/>
       <use xlink:href="#DejaVuSans-2e" x="63.623047"/>
       <use xlink:href="#DejaVuSans-36" x="95.410156"/>
      </g>
     </g>
    </g>
    <g id="ytick_6">
     <g id="line2d_27">
      <defs>
       <path id="me3638833b4" d="M 0 0 
L -2 0 
" style="stroke: #000000; stroke-width: 0.6"/>
      </defs>
      <g>
       <use xlink:href="#me3638833b4" x="31.736704" y="340.496121" style="stroke: #000000; stroke-width: 0.6"/>
      </g>
     </g>
    </g>
    <g id="ytick_7">
     <g id="line2d_28">
      <g>
       <use xlink:href="#me3638833b4" x="31.736704" y="322.783788" style="stroke: #000000; stroke-width: 0.6"/>
      </g>
     </g>
    </g>
    <g id="ytick_8">
     <g id="line2d_29">
      <g>
       <use xlink:href="#me3638833b4" x="31.736704" y="305.071454" style="stroke: #000000; stroke-width: 0.6"/>
      </g>
     </g>
    </g>
    <g id="ytick_9">
     <g id="line2d_30">
      <g>
       <use xlink:href="#me3638833b4" x="31.736704" y="269.646787" style="stroke: #000000; stroke-width: 0.6"/>
      </g>
     </g>
    </g>
    <g id="ytick_10">
     <g id="line2d_31">
      <g>
       <use xlink:href="#me3638833b4" x="31.736704" y="251.934454" style="stroke: #000000; stroke-width: 0.6"/>
      </g>
     </g>
    </g>
    <g id="ytick_11">
     <g id="line2d_32">
      <g>
       <use xlink:href="#me3638833b4" x="31.736704" y="234.222121" style="stroke: #000000; stroke-width: 0.6"/>
      </g>
     </g>
    </g>
    <g id="ytick_12">
     <g id="line2d_33">
      <g>
       <use xlink:href="#me3638833b4" x="31.736704" y="198.797454" style="stroke: #000000; stroke-width: 0.6"/>
      </g>
     </g>
    </g>
    <g id="ytick_13">
     <g id="line2d_34">
      <g>
       <use xlink:href="#me3638833b4" x="31.736704" y="181.08512" style="stroke: #000000; stroke-width: 0.6"/>
      </g>
     </g>
    </g>
    <g id="ytick_14">
     <g id="line2d_35">
      <g>
       <use xlink:href="#me3638833b4" x="31.736704" y="163.372787" style="stroke: #000000; stroke-width: 0.6"/>
      </g>
     </g>
    </g>
    <g id="ytick_15">
     <g id="line2d_36">
      <g>
       <use xlink:href="#me3638833b4" x="31.736704" y="127.94812" style="stroke: #000000; stroke-width: 0.6"/>
      </g>
     </g>
    </g>
    <g id="ytick_16">
     <g id="line2d_37">
      <g>
       <use xlink:href="#me3638833b4" x="31.736704" y="110.235787" style="stroke: #000000; stroke-width: 0.6"/>
      </g>
     </g>
    </g>
    <g id="ytick_17">
     <g id="line2d_38">
      <g>
       <use xlink:href="#me3638833b4" x="31.736704" y="92.523453" style="stroke: #000000; stroke-width: 0.6"/>
      </g>
     </g>
    </g>
    <g id="ytick_18">
     <g id="line2d_39">
      <g>
       <use xlink:href="#me3638833b4" x="31.736704" y="57.098786" style="stroke: #000000; stroke-width: 0.6"/>
      </g>
     </g>
    </g>
    <g id="ytick_19">
     <g id="line2d_40">
      <g>
       <use xlink:href="#me3638833b4" x="31.736704" y="39.386453" style="stroke: #000000; stroke-width: 0.6"/>
      </g>
     </g>
    </g>
    <g id="ytick_20">
     <g id="line2d_41">
      <g>
       <use xlink:href="#me3638833b4" x="31.736704" y="21.674119" style="stroke: #000000; stroke-width: 0.6"/>
      </g>
     </g>
    </g>
   </g>
   <g id="line2d_42">
    <path d="M 31.736704 216.509787 
L 38.862881 157.354412 
L 41.386425 137.365142 
L 44.141608 116.520171 
L 47.220782 94.749047 
L 50.919274 71.190432 
L 52.484886 62.190942 
L 54.880943 49.652587 
L 58.007511 35.702573 
L 59.065537 31.634272 
L 61.147053 24.633289 
L 62.421093 21.019248 
L 64.102867 17.045147 
L 65.784641 13.990145 
L 68.337214 11.128825 
L 68.879699 10.797664 
L 71.309857 10.50405 
L 72.899752 11.358295 
L 74.489648 13.029603 
L 75.205828 14.045981 
L 77.453455 18.278163 
L 79.395675 23.175655 
L 81.013455 28.100287 
L 82.631235 33.762312 
L 84.695192 42.004563 
L 86.425873 49.745663 
L 88.785728 61.427657 
L 91.699447 77.460511 
L 95.494482 100.578218 
L 98.56665 120.731054 
L 102.767278 149.652505 
L 112.585667 218.260847 
L 116.913849 246.54723 
L 118.593154 256.879577 
L 121.635826 274.452451 
L 123.716561 285.500131 
L 126.183206 297.451762 
L 128.239521 306.386606 
L 131.419002 318.220229 
L 134.233203 326.567981 
L 136.323224 331.421448 
L 138.14273 334.691933 
L 139.980038 337.083523 
L 141.306397 338.239571 
L 143.008891 339.024387 
L 144.711384 339.029491 
L 146.160225 338.427737 
L 148.609052 336.17138 
L 149.581628 334.853854 
L 152.607913 329.285449 
L 153.781271 326.552952 
L 157.455575 316.080692 
L 159.190672 310.20519 
L 162.810803 296.275407 
L 165.661674 283.954535 
L 168.273077 271.842492 
L 172.400394 251.56433 
L 183.516293 195.595912 
L 185.428754 186.539158 
L 190.197892 165.633181 
L 191.48567 160.490834 
L 195.587453 145.831243 
L 199.182098 135.409341 
L 200.880181 131.351329 
L 203.311673 126.561713 
L 204.347536 124.896421 
L 206.862198 121.807051 
L 208.846738 120.333701 
L 211.515673 119.700344 
L 213.72837 120.339243 
L 214.582496 120.864193 
L 217.27139 123.505991 
L 219.992224 127.654536 
L 221.596118 130.760769 
L 224.000092 136.278241 
L 225.285874 139.628855 
L 227.868843 147.132698 
L 230.524914 155.815472 
L 232.407142 162.482711 
L 235.783758 175.315666 
L 238.392267 185.815216 
L 251.060942 238.499589 
L 253.518434 248.034666 
L 257.257955 261.491029 
L 259.259018 268.051014 
L 261.559722 274.950492 
L 263.947192 281.307832 
L 266.312657 286.730993 
L 268.275809 290.527632 
L 270.220453 293.629929 
L 273.165279 297.035339 
L 274.688877 298.172511 
L 276.843722 299.044814 
L 278.140394 299.153503 
L 281.554408 297.956621 
L 283.403195 296.427854 
L 286.545481 292.465186 
L 289.624932 287.007346 
L 292.183757 281.381763 
L 295.912364 271.613306 
L 298.140738 265.004123 
L 301.53928 254.021498 
L 304.201629 244.824129 
L 311.788172 217.169329 
L 317.37405 197.029847 
L 318.313561 193.777183 
L 323.917012 175.73923 
L 324.95383 172.717462 
L 329.04342 161.994229 
L 333.305453 153.140025 
L 335.156956 150.115673 
L 337.554039 146.987694 
L 340.416219 144.458209 
L 343.228192 143.281175 
L 343.7053 143.211132 
L 347.309035 143.892703 
L 348.220463 144.400489 
L 350.080873 145.848529 
L 353.01962 149.22909 
L 355.215895 152.589325 
L 356.23349 154.375529 
L 360.961817 164.417494 
L 362.660679 168.655586 
L 365.849008 177.363465 
L 369.232539 187.482575 
L 374.62424 204.819778 
L 381.872166 228.6796 
L 384.456713 236.86679 
L 387.637145 246.42906 
L 390.959417 255.600383 
L 392.818018 260.286051 
L 395.990526 267.426736 
L 397.363264 270.149522 
L 400.584463 275.589621 
L 401.75894 277.224905 
L 403.534509 279.328369 
L 406.620339 281.895952 
L 409.417827 283.000588 
L 411.26487 283.085866 
L 415.146947 281.607333 
L 415.754808 281.175674 
L 418.943713 278.052857 
L 420.517515 275.997997 
L 423.312065 271.562497 
L 426.517794 265.331611 
L 429.591054 258.347799 
L 431.031185 254.778775 
L 434.814018 244.661409 
L 440.78657 227.184007 
L 449.078307 202.246853 
L 452.386994 192.834376 
L 452.386994 192.834376 
" clip-path="url(#p4d8a6f270f)" style="fill: none; stroke: #0000cc; stroke-linecap: square"/>
   </g>
   <g id="line2d_43">
    <path d="M 31.736704 216.509787 
L 32.887174 216.37733 
L 35.798591 214.863374 
L 38.662292 211.751855 
L 40.131682 209.548379 
L 41.487787 207.161274 
L 45.467553 198.298762 
L 48.288529 190.474349 
L 52.100851 178.147909 
L 54.953258 167.829201 
L 58.42951 154.291911 
L 64.602933 128.773074 
L 70.995927 102.418776 
L 76.189023 82.793175 
L 79.317145 72.334037 
L 82.776598 62.337957 
L 84.392947 58.318281 
L 87.731589 51.483245 
L 88.560594 50.112297 
L 90.692444 47.217074 
L 94.000827 44.600378 
L 94.596386 44.37989 
L 96.418996 44.19121 
L 98.241605 44.743762 
L 98.942911 45.155455 
L 100.720157 46.695962 
L 103.185704 50.011914 
L 104.850679 53.019558 
L 107.605346 59.328586 
L 110.398527 67.365918 
L 111.528336 71.066619 
L 115.135572 84.50871 
L 117.838909 96.079692 
L 120.554422 108.841659 
L 124.244646 127.730486 
L 128.146675 149.195419 
L 145.07226 245.951989 
L 149.784139 269.618358 
L 154.238263 289.059904 
L 157.501303 301.109305 
L 159.681158 308.004762 
L 163.160051 316.951449 
L 164.580341 319.845199 
L 166.773499 323.422886 
L 168.393755 325.361461 
L 171.46044 327.376235 
L 172.888924 327.575633 
L 176.232126 326.228247 
L 176.870231 325.686771 
L 178.725605 323.60718 
L 180.580979 320.79377 
L 181.45448 319.222699 
L 184.661501 312.164586 
L 187.026516 305.740843 
L 188.886979 300.022714 
L 192.262843 288.314119 
L 193.570633 283.368877 
L 196.735901 270.609522 
L 200.446803 254.538555 
L 213.71923 194.403041 
L 217.198369 179.829926 
L 221.61941 163.1027 
L 223.767431 155.877061 
L 227.077819 146.090634 
L 228.927587 141.399751 
L 232.165022 134.637824 
L 235.064783 130.229294 
L 236.283435 128.857344 
L 238.73759 126.973589 
L 241.139149 126.275225 
L 242.526913 126.387313 
L 245.913683 128.224699 
L 248.044027 130.489177 
L 249.042854 131.836079 
L 251.312725 135.549412 
L 253.733234 140.460419 
L 256.042589 145.996724 
L 257.91321 151.040848 
L 261.300486 161.30438 
L 266.269061 178.4838 
L 271.036744 196.544856 
L 280.11097 231.875754 
L 283.550849 244.552539 
L 286.339037 254.185046 
L 288.935753 262.489477 
L 291.159346 268.999649 
L 294.132327 276.718721 
L 296.909509 282.80201 
L 298.919171 286.470967 
L 300.126088 288.36468 
L 302.510695 291.400416 
L 304.311496 293.057231 
L 305.747611 293.979873 
L 309.360066 294.723448 
L 311.562746 294.072447 
L 313.506978 292.813907 
L 316.049638 290.225928 
L 320.053209 284.096502 
L 321.552104 281.197033 
L 324.336013 275.013777 
L 327.249864 267.538183 
L 328.851526 263.044114 
L 330.887797 256.988474 
L 333.380297 249.133925 
L 338.000678 233.649474 
L 348.66412 196.992624 
L 350.524567 190.969959 
L 354.557429 178.763985 
L 359.082915 166.875252 
L 360.83469 162.893012 
L 364.201035 156.342909 
L 367.122653 151.927906 
L 369.924285 148.874712 
L 372.925733 146.936059 
L 374.882161 146.42766 
L 377.452307 146.668154 
L 381.183919 148.827668 
L 383.03478 150.671088 
L 384.119536 151.981011 
L 387.056187 156.342006 
L 388.281246 158.496607 
L 390.32922 162.510391 
L 392.932065 168.299015 
L 394.549337 172.246195 
L 398.595958 183.117974 
L 404.144216 199.707724 
L 413.70079 229.70303 
L 416.642638 238.528101 
L 420.985486 250.613618 
L 424.460782 259.183869 
L 428.537938 267.66935 
L 431.573564 272.71996 
L 433.942706 275.839003 
L 435.069085 277.05715 
L 438.320772 279.584287 
L 439.817859 280.244163 
L 442.954587 280.584698 
L 446.116841 279.505986 
L 448.47841 277.788605 
L 451.018611 275.102734 
L 452.386994 273.310177 
L 452.386994 273.310177 
" clip-path="url(#p4d8a6f270f)" style="fill: none; stroke: #3ccc00; stroke-linecap: square"/>
   </g>
   <g id="line2d_44">
    <path d="M 31.736704 216.509787 
L 36.292167 216.435019 
L 38.241844 216.292736 
L 40.774176 215.931006 
L 42.695141 215.483531 
L 44.947908 214.725428 
L 47.915088 213.273282 
L 50.007307 211.895876 
L 53.48011 208.886054 
L 56.752887 205.151617 
L 59.330701 201.561243 
L 61.011324 198.905236 
L 63.144415 195.174362 
L 65.509357 190.572163 
L 67.299247 186.770965 
L 70.519414 179.274482 
L 73.605528 171.357634 
L 77.624425 160.125828 
L 82.929304 144.114926 
L 96.10445 103.278326 
L 99.417118 93.958629 
L 100.460913 91.18439 
L 103.177944 84.401977 
L 104.858743 80.56393 
L 108.842137 72.739097 
L 109.748134 71.234872 
L 112.148393 67.790861 
L 113.47442 66.242288 
L 116.654078 63.622216 
L 119.436785 62.664204 
L 120.33175 62.63166 
L 122.281122 63.036492 
L 124.981824 64.693038 
L 126.83945 66.58019 
L 128.799148 69.233896 
L 130.96776 72.959789 
L 132.290893 75.635912 
L 134.39576 80.510837 
L 137.458463 88.917441 
L 139.004291 93.727 
L 142.557134 106.125277 
L 144.876263 115.149659 
L 147.683551 126.944909 
L 152.405977 148.573388 
L 157.499619 173.670704 
L 170.343753 238.212627 
L 174.445916 257.107804 
L 176.786227 267.131719 
L 180.561761 281.866005 
L 182.033764 287.066619 
L 185.548005 298.100639 
L 187.361087 302.976634 
L 191.240218 311.3999 
L 192.511464 313.53942 
L 194.915197 316.719547 
L 197.531525 318.872785 
L 199.086259 319.500568 
L 200.436229 319.651283 
L 202.909265 318.982228 
L 205.059129 317.420762 
L 206.686344 315.64635 
L 209.8392 310.80653 
L 210.519975 309.527337 
L 214.124234 301.452802 
L 215.21319 298.60549 
L 219.215034 286.685646 
L 220.972817 280.800592 
L 224.339711 268.605793 
L 227.920278 254.582443 
L 235.659143 222.307693 
L 241.858267 196.643399 
L 245.703395 181.756003 
L 247.186746 176.341762 
L 249.661397 167.807952 
L 253.304861 156.562089 
L 255.420366 150.851243 
L 259.364404 142.003199 
L 261.957532 137.559681 
L 265.063248 133.75751 
L 266.377911 132.660722 
L 268.712059 131.475899 
L 271.175751 131.287231 
L 271.812074 131.415139 
L 274.596394 132.817566 
L 277.36345 135.54101 
L 278.019438 136.375305 
L 282.193189 143.291573 
L 284.611275 148.490144 
L 288.101413 157.363781 
L 289.828959 162.289305 
L 292.292098 169.839341 
L 295.049026 178.911123 
L 301.671126 202.484492 
L 307.946433 225.520519 
L 313.183258 243.853739 
L 314.690633 248.817058 
L 318.975539 261.849398 
L 321.625643 268.953812 
L 323.793712 274.135527 
L 326.759949 280.212922 
L 330.596861 286.190141 
L 332.485291 288.305048 
L 333.73138 289.392089 
L 335.248288 290.379726 
L 337.528871 291.164973 
L 340.14483 291.028742 
L 342.377921 290.043401 
L 344.927621 287.960897 
L 345.667516 287.170164 
L 347.984654 284.169334 
L 350.452547 280.135343 
L 353.171581 274.759832 
L 355.567892 269.284855 
L 358.901838 260.660669 
L 363.466288 247.322433 
L 368.198286 232.234631 
L 378.664206 198.004805 
L 382.708855 185.788506 
L 384.713891 180.163861 
L 388.286212 171.039743 
L 391.468425 164.044349 
L 395.012719 157.692783 
L 398.294086 153.29839 
L 399.558413 152.00777 
L 401.262343 150.633144 
L 403.063895 149.641973 
L 406.402822 149.074814 
L 407.314395 149.206906 
L 410.876717 150.888732 
L 412.37291 152.137793 
L 413.337372 153.108401 
L 415.541074 155.798789 
L 418.319564 160.085084 
L 420.600322 164.297336 
L 422.516232 168.279248 
L 424.134677 171.931953 
L 428.131668 181.938143 
L 433.886395 198.187259 
L 447.059371 237.444785 
L 451.031742 248.149657 
L 452.386994 251.545277 
L 452.386994 251.545277 
" clip-path="url(#p4d8a6f270f)" style="fill: none; stroke: #cc0077; stroke-linecap: square"/>
   </g>
   <g id="line2d_45">
    <path d="M 31.736704 216.509787 
L 43.338673 216.425663 
L 46.191145 216.308814 
L 50.332558 215.967732 
L 53.296593 215.543564 
L 56.554147 214.842437 
L 58.941542 214.13619 
L 61.977161 212.957739 
L 63.690222 212.135858 
L 66.000744 210.828064 
L 69.706071 208.20396 
L 70.941693 207.173034 
L 73.354031 204.920803 
L 77.573121 200.179961 
L 81.44421 194.891248 
L 84.3445 190.328778 
L 86.492438 186.621196 
L 90.531774 178.916999 
L 94.445042 170.605525 
L 99.023423 159.970736 
L 103.499112 148.846232 
L 119.136371 108.899776 
L 123.339304 99.321838 
L 126.864532 92.158743 
L 130.055117 86.539459 
L 133.622841 81.407956 
L 135.475374 79.281552 
L 137.791069 77.186831 
L 139.275193 76.191239 
L 141.169379 75.332577 
L 143.133324 74.948128 
L 145.472951 75.185963 
L 148.482249 76.639035 
L 150.503149 78.354703 
L 151.654963 79.60121 
L 153.601691 82.15249 
L 156.499287 86.979921 
L 158.787494 91.650714 
L 162.108784 99.737453 
L 163.925679 104.790506 
L 166.540632 112.801113 
L 169.304782 122.152578 
L 171.590037 130.509295 
L 174.708657 142.718875 
L 180.194559 165.990786 
L 185.400534 189.415379 
L 193.679398 226.997491 
L 199.30527 251.034399 
L 202.428164 263.324419 
L 204.206632 269.889874 
L 208.282923 283.541836 
L 210.498222 290.045866 
L 213.662741 298.09235 
L 215.11681 301.267785 
L 219.012348 308.057211 
L 222.903885 312.228423 
L 225.110342 313.399195 
L 226.324579 313.671415 
L 227.647537 313.667388 
L 231.106265 312.186973 
L 233.712841 309.69301 
L 235.768473 306.91826 
L 239.748416 299.626768 
L 241.111797 296.580974 
L 243.289385 291.179267 
L 245.500083 285.067112 
L 247.276253 279.73792 
L 249.242418 273.447464 
L 251.402468 266.118614 
L 256.6691 246.831596 
L 262.161861 225.495895 
L 268.437006 201.171388 
L 272.81932 185.152202 
L 275.291885 176.727381 
L 279.148667 164.750801 
L 281.123365 159.261222 
L 282.877876 154.792411 
L 284.711331 150.561924 
L 286.623395 146.65577 
L 289.935727 141.182825 
L 291.633821 139.041307 
L 292.858472 137.784567 
L 295.603883 135.858703 
L 298.592335 135.179384 
L 299.937702 135.356346 
L 301.752736 136.066239 
L 303.650928 137.379797 
L 305.875129 139.644691 
L 309.507126 144.953849 
L 311.10976 147.896887 
L 312.619893 150.985369 
L 314.774022 155.888652 
L 317.16386 161.957875 
L 318.73148 166.263951 
L 322.468544 177.415933 
L 325.736435 187.981707 
L 331.489028 207.669957 
L 338.055352 230.33952 
L 339.774744 236.072243 
L 343.523284 247.996176 
L 345.450758 253.734036 
L 349.006684 263.43903 
L 352.971123 272.662784 
L 355.517931 277.572051 
L 357.742153 281.150324 
L 360.210897 284.305566 
L 362.031831 286.062612 
L 363.716984 287.247299 
L 365.495169 288.031447 
L 369.027007 288.161556 
L 372.383817 286.539961 
L 373.321772 285.789122 
L 377.050245 281.567078 
L 378.760851 278.996065 
L 381.271961 274.547703 
L 383.847751 269.212552 
L 386.895095 261.999963 
L 388.448421 257.99242 
L 391.366799 249.951448 
L 395.51127 237.641827 
L 410.80413 190.459942 
L 413.844313 182.12348 
L 416.386476 175.718991 
L 418.556887 170.728414 
L 420.878279 165.934895 
L 422.710748 162.581917 
L 424.077751 160.343216 
L 426.487218 156.970773 
L 429.227925 154.064399 
L 431.68909 152.32968 
L 432.801432 151.822934 
L 436.545734 151.398168 
L 439.865559 152.665925 
L 443.181969 155.433664 
L 446.159144 159.134269 
L 448.231331 162.34705 
L 449.518028 164.589145 
L 452.386994 170.220044 
L 452.386994 170.220044 
" clip-path="url(#p4d8a6f270f)" style="fill: none; stroke: #00b3cc; stroke-linecap: square"/>
   </g>
   <g id="line2d_46">
    <path d="M 31.736704 216.509787 
L 50.590068 216.458159 
L 56.643319 216.307201 
L 62.357605 215.9577 
L 66.311856 215.52115 
L 70.582083 214.792483 
L 73.199392 214.178234 
L 77.706757 212.749883 
L 80.004658 211.811296 
L 84.232526 209.651333 
L 86.804098 208.031914 
L 88.989057 206.457123 
L 92.931084 203.119584 
L 94.508353 201.595809 
L 97.705447 198.161848 
L 99.619228 195.879751 
L 103.884508 190.172855 
L 107.0916 185.319033 
L 110.922556 178.90751 
L 114.266385 172.798342 
L 115.556334 170.323385 
L 120.579965 160.135867 
L 124.319655 152.090876 
L 139.140907 119.149074 
L 143.797091 109.58302 
L 146.692637 104.116719 
L 149.157739 99.837304 
L 151.313934 96.42258 
L 153.912175 92.768567 
L 155.606118 90.684714 
L 158.002497 88.175314 
L 160.39212 86.223183 
L 162.588252 84.947379 
L 163.88134 84.439992 
L 166.345011 83.994948 
L 168.262808 84.138392 
L 170.429995 84.833323 
L 173.330291 86.670449 
L 175.194684 88.408981 
L 177.201162 90.771625 
L 180.77101 96.233789 
L 185.310762 105.465038 
L 187.461958 110.699597 
L 190.066969 117.739876 
L 192.468189 124.871912 
L 195.683803 135.309472 
L 198.526182 145.29057 
L 202.510769 160.280688 
L 207.38403 179.788572 
L 221.090783 236.250129 
L 223.123231 244.169469 
L 226.194485 255.621907 
L 228.484877 263.673632 
L 230.969145 271.850724 
L 234.72105 282.936195 
L 238.013007 291.242715 
L 241.476528 298.388705 
L 243.727673 302.094789 
L 246.146706 305.213977 
L 247.250272 306.332518 
L 249.884894 308.21727 
L 251.821025 308.88914 
L 252.826414 308.998568 
L 256.574993 307.968456 
L 257.602018 307.294137 
L 259.560524 305.549497 
L 262.686197 301.550893 
L 263.942767 299.537219 
L 265.883267 295.989872 
L 269.056186 289.107836 
L 271.673341 282.502503 
L 274.767072 273.736348 
L 276.592178 268.137872 
L 279.631759 258.22361 
L 283.320637 245.418789 
L 291.227245 216.587904 
L 295.458337 201.302422 
L 300.571704 183.883386 
L 301.790864 179.987092 
L 305.450015 169.062706 
L 308.830359 160.17256 
L 310.392466 156.508185 
L 312.498003 152.051885 
L 314.562164 148.251981 
L 317.391329 144.009983 
L 320.636779 140.585866 
L 322.473304 139.35258 
L 325.830323 138.436806 
L 326.714936 138.484456 
L 330.414673 139.978725 
L 331.523533 140.827746 
L 333.232126 142.489175 
L 336.176174 146.325535 
L 337.704786 148.783026 
L 339.667796 152.380392 
L 342.293189 157.918532 
L 343.814455 161.479703 
L 347.633233 171.423138 
L 351.539003 182.822345 
L 354.662104 192.594727 
L 369.248347 239.92738 
L 372.249568 248.819693 
L 376.798456 260.972565 
L 378.779831 265.658238 
L 380.453547 269.289341 
L 382.088405 272.526998 
L 383.948013 275.817245 
L 387.448045 280.806551 
L 388.232612 281.700027 
L 390.718906 283.968051 
L 393.011127 285.285481 
L 396.334859 285.857395 
L 396.854961 285.803214 
L 399.382052 284.990448 
L 403.030065 282.240036 
L 405.633559 279.182178 
L 408.147137 275.41429 
L 410.546385 271.12001 
L 412.199311 267.793721 
L 414.118732 263.584547 
L 417.623702 255.046273 
L 422.980958 240.326939 
L 429.784595 220.004498 
L 435.599937 202.566557 
L 437.117476 198.170556 
L 440.359483 189.157655 
L 444.300948 179.126524 
L 445.145726 177.137471 
L 449.04276 168.82494 
L 450.817984 165.555095 
L 452.386994 162.9584 
L 452.386994 162.9584 
" clip-path="url(#p4d8a6f270f)" style="fill: none; stroke: #ccaa00; stroke-linecap: square"/>
   </g>
   <g id="patch_8">
    <path d="M 31.736704 345.6 
L 31.736704 3.933541 
" style="fill: none; stroke: #000000; stroke-width: 0.8; stroke-linejoin: miter; stroke-linecap: square"/>
   </g>
   <g id="patch_9">
    <path d="M 23.323698 216.509787 
L 460.8 216.509787 
" style="fill: none; stroke: #000000; stroke-width: 0.8; stroke-linejoin: miter; stroke-linecap: square"/>
   </g>
  </g>
 </g>
 <defs>
  <clipPath id="p4d8a6f270f">
   <rect x="23.323698" y="3.933541" width="437.476302" height="341.666459"/>
  </clipPath>
 </defs>
</svg>
