<?xml version="1.0" encoding="utf-8" standalone="no"?>
<!DOCTYPE svg PUBLIC "-//W3C//DTD SVG 1.1//EN"
  "http://www.w3.org/Graphics/SVG/1.1/DTD/svg11.dtd">
<svg xmlns:xlink="http://www.w3.org/1999/xlink" width="576pt" height="144pt" viewBox="0 0 576 144" xmlns="http://www.w3.org/2000/svg" version="1.1">
 <metadata>
  <rdf:RDF xmlns:dc="http://purl.org/dc/elements/1.1/" xmlns:cc="http://creativecommons.org/ns#" xmlns:rdf="http://www.w3.org/1999/02/22-rdf-syntax-ns#">
   <cc:Work>
    <dc:type rdf:resource="http://purl.org/dc/dcmitype/StillImage"/>
    <dc:date>2023-12-06T18:14:47.749784</dc:date>
    <dc:format>image/svg+xml</dc:format>
    <dc:creator>
     <cc:Agent>
      <dc:title>Matplotlib v3.8.0, https://matplotlib.org/</dc:title>
     </cc:Agent>
    </dc:creator>
   </cc:Work>
  </rdf:RDF>
 </metadata>
 <defs>
  <style type="text/css">*{stroke-linejoin: round; stroke-linecap: butt}</style>
 </defs>
 <g id="figure_1">
  <g id="patch_1">
   <path d="M 0 144 
L 576 144 
L 576 0 
L 0 0 
z
" style="fill: #ffffff"/>
  </g>
  <g id="axes_1">
   <g id="patch_2">
    <path d="M 0 140.118239 
L 576 140.118239 
L 576 1.718693 
L 0 1.718693 
z
" style="fill: #ffffff"/>
   </g>
   <g id="matplotlib.axis_1">
    <g id="xtick_1">
     <g id="line2d_1">
      <defs>
       <path id="m5286942184" d="M 0 0 
L 0 3.5 
" style="stroke: #000000; stroke-width: 0.8"/>
      </defs>
      <g>
       <use xlink:href="#m5286942184" x="11.076923" y="70.920287" style="stroke: #000000; stroke-width: 0.8"/>
      </g>
     </g>
     <g id="text_1">
      <!-- −3 -->
      <g transform="translate(3.705829 85.518725) scale(0.1 -0.1)">
       <defs>
        <path id="DejaVuSans-2212" d="M 678 2272 
L 4684 2272 
L 4684 1741 
L 678 1741 
L 678 2272 
z
" transform="scale(0.015625)"/>
        <path id="DejaVuSans-33" d="M 2597 2516 
Q 3050 2419 3304 2112 
Q 3559 1806 3559 1356 
Q 3559 666 3084 287 
Q 2609 -91 1734 -91 
Q 1441 -91 1130 -33 
Q 819 25 488 141 
L 488 750 
Q 750 597 1062 519 
Q 1375 441 1716 441 
Q 2309 441 2620 675 
Q 2931 909 2931 1356 
Q 2931 1769 2642 2001 
Q 2353 2234 1838 2234 
L 1294 2234 
L 1294 2753 
L 1863 2753 
Q 2328 2753 2575 2939 
Q 2822 3125 2822 3475 
Q 2822 3834 2567 4026 
Q 2313 4219 1838 4219 
Q 1578 4219 1281 4162 
Q 984 4106 628 3988 
L 628 4550 
Q 988 4650 1302 4700 
Q 1616 4750 1894 4750 
Q 2613 4750 3031 4423 
Q 3450 4097 3450 3541 
Q 3450 3153 3228 2886 
Q 3006 2619 2597 2516 
z
" transform="scale(0.015625)"/>
       </defs>
       <use xlink:href="#DejaVuSans-2212"/>
       <use xlink:href="#DejaVuSans-33" x="83.789062"/>
      </g>
     </g>
    </g>
    <g id="xtick_2">
     <g id="line2d_2">
      <g>
       <use xlink:href="#m5286942184" x="103.384615" y="70.920287" style="stroke: #000000; stroke-width: 0.8"/>
      </g>
     </g>
     <g id="text_2">
      <!-- −2 -->
      <g transform="translate(96.013522 85.518725) scale(0.1 -0.1)">
       <defs>
        <path id="DejaVuSans-32" d="M 1228 531 
L 3431 531 
L 3431 0 
L 469 0 
L 469 531 
Q 828 903 1448 1529 
Q 2069 2156 2228 2338 
Q 2531 2678 2651 2914 
Q 2772 3150 2772 3378 
Q 2772 3750 2511 3984 
Q 2250 4219 1831 4219 
Q 1534 4219 1204 4116 
Q 875 4013 500 3803 
L 500 4441 
Q 881 4594 1212 4672 
Q 1544 4750 1819 4750 
Q 2544 4750 2975 4387 
Q 3406 4025 3406 3419 
Q 3406 3131 3298 2873 
Q 3191 2616 2906 2266 
Q 2828 2175 2409 1742 
Q 1991 1309 1228 531 
z
" transform="scale(0.015625)"/>
       </defs>
       <use xlink:href="#DejaVuSans-2212"/>
       <use xlink:href="#DejaVuSans-32" x="83.789062"/>
      </g>
     </g>
    </g>
    <g id="xtick_3">
     <g id="line2d_3">
      <g>
       <use xlink:href="#m5286942184" x="195.692308" y="70.920287" style="stroke: #000000; stroke-width: 0.8"/>
      </g>
     </g>
     <g id="text_3">
      <!-- −1 -->
      <g transform="translate(188.321214 85.518725) scale(0.1 -0.1)">
       <defs>
        <path id="DejaVuSans-31" d="M 794 531 
L 1825 531 
L 1825 4091 
L 703 3866 
L 703 4441 
L 1819 4666 
L 2450 4666 
L 2450 531 
L 3481 531 
L 3481 0 
L 794 0 
L 794 531 
z
" transform="scale(0.015625)"/>
       </defs>
       <use xlink:href="#DejaVuSans-2212"/>
       <use xlink:href="#DejaVuSans-31" x="83.789062"/>
      </g>
     </g>
    </g>
    <g id="xtick_4">
     <g id="line2d_4">
      <g>
       <use xlink:href="#m5286942184" x="288" y="70.920287" style="stroke: #000000; stroke-width: 0.8"/>
      </g>
     </g>
    </g>
    <g id="xtick_5">
     <g id="line2d_5">
      <g>
       <use xlink:href="#m5286942184" x="380.307692" y="70.920287" style="stroke: #000000; stroke-width: 0.8"/>
      </g>
     </g>
     <g id="text_4">
      <!-- 1 -->
      <g transform="translate(377.126442 85.518725) scale(0.1 -0.1)">
       <use xlink:href="#DejaVuSans-31"/>
      </g>
     </g>
    </g>
    <g id="xtick_6">
     <g id="line2d_6">
      <g>
       <use xlink:href="#m5286942184" x="472.615385" y="70.920287" style="stroke: #000000; stroke-width: 0.8"/>
      </g>
     </g>
     <g id="text_5">
      <!-- 2 -->
      <g transform="translate(469.434135 85.518725) scale(0.1 -0.1)">
       <use xlink:href="#DejaVuSans-32"/>
      </g>
     </g>
    </g>
    <g id="xtick_7">
     <g id="line2d_7">
      <g>
       <use xlink:href="#m5286942184" x="564.923077" y="70.920287" style="stroke: #000000; stroke-width: 0.8"/>
      </g>
     </g>
     <g id="text_6">
      <!-- 3 -->
      <g transform="translate(561.741827 85.518725) scale(0.1 -0.1)">
       <use xlink:href="#DejaVuSans-33"/>
      </g>
     </g>
    </g>
    <g id="xtick_8">
     <g id="line2d_8">
      <defs>
       <path id="m846d98e112" d="M 0 0 
L 0 2 
" style="stroke: #000000; stroke-width: 0.6"/>
      </defs>
      <g>
       <use xlink:href="#m846d98e112" x="29.538462" y="70.920287" style="stroke: #000000; stroke-width: 0.6"/>
      </g>
     </g>
    </g>
    <g id="xtick_9">
     <g id="line2d_9">
      <g>
       <use xlink:href="#m846d98e112" x="48" y="70.920287" style="stroke: #000000; stroke-width: 0.6"/>
      </g>
     </g>
    </g>
    <g id="xtick_10">
     <g id="line2d_10">
      <g>
       <use xlink:href="#m846d98e112" x="66.461538" y="70.920287" style="stroke: #000000; stroke-width: 0.6"/>
      </g>
     </g>
    </g>
    <g id="xtick_11">
     <g id="line2d_11">
      <g>
       <use xlink:href="#m846d98e112" x="84.923077" y="70.920287" style="stroke: #000000; stroke-width: 0.6"/>
      </g>
     </g>
    </g>
    <g id="xtick_12">
     <g id="line2d_12">
      <g>
       <use xlink:href="#m846d98e112" x="121.846154" y="70.920287" style="stroke: #000000; stroke-width: 0.6"/>
      </g>
     </g>
    </g>
    <g id="xtick_13">
     <g id="line2d_13">
      <g>
       <use xlink:href="#m846d98e112" x="140.307692" y="70.920287" style="stroke: #000000; stroke-width: 0.6"/>
      </g>
     </g>
    </g>
    <g id="xtick_14">
     <g id="line2d_14">
      <g>
       <use xlink:href="#m846d98e112" x="158.769231" y="70.920287" style="stroke: #000000; stroke-width: 0.6"/>
      </g>
     </g>
    </g>
    <g id="xtick_15">
     <g id="line2d_15">
      <g>
       <use xlink:href="#m846d98e112" x="177.230769" y="70.920287" style="stroke: #000000; stroke-width: 0.6"/>
      </g>
     </g>
    </g>
    <g id="xtick_16">
     <g id="line2d_16">
      <g>
       <use xlink:href="#m846d98e112" x="214.153846" y="70.920287" style="stroke: #000000; stroke-width: 0.6"/>
      </g>
     </g>
    </g>
    <g id="xtick_17">
     <g id="line2d_17">
      <g>
       <use xlink:href="#m846d98e112" x="232.615385" y="70.920287" style="stroke: #000000; stroke-width: 0.6"/>
      </g>
     </g>
    </g>
    <g id="xtick_18">
     <g id="line2d_18">
      <g>
       <use xlink:href="#m846d98e112" x="251.076923" y="70.920287" style="stroke: #000000; stroke-width: 0.6"/>
      </g>
     </g>
    </g>
    <g id="xtick_19">
     <g id="line2d_19">
      <g>
       <use xlink:href="#m846d98e112" x="269.538462" y="70.920287" style="stroke: #000000; stroke-width: 0.6"/>
      </g>
     </g>
    </g>
    <g id="xtick_20">
     <g id="line2d_20">
      <g>
       <use xlink:href="#m846d98e112" x="306.461538" y="70.920287" style="stroke: #000000; stroke-width: 0.6"/>
      </g>
     </g>
    </g>
    <g id="xtick_21">
     <g id="line2d_21">
      <g>
       <use xlink:href="#m846d98e112" x="324.923077" y="70.920287" style="stroke: #000000; stroke-width: 0.6"/>
      </g>
     </g>
    </g>
    <g id="xtick_22">
     <g id="line2d_22">
      <g>
       <use xlink:href="#m846d98e112" x="343.384615" y="70.920287" style="stroke: #000000; stroke-width: 0.6"/>
      </g>
     </g>
    </g>
    <g id="xtick_23">
     <g id="line2d_23">
      <g>
       <use xlink:href="#m846d98e112" x="361.846154" y="70.920287" style="stroke: #000000; stroke-width: 0.6"/>
      </g>
     </g>
    </g>
    <g id="xtick_24">
     <g id="line2d_24">
      <g>
       <use xlink:href="#m846d98e112" x="398.769231" y="70.920287" style="stroke: #000000; stroke-width: 0.6"/>
      </g>
     </g>
    </g>
    <g id="xtick_25">
     <g id="line2d_25">
      <g>
       <use xlink:href="#m846d98e112" x="417.230769" y="70.920287" style="stroke: #000000; stroke-width: 0.6"/>
      </g>
     </g>
    </g>
    <g id="xtick_26">
     <g id="line2d_26">
      <g>
       <use xlink:href="#m846d98e112" x="435.692308" y="70.920287" style="stroke: #000000; stroke-width: 0.6"/>
      </g>
     </g>
    </g>
    <g id="xtick_27">
     <g id="line2d_27">
      <g>
       <use xlink:href="#m846d98e112" x="454.153846" y="70.920287" style="stroke: #000000; stroke-width: 0.6"/>
      </g>
     </g>
    </g>
    <g id="xtick_28">
     <g id="line2d_28">
      <g>
       <use xlink:href="#m846d98e112" x="491.076923" y="70.920287" style="stroke: #000000; stroke-width: 0.6"/>
      </g>
     </g>
    </g>
    <g id="xtick_29">
     <g id="line2d_29">
      <g>
       <use xlink:href="#m846d98e112" x="509.538462" y="70.920287" style="stroke: #000000; stroke-width: 0.6"/>
      </g>
     </g>
    </g>
    <g id="xtick_30">
     <g id="line2d_30">
      <g>
       <use xlink:href="#m846d98e112" x="528" y="70.920287" style="stroke: #000000; stroke-width: 0.6"/>
      </g>
     </g>
    </g>
    <g id="xtick_31">
     <g id="line2d_31">
      <g>
       <use xlink:href="#m846d98e112" x="546.461538" y="70.920287" style="stroke: #000000; stroke-width: 0.6"/>
      </g>
     </g>
    </g>
   </g>
   <g id="matplotlib.axis_2">
    <g id="ytick_1">
     <g id="line2d_32">
      <defs>
       <path id="m5ee74f361e" d="M 0 0 
L -3.5 0 
" style="stroke: #000000; stroke-width: 0.8"/>
      </defs>
      <g>
       <use xlink:href="#m5ee74f361e" x="288" y="137.461095" style="stroke: #000000; stroke-width: 0.8"/>
      </g>
     </g>
     <g id="text_7">
      <!-- −1.0 -->
      <g transform="translate(256.717187 141.260313) scale(0.1 -0.1)">
       <defs>
        <path id="DejaVuSans-2e" d="M 684 794 
L 1344 794 
L 1344 0 
L 684 0 
L 684 794 
z
" transform="scale(0.015625)"/>
        <path id="DejaVuSans-30" d="M 2034 4250 
Q 1547 4250 1301 3770 
Q 1056 3291 1056 2328 
Q 1056 1369 1301 889 
Q 1547 409 2034 409 
Q 2525 409 2770 889 
Q 3016 1369 3016 2328 
Q 3016 3291 2770 3770 
Q 2525 4250 2034 4250 
z
M 2034 4750 
Q 2819 4750 3233 4129 
Q 3647 3509 3647 2328 
Q 3647 1150 3233 529 
Q 2819 -91 2034 -91 
Q 1250 -91 836 529 
Q 422 1150 422 2328 
Q 422 3509 836 4129 
Q 1250 4750 2034 4750 
z
" transform="scale(0.015625)"/>
       </defs>
       <use xlink:href="#DejaVuSans-2212"/>
       <use xlink:href="#DejaVuSans-31" x="83.789062"/>
       <use xlink:href="#DejaVuSans-2e" x="147.412109"/>
       <use xlink:href="#DejaVuSans-30" x="179.199219"/>
      </g>
     </g>
    </g>
    <g id="ytick_2">
     <g id="line2d_33">
      <g>
       <use xlink:href="#m5ee74f361e" x="288" y="104.190691" style="stroke: #000000; stroke-width: 0.8"/>
      </g>
     </g>
     <g id="text_8">
      <!-- −0.5 -->
      <g transform="translate(256.717187 107.98991) scale(0.1 -0.1)">
       <defs>
        <path id="DejaVuSans-35" d="M 691 4666 
L 3169 4666 
L 3169 4134 
L 1269 4134 
L 1269 2991 
Q 1406 3038 1543 3061 
Q 1681 3084 1819 3084 
Q 2600 3084 3056 2656 
Q 3513 2228 3513 1497 
Q 3513 744 3044 326 
Q 2575 -91 1722 -91 
Q 1428 -91 1123 -41 
Q 819 9 494 109 
L 494 744 
Q 775 591 1075 516 
Q 1375 441 1709 441 
Q 2250 441 2565 725 
Q 2881 1009 2881 1497 
Q 2881 1984 2565 2268 
Q 2250 2553 1709 2553 
Q 1456 2553 1204 2497 
Q 953 2441 691 2322 
L 691 4666 
z
" transform="scale(0.015625)"/>
       </defs>
       <use xlink:href="#DejaVuSans-2212"/>
       <use xlink:href="#DejaVuSans-30" x="83.789062"/>
       <use xlink:href="#DejaVuSans-2e" x="147.412109"/>
       <use xlink:href="#DejaVuSans-35" x="179.199219"/>
      </g>
     </g>
    </g>
    <g id="ytick_3">
     <g id="line2d_34">
      <g>
       <use xlink:href="#m5ee74f361e" x="288" y="70.920287" style="stroke: #000000; stroke-width: 0.8"/>
      </g>
     </g>
    </g>
    <g id="ytick_4">
     <g id="line2d_35">
      <g>
       <use xlink:href="#m5ee74f361e" x="288" y="37.649883" style="stroke: #000000; stroke-width: 0.8"/>
      </g>
     </g>
     <g id="text_9">
      <!-- 0.5 -->
      <g transform="translate(265.096875 41.449102) scale(0.1 -0.1)">
       <use xlink:href="#DejaVuSans-30"/>
       <use xlink:href="#DejaVuSans-2e" x="63.623047"/>
       <use xlink:href="#DejaVuSans-35" x="95.410156"/>
      </g>
     </g>
    </g>
    <g id="ytick_5">
     <g id="line2d_36">
      <g>
       <use xlink:href="#m5ee74f361e" x="288" y="4.37948" style="stroke: #000000; stroke-width: 0.8"/>
      </g>
     </g>
     <g id="text_10">
      <!-- 1.0 -->
      <g transform="translate(265.096875 8.178699) scale(0.1 -0.1)">
       <use xlink:href="#DejaVuSans-31"/>
       <use xlink:href="#DejaVuSans-2e" x="63.623047"/>
       <use xlink:href="#DejaVuSans-30" x="95.410156"/>
      </g>
     </g>
    </g>
    <g id="ytick_6">
     <g id="line2d_37">
      <defs>
       <path id="me5b799ed48" d="M 0 0 
L -2 0 
" style="stroke: #000000; stroke-width: 0.6"/>
      </defs>
      <g>
       <use xlink:href="#me5b799ed48" x="288" y="130.807014" style="stroke: #000000; stroke-width: 0.6"/>
      </g>
     </g>
    </g>
    <g id="ytick_7">
     <g id="line2d_38">
      <g>
       <use xlink:href="#me5b799ed48" x="288" y="124.152933" style="stroke: #000000; stroke-width: 0.6"/>
      </g>
     </g>
    </g>
    <g id="ytick_8">
     <g id="line2d_39">
      <g>
       <use xlink:href="#me5b799ed48" x="288" y="117.498852" style="stroke: #000000; stroke-width: 0.6"/>
      </g>
     </g>
    </g>
    <g id="ytick_9">
     <g id="line2d_40">
      <g>
       <use xlink:href="#me5b799ed48" x="288" y="110.844772" style="stroke: #000000; stroke-width: 0.6"/>
      </g>
     </g>
    </g>
    <g id="ytick_10">
     <g id="line2d_41">
      <g>
       <use xlink:href="#me5b799ed48" x="288" y="97.53661" style="stroke: #000000; stroke-width: 0.6"/>
      </g>
     </g>
    </g>
    <g id="ytick_11">
     <g id="line2d_42">
      <g>
       <use xlink:href="#me5b799ed48" x="288" y="90.882529" style="stroke: #000000; stroke-width: 0.6"/>
      </g>
     </g>
    </g>
    <g id="ytick_12">
     <g id="line2d_43">
      <g>
       <use xlink:href="#me5b799ed48" x="288" y="84.228449" style="stroke: #000000; stroke-width: 0.6"/>
      </g>
     </g>
    </g>
    <g id="ytick_13">
     <g id="line2d_44">
      <g>
       <use xlink:href="#me5b799ed48" x="288" y="77.574368" style="stroke: #000000; stroke-width: 0.6"/>
      </g>
     </g>
    </g>
    <g id="ytick_14">
     <g id="line2d_45">
      <g>
       <use xlink:href="#me5b799ed48" x="288" y="64.266206" style="stroke: #000000; stroke-width: 0.6"/>
      </g>
     </g>
    </g>
    <g id="ytick_15">
     <g id="line2d_46">
      <g>
       <use xlink:href="#me5b799ed48" x="288" y="57.612126" style="stroke: #000000; stroke-width: 0.6"/>
      </g>
     </g>
    </g>
    <g id="ytick_16">
     <g id="line2d_47">
      <g>
       <use xlink:href="#me5b799ed48" x="288" y="50.958045" style="stroke: #000000; stroke-width: 0.6"/>
      </g>
     </g>
    </g>
    <g id="ytick_17">
     <g id="line2d_48">
      <g>
       <use xlink:href="#me5b799ed48" x="288" y="44.303964" style="stroke: #000000; stroke-width: 0.6"/>
      </g>
     </g>
    </g>
    <g id="ytick_18">
     <g id="line2d_49">
      <g>
       <use xlink:href="#me5b799ed48" x="288" y="30.995803" style="stroke: #000000; stroke-width: 0.6"/>
      </g>
     </g>
    </g>
    <g id="ytick_19">
     <g id="line2d_50">
      <g>
       <use xlink:href="#me5b799ed48" x="288" y="24.341722" style="stroke: #000000; stroke-width: 0.6"/>
      </g>
     </g>
    </g>
    <g id="ytick_20">
     <g id="line2d_51">
      <g>
       <use xlink:href="#me5b799ed48" x="288" y="17.687641" style="stroke: #000000; stroke-width: 0.6"/>
      </g>
     </g>
    </g>
    <g id="ytick_21">
     <g id="line2d_52">
      <g>
       <use xlink:href="#me5b799ed48" x="288" y="11.033561" style="stroke: #000000; stroke-width: 0.6"/>
      </g>
     </g>
    </g>
   </g>
   <g id="line2d_53">
    <path d="M 11.076923 43.49759 
L 13.664101 33.780289 
L 15.753242 26.736366 
L 17.58107 21.256592 
L 19.147586 17.117037 
L 21.159099 12.608591 
L 22.387355 10.322482 
L 23.4886 8.582798 
L 24.589845 7.141028 
L 25.670015 6.019207 
L 26.750185 5.188399 
L 27.922884 4.61598 
L 29.095582 4.385024 
L 30.268281 4.492123 
L 31.440979 4.932162 
L 32.201031 5.392071 
L 33.721134 6.71407 
L 35.096024 8.357174 
L 36.734271 10.844113 
L 38.372517 13.873519 
L 40.341132 18.176509 
L 42.402183 23.38029 
L 44.687336 29.875547 
L 47.328255 38.163457 
L 50.198886 47.884237 
L 55.86777 68.202062 
L 61.531788 88.282824 
L 65.072851 99.908008 
L 67.706248 107.815303 
L 70.161132 114.493214 
L 72.194544 119.455143 
L 73.805246 122.99087 
L 75.64017 126.571545 
L 77.212879 129.247986 
L 78.554244 131.237417 
L 79.89561 132.952807 
L 81.236975 134.391835 
L 82.463 135.464556 
L 84.065931 136.518097 
L 85.113519 136.994154 
L 86.62061 137.387509 
L 88.127701 137.442031 
L 89.539207 137.192242 
L 90.950713 136.658822 
L 92.752055 135.579488 
L 94.553398 134.07166 
L 96.700805 131.745219 
L 98.164021 129.850293 
L 100.406218 126.495754 
L 102.743161 122.469934 
L 104.757258 118.614193 
L 107.876562 112.038749 
L 110.404183 106.266352 
L 114.625764 95.979414 
L 122.043996 76.947008 
L 127.262256 63.656694 
L 132.459679 51.109993 
L 136.321047 42.486234 
L 139.464121 36.011839 
L 142.322233 30.60019 
L 144.107682 27.464498 
L 147.150433 22.573923 
L 148.999436 19.888283 
L 151.97982 16.022801 
L 154.287907 13.424291 
L 156.595995 11.169156 
L 158.228814 9.779017 
L 160.431253 8.168976 
L 162.633693 6.856919 
L 164.626858 5.919295 
L 166.782859 5.1635 
L 169.015373 4.653142 
L 171.452966 4.39761 
L 173.910992 4.441528 
L 176.064922 4.714068 
L 178.2633 5.203267 
L 180.702085 5.978006 
L 183.00228 6.915026 
L 186.715725 8.80691 
L 189.64478 10.58973 
L 193.694943 13.409487 
L 198.405254 17.103077 
L 202.268625 20.380613 
L 208.448028 25.919052 
L 223.87516 40.040466 
L 230.258229 45.542558 
L 235.056574 49.423434 
L 239.563956 52.829877 
L 243.607567 55.667423 
L 248.027841 58.515785 
L 251.873976 60.76825 
L 255.398728 62.641731 
L 259.216109 64.460374 
L 262.771681 65.954536 
L 266.735556 67.39076 
L 270.345738 68.486881 
L 275.448007 69.689982 
L 280.43849 70.473782 
L 284.99797 70.849908 
L 288.109642 70.920193 
L 293.192868 70.709703 
L 297.008938 70.286486 
L 300.902961 69.620227 
L 303.23101 69.10888 
L 308.318048 67.697688 
L 311.707681 66.534218 
L 316.465218 64.602186 
L 321.553243 62.153975 
L 326.65869 59.309076 
L 330.193833 57.11817 
L 335.335038 53.623674 
L 340.365484 49.873786 
L 346.572963 44.846271 
L 353.583972 38.738977 
L 360.42434 32.496808 
L 372.232845 21.69679 
L 379.112746 15.871344 
L 382.950069 12.93591 
L 386.753865 10.333447 
L 389.390274 8.746933 
L 392.018676 7.370384 
L 394.343478 6.343506 
L 396.547242 5.551788 
L 398.751005 4.951968 
L 401.333154 4.513011 
L 404.10948 4.383801 
L 405.630989 4.473392 
L 408.510511 4.97256 
L 410.917696 5.737574 
L 413.171065 6.754711 
L 415.424434 8.073967 
L 417.554069 9.60685 
L 419.717782 11.455692 
L 422.433762 14.199744 
L 425.020776 17.256477 
L 427.403494 20.454865 
L 429.324431 23.29885 
L 431.577826 26.93229 
L 434.334073 31.80088 
L 436.952102 36.838705 
L 439.710401 42.553615 
L 442.764091 49.322435 
L 446.480984 58.097096 
L 450.07968 67.027408 
L 463.750644 101.853317 
L 467.559856 110.782615 
L 471.015098 118.157884 
L 473.674202 123.225846 
L 475.226778 125.897769 
L 477.541571 129.44017 
L 479.434917 131.908577 
L 481.328262 133.958124 
L 483.321106 135.631815 
L 484.317528 136.273366 
L 486.117663 137.088364 
L 486.921377 137.3053 
L 487.945652 137.447119 
L 489.507954 137.367263 
L 490.584006 137.100572 
L 491.660059 136.658773 
L 492.736111 136.040273 
L 494.263027 134.857295 
L 495.778161 133.32828 
L 497.356893 131.359566 
L 498.716758 129.359101 
L 500.653042 126.032112 
L 502.382303 122.597746 
L 504.111565 118.74301 
L 506.307725 113.273861 
L 509.116194 105.423205 
L 511.355721 98.55636 
L 515.144401 85.959725 
L 519.221433 71.496989 
L 526.722592 44.699175 
L 529.529271 35.39236 
L 531.682409 28.778005 
L 534.481265 21.067803 
L 536.457818 16.347071 
L 538.434371 12.315988 
L 540.170395 9.401405 
L 541.615064 7.455428 
L 543.281658 5.782381 
L 544.531603 4.946382 
L 545.403616 4.581955 
L 546.314346 4.39694 
L 547.225076 4.41442 
L 548.135806 4.63649 
L 549.091485 5.091098 
L 550.092113 5.811238 
L 551.192 6.89106 
L 552.391147 8.410804 
L 553.518337 10.161939 
L 555.101184 13.139129 
L 556.684032 16.704184 
L 558.035227 20.193605 
L 559.996943 25.948126 
L 562.082079 32.883317 
L 564.923077 43.49759 
L 564.923077 43.49759 
" clip-path="url(#p1a8662ca6e)" style="fill: none; stroke: #0000ff; stroke-linecap: square"/>
   </g>
   <g id="patch_3">
    <path d="M 288 140.118239 
L 288 1.718693 
" style="fill: none; stroke: #000000; stroke-width: 0.8; stroke-linejoin: miter; stroke-linecap: square"/>
   </g>
   <g id="patch_4">
    <path d="M 0 70.920287 
L 576 70.920287 
" style="fill: none; stroke: #000000; stroke-width: 0.8; stroke-linejoin: miter; stroke-linecap: square"/>
   </g>
  </g>
 </g>
 <defs>
  <clipPath id="p1a8662ca6e">
   <rect x="0" y="1.718693" width="576" height="138.399546"/>
  </clipPath>
 </defs>
</svg>
