<?xml version="1.0" encoding="utf-8" standalone="no"?>
<!DOCTYPE svg PUBLIC "-//W3C//DTD SVG 1.1//EN"
  "http://www.w3.org/Graphics/SVG/1.1/DTD/svg11.dtd">
<svg xmlns:xlink="http://www.w3.org/1999/xlink" width="460.8pt" height="345.6pt" viewBox="0 0 460.8 345.6" xmlns="http://www.w3.org/2000/svg" version="1.1">
 <metadata>
  <rdf:RDF xmlns:dc="http://purl.org/dc/elements/1.1/" xmlns:cc="http://creativecommons.org/ns#" xmlns:rdf="http://www.w3.org/1999/02/22-rdf-syntax-ns#">
   <cc:Work>
    <dc:type rdf:resource="http://purl.org/dc/dcmitype/StillImage"/>
    <dc:date>2022-01-31T17:28:09.966719</dc:date>
    <dc:format>image/svg+xml</dc:format>
    <dc:creator>
     <cc:Agent>
      <dc:title>Matplotlib v3.5.1, https://matplotlib.org/</dc:title>
     </cc:Agent>
    </dc:creator>
   </cc:Work>
  </rdf:RDF>
 </metadata>
 <defs>
  <style type="text/css">*{stroke-linejoin: round; stroke-linecap: butt}</style>
 </defs>
 <g id="figure_1">
  <g id="patch_1">
   <path d="M 0 345.6 
L 460.8 345.6 
L 460.8 0 
L 0 0 
z
" style="fill: #ffffff"/>
  </g>
  <g id="axes_1">
   <g id="patch_2">
    <path d="M 31.76 345.6 
L 460.8 345.6 
L 460.8 0 
L 31.76 0 
z
" style="fill: #ffffff"/>
   </g>
   <g id="matplotlib.axis_1">
    <g id="xtick_1">
     <g id="line2d_1">
      <defs>
       <path id="m6f954b279d" d="M 0 0 
L 0 3.5 
" style="stroke: #000000; stroke-width: 0.8"/>
      </defs>
      <g>
       <use xlink:href="#m6f954b279d" x="103.478225" y="202.181751" style="stroke: #000000; stroke-width: 0.8"/>
      </g>
     </g>
     <g id="text_1">
      <!-- 5 -->
      <g transform="translate(100.296975 216.780188)scale(0.1 -0.1)">
       <defs>
        <path id="DejaVuSans-35" d="M 691 4666 
L 3169 4666 
L 3169 4134 
L 1269 4134 
L 1269 2991 
Q 1406 3038 1543 3061 
Q 1681 3084 1819 3084 
Q 2600 3084 3056 2656 
Q 3513 2228 3513 1497 
Q 3513 744 3044 326 
Q 2575 -91 1722 -91 
Q 1428 -91 1123 -41 
Q 819 9 494 109 
L 494 744 
Q 775 591 1075 516 
Q 1375 441 1709 441 
Q 2250 441 2565 725 
Q 2881 1009 2881 1497 
Q 2881 1984 2565 2268 
Q 2250 2553 1709 2553 
Q 1456 2553 1204 2497 
Q 953 2441 691 2322 
L 691 4666 
z
" transform="scale(0.015625)"/>
       </defs>
       <use xlink:href="#DejaVuSans-35"/>
      </g>
     </g>
    </g>
    <g id="xtick_2">
     <g id="line2d_2">
      <g>
       <use xlink:href="#m6f954b279d" x="182.812544" y="202.181751" style="stroke: #000000; stroke-width: 0.8"/>
      </g>
     </g>
     <g id="text_2">
      <!-- 10 -->
      <g transform="translate(176.450044 216.780188)scale(0.1 -0.1)">
       <defs>
        <path id="DejaVuSans-31" d="M 794 531 
L 1825 531 
L 1825 4091 
L 703 3866 
L 703 4441 
L 1819 4666 
L 2450 4666 
L 2450 531 
L 3481 531 
L 3481 0 
L 794 0 
L 794 531 
z
" transform="scale(0.015625)"/>
        <path id="DejaVuSans-30" d="M 2034 4250 
Q 1547 4250 1301 3770 
Q 1056 3291 1056 2328 
Q 1056 1369 1301 889 
Q 1547 409 2034 409 
Q 2525 409 2770 889 
Q 3016 1369 3016 2328 
Q 3016 3291 2770 3770 
Q 2525 4250 2034 4250 
z
M 2034 4750 
Q 2819 4750 3233 4129 
Q 3647 3509 3647 2328 
Q 3647 1150 3233 529 
Q 2819 -91 2034 -91 
Q 1250 -91 836 529 
Q 422 1150 422 2328 
Q 422 3509 836 4129 
Q 1250 4750 2034 4750 
z
" transform="scale(0.015625)"/>
       </defs>
       <use xlink:href="#DejaVuSans-31"/>
       <use xlink:href="#DejaVuSans-30" x="63.623047"/>
      </g>
     </g>
    </g>
    <g id="xtick_3">
     <g id="line2d_3">
      <g>
       <use xlink:href="#m6f954b279d" x="262.146864" y="202.181751" style="stroke: #000000; stroke-width: 0.8"/>
      </g>
     </g>
     <g id="text_3">
      <!-- 15 -->
      <g transform="translate(255.784364 216.780188)scale(0.1 -0.1)">
       <use xlink:href="#DejaVuSans-31"/>
       <use xlink:href="#DejaVuSans-35" x="63.623047"/>
      </g>
     </g>
    </g>
    <g id="xtick_4">
     <g id="line2d_4">
      <g>
       <use xlink:href="#m6f954b279d" x="341.481183" y="202.181751" style="stroke: #000000; stroke-width: 0.8"/>
      </g>
     </g>
     <g id="text_4">
      <!-- 20 -->
      <g transform="translate(335.118683 216.780188)scale(0.1 -0.1)">
       <defs>
        <path id="DejaVuSans-32" d="M 1228 531 
L 3431 531 
L 3431 0 
L 469 0 
L 469 531 
Q 828 903 1448 1529 
Q 2069 2156 2228 2338 
Q 2531 2678 2651 2914 
Q 2772 3150 2772 3378 
Q 2772 3750 2511 3984 
Q 2250 4219 1831 4219 
Q 1534 4219 1204 4116 
Q 875 4013 500 3803 
L 500 4441 
Q 881 4594 1212 4672 
Q 1544 4750 1819 4750 
Q 2544 4750 2975 4387 
Q 3406 4025 3406 3419 
Q 3406 3131 3298 2873 
Q 3191 2616 2906 2266 
Q 2828 2175 2409 1742 
Q 1991 1309 1228 531 
z
" transform="scale(0.015625)"/>
       </defs>
       <use xlink:href="#DejaVuSans-32"/>
       <use xlink:href="#DejaVuSans-30" x="63.623047"/>
      </g>
     </g>
    </g>
    <g id="xtick_5">
     <g id="line2d_5">
      <g>
       <use xlink:href="#m6f954b279d" x="420.815503" y="202.181751" style="stroke: #000000; stroke-width: 0.8"/>
      </g>
     </g>
     <g id="text_5">
      <!-- 25 -->
      <g transform="translate(414.453003 216.780188)scale(0.1 -0.1)">
       <use xlink:href="#DejaVuSans-32"/>
       <use xlink:href="#DejaVuSans-35" x="63.623047"/>
      </g>
     </g>
    </g>
    <g id="xtick_6">
     <g id="line2d_6">
      <defs>
       <path id="mda507cf5ed" d="M 0 0 
L 0 2 
" style="stroke: #000000; stroke-width: 0.6"/>
      </defs>
      <g>
       <use xlink:href="#mda507cf5ed" x="40.010769" y="202.181751" style="stroke: #000000; stroke-width: 0.6"/>
      </g>
     </g>
    </g>
    <g id="xtick_7">
     <g id="line2d_7">
      <g>
       <use xlink:href="#mda507cf5ed" x="55.877633" y="202.181751" style="stroke: #000000; stroke-width: 0.6"/>
      </g>
     </g>
    </g>
    <g id="xtick_8">
     <g id="line2d_8">
      <g>
       <use xlink:href="#mda507cf5ed" x="71.744497" y="202.181751" style="stroke: #000000; stroke-width: 0.6"/>
      </g>
     </g>
    </g>
    <g id="xtick_9">
     <g id="line2d_9">
      <g>
       <use xlink:href="#mda507cf5ed" x="87.611361" y="202.181751" style="stroke: #000000; stroke-width: 0.6"/>
      </g>
     </g>
    </g>
    <g id="xtick_10">
     <g id="line2d_10">
      <g>
       <use xlink:href="#mda507cf5ed" x="119.345089" y="202.181751" style="stroke: #000000; stroke-width: 0.6"/>
      </g>
     </g>
    </g>
    <g id="xtick_11">
     <g id="line2d_11">
      <g>
       <use xlink:href="#mda507cf5ed" x="135.211953" y="202.181751" style="stroke: #000000; stroke-width: 0.6"/>
      </g>
     </g>
    </g>
    <g id="xtick_12">
     <g id="line2d_12">
      <g>
       <use xlink:href="#mda507cf5ed" x="151.078817" y="202.181751" style="stroke: #000000; stroke-width: 0.6"/>
      </g>
     </g>
    </g>
    <g id="xtick_13">
     <g id="line2d_13">
      <g>
       <use xlink:href="#mda507cf5ed" x="166.94568" y="202.181751" style="stroke: #000000; stroke-width: 0.6"/>
      </g>
     </g>
    </g>
    <g id="xtick_14">
     <g id="line2d_14">
      <g>
       <use xlink:href="#mda507cf5ed" x="198.679408" y="202.181751" style="stroke: #000000; stroke-width: 0.6"/>
      </g>
     </g>
    </g>
    <g id="xtick_15">
     <g id="line2d_15">
      <g>
       <use xlink:href="#mda507cf5ed" x="214.546272" y="202.181751" style="stroke: #000000; stroke-width: 0.6"/>
      </g>
     </g>
    </g>
    <g id="xtick_16">
     <g id="line2d_16">
      <g>
       <use xlink:href="#mda507cf5ed" x="230.413136" y="202.181751" style="stroke: #000000; stroke-width: 0.6"/>
      </g>
     </g>
    </g>
    <g id="xtick_17">
     <g id="line2d_17">
      <g>
       <use xlink:href="#mda507cf5ed" x="246.28" y="202.181751" style="stroke: #000000; stroke-width: 0.6"/>
      </g>
     </g>
    </g>
    <g id="xtick_18">
     <g id="line2d_18">
      <g>
       <use xlink:href="#mda507cf5ed" x="278.013728" y="202.181751" style="stroke: #000000; stroke-width: 0.6"/>
      </g>
     </g>
    </g>
    <g id="xtick_19">
     <g id="line2d_19">
      <g>
       <use xlink:href="#mda507cf5ed" x="293.880592" y="202.181751" style="stroke: #000000; stroke-width: 0.6"/>
      </g>
     </g>
    </g>
    <g id="xtick_20">
     <g id="line2d_20">
      <g>
       <use xlink:href="#mda507cf5ed" x="309.747456" y="202.181751" style="stroke: #000000; stroke-width: 0.6"/>
      </g>
     </g>
    </g>
    <g id="xtick_21">
     <g id="line2d_21">
      <g>
       <use xlink:href="#mda507cf5ed" x="325.61432" y="202.181751" style="stroke: #000000; stroke-width: 0.6"/>
      </g>
     </g>
    </g>
    <g id="xtick_22">
     <g id="line2d_22">
      <g>
       <use xlink:href="#mda507cf5ed" x="357.348047" y="202.181751" style="stroke: #000000; stroke-width: 0.6"/>
      </g>
     </g>
    </g>
    <g id="xtick_23">
     <g id="line2d_23">
      <g>
       <use xlink:href="#mda507cf5ed" x="373.214911" y="202.181751" style="stroke: #000000; stroke-width: 0.6"/>
      </g>
     </g>
    </g>
    <g id="xtick_24">
     <g id="line2d_24">
      <g>
       <use xlink:href="#mda507cf5ed" x="389.081775" y="202.181751" style="stroke: #000000; stroke-width: 0.6"/>
      </g>
     </g>
    </g>
    <g id="xtick_25">
     <g id="line2d_25">
      <g>
       <use xlink:href="#mda507cf5ed" x="404.948639" y="202.181751" style="stroke: #000000; stroke-width: 0.6"/>
      </g>
     </g>
    </g>
    <g id="xtick_26">
     <g id="line2d_26">
      <g>
       <use xlink:href="#mda507cf5ed" x="436.682367" y="202.181751" style="stroke: #000000; stroke-width: 0.6"/>
      </g>
     </g>
    </g>
    <g id="xtick_27">
     <g id="line2d_27">
      <g>
       <use xlink:href="#mda507cf5ed" x="452.549231" y="202.181751" style="stroke: #000000; stroke-width: 0.6"/>
      </g>
     </g>
    </g>
   </g>
   <g id="matplotlib.axis_2">
    <g id="ytick_1">
     <g id="line2d_28">
      <defs>
       <path id="m28b3bc379a" d="M 0 0 
L -3.5 0 
" style="stroke: #000000; stroke-width: 0.8"/>
      </defs>
      <g>
       <use xlink:href="#m28b3bc379a" x="21.76" y="278.607131" style="stroke: #000000; stroke-width: 0.8"/>
      </g>
     </g>
     <g id="text_6">
      <!-- −1 -->
      <g transform="translate(0.017813 282.40635)scale(0.1 -0.1)">
       <defs>
        <path id="DejaVuSans-2212" d="M 678 2272 
L 4684 2272 
L 4684 1741 
L 678 1741 
L 678 2272 
z
" transform="scale(0.015625)"/>
       </defs>
       <use xlink:href="#DejaVuSans-2212"/>
       <use xlink:href="#DejaVuSans-31" x="83.789062"/>
      </g>
     </g>
    </g>
    <g id="ytick_2">
     <g id="line2d_29">
      <g>
       <use xlink:href="#m28b3bc379a" x="21.76" y="202.181751" style="stroke: #000000; stroke-width: 0.8"/>
      </g>
     </g>
     <g id="text_7">
      <!-- 0 -->
      <g transform="translate(8.3975 205.980969)scale(0.1 -0.1)">
       <use xlink:href="#DejaVuSans-30"/>
      </g>
     </g>
    </g>
    <g id="ytick_3">
     <g id="line2d_30">
      <g>
       <use xlink:href="#m28b3bc379a" x="21.76" y="125.756371" style="stroke: #000000; stroke-width: 0.8"/>
      </g>
     </g>
     <g id="text_8">
      <!-- 1 -->
      <g transform="translate(8.3975 129.555589)scale(0.1 -0.1)">
       <use xlink:href="#DejaVuSans-31"/>
      </g>
     </g>
    </g>
    <g id="ytick_4">
     <g id="line2d_31">
      <g>
       <use xlink:href="#m28b3bc379a" x="21.76" y="49.330991" style="stroke: #000000; stroke-width: 0.8"/>
      </g>
     </g>
     <g id="text_9">
      <!-- 2 -->
      <g transform="translate(8.3975 53.130209)scale(0.1 -0.1)">
       <use xlink:href="#DejaVuSans-32"/>
      </g>
     </g>
    </g>
    <g id="ytick_5">
     <g id="line2d_32">
      <defs>
       <path id="m1b4cb0a113" d="M 0 0 
L -2 0 
" style="stroke: #000000; stroke-width: 0.6"/>
      </defs>
      <g>
       <use xlink:href="#m1b4cb0a113" x="21.76" y="339.747435" style="stroke: #000000; stroke-width: 0.6"/>
      </g>
     </g>
    </g>
    <g id="ytick_6">
     <g id="line2d_33">
      <g>
       <use xlink:href="#m1b4cb0a113" x="21.76" y="324.462359" style="stroke: #000000; stroke-width: 0.6"/>
      </g>
     </g>
    </g>
    <g id="ytick_7">
     <g id="line2d_34">
      <g>
       <use xlink:href="#m1b4cb0a113" x="21.76" y="309.177283" style="stroke: #000000; stroke-width: 0.6"/>
      </g>
     </g>
    </g>
    <g id="ytick_8">
     <g id="line2d_35">
      <g>
       <use xlink:href="#m1b4cb0a113" x="21.76" y="293.892207" style="stroke: #000000; stroke-width: 0.6"/>
      </g>
     </g>
    </g>
    <g id="ytick_9">
     <g id="line2d_36">
      <g>
       <use xlink:href="#m1b4cb0a113" x="21.76" y="263.322055" style="stroke: #000000; stroke-width: 0.6"/>
      </g>
     </g>
    </g>
    <g id="ytick_10">
     <g id="line2d_37">
      <g>
       <use xlink:href="#m1b4cb0a113" x="21.76" y="248.036979" style="stroke: #000000; stroke-width: 0.6"/>
      </g>
     </g>
    </g>
    <g id="ytick_11">
     <g id="line2d_38">
      <g>
       <use xlink:href="#m1b4cb0a113" x="21.76" y="232.751903" style="stroke: #000000; stroke-width: 0.6"/>
      </g>
     </g>
    </g>
    <g id="ytick_12">
     <g id="line2d_39">
      <g>
       <use xlink:href="#m1b4cb0a113" x="21.76" y="217.466827" style="stroke: #000000; stroke-width: 0.6"/>
      </g>
     </g>
    </g>
    <g id="ytick_13">
     <g id="line2d_40">
      <g>
       <use xlink:href="#m1b4cb0a113" x="21.76" y="186.896675" style="stroke: #000000; stroke-width: 0.6"/>
      </g>
     </g>
    </g>
    <g id="ytick_14">
     <g id="line2d_41">
      <g>
       <use xlink:href="#m1b4cb0a113" x="21.76" y="171.611599" style="stroke: #000000; stroke-width: 0.6"/>
      </g>
     </g>
    </g>
    <g id="ytick_15">
     <g id="line2d_42">
      <g>
       <use xlink:href="#m1b4cb0a113" x="21.76" y="156.326523" style="stroke: #000000; stroke-width: 0.6"/>
      </g>
     </g>
    </g>
    <g id="ytick_16">
     <g id="line2d_43">
      <g>
       <use xlink:href="#m1b4cb0a113" x="21.76" y="141.041447" style="stroke: #000000; stroke-width: 0.6"/>
      </g>
     </g>
    </g>
    <g id="ytick_17">
     <g id="line2d_44">
      <g>
       <use xlink:href="#m1b4cb0a113" x="21.76" y="110.471295" style="stroke: #000000; stroke-width: 0.6"/>
      </g>
     </g>
    </g>
    <g id="ytick_18">
     <g id="line2d_45">
      <g>
       <use xlink:href="#m1b4cb0a113" x="21.76" y="95.186219" style="stroke: #000000; stroke-width: 0.6"/>
      </g>
     </g>
    </g>
    <g id="ytick_19">
     <g id="line2d_46">
      <g>
       <use xlink:href="#m1b4cb0a113" x="21.76" y="79.901143" style="stroke: #000000; stroke-width: 0.6"/>
      </g>
     </g>
    </g>
    <g id="ytick_20">
     <g id="line2d_47">
      <g>
       <use xlink:href="#m1b4cb0a113" x="21.76" y="64.616067" style="stroke: #000000; stroke-width: 0.6"/>
      </g>
     </g>
    </g>
    <g id="ytick_21">
     <g id="line2d_48">
      <g>
       <use xlink:href="#m1b4cb0a113" x="21.76" y="34.045915" style="stroke: #000000; stroke-width: 0.6"/>
      </g>
     </g>
    </g>
    <g id="ytick_22">
     <g id="line2d_49">
      <g>
       <use xlink:href="#m1b4cb0a113" x="21.76" y="18.760839" style="stroke: #000000; stroke-width: 0.6"/>
      </g>
     </g>
    </g>
    <g id="ytick_23">
     <g id="line2d_50">
      <g>
       <use xlink:href="#m1b4cb0a113" x="21.76" y="3.475763" style="stroke: #000000; stroke-width: 0.6"/>
      </g>
     </g>
    </g>
   </g>
   <g id="line2d_51">
    <path d="M 40.010769 307.193639 
L 41.625623 299.605871 
L 45.001142 285.331954 
L 47.639181 275.375199 
L 50.360199 265.99524 
L 54.057859 254.462621 
L 57.381842 245.116865 
L 58.259027 242.795159 
L 60.902445 236.135172 
L 64.569654 227.671836 
L 68.858484 218.809154 
L 72.224674 212.563638 
L 75.071996 207.731109 
L 77.15275 204.445801 
L 79.301268 201.261667 
L 82.699522 196.637111 
L 85.014225 193.762706 
L 87.919542 190.455811 
L 91.960018 186.386696 
L 95.288274 183.474157 
L 99.346254 180.430996 
L 101.995955 178.731511 
L 105.329286 176.902281 
L 109.85335 174.946184 
L 114.227619 173.603865 
L 116.476359 173.115044 
L 119.294781 172.688742 
L 123.414369 172.426619 
L 126.365014 172.493533 
L 128.459662 172.666143 
L 133.20906 173.430365 
L 135.831651 174.067651 
L 140.156621 175.441531 
L 143.708241 176.861275 
L 147.981843 178.906309 
L 149.161072 179.533746 
L 154.172476 182.496408 
L 158.081895 185.131951 
L 163.00848 188.844126 
L 166.329165 191.584959 
L 169.802258 194.651572 
L 174.302383 198.921276 
L 179.734787 204.507812 
L 184.263778 209.515505 
L 190.211983 216.56018 
L 194.93471 222.520146 
L 201.402171 231.19091 
L 204.916937 236.142939 
L 211.650596 246.087462 
L 217.539738 255.26326 
L 223.652345 265.244175 
L 231.487761 278.696377 
L 236.714331 288.068008 
L 242.607761 299.006436 
L 248.383789 310.09876 
L 248.452132 70.134758 
L 248.520475 70.268218 
L 254.086846 81.305312 
L 259.37119 92.08374 
L 265.910516 105.817241 
L 271.734689 118.407988 
L 280.175236 137.238639 
L 289.142993 157.979587 
L 296.874211 176.448465 
L 304.924833 196.241343 
L 312.875059 216.333236 
L 321.456331 238.611355 
L 330.456349 262.617403 
L 338.267308 283.968886 
L 348.756656 313.375853 
L 357.651623 338.953846 
L 357.740592 99.115181 
L 365.917156 123.137056 
L 375.064741 150.569674 
L 385.71966 183.245822 
L 395.812138 214.895009 
L 406.87992 250.360998 
L 418.408628 288.123515 
L 420.9237 296.470414 
L 421.033051 56.736783 
L 431.943866 93.395737 
L 442.152184 128.331516 
L 452.549231 164.530372 
L 452.549231 164.530372 
" clip-path="url(#p2e042f8794)" style="fill: none; stroke: #cc0000; stroke-linecap: square"/>
   </g>
   <g id="line2d_52">
    <path d="M 40.010769 145.909326 
L 41.313158 148.373323 
L 42.560751 150.426662 
L 43.808344 152.218106 
L 45.172052 153.915135 
L 47.687488 156.445079 
L 49.467729 157.845554 
L 51.445378 159.090591 
L 53.610294 160.138532 
L 55.616147 160.861479 
L 57.621999 161.380819 
L 61.002404 161.86787 
L 63.896719 161.959253 
L 66.179428 161.850887 
L 70.785051 161.21755 
L 75.423789 160.098436 
L 76.597385 159.747285 
L 81.783087 157.897936 
L 84.624716 156.692222 
L 89.674769 154.239748 
L 95.041004 151.227625 
L 100.423091 147.815145 
L 103.301026 145.838838 
L 108.82368 141.769207 
L 114.018242 137.63317 
L 117.764874 134.482508 
L 124.552834 128.467345 
L 132.597793 120.951168 
L 151.504066 102.994509 
L 157.950994 97.361583 
L 162.487458 93.748339 
L 166.423373 90.927186 
L 171.159721 88.011937 
L 173.562589 86.767515 
L 177.260492 85.206551 
L 180.260432 84.290634 
L 182.367241 83.853396 
L 184.773329 83.577848 
L 187.681893 83.585678 
L 190.737484 84.025229 
L 192.80891 84.590734 
L 195.131593 85.495964 
L 198.457044 87.316744 
L 200.308164 88.610203 
L 202.169279 90.120284 
L 204.654192 92.474225 
L 207.552079 95.722731 
L 211.191238 100.595815 
L 214.229378 105.360232 
L 215.860822 108.184994 
L 217.94066 112.058823 
L 220.404674 117.046003 
L 224.821124 127.065906 
L 228.295647 135.915505 
L 232.48888 147.700171 
L 234.740129 154.507881 
L 239.594706 170.263305 
L 242.828619 181.512774 
L 248.454237 202.042005 
L 253.193285 183.531 
L 262.310118 146.490344 
L 270.450657 113.496849 
L 275.434032 94.236399 
L 279.712262 78.733089 
L 284.058133 64.314731 
L 286.65749 56.472016 
L 288.567009 51.135203 
L 290.370239 46.453629 
L 292.121123 42.262815 
L 294.024744 38.126827 
L 295.919811 34.468387 
L 297.814879 31.291195 
L 300.302153 27.887966 
L 301.494792 26.577026 
L 302.687431 25.48045 
L 304.028046 24.509065 
L 305.368661 23.819617 
L 306.655706 23.427747 
L 308.363957 23.323167 
L 310.072208 23.699965 
L 311.970376 24.691224 
L 313.961253 26.385339 
L 315.304856 27.909646 
L 316.648458 29.741638 
L 318.161051 32.17187 
L 319.207319 34.080093 
L 321.162745 38.141274 
L 323.042789 42.647066 
L 325.177786 48.46513 
L 327.16456 54.532229 
L 329.991042 64.206967 
L 331.316037 69.14641 
L 334.948185 83.921367 
L 338.236309 98.717659 
L 341.52438 114.673721 
L 344.335999 129.07884 
L 350.343622 161.490046 
L 357.748911 201.901635 
L 362.128244 178.404522 
L 365.086877 163.298723 
L 369.008997 144.667572 
L 371.641741 133.284074 
L 374.777586 121.138977 
L 376.801693 114.21953 
L 379.436161 106.407843 
L 381.101007 102.217077 
L 382.859642 98.453869 
L 384.618277 95.401187 
L 385.834968 93.718874 
L 387.597198 91.922956 
L 389.2552 90.941412 
L 390.913203 90.660568 
L 392.099429 90.895677 
L 393.612784 91.728789 
L 395.126139 93.163187 
L 396.807869 95.464299 
L 397.869876 97.300387 
L 399.782538 101.350535 
L 401.6952 106.346045 
L 402.950595 110.130272 
L 404.784998 116.364127 
L 406.12437 121.430891 
L 407.589876 127.457502 
L 410.071922 138.765505 
L 412.592048 151.573203 
L 415.997313 170.782031 
L 418.599998 186.73869 
L 421.010897 202.028977 
L 423.466379 185.503235 
L 429.301867 144.669829 
L 435.411168 101.829991 
L 439.109844 77.117893 
L 442.76856 54.389091 
L 445.265753 40.180294 
L 447.58597 28.118013 
L 449.502836 19.083337 
L 451.026033 12.557117 
L 452.549231 6.646154 
L 452.549231 6.646154 
" clip-path="url(#p2e042f8794)" style="fill: none; stroke: #3300ff; stroke-linecap: square"/>
   </g>
   <g id="patch_3">
    <path d="M 21.76 345.6 
L 21.76 -0 
" style="fill: none; stroke: #000000; stroke-width: 0.8; stroke-linejoin: miter; stroke-linecap: square"/>
   </g>
   <g id="patch_4">
    <path d="M 31.76 202.181751 
L 460.8 202.181751 
" style="fill: none; stroke: #000000; stroke-width: 0.8; stroke-linejoin: miter; stroke-linecap: square"/>
   </g>
  </g>
 </g>
 <defs>
  <clipPath id="p2e042f8794">
   <rect x="31.76" y="0" width="429.04" height="345.6"/>
  </clipPath>
 </defs>
</svg>
