<?xml version="1.0" encoding="utf-8" standalone="no"?>
<!DOCTYPE svg PUBLIC "-//W3C//DTD SVG 1.1//EN"
  "http://www.w3.org/Graphics/SVG/1.1/DTD/svg11.dtd">
<svg xmlns:xlink="http://www.w3.org/1999/xlink" width="460.8pt" height="345.6pt" viewBox="0 0 460.8 345.6" xmlns="http://www.w3.org/2000/svg" version="1.1">
 <metadata>
  <rdf:RDF xmlns:dc="http://purl.org/dc/elements/1.1/" xmlns:cc="http://creativecommons.org/ns#" xmlns:rdf="http://www.w3.org/1999/02/22-rdf-syntax-ns#">
   <cc:Work>
    <dc:type rdf:resource="http://purl.org/dc/dcmitype/StillImage"/>
    <dc:date>2023-08-21T20:30:40.692905</dc:date>
    <dc:format>image/svg+xml</dc:format>
    <dc:creator>
     <cc:Agent>
      <dc:title>Matplotlib v3.6.2, https://matplotlib.org/</dc:title>
     </cc:Agent>
    </dc:creator>
   </cc:Work>
  </rdf:RDF>
 </metadata>
 <defs>
  <style type="text/css">*{stroke-linejoin: round; stroke-linecap: butt}</style>
 </defs>
 <g id="figure_1">
  <g id="patch_1">
   <path d="M 0 345.6 
L 460.8 345.6 
L 460.8 0 
L 0 0 
z
" style="fill: #ffffff"/>
  </g>
  <g id="axes_1">
   <g id="patch_2">
    <path d="M 31.76 345.6 
L 460.8 345.6 
L 460.8 0 
L 31.76 0 
z
" style="fill: #ffffff"/>
   </g>
   <g id="matplotlib.axis_1">
    <g id="xtick_1">
     <g id="line2d_1">
      <defs>
       <path id="m169d1014f9" d="M 0 0 
L 0 3.5 
" style="stroke: #000000; stroke-width: 0.8"/>
      </defs>
      <g>
       <use xlink:href="#m169d1014f9" x="103.478225" y="202.217628" style="stroke: #000000; stroke-width: 0.8"/>
      </g>
     </g>
     <g id="text_1">
      <!-- 5 -->
      <g transform="translate(100.296975 216.816065) scale(0.1 -0.1)">
       <defs>
        <path id="DejaVuSans-35" d="M 691 4666 
L 3169 4666 
L 3169 4134 
L 1269 4134 
L 1269 2991 
Q 1406 3038 1543 3061 
Q 1681 3084 1819 3084 
Q 2600 3084 3056 2656 
Q 3513 2228 3513 1497 
Q 3513 744 3044 326 
Q 2575 -91 1722 -91 
Q 1428 -91 1123 -41 
Q 819 9 494 109 
L 494 744 
Q 775 591 1075 516 
Q 1375 441 1709 441 
Q 2250 441 2565 725 
Q 2881 1009 2881 1497 
Q 2881 1984 2565 2268 
Q 2250 2553 1709 2553 
Q 1456 2553 1204 2497 
Q 953 2441 691 2322 
L 691 4666 
z
" transform="scale(0.015625)"/>
       </defs>
       <use xlink:href="#DejaVuSans-35"/>
      </g>
     </g>
    </g>
    <g id="xtick_2">
     <g id="line2d_2">
      <g>
       <use xlink:href="#m169d1014f9" x="182.812544" y="202.217628" style="stroke: #000000; stroke-width: 0.8"/>
      </g>
     </g>
     <g id="text_2">
      <!-- 10 -->
      <g transform="translate(176.450044 216.816065) scale(0.1 -0.1)">
       <defs>
        <path id="DejaVuSans-31" d="M 794 531 
L 1825 531 
L 1825 4091 
L 703 3866 
L 703 4441 
L 1819 4666 
L 2450 4666 
L 2450 531 
L 3481 531 
L 3481 0 
L 794 0 
L 794 531 
z
" transform="scale(0.015625)"/>
        <path id="DejaVuSans-30" d="M 2034 4250 
Q 1547 4250 1301 3770 
Q 1056 3291 1056 2328 
Q 1056 1369 1301 889 
Q 1547 409 2034 409 
Q 2525 409 2770 889 
Q 3016 1369 3016 2328 
Q 3016 3291 2770 3770 
Q 2525 4250 2034 4250 
z
M 2034 4750 
Q 2819 4750 3233 4129 
Q 3647 3509 3647 2328 
Q 3647 1150 3233 529 
Q 2819 -91 2034 -91 
Q 1250 -91 836 529 
Q 422 1150 422 2328 
Q 422 3509 836 4129 
Q 1250 4750 2034 4750 
z
" transform="scale(0.015625)"/>
       </defs>
       <use xlink:href="#DejaVuSans-31"/>
       <use xlink:href="#DejaVuSans-30" x="63.623047"/>
      </g>
     </g>
    </g>
    <g id="xtick_3">
     <g id="line2d_3">
      <g>
       <use xlink:href="#m169d1014f9" x="262.146864" y="202.217628" style="stroke: #000000; stroke-width: 0.8"/>
      </g>
     </g>
     <g id="text_3">
      <!-- 15 -->
      <g transform="translate(255.784364 216.816065) scale(0.1 -0.1)">
       <use xlink:href="#DejaVuSans-31"/>
       <use xlink:href="#DejaVuSans-35" x="63.623047"/>
      </g>
     </g>
    </g>
    <g id="xtick_4">
     <g id="line2d_4">
      <g>
       <use xlink:href="#m169d1014f9" x="341.481183" y="202.217628" style="stroke: #000000; stroke-width: 0.8"/>
      </g>
     </g>
     <g id="text_4">
      <!-- 20 -->
      <g transform="translate(335.118683 216.816065) scale(0.1 -0.1)">
       <defs>
        <path id="DejaVuSans-32" d="M 1228 531 
L 3431 531 
L 3431 0 
L 469 0 
L 469 531 
Q 828 903 1448 1529 
Q 2069 2156 2228 2338 
Q 2531 2678 2651 2914 
Q 2772 3150 2772 3378 
Q 2772 3750 2511 3984 
Q 2250 4219 1831 4219 
Q 1534 4219 1204 4116 
Q 875 4013 500 3803 
L 500 4441 
Q 881 4594 1212 4672 
Q 1544 4750 1819 4750 
Q 2544 4750 2975 4387 
Q 3406 4025 3406 3419 
Q 3406 3131 3298 2873 
Q 3191 2616 2906 2266 
Q 2828 2175 2409 1742 
Q 1991 1309 1228 531 
z
" transform="scale(0.015625)"/>
       </defs>
       <use xlink:href="#DejaVuSans-32"/>
       <use xlink:href="#DejaVuSans-30" x="63.623047"/>
      </g>
     </g>
    </g>
    <g id="xtick_5">
     <g id="line2d_5">
      <g>
       <use xlink:href="#m169d1014f9" x="420.815503" y="202.217628" style="stroke: #000000; stroke-width: 0.8"/>
      </g>
     </g>
     <g id="text_5">
      <!-- 25 -->
      <g transform="translate(414.453003 216.816065) scale(0.1 -0.1)">
       <use xlink:href="#DejaVuSans-32"/>
       <use xlink:href="#DejaVuSans-35" x="63.623047"/>
      </g>
     </g>
    </g>
    <g id="xtick_6">
     <g id="line2d_6">
      <defs>
       <path id="m01623eea1b" d="M 0 0 
L 0 2 
" style="stroke: #000000; stroke-width: 0.6"/>
      </defs>
      <g>
       <use xlink:href="#m01623eea1b" x="40.010769" y="202.217628" style="stroke: #000000; stroke-width: 0.6"/>
      </g>
     </g>
    </g>
    <g id="xtick_7">
     <g id="line2d_7">
      <g>
       <use xlink:href="#m01623eea1b" x="55.877633" y="202.217628" style="stroke: #000000; stroke-width: 0.6"/>
      </g>
     </g>
    </g>
    <g id="xtick_8">
     <g id="line2d_8">
      <g>
       <use xlink:href="#m01623eea1b" x="71.744497" y="202.217628" style="stroke: #000000; stroke-width: 0.6"/>
      </g>
     </g>
    </g>
    <g id="xtick_9">
     <g id="line2d_9">
      <g>
       <use xlink:href="#m01623eea1b" x="87.611361" y="202.217628" style="stroke: #000000; stroke-width: 0.6"/>
      </g>
     </g>
    </g>
    <g id="xtick_10">
     <g id="line2d_10">
      <g>
       <use xlink:href="#m01623eea1b" x="119.345089" y="202.217628" style="stroke: #000000; stroke-width: 0.6"/>
      </g>
     </g>
    </g>
    <g id="xtick_11">
     <g id="line2d_11">
      <g>
       <use xlink:href="#m01623eea1b" x="135.211953" y="202.217628" style="stroke: #000000; stroke-width: 0.6"/>
      </g>
     </g>
    </g>
    <g id="xtick_12">
     <g id="line2d_12">
      <g>
       <use xlink:href="#m01623eea1b" x="151.078817" y="202.217628" style="stroke: #000000; stroke-width: 0.6"/>
      </g>
     </g>
    </g>
    <g id="xtick_13">
     <g id="line2d_13">
      <g>
       <use xlink:href="#m01623eea1b" x="166.94568" y="202.217628" style="stroke: #000000; stroke-width: 0.6"/>
      </g>
     </g>
    </g>
    <g id="xtick_14">
     <g id="line2d_14">
      <g>
       <use xlink:href="#m01623eea1b" x="198.679408" y="202.217628" style="stroke: #000000; stroke-width: 0.6"/>
      </g>
     </g>
    </g>
    <g id="xtick_15">
     <g id="line2d_15">
      <g>
       <use xlink:href="#m01623eea1b" x="214.546272" y="202.217628" style="stroke: #000000; stroke-width: 0.6"/>
      </g>
     </g>
    </g>
    <g id="xtick_16">
     <g id="line2d_16">
      <g>
       <use xlink:href="#m01623eea1b" x="230.413136" y="202.217628" style="stroke: #000000; stroke-width: 0.6"/>
      </g>
     </g>
    </g>
    <g id="xtick_17">
     <g id="line2d_17">
      <g>
       <use xlink:href="#m01623eea1b" x="246.28" y="202.217628" style="stroke: #000000; stroke-width: 0.6"/>
      </g>
     </g>
    </g>
    <g id="xtick_18">
     <g id="line2d_18">
      <g>
       <use xlink:href="#m01623eea1b" x="278.013728" y="202.217628" style="stroke: #000000; stroke-width: 0.6"/>
      </g>
     </g>
    </g>
    <g id="xtick_19">
     <g id="line2d_19">
      <g>
       <use xlink:href="#m01623eea1b" x="293.880592" y="202.217628" style="stroke: #000000; stroke-width: 0.6"/>
      </g>
     </g>
    </g>
    <g id="xtick_20">
     <g id="line2d_20">
      <g>
       <use xlink:href="#m01623eea1b" x="309.747456" y="202.217628" style="stroke: #000000; stroke-width: 0.6"/>
      </g>
     </g>
    </g>
    <g id="xtick_21">
     <g id="line2d_21">
      <g>
       <use xlink:href="#m01623eea1b" x="325.61432" y="202.217628" style="stroke: #000000; stroke-width: 0.6"/>
      </g>
     </g>
    </g>
    <g id="xtick_22">
     <g id="line2d_22">
      <g>
       <use xlink:href="#m01623eea1b" x="357.348047" y="202.217628" style="stroke: #000000; stroke-width: 0.6"/>
      </g>
     </g>
    </g>
    <g id="xtick_23">
     <g id="line2d_23">
      <g>
       <use xlink:href="#m01623eea1b" x="373.214911" y="202.217628" style="stroke: #000000; stroke-width: 0.6"/>
      </g>
     </g>
    </g>
    <g id="xtick_24">
     <g id="line2d_24">
      <g>
       <use xlink:href="#m01623eea1b" x="389.081775" y="202.217628" style="stroke: #000000; stroke-width: 0.6"/>
      </g>
     </g>
    </g>
    <g id="xtick_25">
     <g id="line2d_25">
      <g>
       <use xlink:href="#m01623eea1b" x="404.948639" y="202.217628" style="stroke: #000000; stroke-width: 0.6"/>
      </g>
     </g>
    </g>
    <g id="xtick_26">
     <g id="line2d_26">
      <g>
       <use xlink:href="#m01623eea1b" x="436.682367" y="202.217628" style="stroke: #000000; stroke-width: 0.6"/>
      </g>
     </g>
    </g>
    <g id="xtick_27">
     <g id="line2d_27">
      <g>
       <use xlink:href="#m01623eea1b" x="452.549231" y="202.217628" style="stroke: #000000; stroke-width: 0.6"/>
      </g>
     </g>
    </g>
   </g>
   <g id="matplotlib.axis_2">
    <g id="ytick_1">
     <g id="line2d_28">
      <defs>
       <path id="mc9b0100fc9" d="M 0 0 
L -3.5 0 
" style="stroke: #000000; stroke-width: 0.8"/>
      </defs>
      <g>
       <use xlink:href="#mc9b0100fc9" x="21.76" y="278.657031" style="stroke: #000000; stroke-width: 0.8"/>
      </g>
     </g>
     <g id="text_6">
      <!-- −1 -->
      <g transform="translate(0.017813 282.456249) scale(0.1 -0.1)">
       <defs>
        <path id="DejaVuSans-2212" d="M 678 2272 
L 4684 2272 
L 4684 1741 
L 678 1741 
L 678 2272 
z
" transform="scale(0.015625)"/>
       </defs>
       <use xlink:href="#DejaVuSans-2212"/>
       <use xlink:href="#DejaVuSans-31" x="83.789062"/>
      </g>
     </g>
    </g>
    <g id="ytick_2">
     <g id="line2d_29">
      <g>
       <use xlink:href="#mc9b0100fc9" x="21.76" y="202.217628" style="stroke: #000000; stroke-width: 0.8"/>
      </g>
     </g>
     <g id="text_7">
      <!-- 0 -->
      <g transform="translate(8.3975 206.016847) scale(0.1 -0.1)">
       <use xlink:href="#DejaVuSans-30"/>
      </g>
     </g>
    </g>
    <g id="ytick_3">
     <g id="line2d_30">
      <g>
       <use xlink:href="#mc9b0100fc9" x="21.76" y="125.778225" style="stroke: #000000; stroke-width: 0.8"/>
      </g>
     </g>
     <g id="text_8">
      <!-- 1 -->
      <g transform="translate(8.3975 129.577444) scale(0.1 -0.1)">
       <use xlink:href="#DejaVuSans-31"/>
      </g>
     </g>
    </g>
    <g id="ytick_4">
     <g id="line2d_31">
      <g>
       <use xlink:href="#mc9b0100fc9" x="21.76" y="49.338822" style="stroke: #000000; stroke-width: 0.8"/>
      </g>
     </g>
     <g id="text_9">
      <!-- 2 -->
      <g transform="translate(8.3975 53.138041) scale(0.1 -0.1)">
       <use xlink:href="#DejaVuSans-32"/>
      </g>
     </g>
    </g>
    <g id="ytick_5">
     <g id="line2d_32">
      <defs>
       <path id="m5a0c954df8" d="M 0 0 
L -2 0 
" style="stroke: #000000; stroke-width: 0.6"/>
      </defs>
      <g>
       <use xlink:href="#m5a0c954df8" x="21.76" y="339.808553" style="stroke: #000000; stroke-width: 0.6"/>
      </g>
     </g>
    </g>
    <g id="ytick_6">
     <g id="line2d_33">
      <g>
       <use xlink:href="#m5a0c954df8" x="21.76" y="324.520672" style="stroke: #000000; stroke-width: 0.6"/>
      </g>
     </g>
    </g>
    <g id="ytick_7">
     <g id="line2d_34">
      <g>
       <use xlink:href="#m5a0c954df8" x="21.76" y="309.232792" style="stroke: #000000; stroke-width: 0.6"/>
      </g>
     </g>
    </g>
    <g id="ytick_8">
     <g id="line2d_35">
      <g>
       <use xlink:href="#m5a0c954df8" x="21.76" y="293.944911" style="stroke: #000000; stroke-width: 0.6"/>
      </g>
     </g>
    </g>
    <g id="ytick_9">
     <g id="line2d_36">
      <g>
       <use xlink:href="#m5a0c954df8" x="21.76" y="263.36915" style="stroke: #000000; stroke-width: 0.6"/>
      </g>
     </g>
    </g>
    <g id="ytick_10">
     <g id="line2d_37">
      <g>
       <use xlink:href="#m5a0c954df8" x="21.76" y="248.08127" style="stroke: #000000; stroke-width: 0.6"/>
      </g>
     </g>
    </g>
    <g id="ytick_11">
     <g id="line2d_38">
      <g>
       <use xlink:href="#m5a0c954df8" x="21.76" y="232.793389" style="stroke: #000000; stroke-width: 0.6"/>
      </g>
     </g>
    </g>
    <g id="ytick_12">
     <g id="line2d_39">
      <g>
       <use xlink:href="#m5a0c954df8" x="21.76" y="217.505509" style="stroke: #000000; stroke-width: 0.6"/>
      </g>
     </g>
    </g>
    <g id="ytick_13">
     <g id="line2d_40">
      <g>
       <use xlink:href="#m5a0c954df8" x="21.76" y="186.929747" style="stroke: #000000; stroke-width: 0.6"/>
      </g>
     </g>
    </g>
    <g id="ytick_14">
     <g id="line2d_41">
      <g>
       <use xlink:href="#m5a0c954df8" x="21.76" y="171.641867" style="stroke: #000000; stroke-width: 0.6"/>
      </g>
     </g>
    </g>
    <g id="ytick_15">
     <g id="line2d_42">
      <g>
       <use xlink:href="#m5a0c954df8" x="21.76" y="156.353986" style="stroke: #000000; stroke-width: 0.6"/>
      </g>
     </g>
    </g>
    <g id="ytick_16">
     <g id="line2d_43">
      <g>
       <use xlink:href="#m5a0c954df8" x="21.76" y="141.066106" style="stroke: #000000; stroke-width: 0.6"/>
      </g>
     </g>
    </g>
    <g id="ytick_17">
     <g id="line2d_44">
      <g>
       <use xlink:href="#m5a0c954df8" x="21.76" y="110.490345" style="stroke: #000000; stroke-width: 0.6"/>
      </g>
     </g>
    </g>
    <g id="ytick_18">
     <g id="line2d_45">
      <g>
       <use xlink:href="#m5a0c954df8" x="21.76" y="95.202464" style="stroke: #000000; stroke-width: 0.6"/>
      </g>
     </g>
    </g>
    <g id="ytick_19">
     <g id="line2d_46">
      <g>
       <use xlink:href="#m5a0c954df8" x="21.76" y="79.914584" style="stroke: #000000; stroke-width: 0.6"/>
      </g>
     </g>
    </g>
    <g id="ytick_20">
     <g id="line2d_47">
      <g>
       <use xlink:href="#m5a0c954df8" x="21.76" y="64.626703" style="stroke: #000000; stroke-width: 0.6"/>
      </g>
     </g>
    </g>
    <g id="ytick_21">
     <g id="line2d_48">
      <g>
       <use xlink:href="#m5a0c954df8" x="21.76" y="34.050942" style="stroke: #000000; stroke-width: 0.6"/>
      </g>
     </g>
    </g>
    <g id="ytick_22">
     <g id="line2d_49">
      <g>
       <use xlink:href="#m5a0c954df8" x="21.76" y="18.763061" style="stroke: #000000; stroke-width: 0.6"/>
      </g>
     </g>
    </g>
    <g id="ytick_23">
     <g id="line2d_50">
      <g>
       <use xlink:href="#m5a0c954df8" x="21.76" y="3.475181" style="stroke: #000000; stroke-width: 0.6"/>
      </g>
     </g>
    </g>
   </g>
   <g id="line2d_51">
    <path d="M 40.010769 307.248784 
L 43.414558 291.853544 
L 46.226603 280.641357 
L 49.81242 267.86589 
L 53.400254 256.466845 
L 54.699053 252.63432 
L 57.307894 245.35903 
L 60.93606 236.095702 
L 64.719645 227.384187 
L 69.029969 218.515278 
L 70.753927 215.257477 
L 74.333566 208.983399 
L 78.833193 201.973603 
L 80.891487 199.071521 
L 85.10293 193.691162 
L 88.955282 189.388709 
L 92.668723 185.766899 
L 96.585868 182.473932 
L 97.401116 181.85395 
L 101.904751 178.817927 
L 104.330856 177.446197 
L 109.058865 175.277992 
L 111.94781 174.268587 
L 116.530019 173.13555 
L 119.728705 172.671621 
L 122.010451 172.499144 
L 125.697236 172.490602 
L 128.664447 172.718964 
L 132.458194 173.306337 
L 136.175177 174.192943 
L 139.988728 175.411806 
L 143.103405 176.632489 
L 148.042315 178.969441 
L 151.846043 181.094024 
L 156.828249 184.289031 
L 160.657844 187.052516 
L 165.181035 190.649696 
L 168.476057 193.491038 
L 171.862699 196.600375 
L 176.103075 200.757004 
L 181.624213 206.595517 
L 184.171855 209.447971 
L 190.687964 217.184962 
L 196.070827 224.041077 
L 201.437281 231.280761 
L 205.370869 236.836798 
L 211.33047 245.64517 
L 216.084732 253.000715 
L 223.325142 264.745696 
L 227.62654 272.02506 
L 234.874346 284.784089 
L 240.838421 295.73479 
L 248.387177 310.161051 
L 248.445487 70.133431 
L 248.503798 70.247314 
L 255.194289 83.55425 
L 261.332917 96.174625 
L 270.028038 114.703819 
L 277.673836 131.610094 
L 285.839484 150.279072 
L 294.052021 169.674536 
L 304.071708 194.151664 
L 311.309716 212.372868 
L 319.820517 234.359775 
L 329.627047 260.424999 
L 339.619332 287.764084 
L 349.321014 315.037994 
L 357.630659 338.953846 
L 357.708061 99.037513 
L 366.839855 125.899524 
L 377.594715 158.286653 
L 387.59634 189.113612 
L 399.170696 225.614627 
L 410.060217 260.742247 
L 420.979666 296.709799 
L 421.073375 56.880163 
L 432.34361 94.768461 
L 444.62979 136.925609 
L 452.549231 164.559341 
L 452.549231 164.559341 
" clip-path="url(#p612334d411)" style="fill: none; stroke: #cc0000; stroke-linecap: square"/>
   </g>
   <g id="line2d_52">
    <path d="M 40.010769 145.934878 
L 41.872106 149.354122 
L 43.17745 151.369323 
L 44.773032 153.471608 
L 46.368614 155.234703 
L 48.896093 157.454699 
L 50.653083 158.655525 
L 52.170729 159.503645 
L 54.480392 160.507354 
L 57.450719 161.372095 
L 60.537844 161.855323 
L 64.218711 161.981572 
L 69.014949 161.550257 
L 73.302765 160.693437 
L 74.733992 160.320705 
L 78.497332 159.152662 
L 81.083962 158.202155 
L 86.213577 155.989712 
L 89.782509 154.210359 
L 93.811281 151.979954 
L 98.825894 148.893244 
L 103.129713 145.984891 
L 109.001458 141.657186 
L 113.685567 137.930493 
L 120.002764 132.563165 
L 127.887128 125.414781 
L 136.649233 117.091426 
L 148.384776 105.886313 
L 155.123678 99.788444 
L 159.636874 95.995343 
L 164.544972 92.248634 
L 168.296533 89.721326 
L 170.017558 88.676539 
L 174.538666 86.3267 
L 178.822013 84.702664 
L 181.030361 84.124596 
L 183.470373 83.710677 
L 185.626717 83.554465 
L 187.281232 83.575595 
L 190.45321 83.979024 
L 193.915677 84.999929 
L 195.983233 85.916783 
L 197.515323 86.751284 
L 200.467142 88.745962 
L 202.97808 90.85899 
L 206.307994 94.276707 
L 208.118139 96.438495 
L 210.907041 100.199977 
L 213.776318 104.62693 
L 215.98526 108.426823 
L 217.696836 111.608065 
L 221.785018 120.049589 
L 224.6088 126.574554 
L 227.664447 134.26875 
L 231.814827 145.751704 
L 235.912703 158.209645 
L 239.573757 170.222323 
L 244.678547 188.226705 
L 248.42393 202.19369 
L 248.467569 202.026894 
L 253.368744 182.864485 
L 259.622369 157.536035 
L 269.115587 118.835952 
L 276.045956 91.96749 
L 277.58441 86.316806 
L 280.698554 75.34371 
L 284.729617 62.238464 
L 287.798138 53.24719 
L 290.606331 45.874872 
L 292.00684 42.531868 
L 294.039354 38.10261 
L 296.604758 33.268203 
L 298.099905 30.860786 
L 300.582111 27.56506 
L 301.858305 26.223469 
L 303.134499 25.128908 
L 304.615796 24.174992 
L 306.407848 23.485535 
L 308.1999 23.315491 
L 309.74086 23.592023 
L 311.461496 24.369204 
L 312.623246 25.176069 
L 313.784995 26.211777 
L 315.263328 27.861818 
L 316.728541 29.864803 
L 318.193754 32.2334 
L 319.300412 34.263917 
L 321.098269 38.002902 
L 322.896126 42.281134 
L 325.950439 50.758984 
L 328.509554 58.996071 
L 331.783666 70.960761 
L 335.341192 85.636979 
L 338.792314 101.357129 
L 343.052891 122.449157 
L 346.52081 140.682954 
L 354.871835 186.627519 
L 357.683992 202.142289 
L 360.064735 189.375353 
L 363.927122 169.157312 
L 367.200168 153.061794 
L 369.761966 141.335369 
L 371.501915 133.886254 
L 373.572315 125.633168 
L 376.355179 115.69988 
L 377.471798 112.119797 
L 379.171614 107.146641 
L 381.75855 100.745922 
L 382.875481 98.440003 
L 383.992412 96.420904 
L 385.661883 93.952401 
L 386.642834 92.816254 
L 387.623784 91.917399 
L 388.964641 91.078626 
L 390.305498 90.696836 
L 391.47936 90.74258 
L 392.653222 91.146484 
L 393.617512 91.747945 
L 394.581803 92.593628 
L 395.949534 94.212902 
L 397.317265 96.324514 
L 399.139603 99.900002 
L 401.050664 104.575989 
L 402.015883 107.293417 
L 403.566475 112.15022 
L 406.206256 121.775591 
L 408.464192 131.309106 
L 410.539061 141.066731 
L 412.545058 151.349421 
L 415.533265 168.076038 
L 418.80247 188.053816 
L 421.016664 202.026698 
L 422.760096 190.346718 
L 426.94432 161.35755 
L 436.729813 92.877161 
L 440.270442 69.703963 
L 444.23626 45.901063 
L 446.873098 31.702837 
L 449.496008 19.116214 
L 451.469896 10.770447 
L 452.549231 6.646154 
L 452.549231 6.646154 
" clip-path="url(#p612334d411)" style="fill: none; stroke: #3300ff; stroke-linecap: square"/>
   </g>
   <g id="patch_3">
    <path d="M 21.76 345.6 
L 21.76 0 
" style="fill: none; stroke: #000000; stroke-width: 0.8; stroke-linejoin: miter; stroke-linecap: square"/>
   </g>
   <g id="patch_4">
    <path d="M 31.76 202.217628 
L 460.8 202.217628 
" style="fill: none; stroke: #000000; stroke-width: 0.8; stroke-linejoin: miter; stroke-linecap: square"/>
   </g>
  </g>
 </g>
 <defs>
  <clipPath id="p612334d411">
   <rect x="31.76" y="0" width="429.04" height="345.6"/>
  </clipPath>
 </defs>
</svg>
