<?xml version="1.0" encoding="utf-8" standalone="no"?>
<!DOCTYPE svg PUBLIC "-//W3C//DTD SVG 1.1//EN"
  "http://www.w3.org/Graphics/SVG/1.1/DTD/svg11.dtd">
<svg xmlns:xlink="http://www.w3.org/1999/xlink" width="460.8pt" height="345.6pt" viewBox="0 0 460.8 345.6" xmlns="http://www.w3.org/2000/svg" version="1.1">
 <metadata>
  <rdf:RDF xmlns:dc="http://purl.org/dc/elements/1.1/" xmlns:cc="http://creativecommons.org/ns#" xmlns:rdf="http://www.w3.org/1999/02/22-rdf-syntax-ns#">
   <cc:Work>
    <dc:type rdf:resource="http://purl.org/dc/dcmitype/StillImage"/>
    <dc:date>2023-02-12T23:45:17.261925</dc:date>
    <dc:format>image/svg+xml</dc:format>
    <dc:creator>
     <cc:Agent>
      <dc:title>Matplotlib v3.6.2, https://matplotlib.org/</dc:title>
     </cc:Agent>
    </dc:creator>
   </cc:Work>
  </rdf:RDF>
 </metadata>
 <defs>
  <style type="text/css">*{stroke-linejoin: round; stroke-linecap: butt}</style>
 </defs>
 <g id="figure_1">
  <g id="patch_1">
   <path d="M 0 345.6 
L 460.8 345.6 
L 460.8 0 
L 0 0 
z
" style="fill: #ffffff"/>
  </g>
  <g id="axes_1">
   <g id="patch_2">
    <path d="M 9.33054 334.520722 
L 459.416766 334.520722 
L 459.416766 0 
L 9.33054 0 
z
" style="fill: #ffffff"/>
   </g>
   <g id="patch_3">
    <path d="M 450.761262 6.433091 
L 450.694715 13.994156 
L 450.628167 13.994156 
L 450.495073 13.994156 
L 450.228883 13.994156 
L 449.696505 13.994156 
L 448.631748 13.994156 
L 447.412845 13.994156 
L 446.803393 13.994156 
L 446.498668 13.994156 
L 446.422486 13.994156 
L 446.346305 12.002499 
L 446.193942 12.002499 
L 444.510433 12.002499 
L 443.079167 12.002499 
L 442.363534 12.002499 
L 442.184626 12.002499 
L 442.095172 12.002499 
L 442.005718 16.099215 
L 441.647901 16.099215 
L 439.260611 16.099215 
L 438.025974 16.099215 
L 434.925842 16.565308 
L 434.059817 16.565308 
L 433.626804 16.565308 
L 433.410298 16.565308 
L 433.302045 16.565308 
L 433.247918 15.789517 
L 433.193792 15.789517 
L 430.993214 15.789517 
L 429.459541 15.789517 
L 429.180454 15.789517 
L 429.040911 15.789517 
L 428.971139 15.789517 
L 428.901367 17.527244 
L 428.343194 17.527244 
L 427.226848 17.527244 
L 425.571071 17.527244 
L 424.743182 17.527244 
L 424.53621 17.527244 
L 424.432724 16.745113 
L 424.329238 16.745113 
L 423.915294 16.745113 
L 421.855774 16.745113 
L 420.948724 16.745113 
L 420.495199 16.745113 
L 420.268437 16.745113 
L 420.211746 16.745113 
L 420.155055 18.531003 
L 420.041674 18.531003 
L 417.887306 18.531003 
L 415.876253 18.531003 
L 415.798014 18.531003 
L 415.758894 22.969575 
L 415.719775 22.969575 
L 415.563297 22.969575 
L 415.250341 22.969575 
L 414.624429 22.969575 
L 411.91568 22.969575 
L 411.521993 22.969575 
L 411.423571 22.969575 
L 411.325149 22.221843 
L 411.128306 22.221843 
L 410.340932 22.221843 
L 408.766184 22.221843 
L 407.683635 22.221843 
L 407.320411 22.221843 
L 407.138799 22.221843 
L 407.047993 22.221843 
L 406.957187 20.121229 
L 406.23074 20.121229 
L 404.777846 20.121229 
L 403.870436 20.121229 
L 403.073094 20.121229 
L 402.873758 20.121229 
L 402.77409 20.121229 
L 402.674422 19.324136 
L 402.275751 19.324136 
L 400.681067 19.324136 
L 399.107267 19.324136 
L 398.505506 19.324136 
L 398.355065 19.324136 
L 398.279845 21.242307 
L 398.204625 21.242307 
L 397.903744 21.242307 
L 396.70022 21.242307 
L 394.362164 21.242307 
L 392.288468 21.8224 
L 390.350633 21.8224 
L 389.891063 21.8224 
L 389.661278 21.8224 
L 389.603832 21.8224 
L 389.546386 21.017188 
L 389.431493 21.017188 
L 388.512352 21.017188 
L 384.94251 21.608413 
L 384.121549 21.608413 
L 382.246352 21.608413 
L 381.51007 21.608413 
L 381.141928 21.608413 
L 380.957858 21.608413 
L 380.865822 21.608413 
L 380.773787 19.348556 
L 379.301222 19.348556 
L 377.902709 19.348556 
L 376.809935 19.348556 
L 376.536741 19.348556 
L 376.468443 19.348556 
L 376.400144 22.834123 
L 376.263548 22.834123 
L 375.71716 22.834123 
L 373.69391 22.834123 
L 372.682285 22.834123 
L 372.176472 22.834123 
L 372.050019 20.533599 
L 371.923566 20.533599 
L 371.67066 20.533599 
L 370.077413 20.533599 
L 368.68687 20.533599 
L 367.738605 20.533599 
L 367.679339 24.121118 
L 367.620072 24.121118 
L 367.501539 24.121118 
L 367.264473 24.121118 
L 366.79034 24.121118 
L 363.706045 24.121118 
L 363.512973 24.121118 
L 363.416436 24.121118 
L 363.368168 24.121118 
L 363.3199 26.294256 
L 362.933755 26.294256 
L 362.161464 26.294256 
L 359.876186 26.294256 
L 359.011228 26.294256 
L 358.903108 25.474113 
L 358.794988 25.474113 
L 358.578749 25.474113 
L 358.14627 25.474113 
L 356.416354 25.474113 
L 355.322157 25.474113 
L 354.857539 25.474113 
L 354.62523 25.474113 
L 354.567152 27.721267 
L 354.509075 27.721267 
L 354.39292 27.721267 
L 353.463684 27.721267 
L 351.724994 27.721267 
L 350.855649 27.721267 
L 350.420976 27.721267 
L 350.312308 27.721267 
L 350.20364 28.462938 
L 349.986303 28.462938 
L 349.604638 28.462938 
L 346.558604 28.462938 
L 346.180101 28.462938 
L 345.99085 28.462938 
L 345.896225 28.462938 
L 345.848912 28.462938 
L 345.801599 27.638905 
L 345.044594 27.638905 
L 341.680362 27.638905 
L 341.575284 27.638905 
L 341.522745 27.638905 
L 341.470206 28.399507 
L 341.260049 28.399507 
L 340.839737 28.399507 
L 339.999113 28.399507 
L 338.264794 28.399507 
L 337.578922 28.399507 
L 337.235987 28.399507 
L 337.150253 28.399507 
L 337.064519 29.180948 
L 336.893051 29.180948 
L 335.521307 29.180948 
L 333.428489 29.180948 
L 332.954293 29.180948 
L 332.835744 29.180948 
L 332.776469 29.180948 
L 332.717195 31.635639 
L 332.480097 31.635639 
L 331.531704 31.635639 
L 328.875748 31.635639 
L 328.378891 31.635639 
L 328.347837 32.484672 
L 328.316784 32.484672 
L 328.254677 32.484672 
L 328.130462 32.484672 
L 327.882034 32.484672 
L 325.700207 32.484672 
L 324.808225 32.484672 
L 324.362234 32.484672 
L 324.139238 32.484672 
L 324.02774 32.484672 
L 323.916243 31.659232 
L 322.132278 31.659232 
L 320.703759 31.659232 
L 320.153333 31.659232 
L 319.87812 31.659232 
L 319.740513 31.659232 
L 319.67171 31.659232 
L 319.602907 29.086518 
L 318.502054 29.086518 
L 316.613191 29.086518 
L 315.813234 29.086518 
L 315.413256 29.086518 
L 315.313261 29.086518 
L 315.213267 33.432907 
L 315.013278 33.432907 
L 313.413364 33.432907 
L 312.472526 33.432907 
L 311.458402 33.432907 
L 310.95134 33.432907 
L 310.824575 34.359453 
L 310.697809 34.359453 
L 310.444278 34.359453 
L 308.41603 34.359453 
L 307.543948 34.359453 
L 306.695488 34.359453 
L 306.589431 34.359453 
L 306.536402 34.359453 
L 306.483373 42.52081 
L 306.271259 42.52081 
L 305.847029 42.52081 
L 302.378723 42.52081 
L 302.240193 42.52081 
L 302.170929 42.52081 
L 302.136297 42.52081 
L 302.101664 41.786277 
L 301.824606 41.786277 
L 301.27049 41.786277 
L 298.995223 41.786277 
L 298.164381 41.786277 
L 297.956671 41.786277 
L 297.852816 41.786277 
L 297.748961 39.170805 
L 297.33354 39.170805 
L 295.671858 39.170805 
L 293.856382 39.170805 
L 293.50696 39.170805 
L 293.419604 39.170805 
L 293.375927 38.359779 
L 293.332249 38.359779 
L 293.157538 38.359779 
L 292.458694 38.359779 
L 290.227745 38.359779 
L 289.306571 38.359779 
L 289.076277 38.359779 
L 289.018704 38.359779 
L 288.96113 47.112196 
L 288.845984 47.112196 
L 288.385397 47.112196 
L 285.851273 47.112196 
L 285.006978 47.112196 
L 284.795905 47.112196 
L 284.690368 47.112196 
L 284.6376 52.252854 
L 284.584831 52.252854 
L 284.162684 52.252854 
L 280.606213 52.252854 
L 280.290977 52.252854 
L 280.271275 49.637459 
L 280.251573 49.637459 
L 280.212168 49.637459 
L 280.133359 49.637459 
L 279.975741 49.637459 
L 276.165643 49.637459 
L 276.027074 49.637459 
L 275.95779 49.637459 
L 275.888505 48.94885 
L 275.611368 48.94885 
L 275.057093 48.94885 
L 273.948544 48.94885 
L 271.615851 48.94885 
L 271.539672 48.94885 
L 271.520627 50.286686 
L 271.501583 50.286686 
L 271.463493 50.286686 
L 271.311135 50.286686 
L 271.00642 50.286686 
L 267.188834 50.286686 
L 267.144329 47.499145 
L 267.099825 47.499145 
L 267.010817 47.499145 
L 266.8328 47.499145 
L 266.476765 47.499145 
L 265.764697 47.499145 
L 264.306363 47.499145 
L 263.058817 47.499145 
L 262.902874 47.499145 
L 262.824902 47.499145 
L 262.74693 48.858875 
L 262.435044 48.858875 
L 261.811271 48.858875 
L 258.628629 48.858875 
L 258.493343 48.858875 
L 258.425701 48.858875 
L 258.358058 50.268048 
L 258.087488 50.268048 
L 257.546346 50.268048 
L 256.464064 50.268048 
L 254.764117 50.268048 
L 254.115183 50.268048 
L 254.074624 50.268048 
L 254.034066 51.729414 
L 253.952949 51.729414 
L 253.790716 51.729414 
L 253.466249 51.729414 
L 251.489423 51.729414 
L 249.764965 51.729414 
L 249.657187 57.733137 
L 249.549408 57.733137 
L 249.333851 57.733137 
L 248.902737 57.733137 
L 248.040508 57.733137 
L 245.637714 57.733137 
L 245.435134 57.733137 
L 245.333845 57.733137 
L 245.2832 54.820764 
L 245.232555 54.820764 
L 244.827396 54.820764 
L 244.017078 54.820764 
L 242.409522 54.820764 
L 241.124843 54.820764 
L 240.964258 54.820764 
L 240.883966 56.457361 
L 240.803674 56.457361 
L 240.482504 56.457361 
L 239.840165 56.457361 
L 236.904456 56.457361 
L 236.677023 56.457361 
L 236.563307 56.457361 
L 236.506448 55.7812 
L 236.44959 55.7812 
L 235.994724 55.7812 
L 235.084993 55.7812 
L 233.335059 55.7812 
L 232.63012 55.7812 
L 232.277651 55.7812 
L 232.189533 55.7812 
L 232.101416 52.650683 
L 231.925181 52.650683 
L 230.515304 52.650683 
L 228.146271 52.650683 
L 227.948214 52.650683 
L 227.849186 52.650683 
L 227.799671 51.867042 
L 227.750157 51.867042 
L 227.354043 51.867042 
L 226.561815 51.867042 
L 224.235978 51.867042 
L 223.713954 51.867042 
L 223.452942 51.867042 
L 223.387689 61.17015 
L 223.322436 61.17015 
L 223.19193 61.17015 
L 222.147881 61.17015 
L 219.373669 61.17015 
L 219.144126 61.17015 
L 219.08674 61.17015 
L 219.058048 70.87774 
L 219.029355 70.87774 
L 218.914583 70.87774 
L 218.455498 70.87774 
L 215.554383 70.87774 
L 214.85268 70.87774 
L 214.764967 70.87774 
L 214.677254 67.804434 
L 214.501828 67.804434 
L 214.150977 67.804434 
L 212.747571 67.804434 
L 211.125258 67.804434 
L 208.597396 67.293957 
L 208.247093 67.293957 
L 206.883086 67.293957 
L 206.201082 67.293957 
L 206.030581 67.293957 
L 205.945331 63.994362 
L 205.86008 63.994362 
L 205.519078 63.994362 
L 203.843146 63.994362 
L 202.209646 63.994362 
L 201.801271 63.994362 
L 201.597083 63.994362 
L 201.49499 71.862511 
L 201.392896 71.862511 
L 200.576146 71.862511 
L 198.1074 71.862511 
L 197.509903 71.862511 
L 197.360529 71.862511 
L 197.285842 71.862511 
L 197.211155 68.513389 
L 196.912407 68.513389 
L 195.717414 68.513389 
L 195.032237 68.513389 
L 193.840602 68.513389 
L 193.244784 68.513389 
L 192.946876 68.513389 
L 192.872398 68.513389 
L 192.797921 70.942366 
L 192.648967 70.942366 
L 190.109732 70.942366 
L 189.251839 70.942366 
L 188.822892 70.942366 
L 188.608419 70.942366 
L 188.501183 70.942366 
L 188.393946 73.495905 
L 186.67816 73.495905 
L 185.894657 73.495905 
L 183.032835 73.054602 
L 180.609471 73.054602 
L 180.012136 73.054602 
L 179.862802 73.054602 
L 179.788135 73.054602 
L 179.750802 73.054602 
L 179.713468 75.803259 
L 179.414801 75.803259 
L 176.097317 75.803259 
L 175.513008 75.803259 
L 175.429067 75.803259 
L 175.345126 78.704618 
L 175.177245 78.704618 
L 174.841482 78.704618 
L 174.169955 78.704618 
L 172.826903 78.704618 
L 171.173905 78.704618 
L 171.024361 78.704618 
L 170.949589 74.976849 
L 170.874818 74.976849 
L 170.57573 74.976849 
L 169.977555 74.976849 
L 168.781206 74.976849 
L 166.76206 74.976849 
L 166.63052 74.976849 
L 166.56475 85.019342 
L 166.49898 85.019342 
L 166.235899 85.019342 
L 165.709737 85.019342 
L 164.657414 85.019342 
L 162.942843 85.019342 
L 162.5142 85.019342 
L 162.299879 85.019342 
L 162.192718 81.257003 
L 162.085558 81.257003 
L 161.228272 81.257003 
L 159.104871 81.257003 
L 158.282972 81.257003 
L 158.077498 81.257003 
L 157.97476 81.257003 
L 157.923392 81.257003 
L 157.872023 84.691462 
L 157.461073 84.691462 
L 153.940462 84.691462 
L 152.280092 84.511657 
L 150.506113 84.511657 
L 149.204128 84.511657 
L 149.099212 104.138382 
L 148.994295 104.138382 
L 148.784463 104.138382 
L 148.364797 104.138382 
L 147.525467 104.138382 
L 145.846805 104.138382 
L 144.363433 104.61676 
L 141.398298 104.61676 
L 140.662905 104.61676 
L 140.479057 104.61676 
L 140.387133 104.61676 
L 140.341171 100.882483 
L 140.295209 100.882483 
L 139.927513 100.882483 
L 137.366189 100.882483 
L 135.79139 101.275708 
L 133.838162 101.275708 
L 132.317804 101.275708 
L 131.937714 101.275708 
L 131.74767 101.275708 
L 131.652647 101.275708 
L 131.557625 97.125676 
L 130.797446 97.125676 
L 129.576823 97.125676 
L 126.519931 97.400086 
L 124.988148 97.400086 
L 123.362401 97.400086 
L 123.056624 97.400086 
L 122.903735 97.400086 
L 122.82729 107.606623 
L 122.750846 107.606623 
L 122.139291 107.606623 
L 120.916181 107.606623 
L 119.259086 107.606623 
L 118.844812 107.606623 
L 118.637675 107.606623 
L 118.534107 107.606623 
L 118.430538 113.530636 
L 117.601991 113.530636 
L 115.4388 113.530636 
L 114.679201 113.530636 
L 114.299401 113.530636 
L 114.204451 113.530636 
L 114.156976 114.588146 
L 114.109501 114.588146 
L 113.919601 114.588146 
L 110.706657 114.588146 
L 109.817458 114.588146 
L 109.761883 121.408805 
L 109.706308 121.408805 
L 109.595159 121.408805 
L 109.372859 121.408805 
L 108.92826 121.408805 
L 107.85652 121.408805 
L 106.235203 121.408805 
L 105.424544 121.408805 
L 105.323211 117.020419 
L 105.221879 117.020419 
L 105.019214 117.020419 
L 104.613885 117.020419 
L 103.553785 117.020419 
L 102.136756 117.020419 
L 101.428241 117.020419 
L 101.073983 117.020419 
L 100.985419 118.428577 
L 100.896855 118.428577 
L 100.719726 118.428577 
L 97.984205 118.428577 
L 97.275693 118.428577 
L 96.930753 118.428577 
L 96.758282 118.428577 
L 96.672047 126.599369 
L 96.585812 126.599369 
L 95.895931 126.599369 
L 94.516169 126.599369 
L 93.016813 126.599369 
L 92.641974 126.599369 
L 92.454554 126.599369 
L 92.360845 126.599369 
L 92.267135 121.741889 
L 91.517457 121.741889 
L 89.56381 121.741889 
L 88.561624 121.741889 
L 88.060532 121.741889 
L 87.935259 121.741889 
L 87.872622 131.141113 
L 87.809985 131.141113 
L 87.559439 131.141113 
L 85.966776 131.141113 
L 84.581199 131.141113 
L 83.88841 131.141113 
L 83.715213 131.141113 
L 83.628615 131.141113 
L 83.542016 141.793566 
L 83.195622 141.793566 
L 80.393106 141.793566 
L 79.847084 141.793566 
L 79.499198 141.793566 
L 79.325254 141.793566 
L 79.238283 141.793566 
L 79.151311 145.474148 
L 78.455539 145.474148 
L 77.063994 145.474148 
L 75.794362 145.474148 
L 75.159545 145.474148 
L 74.842137 145.474148 
L 74.762785 140.573965 
L 74.683433 140.573965 
L 74.524729 140.573965 
L 72.227173 140.573965 
L 70.803585 140.573965 
L 70.447689 140.573965 
L 70.358714 144.766343 
L 70.26974 144.766343 
L 70.091792 144.766343 
L 69.379998 144.766343 
L 67.589217 144.766343 
L 66.702288 144.766343 
L 66.288223 144.766343 
L 66.081191 144.766343 
L 65.977675 160.531073 
L 65.874159 160.531073 
L 65.046029 160.531073 
L 63.389769 160.531073 
L 62.271373 160.531073 
L 61.712175 160.531073 
L 61.642275 155.666528 
L 61.572376 155.666528 
L 61.432576 155.666528 
L 61.152977 155.666528 
L 59.943618 155.666528 
L 57.76803 155.666528 
L 57.542496 155.666528 
L 57.429729 155.666528 
L 57.316962 176.145663 
L 56.865894 176.145663 
L 55.963758 176.145663 
L 54.159485 176.145663 
L 53.077207 176.145663 
L 53.009565 176.145663 
L 52.941923 186.880693 
L 52.806638 186.880693 
L 52.536068 186.880693 
L 51.994929 186.880693 
L 50.281119 186.880693 
L 49.179469 186.880693 
L 48.628644 186.880693 
L 48.559791 183.695574 
L 48.490938 183.695574 
L 48.353231 183.695574 
L 48.077819 183.695574 
L 45.278382 183.695574 
L 44.540876 183.695574 
L 44.270993 183.695574 
L 44.203522 199.267267 
L 44.136051 199.267267 
L 44.00111 199.267267 
L 43.461344 199.267267 
L 42.381812 199.267267 
L 40.835215 199.267267 
L 40.061916 199.267267 
L 39.868591 199.267267 
L 39.771929 197.285415 
L 39.675267 197.285415 
L 39.288617 197.285415 
L 37.504835 197.285415 
L 36.034766 197.285415 
L 35.581598 197.285415 
L 35.468305 224.040414 
L 35.355013 224.040414 
L 35.128429 224.040414 
L 34.222091 224.040414 
L 32.409416 224.040414 
L 31.743476 224.040414 
L 31.410506 224.040414 
L 31.244021 224.040414 
L 31.160779 224.040414 
L 31.119157 224.040414 
L 31.077536 228.995043 
L 28.576976 228.995043 
L 27.579777 228.995043 
L 27.081178 228.995043 
L 26.831879 228.995043 
L 26.769554 228.995043 
L 26.707229 238.904302 
L 26.582579 238.904302 
L 24.068504 238.904302 
L 23.112876 238.904302 
L 22.635062 238.904302 
L 22.396156 238.904302 
L 22.336429 209.176526 
L 22.276702 209.176526 
L 22.157249 209.176526 
L 19.18756 209.176526 
L 17.986044 209.176526 
L 17.986044 328.087631 
L 18.686878 318.097527 
L 19.387713 309.402424 
L 20.088547 301.704787 
L 20.789381 294.799135 
L 22.008379 284.256628 
L 23.227376 275.146243 
L 24.407726 267.365163 
L 25.747573 259.503396 
L 27.08742 252.465969 
L 27.807267 248.96893 
L 29.52062 241.311746 
L 31.233972 234.438663 
L 32.960242 228.159029 
L 34.800876 222.052854 
L 37.56586 213.811485 
L 39.222416 209.318395 
L 41.121388 204.512322 
L 43.007642 200.056286 
L 46.189559 193.150643 
L 47.817407 189.874457 
L 51.629871 182.774359 
L 51.870581 182.350292 
L 54.094768 178.55353 
L 56.545033 174.605164 
L 58.221015 172.032209 
L 61.410721 167.391974 
L 63.292589 164.797469 
L 66.086409 161.121516 
L 67.578043 159.238276 
L 69.399429 157.00807 
L 72.007766 153.937934 
L 73.461145 152.286208 
L 76.094192 149.393483 
L 79.838263 145.483474 
L 80.076061 145.242656 
L 83.700004 141.675663 
L 85.515652 139.957323 
L 86.919358 138.658331 
L 88.868639 136.895131 
L 92.610784 133.634656 
L 94.522913 132.027796 
L 95.479358 131.23824 
L 98.615683 128.712402 
L 100.197 127.474015 
L 102.744888 125.525479 
L 105.687544 123.343188 
L 107.130826 122.298208 
L 108.667942 121.202877 
L 112.330153 118.663006 
L 114.71587 117.058622 
L 115.209968 116.731079 
L 117.53563 115.210463 
L 119.900398 113.69878 
L 122.184365 112.270346 
L 125.23114 110.410921 
L 126.073781 109.90562 
L 128.542696 108.446611 
L 130.668097 107.215491 
L 133.386724 105.672936 
L 134.869239 104.846441 
L 137.635586 103.330887 
L 140.207196 101.952038 
L 142.797119 100.591395 
L 143.950152 99.994391 
L 146.119424 98.885388 
L 149.462527 97.211343 
L 149.673512 97.10708 
L 152.276529 95.833873 
L 155.213657 94.425632 
L 157.991354 93.120453 
L 158.490557 92.888553 
L 160.638163 91.899932 
L 163.148523 90.762466 
L 165.188717 89.852015 
L 167.067081 89.024553 
L 170.699033 87.452933 
L 173.20011 86.391653 
L 173.680805 86.189587 
L 176.919893 84.843614 
L 179.637894 83.734616 
L 180.734798 83.292191 
L 183.029518 82.375956 
L 185.173424 81.531083 
L 186.774536 80.906973 
L 189.551629 79.838031 
L 191.429385 79.124775 
L 193.296923 78.422832 
L 195.889801 77.460262 
L 198.019012 76.680005 
L 201.056377 75.582405 
L 202.616827 75.025408 
L 204.046673 74.519052 
L 207.557978 73.29154 
L 209.189505 72.72872 
L 212.16898 71.712915 
L 214.146752 71.047008 
L 215.206559 70.692874 
L 218.038676 69.75558 
L 219.457754 69.290806 
L 222.86577 68.187577 
L 224.836385 67.557828 
L 226.171577 67.134471 
L 228.097879 66.52835 
L 230.80597 65.685378 
L 232.312123 65.221081 
L 236.321013 64.000685 
L 236.640892 63.904255 
L 240.250539 62.825585 
L 242.99848 62.015875 
L 244.774843 61.497596 
L 246.822981 60.904944 
L 247.842449 60.611886 
L 250.297284 59.911418 
L 252.042672 59.41779 
L 255.695058 58.396416 
L 257.198368 57.980491 
L 259.942102 57.22795 
L 262.438782 56.550419 
L 263.754903 56.195992 
L 265.077859 55.841597 
L 267.110844 55.300618 
L 269.932341 54.55696 
L 273.255732 53.691448 
L 273.64825 53.589956 
L 275.812905 53.032991 
L 279.375632 52.126237 
L 281.003699 51.715915 
L 283.089604 51.193839 
L 285.909476 50.49445 
L 287.533849 50.09485 
L 289.142849 49.701362 
L 292.183294 48.964041 
L 295.10046 48.264141 
L 296.518961 47.926425 
L 298.62667 47.427737 
L 299.755903 47.162073 
L 303.45712 46.298616 
L 305.243887 45.885719 
L 306.350892 45.631173 
L 308.765591 45.079258 
L 312.442234 44.247519 
L 314.368488 43.815833 
L 315.463465 43.571673 
L 319.135979 42.759187 
L 320.342779 42.494331 
L 321.535041 42.233688 
L 324.404772 41.610445 
L 327.392022 40.967763 
L 329.284689 40.56373 
L 331.290187 40.138246 
L 332.853113 39.808515 
L 335.787407 39.193804 
L 338.184136 38.695849 
L 340.43828 38.230862 
L 340.97662 38.120287 
L 343.332945 37.638428 
L 346.067194 37.083584 
L 349.069677 36.479541 
L 350.726943 36.148442 
L 352.404886 35.814866 
L 356.085152 35.088976 
L 356.956158 34.918321 
L 359.092782 34.501524 
L 361.367914 34.060532 
L 363.010674 33.743904 
L 366.896387 33.000851 
L 369.179 32.568155 
L 369.53145 32.501592 
L 372.284039 31.983997 
L 374.905789 31.494686 
L 376.885779 31.127497 
L 378.811878 30.772218 
L 381.723112 30.238767 
L 383.193867 29.970869 
L 385.114865 29.622561 
L 387.56308 29.18126 
L 390.921186 28.580625 
L 391.652575 28.450517 
L 394.787218 27.895726 
L 396.153529 27.655334 
L 398.875287 27.179008 
L 400.18709 26.950634 
L 402.888425 26.482785 
L 405.019397 26.116004 
L 407.571128 25.67942 
L 410.242404 25.225402 
L 411.812598 24.959952 
L 412.868109 24.782099 
L 415.195317 24.391623 
L 418.801719 23.790962 
L 419.713421 23.639961 
L 422.501503 23.180279 
L 425.252213 22.729819 
L 427.415458 22.377673 
L 429.377248 22.059909 
L 431.889755 21.655125 
L 433.9919 21.318317 
L 435.91492 21.011681 
L 438.280824 20.636334 
L 439.22943 20.486426 
L 441.205654 20.175194 
L 443.660955 19.790511 
L 446.542938 19.34177 
L 449.604553 18.86832 
L 450.761262 18.69031 
z
" clip-path="url(#p8ad9908e98)" style="fill: #ff0000; opacity: 0.5"/>
   </g>
   <g id="matplotlib.axis_1">
    <g id="xtick_1">
     <g id="line2d_1">
      <defs>
       <path id="m7d84f36f27" d="M 0 0 
L 0 3.5 
" style="stroke: #000000; stroke-width: 0.8"/>
      </defs>
      <g>
       <use xlink:href="#m7d84f36f27" x="13.614577" y="328.087631" style="stroke: #000000; stroke-width: 0.8"/>
      </g>
     </g>
    </g>
    <g id="xtick_2">
     <g id="line2d_2">
      <g>
       <use xlink:href="#m7d84f36f27" x="101.043914" y="328.087631" style="stroke: #000000; stroke-width: 0.8"/>
      </g>
     </g>
     <g id="text_1">
      <!-- 20 -->
      <g transform="translate(94.681414 342.686069) scale(0.1 -0.1)">
       <defs>
        <path id="DejaVuSans-32" d="M 1228 531 
L 3431 531 
L 3431 0 
L 469 0 
L 469 531 
Q 828 903 1448 1529 
Q 2069 2156 2228 2338 
Q 2531 2678 2651 2914 
Q 2772 3150 2772 3378 
Q 2772 3750 2511 3984 
Q 2250 4219 1831 4219 
Q 1534 4219 1204 4116 
Q 875 4013 500 3803 
L 500 4441 
Q 881 4594 1212 4672 
Q 1544 4750 1819 4750 
Q 2544 4750 2975 4387 
Q 3406 4025 3406 3419 
Q 3406 3131 3298 2873 
Q 3191 2616 2906 2266 
Q 2828 2175 2409 1742 
Q 1991 1309 1228 531 
z
" transform="scale(0.015625)"/>
        <path id="DejaVuSans-30" d="M 2034 4250 
Q 1547 4250 1301 3770 
Q 1056 3291 1056 2328 
Q 1056 1369 1301 889 
Q 1547 409 2034 409 
Q 2525 409 2770 889 
Q 3016 1369 3016 2328 
Q 3016 3291 2770 3770 
Q 2525 4250 2034 4250 
z
M 2034 4750 
Q 2819 4750 3233 4129 
Q 3647 3509 3647 2328 
Q 3647 1150 3233 529 
Q 2819 -91 2034 -91 
Q 1250 -91 836 529 
Q 422 1150 422 2328 
Q 422 3509 836 4129 
Q 1250 4750 2034 4750 
z
" transform="scale(0.015625)"/>
       </defs>
       <use xlink:href="#DejaVuSans-32"/>
       <use xlink:href="#DejaVuSans-30" x="63.623047"/>
      </g>
     </g>
    </g>
    <g id="xtick_3">
     <g id="line2d_3">
      <g>
       <use xlink:href="#m7d84f36f27" x="188.473251" y="328.087631" style="stroke: #000000; stroke-width: 0.8"/>
      </g>
     </g>
     <g id="text_2">
      <!-- 40 -->
      <g transform="translate(182.110751 342.686069) scale(0.1 -0.1)">
       <defs>
        <path id="DejaVuSans-34" d="M 2419 4116 
L 825 1625 
L 2419 1625 
L 2419 4116 
z
M 2253 4666 
L 3047 4666 
L 3047 1625 
L 3713 1625 
L 3713 1100 
L 3047 1100 
L 3047 0 
L 2419 0 
L 2419 1100 
L 313 1100 
L 313 1709 
L 2253 4666 
z
" transform="scale(0.015625)"/>
       </defs>
       <use xlink:href="#DejaVuSans-34"/>
       <use xlink:href="#DejaVuSans-30" x="63.623047"/>
      </g>
     </g>
    </g>
    <g id="xtick_4">
     <g id="line2d_4">
      <g>
       <use xlink:href="#m7d84f36f27" x="275.902588" y="328.087631" style="stroke: #000000; stroke-width: 0.8"/>
      </g>
     </g>
     <g id="text_3">
      <!-- 60 -->
      <g transform="translate(269.540088 342.686069) scale(0.1 -0.1)">
       <defs>
        <path id="DejaVuSans-36" d="M 2113 2584 
Q 1688 2584 1439 2293 
Q 1191 2003 1191 1497 
Q 1191 994 1439 701 
Q 1688 409 2113 409 
Q 2538 409 2786 701 
Q 3034 994 3034 1497 
Q 3034 2003 2786 2293 
Q 2538 2584 2113 2584 
z
M 3366 4563 
L 3366 3988 
Q 3128 4100 2886 4159 
Q 2644 4219 2406 4219 
Q 1781 4219 1451 3797 
Q 1122 3375 1075 2522 
Q 1259 2794 1537 2939 
Q 1816 3084 2150 3084 
Q 2853 3084 3261 2657 
Q 3669 2231 3669 1497 
Q 3669 778 3244 343 
Q 2819 -91 2113 -91 
Q 1303 -91 875 529 
Q 447 1150 447 2328 
Q 447 3434 972 4092 
Q 1497 4750 2381 4750 
Q 2619 4750 2861 4703 
Q 3103 4656 3366 4563 
z
" transform="scale(0.015625)"/>
       </defs>
       <use xlink:href="#DejaVuSans-36"/>
       <use xlink:href="#DejaVuSans-30" x="63.623047"/>
      </g>
     </g>
    </g>
    <g id="xtick_5">
     <g id="line2d_5">
      <g>
       <use xlink:href="#m7d84f36f27" x="363.331925" y="328.087631" style="stroke: #000000; stroke-width: 0.8"/>
      </g>
     </g>
     <g id="text_4">
      <!-- 80 -->
      <g transform="translate(356.969425 342.686069) scale(0.1 -0.1)">
       <defs>
        <path id="DejaVuSans-38" d="M 2034 2216 
Q 1584 2216 1326 1975 
Q 1069 1734 1069 1313 
Q 1069 891 1326 650 
Q 1584 409 2034 409 
Q 2484 409 2743 651 
Q 3003 894 3003 1313 
Q 3003 1734 2745 1975 
Q 2488 2216 2034 2216 
z
M 1403 2484 
Q 997 2584 770 2862 
Q 544 3141 544 3541 
Q 544 4100 942 4425 
Q 1341 4750 2034 4750 
Q 2731 4750 3128 4425 
Q 3525 4100 3525 3541 
Q 3525 3141 3298 2862 
Q 3072 2584 2669 2484 
Q 3125 2378 3379 2068 
Q 3634 1759 3634 1313 
Q 3634 634 3220 271 
Q 2806 -91 2034 -91 
Q 1263 -91 848 271 
Q 434 634 434 1313 
Q 434 1759 690 2068 
Q 947 2378 1403 2484 
z
M 1172 3481 
Q 1172 3119 1398 2916 
Q 1625 2713 2034 2713 
Q 2441 2713 2670 2916 
Q 2900 3119 2900 3481 
Q 2900 3844 2670 4047 
Q 2441 4250 2034 4250 
Q 1625 4250 1398 4047 
Q 1172 3844 1172 3481 
z
" transform="scale(0.015625)"/>
       </defs>
       <use xlink:href="#DejaVuSans-38"/>
       <use xlink:href="#DejaVuSans-30" x="63.623047"/>
      </g>
     </g>
    </g>
    <g id="xtick_6">
     <g id="line2d_6">
      <g>
       <use xlink:href="#m7d84f36f27" x="450.761262" y="328.087631" style="stroke: #000000; stroke-width: 0.8"/>
      </g>
     </g>
     <g id="text_5">
      <!-- 100 -->
      <g transform="translate(441.217512 342.686069) scale(0.1 -0.1)">
       <defs>
        <path id="DejaVuSans-31" d="M 794 531 
L 1825 531 
L 1825 4091 
L 703 3866 
L 703 4441 
L 1819 4666 
L 2450 4666 
L 2450 531 
L 3481 531 
L 3481 0 
L 794 0 
L 794 531 
z
" transform="scale(0.015625)"/>
       </defs>
       <use xlink:href="#DejaVuSans-31"/>
       <use xlink:href="#DejaVuSans-30" x="63.623047"/>
       <use xlink:href="#DejaVuSans-30" x="127.246094"/>
      </g>
     </g>
    </g>
    <g id="xtick_7">
     <g id="line2d_7">
      <defs>
       <path id="m45f4d38045" d="M 0 0 
L 0 2 
" style="stroke: #000000; stroke-width: 0.6"/>
      </defs>
      <g>
       <use xlink:href="#m45f4d38045" x="35.471912" y="328.087631" style="stroke: #000000; stroke-width: 0.6"/>
      </g>
     </g>
    </g>
    <g id="xtick_8">
     <g id="line2d_8">
      <g>
       <use xlink:href="#m45f4d38045" x="57.329246" y="328.087631" style="stroke: #000000; stroke-width: 0.6"/>
      </g>
     </g>
    </g>
    <g id="xtick_9">
     <g id="line2d_9">
      <g>
       <use xlink:href="#m45f4d38045" x="79.18658" y="328.087631" style="stroke: #000000; stroke-width: 0.6"/>
      </g>
     </g>
    </g>
    <g id="xtick_10">
     <g id="line2d_10">
      <g>
       <use xlink:href="#m45f4d38045" x="122.901249" y="328.087631" style="stroke: #000000; stroke-width: 0.6"/>
      </g>
     </g>
    </g>
    <g id="xtick_11">
     <g id="line2d_11">
      <g>
       <use xlink:href="#m45f4d38045" x="144.758583" y="328.087631" style="stroke: #000000; stroke-width: 0.6"/>
      </g>
     </g>
    </g>
    <g id="xtick_12">
     <g id="line2d_12">
      <g>
       <use xlink:href="#m45f4d38045" x="166.615917" y="328.087631" style="stroke: #000000; stroke-width: 0.6"/>
      </g>
     </g>
    </g>
    <g id="xtick_13">
     <g id="line2d_13">
      <g>
       <use xlink:href="#m45f4d38045" x="210.330585" y="328.087631" style="stroke: #000000; stroke-width: 0.6"/>
      </g>
     </g>
    </g>
    <g id="xtick_14">
     <g id="line2d_14">
      <g>
       <use xlink:href="#m45f4d38045" x="232.18792" y="328.087631" style="stroke: #000000; stroke-width: 0.6"/>
      </g>
     </g>
    </g>
    <g id="xtick_15">
     <g id="line2d_15">
      <g>
       <use xlink:href="#m45f4d38045" x="254.045254" y="328.087631" style="stroke: #000000; stroke-width: 0.6"/>
      </g>
     </g>
    </g>
    <g id="xtick_16">
     <g id="line2d_16">
      <g>
       <use xlink:href="#m45f4d38045" x="297.759922" y="328.087631" style="stroke: #000000; stroke-width: 0.6"/>
      </g>
     </g>
    </g>
    <g id="xtick_17">
     <g id="line2d_17">
      <g>
       <use xlink:href="#m45f4d38045" x="319.617257" y="328.087631" style="stroke: #000000; stroke-width: 0.6"/>
      </g>
     </g>
    </g>
    <g id="xtick_18">
     <g id="line2d_18">
      <g>
       <use xlink:href="#m45f4d38045" x="341.474591" y="328.087631" style="stroke: #000000; stroke-width: 0.6"/>
      </g>
     </g>
    </g>
    <g id="xtick_19">
     <g id="line2d_19">
      <g>
       <use xlink:href="#m45f4d38045" x="385.189259" y="328.087631" style="stroke: #000000; stroke-width: 0.6"/>
      </g>
     </g>
    </g>
    <g id="xtick_20">
     <g id="line2d_20">
      <g>
       <use xlink:href="#m45f4d38045" x="407.046594" y="328.087631" style="stroke: #000000; stroke-width: 0.6"/>
      </g>
     </g>
    </g>
    <g id="xtick_21">
     <g id="line2d_21">
      <g>
       <use xlink:href="#m45f4d38045" x="428.903928" y="328.087631" style="stroke: #000000; stroke-width: 0.6"/>
      </g>
     </g>
    </g>
   </g>
   <g id="matplotlib.axis_2">
    <g id="ytick_1">
     <g id="line2d_22">
      <defs>
       <path id="mc9c97be24d" d="M 0 0 
L -3.5 0 
" style="stroke: #000000; stroke-width: 0.8"/>
      </defs>
      <g>
       <use xlink:href="#mc9c97be24d" x="13.614577" y="328.087631" style="stroke: #000000; stroke-width: 0.8"/>
      </g>
     </g>
    </g>
    <g id="ytick_2">
     <g id="line2d_23">
      <g>
       <use xlink:href="#mc9c97be24d" x="13.614577" y="268.632078" style="stroke: #000000; stroke-width: 0.8"/>
      </g>
     </g>
     <g id="text_6">
      <!-- 1 -->
      <g transform="translate(0.252077 272.431297) scale(0.1 -0.1)">
       <use xlink:href="#DejaVuSans-31"/>
      </g>
     </g>
    </g>
    <g id="ytick_3">
     <g id="line2d_24">
      <g>
       <use xlink:href="#mc9c97be24d" x="13.614577" y="209.176526" style="stroke: #000000; stroke-width: 0.8"/>
      </g>
     </g>
     <g id="text_7">
      <!-- 2 -->
      <g transform="translate(0.252077 212.975744) scale(0.1 -0.1)">
       <use xlink:href="#DejaVuSans-32"/>
      </g>
     </g>
    </g>
    <g id="ytick_4">
     <g id="line2d_25">
      <g>
       <use xlink:href="#mc9c97be24d" x="13.614577" y="149.720973" style="stroke: #000000; stroke-width: 0.8"/>
      </g>
     </g>
     <g id="text_8">
      <!-- 3 -->
      <g transform="translate(0.252077 153.520192) scale(0.1 -0.1)">
       <defs>
        <path id="DejaVuSans-33" d="M 2597 2516 
Q 3050 2419 3304 2112 
Q 3559 1806 3559 1356 
Q 3559 666 3084 287 
Q 2609 -91 1734 -91 
Q 1441 -91 1130 -33 
Q 819 25 488 141 
L 488 750 
Q 750 597 1062 519 
Q 1375 441 1716 441 
Q 2309 441 2620 675 
Q 2931 909 2931 1356 
Q 2931 1769 2642 2001 
Q 2353 2234 1838 2234 
L 1294 2234 
L 1294 2753 
L 1863 2753 
Q 2328 2753 2575 2939 
Q 2822 3125 2822 3475 
Q 2822 3834 2567 4026 
Q 2313 4219 1838 4219 
Q 1578 4219 1281 4162 
Q 984 4106 628 3988 
L 628 4550 
Q 988 4650 1302 4700 
Q 1616 4750 1894 4750 
Q 2613 4750 3031 4423 
Q 3450 4097 3450 3541 
Q 3450 3153 3228 2886 
Q 3006 2619 2597 2516 
z
" transform="scale(0.015625)"/>
       </defs>
       <use xlink:href="#DejaVuSans-33"/>
      </g>
     </g>
    </g>
    <g id="ytick_5">
     <g id="line2d_26">
      <g>
       <use xlink:href="#mc9c97be24d" x="13.614577" y="90.26542" style="stroke: #000000; stroke-width: 0.8"/>
      </g>
     </g>
     <g id="text_9">
      <!-- 4 -->
      <g transform="translate(0.252077 94.064639) scale(0.1 -0.1)">
       <use xlink:href="#DejaVuSans-34"/>
      </g>
     </g>
    </g>
    <g id="ytick_6">
     <g id="line2d_27">
      <g>
       <use xlink:href="#mc9c97be24d" x="13.614577" y="30.809867" style="stroke: #000000; stroke-width: 0.8"/>
      </g>
     </g>
     <g id="text_10">
      <!-- 5 -->
      <g transform="translate(0.252077 34.609086) scale(0.1 -0.1)">
       <defs>
        <path id="DejaVuSans-35" d="M 691 4666 
L 3169 4666 
L 3169 4134 
L 1269 4134 
L 1269 2991 
Q 1406 3038 1543 3061 
Q 1681 3084 1819 3084 
Q 2600 3084 3056 2656 
Q 3513 2228 3513 1497 
Q 3513 744 3044 326 
Q 2575 -91 1722 -91 
Q 1428 -91 1123 -41 
Q 819 9 494 109 
L 494 744 
Q 775 591 1075 516 
Q 1375 441 1709 441 
Q 2250 441 2565 725 
Q 2881 1009 2881 1497 
Q 2881 1984 2565 2268 
Q 2250 2553 1709 2553 
Q 1456 2553 1204 2497 
Q 953 2441 691 2322 
L 691 4666 
z
" transform="scale(0.015625)"/>
       </defs>
       <use xlink:href="#DejaVuSans-35"/>
      </g>
     </g>
    </g>
    <g id="ytick_7">
     <g id="line2d_28">
      <defs>
       <path id="m41f14fa12b" d="M 0 0 
L -2 0 
" style="stroke: #000000; stroke-width: 0.6"/>
      </defs>
      <g>
       <use xlink:href="#m41f14fa12b" x="13.614577" y="316.196521" style="stroke: #000000; stroke-width: 0.6"/>
      </g>
     </g>
    </g>
    <g id="ytick_8">
     <g id="line2d_29">
      <g>
       <use xlink:href="#m41f14fa12b" x="13.614577" y="304.30541" style="stroke: #000000; stroke-width: 0.6"/>
      </g>
     </g>
    </g>
    <g id="ytick_9">
     <g id="line2d_30">
      <g>
       <use xlink:href="#m41f14fa12b" x="13.614577" y="292.414299" style="stroke: #000000; stroke-width: 0.6"/>
      </g>
     </g>
    </g>
    <g id="ytick_10">
     <g id="line2d_31">
      <g>
       <use xlink:href="#m41f14fa12b" x="13.614577" y="280.523189" style="stroke: #000000; stroke-width: 0.6"/>
      </g>
     </g>
    </g>
    <g id="ytick_11">
     <g id="line2d_32">
      <g>
       <use xlink:href="#m41f14fa12b" x="13.614577" y="256.740968" style="stroke: #000000; stroke-width: 0.6"/>
      </g>
     </g>
    </g>
    <g id="ytick_12">
     <g id="line2d_33">
      <g>
       <use xlink:href="#m41f14fa12b" x="13.614577" y="244.849857" style="stroke: #000000; stroke-width: 0.6"/>
      </g>
     </g>
    </g>
    <g id="ytick_13">
     <g id="line2d_34">
      <g>
       <use xlink:href="#m41f14fa12b" x="13.614577" y="232.958747" style="stroke: #000000; stroke-width: 0.6"/>
      </g>
     </g>
    </g>
    <g id="ytick_14">
     <g id="line2d_35">
      <g>
       <use xlink:href="#m41f14fa12b" x="13.614577" y="221.067636" style="stroke: #000000; stroke-width: 0.6"/>
      </g>
     </g>
    </g>
    <g id="ytick_15">
     <g id="line2d_36">
      <g>
       <use xlink:href="#m41f14fa12b" x="13.614577" y="197.285415" style="stroke: #000000; stroke-width: 0.6"/>
      </g>
     </g>
    </g>
    <g id="ytick_16">
     <g id="line2d_37">
      <g>
       <use xlink:href="#m41f14fa12b" x="13.614577" y="185.394305" style="stroke: #000000; stroke-width: 0.6"/>
      </g>
     </g>
    </g>
    <g id="ytick_17">
     <g id="line2d_38">
      <g>
       <use xlink:href="#m41f14fa12b" x="13.614577" y="173.503194" style="stroke: #000000; stroke-width: 0.6"/>
      </g>
     </g>
    </g>
    <g id="ytick_18">
     <g id="line2d_39">
      <g>
       <use xlink:href="#m41f14fa12b" x="13.614577" y="161.612083" style="stroke: #000000; stroke-width: 0.6"/>
      </g>
     </g>
    </g>
    <g id="ytick_19">
     <g id="line2d_40">
      <g>
       <use xlink:href="#m41f14fa12b" x="13.614577" y="137.829862" style="stroke: #000000; stroke-width: 0.6"/>
      </g>
     </g>
    </g>
    <g id="ytick_20">
     <g id="line2d_41">
      <g>
       <use xlink:href="#m41f14fa12b" x="13.614577" y="125.938752" style="stroke: #000000; stroke-width: 0.6"/>
      </g>
     </g>
    </g>
    <g id="ytick_21">
     <g id="line2d_42">
      <g>
       <use xlink:href="#m41f14fa12b" x="13.614577" y="114.047641" style="stroke: #000000; stroke-width: 0.6"/>
      </g>
     </g>
    </g>
    <g id="ytick_22">
     <g id="line2d_43">
      <g>
       <use xlink:href="#m41f14fa12b" x="13.614577" y="102.156531" style="stroke: #000000; stroke-width: 0.6"/>
      </g>
     </g>
    </g>
    <g id="ytick_23">
     <g id="line2d_44">
      <g>
       <use xlink:href="#m41f14fa12b" x="13.614577" y="78.37431" style="stroke: #000000; stroke-width: 0.6"/>
      </g>
     </g>
    </g>
    <g id="ytick_24">
     <g id="line2d_45">
      <g>
       <use xlink:href="#m41f14fa12b" x="13.614577" y="66.483199" style="stroke: #000000; stroke-width: 0.6"/>
      </g>
     </g>
    </g>
    <g id="ytick_25">
     <g id="line2d_46">
      <g>
       <use xlink:href="#m41f14fa12b" x="13.614577" y="54.592089" style="stroke: #000000; stroke-width: 0.6"/>
      </g>
     </g>
    </g>
    <g id="ytick_26">
     <g id="line2d_47">
      <g>
       <use xlink:href="#m41f14fa12b" x="13.614577" y="42.700978" style="stroke: #000000; stroke-width: 0.6"/>
      </g>
     </g>
    </g>
    <g id="ytick_27">
     <g id="line2d_48">
      <g>
       <use xlink:href="#m41f14fa12b" x="13.614577" y="18.918757" style="stroke: #000000; stroke-width: 0.6"/>
      </g>
     </g>
    </g>
    <g id="ytick_28">
     <g id="line2d_49">
      <g>
       <use xlink:href="#m41f14fa12b" x="13.614577" y="7.027646" style="stroke: #000000; stroke-width: 0.6"/>
      </g>
     </g>
    </g>
   </g>
   <g id="line2d_50">
    <path d="M 17.986044 328.087631 
L 19.387713 309.402424 
L 20.789381 294.799135 
L 22.008379 284.256628 
L 23.227376 275.146243 
L 24.407726 267.365163 
L 25.747573 259.503396 
L 27.807267 248.96893 
L 29.52062 241.311746 
L 31.233972 234.438663 
L 32.960242 228.159029 
L 34.800876 222.052854 
L 37.56586 213.811485 
L 39.222416 209.318395 
L 41.121388 204.512322 
L 43.007642 200.056286 
L 47.817407 189.874457 
L 51.870581 182.350292 
L 54.094768 178.55353 
L 58.221015 172.032209 
L 63.292589 164.797469 
L 67.578043 159.238276 
L 72.007766 153.937934 
L 76.094192 149.393483 
L 80.076061 145.242656 
L 86.919358 138.658331 
L 92.610784 133.634656 
L 98.615683 128.712402 
L 102.744888 125.525479 
L 108.667942 121.202877 
L 115.209968 116.731079 
L 122.184365 112.270346 
L 130.668097 107.215491 
L 137.635586 103.330887 
L 146.119424 98.885388 
L 155.213657 94.425632 
L 165.188717 89.852015 
L 173.680805 86.189587 
L 185.173424 81.531083 
L 195.889801 77.460262 
L 207.557978 73.29154 
L 219.457754 69.290806 
L 232.312123 65.221081 
L 246.822981 60.904944 
L 259.942102 57.22795 
L 275.812905 53.032991 
L 292.183294 48.964041 
L 308.765591 45.079258 
L 327.392022 40.967763 
L 346.067194 37.083584 
L 366.896387 33.000851 
L 387.56308 29.18126 
L 410.242404 25.225402 
L 433.9919 21.318317 
L 450.761262 18.69031 
L 450.761262 18.69031 
" clip-path="url(#p8ad9908e98)" style="fill: none; stroke: #0000ff; stroke-linecap: square"/>
   </g>
   <g id="patch_4">
    <path d="M 13.614577 334.520722 
L 13.614577 0 
" style="fill: none; stroke: #000000; stroke-width: 0.8; stroke-linejoin: miter; stroke-linecap: square"/>
   </g>
   <g id="patch_5">
    <path d="M 9.33054 328.087631 
L 459.416766 328.087631 
" style="fill: none; stroke: #000000; stroke-width: 0.8; stroke-linejoin: miter; stroke-linecap: square"/>
   </g>
  </g>
 </g>
 <defs>
  <clipPath id="p8ad9908e98">
   <rect x="9.33054" y="0" width="450.086227" height="334.520722"/>
  </clipPath>
 </defs>
</svg>
