<?xml version="1.0" encoding="utf-8" standalone="no"?>
<!DOCTYPE svg PUBLIC "-//W3C//DTD SVG 1.1//EN"
  "http://www.w3.org/Graphics/SVG/1.1/DTD/svg11.dtd">
<svg xmlns:xlink="http://www.w3.org/1999/xlink" width="460.8pt" height="345.6pt" viewBox="0 0 460.8 345.6" xmlns="http://www.w3.org/2000/svg" version="1.1">
 <metadata>
  <rdf:RDF xmlns:dc="http://purl.org/dc/elements/1.1/" xmlns:cc="http://creativecommons.org/ns#" xmlns:rdf="http://www.w3.org/1999/02/22-rdf-syntax-ns#">
   <cc:Work>
    <dc:type rdf:resource="http://purl.org/dc/dcmitype/StillImage"/>
    <dc:date>2023-05-25T19:52:58.807980</dc:date>
    <dc:format>image/svg+xml</dc:format>
    <dc:creator>
     <cc:Agent>
      <dc:title>Matplotlib v3.6.2, https://matplotlib.org/</dc:title>
     </cc:Agent>
    </dc:creator>
   </cc:Work>
  </rdf:RDF>
 </metadata>
 <defs>
  <style type="text/css">*{stroke-linejoin: round; stroke-linecap: butt}</style>
 </defs>
 <g id="figure_1">
  <g id="patch_1">
   <path d="M 0 345.6 
L 460.8 345.6 
L 460.8 0 
L 0 0 
z
" style="fill: #ffffff"/>
  </g>
  <g id="axes_1">
   <g id="patch_2">
    <path d="M 0 345.6 
L 460.8 345.6 
L 460.8 0 
L 0 0 
z
" style="fill: #ffffff"/>
   </g>
   <g id="PathCollection_1">
    <defs>
     <path id="C0_0_753d00931f" d="M 0 2.236068 
C 0.593012 2.236068 1.161816 2.000462 1.581139 1.581139 
C 2.000462 1.161816 2.236068 0.593012 2.236068 -0 
C 2.236068 -0.593012 2.000462 -1.161816 1.581139 -1.581139 
C 1.161816 -2.000462 0.593012 -2.236068 0 -2.236068 
C -0.593012 -2.236068 -1.161816 -2.000462 -1.581139 -1.581139 
C -2.000462 -1.161816 -2.236068 -0.593012 -2.236068 0 
C -2.236068 0.593012 -2.000462 1.161816 -1.581139 1.581139 
C -1.161816 2.000462 -0.593012 2.236068 0 2.236068 
z
"/>
    </defs>
    <g clip-path="url(#p7c035b67c0)">
     <use xlink:href="#C0_0_753d00931f" x="125.460729" y="338.953846" style="fill: #ff0000"/>
    </g>
    <g clip-path="url(#p7c035b67c0)">
     <use xlink:href="#C0_0_753d00931f" x="242.059919" y="255.876923" style="fill: #ff0000"/>
    </g>
    <g clip-path="url(#p7c035b67c0)">
     <use xlink:href="#C0_0_753d00931f" x="242.059919" y="297.415385" style="fill: #ff0000"/>
    </g>
    <g clip-path="url(#p7c035b67c0)">
     <use xlink:href="#C0_0_753d00931f" x="358.659109" y="172.8" style="fill: #ff0000"/>
    </g>
   </g>
   <g id="matplotlib.axis_1"/>
   <g id="matplotlib.axis_2"/>
   <g id="line2d_1">
    <path d="M 8.861538 297.415385 
L 14.72923 301.49092 
L 22.227655 306.392897 
L 29.218116 310.653343 
L 35.612464 314.288982 
L 43.329761 318.344073 
L 49.416218 321.285533 
L 56.274282 324.32866 
L 62.953868 327.01631 
L 68.784391 329.139466 
L 75.684917 331.383843 
L 83.021955 333.45103 
L 89.32209 334.96357 
L 96.153714 336.329613 
L 102.924405 337.402083 
L 108.843291 338.110147 
L 115.429634 338.646409 
L 122.215038 338.92166 
L 129.245861 338.910072 
L 135.181646 338.665128 
L 143.061782 338.007311 
L 149.352317 337.209834 
L 155.394168 336.21623 
L 161.662551 334.949605 
L 168.010274 333.422266 
L 173.678121 331.850438 
L 179.898513 329.899435 
L 185.911334 327.788797 
L 191.097171 325.791012 
L 198.129857 322.819208 
L 203.935304 320.13828 
L 210.720197 316.74405 
L 216.050488 313.880197 
L 222.994683 309.888801 
L 230.731953 305.094491 
L 238.419271 299.96885 
L 246.313775 294.329225 
L 250.587267 291.117478 
L 259.629151 283.954191 
L 266.304341 278.34533 
L 273.685667 271.826126 
L 281.710568 264.360774 
L 289.130145 257.108421 
L 295.386867 250.731274 
L 302.628779 243.051297 
L 309.664501 235.283063 
L 318.147144 225.515069 
L 326.346203 215.65574 
L 335.217613 204.525212 
L 342.170827 195.465167 
L 351.991299 182.16579 
L 360.426368 170.272114 
L 369.862675 156.451414 
L 378.679725 143.045967 
L 388.319783 127.84559 
L 394.081532 118.489368 
L 402.491657 104.468422 
L 410.210269 91.219969 
L 418.895177 75.877662 
L 426.872839 61.378601 
L 436.780768 42.829925 
L 444.608384 27.751649 
L 451.938462 13.292308 
L 451.938462 13.292308 
" clip-path="url(#p7c035b67c0)" style="fill: none; stroke: #0000ff; stroke-linecap: square"/>
   </g>
   <g id="line2d_2">
    <path d="M 125.460729 338.953846 
L 358.659109 172.8 
" clip-path="url(#p7c035b67c0)" style="fill: none; stroke: #008000; stroke-linecap: square"/>
   </g>
   <g id="line2d_3">
    <path d="M 242.059919 255.876923 
L 242.059919 297.415385 
" clip-path="url(#p7c035b67c0)" style="fill: none; stroke: #800080; stroke-linecap: square"/>
   </g>
   <g id="text_1">
    <!-- A -->
    <g style="fill: #ff0000" transform="translate(110.380497 325.097837) scale(0.1 -0.1)">
     <defs>
      <path id="DejaVuSans-41" d="M 2188 4044 
L 1331 1722 
L 3047 1722 
L 2188 4044 
z
M 1831 4666 
L 2547 4666 
L 4325 0 
L 3669 0 
L 3244 1197 
L 1141 1197 
L 716 0 
L 50 0 
L 1831 4666 
z
" transform="scale(0.015625)"/>
     </defs>
     <use xlink:href="#DejaVuSans-41"/>
    </g>
   </g>
   <g id="text_2">
    <!-- B -->
    <g style="fill: #ff0000" transform="translate(357.560624 158.94399) scale(0.1 -0.1)">
     <defs>
      <path id="DejaVuSans-42" d="M 1259 2228 
L 1259 519 
L 2272 519 
Q 2781 519 3026 730 
Q 3272 941 3272 1375 
Q 3272 1813 3026 2020 
Q 2781 2228 2272 2228 
L 1259 2228 
z
M 1259 4147 
L 1259 2741 
L 2194 2741 
Q 2656 2741 2882 2914 
Q 3109 3088 3109 3444 
Q 3109 3797 2882 3972 
Q 2656 4147 2194 4147 
L 1259 4147 
z
M 628 4666 
L 2241 4666 
Q 2963 4666 3353 4366 
Q 3744 4066 3744 3513 
Q 3744 3084 3544 2831 
Q 3344 2578 2956 2516 
Q 3422 2416 3680 2098 
Q 3938 1781 3938 1306 
Q 3938 681 3513 340 
Q 3088 0 2303 0 
L 628 0 
L 628 4666 
z
" transform="scale(0.015625)"/>
     </defs>
     <use xlink:href="#DejaVuSans-42"/>
    </g>
   </g>
   <g id="text_3">
    <!-- C -->
    <g style="fill: #ff0000" transform="translate(233.904545 247.005529) scale(0.1 -0.1)">
     <defs>
      <path id="DejaVuSans-43" d="M 4122 4306 
L 4122 3641 
Q 3803 3938 3442 4084 
Q 3081 4231 2675 4231 
Q 1875 4231 1450 3742 
Q 1025 3253 1025 2328 
Q 1025 1406 1450 917 
Q 1875 428 2675 428 
Q 3081 428 3442 575 
Q 3803 722 4122 1019 
L 4122 359 
Q 3791 134 3420 21 
Q 3050 -91 2638 -91 
Q 1578 -91 968 557 
Q 359 1206 359 2328 
Q 359 3453 968 4101 
Q 1578 4750 2638 4750 
Q 3056 4750 3426 4639 
Q 3797 4528 4122 4306 
z
" transform="scale(0.015625)"/>
     </defs>
     <use xlink:href="#DejaVuSans-43"/>
    </g>
   </g>
   <g id="text_4">
    <!-- D -->
    <g style="fill: #ff0000" transform="translate(245.20587 311.805529) scale(0.1 -0.1)">
     <defs>
      <path id="DejaVuSans-44" d="M 1259 4147 
L 1259 519 
L 2022 519 
Q 2988 519 3436 956 
Q 3884 1394 3884 2338 
Q 3884 3275 3436 3711 
Q 2988 4147 2022 4147 
L 1259 4147 
z
M 628 4666 
L 1925 4666 
Q 3281 4666 3915 4102 
Q 4550 3538 4550 2338 
Q 4550 1131 3912 565 
Q 3275 0 1925 0 
L 628 0 
L 628 4666 
z
" transform="scale(0.015625)"/>
     </defs>
     <use xlink:href="#DejaVuSans-44"/>
    </g>
   </g>
  </g>
 </g>
 <defs>
  <clipPath id="p7c035b67c0">
   <rect x="0" y="0" width="460.8" height="345.6"/>
  </clipPath>
 </defs>
</svg>
