<?xml version="1.0" encoding="utf-8" standalone="no"?>
<!DOCTYPE svg PUBLIC "-//W3C//DTD SVG 1.1//EN"
  "http://www.w3.org/Graphics/SVG/1.1/DTD/svg11.dtd">
<!-- Created with matplotlib (http://matplotlib.org/) -->
<svg height="345.6pt" version="1.1" viewBox="0 0 460.8 345.6" width="460.8pt" xmlns="http://www.w3.org/2000/svg" xmlns:xlink="http://www.w3.org/1999/xlink">
 <defs>
  <style type="text/css">
*{stroke-linecap:butt;stroke-linejoin:round;}
  </style>
 </defs>
 <g id="figure_1">
  <g id="patch_1">
   <path d="M 0 345.6 
L 460.8 345.6 
L 460.8 0 
L 0 0 
z
" style="fill:#ffffff;"/>
  </g>
  <g id="axes_1">
   <g id="patch_2">
    <path d="M 2.52 343.08 
L 458.28 343.08 
L 458.28 2.52 
L 2.52 2.52 
z
" style="fill:#ffffff;"/>
   </g>
   <g id="matplotlib.axis_1">
    <g id="xtick_1">
     <g id="line2d_1">
      <defs>
       <path d="M 0 0 
L 0 3.5 
" id="mffe39fc329" style="stroke:#000000;stroke-width:0.8;"/>
      </defs>
      <g>
       <use style="stroke:#000000;stroke-width:0.8;" x="9.127285" xlink:href="#mffe39fc329" y="172.8"/>
      </g>
     </g>
     <g id="text_1">
      <!-- -3 -->
      <defs>
       <path d="M 4.890625 31.390625 
L 31.203125 31.390625 
L 31.203125 23.390625 
L 4.890625 23.390625 
z
" id="DejaVuSans-2d"/>
       <path d="M 40.578125 39.3125 
Q 47.65625 37.796875 51.625 33 
Q 55.609375 28.21875 55.609375 21.1875 
Q 55.609375 10.40625 48.1875 4.484375 
Q 40.765625 -1.421875 27.09375 -1.421875 
Q 22.515625 -1.421875 17.65625 -0.515625 
Q 12.796875 0.390625 7.625 2.203125 
L 7.625 11.71875 
Q 11.71875 9.328125 16.59375 8.109375 
Q 21.484375 6.890625 26.8125 6.890625 
Q 36.078125 6.890625 40.9375 10.546875 
Q 45.796875 14.203125 45.796875 21.1875 
Q 45.796875 27.640625 41.28125 31.265625 
Q 36.765625 34.90625 28.71875 34.90625 
L 20.21875 34.90625 
L 20.21875 43.015625 
L 29.109375 43.015625 
Q 36.375 43.015625 40.234375 45.921875 
Q 44.09375 48.828125 44.09375 54.296875 
Q 44.09375 59.90625 40.109375 62.90625 
Q 36.140625 65.921875 28.71875 65.921875 
Q 24.65625 65.921875 20.015625 65.03125 
Q 15.375 64.15625 9.8125 62.3125 
L 9.8125 71.09375 
Q 15.4375 72.65625 20.34375 73.4375 
Q 25.25 74.21875 29.59375 74.21875 
Q 40.828125 74.21875 47.359375 69.109375 
Q 53.90625 64.015625 53.90625 55.328125 
Q 53.90625 49.265625 50.4375 45.09375 
Q 46.96875 40.921875 40.578125 39.3125 
z
" id="DejaVuSans-33"/>
      </defs>
      <g transform="translate(4.142129 187.398437)scale(0.1 -0.1)">
       <use xlink:href="#DejaVuSans-2d"/>
       <use x="36.083984" xlink:href="#DejaVuSans-33"/>
      </g>
     </g>
    </g>
    <g id="xtick_2">
     <g id="line2d_2">
      <g>
       <use style="stroke:#000000;stroke-width:0.8;" x="72.039871" xlink:href="#mffe39fc329" y="172.8"/>
      </g>
     </g>
     <g id="text_2">
      <!-- -2 -->
      <defs>
       <path d="M 19.1875 8.296875 
L 53.609375 8.296875 
L 53.609375 0 
L 7.328125 0 
L 7.328125 8.296875 
Q 12.9375 14.109375 22.625 23.890625 
Q 32.328125 33.6875 34.8125 36.53125 
Q 39.546875 41.84375 41.421875 45.53125 
Q 43.3125 49.21875 43.3125 52.78125 
Q 43.3125 58.59375 39.234375 62.25 
Q 35.15625 65.921875 28.609375 65.921875 
Q 23.96875 65.921875 18.8125 64.3125 
Q 13.671875 62.703125 7.8125 59.421875 
L 7.8125 69.390625 
Q 13.765625 71.78125 18.9375 73 
Q 24.125 74.21875 28.421875 74.21875 
Q 39.75 74.21875 46.484375 68.546875 
Q 53.21875 62.890625 53.21875 53.421875 
Q 53.21875 48.921875 51.53125 44.890625 
Q 49.859375 40.875 45.40625 35.40625 
Q 44.1875 33.984375 37.640625 27.21875 
Q 31.109375 20.453125 19.1875 8.296875 
z
" id="DejaVuSans-32"/>
      </defs>
      <g transform="translate(67.054715 187.398437)scale(0.1 -0.1)">
       <use xlink:href="#DejaVuSans-2d"/>
       <use x="36.083984" xlink:href="#DejaVuSans-32"/>
      </g>
     </g>
    </g>
    <g id="xtick_3">
     <g id="line2d_3">
      <g>
       <use style="stroke:#000000;stroke-width:0.8;" x="134.952457" xlink:href="#mffe39fc329" y="172.8"/>
      </g>
     </g>
     <g id="text_3">
      <!-- -1 -->
      <defs>
       <path d="M 12.40625 8.296875 
L 28.515625 8.296875 
L 28.515625 63.921875 
L 10.984375 60.40625 
L 10.984375 69.390625 
L 28.421875 72.90625 
L 38.28125 72.90625 
L 38.28125 8.296875 
L 54.390625 8.296875 
L 54.390625 0 
L 12.40625 0 
z
" id="DejaVuSans-31"/>
      </defs>
      <g transform="translate(129.9673 187.398437)scale(0.1 -0.1)">
       <use xlink:href="#DejaVuSans-2d"/>
       <use x="36.083984" xlink:href="#DejaVuSans-31"/>
      </g>
     </g>
    </g>
    <g id="xtick_4">
     <g id="line2d_4">
      <g>
       <use style="stroke:#000000;stroke-width:0.8;" x="197.865042" xlink:href="#mffe39fc329" y="172.8"/>
      </g>
     </g>
    </g>
    <g id="xtick_5">
     <g id="line2d_5">
      <g>
       <use style="stroke:#000000;stroke-width:0.8;" x="260.777628" xlink:href="#mffe39fc329" y="172.8"/>
      </g>
     </g>
     <g id="text_4">
      <!-- 1 -->
      <g transform="translate(257.596378 187.398437)scale(0.1 -0.1)">
       <use xlink:href="#DejaVuSans-31"/>
      </g>
     </g>
    </g>
    <g id="xtick_6">
     <g id="line2d_6">
      <g>
       <use style="stroke:#000000;stroke-width:0.8;" x="323.690213" xlink:href="#mffe39fc329" y="172.8"/>
      </g>
     </g>
     <g id="text_5">
      <!-- 2 -->
      <g transform="translate(320.508963 187.398437)scale(0.1 -0.1)">
       <use xlink:href="#DejaVuSans-32"/>
      </g>
     </g>
    </g>
    <g id="xtick_7">
     <g id="line2d_7">
      <g>
       <use style="stroke:#000000;stroke-width:0.8;" x="386.602799" xlink:href="#mffe39fc329" y="172.8"/>
      </g>
     </g>
     <g id="text_6">
      <!-- 3 -->
      <g transform="translate(383.421549 187.398437)scale(0.1 -0.1)">
       <use xlink:href="#DejaVuSans-33"/>
      </g>
     </g>
    </g>
    <g id="xtick_8">
     <g id="line2d_8">
      <g>
       <use style="stroke:#000000;stroke-width:0.8;" x="449.515385" xlink:href="#mffe39fc329" y="172.8"/>
      </g>
     </g>
     <g id="text_7">
      <!-- 4 -->
      <defs>
       <path d="M 37.796875 64.3125 
L 12.890625 25.390625 
L 37.796875 25.390625 
z
M 35.203125 72.90625 
L 47.609375 72.90625 
L 47.609375 25.390625 
L 58.015625 25.390625 
L 58.015625 17.1875 
L 47.609375 17.1875 
L 47.609375 0 
L 37.796875 0 
L 37.796875 17.1875 
L 4.890625 17.1875 
L 4.890625 26.703125 
z
" id="DejaVuSans-34"/>
      </defs>
      <g transform="translate(446.334135 187.398437)scale(0.1 -0.1)">
       <use xlink:href="#DejaVuSans-34"/>
      </g>
     </g>
    </g>
    <g id="xtick_9">
     <g id="line2d_9">
      <defs>
       <path d="M 0 0 
L 0 2 
" id="m7a447553f4" style="stroke:#000000;stroke-width:0.6;"/>
      </defs>
      <g>
       <use style="stroke:#000000;stroke-width:0.6;" x="21.709803" xlink:href="#m7a447553f4" y="172.8"/>
      </g>
     </g>
    </g>
    <g id="xtick_10">
     <g id="line2d_10">
      <g>
       <use style="stroke:#000000;stroke-width:0.6;" x="34.29232" xlink:href="#m7a447553f4" y="172.8"/>
      </g>
     </g>
    </g>
    <g id="xtick_11">
     <g id="line2d_11">
      <g>
       <use style="stroke:#000000;stroke-width:0.6;" x="46.874837" xlink:href="#m7a447553f4" y="172.8"/>
      </g>
     </g>
    </g>
    <g id="xtick_12">
     <g id="line2d_12">
      <g>
       <use style="stroke:#000000;stroke-width:0.6;" x="59.457354" xlink:href="#m7a447553f4" y="172.8"/>
      </g>
     </g>
    </g>
    <g id="xtick_13">
     <g id="line2d_13">
      <g>
       <use style="stroke:#000000;stroke-width:0.6;" x="84.622388" xlink:href="#m7a447553f4" y="172.8"/>
      </g>
     </g>
    </g>
    <g id="xtick_14">
     <g id="line2d_14">
      <g>
       <use style="stroke:#000000;stroke-width:0.6;" x="97.204905" xlink:href="#m7a447553f4" y="172.8"/>
      </g>
     </g>
    </g>
    <g id="xtick_15">
     <g id="line2d_15">
      <g>
       <use style="stroke:#000000;stroke-width:0.6;" x="109.787422" xlink:href="#m7a447553f4" y="172.8"/>
      </g>
     </g>
    </g>
    <g id="xtick_16">
     <g id="line2d_16">
      <g>
       <use style="stroke:#000000;stroke-width:0.6;" x="122.36994" xlink:href="#m7a447553f4" y="172.8"/>
      </g>
     </g>
    </g>
    <g id="xtick_17">
     <g id="line2d_17">
      <g>
       <use style="stroke:#000000;stroke-width:0.6;" x="147.534974" xlink:href="#m7a447553f4" y="172.8"/>
      </g>
     </g>
    </g>
    <g id="xtick_18">
     <g id="line2d_18">
      <g>
       <use style="stroke:#000000;stroke-width:0.6;" x="160.117491" xlink:href="#m7a447553f4" y="172.8"/>
      </g>
     </g>
    </g>
    <g id="xtick_19">
     <g id="line2d_19">
      <g>
       <use style="stroke:#000000;stroke-width:0.6;" x="172.700008" xlink:href="#m7a447553f4" y="172.8"/>
      </g>
     </g>
    </g>
    <g id="xtick_20">
     <g id="line2d_20">
      <g>
       <use style="stroke:#000000;stroke-width:0.6;" x="185.282525" xlink:href="#m7a447553f4" y="172.8"/>
      </g>
     </g>
    </g>
    <g id="xtick_21">
     <g id="line2d_21">
      <g>
       <use style="stroke:#000000;stroke-width:0.6;" x="210.447559" xlink:href="#m7a447553f4" y="172.8"/>
      </g>
     </g>
    </g>
    <g id="xtick_22">
     <g id="line2d_22">
      <g>
       <use style="stroke:#000000;stroke-width:0.6;" x="223.030076" xlink:href="#m7a447553f4" y="172.8"/>
      </g>
     </g>
    </g>
    <g id="xtick_23">
     <g id="line2d_23">
      <g>
       <use style="stroke:#000000;stroke-width:0.6;" x="235.612594" xlink:href="#m7a447553f4" y="172.8"/>
      </g>
     </g>
    </g>
    <g id="xtick_24">
     <g id="line2d_24">
      <g>
       <use style="stroke:#000000;stroke-width:0.6;" x="248.195111" xlink:href="#m7a447553f4" y="172.8"/>
      </g>
     </g>
    </g>
    <g id="xtick_25">
     <g id="line2d_25">
      <g>
       <use style="stroke:#000000;stroke-width:0.6;" x="273.360145" xlink:href="#m7a447553f4" y="172.8"/>
      </g>
     </g>
    </g>
    <g id="xtick_26">
     <g id="line2d_26">
      <g>
       <use style="stroke:#000000;stroke-width:0.6;" x="285.942662" xlink:href="#m7a447553f4" y="172.8"/>
      </g>
     </g>
    </g>
    <g id="xtick_27">
     <g id="line2d_27">
      <g>
       <use style="stroke:#000000;stroke-width:0.6;" x="298.525179" xlink:href="#m7a447553f4" y="172.8"/>
      </g>
     </g>
    </g>
    <g id="xtick_28">
     <g id="line2d_28">
      <g>
       <use style="stroke:#000000;stroke-width:0.6;" x="311.107696" xlink:href="#m7a447553f4" y="172.8"/>
      </g>
     </g>
    </g>
    <g id="xtick_29">
     <g id="line2d_29">
      <g>
       <use style="stroke:#000000;stroke-width:0.6;" x="336.272731" xlink:href="#m7a447553f4" y="172.8"/>
      </g>
     </g>
    </g>
    <g id="xtick_30">
     <g id="line2d_30">
      <g>
       <use style="stroke:#000000;stroke-width:0.6;" x="348.855248" xlink:href="#m7a447553f4" y="172.8"/>
      </g>
     </g>
    </g>
    <g id="xtick_31">
     <g id="line2d_31">
      <g>
       <use style="stroke:#000000;stroke-width:0.6;" x="361.437765" xlink:href="#m7a447553f4" y="172.8"/>
      </g>
     </g>
    </g>
    <g id="xtick_32">
     <g id="line2d_32">
      <g>
       <use style="stroke:#000000;stroke-width:0.6;" x="374.020282" xlink:href="#m7a447553f4" y="172.8"/>
      </g>
     </g>
    </g>
    <g id="xtick_33">
     <g id="line2d_33">
      <g>
       <use style="stroke:#000000;stroke-width:0.6;" x="399.185316" xlink:href="#m7a447553f4" y="172.8"/>
      </g>
     </g>
    </g>
    <g id="xtick_34">
     <g id="line2d_34">
      <g>
       <use style="stroke:#000000;stroke-width:0.6;" x="411.767833" xlink:href="#m7a447553f4" y="172.8"/>
      </g>
     </g>
    </g>
    <g id="xtick_35">
     <g id="line2d_35">
      <g>
       <use style="stroke:#000000;stroke-width:0.6;" x="424.35035" xlink:href="#m7a447553f4" y="172.8"/>
      </g>
     </g>
    </g>
    <g id="xtick_36">
     <g id="line2d_36">
      <g>
       <use style="stroke:#000000;stroke-width:0.6;" x="436.932867" xlink:href="#m7a447553f4" y="172.8"/>
      </g>
     </g>
    </g>
   </g>
   <g id="matplotlib.axis_2">
    <g id="ytick_1">
     <g id="line2d_37">
      <defs>
       <path d="M 0 0 
L -3.5 0 
" id="m8f8af20243" style="stroke:#000000;stroke-width:0.8;"/>
      </defs>
      <g>
       <use style="stroke:#000000;stroke-width:0.8;" x="197.865042" xlink:href="#m8f8af20243" y="303.784615"/>
      </g>
     </g>
     <g id="text_8">
      <!-- -4 -->
      <g transform="translate(180.89473 307.583834)scale(0.1 -0.1)">
       <use xlink:href="#DejaVuSans-2d"/>
       <use x="36.083984" xlink:href="#DejaVuSans-34"/>
      </g>
     </g>
    </g>
    <g id="ytick_2">
     <g id="line2d_38">
      <g>
       <use style="stroke:#000000;stroke-width:0.8;" x="197.865042" xlink:href="#m8f8af20243" y="238.292308"/>
      </g>
     </g>
     <g id="text_9">
      <!-- -2 -->
      <g transform="translate(180.89473 242.091526)scale(0.1 -0.1)">
       <use xlink:href="#DejaVuSans-2d"/>
       <use x="36.083984" xlink:href="#DejaVuSans-32"/>
      </g>
     </g>
    </g>
    <g id="ytick_3">
     <g id="line2d_39">
      <g>
       <use style="stroke:#000000;stroke-width:0.8;" x="197.865042" xlink:href="#m8f8af20243" y="172.8"/>
      </g>
     </g>
    </g>
    <g id="ytick_4">
     <g id="line2d_40">
      <g>
       <use style="stroke:#000000;stroke-width:0.8;" x="197.865042" xlink:href="#m8f8af20243" y="107.307692"/>
      </g>
     </g>
     <g id="text_10">
      <!-- 2 -->
      <g transform="translate(184.502542 111.106911)scale(0.1 -0.1)">
       <use xlink:href="#DejaVuSans-32"/>
      </g>
     </g>
    </g>
    <g id="ytick_5">
     <g id="line2d_41">
      <g>
       <use style="stroke:#000000;stroke-width:0.8;" x="197.865042" xlink:href="#m8f8af20243" y="41.815385"/>
      </g>
     </g>
     <g id="text_11">
      <!-- 4 -->
      <g transform="translate(184.502542 45.614603)scale(0.1 -0.1)">
       <use xlink:href="#DejaVuSans-34"/>
      </g>
     </g>
    </g>
    <g id="ytick_6">
     <g id="line2d_42">
      <defs>
       <path d="M 0 0 
L -2 0 
" id="m3a4fc2b957" style="stroke:#000000;stroke-width:0.6;"/>
      </defs>
      <g>
       <use style="stroke:#000000;stroke-width:0.6;" x="197.865042" xlink:href="#m3a4fc2b957" y="336.530769"/>
      </g>
     </g>
    </g>
    <g id="ytick_7">
     <g id="line2d_43">
      <g>
       <use style="stroke:#000000;stroke-width:0.6;" x="197.865042" xlink:href="#m3a4fc2b957" y="320.157692"/>
      </g>
     </g>
    </g>
    <g id="ytick_8">
     <g id="line2d_44">
      <g>
       <use style="stroke:#000000;stroke-width:0.6;" x="197.865042" xlink:href="#m3a4fc2b957" y="287.411538"/>
      </g>
     </g>
    </g>
    <g id="ytick_9">
     <g id="line2d_45">
      <g>
       <use style="stroke:#000000;stroke-width:0.6;" x="197.865042" xlink:href="#m3a4fc2b957" y="271.038462"/>
      </g>
     </g>
    </g>
    <g id="ytick_10">
     <g id="line2d_46">
      <g>
       <use style="stroke:#000000;stroke-width:0.6;" x="197.865042" xlink:href="#m3a4fc2b957" y="254.665385"/>
      </g>
     </g>
    </g>
    <g id="ytick_11">
     <g id="line2d_47">
      <g>
       <use style="stroke:#000000;stroke-width:0.6;" x="197.865042" xlink:href="#m3a4fc2b957" y="221.919231"/>
      </g>
     </g>
    </g>
    <g id="ytick_12">
     <g id="line2d_48">
      <g>
       <use style="stroke:#000000;stroke-width:0.6;" x="197.865042" xlink:href="#m3a4fc2b957" y="205.546154"/>
      </g>
     </g>
    </g>
    <g id="ytick_13">
     <g id="line2d_49">
      <g>
       <use style="stroke:#000000;stroke-width:0.6;" x="197.865042" xlink:href="#m3a4fc2b957" y="189.173077"/>
      </g>
     </g>
    </g>
    <g id="ytick_14">
     <g id="line2d_50">
      <g>
       <use style="stroke:#000000;stroke-width:0.6;" x="197.865042" xlink:href="#m3a4fc2b957" y="156.426923"/>
      </g>
     </g>
    </g>
    <g id="ytick_15">
     <g id="line2d_51">
      <g>
       <use style="stroke:#000000;stroke-width:0.6;" x="197.865042" xlink:href="#m3a4fc2b957" y="140.053846"/>
      </g>
     </g>
    </g>
    <g id="ytick_16">
     <g id="line2d_52">
      <g>
       <use style="stroke:#000000;stroke-width:0.6;" x="197.865042" xlink:href="#m3a4fc2b957" y="123.680769"/>
      </g>
     </g>
    </g>
    <g id="ytick_17">
     <g id="line2d_53">
      <g>
       <use style="stroke:#000000;stroke-width:0.6;" x="197.865042" xlink:href="#m3a4fc2b957" y="90.934615"/>
      </g>
     </g>
    </g>
    <g id="ytick_18">
     <g id="line2d_54">
      <g>
       <use style="stroke:#000000;stroke-width:0.6;" x="197.865042" xlink:href="#m3a4fc2b957" y="74.561538"/>
      </g>
     </g>
    </g>
    <g id="ytick_19">
     <g id="line2d_55">
      <g>
       <use style="stroke:#000000;stroke-width:0.6;" x="197.865042" xlink:href="#m3a4fc2b957" y="58.188462"/>
      </g>
     </g>
    </g>
    <g id="ytick_20">
     <g id="line2d_56">
      <g>
       <use style="stroke:#000000;stroke-width:0.6;" x="197.865042" xlink:href="#m3a4fc2b957" y="25.442308"/>
      </g>
     </g>
    </g>
    <g id="ytick_21">
     <g id="line2d_57">
      <g>
       <use style="stroke:#000000;stroke-width:0.6;" x="197.865042" xlink:href="#m3a4fc2b957" y="9.069231"/>
      </g>
     </g>
    </g>
   </g>
   <g id="line2d_58">
    <path clip-path="url(#p87178c83e1)" d="M 11.284615 339.257822 
L 11.804861 308.445452 
L 12.390137 285.571303 
L 13.040444 268.228531 
L 13.716085 255.463703 
L 14.504681 244.67547 
L 15.293277 236.699347 
L 16.169495 229.988612 
L 17.106836 224.502378 
L 18.15917 219.770172 
L 19.211503 216.096272 
L 20.05337 213.716528 
L 21.23374 211.00902 
L 22.499468 208.727194 
L 23.921598 206.73898 
L 25.23088 205.322234 
L 26.540161 204.21903 
L 27.868683 203.362021 
L 29.197204 202.727179 
L 30.826548 202.207751 
L 32.450508 201.93825 
L 34.074468 201.891315 
L 35.689292 202.050548 
L 37.579813 202.489359 
L 39.319149 203.134887 
L 41.507179 204.292996 
L 43.516847 205.729902 
L 45.400416 207.447955 
L 46.813092 209.009542 
L 48.533992 211.284119 
L 50.072447 213.728887 
L 51.728903 216.89227 
L 52.971245 219.706121 
L 54.32209 223.294658 
L 55.633792 227.429565 
L 56.966403 232.45842 
L 58.28877 238.51005 
L 59.475826 245.117657 
L 60.610861 252.806861 
L 61.631607 261.234481 
L 62.652353 271.579816 
L 63.581353 283.248375 
L 64.521169 298.078187 
L 65.398323 315.801023 
L 66.158165 335.511742 
L 66.512465 346.6 
L 66.512465 346.6 
" style="fill:none;stroke:#0000ff;stroke-linecap:square;"/>
   </g>
   <g id="line2d_59">
    <path clip-path="url(#p87178c83e1)" d="M 78.679569 -1 
L 79.554783 16.552512 
L 80.462253 30.763563 
L 81.462542 43.111894 
L 82.438291 52.728691 
L 83.576665 61.725923 
L 84.783278 69.318893 
L 86.017186 75.531303 
L 87.103016 79.992327 
L 88.245235 83.874208 
L 89.387454 87.07421 
L 90.566587 89.78255 
L 91.737272 91.9651 
L 92.943344 93.759656 
L 93.937224 94.933138 
L 94.975768 95.893973 
L 96.014311 96.605693 
L 97.324926 97.174785 
L 98.383705 97.382326 
L 99.72848 97.336027 
L 100.812782 97.052709 
L 101.897083 96.5518 
L 102.859535 95.923715 
L 104.1841 94.770871 
L 105.632554 93.111324 
L 107.107287 90.96336 
L 108.272462 88.910357 
L 109.796168 85.698803 
L 111.319874 81.810204 
L 112.676393 77.686931 
L 113.833166 73.597442 
L 115.30095 67.510152 
L 116.61855 61.019206 
L 117.93615 53.335 
L 119.109788 45.252618 
L 120.431635 34.395478 
L 121.602079 22.811844 
L 122.778539 8.748256 
L 123.473272 -1 
L 123.473272 -1 
" style="fill:none;stroke:#0000ff;stroke-linecap:square;"/>
   </g>
   <g id="line2d_60">
    <path clip-path="url(#p87178c83e1)" d="M 148.839244 346.6 
L 149.77869 338.138369 
L 151.107687 328.086863 
L 152.311886 320.545525 
L 153.50004 314.286633 
L 154.688195 309.00424 
L 155.876349 304.548284 
L 157.250865 300.273681 
L 158.462064 297.185763 
L 159.673263 294.658261 
L 160.97298 292.50648 
L 162.306956 290.848347 
L 163.196273 290.032151 
L 164.085591 289.436687 
L 165.144815 289.006655 
L 166.066663 288.874397 
L 166.988511 288.965191 
L 168.163856 289.405258 
L 169.276152 290.161961 
L 170.388447 291.260282 
L 171.576041 292.828465 
L 172.914232 295.11924 
L 174.01663 297.4597 
L 175.325396 300.828101 
L 176.634161 304.918573 
L 177.926944 309.777567 
L 179.187761 315.435784 
L 180.508977 322.530191 
L 181.641448 329.757753 
L 182.812277 338.5929 
L 183.719805 346.6 
L 183.719805 346.6 
" style="fill:none;stroke:#0000ff;stroke-linecap:square;"/>
   </g>
   <g id="line2d_61">
    <path clip-path="url(#p87178c83e1)" d="M 208.834205 -1 
L 210.00399 16.651418 
L 211.175306 31.149449 
L 212.487885 44.56595 
L 213.760219 55.393234 
L 215.190039 65.597619 
L 216.686519 74.551561 
L 218.256846 82.470067 
L 219.674006 88.586358 
L 221.144798 94.100321 
L 222.854727 99.641321 
L 224.711867 104.800959 
L 226.580979 109.264027 
L 228.618453 113.453125 
L 230.66826 117.086804 
L 232.695336 120.209135 
L 234.670717 122.876219 
L 236.500117 125.066058 
L 238.591736 127.288033 
L 240.984139 129.515509 
L 243.227932 131.345618 
L 245.322865 132.860259 
L 247.495743 134.259262 
L 250.87638 136.137635 
L 253.585585 137.419194 
L 257.540144 138.991115 
L 260.506671 139.971836 
L 264.358323 141.029882 
L 268.715213 141.975515 
L 273.822315 142.796256 
L 279.020554 143.3597 
L 284.466989 143.695388 
L 289.293436 143.798916 
L 294.499371 143.723887 
L 298.904656 143.518098 
L 304.995856 143.027779 
L 310.872853 142.333036 
L 317.281728 141.326726 
L 320.521143 140.717339 
L 325.132513 139.729332 
L 331.867414 138.019971 
L 338.77444 135.91421 
L 344.486924 133.8777 
L 349.301085 131.934564 
L 354.967066 129.356344 
L 360.300999 126.612772 
L 364.096523 124.455494 
L 368.895676 121.460609 
L 373.980071 117.930856 
L 379.219275 113.867332 
L 383.464982 110.222705 
L 386.58866 107.321273 
L 391.427422 102.424245 
L 395.849473 97.479923 
L 398.897691 93.785793 
L 402.874645 88.583585 
L 406.049398 84.094592 
L 410.146545 77.82022 
L 414.134854 71.143888 
L 417.553281 64.932834 
L 420.30152 59.585009 
L 424.161019 51.496877 
L 427.599739 43.673916 
L 430.842571 35.716852 
L 433.77629 27.993943 
L 437.310753 17.973198 
L 440.389075 8.555492 
L 443.302169 -1 
L 443.302169 -1 
" style="fill:none;stroke:#0000ff;stroke-linecap:square;"/>
   </g>
   <g id="patch_3">
    <path d="M 197.865042 343.08 
L 197.865042 2.52 
" style="fill:none;stroke:#000000;stroke-linecap:square;stroke-linejoin:miter;stroke-width:0.8;"/>
   </g>
   <g id="patch_4">
    <path d="M 2.52 172.8 
L 458.28 172.8 
" style="fill:none;stroke:#000000;stroke-linecap:square;stroke-linejoin:miter;stroke-width:0.8;"/>
   </g>
  </g>
 </g>
 <defs>
  <clipPath id="p87178c83e1">
   <rect height="340.56" width="455.76" x="2.52" y="2.52"/>
  </clipPath>
 </defs>
</svg>
