<?xml version="1.0" encoding="utf-8" standalone="no"?>
<!DOCTYPE svg PUBLIC "-//W3C//DTD SVG 1.1//EN"
  "http://www.w3.org/Graphics/SVG/1.1/DTD/svg11.dtd">
<svg xmlns:xlink="http://www.w3.org/1999/xlink" width="460.8pt" height="345.6pt" viewBox="0 0 460.8 345.6" xmlns="http://www.w3.org/2000/svg" version="1.1">
 <metadata>
  <rdf:RDF xmlns:dc="http://purl.org/dc/elements/1.1/" xmlns:cc="http://creativecommons.org/ns#" xmlns:rdf="http://www.w3.org/1999/02/22-rdf-syntax-ns#">
   <cc:Work>
    <dc:type rdf:resource="http://purl.org/dc/dcmitype/StillImage"/>
    <dc:date>2022-01-31T17:28:34.045254</dc:date>
    <dc:format>image/svg+xml</dc:format>
    <dc:creator>
     <cc:Agent>
      <dc:title>Matplotlib v3.5.1, https://matplotlib.org/</dc:title>
     </cc:Agent>
    </dc:creator>
   </cc:Work>
  </rdf:RDF>
 </metadata>
 <defs>
  <style type="text/css">*{stroke-linejoin: round; stroke-linecap: butt}</style>
 </defs>
 <g id="figure_1">
  <g id="patch_1">
   <path d="M 0 345.6 
L 460.8 345.6 
L 460.8 0 
L 0 0 
z
" style="fill: #ffffff"/>
  </g>
  <g id="axes_1">
   <g id="patch_2">
    <path d="M 3.826531 345.6 
L 460.8 345.6 
L 460.8 0 
L 3.826531 0 
z
" style="fill: #ffffff"/>
   </g>
   <g id="matplotlib.axis_1">
    <g id="xtick_1">
     <g id="line2d_1">
      <defs>
       <path id="m4126fb247b" d="M 0 0 
L 0 3.5 
" style="stroke: #000000; stroke-width: 0.8"/>
      </defs>
      <g>
       <use xlink:href="#m4126fb247b" x="12.614482" y="172.800129" style="stroke: #000000; stroke-width: 0.8"/>
      </g>
     </g>
     <g id="text_1">
      <!-- −1.0 -->
      <g transform="translate(0.473076 187.398567)scale(0.1 -0.1)">
       <defs>
        <path id="DejaVuSans-2212" d="M 678 2272 
L 4684 2272 
L 4684 1741 
L 678 1741 
L 678 2272 
z
" transform="scale(0.015625)"/>
        <path id="DejaVuSans-31" d="M 794 531 
L 1825 531 
L 1825 4091 
L 703 3866 
L 703 4441 
L 1819 4666 
L 2450 4666 
L 2450 531 
L 3481 531 
L 3481 0 
L 794 0 
L 794 531 
z
" transform="scale(0.015625)"/>
        <path id="DejaVuSans-2e" d="M 684 794 
L 1344 794 
L 1344 0 
L 684 0 
L 684 794 
z
" transform="scale(0.015625)"/>
        <path id="DejaVuSans-30" d="M 2034 4250 
Q 1547 4250 1301 3770 
Q 1056 3291 1056 2328 
Q 1056 1369 1301 889 
Q 1547 409 2034 409 
Q 2525 409 2770 889 
Q 3016 1369 3016 2328 
Q 3016 3291 2770 3770 
Q 2525 4250 2034 4250 
z
M 2034 4750 
Q 2819 4750 3233 4129 
Q 3647 3509 3647 2328 
Q 3647 1150 3233 529 
Q 2819 -91 2034 -91 
Q 1250 -91 836 529 
Q 422 1150 422 2328 
Q 422 3509 836 4129 
Q 1250 4750 2034 4750 
z
" transform="scale(0.015625)"/>
       </defs>
       <use xlink:href="#DejaVuSans-2212"/>
       <use xlink:href="#DejaVuSans-31" x="83.789062"/>
       <use xlink:href="#DejaVuSans-2e" x="147.412109"/>
       <use xlink:href="#DejaVuSans-30" x="179.199219"/>
      </g>
     </g>
    </g>
    <g id="xtick_2">
     <g id="line2d_2">
      <g>
       <use xlink:href="#m4126fb247b" x="122.463874" y="172.800129" style="stroke: #000000; stroke-width: 0.8"/>
      </g>
     </g>
     <g id="text_2">
      <!-- −0.5 -->
      <g transform="translate(110.322468 187.398567)scale(0.1 -0.1)">
       <defs>
        <path id="DejaVuSans-35" d="M 691 4666 
L 3169 4666 
L 3169 4134 
L 1269 4134 
L 1269 2991 
Q 1406 3038 1543 3061 
Q 1681 3084 1819 3084 
Q 2600 3084 3056 2656 
Q 3513 2228 3513 1497 
Q 3513 744 3044 326 
Q 2575 -91 1722 -91 
Q 1428 -91 1123 -41 
Q 819 9 494 109 
L 494 744 
Q 775 591 1075 516 
Q 1375 441 1709 441 
Q 2250 441 2565 725 
Q 2881 1009 2881 1497 
Q 2881 1984 2565 2268 
Q 2250 2553 1709 2553 
Q 1456 2553 1204 2497 
Q 953 2441 691 2322 
L 691 4666 
z
" transform="scale(0.015625)"/>
       </defs>
       <use xlink:href="#DejaVuSans-2212"/>
       <use xlink:href="#DejaVuSans-30" x="83.789062"/>
       <use xlink:href="#DejaVuSans-2e" x="147.412109"/>
       <use xlink:href="#DejaVuSans-35" x="179.199219"/>
      </g>
     </g>
    </g>
    <g id="xtick_3">
     <g id="line2d_3">
      <g>
       <use xlink:href="#m4126fb247b" x="232.313266" y="172.800129" style="stroke: #000000; stroke-width: 0.8"/>
      </g>
     </g>
    </g>
    <g id="xtick_4">
     <g id="line2d_4">
      <g>
       <use xlink:href="#m4126fb247b" x="342.162657" y="172.800129" style="stroke: #000000; stroke-width: 0.8"/>
      </g>
     </g>
     <g id="text_3">
      <!-- 0.5 -->
      <g transform="translate(334.211095 187.398567)scale(0.1 -0.1)">
       <use xlink:href="#DejaVuSans-30"/>
       <use xlink:href="#DejaVuSans-2e" x="63.623047"/>
       <use xlink:href="#DejaVuSans-35" x="95.410156"/>
      </g>
     </g>
    </g>
    <g id="xtick_5">
     <g id="line2d_5">
      <g>
       <use xlink:href="#m4126fb247b" x="452.012049" y="172.800129" style="stroke: #000000; stroke-width: 0.8"/>
      </g>
     </g>
     <g id="text_4">
      <!-- 1.0 -->
      <g transform="translate(444.060486 187.398567)scale(0.1 -0.1)">
       <use xlink:href="#DejaVuSans-31"/>
       <use xlink:href="#DejaVuSans-2e" x="63.623047"/>
       <use xlink:href="#DejaVuSans-30" x="95.410156"/>
      </g>
     </g>
    </g>
    <g id="xtick_6">
     <g id="line2d_6">
      <defs>
       <path id="m3b57aeb2dd" d="M 0 0 
L 0 2 
" style="stroke: #000000; stroke-width: 0.6"/>
      </defs>
      <g>
       <use xlink:href="#m3b57aeb2dd" x="34.584361" y="172.800129" style="stroke: #000000; stroke-width: 0.6"/>
      </g>
     </g>
    </g>
    <g id="xtick_7">
     <g id="line2d_7">
      <g>
       <use xlink:href="#m3b57aeb2dd" x="56.554239" y="172.800129" style="stroke: #000000; stroke-width: 0.6"/>
      </g>
     </g>
    </g>
    <g id="xtick_8">
     <g id="line2d_8">
      <g>
       <use xlink:href="#m3b57aeb2dd" x="78.524117" y="172.800129" style="stroke: #000000; stroke-width: 0.6"/>
      </g>
     </g>
    </g>
    <g id="xtick_9">
     <g id="line2d_9">
      <g>
       <use xlink:href="#m3b57aeb2dd" x="100.493996" y="172.800129" style="stroke: #000000; stroke-width: 0.6"/>
      </g>
     </g>
    </g>
    <g id="xtick_10">
     <g id="line2d_10">
      <g>
       <use xlink:href="#m3b57aeb2dd" x="144.433752" y="172.800129" style="stroke: #000000; stroke-width: 0.6"/>
      </g>
     </g>
    </g>
    <g id="xtick_11">
     <g id="line2d_11">
      <g>
       <use xlink:href="#m3b57aeb2dd" x="166.403631" y="172.800129" style="stroke: #000000; stroke-width: 0.6"/>
      </g>
     </g>
    </g>
    <g id="xtick_12">
     <g id="line2d_12">
      <g>
       <use xlink:href="#m3b57aeb2dd" x="188.373509" y="172.800129" style="stroke: #000000; stroke-width: 0.6"/>
      </g>
     </g>
    </g>
    <g id="xtick_13">
     <g id="line2d_13">
      <g>
       <use xlink:href="#m3b57aeb2dd" x="210.343387" y="172.800129" style="stroke: #000000; stroke-width: 0.6"/>
      </g>
     </g>
    </g>
    <g id="xtick_14">
     <g id="line2d_14">
      <g>
       <use xlink:href="#m3b57aeb2dd" x="254.283144" y="172.800129" style="stroke: #000000; stroke-width: 0.6"/>
      </g>
     </g>
    </g>
    <g id="xtick_15">
     <g id="line2d_15">
      <g>
       <use xlink:href="#m3b57aeb2dd" x="276.253022" y="172.800129" style="stroke: #000000; stroke-width: 0.6"/>
      </g>
     </g>
    </g>
    <g id="xtick_16">
     <g id="line2d_16">
      <g>
       <use xlink:href="#m3b57aeb2dd" x="298.2229" y="172.800129" style="stroke: #000000; stroke-width: 0.6"/>
      </g>
     </g>
    </g>
    <g id="xtick_17">
     <g id="line2d_17">
      <g>
       <use xlink:href="#m3b57aeb2dd" x="320.192779" y="172.800129" style="stroke: #000000; stroke-width: 0.6"/>
      </g>
     </g>
    </g>
    <g id="xtick_18">
     <g id="line2d_18">
      <g>
       <use xlink:href="#m3b57aeb2dd" x="364.132535" y="172.800129" style="stroke: #000000; stroke-width: 0.6"/>
      </g>
     </g>
    </g>
    <g id="xtick_19">
     <g id="line2d_19">
      <g>
       <use xlink:href="#m3b57aeb2dd" x="386.102414" y="172.800129" style="stroke: #000000; stroke-width: 0.6"/>
      </g>
     </g>
    </g>
    <g id="xtick_20">
     <g id="line2d_20">
      <g>
       <use xlink:href="#m3b57aeb2dd" x="408.072292" y="172.800129" style="stroke: #000000; stroke-width: 0.6"/>
      </g>
     </g>
    </g>
    <g id="xtick_21">
     <g id="line2d_21">
      <g>
       <use xlink:href="#m3b57aeb2dd" x="430.04217" y="172.800129" style="stroke: #000000; stroke-width: 0.6"/>
      </g>
     </g>
    </g>
   </g>
   <g id="matplotlib.axis_2">
    <g id="ytick_1">
     <g id="line2d_22">
      <defs>
       <path id="m61e5208102" d="M 0 0 
L -3.5 0 
" style="stroke: #000000; stroke-width: 0.8"/>
      </defs>
      <g>
       <use xlink:href="#m61e5208102" x="232.313266" y="338.954117" style="stroke: #000000; stroke-width: 0.8"/>
      </g>
     </g>
     <g id="text_5">
      <!-- −1.0 -->
      <g transform="translate(201.030453 342.753336)scale(0.1 -0.1)">
       <use xlink:href="#DejaVuSans-2212"/>
       <use xlink:href="#DejaVuSans-31" x="83.789062"/>
       <use xlink:href="#DejaVuSans-2e" x="147.412109"/>
       <use xlink:href="#DejaVuSans-30" x="179.199219"/>
      </g>
     </g>
    </g>
    <g id="ytick_2">
     <g id="line2d_23">
      <g>
       <use xlink:href="#m61e5208102" x="232.313266" y="255.877123" style="stroke: #000000; stroke-width: 0.8"/>
      </g>
     </g>
     <g id="text_6">
      <!-- −0.5 -->
      <g transform="translate(201.030453 259.676342)scale(0.1 -0.1)">
       <use xlink:href="#DejaVuSans-2212"/>
       <use xlink:href="#DejaVuSans-30" x="83.789062"/>
       <use xlink:href="#DejaVuSans-2e" x="147.412109"/>
       <use xlink:href="#DejaVuSans-35" x="179.199219"/>
      </g>
     </g>
    </g>
    <g id="ytick_3">
     <g id="line2d_24">
      <g>
       <use xlink:href="#m61e5208102" x="232.313266" y="172.800129" style="stroke: #000000; stroke-width: 0.8"/>
      </g>
     </g>
    </g>
    <g id="ytick_4">
     <g id="line2d_25">
      <g>
       <use xlink:href="#m61e5208102" x="232.313266" y="89.723135" style="stroke: #000000; stroke-width: 0.8"/>
      </g>
     </g>
     <g id="text_7">
      <!-- 0.5 -->
      <g transform="translate(209.410141 93.522354)scale(0.1 -0.1)">
       <use xlink:href="#DejaVuSans-30"/>
       <use xlink:href="#DejaVuSans-2e" x="63.623047"/>
       <use xlink:href="#DejaVuSans-35" x="95.410156"/>
      </g>
     </g>
    </g>
    <g id="ytick_5">
     <g id="line2d_26">
      <g>
       <use xlink:href="#m61e5208102" x="232.313266" y="6.646142" style="stroke: #000000; stroke-width: 0.8"/>
      </g>
     </g>
     <g id="text_8">
      <!-- 1.0 -->
      <g transform="translate(209.410141 10.44536)scale(0.1 -0.1)">
       <use xlink:href="#DejaVuSans-31"/>
       <use xlink:href="#DejaVuSans-2e" x="63.623047"/>
       <use xlink:href="#DejaVuSans-30" x="95.410156"/>
      </g>
     </g>
    </g>
    <g id="ytick_6">
     <g id="line2d_27">
      <defs>
       <path id="m2922c01a33" d="M 0 0 
L -2 0 
" style="stroke: #000000; stroke-width: 0.6"/>
      </defs>
      <g>
       <use xlink:href="#m2922c01a33" x="232.313266" y="322.338718" style="stroke: #000000; stroke-width: 0.6"/>
      </g>
     </g>
    </g>
    <g id="ytick_7">
     <g id="line2d_28">
      <g>
       <use xlink:href="#m2922c01a33" x="232.313266" y="305.723319" style="stroke: #000000; stroke-width: 0.6"/>
      </g>
     </g>
    </g>
    <g id="ytick_8">
     <g id="line2d_29">
      <g>
       <use xlink:href="#m2922c01a33" x="232.313266" y="289.107921" style="stroke: #000000; stroke-width: 0.6"/>
      </g>
     </g>
    </g>
    <g id="ytick_9">
     <g id="line2d_30">
      <g>
       <use xlink:href="#m2922c01a33" x="232.313266" y="272.492522" style="stroke: #000000; stroke-width: 0.6"/>
      </g>
     </g>
    </g>
    <g id="ytick_10">
     <g id="line2d_31">
      <g>
       <use xlink:href="#m2922c01a33" x="232.313266" y="239.261724" style="stroke: #000000; stroke-width: 0.6"/>
      </g>
     </g>
    </g>
    <g id="ytick_11">
     <g id="line2d_32">
      <g>
       <use xlink:href="#m2922c01a33" x="232.313266" y="222.646326" style="stroke: #000000; stroke-width: 0.6"/>
      </g>
     </g>
    </g>
    <g id="ytick_12">
     <g id="line2d_33">
      <g>
       <use xlink:href="#m2922c01a33" x="232.313266" y="206.030927" style="stroke: #000000; stroke-width: 0.6"/>
      </g>
     </g>
    </g>
    <g id="ytick_13">
     <g id="line2d_34">
      <g>
       <use xlink:href="#m2922c01a33" x="232.313266" y="189.415528" style="stroke: #000000; stroke-width: 0.6"/>
      </g>
     </g>
    </g>
    <g id="ytick_14">
     <g id="line2d_35">
      <g>
       <use xlink:href="#m2922c01a33" x="232.313266" y="156.184731" style="stroke: #000000; stroke-width: 0.6"/>
      </g>
     </g>
    </g>
    <g id="ytick_15">
     <g id="line2d_36">
      <g>
       <use xlink:href="#m2922c01a33" x="232.313266" y="139.569332" style="stroke: #000000; stroke-width: 0.6"/>
      </g>
     </g>
    </g>
    <g id="ytick_16">
     <g id="line2d_37">
      <g>
       <use xlink:href="#m2922c01a33" x="232.313266" y="122.953933" style="stroke: #000000; stroke-width: 0.6"/>
      </g>
     </g>
    </g>
    <g id="ytick_17">
     <g id="line2d_38">
      <g>
       <use xlink:href="#m2922c01a33" x="232.313266" y="106.338534" style="stroke: #000000; stroke-width: 0.6"/>
      </g>
     </g>
    </g>
    <g id="ytick_18">
     <g id="line2d_39">
      <g>
       <use xlink:href="#m2922c01a33" x="232.313266" y="73.107737" style="stroke: #000000; stroke-width: 0.6"/>
      </g>
     </g>
    </g>
    <g id="ytick_19">
     <g id="line2d_40">
      <g>
       <use xlink:href="#m2922c01a33" x="232.313266" y="56.492338" style="stroke: #000000; stroke-width: 0.6"/>
      </g>
     </g>
    </g>
    <g id="ytick_20">
     <g id="line2d_41">
      <g>
       <use xlink:href="#m2922c01a33" x="232.313266" y="39.876939" style="stroke: #000000; stroke-width: 0.6"/>
      </g>
     </g>
    </g>
    <g id="ytick_21">
     <g id="line2d_42">
      <g>
       <use xlink:href="#m2922c01a33" x="232.313266" y="23.26154" style="stroke: #000000; stroke-width: 0.6"/>
      </g>
     </g>
    </g>
   </g>
   <g id="line2d_43">
    <path d="M 12.614482 312.613889 
L 54.3598 329.651415 
L 62.621818 332.661157 
L 69.229714 334.816265 
L 73.722898 336.104403 
L 78.628211 337.299184 
L 83.702484 338.244623 
L 86.742002 338.639198 
L 90.652774 338.921173 
L 93.8749 338.932361 
L 97.671397 338.645784 
L 100.903511 338.106293 
L 104.12898 337.255022 
L 106.412196 336.439031 
L 108.813916 335.367646 
L 111.649848 333.790401 
L 114.275285 331.994361 
L 116.996852 329.751183 
L 119.661008 327.135809 
L 121.347241 325.244411 
L 123.661298 322.322903 
L 125.878156 319.139627 
L 128.484331 314.868083 
L 130.870601 310.405231 
L 132.802968 306.368305 
L 134.890684 301.544903 
L 137.079139 295.931499 
L 138.713052 291.340274 
L 141.066645 284.078495 
L 143.637499 275.20154 
L 146.051683 265.889943 
L 148.266254 256.451334 
L 150.6584 245.223157 
L 153.02837 232.975111 
L 155.135207 221.098881 
L 157.574538 206.141177 
L 160.22407 188.394972 
L 163.008474 168.074557 
L 166.058669 143.971946 
L 169.332451 116.333549 
L 177.592216 45.451651 
L 179.508361 31.307524 
L 180.878446 22.541967 
L 181.929174 16.8287 
L 182.915115 12.440884 
L 183.771482 9.524805 
L 184.432631 7.920265 
L 185.09378 6.941896 
L 185.534545 6.666973 
L 185.975311 6.715229 
L 186.416077 7.105422 
L 186.856843 7.856674 
L 187.453264 9.482651 
L 188.075884 11.975992 
L 188.698503 15.337203 
L 189.476778 20.843023 
L 190.283526 28.183864 
L 191.280684 39.713818 
L 192.3207 54.807811 
L 193.360716 73.171578 
L 194.496356 97.011508 
L 195.833207 129.964711 
L 197.437971 175.519644 
L 201.848421 305.829965 
L 202.755731 324.441463 
L 203.401352 333.577885 
L 203.903502 337.743927 
L 204.190445 338.808538 
L 204.333916 338.953846 
L 204.473391 338.837097 
L 204.676607 338.196048 
L 204.947563 336.437408 
L 205.286257 332.716376 
L 205.760429 324.510687 
L 206.30234 310.639916 
L 206.961363 287.123747 
L 207.737498 250.281194 
L 208.707666 192.313907 
L 211.263293 31.898695 
L 211.805623 13.234749 
L 212.115526 7.805086 
L 212.347953 6.652073 
L 212.502904 7.387805 
L 212.735331 10.878078 
L 213.045234 20.197062 
L 213.468342 41.812559 
L 214.044396 87.301 
L 214.850873 175.272793 
L 216.002981 303.322322 
L 216.463825 332.685814 
L 216.694247 338.53479 
L 216.809458 338.861077 
L 216.939006 337.016382 
L 217.133328 329.673758 
L 217.457198 304.939657 
L 217.845842 255.676652 
L 218.558356 129.374763 
L 219.225903 26.327424 
L 219.531394 7.325318 
L 219.607767 6.659904 
L 219.645954 6.996992 
L 219.760513 10.770697 
L 219.951445 26.479818 
L 220.214266 66.892204 
L 220.654571 171.910313 
L 221.315027 322.805662 
L 221.53518 338.843379 
L 221.590218 338.568849 
L 221.700294 332.455033 
L 221.865408 309.200208 
L 222.182157 222.787836 
L 222.815656 21.767431 
L 223.026822 7.412258 
L 223.132405 17.778879 
L 223.343572 73.668736 
L 224.082653 338.94469 
L 224.188237 329.651104 
L 224.399403 254.35839 
L 224.927318 7.469888 
L 225.032902 15.706708 
L 225.244068 117.764833 
L 225.651571 338.949679 
L 225.742127 322.616402 
L 225.92324 201.892775 
L 226.240187 6.833812 
L 226.330743 35.211136 
L 226.692968 336.279563 
L 226.775808 325.504737 
L 227.107169 10.338524 
L 227.190009 24.748516 
L 227.52137 331.781802 
L 227.76989 16.093358 
L 227.85273 31.956313 
L 228.101251 330.322765 
L 228.349771 23.383235 
L 228.515451 332.902555 
L 228.598291 259.86588 
L 228.763972 39.354137 
L 228.929652 316.362208 
L 229.095332 48.877505 
L 229.178173 309.125089 
L 229.343853 8.764594 
L 229.397072 162.718079 
L 229.45029 334.537228 
L 229.503509 229.526905 
L 229.583337 17.725431 
L 229.609947 106.358342 
L 229.663165 328.872961 
L 229.716384 209.382601 
L 229.769603 6.68916 
L 229.822822 214.249636 
L 229.849431 327.953325 
L 229.90265 167.508339 
L 229.955869 28.486478 
L 229.982478 174.74212 
L 230.009087 320.894869 
L 230.062306 137.689457 
L 230.088916 9.645108 
L 230.142134 274.667753 
L 230.168744 329.177247 
L 230.195353 162.655244 
L 230.278046 323.374284 
L 230.443431 14.73622 
L 230.608816 157.545327 
L 230.774202 9.767456 
L 230.856894 182.28571 
L 231.02228 257.23709 
L 231.104972 110.145159 
L 231.187665 238.247963 
L 231.270358 144.181479 
L 231.35305 257.464599 
L 231.435743 36.225015 
L 231.601128 270.706775 
L 231.683821 120.672814 
L 231.766514 123.925295 
L 231.849206 308.17399 
L 231.931899 19.729721 
L 232.014591 244.729805 
L 232.097284 70.342028 
L 232.179977 316.447994 
L 232.262669 256.20384 
L 232.345362 79.896516 
L 232.428055 280.195838 
L 232.510747 111.569136 
L 232.59344 330.388703 
L 232.676133 45.27322 
L 232.758825 148.761239 
L 232.841518 17.513831 
L 232.932386 148.998551 
L 233.023254 6.650254 
L 233.114122 313.602742 
L 233.20499 11.406901 
L 233.295859 257.903662 
L 233.386727 246.624889 
L 233.477595 140.487601 
L 233.568463 302.738866 
L 233.750199 29.184085 
L 233.841067 281.442317 
L 233.931935 271.958339 
L 234.113672 93.905738 
L 234.295408 301.211109 
L 234.386276 295.813838 
L 234.477144 33.065327 
L 234.65888 264.433623 
L 234.749749 39.040725 
L 234.840617 315.76438 
L 234.931485 41.471046 
L 235.022353 264.472179 
L 235.204089 78.919717 
L 235.294957 337.214499 
L 235.385825 59.163044 
L 235.476694 118.2438 
L 235.567562 338.858897 
L 235.749298 24.137659 
L 235.884256 333.277133 
L 235.951734 278.812781 
L 236.086692 7.529428 
L 236.120431 20.603929 
L 236.322868 336.127717 
L 236.356607 305.87982 
L 236.559044 7.334325 
L 236.592783 26.906853 
L 236.828959 338.804737 
L 237.087951 23.928703 
L 237.217447 51.776385 
L 237.476439 337.337448 
L 237.605935 275.889302 
L 237.864927 14.245454 
L 237.994423 35.519893 
L 238.382911 338.570168 
L 238.512407 301.144151 
L 238.900895 17.501726 
L 239.030391 13.092263 
L 239.289383 160.008974 
L 239.548375 316.949143 
L 239.677871 338.939154 
L 239.807367 316.250925 
L 240.584343 8.300808 
L 240.713839 31.211245 
L 241.169634 225.991828 
L 241.497639 328.362277 
L 241.615601 338.696901 
L 241.733562 334.188205 
L 241.969486 287.375486 
L 242.913178 14.370566 
L 243.03114 7.151348 
L 243.149102 8.393342 
L 243.385025 33.562638 
L 243.73891 111.322537 
L 244.564641 304.687362 
L 244.918526 337.079044 
L 245.036487 338.943666 
L 245.154449 336.563491 
L 245.433793 315.813517 
L 245.81032 262.402291 
L 247.208762 36.819738 
L 247.53148 14.037776 
L 247.746625 7.44584 
L 247.854197 6.646154 
L 247.96177 7.436305 
L 248.176915 13.488021 
L 248.499632 32.387558 
L 249.037495 83.112082 
L 251.049905 296.608389 
L 251.574722 325.146219 
L 251.965378 336.154751 
L 252.25837 338.922206 
L 252.356034 338.857663 
L 252.551362 337.331472 
L 252.844354 331.786849 
L 253.23501 319.042324 
L 253.820993 290.839673 
L 254.753883 232.178657 
L 256.761145 102.274712 
L 257.62625 60.093086 
L 258.334062 34.663787 
L 258.963229 19.115633 
L 259.479174 11.148071 
L 259.909557 7.599736 
L 260.19648 6.699178 
L 260.339941 6.664995 
L 260.483402 6.897256 
L 260.698594 7.726734 
L 261.057248 10.320154 
L 261.522273 15.739517 
L 262.160507 26.448622 
L 263.011485 45.425144 
L 264.18158 77.510884 
L 269.72398 239.117319 
L 271.024512 267.69315 
L 272.170928 288.59707 
L 273.317344 305.515283 
L 274.379159 317.782481 
L 275.249905 325.5503 
L 276.062056 331.062694 
L 276.81321 334.778338 
L 277.530704 337.178429 
L 278.060409 338.280601 
L 278.590115 338.851782 
L 278.854967 338.94869 
L 279.309189 338.837046 
L 279.687926 338.488093 
L 280.256032 337.554957 
L 280.824137 336.163587 
L 281.581612 333.658045 
L 282.521702 329.627069 
L 283.637657 323.703707 
L 285.046425 314.783521 
L 286.834549 301.704709 
L 288.731324 286.364227 
L 291.197968 265.159792 
L 297.919291 206.975994 
L 301.332187 179.705957 
L 303.936826 160.485588 
L 306.69536 141.756464 
L 309.119673 126.69573 
L 311.77066 111.694555 
L 314.469886 97.929732 
L 316.856511 86.956196 
L 319.081092 77.675556 
L 321.367667 69.026092 
L 323.840392 60.61432 
L 326.035011 53.906166 
L 328.599405 46.896242 
L 331.03115 41.004252 
L 333.256214 36.201336 
L 335.891704 31.174949 
L 338.260973 27.214441 
L 340.42164 24.021766 
L 342.61 21.160839 
L 345.107603 18.313727 
L 347.89738 15.609988 
L 349.566169 14.21126 
L 351.785597 12.582407 
L 354.874266 10.715328 
L 357.526149 9.444967 
L 360.574534 8.320942 
L 363.038583 7.647035 
L 365.7898 7.115434 
L 369.288055 6.737371 
L 371.86429 6.647177 
L 376.351072 6.818184 
L 378.80142 7.065048 
L 383.754104 7.842465 
L 388.283248 8.827007 
L 392.280239 9.872736 
L 398.418548 11.735635 
L 406.373958 14.495298 
L 414.028698 17.400972 
L 424.951866 21.794371 
L 452.012049 32.98637 
L 452.012049 32.98637 
" clip-path="url(#p12d7897efc)" style="fill: none; stroke: #0000ff; stroke-linecap: square"/>
   </g>
   <g id="patch_3">
    <path d="M 232.313266 345.6 
L 232.313266 -0 
" style="fill: none; stroke: #000000; stroke-width: 0.8; stroke-linejoin: miter; stroke-linecap: square"/>
   </g>
   <g id="patch_4">
    <path d="M 3.826531 172.800129 
L 460.8 172.800129 
" style="fill: none; stroke: #000000; stroke-width: 0.8; stroke-linejoin: miter; stroke-linecap: square"/>
   </g>
  </g>
 </g>
 <defs>
  <clipPath id="p12d7897efc">
   <rect x="3.826531" y="0" width="456.973469" height="345.6"/>
  </clipPath>
 </defs>
</svg>
