<?xml version="1.0" encoding="utf-8" standalone="no"?>
<!DOCTYPE svg PUBLIC "-//W3C//DTD SVG 1.1//EN"
  "http://www.w3.org/Graphics/SVG/1.1/DTD/svg11.dtd">
<!-- Created with matplotlib (https://matplotlib.org/) -->
<svg height="345.6pt" version="1.1" viewBox="0 0 460.8 345.6" width="460.8pt" xmlns="http://www.w3.org/2000/svg" xmlns:xlink="http://www.w3.org/1999/xlink">
 <metadata>
  <rdf:RDF xmlns:cc="http://creativecommons.org/ns#" xmlns:dc="http://purl.org/dc/elements/1.1/" xmlns:rdf="http://www.w3.org/1999/02/22-rdf-syntax-ns#">
   <cc:Work>
    <dc:type rdf:resource="http://purl.org/dc/dcmitype/StillImage"/>
    <dc:date>2021-08-24T12:31:37.836807</dc:date>
    <dc:format>image/svg+xml</dc:format>
    <dc:creator>
     <cc:Agent>
      <dc:title>Matplotlib v3.3.4, https://matplotlib.org/</dc:title>
     </cc:Agent>
    </dc:creator>
   </cc:Work>
  </rdf:RDF>
 </metadata>
 <defs>
  <style type="text/css">*{stroke-linecap:butt;stroke-linejoin:round;}</style>
 </defs>
 <g id="figure_1">
  <g id="patch_1">
   <path d="M 0 345.6 
L 460.8 345.6 
L 460.8 0 
L 0 0 
z
" style="fill:#ffffff;"/>
  </g>
  <g id="axes_1">
   <g id="patch_2">
    <path d="M 0 345.6 
L 460.8 345.6 
L 460.8 0 
L 0 0 
z
" style="fill:#ffffff;"/>
   </g>
   <g id="patch_3">
    <path clip-path="url(#p243965c0ad)" d="M 451.938462 39.876923 
L 450.55514 40.603167 
L 447.4703 42.222708 
L 445.229882 43.398927 
L 442.722538 44.715283 
L 440.657958 45.799188 
L 438.066283 47.159817 
L 437.105351 47.664306 
L 433.307786 49.658028 
L 431.032971 50.852305 
L 429.786257 51.506831 
L 428.092324 52.396145 
L 424.903929 54.070053 
L 422.671382 55.24214 
L 421.066382 56.084765 
L 417.637345 57.885009 
L 415.871996 58.811818 
L 413.847184 59.874844 
L 412.053251 60.816658 
L 409.845067 61.975955 
L 406.331142 63.820766 
L 406.189713 63.895016 
L 403.367916 65.376459 
L 401.308206 66.457807 
L 399.144131 67.593947 
L 395.583691 69.463177 
L 393.00759 70.815631 
L 391.486716 71.614089 
L 388.514915 73.174285 
L 386.296728 74.338833 
L 385.725812 74.638564 
L 382.452095 76.357265 
L 380.937589 77.152381 
L 379.309195 78.007288 
L 375.558809 79.976241 
L 373.012638 81.312981 
L 372.690822 81.481934 
L 369.610101 83.099312 
L 368.270755 83.802469 
L 364.433436 85.817061 
L 362.592655 86.783472 
L 360.750275 87.750721 
L 357.48926 89.462754 
L 355.674327 90.415594 
L 354.532234 91.015193 
L 352.104235 92.289892 
L 349.509698 93.652024 
L 347.531093 94.690791 
L 344.059633 96.513308 
L 342.292546 97.441029 
L 339.514797 98.899347 
L 338.455294 99.455586 
L 336.786103 100.331911 
L 334.060913 101.762636 
L 332.515525 102.573965 
L 329.667621 104.069114 
L 326.737727 105.607309 
L 325.755787 106.122827 
L 322.288729 107.943033 
L 321.25931 108.483478 
L 318.364021 110.003504 
L 315.200798 111.664197 
L 313.085769 112.774587 
L 312.582413 113.038848 
L 310.001952 114.39359 
L 307.425648 115.74615 
L 305.001472 117.018843 
L 302.704754 118.224619 
L 299.694275 119.805121 
L 298.690431 120.332139 
L 296.713247 121.370161 
L 292.855848 123.395295 
L 291.68622 124.00935 
L 290.074366 124.855573 
L 288.238835 125.819227 
L 284.997806 127.520767 
L 282.882736 128.631179 
L 280.378546 129.945879 
L 278.613509 130.872523 
L 275.643048 132.432015 
L 274.788628 132.880586 
L 272.524156 134.069434 
L 269.171662 135.829493 
L 267.655969 136.625232 
L 265.862016 137.567057 
L 262.25443 139.46104 
L 261.030765 140.103464 
L 257.860432 141.767889 
L 255.925616 142.783667 
L 254.585211 143.48738 
L 252.235873 144.720782 
L 249.566894 146.121996 
L 246.647413 147.654724 
L 245.815292 148.091587 
L 242.463245 149.851412 
L 239.797055 151.251162 
L 237.758741 152.321276 
L 235.794351 153.352581 
L 234.479756 154.042744 
L 230.782203 155.983959 
L 229.211979 156.808326 
L 228.125518 157.378719 
L 225.459897 158.778169 
L 223.001538 160.068808 
L 221.021169 161.108502 
L 218.331793 162.520424 
L 214.867619 164.339116 
L 213.278079 165.173624 
L 211.726513 165.988196 
L 209.320132 167.251546 
L 207.917633 167.987858 
L 205.848655 169.074071 
L 201.753828 171.223856 
L 201.454539 171.380982 
L 197.020644 173.708777 
L 195.560227 174.475496 
L 193.056922 175.789731 
L 191.372487 176.67406 
L 188.358213 178.256554 
L 186.263658 179.356195 
L 185.079598 179.977826 
L 181.595292 181.807087 
L 179.461853 182.927142 
L 178.904415 183.219797 
L 176.866757 184.289568 
L 173.595309 186.007078 
L 171.242958 187.242062 
L 170.179964 187.800134 
L 166.416953 189.775715 
L 165.546194 190.232864 
L 162.053458 192.06655 
L 159.712498 193.295554 
L 157.013381 194.71259 
L 156.105088 195.189444 
L 152.928093 196.857367 
L 151.918489 197.387409 
L 148.832407 199.007602 
L 146.201363 200.3889 
L 144.855221 201.095625 
L 143.05041 202.04315 
L 139.948872 203.671457 
L 138.522572 204.420265 
L 135.0022 206.26846 
L 134.261712 206.657217 
L 130.435769 208.665836 
L 128.53145 209.665604 
L 127.443529 210.236762 
L 124.533678 211.764434 
L 121.882628 213.156236 
L 120.103738 214.090153 
L 117.886011 215.25446 
L 114.72654 216.913182 
L 113.387738 217.616053 
L 110.668067 219.04388 
L 108.827691 220.010078 
L 107.449879 220.733429 
L 103.493359 222.810602 
L 101.440243 223.888488 
L 100.07029 224.607713 
L 97.187309 226.121278 
L 95.368935 227.075925 
L 93.745575 227.928189 
L 91.978655 228.855822 
L 88.799062 230.525108 
L 87.699282 231.102492 
L 85.005409 232.516776 
L 81.670483 234.267612 
L 80.710106 234.77181 
L 77.698419 236.352946 
L 75.511877 237.50088 
L 72.624332 239.016841 
L 72.244584 239.216209 
L 69.990334 240.39969 
L 67.375471 241.772493 
L 63.455547 243.830453 
L 62.900177 244.122022 
L 61.171051 245.029814 
L 58.658374 246.348969 
L 54.688337 248.433239 
L 53.95501 248.818235 
L 51.797767 249.950788 
L 48.484087 251.69047 
L 47.039618 252.448816 
L 44.243842 253.916598 
L 42.621669 254.768239 
L 39.418887 256.4497 
L 38.07157 257.157041 
L 36.270932 258.102376 
L 32.689765 259.982489 
L 32.143092 260.269492 
L 28.34189 262.265123 
L 25.670161 263.667781 
L 23.878835 264.608227 
L 21.768786 265.716003 
L 19.742125 266.78 
L 17.586055 267.911936 
L 14.73162 269.410515 
L 13.426104 270.095911 
L 10.546446 271.607731 
L 8.861538 272.492308 
L 8.861538 280.646154 
L 11.961661 279.121219 
L 13.200473 278.512609 
L 15.200516 277.530954 
L 18.62436 275.853239 
L 20.088754 275.136772 
L 21.824253 274.288544 
L 25.131757 272.674719 
L 27.690272 271.428885 
L 28.679913 270.947606 
L 31.139474 269.753006 
L 34.223701 268.258183 
L 34.932558 267.915139 
L 37.187384 266.825255 
L 40.704978 265.129146 
L 42.264629 264.378791 
L 45.075487 263.029187 
L 46.907369 262.151566 
L 48.938646 261.180272 
L 50.52128 260.424897 
L 53.518757 258.997697 
L 54.717765 258.428121 
L 57.511093 257.104202 
L 60.240051 255.81504 
L 62.946101 254.54105 
L 64.669367 253.732105 
L 66.342781 252.948382 
L 68.975948 251.718941 
L 71.868188 250.374097 
L 72.950161 249.872558 
L 74.773154 249.029521 
L 78.919942 247.121628 
L 79.158378 247.012357 
L 82.691309 245.399064 
L 84.098504 244.75961 
L 87.586323 243.182862 
L 88.918893 242.583664 
L 91.693723 241.34199 
L 94.340455 240.165657 
L 96.647408 239.147124 
L 97.424025 238.805732 
L 100.804956 237.328727 
L 102.166277 236.73845 
L 105.210208 235.428429 
L 106.184915 235.011959 
L 109.43547 233.634365 
L 111.185966 232.90011 
L 112.944 232.168412 
L 116.15374 230.8483 
L 117.256614 230.399714 
L 121.077063 228.867331 
L 122.06131 228.478324 
L 125.509941 227.135775 
L 126.915021 226.598543 
L 128.840914 225.872132 
L 131.672009 224.826848 
L 134.09362 223.956103 
L 134.767188 223.718043 
L 137.096289 222.909812 
L 138.784304 222.339536 
L 140.47232 221.783403 
L 142.570031 221.113701 
L 143.996429 220.67302 
L 145.422827 220.245228 
L 147.716651 219.586765 
L 148.52302 219.364627 
L 150.228043 218.912361 
L 151.933065 218.485701 
L 153.206386 218.18534 
L 154.479706 217.901979 
L 154.974189 217.796814 
L 156.015335 217.584847 
L 157.056481 217.386441 
L 158.704526 217.102504 
L 160.352572 216.85937 
L 161.45942 216.721512 
L 162.566268 216.606139 
L 163.42427 216.533444 
L 164.282272 216.4765 
L 165.182807 216.434928 
L 166.083342 216.41343 
L 166.983877 216.413633 
L 167.884412 216.437352 
L 168.812414 216.488541 
L 169.740415 216.569354 
L 170.75424 216.694839 
L 171.768065 216.863268 
L 172.448517 217.002792 
L 173.12897 217.165496 
L 173.809422 217.353219 
L 174.489874 217.568009 
L 175.001167 217.748578 
L 175.51246 217.946778 
L 176.023752 218.163768 
L 176.535045 218.400819 
L 176.955147 218.611574 
L 177.375249 218.837642 
L 178.021767 219.217567 
L 178.668285 219.639554 
L 178.991544 219.867588 
L 179.314803 220.107725 
L 179.638063 220.360571 
L 179.961322 220.626771 
L 180.256145 220.88178 
L 180.550967 221.149032 
L 180.84579 221.429121 
L 181.140613 221.722685 
L 181.435436 222.030403 
L 181.730259 222.353001 
L 182.025082 222.691257 
L 182.319905 223.046004 
L 182.706687 223.537917 
L 183.093469 224.061954 
L 183.480252 224.620533 
L 183.867034 225.216321 
L 184.253816 225.852271 
L 184.640598 226.531657 
L 184.83399 226.888763 
L 185.027381 227.258125 
L 185.220772 227.640268 
L 185.414163 228.035741 
L 185.681833 228.606201 
L 185.949503 229.204988 
L 186.217173 229.833905 
L 186.484843 230.494914 
L 186.72382 231.113921 
L 186.962798 231.761859 
L 187.201776 232.440517 
L 187.440753 233.151831 
L 187.679731 233.897909 
L 187.918709 234.68104 
L 188.157686 235.503723 
L 188.396664 236.368686 
L 188.582908 237.074007 
L 188.769153 237.80835 
L 188.955397 238.573363 
L 189.141641 239.370826 
L 189.327886 240.202655 
L 189.51413 241.070926 
L 189.700374 241.977881 
L 189.886619 242.925953 
L 190.072863 243.917782 
L 190.165985 244.430993 
L 190.259107 244.956241 
L 190.35223 245.493924 
L 190.445352 246.044461 
L 190.538474 246.608287 
L 190.631596 247.185859 
L 190.724718 247.777654 
L 190.81784 248.384172 
L 190.910963 249.005938 
L 191.004085 249.643499 
L 191.097207 250.297433 
L 191.190329 250.968342 
L 191.283451 251.65686 
L 191.376573 252.363654 
L 191.459492 253.008954 
L 191.542411 253.669818 
L 191.62533 254.346787 
L 191.708249 255.040431 
L 191.791168 255.751344 
L 191.874087 256.480149 
L 191.957005 257.227503 
L 192.039924 257.99409 
L 192.122843 258.780633 
L 192.205762 259.587888 
L 192.288681 260.416653 
L 192.3716 261.267764 
L 192.454518 262.142105 
L 192.537437 263.040603 
L 192.620356 263.964239 
L 192.703275 264.914045 
L 192.786194 265.891111 
L 192.869113 266.896591 
L 192.952031 267.9317 
L 193.03495 268.997729 
L 193.117869 270.09604 
L 193.200788 271.22808 
L 193.283707 272.395383 
L 193.366626 273.599576 
L 193.449544 274.842388 
L 193.532463 276.125661 
L 193.615382 277.451351 
L 193.698301 278.821547 
L 193.78122 280.238474 
L 193.864139 281.70451 
L 193.947058 283.222196 
L 194.029976 284.794253 
L 194.11158 286.397281 
L 194.193183 288.058769 
L 194.274786 289.781912 
L 194.35639 291.570143 
L 194.437993 293.427154 
L 194.519596 295.356923 
L 194.6012 297.36374 
L 194.682803 299.45224 
L 194.764406 301.627437 
L 194.84601 303.894763 
L 194.927613 306.260115 
L 195.009216 308.729904 
L 195.09082 311.311112 
L 195.172423 314.011359 
L 195.254026 316.838975 
L 195.33563 319.803086 
L 195.417233 322.913712 
L 195.498836 326.181879 
L 195.58044 329.619746 
L 195.662043 333.240758 
L 195.743646 337.059818 
L 195.82525 341.093493 
L 195.906853 345.360249 
L 195.988456 349.880735 
L 196.07006 354.678112 
L 196.151663 359.77845 
L 196.233266 365.211196 
L 196.31487 371.009744 
L 196.396473 377.212116 
L 196.478076 383.861789 
L 196.55968 391.00872 
L 196.641283 398.710588 
L 196.67275 401.842607 
L 196.704216 405.071238 
L 196.735683 408.401003 
L 196.76715 411.836715 
L 196.798617 415.383494 
L 196.830083 419.046795 
L 196.86155 422.832439 
L 196.893017 426.74664 
L 196.924484 430.796038 
L 196.95595 434.987741 
L 196.987417 439.329363 
L 197.018884 443.829072 
L 197.05035 448.495639 
L 197.081817 453.338497 
L 197.113284 458.367803 
L 197.144751 463.594511 
L 197.176217 469.030448 
L 197.207684 474.688406 
L 197.239151 480.582244 
L 197.270618 486.726995 
L 197.302084 493.138999 
L 197.333551 499.836046 
L 197.365018 506.837543 
L 197.396484 514.164696 
L 197.427951 521.840729 
L 197.459418 529.891129 
L 197.490885 538.343927 
L 197.522351 547.230022 
L 197.553818 556.583562 
L 197.585285 566.442381 
L 197.616752 576.848506 
L 197.648218 587.84876 
L 197.748775 627.634256 
L 197.849333 676.295171 
L 197.94989 737.170977 
L 198.050447 815.516759 
L 198.151004 920.106734 
L 198.251561 1066.772371 
L 198.352118 1287.283549 
L 198.452676 1656.152358 
L 198.553233 2398.942027 
L 198.65379 4668.351262 
L 198.754347 -162183.307001 
L 198.854904 -4053.597497 
L 198.955461 -1959.778742 
L 199.056019 -1249.484833 
L 199.156576 -891.987798 
L 199.257133 -676.73963 
L 199.35769 -532.9326 
L 199.458247 -430.066 
L 199.558804 -352.838487 
L 199.659362 -292.729093 
L 199.759919 -244.616117 
L 199.860476 -205.23576 
L 199.961033 -172.409729 
L 200.06159 -144.628593 
L 200.162148 -120.813364 
L 200.262705 -100.172268 
L 200.363262 -82.111144 
L 200.463819 -66.175414 
L 200.564376 -52.011364 
L 200.664933 -39.339645 
L 200.765491 -27.9367 
L 200.866048 -17.6215 
L 200.908713 -13.53639 
L 200.951378 -9.610289 
L 200.994044 -5.83412 
L 201.036709 -2.199484 
L 201.079375 1.301402 
L 201.12204 4.67576 
L 201.164705 7.930302 
L 201.207371 11.071274 
L 201.250036 14.104495 
L 201.292701 17.035391 
L 201.335367 19.869034 
L 201.378032 22.610162 
L 201.420698 25.263213 
L 201.463363 27.832345 
L 201.506028 30.321457 
L 201.548694 32.734212 
L 201.591359 35.074052 
L 201.634024 37.344215 
L 201.67669 39.547751 
L 201.719355 41.687533 
L 201.762021 43.766272 
L 201.804686 45.786529 
L 201.847351 47.75072 
L 201.890017 49.661134 
L 201.932682 51.519935 
L 201.975347 53.329171 
L 202.018013 55.090786 
L 202.060678 56.806622 
L 202.103344 58.478427 
L 202.146009 60.107863 
L 202.188674 61.696506 
L 202.23134 63.245859 
L 202.322841 66.442713 
L 202.414342 69.478387 
L 202.505843 72.364669 
L 202.597345 75.112225 
L 202.688846 77.730731 
L 202.780347 80.228981 
L 202.871849 82.61499 
L 202.96335 84.896077 
L 203.054851 87.078936 
L 203.146352 89.169706 
L 203.237854 91.174025 
L 203.329355 93.097077 
L 203.420856 94.943644 
L 203.512357 96.718138 
L 203.603859 98.424639 
L 203.69536 100.066923 
L 203.786861 101.648495 
L 203.878362 103.172607 
L 203.969864 104.642284 
L 204.061365 106.060342 
L 204.152866 107.429407 
L 204.244367 108.751929 
L 204.335869 110.030198 
L 204.42737 111.266357 
L 204.518871 112.462412 
L 204.610372 113.620243 
L 204.701874 114.741617 
L 204.793375 115.828191 
L 204.884876 116.881524 
L 204.976378 117.903086 
L 205.067879 118.894258 
L 205.15938 119.856343 
L 205.250365 120.785381 
L 205.341351 121.688019 
L 205.432336 122.565338 
L 205.523321 123.41836 
L 205.614307 124.248052 
L 205.705292 125.055334 
L 205.796277 125.841074 
L 205.887262 126.606098 
L 205.978248 127.35119 
L 206.069233 128.077096 
L 206.160218 128.784524 
L 206.251204 129.474148 
L 206.342189 130.14661 
L 206.433174 130.802522 
L 206.524159 131.442465 
L 206.615145 132.066997 
L 206.727165 132.815529 
L 206.839185 133.542442 
L 206.951205 134.248624 
L 207.063226 134.934917 
L 207.175246 135.602118 
L 207.287266 136.25098 
L 207.399286 136.882219 
L 207.511306 137.496513 
L 207.623327 138.094509 
L 207.735347 138.676817 
L 207.847367 139.24402 
L 207.959387 139.796672 
L 208.071407 140.335301 
L 208.183428 140.860408 
L 208.295448 141.372473 
L 208.407468 141.871951 
L 208.519488 142.359279 
L 208.631508 142.834873 
L 208.855549 143.752428 
L 209.079589 144.627587 
L 209.30363 145.463072 
L 209.52767 146.261376 
L 209.751711 147.024789 
L 209.975751 147.755422 
L 210.199791 148.455216 
L 210.354378 148.921033 
L 210.508964 149.373577 
L 210.663551 149.813371 
L 210.818137 150.240911 
L 211.12731 151.061089 
L 211.436483 151.837606 
L 211.629112 152.300747 
L 211.821741 152.748879 
L 212.014369 153.182668 
L 212.206998 153.602741 
L 212.399627 154.009691 
L 212.592256 154.404075 
L 212.977513 155.157235 
L 213.18796 155.549718 
L 213.398407 155.92958 
L 213.819301 156.653612 
L 214.240195 157.33338 
L 214.661089 157.972509 
L 215.081983 158.574249 
L 215.502877 159.141529 
L 215.923771 159.676992 
L 216.344665 160.18303 
L 216.748993 160.643459 
L 217.153321 161.080493 
L 217.555465 161.493549 
L 217.95761 161.886498 
L 218.359754 162.260672 
L 218.761898 162.617297 
L 219.164042 162.957506 
L 219.566187 163.282344 
L 219.968331 163.592782 
L 220.370475 163.889718 
L 220.780884 164.179702 
L 221.191292 164.45732 
L 222.012109 164.978482 
L 222.832927 165.458759 
L 223.653744 165.903009 
L 224.564643 166.359015 
L 225.475542 166.781052 
L 226.373731 167.168354 
L 227.520002 167.627109 
L 228.666272 168.052525 
L 230.050567 168.530587 
L 231.434862 168.978531 
L 233.45277 169.594643 
L 236.919641 170.609344 
L 238.75934 171.153574 
L 240.403786 171.657963 
L 242.124432 172.214475 
L 243.004375 172.513883 
L 243.884318 172.825259 
L 244.76426 173.150122 
L 245.644203 173.490032 
L 246.248507 173.733019 
L 247.435831 174.235422 
L 248.623155 174.774565 
L 249.510263 175.204101 
L 250.397372 175.658754 
L 251.28448 176.140697 
L 252.171588 176.65225 
L 253.209484 177.291684 
L 253.728431 177.629209 
L 254.247379 177.979363 
L 254.82287 178.383166 
L 255.39836 178.804103 
L 255.973851 179.243082 
L 256.549342 179.701064 
L 256.996007 180.070269 
L 257.442673 180.452033 
L 257.889338 180.846878 
L 258.336004 181.255352 
L 259.05189 181.939904 
L 259.767775 182.663469 
L 260.483661 183.428776 
L 261.199547 184.238781 
L 261.696089 184.828542 
L 262.192632 185.4425 
L 262.680413 186.07037 
L 263.168195 186.724006 
L 263.655977 187.404718 
L 264.143758 188.113905 
L 264.512572 188.669932 
L 264.881385 189.243767 
L 265.250199 189.836127 
L 265.619012 190.447765 
L 265.987826 191.079473 
L 266.356639 191.732087 
L 266.725453 192.406485 
L 267.094266 193.103598 
L 267.411359 193.721856 
L 267.728453 194.358283 
L 268.045546 195.013567 
L 268.36264 195.688429 
L 268.802086 196.657481 
L 269.241531 197.667739 
L 269.680977 198.721502 
L 269.9007 199.265461 
L 270.120423 199.821237 
L 270.340146 200.389167 
L 270.559869 200.969602 
L 270.779592 201.562905 
L 270.999315 202.169455 
L 271.219038 202.789644 
L 271.438761 203.423882 
L 271.658484 204.072591 
L 271.878207 204.736215 
L 272.213596 205.778985 
L 272.548985 206.8593 
L 272.884375 207.978989 
L 273.219764 209.140002 
L 273.460434 209.999749 
L 273.701103 210.882655 
L 273.941773 211.789572 
L 274.182443 212.721396 
L 274.423113 213.679064 
L 274.663783 214.663561 
L 274.904453 215.675926 
L 275.145123 216.717248 
L 275.385793 217.788673 
L 275.626463 218.891412 
L 275.867132 220.026737 
L 276.107802 221.195991 
L 276.348472 222.400593 
L 276.589142 223.64204 
L 276.829812 224.921914 
L 277.070482 226.241891 
L 277.207753 227.013405 
L 277.345025 227.798884 
L 277.482297 228.598685 
L 277.619568 229.413174 
L 277.75684 230.242732 
L 277.894111 231.087753 
L 278.031383 231.948645 
L 278.168654 232.825829 
L 278.325719 233.850039 
L 278.482783 234.896831 
L 278.639847 235.966914 
L 278.796911 237.061025 
L 278.953975 238.179934 
L 279.11104 239.324444 
L 279.268104 240.495393 
L 279.425168 241.693654 
L 279.582232 242.920142 
L 279.739296 244.175811 
L 279.896361 245.461659 
L 280.053425 246.778729 
L 280.210489 248.128115 
L 280.367553 249.510961 
L 280.524617 250.928464 
L 280.681682 252.381882 
L 280.822393 253.715559 
L 280.963105 255.080111 
L 281.103817 256.476573 
L 281.244529 257.906028 
L 281.385241 259.369609 
L 281.525953 260.868501 
L 281.666664 262.403943 
L 281.807376 263.977235 
L 281.948088 265.589739 
L 282.0888 267.24288 
L 282.229512 268.938157 
L 282.370223 270.677141 
L 282.510935 272.461484 
L 282.581291 273.371203 
L 282.651647 274.292919 
L 282.722003 275.226862 
L 282.792359 276.173271 
L 282.862715 277.132387 
L 282.933071 278.10446 
L 283.030488 279.472291 
L 283.127905 280.866157 
L 283.225322 282.286783 
L 283.322739 283.734925 
L 283.420156 285.211364 
L 283.517573 286.716915 
L 283.61499 288.25242 
L 283.712407 289.818759 
L 283.809824 291.416841 
L 283.907241 293.047617 
L 284.004658 294.712071 
L 284.102075 296.41123 
L 284.199492 298.146162 
L 284.296909 299.917981 
L 284.394326 301.727845 
L 284.491743 303.576963 
L 284.58916 305.466596 
L 284.686577 307.398056 
L 284.783994 309.372718 
L 284.881411 311.392012 
L 284.978828 313.457437 
L 285.076245 315.570556 
L 285.173662 317.733006 
L 285.271079 319.946497 
L 285.368496 322.212822 
L 285.465913 324.533857 
L 285.56333 326.911569 
L 285.660747 329.348018 
L 285.758164 331.845368 
L 285.855581 334.40589 
L 285.952998 337.031968 
L 286.050415 339.726108 
L 286.093357 340.935984 
L 286.136299 342.15983 
L 286.179241 343.397885 
L 286.222183 344.650393 
L 286.265124 345.917606 
L 286.308066 347.199779 
L 286.351008 348.497176 
L 286.39395 349.810064 
L 286.501672 353.173541 
L 286.609394 356.640779 
L 286.717116 360.216586 
L 286.824839 363.906067 
L 286.932561 367.714653 
L 287.040283 371.648129 
L 287.148005 375.712658 
L 287.255727 379.914816 
L 287.36345 384.261626 
L 287.471172 388.7606 
L 287.578894 393.419774 
L 287.686616 398.247765 
L 287.794339 403.253816 
L 287.902061 408.447858 
L 288.009783 413.840575 
L 288.117505 419.443476 
L 288.225228 425.268977 
L 288.33295 431.330488 
L 288.440672 437.642524 
L 288.548394 444.220809 
L 288.656116 451.082416 
L 288.763839 458.245907 
L 288.871561 465.731501 
L 288.979283 473.561265 
L 289.087005 481.759328 
L 289.194728 490.35213 
L 289.30245 499.368701 
L 289.410172 508.840991 
L 289.517894 518.804245 
L 289.625617 529.297435 
L 289.733339 540.363775 
L 289.841061 552.051303 
L 289.885016 557.010847 
L 289.92897 562.086591 
L 289.972925 567.282648 
L 290.01688 572.603331 
L 290.060835 578.053159 
L 290.104789 583.636873 
L 290.148744 589.359451 
L 290.192699 595.226116 
L 290.236654 601.242362 
L 290.280608 607.413962 
L 290.324563 613.74699 
L 290.368518 620.247844 
L 290.412473 626.923261 
L 290.456427 633.780345 
L 290.500382 640.826591 
L 290.544337 648.069912 
L 290.588292 655.518669 
L 290.632246 663.1817 
L 290.676201 671.068362 
L 290.720156 679.188561 
L 290.76411 687.552797 
L 290.808065 696.172212 
L 290.85202 705.058634 
L 290.895975 714.224635 
L 290.939929 723.683587 
L 290.983884 733.449731 
L 291.027839 743.538245 
L 291.071794 753.965322 
L 291.115748 764.748261 
L 291.159703 775.905559 
L 291.203658 787.457016 
L 291.247613 799.423854 
L 291.356127 830.895163 
L 291.464642 865.431491 
L 291.573156 903.502715 
L 291.68167 945.679923 
L 291.790185 992.664228 
L 291.898699 1045.325994 
L 292.007214 1104.759202 
L 292.115728 1172.35818 
L 292.224243 1249.928285 
L 292.332757 1339.849407 
L 292.441272 1445.324262 
L 292.549786 1570.767661 
L 292.658301 1722.439822 
L 292.766815 1909.523144 
L 292.875329 2146.052493 
L 292.983844 2454.608519 
L 293.092358 2873.989944 
L 293.200873 3476.960496 
L 293.309387 4417.828848 
L 293.417902 6091.142201 
L 293.526416 9897.139045 
L 293.634931 27075.105975 
L 293.743445 -35507.001132 
L 293.85196 -10607.168712 
L 293.960474 -6194.809774 
L 294.068988 -4354.728378 
L 294.177503 -3345.267691 
L 294.286017 -2707.583975 
L 294.394532 -2268.239885 
L 294.503046 -1947.16013 
L 294.611561 -1702.261468 
L 294.720075 -1509.310044 
L 294.793364 -1400.602953 
L 294.866653 -1305.519721 
L 294.939943 -1221.650962 
L 295.013232 -1147.1238 
L 295.086521 -1080.460406 
L 295.15981 -1020.479057 
L 295.233099 -966.223515 
L 295.306388 -916.91169 
L 295.379677 -871.897724 
L 295.452967 -830.643567 
L 295.526256 -792.697383 
L 295.599545 -757.676946 
L 295.672834 -725.256734 
L 295.746123 -695.157787 
L 295.819412 -667.139674 
L 295.892701 -640.994056 
L 295.965991 -616.539512 
L 296.03928 -593.617323 
L 296.112569 -572.088031 
L 296.185858 -551.8286 
L 296.259147 -532.730072 
L 296.332436 -514.695608 
L 296.405726 -497.638847 
L 296.479015 -481.482528 
L 296.552304 -466.157323 
L 296.625593 -451.60084 
L 296.698882 -437.756782 
L 296.772171 -424.574218 
L 296.84546 -412.006958 
L 296.91875 -400.013015 
L 296.992039 -388.554137 
L 297.065328 -377.595402 
L 297.123243 -369.2682 
L 297.181158 -361.218736 
L 297.239072 -353.433388 
L 297.296987 -345.899411 
L 297.354902 -338.604865 
L 297.412817 -331.538557 
L 297.470732 -324.689979 
L 297.528647 -318.049259 
L 297.586562 -311.607113 
L 297.644477 -305.354802 
L 297.702391 -299.284092 
L 297.760306 -293.387218 
L 297.818221 -287.656853 
L 297.876136 -282.086075 
L 297.934051 -276.668339 
L 297.991966 -271.397457 
L 298.049881 -266.267565 
L 298.107795 -261.273112 
L 298.16571 -256.408832 
L 298.223625 -251.669729 
L 298.28154 -247.051059 
L 298.339455 -242.548316 
L 298.39737 -238.157215 
L 298.455285 -233.873679 
L 298.5132 -229.693829 
L 298.571114 -225.613968 
L 298.629029 -221.630576 
L 298.686944 -217.740292 
L 298.744859 -213.939913 
L 298.802774 -210.22638 
L 298.860689 -206.59677 
L 298.918604 -203.048292 
L 298.958785 -200.63261 
L 298.998966 -198.253835 
L 299.039148 -195.911134 
L 299.079329 -193.603701 
L 299.119511 -191.33075 
L 299.159692 -189.091522 
L 299.199874 -186.885277 
L 299.240055 -184.711298 
L 299.280237 -182.568889 
L 299.320418 -180.457372 
L 299.360599 -178.376092 
L 299.400781 -176.324407 
L 299.440962 -174.301699 
L 299.481144 -172.307362 
L 299.521325 -170.340809 
L 299.561507 -168.40147 
L 299.650958 -164.179057 
L 299.74041 -160.082917 
L 299.829862 -156.107525 
L 299.919314 -152.247675 
L 300.008766 -148.498455 
L 300.098218 -144.855226 
L 300.187669 -141.313608 
L 300.277121 -137.869456 
L 300.366573 -134.51885 
L 300.456025 -131.258076 
L 300.545477 -128.083614 
L 300.634929 -124.992126 
L 300.72438 -121.980445 
L 300.813832 -119.04556 
L 300.903284 -116.184613 
L 300.992736 -113.394884 
L 301.082188 -110.673786 
L 301.171639 -108.018855 
L 301.261091 -105.427744 
L 301.350543 -102.898216 
L 301.439995 -100.428136 
L 301.529447 -98.015468 
L 301.618899 -95.658267 
L 301.70835 -93.354676 
L 301.797802 -91.102919 
L 301.887254 -88.901298 
L 301.976706 -86.748189 
L 302.066158 -84.642035 
L 302.15561 -82.581347 
L 302.245061 -80.564699 
L 302.334513 -78.590722 
L 302.423965 -76.658105 
L 302.527771 -74.465543 
L 302.631578 -72.325104 
L 302.735384 -70.234993 
L 302.839191 -68.193496 
L 302.942997 -66.198976 
L 303.046804 -64.249868 
L 303.15061 -62.344676 
L 303.254416 -60.481971 
L 303.358223 -58.660382 
L 303.462029 -56.878599 
L 303.565836 -55.135366 
L 303.669642 -53.42948 
L 303.773449 -51.759785 
L 303.877255 -50.125177 
L 303.981061 -48.524592 
L 304.084868 -46.95701 
L 304.188674 -45.421453 
L 304.292481 -43.916979 
L 304.396287 -42.442684 
L 304.500094 -40.997697 
L 304.6039 -39.581183 
L 304.707706 -38.192337 
L 304.811513 -36.830382 
L 304.915319 -35.494574 
L 305.019126 -34.184193 
L 305.122932 -32.898546 
L 305.226739 -31.636966 
L 305.330545 -30.398808 
L 305.434351 -29.183451 
L 305.538158 -27.990295 
L 305.641964 -26.818763 
L 305.745771 -25.668295 
L 305.850243 -24.531172 
L 305.954715 -23.414307 
L 306.059186 -22.317186 
L 306.163658 -21.239313 
L 306.26813 -20.180208 
L 306.372602 -19.139407 
L 306.477074 -18.116461 
L 306.581546 -17.110937 
L 306.686018 -16.122415 
L 306.79049 -15.150486 
L 306.894962 -14.194759 
L 306.999434 -13.25485 
L 307.103906 -12.33039 
L 307.208378 -11.421022 
L 307.31285 -10.526397 
L 307.417322 -9.64618 
L 307.552613 -8.527178 
L 307.687904 -7.431106 
L 307.823195 -6.357306 
L 307.958486 -5.305144 
L 308.093777 -4.274009 
L 308.229068 -3.263317 
L 308.364359 -2.2725 
L 308.49965 -1.301014 
L 308.610077 -0.522027 
L 308.720505 0.244707 
L 308.830933 0.999456 
L 308.94136 1.742481 
L 309.162216 3.194362 
L 309.383071 4.602287 
L 309.603926 5.968086 
L 309.824782 7.293487 
L 310.045637 8.580128 
L 310.266493 9.829557 
L 310.487348 11.043241 
L 310.708203 12.222572 
L 310.929059 13.368869 
L 311.149914 14.483386 
L 311.370769 15.567312 
L 311.591625 16.62178 
L 311.81248 17.647866 
L 312.033335 18.646595 
L 312.228637 19.507758 
L 312.423939 20.348937 
L 312.619241 21.17075 
L 312.814542 21.973789 
L 313.009844 22.758624 
L 313.205146 23.525801 
L 313.400447 24.275845 
L 313.595749 25.009259 
L 313.853691 25.953238 
L 314.111633 26.870119 
L 314.369575 27.760914 
L 314.627516 28.626587 
L 314.885458 29.468055 
L 315.1434 30.286189 
L 315.401342 31.08182 
L 315.659283 31.855741 
L 316.044324 32.972238 
L 316.429365 34.044402 
L 316.814406 35.074444 
L 317.199446 36.064432 
L 317.584487 37.016299 
L 317.969528 37.931857 
L 318.354569 38.812804 
L 318.739609 39.660732 
L 319.061354 40.345038 
L 319.383099 41.008162 
L 319.704844 41.650888 
L 320.026589 42.273963 
L 320.348334 42.878097 
L 320.670079 43.463966 
L 320.991824 44.032215 
L 321.313569 44.583458 
L 321.710082 45.240275 
L 322.106594 45.873194 
L 322.503107 46.483201 
L 322.89962 47.071226 
L 323.275022 47.608485 
L 323.650425 48.127541 
L 324.025828 48.629067 
L 324.401231 49.113704 
L 324.873848 49.700768 
L 325.346466 50.263181 
L 325.819083 50.802029 
L 326.2917 51.318333 
L 326.764318 51.813057 
L 327.236935 52.28711 
L 327.709553 52.741351 
L 328.18217 53.176591 
L 328.784724 53.70515 
L 329.387278 54.205564 
L 329.8877 54.600772 
L 330.388123 54.978285 
L 330.888545 55.338815 
L 331.388968 55.683035 
L 332.147301 56.174994 
L 332.905634 56.633037 
L 333.663967 57.059086 
L 334.4223 57.45492 
L 335.127973 57.797575 
L 335.833646 58.116733 
L 336.732535 58.491064 
L 337.631424 58.83135 
L 338.530312 59.139628 
L 339.429201 59.417774 
L 340.402226 59.686902 
L 341.145842 59.871406 
L 341.889457 60.038501 
L 342.633073 60.188973 
L 343.376689 60.323564 
L 344.16355 60.449463 
L 344.950411 60.55914 
L 346.32712 60.714183 
L 347.635084 60.820817 
L 348.943047 60.890669 
L 349.909224 60.92014 
L 350.8754 60.931866 
L 351.841576 60.926724 
L 352.807753 60.905535 
L 353.860129 60.865095 
L 355.520926 60.76662 
L 357.181723 60.628616 
L 358.043993 60.542381 
L 359.777019 60.340832 
L 361.510045 60.103963 
L 362.58236 59.940866 
L 363.732379 59.752687 
L 364.882397 59.551425 
L 366.418919 59.263169 
L 367.955441 58.95402 
L 369.768957 58.563966 
L 370.813732 58.327576 
L 372.366355 57.961385 
L 373.918977 57.578294 
L 375.645672 57.13356 
L 377.14448 56.732464 
L 378.643287 56.318143 
L 380.386656 55.820475 
L 382.668162 55.14518 
L 384.463552 54.595842 
L 386.925831 53.818553 
L 388.682012 53.248327 
L 390.438194 52.665716 
L 392.087336 52.107923 
L 393.600711 51.587379 
L 397.007551 50.387085 
L 399.20635 49.592862 
L 400.203982 49.227761 
L 402.297448 48.452446 
L 405.962402 47.066979 
L 407.479131 46.483783 
L 409.776752 45.590064 
L 412.319106 44.587499 
L 413.63486 44.063289 
L 417.287419 42.590096 
L 417.622219 42.453793 
L 420.554887 41.251247 
L 423.695577 39.947095 
L 426.148859 38.917392 
L 427.742084 38.243784 
L 429.053719 37.686452 
L 432.204353 36.337886 
L 435.073298 35.098447 
L 436.202458 34.607783 
L 438.423498 33.638163 
L 441.701146 32.196866 
L 442.703975 31.753515 
L 444.232851 31.075541 
L 447.471775 29.631342 
L 450.682144 28.189799 
L 451.938462 27.623077 
z
" style="fill:#cccccc;opacity:0.5;"/>
   </g>
   <g id="matplotlib.axis_1">
    <g id="xtick_1">
     <g id="line2d_1">
      <defs>
       <path d="M 0 0 
L 0 3.5 
" id="md521c35caf" style="stroke:#000000;stroke-width:0.8;"/>
      </defs>
      <g>
       <use style="stroke:#000000;stroke-width:0.8;" x="40.50989" xlink:href="#md521c35caf" y="172.8"/>
      </g>
     </g>
     <g id="text_1">
      <!-- −6 -->
      <g transform="translate(33.138796 187.398437)scale(0.1 -0.1)">
       <defs>
        <path d="M 10.59375 35.5 
L 73.1875 35.5 
L 73.1875 27.203125 
L 10.59375 27.203125 
z
" id="DejaVuSans-8722"/>
        <path d="M 33.015625 40.375 
Q 26.375 40.375 22.484375 35.828125 
Q 18.609375 31.296875 18.609375 23.390625 
Q 18.609375 15.53125 22.484375 10.953125 
Q 26.375 6.390625 33.015625 6.390625 
Q 39.65625 6.390625 43.53125 10.953125 
Q 47.40625 15.53125 47.40625 23.390625 
Q 47.40625 31.296875 43.53125 35.828125 
Q 39.65625 40.375 33.015625 40.375 
z
M 52.59375 71.296875 
L 52.59375 62.3125 
Q 48.875 64.0625 45.09375 64.984375 
Q 41.3125 65.921875 37.59375 65.921875 
Q 27.828125 65.921875 22.671875 59.328125 
Q 17.53125 52.734375 16.796875 39.40625 
Q 19.671875 43.65625 24.015625 45.921875 
Q 28.375 48.1875 33.59375 48.1875 
Q 44.578125 48.1875 50.953125 41.515625 
Q 57.328125 34.859375 57.328125 23.390625 
Q 57.328125 12.15625 50.6875 5.359375 
Q 44.046875 -1.421875 33.015625 -1.421875 
Q 20.359375 -1.421875 13.671875 8.265625 
Q 6.984375 17.96875 6.984375 36.375 
Q 6.984375 53.65625 15.1875 63.9375 
Q 23.390625 74.21875 37.203125 74.21875 
Q 40.921875 74.21875 44.703125 73.484375 
Q 48.484375 72.75 52.59375 71.296875 
z
" id="DejaVuSans-54"/>
       </defs>
       <use xlink:href="#DejaVuSans-8722"/>
       <use x="83.789062" xlink:href="#DejaVuSans-54"/>
      </g>
     </g>
    </g>
    <g id="xtick_2">
     <g id="line2d_2">
      <g>
       <use style="stroke:#000000;stroke-width:0.8;" x="103.806593" xlink:href="#md521c35caf" y="172.8"/>
      </g>
     </g>
     <g id="text_2">
      <!-- −4 -->
      <g transform="translate(96.4355 187.398437)scale(0.1 -0.1)">
       <defs>
        <path d="M 37.796875 64.3125 
L 12.890625 25.390625 
L 37.796875 25.390625 
z
M 35.203125 72.90625 
L 47.609375 72.90625 
L 47.609375 25.390625 
L 58.015625 25.390625 
L 58.015625 17.1875 
L 47.609375 17.1875 
L 47.609375 0 
L 37.796875 0 
L 37.796875 17.1875 
L 4.890625 17.1875 
L 4.890625 26.703125 
z
" id="DejaVuSans-52"/>
       </defs>
       <use xlink:href="#DejaVuSans-8722"/>
       <use x="83.789062" xlink:href="#DejaVuSans-52"/>
      </g>
     </g>
    </g>
    <g id="xtick_3">
     <g id="line2d_3">
      <g>
       <use style="stroke:#000000;stroke-width:0.8;" x="167.103297" xlink:href="#md521c35caf" y="172.8"/>
      </g>
     </g>
     <g id="text_3">
      <!-- −2 -->
      <g transform="translate(159.732203 187.398437)scale(0.1 -0.1)">
       <defs>
        <path d="M 19.1875 8.296875 
L 53.609375 8.296875 
L 53.609375 0 
L 7.328125 0 
L 7.328125 8.296875 
Q 12.9375 14.109375 22.625 23.890625 
Q 32.328125 33.6875 34.8125 36.53125 
Q 39.546875 41.84375 41.421875 45.53125 
Q 43.3125 49.21875 43.3125 52.78125 
Q 43.3125 58.59375 39.234375 62.25 
Q 35.15625 65.921875 28.609375 65.921875 
Q 23.96875 65.921875 18.8125 64.3125 
Q 13.671875 62.703125 7.8125 59.421875 
L 7.8125 69.390625 
Q 13.765625 71.78125 18.9375 73 
Q 24.125 74.21875 28.421875 74.21875 
Q 39.75 74.21875 46.484375 68.546875 
Q 53.21875 62.890625 53.21875 53.421875 
Q 53.21875 48.921875 51.53125 44.890625 
Q 49.859375 40.875 45.40625 35.40625 
Q 44.1875 33.984375 37.640625 27.21875 
Q 31.109375 20.453125 19.1875 8.296875 
z
" id="DejaVuSans-50"/>
       </defs>
       <use xlink:href="#DejaVuSans-8722"/>
       <use x="83.789062" xlink:href="#DejaVuSans-50"/>
      </g>
     </g>
    </g>
    <g id="xtick_4">
     <g id="line2d_4">
      <g>
       <use style="stroke:#000000;stroke-width:0.8;" x="230.4" xlink:href="#md521c35caf" y="172.8"/>
      </g>
     </g>
    </g>
    <g id="xtick_5">
     <g id="line2d_5">
      <g>
       <use style="stroke:#000000;stroke-width:0.8;" x="293.696703" xlink:href="#md521c35caf" y="172.8"/>
      </g>
     </g>
     <g id="text_4">
      <!-- 2 -->
      <g transform="translate(290.515453 187.398437)scale(0.1 -0.1)">
       <use xlink:href="#DejaVuSans-50"/>
      </g>
     </g>
    </g>
    <g id="xtick_6">
     <g id="line2d_6">
      <g>
       <use style="stroke:#000000;stroke-width:0.8;" x="356.993407" xlink:href="#md521c35caf" y="172.8"/>
      </g>
     </g>
     <g id="text_5">
      <!-- 4 -->
      <g transform="translate(353.812157 187.398437)scale(0.1 -0.1)">
       <use xlink:href="#DejaVuSans-52"/>
      </g>
     </g>
    </g>
    <g id="xtick_7">
     <g id="line2d_7">
      <g>
       <use style="stroke:#000000;stroke-width:0.8;" x="420.29011" xlink:href="#md521c35caf" y="172.8"/>
      </g>
     </g>
     <g id="text_6">
      <!-- 6 -->
      <g transform="translate(417.10886 187.398437)scale(0.1 -0.1)">
       <use xlink:href="#DejaVuSans-54"/>
      </g>
     </g>
    </g>
    <g id="xtick_8">
     <g id="line2d_8">
      <defs>
       <path d="M 0 0 
L 0 2 
" id="m023a1a7e64" style="stroke:#000000;stroke-width:0.6;"/>
      </defs>
      <g>
       <use style="stroke:#000000;stroke-width:0.6;" x="8.861538" xlink:href="#m023a1a7e64" y="172.8"/>
      </g>
     </g>
    </g>
    <g id="xtick_9">
     <g id="line2d_9">
      <g>
       <use style="stroke:#000000;stroke-width:0.6;" x="24.685714" xlink:href="#m023a1a7e64" y="172.8"/>
      </g>
     </g>
    </g>
    <g id="xtick_10">
     <g id="line2d_10">
      <g>
       <use style="stroke:#000000;stroke-width:0.6;" x="56.334066" xlink:href="#m023a1a7e64" y="172.8"/>
      </g>
     </g>
    </g>
    <g id="xtick_11">
     <g id="line2d_11">
      <g>
       <use style="stroke:#000000;stroke-width:0.6;" x="72.158242" xlink:href="#m023a1a7e64" y="172.8"/>
      </g>
     </g>
    </g>
    <g id="xtick_12">
     <g id="line2d_12">
      <g>
       <use style="stroke:#000000;stroke-width:0.6;" x="87.982418" xlink:href="#m023a1a7e64" y="172.8"/>
      </g>
     </g>
    </g>
    <g id="xtick_13">
     <g id="line2d_13">
      <g>
       <use style="stroke:#000000;stroke-width:0.6;" x="119.630769" xlink:href="#m023a1a7e64" y="172.8"/>
      </g>
     </g>
    </g>
    <g id="xtick_14">
     <g id="line2d_14">
      <g>
       <use style="stroke:#000000;stroke-width:0.6;" x="135.454945" xlink:href="#m023a1a7e64" y="172.8"/>
      </g>
     </g>
    </g>
    <g id="xtick_15">
     <g id="line2d_15">
      <g>
       <use style="stroke:#000000;stroke-width:0.6;" x="151.279121" xlink:href="#m023a1a7e64" y="172.8"/>
      </g>
     </g>
    </g>
    <g id="xtick_16">
     <g id="line2d_16">
      <g>
       <use style="stroke:#000000;stroke-width:0.6;" x="182.927473" xlink:href="#m023a1a7e64" y="172.8"/>
      </g>
     </g>
    </g>
    <g id="xtick_17">
     <g id="line2d_17">
      <g>
       <use style="stroke:#000000;stroke-width:0.6;" x="198.751648" xlink:href="#m023a1a7e64" y="172.8"/>
      </g>
     </g>
    </g>
    <g id="xtick_18">
     <g id="line2d_18">
      <g>
       <use style="stroke:#000000;stroke-width:0.6;" x="214.575824" xlink:href="#m023a1a7e64" y="172.8"/>
      </g>
     </g>
    </g>
    <g id="xtick_19">
     <g id="line2d_19">
      <g>
       <use style="stroke:#000000;stroke-width:0.6;" x="246.224176" xlink:href="#m023a1a7e64" y="172.8"/>
      </g>
     </g>
    </g>
    <g id="xtick_20">
     <g id="line2d_20">
      <g>
       <use style="stroke:#000000;stroke-width:0.6;" x="262.048352" xlink:href="#m023a1a7e64" y="172.8"/>
      </g>
     </g>
    </g>
    <g id="xtick_21">
     <g id="line2d_21">
      <g>
       <use style="stroke:#000000;stroke-width:0.6;" x="277.872527" xlink:href="#m023a1a7e64" y="172.8"/>
      </g>
     </g>
    </g>
    <g id="xtick_22">
     <g id="line2d_22">
      <g>
       <use style="stroke:#000000;stroke-width:0.6;" x="309.520879" xlink:href="#m023a1a7e64" y="172.8"/>
      </g>
     </g>
    </g>
    <g id="xtick_23">
     <g id="line2d_23">
      <g>
       <use style="stroke:#000000;stroke-width:0.6;" x="325.345055" xlink:href="#m023a1a7e64" y="172.8"/>
      </g>
     </g>
    </g>
    <g id="xtick_24">
     <g id="line2d_24">
      <g>
       <use style="stroke:#000000;stroke-width:0.6;" x="341.169231" xlink:href="#m023a1a7e64" y="172.8"/>
      </g>
     </g>
    </g>
    <g id="xtick_25">
     <g id="line2d_25">
      <g>
       <use style="stroke:#000000;stroke-width:0.6;" x="372.817582" xlink:href="#m023a1a7e64" y="172.8"/>
      </g>
     </g>
    </g>
    <g id="xtick_26">
     <g id="line2d_26">
      <g>
       <use style="stroke:#000000;stroke-width:0.6;" x="388.641758" xlink:href="#m023a1a7e64" y="172.8"/>
      </g>
     </g>
    </g>
    <g id="xtick_27">
     <g id="line2d_27">
      <g>
       <use style="stroke:#000000;stroke-width:0.6;" x="404.465934" xlink:href="#m023a1a7e64" y="172.8"/>
      </g>
     </g>
    </g>
    <g id="xtick_28">
     <g id="line2d_28">
      <g>
       <use style="stroke:#000000;stroke-width:0.6;" x="436.114286" xlink:href="#m023a1a7e64" y="172.8"/>
      </g>
     </g>
    </g>
    <g id="xtick_29">
     <g id="line2d_29">
      <g>
       <use style="stroke:#000000;stroke-width:0.6;" x="451.938462" xlink:href="#m023a1a7e64" y="172.8"/>
      </g>
     </g>
    </g>
   </g>
   <g id="matplotlib.axis_2">
    <g id="ytick_1">
     <g id="line2d_30">
      <defs>
       <path d="M 0 0 
L -3.5 0 
" id="m7bb323220e" style="stroke:#000000;stroke-width:0.8;"/>
      </defs>
      <g>
       <use style="stroke:#000000;stroke-width:0.8;" x="230.4" xlink:href="#m7bb323220e" y="338.953846"/>
      </g>
     </g>
     <g id="text_7">
      <!-- −20 -->
      <g transform="translate(202.295312 342.753065)scale(0.1 -0.1)">
       <defs>
        <path d="M 31.78125 66.40625 
Q 24.171875 66.40625 20.328125 58.90625 
Q 16.5 51.421875 16.5 36.375 
Q 16.5 21.390625 20.328125 13.890625 
Q 24.171875 6.390625 31.78125 6.390625 
Q 39.453125 6.390625 43.28125 13.890625 
Q 47.125 21.390625 47.125 36.375 
Q 47.125 51.421875 43.28125 58.90625 
Q 39.453125 66.40625 31.78125 66.40625 
z
M 31.78125 74.21875 
Q 44.046875 74.21875 50.515625 64.515625 
Q 56.984375 54.828125 56.984375 36.375 
Q 56.984375 17.96875 50.515625 8.265625 
Q 44.046875 -1.421875 31.78125 -1.421875 
Q 19.53125 -1.421875 13.0625 8.265625 
Q 6.59375 17.96875 6.59375 36.375 
Q 6.59375 54.828125 13.0625 64.515625 
Q 19.53125 74.21875 31.78125 74.21875 
z
" id="DejaVuSans-48"/>
       </defs>
       <use xlink:href="#DejaVuSans-8722"/>
       <use x="83.789062" xlink:href="#DejaVuSans-50"/>
       <use x="147.412109" xlink:href="#DejaVuSans-48"/>
      </g>
     </g>
    </g>
    <g id="ytick_2">
     <g id="line2d_31">
      <g>
       <use style="stroke:#000000;stroke-width:0.8;" x="230.4" xlink:href="#m7bb323220e" y="297.415385"/>
      </g>
     </g>
     <g id="text_8">
      <!-- −15 -->
      <g transform="translate(202.295312 301.214603)scale(0.1 -0.1)">
       <defs>
        <path d="M 12.40625 8.296875 
L 28.515625 8.296875 
L 28.515625 63.921875 
L 10.984375 60.40625 
L 10.984375 69.390625 
L 28.421875 72.90625 
L 38.28125 72.90625 
L 38.28125 8.296875 
L 54.390625 8.296875 
L 54.390625 0 
L 12.40625 0 
z
" id="DejaVuSans-49"/>
        <path d="M 10.796875 72.90625 
L 49.515625 72.90625 
L 49.515625 64.59375 
L 19.828125 64.59375 
L 19.828125 46.734375 
Q 21.96875 47.46875 24.109375 47.828125 
Q 26.265625 48.1875 28.421875 48.1875 
Q 40.625 48.1875 47.75 41.5 
Q 54.890625 34.8125 54.890625 23.390625 
Q 54.890625 11.625 47.5625 5.09375 
Q 40.234375 -1.421875 26.90625 -1.421875 
Q 22.3125 -1.421875 17.546875 -0.640625 
Q 12.796875 0.140625 7.71875 1.703125 
L 7.71875 11.625 
Q 12.109375 9.234375 16.796875 8.0625 
Q 21.484375 6.890625 26.703125 6.890625 
Q 35.15625 6.890625 40.078125 11.328125 
Q 45.015625 15.765625 45.015625 23.390625 
Q 45.015625 31 40.078125 35.4375 
Q 35.15625 39.890625 26.703125 39.890625 
Q 22.75 39.890625 18.8125 39.015625 
Q 14.890625 38.140625 10.796875 36.28125 
z
" id="DejaVuSans-53"/>
       </defs>
       <use xlink:href="#DejaVuSans-8722"/>
       <use x="83.789062" xlink:href="#DejaVuSans-49"/>
       <use x="147.412109" xlink:href="#DejaVuSans-53"/>
      </g>
     </g>
    </g>
    <g id="ytick_3">
     <g id="line2d_32">
      <g>
       <use style="stroke:#000000;stroke-width:0.8;" x="230.4" xlink:href="#m7bb323220e" y="255.876923"/>
      </g>
     </g>
     <g id="text_9">
      <!-- −10 -->
      <g transform="translate(202.295312 259.676142)scale(0.1 -0.1)">
       <use xlink:href="#DejaVuSans-8722"/>
       <use x="83.789062" xlink:href="#DejaVuSans-49"/>
       <use x="147.412109" xlink:href="#DejaVuSans-48"/>
      </g>
     </g>
    </g>
    <g id="ytick_4">
     <g id="line2d_33">
      <g>
       <use style="stroke:#000000;stroke-width:0.8;" x="230.4" xlink:href="#m7bb323220e" y="214.338462"/>
      </g>
     </g>
     <g id="text_10">
      <!-- −5 -->
      <g transform="translate(208.657812 218.13768)scale(0.1 -0.1)">
       <use xlink:href="#DejaVuSans-8722"/>
       <use x="83.789062" xlink:href="#DejaVuSans-53"/>
      </g>
     </g>
    </g>
    <g id="ytick_5">
     <g id="line2d_34">
      <g>
       <use style="stroke:#000000;stroke-width:0.8;" x="230.4" xlink:href="#m7bb323220e" y="172.8"/>
      </g>
     </g>
    </g>
    <g id="ytick_6">
     <g id="line2d_35">
      <g>
       <use style="stroke:#000000;stroke-width:0.8;" x="230.4" xlink:href="#m7bb323220e" y="131.261538"/>
      </g>
     </g>
     <g id="text_11">
      <!-- 5 -->
      <g transform="translate(217.0375 135.060757)scale(0.1 -0.1)">
       <use xlink:href="#DejaVuSans-53"/>
      </g>
     </g>
    </g>
    <g id="ytick_7">
     <g id="line2d_36">
      <g>
       <use style="stroke:#000000;stroke-width:0.8;" x="230.4" xlink:href="#m7bb323220e" y="89.723077"/>
      </g>
     </g>
     <g id="text_12">
      <!-- 10 -->
      <g transform="translate(210.675 93.522296)scale(0.1 -0.1)">
       <use xlink:href="#DejaVuSans-49"/>
       <use x="63.623047" xlink:href="#DejaVuSans-48"/>
      </g>
     </g>
    </g>
    <g id="ytick_8">
     <g id="line2d_37">
      <g>
       <use style="stroke:#000000;stroke-width:0.8;" x="230.4" xlink:href="#m7bb323220e" y="48.184615"/>
      </g>
     </g>
     <g id="text_13">
      <!-- 15 -->
      <g transform="translate(210.675 51.983834)scale(0.1 -0.1)">
       <use xlink:href="#DejaVuSans-49"/>
       <use x="63.623047" xlink:href="#DejaVuSans-53"/>
      </g>
     </g>
    </g>
    <g id="ytick_9">
     <g id="line2d_38">
      <g>
       <use style="stroke:#000000;stroke-width:0.8;" x="230.4" xlink:href="#m7bb323220e" y="6.646154"/>
      </g>
     </g>
     <g id="text_14">
      <!-- 20 -->
      <g transform="translate(210.675 10.445373)scale(0.1 -0.1)">
       <use xlink:href="#DejaVuSans-50"/>
       <use x="63.623047" xlink:href="#DejaVuSans-48"/>
      </g>
     </g>
    </g>
    <g id="ytick_10">
     <g id="line2d_39">
      <defs>
       <path d="M 0 0 
L -2 0 
" id="m72f4a623fc" style="stroke:#000000;stroke-width:0.6;"/>
      </defs>
      <g>
       <use style="stroke:#000000;stroke-width:0.6;" x="230.4" xlink:href="#m72f4a623fc" y="330.646154"/>
      </g>
     </g>
    </g>
    <g id="ytick_11">
     <g id="line2d_40">
      <g>
       <use style="stroke:#000000;stroke-width:0.6;" x="230.4" xlink:href="#m72f4a623fc" y="322.338462"/>
      </g>
     </g>
    </g>
    <g id="ytick_12">
     <g id="line2d_41">
      <g>
       <use style="stroke:#000000;stroke-width:0.6;" x="230.4" xlink:href="#m72f4a623fc" y="314.030769"/>
      </g>
     </g>
    </g>
    <g id="ytick_13">
     <g id="line2d_42">
      <g>
       <use style="stroke:#000000;stroke-width:0.6;" x="230.4" xlink:href="#m72f4a623fc" y="305.723077"/>
      </g>
     </g>
    </g>
    <g id="ytick_14">
     <g id="line2d_43">
      <g>
       <use style="stroke:#000000;stroke-width:0.6;" x="230.4" xlink:href="#m72f4a623fc" y="289.107692"/>
      </g>
     </g>
    </g>
    <g id="ytick_15">
     <g id="line2d_44">
      <g>
       <use style="stroke:#000000;stroke-width:0.6;" x="230.4" xlink:href="#m72f4a623fc" y="280.8"/>
      </g>
     </g>
    </g>
    <g id="ytick_16">
     <g id="line2d_45">
      <g>
       <use style="stroke:#000000;stroke-width:0.6;" x="230.4" xlink:href="#m72f4a623fc" y="272.492308"/>
      </g>
     </g>
    </g>
    <g id="ytick_17">
     <g id="line2d_46">
      <g>
       <use style="stroke:#000000;stroke-width:0.6;" x="230.4" xlink:href="#m72f4a623fc" y="264.184615"/>
      </g>
     </g>
    </g>
    <g id="ytick_18">
     <g id="line2d_47">
      <g>
       <use style="stroke:#000000;stroke-width:0.6;" x="230.4" xlink:href="#m72f4a623fc" y="247.569231"/>
      </g>
     </g>
    </g>
    <g id="ytick_19">
     <g id="line2d_48">
      <g>
       <use style="stroke:#000000;stroke-width:0.6;" x="230.4" xlink:href="#m72f4a623fc" y="239.261538"/>
      </g>
     </g>
    </g>
    <g id="ytick_20">
     <g id="line2d_49">
      <g>
       <use style="stroke:#000000;stroke-width:0.6;" x="230.4" xlink:href="#m72f4a623fc" y="230.953846"/>
      </g>
     </g>
    </g>
    <g id="ytick_21">
     <g id="line2d_50">
      <g>
       <use style="stroke:#000000;stroke-width:0.6;" x="230.4" xlink:href="#m72f4a623fc" y="222.646154"/>
      </g>
     </g>
    </g>
    <g id="ytick_22">
     <g id="line2d_51">
      <g>
       <use style="stroke:#000000;stroke-width:0.6;" x="230.4" xlink:href="#m72f4a623fc" y="206.030769"/>
      </g>
     </g>
    </g>
    <g id="ytick_23">
     <g id="line2d_52">
      <g>
       <use style="stroke:#000000;stroke-width:0.6;" x="230.4" xlink:href="#m72f4a623fc" y="197.723077"/>
      </g>
     </g>
    </g>
    <g id="ytick_24">
     <g id="line2d_53">
      <g>
       <use style="stroke:#000000;stroke-width:0.6;" x="230.4" xlink:href="#m72f4a623fc" y="189.415385"/>
      </g>
     </g>
    </g>
    <g id="ytick_25">
     <g id="line2d_54">
      <g>
       <use style="stroke:#000000;stroke-width:0.6;" x="230.4" xlink:href="#m72f4a623fc" y="181.107692"/>
      </g>
     </g>
    </g>
    <g id="ytick_26">
     <g id="line2d_55">
      <g>
       <use style="stroke:#000000;stroke-width:0.6;" x="230.4" xlink:href="#m72f4a623fc" y="164.492308"/>
      </g>
     </g>
    </g>
    <g id="ytick_27">
     <g id="line2d_56">
      <g>
       <use style="stroke:#000000;stroke-width:0.6;" x="230.4" xlink:href="#m72f4a623fc" y="156.184615"/>
      </g>
     </g>
    </g>
    <g id="ytick_28">
     <g id="line2d_57">
      <g>
       <use style="stroke:#000000;stroke-width:0.6;" x="230.4" xlink:href="#m72f4a623fc" y="147.876923"/>
      </g>
     </g>
    </g>
    <g id="ytick_29">
     <g id="line2d_58">
      <g>
       <use style="stroke:#000000;stroke-width:0.6;" x="230.4" xlink:href="#m72f4a623fc" y="139.569231"/>
      </g>
     </g>
    </g>
    <g id="ytick_30">
     <g id="line2d_59">
      <g>
       <use style="stroke:#000000;stroke-width:0.6;" x="230.4" xlink:href="#m72f4a623fc" y="122.953846"/>
      </g>
     </g>
    </g>
    <g id="ytick_31">
     <g id="line2d_60">
      <g>
       <use style="stroke:#000000;stroke-width:0.6;" x="230.4" xlink:href="#m72f4a623fc" y="114.646154"/>
      </g>
     </g>
    </g>
    <g id="ytick_32">
     <g id="line2d_61">
      <g>
       <use style="stroke:#000000;stroke-width:0.6;" x="230.4" xlink:href="#m72f4a623fc" y="106.338462"/>
      </g>
     </g>
    </g>
    <g id="ytick_33">
     <g id="line2d_62">
      <g>
       <use style="stroke:#000000;stroke-width:0.6;" x="230.4" xlink:href="#m72f4a623fc" y="98.030769"/>
      </g>
     </g>
    </g>
    <g id="ytick_34">
     <g id="line2d_63">
      <g>
       <use style="stroke:#000000;stroke-width:0.6;" x="230.4" xlink:href="#m72f4a623fc" y="81.415385"/>
      </g>
     </g>
    </g>
    <g id="ytick_35">
     <g id="line2d_64">
      <g>
       <use style="stroke:#000000;stroke-width:0.6;" x="230.4" xlink:href="#m72f4a623fc" y="73.107692"/>
      </g>
     </g>
    </g>
    <g id="ytick_36">
     <g id="line2d_65">
      <g>
       <use style="stroke:#000000;stroke-width:0.6;" x="230.4" xlink:href="#m72f4a623fc" y="64.8"/>
      </g>
     </g>
    </g>
    <g id="ytick_37">
     <g id="line2d_66">
      <g>
       <use style="stroke:#000000;stroke-width:0.6;" x="230.4" xlink:href="#m72f4a623fc" y="56.492308"/>
      </g>
     </g>
    </g>
    <g id="ytick_38">
     <g id="line2d_67">
      <g>
       <use style="stroke:#000000;stroke-width:0.6;" x="230.4" xlink:href="#m72f4a623fc" y="39.876923"/>
      </g>
     </g>
    </g>
    <g id="ytick_39">
     <g id="line2d_68">
      <g>
       <use style="stroke:#000000;stroke-width:0.6;" x="230.4" xlink:href="#m72f4a623fc" y="31.569231"/>
      </g>
     </g>
    </g>
    <g id="ytick_40">
     <g id="line2d_69">
      <g>
       <use style="stroke:#000000;stroke-width:0.6;" x="230.4" xlink:href="#m72f4a623fc" y="23.261538"/>
      </g>
     </g>
    </g>
    <g id="ytick_41">
     <g id="line2d_70">
      <g>
       <use style="stroke:#000000;stroke-width:0.6;" x="230.4" xlink:href="#m72f4a623fc" y="14.953846"/>
      </g>
     </g>
    </g>
   </g>
   <g id="line2d_71">
    <path clip-path="url(#p243965c0ad)" d="M 8.861538 280.646154 
L 37.187384 266.825255 
L 60.240051 255.81504 
L 79.158378 247.012357 
L 96.647408 239.147124 
L 109.43547 233.634365 
L 121.077063 228.867331 
L 128.840914 225.872132 
L 137.096289 222.909812 
L 143.996429 220.67302 
L 150.228043 218.912361 
L 154.974189 217.796814 
L 158.704526 217.102504 
L 162.566268 216.606139 
L 166.083342 216.41343 
L 168.812414 216.488541 
L 170.75424 216.694839 
L 173.12897 217.165496 
L 175.001167 217.748578 
L 176.955147 218.611574 
L 178.668285 219.639554 
L 180.256145 220.88178 
L 181.730259 222.353001 
L 183.093469 224.061954 
L 184.253816 225.852271 
L 185.414163 228.035741 
L 186.484843 230.494914 
L 187.679731 233.897909 
L 188.769153 237.80835 
L 189.700374 241.977881 
L 190.631596 247.185859 
L 191.542411 253.669818 
L 192.3716 261.267764 
L 193.117869 270.09604 
L 193.864139 281.70451 
L 194.519596 295.356923 
L 195.172423 314.011359 
L 195.743646 337.059818 
L 195.929233 346.6 
M 198.656395 346.6 
L 198.656604 -1 
M 201.051327 -1 
L 201.591359 35.074052 
L 202.23134 63.245859 
L 202.871849 82.61499 
L 203.603859 98.424639 
L 204.42737 111.266357 
L 205.250365 120.785381 
L 206.160218 128.784524 
L 207.063226 134.934917 
L 208.071407 140.335301 
L 209.079589 144.627587 
L 210.199791 148.455216 
L 211.436483 151.837606 
L 212.592256 154.404075 
L 213.819301 156.653612 
L 215.081983 158.574249 
L 216.748993 160.643459 
L 218.359754 162.260672 
L 219.968331 163.592782 
L 222.012109 164.978482 
L 224.564643 166.359015 
L 227.520002 167.627109 
L 231.434862 168.978531 
L 244.76426 173.150122 
L 247.435831 174.235422 
L 250.397372 175.658754 
L 253.209484 177.291684 
L 255.39836 178.804103 
L 257.442673 180.452033 
L 259.05189 181.939904 
L 261.199547 184.238781 
L 263.168195 186.724006 
L 264.881385 189.243767 
L 266.725453 192.406485 
L 268.36264 195.688429 
L 270.120423 199.821237 
L 271.658484 204.072591 
L 273.219764 209.140002 
L 274.663783 214.663561 
L 276.107802 221.195991 
L 277.482297 228.598685 
L 278.796911 237.061025 
L 280.053425 246.778729 
L 281.244529 257.906028 
L 282.370223 270.677141 
L 283.420156 285.211364 
L 284.394326 301.727845 
L 285.368496 322.212822 
L 286.287979 346.6 
M 293.681277 346.6 
L 293.681879 -1 
M 308.542321 -1 
L 309.824782 7.293487 
L 311.149914 14.483386 
L 312.619241 21.17075 
L 314.111633 26.870119 
L 315.659283 31.855741 
L 317.199446 36.064432 
L 318.739609 39.660732 
L 320.348334 42.878097 
L 322.106594 45.873194 
L 324.025828 48.629067 
L 325.819083 50.802029 
L 327.709553 52.741351 
L 329.8877 54.600772 
L 332.147301 56.174994 
L 334.4223 57.45492 
L 336.732535 58.491064 
L 339.429201 59.417774 
L 342.633073 60.188973 
L 344.950411 60.55914 
L 347.635084 60.820817 
L 350.8754 60.931866 
L 353.860129 60.865095 
L 358.043993 60.542381 
L 362.58236 59.940866 
L 367.955441 58.95402 
L 373.918977 57.578294 
L 380.386656 55.820475 
L 386.925831 53.818553 
L 393.600711 51.587379 
L 402.297448 48.452446 
L 413.63486 44.063289 
L 426.148859 38.917392 
L 438.423498 33.638163 
L 451.938462 27.623077 
L 451.938462 27.623077 
" style="fill:none;stroke:#0000cc;stroke-linecap:square;"/>
   </g>
   <g id="line2d_72">
    <path clip-path="url(#p243965c0ad)" d="M 8.861538 272.492308 
L 451.938462 39.876923 
L 451.938462 39.876923 
" style="fill:none;stroke:#3ccc00;stroke-linecap:square;"/>
   </g>
   <g id="patch_4">
    <path d="M 230.4 345.6 
L 230.4 0 
" style="fill:none;stroke:#000000;stroke-linecap:square;stroke-linejoin:miter;stroke-width:0.8;"/>
   </g>
   <g id="patch_5">
    <path d="M 0 172.8 
L 460.8 172.8 
" style="fill:none;stroke:#000000;stroke-linecap:square;stroke-linejoin:miter;stroke-width:0.8;"/>
   </g>
  </g>
 </g>
 <defs>
  <clipPath id="p243965c0ad">
   <rect height="345.6" width="460.8" x="0" y="0"/>
  </clipPath>
 </defs>
</svg>
