<?xml version="1.0" encoding="utf-8" standalone="no"?>
<!DOCTYPE svg PUBLIC "-//W3C//DTD SVG 1.1//EN"
  "http://www.w3.org/Graphics/SVG/1.1/DTD/svg11.dtd">
<svg xmlns:xlink="http://www.w3.org/1999/xlink" width="460.8pt" height="345.6pt" viewBox="0 0 460.8 345.6" xmlns="http://www.w3.org/2000/svg" version="1.1">
 <metadata>
  <rdf:RDF xmlns:dc="http://purl.org/dc/elements/1.1/" xmlns:cc="http://creativecommons.org/ns#" xmlns:rdf="http://www.w3.org/1999/02/22-rdf-syntax-ns#">
   <cc:Work>
    <dc:type rdf:resource="http://purl.org/dc/dcmitype/StillImage"/>
    <dc:date>2022-09-21T15:21:35.706499</dc:date>
    <dc:format>image/svg+xml</dc:format>
    <dc:creator>
     <cc:Agent>
      <dc:title>Matplotlib v3.5.2, https://matplotlib.org/</dc:title>
     </cc:Agent>
    </dc:creator>
   </cc:Work>
  </rdf:RDF>
 </metadata>
 <defs>
  <style type="text/css">*{stroke-linejoin: round; stroke-linecap: butt}</style>
 </defs>
 <g id="figure_1">
  <g id="patch_1">
   <path d="M 0 345.6 
L 460.8 345.6 
L 460.8 0 
L 0 0 
z
" style="fill: #ffffff"/>
  </g>
  <g id="axes_1">
   <g id="patch_2">
    <path d="M 65.88679 345.6 
L 394.91321 345.6 
L 394.91321 0 
L 65.88679 0 
z
" style="fill: #ffffff"/>
   </g>
   <g id="matplotlib.axis_1">
    <g id="xtick_1">
     <g id="line2d_1">
      <defs>
       <path id="m6a4efa1220" d="M 0 0 
L 0 3.5 
" style="stroke: #000000; stroke-width: 0.8"/>
      </defs>
      <g>
       <use xlink:href="#m6a4efa1220" x="147.318485" y="172.796169" style="stroke: #000000; stroke-width: 0.8"/>
      </g>
     </g>
     <g id="text_1">
      <!-- −0.5 -->
      <g transform="translate(135.177079 187.394606)scale(0.1 -0.1)">
       <defs>
        <path id="DejaVuSans-2212" d="M 678 2272 
L 4684 2272 
L 4684 1741 
L 678 1741 
L 678 2272 
z
" transform="scale(0.015625)"/>
        <path id="DejaVuSans-30" d="M 2034 4250 
Q 1547 4250 1301 3770 
Q 1056 3291 1056 2328 
Q 1056 1369 1301 889 
Q 1547 409 2034 409 
Q 2525 409 2770 889 
Q 3016 1369 3016 2328 
Q 3016 3291 2770 3770 
Q 2525 4250 2034 4250 
z
M 2034 4750 
Q 2819 4750 3233 4129 
Q 3647 3509 3647 2328 
Q 3647 1150 3233 529 
Q 2819 -91 2034 -91 
Q 1250 -91 836 529 
Q 422 1150 422 2328 
Q 422 3509 836 4129 
Q 1250 4750 2034 4750 
z
" transform="scale(0.015625)"/>
        <path id="DejaVuSans-2e" d="M 684 794 
L 1344 794 
L 1344 0 
L 684 0 
L 684 794 
z
" transform="scale(0.015625)"/>
        <path id="DejaVuSans-35" d="M 691 4666 
L 3169 4666 
L 3169 4134 
L 1269 4134 
L 1269 2991 
Q 1406 3038 1543 3061 
Q 1681 3084 1819 3084 
Q 2600 3084 3056 2656 
Q 3513 2228 3513 1497 
Q 3513 744 3044 326 
Q 2575 -91 1722 -91 
Q 1428 -91 1123 -41 
Q 819 9 494 109 
L 494 744 
Q 775 591 1075 516 
Q 1375 441 1709 441 
Q 2250 441 2565 725 
Q 2881 1009 2881 1497 
Q 2881 1984 2565 2268 
Q 2250 2553 1709 2553 
Q 1456 2553 1204 2497 
Q 953 2441 691 2322 
L 691 4666 
z
" transform="scale(0.015625)"/>
       </defs>
       <use xlink:href="#DejaVuSans-2212"/>
       <use xlink:href="#DejaVuSans-30" x="83.789062"/>
       <use xlink:href="#DejaVuSans-2e" x="147.412109"/>
       <use xlink:href="#DejaVuSans-35" x="179.199219"/>
      </g>
     </g>
    </g>
    <g id="xtick_2">
     <g id="line2d_2">
      <g>
       <use xlink:href="#m6a4efa1220" x="230.397325" y="172.796169" style="stroke: #000000; stroke-width: 0.8"/>
      </g>
     </g>
    </g>
    <g id="xtick_3">
     <g id="line2d_3">
      <g>
       <use xlink:href="#m6a4efa1220" x="313.476165" y="172.796169" style="stroke: #000000; stroke-width: 0.8"/>
      </g>
     </g>
     <g id="text_2">
      <!-- 0.5 -->
      <g transform="translate(305.524603 187.394606)scale(0.1 -0.1)">
       <use xlink:href="#DejaVuSans-30"/>
       <use xlink:href="#DejaVuSans-2e" x="63.623047"/>
       <use xlink:href="#DejaVuSans-35" x="95.410156"/>
      </g>
     </g>
    </g>
    <g id="xtick_4">
     <g id="line2d_4">
      <defs>
       <path id="mfd49b213f8" d="M 0 0 
L 0 2 
" style="stroke: #000000; stroke-width: 0.6"/>
      </defs>
      <g>
       <use xlink:href="#mfd49b213f8" x="80.855413" y="172.796169" style="stroke: #000000; stroke-width: 0.6"/>
      </g>
     </g>
    </g>
    <g id="xtick_5">
     <g id="line2d_5">
      <g>
       <use xlink:href="#mfd49b213f8" x="97.471181" y="172.796169" style="stroke: #000000; stroke-width: 0.6"/>
      </g>
     </g>
    </g>
    <g id="xtick_6">
     <g id="line2d_6">
      <g>
       <use xlink:href="#mfd49b213f8" x="114.086949" y="172.796169" style="stroke: #000000; stroke-width: 0.6"/>
      </g>
     </g>
    </g>
    <g id="xtick_7">
     <g id="line2d_7">
      <g>
       <use xlink:href="#mfd49b213f8" x="130.702717" y="172.796169" style="stroke: #000000; stroke-width: 0.6"/>
      </g>
     </g>
    </g>
    <g id="xtick_8">
     <g id="line2d_8">
      <g>
       <use xlink:href="#mfd49b213f8" x="163.934253" y="172.796169" style="stroke: #000000; stroke-width: 0.6"/>
      </g>
     </g>
    </g>
    <g id="xtick_9">
     <g id="line2d_9">
      <g>
       <use xlink:href="#mfd49b213f8" x="180.550021" y="172.796169" style="stroke: #000000; stroke-width: 0.6"/>
      </g>
     </g>
    </g>
    <g id="xtick_10">
     <g id="line2d_10">
      <g>
       <use xlink:href="#mfd49b213f8" x="197.165789" y="172.796169" style="stroke: #000000; stroke-width: 0.6"/>
      </g>
     </g>
    </g>
    <g id="xtick_11">
     <g id="line2d_11">
      <g>
       <use xlink:href="#mfd49b213f8" x="213.781557" y="172.796169" style="stroke: #000000; stroke-width: 0.6"/>
      </g>
     </g>
    </g>
    <g id="xtick_12">
     <g id="line2d_12">
      <g>
       <use xlink:href="#mfd49b213f8" x="247.013093" y="172.796169" style="stroke: #000000; stroke-width: 0.6"/>
      </g>
     </g>
    </g>
    <g id="xtick_13">
     <g id="line2d_13">
      <g>
       <use xlink:href="#mfd49b213f8" x="263.628861" y="172.796169" style="stroke: #000000; stroke-width: 0.6"/>
      </g>
     </g>
    </g>
    <g id="xtick_14">
     <g id="line2d_14">
      <g>
       <use xlink:href="#mfd49b213f8" x="280.244629" y="172.796169" style="stroke: #000000; stroke-width: 0.6"/>
      </g>
     </g>
    </g>
    <g id="xtick_15">
     <g id="line2d_15">
      <g>
       <use xlink:href="#mfd49b213f8" x="296.860397" y="172.796169" style="stroke: #000000; stroke-width: 0.6"/>
      </g>
     </g>
    </g>
    <g id="xtick_16">
     <g id="line2d_16">
      <g>
       <use xlink:href="#mfd49b213f8" x="330.091933" y="172.796169" style="stroke: #000000; stroke-width: 0.6"/>
      </g>
     </g>
    </g>
    <g id="xtick_17">
     <g id="line2d_17">
      <g>
       <use xlink:href="#mfd49b213f8" x="346.707701" y="172.796169" style="stroke: #000000; stroke-width: 0.6"/>
      </g>
     </g>
    </g>
    <g id="xtick_18">
     <g id="line2d_18">
      <g>
       <use xlink:href="#mfd49b213f8" x="363.323469" y="172.796169" style="stroke: #000000; stroke-width: 0.6"/>
      </g>
     </g>
    </g>
    <g id="xtick_19">
     <g id="line2d_19">
      <g>
       <use xlink:href="#mfd49b213f8" x="379.939237" y="172.796169" style="stroke: #000000; stroke-width: 0.6"/>
      </g>
     </g>
    </g>
   </g>
   <g id="matplotlib.axis_2">
    <g id="ytick_1">
     <g id="line2d_20">
      <defs>
       <path id="m1e1d275c95" d="M 0 0 
L -3.5 0 
" style="stroke: #000000; stroke-width: 0.8"/>
      </defs>
      <g>
       <use xlink:href="#m1e1d275c95" x="230.397325" y="338.953849" style="stroke: #000000; stroke-width: 0.8"/>
      </g>
     </g>
     <g id="text_3">
      <!-- −1.0 -->
      <g transform="translate(199.114512 342.753068)scale(0.1 -0.1)">
       <defs>
        <path id="DejaVuSans-31" d="M 794 531 
L 1825 531 
L 1825 4091 
L 703 3866 
L 703 4441 
L 1819 4666 
L 2450 4666 
L 2450 531 
L 3481 531 
L 3481 0 
L 794 0 
L 794 531 
z
" transform="scale(0.015625)"/>
       </defs>
       <use xlink:href="#DejaVuSans-2212"/>
       <use xlink:href="#DejaVuSans-31" x="83.789062"/>
       <use xlink:href="#DejaVuSans-2e" x="147.412109"/>
       <use xlink:href="#DejaVuSans-30" x="179.199219"/>
      </g>
     </g>
    </g>
    <g id="ytick_2">
     <g id="line2d_21">
      <g>
       <use xlink:href="#m1e1d275c95" x="230.397325" y="255.875009" style="stroke: #000000; stroke-width: 0.8"/>
      </g>
     </g>
     <g id="text_4">
      <!-- −0.5 -->
      <g transform="translate(199.114512 259.674228)scale(0.1 -0.1)">
       <use xlink:href="#DejaVuSans-2212"/>
       <use xlink:href="#DejaVuSans-30" x="83.789062"/>
       <use xlink:href="#DejaVuSans-2e" x="147.412109"/>
       <use xlink:href="#DejaVuSans-35" x="179.199219"/>
      </g>
     </g>
    </g>
    <g id="ytick_3">
     <g id="line2d_22">
      <g>
       <use xlink:href="#m1e1d275c95" x="230.397325" y="172.796169" style="stroke: #000000; stroke-width: 0.8"/>
      </g>
     </g>
    </g>
    <g id="ytick_4">
     <g id="line2d_23">
      <g>
       <use xlink:href="#m1e1d275c95" x="230.397325" y="89.717328" style="stroke: #000000; stroke-width: 0.8"/>
      </g>
     </g>
     <g id="text_5">
      <!-- 0.5 -->
      <g transform="translate(207.4942 93.516547)scale(0.1 -0.1)">
       <use xlink:href="#DejaVuSans-30"/>
       <use xlink:href="#DejaVuSans-2e" x="63.623047"/>
       <use xlink:href="#DejaVuSans-35" x="95.410156"/>
      </g>
     </g>
    </g>
    <g id="ytick_5">
     <g id="line2d_24">
      <g>
       <use xlink:href="#m1e1d275c95" x="230.397325" y="6.638488" style="stroke: #000000; stroke-width: 0.8"/>
      </g>
     </g>
     <g id="text_6">
      <!-- 1.0 -->
      <g transform="translate(207.4942 10.437707)scale(0.1 -0.1)">
       <use xlink:href="#DejaVuSans-31"/>
       <use xlink:href="#DejaVuSans-2e" x="63.623047"/>
       <use xlink:href="#DejaVuSans-30" x="95.410156"/>
      </g>
     </g>
    </g>
    <g id="ytick_6">
     <g id="line2d_25">
      <defs>
       <path id="m389387d881" d="M 0 0 
L -2 0 
" style="stroke: #000000; stroke-width: 0.6"/>
      </defs>
      <g>
       <use xlink:href="#m389387d881" x="230.397325" y="322.338081" style="stroke: #000000; stroke-width: 0.6"/>
      </g>
     </g>
    </g>
    <g id="ytick_7">
     <g id="line2d_26">
      <g>
       <use xlink:href="#m389387d881" x="230.397325" y="305.722313" style="stroke: #000000; stroke-width: 0.6"/>
      </g>
     </g>
    </g>
    <g id="ytick_8">
     <g id="line2d_27">
      <g>
       <use xlink:href="#m389387d881" x="230.397325" y="289.106545" style="stroke: #000000; stroke-width: 0.6"/>
      </g>
     </g>
    </g>
    <g id="ytick_9">
     <g id="line2d_28">
      <g>
       <use xlink:href="#m389387d881" x="230.397325" y="272.490777" style="stroke: #000000; stroke-width: 0.6"/>
      </g>
     </g>
    </g>
    <g id="ytick_10">
     <g id="line2d_29">
      <g>
       <use xlink:href="#m389387d881" x="230.397325" y="239.259241" style="stroke: #000000; stroke-width: 0.6"/>
      </g>
     </g>
    </g>
    <g id="ytick_11">
     <g id="line2d_30">
      <g>
       <use xlink:href="#m389387d881" x="230.397325" y="222.643473" style="stroke: #000000; stroke-width: 0.6"/>
      </g>
     </g>
    </g>
    <g id="ytick_12">
     <g id="line2d_31">
      <g>
       <use xlink:href="#m389387d881" x="230.397325" y="206.027705" style="stroke: #000000; stroke-width: 0.6"/>
      </g>
     </g>
    </g>
    <g id="ytick_13">
     <g id="line2d_32">
      <g>
       <use xlink:href="#m389387d881" x="230.397325" y="189.411937" style="stroke: #000000; stroke-width: 0.6"/>
      </g>
     </g>
    </g>
    <g id="ytick_14">
     <g id="line2d_33">
      <g>
       <use xlink:href="#m389387d881" x="230.397325" y="156.180401" style="stroke: #000000; stroke-width: 0.6"/>
      </g>
     </g>
    </g>
    <g id="ytick_15">
     <g id="line2d_34">
      <g>
       <use xlink:href="#m389387d881" x="230.397325" y="139.564633" style="stroke: #000000; stroke-width: 0.6"/>
      </g>
     </g>
    </g>
    <g id="ytick_16">
     <g id="line2d_35">
      <g>
       <use xlink:href="#m389387d881" x="230.397325" y="122.948865" style="stroke: #000000; stroke-width: 0.6"/>
      </g>
     </g>
    </g>
    <g id="ytick_17">
     <g id="line2d_36">
      <g>
       <use xlink:href="#m389387d881" x="230.397325" y="106.333097" style="stroke: #000000; stroke-width: 0.6"/>
      </g>
     </g>
    </g>
    <g id="ytick_18">
     <g id="line2d_37">
      <g>
       <use xlink:href="#m389387d881" x="230.397325" y="73.10156" style="stroke: #000000; stroke-width: 0.6"/>
      </g>
     </g>
    </g>
    <g id="ytick_19">
     <g id="line2d_38">
      <g>
       <use xlink:href="#m389387d881" x="230.397325" y="56.485792" style="stroke: #000000; stroke-width: 0.6"/>
      </g>
     </g>
    </g>
    <g id="ytick_20">
     <g id="line2d_39">
      <g>
       <use xlink:href="#m389387d881" x="230.397325" y="39.870024" style="stroke: #000000; stroke-width: 0.6"/>
      </g>
     </g>
    </g>
    <g id="ytick_21">
     <g id="line2d_40">
      <g>
       <use xlink:href="#m389387d881" x="230.397325" y="23.254256" style="stroke: #000000; stroke-width: 0.6"/>
      </g>
     </g>
    </g>
   </g>
   <g id="line2d_41">
    <path d="M 230.397325 172.796169 
L 234.042362 172.687739 
L 240.186578 172.315474 
L 249.037601 171.519343 
L 256.557318 170.652872 
L 265.063613 169.489287 
L 274.035336 168.066533 
L 283.616936 166.334712 
L 292.85473 164.460127 
L 302.333394 162.32499 
L 321.452601 157.327625 
L 329.616197 154.884492 
L 340.608987 151.255218 
L 350.922407 147.430594 
L 356.194555 145.283814 
L 361.163321 143.115225 
L 365.797043 140.93922 
L 372.394872 137.505702 
L 376.626191 135.011992 
L 380.25992 132.588034 
L 383.265037 130.259395 
L 385.517756 128.155178 
L 387.092831 126.278475 
L 388.109244 124.536942 
L 388.405901 123.722154 
L 388.56095 122.94739 
L 388.574283 122.214598 
L 388.365108 121.288203 
L 387.894975 120.447483 
L 387.165914 119.696642 
L 386.180822 119.039567 
L 384.943452 118.479811 
L 383.458398 118.020568 
L 381.731072 117.664656 
L 379.767688 117.4145 
L 377.008931 117.253979 
L 373.911368 117.262853 
L 370.491712 117.443005 
L 366.76827 117.79523 
L 362.101684 118.417838 
L 357.087178 119.268449 
L 351.760035 120.342599 
L 346.157494 121.633761 
L 335.885233 124.366419 
L 325.113039 127.667797 
L 318.027751 130.055008 
L 310.886624 132.621813 
L 296.673994 138.18582 
L 284.494469 143.422167 
L 274.343726 148.118256 
L 264.910133 152.764796 
L 256.367102 157.225306 
L 248.810519 161.394055 
L 239.675589 166.768687 
L 233.129733 170.926856 
L 230.405658 172.790094 
L 232.125386 171.479107 
L 236.253265 168.146564 
L 242.007316 163.224726 
L 247.803215 158.007483 
L 254.440803 151.746023 
L 259.812959 146.463563 
L 266.062643 140.077351 
L 269.27819 136.688739 
L 275.817892 129.572868 
L 282.405296 122.082247 
L 299.081805 101.397698 
L 302.60075 96.640935 
L 307.460419 89.775554 
L 314.050159 79.761465 
L 317.901534 73.385063 
L 319.647667 70.314595 
L 321.948666 66.035927 
L 323.972519 61.973052 
L 325.7082 58.151371 
L 327.899376 52.494654 
L 329.03519 48.66074 
L 329.416679 46.937308 
L 329.703814 45.09926 
L 329.821361 43.451767 
L 329.76996 42.000998 
L 329.550839 40.752501 
L 329.165809 39.711178 
L 328.617247 38.881266 
L 327.908082 38.266313 
L 327.041777 37.869164 
L 325.782711 37.682704 
L 324.305435 37.823629 
L 322.619105 38.292682 
L 320.733836 39.088967 
L 318.677278 40.20008 
L 316.44721 41.626816 
L 314.055894 43.363498 
L 311.516227 45.402879 
L 308.940999 47.646404 
L 306.252962 50.153683 
L 300.589959 55.916386 
L 294.632496 62.592734 
L 288.487906 70.066416 
L 283.492401 76.553831 
L 278.499777 83.394923 
L 270.222276 95.523583 
L 262.256029 108.158931 
L 258.492792 114.480821 
L 251.667125 126.591711 
L 245.797844 137.771459 
L 241.090719 147.368682 
L 237.449787 155.287439 
L 233.451368 164.688206 
L 230.940155 171.232594 
L 230.400953 172.785067 
L 230.854687 171.289168 
L 232.228549 166.267893 
L 233.823541 159.723107 
L 235.906566 150.000366 
L 237.364589 142.262196 
L 238.802848 133.657411 
L 240.156196 124.356212 
L 241.409678 114.164485 
L 241.983228 108.714977 
L 242.94621 97.566174 
L 243.991444 74.999823 
L 243.987134 62.245074 
L 243.595378 51.663993 
L 242.844648 41.807111 
L 241.750048 32.867108 
L 240.57188 26.135302 
L 239.449727 21.264366 
L 238.060961 16.613412 
L 237.241684 14.414372 
L 236.387362 12.476868 
L 235.502324 10.807762 
L 234.591073 9.412966 
L 233.658266 8.297423 
L 232.708684 7.465086 
L 231.747204 6.918908 
L 230.96148 6.687356 
L 230.173842 6.646154 
L 229.509714 6.759543 
L 228.847731 7.008348 
L 228.189491 7.392155 
L 226.890582 8.561998 
L 225.625498 10.261293 
L 225.009453 11.30609 
L 224.170387 12.980395 
L 223.360577 14.899057 
L 222.583775 17.055847 
L 221.143313 22.055084 
L 219.875171 27.913336 
L 218.875225 34.030708 
L 218.115963 40.184194 
L 217.796582 43.433926 
L 217.282633 50.241538 
L 216.938909 57.406877 
L 216.746725 69.101293 
L 216.964999 81.237696 
L 217.664379 94.956153 
L 218.352495 103.807165 
L 219.201223 112.486642 
L 220.830591 125.7662 
L 222.052177 134.041979 
L 223.987672 145.325005 
L 225.754679 154.218293 
L 227.835192 163.360958 
L 229.454603 169.586573 
L 230.393961 172.785757 
L 229.933603 171.454055 
L 228.099751 166.586029 
L 224.702119 158.379974 
L 220.564898 149.197272 
L 217.500037 142.795909 
L 213.614021 135.065709 
L 209.259656 126.835058 
L 204.478885 118.249442 
L 199.324043 109.458851 
L 186.50436 89.439212 
L 181.87856 82.810907 
L 177.20793 76.428014 
L 172.575263 70.405909 
L 165.718268 62.0753 
L 161.272745 57.069463 
L 156.109927 51.687423 
L 153.21837 48.899433 
L 150.444867 46.39862 
L 147.804217 44.196484 
L 145.492988 42.434518 
L 143.318533 40.943042 
L 141.291293 39.727435 
L 139.421185 38.791847 
L 137.967719 38.220852 
L 136.63889 37.853731 
L 135.439662 37.690915 
L 134.374633 37.732198 
L 133.448007 37.976744 
L 132.663585 38.423094 
L 132.02474 39.06917 
L 131.534403 39.912291 
L 131.190745 40.967817 
L 131.005171 42.219482 
L 130.979266 43.662639 
L 131.114091 45.292057 
L 131.519683 47.629608 
L 132.186989 50.247057 
L 133.114363 53.129843 
L 134.298702 56.262166 
L 135.735438 59.627087 
L 137.418553 63.206631 
L 139.340584 66.98189 
L 141.492659 70.93314 
L 143.881129 75.06795 
L 149.277607 83.724282 
L 152.258013 88.201613 
L 157.585099 95.80079 
L 163.936247 104.322424 
L 170.642497 112.812252 
L 182.244995 126.507475 
L 188.0866 132.994973 
L 198.318176 143.773752 
L 206.788164 152.164753 
L 213.371393 158.356843 
L 220.414325 164.644287 
L 226.935009 170.103734 
L 230.376821 172.781349 
L 228.810264 171.694693 
L 223.452775 168.214656 
L 217.123384 164.366827 
L 211.416308 161.072824 
L 204.311143 157.162802 
L 196.284804 152.968253 
L 187.46322 148.603552 
L 175.961304 143.270644 
L 168.894273 140.186908 
L 152.974313 133.771676 
L 143.981569 130.480443 
L 135.061222 127.46664 
L 122.075443 123.569168 
L 113.554723 121.37246 
L 105.276964 119.567971 
L 98.538835 118.394481 
L 93.196386 117.704475 
L 88.369833 117.321974 
L 84.105198 117.246717 
L 80.126222 117.512413 
L 78.283626 117.806449 
L 76.675312 118.203232 
L 75.306984 118.70024 
L 74.047561 119.384368 
L 73.111554 120.189808 
L 72.5036 121.111174 
L 72.22694 122.142562 
L 72.282896 123.274936 
L 72.670872 124.503716 
L 73.389834 125.821752 
L 74.437327 127.221554 
L 75.809474 128.695348 
L 77.500994 130.235121 
L 79.505219 131.83267 
L 83.613054 134.661527 
L 87.633277 137.074247 
L 92.188903 139.53279 
L 97.242607 142.014034 
L 104.092158 145.069032 
L 112.169585 148.322643 
L 116.003174 149.758348 
L 123.981557 152.555974 
L 131.592073 155.013165 
L 139.406492 157.346128 
L 155.327696 161.570796 
L 167.291914 164.321046 
L 178.89002 166.66009 
L 188.715719 168.393376 
L 197.849145 169.796333 
L 206.755603 170.960778 
L 216.724353 171.998946 
L 224.78982 172.588799 
L 230.361011 172.796061 
L 227.921754 172.856775 
L 222.545768 173.140658 
L 214.420143 173.806037 
L 206.147942 174.704267 
L 196.986168 175.919746 
L 186.79583 177.519621 
L 177.915209 179.116638 
L 168.641082 180.982846 
L 159.112391 183.113685 
L 149.471643 185.497483 
L 137.171202 188.895003 
L 126.848956 192.087821 
L 116.975881 195.479627 
L 106.845082 199.376508 
L 102.133882 201.365621 
L 94.884695 204.708277 
L 89.690058 207.37761 
L 85.099682 210.006142 
L 81.157193 212.564551 
L 78.140057 214.826347 
L 75.914606 216.794126 
L 74.201858 218.656733 
L 73.012391 220.397867 
L 72.369355 221.940233 
L 72.214221 223.287327 
L 72.305904 223.909425 
L 72.510131 224.49549 
L 72.826479 225.044285 
L 73.793043 226.025395 
L 74.509563 226.494608 
L 76.332677 227.281443 
L 78.663898 227.858524 
L 81.485808 228.218139 
L 84.799685 228.354451 
L 88.589791 228.258998 
L 92.809042 227.927932 
L 95.070064 227.673895 
L 103.299677 226.399254 
L 110.575721 224.91009 
L 118.44799 222.996535 
L 122.595334 221.879277 
L 131.141225 219.366317 
L 139.927069 216.5137 
L 148.837235 213.365392 
L 163.45783 207.679153 
L 170.617684 204.666772 
L 177.595245 201.588011 
L 184.299637 198.495054 
L 196.77555 192.373927 
L 206.399793 187.300399 
L 213.508349 183.329129 
L 221.529039 178.572115 
L 227.742199 174.614179 
L 230.389615 172.801788 
L 229.198523 173.702535 
L 224.25194 177.686421 
L 218.080728 182.990501 
L 210.85968 189.563373 
L 203.801473 196.33231 
L 196.135486 204.058067 
L 189.7212 210.826633 
L 183.175658 218.034173 
L 176.614194 225.588064 
L 170.150153 233.387727 
L 163.531569 241.797863 
L 157.853768 249.420126 
L 150.152459 260.534577 
L 145.702575 267.509821 
L 141.762806 274.179647 
L 138.38302 280.45695 
L 135.341342 286.853697 
L 134.001684 290.077143 
L 132.902578 293.076134 
L 132.047947 295.835243 
L 131.454541 298.27106 
L 131.095287 300.45501 
L 130.970227 302.376012 
L 131.078263 304.024121 
L 131.405204 305.357983 
L 131.947864 306.418022 
L 132.702232 307.198453 
L 133.663369 307.694687 
L 134.517864 307.878448 
L 135.482969 307.89896 
L 136.555636 307.755662 
L 137.732563 307.448401 
L 139.010211 306.977431 
L 141.852398 305.547447 
L 144.769975 303.673061 
L 147.657613 301.512473 
L 150.747268 298.929941 
L 152.360739 297.485289 
L 157.791232 292.206471 
L 162.08681 287.630781 
L 164.290637 285.159929 
L 168.783223 279.881638 
L 173.352824 274.19739 
L 178.319196 267.673859 
L 183.271997 260.816976 
L 192.934404 246.423854 
L 199.568664 235.726555 
L 207.348751 222.242209 
L 212.010131 213.607577 
L 216.19088 205.445262 
L 221.249005 194.923746 
L 224.360567 187.998922 
L 227.783556 179.805616 
L 230.255236 173.218531 
L 230.396712 172.79805 
L 229.743465 174.981951 
L 228.355854 180.144648 
L 226.283769 188.922654 
L 224.694116 196.57272 
L 222.877139 206.508939 
L 221.339671 216.242894 
L 220.121925 225.206988 
L 219.561784 229.865651 
L 218.563686 239.453668 
L 217.757459 249.288128 
L 216.798364 270.872213 
L 216.792115 282.491148 
L 217.179205 293.564659 
L 217.744442 301.573188 
L 218.534806 309.017514 
L 219.538395 315.803494 
L 220.738737 321.845162 
L 221.907908 326.370408 
L 223.191193 330.250871 
L 224.652512 333.610774 
L 225.417122 334.994321 
L 226.200571 336.175279 
L 226.999909 337.150564 
L 227.812118 337.917631 
L 228.634128 338.474478 
L 229.462825 338.819649 
L 230.39303 338.953846 
L 231.323256 338.822102 
L 232.249095 338.424847 
L 233.166164 337.763376 
L 234.070125 336.839848 
L 234.95671 335.657272 
L 235.821745 334.219506 
L 236.661167 332.531235 
L 237.720574 329.936149 
L 239.323983 324.804687 
L 240.440811 320.090405 
L 241.608538 313.652316 
L 242.703156 305.176806 
L 243.482341 295.827061 
L 243.930858 285.772396 
L 244.029183 280.537078 
L 243.996618 270.891855 
L 243.702992 261.040883 
L 242.960327 248.218653 
L 241.85454 235.597268 
L 240.940509 227.383093 
L 239.371917 215.677593 
L 237.650786 204.956948 
L 235.574403 193.944305 
L 233.425458 184.165993 
L 231.688041 177.27636 
L 230.409755 172.834837 
L 231.02431 174.593702 
L 232.951495 179.655647 
L 236.223646 187.515001 
L 239.39467 194.596762 
L 243.2647 202.73534 
L 246.782346 209.752122 
L 251.233434 218.200544 
L 253.587493 222.497548 
L 258.599652 231.294348 
L 263.967161 240.230831 
L 269.621566 249.149692 
L 275.150815 257.409391 
L 280.796215 265.388185 
L 287.847571 274.714591 
L 291.349668 279.07777 
L 297.188754 285.936227 
L 301.830152 290.989552 
L 306.273621 295.458522 
L 310.467422 299.295716 
L 314.206504 302.3438 
L 317.487162 304.656407 
L 320.36877 306.322716 
L 322.848028 307.378577 
L 323.959916 307.695484 
L 324.982766 307.871243 
L 325.913889 307.905886 
L 326.750774 307.799745 
L 327.491104 307.553454 
L 328.1211 307.176862 
L 328.654456 306.667621 
L 329.089562 306.027149 
L 329.425004 305.257124 
L 329.659575 304.359482 
L 329.79228 303.336412 
L 329.749169 300.923962 
L 329.489996 299.050544 
L 329.046016 296.975359 
L 327.734836 292.618574 
L 325.79954 287.654033 
L 323.258656 282.1467 
L 320.139242 276.167338 
L 315.672629 268.459151 
L 310.497806 260.3161 
L 304.395792 251.444199 
L 297.737293 242.41897 
L 283.318526 224.575821 
L 274.957623 215.065731 
L 266.126777 205.58188 
L 257.704603 197.032901 
L 249.8981 189.52889 
L 243.085938 183.319957 
L 236.853402 177.94562 
L 231.390836 173.544635 
L 230.404895 172.801651 
L 232.284811 174.100706 
L 236.918917 177.111746 
L 242.256868 180.385116 
L 248.937771 184.270391 
L 256.927426 188.667445 
L 262.907524 191.804343 
L 272.089092 196.388909 
L 282.019366 201.053272 
L 289.313479 204.293445 
L 296.816689 207.465319 
L 312.166281 213.442009 
L 321.070597 216.582509 
L 329.848055 219.426523 
L 339.933483 222.355022 
L 349.489877 224.745199 
L 356.837159 226.277173 
L 363.607541 227.394915 
L 369.712555 228.087831 
L 375.071664 228.352409 
L 376.746439 228.344477 
L 379.618215 228.191637 
L 383.21702 227.63123 
L 385.123112 227.043532 
L 386.621079 226.291324 
L 387.701727 225.381545 
L 388.358151 224.322076 
L 388.525758 223.73891 
L 388.538015 222.471556 
L 388.293473 221.518381 
L 387.842083 220.507966 
L 387.269345 219.566799 
L 385.642108 217.568414 
L 383.3831 215.433408 
L 380.509713 213.184207 
L 376.897741 210.750915 
L 372.508345 208.150008 
L 367.506188 205.500175 
L 361.938709 202.83005 
L 355.211252 199.89689 
L 347.2415 196.74415 
L 338.298464 193.539088 
L 333.424554 191.918446 
L 323.386519 188.825546 
L 302.756497 183.367757 
L 289.39974 180.407506 
L 282.074147 178.964152 
L 268.259916 176.587479 
L 258.543247 175.194337 
L 249.40256 174.111278 
L 241.852384 173.405862 
L 233.82518 172.895028 
L 230.397325 172.796169 
L 230.397325 172.796169 
" clip-path="url(#p20e9313df9)" style="fill: none; stroke: #0000ff; stroke-linecap: square"/>
   </g>
   <g id="patch_3">
    <path d="M 230.397325 345.6 
L 230.397325 0 
" style="fill: none; stroke: #000000; stroke-width: 0.8; stroke-linejoin: miter; stroke-linecap: square"/>
   </g>
   <g id="patch_4">
    <path d="M 65.88679 172.796169 
L 394.91321 172.796169 
" style="fill: none; stroke: #000000; stroke-width: 0.8; stroke-linejoin: miter; stroke-linecap: square"/>
   </g>
  </g>
 </g>
 <defs>
  <clipPath id="p20e9313df9">
   <rect x="65.88679" y="0" width="329.026421" height="345.6"/>
  </clipPath>
 </defs>
</svg>
