<?xml version="1.0" encoding="utf-8" standalone="no"?>
<!DOCTYPE svg PUBLIC "-//W3C//DTD SVG 1.1//EN"
  "http://www.w3.org/Graphics/SVG/1.1/DTD/svg11.dtd">
<svg xmlns:xlink="http://www.w3.org/1999/xlink" width="460.8pt" height="345.6pt" viewBox="0 0 460.8 345.6" xmlns="http://www.w3.org/2000/svg" version="1.1">
 <metadata>
  <rdf:RDF xmlns:dc="http://purl.org/dc/elements/1.1/" xmlns:cc="http://creativecommons.org/ns#" xmlns:rdf="http://www.w3.org/1999/02/22-rdf-syntax-ns#">
   <cc:Work>
    <dc:type rdf:resource="http://purl.org/dc/dcmitype/StillImage"/>
    <dc:date>2022-05-16T19:39:03.850556</dc:date>
    <dc:format>image/svg+xml</dc:format>
    <dc:creator>
     <cc:Agent>
      <dc:title>Matplotlib v3.5.1, https://matplotlib.org/</dc:title>
     </cc:Agent>
    </dc:creator>
   </cc:Work>
  </rdf:RDF>
 </metadata>
 <defs>
  <style type="text/css">*{stroke-linejoin: round; stroke-linecap: butt}</style>
 </defs>
 <g id="figure_1">
  <g id="patch_1">
   <path d="M 0 345.6 
L 460.8 345.6 
L 460.8 0 
L 0 0 
z
" style="fill: #ffffff"/>
  </g>
  <g id="axes_1">
   <g id="patch_2">
    <path d="M 65.032479 152.646154 
L 395.767521 152.646154 
L 395.767521 10.8 
L 65.032479 10.8 
z
" style="fill: #ffffff"/>
   </g>
   <g id="matplotlib.axis_1">
    <g id="xtick_1">
     <g id="line2d_1">
      <defs>
       <path id="mefb452eb69" d="M 0 0 
L 0 3.5 
" style="stroke: #000000; stroke-width: 0.8"/>
      </defs>
      <g>
       <use xlink:href="#mefb452eb69" x="71.392768" y="149.918343" style="stroke: #000000; stroke-width: 0.8"/>
      </g>
     </g>
    </g>
    <g id="xtick_2">
     <g id="line2d_2">
      <g>
       <use xlink:href="#mefb452eb69" x="150.896384" y="149.918343" style="stroke: #000000; stroke-width: 0.8"/>
      </g>
     </g>
     <g id="text_1">
      <!-- 0.5 -->
      <g transform="translate(142.944821 164.516781)scale(0.1 -0.1)">
       <defs>
        <path id="DejaVuSans-30" d="M 2034 4250 
Q 1547 4250 1301 3770 
Q 1056 3291 1056 2328 
Q 1056 1369 1301 889 
Q 1547 409 2034 409 
Q 2525 409 2770 889 
Q 3016 1369 3016 2328 
Q 3016 3291 2770 3770 
Q 2525 4250 2034 4250 
z
M 2034 4750 
Q 2819 4750 3233 4129 
Q 3647 3509 3647 2328 
Q 3647 1150 3233 529 
Q 2819 -91 2034 -91 
Q 1250 -91 836 529 
Q 422 1150 422 2328 
Q 422 3509 836 4129 
Q 1250 4750 2034 4750 
z
" transform="scale(0.015625)"/>
        <path id="DejaVuSans-2e" d="M 684 794 
L 1344 794 
L 1344 0 
L 684 0 
L 684 794 
z
" transform="scale(0.015625)"/>
        <path id="DejaVuSans-35" d="M 691 4666 
L 3169 4666 
L 3169 4134 
L 1269 4134 
L 1269 2991 
Q 1406 3038 1543 3061 
Q 1681 3084 1819 3084 
Q 2600 3084 3056 2656 
Q 3513 2228 3513 1497 
Q 3513 744 3044 326 
Q 2575 -91 1722 -91 
Q 1428 -91 1123 -41 
Q 819 9 494 109 
L 494 744 
Q 775 591 1075 516 
Q 1375 441 1709 441 
Q 2250 441 2565 725 
Q 2881 1009 2881 1497 
Q 2881 1984 2565 2268 
Q 2250 2553 1709 2553 
Q 1456 2553 1204 2497 
Q 953 2441 691 2322 
L 691 4666 
z
" transform="scale(0.015625)"/>
       </defs>
       <use xlink:href="#DejaVuSans-30"/>
       <use xlink:href="#DejaVuSans-2e" x="63.623047"/>
       <use xlink:href="#DejaVuSans-35" x="95.410156"/>
      </g>
     </g>
    </g>
    <g id="xtick_3">
     <g id="line2d_3">
      <g>
       <use xlink:href="#mefb452eb69" x="230.4" y="149.918343" style="stroke: #000000; stroke-width: 0.8"/>
      </g>
     </g>
     <g id="text_2">
      <!-- 1.0 -->
      <g transform="translate(222.448437 164.516781)scale(0.1 -0.1)">
       <defs>
        <path id="DejaVuSans-31" d="M 794 531 
L 1825 531 
L 1825 4091 
L 703 3866 
L 703 4441 
L 1819 4666 
L 2450 4666 
L 2450 531 
L 3481 531 
L 3481 0 
L 794 0 
L 794 531 
z
" transform="scale(0.015625)"/>
       </defs>
       <use xlink:href="#DejaVuSans-31"/>
       <use xlink:href="#DejaVuSans-2e" x="63.623047"/>
       <use xlink:href="#DejaVuSans-30" x="95.410156"/>
      </g>
     </g>
    </g>
    <g id="xtick_4">
     <g id="line2d_4">
      <g>
       <use xlink:href="#mefb452eb69" x="309.903616" y="149.918343" style="stroke: #000000; stroke-width: 0.8"/>
      </g>
     </g>
     <g id="text_3">
      <!-- 1.5 -->
      <g transform="translate(301.952054 164.516781)scale(0.1 -0.1)">
       <use xlink:href="#DejaVuSans-31"/>
       <use xlink:href="#DejaVuSans-2e" x="63.623047"/>
       <use xlink:href="#DejaVuSans-35" x="95.410156"/>
      </g>
     </g>
    </g>
    <g id="xtick_5">
     <g id="line2d_5">
      <g>
       <use xlink:href="#mefb452eb69" x="389.407232" y="149.918343" style="stroke: #000000; stroke-width: 0.8"/>
      </g>
     </g>
     <g id="text_4">
      <!-- 2.0 -->
      <g transform="translate(381.45567 164.516781)scale(0.1 -0.1)">
       <defs>
        <path id="DejaVuSans-32" d="M 1228 531 
L 3431 531 
L 3431 0 
L 469 0 
L 469 531 
Q 828 903 1448 1529 
Q 2069 2156 2228 2338 
Q 2531 2678 2651 2914 
Q 2772 3150 2772 3378 
Q 2772 3750 2511 3984 
Q 2250 4219 1831 4219 
Q 1534 4219 1204 4116 
Q 875 4013 500 3803 
L 500 4441 
Q 881 4594 1212 4672 
Q 1544 4750 1819 4750 
Q 2544 4750 2975 4387 
Q 3406 4025 3406 3419 
Q 3406 3131 3298 2873 
Q 3191 2616 2906 2266 
Q 2828 2175 2409 1742 
Q 1991 1309 1228 531 
z
" transform="scale(0.015625)"/>
       </defs>
       <use xlink:href="#DejaVuSans-32"/>
       <use xlink:href="#DejaVuSans-2e" x="63.623047"/>
       <use xlink:href="#DejaVuSans-30" x="95.410156"/>
      </g>
     </g>
    </g>
    <g id="xtick_6">
     <g id="line2d_6">
      <defs>
       <path id="m00c0483f79" d="M 0 0 
L 0 2 
" style="stroke: #000000; stroke-width: 0.6"/>
      </defs>
      <g>
       <use xlink:href="#m00c0483f79" x="87.293491" y="149.918343" style="stroke: #000000; stroke-width: 0.6"/>
      </g>
     </g>
    </g>
    <g id="xtick_7">
     <g id="line2d_7">
      <g>
       <use xlink:href="#m00c0483f79" x="103.194214" y="149.918343" style="stroke: #000000; stroke-width: 0.6"/>
      </g>
     </g>
    </g>
    <g id="xtick_8">
     <g id="line2d_8">
      <g>
       <use xlink:href="#m00c0483f79" x="119.094937" y="149.918343" style="stroke: #000000; stroke-width: 0.6"/>
      </g>
     </g>
    </g>
    <g id="xtick_9">
     <g id="line2d_9">
      <g>
       <use xlink:href="#m00c0483f79" x="134.995661" y="149.918343" style="stroke: #000000; stroke-width: 0.6"/>
      </g>
     </g>
    </g>
    <g id="xtick_10">
     <g id="line2d_10">
      <g>
       <use xlink:href="#m00c0483f79" x="166.797107" y="149.918343" style="stroke: #000000; stroke-width: 0.6"/>
      </g>
     </g>
    </g>
    <g id="xtick_11">
     <g id="line2d_11">
      <g>
       <use xlink:href="#m00c0483f79" x="182.69783" y="149.918343" style="stroke: #000000; stroke-width: 0.6"/>
      </g>
     </g>
    </g>
    <g id="xtick_12">
     <g id="line2d_12">
      <g>
       <use xlink:href="#m00c0483f79" x="198.598554" y="149.918343" style="stroke: #000000; stroke-width: 0.6"/>
      </g>
     </g>
    </g>
    <g id="xtick_13">
     <g id="line2d_13">
      <g>
       <use xlink:href="#m00c0483f79" x="214.499277" y="149.918343" style="stroke: #000000; stroke-width: 0.6"/>
      </g>
     </g>
    </g>
    <g id="xtick_14">
     <g id="line2d_14">
      <g>
       <use xlink:href="#m00c0483f79" x="246.300723" y="149.918343" style="stroke: #000000; stroke-width: 0.6"/>
      </g>
     </g>
    </g>
    <g id="xtick_15">
     <g id="line2d_15">
      <g>
       <use xlink:href="#m00c0483f79" x="262.201446" y="149.918343" style="stroke: #000000; stroke-width: 0.6"/>
      </g>
     </g>
    </g>
    <g id="xtick_16">
     <g id="line2d_16">
      <g>
       <use xlink:href="#m00c0483f79" x="278.10217" y="149.918343" style="stroke: #000000; stroke-width: 0.6"/>
      </g>
     </g>
    </g>
    <g id="xtick_17">
     <g id="line2d_17">
      <g>
       <use xlink:href="#m00c0483f79" x="294.002893" y="149.918343" style="stroke: #000000; stroke-width: 0.6"/>
      </g>
     </g>
    </g>
    <g id="xtick_18">
     <g id="line2d_18">
      <g>
       <use xlink:href="#m00c0483f79" x="325.804339" y="149.918343" style="stroke: #000000; stroke-width: 0.6"/>
      </g>
     </g>
    </g>
    <g id="xtick_19">
     <g id="line2d_19">
      <g>
       <use xlink:href="#m00c0483f79" x="341.705063" y="149.918343" style="stroke: #000000; stroke-width: 0.6"/>
      </g>
     </g>
    </g>
    <g id="xtick_20">
     <g id="line2d_20">
      <g>
       <use xlink:href="#m00c0483f79" x="357.605786" y="149.918343" style="stroke: #000000; stroke-width: 0.6"/>
      </g>
     </g>
    </g>
    <g id="xtick_21">
     <g id="line2d_21">
      <g>
       <use xlink:href="#m00c0483f79" x="373.506509" y="149.918343" style="stroke: #000000; stroke-width: 0.6"/>
      </g>
     </g>
    </g>
   </g>
   <g id="matplotlib.axis_2">
    <g id="ytick_1">
     <g id="line2d_22">
      <defs>
       <path id="m67db4d81c4" d="M 0 0 
L -3.5 0 
" style="stroke: #000000; stroke-width: 0.8"/>
      </defs>
      <g>
       <use xlink:href="#m67db4d81c4" x="71.392768" y="149.918343" style="stroke: #000000; stroke-width: 0.8"/>
      </g>
     </g>
    </g>
    <g id="ytick_2">
     <g id="line2d_23">
      <g>
       <use xlink:href="#m67db4d81c4" x="71.392768" y="124.477186" style="stroke: #000000; stroke-width: 0.8"/>
      </g>
     </g>
     <g id="text_5">
      <!-- 0.2 -->
      <g transform="translate(48.489643 128.276405)scale(0.1 -0.1)">
       <use xlink:href="#DejaVuSans-30"/>
       <use xlink:href="#DejaVuSans-2e" x="63.623047"/>
       <use xlink:href="#DejaVuSans-32" x="95.410156"/>
      </g>
     </g>
    </g>
    <g id="ytick_3">
     <g id="line2d_24">
      <g>
       <use xlink:href="#m67db4d81c4" x="71.392768" y="99.036029" style="stroke: #000000; stroke-width: 0.8"/>
      </g>
     </g>
     <g id="text_6">
      <!-- 0.4 -->
      <g transform="translate(48.489643 102.835248)scale(0.1 -0.1)">
       <defs>
        <path id="DejaVuSans-34" d="M 2419 4116 
L 825 1625 
L 2419 1625 
L 2419 4116 
z
M 2253 4666 
L 3047 4666 
L 3047 1625 
L 3713 1625 
L 3713 1100 
L 3047 1100 
L 3047 0 
L 2419 0 
L 2419 1100 
L 313 1100 
L 313 1709 
L 2253 4666 
z
" transform="scale(0.015625)"/>
       </defs>
       <use xlink:href="#DejaVuSans-30"/>
       <use xlink:href="#DejaVuSans-2e" x="63.623047"/>
       <use xlink:href="#DejaVuSans-34" x="95.410156"/>
      </g>
     </g>
    </g>
    <g id="ytick_4">
     <g id="line2d_25">
      <g>
       <use xlink:href="#m67db4d81c4" x="71.392768" y="73.594872" style="stroke: #000000; stroke-width: 0.8"/>
      </g>
     </g>
     <g id="text_7">
      <!-- 0.6 -->
      <g transform="translate(48.489643 77.39409)scale(0.1 -0.1)">
       <defs>
        <path id="DejaVuSans-36" d="M 2113 2584 
Q 1688 2584 1439 2293 
Q 1191 2003 1191 1497 
Q 1191 994 1439 701 
Q 1688 409 2113 409 
Q 2538 409 2786 701 
Q 3034 994 3034 1497 
Q 3034 2003 2786 2293 
Q 2538 2584 2113 2584 
z
M 3366 4563 
L 3366 3988 
Q 3128 4100 2886 4159 
Q 2644 4219 2406 4219 
Q 1781 4219 1451 3797 
Q 1122 3375 1075 2522 
Q 1259 2794 1537 2939 
Q 1816 3084 2150 3084 
Q 2853 3084 3261 2657 
Q 3669 2231 3669 1497 
Q 3669 778 3244 343 
Q 2819 -91 2113 -91 
Q 1303 -91 875 529 
Q 447 1150 447 2328 
Q 447 3434 972 4092 
Q 1497 4750 2381 4750 
Q 2619 4750 2861 4703 
Q 3103 4656 3366 4563 
z
" transform="scale(0.015625)"/>
       </defs>
       <use xlink:href="#DejaVuSans-30"/>
       <use xlink:href="#DejaVuSans-2e" x="63.623047"/>
       <use xlink:href="#DejaVuSans-36" x="95.410156"/>
      </g>
     </g>
    </g>
    <g id="ytick_5">
     <g id="line2d_26">
      <g>
       <use xlink:href="#m67db4d81c4" x="71.392768" y="48.153715" style="stroke: #000000; stroke-width: 0.8"/>
      </g>
     </g>
     <g id="text_8">
      <!-- 0.8 -->
      <g transform="translate(48.489643 51.952933)scale(0.1 -0.1)">
       <defs>
        <path id="DejaVuSans-38" d="M 2034 2216 
Q 1584 2216 1326 1975 
Q 1069 1734 1069 1313 
Q 1069 891 1326 650 
Q 1584 409 2034 409 
Q 2484 409 2743 651 
Q 3003 894 3003 1313 
Q 3003 1734 2745 1975 
Q 2488 2216 2034 2216 
z
M 1403 2484 
Q 997 2584 770 2862 
Q 544 3141 544 3541 
Q 544 4100 942 4425 
Q 1341 4750 2034 4750 
Q 2731 4750 3128 4425 
Q 3525 4100 3525 3541 
Q 3525 3141 3298 2862 
Q 3072 2584 2669 2484 
Q 3125 2378 3379 2068 
Q 3634 1759 3634 1313 
Q 3634 634 3220 271 
Q 2806 -91 2034 -91 
Q 1263 -91 848 271 
Q 434 634 434 1313 
Q 434 1759 690 2068 
Q 947 2378 1403 2484 
z
M 1172 3481 
Q 1172 3119 1398 2916 
Q 1625 2713 2034 2713 
Q 2441 2713 2670 2916 
Q 2900 3119 2900 3481 
Q 2900 3844 2670 4047 
Q 2441 4250 2034 4250 
Q 1625 4250 1398 4047 
Q 1172 3844 1172 3481 
z
" transform="scale(0.015625)"/>
       </defs>
       <use xlink:href="#DejaVuSans-30"/>
       <use xlink:href="#DejaVuSans-2e" x="63.623047"/>
       <use xlink:href="#DejaVuSans-38" x="95.410156"/>
      </g>
     </g>
    </g>
    <g id="ytick_6">
     <g id="line2d_27">
      <g>
       <use xlink:href="#m67db4d81c4" x="71.392768" y="22.712557" style="stroke: #000000; stroke-width: 0.8"/>
      </g>
     </g>
     <g id="text_9">
      <!-- 1.0 -->
      <g transform="translate(48.489643 26.511776)scale(0.1 -0.1)">
       <use xlink:href="#DejaVuSans-31"/>
       <use xlink:href="#DejaVuSans-2e" x="63.623047"/>
       <use xlink:href="#DejaVuSans-30" x="95.410156"/>
      </g>
     </g>
    </g>
    <g id="ytick_7">
     <g id="line2d_28">
      <defs>
       <path id="m51448dbaff" d="M 0 0 
L -2 0 
" style="stroke: #000000; stroke-width: 0.6"/>
      </defs>
      <g>
       <use xlink:href="#m51448dbaff" x="71.392768" y="143.558054" style="stroke: #000000; stroke-width: 0.6"/>
      </g>
     </g>
    </g>
    <g id="ytick_8">
     <g id="line2d_29">
      <g>
       <use xlink:href="#m51448dbaff" x="71.392768" y="137.197765" style="stroke: #000000; stroke-width: 0.6"/>
      </g>
     </g>
    </g>
    <g id="ytick_9">
     <g id="line2d_30">
      <g>
       <use xlink:href="#m51448dbaff" x="71.392768" y="130.837475" style="stroke: #000000; stroke-width: 0.6"/>
      </g>
     </g>
    </g>
    <g id="ytick_10">
     <g id="line2d_31">
      <g>
       <use xlink:href="#m51448dbaff" x="71.392768" y="118.116897" style="stroke: #000000; stroke-width: 0.6"/>
      </g>
     </g>
    </g>
    <g id="ytick_11">
     <g id="line2d_32">
      <g>
       <use xlink:href="#m51448dbaff" x="71.392768" y="111.756607" style="stroke: #000000; stroke-width: 0.6"/>
      </g>
     </g>
    </g>
    <g id="ytick_12">
     <g id="line2d_33">
      <g>
       <use xlink:href="#m51448dbaff" x="71.392768" y="105.396318" style="stroke: #000000; stroke-width: 0.6"/>
      </g>
     </g>
    </g>
    <g id="ytick_13">
     <g id="line2d_34">
      <g>
       <use xlink:href="#m51448dbaff" x="71.392768" y="92.67574" style="stroke: #000000; stroke-width: 0.6"/>
      </g>
     </g>
    </g>
    <g id="ytick_14">
     <g id="line2d_35">
      <g>
       <use xlink:href="#m51448dbaff" x="71.392768" y="86.31545" style="stroke: #000000; stroke-width: 0.6"/>
      </g>
     </g>
    </g>
    <g id="ytick_15">
     <g id="line2d_36">
      <g>
       <use xlink:href="#m51448dbaff" x="71.392768" y="79.955161" style="stroke: #000000; stroke-width: 0.6"/>
      </g>
     </g>
    </g>
    <g id="ytick_16">
     <g id="line2d_37">
      <g>
       <use xlink:href="#m51448dbaff" x="71.392768" y="67.234582" style="stroke: #000000; stroke-width: 0.6"/>
      </g>
     </g>
    </g>
    <g id="ytick_17">
     <g id="line2d_38">
      <g>
       <use xlink:href="#m51448dbaff" x="71.392768" y="60.874293" style="stroke: #000000; stroke-width: 0.6"/>
      </g>
     </g>
    </g>
    <g id="ytick_18">
     <g id="line2d_39">
      <g>
       <use xlink:href="#m51448dbaff" x="71.392768" y="54.514004" style="stroke: #000000; stroke-width: 0.6"/>
      </g>
     </g>
    </g>
    <g id="ytick_19">
     <g id="line2d_40">
      <g>
       <use xlink:href="#m51448dbaff" x="71.392768" y="41.793425" style="stroke: #000000; stroke-width: 0.6"/>
      </g>
     </g>
    </g>
    <g id="ytick_20">
     <g id="line2d_41">
      <g>
       <use xlink:href="#m51448dbaff" x="71.392768" y="35.433136" style="stroke: #000000; stroke-width: 0.6"/>
      </g>
     </g>
    </g>
    <g id="ytick_21">
     <g id="line2d_42">
      <g>
       <use xlink:href="#m51448dbaff" x="71.392768" y="29.072847" style="stroke: #000000; stroke-width: 0.6"/>
      </g>
     </g>
    </g>
    <g id="ytick_22">
     <g id="line2d_43">
      <g>
       <use xlink:href="#m51448dbaff" x="71.392768" y="16.352268" style="stroke: #000000; stroke-width: 0.6"/>
      </g>
     </g>
    </g>
   </g>
   <g id="line2d_44">
    <path d="M 71.392768 149.918343 
L 85.563652 121.800789 
L 93.835041 105.919072 
L 99.890358 94.724787 
L 106.119675 83.699559 
L 111.019323 75.437653 
L 114.58016 69.68608 
L 120.348349 60.86204 
L 124.70309 54.633447 
L 129.525074 48.199886 
L 133.743482 42.989855 
L 136.992543 39.252528 
L 141.315405 34.661742 
L 144.827901 31.258858 
L 149.22716 27.41747 
L 151.676234 25.483487 
L 155.038598 23.067789 
L 157.445204 21.509138 
L 160.997043 19.468118 
L 164.936106 17.564404 
L 167.616612 16.48352 
L 170.922266 15.387117 
L 173.834486 14.634847 
L 176.621303 14.099379 
L 180.017313 13.686065 
L 183.718668 13.527811 
L 186.202963 13.588109 
L 189.137539 13.826899 
L 192.103317 14.247458 
L 195.413859 14.922571 
L 198.407359 15.712926 
L 201.256518 16.617575 
L 205.520868 18.236084 
L 209.202262 19.874304 
L 213.462331 22.029695 
L 218.261634 24.765386 
L 224.138125 28.513514 
L 229.812906 32.497005 
L 234.73917 36.203115 
L 240.667057 40.917148 
L 247.784728 46.866089 
L 257.839308 55.62791 
L 286.333507 80.771297 
L 295.827224 88.698331 
L 302.637931 94.126936 
L 310.415423 100.017452 
L 316.917602 104.66547 
L 323.327448 108.985961 
L 329.651072 112.98528 
L 336.645626 117.099509 
L 342.942757 120.525018 
L 349.758564 123.938719 
L 355.918369 126.766794 
L 361.709535 129.209871 
L 368.064698 131.65944 
L 375.322317 134.174994 
L 380.851519 135.900864 
L 387.421501 137.750732 
L 389.407232 138.269067 
L 389.407232 138.269067 
" clip-path="url(#p2b9f70d39a)" style="fill: none; stroke: #0000ff; stroke-linecap: square"/>
   </g>
   <g id="line2d_45">
    <path d="M 71.392768 149.918343 
L 82.834475 127.270679 
L 89.077655 115.412884 
L 94.295308 105.974915 
L 98.651018 98.513702 
L 103.723701 90.388039 
L 107.176112 85.245479 
L 110.961344 79.999713 
L 114.204206 75.851357 
L 117.929871 71.498086 
L 120.840598 68.414505 
L 124.254724 65.16162 
L 127.622818 62.34407 
L 130.818492 60.033744 
L 133.815285 58.189168 
L 135.992883 57.043741 
L 138.48846 55.931395 
L 141.312572 54.927918 
L 144.451069 54.125471 
L 147.043043 53.705659 
L 149.861095 53.492006 
L 152.711899 53.525484 
L 155.533807 53.797064 
L 158.762204 54.386289 
L 161.713442 55.172278 
L 165.010307 56.313538 
L 168.681685 57.889122 
L 171.873621 59.499503 
L 174.753578 61.12842 
L 179.078558 63.856913 
L 183.087265 66.651955 
L 187.519408 69.99363 
L 192.350896 73.880036 
L 198.577422 79.164106 
L 209.175477 88.536356 
L 221.393883 99.319309 
L 229.27363 105.960872 
L 235.382321 110.83679 
L 242.575652 116.206101 
L 247.751578 119.793395 
L 253.613988 123.56046 
L 259.174463 126.835747 
L 264.779138 129.842884 
L 270.125483 132.44047 
L 275.602162 134.835525 
L 281.141876 136.996474 
L 286.128762 138.72894 
L 291.628001 140.420759 
L 298.091405 142.139131 
L 304.266042 143.53395 
L 310.891083 144.792191 
L 317.171401 145.784711 
L 325.824308 146.879809 
L 333.068959 147.593433 
L 343.221636 148.344877 
L 354.487345 148.918978 
L 368.000466 149.35489 
L 384.809098 149.653774 
L 389.407232 149.704979 
L 389.407232 149.704979 
" clip-path="url(#p2b9f70d39a)" style="fill: none; stroke: #0000ff; stroke-linecap: square"/>
   </g>
   <g id="line2d_46">
    <path d="M 71.392768 149.918343 
L 80.541458 131.801779 
L 85.944771 121.53651 
L 91.191154 112.121048 
L 95.178909 105.434886 
L 99.192226 99.190971 
L 103.004135 93.764553 
L 105.955395 89.928375 
L 109.341674 85.942222 
L 112.166811 82.969715 
L 115.301997 80.057753 
L 117.816185 78.021457 
L 120.661077 76.040857 
L 123.575258 74.368389 
L 125.077353 73.646479 
L 127.94764 72.529335 
L 130.558577 71.807666 
L 132.559604 71.440434 
L 134.783899 71.216854 
L 137.237189 71.189242 
L 139.601391 71.372388 
L 142.310621 71.824531 
L 144.639095 72.409954 
L 147.280679 73.282024 
L 150.97199 74.844435 
L 154.931133 76.922852 
L 158.764505 79.283395 
L 163.387335 82.514905 
L 168.854936 86.767969 
L 174.513795 91.520709 
L 183.491401 99.44273 
L 193.87757 108.612525 
L 201.179504 114.743278 
L 206.315401 118.798926 
L 210.219487 121.712051 
L 215.079378 125.113443 
L 220.07083 128.332597 
L 224.945918 131.200648 
L 229.177057 133.468018 
L 234.48493 136.025951 
L 239.829112 138.291037 
L 243.473895 139.666067 
L 249.198332 141.565776 
L 252.839988 142.620278 
L 258.747953 144.099417 
L 264.647336 145.320012 
L 271.342005 146.43705 
L 278.163106 147.328062 
L 284.988578 148.014647 
L 292.844613 148.602625 
L 303.501901 149.141225 
L 316.239686 149.51967 
L 332.402281 149.757256 
L 357.642438 149.884039 
L 389.407232 149.914435 
L 389.407232 149.914435 
" clip-path="url(#p2b9f70d39a)" style="fill: none; stroke: #0000ff; stroke-linecap: square"/>
   </g>
   <g id="patch_3">
    <path d="M 71.392768 152.646154 
L 71.392768 10.8 
" style="fill: none; stroke: #000000; stroke-width: 0.8; stroke-linejoin: miter; stroke-linecap: square"/>
   </g>
   <g id="patch_4">
    <path d="M 65.032479 149.918343 
L 395.767521 149.918343 
" style="fill: none; stroke: #000000; stroke-width: 0.8; stroke-linejoin: miter; stroke-linecap: square"/>
   </g>
  </g>
  <g id="axes_2">
   <g id="patch_5">
    <path d="M 65.03061 320.046154 
L 395.76939 320.046154 
L 395.76939 178.2 
L 65.03061 178.2 
z
" style="fill: #ffffff"/>
   </g>
   <g id="matplotlib.axis_3">
    <g id="xtick_22">
     <g id="line2d_47">
      <g>
       <use xlink:href="#mefb452eb69" x="71.390972" y="317.318343" style="stroke: #000000; stroke-width: 0.8"/>
      </g>
     </g>
    </g>
    <g id="xtick_23">
     <g id="line2d_48">
      <g>
       <use xlink:href="#mefb452eb69" x="150.895486" y="317.318343" style="stroke: #000000; stroke-width: 0.8"/>
      </g>
     </g>
     <g id="text_10">
      <!-- 0.5 -->
      <g transform="translate(142.943923 331.916781)scale(0.1 -0.1)">
       <use xlink:href="#DejaVuSans-30"/>
       <use xlink:href="#DejaVuSans-2e" x="63.623047"/>
       <use xlink:href="#DejaVuSans-35" x="95.410156"/>
      </g>
     </g>
    </g>
    <g id="xtick_24">
     <g id="line2d_49">
      <g>
       <use xlink:href="#mefb452eb69" x="230.4" y="317.318343" style="stroke: #000000; stroke-width: 0.8"/>
      </g>
     </g>
     <g id="text_11">
      <!-- 1.0 -->
      <g transform="translate(222.448438 331.916781)scale(0.1 -0.1)">
       <use xlink:href="#DejaVuSans-31"/>
       <use xlink:href="#DejaVuSans-2e" x="63.623047"/>
       <use xlink:href="#DejaVuSans-30" x="95.410156"/>
      </g>
     </g>
    </g>
    <g id="xtick_25">
     <g id="line2d_50">
      <g>
       <use xlink:href="#mefb452eb69" x="309.904514" y="317.318343" style="stroke: #000000; stroke-width: 0.8"/>
      </g>
     </g>
     <g id="text_12">
      <!-- 1.5 -->
      <g transform="translate(301.952952 331.916781)scale(0.1 -0.1)">
       <use xlink:href="#DejaVuSans-31"/>
       <use xlink:href="#DejaVuSans-2e" x="63.623047"/>
       <use xlink:href="#DejaVuSans-35" x="95.410156"/>
      </g>
     </g>
    </g>
    <g id="xtick_26">
     <g id="line2d_51">
      <g>
       <use xlink:href="#mefb452eb69" x="389.409028" y="317.318343" style="stroke: #000000; stroke-width: 0.8"/>
      </g>
     </g>
     <g id="text_13">
      <!-- 2.0 -->
      <g transform="translate(381.457466 331.916781)scale(0.1 -0.1)">
       <use xlink:href="#DejaVuSans-32"/>
       <use xlink:href="#DejaVuSans-2e" x="63.623047"/>
       <use xlink:href="#DejaVuSans-30" x="95.410156"/>
      </g>
     </g>
    </g>
    <g id="xtick_27">
     <g id="line2d_52">
      <g>
       <use xlink:href="#m00c0483f79" x="87.291874" y="317.318343" style="stroke: #000000; stroke-width: 0.6"/>
      </g>
     </g>
    </g>
    <g id="xtick_28">
     <g id="line2d_53">
      <g>
       <use xlink:href="#m00c0483f79" x="103.192777" y="317.318343" style="stroke: #000000; stroke-width: 0.6"/>
      </g>
     </g>
    </g>
    <g id="xtick_29">
     <g id="line2d_54">
      <g>
       <use xlink:href="#m00c0483f79" x="119.09368" y="317.318343" style="stroke: #000000; stroke-width: 0.6"/>
      </g>
     </g>
    </g>
    <g id="xtick_30">
     <g id="line2d_55">
      <g>
       <use xlink:href="#m00c0483f79" x="134.994583" y="317.318343" style="stroke: #000000; stroke-width: 0.6"/>
      </g>
     </g>
    </g>
    <g id="xtick_31">
     <g id="line2d_56">
      <g>
       <use xlink:href="#m00c0483f79" x="166.796389" y="317.318343" style="stroke: #000000; stroke-width: 0.6"/>
      </g>
     </g>
    </g>
    <g id="xtick_32">
     <g id="line2d_57">
      <g>
       <use xlink:href="#m00c0483f79" x="182.697291" y="317.318343" style="stroke: #000000; stroke-width: 0.6"/>
      </g>
     </g>
    </g>
    <g id="xtick_33">
     <g id="line2d_58">
      <g>
       <use xlink:href="#m00c0483f79" x="198.598194" y="317.318343" style="stroke: #000000; stroke-width: 0.6"/>
      </g>
     </g>
    </g>
    <g id="xtick_34">
     <g id="line2d_59">
      <g>
       <use xlink:href="#m00c0483f79" x="214.499097" y="317.318343" style="stroke: #000000; stroke-width: 0.6"/>
      </g>
     </g>
    </g>
    <g id="xtick_35">
     <g id="line2d_60">
      <g>
       <use xlink:href="#m00c0483f79" x="246.300903" y="317.318343" style="stroke: #000000; stroke-width: 0.6"/>
      </g>
     </g>
    </g>
    <g id="xtick_36">
     <g id="line2d_61">
      <g>
       <use xlink:href="#m00c0483f79" x="262.201806" y="317.318343" style="stroke: #000000; stroke-width: 0.6"/>
      </g>
     </g>
    </g>
    <g id="xtick_37">
     <g id="line2d_62">
      <g>
       <use xlink:href="#m00c0483f79" x="278.102709" y="317.318343" style="stroke: #000000; stroke-width: 0.6"/>
      </g>
     </g>
    </g>
    <g id="xtick_38">
     <g id="line2d_63">
      <g>
       <use xlink:href="#m00c0483f79" x="294.003611" y="317.318343" style="stroke: #000000; stroke-width: 0.6"/>
      </g>
     </g>
    </g>
    <g id="xtick_39">
     <g id="line2d_64">
      <g>
       <use xlink:href="#m00c0483f79" x="325.805417" y="317.318343" style="stroke: #000000; stroke-width: 0.6"/>
      </g>
     </g>
    </g>
    <g id="xtick_40">
     <g id="line2d_65">
      <g>
       <use xlink:href="#m00c0483f79" x="341.70632" y="317.318343" style="stroke: #000000; stroke-width: 0.6"/>
      </g>
     </g>
    </g>
    <g id="xtick_41">
     <g id="line2d_66">
      <g>
       <use xlink:href="#m00c0483f79" x="357.607223" y="317.318343" style="stroke: #000000; stroke-width: 0.6"/>
      </g>
     </g>
    </g>
    <g id="xtick_42">
     <g id="line2d_67">
      <g>
       <use xlink:href="#m00c0483f79" x="373.508126" y="317.318343" style="stroke: #000000; stroke-width: 0.6"/>
      </g>
     </g>
    </g>
   </g>
   <g id="matplotlib.axis_4">
    <g id="ytick_23">
     <g id="line2d_68">
      <g>
       <use xlink:href="#m67db4d81c4" x="71.390972" y="317.318343" style="stroke: #000000; stroke-width: 0.8"/>
      </g>
     </g>
    </g>
    <g id="ytick_24">
     <g id="line2d_69">
      <g>
       <use xlink:href="#m67db4d81c4" x="71.390972" y="291.876899" style="stroke: #000000; stroke-width: 0.8"/>
      </g>
     </g>
     <g id="text_14">
      <!-- 0.2 -->
      <g transform="translate(48.487847 295.676117)scale(0.1 -0.1)">
       <use xlink:href="#DejaVuSans-30"/>
       <use xlink:href="#DejaVuSans-2e" x="63.623047"/>
       <use xlink:href="#DejaVuSans-32" x="95.410156"/>
      </g>
     </g>
    </g>
    <g id="ytick_25">
     <g id="line2d_70">
      <g>
       <use xlink:href="#m67db4d81c4" x="71.390972" y="266.435454" style="stroke: #000000; stroke-width: 0.8"/>
      </g>
     </g>
     <g id="text_15">
      <!-- 0.4 -->
      <g transform="translate(48.487847 270.234673)scale(0.1 -0.1)">
       <use xlink:href="#DejaVuSans-30"/>
       <use xlink:href="#DejaVuSans-2e" x="63.623047"/>
       <use xlink:href="#DejaVuSans-34" x="95.410156"/>
      </g>
     </g>
    </g>
    <g id="ytick_26">
     <g id="line2d_71">
      <g>
       <use xlink:href="#m67db4d81c4" x="71.390972" y="240.99401" style="stroke: #000000; stroke-width: 0.8"/>
      </g>
     </g>
     <g id="text_16">
      <!-- 0.6 -->
      <g transform="translate(48.487847 244.793228)scale(0.1 -0.1)">
       <use xlink:href="#DejaVuSans-30"/>
       <use xlink:href="#DejaVuSans-2e" x="63.623047"/>
       <use xlink:href="#DejaVuSans-36" x="95.410156"/>
      </g>
     </g>
    </g>
    <g id="ytick_27">
     <g id="line2d_72">
      <g>
       <use xlink:href="#m67db4d81c4" x="71.390972" y="215.552565" style="stroke: #000000; stroke-width: 0.8"/>
      </g>
     </g>
     <g id="text_17">
      <!-- 0.8 -->
      <g transform="translate(48.487847 219.351784)scale(0.1 -0.1)">
       <use xlink:href="#DejaVuSans-30"/>
       <use xlink:href="#DejaVuSans-2e" x="63.623047"/>
       <use xlink:href="#DejaVuSans-38" x="95.410156"/>
      </g>
     </g>
    </g>
    <g id="ytick_28">
     <g id="line2d_73">
      <g>
       <use xlink:href="#m67db4d81c4" x="71.390972" y="190.11112" style="stroke: #000000; stroke-width: 0.8"/>
      </g>
     </g>
     <g id="text_18">
      <!-- 1.0 -->
      <g transform="translate(48.487847 193.910339)scale(0.1 -0.1)">
       <use xlink:href="#DejaVuSans-31"/>
       <use xlink:href="#DejaVuSans-2e" x="63.623047"/>
       <use xlink:href="#DejaVuSans-30" x="95.410156"/>
      </g>
     </g>
    </g>
    <g id="ytick_29">
     <g id="line2d_74">
      <g>
       <use xlink:href="#m51448dbaff" x="71.390972" y="310.957982" style="stroke: #000000; stroke-width: 0.6"/>
      </g>
     </g>
    </g>
    <g id="ytick_30">
     <g id="line2d_75">
      <g>
       <use xlink:href="#m51448dbaff" x="71.390972" y="304.597621" style="stroke: #000000; stroke-width: 0.6"/>
      </g>
     </g>
    </g>
    <g id="ytick_31">
     <g id="line2d_76">
      <g>
       <use xlink:href="#m51448dbaff" x="71.390972" y="298.23726" style="stroke: #000000; stroke-width: 0.6"/>
      </g>
     </g>
    </g>
    <g id="ytick_32">
     <g id="line2d_77">
      <g>
       <use xlink:href="#m51448dbaff" x="71.390972" y="285.516538" style="stroke: #000000; stroke-width: 0.6"/>
      </g>
     </g>
    </g>
    <g id="ytick_33">
     <g id="line2d_78">
      <g>
       <use xlink:href="#m51448dbaff" x="71.390972" y="279.156176" style="stroke: #000000; stroke-width: 0.6"/>
      </g>
     </g>
    </g>
    <g id="ytick_34">
     <g id="line2d_79">
      <g>
       <use xlink:href="#m51448dbaff" x="71.390972" y="272.795815" style="stroke: #000000; stroke-width: 0.6"/>
      </g>
     </g>
    </g>
    <g id="ytick_35">
     <g id="line2d_80">
      <g>
       <use xlink:href="#m51448dbaff" x="71.390972" y="260.075093" style="stroke: #000000; stroke-width: 0.6"/>
      </g>
     </g>
    </g>
    <g id="ytick_36">
     <g id="line2d_81">
      <g>
       <use xlink:href="#m51448dbaff" x="71.390972" y="253.714732" style="stroke: #000000; stroke-width: 0.6"/>
      </g>
     </g>
    </g>
    <g id="ytick_37">
     <g id="line2d_82">
      <g>
       <use xlink:href="#m51448dbaff" x="71.390972" y="247.354371" style="stroke: #000000; stroke-width: 0.6"/>
      </g>
     </g>
    </g>
    <g id="ytick_38">
     <g id="line2d_83">
      <g>
       <use xlink:href="#m51448dbaff" x="71.390972" y="234.633648" style="stroke: #000000; stroke-width: 0.6"/>
      </g>
     </g>
    </g>
    <g id="ytick_39">
     <g id="line2d_84">
      <g>
       <use xlink:href="#m51448dbaff" x="71.390972" y="228.273287" style="stroke: #000000; stroke-width: 0.6"/>
      </g>
     </g>
    </g>
    <g id="ytick_40">
     <g id="line2d_85">
      <g>
       <use xlink:href="#m51448dbaff" x="71.390972" y="221.912926" style="stroke: #000000; stroke-width: 0.6"/>
      </g>
     </g>
    </g>
    <g id="ytick_41">
     <g id="line2d_86">
      <g>
       <use xlink:href="#m51448dbaff" x="71.390972" y="209.192204" style="stroke: #000000; stroke-width: 0.6"/>
      </g>
     </g>
    </g>
    <g id="ytick_42">
     <g id="line2d_87">
      <g>
       <use xlink:href="#m51448dbaff" x="71.390972" y="202.831843" style="stroke: #000000; stroke-width: 0.6"/>
      </g>
     </g>
    </g>
    <g id="ytick_43">
     <g id="line2d_88">
      <g>
       <use xlink:href="#m51448dbaff" x="71.390972" y="196.471482" style="stroke: #000000; stroke-width: 0.6"/>
      </g>
     </g>
    </g>
    <g id="ytick_44">
     <g id="line2d_89">
      <g>
       <use xlink:href="#m51448dbaff" x="71.390972" y="183.750759" style="stroke: #000000; stroke-width: 0.6"/>
      </g>
     </g>
    </g>
   </g>
   <g id="line2d_90">
    <path d="M 71.390972 317.318343 
L 85.033853 290.232709 
L 93.205203 274.503321 
L 99.648792 262.559666 
L 105.921742 251.438104 
L 111.551201 241.961485 
L 116.996658 233.309799 
L 121.354718 226.78566 
L 124.957826 221.678453 
L 128.140194 217.393687 
L 133.08045 211.179724 
L 137.105252 206.524841 
L 140.357207 203.038911 
L 144.434858 199.022651 
L 148.331021 195.55962 
L 151.916181 192.699831 
L 155.746655 189.992459 
L 159.643936 187.60735 
L 162.978319 185.861614 
L 166.512346 184.306086 
L 169.723748 183.152908 
L 172.846978 182.266021 
L 175.617884 181.669948 
L 179.50374 181.130332 
L 181.67977 180.976212 
L 185.86561 180.97069 
L 189.069253 181.217831 
L 192.884412 181.786023 
L 196.775416 182.659873 
L 200.761266 183.848522 
L 204.048695 185.041131 
L 207.022222 186.276719 
L 211.839817 188.575858 
L 216.16976 190.933485 
L 221.230106 194.005844 
L 226.850657 197.775043 
L 231.2361 200.944412 
L 237.528671 205.788688 
L 245.097756 211.987632 
L 253.145888 218.89794 
L 266.449296 230.690366 
L 282.674555 245.02253 
L 292.119837 253.047028 
L 298.219598 258.03079 
L 305.881197 264.024106 
L 312.887058 269.213762 
L 320.142109 274.270864 
L 327.125155 278.818368 
L 332.908048 282.340542 
L 339.446472 286.054562 
L 346.858288 289.922131 
L 352.395838 292.578081 
L 359.069415 295.520705 
L 364.454114 297.696057 
L 371.010741 300.115111 
L 377.161396 302.166109 
L 383.663305 304.117833 
L 389.409028 305.668935 
L 389.409028 305.668935 
" clip-path="url(#p4ae7c0956c)" style="fill: none; stroke: #ff0000; stroke-linecap: square"/>
   </g>
   <g id="line2d_91">
    <path d="M 71.390972 317.318343 
L 81.96228 296.3618 
L 87.915333 284.975789 
L 93.137389 275.422424 
L 98.397257 266.333686 
L 101.908144 260.618617 
L 106.138697 254.153149 
L 110.446122 248.086039 
L 113.340146 244.32211 
L 116.821744 240.143443 
L 119.165711 237.552115 
L 122.296336 234.376927 
L 124.27486 232.541585 
L 126.932699 230.28756 
L 129.760615 228.157492 
L 132.558033 226.323417 
L 135.785872 224.544022 
L 138.990777 223.131729 
L 141.102023 222.392076 
L 143.217444 221.800726 
L 146.112325 221.230244 
L 149.196251 220.918856 
L 152.229957 220.90151 
L 154.873515 221.111768 
L 158.177701 221.657305 
L 160.201603 222.140079 
L 163.907171 223.301026 
L 167.330249 224.672667 
L 171.342787 226.616343 
L 174.00453 228.088872 
L 178.318144 230.753748 
L 181.835072 233.153208 
L 187.354526 237.264624 
L 192.404934 241.324206 
L 200.557135 248.289785 
L 214.548973 260.720736 
L 222.467427 267.643137 
L 230.584218 274.428751 
L 235.400984 278.250779 
L 240.581074 282.160147 
L 246.768054 286.529832 
L 252.467817 290.248689 
L 257.828344 293.469133 
L 263.980277 296.831758 
L 268.794728 299.21784 
L 273.977441 301.552046 
L 279.255507 303.688944 
L 285.19609 305.81934 
L 291.206695 307.698575 
L 297.630672 309.425445 
L 302.794682 310.621791 
L 309.05665 311.86653 
L 315.209692 312.893823 
L 323.309402 313.990839 
L 331.575836 314.8596 
L 339.800859 315.520007 
L 350.659297 316.149392 
L 362.266766 316.597014 
L 377.322642 316.945635 
L 389.409028 317.104977 
L 389.409028 317.104977 
" clip-path="url(#p4ae7c0956c)" style="fill: none; stroke-dasharray: 3.7,1.6; stroke-dashoffset: 0; stroke: #ff0000"/>
   </g>
   <g id="line2d_92">
    <path d="M 71.390972 317.318343 
L 80.73688 298.819245 
L 86.892517 287.186729 
L 91.068878 279.729812 
L 94.748848 273.530963 
L 98.234786 268.030247 
L 101.454781 263.305218 
L 104.784187 258.808824 
L 107.761408 255.143616 
L 110.325283 252.268113 
L 113.703525 248.88906 
L 116.163099 246.728346 
L 117.888075 245.365401 
L 120.465008 243.564687 
L 122.261936 242.476026 
L 125.134345 241.019563 
L 127.879116 239.950768 
L 130.02914 239.330468 
L 132.492591 238.849114 
L 134.733003 238.618881 
L 136.853297 238.577847 
L 139.572373 238.76816 
L 142.532454 239.271963 
L 145.873741 240.190269 
L 148.837004 241.293299 
L 152.158201 242.825293 
L 154.581438 244.123456 
L 158.354562 246.415833 
L 161.38747 248.47003 
L 165.451269 251.472102 
L 170.960201 255.902147 
L 177.56911 261.583875 
L 196.989385 278.670354 
L 202.042768 282.841294 
L 208.447233 287.808721 
L 214.166219 291.893916 
L 219.654792 295.474975 
L 225.065535 298.667394 
L 229.135607 300.846619 
L 234.515244 303.439485 
L 239.120336 305.407782 
L 243.77458 307.17343 
L 248.883732 308.869075 
L 253.933902 310.314941 
L 259.823721 311.739965 
L 266.089941 312.983213 
L 272.132175 313.952052 
L 279.427346 314.869359 
L 287.081035 315.590275 
L 294.700522 316.115326 
L 305.754501 316.625623 
L 320.134376 316.995911 
L 338.809154 317.207893 
L 371.739219 317.304849 
L 389.409028 317.314435 
L 389.409028 317.314435 
" clip-path="url(#p4ae7c0956c)" style="fill: none; stroke-dasharray: 6.4,1.6,1,1.6; stroke-dashoffset: 0; stroke: #008000"/>
   </g>
   <g id="patch_6">
    <path d="M 71.390972 320.046154 
L 71.390972 178.2 
" style="fill: none; stroke: #000000; stroke-width: 0.8; stroke-linejoin: miter; stroke-linecap: square"/>
   </g>
   <g id="patch_7">
    <path d="M 65.03061 317.318343 
L 395.76939 317.318343 
" style="fill: none; stroke: #000000; stroke-width: 0.8; stroke-linejoin: miter; stroke-linecap: square"/>
   </g>
  </g>
 </g>
 <defs>
  <clipPath id="p2b9f70d39a">
   <rect x="65.032479" y="10.8" width="330.735043" height="141.846154"/>
  </clipPath>
  <clipPath id="p4ae7c0956c">
   <rect x="65.03061" y="178.2" width="330.738779" height="141.846154"/>
  </clipPath>
 </defs>
</svg>
