<?xml version="1.0" encoding="utf-8" standalone="no"?>
<!DOCTYPE svg PUBLIC "-//W3C//DTD SVG 1.1//EN"
  "http://www.w3.org/Graphics/SVG/1.1/DTD/svg11.dtd">
<svg xmlns:xlink="http://www.w3.org/1999/xlink" width="460.8pt" height="345.6pt" viewBox="0 0 460.8 345.6" xmlns="http://www.w3.org/2000/svg" version="1.1">
 <metadata>
  <rdf:RDF xmlns:dc="http://purl.org/dc/elements/1.1/" xmlns:cc="http://creativecommons.org/ns#" xmlns:rdf="http://www.w3.org/1999/02/22-rdf-syntax-ns#">
   <cc:Work>
    <dc:type rdf:resource="http://purl.org/dc/dcmitype/StillImage"/>
    <dc:date>2023-05-25T19:53:20.521568</dc:date>
    <dc:format>image/svg+xml</dc:format>
    <dc:creator>
     <cc:Agent>
      <dc:title>Matplotlib v3.6.2, https://matplotlib.org/</dc:title>
     </cc:Agent>
    </dc:creator>
   </cc:Work>
  </rdf:RDF>
 </metadata>
 <defs>
  <style type="text/css">*{stroke-linejoin: round; stroke-linecap: butt}</style>
 </defs>
 <g id="figure_1">
  <g id="patch_1">
   <path d="M 0 345.6 
L 460.8 345.6 
L 460.8 0 
L 0 0 
z
" style="fill: #ffffff"/>
  </g>
  <g id="axes_1">
   <g id="patch_2">
    <path d="M 57.590249 345.6 
L 403.209751 345.6 
L 403.209751 0 
L 57.590249 0 
z
" style="fill: #ffffff"/>
   </g>
   <g id="patch_3">
    <path d="M 396.563222 172.794198 
L 396.518296 174.811846 
L 396.383625 176.826817 
L 396.100251 179.263857 
L 395.686284 181.68832 
L 395.167909 183.997485 
L 394.532421 186.286799 
L 393.578421 189.109515 
L 392.450093 191.887957 
L 391.764481 193.379522 
L 391.029863 194.854834 
L 389.417995 197.752638 
L 388.101859 199.856355 
L 386.689343 201.914796 
L 385.309354 203.765297 
L 383.855386 205.573428 
L 381.756998 207.971639 
L 379.538178 210.284126 
L 376.555 213.100776 
L 374.672286 214.734399 
L 372.738207 216.313264 
L 368.737549 219.305933 
L 367.471683 220.185778 
L 363.328386 222.873607 
L 359.103035 225.354418 
L 356.806732 226.609254 
L 349.319418 230.333033 
L 346.064467 231.811712 
L 342.976973 233.156137 
L 339.945462 234.434608 
L 336.626768 235.803816 
L 334.835031 236.536902 
L 333.076674 237.256738 
L 330.432442 238.348902 
L 327.879808 239.42752 
L 326.472029 240.038795 
L 325.096587 240.651359 
L 323.589985 241.344029 
L 322.126023 242.043826 
L 320.705336 242.753623 
L 319.328345 243.47625 
L 317.407164 244.553986 
L 315.57834 245.672842 
L 314.598108 246.317652 
L 313.645973 246.97901 
L 312.412459 247.894132 
L 311.227559 248.844161 
L 309.842095 250.057679 
L 308.523992 251.332012 
L 307.739291 252.154117 
L 306.978059 253.002024 
L 306.239242 253.876525 
L 305.521716 254.778329 
L 304.35047 256.37139 
L 303.230816 258.047157 
L 302.27577 259.603797 
L 301.351237 261.22753 
L 300.777667 262.293597 
L 300.213029 263.38676 
L 299.568222 264.686997 
L 298.931437 266.023081 
L 298.300503 267.394521 
L 297.673226 268.800677 
L 296.545336 271.418936 
L 295.773665 273.261281 
L 294.99415 275.149747 
L 293.870569 277.894241 
L 292.48996 281.255827 
L 291.042438 284.712766 
L 289.795682 287.601427 
L 288.484118 290.53102 
L 286.006199 295.726957 
L 283.703169 300.150755 
L 281.82335 303.483695 
L 278.788957 308.378072 
L 276.359346 311.904841 
L 273.768221 315.322152 
L 271.912246 317.570986 
L 268.941193 320.856344 
L 267.237065 322.579057 
L 265.482992 324.237677 
L 263.680258 325.827601 
L 261.830386 327.344383 
L 260.040763 328.706481 
L 258.212282 329.99601 
L 256.58269 331.061745 
L 254.926101 332.067365 
L 253.462899 332.892415 
L 251.981295 333.669156 
L 250.482325 334.396421 
L 248.967066 335.073114 
L 246.428554 336.078492 
L 243.853871 336.93863 
L 242.012367 337.457754 
L 239.78819 337.980088 
L 237.548468 338.392177 
L 235.29686 338.692779 
L 233.037085 338.880985 
L 230.995597 338.953846 
L 228.805987 338.929738 
L 226.618866 338.799916 
L 224.437643 338.564746 
L 222.265701 338.224893 
L 220.958654 337.969071 
L 218.092511 337.271288 
L 215.260054 336.393507 
L 213.428214 335.723689 
L 211.615963 334.980072 
L 209.825226 334.164237 
L 208.057849 333.277915 
L 205.760541 332.001402 
L 203.510955 330.609715 
L 200.908368 328.815963 
L 198.38326 326.87639 
L 195.533531 324.435286 
L 193.034678 322.057747 
L 190.638383 319.552402 
L 188.960386 317.656613 
L 187.338809 315.706056 
L 185.53154 313.385684 
L 183.800521 311.008246 
L 180.804277 306.501117 
L 178.434604 302.548527 
L 174.16695 294.456875 
L 172.073039 289.99915 
L 170.770429 287.068387 
L 169.770722 284.745349 
L 168.807519 282.455868 
L 167.73364 279.858845 
L 166.694409 277.321177 
L 165.594674 274.637841 
L 164.788295 272.691141 
L 163.989032 270.794902 
L 163.107581 268.758631 
L 162.223118 266.789686 
L 161.440232 265.120257 
L 160.646194 263.505264 
L 159.836955 261.945413 
L 159.008546 260.441068 
L 158.239336 259.127924 
L 157.650116 258.175506 
L 157.047674 257.248217 
L 156.430919 256.345817 
L 155.798797 255.467997 
L 155.141793 254.603502 
L 154.466967 253.763386 
L 153.773351 252.947123 
L 153.060029 252.154125 
L 151.895489 250.951695 
L 150.676932 249.802412 
L 149.352325 248.662506 
L 147.96398 247.572459 
L 146.587389 246.581506 
L 145.150162 245.627569 
L 143.587015 244.668516 
L 141.956211 243.740222 
L 140.784431 243.111311 
L 139.580025 242.492984 
L 138.414738 241.918072 
L 137.220878 241.34944 
L 135.998795 240.78554 
L 134.748934 240.224809 
L 133.341994 239.609511 
L 131.902914 238.994053 
L 130.43268 238.376341 
L 128.932406 237.754287 
L 127.313014 237.088806 
L 125.662999 236.413709 
L 124.288229 235.851211 
L 122.039828 234.926593 
L 119.748864 233.972506 
L 117.420556 232.9839 
L 115.060527 231.955956 
L 110.241597 229.750802 
L 109.912248 229.593934 
L 103.338808 226.258105 
L 99.648032 224.181523 
L 95.664932 221.736097 
L 91.772509 219.100655 
L 89.064033 217.096151 
L 85.632896 214.315362 
L 82.366775 211.363743 
L 80.478454 209.491836 
L 78.667773 207.559898 
L 77.358939 206.066202 
L 75.918476 204.312167 
L 74.547515 202.517205 
L 73.249558 200.682992 
L 72.027938 198.811374 
L 70.741393 196.650538 
L 69.873564 195.055083 
L 69.063199 193.438681 
L 68.311729 191.80268 
L 67.620487 190.148489 
L 67.047845 188.636951 
L 66.526378 187.11283 
L 66.056849 185.577276 
L 65.639946 184.031466 
L 65.174645 181.99395 
L 64.801782 179.94367 
L 64.562072 178.224975 
L 64.387816 176.500999 
L 64.279321 174.773415 
L 64.236778 173.0439 
L 64.281258 170.771125 
L 64.439603 168.501755 
L 64.763866 165.887776 
L 65.113461 163.897895 
L 65.550146 161.91963 
L 65.976688 160.292969 
L 66.461485 158.677394 
L 67.003751 157.074278 
L 67.602611 155.484958 
L 68.386762 153.615458 
L 69.24773 151.769399 
L 70.04863 150.201119 
L 70.903632 148.652925 
L 71.811312 147.125993 
L 72.770164 145.621438 
L 73.87998 143.996534 
L 75.047367 142.40117 
L 76.270019 140.836546 
L 77.545537 139.303757 
L 79.557017 137.061537 
L 81.673523 134.896341 
L 82.117192 134.464487 
L 84.319797 132.420133 
L 86.604882 130.45501 
L 88.82112 128.679736 
L 91.094086 126.975622 
L 94.763398 124.439375 
L 98.521798 122.075204 
L 104.293008 118.819345 
L 105.633151 118.118117 
L 109.6746 116.108197 
L 113.685425 114.245823 
L 116.416622 113.038232 
L 119.079912 111.897693 
L 121.696902 110.803688 
L 123.983925 109.861885 
L 126.222878 108.945748 
L 128.00634 108.215216 
L 129.752677 107.494854 
L 131.203825 106.889258 
L 132.625692 106.286772 
L 134.017299 105.685441 
L 135.377788 105.083304 
L 137.106576 104.292431 
L 138.779734 103.492509 
L 140.260402 102.749371 
L 141.693286 101.991849 
L 143.007134 101.257696 
L 144.277906 100.505158 
L 145.505842 99.73169 
L 146.69138 98.934836 
L 148.22525 97.818215 
L 149.685181 96.649259 
L 150.643978 95.815658 
L 151.570369 94.953615 
L 152.363 94.167003 
L 153.132094 93.356195 
L 153.878595 92.52037 
L 154.60351 91.658785 
L 155.233615 90.866904 
L 155.848157 90.053514 
L 156.527781 89.103917 
L 157.189726 88.125681 
L 157.86791 87.066165 
L 158.529636 85.974278 
L 159.176563 84.849812 
L 159.810394 83.692674 
L 160.686614 82.002912 
L 161.545246 80.24852 
L 162.110965 79.042316 
L 162.672694 77.808135 
L 163.790438 75.257892 
L 164.396469 73.831874 
L 165.035704 72.302899 
L 165.680351 70.742336 
L 166.332682 69.15161 
L 166.994944 67.532294 
L 168.024376 65.022907 
L 169.074347 62.493881 
L 170.165765 59.918014 
L 171.350388 57.200965 
L 172.593762 54.450734 
L 175.855157 47.773501 
L 178.091455 43.642856 
L 182.072778 37.115533 
L 183.849348 34.510912 
L 185.843373 31.79087 
L 187.791884 29.3252 
L 189.827279 26.937274 
L 191.45115 25.160384 
L 193.125166 23.440481 
L 196.044824 20.694558 
L 197.554794 19.393272 
L 199.097007 18.14315 
L 201.154797 16.593854 
L 203.263122 15.140852 
L 204.865395 14.123624 
L 206.492893 13.164484 
L 208.255815 12.207123 
L 210.044182 11.320012 
L 211.856163 10.505066 
L 213.689843 9.76405 
L 216.586673 8.760161 
L 219.523474 7.945081 
L 221.108976 7.587929 
L 222.702276 7.286672 
L 224.302055 7.04177 
L 225.90698 6.853598 
L 226.679781 6.783431 
L 229.213617 6.646154 
L 231.749938 6.650751 
L 233.664476 6.748311 
L 235.575111 6.926635 
L 237.47957 7.185338 
L 239.375604 7.523859 
L 242.221134 8.185522 
L 245.034838 9.024652 
L 246.684395 9.604073 
L 248.318767 10.243398 
L 250.403006 11.155107 
L 252.456693 12.16213 
L 254.477055 13.261611 
L 256.461478 14.450445 
L 257.193804 14.917281 
L 259.699311 16.633402 
L 262.133583 18.484898 
L 263.912837 19.959598 
L 265.647971 21.501938 
L 267.337637 23.107902 
L 268.980697 24.77334 
L 270.256344 26.14058 
L 272.199536 28.355226 
L 274.066229 30.642338 
L 276.016999 33.212466 
L 277.87619 35.846675 
L 280.621358 40.09702 
L 283.636588 45.315424 
L 285.641164 49.134429 
L 287.343616 52.609526 
L 288.938476 56.058752 
L 290.669206 60.001147 
L 291.820251 62.721588 
L 292.92565 65.388956 
L 293.966417 67.928537 
L 294.979597 70.403215 
L 296.094225 73.096455 
L 297.196192 75.693072 
L 297.869133 77.23115 
L 298.461007 78.54703 
L 299.056627 79.831922 
L 299.657826 81.08532 
L 300.266416 82.306834 
L 300.917952 83.559694 
L 301.581756 84.776637 
L 302.443237 86.266316 
L 303.331622 87.698574 
L 304.31181 89.161715 
L 305.331284 90.561557 
L 306.253285 91.728992 
L 307.210724 92.851053 
L 308.205986 93.929289 
L 309.241265 94.965474 
L 310.364116 96.00203 
L 311.534532 96.997614 
L 312.595637 97.834667 
L 313.816035 98.730229 
L 315.084771 99.595191 
L 316.402692 100.432479 
L 317.770378 101.245157 
L 318.842873 101.84805 
L 319.944309 102.440013 
L 321.872243 103.420164 
L 323.881814 104.380542 
L 326.13428 105.40072 
L 328.476381 106.415964 
L 330.77133 107.380549 
L 333.138672 108.35709 
L 334.998016 109.118139 
L 338.232791 110.444407 
L 341.559711 111.830271 
L 344.217232 112.966404 
L 347.713607 114.517053 
L 351.254296 116.170408 
L 355.598049 118.342073 
L 358.517266 119.908085 
L 362.811983 122.398517 
L 367.027604 125.100864 
L 369.569074 126.876977 
L 372.05298 128.73773 
L 375.210093 131.310397 
L 377.013341 132.901169 
L 378.967451 134.741398 
L 380.847391 136.643541 
L 382.64683 138.606083 
L 384.359649 140.627146 
L 386.008313 142.74247 
L 387.946598 145.49652 
L 389.710996 148.333229 
L 390.635949 149.986377 
L 391.499148 151.662723 
L 392.478877 153.765876 
L 393.35874 155.899226 
L 394.017936 157.709927 
L 394.603643 159.53775 
L 395.11464 161.380708 
L 395.549857 163.236766 
L 395.932772 165.247915 
L 396.225809 167.26919 
L 396.478774 170.028247 
L 396.563222 172.794198 
L 368.869295 172.794198 
L 368.836359 171.68416 
L 368.737592 170.575563 
L 368.539839 169.288643 
L 368.253356 168.007887 
L 367.878623 166.73554 
L 367.416264 165.473826 
L 366.985863 164.478058 
L 366.500825 163.491525 
L 365.961661 162.515309 
L 365.368942 161.550475 
L 364.627534 160.464143 
L 363.818147 159.395539 
L 362.941892 158.346153 
L 361.999969 157.317437 
L 361.13083 156.443028 
L 360.214153 155.586119 
L 359.250882 154.747572 
L 358.242002 153.928223 
L 356.260437 152.466824 
L 354.133496 151.078557 
L 351.868584 149.767832 
L 349.473553 148.538643 
L 347.915356 147.813901 
L 346.311717 147.123138 
L 344.707523 146.483437 
L 343.064259 145.877249 
L 339.668876 144.767421 
L 337.539332 144.160593 
L 335.365346 143.60586 
L 333.150921 143.10361 
L 330.900114 142.654075 
L 327.250683 142.047119 
L 323.075666 141.524335 
L 318.842457 141.167297 
L 310.718065 140.930215 
L 303.544389 141.17416 
L 296.053129 141.85414 
L 292.310598 142.350977 
L 288.658921 142.934808 
L 284.774216 143.662335 
L 281.035723 144.465454 
L 279.067598 144.928662 
L 277.15055 145.406542 
L 275.287023 145.896224 
L 273.479315 146.39478 
L 271.753506 146.892187 
L 269.422491 147.596753 
L 267.211809 148.298743 
L 265.125667 148.989871 
L 263.167646 149.6618 
L 262.16254 150.014465 
L 260.433107 150.631272 
L 258.833963 151.209089 
L 258.05801 151.490219 
L 257.317408 151.757742 
L 256.612223 152.010601 
L 255.942479 152.247746 
L 255.308157 152.468146 
L 254.709192 152.670781 
L 254.145481 152.85465 
L 253.616873 153.018769 
L 253.065676 153.178106 
L 252.558041 153.310069 
L 252.093572 153.413363 
L 251.671809 153.486729 
L 251.23685 153.532644 
L 250.857328 153.535136 
L 250.532224 153.49247 
L 250.260413 153.402989 
L 250.080109 153.296338 
L 249.932617 153.157797 
L 249.769504 152.884165 
L 249.677997 152.532618 
L 249.655196 152.100987 
L 249.698014 151.587327 
L 249.776381 151.120965 
L 249.892201 150.601294 
L 250.102977 149.820469 
L 250.373422 148.941573 
L 250.581373 148.310363 
L 250.811786 147.636237 
L 251.063311 146.919073 
L 251.334572 146.158812 
L 251.595069 145.435959 
L 251.869454 144.678082 
L 252.156678 143.885273 
L 252.455681 143.057668 
L 252.765395 142.195443 
L 253.084746 141.298819 
L 253.748032 139.403469 
L 254.127618 138.293921 
L 254.513578 137.143683 
L 254.904426 135.953356 
L 255.298677 134.723606 
L 255.576587 133.837448 
L 256.378334 131.17898 
L 257.171656 128.371605 
L 257.631557 126.646346 
L 258.081981 124.873769 
L 258.520575 123.05582 
L 258.945031 121.194559 
L 259.726975 117.431334 
L 260.429799 113.527695 
L 261.213807 108.166664 
L 261.871547 101.755404 
L 262.219295 95.199737 
L 262.203131 87.993353 
L 261.792261 81.365527 
L 261.160045 76.034268 
L 260.45418 71.841311 
L 259.571318 67.759387 
L 258.800886 64.811811 
L 257.934252 61.94951 
L 257.249451 59.941032 
L 256.516072 57.985785 
L 255.735026 56.087306 
L 254.907358 54.249041 
L 254.165609 52.731525 
L 253.391619 51.262249 
L 252.586263 49.843171 
L 251.750479 48.476184 
L 250.435296 46.517991 
L 249.587428 45.367438 
L 248.716183 44.26769 
L 247.82254 43.220041 
L 246.907519 42.225728 
L 245.674888 41.002652 
L 244.409695 39.876119 
L 243.114535 38.848435 
L 241.792094 37.921703 
L 240.874571 37.347731 
L 239.946516 36.822297 
L 238.500763 36.110071 
L 237.035678 35.515449 
L 235.554731 35.03978 
L 234.061445 34.684145 
L 232.567596 34.450304 
L 231.068607 34.336519 
L 229.651708 34.33951 
L 228.23639 34.449762 
L 226.825647 34.667053 
L 225.422454 34.990947 
L 223.732127 35.526924 
L 222.062542 36.21769 
L 220.778011 36.862628 
L 219.511624 37.599343 
L 218.265725 38.426513 
L 217.042605 39.342656 
L 215.732389 40.445636 
L 214.45497 41.650907 
L 213.070504 43.114633 
L 211.73396 44.698812 
L 210.448766 46.399233 
L 209.218144 48.211389 
L 208.224624 49.823531 
L 207.273755 51.508763 
L 206.367089 53.263931 
L 205.506046 55.085759 
L 204.342761 57.834857 
L 203.350787 60.505077 
L 202.449322 63.272122 
L 201.508266 66.634106 
L 200.696587 70.101601 
L 199.981528 73.857616 
L 199.411773 77.694758 
L 199.064432 80.76345 
L 198.805564 83.861322 
L 198.546584 90.107123 
L 198.636337 96.861728 
L 198.719452 98.616421 
L 199.047297 103.18116 
L 199.523105 107.666148 
L 200.217744 112.593466 
L 200.62067 114.994752 
L 201.056303 117.348639 
L 201.510561 119.600394 
L 202.076303 122.18174 
L 202.670455 124.684056 
L 203.287164 127.102008 
L 203.920413 129.430643 
L 204.658355 131.983076 
L 205.409057 134.433435 
L 206.154081 136.745748 
L 206.585256 138.038347 
L 207.008952 139.280723 
L 207.42312 140.472121 
L 207.825714 141.611884 
L 208.251706 142.802383 
L 208.658627 143.92945 
L 209.04382 144.99263 
L 209.404655 145.991615 
L 209.643429 146.658434 
L 209.867855 147.293126 
L 210.07704 147.895711 
L 210.270108 148.466245 
L 210.553774 149.34633 
L 210.786338 150.138256 
L 210.96401 150.842925 
L 211.083141 151.461501 
L 211.136445 151.930849 
L 211.140558 152.33716 
L 211.093374 152.681662 
L 210.992893 152.965722 
L 210.879124 153.14283 
L 210.73239 153.286291 
L 210.551937 153.396864 
L 210.337053 153.475347 
L 210.024644 153.529104 
L 209.658016 153.537249 
L 209.13816 153.488263 
L 208.535082 153.37774 
L 208.066549 153.266573 
L 207.556786 153.128547 
L 207.005444 152.964877 
L 206.412237 152.776808 
L 205.776936 152.565614 
L 205.099374 152.332595 
L 204.379443 152.079075 
L 203.617101 151.806401 
L 202.751164 151.493789 
L 201.836432 151.162377 
L 200.873089 150.813902 
L 199.861406 150.450117 
L 198.053194 149.809114 
L 196.396138 149.235328 
L 194.642786 148.644994 
L 193.199627 148.173258 
L 191.699562 147.697218 
L 190.143903 147.219455 
L 188.534093 146.742533 
L 186.801269 146.249356 
L 185.013307 145.762683 
L 183.17227 145.285308 
L 181.280358 144.819976 
L 179.036198 144.301303 
L 176.731176 143.806298 
L 173.718641 143.217191 
L 170.623026 142.680394 
L 167.015689 142.143101 
L 163.32748 141.69292 
L 153.433608 140.993273 
L 146.462011 140.965866 
L 141.074499 141.22795 
L 135.74956 141.749607 
L 133.4511 142.061466 
L 130.785297 142.493188 
L 128.160809 142.995999 
L 125.120047 143.682093 
L 122.156512 144.466906 
L 119.280495 145.3493 
L 116.502041 146.327591 
L 114.869409 146.966388 
L 113.278339 147.639028 
L 111.7309 148.344852 
L 110.22911 149.083135 
L 108.643543 149.925516 
L 107.117235 150.804539 
L 105.652578 151.718997 
L 104.251873 152.667594 
L 102.694091 153.821347 
L 101.230619 155.017774 
L 100.160075 155.975801 
L 99.149869 156.956883 
L 98.201331 157.959744 
L 97.315714 158.983065 
L 96.440593 160.097147 
L 95.639912 161.231313 
L 94.914883 162.383812 
L 94.266602 163.552852 
L 93.483558 165.228732 
L 92.885345 166.843537 
L 92.43091 168.475469 
L 92.121496 170.119845 
L 91.957949 171.771934 
L 91.930419 172.671646 
L 91.946163 173.571462 
L 92.07954 175.157962 
L 92.347403 176.738181 
L 92.749076 178.307927 
L 93.283548 179.863048 
L 93.926113 181.35055 
L 94.690327 182.816858 
L 95.287381 183.813979 
L 95.940787 184.798163 
L 96.649813 185.768282 
L 97.413667 186.72323 
L 98.731088 188.199432 
L 100.179734 189.630902 
L 101.755574 191.013703 
L 103.454237 192.344105 
L 104.535964 193.119554 
L 105.659562 193.87394 
L 106.823903 194.606567 
L 108.027822 195.316774 
L 109.361652 196.052844 
L 110.738093 196.761672 
L 112.155569 197.442579 
L 113.61246 198.094932 
L 115.762826 198.977761 
L 118.58967 200.00797 
L 121.522044 200.937489 
L 124.549122 201.764357 
L 127.659796 202.487216 
L 130.154104 202.981516 
L 133.486393 203.532134 
L 136.87314 203.971726 
L 141.741612 204.406959 
L 146.657127 204.627266 
L 154.465642 204.55758 
L 160.430065 204.177897 
L 164.066013 203.813421 
L 167.636975 203.359564 
L 171.33969 202.78993 
L 174.938096 202.140648 
L 177.40073 201.642259 
L 179.799512 201.114737 
L 183.145757 200.309787 
L 186.33617 199.467815 
L 187.981259 199.005492 
L 189.576412 198.539111 
L 191.120114 198.071052 
L 192.610962 197.603718 
L 194.861933 196.870626 
L 196.972541 196.15513 
L 198.684191 195.557178 
L 200.285827 194.986022 
L 201.77596 194.447928 
L 203.15355 193.949094 
L 204.286012 193.542549 
L 205.403811 193.150291 
L 206.417663 192.809824 
L 207.328145 192.526176 
L 208.136205 192.304219 
L 208.528635 192.212059 
L 208.892094 192.139783 
L 209.501121 192.05989 
L 210.009703 192.057991 
L 210.420321 192.1383 
L 210.735798 192.304763 
L 210.921737 192.502364 
L 211.050588 192.759145 
L 211.124232 193.076711 
L 211.144667 193.456528 
L 211.120539 193.841138 
L 211.05874 194.275268 
L 210.985286 194.649139 
L 210.890562 195.053945 
L 210.775345 195.489955 
L 210.640432 195.957409 
L 210.475983 196.490128 
L 210.291117 197.058955 
L 210.086861 197.664048 
L 209.864259 198.305521 
L 209.57053 199.134281 
L 209.253207 200.016916 
L 208.91426 200.953357 
L 208.555686 201.943434 
L 208.008912 203.462855 
L 207.431722 205.091747 
L 206.915927 206.578273 
L 206.386126 208.143233 
L 205.846248 209.785113 
L 205.300215 211.502169 
L 204.846037 212.980018 
L 204.392516 214.506864 
L 203.941836 216.081365 
L 203.496157 217.702078 
L 202.816432 220.316942 
L 202.161937 223.034003 
L 201.629318 225.427524 
L 201.125268 227.885866 
L 200.487538 231.359883 
L 199.923123 234.933786 
L 199.471761 238.345717 
L 199.100984 241.820262 
L 198.550246 251.755833 
L 198.565296 256.480992 
L 198.831094 262.087501 
L 199.377823 267.626576 
L 199.786207 270.528645 
L 200.277008 273.388038 
L 200.783612 275.891844 
L 201.355611 278.349709 
L 201.99264 280.756035 
L 202.694089 283.105313 
L 203.434334 285.321906 
L 204.233275 287.475067 
L 205.202351 289.819354 
L 206.242446 292.070643 
L 207.267852 294.068696 
L 208.350222 295.976662 
L 209.48728 297.789939 
L 210.676544 299.504141 
L 212.033468 301.260156 
L 213.445853 302.88765 
L 214.268094 303.749794 
L 215.10606 304.568457 
L 216.639798 305.920416 
L 218.216622 307.12713 
L 219.831732 308.184982 
L 221.480155 309.090796 
L 222.462894 309.551305 
L 223.454319 309.957821 
L 224.399478 310.292386 
L 225.350528 310.577916 
L 226.306541 310.814144 
L 227.266578 311.000849 
L 228.728396 311.189147 
L 230.193999 311.262707 
L 231.660068 311.221369 
L 233.123283 311.065224 
L 234.853444 310.730955 
L 236.569389 310.236124 
L 238.265666 309.58223 
L 239.936915 308.771252 
L 240.158473 308.650885 
L 241.809374 307.655351 
L 243.423526 306.50586 
L 244.995872 305.205942 
L 246.521548 303.75958 
L 247.334828 302.907855 
L 248.132012 302.014391 
L 248.912388 301.080003 
L 249.675272 300.105545 
L 250.779882 298.578605 
L 251.841964 296.967486 
L 252.859555 295.27544 
L 253.83083 293.505876 
L 254.588181 292.006368 
L 255.312705 290.459574 
L 256.378081 287.950863 
L 257.358706 285.339706 
L 257.955459 283.573454 
L 258.51421 281.769108 
L 259.516085 278.056146 
L 260.053655 275.716327 
L 260.532169 273.335389 
L 260.951529 270.918198 
L 261.311842 268.469663 
L 261.8571 263.49421 
L 262.172057 258.452809 
L 262.26392 254.316714 
L 262.220006 250.414847 
L 261.565485 240.47493 
L 261.039877 236.09819 
L 260.392255 231.835455 
L 259.558791 227.304543 
L 258.992919 224.610944 
L 258.394121 221.998237 
L 257.847189 219.77963 
L 257.284146 217.631543 
L 256.709453 215.55749 
L 256.127659 213.560717 
L 255.582717 211.770685 
L 255.039413 210.05265 
L 254.501576 208.408584 
L 253.973053 206.840234 
L 253.286562 204.861091 
L 252.711824 203.243356 
L 252.168513 201.735822 
L 251.660524 200.333432 
L 251.196569 199.044088 
L 250.782664 197.868035 
L 250.424686 196.805078 
L 250.234591 196.206633 
L 250.069164 195.650595 
L 249.895973 195.002458 
L 249.767536 194.422079 
L 249.686322 193.908551 
L 249.654705 193.460814 
L 249.674759 193.079114 
L 249.748383 192.760114 
L 249.877597 192.502332 
L 250.064301 192.304147 
L 250.219606 192.205292 
L 250.401121 192.131024 
L 250.609298 192.080789 
L 250.844564 192.05401 
L 251.171966 192.05237 
L 251.541713 192.084209 
L 251.99364 192.155622 
L 252.497332 192.26375 
L 253.053419 192.406917 
L 253.662439 192.58339 
L 254.477458 192.841097 
L 255.372461 193.142356 
L 256.347831 193.483746 
L 257.403732 193.861759 
L 258.589552 194.290734 
L 259.862408 194.751459 
L 261.584078 195.36889 
L 263.440407 196.021444 
L 265.4942 196.722555 
L 267.685327 197.442715 
L 270.009642 198.172613 
L 272.462283 198.90301 
L 275.436852 199.732457 
L 277.237403 200.204074 
L 279.087631 200.66459 
L 280.985341 201.111432 
L 282.928213 201.542086 
L 286.074457 202.181741 
L 289.211962 202.748258 
L 292.429576 203.254801 
L 298.401093 203.99293 
L 304.535089 204.472099 
L 313.522233 204.640159 
L 314.228399 204.625214 
L 320.15528 204.328266 
L 323.092566 204.062296 
L 326.001695 203.716222 
L 329.86615 203.121195 
L 332.994779 202.517913 
L 336.05421 201.813566 
L 339.033689 201.008822 
L 341.922675 200.10492 
L 344.5653 199.159335 
L 347.109099 198.12847 
L 348.844309 197.349093 
L 350.52315 196.52924 
L 352.142894 195.67 
L 353.700903 194.772564 
L 354.96452 193.987264 
L 356.18098 193.176553 
L 357.348866 192.341296 
L 358.466813 191.482406 
L 360.056226 190.14386 
L 361.524744 188.75714 
L 362.708479 187.505928 
L 363.79403 186.223118 
L 364.779164 184.911371 
L 365.661848 183.573437 
L 366.254545 182.556282 
L 366.788102 181.527249 
L 367.268229 180.472661 
L 367.686307 179.408433 
L 368.041836 178.335893 
L 368.334391 177.256381 
L 368.568191 176.145997 
L 368.735401 175.031191 
L 368.835811 173.913433 
L 368.869295 172.794198 
z
" clip-path="url(#p37bed484d8)" style="fill: #ffa500; opacity: 0.5"/>
   </g>
   <g id="matplotlib.axis_1">
    <g id="xtick_1">
     <g id="line2d_1">
      <defs>
       <path id="m3d2dee9eb4" d="M 0 0 
L 0 3.5 
" style="stroke: #000000; stroke-width: 0.8"/>
      </defs>
      <g>
       <use xlink:href="#m3d2dee9eb4" x="64.23609" y="172.794198" style="stroke: #000000; stroke-width: 0.8"/>
      </g>
     </g>
     <g id="text_1">
      <!-- −3 -->
      <g transform="translate(56.864996 187.392636) scale(0.1 -0.1)">
       <defs>
        <path id="DejaVuSans-2212" d="M 678 2272 
L 4684 2272 
L 4684 1741 
L 678 1741 
L 678 2272 
z
" transform="scale(0.015625)"/>
        <path id="DejaVuSans-33" d="M 2597 2516 
Q 3050 2419 3304 2112 
Q 3559 1806 3559 1356 
Q 3559 666 3084 287 
Q 2609 -91 1734 -91 
Q 1441 -91 1130 -33 
Q 819 25 488 141 
L 488 750 
Q 750 597 1062 519 
Q 1375 441 1716 441 
Q 2309 441 2620 675 
Q 2931 909 2931 1356 
Q 2931 1769 2642 2001 
Q 2353 2234 1838 2234 
L 1294 2234 
L 1294 2753 
L 1863 2753 
Q 2328 2753 2575 2939 
Q 2822 3125 2822 3475 
Q 2822 3834 2567 4026 
Q 2313 4219 1838 4219 
Q 1578 4219 1281 4162 
Q 984 4106 628 3988 
L 628 4550 
Q 988 4650 1302 4700 
Q 1616 4750 1894 4750 
Q 2613 4750 3031 4423 
Q 3450 4097 3450 3541 
Q 3450 3153 3228 2886 
Q 3006 2619 2597 2516 
z
" transform="scale(0.015625)"/>
       </defs>
       <use xlink:href="#DejaVuSans-2212"/>
       <use xlink:href="#DejaVuSans-33" x="83.789062"/>
      </g>
     </g>
    </g>
    <g id="xtick_2">
     <g id="line2d_2">
      <g>
       <use xlink:href="#m3d2dee9eb4" x="119.623945" y="172.794198" style="stroke: #000000; stroke-width: 0.8"/>
      </g>
     </g>
     <g id="text_2">
      <!-- −2 -->
      <g transform="translate(112.252851 187.392636) scale(0.1 -0.1)">
       <defs>
        <path id="DejaVuSans-32" d="M 1228 531 
L 3431 531 
L 3431 0 
L 469 0 
L 469 531 
Q 828 903 1448 1529 
Q 2069 2156 2228 2338 
Q 2531 2678 2651 2914 
Q 2772 3150 2772 3378 
Q 2772 3750 2511 3984 
Q 2250 4219 1831 4219 
Q 1534 4219 1204 4116 
Q 875 4013 500 3803 
L 500 4441 
Q 881 4594 1212 4672 
Q 1544 4750 1819 4750 
Q 2544 4750 2975 4387 
Q 3406 4025 3406 3419 
Q 3406 3131 3298 2873 
Q 3191 2616 2906 2266 
Q 2828 2175 2409 1742 
Q 1991 1309 1228 531 
z
" transform="scale(0.015625)"/>
       </defs>
       <use xlink:href="#DejaVuSans-2212"/>
       <use xlink:href="#DejaVuSans-32" x="83.789062"/>
      </g>
     </g>
    </g>
    <g id="xtick_3">
     <g id="line2d_3">
      <g>
       <use xlink:href="#m3d2dee9eb4" x="175.011801" y="172.794198" style="stroke: #000000; stroke-width: 0.8"/>
      </g>
     </g>
     <g id="text_3">
      <!-- −1 -->
      <g transform="translate(167.640707 187.392636) scale(0.1 -0.1)">
       <defs>
        <path id="DejaVuSans-31" d="M 794 531 
L 1825 531 
L 1825 4091 
L 703 3866 
L 703 4441 
L 1819 4666 
L 2450 4666 
L 2450 531 
L 3481 531 
L 3481 0 
L 794 0 
L 794 531 
z
" transform="scale(0.015625)"/>
       </defs>
       <use xlink:href="#DejaVuSans-2212"/>
       <use xlink:href="#DejaVuSans-31" x="83.789062"/>
      </g>
     </g>
    </g>
    <g id="xtick_4">
     <g id="line2d_4">
      <g>
       <use xlink:href="#m3d2dee9eb4" x="230.399656" y="172.794198" style="stroke: #000000; stroke-width: 0.8"/>
      </g>
     </g>
    </g>
    <g id="xtick_5">
     <g id="line2d_5">
      <g>
       <use xlink:href="#m3d2dee9eb4" x="285.787511" y="172.794198" style="stroke: #000000; stroke-width: 0.8"/>
      </g>
     </g>
     <g id="text_4">
      <!-- 1 -->
      <g transform="translate(282.606261 187.392636) scale(0.1 -0.1)">
       <use xlink:href="#DejaVuSans-31"/>
      </g>
     </g>
    </g>
    <g id="xtick_6">
     <g id="line2d_6">
      <g>
       <use xlink:href="#m3d2dee9eb4" x="341.175367" y="172.794198" style="stroke: #000000; stroke-width: 0.8"/>
      </g>
     </g>
     <g id="text_5">
      <!-- 2 -->
      <g transform="translate(337.994117 187.392636) scale(0.1 -0.1)">
       <use xlink:href="#DejaVuSans-32"/>
      </g>
     </g>
    </g>
    <g id="xtick_7">
     <g id="line2d_7">
      <g>
       <use xlink:href="#m3d2dee9eb4" x="396.563222" y="172.794198" style="stroke: #000000; stroke-width: 0.8"/>
      </g>
     </g>
     <g id="text_6">
      <!-- 3 -->
      <g transform="translate(393.381972 187.392636) scale(0.1 -0.1)">
       <use xlink:href="#DejaVuSans-33"/>
      </g>
     </g>
    </g>
    <g id="xtick_8">
     <g id="line2d_8">
      <defs>
       <path id="m6f42a20d5e" d="M 0 0 
L 0 2 
" style="stroke: #000000; stroke-width: 0.6"/>
      </defs>
      <g>
       <use xlink:href="#m6f42a20d5e" x="75.313661" y="172.794198" style="stroke: #000000; stroke-width: 0.6"/>
      </g>
     </g>
    </g>
    <g id="xtick_9">
     <g id="line2d_9">
      <g>
       <use xlink:href="#m6f42a20d5e" x="86.391232" y="172.794198" style="stroke: #000000; stroke-width: 0.6"/>
      </g>
     </g>
    </g>
    <g id="xtick_10">
     <g id="line2d_10">
      <g>
       <use xlink:href="#m6f42a20d5e" x="97.468803" y="172.794198" style="stroke: #000000; stroke-width: 0.6"/>
      </g>
     </g>
    </g>
    <g id="xtick_11">
     <g id="line2d_11">
      <g>
       <use xlink:href="#m6f42a20d5e" x="108.546374" y="172.794198" style="stroke: #000000; stroke-width: 0.6"/>
      </g>
     </g>
    </g>
    <g id="xtick_12">
     <g id="line2d_12">
      <g>
       <use xlink:href="#m6f42a20d5e" x="130.701516" y="172.794198" style="stroke: #000000; stroke-width: 0.6"/>
      </g>
     </g>
    </g>
    <g id="xtick_13">
     <g id="line2d_13">
      <g>
       <use xlink:href="#m6f42a20d5e" x="141.779087" y="172.794198" style="stroke: #000000; stroke-width: 0.6"/>
      </g>
     </g>
    </g>
    <g id="xtick_14">
     <g id="line2d_14">
      <g>
       <use xlink:href="#m6f42a20d5e" x="152.856658" y="172.794198" style="stroke: #000000; stroke-width: 0.6"/>
      </g>
     </g>
    </g>
    <g id="xtick_15">
     <g id="line2d_15">
      <g>
       <use xlink:href="#m6f42a20d5e" x="163.93423" y="172.794198" style="stroke: #000000; stroke-width: 0.6"/>
      </g>
     </g>
    </g>
    <g id="xtick_16">
     <g id="line2d_16">
      <g>
       <use xlink:href="#m6f42a20d5e" x="186.089372" y="172.794198" style="stroke: #000000; stroke-width: 0.6"/>
      </g>
     </g>
    </g>
    <g id="xtick_17">
     <g id="line2d_17">
      <g>
       <use xlink:href="#m6f42a20d5e" x="197.166943" y="172.794198" style="stroke: #000000; stroke-width: 0.6"/>
      </g>
     </g>
    </g>
    <g id="xtick_18">
     <g id="line2d_18">
      <g>
       <use xlink:href="#m6f42a20d5e" x="208.244514" y="172.794198" style="stroke: #000000; stroke-width: 0.6"/>
      </g>
     </g>
    </g>
    <g id="xtick_19">
     <g id="line2d_19">
      <g>
       <use xlink:href="#m6f42a20d5e" x="219.322085" y="172.794198" style="stroke: #000000; stroke-width: 0.6"/>
      </g>
     </g>
    </g>
    <g id="xtick_20">
     <g id="line2d_20">
      <g>
       <use xlink:href="#m6f42a20d5e" x="241.477227" y="172.794198" style="stroke: #000000; stroke-width: 0.6"/>
      </g>
     </g>
    </g>
    <g id="xtick_21">
     <g id="line2d_21">
      <g>
       <use xlink:href="#m6f42a20d5e" x="252.554798" y="172.794198" style="stroke: #000000; stroke-width: 0.6"/>
      </g>
     </g>
    </g>
    <g id="xtick_22">
     <g id="line2d_22">
      <g>
       <use xlink:href="#m6f42a20d5e" x="263.632369" y="172.794198" style="stroke: #000000; stroke-width: 0.6"/>
      </g>
     </g>
    </g>
    <g id="xtick_23">
     <g id="line2d_23">
      <g>
       <use xlink:href="#m6f42a20d5e" x="274.70994" y="172.794198" style="stroke: #000000; stroke-width: 0.6"/>
      </g>
     </g>
    </g>
    <g id="xtick_24">
     <g id="line2d_24">
      <g>
       <use xlink:href="#m6f42a20d5e" x="296.865083" y="172.794198" style="stroke: #000000; stroke-width: 0.6"/>
      </g>
     </g>
    </g>
    <g id="xtick_25">
     <g id="line2d_25">
      <g>
       <use xlink:href="#m6f42a20d5e" x="307.942654" y="172.794198" style="stroke: #000000; stroke-width: 0.6"/>
      </g>
     </g>
    </g>
    <g id="xtick_26">
     <g id="line2d_26">
      <g>
       <use xlink:href="#m6f42a20d5e" x="319.020225" y="172.794198" style="stroke: #000000; stroke-width: 0.6"/>
      </g>
     </g>
    </g>
    <g id="xtick_27">
     <g id="line2d_27">
      <g>
       <use xlink:href="#m6f42a20d5e" x="330.097796" y="172.794198" style="stroke: #000000; stroke-width: 0.6"/>
      </g>
     </g>
    </g>
    <g id="xtick_28">
     <g id="line2d_28">
      <g>
       <use xlink:href="#m6f42a20d5e" x="352.252938" y="172.794198" style="stroke: #000000; stroke-width: 0.6"/>
      </g>
     </g>
    </g>
    <g id="xtick_29">
     <g id="line2d_29">
      <g>
       <use xlink:href="#m6f42a20d5e" x="363.330509" y="172.794198" style="stroke: #000000; stroke-width: 0.6"/>
      </g>
     </g>
    </g>
    <g id="xtick_30">
     <g id="line2d_30">
      <g>
       <use xlink:href="#m6f42a20d5e" x="374.40808" y="172.794198" style="stroke: #000000; stroke-width: 0.6"/>
      </g>
     </g>
    </g>
    <g id="xtick_31">
     <g id="line2d_31">
      <g>
       <use xlink:href="#m6f42a20d5e" x="385.485651" y="172.794198" style="stroke: #000000; stroke-width: 0.6"/>
      </g>
     </g>
    </g>
   </g>
   <g id="matplotlib.axis_2">
    <g id="ytick_1">
     <g id="line2d_32">
      <defs>
       <path id="m763cf3389d" d="M 0 0 
L -3.5 0 
" style="stroke: #000000; stroke-width: 0.8"/>
      </defs>
      <g>
       <use xlink:href="#m763cf3389d" x="230.399656" y="338.957765" style="stroke: #000000; stroke-width: 0.8"/>
      </g>
     </g>
     <g id="text_7">
      <!-- −3 -->
      <g transform="translate(208.657469 342.756983) scale(0.1 -0.1)">
       <use xlink:href="#DejaVuSans-2212"/>
       <use xlink:href="#DejaVuSans-33" x="83.789062"/>
      </g>
     </g>
    </g>
    <g id="ytick_2">
     <g id="line2d_33">
      <g>
       <use xlink:href="#m763cf3389d" x="230.399656" y="283.569909" style="stroke: #000000; stroke-width: 0.8"/>
      </g>
     </g>
     <g id="text_8">
      <!-- −2 -->
      <g transform="translate(208.657469 287.369128) scale(0.1 -0.1)">
       <use xlink:href="#DejaVuSans-2212"/>
       <use xlink:href="#DejaVuSans-32" x="83.789062"/>
      </g>
     </g>
    </g>
    <g id="ytick_3">
     <g id="line2d_34">
      <g>
       <use xlink:href="#m763cf3389d" x="230.399656" y="228.182054" style="stroke: #000000; stroke-width: 0.8"/>
      </g>
     </g>
     <g id="text_9">
      <!-- −1 -->
      <g transform="translate(208.657469 231.981273) scale(0.1 -0.1)">
       <use xlink:href="#DejaVuSans-2212"/>
       <use xlink:href="#DejaVuSans-31" x="83.789062"/>
      </g>
     </g>
    </g>
    <g id="ytick_4">
     <g id="line2d_35">
      <g>
       <use xlink:href="#m763cf3389d" x="230.399656" y="172.794198" style="stroke: #000000; stroke-width: 0.8"/>
      </g>
     </g>
    </g>
    <g id="ytick_5">
     <g id="line2d_36">
      <g>
       <use xlink:href="#m763cf3389d" x="230.399656" y="117.406343" style="stroke: #000000; stroke-width: 0.8"/>
      </g>
     </g>
     <g id="text_10">
      <!-- 1 -->
      <g transform="translate(217.037156 121.205562) scale(0.1 -0.1)">
       <use xlink:href="#DejaVuSans-31"/>
      </g>
     </g>
    </g>
    <g id="ytick_6">
     <g id="line2d_37">
      <g>
       <use xlink:href="#m763cf3389d" x="230.399656" y="62.018488" style="stroke: #000000; stroke-width: 0.8"/>
      </g>
     </g>
     <g id="text_11">
      <!-- 2 -->
      <g transform="translate(217.037156 65.817706) scale(0.1 -0.1)">
       <use xlink:href="#DejaVuSans-32"/>
      </g>
     </g>
    </g>
    <g id="ytick_7">
     <g id="line2d_38">
      <g>
       <use xlink:href="#m763cf3389d" x="230.399656" y="6.630632" style="stroke: #000000; stroke-width: 0.8"/>
      </g>
     </g>
     <g id="text_12">
      <!-- 3 -->
      <g transform="translate(217.037156 10.429851) scale(0.1 -0.1)">
       <use xlink:href="#DejaVuSans-33"/>
      </g>
     </g>
    </g>
    <g id="ytick_8">
     <g id="line2d_39">
      <defs>
       <path id="m08113ef220" d="M 0 0 
L -2 0 
" style="stroke: #000000; stroke-width: 0.6"/>
      </defs>
      <g>
       <use xlink:href="#m08113ef220" x="230.399656" y="327.880194" style="stroke: #000000; stroke-width: 0.6"/>
      </g>
     </g>
    </g>
    <g id="ytick_9">
     <g id="line2d_40">
      <g>
       <use xlink:href="#m08113ef220" x="230.399656" y="316.802622" style="stroke: #000000; stroke-width: 0.6"/>
      </g>
     </g>
    </g>
    <g id="ytick_10">
     <g id="line2d_41">
      <g>
       <use xlink:href="#m08113ef220" x="230.399656" y="305.725051" style="stroke: #000000; stroke-width: 0.6"/>
      </g>
     </g>
    </g>
    <g id="ytick_11">
     <g id="line2d_42">
      <g>
       <use xlink:href="#m08113ef220" x="230.399656" y="294.64748" style="stroke: #000000; stroke-width: 0.6"/>
      </g>
     </g>
    </g>
    <g id="ytick_12">
     <g id="line2d_43">
      <g>
       <use xlink:href="#m08113ef220" x="230.399656" y="272.492338" style="stroke: #000000; stroke-width: 0.6"/>
      </g>
     </g>
    </g>
    <g id="ytick_13">
     <g id="line2d_44">
      <g>
       <use xlink:href="#m08113ef220" x="230.399656" y="261.414767" style="stroke: #000000; stroke-width: 0.6"/>
      </g>
     </g>
    </g>
    <g id="ytick_14">
     <g id="line2d_45">
      <g>
       <use xlink:href="#m08113ef220" x="230.399656" y="250.337196" style="stroke: #000000; stroke-width: 0.6"/>
      </g>
     </g>
    </g>
    <g id="ytick_15">
     <g id="line2d_46">
      <g>
       <use xlink:href="#m08113ef220" x="230.399656" y="239.259625" style="stroke: #000000; stroke-width: 0.6"/>
      </g>
     </g>
    </g>
    <g id="ytick_16">
     <g id="line2d_47">
      <g>
       <use xlink:href="#m08113ef220" x="230.399656" y="217.104483" style="stroke: #000000; stroke-width: 0.6"/>
      </g>
     </g>
    </g>
    <g id="ytick_17">
     <g id="line2d_48">
      <g>
       <use xlink:href="#m08113ef220" x="230.399656" y="206.026912" style="stroke: #000000; stroke-width: 0.6"/>
      </g>
     </g>
    </g>
    <g id="ytick_18">
     <g id="line2d_49">
      <g>
       <use xlink:href="#m08113ef220" x="230.399656" y="194.949341" style="stroke: #000000; stroke-width: 0.6"/>
      </g>
     </g>
    </g>
    <g id="ytick_19">
     <g id="line2d_50">
      <g>
       <use xlink:href="#m08113ef220" x="230.399656" y="183.871769" style="stroke: #000000; stroke-width: 0.6"/>
      </g>
     </g>
    </g>
    <g id="ytick_20">
     <g id="line2d_51">
      <g>
       <use xlink:href="#m08113ef220" x="230.399656" y="161.716627" style="stroke: #000000; stroke-width: 0.6"/>
      </g>
     </g>
    </g>
    <g id="ytick_21">
     <g id="line2d_52">
      <g>
       <use xlink:href="#m08113ef220" x="230.399656" y="150.639056" style="stroke: #000000; stroke-width: 0.6"/>
      </g>
     </g>
    </g>
    <g id="ytick_22">
     <g id="line2d_53">
      <g>
       <use xlink:href="#m08113ef220" x="230.399656" y="139.561485" style="stroke: #000000; stroke-width: 0.6"/>
      </g>
     </g>
    </g>
    <g id="ytick_23">
     <g id="line2d_54">
      <g>
       <use xlink:href="#m08113ef220" x="230.399656" y="128.483914" style="stroke: #000000; stroke-width: 0.6"/>
      </g>
     </g>
    </g>
    <g id="ytick_24">
     <g id="line2d_55">
      <g>
       <use xlink:href="#m08113ef220" x="230.399656" y="106.328772" style="stroke: #000000; stroke-width: 0.6"/>
      </g>
     </g>
    </g>
    <g id="ytick_25">
     <g id="line2d_56">
      <g>
       <use xlink:href="#m08113ef220" x="230.399656" y="95.251201" style="stroke: #000000; stroke-width: 0.6"/>
      </g>
     </g>
    </g>
    <g id="ytick_26">
     <g id="line2d_57">
      <g>
       <use xlink:href="#m08113ef220" x="230.399656" y="84.17363" style="stroke: #000000; stroke-width: 0.6"/>
      </g>
     </g>
    </g>
    <g id="ytick_27">
     <g id="line2d_58">
      <g>
       <use xlink:href="#m08113ef220" x="230.399656" y="73.096059" style="stroke: #000000; stroke-width: 0.6"/>
      </g>
     </g>
    </g>
    <g id="ytick_28">
     <g id="line2d_59">
      <g>
       <use xlink:href="#m08113ef220" x="230.399656" y="50.940916" style="stroke: #000000; stroke-width: 0.6"/>
      </g>
     </g>
    </g>
    <g id="ytick_29">
     <g id="line2d_60">
      <g>
       <use xlink:href="#m08113ef220" x="230.399656" y="39.863345" style="stroke: #000000; stroke-width: 0.6"/>
      </g>
     </g>
    </g>
    <g id="ytick_30">
     <g id="line2d_61">
      <g>
       <use xlink:href="#m08113ef220" x="230.399656" y="28.785774" style="stroke: #000000; stroke-width: 0.6"/>
      </g>
     </g>
    </g>
    <g id="ytick_31">
     <g id="line2d_62">
      <g>
       <use xlink:href="#m08113ef220" x="230.399656" y="17.708203" style="stroke: #000000; stroke-width: 0.6"/>
      </g>
     </g>
    </g>
   </g>
   <g id="line2d_63">
    <path d="M 368.869295 172.794198 
L 368.737592 170.575563 
L 368.253356 168.007887 
L 367.416264 165.473826 
L 366.500825 163.491525 
L 365.368942 161.550475 
L 363.818147 159.395539 
L 361.999969 157.317437 
L 360.214153 155.586119 
L 358.242002 153.928223 
L 356.260437 152.466824 
L 354.133496 151.078557 
L 351.868584 149.767832 
L 347.915356 147.813901 
L 344.707523 146.483437 
L 343.064259 145.877249 
L 337.539332 144.160593 
L 333.150921 143.10361 
L 330.900114 142.654075 
L 327.250683 142.047119 
L 323.075666 141.524335 
L 318.842457 141.167297 
L 310.718065 140.930215 
L 303.544389 141.17416 
L 296.053129 141.85414 
L 288.658921 142.934808 
L 281.035723 144.465454 
L 275.287023 145.896224 
L 269.422491 147.596753 
L 262.16254 150.014465 
L 253.065676 153.178106 
L 251.671809 153.486729 
L 250.857328 153.535136 
L 250.260413 153.402989 
L 249.932617 153.157797 
L 249.677997 152.532618 
L 249.698014 151.587327 
L 250.102977 149.820469 
L 251.334572 146.158812 
L 254.904426 135.953356 
L 256.378334 131.17898 
L 258.081981 124.873769 
L 258.945031 121.194559 
L 260.429799 113.527695 
L 261.213807 108.166664 
L 261.871547 101.755404 
L 262.219295 95.199737 
L 262.203131 87.993353 
L 261.792261 81.365527 
L 261.160045 76.034268 
L 260.45418 71.841311 
L 259.571318 67.759387 
L 258.800886 64.811811 
L 257.249451 59.941032 
L 255.735026 56.087306 
L 254.165609 52.731525 
L 252.586263 49.843171 
L 250.435296 46.517991 
L 248.716183 44.26769 
L 246.907519 42.225728 
L 244.409695 39.876119 
L 241.792094 37.921703 
L 239.946516 36.822297 
L 238.500763 36.110071 
L 237.035678 35.515449 
L 235.554731 35.03978 
L 234.061445 34.684145 
L 232.567596 34.450304 
L 229.651708 34.33951 
L 226.825647 34.667053 
L 225.422454 34.990947 
L 223.732127 35.526924 
L 220.778011 36.862628 
L 218.265725 38.426513 
L 215.732389 40.445636 
L 214.45497 41.650907 
L 213.070504 43.114633 
L 211.73396 44.698812 
L 209.218144 48.211389 
L 207.273755 51.508763 
L 205.506046 55.085759 
L 204.342761 57.834857 
L 203.350787 60.505077 
L 202.449322 63.272122 
L 201.508266 66.634106 
L 200.696587 70.101601 
L 199.981528 73.857616 
L 199.064432 80.76345 
L 198.805564 83.861322 
L 198.546584 90.107123 
L 198.719452 98.616421 
L 199.047297 103.18116 
L 199.523105 107.666148 
L 200.62067 114.994752 
L 201.510561 119.600394 
L 202.670455 124.684056 
L 203.920413 129.430643 
L 205.409057 134.433435 
L 207.825714 141.611884 
L 210.786338 150.138256 
L 211.136445 151.930849 
L 211.093374 152.681662 
L 210.879124 153.14283 
L 210.551937 153.396864 
L 210.024644 153.529104 
L 209.13816 153.488263 
L 207.556786 153.128547 
L 204.379443 152.079075 
L 193.199627 148.173258 
L 186.801269 146.249356 
L 181.280358 144.819976 
L 176.731176 143.806298 
L 170.623026 142.680394 
L 163.32748 141.69292 
L 153.433608 140.993273 
L 146.462011 140.965866 
L 141.074499 141.22795 
L 133.4511 142.061466 
L 128.160809 142.995999 
L 125.120047 143.682093 
L 122.156512 144.466906 
L 119.280495 145.3493 
L 114.869409 146.966388 
L 111.7309 148.344852 
L 108.643543 149.925516 
L 105.652578 151.718997 
L 102.694091 153.821347 
L 100.160075 155.975801 
L 98.201331 157.959744 
L 96.440593 160.097147 
L 94.914883 162.383812 
L 94.266602 163.552852 
L 93.483558 165.228732 
L 92.885345 166.843537 
L 92.43091 168.475469 
L 92.121496 170.119845 
L 91.930419 172.671646 
L 92.07954 175.157962 
L 92.347403 176.738181 
L 92.749076 178.307927 
L 93.283548 179.863048 
L 93.926113 181.35055 
L 95.287381 183.813979 
L 96.649813 185.768282 
L 98.731088 188.199432 
L 100.179734 189.630902 
L 101.755574 191.013703 
L 104.535964 193.119554 
L 106.823903 194.606567 
L 109.361652 196.052844 
L 112.155569 197.442579 
L 115.762826 198.977761 
L 118.58967 200.00797 
L 121.522044 200.937489 
L 124.549122 201.764357 
L 130.154104 202.981516 
L 133.486393 203.532134 
L 136.87314 203.971726 
L 141.741612 204.406959 
L 146.657127 204.627266 
L 154.465642 204.55758 
L 160.430065 204.177897 
L 167.636975 203.359564 
L 174.938096 202.140648 
L 179.799512 201.114737 
L 186.33617 199.467815 
L 192.610962 197.603718 
L 198.684191 195.557178 
L 208.136205 192.304219 
L 209.501121 192.05989 
L 210.420321 192.1383 
L 210.921737 192.502364 
L 211.124232 193.076711 
L 211.120539 193.841138 
L 210.775345 195.489955 
L 209.864259 198.305521 
L 205.300215 211.502169 
L 203.496157 217.702078 
L 202.161937 223.034003 
L 201.125268 227.885866 
L 199.923123 234.933786 
L 199.100984 241.820262 
L 198.550246 251.755833 
L 198.565296 256.480992 
L 198.831094 262.087501 
L 199.377823 267.626576 
L 200.277008 273.388038 
L 201.355611 278.349709 
L 202.694089 283.105313 
L 204.233275 287.475067 
L 206.242446 292.070643 
L 208.350222 295.976662 
L 210.676544 299.504141 
L 212.033468 301.260156 
L 214.268094 303.749794 
L 216.639798 305.920416 
L 218.216622 307.12713 
L 219.831732 308.184982 
L 222.462894 309.551305 
L 224.399478 310.292386 
L 226.306541 310.814144 
L 228.728396 311.189147 
L 230.193999 311.262707 
L 231.660068 311.221369 
L 233.123283 311.065224 
L 234.853444 310.730955 
L 236.569389 310.236124 
L 238.265666 309.58223 
L 240.158473 308.650885 
L 241.809374 307.655351 
L 243.423526 306.50586 
L 244.995872 305.205942 
L 247.334828 302.907855 
L 248.912388 301.080003 
L 250.779882 298.578605 
L 252.859555 295.27544 
L 254.588181 292.006368 
L 256.378081 287.950863 
L 257.955459 283.573454 
L 258.51421 281.769108 
L 260.053655 275.716327 
L 260.951529 270.918198 
L 261.311842 268.469663 
L 261.8571 263.49421 
L 262.172057 258.452809 
L 262.26392 254.316714 
L 262.220006 250.414847 
L 261.565485 240.47493 
L 261.039877 236.09819 
L 260.392255 231.835455 
L 258.992919 224.610944 
L 257.284146 217.631543 
L 255.582717 211.770685 
L 253.286562 204.861091 
L 249.895973 195.002458 
L 249.654705 193.460814 
L 249.748383 192.760114 
L 250.064301 192.304147 
L 250.609298 192.080789 
L 251.541713 192.084209 
L 253.053419 192.406917 
L 255.372461 193.142356 
L 270.009642 198.172613 
L 275.436852 199.732457 
L 280.985341 201.111432 
L 286.074457 202.181741 
L 292.429576 203.254801 
L 298.401093 203.99293 
L 304.535089 204.472099 
L 314.228399 204.625214 
L 320.15528 204.328266 
L 326.001695 203.716222 
L 329.86615 203.121195 
L 332.994779 202.517913 
L 336.05421 201.813566 
L 339.033689 201.008822 
L 341.922675 200.10492 
L 344.5653 199.159335 
L 348.844309 197.349093 
L 352.142894 195.67 
L 354.96452 193.987264 
L 357.348866 192.341296 
L 360.056226 190.14386 
L 362.708479 187.505928 
L 364.779164 184.911371 
L 366.254545 182.556282 
L 367.268229 180.472661 
L 368.041836 178.335893 
L 368.568191 176.145997 
L 368.835811 173.913433 
L 368.869295 172.794198 
L 368.869295 172.794198 
" clip-path="url(#p37bed484d8)" style="fill: none; stroke: #0000ff; stroke-linecap: square"/>
   </g>
   <g id="patch_4">
    <path d="M 230.399656 345.6 
L 230.399656 0 
" style="fill: none; stroke: #000000; stroke-width: 0.8; stroke-linejoin: miter; stroke-linecap: square"/>
   </g>
   <g id="patch_5">
    <path d="M 57.590249 172.794198 
L 403.209751 172.794198 
" style="fill: none; stroke: #000000; stroke-width: 0.8; stroke-linejoin: miter; stroke-linecap: square"/>
   </g>
  </g>
 </g>
 <defs>
  <clipPath id="p37bed484d8">
   <rect x="57.590249" y="0" width="345.619502" height="345.6"/>
  </clipPath>
 </defs>
</svg>
