<?xml version="1.0" encoding="utf-8" standalone="no"?>
<!DOCTYPE svg PUBLIC "-//W3C//DTD SVG 1.1//EN"
  "http://www.w3.org/Graphics/SVG/1.1/DTD/svg11.dtd">
<svg xmlns:xlink="http://www.w3.org/1999/xlink" width="460.8pt" height="345.6pt" viewBox="0 0 460.8 345.6" xmlns="http://www.w3.org/2000/svg" version="1.1">
 <metadata>
  <rdf:RDF xmlns:dc="http://purl.org/dc/elements/1.1/" xmlns:cc="http://creativecommons.org/ns#" xmlns:rdf="http://www.w3.org/1999/02/22-rdf-syntax-ns#">
   <cc:Work>
    <dc:type rdf:resource="http://purl.org/dc/dcmitype/StillImage"/>
    <dc:date>2022-05-16T19:38:59.894385</dc:date>
    <dc:format>image/svg+xml</dc:format>
    <dc:creator>
     <cc:Agent>
      <dc:title>Matplotlib v3.5.1, https://matplotlib.org/</dc:title>
     </cc:Agent>
    </dc:creator>
   </cc:Work>
  </rdf:RDF>
 </metadata>
 <defs>
  <style type="text/css">*{stroke-linejoin: round; stroke-linecap: butt}</style>
 </defs>
 <g id="figure_1">
  <g id="patch_1">
   <path d="M 0 345.6 
L 460.8 345.6 
L 460.8 0 
L 0 0 
z
" style="fill: #ffffff"/>
  </g>
  <g id="axes_1">
   <g id="patch_2">
    <path d="M 57.598836 345.6 
L 403.201164 345.6 
L 403.201164 0 
L 57.598836 0 
z
" style="fill: #ffffff"/>
   </g>
   <g id="matplotlib.axis_1">
    <g id="xtick_1">
     <g id="line2d_1">
      <defs>
       <path id="md2fde61f1e" d="M 0 0 
L 0 3.5 
" style="stroke: #000000; stroke-width: 0.8"/>
      </defs>
      <g>
       <use xlink:href="#md2fde61f1e" x="64.244992" y="172.801139" style="stroke: #000000; stroke-width: 0.8"/>
      </g>
     </g>
     <g id="text_1">
      <!-- −1.0 -->
      <g transform="translate(52.103586 187.399576)scale(0.1 -0.1)">
       <defs>
        <path id="DejaVuSans-2212" d="M 678 2272 
L 4684 2272 
L 4684 1741 
L 678 1741 
L 678 2272 
z
" transform="scale(0.015625)"/>
        <path id="DejaVuSans-31" d="M 794 531 
L 1825 531 
L 1825 4091 
L 703 3866 
L 703 4441 
L 1819 4666 
L 2450 4666 
L 2450 531 
L 3481 531 
L 3481 0 
L 794 0 
L 794 531 
z
" transform="scale(0.015625)"/>
        <path id="DejaVuSans-2e" d="M 684 794 
L 1344 794 
L 1344 0 
L 684 0 
L 684 794 
z
" transform="scale(0.015625)"/>
        <path id="DejaVuSans-30" d="M 2034 4250 
Q 1547 4250 1301 3770 
Q 1056 3291 1056 2328 
Q 1056 1369 1301 889 
Q 1547 409 2034 409 
Q 2525 409 2770 889 
Q 3016 1369 3016 2328 
Q 3016 3291 2770 3770 
Q 2525 4250 2034 4250 
z
M 2034 4750 
Q 2819 4750 3233 4129 
Q 3647 3509 3647 2328 
Q 3647 1150 3233 529 
Q 2819 -91 2034 -91 
Q 1250 -91 836 529 
Q 422 1150 422 2328 
Q 422 3509 836 4129 
Q 1250 4750 2034 4750 
z
" transform="scale(0.015625)"/>
       </defs>
       <use xlink:href="#DejaVuSans-2212"/>
       <use xlink:href="#DejaVuSans-31" x="83.789062"/>
       <use xlink:href="#DejaVuSans-2e" x="147.412109"/>
       <use xlink:href="#DejaVuSans-30" x="179.199219"/>
      </g>
     </g>
    </g>
    <g id="xtick_2">
     <g id="line2d_2">
      <g>
       <use xlink:href="#md2fde61f1e" x="147.322485" y="172.801139" style="stroke: #000000; stroke-width: 0.8"/>
      </g>
     </g>
     <g id="text_2">
      <!-- −0.5 -->
      <g transform="translate(135.181079 187.399576)scale(0.1 -0.1)">
       <defs>
        <path id="DejaVuSans-35" d="M 691 4666 
L 3169 4666 
L 3169 4134 
L 1269 4134 
L 1269 2991 
Q 1406 3038 1543 3061 
Q 1681 3084 1819 3084 
Q 2600 3084 3056 2656 
Q 3513 2228 3513 1497 
Q 3513 744 3044 326 
Q 2575 -91 1722 -91 
Q 1428 -91 1123 -41 
Q 819 9 494 109 
L 494 744 
Q 775 591 1075 516 
Q 1375 441 1709 441 
Q 2250 441 2565 725 
Q 2881 1009 2881 1497 
Q 2881 1984 2565 2268 
Q 2250 2553 1709 2553 
Q 1456 2553 1204 2497 
Q 953 2441 691 2322 
L 691 4666 
z
" transform="scale(0.015625)"/>
       </defs>
       <use xlink:href="#DejaVuSans-2212"/>
       <use xlink:href="#DejaVuSans-30" x="83.789062"/>
       <use xlink:href="#DejaVuSans-2e" x="147.412109"/>
       <use xlink:href="#DejaVuSans-35" x="179.199219"/>
      </g>
     </g>
    </g>
    <g id="xtick_3">
     <g id="line2d_3">
      <g>
       <use xlink:href="#md2fde61f1e" x="230.399978" y="172.801139" style="stroke: #000000; stroke-width: 0.8"/>
      </g>
     </g>
    </g>
    <g id="xtick_4">
     <g id="line2d_4">
      <g>
       <use xlink:href="#md2fde61f1e" x="313.477472" y="172.801139" style="stroke: #000000; stroke-width: 0.8"/>
      </g>
     </g>
     <g id="text_3">
      <!-- 0.5 -->
      <g transform="translate(305.525909 187.399576)scale(0.1 -0.1)">
       <use xlink:href="#DejaVuSans-30"/>
       <use xlink:href="#DejaVuSans-2e" x="63.623047"/>
       <use xlink:href="#DejaVuSans-35" x="95.410156"/>
      </g>
     </g>
    </g>
    <g id="xtick_5">
     <g id="line2d_5">
      <g>
       <use xlink:href="#md2fde61f1e" x="396.554965" y="172.801139" style="stroke: #000000; stroke-width: 0.8"/>
      </g>
     </g>
     <g id="text_4">
      <!-- 1.0 -->
      <g transform="translate(388.603403 187.399576)scale(0.1 -0.1)">
       <use xlink:href="#DejaVuSans-31"/>
       <use xlink:href="#DejaVuSans-2e" x="63.623047"/>
       <use xlink:href="#DejaVuSans-30" x="95.410156"/>
      </g>
     </g>
    </g>
    <g id="xtick_6">
     <g id="line2d_6">
      <defs>
       <path id="m3ed740cf1b" d="M 0 0 
L 0 2 
" style="stroke: #000000; stroke-width: 0.6"/>
      </defs>
      <g>
       <use xlink:href="#m3ed740cf1b" x="80.86049" y="172.801139" style="stroke: #000000; stroke-width: 0.6"/>
      </g>
     </g>
    </g>
    <g id="xtick_7">
     <g id="line2d_7">
      <g>
       <use xlink:href="#m3ed740cf1b" x="97.475989" y="172.801139" style="stroke: #000000; stroke-width: 0.6"/>
      </g>
     </g>
    </g>
    <g id="xtick_8">
     <g id="line2d_8">
      <g>
       <use xlink:href="#m3ed740cf1b" x="114.091488" y="172.801139" style="stroke: #000000; stroke-width: 0.6"/>
      </g>
     </g>
    </g>
    <g id="xtick_9">
     <g id="line2d_9">
      <g>
       <use xlink:href="#m3ed740cf1b" x="130.706986" y="172.801139" style="stroke: #000000; stroke-width: 0.6"/>
      </g>
     </g>
    </g>
    <g id="xtick_10">
     <g id="line2d_10">
      <g>
       <use xlink:href="#m3ed740cf1b" x="163.937984" y="172.801139" style="stroke: #000000; stroke-width: 0.6"/>
      </g>
     </g>
    </g>
    <g id="xtick_11">
     <g id="line2d_11">
      <g>
       <use xlink:href="#m3ed740cf1b" x="180.553482" y="172.801139" style="stroke: #000000; stroke-width: 0.6"/>
      </g>
     </g>
    </g>
    <g id="xtick_12">
     <g id="line2d_12">
      <g>
       <use xlink:href="#m3ed740cf1b" x="197.168981" y="172.801139" style="stroke: #000000; stroke-width: 0.6"/>
      </g>
     </g>
    </g>
    <g id="xtick_13">
     <g id="line2d_13">
      <g>
       <use xlink:href="#m3ed740cf1b" x="213.78448" y="172.801139" style="stroke: #000000; stroke-width: 0.6"/>
      </g>
     </g>
    </g>
    <g id="xtick_14">
     <g id="line2d_14">
      <g>
       <use xlink:href="#m3ed740cf1b" x="247.015477" y="172.801139" style="stroke: #000000; stroke-width: 0.6"/>
      </g>
     </g>
    </g>
    <g id="xtick_15">
     <g id="line2d_15">
      <g>
       <use xlink:href="#m3ed740cf1b" x="263.630976" y="172.801139" style="stroke: #000000; stroke-width: 0.6"/>
      </g>
     </g>
    </g>
    <g id="xtick_16">
     <g id="line2d_16">
      <g>
       <use xlink:href="#m3ed740cf1b" x="280.246474" y="172.801139" style="stroke: #000000; stroke-width: 0.6"/>
      </g>
     </g>
    </g>
    <g id="xtick_17">
     <g id="line2d_17">
      <g>
       <use xlink:href="#m3ed740cf1b" x="296.861973" y="172.801139" style="stroke: #000000; stroke-width: 0.6"/>
      </g>
     </g>
    </g>
    <g id="xtick_18">
     <g id="line2d_18">
      <g>
       <use xlink:href="#m3ed740cf1b" x="330.09297" y="172.801139" style="stroke: #000000; stroke-width: 0.6"/>
      </g>
     </g>
    </g>
    <g id="xtick_19">
     <g id="line2d_19">
      <g>
       <use xlink:href="#m3ed740cf1b" x="346.708469" y="172.801139" style="stroke: #000000; stroke-width: 0.6"/>
      </g>
     </g>
    </g>
    <g id="xtick_20">
     <g id="line2d_20">
      <g>
       <use xlink:href="#m3ed740cf1b" x="363.323968" y="172.801139" style="stroke: #000000; stroke-width: 0.6"/>
      </g>
     </g>
    </g>
    <g id="xtick_21">
     <g id="line2d_21">
      <g>
       <use xlink:href="#m3ed740cf1b" x="379.939466" y="172.801139" style="stroke: #000000; stroke-width: 0.6"/>
      </g>
     </g>
    </g>
   </g>
   <g id="matplotlib.axis_2">
    <g id="ytick_1">
     <g id="line2d_22">
      <defs>
       <path id="m0edd77197e" d="M 0 0 
L -3.5 0 
" style="stroke: #000000; stroke-width: 0.8"/>
      </defs>
      <g>
       <use xlink:href="#m0edd77197e" x="230.399978" y="338.956125" style="stroke: #000000; stroke-width: 0.8"/>
      </g>
     </g>
     <g id="text_5">
      <!-- −1.0 -->
      <g transform="translate(199.117166 342.755344)scale(0.1 -0.1)">
       <use xlink:href="#DejaVuSans-2212"/>
       <use xlink:href="#DejaVuSans-31" x="83.789062"/>
       <use xlink:href="#DejaVuSans-2e" x="147.412109"/>
       <use xlink:href="#DejaVuSans-30" x="179.199219"/>
      </g>
     </g>
    </g>
    <g id="ytick_2">
     <g id="line2d_23">
      <g>
       <use xlink:href="#m0edd77197e" x="230.399978" y="255.878632" style="stroke: #000000; stroke-width: 0.8"/>
      </g>
     </g>
     <g id="text_6">
      <!-- −0.5 -->
      <g transform="translate(199.117166 259.677851)scale(0.1 -0.1)">
       <use xlink:href="#DejaVuSans-2212"/>
       <use xlink:href="#DejaVuSans-30" x="83.789062"/>
       <use xlink:href="#DejaVuSans-2e" x="147.412109"/>
       <use xlink:href="#DejaVuSans-35" x="179.199219"/>
      </g>
     </g>
    </g>
    <g id="ytick_3">
     <g id="line2d_24">
      <g>
       <use xlink:href="#m0edd77197e" x="230.399978" y="172.801139" style="stroke: #000000; stroke-width: 0.8"/>
      </g>
     </g>
    </g>
    <g id="ytick_4">
     <g id="line2d_25">
      <g>
       <use xlink:href="#m0edd77197e" x="230.399978" y="89.723645" style="stroke: #000000; stroke-width: 0.8"/>
      </g>
     </g>
     <g id="text_7">
      <!-- 0.5 -->
      <g transform="translate(207.496853 93.522864)scale(0.1 -0.1)">
       <use xlink:href="#DejaVuSans-30"/>
       <use xlink:href="#DejaVuSans-2e" x="63.623047"/>
       <use xlink:href="#DejaVuSans-35" x="95.410156"/>
      </g>
     </g>
    </g>
    <g id="ytick_5">
     <g id="line2d_26">
      <g>
       <use xlink:href="#m0edd77197e" x="230.399978" y="6.646152" style="stroke: #000000; stroke-width: 0.8"/>
      </g>
     </g>
     <g id="text_8">
      <!-- 1.0 -->
      <g transform="translate(207.496853 10.445371)scale(0.1 -0.1)">
       <use xlink:href="#DejaVuSans-31"/>
       <use xlink:href="#DejaVuSans-2e" x="63.623047"/>
       <use xlink:href="#DejaVuSans-30" x="95.410156"/>
      </g>
     </g>
    </g>
    <g id="ytick_6">
     <g id="line2d_27">
      <defs>
       <path id="mc1b464b9c2" d="M 0 0 
L -2 0 
" style="stroke: #000000; stroke-width: 0.6"/>
      </defs>
      <g>
       <use xlink:href="#mc1b464b9c2" x="230.399978" y="322.340627" style="stroke: #000000; stroke-width: 0.6"/>
      </g>
     </g>
    </g>
    <g id="ytick_7">
     <g id="line2d_28">
      <g>
       <use xlink:href="#mc1b464b9c2" x="230.399978" y="305.725128" style="stroke: #000000; stroke-width: 0.6"/>
      </g>
     </g>
    </g>
    <g id="ytick_8">
     <g id="line2d_29">
      <g>
       <use xlink:href="#mc1b464b9c2" x="230.399978" y="289.109629" style="stroke: #000000; stroke-width: 0.6"/>
      </g>
     </g>
    </g>
    <g id="ytick_9">
     <g id="line2d_30">
      <g>
       <use xlink:href="#mc1b464b9c2" x="230.399978" y="272.494131" style="stroke: #000000; stroke-width: 0.6"/>
      </g>
     </g>
    </g>
    <g id="ytick_10">
     <g id="line2d_31">
      <g>
       <use xlink:href="#mc1b464b9c2" x="230.399978" y="239.263133" style="stroke: #000000; stroke-width: 0.6"/>
      </g>
     </g>
    </g>
    <g id="ytick_11">
     <g id="line2d_32">
      <g>
       <use xlink:href="#mc1b464b9c2" x="230.399978" y="222.647635" style="stroke: #000000; stroke-width: 0.6"/>
      </g>
     </g>
    </g>
    <g id="ytick_12">
     <g id="line2d_33">
      <g>
       <use xlink:href="#mc1b464b9c2" x="230.399978" y="206.032136" style="stroke: #000000; stroke-width: 0.6"/>
      </g>
     </g>
    </g>
    <g id="ytick_13">
     <g id="line2d_34">
      <g>
       <use xlink:href="#mc1b464b9c2" x="230.399978" y="189.416637" style="stroke: #000000; stroke-width: 0.6"/>
      </g>
     </g>
    </g>
    <g id="ytick_14">
     <g id="line2d_35">
      <g>
       <use xlink:href="#mc1b464b9c2" x="230.399978" y="156.18564" style="stroke: #000000; stroke-width: 0.6"/>
      </g>
     </g>
    </g>
    <g id="ytick_15">
     <g id="line2d_36">
      <g>
       <use xlink:href="#mc1b464b9c2" x="230.399978" y="139.570141" style="stroke: #000000; stroke-width: 0.6"/>
      </g>
     </g>
    </g>
    <g id="ytick_16">
     <g id="line2d_37">
      <g>
       <use xlink:href="#mc1b464b9c2" x="230.399978" y="122.954643" style="stroke: #000000; stroke-width: 0.6"/>
      </g>
     </g>
    </g>
    <g id="ytick_17">
     <g id="line2d_38">
      <g>
       <use xlink:href="#mc1b464b9c2" x="230.399978" y="106.339144" style="stroke: #000000; stroke-width: 0.6"/>
      </g>
     </g>
    </g>
    <g id="ytick_18">
     <g id="line2d_39">
      <g>
       <use xlink:href="#mc1b464b9c2" x="230.399978" y="73.108147" style="stroke: #000000; stroke-width: 0.6"/>
      </g>
     </g>
    </g>
    <g id="ytick_19">
     <g id="line2d_40">
      <g>
       <use xlink:href="#mc1b464b9c2" x="230.399978" y="56.492648" style="stroke: #000000; stroke-width: 0.6"/>
      </g>
     </g>
    </g>
    <g id="ytick_20">
     <g id="line2d_41">
      <g>
       <use xlink:href="#mc1b464b9c2" x="230.399978" y="39.877149" style="stroke: #000000; stroke-width: 0.6"/>
      </g>
     </g>
    </g>
    <g id="ytick_21">
     <g id="line2d_42">
      <g>
       <use xlink:href="#mc1b464b9c2" x="230.399978" y="23.261651" style="stroke: #000000; stroke-width: 0.6"/>
      </g>
     </g>
    </g>
   </g>
   <g id="line2d_43">
    <path d="M 396.554965 172.801139 
L 396.516373 169.220203 
L 396.355302 164.658035 
L 395.83149 157.312606 
L 395.200867 151.631663 
L 394.559208 147.125726 
L 393.565779 141.42597 
L 392.333044 135.583376 
L 390.861979 129.680075 
L 388.931245 123.04858 
L 387.128898 117.632984 
L 384.191329 109.906782 
L 381.433345 103.545078 
L 378.7448 97.95935 
L 375.487082 91.824525 
L 371.38881 84.882831 
L 368.705628 80.719507 
L 364.294206 74.415085 
L 360.979696 70.056713 
L 355.366088 63.297938 
L 347.881041 55.303567 
L 340.678544 48.518728 
L 335.078715 43.766873 
L 329.615777 39.520589 
L 324.578639 35.914837 
L 315.832009 30.292024 
L 310.552905 27.257372 
L 302.621133 23.16296 
L 296.439092 20.333716 
L 292.792726 18.805604 
L 286.308427 16.334768 
L 278.333044 13.710282 
L 272.77142 12.139567 
L 266.112889 10.529553 
L 257.931689 8.943015 
L 249.570676 7.7558 
L 245.020965 7.290697 
L 239.36935 6.888421 
L 235.051291 6.711269 
L 230.42501 6.646154 
L 225.021473 6.733227 
L 219.8058 6.984243 
L 210.266755 7.870447 
L 201.265351 9.220415 
L 197.242849 9.988104 
L 192.523425 11.020898 
L 184.703865 13.053385 
L 177.252699 15.375454 
L 167.634275 18.957237 
L 164.082161 20.454735 
L 158.818557 22.855883 
L 154.73527 24.874361 
L 146.310779 29.49557 
L 137.076536 35.330361 
L 133.044201 38.15593 
L 127.876645 42.047761 
L 122.137874 46.758303 
L 117.675264 50.73305 
L 114.437484 53.804587 
L 110.881303 57.376852 
L 106.804537 61.753192 
L 100.980936 68.598495 
L 97.459444 73.13021 
L 94.439391 77.290938 
L 91.971343 80.904499 
L 86.985952 88.897047 
L 84.142491 93.958086 
L 79.891099 102.412525 
L 75.869791 111.744602 
L 73.534752 118.021761 
L 71.652484 123.74288 
L 69.114243 132.87131 
L 68.258766 136.500906 
L 66.694319 144.376912 
L 65.743072 150.539454 
L 64.720689 160.237194 
L 64.298949 168.567054 
L 64.245035 172.920706 
L 64.419451 180.413236 
L 65.045942 189.095987 
L 65.607269 194.034188 
L 66.291232 198.797271 
L 67.73227 206.664039 
L 69.244097 213.251869 
L 70.724894 218.750536 
L 72.199745 223.596469 
L 74.441109 230.110045 
L 76.111814 234.466704 
L 78.896069 241.021701 
L 81.318857 246.16529 
L 83.141635 249.758659 
L 85.741621 254.541209 
L 89.867754 261.447478 
L 94.886249 268.944306 
L 99.519245 275.16184 
L 103.02329 279.490683 
L 107.064623 284.137879 
L 113.266737 290.645457 
L 118.877593 295.968655 
L 126.385186 302.371206 
L 129.267586 304.6333 
L 134.318996 308.358965 
L 142.313187 313.684767 
L 146.750229 316.363665 
L 151.408783 318.97867 
L 155.977988 321.35701 
L 161.798372 324.132891 
L 168.540073 327.011487 
L 176.234267 329.879321 
L 185.079278 332.655803 
L 190.764529 334.159469 
L 196.249676 335.408754 
L 205.296598 337.048817 
L 211.587166 337.887654 
L 219.79481 338.617332 
L 223.669468 338.819752 
L 234.440952 338.906979 
L 237.908811 338.78637 
L 245.143636 338.300698 
L 248.970645 337.915069 
L 254.350391 337.220898 
L 264.053763 335.51224 
L 272.089564 333.640991 
L 279.482205 331.541224 
L 286.407542 329.232058 
L 291.463984 327.328375 
L 299.818912 323.759713 
L 305.379484 321.076401 
L 314.68535 315.991417 
L 318.786303 313.497042 
L 326.093377 308.632847 
L 335.917115 301.150714 
L 340.674919 297.086766 
L 346.346629 291.813128 
L 353.38707 284.522466 
L 360.460538 276.201963 
L 364.609194 270.757078 
L 369.37384 263.871142 
L 372.082645 259.596885 
L 374.828691 254.946295 
L 377.035332 250.939176 
L 379.130824 246.872829 
L 381.063124 242.858944 
L 384.372117 235.2516 
L 386.218987 230.489233 
L 387.592334 226.634613 
L 389.28627 221.40799 
L 390.616539 216.825373 
L 391.80781 212.234517 
L 392.867564 207.611531 
L 394.138233 201.036996 
L 394.962587 195.749503 
L 395.546537 191.079368 
L 396.269609 182.534858 
L 396.478475 177.842231 
L 396.554965 172.801139 
L 396.554965 172.801139 
" clip-path="url(#p27909fb3eb)" style="fill: none; stroke: #0000ff; stroke-linecap: square"/>
   </g>
   <g id="patch_3">
    <path d="M 230.399978 345.6 
L 230.399978 0 
" style="fill: none; stroke: #000000; stroke-width: 0.8; stroke-linejoin: miter; stroke-linecap: square"/>
   </g>
   <g id="patch_4">
    <path d="M 57.598836 172.801139 
L 403.201164 172.801139 
" style="fill: none; stroke: #000000; stroke-width: 0.8; stroke-linejoin: miter; stroke-linecap: square"/>
   </g>
  </g>
 </g>
 <defs>
  <clipPath id="p27909fb3eb">
   <rect x="57.598836" y="0" width="345.602328" height="345.6"/>
  </clipPath>
 </defs>
</svg>
