<?xml version="1.0" encoding="utf-8" standalone="no"?>
<!DOCTYPE svg PUBLIC "-//W3C//DTD SVG 1.1//EN"
  "http://www.w3.org/Graphics/SVG/1.1/DTD/svg11.dtd">
<svg xmlns:xlink="http://www.w3.org/1999/xlink" width="460.8pt" height="345.6pt" viewBox="0 0 460.8 345.6" xmlns="http://www.w3.org/2000/svg" version="1.1">
 <metadata>
  <rdf:RDF xmlns:dc="http://purl.org/dc/elements/1.1/" xmlns:cc="http://creativecommons.org/ns#" xmlns:rdf="http://www.w3.org/1999/02/22-rdf-syntax-ns#">
   <cc:Work>
    <dc:type rdf:resource="http://purl.org/dc/dcmitype/StillImage"/>
    <dc:date>2022-09-21T15:21:38.294602</dc:date>
    <dc:format>image/svg+xml</dc:format>
    <dc:creator>
     <cc:Agent>
      <dc:title>Matplotlib v3.5.2, https://matplotlib.org/</dc:title>
     </cc:Agent>
    </dc:creator>
   </cc:Work>
  </rdf:RDF>
 </metadata>
 <defs>
  <style type="text/css">*{stroke-linejoin: round; stroke-linecap: butt}</style>
 </defs>
 <g id="figure_1">
  <g id="patch_1">
   <path d="M 0 345.6 
L 460.8 345.6 
L 460.8 0 
L 0 0 
z
" style="fill: #ffffff"/>
  </g>
  <g id="axes_1">
   <g id="patch_2">
    <path d="M 57.590645 345.6 
L 403.209355 345.6 
L 403.209355 0 
L 57.590645 0 
z
" style="fill: #ffffff"/>
   </g>
   <g id="patch_3">
    <path d="M 396.562841 172.794351 
L 396.517852 174.813411 
L 396.382993 176.829789 
L 396.20338 178.496695 
L 395.962572 180.158416 
L 395.660968 181.813455 
L 395.299063 183.460336 
L 394.503983 186.378846 
L 393.522407 189.258575 
L 392.343548 192.127424 
L 391.579073 193.762263 
L 390.755792 195.377167 
L 389.875165 196.970791 
L 388.938746 198.541855 
L 387.468792 200.801418 
L 385.888052 203.006375 
L 384.014263 205.381972 
L 382.609982 207.023888 
L 381.148241 208.626896 
L 379.632345 210.189967 
L 378.065695 211.712227 
L 375.520446 214.010941 
L 372.431873 216.554872 
L 369.227318 218.957441 
L 366.689299 220.715154 
L 359.212706 225.293072 
L 357.601417 226.181935 
L 352.965366 228.583349 
L 348.350082 230.78106 
L 346.953622 231.414861 
L 342.832445 233.21813 
L 340.770417 234.090214 
L 338.738356 234.93555 
L 336.739898 235.757682 
L 334.778413 236.56028 
L 333.097827 237.248287 
L 331.449692 237.926836 
L 329.238322 238.849734 
L 327.095479 239.766543 
L 325.168078 240.619284 
L 323.304776 241.478302 
L 321.226262 242.48963 
L 319.237692 243.525294 
L 318.335247 244.02233 
L 317.26592 244.636974 
L 316.22603 245.264924 
L 315.215407 245.907606 
L 314.233786 246.566403 
L 312.859284 247.554435 
L 311.543738 248.583145 
L 310.649213 249.336148 
L 309.782449 250.11246 
L 308.942607 250.913208 
L 308.128762 251.73944 
L 306.830664 253.171868 
L 305.723997 254.518102 
L 304.664436 255.928272 
L 303.839886 257.115496 
L 303.040805 258.346457 
L 302.264643 259.621716 
L 301.508749 260.941622 
L 300.93235 262.000562 
L 300.365255 263.086636 
L 299.766629 264.279884 
L 299.175435 265.503891 
L 298.405883 267.160922 
L 297.642298 268.86953 
L 296.880709 270.628315 
L 296.117135 272.435561 
L 294.915533 275.33958 
L 293.889714 277.845774 
L 292.8351 280.4178 
L 291.614204 283.35709 
L 290.451216 286.092756 
L 289.233132 288.871045 
L 287.912928 291.7675 
L 286.519216 294.687288 
L 283.647552 300.251844 
L 280.727578 305.316878 
L 277.377331 310.466445 
L 275.583417 312.9633 
L 273.290617 315.915717 
L 270.540481 319.133883 
L 267.63444 322.187285 
L 264.699913 324.942267 
L 263.182114 326.247324 
L 261.63183 327.500669 
L 259.423142 329.153612 
L 257.156771 330.695406 
L 255.188051 331.913843 
L 253.182588 333.044301 
L 250.932973 334.184409 
L 248.64546 335.209894 
L 247.157778 335.806528 
L 245.657107 336.353544 
L 242.758187 337.257821 
L 239.823808 337.973482 
L 237.682886 338.371569 
L 235.530894 338.6678 
L 232.6288 338.904005 
L 229.72056 338.953846 
L 227.66006 338.876151 
L 225.603349 338.704897 
L 223.553262 338.440511 
L 221.512607 338.083654 
L 218.887875 337.485438 
L 216.289497 336.736092 
L 214.032895 335.95548 
L 211.804772 335.063123 
L 209.030345 333.777592 
L 206.314146 332.324129 
L 204.518478 331.252805 
L 202.797845 330.140379 
L 201.108433 328.963297 
L 198.727626 327.155245 
L 196.418798 325.225883 
L 194.479113 323.46269 
L 192.597831 321.62067 
L 190.190681 319.0612 
L 187.891816 316.387793 
L 185.760029 313.691097 
L 183.732449 310.914841 
L 180.29552 305.686457 
L 177.146385 300.247039 
L 176.562455 299.163851 
L 173.064968 292.155525 
L 171.814712 289.431874 
L 170.624103 286.73698 
L 169.584594 284.311468 
L 168.661606 282.110372 
L 167.767411 279.946097 
L 166.897518 277.822973 
L 166.047289 275.744969 
L 165.067065 273.366062 
L 164.214526 271.330646 
L 163.366376 269.354343 
L 162.763635 267.987984 
L 162.158373 266.653476 
L 161.57204 265.400602 
L 160.979832 264.178219 
L 160.380036 262.986667 
L 159.770963 261.826177 
L 159.135809 260.669953 
L 158.48743 259.546458 
L 157.736123 258.315238 
L 156.963329 257.125419 
L 156.166743 255.976494 
L 155.344161 254.867772 
L 154.39391 253.678057 
L 153.580407 252.73083 
L 152.739757 251.81504 
L 151.870616 250.929616 
L 150.971748 250.073379 
L 150.180145 249.36466 
L 149.36542 248.675412 
L 148.526996 248.004727 
L 147.66436 247.351647 
L 146.185318 246.308786 
L 145.102247 245.598821 
L 143.984591 244.907205 
L 142.832071 244.23212 
L 141.644539 243.571692 
L 140.417985 242.921926 
L 139.156299 242.282984 
L 137.250102 241.36461 
L 135.270812 240.45859 
L 133.951094 239.875449 
L 132.602215 239.292979 
L 129.820209 238.122925 
L 127.03978 236.978251 
L 124.715949 236.02769 
L 122.337807 235.051021 
L 119.780494 233.987167 
L 117.176439 232.880284 
L 113.9251 231.451757 
L 110.630926 229.936614 
L 106.933087 228.134748 
L 101.900396 225.470111 
L 96.765243 222.436876 
L 93.79039 220.502073 
L 90.877412 218.457064 
L 90.772453 218.380307 
L 88.536931 216.689759 
L 86.357603 214.929953 
L 84.242083 213.101194 
L 82.197862 211.204234 
L 81.801996 210.820442 
L 80.315445 209.326461 
L 78.878085 207.79479 
L 77.492939 206.226293 
L 76.162943 204.621973 
L 74.038687 201.818752 
L 72.628019 199.754103 
L 71.314317 197.644141 
L 70.101816 195.49178 
L 68.994443 193.300168 
L 68.155658 191.448833 
L 67.394079 189.574682 
L 66.42813 186.813772 
L 65.89606 185.013962 
L 65.436321 183.200716 
L 65.049839 181.375974 
L 64.737392 179.541716 
L 64.533122 177.999442 
L 64.381528 176.453099 
L 64.282827 174.903889 
L 64.237159 173.353026 
L 64.243402 171.857356 
L 64.338372 169.715339 
L 64.534429 167.577927 
L 64.831041 165.448303 
L 65.227407 163.329612 
L 65.866875 160.681523 
L 66.66013 158.061733 
L 67.714785 155.198519 
L 68.385725 153.612531 
L 69.112051 152.043448 
L 69.892577 150.492512 
L 70.726031 148.960914 
L 71.785081 147.16484 
L 72.909724 145.407148 
L 74.101841 143.681684 
L 75.358752 141.99 
L 76.677644 140.333516 
L 78.88562 137.785638 
L 81.229419 135.333568 
L 82.936198 133.683372 
L 85.312912 131.545955 
L 87.778063 129.498466 
L 91.449925 126.716876 
L 95.24658 124.121515 
L 100.039987 121.176863 
L 103.56408 119.207442 
L 109.008422 116.428293 
L 114.213811 114.007635 
L 116.488283 113.006004 
L 118.735693 112.042283 
L 121.973458 110.688183 
L 124.806655 109.523891 
L 127.562686 108.396207 
L 130.211853 107.303002 
L 131.708279 106.675613 
L 133.172761 106.050831 
L 134.604254 105.426466 
L 136.001856 104.800325 
L 138.13144 103.805817 
L 140.172983 102.79304 
L 141.34847 102.17668 
L 142.491997 101.549135 
L 144.232447 100.53144 
L 145.537242 99.709735 
L 146.794197 98.861559 
L 148.004084 97.984093 
L 149.167918 97.074662 
L 150.532166 95.91385 
L 151.832006 94.697064 
L 152.85272 93.654123 
L 153.834267 92.568978 
L 155.010475 91.149425 
L 156.133617 89.658347 
L 156.816614 88.680675 
L 157.481937 87.673234 
L 158.131007 86.635676 
L 158.765297 85.567753 
L 159.6513 83.984578 
L 160.51468 82.338717 
L 161.203867 80.953302 
L 161.883812 79.527006 
L 162.4983 78.190641 
L 163.109322 76.821339 
L 163.847676 75.11977 
L 164.58756 73.372495 
L 165.287941 71.689375 
L 165.99586 69.969183 
L 166.714271 68.213867 
L 167.446078 66.425575 
L 167.955275 65.185912 
L 168.995845 62.676766 
L 170.076844 60.120871 
L 171.526248 56.800999 
L 173.064705 53.433737 
L 175.193443 49.060691 
L 176.676334 46.2117 
L 182.180441 36.949397 
L 185.284815 32.529149 
L 187.330562 29.889836 
L 189.94342 26.803963 
L 192.698799 23.865741 
L 193.402161 23.164087 
L 195.015717 21.624758 
L 196.670954 20.143337 
L 198.366713 18.723349 
L 200.101663 17.368201 
L 202.056598 15.954238 
L 204.055065 14.627105 
L 206.945562 12.909019 
L 208.419176 12.121023 
L 209.910362 11.381986 
L 212.763722 10.126494 
L 215.66817 9.055365 
L 217.695334 8.427555 
L 219.740289 7.891659 
L 221.734042 7.461772 
L 223.739275 7.120324 
L 226.455055 6.801502 
L 229.180383 6.646154 
L 231.894398 6.654487 
L 233.745633 6.753495 
L 235.593126 6.928015 
L 237.434823 7.177694 
L 239.268688 7.502028 
L 240.753388 7.820499 
L 242.230508 8.187522 
L 245.157828 9.065201 
L 247.408496 9.878904 
L 249.629587 10.803749 
L 251.760115 11.808067 
L 253.856152 12.911879 
L 256.116167 14.235591 
L 258.32738 15.670632 
L 260.045735 16.885658 
L 261.729718 18.164854 
L 263.423794 19.543932 
L 265.078718 20.984566 
L 266.693296 22.483386 
L 268.266499 24.036915 
L 270.702441 26.635162 
L 273.027073 29.349819 
L 276.032376 33.234319 
L 278.993377 37.523346 
L 281.437387 41.450995 
L 283.304078 44.711018 
L 286.951392 51.79141 
L 288.512411 55.121004 
L 289.981537 58.413307 
L 290.922902 60.596569 
L 292.320147 63.924393 
L 293.653775 67.166164 
L 294.456714 69.129335 
L 295.245073 71.050694 
L 296.00244 72.878613 
L 296.753487 74.662013 
L 297.52927 76.46135 
L 298.16975 77.905861 
L 298.813575 79.314278 
L 299.463087 80.685889 
L 300.120609 82.020143 
L 300.91716 83.559617 
L 301.732115 85.045215 
L 302.83042 86.90446 
L 303.974369 88.672465 
L 304.602212 89.573665 
L 305.24609 90.449982 
L 305.883688 91.272533 
L 306.538064 92.072716 
L 307.210063 92.851013 
L 307.900484 93.607964 
L 308.621123 94.355295 
L 309.362275 95.081903 
L 310.124631 95.788515 
L 310.908825 96.475909 
L 311.771571 97.190122 
L 312.660547 97.884401 
L 313.576309 98.559867 
L 314.519334 99.217697 
L 315.813963 100.065818 
L 317.158017 100.888021 
L 318.897007 101.877949 
L 320.422305 102.689395 
L 322.002188 103.484129 
L 323.636113 104.266084 
L 325.323202 105.039262 
L 326.279141 105.464793 
L 328.693333 106.508311 
L 331.197497 107.557472 
L 332.866547 108.245504 
L 334.569334 108.942921 
L 336.303908 109.652419 
L 338.068144 110.376645 
L 340.264796 111.287014 
L 343.512653 112.662154 
L 348.134148 114.708782 
L 352.828717 116.937741 
L 353.662896 117.353118 
L 358.575521 119.940485 
L 364.164765 123.235597 
L 368.800635 126.327358 
L 372.137084 128.803401 
L 375.350957 131.431598 
L 377.538659 133.383677 
L 379.643931 135.41033 
L 381.104308 136.915147 
L 383.419096 139.497683 
L 385.582021 142.178146 
L 387.18002 144.368662 
L 388.668701 146.614216 
L 390.05332 148.930477 
L 391.31585 151.295285 
L 392.429233 153.654126 
L 393.416743 156.051285 
L 394.230597 158.346761 
L 394.926145 160.668532 
L 395.623538 163.590922 
L 396.130199 166.539658 
L 396.319274 168.098954 
L 396.454524 169.661999 
L 396.535752 171.227548 
L 396.562841 172.794351 
L 368.868748 172.794351 
L 368.835133 171.672926 
L 368.73433 170.552987 
L 368.50181 169.095441 
L 368.155478 167.646243 
L 367.696075 166.208651 
L 367.124584 164.785888 
L 366.423648 163.346053 
L 365.607774 161.928495 
L 364.678794 160.536498 
L 363.638789 159.173258 
L 362.6115 157.975398 
L 361.4983 156.805436 
L 360.301194 155.665471 
L 359.022338 154.55752 
L 357.761376 153.557346 
L 356.433619 152.588026 
L 355.148392 151.72051 
L 353.809523 150.881627 
L 352.418775 150.072374 
L 350.977978 149.293689 
L 348.376427 148.022946 
L 345.641312 146.850074 
L 343.872345 146.169621 
L 342.058201 145.529323 
L 339.151863 144.614269 
L 336.153243 143.799798 
L 333.073113 143.087202 
L 329.922464 142.477177 
L 327.215163 142.042003 
L 322.607353 141.476545 
L 317.93203 141.112127 
L 312.806874 140.937372 
L 307.680717 140.983432 
L 305.562623 141.064275 
L 300.903514 141.365229 
L 296.321369 141.82236 
L 291.728451 142.43734 
L 288.534618 142.956186 
L 285.422638 143.533072 
L 282.402087 144.159995 
L 279.481956 144.828555 
L 276.91506 145.466761 
L 274.596801 146.083544 
L 272.367511 146.712505 
L 270.231258 147.347739 
L 268.191716 147.983244 
L 266.89952 148.400103 
L 265.651779 148.812675 
L 264.282104 149.27636 
L 262.972424 149.729517 
L 261.723617 150.169511 
L 260.536421 150.593721 
L 259.554384 150.947828 
L 258.619722 151.286315 
L 257.73004 151.60844 
L 256.888405 151.911462 
L 256.094886 152.193715 
L 255.349474 152.453557 
L 254.31743 152.79904 
L 253.393632 153.08465 
L 252.577038 153.305181 
L 251.86621 153.455622 
L 251.477592 153.511613 
L 251.128482 153.537681 
L 250.656106 153.515329 
L 250.278407 153.411698 
L 249.992574 153.223073 
L 249.795492 152.946017 
L 249.708908 152.699314 
L 249.662439 152.40727 
L 249.654793 152.068986 
L 249.684616 151.683639 
L 249.736272 151.330675 
L 249.811538 150.944954 
L 249.909574 150.52614 
L 250.029521 150.073931 
L 250.241524 149.355247 
L 250.435673 148.745815 
L 250.653793 148.092487 
L 250.894499 147.395091 
L 251.156377 146.653523 
L 251.437991 145.867745 
L 251.737883 145.037789 
L 252.054577 144.16375 
L 252.386578 143.245796 
L 252.725439 142.303537 
L 253.07613 141.319586 
L 253.437214 140.294288 
L 253.807244 139.228053 
L 254.178878 138.138787 
L 254.556394 137.010807 
L 254.938409 135.84468 
L 255.323542 134.64103 
L 256.018618 132.387531 
L 256.76133 129.843666 
L 257.491796 127.174392 
L 258.139099 124.637411 
L 258.761435 122.007626 
L 259.352052 119.291221 
L 259.90443 116.494824 
L 260.358357 113.947146 
L 261.145552 108.688499 
L 261.74338 103.264035 
L 261.923282 101.056426 
L 262.25544 93.295344 
L 262.171078 87.140448 
L 261.759006 81.024211 
L 261.496721 78.584581 
L 260.915926 74.456473 
L 260.168254 70.418172 
L 259.573402 67.772509 
L 258.903833 65.184572 
L 258.160243 62.661152 
L 257.343637 60.208905 
L 256.745358 58.58027 
L 256.114208 56.9898 
L 255.305496 55.115009 
L 254.450403 53.30269 
L 253.550193 51.556174 
L 252.606261 49.878682 
L 251.549752 48.164028 
L 250.446954 46.53556 
L 249.30003 44.996744 
L 248.111289 43.550863 
L 247.285985 42.62847 
L 246.443504 41.750785 
L 245.584657 40.918668 
L 244.71028 40.132933 
L 243.742566 39.331831 
L 242.758629 38.587448 
L 241.759633 37.900649 
L 240.746766 37.272235 
L 239.732014 36.708575 
L 238.706067 36.203446 
L 237.668569 35.756798 
L 236.6223 35.369948 
L 235.568515 35.043341 
L 234.508479 34.777351 
L 233.642057 34.605834 
L 232.773035 34.474799 
L 231.902108 34.384346 
L 231.029975 34.334545 
L 230.097221 34.326303 
L 229.164744 34.364556 
L 228.233397 34.44927 
L 227.304034 34.580372 
L 226.377504 34.757747 
L 225.454656 34.981243 
L 224.536331 35.250663 
L 223.623365 35.565775 
L 222.011804 36.239929 
L 220.424534 37.056522 
L 219.345343 37.702184 
L 218.281347 38.413815 
L 217.233975 39.190483 
L 216.204622 40.031172 
L 215.15318 40.973618 
L 214.124252 41.98298 
L 213.119281 43.05783 
L 212.13966 44.196649 
L 211.295636 45.255639 
L 210.473369 46.362225 
L 209.673709 47.51519 
L 208.897471 48.713271 
L 207.7264 50.684726 
L 206.843705 52.318435 
L 206.001502 54.013871 
L 205.200957 55.768184 
L 204.44313 57.578432 
L 203.82662 59.176788 
L 203.242905 60.812267 
L 202.175671 64.186529 
L 201.496722 66.672618 
L 200.887861 69.215755 
L 200.349559 71.809681 
L 199.882 74.448046 
L 199.484894 77.125852 
L 199.158116 79.835249 
L 198.742698 84.805657 
L 198.560396 89.25627 
L 198.546817 93.714391 
L 199.11653 103.949208 
L 199.583495 108.162897 
L 200.166593 112.27918 
L 200.908675 116.582972 
L 201.752591 120.738624 
L 202.205206 122.74756 
L 202.674578 124.706911 
L 203.214923 126.832778 
L 203.768539 128.890273 
L 204.290384 130.735183 
L 204.816711 132.516248 
L 205.344105 134.231344 
L 205.869117 135.878538 
L 206.514343 137.832292 
L 207.143739 139.675109 
L 207.596091 140.968068 
L 208.033286 142.197873 
L 208.452592 143.363841 
L 208.851294 144.465434 
L 209.148761 145.286679 
L 209.430512 146.067701 
L 209.695265 146.808429 
L 209.941756 147.508852 
L 210.165407 148.159187 
L 210.368971 148.77058 
L 210.551297 149.343177 
L 210.711257 149.877175 
L 210.845177 150.362989 
L 210.95557 150.812299 
L 211.04145 151.225429 
L 211.101853 151.602752 
L 211.139371 152.008343 
L 211.137415 152.363908 
L 211.094496 152.670333 
L 211.009195 152.928588 
L 210.901158 153.112632 
L 210.760095 153.262682 
L 210.585238 153.379496 
L 210.37586 153.463874 
L 210.154827 153.513163 
L 209.904179 153.536962 
L 209.623465 153.535958 
L 209.312268 153.51086 
L 208.836915 153.438921 
L 208.303014 153.325286 
L 207.709798 153.171975 
L 207.056623 152.981076 
L 206.40667 152.775524 
L 205.705877 152.542052 
L 204.954025 152.282389 
L 204.150987 151.998296 
L 203.266996 151.680842 
L 202.219978 151.30195 
L 201.105603 150.898457 
L 199.924263 150.473208 
L 198.67651 150.029075 
L 197.15463 149.496731 
L 195.546576 148.947559 
L 193.853984 148.386042 
L 192.078767 147.816659 
L 190.454827 147.314119 
L 188.770605 146.811948 
L 186.310745 146.114029 
L 183.741392 145.430712 
L 181.246731 144.812321 
L 178.667107 144.219819 
L 176.008298 143.659274 
L 173.276463 143.136539 
L 170.750919 142.701445 
L 168.176132 142.305754 
L 164.901963 141.872935 
L 161.56996 141.514202 
L 157.092711 141.164238 
L 145.775339 140.985022 
L 139.154259 141.384602 
L 135.294005 141.806829 
L 131.494621 142.37038 
L 127.820982 143.066565 
L 124.242309 143.901566 
L 122.199884 144.453945 
L 120.199274 145.05305 
L 118.243823 145.698352 
L 116.336812 146.389202 
L 114.686415 147.040303 
L 113.078955 147.726097 
L 111.51658 148.445891 
L 110.001383 149.198919 
L 107.507921 150.571498 
L 106.319077 151.292367 
L 105.170426 152.035442 
L 103.849842 152.953226 
L 102.590415 153.900627 
L 101.393966 154.876349 
L 100.262229 155.879037 
L 99.374224 156.729726 
L 98.532711 157.59714 
L 97.738531 158.480416 
L 96.99248 159.378669 
L 96.119643 160.533866 
L 95.312117 161.731936 
L 94.588406 162.949331 
L 93.949716 164.183959 
L 93.397112 165.433687 
L 93.058473 166.326311 
L 92.763723 167.224635 
L 92.513107 168.12787 
L 92.306837 169.035223 
L 92.145084 169.945895 
L 92.027985 170.859083 
L 91.955637 171.77398 
L 91.928101 172.68978 
L 91.962344 173.931026 
L 92.043114 174.870463 
L 92.171074 175.807965 
L 92.346112 176.742659 
L 92.568072 177.673676 
L 92.836759 178.600153 
L 93.151935 179.52123 
L 93.513323 180.436057 
L 93.920602 181.343792 
L 94.169279 181.85007 
L 94.626637 182.707911 
L 95.125237 183.557329 
L 95.664675 184.397614 
L 96.244516 185.228069 
L 97.523498 186.85676 
L 98.958056 188.438076 
L 100.271879 189.718581 
L 101.888163 191.125086 
L 103.631801 192.476785 
L 105.497774 193.769978 
L 107.480723 195.001224 
L 109.54167 196.149776 
L 111.704794 197.232463 
L 113.140787 197.889979 
L 114.614617 198.518886 
L 117.669123 199.688781 
L 120.849889 200.737043 
L 124.147182 201.662678 
L 127.219074 202.392942 
L 130.363481 203.02042 
L 133.171082 203.485814 
L 136.018206 203.872295 
L 141.80032 204.411326 
L 147.407923 204.642839 
L 150.623583 204.654483 
L 160.968873 204.130344 
L 167.315588 203.404361 
L 171.976437 202.68192 
L 174.245037 202.273009 
L 176.467452 201.836269 
L 180.026617 201.062583 
L 183.435395 200.236237 
L 185.209336 199.773335 
L 187.710381 199.08277 
L 190.099418 198.382178 
L 192.371342 197.679622 
L 194.521643 196.983276 
L 196.587388 196.287347 
L 198.518829 195.615295 
L 199.86977 195.135012 
L 201.143579 194.676518 
L 202.014422 194.361245 
L 202.844549 194.060531 
L 203.633829 193.775705 
L 204.382189 193.508078 
L 205.53949 193.103426 
L 206.583182 192.75613 
L 207.294632 192.535914 
L 207.94252 192.353854 
L 208.527461 192.212255 
L 209.050202 192.113347 
L 209.572412 192.055347 
L 210.016123 192.058936 
L 210.383074 192.127025 
L 210.675215 192.262359 
L 210.867077 192.433088 
L 211.00741 192.656219 
L 211.097768 192.933144 
L 211.139799 193.26515 
L 211.141392 193.531025 
L 211.120768 193.824852 
L 211.07857 194.146975 
L 211.015461 194.497711 
L 210.901109 195.005727 
L 210.753031 195.564822 
L 210.572899 196.175493 
L 210.362433 196.838145 
L 210.11362 197.581741 
L 209.887421 198.235447 
L 209.642906 198.927521 
L 209.381238 199.65799 
L 209.103596 200.426833 
L 208.811174 201.233976 
L 208.505178 202.079297 
L 208.186826 202.962618 
L 207.857344 203.883713 
L 207.607834 204.587368 
L 207.254107 205.595935 
L 206.89232 206.643055 
L 206.523804 207.728278 
L 206.149893 208.851102 
L 205.391204 211.207258 
L 204.626854 213.706403 
L 204.207508 215.140961 
L 203.791357 216.615947 
L 203.218573 218.741984 
L 202.65995 220.941163 
L 202.11998 223.209767 
L 201.603041 225.543815 
L 201.166 227.671631 
L 200.511208 231.213286 
L 199.932393 234.859684 
L 199.39201 239.01341 
L 198.972753 243.256073 
L 198.533674 253.202307 
L 198.667568 259.402803 
L 198.994702 264.106205 
L 199.523576 268.747796 
L 200.044662 272.109563 
L 200.649268 275.270762 
L 201.356886 278.361865 
L 202.246576 281.644623 
L 203.256647 284.816457 
L 203.981639 286.825487 
L 204.756227 288.777378 
L 205.579369 290.668476 
L 206.449878 292.49523 
L 207.39087 294.299014 
L 208.378751 296.027853 
L 209.411798 297.6783 
L 210.488147 299.247052 
L 211.910803 301.11227 
L 213.395395 302.835314 
L 214.324333 303.809018 
L 215.27327 304.727166 
L 216.69865 305.970843 
L 218.160924 307.0895 
L 219.656261 308.080255 
L 221.180707 308.940549 
L 222.437159 309.541584 
L 223.707895 310.054105 
L 224.627477 310.366896 
L 225.552406 310.633362 
L 226.481828 310.853268 
L 227.414883 311.026421 
L 228.350707 311.152667 
L 229.288432 311.231896 
L 230.227188 311.264038 
L 231.166103 311.249064 
L 231.915717 311.203255 
L 233.002187 311.083316 
L 234.085406 310.900225 
L 235.164025 310.6542 
L 236.2367 310.345531 
L 237.81393 309.773143 
L 239.370869 309.065253 
L 240.903306 308.223701 
L 242.407125 307.250673 
L 243.817487 306.197336 
L 245.194485 305.028114 
L 246.746429 303.529523 
L 248.244075 301.883376 
L 249.682759 300.094918 
L 251.058103 298.169832 
L 252.020481 296.680567 
L 252.945396 295.124143 
L 254.108243 292.968049 
L 255.200305 290.705504 
L 255.926236 289.05003 
L 256.61488 287.347324 
L 257.265513 285.599842 
L 257.877496 283.810097 
L 258.801692 280.770236 
L 259.617181 277.634042 
L 260.213037 274.954471 
L 260.732086 272.223496 
L 261.14553 269.646037 
L 261.49287 267.036296 
L 261.991466 261.743545 
L 262.208787 257.37898 
L 262.261818 253.00111 
L 262.099527 247.368398 
L 261.705837 241.914036 
L 261.256167 237.770038 
L 260.693419 233.718227 
L 259.885912 228.99526 
L 259.271707 225.913094 
L 258.611921 222.929729 
L 257.91541 220.05399 
L 257.191367 217.294036 
L 256.621523 215.254144 
L 256.045404 213.290316 
L 255.615121 211.879507 
L 255.185713 210.513498 
L 254.75906 209.193277 
L 254.337054 207.919745 
L 253.970977 206.83813 
L 253.611263 205.793815 
L 253.259206 204.787246 
L 252.916099 203.818817 
L 252.469552 202.573009 
L 252.044793 201.397943 
L 251.596065 200.15897 
L 251.183375 199.010928 
L 250.811053 197.95397 
L 250.48334 196.987961 
L 250.302374 196.428191 
L 250.141592 195.903895 
L 250.001971 195.414873 
L 249.884468 194.960878 
L 249.750474 194.338087 
L 249.672737 193.794126 
L 249.653741 193.478506 
L 249.661246 193.19597 
L 249.69605 192.946029 
L 249.758924 192.728156 
L 249.889391 192.484221 
L 250.073912 192.296046 
L 250.314089 192.162033 
L 250.611414 192.080476 
L 250.972388 192.049482 
L 251.394745 192.068492 
L 251.879649 192.135413 
L 252.428127 192.248054 
L 253.170718 192.440151 
L 254.00721 192.690595 
L 254.784753 192.9435 
L 255.6299 193.232125 
L 256.542895 193.553799 
L 257.523823 193.905789 
L 258.30676 194.188982 
L 259.128039 194.486567 
L 260.000832 194.802133 
L 260.912786 195.129998 
L 261.863644 195.468871 
L 262.853093 195.817455 
L 263.880765 196.174447 
L 264.946238 196.53854 
L 266.049036 196.908426 
L 267.188629 197.282799 
L 268.979919 197.854361 
L 270.85171 198.428702 
L 272.505504 198.916141 
L 274.214042 199.399656 
L 275.97549 199.876568 
L 277.787882 200.344238 
L 279.971712 200.876551 
L 282.218912 201.388571 
L 286.221866 202.210484 
L 290.380116 202.941397 
L 294.528611 203.544814 
L 300.643215 204.201745 
L 310.572473 204.657687 
L 315.573685 204.58525 
L 320.771079 204.279518 
L 325.901239 203.729823 
L 329.429516 203.196712 
L 332.365847 202.648551 
L 335.243565 202.011915 
L 338.053833 201.287238 
L 340.78797 200.475395 
L 343.82616 199.436084 
L 346.739956 198.28601 
L 348.819354 197.360762 
L 351.053395 196.255658 
L 353.180114 195.080733 
L 355.193304 193.838949 
L 357.087067 192.533572 
L 359.031275 191.023784 
L 360.532504 189.711349 
L 361.919102 188.354773 
L 363.187585 186.957416 
L 364.334765 185.522799 
L 365.240335 184.23439 
L 366.04825 182.922601 
L 366.756936 181.590063 
L 367.365008 180.239472 
L 367.974929 178.552064 
L 368.36536 177.123785 
L 368.644824 175.68596 
L 368.812737 174.241753 
L 368.868748 172.794351 
z
" clip-path="url(#pcf7ef61fe4)" style="fill: #ffa500; opacity: 0.5"/>
   </g>
   <g id="matplotlib.axis_1">
    <g id="xtick_1">
     <g id="line2d_1">
      <defs>
       <path id="m152ff6fea6" d="M 0 0 
L 0 3.5 
" style="stroke: #000000; stroke-width: 0.8"/>
      </defs>
      <g>
       <use xlink:href="#m152ff6fea6" x="64.233715" y="172.794351" style="stroke: #000000; stroke-width: 0.8"/>
      </g>
     </g>
     <g id="text_1">
      <!-- −3 -->
      <g transform="translate(56.862621 187.392788)scale(0.1 -0.1)">
       <defs>
        <path id="DejaVuSans-2212" d="M 678 2272 
L 4684 2272 
L 4684 1741 
L 678 1741 
L 678 2272 
z
" transform="scale(0.015625)"/>
        <path id="DejaVuSans-33" d="M 2597 2516 
Q 3050 2419 3304 2112 
Q 3559 1806 3559 1356 
Q 3559 666 3084 287 
Q 2609 -91 1734 -91 
Q 1441 -91 1130 -33 
Q 819 25 488 141 
L 488 750 
Q 750 597 1062 519 
Q 1375 441 1716 441 
Q 2309 441 2620 675 
Q 2931 909 2931 1356 
Q 2931 1769 2642 2001 
Q 2353 2234 1838 2234 
L 1294 2234 
L 1294 2753 
L 1863 2753 
Q 2328 2753 2575 2939 
Q 2822 3125 2822 3475 
Q 2822 3834 2567 4026 
Q 2313 4219 1838 4219 
Q 1578 4219 1281 4162 
Q 984 4106 628 3988 
L 628 4550 
Q 988 4650 1302 4700 
Q 1616 4750 1894 4750 
Q 2613 4750 3031 4423 
Q 3450 4097 3450 3541 
Q 3450 3153 3228 2886 
Q 3006 2619 2597 2516 
z
" transform="scale(0.015625)"/>
       </defs>
       <use xlink:href="#DejaVuSans-2212"/>
       <use xlink:href="#DejaVuSans-33" x="83.789062"/>
      </g>
     </g>
    </g>
    <g id="xtick_2">
     <g id="line2d_2">
      <g>
       <use xlink:href="#m152ff6fea6" x="119.621903" y="172.794351" style="stroke: #000000; stroke-width: 0.8"/>
      </g>
     </g>
     <g id="text_2">
      <!-- −2 -->
      <g transform="translate(112.250809 187.392788)scale(0.1 -0.1)">
       <defs>
        <path id="DejaVuSans-32" d="M 1228 531 
L 3431 531 
L 3431 0 
L 469 0 
L 469 531 
Q 828 903 1448 1529 
Q 2069 2156 2228 2338 
Q 2531 2678 2651 2914 
Q 2772 3150 2772 3378 
Q 2772 3750 2511 3984 
Q 2250 4219 1831 4219 
Q 1534 4219 1204 4116 
Q 875 4013 500 3803 
L 500 4441 
Q 881 4594 1212 4672 
Q 1544 4750 1819 4750 
Q 2544 4750 2975 4387 
Q 3406 4025 3406 3419 
Q 3406 3131 3298 2873 
Q 3191 2616 2906 2266 
Q 2828 2175 2409 1742 
Q 1991 1309 1228 531 
z
" transform="scale(0.015625)"/>
       </defs>
       <use xlink:href="#DejaVuSans-2212"/>
       <use xlink:href="#DejaVuSans-32" x="83.789062"/>
      </g>
     </g>
    </g>
    <g id="xtick_3">
     <g id="line2d_3">
      <g>
       <use xlink:href="#m152ff6fea6" x="175.01009" y="172.794351" style="stroke: #000000; stroke-width: 0.8"/>
      </g>
     </g>
     <g id="text_3">
      <!-- −1 -->
      <g transform="translate(167.638997 187.392788)scale(0.1 -0.1)">
       <defs>
        <path id="DejaVuSans-31" d="M 794 531 
L 1825 531 
L 1825 4091 
L 703 3866 
L 703 4441 
L 1819 4666 
L 2450 4666 
L 2450 531 
L 3481 531 
L 3481 0 
L 794 0 
L 794 531 
z
" transform="scale(0.015625)"/>
       </defs>
       <use xlink:href="#DejaVuSans-2212"/>
       <use xlink:href="#DejaVuSans-31" x="83.789062"/>
      </g>
     </g>
    </g>
    <g id="xtick_4">
     <g id="line2d_4">
      <g>
       <use xlink:href="#m152ff6fea6" x="230.398278" y="172.794351" style="stroke: #000000; stroke-width: 0.8"/>
      </g>
     </g>
    </g>
    <g id="xtick_5">
     <g id="line2d_5">
      <g>
       <use xlink:href="#m152ff6fea6" x="285.786466" y="172.794351" style="stroke: #000000; stroke-width: 0.8"/>
      </g>
     </g>
     <g id="text_4">
      <!-- 1 -->
      <g transform="translate(282.605216 187.392788)scale(0.1 -0.1)">
       <use xlink:href="#DejaVuSans-31"/>
      </g>
     </g>
    </g>
    <g id="xtick_6">
     <g id="line2d_6">
      <g>
       <use xlink:href="#m152ff6fea6" x="341.174654" y="172.794351" style="stroke: #000000; stroke-width: 0.8"/>
      </g>
     </g>
     <g id="text_5">
      <!-- 2 -->
      <g transform="translate(337.993404 187.392788)scale(0.1 -0.1)">
       <use xlink:href="#DejaVuSans-32"/>
      </g>
     </g>
    </g>
    <g id="xtick_7">
     <g id="line2d_7">
      <g>
       <use xlink:href="#m152ff6fea6" x="396.562841" y="172.794351" style="stroke: #000000; stroke-width: 0.8"/>
      </g>
     </g>
     <g id="text_6">
      <!-- 3 -->
      <g transform="translate(393.381591 187.392788)scale(0.1 -0.1)">
       <use xlink:href="#DejaVuSans-33"/>
      </g>
     </g>
    </g>
    <g id="xtick_8">
     <g id="line2d_8">
      <defs>
       <path id="m14d2026e15" d="M 0 0 
L 0 2 
" style="stroke: #000000; stroke-width: 0.6"/>
      </defs>
      <g>
       <use xlink:href="#m14d2026e15" x="75.311352" y="172.794351" style="stroke: #000000; stroke-width: 0.6"/>
      </g>
     </g>
    </g>
    <g id="xtick_9">
     <g id="line2d_9">
      <g>
       <use xlink:href="#m14d2026e15" x="86.38899" y="172.794351" style="stroke: #000000; stroke-width: 0.6"/>
      </g>
     </g>
    </g>
    <g id="xtick_10">
     <g id="line2d_10">
      <g>
       <use xlink:href="#m14d2026e15" x="97.466627" y="172.794351" style="stroke: #000000; stroke-width: 0.6"/>
      </g>
     </g>
    </g>
    <g id="xtick_11">
     <g id="line2d_11">
      <g>
       <use xlink:href="#m14d2026e15" x="108.544265" y="172.794351" style="stroke: #000000; stroke-width: 0.6"/>
      </g>
     </g>
    </g>
    <g id="xtick_12">
     <g id="line2d_12">
      <g>
       <use xlink:href="#m14d2026e15" x="130.69954" y="172.794351" style="stroke: #000000; stroke-width: 0.6"/>
      </g>
     </g>
    </g>
    <g id="xtick_13">
     <g id="line2d_13">
      <g>
       <use xlink:href="#m14d2026e15" x="141.777178" y="172.794351" style="stroke: #000000; stroke-width: 0.6"/>
      </g>
     </g>
    </g>
    <g id="xtick_14">
     <g id="line2d_14">
      <g>
       <use xlink:href="#m14d2026e15" x="152.854815" y="172.794351" style="stroke: #000000; stroke-width: 0.6"/>
      </g>
     </g>
    </g>
    <g id="xtick_15">
     <g id="line2d_15">
      <g>
       <use xlink:href="#m14d2026e15" x="163.932453" y="172.794351" style="stroke: #000000; stroke-width: 0.6"/>
      </g>
     </g>
    </g>
    <g id="xtick_16">
     <g id="line2d_16">
      <g>
       <use xlink:href="#m14d2026e15" x="186.087728" y="172.794351" style="stroke: #000000; stroke-width: 0.6"/>
      </g>
     </g>
    </g>
    <g id="xtick_17">
     <g id="line2d_17">
      <g>
       <use xlink:href="#m14d2026e15" x="197.165365" y="172.794351" style="stroke: #000000; stroke-width: 0.6"/>
      </g>
     </g>
    </g>
    <g id="xtick_18">
     <g id="line2d_18">
      <g>
       <use xlink:href="#m14d2026e15" x="208.243003" y="172.794351" style="stroke: #000000; stroke-width: 0.6"/>
      </g>
     </g>
    </g>
    <g id="xtick_19">
     <g id="line2d_19">
      <g>
       <use xlink:href="#m14d2026e15" x="219.320641" y="172.794351" style="stroke: #000000; stroke-width: 0.6"/>
      </g>
     </g>
    </g>
    <g id="xtick_20">
     <g id="line2d_20">
      <g>
       <use xlink:href="#m14d2026e15" x="241.475916" y="172.794351" style="stroke: #000000; stroke-width: 0.6"/>
      </g>
     </g>
    </g>
    <g id="xtick_21">
     <g id="line2d_21">
      <g>
       <use xlink:href="#m14d2026e15" x="252.553553" y="172.794351" style="stroke: #000000; stroke-width: 0.6"/>
      </g>
     </g>
    </g>
    <g id="xtick_22">
     <g id="line2d_22">
      <g>
       <use xlink:href="#m14d2026e15" x="263.631191" y="172.794351" style="stroke: #000000; stroke-width: 0.6"/>
      </g>
     </g>
    </g>
    <g id="xtick_23">
     <g id="line2d_23">
      <g>
       <use xlink:href="#m14d2026e15" x="274.708828" y="172.794351" style="stroke: #000000; stroke-width: 0.6"/>
      </g>
     </g>
    </g>
    <g id="xtick_24">
     <g id="line2d_24">
      <g>
       <use xlink:href="#m14d2026e15" x="296.864103" y="172.794351" style="stroke: #000000; stroke-width: 0.6"/>
      </g>
     </g>
    </g>
    <g id="xtick_25">
     <g id="line2d_25">
      <g>
       <use xlink:href="#m14d2026e15" x="307.941741" y="172.794351" style="stroke: #000000; stroke-width: 0.6"/>
      </g>
     </g>
    </g>
    <g id="xtick_26">
     <g id="line2d_26">
      <g>
       <use xlink:href="#m14d2026e15" x="319.019379" y="172.794351" style="stroke: #000000; stroke-width: 0.6"/>
      </g>
     </g>
    </g>
    <g id="xtick_27">
     <g id="line2d_27">
      <g>
       <use xlink:href="#m14d2026e15" x="330.097016" y="172.794351" style="stroke: #000000; stroke-width: 0.6"/>
      </g>
     </g>
    </g>
    <g id="xtick_28">
     <g id="line2d_28">
      <g>
       <use xlink:href="#m14d2026e15" x="352.252291" y="172.794351" style="stroke: #000000; stroke-width: 0.6"/>
      </g>
     </g>
    </g>
    <g id="xtick_29">
     <g id="line2d_29">
      <g>
       <use xlink:href="#m14d2026e15" x="363.329929" y="172.794351" style="stroke: #000000; stroke-width: 0.6"/>
      </g>
     </g>
    </g>
    <g id="xtick_30">
     <g id="line2d_30">
      <g>
       <use xlink:href="#m14d2026e15" x="374.407566" y="172.794351" style="stroke: #000000; stroke-width: 0.6"/>
      </g>
     </g>
    </g>
    <g id="xtick_31">
     <g id="line2d_31">
      <g>
       <use xlink:href="#m14d2026e15" x="385.485204" y="172.794351" style="stroke: #000000; stroke-width: 0.6"/>
      </g>
     </g>
    </g>
   </g>
   <g id="matplotlib.axis_2">
    <g id="ytick_1">
     <g id="line2d_32">
      <defs>
       <path id="m24fec4e6d2" d="M 0 0 
L -3.5 0 
" style="stroke: #000000; stroke-width: 0.8"/>
      </defs>
      <g>
       <use xlink:href="#m24fec4e6d2" x="230.398278" y="338.958914" style="stroke: #000000; stroke-width: 0.8"/>
      </g>
     </g>
     <g id="text_7">
      <!-- −3 -->
      <g transform="translate(208.656091 342.758133)scale(0.1 -0.1)">
       <use xlink:href="#DejaVuSans-2212"/>
       <use xlink:href="#DejaVuSans-33" x="83.789062"/>
      </g>
     </g>
    </g>
    <g id="ytick_2">
     <g id="line2d_33">
      <g>
       <use xlink:href="#m24fec4e6d2" x="230.398278" y="283.570726" style="stroke: #000000; stroke-width: 0.8"/>
      </g>
     </g>
     <g id="text_8">
      <!-- −2 -->
      <g transform="translate(208.656091 287.369945)scale(0.1 -0.1)">
       <use xlink:href="#DejaVuSans-2212"/>
       <use xlink:href="#DejaVuSans-32" x="83.789062"/>
      </g>
     </g>
    </g>
    <g id="ytick_3">
     <g id="line2d_34">
      <g>
       <use xlink:href="#m24fec4e6d2" x="230.398278" y="228.182538" style="stroke: #000000; stroke-width: 0.8"/>
      </g>
     </g>
     <g id="text_9">
      <!-- −1 -->
      <g transform="translate(208.656091 231.981757)scale(0.1 -0.1)">
       <use xlink:href="#DejaVuSans-2212"/>
       <use xlink:href="#DejaVuSans-31" x="83.789062"/>
      </g>
     </g>
    </g>
    <g id="ytick_4">
     <g id="line2d_35">
      <g>
       <use xlink:href="#m24fec4e6d2" x="230.398278" y="172.794351" style="stroke: #000000; stroke-width: 0.8"/>
      </g>
     </g>
    </g>
    <g id="ytick_5">
     <g id="line2d_36">
      <g>
       <use xlink:href="#m24fec4e6d2" x="230.398278" y="117.406163" style="stroke: #000000; stroke-width: 0.8"/>
      </g>
     </g>
     <g id="text_10">
      <!-- 1 -->
      <g transform="translate(217.035778 121.205381)scale(0.1 -0.1)">
       <use xlink:href="#DejaVuSans-31"/>
      </g>
     </g>
    </g>
    <g id="ytick_6">
     <g id="line2d_37">
      <g>
       <use xlink:href="#m24fec4e6d2" x="230.398278" y="62.017975" style="stroke: #000000; stroke-width: 0.8"/>
      </g>
     </g>
     <g id="text_11">
      <!-- 2 -->
      <g transform="translate(217.035778 65.817194)scale(0.1 -0.1)">
       <use xlink:href="#DejaVuSans-32"/>
      </g>
     </g>
    </g>
    <g id="ytick_7">
     <g id="line2d_38">
      <g>
       <use xlink:href="#m24fec4e6d2" x="230.398278" y="6.629787" style="stroke: #000000; stroke-width: 0.8"/>
      </g>
     </g>
     <g id="text_12">
      <!-- 3 -->
      <g transform="translate(217.035778 10.429006)scale(0.1 -0.1)">
       <use xlink:href="#DejaVuSans-33"/>
      </g>
     </g>
    </g>
    <g id="ytick_8">
     <g id="line2d_39">
      <defs>
       <path id="m783a48241a" d="M 0 0 
L -2 0 
" style="stroke: #000000; stroke-width: 0.6"/>
      </defs>
      <g>
       <use xlink:href="#m783a48241a" x="230.398278" y="327.881276" style="stroke: #000000; stroke-width: 0.6"/>
      </g>
     </g>
    </g>
    <g id="ytick_9">
     <g id="line2d_40">
      <g>
       <use xlink:href="#m783a48241a" x="230.398278" y="316.803639" style="stroke: #000000; stroke-width: 0.6"/>
      </g>
     </g>
    </g>
    <g id="ytick_10">
     <g id="line2d_41">
      <g>
       <use xlink:href="#m783a48241a" x="230.398278" y="305.726001" style="stroke: #000000; stroke-width: 0.6"/>
      </g>
     </g>
    </g>
    <g id="ytick_11">
     <g id="line2d_42">
      <g>
       <use xlink:href="#m783a48241a" x="230.398278" y="294.648364" style="stroke: #000000; stroke-width: 0.6"/>
      </g>
     </g>
    </g>
    <g id="ytick_12">
     <g id="line2d_43">
      <g>
       <use xlink:href="#m783a48241a" x="230.398278" y="272.493089" style="stroke: #000000; stroke-width: 0.6"/>
      </g>
     </g>
    </g>
    <g id="ytick_13">
     <g id="line2d_44">
      <g>
       <use xlink:href="#m783a48241a" x="230.398278" y="261.415451" style="stroke: #000000; stroke-width: 0.6"/>
      </g>
     </g>
    </g>
    <g id="ytick_14">
     <g id="line2d_45">
      <g>
       <use xlink:href="#m783a48241a" x="230.398278" y="250.337813" style="stroke: #000000; stroke-width: 0.6"/>
      </g>
     </g>
    </g>
    <g id="ytick_15">
     <g id="line2d_46">
      <g>
       <use xlink:href="#m783a48241a" x="230.398278" y="239.260176" style="stroke: #000000; stroke-width: 0.6"/>
      </g>
     </g>
    </g>
    <g id="ytick_16">
     <g id="line2d_47">
      <g>
       <use xlink:href="#m783a48241a" x="230.398278" y="217.104901" style="stroke: #000000; stroke-width: 0.6"/>
      </g>
     </g>
    </g>
    <g id="ytick_17">
     <g id="line2d_48">
      <g>
       <use xlink:href="#m783a48241a" x="230.398278" y="206.027263" style="stroke: #000000; stroke-width: 0.6"/>
      </g>
     </g>
    </g>
    <g id="ytick_18">
     <g id="line2d_49">
      <g>
       <use xlink:href="#m783a48241a" x="230.398278" y="194.949626" style="stroke: #000000; stroke-width: 0.6"/>
      </g>
     </g>
    </g>
    <g id="ytick_19">
     <g id="line2d_50">
      <g>
       <use xlink:href="#m783a48241a" x="230.398278" y="183.871988" style="stroke: #000000; stroke-width: 0.6"/>
      </g>
     </g>
    </g>
    <g id="ytick_20">
     <g id="line2d_51">
      <g>
       <use xlink:href="#m783a48241a" x="230.398278" y="161.716713" style="stroke: #000000; stroke-width: 0.6"/>
      </g>
     </g>
    </g>
    <g id="ytick_21">
     <g id="line2d_52">
      <g>
       <use xlink:href="#m783a48241a" x="230.398278" y="150.639075" style="stroke: #000000; stroke-width: 0.6"/>
      </g>
     </g>
    </g>
    <g id="ytick_22">
     <g id="line2d_53">
      <g>
       <use xlink:href="#m783a48241a" x="230.398278" y="139.561438" style="stroke: #000000; stroke-width: 0.6"/>
      </g>
     </g>
    </g>
    <g id="ytick_23">
     <g id="line2d_54">
      <g>
       <use xlink:href="#m783a48241a" x="230.398278" y="128.4838" style="stroke: #000000; stroke-width: 0.6"/>
      </g>
     </g>
    </g>
    <g id="ytick_24">
     <g id="line2d_55">
      <g>
       <use xlink:href="#m783a48241a" x="230.398278" y="106.328525" style="stroke: #000000; stroke-width: 0.6"/>
      </g>
     </g>
    </g>
    <g id="ytick_25">
     <g id="line2d_56">
      <g>
       <use xlink:href="#m783a48241a" x="230.398278" y="95.250888" style="stroke: #000000; stroke-width: 0.6"/>
      </g>
     </g>
    </g>
    <g id="ytick_26">
     <g id="line2d_57">
      <g>
       <use xlink:href="#m783a48241a" x="230.398278" y="84.17325" style="stroke: #000000; stroke-width: 0.6"/>
      </g>
     </g>
    </g>
    <g id="ytick_27">
     <g id="line2d_58">
      <g>
       <use xlink:href="#m783a48241a" x="230.398278" y="73.095612" style="stroke: #000000; stroke-width: 0.6"/>
      </g>
     </g>
    </g>
    <g id="ytick_28">
     <g id="line2d_59">
      <g>
       <use xlink:href="#m783a48241a" x="230.398278" y="50.940337" style="stroke: #000000; stroke-width: 0.6"/>
      </g>
     </g>
    </g>
    <g id="ytick_29">
     <g id="line2d_60">
      <g>
       <use xlink:href="#m783a48241a" x="230.398278" y="39.8627" style="stroke: #000000; stroke-width: 0.6"/>
      </g>
     </g>
    </g>
    <g id="ytick_30">
     <g id="line2d_61">
      <g>
       <use xlink:href="#m783a48241a" x="230.398278" y="28.785062" style="stroke: #000000; stroke-width: 0.6"/>
      </g>
     </g>
    </g>
    <g id="ytick_31">
     <g id="line2d_62">
      <g>
       <use xlink:href="#m783a48241a" x="230.398278" y="17.707425" style="stroke: #000000; stroke-width: 0.6"/>
      </g>
     </g>
    </g>
   </g>
   <g id="line2d_63">
    <path d="M 368.868748 172.794351 
L 368.73433 170.552987 
L 368.50181 169.095441 
L 368.155478 167.646243 
L 367.696075 166.208651 
L 367.124584 164.785888 
L 366.423648 163.346053 
L 364.678794 160.536498 
L 362.6115 157.975398 
L 360.301194 155.665471 
L 357.761376 153.557346 
L 355.148392 151.72051 
L 352.418775 150.072374 
L 350.977978 149.293689 
L 348.376427 148.022946 
L 343.872345 146.169621 
L 339.151863 144.614269 
L 336.153243 143.799798 
L 333.073113 143.087202 
L 327.215163 142.042003 
L 322.607353 141.476545 
L 317.93203 141.112127 
L 312.806874 140.937372 
L 305.562623 141.064275 
L 300.903514 141.365229 
L 296.321369 141.82236 
L 288.534618 142.956186 
L 282.402087 144.159995 
L 276.91506 145.466761 
L 270.231258 147.347739 
L 264.282104 149.27636 
L 251.86621 153.455622 
L 251.128482 153.537681 
L 250.278407 153.411698 
L 249.992574 153.223073 
L 249.708908 152.699314 
L 249.654793 152.068986 
L 249.811538 150.944954 
L 250.435673 148.745815 
L 252.386578 143.245796 
L 254.938409 135.84468 
L 256.76133 129.843666 
L 258.139099 124.637411 
L 259.352052 119.291221 
L 260.358357 113.947146 
L 261.145552 108.688499 
L 261.923282 101.056426 
L 262.25544 93.295344 
L 262.171078 87.140448 
L 261.496721 78.584581 
L 260.915926 74.456473 
L 259.573402 67.772509 
L 258.160243 62.661152 
L 256.745358 58.58027 
L 255.305496 55.115009 
L 253.550193 51.556174 
L 251.549752 48.164028 
L 249.30003 44.996744 
L 247.285985 42.62847 
L 245.584657 40.918668 
L 243.742566 39.331831 
L 241.759633 37.900649 
L 239.732014 36.708575 
L 237.668569 35.756798 
L 235.568515 35.043341 
L 233.642057 34.605834 
L 231.902108 34.384346 
L 230.097221 34.326303 
L 228.233397 34.44927 
L 226.377504 34.757747 
L 224.536331 35.250663 
L 223.623365 35.565775 
L 222.011804 36.239929 
L 219.345343 37.702184 
L 217.233975 39.190483 
L 215.15318 40.973618 
L 213.119281 43.05783 
L 211.295636 45.255639 
L 209.673709 47.51519 
L 207.7264 50.684726 
L 206.001502 54.013871 
L 204.44313 57.578432 
L 203.242905 60.812267 
L 201.496722 66.672618 
L 200.349559 71.809681 
L 199.484894 77.125852 
L 199.158116 79.835249 
L 198.742698 84.805657 
L 198.560396 89.25627 
L 198.546817 93.714391 
L 199.11653 103.949208 
L 199.583495 108.162897 
L 200.166593 112.27918 
L 200.908675 116.582972 
L 202.205206 122.74756 
L 203.768539 128.890273 
L 205.344105 134.231344 
L 207.596091 140.968068 
L 210.845177 150.362989 
L 211.139371 152.008343 
L 211.094496 152.670333 
L 210.901158 153.112632 
L 210.585238 153.379496 
L 209.904179 153.536962 
L 208.836915 153.438921 
L 207.056623 152.981076 
L 203.266996 151.680842 
L 193.853984 148.386042 
L 188.770605 146.811948 
L 183.741392 145.430712 
L 178.667107 144.219819 
L 173.276463 143.136539 
L 168.176132 142.305754 
L 161.56996 141.514202 
L 157.092711 141.164238 
L 145.775339 140.985022 
L 139.154259 141.384602 
L 135.294005 141.806829 
L 131.494621 142.37038 
L 127.820982 143.066565 
L 122.199884 144.453945 
L 118.243823 145.698352 
L 114.686415 147.040303 
L 111.51658 148.445891 
L 110.001383 149.198919 
L 106.319077 151.292367 
L 103.849842 152.953226 
L 101.393966 154.876349 
L 99.374224 156.729726 
L 97.738531 158.480416 
L 96.119643 160.533866 
L 94.588406 162.949331 
L 93.397112 165.433687 
L 92.763723 167.224635 
L 92.306837 169.035223 
L 92.027985 170.859083 
L 91.928101 172.68978 
L 92.043114 174.870463 
L 92.346112 176.742659 
L 92.836759 178.600153 
L 93.513323 180.436057 
L 94.626637 182.707911 
L 95.664675 184.397614 
L 96.244516 185.228069 
L 97.523498 186.85676 
L 98.958056 188.438076 
L 100.271879 189.718581 
L 101.888163 191.125086 
L 103.631801 192.476785 
L 105.497774 193.769978 
L 107.480723 195.001224 
L 111.704794 197.232463 
L 114.614617 198.518886 
L 117.669123 199.688781 
L 120.849889 200.737043 
L 124.147182 201.662678 
L 127.219074 202.392942 
L 133.171082 203.485814 
L 136.018206 203.872295 
L 141.80032 204.411326 
L 147.407923 204.642839 
L 150.623583 204.654483 
L 160.968873 204.130344 
L 167.315588 203.404361 
L 174.245037 202.273009 
L 180.026617 201.062583 
L 185.209336 199.773335 
L 190.099418 198.382178 
L 196.587388 196.287347 
L 208.527461 192.212255 
L 209.572412 192.055347 
L 210.383074 192.127025 
L 210.867077 192.433088 
L 211.097768 192.933144 
L 211.120768 193.824852 
L 210.901109 195.005727 
L 210.11362 197.581741 
L 204.626854 213.706403 
L 203.218573 218.741984 
L 201.603041 225.543815 
L 200.511208 231.213286 
L 199.932393 234.859684 
L 199.39201 239.01341 
L 198.972753 243.256073 
L 198.533674 253.202307 
L 198.667568 259.402803 
L 198.994702 264.106205 
L 199.523576 268.747796 
L 200.044662 272.109563 
L 200.649268 275.270762 
L 201.356886 278.361865 
L 202.246576 281.644623 
L 203.981639 286.825487 
L 205.579369 290.668476 
L 207.39087 294.299014 
L 209.411798 297.6783 
L 210.488147 299.247052 
L 211.910803 301.11227 
L 214.324333 303.809018 
L 216.69865 305.970843 
L 218.160924 307.0895 
L 219.656261 308.080255 
L 222.437159 309.541584 
L 224.627477 310.366896 
L 226.481828 310.853268 
L 228.350707 311.152667 
L 230.227188 311.264038 
L 231.915717 311.203255 
L 234.085406 310.900225 
L 236.2367 310.345531 
L 237.81393 309.773143 
L 239.370869 309.065253 
L 240.903306 308.223701 
L 242.407125 307.250673 
L 243.817487 306.197336 
L 245.194485 305.028114 
L 246.746429 303.529523 
L 248.244075 301.883376 
L 249.682759 300.094918 
L 252.020481 296.680567 
L 254.108243 292.968049 
L 255.926236 289.05003 
L 257.265513 285.599842 
L 258.801692 280.770236 
L 260.213037 274.954471 
L 261.14553 269.646037 
L 261.49287 267.036296 
L 261.991466 261.743545 
L 262.208787 257.37898 
L 262.261818 253.00111 
L 262.099527 247.368398 
L 261.705837 241.914036 
L 261.256167 237.770038 
L 260.693419 233.718227 
L 259.271707 225.913094 
L 257.91541 220.05399 
L 256.045404 213.290316 
L 253.970977 206.83813 
L 249.750474 194.338087 
L 249.661246 193.19597 
L 249.758924 192.728156 
L 250.073912 192.296046 
L 250.611414 192.080476 
L 251.394745 192.068492 
L 252.428127 192.248054 
L 254.784753 192.9435 
L 261.863644 195.468871 
L 267.188629 197.282799 
L 272.505504 198.916141 
L 277.787882 200.344238 
L 282.218912 201.388571 
L 286.221866 202.210484 
L 290.380116 202.941397 
L 294.528611 203.544814 
L 300.643215 204.201745 
L 310.572473 204.657687 
L 315.573685 204.58525 
L 320.771079 204.279518 
L 325.901239 203.729823 
L 332.365847 202.648551 
L 338.053833 201.287238 
L 340.78797 200.475395 
L 343.82616 199.436084 
L 348.819354 197.360762 
L 353.180114 195.080733 
L 355.193304 193.838949 
L 357.087067 192.533572 
L 359.031275 191.023784 
L 361.919102 188.354773 
L 363.187585 186.957416 
L 365.240335 184.23439 
L 366.756936 181.590063 
L 367.365008 180.239472 
L 367.974929 178.552064 
L 368.644824 175.68596 
L 368.812737 174.241753 
L 368.868748 172.794351 
L 368.868748 172.794351 
" clip-path="url(#pcf7ef61fe4)" style="fill: none; stroke: #0000ff; stroke-linecap: square"/>
   </g>
   <g id="patch_4">
    <path d="M 230.398278 345.6 
L 230.398278 0 
" style="fill: none; stroke: #000000; stroke-width: 0.8; stroke-linejoin: miter; stroke-linecap: square"/>
   </g>
   <g id="patch_5">
    <path d="M 57.590645 172.794351 
L 403.209355 172.794351 
" style="fill: none; stroke: #000000; stroke-width: 0.8; stroke-linejoin: miter; stroke-linecap: square"/>
   </g>
  </g>
 </g>
 <defs>
  <clipPath id="pcf7ef61fe4">
   <rect x="57.590645" y="0" width="345.61871" height="345.6"/>
  </clipPath>
 </defs>
</svg>
