<?xml version="1.0" encoding="utf-8" standalone="no"?>
<!DOCTYPE svg PUBLIC "-//W3C//DTD SVG 1.1//EN"
  "http://www.w3.org/Graphics/SVG/1.1/DTD/svg11.dtd">
<svg xmlns:xlink="http://www.w3.org/1999/xlink" width="460.8pt" height="345.6pt" viewBox="0 0 460.8 345.6" xmlns="http://www.w3.org/2000/svg" version="1.1">
 <metadata>
  <rdf:RDF xmlns:dc="http://purl.org/dc/elements/1.1/" xmlns:cc="http://creativecommons.org/ns#" xmlns:rdf="http://www.w3.org/1999/02/22-rdf-syntax-ns#">
   <cc:Work>
    <dc:type rdf:resource="http://purl.org/dc/dcmitype/StillImage"/>
    <dc:date>2022-05-16T19:39:33.300489</dc:date>
    <dc:format>image/svg+xml</dc:format>
    <dc:creator>
     <cc:Agent>
      <dc:title>Matplotlib v3.5.1, https://matplotlib.org/</dc:title>
     </cc:Agent>
    </dc:creator>
   </cc:Work>
  </rdf:RDF>
 </metadata>
 <defs>
  <style type="text/css">*{stroke-linejoin: round; stroke-linecap: butt}</style>
 </defs>
 <g id="figure_1">
  <g id="patch_1">
   <path d="M 0 345.6 
L 460.8 345.6 
L 460.8 0 
L 0 0 
z
" style="fill: #ffffff"/>
  </g>
  <g id="axes_1">
   <g id="patch_2">
    <path d="M 57.598575 345.6 
L 403.201425 345.6 
L 403.201425 0 
L 57.598575 0 
z
" style="fill: #ffffff"/>
   </g>
   <g id="matplotlib.axis_1">
    <g id="xtick_1">
     <g id="line2d_1">
      <defs>
       <path id="mda290e45da" d="M 0 0 
L 0 3.5 
" style="stroke: #000000; stroke-width: 0.8"/>
      </defs>
      <g>
       <use xlink:href="#mda290e45da" x="64.244742" y="228.183696" style="stroke: #000000; stroke-width: 0.8"/>
      </g>
     </g>
     <g id="text_1">
      <!-- −1.0 -->
      <g transform="translate(52.103336 242.782134)scale(0.1 -0.1)">
       <defs>
        <path id="DejaVuSans-2212" d="M 678 2272 
L 4684 2272 
L 4684 1741 
L 678 1741 
L 678 2272 
z
" transform="scale(0.015625)"/>
        <path id="DejaVuSans-31" d="M 794 531 
L 1825 531 
L 1825 4091 
L 703 3866 
L 703 4441 
L 1819 4666 
L 2450 4666 
L 2450 531 
L 3481 531 
L 3481 0 
L 794 0 
L 794 531 
z
" transform="scale(0.015625)"/>
        <path id="DejaVuSans-2e" d="M 684 794 
L 1344 794 
L 1344 0 
L 684 0 
L 684 794 
z
" transform="scale(0.015625)"/>
        <path id="DejaVuSans-30" d="M 2034 4250 
Q 1547 4250 1301 3770 
Q 1056 3291 1056 2328 
Q 1056 1369 1301 889 
Q 1547 409 2034 409 
Q 2525 409 2770 889 
Q 3016 1369 3016 2328 
Q 3016 3291 2770 3770 
Q 2525 4250 2034 4250 
z
M 2034 4750 
Q 2819 4750 3233 4129 
Q 3647 3509 3647 2328 
Q 3647 1150 3233 529 
Q 2819 -91 2034 -91 
Q 1250 -91 836 529 
Q 422 1150 422 2328 
Q 422 3509 836 4129 
Q 1250 4750 2034 4750 
z
" transform="scale(0.015625)"/>
       </defs>
       <use xlink:href="#DejaVuSans-2212"/>
       <use xlink:href="#DejaVuSans-31" x="83.789062"/>
       <use xlink:href="#DejaVuSans-2e" x="147.412109"/>
       <use xlink:href="#DejaVuSans-30" x="179.199219"/>
      </g>
     </g>
    </g>
    <g id="xtick_2">
     <g id="line2d_2">
      <g>
       <use xlink:href="#mda290e45da" x="119.629821" y="228.183696" style="stroke: #000000; stroke-width: 0.8"/>
      </g>
     </g>
     <g id="text_2">
      <!-- −0.5 -->
      <g transform="translate(107.488415 242.782134)scale(0.1 -0.1)">
       <defs>
        <path id="DejaVuSans-35" d="M 691 4666 
L 3169 4666 
L 3169 4134 
L 1269 4134 
L 1269 2991 
Q 1406 3038 1543 3061 
Q 1681 3084 1819 3084 
Q 2600 3084 3056 2656 
Q 3513 2228 3513 1497 
Q 3513 744 3044 326 
Q 2575 -91 1722 -91 
Q 1428 -91 1123 -41 
Q 819 9 494 109 
L 494 744 
Q 775 591 1075 516 
Q 1375 441 1709 441 
Q 2250 441 2565 725 
Q 2881 1009 2881 1497 
Q 2881 1984 2565 2268 
Q 2250 2553 1709 2553 
Q 1456 2553 1204 2497 
Q 953 2441 691 2322 
L 691 4666 
z
" transform="scale(0.015625)"/>
       </defs>
       <use xlink:href="#DejaVuSans-2212"/>
       <use xlink:href="#DejaVuSans-30" x="83.789062"/>
       <use xlink:href="#DejaVuSans-2e" x="147.412109"/>
       <use xlink:href="#DejaVuSans-35" x="179.199219"/>
      </g>
     </g>
    </g>
    <g id="xtick_3">
     <g id="line2d_3">
      <g>
       <use xlink:href="#mda290e45da" x="175.0149" y="228.183696" style="stroke: #000000; stroke-width: 0.8"/>
      </g>
     </g>
    </g>
    <g id="xtick_4">
     <g id="line2d_4">
      <g>
       <use xlink:href="#mda290e45da" x="230.399979" y="228.183696" style="stroke: #000000; stroke-width: 0.8"/>
      </g>
     </g>
     <g id="text_3">
      <!-- 0.5 -->
      <g transform="translate(222.448416 242.782134)scale(0.1 -0.1)">
       <use xlink:href="#DejaVuSans-30"/>
       <use xlink:href="#DejaVuSans-2e" x="63.623047"/>
       <use xlink:href="#DejaVuSans-35" x="95.410156"/>
      </g>
     </g>
    </g>
    <g id="xtick_5">
     <g id="line2d_5">
      <g>
       <use xlink:href="#mda290e45da" x="285.785058" y="228.183696" style="stroke: #000000; stroke-width: 0.8"/>
      </g>
     </g>
     <g id="text_4">
      <!-- 1.0 -->
      <g transform="translate(277.833495 242.782134)scale(0.1 -0.1)">
       <use xlink:href="#DejaVuSans-31"/>
       <use xlink:href="#DejaVuSans-2e" x="63.623047"/>
       <use xlink:href="#DejaVuSans-30" x="95.410156"/>
      </g>
     </g>
    </g>
    <g id="xtick_6">
     <g id="line2d_6">
      <g>
       <use xlink:href="#mda290e45da" x="341.170137" y="228.183696" style="stroke: #000000; stroke-width: 0.8"/>
      </g>
     </g>
     <g id="text_5">
      <!-- 1.5 -->
      <g transform="translate(333.218574 242.782134)scale(0.1 -0.1)">
       <use xlink:href="#DejaVuSans-31"/>
       <use xlink:href="#DejaVuSans-2e" x="63.623047"/>
       <use xlink:href="#DejaVuSans-35" x="95.410156"/>
      </g>
     </g>
    </g>
    <g id="xtick_7">
     <g id="line2d_7">
      <g>
       <use xlink:href="#mda290e45da" x="396.555216" y="228.183696" style="stroke: #000000; stroke-width: 0.8"/>
      </g>
     </g>
     <g id="text_6">
      <!-- 2.0 -->
      <g transform="translate(388.603653 242.782134)scale(0.1 -0.1)">
       <defs>
        <path id="DejaVuSans-32" d="M 1228 531 
L 3431 531 
L 3431 0 
L 469 0 
L 469 531 
Q 828 903 1448 1529 
Q 2069 2156 2228 2338 
Q 2531 2678 2651 2914 
Q 2772 3150 2772 3378 
Q 2772 3750 2511 3984 
Q 2250 4219 1831 4219 
Q 1534 4219 1204 4116 
Q 875 4013 500 3803 
L 500 4441 
Q 881 4594 1212 4672 
Q 1544 4750 1819 4750 
Q 2544 4750 2975 4387 
Q 3406 4025 3406 3419 
Q 3406 3131 3298 2873 
Q 3191 2616 2906 2266 
Q 2828 2175 2409 1742 
Q 1991 1309 1228 531 
z
" transform="scale(0.015625)"/>
       </defs>
       <use xlink:href="#DejaVuSans-32"/>
       <use xlink:href="#DejaVuSans-2e" x="63.623047"/>
       <use xlink:href="#DejaVuSans-30" x="95.410156"/>
      </g>
     </g>
    </g>
    <g id="xtick_8">
     <g id="line2d_8">
      <defs>
       <path id="m7171bbeb8f" d="M 0 0 
L 0 2 
" style="stroke: #000000; stroke-width: 0.6"/>
      </defs>
      <g>
       <use xlink:href="#m7171bbeb8f" x="75.321758" y="228.183696" style="stroke: #000000; stroke-width: 0.6"/>
      </g>
     </g>
    </g>
    <g id="xtick_9">
     <g id="line2d_9">
      <g>
       <use xlink:href="#m7171bbeb8f" x="86.398773" y="228.183696" style="stroke: #000000; stroke-width: 0.6"/>
      </g>
     </g>
    </g>
    <g id="xtick_10">
     <g id="line2d_10">
      <g>
       <use xlink:href="#m7171bbeb8f" x="97.475789" y="228.183696" style="stroke: #000000; stroke-width: 0.6"/>
      </g>
     </g>
    </g>
    <g id="xtick_11">
     <g id="line2d_11">
      <g>
       <use xlink:href="#m7171bbeb8f" x="108.552805" y="228.183696" style="stroke: #000000; stroke-width: 0.6"/>
      </g>
     </g>
    </g>
    <g id="xtick_12">
     <g id="line2d_12">
      <g>
       <use xlink:href="#m7171bbeb8f" x="130.706837" y="228.183696" style="stroke: #000000; stroke-width: 0.6"/>
      </g>
     </g>
    </g>
    <g id="xtick_13">
     <g id="line2d_13">
      <g>
       <use xlink:href="#m7171bbeb8f" x="141.783852" y="228.183696" style="stroke: #000000; stroke-width: 0.6"/>
      </g>
     </g>
    </g>
    <g id="xtick_14">
     <g id="line2d_14">
      <g>
       <use xlink:href="#m7171bbeb8f" x="152.860868" y="228.183696" style="stroke: #000000; stroke-width: 0.6"/>
      </g>
     </g>
    </g>
    <g id="xtick_15">
     <g id="line2d_15">
      <g>
       <use xlink:href="#m7171bbeb8f" x="163.937884" y="228.183696" style="stroke: #000000; stroke-width: 0.6"/>
      </g>
     </g>
    </g>
    <g id="xtick_16">
     <g id="line2d_16">
      <g>
       <use xlink:href="#m7171bbeb8f" x="186.091916" y="228.183696" style="stroke: #000000; stroke-width: 0.6"/>
      </g>
     </g>
    </g>
    <g id="xtick_17">
     <g id="line2d_17">
      <g>
       <use xlink:href="#m7171bbeb8f" x="197.168931" y="228.183696" style="stroke: #000000; stroke-width: 0.6"/>
      </g>
     </g>
    </g>
    <g id="xtick_18">
     <g id="line2d_18">
      <g>
       <use xlink:href="#m7171bbeb8f" x="208.245947" y="228.183696" style="stroke: #000000; stroke-width: 0.6"/>
      </g>
     </g>
    </g>
    <g id="xtick_19">
     <g id="line2d_19">
      <g>
       <use xlink:href="#m7171bbeb8f" x="219.322963" y="228.183696" style="stroke: #000000; stroke-width: 0.6"/>
      </g>
     </g>
    </g>
    <g id="xtick_20">
     <g id="line2d_20">
      <g>
       <use xlink:href="#m7171bbeb8f" x="241.476995" y="228.183696" style="stroke: #000000; stroke-width: 0.6"/>
      </g>
     </g>
    </g>
    <g id="xtick_21">
     <g id="line2d_21">
      <g>
       <use xlink:href="#m7171bbeb8f" x="252.55401" y="228.183696" style="stroke: #000000; stroke-width: 0.6"/>
      </g>
     </g>
    </g>
    <g id="xtick_22">
     <g id="line2d_22">
      <g>
       <use xlink:href="#m7171bbeb8f" x="263.631026" y="228.183696" style="stroke: #000000; stroke-width: 0.6"/>
      </g>
     </g>
    </g>
    <g id="xtick_23">
     <g id="line2d_23">
      <g>
       <use xlink:href="#m7171bbeb8f" x="274.708042" y="228.183696" style="stroke: #000000; stroke-width: 0.6"/>
      </g>
     </g>
    </g>
    <g id="xtick_24">
     <g id="line2d_24">
      <g>
       <use xlink:href="#m7171bbeb8f" x="296.862074" y="228.183696" style="stroke: #000000; stroke-width: 0.6"/>
      </g>
     </g>
    </g>
    <g id="xtick_25">
     <g id="line2d_25">
      <g>
       <use xlink:href="#m7171bbeb8f" x="307.93909" y="228.183696" style="stroke: #000000; stroke-width: 0.6"/>
      </g>
     </g>
    </g>
    <g id="xtick_26">
     <g id="line2d_26">
      <g>
       <use xlink:href="#m7171bbeb8f" x="319.016105" y="228.183696" style="stroke: #000000; stroke-width: 0.6"/>
      </g>
     </g>
    </g>
    <g id="xtick_27">
     <g id="line2d_27">
      <g>
       <use xlink:href="#m7171bbeb8f" x="330.093121" y="228.183696" style="stroke: #000000; stroke-width: 0.6"/>
      </g>
     </g>
    </g>
    <g id="xtick_28">
     <g id="line2d_28">
      <g>
       <use xlink:href="#m7171bbeb8f" x="352.247153" y="228.183696" style="stroke: #000000; stroke-width: 0.6"/>
      </g>
     </g>
    </g>
    <g id="xtick_29">
     <g id="line2d_29">
      <g>
       <use xlink:href="#m7171bbeb8f" x="363.324169" y="228.183696" style="stroke: #000000; stroke-width: 0.6"/>
      </g>
     </g>
    </g>
    <g id="xtick_30">
     <g id="line2d_30">
      <g>
       <use xlink:href="#m7171bbeb8f" x="374.401184" y="228.183696" style="stroke: #000000; stroke-width: 0.6"/>
      </g>
     </g>
    </g>
    <g id="xtick_31">
     <g id="line2d_31">
      <g>
       <use xlink:href="#m7171bbeb8f" x="385.4782" y="228.183696" style="stroke: #000000; stroke-width: 0.6"/>
      </g>
     </g>
    </g>
   </g>
   <g id="matplotlib.axis_2">
    <g id="ytick_1">
     <g id="line2d_32">
      <defs>
       <path id="m5e666896b2" d="M 0 0 
L -3.5 0 
" style="stroke: #000000; stroke-width: 0.8"/>
      </defs>
      <g>
       <use xlink:href="#m5e666896b2" x="175.0149" y="338.953854" style="stroke: #000000; stroke-width: 0.8"/>
      </g>
     </g>
     <g id="text_7">
      <!-- −1.0 -->
      <g transform="translate(143.732087 342.753073)scale(0.1 -0.1)">
       <use xlink:href="#DejaVuSans-2212"/>
       <use xlink:href="#DejaVuSans-31" x="83.789062"/>
       <use xlink:href="#DejaVuSans-2e" x="147.412109"/>
       <use xlink:href="#DejaVuSans-30" x="179.199219"/>
      </g>
     </g>
    </g>
    <g id="ytick_2">
     <g id="line2d_33">
      <g>
       <use xlink:href="#m5e666896b2" x="175.0149" y="283.568775" style="stroke: #000000; stroke-width: 0.8"/>
      </g>
     </g>
     <g id="text_8">
      <!-- −0.5 -->
      <g transform="translate(143.732087 287.367994)scale(0.1 -0.1)">
       <use xlink:href="#DejaVuSans-2212"/>
       <use xlink:href="#DejaVuSans-30" x="83.789062"/>
       <use xlink:href="#DejaVuSans-2e" x="147.412109"/>
       <use xlink:href="#DejaVuSans-35" x="179.199219"/>
      </g>
     </g>
    </g>
    <g id="ytick_3">
     <g id="line2d_34">
      <g>
       <use xlink:href="#m5e666896b2" x="175.0149" y="228.183696" style="stroke: #000000; stroke-width: 0.8"/>
      </g>
     </g>
    </g>
    <g id="ytick_4">
     <g id="line2d_35">
      <g>
       <use xlink:href="#m5e666896b2" x="175.0149" y="172.798617" style="stroke: #000000; stroke-width: 0.8"/>
      </g>
     </g>
     <g id="text_9">
      <!-- 0.5 -->
      <g transform="translate(152.111775 176.597836)scale(0.1 -0.1)">
       <use xlink:href="#DejaVuSans-30"/>
       <use xlink:href="#DejaVuSans-2e" x="63.623047"/>
       <use xlink:href="#DejaVuSans-35" x="95.410156"/>
      </g>
     </g>
    </g>
    <g id="ytick_5">
     <g id="line2d_36">
      <g>
       <use xlink:href="#m5e666896b2" x="175.0149" y="117.413538" style="stroke: #000000; stroke-width: 0.8"/>
      </g>
     </g>
     <g id="text_10">
      <!-- 1.0 -->
      <g transform="translate(152.111775 121.212757)scale(0.1 -0.1)">
       <use xlink:href="#DejaVuSans-31"/>
       <use xlink:href="#DejaVuSans-2e" x="63.623047"/>
       <use xlink:href="#DejaVuSans-30" x="95.410156"/>
      </g>
     </g>
    </g>
    <g id="ytick_6">
     <g id="line2d_37">
      <g>
       <use xlink:href="#m5e666896b2" x="175.0149" y="62.028459" style="stroke: #000000; stroke-width: 0.8"/>
      </g>
     </g>
     <g id="text_11">
      <!-- 1.5 -->
      <g transform="translate(152.111775 65.827678)scale(0.1 -0.1)">
       <use xlink:href="#DejaVuSans-31"/>
       <use xlink:href="#DejaVuSans-2e" x="63.623047"/>
       <use xlink:href="#DejaVuSans-35" x="95.410156"/>
      </g>
     </g>
    </g>
    <g id="ytick_7">
     <g id="line2d_38">
      <g>
       <use xlink:href="#m5e666896b2" x="175.0149" y="6.64338" style="stroke: #000000; stroke-width: 0.8"/>
      </g>
     </g>
     <g id="text_12">
      <!-- 2.0 -->
      <g transform="translate(152.111775 10.442599)scale(0.1 -0.1)">
       <use xlink:href="#DejaVuSans-32"/>
       <use xlink:href="#DejaVuSans-2e" x="63.623047"/>
       <use xlink:href="#DejaVuSans-30" x="95.410156"/>
      </g>
     </g>
    </g>
    <g id="ytick_8">
     <g id="line2d_39">
      <defs>
       <path id="m5ec03dbbf8" d="M 0 0 
L -2 0 
" style="stroke: #000000; stroke-width: 0.6"/>
      </defs>
      <g>
       <use xlink:href="#m5ec03dbbf8" x="175.0149" y="327.876838" style="stroke: #000000; stroke-width: 0.6"/>
      </g>
     </g>
    </g>
    <g id="ytick_9">
     <g id="line2d_40">
      <g>
       <use xlink:href="#m5ec03dbbf8" x="175.0149" y="316.799823" style="stroke: #000000; stroke-width: 0.6"/>
      </g>
     </g>
    </g>
    <g id="ytick_10">
     <g id="line2d_41">
      <g>
       <use xlink:href="#m5ec03dbbf8" x="175.0149" y="305.722807" style="stroke: #000000; stroke-width: 0.6"/>
      </g>
     </g>
    </g>
    <g id="ytick_11">
     <g id="line2d_42">
      <g>
       <use xlink:href="#m5ec03dbbf8" x="175.0149" y="294.645791" style="stroke: #000000; stroke-width: 0.6"/>
      </g>
     </g>
    </g>
    <g id="ytick_12">
     <g id="line2d_43">
      <g>
       <use xlink:href="#m5ec03dbbf8" x="175.0149" y="272.491759" style="stroke: #000000; stroke-width: 0.6"/>
      </g>
     </g>
    </g>
    <g id="ytick_13">
     <g id="line2d_44">
      <g>
       <use xlink:href="#m5ec03dbbf8" x="175.0149" y="261.414744" style="stroke: #000000; stroke-width: 0.6"/>
      </g>
     </g>
    </g>
    <g id="ytick_14">
     <g id="line2d_45">
      <g>
       <use xlink:href="#m5ec03dbbf8" x="175.0149" y="250.337728" style="stroke: #000000; stroke-width: 0.6"/>
      </g>
     </g>
    </g>
    <g id="ytick_15">
     <g id="line2d_46">
      <g>
       <use xlink:href="#m5ec03dbbf8" x="175.0149" y="239.260712" style="stroke: #000000; stroke-width: 0.6"/>
      </g>
     </g>
    </g>
    <g id="ytick_16">
     <g id="line2d_47">
      <g>
       <use xlink:href="#m5ec03dbbf8" x="175.0149" y="217.10668" style="stroke: #000000; stroke-width: 0.6"/>
      </g>
     </g>
    </g>
    <g id="ytick_17">
     <g id="line2d_48">
      <g>
       <use xlink:href="#m5ec03dbbf8" x="175.0149" y="206.029664" style="stroke: #000000; stroke-width: 0.6"/>
      </g>
     </g>
    </g>
    <g id="ytick_18">
     <g id="line2d_49">
      <g>
       <use xlink:href="#m5ec03dbbf8" x="175.0149" y="194.952649" style="stroke: #000000; stroke-width: 0.6"/>
      </g>
     </g>
    </g>
    <g id="ytick_19">
     <g id="line2d_50">
      <g>
       <use xlink:href="#m5ec03dbbf8" x="175.0149" y="183.875633" style="stroke: #000000; stroke-width: 0.6"/>
      </g>
     </g>
    </g>
    <g id="ytick_20">
     <g id="line2d_51">
      <g>
       <use xlink:href="#m5ec03dbbf8" x="175.0149" y="161.721601" style="stroke: #000000; stroke-width: 0.6"/>
      </g>
     </g>
    </g>
    <g id="ytick_21">
     <g id="line2d_52">
      <g>
       <use xlink:href="#m5ec03dbbf8" x="175.0149" y="150.644585" style="stroke: #000000; stroke-width: 0.6"/>
      </g>
     </g>
    </g>
    <g id="ytick_22">
     <g id="line2d_53">
      <g>
       <use xlink:href="#m5ec03dbbf8" x="175.0149" y="139.56757" style="stroke: #000000; stroke-width: 0.6"/>
      </g>
     </g>
    </g>
    <g id="ytick_23">
     <g id="line2d_54">
      <g>
       <use xlink:href="#m5ec03dbbf8" x="175.0149" y="128.490554" style="stroke: #000000; stroke-width: 0.6"/>
      </g>
     </g>
    </g>
    <g id="ytick_24">
     <g id="line2d_55">
      <g>
       <use xlink:href="#m5ec03dbbf8" x="175.0149" y="106.336522" style="stroke: #000000; stroke-width: 0.6"/>
      </g>
     </g>
    </g>
    <g id="ytick_25">
     <g id="line2d_56">
      <g>
       <use xlink:href="#m5ec03dbbf8" x="175.0149" y="95.259506" style="stroke: #000000; stroke-width: 0.6"/>
      </g>
     </g>
    </g>
    <g id="ytick_26">
     <g id="line2d_57">
      <g>
       <use xlink:href="#m5ec03dbbf8" x="175.0149" y="84.182491" style="stroke: #000000; stroke-width: 0.6"/>
      </g>
     </g>
    </g>
    <g id="ytick_27">
     <g id="line2d_58">
      <g>
       <use xlink:href="#m5ec03dbbf8" x="175.0149" y="73.105475" style="stroke: #000000; stroke-width: 0.6"/>
      </g>
     </g>
    </g>
    <g id="ytick_28">
     <g id="line2d_59">
      <g>
       <use xlink:href="#m5ec03dbbf8" x="175.0149" y="50.951443" style="stroke: #000000; stroke-width: 0.6"/>
      </g>
     </g>
    </g>
    <g id="ytick_29">
     <g id="line2d_60">
      <g>
       <use xlink:href="#m5ec03dbbf8" x="175.0149" y="39.874427" style="stroke: #000000; stroke-width: 0.6"/>
      </g>
     </g>
    </g>
    <g id="ytick_30">
     <g id="line2d_61">
      <g>
       <use xlink:href="#m5ec03dbbf8" x="175.0149" y="28.797412" style="stroke: #000000; stroke-width: 0.6"/>
      </g>
     </g>
    </g>
    <g id="ytick_31">
     <g id="line2d_62">
      <g>
       <use xlink:href="#m5ec03dbbf8" x="175.0149" y="17.720396" style="stroke: #000000; stroke-width: 0.6"/>
      </g>
     </g>
    </g>
   </g>
   <g id="line2d_63">
    <path d="M 175.0149 228.183696 
L 184.945471 227.737659 
L 191.922053 226.8858 
L 194.649851 226.429576 
L 205.041703 224.036326 
L 211.425376 222.028571 
L 217.842301 219.569505 
L 221.687102 217.871158 
L 232.523542 212.085519 
L 239.307032 207.616363 
L 247.291173 201.354995 
L 252.890758 196.187764 
L 256.462086 192.489392 
L 259.783764 188.717588 
L 262.876305 184.870201 
L 268.555368 176.744885 
L 273.884947 167.360927 
L 275.241472 164.579862 
L 277.441236 159.590234 
L 279.392778 154.498394 
L 281.955281 146.288837 
L 283.2937 140.77439 
L 284.229205 135.913905 
L 284.946642 131.01648 
L 285.617259 123.50829 
L 285.772685 115.757941 
L 285.560496 110.363788 
L 285.081654 104.950094 
L 284.030497 97.776138 
L 282.9782 92.635448 
L 281.683632 87.550359 
L 280.212553 82.722303 
L 278.409007 77.668268 
L 276.36281 72.707509 
L 272.88978 65.543163 
L 269.129078 58.996508 
L 265.679687 53.774522 
L 261.940882 48.75568 
L 258.922274 45.097699 
L 254.341051 40.099958 
L 251.456847 37.247107 
L 247.572191 33.714867 
L 241.47817 28.798293 
L 236.75661 25.446211 
L 231.866331 22.345443 
L 228.008745 20.142369 
L 224.338166 18.23066 
L 220.598736 16.4574 
L 216.751892 14.807245 
L 212.845448 13.303608 
L 206.941832 11.344226 
L 203.093892 10.261319 
L 199.209384 9.317956 
L 194.155719 8.309657 
L 189.061203 7.537566 
L 183.936293 7.003228 
L 180.502511 6.779393 
L 175.798798 6.646154 
L 170.691667 6.727778 
L 165.593729 7.04475 
L 159.412939 7.747651 
L 155.627389 8.353223 
L 149.351675 9.657207 
L 141.503201 11.834213 
L 136.850278 13.425608 
L 132.272572 15.221947 
L 128.228284 17.009153 
L 124.258544 18.956338 
L 118.678704 22.039218 
L 114.906147 24.370721 
L 110.420853 27.426667 
L 106.09063 30.698643 
L 103.330658 32.965937 
L 99.617372 36.264042 
L 94.040748 41.827729 
L 89.755956 46.696211 
L 86.525385 50.782962 
L 83.490531 55.017082 
L 80.628065 59.438084 
L 76.581481 66.611078 
L 74.328954 71.235966 
L 72.016809 76.653003 
L 69.995865 82.185279 
L 68.301909 87.708901 
L 66.155408 96.928445 
L 65.163447 103.176746 
L 64.529825 109.471489 
L 64.249092 116.431893 
L 64.313343 121.311398 
L 65.01664 130.467685 
L 66.006785 137.092428 
L 66.624786 140.252347 
L 68.900377 149.18988 
L 70.568866 154.306003 
L 73.976916 162.815671 
L 74.958266 164.939299 
L 78.556605 171.872928 
L 82.743514 178.699909 
L 88.029523 185.996131 
L 92.608055 191.43475 
L 95.583668 194.619155 
L 99.008958 197.993465 
L 105.43005 203.599248 
L 110.054054 207.135979 
L 117.164931 211.877335 
L 122.956644 215.188616 
L 130.462586 218.829115 
L 136.617133 221.315605 
L 146.592194 224.475098 
L 153.286614 226.03172 
L 158.73732 226.981181 
L 162.4276 227.466197 
L 173.924555 228.17833 
L 181.665992 227.983836 
L 188.465988 227.363964 
L 191.296297 226.980613 
L 196.574041 226.06542 
L 207.202631 223.403999 
L 210.222932 222.439356 
L 216.341692 220.185733 
L 225.076737 216.225685 
L 230.70839 213.164585 
L 237.004952 209.213655 
L 241.223853 206.218957 
L 251.113127 197.906319 
L 253.066487 196.01365 
L 259.020632 189.615095 
L 263.13354 184.533827 
L 266.369934 180.057658 
L 272.153202 170.650539 
L 274.906453 165.285299 
L 277.238718 160.078735 
L 279.476447 154.262054 
L 280.784632 150.319337 
L 282.798285 142.962898 
L 284.285315 135.579561 
L 285.252045 128.2671 
L 285.715304 121.343988 
L 285.775413 115.951776 
L 285.361421 107.735044 
L 284.218614 98.850759 
L 282.37583 90.143436 
L 280.315702 83.036673 
L 278.493695 77.889282 
L 276.968728 74.107132 
L 274.543532 68.79174 
L 271.584255 63.151328 
L 268.305667 57.690337 
L 264.969282 52.774254 
L 262.921483 50.015759 
L 260.054922 46.433101 
L 257.042453 42.972229 
L 252.990297 38.737841 
L 249.221401 35.173504 
L 243.844719 30.623655 
L 238.032917 26.316022 
L 233.819641 23.541123 
L 229.484386 20.960944 
L 225.900548 19.023098 
L 222.247871 17.218357 
L 217.807537 15.243003 
L 210.497109 12.480032 
L 205.256025 10.851339 
L 197.917188 9.03682 
L 192.019345 7.956347 
L 187.272296 7.323647 
L 182.502335 6.896724 
L 176.875655 6.65901 
L 171.086815 6.71305 
L 166.40783 6.97828 
L 159.161892 7.783661 
L 153.221771 8.808347 
L 147.346186 10.154645 
L 140.154016 12.271983 
L 135.131606 14.072594 
L 131.283909 15.641104 
L 125.01329 18.570901 
L 121.298907 20.539289 
L 117.661886 22.647195 
L 113.322954 25.412822 
L 109.496793 28.097215 
L 105.78728 30.940626 
L 101.850607 34.24495 
L 96.021146 39.760368 
L 92.400094 43.624502 
L 88.967861 47.657284 
L 84.721426 53.248777 
L 79.496603 61.321802 
L 76.662425 66.45455 
L 74.049558 71.850092 
L 71.732419 77.37909 
L 70.609551 80.406092 
L 68.769591 86.07726 
L 67.581881 90.428834 
L 66.572321 94.825155 
L 65.606195 100.099866 
L 64.721246 107.150119 
L 64.3617 112.324602 
L 64.244784 117.510243 
L 64.541348 125.514296 
L 65.646445 134.979672 
L 66.636498 140.307859 
L 67.885968 145.581247 
L 68.955758 149.374239 
L 70.638315 154.502032 
L 72.568629 159.541788 
L 75.636514 166.341693 
L 78.350024 171.505401 
L 82.116014 177.744499 
L 86.570889 184.104503 
L 90.396885 188.89654 
L 94.375625 193.356511 
L 99.201489 198.174634 
L 107.809528 205.467305 
L 113.021874 209.211646 
L 118.383055 212.612604 
L 126.806983 217.143296 
L 137.270864 221.554864 
L 140.799919 222.767052 
L 150.082136 225.341223 
L 155.01183 226.362632 
L 159.843951 227.13988 
L 169.939782 228.067373 
L 175.0149 228.183696 
L 175.0149 228.183696 
" clip-path="url(#p1a19c01ceb)" style="fill: none; stroke: #0000cc; stroke-linecap: square"/>
   </g>
   <g id="line2d_64">
    <path d="M 396.555216 228.183696 
L 396.370757 221.79378 
L 396.02922 217.401645 
L 395.51331 213.026564 
L 394.864832 208.905969 
L 394.061671 204.812712 
L 392.827134 199.687697 
L 391.137283 193.964745 
L 388.92669 187.78776 
L 387.276793 183.805148 
L 384.03837 177.033773 
L 380.861026 171.345432 
L 377.212488 165.645285 
L 372.210299 158.896572 
L 366.896399 152.745124 
L 363.665909 149.414406 
L 360.298763 146.221902 
L 357.887035 144.092479 
L 352.581578 139.819377 
L 346.71157 135.674302 
L 340.827523 132.056931 
L 333.956972 128.436543 
L 328.726344 126.075548 
L 320.728244 123.069465 
L 313.774523 121.008056 
L 307.490521 119.560951 
L 302.285318 118.649367 
L 297.042561 117.987069 
L 293.777092 117.702226 
L 288.361782 117.443512 
L 282.9403 117.450073 
L 277.68293 117.710245 
L 273.755486 118.068678 
L 267.347784 118.958723 
L 261.002967 120.221314 
L 257.189962 121.168051 
L 248.956935 123.714958 
L 244.573054 125.365416 
L 239.176725 127.696427 
L 229.880633 132.55565 
L 222.77852 137.078241 
L 218.409447 140.260121 
L 212.966186 144.712505 
L 210.310929 147.105439 
L 203.889051 153.597692 
L 201.048926 156.840751 
L 193.953363 166.240434 
L 188.94008 174.414949 
L 185.761943 180.587432 
L 181.361459 191.227779 
L 180.541621 193.631607 
L 178.074313 202.329813 
L 176.97223 207.452167 
L 175.367107 219.357366 
L 175.082522 224.313743 
L 175.054939 231.161725 
L 175.407653 237.503376 
L 176.54696 246.543051 
L 177.138286 249.768571 
L 178.987259 257.581963 
L 181.383289 265.20124 
L 182.818728 269.024397 
L 185.395865 275.0029 
L 188.052833 280.322358 
L 192.126625 287.328653 
L 198.261642 296.078317 
L 199.955525 298.2074 
L 204.927272 303.893975 
L 210.63246 309.560074 
L 216.358366 314.496861 
L 220.544847 317.703207 
L 229.125104 323.366035 
L 234.74286 326.493014 
L 241.37273 329.660654 
L 247.8976 332.272929 
L 254.600385 334.473602 
L 257.372501 335.24795 
L 263.932966 336.777038 
L 272.252725 338.124152 
L 277.977557 338.67836 
L 284.271926 338.943519 
L 290.571189 338.850407 
L 299.894151 338.051623 
L 306.401882 337.018316 
L 312.286422 335.736965 
L 318.092626 334.137691 
L 323.56068 332.313568 
L 327.53275 330.785636 
L 333.362751 328.215646 
L 338.230472 325.751654 
L 342.970965 323.050971 
L 345.757166 321.314648 
L 349.540077 318.766947 
L 353.214906 316.065682 
L 358.870633 311.421468 
L 362.775237 307.823763 
L 366.691525 303.84195 
L 370.402139 299.667803 
L 375.508638 293.142968 
L 379.072769 287.911671 
L 382.332255 282.485323 
L 384.721428 277.999582 
L 386.706269 273.844808 
L 388.618803 269.357096 
L 390.331894 264.789529 
L 391.624894 260.863307 
L 393.538176 253.860406 
L 394.700759 248.3678 
L 395.768818 241.359444 
L 396.413743 233.780292 
L 396.554509 227.787891 
L 396.458491 223.555626 
L 396.200827 219.330122 
L 395.581729 213.530406 
L 394.658208 207.771319 
L 393.411569 201.981367 
L 391.321634 194.537611 
L 388.555462 186.85245 
L 385.573809 180.098012 
L 383.177693 175.413415 
L 380.561813 170.847891 
L 378.308572 167.278628 
L 373.980937 161.164932 
L 370.365994 156.656827 
L 366.445223 152.26291 
L 360.615107 146.510618 
L 355.723965 142.285051 
L 348.799258 137.08354 
L 344.482725 134.244291 
L 340.038493 131.60941 
L 334.262835 128.584836 
L 329.281016 126.310591 
L 324.505764 124.401545 
L 319.64705 122.716197 
L 312.853501 120.771745 
L 309.60836 120.005703 
L 301.782211 118.574759 
L 294.283201 117.740002 
L 287.507167 117.426925 
L 280.35459 117.546732 
L 273.180563 118.133005 
L 265.66395 119.25634 
L 261.261316 120.162337 
L 251.890048 122.726803 
L 248.551598 123.858736 
L 243.061786 125.984137 
L 235.329723 129.571896 
L 230.719999 132.069872 
L 223.547682 136.551077 
L 217.874414 140.672712 
L 213.844072 143.954708 
L 206.901723 150.41836 
L 203.007858 154.576882 
L 199.080529 159.246387 
L 194.54802 165.367847 
L 191.370541 170.253334 
L 185.707854 180.701265 
L 183.27047 186.22196 
L 179.966505 195.435233 
L 178.616476 200.167221 
L 177.312183 205.741252 
L 175.826005 214.803317 
L 175.28195 220.496619 
L 175.018763 229.108857 
L 175.07135 231.719618 
L 175.772495 241.116748 
L 176.531025 246.447985 
L 178.453818 255.570423 
L 180.640559 263.035701 
L 183.004718 269.490229 
L 186.615239 277.533213 
L 192.091485 287.272969 
L 197.050357 294.487398 
L 201.661679 300.248147 
L 204.9353 303.902548 
L 208.440965 307.480097 
L 213.117739 311.786858 
L 220.151932 317.415533 
L 222.949543 319.407191 
L 228.395918 322.928166 
L 233.952871 326.078805 
L 239.682202 328.903876 
L 248.084774 332.340868 
L 256.111677 334.905382 
L 261.764283 336.318012 
L 267.498902 337.434071 
L 273.284388 338.246229 
L 277.675128 338.656575 
L 285.743064 338.953846 
L 292.49637 338.750356 
L 295.985134 338.483226 
L 301.903057 337.774928 
L 307.774316 336.749346 
L 311.223755 335.993253 
L 316.705262 334.550838 
L 322.105809 332.829914 
L 327.948018 330.615687 
L 333.906168 327.955369 
L 339.914469 324.827552 
L 343.265776 322.872634 
L 349.858779 318.541796 
L 355.827977 313.997549 
L 360.877372 309.615707 
L 364.728504 305.888008 
L 368.394813 301.978387 
L 372.48261 297.129779 
L 378.346557 289.03102 
L 381.926456 283.200598 
L 385.179822 277.07857 
L 387.246649 272.63112 
L 389.114591 268.096545 
L 390.549719 264.16138 
L 391.835042 260.17477 
L 392.879964 256.480498 
L 393.922626 252.189827 
L 394.710424 248.315577 
L 395.359465 244.415681 
L 396.021136 239.048084 
L 396.420031 233.65459 
L 396.555216 228.183696 
L 396.555216 228.183696 
" clip-path="url(#p1a19c01ceb)" style="fill: none; stroke: #3ccc00; stroke-linecap: square"/>
   </g>
   <g id="patch_3">
    <path d="M 175.0149 345.6 
L 175.0149 0 
" style="fill: none; stroke: #000000; stroke-width: 0.8; stroke-linejoin: miter; stroke-linecap: square"/>
   </g>
   <g id="patch_4">
    <path d="M 57.598575 228.183696 
L 403.201425 228.183696 
" style="fill: none; stroke: #000000; stroke-width: 0.8; stroke-linejoin: miter; stroke-linecap: square"/>
   </g>
  </g>
 </g>
 <defs>
  <clipPath id="p1a19c01ceb">
   <rect x="57.598575" y="0" width="345.602849" height="345.6"/>
  </clipPath>
 </defs>
</svg>
