<?xml version="1.0" encoding="utf-8" standalone="no"?>
<!DOCTYPE svg PUBLIC "-//W3C//DTD SVG 1.1//EN"
  "http://www.w3.org/Graphics/SVG/1.1/DTD/svg11.dtd">
<svg xmlns:xlink="http://www.w3.org/1999/xlink" width="460.8pt" height="345.6pt" viewBox="0 0 460.8 345.6" xmlns="http://www.w3.org/2000/svg" version="1.1">
 <metadata>
  <rdf:RDF xmlns:dc="http://purl.org/dc/elements/1.1/" xmlns:cc="http://creativecommons.org/ns#" xmlns:rdf="http://www.w3.org/1999/02/22-rdf-syntax-ns#">
   <cc:Work>
    <dc:type rdf:resource="http://purl.org/dc/dcmitype/StillImage"/>
    <dc:date>2022-05-16T19:39:03.518128</dc:date>
    <dc:format>image/svg+xml</dc:format>
    <dc:creator>
     <cc:Agent>
      <dc:title>Matplotlib v3.5.1, https://matplotlib.org/</dc:title>
     </cc:Agent>
    </dc:creator>
   </cc:Work>
  </rdf:RDF>
 </metadata>
 <defs>
  <style type="text/css">*{stroke-linejoin: round; stroke-linecap: butt}</style>
 </defs>
 <g id="figure_1">
  <g id="patch_1">
   <path d="M 0 345.6 
L 460.8 345.6 
L 460.8 0 
L 0 0 
z
" style="fill: #ffffff"/>
  </g>
  <g id="axes_1">
   <g id="patch_2">
    <path d="M 14.813839 268.4375 
L 460.8 268.4375 
L 460.8 77.1625 
L 14.813839 77.1625 
z
" style="fill: #ffffff"/>
   </g>
   <g id="matplotlib.axis_1">
    <g id="xtick_1">
     <g id="line2d_1">
      <defs>
       <path id="mf7c0d4672b" d="M 0 0 
L 0 3.5 
" style="stroke: #000000; stroke-width: 0.8"/>
      </defs>
      <g>
       <use xlink:href="#mf7c0d4672b" x="23.390496" y="264.759135" style="stroke: #000000; stroke-width: 0.8"/>
      </g>
     </g>
    </g>
    <g id="xtick_2">
     <g id="line2d_2">
      <g>
       <use xlink:href="#mf7c0d4672b" x="130.598708" y="264.759135" style="stroke: #000000; stroke-width: 0.8"/>
      </g>
     </g>
     <g id="text_1">
      <!-- 0.5 -->
      <g transform="translate(122.647145 279.357572)scale(0.1 -0.1)">
       <defs>
        <path id="DejaVuSans-30" d="M 2034 4250 
Q 1547 4250 1301 3770 
Q 1056 3291 1056 2328 
Q 1056 1369 1301 889 
Q 1547 409 2034 409 
Q 2525 409 2770 889 
Q 3016 1369 3016 2328 
Q 3016 3291 2770 3770 
Q 2525 4250 2034 4250 
z
M 2034 4750 
Q 2819 4750 3233 4129 
Q 3647 3509 3647 2328 
Q 3647 1150 3233 529 
Q 2819 -91 2034 -91 
Q 1250 -91 836 529 
Q 422 1150 422 2328 
Q 422 3509 836 4129 
Q 1250 4750 2034 4750 
z
" transform="scale(0.015625)"/>
        <path id="DejaVuSans-2e" d="M 684 794 
L 1344 794 
L 1344 0 
L 684 0 
L 684 794 
z
" transform="scale(0.015625)"/>
        <path id="DejaVuSans-35" d="M 691 4666 
L 3169 4666 
L 3169 4134 
L 1269 4134 
L 1269 2991 
Q 1406 3038 1543 3061 
Q 1681 3084 1819 3084 
Q 2600 3084 3056 2656 
Q 3513 2228 3513 1497 
Q 3513 744 3044 326 
Q 2575 -91 1722 -91 
Q 1428 -91 1123 -41 
Q 819 9 494 109 
L 494 744 
Q 775 591 1075 516 
Q 1375 441 1709 441 
Q 2250 441 2565 725 
Q 2881 1009 2881 1497 
Q 2881 1984 2565 2268 
Q 2250 2553 1709 2553 
Q 1456 2553 1204 2497 
Q 953 2441 691 2322 
L 691 4666 
z
" transform="scale(0.015625)"/>
       </defs>
       <use xlink:href="#DejaVuSans-30"/>
       <use xlink:href="#DejaVuSans-2e" x="63.623047"/>
       <use xlink:href="#DejaVuSans-35" x="95.410156"/>
      </g>
     </g>
    </g>
    <g id="xtick_3">
     <g id="line2d_3">
      <g>
       <use xlink:href="#mf7c0d4672b" x="237.806919" y="264.759135" style="stroke: #000000; stroke-width: 0.8"/>
      </g>
     </g>
     <g id="text_2">
      <!-- 1.0 -->
      <g transform="translate(229.855357 279.357572)scale(0.1 -0.1)">
       <defs>
        <path id="DejaVuSans-31" d="M 794 531 
L 1825 531 
L 1825 4091 
L 703 3866 
L 703 4441 
L 1819 4666 
L 2450 4666 
L 2450 531 
L 3481 531 
L 3481 0 
L 794 0 
L 794 531 
z
" transform="scale(0.015625)"/>
       </defs>
       <use xlink:href="#DejaVuSans-31"/>
       <use xlink:href="#DejaVuSans-2e" x="63.623047"/>
       <use xlink:href="#DejaVuSans-30" x="95.410156"/>
      </g>
     </g>
    </g>
    <g id="xtick_4">
     <g id="line2d_4">
      <g>
       <use xlink:href="#mf7c0d4672b" x="345.015131" y="264.759135" style="stroke: #000000; stroke-width: 0.8"/>
      </g>
     </g>
     <g id="text_3">
      <!-- 1.5 -->
      <g transform="translate(337.063569 279.357572)scale(0.1 -0.1)">
       <use xlink:href="#DejaVuSans-31"/>
       <use xlink:href="#DejaVuSans-2e" x="63.623047"/>
       <use xlink:href="#DejaVuSans-35" x="95.410156"/>
      </g>
     </g>
    </g>
    <g id="xtick_5">
     <g id="line2d_5">
      <g>
       <use xlink:href="#mf7c0d4672b" x="452.223343" y="264.759135" style="stroke: #000000; stroke-width: 0.8"/>
      </g>
     </g>
     <g id="text_4">
      <!-- 2.0 -->
      <g transform="translate(444.271781 279.357572)scale(0.1 -0.1)">
       <defs>
        <path id="DejaVuSans-32" d="M 1228 531 
L 3431 531 
L 3431 0 
L 469 0 
L 469 531 
Q 828 903 1448 1529 
Q 2069 2156 2228 2338 
Q 2531 2678 2651 2914 
Q 2772 3150 2772 3378 
Q 2772 3750 2511 3984 
Q 2250 4219 1831 4219 
Q 1534 4219 1204 4116 
Q 875 4013 500 3803 
L 500 4441 
Q 881 4594 1212 4672 
Q 1544 4750 1819 4750 
Q 2544 4750 2975 4387 
Q 3406 4025 3406 3419 
Q 3406 3131 3298 2873 
Q 3191 2616 2906 2266 
Q 2828 2175 2409 1742 
Q 1991 1309 1228 531 
z
" transform="scale(0.015625)"/>
       </defs>
       <use xlink:href="#DejaVuSans-32"/>
       <use xlink:href="#DejaVuSans-2e" x="63.623047"/>
       <use xlink:href="#DejaVuSans-30" x="95.410156"/>
      </g>
     </g>
    </g>
    <g id="xtick_6">
     <g id="line2d_6">
      <defs>
       <path id="mba51357d0b" d="M 0 0 
L 0 2 
" style="stroke: #000000; stroke-width: 0.6"/>
      </defs>
      <g>
       <use xlink:href="#mba51357d0b" x="44.832138" y="264.759135" style="stroke: #000000; stroke-width: 0.6"/>
      </g>
     </g>
    </g>
    <g id="xtick_7">
     <g id="line2d_7">
      <g>
       <use xlink:href="#mba51357d0b" x="66.27378" y="264.759135" style="stroke: #000000; stroke-width: 0.6"/>
      </g>
     </g>
    </g>
    <g id="xtick_8">
     <g id="line2d_8">
      <g>
       <use xlink:href="#mba51357d0b" x="87.715423" y="264.759135" style="stroke: #000000; stroke-width: 0.6"/>
      </g>
     </g>
    </g>
    <g id="xtick_9">
     <g id="line2d_9">
      <g>
       <use xlink:href="#mba51357d0b" x="109.157065" y="264.759135" style="stroke: #000000; stroke-width: 0.6"/>
      </g>
     </g>
    </g>
    <g id="xtick_10">
     <g id="line2d_10">
      <g>
       <use xlink:href="#mba51357d0b" x="152.04035" y="264.759135" style="stroke: #000000; stroke-width: 0.6"/>
      </g>
     </g>
    </g>
    <g id="xtick_11">
     <g id="line2d_11">
      <g>
       <use xlink:href="#mba51357d0b" x="173.481992" y="264.759135" style="stroke: #000000; stroke-width: 0.6"/>
      </g>
     </g>
    </g>
    <g id="xtick_12">
     <g id="line2d_12">
      <g>
       <use xlink:href="#mba51357d0b" x="194.923635" y="264.759135" style="stroke: #000000; stroke-width: 0.6"/>
      </g>
     </g>
    </g>
    <g id="xtick_13">
     <g id="line2d_13">
      <g>
       <use xlink:href="#mba51357d0b" x="216.365277" y="264.759135" style="stroke: #000000; stroke-width: 0.6"/>
      </g>
     </g>
    </g>
    <g id="xtick_14">
     <g id="line2d_14">
      <g>
       <use xlink:href="#mba51357d0b" x="259.248562" y="264.759135" style="stroke: #000000; stroke-width: 0.6"/>
      </g>
     </g>
    </g>
    <g id="xtick_15">
     <g id="line2d_15">
      <g>
       <use xlink:href="#mba51357d0b" x="280.690204" y="264.759135" style="stroke: #000000; stroke-width: 0.6"/>
      </g>
     </g>
    </g>
    <g id="xtick_16">
     <g id="line2d_16">
      <g>
       <use xlink:href="#mba51357d0b" x="302.131846" y="264.759135" style="stroke: #000000; stroke-width: 0.6"/>
      </g>
     </g>
    </g>
    <g id="xtick_17">
     <g id="line2d_17">
      <g>
       <use xlink:href="#mba51357d0b" x="323.573489" y="264.759135" style="stroke: #000000; stroke-width: 0.6"/>
      </g>
     </g>
    </g>
    <g id="xtick_18">
     <g id="line2d_18">
      <g>
       <use xlink:href="#mba51357d0b" x="366.456774" y="264.759135" style="stroke: #000000; stroke-width: 0.6"/>
      </g>
     </g>
    </g>
    <g id="xtick_19">
     <g id="line2d_19">
      <g>
       <use xlink:href="#mba51357d0b" x="387.898416" y="264.759135" style="stroke: #000000; stroke-width: 0.6"/>
      </g>
     </g>
    </g>
    <g id="xtick_20">
     <g id="line2d_20">
      <g>
       <use xlink:href="#mba51357d0b" x="409.340058" y="264.759135" style="stroke: #000000; stroke-width: 0.6"/>
      </g>
     </g>
    </g>
    <g id="xtick_21">
     <g id="line2d_21">
      <g>
       <use xlink:href="#mba51357d0b" x="430.781701" y="264.759135" style="stroke: #000000; stroke-width: 0.6"/>
      </g>
     </g>
    </g>
   </g>
   <g id="matplotlib.axis_2">
    <g id="ytick_1">
     <g id="line2d_22">
      <defs>
       <path id="meb7851e3b4" d="M 0 0 
L -3.5 0 
" style="stroke: #000000; stroke-width: 0.8"/>
      </defs>
      <g>
       <use xlink:href="#meb7851e3b4" x="23.390496" y="264.759135" style="stroke: #000000; stroke-width: 0.8"/>
      </g>
     </g>
    </g>
    <g id="ytick_2">
     <g id="line2d_23">
      <g>
       <use xlink:href="#meb7851e3b4" x="23.390496" y="230.452507" style="stroke: #000000; stroke-width: 0.8"/>
      </g>
     </g>
     <g id="text_5">
      <!-- 0.2 -->
      <g transform="translate(0.487371 234.251726)scale(0.1 -0.1)">
       <use xlink:href="#DejaVuSans-30"/>
       <use xlink:href="#DejaVuSans-2e" x="63.623047"/>
       <use xlink:href="#DejaVuSans-32" x="95.410156"/>
      </g>
     </g>
    </g>
    <g id="ytick_3">
     <g id="line2d_24">
      <g>
       <use xlink:href="#meb7851e3b4" x="23.390496" y="196.145879" style="stroke: #000000; stroke-width: 0.8"/>
      </g>
     </g>
     <g id="text_6">
      <!-- 0.4 -->
      <g transform="translate(0.487371 199.945098)scale(0.1 -0.1)">
       <defs>
        <path id="DejaVuSans-34" d="M 2419 4116 
L 825 1625 
L 2419 1625 
L 2419 4116 
z
M 2253 4666 
L 3047 4666 
L 3047 1625 
L 3713 1625 
L 3713 1100 
L 3047 1100 
L 3047 0 
L 2419 0 
L 2419 1100 
L 313 1100 
L 313 1709 
L 2253 4666 
z
" transform="scale(0.015625)"/>
       </defs>
       <use xlink:href="#DejaVuSans-30"/>
       <use xlink:href="#DejaVuSans-2e" x="63.623047"/>
       <use xlink:href="#DejaVuSans-34" x="95.410156"/>
      </g>
     </g>
    </g>
    <g id="ytick_4">
     <g id="line2d_25">
      <g>
       <use xlink:href="#meb7851e3b4" x="23.390496" y="161.839251" style="stroke: #000000; stroke-width: 0.8"/>
      </g>
     </g>
     <g id="text_7">
      <!-- 0.6 -->
      <g transform="translate(0.487371 165.63847)scale(0.1 -0.1)">
       <defs>
        <path id="DejaVuSans-36" d="M 2113 2584 
Q 1688 2584 1439 2293 
Q 1191 2003 1191 1497 
Q 1191 994 1439 701 
Q 1688 409 2113 409 
Q 2538 409 2786 701 
Q 3034 994 3034 1497 
Q 3034 2003 2786 2293 
Q 2538 2584 2113 2584 
z
M 3366 4563 
L 3366 3988 
Q 3128 4100 2886 4159 
Q 2644 4219 2406 4219 
Q 1781 4219 1451 3797 
Q 1122 3375 1075 2522 
Q 1259 2794 1537 2939 
Q 1816 3084 2150 3084 
Q 2853 3084 3261 2657 
Q 3669 2231 3669 1497 
Q 3669 778 3244 343 
Q 2819 -91 2113 -91 
Q 1303 -91 875 529 
Q 447 1150 447 2328 
Q 447 3434 972 4092 
Q 1497 4750 2381 4750 
Q 2619 4750 2861 4703 
Q 3103 4656 3366 4563 
z
" transform="scale(0.015625)"/>
       </defs>
       <use xlink:href="#DejaVuSans-30"/>
       <use xlink:href="#DejaVuSans-2e" x="63.623047"/>
       <use xlink:href="#DejaVuSans-36" x="95.410156"/>
      </g>
     </g>
    </g>
    <g id="ytick_5">
     <g id="line2d_26">
      <g>
       <use xlink:href="#meb7851e3b4" x="23.390496" y="127.532623" style="stroke: #000000; stroke-width: 0.8"/>
      </g>
     </g>
     <g id="text_8">
      <!-- 0.8 -->
      <g transform="translate(0.487371 131.331842)scale(0.1 -0.1)">
       <defs>
        <path id="DejaVuSans-38" d="M 2034 2216 
Q 1584 2216 1326 1975 
Q 1069 1734 1069 1313 
Q 1069 891 1326 650 
Q 1584 409 2034 409 
Q 2484 409 2743 651 
Q 3003 894 3003 1313 
Q 3003 1734 2745 1975 
Q 2488 2216 2034 2216 
z
M 1403 2484 
Q 997 2584 770 2862 
Q 544 3141 544 3541 
Q 544 4100 942 4425 
Q 1341 4750 2034 4750 
Q 2731 4750 3128 4425 
Q 3525 4100 3525 3541 
Q 3525 3141 3298 2862 
Q 3072 2584 2669 2484 
Q 3125 2378 3379 2068 
Q 3634 1759 3634 1313 
Q 3634 634 3220 271 
Q 2806 -91 2034 -91 
Q 1263 -91 848 271 
Q 434 634 434 1313 
Q 434 1759 690 2068 
Q 947 2378 1403 2484 
z
M 1172 3481 
Q 1172 3119 1398 2916 
Q 1625 2713 2034 2713 
Q 2441 2713 2670 2916 
Q 2900 3119 2900 3481 
Q 2900 3844 2670 4047 
Q 2441 4250 2034 4250 
Q 1625 4250 1398 4047 
Q 1172 3844 1172 3481 
z
" transform="scale(0.015625)"/>
       </defs>
       <use xlink:href="#DejaVuSans-30"/>
       <use xlink:href="#DejaVuSans-2e" x="63.623047"/>
       <use xlink:href="#DejaVuSans-38" x="95.410156"/>
      </g>
     </g>
    </g>
    <g id="ytick_6">
     <g id="line2d_27">
      <g>
       <use xlink:href="#meb7851e3b4" x="23.390496" y="93.225996" style="stroke: #000000; stroke-width: 0.8"/>
      </g>
     </g>
     <g id="text_9">
      <!-- 1.0 -->
      <g transform="translate(0.487371 97.025214)scale(0.1 -0.1)">
       <use xlink:href="#DejaVuSans-31"/>
       <use xlink:href="#DejaVuSans-2e" x="63.623047"/>
       <use xlink:href="#DejaVuSans-30" x="95.410156"/>
      </g>
     </g>
    </g>
    <g id="ytick_7">
     <g id="line2d_28">
      <defs>
       <path id="m5163e80d28" d="M 0 0 
L -2 0 
" style="stroke: #000000; stroke-width: 0.6"/>
      </defs>
      <g>
       <use xlink:href="#m5163e80d28" x="23.390496" y="256.182478" style="stroke: #000000; stroke-width: 0.6"/>
      </g>
     </g>
    </g>
    <g id="ytick_8">
     <g id="line2d_29">
      <g>
       <use xlink:href="#m5163e80d28" x="23.390496" y="247.605821" style="stroke: #000000; stroke-width: 0.6"/>
      </g>
     </g>
    </g>
    <g id="ytick_9">
     <g id="line2d_30">
      <g>
       <use xlink:href="#m5163e80d28" x="23.390496" y="239.029164" style="stroke: #000000; stroke-width: 0.6"/>
      </g>
     </g>
    </g>
    <g id="ytick_10">
     <g id="line2d_31">
      <g>
       <use xlink:href="#m5163e80d28" x="23.390496" y="221.87585" style="stroke: #000000; stroke-width: 0.6"/>
      </g>
     </g>
    </g>
    <g id="ytick_11">
     <g id="line2d_32">
      <g>
       <use xlink:href="#m5163e80d28" x="23.390496" y="213.299193" style="stroke: #000000; stroke-width: 0.6"/>
      </g>
     </g>
    </g>
    <g id="ytick_12">
     <g id="line2d_33">
      <g>
       <use xlink:href="#m5163e80d28" x="23.390496" y="204.722536" style="stroke: #000000; stroke-width: 0.6"/>
      </g>
     </g>
    </g>
    <g id="ytick_13">
     <g id="line2d_34">
      <g>
       <use xlink:href="#m5163e80d28" x="23.390496" y="187.569222" style="stroke: #000000; stroke-width: 0.6"/>
      </g>
     </g>
    </g>
    <g id="ytick_14">
     <g id="line2d_35">
      <g>
       <use xlink:href="#m5163e80d28" x="23.390496" y="178.992565" style="stroke: #000000; stroke-width: 0.6"/>
      </g>
     </g>
    </g>
    <g id="ytick_15">
     <g id="line2d_36">
      <g>
       <use xlink:href="#m5163e80d28" x="23.390496" y="170.415908" style="stroke: #000000; stroke-width: 0.6"/>
      </g>
     </g>
    </g>
    <g id="ytick_16">
     <g id="line2d_37">
      <g>
       <use xlink:href="#m5163e80d28" x="23.390496" y="153.262594" style="stroke: #000000; stroke-width: 0.6"/>
      </g>
     </g>
    </g>
    <g id="ytick_17">
     <g id="line2d_38">
      <g>
       <use xlink:href="#m5163e80d28" x="23.390496" y="144.685937" style="stroke: #000000; stroke-width: 0.6"/>
      </g>
     </g>
    </g>
    <g id="ytick_18">
     <g id="line2d_39">
      <g>
       <use xlink:href="#m5163e80d28" x="23.390496" y="136.10928" style="stroke: #000000; stroke-width: 0.6"/>
      </g>
     </g>
    </g>
    <g id="ytick_19">
     <g id="line2d_40">
      <g>
       <use xlink:href="#m5163e80d28" x="23.390496" y="118.955966" style="stroke: #000000; stroke-width: 0.6"/>
      </g>
     </g>
    </g>
    <g id="ytick_20">
     <g id="line2d_41">
      <g>
       <use xlink:href="#m5163e80d28" x="23.390496" y="110.37931" style="stroke: #000000; stroke-width: 0.6"/>
      </g>
     </g>
    </g>
    <g id="ytick_21">
     <g id="line2d_42">
      <g>
       <use xlink:href="#m5163e80d28" x="23.390496" y="101.802653" style="stroke: #000000; stroke-width: 0.6"/>
      </g>
     </g>
    </g>
    <g id="ytick_22">
     <g id="line2d_43">
      <g>
       <use xlink:href="#m5163e80d28" x="23.390496" y="84.649339" style="stroke: #000000; stroke-width: 0.6"/>
      </g>
     </g>
    </g>
   </g>
   <g id="line2d_44">
    <path d="M 23.390496 264.759135 
L 38.475304 234.738474 
L 48.844693 214.563159 
L 57.84345 197.609528 
L 63.652571 187.024753 
L 70.672319 174.683772 
L 77.003896 164.031061 
L 83.149951 154.172774 
L 88.580876 145.890258 
L 92.694171 139.901526 
L 98.826262 131.452486 
L 103.787893 125.053915 
L 108.421645 119.445128 
L 112.977876 114.285415 
L 117.811705 109.205169 
L 121.878145 105.250933 
L 126.495771 101.119454 
L 131.412914 97.143372 
L 135.429706 94.221241 
L 138.876139 91.948114 
L 142.77961 89.634429 
L 146.636694 87.619548 
L 151.127406 85.611331 
L 154.750502 84.253587 
L 159.229258 82.895284 
L 164.136174 81.807099 
L 167.976443 81.241703 
L 172.468032 80.892282 
L 176.377036 80.855468 
L 180.82775 81.108092 
L 185.67275 81.728411 
L 190.645918 82.725388 
L 194.257558 83.669213 
L 199.176092 85.239144 
L 204.392435 87.245491 
L 208.420393 89.022237 
L 212.236172 90.878366 
L 216.698669 93.250837 
L 223.134477 97.028332 
L 228.988497 100.797311 
L 234.290848 104.456949 
L 241.002237 109.385496 
L 248.651218 115.348866 
L 256.418998 121.713131 
L 265.919075 129.815562 
L 279.638403 141.899628 
L 305.313167 164.677783 
L 315.572495 173.508109 
L 324.195597 180.703627 
L 332.995605 187.784709 
L 341.624293 194.434215 
L 350.504168 200.943393 
L 357.830875 206.042547 
L 364.935017 210.742832 
L 373.015673 215.790176 
L 378.716602 219.157417 
L 386.819085 223.666882 
L 395.860749 228.319148 
L 403.373913 231.885508 
L 410.223574 234.906011 
L 417.000592 237.684074 
L 425.941281 241.040921 
L 433.707522 243.685175 
L 441.26542 246.028868 
L 450.528386 248.610888 
L 452.223343 249.050439 
L 452.223343 249.050439 
" clip-path="url(#p0f14693053)" style="fill: none; stroke: #0000cc; stroke-linecap: square"/>
   </g>
   <g id="line2d_45">
    <path d="M 23.390496 264.759135 
L 36.810698 238.128199 
L 43.103873 225.993319 
L 49.775999 213.562401 
L 55.962778 202.552929 
L 61.62261 193.0057 
L 66.110645 185.839868 
L 71.392223 177.912193 
L 74.900438 172.969622 
L 78.846716 167.735567 
L 83.27369 162.291872 
L 86.683268 158.418389 
L 91.203768 153.723306 
L 95.652935 149.60312 
L 98.51364 147.220126 
L 102.029294 144.579152 
L 105.629902 142.204043 
L 108.966256 140.300737 
L 112.339015 138.666048 
L 115.882125 137.259347 
L 119.21291 136.223398 
L 121.796392 135.608147 
L 125.425094 135.016551 
L 128.192753 134.77498 
L 131.968711 134.730146 
L 134.744991 134.900944 
L 138.675516 135.427591 
L 142.460481 136.237745 
L 145.702491 137.157189 
L 148.669343 138.172475 
L 152.999347 139.936472 
L 156.984568 141.837362 
L 161.348024 144.199815 
L 165.375055 146.618885 
L 169.972928 149.633583 
L 173.404553 152.041354 
L 178.854424 156.10733 
L 184.079828 160.243136 
L 191.950632 166.81228 
L 199.191287 173.105655 
L 229.27492 199.624119 
L 238.267105 207.096059 
L 244.276799 211.865826 
L 252.388226 217.972782 
L 259.723606 223.137031 
L 266.134106 227.354542 
L 272.734885 231.400402 
L 279.174009 235.053977 
L 285.331989 238.278374 
L 292.597469 241.749808 
L 299.143036 244.578031 
L 306.678706 247.498253 
L 313.566157 249.869839 
L 321.42972 252.253716 
L 326.940373 253.733029 
L 334.861492 255.605994 
L 344.236357 257.473723 
L 353.419726 258.981061 
L 361.276955 260.050964 
L 370.951533 261.129809 
L 380.933333 262.010285 
L 393.517081 262.848513 
L 406.719292 263.475436 
L 422.018302 263.965829 
L 440.391735 264.326737 
L 452.223343 264.47142 
L 452.223343 264.47142 
" clip-path="url(#p0f14693053)" style="fill: none; stroke: #3ccc00; stroke-linecap: square"/>
   </g>
   <g id="line2d_46">
    <path d="M 23.390496 264.759135 
L 34.919127 241.900979 
L 40.390086 231.395083 
L 46.011135 221.003516 
L 50.365104 213.311595 
L 54.446638 206.435487 
L 59.177246 198.923909 
L 64.361565 191.318554 
L 67.615583 186.906916 
L 71.450567 182.087396 
L 74.031665 179.083618 
L 77.54921 175.310361 
L 80.449892 172.482718 
L 84.086302 169.306668 
L 87.718478 166.548328 
L 90.273478 164.857087 
L 93.626657 162.949348 
L 97.280599 161.27096 
L 100.167989 160.236643 
L 102.937268 159.48295 
L 105.565407 158.979554 
L 108.307138 158.669588 
L 111.618955 158.580288 
L 114.94089 158.793536 
L 117.633429 159.180373 
L 120.146605 159.707483 
L 124.269611 160.902697 
L 127.24903 162.007821 
L 130.430233 163.396688 
L 134.356562 165.386948 
L 136.647692 166.67882 
L 141.238542 169.529685 
L 146.503862 173.179503 
L 151.628123 177.057347 
L 156.82591 181.252846 
L 164.92684 188.166071 
L 177.668887 199.475011 
L 190.083266 210.37193 
L 197.077539 216.243725 
L 204.740297 222.343057 
L 212.056723 227.77738 
L 218.36272 232.122381 
L 224.539302 236.056975 
L 228.262478 238.271724 
L 234.4763 241.704 
L 238.305755 243.656121 
L 245.273521 246.896301 
L 248.839076 248.40329 
L 255.820493 251.071545 
L 262.485645 253.289723 
L 268.808171 255.119444 
L 275.109354 256.699809 
L 281.99031 258.175008 
L 289.517184 259.522759 
L 297.13287 260.64036 
L 305.302731 261.604928 
L 314.168057 262.423225 
L 325.363618 263.185881 
L 337.385531 263.75012 
L 352.444158 264.197027 
L 371.756759 264.505719 
L 397.45621 264.678114 
L 450.894908 264.753476 
L 452.223343 264.753865 
L 452.223343 264.753865 
" clip-path="url(#p0f14693053)" style="fill: none; stroke: #cc0077; stroke-linecap: square"/>
   </g>
   <g id="line2d_47">
    <path d="M 23.390496 264.759135 
L 33.436687 244.842413 
L 40.608425 231.200131 
L 45.51967 222.346866 
L 50.264194 214.285019 
L 54.741857 207.195729 
L 58.304175 201.958202 
L 62.188609 196.688166 
L 64.700171 193.53933 
L 68.149007 189.560753 
L 71.292346 186.293489 
L 73.902244 183.84686 
L 77.157643 181.138801 
L 79.937115 179.131115 
L 82.904489 177.297999 
L 85.238137 176.080775 
L 87.769282 174.982186 
L 91.120845 173.87776 
L 93.827517 173.271653 
L 95.972755 172.968556 
L 98.455567 172.808655 
L 101.593584 172.890633 
L 103.873228 173.142033 
L 106.819627 173.695929 
L 109.703513 174.476394 
L 113.441296 175.817056 
L 117.126065 177.47502 
L 119.610974 178.766247 
L 122.568135 180.469285 
L 127.253098 183.499001 
L 131.373355 186.453763 
L 135.834704 189.905098 
L 142.495883 195.427885 
L 149.586629 201.61686 
L 167.066057 217.070602 
L 173.369693 222.38341 
L 179.030149 226.928888 
L 184.301973 230.933264 
L 191.441816 235.96163 
L 198.063152 240.189937 
L 201.588646 242.265373 
L 205.781426 244.573846 
L 212.544028 247.936059 
L 218.002513 250.334402 
L 223.732662 252.563742 
L 230.068268 254.706536 
L 236.009923 256.432853 
L 243.054886 258.159283 
L 249.973742 259.555127 
L 255.41459 260.470099 
L 262.253507 261.422629 
L 270.602408 262.333248 
L 279.473371 263.055097 
L 289.771693 263.649204 
L 303.084957 264.140019 
L 319.28215 264.468097 
L 340.900586 264.660619 
L 380.027308 264.747984 
L 452.223343 264.759038 
L 452.223343 264.759038 
" clip-path="url(#p0f14693053)" style="fill: none; stroke: #00b3cc; stroke-linecap: square"/>
   </g>
   <g id="line2d_48">
    <path d="M 23.390496 264.759135 
L 31.598172 248.46361 
L 37.427922 237.279535 
L 41.049603 230.618653 
L 46.203103 221.644514 
L 50.153 215.245188 
L 52.45752 211.728788 
L 56.815379 205.557868 
L 60.54437 200.810058 
L 63.848565 197.038213 
L 67.133796 193.709175 
L 69.902447 191.237659 
L 72.156221 189.454454 
L 74.905837 187.558598 
L 77.68253 185.956038 
L 79.93804 184.883766 
L 82.885615 183.788983 
L 84.731874 183.277477 
L 87.750534 182.723911 
L 90.077694 182.530659 
L 93.09423 182.57213 
L 95.821072 182.881952 
L 97.835703 183.269633 
L 100.939705 184.117641 
L 104.168028 185.302534 
L 107.801447 186.975278 
L 110.812433 188.608452 
L 113.871825 190.473472 
L 118.315897 193.50485 
L 123.08346 197.109041 
L 128.242896 201.323062 
L 137.69732 209.555992 
L 150.04247 220.499964 
L 158.646318 227.766649 
L 164.235388 232.189533 
L 169.234913 235.901366 
L 174.320488 239.415879 
L 179.831745 242.91038 
L 184.969747 245.866868 
L 188.777438 247.870434 
L 193.516546 250.145269 
L 199.610076 252.726342 
L 205.957673 255.027927 
L 212.752549 257.091328 
L 219.61077 258.799484 
L 226.585186 260.200706 
L 233.689618 261.331542 
L 241.348105 262.272502 
L 250.25089 263.076642 
L 257.209333 263.53546 
L 268.949038 264.062299 
L 282.770282 264.41456 
L 301.409914 264.634883 
L 333.803095 264.741682 
L 452.223343 264.759133 
L 452.223343 264.759133 
" clip-path="url(#p0f14693053)" style="fill: none; stroke: #ccaa00; stroke-linecap: square"/>
   </g>
   <g id="patch_3">
    <path d="M 23.390496 268.4375 
L 23.390496 77.1625 
" style="fill: none; stroke: #000000; stroke-width: 0.8; stroke-linejoin: miter; stroke-linecap: square"/>
   </g>
   <g id="patch_4">
    <path d="M 14.813839 264.759135 
L 460.8 264.759135 
" style="fill: none; stroke: #000000; stroke-width: 0.8; stroke-linejoin: miter; stroke-linecap: square"/>
   </g>
  </g>
 </g>
 <defs>
  <clipPath id="p0f14693053">
   <rect x="14.813839" y="77.1625" width="445.986161" height="191.275"/>
  </clipPath>
 </defs>
</svg>
