<?xml version="1.0" encoding="utf-8" standalone="no"?>
<!DOCTYPE svg PUBLIC "-//W3C//DTD SVG 1.1//EN"
  "http://www.w3.org/Graphics/SVG/1.1/DTD/svg11.dtd">
<!-- Created with matplotlib (http://matplotlib.org/) -->
<svg height="345.6pt" version="1.1" viewBox="0 0 460.8 345.6" width="460.8pt" xmlns="http://www.w3.org/2000/svg" xmlns:xlink="http://www.w3.org/1999/xlink">
 <defs>
  <style type="text/css">
*{stroke-linecap:butt;stroke-linejoin:round;}
  </style>
 </defs>
 <g id="figure_1">
  <g id="patch_1">
   <path d="M 0 345.6 
L 460.8 345.6 
L 460.8 0 
L 0 0 
z
" style="fill:#ffffff;"/>
  </g>
  <g id="axes_1">
   <g id="patch_2">
    <path d="M 2.52 343.08 
L 458.28 343.08 
L 458.28 2.52 
L 2.52 2.52 
z
" style="fill:#ffffff;"/>
   </g>
   <g id="matplotlib.axis_1">
    <g id="xtick_1">
     <g id="line2d_1">
      <defs>
       <path d="M 0 0 
L 0 3.5 
" id="md27ff0d79a" style="stroke:#000000;stroke-width:0.8;"/>
      </defs>
      <g>
       <use style="stroke:#000000;stroke-width:0.8;" x="11.284615" xlink:href="#md27ff0d79a" y="172.8"/>
      </g>
     </g>
     <g id="text_1">
      <!-- -3 -->
      <defs>
       <path d="M 4.890625 31.390625 
L 31.203125 31.390625 
L 31.203125 23.390625 
L 4.890625 23.390625 
z
" id="DejaVuSans-2d"/>
       <path d="M 40.578125 39.3125 
Q 47.65625 37.796875 51.625 33 
Q 55.609375 28.21875 55.609375 21.1875 
Q 55.609375 10.40625 48.1875 4.484375 
Q 40.765625 -1.421875 27.09375 -1.421875 
Q 22.515625 -1.421875 17.65625 -0.515625 
Q 12.796875 0.390625 7.625 2.203125 
L 7.625 11.71875 
Q 11.71875 9.328125 16.59375 8.109375 
Q 21.484375 6.890625 26.8125 6.890625 
Q 36.078125 6.890625 40.9375 10.546875 
Q 45.796875 14.203125 45.796875 21.1875 
Q 45.796875 27.640625 41.28125 31.265625 
Q 36.765625 34.90625 28.71875 34.90625 
L 20.21875 34.90625 
L 20.21875 43.015625 
L 29.109375 43.015625 
Q 36.375 43.015625 40.234375 45.921875 
Q 44.09375 48.828125 44.09375 54.296875 
Q 44.09375 59.90625 40.109375 62.90625 
Q 36.140625 65.921875 28.71875 65.921875 
Q 24.65625 65.921875 20.015625 65.03125 
Q 15.375 64.15625 9.8125 62.3125 
L 9.8125 71.09375 
Q 15.4375 72.65625 20.34375 73.4375 
Q 25.25 74.21875 29.59375 74.21875 
Q 40.828125 74.21875 47.359375 69.109375 
Q 53.90625 64.015625 53.90625 55.328125 
Q 53.90625 49.265625 50.4375 45.09375 
Q 46.96875 40.921875 40.578125 39.3125 
z
" id="DejaVuSans-33"/>
      </defs>
      <g transform="translate(6.299459 187.398437)scale(0.1 -0.1)">
       <use xlink:href="#DejaVuSans-2d"/>
       <use x="36.083984" xlink:href="#DejaVuSans-33"/>
      </g>
     </g>
    </g>
    <g id="xtick_2">
     <g id="line2d_2">
      <g>
       <use style="stroke:#000000;stroke-width:0.8;" x="73.889011" xlink:href="#md27ff0d79a" y="172.8"/>
      </g>
     </g>
     <g id="text_2">
      <!-- -2 -->
      <defs>
       <path d="M 19.1875 8.296875 
L 53.609375 8.296875 
L 53.609375 0 
L 7.328125 0 
L 7.328125 8.296875 
Q 12.9375 14.109375 22.625 23.890625 
Q 32.328125 33.6875 34.8125 36.53125 
Q 39.546875 41.84375 41.421875 45.53125 
Q 43.3125 49.21875 43.3125 52.78125 
Q 43.3125 58.59375 39.234375 62.25 
Q 35.15625 65.921875 28.609375 65.921875 
Q 23.96875 65.921875 18.8125 64.3125 
Q 13.671875 62.703125 7.8125 59.421875 
L 7.8125 69.390625 
Q 13.765625 71.78125 18.9375 73 
Q 24.125 74.21875 28.421875 74.21875 
Q 39.75 74.21875 46.484375 68.546875 
Q 53.21875 62.890625 53.21875 53.421875 
Q 53.21875 48.921875 51.53125 44.890625 
Q 49.859375 40.875 45.40625 35.40625 
Q 44.1875 33.984375 37.640625 27.21875 
Q 31.109375 20.453125 19.1875 8.296875 
z
" id="DejaVuSans-32"/>
      </defs>
      <g transform="translate(68.903855 187.398437)scale(0.1 -0.1)">
       <use xlink:href="#DejaVuSans-2d"/>
       <use x="36.083984" xlink:href="#DejaVuSans-32"/>
      </g>
     </g>
    </g>
    <g id="xtick_3">
     <g id="line2d_3">
      <g>
       <use style="stroke:#000000;stroke-width:0.8;" x="136.493407" xlink:href="#md27ff0d79a" y="172.8"/>
      </g>
     </g>
     <g id="text_3">
      <!-- -1 -->
      <defs>
       <path d="M 12.40625 8.296875 
L 28.515625 8.296875 
L 28.515625 63.921875 
L 10.984375 60.40625 
L 10.984375 69.390625 
L 28.421875 72.90625 
L 38.28125 72.90625 
L 38.28125 8.296875 
L 54.390625 8.296875 
L 54.390625 0 
L 12.40625 0 
z
" id="DejaVuSans-31"/>
      </defs>
      <g transform="translate(131.50825 187.398437)scale(0.1 -0.1)">
       <use xlink:href="#DejaVuSans-2d"/>
       <use x="36.083984" xlink:href="#DejaVuSans-31"/>
      </g>
     </g>
    </g>
    <g id="xtick_4">
     <g id="line2d_4">
      <g>
       <use style="stroke:#000000;stroke-width:0.8;" x="199.097802" xlink:href="#md27ff0d79a" y="172.8"/>
      </g>
     </g>
    </g>
    <g id="xtick_5">
     <g id="line2d_5">
      <g>
       <use style="stroke:#000000;stroke-width:0.8;" x="261.702198" xlink:href="#md27ff0d79a" y="172.8"/>
      </g>
     </g>
     <g id="text_4">
      <!-- 1 -->
      <g transform="translate(258.520948 187.398437)scale(0.1 -0.1)">
       <use xlink:href="#DejaVuSans-31"/>
      </g>
     </g>
    </g>
    <g id="xtick_6">
     <g id="line2d_6">
      <g>
       <use style="stroke:#000000;stroke-width:0.8;" x="324.306593" xlink:href="#md27ff0d79a" y="172.8"/>
      </g>
     </g>
     <g id="text_5">
      <!-- 2 -->
      <g transform="translate(321.125343 187.398437)scale(0.1 -0.1)">
       <use xlink:href="#DejaVuSans-32"/>
      </g>
     </g>
    </g>
    <g id="xtick_7">
     <g id="line2d_7">
      <g>
       <use style="stroke:#000000;stroke-width:0.8;" x="386.910989" xlink:href="#md27ff0d79a" y="172.8"/>
      </g>
     </g>
     <g id="text_6">
      <!-- 3 -->
      <g transform="translate(383.729739 187.398437)scale(0.1 -0.1)">
       <use xlink:href="#DejaVuSans-33"/>
      </g>
     </g>
    </g>
    <g id="xtick_8">
     <g id="line2d_8">
      <g>
       <use style="stroke:#000000;stroke-width:0.8;" x="449.515385" xlink:href="#md27ff0d79a" y="172.8"/>
      </g>
     </g>
     <g id="text_7">
      <!-- 4 -->
      <defs>
       <path d="M 37.796875 64.3125 
L 12.890625 25.390625 
L 37.796875 25.390625 
z
M 35.203125 72.90625 
L 47.609375 72.90625 
L 47.609375 25.390625 
L 58.015625 25.390625 
L 58.015625 17.1875 
L 47.609375 17.1875 
L 47.609375 0 
L 37.796875 0 
L 37.796875 17.1875 
L 4.890625 17.1875 
L 4.890625 26.703125 
z
" id="DejaVuSans-34"/>
      </defs>
      <g transform="translate(446.334135 187.398437)scale(0.1 -0.1)">
       <use xlink:href="#DejaVuSans-34"/>
      </g>
     </g>
    </g>
    <g id="xtick_9">
     <g id="line2d_9">
      <defs>
       <path d="M 0 0 
L 0 2 
" id="m227bb78784" style="stroke:#000000;stroke-width:0.6;"/>
      </defs>
      <g>
       <use style="stroke:#000000;stroke-width:0.6;" x="23.805495" xlink:href="#m227bb78784" y="172.8"/>
      </g>
     </g>
    </g>
    <g id="xtick_10">
     <g id="line2d_10">
      <g>
       <use style="stroke:#000000;stroke-width:0.6;" x="36.326374" xlink:href="#m227bb78784" y="172.8"/>
      </g>
     </g>
    </g>
    <g id="xtick_11">
     <g id="line2d_11">
      <g>
       <use style="stroke:#000000;stroke-width:0.6;" x="48.847253" xlink:href="#m227bb78784" y="172.8"/>
      </g>
     </g>
    </g>
    <g id="xtick_12">
     <g id="line2d_12">
      <g>
       <use style="stroke:#000000;stroke-width:0.6;" x="61.368132" xlink:href="#m227bb78784" y="172.8"/>
      </g>
     </g>
    </g>
    <g id="xtick_13">
     <g id="line2d_13">
      <g>
       <use style="stroke:#000000;stroke-width:0.6;" x="86.40989" xlink:href="#m227bb78784" y="172.8"/>
      </g>
     </g>
    </g>
    <g id="xtick_14">
     <g id="line2d_14">
      <g>
       <use style="stroke:#000000;stroke-width:0.6;" x="98.930769" xlink:href="#m227bb78784" y="172.8"/>
      </g>
     </g>
    </g>
    <g id="xtick_15">
     <g id="line2d_15">
      <g>
       <use style="stroke:#000000;stroke-width:0.6;" x="111.451648" xlink:href="#m227bb78784" y="172.8"/>
      </g>
     </g>
    </g>
    <g id="xtick_16">
     <g id="line2d_16">
      <g>
       <use style="stroke:#000000;stroke-width:0.6;" x="123.972527" xlink:href="#m227bb78784" y="172.8"/>
      </g>
     </g>
    </g>
    <g id="xtick_17">
     <g id="line2d_17">
      <g>
       <use style="stroke:#000000;stroke-width:0.6;" x="149.014286" xlink:href="#m227bb78784" y="172.8"/>
      </g>
     </g>
    </g>
    <g id="xtick_18">
     <g id="line2d_18">
      <g>
       <use style="stroke:#000000;stroke-width:0.6;" x="161.535165" xlink:href="#m227bb78784" y="172.8"/>
      </g>
     </g>
    </g>
    <g id="xtick_19">
     <g id="line2d_19">
      <g>
       <use style="stroke:#000000;stroke-width:0.6;" x="174.056044" xlink:href="#m227bb78784" y="172.8"/>
      </g>
     </g>
    </g>
    <g id="xtick_20">
     <g id="line2d_20">
      <g>
       <use style="stroke:#000000;stroke-width:0.6;" x="186.576923" xlink:href="#m227bb78784" y="172.8"/>
      </g>
     </g>
    </g>
    <g id="xtick_21">
     <g id="line2d_21">
      <g>
       <use style="stroke:#000000;stroke-width:0.6;" x="211.618681" xlink:href="#m227bb78784" y="172.8"/>
      </g>
     </g>
    </g>
    <g id="xtick_22">
     <g id="line2d_22">
      <g>
       <use style="stroke:#000000;stroke-width:0.6;" x="224.13956" xlink:href="#m227bb78784" y="172.8"/>
      </g>
     </g>
    </g>
    <g id="xtick_23">
     <g id="line2d_23">
      <g>
       <use style="stroke:#000000;stroke-width:0.6;" x="236.66044" xlink:href="#m227bb78784" y="172.8"/>
      </g>
     </g>
    </g>
    <g id="xtick_24">
     <g id="line2d_24">
      <g>
       <use style="stroke:#000000;stroke-width:0.6;" x="249.181319" xlink:href="#m227bb78784" y="172.8"/>
      </g>
     </g>
    </g>
    <g id="xtick_25">
     <g id="line2d_25">
      <g>
       <use style="stroke:#000000;stroke-width:0.6;" x="274.223077" xlink:href="#m227bb78784" y="172.8"/>
      </g>
     </g>
    </g>
    <g id="xtick_26">
     <g id="line2d_26">
      <g>
       <use style="stroke:#000000;stroke-width:0.6;" x="286.743956" xlink:href="#m227bb78784" y="172.8"/>
      </g>
     </g>
    </g>
    <g id="xtick_27">
     <g id="line2d_27">
      <g>
       <use style="stroke:#000000;stroke-width:0.6;" x="299.264835" xlink:href="#m227bb78784" y="172.8"/>
      </g>
     </g>
    </g>
    <g id="xtick_28">
     <g id="line2d_28">
      <g>
       <use style="stroke:#000000;stroke-width:0.6;" x="311.785714" xlink:href="#m227bb78784" y="172.8"/>
      </g>
     </g>
    </g>
    <g id="xtick_29">
     <g id="line2d_29">
      <g>
       <use style="stroke:#000000;stroke-width:0.6;" x="336.827473" xlink:href="#m227bb78784" y="172.8"/>
      </g>
     </g>
    </g>
    <g id="xtick_30">
     <g id="line2d_30">
      <g>
       <use style="stroke:#000000;stroke-width:0.6;" x="349.348352" xlink:href="#m227bb78784" y="172.8"/>
      </g>
     </g>
    </g>
    <g id="xtick_31">
     <g id="line2d_31">
      <g>
       <use style="stroke:#000000;stroke-width:0.6;" x="361.869231" xlink:href="#m227bb78784" y="172.8"/>
      </g>
     </g>
    </g>
    <g id="xtick_32">
     <g id="line2d_32">
      <g>
       <use style="stroke:#000000;stroke-width:0.6;" x="374.39011" xlink:href="#m227bb78784" y="172.8"/>
      </g>
     </g>
    </g>
    <g id="xtick_33">
     <g id="line2d_33">
      <g>
       <use style="stroke:#000000;stroke-width:0.6;" x="399.431868" xlink:href="#m227bb78784" y="172.8"/>
      </g>
     </g>
    </g>
    <g id="xtick_34">
     <g id="line2d_34">
      <g>
       <use style="stroke:#000000;stroke-width:0.6;" x="411.952747" xlink:href="#m227bb78784" y="172.8"/>
      </g>
     </g>
    </g>
    <g id="xtick_35">
     <g id="line2d_35">
      <g>
       <use style="stroke:#000000;stroke-width:0.6;" x="424.473626" xlink:href="#m227bb78784" y="172.8"/>
      </g>
     </g>
    </g>
    <g id="xtick_36">
     <g id="line2d_36">
      <g>
       <use style="stroke:#000000;stroke-width:0.6;" x="436.994505" xlink:href="#m227bb78784" y="172.8"/>
      </g>
     </g>
    </g>
   </g>
   <g id="matplotlib.axis_2">
    <g id="ytick_1">
     <g id="line2d_37">
      <defs>
       <path d="M 0 0 
L -3.5 0 
" id="m001413a585" style="stroke:#000000;stroke-width:0.8;"/>
      </defs>
      <g>
       <use style="stroke:#000000;stroke-width:0.8;" x="199.097802" xlink:href="#m001413a585" y="303.784615"/>
      </g>
     </g>
     <g id="text_8">
      <!-- -4 -->
      <g transform="translate(182.12749 307.583834)scale(0.1 -0.1)">
       <use xlink:href="#DejaVuSans-2d"/>
       <use x="36.083984" xlink:href="#DejaVuSans-34"/>
      </g>
     </g>
    </g>
    <g id="ytick_2">
     <g id="line2d_38">
      <g>
       <use style="stroke:#000000;stroke-width:0.8;" x="199.097802" xlink:href="#m001413a585" y="238.292308"/>
      </g>
     </g>
     <g id="text_9">
      <!-- -2 -->
      <g transform="translate(182.12749 242.091526)scale(0.1 -0.1)">
       <use xlink:href="#DejaVuSans-2d"/>
       <use x="36.083984" xlink:href="#DejaVuSans-32"/>
      </g>
     </g>
    </g>
    <g id="ytick_3">
     <g id="line2d_39">
      <g>
       <use style="stroke:#000000;stroke-width:0.8;" x="199.097802" xlink:href="#m001413a585" y="172.8"/>
      </g>
     </g>
    </g>
    <g id="ytick_4">
     <g id="line2d_40">
      <g>
       <use style="stroke:#000000;stroke-width:0.8;" x="199.097802" xlink:href="#m001413a585" y="107.307692"/>
      </g>
     </g>
     <g id="text_10">
      <!-- 2 -->
      <g transform="translate(185.735302 111.106911)scale(0.1 -0.1)">
       <use xlink:href="#DejaVuSans-32"/>
      </g>
     </g>
    </g>
    <g id="ytick_5">
     <g id="line2d_41">
      <g>
       <use style="stroke:#000000;stroke-width:0.8;" x="199.097802" xlink:href="#m001413a585" y="41.815385"/>
      </g>
     </g>
     <g id="text_11">
      <!-- 4 -->
      <g transform="translate(185.735302 45.614603)scale(0.1 -0.1)">
       <use xlink:href="#DejaVuSans-34"/>
      </g>
     </g>
    </g>
    <g id="ytick_6">
     <g id="line2d_42">
      <defs>
       <path d="M 0 0 
L -2 0 
" id="ma293fccbed" style="stroke:#000000;stroke-width:0.6;"/>
      </defs>
      <g>
       <use style="stroke:#000000;stroke-width:0.6;" x="199.097802" xlink:href="#ma293fccbed" y="336.530769"/>
      </g>
     </g>
    </g>
    <g id="ytick_7">
     <g id="line2d_43">
      <g>
       <use style="stroke:#000000;stroke-width:0.6;" x="199.097802" xlink:href="#ma293fccbed" y="320.157692"/>
      </g>
     </g>
    </g>
    <g id="ytick_8">
     <g id="line2d_44">
      <g>
       <use style="stroke:#000000;stroke-width:0.6;" x="199.097802" xlink:href="#ma293fccbed" y="287.411538"/>
      </g>
     </g>
    </g>
    <g id="ytick_9">
     <g id="line2d_45">
      <g>
       <use style="stroke:#000000;stroke-width:0.6;" x="199.097802" xlink:href="#ma293fccbed" y="271.038462"/>
      </g>
     </g>
    </g>
    <g id="ytick_10">
     <g id="line2d_46">
      <g>
       <use style="stroke:#000000;stroke-width:0.6;" x="199.097802" xlink:href="#ma293fccbed" y="254.665385"/>
      </g>
     </g>
    </g>
    <g id="ytick_11">
     <g id="line2d_47">
      <g>
       <use style="stroke:#000000;stroke-width:0.6;" x="199.097802" xlink:href="#ma293fccbed" y="221.919231"/>
      </g>
     </g>
    </g>
    <g id="ytick_12">
     <g id="line2d_48">
      <g>
       <use style="stroke:#000000;stroke-width:0.6;" x="199.097802" xlink:href="#ma293fccbed" y="205.546154"/>
      </g>
     </g>
    </g>
    <g id="ytick_13">
     <g id="line2d_49">
      <g>
       <use style="stroke:#000000;stroke-width:0.6;" x="199.097802" xlink:href="#ma293fccbed" y="189.173077"/>
      </g>
     </g>
    </g>
    <g id="ytick_14">
     <g id="line2d_50">
      <g>
       <use style="stroke:#000000;stroke-width:0.6;" x="199.097802" xlink:href="#ma293fccbed" y="156.426923"/>
      </g>
     </g>
    </g>
    <g id="ytick_15">
     <g id="line2d_51">
      <g>
       <use style="stroke:#000000;stroke-width:0.6;" x="199.097802" xlink:href="#ma293fccbed" y="140.053846"/>
      </g>
     </g>
    </g>
    <g id="ytick_16">
     <g id="line2d_52">
      <g>
       <use style="stroke:#000000;stroke-width:0.6;" x="199.097802" xlink:href="#ma293fccbed" y="123.680769"/>
      </g>
     </g>
    </g>
    <g id="ytick_17">
     <g id="line2d_53">
      <g>
       <use style="stroke:#000000;stroke-width:0.6;" x="199.097802" xlink:href="#ma293fccbed" y="90.934615"/>
      </g>
     </g>
    </g>
    <g id="ytick_18">
     <g id="line2d_54">
      <g>
       <use style="stroke:#000000;stroke-width:0.6;" x="199.097802" xlink:href="#ma293fccbed" y="74.561538"/>
      </g>
     </g>
    </g>
    <g id="ytick_19">
     <g id="line2d_55">
      <g>
       <use style="stroke:#000000;stroke-width:0.6;" x="199.097802" xlink:href="#ma293fccbed" y="58.188462"/>
      </g>
     </g>
    </g>
    <g id="ytick_20">
     <g id="line2d_56">
      <g>
       <use style="stroke:#000000;stroke-width:0.6;" x="199.097802" xlink:href="#ma293fccbed" y="25.442308"/>
      </g>
     </g>
    </g>
    <g id="ytick_21">
     <g id="line2d_57">
      <g>
       <use style="stroke:#000000;stroke-width:0.6;" x="199.097802" xlink:href="#ma293fccbed" y="9.069231"/>
      </g>
     </g>
    </g>
   </g>
   <g id="line2d_58">
    <path clip-path="url(#p532db9933e)" d="M 11.284615 170.281065 
L 32.784177 169.6424 
L 47.729778 169.028139 
L 61.449528 168.271847 
L 72.266426 167.480767 
L 80.74428 166.684918 
L 89.806044 165.585848 
L 97.737586 164.315377 
L 102.341819 163.389219 
L 106.905732 162.283597 
L 109.970238 161.406635 
L 114.088736 160.006454 
L 117.843219 158.439977 
L 121.024816 156.821511 
L 123.953615 155.016026 
L 125.854714 153.634723 
L 127.671003 152.12107 
L 129.882752 149.956925 
L 131.633004 147.927763 
L 133.425088 145.476177 
L 134.781516 143.302309 
L 136.189984 140.677352 
L 137.691591 137.353166 
L 138.817796 134.404559 
L 140.014766 130.719165 
L 141.088385 126.795216 
L 142.268987 121.593352 
L 143.398517 115.448752 
L 144.400368 108.686156 
L 145.402219 100.198076 
L 146.294859 90.577913 
L 147.075918 79.882669 
L 147.848053 66.277268 
L 148.574664 49.382976 
L 149.235219 28.739233 
L 149.852634 2.221361 
L 149.9141 -1 
L 149.9141 -1 
" style="fill:none;stroke:#0000ff;stroke-linecap:square;"/>
   </g>
   <g id="line2d_59">
    <path clip-path="url(#p532db9933e)" d="M 156.728529 346.6 
L 157.281996 323.021757 
L 158.017218 300.205156 
L 158.752439 283.508834 
L 159.576499 269.423492 
L 160.503566 257.415673 
L 161.430633 248.13842 
L 162.475579 239.924336 
L 163.47168 233.663353 
L 164.634622 227.745379 
L 165.826533 222.820633 
L 167.148985 218.349894 
L 168.458483 214.693467 
L 169.708593 211.74936 
L 171.117375 208.929151 
L 172.526157 206.524912 
L 174.393253 203.837456 
L 175.983891 201.900572 
L 178.123072 199.692277 
L 179.764905 198.243491 
L 181.701088 196.754506 
L 184.485579 194.945076 
L 186.566639 193.796431 
L 188.586368 192.81594 
L 192.334756 191.276921 
L 195.866585 190.088416 
L 200.799696 188.745492 
L 206.595216 187.516215 
L 213.077056 186.462849 
L 219.780044 185.633638 
L 226.249514 185.021871 
L 236.453557 184.341124 
L 246.750896 183.926929 
L 257.010057 183.735862 
L 268.697386 183.761001 
L 276.773244 183.930399 
L 287.581704 184.374696 
L 297.257168 185.030331 
L 305.853148 185.884642 
L 310.820531 186.533327 
L 316.523061 187.463332 
L 321.52793 188.49205 
L 325.829456 189.586375 
L 329.964261 190.880914 
L 333.968203 192.437556 
L 336.43387 193.590554 
L 339.43747 195.256479 
L 341.616462 196.692574 
L 343.676348 198.274001 
L 345.488372 199.888969 
L 347.197842 201.651181 
L 349.22221 204.116923 
L 350.748648 206.321471 
L 352.29508 208.944008 
L 353.809609 211.998605 
L 355.324139 215.682795 
L 356.645823 219.578142 
L 357.83315 223.794841 
L 359.020477 228.916157 
L 360.115623 234.719503 
L 361.132611 241.376377 
L 362.142419 249.665833 
L 363.051247 259.150152 
L 363.859094 269.889324 
L 364.668265 283.830471 
L 365.428933 301.309984 
L 366.113534 322.696919 
L 366.675522 346.6 
L 366.675522 346.6 
" style="fill:none;stroke:#0000ff;stroke-linecap:square;"/>
   </g>
   <g id="line2d_60">
    <path clip-path="url(#p532db9933e)" d="M 373.489764 -1 
L 374.148853 27.996253 
L 374.843803 49.759691 
L 375.615796 67.46121 
L 376.465088 81.943945 
L 377.373801 93.673467 
L 378.383482 103.672045 
L 379.393163 111.487005 
L 380.456854 118.063661 
L 381.520545 123.409169 
L 382.730507 128.389667 
L 383.982594 132.624773 
L 385.168272 135.982866 
L 386.578896 139.344921 
L 387.932086 142.067076 
L 389.412436 144.605124 
L 390.892786 146.779089 
L 392.50297 148.814862 
L 394.447972 150.911686 
L 396.831477 153.061071 
L 399.248196 154.877522 
L 401.921838 156.561568 
L 405.15925 158.252004 
L 409.102134 159.925611 
L 413.346502 161.379675 
L 418.64232 162.82955 
L 423.971929 163.993465 
L 429.375144 164.953332 
L 435.466322 165.838508 
L 444.757133 166.899522 
L 449.515385 167.342308 
L 449.515385 167.342308 
" style="fill:none;stroke:#0000ff;stroke-linecap:square;"/>
   </g>
   <g id="patch_3">
    <path d="M 199.097802 343.08 
L 199.097802 2.52 
" style="fill:none;stroke:#000000;stroke-linecap:square;stroke-linejoin:miter;stroke-width:0.8;"/>
   </g>
   <g id="patch_4">
    <path d="M 2.52 172.8 
L 458.28 172.8 
" style="fill:none;stroke:#000000;stroke-linecap:square;stroke-linejoin:miter;stroke-width:0.8;"/>
   </g>
  </g>
 </g>
 <defs>
  <clipPath id="p532db9933e">
   <rect height="340.56" width="455.76" x="2.52" y="2.52"/>
  </clipPath>
 </defs>
</svg>
