<?xml version="1.0" encoding="utf-8" standalone="no"?>
<!DOCTYPE svg PUBLIC "-//W3C//DTD SVG 1.1//EN"
  "http://www.w3.org/Graphics/SVG/1.1/DTD/svg11.dtd">
<svg xmlns:xlink="http://www.w3.org/1999/xlink" width="460.8pt" height="345.6pt" viewBox="0 0 460.8 345.6" xmlns="http://www.w3.org/2000/svg" version="1.1">
 <metadata>
  <rdf:RDF xmlns:dc="http://purl.org/dc/elements/1.1/" xmlns:cc="http://creativecommons.org/ns#" xmlns:rdf="http://www.w3.org/1999/02/22-rdf-syntax-ns#">
   <cc:Work>
    <dc:type rdf:resource="http://purl.org/dc/dcmitype/StillImage"/>
    <dc:date>2024-03-20T19:26:55.613204</dc:date>
    <dc:format>image/svg+xml</dc:format>
    <dc:creator>
     <cc:Agent>
      <dc:title>Matplotlib v3.8.0, https://matplotlib.org/</dc:title>
     </cc:Agent>
    </dc:creator>
   </cc:Work>
  </rdf:RDF>
 </metadata>
 <defs>
  <style type="text/css">*{stroke-linejoin: round; stroke-linecap: butt}</style>
 </defs>
 <g id="figure_1">
  <g id="patch_1">
   <path d="M 0 345.6 
L 460.8 345.6 
L 460.8 0 
L 0 0 
z
" style="fill: #ffffff"/>
  </g>
  <g id="axes_1">
   <g id="patch_2">
    <path d="M 9.33054 334.520722 
L 459.416766 334.520722 
L 459.416766 0 
L 9.33054 0 
z
" style="fill: #ffffff"/>
   </g>
   <g id="patch_3">
    <path d="M 450.761262 6.433091 
L 450.666597 13.994156 
L 450.571932 13.994156 
L 450.382602 13.994156 
L 450.003941 13.994156 
L 449.246621 13.994156 
L 447.731979 13.994156 
L 446.613507 13.994156 
L 446.473698 13.994156 
L 446.403793 13.994156 
L 446.333889 12.002499 
L 446.054271 12.002499 
L 445.495035 12.002499 
L 445.024011 12.002499 
L 442.412192 12.002499 
L 442.162192 12.002499 
L 442.037192 12.002499 
L 441.974692 16.099215 
L 441.912192 16.099215 
L 441.412191 16.099215 
L 440.41219 16.099215 
L 437.202648 16.565308 
L 435.508511 16.565308 
L 434.068354 16.565308 
L 433.348275 16.565308 
L 433.258265 15.789517 
L 433.168256 15.789517 
L 432.988236 15.789517 
L 432.628197 15.789517 
L 431.154261 15.789517 
L 429.888893 15.789517 
L 429.25621 15.789517 
L 428.939868 15.789517 
L 428.860782 17.527244 
L 428.781697 17.527244 
L 428.623526 17.527244 
L 426.837526 17.527244 
L 425.65634 17.527244 
L 424.622959 17.527244 
L 424.493786 16.745113 
L 424.364614 16.745113 
L 424.106268 16.745113 
L 423.589578 16.745113 
L 421.522816 16.745113 
L 420.593878 16.745113 
L 420.32444 16.745113 
L 420.189722 16.745113 
L 420.122362 18.531003 
L 420.055003 18.531003 
L 419.516128 18.531003 
L 418.438378 18.531003 
L 417.025401 18.531003 
L 416.318913 18.531003 
L 415.965669 18.531003 
L 415.877357 18.531003 
L 415.789046 22.969575 
L 415.612424 22.969575 
L 414.272571 22.969575 
L 411.482223 22.969575 
L 411.403398 22.221843 
L 411.324573 22.221843 
L 411.166922 22.221843 
L 410.851622 22.221843 
L 410.221021 22.221843 
L 408.95982 22.221843 
L 407.857748 22.221843 
L 407.306712 22.221843 
L 407.168954 22.221843 
L 407.100074 22.221843 
L 407.031195 20.121229 
L 406.755677 20.121229 
L 405.789339 20.121229 
L 402.912401 20.121229 
L 402.757731 20.121229 
L 402.680395 20.121229 
L 402.60306 19.324136 
L 402.293719 19.324136 
L 401.675036 19.324136 
L 400.437671 19.324136 
L 399.246737 19.324136 
L 398.425589 19.324136 
L 398.322946 19.324136 
L 398.220302 21.242307 
L 398.015015 21.242307 
L 397.604441 21.242307 
L 395.962145 21.242307 
L 394.958191 21.242307 
L 392.82926 21.8224 
L 391.159559 21.8224 
L 390.324708 21.8224 
L 389.907283 21.8224 
L 389.69857 21.8224 
L 389.594214 21.8224 
L 389.489858 21.017188 
L 386.759651 21.017188 
L 385.931875 21.017188 
L 383.304509 21.608413 
L 381.400436 21.608413 
L 381.036115 21.608413 
L 380.853954 21.608413 
L 380.762873 19.348556 
L 380.671793 19.348556 
L 379.94315 19.348556 
L 378.485864 19.348556 
L 377.764447 19.348556 
L 376.687881 19.348556 
L 376.553311 19.348556 
L 376.486025 19.348556 
L 376.41874 22.834123 
L 376.149599 22.834123 
L 375.611316 22.834123 
L 373.537892 22.834123 
L 372.501179 22.834123 
L 372.242001 22.834123 
L 372.112412 22.834123 
L 371.982823 20.533599 
L 371.464467 20.533599 
L 371.078478 20.533599 
L 368.212939 20.533599 
L 367.733373 20.533599 
L 367.673427 24.121118 
L 367.613481 24.121118 
L 367.493589 24.121118 
L 367.253806 24.121118 
L 366.294674 24.121118 
L 363.41378 24.121118 
L 363.349094 24.121118 
L 363.316751 26.294256 
L 363.284408 26.294256 
L 363.155037 26.294256 
L 362.896293 26.294256 
L 362.378806 26.294256 
L 360.321588 26.294256 
L 359.292579 26.294256 
L 359.035327 26.294256 
L 358.906701 25.474113 
L 358.778075 25.474113 
L 358.26357 25.474113 
L 356.205552 25.474113 
L 355.986286 25.474113 
L 355.201403 25.474113 
L 354.808961 25.474113 
L 354.61274 25.474113 
L 354.51463 27.721267 
L 354.416519 27.721267 
L 352.846752 27.721267 
L 350.617275 27.721267 
L 350.332927 27.721267 
L 350.261841 27.721267 
L 350.190754 28.462938 
L 350.04858 28.462938 
L 349.479884 28.462938 
L 348.342494 28.462938 
L 345.897403 28.462938 
L 345.825425 27.638905 
L 345.753446 27.638905 
L 345.609489 27.638905 
L 345.321575 27.638905 
L 344.745747 27.638905 
L 343.594091 27.638905 
L 342.349844 27.638905 
L 341.727721 27.638905 
L 341.57219 27.638905 
L 341.494425 27.638905 
L 341.416659 28.399507 
L 341.105598 28.399507 
L 340.471142 28.399507 
L 338.503116 28.399507 
L 337.789456 28.399507 
L 337.432626 28.399507 
L 337.254211 28.399507 
L 337.165004 28.399507 
L 337.075796 29.180948 
L 335.648476 29.180948 
L 334.087906 29.180948 
L 333.307621 29.180948 
L 332.917479 29.180948 
L 332.819943 29.180948 
L 332.722408 31.635639 
L 332.527336 31.635639 
L 331.054771 31.635639 
L 329.605073 31.635639 
L 328.880223 31.635639 
L 328.517799 31.635639 
L 328.427193 31.635639 
L 328.336587 32.484672 
L 328.155374 32.484672 
L 326.615748 32.484672 
L 325.600164 32.484672 
L 324.267033 32.484672 
L 324.100391 32.484672 
L 324.017071 32.484672 
L 323.93375 31.659232 
L 323.600467 31.659232 
L 322.933902 31.659232 
L 320.484139 31.659232 
L 319.655574 31.659232 
L 319.552003 29.086518 
L 319.448432 29.086518 
L 319.241291 29.086518 
L 318.827009 29.086518 
L 317.169879 29.086518 
L 316.147681 29.086518 
L 315.463071 29.086518 
L 315.291918 29.086518 
L 315.24913 29.086518 
L 315.206342 33.432907 
L 315.120765 33.432907 
L 314.77846 33.432907 
L 312.118818 33.432907 
L 311.126856 33.432907 
L 310.878865 33.432907 
L 310.816868 34.359453 
L 310.75487 34.359453 
L 310.630875 34.359453 
L 310.134894 34.359453 
L 306.616358 34.359453 
L 306.550748 34.359453 
L 306.485137 42.52081 
L 306.353916 42.52081 
L 306.091473 42.52081 
L 305.566589 42.52081 
L 304.516819 42.52081 
L 302.615864 42.52081 
L 302.355103 42.52081 
L 302.224722 42.52081 
L 302.159532 42.52081 
L 302.094341 41.786277 
L 301.572818 41.786277 
L 300.529771 41.786277 
L 298.22673 41.786277 
L 297.902221 41.786277 
L 297.821094 41.786277 
L 297.739967 39.170805 
L 297.577713 39.170805 
L 296.928697 39.170805 
L 295.630664 39.170805 
L 294.984039 39.170805 
L 293.540875 39.170805 
L 293.450677 39.170805 
L 293.36048 38.359779 
L 293.180084 38.359779 
L 292.819293 38.359779 
L 292.097711 38.359779 
L 290.381368 38.359779 
L 289.373329 38.359779 
L 289.121319 38.359779 
L 289.058317 38.359779 
L 288.995314 47.112196 
L 288.869309 47.112196 
L 288.36529 47.112196 
L 285.890258 47.112196 
L 285.117462 47.112196 
L 284.731063 47.112196 
L 284.634464 52.252854 
L 284.537864 52.252854 
L 284.344665 52.252854 
L 282.799073 52.252854 
L 281.975478 52.252854 
L 280.55708 52.252854 
L 280.37978 52.252854 
L 280.29113 52.252854 
L 280.20248 49.637459 
L 279.847881 49.637459 
L 279.138682 49.637459 
L 277.519959 49.637459 
L 276.710598 49.637459 
L 276.305917 49.637459 
L 276.103577 49.637459 
L 276.002407 49.637459 
L 275.901237 48.94885 
L 275.249501 48.94885 
L 272.712991 48.94885 
L 271.971438 48.94885 
L 271.600662 48.94885 
L 271.507968 50.286686 
L 271.415274 50.286686 
L 271.229886 50.286686 
L 269.74678 50.286686 
L 267.774715 50.286686 
L 267.16125 50.286686 
L 267.084566 47.499145 
L 267.007883 47.499145 
L 266.854517 47.499145 
L 266.547784 47.499145 
L 265.320853 47.499145 
L 264.330168 47.499145 
L 263.036774 47.499145 
L 262.8751 47.499145 
L 262.794263 47.499145 
L 262.713426 48.858875 
L 262.390078 48.858875 
L 261.743381 48.858875 
L 259.322783 48.858875 
L 258.502784 48.858875 
L 258.451534 48.858875 
L 258.400284 50.268048 
L 258.297784 50.268048 
L 258.092784 50.268048 
L 257.682785 50.268048 
L 254.179926 50.268048 
L 254.107844 50.268048 
L 254.071804 50.268048 
L 254.053783 50.268048 
L 254.035763 51.729414 
L 253.8916 51.729414 
L 253.603275 51.729414 
L 249.951014 51.729414 
L 249.716486 51.729414 
L 249.657854 57.733137 
L 249.599222 57.733137 
L 249.481958 57.733137 
L 249.012903 57.733137 
L 248.074791 57.733137 
L 246.005648 57.733137 
L 245.541202 57.733137 
L 245.308978 57.733137 
L 245.250923 54.820764 
L 245.192867 54.820764 
L 245.076755 54.820764 
L 244.147862 54.820764 
L 242.583381 54.820764 
L 241.604956 54.820764 
L 241.115743 54.820764 
L 240.99344 54.820764 
L 240.932289 54.820764 
L 240.871137 56.457361 
L 240.626531 56.457361 
L 238.522518 56.457361 
L 237.17193 56.457361 
L 236.834283 56.457361 
L 236.665459 56.457361 
L 236.581047 56.457361 
L 236.496635 55.7812 
L 235.821341 55.7812 
L 233.574441 55.7812 
L 232.289894 55.7812 
L 232.209609 55.7812 
L 232.129325 52.650683 
L 231.968757 52.650683 
L 231.64762 52.650683 
L 231.005346 52.650683 
L 228.608578 52.650683 
L 227.995339 52.650683 
L 227.842029 52.650683 
L 227.803701 51.867042 
L 227.765374 51.867042 
L 227.688719 51.867042 
L 227.382099 51.867042 
L 225.293696 51.867042 
L 224.208579 51.867042 
L 223.666021 51.867042 
L 223.530382 51.867042 
L 223.462562 51.867042 
L 223.394742 61.17015 
L 223.123463 61.17015 
L 220.295088 61.17015 
L 219.408293 61.17015 
L 219.186595 61.17015 
L 219.075745 61.17015 
L 219.020321 70.87774 
L 218.964896 70.87774 
L 218.521499 70.87774 
L 216.764296 70.87774 
L 214.815509 70.87774 
L 214.69371 67.804434 
L 214.571911 67.804434 
L 214.328313 67.804434 
L 213.841116 67.804434 
L 212.866723 67.804434 
L 210.477402 67.804434 
L 209.754017 67.293957 
L 207.88529 67.293957 
L 206.429746 67.293957 
L 206.065861 67.293957 
L 205.974889 67.293957 
L 205.883918 63.994362 
L 205.701975 63.994362 
L 204.974203 63.994362 
L 203.796502 63.994362 
L 202.481269 63.994362 
L 201.823652 63.994362 
L 201.659248 63.994362 
L 201.577046 71.862511 
L 201.494844 71.862511 
L 201.166035 71.862511 
L 199.197799 71.862511 
L 197.496202 71.862511 
L 197.283502 71.862511 
L 197.177152 68.513389 
L 197.070803 68.513389 
L 196.645403 68.513389 
L 195.794605 68.513389 
L 193.902345 68.513389 
L 193.32986 68.513389 
L 193.043618 68.513389 
L 192.900497 68.513389 
L 192.864717 68.513389 
L 192.828936 70.942366 
L 192.757376 70.942366 
L 189.690279 70.942366 
L 188.735767 70.942366 
L 188.497139 70.942366 
L 188.437482 73.495905 
L 188.377825 73.495905 
L 188.258511 73.495905 
L 187.781255 73.495905 
L 185.217035 73.495905 
L 182.521444 73.054602 
L 182.054319 73.054602 
L 180.457061 73.054602 
L 180.057747 73.054602 
L 179.85809 73.054602 
L 179.758261 73.054602 
L 179.658433 75.803259 
L 178.859804 75.803259 
L 176.836295 75.803259 
L 175.640194 75.803259 
L 175.490681 75.803259 
L 175.415925 75.803259 
L 175.341169 78.704618 
L 175.042143 78.704618 
L 174.444093 78.704618 
L 173.173824 78.704618 
L 171.638184 78.704618 
L 171.254274 78.704618 
L 171.062319 78.704618 
L 170.966341 74.976849 
L 170.870364 74.976849 
L 170.102544 74.976849 
L 167.535588 74.976849 
L 167.000624 74.976849 
L 166.733142 74.976849 
L 166.666272 74.976849 
L 166.599401 85.019342 
L 166.46566 85.019342 
L 165.395732 85.019342 
L 163.665977 85.019342 
L 162.309643 85.019342 
L 162.24909 85.019342 
L 162.188536 81.257003 
L 162.067429 81.257003 
L 161.825215 81.257003 
L 161.340788 81.257003 
L 160.371932 81.257003 
L 158.052949 81.257003 
L 157.951131 81.257003 
L 157.849312 84.691462 
L 157.645675 84.691462 
L 157.238402 84.691462 
L 156.423854 84.691462 
L 154.794759 84.691462 
L 152.575932 84.511657 
L 150.019967 84.511657 
L 149.150021 84.511657 
L 149.095649 104.138382 
L 149.041277 104.138382 
L 148.932534 104.138382 
L 148.715047 104.138382 
L 148.280074 104.138382 
L 146.810238 104.138382 
L 145.033724 104.138382 
L 140.893399 104.61676 
L 140.468569 104.61676 
L 140.415465 104.61676 
L 140.362361 100.882483 
L 140.256154 100.882483 
L 140.043738 100.882483 
L 139.194078 100.882483 
L 138.1866 100.882483 
L 135.682618 101.275708 
L 133.707848 101.275708 
L 132.118462 101.275708 
L 131.721116 101.275708 
L 131.621779 97.125676 
L 131.522443 97.125676 
L 131.323769 97.125676 
L 130.529076 97.125676 
L 129.224924 97.125676 
L 127.476406 97.125676 
L 124.496015 97.400086 
L 123.08263 97.400086 
L 122.99023 97.400086 
L 122.89783 107.606623 
L 122.713029 107.606623 
L 122.343429 107.606623 
L 121.604227 107.606623 
L 120.125824 107.606623 
L 119.080244 107.606623 
L 118.557454 107.606623 
L 118.492105 113.530636 
L 118.426757 113.530636 
L 118.296059 113.530636 
L 118.034664 113.530636 
L 115.728419 113.530636 
L 114.742293 113.530636 
L 114.258779 113.530636 
L 114.137901 114.588146 
L 114.017022 114.588146 
L 113.775265 114.588146 
L 112.808237 114.588146 
L 110.874181 114.588146 
L 110.224134 114.588146 
L 109.899111 114.588146 
L 109.817855 114.588146 
L 109.736599 121.408805 
L 109.574087 121.408805 
L 108.273994 121.408805 
L 106.724881 121.408805 
L 105.760635 121.408805 
L 105.519573 121.408805 
L 105.459308 121.408805 
L 105.399043 117.020419 
L 105.278512 117.020419 
L 104.796389 117.020419 
L 103.767542 117.020419 
L 101.970194 117.020419 
L 101.07152 117.020419 
L 100.959186 118.428577 
L 100.846852 118.428577 
L 100.622183 118.428577 
L 100.172846 118.428577 
L 98.902309 118.428577 
L 97.538938 118.428577 
L 96.857253 118.428577 
L 96.686831 118.428577 
L 96.601621 126.599369 
L 96.51641 126.599369 
L 96.175567 126.599369 
L 94.017858 126.599369 
L 92.684118 126.599369 
L 92.490175 126.599369 
L 92.393203 126.599369 
L 92.296232 121.741889 
L 91.908346 121.741889 
L 91.132574 121.741889 
L 89.581029 121.741889 
L 88.299033 121.741889 
L 87.978534 121.741889 
L 87.898409 131.141113 
L 87.818284 131.141113 
L 87.658035 131.141113 
L 87.017037 131.141113 
L 84.721796 131.141113 
L 84.077449 131.141113 
L 83.755275 131.141113 
L 83.594188 131.141113 
L 83.553917 141.793566 
L 83.513645 141.793566 
L 83.433102 141.793566 
L 80.41513 141.793566 
L 79.686809 141.793566 
L 79.307554 141.793566 
L 79.21274 141.793566 
L 79.117926 145.474148 
L 78.928299 145.474148 
L 78.169788 145.474148 
L 76.652767 145.474148 
L 75.203209 145.474148 
L 74.84082 145.474148 
L 74.750222 140.573965 
L 74.659625 140.573965 
L 74.47843 140.573965 
L 73.753652 140.573965 
L 72.276359 140.573965 
L 70.761908 140.573965 
L 70.500512 140.573965 
L 70.435162 144.766343 
L 70.369813 144.766343 
L 70.239115 144.766343 
L 69.716322 144.766343 
L 68.670735 144.766343 
L 66.50559 144.766343 
L 66.190703 144.766343 
L 66.111981 144.766343 
L 66.03326 160.531073 
L 65.875816 160.531073 
L 65.246043 160.531073 
L 63.986496 160.531073 
L 62.277816 160.531073 
L 61.850646 160.531073 
L 61.743854 160.531073 
L 61.637061 155.666528 
L 61.423477 155.666528 
L 60.569137 155.666528 
L 59.752504 155.666528 
L 58.083045 155.666528 
L 57.66568 155.666528 
L 57.456998 155.666528 
L 57.352657 155.666528 
L 57.248316 176.145663 
L 56.413586 176.145663 
L 56.017301 176.145663 
L 54.294491 176.145663 
L 53.433087 176.145663 
L 53.002384 176.145663 
L 52.894709 186.880693 
L 52.787033 186.880693 
L 52.571682 186.880693 
L 50.349459 186.880693 
L 49.010512 186.880693 
L 48.686141 186.880693 
L 48.605048 186.880693 
L 48.523955 183.695574 
L 48.36177 183.695574 
L 47.713028 183.695574 
L 46.415545 183.695574 
L 44.510053 183.695574 
L 44.339184 183.695574 
L 44.25375 183.695574 
L 44.168316 199.267267 
L 43.826578 199.267267 
L 43.143103 199.267267 
L 41.776153 199.267267 
L 40.597118 199.267267 
L 40.0076 199.267267 
L 39.860221 199.267267 
L 39.786531 197.285415 
L 39.712841 197.285415 
L 39.418082 197.285415 
L 37.842889 197.285415 
L 36.535298 197.285415 
L 35.881502 197.285415 
L 35.554604 197.285415 
L 35.472879 197.285415 
L 35.391155 224.040414 
L 35.227706 224.040414 
L 33.371305 224.040414 
L 31.674067 224.040414 
L 31.232572 224.040414 
L 31.122199 224.040414 
L 31.067012 228.995043 
L 31.011825 228.995043 
L 30.791078 228.995043 
L 29.908089 228.995043 
L 27.283614 228.995043 
L 26.928489 228.995043 
L 26.750927 228.995043 
L 26.662146 238.904302 
L 26.573365 238.904302 
L 25.863117 238.904302 
L 24.442621 238.904302 
L 22.568378 238.904302 
L 22.405183 238.904302 
L 22.323585 209.176526 
L 22.241988 209.176526 
L 21.915597 209.176526 
L 21.262815 209.176526 
L 19.957252 209.176526 
L 17.986044 209.176526 
L 17.986044 328.087631 
L 18.566795 319.707219 
L 19.147545 312.257173 
L 19.881393 303.889703 
L 20.615242 296.449885 
L 21.349091 289.752405 
L 22.082939 283.662473 
L 23.642644 272.304836 
L 25.202349 262.592435 
L 26.519056 255.361738 
L 28.103228 247.58233 
L 29.687401 240.610955 
L 32.049657 231.398211 
L 32.691884 229.097526 
L 34.320653 223.593234 
L 37.585879 213.755353 
L 39.34654 208.993529 
L 42.953831 200.179395 
L 44.208204 197.366678 
L 45.285681 195.041212 
L 49.073169 187.451962 
L 50.529153 184.748387 
L 53.254805 179.962279 
L 53.921166 178.842276 
L 57.681442 172.849851 
L 58.288935 171.929988 
L 60.741086 168.339904 
L 64.538324 163.133508 
L 66.766661 160.25612 
L 67.151444 159.771503 
L 71.15747 154.923442 
L 72.860713 152.963668 
L 74.128643 151.541011 
L 76.939213 148.490916 
L 77.943639 147.433625 
L 80.40501 144.910948 
L 82.662261 142.677895 
L 85.420664 140.046139 
L 87.631176 138.009088 
L 90.424291 135.520447 
L 91.616961 134.485245 
L 93.253456 133.090287 
L 96.812495 130.152974 
L 98.132368 129.095504 
L 101.361692 126.576281 
L 102.906765 125.40357 
L 105.176653 123.717019 
L 106.283877 122.909453 
L 109.162921 120.853928 
L 111.256609 119.397651 
L 114.036499 117.511607 
L 115.32084 116.657799 
L 118.528069 114.571898 
L 120.11061 113.566034 
L 122.544598 112.047796 
L 125.155676 110.45636 
L 126.717898 109.521912 
L 129.935213 107.637464 
L 130.299564 107.42735 
L 132.503597 106.170151 
L 134.724354 104.926767 
L 137.711212 103.289931 
L 139.538204 102.308025 
L 141.467064 101.286711 
L 144.336046 99.795766 
L 145.914622 98.98931 
L 148.591303 97.643603 
L 151.375675 96.27178 
L 152.146442 95.896932 
L 155.579224 94.252404 
L 157.033134 93.567841 
L 159.466739 92.437377 
L 162.122522 91.225032 
L 162.613798 91.003146 
L 166.302181 89.36028 
L 167.268822 88.936285 
L 169.797493 87.839631 
L 172.526135 86.675994 
L 174.641017 85.78776 
L 177.021287 84.801912 
L 179.69653 83.710892 
L 181.956085 82.803 
L 183.844841 82.053399 
L 184.54869 81.776184 
L 187.426085 80.654652 
L 188.901932 80.086589 
L 191.133812 79.236546 
L 193.803663 78.233625 
L 197.259536 76.957279 
L 199.574562 76.115642 
L 200.352151 75.835296 
L 203.505664 74.710193 
L 205.176912 74.12148 
L 206.309869 73.7253 
L 208.397644 73.001296 
L 211.120701 72.068561 
L 213.803899 71.161974 
L 216.754259 70.17904 
L 218.725827 69.530123 
L 219.888894 69.150234 
L 221.633649 68.584346 
L 225.087805 67.477904 
L 226.014366 67.18418 
L 228.037525 66.547258 
L 231.237872 65.551908 
L 234.278734 64.61963 
L 234.390562 64.585591 
L 237.928774 63.517407 
L 239.121867 63.161009 
L 242.555258 62.145817 
L 245.207796 61.37188 
L 245.958565 61.154435 
L 248.286441 60.484654 
L 250.638013 59.814768 
L 252.942253 59.164781 
L 254.576581 58.707547 
L 257.7039 57.841201 
L 260.403455 57.102236 
L 261.800237 56.723054 
L 263.852238 56.169854 
L 266.691505 55.411848 
L 268.289299 54.989013 
L 271.28284 54.203903 
L 272.935447 53.774376 
L 275.664892 53.070928 
L 277.441566 52.616959 
L 279.093028 52.197718 
L 280.561728 51.827057 
L 282.444895 51.354769 
L 285.530946 50.587911 
L 287.588158 50.081531 
L 289.410707 49.636079 
L 291.04899 49.238169 
L 293.344317 48.684609 
L 297.051717 47.800024 
L 298.112819 47.548974 
L 299.841185 47.142053 
L 303.47912 46.293516 
L 304.662445 46.019804 
L 307.35414 45.401315 
L 309.602783 44.888959 
L 310.527303 44.679434 
L 314.650033 43.752969 
L 316.380234 43.36793 
L 318.497488 42.899739 
L 319.197677 42.745621 
L 322.136265 42.102636 
L 324.871404 41.509647 
L 327.851607 40.869431 
L 328.858757 40.654443 
L 330.318159 40.344134 
L 332.994128 39.778845 
L 334.510025 39.460714 
L 338.483083 38.633996 
L 338.872002 38.553613 
L 343.048754 37.696361 
L 344.202722 37.461432 
L 345.828825 37.131773 
L 349.127397 36.467982 
L 350.360719 36.221468 
L 352.427575 35.810366 
L 355.968825 35.1118 
L 357.183892 34.873773 
L 358.535725 34.609942 
L 362.073963 33.924264 
L 363.894949 33.574083 
L 364.882426 33.384949 
L 368.367565 32.721653 
L 370.78177 32.265988 
L 373.203614 31.811966 
L 374.295476 31.608274 
L 377.484736 31.016815 
L 379.216417 30.697837 
L 380.367258 30.486685 
L 384.284998 29.772807 
L 385.473199 29.557788 
L 387.533237 29.186622 
L 389.819957 28.777001 
L 392.336621 28.329059 
L 393.826194 28.065329 
L 396.609087 27.575372 
L 399.173042 27.127103 
L 400.999343 26.809616 
L 403.692586 26.344138 
L 404.853051 26.144563 
L 406.244821 25.905988 
L 409.112507 25.417068 
L 411.8391 24.95548 
L 413.701939 24.641932 
L 416.677933 24.144037 
L 417.30357 24.039833 
L 419.673899 23.6465 
L 421.538484 23.3387 
L 423.622503 22.996338 
L 426.853727 22.468938 
L 428.412893 22.215924 
L 431.979696 21.64068 
L 434.106273 21.30004 
L 436.207287 20.965183 
L 438.573352 20.59007 
L 439.020331 20.519441 
L 441.123565 20.188093 
L 443.812105 19.766901 
L 446.753785 19.309057 
L 449.275778 18.919002 
L 450.761262 18.69031 
z
" clip-path="url(#p8593081c62)" style="fill: #ff0000; opacity: 0.5"/>
   </g>
   <g id="matplotlib.axis_1">
    <g id="xtick_1">
     <g id="line2d_1">
      <defs>
       <path id="m2d83bd39f4" d="M 0 0 
L 0 3.5 
" style="stroke: #000000; stroke-width: 0.8"/>
      </defs>
      <g>
       <use xlink:href="#m2d83bd39f4" x="13.614577" y="328.087631" style="stroke: #000000; stroke-width: 0.8"/>
      </g>
     </g>
    </g>
    <g id="xtick_2">
     <g id="line2d_2">
      <g>
       <use xlink:href="#m2d83bd39f4" x="101.043914" y="328.087631" style="stroke: #000000; stroke-width: 0.8"/>
      </g>
     </g>
     <g id="text_1">
      <!-- 20 -->
      <g transform="translate(94.681414 342.686069) scale(0.1 -0.1)">
       <defs>
        <path id="DejaVuSans-32" d="M 1228 531 
L 3431 531 
L 3431 0 
L 469 0 
L 469 531 
Q 828 903 1448 1529 
Q 2069 2156 2228 2338 
Q 2531 2678 2651 2914 
Q 2772 3150 2772 3378 
Q 2772 3750 2511 3984 
Q 2250 4219 1831 4219 
Q 1534 4219 1204 4116 
Q 875 4013 500 3803 
L 500 4441 
Q 881 4594 1212 4672 
Q 1544 4750 1819 4750 
Q 2544 4750 2975 4387 
Q 3406 4025 3406 3419 
Q 3406 3131 3298 2873 
Q 3191 2616 2906 2266 
Q 2828 2175 2409 1742 
Q 1991 1309 1228 531 
z
" transform="scale(0.015625)"/>
        <path id="DejaVuSans-30" d="M 2034 4250 
Q 1547 4250 1301 3770 
Q 1056 3291 1056 2328 
Q 1056 1369 1301 889 
Q 1547 409 2034 409 
Q 2525 409 2770 889 
Q 3016 1369 3016 2328 
Q 3016 3291 2770 3770 
Q 2525 4250 2034 4250 
z
M 2034 4750 
Q 2819 4750 3233 4129 
Q 3647 3509 3647 2328 
Q 3647 1150 3233 529 
Q 2819 -91 2034 -91 
Q 1250 -91 836 529 
Q 422 1150 422 2328 
Q 422 3509 836 4129 
Q 1250 4750 2034 4750 
z
" transform="scale(0.015625)"/>
       </defs>
       <use xlink:href="#DejaVuSans-32"/>
       <use xlink:href="#DejaVuSans-30" x="63.623047"/>
      </g>
     </g>
    </g>
    <g id="xtick_3">
     <g id="line2d_3">
      <g>
       <use xlink:href="#m2d83bd39f4" x="188.473251" y="328.087631" style="stroke: #000000; stroke-width: 0.8"/>
      </g>
     </g>
     <g id="text_2">
      <!-- 40 -->
      <g transform="translate(182.110751 342.686069) scale(0.1 -0.1)">
       <defs>
        <path id="DejaVuSans-34" d="M 2419 4116 
L 825 1625 
L 2419 1625 
L 2419 4116 
z
M 2253 4666 
L 3047 4666 
L 3047 1625 
L 3713 1625 
L 3713 1100 
L 3047 1100 
L 3047 0 
L 2419 0 
L 2419 1100 
L 313 1100 
L 313 1709 
L 2253 4666 
z
" transform="scale(0.015625)"/>
       </defs>
       <use xlink:href="#DejaVuSans-34"/>
       <use xlink:href="#DejaVuSans-30" x="63.623047"/>
      </g>
     </g>
    </g>
    <g id="xtick_4">
     <g id="line2d_4">
      <g>
       <use xlink:href="#m2d83bd39f4" x="275.902588" y="328.087631" style="stroke: #000000; stroke-width: 0.8"/>
      </g>
     </g>
     <g id="text_3">
      <!-- 60 -->
      <g transform="translate(269.540088 342.686069) scale(0.1 -0.1)">
       <defs>
        <path id="DejaVuSans-36" d="M 2113 2584 
Q 1688 2584 1439 2293 
Q 1191 2003 1191 1497 
Q 1191 994 1439 701 
Q 1688 409 2113 409 
Q 2538 409 2786 701 
Q 3034 994 3034 1497 
Q 3034 2003 2786 2293 
Q 2538 2584 2113 2584 
z
M 3366 4563 
L 3366 3988 
Q 3128 4100 2886 4159 
Q 2644 4219 2406 4219 
Q 1781 4219 1451 3797 
Q 1122 3375 1075 2522 
Q 1259 2794 1537 2939 
Q 1816 3084 2150 3084 
Q 2853 3084 3261 2657 
Q 3669 2231 3669 1497 
Q 3669 778 3244 343 
Q 2819 -91 2113 -91 
Q 1303 -91 875 529 
Q 447 1150 447 2328 
Q 447 3434 972 4092 
Q 1497 4750 2381 4750 
Q 2619 4750 2861 4703 
Q 3103 4656 3366 4563 
z
" transform="scale(0.015625)"/>
       </defs>
       <use xlink:href="#DejaVuSans-36"/>
       <use xlink:href="#DejaVuSans-30" x="63.623047"/>
      </g>
     </g>
    </g>
    <g id="xtick_5">
     <g id="line2d_5">
      <g>
       <use xlink:href="#m2d83bd39f4" x="363.331925" y="328.087631" style="stroke: #000000; stroke-width: 0.8"/>
      </g>
     </g>
     <g id="text_4">
      <!-- 80 -->
      <g transform="translate(356.969425 342.686069) scale(0.1 -0.1)">
       <defs>
        <path id="DejaVuSans-38" d="M 2034 2216 
Q 1584 2216 1326 1975 
Q 1069 1734 1069 1313 
Q 1069 891 1326 650 
Q 1584 409 2034 409 
Q 2484 409 2743 651 
Q 3003 894 3003 1313 
Q 3003 1734 2745 1975 
Q 2488 2216 2034 2216 
z
M 1403 2484 
Q 997 2584 770 2862 
Q 544 3141 544 3541 
Q 544 4100 942 4425 
Q 1341 4750 2034 4750 
Q 2731 4750 3128 4425 
Q 3525 4100 3525 3541 
Q 3525 3141 3298 2862 
Q 3072 2584 2669 2484 
Q 3125 2378 3379 2068 
Q 3634 1759 3634 1313 
Q 3634 634 3220 271 
Q 2806 -91 2034 -91 
Q 1263 -91 848 271 
Q 434 634 434 1313 
Q 434 1759 690 2068 
Q 947 2378 1403 2484 
z
M 1172 3481 
Q 1172 3119 1398 2916 
Q 1625 2713 2034 2713 
Q 2441 2713 2670 2916 
Q 2900 3119 2900 3481 
Q 2900 3844 2670 4047 
Q 2441 4250 2034 4250 
Q 1625 4250 1398 4047 
Q 1172 3844 1172 3481 
z
" transform="scale(0.015625)"/>
       </defs>
       <use xlink:href="#DejaVuSans-38"/>
       <use xlink:href="#DejaVuSans-30" x="63.623047"/>
      </g>
     </g>
    </g>
    <g id="xtick_6">
     <g id="line2d_6">
      <g>
       <use xlink:href="#m2d83bd39f4" x="450.761262" y="328.087631" style="stroke: #000000; stroke-width: 0.8"/>
      </g>
     </g>
     <g id="text_5">
      <!-- 100 -->
      <g transform="translate(441.217512 342.686069) scale(0.1 -0.1)">
       <defs>
        <path id="DejaVuSans-31" d="M 794 531 
L 1825 531 
L 1825 4091 
L 703 3866 
L 703 4441 
L 1819 4666 
L 2450 4666 
L 2450 531 
L 3481 531 
L 3481 0 
L 794 0 
L 794 531 
z
" transform="scale(0.015625)"/>
       </defs>
       <use xlink:href="#DejaVuSans-31"/>
       <use xlink:href="#DejaVuSans-30" x="63.623047"/>
       <use xlink:href="#DejaVuSans-30" x="127.246094"/>
      </g>
     </g>
    </g>
    <g id="xtick_7">
     <g id="line2d_7">
      <defs>
       <path id="m2990baf17d" d="M 0 0 
L 0 2 
" style="stroke: #000000; stroke-width: 0.6"/>
      </defs>
      <g>
       <use xlink:href="#m2990baf17d" x="35.471912" y="328.087631" style="stroke: #000000; stroke-width: 0.6"/>
      </g>
     </g>
    </g>
    <g id="xtick_8">
     <g id="line2d_8">
      <g>
       <use xlink:href="#m2990baf17d" x="57.329246" y="328.087631" style="stroke: #000000; stroke-width: 0.6"/>
      </g>
     </g>
    </g>
    <g id="xtick_9">
     <g id="line2d_9">
      <g>
       <use xlink:href="#m2990baf17d" x="79.18658" y="328.087631" style="stroke: #000000; stroke-width: 0.6"/>
      </g>
     </g>
    </g>
    <g id="xtick_10">
     <g id="line2d_10">
      <g>
       <use xlink:href="#m2990baf17d" x="122.901249" y="328.087631" style="stroke: #000000; stroke-width: 0.6"/>
      </g>
     </g>
    </g>
    <g id="xtick_11">
     <g id="line2d_11">
      <g>
       <use xlink:href="#m2990baf17d" x="144.758583" y="328.087631" style="stroke: #000000; stroke-width: 0.6"/>
      </g>
     </g>
    </g>
    <g id="xtick_12">
     <g id="line2d_12">
      <g>
       <use xlink:href="#m2990baf17d" x="166.615917" y="328.087631" style="stroke: #000000; stroke-width: 0.6"/>
      </g>
     </g>
    </g>
    <g id="xtick_13">
     <g id="line2d_13">
      <g>
       <use xlink:href="#m2990baf17d" x="210.330585" y="328.087631" style="stroke: #000000; stroke-width: 0.6"/>
      </g>
     </g>
    </g>
    <g id="xtick_14">
     <g id="line2d_14">
      <g>
       <use xlink:href="#m2990baf17d" x="232.18792" y="328.087631" style="stroke: #000000; stroke-width: 0.6"/>
      </g>
     </g>
    </g>
    <g id="xtick_15">
     <g id="line2d_15">
      <g>
       <use xlink:href="#m2990baf17d" x="254.045254" y="328.087631" style="stroke: #000000; stroke-width: 0.6"/>
      </g>
     </g>
    </g>
    <g id="xtick_16">
     <g id="line2d_16">
      <g>
       <use xlink:href="#m2990baf17d" x="297.759922" y="328.087631" style="stroke: #000000; stroke-width: 0.6"/>
      </g>
     </g>
    </g>
    <g id="xtick_17">
     <g id="line2d_17">
      <g>
       <use xlink:href="#m2990baf17d" x="319.617257" y="328.087631" style="stroke: #000000; stroke-width: 0.6"/>
      </g>
     </g>
    </g>
    <g id="xtick_18">
     <g id="line2d_18">
      <g>
       <use xlink:href="#m2990baf17d" x="341.474591" y="328.087631" style="stroke: #000000; stroke-width: 0.6"/>
      </g>
     </g>
    </g>
    <g id="xtick_19">
     <g id="line2d_19">
      <g>
       <use xlink:href="#m2990baf17d" x="385.189259" y="328.087631" style="stroke: #000000; stroke-width: 0.6"/>
      </g>
     </g>
    </g>
    <g id="xtick_20">
     <g id="line2d_20">
      <g>
       <use xlink:href="#m2990baf17d" x="407.046594" y="328.087631" style="stroke: #000000; stroke-width: 0.6"/>
      </g>
     </g>
    </g>
    <g id="xtick_21">
     <g id="line2d_21">
      <g>
       <use xlink:href="#m2990baf17d" x="428.903928" y="328.087631" style="stroke: #000000; stroke-width: 0.6"/>
      </g>
     </g>
    </g>
   </g>
   <g id="matplotlib.axis_2">
    <g id="ytick_1">
     <g id="line2d_22">
      <defs>
       <path id="md6fb1294c8" d="M 0 0 
L -3.5 0 
" style="stroke: #000000; stroke-width: 0.8"/>
      </defs>
      <g>
       <use xlink:href="#md6fb1294c8" x="13.614577" y="328.087631" style="stroke: #000000; stroke-width: 0.8"/>
      </g>
     </g>
    </g>
    <g id="ytick_2">
     <g id="line2d_23">
      <g>
       <use xlink:href="#md6fb1294c8" x="13.614577" y="268.632078" style="stroke: #000000; stroke-width: 0.8"/>
      </g>
     </g>
     <g id="text_6">
      <!-- 1 -->
      <g transform="translate(0.252077 272.431297) scale(0.1 -0.1)">
       <use xlink:href="#DejaVuSans-31"/>
      </g>
     </g>
    </g>
    <g id="ytick_3">
     <g id="line2d_24">
      <g>
       <use xlink:href="#md6fb1294c8" x="13.614577" y="209.176526" style="stroke: #000000; stroke-width: 0.8"/>
      </g>
     </g>
     <g id="text_7">
      <!-- 2 -->
      <g transform="translate(0.252077 212.975744) scale(0.1 -0.1)">
       <use xlink:href="#DejaVuSans-32"/>
      </g>
     </g>
    </g>
    <g id="ytick_4">
     <g id="line2d_25">
      <g>
       <use xlink:href="#md6fb1294c8" x="13.614577" y="149.720973" style="stroke: #000000; stroke-width: 0.8"/>
      </g>
     </g>
     <g id="text_8">
      <!-- 3 -->
      <g transform="translate(0.252077 153.520192) scale(0.1 -0.1)">
       <defs>
        <path id="DejaVuSans-33" d="M 2597 2516 
Q 3050 2419 3304 2112 
Q 3559 1806 3559 1356 
Q 3559 666 3084 287 
Q 2609 -91 1734 -91 
Q 1441 -91 1130 -33 
Q 819 25 488 141 
L 488 750 
Q 750 597 1062 519 
Q 1375 441 1716 441 
Q 2309 441 2620 675 
Q 2931 909 2931 1356 
Q 2931 1769 2642 2001 
Q 2353 2234 1838 2234 
L 1294 2234 
L 1294 2753 
L 1863 2753 
Q 2328 2753 2575 2939 
Q 2822 3125 2822 3475 
Q 2822 3834 2567 4026 
Q 2313 4219 1838 4219 
Q 1578 4219 1281 4162 
Q 984 4106 628 3988 
L 628 4550 
Q 988 4650 1302 4700 
Q 1616 4750 1894 4750 
Q 2613 4750 3031 4423 
Q 3450 4097 3450 3541 
Q 3450 3153 3228 2886 
Q 3006 2619 2597 2516 
z
" transform="scale(0.015625)"/>
       </defs>
       <use xlink:href="#DejaVuSans-33"/>
      </g>
     </g>
    </g>
    <g id="ytick_5">
     <g id="line2d_26">
      <g>
       <use xlink:href="#md6fb1294c8" x="13.614577" y="90.26542" style="stroke: #000000; stroke-width: 0.8"/>
      </g>
     </g>
     <g id="text_9">
      <!-- 4 -->
      <g transform="translate(0.252077 94.064639) scale(0.1 -0.1)">
       <use xlink:href="#DejaVuSans-34"/>
      </g>
     </g>
    </g>
    <g id="ytick_6">
     <g id="line2d_27">
      <g>
       <use xlink:href="#md6fb1294c8" x="13.614577" y="30.809867" style="stroke: #000000; stroke-width: 0.8"/>
      </g>
     </g>
     <g id="text_10">
      <!-- 5 -->
      <g transform="translate(0.252077 34.609086) scale(0.1 -0.1)">
       <defs>
        <path id="DejaVuSans-35" d="M 691 4666 
L 3169 4666 
L 3169 4134 
L 1269 4134 
L 1269 2991 
Q 1406 3038 1543 3061 
Q 1681 3084 1819 3084 
Q 2600 3084 3056 2656 
Q 3513 2228 3513 1497 
Q 3513 744 3044 326 
Q 2575 -91 1722 -91 
Q 1428 -91 1123 -41 
Q 819 9 494 109 
L 494 744 
Q 775 591 1075 516 
Q 1375 441 1709 441 
Q 2250 441 2565 725 
Q 2881 1009 2881 1497 
Q 2881 1984 2565 2268 
Q 2250 2553 1709 2553 
Q 1456 2553 1204 2497 
Q 953 2441 691 2322 
L 691 4666 
z
" transform="scale(0.015625)"/>
       </defs>
       <use xlink:href="#DejaVuSans-35"/>
      </g>
     </g>
    </g>
    <g id="ytick_7">
     <g id="line2d_28">
      <defs>
       <path id="mf45637f9f6" d="M 0 0 
L -2 0 
" style="stroke: #000000; stroke-width: 0.6"/>
      </defs>
      <g>
       <use xlink:href="#mf45637f9f6" x="13.614577" y="316.196521" style="stroke: #000000; stroke-width: 0.6"/>
      </g>
     </g>
    </g>
    <g id="ytick_8">
     <g id="line2d_29">
      <g>
       <use xlink:href="#mf45637f9f6" x="13.614577" y="304.30541" style="stroke: #000000; stroke-width: 0.6"/>
      </g>
     </g>
    </g>
    <g id="ytick_9">
     <g id="line2d_30">
      <g>
       <use xlink:href="#mf45637f9f6" x="13.614577" y="292.414299" style="stroke: #000000; stroke-width: 0.6"/>
      </g>
     </g>
    </g>
    <g id="ytick_10">
     <g id="line2d_31">
      <g>
       <use xlink:href="#mf45637f9f6" x="13.614577" y="280.523189" style="stroke: #000000; stroke-width: 0.6"/>
      </g>
     </g>
    </g>
    <g id="ytick_11">
     <g id="line2d_32">
      <g>
       <use xlink:href="#mf45637f9f6" x="13.614577" y="256.740968" style="stroke: #000000; stroke-width: 0.6"/>
      </g>
     </g>
    </g>
    <g id="ytick_12">
     <g id="line2d_33">
      <g>
       <use xlink:href="#mf45637f9f6" x="13.614577" y="244.849857" style="stroke: #000000; stroke-width: 0.6"/>
      </g>
     </g>
    </g>
    <g id="ytick_13">
     <g id="line2d_34">
      <g>
       <use xlink:href="#mf45637f9f6" x="13.614577" y="232.958747" style="stroke: #000000; stroke-width: 0.6"/>
      </g>
     </g>
    </g>
    <g id="ytick_14">
     <g id="line2d_35">
      <g>
       <use xlink:href="#mf45637f9f6" x="13.614577" y="221.067636" style="stroke: #000000; stroke-width: 0.6"/>
      </g>
     </g>
    </g>
    <g id="ytick_15">
     <g id="line2d_36">
      <g>
       <use xlink:href="#mf45637f9f6" x="13.614577" y="197.285415" style="stroke: #000000; stroke-width: 0.6"/>
      </g>
     </g>
    </g>
    <g id="ytick_16">
     <g id="line2d_37">
      <g>
       <use xlink:href="#mf45637f9f6" x="13.614577" y="185.394305" style="stroke: #000000; stroke-width: 0.6"/>
      </g>
     </g>
    </g>
    <g id="ytick_17">
     <g id="line2d_38">
      <g>
       <use xlink:href="#mf45637f9f6" x="13.614577" y="173.503194" style="stroke: #000000; stroke-width: 0.6"/>
      </g>
     </g>
    </g>
    <g id="ytick_18">
     <g id="line2d_39">
      <g>
       <use xlink:href="#mf45637f9f6" x="13.614577" y="161.612083" style="stroke: #000000; stroke-width: 0.6"/>
      </g>
     </g>
    </g>
    <g id="ytick_19">
     <g id="line2d_40">
      <g>
       <use xlink:href="#mf45637f9f6" x="13.614577" y="137.829862" style="stroke: #000000; stroke-width: 0.6"/>
      </g>
     </g>
    </g>
    <g id="ytick_20">
     <g id="line2d_41">
      <g>
       <use xlink:href="#mf45637f9f6" x="13.614577" y="125.938752" style="stroke: #000000; stroke-width: 0.6"/>
      </g>
     </g>
    </g>
    <g id="ytick_21">
     <g id="line2d_42">
      <g>
       <use xlink:href="#mf45637f9f6" x="13.614577" y="114.047641" style="stroke: #000000; stroke-width: 0.6"/>
      </g>
     </g>
    </g>
    <g id="ytick_22">
     <g id="line2d_43">
      <g>
       <use xlink:href="#mf45637f9f6" x="13.614577" y="102.156531" style="stroke: #000000; stroke-width: 0.6"/>
      </g>
     </g>
    </g>
    <g id="ytick_23">
     <g id="line2d_44">
      <g>
       <use xlink:href="#mf45637f9f6" x="13.614577" y="78.37431" style="stroke: #000000; stroke-width: 0.6"/>
      </g>
     </g>
    </g>
    <g id="ytick_24">
     <g id="line2d_45">
      <g>
       <use xlink:href="#mf45637f9f6" x="13.614577" y="66.483199" style="stroke: #000000; stroke-width: 0.6"/>
      </g>
     </g>
    </g>
    <g id="ytick_25">
     <g id="line2d_46">
      <g>
       <use xlink:href="#mf45637f9f6" x="13.614577" y="54.592089" style="stroke: #000000; stroke-width: 0.6"/>
      </g>
     </g>
    </g>
    <g id="ytick_26">
     <g id="line2d_47">
      <g>
       <use xlink:href="#mf45637f9f6" x="13.614577" y="42.700978" style="stroke: #000000; stroke-width: 0.6"/>
      </g>
     </g>
    </g>
    <g id="ytick_27">
     <g id="line2d_48">
      <g>
       <use xlink:href="#mf45637f9f6" x="13.614577" y="18.918757" style="stroke: #000000; stroke-width: 0.6"/>
      </g>
     </g>
    </g>
    <g id="ytick_28">
     <g id="line2d_49">
      <g>
       <use xlink:href="#mf45637f9f6" x="13.614577" y="7.027646" style="stroke: #000000; stroke-width: 0.6"/>
      </g>
     </g>
    </g>
   </g>
   <g id="line2d_50">
    <path d="M 17.986044 328.087631 
L 19.147545 312.257173 
L 20.615242 296.449885 
L 22.082939 283.662473 
L 23.642644 272.304836 
L 25.202349 262.592435 
L 26.519056 255.361738 
L 28.103228 247.58233 
L 29.687401 240.610955 
L 32.691884 229.097526 
L 34.320653 223.593234 
L 37.585879 213.755353 
L 39.34654 208.993529 
L 44.208204 197.366678 
L 45.285681 195.041212 
L 50.529153 184.748387 
L 53.921166 178.842276 
L 58.288935 171.929988 
L 60.741086 168.339904 
L 66.766661 160.25612 
L 67.151444 159.771503 
L 72.860713 152.963668 
L 76.939213 148.490916 
L 80.40501 144.910948 
L 85.420664 140.046139 
L 91.616961 134.485245 
L 96.812495 130.152974 
L 102.906765 125.40357 
L 109.162921 120.853928 
L 115.32084 116.657799 
L 122.544598 112.047796 
L 130.299564 107.42735 
L 137.711212 103.289931 
L 145.914622 98.98931 
L 155.579224 94.252404 
L 162.613798 91.003146 
L 172.526135 86.675994 
L 181.956085 82.803 
L 191.133812 79.236546 
L 200.352151 75.835296 
L 211.120701 72.068561 
L 221.633649 68.584346 
L 234.390562 64.585591 
L 248.286441 60.484654 
L 261.800237 56.723054 
L 277.441566 52.616959 
L 293.344317 48.684609 
L 310.527303 44.679434 
L 330.318159 40.344134 
L 350.360719 36.221468 
L 370.78177 32.265988 
L 392.336621 28.329059 
L 413.701939 24.641932 
L 438.573352 20.59007 
L 450.761262 18.69031 
L 450.761262 18.69031 
" clip-path="url(#p8593081c62)" style="fill: none; stroke: #0000ff; stroke-linecap: square"/>
   </g>
   <g id="patch_4">
    <path d="M 13.614577 334.520722 
L 13.614577 0 
" style="fill: none; stroke: #000000; stroke-width: 0.8; stroke-linejoin: miter; stroke-linecap: square"/>
   </g>
   <g id="patch_5">
    <path d="M 9.33054 328.087631 
L 459.416766 328.087631 
" style="fill: none; stroke: #000000; stroke-width: 0.8; stroke-linejoin: miter; stroke-linecap: square"/>
   </g>
  </g>
 </g>
 <defs>
  <clipPath id="p8593081c62">
   <rect x="9.33054" y="0" width="450.086227" height="334.520722"/>
  </clipPath>
 </defs>
</svg>
