<?xml version="1.0" encoding="utf-8" standalone="no"?>
<!DOCTYPE svg PUBLIC "-//W3C//DTD SVG 1.1//EN"
  "http://www.w3.org/Graphics/SVG/1.1/DTD/svg11.dtd">
<!-- Created with matplotlib (http://matplotlib.org/) -->
<svg height="345.6pt" version="1.1" viewBox="0 0 460.8 345.6" width="460.8pt" xmlns="http://www.w3.org/2000/svg" xmlns:xlink="http://www.w3.org/1999/xlink">
 <defs>
  <style type="text/css">
*{stroke-linecap:butt;stroke-linejoin:round;}
  </style>
 </defs>
 <g id="figure_1">
  <g id="patch_1">
   <path d="M 0 345.6 
L 460.8 345.6 
L 460.8 0 
L 0 0 
z
" style="fill:#ffffff;"/>
  </g>
  <g id="axes_1">
   <g id="patch_2">
    <path d="M 2.52 343.08 
L 458.28 343.08 
L 458.28 2.52 
L 2.52 2.52 
z
" style="fill:#ffffff;"/>
   </g>
   <g id="matplotlib.axis_1">
    <g id="xtick_1">
     <g id="line2d_1">
      <defs>
       <path d="M 0 0 
L 0 3.5 
" id="mdb1fd8bcf9" style="stroke:#000000;stroke-width:0.8;"/>
      </defs>
      <g>
       <use style="stroke:#000000;stroke-width:0.8;" x="11.284615" xlink:href="#mdb1fd8bcf9" y="172.801225"/>
      </g>
     </g>
     <g id="text_1">
      <!-- -1 -->
      <defs>
       <path d="M 4.890625 31.390625 
L 31.203125 31.390625 
L 31.203125 23.390625 
L 4.890625 23.390625 
z
" id="DejaVuSans-2d"/>
       <path d="M 12.40625 8.296875 
L 28.515625 8.296875 
L 28.515625 63.921875 
L 10.984375 60.40625 
L 10.984375 69.390625 
L 28.421875 72.90625 
L 38.28125 72.90625 
L 38.28125 8.296875 
L 54.390625 8.296875 
L 54.390625 0 
L 12.40625 0 
z
" id="DejaVuSans-31"/>
      </defs>
      <g transform="translate(6.299459 187.399662)scale(0.1 -0.1)">
       <use xlink:href="#DejaVuSans-2d"/>
       <use x="36.083984" xlink:href="#DejaVuSans-31"/>
      </g>
     </g>
    </g>
    <g id="xtick_2">
     <g id="line2d_2">
      <g>
       <use style="stroke:#000000;stroke-width:0.8;" x="120.842308" xlink:href="#mdb1fd8bcf9" y="172.801225"/>
      </g>
     </g>
     <g id="text_2">
      <!-- -0.5 -->
      <defs>
       <path d="M 31.78125 66.40625 
Q 24.171875 66.40625 20.328125 58.90625 
Q 16.5 51.421875 16.5 36.375 
Q 16.5 21.390625 20.328125 13.890625 
Q 24.171875 6.390625 31.78125 6.390625 
Q 39.453125 6.390625 43.28125 13.890625 
Q 47.125 21.390625 47.125 36.375 
Q 47.125 51.421875 43.28125 58.90625 
Q 39.453125 66.40625 31.78125 66.40625 
z
M 31.78125 74.21875 
Q 44.046875 74.21875 50.515625 64.515625 
Q 56.984375 54.828125 56.984375 36.375 
Q 56.984375 17.96875 50.515625 8.265625 
Q 44.046875 -1.421875 31.78125 -1.421875 
Q 19.53125 -1.421875 13.0625 8.265625 
Q 6.59375 17.96875 6.59375 36.375 
Q 6.59375 54.828125 13.0625 64.515625 
Q 19.53125 74.21875 31.78125 74.21875 
z
" id="DejaVuSans-30"/>
       <path d="M 10.6875 12.40625 
L 21 12.40625 
L 21 0 
L 10.6875 0 
z
" id="DejaVuSans-2e"/>
       <path d="M 10.796875 72.90625 
L 49.515625 72.90625 
L 49.515625 64.59375 
L 19.828125 64.59375 
L 19.828125 46.734375 
Q 21.96875 47.46875 24.109375 47.828125 
Q 26.265625 48.1875 28.421875 48.1875 
Q 40.625 48.1875 47.75 41.5 
Q 54.890625 34.8125 54.890625 23.390625 
Q 54.890625 11.625 47.5625 5.09375 
Q 40.234375 -1.421875 26.90625 -1.421875 
Q 22.3125 -1.421875 17.546875 -0.640625 
Q 12.796875 0.140625 7.71875 1.703125 
L 7.71875 11.625 
Q 12.109375 9.234375 16.796875 8.0625 
Q 21.484375 6.890625 26.703125 6.890625 
Q 35.15625 6.890625 40.078125 11.328125 
Q 45.015625 15.765625 45.015625 23.390625 
Q 45.015625 31 40.078125 35.4375 
Q 35.15625 39.890625 26.703125 39.890625 
Q 22.75 39.890625 18.8125 39.015625 
Q 14.890625 38.140625 10.796875 36.28125 
z
" id="DejaVuSans-35"/>
      </defs>
      <g transform="translate(111.086839 187.399662)scale(0.1 -0.1)">
       <use xlink:href="#DejaVuSans-2d"/>
       <use x="36.083984" xlink:href="#DejaVuSans-30"/>
       <use x="99.707031" xlink:href="#DejaVuSans-2e"/>
       <use x="131.494141" xlink:href="#DejaVuSans-35"/>
      </g>
     </g>
    </g>
    <g id="xtick_3">
     <g id="line2d_3">
      <g>
       <use style="stroke:#000000;stroke-width:0.8;" x="230.4" xlink:href="#mdb1fd8bcf9" y="172.801225"/>
      </g>
     </g>
    </g>
    <g id="xtick_4">
     <g id="line2d_4">
      <g>
       <use style="stroke:#000000;stroke-width:0.8;" x="339.957692" xlink:href="#mdb1fd8bcf9" y="172.801225"/>
      </g>
     </g>
     <g id="text_3">
      <!-- 0.5 -->
      <g transform="translate(332.00613 187.399662)scale(0.1 -0.1)">
       <use xlink:href="#DejaVuSans-30"/>
       <use x="63.623047" xlink:href="#DejaVuSans-2e"/>
       <use x="95.410156" xlink:href="#DejaVuSans-35"/>
      </g>
     </g>
    </g>
    <g id="xtick_5">
     <g id="line2d_5">
      <g>
       <use style="stroke:#000000;stroke-width:0.8;" x="449.515385" xlink:href="#mdb1fd8bcf9" y="172.801225"/>
      </g>
     </g>
     <g id="text_4">
      <!-- 1 -->
      <g transform="translate(446.334135 187.399662)scale(0.1 -0.1)">
       <use xlink:href="#DejaVuSans-31"/>
      </g>
     </g>
    </g>
    <g id="xtick_6">
     <g id="line2d_6">
      <defs>
       <path d="M 0 0 
L 0 2 
" id="mede0a4263b" style="stroke:#000000;stroke-width:0.6;"/>
      </defs>
      <g>
       <use style="stroke:#000000;stroke-width:0.6;" x="33.196154" xlink:href="#mede0a4263b" y="172.801225"/>
      </g>
     </g>
    </g>
    <g id="xtick_7">
     <g id="line2d_7">
      <g>
       <use style="stroke:#000000;stroke-width:0.6;" x="55.107692" xlink:href="#mede0a4263b" y="172.801225"/>
      </g>
     </g>
    </g>
    <g id="xtick_8">
     <g id="line2d_8">
      <g>
       <use style="stroke:#000000;stroke-width:0.6;" x="77.019231" xlink:href="#mede0a4263b" y="172.801225"/>
      </g>
     </g>
    </g>
    <g id="xtick_9">
     <g id="line2d_9">
      <g>
       <use style="stroke:#000000;stroke-width:0.6;" x="98.930769" xlink:href="#mede0a4263b" y="172.801225"/>
      </g>
     </g>
    </g>
    <g id="xtick_10">
     <g id="line2d_10">
      <g>
       <use style="stroke:#000000;stroke-width:0.6;" x="120.842308" xlink:href="#mede0a4263b" y="172.801225"/>
      </g>
     </g>
    </g>
    <g id="xtick_11">
     <g id="line2d_11">
      <g>
       <use style="stroke:#000000;stroke-width:0.6;" x="142.753846" xlink:href="#mede0a4263b" y="172.801225"/>
      </g>
     </g>
    </g>
    <g id="xtick_12">
     <g id="line2d_12">
      <g>
       <use style="stroke:#000000;stroke-width:0.6;" x="164.665385" xlink:href="#mede0a4263b" y="172.801225"/>
      </g>
     </g>
    </g>
    <g id="xtick_13">
     <g id="line2d_13">
      <g>
       <use style="stroke:#000000;stroke-width:0.6;" x="186.576923" xlink:href="#mede0a4263b" y="172.801225"/>
      </g>
     </g>
    </g>
    <g id="xtick_14">
     <g id="line2d_14">
      <g>
       <use style="stroke:#000000;stroke-width:0.6;" x="208.488462" xlink:href="#mede0a4263b" y="172.801225"/>
      </g>
     </g>
    </g>
    <g id="xtick_15">
     <g id="line2d_15">
      <g>
       <use style="stroke:#000000;stroke-width:0.6;" x="230.4" xlink:href="#mede0a4263b" y="172.801225"/>
      </g>
     </g>
    </g>
    <g id="xtick_16">
     <g id="line2d_16">
      <g>
       <use style="stroke:#000000;stroke-width:0.6;" x="252.311538" xlink:href="#mede0a4263b" y="172.801225"/>
      </g>
     </g>
    </g>
    <g id="xtick_17">
     <g id="line2d_17">
      <g>
       <use style="stroke:#000000;stroke-width:0.6;" x="274.223077" xlink:href="#mede0a4263b" y="172.801225"/>
      </g>
     </g>
    </g>
    <g id="xtick_18">
     <g id="line2d_18">
      <g>
       <use style="stroke:#000000;stroke-width:0.6;" x="296.134615" xlink:href="#mede0a4263b" y="172.801225"/>
      </g>
     </g>
    </g>
    <g id="xtick_19">
     <g id="line2d_19">
      <g>
       <use style="stroke:#000000;stroke-width:0.6;" x="318.046154" xlink:href="#mede0a4263b" y="172.801225"/>
      </g>
     </g>
    </g>
    <g id="xtick_20">
     <g id="line2d_20">
      <g>
       <use style="stroke:#000000;stroke-width:0.6;" x="339.957692" xlink:href="#mede0a4263b" y="172.801225"/>
      </g>
     </g>
    </g>
    <g id="xtick_21">
     <g id="line2d_21">
      <g>
       <use style="stroke:#000000;stroke-width:0.6;" x="361.869231" xlink:href="#mede0a4263b" y="172.801225"/>
      </g>
     </g>
    </g>
    <g id="xtick_22">
     <g id="line2d_22">
      <g>
       <use style="stroke:#000000;stroke-width:0.6;" x="383.780769" xlink:href="#mede0a4263b" y="172.801225"/>
      </g>
     </g>
    </g>
    <g id="xtick_23">
     <g id="line2d_23">
      <g>
       <use style="stroke:#000000;stroke-width:0.6;" x="405.692308" xlink:href="#mede0a4263b" y="172.801225"/>
      </g>
     </g>
    </g>
    <g id="xtick_24">
     <g id="line2d_24">
      <g>
       <use style="stroke:#000000;stroke-width:0.6;" x="427.603846" xlink:href="#mede0a4263b" y="172.801225"/>
      </g>
     </g>
    </g>
    <g id="xtick_25">
     <g id="line2d_25">
      <g>
       <use style="stroke:#000000;stroke-width:0.6;" x="449.515385" xlink:href="#mede0a4263b" y="172.801225"/>
      </g>
     </g>
    </g>
   </g>
   <g id="matplotlib.axis_2">
    <g id="ytick_1">
     <g id="line2d_26">
      <defs>
       <path d="M 0 0 
L -3.5 0 
" id="mc1d43a9599" style="stroke:#000000;stroke-width:0.8;"/>
      </defs>
      <g>
       <use style="stroke:#000000;stroke-width:0.8;" x="230.4" xlink:href="#mc1d43a9599" y="336.533562"/>
      </g>
     </g>
     <g id="text_5">
      <!-- -1 -->
      <g transform="translate(213.429688 340.332781)scale(0.1 -0.1)">
       <use xlink:href="#DejaVuSans-2d"/>
       <use x="36.083984" xlink:href="#DejaVuSans-31"/>
      </g>
     </g>
    </g>
    <g id="ytick_2">
     <g id="line2d_27">
      <g>
       <use style="stroke:#000000;stroke-width:0.8;" x="230.4" xlink:href="#mc1d43a9599" y="254.667394"/>
      </g>
     </g>
     <g id="text_6">
      <!-- -0.5 -->
      <g transform="translate(203.889062 258.466612)scale(0.1 -0.1)">
       <use xlink:href="#DejaVuSans-2d"/>
       <use x="36.083984" xlink:href="#DejaVuSans-30"/>
       <use x="99.707031" xlink:href="#DejaVuSans-2e"/>
       <use x="131.494141" xlink:href="#DejaVuSans-35"/>
      </g>
     </g>
    </g>
    <g id="ytick_3">
     <g id="line2d_28">
      <g>
       <use style="stroke:#000000;stroke-width:0.8;" x="230.4" xlink:href="#mc1d43a9599" y="172.801225"/>
      </g>
     </g>
    </g>
    <g id="ytick_4">
     <g id="line2d_29">
      <g>
       <use style="stroke:#000000;stroke-width:0.8;" x="230.4" xlink:href="#mc1d43a9599" y="90.935056"/>
      </g>
     </g>
     <g id="text_7">
      <!-- 0.5 -->
      <g transform="translate(207.496875 94.734275)scale(0.1 -0.1)">
       <use xlink:href="#DejaVuSans-30"/>
       <use x="63.623047" xlink:href="#DejaVuSans-2e"/>
       <use x="95.410156" xlink:href="#DejaVuSans-35"/>
      </g>
     </g>
    </g>
    <g id="ytick_5">
     <g id="line2d_30">
      <g>
       <use style="stroke:#000000;stroke-width:0.8;" x="230.4" xlink:href="#mc1d43a9599" y="9.068887"/>
      </g>
     </g>
     <g id="text_8">
      <!-- 1 -->
      <g transform="translate(217.0375 12.868106)scale(0.1 -0.1)">
       <use xlink:href="#DejaVuSans-31"/>
      </g>
     </g>
    </g>
    <g id="ytick_6">
     <g id="line2d_31">
      <defs>
       <path d="M 0 0 
L -2 0 
" id="mb519e478cc" style="stroke:#000000;stroke-width:0.6;"/>
      </defs>
      <g>
       <use style="stroke:#000000;stroke-width:0.6;" x="230.4" xlink:href="#mb519e478cc" y="320.160329"/>
      </g>
     </g>
    </g>
    <g id="ytick_7">
     <g id="line2d_32">
      <g>
       <use style="stroke:#000000;stroke-width:0.6;" x="230.4" xlink:href="#mb519e478cc" y="303.787095"/>
      </g>
     </g>
    </g>
    <g id="ytick_8">
     <g id="line2d_33">
      <g>
       <use style="stroke:#000000;stroke-width:0.6;" x="230.4" xlink:href="#mb519e478cc" y="287.413861"/>
      </g>
     </g>
    </g>
    <g id="ytick_9">
     <g id="line2d_34">
      <g>
       <use style="stroke:#000000;stroke-width:0.6;" x="230.4" xlink:href="#mb519e478cc" y="271.040627"/>
      </g>
     </g>
    </g>
    <g id="ytick_10">
     <g id="line2d_35">
      <g>
       <use style="stroke:#000000;stroke-width:0.6;" x="230.4" xlink:href="#mb519e478cc" y="254.667394"/>
      </g>
     </g>
    </g>
    <g id="ytick_11">
     <g id="line2d_36">
      <g>
       <use style="stroke:#000000;stroke-width:0.6;" x="230.4" xlink:href="#mb519e478cc" y="238.29416"/>
      </g>
     </g>
    </g>
    <g id="ytick_12">
     <g id="line2d_37">
      <g>
       <use style="stroke:#000000;stroke-width:0.6;" x="230.4" xlink:href="#mb519e478cc" y="221.920926"/>
      </g>
     </g>
    </g>
    <g id="ytick_13">
     <g id="line2d_38">
      <g>
       <use style="stroke:#000000;stroke-width:0.6;" x="230.4" xlink:href="#mb519e478cc" y="205.547692"/>
      </g>
     </g>
    </g>
    <g id="ytick_14">
     <g id="line2d_39">
      <g>
       <use style="stroke:#000000;stroke-width:0.6;" x="230.4" xlink:href="#mb519e478cc" y="189.174459"/>
      </g>
     </g>
    </g>
    <g id="ytick_15">
     <g id="line2d_40">
      <g>
       <use style="stroke:#000000;stroke-width:0.6;" x="230.4" xlink:href="#mb519e478cc" y="172.801225"/>
      </g>
     </g>
    </g>
    <g id="ytick_16">
     <g id="line2d_41">
      <g>
       <use style="stroke:#000000;stroke-width:0.6;" x="230.4" xlink:href="#mb519e478cc" y="156.427991"/>
      </g>
     </g>
    </g>
    <g id="ytick_17">
     <g id="line2d_42">
      <g>
       <use style="stroke:#000000;stroke-width:0.6;" x="230.4" xlink:href="#mb519e478cc" y="140.054757"/>
      </g>
     </g>
    </g>
    <g id="ytick_18">
     <g id="line2d_43">
      <g>
       <use style="stroke:#000000;stroke-width:0.6;" x="230.4" xlink:href="#mb519e478cc" y="123.681524"/>
      </g>
     </g>
    </g>
    <g id="ytick_19">
     <g id="line2d_44">
      <g>
       <use style="stroke:#000000;stroke-width:0.6;" x="230.4" xlink:href="#mb519e478cc" y="107.30829"/>
      </g>
     </g>
    </g>
    <g id="ytick_20">
     <g id="line2d_45">
      <g>
       <use style="stroke:#000000;stroke-width:0.6;" x="230.4" xlink:href="#mb519e478cc" y="90.935056"/>
      </g>
     </g>
    </g>
    <g id="ytick_21">
     <g id="line2d_46">
      <g>
       <use style="stroke:#000000;stroke-width:0.6;" x="230.4" xlink:href="#mb519e478cc" y="74.561822"/>
      </g>
     </g>
    </g>
    <g id="ytick_22">
     <g id="line2d_47">
      <g>
       <use style="stroke:#000000;stroke-width:0.6;" x="230.4" xlink:href="#mb519e478cc" y="58.188588"/>
      </g>
     </g>
    </g>
    <g id="ytick_23">
     <g id="line2d_48">
      <g>
       <use style="stroke:#000000;stroke-width:0.6;" x="230.4" xlink:href="#mb519e478cc" y="41.815355"/>
      </g>
     </g>
    </g>
    <g id="ytick_24">
     <g id="line2d_49">
      <g>
       <use style="stroke:#000000;stroke-width:0.6;" x="230.4" xlink:href="#mb519e478cc" y="25.442121"/>
      </g>
     </g>
    </g>
    <g id="ytick_25">
     <g id="line2d_50">
      <g>
       <use style="stroke:#000000;stroke-width:0.6;" x="230.4" xlink:href="#mb519e478cc" y="9.068887"/>
      </g>
     </g>
    </g>
   </g>
   <g id="line2d_51">
    <path clip-path="url(#p83cd5faf16)" d="M 11.284615 310.577236 
L 54.141752 327.82338 
L 61.986385 330.61298 
L 69.632491 333.009084 
L 73.902467 334.154561 
L 78.920706 335.270471 
L 82.288844 335.85016 
L 86.856811 336.372787 
L 90.386162 336.530769 
L 94.086893 336.423637 
L 96.485767 336.1831 
L 98.545686 335.856055 
L 101.680419 335.120532 
L 104.807773 334.065171 
L 107.930057 332.6463 
L 111.039864 330.820057 
L 113.762581 328.838212 
L 116.15453 326.766931 
L 118.37053 324.543401 
L 120.329495 322.311036 
L 122.260805 319.844049 
L 124.867583 316.056852 
L 126.893988 312.716566 
L 129.176639 308.499004 
L 131.12328 304.489067 
L 133.889179 298.075459 
L 135.685603 293.420924 
L 138.001489 286.80174 
L 139.786691 281.188561 
L 142.406925 272.078592 
L 144.794225 262.805042 
L 146.909359 253.753016 
L 149.014671 243.911829 
L 151.119984 233.19467 
L 153.383953 220.644563 
L 155.776797 206.180223 
L 158.3339 189.328782 
L 160.778402 171.877739 
L 163.967406 147.246201 
L 167.599262 117.047867 
L 175.640039 48.740665 
L 177.653478 33.927815 
L 179.162298 24.38224 
L 180.279197 18.476981 
L 181.364494 13.914164 
L 182.170568 11.407042 
L 182.741061 10.146946 
L 183.311555 9.354903 
L 183.882048 9.069231 
L 184.309919 9.21108 
L 184.676458 9.589804 
L 185.12429 10.39148 
L 185.572122 11.585 
L 186.243869 14.154791 
L 186.915617 17.72166 
L 187.587365 22.354368 
L 188.43057 29.780526 
L 189.353107 40.095412 
L 190.329659 53.658352 
L 191.409151 71.959032 
L 192.583819 95.894502 
L 193.923625 128.161227 
L 195.413731 169.479528 
L 200.17224 307.455729 
L 200.995945 323.474136 
L 201.642193 332.046762 
L 202.112192 335.578694 
L 202.405941 336.474892 
L 202.523441 336.530395 
L 202.705128 336.260272 
L 202.977659 335.01247 
L 203.341033 331.694861 
L 203.795251 324.73381 
L 204.340313 312.023735 
L 204.976218 290.967121 
L 205.680236 259.88488 
L 206.596167 208.489606 
L 208.381688 90.491598 
L 209.334034 37.131463 
L 209.887224 17.058088 
L 210.272308 10.046096 
L 210.503358 9.092847 
L 210.657392 9.937136 
L 210.888442 13.548468 
L 211.19651 22.941428 
L 211.581594 42.268482 
L 212.120711 83.169823 
L 212.846919 159.169128 
L 214.216024 308.107655 
L 214.567124 329.321933 
L 214.801191 335.867404 
L 214.918224 336.512736 
L 215.035257 335.281374 
L 215.269324 326.920791 
L 215.620424 299.247242 
L 216.088557 236.178501 
L 217.513484 15.234316 
L 217.734474 9.106313 
L 217.82287 10.739471 
L 217.999662 21.448141 
L 218.258522 55.038144 
L 218.684682 148.943581 
L 219.451771 323.185987 
L 219.622235 335.870377 
L 219.707467 336.1091 
L 219.877931 323.351763 
L 220.133627 271.645935 
L 221.090533 9.120506 
L 221.121094 9.293708 
L 221.212777 15.815533 
L 221.396143 55.687734 
L 221.732315 196.755999 
L 222.032669 315.173004 
L 222.152285 335.00528 
L 222.271902 331.270763 
L 222.511134 251.164056 
L 222.989599 15.288079 
L 223.109215 12.618822 
L 223.348448 117.801883 
L 223.707297 331.553141 
L 223.826913 326.690448 
L 224.066145 166.777355 
L 224.305378 11.600087 
L 224.424994 32.677243 
L 224.783843 331.250237 
L 224.903459 308.457891 
L 225.262308 13.649609 
L 225.621157 329.315263 
L 225.660731 300.020889 
L 225.898179 9.108761 
L 225.937754 22.612594 
L 226.175202 336.470143 
L 226.254352 258.767603 
L 226.41265 9.121004 
L 226.452225 31.172601 
L 226.610524 329.346658 
L 226.689673 269.885433 
L 226.808397 14.296172 
L 226.847972 23.725823 
L 227.01585 326.892295 
L 227.058617 236.137203 
L 227.144152 13.966839 
L 227.18692 42.512929 
L 227.315223 326.866241 
L 227.443526 15.734291 
L 227.486293 140.813047 
L 227.571828 315.939503 
L 227.657364 12.957044 
L 227.700131 90.932302 
L 227.785666 311.446923 
L 227.871202 14.331613 
L 227.913969 201.155532 
L 227.956737 334.790147 
L 227.999504 144.609594 
L 228.042272 14.487703 
L 228.127807 306.54525 
L 228.170575 45.159771 
L 228.213342 120.467528 
L 228.25611 335.668717 
L 228.376839 335.990684 
L 228.497568 315.830251 
L 228.618297 100.29296 
L 228.739026 168.371844 
L 228.859755 45.730217 
L 228.980484 105.855939 
L 229.101213 40.747572 
L 229.221942 74.600551 
L 229.342671 154.792328 
L 229.4634 335.701269 
L 229.584129 9.19853 
L 229.704859 314.867662 
L 229.825588 13.898152 
L 229.946317 51.376179 
L 230.067046 9.462115 
L 230.187775 320.050962 
L 230.308504 301.765878 
L 230.429233 220.023449 
L 230.549962 221.343922 
L 230.670691 315.914047 
L 230.79142 81.324026 
L 230.912149 83.246259 
L 231.032878 74.309524 
L 231.153607 11.11362 
L 231.274336 280.720774 
L 231.515794 9.127019 
L 231.636523 16.244976 
L 231.757252 326.51809 
L 231.877981 265.02294 
L 231.99871 323.715553 
L 232.119439 12.323208 
L 232.254264 326.114496 
L 232.321676 41.970874 
L 232.389089 205.802034 
L 232.456501 215.917759 
L 232.523913 93.346411 
L 232.591326 256.813597 
L 232.658738 111.843252 
L 232.72615 181.181547 
L 232.793563 242.160849 
L 232.860975 29.064087 
L 232.928387 330.675007 
L 233.063212 81.238157 
L 233.130624 335.085744 
L 233.265449 29.186258 
L 233.400274 287.387248 
L 233.467686 52.010886 
L 233.535098 58.114029 
L 233.669923 313.663354 
L 233.804748 9.248251 
L 234.006985 315.414453 
L 234.141809 24.608956 
L 234.209222 37.400736 
L 234.35937 325.857953 
L 234.442105 290.387469 
L 234.607577 13.765885 
L 234.690312 54.591466 
L 234.93852 322.592888 
L 235.186727 13.106046 
L 235.269462 33.665264 
L 235.600405 330.282682 
L 236.014084 13.774207 
L 236.179555 138.182666 
L 236.427762 332.489522 
L 236.510498 330.624666 
L 236.675969 229.847063 
L 236.988976 14.919165 
L 237.053775 9.323117 
L 237.183373 45.992304 
L 237.766565 335.706584 
L 237.896163 306.553162 
L 238.284958 96.424973 
L 238.544154 12.368008 
L 238.608953 9.079327 
L 238.738551 23.712115 
L 238.997748 116.278559 
L 239.553648 325.122503 
L 239.692623 336.508339 
L 239.76211 334.508022 
L 239.901086 316.505343 
L 240.179036 238.890884 
L 240.873911 29.093673 
L 241.082374 9.753975 
L 241.151861 9.206848 
L 241.296065 16.911639 
L 241.520215 49.28755 
L 242.043231 177.783596 
L 242.640964 305.924817 
L 242.939831 333.437041 
L 243.089264 336.523688 
L 243.163981 335.506554 
L 243.313414 328.693278 
L 243.61228 298.604871 
L 244.104029 218.231841 
L 245.035535 62.822388 
L 245.434547 24.452746 
L 245.733806 10.969766 
L 245.933311 9.147586 
L 246.033064 10.266348 
L 246.23257 16.267671 
L 246.531829 33.590539 
L 247.030593 79.129195 
L 249.156102 299.414303 
L 249.658356 324.725524 
L 250.038978 334.400463 
L 250.29883 336.512876 
L 250.363793 336.501028 
L 250.49372 335.857522 
L 250.688609 333.40971 
L 251.013425 325.698796 
L 251.468166 308.371318 
L 252.135908 272.673199 
L 253.336149 193.78279 
L 254.807002 101.994079 
L 255.645595 61.743975 
L 256.393983 35.441416 
L 257.035459 20.29596 
L 257.570022 12.687108 
L 257.997672 9.669101 
L 258.211497 9.11846 
L 258.395364 9.129168 
L 258.626227 9.748622 
L 258.934045 11.56667 
L 259.318816 15.313361 
L 259.857496 23.008332 
L 260.550085 36.430786 
L 261.413516 57.422262 
L 262.805164 97.402628 
L 266.620626 210.721471 
L 268.052457 246.042087 
L 269.310845 272.146259 
L 270.565621 293.390858 
L 271.678734 308.322316 
L 272.663957 318.626627 
L 273.539711 325.641175 
L 274.419482 330.805111 
L 275.088347 333.562304 
L 275.757213 335.38544 
L 276.314889 336.24071 
L 276.64961 336.481242 
L 276.98433 336.52728 
L 277.319051 336.38699 
L 277.821132 335.844718 
L 278.323213 334.927699 
L 278.900428 333.443578 
L 279.627911 330.973576 
L 280.597888 326.754765 
L 281.714869 320.772522 
L 282.989029 312.742867 
L 284.687909 300.503676 
L 286.985702 282.072543 
L 290.028813 256.005771 
L 295.668806 207.817864 
L 298.807782 182.861839 
L 301.822316 160.743672 
L 304.33605 143.808458 
L 306.863818 128.185188 
L 309.338111 114.233885 
L 311.588429 102.65512 
L 314.019352 91.275172 
L 316.406938 81.170935 
L 318.812183 71.993884 
L 321.166933 63.912534 
L 323.490192 56.747702 
L 325.84946 50.228176 
L 328.27623 44.251272 
L 330.456564 39.459224 
L 332.135226 36.11365 
L 334.794837 31.375936 
L 336.684206 28.396681 
L 338.812152 25.392906 
L 340.651208 23.074432 
L 343.300601 20.148204 
L 345.805798 17.790057 
L 347.68748 16.256205 
L 349.893506 14.694875 
L 352.711153 13.038958 
L 354.738979 12.060251 
L 356.905757 11.19325 
L 358.592855 10.636017 
L 362.225721 9.751769 
L 364.114198 9.446048 
L 366.914488 9.165048 
L 369.55726 9.070064 
L 372.875726 9.157398 
L 376.134641 9.439249 
L 379.52541 9.910905 
L 382.874354 10.530831 
L 388.806423 11.940044 
L 394.741424 13.665087 
L 400.286109 15.491526 
L 408.10352 18.319728 
L 417.938347 22.14849 
L 436.722613 29.808322 
L 449.515385 35.025213 
L 449.515385 35.025213 
" style="fill:none;stroke:#0000ff;stroke-linecap:square;"/>
   </g>
   <g id="patch_3">
    <path d="M 230.4 343.08 
L 230.4 2.52 
" style="fill:none;stroke:#000000;stroke-linecap:square;stroke-linejoin:miter;stroke-width:0.8;"/>
   </g>
   <g id="patch_4">
    <path d="M 2.52 172.801225 
L 458.28 172.801225 
" style="fill:none;stroke:#000000;stroke-linecap:square;stroke-linejoin:miter;stroke-width:0.8;"/>
   </g>
  </g>
 </g>
 <defs>
  <clipPath id="p83cd5faf16">
   <rect height="340.56" width="455.76" x="2.52" y="2.52"/>
  </clipPath>
 </defs>
</svg>
