<?xml version="1.0" encoding="utf-8" standalone="no"?>
<!DOCTYPE svg PUBLIC "-//W3C//DTD SVG 1.1//EN"
  "http://www.w3.org/Graphics/SVG/1.1/DTD/svg11.dtd">
<!-- Created with matplotlib (http://matplotlib.org/) -->
<svg height="345.6pt" version="1.1" viewBox="0 0 460.8 345.6" width="460.8pt" xmlns="http://www.w3.org/2000/svg" xmlns:xlink="http://www.w3.org/1999/xlink">
 <defs>
  <style type="text/css">
*{stroke-linecap:butt;stroke-linejoin:round;}
  </style>
 </defs>
 <g id="figure_1">
  <g id="patch_1">
   <path d="M 0 345.6 
L 460.8 345.6 
L 460.8 0 
L 0 0 
z
" style="fill:#ffffff;"/>
  </g>
  <g id="axes_1">
   <g id="patch_2">
    <path d="M 60.105893 343.08 
L 400.694107 343.08 
L 400.694107 2.52 
L 60.105893 2.52 
z
" style="fill:#ffffff;"/>
   </g>
   <g id="matplotlib.axis_1">
    <g id="xtick_1">
     <g id="line2d_1">
      <defs>
       <path d="M 0 0 
L 0 3.5 
" id="mb603fff4d6" style="stroke:#000000;stroke-width:0.8;"/>
      </defs>
      <g>
       <use style="stroke:#000000;stroke-width:0.8;" x="66.639844" xlink:href="#mb603fff4d6" y="172.793255"/>
      </g>
     </g>
     <g id="text_1">
      <!-- -1 -->
      <defs>
       <path d="M 4.890625 31.390625 
L 31.203125 31.390625 
L 31.203125 23.390625 
L 4.890625 23.390625 
z
" id="DejaVuSans-2d"/>
       <path d="M 12.40625 8.296875 
L 28.515625 8.296875 
L 28.515625 63.921875 
L 10.984375 60.40625 
L 10.984375 69.390625 
L 28.421875 72.90625 
L 38.28125 72.90625 
L 38.28125 8.296875 
L 54.390625 8.296875 
L 54.390625 0 
L 12.40625 0 
z
" id="DejaVuSans-31"/>
      </defs>
      <g transform="translate(61.654688 187.391693)scale(0.1 -0.1)">
       <use xlink:href="#DejaVuSans-2d"/>
       <use x="36.083984" xlink:href="#DejaVuSans-31"/>
      </g>
     </g>
    </g>
    <g id="xtick_2">
     <g id="line2d_2">
      <g>
       <use style="stroke:#000000;stroke-width:0.8;" x="148.516653" xlink:href="#mb603fff4d6" y="172.793255"/>
      </g>
     </g>
     <g id="text_2">
      <!-- -0.5 -->
      <defs>
       <path d="M 31.78125 66.40625 
Q 24.171875 66.40625 20.328125 58.90625 
Q 16.5 51.421875 16.5 36.375 
Q 16.5 21.390625 20.328125 13.890625 
Q 24.171875 6.390625 31.78125 6.390625 
Q 39.453125 6.390625 43.28125 13.890625 
Q 47.125 21.390625 47.125 36.375 
Q 47.125 51.421875 43.28125 58.90625 
Q 39.453125 66.40625 31.78125 66.40625 
z
M 31.78125 74.21875 
Q 44.046875 74.21875 50.515625 64.515625 
Q 56.984375 54.828125 56.984375 36.375 
Q 56.984375 17.96875 50.515625 8.265625 
Q 44.046875 -1.421875 31.78125 -1.421875 
Q 19.53125 -1.421875 13.0625 8.265625 
Q 6.59375 17.96875 6.59375 36.375 
Q 6.59375 54.828125 13.0625 64.515625 
Q 19.53125 74.21875 31.78125 74.21875 
z
" id="DejaVuSans-30"/>
       <path d="M 10.6875 12.40625 
L 21 12.40625 
L 21 0 
L 10.6875 0 
z
" id="DejaVuSans-2e"/>
       <path d="M 10.796875 72.90625 
L 49.515625 72.90625 
L 49.515625 64.59375 
L 19.828125 64.59375 
L 19.828125 46.734375 
Q 21.96875 47.46875 24.109375 47.828125 
Q 26.265625 48.1875 28.421875 48.1875 
Q 40.625 48.1875 47.75 41.5 
Q 54.890625 34.8125 54.890625 23.390625 
Q 54.890625 11.625 47.5625 5.09375 
Q 40.234375 -1.421875 26.90625 -1.421875 
Q 22.3125 -1.421875 17.546875 -0.640625 
Q 12.796875 0.140625 7.71875 1.703125 
L 7.71875 11.625 
Q 12.109375 9.234375 16.796875 8.0625 
Q 21.484375 6.890625 26.703125 6.890625 
Q 35.15625 6.890625 40.078125 11.328125 
Q 45.015625 15.765625 45.015625 23.390625 
Q 45.015625 31 40.078125 35.4375 
Q 35.15625 39.890625 26.703125 39.890625 
Q 22.75 39.890625 18.8125 39.015625 
Q 14.890625 38.140625 10.796875 36.28125 
z
" id="DejaVuSans-35"/>
      </defs>
      <g transform="translate(138.761184 187.391693)scale(0.1 -0.1)">
       <use xlink:href="#DejaVuSans-2d"/>
       <use x="36.083984" xlink:href="#DejaVuSans-30"/>
       <use x="99.707031" xlink:href="#DejaVuSans-2e"/>
       <use x="131.494141" xlink:href="#DejaVuSans-35"/>
      </g>
     </g>
    </g>
    <g id="xtick_3">
     <g id="line2d_3">
      <g>
       <use style="stroke:#000000;stroke-width:0.8;" x="230.393463" xlink:href="#mb603fff4d6" y="172.793255"/>
      </g>
     </g>
    </g>
    <g id="xtick_4">
     <g id="line2d_4">
      <g>
       <use style="stroke:#000000;stroke-width:0.8;" x="312.270272" xlink:href="#mb603fff4d6" y="172.793255"/>
      </g>
     </g>
     <g id="text_3">
      <!-- 0.5 -->
      <g transform="translate(304.31871 187.391693)scale(0.1 -0.1)">
       <use xlink:href="#DejaVuSans-30"/>
       <use x="63.623047" xlink:href="#DejaVuSans-2e"/>
       <use x="95.410156" xlink:href="#DejaVuSans-35"/>
      </g>
     </g>
    </g>
    <g id="xtick_5">
     <g id="line2d_5">
      <g>
       <use style="stroke:#000000;stroke-width:0.8;" x="394.147082" xlink:href="#mb603fff4d6" y="172.793255"/>
      </g>
     </g>
     <g id="text_4">
      <!-- 1 -->
      <g transform="translate(390.965832 187.391693)scale(0.1 -0.1)">
       <use xlink:href="#DejaVuSans-31"/>
      </g>
     </g>
    </g>
    <g id="xtick_6">
     <g id="line2d_6">
      <defs>
       <path d="M 0 0 
L 0 2 
" id="m709f7df196" style="stroke:#000000;stroke-width:0.6;"/>
      </defs>
      <g>
       <use style="stroke:#000000;stroke-width:0.6;" x="83.015206" xlink:href="#m709f7df196" y="172.793255"/>
      </g>
     </g>
    </g>
    <g id="xtick_7">
     <g id="line2d_7">
      <g>
       <use style="stroke:#000000;stroke-width:0.6;" x="99.390568" xlink:href="#m709f7df196" y="172.793255"/>
      </g>
     </g>
    </g>
    <g id="xtick_8">
     <g id="line2d_8">
      <g>
       <use style="stroke:#000000;stroke-width:0.6;" x="115.765929" xlink:href="#m709f7df196" y="172.793255"/>
      </g>
     </g>
    </g>
    <g id="xtick_9">
     <g id="line2d_9">
      <g>
       <use style="stroke:#000000;stroke-width:0.6;" x="132.141291" xlink:href="#m709f7df196" y="172.793255"/>
      </g>
     </g>
    </g>
    <g id="xtick_10">
     <g id="line2d_10">
      <g>
       <use style="stroke:#000000;stroke-width:0.6;" x="148.516653" xlink:href="#m709f7df196" y="172.793255"/>
      </g>
     </g>
    </g>
    <g id="xtick_11">
     <g id="line2d_11">
      <g>
       <use style="stroke:#000000;stroke-width:0.6;" x="164.892015" xlink:href="#m709f7df196" y="172.793255"/>
      </g>
     </g>
    </g>
    <g id="xtick_12">
     <g id="line2d_12">
      <g>
       <use style="stroke:#000000;stroke-width:0.6;" x="181.267377" xlink:href="#m709f7df196" y="172.793255"/>
      </g>
     </g>
    </g>
    <g id="xtick_13">
     <g id="line2d_13">
      <g>
       <use style="stroke:#000000;stroke-width:0.6;" x="197.642739" xlink:href="#m709f7df196" y="172.793255"/>
      </g>
     </g>
    </g>
    <g id="xtick_14">
     <g id="line2d_14">
      <g>
       <use style="stroke:#000000;stroke-width:0.6;" x="214.018101" xlink:href="#m709f7df196" y="172.793255"/>
      </g>
     </g>
    </g>
    <g id="xtick_15">
     <g id="line2d_15">
      <g>
       <use style="stroke:#000000;stroke-width:0.6;" x="230.393463" xlink:href="#m709f7df196" y="172.793255"/>
      </g>
     </g>
    </g>
    <g id="xtick_16">
     <g id="line2d_16">
      <g>
       <use style="stroke:#000000;stroke-width:0.6;" x="246.768825" xlink:href="#m709f7df196" y="172.793255"/>
      </g>
     </g>
    </g>
    <g id="xtick_17">
     <g id="line2d_17">
      <g>
       <use style="stroke:#000000;stroke-width:0.6;" x="263.144186" xlink:href="#m709f7df196" y="172.793255"/>
      </g>
     </g>
    </g>
    <g id="xtick_18">
     <g id="line2d_18">
      <g>
       <use style="stroke:#000000;stroke-width:0.6;" x="279.519548" xlink:href="#m709f7df196" y="172.793255"/>
      </g>
     </g>
    </g>
    <g id="xtick_19">
     <g id="line2d_19">
      <g>
       <use style="stroke:#000000;stroke-width:0.6;" x="295.89491" xlink:href="#m709f7df196" y="172.793255"/>
      </g>
     </g>
    </g>
    <g id="xtick_20">
     <g id="line2d_20">
      <g>
       <use style="stroke:#000000;stroke-width:0.6;" x="312.270272" xlink:href="#m709f7df196" y="172.793255"/>
      </g>
     </g>
    </g>
    <g id="xtick_21">
     <g id="line2d_21">
      <g>
       <use style="stroke:#000000;stroke-width:0.6;" x="328.645634" xlink:href="#m709f7df196" y="172.793255"/>
      </g>
     </g>
    </g>
    <g id="xtick_22">
     <g id="line2d_22">
      <g>
       <use style="stroke:#000000;stroke-width:0.6;" x="345.020996" xlink:href="#m709f7df196" y="172.793255"/>
      </g>
     </g>
    </g>
    <g id="xtick_23">
     <g id="line2d_23">
      <g>
       <use style="stroke:#000000;stroke-width:0.6;" x="361.396358" xlink:href="#m709f7df196" y="172.793255"/>
      </g>
     </g>
    </g>
    <g id="xtick_24">
     <g id="line2d_24">
      <g>
       <use style="stroke:#000000;stroke-width:0.6;" x="377.77172" xlink:href="#m709f7df196" y="172.793255"/>
      </g>
     </g>
    </g>
    <g id="xtick_25">
     <g id="line2d_25">
      <g>
       <use style="stroke:#000000;stroke-width:0.6;" x="394.147082" xlink:href="#m709f7df196" y="172.793255"/>
      </g>
     </g>
    </g>
   </g>
   <g id="matplotlib.axis_2">
    <g id="ytick_1">
     <g id="line2d_26">
      <defs>
       <path d="M 0 0 
L -3.5 0 
" id="mde8ff2c421" style="stroke:#000000;stroke-width:0.8;"/>
      </defs>
      <g>
       <use style="stroke:#000000;stroke-width:0.8;" x="230.393463" xlink:href="#mde8ff2c421" y="336.546874"/>
      </g>
     </g>
     <g id="text_5">
      <!-- -1 -->
      <g transform="translate(213.42315 340.346093)scale(0.1 -0.1)">
       <use xlink:href="#DejaVuSans-2d"/>
       <use x="36.083984" xlink:href="#DejaVuSans-31"/>
      </g>
     </g>
    </g>
    <g id="ytick_2">
     <g id="line2d_27">
      <g>
       <use style="stroke:#000000;stroke-width:0.8;" x="230.393463" xlink:href="#mde8ff2c421" y="254.670065"/>
      </g>
     </g>
     <g id="text_6">
      <!-- -0.5 -->
      <g transform="translate(203.882525 258.469284)scale(0.1 -0.1)">
       <use xlink:href="#DejaVuSans-2d"/>
       <use x="36.083984" xlink:href="#DejaVuSans-30"/>
       <use x="99.707031" xlink:href="#DejaVuSans-2e"/>
       <use x="131.494141" xlink:href="#DejaVuSans-35"/>
      </g>
     </g>
    </g>
    <g id="ytick_3">
     <g id="line2d_28">
      <g>
       <use style="stroke:#000000;stroke-width:0.8;" x="230.393463" xlink:href="#mde8ff2c421" y="172.793255"/>
      </g>
     </g>
    </g>
    <g id="ytick_4">
     <g id="line2d_29">
      <g>
       <use style="stroke:#000000;stroke-width:0.8;" x="230.393463" xlink:href="#mde8ff2c421" y="90.916446"/>
      </g>
     </g>
     <g id="text_7">
      <!-- 0.5 -->
      <g transform="translate(207.490338 94.715665)scale(0.1 -0.1)">
       <use xlink:href="#DejaVuSans-30"/>
       <use x="63.623047" xlink:href="#DejaVuSans-2e"/>
       <use x="95.410156" xlink:href="#DejaVuSans-35"/>
      </g>
     </g>
    </g>
    <g id="ytick_5">
     <g id="line2d_30">
      <g>
       <use style="stroke:#000000;stroke-width:0.8;" x="230.393463" xlink:href="#mde8ff2c421" y="9.039636"/>
      </g>
     </g>
     <g id="text_8">
      <!-- 1 -->
      <g transform="translate(217.030963 12.838855)scale(0.1 -0.1)">
       <use xlink:href="#DejaVuSans-31"/>
      </g>
     </g>
    </g>
    <g id="ytick_6">
     <g id="line2d_31">
      <defs>
       <path d="M 0 0 
L -2 0 
" id="mcf8bdcc8a8" style="stroke:#000000;stroke-width:0.6;"/>
      </defs>
      <g>
       <use style="stroke:#000000;stroke-width:0.6;" x="230.393463" xlink:href="#mcf8bdcc8a8" y="320.171512"/>
      </g>
     </g>
    </g>
    <g id="ytick_7">
     <g id="line2d_32">
      <g>
       <use style="stroke:#000000;stroke-width:0.6;" x="230.393463" xlink:href="#mcf8bdcc8a8" y="303.79615"/>
      </g>
     </g>
    </g>
    <g id="ytick_8">
     <g id="line2d_33">
      <g>
       <use style="stroke:#000000;stroke-width:0.6;" x="230.393463" xlink:href="#mcf8bdcc8a8" y="287.420789"/>
      </g>
     </g>
    </g>
    <g id="ytick_9">
     <g id="line2d_34">
      <g>
       <use style="stroke:#000000;stroke-width:0.6;" x="230.393463" xlink:href="#mcf8bdcc8a8" y="271.045427"/>
      </g>
     </g>
    </g>
    <g id="ytick_10">
     <g id="line2d_35">
      <g>
       <use style="stroke:#000000;stroke-width:0.6;" x="230.393463" xlink:href="#mcf8bdcc8a8" y="254.670065"/>
      </g>
     </g>
    </g>
    <g id="ytick_11">
     <g id="line2d_36">
      <g>
       <use style="stroke:#000000;stroke-width:0.6;" x="230.393463" xlink:href="#mcf8bdcc8a8" y="238.294703"/>
      </g>
     </g>
    </g>
    <g id="ytick_12">
     <g id="line2d_37">
      <g>
       <use style="stroke:#000000;stroke-width:0.6;" x="230.393463" xlink:href="#mcf8bdcc8a8" y="221.919341"/>
      </g>
     </g>
    </g>
    <g id="ytick_13">
     <g id="line2d_38">
      <g>
       <use style="stroke:#000000;stroke-width:0.6;" x="230.393463" xlink:href="#mcf8bdcc8a8" y="205.543979"/>
      </g>
     </g>
    </g>
    <g id="ytick_14">
     <g id="line2d_39">
      <g>
       <use style="stroke:#000000;stroke-width:0.6;" x="230.393463" xlink:href="#mcf8bdcc8a8" y="189.168617"/>
      </g>
     </g>
    </g>
    <g id="ytick_15">
     <g id="line2d_40">
      <g>
       <use style="stroke:#000000;stroke-width:0.6;" x="230.393463" xlink:href="#mcf8bdcc8a8" y="172.793255"/>
      </g>
     </g>
    </g>
    <g id="ytick_16">
     <g id="line2d_41">
      <g>
       <use style="stroke:#000000;stroke-width:0.6;" x="230.393463" xlink:href="#mcf8bdcc8a8" y="156.417893"/>
      </g>
     </g>
    </g>
    <g id="ytick_17">
     <g id="line2d_42">
      <g>
       <use style="stroke:#000000;stroke-width:0.6;" x="230.393463" xlink:href="#mcf8bdcc8a8" y="140.042532"/>
      </g>
     </g>
    </g>
    <g id="ytick_18">
     <g id="line2d_43">
      <g>
       <use style="stroke:#000000;stroke-width:0.6;" x="230.393463" xlink:href="#mcf8bdcc8a8" y="123.66717"/>
      </g>
     </g>
    </g>
    <g id="ytick_19">
     <g id="line2d_44">
      <g>
       <use style="stroke:#000000;stroke-width:0.6;" x="230.393463" xlink:href="#mcf8bdcc8a8" y="107.291808"/>
      </g>
     </g>
    </g>
    <g id="ytick_20">
     <g id="line2d_45">
      <g>
       <use style="stroke:#000000;stroke-width:0.6;" x="230.393463" xlink:href="#mcf8bdcc8a8" y="90.916446"/>
      </g>
     </g>
    </g>
    <g id="ytick_21">
     <g id="line2d_46">
      <g>
       <use style="stroke:#000000;stroke-width:0.6;" x="230.393463" xlink:href="#mcf8bdcc8a8" y="74.541084"/>
      </g>
     </g>
    </g>
    <g id="ytick_22">
     <g id="line2d_47">
      <g>
       <use style="stroke:#000000;stroke-width:0.6;" x="230.393463" xlink:href="#mcf8bdcc8a8" y="58.165722"/>
      </g>
     </g>
    </g>
    <g id="ytick_23">
     <g id="line2d_48">
      <g>
       <use style="stroke:#000000;stroke-width:0.6;" x="230.393463" xlink:href="#mcf8bdcc8a8" y="41.79036"/>
      </g>
     </g>
    </g>
    <g id="ytick_24">
     <g id="line2d_49">
      <g>
       <use style="stroke:#000000;stroke-width:0.6;" x="230.393463" xlink:href="#mcf8bdcc8a8" y="25.414998"/>
      </g>
     </g>
    </g>
    <g id="ytick_25">
     <g id="line2d_50">
      <g>
       <use style="stroke:#000000;stroke-width:0.6;" x="230.393463" xlink:href="#mcf8bdcc8a8" y="9.039636"/>
      </g>
     </g>
    </g>
   </g>
   <g id="line2d_51">
    <path clip-path="url(#p870b5be81a)" d="M 230.393463 172.793255 
L 248.862898 136.090088 
L 254.63175 124.850657 
L 265.069884 105.013213 
L 274.367503 88.075583 
L 284.854671 70.07125 
L 292.741859 57.488623 
L 296.551772 51.756099 
L 303.47121 41.998683 
L 311.785827 31.5406 
L 315.740115 27.116585 
L 319.591375 23.185923 
L 324.182276 19.029371 
L 329.073662 15.29316 
L 333.431083 12.626542 
L 337.606919 10.714843 
L 342.614904 9.341685 
L 348.25614 9.146361 
L 350.578404 9.529974 
L 352.344428 10.019321 
L 358.007429 12.855904 
L 359.791028 14.189796 
L 361.933687 16.102595 
L 364.964602 19.438672 
L 369.785642 26.489744 
L 373.5245 33.723717 
L 376.847565 41.75928 
L 378.142248 45.378628 
L 380.024608 51.215139 
L 381.79422 57.418021 
L 383.509452 64.220127 
L 385.100113 71.372406 
L 386.96469 81.069696 
L 388.251244 88.838838 
L 390.08885 102.128516 
L 390.994236 110.067198 
L 392.225062 123.349253 
L 392.783209 130.963156 
L 393.740255 149.779111 
L 394.110178 165.842149 
L 394.144333 174.690634 
L 394.018175 185.775497 
L 393.688494 197.217965 
L 393.250355 206.83332 
L 392.315577 221.092686 
L 391.669125 228.693794 
L 390.875318 236.632282 
L 389.772486 245.979523 
L 388.09242 257.764367 
L 386.251452 268.418556 
L 384.505537 276.994018 
L 381.648169 288.709718 
L 379.534247 295.962321 
L 378.395346 299.464371 
L 376.435942 304.916586 
L 374.368622 309.978355 
L 372.335411 314.352712 
L 368.848165 320.653347 
L 366.160596 324.610595 
L 363.350624 328.020471 
L 360.717608 330.612455 
L 358.470227 332.406148 
L 354.854356 334.558792 
L 351.554913 335.807719 
L 348.479718 336.415606 
L 345.369929 336.530769 
L 339.470429 335.505271 
L 336.421665 334.396608 
L 333.528027 333.011725 
L 327.979905 329.523521 
L 324.987401 327.22304 
L 319.472371 322.285004 
L 313.678889 316.211046 
L 307.111573 308.348784 
L 303.21354 303.240679 
L 298.060325 296.03215 
L 291.976749 286.918183 
L 285.853124 277.157527 
L 278.272523 264.36682 
L 268.9553 247.74802 
L 264.11517 238.791144 
L 252.315223 216.242135 
L 244.71186 201.320368 
L 205.803785 124.171529 
L 196.593735 106.649457 
L 192.953082 99.895981 
L 185.669011 86.745211 
L 176.919439 71.708171 
L 172.459545 64.419059 
L 163.886869 51.24425 
L 158.636364 43.791684 
L 154.149501 37.8423 
L 146.715868 28.937656 
L 142.000107 23.974799 
L 135.718986 18.297933 
L 130.380368 14.408359 
L 128.031976 12.996927 
L 123.939054 11.012752 
L 120.436751 9.83173 
L 115.708102 9.069231 
L 112.332964 9.167945 
L 110.069744 9.562103 
L 103.869922 12.149506 
L 101.689422 13.644162 
L 98.345022 16.608709 
L 95.443052 19.911989 
L 93.007692 23.272332 
L 90.181574 27.93099 
L 88.184611 31.776505 
L 83.537492 42.850744 
L 80.740808 51.286125 
L 77.394417 63.72847 
L 75.763714 71.005185 
L 73.47904 83.043695 
L 72.087534 91.807139 
L 70.820555 101.138671 
L 69.857638 109.456382 
L 68.929864 118.976178 
L 67.577039 138.004378 
L 67.106397 148.158827 
L 66.758811 160.320589 
L 66.655667 168.240958 
L 66.801691 187.336312 
L 67.06845 196.411477 
L 67.790119 211.271564 
L 68.239369 218.011106 
L 68.925353 226.559183 
L 70.185451 239.108815 
L 71.52193 249.801461 
L 72.451647 256.202489 
L 73.703273 263.840043 
L 75.073928 271.200996 
L 77.030372 280.313023 
L 79.188777 288.893803 
L 81.75206 297.530175 
L 84.849741 306.198961 
L 87.839907 313.095398 
L 91.354167 319.693954 
L 96.169363 326.569649 
L 100.104013 330.642983 
L 102.687229 332.667108 
L 107.015033 335.04017 
L 111.542293 336.311917 
L 113.109396 336.491729 
L 118.050445 336.264765 
L 120.671167 335.691468 
L 125.690569 333.801221 
L 128.376995 332.394294 
L 135.138056 327.755462 
L 141.080066 322.512386 
L 146.134384 317.291111 
L 150.427802 312.358848 
L 156.808191 304.267746 
L 162.547123 296.291429 
L 167.997015 288.171666 
L 175.300607 276.555779 
L 180.94544 267.072706 
L 188.168144 254.387991 
L 200.24206 232.065035 
L 210.065915 213.133898 
L 223.836672 185.89632 
L 230.393463 172.793255 
L 230.393463 172.793255 
" style="fill:none;stroke:#0066ff;stroke-linecap:square;"/>
   </g>
   <g id="patch_3">
    <path d="M 230.393463 343.08 
L 230.393463 2.52 
" style="fill:none;stroke:#000000;stroke-linecap:square;stroke-linejoin:miter;stroke-width:0.8;"/>
   </g>
   <g id="patch_4">
    <path d="M 60.105893 172.793255 
L 400.694107 172.793255 
" style="fill:none;stroke:#000000;stroke-linecap:square;stroke-linejoin:miter;stroke-width:0.8;"/>
   </g>
  </g>
 </g>
 <defs>
  <clipPath id="p870b5be81a">
   <rect height="340.56" width="340.588213" x="60.105893" y="2.52"/>
  </clipPath>
 </defs>
</svg>
