<?xml version="1.0" encoding="utf-8" standalone="no"?>
<!DOCTYPE svg PUBLIC "-//W3C//DTD SVG 1.1//EN"
  "http://www.w3.org/Graphics/SVG/1.1/DTD/svg11.dtd">
<svg xmlns:xlink="http://www.w3.org/1999/xlink" width="460.8pt" height="345.6pt" viewBox="0 0 460.8 345.6" xmlns="http://www.w3.org/2000/svg" version="1.1">
 <metadata>
  <rdf:RDF xmlns:dc="http://purl.org/dc/elements/1.1/" xmlns:cc="http://creativecommons.org/ns#" xmlns:rdf="http://www.w3.org/1999/02/22-rdf-syntax-ns#">
   <cc:Work>
    <dc:type rdf:resource="http://purl.org/dc/dcmitype/StillImage"/>
    <dc:date>2022-01-31T17:28:54.277175</dc:date>
    <dc:format>image/svg+xml</dc:format>
    <dc:creator>
     <cc:Agent>
      <dc:title>Matplotlib v3.5.1, https://matplotlib.org/</dc:title>
     </cc:Agent>
    </dc:creator>
   </cc:Work>
  </rdf:RDF>
 </metadata>
 <defs>
  <style type="text/css">*{stroke-linejoin: round; stroke-linecap: butt}</style>
 </defs>
 <g id="figure_1">
  <g id="patch_1">
   <path d="M 0 345.6 
L 460.8 345.6 
L 460.8 0 
L 0 0 
z
" style="fill: #ffffff"/>
  </g>
  <g id="axes_1">
   <g id="patch_2">
    <path d="M 0 345.6 
L 460.8 345.6 
L 460.8 0 
L 0 0 
z
" style="fill: #ffffff"/>
   </g>
   <g id="matplotlib.axis_1">
    <g id="xtick_1">
     <g id="line2d_1">
      <defs>
       <path id="mc44b31b095" d="M 0 0 
L 0 3.5 
" style="stroke: #000000; stroke-width: 0.8"/>
      </defs>
      <g>
       <use xlink:href="#mc44b31b095" x="40.50989" y="172.8" style="stroke: #000000; stroke-width: 0.8"/>
      </g>
     </g>
     <g id="text_1">
      <!-- −3 -->
      <g transform="translate(33.138796 187.398437)scale(0.1 -0.1)">
       <defs>
        <path id="DejaVuSans-2212" d="M 678 2272 
L 4684 2272 
L 4684 1741 
L 678 1741 
L 678 2272 
z
" transform="scale(0.015625)"/>
        <path id="DejaVuSans-33" d="M 2597 2516 
Q 3050 2419 3304 2112 
Q 3559 1806 3559 1356 
Q 3559 666 3084 287 
Q 2609 -91 1734 -91 
Q 1441 -91 1130 -33 
Q 819 25 488 141 
L 488 750 
Q 750 597 1062 519 
Q 1375 441 1716 441 
Q 2309 441 2620 675 
Q 2931 909 2931 1356 
Q 2931 1769 2642 2001 
Q 2353 2234 1838 2234 
L 1294 2234 
L 1294 2753 
L 1863 2753 
Q 2328 2753 2575 2939 
Q 2822 3125 2822 3475 
Q 2822 3834 2567 4026 
Q 2313 4219 1838 4219 
Q 1578 4219 1281 4162 
Q 984 4106 628 3988 
L 628 4550 
Q 988 4650 1302 4700 
Q 1616 4750 1894 4750 
Q 2613 4750 3031 4423 
Q 3450 4097 3450 3541 
Q 3450 3153 3228 2886 
Q 3006 2619 2597 2516 
z
" transform="scale(0.015625)"/>
       </defs>
       <use xlink:href="#DejaVuSans-2212"/>
       <use xlink:href="#DejaVuSans-33" x="83.789062"/>
      </g>
     </g>
    </g>
    <g id="xtick_2">
     <g id="line2d_2">
      <g>
       <use xlink:href="#mc44b31b095" x="103.806593" y="172.8" style="stroke: #000000; stroke-width: 0.8"/>
      </g>
     </g>
     <g id="text_2">
      <!-- −2 -->
      <g transform="translate(96.4355 187.398437)scale(0.1 -0.1)">
       <defs>
        <path id="DejaVuSans-32" d="M 1228 531 
L 3431 531 
L 3431 0 
L 469 0 
L 469 531 
Q 828 903 1448 1529 
Q 2069 2156 2228 2338 
Q 2531 2678 2651 2914 
Q 2772 3150 2772 3378 
Q 2772 3750 2511 3984 
Q 2250 4219 1831 4219 
Q 1534 4219 1204 4116 
Q 875 4013 500 3803 
L 500 4441 
Q 881 4594 1212 4672 
Q 1544 4750 1819 4750 
Q 2544 4750 2975 4387 
Q 3406 4025 3406 3419 
Q 3406 3131 3298 2873 
Q 3191 2616 2906 2266 
Q 2828 2175 2409 1742 
Q 1991 1309 1228 531 
z
" transform="scale(0.015625)"/>
       </defs>
       <use xlink:href="#DejaVuSans-2212"/>
       <use xlink:href="#DejaVuSans-32" x="83.789062"/>
      </g>
     </g>
    </g>
    <g id="xtick_3">
     <g id="line2d_3">
      <g>
       <use xlink:href="#mc44b31b095" x="167.103297" y="172.8" style="stroke: #000000; stroke-width: 0.8"/>
      </g>
     </g>
     <g id="text_3">
      <!-- −1 -->
      <g transform="translate(159.732203 187.398437)scale(0.1 -0.1)">
       <defs>
        <path id="DejaVuSans-31" d="M 794 531 
L 1825 531 
L 1825 4091 
L 703 3866 
L 703 4441 
L 1819 4666 
L 2450 4666 
L 2450 531 
L 3481 531 
L 3481 0 
L 794 0 
L 794 531 
z
" transform="scale(0.015625)"/>
       </defs>
       <use xlink:href="#DejaVuSans-2212"/>
       <use xlink:href="#DejaVuSans-31" x="83.789062"/>
      </g>
     </g>
    </g>
    <g id="xtick_4">
     <g id="line2d_4">
      <g>
       <use xlink:href="#mc44b31b095" x="230.4" y="172.8" style="stroke: #000000; stroke-width: 0.8"/>
      </g>
     </g>
    </g>
    <g id="xtick_5">
     <g id="line2d_5">
      <g>
       <use xlink:href="#mc44b31b095" x="293.696703" y="172.8" style="stroke: #000000; stroke-width: 0.8"/>
      </g>
     </g>
     <g id="text_4">
      <!-- 1 -->
      <g transform="translate(290.515453 187.398437)scale(0.1 -0.1)">
       <use xlink:href="#DejaVuSans-31"/>
      </g>
     </g>
    </g>
    <g id="xtick_6">
     <g id="line2d_6">
      <g>
       <use xlink:href="#mc44b31b095" x="356.993407" y="172.8" style="stroke: #000000; stroke-width: 0.8"/>
      </g>
     </g>
     <g id="text_5">
      <!-- 2 -->
      <g transform="translate(353.812157 187.398437)scale(0.1 -0.1)">
       <use xlink:href="#DejaVuSans-32"/>
      </g>
     </g>
    </g>
    <g id="xtick_7">
     <g id="line2d_7">
      <g>
       <use xlink:href="#mc44b31b095" x="420.29011" y="172.8" style="stroke: #000000; stroke-width: 0.8"/>
      </g>
     </g>
     <g id="text_6">
      <!-- 3 -->
      <g transform="translate(417.10886 187.398437)scale(0.1 -0.1)">
       <use xlink:href="#DejaVuSans-33"/>
      </g>
     </g>
    </g>
    <g id="xtick_8">
     <g id="line2d_8">
      <defs>
       <path id="m33193fb6c9" d="M 0 0 
L 0 2 
" style="stroke: #000000; stroke-width: 0.6"/>
      </defs>
      <g>
       <use xlink:href="#m33193fb6c9" x="2.531868" y="172.8" style="stroke: #000000; stroke-width: 0.6"/>
      </g>
     </g>
    </g>
    <g id="xtick_9">
     <g id="line2d_9">
      <g>
       <use xlink:href="#m33193fb6c9" x="15.191209" y="172.8" style="stroke: #000000; stroke-width: 0.6"/>
      </g>
     </g>
    </g>
    <g id="xtick_10">
     <g id="line2d_10">
      <g>
       <use xlink:href="#m33193fb6c9" x="27.850549" y="172.8" style="stroke: #000000; stroke-width: 0.6"/>
      </g>
     </g>
    </g>
    <g id="xtick_11">
     <g id="line2d_11">
      <g>
       <use xlink:href="#m33193fb6c9" x="53.169231" y="172.8" style="stroke: #000000; stroke-width: 0.6"/>
      </g>
     </g>
    </g>
    <g id="xtick_12">
     <g id="line2d_12">
      <g>
       <use xlink:href="#m33193fb6c9" x="65.828571" y="172.8" style="stroke: #000000; stroke-width: 0.6"/>
      </g>
     </g>
    </g>
    <g id="xtick_13">
     <g id="line2d_13">
      <g>
       <use xlink:href="#m33193fb6c9" x="78.487912" y="172.8" style="stroke: #000000; stroke-width: 0.6"/>
      </g>
     </g>
    </g>
    <g id="xtick_14">
     <g id="line2d_14">
      <g>
       <use xlink:href="#m33193fb6c9" x="91.147253" y="172.8" style="stroke: #000000; stroke-width: 0.6"/>
      </g>
     </g>
    </g>
    <g id="xtick_15">
     <g id="line2d_15">
      <g>
       <use xlink:href="#m33193fb6c9" x="116.465934" y="172.8" style="stroke: #000000; stroke-width: 0.6"/>
      </g>
     </g>
    </g>
    <g id="xtick_16">
     <g id="line2d_16">
      <g>
       <use xlink:href="#m33193fb6c9" x="129.125275" y="172.8" style="stroke: #000000; stroke-width: 0.6"/>
      </g>
     </g>
    </g>
    <g id="xtick_17">
     <g id="line2d_17">
      <g>
       <use xlink:href="#m33193fb6c9" x="141.784615" y="172.8" style="stroke: #000000; stroke-width: 0.6"/>
      </g>
     </g>
    </g>
    <g id="xtick_18">
     <g id="line2d_18">
      <g>
       <use xlink:href="#m33193fb6c9" x="154.443956" y="172.8" style="stroke: #000000; stroke-width: 0.6"/>
      </g>
     </g>
    </g>
    <g id="xtick_19">
     <g id="line2d_19">
      <g>
       <use xlink:href="#m33193fb6c9" x="179.762637" y="172.8" style="stroke: #000000; stroke-width: 0.6"/>
      </g>
     </g>
    </g>
    <g id="xtick_20">
     <g id="line2d_20">
      <g>
       <use xlink:href="#m33193fb6c9" x="192.421978" y="172.8" style="stroke: #000000; stroke-width: 0.6"/>
      </g>
     </g>
    </g>
    <g id="xtick_21">
     <g id="line2d_21">
      <g>
       <use xlink:href="#m33193fb6c9" x="205.081319" y="172.8" style="stroke: #000000; stroke-width: 0.6"/>
      </g>
     </g>
    </g>
    <g id="xtick_22">
     <g id="line2d_22">
      <g>
       <use xlink:href="#m33193fb6c9" x="217.740659" y="172.8" style="stroke: #000000; stroke-width: 0.6"/>
      </g>
     </g>
    </g>
    <g id="xtick_23">
     <g id="line2d_23">
      <g>
       <use xlink:href="#m33193fb6c9" x="243.059341" y="172.8" style="stroke: #000000; stroke-width: 0.6"/>
      </g>
     </g>
    </g>
    <g id="xtick_24">
     <g id="line2d_24">
      <g>
       <use xlink:href="#m33193fb6c9" x="255.718681" y="172.8" style="stroke: #000000; stroke-width: 0.6"/>
      </g>
     </g>
    </g>
    <g id="xtick_25">
     <g id="line2d_25">
      <g>
       <use xlink:href="#m33193fb6c9" x="268.378022" y="172.8" style="stroke: #000000; stroke-width: 0.6"/>
      </g>
     </g>
    </g>
    <g id="xtick_26">
     <g id="line2d_26">
      <g>
       <use xlink:href="#m33193fb6c9" x="281.037363" y="172.8" style="stroke: #000000; stroke-width: 0.6"/>
      </g>
     </g>
    </g>
    <g id="xtick_27">
     <g id="line2d_27">
      <g>
       <use xlink:href="#m33193fb6c9" x="306.356044" y="172.8" style="stroke: #000000; stroke-width: 0.6"/>
      </g>
     </g>
    </g>
    <g id="xtick_28">
     <g id="line2d_28">
      <g>
       <use xlink:href="#m33193fb6c9" x="319.015385" y="172.8" style="stroke: #000000; stroke-width: 0.6"/>
      </g>
     </g>
    </g>
    <g id="xtick_29">
     <g id="line2d_29">
      <g>
       <use xlink:href="#m33193fb6c9" x="331.674725" y="172.8" style="stroke: #000000; stroke-width: 0.6"/>
      </g>
     </g>
    </g>
    <g id="xtick_30">
     <g id="line2d_30">
      <g>
       <use xlink:href="#m33193fb6c9" x="344.334066" y="172.8" style="stroke: #000000; stroke-width: 0.6"/>
      </g>
     </g>
    </g>
    <g id="xtick_31">
     <g id="line2d_31">
      <g>
       <use xlink:href="#m33193fb6c9" x="369.652747" y="172.8" style="stroke: #000000; stroke-width: 0.6"/>
      </g>
     </g>
    </g>
    <g id="xtick_32">
     <g id="line2d_32">
      <g>
       <use xlink:href="#m33193fb6c9" x="382.312088" y="172.8" style="stroke: #000000; stroke-width: 0.6"/>
      </g>
     </g>
    </g>
    <g id="xtick_33">
     <g id="line2d_33">
      <g>
       <use xlink:href="#m33193fb6c9" x="394.971429" y="172.8" style="stroke: #000000; stroke-width: 0.6"/>
      </g>
     </g>
    </g>
    <g id="xtick_34">
     <g id="line2d_34">
      <g>
       <use xlink:href="#m33193fb6c9" x="407.630769" y="172.8" style="stroke: #000000; stroke-width: 0.6"/>
      </g>
     </g>
    </g>
    <g id="xtick_35">
     <g id="line2d_35">
      <g>
       <use xlink:href="#m33193fb6c9" x="432.949451" y="172.8" style="stroke: #000000; stroke-width: 0.6"/>
      </g>
     </g>
    </g>
    <g id="xtick_36">
     <g id="line2d_36">
      <g>
       <use xlink:href="#m33193fb6c9" x="445.608791" y="172.8" style="stroke: #000000; stroke-width: 0.6"/>
      </g>
     </g>
    </g>
    <g id="xtick_37">
     <g id="line2d_37">
      <g>
       <use xlink:href="#m33193fb6c9" x="458.268132" y="172.8" style="stroke: #000000; stroke-width: 0.6"/>
      </g>
     </g>
    </g>
   </g>
   <g id="matplotlib.axis_2">
    <g id="ytick_1">
     <g id="line2d_38">
      <defs>
       <path id="m7183f96571" d="M 0 0 
L -3.5 0 
" style="stroke: #000000; stroke-width: 0.8"/>
      </defs>
      <g>
       <use xlink:href="#m7183f96571" x="230.4" y="305.723077" style="stroke: #000000; stroke-width: 0.8"/>
      </g>
     </g>
     <g id="text_7">
      <!-- −4 -->
      <g transform="translate(208.657812 309.522296)scale(0.1 -0.1)">
       <defs>
        <path id="DejaVuSans-34" d="M 2419 4116 
L 825 1625 
L 2419 1625 
L 2419 4116 
z
M 2253 4666 
L 3047 4666 
L 3047 1625 
L 3713 1625 
L 3713 1100 
L 3047 1100 
L 3047 0 
L 2419 0 
L 2419 1100 
L 313 1100 
L 313 1709 
L 2253 4666 
z
" transform="scale(0.015625)"/>
       </defs>
       <use xlink:href="#DejaVuSans-2212"/>
       <use xlink:href="#DejaVuSans-34" x="83.789062"/>
      </g>
     </g>
    </g>
    <g id="ytick_2">
     <g id="line2d_39">
      <g>
       <use xlink:href="#m7183f96571" x="230.4" y="239.261538" style="stroke: #000000; stroke-width: 0.8"/>
      </g>
     </g>
     <g id="text_8">
      <!-- −2 -->
      <g transform="translate(208.657812 243.060757)scale(0.1 -0.1)">
       <use xlink:href="#DejaVuSans-2212"/>
       <use xlink:href="#DejaVuSans-32" x="83.789062"/>
      </g>
     </g>
    </g>
    <g id="ytick_3">
     <g id="line2d_40">
      <g>
       <use xlink:href="#m7183f96571" x="230.4" y="172.8" style="stroke: #000000; stroke-width: 0.8"/>
      </g>
     </g>
    </g>
    <g id="ytick_4">
     <g id="line2d_41">
      <g>
       <use xlink:href="#m7183f96571" x="230.4" y="106.338462" style="stroke: #000000; stroke-width: 0.8"/>
      </g>
     </g>
     <g id="text_9">
      <!-- 2 -->
      <g transform="translate(217.0375 110.13768)scale(0.1 -0.1)">
       <use xlink:href="#DejaVuSans-32"/>
      </g>
     </g>
    </g>
    <g id="ytick_5">
     <g id="line2d_42">
      <g>
       <use xlink:href="#m7183f96571" x="230.4" y="39.876923" style="stroke: #000000; stroke-width: 0.8"/>
      </g>
     </g>
     <g id="text_10">
      <!-- 4 -->
      <g transform="translate(217.0375 43.676142)scale(0.1 -0.1)">
       <use xlink:href="#DejaVuSans-34"/>
      </g>
     </g>
    </g>
    <g id="ytick_6">
     <g id="line2d_43">
      <defs>
       <path id="m9d24aeb1e4" d="M 0 0 
L -2 0 
" style="stroke: #000000; stroke-width: 0.6"/>
      </defs>
      <g>
       <use xlink:href="#m9d24aeb1e4" x="230.4" y="338.953846" style="stroke: #000000; stroke-width: 0.6"/>
      </g>
     </g>
    </g>
    <g id="ytick_7">
     <g id="line2d_44">
      <g>
       <use xlink:href="#m9d24aeb1e4" x="230.4" y="322.338462" style="stroke: #000000; stroke-width: 0.6"/>
      </g>
     </g>
    </g>
    <g id="ytick_8">
     <g id="line2d_45">
      <g>
       <use xlink:href="#m9d24aeb1e4" x="230.4" y="289.107692" style="stroke: #000000; stroke-width: 0.6"/>
      </g>
     </g>
    </g>
    <g id="ytick_9">
     <g id="line2d_46">
      <g>
       <use xlink:href="#m9d24aeb1e4" x="230.4" y="272.492308" style="stroke: #000000; stroke-width: 0.6"/>
      </g>
     </g>
    </g>
    <g id="ytick_10">
     <g id="line2d_47">
      <g>
       <use xlink:href="#m9d24aeb1e4" x="230.4" y="255.876923" style="stroke: #000000; stroke-width: 0.6"/>
      </g>
     </g>
    </g>
    <g id="ytick_11">
     <g id="line2d_48">
      <g>
       <use xlink:href="#m9d24aeb1e4" x="230.4" y="222.646154" style="stroke: #000000; stroke-width: 0.6"/>
      </g>
     </g>
    </g>
    <g id="ytick_12">
     <g id="line2d_49">
      <g>
       <use xlink:href="#m9d24aeb1e4" x="230.4" y="206.030769" style="stroke: #000000; stroke-width: 0.6"/>
      </g>
     </g>
    </g>
    <g id="ytick_13">
     <g id="line2d_50">
      <g>
       <use xlink:href="#m9d24aeb1e4" x="230.4" y="189.415385" style="stroke: #000000; stroke-width: 0.6"/>
      </g>
     </g>
    </g>
    <g id="ytick_14">
     <g id="line2d_51">
      <g>
       <use xlink:href="#m9d24aeb1e4" x="230.4" y="156.184615" style="stroke: #000000; stroke-width: 0.6"/>
      </g>
     </g>
    </g>
    <g id="ytick_15">
     <g id="line2d_52">
      <g>
       <use xlink:href="#m9d24aeb1e4" x="230.4" y="139.569231" style="stroke: #000000; stroke-width: 0.6"/>
      </g>
     </g>
    </g>
    <g id="ytick_16">
     <g id="line2d_53">
      <g>
       <use xlink:href="#m9d24aeb1e4" x="230.4" y="122.953846" style="stroke: #000000; stroke-width: 0.6"/>
      </g>
     </g>
    </g>
    <g id="ytick_17">
     <g id="line2d_54">
      <g>
       <use xlink:href="#m9d24aeb1e4" x="230.4" y="89.723077" style="stroke: #000000; stroke-width: 0.6"/>
      </g>
     </g>
    </g>
    <g id="ytick_18">
     <g id="line2d_55">
      <g>
       <use xlink:href="#m9d24aeb1e4" x="230.4" y="73.107692" style="stroke: #000000; stroke-width: 0.6"/>
      </g>
     </g>
    </g>
    <g id="ytick_19">
     <g id="line2d_56">
      <g>
       <use xlink:href="#m9d24aeb1e4" x="230.4" y="56.492308" style="stroke: #000000; stroke-width: 0.6"/>
      </g>
     </g>
    </g>
    <g id="ytick_20">
     <g id="line2d_57">
      <g>
       <use xlink:href="#m9d24aeb1e4" x="230.4" y="23.261538" style="stroke: #000000; stroke-width: 0.6"/>
      </g>
     </g>
    </g>
    <g id="ytick_21">
     <g id="line2d_58">
      <g>
       <use xlink:href="#m9d24aeb1e4" x="230.4" y="6.646154" style="stroke: #000000; stroke-width: 0.6"/>
      </g>
     </g>
    </g>
   </g>
   <g id="line2d_59">
    <path d="M 8.861538 165.046154 
L 10.598936 164.931359 
L 14.406535 164.670488 
L 15.219343 164.613084 
L 18.171605 164.399267 
L 20.014732 164.261405 
L 22.563277 164.064985 
L 24.105791 163.942712 
L 26.885329 163.715645 
L 28.648732 163.566918 
L 31.563518 163.312743 
L 33.805129 163.109874 
L 34.58267 163.037944 
L 38.174212 162.69478 
L 39.642944 162.549071 
L 40.066813 162.506418 
L 40.288352 162.484016 
L 40.399121 162.472786 
L 40.454505 162.467165 
" clip-path="url(#p5294fa14de)" style="fill: none; stroke: #0000ff; stroke-linecap: square"/>
   </g>
   <g id="line2d_60">
    <path d="M 40.952967 165.383112 
L 41.847016 165.317327 
L 45.361795 165.049783 
L 47.180479 164.905508 
L 48.138863 164.827807 
L 50.486168 164.632432 
L 53.955062 164.329863 
L 55.414913 164.197321 
L 57.912811 163.962969 
L 59.215018 163.836854 
L 63.278976 163.42481 
L 64.307833 163.31583 
L 66.79176 163.044477 
L 67.900087 162.919492 
L 70.388259 162.629675 
L 73.739756 162.217909 
L 75.52858 161.987416 
L 78.064232 161.64704 
L 80.339563 161.327165 
L 81.596428 161.144289 
L 84.067657 160.771177 
L 85.850487 160.490271 
L 87.950253 160.146049 
L 91.772557 159.479456 
L 92.637773 159.320914 
L 95.261301 158.821622 
L 97.012761 158.471911 
L 99.045164 158.048546 
L 102.299126 157.328419 
L 103.363516 157.080766 
L 103.585055 157.028433 
L 103.695824 157.002163 
L 103.751209 156.989002 
" clip-path="url(#p5294fa14de)" style="fill: none; stroke: #0000ff; stroke-linecap: square"/>
   </g>
   <g id="line2d_61">
    <path d="M 104.24967 163.241863 
L 105.003188 163.132089 
L 107.479668 162.756892 
L 108.416886 162.608855 
L 111.468008 162.102142 
L 112.883319 161.853379 
L 116.323951 161.208743 
L 118.341652 160.80207 
L 120.620052 160.314779 
L 121.495404 160.119094 
L 123.430679 159.66861 
L 125.365955 159.19189 
L 127.030931 158.75908 
L 129.230809 158.152292 
L 132.179461 157.270008 
L 132.705303 157.103633 
L 134.7934 156.413562 
L 137.195218 155.556852 
L 139.542684 154.646719 
L 141.352034 153.890349 
L 143.161384 153.080965 
L 145.060016 152.168655 
L 146.207759 151.582921 
L 148.161065 150.520796 
L 149.137718 149.956312 
L 150.114371 149.367727 
L 151.214522 148.673963 
L 152.314673 147.945356 
L 153.475906 147.135646 
L 154.637139 146.280904 
L 155.28889 145.780073 
L 156.153247 145.090978 
L 157.017604 144.371862 
L 157.881962 143.620798 
L 158.746319 142.83569 
L 159.815332 141.814181 
L 160.946344 140.667635 
L 162.077356 139.447237 
L 163.073723 138.305295 
L 164.07009 137.095063 
L 164.970096 135.938104 
L 165.870101 134.715425 
L 166.66022 133.583452 
L 166.881758 133.255637 
L 166.992527 133.089956 
L 167.047912 133.006667 
" clip-path="url(#p5294fa14de)" style="fill: none; stroke: #0000ff; stroke-linecap: square"/>
   </g>
   <g id="line2d_62">
    <path d="M 167.546374 159.281105 
L 170.63976 157.493448 
L 172.880598 155.923208 
L 174.974704 154.181087 
L 177.132594 152.024515 
L 178.59245 150.298395 
L 179.886696 148.540705 
L 181.603321 145.793523 
L 182.950836 143.213009 
L 184.298351 140.145526 
L 185.616626 136.529213 
L 186.715188 132.905136 
L 187.81375 128.547567 
L 188.823962 123.683797 
L 189.892739 117.323905 
L 190.918191 109.583122 
L 191.856196 100.478937 
L 192.7004 89.864995 
L 193.469314 77.238751 
L 194.143179 62.702915 
L 194.817043 43.181283 
L 195.378597 20.948755 
L 195.794215 -1 
L 195.794215 -1 
" clip-path="url(#p5294fa14de)" style="fill: none; stroke: #0000ff; stroke-linecap: square"/>
   </g>
   <g id="line2d_63">
    <path d="M 198.719035 -1 
L 198.719672 346.6 
" clip-path="url(#p5294fa14de)" style="fill: none; stroke-dasharray: 3.7,1.6; stroke-dashoffset: 0; stroke: #cccccc"/>
   </g>
   <g id="line2d_64">
    <path d="M 201.8536 346.6 
L 202.489754 317.752953 
L 203.199889 295.320285 
L 203.96465 278.004942 
L 204.814711 263.89282 
L 205.716936 252.691439 
L 206.528939 244.839203 
L 207.463395 237.621804 
L 208.446196 231.540111 
L 209.625557 225.703006 
L 210.68371 221.45641 
L 211.85489 217.564693 
L 213.125034 214.070825 
L 214.325316 211.30184 
L 215.638571 208.732693 
L 217.013401 206.4492 
L 218.846508 203.905983 
L 220.807396 201.672077 
L 223.012168 199.613731 
L 224.934115 198.121008 
L 227.042181 196.736753 
L 229.956923 195.164038 
L 230.344615 194.979745 
L 230.344615 194.979745 
" clip-path="url(#p5294fa14de)" style="fill: none; stroke: #0000ff; stroke-linecap: square"/>
   </g>
   <g id="line2d_65">
    <path d="M 230.843077 150.84959 
L 231.570898 151.169789 
L 232.850848 151.693615 
L 234.145251 152.176902 
L 235.439653 152.61807 
L 237.252186 153.172498 
L 239.064719 153.661192 
L 241.224461 154.168011 
L 243.699856 154.660323 
L 244.673264 154.830594 
L 246.299353 155.088116 
L 247.925442 155.314105 
L 248.430894 155.37827 
L 250.397826 155.601965 
L 252.364757 155.78641 
L 253.634481 155.885745 
L 255.337065 155.995699 
L 257.039648 156.07992 
L 258.115873 156.120234 
L 261.311751 156.182365 
L 262.956941 156.181191 
L 264.520344 156.159235 
L 267.795853 156.046481 
L 269.025851 155.980226 
L 271.008917 155.844825 
L 272.889352 155.682484 
L 275.881154 155.351276 
L 277.260068 155.166162 
L 278.776554 154.936969 
L 280.29304 154.67908 
L 282.022246 154.347114 
L 283.464569 154.036614 
L 284.906892 153.692694 
L 286.346995 153.31284 
L 288.122693 152.788861 
L 289.898391 152.195786 
L 291.300918 151.672055 
L 292.703445 151.093194 
L 293.253626 150.84959 
L 293.272027 150.841273 
L 293.488965 150.74236 
L 293.597434 150.69231 
L 293.651669 150.667135 
" clip-path="url(#p5294fa14de)" style="fill: none; stroke: #0000ff; stroke-linecap: square"/>
   </g>
   <g id="line2d_66">
    <path d="M 294.13978 105.707885 
L 296.006108 102.809388 
L 298.108129 99.002858 
L 299.920467 95.158622 
L 301.624599 90.959248 
L 303.335638 86.03989 
L 304.725006 81.408152 
L 306.185937 75.776841 
L 307.508577 69.849656 
L 308.831217 62.940125 
L 310.153857 54.792932 
L 311.476942 45.051715 
L 312.621848 34.956227 
L 313.745321 23.08274 
L 314.801115 9.589631 
L 315.503068 -1 
L 315.503068 -1 
" clip-path="url(#p5294fa14de)" style="fill: none; stroke: #0000ff; stroke-linecap: square"/>
   </g>
   <g id="line2d_67">
    <path d="M 325.303148 -1 
L 325.303313 346.6 
" clip-path="url(#p5294fa14de)" style="fill: none; stroke-dasharray: 3.7,1.6; stroke-dashoffset: 0; stroke: #cccccc"/>
   </g>
   <g id="line2d_68">
    <path d="M 333.850456 346.6 
L 334.763179 328.702722 
L 335.832038 311.721012 
L 336.983334 296.935916 
L 338.104324 285.118874 
L 339.468937 273.282933 
L 340.758631 264.039042 
L 342.272245 255.004337 
L 343.597374 248.338803 
L 344.960582 242.433775 
L 346.676833 236.088479 
L 348.371207 230.767438 
L 349.96583 226.441338 
L 352.043616 221.596265 
L 353.661977 218.32683 
L 355.828242 214.508253 
L 356.974913 212.704903 
L 356.974913 212.704903 
" clip-path="url(#p5294fa14de)" style="fill: none; stroke: #0000ff; stroke-linecap: square"/>
   </g>
   <g id="line2d_69">
    <path d="M 357.067227 239.075959 
L 357.190312 238.768506 
L 357.436484 238.160913 
L 357.980231 236.852427 
L 358.424653 235.816004 
L 358.869075 234.808024 
L 359.313497 233.827362 
L 359.757919 232.872952 
L 360.202341 231.943784 
L 360.646763 231.038895 
L 361.535606 229.298352 
L 362.213282 228.029931 
L 362.824042 226.927657 
L 363.434801 225.862209 
L 364.045561 224.831827 
L 364.656321 223.834861 
L 365.335514 222.763546 
L 366.014708 221.729647 
L 366.693901 220.731301 
L 367.373095 219.766765 
L 368.021099 218.876538 
L 368.669104 218.014273 
L 369.317108 217.178717 
L 369.965113 216.368694 
L 371.236019 214.849967 
L 372.054048 213.918523 
L 372.872077 213.020943 
L 373.690107 212.155484 
L 374.508136 211.320519 
L 375.655806 210.197601 
L 376.693611 209.228054 
L 377.731416 208.299351 
L 378.638276 207.519362 
L 379.545135 206.76721 
L 380.451994 206.041495 
L 381.358853 205.340907 
L 382.257433 204.670296 
L 383.232566 203.967808 
L 384.207699 203.290308 
L 386.157965 202.00536 
L 386.630843 201.707073 
L 388.29717 200.694509 
L 389.963498 199.738369 
L 390.887792 199.230717 
L 392.156119 198.558922 
L 393.424445 197.914334 
L 395.53933 196.895891 
L 397.089464 196.191011 
L 398.639599 195.518744 
L 400.678979 194.680482 
L 403.559156 193.578379 
L 404.506919 193.235045 
L 406.406205 192.573719 
L 408.305492 191.945906 
L 409.485742 191.571619 
L 412.201668 190.753267 
L 413.332287 190.429192 
L 415.226725 189.906594 
L 417.121163 189.408138 
L 417.449976 189.323966 
L 419.847033 188.730229 
L 420.098412 188.669922 
L 420.224101 188.639904 
" clip-path="url(#p5294fa14de)" style="fill: none; stroke: #0000ff; stroke-linecap: square"/>
   </g>
   <g id="line2d_70">
    <path d="M 420.318369 194.94443 
L 420.349791 194.933967 
L 420.733187 194.806928 
L 423.344562 193.971454 
L 426.074545 193.150299 
L 428.156448 192.557267 
L 429.614073 192.158071 
L 432.571512 191.386057 
L 434.673317 190.866347 
L 436.163888 190.511443 
L 438.19523 190.045079 
L 439.766206 189.697445 
L 442.463787 189.125523 
L 444.94947 188.624836 
L 447.846438 188.070912 
L 448.786663 187.897611 
L 451.938462 187.338462 
" clip-path="url(#p5294fa14de)" style="fill: none; stroke: #0000ff; stroke-linecap: square"/>
   </g>
   <g id="patch_3">
    <path d="M 230.4 345.6 
L 230.4 0 
" style="fill: none; stroke: #000000; stroke-width: 0.8; stroke-linejoin: miter; stroke-linecap: square"/>
   </g>
   <g id="patch_4">
    <path d="M 0 172.8 
L 460.8 172.8 
" style="fill: none; stroke: #000000; stroke-width: 0.8; stroke-linejoin: miter; stroke-linecap: square"/>
   </g>
  </g>
 </g>
 <defs>
  <clipPath id="p5294fa14de">
   <rect x="0" y="0" width="460.8" height="345.6"/>
  </clipPath>
 </defs>
</svg>
