<?xml version="1.0" encoding="utf-8" standalone="no"?>
<!DOCTYPE svg PUBLIC "-//W3C//DTD SVG 1.1//EN"
  "http://www.w3.org/Graphics/SVG/1.1/DTD/svg11.dtd">
<!-- Created with matplotlib (http://matplotlib.org/) -->
<svg height="345.6pt" version="1.1" viewBox="0 0 460.8 345.6" width="460.8pt" xmlns="http://www.w3.org/2000/svg" xmlns:xlink="http://www.w3.org/1999/xlink">
 <defs>
  <style type="text/css">
*{stroke-linecap:butt;stroke-linejoin:round;}
  </style>
 </defs>
 <g id="figure_1">
  <g id="patch_1">
   <path d="M 0 345.6 
L 460.8 345.6 
L 460.8 0 
L 0 0 
z
" style="fill:#ffffff;"/>
  </g>
  <g id="axes_1">
   <g id="patch_2">
    <path d="M 2.52 343.08 
L 458.28 343.08 
L 458.28 2.52 
L 2.52 2.52 
z
" style="fill:#ffffff;"/>
   </g>
   <g id="matplotlib.axis_1">
    <g id="xtick_1">
     <g id="line2d_1">
      <defs>
       <path d="M 0 0 
L 0 3.5 
" id="m1da5398682" style="stroke:#000000;stroke-width:0.8;"/>
      </defs>
      <g>
       <use style="stroke:#000000;stroke-width:0.8;" x="11.284615" xlink:href="#m1da5398682" y="172.8"/>
      </g>
     </g>
     <g id="text_1">
      <!-- -4 -->
      <defs>
       <path d="M 4.890625 31.390625 
L 31.203125 31.390625 
L 31.203125 23.390625 
L 4.890625 23.390625 
z
" id="DejaVuSans-2d"/>
       <path d="M 37.796875 64.3125 
L 12.890625 25.390625 
L 37.796875 25.390625 
z
M 35.203125 72.90625 
L 47.609375 72.90625 
L 47.609375 25.390625 
L 58.015625 25.390625 
L 58.015625 17.1875 
L 47.609375 17.1875 
L 47.609375 0 
L 37.796875 0 
L 37.796875 17.1875 
L 4.890625 17.1875 
L 4.890625 26.703125 
z
" id="DejaVuSans-34"/>
      </defs>
      <g transform="translate(6.299459 187.398437)scale(0.1 -0.1)">
       <use xlink:href="#DejaVuSans-2d"/>
       <use x="36.083984" xlink:href="#DejaVuSans-34"/>
      </g>
     </g>
    </g>
    <g id="xtick_2">
     <g id="line2d_2">
      <g>
       <use style="stroke:#000000;stroke-width:0.8;" x="66.063462" xlink:href="#m1da5398682" y="172.8"/>
      </g>
     </g>
     <g id="text_2">
      <!-- -3 -->
      <defs>
       <path d="M 40.578125 39.3125 
Q 47.65625 37.796875 51.625 33 
Q 55.609375 28.21875 55.609375 21.1875 
Q 55.609375 10.40625 48.1875 4.484375 
Q 40.765625 -1.421875 27.09375 -1.421875 
Q 22.515625 -1.421875 17.65625 -0.515625 
Q 12.796875 0.390625 7.625 2.203125 
L 7.625 11.71875 
Q 11.71875 9.328125 16.59375 8.109375 
Q 21.484375 6.890625 26.8125 6.890625 
Q 36.078125 6.890625 40.9375 10.546875 
Q 45.796875 14.203125 45.796875 21.1875 
Q 45.796875 27.640625 41.28125 31.265625 
Q 36.765625 34.90625 28.71875 34.90625 
L 20.21875 34.90625 
L 20.21875 43.015625 
L 29.109375 43.015625 
Q 36.375 43.015625 40.234375 45.921875 
Q 44.09375 48.828125 44.09375 54.296875 
Q 44.09375 59.90625 40.109375 62.90625 
Q 36.140625 65.921875 28.71875 65.921875 
Q 24.65625 65.921875 20.015625 65.03125 
Q 15.375 64.15625 9.8125 62.3125 
L 9.8125 71.09375 
Q 15.4375 72.65625 20.34375 73.4375 
Q 25.25 74.21875 29.59375 74.21875 
Q 40.828125 74.21875 47.359375 69.109375 
Q 53.90625 64.015625 53.90625 55.328125 
Q 53.90625 49.265625 50.4375 45.09375 
Q 46.96875 40.921875 40.578125 39.3125 
z
" id="DejaVuSans-33"/>
      </defs>
      <g transform="translate(61.078305 187.398437)scale(0.1 -0.1)">
       <use xlink:href="#DejaVuSans-2d"/>
       <use x="36.083984" xlink:href="#DejaVuSans-33"/>
      </g>
     </g>
    </g>
    <g id="xtick_3">
     <g id="line2d_3">
      <g>
       <use style="stroke:#000000;stroke-width:0.8;" x="120.842308" xlink:href="#m1da5398682" y="172.8"/>
      </g>
     </g>
     <g id="text_3">
      <!-- -2 -->
      <defs>
       <path d="M 19.1875 8.296875 
L 53.609375 8.296875 
L 53.609375 0 
L 7.328125 0 
L 7.328125 8.296875 
Q 12.9375 14.109375 22.625 23.890625 
Q 32.328125 33.6875 34.8125 36.53125 
Q 39.546875 41.84375 41.421875 45.53125 
Q 43.3125 49.21875 43.3125 52.78125 
Q 43.3125 58.59375 39.234375 62.25 
Q 35.15625 65.921875 28.609375 65.921875 
Q 23.96875 65.921875 18.8125 64.3125 
Q 13.671875 62.703125 7.8125 59.421875 
L 7.8125 69.390625 
Q 13.765625 71.78125 18.9375 73 
Q 24.125 74.21875 28.421875 74.21875 
Q 39.75 74.21875 46.484375 68.546875 
Q 53.21875 62.890625 53.21875 53.421875 
Q 53.21875 48.921875 51.53125 44.890625 
Q 49.859375 40.875 45.40625 35.40625 
Q 44.1875 33.984375 37.640625 27.21875 
Q 31.109375 20.453125 19.1875 8.296875 
z
" id="DejaVuSans-32"/>
      </defs>
      <g transform="translate(115.857151 187.398437)scale(0.1 -0.1)">
       <use xlink:href="#DejaVuSans-2d"/>
       <use x="36.083984" xlink:href="#DejaVuSans-32"/>
      </g>
     </g>
    </g>
    <g id="xtick_4">
     <g id="line2d_4">
      <g>
       <use style="stroke:#000000;stroke-width:0.8;" x="175.621154" xlink:href="#m1da5398682" y="172.8"/>
      </g>
     </g>
     <g id="text_4">
      <!-- -1 -->
      <defs>
       <path d="M 12.40625 8.296875 
L 28.515625 8.296875 
L 28.515625 63.921875 
L 10.984375 60.40625 
L 10.984375 69.390625 
L 28.421875 72.90625 
L 38.28125 72.90625 
L 38.28125 8.296875 
L 54.390625 8.296875 
L 54.390625 0 
L 12.40625 0 
z
" id="DejaVuSans-31"/>
      </defs>
      <g transform="translate(170.635998 187.398437)scale(0.1 -0.1)">
       <use xlink:href="#DejaVuSans-2d"/>
       <use x="36.083984" xlink:href="#DejaVuSans-31"/>
      </g>
     </g>
    </g>
    <g id="xtick_5">
     <g id="line2d_5">
      <g>
       <use style="stroke:#000000;stroke-width:0.8;" x="230.4" xlink:href="#m1da5398682" y="172.8"/>
      </g>
     </g>
    </g>
    <g id="xtick_6">
     <g id="line2d_6">
      <g>
       <use style="stroke:#000000;stroke-width:0.8;" x="285.178846" xlink:href="#m1da5398682" y="172.8"/>
      </g>
     </g>
     <g id="text_5">
      <!-- 1 -->
      <g transform="translate(281.997596 187.398437)scale(0.1 -0.1)">
       <use xlink:href="#DejaVuSans-31"/>
      </g>
     </g>
    </g>
    <g id="xtick_7">
     <g id="line2d_7">
      <g>
       <use style="stroke:#000000;stroke-width:0.8;" x="339.957692" xlink:href="#m1da5398682" y="172.8"/>
      </g>
     </g>
     <g id="text_6">
      <!-- 2 -->
      <g transform="translate(336.776442 187.398437)scale(0.1 -0.1)">
       <use xlink:href="#DejaVuSans-32"/>
      </g>
     </g>
    </g>
    <g id="xtick_8">
     <g id="line2d_8">
      <g>
       <use style="stroke:#000000;stroke-width:0.8;" x="394.736538" xlink:href="#m1da5398682" y="172.8"/>
      </g>
     </g>
     <g id="text_7">
      <!-- 3 -->
      <g transform="translate(391.555288 187.398437)scale(0.1 -0.1)">
       <use xlink:href="#DejaVuSans-33"/>
      </g>
     </g>
    </g>
    <g id="xtick_9">
     <g id="line2d_9">
      <g>
       <use style="stroke:#000000;stroke-width:0.8;" x="449.515385" xlink:href="#m1da5398682" y="172.8"/>
      </g>
     </g>
     <g id="text_8">
      <!-- 4 -->
      <g transform="translate(446.334135 187.398437)scale(0.1 -0.1)">
       <use xlink:href="#DejaVuSans-34"/>
      </g>
     </g>
    </g>
    <g id="xtick_10">
     <g id="line2d_10">
      <defs>
       <path d="M 0 0 
L 0 2 
" id="m94f803ce1b" style="stroke:#000000;stroke-width:0.6;"/>
      </defs>
      <g>
       <use style="stroke:#000000;stroke-width:0.6;" x="22.240385" xlink:href="#m94f803ce1b" y="172.8"/>
      </g>
     </g>
    </g>
    <g id="xtick_11">
     <g id="line2d_11">
      <g>
       <use style="stroke:#000000;stroke-width:0.6;" x="33.196154" xlink:href="#m94f803ce1b" y="172.8"/>
      </g>
     </g>
    </g>
    <g id="xtick_12">
     <g id="line2d_12">
      <g>
       <use style="stroke:#000000;stroke-width:0.6;" x="44.151923" xlink:href="#m94f803ce1b" y="172.8"/>
      </g>
     </g>
    </g>
    <g id="xtick_13">
     <g id="line2d_13">
      <g>
       <use style="stroke:#000000;stroke-width:0.6;" x="55.107692" xlink:href="#m94f803ce1b" y="172.8"/>
      </g>
     </g>
    </g>
    <g id="xtick_14">
     <g id="line2d_14">
      <g>
       <use style="stroke:#000000;stroke-width:0.6;" x="77.019231" xlink:href="#m94f803ce1b" y="172.8"/>
      </g>
     </g>
    </g>
    <g id="xtick_15">
     <g id="line2d_15">
      <g>
       <use style="stroke:#000000;stroke-width:0.6;" x="87.975" xlink:href="#m94f803ce1b" y="172.8"/>
      </g>
     </g>
    </g>
    <g id="xtick_16">
     <g id="line2d_16">
      <g>
       <use style="stroke:#000000;stroke-width:0.6;" x="98.930769" xlink:href="#m94f803ce1b" y="172.8"/>
      </g>
     </g>
    </g>
    <g id="xtick_17">
     <g id="line2d_17">
      <g>
       <use style="stroke:#000000;stroke-width:0.6;" x="109.886538" xlink:href="#m94f803ce1b" y="172.8"/>
      </g>
     </g>
    </g>
    <g id="xtick_18">
     <g id="line2d_18">
      <g>
       <use style="stroke:#000000;stroke-width:0.6;" x="131.798077" xlink:href="#m94f803ce1b" y="172.8"/>
      </g>
     </g>
    </g>
    <g id="xtick_19">
     <g id="line2d_19">
      <g>
       <use style="stroke:#000000;stroke-width:0.6;" x="142.753846" xlink:href="#m94f803ce1b" y="172.8"/>
      </g>
     </g>
    </g>
    <g id="xtick_20">
     <g id="line2d_20">
      <g>
       <use style="stroke:#000000;stroke-width:0.6;" x="153.709615" xlink:href="#m94f803ce1b" y="172.8"/>
      </g>
     </g>
    </g>
    <g id="xtick_21">
     <g id="line2d_21">
      <g>
       <use style="stroke:#000000;stroke-width:0.6;" x="164.665385" xlink:href="#m94f803ce1b" y="172.8"/>
      </g>
     </g>
    </g>
    <g id="xtick_22">
     <g id="line2d_22">
      <g>
       <use style="stroke:#000000;stroke-width:0.6;" x="186.576923" xlink:href="#m94f803ce1b" y="172.8"/>
      </g>
     </g>
    </g>
    <g id="xtick_23">
     <g id="line2d_23">
      <g>
       <use style="stroke:#000000;stroke-width:0.6;" x="197.532692" xlink:href="#m94f803ce1b" y="172.8"/>
      </g>
     </g>
    </g>
    <g id="xtick_24">
     <g id="line2d_24">
      <g>
       <use style="stroke:#000000;stroke-width:0.6;" x="208.488462" xlink:href="#m94f803ce1b" y="172.8"/>
      </g>
     </g>
    </g>
    <g id="xtick_25">
     <g id="line2d_25">
      <g>
       <use style="stroke:#000000;stroke-width:0.6;" x="219.444231" xlink:href="#m94f803ce1b" y="172.8"/>
      </g>
     </g>
    </g>
    <g id="xtick_26">
     <g id="line2d_26">
      <g>
       <use style="stroke:#000000;stroke-width:0.6;" x="241.355769" xlink:href="#m94f803ce1b" y="172.8"/>
      </g>
     </g>
    </g>
    <g id="xtick_27">
     <g id="line2d_27">
      <g>
       <use style="stroke:#000000;stroke-width:0.6;" x="252.311538" xlink:href="#m94f803ce1b" y="172.8"/>
      </g>
     </g>
    </g>
    <g id="xtick_28">
     <g id="line2d_28">
      <g>
       <use style="stroke:#000000;stroke-width:0.6;" x="263.267308" xlink:href="#m94f803ce1b" y="172.8"/>
      </g>
     </g>
    </g>
    <g id="xtick_29">
     <g id="line2d_29">
      <g>
       <use style="stroke:#000000;stroke-width:0.6;" x="274.223077" xlink:href="#m94f803ce1b" y="172.8"/>
      </g>
     </g>
    </g>
    <g id="xtick_30">
     <g id="line2d_30">
      <g>
       <use style="stroke:#000000;stroke-width:0.6;" x="296.134615" xlink:href="#m94f803ce1b" y="172.8"/>
      </g>
     </g>
    </g>
    <g id="xtick_31">
     <g id="line2d_31">
      <g>
       <use style="stroke:#000000;stroke-width:0.6;" x="307.090385" xlink:href="#m94f803ce1b" y="172.8"/>
      </g>
     </g>
    </g>
    <g id="xtick_32">
     <g id="line2d_32">
      <g>
       <use style="stroke:#000000;stroke-width:0.6;" x="318.046154" xlink:href="#m94f803ce1b" y="172.8"/>
      </g>
     </g>
    </g>
    <g id="xtick_33">
     <g id="line2d_33">
      <g>
       <use style="stroke:#000000;stroke-width:0.6;" x="329.001923" xlink:href="#m94f803ce1b" y="172.8"/>
      </g>
     </g>
    </g>
    <g id="xtick_34">
     <g id="line2d_34">
      <g>
       <use style="stroke:#000000;stroke-width:0.6;" x="350.913462" xlink:href="#m94f803ce1b" y="172.8"/>
      </g>
     </g>
    </g>
    <g id="xtick_35">
     <g id="line2d_35">
      <g>
       <use style="stroke:#000000;stroke-width:0.6;" x="361.869231" xlink:href="#m94f803ce1b" y="172.8"/>
      </g>
     </g>
    </g>
    <g id="xtick_36">
     <g id="line2d_36">
      <g>
       <use style="stroke:#000000;stroke-width:0.6;" x="372.825" xlink:href="#m94f803ce1b" y="172.8"/>
      </g>
     </g>
    </g>
    <g id="xtick_37">
     <g id="line2d_37">
      <g>
       <use style="stroke:#000000;stroke-width:0.6;" x="383.780769" xlink:href="#m94f803ce1b" y="172.8"/>
      </g>
     </g>
    </g>
    <g id="xtick_38">
     <g id="line2d_38">
      <g>
       <use style="stroke:#000000;stroke-width:0.6;" x="405.692308" xlink:href="#m94f803ce1b" y="172.8"/>
      </g>
     </g>
    </g>
    <g id="xtick_39">
     <g id="line2d_39">
      <g>
       <use style="stroke:#000000;stroke-width:0.6;" x="416.648077" xlink:href="#m94f803ce1b" y="172.8"/>
      </g>
     </g>
    </g>
    <g id="xtick_40">
     <g id="line2d_40">
      <g>
       <use style="stroke:#000000;stroke-width:0.6;" x="427.603846" xlink:href="#m94f803ce1b" y="172.8"/>
      </g>
     </g>
    </g>
    <g id="xtick_41">
     <g id="line2d_41">
      <g>
       <use style="stroke:#000000;stroke-width:0.6;" x="438.559615" xlink:href="#m94f803ce1b" y="172.8"/>
      </g>
     </g>
    </g>
   </g>
   <g id="matplotlib.axis_2">
    <g id="ytick_1">
     <g id="line2d_42">
      <defs>
       <path d="M 0 0 
L -3.5 0 
" id="m7978cce53f" style="stroke:#000000;stroke-width:0.8;"/>
      </defs>
      <g>
       <use style="stroke:#000000;stroke-width:0.8;" x="230.4" xlink:href="#m7978cce53f" y="329.151368"/>
      </g>
     </g>
     <g id="text_9">
      <!-- -3 -->
      <g transform="translate(213.429688 332.950586)scale(0.1 -0.1)">
       <use xlink:href="#DejaVuSans-2d"/>
       <use x="36.083984" xlink:href="#DejaVuSans-33"/>
      </g>
     </g>
    </g>
    <g id="ytick_2">
     <g id="line2d_43">
      <g>
       <use style="stroke:#000000;stroke-width:0.8;" x="230.4" xlink:href="#m7978cce53f" y="277.034245"/>
      </g>
     </g>
     <g id="text_10">
      <!-- -2 -->
      <g transform="translate(213.429688 280.833464)scale(0.1 -0.1)">
       <use xlink:href="#DejaVuSans-2d"/>
       <use x="36.083984" xlink:href="#DejaVuSans-32"/>
      </g>
     </g>
    </g>
    <g id="ytick_3">
     <g id="line2d_44">
      <g>
       <use style="stroke:#000000;stroke-width:0.8;" x="230.4" xlink:href="#m7978cce53f" y="224.917123"/>
      </g>
     </g>
     <g id="text_11">
      <!-- -1 -->
      <g transform="translate(213.429688 228.716341)scale(0.1 -0.1)">
       <use xlink:href="#DejaVuSans-2d"/>
       <use x="36.083984" xlink:href="#DejaVuSans-31"/>
      </g>
     </g>
    </g>
    <g id="ytick_4">
     <g id="line2d_45">
      <g>
       <use style="stroke:#000000;stroke-width:0.8;" x="230.4" xlink:href="#m7978cce53f" y="172.8"/>
      </g>
     </g>
    </g>
    <g id="ytick_5">
     <g id="line2d_46">
      <g>
       <use style="stroke:#000000;stroke-width:0.8;" x="230.4" xlink:href="#m7978cce53f" y="120.682877"/>
      </g>
     </g>
     <g id="text_12">
      <!-- 1 -->
      <g transform="translate(217.0375 124.482096)scale(0.1 -0.1)">
       <use xlink:href="#DejaVuSans-31"/>
      </g>
     </g>
    </g>
    <g id="ytick_6">
     <g id="line2d_47">
      <g>
       <use style="stroke:#000000;stroke-width:0.8;" x="230.4" xlink:href="#m7978cce53f" y="68.565755"/>
      </g>
     </g>
     <g id="text_13">
      <!-- 2 -->
      <g transform="translate(217.0375 72.364974)scale(0.1 -0.1)">
       <use xlink:href="#DejaVuSans-32"/>
      </g>
     </g>
    </g>
    <g id="ytick_7">
     <g id="line2d_48">
      <g>
       <use style="stroke:#000000;stroke-width:0.8;" x="230.4" xlink:href="#m7978cce53f" y="16.448632"/>
      </g>
     </g>
     <g id="text_14">
      <!-- 3 -->
      <g transform="translate(217.0375 20.247851)scale(0.1 -0.1)">
       <use xlink:href="#DejaVuSans-33"/>
      </g>
     </g>
    </g>
    <g id="ytick_8">
     <g id="line2d_49">
      <defs>
       <path d="M 0 0 
L -2 0 
" id="m06d285e213" style="stroke:#000000;stroke-width:0.6;"/>
      </defs>
      <g>
       <use style="stroke:#000000;stroke-width:0.6;" x="230.4" xlink:href="#m06d285e213" y="339.574792"/>
      </g>
     </g>
    </g>
    <g id="ytick_9">
     <g id="line2d_50">
      <g>
       <use style="stroke:#000000;stroke-width:0.6;" x="230.4" xlink:href="#m06d285e213" y="318.727943"/>
      </g>
     </g>
    </g>
    <g id="ytick_10">
     <g id="line2d_51">
      <g>
       <use style="stroke:#000000;stroke-width:0.6;" x="230.4" xlink:href="#m06d285e213" y="308.304519"/>
      </g>
     </g>
    </g>
    <g id="ytick_11">
     <g id="line2d_52">
      <g>
       <use style="stroke:#000000;stroke-width:0.6;" x="230.4" xlink:href="#m06d285e213" y="297.881094"/>
      </g>
     </g>
    </g>
    <g id="ytick_12">
     <g id="line2d_53">
      <g>
       <use style="stroke:#000000;stroke-width:0.6;" x="230.4" xlink:href="#m06d285e213" y="287.45767"/>
      </g>
     </g>
    </g>
    <g id="ytick_13">
     <g id="line2d_54">
      <g>
       <use style="stroke:#000000;stroke-width:0.6;" x="230.4" xlink:href="#m06d285e213" y="266.610821"/>
      </g>
     </g>
    </g>
    <g id="ytick_14">
     <g id="line2d_55">
      <g>
       <use style="stroke:#000000;stroke-width:0.6;" x="230.4" xlink:href="#m06d285e213" y="256.187396"/>
      </g>
     </g>
    </g>
    <g id="ytick_15">
     <g id="line2d_56">
      <g>
       <use style="stroke:#000000;stroke-width:0.6;" x="230.4" xlink:href="#m06d285e213" y="245.763972"/>
      </g>
     </g>
    </g>
    <g id="ytick_16">
     <g id="line2d_57">
      <g>
       <use style="stroke:#000000;stroke-width:0.6;" x="230.4" xlink:href="#m06d285e213" y="235.340547"/>
      </g>
     </g>
    </g>
    <g id="ytick_17">
     <g id="line2d_58">
      <g>
       <use style="stroke:#000000;stroke-width:0.6;" x="230.4" xlink:href="#m06d285e213" y="214.493698"/>
      </g>
     </g>
    </g>
    <g id="ytick_18">
     <g id="line2d_59">
      <g>
       <use style="stroke:#000000;stroke-width:0.6;" x="230.4" xlink:href="#m06d285e213" y="204.070274"/>
      </g>
     </g>
    </g>
    <g id="ytick_19">
     <g id="line2d_60">
      <g>
       <use style="stroke:#000000;stroke-width:0.6;" x="230.4" xlink:href="#m06d285e213" y="193.646849"/>
      </g>
     </g>
    </g>
    <g id="ytick_20">
     <g id="line2d_61">
      <g>
       <use style="stroke:#000000;stroke-width:0.6;" x="230.4" xlink:href="#m06d285e213" y="183.223425"/>
      </g>
     </g>
    </g>
    <g id="ytick_21">
     <g id="line2d_62">
      <g>
       <use style="stroke:#000000;stroke-width:0.6;" x="230.4" xlink:href="#m06d285e213" y="162.376575"/>
      </g>
     </g>
    </g>
    <g id="ytick_22">
     <g id="line2d_63">
      <g>
       <use style="stroke:#000000;stroke-width:0.6;" x="230.4" xlink:href="#m06d285e213" y="151.953151"/>
      </g>
     </g>
    </g>
    <g id="ytick_23">
     <g id="line2d_64">
      <g>
       <use style="stroke:#000000;stroke-width:0.6;" x="230.4" xlink:href="#m06d285e213" y="141.529726"/>
      </g>
     </g>
    </g>
    <g id="ytick_24">
     <g id="line2d_65">
      <g>
       <use style="stroke:#000000;stroke-width:0.6;" x="230.4" xlink:href="#m06d285e213" y="131.106302"/>
      </g>
     </g>
    </g>
    <g id="ytick_25">
     <g id="line2d_66">
      <g>
       <use style="stroke:#000000;stroke-width:0.6;" x="230.4" xlink:href="#m06d285e213" y="110.259453"/>
      </g>
     </g>
    </g>
    <g id="ytick_26">
     <g id="line2d_67">
      <g>
       <use style="stroke:#000000;stroke-width:0.6;" x="230.4" xlink:href="#m06d285e213" y="99.836028"/>
      </g>
     </g>
    </g>
    <g id="ytick_27">
     <g id="line2d_68">
      <g>
       <use style="stroke:#000000;stroke-width:0.6;" x="230.4" xlink:href="#m06d285e213" y="89.412604"/>
      </g>
     </g>
    </g>
    <g id="ytick_28">
     <g id="line2d_69">
      <g>
       <use style="stroke:#000000;stroke-width:0.6;" x="230.4" xlink:href="#m06d285e213" y="78.989179"/>
      </g>
     </g>
    </g>
    <g id="ytick_29">
     <g id="line2d_70">
      <g>
       <use style="stroke:#000000;stroke-width:0.6;" x="230.4" xlink:href="#m06d285e213" y="58.14233"/>
      </g>
     </g>
    </g>
    <g id="ytick_30">
     <g id="line2d_71">
      <g>
       <use style="stroke:#000000;stroke-width:0.6;" x="230.4" xlink:href="#m06d285e213" y="47.718906"/>
      </g>
     </g>
    </g>
    <g id="ytick_31">
     <g id="line2d_72">
      <g>
       <use style="stroke:#000000;stroke-width:0.6;" x="230.4" xlink:href="#m06d285e213" y="37.295481"/>
      </g>
     </g>
    </g>
    <g id="ytick_32">
     <g id="line2d_73">
      <g>
       <use style="stroke:#000000;stroke-width:0.6;" x="230.4" xlink:href="#m06d285e213" y="26.872057"/>
      </g>
     </g>
    </g>
    <g id="ytick_33">
     <g id="line2d_74">
      <g>
       <use style="stroke:#000000;stroke-width:0.6;" x="230.4" xlink:href="#m06d285e213" y="6.025208"/>
      </g>
     </g>
    </g>
   </g>
   <g id="line2d_75">
    <path clip-path="url(#p2a76e9adb8)" d="M 11.284615 182.660592 
L 19.079912 181.668575 
L 28.019271 180.208365 
L 35.845829 178.649748 
L 43.982825 176.759212 
L 52.331289 174.545556 
L 61.162207 171.921186 
L 70.884108 168.726865 
L 81.104657 165.069436 
L 93.202536 160.422826 
L 107.978534 154.434915 
L 138.8831 141.759923 
L 149.063803 137.82949 
L 159.062979 134.214055 
L 165.828924 131.940822 
L 173.382558 129.59669 
L 180.946077 127.479448 
L 188.793764 125.551261 
L 195.922937 124.056202 
L 204.235737 122.642016 
L 211.395093 121.722129 
L 217.655795 121.151749 
L 224.177065 120.794902 
L 231.541923 120.686652 
L 237.895928 120.845375 
L 245.728466 121.360364 
L 252.021619 122.025631 
L 259.663934 123.126699 
L 268.017768 124.683646 
L 275.535396 126.382997 
L 282.60612 128.221681 
L 290.35398 130.482107 
L 299.646324 133.495377 
L 309.276723 136.914921 
L 318.53022 140.429146 
L 330.590426 145.249692 
L 375.140549 163.355376 
L 384.981404 166.99607 
L 395.789772 170.693023 
L 403.753139 173.17887 
L 412.734535 175.710389 
L 420.248644 177.589411 
L 426.904474 179.062302 
L 434.76782 180.562648 
L 439.747464 181.375957 
L 447.896661 182.476143 
L 449.515385 182.660592 
L 449.515385 182.660592 
" style="fill:none;stroke:#0000ff;stroke-linecap:square;"/>
   </g>
   <g id="line2d_76">
    <path clip-path="url(#p2a76e9adb8)" d="M 11.284615 36.535901 
L 14.453941 29.740575 
L 16.690518 25.383508 
L 19.473677 20.472017 
L 21.749066 16.878718 
L 24.017965 13.674307 
L 25.884855 11.32094 
L 28.50994 8.443074 
L 30.923991 6.239044 
L 33.649459 4.255743 
L 35.793924 3.067729 
L 37.773748 2.258569 
L 39.832463 1.706207 
L 42.07337 1.434814 
L 44.267953 1.496342 
L 46.716802 1.93926 
L 48.501614 2.505318 
L 50.078238 3.172243 
L 52.081462 4.240533 
L 54.084685 5.550019 
L 56.331891 7.29758 
L 58.685674 9.433234 
L 61.220951 12.069071 
L 63.735462 15.011653 
L 66.284056 18.311081 
L 69.722469 23.23711 
L 73.285908 28.873668 
L 76.129321 33.725211 
L 79.504961 39.852525 
L 84.076867 48.709098 
L 89.473791 59.843472 
L 96.316241 74.727728 
L 108.480626 102.152469 
L 115.95572 118.848369 
L 122.423486 132.763028 
L 126.750498 141.653419 
L 131.123224 150.208576 
L 135.122931 157.597377 
L 139.012355 164.335614 
L 142.682872 170.255077 
L 145.426395 174.383186 
L 148.981181 179.336086 
L 152.227778 183.454088 
L 156.186587 187.933837 
L 159.877984 191.561386 
L 162.736523 194.000274 
L 165.588457 196.109054 
L 168.732277 198.05754 
L 170.582595 199.020478 
L 173.444748 200.243531 
L 175.578213 200.946662 
L 178.556987 201.634924 
L 181.06544 201.954184 
L 184.076068 202.031098 
L 186.449886 201.862845 
L 188.602149 201.541349 
L 191.30117 200.918989 
L 194.624564 199.832631 
L 198.039658 198.370181 
L 201.890641 196.332801 
L 204.7467 194.579012 
L 208.16106 192.23853 
L 210.695397 190.3473 
L 216.39902 185.687933 
L 220.772364 181.818717 
L 226.065156 176.911306 
L 239.45027 164.306735 
L 245.099204 159.315515 
L 249.673623 155.586244 
L 253.972526 152.417517 
L 258.223659 149.670233 
L 261.189951 148.013009 
L 264.166447 146.586797 
L 267.381118 145.333623 
L 270.635027 144.389876 
L 274.173045 143.757611 
L 276.759969 143.567885 
L 279.42943 143.622948 
L 280.90825 143.765924 
L 284.529851 144.463159 
L 286.353181 145.004177 
L 289.867869 146.412853 
L 292.706239 147.906323 
L 295.439511 149.64757 
L 297.982383 151.53528 
L 300.977526 154.089186 
L 304.497561 157.544192 
L 306.832363 160.102847 
L 309.88598 163.764778 
L 312.412638 167.059439 
L 315.468693 171.35551 
L 318.936586 176.627876 
L 323.073071 183.440038 
L 326.574508 189.621525 
L 330.465856 196.900166 
L 334.951673 205.767721 
L 339.873066 215.996884 
L 345.504269 228.204857 
L 355.353456 250.314398 
L 366.604199 275.555682 
L 372.646332 288.538475 
L 377.634841 298.703509 
L 381.862912 306.804385 
L 386.272373 314.644448 
L 388.525411 318.378071 
L 392.271668 324.133125 
L 395.086564 328.054485 
L 397.692303 331.352729 
L 400.09791 334.097952 
L 402.446393 336.486538 
L 404.870982 338.636971 
L 406.894857 340.177011 
L 408.403208 341.169164 
L 411.229834 342.659578 
L 413.766985 343.575251 
L 415.580438 343.977948 
L 417.393892 344.166033 
L 419.334413 344.125227 
L 420.651567 343.952753 
L 422.045159 343.641165 
L 423.513308 343.167792 
L 424.981458 342.544021 
L 427.487079 341.128155 
L 429.624645 339.566215 
L 431.542454 337.884657 
L 433.320764 336.086933 
L 435.131481 334.019432 
L 437.584576 330.835457 
L 440.206481 326.943955 
L 443.054309 322.145333 
L 445.889104 316.779219 
L 448.509426 311.299455 
L 449.515385 309.064099 
L 449.515385 309.064099 
" style="fill:none;stroke:#ff0000;stroke-linecap:square;"/>
   </g>
   <g id="line2d_77">
    <path clip-path="url(#p2a76e9adb8)" d="M 11.284615 233.142314 
L 14.143024 227.134652 
L 16.642835 222.393539 
L 19.032996 218.23059 
L 21.886173 213.65689 
L 24.837406 209.303125 
L 27.604974 205.509345 
L 31.013084 201.154062 
L 34.449115 197.051996 
L 38.80837 192.176723 
L 44.970037 185.745909 
L 51.509746 179.300543 
L 72.545361 158.940122 
L 78.650636 152.503243 
L 81.991008 148.749371 
L 86.677794 143.104057 
L 90.014513 138.742006 
L 93.539687 133.738524 
L 95.971316 129.99859 
L 98.690474 125.47874 
L 100.642809 121.975057 
L 103.632247 116.107911 
L 105.911383 111.146308 
L 107.80667 106.633107 
L 109.765015 101.533117 
L 112.372945 93.91032 
L 114.293188 87.557656 
L 116.232048 80.358496 
L 118.302225 71.601202 
L 120.326864 61.696798 
L 122.120391 51.521846 
L 123.623096 41.722267 
L 125.280146 29.218202 
L 126.765693 16.093722 
L 128.208104 1.125824 
L 128.39325 -1 
M 144.340611 -1 
L 144.34065 346.6 
M 160.312761 346.6 
L 161.366187 335.181545 
L 162.754573 322.070174 
L 164.282002 309.682062 
L 165.809432 298.985014 
L 167.675472 287.72644 
L 169.513841 278.175529 
L 171.308196 270.02616 
L 173.102986 262.814082 
L 174.744901 256.896597 
L 176.91179 249.909492 
L 179.16985 243.44871 
L 181.168415 238.30527 
L 183.805777 232.197013 
L 186.258029 227.090623 
L 188.529523 222.768585 
L 191.803539 217.107896 
L 194.739206 212.501611 
L 198.141031 207.611941 
L 201.395988 203.299543 
L 204.725257 199.188421 
L 208.622346 194.684773 
L 212.500933 190.462451 
L 218.829073 183.975397 
L 225.163858 177.796945 
L 243.561039 160.031834 
L 248.157288 155.2878 
L 253.035352 149.948885 
L 256.367453 146.060744 
L 260.873719 140.392878 
L 263.533925 136.771123 
L 267.358288 131.111361 
L 270.154509 126.558961 
L 273.199573 121.106682 
L 275.791889 115.968927 
L 278.03357 111.079226 
L 280.370161 105.450599 
L 282.527685 99.672939 
L 284.224534 94.660705 
L 285.958118 89.034967 
L 287.881832 82.081442 
L 289.610782 75.064633 
L 291.681968 65.479978 
L 293.558878 55.407653 
L 295.226436 45.058846 
L 296.806387 33.720466 
L 298.396397 20.399219 
L 299.936029 5.151625 
L 300.486873 -1 
M 316.432031 -1 
L 316.432126 346.6 
M 332.40681 346.6 
L 333.74143 332.349872 
L 335.221651 318.856007 
L 336.773306 306.743799 
L 338.377024 295.94901 
L 339.980742 286.551477 
L 341.369524 279.33362 
L 343.229975 270.759501 
L 344.820472 264.25347 
L 346.899903 256.683793 
L 348.961607 250.04012 
L 351.195667 243.629901 
L 353.818252 236.955331 
L 356.541323 230.809749 
L 358.72465 226.354291 
L 361.498247 221.193208 
L 364.71505 215.782749 
L 367.768547 211.111506 
L 371.239514 206.244866 
L 374.767584 201.687962 
L 379.306275 196.279133 
L 382.549486 192.659576 
L 389.206477 185.694608 
L 395.910094 179.093191 
L 416.753986 158.916706 
L 420.412628 155.115547 
L 426.438669 148.446324 
L 430.656029 143.364888 
L 433.306169 139.943073 
L 437.097744 134.663125 
L 439.686141 130.743406 
L 442.481298 126.159611 
L 445.179584 121.319166 
L 447.552558 116.656168 
L 449.515385 112.457686 
L 449.515385 112.457686 
" style="fill:none;stroke:#008000;stroke-linecap:square;"/>
   </g>
   <g id="patch_3">
    <path d="M 230.4 343.08 
L 230.4 2.52 
" style="fill:none;stroke:#000000;stroke-linecap:square;stroke-linejoin:miter;stroke-width:0.8;"/>
   </g>
   <g id="patch_4">
    <path d="M 2.52 172.8 
L 458.28 172.8 
" style="fill:none;stroke:#000000;stroke-linecap:square;stroke-linejoin:miter;stroke-width:0.8;"/>
   </g>
  </g>
 </g>
 <defs>
  <clipPath id="p2a76e9adb8">
   <rect height="340.56" width="455.76" x="2.52" y="2.52"/>
  </clipPath>
 </defs>
</svg>
