<?xml version="1.0" encoding="utf-8" standalone="no"?>
<!DOCTYPE svg PUBLIC "-//W3C//DTD SVG 1.1//EN"
  "http://www.w3.org/Graphics/SVG/1.1/DTD/svg11.dtd">
<!-- Created with matplotlib (https://matplotlib.org/) -->
<svg height="345.6pt" version="1.1" viewBox="0 0 460.8 345.6" width="460.8pt" xmlns="http://www.w3.org/2000/svg" xmlns:xlink="http://www.w3.org/1999/xlink">
 <metadata>
  <rdf:RDF xmlns:cc="http://creativecommons.org/ns#" xmlns:dc="http://purl.org/dc/elements/1.1/" xmlns:rdf="http://www.w3.org/1999/02/22-rdf-syntax-ns#">
   <cc:Work>
    <dc:type rdf:resource="http://purl.org/dc/dcmitype/StillImage"/>
    <dc:date>2021-08-24T12:30:57.607339</dc:date>
    <dc:format>image/svg+xml</dc:format>
    <dc:creator>
     <cc:Agent>
      <dc:title>Matplotlib v3.3.4, https://matplotlib.org/</dc:title>
     </cc:Agent>
    </dc:creator>
   </cc:Work>
  </rdf:RDF>
 </metadata>
 <defs>
  <style type="text/css">*{stroke-linecap:butt;stroke-linejoin:round;}</style>
 </defs>
 <g id="figure_1">
  <g id="patch_1">
   <path d="M 0 345.6 
L 460.8 345.6 
L 460.8 0 
L 0 0 
z
" style="fill:#ffffff;"/>
  </g>
  <g id="axes_1">
   <g id="patch_2">
    <path d="M 0 345.6 
L 460.8 345.6 
L 460.8 0 
L 0 0 
z
" style="fill:#ffffff;"/>
   </g>
   <g id="PathCollection_1">
    <defs>
     <path d="M 0 2.738613 
C 0.726289 2.738613 1.422928 2.450055 1.936492 1.936492 
C 2.450055 1.422928 2.738613 0.726289 2.738613 -0 
C 2.738613 -0.726289 2.450055 -1.422928 1.936492 -1.936492 
C 1.422928 -2.450055 0.726289 -2.738613 0 -2.738613 
C -0.726289 -2.738613 -1.422928 -2.450055 -1.936492 -1.936492 
C -2.450055 -1.422928 -2.738613 -0.726289 -2.738613 0 
C -2.738613 0.726289 -2.450055 1.422928 -1.936492 1.936492 
C -1.422928 2.450055 -0.726289 2.738613 0 2.738613 
z
" id="C0_0_062ed981af"/>
    </defs>
    <g clip-path="url(#p56e7908000)">
     <use style="fill:#33991a;" x="8.861538" xlink:href="#C0_0_062ed981af" y="245.944774"/>
    </g>
    <g clip-path="url(#p56e7908000)">
     <use style="fill:#33991a;" x="12.584874" xlink:href="#C0_0_062ed981af" y="288.186896"/>
    </g>
    <g clip-path="url(#p56e7908000)">
     <use style="fill:#33991a;" x="16.308209" xlink:href="#C0_0_062ed981af" y="318.537963"/>
    </g>
    <g clip-path="url(#p56e7908000)">
     <use style="fill:#33991a;" x="20.031545" xlink:href="#C0_0_062ed981af" y="335.385462"/>
    </g>
    <g clip-path="url(#p56e7908000)">
     <use style="fill:#33991a;" x="23.75488" xlink:href="#C0_0_062ed981af" y="338.453929"/>
    </g>
    <g clip-path="url(#p56e7908000)">
     <use style="fill:#33991a;" x="27.478216" xlink:href="#C0_0_062ed981af" y="328.647582"/>
    </g>
    <g clip-path="url(#p56e7908000)">
     <use style="fill:#33991a;" x="31.201551" xlink:href="#C0_0_062ed981af" y="307.8103"/>
    </g>
    <g clip-path="url(#p56e7908000)">
     <use style="fill:#33991a;" x="34.924887" xlink:href="#C0_0_062ed981af" y="278.440506"/>
    </g>
    <g clip-path="url(#p56e7908000)">
     <use style="fill:#33991a;" x="38.648222" xlink:href="#C0_0_062ed981af" y="243.395513"/>
    </g>
    <g clip-path="url(#p56e7908000)">
     <use style="fill:#33991a;" x="42.371558" xlink:href="#C0_0_062ed981af" y="205.613993"/>
    </g>
    <g clip-path="url(#p56e7908000)">
     <use style="fill:#33991a;" x="46.094893" xlink:href="#C0_0_062ed981af" y="167.877789"/>
    </g>
    <g clip-path="url(#p56e7908000)">
     <use style="fill:#33991a;" x="49.818229" xlink:href="#C0_0_062ed981af" y="132.626331"/>
    </g>
    <g clip-path="url(#p56e7908000)">
     <use style="fill:#33991a;" x="53.541564" xlink:href="#C0_0_062ed981af" y="101.829467"/>
    </g>
    <g clip-path="url(#p56e7908000)">
     <use style="fill:#33991a;" x="57.2649" xlink:href="#C0_0_062ed981af" y="76.91817"/>
    </g>
    <g clip-path="url(#p56e7908000)">
     <use style="fill:#33991a;" x="60.988235" xlink:href="#C0_0_062ed981af" y="58.767631"/>
    </g>
    <g clip-path="url(#p56e7908000)">
     <use style="fill:#33991a;" x="64.711571" xlink:href="#C0_0_062ed981af" y="47.724011"/>
    </g>
    <g clip-path="url(#p56e7908000)">
     <use style="fill:#33991a;" x="68.434906" xlink:href="#C0_0_062ed981af" y="43.664259"/>
    </g>
    <g clip-path="url(#p56e7908000)">
     <use style="fill:#33991a;" x="72.158242" xlink:href="#C0_0_062ed981af" y="46.078007"/>
    </g>
    <g clip-path="url(#p56e7908000)">
     <use style="fill:#33991a;" x="75.881577" xlink:href="#C0_0_062ed981af" y="54.16111"/>
    </g>
    <g clip-path="url(#p56e7908000)">
     <use style="fill:#33991a;" x="79.604913" xlink:href="#C0_0_062ed981af" y="66.91174"/>
    </g>
    <g clip-path="url(#p56e7908000)">
     <use style="fill:#33991a;" x="83.328248" xlink:href="#C0_0_062ed981af" y="83.2217"/>
    </g>
    <g clip-path="url(#p56e7908000)">
     <use style="fill:#33991a;" x="87.051584" xlink:href="#C0_0_062ed981af" y="101.9576"/>
    </g>
    <g clip-path="url(#p56e7908000)">
     <use style="fill:#33991a;" x="90.774919" xlink:href="#C0_0_062ed981af" y="122.02846"/>
    </g>
    <g clip-path="url(#p56e7908000)">
     <use style="fill:#33991a;" x="94.498255" xlink:href="#C0_0_062ed981af" y="142.438013"/>
    </g>
    <g clip-path="url(#p56e7908000)">
     <use style="fill:#33991a;" x="98.22159" xlink:href="#C0_0_062ed981af" y="162.32149"/>
    </g>
    <g clip-path="url(#p56e7908000)">
     <use style="fill:#33991a;" x="101.944926" xlink:href="#C0_0_062ed981af" y="180.967772"/>
    </g>
    <g clip-path="url(#p56e7908000)">
     <use style="fill:#33991a;" x="105.668261" xlink:href="#C0_0_062ed981af" y="197.82859"/>
    </g>
    <g clip-path="url(#p56e7908000)">
     <use style="fill:#33991a;" x="109.391597" xlink:href="#C0_0_062ed981af" y="212.516951"/>
    </g>
    <g clip-path="url(#p56e7908000)">
     <use style="fill:#33991a;" x="113.114932" xlink:href="#C0_0_062ed981af" y="224.797171"/>
    </g>
    <g clip-path="url(#p56e7908000)">
     <use style="fill:#33991a;" x="116.838268" xlink:href="#C0_0_062ed981af" y="234.568895"/>
    </g>
    <g clip-path="url(#p56e7908000)">
     <use style="fill:#33991a;" x="120.561603" xlink:href="#C0_0_062ed981af" y="241.847309"/>
    </g>
    <g clip-path="url(#p56e7908000)">
     <use style="fill:#33991a;" x="124.284939" xlink:href="#C0_0_062ed981af" y="246.741487"/>
    </g>
    <g clip-path="url(#p56e7908000)">
     <use style="fill:#33991a;" x="128.008274" xlink:href="#C0_0_062ed981af" y="249.432464"/>
    </g>
    <g clip-path="url(#p56e7908000)">
     <use style="fill:#33991a;" x="131.73161" xlink:href="#C0_0_062ed981af" y="250.152285"/>
    </g>
    <g clip-path="url(#p56e7908000)">
     <use style="fill:#33991a;" x="135.454945" xlink:href="#C0_0_062ed981af" y="249.16492"/>
    </g>
    <g clip-path="url(#p56e7908000)">
     <use style="fill:#33991a;" x="139.178281" xlink:href="#C0_0_062ed981af" y="246.749616"/>
    </g>
    <g clip-path="url(#p56e7908000)">
     <use style="fill:#33991a;" x="142.901616" xlink:href="#C0_0_062ed981af" y="243.186997"/>
    </g>
    <g clip-path="url(#p56e7908000)">
     <use style="fill:#33991a;" x="146.624952" xlink:href="#C0_0_062ed981af" y="238.747987"/>
    </g>
    <g clip-path="url(#p56e7908000)">
     <use style="fill:#33991a;" x="150.348287" xlink:href="#C0_0_062ed981af" y="233.685464"/>
    </g>
    <g clip-path="url(#p56e7908000)">
     <use style="fill:#33991a;" x="154.071622" xlink:href="#C0_0_062ed981af" y="228.228417"/>
    </g>
    <g clip-path="url(#p56e7908000)">
     <use style="fill:#33991a;" x="157.794958" xlink:href="#C0_0_062ed981af" y="222.578324"/>
    </g>
    <g clip-path="url(#p56e7908000)">
     <use style="fill:#33991a;" x="161.518293" xlink:href="#C0_0_062ed981af" y="216.907407"/>
    </g>
    <g clip-path="url(#p56e7908000)">
     <use style="fill:#33991a;" x="165.241629" xlink:href="#C0_0_062ed981af" y="211.358405"/>
    </g>
    <g clip-path="url(#p56e7908000)">
     <use style="fill:#33991a;" x="168.964964" xlink:href="#C0_0_062ed981af" y="206.045529"/>
    </g>
    <g clip-path="url(#p56e7908000)">
     <use style="fill:#33991a;" x="172.6883" xlink:href="#C0_0_062ed981af" y="201.056282"/>
    </g>
    <g clip-path="url(#p56e7908000)">
     <use style="fill:#33991a;" x="176.411635" xlink:href="#C0_0_062ed981af" y="196.453854"/>
    </g>
    <g clip-path="url(#p56e7908000)">
     <use style="fill:#33991a;" x="180.134971" xlink:href="#C0_0_062ed981af" y="192.279865"/>
    </g>
    <g clip-path="url(#p56e7908000)">
     <use style="fill:#33991a;" x="183.858306" xlink:href="#C0_0_062ed981af" y="188.557247"/>
    </g>
    <g clip-path="url(#p56e7908000)">
     <use style="fill:#33991a;" x="187.581642" xlink:href="#C0_0_062ed981af" y="185.293112"/>
    </g>
    <g clip-path="url(#p56e7908000)">
     <use style="fill:#33991a;" x="191.304977" xlink:href="#C0_0_062ed981af" y="182.481492"/>
    </g>
    <g clip-path="url(#p56e7908000)">
     <use style="fill:#33991a;" x="195.028313" xlink:href="#C0_0_062ed981af" y="180.105866"/>
    </g>
    <g clip-path="url(#p56e7908000)">
     <use style="fill:#33991a;" x="198.751648" xlink:href="#C0_0_062ed981af" y="178.141416"/>
    </g>
    <g clip-path="url(#p56e7908000)">
     <use style="fill:#33991a;" x="202.474984" xlink:href="#C0_0_062ed981af" y="176.55699"/>
    </g>
    <g clip-path="url(#p56e7908000)">
     <use style="fill:#33991a;" x="206.198319" xlink:href="#C0_0_062ed981af" y="175.31676"/>
    </g>
    <g clip-path="url(#p56e7908000)">
     <use style="fill:#33991a;" x="209.921655" xlink:href="#C0_0_062ed981af" y="174.381575"/>
    </g>
    <g clip-path="url(#p56e7908000)">
     <use style="fill:#33991a;" x="213.64499" xlink:href="#C0_0_062ed981af" y="173.710038"/>
    </g>
    <g clip-path="url(#p56e7908000)">
     <use style="fill:#33991a;" x="217.368326" xlink:href="#C0_0_062ed981af" y="173.25932"/>
    </g>
    <g clip-path="url(#p56e7908000)">
     <use style="fill:#33991a;" x="221.091661" xlink:href="#C0_0_062ed981af" y="172.985755"/>
    </g>
    <g clip-path="url(#p56e7908000)">
     <use style="fill:#33991a;" x="224.814997" xlink:href="#C0_0_062ed981af" y="172.845235"/>
    </g>
    <g clip-path="url(#p56e7908000)">
     <use style="fill:#33991a;" x="228.538332" xlink:href="#C0_0_062ed981af" y="172.79346"/>
    </g>
    <g clip-path="url(#p56e7908000)">
     <use style="fill:#33991a;" x="232.261668" xlink:href="#C0_0_062ed981af" y="172.786064"/>
    </g>
    <g clip-path="url(#p56e7908000)">
     <use style="fill:#33991a;" x="235.985003" xlink:href="#C0_0_062ed981af" y="172.778667"/>
    </g>
    <g clip-path="url(#p56e7908000)">
     <use style="fill:#33991a;" x="239.708339" xlink:href="#C0_0_062ed981af" y="172.726892"/>
    </g>
    <g clip-path="url(#p56e7908000)">
     <use style="fill:#33991a;" x="243.431674" xlink:href="#C0_0_062ed981af" y="172.586372"/>
    </g>
    <g clip-path="url(#p56e7908000)">
     <use style="fill:#33991a;" x="247.15501" xlink:href="#C0_0_062ed981af" y="172.312807"/>
    </g>
    <g clip-path="url(#p56e7908000)">
     <use style="fill:#33991a;" x="250.878345" xlink:href="#C0_0_062ed981af" y="171.862089"/>
    </g>
    <g clip-path="url(#p56e7908000)">
     <use style="fill:#33991a;" x="254.601681" xlink:href="#C0_0_062ed981af" y="171.190552"/>
    </g>
    <g clip-path="url(#p56e7908000)">
     <use style="fill:#33991a;" x="258.325016" xlink:href="#C0_0_062ed981af" y="170.255367"/>
    </g>
    <g clip-path="url(#p56e7908000)">
     <use style="fill:#33991a;" x="262.048352" xlink:href="#C0_0_062ed981af" y="169.015137"/>
    </g>
    <g clip-path="url(#p56e7908000)">
     <use style="fill:#33991a;" x="265.771687" xlink:href="#C0_0_062ed981af" y="167.430711"/>
    </g>
    <g clip-path="url(#p56e7908000)">
     <use style="fill:#33991a;" x="269.495023" xlink:href="#C0_0_062ed981af" y="165.466261"/>
    </g>
    <g clip-path="url(#p56e7908000)">
     <use style="fill:#33991a;" x="273.218358" xlink:href="#C0_0_062ed981af" y="163.090635"/>
    </g>
    <g clip-path="url(#p56e7908000)">
     <use style="fill:#33991a;" x="276.941694" xlink:href="#C0_0_062ed981af" y="160.279015"/>
    </g>
    <g clip-path="url(#p56e7908000)">
     <use style="fill:#33991a;" x="280.665029" xlink:href="#C0_0_062ed981af" y="157.01488"/>
    </g>
    <g clip-path="url(#p56e7908000)">
     <use style="fill:#33991a;" x="284.388365" xlink:href="#C0_0_062ed981af" y="153.292262"/>
    </g>
    <g clip-path="url(#p56e7908000)">
     <use style="fill:#33991a;" x="288.1117" xlink:href="#C0_0_062ed981af" y="149.118273"/>
    </g>
    <g clip-path="url(#p56e7908000)">
     <use style="fill:#33991a;" x="291.835036" xlink:href="#C0_0_062ed981af" y="144.515845"/>
    </g>
    <g clip-path="url(#p56e7908000)">
     <use style="fill:#33991a;" x="295.558371" xlink:href="#C0_0_062ed981af" y="139.526598"/>
    </g>
    <g clip-path="url(#p56e7908000)">
     <use style="fill:#33991a;" x="299.281707" xlink:href="#C0_0_062ed981af" y="134.213722"/>
    </g>
    <g clip-path="url(#p56e7908000)">
     <use style="fill:#33991a;" x="303.005042" xlink:href="#C0_0_062ed981af" y="128.66472"/>
    </g>
    <g clip-path="url(#p56e7908000)">
     <use style="fill:#33991a;" x="306.728378" xlink:href="#C0_0_062ed981af" y="122.993803"/>
    </g>
    <g clip-path="url(#p56e7908000)">
     <use style="fill:#33991a;" x="310.451713" xlink:href="#C0_0_062ed981af" y="117.34371"/>
    </g>
    <g clip-path="url(#p56e7908000)">
     <use style="fill:#33991a;" x="314.175048" xlink:href="#C0_0_062ed981af" y="111.886663"/>
    </g>
    <g clip-path="url(#p56e7908000)">
     <use style="fill:#33991a;" x="317.898384" xlink:href="#C0_0_062ed981af" y="106.82414"/>
    </g>
    <g clip-path="url(#p56e7908000)">
     <use style="fill:#33991a;" x="321.621719" xlink:href="#C0_0_062ed981af" y="102.38513"/>
    </g>
    <g clip-path="url(#p56e7908000)">
     <use style="fill:#33991a;" x="325.345055" xlink:href="#C0_0_062ed981af" y="98.822511"/>
    </g>
    <g clip-path="url(#p56e7908000)">
     <use style="fill:#33991a;" x="329.06839" xlink:href="#C0_0_062ed981af" y="96.407207"/>
    </g>
    <g clip-path="url(#p56e7908000)">
     <use style="fill:#33991a;" x="332.791726" xlink:href="#C0_0_062ed981af" y="95.419842"/>
    </g>
    <g clip-path="url(#p56e7908000)">
     <use style="fill:#33991a;" x="336.515061" xlink:href="#C0_0_062ed981af" y="96.139663"/>
    </g>
    <g clip-path="url(#p56e7908000)">
     <use style="fill:#33991a;" x="340.238397" xlink:href="#C0_0_062ed981af" y="98.83064"/>
    </g>
    <g clip-path="url(#p56e7908000)">
     <use style="fill:#33991a;" x="343.961732" xlink:href="#C0_0_062ed981af" y="103.724818"/>
    </g>
    <g clip-path="url(#p56e7908000)">
     <use style="fill:#33991a;" x="347.685068" xlink:href="#C0_0_062ed981af" y="111.003232"/>
    </g>
    <g clip-path="url(#p56e7908000)">
     <use style="fill:#33991a;" x="351.408403" xlink:href="#C0_0_062ed981af" y="120.774956"/>
    </g>
    <g clip-path="url(#p56e7908000)">
     <use style="fill:#33991a;" x="355.131739" xlink:href="#C0_0_062ed981af" y="133.055176"/>
    </g>
    <g clip-path="url(#p56e7908000)">
     <use style="fill:#33991a;" x="358.855074" xlink:href="#C0_0_062ed981af" y="147.743537"/>
    </g>
    <g clip-path="url(#p56e7908000)">
     <use style="fill:#33991a;" x="362.57841" xlink:href="#C0_0_062ed981af" y="164.604355"/>
    </g>
    <g clip-path="url(#p56e7908000)">
     <use style="fill:#33991a;" x="366.301745" xlink:href="#C0_0_062ed981af" y="183.250637"/>
    </g>
    <g clip-path="url(#p56e7908000)">
     <use style="fill:#33991a;" x="370.025081" xlink:href="#C0_0_062ed981af" y="203.134114"/>
    </g>
    <g clip-path="url(#p56e7908000)">
     <use style="fill:#33991a;" x="373.748416" xlink:href="#C0_0_062ed981af" y="223.543667"/>
    </g>
    <g clip-path="url(#p56e7908000)">
     <use style="fill:#33991a;" x="377.471752" xlink:href="#C0_0_062ed981af" y="243.614527"/>
    </g>
    <g clip-path="url(#p56e7908000)">
     <use style="fill:#33991a;" x="381.195087" xlink:href="#C0_0_062ed981af" y="262.350427"/>
    </g>
    <g clip-path="url(#p56e7908000)">
     <use style="fill:#33991a;" x="384.918423" xlink:href="#C0_0_062ed981af" y="278.660387"/>
    </g>
    <g clip-path="url(#p56e7908000)">
     <use style="fill:#33991a;" x="388.641758" xlink:href="#C0_0_062ed981af" y="291.411017"/>
    </g>
    <g clip-path="url(#p56e7908000)">
     <use style="fill:#33991a;" x="392.365094" xlink:href="#C0_0_062ed981af" y="299.49412"/>
    </g>
    <g clip-path="url(#p56e7908000)">
     <use style="fill:#33991a;" x="396.088429" xlink:href="#C0_0_062ed981af" y="301.907868"/>
    </g>
    <g clip-path="url(#p56e7908000)">
     <use style="fill:#33991a;" x="399.811765" xlink:href="#C0_0_062ed981af" y="297.848116"/>
    </g>
    <g clip-path="url(#p56e7908000)">
     <use style="fill:#33991a;" x="403.5351" xlink:href="#C0_0_062ed981af" y="286.804496"/>
    </g>
    <g clip-path="url(#p56e7908000)">
     <use style="fill:#33991a;" x="407.258436" xlink:href="#C0_0_062ed981af" y="268.653958"/>
    </g>
    <g clip-path="url(#p56e7908000)">
     <use style="fill:#33991a;" x="410.981771" xlink:href="#C0_0_062ed981af" y="243.74266"/>
    </g>
    <g clip-path="url(#p56e7908000)">
     <use style="fill:#33991a;" x="414.705107" xlink:href="#C0_0_062ed981af" y="212.945796"/>
    </g>
    <g clip-path="url(#p56e7908000)">
     <use style="fill:#33991a;" x="418.428442" xlink:href="#C0_0_062ed981af" y="177.694338"/>
    </g>
    <g clip-path="url(#p56e7908000)">
     <use style="fill:#33991a;" x="422.151778" xlink:href="#C0_0_062ed981af" y="139.958134"/>
    </g>
    <g clip-path="url(#p56e7908000)">
     <use style="fill:#33991a;" x="425.875113" xlink:href="#C0_0_062ed981af" y="102.176614"/>
    </g>
    <g clip-path="url(#p56e7908000)">
     <use style="fill:#33991a;" x="429.598449" xlink:href="#C0_0_062ed981af" y="67.131621"/>
    </g>
    <g clip-path="url(#p56e7908000)">
     <use style="fill:#33991a;" x="433.321784" xlink:href="#C0_0_062ed981af" y="37.761827"/>
    </g>
    <g clip-path="url(#p56e7908000)">
     <use style="fill:#33991a;" x="437.04512" xlink:href="#C0_0_062ed981af" y="16.924545"/>
    </g>
    <g clip-path="url(#p56e7908000)">
     <use style="fill:#33991a;" x="440.768455" xlink:href="#C0_0_062ed981af" y="7.118198"/>
    </g>
    <g clip-path="url(#p56e7908000)">
     <use style="fill:#33991a;" x="444.491791" xlink:href="#C0_0_062ed981af" y="10.186665"/>
    </g>
    <g clip-path="url(#p56e7908000)">
     <use style="fill:#33991a;" x="448.215126" xlink:href="#C0_0_062ed981af" y="27.034164"/>
    </g>
    <g clip-path="url(#p56e7908000)">
     <use style="fill:#33991a;" x="451.938462" xlink:href="#C0_0_062ed981af" y="57.385231"/>
    </g>
   </g>
   <g id="matplotlib.axis_1">
    <g id="xtick_1">
     <g id="line2d_1">
      <defs>
       <path d="M 0 0 
L 0 3.5 
" id="m242fd3b6c9" style="stroke:#000000;stroke-width:0.8;"/>
      </defs>
      <g>
       <use style="stroke:#000000;stroke-width:0.8;" x="8.861538" xlink:href="#m242fd3b6c9" y="172.786064"/>
      </g>
     </g>
     <g id="text_1">
      <!-- −3 -->
      <g transform="translate(1.490445 187.384501)scale(0.1 -0.1)">
       <defs>
        <path d="M 10.59375 35.5 
L 73.1875 35.5 
L 73.1875 27.203125 
L 10.59375 27.203125 
z
" id="DejaVuSans-8722"/>
        <path d="M 40.578125 39.3125 
Q 47.65625 37.796875 51.625 33 
Q 55.609375 28.21875 55.609375 21.1875 
Q 55.609375 10.40625 48.1875 4.484375 
Q 40.765625 -1.421875 27.09375 -1.421875 
Q 22.515625 -1.421875 17.65625 -0.515625 
Q 12.796875 0.390625 7.625 2.203125 
L 7.625 11.71875 
Q 11.71875 9.328125 16.59375 8.109375 
Q 21.484375 6.890625 26.8125 6.890625 
Q 36.078125 6.890625 40.9375 10.546875 
Q 45.796875 14.203125 45.796875 21.1875 
Q 45.796875 27.640625 41.28125 31.265625 
Q 36.765625 34.90625 28.71875 34.90625 
L 20.21875 34.90625 
L 20.21875 43.015625 
L 29.109375 43.015625 
Q 36.375 43.015625 40.234375 45.921875 
Q 44.09375 48.828125 44.09375 54.296875 
Q 44.09375 59.90625 40.109375 62.90625 
Q 36.140625 65.921875 28.71875 65.921875 
Q 24.65625 65.921875 20.015625 65.03125 
Q 15.375 64.15625 9.8125 62.3125 
L 9.8125 71.09375 
Q 15.4375 72.65625 20.34375 73.4375 
Q 25.25 74.21875 29.59375 74.21875 
Q 40.828125 74.21875 47.359375 69.109375 
Q 53.90625 64.015625 53.90625 55.328125 
Q 53.90625 49.265625 50.4375 45.09375 
Q 46.96875 40.921875 40.578125 39.3125 
z
" id="DejaVuSans-51"/>
       </defs>
       <use xlink:href="#DejaVuSans-8722"/>
       <use x="83.789062" xlink:href="#DejaVuSans-51"/>
      </g>
     </g>
    </g>
    <g id="xtick_2">
     <g id="line2d_2">
      <g>
       <use style="stroke:#000000;stroke-width:0.8;" x="83.328248" xlink:href="#m242fd3b6c9" y="172.786064"/>
      </g>
     </g>
     <g id="text_2">
      <!-- −2 -->
      <g transform="translate(75.957154 187.384501)scale(0.1 -0.1)">
       <defs>
        <path d="M 19.1875 8.296875 
L 53.609375 8.296875 
L 53.609375 0 
L 7.328125 0 
L 7.328125 8.296875 
Q 12.9375 14.109375 22.625 23.890625 
Q 32.328125 33.6875 34.8125 36.53125 
Q 39.546875 41.84375 41.421875 45.53125 
Q 43.3125 49.21875 43.3125 52.78125 
Q 43.3125 58.59375 39.234375 62.25 
Q 35.15625 65.921875 28.609375 65.921875 
Q 23.96875 65.921875 18.8125 64.3125 
Q 13.671875 62.703125 7.8125 59.421875 
L 7.8125 69.390625 
Q 13.765625 71.78125 18.9375 73 
Q 24.125 74.21875 28.421875 74.21875 
Q 39.75 74.21875 46.484375 68.546875 
Q 53.21875 62.890625 53.21875 53.421875 
Q 53.21875 48.921875 51.53125 44.890625 
Q 49.859375 40.875 45.40625 35.40625 
Q 44.1875 33.984375 37.640625 27.21875 
Q 31.109375 20.453125 19.1875 8.296875 
z
" id="DejaVuSans-50"/>
       </defs>
       <use xlink:href="#DejaVuSans-8722"/>
       <use x="83.789062" xlink:href="#DejaVuSans-50"/>
      </g>
     </g>
    </g>
    <g id="xtick_3">
     <g id="line2d_3">
      <g>
       <use style="stroke:#000000;stroke-width:0.8;" x="157.794958" xlink:href="#m242fd3b6c9" y="172.786064"/>
      </g>
     </g>
     <g id="text_3">
      <!-- −1 -->
      <g transform="translate(150.423864 187.384501)scale(0.1 -0.1)">
       <defs>
        <path d="M 12.40625 8.296875 
L 28.515625 8.296875 
L 28.515625 63.921875 
L 10.984375 60.40625 
L 10.984375 69.390625 
L 28.421875 72.90625 
L 38.28125 72.90625 
L 38.28125 8.296875 
L 54.390625 8.296875 
L 54.390625 0 
L 12.40625 0 
z
" id="DejaVuSans-49"/>
       </defs>
       <use xlink:href="#DejaVuSans-8722"/>
       <use x="83.789062" xlink:href="#DejaVuSans-49"/>
      </g>
     </g>
    </g>
    <g id="xtick_4">
     <g id="line2d_4">
      <g>
       <use style="stroke:#000000;stroke-width:0.8;" x="232.261668" xlink:href="#m242fd3b6c9" y="172.786064"/>
      </g>
     </g>
    </g>
    <g id="xtick_5">
     <g id="line2d_5">
      <g>
       <use style="stroke:#000000;stroke-width:0.8;" x="306.728378" xlink:href="#m242fd3b6c9" y="172.786064"/>
      </g>
     </g>
     <g id="text_4">
      <!-- 1 -->
      <g transform="translate(303.547128 187.384501)scale(0.1 -0.1)">
       <use xlink:href="#DejaVuSans-49"/>
      </g>
     </g>
    </g>
    <g id="xtick_6">
     <g id="line2d_6">
      <g>
       <use style="stroke:#000000;stroke-width:0.8;" x="381.195087" xlink:href="#m242fd3b6c9" y="172.786064"/>
      </g>
     </g>
     <g id="text_5">
      <!-- 2 -->
      <g transform="translate(378.013837 187.384501)scale(0.1 -0.1)">
       <use xlink:href="#DejaVuSans-50"/>
      </g>
     </g>
    </g>
    <g id="xtick_7">
     <g id="line2d_7">
      <g>
       <use style="stroke:#000000;stroke-width:0.8;" x="455.661797" xlink:href="#m242fd3b6c9" y="172.786064"/>
      </g>
     </g>
     <g id="text_6">
      <!-- 3 -->
      <g transform="translate(452.480547 187.384501)scale(0.1 -0.1)">
       <use xlink:href="#DejaVuSans-51"/>
      </g>
     </g>
    </g>
    <g id="xtick_8">
     <g id="line2d_8">
      <defs>
       <path d="M 0 0 
L 0 2 
" id="meee5d425e1" style="stroke:#000000;stroke-width:0.6;"/>
      </defs>
      <g>
       <use style="stroke:#000000;stroke-width:0.6;" x="23.75488" xlink:href="#meee5d425e1" y="172.786064"/>
      </g>
     </g>
    </g>
    <g id="xtick_9">
     <g id="line2d_9">
      <g>
       <use style="stroke:#000000;stroke-width:0.6;" x="38.648222" xlink:href="#meee5d425e1" y="172.786064"/>
      </g>
     </g>
    </g>
    <g id="xtick_10">
     <g id="line2d_10">
      <g>
       <use style="stroke:#000000;stroke-width:0.6;" x="53.541564" xlink:href="#meee5d425e1" y="172.786064"/>
      </g>
     </g>
    </g>
    <g id="xtick_11">
     <g id="line2d_11">
      <g>
       <use style="stroke:#000000;stroke-width:0.6;" x="68.434906" xlink:href="#meee5d425e1" y="172.786064"/>
      </g>
     </g>
    </g>
    <g id="xtick_12">
     <g id="line2d_12">
      <g>
       <use style="stroke:#000000;stroke-width:0.6;" x="98.22159" xlink:href="#meee5d425e1" y="172.786064"/>
      </g>
     </g>
    </g>
    <g id="xtick_13">
     <g id="line2d_13">
      <g>
       <use style="stroke:#000000;stroke-width:0.6;" x="113.114932" xlink:href="#meee5d425e1" y="172.786064"/>
      </g>
     </g>
    </g>
    <g id="xtick_14">
     <g id="line2d_14">
      <g>
       <use style="stroke:#000000;stroke-width:0.6;" x="128.008274" xlink:href="#meee5d425e1" y="172.786064"/>
      </g>
     </g>
    </g>
    <g id="xtick_15">
     <g id="line2d_15">
      <g>
       <use style="stroke:#000000;stroke-width:0.6;" x="142.901616" xlink:href="#meee5d425e1" y="172.786064"/>
      </g>
     </g>
    </g>
    <g id="xtick_16">
     <g id="line2d_16">
      <g>
       <use style="stroke:#000000;stroke-width:0.6;" x="172.6883" xlink:href="#meee5d425e1" y="172.786064"/>
      </g>
     </g>
    </g>
    <g id="xtick_17">
     <g id="line2d_17">
      <g>
       <use style="stroke:#000000;stroke-width:0.6;" x="187.581642" xlink:href="#meee5d425e1" y="172.786064"/>
      </g>
     </g>
    </g>
    <g id="xtick_18">
     <g id="line2d_18">
      <g>
       <use style="stroke:#000000;stroke-width:0.6;" x="202.474984" xlink:href="#meee5d425e1" y="172.786064"/>
      </g>
     </g>
    </g>
    <g id="xtick_19">
     <g id="line2d_19">
      <g>
       <use style="stroke:#000000;stroke-width:0.6;" x="217.368326" xlink:href="#meee5d425e1" y="172.786064"/>
      </g>
     </g>
    </g>
    <g id="xtick_20">
     <g id="line2d_20">
      <g>
       <use style="stroke:#000000;stroke-width:0.6;" x="247.15501" xlink:href="#meee5d425e1" y="172.786064"/>
      </g>
     </g>
    </g>
    <g id="xtick_21">
     <g id="line2d_21">
      <g>
       <use style="stroke:#000000;stroke-width:0.6;" x="262.048352" xlink:href="#meee5d425e1" y="172.786064"/>
      </g>
     </g>
    </g>
    <g id="xtick_22">
     <g id="line2d_22">
      <g>
       <use style="stroke:#000000;stroke-width:0.6;" x="276.941694" xlink:href="#meee5d425e1" y="172.786064"/>
      </g>
     </g>
    </g>
    <g id="xtick_23">
     <g id="line2d_23">
      <g>
       <use style="stroke:#000000;stroke-width:0.6;" x="291.835036" xlink:href="#meee5d425e1" y="172.786064"/>
      </g>
     </g>
    </g>
    <g id="xtick_24">
     <g id="line2d_24">
      <g>
       <use style="stroke:#000000;stroke-width:0.6;" x="321.621719" xlink:href="#meee5d425e1" y="172.786064"/>
      </g>
     </g>
    </g>
    <g id="xtick_25">
     <g id="line2d_25">
      <g>
       <use style="stroke:#000000;stroke-width:0.6;" x="336.515061" xlink:href="#meee5d425e1" y="172.786064"/>
      </g>
     </g>
    </g>
    <g id="xtick_26">
     <g id="line2d_26">
      <g>
       <use style="stroke:#000000;stroke-width:0.6;" x="351.408403" xlink:href="#meee5d425e1" y="172.786064"/>
      </g>
     </g>
    </g>
    <g id="xtick_27">
     <g id="line2d_27">
      <g>
       <use style="stroke:#000000;stroke-width:0.6;" x="366.301745" xlink:href="#meee5d425e1" y="172.786064"/>
      </g>
     </g>
    </g>
    <g id="xtick_28">
     <g id="line2d_28">
      <g>
       <use style="stroke:#000000;stroke-width:0.6;" x="396.088429" xlink:href="#meee5d425e1" y="172.786064"/>
      </g>
     </g>
    </g>
    <g id="xtick_29">
     <g id="line2d_29">
      <g>
       <use style="stroke:#000000;stroke-width:0.6;" x="410.981771" xlink:href="#meee5d425e1" y="172.786064"/>
      </g>
     </g>
    </g>
    <g id="xtick_30">
     <g id="line2d_30">
      <g>
       <use style="stroke:#000000;stroke-width:0.6;" x="425.875113" xlink:href="#meee5d425e1" y="172.786064"/>
      </g>
     </g>
    </g>
    <g id="xtick_31">
     <g id="line2d_31">
      <g>
       <use style="stroke:#000000;stroke-width:0.6;" x="440.768455" xlink:href="#meee5d425e1" y="172.786064"/>
      </g>
     </g>
    </g>
   </g>
   <g id="matplotlib.axis_2">
    <g id="ytick_1">
     <g id="line2d_32">
      <defs>
       <path d="M 0 0 
L -3.5 0 
" id="mec951fb88f" style="stroke:#000000;stroke-width:0.8;"/>
      </defs>
      <g>
       <use style="stroke:#000000;stroke-width:0.8;" x="232.261668" xlink:href="#mec951fb88f" y="291.13182"/>
      </g>
     </g>
     <g id="text_7">
      <!-- −2 -->
      <g transform="translate(210.51948 294.931039)scale(0.1 -0.1)">
       <use xlink:href="#DejaVuSans-8722"/>
       <use x="83.789062" xlink:href="#DejaVuSans-50"/>
      </g>
     </g>
    </g>
    <g id="ytick_2">
     <g id="line2d_33">
      <g>
       <use style="stroke:#000000;stroke-width:0.8;" x="232.261668" xlink:href="#mec951fb88f" y="231.958942"/>
      </g>
     </g>
     <g id="text_8">
      <!-- −1 -->
      <g transform="translate(210.51948 235.758161)scale(0.1 -0.1)">
       <use xlink:href="#DejaVuSans-8722"/>
       <use x="83.789062" xlink:href="#DejaVuSans-49"/>
      </g>
     </g>
    </g>
    <g id="ytick_3">
     <g id="line2d_34">
      <g>
       <use style="stroke:#000000;stroke-width:0.8;" x="232.261668" xlink:href="#mec951fb88f" y="172.786064"/>
      </g>
     </g>
    </g>
    <g id="ytick_4">
     <g id="line2d_35">
      <g>
       <use style="stroke:#000000;stroke-width:0.8;" x="232.261668" xlink:href="#mec951fb88f" y="113.613185"/>
      </g>
     </g>
     <g id="text_9">
      <!-- 1 -->
      <g transform="translate(218.899168 117.412404)scale(0.1 -0.1)">
       <use xlink:href="#DejaVuSans-49"/>
      </g>
     </g>
    </g>
    <g id="ytick_5">
     <g id="line2d_36">
      <g>
       <use style="stroke:#000000;stroke-width:0.8;" x="232.261668" xlink:href="#mec951fb88f" y="54.440307"/>
      </g>
     </g>
     <g id="text_10">
      <!-- 2 -->
      <g transform="translate(218.899168 58.239526)scale(0.1 -0.1)">
       <use xlink:href="#DejaVuSans-50"/>
      </g>
     </g>
    </g>
    <g id="ytick_6">
     <g id="line2d_37">
      <defs>
       <path d="M 0 0 
L -2 0 
" id="m5573a0caa7" style="stroke:#000000;stroke-width:0.6;"/>
      </defs>
      <g>
       <use style="stroke:#000000;stroke-width:0.6;" x="232.261668" xlink:href="#m5573a0caa7" y="338.470123"/>
      </g>
     </g>
    </g>
    <g id="ytick_7">
     <g id="line2d_38">
      <g>
       <use style="stroke:#000000;stroke-width:0.6;" x="232.261668" xlink:href="#m5573a0caa7" y="326.635547"/>
      </g>
     </g>
    </g>
    <g id="ytick_8">
     <g id="line2d_39">
      <g>
       <use style="stroke:#000000;stroke-width:0.6;" x="232.261668" xlink:href="#m5573a0caa7" y="314.800971"/>
      </g>
     </g>
    </g>
    <g id="ytick_9">
     <g id="line2d_40">
      <g>
       <use style="stroke:#000000;stroke-width:0.6;" x="232.261668" xlink:href="#m5573a0caa7" y="302.966396"/>
      </g>
     </g>
    </g>
    <g id="ytick_10">
     <g id="line2d_41">
      <g>
       <use style="stroke:#000000;stroke-width:0.6;" x="232.261668" xlink:href="#m5573a0caa7" y="279.297244"/>
      </g>
     </g>
    </g>
    <g id="ytick_11">
     <g id="line2d_42">
      <g>
       <use style="stroke:#000000;stroke-width:0.6;" x="232.261668" xlink:href="#m5573a0caa7" y="267.462669"/>
      </g>
     </g>
    </g>
    <g id="ytick_12">
     <g id="line2d_43">
      <g>
       <use style="stroke:#000000;stroke-width:0.6;" x="232.261668" xlink:href="#m5573a0caa7" y="255.628093"/>
      </g>
     </g>
    </g>
    <g id="ytick_13">
     <g id="line2d_44">
      <g>
       <use style="stroke:#000000;stroke-width:0.6;" x="232.261668" xlink:href="#m5573a0caa7" y="243.793517"/>
      </g>
     </g>
    </g>
    <g id="ytick_14">
     <g id="line2d_45">
      <g>
       <use style="stroke:#000000;stroke-width:0.6;" x="232.261668" xlink:href="#m5573a0caa7" y="220.124366"/>
      </g>
     </g>
    </g>
    <g id="ytick_15">
     <g id="line2d_46">
      <g>
       <use style="stroke:#000000;stroke-width:0.6;" x="232.261668" xlink:href="#m5573a0caa7" y="208.28979"/>
      </g>
     </g>
    </g>
    <g id="ytick_16">
     <g id="line2d_47">
      <g>
       <use style="stroke:#000000;stroke-width:0.6;" x="232.261668" xlink:href="#m5573a0caa7" y="196.455215"/>
      </g>
     </g>
    </g>
    <g id="ytick_17">
     <g id="line2d_48">
      <g>
       <use style="stroke:#000000;stroke-width:0.6;" x="232.261668" xlink:href="#m5573a0caa7" y="184.620639"/>
      </g>
     </g>
    </g>
    <g id="ytick_18">
     <g id="line2d_49">
      <g>
       <use style="stroke:#000000;stroke-width:0.6;" x="232.261668" xlink:href="#m5573a0caa7" y="160.951488"/>
      </g>
     </g>
    </g>
    <g id="ytick_19">
     <g id="line2d_50">
      <g>
       <use style="stroke:#000000;stroke-width:0.6;" x="232.261668" xlink:href="#m5573a0caa7" y="149.116912"/>
      </g>
     </g>
    </g>
    <g id="ytick_20">
     <g id="line2d_51">
      <g>
       <use style="stroke:#000000;stroke-width:0.6;" x="232.261668" xlink:href="#m5573a0caa7" y="137.282337"/>
      </g>
     </g>
    </g>
    <g id="ytick_21">
     <g id="line2d_52">
      <g>
       <use style="stroke:#000000;stroke-width:0.6;" x="232.261668" xlink:href="#m5573a0caa7" y="125.447761"/>
      </g>
     </g>
    </g>
    <g id="ytick_22">
     <g id="line2d_53">
      <g>
       <use style="stroke:#000000;stroke-width:0.6;" x="232.261668" xlink:href="#m5573a0caa7" y="101.77861"/>
      </g>
     </g>
    </g>
    <g id="ytick_23">
     <g id="line2d_54">
      <g>
       <use style="stroke:#000000;stroke-width:0.6;" x="232.261668" xlink:href="#m5573a0caa7" y="89.944034"/>
      </g>
     </g>
    </g>
    <g id="ytick_24">
     <g id="line2d_55">
      <g>
       <use style="stroke:#000000;stroke-width:0.6;" x="232.261668" xlink:href="#m5573a0caa7" y="78.109458"/>
      </g>
     </g>
    </g>
    <g id="ytick_25">
     <g id="line2d_56">
      <g>
       <use style="stroke:#000000;stroke-width:0.6;" x="232.261668" xlink:href="#m5573a0caa7" y="66.274883"/>
      </g>
     </g>
    </g>
    <g id="ytick_26">
     <g id="line2d_57">
      <g>
       <use style="stroke:#000000;stroke-width:0.6;" x="232.261668" xlink:href="#m5573a0caa7" y="42.605731"/>
      </g>
     </g>
    </g>
    <g id="ytick_27">
     <g id="line2d_58">
      <g>
       <use style="stroke:#000000;stroke-width:0.6;" x="232.261668" xlink:href="#m5573a0caa7" y="30.771156"/>
      </g>
     </g>
    </g>
    <g id="ytick_28">
     <g id="line2d_59">
      <g>
       <use style="stroke:#000000;stroke-width:0.6;" x="232.261668" xlink:href="#m5573a0caa7" y="18.93658"/>
      </g>
     </g>
    </g>
    <g id="ytick_29">
     <g id="line2d_60">
      <g>
       <use style="stroke:#000000;stroke-width:0.6;" x="232.261668" xlink:href="#m5573a0caa7" y="7.102004"/>
      </g>
     </g>
    </g>
   </g>
   <g id="line2d_61">
    <path clip-path="url(#p56e7908000)" d="M 11.165043 273.005749 
L 12.86051 290.91475 
L 14.444433 305.072949 
L 15.769706 314.992306 
L 17.094979 323.223773 
L 18.194305 328.774023 
L 19.273359 333.067307 
L 20.20435 335.832057 
L 20.953405 337.41826 
L 21.702459 338.443339 
L 22.305658 338.867409 
L 22.707792 338.953846 
L 23.109925 338.884978 
L 23.584812 338.605666 
L 24.132452 338.02049 
L 24.680092 337.158421 
L 25.501552 335.358878 
L 26.361302 332.843644 
L 27.435989 328.824786 
L 28.510676 323.877644 
L 29.843744 316.539187 
L 31.349065 306.79098 
L 33.059203 294.049521 
L 35.156089 276.399304 
L 37.45571 255.057335 
L 40.854695 221.152672 
L 47.482304 154.336455 
L 50.203187 129.207077 
L 52.492815 109.961041 
L 54.451273 95.15766 
L 56.462492 81.737531 
L 58.135515 72.048134 
L 59.814347 63.730382 
L 61.336506 57.432127 
L 62.668298 52.903006 
L 63.730368 49.944702 
L 64.792437 47.56286 
L 65.854506 45.752426 
L 66.876518 44.539498 
L 67.858472 43.852793 
L 68.67578 43.631888 
L 69.32844 43.679614 
L 69.981101 43.921704 
L 70.633762 44.353739 
L 71.549167 45.271295 
L 72.727316 46.969576 
L 73.900832 49.21316 
L 74.931744 51.613524 
L 76.389323 55.649039 
L 78.095988 61.251671 
L 79.375987 66.013525 
L 81.61588 75.351178 
L 83.873175 85.838958 
L 87.008185 101.729486 
L 90.22078 118.996988 
L 98.211392 162.268431 
L 101.780383 180.178002 
L 104.596028 193.181443 
L 106.943339 203.117894 
L 109.214665 211.872134 
L 111.365601 219.336473 
L 113.50199 225.930393 
L 115.279099 230.783352 
L 116.819233 234.525335 
L 118.312061 237.743615 
L 119.757585 240.482326 
L 121.754632 243.667542 
L 123.520079 245.922659 
L 124.993565 247.416849 
L 126.639079 248.685132 
L 128.242249 249.533111 
L 130.093287 250.061959 
L 131.944324 250.139251 
L 133.546066 249.867254 
L 135.451467 249.166553 
L 137.627242 247.911189 
L 139.542483 246.447287 
L 141.457724 244.687183 
L 142.954222 243.129764 
L 146.012872 239.527031 
L 148.403721 236.392613 
L 151.921412 231.415733 
L 157.455294 223.097013 
L 165.308021 211.261303 
L 170.029285 204.583155 
L 174.51932 198.741607 
L 178.161091 194.437536 
L 182.071788 190.286343 
L 184.635248 187.838306 
L 188.019584 184.93916 
L 190.346479 183.162807 
L 193.909015 180.775539 
L 197.082964 178.972858 
L 200.032688 177.555137 
L 203.530669 176.172039 
L 206.309771 175.28454 
L 210.539262 174.253083 
L 213.411019 173.745283 
L 215.810301 173.423843 
L 219.957467 173.05296 
L 225.629775 172.82786 
L 244.832518 172.501439 
L 249.05991 172.107108 
L 252.126536 171.663715 
L 254.514817 171.209058 
L 258.467731 170.213709 
L 261.434458 169.242305 
L 264.506357 168.010068 
L 267.811121 166.40387 
L 271.044304 164.529281 
L 274.327921 162.299279 
L 277.423634 159.882243 
L 280.043112 157.591969 
L 282.64718 155.090029 
L 285.998289 151.541877 
L 289.593997 147.335408 
L 292.480669 143.676922 
L 296.242607 138.572251 
L 301.619668 130.750272 
L 313.131986 113.384778 
L 316.956803 108.054921 
L 319.559873 104.751633 
L 322.569065 101.385044 
L 325.379866 98.794184 
L 327.563383 97.227457 
L 329.036516 96.422226 
L 330.50965 95.840158 
L 332.180538 95.472127 
L 333.805435 95.435242 
L 335.637568 95.801909 
L 336.553635 96.157004 
L 338.156173 97.068242 
L 339.529117 98.154692 
L 341.045408 99.697339 
L 342.333221 101.300256 
L 343.621033 103.180174 
L 345.172605 105.823456 
L 346.639676 108.711223 
L 348.106747 111.983574 
L 349.708173 116.000313 
L 351.309599 120.483081 
L 353.661401 127.909927 
L 355.918763 135.965181 
L 358.316741 145.478432 
L 360.850601 156.531336 
L 363.63985 169.759203 
L 367.004123 186.926326 
L 371.700454 212.30134 
L 377.818067 245.429716 
L 381.092262 261.860424 
L 383.478945 272.714548 
L 385.307819 280.180055 
L 387.240111 287.100503 
L 388.88949 292.105542 
L 389.989076 294.930182 
L 391.380932 297.870303 
L 392.554582 299.761615 
L 393.549343 300.919324 
L 394.544104 301.65139 
L 395.196157 301.892794 
L 395.837088 301.94103 
L 396.47802 301.797689 
L 397.118951 301.459456 
L 397.841751 300.840822 
L 398.64642 299.851821 
L 399.765323 297.941072 
L 400.860939 295.455396 
L 401.998082 292.226458 
L 403.135225 288.332546 
L 404.267197 283.792625 
L 405.773044 276.734984 
L 407.166106 269.188257 
L 408.650112 260.097835 
L 410.628787 246.374521 
L 412.640655 230.67476 
L 415.056187 209.785118 
L 417.626946 185.56707 
L 421.312339 148.56275 
L 427.233982 88.915786 
L 429.939641 64.159452 
L 431.700225 49.666638 
L 433.500375 36.546115 
L 435.04336 26.907616 
L 436.304512 20.265312 
L 437.528658 14.978557 
L 438.480459 11.712415 
L 439.187431 9.788604 
L 439.916554 8.270578 
L 440.645677 7.242067 
L 441.374799 6.717816 
L 441.739361 6.646154 
L 442.403696 6.841483 
L 443.003244 7.37844 
L 443.693527 8.41956 
L 444.474547 10.142122 
L 445.255567 12.44725 
L 446.231842 16.193018 
L 447.275698 21.334338 
L 448.407168 28.329896 
L 449.79683 38.838406 
L 451.64149 54.740178 
L 451.64149 54.740178 
" style="fill:none;stroke:#0000ff;stroke-linecap:square;"/>
   </g>
   <g id="patch_3">
    <path d="M 232.261668 345.6 
L 232.261668 -0 
" style="fill:none;stroke:#000000;stroke-linecap:square;stroke-linejoin:miter;stroke-width:0.8;"/>
   </g>
   <g id="patch_4">
    <path d="M 0 172.786064 
L 460.8 172.786064 
" style="fill:none;stroke:#000000;stroke-linecap:square;stroke-linejoin:miter;stroke-width:0.8;"/>
   </g>
  </g>
 </g>
 <defs>
  <clipPath id="p56e7908000">
   <rect height="345.6" width="460.8" x="0" y="0"/>
  </clipPath>
 </defs>
</svg>
