<?xml version="1.0" encoding="utf-8" standalone="no"?>
<!DOCTYPE svg PUBLIC "-//W3C//DTD SVG 1.1//EN"
  "http://www.w3.org/Graphics/SVG/1.1/DTD/svg11.dtd">
<!-- Created with matplotlib (http://matplotlib.org/) -->
<svg height="345.6pt" version="1.1" viewBox="0 0 460.8 345.6" width="460.8pt" xmlns="http://www.w3.org/2000/svg" xmlns:xlink="http://www.w3.org/1999/xlink">
 <defs>
  <style type="text/css">
*{stroke-linecap:butt;stroke-linejoin:round;}
  </style>
 </defs>
 <g id="figure_1">
  <g id="patch_1">
   <path d="M 0 345.6 
L 460.8 345.6 
L 460.8 0 
L 0 0 
z
" style="fill:#ffffff;"/>
  </g>
  <g id="axes_1">
   <g id="patch_2">
    <path d="M 2.52 343.08 
L 458.28 343.08 
L 458.28 2.52 
L 2.52 2.52 
z
" style="fill:#ffffff;"/>
   </g>
   <g id="PathCollection_1">
    <defs>
     <path d="M 0 2.738613 
C 0.726289 2.738613 1.422928 2.450055 1.936492 1.936492 
C 2.450055 1.422928 2.738613 0.726289 2.738613 0 
C 2.738613 -0.726289 2.450055 -1.422928 1.936492 -1.936492 
C 1.422928 -2.450055 0.726289 -2.738613 0 -2.738613 
C -0.726289 -2.738613 -1.422928 -2.450055 -1.936492 -1.936492 
C -2.450055 -1.422928 -2.738613 -0.726289 -2.738613 0 
C -2.738613 0.726289 -2.450055 1.422928 -1.936492 1.936492 
C -1.422928 2.450055 -0.726289 2.738613 0 2.738613 
z
" id="C0_0_b6bed6a729"/>
    </defs>
    <g clip-path="url(#p4a82f4e9ec)">
     <use style="fill:#33991a;" x="11.284615" xlink:href="#C0_0_b6bed6a729" y="244.878004"/>
    </g>
    <g clip-path="url(#p4a82f4e9ec)">
     <use style="fill:#33991a;" x="14.967227" xlink:href="#C0_0_b6bed6a729" y="286.505087"/>
    </g>
    <g clip-path="url(#p4a82f4e9ec)">
     <use style="fill:#33991a;" x="18.649838" xlink:href="#C0_0_b6bed6a729" y="316.414248"/>
    </g>
    <g clip-path="url(#p4a82f4e9ec)">
     <use style="fill:#33991a;" x="22.33245" xlink:href="#C0_0_b6bed6a729" y="333.016449"/>
    </g>
    <g clip-path="url(#p4a82f4e9ec)">
     <use style="fill:#33991a;" x="26.015061" xlink:href="#C0_0_b6bed6a729" y="336.040239"/>
    </g>
    <g clip-path="url(#p4a82f4e9ec)">
     <use style="fill:#33991a;" x="29.697673" xlink:href="#C0_0_b6bed6a729" y="326.376672"/>
    </g>
    <g clip-path="url(#p4a82f4e9ec)">
     <use style="fill:#33991a;" x="33.380284" xlink:href="#C0_0_b6bed6a729" y="305.842777"/>
    </g>
    <g clip-path="url(#p4a82f4e9ec)">
     <use style="fill:#33991a;" x="37.062896" xlink:href="#C0_0_b6bed6a729" y="276.900603"/>
    </g>
    <g clip-path="url(#p4a82f4e9ec)">
     <use style="fill:#33991a;" x="40.745507" xlink:href="#C0_0_b6bed6a729" y="242.365859"/>
    </g>
    <g clip-path="url(#p4a82f4e9ec)">
     <use style="fill:#33991a;" x="44.428119" xlink:href="#C0_0_b6bed6a729" y="205.134432"/>
    </g>
    <g clip-path="url(#p4a82f4e9ec)">
     <use style="fill:#33991a;" x="48.11073" xlink:href="#C0_0_b6bed6a729" y="167.947662"/>
    </g>
    <g clip-path="url(#p4a82f4e9ec)">
     <use style="fill:#33991a;" x="51.793342" xlink:href="#C0_0_b6bed6a729" y="133.20946"/>
    </g>
    <g clip-path="url(#p4a82f4e9ec)">
     <use style="fill:#33991a;" x="55.475953" xlink:href="#C0_0_b6bed6a729" y="102.860994"/>
    </g>
    <g clip-path="url(#p4a82f4e9ec)">
     <use style="fill:#33991a;" x="59.158565" xlink:href="#C0_0_b6bed6a729" y="78.312401"/>
    </g>
    <g clip-path="url(#p4a82f4e9ec)">
     <use style="fill:#33991a;" x="62.841176" xlink:href="#C0_0_b6bed6a729" y="60.426131"/>
    </g>
    <g clip-path="url(#p4a82f4e9ec)">
     <use style="fill:#33991a;" x="66.523788" xlink:href="#C0_0_b6bed6a729" y="49.543305"/>
    </g>
    <g clip-path="url(#p4a82f4e9ec)">
     <use style="fill:#33991a;" x="70.206399" xlink:href="#C0_0_b6bed6a729" y="45.542662"/>
    </g>
    <g clip-path="url(#p4a82f4e9ec)">
     <use style="fill:#33991a;" x="73.889011" xlink:href="#C0_0_b6bed6a729" y="47.921266"/>
    </g>
    <g clip-path="url(#p4a82f4e9ec)">
     <use style="fill:#33991a;" x="77.571622" xlink:href="#C0_0_b6bed6a729" y="55.886681"/>
    </g>
    <g clip-path="url(#p4a82f4e9ec)">
     <use style="fill:#33991a;" x="81.254234" xlink:href="#C0_0_b6bed6a729" y="68.451664"/>
    </g>
    <g clip-path="url(#p4a82f4e9ec)">
     <use style="fill:#33991a;" x="84.936846" xlink:href="#C0_0_b6bed6a729" y="84.524152"/>
    </g>
    <g clip-path="url(#p4a82f4e9ec)">
     <use style="fill:#33991a;" x="88.619457" xlink:href="#C0_0_b6bed6a729" y="102.987261"/>
    </g>
    <g clip-path="url(#p4a82f4e9ec)">
     <use style="fill:#33991a;" x="92.302069" xlink:href="#C0_0_b6bed6a729" y="122.765892"/>
    </g>
    <g clip-path="url(#p4a82f4e9ec)">
     <use style="fill:#33991a;" x="95.98468" xlink:href="#C0_0_b6bed6a729" y="142.878285"/>
    </g>
    <g clip-path="url(#p4a82f4e9ec)">
     <use style="fill:#33991a;" x="99.667292" xlink:href="#C0_0_b6bed6a729" y="162.472262"/>
    </g>
    <g clip-path="url(#p4a82f4e9ec)">
     <use style="fill:#33991a;" x="103.349903" xlink:href="#C0_0_b6bed6a729" y="180.847057"/>
    </g>
    <g clip-path="url(#p4a82f4e9ec)">
     <use style="fill:#33991a;" x="107.032515" xlink:href="#C0_0_b6bed6a729" y="197.462384"/>
    </g>
    <g clip-path="url(#p4a82f4e9ec)">
     <use style="fill:#33991a;" x="110.715126" xlink:href="#C0_0_b6bed6a729" y="211.936885"/>
    </g>
    <g clip-path="url(#p4a82f4e9ec)">
     <use style="fill:#33991a;" x="114.397738" xlink:href="#C0_0_b6bed6a729" y="224.038307"/>
    </g>
    <g clip-path="url(#p4a82f4e9ec)">
     <use style="fill:#33991a;" x="118.080349" xlink:href="#C0_0_b6bed6a729" y="233.667756"/>
    </g>
    <g clip-path="url(#p4a82f4e9ec)">
     <use style="fill:#33991a;" x="121.762961" xlink:href="#C0_0_b6bed6a729" y="240.840198"/>
    </g>
    <g clip-path="url(#p4a82f4e9ec)">
     <use style="fill:#33991a;" x="125.445572" xlink:href="#C0_0_b6bed6a729" y="245.663117"/>
    </g>
    <g clip-path="url(#p4a82f4e9ec)">
     <use style="fill:#33991a;" x="129.128184" xlink:href="#C0_0_b6bed6a729" y="248.314913"/>
    </g>
    <g clip-path="url(#p4a82f4e9ec)">
     <use style="fill:#33991a;" x="132.810795" xlink:href="#C0_0_b6bed6a729" y="249.024255"/>
    </g>
    <g clip-path="url(#p4a82f4e9ec)">
     <use style="fill:#33991a;" x="136.493407" xlink:href="#C0_0_b6bed6a729" y="248.051265"/>
    </g>
    <g clip-path="url(#p4a82f4e9ec)">
     <use style="fill:#33991a;" x="140.176018" xlink:href="#C0_0_b6bed6a729" y="245.671127"/>
    </g>
    <g clip-path="url(#p4a82f4e9ec)">
     <use style="fill:#33991a;" x="143.85863" xlink:href="#C0_0_b6bed6a729" y="242.160379"/>
    </g>
    <g clip-path="url(#p4a82f4e9ec)">
     <use style="fill:#33991a;" x="147.541241" xlink:href="#C0_0_b6bed6a729" y="237.786001"/>
    </g>
    <g clip-path="url(#p4a82f4e9ec)">
     <use style="fill:#33991a;" x="151.223853" xlink:href="#C0_0_b6bed6a729" y="232.797188"/>
    </g>
    <g clip-path="url(#p4a82f4e9ec)">
     <use style="fill:#33991a;" x="154.906464" xlink:href="#C0_0_b6bed6a729" y="227.419594"/>
    </g>
    <g clip-path="url(#p4a82f4e9ec)">
     <use style="fill:#33991a;" x="158.589076" xlink:href="#C0_0_b6bed6a729" y="221.851765"/>
    </g>
    <g clip-path="url(#p4a82f4e9ec)">
     <use style="fill:#33991a;" x="162.271687" xlink:href="#C0_0_b6bed6a729" y="216.263416"/>
    </g>
    <g clip-path="url(#p4a82f4e9ec)">
     <use style="fill:#33991a;" x="165.954299" xlink:href="#C0_0_b6bed6a729" y="210.795207"/>
    </g>
    <g clip-path="url(#p4a82f4e9ec)">
     <use style="fill:#33991a;" x="169.63691" xlink:href="#C0_0_b6bed6a729" y="205.559686"/>
    </g>
    <g clip-path="url(#p4a82f4e9ec)">
     <use style="fill:#33991a;" x="173.319522" xlink:href="#C0_0_b6bed6a729" y="200.643081"/>
    </g>
    <g clip-path="url(#p4a82f4e9ec)">
     <use style="fill:#33991a;" x="177.002133" xlink:href="#C0_0_b6bed6a729" y="196.107664"/>
    </g>
    <g clip-path="url(#p4a82f4e9ec)">
     <use style="fill:#33991a;" x="180.684745" xlink:href="#C0_0_b6bed6a729" y="191.994448"/>
    </g>
    <g clip-path="url(#p4a82f4e9ec)">
     <use style="fill:#33991a;" x="184.367356" xlink:href="#C0_0_b6bed6a729" y="188.32603"/>
    </g>
    <g clip-path="url(#p4a82f4e9ec)">
     <use style="fill:#33991a;" x="188.049968" xlink:href="#C0_0_b6bed6a729" y="185.10942"/>
    </g>
    <g clip-path="url(#p4a82f4e9ec)">
     <use style="fill:#33991a;" x="191.732579" xlink:href="#C0_0_b6bed6a729" y="182.338737"/>
    </g>
    <g clip-path="url(#p4a82f4e9ec)">
     <use style="fill:#33991a;" x="195.415191" xlink:href="#C0_0_b6bed6a729" y="179.9977"/>
    </g>
    <g clip-path="url(#p4a82f4e9ec)">
     <use style="fill:#33991a;" x="199.097802" xlink:href="#C0_0_b6bed6a729" y="178.061852"/>
    </g>
    <g clip-path="url(#p4a82f4e9ec)">
     <use style="fill:#33991a;" x="202.780414" xlink:href="#C0_0_b6bed6a729" y="176.500495"/>
    </g>
    <g clip-path="url(#p4a82f4e9ec)">
     <use style="fill:#33991a;" x="206.463025" xlink:href="#C0_0_b6bed6a729" y="175.278323"/>
    </g>
    <g clip-path="url(#p4a82f4e9ec)">
     <use style="fill:#33991a;" x="210.145637" xlink:href="#C0_0_b6bed6a729" y="174.356754"/>
    </g>
    <g clip-path="url(#p4a82f4e9ec)">
     <use style="fill:#33991a;" x="213.828248" xlink:href="#C0_0_b6bed6a729" y="173.694994"/>
    </g>
    <g clip-path="url(#p4a82f4e9ec)">
     <use style="fill:#33991a;" x="217.51086" xlink:href="#C0_0_b6bed6a729" y="173.250839"/>
    </g>
    <g clip-path="url(#p4a82f4e9ec)">
     <use style="fill:#33991a;" x="221.193471" xlink:href="#C0_0_b6bed6a729" y="172.981257"/>
    </g>
    <g clip-path="url(#p4a82f4e9ec)">
     <use style="fill:#33991a;" x="224.876083" xlink:href="#C0_0_b6bed6a729" y="172.842783"/>
    </g>
    <g clip-path="url(#p4a82f4e9ec)">
     <use style="fill:#33991a;" x="228.558694" xlink:href="#C0_0_b6bed6a729" y="172.791762"/>
    </g>
    <g clip-path="url(#p4a82f4e9ec)">
     <use style="fill:#33991a;" x="232.241306" xlink:href="#C0_0_b6bed6a729" y="172.784473"/>
    </g>
    <g clip-path="url(#p4a82f4e9ec)">
     <use style="fill:#33991a;" x="235.923917" xlink:href="#C0_0_b6bed6a729" y="172.777184"/>
    </g>
    <g clip-path="url(#p4a82f4e9ec)">
     <use style="fill:#33991a;" x="239.606529" xlink:href="#C0_0_b6bed6a729" y="172.726162"/>
    </g>
    <g clip-path="url(#p4a82f4e9ec)">
     <use style="fill:#33991a;" x="243.28914" xlink:href="#C0_0_b6bed6a729" y="172.587689"/>
    </g>
    <g clip-path="url(#p4a82f4e9ec)">
     <use style="fill:#33991a;" x="246.971752" xlink:href="#C0_0_b6bed6a729" y="172.318107"/>
    </g>
    <g clip-path="url(#p4a82f4e9ec)">
     <use style="fill:#33991a;" x="250.654363" xlink:href="#C0_0_b6bed6a729" y="171.873951"/>
    </g>
    <g clip-path="url(#p4a82f4e9ec)">
     <use style="fill:#33991a;" x="254.336975" xlink:href="#C0_0_b6bed6a729" y="171.212192"/>
    </g>
    <g clip-path="url(#p4a82f4e9ec)">
     <use style="fill:#33991a;" x="258.019586" xlink:href="#C0_0_b6bed6a729" y="170.290623"/>
    </g>
    <g clip-path="url(#p4a82f4e9ec)">
     <use style="fill:#33991a;" x="261.702198" xlink:href="#C0_0_b6bed6a729" y="169.06845"/>
    </g>
    <g clip-path="url(#p4a82f4e9ec)">
     <use style="fill:#33991a;" x="265.384809" xlink:href="#C0_0_b6bed6a729" y="167.507094"/>
    </g>
    <g clip-path="url(#p4a82f4e9ec)">
     <use style="fill:#33991a;" x="269.067421" xlink:href="#C0_0_b6bed6a729" y="165.571246"/>
    </g>
    <g clip-path="url(#p4a82f4e9ec)">
     <use style="fill:#33991a;" x="272.750032" xlink:href="#C0_0_b6bed6a729" y="163.230208"/>
    </g>
    <g clip-path="url(#p4a82f4e9ec)">
     <use style="fill:#33991a;" x="276.432644" xlink:href="#C0_0_b6bed6a729" y="160.459525"/>
    </g>
    <g clip-path="url(#p4a82f4e9ec)">
     <use style="fill:#33991a;" x="280.115255" xlink:href="#C0_0_b6bed6a729" y="157.242915"/>
    </g>
    <g clip-path="url(#p4a82f4e9ec)">
     <use style="fill:#33991a;" x="283.797867" xlink:href="#C0_0_b6bed6a729" y="153.574498"/>
    </g>
    <g clip-path="url(#p4a82f4e9ec)">
     <use style="fill:#33991a;" x="287.480478" xlink:href="#C0_0_b6bed6a729" y="149.461282"/>
    </g>
    <g clip-path="url(#p4a82f4e9ec)">
     <use style="fill:#33991a;" x="291.16309" xlink:href="#C0_0_b6bed6a729" y="144.925864"/>
    </g>
    <g clip-path="url(#p4a82f4e9ec)">
     <use style="fill:#33991a;" x="294.845701" xlink:href="#C0_0_b6bed6a729" y="140.00926"/>
    </g>
    <g clip-path="url(#p4a82f4e9ec)">
     <use style="fill:#33991a;" x="298.528313" xlink:href="#C0_0_b6bed6a729" y="134.773739"/>
    </g>
    <g clip-path="url(#p4a82f4e9ec)">
     <use style="fill:#33991a;" x="302.210924" xlink:href="#C0_0_b6bed6a729" y="129.30553"/>
    </g>
    <g clip-path="url(#p4a82f4e9ec)">
     <use style="fill:#33991a;" x="305.893536" xlink:href="#C0_0_b6bed6a729" y="123.71718"/>
    </g>
    <g clip-path="url(#p4a82f4e9ec)">
     <use style="fill:#33991a;" x="309.576147" xlink:href="#C0_0_b6bed6a729" y="118.149352"/>
    </g>
    <g clip-path="url(#p4a82f4e9ec)">
     <use style="fill:#33991a;" x="313.258759" xlink:href="#C0_0_b6bed6a729" y="112.771758"/>
    </g>
    <g clip-path="url(#p4a82f4e9ec)">
     <use style="fill:#33991a;" x="316.94137" xlink:href="#C0_0_b6bed6a729" y="107.782944"/>
    </g>
    <g clip-path="url(#p4a82f4e9ec)">
     <use style="fill:#33991a;" x="320.623982" xlink:href="#C0_0_b6bed6a729" y="103.408567"/>
    </g>
    <g clip-path="url(#p4a82f4e9ec)">
     <use style="fill:#33991a;" x="324.306593" xlink:href="#C0_0_b6bed6a729" y="99.897818"/>
    </g>
    <g clip-path="url(#p4a82f4e9ec)">
     <use style="fill:#33991a;" x="327.989205" xlink:href="#C0_0_b6bed6a729" y="97.51768"/>
    </g>
    <g clip-path="url(#p4a82f4e9ec)">
     <use style="fill:#33991a;" x="331.671816" xlink:href="#C0_0_b6bed6a729" y="96.544691"/>
    </g>
    <g clip-path="url(#p4a82f4e9ec)">
     <use style="fill:#33991a;" x="335.354428" xlink:href="#C0_0_b6bed6a729" y="97.254032"/>
    </g>
    <g clip-path="url(#p4a82f4e9ec)">
     <use style="fill:#33991a;" x="339.037039" xlink:href="#C0_0_b6bed6a729" y="99.905829"/>
    </g>
    <g clip-path="url(#p4a82f4e9ec)">
     <use style="fill:#33991a;" x="342.719651" xlink:href="#C0_0_b6bed6a729" y="104.728748"/>
    </g>
    <g clip-path="url(#p4a82f4e9ec)">
     <use style="fill:#33991a;" x="346.402262" xlink:href="#C0_0_b6bed6a729" y="111.901189"/>
    </g>
    <g clip-path="url(#p4a82f4e9ec)">
     <use style="fill:#33991a;" x="350.084874" xlink:href="#C0_0_b6bed6a729" y="121.530639"/>
    </g>
    <g clip-path="url(#p4a82f4e9ec)">
     <use style="fill:#33991a;" x="353.767485" xlink:href="#C0_0_b6bed6a729" y="133.632061"/>
    </g>
    <g clip-path="url(#p4a82f4e9ec)">
     <use style="fill:#33991a;" x="357.450097" xlink:href="#C0_0_b6bed6a729" y="148.106562"/>
    </g>
    <g clip-path="url(#p4a82f4e9ec)">
     <use style="fill:#33991a;" x="361.132708" xlink:href="#C0_0_b6bed6a729" y="164.721889"/>
    </g>
    <g clip-path="url(#p4a82f4e9ec)">
     <use style="fill:#33991a;" x="364.81532" xlink:href="#C0_0_b6bed6a729" y="183.096684"/>
    </g>
    <g clip-path="url(#p4a82f4e9ec)">
     <use style="fill:#33991a;" x="368.497931" xlink:href="#C0_0_b6bed6a729" y="202.690661"/>
    </g>
    <g clip-path="url(#p4a82f4e9ec)">
     <use style="fill:#33991a;" x="372.180543" xlink:href="#C0_0_b6bed6a729" y="222.803053"/>
    </g>
    <g clip-path="url(#p4a82f4e9ec)">
     <use style="fill:#33991a;" x="375.863154" xlink:href="#C0_0_b6bed6a729" y="242.581685"/>
    </g>
    <g clip-path="url(#p4a82f4e9ec)">
     <use style="fill:#33991a;" x="379.545766" xlink:href="#C0_0_b6bed6a729" y="261.044793"/>
    </g>
    <g clip-path="url(#p4a82f4e9ec)">
     <use style="fill:#33991a;" x="383.228378" xlink:href="#C0_0_b6bed6a729" y="277.117282"/>
    </g>
    <g clip-path="url(#p4a82f4e9ec)">
     <use style="fill:#33991a;" x="386.910989" xlink:href="#C0_0_b6bed6a729" y="289.682265"/>
    </g>
    <g clip-path="url(#p4a82f4e9ec)">
     <use style="fill:#33991a;" x="390.593601" xlink:href="#C0_0_b6bed6a729" y="297.64768"/>
    </g>
    <g clip-path="url(#p4a82f4e9ec)">
     <use style="fill:#33991a;" x="394.276212" xlink:href="#C0_0_b6bed6a729" y="300.026284"/>
    </g>
    <g clip-path="url(#p4a82f4e9ec)">
     <use style="fill:#33991a;" x="397.958824" xlink:href="#C0_0_b6bed6a729" y="296.025641"/>
    </g>
    <g clip-path="url(#p4a82f4e9ec)">
     <use style="fill:#33991a;" x="401.641435" xlink:href="#C0_0_b6bed6a729" y="285.142815"/>
    </g>
    <g clip-path="url(#p4a82f4e9ec)">
     <use style="fill:#33991a;" x="405.324047" xlink:href="#C0_0_b6bed6a729" y="267.256545"/>
    </g>
    <g clip-path="url(#p4a82f4e9ec)">
     <use style="fill:#33991a;" x="409.006658" xlink:href="#C0_0_b6bed6a729" y="242.707952"/>
    </g>
    <g clip-path="url(#p4a82f4e9ec)">
     <use style="fill:#33991a;" x="412.68927" xlink:href="#C0_0_b6bed6a729" y="212.359486"/>
    </g>
    <g clip-path="url(#p4a82f4e9ec)">
     <use style="fill:#33991a;" x="416.371881" xlink:href="#C0_0_b6bed6a729" y="177.621283"/>
    </g>
    <g clip-path="url(#p4a82f4e9ec)">
     <use style="fill:#33991a;" x="420.054493" xlink:href="#C0_0_b6bed6a729" y="140.434513"/>
    </g>
    <g clip-path="url(#p4a82f4e9ec)">
     <use style="fill:#33991a;" x="423.737104" xlink:href="#C0_0_b6bed6a729" y="103.203086"/>
    </g>
    <g clip-path="url(#p4a82f4e9ec)">
     <use style="fill:#33991a;" x="427.419716" xlink:href="#C0_0_b6bed6a729" y="68.668342"/>
    </g>
    <g clip-path="url(#p4a82f4e9ec)">
     <use style="fill:#33991a;" x="431.102327" xlink:href="#C0_0_b6bed6a729" y="39.726168"/>
    </g>
    <g clip-path="url(#p4a82f4e9ec)">
     <use style="fill:#33991a;" x="434.784939" xlink:href="#C0_0_b6bed6a729" y="19.192274"/>
    </g>
    <g clip-path="url(#p4a82f4e9ec)">
     <use style="fill:#33991a;" x="438.46755" xlink:href="#C0_0_b6bed6a729" y="9.528706"/>
    </g>
    <g clip-path="url(#p4a82f4e9ec)">
     <use style="fill:#33991a;" x="442.150162" xlink:href="#C0_0_b6bed6a729" y="12.552497"/>
    </g>
    <g clip-path="url(#p4a82f4e9ec)">
     <use style="fill:#33991a;" x="445.832773" xlink:href="#C0_0_b6bed6a729" y="29.154698"/>
    </g>
    <g clip-path="url(#p4a82f4e9ec)">
     <use style="fill:#33991a;" x="449.515385" xlink:href="#C0_0_b6bed6a729" y="59.063859"/>
    </g>
   </g>
   <g id="matplotlib.axis_1">
    <g id="xtick_1">
     <g id="line2d_1">
      <defs>
       <path d="M 0 0 
L 0 3.5 
" id="m0ec0cb9403" style="stroke:#000000;stroke-width:0.8;"/>
      </defs>
      <g>
       <use style="stroke:#000000;stroke-width:0.8;" x="11.284615" xlink:href="#m0ec0cb9403" y="172.784473"/>
      </g>
     </g>
     <g id="text_1">
      <!-- -3 -->
      <defs>
       <path d="M 4.890625 31.390625 
L 31.203125 31.390625 
L 31.203125 23.390625 
L 4.890625 23.390625 
z
" id="DejaVuSans-2d"/>
       <path d="M 40.578125 39.3125 
Q 47.65625 37.796875 51.625 33 
Q 55.609375 28.21875 55.609375 21.1875 
Q 55.609375 10.40625 48.1875 4.484375 
Q 40.765625 -1.421875 27.09375 -1.421875 
Q 22.515625 -1.421875 17.65625 -0.515625 
Q 12.796875 0.390625 7.625 2.203125 
L 7.625 11.71875 
Q 11.71875 9.328125 16.59375 8.109375 
Q 21.484375 6.890625 26.8125 6.890625 
Q 36.078125 6.890625 40.9375 10.546875 
Q 45.796875 14.203125 45.796875 21.1875 
Q 45.796875 27.640625 41.28125 31.265625 
Q 36.765625 34.90625 28.71875 34.90625 
L 20.21875 34.90625 
L 20.21875 43.015625 
L 29.109375 43.015625 
Q 36.375 43.015625 40.234375 45.921875 
Q 44.09375 48.828125 44.09375 54.296875 
Q 44.09375 59.90625 40.109375 62.90625 
Q 36.140625 65.921875 28.71875 65.921875 
Q 24.65625 65.921875 20.015625 65.03125 
Q 15.375 64.15625 9.8125 62.3125 
L 9.8125 71.09375 
Q 15.4375 72.65625 20.34375 73.4375 
Q 25.25 74.21875 29.59375 74.21875 
Q 40.828125 74.21875 47.359375 69.109375 
Q 53.90625 64.015625 53.90625 55.328125 
Q 53.90625 49.265625 50.4375 45.09375 
Q 46.96875 40.921875 40.578125 39.3125 
z
" id="DejaVuSans-33"/>
      </defs>
      <g transform="translate(6.299459 187.38291)scale(0.1 -0.1)">
       <use xlink:href="#DejaVuSans-2d"/>
       <use x="36.083984" xlink:href="#DejaVuSans-33"/>
      </g>
     </g>
    </g>
    <g id="xtick_2">
     <g id="line2d_2">
      <g>
       <use style="stroke:#000000;stroke-width:0.8;" x="84.936846" xlink:href="#m0ec0cb9403" y="172.784473"/>
      </g>
     </g>
     <g id="text_2">
      <!-- -2 -->
      <defs>
       <path d="M 19.1875 8.296875 
L 53.609375 8.296875 
L 53.609375 0 
L 7.328125 0 
L 7.328125 8.296875 
Q 12.9375 14.109375 22.625 23.890625 
Q 32.328125 33.6875 34.8125 36.53125 
Q 39.546875 41.84375 41.421875 45.53125 
Q 43.3125 49.21875 43.3125 52.78125 
Q 43.3125 58.59375 39.234375 62.25 
Q 35.15625 65.921875 28.609375 65.921875 
Q 23.96875 65.921875 18.8125 64.3125 
Q 13.671875 62.703125 7.8125 59.421875 
L 7.8125 69.390625 
Q 13.765625 71.78125 18.9375 73 
Q 24.125 74.21875 28.421875 74.21875 
Q 39.75 74.21875 46.484375 68.546875 
Q 53.21875 62.890625 53.21875 53.421875 
Q 53.21875 48.921875 51.53125 44.890625 
Q 49.859375 40.875 45.40625 35.40625 
Q 44.1875 33.984375 37.640625 27.21875 
Q 31.109375 20.453125 19.1875 8.296875 
z
" id="DejaVuSans-32"/>
      </defs>
      <g transform="translate(79.951689 187.38291)scale(0.1 -0.1)">
       <use xlink:href="#DejaVuSans-2d"/>
       <use x="36.083984" xlink:href="#DejaVuSans-32"/>
      </g>
     </g>
    </g>
    <g id="xtick_3">
     <g id="line2d_3">
      <g>
       <use style="stroke:#000000;stroke-width:0.8;" x="158.589076" xlink:href="#m0ec0cb9403" y="172.784473"/>
      </g>
     </g>
     <g id="text_3">
      <!-- -1 -->
      <defs>
       <path d="M 12.40625 8.296875 
L 28.515625 8.296875 
L 28.515625 63.921875 
L 10.984375 60.40625 
L 10.984375 69.390625 
L 28.421875 72.90625 
L 38.28125 72.90625 
L 38.28125 8.296875 
L 54.390625 8.296875 
L 54.390625 0 
L 12.40625 0 
z
" id="DejaVuSans-31"/>
      </defs>
      <g transform="translate(153.603919 187.38291)scale(0.1 -0.1)">
       <use xlink:href="#DejaVuSans-2d"/>
       <use x="36.083984" xlink:href="#DejaVuSans-31"/>
      </g>
     </g>
    </g>
    <g id="xtick_4">
     <g id="line2d_4">
      <g>
       <use style="stroke:#000000;stroke-width:0.8;" x="232.241306" xlink:href="#m0ec0cb9403" y="172.784473"/>
      </g>
     </g>
    </g>
    <g id="xtick_5">
     <g id="line2d_5">
      <g>
       <use style="stroke:#000000;stroke-width:0.8;" x="305.893536" xlink:href="#m0ec0cb9403" y="172.784473"/>
      </g>
     </g>
     <g id="text_4">
      <!-- 1 -->
      <g transform="translate(302.712286 187.38291)scale(0.1 -0.1)">
       <use xlink:href="#DejaVuSans-31"/>
      </g>
     </g>
    </g>
    <g id="xtick_6">
     <g id="line2d_6">
      <g>
       <use style="stroke:#000000;stroke-width:0.8;" x="379.545766" xlink:href="#m0ec0cb9403" y="172.784473"/>
      </g>
     </g>
     <g id="text_5">
      <!-- 2 -->
      <g transform="translate(376.364516 187.38291)scale(0.1 -0.1)">
       <use xlink:href="#DejaVuSans-32"/>
      </g>
     </g>
    </g>
    <g id="xtick_7">
     <g id="line2d_7">
      <g>
       <use style="stroke:#000000;stroke-width:0.8;" x="453.197996" xlink:href="#m0ec0cb9403" y="172.784473"/>
      </g>
     </g>
     <g id="text_6">
      <!-- 3 -->
      <g transform="translate(450.016746 187.38291)scale(0.1 -0.1)">
       <use xlink:href="#DejaVuSans-33"/>
      </g>
     </g>
    </g>
    <g id="xtick_8">
     <g id="line2d_8">
      <defs>
       <path d="M 0 0 
L 0 2 
" id="m95a4229bf5" style="stroke:#000000;stroke-width:0.6;"/>
      </defs>
      <g>
       <use style="stroke:#000000;stroke-width:0.6;" x="26.015061" xlink:href="#m95a4229bf5" y="172.784473"/>
      </g>
     </g>
    </g>
    <g id="xtick_9">
     <g id="line2d_9">
      <g>
       <use style="stroke:#000000;stroke-width:0.6;" x="40.745507" xlink:href="#m95a4229bf5" y="172.784473"/>
      </g>
     </g>
    </g>
    <g id="xtick_10">
     <g id="line2d_10">
      <g>
       <use style="stroke:#000000;stroke-width:0.6;" x="55.475953" xlink:href="#m95a4229bf5" y="172.784473"/>
      </g>
     </g>
    </g>
    <g id="xtick_11">
     <g id="line2d_11">
      <g>
       <use style="stroke:#000000;stroke-width:0.6;" x="70.206399" xlink:href="#m95a4229bf5" y="172.784473"/>
      </g>
     </g>
    </g>
    <g id="xtick_12">
     <g id="line2d_12">
      <g>
       <use style="stroke:#000000;stroke-width:0.6;" x="99.667292" xlink:href="#m95a4229bf5" y="172.784473"/>
      </g>
     </g>
    </g>
    <g id="xtick_13">
     <g id="line2d_13">
      <g>
       <use style="stroke:#000000;stroke-width:0.6;" x="114.397738" xlink:href="#m95a4229bf5" y="172.784473"/>
      </g>
     </g>
    </g>
    <g id="xtick_14">
     <g id="line2d_14">
      <g>
       <use style="stroke:#000000;stroke-width:0.6;" x="129.128184" xlink:href="#m95a4229bf5" y="172.784473"/>
      </g>
     </g>
    </g>
    <g id="xtick_15">
     <g id="line2d_15">
      <g>
       <use style="stroke:#000000;stroke-width:0.6;" x="143.85863" xlink:href="#m95a4229bf5" y="172.784473"/>
      </g>
     </g>
    </g>
    <g id="xtick_16">
     <g id="line2d_16">
      <g>
       <use style="stroke:#000000;stroke-width:0.6;" x="173.319522" xlink:href="#m95a4229bf5" y="172.784473"/>
      </g>
     </g>
    </g>
    <g id="xtick_17">
     <g id="line2d_17">
      <g>
       <use style="stroke:#000000;stroke-width:0.6;" x="188.049968" xlink:href="#m95a4229bf5" y="172.784473"/>
      </g>
     </g>
    </g>
    <g id="xtick_18">
     <g id="line2d_18">
      <g>
       <use style="stroke:#000000;stroke-width:0.6;" x="202.780414" xlink:href="#m95a4229bf5" y="172.784473"/>
      </g>
     </g>
    </g>
    <g id="xtick_19">
     <g id="line2d_19">
      <g>
       <use style="stroke:#000000;stroke-width:0.6;" x="217.51086" xlink:href="#m95a4229bf5" y="172.784473"/>
      </g>
     </g>
    </g>
    <g id="xtick_20">
     <g id="line2d_20">
      <g>
       <use style="stroke:#000000;stroke-width:0.6;" x="246.971752" xlink:href="#m95a4229bf5" y="172.784473"/>
      </g>
     </g>
    </g>
    <g id="xtick_21">
     <g id="line2d_21">
      <g>
       <use style="stroke:#000000;stroke-width:0.6;" x="261.702198" xlink:href="#m95a4229bf5" y="172.784473"/>
      </g>
     </g>
    </g>
    <g id="xtick_22">
     <g id="line2d_22">
      <g>
       <use style="stroke:#000000;stroke-width:0.6;" x="276.432644" xlink:href="#m95a4229bf5" y="172.784473"/>
      </g>
     </g>
    </g>
    <g id="xtick_23">
     <g id="line2d_23">
      <g>
       <use style="stroke:#000000;stroke-width:0.6;" x="291.16309" xlink:href="#m95a4229bf5" y="172.784473"/>
      </g>
     </g>
    </g>
    <g id="xtick_24">
     <g id="line2d_24">
      <g>
       <use style="stroke:#000000;stroke-width:0.6;" x="320.623982" xlink:href="#m95a4229bf5" y="172.784473"/>
      </g>
     </g>
    </g>
    <g id="xtick_25">
     <g id="line2d_25">
      <g>
       <use style="stroke:#000000;stroke-width:0.6;" x="335.354428" xlink:href="#m95a4229bf5" y="172.784473"/>
      </g>
     </g>
    </g>
    <g id="xtick_26">
     <g id="line2d_26">
      <g>
       <use style="stroke:#000000;stroke-width:0.6;" x="350.084874" xlink:href="#m95a4229bf5" y="172.784473"/>
      </g>
     </g>
    </g>
    <g id="xtick_27">
     <g id="line2d_27">
      <g>
       <use style="stroke:#000000;stroke-width:0.6;" x="364.81532" xlink:href="#m95a4229bf5" y="172.784473"/>
      </g>
     </g>
    </g>
    <g id="xtick_28">
     <g id="line2d_28">
      <g>
       <use style="stroke:#000000;stroke-width:0.6;" x="394.276212" xlink:href="#m95a4229bf5" y="172.784473"/>
      </g>
     </g>
    </g>
    <g id="xtick_29">
     <g id="line2d_29">
      <g>
       <use style="stroke:#000000;stroke-width:0.6;" x="409.006658" xlink:href="#m95a4229bf5" y="172.784473"/>
      </g>
     </g>
    </g>
    <g id="xtick_30">
     <g id="line2d_30">
      <g>
       <use style="stroke:#000000;stroke-width:0.6;" x="423.737104" xlink:href="#m95a4229bf5" y="172.784473"/>
      </g>
     </g>
    </g>
    <g id="xtick_31">
     <g id="line2d_31">
      <g>
       <use style="stroke:#000000;stroke-width:0.6;" x="438.46755" xlink:href="#m95a4229bf5" y="172.784473"/>
      </g>
     </g>
    </g>
   </g>
   <g id="matplotlib.axis_2">
    <g id="ytick_1">
     <g id="line2d_32">
      <defs>
       <path d="M 0 0 
L -3.5 0 
" id="mffdb41c38a" style="stroke:#000000;stroke-width:0.8;"/>
      </defs>
      <g>
       <use style="stroke:#000000;stroke-width:0.8;" x="232.241306" xlink:href="#mffdb41c38a" y="289.407134"/>
      </g>
     </g>
     <g id="text_7">
      <!-- -2 -->
      <g transform="translate(215.270993 293.206352)scale(0.1 -0.1)">
       <use xlink:href="#DejaVuSans-2d"/>
       <use x="36.083984" xlink:href="#DejaVuSans-32"/>
      </g>
     </g>
    </g>
    <g id="ytick_2">
     <g id="line2d_33">
      <g>
       <use style="stroke:#000000;stroke-width:0.8;" x="232.241306" xlink:href="#mffdb41c38a" y="231.095803"/>
      </g>
     </g>
     <g id="text_8">
      <!-- -1 -->
      <g transform="translate(215.270993 234.895022)scale(0.1 -0.1)">
       <use xlink:href="#DejaVuSans-2d"/>
       <use x="36.083984" xlink:href="#DejaVuSans-31"/>
      </g>
     </g>
    </g>
    <g id="ytick_3">
     <g id="line2d_34">
      <g>
       <use style="stroke:#000000;stroke-width:0.8;" x="232.241306" xlink:href="#mffdb41c38a" y="172.784473"/>
      </g>
     </g>
    </g>
    <g id="ytick_4">
     <g id="line2d_35">
      <g>
       <use style="stroke:#000000;stroke-width:0.8;" x="232.241306" xlink:href="#mffdb41c38a" y="114.473143"/>
      </g>
     </g>
     <g id="text_9">
      <!-- 1 -->
      <g transform="translate(218.878806 118.272361)scale(0.1 -0.1)">
       <use xlink:href="#DejaVuSans-31"/>
      </g>
     </g>
    </g>
    <g id="ytick_5">
     <g id="line2d_36">
      <g>
       <use style="stroke:#000000;stroke-width:0.8;" x="232.241306" xlink:href="#mffdb41c38a" y="56.161812"/>
      </g>
     </g>
     <g id="text_10">
      <!-- 2 -->
      <g transform="translate(218.878806 59.961031)scale(0.1 -0.1)">
       <use xlink:href="#DejaVuSans-32"/>
      </g>
     </g>
    </g>
    <g id="ytick_6">
     <g id="line2d_37">
      <defs>
       <path d="M 0 0 
L -2 0 
" id="mc0bfef2f15" style="stroke:#000000;stroke-width:0.6;"/>
      </defs>
      <g>
       <use style="stroke:#000000;stroke-width:0.6;" x="232.241306" xlink:href="#mc0bfef2f15" y="336.056198"/>
      </g>
     </g>
    </g>
    <g id="ytick_7">
     <g id="line2d_38">
      <g>
       <use style="stroke:#000000;stroke-width:0.6;" x="232.241306" xlink:href="#mc0bfef2f15" y="324.393932"/>
      </g>
     </g>
    </g>
    <g id="ytick_8">
     <g id="line2d_39">
      <g>
       <use style="stroke:#000000;stroke-width:0.6;" x="232.241306" xlink:href="#mc0bfef2f15" y="312.731666"/>
      </g>
     </g>
    </g>
    <g id="ytick_9">
     <g id="line2d_40">
      <g>
       <use style="stroke:#000000;stroke-width:0.6;" x="232.241306" xlink:href="#mc0bfef2f15" y="301.0694"/>
      </g>
     </g>
    </g>
    <g id="ytick_10">
     <g id="line2d_41">
      <g>
       <use style="stroke:#000000;stroke-width:0.6;" x="232.241306" xlink:href="#mc0bfef2f15" y="277.744867"/>
      </g>
     </g>
    </g>
    <g id="ytick_11">
     <g id="line2d_42">
      <g>
       <use style="stroke:#000000;stroke-width:0.6;" x="232.241306" xlink:href="#mc0bfef2f15" y="266.082601"/>
      </g>
     </g>
    </g>
    <g id="ytick_12">
     <g id="line2d_43">
      <g>
       <use style="stroke:#000000;stroke-width:0.6;" x="232.241306" xlink:href="#mc0bfef2f15" y="254.420335"/>
      </g>
     </g>
    </g>
    <g id="ytick_13">
     <g id="line2d_44">
      <g>
       <use style="stroke:#000000;stroke-width:0.6;" x="232.241306" xlink:href="#mc0bfef2f15" y="242.758069"/>
      </g>
     </g>
    </g>
    <g id="ytick_14">
     <g id="line2d_45">
      <g>
       <use style="stroke:#000000;stroke-width:0.6;" x="232.241306" xlink:href="#mc0bfef2f15" y="219.433537"/>
      </g>
     </g>
    </g>
    <g id="ytick_15">
     <g id="line2d_46">
      <g>
       <use style="stroke:#000000;stroke-width:0.6;" x="232.241306" xlink:href="#mc0bfef2f15" y="207.771271"/>
      </g>
     </g>
    </g>
    <g id="ytick_16">
     <g id="line2d_47">
      <g>
       <use style="stroke:#000000;stroke-width:0.6;" x="232.241306" xlink:href="#mc0bfef2f15" y="196.109005"/>
      </g>
     </g>
    </g>
    <g id="ytick_17">
     <g id="line2d_48">
      <g>
       <use style="stroke:#000000;stroke-width:0.6;" x="232.241306" xlink:href="#mc0bfef2f15" y="184.446739"/>
      </g>
     </g>
    </g>
    <g id="ytick_18">
     <g id="line2d_49">
      <g>
       <use style="stroke:#000000;stroke-width:0.6;" x="232.241306" xlink:href="#mc0bfef2f15" y="161.122207"/>
      </g>
     </g>
    </g>
    <g id="ytick_19">
     <g id="line2d_50">
      <g>
       <use style="stroke:#000000;stroke-width:0.6;" x="232.241306" xlink:href="#mc0bfef2f15" y="149.459941"/>
      </g>
     </g>
    </g>
    <g id="ytick_20">
     <g id="line2d_51">
      <g>
       <use style="stroke:#000000;stroke-width:0.6;" x="232.241306" xlink:href="#mc0bfef2f15" y="137.797675"/>
      </g>
     </g>
    </g>
    <g id="ytick_21">
     <g id="line2d_52">
      <g>
       <use style="stroke:#000000;stroke-width:0.6;" x="232.241306" xlink:href="#mc0bfef2f15" y="126.135409"/>
      </g>
     </g>
    </g>
    <g id="ytick_22">
     <g id="line2d_53">
      <g>
       <use style="stroke:#000000;stroke-width:0.6;" x="232.241306" xlink:href="#mc0bfef2f15" y="102.810876"/>
      </g>
     </g>
    </g>
    <g id="ytick_23">
     <g id="line2d_54">
      <g>
       <use style="stroke:#000000;stroke-width:0.6;" x="232.241306" xlink:href="#mc0bfef2f15" y="91.14861"/>
      </g>
     </g>
    </g>
    <g id="ytick_24">
     <g id="line2d_55">
      <g>
       <use style="stroke:#000000;stroke-width:0.6;" x="232.241306" xlink:href="#mc0bfef2f15" y="79.486344"/>
      </g>
     </g>
    </g>
    <g id="ytick_25">
     <g id="line2d_56">
      <g>
       <use style="stroke:#000000;stroke-width:0.6;" x="232.241306" xlink:href="#mc0bfef2f15" y="67.824078"/>
      </g>
     </g>
    </g>
    <g id="ytick_26">
     <g id="line2d_57">
      <g>
       <use style="stroke:#000000;stroke-width:0.6;" x="232.241306" xlink:href="#mc0bfef2f15" y="44.499546"/>
      </g>
     </g>
    </g>
    <g id="ytick_27">
     <g id="line2d_58">
      <g>
       <use style="stroke:#000000;stroke-width:0.6;" x="232.241306" xlink:href="#mc0bfef2f15" y="32.83728"/>
      </g>
     </g>
    </g>
    <g id="ytick_28">
     <g id="line2d_59">
      <g>
       <use style="stroke:#000000;stroke-width:0.6;" x="232.241306" xlink:href="#mc0bfef2f15" y="21.175014"/>
      </g>
     </g>
    </g>
    <g id="ytick_29">
     <g id="line2d_60">
      <g>
       <use style="stroke:#000000;stroke-width:0.6;" x="232.241306" xlink:href="#mc0bfef2f15" y="9.512748"/>
      </g>
     </g>
    </g>
   </g>
   <g id="line2d_61">
    <path clip-path="url(#p4a82f4e9ec)" d="M 11.443843 246.781122 
L 14.193749 278.472524 
L 15.721745 293.754284 
L 17.1363 305.764997 
L 18.515142 315.556257 
L 19.903465 323.565756 
L 20.950052 328.362236 
L 21.99664 332.064438 
L 22.781581 334.108966 
L 23.479311 335.399631 
L 24.115945 336.151473 
L 24.752579 336.503142 
L 25.389212 336.460583 
L 26.025846 336.02974 
L 26.726744 335.114249 
L 27.427642 333.747856 
L 28.12854 331.943014 
L 29.063071 328.876046 
L 30.188859 324.217881 
L 31.300549 318.64137 
L 32.690161 310.411406 
L 34.357696 298.868699 
L 36.169641 284.544507 
L 38.347261 265.342782 
L 41.011493 239.732969 
L 51.874766 132.484806 
L 54.394718 111.223602 
L 56.565438 94.946054 
L 58.438251 82.609937 
L 60.117559 72.991191 
L 61.650491 65.450581 
L 63.017741 59.743811 
L 64.048906 56.083305 
L 65.218774 52.598293 
L 66.247179 50.117784 
L 67.275583 48.179221 
L 68.114377 46.993552 
L 68.95317 46.156625 
L 69.596312 45.747299 
L 70.239454 45.536634 
L 70.882597 45.521569 
L 71.525739 45.698019 
L 72.234933 46.109455 
L 72.944128 46.742754 
L 74.007919 48.096061 
L 75.020962 49.818007 
L 76.008631 51.883919 
L 76.9963 54.312517 
L 78.335501 58.150089 
L 79.978593 63.645557 
L 81.910479 71.09113 
L 83.887514 79.652409 
L 86.332692 91.30051 
L 88.84655 104.179453 
L 93.417406 128.863572 
L 99.00377 159.013519 
L 102.965884 179.005086 
L 106.078983 193.35272 
L 108.498345 203.496117 
L 110.868724 212.490158 
L 112.783799 219.035732 
L 114.709599 224.950058 
L 116.545983 229.957163 
L 118.266511 234.088734 
L 119.923583 237.559839 
L 121.580655 240.541599 
L 122.931146 242.617178 
L 124.281636 244.382958 
L 126.101396 246.288208 
L 127.220306 247.198857 
L 129.090089 248.297851 
L 130.024981 248.657013 
L 131.642858 248.994216 
L 133.00883 249.012315 
L 134.605047 248.743467 
L 136.104955 248.225116 
L 137.313627 247.633138 
L 139.485261 246.211991 
L 141.411187 244.606115 
L 143.783262 242.24177 
L 146.461615 239.142853 
L 149.372111 235.367923 
L 154.001521 228.765885 
L 169.602191 205.607672 
L 173.708208 200.145518 
L 177.696546 195.298848 
L 181.034121 191.627106 
L 184.711905 188.005929 
L 188.030983 185.124849 
L 191.370058 182.592091 
L 193.998398 180.848923 
L 196.507734 179.382395 
L 199.565668 177.843417 
L 202.200551 176.722902 
L 205.097045 175.69448 
L 208.870984 174.64423 
L 213.577274 173.732702 
L 216.057004 173.40293 
L 222.235986 172.930645 
L 228.681101 172.791059 
L 240.562104 172.700395 
L 246.628862 172.349912 
L 251.475529 171.746746 
L 255.407048 170.973024 
L 257.956986 170.308687 
L 261.20995 169.250638 
L 264.097777 168.09361 
L 266.595155 166.91376 
L 269.109618 165.546769 
L 272.53121 163.381113 
L 275.325762 161.338604 
L 278.333455 158.855541 
L 281.124243 156.282689 
L 283.561467 153.823494 
L 286.685759 150.38567 
L 290.575571 145.676283 
L 293.951894 141.2346 
L 299.167857 133.837959 
L 306.009137 123.541275 
L 313.159502 112.912554 
L 316.414188 108.464963 
L 318.993804 105.253647 
L 321.733857 102.247633 
L 324.098697 100.068462 
L 326.04425 98.617052 
L 327.737533 97.638695 
L 329.531339 96.922993 
L 330.95148 96.611169 
L 332.293676 96.539059 
L 333.767193 96.724857 
L 335.372029 97.26189 
L 337.064313 98.229011 
L 338.565364 99.449353 
L 339.787737 100.706199 
L 341.211165 102.477977 
L 342.835648 104.918069 
L 344.699679 108.284583 
L 346.508495 112.144248 
L 348.317116 116.598496 
L 350.125738 121.651432 
L 351.967776 127.41284 
L 354.419557 136.027067 
L 356.912619 145.853553 
L 359.546317 157.323163 
L 362.388946 170.816418 
L 365.946947 189.017632 
L 370.171041 211.812254 
L 376.045549 243.535648 
L 379.474339 260.705849 
L 381.806172 271.264562 
L 383.94944 279.888671 
L 385.916409 286.69771 
L 387.118177 290.262344 
L 388.65086 294.082225 
L 389.893257 296.534928 
L 390.817007 297.960225 
L 391.736731 299.025231 
L 392.656456 299.724097 
L 393.379685 300.008277 
L 394.102914 300.052142 
L 394.826143 299.849731 
L 395.549371 299.396433 
L 396.410462 298.524092 
L 397.414855 297.041335 
L 398.384804 295.124625 
L 399.320309 292.818674 
L 400.255814 290.061251 
L 401.659072 285.073764 
L 403.108367 278.848057 
L 404.679448 270.88405 
L 406.26296 261.604697 
L 408.026978 249.849184 
L 410.060047 234.566792 
L 412.220473 216.501171 
L 414.414807 196.521178 
L 417.979348 161.557226 
L 425.506526 86.096053 
L 427.769613 65.632428 
L 429.95997 47.931215 
L 431.651895 36.064128 
L 433.011534 27.867911 
L 434.133945 22.097291 
L 435.256355 17.300702 
L 436.338125 13.660784 
L 437.338615 11.201464 
L 438.07997 9.967636 
L 438.821324 9.254065 
L 439.192002 9.095579 
L 439.562679 9.069231 
L 439.933356 9.174861 
L 440.587767 9.683032 
L 441.155236 10.455613 
L 441.825571 11.764629 
L 442.792073 14.409438 
L 443.565275 17.195897 
L 444.531777 21.574707 
L 445.452097 26.728155 
L 446.372418 32.891151 
L 447.781419 43.959164 
L 448.086035 46.535795 
L 448.086035 46.535795 
" style="fill:none;stroke:#0000ff;stroke-linecap:square;"/>
   </g>
   <g id="patch_3">
    <path d="M 232.241306 343.08 
L 232.241306 2.52 
" style="fill:none;stroke:#000000;stroke-linecap:square;stroke-linejoin:miter;stroke-width:0.8;"/>
   </g>
   <g id="patch_4">
    <path d="M 2.52 172.784473 
L 458.28 172.784473 
" style="fill:none;stroke:#000000;stroke-linecap:square;stroke-linejoin:miter;stroke-width:0.8;"/>
   </g>
  </g>
 </g>
 <defs>
  <clipPath id="p4a82f4e9ec">
   <rect height="340.56" width="455.76" x="2.52" y="2.52"/>
  </clipPath>
 </defs>
</svg>
