<?xml version="1.0" encoding="utf-8" standalone="no"?>
<!DOCTYPE svg PUBLIC "-//W3C//DTD SVG 1.1//EN"
  "http://www.w3.org/Graphics/SVG/1.1/DTD/svg11.dtd">
<svg xmlns:xlink="http://www.w3.org/1999/xlink" width="460.8pt" height="345.6pt" viewBox="0 0 460.8 345.6" xmlns="http://www.w3.org/2000/svg" version="1.1">
 <metadata>
  <rdf:RDF xmlns:dc="http://purl.org/dc/elements/1.1/" xmlns:cc="http://creativecommons.org/ns#" xmlns:rdf="http://www.w3.org/1999/02/22-rdf-syntax-ns#">
   <cc:Work>
    <dc:type rdf:resource="http://purl.org/dc/dcmitype/StillImage"/>
    <dc:date>2023-12-06T18:15:02.052265</dc:date>
    <dc:format>image/svg+xml</dc:format>
    <dc:creator>
     <cc:Agent>
      <dc:title>Matplotlib v3.8.0, https://matplotlib.org/</dc:title>
     </cc:Agent>
    </dc:creator>
   </cc:Work>
  </rdf:RDF>
 </metadata>
 <defs>
  <style type="text/css">*{stroke-linejoin: round; stroke-linecap: butt}</style>
 </defs>
 <g id="figure_1">
  <g id="patch_1">
   <path d="M 0 345.6 
L 460.8 345.6 
L 460.8 0 
L 0 0 
z
" style="fill: #ffffff"/>
  </g>
  <g id="axes_1">
   <g id="patch_2">
    <path d="M 17.468825 345.6 
L 443.331175 345.6 
L 443.331175 0 
L 17.468825 0 
z
" style="fill: #ffffff"/>
   </g>
   <g id="patch_3">
    <path d="M 196.468134 131.145271 
L 196.468134 131.145271 
L 196.468134 131.145271 
L 196.468134 131.145271 
L 196.468134 131.145271 
L 196.468134 131.145271 
L 196.468134 131.145271 
L 196.468134 131.145271 
L 196.468134 131.145271 
L 196.468134 131.145271 
L 196.468134 131.145271 
L 196.468134 131.145271 
L 196.468134 131.145271 
L 196.468134 131.145271 
L 196.468134 131.145271 
L 196.468134 131.145271 
L 196.468134 131.145271 
L 196.468134 131.145271 
L 196.468134 131.145271 
L 196.468134 131.145271 
L 196.468134 131.145271 
L 196.468134 131.145271 
L 196.468134 131.145271 
L 196.468134 131.145271 
L 196.468134 131.145271 
L 196.468134 131.145271 
L 196.468134 131.145271 
L 196.468134 131.145271 
L 196.468134 131.145271 
L 196.468134 131.145271 
L 196.468134 131.145271 
L 196.468134 131.145271 
L 196.468134 131.145271 
L 196.468134 131.145271 
L 196.468134 131.145271 
L 196.468134 131.145271 
L 196.468134 131.145271 
L 196.468134 131.145271 
L 196.468134 131.145271 
L 196.468134 131.145271 
L 196.468134 131.145271 
L 196.468134 131.145271 
L 196.468134 131.145271 
L 196.468134 131.145271 
L 196.468134 131.145271 
L 196.468134 131.145271 
L 196.468134 131.145271 
L 196.468134 131.145271 
L 196.468134 131.145271 
L 196.468134 131.145271 
L 196.468134 131.145271 
L 196.468134 131.145271 
L 196.468134 131.145271 
L 196.468134 131.145271 
L 196.468134 131.145271 
L 196.468134 131.145271 
L 196.468134 131.145271 
L 196.468134 131.145271 
L 196.468134 131.145271 
L 196.468134 131.145271 
L 196.468134 131.145271 
L 196.468134 131.145271 
L 196.468134 131.145271 
L 196.468134 131.145271 
L 196.468134 131.145271 
L 196.468134 131.145271 
L 196.468134 131.145271 
L 196.468134 131.145271 
L 196.468134 131.145271 
L 196.468134 131.145271 
L 196.468134 131.145271 
L 196.468134 131.145271 
L 196.468134 131.145271 
L 196.468134 131.145271 
L 196.468134 131.145271 
L 196.468134 131.145271 
L 196.468134 131.145271 
L 196.468134 131.145271 
L 196.468134 131.145271 
L 196.468134 131.145271 
L 196.468134 131.145271 
L 196.468134 131.145271 
L 196.468134 131.145271 
L 196.468134 131.145271 
L 196.468134 131.145271 
L 196.468134 131.145271 
L 196.468134 131.145271 
L 196.468134 131.145271 
L 196.468134 131.145271 
L 196.468134 131.145271 
L 196.468134 131.145271 
L 196.468134 131.145271 
L 196.468134 131.145271 
L 196.468134 131.145271 
L 196.468134 131.145271 
L 196.468134 131.145271 
L 196.468134 131.145271 
L 196.468134 131.145271 
L 196.468134 131.145271 
L 196.468134 131.145271 
L 196.468134 131.145271 
L 196.468134 131.145271 
L 196.468134 131.145271 
L 196.468134 131.145271 
L 196.468134 131.145271 
L 196.468134 131.145271 
L 196.468134 131.145271 
L 196.468134 131.145271 
L 196.468134 131.145271 
L 196.468134 131.145271 
L 196.468134 131.145271 
L 196.468134 131.145271 
L 196.468134 131.145271 
L 196.468134 131.145271 
L 196.468134 131.145271 
L 196.468134 131.145271 
L 196.468134 131.145271 
L 196.468134 131.145271 
L 196.468134 131.145271 
L 196.468134 131.145271 
L 196.468134 131.145271 
L 196.468134 131.145271 
L 196.468134 131.145271 
L 196.468134 131.145271 
L 196.468134 131.145271 
L 196.468134 131.145271 
L 196.468134 131.145271 
L 196.468134 131.145271 
L 196.468134 131.145271 
L 196.468134 131.145271 
L 196.468134 131.145271 
L 196.468134 131.145271 
L 196.468134 131.145271 
L 196.468134 131.145271 
L 196.468134 131.145271 
L 196.468134 131.145271 
L 196.468134 131.145271 
L 196.468134 131.145271 
L 196.468134 131.145271 
L 196.468134 131.145271 
L 196.468134 131.145271 
L 196.468134 131.145271 
L 196.468134 131.145271 
L 196.468134 131.145271 
L 196.468134 131.145271 
L 196.468134 131.145271 
L 196.468134 131.145271 
L 196.468134 131.145271 
L 196.468134 131.145271 
L 196.468134 131.145271 
L 196.468134 131.145271 
L 196.468134 131.145271 
L 196.468134 131.145271 
L 196.468134 131.145271 
L 196.468134 131.145271 
L 196.468134 131.145271 
L 196.468134 131.145271 
L 196.468134 131.145271 
L 196.468134 131.145271 
L 196.468134 131.145271 
L 196.468134 131.145271 
L 196.468134 131.145271 
L 196.468134 131.145271 
L 196.468134 131.145271 
L 196.468134 131.145271 
L 196.468134 131.145271 
L 196.468134 131.145271 
L 196.468134 131.145271 
L 196.468134 131.145271 
L 196.468134 131.145271 
L 196.468134 131.145271 
L 196.468134 131.145271 
L 196.468134 131.145271 
L 196.468134 131.145271 
L 196.468134 131.145271 
L 196.468134 131.145271 
L 196.468134 131.145271 
L 196.468134 131.145271 
L 196.468134 131.145271 
L 196.468134 131.145271 
L 196.468134 131.145271 
L 196.468134 131.145271 
L 196.468134 131.145271 
L 196.468134 131.145271 
L 196.468134 131.145271 
L 196.468134 131.145271 
L 196.468134 131.145271 
L 196.468134 131.145271 
L 196.468134 131.145271 
L 196.468134 131.145271 
L 196.468134 131.145271 
L 196.468134 131.145271 
L 196.468134 131.145271 
L 196.468134 131.145271 
L 196.468134 131.145271 
L 196.468134 131.145271 
L 196.468134 131.145271 
L 196.468134 131.145271 
L 196.468134 131.145271 
L 196.468134 131.145271 
L 196.468134 131.145271 
L 200.105162 131.139965 
L 201.611652 131.130262 
L 202.767597 131.117698 
L 203.742073 131.102819 
L 204.600567 131.085943 
L 205.376664 131.067282 
L 206.754512 131.0252 
L 207.968214 130.977469 
L 209.06525 130.924693 
L 210.073821 130.867316 
L 211.012296 130.805682 
L 212.726509 130.670706 
L 214.274954 130.521477 
L 215.697439 130.359259 
L 217.019871 130.18503 
L 218.476423 129.964967 
L 219.839435 129.730327 
L 222.06387 129.282612 
L 224.099335 128.795949 
L 225.983321 128.273394 
L 227.741689 127.717433 
L 229.15559 127.218702 
L 230.686954 126.622568 
L 232.138847 125.999656 
L 234.835415 124.678563 
L 237.309899 123.254497 
L 239.247559 121.976696 
L 241.050855 120.640469 
L 242.693027 119.282953 
L 244.466856 117.642627 
L 246.104363 115.94044 
L 248.247707 113.377978 
L 249.606847 111.507501 
L 250.982733 109.36381 
L 252.555239 106.504597 
L 253.261661 105.030231 
L 254.96849 100.721268 
L 255.62522 98.622723 
L 256.629894 94.438982 
L 256.746863 93.816095 
L 257.451216 88.153031 
L 257.534054 86.659465 
L 257.58117 84.190381 
L 257.350348 79.254756 
L 256.930283 75.747731 
L 256.547959 73.483761 
L 256.104764 71.334854 
L 255.550367 69.060284 
L 253.981913 63.949819 
L 253.036349 61.417891 
L 252.0461 59.044928 
L 250.946551 56.659505 
L 249.191427 53.257511 
L 246.956353 49.455281 
L 245.245981 46.847306 
L 243.704473 44.675422 
L 242.369389 42.910879 
L 239.322458 39.22344 
L 237.286049 36.981761 
L 234.747931 34.397953 
L 232.356486 32.149675 
L 229.404723 29.592214 
L 225.417008 26.46955 
L 224.284249 25.645059 
L 220.828325 23.284165 
L 216.209498 20.459513 
L 212.815416 18.600754 
L 209.264849 16.835375 
L 206.700441 15.666718 
L 202.474784 13.923253 
L 198.034321 12.320609 
L 196.182799 11.7182 
L 189.881337 9.942614 
L 186.675174 9.195149 
L 185.392197 8.92442 
L 180.772151 8.080237 
L 176.08994 7.427699 
L 172.182833 7.034937 
L 167.051845 6.723569 
L 163.975432 6.646193 
L 161.169913 6.646154 
L 156.058902 6.817385 
L 151.268776 7.177268 
L 147.36871 7.612309 
L 139.869501 8.807948 
L 138.89633 8.997942 
L 132.879486 10.352384 
L 129.547389 11.237157 
L 124.823647 12.659246 
L 122.182341 13.541773 
L 116.404362 15.696688 
L 112.945317 17.138291 
L 106.334146 20.22341 
L 102.904217 22.002097 
L 100.403852 23.378898 
L 96.346003 25.763029 
L 92.686152 28.079471 
L 87.082512 31.951894 
L 85.001354 33.49668 
L 82.012526 35.822676 
L 77.600229 39.502718 
L 72.91385 43.761756 
L 71.141069 45.475241 
L 65.232447 51.638508 
L 62.016565 55.318557 
L 59.09068 58.894002 
L 55.803921 63.200712 
L 53.125217 66.9675 
L 50.753317 70.521645 
L 46.868318 76.862551 
L 44.423788 81.245752 
L 43.985689 82.068525 
L 39.974756 90.231659 
L 37.850602 95.117101 
L 37.175397 96.772335 
L 35.552912 100.990708 
L 33.493879 106.947577 
L 32.050465 111.658029 
L 30.720995 116.537333 
L 28.959981 124.206178 
L 28.411737 127.019737 
L 27.656285 131.425082 
L 26.900742 136.808454 
L 26.02822 145.989425 
L 25.729701 152.202635 
L 25.658486 157.359279 
L 25.759368 162.905402 
L 25.951116 166.993797 
L 26.284255 171.57505 
L 26.653443 175.355627 
L 27.30694 180.597841 
L 28.357884 187.156693 
L 30.139041 195.777081 
L 31.07241 199.582912 
L 33.258994 207.336211 
L 34.314673 210.656201 
L 36.700944 217.440471 
L 37.514364 219.568838 
L 40.025952 225.677099 
L 42.723431 231.606409 
L 46.306311 238.706133 
L 48.198196 242.165706 
L 53.006689 250.236893 
L 55.700871 254.378479 
L 58.714156 258.738161 
L 62.523623 263.890138 
L 63.521135 265.17931 
L 67.29841 269.857649 
L 74.84626 278.358331 
L 79.137188 282.75656 
L 82.673348 286.173442 
L 85.457393 288.741728 
L 92.141485 294.506836 
L 96.701739 298.142527 
L 99.854965 300.526588 
L 105.420822 304.493011 
L 109.960015 307.5134 
L 113.958539 310.024192 
L 119.399607 313.227878 
L 127.240594 317.439687 
L 132.712678 320.113159 
L 141.006861 323.774965 
L 143.589418 324.823266 
L 151.257196 327.690093 
L 154.890731 328.924156 
L 164.276036 331.756439 
L 167.36801 332.58055 
L 177.253977 334.865616 
L 181.514809 335.689934 
L 189.001743 336.910078 
L 194.57166 337.632253 
L 198.684467 338.065377 
L 210.869223 338.85643 
L 212.708588 338.912509 
L 221.441558 338.953846 
L 230.862643 338.583082 
L 237.141478 338.09656 
L 238.350262 337.980857 
L 246.149502 337.062446 
L 255.303704 335.601711 
L 260.978739 334.485786 
L 265.517725 333.47565 
L 275.133935 330.983793 
L 280.477974 329.387849 
L 285.444088 327.766083 
L 296.657253 323.596727 
L 301.439119 321.59701 
L 308.900759 318.199671 
L 315.408427 314.949573 
L 319.659753 312.675471 
L 324.732509 309.799346 
L 333.56942 304.343548 
L 334.713054 303.594134 
L 340.78575 299.439047 
L 346.820384 295.002313 
L 356.304377 287.352901 
L 360.400195 283.770114 
L 362.108754 282.221925 
L 371.222057 273.384923 
L 373.792655 270.701326 
L 377.929614 266.187353 
L 385.233659 257.56675 
L 388.48554 253.428361 
L 392.892032 247.48387 
L 396.610323 242.130401 
L 400.250893 236.548704 
L 405.920776 227.067125 
L 407.375558 224.454736 
L 409.978639 219.567737 
L 415.939289 207.140178 
L 416.80446 205.16306 
L 421.214567 194.189324 
L 423.459503 187.883471 
L 424.350199 185.208904 
L 426.322563 178.856618 
L 429.132967 168.441371 
L 431.09364 159.72612 
L 432.174489 154.104968 
L 433.074566 148.737956 
L 433.993965 142.243246 
L 435.141514 131.145271 
z
" clip-path="url(#pf5e705bae0)" style="fill: #808080; opacity: 0.5"/>
   </g>
   <g id="matplotlib.axis_1">
    <g id="xtick_1">
     <g id="line2d_1">
      <defs>
       <path id="m1aa28379a1" d="M 0 0 
L 0 3.5 
" style="stroke: #000000; stroke-width: 0.8"/>
      </defs>
      <g>
       <use xlink:href="#m1aa28379a1" x="53.64278" y="131.145271" style="stroke: #000000; stroke-width: 0.8"/>
      </g>
     </g>
     <g id="text_1">
      <!-- −1.5 -->
      <g transform="translate(41.501374 145.743709) scale(0.1 -0.1)">
       <defs>
        <path id="DejaVuSans-2212" d="M 678 2272 
L 4684 2272 
L 4684 1741 
L 678 1741 
L 678 2272 
z
" transform="scale(0.015625)"/>
        <path id="DejaVuSans-31" d="M 794 531 
L 1825 531 
L 1825 4091 
L 703 3866 
L 703 4441 
L 1819 4666 
L 2450 4666 
L 2450 531 
L 3481 531 
L 3481 0 
L 794 0 
L 794 531 
z
" transform="scale(0.015625)"/>
        <path id="DejaVuSans-2e" d="M 684 794 
L 1344 794 
L 1344 0 
L 684 0 
L 684 794 
z
" transform="scale(0.015625)"/>
        <path id="DejaVuSans-35" d="M 691 4666 
L 3169 4666 
L 3169 4134 
L 1269 4134 
L 1269 2991 
Q 1406 3038 1543 3061 
Q 1681 3084 1819 3084 
Q 2600 3084 3056 2656 
Q 3513 2228 3513 1497 
Q 3513 744 3044 326 
Q 2575 -91 1722 -91 
Q 1428 -91 1123 -41 
Q 819 9 494 109 
L 494 744 
Q 775 591 1075 516 
Q 1375 441 1709 441 
Q 2250 441 2565 725 
Q 2881 1009 2881 1497 
Q 2881 1984 2565 2268 
Q 2250 2553 1709 2553 
Q 1456 2553 1204 2497 
Q 953 2441 691 2322 
L 691 4666 
z
" transform="scale(0.015625)"/>
       </defs>
       <use xlink:href="#DejaVuSans-2212"/>
       <use xlink:href="#DejaVuSans-31" x="83.789062"/>
       <use xlink:href="#DejaVuSans-2e" x="147.412109"/>
       <use xlink:href="#DejaVuSans-35" x="179.199219"/>
      </g>
     </g>
    </g>
    <g id="xtick_2">
     <g id="line2d_2">
      <g>
       <use xlink:href="#m1aa28379a1" x="101.251231" y="131.145271" style="stroke: #000000; stroke-width: 0.8"/>
      </g>
     </g>
     <g id="text_2">
      <!-- −1.0 -->
      <g transform="translate(89.109825 145.743709) scale(0.1 -0.1)">
       <defs>
        <path id="DejaVuSans-30" d="M 2034 4250 
Q 1547 4250 1301 3770 
Q 1056 3291 1056 2328 
Q 1056 1369 1301 889 
Q 1547 409 2034 409 
Q 2525 409 2770 889 
Q 3016 1369 3016 2328 
Q 3016 3291 2770 3770 
Q 2525 4250 2034 4250 
z
M 2034 4750 
Q 2819 4750 3233 4129 
Q 3647 3509 3647 2328 
Q 3647 1150 3233 529 
Q 2819 -91 2034 -91 
Q 1250 -91 836 529 
Q 422 1150 422 2328 
Q 422 3509 836 4129 
Q 1250 4750 2034 4750 
z
" transform="scale(0.015625)"/>
       </defs>
       <use xlink:href="#DejaVuSans-2212"/>
       <use xlink:href="#DejaVuSans-31" x="83.789062"/>
       <use xlink:href="#DejaVuSans-2e" x="147.412109"/>
       <use xlink:href="#DejaVuSans-30" x="179.199219"/>
      </g>
     </g>
    </g>
    <g id="xtick_3">
     <g id="line2d_3">
      <g>
       <use xlink:href="#m1aa28379a1" x="148.859683" y="131.145271" style="stroke: #000000; stroke-width: 0.8"/>
      </g>
     </g>
     <g id="text_3">
      <!-- −0.5 -->
      <g transform="translate(136.718276 145.743709) scale(0.1 -0.1)">
       <use xlink:href="#DejaVuSans-2212"/>
       <use xlink:href="#DejaVuSans-30" x="83.789062"/>
       <use xlink:href="#DejaVuSans-2e" x="147.412109"/>
       <use xlink:href="#DejaVuSans-35" x="179.199219"/>
      </g>
     </g>
    </g>
    <g id="xtick_4">
     <g id="line2d_4">
      <g>
       <use xlink:href="#m1aa28379a1" x="196.468134" y="131.145271" style="stroke: #000000; stroke-width: 0.8"/>
      </g>
     </g>
    </g>
    <g id="xtick_5">
     <g id="line2d_5">
      <g>
       <use xlink:href="#m1aa28379a1" x="244.076585" y="131.145271" style="stroke: #000000; stroke-width: 0.8"/>
      </g>
     </g>
     <g id="text_4">
      <!-- 0.5 -->
      <g transform="translate(236.125023 145.743709) scale(0.1 -0.1)">
       <use xlink:href="#DejaVuSans-30"/>
       <use xlink:href="#DejaVuSans-2e" x="63.623047"/>
       <use xlink:href="#DejaVuSans-35" x="95.410156"/>
      </g>
     </g>
    </g>
    <g id="xtick_6">
     <g id="line2d_6">
      <g>
       <use xlink:href="#m1aa28379a1" x="291.685037" y="131.145271" style="stroke: #000000; stroke-width: 0.8"/>
      </g>
     </g>
     <g id="text_5">
      <!-- 1.0 -->
      <g transform="translate(283.733474 145.743709) scale(0.1 -0.1)">
       <use xlink:href="#DejaVuSans-31"/>
       <use xlink:href="#DejaVuSans-2e" x="63.623047"/>
       <use xlink:href="#DejaVuSans-30" x="95.410156"/>
      </g>
     </g>
    </g>
    <g id="xtick_7">
     <g id="line2d_7">
      <g>
       <use xlink:href="#m1aa28379a1" x="339.293488" y="131.145271" style="stroke: #000000; stroke-width: 0.8"/>
      </g>
     </g>
     <g id="text_6">
      <!-- 1.5 -->
      <g transform="translate(331.341925 145.743709) scale(0.1 -0.1)">
       <use xlink:href="#DejaVuSans-31"/>
       <use xlink:href="#DejaVuSans-2e" x="63.623047"/>
       <use xlink:href="#DejaVuSans-35" x="95.410156"/>
      </g>
     </g>
    </g>
    <g id="xtick_8">
     <g id="line2d_8">
      <g>
       <use xlink:href="#m1aa28379a1" x="386.901939" y="131.145271" style="stroke: #000000; stroke-width: 0.8"/>
      </g>
     </g>
     <g id="text_7">
      <!-- 2.0 -->
      <g transform="translate(378.950377 145.743709) scale(0.1 -0.1)">
       <defs>
        <path id="DejaVuSans-32" d="M 1228 531 
L 3431 531 
L 3431 0 
L 469 0 
L 469 531 
Q 828 903 1448 1529 
Q 2069 2156 2228 2338 
Q 2531 2678 2651 2914 
Q 2772 3150 2772 3378 
Q 2772 3750 2511 3984 
Q 2250 4219 1831 4219 
Q 1534 4219 1204 4116 
Q 875 4013 500 3803 
L 500 4441 
Q 881 4594 1212 4672 
Q 1544 4750 1819 4750 
Q 2544 4750 2975 4387 
Q 3406 4025 3406 3419 
Q 3406 3131 3298 2873 
Q 3191 2616 2906 2266 
Q 2828 2175 2409 1742 
Q 1991 1309 1228 531 
z
" transform="scale(0.015625)"/>
       </defs>
       <use xlink:href="#DejaVuSans-32"/>
       <use xlink:href="#DejaVuSans-2e" x="63.623047"/>
       <use xlink:href="#DejaVuSans-30" x="95.410156"/>
      </g>
     </g>
    </g>
    <g id="xtick_9">
     <g id="line2d_9">
      <g>
       <use xlink:href="#m1aa28379a1" x="434.51039" y="131.145271" style="stroke: #000000; stroke-width: 0.8"/>
      </g>
     </g>
     <g id="text_8">
      <!-- 2.5 -->
      <g transform="translate(426.558828 145.743709) scale(0.1 -0.1)">
       <use xlink:href="#DejaVuSans-32"/>
       <use xlink:href="#DejaVuSans-2e" x="63.623047"/>
       <use xlink:href="#DejaVuSans-35" x="95.410156"/>
      </g>
     </g>
    </g>
    <g id="xtick_10">
     <g id="line2d_10">
      <defs>
       <path id="m167dda3fc8" d="M 0 0 
L 0 2 
" style="stroke: #000000; stroke-width: 0.6"/>
      </defs>
      <g>
       <use xlink:href="#m167dda3fc8" x="25.077709" y="131.145271" style="stroke: #000000; stroke-width: 0.6"/>
      </g>
     </g>
    </g>
    <g id="xtick_11">
     <g id="line2d_11">
      <g>
       <use xlink:href="#m167dda3fc8" x="34.5994" y="131.145271" style="stroke: #000000; stroke-width: 0.6"/>
      </g>
     </g>
    </g>
    <g id="xtick_12">
     <g id="line2d_12">
      <g>
       <use xlink:href="#m167dda3fc8" x="44.12109" y="131.145271" style="stroke: #000000; stroke-width: 0.6"/>
      </g>
     </g>
    </g>
    <g id="xtick_13">
     <g id="line2d_13">
      <g>
       <use xlink:href="#m167dda3fc8" x="63.16447" y="131.145271" style="stroke: #000000; stroke-width: 0.6"/>
      </g>
     </g>
    </g>
    <g id="xtick_14">
     <g id="line2d_14">
      <g>
       <use xlink:href="#m167dda3fc8" x="72.686161" y="131.145271" style="stroke: #000000; stroke-width: 0.6"/>
      </g>
     </g>
    </g>
    <g id="xtick_15">
     <g id="line2d_15">
      <g>
       <use xlink:href="#m167dda3fc8" x="82.207851" y="131.145271" style="stroke: #000000; stroke-width: 0.6"/>
      </g>
     </g>
    </g>
    <g id="xtick_16">
     <g id="line2d_16">
      <g>
       <use xlink:href="#m167dda3fc8" x="91.729541" y="131.145271" style="stroke: #000000; stroke-width: 0.6"/>
      </g>
     </g>
    </g>
    <g id="xtick_17">
     <g id="line2d_17">
      <g>
       <use xlink:href="#m167dda3fc8" x="110.772922" y="131.145271" style="stroke: #000000; stroke-width: 0.6"/>
      </g>
     </g>
    </g>
    <g id="xtick_18">
     <g id="line2d_18">
      <g>
       <use xlink:href="#m167dda3fc8" x="120.294612" y="131.145271" style="stroke: #000000; stroke-width: 0.6"/>
      </g>
     </g>
    </g>
    <g id="xtick_19">
     <g id="line2d_19">
      <g>
       <use xlink:href="#m167dda3fc8" x="129.816302" y="131.145271" style="stroke: #000000; stroke-width: 0.6"/>
      </g>
     </g>
    </g>
    <g id="xtick_20">
     <g id="line2d_20">
      <g>
       <use xlink:href="#m167dda3fc8" x="139.337992" y="131.145271" style="stroke: #000000; stroke-width: 0.6"/>
      </g>
     </g>
    </g>
    <g id="xtick_21">
     <g id="line2d_21">
      <g>
       <use xlink:href="#m167dda3fc8" x="158.381373" y="131.145271" style="stroke: #000000; stroke-width: 0.6"/>
      </g>
     </g>
    </g>
    <g id="xtick_22">
     <g id="line2d_22">
      <g>
       <use xlink:href="#m167dda3fc8" x="167.903063" y="131.145271" style="stroke: #000000; stroke-width: 0.6"/>
      </g>
     </g>
    </g>
    <g id="xtick_23">
     <g id="line2d_23">
      <g>
       <use xlink:href="#m167dda3fc8" x="177.424753" y="131.145271" style="stroke: #000000; stroke-width: 0.6"/>
      </g>
     </g>
    </g>
    <g id="xtick_24">
     <g id="line2d_24">
      <g>
       <use xlink:href="#m167dda3fc8" x="186.946444" y="131.145271" style="stroke: #000000; stroke-width: 0.6"/>
      </g>
     </g>
    </g>
    <g id="xtick_25">
     <g id="line2d_25">
      <g>
       <use xlink:href="#m167dda3fc8" x="205.989824" y="131.145271" style="stroke: #000000; stroke-width: 0.6"/>
      </g>
     </g>
    </g>
    <g id="xtick_26">
     <g id="line2d_26">
      <g>
       <use xlink:href="#m167dda3fc8" x="215.511514" y="131.145271" style="stroke: #000000; stroke-width: 0.6"/>
      </g>
     </g>
    </g>
    <g id="xtick_27">
     <g id="line2d_27">
      <g>
       <use xlink:href="#m167dda3fc8" x="225.033205" y="131.145271" style="stroke: #000000; stroke-width: 0.6"/>
      </g>
     </g>
    </g>
    <g id="xtick_28">
     <g id="line2d_28">
      <g>
       <use xlink:href="#m167dda3fc8" x="234.554895" y="131.145271" style="stroke: #000000; stroke-width: 0.6"/>
      </g>
     </g>
    </g>
    <g id="xtick_29">
     <g id="line2d_29">
      <g>
       <use xlink:href="#m167dda3fc8" x="253.598276" y="131.145271" style="stroke: #000000; stroke-width: 0.6"/>
      </g>
     </g>
    </g>
    <g id="xtick_30">
     <g id="line2d_30">
      <g>
       <use xlink:href="#m167dda3fc8" x="263.119966" y="131.145271" style="stroke: #000000; stroke-width: 0.6"/>
      </g>
     </g>
    </g>
    <g id="xtick_31">
     <g id="line2d_31">
      <g>
       <use xlink:href="#m167dda3fc8" x="272.641656" y="131.145271" style="stroke: #000000; stroke-width: 0.6"/>
      </g>
     </g>
    </g>
    <g id="xtick_32">
     <g id="line2d_32">
      <g>
       <use xlink:href="#m167dda3fc8" x="282.163346" y="131.145271" style="stroke: #000000; stroke-width: 0.6"/>
      </g>
     </g>
    </g>
    <g id="xtick_33">
     <g id="line2d_33">
      <g>
       <use xlink:href="#m167dda3fc8" x="301.206727" y="131.145271" style="stroke: #000000; stroke-width: 0.6"/>
      </g>
     </g>
    </g>
    <g id="xtick_34">
     <g id="line2d_34">
      <g>
       <use xlink:href="#m167dda3fc8" x="310.728417" y="131.145271" style="stroke: #000000; stroke-width: 0.6"/>
      </g>
     </g>
    </g>
    <g id="xtick_35">
     <g id="line2d_35">
      <g>
       <use xlink:href="#m167dda3fc8" x="320.250107" y="131.145271" style="stroke: #000000; stroke-width: 0.6"/>
      </g>
     </g>
    </g>
    <g id="xtick_36">
     <g id="line2d_36">
      <g>
       <use xlink:href="#m167dda3fc8" x="329.771798" y="131.145271" style="stroke: #000000; stroke-width: 0.6"/>
      </g>
     </g>
    </g>
    <g id="xtick_37">
     <g id="line2d_37">
      <g>
       <use xlink:href="#m167dda3fc8" x="348.815178" y="131.145271" style="stroke: #000000; stroke-width: 0.6"/>
      </g>
     </g>
    </g>
    <g id="xtick_38">
     <g id="line2d_38">
      <g>
       <use xlink:href="#m167dda3fc8" x="358.336868" y="131.145271" style="stroke: #000000; stroke-width: 0.6"/>
      </g>
     </g>
    </g>
    <g id="xtick_39">
     <g id="line2d_39">
      <g>
       <use xlink:href="#m167dda3fc8" x="367.858559" y="131.145271" style="stroke: #000000; stroke-width: 0.6"/>
      </g>
     </g>
    </g>
    <g id="xtick_40">
     <g id="line2d_40">
      <g>
       <use xlink:href="#m167dda3fc8" x="377.380249" y="131.145271" style="stroke: #000000; stroke-width: 0.6"/>
      </g>
     </g>
    </g>
    <g id="xtick_41">
     <g id="line2d_41">
      <g>
       <use xlink:href="#m167dda3fc8" x="396.423629" y="131.145271" style="stroke: #000000; stroke-width: 0.6"/>
      </g>
     </g>
    </g>
    <g id="xtick_42">
     <g id="line2d_42">
      <g>
       <use xlink:href="#m167dda3fc8" x="405.94532" y="131.145271" style="stroke: #000000; stroke-width: 0.6"/>
      </g>
     </g>
    </g>
    <g id="xtick_43">
     <g id="line2d_43">
      <g>
       <use xlink:href="#m167dda3fc8" x="415.46701" y="131.145271" style="stroke: #000000; stroke-width: 0.6"/>
      </g>
     </g>
    </g>
    <g id="xtick_44">
     <g id="line2d_44">
      <g>
       <use xlink:href="#m167dda3fc8" x="424.9887" y="131.145271" style="stroke: #000000; stroke-width: 0.6"/>
      </g>
     </g>
    </g>
   </g>
   <g id="matplotlib.axis_2">
    <g id="ytick_1">
     <g id="line2d_45">
      <defs>
       <path id="m8ecce2d764" d="M 0 0 
L -3.5 0 
" style="stroke: #000000; stroke-width: 0.8"/>
      </defs>
      <g>
       <use xlink:href="#m8ecce2d764" x="196.468134" y="321.579077" style="stroke: #000000; stroke-width: 0.8"/>
      </g>
     </g>
     <g id="text_9">
      <!-- −2.0 -->
      <g transform="translate(165.185321 325.378295) scale(0.1 -0.1)">
       <use xlink:href="#DejaVuSans-2212"/>
       <use xlink:href="#DejaVuSans-32" x="83.789062"/>
       <use xlink:href="#DejaVuSans-2e" x="147.412109"/>
       <use xlink:href="#DejaVuSans-30" x="179.199219"/>
      </g>
     </g>
    </g>
    <g id="ytick_2">
     <g id="line2d_46">
      <g>
       <use xlink:href="#m8ecce2d764" x="196.468134" y="273.970625" style="stroke: #000000; stroke-width: 0.8"/>
      </g>
     </g>
     <g id="text_10">
      <!-- −1.5 -->
      <g transform="translate(165.185321 277.769844) scale(0.1 -0.1)">
       <use xlink:href="#DejaVuSans-2212"/>
       <use xlink:href="#DejaVuSans-31" x="83.789062"/>
       <use xlink:href="#DejaVuSans-2e" x="147.412109"/>
       <use xlink:href="#DejaVuSans-35" x="179.199219"/>
      </g>
     </g>
    </g>
    <g id="ytick_3">
     <g id="line2d_47">
      <g>
       <use xlink:href="#m8ecce2d764" x="196.468134" y="226.362174" style="stroke: #000000; stroke-width: 0.8"/>
      </g>
     </g>
     <g id="text_11">
      <!-- −1.0 -->
      <g transform="translate(165.185321 230.161393) scale(0.1 -0.1)">
       <use xlink:href="#DejaVuSans-2212"/>
       <use xlink:href="#DejaVuSans-31" x="83.789062"/>
       <use xlink:href="#DejaVuSans-2e" x="147.412109"/>
       <use xlink:href="#DejaVuSans-30" x="179.199219"/>
      </g>
     </g>
    </g>
    <g id="ytick_4">
     <g id="line2d_48">
      <g>
       <use xlink:href="#m8ecce2d764" x="196.468134" y="178.753723" style="stroke: #000000; stroke-width: 0.8"/>
      </g>
     </g>
     <g id="text_12">
      <!-- −0.5 -->
      <g transform="translate(165.185321 182.552941) scale(0.1 -0.1)">
       <use xlink:href="#DejaVuSans-2212"/>
       <use xlink:href="#DejaVuSans-30" x="83.789062"/>
       <use xlink:href="#DejaVuSans-2e" x="147.412109"/>
       <use xlink:href="#DejaVuSans-35" x="179.199219"/>
      </g>
     </g>
    </g>
    <g id="ytick_5">
     <g id="line2d_49">
      <g>
       <use xlink:href="#m8ecce2d764" x="196.468134" y="131.145271" style="stroke: #000000; stroke-width: 0.8"/>
      </g>
     </g>
    </g>
    <g id="ytick_6">
     <g id="line2d_50">
      <g>
       <use xlink:href="#m8ecce2d764" x="196.468134" y="83.53682" style="stroke: #000000; stroke-width: 0.8"/>
      </g>
     </g>
     <g id="text_13">
      <!-- 0.5 -->
      <g transform="translate(173.565009 87.336039) scale(0.1 -0.1)">
       <use xlink:href="#DejaVuSans-30"/>
       <use xlink:href="#DejaVuSans-2e" x="63.623047"/>
       <use xlink:href="#DejaVuSans-35" x="95.410156"/>
      </g>
     </g>
    </g>
    <g id="ytick_7">
     <g id="line2d_51">
      <g>
       <use xlink:href="#m8ecce2d764" x="196.468134" y="35.928369" style="stroke: #000000; stroke-width: 0.8"/>
      </g>
     </g>
     <g id="text_14">
      <!-- 1.0 -->
      <g transform="translate(173.565009 39.727588) scale(0.1 -0.1)">
       <use xlink:href="#DejaVuSans-31"/>
       <use xlink:href="#DejaVuSans-2e" x="63.623047"/>
       <use xlink:href="#DejaVuSans-30" x="95.410156"/>
      </g>
     </g>
    </g>
    <g id="ytick_8">
     <g id="line2d_52">
      <defs>
       <path id="m91d8d04721" d="M 0 0 
L -2 0 
" style="stroke: #000000; stroke-width: 0.6"/>
      </defs>
      <g>
       <use xlink:href="#m91d8d04721" x="196.468134" y="340.622457" style="stroke: #000000; stroke-width: 0.6"/>
      </g>
     </g>
    </g>
    <g id="ytick_9">
     <g id="line2d_53">
      <g>
       <use xlink:href="#m91d8d04721" x="196.468134" y="331.100767" style="stroke: #000000; stroke-width: 0.6"/>
      </g>
     </g>
    </g>
    <g id="ytick_10">
     <g id="line2d_54">
      <g>
       <use xlink:href="#m91d8d04721" x="196.468134" y="312.057386" style="stroke: #000000; stroke-width: 0.6"/>
      </g>
     </g>
    </g>
    <g id="ytick_11">
     <g id="line2d_55">
      <g>
       <use xlink:href="#m91d8d04721" x="196.468134" y="302.535696" style="stroke: #000000; stroke-width: 0.6"/>
      </g>
     </g>
    </g>
    <g id="ytick_12">
     <g id="line2d_56">
      <g>
       <use xlink:href="#m91d8d04721" x="196.468134" y="293.014006" style="stroke: #000000; stroke-width: 0.6"/>
      </g>
     </g>
    </g>
    <g id="ytick_13">
     <g id="line2d_57">
      <g>
       <use xlink:href="#m91d8d04721" x="196.468134" y="283.492316" style="stroke: #000000; stroke-width: 0.6"/>
      </g>
     </g>
    </g>
    <g id="ytick_14">
     <g id="line2d_58">
      <g>
       <use xlink:href="#m91d8d04721" x="196.468134" y="264.448935" style="stroke: #000000; stroke-width: 0.6"/>
      </g>
     </g>
    </g>
    <g id="ytick_15">
     <g id="line2d_59">
      <g>
       <use xlink:href="#m91d8d04721" x="196.468134" y="254.927245" style="stroke: #000000; stroke-width: 0.6"/>
      </g>
     </g>
    </g>
    <g id="ytick_16">
     <g id="line2d_60">
      <g>
       <use xlink:href="#m91d8d04721" x="196.468134" y="245.405555" style="stroke: #000000; stroke-width: 0.6"/>
      </g>
     </g>
    </g>
    <g id="ytick_17">
     <g id="line2d_61">
      <g>
       <use xlink:href="#m91d8d04721" x="196.468134" y="235.883864" style="stroke: #000000; stroke-width: 0.6"/>
      </g>
     </g>
    </g>
    <g id="ytick_18">
     <g id="line2d_62">
      <g>
       <use xlink:href="#m91d8d04721" x="196.468134" y="216.840484" style="stroke: #000000; stroke-width: 0.6"/>
      </g>
     </g>
    </g>
    <g id="ytick_19">
     <g id="line2d_63">
      <g>
       <use xlink:href="#m91d8d04721" x="196.468134" y="207.318794" style="stroke: #000000; stroke-width: 0.6"/>
      </g>
     </g>
    </g>
    <g id="ytick_20">
     <g id="line2d_64">
      <g>
       <use xlink:href="#m91d8d04721" x="196.468134" y="197.797103" style="stroke: #000000; stroke-width: 0.6"/>
      </g>
     </g>
    </g>
    <g id="ytick_21">
     <g id="line2d_65">
      <g>
       <use xlink:href="#m91d8d04721" x="196.468134" y="188.275413" style="stroke: #000000; stroke-width: 0.6"/>
      </g>
     </g>
    </g>
    <g id="ytick_22">
     <g id="line2d_66">
      <g>
       <use xlink:href="#m91d8d04721" x="196.468134" y="169.232032" style="stroke: #000000; stroke-width: 0.6"/>
      </g>
     </g>
    </g>
    <g id="ytick_23">
     <g id="line2d_67">
      <g>
       <use xlink:href="#m91d8d04721" x="196.468134" y="159.710342" style="stroke: #000000; stroke-width: 0.6"/>
      </g>
     </g>
    </g>
    <g id="ytick_24">
     <g id="line2d_68">
      <g>
       <use xlink:href="#m91d8d04721" x="196.468134" y="150.188652" style="stroke: #000000; stroke-width: 0.6"/>
      </g>
     </g>
    </g>
    <g id="ytick_25">
     <g id="line2d_69">
      <g>
       <use xlink:href="#m91d8d04721" x="196.468134" y="140.666962" style="stroke: #000000; stroke-width: 0.6"/>
      </g>
     </g>
    </g>
    <g id="ytick_26">
     <g id="line2d_70">
      <g>
       <use xlink:href="#m91d8d04721" x="196.468134" y="121.623581" style="stroke: #000000; stroke-width: 0.6"/>
      </g>
     </g>
    </g>
    <g id="ytick_27">
     <g id="line2d_71">
      <g>
       <use xlink:href="#m91d8d04721" x="196.468134" y="112.101891" style="stroke: #000000; stroke-width: 0.6"/>
      </g>
     </g>
    </g>
    <g id="ytick_28">
     <g id="line2d_72">
      <g>
       <use xlink:href="#m91d8d04721" x="196.468134" y="102.580201" style="stroke: #000000; stroke-width: 0.6"/>
      </g>
     </g>
    </g>
    <g id="ytick_29">
     <g id="line2d_73">
      <g>
       <use xlink:href="#m91d8d04721" x="196.468134" y="93.05851" style="stroke: #000000; stroke-width: 0.6"/>
      </g>
     </g>
    </g>
    <g id="ytick_30">
     <g id="line2d_74">
      <g>
       <use xlink:href="#m91d8d04721" x="196.468134" y="74.01513" style="stroke: #000000; stroke-width: 0.6"/>
      </g>
     </g>
    </g>
    <g id="ytick_31">
     <g id="line2d_75">
      <g>
       <use xlink:href="#m91d8d04721" x="196.468134" y="64.49344" style="stroke: #000000; stroke-width: 0.6"/>
      </g>
     </g>
    </g>
    <g id="ytick_32">
     <g id="line2d_76">
      <g>
       <use xlink:href="#m91d8d04721" x="196.468134" y="54.971749" style="stroke: #000000; stroke-width: 0.6"/>
      </g>
     </g>
    </g>
    <g id="ytick_33">
     <g id="line2d_77">
      <g>
       <use xlink:href="#m91d8d04721" x="196.468134" y="45.450059" style="stroke: #000000; stroke-width: 0.6"/>
      </g>
     </g>
    </g>
    <g id="ytick_34">
     <g id="line2d_78">
      <g>
       <use xlink:href="#m91d8d04721" x="196.468134" y="26.406679" style="stroke: #000000; stroke-width: 0.6"/>
      </g>
     </g>
    </g>
    <g id="ytick_35">
     <g id="line2d_79">
      <g>
       <use xlink:href="#m91d8d04721" x="196.468134" y="16.884988" style="stroke: #000000; stroke-width: 0.6"/>
      </g>
     </g>
    </g>
    <g id="ytick_36">
     <g id="line2d_80">
      <g>
       <use xlink:href="#m91d8d04721" x="196.468134" y="7.363298" style="stroke: #000000; stroke-width: 0.6"/>
      </g>
     </g>
    </g>
   </g>
   <g id="line2d_81">
    <path d="M 196.468134 131.145271 
L 206.754512 131.0252 
L 211.012296 130.805682 
L 215.697439 130.359259 
L 219.839435 129.730327 
L 224.099335 128.795949 
L 227.741689 127.717433 
L 230.686954 126.622568 
L 232.138847 125.999656 
L 234.835415 124.678563 
L 237.309899 123.254497 
L 239.247559 121.976696 
L 241.050855 120.640469 
L 242.693027 119.282953 
L 244.466856 117.642627 
L 246.104363 115.94044 
L 248.247707 113.377978 
L 249.606847 111.507501 
L 250.982733 109.36381 
L 253.261661 105.030231 
L 254.96849 100.721268 
L 255.62522 98.622723 
L 256.746863 93.816095 
L 257.534054 86.659465 
L 257.58117 84.190381 
L 257.350348 79.254756 
L 256.547959 73.483761 
L 255.550367 69.060284 
L 253.981913 63.949819 
L 252.0461 59.044928 
L 250.946551 56.659505 
L 249.191427 53.257511 
L 246.956353 49.455281 
L 243.704473 44.675422 
L 242.369389 42.910879 
L 239.322458 39.22344 
L 237.286049 36.981761 
L 234.747931 34.397953 
L 232.356486 32.149675 
L 229.404723 29.592214 
L 224.284249 25.645059 
L 220.828325 23.284165 
L 216.209498 20.459513 
L 212.815416 18.600754 
L 206.700441 15.666718 
L 202.474784 13.923253 
L 196.182799 11.7182 
L 189.881337 9.942614 
L 185.392197 8.92442 
L 180.772151 8.080237 
L 176.08994 7.427699 
L 172.182833 7.034937 
L 163.975432 6.646193 
L 161.169913 6.646154 
L 156.058902 6.817385 
L 151.268776 7.177268 
L 147.36871 7.612309 
L 138.89633 8.997942 
L 132.879486 10.352384 
L 129.547389 11.237157 
L 122.182341 13.541773 
L 116.404362 15.696688 
L 112.945317 17.138291 
L 106.334146 20.22341 
L 100.403852 23.378898 
L 96.346003 25.763029 
L 92.686152 28.079471 
L 85.001354 33.49668 
L 82.012526 35.822676 
L 77.600229 39.502718 
L 71.141069 45.475241 
L 65.232447 51.638508 
L 62.016565 55.318557 
L 59.09068 58.894002 
L 55.803921 63.200712 
L 53.125217 66.9675 
L 50.753317 70.521645 
L 46.868318 76.862551 
L 43.985689 82.068525 
L 39.974756 90.231659 
L 37.175397 96.772335 
L 35.552912 100.990708 
L 33.493879 106.947577 
L 32.050465 111.658029 
L 30.720995 116.537333 
L 28.411737 127.019737 
L 27.656285 131.425082 
L 26.900742 136.808454 
L 26.02822 145.989425 
L 25.729701 152.202635 
L 25.658486 157.359279 
L 25.759368 162.905402 
L 25.951116 166.993797 
L 26.653443 175.355627 
L 27.30694 180.597841 
L 28.357884 187.156693 
L 30.139041 195.777081 
L 31.07241 199.582912 
L 33.258994 207.336211 
L 34.314673 210.656201 
L 37.514364 219.568838 
L 40.025952 225.677099 
L 42.723431 231.606409 
L 46.306311 238.706133 
L 48.198196 242.165706 
L 53.006689 250.236893 
L 55.700871 254.378479 
L 58.714156 258.738161 
L 63.521135 265.17931 
L 67.29841 269.857649 
L 74.84626 278.358331 
L 79.137188 282.75656 
L 85.457393 288.741728 
L 92.141485 294.506836 
L 99.854965 300.526588 
L 105.420822 304.493011 
L 109.960015 307.5134 
L 113.958539 310.024192 
L 119.399607 313.227878 
L 127.240594 317.439687 
L 132.712678 320.113159 
L 143.589418 324.823266 
L 151.257196 327.690093 
L 154.890731 328.924156 
L 167.36801 332.58055 
L 177.253977 334.865616 
L 181.514809 335.689934 
L 189.001743 336.910078 
L 198.684467 338.065377 
L 212.708588 338.912509 
L 221.441558 338.953846 
L 230.862643 338.583082 
L 238.350262 337.980857 
L 246.149502 337.062446 
L 255.303704 335.601711 
L 260.978739 334.485786 
L 265.517725 333.47565 
L 275.133935 330.983793 
L 280.477974 329.387849 
L 285.444088 327.766083 
L 296.657253 323.596727 
L 301.439119 321.59701 
L 308.900759 318.199671 
L 315.408427 314.949573 
L 319.659753 312.675471 
L 324.732509 309.799346 
L 334.713054 303.594134 
L 340.78575 299.439047 
L 346.820384 295.002313 
L 356.304377 287.352901 
L 362.108754 282.221925 
L 371.222057 273.384923 
L 373.792655 270.701326 
L 377.929614 266.187353 
L 385.233659 257.56675 
L 388.48554 253.428361 
L 392.892032 247.48387 
L 396.610323 242.130401 
L 400.250893 236.548704 
L 407.375558 224.454736 
L 409.978639 219.567737 
L 416.80446 205.16306 
L 421.214567 194.189324 
L 424.350199 185.208904 
L 426.322563 178.856618 
L 429.132967 168.441371 
L 431.09364 159.72612 
L 432.174489 154.104968 
L 433.074566 148.737956 
L 433.993965 142.243246 
L 435.141514 131.145271 
L 435.141514 131.145271 
" clip-path="url(#pf5e705bae0)" style="fill: none; stroke: #0000ff; stroke-linecap: square"/>
   </g>
   <g id="patch_4">
    <path d="M 196.468134 345.6 
L 196.468134 0 
" style="fill: none; stroke: #000000; stroke-width: 0.8; stroke-linejoin: miter; stroke-linecap: square"/>
   </g>
   <g id="patch_5">
    <path d="M 17.468825 131.145271 
L 443.331175 131.145271 
" style="fill: none; stroke: #000000; stroke-width: 0.8; stroke-linejoin: miter; stroke-linecap: square"/>
   </g>
  </g>
 </g>
 <defs>
  <clipPath id="pf5e705bae0">
   <rect x="17.468825" y="0" width="425.86235" height="345.6"/>
  </clipPath>
 </defs>
</svg>
