<?xml version="1.0" encoding="utf-8" standalone="no"?>
<!DOCTYPE svg PUBLIC "-//W3C//DTD SVG 1.1//EN"
  "http://www.w3.org/Graphics/SVG/1.1/DTD/svg11.dtd">
<svg xmlns:xlink="http://www.w3.org/1999/xlink" width="460.8pt" height="345.6pt" viewBox="0 0 460.8 345.6" xmlns="http://www.w3.org/2000/svg" version="1.1">
 <metadata>
  <rdf:RDF xmlns:dc="http://purl.org/dc/elements/1.1/" xmlns:cc="http://creativecommons.org/ns#" xmlns:rdf="http://www.w3.org/1999/02/22-rdf-syntax-ns#">
   <cc:Work>
    <dc:type rdf:resource="http://purl.org/dc/dcmitype/StillImage"/>
    <dc:date>2022-09-21T15:20:50.746945</dc:date>
    <dc:format>image/svg+xml</dc:format>
    <dc:creator>
     <cc:Agent>
      <dc:title>Matplotlib v3.5.2, https://matplotlib.org/</dc:title>
     </cc:Agent>
    </dc:creator>
   </cc:Work>
  </rdf:RDF>
 </metadata>
 <defs>
  <style type="text/css">*{stroke-linejoin: round; stroke-linecap: butt}</style>
 </defs>
 <g id="figure_1">
  <g id="patch_1">
   <path d="M 0 345.6 
L 460.8 345.6 
L 460.8 0 
L 0 0 
z
" style="fill: #ffffff"/>
  </g>
  <g id="axes_1">
   <g id="patch_2">
    <path d="M 57.609719 345.6 
L 403.190281 345.6 
L 403.190281 0 
L 57.609719 0 
z
" style="fill: #ffffff"/>
   </g>
   <g id="matplotlib.axis_1">
    <g id="xtick_1">
     <g id="line2d_1">
      <defs>
       <path id="m44fc715404" d="M 0 0 
L 0 3.5 
" style="stroke: #000000; stroke-width: 0.8"/>
      </defs>
      <g>
       <use xlink:href="#m44fc715404" x="64.250144" y="172.805809" style="stroke: #000000; stroke-width: 0.8"/>
      </g>
     </g>
     <g id="text_1">
      <!-- −1.0 -->
      <g transform="translate(52.108738 187.404247)scale(0.1 -0.1)">
       <defs>
        <path id="DejaVuSans-2212" d="M 678 2272 
L 4684 2272 
L 4684 1741 
L 678 1741 
L 678 2272 
z
" transform="scale(0.015625)"/>
        <path id="DejaVuSans-31" d="M 794 531 
L 1825 531 
L 1825 4091 
L 703 3866 
L 703 4441 
L 1819 4666 
L 2450 4666 
L 2450 531 
L 3481 531 
L 3481 0 
L 794 0 
L 794 531 
z
" transform="scale(0.015625)"/>
        <path id="DejaVuSans-2e" d="M 684 794 
L 1344 794 
L 1344 0 
L 684 0 
L 684 794 
z
" transform="scale(0.015625)"/>
        <path id="DejaVuSans-30" d="M 2034 4250 
Q 1547 4250 1301 3770 
Q 1056 3291 1056 2328 
Q 1056 1369 1301 889 
Q 1547 409 2034 409 
Q 2525 409 2770 889 
Q 3016 1369 3016 2328 
Q 3016 3291 2770 3770 
Q 2525 4250 2034 4250 
z
M 2034 4750 
Q 2819 4750 3233 4129 
Q 3647 3509 3647 2328 
Q 3647 1150 3233 529 
Q 2819 -91 2034 -91 
Q 1250 -91 836 529 
Q 422 1150 422 2328 
Q 422 3509 836 4129 
Q 1250 4750 2034 4750 
z
" transform="scale(0.015625)"/>
       </defs>
       <use xlink:href="#DejaVuSans-2212"/>
       <use xlink:href="#DejaVuSans-31" x="83.789062"/>
       <use xlink:href="#DejaVuSans-2e" x="147.412109"/>
       <use xlink:href="#DejaVuSans-30" x="179.199219"/>
      </g>
     </g>
    </g>
    <g id="xtick_2">
     <g id="line2d_2">
      <g>
       <use xlink:href="#m44fc715404" x="147.329985" y="172.805809" style="stroke: #000000; stroke-width: 0.8"/>
      </g>
     </g>
     <g id="text_2">
      <!-- −0.5 -->
      <g transform="translate(135.188578 187.404247)scale(0.1 -0.1)">
       <defs>
        <path id="DejaVuSans-35" d="M 691 4666 
L 3169 4666 
L 3169 4134 
L 1269 4134 
L 1269 2991 
Q 1406 3038 1543 3061 
Q 1681 3084 1819 3084 
Q 2600 3084 3056 2656 
Q 3513 2228 3513 1497 
Q 3513 744 3044 326 
Q 2575 -91 1722 -91 
Q 1428 -91 1123 -41 
Q 819 9 494 109 
L 494 744 
Q 775 591 1075 516 
Q 1375 441 1709 441 
Q 2250 441 2565 725 
Q 2881 1009 2881 1497 
Q 2881 1984 2565 2268 
Q 2250 2553 1709 2553 
Q 1456 2553 1204 2497 
Q 953 2441 691 2322 
L 691 4666 
z
" transform="scale(0.015625)"/>
       </defs>
       <use xlink:href="#DejaVuSans-2212"/>
       <use xlink:href="#DejaVuSans-30" x="83.789062"/>
       <use xlink:href="#DejaVuSans-2e" x="147.412109"/>
       <use xlink:href="#DejaVuSans-35" x="179.199219"/>
      </g>
     </g>
    </g>
    <g id="xtick_3">
     <g id="line2d_3">
      <g>
       <use xlink:href="#m44fc715404" x="230.409825" y="172.805809" style="stroke: #000000; stroke-width: 0.8"/>
      </g>
     </g>
    </g>
    <g id="xtick_4">
     <g id="line2d_4">
      <g>
       <use xlink:href="#m44fc715404" x="313.489665" y="172.805809" style="stroke: #000000; stroke-width: 0.8"/>
      </g>
     </g>
     <g id="text_3">
      <!-- 0.5 -->
      <g transform="translate(305.538103 187.404247)scale(0.1 -0.1)">
       <use xlink:href="#DejaVuSans-30"/>
       <use xlink:href="#DejaVuSans-2e" x="63.623047"/>
       <use xlink:href="#DejaVuSans-35" x="95.410156"/>
      </g>
     </g>
    </g>
    <g id="xtick_5">
     <g id="line2d_5">
      <g>
       <use xlink:href="#m44fc715404" x="396.569506" y="172.805809" style="stroke: #000000; stroke-width: 0.8"/>
      </g>
     </g>
     <g id="text_4">
      <!-- 1.0 -->
      <g transform="translate(388.617943 187.404247)scale(0.1 -0.1)">
       <use xlink:href="#DejaVuSans-31"/>
       <use xlink:href="#DejaVuSans-2e" x="63.623047"/>
       <use xlink:href="#DejaVuSans-30" x="95.410156"/>
      </g>
     </g>
    </g>
    <g id="xtick_6">
     <g id="line2d_6">
      <defs>
       <path id="mda3b09830f" d="M 0 0 
L 0 2 
" style="stroke: #000000; stroke-width: 0.6"/>
      </defs>
      <g>
       <use xlink:href="#mda3b09830f" x="80.866112" y="172.805809" style="stroke: #000000; stroke-width: 0.6"/>
      </g>
     </g>
    </g>
    <g id="xtick_7">
     <g id="line2d_7">
      <g>
       <use xlink:href="#mda3b09830f" x="97.48208" y="172.805809" style="stroke: #000000; stroke-width: 0.6"/>
      </g>
     </g>
    </g>
    <g id="xtick_8">
     <g id="line2d_8">
      <g>
       <use xlink:href="#mda3b09830f" x="114.098048" y="172.805809" style="stroke: #000000; stroke-width: 0.6"/>
      </g>
     </g>
    </g>
    <g id="xtick_9">
     <g id="line2d_9">
      <g>
       <use xlink:href="#mda3b09830f" x="130.714017" y="172.805809" style="stroke: #000000; stroke-width: 0.6"/>
      </g>
     </g>
    </g>
    <g id="xtick_10">
     <g id="line2d_10">
      <g>
       <use xlink:href="#mda3b09830f" x="163.945953" y="172.805809" style="stroke: #000000; stroke-width: 0.6"/>
      </g>
     </g>
    </g>
    <g id="xtick_11">
     <g id="line2d_11">
      <g>
       <use xlink:href="#mda3b09830f" x="180.561921" y="172.805809" style="stroke: #000000; stroke-width: 0.6"/>
      </g>
     </g>
    </g>
    <g id="xtick_12">
     <g id="line2d_12">
      <g>
       <use xlink:href="#mda3b09830f" x="197.177889" y="172.805809" style="stroke: #000000; stroke-width: 0.6"/>
      </g>
     </g>
    </g>
    <g id="xtick_13">
     <g id="line2d_13">
      <g>
       <use xlink:href="#mda3b09830f" x="213.793857" y="172.805809" style="stroke: #000000; stroke-width: 0.6"/>
      </g>
     </g>
    </g>
    <g id="xtick_14">
     <g id="line2d_14">
      <g>
       <use xlink:href="#mda3b09830f" x="247.025793" y="172.805809" style="stroke: #000000; stroke-width: 0.6"/>
      </g>
     </g>
    </g>
    <g id="xtick_15">
     <g id="line2d_15">
      <g>
       <use xlink:href="#mda3b09830f" x="263.641761" y="172.805809" style="stroke: #000000; stroke-width: 0.6"/>
      </g>
     </g>
    </g>
    <g id="xtick_16">
     <g id="line2d_16">
      <g>
       <use xlink:href="#mda3b09830f" x="280.257729" y="172.805809" style="stroke: #000000; stroke-width: 0.6"/>
      </g>
     </g>
    </g>
    <g id="xtick_17">
     <g id="line2d_17">
      <g>
       <use xlink:href="#mda3b09830f" x="296.873697" y="172.805809" style="stroke: #000000; stroke-width: 0.6"/>
      </g>
     </g>
    </g>
    <g id="xtick_18">
     <g id="line2d_18">
      <g>
       <use xlink:href="#mda3b09830f" x="330.105633" y="172.805809" style="stroke: #000000; stroke-width: 0.6"/>
      </g>
     </g>
    </g>
    <g id="xtick_19">
     <g id="line2d_19">
      <g>
       <use xlink:href="#mda3b09830f" x="346.721601" y="172.805809" style="stroke: #000000; stroke-width: 0.6"/>
      </g>
     </g>
    </g>
    <g id="xtick_20">
     <g id="line2d_20">
      <g>
       <use xlink:href="#mda3b09830f" x="363.33757" y="172.805809" style="stroke: #000000; stroke-width: 0.6"/>
      </g>
     </g>
    </g>
    <g id="xtick_21">
     <g id="line2d_21">
      <g>
       <use xlink:href="#mda3b09830f" x="379.953538" y="172.805809" style="stroke: #000000; stroke-width: 0.6"/>
      </g>
     </g>
    </g>
   </g>
   <g id="matplotlib.axis_2">
    <g id="ytick_1">
     <g id="line2d_22">
      <defs>
       <path id="mfce167bd1a" d="M 0 0 
L -3.5 0 
" style="stroke: #000000; stroke-width: 0.8"/>
      </defs>
      <g>
       <use xlink:href="#mfce167bd1a" x="230.409825" y="338.96549" style="stroke: #000000; stroke-width: 0.8"/>
      </g>
     </g>
     <g id="text_5">
      <!-- −1.0 -->
      <g transform="translate(199.127012 342.764708)scale(0.1 -0.1)">
       <use xlink:href="#DejaVuSans-2212"/>
       <use xlink:href="#DejaVuSans-31" x="83.789062"/>
       <use xlink:href="#DejaVuSans-2e" x="147.412109"/>
       <use xlink:href="#DejaVuSans-30" x="179.199219"/>
      </g>
     </g>
    </g>
    <g id="ytick_2">
     <g id="line2d_23">
      <g>
       <use xlink:href="#mfce167bd1a" x="230.409825" y="255.885649" style="stroke: #000000; stroke-width: 0.8"/>
      </g>
     </g>
     <g id="text_6">
      <!-- −0.5 -->
      <g transform="translate(199.127012 259.684868)scale(0.1 -0.1)">
       <use xlink:href="#DejaVuSans-2212"/>
       <use xlink:href="#DejaVuSans-30" x="83.789062"/>
       <use xlink:href="#DejaVuSans-2e" x="147.412109"/>
       <use xlink:href="#DejaVuSans-35" x="179.199219"/>
      </g>
     </g>
    </g>
    <g id="ytick_3">
     <g id="line2d_24">
      <g>
       <use xlink:href="#mfce167bd1a" x="230.409825" y="172.805809" style="stroke: #000000; stroke-width: 0.8"/>
      </g>
     </g>
    </g>
    <g id="ytick_4">
     <g id="line2d_25">
      <g>
       <use xlink:href="#mfce167bd1a" x="230.409825" y="89.725969" style="stroke: #000000; stroke-width: 0.8"/>
      </g>
     </g>
     <g id="text_7">
      <!-- 0.5 -->
      <g transform="translate(207.5067 93.525187)scale(0.1 -0.1)">
       <use xlink:href="#DejaVuSans-30"/>
       <use xlink:href="#DejaVuSans-2e" x="63.623047"/>
       <use xlink:href="#DejaVuSans-35" x="95.410156"/>
      </g>
     </g>
    </g>
    <g id="ytick_5">
     <g id="line2d_26">
      <g>
       <use xlink:href="#mfce167bd1a" x="230.409825" y="6.646128" style="stroke: #000000; stroke-width: 0.8"/>
      </g>
     </g>
     <g id="text_8">
      <!-- 1.0 -->
      <g transform="translate(207.5067 10.445347)scale(0.1 -0.1)">
       <use xlink:href="#DejaVuSans-31"/>
       <use xlink:href="#DejaVuSans-2e" x="63.623047"/>
       <use xlink:href="#DejaVuSans-30" x="95.410156"/>
      </g>
     </g>
    </g>
    <g id="ytick_6">
     <g id="line2d_27">
      <defs>
       <path id="m107bad9c88" d="M 0 0 
L -2 0 
" style="stroke: #000000; stroke-width: 0.6"/>
      </defs>
      <g>
       <use xlink:href="#m107bad9c88" x="230.409825" y="322.349522" style="stroke: #000000; stroke-width: 0.6"/>
      </g>
     </g>
    </g>
    <g id="ytick_7">
     <g id="line2d_28">
      <g>
       <use xlink:href="#m107bad9c88" x="230.409825" y="305.733554" style="stroke: #000000; stroke-width: 0.6"/>
      </g>
     </g>
    </g>
    <g id="ytick_8">
     <g id="line2d_29">
      <g>
       <use xlink:href="#m107bad9c88" x="230.409825" y="289.117585" style="stroke: #000000; stroke-width: 0.6"/>
      </g>
     </g>
    </g>
    <g id="ytick_9">
     <g id="line2d_30">
      <g>
       <use xlink:href="#m107bad9c88" x="230.409825" y="272.501617" style="stroke: #000000; stroke-width: 0.6"/>
      </g>
     </g>
    </g>
    <g id="ytick_10">
     <g id="line2d_31">
      <g>
       <use xlink:href="#m107bad9c88" x="230.409825" y="239.269681" style="stroke: #000000; stroke-width: 0.6"/>
      </g>
     </g>
    </g>
    <g id="ytick_11">
     <g id="line2d_32">
      <g>
       <use xlink:href="#m107bad9c88" x="230.409825" y="222.653713" style="stroke: #000000; stroke-width: 0.6"/>
      </g>
     </g>
    </g>
    <g id="ytick_12">
     <g id="line2d_33">
      <g>
       <use xlink:href="#m107bad9c88" x="230.409825" y="206.037745" style="stroke: #000000; stroke-width: 0.6"/>
      </g>
     </g>
    </g>
    <g id="ytick_13">
     <g id="line2d_34">
      <g>
       <use xlink:href="#m107bad9c88" x="230.409825" y="189.421777" style="stroke: #000000; stroke-width: 0.6"/>
      </g>
     </g>
    </g>
    <g id="ytick_14">
     <g id="line2d_35">
      <g>
       <use xlink:href="#m107bad9c88" x="230.409825" y="156.189841" style="stroke: #000000; stroke-width: 0.6"/>
      </g>
     </g>
    </g>
    <g id="ytick_15">
     <g id="line2d_36">
      <g>
       <use xlink:href="#m107bad9c88" x="230.409825" y="139.573873" style="stroke: #000000; stroke-width: 0.6"/>
      </g>
     </g>
    </g>
    <g id="ytick_16">
     <g id="line2d_37">
      <g>
       <use xlink:href="#m107bad9c88" x="230.409825" y="122.957905" style="stroke: #000000; stroke-width: 0.6"/>
      </g>
     </g>
    </g>
    <g id="ytick_17">
     <g id="line2d_38">
      <g>
       <use xlink:href="#m107bad9c88" x="230.409825" y="106.341937" style="stroke: #000000; stroke-width: 0.6"/>
      </g>
     </g>
    </g>
    <g id="ytick_18">
     <g id="line2d_39">
      <g>
       <use xlink:href="#m107bad9c88" x="230.409825" y="73.110001" style="stroke: #000000; stroke-width: 0.6"/>
      </g>
     </g>
    </g>
    <g id="ytick_19">
     <g id="line2d_40">
      <g>
       <use xlink:href="#m107bad9c88" x="230.409825" y="56.494033" style="stroke: #000000; stroke-width: 0.6"/>
      </g>
     </g>
    </g>
    <g id="ytick_20">
     <g id="line2d_41">
      <g>
       <use xlink:href="#m107bad9c88" x="230.409825" y="39.878064" style="stroke: #000000; stroke-width: 0.6"/>
      </g>
     </g>
    </g>
    <g id="ytick_21">
     <g id="line2d_42">
      <g>
       <use xlink:href="#m107bad9c88" x="230.409825" y="23.262096" style="stroke: #000000; stroke-width: 0.6"/>
      </g>
     </g>
    </g>
   </g>
   <g id="line2d_43">
    <path d="M 230.409825 172.805809 
L 243.69418 146.322147 
L 255.298144 123.590727 
L 261.25031 112.196611 
L 268.141942 99.313055 
L 276.745375 83.81085 
L 281.93857 74.829179 
L 289.942099 61.645619 
L 295.040418 53.72371 
L 303.329894 41.760029 
L 306.588775 37.403705 
L 310.248123 32.769524 
L 316.637957 25.389128 
L 319.160297 22.745824 
L 323.453809 18.629187 
L 327.864537 14.940821 
L 335.107032 10.208107 
L 340.437702 7.908475 
L 345.671899 6.763681 
L 349.190224 6.686493 
L 353.374658 7.402687 
L 356.012506 8.349402 
L 358.423803 9.580898 
L 363.32719 13.282832 
L 364.389927 14.317727 
L 369.346193 20.397353 
L 372.107233 24.796432 
L 373.369318 27.083492 
L 375.187073 30.713892 
L 377.959025 37.104697 
L 381.052412 45.674814 
L 382.907062 51.692409 
L 384.940548 59.21778 
L 386.75608 66.936274 
L 388.173428 73.774968 
L 389.603636 81.584579 
L 391.475038 93.650751 
L 392.442984 101.03219 
L 393.552683 110.912336 
L 394.353426 119.43345 
L 395.199391 130.568797 
L 395.799132 140.99048 
L 396.485116 162.221182 
L 396.544501 178.570003 
L 396.134318 196.778828 
L 395.596521 208.50624 
L 394.879562 219.600571 
L 394.200437 227.925456 
L 392.456169 244.471946 
L 390.792485 256.652025 
L 389.577309 264.18045 
L 387.591801 274.740162 
L 386.193946 281.179367 
L 384.096665 289.646613 
L 381.914821 297.229765 
L 380.600231 301.296927 
L 377.48063 309.689907 
L 374.666322 315.980259 
L 371.681682 321.545773 
L 369.887928 324.412949 
L 365.930336 329.632967 
L 364.58954 331.08957 
L 360.350622 334.776695 
L 357.202615 336.699805 
L 352.928916 338.329759 
L 348.595869 338.953846 
L 345.95533 338.875702 
L 342.334915 338.25269 
L 339.69752 337.449134 
L 336.294229 336.007853 
L 331.480163 333.250603 
L 325.612069 328.85864 
L 320.830887 324.52645 
L 317.064069 320.680242 
L 314.100812 317.405662 
L 307.536276 309.434666 
L 304.09138 304.888092 
L 296.959986 294.764078 
L 293.080522 288.889917 
L 284.227521 274.639036 
L 280.269313 267.929462 
L 275.457068 259.526157 
L 270.372033 250.384278 
L 261.506035 233.899413 
L 245.355342 202.575682 
L 207.296556 127.028687 
L 197.114909 107.566522 
L 193.585991 100.989481 
L 185.906465 87.050964 
L 175.967794 69.932195 
L 172.120886 63.63644 
L 167.077765 55.70325 
L 161.942202 48.03629 
L 153.379862 36.301035 
L 145.266933 26.575053 
L 139.35206 20.471737 
L 131.637728 13.952748 
L 123.515106 9.130115 
L 119.792363 7.721894 
L 112.88462 6.646154 
L 109.140702 7.00096 
L 106.176686 7.807587 
L 102.622101 9.449742 
L 98.893707 12.050115 
L 96.16758 14.58671 
L 93.676361 17.427246 
L 91.784096 19.950844 
L 88.30245 25.519331 
L 86.69744 28.537223 
L 83.50297 35.524323 
L 81.650958 40.258441 
L 79.229965 47.34338 
L 77.397331 53.500391 
L 75.721533 59.847171 
L 73.189545 71.058327 
L 71.467498 80.135048 
L 69.710879 91.086835 
L 67.949075 104.628766 
L 66.774444 115.976276 
L 65.896137 126.608155 
L 65.070003 139.996823 
L 64.748731 147.158187 
L 64.4135 158.088054 
L 64.255499 170.137926 
L 64.43538 188.475674 
L 64.927531 202.660241 
L 65.931041 219.478345 
L 66.623602 227.974642 
L 67.791862 239.598816 
L 69.054953 249.849978 
L 71.025267 262.90361 
L 72.651426 271.863271 
L 74.224252 279.402305 
L 76.759458 289.78288 
L 79.867689 300.24238 
L 81.799486 305.753398 
L 83.785095 310.761709 
L 86.222326 316.121073 
L 89.427173 322.030985 
L 91.798033 325.680588 
L 95.739339 330.573563 
L 98.048556 332.835594 
L 101.397529 335.412021 
L 103.743067 336.763496 
L 107.924186 338.338384 
L 111.113696 338.885964 
L 115.023038 338.860606 
L 119.483984 337.981682 
L 122.582312 336.884856 
L 127.635053 334.318638 
L 132.840417 330.758962 
L 137.128266 327.195477 
L 141.784718 322.738235 
L 143.645486 320.797781 
L 151.603825 311.563434 
L 153.219001 309.517343 
L 158.877263 301.934706 
L 161.740898 297.866787 
L 170.425814 284.683782 
L 173.448801 279.824768 
L 183.434911 262.923009 
L 192.35714 246.888559 
L 203.16757 226.55305 
L 212.803562 207.820103 
L 230.409825 172.805809 
L 230.409825 172.805809 
" clip-path="url(#p96bd03fba0)" style="fill: none; stroke: #008000; stroke-linecap: square"/>
   </g>
   <g id="patch_3">
    <path d="M 230.409825 345.6 
L 230.409825 -0 
" style="fill: none; stroke: #000000; stroke-width: 0.8; stroke-linejoin: miter; stroke-linecap: square"/>
   </g>
   <g id="patch_4">
    <path d="M 57.609719 172.805809 
L 403.190281 172.805809 
" style="fill: none; stroke: #000000; stroke-width: 0.8; stroke-linejoin: miter; stroke-linecap: square"/>
   </g>
  </g>
 </g>
 <defs>
  <clipPath id="p96bd03fba0">
   <rect x="57.609719" y="0" width="345.580562" height="345.6"/>
  </clipPath>
 </defs>
</svg>
