<?xml version="1.0" encoding="utf-8" standalone="no"?>
<!DOCTYPE svg PUBLIC "-//W3C//DTD SVG 1.1//EN"
  "http://www.w3.org/Graphics/SVG/1.1/DTD/svg11.dtd">
<!-- Created with matplotlib (http://matplotlib.org/) -->
<svg height="345.6pt" version="1.1" viewBox="0 0 460.8 345.6" width="460.8pt" xmlns="http://www.w3.org/2000/svg" xmlns:xlink="http://www.w3.org/1999/xlink">
 <defs>
  <style type="text/css">
*{stroke-linecap:butt;stroke-linejoin:round;}
  </style>
 </defs>
 <g id="figure_1">
  <g id="patch_1">
   <path d="M 0 345.6 
L 460.8 345.6 
L 460.8 0 
L 0 0 
z
" style="fill:#ffffff;"/>
  </g>
  <g id="axes_1">
   <g id="patch_2">
    <path d="M 2.52 286.730898 
L 458.28 286.730898 
L 458.28 58.869102 
L 2.52 58.869102 
z
" style="fill:#ffffff;"/>
   </g>
   <g id="matplotlib.axis_1">
    <g id="xtick_1">
     <g id="line2d_1">
      <defs>
       <path d="M 0 0 
L 0 3.5 
" id="m267860aefd" style="stroke:#000000;stroke-width:0.8;"/>
      </defs>
      <g>
       <use style="stroke:#000000;stroke-width:0.8;" x="11.278175" xlink:href="#m267860aefd" y="172.791314"/>
      </g>
     </g>
     <g id="text_1">
      <!-- -1 -->
      <defs>
       <path d="M 4.890625 31.390625 
L 31.203125 31.390625 
L 31.203125 23.390625 
L 4.890625 23.390625 
z
" id="DejaVuSans-2d"/>
       <path d="M 12.40625 8.296875 
L 28.515625 8.296875 
L 28.515625 63.921875 
L 10.984375 60.40625 
L 10.984375 69.390625 
L 28.421875 72.90625 
L 38.28125 72.90625 
L 38.28125 8.296875 
L 54.390625 8.296875 
L 54.390625 0 
L 12.40625 0 
z
" id="DejaVuSans-31"/>
      </defs>
      <g transform="translate(6.293018 187.389751)scale(0.1 -0.1)">
       <use xlink:href="#DejaVuSans-2d"/>
       <use x="36.083984" xlink:href="#DejaVuSans-31"/>
      </g>
     </g>
    </g>
    <g id="xtick_2">
     <g id="line2d_2">
      <g>
       <use style="stroke:#000000;stroke-width:0.8;" x="120.837477" xlink:href="#m267860aefd" y="172.791314"/>
      </g>
     </g>
     <g id="text_2">
      <!-- -0.5 -->
      <defs>
       <path d="M 31.78125 66.40625 
Q 24.171875 66.40625 20.328125 58.90625 
Q 16.5 51.421875 16.5 36.375 
Q 16.5 21.390625 20.328125 13.890625 
Q 24.171875 6.390625 31.78125 6.390625 
Q 39.453125 6.390625 43.28125 13.890625 
Q 47.125 21.390625 47.125 36.375 
Q 47.125 51.421875 43.28125 58.90625 
Q 39.453125 66.40625 31.78125 66.40625 
z
M 31.78125 74.21875 
Q 44.046875 74.21875 50.515625 64.515625 
Q 56.984375 54.828125 56.984375 36.375 
Q 56.984375 17.96875 50.515625 8.265625 
Q 44.046875 -1.421875 31.78125 -1.421875 
Q 19.53125 -1.421875 13.0625 8.265625 
Q 6.59375 17.96875 6.59375 36.375 
Q 6.59375 54.828125 13.0625 64.515625 
Q 19.53125 74.21875 31.78125 74.21875 
z
" id="DejaVuSans-30"/>
       <path d="M 10.6875 12.40625 
L 21 12.40625 
L 21 0 
L 10.6875 0 
z
" id="DejaVuSans-2e"/>
       <path d="M 10.796875 72.90625 
L 49.515625 72.90625 
L 49.515625 64.59375 
L 19.828125 64.59375 
L 19.828125 46.734375 
Q 21.96875 47.46875 24.109375 47.828125 
Q 26.265625 48.1875 28.421875 48.1875 
Q 40.625 48.1875 47.75 41.5 
Q 54.890625 34.8125 54.890625 23.390625 
Q 54.890625 11.625 47.5625 5.09375 
Q 40.234375 -1.421875 26.90625 -1.421875 
Q 22.3125 -1.421875 17.546875 -0.640625 
Q 12.796875 0.140625 7.71875 1.703125 
L 7.71875 11.625 
Q 12.109375 9.234375 16.796875 8.0625 
Q 21.484375 6.890625 26.703125 6.890625 
Q 35.15625 6.890625 40.078125 11.328125 
Q 45.015625 15.765625 45.015625 23.390625 
Q 45.015625 31 40.078125 35.4375 
Q 35.15625 39.890625 26.703125 39.890625 
Q 22.75 39.890625 18.8125 39.015625 
Q 14.890625 38.140625 10.796875 36.28125 
z
" id="DejaVuSans-35"/>
      </defs>
      <g transform="translate(111.082008 187.389751)scale(0.1 -0.1)">
       <use xlink:href="#DejaVuSans-2d"/>
       <use x="36.083984" xlink:href="#DejaVuSans-30"/>
       <use x="99.707031" xlink:href="#DejaVuSans-2e"/>
       <use x="131.494141" xlink:href="#DejaVuSans-35"/>
      </g>
     </g>
    </g>
    <g id="xtick_3">
     <g id="line2d_3">
      <g>
       <use style="stroke:#000000;stroke-width:0.8;" x="230.39678" xlink:href="#m267860aefd" y="172.791314"/>
      </g>
     </g>
    </g>
    <g id="xtick_4">
     <g id="line2d_4">
      <g>
       <use style="stroke:#000000;stroke-width:0.8;" x="339.956082" xlink:href="#m267860aefd" y="172.791314"/>
      </g>
     </g>
     <g id="text_3">
      <!-- 0.5 -->
      <g transform="translate(332.00452 187.389751)scale(0.1 -0.1)">
       <use xlink:href="#DejaVuSans-30"/>
       <use x="63.623047" xlink:href="#DejaVuSans-2e"/>
       <use x="95.410156" xlink:href="#DejaVuSans-35"/>
      </g>
     </g>
    </g>
    <g id="xtick_5">
     <g id="line2d_5">
      <g>
       <use style="stroke:#000000;stroke-width:0.8;" x="449.515385" xlink:href="#m267860aefd" y="172.791314"/>
      </g>
     </g>
     <g id="text_4">
      <!-- 1 -->
      <g transform="translate(446.334135 187.389751)scale(0.1 -0.1)">
       <use xlink:href="#DejaVuSans-31"/>
      </g>
     </g>
    </g>
    <g id="xtick_6">
     <g id="line2d_6">
      <defs>
       <path d="M 0 0 
L 0 2 
" id="mb7a091fe14" style="stroke:#000000;stroke-width:0.6;"/>
      </defs>
      <g>
       <use style="stroke:#000000;stroke-width:0.6;" x="33.190035" xlink:href="#mb7a091fe14" y="172.791314"/>
      </g>
     </g>
    </g>
    <g id="xtick_7">
     <g id="line2d_7">
      <g>
       <use style="stroke:#000000;stroke-width:0.6;" x="55.101896" xlink:href="#mb7a091fe14" y="172.791314"/>
      </g>
     </g>
    </g>
    <g id="xtick_8">
     <g id="line2d_8">
      <g>
       <use style="stroke:#000000;stroke-width:0.6;" x="77.013756" xlink:href="#mb7a091fe14" y="172.791314"/>
      </g>
     </g>
    </g>
    <g id="xtick_9">
     <g id="line2d_9">
      <g>
       <use style="stroke:#000000;stroke-width:0.6;" x="98.925617" xlink:href="#mb7a091fe14" y="172.791314"/>
      </g>
     </g>
    </g>
    <g id="xtick_10">
     <g id="line2d_10">
      <g>
       <use style="stroke:#000000;stroke-width:0.6;" x="142.749338" xlink:href="#mb7a091fe14" y="172.791314"/>
      </g>
     </g>
    </g>
    <g id="xtick_11">
     <g id="line2d_11">
      <g>
       <use style="stroke:#000000;stroke-width:0.6;" x="164.661198" xlink:href="#mb7a091fe14" y="172.791314"/>
      </g>
     </g>
    </g>
    <g id="xtick_12">
     <g id="line2d_12">
      <g>
       <use style="stroke:#000000;stroke-width:0.6;" x="186.573059" xlink:href="#mb7a091fe14" y="172.791314"/>
      </g>
     </g>
    </g>
    <g id="xtick_13">
     <g id="line2d_13">
      <g>
       <use style="stroke:#000000;stroke-width:0.6;" x="208.484919" xlink:href="#mb7a091fe14" y="172.791314"/>
      </g>
     </g>
    </g>
    <g id="xtick_14">
     <g id="line2d_14">
      <g>
       <use style="stroke:#000000;stroke-width:0.6;" x="252.30864" xlink:href="#mb7a091fe14" y="172.791314"/>
      </g>
     </g>
    </g>
    <g id="xtick_15">
     <g id="line2d_15">
      <g>
       <use style="stroke:#000000;stroke-width:0.6;" x="274.220501" xlink:href="#mb7a091fe14" y="172.791314"/>
      </g>
     </g>
    </g>
    <g id="xtick_16">
     <g id="line2d_16">
      <g>
       <use style="stroke:#000000;stroke-width:0.6;" x="296.132361" xlink:href="#mb7a091fe14" y="172.791314"/>
      </g>
     </g>
    </g>
    <g id="xtick_17">
     <g id="line2d_17">
      <g>
       <use style="stroke:#000000;stroke-width:0.6;" x="318.044222" xlink:href="#mb7a091fe14" y="172.791314"/>
      </g>
     </g>
    </g>
    <g id="xtick_18">
     <g id="line2d_18">
      <g>
       <use style="stroke:#000000;stroke-width:0.6;" x="361.867943" xlink:href="#mb7a091fe14" y="172.791314"/>
      </g>
     </g>
    </g>
    <g id="xtick_19">
     <g id="line2d_19">
      <g>
       <use style="stroke:#000000;stroke-width:0.6;" x="383.779803" xlink:href="#mb7a091fe14" y="172.791314"/>
      </g>
     </g>
    </g>
    <g id="xtick_20">
     <g id="line2d_20">
      <g>
       <use style="stroke:#000000;stroke-width:0.6;" x="405.691664" xlink:href="#mb7a091fe14" y="172.791314"/>
      </g>
     </g>
    </g>
    <g id="xtick_21">
     <g id="line2d_21">
      <g>
       <use style="stroke:#000000;stroke-width:0.6;" x="427.603524" xlink:href="#mb7a091fe14" y="172.791314"/>
      </g>
     </g>
    </g>
   </g>
   <g id="matplotlib.axis_2">
    <g id="ytick_1">
     <g id="line2d_22">
      <defs>
       <path d="M 0 0 
L -3.5 0 
" id="mf160411f23" style="stroke:#000000;stroke-width:0.8;"/>
      </defs>
      <g>
       <use style="stroke:#000000;stroke-width:0.8;" x="230.39678" xlink:href="#mf160411f23" y="260.438756"/>
      </g>
     </g>
     <g id="text_5">
      <!-- -0.4 -->
      <defs>
       <path d="M 37.796875 64.3125 
L 12.890625 25.390625 
L 37.796875 25.390625 
z
M 35.203125 72.90625 
L 47.609375 72.90625 
L 47.609375 25.390625 
L 58.015625 25.390625 
L 58.015625 17.1875 
L 47.609375 17.1875 
L 47.609375 0 
L 37.796875 0 
L 37.796875 17.1875 
L 4.890625 17.1875 
L 4.890625 26.703125 
z
" id="DejaVuSans-34"/>
      </defs>
      <g transform="translate(203.885842 264.237974)scale(0.1 -0.1)">
       <use xlink:href="#DejaVuSans-2d"/>
       <use x="36.083984" xlink:href="#DejaVuSans-30"/>
       <use x="99.707031" xlink:href="#DejaVuSans-2e"/>
       <use x="131.494141" xlink:href="#DejaVuSans-34"/>
      </g>
     </g>
    </g>
    <g id="ytick_2">
     <g id="line2d_23">
      <g>
       <use style="stroke:#000000;stroke-width:0.8;" x="230.39678" xlink:href="#mf160411f23" y="216.615035"/>
      </g>
     </g>
     <g id="text_6">
      <!-- -0.2 -->
      <defs>
       <path d="M 19.1875 8.296875 
L 53.609375 8.296875 
L 53.609375 0 
L 7.328125 0 
L 7.328125 8.296875 
Q 12.9375 14.109375 22.625 23.890625 
Q 32.328125 33.6875 34.8125 36.53125 
Q 39.546875 41.84375 41.421875 45.53125 
Q 43.3125 49.21875 43.3125 52.78125 
Q 43.3125 58.59375 39.234375 62.25 
Q 35.15625 65.921875 28.609375 65.921875 
Q 23.96875 65.921875 18.8125 64.3125 
Q 13.671875 62.703125 7.8125 59.421875 
L 7.8125 69.390625 
Q 13.765625 71.78125 18.9375 73 
Q 24.125 74.21875 28.421875 74.21875 
Q 39.75 74.21875 46.484375 68.546875 
Q 53.21875 62.890625 53.21875 53.421875 
Q 53.21875 48.921875 51.53125 44.890625 
Q 49.859375 40.875 45.40625 35.40625 
Q 44.1875 33.984375 37.640625 27.21875 
Q 31.109375 20.453125 19.1875 8.296875 
z
" id="DejaVuSans-32"/>
      </defs>
      <g transform="translate(203.885842 220.414253)scale(0.1 -0.1)">
       <use xlink:href="#DejaVuSans-2d"/>
       <use x="36.083984" xlink:href="#DejaVuSans-30"/>
       <use x="99.707031" xlink:href="#DejaVuSans-2e"/>
       <use x="131.494141" xlink:href="#DejaVuSans-32"/>
      </g>
     </g>
    </g>
    <g id="ytick_3">
     <g id="line2d_24">
      <g>
       <use style="stroke:#000000;stroke-width:0.8;" x="230.39678" xlink:href="#mf160411f23" y="172.791314"/>
      </g>
     </g>
    </g>
    <g id="ytick_4">
     <g id="line2d_25">
      <g>
       <use style="stroke:#000000;stroke-width:0.8;" x="230.39678" xlink:href="#mf160411f23" y="128.967593"/>
      </g>
     </g>
     <g id="text_7">
      <!-- 0.2 -->
      <g transform="translate(207.493655 132.766811)scale(0.1 -0.1)">
       <use xlink:href="#DejaVuSans-30"/>
       <use x="63.623047" xlink:href="#DejaVuSans-2e"/>
       <use x="95.410156" xlink:href="#DejaVuSans-32"/>
      </g>
     </g>
    </g>
    <g id="ytick_5">
     <g id="line2d_26">
      <g>
       <use style="stroke:#000000;stroke-width:0.8;" x="230.39678" xlink:href="#mf160411f23" y="85.143872"/>
      </g>
     </g>
     <g id="text_8">
      <!-- 0.4 -->
      <g transform="translate(207.493655 88.94309)scale(0.1 -0.1)">
       <use xlink:href="#DejaVuSans-30"/>
       <use x="63.623047" xlink:href="#DejaVuSans-2e"/>
       <use x="95.410156" xlink:href="#DejaVuSans-34"/>
      </g>
     </g>
    </g>
    <g id="ytick_6">
     <g id="line2d_27">
      <defs>
       <path d="M 0 0 
L -2 0 
" id="m85e743c9e0" style="stroke:#000000;stroke-width:0.6;"/>
      </defs>
      <g>
       <use style="stroke:#000000;stroke-width:0.6;" x="230.39678" xlink:href="#m85e743c9e0" y="282.350616"/>
      </g>
     </g>
    </g>
    <g id="ytick_7">
     <g id="line2d_28">
      <g>
       <use style="stroke:#000000;stroke-width:0.6;" x="230.39678" xlink:href="#m85e743c9e0" y="271.394686"/>
      </g>
     </g>
    </g>
    <g id="ytick_8">
     <g id="line2d_29">
      <g>
       <use style="stroke:#000000;stroke-width:0.6;" x="230.39678" xlink:href="#m85e743c9e0" y="249.482825"/>
      </g>
     </g>
    </g>
    <g id="ytick_9">
     <g id="line2d_30">
      <g>
       <use style="stroke:#000000;stroke-width:0.6;" x="230.39678" xlink:href="#m85e743c9e0" y="238.526895"/>
      </g>
     </g>
    </g>
    <g id="ytick_10">
     <g id="line2d_31">
      <g>
       <use style="stroke:#000000;stroke-width:0.6;" x="230.39678" xlink:href="#m85e743c9e0" y="227.570965"/>
      </g>
     </g>
    </g>
    <g id="ytick_11">
     <g id="line2d_32">
      <g>
       <use style="stroke:#000000;stroke-width:0.6;" x="230.39678" xlink:href="#m85e743c9e0" y="205.659104"/>
      </g>
     </g>
    </g>
    <g id="ytick_12">
     <g id="line2d_33">
      <g>
       <use style="stroke:#000000;stroke-width:0.6;" x="230.39678" xlink:href="#m85e743c9e0" y="194.703174"/>
      </g>
     </g>
    </g>
    <g id="ytick_13">
     <g id="line2d_34">
      <g>
       <use style="stroke:#000000;stroke-width:0.6;" x="230.39678" xlink:href="#m85e743c9e0" y="183.747244"/>
      </g>
     </g>
    </g>
    <g id="ytick_14">
     <g id="line2d_35">
      <g>
       <use style="stroke:#000000;stroke-width:0.6;" x="230.39678" xlink:href="#m85e743c9e0" y="161.835383"/>
      </g>
     </g>
    </g>
    <g id="ytick_15">
     <g id="line2d_36">
      <g>
       <use style="stroke:#000000;stroke-width:0.6;" x="230.39678" xlink:href="#m85e743c9e0" y="150.879453"/>
      </g>
     </g>
    </g>
    <g id="ytick_16">
     <g id="line2d_37">
      <g>
       <use style="stroke:#000000;stroke-width:0.6;" x="230.39678" xlink:href="#m85e743c9e0" y="139.923523"/>
      </g>
     </g>
    </g>
    <g id="ytick_17">
     <g id="line2d_38">
      <g>
       <use style="stroke:#000000;stroke-width:0.6;" x="230.39678" xlink:href="#m85e743c9e0" y="118.011662"/>
      </g>
     </g>
    </g>
    <g id="ytick_18">
     <g id="line2d_39">
      <g>
       <use style="stroke:#000000;stroke-width:0.6;" x="230.39678" xlink:href="#m85e743c9e0" y="107.055732"/>
      </g>
     </g>
    </g>
    <g id="ytick_19">
     <g id="line2d_40">
      <g>
       <use style="stroke:#000000;stroke-width:0.6;" x="230.39678" xlink:href="#m85e743c9e0" y="96.099802"/>
      </g>
     </g>
    </g>
    <g id="ytick_20">
     <g id="line2d_41">
      <g>
       <use style="stroke:#000000;stroke-width:0.6;" x="230.39678" xlink:href="#m85e743c9e0" y="74.187941"/>
      </g>
     </g>
    </g>
    <g id="ytick_21">
     <g id="line2d_42">
      <g>
       <use style="stroke:#000000;stroke-width:0.6;" x="230.39678" xlink:href="#m85e743c9e0" y="63.232011"/>
      </g>
     </g>
    </g>
   </g>
   <g id="line2d_43">
    <path clip-path="url(#pf1bb0f2d12)" d="M 449.515385 172.791314 
L 449.188377 164.332794 
L 448.844827 160.688335 
L 447.750126 153.203436 
L 446.595807 147.667422 
L 444.837153 141.117955 
L 441.415867 131.449412 
L 439.532571 127.099261 
L 437.210435 122.34499 
L 433.13291 115.160424 
L 429.632508 109.851823 
L 424.006035 102.514389 
L 419.526409 97.479935 
L 410.85689 89.266968 
L 406.245083 85.561679 
L 401.439997 82.110726 
L 398.195959 79.993913 
L 390.379452 75.525058 
L 381.703858 71.497859 
L 374.067685 68.677725 
L 365.596319 66.274559 
L 362.442965 65.564541 
L 355.234012 64.302486 
L 346.773744 63.444342 
L 341.999019 63.25106 
L 331.060827 63.593717 
L 321.707135 64.762536 
L 312.670524 66.684108 
L 303.924545 69.326493 
L 301.688673 70.132431 
L 291.681102 74.441087 
L 288.148404 76.255283 
L 282.292668 79.63461 
L 274.621108 84.844842 
L 269.85146 88.597592 
L 265.284791 92.620003 
L 260.413485 97.450647 
L 253.914952 104.966799 
L 249.637863 110.776315 
L 246.660469 115.352918 
L 243.294577 121.218121 
L 238.779156 130.761916 
L 235.452841 139.892784 
L 233.964353 145.06057 
L 232.457821 151.64032 
L 231.014749 161.171212 
L 230.735443 164.183604 
L 230.396776 172.764402 
L 230.261688 167.352306 
L 228.927034 154.905889 
L 228.527032 152.636897 
L 226.841642 145.108147 
L 225.088755 139.102861 
L 223.210397 133.765348 
L 220.494754 127.275734 
L 216.412749 119.231924 
L 211.45235 111.21059 
L 206.379795 104.338756 
L 203.810405 101.245985 
L 198.425362 95.439126 
L 194.732828 91.904245 
L 188.883073 86.92492 
L 180.793283 81.09321 
L 177.808756 79.209723 
L 174.407952 77.222255 
L 166.940369 73.404372 
L 156.384248 69.158945 
L 154.113209 68.407568 
L 143.551216 65.612366 
L 136.668356 64.381794 
L 130.589447 63.66689 
L 126.573119 63.38225 
L 117.525556 63.282081 
L 112.785003 63.528335 
L 105.191238 64.354991 
L 99.63022 65.304138 
L 88.916983 67.985194 
L 85.211763 69.186057 
L 79.981457 71.1349 
L 73.891666 73.79974 
L 65.1834 78.420426 
L 60.045307 81.645536 
L 52.728861 86.974898 
L 48.730762 90.305785 
L 42.361856 96.339907 
L 37.364349 101.830214 
L 33.879313 106.146596 
L 29.112454 112.876701 
L 26.478262 117.117449 
L 23.723875 122.074561 
L 20.267207 129.330279 
L 17.441165 136.563652 
L 16.6436 138.925744 
L 13.997763 148.531961 
L 12.577342 155.96919 
L 11.854208 161.57134 
L 11.49035 165.976137 
L 11.284615 171.60336 
L 11.368277 177.23372 
L 11.779762 183.262966 
L 12.683767 190.284618 
L 14.188699 197.876747 
L 15.636902 203.386735 
L 17.535773 209.28787 
L 19.629532 214.745964 
L 24.033996 224.097519 
L 26.021042 227.682882 
L 30.046387 234.111936 
L 34.469468 240.199085 
L 38.35481 244.901301 
L 44.720636 251.591487 
L 50.459489 256.756661 
L 52.744362 258.620029 
L 60.715074 264.380273 
L 66.382025 267.858892 
L 69.919462 269.799542 
L 76.797956 273.109614 
L 82.533908 275.43671 
L 90.647878 278.109065 
L 95.486139 279.377197 
L 103.948683 281.041068 
L 110.129373 281.826066 
L 122.114757 282.34317 
L 134.892819 281.445297 
L 138.357302 280.940731 
L 143.689893 279.940779 
L 155.473519 276.731611 
L 160.530728 274.907358 
L 164.558645 273.248768 
L 171.837738 269.756329 
L 180.027607 264.985507 
L 183.563781 262.616986 
L 187.052922 260.076797 
L 195.776119 252.71278 
L 199.890821 248.645183 
L 203.004205 245.261098 
L 206.450432 241.155506 
L 211.976494 233.593619 
L 215.297948 228.293208 
L 220.329471 218.667057 
L 222.264563 214.213373 
L 225.774729 204.278039 
L 228.209491 194.574136 
L 229.192959 188.987927 
L 229.826442 183.955823 
L 230.296094 177.487274 
L 230.396812 172.875082 
L 230.404998 174.133251 
L 230.448148 176.145883 
L 230.946442 183.752112 
L 231.587139 188.897617 
L 233.280292 197.761629 
L 234.900924 203.882381 
L 237.966451 212.808259 
L 240.888626 219.576781 
L 244.4278 226.434469 
L 246.726852 230.337395 
L 251.179637 236.993989 
L 255.685256 242.803231 
L 259.623538 247.28912 
L 264.868502 252.572866 
L 272.45105 259.083326 
L 280.294931 264.681399 
L 286.018242 268.153519 
L 292.814486 271.6898 
L 300.150619 274.86367 
L 307.745756 277.508722 
L 314.163374 279.271251 
L 322.562906 280.961172 
L 331.917435 282.05531 
L 337.707963 282.327548 
L 345.577191 282.206321 
L 354.028545 281.443081 
L 362.496276 280.006893 
L 364.820547 279.491825 
L 370.404082 278.034651 
L 376.864257 275.946669 
L 386.461973 271.99032 
L 389.945371 270.281373 
L 398.69085 265.276273 
L 401.542631 263.402228 
L 406.679394 259.689187 
L 412.397268 254.983256 
L 417.047424 250.638381 
L 422.679608 244.624864 
L 426.532463 239.93125 
L 432.644578 231.204355 
L 436.490468 224.602058 
L 438.502897 220.663706 
L 441.065021 214.984006 
L 443.080191 209.786705 
L 444.828403 204.493634 
L 445.927333 200.60021 
L 447.115738 195.595897 
L 448.163272 189.950708 
L 448.913628 184.258393 
L 449.390577 178.019325 
L 449.515385 172.791314 
L 449.515385 172.791314 
" style="fill:none;stroke:#ff0000;stroke-linecap:square;"/>
   </g>
   <g id="patch_3">
    <path d="M 230.39678 286.730898 
L 230.39678 58.869102 
" style="fill:none;stroke:#000000;stroke-linecap:square;stroke-linejoin:miter;stroke-width:0.8;"/>
   </g>
   <g id="patch_4">
    <path d="M 2.52 172.791314 
L 458.28 172.791314 
" style="fill:none;stroke:#000000;stroke-linecap:square;stroke-linejoin:miter;stroke-width:0.8;"/>
   </g>
  </g>
 </g>
 <defs>
  <clipPath id="pf1bb0f2d12">
   <rect height="227.861795" width="455.76" x="2.52" y="58.869102"/>
  </clipPath>
 </defs>
</svg>
