<?xml version="1.0" encoding="utf-8" standalone="no"?>
<!DOCTYPE svg PUBLIC "-//W3C//DTD SVG 1.1//EN"
  "http://www.w3.org/Graphics/SVG/1.1/DTD/svg11.dtd">
<!-- Created with matplotlib (https://matplotlib.org/) -->
<svg height="345.6pt" version="1.1" viewBox="0 0 460.8 345.6" width="460.8pt" xmlns="http://www.w3.org/2000/svg" xmlns:xlink="http://www.w3.org/1999/xlink">
 <metadata>
  <rdf:RDF xmlns:cc="http://creativecommons.org/ns#" xmlns:dc="http://purl.org/dc/elements/1.1/" xmlns:rdf="http://www.w3.org/1999/02/22-rdf-syntax-ns#">
   <cc:Work>
    <dc:type rdf:resource="http://purl.org/dc/dcmitype/StillImage"/>
    <dc:date>2021-08-24T12:31:54.008567</dc:date>
    <dc:format>image/svg+xml</dc:format>
    <dc:creator>
     <cc:Agent>
      <dc:title>Matplotlib v3.3.4, https://matplotlib.org/</dc:title>
     </cc:Agent>
    </dc:creator>
   </cc:Work>
  </rdf:RDF>
 </metadata>
 <defs>
  <style type="text/css">*{stroke-linecap:butt;stroke-linejoin:round;}</style>
 </defs>
 <g id="figure_1">
  <g id="patch_1">
   <path d="M 0 345.6 
L 460.8 345.6 
L 460.8 0 
L 0 0 
z
" style="fill:#ffffff;"/>
  </g>
  <g id="axes_1">
   <g id="patch_2">
    <path d="M 57.594318 345.6 
L 403.205682 345.6 
L 403.205682 0 
L 57.594318 0 
z
" style="fill:#ffffff;"/>
   </g>
   <g id="patch_3">
    <path clip-path="url(#p279f6e9872)" d="M 396.559309 172.806018 
L 396.470362 175.644625 
L 396.28748 177.76591 
L 396.005539 179.879904 
L 395.625289 181.983528 
L 395.147741 184.07375 
L 394.725284 185.634975 
L 394.249149 187.185697 
L 393.720047 188.724706 
L 393.138769 190.250817 
L 391.943098 193.005861 
L 391.128211 194.667706 
L 390.252592 196.307897 
L 389.317864 197.92503 
L 388.32575 199.517777 
L 386.890048 201.639188 
L 385.356753 203.710436 
L 383.977002 205.433873 
L 382.533437 207.117541 
L 380.314147 209.506086 
L 377.977026 211.803523 
L 375.700304 213.86289 
L 373.341026 215.83936 
L 368.965916 219.152441 
L 366.198679 221.050204 
L 360.296011 224.686638 
L 357.582878 226.200827 
L 352.472304 228.835479 
L 347.685304 231.093435 
L 343.616795 232.890806 
L 339.639664 234.571169 
L 336.911297 235.696546 
L 334.171912 236.817476 
L 331.958261 237.725965 
L 329.804151 238.620886 
L 328.399523 239.214498 
L 327.024092 239.806683 
L 325.678697 240.399311 
L 324.364058 240.994253 
L 322.299463 241.968542 
L 320.319188 242.961668 
L 319.075569 243.622163 
L 317.86831 244.295998 
L 316.812155 244.91595 
L 315.785352 245.549818 
L 314.787688 246.199006 
L 313.81886 246.864877 
L 312.638736 247.729531 
L 311.502757 248.625245 
L 310.521315 249.456229 
L 309.573348 250.31564 
L 308.657715 251.20496 
L 307.773151 252.125553 
L 306.988321 252.998078 
L 306.22729 253.898805 
L 305.400926 254.943029 
L 304.60109 256.024616 
L 303.711994 257.314984 
L 302.852271 258.6567 
L 302.259882 259.637532 
L 301.679374 260.644556 
L 301.10952 261.677843 
L 300.549064 262.737388 
L 299.479949 264.875335 
L 298.431947 267.111026 
L 297.428449 269.365581 
L 296.448455 271.653947 
L 295.461465 274.02059 
L 294.691561 275.892949 
L 293.90876 277.80636 
L 292.528392 281.168422 
L 291.081467 284.626522 
L 289.82165 287.548009 
L 288.495667 290.51165 
L 285.749561 296.24531 
L 284.178165 299.276092 
L 281.289582 304.393414 
L 279.971016 306.546101 
L 276.76687 311.342953 
L 274.410321 314.513602 
L 271.916203 317.573624 
L 269.172748 320.620845 
L 266.284305 323.501498 
L 263.52584 325.966183 
L 260.773831 328.168432 
L 257.925355 330.197039 
L 255.840019 331.529927 
L 253.711959 332.763942 
L 251.560932 333.886883 
L 249.373985 334.905019 
L 247.859335 335.539309 
L 246.330575 336.122111 
L 244.78886 336.652553 
L 243.235381 337.129841 
L 241.208242 337.667756 
L 239.166136 338.113989 
L 236.388452 338.56928 
L 233.5955 338.853109 
L 231.443867 338.953846 
L 229.290657 338.952317 
L 227.435877 338.868927 
L 225.584421 338.709722 
L 223.738358 338.475024 
L 221.899737 338.165309 
L 219.65687 337.683725 
L 217.431932 337.091619 
L 215.49775 336.482618 
L 213.582477 335.791368 
L 210.847931 334.648268 
L 208.164375 333.341757 
L 205.925602 332.105995 
L 204.382184 331.173792 
L 202.862033 330.189338 
L 201.366228 329.154305 
L 199.89578 328.070443 
L 197.114691 325.831848 
L 194.438828 323.429978 
L 192.195878 321.214655 
L 189.309372 318.068692 
L 186.583364 314.763176 
L 183.964872 311.248363 
L 181.857489 308.15245 
L 179.871306 304.995385 
L 177.194647 300.338656 
L 174.41391 294.968267 
L 173.517123 293.11492 
L 172.216649 290.321902 
L 170.980641 287.555764 
L 169.369254 283.803205 
L 167.848242 280.144198 
L 167.03912 278.170639 
L 166.247555 276.235346 
L 165.465778 274.331561 
L 164.694011 272.472061 
L 163.682705 270.086561 
L 162.989749 268.498458 
L 162.294418 266.952167 
L 161.593724 265.448699 
L 160.884701 263.988843 
L 160.343818 262.919262 
L 159.755184 261.800045 
L 159.1563 260.709913 
L 158.5457 259.648881 
L 157.921951 258.616871 
L 157.085572 257.312992 
L 156.221416 256.057666 
L 155.372322 254.909537 
L 154.493267 253.803479 
L 153.618544 252.779488 
L 152.712338 251.792083 
L 151.772966 250.839924 
L 150.798886 249.921523 
L 149.725089 248.981515 
L 148.609111 248.075608 
L 147.508787 247.244571 
L 146.368331 246.440172 
L 145.187003 245.660221 
L 143.964245 244.902425 
L 142.959102 244.312348 
L 141.927264 243.733601 
L 140.326415 242.882374 
L 138.665491 242.049401 
L 136.596268 241.068554 
L 134.443563 240.099418 
L 132.293431 239.169373 
L 129.489817 237.994147 
L 126.580665 236.798528 
L 123.345696 235.474136 
L 121.260439 234.613218 
L 119.140589 233.725839 
L 116.509517 232.599987 
L 113.841217 231.422094 
L 108.158596 228.752869 
L 102.069472 225.571692 
L 97.035664 222.612984 
L 94.368128 220.89625 
L 89.575894 217.495506 
L 86.8676 215.358614 
L 84.25334 213.117054 
L 82.103999 211.11915 
L 80.042126 209.04712 
L 77.480326 206.215857 
L 75.101692 203.265791 
L 73.198305 200.613848 
L 71.461159 197.891915 
L 69.992372 195.28609 
L 68.678256 192.623203 
L 67.997149 191.073305 
L 67.370019 189.507833 
L 66.797857 187.928029 
L 66.281569 186.335171 
L 65.85711 184.861083 
L 65.481095 183.378123 
L 65.15403 181.887353 
L 64.876356 180.389854 
L 64.597689 178.497568 
L 64.398416 176.598568 
L 64.272946 174.54484 
L 64.240691 172.488717 
L 64.301731 170.433031 
L 64.455915 168.380614 
L 64.765878 165.909321 
L 65.2101 163.451827 
L 65.915629 160.536771 
L 66.579173 158.336181 
L 67.349057 156.159268 
L 68.347606 153.72406 
L 69.476032 151.32825 
L 70.934783 148.616829 
L 72.553506 145.970128 
L 74.488274 143.168793 
L 76.591534 140.45764 
L 79.170631 137.49324 
L 81.932033 134.659525 
L 84.380101 132.381772 
L 86.442909 130.604828 
L 88.565926 128.893254 
L 91.496878 126.699778 
L 94.5064 124.623952 
L 99.238247 121.662614 
L 105.013732 118.454291 
L 105.749049 118.0727 
L 111.208442 115.39624 
L 115.070237 113.642329 
L 117.926267 112.401971 
L 120.733909 111.217882 
L 122.56917 110.457426 
L 124.376036 109.715327 
L 126.152031 108.988825 
L 127.894866 108.275091 
L 129.812115 107.484313 
L 131.629934 106.723914 
L 133.401026 105.967515 
L 135.811565 104.902004 
L 138.1218 103.825879 
L 139.468337 103.165733 
L 140.776732 102.495446 
L 142.046732 101.812719 
L 143.278246 101.1153 
L 144.711165 100.252303 
L 146.088753 99.36107 
L 147.548945 98.338128 
L 148.92211 97.28912 
L 150.233963 96.193951 
L 151.329833 95.198158 
L 152.382579 94.162096 
L 153.394198 93.083681 
L 154.366899 91.961051 
L 154.894538 91.313654 
L 155.876132 90.031118 
L 156.820737 88.693431 
L 157.731889 87.299392 
L 158.613317 85.848148 
L 159.503962 84.275262 
L 160.371167 82.639631 
L 161.093048 81.200893 
L 161.821957 79.680021 
L 162.543014 78.112928 
L 163.25949 76.500566 
L 163.974677 74.844137 
L 164.656194 73.230361 
L 165.72203 70.658054 
L 166.809347 68.003226 
L 167.854713 65.452106 
L 168.935799 62.842146 
L 170.018733 60.278247 
L 171.835315 56.132278 
L 173.794142 51.918239 
L 175.823926 47.85026 
L 177.801478 44.175072 
L 181.511787 37.991833 
L 182.688449 36.208838 
L 185.831747 31.822124 
L 187.48796 29.713798 
L 189.207468 27.660851 
L 190.989792 25.669897 
L 192.834081 23.747432 
L 195.568269 21.137371 
L 197.449668 19.497027 
L 199.38165 17.936522 
L 201.78705 16.159758 
L 204.259618 14.51515 
L 206.036741 13.441476 
L 207.843077 12.439338 
L 209.514719 11.589509 
L 211.20763 10.802715 
L 212.920249 10.080452 
L 214.650954 9.424101 
L 216.675697 8.747988 
L 218.41769 8.243898 
L 220.172005 7.807534 
L 221.936884 7.439714 
L 223.710537 7.141131 
L 226.118741 6.848557 
L 228.535099 6.684511 
L 230.389905 6.646154 
L 232.244722 6.68373 
L 234.09747 6.797164 
L 235.946076 6.986225 
L 237.0918 7.141643 
L 239.621779 7.589366 
L 242.132299 8.177657 
L 244.618207 8.904261 
L 247.074508 9.766399 
L 247.50154 9.931199 
L 249.589095 10.801755 
L 251.647444 11.76796 
L 253.673785 12.827089 
L 255.66547 13.976166 
L 257.274846 14.985754 
L 258.857834 16.052047 
L 260.751267 17.426554 
L 262.601636 18.878647 
L 265.137329 21.053128 
L 267.579261 23.362445 
L 269.714812 25.568293 
L 271.76807 27.865628 
L 274.165192 30.784672 
L 276.436349 33.807002 
L 276.868877 34.412876 
L 279.158469 37.792958 
L 281.304372 41.243396 
L 284.15328 46.289386 
L 286.948239 51.800853 
L 287.921826 53.85632 
L 289.884565 58.207602 
L 291.706281 62.467323 
L 293.104992 65.843394 
L 294.16582 68.434334 
L 295.199342 70.9558 
L 296.186742 73.335533 
L 297.164955 75.638624 
L 298.14016 77.856057 
L 299.122883 79.989823 
L 299.817485 81.427888 
L 300.52255 82.823464 
L 301.082464 83.884028 
L 301.651712 84.918347 
L 302.231549 85.926414 
L 302.823204 86.908295 
L 303.667576 88.230042 
L 304.458379 89.386708 
L 305.274686 90.503068 
L 306.118612 91.579951 
L 306.992158 92.618358 
L 307.734017 93.444259 
L 308.906034 94.654378 
L 310.132773 95.810676 
L 311.262661 96.788664 
L 312.438969 97.729747 
L 313.685106 98.652246 
L 314.981998 99.542238 
L 316.330582 100.402865 
L 317.731505 101.237425 
L 318.749918 101.811484 
L 320.545782 102.767428 
L 322.417305 103.700628 
L 323.841657 104.376275 
L 325.305814 105.04571 
L 326.808977 105.711566 
L 328.35016 106.376488 
L 331.111122 107.535885 
L 333.91872 108.690948 
L 336.817284 109.876942 
L 340.405376 111.359945 
L 343.966903 112.872334 
L 347.599155 114.479508 
L 350.244313 115.703574 
L 353.946352 117.510136 
L 360.567454 121.081873 
L 365.843019 124.327657 
L 370.911232 127.881333 
L 373.606911 129.988143 
L 376.211816 132.197966 
L 378.15574 133.977221 
L 381.093279 136.919411 
L 383.504926 139.615038 
L 385.750787 142.41699 
L 387.191058 144.401692 
L 388.541803 146.431424 
L 390.102381 149.035672 
L 391.508218 151.701142 
L 392.410283 153.631214 
L 393.228329 155.58692 
L 393.960321 157.565842 
L 394.604434 159.56547 
L 395.167143 161.615403 
L 395.636041 163.681219 
L 396.034509 165.919113 
L 396.263807 167.634992 
L 396.427879 169.355878 
L 396.526437 171.08011 
L 396.559309 172.806018 
L 368.865999 172.806018 
L 368.813579 171.405778 
L 368.656425 170.008431 
L 368.497136 169.097505 
L 368.293311 168.189854 
L 368.045119 167.286278 
L 367.75277 166.387571 
L 367.416508 165.49452 
L 367.036615 164.607908 
L 366.613407 163.728506 
L 366.147241 162.85708 
L 365.540016 161.836214 
L 364.873775 160.828829 
L 364.149299 159.836133 
L 363.367435 158.85931 
L 362.366245 157.72213 
L 361.287152 156.610815 
L 360.131926 155.527176 
L 358.902461 154.472957 
L 357.265009 153.19961 
L 355.772616 152.147609 
L 354.203005 151.135486 
L 352.559113 150.164963 
L 350.844006 149.237641 
L 349.408986 148.521238 
L 347.931328 147.834697 
L 345.762859 146.912227 
L 343.517248 146.053011 
L 341.199921 145.258499 
L 338.816455 144.529893 
L 335.854838 143.738389 
L 332.815216 143.045756 
L 328.362276 142.229497 
L 323.802936 141.615622 
L 320.049909 141.264785 
L 316.264443 141.042837 
L 309.200546 140.960001 
L 302.383801 141.263986 
L 298.160988 141.632364 
L 294.975168 141.998935 
L 291.845518 142.432178 
L 288.781375 142.925879 
L 285.791661 143.473416 
L 282.242159 144.207433 
L 280.107632 144.692555 
L 278.029966 145.196174 
L 276.297339 145.639774 
L 274.610544 146.092175 
L 272.9713 146.551107 
L 271.381219 147.014268 
L 269.382692 147.621149 
L 267.473464 148.226018 
L 265.656243 148.823583 
L 263.933393 149.408526 
L 262.889143 149.771037 
L 261.884221 150.124942 
L 260.919013 150.46888 
L 259.993847 150.801496 
L 258.704769 151.267902 
L 257.503746 151.702565 
L 256.384587 152.103606 
L 255.355018 152.464051 
L 254.414849 152.779784 
L 253.563619 153.046792 
L 253.017509 153.203375 
L 252.514753 153.332578 
L 252.054951 153.433115 
L 251.63764 153.503738 
L 251.210615 153.546351 
L 250.918748 153.550148 
L 250.658667 153.527829 
L 250.429887 153.478648 
L 250.231887 153.401889 
L 250.064111 153.296863 
L 249.925972 153.162912 
L 249.816848 152.999413 
L 249.736087 152.805771 
L 249.709392 152.710997 
L 249.65496 152.275304 
L 249.679928 151.742797 
L 249.780131 151.111167 
L 249.951167 150.378448 
L 250.169247 149.606561 
L 250.440512 148.7452 
L 250.760979 147.793627 
L 251.126546 146.751386 
L 251.3636 146.088522 
L 251.614214 145.393538 
L 252.007261 144.308352 
L 252.424931 143.153491 
L 252.864215 141.929422 
L 253.322076 140.636779 
L 253.720931 139.492379 
L 254.129005 138.300232 
L 254.544446 137.061002 
L 254.965403 135.775442 
L 255.719867 133.384058 
L 256.475637 130.854921 
L 257.245002 128.111514 
L 257.994176 125.23593 
L 258.645894 122.526814 
L 259.264823 119.723137 
L 260.010183 115.939332 
L 260.587437 112.564129 
L 261.09292 109.103374 
L 261.698988 103.764732 
L 262.096044 98.30706 
L 262.264115 92.101359 
L 262.121653 86.04476 
L 261.658749 80.03803 
L 261.227579 76.526363 
L 260.677883 73.070352 
L 259.997718 69.632105 
L 259.469399 67.360032 
L 258.885504 65.13178 
L 258.246497 62.951707 
L 257.553018 60.824093 
L 256.857283 58.889206 
L 256.115586 57.007021 
L 255.190352 54.875379 
L 254.205106 52.825469 
L 253.16176 50.862189 
L 252.06244 48.990247 
L 250.676446 46.876219 
L 249.669953 45.49134 
L 248.630021 44.178662 
L 247.558317 42.940387 
L 246.456588 41.778597 
L 245.570565 40.920231 
L 244.66803 40.111243 
L 243.749926 39.352477 
L 242.817222 38.644726 
L 241.82711 37.959838 
L 240.82327 37.332356 
L 239.806885 36.762999 
L 238.77916 36.25242 
L 237.477964 35.696783 
L 236.163347 35.235248 
L 234.837787 34.868648 
L 233.503791 34.597644 
L 232.217971 34.42791 
L 230.928963 34.346957 
L 229.603432 34.356398 
L 228.279375 34.459712 
L 226.959242 34.656718 
L 225.64547 34.94707 
L 224.303232 35.342603 
L 222.972901 35.835636 
L 221.657057 36.425254 
L 220.358237 37.110363 
L 218.832888 38.051898 
L 217.339512 39.125325 
L 216.338165 39.934375 
L 215.354918 40.802863 
L 214.390986 41.72972 
L 213.447548 42.713805 
L 212.484621 43.802211 
L 211.546582 44.950356 
L 210.634636 46.156706 
L 209.749934 47.419651 
L 208.792825 48.899157 
L 207.872712 50.445067 
L 206.990953 52.054809 
L 206.148808 53.725713 
L 205.436869 55.254628 
L 204.757656 56.827384 
L 204.111838 58.441949 
L 203.500017 60.096247 
L 202.792338 62.190307 
L 202.138139 64.337608 
L 201.538109 66.533981 
L 200.992765 68.775183 
L 200.40124 71.56774 
L 199.892122 74.412799 
L 199.495446 77.076995 
L 199.168437 79.772632 
L 198.876076 82.923143 
L 198.674642 86.097231 
L 198.535526 91.367884 
L 198.742672 99.037077 
L 199.106576 103.835877 
L 199.632264 108.541911 
L 200.397925 113.708758 
L 200.840338 116.219468 
L 201.317231 118.67499 
L 201.771762 120.830508 
L 202.247667 122.934342 
L 202.779592 125.135412 
L 203.328411 127.269462 
L 203.889916 129.333074 
L 204.459815 131.323079 
L 205.069613 133.353449 
L 205.678647 135.294273 
L 206.060976 136.474129 
L 206.43949 137.616389 
L 206.81282 138.720466 
L 207.179597 139.785827 
L 207.517839 140.753452 
L 207.847908 141.68596 
L 208.168667 142.583048 
L 208.478982 143.444458 
L 208.826047 144.403337 
L 209.155615 145.313185 
L 209.513904 146.30759 
L 209.843549 147.235577 
L 210.14189 148.097172 
L 210.40632 148.892552 
L 210.620863 149.577399 
L 210.801418 150.204894 
L 210.945999 150.775536 
L 211.052684 151.289934 
L 211.131627 151.875265 
L 211.139609 152.368789 
L 211.072936 152.772644 
L 210.928137 153.089257 
L 210.778622 153.26035 
L 210.588233 153.391047 
L 210.355997 153.482413 
L 210.081007 153.535569 
L 209.834037 153.551303 
L 209.559695 153.544709 
L 209.257626 153.516408 
L 208.927503 153.467037 
L 208.374432 153.353841 
L 207.755633 153.19633 
L 207.297096 153.065203 
L 206.807632 152.91551 
L 206.287073 152.748052 
L 205.735283 152.563647 
L 204.783768 152.234216 
L 203.751254 151.866758 
L 202.637728 151.464865 
L 201.443405 151.032194 
L 200.130549 150.558753 
L 198.733344 150.060748 
L 197.252782 149.542309 
L 195.69011 149.007591 
L 193.886245 148.408216 
L 191.988013 147.799774 
L 189.943194 147.1712 
L 188.14142 146.641123 
L 186.275057 146.115976 
L 184.34649 145.599202 
L 182.358286 145.094185 
L 180.41859 144.62876 
L 178.430141 144.179692 
L 175.424758 143.555037 
L 172.328638 142.979834 
L 169.151215 142.461984 
L 165.902453 142.008949 
L 164.966448 141.892872 
L 158.78914 141.291143 
L 152.485185 140.978734 
L 146.79969 140.970442 
L 141.829864 141.188229 
L 137.771036 141.532106 
L 133.765476 142.028365 
L 130.825555 142.498937 
L 127.935678 143.055805 
L 125.104448 143.698905 
L 122.340348 144.42775 
L 119.879243 145.168319 
L 117.487448 145.978799 
L 115.342395 146.789485 
L 113.266532 147.657648 
L 111.264416 148.581866 
L 109.340462 149.56052 
L 107.984127 150.310372 
L 106.633323 151.112412 
L 105.332916 151.942728 
L 104.084556 152.800366 
L 102.889833 153.684316 
L 101.262043 155.005286 
L 99.753636 156.375546 
L 98.368637 157.791522 
L 97.110753 159.249454 
L 96.311248 160.28801 
L 95.57614 161.343658 
L 94.906388 162.414988 
L 94.302868 163.500563 
L 93.822826 164.475901 
L 93.396193 165.460283 
L 92.843331 166.995584 
L 92.420209 168.545965 
L 92.127868 170.107415 
L 91.967031 171.675881 
L 91.938911 173.280685 
L 92.048429 174.8842 
L 92.180176 175.844329 
L 92.361302 176.801488 
L 92.591638 177.754744 
L 92.870972 178.703169 
L 93.337945 180.006191 
L 93.897451 181.295778 
L 94.548498 182.569548 
L 95.289932 183.825161 
L 96.214972 185.191807 
L 97.247259 186.530338 
L 98.384557 187.837812 
L 99.624407 189.111388 
L 101.292941 190.633234 
L 103.108273 192.094345 
L 104.226373 192.912331 
L 105.390655 193.707482 
L 106.59984 194.47899 
L 107.852601 195.226088 
L 109.246984 196.001503 
L 110.688421 196.746996 
L 112.175097 197.461779 
L 113.705142 198.145122 
L 116.254788 199.177591 
L 118.903609 200.124413 
L 121.594374 200.969304 
L 124.364308 201.728111 
L 126.597146 202.264687 
L 128.86961 202.74683 
L 133.51619 203.547365 
L 138.600809 204.162879 
L 144.295536 204.558967 
L 150.028325 204.669562 
L 156.48853 204.470861 
L 160.844655 204.152607 
L 165.180516 203.693189 
L 169.417138 203.109538 
L 173.572376 202.409489 
L 177.580334 201.61558 
L 180.732496 200.909785 
L 183.14151 200.322278 
L 185.468755 199.715327 
L 187.709771 199.094544 
L 189.860465 198.465666 
L 192.375231 197.690063 
L 193.57738 197.304412 
L 194.741783 196.922039 
L 196.744336 196.245197 
L 198.080392 195.781233 
L 199.351831 195.33176 
L 200.557882 194.899631 
L 201.697926 194.487686 
L 202.764634 194.101223 
L 203.765451 193.74018 
L 204.70023 193.407246 
L 205.568976 193.105065 
L 206.244529 192.877975 
L 206.874227 192.675666 
L 207.458311 192.49959 
L 207.997095 192.351167 
L 208.591481 192.210003 
L 209.12035 192.114134 
L 209.584677 192.06588 
L 209.985578 192.067462 
L 210.390772 192.139996 
L 210.705944 192.293547 
L 210.869394 192.44491 
L 210.993988 192.635796 
L 211.110982 193.002209 
L 211.14493 193.464297 
L 211.099862 194.02465 
L 210.980059 194.685519 
L 210.838284 195.269529 
L 210.656337 195.916096 
L 210.436502 196.625823 
L 210.181129 197.399179 
L 209.872791 198.293145 
L 209.563166 199.16682 
L 209.227367 200.100384 
L 208.867703 201.093753 
L 208.486519 202.146713 
L 208.000901 203.4972 
L 207.491574 204.933257 
L 206.96279 206.453781 
L 206.418819 208.05741 
L 206.073667 209.099208 
L 205.623395 210.490606 
L 205.169998 211.933077 
L 204.715691 213.42546 
L 204.262673 214.966484 
L 203.584925 217.386063 
L 202.922517 219.908523 
L 202.395377 222.051852 
L 201.887375 224.257268 
L 201.402319 226.521159 
L 200.943904 228.839705 
L 200.363538 232.110017 
L 199.849142 235.46505 
L 199.220799 240.616027 
L 198.783855 245.889189 
L 198.534922 253.445384 
L 198.557714 256.112478 
L 198.804987 261.721433 
L 199.332497 267.26661 
L 199.730483 270.173439 
L 200.210832 273.038623 
L 201.025324 276.978526 
L 201.689529 279.65606 
L 202.4321 282.267609 
L 203.252039 284.805914 
L 204.148004 287.263883 
L 204.842238 288.987134 
L 205.5746 290.662234 
L 206.344256 292.286707 
L 207.150288 293.858144 
L 208.416936 296.096798 
L 209.458178 297.754402 
L 210.543184 299.329147 
L 211.669913 300.817836 
L 212.836196 302.217437 
L 213.806466 303.281902 
L 214.799827 304.284844 
L 216.08725 305.463167 
L 217.406746 306.538405 
L 218.755453 307.508249 
L 220.130413 308.370615 
L 221.478896 309.098959 
L 222.846185 309.724085 
L 223.839006 310.108951 
L 224.838994 310.439436 
L 225.845061 310.715196 
L 226.856112 310.935945 
L 227.871042 311.101454 
L 228.888741 311.21155 
L 229.908096 311.26612 
L 230.927989 311.265106 
L 232.410175 311.164419 
L 233.887701 310.946363 
L 235.127249 310.671677 
L 236.359018 310.314331 
L 237.580992 309.874882 
L 238.791176 309.354016 
L 240.131295 308.674373 
L 241.451408 307.894782 
L 242.748852 307.016768 
L 244.021031 306.042048 
L 244.726355 305.450438 
L 246.091612 304.194954 
L 247.417391 302.826353 
L 248.700539 301.347932 
L 249.938062 299.76325 
L 250.973929 298.303239 
L 251.971478 296.768535 
L 252.929066 295.161908 
L 253.845166 293.486246 
L 255.053632 291.033762 
L 256.174803 288.460829 
L 257.311296 285.480794 
L 258.33364 282.376595 
L 258.952779 280.23619 
L 259.51903 278.05006 
L 260.031974 275.8223 
L 260.491353 273.557061 
L 261.213988 269.181975 
L 261.802222 264.114316 
L 262.149616 258.972859 
L 262.244951 251.578235 
L 262.176722 249.112943 
L 261.784169 242.793989 
L 261.251697 237.741472 
L 260.551989 232.825726 
L 259.924983 229.212071 
L 259.414836 226.609923 
L 258.871106 224.076118 
L 258.298986 221.616015 
L 257.703847 219.234645 
L 257.177117 217.250618 
L 256.641025 215.331247 
L 256.099248 213.479115 
L 255.555515 211.696598 
L 255.297494 210.874445 
L 254.758899 209.201962 
L 254.227699 207.603736 
L 253.707699 206.081377 
L 253.202707 204.636275 
L 252.746877 203.35434 
L 252.310639 202.141924 
L 251.897075 200.999628 
L 251.509233 199.927877 
L 251.144103 198.910005 
L 250.811845 197.965509 
L 250.55006 197.197892 
L 250.317904 196.486382 
L 250.117352 195.830683 
L 249.950332 195.230391 
L 249.78053 194.502862 
L 249.68056 193.875018 
L 249.654733 193.344934 
L 249.707132 192.910355 
L 249.770828 192.710798 
L 249.860047 192.538982 
L 249.975371 192.394409 
L 250.117357 192.276549 
L 250.338718 192.163831 
L 250.605626 192.092703 
L 250.919051 192.061878 
L 251.279883 192.070001 
L 251.845138 192.140493 
L 252.199194 192.208267 
L 252.58151 192.295597 
L 253.43186 192.526199 
L 254.397786 192.826691 
L 255.480427 193.191234 
L 256.45904 193.534884 
L 257.517239 193.914339 
L 258.630682 194.317284 
L 259.8201 194.747826 
L 261.105693 195.209948 
L 262.468468 195.693415 
L 263.907484 196.194585 
L 265.421588 196.709802 
L 267.064595 197.253384 
L 268.784662 197.804021 
L 270.5798 198.357687 
L 272.447788 198.910386 
L 274.092037 199.376745 
L 276.154779 199.934809 
L 278.287041 200.479852 
L 280.485423 201.007728 
L 282.746293 201.514393 
L 285.875645 202.154884 
L 289.100855 202.740828 
L 293.813406 203.460691 
L 298.664729 204.030695 
L 304.198087 204.464492 
L 313.909562 204.643552 
L 315.588561 204.595441 
L 320.252907 204.331674 
L 324.866654 203.872157 
L 327.667976 203.489966 
L 330.430897 203.031326 
L 333.148152 202.496001 
L 335.812548 201.88409 
L 338.367131 201.210077 
L 340.857477 200.463553 
L 342.655971 199.864754 
L 344.413154 199.227284 
L 346.126512 198.551752 
L 347.793584 197.838851 
L 350.155473 196.724528 
L 352.404764 195.533926 
L 353.683024 194.792846 
L 354.917754 194.02675 
L 356.107584 193.236403 
L 357.251191 192.42261 
L 358.374309 191.56485 
L 359.446191 190.684289 
L 361.045713 189.236047 
L 362.507103 187.736638 
L 363.825986 186.19052 
L 364.998405 184.602362 
L 365.598167 183.682751 
L 366.148879 182.752041 
L 366.648786 181.813586 
L 367.098877 180.86596 
L 367.498714 179.910117 
L 367.847909 178.947024 
L 368.146125 177.977656 
L 368.393071 177.003001 
L 368.588508 176.024052 
L 368.732246 175.041809 
L 368.83255 173.924651 
L 368.865999 172.806018 
z
" style="fill:#ffa500;opacity:0.5;"/>
   </g>
   <g id="matplotlib.axis_1">
    <g id="xtick_1">
     <g id="line2d_1">
      <defs>
       <path d="M 0 0 
L 0 3.5 
" id="m119e603003" style="stroke:#000000;stroke-width:0.8;"/>
      </defs>
      <g>
       <use style="stroke:#000000;stroke-width:0.8;" x="64.23958" xlink:href="#m119e603003" y="172.806018"/>
      </g>
     </g>
     <g id="text_1">
      <!-- −3 -->
      <g transform="translate(56.868486 187.404455)scale(0.1 -0.1)">
       <defs>
        <path d="M 10.59375 35.5 
L 73.1875 35.5 
L 73.1875 27.203125 
L 10.59375 27.203125 
z
" id="DejaVuSans-8722"/>
        <path d="M 40.578125 39.3125 
Q 47.65625 37.796875 51.625 33 
Q 55.609375 28.21875 55.609375 21.1875 
Q 55.609375 10.40625 48.1875 4.484375 
Q 40.765625 -1.421875 27.09375 -1.421875 
Q 22.515625 -1.421875 17.65625 -0.515625 
Q 12.796875 0.390625 7.625 2.203125 
L 7.625 11.71875 
Q 11.71875 9.328125 16.59375 8.109375 
Q 21.484375 6.890625 26.8125 6.890625 
Q 36.078125 6.890625 40.9375 10.546875 
Q 45.796875 14.203125 45.796875 21.1875 
Q 45.796875 27.640625 41.28125 31.265625 
Q 36.765625 34.90625 28.71875 34.90625 
L 20.21875 34.90625 
L 20.21875 43.015625 
L 29.109375 43.015625 
Q 36.375 43.015625 40.234375 45.921875 
Q 44.09375 48.828125 44.09375 54.296875 
Q 44.09375 59.90625 40.109375 62.90625 
Q 36.140625 65.921875 28.71875 65.921875 
Q 24.65625 65.921875 20.015625 65.03125 
Q 15.375 64.15625 9.8125 62.3125 
L 9.8125 71.09375 
Q 15.4375 72.65625 20.34375 73.4375 
Q 25.25 74.21875 29.59375 74.21875 
Q 40.828125 74.21875 47.359375 69.109375 
Q 53.90625 64.015625 53.90625 55.328125 
Q 53.90625 49.265625 50.4375 45.09375 
Q 46.96875 40.921875 40.578125 39.3125 
z
" id="DejaVuSans-51"/>
       </defs>
       <use xlink:href="#DejaVuSans-8722"/>
       <use x="83.789062" xlink:href="#DejaVuSans-51"/>
      </g>
     </g>
    </g>
    <g id="xtick_2">
     <g id="line2d_2">
      <g>
       <use style="stroke:#000000;stroke-width:0.8;" x="119.626201" xlink:href="#m119e603003" y="172.806018"/>
      </g>
     </g>
     <g id="text_2">
      <!-- −2 -->
      <g transform="translate(112.255108 187.404455)scale(0.1 -0.1)">
       <defs>
        <path d="M 19.1875 8.296875 
L 53.609375 8.296875 
L 53.609375 0 
L 7.328125 0 
L 7.328125 8.296875 
Q 12.9375 14.109375 22.625 23.890625 
Q 32.328125 33.6875 34.8125 36.53125 
Q 39.546875 41.84375 41.421875 45.53125 
Q 43.3125 49.21875 43.3125 52.78125 
Q 43.3125 58.59375 39.234375 62.25 
Q 35.15625 65.921875 28.609375 65.921875 
Q 23.96875 65.921875 18.8125 64.3125 
Q 13.671875 62.703125 7.8125 59.421875 
L 7.8125 69.390625 
Q 13.765625 71.78125 18.9375 73 
Q 24.125 74.21875 28.421875 74.21875 
Q 39.75 74.21875 46.484375 68.546875 
Q 53.21875 62.890625 53.21875 53.421875 
Q 53.21875 48.921875 51.53125 44.890625 
Q 49.859375 40.875 45.40625 35.40625 
Q 44.1875 33.984375 37.640625 27.21875 
Q 31.109375 20.453125 19.1875 8.296875 
z
" id="DejaVuSans-50"/>
       </defs>
       <use xlink:href="#DejaVuSans-8722"/>
       <use x="83.789062" xlink:href="#DejaVuSans-50"/>
      </g>
     </g>
    </g>
    <g id="xtick_3">
     <g id="line2d_3">
      <g>
       <use style="stroke:#000000;stroke-width:0.8;" x="175.012823" xlink:href="#m119e603003" y="172.806018"/>
      </g>
     </g>
     <g id="text_3">
      <!-- −1 -->
      <g transform="translate(167.641729 187.404455)scale(0.1 -0.1)">
       <defs>
        <path d="M 12.40625 8.296875 
L 28.515625 8.296875 
L 28.515625 63.921875 
L 10.984375 60.40625 
L 10.984375 69.390625 
L 28.421875 72.90625 
L 38.28125 72.90625 
L 38.28125 8.296875 
L 54.390625 8.296875 
L 54.390625 0 
L 12.40625 0 
z
" id="DejaVuSans-49"/>
       </defs>
       <use xlink:href="#DejaVuSans-8722"/>
       <use x="83.789062" xlink:href="#DejaVuSans-49"/>
      </g>
     </g>
    </g>
    <g id="xtick_4">
     <g id="line2d_4">
      <g>
       <use style="stroke:#000000;stroke-width:0.8;" x="230.399445" xlink:href="#m119e603003" y="172.806018"/>
      </g>
     </g>
    </g>
    <g id="xtick_5">
     <g id="line2d_5">
      <g>
       <use style="stroke:#000000;stroke-width:0.8;" x="285.786066" xlink:href="#m119e603003" y="172.806018"/>
      </g>
     </g>
     <g id="text_4">
      <!-- 1 -->
      <g transform="translate(282.604816 187.404455)scale(0.1 -0.1)">
       <use xlink:href="#DejaVuSans-49"/>
      </g>
     </g>
    </g>
    <g id="xtick_6">
     <g id="line2d_6">
      <g>
       <use style="stroke:#000000;stroke-width:0.8;" x="341.172688" xlink:href="#m119e603003" y="172.806018"/>
      </g>
     </g>
     <g id="text_5">
      <!-- 2 -->
      <g transform="translate(337.991438 187.404455)scale(0.1 -0.1)">
       <use xlink:href="#DejaVuSans-50"/>
      </g>
     </g>
    </g>
    <g id="xtick_7">
     <g id="line2d_7">
      <g>
       <use style="stroke:#000000;stroke-width:0.8;" x="396.559309" xlink:href="#m119e603003" y="172.806018"/>
      </g>
     </g>
     <g id="text_6">
      <!-- 3 -->
      <g transform="translate(393.378059 187.404455)scale(0.1 -0.1)">
       <use xlink:href="#DejaVuSans-51"/>
      </g>
     </g>
    </g>
    <g id="xtick_8">
     <g id="line2d_8">
      <defs>
       <path d="M 0 0 
L 0 2 
" id="m32cdd7f9c0" style="stroke:#000000;stroke-width:0.6;"/>
      </defs>
      <g>
       <use style="stroke:#000000;stroke-width:0.6;" x="75.316904" xlink:href="#m32cdd7f9c0" y="172.806018"/>
      </g>
     </g>
    </g>
    <g id="xtick_9">
     <g id="line2d_9">
      <g>
       <use style="stroke:#000000;stroke-width:0.6;" x="86.394228" xlink:href="#m32cdd7f9c0" y="172.806018"/>
      </g>
     </g>
    </g>
    <g id="xtick_10">
     <g id="line2d_10">
      <g>
       <use style="stroke:#000000;stroke-width:0.6;" x="97.471553" xlink:href="#m32cdd7f9c0" y="172.806018"/>
      </g>
     </g>
    </g>
    <g id="xtick_11">
     <g id="line2d_11">
      <g>
       <use style="stroke:#000000;stroke-width:0.6;" x="108.548877" xlink:href="#m32cdd7f9c0" y="172.806018"/>
      </g>
     </g>
    </g>
    <g id="xtick_12">
     <g id="line2d_12">
      <g>
       <use style="stroke:#000000;stroke-width:0.6;" x="130.703526" xlink:href="#m32cdd7f9c0" y="172.806018"/>
      </g>
     </g>
    </g>
    <g id="xtick_13">
     <g id="line2d_13">
      <g>
       <use style="stroke:#000000;stroke-width:0.6;" x="141.78085" xlink:href="#m32cdd7f9c0" y="172.806018"/>
      </g>
     </g>
    </g>
    <g id="xtick_14">
     <g id="line2d_14">
      <g>
       <use style="stroke:#000000;stroke-width:0.6;" x="152.858174" xlink:href="#m32cdd7f9c0" y="172.806018"/>
      </g>
     </g>
    </g>
    <g id="xtick_15">
     <g id="line2d_15">
      <g>
       <use style="stroke:#000000;stroke-width:0.6;" x="163.935499" xlink:href="#m32cdd7f9c0" y="172.806018"/>
      </g>
     </g>
    </g>
    <g id="xtick_16">
     <g id="line2d_16">
      <g>
       <use style="stroke:#000000;stroke-width:0.6;" x="186.090147" xlink:href="#m32cdd7f9c0" y="172.806018"/>
      </g>
     </g>
    </g>
    <g id="xtick_17">
     <g id="line2d_17">
      <g>
       <use style="stroke:#000000;stroke-width:0.6;" x="197.167472" xlink:href="#m32cdd7f9c0" y="172.806018"/>
      </g>
     </g>
    </g>
    <g id="xtick_18">
     <g id="line2d_18">
      <g>
       <use style="stroke:#000000;stroke-width:0.6;" x="208.244796" xlink:href="#m32cdd7f9c0" y="172.806018"/>
      </g>
     </g>
    </g>
    <g id="xtick_19">
     <g id="line2d_19">
      <g>
       <use style="stroke:#000000;stroke-width:0.6;" x="219.32212" xlink:href="#m32cdd7f9c0" y="172.806018"/>
      </g>
     </g>
    </g>
    <g id="xtick_20">
     <g id="line2d_20">
      <g>
       <use style="stroke:#000000;stroke-width:0.6;" x="241.476769" xlink:href="#m32cdd7f9c0" y="172.806018"/>
      </g>
     </g>
    </g>
    <g id="xtick_21">
     <g id="line2d_21">
      <g>
       <use style="stroke:#000000;stroke-width:0.6;" x="252.554093" xlink:href="#m32cdd7f9c0" y="172.806018"/>
      </g>
     </g>
    </g>
    <g id="xtick_22">
     <g id="line2d_22">
      <g>
       <use style="stroke:#000000;stroke-width:0.6;" x="263.631418" xlink:href="#m32cdd7f9c0" y="172.806018"/>
      </g>
     </g>
    </g>
    <g id="xtick_23">
     <g id="line2d_23">
      <g>
       <use style="stroke:#000000;stroke-width:0.6;" x="274.708742" xlink:href="#m32cdd7f9c0" y="172.806018"/>
      </g>
     </g>
    </g>
    <g id="xtick_24">
     <g id="line2d_24">
      <g>
       <use style="stroke:#000000;stroke-width:0.6;" x="296.863391" xlink:href="#m32cdd7f9c0" y="172.806018"/>
      </g>
     </g>
    </g>
    <g id="xtick_25">
     <g id="line2d_25">
      <g>
       <use style="stroke:#000000;stroke-width:0.6;" x="307.940715" xlink:href="#m32cdd7f9c0" y="172.806018"/>
      </g>
     </g>
    </g>
    <g id="xtick_26">
     <g id="line2d_26">
      <g>
       <use style="stroke:#000000;stroke-width:0.6;" x="319.018039" xlink:href="#m32cdd7f9c0" y="172.806018"/>
      </g>
     </g>
    </g>
    <g id="xtick_27">
     <g id="line2d_27">
      <g>
       <use style="stroke:#000000;stroke-width:0.6;" x="330.095363" xlink:href="#m32cdd7f9c0" y="172.806018"/>
      </g>
     </g>
    </g>
    <g id="xtick_28">
     <g id="line2d_28">
      <g>
       <use style="stroke:#000000;stroke-width:0.6;" x="352.250012" xlink:href="#m32cdd7f9c0" y="172.806018"/>
      </g>
     </g>
    </g>
    <g id="xtick_29">
     <g id="line2d_29">
      <g>
       <use style="stroke:#000000;stroke-width:0.6;" x="363.327336" xlink:href="#m32cdd7f9c0" y="172.806018"/>
      </g>
     </g>
    </g>
    <g id="xtick_30">
     <g id="line2d_30">
      <g>
       <use style="stroke:#000000;stroke-width:0.6;" x="374.404661" xlink:href="#m32cdd7f9c0" y="172.806018"/>
      </g>
     </g>
    </g>
    <g id="xtick_31">
     <g id="line2d_31">
      <g>
       <use style="stroke:#000000;stroke-width:0.6;" x="385.481985" xlink:href="#m32cdd7f9c0" y="172.806018"/>
      </g>
     </g>
    </g>
   </g>
   <g id="matplotlib.axis_2">
    <g id="ytick_1">
     <g id="line2d_32">
      <defs>
       <path d="M 0 0 
L -3.5 0 
" id="m5298ea9b18" style="stroke:#000000;stroke-width:0.8;"/>
      </defs>
      <g>
       <use style="stroke:#000000;stroke-width:0.8;" x="230.399445" xlink:href="#m5298ea9b18" y="338.965883"/>
      </g>
     </g>
     <g id="text_7">
      <!-- −3 -->
      <g transform="translate(208.657257 342.765101)scale(0.1 -0.1)">
       <use xlink:href="#DejaVuSans-8722"/>
       <use x="83.789062" xlink:href="#DejaVuSans-51"/>
      </g>
     </g>
    </g>
    <g id="ytick_2">
     <g id="line2d_33">
      <g>
       <use style="stroke:#000000;stroke-width:0.8;" x="230.399445" xlink:href="#m5298ea9b18" y="283.579261"/>
      </g>
     </g>
     <g id="text_8">
      <!-- −2 -->
      <g transform="translate(208.657257 287.37848)scale(0.1 -0.1)">
       <use xlink:href="#DejaVuSans-8722"/>
       <use x="83.789062" xlink:href="#DejaVuSans-50"/>
      </g>
     </g>
    </g>
    <g id="ytick_3">
     <g id="line2d_34">
      <g>
       <use style="stroke:#000000;stroke-width:0.8;" x="230.399445" xlink:href="#m5298ea9b18" y="228.192639"/>
      </g>
     </g>
     <g id="text_9">
      <!-- −1 -->
      <g transform="translate(208.657257 231.991858)scale(0.1 -0.1)">
       <use xlink:href="#DejaVuSans-8722"/>
       <use x="83.789062" xlink:href="#DejaVuSans-49"/>
      </g>
     </g>
    </g>
    <g id="ytick_4">
     <g id="line2d_35">
      <g>
       <use style="stroke:#000000;stroke-width:0.8;" x="230.399445" xlink:href="#m5298ea9b18" y="172.806018"/>
      </g>
     </g>
    </g>
    <g id="ytick_5">
     <g id="line2d_36">
      <g>
       <use style="stroke:#000000;stroke-width:0.8;" x="230.399445" xlink:href="#m5298ea9b18" y="117.419396"/>
      </g>
     </g>
     <g id="text_10">
      <!-- 1 -->
      <g transform="translate(217.036945 121.218615)scale(0.1 -0.1)">
       <use xlink:href="#DejaVuSans-49"/>
      </g>
     </g>
    </g>
    <g id="ytick_6">
     <g id="line2d_37">
      <g>
       <use style="stroke:#000000;stroke-width:0.8;" x="230.399445" xlink:href="#m5298ea9b18" y="62.032774"/>
      </g>
     </g>
     <g id="text_11">
      <!-- 2 -->
      <g transform="translate(217.036945 65.831993)scale(0.1 -0.1)">
       <use xlink:href="#DejaVuSans-50"/>
      </g>
     </g>
    </g>
    <g id="ytick_7">
     <g id="line2d_38">
      <g>
       <use style="stroke:#000000;stroke-width:0.8;" x="230.399445" xlink:href="#m5298ea9b18" y="6.646153"/>
      </g>
     </g>
     <g id="text_12">
      <!-- 3 -->
      <g transform="translate(217.036945 10.445372)scale(0.1 -0.1)">
       <use xlink:href="#DejaVuSans-51"/>
      </g>
     </g>
    </g>
    <g id="ytick_8">
     <g id="line2d_39">
      <defs>
       <path d="M 0 0 
L -2 0 
" id="mc806c2c3c1" style="stroke:#000000;stroke-width:0.6;"/>
      </defs>
      <g>
       <use style="stroke:#000000;stroke-width:0.6;" x="230.399445" xlink:href="#mc806c2c3c1" y="327.888558"/>
      </g>
     </g>
    </g>
    <g id="ytick_9">
     <g id="line2d_40">
      <g>
       <use style="stroke:#000000;stroke-width:0.6;" x="230.399445" xlink:href="#mc806c2c3c1" y="316.811234"/>
      </g>
     </g>
    </g>
    <g id="ytick_10">
     <g id="line2d_41">
      <g>
       <use style="stroke:#000000;stroke-width:0.6;" x="230.399445" xlink:href="#mc806c2c3c1" y="305.73391"/>
      </g>
     </g>
    </g>
    <g id="ytick_11">
     <g id="line2d_42">
      <g>
       <use style="stroke:#000000;stroke-width:0.6;" x="230.399445" xlink:href="#mc806c2c3c1" y="294.656585"/>
      </g>
     </g>
    </g>
    <g id="ytick_12">
     <g id="line2d_43">
      <g>
       <use style="stroke:#000000;stroke-width:0.6;" x="230.399445" xlink:href="#mc806c2c3c1" y="272.501937"/>
      </g>
     </g>
    </g>
    <g id="ytick_13">
     <g id="line2d_44">
      <g>
       <use style="stroke:#000000;stroke-width:0.6;" x="230.399445" xlink:href="#mc806c2c3c1" y="261.424612"/>
      </g>
     </g>
    </g>
    <g id="ytick_14">
     <g id="line2d_45">
      <g>
       <use style="stroke:#000000;stroke-width:0.6;" x="230.399445" xlink:href="#mc806c2c3c1" y="250.347288"/>
      </g>
     </g>
    </g>
    <g id="ytick_15">
     <g id="line2d_46">
      <g>
       <use style="stroke:#000000;stroke-width:0.6;" x="230.399445" xlink:href="#mc806c2c3c1" y="239.269964"/>
      </g>
     </g>
    </g>
    <g id="ytick_16">
     <g id="line2d_47">
      <g>
       <use style="stroke:#000000;stroke-width:0.6;" x="230.399445" xlink:href="#mc806c2c3c1" y="217.115315"/>
      </g>
     </g>
    </g>
    <g id="ytick_17">
     <g id="line2d_48">
      <g>
       <use style="stroke:#000000;stroke-width:0.6;" x="230.399445" xlink:href="#mc806c2c3c1" y="206.037991"/>
      </g>
     </g>
    </g>
    <g id="ytick_18">
     <g id="line2d_49">
      <g>
       <use style="stroke:#000000;stroke-width:0.6;" x="230.399445" xlink:href="#mc806c2c3c1" y="194.960666"/>
      </g>
     </g>
    </g>
    <g id="ytick_19">
     <g id="line2d_50">
      <g>
       <use style="stroke:#000000;stroke-width:0.6;" x="230.399445" xlink:href="#mc806c2c3c1" y="183.883342"/>
      </g>
     </g>
    </g>
    <g id="ytick_20">
     <g id="line2d_51">
      <g>
       <use style="stroke:#000000;stroke-width:0.6;" x="230.399445" xlink:href="#mc806c2c3c1" y="161.728693"/>
      </g>
     </g>
    </g>
    <g id="ytick_21">
     <g id="line2d_52">
      <g>
       <use style="stroke:#000000;stroke-width:0.6;" x="230.399445" xlink:href="#mc806c2c3c1" y="150.651369"/>
      </g>
     </g>
    </g>
    <g id="ytick_22">
     <g id="line2d_53">
      <g>
       <use style="stroke:#000000;stroke-width:0.6;" x="230.399445" xlink:href="#mc806c2c3c1" y="139.574045"/>
      </g>
     </g>
    </g>
    <g id="ytick_23">
     <g id="line2d_54">
      <g>
       <use style="stroke:#000000;stroke-width:0.6;" x="230.399445" xlink:href="#mc806c2c3c1" y="128.49672"/>
      </g>
     </g>
    </g>
    <g id="ytick_24">
     <g id="line2d_55">
      <g>
       <use style="stroke:#000000;stroke-width:0.6;" x="230.399445" xlink:href="#mc806c2c3c1" y="106.342072"/>
      </g>
     </g>
    </g>
    <g id="ytick_25">
     <g id="line2d_56">
      <g>
       <use style="stroke:#000000;stroke-width:0.6;" x="230.399445" xlink:href="#mc806c2c3c1" y="95.264747"/>
      </g>
     </g>
    </g>
    <g id="ytick_26">
     <g id="line2d_57">
      <g>
       <use style="stroke:#000000;stroke-width:0.6;" x="230.399445" xlink:href="#mc806c2c3c1" y="84.187423"/>
      </g>
     </g>
    </g>
    <g id="ytick_27">
     <g id="line2d_58">
      <g>
       <use style="stroke:#000000;stroke-width:0.6;" x="230.399445" xlink:href="#mc806c2c3c1" y="73.110099"/>
      </g>
     </g>
    </g>
    <g id="ytick_28">
     <g id="line2d_59">
      <g>
       <use style="stroke:#000000;stroke-width:0.6;" x="230.399445" xlink:href="#mc806c2c3c1" y="50.95545"/>
      </g>
     </g>
    </g>
    <g id="ytick_29">
     <g id="line2d_60">
      <g>
       <use style="stroke:#000000;stroke-width:0.6;" x="230.399445" xlink:href="#mc806c2c3c1" y="39.878126"/>
      </g>
     </g>
    </g>
    <g id="ytick_30">
     <g id="line2d_61">
      <g>
       <use style="stroke:#000000;stroke-width:0.6;" x="230.399445" xlink:href="#mc806c2c3c1" y="28.800801"/>
      </g>
     </g>
    </g>
    <g id="ytick_31">
     <g id="line2d_62">
      <g>
       <use style="stroke:#000000;stroke-width:0.6;" x="230.399445" xlink:href="#mc806c2c3c1" y="17.723477"/>
      </g>
     </g>
    </g>
   </g>
   <g id="line2d_63">
    <path clip-path="url(#p279f6e9872)" d="M 368.865999 172.806018 
L 368.656425 170.008431 
L 368.293311 168.189854 
L 367.75277 166.387571 
L 367.036615 164.607908 
L 366.147241 162.85708 
L 364.873775 160.828829 
L 363.367435 158.85931 
L 361.287152 156.610815 
L 358.902461 154.472957 
L 355.772616 152.147609 
L 352.559113 150.164963 
L 349.408986 148.521238 
L 345.762859 146.912227 
L 341.199921 145.258499 
L 335.854838 143.738389 
L 332.815216 143.045756 
L 328.362276 142.229497 
L 323.802936 141.615622 
L 320.049909 141.264785 
L 316.264443 141.042837 
L 309.200546 140.960001 
L 302.383801 141.263986 
L 294.975168 141.998935 
L 288.781375 142.925879 
L 282.242159 144.207433 
L 276.297339 145.639774 
L 271.381219 147.014268 
L 265.656243 148.823583 
L 257.503746 151.702565 
L 253.017509 153.203375 
L 251.63764 153.503738 
L 250.658667 153.527829 
L 250.064111 153.296863 
L 249.816848 152.999413 
L 249.709392 152.710997 
L 249.679928 151.742797 
L 249.951167 150.378448 
L 250.760979 147.793627 
L 255.719867 133.384058 
L 257.245002 128.111514 
L 258.645894 122.526814 
L 260.010183 115.939332 
L 261.09292 109.103374 
L 261.698988 103.764732 
L 262.096044 98.30706 
L 262.264115 92.101359 
L 262.121653 86.04476 
L 261.658749 80.03803 
L 261.227579 76.526363 
L 260.677883 73.070352 
L 259.469399 67.360032 
L 258.246497 62.951707 
L 256.857283 58.889206 
L 255.190352 54.875379 
L 253.16176 50.862189 
L 252.06244 48.990247 
L 249.669953 45.49134 
L 247.558317 42.940387 
L 245.570565 40.920231 
L 243.749926 39.352477 
L 241.82711 37.959838 
L 239.806885 36.762999 
L 237.477964 35.696783 
L 234.837787 34.868648 
L 232.217971 34.42791 
L 229.603432 34.356398 
L 226.959242 34.656718 
L 224.303232 35.342603 
L 221.657057 36.425254 
L 220.358237 37.110363 
L 218.832888 38.051898 
L 216.338165 39.934375 
L 214.390986 41.72972 
L 212.484621 43.802211 
L 210.634636 46.156706 
L 208.792825 48.899157 
L 206.990953 52.054809 
L 205.436869 55.254628 
L 204.111838 58.441949 
L 202.792338 62.190307 
L 201.538109 66.533981 
L 200.40124 71.56774 
L 199.495446 77.076995 
L 198.876076 82.923143 
L 198.674642 86.097231 
L 198.535526 91.367884 
L 198.742672 99.037077 
L 199.106576 103.835877 
L 199.632264 108.541911 
L 200.840338 116.219468 
L 202.247667 122.934342 
L 203.889916 129.333074 
L 205.678647 135.294273 
L 207.847908 141.68596 
L 210.801418 150.204894 
L 211.131627 151.875265 
L 211.072936 152.772644 
L 210.778622 153.26035 
L 210.355997 153.482413 
L 209.559695 153.544709 
L 208.374432 153.353841 
L 206.287073 152.748052 
L 201.443405 151.032194 
L 193.886245 148.408216 
L 188.14142 146.641123 
L 182.358286 145.094185 
L 178.430141 144.179692 
L 172.328638 142.979834 
L 165.902453 142.008949 
L 164.966448 141.892872 
L 158.78914 141.291143 
L 152.485185 140.978734 
L 146.79969 140.970442 
L 141.829864 141.188229 
L 137.771036 141.532106 
L 130.825555 142.498937 
L 125.104448 143.698905 
L 119.879243 145.168319 
L 115.342395 146.789485 
L 111.264416 148.581866 
L 107.984127 150.310372 
L 105.332916 151.942728 
L 102.889833 153.684316 
L 101.262043 155.005286 
L 99.753636 156.375546 
L 98.368637 157.791522 
L 96.311248 160.28801 
L 94.906388 162.414988 
L 93.822826 164.475901 
L 92.843331 166.995584 
L 92.420209 168.545965 
L 92.127868 170.107415 
L 91.967031 171.675881 
L 91.938911 173.280685 
L 92.180176 175.844329 
L 92.591638 177.754744 
L 93.337945 180.006191 
L 94.548498 182.569548 
L 96.214972 185.191807 
L 98.384557 187.837812 
L 99.624407 189.111388 
L 101.292941 190.633234 
L 104.226373 192.912331 
L 106.59984 194.47899 
L 109.246984 196.001503 
L 112.175097 197.461779 
L 116.254788 199.177591 
L 121.594374 200.969304 
L 126.597146 202.264687 
L 128.86961 202.74683 
L 133.51619 203.547365 
L 138.600809 204.162879 
L 144.295536 204.558967 
L 150.028325 204.669562 
L 156.48853 204.470861 
L 160.844655 204.152607 
L 165.180516 203.693189 
L 169.417138 203.109538 
L 173.572376 202.409489 
L 180.732496 200.909785 
L 187.709771 199.094544 
L 193.57738 197.304412 
L 200.557882 194.899631 
L 207.458311 192.49959 
L 209.12035 192.114134 
L 209.985578 192.067462 
L 210.705944 192.293547 
L 210.993988 192.635796 
L 211.14493 193.464297 
L 210.980059 194.685519 
L 210.436502 196.625823 
L 208.867703 201.093753 
L 206.073667 209.099208 
L 204.262673 214.966484 
L 202.922517 219.908523 
L 201.402319 226.521159 
L 200.363538 232.110017 
L 199.849142 235.46505 
L 199.220799 240.616027 
L 198.783855 245.889189 
L 198.557714 256.112478 
L 198.804987 261.721433 
L 199.332497 267.26661 
L 200.210832 273.038623 
L 201.689529 279.65606 
L 203.252039 284.805914 
L 204.842238 288.987134 
L 206.344256 292.286707 
L 208.416936 296.096798 
L 210.543184 299.329147 
L 212.836196 302.217437 
L 214.799827 304.284844 
L 217.406746 306.538405 
L 220.130413 308.370615 
L 222.846185 309.724085 
L 224.838994 310.439436 
L 226.856112 310.935945 
L 228.888741 311.21155 
L 230.927989 311.265106 
L 232.410175 311.164419 
L 235.127249 310.671677 
L 237.580992 309.874882 
L 240.131295 308.674373 
L 242.748852 307.016768 
L 244.726355 305.450438 
L 247.417391 302.826353 
L 249.938062 299.76325 
L 251.971478 296.768535 
L 253.845166 293.486246 
L 255.053632 291.033762 
L 256.174803 288.460829 
L 257.311296 285.480794 
L 258.952779 280.23619 
L 260.031974 275.8223 
L 260.491353 273.557061 
L 261.213988 269.181975 
L 261.802222 264.114316 
L 262.149616 258.972859 
L 262.176722 249.112943 
L 261.784169 242.793989 
L 261.251697 237.741472 
L 260.551989 232.825726 
L 259.414836 226.609923 
L 258.298986 221.616015 
L 256.641025 215.331247 
L 254.758899 209.201962 
L 252.310639 202.141924 
L 250.117352 195.830683 
L 249.68056 193.875018 
L 249.707132 192.910355 
L 249.975371 192.394409 
L 250.338718 192.163831 
L 250.919051 192.061878 
L 251.845138 192.140493 
L 253.43186 192.526199 
L 256.45904 193.534884 
L 267.064595 197.253384 
L 272.447788 198.910386 
L 278.287041 200.479852 
L 282.746293 201.514393 
L 289.100855 202.740828 
L 293.813406 203.460691 
L 298.664729 204.030695 
L 304.198087 204.464492 
L 315.588561 204.595441 
L 320.252907 204.331674 
L 327.667976 203.489966 
L 333.148152 202.496001 
L 338.367131 201.210077 
L 342.655971 199.864754 
L 346.126512 198.551752 
L 350.155473 196.724528 
L 353.683024 194.792846 
L 356.107584 193.236403 
L 358.374309 191.56485 
L 361.045713 189.236047 
L 362.507103 187.736638 
L 363.825986 186.19052 
L 365.598167 183.682751 
L 366.648786 181.813586 
L 367.498714 179.910117 
L 368.146125 177.977656 
L 368.588508 176.024052 
L 368.83255 173.924651 
L 368.865999 172.806018 
L 368.865999 172.806018 
" style="fill:none;stroke:#0000ff;stroke-linecap:square;"/>
   </g>
   <g id="patch_4">
    <path d="M 230.399445 345.6 
L 230.399445 0 
" style="fill:none;stroke:#000000;stroke-linecap:square;stroke-linejoin:miter;stroke-width:0.8;"/>
   </g>
   <g id="patch_5">
    <path d="M 57.594318 172.806018 
L 403.205682 172.806018 
" style="fill:none;stroke:#000000;stroke-linecap:square;stroke-linejoin:miter;stroke-width:0.8;"/>
   </g>
  </g>
 </g>
 <defs>
  <clipPath id="p279f6e9872">
   <rect height="345.6" width="345.611364" x="57.594318" y="0"/>
  </clipPath>
 </defs>
</svg>
