<?xml version="1.0" encoding="utf-8" standalone="no"?>
<!DOCTYPE svg PUBLIC "-//W3C//DTD SVG 1.1//EN"
  "http://www.w3.org/Graphics/SVG/1.1/DTD/svg11.dtd">
<!-- Created with matplotlib (http://matplotlib.org/) -->
<svg height="345.6pt" version="1.1" viewBox="0 0 460.8 345.6" width="460.8pt" xmlns="http://www.w3.org/2000/svg" xmlns:xlink="http://www.w3.org/1999/xlink">
 <defs>
  <style type="text/css">
*{stroke-linecap:butt;stroke-linejoin:round;}
  </style>
 </defs>
 <g id="figure_1">
  <g id="patch_1">
   <path d="M 0 345.6 
L 460.8 345.6 
L 460.8 0 
L 0 0 
z
" style="fill:#ffffff;"/>
  </g>
  <g id="axes_1">
   <g id="patch_2">
    <path d="M 68.285191 343.08 
L 392.514809 343.08 
L 392.514809 2.52 
L 68.285191 2.52 
z
" style="fill:#ffffff;"/>
   </g>
   <g id="matplotlib.axis_1">
    <g id="xtick_1">
     <g id="line2d_1">
      <defs>
       <path d="M 0 0 
L 0 3.5 
" id="m58d6c9aa9c" style="stroke:#000000;stroke-width:0.8;"/>
      </defs>
      <g>
       <use style="stroke:#000000;stroke-width:0.8;" x="148.524975" xlink:href="#m58d6c9aa9c" y="172.807566"/>
      </g>
     </g>
     <g id="text_1">
      <!-- -0.5 -->
      <defs>
       <path d="M 4.890625 31.390625 
L 31.203125 31.390625 
L 31.203125 23.390625 
L 4.890625 23.390625 
z
" id="DejaVuSans-2d"/>
       <path d="M 31.78125 66.40625 
Q 24.171875 66.40625 20.328125 58.90625 
Q 16.5 51.421875 16.5 36.375 
Q 16.5 21.390625 20.328125 13.890625 
Q 24.171875 6.390625 31.78125 6.390625 
Q 39.453125 6.390625 43.28125 13.890625 
Q 47.125 21.390625 47.125 36.375 
Q 47.125 51.421875 43.28125 58.90625 
Q 39.453125 66.40625 31.78125 66.40625 
z
M 31.78125 74.21875 
Q 44.046875 74.21875 50.515625 64.515625 
Q 56.984375 54.828125 56.984375 36.375 
Q 56.984375 17.96875 50.515625 8.265625 
Q 44.046875 -1.421875 31.78125 -1.421875 
Q 19.53125 -1.421875 13.0625 8.265625 
Q 6.59375 17.96875 6.59375 36.375 
Q 6.59375 54.828125 13.0625 64.515625 
Q 19.53125 74.21875 31.78125 74.21875 
z
" id="DejaVuSans-30"/>
       <path d="M 10.6875 12.40625 
L 21 12.40625 
L 21 0 
L 10.6875 0 
z
" id="DejaVuSans-2e"/>
       <path d="M 10.796875 72.90625 
L 49.515625 72.90625 
L 49.515625 64.59375 
L 19.828125 64.59375 
L 19.828125 46.734375 
Q 21.96875 47.46875 24.109375 47.828125 
Q 26.265625 48.1875 28.421875 48.1875 
Q 40.625 48.1875 47.75 41.5 
Q 54.890625 34.8125 54.890625 23.390625 
Q 54.890625 11.625 47.5625 5.09375 
Q 40.234375 -1.421875 26.90625 -1.421875 
Q 22.3125 -1.421875 17.546875 -0.640625 
Q 12.796875 0.140625 7.71875 1.703125 
L 7.71875 11.625 
Q 12.109375 9.234375 16.796875 8.0625 
Q 21.484375 6.890625 26.703125 6.890625 
Q 35.15625 6.890625 40.078125 11.328125 
Q 45.015625 15.765625 45.015625 23.390625 
Q 45.015625 31 40.078125 35.4375 
Q 35.15625 39.890625 26.703125 39.890625 
Q 22.75 39.890625 18.8125 39.015625 
Q 14.890625 38.140625 10.796875 36.28125 
z
" id="DejaVuSans-35"/>
      </defs>
      <g transform="translate(138.769506 187.406003)scale(0.1 -0.1)">
       <use xlink:href="#DejaVuSans-2d"/>
       <use x="36.083984" xlink:href="#DejaVuSans-30"/>
       <use x="99.707031" xlink:href="#DejaVuSans-2e"/>
       <use x="131.494141" xlink:href="#DejaVuSans-35"/>
      </g>
     </g>
    </g>
    <g id="xtick_2">
     <g id="line2d_2">
      <g>
       <use style="stroke:#000000;stroke-width:0.8;" x="230.39428" xlink:href="#m58d6c9aa9c" y="172.807566"/>
      </g>
     </g>
    </g>
    <g id="xtick_3">
     <g id="line2d_3">
      <g>
       <use style="stroke:#000000;stroke-width:0.8;" x="312.263585" xlink:href="#m58d6c9aa9c" y="172.807566"/>
      </g>
     </g>
     <g id="text_2">
      <!-- 0.5 -->
      <g transform="translate(304.312022 187.406003)scale(0.1 -0.1)">
       <use xlink:href="#DejaVuSans-30"/>
       <use x="63.623047" xlink:href="#DejaVuSans-2e"/>
       <use x="95.410156" xlink:href="#DejaVuSans-35"/>
      </g>
     </g>
    </g>
    <g id="xtick_4">
     <g id="line2d_4">
      <defs>
       <path d="M 0 0 
L 0 2 
" id="ma7a5a9268a" style="stroke:#000000;stroke-width:0.6;"/>
      </defs>
      <g>
       <use style="stroke:#000000;stroke-width:0.6;" x="83.029531" xlink:href="#ma7a5a9268a" y="172.807566"/>
      </g>
     </g>
    </g>
    <g id="xtick_5">
     <g id="line2d_5">
      <g>
       <use style="stroke:#000000;stroke-width:0.6;" x="99.403392" xlink:href="#ma7a5a9268a" y="172.807566"/>
      </g>
     </g>
    </g>
    <g id="xtick_6">
     <g id="line2d_6">
      <g>
       <use style="stroke:#000000;stroke-width:0.6;" x="115.777253" xlink:href="#ma7a5a9268a" y="172.807566"/>
      </g>
     </g>
    </g>
    <g id="xtick_7">
     <g id="line2d_7">
      <g>
       <use style="stroke:#000000;stroke-width:0.6;" x="132.151114" xlink:href="#ma7a5a9268a" y="172.807566"/>
      </g>
     </g>
    </g>
    <g id="xtick_8">
     <g id="line2d_8">
      <g>
       <use style="stroke:#000000;stroke-width:0.6;" x="164.898836" xlink:href="#ma7a5a9268a" y="172.807566"/>
      </g>
     </g>
    </g>
    <g id="xtick_9">
     <g id="line2d_9">
      <g>
       <use style="stroke:#000000;stroke-width:0.6;" x="181.272697" xlink:href="#ma7a5a9268a" y="172.807566"/>
      </g>
     </g>
    </g>
    <g id="xtick_10">
     <g id="line2d_10">
      <g>
       <use style="stroke:#000000;stroke-width:0.6;" x="197.646558" xlink:href="#ma7a5a9268a" y="172.807566"/>
      </g>
     </g>
    </g>
    <g id="xtick_11">
     <g id="line2d_11">
      <g>
       <use style="stroke:#000000;stroke-width:0.6;" x="214.020419" xlink:href="#ma7a5a9268a" y="172.807566"/>
      </g>
     </g>
    </g>
    <g id="xtick_12">
     <g id="line2d_12">
      <g>
       <use style="stroke:#000000;stroke-width:0.6;" x="246.768141" xlink:href="#ma7a5a9268a" y="172.807566"/>
      </g>
     </g>
    </g>
    <g id="xtick_13">
     <g id="line2d_13">
      <g>
       <use style="stroke:#000000;stroke-width:0.6;" x="263.142002" xlink:href="#ma7a5a9268a" y="172.807566"/>
      </g>
     </g>
    </g>
    <g id="xtick_14">
     <g id="line2d_14">
      <g>
       <use style="stroke:#000000;stroke-width:0.6;" x="279.515863" xlink:href="#ma7a5a9268a" y="172.807566"/>
      </g>
     </g>
    </g>
    <g id="xtick_15">
     <g id="line2d_15">
      <g>
       <use style="stroke:#000000;stroke-width:0.6;" x="295.889724" xlink:href="#ma7a5a9268a" y="172.807566"/>
      </g>
     </g>
    </g>
    <g id="xtick_16">
     <g id="line2d_16">
      <g>
       <use style="stroke:#000000;stroke-width:0.6;" x="328.637446" xlink:href="#ma7a5a9268a" y="172.807566"/>
      </g>
     </g>
    </g>
    <g id="xtick_17">
     <g id="line2d_17">
      <g>
       <use style="stroke:#000000;stroke-width:0.6;" x="345.011307" xlink:href="#ma7a5a9268a" y="172.807566"/>
      </g>
     </g>
    </g>
    <g id="xtick_18">
     <g id="line2d_18">
      <g>
       <use style="stroke:#000000;stroke-width:0.6;" x="361.385168" xlink:href="#ma7a5a9268a" y="172.807566"/>
      </g>
     </g>
    </g>
    <g id="xtick_19">
     <g id="line2d_19">
      <g>
       <use style="stroke:#000000;stroke-width:0.6;" x="377.759029" xlink:href="#ma7a5a9268a" y="172.807566"/>
      </g>
     </g>
    </g>
   </g>
   <g id="matplotlib.axis_2">
    <g id="ytick_1">
     <g id="line2d_20">
      <defs>
       <path d="M 0 0 
L -3.5 0 
" id="m00bf8de42e" style="stroke:#000000;stroke-width:0.8;"/>
      </defs>
      <g>
       <use style="stroke:#000000;stroke-width:0.8;" x="230.39428" xlink:href="#m00bf8de42e" y="336.546176"/>
      </g>
     </g>
     <g id="text_3">
      <!-- -1 -->
      <defs>
       <path d="M 12.40625 8.296875 
L 28.515625 8.296875 
L 28.515625 63.921875 
L 10.984375 60.40625 
L 10.984375 69.390625 
L 28.421875 72.90625 
L 38.28125 72.90625 
L 38.28125 8.296875 
L 54.390625 8.296875 
L 54.390625 0 
L 12.40625 0 
z
" id="DejaVuSans-31"/>
      </defs>
      <g transform="translate(213.423967 340.345394)scale(0.1 -0.1)">
       <use xlink:href="#DejaVuSans-2d"/>
       <use x="36.083984" xlink:href="#DejaVuSans-31"/>
      </g>
     </g>
    </g>
    <g id="ytick_2">
     <g id="line2d_21">
      <g>
       <use style="stroke:#000000;stroke-width:0.8;" x="230.39428" xlink:href="#m00bf8de42e" y="254.676871"/>
      </g>
     </g>
     <g id="text_4">
      <!-- -0.5 -->
      <g transform="translate(203.883342 258.476089)scale(0.1 -0.1)">
       <use xlink:href="#DejaVuSans-2d"/>
       <use x="36.083984" xlink:href="#DejaVuSans-30"/>
       <use x="99.707031" xlink:href="#DejaVuSans-2e"/>
       <use x="131.494141" xlink:href="#DejaVuSans-35"/>
      </g>
     </g>
    </g>
    <g id="ytick_3">
     <g id="line2d_22">
      <g>
       <use style="stroke:#000000;stroke-width:0.8;" x="230.39428" xlink:href="#m00bf8de42e" y="172.807566"/>
      </g>
     </g>
    </g>
    <g id="ytick_4">
     <g id="line2d_23">
      <g>
       <use style="stroke:#000000;stroke-width:0.8;" x="230.39428" xlink:href="#m00bf8de42e" y="90.938261"/>
      </g>
     </g>
     <g id="text_5">
      <!-- 0.5 -->
      <g transform="translate(207.491155 94.737479)scale(0.1 -0.1)">
       <use xlink:href="#DejaVuSans-30"/>
       <use x="63.623047" xlink:href="#DejaVuSans-2e"/>
       <use x="95.410156" xlink:href="#DejaVuSans-35"/>
      </g>
     </g>
    </g>
    <g id="ytick_5">
     <g id="line2d_24">
      <g>
       <use style="stroke:#000000;stroke-width:0.8;" x="230.39428" xlink:href="#m00bf8de42e" y="9.068956"/>
      </g>
     </g>
     <g id="text_6">
      <!-- 1 -->
      <g transform="translate(217.03178 12.868174)scale(0.1 -0.1)">
       <use xlink:href="#DejaVuSans-31"/>
      </g>
     </g>
    </g>
    <g id="ytick_6">
     <g id="line2d_25">
      <defs>
       <path d="M 0 0 
L -2 0 
" id="mbc54e97eee" style="stroke:#000000;stroke-width:0.6;"/>
      </defs>
      <g>
       <use style="stroke:#000000;stroke-width:0.6;" x="230.39428" xlink:href="#mbc54e97eee" y="320.172315"/>
      </g>
     </g>
    </g>
    <g id="ytick_7">
     <g id="line2d_26">
      <g>
       <use style="stroke:#000000;stroke-width:0.6;" x="230.39428" xlink:href="#mbc54e97eee" y="303.798454"/>
      </g>
     </g>
    </g>
    <g id="ytick_8">
     <g id="line2d_27">
      <g>
       <use style="stroke:#000000;stroke-width:0.6;" x="230.39428" xlink:href="#mbc54e97eee" y="287.424593"/>
      </g>
     </g>
    </g>
    <g id="ytick_9">
     <g id="line2d_28">
      <g>
       <use style="stroke:#000000;stroke-width:0.6;" x="230.39428" xlink:href="#mbc54e97eee" y="271.050732"/>
      </g>
     </g>
    </g>
    <g id="ytick_10">
     <g id="line2d_29">
      <g>
       <use style="stroke:#000000;stroke-width:0.6;" x="230.39428" xlink:href="#mbc54e97eee" y="238.30301"/>
      </g>
     </g>
    </g>
    <g id="ytick_11">
     <g id="line2d_30">
      <g>
       <use style="stroke:#000000;stroke-width:0.6;" x="230.39428" xlink:href="#mbc54e97eee" y="221.929149"/>
      </g>
     </g>
    </g>
    <g id="ytick_12">
     <g id="line2d_31">
      <g>
       <use style="stroke:#000000;stroke-width:0.6;" x="230.39428" xlink:href="#mbc54e97eee" y="205.555288"/>
      </g>
     </g>
    </g>
    <g id="ytick_13">
     <g id="line2d_32">
      <g>
       <use style="stroke:#000000;stroke-width:0.6;" x="230.39428" xlink:href="#mbc54e97eee" y="189.181427"/>
      </g>
     </g>
    </g>
    <g id="ytick_14">
     <g id="line2d_33">
      <g>
       <use style="stroke:#000000;stroke-width:0.6;" x="230.39428" xlink:href="#mbc54e97eee" y="156.433705"/>
      </g>
     </g>
    </g>
    <g id="ytick_15">
     <g id="line2d_34">
      <g>
       <use style="stroke:#000000;stroke-width:0.6;" x="230.39428" xlink:href="#mbc54e97eee" y="140.059844"/>
      </g>
     </g>
    </g>
    <g id="ytick_16">
     <g id="line2d_35">
      <g>
       <use style="stroke:#000000;stroke-width:0.6;" x="230.39428" xlink:href="#mbc54e97eee" y="123.685983"/>
      </g>
     </g>
    </g>
    <g id="ytick_17">
     <g id="line2d_36">
      <g>
       <use style="stroke:#000000;stroke-width:0.6;" x="230.39428" xlink:href="#mbc54e97eee" y="107.312122"/>
      </g>
     </g>
    </g>
    <g id="ytick_18">
     <g id="line2d_37">
      <g>
       <use style="stroke:#000000;stroke-width:0.6;" x="230.39428" xlink:href="#mbc54e97eee" y="74.5644"/>
      </g>
     </g>
    </g>
    <g id="ytick_19">
     <g id="line2d_38">
      <g>
       <use style="stroke:#000000;stroke-width:0.6;" x="230.39428" xlink:href="#mbc54e97eee" y="58.190539"/>
      </g>
     </g>
    </g>
    <g id="ytick_20">
     <g id="line2d_39">
      <g>
       <use style="stroke:#000000;stroke-width:0.6;" x="230.39428" xlink:href="#mbc54e97eee" y="41.816678"/>
      </g>
     </g>
    </g>
    <g id="ytick_21">
     <g id="line2d_40">
      <g>
       <use style="stroke:#000000;stroke-width:0.6;" x="230.39428" xlink:href="#mbc54e97eee" y="25.442817"/>
      </g>
     </g>
    </g>
   </g>
   <g id="line2d_41">
    <path clip-path="url(#p950c860f54)" d="M 230.39428 172.807566 
L 233.296642 172.73002 
L 239.277578 172.389361 
L 246.690347 171.758932 
L 256.492098 170.655279 
L 266.06573 169.323089 
L 272.963392 168.220009 
L 280.227834 166.933497 
L 287.782899 165.46159 
L 294.960202 163.936467 
L 302.254241 162.257678 
L 316.931563 158.46646 
L 326.771809 155.589 
L 336.303612 152.50989 
L 343.58564 149.93522 
L 353.788501 145.935667 
L 360.007461 143.216945 
L 365.441349 140.612718 
L 370.112568 138.148792 
L 374.249452 135.72598 
L 377.81737 133.36828 
L 380.587371 131.26464 
L 382.665508 129.413506 
L 383.531774 128.52272 
L 384.621488 127.221917 
L 385.439212 125.985862 
L 385.982459 124.820412 
L 386.249742 123.73121 
L 386.240577 122.72365 
L 385.95548 121.802849 
L 385.395964 120.973618 
L 384.564528 120.240433 
L 383.532512 119.639782 
L 381.584942 118.924616 
L 379.141035 118.418739 
L 376.218969 118.129261 
L 372.840161 118.061546 
L 369.896388 118.165399 
L 366.701323 118.407851 
L 363.268912 118.789048 
L 355.752497 119.964553 
L 347.476362 121.678114 
L 343.097024 122.729044 
L 337.00603 124.333988 
L 330.715408 126.149494 
L 324.272461 128.160595 
L 317.725292 130.350094 
L 310.343291 132.984801 
L 290.26716 140.986937 
L 276.018125 147.389898 
L 266.964227 151.779348 
L 258.509661 156.119451 
L 250.983867 160.198303 
L 241.697376 165.558941 
L 235.449017 169.42656 
L 230.423458 172.786234 
L 232.11086 171.499002 
L 237.174687 167.382657 
L 241.604623 163.577941 
L 247.17857 158.572734 
L 253.566474 152.566254 
L 260.589254 145.644574 
L 268.474994 137.474909 
L 277.051904 128.089184 
L 281.366125 123.156137 
L 287.516273 115.853522 
L 298.604003 101.748863 
L 303.756513 94.684558 
L 308.556112 87.723207 
L 314.31118 78.729298 
L 316.870443 74.419111 
L 319.198536 70.265628 
L 321.226916 66.403376 
L 323.015738 62.731821 
L 324.556651 59.270909 
L 326.52328 54.119775 
L 327.567146 50.595319 
L 327.929223 48.998806 
L 328.248401 47.025813 
L 328.372196 45.272104 
L 328.301409 43.745357 
L 328.037639 42.45241 
L 327.58326 41.399232 
L 326.941408 40.590884 
L 326.115956 40.031498 
L 325.111488 39.724248 
L 323.590346 39.700369 
L 321.802639 40.086724 
L 319.762131 40.882902 
L 317.484029 42.085882 
L 315.575505 43.287834 
L 313.54357 44.724734 
L 311.396662 46.392026 
L 306.784248 50.403494 
L 301.80999 55.272737 
L 296.560001 60.924588 
L 291.114063 67.277859 
L 288.342749 70.688932 
L 284.581847 75.501969 
L 280.810857 80.535867 
L 275.124186 88.51621 
L 269.548131 96.799312 
L 259.020383 113.740364 
L 253.150301 124.003805 
L 247.851637 133.855068 
L 243.10398 143.243705 
L 239.621156 150.544953 
L 235.453871 159.886969 
L 232.373712 167.415715 
L 230.399139 172.792511 
L 230.903811 171.120891 
L 232.158205 166.531364 
L 233.768131 159.935604 
L 235.484794 152.022153 
L 237.296169 142.51527 
L 238.492842 135.407144 
L 239.838459 126.340884 
L 241.058361 116.688049 
L 241.984625 107.875095 
L 242.748079 98.840789 
L 243.694482 80.56208 
L 243.83917 72.417652 
L 243.7971 64.456694 
L 243.564953 56.761653 
L 242.824084 45.467549 
L 242.014998 38.028563 
L 241.064857 31.70699 
L 240.027539 26.43857 
L 238.85386 21.793437 
L 237.559901 17.817405 
L 236.334547 14.900256 
L 235.220959 12.837944 
L 234.067196 11.215705 
L 232.882825 10.042857 
L 231.641326 9.311733 
L 230.997496 9.125655 
L 230.35225 9.069231 
L 229.707103 9.14255 
L 229.063568 9.345495 
L 228.423154 9.677737 
L 227.157681 10.727762 
L 225.930909 12.273383 
L 224.909296 13.994292 
L 223.925006 16.069849 
L 222.984665 18.490306 
L 222.094559 21.244298 
L 221.260587 24.318902 
L 220.488215 27.6997 
L 219.782427 31.370848 
L 218.664707 38.887022 
L 217.870934 46.539093 
L 217.266607 55.809929 
L 216.959666 66.75176 
L 216.949404 72.419769 
L 218.985538 109.744854 
L 220.327844 121.630644 
L 221.97447 133.359527 
L 223.754648 143.976894 
L 225.539434 153.166493 
L 227.760484 163.063002 
L 229.527832 169.86885 
L 230.391528 172.799052 
L 229.814225 171.1411 
L 228.143945 166.722905 
L 225.348375 159.919017 
L 222.895493 154.326691 
L 218.848115 145.63957 
L 214.909804 137.685664 
L 211.805358 131.699793 
L 208.449134 125.473059 
L 204.8605 119.067786 
L 201.06209 112.547533 
L 191.825341 97.694978 
L 186.961712 90.402531 
L 178.955731 79.151253 
L 175.907222 75.111053 
L 168.512486 65.882661 
L 163.701425 60.335321 
L 159.050905 55.347207 
L 154.906381 51.247872 
L 151.267138 47.957516 
L 147.805559 45.146224 
L 144.569507 42.86522 
L 141.65457 41.185698 
L 139.092446 40.120113 
L 137.952803 39.819801 
L 136.432343 39.660726 
L 135.143223 39.849131 
L 134.09441 40.382426 
L 133.293631 41.256196 
L 132.862864 42.122938 
L 132.574954 43.171338 
L 132.431629 44.397706 
L 132.434184 45.797851 
L 132.583463 47.367096 
L 132.879863 49.100293 
L 133.913295 53.035734 
L 134.985564 56.146444 
L 137.510195 62.165098 
L 140.284826 67.811485 
L 143.611441 73.886063 
L 147.451628 80.313019 
L 149.55021 83.634064 
L 153.695556 89.889836 
L 158.171116 96.27945 
L 162.928575 102.739049 
L 167.915603 109.205148 
L 178.056806 121.562981 
L 183.316691 127.615467 
L 188.572502 133.447399 
L 193.763185 139.008854 
L 201.551945 147.003454 
L 207.88546 153.202966 
L 214.643544 159.517952 
L 222.434567 166.386139 
L 227.638651 170.679543 
L 230.373309 172.792249 
L 228.742447 171.662596 
L 224.248198 168.731929 
L 217.388871 164.545417 
L 210.3063 160.478036 
L 201.691243 155.809811 
L 193.512255 151.623719 
L 182.694589 146.419294 
L 176.970683 143.810185 
L 168.504627 140.129197 
L 159.808902 136.567889 
L 142.175847 130.04504 
L 133.395367 127.1681 
L 124.846109 124.630107 
L 118.622289 122.96389 
L 112.644775 121.52614 
L 104.242568 119.821502 
L 101.614599 119.377919 
L 94.722762 118.469729 
L 90.605039 118.149769 
L 86.903716 118.058228 
L 83.249365 118.22743 
L 79.881768 118.75138 
L 78.492541 119.142142 
L 77.375795 119.583129 
L 76.439013 120.095086 
L 75.68476 120.675943 
L 75.115159 121.323445 
L 74.73188 122.035166 
L 74.536138 122.808517 
L 74.528689 123.640755 
L 74.709822 124.528996 
L 75.01411 125.330561 
L 76.034111 127.04203 
L 77.597245 128.884291 
L 79.693533 130.840305 
L 80.937424 131.855485 
L 83.176504 133.512974 
L 85.728699 135.21645 
L 88.582924 136.956768 
L 94.596572 140.232574 
L 100.889248 143.266415 
L 107.851556 146.289659 
L 115.394593 149.262211 
L 124.426167 152.489923 
L 129.64056 154.213408 
L 140.390848 157.485474 
L 159.221537 162.421489 
L 168.13496 164.440175 
L 176.842195 166.226075 
L 189.261656 168.459339 
L 200.087733 170.098936 
L 210.440226 171.380108 
L 220.448697 172.311507 
L 227.807345 172.742336 
L 230.374923 172.807608 
L 228.941923 172.834969 
L 224.106198 173.055849 
L 217.585182 173.535162 
L 209.231349 174.369114 
L 200.456255 175.465613 
L 190.569147 176.942321 
L 181.538104 178.501176 
L 172.030501 180.353471 
L 161.926535 182.560325 
L 151.662384 185.061699 
L 141.417198 187.83559 
L 131.369354 190.85085 
L 122.213531 193.886151 
L 110.803734 198.128449 
L 103.815211 201.040987 
L 97.419955 203.979976 
L 91.087559 207.239051 
L 87.987018 209.009814 
L 85.181124 210.750793 
L 81.348668 213.440726 
L 79.025637 215.35798 
L 77.172812 217.184248 
L 75.801118 218.904665 
L 74.917728 220.50631 
L 74.528621 221.975048 
L 74.520376 222.654879 
L 74.636229 223.296267 
L 74.875845 223.897724 
L 75.23869 224.457827 
L 75.724031 224.97522 
L 77.031249 225.862837 
L 78.798696 226.571672 
L 81.014276 227.094063 
L 83.663145 227.423659 
L 86.006459 227.543361 
L 88.591044 227.542203 
L 91.406806 227.419011 
L 97.68737 226.804656 
L 104.751637 225.702322 
L 112.60872 224.097137 
L 116.820778 223.102241 
L 122.623087 221.59873 
L 128.616865 219.899398 
L 134.760637 218.017006 
L 141.01218 215.96622 
L 152.822919 211.745628 
L 164.583186 207.119529 
L 179.647003 200.597209 
L 189.077563 196.169174 
L 197.827367 191.811101 
L 206.446182 187.263783 
L 216.269205 181.728244 
L 223.650763 177.259659 
L 229.618395 173.353411 
L 230.390692 172.810178 
L 228.366321 174.360015 
L 223.046155 178.710636 
L 216.840656 184.113396 
L 210.624254 189.815014 
L 205.17027 195.036965 
L 199.32807 200.852332 
L 193.202908 207.197403 
L 186.09896 214.886529 
L 182.109273 219.369309 
L 166.807863 237.821801 
L 161.682988 244.537793 
L 156.820301 251.229293 
L 152.27714 257.825112 
L 146.271372 267.22445 
L 142.903277 272.975385 
L 139.963645 278.424357 
L 137.480153 283.515395 
L 135.303379 288.634194 
L 133.61398 293.571797 
L 132.755776 297.159709 
L 132.442893 299.661365 
L 132.475443 301.766282 
L 132.850109 303.457855 
L 133.164026 304.144192 
L 133.669123 304.845149 
L 134.300188 305.376898 
L 135.05477 305.737467 
L 135.930097 305.925334 
L 137.274011 305.90608 
L 138.817401 305.579124 
L 140.551346 304.944697 
L 142.466108 304.004497 
L 144.352933 302.888308 
L 146.37189 301.525939 
L 148.514195 299.921802 
L 150.770681 298.08129 
L 155.587874 293.717523 
L 160.744193 288.4967 
L 165.775831 282.934127 
L 170.96207 276.766987 
L 175.973985 270.417048 
L 181.00657 263.670053 
L 186.00369 256.607929 
L 190.911473 249.31728 
L 197.445028 239.046574 
L 206.076404 224.404832 
L 211.241113 214.97918 
L 215.851098 206.06733 
L 219.693354 198.208711 
L 224.169484 188.420186 
L 227.58822 180.29166 
L 230.075365 173.739586 
L 230.39412 172.808058 
L 229.871652 174.539321 
L 228.628167 179.092209 
L 226.865377 186.355666 
L 224.811718 196.046678 
L 222.884255 206.616723 
L 221.637154 214.47935 
L 220.469296 222.878605 
L 219.469387 231.244139 
L 218.604479 239.896604 
L 217.377683 257.650309 
L 217.123264 264.081341 
L 216.942346 275.052199 
L 217.102739 285.654573 
L 217.609086 295.688623 
L 218.454475 304.964612 
L 219.061571 309.704902 
L 220.265606 316.825388 
L 221.376851 321.757589 
L 222.615731 326.042725 
L 223.965141 329.638618 
L 224.67545 331.166755 
L 225.735749 333.044804 
L 226.830725 334.527989 
L 227.952259 335.608692 
L 229.092006 336.28136 
L 229.89948 336.508033 
L 230.70878 336.530769 
L 231.51692 336.349512 
L 232.320918 335.964723 
L 233.117813 335.377377 
L 233.904669 334.588967 
L 234.678594 333.601493 
L 235.436749 332.417464 
L 236.831088 329.620845 
L 238.139329 326.144319 
L 239.344276 322.020026 
L 240.430304 317.286064 
L 241.208232 313.064701 
L 241.893984 308.502149 
L 242.482244 303.625613 
L 242.968676 298.464136 
L 243.334151 293.31309 
L 243.772296 282.431546 
L 243.843823 276.759507 
L 243.68213 264.631697 
L 242.766318 247.021937 
L 242.038586 238.312169 
L 241.1582 229.80118 
L 239.52039 217.00698 
L 238.080555 207.67172 
L 236.581337 199.187777 
L 234.953436 191.039984 
L 232.749635 181.417581 
L 230.888404 174.441298 
L 230.404536 172.839441 
L 231.105167 174.835755 
L 232.9101 179.564246 
L 235.898068 186.762764 
L 239.881711 195.630499 
L 242.285629 200.690625 
L 247.751129 211.567189 
L 250.769123 217.258603 
L 254.781819 224.528335 
L 259.079703 231.975311 
L 268.375563 247.015073 
L 277.214187 260.086288 
L 281.729629 266.324745 
L 288.687989 275.357482 
L 294.290332 282.10064 
L 299.72475 288.156467 
L 304.906728 293.434196 
L 309.753301 297.856301 
L 313.319232 300.722946 
L 316.583464 302.981637 
L 319.510024 304.613589 
L 322.065725 305.606427 
L 323.39068 305.890218 
L 324.569674 305.948002 
L 325.514729 305.803782 
L 326.330115 305.472532 
L 327.012628 304.955838 
L 327.55944 304.255815 
L 327.968111 303.375094 
L 328.2366 302.316815 
L 328.36328 301.084614 
L 328.245297 298.563317 
L 327.815033 296.072192 
L 327.08253 293.258308 
L 326.603546 291.735992 
L 324.40209 285.980464 
L 321.925752 280.610955 
L 318.890832 274.785331 
L 315.331019 268.575688 
L 313.366886 265.350384 
L 309.876739 259.885173 
L 306.101883 254.28072 
L 301.492234 247.779429 
L 296.605399 241.222012 
L 281.823267 222.990561 
L 273.502617 213.576205 
L 265.307359 204.80725 
L 257.479443 196.864731 
L 250.256825 189.901914 
L 244.310637 184.438478 
L 238.365792 179.239025 
L 232.545202 174.456739 
L 230.406015 172.816058 
L 232.226471 174.074362 
L 236.53043 176.876922 
L 243.290141 181.004945 
L 249.080024 184.349544 
L 256.261935 188.299834 
L 265.558078 193.130613 
L 275.87966 198.160024 
L 283.218724 201.53642 
L 293.842886 206.140775 
L 304.796239 210.53959 
L 315.927268 214.639179 
L 326.937831 218.304333 
L 337.874114 221.519441 
L 343.126288 222.893408 
L 351.250644 224.765949 
L 357.0872 225.888836 
L 362.430221 226.71652 
L 367.253388 227.257566 
L 371.605273 227.525851 
L 375.448452 227.522526 
L 377.168682 227.420131 
L 379.377104 227.160225 
L 381.293052 226.768772 
L 382.907842 226.249139 
L 384.214047 225.605309 
L 385.106616 224.936573 
L 385.74997 224.177905 
L 386.141548 223.333133 
L 386.279624 222.406378 
L 386.16331 221.40203 
L 385.792569 220.32473 
L 385.168209 219.179341 
L 384.291889 217.970924 
L 383.098763 216.635288 
L 381.632659 215.241796 
L 379.898539 213.796894 
L 377.902373 212.307139 
L 375.651116 210.779169 
L 370.41595 207.635303 
L 365.316112 204.939521 
L 358.392009 201.667823 
L 350.712069 198.419101 
L 342.390413 195.242759 
L 333.551323 192.184261 
L 325.462826 189.626565 
L 317.17109 187.215362 
L 299.485371 182.704654 
L 290.751485 180.769274 
L 278.045116 178.281774 
L 269.966547 176.901518 
L 260.372192 175.47107 
L 250.107993 174.20888 
L 242.434958 173.470053 
L 233.874205 172.909443 
L 230.39428 172.807566 
L 230.39428 172.807566 
" style="fill:none;stroke:#0000ff;stroke-linecap:square;"/>
   </g>
   <g id="patch_3">
    <path d="M 230.39428 343.08 
L 230.39428 2.52 
" style="fill:none;stroke:#000000;stroke-linecap:square;stroke-linejoin:miter;stroke-width:0.8;"/>
   </g>
   <g id="patch_4">
    <path d="M 68.285191 172.807566 
L 392.514809 172.807566 
" style="fill:none;stroke:#000000;stroke-linecap:square;stroke-linejoin:miter;stroke-width:0.8;"/>
   </g>
  </g>
 </g>
 <defs>
  <clipPath id="p950c860f54">
   <rect height="340.56" width="324.229617" x="68.285191" y="2.52"/>
  </clipPath>
 </defs>
</svg>
