<?xml version="1.0" encoding="utf-8" standalone="no"?>
<!DOCTYPE svg PUBLIC "-//W3C//DTD SVG 1.1//EN"
  "http://www.w3.org/Graphics/SVG/1.1/DTD/svg11.dtd">
<svg xmlns:xlink="http://www.w3.org/1999/xlink" width="460.8pt" height="345.6pt" viewBox="0 0 460.8 345.6" xmlns="http://www.w3.org/2000/svg" version="1.1">
 <metadata>
  <rdf:RDF xmlns:dc="http://purl.org/dc/elements/1.1/" xmlns:cc="http://creativecommons.org/ns#" xmlns:rdf="http://www.w3.org/1999/02/22-rdf-syntax-ns#">
   <cc:Work>
    <dc:type rdf:resource="http://purl.org/dc/dcmitype/StillImage"/>
    <dc:date>2023-02-12T23:44:35.828736</dc:date>
    <dc:format>image/svg+xml</dc:format>
    <dc:creator>
     <cc:Agent>
      <dc:title>Matplotlib v3.6.2, https://matplotlib.org/</dc:title>
     </cc:Agent>
    </dc:creator>
   </cc:Work>
  </rdf:RDF>
 </metadata>
 <defs>
  <style type="text/css">*{stroke-linejoin: round; stroke-linecap: butt}</style>
 </defs>
 <g id="figure_1">
  <g id="patch_1">
   <path d="M 0 345.6 
L 460.8 345.6 
L 460.8 0 
L 0 0 
z
" style="fill: #ffffff"/>
  </g>
  <g id="axes_1">
   <g id="patch_2">
    <path d="M 0 345.6 
L 460.8 345.6 
L 460.8 0 
L 0 0 
z
" style="fill: #ffffff"/>
   </g>
   <g id="PathCollection_1">
    <defs>
     <path id="C0_0_a0b60d4380" d="M 0 2.738613 
C 0.726289 2.738613 1.422928 2.450055 1.936492 1.936492 
C 2.450055 1.422928 2.738613 0.726289 2.738613 -0 
C 2.738613 -0.726289 2.450055 -1.422928 1.936492 -1.936492 
C 1.422928 -2.450055 0.726289 -2.738613 0 -2.738613 
C -0.726289 -2.738613 -1.422928 -2.450055 -1.936492 -1.936492 
C -2.450055 -1.422928 -2.738613 -0.726289 -2.738613 0 
C -2.738613 0.726289 -2.450055 1.422928 -1.936492 1.936492 
C -1.422928 2.450055 -0.726289 2.738613 0 2.738613 
z
"/>
    </defs>
    <g clip-path="url(#p3c72dcf6c5)">
     <use xlink:href="#C0_0_a0b60d4380" x="8.861538" y="245.944618" style="fill: #33991a"/>
    </g>
    <g clip-path="url(#p3c72dcf6c5)">
     <use xlink:href="#C0_0_a0b60d4380" x="12.584874" y="288.186982" style="fill: #33991a"/>
    </g>
    <g clip-path="url(#p3c72dcf6c5)">
     <use xlink:href="#C0_0_a0b60d4380" x="16.308209" y="318.538224" style="fill: #33991a"/>
    </g>
    <g clip-path="url(#p3c72dcf6c5)">
     <use xlink:href="#C0_0_a0b60d4380" x="20.031545" y="335.385819" style="fill: #33991a"/>
    </g>
    <g clip-path="url(#p3c72dcf6c5)">
     <use xlink:href="#C0_0_a0b60d4380" x="23.75488" y="338.454304" style="fill: #33991a"/>
    </g>
    <g clip-path="url(#p3c72dcf6c5)">
     <use xlink:href="#C0_0_a0b60d4380" x="27.478216" y="328.647901" style="fill: #33991a"/>
    </g>
    <g clip-path="url(#p3c72dcf6c5)">
     <use xlink:href="#C0_0_a0b60d4380" x="31.201551" y="307.810499" style="fill: #33991a"/>
    </g>
    <g clip-path="url(#p3c72dcf6c5)">
     <use xlink:href="#C0_0_a0b60d4380" x="34.924887" y="278.440537" style="fill: #33991a"/>
    </g>
    <g clip-path="url(#p3c72dcf6c5)">
     <use xlink:href="#C0_0_a0b60d4380" x="38.648222" y="243.395342" style="fill: #33991a"/>
    </g>
    <g clip-path="url(#p3c72dcf6c5)">
     <use xlink:href="#C0_0_a0b60d4380" x="42.371558" y="205.613605" style="fill: #33991a"/>
    </g>
    <g clip-path="url(#p3c72dcf6c5)">
     <use xlink:href="#C0_0_a0b60d4380" x="46.094893" y="167.877185" style="fill: #33991a"/>
    </g>
    <g clip-path="url(#p3c72dcf6c5)">
     <use xlink:href="#C0_0_a0b60d4380" x="49.818229" y="132.625524" style="fill: #33991a"/>
    </g>
    <g clip-path="url(#p3c72dcf6c5)">
     <use xlink:href="#C0_0_a0b60d4380" x="53.541564" y="101.828484" style="fill: #33991a"/>
    </g>
    <g clip-path="url(#p3c72dcf6c5)">
     <use xlink:href="#C0_0_a0b60d4380" x="57.2649" y="76.917043" style="fill: #33991a"/>
    </g>
    <g clip-path="url(#p3c72dcf6c5)">
     <use xlink:href="#C0_0_a0b60d4380" x="60.988235" y="58.7664" style="fill: #33991a"/>
    </g>
    <g clip-path="url(#p3c72dcf6c5)">
     <use xlink:href="#C0_0_a0b60d4380" x="64.711571" y="47.722717" style="fill: #33991a"/>
    </g>
    <g clip-path="url(#p3c72dcf6c5)">
     <use xlink:href="#C0_0_a0b60d4380" x="68.434906" y="43.662941" style="fill: #33991a"/>
    </g>
    <g clip-path="url(#p3c72dcf6c5)">
     <use xlink:href="#C0_0_a0b60d4380" x="72.158242" y="46.076703" style="fill: #33991a"/>
    </g>
    <g clip-path="url(#p3c72dcf6c5)">
     <use xlink:href="#C0_0_a0b60d4380" x="75.881577" y="54.159853" style="fill: #33991a"/>
    </g>
    <g clip-path="url(#p3c72dcf6c5)">
     <use xlink:href="#C0_0_a0b60d4380" x="79.604913" y="66.910556" style="fill: #33991a"/>
    </g>
    <g clip-path="url(#p3c72dcf6c5)">
     <use xlink:href="#C0_0_a0b60d4380" x="83.328248" y="83.220609" style="fill: #33991a"/>
    </g>
    <g clip-path="url(#p3c72dcf6c5)">
     <use xlink:href="#C0_0_a0b60d4380" x="87.051584" y="101.956617" style="fill: #33991a"/>
    </g>
    <g clip-path="url(#p3c72dcf6c5)">
     <use xlink:href="#C0_0_a0b60d4380" x="90.774919" y="122.027593" style="fill: #33991a"/>
    </g>
    <g clip-path="url(#p3c72dcf6c5)">
     <use xlink:href="#C0_0_a0b60d4380" x="94.498255" y="142.437262" style="fill: #33991a"/>
    </g>
    <g clip-path="url(#p3c72dcf6c5)">
     <use xlink:href="#C0_0_a0b60d4380" x="98.22159" y="162.320853" style="fill: #33991a"/>
    </g>
    <g clip-path="url(#p3c72dcf6c5)">
     <use xlink:href="#C0_0_a0b60d4380" x="101.944926" y="180.967243" style="fill: #33991a"/>
    </g>
    <g clip-path="url(#p3c72dcf6c5)">
     <use xlink:href="#C0_0_a0b60d4380" x="105.668261" y="197.828158" style="fill: #33991a"/>
    </g>
    <g clip-path="url(#p3c72dcf6c5)">
     <use xlink:href="#C0_0_a0b60d4380" x="109.391597" y="212.516603" style="fill: #33991a"/>
    </g>
    <g clip-path="url(#p3c72dcf6c5)">
     <use xlink:href="#C0_0_a0b60d4380" x="113.114932" y="224.796894" style="fill: #33991a"/>
    </g>
    <g clip-path="url(#p3c72dcf6c5)">
     <use xlink:href="#C0_0_a0b60d4380" x="116.838268" y="234.568674" style="fill: #33991a"/>
    </g>
    <g clip-path="url(#p3c72dcf6c5)">
     <use xlink:href="#C0_0_a0b60d4380" x="120.561603" y="241.84713" style="fill: #33991a"/>
    </g>
    <g clip-path="url(#p3c72dcf6c5)">
     <use xlink:href="#C0_0_a0b60d4380" x="124.284939" y="246.741335" style="fill: #33991a"/>
    </g>
    <g clip-path="url(#p3c72dcf6c5)">
     <use xlink:href="#C0_0_a0b60d4380" x="128.008274" y="249.432328" style="fill: #33991a"/>
    </g>
    <g clip-path="url(#p3c72dcf6c5)">
     <use xlink:href="#C0_0_a0b60d4380" x="131.73161" y="250.152153" style="fill: #33991a"/>
    </g>
    <g clip-path="url(#p3c72dcf6c5)">
     <use xlink:href="#C0_0_a0b60d4380" x="135.454945" y="249.164783" style="fill: #33991a"/>
    </g>
    <g clip-path="url(#p3c72dcf6c5)">
     <use xlink:href="#C0_0_a0b60d4380" x="139.178281" y="246.749464" style="fill: #33991a"/>
    </g>
    <g clip-path="url(#p3c72dcf6c5)">
     <use xlink:href="#C0_0_a0b60d4380" x="142.901616" y="243.186825" style="fill: #33991a"/>
    </g>
    <g clip-path="url(#p3c72dcf6c5)">
     <use xlink:href="#C0_0_a0b60d4380" x="146.624952" y="238.74779" style="fill: #33991a"/>
    </g>
    <g clip-path="url(#p3c72dcf6c5)">
     <use xlink:href="#C0_0_a0b60d4380" x="150.348287" y="233.685238" style="fill: #33991a"/>
    </g>
    <g clip-path="url(#p3c72dcf6c5)">
     <use xlink:href="#C0_0_a0b60d4380" x="154.071622" y="228.228159" style="fill: #33991a"/>
    </g>
    <g clip-path="url(#p3c72dcf6c5)">
     <use xlink:href="#C0_0_a0b60d4380" x="157.794958" y="222.578033" style="fill: #33991a"/>
    </g>
    <g clip-path="url(#p3c72dcf6c5)">
     <use xlink:href="#C0_0_a0b60d4380" x="161.518293" y="216.907084" style="fill: #33991a"/>
    </g>
    <g clip-path="url(#p3c72dcf6c5)">
     <use xlink:href="#C0_0_a0b60d4380" x="165.241629" y="211.35805" style="fill: #33991a"/>
    </g>
    <g clip-path="url(#p3c72dcf6c5)">
     <use xlink:href="#C0_0_a0b60d4380" x="168.964964" y="206.045144" style="fill: #33991a"/>
    </g>
    <g clip-path="url(#p3c72dcf6c5)">
     <use xlink:href="#C0_0_a0b60d4380" x="172.6883" y="201.055868" style="fill: #33991a"/>
    </g>
    <g clip-path="url(#p3c72dcf6c5)">
     <use xlink:href="#C0_0_a0b60d4380" x="176.411635" y="196.453414" style="fill: #33991a"/>
    </g>
    <g clip-path="url(#p3c72dcf6c5)">
     <use xlink:href="#C0_0_a0b60d4380" x="180.134971" y="192.279401" style="fill: #33991a"/>
    </g>
    <g clip-path="url(#p3c72dcf6c5)">
     <use xlink:href="#C0_0_a0b60d4380" x="183.858306" y="188.556761" style="fill: #33991a"/>
    </g>
    <g clip-path="url(#p3c72dcf6c5)">
     <use xlink:href="#C0_0_a0b60d4380" x="187.581642" y="185.292607" style="fill: #33991a"/>
    </g>
    <g clip-path="url(#p3c72dcf6c5)">
     <use xlink:href="#C0_0_a0b60d4380" x="191.304977" y="182.480971" style="fill: #33991a"/>
    </g>
    <g clip-path="url(#p3c72dcf6c5)">
     <use xlink:href="#C0_0_a0b60d4380" x="195.028313" y="180.105331" style="fill: #33991a"/>
    </g>
    <g clip-path="url(#p3c72dcf6c5)">
     <use xlink:href="#C0_0_a0b60d4380" x="198.751648" y="178.14087" style="fill: #33991a"/>
    </g>
    <g clip-path="url(#p3c72dcf6c5)">
     <use xlink:href="#C0_0_a0b60d4380" x="202.474984" y="176.556436" style="fill: #33991a"/>
    </g>
    <g clip-path="url(#p3c72dcf6c5)">
     <use xlink:href="#C0_0_a0b60d4380" x="206.198319" y="175.316198" style="fill: #33991a"/>
    </g>
    <g clip-path="url(#p3c72dcf6c5)">
     <use xlink:href="#C0_0_a0b60d4380" x="209.921655" y="174.381008" style="fill: #33991a"/>
    </g>
    <g clip-path="url(#p3c72dcf6c5)">
     <use xlink:href="#C0_0_a0b60d4380" x="213.64499" y="173.709467" style="fill: #33991a"/>
    </g>
    <g clip-path="url(#p3c72dcf6c5)">
     <use xlink:href="#C0_0_a0b60d4380" x="217.368326" y="173.258747" style="fill: #33991a"/>
    </g>
    <g clip-path="url(#p3c72dcf6c5)">
     <use xlink:href="#C0_0_a0b60d4380" x="221.091661" y="172.98518" style="fill: #33991a"/>
    </g>
    <g clip-path="url(#p3c72dcf6c5)">
     <use xlink:href="#C0_0_a0b60d4380" x="224.814997" y="172.844659" style="fill: #33991a"/>
    </g>
    <g clip-path="url(#p3c72dcf6c5)">
     <use xlink:href="#C0_0_a0b60d4380" x="228.538332" y="172.792884" style="fill: #33991a"/>
    </g>
    <g clip-path="url(#p3c72dcf6c5)">
     <use xlink:href="#C0_0_a0b60d4380" x="232.261668" y="172.785487" style="fill: #33991a"/>
    </g>
    <g clip-path="url(#p3c72dcf6c5)">
     <use xlink:href="#C0_0_a0b60d4380" x="235.985003" y="172.778091" style="fill: #33991a"/>
    </g>
    <g clip-path="url(#p3c72dcf6c5)">
     <use xlink:href="#C0_0_a0b60d4380" x="239.708339" y="172.726315" style="fill: #33991a"/>
    </g>
    <g clip-path="url(#p3c72dcf6c5)">
     <use xlink:href="#C0_0_a0b60d4380" x="243.431674" y="172.585794" style="fill: #33991a"/>
    </g>
    <g clip-path="url(#p3c72dcf6c5)">
     <use xlink:href="#C0_0_a0b60d4380" x="247.15501" y="172.312228" style="fill: #33991a"/>
    </g>
    <g clip-path="url(#p3c72dcf6c5)">
     <use xlink:href="#C0_0_a0b60d4380" x="250.878345" y="171.861508" style="fill: #33991a"/>
    </g>
    <g clip-path="url(#p3c72dcf6c5)">
     <use xlink:href="#C0_0_a0b60d4380" x="254.601681" y="171.189966" style="fill: #33991a"/>
    </g>
    <g clip-path="url(#p3c72dcf6c5)">
     <use xlink:href="#C0_0_a0b60d4380" x="258.325016" y="170.254776" style="fill: #33991a"/>
    </g>
    <g clip-path="url(#p3c72dcf6c5)">
     <use xlink:href="#C0_0_a0b60d4380" x="262.048352" y="169.014539" style="fill: #33991a"/>
    </g>
    <g clip-path="url(#p3c72dcf6c5)">
     <use xlink:href="#C0_0_a0b60d4380" x="265.771687" y="167.430104" style="fill: #33991a"/>
    </g>
    <g clip-path="url(#p3c72dcf6c5)">
     <use xlink:href="#C0_0_a0b60d4380" x="269.495023" y="165.465643" style="fill: #33991a"/>
    </g>
    <g clip-path="url(#p3c72dcf6c5)">
     <use xlink:href="#C0_0_a0b60d4380" x="273.218358" y="163.090003" style="fill: #33991a"/>
    </g>
    <g clip-path="url(#p3c72dcf6c5)">
     <use xlink:href="#C0_0_a0b60d4380" x="276.941694" y="160.278367" style="fill: #33991a"/>
    </g>
    <g clip-path="url(#p3c72dcf6c5)">
     <use xlink:href="#C0_0_a0b60d4380" x="280.665029" y="157.014213" style="fill: #33991a"/>
    </g>
    <g clip-path="url(#p3c72dcf6c5)">
     <use xlink:href="#C0_0_a0b60d4380" x="284.388365" y="153.291573" style="fill: #33991a"/>
    </g>
    <g clip-path="url(#p3c72dcf6c5)">
     <use xlink:href="#C0_0_a0b60d4380" x="288.1117" y="149.117561" style="fill: #33991a"/>
    </g>
    <g clip-path="url(#p3c72dcf6c5)">
     <use xlink:href="#C0_0_a0b60d4380" x="291.835036" y="144.515106" style="fill: #33991a"/>
    </g>
    <g clip-path="url(#p3c72dcf6c5)">
     <use xlink:href="#C0_0_a0b60d4380" x="295.558371" y="139.525831" style="fill: #33991a"/>
    </g>
    <g clip-path="url(#p3c72dcf6c5)">
     <use xlink:href="#C0_0_a0b60d4380" x="299.281707" y="134.212925" style="fill: #33991a"/>
    </g>
    <g clip-path="url(#p3c72dcf6c5)">
     <use xlink:href="#C0_0_a0b60d4380" x="303.005042" y="128.663891" style="fill: #33991a"/>
    </g>
    <g clip-path="url(#p3c72dcf6c5)">
     <use xlink:href="#C0_0_a0b60d4380" x="306.728378" y="122.992941" style="fill: #33991a"/>
    </g>
    <g clip-path="url(#p3c72dcf6c5)">
     <use xlink:href="#C0_0_a0b60d4380" x="310.451713" y="117.342816" style="fill: #33991a"/>
    </g>
    <g clip-path="url(#p3c72dcf6c5)">
     <use xlink:href="#C0_0_a0b60d4380" x="314.175048" y="111.885737" style="fill: #33991a"/>
    </g>
    <g clip-path="url(#p3c72dcf6c5)">
     <use xlink:href="#C0_0_a0b60d4380" x="317.898384" y="106.823185" style="fill: #33991a"/>
    </g>
    <g clip-path="url(#p3c72dcf6c5)">
     <use xlink:href="#C0_0_a0b60d4380" x="321.621719" y="102.38415" style="fill: #33991a"/>
    </g>
    <g clip-path="url(#p3c72dcf6c5)">
     <use xlink:href="#C0_0_a0b60d4380" x="325.345055" y="98.82151" style="fill: #33991a"/>
    </g>
    <g clip-path="url(#p3c72dcf6c5)">
     <use xlink:href="#C0_0_a0b60d4380" x="329.06839" y="96.406192" style="fill: #33991a"/>
    </g>
    <g clip-path="url(#p3c72dcf6c5)">
     <use xlink:href="#C0_0_a0b60d4380" x="332.791726" y="95.418821" style="fill: #33991a"/>
    </g>
    <g clip-path="url(#p3c72dcf6c5)">
     <use xlink:href="#C0_0_a0b60d4380" x="336.515061" y="96.138647" style="fill: #33991a"/>
    </g>
    <g clip-path="url(#p3c72dcf6c5)">
     <use xlink:href="#C0_0_a0b60d4380" x="340.238397" y="98.829639" style="fill: #33991a"/>
    </g>
    <g clip-path="url(#p3c72dcf6c5)">
     <use xlink:href="#C0_0_a0b60d4380" x="343.961732" y="103.723845" style="fill: #33991a"/>
    </g>
    <g clip-path="url(#p3c72dcf6c5)">
     <use xlink:href="#C0_0_a0b60d4380" x="347.685068" y="111.002301" style="fill: #33991a"/>
    </g>
    <g clip-path="url(#p3c72dcf6c5)">
     <use xlink:href="#C0_0_a0b60d4380" x="351.408403" y="120.774081" style="fill: #33991a"/>
    </g>
    <g clip-path="url(#p3c72dcf6c5)">
     <use xlink:href="#C0_0_a0b60d4380" x="355.131739" y="133.054372" style="fill: #33991a"/>
    </g>
    <g clip-path="url(#p3c72dcf6c5)">
     <use xlink:href="#C0_0_a0b60d4380" x="358.855074" y="147.742817" style="fill: #33991a"/>
    </g>
    <g clip-path="url(#p3c72dcf6c5)">
     <use xlink:href="#C0_0_a0b60d4380" x="362.57841" y="164.603732" style="fill: #33991a"/>
    </g>
    <g clip-path="url(#p3c72dcf6c5)">
     <use xlink:href="#C0_0_a0b60d4380" x="366.301745" y="183.250121" style="fill: #33991a"/>
    </g>
    <g clip-path="url(#p3c72dcf6c5)">
     <use xlink:href="#C0_0_a0b60d4380" x="370.025081" y="203.133712" style="fill: #33991a"/>
    </g>
    <g clip-path="url(#p3c72dcf6c5)">
     <use xlink:href="#C0_0_a0b60d4380" x="373.748416" y="223.543382" style="fill: #33991a"/>
    </g>
    <g clip-path="url(#p3c72dcf6c5)">
     <use xlink:href="#C0_0_a0b60d4380" x="377.471752" y="243.614357" style="fill: #33991a"/>
    </g>
    <g clip-path="url(#p3c72dcf6c5)">
     <use xlink:href="#C0_0_a0b60d4380" x="381.195087" y="262.350366" style="fill: #33991a"/>
    </g>
    <g clip-path="url(#p3c72dcf6c5)">
     <use xlink:href="#C0_0_a0b60d4380" x="384.918423" y="278.660418" style="fill: #33991a"/>
    </g>
    <g clip-path="url(#p3c72dcf6c5)">
     <use xlink:href="#C0_0_a0b60d4380" x="388.641758" y="291.411122" style="fill: #33991a"/>
    </g>
    <g clip-path="url(#p3c72dcf6c5)">
     <use xlink:href="#C0_0_a0b60d4380" x="392.365094" y="299.494272" style="fill: #33991a"/>
    </g>
    <g clip-path="url(#p3c72dcf6c5)">
     <use xlink:href="#C0_0_a0b60d4380" x="396.088429" y="301.908033" style="fill: #33991a"/>
    </g>
    <g clip-path="url(#p3c72dcf6c5)">
     <use xlink:href="#C0_0_a0b60d4380" x="399.811765" y="297.848258" style="fill: #33991a"/>
    </g>
    <g clip-path="url(#p3c72dcf6c5)">
     <use xlink:href="#C0_0_a0b60d4380" x="403.5351" y="286.804575" style="fill: #33991a"/>
    </g>
    <g clip-path="url(#p3c72dcf6c5)">
     <use xlink:href="#C0_0_a0b60d4380" x="407.258436" y="268.653932" style="fill: #33991a"/>
    </g>
    <g clip-path="url(#p3c72dcf6c5)">
     <use xlink:href="#C0_0_a0b60d4380" x="410.981771" y="243.742491" style="fill: #33991a"/>
    </g>
    <g clip-path="url(#p3c72dcf6c5)">
     <use xlink:href="#C0_0_a0b60d4380" x="414.705107" y="212.945451" style="fill: #33991a"/>
    </g>
    <g clip-path="url(#p3c72dcf6c5)">
     <use xlink:href="#C0_0_a0b60d4380" x="418.428442" y="177.69379" style="fill: #33991a"/>
    </g>
    <g clip-path="url(#p3c72dcf6c5)">
     <use xlink:href="#C0_0_a0b60d4380" x="422.151778" y="139.95737" style="fill: #33991a"/>
    </g>
    <g clip-path="url(#p3c72dcf6c5)">
     <use xlink:href="#C0_0_a0b60d4380" x="425.875113" y="102.175633" style="fill: #33991a"/>
    </g>
    <g clip-path="url(#p3c72dcf6c5)">
     <use xlink:href="#C0_0_a0b60d4380" x="429.598449" y="67.130438" style="fill: #33991a"/>
    </g>
    <g clip-path="url(#p3c72dcf6c5)">
     <use xlink:href="#C0_0_a0b60d4380" x="433.321784" y="37.760475" style="fill: #33991a"/>
    </g>
    <g clip-path="url(#p3c72dcf6c5)">
     <use xlink:href="#C0_0_a0b60d4380" x="437.04512" y="16.923074" style="fill: #33991a"/>
    </g>
    <g clip-path="url(#p3c72dcf6c5)">
     <use xlink:href="#C0_0_a0b60d4380" x="440.768455" y="7.116671" style="fill: #33991a"/>
    </g>
    <g clip-path="url(#p3c72dcf6c5)">
     <use xlink:href="#C0_0_a0b60d4380" x="444.491791" y="10.185155" style="fill: #33991a"/>
    </g>
    <g clip-path="url(#p3c72dcf6c5)">
     <use xlink:href="#C0_0_a0b60d4380" x="448.215126" y="27.03275" style="fill: #33991a"/>
    </g>
    <g clip-path="url(#p3c72dcf6c5)">
     <use xlink:href="#C0_0_a0b60d4380" x="451.938462" y="57.383992" style="fill: #33991a"/>
    </g>
   </g>
   <g id="matplotlib.axis_1">
    <g id="xtick_1">
     <g id="line2d_1">
      <defs>
       <path id="mb2953a412e" d="M 0 0 
L 0 3.5 
" style="stroke: #000000; stroke-width: 0.8"/>
      </defs>
      <g>
       <use xlink:href="#mb2953a412e" x="8.861538" y="172.785487" style="stroke: #000000; stroke-width: 0.8"/>
      </g>
     </g>
     <g id="text_1">
      <!-- −3 -->
      <g transform="translate(1.490445 187.383925) scale(0.1 -0.1)">
       <defs>
        <path id="DejaVuSans-2212" d="M 678 2272 
L 4684 2272 
L 4684 1741 
L 678 1741 
L 678 2272 
z
" transform="scale(0.015625)"/>
        <path id="DejaVuSans-33" d="M 2597 2516 
Q 3050 2419 3304 2112 
Q 3559 1806 3559 1356 
Q 3559 666 3084 287 
Q 2609 -91 1734 -91 
Q 1441 -91 1130 -33 
Q 819 25 488 141 
L 488 750 
Q 750 597 1062 519 
Q 1375 441 1716 441 
Q 2309 441 2620 675 
Q 2931 909 2931 1356 
Q 2931 1769 2642 2001 
Q 2353 2234 1838 2234 
L 1294 2234 
L 1294 2753 
L 1863 2753 
Q 2328 2753 2575 2939 
Q 2822 3125 2822 3475 
Q 2822 3834 2567 4026 
Q 2313 4219 1838 4219 
Q 1578 4219 1281 4162 
Q 984 4106 628 3988 
L 628 4550 
Q 988 4650 1302 4700 
Q 1616 4750 1894 4750 
Q 2613 4750 3031 4423 
Q 3450 4097 3450 3541 
Q 3450 3153 3228 2886 
Q 3006 2619 2597 2516 
z
" transform="scale(0.015625)"/>
       </defs>
       <use xlink:href="#DejaVuSans-2212"/>
       <use xlink:href="#DejaVuSans-33" x="83.789062"/>
      </g>
     </g>
    </g>
    <g id="xtick_2">
     <g id="line2d_2">
      <g>
       <use xlink:href="#mb2953a412e" x="83.328248" y="172.785487" style="stroke: #000000; stroke-width: 0.8"/>
      </g>
     </g>
     <g id="text_2">
      <!-- −2 -->
      <g transform="translate(75.957154 187.383925) scale(0.1 -0.1)">
       <defs>
        <path id="DejaVuSans-32" d="M 1228 531 
L 3431 531 
L 3431 0 
L 469 0 
L 469 531 
Q 828 903 1448 1529 
Q 2069 2156 2228 2338 
Q 2531 2678 2651 2914 
Q 2772 3150 2772 3378 
Q 2772 3750 2511 3984 
Q 2250 4219 1831 4219 
Q 1534 4219 1204 4116 
Q 875 4013 500 3803 
L 500 4441 
Q 881 4594 1212 4672 
Q 1544 4750 1819 4750 
Q 2544 4750 2975 4387 
Q 3406 4025 3406 3419 
Q 3406 3131 3298 2873 
Q 3191 2616 2906 2266 
Q 2828 2175 2409 1742 
Q 1991 1309 1228 531 
z
" transform="scale(0.015625)"/>
       </defs>
       <use xlink:href="#DejaVuSans-2212"/>
       <use xlink:href="#DejaVuSans-32" x="83.789062"/>
      </g>
     </g>
    </g>
    <g id="xtick_3">
     <g id="line2d_3">
      <g>
       <use xlink:href="#mb2953a412e" x="157.794958" y="172.785487" style="stroke: #000000; stroke-width: 0.8"/>
      </g>
     </g>
     <g id="text_3">
      <!-- −1 -->
      <g transform="translate(150.423864 187.383925) scale(0.1 -0.1)">
       <defs>
        <path id="DejaVuSans-31" d="M 794 531 
L 1825 531 
L 1825 4091 
L 703 3866 
L 703 4441 
L 1819 4666 
L 2450 4666 
L 2450 531 
L 3481 531 
L 3481 0 
L 794 0 
L 794 531 
z
" transform="scale(0.015625)"/>
       </defs>
       <use xlink:href="#DejaVuSans-2212"/>
       <use xlink:href="#DejaVuSans-31" x="83.789062"/>
      </g>
     </g>
    </g>
    <g id="xtick_4">
     <g id="line2d_4">
      <g>
       <use xlink:href="#mb2953a412e" x="232.261668" y="172.785487" style="stroke: #000000; stroke-width: 0.8"/>
      </g>
     </g>
    </g>
    <g id="xtick_5">
     <g id="line2d_5">
      <g>
       <use xlink:href="#mb2953a412e" x="306.728378" y="172.785487" style="stroke: #000000; stroke-width: 0.8"/>
      </g>
     </g>
     <g id="text_4">
      <!-- 1 -->
      <g transform="translate(303.547128 187.383925) scale(0.1 -0.1)">
       <use xlink:href="#DejaVuSans-31"/>
      </g>
     </g>
    </g>
    <g id="xtick_6">
     <g id="line2d_6">
      <g>
       <use xlink:href="#mb2953a412e" x="381.195087" y="172.785487" style="stroke: #000000; stroke-width: 0.8"/>
      </g>
     </g>
     <g id="text_5">
      <!-- 2 -->
      <g transform="translate(378.013837 187.383925) scale(0.1 -0.1)">
       <use xlink:href="#DejaVuSans-32"/>
      </g>
     </g>
    </g>
    <g id="xtick_7">
     <g id="line2d_7">
      <g>
       <use xlink:href="#mb2953a412e" x="455.661797" y="172.785487" style="stroke: #000000; stroke-width: 0.8"/>
      </g>
     </g>
     <g id="text_6">
      <!-- 3 -->
      <g transform="translate(452.480547 187.383925) scale(0.1 -0.1)">
       <use xlink:href="#DejaVuSans-33"/>
      </g>
     </g>
    </g>
    <g id="xtick_8">
     <g id="line2d_8">
      <defs>
       <path id="m53e3b01b2e" d="M 0 0 
L 0 2 
" style="stroke: #000000; stroke-width: 0.6"/>
      </defs>
      <g>
       <use xlink:href="#m53e3b01b2e" x="23.75488" y="172.785487" style="stroke: #000000; stroke-width: 0.6"/>
      </g>
     </g>
    </g>
    <g id="xtick_9">
     <g id="line2d_9">
      <g>
       <use xlink:href="#m53e3b01b2e" x="38.648222" y="172.785487" style="stroke: #000000; stroke-width: 0.6"/>
      </g>
     </g>
    </g>
    <g id="xtick_10">
     <g id="line2d_10">
      <g>
       <use xlink:href="#m53e3b01b2e" x="53.541564" y="172.785487" style="stroke: #000000; stroke-width: 0.6"/>
      </g>
     </g>
    </g>
    <g id="xtick_11">
     <g id="line2d_11">
      <g>
       <use xlink:href="#m53e3b01b2e" x="68.434906" y="172.785487" style="stroke: #000000; stroke-width: 0.6"/>
      </g>
     </g>
    </g>
    <g id="xtick_12">
     <g id="line2d_12">
      <g>
       <use xlink:href="#m53e3b01b2e" x="98.22159" y="172.785487" style="stroke: #000000; stroke-width: 0.6"/>
      </g>
     </g>
    </g>
    <g id="xtick_13">
     <g id="line2d_13">
      <g>
       <use xlink:href="#m53e3b01b2e" x="113.114932" y="172.785487" style="stroke: #000000; stroke-width: 0.6"/>
      </g>
     </g>
    </g>
    <g id="xtick_14">
     <g id="line2d_14">
      <g>
       <use xlink:href="#m53e3b01b2e" x="128.008274" y="172.785487" style="stroke: #000000; stroke-width: 0.6"/>
      </g>
     </g>
    </g>
    <g id="xtick_15">
     <g id="line2d_15">
      <g>
       <use xlink:href="#m53e3b01b2e" x="142.901616" y="172.785487" style="stroke: #000000; stroke-width: 0.6"/>
      </g>
     </g>
    </g>
    <g id="xtick_16">
     <g id="line2d_16">
      <g>
       <use xlink:href="#m53e3b01b2e" x="172.6883" y="172.785487" style="stroke: #000000; stroke-width: 0.6"/>
      </g>
     </g>
    </g>
    <g id="xtick_17">
     <g id="line2d_17">
      <g>
       <use xlink:href="#m53e3b01b2e" x="187.581642" y="172.785487" style="stroke: #000000; stroke-width: 0.6"/>
      </g>
     </g>
    </g>
    <g id="xtick_18">
     <g id="line2d_18">
      <g>
       <use xlink:href="#m53e3b01b2e" x="202.474984" y="172.785487" style="stroke: #000000; stroke-width: 0.6"/>
      </g>
     </g>
    </g>
    <g id="xtick_19">
     <g id="line2d_19">
      <g>
       <use xlink:href="#m53e3b01b2e" x="217.368326" y="172.785487" style="stroke: #000000; stroke-width: 0.6"/>
      </g>
     </g>
    </g>
    <g id="xtick_20">
     <g id="line2d_20">
      <g>
       <use xlink:href="#m53e3b01b2e" x="247.15501" y="172.785487" style="stroke: #000000; stroke-width: 0.6"/>
      </g>
     </g>
    </g>
    <g id="xtick_21">
     <g id="line2d_21">
      <g>
       <use xlink:href="#m53e3b01b2e" x="262.048352" y="172.785487" style="stroke: #000000; stroke-width: 0.6"/>
      </g>
     </g>
    </g>
    <g id="xtick_22">
     <g id="line2d_22">
      <g>
       <use xlink:href="#m53e3b01b2e" x="276.941694" y="172.785487" style="stroke: #000000; stroke-width: 0.6"/>
      </g>
     </g>
    </g>
    <g id="xtick_23">
     <g id="line2d_23">
      <g>
       <use xlink:href="#m53e3b01b2e" x="291.835036" y="172.785487" style="stroke: #000000; stroke-width: 0.6"/>
      </g>
     </g>
    </g>
    <g id="xtick_24">
     <g id="line2d_24">
      <g>
       <use xlink:href="#m53e3b01b2e" x="321.621719" y="172.785487" style="stroke: #000000; stroke-width: 0.6"/>
      </g>
     </g>
    </g>
    <g id="xtick_25">
     <g id="line2d_25">
      <g>
       <use xlink:href="#m53e3b01b2e" x="336.515061" y="172.785487" style="stroke: #000000; stroke-width: 0.6"/>
      </g>
     </g>
    </g>
    <g id="xtick_26">
     <g id="line2d_26">
      <g>
       <use xlink:href="#m53e3b01b2e" x="351.408403" y="172.785487" style="stroke: #000000; stroke-width: 0.6"/>
      </g>
     </g>
    </g>
    <g id="xtick_27">
     <g id="line2d_27">
      <g>
       <use xlink:href="#m53e3b01b2e" x="366.301745" y="172.785487" style="stroke: #000000; stroke-width: 0.6"/>
      </g>
     </g>
    </g>
    <g id="xtick_28">
     <g id="line2d_28">
      <g>
       <use xlink:href="#m53e3b01b2e" x="396.088429" y="172.785487" style="stroke: #000000; stroke-width: 0.6"/>
      </g>
     </g>
    </g>
    <g id="xtick_29">
     <g id="line2d_29">
      <g>
       <use xlink:href="#m53e3b01b2e" x="410.981771" y="172.785487" style="stroke: #000000; stroke-width: 0.6"/>
      </g>
     </g>
    </g>
    <g id="xtick_30">
     <g id="line2d_30">
      <g>
       <use xlink:href="#m53e3b01b2e" x="425.875113" y="172.785487" style="stroke: #000000; stroke-width: 0.6"/>
      </g>
     </g>
    </g>
    <g id="xtick_31">
     <g id="line2d_31">
      <g>
       <use xlink:href="#m53e3b01b2e" x="440.768455" y="172.785487" style="stroke: #000000; stroke-width: 0.6"/>
      </g>
     </g>
    </g>
   </g>
   <g id="matplotlib.axis_2">
    <g id="ytick_1">
     <g id="line2d_32">
      <defs>
       <path id="me0dec7334f" d="M 0 0 
L -3.5 0 
" style="stroke: #000000; stroke-width: 0.8"/>
      </defs>
      <g>
       <use xlink:href="#me0dec7334f" x="232.261668" y="291.131924" style="stroke: #000000; stroke-width: 0.8"/>
      </g>
     </g>
     <g id="text_7">
      <!-- −2 -->
      <g transform="translate(210.51948 294.931142) scale(0.1 -0.1)">
       <use xlink:href="#DejaVuSans-2212"/>
       <use xlink:href="#DejaVuSans-32" x="83.789062"/>
      </g>
     </g>
    </g>
    <g id="ytick_2">
     <g id="line2d_33">
      <g>
       <use xlink:href="#me0dec7334f" x="232.261668" y="231.958705" style="stroke: #000000; stroke-width: 0.8"/>
      </g>
     </g>
     <g id="text_8">
      <!-- −1 -->
      <g transform="translate(210.51948 235.757924) scale(0.1 -0.1)">
       <use xlink:href="#DejaVuSans-2212"/>
       <use xlink:href="#DejaVuSans-31" x="83.789062"/>
      </g>
     </g>
    </g>
    <g id="ytick_3">
     <g id="line2d_34">
      <g>
       <use xlink:href="#me0dec7334f" x="232.261668" y="172.785487" style="stroke: #000000; stroke-width: 0.8"/>
      </g>
     </g>
    </g>
    <g id="ytick_4">
     <g id="line2d_35">
      <g>
       <use xlink:href="#me0dec7334f" x="232.261668" y="113.612269" style="stroke: #000000; stroke-width: 0.8"/>
      </g>
     </g>
     <g id="text_9">
      <!-- 1 -->
      <g transform="translate(218.899168 117.411488) scale(0.1 -0.1)">
       <use xlink:href="#DejaVuSans-31"/>
      </g>
     </g>
    </g>
    <g id="ytick_5">
     <g id="line2d_36">
      <g>
       <use xlink:href="#me0dec7334f" x="232.261668" y="54.439051" style="stroke: #000000; stroke-width: 0.8"/>
      </g>
     </g>
     <g id="text_10">
      <!-- 2 -->
      <g transform="translate(218.899168 58.23827) scale(0.1 -0.1)">
       <use xlink:href="#DejaVuSans-32"/>
      </g>
     </g>
    </g>
    <g id="ytick_6">
     <g id="line2d_37">
      <defs>
       <path id="m2decf90f41" d="M 0 0 
L -2 0 
" style="stroke: #000000; stroke-width: 0.6"/>
      </defs>
      <g>
       <use xlink:href="#m2decf90f41" x="232.261668" y="338.470498" style="stroke: #000000; stroke-width: 0.6"/>
      </g>
     </g>
    </g>
    <g id="ytick_7">
     <g id="line2d_38">
      <g>
       <use xlink:href="#m2decf90f41" x="232.261668" y="326.635854" style="stroke: #000000; stroke-width: 0.6"/>
      </g>
     </g>
    </g>
    <g id="ytick_8">
     <g id="line2d_39">
      <g>
       <use xlink:href="#m2decf90f41" x="232.261668" y="314.801211" style="stroke: #000000; stroke-width: 0.6"/>
      </g>
     </g>
    </g>
    <g id="ytick_9">
     <g id="line2d_40">
      <g>
       <use xlink:href="#m2decf90f41" x="232.261668" y="302.966567" style="stroke: #000000; stroke-width: 0.6"/>
      </g>
     </g>
    </g>
    <g id="ytick_10">
     <g id="line2d_41">
      <g>
       <use xlink:href="#m2decf90f41" x="232.261668" y="279.29728" style="stroke: #000000; stroke-width: 0.6"/>
      </g>
     </g>
    </g>
    <g id="ytick_11">
     <g id="line2d_42">
      <g>
       <use xlink:href="#m2decf90f41" x="232.261668" y="267.462636" style="stroke: #000000; stroke-width: 0.6"/>
      </g>
     </g>
    </g>
    <g id="ytick_12">
     <g id="line2d_43">
      <g>
       <use xlink:href="#m2decf90f41" x="232.261668" y="255.627993" style="stroke: #000000; stroke-width: 0.6"/>
      </g>
     </g>
    </g>
    <g id="ytick_13">
     <g id="line2d_44">
      <g>
       <use xlink:href="#m2decf90f41" x="232.261668" y="243.793349" style="stroke: #000000; stroke-width: 0.6"/>
      </g>
     </g>
    </g>
    <g id="ytick_14">
     <g id="line2d_45">
      <g>
       <use xlink:href="#m2decf90f41" x="232.261668" y="220.124062" style="stroke: #000000; stroke-width: 0.6"/>
      </g>
     </g>
    </g>
    <g id="ytick_15">
     <g id="line2d_46">
      <g>
       <use xlink:href="#m2decf90f41" x="232.261668" y="208.289418" style="stroke: #000000; stroke-width: 0.6"/>
      </g>
     </g>
    </g>
    <g id="ytick_16">
     <g id="line2d_47">
      <g>
       <use xlink:href="#m2decf90f41" x="232.261668" y="196.454775" style="stroke: #000000; stroke-width: 0.6"/>
      </g>
     </g>
    </g>
    <g id="ytick_17">
     <g id="line2d_48">
      <g>
       <use xlink:href="#m2decf90f41" x="232.261668" y="184.620131" style="stroke: #000000; stroke-width: 0.6"/>
      </g>
     </g>
    </g>
    <g id="ytick_18">
     <g id="line2d_49">
      <g>
       <use xlink:href="#m2decf90f41" x="232.261668" y="160.950844" style="stroke: #000000; stroke-width: 0.6"/>
      </g>
     </g>
    </g>
    <g id="ytick_19">
     <g id="line2d_50">
      <g>
       <use xlink:href="#m2decf90f41" x="232.261668" y="149.1162" style="stroke: #000000; stroke-width: 0.6"/>
      </g>
     </g>
    </g>
    <g id="ytick_20">
     <g id="line2d_51">
      <g>
       <use xlink:href="#m2decf90f41" x="232.261668" y="137.281556" style="stroke: #000000; stroke-width: 0.6"/>
      </g>
     </g>
    </g>
    <g id="ytick_21">
     <g id="line2d_52">
      <g>
       <use xlink:href="#m2decf90f41" x="232.261668" y="125.446913" style="stroke: #000000; stroke-width: 0.6"/>
      </g>
     </g>
    </g>
    <g id="ytick_22">
     <g id="line2d_53">
      <g>
       <use xlink:href="#m2decf90f41" x="232.261668" y="101.777625" style="stroke: #000000; stroke-width: 0.6"/>
      </g>
     </g>
    </g>
    <g id="ytick_23">
     <g id="line2d_54">
      <g>
       <use xlink:href="#m2decf90f41" x="232.261668" y="89.942982" style="stroke: #000000; stroke-width: 0.6"/>
      </g>
     </g>
    </g>
    <g id="ytick_24">
     <g id="line2d_55">
      <g>
       <use xlink:href="#m2decf90f41" x="232.261668" y="78.108338" style="stroke: #000000; stroke-width: 0.6"/>
      </g>
     </g>
    </g>
    <g id="ytick_25">
     <g id="line2d_56">
      <g>
       <use xlink:href="#m2decf90f41" x="232.261668" y="66.273695" style="stroke: #000000; stroke-width: 0.6"/>
      </g>
     </g>
    </g>
    <g id="ytick_26">
     <g id="line2d_57">
      <g>
       <use xlink:href="#m2decf90f41" x="232.261668" y="42.604407" style="stroke: #000000; stroke-width: 0.6"/>
      </g>
     </g>
    </g>
    <g id="ytick_27">
     <g id="line2d_58">
      <g>
       <use xlink:href="#m2decf90f41" x="232.261668" y="30.769764" style="stroke: #000000; stroke-width: 0.6"/>
      </g>
     </g>
    </g>
    <g id="ytick_28">
     <g id="line2d_59">
      <g>
       <use xlink:href="#m2decf90f41" x="232.261668" y="18.93512" style="stroke: #000000; stroke-width: 0.6"/>
      </g>
     </g>
    </g>
    <g id="ytick_29">
     <g id="line2d_60">
      <g>
       <use xlink:href="#m2decf90f41" x="232.261668" y="7.100476" style="stroke: #000000; stroke-width: 0.6"/>
      </g>
     </g>
    </g>
   </g>
   <g id="line2d_61">
    <path d="M 9.641371 255.27827 
L 11.939832 281.504057 
L 13.418609 296.196173 
L 14.843856 308.244026 
L 16.267024 318.276763 
L 17.496291 325.386074 
L 18.533738 330.249442 
L 19.608179 334.163144 
L 20.441756 336.396467 
L 21.275332 337.927391 
L 22.020491 338.711569 
L 22.39307 338.89986 
L 22.765649 338.953846 
L 23.138228 338.874697 
L 23.510807 338.663583 
L 24.255965 337.850409 
L 24.864403 336.807395 
L 25.777061 334.622533 
L 26.689719 331.717256 
L 27.70376 327.677199 
L 28.905595 321.838145 
L 30.201328 314.358411 
L 31.767643 303.826967 
L 33.286218 292.238866 
L 35.406695 274.162845 
L 37.414111 255.457823 
L 40.245593 227.354029 
L 47.446727 154.677721 
L 50.263585 128.674299 
L 52.609771 109.03077 
L 54.613272 94.006939 
L 56.601513 80.879046 
L 58.381412 70.739896 
L 60.100631 62.453586 
L 61.430807 57.080072 
L 62.842507 52.37684 
L 63.960168 49.379296 
L 64.951948 47.253414 
L 65.880787 45.713476 
L 66.809627 44.601917 
L 67.807015 43.875973 
L 68.804403 43.624388 
L 69.303097 43.672787 
L 70.300484 44.108349 
L 71.174806 44.851416 
L 71.92606 45.750988 
L 72.834378 47.150604 
L 73.899759 49.209582 
L 75.412261 52.861915 
L 76.392071 55.656075 
L 77.993984 60.890804 
L 79.735711 67.429823 
L 81.321751 74.057727 
L 83.865068 85.798581 
L 86.966504 101.509582 
L 90.406128 120.009087 
L 97.160431 156.751736 
L 100.788022 175.341959 
L 103.587902 188.653634 
L 106.147899 199.848562 
L 108.719708 210.038991 
L 111.181421 218.729169 
L 113.255914 225.212821 
L 114.832666 229.617983 
L 116.409419 233.571379 
L 118.478207 238.076964 
L 120.372786 241.536654 
L 121.760636 243.675922 
L 123.61655 246.030979 
L 125.344873 247.722318 
L 126.940159 248.872847 
L 128.252605 249.537251 
L 129.797015 250.008386 
L 131.080342 250.157153 
L 132.363669 250.097284 
L 133.907101 249.764824 
L 135.767813 249.012857 
L 137.479237 248.01075 
L 139.19066 246.739366 
L 141.342181 244.800918 
L 143.906329 242.064434 
L 146.947771 238.330092 
L 150.531024 233.424862 
L 153.554112 229.002485 
L 166.536529 209.478605 
L 171.334072 202.828659 
L 174.777921 198.422158 
L 178.765824 193.762683 
L 180.735738 191.647854 
L 184.772321 187.713052 
L 188.24652 184.757702 
L 191.122487 182.608446 
L 194.480856 180.428179 
L 196.611738 179.221351 
L 199.845414 177.637539 
L 203.407195 176.215104 
L 206.502216 175.228983 
L 209.135743 174.555038 
L 212.765006 173.846645 
L 217.763927 173.222039 
L 222.196662 172.931589 
L 229.192454 172.78963 
L 241.706729 172.664752 
L 246.896151 172.33647 
L 250.993738 171.844235 
L 255.888461 170.898712 
L 259.246334 169.977846 
L 262.190935 168.960442 
L 265.106126 167.740239 
L 268.161716 166.214848 
L 271.602552 164.173195 
L 274.755807 161.982993 
L 277.813042 159.555429 
L 281.325484 156.3873 
L 285.063223 152.568061 
L 288.059262 149.179394 
L 290.577588 146.115164 
L 295.03496 140.248438 
L 299.303225 134.181436 
L 304.164788 126.904403 
L 312.61093 114.142317 
L 315.767652 109.659211 
L 318.807622 105.67229 
L 320.694148 103.418223 
L 323.639812 100.327389 
L 325.961079 98.335229 
L 328.130268 96.891278 
L 329.468867 96.226461 
L 331.36117 95.611303 
L 333.033961 95.410776 
L 334.149155 95.469166 
L 335.26435 95.689653 
L 336.112802 95.970397 
L 337.042103 96.394039 
L 338.900707 97.620552 
L 340.504475 99.103826 
L 341.853408 100.670083 
L 343.537409 103.048566 
L 345.08379 105.659867 
L 346.983711 109.442894 
L 348.36817 112.606596 
L 349.925376 116.580067 
L 352.025105 122.63602 
L 353.841104 128.517411 
L 356.264683 137.277227 
L 358.527681 146.359742 
L 361.120421 157.764101 
L 363.843678 170.764299 
L 367.097645 187.418392 
L 372.407811 216.185873 
L 378.246767 247.659449 
L 381.201188 262.379382 
L 383.585282 273.170544 
L 385.235718 279.901712 
L 387.212555 287.009589 
L 388.703869 291.587213 
L 390.277588 295.599527 
L 391.389613 297.886455 
L 392.501638 299.68852 
L 393.385802 300.757971 
L 394.04992 301.342054 
L 394.788713 301.764574 
L 395.527506 301.941565 
L 396.266299 301.866625 
L 396.912298 301.590129 
L 397.742104 300.941344 
L 398.57191 299.956979 
L 399.589208 298.283773 
L 400.700252 295.858403 
L 401.811296 292.802493 
L 402.952251 289.004247 
L 404.3736 283.331969 
L 405.775565 276.722224 
L 407.401899 267.815371 
L 409.176113 256.624037 
L 410.952937 243.959509 
L 413.08752 226.967769 
L 415.579653 205.000651 
L 418.102367 180.912153 
L 422.57095 135.656987 
L 427.016362 91.008194 
L 429.759511 65.721312 
L 431.7578 49.217412 
L 433.544333 36.248591 
L 434.884232 27.825775 
L 436.109784 21.212587 
L 437.278163 15.961574 
L 438.446541 11.814138 
L 439.328162 9.456737 
L 440.209783 7.795651 
L 440.955723 6.955495 
L 441.328694 6.734387 
L 441.701664 6.646154 
L 442.052794 6.684376 
L 442.755055 7.113172 
L 443.457315 8.010883 
L 444.159576 9.376447 
L 445.132387 12.042481 
L 446.064909 15.480296 
L 446.997431 19.842898 
L 447.929485 25.188159 
L 449.12385 33.52359 
L 450.435408 44.175485 
L 450.960031 48.715931 
L 450.960031 48.715931 
" clip-path="url(#p3c72dcf6c5)" style="fill: none; stroke: #0000ff; stroke-linecap: square"/>
   </g>
   <g id="patch_3">
    <path d="M 232.261668 345.6 
L 232.261668 0 
" style="fill: none; stroke: #000000; stroke-width: 0.8; stroke-linejoin: miter; stroke-linecap: square"/>
   </g>
   <g id="patch_4">
    <path d="M 0 172.785487 
L 460.8 172.785487 
" style="fill: none; stroke: #000000; stroke-width: 0.8; stroke-linejoin: miter; stroke-linecap: square"/>
   </g>
  </g>
 </g>
 <defs>
  <clipPath id="p3c72dcf6c5">
   <rect x="0" y="0" width="460.8" height="345.6"/>
  </clipPath>
 </defs>
</svg>
