<?xml version="1.0" encoding="utf-8" standalone="no"?>
<!DOCTYPE svg PUBLIC "-//W3C//DTD SVG 1.1//EN"
  "http://www.w3.org/Graphics/SVG/1.1/DTD/svg11.dtd">
<!-- Created with matplotlib (https://matplotlib.org/) -->
<svg height="345.6pt" version="1.1" viewBox="0 0 460.8 345.6" width="460.8pt" xmlns="http://www.w3.org/2000/svg" xmlns:xlink="http://www.w3.org/1999/xlink">
 <metadata>
  <rdf:RDF xmlns:cc="http://creativecommons.org/ns#" xmlns:dc="http://purl.org/dc/elements/1.1/" xmlns:rdf="http://www.w3.org/1999/02/22-rdf-syntax-ns#">
   <cc:Work>
    <dc:type rdf:resource="http://purl.org/dc/dcmitype/StillImage"/>
    <dc:date>2021-08-24T12:31:16.978027</dc:date>
    <dc:format>image/svg+xml</dc:format>
    <dc:creator>
     <cc:Agent>
      <dc:title>Matplotlib v3.3.4, https://matplotlib.org/</dc:title>
     </cc:Agent>
    </dc:creator>
   </cc:Work>
  </rdf:RDF>
 </metadata>
 <defs>
  <style type="text/css">*{stroke-linecap:butt;stroke-linejoin:round;}</style>
 </defs>
 <g id="figure_1">
  <g id="patch_1">
   <path d="M 0 345.6 
L 460.8 345.6 
L 460.8 0 
L 0 0 
z
" style="fill:#ffffff;"/>
  </g>
  <g id="axes_1">
   <g id="patch_2">
    <path d="M 57.590781 345.6 
L 403.209219 345.6 
L 403.209219 0 
L 57.590781 0 
z
" style="fill:#ffffff;"/>
   </g>
   <g id="matplotlib.axis_1">
    <g id="xtick_1">
     <g id="line2d_1">
      <defs>
       <path d="M 0 0 
L 0 3.5 
" id="m588593a1dd" style="stroke:#000000;stroke-width:0.8;"/>
      </defs>
      <g>
       <use style="stroke:#000000;stroke-width:0.8;" x="64.222354" xlink:href="#m588593a1dd" y="172.777399"/>
      </g>
     </g>
     <g id="text_1">
      <!-- −1.0 -->
      <g transform="translate(52.080948 187.375836)scale(0.1 -0.1)">
       <defs>
        <path d="M 10.59375 35.5 
L 73.1875 35.5 
L 73.1875 27.203125 
L 10.59375 27.203125 
z
" id="DejaVuSans-8722"/>
        <path d="M 12.40625 8.296875 
L 28.515625 8.296875 
L 28.515625 63.921875 
L 10.984375 60.40625 
L 10.984375 69.390625 
L 28.421875 72.90625 
L 38.28125 72.90625 
L 38.28125 8.296875 
L 54.390625 8.296875 
L 54.390625 0 
L 12.40625 0 
z
" id="DejaVuSans-49"/>
        <path d="M 10.6875 12.40625 
L 21 12.40625 
L 21 0 
L 10.6875 0 
z
" id="DejaVuSans-46"/>
        <path d="M 31.78125 66.40625 
Q 24.171875 66.40625 20.328125 58.90625 
Q 16.5 51.421875 16.5 36.375 
Q 16.5 21.390625 20.328125 13.890625 
Q 24.171875 6.390625 31.78125 6.390625 
Q 39.453125 6.390625 43.28125 13.890625 
Q 47.125 21.390625 47.125 36.375 
Q 47.125 51.421875 43.28125 58.90625 
Q 39.453125 66.40625 31.78125 66.40625 
z
M 31.78125 74.21875 
Q 44.046875 74.21875 50.515625 64.515625 
Q 56.984375 54.828125 56.984375 36.375 
Q 56.984375 17.96875 50.515625 8.265625 
Q 44.046875 -1.421875 31.78125 -1.421875 
Q 19.53125 -1.421875 13.0625 8.265625 
Q 6.59375 17.96875 6.59375 36.375 
Q 6.59375 54.828125 13.0625 64.515625 
Q 19.53125 74.21875 31.78125 74.21875 
z
" id="DejaVuSans-48"/>
       </defs>
       <use xlink:href="#DejaVuSans-8722"/>
       <use x="83.789062" xlink:href="#DejaVuSans-49"/>
       <use x="147.412109" xlink:href="#DejaVuSans-46"/>
       <use x="179.199219" xlink:href="#DejaVuSans-48"/>
      </g>
     </g>
    </g>
    <g id="xtick_2">
     <g id="line2d_2">
      <g>
       <use style="stroke:#000000;stroke-width:0.8;" x="147.311025" xlink:href="#m588593a1dd" y="172.777399"/>
      </g>
     </g>
     <g id="text_2">
      <!-- −0.5 -->
      <g transform="translate(135.169619 187.375836)scale(0.1 -0.1)">
       <defs>
        <path d="M 10.796875 72.90625 
L 49.515625 72.90625 
L 49.515625 64.59375 
L 19.828125 64.59375 
L 19.828125 46.734375 
Q 21.96875 47.46875 24.109375 47.828125 
Q 26.265625 48.1875 28.421875 48.1875 
Q 40.625 48.1875 47.75 41.5 
Q 54.890625 34.8125 54.890625 23.390625 
Q 54.890625 11.625 47.5625 5.09375 
Q 40.234375 -1.421875 26.90625 -1.421875 
Q 22.3125 -1.421875 17.546875 -0.640625 
Q 12.796875 0.140625 7.71875 1.703125 
L 7.71875 11.625 
Q 12.109375 9.234375 16.796875 8.0625 
Q 21.484375 6.890625 26.703125 6.890625 
Q 35.15625 6.890625 40.078125 11.328125 
Q 45.015625 15.765625 45.015625 23.390625 
Q 45.015625 31 40.078125 35.4375 
Q 35.15625 39.890625 26.703125 39.890625 
Q 22.75 39.890625 18.8125 39.015625 
Q 14.890625 38.140625 10.796875 36.28125 
z
" id="DejaVuSans-53"/>
       </defs>
       <use xlink:href="#DejaVuSans-8722"/>
       <use x="83.789062" xlink:href="#DejaVuSans-48"/>
       <use x="147.412109" xlink:href="#DejaVuSans-46"/>
       <use x="179.199219" xlink:href="#DejaVuSans-53"/>
      </g>
     </g>
    </g>
    <g id="xtick_3">
     <g id="line2d_3">
      <g>
       <use style="stroke:#000000;stroke-width:0.8;" x="230.399697" xlink:href="#m588593a1dd" y="172.777399"/>
      </g>
     </g>
    </g>
    <g id="xtick_4">
     <g id="line2d_4">
      <g>
       <use style="stroke:#000000;stroke-width:0.8;" x="313.488368" xlink:href="#m588593a1dd" y="172.777399"/>
      </g>
     </g>
     <g id="text_3">
      <!-- 0.5 -->
      <g transform="translate(305.536806 187.375836)scale(0.1 -0.1)">
       <use xlink:href="#DejaVuSans-48"/>
       <use x="63.623047" xlink:href="#DejaVuSans-46"/>
       <use x="95.410156" xlink:href="#DejaVuSans-53"/>
      </g>
     </g>
    </g>
    <g id="xtick_5">
     <g id="line2d_5">
      <g>
       <use style="stroke:#000000;stroke-width:0.8;" x="396.577039" xlink:href="#m588593a1dd" y="172.777399"/>
      </g>
     </g>
     <g id="text_4">
      <!-- 1.0 -->
      <g transform="translate(388.625477 187.375836)scale(0.1 -0.1)">
       <use xlink:href="#DejaVuSans-49"/>
       <use x="63.623047" xlink:href="#DejaVuSans-46"/>
       <use x="95.410156" xlink:href="#DejaVuSans-48"/>
      </g>
     </g>
    </g>
    <g id="xtick_6">
     <g id="line2d_6">
      <defs>
       <path d="M 0 0 
L 0 2 
" id="m47050fa0f6" style="stroke:#000000;stroke-width:0.6;"/>
      </defs>
      <g>
       <use style="stroke:#000000;stroke-width:0.6;" x="80.840088" xlink:href="#m47050fa0f6" y="172.777399"/>
      </g>
     </g>
    </g>
    <g id="xtick_7">
     <g id="line2d_7">
      <g>
       <use style="stroke:#000000;stroke-width:0.6;" x="97.457822" xlink:href="#m47050fa0f6" y="172.777399"/>
      </g>
     </g>
    </g>
    <g id="xtick_8">
     <g id="line2d_8">
      <g>
       <use style="stroke:#000000;stroke-width:0.6;" x="114.075557" xlink:href="#m47050fa0f6" y="172.777399"/>
      </g>
     </g>
    </g>
    <g id="xtick_9">
     <g id="line2d_9">
      <g>
       <use style="stroke:#000000;stroke-width:0.6;" x="130.693291" xlink:href="#m47050fa0f6" y="172.777399"/>
      </g>
     </g>
    </g>
    <g id="xtick_10">
     <g id="line2d_10">
      <g>
       <use style="stroke:#000000;stroke-width:0.6;" x="163.92876" xlink:href="#m47050fa0f6" y="172.777399"/>
      </g>
     </g>
    </g>
    <g id="xtick_11">
     <g id="line2d_11">
      <g>
       <use style="stroke:#000000;stroke-width:0.6;" x="180.546494" xlink:href="#m47050fa0f6" y="172.777399"/>
      </g>
     </g>
    </g>
    <g id="xtick_12">
     <g id="line2d_12">
      <g>
       <use style="stroke:#000000;stroke-width:0.6;" x="197.164228" xlink:href="#m47050fa0f6" y="172.777399"/>
      </g>
     </g>
    </g>
    <g id="xtick_13">
     <g id="line2d_13">
      <g>
       <use style="stroke:#000000;stroke-width:0.6;" x="213.781962" xlink:href="#m47050fa0f6" y="172.777399"/>
      </g>
     </g>
    </g>
    <g id="xtick_14">
     <g id="line2d_14">
      <g>
       <use style="stroke:#000000;stroke-width:0.6;" x="247.017431" xlink:href="#m47050fa0f6" y="172.777399"/>
      </g>
     </g>
    </g>
    <g id="xtick_15">
     <g id="line2d_15">
      <g>
       <use style="stroke:#000000;stroke-width:0.6;" x="263.635165" xlink:href="#m47050fa0f6" y="172.777399"/>
      </g>
     </g>
    </g>
    <g id="xtick_16">
     <g id="line2d_16">
      <g>
       <use style="stroke:#000000;stroke-width:0.6;" x="280.252899" xlink:href="#m47050fa0f6" y="172.777399"/>
      </g>
     </g>
    </g>
    <g id="xtick_17">
     <g id="line2d_17">
      <g>
       <use style="stroke:#000000;stroke-width:0.6;" x="296.870634" xlink:href="#m47050fa0f6" y="172.777399"/>
      </g>
     </g>
    </g>
    <g id="xtick_18">
     <g id="line2d_18">
      <g>
       <use style="stroke:#000000;stroke-width:0.6;" x="330.106102" xlink:href="#m47050fa0f6" y="172.777399"/>
      </g>
     </g>
    </g>
    <g id="xtick_19">
     <g id="line2d_19">
      <g>
       <use style="stroke:#000000;stroke-width:0.6;" x="346.723837" xlink:href="#m47050fa0f6" y="172.777399"/>
      </g>
     </g>
    </g>
    <g id="xtick_20">
     <g id="line2d_20">
      <g>
       <use style="stroke:#000000;stroke-width:0.6;" x="363.341571" xlink:href="#m47050fa0f6" y="172.777399"/>
      </g>
     </g>
    </g>
    <g id="xtick_21">
     <g id="line2d_21">
      <g>
       <use style="stroke:#000000;stroke-width:0.6;" x="379.959305" xlink:href="#m47050fa0f6" y="172.777399"/>
      </g>
     </g>
    </g>
   </g>
   <g id="matplotlib.axis_2">
    <g id="ytick_1">
     <g id="line2d_22">
      <defs>
       <path d="M 0 0 
L -3.5 0 
" id="m2135668cc6" style="stroke:#000000;stroke-width:0.8;"/>
      </defs>
      <g>
       <use style="stroke:#000000;stroke-width:0.8;" x="230.399697" xlink:href="#m2135668cc6" y="338.954741"/>
      </g>
     </g>
     <g id="text_5">
      <!-- −1.0 -->
      <g transform="translate(199.116884 342.75396)scale(0.1 -0.1)">
       <use xlink:href="#DejaVuSans-8722"/>
       <use x="83.789062" xlink:href="#DejaVuSans-49"/>
       <use x="147.412109" xlink:href="#DejaVuSans-46"/>
       <use x="179.199219" xlink:href="#DejaVuSans-48"/>
      </g>
     </g>
    </g>
    <g id="ytick_2">
     <g id="line2d_23">
      <g>
       <use style="stroke:#000000;stroke-width:0.8;" x="230.399697" xlink:href="#m2135668cc6" y="255.86607"/>
      </g>
     </g>
     <g id="text_6">
      <!-- −0.5 -->
      <g transform="translate(199.116884 259.665289)scale(0.1 -0.1)">
       <use xlink:href="#DejaVuSans-8722"/>
       <use x="83.789062" xlink:href="#DejaVuSans-48"/>
       <use x="147.412109" xlink:href="#DejaVuSans-46"/>
       <use x="179.199219" xlink:href="#DejaVuSans-53"/>
      </g>
     </g>
    </g>
    <g id="ytick_3">
     <g id="line2d_24">
      <g>
       <use style="stroke:#000000;stroke-width:0.8;" x="230.399697" xlink:href="#m2135668cc6" y="172.777399"/>
      </g>
     </g>
    </g>
    <g id="ytick_4">
     <g id="line2d_25">
      <g>
       <use style="stroke:#000000;stroke-width:0.8;" x="230.399697" xlink:href="#m2135668cc6" y="89.688727"/>
      </g>
     </g>
     <g id="text_7">
      <!-- 0.5 -->
      <g transform="translate(207.496572 93.487946)scale(0.1 -0.1)">
       <use xlink:href="#DejaVuSans-48"/>
       <use x="63.623047" xlink:href="#DejaVuSans-46"/>
       <use x="95.410156" xlink:href="#DejaVuSans-53"/>
      </g>
     </g>
    </g>
    <g id="ytick_5">
     <g id="line2d_26">
      <g>
       <use style="stroke:#000000;stroke-width:0.8;" x="230.399697" xlink:href="#m2135668cc6" y="6.600056"/>
      </g>
     </g>
     <g id="text_8">
      <!-- 1.0 -->
      <g transform="translate(207.496572 10.399275)scale(0.1 -0.1)">
       <use xlink:href="#DejaVuSans-49"/>
       <use x="63.623047" xlink:href="#DejaVuSans-46"/>
       <use x="95.410156" xlink:href="#DejaVuSans-48"/>
      </g>
     </g>
    </g>
    <g id="ytick_6">
     <g id="line2d_27">
      <defs>
       <path d="M 0 0 
L -2 0 
" id="mafabde72ed" style="stroke:#000000;stroke-width:0.6;"/>
      </defs>
      <g>
       <use style="stroke:#000000;stroke-width:0.6;" x="230.399697" xlink:href="#mafabde72ed" y="322.337007"/>
      </g>
     </g>
    </g>
    <g id="ytick_7">
     <g id="line2d_28">
      <g>
       <use style="stroke:#000000;stroke-width:0.6;" x="230.399697" xlink:href="#mafabde72ed" y="305.719273"/>
      </g>
     </g>
    </g>
    <g id="ytick_8">
     <g id="line2d_29">
      <g>
       <use style="stroke:#000000;stroke-width:0.6;" x="230.399697" xlink:href="#mafabde72ed" y="289.101539"/>
      </g>
     </g>
    </g>
    <g id="ytick_9">
     <g id="line2d_30">
      <g>
       <use style="stroke:#000000;stroke-width:0.6;" x="230.399697" xlink:href="#mafabde72ed" y="272.483804"/>
      </g>
     </g>
    </g>
    <g id="ytick_10">
     <g id="line2d_31">
      <g>
       <use style="stroke:#000000;stroke-width:0.6;" x="230.399697" xlink:href="#mafabde72ed" y="239.248336"/>
      </g>
     </g>
    </g>
    <g id="ytick_11">
     <g id="line2d_32">
      <g>
       <use style="stroke:#000000;stroke-width:0.6;" x="230.399697" xlink:href="#mafabde72ed" y="222.630602"/>
      </g>
     </g>
    </g>
    <g id="ytick_12">
     <g id="line2d_33">
      <g>
       <use style="stroke:#000000;stroke-width:0.6;" x="230.399697" xlink:href="#mafabde72ed" y="206.012867"/>
      </g>
     </g>
    </g>
    <g id="ytick_13">
     <g id="line2d_34">
      <g>
       <use style="stroke:#000000;stroke-width:0.6;" x="230.399697" xlink:href="#mafabde72ed" y="189.395133"/>
      </g>
     </g>
    </g>
    <g id="ytick_14">
     <g id="line2d_35">
      <g>
       <use style="stroke:#000000;stroke-width:0.6;" x="230.399697" xlink:href="#mafabde72ed" y="156.159664"/>
      </g>
     </g>
    </g>
    <g id="ytick_15">
     <g id="line2d_36">
      <g>
       <use style="stroke:#000000;stroke-width:0.6;" x="230.399697" xlink:href="#mafabde72ed" y="139.54193"/>
      </g>
     </g>
    </g>
    <g id="ytick_16">
     <g id="line2d_37">
      <g>
       <use style="stroke:#000000;stroke-width:0.6;" x="230.399697" xlink:href="#mafabde72ed" y="122.924196"/>
      </g>
     </g>
    </g>
    <g id="ytick_17">
     <g id="line2d_38">
      <g>
       <use style="stroke:#000000;stroke-width:0.6;" x="230.399697" xlink:href="#mafabde72ed" y="106.306462"/>
      </g>
     </g>
    </g>
    <g id="ytick_18">
     <g id="line2d_39">
      <g>
       <use style="stroke:#000000;stroke-width:0.6;" x="230.399697" xlink:href="#mafabde72ed" y="73.070993"/>
      </g>
     </g>
    </g>
    <g id="ytick_19">
     <g id="line2d_40">
      <g>
       <use style="stroke:#000000;stroke-width:0.6;" x="230.399697" xlink:href="#mafabde72ed" y="56.453259"/>
      </g>
     </g>
    </g>
    <g id="ytick_20">
     <g id="line2d_41">
      <g>
       <use style="stroke:#000000;stroke-width:0.6;" x="230.399697" xlink:href="#mafabde72ed" y="39.835525"/>
      </g>
     </g>
    </g>
    <g id="ytick_21">
     <g id="line2d_42">
      <g>
       <use style="stroke:#000000;stroke-width:0.6;" x="230.399697" xlink:href="#mafabde72ed" y="23.21779"/>
      </g>
     </g>
    </g>
   </g>
   <g id="line2d_43">
    <path clip-path="url(#p1447f0ca1a)" d="M 230.399697 172.777399 
L 249.485654 134.858086 
L 261.147724 112.34322 
L 272.446034 91.421031 
L 281.638101 75.293505 
L 291.109523 59.750581 
L 298.423481 48.650333 
L 304.727375 39.820886 
L 311.271534 31.47949 
L 315.948489 26.094107 
L 318.123075 23.768245 
L 323.976566 18.1175 
L 329.36614 13.773883 
L 333.895885 10.83141 
L 339.259415 8.277706 
L 344.660188 6.846698 
L 349.465527 6.659479 
L 350.881854 6.818971 
L 354.838786 7.831232 
L 359.348272 10.103552 
L 363.094728 13.019092 
L 365.8512 15.838598 
L 368.350801 18.948337 
L 370.168186 21.572974 
L 372.870775 26.104969 
L 377.183051 35.147289 
L 379.30581 40.573232 
L 381.059978 45.638025 
L 383.062086 52.167282 
L 386.53146 65.85388 
L 388.903226 77.556761 
L 390.710958 88.340891 
L 391.768858 95.703802 
L 392.857835 104.420569 
L 394.416377 120.051472 
L 395.489745 135.068658 
L 396.057915 146.609541 
L 396.353103 155.55231 
L 396.562711 168.41337 
L 396.530851 180.61071 
L 396.140123 196.798943 
L 395.441645 211.297174 
L 394.861164 219.923107 
L 394.027701 229.880331 
L 393.099534 238.998448 
L 392.273891 245.975533 
L 390.602465 257.919339 
L 388.651941 269.353712 
L 386.683463 279.017234 
L 385.091343 285.800595 
L 381.891783 297.308151 
L 380.346996 302.043858 
L 378.583294 306.909706 
L 375.867663 313.427278 
L 372.266706 320.532227 
L 368.081555 326.968434 
L 364.770454 330.894363 
L 360.919504 334.349718 
L 357.890601 336.325406 
L 355.486825 337.47367 
L 350.726842 338.7583 
L 344.821684 338.731746 
L 340.600068 337.744541 
L 336.077437 335.889692 
L 331.404114 333.188922 
L 326.150006 329.2934 
L 319.186594 322.880745 
L 312.695461 315.768385 
L 307.820829 309.78806 
L 300.132009 299.369042 
L 296.244695 293.688551 
L 288.420224 281.5157 
L 282.451422 271.642083 
L 274.745952 258.253477 
L 265.950091 242.232126 
L 258.469692 228.110683 
L 249.825739 211.363104 
L 238.85076 189.657654 
L 211.089536 134.418708 
L 200.637475 114.215405 
L 191.031026 96.281537 
L 188.252622 91.239493 
L 181.478992 79.271752 
L 171.528469 62.671231 
L 168.587033 58.022741 
L 159.857644 45.035817 
L 154.044777 37.142217 
L 149.688119 31.672882 
L 142.666129 23.757625 
L 138.955189 20.069013 
L 134.964134 16.521652 
L 131.678021 13.951947 
L 124.745043 9.676553 
L 121.585403 8.294789 
L 119.848053 7.699681 
L 116.164225 6.850465 
L 111.518847 6.646154 
L 107.709332 7.277491 
L 103.179845 9.081975 
L 101.321013 10.188382 
L 97.163896 13.524805 
L 92.800605 18.476442 
L 90.946699 21.094086 
L 86.519449 28.796563 
L 81.704398 40.001578 
L 79.058225 47.763761 
L 77.364466 53.482414 
L 75.698873 59.791048 
L 73.618529 68.833021 
L 71.08753 82.141245 
L 70.018445 88.80048 
L 68.561506 99.294069 
L 67.592017 107.537336 
L 66.800944 115.360611 
L 66.114838 123.331221 
L 65.334356 134.649756 
L 64.643809 149.181943 
L 64.383957 158.137844 
L 64.250949 166.613143 
L 64.237289 177.232835 
L 64.36296 186.434975 
L 64.838865 201.273395 
L 65.439403 212.633601 
L 66.590656 227.891482 
L 68.102526 242.511543 
L 68.783574 247.988777 
L 69.918758 256.093488 
L 71.882816 267.925135 
L 73.658239 276.908401 
L 76.015501 287.020923 
L 77.703774 293.270588 
L 79.974162 300.627884 
L 81.937454 306.176435 
L 84.306373 312.022351 
L 86.639494 316.996922 
L 88.616468 320.679087 
L 91.674997 325.528457 
L 95.428976 330.252236 
L 99.14398 333.774576 
L 101.865041 335.713621 
L 106.133691 337.786158 
L 108.180816 338.397298 
L 113.087587 338.953846 
L 116.363652 338.673313 
L 119.239989 338.034635 
L 122.38263 336.947132 
L 126.153379 335.143509 
L 134.142494 329.706348 
L 136.242946 327.945882 
L 141.839274 322.650169 
L 149.268961 314.386526 
L 155.465403 306.544028 
L 161.557843 298.090945 
L 167.562903 289.11999 
L 176.417909 274.885835 
L 182.473704 264.556557 
L 193.045065 245.574684 
L 198.025724 236.284763 
L 208.8603 215.492786 
L 219.544675 194.441075 
L 230.399697 172.777399 
L 230.399697 172.777399 
" style="fill:none;stroke:#0066ff;stroke-linecap:square;"/>
   </g>
   <g id="patch_3">
    <path d="M 230.399697 345.6 
L 230.399697 0 
" style="fill:none;stroke:#000000;stroke-linecap:square;stroke-linejoin:miter;stroke-width:0.8;"/>
   </g>
   <g id="patch_4">
    <path d="M 57.590781 172.777399 
L 403.209219 172.777399 
" style="fill:none;stroke:#000000;stroke-linecap:square;stroke-linejoin:miter;stroke-width:0.8;"/>
   </g>
  </g>
 </g>
 <defs>
  <clipPath id="p1447f0ca1a">
   <rect height="345.6" width="345.618438" x="57.590781" y="0"/>
  </clipPath>
 </defs>
</svg>
