<?xml version="1.0" encoding="utf-8" standalone="no"?>
<!DOCTYPE svg PUBLIC "-//W3C//DTD SVG 1.1//EN"
  "http://www.w3.org/Graphics/SVG/1.1/DTD/svg11.dtd">
<!-- Created with matplotlib (http://matplotlib.org/) -->
<svg height="345.6pt" version="1.1" viewBox="0 0 460.8 345.6" width="460.8pt" xmlns="http://www.w3.org/2000/svg" xmlns:xlink="http://www.w3.org/1999/xlink">
 <defs>
  <style type="text/css">
*{stroke-linecap:butt;stroke-linejoin:round;}
  </style>
 </defs>
 <g id="figure_1">
  <g id="patch_1">
   <path d="M 0 345.6 
L 460.8 345.6 
L 460.8 0 
L 0 0 
z
" style="fill:#ffffff;"/>
  </g>
  <g id="axes_1">
   <g id="patch_2">
    <path d="M 147.411702 334.462697 
L 313.388298 334.462697 
L 313.388298 2.52 
L 147.411702 2.52 
z
" style="fill:#ffffff;"/>
   </g>
   <g id="patch_3">
    <path clip-path="url(#pa4b1605533)" d="M 150.60356 8.903513 
L 151.229553 13.891814 
L 151.819392 18.556067 
L 153.220721 29.497448 
L 153.758623 33.645029 
L 154.660428 40.53345 
L 155.186533 44.514433 
L 156.15931 51.802257 
L 156.6809 55.67082 
L 158.008614 65.395207 
L 158.893652 71.779205 
L 159.082293 73.12976 
L 160.414223 82.564087 
L 160.760917 84.990614 
L 161.901981 92.891882 
L 162.403149 96.32095 
L 163.251782 102.07001 
L 164.622051 111.200473 
L 165.010021 113.751422 
L 166.12286 120.984757 
L 166.998432 126.588615 
L 167.555181 130.111956 
L 168.228722 134.332867 
L 169.369562 141.37847 
L 169.698971 143.388554 
L 171.043817 151.482075 
L 171.832995 156.147064 
L 172.648169 160.900163 
L 173.362505 165.010525 
L 173.506262 165.831536 
L 174.421467 171.009776 
L 175.680664 177.997079 
L 176.490575 182.407281 
L 177.310002 186.802374 
L 177.523188 187.934789 
L 178.711341 194.162623 
L 179.443559 197.930139 
L 180.076799 201.145036 
L 181.141822 206.461384 
L 182.177304 211.521247 
L 183.030458 215.609393 
L 183.41793 217.441988 
L 184.571006 222.806548 
L 185.378729 226.484997 
L 186.239852 230.334604 
L 186.400847 231.046074 
L 187.692676 236.66086 
L 188.572563 240.389395 
L 189.40533 243.846769 
L 189.936785 246.016853 
L 190.528678 248.400389 
L 191.358989 251.684836 
L 192.21524 254.999503 
L 193.443794 259.627013 
L 193.590007 260.167669 
L 194.867476 264.800222 
L 195.742851 267.880171 
L 196.538089 270.61157 
L 197.275817 273.08875 
L 198.305717 276.455741 
L 198.322926 276.5111 
L 199.258888 279.477138 
L 200.324766 282.747916 
L 200.787834 284.133408 
L 202.016087 287.704189 
L 202.74736 289.758316 
L 203.832348 292.707237 
L 204.600655 294.724067 
L 205.132334 296.085091 
L 205.819303 297.801674 
L 206.975292 300.583438 
L 207.609168 302.05192 
L 208.010576 302.961019 
L 209.020497 305.176816 
L 210.129514 307.492235 
L 211.0202 309.262536 
L 211.418575 310.028592 
L 212.083019 311.270889 
L 213.395194 313.59422 
L 213.57303 313.895812 
L 214.771772 315.846045 
L 215.630892 317.155123 
L 216.137407 317.892249 
L 217.27548 319.454651 
L 217.791917 320.120809 
L 218.585147 321.091931 
L 219.630463 322.275333 
L 220.417053 323.0936 
L 221.221052 323.865872 
L 221.90263 324.469798 
L 222.470891 324.937716 
L 223.878564 325.957392 
L 224.484264 326.335013 
L 224.841351 326.540403 
L 226.116286 327.169423 
L 226.625554 327.375134 
L 227.244747 327.590222 
L 228.391515 327.887058 
L 229.38313 328.03744 
L 229.70802 328.06527 
L 230.848636 328.079184 
L 231.250835 328.052985 
L 232.643544 327.836957 
L 233.098234 327.724321 
L 234.102048 327.402267 
L 235.12091 326.972081 
L 235.542682 326.763541 
L 236.755399 326.064567 
L 237.239868 325.744116 
L 237.953831 325.228977 
L 238.628732 324.695035 
L 239.625308 323.823102 
L 240.498673 322.977105 
L 241.002255 322.454545 
L 242.389637 320.883368 
L 242.855274 320.312794 
L 243.294748 319.754338 
L 244.610535 317.966551 
L 245.075636 317.293088 
L 246.008375 315.877131 
L 247.161851 314.005454 
L 247.495758 313.438748 
L 248.36291 311.91481 
L 249.177842 310.413932 
L 249.912108 309.004595 
L 251.246697 306.304604 
L 251.784679 305.16572 
L 252.320496 304.002578 
L 253.615928 301.071561 
L 253.717992 300.833483 
L 254.679787 298.538678 
L 255.499309 296.510154 
L 256.360186 294.306752 
L 257.283335 291.861406 
L 258.302735 289.061837 
L 258.597353 288.233325 
L 259.817182 284.710367 
L 260.093269 283.892302 
L 261.195725 280.549475 
L 262.250468 277.237266 
L 262.971373 274.909239 
L 264.07254 271.252655 
L 264.209677 270.788758 
L 265.416879 266.623784 
L 265.89503 264.933718 
L 267.050263 260.755853 
L 267.681754 258.415528 
L 268.095984 256.858666 
L 268.995173 253.419908 
L 269.910732 249.835257 
L 271.143486 244.875956 
L 271.767211 242.308695 
L 272.201064 240.499953 
L 273.677636 234.20269 
L 274.40275 231.030205 
L 275.026146 228.260616 
L 275.926576 224.191447 
L 276.794038 220.194394 
L 277.638759 216.229628 
L 278.183573 213.634551 
L 279.021494 209.585255 
L 279.518321 207.151075 
L 280.264713 203.447642 
L 281.228141 198.584754 
L 281.970771 194.77283 
L 282.76762 190.621104 
L 283.904208 184.589121 
L 284.18123 183.099312 
L 285.618194 175.247922 
L 285.769615 174.408519 
L 287.225664 166.219589 
L 288.054327 161.464227 
L 288.799867 157.127036 
L 289.739852 151.579244 
L 290.138007 149.202624 
L 290.724818 145.670926 
L 291.664764 139.941966 
L 292.940546 132.024393 
L 293.641994 127.601643 
L 293.917599 125.850408 
L 295.26916 117.152147 
L 295.537911 115.400715 
L 296.8681 106.625345 
L 297.256564 104.029148 
L 298.491796 95.673259 
L 299.109291 91.438779 
L 299.611876 87.964087 
L 300.907074 78.89282 
L 301.269988 76.320887 
L 302.121752 70.232669 
L 302.634571 66.532079 
L 303.831439 57.792693 
L 304.338882 54.044052 
L 305.597682 44.633451 
L 306.077755 41.00265 
L 306.780306 35.647601 
L 307.641378 29.016763 
L 308.529257 22.101645 
L 309.720545 12.699324 
L 310.19644 8.903513 
z
" style="fill:#808080;opacity:0.5;"/>
   </g>
   <g id="matplotlib.axis_1">
    <g id="xtick_1">
     <g id="line2d_1">
      <defs>
       <path d="M 0 0 
L 0 3.5 
" id="mf6605dd539" style="stroke:#000000;stroke-width:0.8;"/>
      </defs>
      <g>
       <use style="stroke:#000000;stroke-width:0.8;" x="150.60356" xlink:href="#mf6605dd539" y="328.089273"/>
      </g>
     </g>
     <g id="text_1">
      <!-- -4 -->
      <defs>
       <path d="M 4.890625 31.390625 
L 31.203125 31.390625 
L 31.203125 23.390625 
L 4.890625 23.390625 
z
" id="DejaVuSans-2d"/>
       <path d="M 37.796875 64.3125 
L 12.890625 25.390625 
L 37.796875 25.390625 
z
M 35.203125 72.90625 
L 47.609375 72.90625 
L 47.609375 25.390625 
L 58.015625 25.390625 
L 58.015625 17.1875 
L 47.609375 17.1875 
L 47.609375 0 
L 37.796875 0 
L 37.796875 17.1875 
L 4.890625 17.1875 
L 4.890625 26.703125 
z
" id="DejaVuSans-34"/>
      </defs>
      <g transform="translate(145.618404 342.687711)scale(0.1 -0.1)">
       <use xlink:href="#DejaVuSans-2d"/>
       <use x="36.083984" xlink:href="#DejaVuSans-34"/>
      </g>
     </g>
    </g>
    <g id="xtick_2">
     <g id="line2d_2">
      <g>
       <use style="stroke:#000000;stroke-width:0.8;" x="170.55267" xlink:href="#mf6605dd539" y="328.089273"/>
      </g>
     </g>
     <g id="text_2">
      <!-- -3 -->
      <defs>
       <path d="M 40.578125 39.3125 
Q 47.65625 37.796875 51.625 33 
Q 55.609375 28.21875 55.609375 21.1875 
Q 55.609375 10.40625 48.1875 4.484375 
Q 40.765625 -1.421875 27.09375 -1.421875 
Q 22.515625 -1.421875 17.65625 -0.515625 
Q 12.796875 0.390625 7.625 2.203125 
L 7.625 11.71875 
Q 11.71875 9.328125 16.59375 8.109375 
Q 21.484375 6.890625 26.8125 6.890625 
Q 36.078125 6.890625 40.9375 10.546875 
Q 45.796875 14.203125 45.796875 21.1875 
Q 45.796875 27.640625 41.28125 31.265625 
Q 36.765625 34.90625 28.71875 34.90625 
L 20.21875 34.90625 
L 20.21875 43.015625 
L 29.109375 43.015625 
Q 36.375 43.015625 40.234375 45.921875 
Q 44.09375 48.828125 44.09375 54.296875 
Q 44.09375 59.90625 40.109375 62.90625 
Q 36.140625 65.921875 28.71875 65.921875 
Q 24.65625 65.921875 20.015625 65.03125 
Q 15.375 64.15625 9.8125 62.3125 
L 9.8125 71.09375 
Q 15.4375 72.65625 20.34375 73.4375 
Q 25.25 74.21875 29.59375 74.21875 
Q 40.828125 74.21875 47.359375 69.109375 
Q 53.90625 64.015625 53.90625 55.328125 
Q 53.90625 49.265625 50.4375 45.09375 
Q 46.96875 40.921875 40.578125 39.3125 
z
" id="DejaVuSans-33"/>
      </defs>
      <g transform="translate(165.567514 342.687711)scale(0.1 -0.1)">
       <use xlink:href="#DejaVuSans-2d"/>
       <use x="36.083984" xlink:href="#DejaVuSans-33"/>
      </g>
     </g>
    </g>
    <g id="xtick_3">
     <g id="line2d_3">
      <g>
       <use style="stroke:#000000;stroke-width:0.8;" x="190.50178" xlink:href="#mf6605dd539" y="328.089273"/>
      </g>
     </g>
     <g id="text_3">
      <!-- -2 -->
      <defs>
       <path d="M 19.1875 8.296875 
L 53.609375 8.296875 
L 53.609375 0 
L 7.328125 0 
L 7.328125 8.296875 
Q 12.9375 14.109375 22.625 23.890625 
Q 32.328125 33.6875 34.8125 36.53125 
Q 39.546875 41.84375 41.421875 45.53125 
Q 43.3125 49.21875 43.3125 52.78125 
Q 43.3125 58.59375 39.234375 62.25 
Q 35.15625 65.921875 28.609375 65.921875 
Q 23.96875 65.921875 18.8125 64.3125 
Q 13.671875 62.703125 7.8125 59.421875 
L 7.8125 69.390625 
Q 13.765625 71.78125 18.9375 73 
Q 24.125 74.21875 28.421875 74.21875 
Q 39.75 74.21875 46.484375 68.546875 
Q 53.21875 62.890625 53.21875 53.421875 
Q 53.21875 48.921875 51.53125 44.890625 
Q 49.859375 40.875 45.40625 35.40625 
Q 44.1875 33.984375 37.640625 27.21875 
Q 31.109375 20.453125 19.1875 8.296875 
z
" id="DejaVuSans-32"/>
      </defs>
      <g transform="translate(185.516624 342.687711)scale(0.1 -0.1)">
       <use xlink:href="#DejaVuSans-2d"/>
       <use x="36.083984" xlink:href="#DejaVuSans-32"/>
      </g>
     </g>
    </g>
    <g id="xtick_4">
     <g id="line2d_4">
      <g>
       <use style="stroke:#000000;stroke-width:0.8;" x="210.45089" xlink:href="#mf6605dd539" y="328.089273"/>
      </g>
     </g>
     <g id="text_4">
      <!-- -1 -->
      <defs>
       <path d="M 12.40625 8.296875 
L 28.515625 8.296875 
L 28.515625 63.921875 
L 10.984375 60.40625 
L 10.984375 69.390625 
L 28.421875 72.90625 
L 38.28125 72.90625 
L 38.28125 8.296875 
L 54.390625 8.296875 
L 54.390625 0 
L 12.40625 0 
z
" id="DejaVuSans-31"/>
      </defs>
      <g transform="translate(205.465734 342.687711)scale(0.1 -0.1)">
       <use xlink:href="#DejaVuSans-2d"/>
       <use x="36.083984" xlink:href="#DejaVuSans-31"/>
      </g>
     </g>
    </g>
    <g id="xtick_5">
     <g id="line2d_5">
      <g>
       <use style="stroke:#000000;stroke-width:0.8;" x="230.4" xlink:href="#mf6605dd539" y="328.089273"/>
      </g>
     </g>
    </g>
    <g id="xtick_6">
     <g id="line2d_6">
      <g>
       <use style="stroke:#000000;stroke-width:0.8;" x="250.34911" xlink:href="#mf6605dd539" y="328.089273"/>
      </g>
     </g>
     <g id="text_5">
      <!-- 1 -->
      <g transform="translate(247.16786 342.687711)scale(0.1 -0.1)">
       <use xlink:href="#DejaVuSans-31"/>
      </g>
     </g>
    </g>
    <g id="xtick_7">
     <g id="line2d_7">
      <g>
       <use style="stroke:#000000;stroke-width:0.8;" x="270.29822" xlink:href="#mf6605dd539" y="328.089273"/>
      </g>
     </g>
     <g id="text_6">
      <!-- 2 -->
      <g transform="translate(267.11697 342.687711)scale(0.1 -0.1)">
       <use xlink:href="#DejaVuSans-32"/>
      </g>
     </g>
    </g>
    <g id="xtick_8">
     <g id="line2d_8">
      <g>
       <use style="stroke:#000000;stroke-width:0.8;" x="290.24733" xlink:href="#mf6605dd539" y="328.089273"/>
      </g>
     </g>
     <g id="text_7">
      <!-- 3 -->
      <g transform="translate(287.06608 342.687711)scale(0.1 -0.1)">
       <use xlink:href="#DejaVuSans-33"/>
      </g>
     </g>
    </g>
    <g id="xtick_9">
     <g id="line2d_9">
      <g>
       <use style="stroke:#000000;stroke-width:0.8;" x="310.19644" xlink:href="#mf6605dd539" y="328.089273"/>
      </g>
     </g>
     <g id="text_8">
      <!-- 4 -->
      <g transform="translate(307.01519 342.687711)scale(0.1 -0.1)">
       <use xlink:href="#DejaVuSans-34"/>
      </g>
     </g>
    </g>
    <g id="xtick_10">
     <g id="line2d_10">
      <defs>
       <path d="M 0 0 
L 0 2 
" id="m7a26850ab7" style="stroke:#000000;stroke-width:0.6;"/>
      </defs>
      <g>
       <use style="stroke:#000000;stroke-width:0.6;" x="154.593382" xlink:href="#m7a26850ab7" y="328.089273"/>
      </g>
     </g>
    </g>
    <g id="xtick_11">
     <g id="line2d_11">
      <g>
       <use style="stroke:#000000;stroke-width:0.6;" x="158.583204" xlink:href="#m7a26850ab7" y="328.089273"/>
      </g>
     </g>
    </g>
    <g id="xtick_12">
     <g id="line2d_12">
      <g>
       <use style="stroke:#000000;stroke-width:0.6;" x="162.573026" xlink:href="#m7a26850ab7" y="328.089273"/>
      </g>
     </g>
    </g>
    <g id="xtick_13">
     <g id="line2d_13">
      <g>
       <use style="stroke:#000000;stroke-width:0.6;" x="166.562848" xlink:href="#m7a26850ab7" y="328.089273"/>
      </g>
     </g>
    </g>
    <g id="xtick_14">
     <g id="line2d_14">
      <g>
       <use style="stroke:#000000;stroke-width:0.6;" x="174.542492" xlink:href="#m7a26850ab7" y="328.089273"/>
      </g>
     </g>
    </g>
    <g id="xtick_15">
     <g id="line2d_15">
      <g>
       <use style="stroke:#000000;stroke-width:0.6;" x="178.532314" xlink:href="#m7a26850ab7" y="328.089273"/>
      </g>
     </g>
    </g>
    <g id="xtick_16">
     <g id="line2d_16">
      <g>
       <use style="stroke:#000000;stroke-width:0.6;" x="182.522136" xlink:href="#m7a26850ab7" y="328.089273"/>
      </g>
     </g>
    </g>
    <g id="xtick_17">
     <g id="line2d_17">
      <g>
       <use style="stroke:#000000;stroke-width:0.6;" x="186.511958" xlink:href="#m7a26850ab7" y="328.089273"/>
      </g>
     </g>
    </g>
    <g id="xtick_18">
     <g id="line2d_18">
      <g>
       <use style="stroke:#000000;stroke-width:0.6;" x="194.491602" xlink:href="#m7a26850ab7" y="328.089273"/>
      </g>
     </g>
    </g>
    <g id="xtick_19">
     <g id="line2d_19">
      <g>
       <use style="stroke:#000000;stroke-width:0.6;" x="198.481424" xlink:href="#m7a26850ab7" y="328.089273"/>
      </g>
     </g>
    </g>
    <g id="xtick_20">
     <g id="line2d_20">
      <g>
       <use style="stroke:#000000;stroke-width:0.6;" x="202.471246" xlink:href="#m7a26850ab7" y="328.089273"/>
      </g>
     </g>
    </g>
    <g id="xtick_21">
     <g id="line2d_21">
      <g>
       <use style="stroke:#000000;stroke-width:0.6;" x="206.461068" xlink:href="#m7a26850ab7" y="328.089273"/>
      </g>
     </g>
    </g>
    <g id="xtick_22">
     <g id="line2d_22">
      <g>
       <use style="stroke:#000000;stroke-width:0.6;" x="214.440712" xlink:href="#m7a26850ab7" y="328.089273"/>
      </g>
     </g>
    </g>
    <g id="xtick_23">
     <g id="line2d_23">
      <g>
       <use style="stroke:#000000;stroke-width:0.6;" x="218.430534" xlink:href="#m7a26850ab7" y="328.089273"/>
      </g>
     </g>
    </g>
    <g id="xtick_24">
     <g id="line2d_24">
      <g>
       <use style="stroke:#000000;stroke-width:0.6;" x="222.420356" xlink:href="#m7a26850ab7" y="328.089273"/>
      </g>
     </g>
    </g>
    <g id="xtick_25">
     <g id="line2d_25">
      <g>
       <use style="stroke:#000000;stroke-width:0.6;" x="226.410178" xlink:href="#m7a26850ab7" y="328.089273"/>
      </g>
     </g>
    </g>
    <g id="xtick_26">
     <g id="line2d_26">
      <g>
       <use style="stroke:#000000;stroke-width:0.6;" x="234.389822" xlink:href="#m7a26850ab7" y="328.089273"/>
      </g>
     </g>
    </g>
    <g id="xtick_27">
     <g id="line2d_27">
      <g>
       <use style="stroke:#000000;stroke-width:0.6;" x="238.379644" xlink:href="#m7a26850ab7" y="328.089273"/>
      </g>
     </g>
    </g>
    <g id="xtick_28">
     <g id="line2d_28">
      <g>
       <use style="stroke:#000000;stroke-width:0.6;" x="242.369466" xlink:href="#m7a26850ab7" y="328.089273"/>
      </g>
     </g>
    </g>
    <g id="xtick_29">
     <g id="line2d_29">
      <g>
       <use style="stroke:#000000;stroke-width:0.6;" x="246.359288" xlink:href="#m7a26850ab7" y="328.089273"/>
      </g>
     </g>
    </g>
    <g id="xtick_30">
     <g id="line2d_30">
      <g>
       <use style="stroke:#000000;stroke-width:0.6;" x="254.338932" xlink:href="#m7a26850ab7" y="328.089273"/>
      </g>
     </g>
    </g>
    <g id="xtick_31">
     <g id="line2d_31">
      <g>
       <use style="stroke:#000000;stroke-width:0.6;" x="258.328754" xlink:href="#m7a26850ab7" y="328.089273"/>
      </g>
     </g>
    </g>
    <g id="xtick_32">
     <g id="line2d_32">
      <g>
       <use style="stroke:#000000;stroke-width:0.6;" x="262.318576" xlink:href="#m7a26850ab7" y="328.089273"/>
      </g>
     </g>
    </g>
    <g id="xtick_33">
     <g id="line2d_33">
      <g>
       <use style="stroke:#000000;stroke-width:0.6;" x="266.308398" xlink:href="#m7a26850ab7" y="328.089273"/>
      </g>
     </g>
    </g>
    <g id="xtick_34">
     <g id="line2d_34">
      <g>
       <use style="stroke:#000000;stroke-width:0.6;" x="274.288042" xlink:href="#m7a26850ab7" y="328.089273"/>
      </g>
     </g>
    </g>
    <g id="xtick_35">
     <g id="line2d_35">
      <g>
       <use style="stroke:#000000;stroke-width:0.6;" x="278.277864" xlink:href="#m7a26850ab7" y="328.089273"/>
      </g>
     </g>
    </g>
    <g id="xtick_36">
     <g id="line2d_36">
      <g>
       <use style="stroke:#000000;stroke-width:0.6;" x="282.267686" xlink:href="#m7a26850ab7" y="328.089273"/>
      </g>
     </g>
    </g>
    <g id="xtick_37">
     <g id="line2d_37">
      <g>
       <use style="stroke:#000000;stroke-width:0.6;" x="286.257508" xlink:href="#m7a26850ab7" y="328.089273"/>
      </g>
     </g>
    </g>
    <g id="xtick_38">
     <g id="line2d_38">
      <g>
       <use style="stroke:#000000;stroke-width:0.6;" x="294.237152" xlink:href="#m7a26850ab7" y="328.089273"/>
      </g>
     </g>
    </g>
    <g id="xtick_39">
     <g id="line2d_39">
      <g>
       <use style="stroke:#000000;stroke-width:0.6;" x="298.226974" xlink:href="#m7a26850ab7" y="328.089273"/>
      </g>
     </g>
    </g>
    <g id="xtick_40">
     <g id="line2d_40">
      <g>
       <use style="stroke:#000000;stroke-width:0.6;" x="302.216796" xlink:href="#m7a26850ab7" y="328.089273"/>
      </g>
     </g>
    </g>
    <g id="xtick_41">
     <g id="line2d_41">
      <g>
       <use style="stroke:#000000;stroke-width:0.6;" x="306.206618" xlink:href="#m7a26850ab7" y="328.089273"/>
      </g>
     </g>
    </g>
   </g>
   <g id="matplotlib.axis_2">
    <g id="ytick_1">
     <g id="line2d_42">
      <defs>
       <path d="M 0 0 
L -3.5 0 
" id="m950842f2c7" style="stroke:#000000;stroke-width:0.8;"/>
      </defs>
      <g>
       <use style="stroke:#000000;stroke-width:0.8;" x="230.4" xlink:href="#m950842f2c7" y="328.089273"/>
      </g>
     </g>
    </g>
    <g id="ytick_2">
     <g id="line2d_43">
      <g>
       <use style="stroke:#000000;stroke-width:0.8;" x="230.4" xlink:href="#m950842f2c7" y="288.191053"/>
      </g>
     </g>
     <g id="text_9">
      <!-- 2 -->
      <g transform="translate(217.0375 291.990272)scale(0.1 -0.1)">
       <use xlink:href="#DejaVuSans-32"/>
      </g>
     </g>
    </g>
    <g id="ytick_3">
     <g id="line2d_44">
      <g>
       <use style="stroke:#000000;stroke-width:0.8;" x="230.4" xlink:href="#m950842f2c7" y="248.292833"/>
      </g>
     </g>
     <g id="text_10">
      <!-- 4 -->
      <g transform="translate(217.0375 252.092052)scale(0.1 -0.1)">
       <use xlink:href="#DejaVuSans-34"/>
      </g>
     </g>
    </g>
    <g id="ytick_4">
     <g id="line2d_45">
      <g>
       <use style="stroke:#000000;stroke-width:0.8;" x="230.4" xlink:href="#m950842f2c7" y="208.394613"/>
      </g>
     </g>
     <g id="text_11">
      <!-- 6 -->
      <defs>
       <path d="M 33.015625 40.375 
Q 26.375 40.375 22.484375 35.828125 
Q 18.609375 31.296875 18.609375 23.390625 
Q 18.609375 15.53125 22.484375 10.953125 
Q 26.375 6.390625 33.015625 6.390625 
Q 39.65625 6.390625 43.53125 10.953125 
Q 47.40625 15.53125 47.40625 23.390625 
Q 47.40625 31.296875 43.53125 35.828125 
Q 39.65625 40.375 33.015625 40.375 
z
M 52.59375 71.296875 
L 52.59375 62.3125 
Q 48.875 64.0625 45.09375 64.984375 
Q 41.3125 65.921875 37.59375 65.921875 
Q 27.828125 65.921875 22.671875 59.328125 
Q 17.53125 52.734375 16.796875 39.40625 
Q 19.671875 43.65625 24.015625 45.921875 
Q 28.375 48.1875 33.59375 48.1875 
Q 44.578125 48.1875 50.953125 41.515625 
Q 57.328125 34.859375 57.328125 23.390625 
Q 57.328125 12.15625 50.6875 5.359375 
Q 44.046875 -1.421875 33.015625 -1.421875 
Q 20.359375 -1.421875 13.671875 8.265625 
Q 6.984375 17.96875 6.984375 36.375 
Q 6.984375 53.65625 15.1875 63.9375 
Q 23.390625 74.21875 37.203125 74.21875 
Q 40.921875 74.21875 44.703125 73.484375 
Q 48.484375 72.75 52.59375 71.296875 
z
" id="DejaVuSans-36"/>
      </defs>
      <g transform="translate(217.0375 212.193832)scale(0.1 -0.1)">
       <use xlink:href="#DejaVuSans-36"/>
      </g>
     </g>
    </g>
    <g id="ytick_5">
     <g id="line2d_46">
      <g>
       <use style="stroke:#000000;stroke-width:0.8;" x="230.4" xlink:href="#m950842f2c7" y="168.496393"/>
      </g>
     </g>
     <g id="text_12">
      <!-- 8 -->
      <defs>
       <path d="M 31.78125 34.625 
Q 24.75 34.625 20.71875 30.859375 
Q 16.703125 27.09375 16.703125 20.515625 
Q 16.703125 13.921875 20.71875 10.15625 
Q 24.75 6.390625 31.78125 6.390625 
Q 38.8125 6.390625 42.859375 10.171875 
Q 46.921875 13.96875 46.921875 20.515625 
Q 46.921875 27.09375 42.890625 30.859375 
Q 38.875 34.625 31.78125 34.625 
z
M 21.921875 38.8125 
Q 15.578125 40.375 12.03125 44.71875 
Q 8.5 49.078125 8.5 55.328125 
Q 8.5 64.0625 14.71875 69.140625 
Q 20.953125 74.21875 31.78125 74.21875 
Q 42.671875 74.21875 48.875 69.140625 
Q 55.078125 64.0625 55.078125 55.328125 
Q 55.078125 49.078125 51.53125 44.71875 
Q 48 40.375 41.703125 38.8125 
Q 48.828125 37.15625 52.796875 32.3125 
Q 56.78125 27.484375 56.78125 20.515625 
Q 56.78125 9.90625 50.3125 4.234375 
Q 43.84375 -1.421875 31.78125 -1.421875 
Q 19.734375 -1.421875 13.25 4.234375 
Q 6.78125 9.90625 6.78125 20.515625 
Q 6.78125 27.484375 10.78125 32.3125 
Q 14.796875 37.15625 21.921875 38.8125 
z
M 18.3125 54.390625 
Q 18.3125 48.734375 21.84375 45.5625 
Q 25.390625 42.390625 31.78125 42.390625 
Q 38.140625 42.390625 41.71875 45.5625 
Q 45.3125 48.734375 45.3125 54.390625 
Q 45.3125 60.0625 41.71875 63.234375 
Q 38.140625 66.40625 31.78125 66.40625 
Q 25.390625 66.40625 21.84375 63.234375 
Q 18.3125 60.0625 18.3125 54.390625 
z
" id="DejaVuSans-38"/>
      </defs>
      <g transform="translate(217.0375 172.295612)scale(0.1 -0.1)">
       <use xlink:href="#DejaVuSans-38"/>
      </g>
     </g>
    </g>
    <g id="ytick_6">
     <g id="line2d_47">
      <g>
       <use style="stroke:#000000;stroke-width:0.8;" x="230.4" xlink:href="#m950842f2c7" y="128.598173"/>
      </g>
     </g>
     <g id="text_13">
      <!-- 10 -->
      <defs>
       <path d="M 31.78125 66.40625 
Q 24.171875 66.40625 20.328125 58.90625 
Q 16.5 51.421875 16.5 36.375 
Q 16.5 21.390625 20.328125 13.890625 
Q 24.171875 6.390625 31.78125 6.390625 
Q 39.453125 6.390625 43.28125 13.890625 
Q 47.125 21.390625 47.125 36.375 
Q 47.125 51.421875 43.28125 58.90625 
Q 39.453125 66.40625 31.78125 66.40625 
z
M 31.78125 74.21875 
Q 44.046875 74.21875 50.515625 64.515625 
Q 56.984375 54.828125 56.984375 36.375 
Q 56.984375 17.96875 50.515625 8.265625 
Q 44.046875 -1.421875 31.78125 -1.421875 
Q 19.53125 -1.421875 13.0625 8.265625 
Q 6.59375 17.96875 6.59375 36.375 
Q 6.59375 54.828125 13.0625 64.515625 
Q 19.53125 74.21875 31.78125 74.21875 
z
" id="DejaVuSans-30"/>
      </defs>
      <g transform="translate(210.675 132.397392)scale(0.1 -0.1)">
       <use xlink:href="#DejaVuSans-31"/>
       <use x="63.623047" xlink:href="#DejaVuSans-30"/>
      </g>
     </g>
    </g>
    <g id="ytick_7">
     <g id="line2d_48">
      <g>
       <use style="stroke:#000000;stroke-width:0.8;" x="230.4" xlink:href="#m950842f2c7" y="88.699953"/>
      </g>
     </g>
     <g id="text_14">
      <!-- 12 -->
      <g transform="translate(210.675 92.499172)scale(0.1 -0.1)">
       <use xlink:href="#DejaVuSans-31"/>
       <use x="63.623047" xlink:href="#DejaVuSans-32"/>
      </g>
     </g>
    </g>
    <g id="ytick_8">
     <g id="line2d_49">
      <g>
       <use style="stroke:#000000;stroke-width:0.8;" x="230.4" xlink:href="#m950842f2c7" y="48.801733"/>
      </g>
     </g>
     <g id="text_15">
      <!-- 14 -->
      <g transform="translate(210.675 52.600952)scale(0.1 -0.1)">
       <use xlink:href="#DejaVuSans-31"/>
       <use x="63.623047" xlink:href="#DejaVuSans-34"/>
      </g>
     </g>
    </g>
    <g id="ytick_9">
     <g id="line2d_50">
      <g>
       <use style="stroke:#000000;stroke-width:0.8;" x="230.4" xlink:href="#m950842f2c7" y="8.903513"/>
      </g>
     </g>
     <g id="text_16">
      <!-- 16 -->
      <g transform="translate(210.675 12.702732)scale(0.1 -0.1)">
       <use xlink:href="#DejaVuSans-31"/>
       <use x="63.623047" xlink:href="#DejaVuSans-36"/>
      </g>
     </g>
    </g>
    <g id="ytick_10">
     <g id="line2d_51">
      <defs>
       <path d="M 0 0 
L -2 0 
" id="m10741bfdf0" style="stroke:#000000;stroke-width:0.6;"/>
      </defs>
      <g>
       <use style="stroke:#000000;stroke-width:0.6;" x="230.4" xlink:href="#m10741bfdf0" y="318.114718"/>
      </g>
     </g>
    </g>
    <g id="ytick_11">
     <g id="line2d_52">
      <g>
       <use style="stroke:#000000;stroke-width:0.6;" x="230.4" xlink:href="#m10741bfdf0" y="308.140163"/>
      </g>
     </g>
    </g>
    <g id="ytick_12">
     <g id="line2d_53">
      <g>
       <use style="stroke:#000000;stroke-width:0.6;" x="230.4" xlink:href="#m10741bfdf0" y="298.165608"/>
      </g>
     </g>
    </g>
    <g id="ytick_13">
     <g id="line2d_54">
      <g>
       <use style="stroke:#000000;stroke-width:0.6;" x="230.4" xlink:href="#m10741bfdf0" y="278.216498"/>
      </g>
     </g>
    </g>
    <g id="ytick_14">
     <g id="line2d_55">
      <g>
       <use style="stroke:#000000;stroke-width:0.6;" x="230.4" xlink:href="#m10741bfdf0" y="268.241943"/>
      </g>
     </g>
    </g>
    <g id="ytick_15">
     <g id="line2d_56">
      <g>
       <use style="stroke:#000000;stroke-width:0.6;" x="230.4" xlink:href="#m10741bfdf0" y="258.267388"/>
      </g>
     </g>
    </g>
    <g id="ytick_16">
     <g id="line2d_57">
      <g>
       <use style="stroke:#000000;stroke-width:0.6;" x="230.4" xlink:href="#m10741bfdf0" y="238.318278"/>
      </g>
     </g>
    </g>
    <g id="ytick_17">
     <g id="line2d_58">
      <g>
       <use style="stroke:#000000;stroke-width:0.6;" x="230.4" xlink:href="#m10741bfdf0" y="228.343723"/>
      </g>
     </g>
    </g>
    <g id="ytick_18">
     <g id="line2d_59">
      <g>
       <use style="stroke:#000000;stroke-width:0.6;" x="230.4" xlink:href="#m10741bfdf0" y="218.369168"/>
      </g>
     </g>
    </g>
    <g id="ytick_19">
     <g id="line2d_60">
      <g>
       <use style="stroke:#000000;stroke-width:0.6;" x="230.4" xlink:href="#m10741bfdf0" y="198.420058"/>
      </g>
     </g>
    </g>
    <g id="ytick_20">
     <g id="line2d_61">
      <g>
       <use style="stroke:#000000;stroke-width:0.6;" x="230.4" xlink:href="#m10741bfdf0" y="188.445503"/>
      </g>
     </g>
    </g>
    <g id="ytick_21">
     <g id="line2d_62">
      <g>
       <use style="stroke:#000000;stroke-width:0.6;" x="230.4" xlink:href="#m10741bfdf0" y="178.470948"/>
      </g>
     </g>
    </g>
    <g id="ytick_22">
     <g id="line2d_63">
      <g>
       <use style="stroke:#000000;stroke-width:0.6;" x="230.4" xlink:href="#m10741bfdf0" y="158.521838"/>
      </g>
     </g>
    </g>
    <g id="ytick_23">
     <g id="line2d_64">
      <g>
       <use style="stroke:#000000;stroke-width:0.6;" x="230.4" xlink:href="#m10741bfdf0" y="148.547283"/>
      </g>
     </g>
    </g>
    <g id="ytick_24">
     <g id="line2d_65">
      <g>
       <use style="stroke:#000000;stroke-width:0.6;" x="230.4" xlink:href="#m10741bfdf0" y="138.572728"/>
      </g>
     </g>
    </g>
    <g id="ytick_25">
     <g id="line2d_66">
      <g>
       <use style="stroke:#000000;stroke-width:0.6;" x="230.4" xlink:href="#m10741bfdf0" y="118.623618"/>
      </g>
     </g>
    </g>
    <g id="ytick_26">
     <g id="line2d_67">
      <g>
       <use style="stroke:#000000;stroke-width:0.6;" x="230.4" xlink:href="#m10741bfdf0" y="108.649063"/>
      </g>
     </g>
    </g>
    <g id="ytick_27">
     <g id="line2d_68">
      <g>
       <use style="stroke:#000000;stroke-width:0.6;" x="230.4" xlink:href="#m10741bfdf0" y="98.674508"/>
      </g>
     </g>
    </g>
    <g id="ytick_28">
     <g id="line2d_69">
      <g>
       <use style="stroke:#000000;stroke-width:0.6;" x="230.4" xlink:href="#m10741bfdf0" y="78.725398"/>
      </g>
     </g>
    </g>
    <g id="ytick_29">
     <g id="line2d_70">
      <g>
       <use style="stroke:#000000;stroke-width:0.6;" x="230.4" xlink:href="#m10741bfdf0" y="68.750843"/>
      </g>
     </g>
    </g>
    <g id="ytick_30">
     <g id="line2d_71">
      <g>
       <use style="stroke:#000000;stroke-width:0.6;" x="230.4" xlink:href="#m10741bfdf0" y="58.776288"/>
      </g>
     </g>
    </g>
    <g id="ytick_31">
     <g id="line2d_72">
      <g>
       <use style="stroke:#000000;stroke-width:0.6;" x="230.4" xlink:href="#m10741bfdf0" y="38.827178"/>
      </g>
     </g>
    </g>
    <g id="ytick_32">
     <g id="line2d_73">
      <g>
       <use style="stroke:#000000;stroke-width:0.6;" x="230.4" xlink:href="#m10741bfdf0" y="28.852623"/>
      </g>
     </g>
    </g>
    <g id="ytick_33">
     <g id="line2d_74">
      <g>
       <use style="stroke:#000000;stroke-width:0.6;" x="230.4" xlink:href="#m10741bfdf0" y="18.878068"/>
      </g>
     </g>
    </g>
   </g>
   <g id="line2d_75">
    <path clip-path="url(#pa4b1605533)" d="M 150.60356 8.903513 
L 154.660428 40.53345 
L 158.893652 71.779205 
L 162.403149 96.32095 
L 166.12286 120.984757 
L 169.698971 143.388554 
L 173.506262 165.831536 
L 177.523188 187.934789 
L 181.141822 206.461384 
L 184.571006 222.806548 
L 187.692676 236.66086 
L 190.528678 248.400389 
L 193.590007 260.167669 
L 196.538089 270.61157 
L 199.258888 279.477138 
L 202.016087 287.704189 
L 204.600655 294.724067 
L 206.975292 300.583438 
L 209.020497 305.176816 
L 211.418575 310.028592 
L 213.57303 313.895812 
L 216.137407 317.892249 
L 218.585147 321.091931 
L 220.417053 323.0936 
L 222.470891 324.937716 
L 224.841351 326.540403 
L 226.625554 327.375134 
L 228.391515 327.887058 
L 229.70802 328.06527 
L 231.250835 328.052985 
L 233.098234 327.724321 
L 235.12091 326.972081 
L 236.755399 326.064567 
L 238.628732 324.695035 
L 240.498673 322.977105 
L 242.389637 320.883368 
L 243.294748 319.754338 
L 245.075636 317.293088 
L 247.495758 313.438748 
L 249.912108 309.004595 
L 252.320496 304.002578 
L 254.679787 298.538678 
L 257.283335 291.861406 
L 260.093269 283.892302 
L 262.971373 274.909239 
L 265.89503 264.933718 
L 268.995173 253.419908 
L 272.201064 240.499953 
L 275.926576 224.191447 
L 279.518321 207.151075 
L 282.76762 190.621104 
L 285.769615 174.408519 
L 289.739852 151.579244 
L 292.940546 132.024393 
L 296.8681 106.625345 
L 300.907074 78.89282 
L 304.338882 54.044052 
L 308.529257 22.101645 
L 310.19644 8.903513 
L 310.19644 8.903513 
" style="fill:none;stroke:#0000ff;stroke-linecap:square;"/>
   </g>
   <g id="patch_4">
    <path d="M 230.4 334.462697 
L 230.4 2.52 
" style="fill:none;stroke:#000000;stroke-linecap:square;stroke-linejoin:miter;stroke-width:0.8;"/>
   </g>
   <g id="patch_5">
    <path d="M 147.411702 328.089273 
L 313.388298 328.089273 
" style="fill:none;stroke:#000000;stroke-linecap:square;stroke-linejoin:miter;stroke-width:0.8;"/>
   </g>
  </g>
 </g>
 <defs>
  <clipPath id="pa4b1605533">
   <rect height="331.942697" width="165.976595" x="147.411702" y="2.52"/>
  </clipPath>
 </defs>
</svg>
