<?xml version="1.0" encoding="utf-8" standalone="no"?>
<!DOCTYPE svg PUBLIC "-//W3C//DTD SVG 1.1//EN"
  "http://www.w3.org/Graphics/SVG/1.1/DTD/svg11.dtd">
<!-- Created with matplotlib (https://matplotlib.org/) -->
<svg height="345.6pt" version="1.1" viewBox="0 0 460.8 345.6" width="460.8pt" xmlns="http://www.w3.org/2000/svg" xmlns:xlink="http://www.w3.org/1999/xlink">
 <metadata>
  <rdf:RDF xmlns:cc="http://creativecommons.org/ns#" xmlns:dc="http://purl.org/dc/elements/1.1/" xmlns:rdf="http://www.w3.org/1999/02/22-rdf-syntax-ns#">
   <cc:Work>
    <dc:type rdf:resource="http://purl.org/dc/dcmitype/StillImage"/>
    <dc:date>2021-05-10T20:21:49.884853</dc:date>
    <dc:format>image/svg+xml</dc:format>
    <dc:creator>
     <cc:Agent>
      <dc:title>Matplotlib v3.3.4, https://matplotlib.org/</dc:title>
     </cc:Agent>
    </dc:creator>
   </cc:Work>
  </rdf:RDF>
 </metadata>
 <defs>
  <style type="text/css">*{stroke-linecap:butt;stroke-linejoin:round;}</style>
 </defs>
 <g id="figure_1">
  <g id="patch_1">
   <path d="M 0 345.6 
L 460.8 345.6 
L 460.8 0 
L 0 0 
z
" style="fill:#ffffff;"/>
  </g>
  <g id="axes_1">
   <g id="patch_2">
    <path d="M 35.732375 345.6 
L 425.067625 345.6 
L 425.067625 0 
L 35.732375 0 
z
" style="fill:#ffffff;"/>
   </g>
   <g id="patch_3">
    <path clip-path="url(#p29a1a750b6)" d="M 117.923899 195.731123 
L 118.479031 188.400287 
L 118.963732 184.367269 
L 120.17863 177.029332 
L 121.004423 173.123536 
L 122.686085 166.544031 
L 124.17979 161.65564 
L 124.79758 159.816329 
L 126.78586 154.436568 
L 130.162679 146.659601 
L 131.003571 144.920922 
L 133.863507 139.458237 
L 138.232248 132.171251 
L 138.98476 131.020292 
L 141.968918 126.707075 
L 146.66775 120.609533 
L 149.97178 116.745044 
L 153.363236 113.08638 
L 156.491502 109.956305 
L 160.686968 106.085814 
L 166.817553 101.022796 
L 168.504655 99.740776 
L 173.946555 95.901563 
L 179.385958 92.479908 
L 184.399013 89.661696 
L 189.888929 86.915643 
L 190.442787 86.657387 
L 197.280508 83.738483 
L 201.303129 82.245 
L 208.382975 79.997341 
L 212.36779 78.937786 
L 219.826205 77.337292 
L 222.062206 76.952457 
L 227.45435 76.201114 
L 234.185676 75.609157 
L 236.992712 75.474792 
L 244.55526 75.44108 
L 249.874516 75.705045 
L 251.732768 75.853665 
L 260.641256 76.977876 
L 265.234234 77.829107 
L 268.66252 78.5884 
L 275.450288 80.414447 
L 275.813563 80.524589 
L 281.927663 82.574957 
L 285.697202 84.030484 
L 290.497183 86.107114 
L 296.533352 89.09689 
L 298.56731 90.205445 
L 303.807069 93.314129 
L 310.532775 97.889426 
L 311.891972 98.901965 
L 317.187731 103.1622 
L 319.409997 105.112368 
L 323.610646 109.095305 
L 327.660111 113.352048 
L 329.805434 115.798195 
L 333.157338 119.927603 
L 336.246559 124.121502 
L 339.645421 129.265161 
L 341.319269 132.047349 
L 344.144206 137.213303 
L 346.750642 142.658695 
L 347.322752 143.965985 
L 349.208375 148.645723 
L 351.541769 155.531515 
L 351.728801 156.157403 
L 353.930214 164.937479 
L 354.666014 168.861699 
L 354.843546 169.949969 
L 355.64812 176.250697 
L 356.08361 182.752475 
L 356.145643 185.29978 
L 356.138078 188.435833 
L 355.76301 195.698348 
L 355.224425 200.596864 
L 354.41071 205.712887 
L 354.077062 207.438935 
L 353.270493 211.091197 
L 351.191109 218.528336 
L 350.869285 219.515819 
L 348.239394 226.572205 
L 347.350732 228.647718 
L 344.393401 234.784317 
L 343.515951 236.422267 
L 341.451132 240.016026 
L 338.534773 244.576171 
L 335.535534 248.762059 
L 334.310253 250.348656 
L 331.531205 253.717939 
L 327.326894 258.292702 
L 325.763235 259.854337 
L 322.820516 262.611577 
L 318.38422 266.366114 
L 314.188091 269.524668 
L 311.342192 271.471977 
L 309.034725 272.943898 
L 302.896462 276.429468 
L 298.996762 278.34349 
L 296.005914 279.664244 
L 294.366258 280.336253 
L 287.238008 282.849205 
L 285.570848 283.34456 
L 282.107785 284.26566 
L 276.380793 285.477451 
L 275.16111 285.686394 
L 268.029133 286.569327 
L 266.690029 286.671116 
L 260.003376 286.878234 
L 259.163471 286.868722 
L 254.611011 286.678199 
L 251.006094 286.359176 
L 245.466259 285.572741 
L 242.872343 285.077937 
L 236.775654 283.583777 
L 234.26849 282.828987 
L 231.50227 281.896671 
L 226.784088 280.053127 
L 223.537803 278.587402 
L 221.488289 277.573627 
L 218.996139 276.243263 
L 214.764674 273.720225 
L 212.28821 272.07547 
L 210.196828 270.580431 
L 205.337199 266.685335 
L 203.546183 265.082091 
L 201.0084 262.631493 
L 199.05408 260.583816 
L 197.181848 258.472816 
L 194.070025 254.581886 
L 192.058028 251.756987 
L 190.991647 250.139673 
L 188.954781 246.768279 
L 186.754407 242.590055 
L 185.482593 239.827445 
L 183.90897 235.897782 
L 182.75074 232.468014 
L 182.294074 230.929567 
L 181.564732 228.147865 
L 180.895102 225.046515 
L 180.222944 220.831034 
L 180.052888 219.365964 
L 179.789834 216.073974 
L 179.691211 212.509359 
L 179.797669 208.776712 
L 180.073061 205.486001 
L 180.483751 202.44104 
L 180.842918 200.413399 
L 181.631645 196.909217 
L 182.049872 195.363544 
L 182.882728 192.68205 
L 184.020831 189.592197 
L 185.686772 185.831249 
L 186.801957 183.661563 
L 188.024772 181.520107 
L 190.105728 178.318571 
L 191.408557 176.541252 
L 193.182893 174.348906 
L 194.513204 172.853768 
L 196.221848 171.095491 
L 199.08506 168.502177 
L 200.937918 167.029554 
L 203.464999 165.249924 
L 204.444809 164.625437 
L 207.118286 163.093563 
L 208.231422 162.526237 
L 211.712585 161.002429 
L 212.845794 160.584914 
L 215.597657 159.72507 
L 216.901145 159.392402 
L 221.220643 158.626679 
L 221.303513 158.617028 
L 224.117519 158.402809 
L 226.598559 158.399807 
L 229.518639 158.628471 
L 230.620859 158.783113 
L 233.744127 159.439316 
L 234.846664 159.753134 
L 236.31632 160.243945 
L 238.744843 161.254092 
L 239.924659 161.844759 
L 242.146982 163.164374 
L 243.493329 164.117364 
L 245.650184 165.948579 
L 247.270792 167.648023 
L 248.25172 168.861727 
L 249.500548 170.692872 
L 249.737875 171.088725 
L 250.606941 172.722449 
L 251.339562 174.426883 
L 251.773672 175.677418 
L 252.327886 177.813395 
L 252.551498 179.083347 
L 252.78098 181.940537 
L 252.783033 182.466554 
L 252.704312 184.182627 
L 252.492 185.919422 
L 252.419982 186.342738 
L 252.028679 188.12539 
L 251.489634 189.916734 
L 250.500989 192.37802 
L 249.910519 193.576382 
L 248.656438 195.731123 
L 248.656438 195.731123 
L 249.801094 193.750015 
L 250.207201 192.922287 
L 250.929023 191.186837 
L 251.445351 189.588477 
L 251.823605 187.996828 
L 251.978479 187.098999 
L 252.135447 185.716105 
L 252.193614 184.348882 
L 252.179309 183.457528 
L 252.0796 182.121688 
L 251.85849 180.650399 
L 251.525906 179.215341 
L 251.026866 177.658609 
L 250.967458 177.499804 
L 250.282716 175.915134 
L 249.380574 174.270763 
L 248.084648 172.407849 
L 246.992667 171.128149 
L 245.417492 169.599121 
L 244.475514 168.821463 
L 242.926097 167.717891 
L 241.960826 167.124132 
L 239.736536 165.984421 
L 238.48106 165.463498 
L 236.646338 164.840654 
L 234.501133 164.299781 
L 234.005394 164.201395 
L 232.327197 163.938118 
L 229.845435 163.736329 
L 228.671876 163.715204 
L 226.187839 163.821857 
L 225.058918 163.93696 
L 221.833056 164.492449 
L 220.48288 164.824777 
L 218.06033 165.571223 
L 217.471873 165.782206 
L 214.512267 167.025789 
L 212.460215 168.07534 
L 210.90589 168.97963 
L 208.582906 170.521095 
L 207.82001 171.080691 
L 206.450099 172.15724 
L 204.383178 173.97191 
L 201.790674 176.623808 
L 200.263955 178.420208 
L 199.798307 179.008615 
L 197.765412 181.84015 
L 196.63792 183.631154 
L 195.926779 184.861314 
L 194.819591 186.966096 
L 193.509805 189.844481 
L 192.363613 192.868439 
L 191.844143 194.471302 
L 191.085366 197.223504 
L 190.699988 198.90916 
L 190.239712 201.376893 
L 189.88668 203.948826 
L 189.64734 206.699796 
L 189.544491 210.443552 
L 189.582783 212.190643 
L 189.650824 213.560308 
L 189.943012 216.789518 
L 190.541709 220.682068 
L 190.979838 222.791341 
L 191.411698 224.567387 
L 192.249842 227.489205 
L 193.019136 229.775078 
L 194.48633 233.479425 
L 195.85867 236.426743 
L 196.879418 238.38957 
L 197.889583 240.180949 
L 199.819139 243.270217 
L 202.412523 246.892616 
L 202.873405 247.484658 
L 205.822956 250.971966 
L 208.388131 253.64608 
L 209.322543 254.549786 
L 211.099744 256.176157 
L 215.350263 259.634083 
L 217.94348 261.484129 
L 219.709923 262.644875 
L 221.12352 263.519779 
L 224.255286 265.298839 
L 227.442616 266.900953 
L 232.288165 268.970856 
L 235.049966 269.968405 
L 235.340593 270.066071 
L 240.597742 271.603203 
L 241.756218 271.885318 
L 246.338262 272.809841 
L 250.581571 273.402541 
L 254.025781 273.703274 
L 254.769913 273.747374 
L 258.504607 273.857926 
L 262.166773 273.788238 
L 266.421472 273.486725 
L 269.09098 273.176171 
L 274.794476 272.195156 
L 275.517495 272.039459 
L 281.44021 270.491132 
L 281.720323 270.405618 
L 285.934495 268.980391 
L 290.347828 267.198403 
L 294.579485 265.193677 
L 296.077482 264.410381 
L 299.907103 262.221312 
L 302.206631 260.770289 
L 305.746948 258.318741 
L 308.67052 256.07764 
L 312.211826 253.069648 
L 312.972341 252.377806 
L 316.582367 248.846354 
L 319.300569 245.88464 
L 320.843435 244.070397 
L 323.750555 240.347454 
L 325.531285 237.838832 
L 328.255039 233.589342 
L 329.967319 230.604267 
L 331.938461 226.782187 
L 333.164937 224.140954 
L 334.070027 222.029262 
L 335.324911 218.814319 
L 337.104601 213.452169 
L 337.739949 211.202868 
L 339.205256 204.807615 
L 339.863111 200.886736 
L 340.027245 199.699533 
L 340.551011 194.592217 
L 340.715614 191.759212 
L 340.763256 185.436727 
L 340.632882 182.448748 
L 340.480051 180.319156 
L 339.791145 174.395982 
L 338.930639 169.528849 
L 338.276613 166.577063 
L 337.347403 163.00111 
L 336.448174 159.997612 
L 335.221627 156.393889 
L 333.667381 152.401187 
L 331.446951 147.465573 
L 330.887063 146.330178 
L 328.414644 141.721815 
L 325.22213 136.537671 
L 323.626204 134.198497 
L 321.162825 130.856465 
L 318.06495 127.044113 
L 316.768589 125.560348 
L 313.257976 121.828023 
L 309.954706 118.650956 
L 305.879775 115.115344 
L 303.802339 113.457944 
L 298.67949 109.742088 
L 298.482549 109.609053 
L 291.945943 105.566452 
L 288.16946 103.536149 
L 285.286128 102.123796 
L 283.325352 101.228131 
L 278.125517 99.09396 
L 274.919932 97.944535 
L 268.938613 96.119755 
L 267.163656 95.655417 
L 261.159443 94.336172 
L 258.214933 93.827441 
L 250.953636 92.94974 
L 248.096174 92.748683 
L 245.805545 92.645627 
L 241.148069 92.594628 
L 236.371084 92.76246 
L 232.210347 93.090599 
L 227.513685 93.666128 
L 222.589062 94.506514 
L 217.602493 95.610021 
L 214.210425 96.509712 
L 210.840262 97.526514 
L 203.184015 100.311705 
L 201.956752 100.822171 
L 195.491232 103.822249 
L 191.920045 105.715694 
L 189.467354 107.120213 
L 185.008759 109.904867 
L 181.210451 112.530649 
L 176.22444 116.36997 
L 173.77494 118.436329 
L 172.068947 119.952179 
L 168.85265 122.99578 
L 165.432852 126.526881 
L 162.647818 129.657781 
L 158.411896 134.937715 
L 154.669685 140.238189 
L 151.974188 144.52384 
L 151.748786 144.903224 
L 149.258643 149.348405 
L 147.171189 153.499782 
L 144.82036 158.790615 
L 143.591449 161.899951 
L 141.965894 166.512192 
L 140.535491 171.233956 
L 138.721057 178.757919 
L 138.04921 182.346606 
L 137.656988 184.820011 
L 137.020895 189.986722 
L 136.599976 195.731123 
z
" style="fill:#b2b3ff;opacity:0.5;"/>
   </g>
   <g id="patch_4">
    <path clip-path="url(#p29a1a750b6)" d="M 80.571745 195.731123 
L 81.073542 188.47519 
L 81.661891 183.014554 
L 82.460872 177.382389 
L 85.040198 164.50099 
L 85.576069 162.348298 
L 87.781779 154.53778 
L 89.509282 149.265564 
L 91.416411 144.046629 
L 94.25229 137.146495 
L 99.61197 126.058559 
L 101.436397 122.715524 
L 105.874449 115.27469 
L 109.055786 110.442013 
L 111.882833 106.440527 
L 119.139817 97.212936 
L 123.540394 92.228946 
L 128.510348 87.064154 
L 133.53954 82.277076 
L 137.390916 78.878045 
L 143.856082 73.638722 
L 145.454224 72.427018 
L 150.698749 68.665468 
L 159.240018 63.190435 
L 163.764485 60.590178 
L 169.223091 57.709173 
L 174.349263 55.245024 
L 185.526143 50.629414 
L 189.580318 49.197884 
L 195.150612 47.431665 
L 201.284769 45.747179 
L 210.131665 43.782618 
L 214.674049 42.981698 
L 218.546428 42.408177 
L 231.0407 41.232783 
L 231.828894 41.192894 
L 242.265686 41.046137 
L 246.625627 41.195147 
L 256.927735 42.044171 
L 259.774154 42.403324 
L 268.781331 43.902885 
L 276.462002 45.628841 
L 278.211805 46.081324 
L 283.546801 47.600527 
L 293.422339 50.989155 
L 297.924637 52.795355 
L 302.623626 54.86513 
L 308.820678 57.898823 
L 315.811664 61.766368 
L 323.41053 66.558076 
L 327.574736 69.470043 
L 330.233637 71.44457 
L 333.987248 74.395732 
L 342.561759 81.94046 
L 343.535562 82.875982 
L 348.284477 87.700113 
L 351.789179 91.567443 
L 356.534161 97.287104 
L 361.994921 104.701792 
L 364.557397 108.557235 
L 366.460444 111.60708 
L 369.853452 117.513762 
L 373.021057 123.703059 
L 375.37657 128.859372 
L 378.349961 136.302664 
L 379.743122 140.284357 
L 382.413983 149.301699 
L 383.845535 155.362481 
L 385.083066 161.961912 
L 385.703508 166.190706 
L 386.339013 171.997001 
L 386.509339 174.120149 
L 386.865876 184.625237 
L 386.848649 186.260733 
L 386.248781 196.964168 
L 385.679397 201.934851 
L 385.088355 205.912215 
L 384.442673 209.539064 
L 382.486444 218.166358 
L 381.143998 222.929541 
L 379.494999 228.016063 
L 376.460247 235.937804 
L 374.620498 240.108555 
L 371.436584 246.530823 
L 371.257866 246.866538 
L 366.725986 254.682583 
L 364.512517 258.090228 
L 359.514339 265.016928 
L 355.865144 269.51961 
L 354.452678 271.155257 
L 348.345913 277.632773 
L 346.633629 279.293638 
L 341.396131 284.005482 
L 337.651049 287.065779 
L 335.089432 289.024217 
L 331.089954 291.87899 
L 325.273114 295.623645 
L 318.913943 299.214143 
L 315.495828 300.943274 
L 310.044397 303.429049 
L 306.873752 304.727903 
L 301.108852 306.825497 
L 295.21635 308.631763 
L 292.83412 309.26829 
L 287.18386 310.568082 
L 278.017444 312.064257 
L 275.470251 312.347986 
L 267.77545 312.860372 
L 267.029015 312.882578 
L 258.062627 312.768069 
L 253.818797 312.466368 
L 250.771885 312.150167 
L 247.391909 311.700599 
L 240.670683 310.490683 
L 234.690507 309.048094 
L 230.980243 307.972055 
L 226.493157 306.476873 
L 222.684463 305.033536 
L 219.247802 303.586862 
L 214.373166 301.285768 
L 209.386333 298.606076 
L 206.600061 296.953589 
L 200.730412 293.069921 
L 199.147782 291.921121 
L 195.189673 288.837928 
L 190.5159 284.765663 
L 187.87402 282.22688 
L 183.544526 277.629914 
L 179.893184 273.24865 
L 179.018435 272.117921 
L 176.006077 267.939495 
L 172.7162 262.762806 
L 170.51875 258.837554 
L 168.864806 255.557351 
L 167.249331 252.001552 
L 166.459644 250.103558 
L 164.608254 245.093793 
L 162.717183 238.705667 
L 162.654531 238.459542 
L 161.655141 234.038214 
L 160.941352 229.953749 
L 160.147743 222.470472 
L 160.089565 221.424051 
L 159.996651 215.993943 
L 160.158678 211.932224 
L 160.293186 210.152141 
L 161.066835 203.982746 
L 161.80822 200.09422 
L 162.77549 196.134168 
L 163.072148 195.074358 
L 164.755915 189.917613 
L 165.531169 187.894041 
L 167.848545 182.690142 
L 168.771072 180.882571 
L 171.161539 176.705153 
L 173.057376 173.803008 
L 175.843133 170.045234 
L 177.13058 168.477846 
L 179.643373 165.678171 
L 181.262443 164.035284 
L 184.519 161.062136 
L 186.392336 159.531012 
L 190.258268 156.735544 
L 190.757856 156.407459 
L 196.143106 153.30744 
L 198.034382 152.396333 
L 200.687969 151.263171 
L 203.271717 150.316623 
L 204.912615 149.79345 
L 209.547221 148.634329 
L 211.824797 148.234585 
L 214.074849 147.949087 
L 217.422374 147.727089 
L 221.792473 147.811293 
L 224.654773 148.106406 
L 224.752017 148.119911 
L 228.999271 148.945516 
L 232.209064 149.898792 
L 232.818861 150.115045 
L 237.244117 152.065038 
L 237.397868 152.145975 
L 240.660767 154.110291 
L 242.684498 155.602795 
L 244.022993 156.731712 
L 246.448518 159.141349 
L 247.284793 160.108599 
L 248.619713 161.844173 
L 249.821372 163.669696 
L 250.937569 165.68711 
L 251.941055 167.916894 
L 252.165054 168.495836 
L 253.097036 171.475639 
L 253.559122 173.661479 
L 253.924088 176.956437 
L 253.943741 179.504684 
L 253.727895 182.143264 
L 253.419303 184.06748 
L 253.019171 185.84765 
L 252.50472 187.634769 
L 251.970126 189.170867 
L 251.202572 191.036031 
L 250.302039 192.897174 
L 249.520045 194.317606 
L 248.656438 195.731123 
L 248.656438 195.731123 
L 249.58893 194.187224 
L 250.412503 192.634669 
L 251.068289 191.219805 
L 251.672899 189.709216 
L 252.575617 186.782864 
L 253.043018 184.498533 
L 253.268187 182.69821 
L 253.367528 180.916942 
L 253.350858 179.298925 
L 253.17292 177.181983 
L 252.883832 175.408503 
L 252.472876 173.675355 
L 252.406147 173.437233 
L 251.498913 170.816423 
L 250.057993 167.855311 
L 249.7006 167.246381 
L 247.546377 164.199276 
L 246.907635 163.446792 
L 244.845665 161.343375 
L 242.525382 159.428533 
L 241.397668 158.632371 
L 240.280304 157.916877 
L 236.964077 156.159634 
L 234.721179 155.235813 
L 233.706179 154.879192 
L 231.270159 154.165795 
L 229.095258 153.686502 
L 224.950858 153.148113 
L 223.052531 153.055066 
L 219.937773 153.100529 
L 219.726604 153.112333 
L 215.128872 153.638572 
L 213.272122 153.996064 
L 210.724308 154.622827 
L 207.363053 155.694862 
L 204.804188 156.70383 
L 204.088981 157.016646 
L 200.898483 158.583063 
L 197.621574 160.50012 
L 195.97119 161.593483 
L 194.569816 162.594156 
L 190.816271 165.633692 
L 189.715544 166.634505 
L 186.517451 169.869461 
L 185.220382 171.338444 
L 183.40117 173.577712 
L 181.645484 175.968084 
L 179.043315 180.028044 
L 178.601894 180.791475 
L 177.246944 183.302782 
L 174.694325 188.948156 
L 173.693009 191.642668 
L 172.945652 193.924497 
L 172.065191 197.044329 
L 171.095273 201.394703 
L 170.473641 205.249412 
L 170.111848 208.543773 
L 169.953369 210.769646 
L 169.839234 214.705328 
L 169.862762 216.758782 
L 170.001405 219.802872 
L 170.513207 224.925682 
L 171.076061 228.491152 
L 171.629159 231.250307 
L 172.783294 235.850589 
L 173.795571 239.154939 
L 174.564091 241.374585 
L 176.560223 246.361416 
L 177.889992 249.240398 
L 180.750902 254.625815 
L 181.43904 255.793224 
L 183.822998 259.539397 
L 186.753062 263.626655 
L 189.539243 267.095913 
L 190.72803 268.472107 
L 193.927016 271.910127 
L 197.752078 275.583677 
L 199.676092 277.275886 
L 203.69945 280.520864 
L 205.631955 281.951306 
L 210.278397 285.087147 
L 213.430914 286.992224 
L 217.04948 288.977564 
L 220.567986 290.716678 
L 226.159093 293.122515 
L 229.524693 294.373228 
L 231.126958 294.919156 
L 235.610329 296.28378 
L 243.226639 298.078233 
L 247.144676 298.756725 
L 252.030561 299.378948 
L 254.138317 299.572185 
L 259.772583 299.870125 
L 262.564376 299.901093 
L 266.751232 299.803759 
L 272.777639 299.36142 
L 277.788686 298.720837 
L 281.241744 298.133726 
L 284.932296 297.372905 
L 291.958553 295.534442 
L 295.589053 294.377865 
L 299.416065 293.000312 
L 305.643286 290.395479 
L 307.573585 289.492467 
L 310.926791 287.810858 
L 317.257565 284.221893 
L 321.217378 281.679839 
L 324.791759 279.170565 
L 326.642708 277.785501 
L 331.879103 273.521597 
L 335.09365 270.62601 
L 338.536168 267.260052 
L 342.320286 263.202047 
L 344.731624 260.393666 
L 349.263203 254.561835 
L 350.241187 253.194135 
L 354.52796 246.639583 
L 357.038126 242.288552 
L 358.187798 240.138128 
L 360.7167 234.977665 
L 363.67569 227.944109 
L 364.66551 225.260708 
L 365.658215 222.344381 
L 367.250503 217.037722 
L 369.099033 209.299345 
L 369.67291 206.284672 
L 370.779663 198.581222 
L 371.235304 193.466657 
L 371.475775 188.211106 
L 371.508407 186.024967 
L 371.299893 178.159084 
L 371.092697 175.23919 
L 370.508121 169.719791 
L 369.426424 162.861792 
L 368.056621 156.470654 
L 367.26229 153.36636 
L 365.822411 148.435373 
L 364.283062 143.854017 
L 361.840124 137.564738 
L 359.158072 131.613402 
L 357.990489 129.255529 
L 354.172986 122.294552 
L 351.166151 117.449577 
L 348.354181 113.317035 
L 344.62354 108.321724 
L 342.153264 105.27396 
L 337.176347 99.662761 
L 336.365336 98.808179 
L 329.219487 91.899065 
L 327.267788 90.18659 
L 323.223521 86.848247 
L 317.891251 82.841561 
L 313.746533 80.007681 
L 306.437853 75.546711 
L 305.269366 74.892482 
L 297.92218 71.122552 
L 290.770477 67.984818 
L 286.871566 66.479881 
L 279.49871 64.007376 
L 278.347813 63.663936 
L 270.249431 61.558753 
L 263.051327 60.130128 
L 258.748882 59.468428 
L 255.273793 59.036826 
L 245.979005 58.32636 
L 240.73805 58.207121 
L 239.126336 58.210963 
L 231.522699 58.485701 
L 226.123257 58.938531 
L 220.575446 59.628556 
L 211.679654 61.218194 
L 207.994993 62.054593 
L 198.946147 64.56598 
L 195.162833 65.81493 
L 192.827472 66.646451 
L 183.102751 70.627732 
L 180.81714 71.690243 
L 174.149078 75.084084 
L 167.679963 78.822166 
L 164.017517 81.14824 
L 157.258375 85.875883 
L 152.753993 89.36858 
L 147.751916 93.604686 
L 142.908867 98.106368 
L 140.134298 100.883076 
L 136.167277 105.133014 
L 132.206731 109.745452 
L 129.263183 113.446471 
L 124.389539 120.178546 
L 120.690144 125.89658 
L 119.709899 127.516556 
L 113.902705 138.260692 
L 113.189641 139.745102 
L 109.065271 149.329612 
L 107.27812 154.181375 
L 105.223718 160.541238 
L 103.374836 167.335989 
L 103.198482 168.059195 
L 101.669749 175.162696 
L 100.203568 184.534469 
L 99.612651 190.204856 
L 99.247822 195.731123 
z
" style="fill:#ffb2df;opacity:0.5;"/>
   </g>
   <g id="patch_5">
    <path clip-path="url(#p29a1a750b6)" d="M 43.219592 195.731123 
L 44.02799 184.833634 
L 44.324333 182.090896 
L 46.32717 168.64332 
L 48.308852 159.127272 
L 50.896051 149.190319 
L 52.924257 142.570071 
L 55.009778 136.489675 
L 57.564284 129.788972 
L 61.289598 121.113474 
L 65.434827 112.593558 
L 69.915271 104.390514 
L 71.687613 101.380177 
L 80.565048 87.875155 
L 81.313428 86.838853 
L 89.537723 76.295295 
L 96.033814 68.906478 
L 98.541147 66.244182 
L 108.670617 56.418743 
L 114.761207 51.145091 
L 115.850969 50.246699 
L 123.871844 44.023825 
L 132.553765 37.998796 
L 139.537096 33.637159 
L 149.07278 28.317388 
L 154.642771 25.526393 
L 164.504858 21.118433 
L 170.875801 18.61485 
L 173.977173 17.489802 
L 184.371837 14.150207 
L 189.208073 12.816103 
L 196.529411 11.053554 
L 207.391043 8.994319 
L 217.309911 7.679378 
L 224.934856 7.029151 
L 234.108283 6.658425 
L 239.202897 6.646154 
L 245.019109 6.801434 
L 259.047255 7.924556 
L 264.463368 8.6453 
L 270.493642 9.639726 
L 281.325289 11.946058 
L 286.271203 13.22774 
L 292.916403 15.183303 
L 302.213587 18.386303 
L 306.779144 20.167366 
L 318.31454 25.317669 
L 324.45057 28.461725 
L 330.888244 32.086745 
L 336.94907 35.826953 
L 343.174201 40.025954 
L 349.98383 45.07303 
L 355.119614 49.224774 
L 358.858875 52.452371 
L 369.10177 62.301059 
L 371.923406 65.309049 
L 376.559064 70.573152 
L 381.692434 76.933973 
L 387.525614 84.975319 
L 390.070605 88.808258 
L 394.792917 96.562456 
L 396.405996 99.435947 
L 400.205011 106.763455 
L 403.442916 113.782934 
L 407.583833 124.23483 
L 409.107184 128.669494 
L 410.675655 133.707775 
L 412.929441 142.153839 
L 414.685567 150.377724 
L 415.462723 154.845788 
L 416.78785 165.135679 
L 417.46674 175.231738 
L 417.580408 181.041296 
L 417.567428 183.512571 
L 417.207388 192.543149 
L 416.262787 202.285259 
L 415.355176 208.486284 
L 414.274622 214.340194 
L 412.365834 222.615958 
L 409.588646 232.155972 
L 408.202854 236.238621 
L 404.762545 245.106459 
L 403.642623 247.694266 
L 400.036272 255.28573 
L 398.121554 258.938961 
L 392.772821 268.086319 
L 391.035862 270.779876 
L 387.395544 276.063374 
L 382.38203 282.656014 
L 379.389121 286.269626 
L 370.966089 295.369566 
L 369.203367 297.099044 
L 363.517922 302.318878 
L 359.625644 305.603185 
L 352.325924 311.198111 
L 349.627083 313.095352 
L 340.241213 319.043932 
L 335.02881 321.945142 
L 329.313554 324.82227 
L 322.517321 327.854337 
L 316.237725 330.300627 
L 310.060471 332.390104 
L 305.662978 333.692923 
L 297.748234 335.66346 
L 294.357267 336.363833 
L 285.346151 337.815179 
L 278.885223 338.494586 
L 274.846596 338.767498 
L 269.198349 338.953846 
L 262.205741 338.868238 
L 254.782543 338.390891 
L 250.230312 337.898318 
L 245.526858 337.22679 
L 235.883217 335.31823 
L 235.615533 335.254786 
L 225.095801 332.292899 
L 223.307132 331.695331 
L 216.777354 329.268557 
L 208.207439 325.462327 
L 205.113036 323.901312 
L 201.479295 321.93239 
L 193.841773 317.276545 
L 192.921003 316.664278 
L 185.439333 311.235368 
L 182.788317 309.10018 
L 176.863482 303.867025 
L 173.092965 300.159625 
L 169.228002 296.002229 
L 166.441206 292.745858 
L 162.775475 288.073801 
L 160.045006 284.254284 
L 156.09516 278.087103 
L 154.340123 275.044698 
L 151.296923 269.191541 
L 149.955796 266.31907 
L 146.588027 257.95867 
L 145.950928 256.122777 
L 143.642588 248.345293 
L 143.268422 246.845175 
L 141.644833 238.809617 
L 141.362616 236.972498 
L 140.507041 228.849097 
L 140.300412 223.973825 
L 140.283412 221.628915 
L 140.382344 217.553663 
L 140.968898 210.302267 
L 141.583041 205.934755 
L 142.02834 203.421284 
L 143.626931 196.459667 
L 144.177377 194.501252 
L 145.728755 189.689469 
L 147.058365 186.153771 
L 149.680654 180.222385 
L 150.676586 178.23731 
L 154.656643 171.339002 
L 155.496321 170.05333 
L 159.136974 165.004133 
L 161.441183 162.180272 
L 164.587727 158.706166 
L 168.206441 155.17466 
L 170.21306 153.403185 
L 173.022775 151.122999 
L 175.838492 149.052827 
L 180.301366 146.170879 
L 181.810675 145.299056 
L 185.336347 143.45167 
L 189.803337 141.470951 
L 193.176876 140.227663 
L 197.439059 138.954762 
L 200.020145 138.341734 
L 204.067392 137.616837 
L 206.923706 137.278588 
L 212.469705 137.036325 
L 214.842257 137.103768 
L 216.843852 137.243055 
L 221.929456 137.951968 
L 223.020941 138.173851 
L 225.975876 138.906789 
L 228.845134 139.815333 
L 230.846704 140.573857 
L 233.532332 141.768769 
L 237.029629 143.669901 
L 237.902399 144.213331 
L 240.084974 145.710784 
L 242.150357 147.335234 
L 244.370937 149.35418 
L 244.914266 149.898901 
L 247.035801 152.260008 
L 248.550751 154.228671 
L 249.925642 156.29228 
L 251.400905 158.924202 
L 252.83628 162.15769 
L 253.233756 163.245305 
L 254.265454 166.838531 
L 254.655638 168.798521 
L 254.952292 170.967071 
L 255.112738 173.172365 
L 255.142118 174.669656 
L 255.067008 176.917103 
L 254.846567 179.188683 
L 254.505922 181.328346 
L 254.079253 183.290168 
L 253.53931 185.259488 
L 252.759492 187.571419 
L 251.816808 189.88396 
L 251.058776 191.498234 
L 250.217632 193.108275 
L 248.656438 195.731123 
L 248.656438 195.731123 
L 249.56576 194.246874 
L 250.393984 192.755651 
L 251.228594 191.076417 
L 251.964996 189.393375 
L 252.713702 187.396085 
L 253.330283 185.401198 
L 253.917737 182.928422 
L 254.127532 181.765669 
L 254.481971 178.661881 
L 254.550123 176.136277 
L 254.366745 173.094733 
L 253.997977 170.621705 
L 253.434917 168.190316 
L 252.686986 165.829103 
L 252.25426 164.697705 
L 250.639536 161.299825 
L 248.754014 158.27466 
L 247.822381 157.011609 
L 246.129258 154.994092 
L 244.523117 153.339185 
L 241.344858 150.61738 
L 240.534187 150.018381 
L 238.435048 148.616363 
L 236.228199 147.346348 
L 234.136016 146.310256 
L 233.4289 145.99369 
L 229.556931 144.531239 
L 227.815953 144.010755 
L 224.27687 143.188927 
L 221.409977 142.73889 
L 216.500988 142.382582 
L 214.893503 142.37416 
L 212.686733 142.446735 
L 206.883689 143.09236 
L 203.393778 143.794577 
L 201.080939 144.390444 
L 199.093654 144.986589 
L 195.364018 146.319961 
L 191.03725 148.231427 
L 189.624324 148.944518 
L 185.893115 151.050965 
L 183.891217 152.322133 
L 180.64364 154.611082 
L 177.890971 156.790213 
L 174.053622 160.24151 
L 171.504507 162.838753 
L 168.972164 165.699993 
L 167.027948 168.116311 
L 164.507334 171.585107 
L 162.543345 174.603531 
L 160.200879 178.659203 
L 157.964149 183.141052 
L 156.490182 186.539601 
L 155.962138 187.869254 
L 153.802537 194.183239 
L 153.098788 196.67846 
L 151.839864 202.114934 
L 151.304012 205.086651 
L 150.729521 209.228082 
L 150.380713 212.933788 
L 150.134744 219.556624 
L 150.185442 222.740718 
L 150.44332 227.258869 
L 151.193506 233.744784 
L 151.824405 237.452515 
L 152.305789 239.824175 
L 153.879474 246.107319 
L 155.333962 250.769199 
L 155.870435 252.311319 
L 158.704013 259.399398 
L 159.42484 260.987893 
L 162.170996 266.476026 
L 165.525273 272.265627 
L 166.501749 273.804988 
L 169.372457 278.022163 
L 172.884997 282.658951 
L 177.9569 288.552399 
L 179.406029 290.090836 
L 182.742664 293.421824 
L 187.454705 297.682326 
L 191.321152 300.840408 
L 195.308022 303.816052 
L 198.774588 306.193786 
L 204.56906 309.775434 
L 209.452499 312.44721 
L 216.293675 315.708722 
L 216.947487 315.992843 
L 225.241093 319.207562 
L 228.670301 320.335722 
L 233.798937 321.815801 
L 239.376619 323.154818 
L 246.776189 324.514568 
L 248.036654 324.700176 
L 254.102743 325.41053 
L 258.696963 325.750049 
L 267.154816 325.935734 
L 272.247736 325.775589 
L 279.770355 325.166169 
L 283.769238 324.660427 
L 291.550168 323.310254 
L 294.150097 322.749769 
L 299.269387 321.482828 
L 304.243237 320.040011 
L 309.462676 318.294599 
L 315.387876 316.014976 
L 323.018772 312.58662 
L 326.388653 310.886071 
L 335.021158 305.967028 
L 337.712958 304.256329 
L 342.288111 301.13979 
L 348.006591 296.845519 
L 353.572201 292.193921 
L 358.627254 287.512863 
L 360.195508 285.96287 
L 365.756369 280.047101 
L 367.665104 277.850253 
L 371.996113 272.50262 
L 376.763074 265.937139 
L 381.716241 258.165436 
L 384.891672 252.526859 
L 386.376667 249.669998 
L 387.954232 246.45277 
L 392.271521 236.410809 
L 394.711013 229.599849 
L 395.167037 228.197 
L 397.913651 218.462914 
L 399.172565 212.872999 
L 399.822688 209.505625 
L 400.99992 201.892505 
L 401.620587 196.198314 
L 402.055327 189.848877 
L 402.173089 178.772848 
L 402.146042 177.839754 
L 401.230378 165.346592 
L 400.733091 161.45165 
L 399.686501 155.008699 
L 398.306219 148.347061 
L 396.312082 140.606912 
L 394.503607 134.71381 
L 392.581696 129.214956 
L 389.647137 121.871302 
L 387.994273 118.153669 
L 385.251345 112.493852 
L 382.564026 107.447593 
L 379.088751 101.504754 
L 373.212242 92.620034 
L 371.599185 90.390936 
L 364.660088 81.631121 
L 361.108716 77.594244 
L 357.505833 73.761741 
L 353.125626 69.420872 
L 347.243931 64.079207 
L 341.737207 59.526169 
L 333.465126 53.400432 
L 331.045181 51.755473 
L 325.628545 48.295043 
L 314.519806 42.077083 
L 308.59025 39.199646 
L 303.290121 36.867957 
L 297.796021 34.678428 
L 291.2567 32.360351 
L 283.037144 29.869882 
L 279.237332 28.871891 
L 272.327382 27.297279 
L 265.734241 26.07648 
L 252.428241 24.424023 
L 251.131634 24.319893 
L 244.217969 23.932813 
L 234.089025 23.873566 
L 229.018153 24.069783 
L 216.055729 25.258884 
L 211.090455 25.978696 
L 201.444156 27.803832 
L 194.267045 29.535538 
L 193.025475 29.868189 
L 179.478437 34.153894 
L 178.428895 34.537534 
L 168.657432 38.483968 
L 161.480339 41.833152 
L 154.455256 45.506446 
L 146.444387 50.207957 
L 144.396533 51.503144 
L 135.225741 57.808164 
L 130.942228 61.057117 
L 121.435699 69.048229 
L 116.588224 73.587094 
L 110.620981 79.669868 
L 110.376126 79.932182 
L 101.829408 89.804437 
L 97.534517 95.36535 
L 92.795156 102.06968 
L 90.732264 105.203216 
L 86.232507 112.57639 
L 82.461059 119.439117 
L 79.521003 125.331606 
L 76.198894 132.722048 
L 73.584861 139.248653 
L 69.213322 152.25724 
L 67.961455 156.708933 
L 65.479039 167.207191 
L 64.754224 170.923731 
L 63.023601 182.281507 
L 62.711604 185.040286 
L 61.895668 195.731123 
z
" style="fill:#fff2b2;opacity:0.5;"/>
   </g>
   <g id="matplotlib.axis_1">
    <g id="xtick_1">
     <g id="line2d_1">
      <defs>
       <path d="M 0 0 
L 0 3.5 
" id="m70bd4d17eb" style="stroke:#000000;stroke-width:0.8;"/>
      </defs>
      <g>
       <use style="stroke:#000000;stroke-width:0.8;" x="82.154179" xlink:href="#m70bd4d17eb" y="195.731123"/>
      </g>
     </g>
     <g id="text_1">
      <!-- −4 -->
      <g transform="translate(74.783086 210.32956)scale(0.1 -0.1)">
       <defs>
        <path d="M 10.59375 35.5 
L 73.1875 35.5 
L 73.1875 27.203125 
L 10.59375 27.203125 
z
" id="DejaVuSans-8722"/>
        <path d="M 37.796875 64.3125 
L 12.890625 25.390625 
L 37.796875 25.390625 
z
M 35.203125 72.90625 
L 47.609375 72.90625 
L 47.609375 25.390625 
L 58.015625 25.390625 
L 58.015625 17.1875 
L 47.609375 17.1875 
L 47.609375 0 
L 37.796875 0 
L 37.796875 17.1875 
L 4.890625 17.1875 
L 4.890625 26.703125 
z
" id="DejaVuSans-52"/>
       </defs>
       <use xlink:href="#DejaVuSans-8722"/>
       <use x="83.789062" xlink:href="#DejaVuSans-52"/>
      </g>
     </g>
    </g>
    <g id="xtick_2">
     <g id="line2d_2">
      <g>
       <use style="stroke:#000000;stroke-width:0.8;" x="165.405308" xlink:href="#m70bd4d17eb" y="195.731123"/>
      </g>
     </g>
     <g id="text_2">
      <!-- −2 -->
      <g transform="translate(158.034215 210.32956)scale(0.1 -0.1)">
       <defs>
        <path d="M 19.1875 8.296875 
L 53.609375 8.296875 
L 53.609375 0 
L 7.328125 0 
L 7.328125 8.296875 
Q 12.9375 14.109375 22.625 23.890625 
Q 32.328125 33.6875 34.8125 36.53125 
Q 39.546875 41.84375 41.421875 45.53125 
Q 43.3125 49.21875 43.3125 52.78125 
Q 43.3125 58.59375 39.234375 62.25 
Q 35.15625 65.921875 28.609375 65.921875 
Q 23.96875 65.921875 18.8125 64.3125 
Q 13.671875 62.703125 7.8125 59.421875 
L 7.8125 69.390625 
Q 13.765625 71.78125 18.9375 73 
Q 24.125 74.21875 28.421875 74.21875 
Q 39.75 74.21875 46.484375 68.546875 
Q 53.21875 62.890625 53.21875 53.421875 
Q 53.21875 48.921875 51.53125 44.890625 
Q 49.859375 40.875 45.40625 35.40625 
Q 44.1875 33.984375 37.640625 27.21875 
Q 31.109375 20.453125 19.1875 8.296875 
z
" id="DejaVuSans-50"/>
       </defs>
       <use xlink:href="#DejaVuSans-8722"/>
       <use x="83.789062" xlink:href="#DejaVuSans-50"/>
      </g>
     </g>
    </g>
    <g id="xtick_3">
     <g id="line2d_3">
      <g>
       <use style="stroke:#000000;stroke-width:0.8;" x="248.656438" xlink:href="#m70bd4d17eb" y="195.731123"/>
      </g>
     </g>
    </g>
    <g id="xtick_4">
     <g id="line2d_4">
      <g>
       <use style="stroke:#000000;stroke-width:0.8;" x="331.907567" xlink:href="#m70bd4d17eb" y="195.731123"/>
      </g>
     </g>
     <g id="text_3">
      <!-- 2 -->
      <g transform="translate(328.726317 210.32956)scale(0.1 -0.1)">
       <use xlink:href="#DejaVuSans-50"/>
      </g>
     </g>
    </g>
    <g id="xtick_5">
     <g id="line2d_5">
      <g>
       <use style="stroke:#000000;stroke-width:0.8;" x="415.158696" xlink:href="#m70bd4d17eb" y="195.731123"/>
      </g>
     </g>
     <g id="text_4">
      <!-- 4 -->
      <g transform="translate(411.977446 210.32956)scale(0.1 -0.1)">
       <use xlink:href="#DejaVuSans-52"/>
      </g>
     </g>
    </g>
    <g id="xtick_6">
     <g id="line2d_6">
      <defs>
       <path d="M 0 0 
L 0 2 
" id="m600b4a1f2e" style="stroke:#000000;stroke-width:0.6;"/>
      </defs>
      <g>
       <use style="stroke:#000000;stroke-width:0.6;" x="40.528615" xlink:href="#m600b4a1f2e" y="195.731123"/>
      </g>
     </g>
    </g>
    <g id="xtick_7">
     <g id="line2d_7">
      <g>
       <use style="stroke:#000000;stroke-width:0.6;" x="61.341397" xlink:href="#m600b4a1f2e" y="195.731123"/>
      </g>
     </g>
    </g>
    <g id="xtick_8">
     <g id="line2d_8">
      <g>
       <use style="stroke:#000000;stroke-width:0.6;" x="102.966962" xlink:href="#m600b4a1f2e" y="195.731123"/>
      </g>
     </g>
    </g>
    <g id="xtick_9">
     <g id="line2d_9">
      <g>
       <use style="stroke:#000000;stroke-width:0.6;" x="123.779744" xlink:href="#m600b4a1f2e" y="195.731123"/>
      </g>
     </g>
    </g>
    <g id="xtick_10">
     <g id="line2d_10">
      <g>
       <use style="stroke:#000000;stroke-width:0.6;" x="144.592526" xlink:href="#m600b4a1f2e" y="195.731123"/>
      </g>
     </g>
    </g>
    <g id="xtick_11">
     <g id="line2d_11">
      <g>
       <use style="stroke:#000000;stroke-width:0.6;" x="186.218091" xlink:href="#m600b4a1f2e" y="195.731123"/>
      </g>
     </g>
    </g>
    <g id="xtick_12">
     <g id="line2d_12">
      <g>
       <use style="stroke:#000000;stroke-width:0.6;" x="207.030873" xlink:href="#m600b4a1f2e" y="195.731123"/>
      </g>
     </g>
    </g>
    <g id="xtick_13">
     <g id="line2d_13">
      <g>
       <use style="stroke:#000000;stroke-width:0.6;" x="227.843655" xlink:href="#m600b4a1f2e" y="195.731123"/>
      </g>
     </g>
    </g>
    <g id="xtick_14">
     <g id="line2d_14">
      <g>
       <use style="stroke:#000000;stroke-width:0.6;" x="269.46922" xlink:href="#m600b4a1f2e" y="195.731123"/>
      </g>
     </g>
    </g>
    <g id="xtick_15">
     <g id="line2d_15">
      <g>
       <use style="stroke:#000000;stroke-width:0.6;" x="290.282002" xlink:href="#m600b4a1f2e" y="195.731123"/>
      </g>
     </g>
    </g>
    <g id="xtick_16">
     <g id="line2d_16">
      <g>
       <use style="stroke:#000000;stroke-width:0.6;" x="311.094785" xlink:href="#m600b4a1f2e" y="195.731123"/>
      </g>
     </g>
    </g>
    <g id="xtick_17">
     <g id="line2d_17">
      <g>
       <use style="stroke:#000000;stroke-width:0.6;" x="352.720349" xlink:href="#m600b4a1f2e" y="195.731123"/>
      </g>
     </g>
    </g>
    <g id="xtick_18">
     <g id="line2d_18">
      <g>
       <use style="stroke:#000000;stroke-width:0.6;" x="373.533131" xlink:href="#m600b4a1f2e" y="195.731123"/>
      </g>
     </g>
    </g>
    <g id="xtick_19">
     <g id="line2d_19">
      <g>
       <use style="stroke:#000000;stroke-width:0.6;" x="394.345914" xlink:href="#m600b4a1f2e" y="195.731123"/>
      </g>
     </g>
    </g>
   </g>
   <g id="matplotlib.axis_2">
    <g id="ytick_1">
     <g id="line2d_20">
      <defs>
       <path d="M 0 0 
L -3.5 0 
" id="me7fe0ffd59" style="stroke:#000000;stroke-width:0.8;"/>
      </defs>
      <g>
       <use style="stroke:#000000;stroke-width:0.8;" x="248.656438" xlink:href="#me7fe0ffd59" y="320.607817"/>
      </g>
     </g>
     <g id="text_5">
      <!-- −3 -->
      <g transform="translate(226.91425 324.407035)scale(0.1 -0.1)">
       <defs>
        <path d="M 40.578125 39.3125 
Q 47.65625 37.796875 51.625 33 
Q 55.609375 28.21875 55.609375 21.1875 
Q 55.609375 10.40625 48.1875 4.484375 
Q 40.765625 -1.421875 27.09375 -1.421875 
Q 22.515625 -1.421875 17.65625 -0.515625 
Q 12.796875 0.390625 7.625 2.203125 
L 7.625 11.71875 
Q 11.71875 9.328125 16.59375 8.109375 
Q 21.484375 6.890625 26.8125 6.890625 
Q 36.078125 6.890625 40.9375 10.546875 
Q 45.796875 14.203125 45.796875 21.1875 
Q 45.796875 27.640625 41.28125 31.265625 
Q 36.765625 34.90625 28.71875 34.90625 
L 20.21875 34.90625 
L 20.21875 43.015625 
L 29.109375 43.015625 
Q 36.375 43.015625 40.234375 45.921875 
Q 44.09375 48.828125 44.09375 54.296875 
Q 44.09375 59.90625 40.109375 62.90625 
Q 36.140625 65.921875 28.71875 65.921875 
Q 24.65625 65.921875 20.015625 65.03125 
Q 15.375 64.15625 9.8125 62.3125 
L 9.8125 71.09375 
Q 15.4375 72.65625 20.34375 73.4375 
Q 25.25 74.21875 29.59375 74.21875 
Q 40.828125 74.21875 47.359375 69.109375 
Q 53.90625 64.015625 53.90625 55.328125 
Q 53.90625 49.265625 50.4375 45.09375 
Q 46.96875 40.921875 40.578125 39.3125 
z
" id="DejaVuSans-51"/>
       </defs>
       <use xlink:href="#DejaVuSans-8722"/>
       <use x="83.789062" xlink:href="#DejaVuSans-51"/>
      </g>
     </g>
    </g>
    <g id="ytick_2">
     <g id="line2d_21">
      <g>
       <use style="stroke:#000000;stroke-width:0.8;" x="248.656438" xlink:href="#me7fe0ffd59" y="278.982252"/>
      </g>
     </g>
     <g id="text_6">
      <!-- −2 -->
      <g transform="translate(226.91425 282.781471)scale(0.1 -0.1)">
       <use xlink:href="#DejaVuSans-8722"/>
       <use x="83.789062" xlink:href="#DejaVuSans-50"/>
      </g>
     </g>
    </g>
    <g id="ytick_3">
     <g id="line2d_22">
      <g>
       <use style="stroke:#000000;stroke-width:0.8;" x="248.656438" xlink:href="#me7fe0ffd59" y="237.356688"/>
      </g>
     </g>
     <g id="text_7">
      <!-- −1 -->
      <g transform="translate(226.91425 241.155906)scale(0.1 -0.1)">
       <defs>
        <path d="M 12.40625 8.296875 
L 28.515625 8.296875 
L 28.515625 63.921875 
L 10.984375 60.40625 
L 10.984375 69.390625 
L 28.421875 72.90625 
L 38.28125 72.90625 
L 38.28125 8.296875 
L 54.390625 8.296875 
L 54.390625 0 
L 12.40625 0 
z
" id="DejaVuSans-49"/>
       </defs>
       <use xlink:href="#DejaVuSans-8722"/>
       <use x="83.789062" xlink:href="#DejaVuSans-49"/>
      </g>
     </g>
    </g>
    <g id="ytick_4">
     <g id="line2d_23">
      <g>
       <use style="stroke:#000000;stroke-width:0.8;" x="248.656438" xlink:href="#me7fe0ffd59" y="195.731123"/>
      </g>
     </g>
    </g>
    <g id="ytick_5">
     <g id="line2d_24">
      <g>
       <use style="stroke:#000000;stroke-width:0.8;" x="248.656438" xlink:href="#me7fe0ffd59" y="154.105558"/>
      </g>
     </g>
     <g id="text_8">
      <!-- 1 -->
      <g transform="translate(235.293938 157.904777)scale(0.1 -0.1)">
       <use xlink:href="#DejaVuSans-49"/>
      </g>
     </g>
    </g>
    <g id="ytick_6">
     <g id="line2d_25">
      <g>
       <use style="stroke:#000000;stroke-width:0.8;" x="248.656438" xlink:href="#me7fe0ffd59" y="112.479994"/>
      </g>
     </g>
     <g id="text_9">
      <!-- 2 -->
      <g transform="translate(235.293938 116.279212)scale(0.1 -0.1)">
       <use xlink:href="#DejaVuSans-50"/>
      </g>
     </g>
    </g>
    <g id="ytick_7">
     <g id="line2d_26">
      <g>
       <use style="stroke:#000000;stroke-width:0.8;" x="248.656438" xlink:href="#me7fe0ffd59" y="70.854429"/>
      </g>
     </g>
     <g id="text_10">
      <!-- 3 -->
      <g transform="translate(235.293938 74.653648)scale(0.1 -0.1)">
       <use xlink:href="#DejaVuSans-51"/>
      </g>
     </g>
    </g>
    <g id="ytick_8">
     <g id="line2d_27">
      <g>
       <use style="stroke:#000000;stroke-width:0.8;" x="248.656438" xlink:href="#me7fe0ffd59" y="29.228865"/>
      </g>
     </g>
     <g id="text_11">
      <!-- 4 -->
      <g transform="translate(235.293938 33.028083)scale(0.1 -0.1)">
       <use xlink:href="#DejaVuSans-52"/>
      </g>
     </g>
    </g>
    <g id="ytick_9">
     <g id="line2d_28">
      <defs>
       <path d="M 0 0 
L -2 0 
" id="mfe62193f1e" style="stroke:#000000;stroke-width:0.6;"/>
      </defs>
      <g>
       <use style="stroke:#000000;stroke-width:0.6;" x="248.656438" xlink:href="#mfe62193f1e" y="345.583155"/>
      </g>
     </g>
    </g>
    <g id="ytick_10">
     <g id="line2d_29">
      <g>
       <use style="stroke:#000000;stroke-width:0.6;" x="248.656438" xlink:href="#mfe62193f1e" y="337.258043"/>
      </g>
     </g>
    </g>
    <g id="ytick_11">
     <g id="line2d_30">
      <g>
       <use style="stroke:#000000;stroke-width:0.6;" x="248.656438" xlink:href="#mfe62193f1e" y="328.93293"/>
      </g>
     </g>
    </g>
    <g id="ytick_12">
     <g id="line2d_31">
      <g>
       <use style="stroke:#000000;stroke-width:0.6;" x="248.656438" xlink:href="#mfe62193f1e" y="312.282704"/>
      </g>
     </g>
    </g>
    <g id="ytick_13">
     <g id="line2d_32">
      <g>
       <use style="stroke:#000000;stroke-width:0.6;" x="248.656438" xlink:href="#mfe62193f1e" y="303.957591"/>
      </g>
     </g>
    </g>
    <g id="ytick_14">
     <g id="line2d_33">
      <g>
       <use style="stroke:#000000;stroke-width:0.6;" x="248.656438" xlink:href="#mfe62193f1e" y="295.632478"/>
      </g>
     </g>
    </g>
    <g id="ytick_15">
     <g id="line2d_34">
      <g>
       <use style="stroke:#000000;stroke-width:0.6;" x="248.656438" xlink:href="#mfe62193f1e" y="287.307365"/>
      </g>
     </g>
    </g>
    <g id="ytick_16">
     <g id="line2d_35">
      <g>
       <use style="stroke:#000000;stroke-width:0.6;" x="248.656438" xlink:href="#mfe62193f1e" y="270.657139"/>
      </g>
     </g>
    </g>
    <g id="ytick_17">
     <g id="line2d_36">
      <g>
       <use style="stroke:#000000;stroke-width:0.6;" x="248.656438" xlink:href="#mfe62193f1e" y="262.332026"/>
      </g>
     </g>
    </g>
    <g id="ytick_18">
     <g id="line2d_37">
      <g>
       <use style="stroke:#000000;stroke-width:0.6;" x="248.656438" xlink:href="#mfe62193f1e" y="254.006913"/>
      </g>
     </g>
    </g>
    <g id="ytick_19">
     <g id="line2d_38">
      <g>
       <use style="stroke:#000000;stroke-width:0.6;" x="248.656438" xlink:href="#mfe62193f1e" y="245.6818"/>
      </g>
     </g>
    </g>
    <g id="ytick_20">
     <g id="line2d_39">
      <g>
       <use style="stroke:#000000;stroke-width:0.6;" x="248.656438" xlink:href="#mfe62193f1e" y="229.031575"/>
      </g>
     </g>
    </g>
    <g id="ytick_21">
     <g id="line2d_40">
      <g>
       <use style="stroke:#000000;stroke-width:0.6;" x="248.656438" xlink:href="#mfe62193f1e" y="220.706462"/>
      </g>
     </g>
    </g>
    <g id="ytick_22">
     <g id="line2d_41">
      <g>
       <use style="stroke:#000000;stroke-width:0.6;" x="248.656438" xlink:href="#mfe62193f1e" y="212.381349"/>
      </g>
     </g>
    </g>
    <g id="ytick_23">
     <g id="line2d_42">
      <g>
       <use style="stroke:#000000;stroke-width:0.6;" x="248.656438" xlink:href="#mfe62193f1e" y="204.056236"/>
      </g>
     </g>
    </g>
    <g id="ytick_24">
     <g id="line2d_43">
      <g>
       <use style="stroke:#000000;stroke-width:0.6;" x="248.656438" xlink:href="#mfe62193f1e" y="187.40601"/>
      </g>
     </g>
    </g>
    <g id="ytick_25">
     <g id="line2d_44">
      <g>
       <use style="stroke:#000000;stroke-width:0.6;" x="248.656438" xlink:href="#mfe62193f1e" y="179.080897"/>
      </g>
     </g>
    </g>
    <g id="ytick_26">
     <g id="line2d_45">
      <g>
       <use style="stroke:#000000;stroke-width:0.6;" x="248.656438" xlink:href="#mfe62193f1e" y="170.755784"/>
      </g>
     </g>
    </g>
    <g id="ytick_27">
     <g id="line2d_46">
      <g>
       <use style="stroke:#000000;stroke-width:0.6;" x="248.656438" xlink:href="#mfe62193f1e" y="162.430671"/>
      </g>
     </g>
    </g>
    <g id="ytick_28">
     <g id="line2d_47">
      <g>
       <use style="stroke:#000000;stroke-width:0.6;" x="248.656438" xlink:href="#mfe62193f1e" y="145.780445"/>
      </g>
     </g>
    </g>
    <g id="ytick_29">
     <g id="line2d_48">
      <g>
       <use style="stroke:#000000;stroke-width:0.6;" x="248.656438" xlink:href="#mfe62193f1e" y="137.455332"/>
      </g>
     </g>
    </g>
    <g id="ytick_30">
     <g id="line2d_49">
      <g>
       <use style="stroke:#000000;stroke-width:0.6;" x="248.656438" xlink:href="#mfe62193f1e" y="129.13022"/>
      </g>
     </g>
    </g>
    <g id="ytick_31">
     <g id="line2d_50">
      <g>
       <use style="stroke:#000000;stroke-width:0.6;" x="248.656438" xlink:href="#mfe62193f1e" y="120.805107"/>
      </g>
     </g>
    </g>
    <g id="ytick_32">
     <g id="line2d_51">
      <g>
       <use style="stroke:#000000;stroke-width:0.6;" x="248.656438" xlink:href="#mfe62193f1e" y="104.154881"/>
      </g>
     </g>
    </g>
    <g id="ytick_33">
     <g id="line2d_52">
      <g>
       <use style="stroke:#000000;stroke-width:0.6;" x="248.656438" xlink:href="#mfe62193f1e" y="95.829768"/>
      </g>
     </g>
    </g>
    <g id="ytick_34">
     <g id="line2d_53">
      <g>
       <use style="stroke:#000000;stroke-width:0.6;" x="248.656438" xlink:href="#mfe62193f1e" y="87.504655"/>
      </g>
     </g>
    </g>
    <g id="ytick_35">
     <g id="line2d_54">
      <g>
       <use style="stroke:#000000;stroke-width:0.6;" x="248.656438" xlink:href="#mfe62193f1e" y="79.179542"/>
      </g>
     </g>
    </g>
    <g id="ytick_36">
     <g id="line2d_55">
      <g>
       <use style="stroke:#000000;stroke-width:0.6;" x="248.656438" xlink:href="#mfe62193f1e" y="62.529316"/>
      </g>
     </g>
    </g>
    <g id="ytick_37">
     <g id="line2d_56">
      <g>
       <use style="stroke:#000000;stroke-width:0.6;" x="248.656438" xlink:href="#mfe62193f1e" y="54.204203"/>
      </g>
     </g>
    </g>
    <g id="ytick_38">
     <g id="line2d_57">
      <g>
       <use style="stroke:#000000;stroke-width:0.6;" x="248.656438" xlink:href="#mfe62193f1e" y="45.87909"/>
      </g>
     </g>
    </g>
    <g id="ytick_39">
     <g id="line2d_58">
      <g>
       <use style="stroke:#000000;stroke-width:0.6;" x="248.656438" xlink:href="#mfe62193f1e" y="37.553977"/>
      </g>
     </g>
    </g>
    <g id="ytick_40">
     <g id="line2d_59">
      <g>
       <use style="stroke:#000000;stroke-width:0.6;" x="248.656438" xlink:href="#mfe62193f1e" y="20.903752"/>
      </g>
     </g>
    </g>
    <g id="ytick_41">
     <g id="line2d_60">
      <g>
       <use style="stroke:#000000;stroke-width:0.6;" x="248.656438" xlink:href="#mfe62193f1e" y="12.578639"/>
      </g>
     </g>
    </g>
    <g id="ytick_42">
     <g id="line2d_61">
      <g>
       <use style="stroke:#000000;stroke-width:0.6;" x="248.656438" xlink:href="#mfe62193f1e" y="4.253526"/>
      </g>
     </g>
    </g>
   </g>
   <g id="line2d_62">
    <path clip-path="url(#p29a1a750b6)" d="M 248.656438 195.731123 
L 250.207201 192.922287 
L 250.929023 191.186837 
L 251.445351 189.588477 
L 251.978479 187.098999 
L 252.193614 184.348882 
L 252.0796 182.121688 
L 251.85849 180.650399 
L 251.525906 179.215341 
L 250.967458 177.499804 
L 250.282716 175.915134 
L 249.380574 174.270763 
L 248.084648 172.407849 
L 246.992667 171.128149 
L 244.475514 168.821463 
L 241.960826 167.124132 
L 238.48106 165.463498 
L 236.646338 164.840654 
L 234.005394 164.201395 
L 232.327197 163.938118 
L 228.671876 163.715204 
L 225.058918 163.93696 
L 220.48288 164.824777 
L 217.471873 165.782206 
L 214.512267 167.025789 
L 210.90589 168.97963 
L 207.82001 171.080691 
L 206.450099 172.15724 
L 204.383178 173.97191 
L 201.790674 176.623808 
L 199.798307 179.008615 
L 197.765412 181.84015 
L 195.926779 184.861314 
L 194.819591 186.966096 
L 193.509805 189.844481 
L 191.844143 194.471302 
L 190.699988 198.90916 
L 190.239712 201.376893 
L 189.88668 203.948826 
L 189.64734 206.699796 
L 189.582783 212.190643 
L 189.650824 213.560308 
L 189.943012 216.789518 
L 190.541709 220.682068 
L 191.411698 224.567387 
L 193.019136 229.775078 
L 194.48633 233.479425 
L 196.879418 238.38957 
L 197.889583 240.180949 
L 199.819139 243.270217 
L 202.873405 247.484658 
L 205.822956 250.971966 
L 209.322543 254.549786 
L 211.099744 256.176157 
L 215.350263 259.634083 
L 219.709923 262.644875 
L 221.12352 263.519779 
L 224.255286 265.298839 
L 227.442616 266.900953 
L 232.288165 268.970856 
L 235.340593 270.066071 
L 241.756218 271.885318 
L 246.338262 272.809841 
L 250.581571 273.402541 
L 254.769913 273.747374 
L 258.504607 273.857926 
L 262.166773 273.788238 
L 266.421472 273.486725 
L 269.09098 273.176171 
L 275.517495 272.039459 
L 281.720323 270.405618 
L 285.934495 268.980391 
L 290.347828 267.198403 
L 296.077482 264.410381 
L 299.907103 262.221312 
L 302.206631 260.770289 
L 305.746948 258.318741 
L 308.67052 256.07764 
L 312.972341 252.377806 
L 316.582367 248.846354 
L 320.843435 244.070397 
L 323.750555 240.347454 
L 325.531285 237.838832 
L 328.255039 233.589342 
L 329.967319 230.604267 
L 331.938461 226.782187 
L 334.070027 222.029262 
L 335.324911 218.814319 
L 337.739949 211.202868 
L 339.205256 204.807615 
L 340.027245 199.699533 
L 340.551011 194.592217 
L 340.715614 191.759212 
L 340.763256 185.436727 
L 340.480051 180.319156 
L 339.791145 174.395982 
L 338.930639 169.528849 
L 338.276613 166.577063 
L 337.347403 163.00111 
L 336.448174 159.997612 
L 335.221627 156.393889 
L 333.667381 152.401187 
L 330.887063 146.330178 
L 328.414644 141.721815 
L 325.22213 136.537671 
L 323.626204 134.198497 
L 321.162825 130.856465 
L 316.768589 125.560348 
L 313.257976 121.828023 
L 309.954706 118.650956 
L 303.802339 113.457944 
L 298.482549 109.609053 
L 291.945943 105.566452 
L 288.16946 103.536149 
L 283.325352 101.228131 
L 278.125517 99.09396 
L 274.919932 97.944535 
L 267.163656 95.655417 
L 261.159443 94.336172 
L 258.214933 93.827441 
L 250.953636 92.94974 
L 245.805545 92.645627 
L 241.148069 92.594628 
L 236.371084 92.76246 
L 232.210347 93.090599 
L 227.513685 93.666128 
L 222.589062 94.506514 
L 217.602493 95.610021 
L 214.210425 96.509712 
L 210.840262 97.526514 
L 201.956752 100.822171 
L 195.491232 103.822249 
L 189.467354 107.120213 
L 185.008759 109.904867 
L 181.210451 112.530649 
L 176.22444 116.36997 
L 172.068947 119.952179 
L 168.85265 122.99578 
L 165.432852 126.526881 
L 162.647818 129.657781 
L 158.411896 134.937715 
L 154.669685 140.238189 
L 151.748786 144.903224 
L 149.258643 149.348405 
L 147.171189 153.499782 
L 144.82036 158.790615 
L 143.591449 161.899951 
L 141.965894 166.512192 
L 140.535491 171.233956 
L 138.721057 178.757919 
L 137.656988 184.820011 
L 137.020895 189.986722 
L 136.599976 195.731123 
L 136.599976 195.731123 
" style="fill:none;stroke:#0000cc;stroke-linecap:square;"/>
   </g>
   <g id="line2d_63">
    <path clip-path="url(#p29a1a750b6)" d="M 248.656438 195.731123 
L 249.589314 194.171753 
L 250.395789 192.602891 
L 251.239216 190.614166 
L 251.830814 188.84201 
L 252.280171 187.057821 
L 252.69135 184.331407 
L 252.769783 181.501092 
L 252.579636 179.282407 
L 252.001846 176.454286 
L 251.302525 174.330378 
L 250.377032 172.257521 
L 248.585676 169.315581 
L 247.386863 167.783333 
L 245.68118 165.978135 
L 242.802855 163.612592 
L 239.064651 161.407312 
L 237.064792 160.527647 
L 235.190096 159.860232 
L 233.274479 159.319132 
L 229.022949 158.571379 
L 226.111348 158.386383 
L 222.441951 158.50374 
L 218.664538 159.017531 
L 216.728063 159.433845 
L 212.044514 160.876236 
L 209.864612 161.765105 
L 206.706154 163.313884 
L 203.995093 164.907707 
L 200.465933 167.390541 
L 197.559833 169.832331 
L 193.076705 174.47345 
L 191.98787 175.798467 
L 189.852495 178.6827 
L 188.338302 181.004957 
L 187.024289 183.255299 
L 184.926446 187.457855 
L 183.43868 191.105602 
L 182.433966 194.071086 
L 181.686824 196.695601 
L 180.815436 200.55566 
L 180.1448 204.862481 
L 179.866463 207.731881 
L 179.692878 212.019708 
L 179.770959 215.711799 
L 180.056085 219.396358 
L 180.431485 222.334691 
L 181.300644 227.005562 
L 181.911897 229.530612 
L 183.029611 233.348977 
L 184.895441 238.438396 
L 187.173402 243.438067 
L 188.63286 246.196025 
L 190.807762 249.851312 
L 193.722201 254.112765 
L 195.598007 256.557583 
L 200.46301 262.074959 
L 202.387468 263.990566 
L 205.05965 266.443265 
L 209.539394 270.08915 
L 213.966899 273.204631 
L 219.666619 276.612043 
L 224.659419 279.112803 
L 227.091168 280.183223 
L 232.180111 282.134999 
L 235.423763 283.187254 
L 241.312911 284.740583 
L 248.155902 285.999963 
L 255.557681 286.737224 
L 258.957966 286.865184 
L 262.07197 286.867792 
L 266.293406 286.6974 
L 271.637153 286.194634 
L 276.575222 285.442564 
L 280.586031 284.625122 
L 288.08871 282.583219 
L 291.776479 281.324843 
L 295.288529 279.962726 
L 301.589086 277.096046 
L 304.590057 275.527459 
L 309.569318 272.611112 
L 315.151708 268.830629 
L 317.993879 266.675266 
L 322.988201 262.460488 
L 328.949615 256.595074 
L 331.092607 254.222961 
L 333.887918 250.880534 
L 336.584717 247.349067 
L 339.210883 243.566153 
L 341.755167 239.507797 
L 343.212677 236.972059 
L 345.525808 232.55668 
L 347.262156 228.847847 
L 348.879136 224.994254 
L 349.991775 222.051779 
L 351.639763 217.091775 
L 353.286908 211.022636 
L 354.453331 205.480498 
L 355.765236 195.672506 
L 356.045854 191.393103 
L 356.137357 184.746199 
L 355.895223 179.20192 
L 355.400357 173.96771 
L 354.437173 167.55214 
L 352.332724 158.279725 
L 350.616715 152.617773 
L 348.528262 146.885075 
L 345.842644 140.673257 
L 343.169014 135.35508 
L 341.270652 131.963881 
L 338.342913 127.220168 
L 334.801709 122.108978 
L 331.700972 118.084114 
L 328.264545 114.026915 
L 321.483146 107.02718 
L 315.725519 101.933368 
L 312.546619 99.400951 
L 309.072728 96.836046 
L 303.106386 92.876457 
L 299.929484 90.977846 
L 296.541225 89.10108 
L 290.836318 86.263649 
L 286.059493 84.178353 
L 280.758549 82.1537 
L 276.476012 80.728754 
L 271.057289 79.183 
L 268.081579 78.452168 
L 263.242087 77.43679 
L 259.779227 76.838959 
L 251.933358 75.871465 
L 248.57132 75.61829 
L 244.386759 75.436611 
L 238.640007 75.426661 
L 232.197739 75.744279 
L 229.063962 76.024795 
L 224.581134 76.57054 
L 216.036015 78.089139 
L 212.230542 78.971878 
L 204.082603 81.305754 
L 197.388276 83.696361 
L 189.936441 86.893357 
L 183.580019 90.101237 
L 176.700947 94.119558 
L 172.437681 96.922514 
L 169.205134 99.221678 
L 163.978191 103.285944 
L 158.862953 107.725016 
L 153.740616 112.696876 
L 151.520512 115.037988 
L 146.937602 120.281793 
L 144.947734 122.753056 
L 138.948701 131.074825 
L 135.634815 136.368869 
L 132.627396 141.740696 
L 129.121706 148.910596 
L 127.096371 153.658498 
L 125.151666 158.801829 
L 122.798397 166.150841 
L 120.850953 173.806207 
L 119.995242 177.987552 
L 119.097627 183.410448 
L 118.299303 190.252153 
L 117.923899 195.731123 
L 117.923899 195.731123 
" style="fill:none;stroke:#3ccc00;stroke-linecap:square;"/>
   </g>
   <g id="line2d_64">
    <path clip-path="url(#p29a1a750b6)" d="M 248.656438 195.731123 
L 250.412503 192.634669 
L 251.672899 189.709216 
L 252.575617 186.782864 
L 253.043018 184.498533 
L 253.268187 182.69821 
L 253.350858 179.298925 
L 253.17292 177.181983 
L 252.883832 175.408503 
L 252.406147 173.437233 
L 251.498913 170.816423 
L 249.7006 167.246381 
L 246.907635 163.446792 
L 244.845665 161.343375 
L 241.397668 158.632371 
L 240.280304 157.916877 
L 236.964077 156.159634 
L 233.706179 154.879192 
L 231.270159 154.165795 
L 229.095258 153.686502 
L 224.950858 153.148113 
L 223.052531 153.055066 
L 219.726604 153.112333 
L 215.128872 153.638572 
L 213.272122 153.996064 
L 210.724308 154.622827 
L 207.363053 155.694862 
L 204.088981 157.016646 
L 200.898483 158.583063 
L 195.97119 161.593483 
L 194.569816 162.594156 
L 189.715544 166.634505 
L 185.220382 171.338444 
L 183.40117 173.577712 
L 181.645484 175.968084 
L 178.601894 180.791475 
L 177.246944 183.302782 
L 174.694325 188.948156 
L 172.945652 193.924497 
L 172.065191 197.044329 
L 171.095273 201.394703 
L 170.473641 205.249412 
L 169.953369 210.769646 
L 169.862762 216.758782 
L 170.001405 219.802872 
L 170.513207 224.925682 
L 171.076061 228.491152 
L 171.629159 231.250307 
L 172.783294 235.850589 
L 174.564091 241.374585 
L 176.560223 246.361416 
L 177.889992 249.240398 
L 181.43904 255.793224 
L 183.822998 259.539397 
L 186.753062 263.626655 
L 190.72803 268.472107 
L 193.927016 271.910127 
L 197.752078 275.583677 
L 199.676092 277.275886 
L 205.631955 281.951306 
L 210.278397 285.087147 
L 213.430914 286.992224 
L 217.04948 288.977564 
L 220.567986 290.716678 
L 226.159093 293.122515 
L 231.126958 294.919156 
L 235.610329 296.28378 
L 243.226639 298.078233 
L 247.144676 298.756725 
L 254.138317 299.572185 
L 259.772583 299.870125 
L 262.564376 299.901093 
L 266.751232 299.803759 
L 272.777639 299.36142 
L 277.788686 298.720837 
L 281.241744 298.133726 
L 284.932296 297.372905 
L 291.958553 295.534442 
L 295.589053 294.377865 
L 299.416065 293.000312 
L 307.573585 289.492467 
L 310.926791 287.810858 
L 317.257565 284.221893 
L 321.217378 281.679839 
L 326.642708 277.785501 
L 331.879103 273.521597 
L 335.09365 270.62601 
L 338.536168 267.260052 
L 342.320286 263.202047 
L 344.731624 260.393666 
L 350.241187 253.194135 
L 354.52796 246.639583 
L 358.187798 240.138128 
L 360.7167 234.977665 
L 363.67569 227.944109 
L 365.658215 222.344381 
L 367.250503 217.037722 
L 369.099033 209.299345 
L 369.67291 206.284672 
L 370.779663 198.581222 
L 371.235304 193.466657 
L 371.508407 186.024967 
L 371.299893 178.159084 
L 371.092697 175.23919 
L 370.508121 169.719791 
L 369.426424 162.861792 
L 368.056621 156.470654 
L 367.26229 153.36636 
L 365.822411 148.435373 
L 364.283062 143.854017 
L 361.840124 137.564738 
L 357.990489 129.255529 
L 354.172986 122.294552 
L 351.166151 117.449577 
L 348.354181 113.317035 
L 344.62354 108.321724 
L 342.153264 105.27396 
L 336.365336 98.808179 
L 329.219487 91.899065 
L 327.267788 90.18659 
L 323.223521 86.848247 
L 317.891251 82.841561 
L 313.746533 80.007681 
L 305.269366 74.892482 
L 297.92218 71.122552 
L 290.770477 67.984818 
L 286.871566 66.479881 
L 278.347813 63.663936 
L 270.249431 61.558753 
L 263.051327 60.130128 
L 255.273793 59.036826 
L 245.979005 58.32636 
L 239.126336 58.210963 
L 231.522699 58.485701 
L 226.123257 58.938531 
L 220.575446 59.628556 
L 211.679654 61.218194 
L 207.994993 62.054593 
L 198.946147 64.56598 
L 192.827472 66.646451 
L 183.102751 70.627732 
L 180.81714 71.690243 
L 174.149078 75.084084 
L 167.679963 78.822166 
L 164.017517 81.14824 
L 157.258375 85.875883 
L 152.753993 89.36858 
L 147.751916 93.604686 
L 142.908867 98.106368 
L 140.134298 100.883076 
L 136.167277 105.133014 
L 132.206731 109.745452 
L 129.263183 113.446471 
L 124.389539 120.178546 
L 119.709899 127.516556 
L 113.189641 139.745102 
L 109.065271 149.329612 
L 107.27812 154.181375 
L 105.223718 160.541238 
L 103.198482 168.059195 
L 101.669749 175.162696 
L 100.203568 184.534469 
L 99.612651 190.204856 
L 99.247822 195.731123 
L 99.247822 195.731123 
" style="fill:none;stroke:#cc0077;stroke-linecap:square;"/>
   </g>
   <g id="line2d_65">
    <path clip-path="url(#p29a1a750b6)" d="M 248.656438 195.731123 
L 250.132903 193.217685 
L 251.111958 191.236912 
L 251.939829 189.251052 
L 252.795446 186.674131 
L 253.21226 185.049686 
L 253.866314 180.816966 
L 253.962536 178.297693 
L 253.88489 176.334683 
L 253.675621 174.404629 
L 252.989316 171.063146 
L 252.096418 168.314407 
L 250.724328 165.271061 
L 249.010387 162.40603 
L 246.663246 159.382003 
L 244.825942 157.47235 
L 243.177801 156.004497 
L 240.755407 154.174951 
L 238.677116 152.858006 
L 236.850266 151.86207 
L 234.899553 150.944753 
L 231.87054 149.783772 
L 229.707393 149.13013 
L 227.20363 148.538971 
L 221.907912 147.819432 
L 217.868021 147.716044 
L 214.286714 147.927821 
L 209.756096 148.593029 
L 206.776995 149.271056 
L 204.425749 149.942444 
L 199.870434 151.5946 
L 196.113585 153.322365 
L 191.655687 155.835853 
L 188.963866 157.619874 
L 186.473127 159.4677 
L 181.982265 163.34159 
L 177.908326 167.576418 
L 173.457769 173.228622 
L 171.871582 175.580869 
L 169.418994 179.68374 
L 166.370946 185.880122 
L 165.199107 188.739432 
L 163.054337 195.136377 
L 161.958911 199.413687 
L 161.009448 204.335635 
L 160.507151 208.010345 
L 160.19251 211.432328 
L 160.024893 214.754872 
L 160.017772 219.548398 
L 160.24999 223.923194 
L 160.537496 226.900343 
L 161.146237 231.249698 
L 162.597305 238.232129 
L 163.239011 240.651919 
L 165.275588 247.005556 
L 168.802662 255.427594 
L 171.636158 260.888141 
L 173.469383 264.014411 
L 177.156743 269.591254 
L 179.936974 273.304366 
L 184.18504 278.347741 
L 186.153237 280.469165 
L 189.599964 283.906307 
L 193.243696 287.203084 
L 196.335605 289.762824 
L 201.667177 293.728676 
L 205.547463 296.298507 
L 212.087866 300.100416 
L 218.998832 303.47655 
L 223.188961 305.23421 
L 226.928149 306.631374 
L 231.12366 308.0163 
L 236.204306 309.446782 
L 241.509041 310.66498 
L 248.527416 311.86332 
L 257.074987 312.71217 
L 263.224834 312.920129 
L 272.975269 312.570779 
L 278.825979 311.96227 
L 283.350664 311.284857 
L 292.649787 309.315334 
L 297.600293 307.941177 
L 305.367866 305.308231 
L 312.69947 302.259116 
L 315.34382 301.017053 
L 320.192111 298.532338 
L 327.448078 294.277393 
L 333.179009 290.417769 
L 338.500924 286.392377 
L 343.239478 282.407431 
L 346.912008 279.027879 
L 350.686757 275.256818 
L 354.029454 271.634574 
L 357.083566 268.0623 
L 361.043635 262.998926 
L 363.349001 259.791562 
L 369.204869 250.563534 
L 371.59575 246.229829 
L 375.366702 238.463859 
L 378.988031 229.451734 
L 381.547314 221.567994 
L 383.16613 215.455143 
L 384.133208 211.098967 
L 385.363798 204.159408 
L 386.065887 198.748111 
L 386.45747 194.560929 
L 386.75878 189.443463 
L 386.86573 184.656618 
L 386.697981 177.207385 
L 386.19768 170.486814 
L 385.454201 164.380026 
L 384.054459 156.362851 
L 383.365591 153.191395 
L 381.949844 147.562238 
L 380.179504 141.616541 
L 378.872568 137.751822 
L 375.448707 129.026338 
L 372.770543 123.185201 
L 370.351693 118.439368 
L 366.678092 111.967049 
L 362.093354 104.845013 
L 355.188391 95.603221 
L 348.96997 88.434784 
L 346.077673 85.40238 
L 340.23273 79.771594 
L 332.181952 72.951694 
L 322.316016 65.827533 
L 315.525989 61.598555 
L 310.899727 58.997966 
L 302.666011 54.884684 
L 299.391374 53.42077 
L 294.40744 51.369933 
L 288.683749 49.26739 
L 280.323633 46.65735 
L 276.269245 45.580359 
L 264.372767 43.099384 
L 260.454002 42.497182 
L 256.245323 41.966145 
L 246.458264 41.187131 
L 236.165148 41.045805 
L 228.81803 41.367087 
L 220.44644 42.163225 
L 211.054297 43.608659 
L 199.911592 46.100975 
L 193.056652 48.068794 
L 188.118504 49.699653 
L 183.416161 51.424403 
L 178.56399 53.385874 
L 169.900407 57.370462 
L 165.424304 59.6852 
L 158.38514 63.704296 
L 151.648447 68.018072 
L 148.484104 70.214734 
L 142.714258 74.524041 
L 137.1488 79.085333 
L 130.088426 85.517089 
L 126.841879 88.747091 
L 121.446723 94.548631 
L 114.315036 103.1921 
L 108.3417 111.494642 
L 105.858923 115.299218 
L 101.595299 122.432922 
L 99.168865 126.899393 
L 94.349709 136.924426 
L 92.508514 141.282539 
L 89.500946 149.289637 
L 86.745714 158.025066 
L 85.025381 164.562314 
L 82.989256 174.258659 
L 81.312018 186.053253 
L 80.571745 195.731123 
L 80.571745 195.731123 
" style="fill:none;stroke:#00b3cc;stroke-linecap:square;"/>
   </g>
   <g id="line2d_66">
    <path clip-path="url(#p29a1a750b6)" d="M 248.656438 195.731123 
L 250.393984 192.755651 
L 251.964996 189.393375 
L 252.713702 187.396085 
L 253.330283 185.401198 
L 254.127532 181.765669 
L 254.481971 178.661881 
L 254.550123 176.136277 
L 254.366745 173.094733 
L 253.997977 170.621705 
L 253.434917 168.190316 
L 252.25426 164.697705 
L 250.639536 161.299825 
L 248.754014 158.27466 
L 247.822381 157.011609 
L 246.129258 154.994092 
L 244.523117 153.339185 
L 240.534187 150.018381 
L 238.435048 148.616363 
L 236.228199 147.346348 
L 233.4289 145.99369 
L 229.556931 144.531239 
L 227.815953 144.010755 
L 224.27687 143.188927 
L 221.409977 142.73889 
L 214.893503 142.37416 
L 212.686733 142.446735 
L 206.883689 143.09236 
L 203.393778 143.794577 
L 199.093654 144.986589 
L 195.364018 146.319961 
L 189.624324 148.944518 
L 185.893115 151.050965 
L 183.891217 152.322133 
L 180.64364 154.611082 
L 177.890971 156.790213 
L 174.053622 160.24151 
L 171.504507 162.838753 
L 168.972164 165.699993 
L 167.027948 168.116311 
L 164.507334 171.585107 
L 162.543345 174.603531 
L 160.200879 178.659203 
L 157.964149 183.141052 
L 155.962138 187.869254 
L 153.802537 194.183239 
L 153.098788 196.67846 
L 151.839864 202.114934 
L 151.304012 205.086651 
L 150.729521 209.228082 
L 150.380713 212.933788 
L 150.134744 219.556624 
L 150.185442 222.740718 
L 150.44332 227.258869 
L 151.193506 233.744784 
L 152.305789 239.824175 
L 153.879474 246.107319 
L 155.870435 252.311319 
L 159.42484 260.987893 
L 162.170996 266.476026 
L 166.501749 273.804988 
L 169.372457 278.022163 
L 172.884997 282.658951 
L 179.406029 290.090836 
L 182.742664 293.421824 
L 187.454705 297.682326 
L 191.321152 300.840408 
L 195.308022 303.816052 
L 198.774588 306.193786 
L 204.56906 309.775434 
L 209.452499 312.44721 
L 216.947487 315.992843 
L 225.241093 319.207562 
L 228.670301 320.335722 
L 233.798937 321.815801 
L 239.376619 323.154818 
L 248.036654 324.700176 
L 254.102743 325.41053 
L 258.696963 325.750049 
L 267.154816 325.935734 
L 272.247736 325.775589 
L 279.770355 325.166169 
L 283.769238 324.660427 
L 294.150097 322.749769 
L 299.269387 321.482828 
L 304.243237 320.040011 
L 309.462676 318.294599 
L 315.387876 316.014976 
L 323.018772 312.58662 
L 326.388653 310.886071 
L 335.021158 305.967028 
L 337.712958 304.256329 
L 342.288111 301.13979 
L 348.006591 296.845519 
L 353.572201 292.193921 
L 360.195508 285.96287 
L 365.756369 280.047101 
L 367.665104 277.850253 
L 371.996113 272.50262 
L 376.763074 265.937139 
L 381.716241 258.165436 
L 386.376667 249.669998 
L 387.954232 246.45277 
L 392.271521 236.410809 
L 395.167037 228.197 
L 397.913651 218.462914 
L 399.822688 209.505625 
L 400.99992 201.892505 
L 401.620587 196.198314 
L 402.055327 189.848877 
L 402.146042 177.839754 
L 401.230378 165.346592 
L 400.733091 161.45165 
L 399.686501 155.008699 
L 398.306219 148.347061 
L 396.312082 140.606912 
L 394.503607 134.71381 
L 392.581696 129.214956 
L 389.647137 121.871302 
L 387.994273 118.153669 
L 385.251345 112.493852 
L 382.564026 107.447593 
L 379.088751 101.504754 
L 373.212242 92.620034 
L 371.599185 90.390936 
L 364.660088 81.631121 
L 361.108716 77.594244 
L 357.505833 73.761741 
L 353.125626 69.420872 
L 347.243931 64.079207 
L 341.737207 59.526169 
L 333.465126 53.400432 
L 331.045181 51.755473 
L 325.628545 48.295043 
L 314.519806 42.077083 
L 308.59025 39.199646 
L 303.290121 36.867957 
L 297.796021 34.678428 
L 291.2567 32.360351 
L 283.037144 29.869882 
L 279.237332 28.871891 
L 272.327382 27.297279 
L 265.734241 26.07648 
L 251.131634 24.319893 
L 244.217969 23.932813 
L 234.089025 23.873566 
L 229.018153 24.069783 
L 216.055729 25.258884 
L 211.090455 25.978696 
L 201.444156 27.803832 
L 193.025475 29.868189 
L 178.428895 34.537534 
L 168.657432 38.483968 
L 161.480339 41.833152 
L 154.455256 45.506446 
L 144.396533 51.503144 
L 135.225741 57.808164 
L 130.942228 61.057117 
L 121.435699 69.048229 
L 116.588224 73.587094 
L 110.376126 79.932182 
L 101.829408 89.804437 
L 97.534517 95.36535 
L 92.795156 102.06968 
L 90.732264 105.203216 
L 86.232507 112.57639 
L 82.461059 119.439117 
L 79.521003 125.331606 
L 76.198894 132.722048 
L 73.584861 139.248653 
L 69.213322 152.25724 
L 67.961455 156.708933 
L 65.479039 167.207191 
L 64.754224 170.923731 
L 62.711604 185.040286 
L 61.895668 195.731123 
L 61.895668 195.731123 
" style="fill:none;stroke:#ccaa00;stroke-linecap:square;"/>
   </g>
   <g id="line2d_67">
    <path clip-path="url(#p29a1a750b6)" d="M 248.656438 195.731123 
L 250.004447 193.491669 
L 251.566204 190.437737 
L 252.428917 188.429743 
L 253.727772 184.617405 
L 254.595464 180.837793 
L 255.031035 177.415952 
L 255.137966 174.066899 
L 255.028107 171.783544 
L 254.772414 169.537341 
L 254.195976 166.541623 
L 253.238081 163.25779 
L 251.928533 160.013534 
L 250.387307 157.061181 
L 248.59411 154.289283 
L 246.89614 152.091661 
L 244.039939 149.032818 
L 241.058702 146.449299 
L 239.031075 144.961835 
L 236.879093 143.579143 
L 233.417024 141.713015 
L 231.574787 140.876984 
L 228.79178 139.796563 
L 225.314191 138.725394 
L 221.968839 137.95953 
L 216.655193 137.226651 
L 212.568107 137.03705 
L 205.71337 137.404365 
L 203.637196 137.680221 
L 198.079215 138.791713 
L 192.599705 140.425392 
L 187.042786 142.648829 
L 184.225883 144.005661 
L 178.191102 147.475343 
L 174.069507 150.329317 
L 170.415726 153.231105 
L 166.502338 156.780803 
L 164.600458 158.692918 
L 162.374243 161.106928 
L 158.35806 166.019442 
L 156.999521 167.871629 
L 154.702627 171.267264 
L 151.573243 176.550013 
L 149.460304 180.678978 
L 148.232 183.355134 
L 146.453624 187.707349 
L 143.87603 195.553231 
L 142.517047 201.024946 
L 140.919348 210.730879 
L 140.512618 215.228427 
L 140.282531 221.984528 
L 140.350163 225.782936 
L 140.536309 229.278899 
L 140.995671 234.173499 
L 142.386522 242.874567 
L 142.984235 245.640302 
L 145.041303 253.301569 
L 148.424023 262.753349 
L 150.770262 268.088221 
L 152.967997 272.506543 
L 156.984588 279.551934 
L 159.824203 283.930945 
L 163.17803 288.610836 
L 166.760023 293.130463 
L 170.256714 297.14725 
L 172.73398 299.789522 
L 180.178621 306.877729 
L 185.215474 311.059623 
L 190.801821 315.21044 
L 196.973158 319.274367 
L 202.734448 322.629545 
L 207.220474 324.975666 
L 213.842047 328.047205 
L 223.315754 331.69828 
L 227.500277 333.052196 
L 231.470582 334.198047 
L 237.437906 335.675352 
L 245.561753 337.232388 
L 251.74788 338.079591 
L 255.567291 338.460352 
L 263.281755 338.904284 
L 271.533863 338.904418 
L 279.216132 338.467059 
L 286.002872 337.729319 
L 296.745661 335.879415 
L 303.795376 334.200844 
L 312.460149 331.614893 
L 318.836794 329.328356 
L 324.311958 327.093397 
L 332.521862 323.245215 
L 335.435458 321.728532 
L 340.526784 318.877008 
L 347.033273 314.837508 
L 353.671859 310.21856 
L 361.271683 304.241319 
L 367.28514 298.919525 
L 372.014409 294.314263 
L 378.93038 286.804358 
L 385.253718 278.96887 
L 388.437716 274.597349 
L 394.1788 265.814276 
L 397.143263 260.720777 
L 402.258989 250.730104 
L 405.004653 244.530125 
L 409.494128 232.446188 
L 411.618637 225.406882 
L 413.769488 216.731646 
L 415.578224 207.105311 
L 416.128696 203.315317 
L 417.172679 193.048314 
L 417.462797 187.669897 
L 417.573806 182.928141 
L 417.497008 176.113552 
L 416.980048 167.242116 
L 415.294167 153.813812 
L 413.208676 143.338167 
L 412.445901 140.187039 
L 410.392705 132.757095 
L 407.020928 122.689524 
L 405.452154 118.606493 
L 399.949296 106.242351 
L 396.361147 99.354304 
L 391.367872 90.849734 
L 387.221087 84.530964 
L 383.302319 79.05938 
L 379.095457 73.640677 
L 370.410617 63.678936 
L 366.360258 59.507983 
L 357.727735 51.456897 
L 346.764963 42.625239 
L 341.463034 38.833889 
L 334.729124 34.418613 
L 328.066942 30.455499 
L 320.026723 26.165563 
L 314.927403 23.705383 
L 308.659867 20.942418 
L 304.299089 19.182418 
L 296.711685 16.423661 
L 288.47785 13.847059 
L 277.493915 11.052666 
L 271.936874 9.908103 
L 267.551767 9.129122 
L 256.332893 7.62397 
L 247.412392 6.917907 
L 239.738835 6.652905 
L 234.352715 6.654678 
L 222.814834 7.178686 
L 211.58965 8.372525 
L 198.344349 10.663708 
L 189.352582 12.778337 
L 180.568249 15.29645 
L 176.623294 16.577276 
L 166.568953 20.278525 
L 162.895789 21.792652 
L 150.109581 27.780749 
L 141.876319 32.266324 
L 131.002605 39.024597 
L 123.365793 44.397015 
L 119.999405 46.944815 
L 112.554888 53.005057 
L 101.924396 62.803539 
L 90.796146 74.804877 
L 84.604341 82.44208 
L 78.234952 91.194855 
L 73.438345 98.520153 
L 70.226117 103.853725 
L 67.173377 109.301092 
L 62.485756 118.547515 
L 57.771618 129.275023 
L 54.972646 136.59264 
L 52.489558 143.922775 
L 50.131932 151.918281 
L 47.930964 160.777354 
L 45.798537 171.654284 
L 44.478033 180.790212 
L 43.994224 185.170081 
L 43.219592 195.731123 
L 43.219592 195.731123 
" style="fill:none;stroke:#6e00cc;stroke-linecap:square;"/>
   </g>
   <g id="patch_6">
    <path d="M 248.656438 345.6 
L 248.656438 0 
" style="fill:none;stroke:#000000;stroke-linecap:square;stroke-linejoin:miter;stroke-width:0.8;"/>
   </g>
   <g id="patch_7">
    <path d="M 35.732375 195.731123 
L 425.067625 195.731123 
" style="fill:none;stroke:#000000;stroke-linecap:square;stroke-linejoin:miter;stroke-width:0.8;"/>
   </g>
  </g>
 </g>
 <defs>
  <clipPath id="p29a1a750b6">
   <rect height="345.6" width="389.33525" x="35.732375" y="0"/>
  </clipPath>
 </defs>
</svg>
