<?xml version="1.0" encoding="utf-8" standalone="no"?>
<!DOCTYPE svg PUBLIC "-//W3C//DTD SVG 1.1//EN"
  "http://www.w3.org/Graphics/SVG/1.1/DTD/svg11.dtd">
<svg xmlns:xlink="http://www.w3.org/1999/xlink" width="460.8pt" height="345.6pt" viewBox="0 0 460.8 345.6" xmlns="http://www.w3.org/2000/svg" version="1.1">
 <metadata>
  <rdf:RDF xmlns:dc="http://purl.org/dc/elements/1.1/" xmlns:cc="http://creativecommons.org/ns#" xmlns:rdf="http://www.w3.org/1999/02/22-rdf-syntax-ns#">
   <cc:Work>
    <dc:type rdf:resource="http://purl.org/dc/dcmitype/StillImage"/>
    <dc:date>2022-05-16T19:39:20.112935</dc:date>
    <dc:format>image/svg+xml</dc:format>
    <dc:creator>
     <cc:Agent>
      <dc:title>Matplotlib v3.5.1, https://matplotlib.org/</dc:title>
     </cc:Agent>
    </dc:creator>
   </cc:Work>
  </rdf:RDF>
 </metadata>
 <defs>
  <style type="text/css">*{stroke-linejoin: round; stroke-linecap: butt}</style>
 </defs>
 <g id="figure_1">
  <g id="patch_1">
   <path d="M 0 345.6 
L 460.8 345.6 
L 460.8 0 
L 0 0 
z
" style="fill: #ffffff"/>
  </g>
  <g id="axes_1">
   <g id="patch_2">
    <path d="M 0 345.6 
L 460.8 345.6 
L 460.8 0 
L 0 0 
z
" style="fill: #ffffff"/>
   </g>
   <g id="patch_3">
    <path d="M 451.938462 39.876923 
L 449.101875 41.366131 
L 446.985171 42.477401 
L 444.784159 43.632932 
L 443.288432 44.418189 
L 440.085482 46.099737 
L 439.387616 46.466117 
L 436.80756 47.820646 
L 433.390511 49.614597 
L 430.964208 50.888406 
L 429.856742 51.469826 
L 427.50603 52.70395 
L 425.48856 53.763122 
L 423.418734 54.84978 
L 421.808398 55.695206 
L 418.396991 57.486195 
L 417.212049 58.10829 
L 413.082101 60.276512 
L 411.479275 61.117996 
L 409.745424 62.028268 
L 406.819443 63.564408 
L 404.447353 64.809755 
L 401.98641 66.10175 
L 400.100933 67.091626 
L 398.799558 67.774848 
L 395.542663 69.484717 
L 394.315274 70.129097 
L 391.623347 71.542358 
L 390.610552 72.074076 
L 387.946281 73.472818 
L 385.717155 74.643109 
L 383.247049 75.939915 
L 379.806467 77.74622 
L 379.023617 78.157217 
L 376.743968 79.354032 
L 374.10663 80.738634 
L 371.649819 82.02846 
L 369.400514 83.209346 
L 367.622561 84.142771 
L 364.93752 85.552417 
L 362.662013 86.747059 
L 360.835456 87.706001 
L 358.116406 89.133502 
L 357.291694 89.566476 
L 354.070811 91.25744 
L 351.573178 92.568697 
L 350.583227 93.088421 
L 348.303677 94.285185 
L 345.62169 95.693228 
L 343.392369 96.863622 
L 340.819002 98.214639 
L 338.763678 99.293684 
L 336.488984 100.487899 
L 333.44889 102.083948 
L 332.251495 102.71258 
L 330.36833 103.701242 
L 326.564613 105.698194 
L 324.566926 106.746979 
L 321.956601 108.1174 
L 319.994252 109.147633 
L 319.25058 109.538061 
L 316.140422 111.170894 
L 313.982856 112.303616 
L 311.793804 113.452868 
L 308.513751 115.174896 
L 306.418463 116.274923 
L 305.801745 116.598699 
L 303.134085 117.999221 
L 300.253579 119.511486 
L 297.750708 120.825494 
L 296.425393 121.521284 
L 293.373408 123.123576 
L 292.109625 123.787062 
L 289.106054 125.363937 
L 286.377064 126.796657 
L 285.17983 127.425205 
L 281.797625 129.200862 
L 280.095251 130.094609 
L 277.973379 131.208592 
L 275.099409 132.717426 
L 273.537473 133.537442 
L 271.936174 134.378124 
L 269.337142 135.742616 
L 266.186224 137.396848 
L 264.367065 138.351906 
L 261.948414 139.621698 
L 259.438391 140.93946 
L 257.594613 141.907444 
L 256.931967 142.255333 
L 254.862283 143.341917 
L 251.565369 145.072797 
L 248.925346 146.458809 
L 246.664216 147.645902 
L 244.127369 148.977746 
L 242.358164 149.906579 
L 239.40584 151.456549 
L 238.299041 152.037619 
L 235.347097 153.58739 
L 233.227995 154.699918 
L 232.00429 155.342363 
L 228.232004 157.322813 
L 226.518569 158.222367 
L 225.760149 158.620537 
L 222.778269 160.186024 
L 219.821024 161.738578 
L 217.114614 163.159443 
L 215.829698 163.834024 
L 212.596771 165.531311 
L 210.771563 166.489545 
L 208.272463 167.801573 
L 206.181642 168.899253 
L 203.971927 170.059354 
L 202.242819 170.967135 
L 200.228255 172.024782 
L 198.618697 172.8698 
L 196.897586 173.773383 
L 193.199302 175.714982 
L 190.50715 177.128362 
L 188.208847 178.33497 
L 187.283881 178.820578 
L 184.620865 180.218661 
L 182.246335 181.465289 
L 180.241901 182.517617 
L 178.87637 183.234521 
L 175.181491 185.174333 
L 173.963941 185.813546 
L 172.14428 186.768868 
L 168.658108 188.599109 
L 167.956342 188.967536 
L 163.912731 191.090432 
L 163.278557 191.423373 
L 161.30404 192.459994 
L 158.680728 193.837233 
L 155.329496 195.59663 
L 153.272638 196.67648 
L 150.844435 197.951287 
L 149.446862 198.685013 
L 147.898149 199.498087 
L 145.515247 200.749111 
L 141.578121 202.816102 
L 139.969132 203.660821 
L 139.090018 204.122356 
L 135.470978 206.022352 
L 133.731477 206.93559 
L 130.549744 208.606 
L 129.976078 208.907174 
L 126.360138 210.805543 
L 123.625382 212.24129 
L 122.699576 212.727338 
L 119.818117 214.240104 
L 118.032423 215.177593 
L 116.109761 216.186991 
L 112.810085 217.919321 
L 111.759528 218.470863 
L 107.966318 220.462298 
L 107.560129 220.675548 
L 103.891872 222.601382 
L 102.409987 223.379372 
L 100.986252 224.126833 
L 98.433542 225.467006 
L 96.259609 226.608321 
L 93.107498 228.263179 
L 90.449797 229.658472 
L 89.201292 230.313937 
L 86.672171 231.641726 
L 83.614996 233.246742 
L 82.138986 234.021648 
L 81.212888 234.507849 
L 78.712172 235.820725 
L 76.279877 237.09768 
L 74.248535 238.164135 
L 71.10335 239.815357 
L 69.936385 240.428013 
L 67.041403 241.947879 
L 64.937337 243.052514 
L 61.286138 244.969393 
L 59.33217 245.995226 
L 58.304543 246.534731 
L 56.037684 247.724831 
L 53.3231 249.149988 
L 51.521904 250.095616 
L 49.34357 251.239241 
L 46.401231 252.783969 
L 44.537925 253.762205 
L 41.387807 255.416017 
L 39.217462 256.555448 
L 38.520303 256.921456 
L 34.993484 258.773036 
L 32.823303 259.912381 
L 31.620428 260.543891 
L 29.226009 261.80096 
L 27.026883 262.955502 
L 23.796687 264.651355 
L 23.045142 265.045916 
L 20.872352 266.186631 
L 18.357175 267.507099 
L 15.010953 269.263865 
L 13.274885 270.175301 
L 11.364139 271.178443 
L 8.861538 272.492308 
L 8.861538 280.646154 
L 10.397235 279.890419 
L 12.400324 278.90566 
L 14.888976 277.683786 
L 18.36979 275.977858 
L 20.917277 274.73171 
L 21.245952 274.571083 
L 24.29076 273.08472 
L 26.913651 271.80681 
L 29.378622 270.608023 
L 31.826182 269.419871 
L 34.307034 268.217845 
L 36.050986 267.374287 
L 36.758377 267.032462 
L 40.392505 265.279604 
L 42.761972 264.139741 
L 44.663728 263.226666 
L 45.706626 262.726643 
L 48.061023 261.599681 
L 51.690077 259.867846 
L 53.27149 259.115254 
L 55.452192 258.079619 
L 57.363822 257.173894 
L 59.16275 256.323443 
L 62.683657 254.664411 
L 65.375411 253.401215 
L 67.766078 252.283252 
L 69.185215 251.621436 
L 71.290926 250.642035 
L 74.103502 249.338904 
L 76.479708 248.24267 
L 78.201882 247.450993 
L 79.125808 247.02728 
L 82.218288 245.614422 
L 84.64203 244.51312 
L 87.246831 243.335808 
L 90.014917 242.092224 
L 91.838562 241.27741 
L 93.914062 240.354617 
L 95.707637 239.561251 
L 98.229423 238.452505 
L 100.732729 237.360119 
L 101.787894 236.902254 
L 104.354458 235.795301 
L 106.608129 234.831603 
L 108.247486 234.135764 
L 112.305441 232.4335 
L 112.705711 232.267242 
L 116.768052 230.598105 
L 118.391939 229.940758 
L 120.147798 229.236846 
L 122.196578 228.425056 
L 125.742772 227.046344 
L 126.145094 226.89219 
L 128.074383 226.159831 
L 130.003672 225.439449 
L 130.536557 225.242702 
L 133.727821 224.086163 
L 136.299171 223.183732 
L 136.906438 222.97479 
L 138.567183 222.412118 
L 140.227928 221.863003 
L 141.580725 221.426455 
L 143.216445 220.912454 
L 144.852165 220.41477 
L 146.247855 220.004048 
L 148.201297 219.452644 
L 150.15474 218.931295 
L 151.362812 218.625393 
L 152.544746 218.339373 
L 153.72668 218.067425 
L 154.730185 217.848356 
L 156.173046 217.553898 
L 157.615907 217.28577 
L 159.110202 217.038686 
L 160.604497 216.826112 
L 161.570507 216.708886 
L 162.536517 216.608929 
L 163.709249 216.512729 
L 164.881981 216.446658 
L 166.082113 216.413445 
L 167.029427 216.414252 
L 167.976742 216.441191 
L 168.924056 216.496643 
L 169.871371 216.583301 
L 170.843901 216.707938 
L 171.816431 216.872456 
L 172.339135 216.978846 
L 172.861839 217.098745 
L 173.384544 217.232965 
L 173.907248 217.382382 
L 174.772706 217.665781 
L 175.205435 217.825584 
L 175.638165 217.998337 
L 176.351583 218.313368 
L 177.065001 218.669175 
L 177.42171 218.863622 
L 177.778419 219.069833 
L 178.135128 219.288407 
L 178.491837 219.519985 
L 178.833503 219.754625 
L 179.175168 220.002473 
L 179.516834 220.26422 
L 179.8585 220.540609 
L 180.200166 220.832437 
L 180.541831 221.140561 
L 180.883497 221.465902 
L 181.225163 221.809455 
L 181.505867 222.106088 
L 181.78657 222.416373 
L 182.067274 222.740993 
L 182.347977 223.080675 
L 182.722377 223.558535 
L 183.096777 224.066582 
L 183.471177 224.607013 
L 183.845577 225.182247 
L 184.219978 225.794949 
L 184.594378 226.448068 
L 184.968778 227.144873 
L 185.155978 227.510776 
L 185.343178 227.888995 
L 185.687089 228.617681 
L 185.859045 228.999352 
L 186.031 229.393196 
L 186.202956 229.799712 
L 186.374911 230.219423 
L 186.546867 230.652885 
L 186.718823 231.100685 
L 186.890778 231.563443 
L 187.062734 232.041816 
L 187.234689 232.536499 
L 187.406645 233.048232 
L 187.578601 233.577799 
L 187.750556 234.126031 
L 187.922512 234.693815 
L 188.094467 235.282094 
L 188.247248 235.822778 
L 188.400029 236.381182 
L 188.55281 236.958099 
L 188.705592 237.554372 
L 188.858373 238.170893 
L 189.011154 238.808614 
L 189.163935 239.468544 
L 189.316716 240.15176 
L 189.513638 241.068584 
L 189.710561 242.02865 
L 189.809023 242.52579 
L 189.907484 243.034841 
L 190.005945 243.556204 
L 190.104407 244.090299 
L 190.202868 244.637566 
L 190.301329 245.198463 
L 190.399791 245.773472 
L 190.498252 246.363097 
L 190.596714 246.967867 
L 190.695175 247.588334 
L 190.793636 248.225082 
L 190.892098 248.878721 
L 190.990559 249.549893 
L 191.089021 250.239273 
L 191.187482 250.94757 
L 191.285943 251.675533 
L 191.384405 252.423948 
L 191.482866 253.193645 
L 191.581327 253.9855 
L 191.679789 254.800437 
L 191.77825 255.639434 
L 191.876712 256.503521 
L 191.975173 257.393793 
L 192.073634 258.311405 
L 192.172096 259.257584 
L 192.270557 260.23363 
L 192.369018 261.240925 
L 192.46748 262.280936 
L 192.547036 263.146223 
L 192.626593 264.034758 
L 192.70615 264.947457 
L 192.785706 265.885286 
L 192.913965 267.452746 
L 193.042224 269.092765 
L 193.170483 270.810343 
L 193.298742 272.610948 
L 193.427001 274.500578 
L 193.55526 276.485819 
L 193.683519 278.573927 
L 193.811778 280.772911 
L 193.940037 283.091633 
L 194.068296 285.539926 
L 194.196555 288.12873 
L 194.324814 290.870255 
L 194.453073 293.778166 
L 194.581332 296.867809 
L 194.709591 300.156479 
L 194.83785 303.663739 
L 194.966109 307.4118 
L 195.094368 311.425991 
L 195.222627 315.735324 
L 195.350886 320.373185 
L 195.479145 325.378195 
L 195.607404 330.795279 
L 195.735663 336.677 
L 195.863922 343.085262 
L 195.992181 350.093478 
L 196.12044 357.789374 
L 196.248699 366.278657 
L 196.376958 375.689873 
L 196.505217 386.180925 
L 196.633476 397.947958 
L 196.761735 411.237691 
L 196.889994 426.364831 
L 196.904763 428.242098 
L 196.919533 430.149715 
L 196.934303 432.088424 
L 196.949072 434.058987 
L 196.963842 436.062195 
L 196.978612 438.098862 
L 196.993381 440.169834 
L 197.008151 442.27598 
L 197.02292 444.418203 
L 197.03769 446.597435 
L 197.05246 448.814642 
L 197.067229 451.070822 
L 197.081999 453.367009 
L 197.096769 455.704275 
L 197.111538 458.08373 
L 197.126308 460.506523 
L 197.141078 462.973847 
L 197.155847 465.486938 
L 197.170617 468.047078 
L 197.185386 470.6556 
L 197.200156 473.313884 
L 197.214926 476.023366 
L 197.229695 478.785535 
L 197.244465 481.601941 
L 197.259235 484.474194 
L 197.274004 487.403968 
L 197.288774 490.393006 
L 197.303543 493.443122 
L 197.318313 496.556202 
L 197.333083 499.734215 
L 197.347852 502.979209 
L 197.362622 506.29332 
L 197.481952 535.901707 
L 197.601282 571.661369 
L 197.720611 615.708092 
L 197.839941 671.295837 
L 197.959271 743.638719 
L 198.078601 841.648653 
L 198.197931 981.919862 
L 198.31726 1199.280829 
L 198.43659 1581.325883 
L 198.55592 2429.264198 
L 198.67525 5926.188196 
L 198.79458 -10016.848621 
L 198.91391 -2510.349958 
L 199.033239 -1365.943163 
L 199.152569 -902.801424 
L 199.271899 -652.139692 
L 199.391229 -495.027474 
L 199.510559 -387.336021 
L 199.629888 -308.92035 
L 199.749218 -249.274489 
L 199.868548 -202.382307 
L 199.987878 -164.550556 
L 200.107208 -133.386451 
L 200.226537 -107.271589 
L 200.345867 -85.072125 
L 200.465197 -65.970053 
L 200.584527 -49.360393 
L 200.703857 -34.786083 
L 200.823186 -21.895379 
L 200.942516 -10.413167 
L 201.061846 -0.121178 
L 201.181176 9.155976 
L 201.199021 10.46521 
L 201.216865 11.755406 
L 201.23471 13.026975 
L 201.252555 14.280315 
L 201.2704 15.515813 
L 201.288244 16.733847 
L 201.306089 17.934782 
L 201.323934 19.118974 
L 201.341779 20.286769 
L 201.359623 21.438504 
L 201.377468 22.574506 
L 201.395313 23.695094 
L 201.413158 24.800578 
L 201.431002 25.89126 
L 201.448847 26.967434 
L 201.466692 28.029385 
L 201.484537 29.077392 
L 201.502381 30.111728 
L 201.520226 31.132655 
L 201.538071 32.140432 
L 201.555916 33.13531 
L 201.57376 34.117533 
L 201.591605 35.087341 
L 201.60945 36.044965 
L 201.627295 36.990633 
L 201.645139 37.924565 
L 201.680829 39.758083 
L 201.716518 41.547182 
L 201.752208 43.293447 
L 201.875341 49.009929 
L 201.998474 54.28983 
L 202.121607 59.181014 
L 202.24474 63.724594 
L 202.367873 67.956087 
L 202.491006 71.906328 
L 202.614139 75.602222 
L 202.737272 79.06735 
L 202.860405 82.322465 
L 202.983538 85.385905 
L 203.106671 88.273934 
L 203.229804 91.001028 
L 203.352937 93.580112 
L 203.47607 96.022765 
L 203.599203 98.339388 
L 203.722336 100.539353 
L 203.845469 102.631126 
L 203.968602 104.622372 
L 204.091735 106.52005 
L 204.214868 108.330492 
L 204.338001 110.059472 
L 204.461134 111.712264 
L 204.584267 113.293699 
L 204.7074 114.808208 
L 204.830533 116.259861 
L 204.953666 117.652408 
L 205.076799 118.989304 
L 205.199932 120.273742 
L 205.323065 121.508676 
L 205.446198 122.696841 
L 205.569331 123.840775 
L 205.692464 124.942838 
L 205.78819 125.772088 
L 205.883917 126.578328 
L 205.979644 127.362473 
L 206.075371 128.125392 
L 206.183787 128.964845 
L 206.292203 129.779259 
L 206.400619 130.5697 
L 206.509036 131.337176 
L 206.617452 132.082639 
L 206.725868 132.80699 
L 206.834285 133.511081 
L 206.942701 134.195719 
L 207.051117 134.861669 
L 207.159533 135.509656 
L 207.26795 136.140369 
L 207.376366 136.754462 
L 207.484782 137.352556 
L 207.593198 137.935242 
L 207.701615 138.503084 
L 207.810031 139.056615 
L 207.918447 139.596347 
L 208.026863 140.122765 
L 208.13528 140.636334 
L 208.243696 141.137496 
L 208.460528 142.104271 
L 208.677361 143.026252 
L 208.894193 143.90633 
L 209.111026 144.747153 
L 209.327858 145.551154 
L 209.544691 146.320571 
L 209.684334 146.798744 
L 209.823977 147.263947 
L 209.96362 147.716667 
L 210.103263 148.15737 
L 210.382549 149.004476 
L 210.661835 149.808558 
L 210.893398 150.444765 
L 211.12496 151.055023 
L 211.356522 151.640781 
L 211.588085 152.203386 
L 211.819647 152.744087 
L 212.05121 153.264049 
L 212.282772 153.764356 
L 212.514334 154.24602 
L 212.745897 154.709984 
L 212.977459 155.157134 
L 213.209022 155.588294 
L 213.440584 156.004242 
L 213.672147 156.405703 
L 213.903709 156.793362 
L 214.135271 157.16786 
L 214.366834 157.529801 
L 214.729293 158.072475 
L 215.091751 158.587794 
L 215.45421 159.07761 
L 215.816669 159.543618 
L 216.2282 160.045821 
L 216.639732 160.521415 
L 217.051263 160.972296 
L 217.462795 161.400198 
L 217.874326 161.806703 
L 218.285858 162.193267 
L 218.697389 162.561224 
L 219.108921 162.911805 
L 219.534526 163.257304 
L 219.96013 163.586589 
L 220.580377 164.039624 
L 221.200623 164.463494 
L 221.82087 164.860903 
L 222.441116 165.23428 
L 222.931755 165.514066 
L 223.422394 165.781184 
L 224.403672 166.28104 
L 225.297405 166.700968 
L 226.191139 167.091744 
L 227.037345 167.438391 
L 227.883551 167.765334 
L 228.729757 168.075239 
L 229.575963 168.37053 
L 230.777837 168.769125 
L 231.979712 169.148445 
L 233.517651 169.613948 
L 235.168094 170.098999 
L 237.478584 170.773201 
L 239.120101 171.262418 
L 240.761618 171.770931 
L 242.135287 172.218101 
L 243.40911 172.655525 
L 244.682933 173.11949 
L 245.789145 173.547576 
L 246.895357 174.002435 
L 247.631927 174.321813 
L 248.368498 174.655609 
L 249.105068 175.004916 
L 249.841638 175.370882 
L 250.777602 175.861849 
L 251.713565 176.384283 
L 252.270163 176.711027 
L 252.82676 177.050515 
L 253.383357 177.403401 
L 253.939955 177.770374 
L 254.714372 178.305753 
L 255.48879 178.871863 
L 256.263207 179.470917 
L 257.037625 180.105301 
L 257.4641 180.470671 
L 257.890574 180.847989 
L 258.476948 181.387165 
L 259.063322 181.951146 
L 259.649697 182.541325 
L 260.236071 183.159192 
L 260.884789 183.876936 
L 261.533507 184.632831 
L 262.182225 185.429377 
L 262.830944 186.269275 
L 263.324471 186.939081 
L 263.817999 187.637054 
L 264.311527 188.364671 
L 264.805055 189.123509 
L 265.172369 189.709544 
L 265.539683 190.314539 
L 265.906997 190.939269 
L 266.27431 191.584549 
L 266.641624 192.251239 
L 267.008938 192.940245 
L 267.376252 193.652522 
L 267.743566 194.389081 
L 268.070336 195.065612 
L 268.397106 195.762995 
L 268.664448 196.349638 
L 268.931789 196.951275 
L 269.19913 197.568403 
L 269.466472 198.201545 
L 269.733813 198.851244 
L 270.001155 199.518068 
L 270.268496 200.202612 
L 270.535837 200.905497 
L 270.803179 201.627374 
L 271.07052 202.368924 
L 271.337861 203.13086 
L 271.605203 203.913931 
L 271.872544 204.71892 
L 272.139886 205.546652 
L 272.407227 206.397989 
L 272.674568 207.273842 
L 273.010893 208.411992 
L 273.347217 209.592471 
L 273.683542 210.817427 
L 273.851704 211.447296 
L 274.019866 212.089157 
L 274.189357 212.74854 
L 274.358847 213.420754 
L 274.528338 214.106141 
L 274.697828 214.805054 
L 274.867319 215.517863 
L 275.036809 216.244946 
L 275.2063 216.986699 
L 275.375791 217.743531 
L 275.576019 218.657624 
L 275.776247 219.594083 
L 275.976475 220.553668 
L 276.176702 221.537175 
L 276.37693 222.545438 
L 276.577158 223.579329 
L 276.777386 224.639759 
L 276.977614 225.727687 
L 277.177842 226.844116 
L 277.37807 227.990097 
L 277.578298 229.166735 
L 277.778526 230.375191 
L 277.978754 231.616684 
L 278.178982 232.892496 
L 278.37921 234.203975 
L 278.579438 235.552544 
L 278.766036 236.844013 
L 278.952634 238.170268 
L 279.139231 239.532649 
L 279.325829 240.932565 
L 279.512427 242.3715 
L 279.699025 243.851018 
L 279.885622 245.372766 
L 280.07222 246.938483 
L 280.258818 248.550002 
L 280.352117 249.373539 
L 280.445416 250.209262 
L 280.538715 251.05743 
L 280.632014 251.91831 
L 280.725312 252.792177 
L 280.818611 253.679314 
L 280.91191 254.580011 
L 281.005209 255.494568 
L 281.098508 256.423293 
L 281.191807 257.366504 
L 281.285106 258.324528 
L 281.378405 259.2977 
L 281.471704 260.28637 
L 281.565003 261.290894 
L 281.670631 262.447767 
L 281.776259 263.625989 
L 281.89048 264.924747 
L 282.004702 266.24989 
L 282.118923 267.602201 
L 282.233144 268.982492 
L 282.347365 270.391608 
L 282.461586 271.830429 
L 282.575808 273.299872 
L 282.690029 274.80089 
L 282.80425 276.334477 
L 282.918471 277.90167 
L 283.032693 279.503549 
L 283.146914 281.141241 
L 283.261135 282.815923 
L 283.375356 284.528823 
L 283.489578 286.281226 
L 283.603799 288.074474 
L 283.71802 289.909969 
L 283.832241 291.78918 
L 283.946462 293.713644 
L 284.060684 295.684971 
L 284.174905 297.704848 
L 284.289126 299.775044 
L 284.403347 301.897416 
L 284.517569 304.073912 
L 284.63179 306.306578 
L 284.746011 308.597566 
L 284.860232 310.949139 
L 284.974454 313.363677 
L 285.088675 315.843687 
L 285.202896 318.391811 
L 285.317117 321.010836 
L 285.431339 323.703702 
L 285.512866 325.67267 
L 285.594394 327.682019 
L 285.675922 329.732981 
L 285.75745 331.826838 
L 285.838978 333.964927 
L 285.920506 336.148639 
L 285.96127 337.258054 
L 286.002034 338.379423 
L 286.042798 339.512938 
L 286.083562 340.658793 
L 286.124326 341.817188 
L 286.16509 342.988326 
L 286.205854 344.172416 
L 286.246618 345.369671 
L 286.287382 346.580307 
L 286.328146 347.804546 
L 286.36891 349.042616 
L 286.409674 350.29475 
L 286.450438 351.561183 
L 286.491202 352.842159 
L 286.531966 354.137927 
L 286.57273 355.44874 
L 286.613494 356.774858 
L 286.654258 358.116546 
L 286.695022 359.474078 
L 286.735786 360.84773 
L 286.845027 364.610609 
L 286.954268 368.497063 
L 287.063509 372.513199 
L 287.172751 376.665532 
L 287.281992 380.961021 
L 287.391233 385.407108 
L 287.500474 390.011758 
L 287.609715 394.783509 
L 287.718956 399.731524 
L 287.828198 404.865647 
L 287.937439 410.196468 
L 288.04668 415.735399 
L 288.155921 421.494748 
L 288.265162 427.487817 
L 288.374403 433.728998 
L 288.483645 440.233889 
L 288.592886 447.019425 
L 288.702127 454.104021 
L 288.811368 461.507741 
L 288.920609 469.252483 
L 289.02985 477.362195 
L 289.139091 485.863124 
L 289.248333 494.784091 
L 289.357574 504.156822 
L 289.466815 514.016321 
L 289.576056 524.401302 
L 289.685297 535.354696 
L 289.794538 546.924245 
L 289.90378 559.163186 
L 290.013021 572.131075 
L 290.122262 585.894746 
L 290.231503 600.529463 
L 290.30154 610.409228 
L 290.371576 620.706573 
L 290.441613 631.448452 
L 290.511649 642.664191 
L 290.581686 654.385752 
L 290.651722 666.648039 
L 290.721759 679.48924 
L 290.791795 692.95123 
L 290.861832 707.080018 
L 290.931868 721.926278 
L 291.001905 737.54595 
L 291.071941 754.000946 
L 291.141978 771.359966 
L 291.212014 789.699456 
L 291.282051 809.104732 
L 291.352087 829.671303 
L 291.422124 851.506443 
L 291.492161 874.731055 
L 291.562197 899.481913 
L 291.632234 925.914349 
L 291.70227 954.205515 
L 291.772307 984.558352 
L 291.842343 1017.20646 
L 291.91238 1052.420113 
L 291.982416 1090.513756 
L 292.052453 1131.855408 
L 292.122489 1176.878578 
L 292.192526 1226.097518 
L 292.262562 1280.126931 
L 292.332599 1339.707764 
L 292.402635 1405.741365 
L 292.472672 1479.335379 
L 292.520581 1534.729209 
L 292.568491 1594.829556 
L 292.6164 1660.262596 
L 292.66431 1731.770737 
L 292.712219 1810.240906 
L 292.760128 1896.741507 
L 292.808038 1992.571341 
L 292.855947 2099.325253 
L 292.903857 2218.983573 
L 292.951766 2354.036081 
L 292.999676 2507.657084 
L 293.047585 2683.958032 
L 293.095494 2888.360915 
L 293.143404 3128.165655 
L 293.191313 3413.440213 
L 293.239223 3758.469997 
L 293.287132 4184.224533 
L 293.335041 4722.784698 
L 293.382951 5425.826135 
L 293.43086 6382.275801 
L 293.47877 7759.25767 
L 293.526679 9912.264563 
L 293.574589 13754.673031 
L 293.622498 22558.685104 
L 293.670407 63443.473855 
L 293.718317 -76925.530362 
L 293.766226 -23833.354063 
L 293.814136 -14061.709504 
L 293.862045 -9952.939439 
L 293.909955 -7690.347692 
L 293.957864 -6257.900599 
L 294.005773 -5269.552198 
L 294.051637 -4573.382315 
L 294.097501 -4036.544491 
L 294.143365 -3609.957493 
L 294.189228 -3262.821786 
L 294.235092 -2974.832714 
L 294.280956 -2732.061275 
L 294.326819 -2524.633816 
L 294.372683 -2345.356308 
L 294.418547 -2188.863066 
L 294.464411 -2051.070616 
L 294.510274 -1928.81628 
L 294.556138 -1819.612484 
L 294.602002 -1721.47575 
L 294.647865 -1632.805164 
L 294.693729 -1552.294383 
L 294.739593 -1478.866862 
L 294.785457 -1411.627455 
L 294.83132 -1349.825751 
L 294.877184 -1292.827957 
L 294.923048 -1240.095093 
L 294.968912 -1191.165901 
L 295.014775 -1145.643322 
L 295.060639 -1103.183705 
L 295.106503 -1063.488116 
L 295.152366 -1026.295296 
L 295.19823 -991.375905 
L 295.244094 -958.527795 
L 295.289958 -927.572092 
L 295.335821 -898.349945 
L 295.381685 -870.719796 
L 295.427549 -844.555091 
L 295.473413 -819.742344 
L 295.528359 -791.653126 
L 295.583306 -765.201621 
L 295.638253 -740.248787 
L 295.6932 -716.670886 
L 295.748146 -694.357438 
L 295.803093 -673.20949 
L 295.85804 -653.138153 
L 295.912987 -634.063352 
L 295.967933 -615.912761 
L 296.02288 -598.620888 
L 296.077827 -582.128285 
L 296.132774 -566.380869 
L 296.18772 -551.329328 
L 296.242667 -536.928608 
L 296.297614 -523.137461 
L 296.352561 -509.918053 
L 296.407508 -497.235617 
L 296.462454 -485.058151 
L 296.517401 -473.356143 
L 296.572348 -462.102339 
L 296.627295 -451.271529 
L 296.682241 -440.840358 
L 296.737188 -430.787161 
L 296.792135 -421.091808 
L 296.847082 -411.735576 
L 296.902028 -402.701026 
L 296.956975 -393.971893 
L 297.011922 -385.532991 
L 297.066869 -377.370125 
L 297.121816 -369.47001 
L 297.176762 -361.8202 
L 297.231709 -354.409024 
L 297.362922 -337.612942 
L 297.494136 -321.981943 
L 297.625349 -307.399289 
L 297.756562 -293.763336 
L 297.887775 -280.985168 
L 298.018989 -268.986665 
L 298.150202 -257.698915 
L 298.281415 -247.060896 
L 298.412628 -237.018374 
L 298.543842 -227.52299 
L 298.675055 -218.531483 
L 298.806268 -210.005036 
L 298.937481 -201.908718 
L 299.068695 -194.211013 
L 299.199908 -186.883408 
L 299.331121 -179.900049 
L 299.462334 -173.237433 
L 299.593548 -166.87415 
L 299.724761 -160.790655 
L 299.855974 -154.969067 
L 299.987188 -149.392998 
L 300.118401 -144.047398 
L 300.249614 -138.918423 
L 300.380827 -133.993318 
L 300.512041 -129.260308 
L 300.643254 -124.708508 
L 300.774467 -120.327841 
L 300.90568 -116.108962 
L 301.036894 -112.043197 
L 301.168107 -108.122478 
L 301.29932 -104.339297 
L 301.430533 -100.686654 
L 301.487311 -99.144926 
L 301.544088 -97.625908 
L 301.600865 -96.129109 
L 301.657642 -94.654055 
L 301.714419 -93.200284 
L 301.771197 -91.767346 
L 301.827974 -90.354805 
L 301.884751 -88.962238 
L 301.958267 -87.18811 
L 302.031784 -85.445911 
L 302.1053 -83.734801 
L 302.178817 -82.053974 
L 302.252333 -80.402649 
L 302.32585 -78.780071 
L 302.399366 -77.185513 
L 302.472883 -75.61827 
L 302.546399 -74.077662 
L 302.619916 -72.56303 
L 302.693432 -71.073737 
L 302.766949 -69.609168 
L 302.840465 -68.168727 
L 302.913982 -66.751836 
L 302.987498 -65.357936 
L 303.061015 -63.986486 
L 303.134531 -62.636961 
L 303.208048 -61.308853 
L 303.281564 -60.00167 
L 303.355081 -58.714933 
L 303.428597 -57.448179 
L 303.502114 -56.200959 
L 303.57563 -54.972836 
L 303.649146 -53.763389 
L 303.722663 -52.572205 
L 303.796179 -51.398887 
L 303.869696 -50.243047 
L 303.943212 -49.104308 
L 304.016729 -47.982306 
L 304.090245 -46.876686 
L 304.163762 -45.787101 
L 304.237278 -44.713218 
L 304.333678 -43.328311 
L 304.430079 -41.969129 
L 304.526479 -40.634985 
L 304.622879 -39.325216 
L 304.719279 -38.039183 
L 304.815679 -36.776268 
L 304.912079 -35.535876 
L 305.00848 -34.317431 
L 305.10488 -33.120377 
L 305.20128 -31.944176 
L 305.29768 -30.788308 
L 305.39408 -29.652272 
L 305.490481 -28.53558 
L 305.586881 -27.437763 
L 305.683281 -26.358364 
L 305.779681 -25.296945 
L 305.876081 -24.253077 
L 305.972481 -23.226347 
L 306.068882 -22.216356 
L 306.165282 -21.222714 
L 306.261682 -20.245045 
L 306.358082 -19.282986 
L 306.454482 -18.336182 
L 306.550882 -17.40429 
L 306.647283 -16.486977 
L 306.743683 -15.58392 
L 306.840083 -14.694806 
L 306.936483 -13.81933 
L 307.032883 -12.957197 
L 307.129284 -12.108119 
L 307.225684 -11.271818 
L 307.322084 -10.448022 
L 307.464429 -9.253912 
L 307.606773 -8.085677 
L 307.749118 -6.94253 
L 307.891463 -5.823716 
L 308.033808 -4.728513 
L 308.176152 -3.656223 
L 308.318497 -2.606178 
L 308.460842 -1.577734 
L 308.603187 -0.570274 
L 308.745531 0.416798 
L 308.887876 1.384055 
L 309.030221 2.332049 
L 309.172566 3.261309 
L 309.31491 4.17235 
L 309.457255 5.065662 
L 309.5996 5.941724 
L 309.796514 7.126042 
L 309.993428 8.279386 
L 310.190342 9.402865 
L 310.387256 10.497535 
L 310.58417 11.564403 
L 310.781084 12.604429 
L 310.977997 13.618531 
L 311.174911 14.607583 
L 311.407666 15.745495 
L 311.640421 16.850891 
L 311.873176 17.925021 
L 312.10593 18.969069 
L 312.338685 19.98416 
L 312.57144 20.971366 
L 312.804195 21.931703 
L 313.036949 22.866142 
L 313.269704 23.775604 
L 313.502459 24.66097 
L 313.735214 25.523079 
L 313.967968 26.362731 
L 314.200723 27.180689 
L 314.433478 27.977683 
L 314.666233 28.754411 
L 314.898987 29.511538 
L 315.171938 30.375307 
L 315.444888 31.213977 
L 315.703657 31.986744 
L 315.962426 32.738547 
L 316.221194 33.470109 
L 316.479963 34.182118 
L 316.738732 34.875231 
L 316.997501 35.550078 
L 317.25627 36.207259 
L 317.515038 36.847349 
L 317.920009 37.816084 
L 318.324979 38.746296 
L 318.729949 39.639851 
L 319.13492 40.498497 
L 319.53989 41.323872 
L 319.944861 42.117513 
L 320.349831 42.880864 
L 320.754801 43.615281 
L 321.215797 44.417709 
L 321.676792 45.186064 
L 322.137787 45.922 
L 322.598782 46.627065 
L 322.923035 47.105282 
L 323.247287 47.569423 
L 323.57154 48.019946 
L 323.895792 48.457287 
L 324.220045 48.881866 
L 324.544297 49.294084 
L 325.192802 50.082959 
L 325.779866 50.758187 
L 326.366929 51.398501 
L 326.953993 52.005742 
L 327.541057 52.581627 
L 328.264408 53.250442 
L 328.98776 53.876841 
L 329.711112 54.46337 
L 330.434464 55.012375 
L 331.013089 55.425983 
L 331.591715 55.818001 
L 332.17034 56.189399 
L 332.748966 56.54109 
L 333.315188 56.866991 
L 334.030792 57.254229 
L 334.746396 57.615287 
L 335.462 57.951503 
L 336.177604 58.264128 
L 336.938009 58.571775 
L 337.698414 58.855405 
L 338.528592 59.139067 
L 339.358769 59.397027 
L 340.188946 59.630653 
L 341.019124 59.841219 
L 341.732031 60.004539 
L 342.444938 60.152432 
L 343.157845 60.285561 
L 343.870752 60.404551 
L 344.150103 60.44745 
L 345.009341 60.566722 
L 345.86858 60.667583 
L 346.727818 60.750921 
L 347.587056 60.817568 
L 348.956349 60.891199 
L 350.325641 60.927317 
L 351.3272 60.93151 
L 352.328759 60.917996 
L 353.239313 60.89109 
L 354.149866 60.850903 
L 355.612175 60.760035 
L 357.141341 60.632417 
L 358.670507 60.47377 
L 359.756239 60.343463 
L 360.923874 60.187866 
L 362.09151 60.01704 
L 363.690079 59.759844 
L 365.288648 59.477317 
L 366.474289 59.252383 
L 367.65993 59.01504 
L 369.046224 58.722567 
L 370.482062 58.403514 
L 371.917901 58.068934 
L 374.46147 57.440634 
L 375.867785 57.074983 
L 377.881969 56.530207 
L 380.161525 55.885661 
L 382.882527 55.080398 
L 384.289068 54.649892 
L 386.761628 53.871211 
L 389.406978 53.009283 
L 391.50088 52.307434 
L 394.706355 51.202051 
L 397.108376 50.35099 
L 397.525304 50.201398 
L 401.417008 48.78 
L 403.169472 48.125956 
L 405.307319 47.317133 
L 406.608053 46.819397 
L 408.668153 46.02279 
L 412.772954 44.407083 
L 413.023499 44.307303 
L 415.58479 43.280023 
L 418.367063 42.14982 
L 421.875466 40.704873 
L 423.431814 40.057241 
L 425.661413 39.122724 
L 428.011743 38.129404 
L 430.744315 36.964512 
L 431.824186 36.501323 
L 433.021527 35.985932 
L 436.647993 34.413753 
L 437.829129 33.898215 
L 440.638602 32.665423 
L 442.275219 31.943201 
L 445.869639 30.347032 
L 447.939913 29.421746 
L 448.69433 29.083531 
L 451.938462 27.623077 
z
" clip-path="url(#p3cb4e316c7)" style="fill: #cccccc; opacity: 0.5"/>
   </g>
   <g id="matplotlib.axis_1">
    <g id="xtick_1">
     <g id="line2d_1">
      <defs>
       <path id="mff35f68dda" d="M 0 0 
L 0 3.5 
" style="stroke: #000000; stroke-width: 0.8"/>
      </defs>
      <g>
       <use xlink:href="#mff35f68dda" x="40.50989" y="172.8" style="stroke: #000000; stroke-width: 0.8"/>
      </g>
     </g>
     <g id="text_1">
      <!-- −6 -->
      <g transform="translate(33.138796 187.398437)scale(0.1 -0.1)">
       <defs>
        <path id="DejaVuSans-2212" d="M 678 2272 
L 4684 2272 
L 4684 1741 
L 678 1741 
L 678 2272 
z
" transform="scale(0.015625)"/>
        <path id="DejaVuSans-36" d="M 2113 2584 
Q 1688 2584 1439 2293 
Q 1191 2003 1191 1497 
Q 1191 994 1439 701 
Q 1688 409 2113 409 
Q 2538 409 2786 701 
Q 3034 994 3034 1497 
Q 3034 2003 2786 2293 
Q 2538 2584 2113 2584 
z
M 3366 4563 
L 3366 3988 
Q 3128 4100 2886 4159 
Q 2644 4219 2406 4219 
Q 1781 4219 1451 3797 
Q 1122 3375 1075 2522 
Q 1259 2794 1537 2939 
Q 1816 3084 2150 3084 
Q 2853 3084 3261 2657 
Q 3669 2231 3669 1497 
Q 3669 778 3244 343 
Q 2819 -91 2113 -91 
Q 1303 -91 875 529 
Q 447 1150 447 2328 
Q 447 3434 972 4092 
Q 1497 4750 2381 4750 
Q 2619 4750 2861 4703 
Q 3103 4656 3366 4563 
z
" transform="scale(0.015625)"/>
       </defs>
       <use xlink:href="#DejaVuSans-2212"/>
       <use xlink:href="#DejaVuSans-36" x="83.789062"/>
      </g>
     </g>
    </g>
    <g id="xtick_2">
     <g id="line2d_2">
      <g>
       <use xlink:href="#mff35f68dda" x="103.806593" y="172.8" style="stroke: #000000; stroke-width: 0.8"/>
      </g>
     </g>
     <g id="text_2">
      <!-- −4 -->
      <g transform="translate(96.4355 187.398437)scale(0.1 -0.1)">
       <defs>
        <path id="DejaVuSans-34" d="M 2419 4116 
L 825 1625 
L 2419 1625 
L 2419 4116 
z
M 2253 4666 
L 3047 4666 
L 3047 1625 
L 3713 1625 
L 3713 1100 
L 3047 1100 
L 3047 0 
L 2419 0 
L 2419 1100 
L 313 1100 
L 313 1709 
L 2253 4666 
z
" transform="scale(0.015625)"/>
       </defs>
       <use xlink:href="#DejaVuSans-2212"/>
       <use xlink:href="#DejaVuSans-34" x="83.789062"/>
      </g>
     </g>
    </g>
    <g id="xtick_3">
     <g id="line2d_3">
      <g>
       <use xlink:href="#mff35f68dda" x="167.103297" y="172.8" style="stroke: #000000; stroke-width: 0.8"/>
      </g>
     </g>
     <g id="text_3">
      <!-- −2 -->
      <g transform="translate(159.732203 187.398437)scale(0.1 -0.1)">
       <defs>
        <path id="DejaVuSans-32" d="M 1228 531 
L 3431 531 
L 3431 0 
L 469 0 
L 469 531 
Q 828 903 1448 1529 
Q 2069 2156 2228 2338 
Q 2531 2678 2651 2914 
Q 2772 3150 2772 3378 
Q 2772 3750 2511 3984 
Q 2250 4219 1831 4219 
Q 1534 4219 1204 4116 
Q 875 4013 500 3803 
L 500 4441 
Q 881 4594 1212 4672 
Q 1544 4750 1819 4750 
Q 2544 4750 2975 4387 
Q 3406 4025 3406 3419 
Q 3406 3131 3298 2873 
Q 3191 2616 2906 2266 
Q 2828 2175 2409 1742 
Q 1991 1309 1228 531 
z
" transform="scale(0.015625)"/>
       </defs>
       <use xlink:href="#DejaVuSans-2212"/>
       <use xlink:href="#DejaVuSans-32" x="83.789062"/>
      </g>
     </g>
    </g>
    <g id="xtick_4">
     <g id="line2d_4">
      <g>
       <use xlink:href="#mff35f68dda" x="230.4" y="172.8" style="stroke: #000000; stroke-width: 0.8"/>
      </g>
     </g>
    </g>
    <g id="xtick_5">
     <g id="line2d_5">
      <g>
       <use xlink:href="#mff35f68dda" x="293.696703" y="172.8" style="stroke: #000000; stroke-width: 0.8"/>
      </g>
     </g>
     <g id="text_4">
      <!-- 2 -->
      <g transform="translate(290.515453 187.398437)scale(0.1 -0.1)">
       <use xlink:href="#DejaVuSans-32"/>
      </g>
     </g>
    </g>
    <g id="xtick_6">
     <g id="line2d_6">
      <g>
       <use xlink:href="#mff35f68dda" x="356.993407" y="172.8" style="stroke: #000000; stroke-width: 0.8"/>
      </g>
     </g>
     <g id="text_5">
      <!-- 4 -->
      <g transform="translate(353.812157 187.398437)scale(0.1 -0.1)">
       <use xlink:href="#DejaVuSans-34"/>
      </g>
     </g>
    </g>
    <g id="xtick_7">
     <g id="line2d_7">
      <g>
       <use xlink:href="#mff35f68dda" x="420.29011" y="172.8" style="stroke: #000000; stroke-width: 0.8"/>
      </g>
     </g>
     <g id="text_6">
      <!-- 6 -->
      <g transform="translate(417.10886 187.398437)scale(0.1 -0.1)">
       <use xlink:href="#DejaVuSans-36"/>
      </g>
     </g>
    </g>
    <g id="xtick_8">
     <g id="line2d_8">
      <defs>
       <path id="m38bad69493" d="M 0 0 
L 0 2 
" style="stroke: #000000; stroke-width: 0.6"/>
      </defs>
      <g>
       <use xlink:href="#m38bad69493" x="8.861538" y="172.8" style="stroke: #000000; stroke-width: 0.6"/>
      </g>
     </g>
    </g>
    <g id="xtick_9">
     <g id="line2d_9">
      <g>
       <use xlink:href="#m38bad69493" x="24.685714" y="172.8" style="stroke: #000000; stroke-width: 0.6"/>
      </g>
     </g>
    </g>
    <g id="xtick_10">
     <g id="line2d_10">
      <g>
       <use xlink:href="#m38bad69493" x="56.334066" y="172.8" style="stroke: #000000; stroke-width: 0.6"/>
      </g>
     </g>
    </g>
    <g id="xtick_11">
     <g id="line2d_11">
      <g>
       <use xlink:href="#m38bad69493" x="72.158242" y="172.8" style="stroke: #000000; stroke-width: 0.6"/>
      </g>
     </g>
    </g>
    <g id="xtick_12">
     <g id="line2d_12">
      <g>
       <use xlink:href="#m38bad69493" x="87.982418" y="172.8" style="stroke: #000000; stroke-width: 0.6"/>
      </g>
     </g>
    </g>
    <g id="xtick_13">
     <g id="line2d_13">
      <g>
       <use xlink:href="#m38bad69493" x="119.630769" y="172.8" style="stroke: #000000; stroke-width: 0.6"/>
      </g>
     </g>
    </g>
    <g id="xtick_14">
     <g id="line2d_14">
      <g>
       <use xlink:href="#m38bad69493" x="135.454945" y="172.8" style="stroke: #000000; stroke-width: 0.6"/>
      </g>
     </g>
    </g>
    <g id="xtick_15">
     <g id="line2d_15">
      <g>
       <use xlink:href="#m38bad69493" x="151.279121" y="172.8" style="stroke: #000000; stroke-width: 0.6"/>
      </g>
     </g>
    </g>
    <g id="xtick_16">
     <g id="line2d_16">
      <g>
       <use xlink:href="#m38bad69493" x="182.927473" y="172.8" style="stroke: #000000; stroke-width: 0.6"/>
      </g>
     </g>
    </g>
    <g id="xtick_17">
     <g id="line2d_17">
      <g>
       <use xlink:href="#m38bad69493" x="198.751648" y="172.8" style="stroke: #000000; stroke-width: 0.6"/>
      </g>
     </g>
    </g>
    <g id="xtick_18">
     <g id="line2d_18">
      <g>
       <use xlink:href="#m38bad69493" x="214.575824" y="172.8" style="stroke: #000000; stroke-width: 0.6"/>
      </g>
     </g>
    </g>
    <g id="xtick_19">
     <g id="line2d_19">
      <g>
       <use xlink:href="#m38bad69493" x="246.224176" y="172.8" style="stroke: #000000; stroke-width: 0.6"/>
      </g>
     </g>
    </g>
    <g id="xtick_20">
     <g id="line2d_20">
      <g>
       <use xlink:href="#m38bad69493" x="262.048352" y="172.8" style="stroke: #000000; stroke-width: 0.6"/>
      </g>
     </g>
    </g>
    <g id="xtick_21">
     <g id="line2d_21">
      <g>
       <use xlink:href="#m38bad69493" x="277.872527" y="172.8" style="stroke: #000000; stroke-width: 0.6"/>
      </g>
     </g>
    </g>
    <g id="xtick_22">
     <g id="line2d_22">
      <g>
       <use xlink:href="#m38bad69493" x="309.520879" y="172.8" style="stroke: #000000; stroke-width: 0.6"/>
      </g>
     </g>
    </g>
    <g id="xtick_23">
     <g id="line2d_23">
      <g>
       <use xlink:href="#m38bad69493" x="325.345055" y="172.8" style="stroke: #000000; stroke-width: 0.6"/>
      </g>
     </g>
    </g>
    <g id="xtick_24">
     <g id="line2d_24">
      <g>
       <use xlink:href="#m38bad69493" x="341.169231" y="172.8" style="stroke: #000000; stroke-width: 0.6"/>
      </g>
     </g>
    </g>
    <g id="xtick_25">
     <g id="line2d_25">
      <g>
       <use xlink:href="#m38bad69493" x="372.817582" y="172.8" style="stroke: #000000; stroke-width: 0.6"/>
      </g>
     </g>
    </g>
    <g id="xtick_26">
     <g id="line2d_26">
      <g>
       <use xlink:href="#m38bad69493" x="388.641758" y="172.8" style="stroke: #000000; stroke-width: 0.6"/>
      </g>
     </g>
    </g>
    <g id="xtick_27">
     <g id="line2d_27">
      <g>
       <use xlink:href="#m38bad69493" x="404.465934" y="172.8" style="stroke: #000000; stroke-width: 0.6"/>
      </g>
     </g>
    </g>
    <g id="xtick_28">
     <g id="line2d_28">
      <g>
       <use xlink:href="#m38bad69493" x="436.114286" y="172.8" style="stroke: #000000; stroke-width: 0.6"/>
      </g>
     </g>
    </g>
    <g id="xtick_29">
     <g id="line2d_29">
      <g>
       <use xlink:href="#m38bad69493" x="451.938462" y="172.8" style="stroke: #000000; stroke-width: 0.6"/>
      </g>
     </g>
    </g>
   </g>
   <g id="matplotlib.axis_2">
    <g id="ytick_1">
     <g id="line2d_30">
      <defs>
       <path id="m8d299840ac" d="M 0 0 
L -3.5 0 
" style="stroke: #000000; stroke-width: 0.8"/>
      </defs>
      <g>
       <use xlink:href="#m8d299840ac" x="230.4" y="338.953846" style="stroke: #000000; stroke-width: 0.8"/>
      </g>
     </g>
     <g id="text_7">
      <!-- −20 -->
      <g transform="translate(202.295312 342.753065)scale(0.1 -0.1)">
       <defs>
        <path id="DejaVuSans-30" d="M 2034 4250 
Q 1547 4250 1301 3770 
Q 1056 3291 1056 2328 
Q 1056 1369 1301 889 
Q 1547 409 2034 409 
Q 2525 409 2770 889 
Q 3016 1369 3016 2328 
Q 3016 3291 2770 3770 
Q 2525 4250 2034 4250 
z
M 2034 4750 
Q 2819 4750 3233 4129 
Q 3647 3509 3647 2328 
Q 3647 1150 3233 529 
Q 2819 -91 2034 -91 
Q 1250 -91 836 529 
Q 422 1150 422 2328 
Q 422 3509 836 4129 
Q 1250 4750 2034 4750 
z
" transform="scale(0.015625)"/>
       </defs>
       <use xlink:href="#DejaVuSans-2212"/>
       <use xlink:href="#DejaVuSans-32" x="83.789062"/>
       <use xlink:href="#DejaVuSans-30" x="147.412109"/>
      </g>
     </g>
    </g>
    <g id="ytick_2">
     <g id="line2d_31">
      <g>
       <use xlink:href="#m8d299840ac" x="230.4" y="297.415385" style="stroke: #000000; stroke-width: 0.8"/>
      </g>
     </g>
     <g id="text_8">
      <!-- −15 -->
      <g transform="translate(202.295312 301.214603)scale(0.1 -0.1)">
       <defs>
        <path id="DejaVuSans-31" d="M 794 531 
L 1825 531 
L 1825 4091 
L 703 3866 
L 703 4441 
L 1819 4666 
L 2450 4666 
L 2450 531 
L 3481 531 
L 3481 0 
L 794 0 
L 794 531 
z
" transform="scale(0.015625)"/>
        <path id="DejaVuSans-35" d="M 691 4666 
L 3169 4666 
L 3169 4134 
L 1269 4134 
L 1269 2991 
Q 1406 3038 1543 3061 
Q 1681 3084 1819 3084 
Q 2600 3084 3056 2656 
Q 3513 2228 3513 1497 
Q 3513 744 3044 326 
Q 2575 -91 1722 -91 
Q 1428 -91 1123 -41 
Q 819 9 494 109 
L 494 744 
Q 775 591 1075 516 
Q 1375 441 1709 441 
Q 2250 441 2565 725 
Q 2881 1009 2881 1497 
Q 2881 1984 2565 2268 
Q 2250 2553 1709 2553 
Q 1456 2553 1204 2497 
Q 953 2441 691 2322 
L 691 4666 
z
" transform="scale(0.015625)"/>
       </defs>
       <use xlink:href="#DejaVuSans-2212"/>
       <use xlink:href="#DejaVuSans-31" x="83.789062"/>
       <use xlink:href="#DejaVuSans-35" x="147.412109"/>
      </g>
     </g>
    </g>
    <g id="ytick_3">
     <g id="line2d_32">
      <g>
       <use xlink:href="#m8d299840ac" x="230.4" y="255.876923" style="stroke: #000000; stroke-width: 0.8"/>
      </g>
     </g>
     <g id="text_9">
      <!-- −10 -->
      <g transform="translate(202.295312 259.676142)scale(0.1 -0.1)">
       <use xlink:href="#DejaVuSans-2212"/>
       <use xlink:href="#DejaVuSans-31" x="83.789062"/>
       <use xlink:href="#DejaVuSans-30" x="147.412109"/>
      </g>
     </g>
    </g>
    <g id="ytick_4">
     <g id="line2d_33">
      <g>
       <use xlink:href="#m8d299840ac" x="230.4" y="214.338462" style="stroke: #000000; stroke-width: 0.8"/>
      </g>
     </g>
     <g id="text_10">
      <!-- −5 -->
      <g transform="translate(208.657812 218.13768)scale(0.1 -0.1)">
       <use xlink:href="#DejaVuSans-2212"/>
       <use xlink:href="#DejaVuSans-35" x="83.789062"/>
      </g>
     </g>
    </g>
    <g id="ytick_5">
     <g id="line2d_34">
      <g>
       <use xlink:href="#m8d299840ac" x="230.4" y="172.8" style="stroke: #000000; stroke-width: 0.8"/>
      </g>
     </g>
    </g>
    <g id="ytick_6">
     <g id="line2d_35">
      <g>
       <use xlink:href="#m8d299840ac" x="230.4" y="131.261538" style="stroke: #000000; stroke-width: 0.8"/>
      </g>
     </g>
     <g id="text_11">
      <!-- 5 -->
      <g transform="translate(217.0375 135.060757)scale(0.1 -0.1)">
       <use xlink:href="#DejaVuSans-35"/>
      </g>
     </g>
    </g>
    <g id="ytick_7">
     <g id="line2d_36">
      <g>
       <use xlink:href="#m8d299840ac" x="230.4" y="89.723077" style="stroke: #000000; stroke-width: 0.8"/>
      </g>
     </g>
     <g id="text_12">
      <!-- 10 -->
      <g transform="translate(210.675 93.522296)scale(0.1 -0.1)">
       <use xlink:href="#DejaVuSans-31"/>
       <use xlink:href="#DejaVuSans-30" x="63.623047"/>
      </g>
     </g>
    </g>
    <g id="ytick_8">
     <g id="line2d_37">
      <g>
       <use xlink:href="#m8d299840ac" x="230.4" y="48.184615" style="stroke: #000000; stroke-width: 0.8"/>
      </g>
     </g>
     <g id="text_13">
      <!-- 15 -->
      <g transform="translate(210.675 51.983834)scale(0.1 -0.1)">
       <use xlink:href="#DejaVuSans-31"/>
       <use xlink:href="#DejaVuSans-35" x="63.623047"/>
      </g>
     </g>
    </g>
    <g id="ytick_9">
     <g id="line2d_38">
      <g>
       <use xlink:href="#m8d299840ac" x="230.4" y="6.646154" style="stroke: #000000; stroke-width: 0.8"/>
      </g>
     </g>
     <g id="text_14">
      <!-- 20 -->
      <g transform="translate(210.675 10.445373)scale(0.1 -0.1)">
       <use xlink:href="#DejaVuSans-32"/>
       <use xlink:href="#DejaVuSans-30" x="63.623047"/>
      </g>
     </g>
    </g>
    <g id="ytick_10">
     <g id="line2d_39">
      <defs>
       <path id="mdbe37c6e31" d="M 0 0 
L -2 0 
" style="stroke: #000000; stroke-width: 0.6"/>
      </defs>
      <g>
       <use xlink:href="#mdbe37c6e31" x="230.4" y="330.646154" style="stroke: #000000; stroke-width: 0.6"/>
      </g>
     </g>
    </g>
    <g id="ytick_11">
     <g id="line2d_40">
      <g>
       <use xlink:href="#mdbe37c6e31" x="230.4" y="322.338462" style="stroke: #000000; stroke-width: 0.6"/>
      </g>
     </g>
    </g>
    <g id="ytick_12">
     <g id="line2d_41">
      <g>
       <use xlink:href="#mdbe37c6e31" x="230.4" y="314.030769" style="stroke: #000000; stroke-width: 0.6"/>
      </g>
     </g>
    </g>
    <g id="ytick_13">
     <g id="line2d_42">
      <g>
       <use xlink:href="#mdbe37c6e31" x="230.4" y="305.723077" style="stroke: #000000; stroke-width: 0.6"/>
      </g>
     </g>
    </g>
    <g id="ytick_14">
     <g id="line2d_43">
      <g>
       <use xlink:href="#mdbe37c6e31" x="230.4" y="289.107692" style="stroke: #000000; stroke-width: 0.6"/>
      </g>
     </g>
    </g>
    <g id="ytick_15">
     <g id="line2d_44">
      <g>
       <use xlink:href="#mdbe37c6e31" x="230.4" y="280.8" style="stroke: #000000; stroke-width: 0.6"/>
      </g>
     </g>
    </g>
    <g id="ytick_16">
     <g id="line2d_45">
      <g>
       <use xlink:href="#mdbe37c6e31" x="230.4" y="272.492308" style="stroke: #000000; stroke-width: 0.6"/>
      </g>
     </g>
    </g>
    <g id="ytick_17">
     <g id="line2d_46">
      <g>
       <use xlink:href="#mdbe37c6e31" x="230.4" y="264.184615" style="stroke: #000000; stroke-width: 0.6"/>
      </g>
     </g>
    </g>
    <g id="ytick_18">
     <g id="line2d_47">
      <g>
       <use xlink:href="#mdbe37c6e31" x="230.4" y="247.569231" style="stroke: #000000; stroke-width: 0.6"/>
      </g>
     </g>
    </g>
    <g id="ytick_19">
     <g id="line2d_48">
      <g>
       <use xlink:href="#mdbe37c6e31" x="230.4" y="239.261538" style="stroke: #000000; stroke-width: 0.6"/>
      </g>
     </g>
    </g>
    <g id="ytick_20">
     <g id="line2d_49">
      <g>
       <use xlink:href="#mdbe37c6e31" x="230.4" y="230.953846" style="stroke: #000000; stroke-width: 0.6"/>
      </g>
     </g>
    </g>
    <g id="ytick_21">
     <g id="line2d_50">
      <g>
       <use xlink:href="#mdbe37c6e31" x="230.4" y="222.646154" style="stroke: #000000; stroke-width: 0.6"/>
      </g>
     </g>
    </g>
    <g id="ytick_22">
     <g id="line2d_51">
      <g>
       <use xlink:href="#mdbe37c6e31" x="230.4" y="206.030769" style="stroke: #000000; stroke-width: 0.6"/>
      </g>
     </g>
    </g>
    <g id="ytick_23">
     <g id="line2d_52">
      <g>
       <use xlink:href="#mdbe37c6e31" x="230.4" y="197.723077" style="stroke: #000000; stroke-width: 0.6"/>
      </g>
     </g>
    </g>
    <g id="ytick_24">
     <g id="line2d_53">
      <g>
       <use xlink:href="#mdbe37c6e31" x="230.4" y="189.415385" style="stroke: #000000; stroke-width: 0.6"/>
      </g>
     </g>
    </g>
    <g id="ytick_25">
     <g id="line2d_54">
      <g>
       <use xlink:href="#mdbe37c6e31" x="230.4" y="181.107692" style="stroke: #000000; stroke-width: 0.6"/>
      </g>
     </g>
    </g>
    <g id="ytick_26">
     <g id="line2d_55">
      <g>
       <use xlink:href="#mdbe37c6e31" x="230.4" y="164.492308" style="stroke: #000000; stroke-width: 0.6"/>
      </g>
     </g>
    </g>
    <g id="ytick_27">
     <g id="line2d_56">
      <g>
       <use xlink:href="#mdbe37c6e31" x="230.4" y="156.184615" style="stroke: #000000; stroke-width: 0.6"/>
      </g>
     </g>
    </g>
    <g id="ytick_28">
     <g id="line2d_57">
      <g>
       <use xlink:href="#mdbe37c6e31" x="230.4" y="147.876923" style="stroke: #000000; stroke-width: 0.6"/>
      </g>
     </g>
    </g>
    <g id="ytick_29">
     <g id="line2d_58">
      <g>
       <use xlink:href="#mdbe37c6e31" x="230.4" y="139.569231" style="stroke: #000000; stroke-width: 0.6"/>
      </g>
     </g>
    </g>
    <g id="ytick_30">
     <g id="line2d_59">
      <g>
       <use xlink:href="#mdbe37c6e31" x="230.4" y="122.953846" style="stroke: #000000; stroke-width: 0.6"/>
      </g>
     </g>
    </g>
    <g id="ytick_31">
     <g id="line2d_60">
      <g>
       <use xlink:href="#mdbe37c6e31" x="230.4" y="114.646154" style="stroke: #000000; stroke-width: 0.6"/>
      </g>
     </g>
    </g>
    <g id="ytick_32">
     <g id="line2d_61">
      <g>
       <use xlink:href="#mdbe37c6e31" x="230.4" y="106.338462" style="stroke: #000000; stroke-width: 0.6"/>
      </g>
     </g>
    </g>
    <g id="ytick_33">
     <g id="line2d_62">
      <g>
       <use xlink:href="#mdbe37c6e31" x="230.4" y="98.030769" style="stroke: #000000; stroke-width: 0.6"/>
      </g>
     </g>
    </g>
    <g id="ytick_34">
     <g id="line2d_63">
      <g>
       <use xlink:href="#mdbe37c6e31" x="230.4" y="81.415385" style="stroke: #000000; stroke-width: 0.6"/>
      </g>
     </g>
    </g>
    <g id="ytick_35">
     <g id="line2d_64">
      <g>
       <use xlink:href="#mdbe37c6e31" x="230.4" y="73.107692" style="stroke: #000000; stroke-width: 0.6"/>
      </g>
     </g>
    </g>
    <g id="ytick_36">
     <g id="line2d_65">
      <g>
       <use xlink:href="#mdbe37c6e31" x="230.4" y="64.8" style="stroke: #000000; stroke-width: 0.6"/>
      </g>
     </g>
    </g>
    <g id="ytick_37">
     <g id="line2d_66">
      <g>
       <use xlink:href="#mdbe37c6e31" x="230.4" y="56.492308" style="stroke: #000000; stroke-width: 0.6"/>
      </g>
     </g>
    </g>
    <g id="ytick_38">
     <g id="line2d_67">
      <g>
       <use xlink:href="#mdbe37c6e31" x="230.4" y="39.876923" style="stroke: #000000; stroke-width: 0.6"/>
      </g>
     </g>
    </g>
    <g id="ytick_39">
     <g id="line2d_68">
      <g>
       <use xlink:href="#mdbe37c6e31" x="230.4" y="31.569231" style="stroke: #000000; stroke-width: 0.6"/>
      </g>
     </g>
    </g>
    <g id="ytick_40">
     <g id="line2d_69">
      <g>
       <use xlink:href="#mdbe37c6e31" x="230.4" y="23.261538" style="stroke: #000000; stroke-width: 0.6"/>
      </g>
     </g>
    </g>
    <g id="ytick_41">
     <g id="line2d_70">
      <g>
       <use xlink:href="#mdbe37c6e31" x="230.4" y="14.953846" style="stroke: #000000; stroke-width: 0.6"/>
      </g>
     </g>
    </g>
   </g>
   <g id="line2d_71">
    <path d="M 8.861538 280.646154 
L 36.758377 267.032462 
L 59.16275 256.323443 
L 79.125808 247.02728 
L 95.707637 239.561251 
L 108.247486 234.135764 
L 120.147798 229.236846 
L 130.003672 225.439449 
L 136.906438 222.97479 
L 143.216445 220.912454 
L 148.201297 219.452644 
L 153.72668 218.067425 
L 157.615907 217.28577 
L 161.570507 216.708886 
L 164.881981 216.446658 
L 167.976742 216.441191 
L 170.843901 216.707938 
L 173.384544 217.232965 
L 175.205435 217.825584 
L 177.065001 218.669175 
L 178.833503 219.754625 
L 180.200166 220.832437 
L 181.505867 222.106088 
L 182.722377 223.558535 
L 183.845577 225.182247 
L 185.155978 227.510776 
L 186.374911 230.219423 
L 187.406645 233.048232 
L 188.400029 236.381182 
L 189.316716 240.15176 
L 190.301329 245.198463 
L 191.187482 250.94757 
L 192.073634 258.311405 
L 192.913965 267.452746 
L 193.683519 278.573927 
L 194.324814 290.870255 
L 194.966109 307.4118 
L 195.607404 330.795279 
L 195.928246 346.6 
M 198.717012 346.6 
L 198.719614 -1 
M 201.051657 -1 
L 201.555916 33.13531 
L 202.121607 59.181014 
L 202.737272 79.06735 
L 203.47607 96.022765 
L 204.214868 108.330492 
L 205.076799 118.989304 
L 205.979644 127.362473 
L 206.942701 134.195719 
L 207.918447 139.596347 
L 208.894193 143.90633 
L 210.103263 148.15737 
L 211.356522 151.640781 
L 212.514334 154.24602 
L 213.903709 156.793362 
L 215.091751 158.587794 
L 216.639732 160.521415 
L 218.285858 162.193267 
L 219.96013 163.586589 
L 221.82087 164.860903 
L 223.422394 165.781184 
L 226.191139 167.091744 
L 229.575963 168.37053 
L 233.517651 169.613948 
L 242.135287 172.218101 
L 245.789145 173.547576 
L 249.105068 175.004916 
L 251.713565 176.384283 
L 253.939955 177.770374 
L 256.263207 179.470917 
L 258.476948 181.387165 
L 260.236071 183.159192 
L 262.182225 185.429377 
L 264.311527 188.364671 
L 266.27431 191.584549 
L 268.070336 195.065612 
L 269.733813 198.851244 
L 271.337861 203.13086 
L 272.674568 207.273842 
L 274.189357 212.74854 
L 275.576019 218.657624 
L 276.977614 225.727687 
L 278.178982 232.892496 
L 279.325829 240.932565 
L 280.538715 251.05743 
L 281.670631 262.447767 
L 282.80425 276.334477 
L 283.832241 291.78918 
L 284.860232 310.949139 
L 285.838978 333.964927 
L 286.288038 346.6 
M 293.691943 346.6 
L 293.692062 -1 
M 308.54247 -1 
L 309.796514 7.126042 
L 311.174911 14.607583 
L 312.57144 20.971366 
L 313.967968 26.362731 
L 315.444888 31.213977 
L 316.997501 35.550078 
L 318.324979 38.746296 
L 319.944861 42.117513 
L 321.676792 45.186064 
L 323.57154 48.019946 
L 325.192802 50.082959 
L 326.953993 52.005742 
L 328.98776 53.876841 
L 331.013089 55.425983 
L 333.315188 56.866991 
L 335.462 57.951503 
L 337.698414 58.855405 
L 340.188946 59.630653 
L 343.157845 60.285561 
L 345.86858 60.667583 
L 348.956349 60.891199 
L 352.328759 60.917996 
L 355.612175 60.760035 
L 359.756239 60.343463 
L 363.690079 59.759844 
L 369.046224 58.722567 
L 374.46147 57.440634 
L 380.161525 55.885661 
L 386.761628 53.871211 
L 394.706355 51.202051 
L 403.169472 48.125956 
L 413.023499 44.307303 
L 425.661413 39.122724 
L 437.829129 33.898215 
L 451.938462 27.623077 
L 451.938462 27.623077 
" clip-path="url(#p3cb4e316c7)" style="fill: none; stroke: #0000cc; stroke-linecap: square"/>
   </g>
   <g id="line2d_72">
    <path d="M 8.861538 272.492308 
L 451.938462 39.876923 
L 451.938462 39.876923 
" clip-path="url(#p3cb4e316c7)" style="fill: none; stroke: #3ccc00; stroke-linecap: square"/>
   </g>
   <g id="patch_4">
    <path d="M 230.4 345.6 
L 230.4 0 
" style="fill: none; stroke: #000000; stroke-width: 0.8; stroke-linejoin: miter; stroke-linecap: square"/>
   </g>
   <g id="patch_5">
    <path d="M 0 172.8 
L 460.8 172.8 
" style="fill: none; stroke: #000000; stroke-width: 0.8; stroke-linejoin: miter; stroke-linecap: square"/>
   </g>
  </g>
 </g>
 <defs>
  <clipPath id="p3cb4e316c7">
   <rect x="0" y="0" width="460.8" height="345.6"/>
  </clipPath>
 </defs>
</svg>
