<?xml version="1.0" encoding="utf-8" standalone="no"?>
<!DOCTYPE svg PUBLIC "-//W3C//DTD SVG 1.1//EN"
  "http://www.w3.org/Graphics/SVG/1.1/DTD/svg11.dtd">
<!-- Created with matplotlib (http://matplotlib.org/) -->
<svg height="345.6pt" version="1.1" viewBox="0 0 460.8 345.6" width="460.8pt" xmlns="http://www.w3.org/2000/svg" xmlns:xlink="http://www.w3.org/1999/xlink">
 <defs>
  <style type="text/css">
*{stroke-linecap:butt;stroke-linejoin:round;}
  </style>
 </defs>
 <g id="figure_1">
  <g id="patch_1">
   <path d="M 0 345.6 
L 460.8 345.6 
L 460.8 0 
L 0 0 
z
" style="fill:#ffffff;"/>
  </g>
  <g id="axes_1">
   <g id="patch_2">
    <path d="M 60.114552 343.08 
L 400.685448 343.08 
L 400.685448 2.52 
L 60.114552 2.52 
z
" style="fill:#ffffff;"/>
   </g>
   <g id="matplotlib.axis_1">
    <g id="xtick_1">
     <g id="line2d_1">
      <defs>
       <path d="M 0 0 
L 0 3.5 
" id="m5b77b67a6f" style="stroke:#000000;stroke-width:0.8;"/>
      </defs>
      <g>
       <use style="stroke:#000000;stroke-width:0.8;" x="66.663585" xlink:href="#m5b77b67a6f" y="227.3733"/>
      </g>
     </g>
     <g id="text_1">
      <!-- -1 -->
      <defs>
       <path d="M 4.890625 31.390625 
L 31.203125 31.390625 
L 31.203125 23.390625 
L 4.890625 23.390625 
z
" id="DejaVuSans-2d"/>
       <path d="M 12.40625 8.296875 
L 28.515625 8.296875 
L 28.515625 63.921875 
L 10.984375 60.40625 
L 10.984375 69.390625 
L 28.421875 72.90625 
L 38.28125 72.90625 
L 38.28125 8.296875 
L 54.390625 8.296875 
L 54.390625 0 
L 12.40625 0 
z
" id="DejaVuSans-31"/>
      </defs>
      <g transform="translate(61.678429 241.971738)scale(0.1 -0.1)">
       <use xlink:href="#DejaVuSans-2d"/>
       <use x="36.083984" xlink:href="#DejaVuSans-31"/>
      </g>
     </g>
    </g>
    <g id="xtick_2">
     <g id="line2d_2">
      <g>
       <use style="stroke:#000000;stroke-width:0.8;" x="121.242322" xlink:href="#m5b77b67a6f" y="227.3733"/>
      </g>
     </g>
     <g id="text_2">
      <!-- -0.5 -->
      <defs>
       <path d="M 31.78125 66.40625 
Q 24.171875 66.40625 20.328125 58.90625 
Q 16.5 51.421875 16.5 36.375 
Q 16.5 21.390625 20.328125 13.890625 
Q 24.171875 6.390625 31.78125 6.390625 
Q 39.453125 6.390625 43.28125 13.890625 
Q 47.125 21.390625 47.125 36.375 
Q 47.125 51.421875 43.28125 58.90625 
Q 39.453125 66.40625 31.78125 66.40625 
z
M 31.78125 74.21875 
Q 44.046875 74.21875 50.515625 64.515625 
Q 56.984375 54.828125 56.984375 36.375 
Q 56.984375 17.96875 50.515625 8.265625 
Q 44.046875 -1.421875 31.78125 -1.421875 
Q 19.53125 -1.421875 13.0625 8.265625 
Q 6.59375 17.96875 6.59375 36.375 
Q 6.59375 54.828125 13.0625 64.515625 
Q 19.53125 74.21875 31.78125 74.21875 
z
" id="DejaVuSans-30"/>
       <path d="M 10.6875 12.40625 
L 21 12.40625 
L 21 0 
L 10.6875 0 
z
" id="DejaVuSans-2e"/>
       <path d="M 10.796875 72.90625 
L 49.515625 72.90625 
L 49.515625 64.59375 
L 19.828125 64.59375 
L 19.828125 46.734375 
Q 21.96875 47.46875 24.109375 47.828125 
Q 26.265625 48.1875 28.421875 48.1875 
Q 40.625 48.1875 47.75 41.5 
Q 54.890625 34.8125 54.890625 23.390625 
Q 54.890625 11.625 47.5625 5.09375 
Q 40.234375 -1.421875 26.90625 -1.421875 
Q 22.3125 -1.421875 17.546875 -0.640625 
Q 12.796875 0.140625 7.71875 1.703125 
L 7.71875 11.625 
Q 12.109375 9.234375 16.796875 8.0625 
Q 21.484375 6.890625 26.703125 6.890625 
Q 35.15625 6.890625 40.078125 11.328125 
Q 45.015625 15.765625 45.015625 23.390625 
Q 45.015625 31 40.078125 35.4375 
Q 35.15625 39.890625 26.703125 39.890625 
Q 22.75 39.890625 18.8125 39.015625 
Q 14.890625 38.140625 10.796875 36.28125 
z
" id="DejaVuSans-35"/>
      </defs>
      <g transform="translate(111.486853 241.971738)scale(0.1 -0.1)">
       <use xlink:href="#DejaVuSans-2d"/>
       <use x="36.083984" xlink:href="#DejaVuSans-30"/>
       <use x="99.707031" xlink:href="#DejaVuSans-2e"/>
       <use x="131.494141" xlink:href="#DejaVuSans-35"/>
      </g>
     </g>
    </g>
    <g id="xtick_3">
     <g id="line2d_3">
      <g>
       <use style="stroke:#000000;stroke-width:0.8;" x="175.821059" xlink:href="#m5b77b67a6f" y="227.3733"/>
      </g>
     </g>
    </g>
    <g id="xtick_4">
     <g id="line2d_4">
      <g>
       <use style="stroke:#000000;stroke-width:0.8;" x="230.399797" xlink:href="#m5b77b67a6f" y="227.3733"/>
      </g>
     </g>
     <g id="text_3">
      <!-- 0.5 -->
      <g transform="translate(222.448234 241.971738)scale(0.1 -0.1)">
       <use xlink:href="#DejaVuSans-30"/>
       <use x="63.623047" xlink:href="#DejaVuSans-2e"/>
       <use x="95.410156" xlink:href="#DejaVuSans-35"/>
      </g>
     </g>
    </g>
    <g id="xtick_5">
     <g id="line2d_5">
      <g>
       <use style="stroke:#000000;stroke-width:0.8;" x="284.978534" xlink:href="#m5b77b67a6f" y="227.3733"/>
      </g>
     </g>
     <g id="text_4">
      <!-- 1 -->
      <g transform="translate(281.797284 241.971738)scale(0.1 -0.1)">
       <use xlink:href="#DejaVuSans-31"/>
      </g>
     </g>
    </g>
    <g id="xtick_6">
     <g id="line2d_6">
      <g>
       <use style="stroke:#000000;stroke-width:0.8;" x="339.557271" xlink:href="#m5b77b67a6f" y="227.3733"/>
      </g>
     </g>
     <g id="text_5">
      <!-- 1.5 -->
      <g transform="translate(331.605708 241.971738)scale(0.1 -0.1)">
       <use xlink:href="#DejaVuSans-31"/>
       <use x="63.623047" xlink:href="#DejaVuSans-2e"/>
       <use x="95.410156" xlink:href="#DejaVuSans-35"/>
      </g>
     </g>
    </g>
    <g id="xtick_7">
     <g id="line2d_7">
      <g>
       <use style="stroke:#000000;stroke-width:0.8;" x="394.136008" xlink:href="#m5b77b67a6f" y="227.3733"/>
      </g>
     </g>
     <g id="text_6">
      <!-- 2 -->
      <defs>
       <path d="M 19.1875 8.296875 
L 53.609375 8.296875 
L 53.609375 0 
L 7.328125 0 
L 7.328125 8.296875 
Q 12.9375 14.109375 22.625 23.890625 
Q 32.328125 33.6875 34.8125 36.53125 
Q 39.546875 41.84375 41.421875 45.53125 
Q 43.3125 49.21875 43.3125 52.78125 
Q 43.3125 58.59375 39.234375 62.25 
Q 35.15625 65.921875 28.609375 65.921875 
Q 23.96875 65.921875 18.8125 64.3125 
Q 13.671875 62.703125 7.8125 59.421875 
L 7.8125 69.390625 
Q 13.765625 71.78125 18.9375 73 
Q 24.125 74.21875 28.421875 74.21875 
Q 39.75 74.21875 46.484375 68.546875 
Q 53.21875 62.890625 53.21875 53.421875 
Q 53.21875 48.921875 51.53125 44.890625 
Q 49.859375 40.875 45.40625 35.40625 
Q 44.1875 33.984375 37.640625 27.21875 
Q 31.109375 20.453125 19.1875 8.296875 
z
" id="DejaVuSans-32"/>
      </defs>
      <g transform="translate(390.954758 241.971738)scale(0.1 -0.1)">
       <use xlink:href="#DejaVuSans-32"/>
      </g>
     </g>
    </g>
    <g id="xtick_8">
     <g id="line2d_8">
      <defs>
       <path d="M 0 0 
L 0 2 
" id="mf3b33f892d" style="stroke:#000000;stroke-width:0.6;"/>
      </defs>
      <g>
       <use style="stroke:#000000;stroke-width:0.6;" x="77.579333" xlink:href="#mf3b33f892d" y="227.3733"/>
      </g>
     </g>
    </g>
    <g id="xtick_9">
     <g id="line2d_9">
      <g>
       <use style="stroke:#000000;stroke-width:0.6;" x="88.49508" xlink:href="#mf3b33f892d" y="227.3733"/>
      </g>
     </g>
    </g>
    <g id="xtick_10">
     <g id="line2d_10">
      <g>
       <use style="stroke:#000000;stroke-width:0.6;" x="99.410827" xlink:href="#mf3b33f892d" y="227.3733"/>
      </g>
     </g>
    </g>
    <g id="xtick_11">
     <g id="line2d_11">
      <g>
       <use style="stroke:#000000;stroke-width:0.6;" x="110.326575" xlink:href="#mf3b33f892d" y="227.3733"/>
      </g>
     </g>
    </g>
    <g id="xtick_12">
     <g id="line2d_12">
      <g>
       <use style="stroke:#000000;stroke-width:0.6;" x="132.15807" xlink:href="#mf3b33f892d" y="227.3733"/>
      </g>
     </g>
    </g>
    <g id="xtick_13">
     <g id="line2d_13">
      <g>
       <use style="stroke:#000000;stroke-width:0.6;" x="143.073817" xlink:href="#mf3b33f892d" y="227.3733"/>
      </g>
     </g>
    </g>
    <g id="xtick_14">
     <g id="line2d_14">
      <g>
       <use style="stroke:#000000;stroke-width:0.6;" x="153.989565" xlink:href="#mf3b33f892d" y="227.3733"/>
      </g>
     </g>
    </g>
    <g id="xtick_15">
     <g id="line2d_15">
      <g>
       <use style="stroke:#000000;stroke-width:0.6;" x="164.905312" xlink:href="#mf3b33f892d" y="227.3733"/>
      </g>
     </g>
    </g>
    <g id="xtick_16">
     <g id="line2d_16">
      <g>
       <use style="stroke:#000000;stroke-width:0.6;" x="186.736807" xlink:href="#mf3b33f892d" y="227.3733"/>
      </g>
     </g>
    </g>
    <g id="xtick_17">
     <g id="line2d_17">
      <g>
       <use style="stroke:#000000;stroke-width:0.6;" x="197.652554" xlink:href="#mf3b33f892d" y="227.3733"/>
      </g>
     </g>
    </g>
    <g id="xtick_18">
     <g id="line2d_18">
      <g>
       <use style="stroke:#000000;stroke-width:0.6;" x="208.568302" xlink:href="#mf3b33f892d" y="227.3733"/>
      </g>
     </g>
    </g>
    <g id="xtick_19">
     <g id="line2d_19">
      <g>
       <use style="stroke:#000000;stroke-width:0.6;" x="219.484049" xlink:href="#mf3b33f892d" y="227.3733"/>
      </g>
     </g>
    </g>
    <g id="xtick_20">
     <g id="line2d_20">
      <g>
       <use style="stroke:#000000;stroke-width:0.6;" x="241.315544" xlink:href="#mf3b33f892d" y="227.3733"/>
      </g>
     </g>
    </g>
    <g id="xtick_21">
     <g id="line2d_21">
      <g>
       <use style="stroke:#000000;stroke-width:0.6;" x="252.231291" xlink:href="#mf3b33f892d" y="227.3733"/>
      </g>
     </g>
    </g>
    <g id="xtick_22">
     <g id="line2d_22">
      <g>
       <use style="stroke:#000000;stroke-width:0.6;" x="263.147039" xlink:href="#mf3b33f892d" y="227.3733"/>
      </g>
     </g>
    </g>
    <g id="xtick_23">
     <g id="line2d_23">
      <g>
       <use style="stroke:#000000;stroke-width:0.6;" x="274.062786" xlink:href="#mf3b33f892d" y="227.3733"/>
      </g>
     </g>
    </g>
    <g id="xtick_24">
     <g id="line2d_24">
      <g>
       <use style="stroke:#000000;stroke-width:0.6;" x="295.894281" xlink:href="#mf3b33f892d" y="227.3733"/>
      </g>
     </g>
    </g>
    <g id="xtick_25">
     <g id="line2d_25">
      <g>
       <use style="stroke:#000000;stroke-width:0.6;" x="306.810029" xlink:href="#mf3b33f892d" y="227.3733"/>
      </g>
     </g>
    </g>
    <g id="xtick_26">
     <g id="line2d_26">
      <g>
       <use style="stroke:#000000;stroke-width:0.6;" x="317.725776" xlink:href="#mf3b33f892d" y="227.3733"/>
      </g>
     </g>
    </g>
    <g id="xtick_27">
     <g id="line2d_27">
      <g>
       <use style="stroke:#000000;stroke-width:0.6;" x="328.641523" xlink:href="#mf3b33f892d" y="227.3733"/>
      </g>
     </g>
    </g>
    <g id="xtick_28">
     <g id="line2d_28">
      <g>
       <use style="stroke:#000000;stroke-width:0.6;" x="350.473018" xlink:href="#mf3b33f892d" y="227.3733"/>
      </g>
     </g>
    </g>
    <g id="xtick_29">
     <g id="line2d_29">
      <g>
       <use style="stroke:#000000;stroke-width:0.6;" x="361.388766" xlink:href="#mf3b33f892d" y="227.3733"/>
      </g>
     </g>
    </g>
    <g id="xtick_30">
     <g id="line2d_30">
      <g>
       <use style="stroke:#000000;stroke-width:0.6;" x="372.304513" xlink:href="#mf3b33f892d" y="227.3733"/>
      </g>
     </g>
    </g>
    <g id="xtick_31">
     <g id="line2d_31">
      <g>
       <use style="stroke:#000000;stroke-width:0.6;" x="383.220261" xlink:href="#mf3b33f892d" y="227.3733"/>
      </g>
     </g>
    </g>
   </g>
   <g id="matplotlib.axis_2">
    <g id="ytick_1">
     <g id="line2d_32">
      <defs>
       <path d="M 0 0 
L -3.5 0 
" id="m93154f6ef2" style="stroke:#000000;stroke-width:0.8;"/>
      </defs>
      <g>
       <use style="stroke:#000000;stroke-width:0.8;" x="175.821059" xlink:href="#m93154f6ef2" y="336.530774"/>
      </g>
     </g>
     <g id="text_7">
      <!-- -1 -->
      <g transform="translate(158.850747 340.329993)scale(0.1 -0.1)">
       <use xlink:href="#DejaVuSans-2d"/>
       <use x="36.083984" xlink:href="#DejaVuSans-31"/>
      </g>
     </g>
    </g>
    <g id="ytick_2">
     <g id="line2d_33">
      <g>
       <use style="stroke:#000000;stroke-width:0.8;" x="175.821059" xlink:href="#m93154f6ef2" y="281.952037"/>
      </g>
     </g>
     <g id="text_8">
      <!-- -0.5 -->
      <g transform="translate(149.310122 285.751256)scale(0.1 -0.1)">
       <use xlink:href="#DejaVuSans-2d"/>
       <use x="36.083984" xlink:href="#DejaVuSans-30"/>
       <use x="99.707031" xlink:href="#DejaVuSans-2e"/>
       <use x="131.494141" xlink:href="#DejaVuSans-35"/>
      </g>
     </g>
    </g>
    <g id="ytick_3">
     <g id="line2d_34">
      <g>
       <use style="stroke:#000000;stroke-width:0.8;" x="175.821059" xlink:href="#m93154f6ef2" y="227.3733"/>
      </g>
     </g>
    </g>
    <g id="ytick_4">
     <g id="line2d_35">
      <g>
       <use style="stroke:#000000;stroke-width:0.8;" x="175.821059" xlink:href="#m93154f6ef2" y="172.794563"/>
      </g>
     </g>
     <g id="text_9">
      <!-- 0.5 -->
      <g transform="translate(152.917934 176.593782)scale(0.1 -0.1)">
       <use xlink:href="#DejaVuSans-30"/>
       <use x="63.623047" xlink:href="#DejaVuSans-2e"/>
       <use x="95.410156" xlink:href="#DejaVuSans-35"/>
      </g>
     </g>
    </g>
    <g id="ytick_5">
     <g id="line2d_36">
      <g>
       <use style="stroke:#000000;stroke-width:0.8;" x="175.821059" xlink:href="#m93154f6ef2" y="118.215826"/>
      </g>
     </g>
     <g id="text_10">
      <!-- 1 -->
      <g transform="translate(162.458559 122.015045)scale(0.1 -0.1)">
       <use xlink:href="#DejaVuSans-31"/>
      </g>
     </g>
    </g>
    <g id="ytick_6">
     <g id="line2d_37">
      <g>
       <use style="stroke:#000000;stroke-width:0.8;" x="175.821059" xlink:href="#m93154f6ef2" y="63.637089"/>
      </g>
     </g>
     <g id="text_11">
      <!-- 1.5 -->
      <g transform="translate(152.917934 67.436307)scale(0.1 -0.1)">
       <use xlink:href="#DejaVuSans-31"/>
       <use x="63.623047" xlink:href="#DejaVuSans-2e"/>
       <use x="95.410156" xlink:href="#DejaVuSans-35"/>
      </g>
     </g>
    </g>
    <g id="ytick_7">
     <g id="line2d_38">
      <g>
       <use style="stroke:#000000;stroke-width:0.8;" x="175.821059" xlink:href="#m93154f6ef2" y="9.058352"/>
      </g>
     </g>
     <g id="text_12">
      <!-- 2 -->
      <g transform="translate(162.458559 12.85757)scale(0.1 -0.1)">
       <use xlink:href="#DejaVuSans-32"/>
      </g>
     </g>
    </g>
    <g id="ytick_8">
     <g id="line2d_39">
      <defs>
       <path d="M 0 0 
L -2 0 
" id="m35a034f9ca" style="stroke:#000000;stroke-width:0.6;"/>
      </defs>
      <g>
       <use style="stroke:#000000;stroke-width:0.6;" x="175.821059" xlink:href="#m35a034f9ca" y="325.615027"/>
      </g>
     </g>
    </g>
    <g id="ytick_9">
     <g id="line2d_40">
      <g>
       <use style="stroke:#000000;stroke-width:0.6;" x="175.821059" xlink:href="#m35a034f9ca" y="314.69928"/>
      </g>
     </g>
    </g>
    <g id="ytick_10">
     <g id="line2d_41">
      <g>
       <use style="stroke:#000000;stroke-width:0.6;" x="175.821059" xlink:href="#m35a034f9ca" y="303.783532"/>
      </g>
     </g>
    </g>
    <g id="ytick_11">
     <g id="line2d_42">
      <g>
       <use style="stroke:#000000;stroke-width:0.6;" x="175.821059" xlink:href="#m35a034f9ca" y="292.867785"/>
      </g>
     </g>
    </g>
    <g id="ytick_12">
     <g id="line2d_43">
      <g>
       <use style="stroke:#000000;stroke-width:0.6;" x="175.821059" xlink:href="#m35a034f9ca" y="271.03629"/>
      </g>
     </g>
    </g>
    <g id="ytick_13">
     <g id="line2d_44">
      <g>
       <use style="stroke:#000000;stroke-width:0.6;" x="175.821059" xlink:href="#m35a034f9ca" y="260.120542"/>
      </g>
     </g>
    </g>
    <g id="ytick_14">
     <g id="line2d_45">
      <g>
       <use style="stroke:#000000;stroke-width:0.6;" x="175.821059" xlink:href="#m35a034f9ca" y="249.204795"/>
      </g>
     </g>
    </g>
    <g id="ytick_15">
     <g id="line2d_46">
      <g>
       <use style="stroke:#000000;stroke-width:0.6;" x="175.821059" xlink:href="#m35a034f9ca" y="238.289048"/>
      </g>
     </g>
    </g>
    <g id="ytick_16">
     <g id="line2d_47">
      <g>
       <use style="stroke:#000000;stroke-width:0.6;" x="175.821059" xlink:href="#m35a034f9ca" y="216.457553"/>
      </g>
     </g>
    </g>
    <g id="ytick_17">
     <g id="line2d_48">
      <g>
       <use style="stroke:#000000;stroke-width:0.6;" x="175.821059" xlink:href="#m35a034f9ca" y="205.541805"/>
      </g>
     </g>
    </g>
    <g id="ytick_18">
     <g id="line2d_49">
      <g>
       <use style="stroke:#000000;stroke-width:0.6;" x="175.821059" xlink:href="#m35a034f9ca" y="194.626058"/>
      </g>
     </g>
    </g>
    <g id="ytick_19">
     <g id="line2d_50">
      <g>
       <use style="stroke:#000000;stroke-width:0.6;" x="175.821059" xlink:href="#m35a034f9ca" y="183.71031"/>
      </g>
     </g>
    </g>
    <g id="ytick_20">
     <g id="line2d_51">
      <g>
       <use style="stroke:#000000;stroke-width:0.6;" x="175.821059" xlink:href="#m35a034f9ca" y="161.878816"/>
      </g>
     </g>
    </g>
    <g id="ytick_21">
     <g id="line2d_52">
      <g>
       <use style="stroke:#000000;stroke-width:0.6;" x="175.821059" xlink:href="#m35a034f9ca" y="150.963068"/>
      </g>
     </g>
    </g>
    <g id="ytick_22">
     <g id="line2d_53">
      <g>
       <use style="stroke:#000000;stroke-width:0.6;" x="175.821059" xlink:href="#m35a034f9ca" y="140.047321"/>
      </g>
     </g>
    </g>
    <g id="ytick_23">
     <g id="line2d_54">
      <g>
       <use style="stroke:#000000;stroke-width:0.6;" x="175.821059" xlink:href="#m35a034f9ca" y="129.131573"/>
      </g>
     </g>
    </g>
    <g id="ytick_24">
     <g id="line2d_55">
      <g>
       <use style="stroke:#000000;stroke-width:0.6;" x="175.821059" xlink:href="#m35a034f9ca" y="107.300078"/>
      </g>
     </g>
    </g>
    <g id="ytick_25">
     <g id="line2d_56">
      <g>
       <use style="stroke:#000000;stroke-width:0.6;" x="175.821059" xlink:href="#m35a034f9ca" y="96.384331"/>
      </g>
     </g>
    </g>
    <g id="ytick_26">
     <g id="line2d_57">
      <g>
       <use style="stroke:#000000;stroke-width:0.6;" x="175.821059" xlink:href="#m35a034f9ca" y="85.468584"/>
      </g>
     </g>
    </g>
    <g id="ytick_27">
     <g id="line2d_58">
      <g>
       <use style="stroke:#000000;stroke-width:0.6;" x="175.821059" xlink:href="#m35a034f9ca" y="74.552836"/>
      </g>
     </g>
    </g>
    <g id="ytick_28">
     <g id="line2d_59">
      <g>
       <use style="stroke:#000000;stroke-width:0.6;" x="175.821059" xlink:href="#m35a034f9ca" y="52.721341"/>
      </g>
     </g>
    </g>
    <g id="ytick_29">
     <g id="line2d_60">
      <g>
       <use style="stroke:#000000;stroke-width:0.6;" x="175.821059" xlink:href="#m35a034f9ca" y="41.805594"/>
      </g>
     </g>
    </g>
    <g id="ytick_30">
     <g id="line2d_61">
      <g>
       <use style="stroke:#000000;stroke-width:0.6;" x="175.821059" xlink:href="#m35a034f9ca" y="30.889846"/>
      </g>
     </g>
    </g>
    <g id="ytick_31">
     <g id="line2d_62">
      <g>
       <use style="stroke:#000000;stroke-width:0.6;" x="175.821059" xlink:href="#m35a034f9ca" y="19.974099"/>
      </g>
     </g>
    </g>
   </g>
   <g id="line2d_63">
    <path clip-path="url(#pb6b30000a4)" d="M 175.821059 227.3733 
L 182.786208 227.150856 
L 189.398789 226.525564 
L 197.277362 225.243772 
L 202.43261 224.079793 
L 208.976865 222.216051 
L 219.164749 218.399052 
L 222.940212 216.679726 
L 228.42185 213.863675 
L 231.882268 211.877425 
L 238.803695 207.370421 
L 245.13554 202.541723 
L 250.350222 197.970187 
L 253.887248 194.511464 
L 258.944198 188.968197 
L 263.352615 183.435309 
L 266.689769 178.699145 
L 269.770928 173.792587 
L 271.352918 171.026982 
L 274.36205 165.173545 
L 276.714573 159.879397 
L 278.781013 154.473268 
L 280.430854 149.395067 
L 281.830393 144.242262 
L 282.579006 140.977526 
L 284.064171 132.314865 
L 284.858903 123.324929 
L 284.969952 116.847108 
L 284.554108 108.599262 
L 284.022702 103.801985 
L 282.661631 95.845166 
L 281.662667 91.515485 
L 280.124614 86.026968 
L 277.395578 78.241191 
L 275.184053 73.023462 
L 272.755069 68.024672 
L 270.074807 63.155992 
L 267.633907 59.175542 
L 265.19805 55.549187 
L 262.619045 52.023199 
L 257.831179 46.176292 
L 255.27681 43.368395 
L 251.860518 39.900087 
L 246.68262 35.18575 
L 241.303976 30.881172 
L 237.37242 28.067148 
L 233.320111 25.42998 
L 229.115345 22.952647 
L 224.020887 20.276401 
L 219.121832 18.014043 
L 214.116958 15.99656 
L 207.58891 13.783274 
L 200.787366 11.951826 
L 196.719484 11.077551 
L 190.9434 10.110928 
L 184.921994 9.438406 
L 178.87255 9.101012 
L 173.287847 9.08775 
L 166.011971 9.499976 
L 161.359419 10.020562 
L 155.155086 11.03247 
L 150.380061 12.064473 
L 145.655994 13.309091 
L 142.163498 14.376899 
L 135.830334 16.647641 
L 131.708309 18.368846 
L 127.660156 20.257255 
L 124.051504 22.115528 
L 119.307891 24.826233 
L 114.705853 27.770894 
L 112.067547 29.610838 
L 107.050565 33.445705 
L 101.992807 37.812198 
L 96.325428 43.410754 
L 92.450166 47.755565 
L 89.670465 51.18278 
L 87.031554 54.719543 
L 84.491153 58.431192 
L 82.105813 62.244344 
L 78.320542 69.134228 
L 75.705871 74.715215 
L 74.166782 78.444452 
L 72.15401 84.032538 
L 70.796628 88.463127 
L 69.62851 92.947333 
L 68.659676 97.436217 
L 67.880504 101.961879 
L 67.227263 107.136947 
L 66.696584 115.531987 
L 66.669802 119.380795 
L 66.964291 126.312628 
L 67.702047 133.236926 
L 69.271378 141.933323 
L 70.799061 147.977109 
L 72.443159 153.263848 
L 74.959876 159.957603 
L 77.965885 166.586469 
L 80.122188 170.723731 
L 85.93074 180.143887 
L 91.160444 187.121082 
L 92.92441 189.233428 
L 98.981897 195.747093 
L 102.68433 199.248986 
L 112.105992 206.848463 
L 119.893641 211.957375 
L 125.854607 215.265853 
L 134.472825 219.23898 
L 140.6462 221.550638 
L 147.837594 223.725446 
L 157.469645 225.819635 
L 165.908303 226.922272 
L 169.336451 227.180518 
L 179.307686 227.317602 
L 186.144059 226.884082 
L 194.705288 225.727407 
L 200.483244 224.550819 
L 205.773977 223.18333 
L 215.424952 219.935469 
L 221.353628 217.423383 
L 228.761244 213.676242 
L 237.124891 208.533014 
L 243.716807 203.68817 
L 248.31278 199.826516 
L 251.107511 197.255717 
L 257.58203 190.538007 
L 261.665747 185.640182 
L 268.841709 175.334237 
L 272.349641 169.182356 
L 276.149133 161.223172 
L 277.96343 156.71635 
L 281.033691 147.295996 
L 281.750782 144.564414 
L 283.007131 138.867707 
L 283.957351 133.112018 
L 284.436103 129.084427 
L 284.920396 121.777974 
L 284.963708 116.416783 
L 284.687102 110.244698 
L 284.061742 104.098148 
L 283.509953 100.370481 
L 282.247436 93.951025 
L 280.009747 85.657084 
L 278.632956 81.540654 
L 277.093598 77.482215 
L 275.366104 73.425891 
L 273.21228 68.917709 
L 270.733835 64.299973 
L 268.036606 59.806518 
L 264.834879 55.034388 
L 260.082749 48.823305 
L 256.568873 44.764176 
L 253.487907 41.513707 
L 250.2762 38.392356 
L 246.255071 34.822755 
L 242.145901 31.518827 
L 238.050819 28.534104 
L 233.821628 25.74265 
L 227.211606 21.912317 
L 223.001036 19.781055 
L 218.892565 17.915279 
L 212.300956 15.33448 
L 207.695044 13.815618 
L 200.997087 12.001317 
L 196.022852 10.944013 
L 191.004771 10.11953 
L 184.368182 9.393489 
L 179.327823 9.114695 
L 174.279964 9.069231 
L 170.122606 9.207194 
L 165.34385 9.562329 
L 159.908155 10.224467 
L 153.557132 11.352962 
L 144.936704 13.518592 
L 140.437805 14.952185 
L 133.133986 17.751066 
L 127.950773 20.114909 
L 122.897943 22.745946 
L 117.492638 25.949096 
L 112.349482 29.408658 
L 104.381071 35.68291 
L 101.154802 38.589798 
L 98.046711 41.622713 
L 94.85913 45.000253 
L 91.818101 48.510323 
L 88.947305 52.122672 
L 86.231736 55.853118 
L 82.124683 62.212761 
L 79.916207 66.085092 
L 77.867679 70.044366 
L 76.05665 73.916651 
L 74.398628 77.856878 
L 72.485122 83.044271 
L 71.071686 87.508774 
L 69.231279 94.679197 
L 68.243985 99.708331 
L 67.493841 104.778264 
L 67.108833 108.366665 
L 66.781786 113.137344 
L 66.663992 117.917768 
L 66.751684 122.600514 
L 67.040169 127.275187 
L 67.533372 131.968313 
L 68.283504 136.951575 
L 69.584767 143.299774 
L 71.897879 151.612333 
L 75.234689 160.615545 
L 76.774506 164.09757 
L 78.327546 167.311335 
L 81.55544 173.255332 
L 86.385366 180.798658 
L 91.657944 187.72787 
L 96.972616 193.702759 
L 102.047275 198.669433 
L 108.182664 203.89197 
L 112.734277 207.296756 
L 117.316358 210.37088 
L 122.791801 213.626789 
L 132.576448 218.441859 
L 140.546178 221.516537 
L 150.268173 224.340301 
L 158.749627 226.030112 
L 170.44485 227.240826 
L 175.821059 227.3733 
L 175.821059 227.3733 
" style="fill:none;stroke:#0000cc;stroke-linecap:square;"/>
   </g>
   <g id="line2d_64">
    <path clip-path="url(#pb6b30000a4)" d="M 394.136008 227.3733 
L 394.021522 222.375206 
L 393.678303 217.387597 
L 392.599849 209.12483 
L 391.6762 204.330683 
L 390.539099 199.582633 
L 389.252126 195.087511 
L 387.629149 190.249111 
L 385.781801 185.491855 
L 383.263465 179.881969 
L 381.94092 177.236988 
L 378.604829 171.253152 
L 374.496406 164.908071 
L 370.730673 159.831278 
L 365.667585 153.857103 
L 362.702862 150.729429 
L 359.616993 147.721216 
L 355.915929 144.408005 
L 350.098508 139.767688 
L 346.064337 136.908507 
L 341.904824 134.234953 
L 336.63348 131.21135 
L 332.40617 129.057617 
L 326.210534 126.30265 
L 320.669915 124.215753 
L 316.415103 122.840548 
L 312.107539 121.640754 
L 305.179091 120.101255 
L 297.85628 118.978107 
L 292.887199 118.502702 
L 286.767742 118.23049 
L 281.5912 118.268396 
L 276.422277 118.551682 
L 273.037169 118.870959 
L 267.209005 119.67187 
L 260.068602 121.096071 
L 253.620563 122.816943 
L 247.289738 124.928638 
L 243.994689 126.201769 
L 238.249851 128.723493 
L 231.621419 132.145297 
L 224.650217 136.40161 
L 221.823593 138.340679 
L 217.079566 141.903514 
L 212.536122 145.718838 
L 209.400728 148.611955 
L 203.67994 154.531741 
L 198.978348 160.147396 
L 196.337446 163.669989 
L 190.814373 172.160393 
L 188.418792 176.465831 
L 186.418077 180.456452 
L 182.17059 190.687051 
L 179.985174 197.511141 
L 178.890805 201.668279 
L 177.1289 210.526615 
L 176.248079 217.727455 
L 176.040357 220.457539 
L 175.837842 229.28737 
L 176.284434 237.420529 
L 176.675364 241.003329 
L 178.845665 252.891302 
L 180.215195 258.032673 
L 182.102328 263.867689 
L 185.370693 272.02341 
L 188.060923 277.596113 
L 190.610785 282.237516 
L 192.657201 285.615258 
L 197.565077 292.750986 
L 203.46692 299.976406 
L 208.156664 304.921701 
L 212.455144 308.955848 
L 217.81387 313.421323 
L 225.314447 318.782003 
L 229.208649 321.208657 
L 232.441011 323.055915 
L 239.244744 326.488257 
L 246.540814 329.539321 
L 255.29819 332.418202 
L 258.405235 333.246876 
L 263.659662 334.428706 
L 271.477638 335.692643 
L 277.783164 336.293367 
L 286.647123 336.518021 
L 291.589521 336.330397 
L 296.518347 335.919083 
L 302.793653 335.067198 
L 309.488226 333.743546 
L 313.793198 332.658956 
L 320.733989 330.508656 
L 327.041291 328.101045 
L 334.668286 324.565289 
L 339.716463 321.814357 
L 343.983648 319.208755 
L 347.721795 316.696519 
L 351.353125 314.032216 
L 355.89686 310.354896 
L 359.473586 307.159523 
L 362.906495 303.810118 
L 366.16286 300.342193 
L 370.203697 295.57906 
L 374.067992 290.448038 
L 376.345336 287.101532 
L 378.497037 283.67289 
L 381.057013 279.183337 
L 383.735156 273.875815 
L 386.77978 266.76696 
L 388.838611 260.96554 
L 390.548818 255.127026 
L 391.931089 249.202299 
L 393.03162 242.861516 
L 393.65841 237.573237 
L 393.983953 233.132882 
L 394.128151 228.682946 
L 394.113689 225.166024 
L 393.850705 219.48632 
L 393.222409 213.28012 
L 392.511826 208.613095 
L 391.600117 203.981159 
L 390.412333 199.105508 
L 389.016985 194.33764 
L 387.406148 189.638196 
L 384.606588 182.768311 
L 383.391524 180.14791 
L 380.705332 174.916325 
L 377.741287 169.837 
L 375.553503 166.45098 
L 371.362041 160.640671 
L 368.754614 157.395285 
L 363.996672 152.064018 
L 360.591563 148.64577 
L 357.038728 145.381333 
L 354.054016 142.851516 
L 348.464727 138.57658 
L 344.826613 136.084957 
L 341.090836 133.742303 
L 333.830389 129.757469 
L 328.577452 127.300884 
L 320.909007 124.298787 
L 313.510874 122.010784 
L 306.210758 120.300676 
L 301.76682 119.514561 
L 297.199758 118.902125 
L 292.610918 118.482984 
L 285.684612 118.21811 
L 282.866587 118.236258 
L 276.75398 118.52611 
L 270.667222 119.158049 
L 263.816458 120.28679 
L 260.813469 120.924233 
L 255.59701 122.244426 
L 250.451948 123.820082 
L 245.450279 125.62424 
L 238.975284 128.383123 
L 235.789007 129.927189 
L 227.743408 134.424419 
L 223.614343 137.097111 
L 217.176129 141.826891 
L 213.569025 144.81401 
L 205.263693 152.801869 
L 201.9608 156.497281 
L 199.956638 158.914324 
L 194.994542 165.581428 
L 190.220817 173.185393 
L 185.574667 182.27091 
L 180.804232 194.76856 
L 179.796769 198.181681 
L 178.797976 202.054467 
L 177.436344 208.664166 
L 176.000635 221.114571 
L 175.860257 224.448237 
L 175.930059 232.250227 
L 176.667433 240.940159 
L 177.227081 244.836937 
L 178.19782 250.027956 
L 180.034459 257.408204 
L 182.855343 265.924669 
L 185.057854 271.318857 
L 187.694657 276.882912 
L 193.060788 286.25014 
L 194.637132 288.641444 
L 199.334623 295.052505 
L 203.213039 299.690366 
L 209.752838 306.471018 
L 215.520347 311.580868 
L 221.60489 316.250381 
L 225.534527 318.925276 
L 231.98243 322.802683 
L 234.928594 324.380298 
L 242.823272 328.062367 
L 251.80592 331.368165 
L 254.466906 332.179764 
L 260.413778 333.730843 
L 268.377609 335.261036 
L 276.373607 336.191081 
L 285.012411 336.530769 
L 291.008502 336.364096 
L 296.554607 335.915222 
L 303.737989 334.906723 
L 308.792522 333.901457 
L 313.793974 332.658744 
L 320.399759 330.623923 
L 324.678122 329.055633 
L 330.448078 326.609759 
L 335.150395 324.317297 
L 340.193997 321.535962 
L 346.377882 317.625581 
L 352.46356 313.170302 
L 356.115864 310.167228 
L 359.634687 307.008801 
L 362.701417 304.018637 
L 365.648478 300.910462 
L 370.671586 294.990273 
L 373.244221 291.595746 
L 376.281521 287.199037 
L 378.808826 283.151705 
L 381.156838 278.997791 
L 382.792439 275.827341 
L 385.276434 270.450968 
L 387.021146 266.137453 
L 388.580444 261.753503 
L 389.896306 257.499952 
L 391.037611 253.196279 
L 392.447504 246.498534 
L 393.217971 241.500525 
L 393.686839 237.265648 
L 393.990081 233.0157 
L 394.136008 227.3733 
L 394.136008 227.3733 
" style="fill:none;stroke:#3ccc00;stroke-linecap:square;"/>
   </g>
   <g id="patch_3">
    <path d="M 175.821059 343.08 
L 175.821059 2.52 
" style="fill:none;stroke:#000000;stroke-linecap:square;stroke-linejoin:miter;stroke-width:0.8;"/>
   </g>
   <g id="patch_4">
    <path d="M 60.114552 227.3733 
L 400.685448 227.3733 
" style="fill:none;stroke:#000000;stroke-linecap:square;stroke-linejoin:miter;stroke-width:0.8;"/>
   </g>
  </g>
 </g>
 <defs>
  <clipPath id="pb6b30000a4">
   <rect height="340.56" width="340.570897" x="60.114552" y="2.52"/>
  </clipPath>
 </defs>
</svg>
