<?xml version="1.0" encoding="utf-8" standalone="no"?>
<!DOCTYPE svg PUBLIC "-//W3C//DTD SVG 1.1//EN"
  "http://www.w3.org/Graphics/SVG/1.1/DTD/svg11.dtd">
<!-- Created with matplotlib (http://matplotlib.org/) -->
<svg height="345.6pt" version="1.1" viewBox="0 0 460.8 345.6" width="460.8pt" xmlns="http://www.w3.org/2000/svg" xmlns:xlink="http://www.w3.org/1999/xlink">
 <defs>
  <style type="text/css">
*{stroke-linecap:butt;stroke-linejoin:round;}
  </style>
 </defs>
 <g id="figure_1">
  <g id="patch_1">
   <path d="M 0 345.6 
L 460.8 345.6 
L 460.8 0 
L 0 0 
z
" style="fill:#ffffff;"/>
  </g>
  <g id="axes_1">
   <g id="patch_2">
    <path d="M 68.297019 343.08 
L 392.502981 343.08 
L 392.502981 2.52 
L 68.297019 2.52 
z
" style="fill:#ffffff;"/>
   </g>
   <g id="matplotlib.axis_1">
    <g id="xtick_1">
     <g id="line2d_1">
      <defs>
       <path d="M 0 0 
L 0 3.5 
" id="m7be6d342bc" style="stroke:#000000;stroke-width:0.8;"/>
      </defs>
      <g>
       <use style="stroke:#000000;stroke-width:0.8;" x="148.53425" xlink:href="#m7be6d342bc" y="172.80209"/>
      </g>
     </g>
     <g id="text_1">
      <!-- -0.5 -->
      <defs>
       <path d="M 4.890625 31.390625 
L 31.203125 31.390625 
L 31.203125 23.390625 
L 4.890625 23.390625 
z
" id="DejaVuSans-2d"/>
       <path d="M 31.78125 66.40625 
Q 24.171875 66.40625 20.328125 58.90625 
Q 16.5 51.421875 16.5 36.375 
Q 16.5 21.390625 20.328125 13.890625 
Q 24.171875 6.390625 31.78125 6.390625 
Q 39.453125 6.390625 43.28125 13.890625 
Q 47.125 21.390625 47.125 36.375 
Q 47.125 51.421875 43.28125 58.90625 
Q 39.453125 66.40625 31.78125 66.40625 
z
M 31.78125 74.21875 
Q 44.046875 74.21875 50.515625 64.515625 
Q 56.984375 54.828125 56.984375 36.375 
Q 56.984375 17.96875 50.515625 8.265625 
Q 44.046875 -1.421875 31.78125 -1.421875 
Q 19.53125 -1.421875 13.0625 8.265625 
Q 6.59375 17.96875 6.59375 36.375 
Q 6.59375 54.828125 13.0625 64.515625 
Q 19.53125 74.21875 31.78125 74.21875 
z
" id="DejaVuSans-30"/>
       <path d="M 10.6875 12.40625 
L 21 12.40625 
L 21 0 
L 10.6875 0 
z
" id="DejaVuSans-2e"/>
       <path d="M 10.796875 72.90625 
L 49.515625 72.90625 
L 49.515625 64.59375 
L 19.828125 64.59375 
L 19.828125 46.734375 
Q 21.96875 47.46875 24.109375 47.828125 
Q 26.265625 48.1875 28.421875 48.1875 
Q 40.625 48.1875 47.75 41.5 
Q 54.890625 34.8125 54.890625 23.390625 
Q 54.890625 11.625 47.5625 5.09375 
Q 40.234375 -1.421875 26.90625 -1.421875 
Q 22.3125 -1.421875 17.546875 -0.640625 
Q 12.796875 0.140625 7.71875 1.703125 
L 7.71875 11.625 
Q 12.109375 9.234375 16.796875 8.0625 
Q 21.484375 6.890625 26.703125 6.890625 
Q 35.15625 6.890625 40.078125 11.328125 
Q 45.015625 15.765625 45.015625 23.390625 
Q 45.015625 31 40.078125 35.4375 
Q 35.15625 39.890625 26.703125 39.890625 
Q 22.75 39.890625 18.8125 39.015625 
Q 14.890625 38.140625 10.796875 36.28125 
z
" id="DejaVuSans-35"/>
      </defs>
      <g transform="translate(138.778782 187.400528)scale(0.1 -0.1)">
       <use xlink:href="#DejaVuSans-2d"/>
       <use x="36.083984" xlink:href="#DejaVuSans-30"/>
       <use x="99.707031" xlink:href="#DejaVuSans-2e"/>
       <use x="131.494141" xlink:href="#DejaVuSans-35"/>
      </g>
     </g>
    </g>
    <g id="xtick_2">
     <g id="line2d_2">
      <g>
       <use style="stroke:#000000;stroke-width:0.8;" x="230.400819" xlink:href="#m7be6d342bc" y="172.80209"/>
      </g>
     </g>
    </g>
    <g id="xtick_3">
     <g id="line2d_3">
      <g>
       <use style="stroke:#000000;stroke-width:0.8;" x="312.267387" xlink:href="#m7be6d342bc" y="172.80209"/>
      </g>
     </g>
     <g id="text_2">
      <!-- 0.5 -->
      <g transform="translate(304.315825 187.400528)scale(0.1 -0.1)">
       <use xlink:href="#DejaVuSans-30"/>
       <use x="63.623047" xlink:href="#DejaVuSans-2e"/>
       <use x="95.410156" xlink:href="#DejaVuSans-35"/>
      </g>
     </g>
    </g>
    <g id="xtick_4">
     <g id="line2d_4">
      <defs>
       <path d="M 0 0 
L 0 2 
" id="m6c25316ebd" style="stroke:#000000;stroke-width:0.6;"/>
      </defs>
      <g>
       <use style="stroke:#000000;stroke-width:0.6;" x="83.040996" xlink:href="#m6c25316ebd" y="172.80209"/>
      </g>
     </g>
    </g>
    <g id="xtick_5">
     <g id="line2d_5">
      <g>
       <use style="stroke:#000000;stroke-width:0.6;" x="99.414309" xlink:href="#m6c25316ebd" y="172.80209"/>
      </g>
     </g>
    </g>
    <g id="xtick_6">
     <g id="line2d_6">
      <g>
       <use style="stroke:#000000;stroke-width:0.6;" x="115.787623" xlink:href="#m6c25316ebd" y="172.80209"/>
      </g>
     </g>
    </g>
    <g id="xtick_7">
     <g id="line2d_7">
      <g>
       <use style="stroke:#000000;stroke-width:0.6;" x="132.160937" xlink:href="#m6c25316ebd" y="172.80209"/>
      </g>
     </g>
    </g>
    <g id="xtick_8">
     <g id="line2d_8">
      <g>
       <use style="stroke:#000000;stroke-width:0.6;" x="164.907564" xlink:href="#m6c25316ebd" y="172.80209"/>
      </g>
     </g>
    </g>
    <g id="xtick_9">
     <g id="line2d_9">
      <g>
       <use style="stroke:#000000;stroke-width:0.6;" x="181.280878" xlink:href="#m6c25316ebd" y="172.80209"/>
      </g>
     </g>
    </g>
    <g id="xtick_10">
     <g id="line2d_10">
      <g>
       <use style="stroke:#000000;stroke-width:0.6;" x="197.654192" xlink:href="#m6c25316ebd" y="172.80209"/>
      </g>
     </g>
    </g>
    <g id="xtick_11">
     <g id="line2d_11">
      <g>
       <use style="stroke:#000000;stroke-width:0.6;" x="214.027505" xlink:href="#m6c25316ebd" y="172.80209"/>
      </g>
     </g>
    </g>
    <g id="xtick_12">
     <g id="line2d_12">
      <g>
       <use style="stroke:#000000;stroke-width:0.6;" x="246.774133" xlink:href="#m6c25316ebd" y="172.80209"/>
      </g>
     </g>
    </g>
    <g id="xtick_13">
     <g id="line2d_13">
      <g>
       <use style="stroke:#000000;stroke-width:0.6;" x="263.147446" xlink:href="#m6c25316ebd" y="172.80209"/>
      </g>
     </g>
    </g>
    <g id="xtick_14">
     <g id="line2d_14">
      <g>
       <use style="stroke:#000000;stroke-width:0.6;" x="279.52076" xlink:href="#m6c25316ebd" y="172.80209"/>
      </g>
     </g>
    </g>
    <g id="xtick_15">
     <g id="line2d_15">
      <g>
       <use style="stroke:#000000;stroke-width:0.6;" x="295.894074" xlink:href="#m6c25316ebd" y="172.80209"/>
      </g>
     </g>
    </g>
    <g id="xtick_16">
     <g id="line2d_16">
      <g>
       <use style="stroke:#000000;stroke-width:0.6;" x="328.640701" xlink:href="#m6c25316ebd" y="172.80209"/>
      </g>
     </g>
    </g>
    <g id="xtick_17">
     <g id="line2d_17">
      <g>
       <use style="stroke:#000000;stroke-width:0.6;" x="345.014015" xlink:href="#m6c25316ebd" y="172.80209"/>
      </g>
     </g>
    </g>
    <g id="xtick_18">
     <g id="line2d_18">
      <g>
       <use style="stroke:#000000;stroke-width:0.6;" x="361.387328" xlink:href="#m6c25316ebd" y="172.80209"/>
      </g>
     </g>
    </g>
    <g id="xtick_19">
     <g id="line2d_19">
      <g>
       <use style="stroke:#000000;stroke-width:0.6;" x="377.760642" xlink:href="#m6c25316ebd" y="172.80209"/>
      </g>
     </g>
    </g>
   </g>
   <g id="matplotlib.axis_2">
    <g id="ytick_1">
     <g id="line2d_20">
      <defs>
       <path d="M 0 0 
L -3.5 0 
" id="m433b47829b" style="stroke:#000000;stroke-width:0.8;"/>
      </defs>
      <g>
       <use style="stroke:#000000;stroke-width:0.8;" x="230.400819" xlink:href="#m433b47829b" y="336.535227"/>
      </g>
     </g>
     <g id="text_3">
      <!-- -1 -->
      <defs>
       <path d="M 12.40625 8.296875 
L 28.515625 8.296875 
L 28.515625 63.921875 
L 10.984375 60.40625 
L 10.984375 69.390625 
L 28.421875 72.90625 
L 38.28125 72.90625 
L 38.28125 8.296875 
L 54.390625 8.296875 
L 54.390625 0 
L 12.40625 0 
z
" id="DejaVuSans-31"/>
      </defs>
      <g transform="translate(213.430506 340.334446)scale(0.1 -0.1)">
       <use xlink:href="#DejaVuSans-2d"/>
       <use x="36.083984" xlink:href="#DejaVuSans-31"/>
      </g>
     </g>
    </g>
    <g id="ytick_2">
     <g id="line2d_21">
      <g>
       <use style="stroke:#000000;stroke-width:0.8;" x="230.400819" xlink:href="#m433b47829b" y="254.668659"/>
      </g>
     </g>
     <g id="text_4">
      <!-- -0.5 -->
      <g transform="translate(203.889881 258.467877)scale(0.1 -0.1)">
       <use xlink:href="#DejaVuSans-2d"/>
       <use x="36.083984" xlink:href="#DejaVuSans-30"/>
       <use x="99.707031" xlink:href="#DejaVuSans-2e"/>
       <use x="131.494141" xlink:href="#DejaVuSans-35"/>
      </g>
     </g>
    </g>
    <g id="ytick_3">
     <g id="line2d_22">
      <g>
       <use style="stroke:#000000;stroke-width:0.8;" x="230.400819" xlink:href="#m433b47829b" y="172.80209"/>
      </g>
     </g>
    </g>
    <g id="ytick_4">
     <g id="line2d_23">
      <g>
       <use style="stroke:#000000;stroke-width:0.8;" x="230.400819" xlink:href="#m433b47829b" y="90.935522"/>
      </g>
     </g>
     <g id="text_5">
      <!-- 0.5 -->
      <g transform="translate(207.497694 94.734741)scale(0.1 -0.1)">
       <use xlink:href="#DejaVuSans-30"/>
       <use x="63.623047" xlink:href="#DejaVuSans-2e"/>
       <use x="95.410156" xlink:href="#DejaVuSans-35"/>
      </g>
     </g>
    </g>
    <g id="ytick_5">
     <g id="line2d_24">
      <g>
       <use style="stroke:#000000;stroke-width:0.8;" x="230.400819" xlink:href="#m433b47829b" y="9.068953"/>
      </g>
     </g>
     <g id="text_6">
      <!-- 1 -->
      <g transform="translate(217.038319 12.868172)scale(0.1 -0.1)">
       <use xlink:href="#DejaVuSans-31"/>
      </g>
     </g>
    </g>
    <g id="ytick_6">
     <g id="line2d_25">
      <defs>
       <path d="M 0 0 
L -2 0 
" id="m67bc450aea" style="stroke:#000000;stroke-width:0.6;"/>
      </defs>
      <g>
       <use style="stroke:#000000;stroke-width:0.6;" x="230.400819" xlink:href="#m67bc450aea" y="320.161913"/>
      </g>
     </g>
    </g>
    <g id="ytick_7">
     <g id="line2d_26">
      <g>
       <use style="stroke:#000000;stroke-width:0.6;" x="230.400819" xlink:href="#m67bc450aea" y="303.7886"/>
      </g>
     </g>
    </g>
    <g id="ytick_8">
     <g id="line2d_27">
      <g>
       <use style="stroke:#000000;stroke-width:0.6;" x="230.400819" xlink:href="#m67bc450aea" y="287.415286"/>
      </g>
     </g>
    </g>
    <g id="ytick_9">
     <g id="line2d_28">
      <g>
       <use style="stroke:#000000;stroke-width:0.6;" x="230.400819" xlink:href="#m67bc450aea" y="271.041972"/>
      </g>
     </g>
    </g>
    <g id="ytick_10">
     <g id="line2d_29">
      <g>
       <use style="stroke:#000000;stroke-width:0.6;" x="230.400819" xlink:href="#m67bc450aea" y="238.295345"/>
      </g>
     </g>
    </g>
    <g id="ytick_11">
     <g id="line2d_30">
      <g>
       <use style="stroke:#000000;stroke-width:0.6;" x="230.400819" xlink:href="#m67bc450aea" y="221.922031"/>
      </g>
     </g>
    </g>
    <g id="ytick_12">
     <g id="line2d_31">
      <g>
       <use style="stroke:#000000;stroke-width:0.6;" x="230.400819" xlink:href="#m67bc450aea" y="205.548718"/>
      </g>
     </g>
    </g>
    <g id="ytick_13">
     <g id="line2d_32">
      <g>
       <use style="stroke:#000000;stroke-width:0.6;" x="230.400819" xlink:href="#m67bc450aea" y="189.175404"/>
      </g>
     </g>
    </g>
    <g id="ytick_14">
     <g id="line2d_33">
      <g>
       <use style="stroke:#000000;stroke-width:0.6;" x="230.400819" xlink:href="#m67bc450aea" y="156.428777"/>
      </g>
     </g>
    </g>
    <g id="ytick_15">
     <g id="line2d_34">
      <g>
       <use style="stroke:#000000;stroke-width:0.6;" x="230.400819" xlink:href="#m67bc450aea" y="140.055463"/>
      </g>
     </g>
    </g>
    <g id="ytick_16">
     <g id="line2d_35">
      <g>
       <use style="stroke:#000000;stroke-width:0.6;" x="230.400819" xlink:href="#m67bc450aea" y="123.682149"/>
      </g>
     </g>
    </g>
    <g id="ytick_17">
     <g id="line2d_36">
      <g>
       <use style="stroke:#000000;stroke-width:0.6;" x="230.400819" xlink:href="#m67bc450aea" y="107.308836"/>
      </g>
     </g>
    </g>
    <g id="ytick_18">
     <g id="line2d_37">
      <g>
       <use style="stroke:#000000;stroke-width:0.6;" x="230.400819" xlink:href="#m67bc450aea" y="74.562208"/>
      </g>
     </g>
    </g>
    <g id="ytick_19">
     <g id="line2d_38">
      <g>
       <use style="stroke:#000000;stroke-width:0.6;" x="230.400819" xlink:href="#m67bc450aea" y="58.188894"/>
      </g>
     </g>
    </g>
    <g id="ytick_20">
     <g id="line2d_39">
      <g>
       <use style="stroke:#000000;stroke-width:0.6;" x="230.400819" xlink:href="#m67bc450aea" y="41.815581"/>
      </g>
     </g>
    </g>
    <g id="ytick_21">
     <g id="line2d_40">
      <g>
       <use style="stroke:#000000;stroke-width:0.6;" x="230.400819" xlink:href="#m67bc450aea" y="25.442267"/>
      </g>
     </g>
    </g>
   </g>
   <g id="line2d_41">
    <path clip-path="url(#peeea093ff1)" d="M 230.400819 172.80209 
L 233.463358 172.718021 
L 240.273474 172.311513 
L 247.991787 171.624074 
L 256.035522 170.708085 
L 265.249863 169.44122 
L 271.941257 168.386345 
L 282.769209 166.449247 
L 294.178779 164.104342 
L 301.75039 162.373758 
L 319.026394 157.873737 
L 327.514136 155.35614 
L 335.761676 152.6896 
L 342.045525 150.493694 
L 352.556691 146.442883 
L 360.889937 142.806625 
L 368.237191 139.164123 
L 371.498207 137.363515 
L 374.463918 135.589271 
L 377.120918 133.850954 
L 379.635694 132.020575 
L 381.761595 130.255615 
L 384.198069 127.756849 
L 384.805402 126.969387 
L 385.512638 125.852318 
L 385.9917 124.794415 
L 386.241513 123.799937 
L 386.261689 122.872975 
L 386.052535 122.017428 
L 385.615045 121.236986 
L 384.950893 120.535114 
L 384.062431 119.915033 
L 382.976676 119.389424 
L 381.683019 118.948163 
L 380.184583 118.592983 
L 378.485979 118.325865 
L 374.509493 118.062279 
L 369.801333 118.167273 
L 367.190026 118.359688 
L 363.392159 118.770055 
L 359.317925 119.351686 
L 354.989112 120.102701 
L 347.072223 121.768066 
L 343.620506 122.595566 
L 331.786209 125.82681 
L 327.015498 127.283493 
L 317.286516 130.499064 
L 297.639305 137.906987 
L 285.707601 142.967817 
L 274.380768 148.162519 
L 262.710146 153.930749 
L 252.4859 159.364938 
L 245.394065 163.375048 
L 237.209573 168.309052 
L 231.071926 172.32889 
L 230.402795 172.800657 
L 231.629825 171.872145 
L 235.332343 168.913149 
L 241.42285 163.737464 
L 246.985891 158.750001 
L 253.374744 152.751322 
L 260.408718 145.82766 
L 267.068561 138.96462 
L 270.07161 135.769654 
L 276.157132 129.095525 
L 284.236082 119.791578 
L 292.142963 110.130577 
L 298.439863 101.970495 
L 304.361041 93.832745 
L 309.910621 85.681675 
L 314.862732 77.823506 
L 318.837127 70.932208 
L 322.170862 64.508686 
L 324.818787 58.65015 
L 326.747538 53.446919 
L 327.585214 50.534943 
L 328.124252 47.936044 
L 328.363718 45.667172 
L 328.304586 43.743442 
L 328.122816 42.744313 
L 327.831749 41.881418 
L 327.432622 41.157088 
L 326.926914 40.573355 
L 326.316344 40.131944 
L 325.602864 39.834266 
L 324.78865 39.681419 
L 323.876095 39.674174 
L 322.155261 39.983563 
L 320.184867 40.693588 
L 317.979342 41.801814 
L 315.554397 43.303306 
L 313.196624 44.98604 
L 310.687574 46.974632 
L 308.040861 49.260356 
L 303.263368 53.80046 
L 299.108729 58.122525 
L 294.801861 62.926671 
L 292.604465 65.495592 
L 285.083044 74.852435 
L 279.699634 82.062839 
L 274.357875 89.632137 
L 264.058422 105.417705 
L 255.325228 120.132896 
L 249.599982 130.544273 
L 244.1311 141.169553 
L 239.485839 150.845659 
L 235.804502 159.079161 
L 232.615566 166.808036 
L 230.400822 172.802082 
L 231.044093 170.65185 
L 232.600216 164.81753 
L 234.180955 158.14265 
L 235.579487 151.583427 
L 237.263676 142.729064 
L 239.207802 130.794212 
L 240.249375 123.318642 
L 241.19969 115.497497 
L 242.034231 107.41169 
L 243.738112 79.165258 
L 243.852425 69.935844 
L 243.57205 56.78305 
L 243.098222 48.720893 
L 242.399877 41.178168 
L 241.486989 34.250021 
L 240.954479 31.044103 
L 240.126697 26.858847 
L 238.723927 21.324059 
L 237.693196 18.163229 
L 236.590945 15.436745 
L 235.4262 13.168654 
L 234.214932 11.388052 
L 232.968305 10.106318 
L 232.335325 9.655213 
L 231.3496 9.209346 
L 230.358622 9.069231 
L 229.367877 9.235401 
L 228.382851 9.707224 
L 227.338466 10.551371 
L 226.313584 11.741647 
L 225.314707 13.272828 
L 224.348155 15.138198 
L 222.976924 18.531104 
L 221.710564 22.618755 
L 220.56652 27.36118 
L 219.56026 32.712047 
L 218.681747 38.804824 
L 217.975167 45.424755 
L 217.449224 52.503494 
L 217.109425 59.968089 
L 216.97041 66.402932 
L 216.960688 73.005309 
L 217.258174 85.093544 
L 217.936263 97.296752 
L 218.62648 105.882356 
L 219.467964 114.291643 
L 221.043598 126.963218 
L 222.827575 138.616081 
L 224.841607 149.681278 
L 227.046484 160.01466 
L 228.920298 167.607084 
L 230.400489 172.801078 
L 229.890834 171.330941 
L 227.549391 165.204961 
L 224.378429 157.652167 
L 220.490709 149.075444 
L 217.551337 142.95324 
L 213.775445 135.453576 
L 209.554913 127.480908 
L 204.929049 119.171211 
L 199.946694 110.664588 
L 188.953582 93.332046 
L 183.100666 84.84658 
L 177.166759 76.750664 
L 171.331982 69.291427 
L 165.597435 62.464728 
L 160.054854 56.380047 
L 154.795679 51.133317 
L 150.997387 47.717378 
L 147.459276 44.876468 
L 145.074291 43.187925 
L 142.859971 41.823075 
L 140.829222 40.787556 
L 138.994142 40.085261 
L 137.408272 39.723988 
L 136.027378 39.680105 
L 134.859957 39.952442 
L 133.913518 40.538298 
L 133.217884 41.393409 
L 132.737355 42.529488 
L 132.475754 43.940278 
L 132.435906 45.618335 
L 132.619607 47.555068 
L 133.027599 49.740796 
L 133.659558 52.164798 
L 134.51408 54.81537 
L 136.545001 59.979303 
L 138.069554 63.34045 
L 139.821206 66.892518 
L 141.792381 70.617763 
L 146.356788 78.513548 
L 151.677844 86.874236 
L 154.590599 91.179253 
L 158.309529 96.456541 
L 162.219139 101.780168 
L 181.259219 125.261366 
L 188.743406 133.620784 
L 197.872433 143.26581 
L 206.447723 151.807393 
L 212.253718 157.309366 
L 220.139814 164.401494 
L 226.509525 169.761856 
L 230.400449 172.801822 
L 228.478319 171.474465 
L 223.072482 167.983948 
L 216.017324 163.730323 
L 209.217584 159.863135 
L 200.443274 155.147488 
L 191.091445 150.418583 
L 179.138325 144.778446 
L 172.829282 141.975026 
L 157.102517 135.497435 
L 144.999884 131.017244 
L 138.982163 128.961348 
L 133.036545 127.049178 
L 121.328672 123.661863 
L 113.924626 121.813333 
L 106.943032 120.318767 
L 100.332559 119.174089 
L 94.211242 118.41488 
L 88.804701 118.074254 
L 84.184288 118.150165 
L 80.796285 118.558866 
L 78.41476 119.168845 
L 76.58657 120.005881 
L 75.884976 120.506224 
L 75.327181 121.059116 
L 74.914441 121.662921 
L 74.568579 122.664965 
L 74.556331 123.772271 
L 74.878396 124.978036 
L 75.534005 126.275054 
L 76.327838 127.412806 
L 77.346869 128.603502 
L 78.826335 130.062244 
L 80.606643 131.58002 
L 82.680964 133.149104 
L 85.041229 134.761664 
L 87.678162 136.409811 
L 93.739123 139.781298 
L 97.138913 141.48898 
L 101.660846 143.607547 
L 106.504342 145.71863 
L 111.63927 147.808556 
L 121.459812 151.457201 
L 126.009718 153.01529 
L 135.408508 156.005797 
L 152.274102 160.702682 
L 160.766168 162.778151 
L 175.003655 165.857197 
L 180.710846 166.954563 
L 191.95667 168.888188 
L 202.191021 170.376462 
L 210.854958 171.418908 
L 217.638245 172.078484 
L 225.45029 172.628924 
L 230.399668 172.802091 
L 228.757841 172.835069 
L 223.706524 173.074955 
L 215.524323 173.715122 
L 206.516161 174.681035 
L 199.176741 175.638242 
L 191.125932 176.848333 
L 182.487517 178.323884 
L 174.201674 179.907421 
L 165.642574 181.715954 
L 141.022626 187.945026 
L 133.556097 190.164988 
L 126.273123 192.501008 
L 119.24303 194.934798 
L 109.193103 198.773779 
L 102.858455 201.460636 
L 97.035879 204.165385 
L 91.784209 206.858636 
L 86.977706 209.619009 
L 82.752509 212.403821 
L 79.385878 215.04287 
L 78.033204 216.294377 
L 76.896638 217.501132 
L 75.979187 218.658637 
L 75.11372 220.091062 
L 74.630693 221.422226 
L 74.531749 222.643077 
L 74.816593 223.745073 
L 75.483003 224.72025 
L 76.526852 225.561289 
L 77.942133 226.261571 
L 79.720998 226.815243 
L 81.795334 227.208963 
L 84.288535 227.460859 
L 87.118112 227.550499 
L 90.269006 227.475473 
L 93.724587 227.234389 
L 100.534433 226.399667 
L 108.13136 225.050049 
L 116.393076 223.202502 
L 125.187891 220.884659 
L 132.50853 218.718856 
L 140.007988 216.300762 
L 152.408006 211.897901 
L 164.76328 207.042469 
L 172.286751 203.864737 
L 179.597604 200.617039 
L 186.625782 197.344106 
L 199.066384 191.171362 
L 209.38345 185.649062 
L 216.938876 181.333483 
L 224.036179 177.015739 
L 229.983457 173.098245 
L 230.400677 172.802193 
L 228.40557 174.32885 
L 223.381978 178.427472 
L 217.504243 183.521588 
L 210.243354 190.173892 
L 204.59017 195.605183 
L 197.858034 202.353129 
L 190.302384 210.294697 
L 186.442657 214.508022 
L 178.682125 223.32319 
L 168.7613 235.344277 
L 160.742623 245.809828 
L 156.96853 251.024696 
L 150.543269 260.453937 
L 145.373575 268.723427 
L 140.977268 276.497705 
L 139.095148 280.151469 
L 137.435188 283.625321 
L 136.004436 286.901876 
L 134.260165 291.530219 
L 133.340853 294.584248 
L 132.737163 297.310306 
L 132.450446 299.689638 
L 132.49765 301.865762 
L 132.677897 302.856223 
L 132.965569 303.7128 
L 133.359462 304.433217 
L 133.85814 305.01549 
L 134.459932 305.457931 
L 135.162946 305.759153 
L 135.96507 305.918076 
L 136.964044 305.927261 
L 138.077809 305.761115 
L 139.302654 305.419518 
L 140.634592 304.902826 
L 142.069377 304.211872 
L 145.229289 302.312906 
L 148.483215 299.943573 
L 151.731184 297.254201 
L 155.458861 293.840431 
L 159.6771 289.619012 
L 164.08099 284.856562 
L 168.623719 279.601046 
L 174.076401 272.86707 
L 177.237102 268.760533 
L 183.552192 260.120718 
L 189.771622 251.046129 
L 195.788017 241.718891 
L 201.506553 232.322969 
L 209.594684 218.049971 
L 214.64279 208.460712 
L 218.726621 200.235634 
L 222.645171 191.852571 
L 226.255667 183.55722 
L 229.197539 176.163045 
L 230.400325 172.803606 
L 229.934835 174.339382 
L 228.28177 180.467215 
L 226.35525 188.657049 
L 224.510726 197.621276 
L 223.513164 203.014523 
L 221.567815 214.985799 
L 220.028724 226.449666 
L 218.72883 238.605357 
L 217.051563 266.928956 
L 216.949145 275.541067 
L 217.059107 283.918513 
L 217.626748 295.831151 
L 218.415114 304.545539 
L 219.00364 309.235713 
L 220.20032 316.449087 
L 221.130009 320.725495 
L 222.1548 324.539872 
L 223.491632 328.458934 
L 224.318202 330.401666 
L 225.175321 332.086612 
L 226.058718 333.507926 
L 226.963976 334.660673 
L 227.886552 335.540851 
L 228.821805 336.145404 
L 229.765022 336.472231 
L 230.57 336.530769 
L 231.37436 336.3874 
L 232.175166 336.042485 
L 232.969496 335.496889 
L 233.754456 334.751985 
L 234.527188 333.809644 
L 235.284885 332.672233 
L 236.717354 329.885177 
L 237.926143 326.782665 
L 238.948158 323.501003 
L 239.430412 321.698211 
L 240.332079 317.782998 
L 241.701078 309.918374 
L 242.633638 302.211679 
L 243.309015 293.812983 
L 243.716556 284.847171 
L 243.818439 280.192894 
L 243.836815 272.1295 
L 243.665635 263.890341 
L 242.78838 247.231937 
L 241.773915 235.508924 
L 240.495919 224.206809 
L 239.017045 213.535927 
L 237.115948 202.050562 
L 235.191695 192.136003 
L 233.398586 184.06435 
L 231.335858 175.986688 
L 230.401578 172.804434 
L 231.054056 174.67134 
L 232.993701 179.75261 
L 236.085061 187.174544 
L 239.778518 195.389264 
L 244.134696 204.441864 
L 247.383601 210.841602 
L 250.946632 217.569342 
L 254.800152 224.543475 
L 258.50083 230.974583 
L 262.390549 237.475659 
L 270.626825 250.438202 
L 276.974741 259.7318 
L 283.431516 268.584503 
L 290.381167 277.432059 
L 293.998679 281.747491 
L 297.547722 285.776833 
L 301.005303 289.494658 
L 306.590386 295.018431 
L 310.846782 298.761168 
L 314.752877 301.751159 
L 318.254749 303.9556 
L 320.868902 305.191827 
L 322.749718 305.766696 
L 324.378789 305.944243 
L 325.743737 305.725322 
L 326.323711 305.468113 
L 326.929955 305.028029 
L 327.432516 304.447245 
L 327.829705 303.727457 
L 328.120065 302.87066 
L 328.302379 301.879145 
L 328.375675 300.755487 
L 328.192565 298.123432 
L 327.70127 295.547634 
L 326.90254 292.646678 
L 325.998625 289.980041 
L 324.883439 287.110824 
L 323.560656 284.051988 
L 320.312014 277.420773 
L 316.301962 270.202961 
L 311.575495 262.492417 
L 306.20487 254.415981 
L 303.313397 250.293927 
L 299.347311 244.849039 
L 295.205866 239.385745 
L 286.529798 228.554635 
L 276.494336 216.886569 
L 271.471314 211.34558 
L 263.208019 202.624402 
L 256.938394 196.319169 
L 251.178337 190.759049 
L 243.553255 183.749538 
L 237.422896 178.430196 
L 231.66392 173.758373 
L 230.408071 172.807376 
L 232.053187 173.947422 
L 237.226344 177.305651 
L 243.707926 181.242278 
L 251.734785 185.824539 
L 260.389385 190.472866 
L 271.032999 195.831504 
L 282.736795 201.31107 
L 289.85102 204.441234 
L 297.151932 207.498677 
L 308.823746 212.058667 
L 320.5256 216.210802 
L 330.453491 219.378793 
L 340.028416 222.089461 
L 349.081118 224.290823 
L 357.449874 225.943896 
L 364.24549 226.938358 
L 370.491194 227.473482 
L 373.270085 227.549995 
L 375.804402 227.500113 
L 378.083826 227.325321 
L 380.099 227.027684 
L 381.84157 226.609828 
L 383.304222 226.074921 
L 384.372653 225.498712 
L 385.207208 224.834321 
L 385.804872 224.085042 
L 386.163367 223.254444 
L 386.267757 222.038504 
L 385.950332 220.696743 
L 385.211933 219.239312 
L 384.055739 217.676928 
L 383.010916 216.537194 
L 380.336256 214.137807 
L 376.904295 211.604999 
L 372.749441 208.971113 
L 368.137452 206.38706 
L 363.19357 203.88784 
L 356.77821 200.948359 
L 348.692363 197.611115 
L 339.630867 194.248601 
L 334.719025 192.564546 
L 324.54923 189.343792 
L 303.488624 183.64785 
L 289.058365 180.408823 
L 278.510152 178.359453 
L 269.469723 176.815361 
L 258.363445 175.195116 
L 248.762737 174.059621 
L 240.935952 173.343302 
L 233.713605 172.8967 
L 230.400819 172.80209 
L 230.400819 172.80209 
" style="fill:none;stroke:#0000ff;stroke-linecap:square;"/>
   </g>
   <g id="patch_3">
    <path d="M 230.400819 343.08 
L 230.400819 2.52 
" style="fill:none;stroke:#000000;stroke-linecap:square;stroke-linejoin:miter;stroke-width:0.8;"/>
   </g>
   <g id="patch_4">
    <path d="M 68.297019 172.80209 
L 392.502981 172.80209 
" style="fill:none;stroke:#000000;stroke-linecap:square;stroke-linejoin:miter;stroke-width:0.8;"/>
   </g>
  </g>
 </g>
 <defs>
  <clipPath id="peeea093ff1">
   <rect height="340.56" width="324.205962" x="68.297019" y="2.52"/>
  </clipPath>
 </defs>
</svg>
