<?xml version="1.0" encoding="utf-8" standalone="no"?>
<!DOCTYPE svg PUBLIC "-//W3C//DTD SVG 1.1//EN"
  "http://www.w3.org/Graphics/SVG/1.1/DTD/svg11.dtd">
<!-- Created with matplotlib (http://matplotlib.org/) -->
<svg height="345.6pt" version="1.1" viewBox="0 0 460.8 345.6" width="460.8pt" xmlns="http://www.w3.org/2000/svg" xmlns:xlink="http://www.w3.org/1999/xlink">
 <defs>
  <style type="text/css">
*{stroke-linecap:butt;stroke-linejoin:round;}
  </style>
 </defs>
 <g id="figure_1">
  <g id="patch_1">
   <path d="M 0 345.6 
L 460.8 345.6 
L 460.8 0 
L 0 0 
z
" style="fill:#ffffff;"/>
  </g>
  <g id="axes_1">
   <g id="patch_2">
    <path d="M 67.623949 343.08 
L 393.176051 343.08 
L 393.176051 2.52 
L 67.623949 2.52 
z
" style="fill:#ffffff;"/>
   </g>
   <g id="patch_3">
    <path clip-path="url(#pa8a1b0e55b)" d="M 386.915433 172.724755 
L 386.773829 170.829698 
L 386.349575 168.950809 
L 385.30473 166.417105 
L 383.733994 163.986331 
L 381.730438 161.776274 
L 378.947911 159.512588 
L 376.562792 158.01914 
L 373.892648 156.681113 
L 370.495834 155.359681 
L 366.760952 154.28846 
L 363.689549 153.651695 
L 360.444267 153.183413 
L 354.833228 152.803311 
L 349.640173 152.877076 
L 342.556571 153.561493 
L 336.157441 154.710507 
L 322.901266 158.585252 
L 312.919619 162.802804 
L 309.282675 164.621842 
L 295.08747 173.256976 
L 290.015669 176.984768 
L 284.251049 181.683897 
L 279.5539 185.91304 
L 275.011426 190.384545 
L 269.529934 196.349226 
L 264.362982 202.640297 
L 258.390004 210.91632 
L 255.692175 215.093019 
L 253.143872 219.348234 
L 250.861393 223.463416 
L 248.723439 227.631477 
L 246.638478 232.053887 
L 244.740117 236.465394 
L 243.007975 240.902557 
L 241.444348 245.354517 
L 240.050926 249.810317 
L 239.028303 253.488916 
L 237.474852 260.11917 
L 236.305543 266.675823 
L 235.58658 272.403375 
L 235.16259 278.018667 
L 235.029887 284.156001 
L 235.142971 288.251097 
L 235.417009 292.237971 
L 236.229007 298.688206 
L 237.392812 304.495893 
L 238.905958 309.912709 
L 240.365089 313.988018 
L 242.066312 317.876335 
L 244.408827 322.212268 
L 246.979793 326.012975 
L 250.385283 329.916927 
L 255.016839 333.63586 
L 256.806894 334.653856 
L 263.183404 336.530769 
L 267.222056 336.249302 
L 268.980951 335.712601 
L 272.593725 333.597954 
L 274.567243 331.652408 
L 275.81436 329.983642 
L 276.911342 328.092656 
L 278.04021 325.468559 
L 278.902275 322.540608 
L 279.535653 318.857496 
L 279.764244 315.396862 
L 279.680541 311.709437 
L 279.367234 308.512653 
L 278.826542 305.192504 
L 278.099055 301.94323 
L 277.158933 298.609167 
L 275.875449 294.858013 
L 274.328705 291.037773 
L 272.454689 287.041003 
L 270.394327 283.178045 
L 268.076253 279.30056 
L 264.693211 274.282974 
L 260.889448 269.30741 
L 258.295345 266.226232 
L 255.543633 263.184806 
L 251.656957 259.226466 
L 247.510071 255.37291 
L 243.269924 251.769165 
L 238.809715 248.297016 
L 234.275084 245.062544 
L 229.557258 241.980477 
L 225.289915 239.418822 
L 219.774415 236.399342 
L 214.089991 233.604658 
L 206.835853 230.469569 
L 199.022271 227.594924 
L 191.053826 225.165907 
L 184.72072 223.580661 
L 172.132156 221.304316 
L 165.19904 220.538659 
L 149.88304 220.081336 
L 141.491648 220.5747 
L 130.908307 222.002354 
L 122.146855 223.929398 
L 115.495118 225.900386 
L 109.883518 227.951225 
L 104.608059 230.251389 
L 101.320218 231.894426 
L 98.196623 233.626385 
L 94.786275 235.736112 
L 91.614024 237.940168 
L 89.643359 239.448482 
L 85.763678 242.808347 
L 82.416922 246.267772 
L 80.162335 249.035667 
L 78.251616 251.813816 
L 76.854787 254.25237 
L 75.72773 256.664909 
L 74.671916 259.711109 
L 74.129285 262.185297 
L 73.894689 264.567094 
L 73.927542 266.42305 
L 74.349146 269.062853 
L 75.205245 271.477002 
L 76.425736 273.560524 
L 78.015694 275.376437 
L 79.805895 276.80095 
L 81.389772 277.718763 
L 83.134708 278.464225 
L 85.07009 279.038866 
L 87.152236 279.418548 
L 90.811205 279.60239 
L 94.776317 279.230389 
L 98.202355 278.500779 
L 100.919132 277.67833 
L 110.963715 272.907246 
L 112.181749 272.147929 
L 119.060745 267.105702 
L 124.63044 262.021174 
L 129.872715 256.301746 
L 134.872948 249.843169 
L 136.676065 247.229507 
L 141.012509 240.1876 
L 143.713145 235.142028 
L 146.223746 229.861304 
L 149.026249 223.07373 
L 151.489537 215.995991 
L 153.174348 210.245464 
L 154.89247 203.131625 
L 156.253229 195.857843 
L 156.59644 193.604923 
L 157.588529 184.859274 
L 158.053353 176.024808 
L 158.053683 169.439449 
L 157.759514 162.867389 
L 157.352054 158.015792 
L 156.78503 153.196935 
L 155.876289 147.355295 
L 154.736388 141.598104 
L 154.339892 139.845769 
L 152.443515 132.594156 
L 150.191488 125.564944 
L 147.695586 119.015624 
L 144.306054 111.497874 
L 141.777069 106.632128 
L 139.086985 101.991389 
L 135.999906 97.220353 
L 132.763084 92.748308 
L 128.530246 87.588598 
L 124.145159 82.946792 
L 119.477463 78.69185 
L 114.348861 74.750269 
L 107.629767 70.663627 
L 105.074859 69.421329 
L 100.758381 67.716758 
L 96.605877 66.564575 
L 91.135503 65.856749 
L 88.783362 65.879467 
L 84.666791 66.511287 
L 82.638814 67.172855 
L 80.79362 68.04558 
L 78.598175 69.553659 
L 76.79229 71.405182 
L 75.741476 72.944669 
L 74.561398 75.636231 
L 74.186676 77.104215 
L 73.959789 78.645056 
L 73.884567 80.062671 
L 74.079584 82.935838 
L 74.731798 85.950334 
L 75.494858 88.204824 
L 76.503598 90.501129 
L 78.350226 93.79233 
L 79.602896 95.650494 
L 81.009806 97.506914 
L 83.595186 100.473603 
L 86.570802 103.389353 
L 90.723173 106.841938 
L 95.424397 110.12721 
L 98.66258 112.09293 
L 103.17867 114.505078 
L 108.017703 116.728829 
L 112.961208 118.670026 
L 117.573376 120.215696 
L 122.377246 121.580157 
L 128.806253 123.049533 
L 135.491805 124.180326 
L 146.879975 125.253931 
L 152.021807 125.40804 
L 165.303242 124.901899 
L 174.24322 123.84348 
L 185.531575 121.682571 
L 197.601003 118.324189 
L 208.150104 114.446243 
L 218.06434 109.923617 
L 221.334062 108.228175 
L 228.759294 103.96379 
L 235.808697 99.324344 
L 240.17859 96.119142 
L 246.313275 91.126081 
L 251.993626 85.894281 
L 256.573307 81.151783 
L 259.403122 77.934876 
L 262.056899 74.678062 
L 265.552684 69.952096 
L 267.787269 66.604367 
L 269.831413 63.253023 
L 271.683473 59.909238 
L 273.342459 56.584235 
L 274.810106 53.284295 
L 276.084071 50.02573 
L 277.561804 45.493507 
L 278.690859 40.933542 
L 279.415478 36.556592 
L 279.704678 33.337832 
L 279.760838 29.902883 
L 279.544142 26.667327 
L 278.961591 23.166525 
L 278.349738 20.897481 
L 277.58031 18.799858 
L 276.399865 16.414382 
L 275.001721 14.331753 
L 273.381918 12.544395 
L 271.58053 11.097782 
L 269.772823 10.073728 
L 266.569244 9.069231 
L 261.248273 9.200305 
L 258.982396 9.850275 
L 255.911725 11.277166 
L 249.167619 16.800387 
L 246.079133 20.672433 
L 244.028798 23.876378 
L 241.910358 27.899563 
L 240.022499 32.345486 
L 238.530866 36.738777 
L 237.199856 41.780399 
L 236.166918 47.146662 
L 235.750349 50.093121 
L 235.24183 55.463262 
L 235.03204 61.04558 
L 235.173748 67.648883 
L 235.736446 74.450708 
L 236.377857 79.248307 
L 237.880616 87.224238 
L 239.900654 95.123583 
L 242.462812 103.049715 
L 244.485985 108.360338 
L 246.747279 113.636464 
L 250.449318 121.208174 
L 254.849681 128.985583 
L 259.471717 136.124586 
L 265.244847 143.934457 
L 269.491928 149.056529 
L 273.949446 153.960586 
L 280.341897 160.272778 
L 286.997373 166.068545 
L 293.891628 171.346108 
L 302.120151 176.786178 
L 310.91375 181.66247 
L 318.348781 185.079878 
L 328.136168 188.630208 
L 337.10765 190.940126 
L 340.441299 191.562098 
L 346.62358 192.359669 
L 352.525404 192.660831 
L 355.017703 192.641626 
L 360.477231 192.262312 
L 365.529902 191.440547 
L 370.494139 190.090398 
L 373.446765 188.963919 
L 375.988509 187.744485 
L 378.28425 186.386309 
L 380.528991 184.737001 
L 382.449515 182.95489 
L 384.151057 180.90165 
L 385.286335 179.067263 
L 386.125581 177.174591 
L 386.717698 174.963009 
L 386.915433 172.724755 
z
" style="fill:#808080;opacity:0.5;"/>
   </g>
   <g id="matplotlib.axis_1">
    <g id="xtick_1">
     <g id="line2d_1">
      <defs>
       <path d="M 0 0 
L 0 3.5 
" id="m2b1d2da431" style="stroke:#000000;stroke-width:0.8;"/>
      </defs>
      <g>
       <use style="stroke:#000000;stroke-width:0.8;" x="100.884113" xlink:href="#m2b1d2da431" y="172.724755"/>
      </g>
     </g>
     <g id="text_1">
      <!-- -2 -->
      <defs>
       <path d="M 4.890625 31.390625 
L 31.203125 31.390625 
L 31.203125 23.390625 
L 4.890625 23.390625 
z
" id="DejaVuSans-2d"/>
       <path d="M 19.1875 8.296875 
L 53.609375 8.296875 
L 53.609375 0 
L 7.328125 0 
L 7.328125 8.296875 
Q 12.9375 14.109375 22.625 23.890625 
Q 32.328125 33.6875 34.8125 36.53125 
Q 39.546875 41.84375 41.421875 45.53125 
Q 43.3125 49.21875 43.3125 52.78125 
Q 43.3125 58.59375 39.234375 62.25 
Q 35.15625 65.921875 28.609375 65.921875 
Q 23.96875 65.921875 18.8125 64.3125 
Q 13.671875 62.703125 7.8125 59.421875 
L 7.8125 69.390625 
Q 13.765625 71.78125 18.9375 73 
Q 24.125 74.21875 28.421875 74.21875 
Q 39.75 74.21875 46.484375 68.546875 
Q 53.21875 62.890625 53.21875 53.421875 
Q 53.21875 48.921875 51.53125 44.890625 
Q 49.859375 40.875 45.40625 35.40625 
Q 44.1875 33.984375 37.640625 27.21875 
Q 31.109375 20.453125 19.1875 8.296875 
z
" id="DejaVuSans-32"/>
      </defs>
      <g transform="translate(95.898956 187.323192)scale(0.1 -0.1)">
       <use xlink:href="#DejaVuSans-2d"/>
       <use x="36.083984" xlink:href="#DejaVuSans-32"/>
      </g>
     </g>
    </g>
    <g id="xtick_2">
     <g id="line2d_2">
      <g>
       <use style="stroke:#000000;stroke-width:0.8;" x="158.090377" xlink:href="#m2b1d2da431" y="172.724755"/>
      </g>
     </g>
     <g id="text_2">
      <!-- -1 -->
      <defs>
       <path d="M 12.40625 8.296875 
L 28.515625 8.296875 
L 28.515625 63.921875 
L 10.984375 60.40625 
L 10.984375 69.390625 
L 28.421875 72.90625 
L 38.28125 72.90625 
L 38.28125 8.296875 
L 54.390625 8.296875 
L 54.390625 0 
L 12.40625 0 
z
" id="DejaVuSans-31"/>
      </defs>
      <g transform="translate(153.105221 187.323192)scale(0.1 -0.1)">
       <use xlink:href="#DejaVuSans-2d"/>
       <use x="36.083984" xlink:href="#DejaVuSans-31"/>
      </g>
     </g>
    </g>
    <g id="xtick_3">
     <g id="line2d_3">
      <g>
       <use style="stroke:#000000;stroke-width:0.8;" x="215.296641" xlink:href="#m2b1d2da431" y="172.724755"/>
      </g>
     </g>
    </g>
    <g id="xtick_4">
     <g id="line2d_4">
      <g>
       <use style="stroke:#000000;stroke-width:0.8;" x="272.502905" xlink:href="#m2b1d2da431" y="172.724755"/>
      </g>
     </g>
     <g id="text_3">
      <!-- 1 -->
      <g transform="translate(269.321655 187.323192)scale(0.1 -0.1)">
       <use xlink:href="#DejaVuSans-31"/>
      </g>
     </g>
    </g>
    <g id="xtick_5">
     <g id="line2d_5">
      <g>
       <use style="stroke:#000000;stroke-width:0.8;" x="329.709169" xlink:href="#m2b1d2da431" y="172.724755"/>
      </g>
     </g>
     <g id="text_4">
      <!-- 2 -->
      <g transform="translate(326.527919 187.323192)scale(0.1 -0.1)">
       <use xlink:href="#DejaVuSans-32"/>
      </g>
     </g>
    </g>
    <g id="xtick_6">
     <g id="line2d_6">
      <g>
       <use style="stroke:#000000;stroke-width:0.8;" x="386.915433" xlink:href="#m2b1d2da431" y="172.724755"/>
      </g>
     </g>
     <g id="text_5">
      <!-- 3 -->
      <defs>
       <path d="M 40.578125 39.3125 
Q 47.65625 37.796875 51.625 33 
Q 55.609375 28.21875 55.609375 21.1875 
Q 55.609375 10.40625 48.1875 4.484375 
Q 40.765625 -1.421875 27.09375 -1.421875 
Q 22.515625 -1.421875 17.65625 -0.515625 
Q 12.796875 0.390625 7.625 2.203125 
L 7.625 11.71875 
Q 11.71875 9.328125 16.59375 8.109375 
Q 21.484375 6.890625 26.8125 6.890625 
Q 36.078125 6.890625 40.9375 10.546875 
Q 45.796875 14.203125 45.796875 21.1875 
Q 45.796875 27.640625 41.28125 31.265625 
Q 36.765625 34.90625 28.71875 34.90625 
L 20.21875 34.90625 
L 20.21875 43.015625 
L 29.109375 43.015625 
Q 36.375 43.015625 40.234375 45.921875 
Q 44.09375 48.828125 44.09375 54.296875 
Q 44.09375 59.90625 40.109375 62.90625 
Q 36.140625 65.921875 28.71875 65.921875 
Q 24.65625 65.921875 20.015625 65.03125 
Q 15.375 64.15625 9.8125 62.3125 
L 9.8125 71.09375 
Q 15.4375 72.65625 20.34375 73.4375 
Q 25.25 74.21875 29.59375 74.21875 
Q 40.828125 74.21875 47.359375 69.109375 
Q 53.90625 64.015625 53.90625 55.328125 
Q 53.90625 49.265625 50.4375 45.09375 
Q 46.96875 40.921875 40.578125 39.3125 
z
" id="DejaVuSans-33"/>
      </defs>
      <g transform="translate(383.734183 187.323192)scale(0.1 -0.1)">
       <use xlink:href="#DejaVuSans-33"/>
      </g>
     </g>
    </g>
    <g id="xtick_7">
     <g id="line2d_7">
      <defs>
       <path d="M 0 0 
L 0 2 
" id="mfc42555791" style="stroke:#000000;stroke-width:0.6;"/>
      </defs>
      <g>
       <use style="stroke:#000000;stroke-width:0.6;" x="78.001607" xlink:href="#mfc42555791" y="172.724755"/>
      </g>
     </g>
    </g>
    <g id="xtick_8">
     <g id="line2d_8">
      <g>
       <use style="stroke:#000000;stroke-width:0.6;" x="89.44286" xlink:href="#mfc42555791" y="172.724755"/>
      </g>
     </g>
    </g>
    <g id="xtick_9">
     <g id="line2d_9">
      <g>
       <use style="stroke:#000000;stroke-width:0.6;" x="112.325366" xlink:href="#mfc42555791" y="172.724755"/>
      </g>
     </g>
    </g>
    <g id="xtick_10">
     <g id="line2d_10">
      <g>
       <use style="stroke:#000000;stroke-width:0.6;" x="123.766618" xlink:href="#mfc42555791" y="172.724755"/>
      </g>
     </g>
    </g>
    <g id="xtick_11">
     <g id="line2d_11">
      <g>
       <use style="stroke:#000000;stroke-width:0.6;" x="135.207871" xlink:href="#mfc42555791" y="172.724755"/>
      </g>
     </g>
    </g>
    <g id="xtick_12">
     <g id="line2d_12">
      <g>
       <use style="stroke:#000000;stroke-width:0.6;" x="146.649124" xlink:href="#mfc42555791" y="172.724755"/>
      </g>
     </g>
    </g>
    <g id="xtick_13">
     <g id="line2d_13">
      <g>
       <use style="stroke:#000000;stroke-width:0.6;" x="158.090377" xlink:href="#mfc42555791" y="172.724755"/>
      </g>
     </g>
    </g>
    <g id="xtick_14">
     <g id="line2d_14">
      <g>
       <use style="stroke:#000000;stroke-width:0.6;" x="169.53163" xlink:href="#mfc42555791" y="172.724755"/>
      </g>
     </g>
    </g>
    <g id="xtick_15">
     <g id="line2d_15">
      <g>
       <use style="stroke:#000000;stroke-width:0.6;" x="180.972882" xlink:href="#mfc42555791" y="172.724755"/>
      </g>
     </g>
    </g>
    <g id="xtick_16">
     <g id="line2d_16">
      <g>
       <use style="stroke:#000000;stroke-width:0.6;" x="192.414135" xlink:href="#mfc42555791" y="172.724755"/>
      </g>
     </g>
    </g>
    <g id="xtick_17">
     <g id="line2d_17">
      <g>
       <use style="stroke:#000000;stroke-width:0.6;" x="203.855388" xlink:href="#mfc42555791" y="172.724755"/>
      </g>
     </g>
    </g>
    <g id="xtick_18">
     <g id="line2d_18">
      <g>
       <use style="stroke:#000000;stroke-width:0.6;" x="215.296641" xlink:href="#mfc42555791" y="172.724755"/>
      </g>
     </g>
    </g>
    <g id="xtick_19">
     <g id="line2d_19">
      <g>
       <use style="stroke:#000000;stroke-width:0.6;" x="226.737894" xlink:href="#mfc42555791" y="172.724755"/>
      </g>
     </g>
    </g>
    <g id="xtick_20">
     <g id="line2d_20">
      <g>
       <use style="stroke:#000000;stroke-width:0.6;" x="238.179147" xlink:href="#mfc42555791" y="172.724755"/>
      </g>
     </g>
    </g>
    <g id="xtick_21">
     <g id="line2d_21">
      <g>
       <use style="stroke:#000000;stroke-width:0.6;" x="249.620399" xlink:href="#mfc42555791" y="172.724755"/>
      </g>
     </g>
    </g>
    <g id="xtick_22">
     <g id="line2d_22">
      <g>
       <use style="stroke:#000000;stroke-width:0.6;" x="261.061652" xlink:href="#mfc42555791" y="172.724755"/>
      </g>
     </g>
    </g>
    <g id="xtick_23">
     <g id="line2d_23">
      <g>
       <use style="stroke:#000000;stroke-width:0.6;" x="272.502905" xlink:href="#mfc42555791" y="172.724755"/>
      </g>
     </g>
    </g>
    <g id="xtick_24">
     <g id="line2d_24">
      <g>
       <use style="stroke:#000000;stroke-width:0.6;" x="283.944158" xlink:href="#mfc42555791" y="172.724755"/>
      </g>
     </g>
    </g>
    <g id="xtick_25">
     <g id="line2d_25">
      <g>
       <use style="stroke:#000000;stroke-width:0.6;" x="295.385411" xlink:href="#mfc42555791" y="172.724755"/>
      </g>
     </g>
    </g>
    <g id="xtick_26">
     <g id="line2d_26">
      <g>
       <use style="stroke:#000000;stroke-width:0.6;" x="306.826664" xlink:href="#mfc42555791" y="172.724755"/>
      </g>
     </g>
    </g>
    <g id="xtick_27">
     <g id="line2d_27">
      <g>
       <use style="stroke:#000000;stroke-width:0.6;" x="318.267916" xlink:href="#mfc42555791" y="172.724755"/>
      </g>
     </g>
    </g>
    <g id="xtick_28">
     <g id="line2d_28">
      <g>
       <use style="stroke:#000000;stroke-width:0.6;" x="329.709169" xlink:href="#mfc42555791" y="172.724755"/>
      </g>
     </g>
    </g>
    <g id="xtick_29">
     <g id="line2d_29">
      <g>
       <use style="stroke:#000000;stroke-width:0.6;" x="341.150422" xlink:href="#mfc42555791" y="172.724755"/>
      </g>
     </g>
    </g>
    <g id="xtick_30">
     <g id="line2d_30">
      <g>
       <use style="stroke:#000000;stroke-width:0.6;" x="352.591675" xlink:href="#mfc42555791" y="172.724755"/>
      </g>
     </g>
    </g>
    <g id="xtick_31">
     <g id="line2d_31">
      <g>
       <use style="stroke:#000000;stroke-width:0.6;" x="364.032928" xlink:href="#mfc42555791" y="172.724755"/>
      </g>
     </g>
    </g>
    <g id="xtick_32">
     <g id="line2d_32">
      <g>
       <use style="stroke:#000000;stroke-width:0.6;" x="375.474181" xlink:href="#mfc42555791" y="172.724755"/>
      </g>
     </g>
    </g>
    <g id="xtick_33">
     <g id="line2d_33">
      <g>
       <use style="stroke:#000000;stroke-width:0.6;" x="386.915433" xlink:href="#mfc42555791" y="172.724755"/>
      </g>
     </g>
    </g>
   </g>
   <g id="matplotlib.axis_2">
    <g id="ytick_1">
     <g id="line2d_34">
      <defs>
       <path d="M 0 0 
L -3.5 0 
" id="m0bab96985d" style="stroke:#000000;stroke-width:0.8;"/>
      </defs>
      <g>
       <use style="stroke:#000000;stroke-width:0.8;" x="215.296641" xlink:href="#m0bab96985d" y="287.137283"/>
      </g>
     </g>
     <g id="text_6">
      <!-- -2 -->
      <g transform="translate(198.326328 290.936502)scale(0.1 -0.1)">
       <use xlink:href="#DejaVuSans-2d"/>
       <use x="36.083984" xlink:href="#DejaVuSans-32"/>
      </g>
     </g>
    </g>
    <g id="ytick_2">
     <g id="line2d_35">
      <g>
       <use style="stroke:#000000;stroke-width:0.8;" x="215.296641" xlink:href="#m0bab96985d" y="229.931019"/>
      </g>
     </g>
     <g id="text_7">
      <!-- -1 -->
      <g transform="translate(198.326328 233.730238)scale(0.1 -0.1)">
       <use xlink:href="#DejaVuSans-2d"/>
       <use x="36.083984" xlink:href="#DejaVuSans-31"/>
      </g>
     </g>
    </g>
    <g id="ytick_3">
     <g id="line2d_36">
      <g>
       <use style="stroke:#000000;stroke-width:0.8;" x="215.296641" xlink:href="#m0bab96985d" y="172.724755"/>
      </g>
     </g>
    </g>
    <g id="ytick_4">
     <g id="line2d_37">
      <g>
       <use style="stroke:#000000;stroke-width:0.8;" x="215.296641" xlink:href="#m0bab96985d" y="115.518491"/>
      </g>
     </g>
     <g id="text_8">
      <!-- 1 -->
      <g transform="translate(201.934141 119.317709)scale(0.1 -0.1)">
       <use xlink:href="#DejaVuSans-31"/>
      </g>
     </g>
    </g>
    <g id="ytick_5">
     <g id="line2d_38">
      <g>
       <use style="stroke:#000000;stroke-width:0.8;" x="215.296641" xlink:href="#m0bab96985d" y="58.312226"/>
      </g>
     </g>
     <g id="text_9">
      <!-- 2 -->
      <g transform="translate(201.934141 62.111445)scale(0.1 -0.1)">
       <use xlink:href="#DejaVuSans-32"/>
      </g>
     </g>
    </g>
    <g id="ytick_6">
     <g id="line2d_39">
      <defs>
       <path d="M 0 0 
L -2 0 
" id="mef8f8c70c5" style="stroke:#000000;stroke-width:0.6;"/>
      </defs>
      <g>
       <use style="stroke:#000000;stroke-width:0.6;" x="215.296641" xlink:href="#mef8f8c70c5" y="332.902294"/>
      </g>
     </g>
    </g>
    <g id="ytick_7">
     <g id="line2d_40">
      <g>
       <use style="stroke:#000000;stroke-width:0.6;" x="215.296641" xlink:href="#mef8f8c70c5" y="321.461041"/>
      </g>
     </g>
    </g>
    <g id="ytick_8">
     <g id="line2d_41">
      <g>
       <use style="stroke:#000000;stroke-width:0.6;" x="215.296641" xlink:href="#mef8f8c70c5" y="310.019789"/>
      </g>
     </g>
    </g>
    <g id="ytick_9">
     <g id="line2d_42">
      <g>
       <use style="stroke:#000000;stroke-width:0.6;" x="215.296641" xlink:href="#mef8f8c70c5" y="298.578536"/>
      </g>
     </g>
    </g>
    <g id="ytick_10">
     <g id="line2d_43">
      <g>
       <use style="stroke:#000000;stroke-width:0.6;" x="215.296641" xlink:href="#mef8f8c70c5" y="275.69603"/>
      </g>
     </g>
    </g>
    <g id="ytick_11">
     <g id="line2d_44">
      <g>
       <use style="stroke:#000000;stroke-width:0.6;" x="215.296641" xlink:href="#mef8f8c70c5" y="264.254777"/>
      </g>
     </g>
    </g>
    <g id="ytick_12">
     <g id="line2d_45">
      <g>
       <use style="stroke:#000000;stroke-width:0.6;" x="215.296641" xlink:href="#mef8f8c70c5" y="252.813524"/>
      </g>
     </g>
    </g>
    <g id="ytick_13">
     <g id="line2d_46">
      <g>
       <use style="stroke:#000000;stroke-width:0.6;" x="215.296641" xlink:href="#mef8f8c70c5" y="241.372272"/>
      </g>
     </g>
    </g>
    <g id="ytick_14">
     <g id="line2d_47">
      <g>
       <use style="stroke:#000000;stroke-width:0.6;" x="215.296641" xlink:href="#mef8f8c70c5" y="218.489766"/>
      </g>
     </g>
    </g>
    <g id="ytick_15">
     <g id="line2d_48">
      <g>
       <use style="stroke:#000000;stroke-width:0.6;" x="215.296641" xlink:href="#mef8f8c70c5" y="207.048513"/>
      </g>
     </g>
    </g>
    <g id="ytick_16">
     <g id="line2d_49">
      <g>
       <use style="stroke:#000000;stroke-width:0.6;" x="215.296641" xlink:href="#mef8f8c70c5" y="195.60726"/>
      </g>
     </g>
    </g>
    <g id="ytick_17">
     <g id="line2d_50">
      <g>
       <use style="stroke:#000000;stroke-width:0.6;" x="215.296641" xlink:href="#mef8f8c70c5" y="184.166007"/>
      </g>
     </g>
    </g>
    <g id="ytick_18">
     <g id="line2d_51">
      <g>
       <use style="stroke:#000000;stroke-width:0.6;" x="215.296641" xlink:href="#mef8f8c70c5" y="161.283502"/>
      </g>
     </g>
    </g>
    <g id="ytick_19">
     <g id="line2d_52">
      <g>
       <use style="stroke:#000000;stroke-width:0.6;" x="215.296641" xlink:href="#mef8f8c70c5" y="149.842249"/>
      </g>
     </g>
    </g>
    <g id="ytick_20">
     <g id="line2d_53">
      <g>
       <use style="stroke:#000000;stroke-width:0.6;" x="215.296641" xlink:href="#mef8f8c70c5" y="138.400996"/>
      </g>
     </g>
    </g>
    <g id="ytick_21">
     <g id="line2d_54">
      <g>
       <use style="stroke:#000000;stroke-width:0.6;" x="215.296641" xlink:href="#mef8f8c70c5" y="126.959743"/>
      </g>
     </g>
    </g>
    <g id="ytick_22">
     <g id="line2d_55">
      <g>
       <use style="stroke:#000000;stroke-width:0.6;" x="215.296641" xlink:href="#mef8f8c70c5" y="104.077238"/>
      </g>
     </g>
    </g>
    <g id="ytick_23">
     <g id="line2d_56">
      <g>
       <use style="stroke:#000000;stroke-width:0.6;" x="215.296641" xlink:href="#mef8f8c70c5" y="92.635985"/>
      </g>
     </g>
    </g>
    <g id="ytick_24">
     <g id="line2d_57">
      <g>
       <use style="stroke:#000000;stroke-width:0.6;" x="215.296641" xlink:href="#mef8f8c70c5" y="81.194732"/>
      </g>
     </g>
    </g>
    <g id="ytick_25">
     <g id="line2d_58">
      <g>
       <use style="stroke:#000000;stroke-width:0.6;" x="215.296641" xlink:href="#mef8f8c70c5" y="69.753479"/>
      </g>
     </g>
    </g>
    <g id="ytick_26">
     <g id="line2d_59">
      <g>
       <use style="stroke:#000000;stroke-width:0.6;" x="215.296641" xlink:href="#mef8f8c70c5" y="46.870974"/>
      </g>
     </g>
    </g>
    <g id="ytick_27">
     <g id="line2d_60">
      <g>
       <use style="stroke:#000000;stroke-width:0.6;" x="215.296641" xlink:href="#mef8f8c70c5" y="35.429721"/>
      </g>
     </g>
    </g>
    <g id="ytick_28">
     <g id="line2d_61">
      <g>
       <use style="stroke:#000000;stroke-width:0.6;" x="215.296641" xlink:href="#mef8f8c70c5" y="23.988468"/>
      </g>
     </g>
    </g>
    <g id="ytick_29">
     <g id="line2d_62">
      <g>
       <use style="stroke:#000000;stroke-width:0.6;" x="215.296641" xlink:href="#mef8f8c70c5" y="12.547215"/>
      </g>
     </g>
    </g>
   </g>
   <g id="line2d_63">
    <path clip-path="url(#pa8a1b0e55b)" d="M 386.915433 172.724755 
L 386.773829 170.829698 
L 386.349575 168.950809 
L 385.30473 166.417105 
L 383.733994 163.986331 
L 381.730438 161.776274 
L 378.947911 159.512588 
L 376.562792 158.01914 
L 373.892648 156.681113 
L 370.495834 155.359681 
L 366.760952 154.28846 
L 363.689549 153.651695 
L 360.444267 153.183413 
L 354.833228 152.803311 
L 349.640173 152.877076 
L 342.556571 153.561493 
L 336.157441 154.710507 
L 322.901266 158.585252 
L 312.919619 162.802804 
L 309.282675 164.621842 
L 295.08747 173.256976 
L 290.015669 176.984768 
L 284.251049 181.683897 
L 279.5539 185.91304 
L 275.011426 190.384545 
L 269.529934 196.349226 
L 264.362982 202.640297 
L 258.390004 210.91632 
L 255.692175 215.093019 
L 253.143872 219.348234 
L 250.861393 223.463416 
L 248.723439 227.631477 
L 246.638478 232.053887 
L 244.740117 236.465394 
L 243.007975 240.902557 
L 241.444348 245.354517 
L 240.050926 249.810317 
L 239.028303 253.488916 
L 237.474852 260.11917 
L 236.305543 266.675823 
L 235.58658 272.403375 
L 235.16259 278.018667 
L 235.029887 284.156001 
L 235.142971 288.251097 
L 235.417009 292.237971 
L 236.229007 298.688206 
L 237.392812 304.495893 
L 238.905958 309.912709 
L 240.365089 313.988018 
L 242.066312 317.876335 
L 244.408827 322.212268 
L 246.979793 326.012975 
L 250.385283 329.916927 
L 255.016839 333.63586 
L 256.806894 334.653856 
L 263.183404 336.530769 
L 267.222056 336.249302 
L 268.980951 335.712601 
L 272.593725 333.597954 
L 274.567243 331.652408 
L 275.81436 329.983642 
L 276.911342 328.092656 
L 278.04021 325.468559 
L 278.902275 322.540608 
L 279.535653 318.857496 
L 279.764244 315.396862 
L 279.680541 311.709437 
L 279.367234 308.512653 
L 278.826542 305.192504 
L 278.099055 301.94323 
L 277.158933 298.609167 
L 275.875449 294.858013 
L 274.328705 291.037773 
L 272.454689 287.041003 
L 270.394327 283.178045 
L 268.076253 279.30056 
L 264.693211 274.282974 
L 260.889448 269.30741 
L 258.295345 266.226232 
L 255.543633 263.184806 
L 251.656957 259.226466 
L 247.510071 255.37291 
L 243.269924 251.769165 
L 238.809715 248.297016 
L 234.275084 245.062544 
L 229.557258 241.980477 
L 225.289915 239.418822 
L 219.774415 236.399342 
L 214.089991 233.604658 
L 206.835853 230.469569 
L 199.022271 227.594924 
L 191.053826 225.165907 
L 184.72072 223.580661 
L 172.132156 221.304316 
L 165.19904 220.538659 
L 149.88304 220.081336 
L 141.491648 220.5747 
L 130.908307 222.002354 
L 122.146855 223.929398 
L 115.495118 225.900386 
L 109.883518 227.951225 
L 104.608059 230.251389 
L 101.320218 231.894426 
L 98.196623 233.626385 
L 94.786275 235.736112 
L 91.614024 237.940168 
L 89.643359 239.448482 
L 85.763678 242.808347 
L 82.416922 246.267772 
L 80.162335 249.035667 
L 78.251616 251.813816 
L 76.854787 254.25237 
L 75.72773 256.664909 
L 74.671916 259.711109 
L 74.129285 262.185297 
L 73.894689 264.567094 
L 73.927542 266.42305 
L 74.349146 269.062853 
L 75.205245 271.477002 
L 76.425736 273.560524 
L 78.015694 275.376437 
L 79.805895 276.80095 
L 81.389772 277.718763 
L 83.134708 278.464225 
L 85.07009 279.038866 
L 87.152236 279.418548 
L 90.811205 279.60239 
L 94.776317 279.230389 
L 98.202355 278.500779 
L 100.919132 277.67833 
L 110.963715 272.907246 
L 112.181749 272.147929 
L 119.060745 267.105702 
L 124.63044 262.021174 
L 129.872715 256.301746 
L 134.872948 249.843169 
L 136.676065 247.229507 
L 141.012509 240.1876 
L 143.713145 235.142028 
L 146.223746 229.861304 
L 149.026249 223.07373 
L 151.489537 215.995991 
L 153.174348 210.245464 
L 154.89247 203.131625 
L 156.59644 193.604923 
L 157.588529 184.859274 
L 158.053353 176.024808 
L 158.053683 169.439449 
L 157.759514 162.867389 
L 157.352054 158.015792 
L 156.78503 153.196935 
L 155.876289 147.355295 
L 154.339892 139.845769 
L 152.443515 132.594156 
L 150.191488 125.564944 
L 147.695586 119.015624 
L 144.306054 111.497874 
L 141.777069 106.632128 
L 139.086985 101.991389 
L 135.999906 97.220353 
L 132.763084 92.748308 
L 128.530246 87.588598 
L 124.145159 82.946792 
L 119.477463 78.69185 
L 114.348861 74.750269 
L 107.629767 70.663627 
L 105.074859 69.421329 
L 100.758381 67.716758 
L 96.605877 66.564575 
L 91.135503 65.856749 
L 88.783362 65.879467 
L 84.666791 66.511287 
L 82.638814 67.172855 
L 80.79362 68.04558 
L 78.598175 69.553659 
L 76.79229 71.405182 
L 75.741476 72.944669 
L 74.561398 75.636231 
L 74.186676 77.104215 
L 73.959789 78.645056 
L 73.884567 80.062671 
L 74.079584 82.935838 
L 74.731798 85.950334 
L 75.494858 88.204824 
L 76.503598 90.501129 
L 78.350226 93.79233 
L 79.602896 95.650494 
L 81.009806 97.506914 
L 83.595186 100.473603 
L 86.570802 103.389353 
L 90.723173 106.841938 
L 95.424397 110.12721 
L 98.66258 112.09293 
L 103.17867 114.505078 
L 108.017703 116.728829 
L 112.961208 118.670026 
L 117.573376 120.215696 
L 122.377246 121.580157 
L 128.806253 123.049533 
L 135.491805 124.180326 
L 146.879975 125.253931 
L 152.021807 125.40804 
L 165.303242 124.901899 
L 174.24322 123.84348 
L 185.531575 121.682571 
L 197.601003 118.324189 
L 208.150104 114.446243 
L 218.06434 109.923617 
L 221.334062 108.228175 
L 228.759294 103.96379 
L 235.808697 99.324344 
L 240.17859 96.119142 
L 246.313275 91.126081 
L 251.993626 85.894281 
L 256.573307 81.151783 
L 259.403122 77.934876 
L 262.056899 74.678062 
L 265.552684 69.952096 
L 267.787269 66.604367 
L 269.831413 63.253023 
L 271.683473 59.909238 
L 273.342459 56.584235 
L 274.810106 53.284295 
L 276.084071 50.02573 
L 277.561804 45.493507 
L 278.690859 40.933542 
L 279.415478 36.556592 
L 279.704678 33.337832 
L 279.760838 29.902883 
L 279.544142 26.667327 
L 278.961591 23.166525 
L 278.349738 20.897481 
L 277.58031 18.799858 
L 276.399865 16.414382 
L 275.001721 14.331753 
L 273.381918 12.544395 
L 271.58053 11.097782 
L 269.772823 10.073728 
L 266.569244 9.069231 
L 261.248273 9.200305 
L 258.982396 9.850275 
L 255.911725 11.277166 
L 249.167619 16.800387 
L 246.079133 20.672433 
L 244.028798 23.876378 
L 241.910358 27.899563 
L 240.022499 32.345486 
L 238.530866 36.738777 
L 237.199856 41.780399 
L 236.166918 47.146662 
L 235.750349 50.093121 
L 235.24183 55.463262 
L 235.03204 61.04558 
L 235.173748 67.648883 
L 235.736446 74.450708 
L 236.377857 79.248307 
L 237.880616 87.224238 
L 239.900654 95.123583 
L 242.462812 103.049715 
L 244.485985 108.360338 
L 246.747279 113.636464 
L 250.449318 121.208174 
L 254.849681 128.985583 
L 259.471717 136.124586 
L 265.244847 143.934457 
L 269.491928 149.056529 
L 273.949446 153.960586 
L 280.341897 160.272778 
L 286.997373 166.068545 
L 293.891628 171.346108 
L 302.120151 176.786178 
L 310.91375 181.66247 
L 318.348781 185.079878 
L 328.136168 188.630208 
L 337.10765 190.940126 
L 340.441299 191.562098 
L 346.62358 192.359669 
L 352.525404 192.660831 
L 355.017703 192.641626 
L 360.477231 192.262312 
L 365.529902 191.440547 
L 370.494139 190.090398 
L 373.446765 188.963919 
L 375.988509 187.744485 
L 378.28425 186.386309 
L 380.528991 184.737001 
L 382.449515 182.95489 
L 384.151057 180.90165 
L 385.286335 179.067263 
L 386.125581 177.174591 
L 386.717698 174.963009 
L 386.915433 172.724755 
L 386.915433 172.724755 
" style="fill:none;stroke:#0000ff;stroke-linecap:square;"/>
   </g>
   <g id="patch_4">
    <path d="M 215.296641 343.08 
L 215.296641 2.52 
" style="fill:none;stroke:#000000;stroke-linecap:square;stroke-linejoin:miter;stroke-width:0.8;"/>
   </g>
   <g id="patch_5">
    <path d="M 67.623949 172.724755 
L 393.176051 172.724755 
" style="fill:none;stroke:#000000;stroke-linecap:square;stroke-linejoin:miter;stroke-width:0.8;"/>
   </g>
  </g>
 </g>
 <defs>
  <clipPath id="pa8a1b0e55b">
   <rect height="340.56" width="325.552101" x="67.623949" y="2.52"/>
  </clipPath>
 </defs>
</svg>
