<?xml version="1.0" encoding="utf-8" standalone="no"?>
<!DOCTYPE svg PUBLIC "-//W3C//DTD SVG 1.1//EN"
  "http://www.w3.org/Graphics/SVG/1.1/DTD/svg11.dtd">
<svg xmlns:xlink="http://www.w3.org/1999/xlink" width="460.8pt" height="345.6pt" viewBox="0 0 460.8 345.6" xmlns="http://www.w3.org/2000/svg" version="1.1">
 <metadata>
  <rdf:RDF xmlns:dc="http://purl.org/dc/elements/1.1/" xmlns:cc="http://creativecommons.org/ns#" xmlns:rdf="http://www.w3.org/1999/02/22-rdf-syntax-ns#">
   <cc:Work>
    <dc:type rdf:resource="http://purl.org/dc/dcmitype/StillImage"/>
    <dc:date>2023-08-21T20:31:29.197878</dc:date>
    <dc:format>image/svg+xml</dc:format>
    <dc:creator>
     <cc:Agent>
      <dc:title>Matplotlib v3.6.2, https://matplotlib.org/</dc:title>
     </cc:Agent>
    </dc:creator>
   </cc:Work>
  </rdf:RDF>
 </metadata>
 <defs>
  <style type="text/css">*{stroke-linejoin: round; stroke-linecap: butt}</style>
 </defs>
 <g id="figure_1">
  <g id="patch_1">
   <path d="M 0 345.6 
L 460.8 345.6 
L 460.8 0 
L 0 0 
z
" style="fill: #ffffff"/>
  </g>
  <g id="axes_1">
   <g id="patch_2">
    <path d="M 0 345.6 
L 460.8 345.6 
L 460.8 0 
L 0 0 
z
" style="fill: #ffffff"/>
   </g>
   <g id="matplotlib.axis_1">
    <g id="xtick_1">
     <g id="line2d_1">
      <defs>
       <path id="m254503a182" d="M 0 0 
L 0 3.5 
" style="stroke: #000000; stroke-width: 0.8"/>
      </defs>
      <g>
       <use xlink:href="#m254503a182" x="36.553846" y="172.798483" style="stroke: #000000; stroke-width: 0.8"/>
      </g>
     </g>
     <g id="text_1">
      <!-- −7 -->
      <g transform="translate(29.182752 187.39692) scale(0.1 -0.1)">
       <defs>
        <path id="DejaVuSans-2212" d="M 678 2272 
L 4684 2272 
L 4684 1741 
L 678 1741 
L 678 2272 
z
" transform="scale(0.015625)"/>
        <path id="DejaVuSans-37" d="M 525 4666 
L 3525 4666 
L 3525 4397 
L 1831 0 
L 1172 0 
L 2766 4134 
L 525 4134 
L 525 4666 
z
" transform="scale(0.015625)"/>
       </defs>
       <use xlink:href="#DejaVuSans-2212"/>
       <use xlink:href="#DejaVuSans-37" x="83.789062"/>
      </g>
     </g>
    </g>
    <g id="xtick_2">
     <g id="line2d_2">
      <g>
       <use xlink:href="#m254503a182" x="147.323077" y="172.798483" style="stroke: #000000; stroke-width: 0.8"/>
      </g>
     </g>
     <g id="text_2">
      <!-- −3 -->
      <g transform="translate(139.951983 187.39692) scale(0.1 -0.1)">
       <defs>
        <path id="DejaVuSans-33" d="M 2597 2516 
Q 3050 2419 3304 2112 
Q 3559 1806 3559 1356 
Q 3559 666 3084 287 
Q 2609 -91 1734 -91 
Q 1441 -91 1130 -33 
Q 819 25 488 141 
L 488 750 
Q 750 597 1062 519 
Q 1375 441 1716 441 
Q 2309 441 2620 675 
Q 2931 909 2931 1356 
Q 2931 1769 2642 2001 
Q 2353 2234 1838 2234 
L 1294 2234 
L 1294 2753 
L 1863 2753 
Q 2328 2753 2575 2939 
Q 2822 3125 2822 3475 
Q 2822 3834 2567 4026 
Q 2313 4219 1838 4219 
Q 1578 4219 1281 4162 
Q 984 4106 628 3988 
L 628 4550 
Q 988 4650 1302 4700 
Q 1616 4750 1894 4750 
Q 2613 4750 3031 4423 
Q 3450 4097 3450 3541 
Q 3450 3153 3228 2886 
Q 3006 2619 2597 2516 
z
" transform="scale(0.015625)"/>
       </defs>
       <use xlink:href="#DejaVuSans-2212"/>
       <use xlink:href="#DejaVuSans-33" x="83.789062"/>
      </g>
     </g>
    </g>
    <g id="xtick_3">
     <g id="line2d_3">
      <g>
       <use xlink:href="#m254503a182" x="230.4" y="172.798483" style="stroke: #000000; stroke-width: 0.8"/>
      </g>
     </g>
    </g>
    <g id="xtick_4">
     <g id="line2d_4">
      <g>
       <use xlink:href="#m254503a182" x="313.476923" y="172.798483" style="stroke: #000000; stroke-width: 0.8"/>
      </g>
     </g>
     <g id="text_3">
      <!-- 3 -->
      <g transform="translate(310.295673 187.39692) scale(0.1 -0.1)">
       <use xlink:href="#DejaVuSans-33"/>
      </g>
     </g>
    </g>
    <g id="xtick_5">
     <g id="line2d_5">
      <g>
       <use xlink:href="#m254503a182" x="424.246154" y="172.798483" style="stroke: #000000; stroke-width: 0.8"/>
      </g>
     </g>
     <g id="text_4">
      <!-- 7 -->
      <g transform="translate(421.064904 187.39692) scale(0.1 -0.1)">
       <use xlink:href="#DejaVuSans-37"/>
      </g>
     </g>
    </g>
   </g>
   <g id="matplotlib.axis_2">
    <g id="ytick_1">
     <g id="line2d_6">
      <defs>
       <path id="m7c3f62fbd1" d="M 0 0 
L -3.5 0 
" style="stroke: #000000; stroke-width: 0.8"/>
      </defs>
      <g>
       <use xlink:href="#m7c3f62fbd1" x="230.4" y="255.876289" style="stroke: #000000; stroke-width: 0.8"/>
      </g>
     </g>
     <g id="text_5">
      <!-- −0.5 -->
      <g transform="translate(199.117188 259.675507) scale(0.1 -0.1)">
       <defs>
        <path id="DejaVuSans-30" d="M 2034 4250 
Q 1547 4250 1301 3770 
Q 1056 3291 1056 2328 
Q 1056 1369 1301 889 
Q 1547 409 2034 409 
Q 2525 409 2770 889 
Q 3016 1369 3016 2328 
Q 3016 3291 2770 3770 
Q 2525 4250 2034 4250 
z
M 2034 4750 
Q 2819 4750 3233 4129 
Q 3647 3509 3647 2328 
Q 3647 1150 3233 529 
Q 2819 -91 2034 -91 
Q 1250 -91 836 529 
Q 422 1150 422 2328 
Q 422 3509 836 4129 
Q 1250 4750 2034 4750 
z
" transform="scale(0.015625)"/>
        <path id="DejaVuSans-2e" d="M 684 794 
L 1344 794 
L 1344 0 
L 684 0 
L 684 794 
z
" transform="scale(0.015625)"/>
        <path id="DejaVuSans-35" d="M 691 4666 
L 3169 4666 
L 3169 4134 
L 1269 4134 
L 1269 2991 
Q 1406 3038 1543 3061 
Q 1681 3084 1819 3084 
Q 2600 3084 3056 2656 
Q 3513 2228 3513 1497 
Q 3513 744 3044 326 
Q 2575 -91 1722 -91 
Q 1428 -91 1123 -41 
Q 819 9 494 109 
L 494 744 
Q 775 591 1075 516 
Q 1375 441 1709 441 
Q 2250 441 2565 725 
Q 2881 1009 2881 1497 
Q 2881 1984 2565 2268 
Q 2250 2553 1709 2553 
Q 1456 2553 1204 2497 
Q 953 2441 691 2322 
L 691 4666 
z
" transform="scale(0.015625)"/>
       </defs>
       <use xlink:href="#DejaVuSans-2212"/>
       <use xlink:href="#DejaVuSans-30" x="83.789062"/>
       <use xlink:href="#DejaVuSans-2e" x="147.412109"/>
       <use xlink:href="#DejaVuSans-35" x="179.199219"/>
      </g>
     </g>
    </g>
    <g id="ytick_2">
     <g id="line2d_7">
      <g>
       <use xlink:href="#m7c3f62fbd1" x="230.4" y="172.798483" style="stroke: #000000; stroke-width: 0.8"/>
      </g>
     </g>
    </g>
    <g id="ytick_3">
     <g id="line2d_8">
      <g>
       <use xlink:href="#m7c3f62fbd1" x="230.4" y="89.720677" style="stroke: #000000; stroke-width: 0.8"/>
      </g>
     </g>
     <g id="text_6">
      <!-- 0.5 -->
      <g transform="translate(207.496875 93.519896) scale(0.1 -0.1)">
       <use xlink:href="#DejaVuSans-30"/>
       <use xlink:href="#DejaVuSans-2e" x="63.623047"/>
       <use xlink:href="#DejaVuSans-35" x="95.410156"/>
      </g>
     </g>
    </g>
   </g>
   <g id="line2d_9">
    <path d="M 8.861538 172.798483 
L 12.009329 114.716497 
L 13.999847 81.335433 
L 15.94115 53.240937 
L 17.349341 36.408416 
L 18.849855 22.303563 
L 19.958992 14.655949 
L 20.698416 10.940852 
L 21.068128 9.508835 
L 21.734652 7.654188 
L 22.401176 6.743317 
L 22.793375 6.650721 
L 23.185575 6.886991 
L 23.577775 7.45166 
L 23.969975 8.343609 
L 24.754374 11.101643 
L 25.538774 15.139267 
L 26.474955 21.58793 
L 27.677976 32.364091 
L 28.880997 45.751975 
L 30.718103 70.657589 
L 32.412083 97.568423 
L 34.388745 132.395976 
L 40.743679 248.83532 
L 42.628091 278.447483 
L 43.915117 295.981288 
L 45.251435 311.40821 
L 46.587753 323.655602 
L 47.417557 329.533817 
L 48.247361 334.024066 
L 49.077165 337.086586 
L 49.492067 338.073472 
L 49.906969 338.694257 
L 50.356058 338.95203 
L 50.805146 338.77862 
L 51.454322 337.766972 
L 52.103499 335.860965 
L 52.752675 333.070933 
L 53.401852 329.412002 
L 54.561119 320.781926 
L 55.720387 309.595997 
L 56.927368 295.442427 
L 58.134349 278.992974 
L 59.803743 253.036783 
L 61.4102 225.338073 
L 65.854237 142.654359 
L 68.249561 99.90293 
L 70.273782 67.829153 
L 71.807556 47.115982 
L 73.311497 30.487866 
L 74.304181 21.751363 
L 75.296865 14.928485 
L 76.289549 10.105671 
L 76.831823 8.338776 
L 77.374097 7.194098 
L 77.916371 6.675967 
L 78.458644 6.786343 
L 79.047875 7.618228 
L 79.637105 9.187929 
L 80.453718 12.569538 
L 81.270331 17.325329 
L 82.086944 23.414514 
L 82.903557 30.784871 
L 83.860129 40.962201 
L 85.298924 59.148085 
L 86.737719 80.355214 
L 88.670097 112.59258 
L 91.764687 169.523089 
L 95.424454 236.809106 
L 97.420193 269.595166 
L 98.9251 291.132383 
L 100.430007 309.228835 
L 101.381064 318.648225 
L 102.279906 325.993 
L 103.245318 332.107287 
L 103.761309 334.596145 
L 104.2773 336.530743 
L 104.79329 337.904453 
L 105.315884 338.719232 
L 105.838477 338.950992 
L 106.234966 338.737288 
L 106.631454 338.187909 
L 107.027943 337.303968 
L 107.82092 334.540225 
L 108.613896 330.468409 
L 109.631857 323.377939 
L 110.874802 312.01198 
L 112.013461 299.167745 
L 113.362041 281.250996 
L 115.024828 255.722081 
L 117.155083 218.853466 
L 123.699887 98.791906 
L 125.675882 67.573883 
L 127.157878 47.539749 
L 128.46012 32.834698 
L 129.359131 24.44545 
L 130.258142 17.598016 
L 130.938541 13.48478 
L 131.618939 10.320281 
L 132.299337 8.123362 
L 132.979735 6.907108 
L 133.418333 6.646542 
L 133.856932 6.79725 
L 134.29553 7.358858 
L 134.734128 8.329977 
L 135.228369 9.911992 
L 135.722611 12.00596 
L 136.711094 17.701846 
L 137.699577 25.346083 
L 138.68806 34.842642 
L 139.805181 47.653924 
L 141.468604 70.379342 
L 143.173962 97.444884 
L 145.068147 130.755675 
L 151.79884 253.586726 
L 153.493932 279.846661 
L 155.143982 301.625601 
L 156.119907 312.43096 
L 157.130908 321.820082 
L 158.045573 328.630196 
L 158.863901 333.304001 
L 159.655346 336.509626 
L 160.419907 338.354104 
L 160.802187 338.810069 
L 161.184468 338.953846 
L 161.566748 338.785165 
L 161.949029 338.304342 
L 162.331309 337.512283 
L 162.982665 335.450307 
L 163.63402 332.500606 
L 164.285375 328.679279 
L 165.452716 319.718848 
L 166.484686 309.648741 
L 167.621816 296.389031 
L 168.864106 279.564175 
L 170.185207 259.357645 
L 172.285074 223.445164 
L 180.07367 82.598488 
L 181.432423 62.243449 
L 182.800634 44.396878 
L 184.168845 29.637655 
L 185.423437 19.122193 
L 186.259832 13.82789 
L 187.096227 9.963781 
L 187.514425 8.579426 
L 188.077358 7.299941 
L 188.640292 6.695207 
L 189.203226 6.767687 
L 189.76616 7.517088 
L 190.387788 9.127334 
L 191.009417 11.551227 
L 191.631046 14.776716 
L 192.252674 18.787768 
L 193.503683 29.15637 
L 194.828209 43.276869 
L 196.152735 60.316323 
L 197.106333 74.177978 
L 198.984504 104.685548 
L 201.0887 142.452172 
L 206.776635 246.802096 
L 208.722211 277.576135 
L 210.080302 296.12463 
L 211.438394 311.751424 
L 212.343789 320.360175 
L 213.215287 327.178396 
L 214.086786 332.488789 
L 214.890402 336.004287 
L 215.497514 337.762448 
L 216.104626 338.738375 
L 216.711739 338.927439 
L 217.318851 338.328746 
L 217.895485 337.03322 
L 218.472119 335.035119 
L 219.048753 332.342992 
L 220.130203 325.465009 
L 221.139836 316.969704 
L 222.149469 306.58505 
L 223.663918 287.769576 
L 225.407025 261.962113 
L 227.123218 233.152232 
L 230.233749 175.932083 
L 233.675964 112.459094 
L 235.803206 77.208705 
L 237.216118 56.742971 
L 238.62903 39.252654 
L 239.910851 26.336841 
L 240.992693 17.832653 
L 241.647262 13.812466 
L 242.221533 11.006459 
L 242.795804 8.886918 
L 243.370075 7.462836 
L 243.944346 6.740255 
L 244.460485 6.691987 
L 244.976623 7.213064 
L 245.492761 8.301702 
L 246.0089 9.954168 
L 246.525038 12.164799 
L 247.557315 18.228358 
L 248.679166 27.21558 
L 250.030215 41.148735 
L 251.520888 60.088124 
L 252.914734 80.718431 
L 254.860265 113.231226 
L 258.147965 173.8476 
L 261.919587 242.696268 
L 263.691634 271.388138 
L 265.027733 290.452713 
L 266.247223 305.508387 
L 267.346009 316.90911 
L 268.32409 325.180775 
L 269.29148 331.518731 
L 270.24818 335.908631 
L 270.72653 337.386122 
L 271.20488 338.379035 
L 271.68323 338.884447 
L 272.16158 338.90087 
L 272.639929 338.428255 
L 273.152821 337.379842 
L 273.665713 335.774383 
L 274.292371 333.064796 
L 274.919029 329.545551 
L 276.172344 320.153206 
L 277.592332 305.93103 
L 279.036755 287.929755 
L 280.560481 265.607809 
L 282.644983 230.736364 
L 284.356794 199.595029 
L 289.553157 103.9067 
L 291.695598 69.5427 
L 293.215263 48.741885 
L 294.595001 33.027678 
L 295.514826 24.429763 
L 296.434651 17.445984 
L 296.894563 14.583849 
L 297.5661 11.179998 
L 298.599772 7.778108 
L 298.961907 7.120986 
L 299.324041 6.743455 
L 299.686176 6.646154 
L 300.048311 6.829245 
L 300.410446 7.292421 
L 300.772581 8.034899 
L 301.134715 9.055427 
L 301.667668 11.059307 
L 302.20062 13.65426 
L 303.266525 20.577326 
L 304.432408 30.690918 
L 305.403486 41.018385 
L 306.860103 59.460834 
L 308.491359 83.752753 
L 310.471894 117.245257 
L 313.719761 177.375346 
L 317.131776 239.734475 
L 319.243194 273.903347 
L 320.79651 295.452608 
L 322.328891 312.991561 
L 323.651877 324.75058 
L 324.464068 330.290725 
L 325.27626 334.494736 
L 326.088451 337.326946 
L 326.667217 338.49438 
L 327.245983 338.94774 
L 327.632458 338.851763 
L 328.018933 338.436631 
L 328.405408 337.703141 
L 329.178358 335.287339 
L 329.951308 331.622919 
L 330.886256 325.562882 
L 331.983201 316.269944 
L 333.120008 304.300079 
L 334.296676 289.61292 
L 336.079867 263.489892 
L 338.138066 228.815764 
L 341.995339 157.249331 
L 345.355001 96.829741 
L 347.308017 66.213337 
L 348.8578 45.561211 
L 350.092767 31.885949 
L 351.327733 20.972099 
L 352.361322 14.117771 
L 352.983254 11.038745 
L 353.5773 8.849207 
L 354.171346 7.404002 
L 354.765392 6.709689 
L 355.359438 6.769422 
L 355.889094 7.45841 
L 356.418749 8.74418 
L 356.948405 10.622092 
L 357.842353 15.114811 
L 358.206647 17.413537 
L 358.935233 22.802683 
L 360.392406 36.609719 
L 361.588786 50.741631 
L 363.276217 74.421446 
L 364.749368 98.066206 
L 366.29221 125.050157 
L 373.425518 255.035727 
L 375.377692 284.741202 
L 376.841822 303.501758 
L 377.661822 312.466241 
L 379.025134 324.66384 
L 379.70679 329.417975 
L 380.768919 334.951248 
L 381.529867 337.473002 
L 381.910341 338.274781 
L 382.290815 338.768313 
L 382.671289 338.952677 
L 383.051762 338.827532 
L 383.432236 338.393109 
L 384.032368 337.081395 
L 384.632499 335.008481 
L 385.257683 332.049904 
L 385.882866 328.290575 
L 387.133233 318.449205 
L 388.069735 309.1488 
L 389.470208 292.408718 
L 390.862125 272.784589 
L 392.718015 242.842478 
L 395.104418 199.996899 
L 400.388807 102.769364 
L 402.062303 75.592801 
L 403.627096 53.324241 
L 404.879787 38.173866 
L 406.132479 25.737821 
L 407.236273 17.230467 
L 408.340067 11.159299 
L 409.221806 8.124889 
L 409.704507 7.159795 
L 410.187208 6.691284 
L 410.669909 6.720759 
L 411.152611 7.248133 
L 411.635312 8.271825 
L 412.118013 9.788764 
L 413.044665 14.065327 
L 413.932568 19.808064 
L 414.986538 28.632402 
L 416.421921 43.931752 
L 417.247284 54.302847 
L 418.89801 78.059504 
L 420.263374 100.252539 
L 422.113332 132.986455 
L 428.034416 242.02837 
L 429.437112 265.08844 
L 431.151966 290.057902 
L 432.438107 305.927302 
L 433.711575 318.853787 
L 434.55633 325.763815 
L 435.480415 331.713118 
L 436.404501 335.917515 
L 436.887577 337.404672 
L 437.370654 338.397573 
L 437.85373 338.893239 
L 438.336807 338.890181 
L 438.742054 338.502907 
L 439.1473 337.765465 
L 439.552547 336.679412 
L 440.36304 333.471386 
L 441.173533 328.905932 
L 442.212861 321.128066 
L 443.481025 308.860827 
L 444.892336 291.916835 
L 446.403464 270.409474 
L 447.906482 246.17763 
L 450.673981 196.551973 
L 451.938462 172.798483 
L 451.938462 172.798483 
" clip-path="url(#pb104f11ffe)" style="fill: none; stroke: #0000ff; stroke-linecap: square"/>
   </g>
   <g id="patch_3">
    <path d="M 230.4 345.6 
L 230.4 0 
" style="fill: none; stroke: #000000; stroke-width: 0.8; stroke-linejoin: miter; stroke-linecap: square"/>
   </g>
   <g id="patch_4">
    <path d="M 0 172.798483 
L 460.8 172.798483 
" style="fill: none; stroke: #000000; stroke-width: 0.8; stroke-linejoin: miter; stroke-linecap: square"/>
   </g>
  </g>
 </g>
 <defs>
  <clipPath id="pb104f11ffe">
   <rect x="0" y="0" width="460.8" height="345.6"/>
  </clipPath>
 </defs>
</svg>
