<?xml version="1.0" encoding="utf-8" standalone="no"?>
<!DOCTYPE svg PUBLIC "-//W3C//DTD SVG 1.1//EN"
  "http://www.w3.org/Graphics/SVG/1.1/DTD/svg11.dtd">
<svg xmlns:xlink="http://www.w3.org/1999/xlink" width="460.8pt" height="345.6pt" viewBox="0 0 460.8 345.6" xmlns="http://www.w3.org/2000/svg" version="1.1">
 <metadata>
  <rdf:RDF xmlns:dc="http://purl.org/dc/elements/1.1/" xmlns:cc="http://creativecommons.org/ns#" xmlns:rdf="http://www.w3.org/1999/02/22-rdf-syntax-ns#">
   <cc:Work>
    <dc:type rdf:resource="http://purl.org/dc/dcmitype/StillImage"/>
    <dc:date>2024-07-23T14:25:05.216613</dc:date>
    <dc:format>image/svg+xml</dc:format>
    <dc:creator>
     <cc:Agent>
      <dc:title>Matplotlib v3.8.0, https://matplotlib.org/</dc:title>
     </cc:Agent>
    </dc:creator>
   </cc:Work>
  </rdf:RDF>
 </metadata>
 <defs>
  <style type="text/css">*{stroke-linejoin: round; stroke-linecap: butt}</style>
 </defs>
 <g id="figure_1">
  <g id="patch_1">
   <path d="M 0 345.6 
L 460.8 345.6 
L 460.8 0 
L 0 0 
z
" style="fill: #ffffff"/>
  </g>
  <g id="axes_1">
   <g id="patch_2">
    <path d="M 14.813839 268.437348 
L 460.8 268.437348 
L 460.8 77.162652 
L 14.813839 77.162652 
z
" style="fill: #ffffff"/>
   </g>
   <g id="matplotlib.axis_1">
    <g id="xtick_1">
     <g id="line2d_1">
      <defs>
       <path id="m10d0a9d355" d="M 0 0 
L 0 3.5 
" style="stroke: #000000; stroke-width: 0.8"/>
      </defs>
      <g>
       <use xlink:href="#m10d0a9d355" x="23.390496" y="264.758988" style="stroke: #000000; stroke-width: 0.8"/>
      </g>
     </g>
    </g>
    <g id="xtick_2">
     <g id="line2d_2">
      <g>
       <use xlink:href="#m10d0a9d355" x="130.598708" y="264.758988" style="stroke: #000000; stroke-width: 0.8"/>
      </g>
     </g>
     <g id="text_1">
      <!-- 0.5 -->
      <g transform="translate(122.647145 279.357426) scale(0.1 -0.1)">
       <defs>
        <path id="DejaVuSans-30" d="M 2034 4250 
Q 1547 4250 1301 3770 
Q 1056 3291 1056 2328 
Q 1056 1369 1301 889 
Q 1547 409 2034 409 
Q 2525 409 2770 889 
Q 3016 1369 3016 2328 
Q 3016 3291 2770 3770 
Q 2525 4250 2034 4250 
z
M 2034 4750 
Q 2819 4750 3233 4129 
Q 3647 3509 3647 2328 
Q 3647 1150 3233 529 
Q 2819 -91 2034 -91 
Q 1250 -91 836 529 
Q 422 1150 422 2328 
Q 422 3509 836 4129 
Q 1250 4750 2034 4750 
z
" transform="scale(0.015625)"/>
        <path id="DejaVuSans-2e" d="M 684 794 
L 1344 794 
L 1344 0 
L 684 0 
L 684 794 
z
" transform="scale(0.015625)"/>
        <path id="DejaVuSans-35" d="M 691 4666 
L 3169 4666 
L 3169 4134 
L 1269 4134 
L 1269 2991 
Q 1406 3038 1543 3061 
Q 1681 3084 1819 3084 
Q 2600 3084 3056 2656 
Q 3513 2228 3513 1497 
Q 3513 744 3044 326 
Q 2575 -91 1722 -91 
Q 1428 -91 1123 -41 
Q 819 9 494 109 
L 494 744 
Q 775 591 1075 516 
Q 1375 441 1709 441 
Q 2250 441 2565 725 
Q 2881 1009 2881 1497 
Q 2881 1984 2565 2268 
Q 2250 2553 1709 2553 
Q 1456 2553 1204 2497 
Q 953 2441 691 2322 
L 691 4666 
z
" transform="scale(0.015625)"/>
       </defs>
       <use xlink:href="#DejaVuSans-30"/>
       <use xlink:href="#DejaVuSans-2e" x="63.623047"/>
       <use xlink:href="#DejaVuSans-35" x="95.410156"/>
      </g>
     </g>
    </g>
    <g id="xtick_3">
     <g id="line2d_3">
      <g>
       <use xlink:href="#m10d0a9d355" x="237.806919" y="264.758988" style="stroke: #000000; stroke-width: 0.8"/>
      </g>
     </g>
     <g id="text_2">
      <!-- 1.0 -->
      <g transform="translate(229.855357 279.357426) scale(0.1 -0.1)">
       <defs>
        <path id="DejaVuSans-31" d="M 794 531 
L 1825 531 
L 1825 4091 
L 703 3866 
L 703 4441 
L 1819 4666 
L 2450 4666 
L 2450 531 
L 3481 531 
L 3481 0 
L 794 0 
L 794 531 
z
" transform="scale(0.015625)"/>
       </defs>
       <use xlink:href="#DejaVuSans-31"/>
       <use xlink:href="#DejaVuSans-2e" x="63.623047"/>
       <use xlink:href="#DejaVuSans-30" x="95.410156"/>
      </g>
     </g>
    </g>
    <g id="xtick_4">
     <g id="line2d_4">
      <g>
       <use xlink:href="#m10d0a9d355" x="345.015131" y="264.758988" style="stroke: #000000; stroke-width: 0.8"/>
      </g>
     </g>
     <g id="text_3">
      <!-- 1.5 -->
      <g transform="translate(337.063569 279.357426) scale(0.1 -0.1)">
       <use xlink:href="#DejaVuSans-31"/>
       <use xlink:href="#DejaVuSans-2e" x="63.623047"/>
       <use xlink:href="#DejaVuSans-35" x="95.410156"/>
      </g>
     </g>
    </g>
    <g id="xtick_5">
     <g id="line2d_5">
      <g>
       <use xlink:href="#m10d0a9d355" x="452.223343" y="264.758988" style="stroke: #000000; stroke-width: 0.8"/>
      </g>
     </g>
     <g id="text_4">
      <!-- 2.0 -->
      <g transform="translate(444.271781 279.357426) scale(0.1 -0.1)">
       <defs>
        <path id="DejaVuSans-32" d="M 1228 531 
L 3431 531 
L 3431 0 
L 469 0 
L 469 531 
Q 828 903 1448 1529 
Q 2069 2156 2228 2338 
Q 2531 2678 2651 2914 
Q 2772 3150 2772 3378 
Q 2772 3750 2511 3984 
Q 2250 4219 1831 4219 
Q 1534 4219 1204 4116 
Q 875 4013 500 3803 
L 500 4441 
Q 881 4594 1212 4672 
Q 1544 4750 1819 4750 
Q 2544 4750 2975 4387 
Q 3406 4025 3406 3419 
Q 3406 3131 3298 2873 
Q 3191 2616 2906 2266 
Q 2828 2175 2409 1742 
Q 1991 1309 1228 531 
z
" transform="scale(0.015625)"/>
       </defs>
       <use xlink:href="#DejaVuSans-32"/>
       <use xlink:href="#DejaVuSans-2e" x="63.623047"/>
       <use xlink:href="#DejaVuSans-30" x="95.410156"/>
      </g>
     </g>
    </g>
    <g id="xtick_6">
     <g id="line2d_6">
      <defs>
       <path id="m0251995b3d" d="M 0 0 
L 0 2 
" style="stroke: #000000; stroke-width: 0.6"/>
      </defs>
      <g>
       <use xlink:href="#m0251995b3d" x="44.832138" y="264.758988" style="stroke: #000000; stroke-width: 0.6"/>
      </g>
     </g>
    </g>
    <g id="xtick_7">
     <g id="line2d_7">
      <g>
       <use xlink:href="#m0251995b3d" x="66.27378" y="264.758988" style="stroke: #000000; stroke-width: 0.6"/>
      </g>
     </g>
    </g>
    <g id="xtick_8">
     <g id="line2d_8">
      <g>
       <use xlink:href="#m0251995b3d" x="87.715423" y="264.758988" style="stroke: #000000; stroke-width: 0.6"/>
      </g>
     </g>
    </g>
    <g id="xtick_9">
     <g id="line2d_9">
      <g>
       <use xlink:href="#m0251995b3d" x="109.157065" y="264.758988" style="stroke: #000000; stroke-width: 0.6"/>
      </g>
     </g>
    </g>
    <g id="xtick_10">
     <g id="line2d_10">
      <g>
       <use xlink:href="#m0251995b3d" x="152.04035" y="264.758988" style="stroke: #000000; stroke-width: 0.6"/>
      </g>
     </g>
    </g>
    <g id="xtick_11">
     <g id="line2d_11">
      <g>
       <use xlink:href="#m0251995b3d" x="173.481992" y="264.758988" style="stroke: #000000; stroke-width: 0.6"/>
      </g>
     </g>
    </g>
    <g id="xtick_12">
     <g id="line2d_12">
      <g>
       <use xlink:href="#m0251995b3d" x="194.923635" y="264.758988" style="stroke: #000000; stroke-width: 0.6"/>
      </g>
     </g>
    </g>
    <g id="xtick_13">
     <g id="line2d_13">
      <g>
       <use xlink:href="#m0251995b3d" x="216.365277" y="264.758988" style="stroke: #000000; stroke-width: 0.6"/>
      </g>
     </g>
    </g>
    <g id="xtick_14">
     <g id="line2d_14">
      <g>
       <use xlink:href="#m0251995b3d" x="259.248562" y="264.758988" style="stroke: #000000; stroke-width: 0.6"/>
      </g>
     </g>
    </g>
    <g id="xtick_15">
     <g id="line2d_15">
      <g>
       <use xlink:href="#m0251995b3d" x="280.690204" y="264.758988" style="stroke: #000000; stroke-width: 0.6"/>
      </g>
     </g>
    </g>
    <g id="xtick_16">
     <g id="line2d_16">
      <g>
       <use xlink:href="#m0251995b3d" x="302.131846" y="264.758988" style="stroke: #000000; stroke-width: 0.6"/>
      </g>
     </g>
    </g>
    <g id="xtick_17">
     <g id="line2d_17">
      <g>
       <use xlink:href="#m0251995b3d" x="323.573489" y="264.758988" style="stroke: #000000; stroke-width: 0.6"/>
      </g>
     </g>
    </g>
    <g id="xtick_18">
     <g id="line2d_18">
      <g>
       <use xlink:href="#m0251995b3d" x="366.456774" y="264.758988" style="stroke: #000000; stroke-width: 0.6"/>
      </g>
     </g>
    </g>
    <g id="xtick_19">
     <g id="line2d_19">
      <g>
       <use xlink:href="#m0251995b3d" x="387.898416" y="264.758988" style="stroke: #000000; stroke-width: 0.6"/>
      </g>
     </g>
    </g>
    <g id="xtick_20">
     <g id="line2d_20">
      <g>
       <use xlink:href="#m0251995b3d" x="409.340058" y="264.758988" style="stroke: #000000; stroke-width: 0.6"/>
      </g>
     </g>
    </g>
    <g id="xtick_21">
     <g id="line2d_21">
      <g>
       <use xlink:href="#m0251995b3d" x="430.781701" y="264.758988" style="stroke: #000000; stroke-width: 0.6"/>
      </g>
     </g>
    </g>
   </g>
   <g id="matplotlib.axis_2">
    <g id="ytick_1">
     <g id="line2d_22">
      <defs>
       <path id="mf8c3874d2f" d="M 0 0 
L -3.5 0 
" style="stroke: #000000; stroke-width: 0.8"/>
      </defs>
      <g>
       <use xlink:href="#mf8c3874d2f" x="23.390496" y="264.758988" style="stroke: #000000; stroke-width: 0.8"/>
      </g>
     </g>
    </g>
    <g id="ytick_2">
     <g id="line2d_23">
      <g>
       <use xlink:href="#mf8c3874d2f" x="23.390496" y="230.452361" style="stroke: #000000; stroke-width: 0.8"/>
      </g>
     </g>
     <g id="text_5">
      <!-- 0.2 -->
      <g transform="translate(0.487371 234.251579) scale(0.1 -0.1)">
       <use xlink:href="#DejaVuSans-30"/>
       <use xlink:href="#DejaVuSans-2e" x="63.623047"/>
       <use xlink:href="#DejaVuSans-32" x="95.410156"/>
      </g>
     </g>
    </g>
    <g id="ytick_3">
     <g id="line2d_24">
      <g>
       <use xlink:href="#mf8c3874d2f" x="23.390496" y="196.145733" style="stroke: #000000; stroke-width: 0.8"/>
      </g>
     </g>
     <g id="text_6">
      <!-- 0.4 -->
      <g transform="translate(0.487371 199.944952) scale(0.1 -0.1)">
       <defs>
        <path id="DejaVuSans-34" d="M 2419 4116 
L 825 1625 
L 2419 1625 
L 2419 4116 
z
M 2253 4666 
L 3047 4666 
L 3047 1625 
L 3713 1625 
L 3713 1100 
L 3047 1100 
L 3047 0 
L 2419 0 
L 2419 1100 
L 313 1100 
L 313 1709 
L 2253 4666 
z
" transform="scale(0.015625)"/>
       </defs>
       <use xlink:href="#DejaVuSans-30"/>
       <use xlink:href="#DejaVuSans-2e" x="63.623047"/>
       <use xlink:href="#DejaVuSans-34" x="95.410156"/>
      </g>
     </g>
    </g>
    <g id="ytick_4">
     <g id="line2d_25">
      <g>
       <use xlink:href="#mf8c3874d2f" x="23.390496" y="161.839105" style="stroke: #000000; stroke-width: 0.8"/>
      </g>
     </g>
     <g id="text_7">
      <!-- 0.6 -->
      <g transform="translate(0.487371 165.638324) scale(0.1 -0.1)">
       <defs>
        <path id="DejaVuSans-36" d="M 2113 2584 
Q 1688 2584 1439 2293 
Q 1191 2003 1191 1497 
Q 1191 994 1439 701 
Q 1688 409 2113 409 
Q 2538 409 2786 701 
Q 3034 994 3034 1497 
Q 3034 2003 2786 2293 
Q 2538 2584 2113 2584 
z
M 3366 4563 
L 3366 3988 
Q 3128 4100 2886 4159 
Q 2644 4219 2406 4219 
Q 1781 4219 1451 3797 
Q 1122 3375 1075 2522 
Q 1259 2794 1537 2939 
Q 1816 3084 2150 3084 
Q 2853 3084 3261 2657 
Q 3669 2231 3669 1497 
Q 3669 778 3244 343 
Q 2819 -91 2113 -91 
Q 1303 -91 875 529 
Q 447 1150 447 2328 
Q 447 3434 972 4092 
Q 1497 4750 2381 4750 
Q 2619 4750 2861 4703 
Q 3103 4656 3366 4563 
z
" transform="scale(0.015625)"/>
       </defs>
       <use xlink:href="#DejaVuSans-30"/>
       <use xlink:href="#DejaVuSans-2e" x="63.623047"/>
       <use xlink:href="#DejaVuSans-36" x="95.410156"/>
      </g>
     </g>
    </g>
    <g id="ytick_5">
     <g id="line2d_26">
      <g>
       <use xlink:href="#mf8c3874d2f" x="23.390496" y="127.532477" style="stroke: #000000; stroke-width: 0.8"/>
      </g>
     </g>
     <g id="text_8">
      <!-- 0.8 -->
      <g transform="translate(0.487371 131.331696) scale(0.1 -0.1)">
       <defs>
        <path id="DejaVuSans-38" d="M 2034 2216 
Q 1584 2216 1326 1975 
Q 1069 1734 1069 1313 
Q 1069 891 1326 650 
Q 1584 409 2034 409 
Q 2484 409 2743 651 
Q 3003 894 3003 1313 
Q 3003 1734 2745 1975 
Q 2488 2216 2034 2216 
z
M 1403 2484 
Q 997 2584 770 2862 
Q 544 3141 544 3541 
Q 544 4100 942 4425 
Q 1341 4750 2034 4750 
Q 2731 4750 3128 4425 
Q 3525 4100 3525 3541 
Q 3525 3141 3298 2862 
Q 3072 2584 2669 2484 
Q 3125 2378 3379 2068 
Q 3634 1759 3634 1313 
Q 3634 634 3220 271 
Q 2806 -91 2034 -91 
Q 1263 -91 848 271 
Q 434 634 434 1313 
Q 434 1759 690 2068 
Q 947 2378 1403 2484 
z
M 1172 3481 
Q 1172 3119 1398 2916 
Q 1625 2713 2034 2713 
Q 2441 2713 2670 2916 
Q 2900 3119 2900 3481 
Q 2900 3844 2670 4047 
Q 2441 4250 2034 4250 
Q 1625 4250 1398 4047 
Q 1172 3844 1172 3481 
z
" transform="scale(0.015625)"/>
       </defs>
       <use xlink:href="#DejaVuSans-30"/>
       <use xlink:href="#DejaVuSans-2e" x="63.623047"/>
       <use xlink:href="#DejaVuSans-38" x="95.410156"/>
      </g>
     </g>
    </g>
    <g id="ytick_6">
     <g id="line2d_27">
      <g>
       <use xlink:href="#mf8c3874d2f" x="23.390496" y="93.225849" style="stroke: #000000; stroke-width: 0.8"/>
      </g>
     </g>
     <g id="text_9">
      <!-- 1.0 -->
      <g transform="translate(0.487371 97.025068) scale(0.1 -0.1)">
       <use xlink:href="#DejaVuSans-31"/>
       <use xlink:href="#DejaVuSans-2e" x="63.623047"/>
       <use xlink:href="#DejaVuSans-30" x="95.410156"/>
      </g>
     </g>
    </g>
    <g id="ytick_7">
     <g id="line2d_28">
      <defs>
       <path id="mcce89fe39a" d="M 0 0 
L -2 0 
" style="stroke: #000000; stroke-width: 0.6"/>
      </defs>
      <g>
       <use xlink:href="#mcce89fe39a" x="23.390496" y="256.182331" style="stroke: #000000; stroke-width: 0.6"/>
      </g>
     </g>
    </g>
    <g id="ytick_8">
     <g id="line2d_29">
      <g>
       <use xlink:href="#mcce89fe39a" x="23.390496" y="247.605675" style="stroke: #000000; stroke-width: 0.6"/>
      </g>
     </g>
    </g>
    <g id="ytick_9">
     <g id="line2d_30">
      <g>
       <use xlink:href="#mcce89fe39a" x="23.390496" y="239.029018" style="stroke: #000000; stroke-width: 0.6"/>
      </g>
     </g>
    </g>
    <g id="ytick_10">
     <g id="line2d_31">
      <g>
       <use xlink:href="#mcce89fe39a" x="23.390496" y="221.875704" style="stroke: #000000; stroke-width: 0.6"/>
      </g>
     </g>
    </g>
    <g id="ytick_11">
     <g id="line2d_32">
      <g>
       <use xlink:href="#mcce89fe39a" x="23.390496" y="213.299047" style="stroke: #000000; stroke-width: 0.6"/>
      </g>
     </g>
    </g>
    <g id="ytick_12">
     <g id="line2d_33">
      <g>
       <use xlink:href="#mcce89fe39a" x="23.390496" y="204.72239" style="stroke: #000000; stroke-width: 0.6"/>
      </g>
     </g>
    </g>
    <g id="ytick_13">
     <g id="line2d_34">
      <g>
       <use xlink:href="#mcce89fe39a" x="23.390496" y="187.569076" style="stroke: #000000; stroke-width: 0.6"/>
      </g>
     </g>
    </g>
    <g id="ytick_14">
     <g id="line2d_35">
      <g>
       <use xlink:href="#mcce89fe39a" x="23.390496" y="178.992419" style="stroke: #000000; stroke-width: 0.6"/>
      </g>
     </g>
    </g>
    <g id="ytick_15">
     <g id="line2d_36">
      <g>
       <use xlink:href="#mcce89fe39a" x="23.390496" y="170.415762" style="stroke: #000000; stroke-width: 0.6"/>
      </g>
     </g>
    </g>
    <g id="ytick_16">
     <g id="line2d_37">
      <g>
       <use xlink:href="#mcce89fe39a" x="23.390496" y="153.262448" style="stroke: #000000; stroke-width: 0.6"/>
      </g>
     </g>
    </g>
    <g id="ytick_17">
     <g id="line2d_38">
      <g>
       <use xlink:href="#mcce89fe39a" x="23.390496" y="144.685791" style="stroke: #000000; stroke-width: 0.6"/>
      </g>
     </g>
    </g>
    <g id="ytick_18">
     <g id="line2d_39">
      <g>
       <use xlink:href="#mcce89fe39a" x="23.390496" y="136.109134" style="stroke: #000000; stroke-width: 0.6"/>
      </g>
     </g>
    </g>
    <g id="ytick_19">
     <g id="line2d_40">
      <g>
       <use xlink:href="#mcce89fe39a" x="23.390496" y="118.95582" style="stroke: #000000; stroke-width: 0.6"/>
      </g>
     </g>
    </g>
    <g id="ytick_20">
     <g id="line2d_41">
      <g>
       <use xlink:href="#mcce89fe39a" x="23.390496" y="110.379163" style="stroke: #000000; stroke-width: 0.6"/>
      </g>
     </g>
    </g>
    <g id="ytick_21">
     <g id="line2d_42">
      <g>
       <use xlink:href="#mcce89fe39a" x="23.390496" y="101.802506" style="stroke: #000000; stroke-width: 0.6"/>
      </g>
     </g>
    </g>
    <g id="ytick_22">
     <g id="line2d_43">
      <g>
       <use xlink:href="#mcce89fe39a" x="23.390496" y="84.649193" style="stroke: #000000; stroke-width: 0.6"/>
      </g>
     </g>
    </g>
   </g>
   <g id="line2d_44">
    <path d="M 23.390496 264.758988 
L 40.828776 230.112355 
L 48.179212 215.839786 
L 57.649099 197.968777 
L 64.844388 184.89292 
L 72.251382 171.982264 
L 76.849242 164.285294 
L 83.847757 153.085274 
L 89.370709 144.720731 
L 94.85468 136.857901 
L 99.603483 130.423706 
L 103.337281 125.618289 
L 107.054196 121.062678 
L 112.441548 114.874073 
L 117.301484 109.721881 
L 120.537711 106.521713 
L 125.83377 101.68804 
L 129.673561 98.499584 
L 134.282488 95.025719 
L 137.823099 92.619573 
L 142.047824 90.046957 
L 145.510085 88.180123 
L 149.63341 86.239146 
L 153.85667 84.566759 
L 157.938002 83.250713 
L 161.515137 82.336648 
L 164.839559 81.684759 
L 167.712661 81.272463 
L 171.384827 80.946048 
L 175.29908 80.841012 
L 177.841773 80.904266 
L 181.779087 81.20174 
L 185.244067 81.659197 
L 190.028588 82.582171 
L 194.841806 83.838622 
L 197.849785 84.784145 
L 201.797081 86.204422 
L 207.297582 88.507551 
L 210.536341 90.031142 
L 217.367565 93.624249 
L 221.328178 95.927564 
L 228.305427 100.342138 
L 231.965112 102.824473 
L 239.631214 108.353699 
L 244.625973 112.168513 
L 251.092746 117.319005 
L 260.886495 125.486308 
L 270.610487 133.910531 
L 287.656221 149.050384 
L 305.874593 165.167128 
L 316.771436 174.522067 
L 326.434631 182.531901 
L 335.678028 189.884369 
L 344.096713 196.281549 
L 352.666651 202.474368 
L 360.89468 208.099349 
L 368.02205 212.708757 
L 373.927143 216.339176 
L 381.52069 220.754546 
L 386.539943 223.516756 
L 395.140501 227.962947 
L 404.069289 232.201942 
L 411.349396 235.381682 
L 417.153216 237.744135 
L 423.829754 240.278802 
L 431.102973 242.825527 
L 440.002072 245.652193 
L 448.106097 247.965241 
L 452.223343 249.050293 
L 452.223343 249.050293 
" clip-path="url(#p377051432f)" style="fill: none; stroke: #0000cc; stroke-linecap: square"/>
   </g>
   <g id="line2d_45">
    <path d="M 23.390496 264.758988 
L 36.404219 238.922593 
L 44.390909 223.556282 
L 50.525904 212.199037 
L 55.47412 203.401742 
L 61.372277 193.416187 
L 66.550285 185.158403 
L 71.450095 177.828368 
L 76.198972 171.208429 
L 80.680255 165.42489 
L 84.594431 160.757851 
L 88.053751 156.941289 
L 92.589553 152.38613 
L 95.664961 149.592518 
L 100.124075 145.970771 
L 103.122109 143.822866 
L 106.744166 141.536462 
L 109.481536 140.032068 
L 113.070425 138.349567 
L 116.323263 137.106142 
L 119.453137 136.159151 
L 123.616064 135.271915 
L 126.11404 134.939495 
L 129.763139 134.716774 
L 133.385777 134.795969 
L 137.377405 135.217326 
L 140.039488 135.685877 
L 143.619358 136.542902 
L 147.836404 137.870964 
L 152.542076 139.734818 
L 156.279438 141.482419 
L 160.874043 143.92958 
L 165.100445 146.446942 
L 170.416781 149.93763 
L 175.285006 153.412483 
L 180.686268 157.532986 
L 187.648197 163.177496 
L 194.783269 169.252039 
L 206.825703 179.880816 
L 224.929913 195.89434 
L 233.737748 203.378122 
L 242.426898 210.418502 
L 250.017908 216.229656 
L 257.635013 221.702593 
L 264.458298 226.279065 
L 271.891767 230.900412 
L 278.613646 234.747375 
L 284.180045 237.694937 
L 290.748985 240.900103 
L 296.036582 243.27029 
L 302.155511 245.787401 
L 308.754768 248.242036 
L 314.548517 250.185867 
L 322.04797 252.427132 
L 329.708362 254.420163 
L 336.52166 255.962933 
L 344.79189 257.573362 
L 352.210441 258.799054 
L 360.658147 259.973245 
L 371.087604 261.143153 
L 382.2622 262.111856 
L 393.479671 262.846257 
L 406.684555 263.473918 
L 422.493278 263.977722 
L 441.94316 264.348779 
L 452.223343 264.471274 
L 452.223343 264.471274 
" clip-path="url(#p377051432f)" style="fill: none; stroke: #3ccc00; stroke-linecap: square"/>
   </g>
   <g id="line2d_46">
    <path d="M 23.390496 264.758988 
L 33.581 244.515622 
L 42.262468 227.882106 
L 47.982617 217.477934 
L 53.282833 208.360532 
L 58.247886 200.358151 
L 62.917942 193.366774 
L 65.856445 189.255864 
L 70.217759 183.590677 
L 74.257179 178.830395 
L 78.204877 174.648422 
L 81.164498 171.825882 
L 84.497436 168.97347 
L 87.519867 166.688271 
L 89.918884 165.079361 
L 92.935241 163.313676 
L 96.148114 161.746609 
L 98.821005 160.687195 
L 101.845297 159.752394 
L 105.484015 158.991944 
L 107.940594 158.698346 
L 110.792481 158.573744 
L 113.064301 158.636357 
L 117.196334 159.104733 
L 119.581024 159.575061 
L 123.328079 160.5946 
L 126.238876 161.611166 
L 129.579426 163.004748 
L 132.830584 164.578627 
L 137.204355 167.006224 
L 142.744178 170.534536 
L 146.382432 173.091099 
L 152.32126 177.602853 
L 159.184986 183.226451 
L 166.079379 189.175281 
L 193.404786 213.192057 
L 199.485777 218.201653 
L 206.61609 223.77453 
L 213.440071 228.758085 
L 216.874149 231.125994 
L 222.73173 234.93886 
L 229.055026 238.727705 
L 234.22153 241.569593 
L 238.997103 243.995306 
L 245.216248 246.871128 
L 251.979234 249.648603 
L 257.735833 251.740672 
L 264.884676 254.014067 
L 268.403867 255.00985 
L 274.643721 256.590689 
L 281.818085 258.140904 
L 288.276561 259.318084 
L 296.184097 260.51323 
L 304.309584 261.499132 
L 312.397364 262.276444 
L 322.542 263.018027 
L 334.043963 263.615048 
L 349.014323 264.114963 
L 365.543499 264.42968 
L 390.047011 264.645373 
L 432.362152 264.744103 
L 452.223343 264.753719 
L 452.223343 264.753719 
" clip-path="url(#p377051432f)" style="fill: none; stroke: #cc0077; stroke-linecap: square"/>
   </g>
   <g id="line2d_47">
    <path d="M 23.390496 264.758988 
L 33.661617 244.404433 
L 40.633761 231.153156 
L 45.974125 221.552176 
L 49.537148 215.485428 
L 53.020119 209.857584 
L 55.74694 205.680228 
L 59.342958 200.50242 
L 63.031255 195.608413 
L 67.249772 190.558734 
L 70.059412 187.533479 
L 73.089462 184.582506 
L 76.154361 181.932343 
L 78.790923 179.924828 
L 81.293687 178.253202 
L 83.970192 176.717551 
L 87.065947 175.264299 
L 90.07858 174.178723 
L 92.799742 173.471978 
L 95.267825 173.050945 
L 97.960037 172.824318 
L 100.379541 172.821872 
L 103.66645 173.112598 
L 105.892322 173.494291 
L 108.637241 174.161039 
L 111.217752 174.976007 
L 114.97236 176.467002 
L 118.428026 178.134811 
L 121.86909 180.051027 
L 125.973443 182.633926 
L 129.622801 185.168198 
L 132.745205 187.489466 
L 137.291095 191.079229 
L 142.991114 195.85185 
L 152.78763 204.46358 
L 166.208664 216.331034 
L 173.880978 222.803355 
L 180.958765 228.420831 
L 186.444223 232.491227 
L 193.436647 237.280349 
L 198.11877 240.223486 
L 203.364397 243.264072 
L 209.426443 246.440685 
L 212.823809 248.065582 
L 218.996079 250.741521 
L 223.887363 252.619849 
L 230.21688 254.752803 
L 235.672083 256.34146 
L 240.070289 257.467742 
L 248.420924 259.265483 
L 253.588651 260.179476 
L 261.096939 261.275529 
L 268.433071 262.120272 
L 278.968891 263.019682 
L 289.901824 263.655196 
L 301.908357 264.106221 
L 318.386583 264.455161 
L 340.892356 264.660431 
L 381.012497 264.748471 
L 452.223343 264.758892 
L 452.223343 264.758892 
" clip-path="url(#p377051432f)" style="fill: none; stroke: #00b3cc; stroke-linecap: square"/>
   </g>
   <g id="line2d_48">
    <path d="M 23.390496 264.758988 
L 33.332966 245.086682 
L 38.369388 235.523367 
L 43.850968 225.659345 
L 47.323869 219.783178 
L 50.548651 214.629482 
L 53.945765 209.548833 
L 56.944872 205.384401 
L 59.941377 201.542963 
L 62.627379 198.383312 
L 65.592741 195.217561 
L 68.70824 192.265734 
L 71.505158 189.948256 
L 74.647854 187.72325 
L 78.145272 185.719192 
L 81.072014 184.421603 
L 84.036507 183.454395 
L 86.089285 182.985443 
L 88.343966 182.655447 
L 91.285871 182.508209 
L 94.703865 182.724399 
L 96.92076 183.0771 
L 99.904657 183.801915 
L 102.48242 184.646625 
L 106.274316 186.230476 
L 109.187082 187.700376 
L 112.829615 189.816124 
L 115.840108 191.772125 
L 120.373583 195.020402 
L 124.28544 198.065186 
L 131.376723 203.998336 
L 140.076166 211.67601 
L 151.826325 222.043541 
L 158.542571 227.681926 
L 164.635881 232.495632 
L 171.28087 237.347806 
L 177.33154 241.366148 
L 182.954125 244.74167 
L 186.328501 246.599888 
L 192.93013 249.87657 
L 198.480165 252.275915 
L 203.351663 254.128687 
L 209.538449 256.16406 
L 213.137312 257.196529 
L 216.538943 258.077683 
L 222.842022 259.487573 
L 229.874182 260.758192 
L 236.15285 261.662811 
L 244.475474 262.586554 
L 252.641888 263.24892 
L 261.40334 263.754556 
L 273.955464 264.216263 
L 290.111984 264.526194 
L 314.528041 264.701222 
L 364.397449 264.756794 
L 452.223343 264.758987 
L 452.223343 264.758987 
" clip-path="url(#p377051432f)" style="fill: none; stroke: #ccaa00; stroke-linecap: square"/>
   </g>
   <g id="patch_3">
    <path d="M 23.390496 268.437348 
L 23.390496 77.162652 
" style="fill: none; stroke: #000000; stroke-width: 0.8; stroke-linejoin: miter; stroke-linecap: square"/>
   </g>
   <g id="patch_4">
    <path d="M 14.813839 264.758988 
L 460.8 264.758988 
" style="fill: none; stroke: #000000; stroke-width: 0.8; stroke-linejoin: miter; stroke-linecap: square"/>
   </g>
  </g>
 </g>
 <defs>
  <clipPath id="p377051432f">
   <rect x="14.813839" y="77.162652" width="445.986161" height="191.274696"/>
  </clipPath>
 </defs>
</svg>
