<?xml version="1.0" encoding="utf-8" standalone="no"?>
<!DOCTYPE svg PUBLIC "-//W3C//DTD SVG 1.1//EN"
  "http://www.w3.org/Graphics/SVG/1.1/DTD/svg11.dtd">
<!-- Created with matplotlib (http://matplotlib.org/) -->
<svg height="345.6pt" version="1.1" viewBox="0 0 460.8 345.6" width="460.8pt" xmlns="http://www.w3.org/2000/svg" xmlns:xlink="http://www.w3.org/1999/xlink">
 <defs>
  <style type="text/css">
*{stroke-linecap:butt;stroke-linejoin:round;}
  </style>
 </defs>
 <g id="figure_1">
  <g id="patch_1">
   <path d="M 0 345.6 
L 460.8 345.6 
L 460.8 0 
L 0 0 
z
" style="fill:#ffffff;"/>
  </g>
  <g id="axes_1">
   <g id="patch_2">
    <path d="M 2.52 318.52 
L 458.28 318.52 
L 458.28 2.52 
L 2.52 2.52 
z
" style="fill:#ffffff;"/>
   </g>
   <g id="matplotlib.axis_1">
    <g id="xtick_1">
     <g id="line2d_1">
      <defs>
       <path d="M 0 0 
L 0 3.5 
" id="mbc12705d56" style="stroke:#000000;stroke-width:0.8;"/>
      </defs>
      <g>
       <use style="stroke:#000000;stroke-width:0.8;" x="11.284615" xlink:href="#mbc12705d56" y="328.52"/>
      </g>
     </g>
     <g id="text_1">
      <!-- -2 -->
      <defs>
       <path d="M 4.890625 31.390625 
L 31.203125 31.390625 
L 31.203125 23.390625 
L 4.890625 23.390625 
z
" id="DejaVuSans-2d"/>
       <path d="M 19.1875 8.296875 
L 53.609375 8.296875 
L 53.609375 0 
L 7.328125 0 
L 7.328125 8.296875 
Q 12.9375 14.109375 22.625 23.890625 
Q 32.328125 33.6875 34.8125 36.53125 
Q 39.546875 41.84375 41.421875 45.53125 
Q 43.3125 49.21875 43.3125 52.78125 
Q 43.3125 58.59375 39.234375 62.25 
Q 35.15625 65.921875 28.609375 65.921875 
Q 23.96875 65.921875 18.8125 64.3125 
Q 13.671875 62.703125 7.8125 59.421875 
L 7.8125 69.390625 
Q 13.765625 71.78125 18.9375 73 
Q 24.125 74.21875 28.421875 74.21875 
Q 39.75 74.21875 46.484375 68.546875 
Q 53.21875 62.890625 53.21875 53.421875 
Q 53.21875 48.921875 51.53125 44.890625 
Q 49.859375 40.875 45.40625 35.40625 
Q 44.1875 33.984375 37.640625 27.21875 
Q 31.109375 20.453125 19.1875 8.296875 
z
" id="DejaVuSans-32"/>
      </defs>
      <g transform="translate(6.299459 343.118437)scale(0.1 -0.1)">
       <use xlink:href="#DejaVuSans-2d"/>
       <use x="36.083984" xlink:href="#DejaVuSans-32"/>
      </g>
     </g>
    </g>
    <g id="xtick_2">
     <g id="line2d_2">
      <g>
       <use style="stroke:#000000;stroke-width:0.8;" x="66.063462" xlink:href="#mbc12705d56" y="328.52"/>
      </g>
     </g>
     <g id="text_2">
      <!-- -1.5 -->
      <defs>
       <path d="M 12.40625 8.296875 
L 28.515625 8.296875 
L 28.515625 63.921875 
L 10.984375 60.40625 
L 10.984375 69.390625 
L 28.421875 72.90625 
L 38.28125 72.90625 
L 38.28125 8.296875 
L 54.390625 8.296875 
L 54.390625 0 
L 12.40625 0 
z
" id="DejaVuSans-31"/>
       <path d="M 10.6875 12.40625 
L 21 12.40625 
L 21 0 
L 10.6875 0 
z
" id="DejaVuSans-2e"/>
       <path d="M 10.796875 72.90625 
L 49.515625 72.90625 
L 49.515625 64.59375 
L 19.828125 64.59375 
L 19.828125 46.734375 
Q 21.96875 47.46875 24.109375 47.828125 
Q 26.265625 48.1875 28.421875 48.1875 
Q 40.625 48.1875 47.75 41.5 
Q 54.890625 34.8125 54.890625 23.390625 
Q 54.890625 11.625 47.5625 5.09375 
Q 40.234375 -1.421875 26.90625 -1.421875 
Q 22.3125 -1.421875 17.546875 -0.640625 
Q 12.796875 0.140625 7.71875 1.703125 
L 7.71875 11.625 
Q 12.109375 9.234375 16.796875 8.0625 
Q 21.484375 6.890625 26.703125 6.890625 
Q 35.15625 6.890625 40.078125 11.328125 
Q 45.015625 15.765625 45.015625 23.390625 
Q 45.015625 31 40.078125 35.4375 
Q 35.15625 39.890625 26.703125 39.890625 
Q 22.75 39.890625 18.8125 39.015625 
Q 14.890625 38.140625 10.796875 36.28125 
z
" id="DejaVuSans-35"/>
      </defs>
      <g transform="translate(56.307993 343.118437)scale(0.1 -0.1)">
       <use xlink:href="#DejaVuSans-2d"/>
       <use x="36.083984" xlink:href="#DejaVuSans-31"/>
       <use x="99.707031" xlink:href="#DejaVuSans-2e"/>
       <use x="131.494141" xlink:href="#DejaVuSans-35"/>
      </g>
     </g>
    </g>
    <g id="xtick_3">
     <g id="line2d_3">
      <g>
       <use style="stroke:#000000;stroke-width:0.8;" x="120.842308" xlink:href="#mbc12705d56" y="328.52"/>
      </g>
     </g>
     <g id="text_3">
      <!-- -1 -->
      <g transform="translate(115.857151 343.118437)scale(0.1 -0.1)">
       <use xlink:href="#DejaVuSans-2d"/>
       <use x="36.083984" xlink:href="#DejaVuSans-31"/>
      </g>
     </g>
    </g>
    <g id="xtick_4">
     <g id="line2d_4">
      <g>
       <use style="stroke:#000000;stroke-width:0.8;" x="175.621154" xlink:href="#mbc12705d56" y="328.52"/>
      </g>
     </g>
     <g id="text_4">
      <!-- -0.5 -->
      <defs>
       <path d="M 31.78125 66.40625 
Q 24.171875 66.40625 20.328125 58.90625 
Q 16.5 51.421875 16.5 36.375 
Q 16.5 21.390625 20.328125 13.890625 
Q 24.171875 6.390625 31.78125 6.390625 
Q 39.453125 6.390625 43.28125 13.890625 
Q 47.125 21.390625 47.125 36.375 
Q 47.125 51.421875 43.28125 58.90625 
Q 39.453125 66.40625 31.78125 66.40625 
z
M 31.78125 74.21875 
Q 44.046875 74.21875 50.515625 64.515625 
Q 56.984375 54.828125 56.984375 36.375 
Q 56.984375 17.96875 50.515625 8.265625 
Q 44.046875 -1.421875 31.78125 -1.421875 
Q 19.53125 -1.421875 13.0625 8.265625 
Q 6.59375 17.96875 6.59375 36.375 
Q 6.59375 54.828125 13.0625 64.515625 
Q 19.53125 74.21875 31.78125 74.21875 
z
" id="DejaVuSans-30"/>
      </defs>
      <g transform="translate(165.865685 343.118437)scale(0.1 -0.1)">
       <use xlink:href="#DejaVuSans-2d"/>
       <use x="36.083984" xlink:href="#DejaVuSans-30"/>
       <use x="99.707031" xlink:href="#DejaVuSans-2e"/>
       <use x="131.494141" xlink:href="#DejaVuSans-35"/>
      </g>
     </g>
    </g>
    <g id="xtick_5">
     <g id="line2d_5">
      <g>
       <use style="stroke:#000000;stroke-width:0.8;" x="230.4" xlink:href="#mbc12705d56" y="328.52"/>
      </g>
     </g>
     <g id="text_5">
      <!-- 0 -->
      <g transform="translate(227.21875 343.118437)scale(0.1 -0.1)">
       <use xlink:href="#DejaVuSans-30"/>
      </g>
     </g>
    </g>
    <g id="xtick_6">
     <g id="line2d_6">
      <g>
       <use style="stroke:#000000;stroke-width:0.8;" x="285.178846" xlink:href="#mbc12705d56" y="328.52"/>
      </g>
     </g>
     <g id="text_6">
      <!-- 0.5 -->
      <g transform="translate(277.227284 343.118437)scale(0.1 -0.1)">
       <use xlink:href="#DejaVuSans-30"/>
       <use x="63.623047" xlink:href="#DejaVuSans-2e"/>
       <use x="95.410156" xlink:href="#DejaVuSans-35"/>
      </g>
     </g>
    </g>
    <g id="xtick_7">
     <g id="line2d_7">
      <g>
       <use style="stroke:#000000;stroke-width:0.8;" x="339.957692" xlink:href="#mbc12705d56" y="328.52"/>
      </g>
     </g>
     <g id="text_7">
      <!-- 1 -->
      <g transform="translate(336.776442 343.118437)scale(0.1 -0.1)">
       <use xlink:href="#DejaVuSans-31"/>
      </g>
     </g>
    </g>
    <g id="xtick_8">
     <g id="line2d_8">
      <g>
       <use style="stroke:#000000;stroke-width:0.8;" x="394.736538" xlink:href="#mbc12705d56" y="328.52"/>
      </g>
     </g>
     <g id="text_8">
      <!-- 1.5 -->
      <g transform="translate(386.784976 343.118437)scale(0.1 -0.1)">
       <use xlink:href="#DejaVuSans-31"/>
       <use x="63.623047" xlink:href="#DejaVuSans-2e"/>
       <use x="95.410156" xlink:href="#DejaVuSans-35"/>
      </g>
     </g>
    </g>
    <g id="xtick_9">
     <g id="line2d_9">
      <g>
       <use style="stroke:#000000;stroke-width:0.8;" x="449.515385" xlink:href="#mbc12705d56" y="328.52"/>
      </g>
     </g>
     <g id="text_9">
      <!-- 2 -->
      <g transform="translate(446.334135 343.118437)scale(0.1 -0.1)">
       <use xlink:href="#DejaVuSans-32"/>
      </g>
     </g>
    </g>
    <g id="xtick_10">
     <g id="line2d_10">
      <defs>
       <path d="M 0 0 
L 0 2 
" id="m4c19bd66c4" style="stroke:#000000;stroke-width:0.6;"/>
      </defs>
      <g>
       <use style="stroke:#000000;stroke-width:0.6;" x="22.240385" xlink:href="#m4c19bd66c4" y="328.52"/>
      </g>
     </g>
    </g>
    <g id="xtick_11">
     <g id="line2d_11">
      <g>
       <use style="stroke:#000000;stroke-width:0.6;" x="33.196154" xlink:href="#m4c19bd66c4" y="328.52"/>
      </g>
     </g>
    </g>
    <g id="xtick_12">
     <g id="line2d_12">
      <g>
       <use style="stroke:#000000;stroke-width:0.6;" x="44.151923" xlink:href="#m4c19bd66c4" y="328.52"/>
      </g>
     </g>
    </g>
    <g id="xtick_13">
     <g id="line2d_13">
      <g>
       <use style="stroke:#000000;stroke-width:0.6;" x="55.107692" xlink:href="#m4c19bd66c4" y="328.52"/>
      </g>
     </g>
    </g>
    <g id="xtick_14">
     <g id="line2d_14">
      <g>
       <use style="stroke:#000000;stroke-width:0.6;" x="77.019231" xlink:href="#m4c19bd66c4" y="328.52"/>
      </g>
     </g>
    </g>
    <g id="xtick_15">
     <g id="line2d_15">
      <g>
       <use style="stroke:#000000;stroke-width:0.6;" x="87.975" xlink:href="#m4c19bd66c4" y="328.52"/>
      </g>
     </g>
    </g>
    <g id="xtick_16">
     <g id="line2d_16">
      <g>
       <use style="stroke:#000000;stroke-width:0.6;" x="98.930769" xlink:href="#m4c19bd66c4" y="328.52"/>
      </g>
     </g>
    </g>
    <g id="xtick_17">
     <g id="line2d_17">
      <g>
       <use style="stroke:#000000;stroke-width:0.6;" x="109.886538" xlink:href="#m4c19bd66c4" y="328.52"/>
      </g>
     </g>
    </g>
    <g id="xtick_18">
     <g id="line2d_18">
      <g>
       <use style="stroke:#000000;stroke-width:0.6;" x="131.798077" xlink:href="#m4c19bd66c4" y="328.52"/>
      </g>
     </g>
    </g>
    <g id="xtick_19">
     <g id="line2d_19">
      <g>
       <use style="stroke:#000000;stroke-width:0.6;" x="142.753846" xlink:href="#m4c19bd66c4" y="328.52"/>
      </g>
     </g>
    </g>
    <g id="xtick_20">
     <g id="line2d_20">
      <g>
       <use style="stroke:#000000;stroke-width:0.6;" x="153.709615" xlink:href="#m4c19bd66c4" y="328.52"/>
      </g>
     </g>
    </g>
    <g id="xtick_21">
     <g id="line2d_21">
      <g>
       <use style="stroke:#000000;stroke-width:0.6;" x="164.665385" xlink:href="#m4c19bd66c4" y="328.52"/>
      </g>
     </g>
    </g>
    <g id="xtick_22">
     <g id="line2d_22">
      <g>
       <use style="stroke:#000000;stroke-width:0.6;" x="186.576923" xlink:href="#m4c19bd66c4" y="328.52"/>
      </g>
     </g>
    </g>
    <g id="xtick_23">
     <g id="line2d_23">
      <g>
       <use style="stroke:#000000;stroke-width:0.6;" x="197.532692" xlink:href="#m4c19bd66c4" y="328.52"/>
      </g>
     </g>
    </g>
    <g id="xtick_24">
     <g id="line2d_24">
      <g>
       <use style="stroke:#000000;stroke-width:0.6;" x="208.488462" xlink:href="#m4c19bd66c4" y="328.52"/>
      </g>
     </g>
    </g>
    <g id="xtick_25">
     <g id="line2d_25">
      <g>
       <use style="stroke:#000000;stroke-width:0.6;" x="219.444231" xlink:href="#m4c19bd66c4" y="328.52"/>
      </g>
     </g>
    </g>
    <g id="xtick_26">
     <g id="line2d_26">
      <g>
       <use style="stroke:#000000;stroke-width:0.6;" x="241.355769" xlink:href="#m4c19bd66c4" y="328.52"/>
      </g>
     </g>
    </g>
    <g id="xtick_27">
     <g id="line2d_27">
      <g>
       <use style="stroke:#000000;stroke-width:0.6;" x="252.311538" xlink:href="#m4c19bd66c4" y="328.52"/>
      </g>
     </g>
    </g>
    <g id="xtick_28">
     <g id="line2d_28">
      <g>
       <use style="stroke:#000000;stroke-width:0.6;" x="263.267308" xlink:href="#m4c19bd66c4" y="328.52"/>
      </g>
     </g>
    </g>
    <g id="xtick_29">
     <g id="line2d_29">
      <g>
       <use style="stroke:#000000;stroke-width:0.6;" x="274.223077" xlink:href="#m4c19bd66c4" y="328.52"/>
      </g>
     </g>
    </g>
    <g id="xtick_30">
     <g id="line2d_30">
      <g>
       <use style="stroke:#000000;stroke-width:0.6;" x="296.134615" xlink:href="#m4c19bd66c4" y="328.52"/>
      </g>
     </g>
    </g>
    <g id="xtick_31">
     <g id="line2d_31">
      <g>
       <use style="stroke:#000000;stroke-width:0.6;" x="307.090385" xlink:href="#m4c19bd66c4" y="328.52"/>
      </g>
     </g>
    </g>
    <g id="xtick_32">
     <g id="line2d_32">
      <g>
       <use style="stroke:#000000;stroke-width:0.6;" x="318.046154" xlink:href="#m4c19bd66c4" y="328.52"/>
      </g>
     </g>
    </g>
    <g id="xtick_33">
     <g id="line2d_33">
      <g>
       <use style="stroke:#000000;stroke-width:0.6;" x="329.001923" xlink:href="#m4c19bd66c4" y="328.52"/>
      </g>
     </g>
    </g>
    <g id="xtick_34">
     <g id="line2d_34">
      <g>
       <use style="stroke:#000000;stroke-width:0.6;" x="350.913462" xlink:href="#m4c19bd66c4" y="328.52"/>
      </g>
     </g>
    </g>
    <g id="xtick_35">
     <g id="line2d_35">
      <g>
       <use style="stroke:#000000;stroke-width:0.6;" x="361.869231" xlink:href="#m4c19bd66c4" y="328.52"/>
      </g>
     </g>
    </g>
    <g id="xtick_36">
     <g id="line2d_36">
      <g>
       <use style="stroke:#000000;stroke-width:0.6;" x="372.825" xlink:href="#m4c19bd66c4" y="328.52"/>
      </g>
     </g>
    </g>
    <g id="xtick_37">
     <g id="line2d_37">
      <g>
       <use style="stroke:#000000;stroke-width:0.6;" x="383.780769" xlink:href="#m4c19bd66c4" y="328.52"/>
      </g>
     </g>
    </g>
    <g id="xtick_38">
     <g id="line2d_38">
      <g>
       <use style="stroke:#000000;stroke-width:0.6;" x="405.692308" xlink:href="#m4c19bd66c4" y="328.52"/>
      </g>
     </g>
    </g>
    <g id="xtick_39">
     <g id="line2d_39">
      <g>
       <use style="stroke:#000000;stroke-width:0.6;" x="416.648077" xlink:href="#m4c19bd66c4" y="328.52"/>
      </g>
     </g>
    </g>
    <g id="xtick_40">
     <g id="line2d_40">
      <g>
       <use style="stroke:#000000;stroke-width:0.6;" x="427.603846" xlink:href="#m4c19bd66c4" y="328.52"/>
      </g>
     </g>
    </g>
    <g id="xtick_41">
     <g id="line2d_41">
      <g>
       <use style="stroke:#000000;stroke-width:0.6;" x="438.559615" xlink:href="#m4c19bd66c4" y="328.52"/>
      </g>
     </g>
    </g>
   </g>
   <g id="matplotlib.axis_2">
    <g id="ytick_1">
     <g id="line2d_42">
      <defs>
       <path d="M 0 0 
L -3.5 0 
" id="mbbc0faad13" style="stroke:#000000;stroke-width:0.8;"/>
      </defs>
      <g>
       <use style="stroke:#000000;stroke-width:0.8;" x="230.4" xlink:href="#mbbc0faad13" y="283.08216"/>
      </g>
     </g>
     <g id="text_10">
      <!-- 0.5 -->
      <g transform="translate(207.496875 286.881379)scale(0.1 -0.1)">
       <use xlink:href="#DejaVuSans-30"/>
       <use x="63.623047" xlink:href="#DejaVuSans-2e"/>
       <use x="95.410156" xlink:href="#DejaVuSans-35"/>
      </g>
     </g>
    </g>
    <g id="ytick_2">
     <g id="line2d_43">
      <g>
       <use style="stroke:#000000;stroke-width:0.8;" x="230.4" xlink:href="#mbbc0faad13" y="229.536118"/>
      </g>
     </g>
     <g id="text_11">
      <!-- 1 -->
      <g transform="translate(217.0375 233.335337)scale(0.1 -0.1)">
       <use xlink:href="#DejaVuSans-31"/>
      </g>
     </g>
    </g>
    <g id="ytick_3">
     <g id="line2d_44">
      <g>
       <use style="stroke:#000000;stroke-width:0.8;" x="230.4" xlink:href="#mbbc0faad13" y="175.990076"/>
      </g>
     </g>
     <g id="text_12">
      <!-- 1.5 -->
      <g transform="translate(207.496875 179.789295)scale(0.1 -0.1)">
       <use xlink:href="#DejaVuSans-31"/>
       <use x="63.623047" xlink:href="#DejaVuSans-2e"/>
       <use x="95.410156" xlink:href="#DejaVuSans-35"/>
      </g>
     </g>
    </g>
    <g id="ytick_4">
     <g id="line2d_45">
      <g>
       <use style="stroke:#000000;stroke-width:0.8;" x="230.4" xlink:href="#mbbc0faad13" y="122.444034"/>
      </g>
     </g>
     <g id="text_13">
      <!-- 2 -->
      <g transform="translate(217.0375 126.243253)scale(0.1 -0.1)">
       <use xlink:href="#DejaVuSans-32"/>
      </g>
     </g>
    </g>
    <g id="ytick_5">
     <g id="line2d_46">
      <g>
       <use style="stroke:#000000;stroke-width:0.8;" x="230.4" xlink:href="#mbbc0faad13" y="68.897992"/>
      </g>
     </g>
     <g id="text_14">
      <!-- 2.5 -->
      <g transform="translate(207.496875 72.697211)scale(0.1 -0.1)">
       <use xlink:href="#DejaVuSans-32"/>
       <use x="63.623047" xlink:href="#DejaVuSans-2e"/>
       <use x="95.410156" xlink:href="#DejaVuSans-35"/>
      </g>
     </g>
    </g>
    <g id="ytick_6">
     <g id="line2d_47">
      <g>
       <use style="stroke:#000000;stroke-width:0.8;" x="230.4" xlink:href="#mbbc0faad13" y="15.35195"/>
      </g>
     </g>
     <g id="text_15">
      <!-- 3 -->
      <defs>
       <path d="M 40.578125 39.3125 
Q 47.65625 37.796875 51.625 33 
Q 55.609375 28.21875 55.609375 21.1875 
Q 55.609375 10.40625 48.1875 4.484375 
Q 40.765625 -1.421875 27.09375 -1.421875 
Q 22.515625 -1.421875 17.65625 -0.515625 
Q 12.796875 0.390625 7.625 2.203125 
L 7.625 11.71875 
Q 11.71875 9.328125 16.59375 8.109375 
Q 21.484375 6.890625 26.8125 6.890625 
Q 36.078125 6.890625 40.9375 10.546875 
Q 45.796875 14.203125 45.796875 21.1875 
Q 45.796875 27.640625 41.28125 31.265625 
Q 36.765625 34.90625 28.71875 34.90625 
L 20.21875 34.90625 
L 20.21875 43.015625 
L 29.109375 43.015625 
Q 36.375 43.015625 40.234375 45.921875 
Q 44.09375 48.828125 44.09375 54.296875 
Q 44.09375 59.90625 40.109375 62.90625 
Q 36.140625 65.921875 28.71875 65.921875 
Q 24.65625 65.921875 20.015625 65.03125 
Q 15.375 64.15625 9.8125 62.3125 
L 9.8125 71.09375 
Q 15.4375 72.65625 20.34375 73.4375 
Q 25.25 74.21875 29.59375 74.21875 
Q 40.828125 74.21875 47.359375 69.109375 
Q 53.90625 64.015625 53.90625 55.328125 
Q 53.90625 49.265625 50.4375 45.09375 
Q 46.96875 40.921875 40.578125 39.3125 
z
" id="DejaVuSans-33"/>
      </defs>
      <g transform="translate(217.0375 19.151169)scale(0.1 -0.1)">
       <use xlink:href="#DejaVuSans-33"/>
      </g>
     </g>
    </g>
    <g id="ytick_7">
     <g id="line2d_48">
      <defs>
       <path d="M 0 0 
L -2 0 
" id="m4032ac8204" style="stroke:#000000;stroke-width:0.6;"/>
      </defs>
      <g>
       <use style="stroke:#000000;stroke-width:0.6;" x="230.4" xlink:href="#m4032ac8204" y="315.209785"/>
      </g>
     </g>
    </g>
    <g id="ytick_8">
     <g id="line2d_49">
      <g>
       <use style="stroke:#000000;stroke-width:0.6;" x="230.4" xlink:href="#m4032ac8204" y="304.500577"/>
      </g>
     </g>
    </g>
    <g id="ytick_9">
     <g id="line2d_50">
      <g>
       <use style="stroke:#000000;stroke-width:0.6;" x="230.4" xlink:href="#m4032ac8204" y="293.791368"/>
      </g>
     </g>
    </g>
    <g id="ytick_10">
     <g id="line2d_51">
      <g>
       <use style="stroke:#000000;stroke-width:0.6;" x="230.4" xlink:href="#m4032ac8204" y="272.372952"/>
      </g>
     </g>
    </g>
    <g id="ytick_11">
     <g id="line2d_52">
      <g>
       <use style="stroke:#000000;stroke-width:0.6;" x="230.4" xlink:href="#m4032ac8204" y="261.663743"/>
      </g>
     </g>
    </g>
    <g id="ytick_12">
     <g id="line2d_53">
      <g>
       <use style="stroke:#000000;stroke-width:0.6;" x="230.4" xlink:href="#m4032ac8204" y="250.954535"/>
      </g>
     </g>
    </g>
    <g id="ytick_13">
     <g id="line2d_54">
      <g>
       <use style="stroke:#000000;stroke-width:0.6;" x="230.4" xlink:href="#m4032ac8204" y="240.245327"/>
      </g>
     </g>
    </g>
    <g id="ytick_14">
     <g id="line2d_55">
      <g>
       <use style="stroke:#000000;stroke-width:0.6;" x="230.4" xlink:href="#m4032ac8204" y="218.82691"/>
      </g>
     </g>
    </g>
    <g id="ytick_15">
     <g id="line2d_56">
      <g>
       <use style="stroke:#000000;stroke-width:0.6;" x="230.4" xlink:href="#m4032ac8204" y="208.117701"/>
      </g>
     </g>
    </g>
    <g id="ytick_16">
     <g id="line2d_57">
      <g>
       <use style="stroke:#000000;stroke-width:0.6;" x="230.4" xlink:href="#m4032ac8204" y="197.408493"/>
      </g>
     </g>
    </g>
    <g id="ytick_17">
     <g id="line2d_58">
      <g>
       <use style="stroke:#000000;stroke-width:0.6;" x="230.4" xlink:href="#m4032ac8204" y="186.699285"/>
      </g>
     </g>
    </g>
    <g id="ytick_18">
     <g id="line2d_59">
      <g>
       <use style="stroke:#000000;stroke-width:0.6;" x="230.4" xlink:href="#m4032ac8204" y="165.280868"/>
      </g>
     </g>
    </g>
    <g id="ytick_19">
     <g id="line2d_60">
      <g>
       <use style="stroke:#000000;stroke-width:0.6;" x="230.4" xlink:href="#m4032ac8204" y="154.571659"/>
      </g>
     </g>
    </g>
    <g id="ytick_20">
     <g id="line2d_61">
      <g>
       <use style="stroke:#000000;stroke-width:0.6;" x="230.4" xlink:href="#m4032ac8204" y="143.862451"/>
      </g>
     </g>
    </g>
    <g id="ytick_21">
     <g id="line2d_62">
      <g>
       <use style="stroke:#000000;stroke-width:0.6;" x="230.4" xlink:href="#m4032ac8204" y="133.153243"/>
      </g>
     </g>
    </g>
    <g id="ytick_22">
     <g id="line2d_63">
      <g>
       <use style="stroke:#000000;stroke-width:0.6;" x="230.4" xlink:href="#m4032ac8204" y="111.734826"/>
      </g>
     </g>
    </g>
    <g id="ytick_23">
     <g id="line2d_64">
      <g>
       <use style="stroke:#000000;stroke-width:0.6;" x="230.4" xlink:href="#m4032ac8204" y="101.025618"/>
      </g>
     </g>
    </g>
    <g id="ytick_24">
     <g id="line2d_65">
      <g>
       <use style="stroke:#000000;stroke-width:0.6;" x="230.4" xlink:href="#m4032ac8204" y="90.316409"/>
      </g>
     </g>
    </g>
    <g id="ytick_25">
     <g id="line2d_66">
      <g>
       <use style="stroke:#000000;stroke-width:0.6;" x="230.4" xlink:href="#m4032ac8204" y="79.607201"/>
      </g>
     </g>
    </g>
    <g id="ytick_26">
     <g id="line2d_67">
      <g>
       <use style="stroke:#000000;stroke-width:0.6;" x="230.4" xlink:href="#m4032ac8204" y="58.188784"/>
      </g>
     </g>
    </g>
    <g id="ytick_27">
     <g id="line2d_68">
      <g>
       <use style="stroke:#000000;stroke-width:0.6;" x="230.4" xlink:href="#m4032ac8204" y="47.479576"/>
      </g>
     </g>
    </g>
    <g id="ytick_28">
     <g id="line2d_69">
      <g>
       <use style="stroke:#000000;stroke-width:0.6;" x="230.4" xlink:href="#m4032ac8204" y="36.770367"/>
      </g>
     </g>
    </g>
    <g id="ytick_29">
     <g id="line2d_70">
      <g>
       <use style="stroke:#000000;stroke-width:0.6;" x="230.4" xlink:href="#m4032ac8204" y="26.061159"/>
      </g>
     </g>
    </g>
    <g id="ytick_30">
     <g id="line2d_71">
      <g>
       <use style="stroke:#000000;stroke-width:0.6;" x="230.4" xlink:href="#m4032ac8204" y="4.642742"/>
      </g>
     </g>
    </g>
   </g>
   <g id="line2d_72">
    <path clip-path="url(#p1c59b97cac)" d="M 11.284615 112.335066 
L 12.759646 111.915548 
L 15.791633 111.031964 
L 18.627222 110.178622 
L 20.132475 109.714562 
L 21.974474 109.135846 
L 23.912761 108.513577 
L 27.738117 107.243521 
L 29.879692 106.506933 
L 30.73683 106.206751 
L 33.970315 105.045542 
L 34.61313 104.809095 
L 37.073948 103.886017 
L 40.261318 102.646289 
L 41.415645 102.184432 
L 45.233955 100.604914 
L 45.893163 100.323829 
L 48.545072 99.166725 
L 51.241367 97.94493 
L 52.761971 97.234608 
L 54.708614 96.301727 
L 58.132112 94.593155 
L 60.488077 93.36358 
L 61.793658 92.662103 
L 64.824415 90.97496 
L 66.878559 89.781877 
L 69.163456 88.404197 
L 70.649637 87.477788 
L 72.246709 86.454098 
L 74.780922 84.766118 
L 76.553586 83.53587 
L 78.326251 82.261918 
L 80.615342 80.547489 
L 82.260737 79.263335 
L 83.613285 78.172987 
L 85.30908 76.758754 
L 87.004874 75.288433 
L 89.338029 73.16582 
L 89.892892 72.642814 
L 91.32912 71.254244 
L 92.765348 69.812525 
L 94.041848 68.483242 
L 95.318347 67.105529 
L 97.140392 65.047867 
L 98.414638 63.539349 
L 99.688883 61.968135 
L 100.731605 60.631876 
L 101.774326 59.246412 
L 102.923858 57.657241 
L 104.073391 55.997333 
L 105.007804 54.591042 
L 105.942217 53.128867 
L 106.942462 51.495904 
L 107.942707 49.785608 
L 108.641616 48.540025 
L 109.340524 47.248896 
L 110.039432 45.908167 
L 110.73834 44.513134 
L 111.843474 42.182651 
L 112.835513 39.940576 
L 113.331532 38.758044 
L 113.827551 37.52924 
L 114.269445 36.391649 
L 114.711339 35.209487 
L 115.153233 33.977999 
L 115.595126 32.691495 
L 116.03702 31.343075 
L 116.478914 29.924224 
L 116.920808 28.424228 
L 117.362702 26.829278 
L 117.849798 24.938997 
L 118.093347 23.931944 
L 118.336895 22.876336 
L 118.580444 21.765023 
L 118.823992 20.58888 
L 119.067541 19.335939 
L 119.311089 17.98996 
L 119.47011 17.050346 
L 119.62913 16.052728 
L 119.78815 14.985367 
L 119.94717 13.831896 
L 120.10619 12.568256 
L 120.185701 11.884086 
L 120.265211 11.15642 
L 120.344721 10.375941 
L 120.424231 9.529417 
L 120.503741 8.596923 
" style="fill:none;stroke:#0000ff;stroke-linecap:square;"/>
   </g>
   <g id="line2d_73">
    <path clip-path="url(#p1c59b97cac)" d="M 342.812116 312.443077 
L 343.243395 310.721753 
L 343.765776 308.792134 
L 344.288157 307.001305 
L 344.810538 305.325287 
L 345.33292 303.74638 
L 345.82555 302.33418 
L 346.318181 300.987361 
L 346.810812 299.69867 
L 347.303442 298.462122 
L 347.935018 296.945166 
L 348.566593 295.496994 
L 349.198168 294.110405 
L 349.829744 292.779395 
L 350.828697 290.775533 
L 351.827651 288.881746 
L 352.799094 287.133163 
L 353.770537 285.46637 
L 354.956074 283.53125 
L 356.141611 281.6935 
L 357.697864 279.412089 
L 359.254116 277.262354 
L 361.204672 274.730957 
L 362.731524 272.86156 
L 363.896847 271.494497 
L 365.062171 270.175086 
L 367.35374 267.70742 
L 368.878998 266.149941 
L 370.404256 264.654242 
L 372.764327 262.451225 
L 375.538166 260.017805 
L 376.829159 258.937432 
L 379.93718 256.459497 
L 381.949802 254.940104 
L 383.777164 253.613697 
L 386.178569 251.941946 
L 386.891755 251.460186 
L 388.87695 250.152717 
L 390.862145 248.892148 
L 392.028484 248.172247 
L 394.994736 246.406241 
L 396.699725 245.430909 
L 399.382877 243.950773 
L 401.896886 242.620925 
L 403.02171 242.042774 
L 405.47008 240.818475 
L 408.503419 239.363014 
L 410.485272 238.446539 
L 411.180358 238.131266 
L 413.762095 236.987108 
L 416.737331 235.718568 
L 418.701969 234.908637 
L 420.226565 234.294599 
L 423.556146 232.995488 
L 425.374509 232.309158 
L 427.869343 231.392729 
L 430.45729 230.471535 
L 431.091462 230.250199 
L 433.954979 229.271525 
L 435.879513 228.632195 
L 439.526105 227.45932 
L 441.479115 226.850956 
L 441.973282 226.699132 
L 444.694282 225.877947 
L 448.157239 224.867666 
L 449.515385 224.481634 
" style="fill:none;stroke:#0000ff;stroke-linecap:square;"/>
   </g>
   <g id="patch_3">
    <path d="M 230.4 318.52 
L 230.4 2.52 
" style="fill:none;stroke:#000000;stroke-linecap:square;stroke-linejoin:miter;stroke-width:0.8;"/>
   </g>
   <g id="patch_4">
    <path d="M 2.52 328.52 
L 458.28 328.52 
" style="fill:none;stroke:#000000;stroke-linecap:square;stroke-linejoin:miter;stroke-width:0.8;"/>
   </g>
  </g>
 </g>
 <defs>
  <clipPath id="p1c59b97cac">
   <rect height="316" width="455.76" x="2.52" y="2.52"/>
  </clipPath>
 </defs>
</svg>
