<?xml version="1.0" encoding="utf-8" standalone="no"?>
<!DOCTYPE svg PUBLIC "-//W3C//DTD SVG 1.1//EN"
  "http://www.w3.org/Graphics/SVG/1.1/DTD/svg11.dtd">
<svg xmlns:xlink="http://www.w3.org/1999/xlink" width="460.8pt" height="345.6pt" viewBox="0 0 460.8 345.6" xmlns="http://www.w3.org/2000/svg" version="1.1">
 <metadata>
  <rdf:RDF xmlns:dc="http://purl.org/dc/elements/1.1/" xmlns:cc="http://creativecommons.org/ns#" xmlns:rdf="http://www.w3.org/1999/02/22-rdf-syntax-ns#">
   <cc:Work>
    <dc:type rdf:resource="http://purl.org/dc/dcmitype/StillImage"/>
    <dc:date>2023-08-21T20:31:41.256793</dc:date>
    <dc:format>image/svg+xml</dc:format>
    <dc:creator>
     <cc:Agent>
      <dc:title>Matplotlib v3.6.2, https://matplotlib.org/</dc:title>
     </cc:Agent>
    </dc:creator>
   </cc:Work>
  </rdf:RDF>
 </metadata>
 <defs>
  <style type="text/css">*{stroke-linejoin: round; stroke-linecap: butt}</style>
 </defs>
 <g id="figure_1">
  <g id="patch_1">
   <path d="M 0 345.6 
L 460.8 345.6 
L 460.8 0 
L 0 0 
z
" style="fill: #ffffff"/>
  </g>
  <g id="axes_1">
   <g id="patch_2">
    <path d="M 35.738886 345.6 
L 425.061114 345.6 
L 425.061114 0 
L 35.738886 0 
z
" style="fill: #ffffff"/>
   </g>
   <g id="patch_3">
    <path d="M 117.927637 195.736375 
L 118.383452 189.394531 
L 118.693352 186.520528 
L 119.535404 180.614804 
L 120.483746 175.53884 
L 122.485939 167.27589 
L 123.649924 163.329209 
L 124.841166 159.706574 
L 128.042041 151.389953 
L 129.314037 148.500142 
L 131.280393 144.376474 
L 134.846491 137.731762 
L 138.356056 131.992103 
L 140.334503 129.033697 
L 142.414528 126.106227 
L 145.90587 121.55842 
L 148.879542 117.998773 
L 152.59363 113.902017 
L 157.729698 108.787193 
L 161.595411 105.303458 
L 167.115847 100.80286 
L 169.407476 99.083126 
L 172.679135 96.766842 
L 177.942678 93.359344 
L 181.411041 91.313965 
L 188.713528 87.48447 
L 194.004323 85.085264 
L 197.276127 83.749646 
L 200.10808 82.681346 
L 207.343659 80.307049 
L 212.843862 78.830175 
L 218.09273 77.674842 
L 223.488121 76.73887 
L 229.264725 76.013634 
L 234.501917 75.600017 
L 239.746166 75.416395 
L 242.088287 75.408754 
L 248.602067 75.629521 
L 253.136205 75.994779 
L 258.952872 76.721339 
L 261.366909 77.109337 
L 267.523856 78.333814 
L 271.17646 79.223549 
L 276.724259 80.816014 
L 282.835264 82.921483 
L 287.238765 84.679407 
L 292.182639 86.908186 
L 297.945714 89.87115 
L 301.172734 91.714605 
L 304.055117 93.48107 
L 309.000835 96.79559 
L 311.115204 98.330089 
L 317.826299 103.723132 
L 320.96625 106.551948 
L 322.613853 108.124126 
L 328.065966 113.815769 
L 329.436569 115.379265 
L 332.85039 119.544746 
L 337.268705 125.617433 
L 337.627235 126.15003 
L 340.88434 131.320341 
L 342.687559 134.482522 
L 345.944961 140.90746 
L 348.247538 146.20056 
L 349.59177 149.698059 
L 351.065092 154.014397 
L 351.757639 156.275849 
L 353.172676 161.572361 
L 354.207849 166.354618 
L 355.310728 173.278086 
L 355.691857 176.760546 
L 355.904614 179.406536 
L 356.131817 184.682904 
L 356.00627 192.123868 
L 355.902246 193.84906 
L 355.191561 200.814022 
L 354.809263 203.387971 
L 353.808235 208.71251 
L 353.292699 210.985501 
L 351.775769 216.631829 
L 349.837701 222.469152 
L 348.576968 225.743206 
L 347.256555 228.855573 
L 345.533549 232.53697 
L 343.858344 235.788349 
L 341.392379 240.110908 
L 338.941345 243.970033 
L 335.099059 249.333607 
L 334.401298 250.23188 
L 330.829357 254.522145 
L 326.329336 259.296901 
L 322.99451 262.45491 
L 322.750451 262.674639 
L 317.182434 267.308115 
L 314.770869 269.107758 
L 309.719448 272.517709 
L 309.484778 272.665011 
L 304.071118 275.809711 
L 300.381423 277.690621 
L 295.364061 279.933108 
L 291.275708 281.5075 
L 289.681316 282.062584 
L 284.360532 283.684676 
L 280.466521 284.654049 
L 276.531406 285.452396 
L 272.833393 286.039937 
L 268.310872 286.547415 
L 265.627898 286.739646 
L 261.562547 286.876992 
L 256.647618 286.794748 
L 255.401988 286.730453 
L 248.62104 286.067404 
L 246.38059 285.730001 
L 243.156001 285.138393 
L 237.563006 283.805946 
L 234.104593 282.779067 
L 230.762483 281.631501 
L 228.546602 280.782727 
L 223.918977 278.770622 
L 221.140068 277.396665 
L 216.801888 274.98053 
L 213.252542 272.733878 
L 212.033664 271.901147 
L 210.198661 270.584051 
L 206.190762 267.41792 
L 203.45518 265.000085 
L 201.839263 263.460441 
L 197.858112 259.255325 
L 196.702887 257.908758 
L 194.340732 254.943558 
L 192.60375 252.552388 
L 189.982828 248.5217 
L 188.152777 245.320745 
L 186.475278 242.009919 
L 186.05177 241.102325 
L 184.791717 238.184433 
L 182.80954 232.656206 
L 182.365789 231.178596 
L 181.570601 228.169836 
L 180.732713 224.164235 
L 180.469934 222.581263 
L 180.017506 219.00808 
L 179.716949 214.261944 
L 179.710081 210.995693 
L 179.8399 208.134328 
L 180.066026 205.570238 
L 180.492019 202.404644 
L 181.179821 198.809217 
L 181.495089 197.463986 
L 182.10112 195.195463 
L 183.111061 192.026928 
L 184.475861 188.498907 
L 184.983812 187.339127 
L 186.416984 184.393018 
L 187.544484 182.343051 
L 189.700739 178.911785 
L 191.170261 176.862505 
L 192.380743 175.317474 
L 195.408462 171.918321 
L 196.614947 170.721663 
L 197.765937 169.653046 
L 200.929416 167.042901 
L 203.506625 165.229512 
L 204.210571 164.778361 
L 206.121678 163.642814 
L 208.379958 162.460258 
L 212.297883 160.788725 
L 212.580992 160.685746 
L 215.403139 159.785384 
L 218.994089 158.963565 
L 221.097478 158.647909 
L 223.107491 158.460749 
L 225.017498 158.387818 
L 227.045795 158.424763 
L 229.468971 158.628915 
L 231.446546 158.931093 
L 232.247833 159.089984 
L 234.520208 159.662026 
L 236.139184 160.186759 
L 238.71031 161.244422 
L 240.419864 162.120843 
L 242.873084 163.669024 
L 244.686284 165.084892 
L 244.990874 165.350153 
L 246.999902 167.346927 
L 247.785154 168.270865 
L 249.213475 170.24423 
L 249.949978 171.466101 
L 250.705447 172.937958 
L 251.523974 174.937087 
L 251.976857 176.372521 
L 252.363914 178.001505 
L 252.627758 179.671083 
L 252.762932 181.351402 
L 252.782882 182.32809 
L 252.712442 184.078421 
L 252.503013 185.8507 
L 252.128344 187.730103 
L 251.932931 188.485449 
L 251.378978 190.23617 
L 250.678861 191.988444 
L 250.067711 193.275521 
L 249.373154 194.557934 
L 248.655761 195.736375 
L 248.655761 195.736375 
L 249.707459 193.933683 
L 250.395999 192.509941 
L 250.983801 191.039086 
L 251.451415 189.569453 
L 251.71036 188.538255 
L 251.977852 187.103453 
L 252.189679 184.590719 
L 252.187958 183.763226 
L 251.928033 181.046906 
L 251.851723 180.624965 
L 251.364754 178.6679 
L 250.521536 176.432056 
L 250.158842 175.672721 
L 248.785629 173.365591 
L 248.022635 172.336022 
L 247.02144 171.166004 
L 245.447155 169.63174 
L 244.850528 169.126986 
L 242.890122 167.70107 
L 241.424258 166.828001 
L 239.846395 166.040382 
L 238.759596 165.578504 
L 236.722666 164.869875 
L 235.992856 164.661824 
L 233.683977 164.149066 
L 231.286629 163.833331 
L 229.630246 163.735289 
L 228.525851 163.722158 
L 225.442038 163.899612 
L 223.628997 164.14817 
L 223.249581 164.213585 
L 219.433058 165.130738 
L 218.072141 165.573504 
L 217.192597 165.892873 
L 214.272011 167.146955 
L 212.860846 167.864305 
L 211.8062 168.450479 
L 208.413229 170.649769 
L 208.231822 170.78179 
L 205.189606 173.241735 
L 204.205531 174.146248 
L 202.291471 176.081885 
L 201.523231 176.931639 
L 199.742018 179.088206 
L 197.828735 181.752009 
L 197.437761 182.34963 
L 195.439083 185.765067 
L 194.771636 187.071147 
L 194.008366 188.697813 
L 192.923536 191.325947 
L 191.723008 194.882713 
L 191.012335 197.534529 
L 190.457665 200.139034 
L 190.324266 200.883326 
L 189.868745 204.127026 
L 189.617464 207.257138 
L 189.564424 208.616392 
L 189.563104 211.530363 
L 189.656824 213.639906 
L 189.894353 216.360628 
L 190.536158 220.650175 
L 191.033871 223.026104 
L 191.356677 224.353115 
L 192.43246 228.060391 
L 193.066889 229.908452 
L 194.732665 234.04069 
L 195.736843 236.182292 
L 197.696668 239.85113 
L 198.351287 240.958808 
L 200.195788 243.83248 
L 202.397527 246.875488 
L 204.43705 249.3969 
L 205.380801 250.482115 
L 208.500256 253.759012 
L 209.095198 254.335765 
L 212.345697 257.252226 
L 214.612129 259.076198 
L 216.18848 260.254758 
L 218.690272 261.987062 
L 223.414639 264.844832 
L 226.321396 266.363039 
L 226.886546 266.638629 
L 231.107027 268.507681 
L 233.055038 269.26345 
L 238.33767 270.997608 
L 239.507525 271.322194 
L 241.657042 271.86473 
L 245.878847 272.733416 
L 249.739398 273.307325 
L 251.805598 273.530412 
L 257.844879 273.854404 
L 258.650747 273.861131 
L 263.811376 273.702348 
L 264.783112 273.633438 
L 269.064698 273.182141 
L 272.516583 272.641682 
L 276.306683 271.863658 
L 279.647882 271.013933 
L 282.516751 270.158443 
L 286.05111 268.939246 
L 288.647901 267.92294 
L 294.526983 265.222187 
L 295.456628 264.741584 
L 300.437052 261.897836 
L 301.581632 261.176734 
L 305.456002 258.53194 
L 307.878725 256.706232 
L 311.88097 253.366154 
L 312.93502 252.412877 
L 315.764734 249.684449 
L 318.270146 247.041052 
L 321.991263 242.650588 
L 323.545987 240.623197 
L 325.666111 237.639902 
L 327.484928 234.846134 
L 328.834876 232.607161 
L 331.880482 226.89858 
L 332.204575 226.225193 
L 334.080902 221.998666 
L 336.293573 216.032637 
L 337.151309 213.28646 
L 338.393204 208.602159 
L 339.138422 205.140107 
L 339.523426 203.026291 
L 340.164203 198.579349 
L 340.618968 193.542244 
L 340.657069 192.890794 
L 340.785574 186.741781 
L 340.630469 182.477298 
L 340.169597 177.269719 
L 339.922495 175.339847 
L 339.078658 170.293083 
L 338.21362 166.336442 
L 337.620863 164.014795 
L 335.854964 158.211767 
L 334.481729 154.441653 
L 332.869716 150.554187 
L 332.42067 149.552079 
L 329.153373 143.049344 
L 328.902619 142.597622 
L 327.002311 139.348952 
L 323.712174 134.332687 
L 321.765577 131.658219 
L 317.340318 126.218221 
L 315.764421 124.462677 
L 312.255165 120.842059 
L 309.036129 117.82928 
L 306.666803 115.778027 
L 305.220527 114.589417 
L 298.974513 109.95245 
L 298.484381 109.620039 
L 293.912248 106.718753 
L 289.442882 104.206735 
L 284.689727 101.855218 
L 283.632567 101.374355 
L 277.004871 98.687232 
L 275.281829 98.077258 
L 268.674505 96.057452 
L 266.805112 95.574756 
L 259.819573 94.102446 
L 254.73914 93.349897 
L 254.303245 93.297523 
L 247.281954 92.714904 
L 242.842212 92.597374 
L 240.92349 92.606256 
L 233.05793 93.018673 
L 229.9485 93.349169 
L 228.280738 93.565869 
L 220.839104 94.873202 
L 215.656508 96.119906 
L 213.192819 96.812413 
L 210.015871 97.803049 
L 204.219501 99.903922 
L 198.881211 102.191716 
L 195.233763 103.961865 
L 192.586174 105.358088 
L 186.918174 108.683639 
L 185.995474 109.270957 
L 181.180066 112.561875 
L 179.198922 114.032576 
L 174.028379 118.226097 
L 170.587593 121.332326 
L 168.450662 123.404074 
L 162.793051 129.498399 
L 160.129377 132.724805 
L 158.845363 134.37565 
L 154.676423 140.238909 
L 152.255137 144.067087 
L 151.780107 144.861649 
L 148.580745 150.660998 
L 146.260653 155.473458 
L 145.028866 158.302527 
L 143.68944 161.655436 
L 141.886868 166.769609 
L 140.164825 172.615388 
L 138.690483 178.928855 
L 137.822116 183.75937 
L 137.476322 186.129205 
L 136.777604 192.844441 
L 136.603083 195.736375 
z
" clip-path="url(#p15b9bcd185)" style="fill: #b2b3ff; opacity: 0.5"/>
   </g>
   <g id="patch_4">
    <path d="M 80.576744 195.736375 
L 81.118245 188.050828 
L 82.189173 179.187548 
L 83.500571 171.564368 
L 85.066035 164.420604 
L 85.335531 163.325122 
L 87.503365 155.470054 
L 90.135429 147.510774 
L 91.800531 143.076456 
L 96.612063 132.016943 
L 97.600174 129.992278 
L 100.492961 124.436681 
L 105.989559 115.10763 
L 109.868015 109.279807 
L 112.683234 105.366276 
L 118.489081 97.999162 
L 123.032729 92.795798 
L 125.717827 89.921796 
L 133.654153 82.184716 
L 136.339025 79.796606 
L 142.299893 74.861066 
L 147.641888 70.8302 
L 155.049668 65.791592 
L 157.978781 63.962287 
L 164.219625 60.350478 
L 173.471474 55.661771 
L 177.269893 53.951873 
L 182.7884 51.678357 
L 186.260064 50.371649 
L 196.219615 47.129286 
L 204.781131 44.916607 
L 211.840952 43.475388 
L 212.679657 43.326711 
L 224.435788 41.736927 
L 225.28301 41.657642 
L 235.624954 41.067924 
L 241.496193 41.043213 
L 245.324887 41.148173 
L 255.692118 41.915723 
L 264.168926 43.076081 
L 267.698498 43.703685 
L 272.463546 44.688654 
L 277.085785 45.798321 
L 285.014578 48.066892 
L 294.493206 51.41446 
L 296.638227 52.272987 
L 302.795588 54.95573 
L 311.221848 59.183427 
L 314.468698 60.996376 
L 321.878341 65.551044 
L 328.273352 69.991851 
L 331.850251 72.703534 
L 335.462157 75.623061 
L 342.293578 81.698587 
L 343.846083 83.190822 
L 350.770143 90.427292 
L 354.564746 94.853898 
L 358.957834 100.470312 
L 362.910949 106.06425 
L 363.795612 107.397763 
L 368.847945 115.710404 
L 370.4534 118.647215 
L 373.280133 124.262259 
L 376.516105 131.588946 
L 379.136696 138.525564 
L 380.593955 142.948958 
L 382.662866 150.300956 
L 382.693647 150.423288 
L 384.241881 157.326334 
L 385.12303 162.248486 
L 386.035088 168.990718 
L 386.553086 174.828797 
L 386.801389 179.946782 
L 386.788519 188.485262 
L 386.508821 193.811043 
L 385.759355 201.288519 
L 384.974943 206.566822 
L 383.378999 214.534957 
L 382.514563 218.043372 
L 381.009221 223.360451 
L 380.011521 226.485186 
L 376.861438 234.964793 
L 374.626814 240.087962 
L 373.289394 242.895921 
L 371.360738 246.668058 
L 366.883552 254.426591 
L 364.400371 258.253124 
L 362.372928 261.17176 
L 358.85352 265.861151 
L 355.420204 270.038691 
L 351.453045 274.449348 
L 347.89417 278.07562 
L 340.426676 284.82018 
L 337.289767 287.347714 
L 332.671938 290.777921 
L 330.506477 292.275437 
L 324.48201 296.097879 
L 318.058884 299.659615 
L 316.280668 300.558411 
L 310.109669 303.401638 
L 306.554646 304.853364 
L 301.127233 306.820017 
L 293.075699 309.207017 
L 291.764477 309.537764 
L 283.98585 311.176219 
L 282.795746 311.378762 
L 273.199189 312.554194 
L 272.35969 312.618576 
L 263.249842 312.921599 
L 261.131388 312.888056 
L 257.425387 312.73435 
L 252.164272 312.30647 
L 244.124434 311.167053 
L 241.377004 310.639438 
L 237.04682 309.660209 
L 230.781424 307.911847 
L 226.158331 306.358013 
L 220.802098 304.260031 
L 218.836291 303.405592 
L 215.156387 301.677443 
L 210.734224 299.36598 
L 205.140944 296.042203 
L 201.205676 293.407377 
L 197.630919 290.777369 
L 192.452214 286.515079 
L 190.958246 285.174164 
L 185.996528 280.305611 
L 185.427899 279.702551 
L 180.291305 273.752737 
L 178.710617 271.712206 
L 176.130115 268.121338 
L 174.354491 265.432139 
L 171.356576 260.385828 
L 169.670624 257.194662 
L 168.093731 253.908302 
L 165.432046 247.432599 
L 164.005531 243.234159 
L 162.962099 239.636484 
L 162.564895 238.097051 
L 161.744923 234.475773 
L 160.628356 227.651302 
L 160.334675 224.899831 
L 160.092287 221.43668 
L 160.003561 215.727705 
L 160.105623 212.877662 
L 160.326463 209.80784 
L 161.047745 204.117969 
L 161.527154 201.464625 
L 162.33489 197.84204 
L 163.254953 194.461537 
L 164.965954 189.362942 
L 165.994697 186.772464 
L 166.96394 184.561342 
L 170.049195 178.576896 
L 171.121351 176.779267 
L 172.138772 175.178636 
L 175.377265 170.645458 
L 177.965901 167.519125 
L 178.849215 166.536518 
L 182.622475 162.75039 
L 185.368217 160.360477 
L 186.692705 159.304309 
L 188.101888 158.244551 
L 191.289842 156.073396 
L 195.916197 153.429959 
L 197.60153 152.604315 
L 200.668993 151.277816 
L 202.776815 150.493293 
L 206.196578 149.43256 
L 210.052957 148.54291 
L 212.532455 148.139992 
L 215.219399 147.852655 
L 217.056154 147.746335 
L 221.027153 147.772026 
L 222.820609 147.901642 
L 227.358277 148.577426 
L 228.007392 148.717052 
L 232.007434 149.836698 
L 234.231277 150.669139 
L 236.968099 151.929019 
L 237.615844 152.269272 
L 240.840157 154.240195 
L 242.678677 155.605137 
L 244.740385 157.398027 
L 245.60076 158.24538 
L 247.222425 160.040788 
L 248.561446 161.77003 
L 249.767834 163.589242 
L 251.114299 166.052911 
L 251.984034 168.033303 
L 252.696691 170.060417 
L 252.909961 170.783509 
L 253.455661 173.100275 
L 253.807227 175.48021 
L 253.894991 176.494234 
L 253.961946 178.546973 
L 253.880557 180.629812 
L 253.795772 181.561954 
L 253.455721 183.877335 
L 252.924391 186.211329 
L 252.612491 187.294171 
L 251.923638 189.29705 
L 251.084945 191.299874 
L 249.875414 193.694972 
L 248.655761 195.736375 
L 248.655761 195.736375 
L 249.647091 194.088182 
L 250.696729 192.048415 
L 251.599831 189.90877 
L 252.310798 187.769437 
L 252.960743 184.985192 
L 253.224478 183.138588 
L 253.368336 180.838866 
L 253.37129 180.128202 
L 253.194485 177.370146 
L 252.937066 175.692975 
L 252.512605 173.830588 
L 251.952535 172.019178 
L 250.894004 169.460757 
L 250.332266 168.357638 
L 248.797349 165.863164 
L 248.548015 165.510801 
L 246.923122 163.47144 
L 244.400083 160.949934 
L 243.808345 160.443572 
L 240.901651 158.312987 
L 238.738265 157.043063 
L 236.837214 156.108816 
L 234.793948 155.269492 
L 232.110369 154.396651 
L 230.973479 154.098626 
L 228.695509 153.620338 
L 225.510039 153.200142 
L 222.564954 153.052798 
L 220.154897 153.096242 
L 218.022496 153.254255 
L 216.746507 153.40174 
L 213.133504 154.032874 
L 211.406273 154.446325 
L 209.277536 155.05649 
L 205.428598 156.448756 
L 203.24734 157.409387 
L 200.259953 158.938309 
L 198.456987 159.987246 
L 196.624084 161.15736 
L 193.131415 163.701776 
L 191.688269 164.88516 
L 189.38252 166.955487 
L 187.727135 168.592405 
L 184.961941 171.651094 
L 182.537851 174.730548 
L 180.528027 177.63544 
L 179.587833 179.127539 
L 178.212857 181.494231 
L 175.992715 185.908251 
L 175.794858 186.346499 
L 174.221972 190.185479 
L 173.013237 193.717717 
L 171.736826 198.390646 
L 170.989164 201.982713 
L 170.452504 205.429383 
L 170.282774 206.835786 
L 170.083009 208.915047 
L 169.842104 214.481597 
L 169.881049 217.325803 
L 170.27244 222.917247 
L 170.479544 224.660499 
L 171.28248 229.57666 
L 171.954877 232.669041 
L 172.59055 235.154309 
L 173.612846 238.592443 
L 175.470624 243.756859 
L 176.919894 247.168919 
L 178.917938 251.286575 
L 180.315328 253.864447 
L 181.748972 256.306033 
L 183.688565 259.340034 
L 186.501105 263.295388 
L 188.145732 265.407281 
L 190.796541 268.551037 
L 193.760253 271.741188 
L 197.010909 274.906894 
L 201.515933 278.808436 
L 202.204898 279.360974 
L 207.819693 283.480821 
L 209.721456 284.734412 
L 211.748993 285.998887 
L 215.845621 288.34184 
L 220.102054 290.498652 
L 226.297708 293.178803 
L 228.372688 293.963115 
L 234.116773 295.857294 
L 235.75843 296.326783 
L 240.783706 297.574165 
L 245.625477 298.514743 
L 248.392667 298.940903 
L 254.267903 299.584417 
L 260.058089 299.878583 
L 265.262507 299.859797 
L 266.924989 299.797679 
L 272.718119 299.369136 
L 277.455972 298.772625 
L 282.613049 297.868659 
L 284.996419 297.359846 
L 290.416079 295.983936 
L 295.227056 294.500837 
L 300.493176 292.583531 
L 303.116123 291.509279 
L 309.705749 288.440848 
L 310.809168 287.873024 
L 316.638384 284.598454 
L 320.269364 282.310774 
L 324.800976 279.163873 
L 328.966249 275.958602 
L 333.388175 272.18987 
L 334.523047 271.156078 
L 339.625616 266.131367 
L 343.22296 262.170966 
L 346.669048 257.993551 
L 347.942474 256.341549 
L 352.035827 250.565149 
L 353.127205 248.887658 
L 356.818406 242.683288 
L 358.027031 240.440903 
L 361.815221 232.50707 
L 362.250529 231.48581 
L 365.432606 223.020057 
L 366.572995 219.396201 
L 368.007107 214.125603 
L 369.181565 208.871676 
L 369.8447 205.266524 
L 370.722247 199.053486 
L 371.160974 194.441779 
L 371.333806 191.764273 
L 371.495474 183.740638 
L 371.356308 179.293434 
L 371.057135 174.881337 
L 370.219813 167.664207 
L 369.177132 161.596013 
L 368.425204 158.064463 
L 366.550011 150.855164 
L 364.910115 145.670507 
L 364.166674 143.549751 
L 361.722135 137.302465 
L 359.681754 132.729649 
L 358.299336 129.883526 
L 353.270926 120.804032 
L 353.075579 120.484138 
L 349.869799 115.51504 
L 344.712216 108.447951 
L 342.031186 105.14106 
L 336.791624 99.267783 
L 335.930506 98.368645 
L 329.276168 91.961644 
L 327.452551 90.357462 
L 321.329303 85.387233 
L 319.547207 84.051877 
L 311.993214 78.88831 
L 305.706147 75.145989 
L 303.124729 73.742416 
L 300.036173 72.158907 
L 294.341498 69.499354 
L 288.116892 66.955685 
L 279.567504 64.038485 
L 276.277309 63.084371 
L 272.469743 62.092631 
L 263.797797 60.269468 
L 260.588546 59.744016 
L 255.925637 59.120811 
L 247.115683 58.3888 
L 242.826495 58.240369 
L 234.97539 58.318331 
L 231.719619 58.483121 
L 227.017543 58.858558 
L 221.116352 59.561073 
L 212.831643 60.988222 
L 205.278645 62.74938 
L 198.738717 64.641355 
L 195.513904 65.703988 
L 190.444515 67.553695 
L 184.431527 70.042965 
L 181.006708 71.610418 
L 171.36029 76.649909 
L 169.872545 77.514102 
L 165.066517 80.476327 
L 159.290198 84.40327 
L 155.561149 87.168845 
L 148.491693 92.964006 
L 144.061727 97.007701 
L 138.617119 102.479443 
L 134.87349 106.608542 
L 130.590833 111.758454 
L 126.959018 116.540332 
L 123.702533 121.209833 
L 121.18397 125.111669 
L 117.685312 131.036926 
L 115.284132 135.515603 
L 112.185242 141.928184 
L 111.135581 144.298999 
L 108.296292 151.370565 
L 106.417108 156.746768 
L 103.488402 166.901628 
L 102.280571 172.142137 
L 101.857582 174.217358 
L 100.243085 184.25796 
L 99.680488 189.482933 
L 99.252191 195.736375 
z
" clip-path="url(#p15b9bcd185)" style="fill: #ffb2df; opacity: 0.5"/>
   </g>
   <g id="patch_5">
    <path d="M 43.225852 195.736375 
L 43.911956 186.085692 
L 44.329556 182.105318 
L 46.320827 168.717719 
L 48.683361 157.583006 
L 49.351175 154.900864 
L 51.640506 146.691435 
L 54.449923 138.085086 
L 57.807875 129.207289 
L 62.526203 118.482038 
L 64.887787 113.68009 
L 68.357602 107.158153 
L 73.764674 98.01568 
L 77.353335 92.505816 
L 85.457566 81.357813 
L 91.111698 74.45056 
L 91.462117 74.042812 
L 97.035101 67.845707 
L 104.669235 60.146241 
L 113.30944 52.376071 
L 118.868817 47.8397 
L 123.436934 44.357389 
L 132.326395 38.160536 
L 139.06268 33.933099 
L 147.722681 29.040493 
L 151.96528 26.852207 
L 157.049918 24.401018 
L 170.453234 18.784797 
L 177.111596 16.425485 
L 183.365053 14.457053 
L 189.417816 12.773105 
L 197.696585 10.81244 
L 210.641199 8.516246 
L 214.55681 8.002553 
L 226.354426 6.954073 
L 232.512008 6.702348 
L 236.959505 6.646154 
L 251.138901 7.172234 
L 258.770884 7.903823 
L 262.87993 8.429565 
L 274.493795 10.424534 
L 278.647487 11.324485 
L 285.294715 12.975028 
L 294.714914 15.77177 
L 300.52683 17.77571 
L 307.685254 20.54999 
L 317.248585 24.813494 
L 324.865373 28.69764 
L 329.538651 31.310753 
L 333.651431 33.764006 
L 340.667931 38.303066 
L 348.472543 43.922976 
L 352.870374 47.381574 
L 363.054988 56.312366 
L 365.339243 58.513018 
L 369.995972 63.25399 
L 375.184269 68.982926 
L 379.807621 74.543609 
L 387.455063 84.888949 
L 390.120999 88.903732 
L 393.150221 93.778756 
L 398.902011 104.172436 
L 399.694628 105.747643 
L 404.597033 116.525302 
L 407.892033 125.125754 
L 409.845707 131.000862 
L 411.893682 138.085793 
L 413.16009 143.163093 
L 414.477756 149.329642 
L 416.154609 159.651959 
L 416.499014 162.468498 
L 417.394534 173.658844 
L 417.574148 181.706266 
L 417.325159 190.513383 
L 417.093034 194.053566 
L 416.376287 201.323665 
L 415.132992 209.761571 
L 413.863222 216.27656 
L 412.000352 223.987053 
L 409.535941 232.303294 
L 407.361369 238.544333 
L 405.820843 242.527986 
L 402.817515 249.515327 
L 400.188747 254.976407 
L 396.513918 261.832238 
L 394.501515 265.274014 
L 389.103731 273.636277 
L 383.977373 280.631421 
L 380.303042 285.185629 
L 375.25733 290.912971 
L 374.431502 291.79814 
L 366.946659 299.231742 
L 363.968695 301.921557 
L 360.14375 305.176607 
L 354.818544 309.364198 
L 346.791757 314.994401 
L 339.411837 319.522867 
L 338.628474 319.969796 
L 328.837731 325.047332 
L 322.240947 327.968519 
L 318.688183 329.385039 
L 313.873884 331.136288 
L 304.310913 334.063208 
L 297.430001 335.73284 
L 291.244777 336.93217 
L 287.418024 337.533895 
L 283.785388 338.006992 
L 274.857202 338.767273 
L 269.229169 338.953846 
L 265.055969 338.945952 
L 256.921833 338.570133 
L 249.462076 337.800551 
L 242.746885 336.751442 
L 235.864247 335.31435 
L 229.943654 333.773669 
L 228.300049 333.294335 
L 223.602593 331.796589 
L 218.096034 329.790996 
L 208.705534 325.704546 
L 205.822756 324.269055 
L 201.686156 322.049028 
L 195.848135 318.571735 
L 192.13569 316.133223 
L 185.499304 311.282523 
L 181.076607 307.656615 
L 176.884537 303.886806 
L 174.809271 301.886781 
L 169.972856 296.833856 
L 167.34721 293.829904 
L 164.261573 290.025061 
L 160.778692 285.31141 
L 156.07715 278.055302 
L 155.138481 276.453312 
L 151.799883 270.215259 
L 149.461456 265.201445 
L 146.774307 258.472169 
L 145.192894 253.784502 
L 143.872664 249.218059 
L 143.264787 246.821747 
L 142.048812 241.120381 
L 141.178591 235.622546 
L 140.521825 229.029813 
L 140.353048 225.784525 
L 140.325278 219.216768 
L 140.38633 217.535579 
L 140.930978 210.659439 
L 141.650585 205.549861 
L 142.564416 200.82639 
L 143.43974 197.181383 
L 145.273912 191.024402 
L 146.491012 187.621639 
L 147.005615 186.298502 
L 149.688922 180.216638 
L 152.48525 174.930307 
L 153.919041 172.521924 
L 156.882119 168.046428 
L 158.565931 165.754655 
L 161.489465 162.132823 
L 163.210276 160.185743 
L 166.854961 156.449 
L 168.572679 154.850408 
L 174.129121 150.293142 
L 175.146286 149.550927 
L 178.194333 147.481243 
L 182.447986 144.953598 
L 186.106429 143.089873 
L 188.308678 142.098051 
L 193.153708 140.243013 
L 195.983135 139.360263 
L 201.608743 138.030254 
L 202.725144 137.832705 
L 208.906244 137.135908 
L 211.004613 137.053704 
L 214.640979 137.101181 
L 216.149672 137.193273 
L 219.700087 137.583941 
L 225.626104 138.816778 
L 228.216501 139.605944 
L 229.850788 140.190178 
L 232.269921 141.187726 
L 236.520273 143.373418 
L 239.230383 145.106858 
L 242.039423 147.24951 
L 242.712328 147.824456 
L 245.306673 150.313716 
L 247.196963 152.464298 
L 248.786684 154.569323 
L 250.21717 156.780491 
L 251.476387 159.082361 
L 252.13504 160.476003 
L 253.045938 162.725947 
L 254.046899 165.950499 
L 254.494193 167.924886 
L 254.82705 169.936849 
L 255.123728 173.505831 
L 255.138035 175.094796 
L 254.971684 178.082939 
L 254.662354 180.444756 
L 254.190998 182.824345 
L 253.808125 184.332909 
L 253.015497 186.866069 
L 252.028587 189.401926 
L 251.162465 191.291449 
L 250.182822 193.175518 
L 248.655761 195.736375 
L 248.655761 195.736375 
L 249.591873 194.206156 
L 250.819677 191.928618 
L 251.864025 189.641618 
L 252.602686 187.719345 
L 253.429877 185.036098 
L 254.024674 182.365899 
L 254.398688 179.675717 
L 254.45973 178.969391 
L 254.550514 176.263676 
L 254.35295 172.983914 
L 253.793641 169.6433 
L 253.128221 167.151298 
L 252.404187 165.083561 
L 251.542391 163.078795 
L 250.893692 161.779469 
L 249.158787 158.872601 
L 247.902032 157.122249 
L 245.876448 154.725843 
L 244.929161 153.744318 
L 243.184784 152.120924 
L 241.324171 150.608765 
L 239.137079 149.06977 
L 237.962231 148.334761 
L 235.589251 147.020565 
L 232.553821 145.631029 
L 229.979744 144.676915 
L 225.545634 143.455542 
L 222.764313 142.935385 
L 219.794597 142.572421 
L 218.566842 142.477855 
L 214.691192 142.383843 
L 212.687531 142.453773 
L 207.776714 142.957656 
L 205.363821 143.376372 
L 200.322949 144.615848 
L 197.709109 145.455861 
L 195.212063 146.387711 
L 192.90505 147.364275 
L 188.865246 149.353943 
L 185.461418 151.324126 
L 183.178233 152.807727 
L 181.199183 154.206513 
L 178.140121 156.591313 
L 174.65385 159.675335 
L 170.627555 163.804268 
L 168.034476 166.848425 
L 165.870023 169.667776 
L 164.507288 171.594405 
L 162.176285 175.21308 
L 161.30937 176.680283 
L 157.870099 183.356746 
L 157.295084 184.642971 
L 155.519286 189.051263 
L 154.136326 193.105087 
L 152.934928 197.31955 
L 152.090979 200.910115 
L 151.217229 205.652251 
L 150.523699 211.24467 
L 150.396195 212.765871 
L 150.184505 216.715314 
L 150.245257 224.156042 
L 150.322663 225.551209 
L 151.158284 233.494651 
L 151.878644 237.725941 
L 152.676204 241.464179 
L 153.2097 243.635187 
L 155.517554 251.302263 
L 156.235526 253.314017 
L 159.183386 260.461626 
L 159.495961 261.138882 
L 162.983474 267.957186 
L 164.484038 270.556091 
L 168.83379 277.262605 
L 169.440241 278.116406 
L 172.375636 282.017723 
L 176.286701 286.703732 
L 178.754724 289.406969 
L 182.214964 292.913957 
L 185.853331 296.288785 
L 190.10182 299.875547 
L 197.638884 305.436022 
L 200.404733 307.250148 
L 203.392377 309.086568 
L 208.545875 311.974714 
L 212.731164 314.078402 
L 219.539044 317.074891 
L 222.558786 318.245886 
L 226.560778 319.656209 
L 234.566132 322.017483 
L 240.210385 323.332479 
L 244.5702 324.158804 
L 249.21163 324.862319 
L 257.245783 325.662031 
L 259.276564 325.78179 
L 264.3533 325.937731 
L 269.846949 325.877279 
L 280.191498 325.119559 
L 284.551653 324.54724 
L 287.071208 324.14749 
L 297.917201 321.839124 
L 301.139495 320.965479 
L 307.37371 319.022294 
L 309.39107 318.320323 
L 318.967178 314.477872 
L 323.064405 312.564128 
L 326.169224 311.000067 
L 333.691633 306.77923 
L 339.905969 302.795273 
L 345.259742 298.964981 
L 349.218321 295.872956 
L 354.39737 291.459223 
L 356.086279 289.921875 
L 360.062074 286.094418 
L 365.852082 279.93627 
L 369.249158 275.952213 
L 374.650229 268.940462 
L 376.051701 266.96387 
L 379.450625 261.852465 
L 384.008074 254.150028 
L 386.877666 248.662546 
L 388.404422 245.488312 
L 391.581032 238.154851 
L 393.305724 233.639718 
L 396.016361 225.431956 
L 396.99526 221.995726 
L 398.591772 215.556513 
L 400.484877 205.514598 
L 401.444521 197.981649 
L 401.749304 194.608871 
L 402.088134 188.983391 
L 402.17214 178.973016 
L 402.098363 176.680696 
L 401.572493 168.714665 
L 400.74019 161.550017 
L 399.920274 156.347995 
L 398.409942 148.832685 
L 397.335028 144.399987 
L 394.646763 135.176061 
L 393.527721 131.862728 
L 389.486284 121.51817 
L 387.569668 117.258117 
L 385.664413 113.328997 
L 382.687037 107.686881 
L 378.463986 100.512746 
L 375.241114 95.559715 
L 370.818703 89.355991 
L 363.895508 80.753205 
L 359.465696 75.829407 
L 354.658684 70.91635 
L 350.55847 67.037939 
L 347.837921 64.608413 
L 338.22524 56.839226 
L 335.63228 54.940745 
L 331.342815 51.966831 
L 319.869705 44.94315 
L 319.057758 44.493617 
L 308.050478 38.963797 
L 305.795527 37.954395 
L 298.997092 35.149429 
L 290.109627 31.996424 
L 286.300765 30.815096 
L 275.525254 27.999199 
L 267.146895 26.326471 
L 262.891629 25.644375 
L 252.268132 24.421727 
L 248.236878 24.134517 
L 238.036401 23.836164 
L 231.919074 23.950136 
L 225.768636 24.285872 
L 221.557331 24.644034 
L 210.065039 26.156891 
L 201.682391 27.763 
L 193.373057 29.785245 
L 188.330758 31.227158 
L 180.88476 33.663041 
L 178.963824 34.352363 
L 169.725499 38.030341 
L 159.410592 42.885233 
L 158.046044 43.590086 
L 151.239565 47.337448 
L 142.359162 52.84327 
L 138.801852 55.260096 
L 128.006323 63.417884 
L 122.504318 68.104868 
L 117.780518 72.452007 
L 110.654763 79.647189 
L 109.488609 80.905411 
L 101.275891 90.510583 
L 100.254834 91.805695 
L 93.324507 101.303067 
L 88.796376 108.294731 
L 87.190107 110.955688 
L 82.57996 119.228893 
L 77.559214 129.607609 
L 74.924459 135.833382 
L 72.558513 142.050972 
L 70.896282 146.881043 
L 67.175236 159.778397 
L 66.487693 162.633221 
L 64.830447 170.548686 
L 62.94579 182.989497 
L 62.482619 187.415394 
L 61.901298 195.736375 
z
" clip-path="url(#p15b9bcd185)" style="fill: #fff2b2; opacity: 0.5"/>
   </g>
   <g id="matplotlib.axis_1">
    <g id="xtick_1">
     <g id="line2d_1">
      <defs>
       <path id="m35fb75b11c" d="M 0 0 
L 0 3.5 
" style="stroke: #000000; stroke-width: 0.8"/>
      </defs>
      <g>
       <use xlink:href="#m35fb75b11c" x="82.159125" y="195.736375" style="stroke: #000000; stroke-width: 0.8"/>
      </g>
     </g>
     <g id="text_1">
      <!-- −4 -->
      <g transform="translate(74.788031 210.334813) scale(0.1 -0.1)">
       <defs>
        <path id="DejaVuSans-2212" d="M 678 2272 
L 4684 2272 
L 4684 1741 
L 678 1741 
L 678 2272 
z
" transform="scale(0.015625)"/>
        <path id="DejaVuSans-34" d="M 2419 4116 
L 825 1625 
L 2419 1625 
L 2419 4116 
z
M 2253 4666 
L 3047 4666 
L 3047 1625 
L 3713 1625 
L 3713 1100 
L 3047 1100 
L 3047 0 
L 2419 0 
L 2419 1100 
L 313 1100 
L 313 1709 
L 2253 4666 
z
" transform="scale(0.015625)"/>
       </defs>
       <use xlink:href="#DejaVuSans-2212"/>
       <use xlink:href="#DejaVuSans-34" x="83.789062"/>
      </g>
     </g>
    </g>
    <g id="xtick_2">
     <g id="line2d_2">
      <g>
       <use xlink:href="#m35fb75b11c" x="165.407443" y="195.736375" style="stroke: #000000; stroke-width: 0.8"/>
      </g>
     </g>
     <g id="text_2">
      <!-- −2 -->
      <g transform="translate(158.036349 210.334813) scale(0.1 -0.1)">
       <defs>
        <path id="DejaVuSans-32" d="M 1228 531 
L 3431 531 
L 3431 0 
L 469 0 
L 469 531 
Q 828 903 1448 1529 
Q 2069 2156 2228 2338 
Q 2531 2678 2651 2914 
Q 2772 3150 2772 3378 
Q 2772 3750 2511 3984 
Q 2250 4219 1831 4219 
Q 1534 4219 1204 4116 
Q 875 4013 500 3803 
L 500 4441 
Q 881 4594 1212 4672 
Q 1544 4750 1819 4750 
Q 2544 4750 2975 4387 
Q 3406 4025 3406 3419 
Q 3406 3131 3298 2873 
Q 3191 2616 2906 2266 
Q 2828 2175 2409 1742 
Q 1991 1309 1228 531 
z
" transform="scale(0.015625)"/>
       </defs>
       <use xlink:href="#DejaVuSans-2212"/>
       <use xlink:href="#DejaVuSans-32" x="83.789062"/>
      </g>
     </g>
    </g>
    <g id="xtick_3">
     <g id="line2d_3">
      <g>
       <use xlink:href="#m35fb75b11c" x="248.655761" y="195.736375" style="stroke: #000000; stroke-width: 0.8"/>
      </g>
     </g>
    </g>
    <g id="xtick_4">
     <g id="line2d_4">
      <g>
       <use xlink:href="#m35fb75b11c" x="331.904079" y="195.736375" style="stroke: #000000; stroke-width: 0.8"/>
      </g>
     </g>
     <g id="text_3">
      <!-- 2 -->
      <g transform="translate(328.722829 210.334813) scale(0.1 -0.1)">
       <use xlink:href="#DejaVuSans-32"/>
      </g>
     </g>
    </g>
    <g id="xtick_5">
     <g id="line2d_5">
      <g>
       <use xlink:href="#m35fb75b11c" x="415.152397" y="195.736375" style="stroke: #000000; stroke-width: 0.8"/>
      </g>
     </g>
     <g id="text_4">
      <!-- 4 -->
      <g transform="translate(411.971147 210.334813) scale(0.1 -0.1)">
       <use xlink:href="#DejaVuSans-34"/>
      </g>
     </g>
    </g>
    <g id="xtick_6">
     <g id="line2d_6">
      <defs>
       <path id="m7a59d90bfe" d="M 0 0 
L 0 2 
" style="stroke: #000000; stroke-width: 0.6"/>
      </defs>
      <g>
       <use xlink:href="#m7a59d90bfe" x="40.534966" y="195.736375" style="stroke: #000000; stroke-width: 0.6"/>
      </g>
     </g>
    </g>
    <g id="xtick_7">
     <g id="line2d_7">
      <g>
       <use xlink:href="#m7a59d90bfe" x="61.347045" y="195.736375" style="stroke: #000000; stroke-width: 0.6"/>
      </g>
     </g>
    </g>
    <g id="xtick_8">
     <g id="line2d_8">
      <g>
       <use xlink:href="#m7a59d90bfe" x="102.971204" y="195.736375" style="stroke: #000000; stroke-width: 0.6"/>
      </g>
     </g>
    </g>
    <g id="xtick_9">
     <g id="line2d_9">
      <g>
       <use xlink:href="#m7a59d90bfe" x="123.783284" y="195.736375" style="stroke: #000000; stroke-width: 0.6"/>
      </g>
     </g>
    </g>
    <g id="xtick_10">
     <g id="line2d_10">
      <g>
       <use xlink:href="#m7a59d90bfe" x="144.595363" y="195.736375" style="stroke: #000000; stroke-width: 0.6"/>
      </g>
     </g>
    </g>
    <g id="xtick_11">
     <g id="line2d_11">
      <g>
       <use xlink:href="#m7a59d90bfe" x="186.219522" y="195.736375" style="stroke: #000000; stroke-width: 0.6"/>
      </g>
     </g>
    </g>
    <g id="xtick_12">
     <g id="line2d_12">
      <g>
       <use xlink:href="#m7a59d90bfe" x="207.031602" y="195.736375" style="stroke: #000000; stroke-width: 0.6"/>
      </g>
     </g>
    </g>
    <g id="xtick_13">
     <g id="line2d_13">
      <g>
       <use xlink:href="#m7a59d90bfe" x="227.843681" y="195.736375" style="stroke: #000000; stroke-width: 0.6"/>
      </g>
     </g>
    </g>
    <g id="xtick_14">
     <g id="line2d_14">
      <g>
       <use xlink:href="#m7a59d90bfe" x="269.46784" y="195.736375" style="stroke: #000000; stroke-width: 0.6"/>
      </g>
     </g>
    </g>
    <g id="xtick_15">
     <g id="line2d_15">
      <g>
       <use xlink:href="#m7a59d90bfe" x="290.27992" y="195.736375" style="stroke: #000000; stroke-width: 0.6"/>
      </g>
     </g>
    </g>
    <g id="xtick_16">
     <g id="line2d_16">
      <g>
       <use xlink:href="#m7a59d90bfe" x="311.091999" y="195.736375" style="stroke: #000000; stroke-width: 0.6"/>
      </g>
     </g>
    </g>
    <g id="xtick_17">
     <g id="line2d_17">
      <g>
       <use xlink:href="#m7a59d90bfe" x="352.716158" y="195.736375" style="stroke: #000000; stroke-width: 0.6"/>
      </g>
     </g>
    </g>
    <g id="xtick_18">
     <g id="line2d_18">
      <g>
       <use xlink:href="#m7a59d90bfe" x="373.528238" y="195.736375" style="stroke: #000000; stroke-width: 0.6"/>
      </g>
     </g>
    </g>
    <g id="xtick_19">
     <g id="line2d_19">
      <g>
       <use xlink:href="#m7a59d90bfe" x="394.340317" y="195.736375" style="stroke: #000000; stroke-width: 0.6"/>
      </g>
     </g>
    </g>
   </g>
   <g id="matplotlib.axis_2">
    <g id="ytick_1">
     <g id="line2d_20">
      <defs>
       <path id="m562f8376fa" d="M 0 0 
L -3.5 0 
" style="stroke: #000000; stroke-width: 0.8"/>
      </defs>
      <g>
       <use xlink:href="#m562f8376fa" x="248.655761" y="320.608853" style="stroke: #000000; stroke-width: 0.8"/>
      </g>
     </g>
     <g id="text_5">
      <!-- −3 -->
      <g transform="translate(226.913573 324.408071) scale(0.1 -0.1)">
       <defs>
        <path id="DejaVuSans-33" d="M 2597 2516 
Q 3050 2419 3304 2112 
Q 3559 1806 3559 1356 
Q 3559 666 3084 287 
Q 2609 -91 1734 -91 
Q 1441 -91 1130 -33 
Q 819 25 488 141 
L 488 750 
Q 750 597 1062 519 
Q 1375 441 1716 441 
Q 2309 441 2620 675 
Q 2931 909 2931 1356 
Q 2931 1769 2642 2001 
Q 2353 2234 1838 2234 
L 1294 2234 
L 1294 2753 
L 1863 2753 
Q 2328 2753 2575 2939 
Q 2822 3125 2822 3475 
Q 2822 3834 2567 4026 
Q 2313 4219 1838 4219 
Q 1578 4219 1281 4162 
Q 984 4106 628 3988 
L 628 4550 
Q 988 4650 1302 4700 
Q 1616 4750 1894 4750 
Q 2613 4750 3031 4423 
Q 3450 4097 3450 3541 
Q 3450 3153 3228 2886 
Q 3006 2619 2597 2516 
z
" transform="scale(0.015625)"/>
       </defs>
       <use xlink:href="#DejaVuSans-2212"/>
       <use xlink:href="#DejaVuSans-33" x="83.789062"/>
      </g>
     </g>
    </g>
    <g id="ytick_2">
     <g id="line2d_21">
      <g>
       <use xlink:href="#m562f8376fa" x="248.655761" y="278.984693" style="stroke: #000000; stroke-width: 0.8"/>
      </g>
     </g>
     <g id="text_6">
      <!-- −2 -->
      <g transform="translate(226.913573 282.783912) scale(0.1 -0.1)">
       <use xlink:href="#DejaVuSans-2212"/>
       <use xlink:href="#DejaVuSans-32" x="83.789062"/>
      </g>
     </g>
    </g>
    <g id="ytick_3">
     <g id="line2d_22">
      <g>
       <use xlink:href="#m562f8376fa" x="248.655761" y="237.360534" style="stroke: #000000; stroke-width: 0.8"/>
      </g>
     </g>
     <g id="text_7">
      <!-- −1 -->
      <g transform="translate(226.913573 241.159753) scale(0.1 -0.1)">
       <defs>
        <path id="DejaVuSans-31" d="M 794 531 
L 1825 531 
L 1825 4091 
L 703 3866 
L 703 4441 
L 1819 4666 
L 2450 4666 
L 2450 531 
L 3481 531 
L 3481 0 
L 794 0 
L 794 531 
z
" transform="scale(0.015625)"/>
       </defs>
       <use xlink:href="#DejaVuSans-2212"/>
       <use xlink:href="#DejaVuSans-31" x="83.789062"/>
      </g>
     </g>
    </g>
    <g id="ytick_4">
     <g id="line2d_23">
      <g>
       <use xlink:href="#m562f8376fa" x="248.655761" y="195.736375" style="stroke: #000000; stroke-width: 0.8"/>
      </g>
     </g>
    </g>
    <g id="ytick_5">
     <g id="line2d_24">
      <g>
       <use xlink:href="#m562f8376fa" x="248.655761" y="154.112216" style="stroke: #000000; stroke-width: 0.8"/>
      </g>
     </g>
     <g id="text_8">
      <!-- 1 -->
      <g transform="translate(235.293261 157.911435) scale(0.1 -0.1)">
       <use xlink:href="#DejaVuSans-31"/>
      </g>
     </g>
    </g>
    <g id="ytick_6">
     <g id="line2d_25">
      <g>
       <use xlink:href="#m562f8376fa" x="248.655761" y="112.488057" style="stroke: #000000; stroke-width: 0.8"/>
      </g>
     </g>
     <g id="text_9">
      <!-- 2 -->
      <g transform="translate(235.293261 116.287276) scale(0.1 -0.1)">
       <use xlink:href="#DejaVuSans-32"/>
      </g>
     </g>
    </g>
    <g id="ytick_7">
     <g id="line2d_26">
      <g>
       <use xlink:href="#m562f8376fa" x="248.655761" y="70.863898" style="stroke: #000000; stroke-width: 0.8"/>
      </g>
     </g>
     <g id="text_10">
      <!-- 3 -->
      <g transform="translate(235.293261 74.663117) scale(0.1 -0.1)">
       <use xlink:href="#DejaVuSans-33"/>
      </g>
     </g>
    </g>
    <g id="ytick_8">
     <g id="line2d_27">
      <g>
       <use xlink:href="#m562f8376fa" x="248.655761" y="29.239739" style="stroke: #000000; stroke-width: 0.8"/>
      </g>
     </g>
     <g id="text_11">
      <!-- 4 -->
      <g transform="translate(235.293261 33.038958) scale(0.1 -0.1)">
       <use xlink:href="#DejaVuSans-34"/>
      </g>
     </g>
    </g>
    <g id="ytick_9">
     <g id="line2d_28">
      <defs>
       <path id="m8a4a2e6a5b" d="M 0 0 
L -2 0 
" style="stroke: #000000; stroke-width: 0.6"/>
      </defs>
      <g>
       <use xlink:href="#m8a4a2e6a5b" x="248.655761" y="345.583348" style="stroke: #000000; stroke-width: 0.6"/>
      </g>
     </g>
    </g>
    <g id="ytick_10">
     <g id="line2d_29">
      <g>
       <use xlink:href="#m8a4a2e6a5b" x="248.655761" y="337.258516" style="stroke: #000000; stroke-width: 0.6"/>
      </g>
     </g>
    </g>
    <g id="ytick_11">
     <g id="line2d_30">
      <g>
       <use xlink:href="#m8a4a2e6a5b" x="248.655761" y="328.933684" style="stroke: #000000; stroke-width: 0.6"/>
      </g>
     </g>
    </g>
    <g id="ytick_12">
     <g id="line2d_31">
      <g>
       <use xlink:href="#m8a4a2e6a5b" x="248.655761" y="312.284021" style="stroke: #000000; stroke-width: 0.6"/>
      </g>
     </g>
    </g>
    <g id="ytick_13">
     <g id="line2d_32">
      <g>
       <use xlink:href="#m8a4a2e6a5b" x="248.655761" y="303.959189" style="stroke: #000000; stroke-width: 0.6"/>
      </g>
     </g>
    </g>
    <g id="ytick_14">
     <g id="line2d_33">
      <g>
       <use xlink:href="#m8a4a2e6a5b" x="248.655761" y="295.634357" style="stroke: #000000; stroke-width: 0.6"/>
      </g>
     </g>
    </g>
    <g id="ytick_15">
     <g id="line2d_34">
      <g>
       <use xlink:href="#m8a4a2e6a5b" x="248.655761" y="287.309525" style="stroke: #000000; stroke-width: 0.6"/>
      </g>
     </g>
    </g>
    <g id="ytick_16">
     <g id="line2d_35">
      <g>
       <use xlink:href="#m8a4a2e6a5b" x="248.655761" y="270.659862" style="stroke: #000000; stroke-width: 0.6"/>
      </g>
     </g>
    </g>
    <g id="ytick_17">
     <g id="line2d_36">
      <g>
       <use xlink:href="#m8a4a2e6a5b" x="248.655761" y="262.33503" style="stroke: #000000; stroke-width: 0.6"/>
      </g>
     </g>
    </g>
    <g id="ytick_18">
     <g id="line2d_37">
      <g>
       <use xlink:href="#m8a4a2e6a5b" x="248.655761" y="254.010198" style="stroke: #000000; stroke-width: 0.6"/>
      </g>
     </g>
    </g>
    <g id="ytick_19">
     <g id="line2d_38">
      <g>
       <use xlink:href="#m8a4a2e6a5b" x="248.655761" y="245.685366" style="stroke: #000000; stroke-width: 0.6"/>
      </g>
     </g>
    </g>
    <g id="ytick_20">
     <g id="line2d_39">
      <g>
       <use xlink:href="#m8a4a2e6a5b" x="248.655761" y="229.035703" style="stroke: #000000; stroke-width: 0.6"/>
      </g>
     </g>
    </g>
    <g id="ytick_21">
     <g id="line2d_40">
      <g>
       <use xlink:href="#m8a4a2e6a5b" x="248.655761" y="220.710871" style="stroke: #000000; stroke-width: 0.6"/>
      </g>
     </g>
    </g>
    <g id="ytick_22">
     <g id="line2d_41">
      <g>
       <use xlink:href="#m8a4a2e6a5b" x="248.655761" y="212.386039" style="stroke: #000000; stroke-width: 0.6"/>
      </g>
     </g>
    </g>
    <g id="ytick_23">
     <g id="line2d_42">
      <g>
       <use xlink:href="#m8a4a2e6a5b" x="248.655761" y="204.061207" style="stroke: #000000; stroke-width: 0.6"/>
      </g>
     </g>
    </g>
    <g id="ytick_24">
     <g id="line2d_43">
      <g>
       <use xlink:href="#m8a4a2e6a5b" x="248.655761" y="187.411544" style="stroke: #000000; stroke-width: 0.6"/>
      </g>
     </g>
    </g>
    <g id="ytick_25">
     <g id="line2d_44">
      <g>
       <use xlink:href="#m8a4a2e6a5b" x="248.655761" y="179.086712" style="stroke: #000000; stroke-width: 0.6"/>
      </g>
     </g>
    </g>
    <g id="ytick_26">
     <g id="line2d_45">
      <g>
       <use xlink:href="#m8a4a2e6a5b" x="248.655761" y="170.76188" style="stroke: #000000; stroke-width: 0.6"/>
      </g>
     </g>
    </g>
    <g id="ytick_27">
     <g id="line2d_46">
      <g>
       <use xlink:href="#m8a4a2e6a5b" x="248.655761" y="162.437048" style="stroke: #000000; stroke-width: 0.6"/>
      </g>
     </g>
    </g>
    <g id="ytick_28">
     <g id="line2d_47">
      <g>
       <use xlink:href="#m8a4a2e6a5b" x="248.655761" y="145.787385" style="stroke: #000000; stroke-width: 0.6"/>
      </g>
     </g>
    </g>
    <g id="ytick_29">
     <g id="line2d_48">
      <g>
       <use xlink:href="#m8a4a2e6a5b" x="248.655761" y="137.462553" style="stroke: #000000; stroke-width: 0.6"/>
      </g>
     </g>
    </g>
    <g id="ytick_30">
     <g id="line2d_49">
      <g>
       <use xlink:href="#m8a4a2e6a5b" x="248.655761" y="129.137721" style="stroke: #000000; stroke-width: 0.6"/>
      </g>
     </g>
    </g>
    <g id="ytick_31">
     <g id="line2d_50">
      <g>
       <use xlink:href="#m8a4a2e6a5b" x="248.655761" y="120.812889" style="stroke: #000000; stroke-width: 0.6"/>
      </g>
     </g>
    </g>
    <g id="ytick_32">
     <g id="line2d_51">
      <g>
       <use xlink:href="#m8a4a2e6a5b" x="248.655761" y="104.163226" style="stroke: #000000; stroke-width: 0.6"/>
      </g>
     </g>
    </g>
    <g id="ytick_33">
     <g id="line2d_52">
      <g>
       <use xlink:href="#m8a4a2e6a5b" x="248.655761" y="95.838394" style="stroke: #000000; stroke-width: 0.6"/>
      </g>
     </g>
    </g>
    <g id="ytick_34">
     <g id="line2d_53">
      <g>
       <use xlink:href="#m8a4a2e6a5b" x="248.655761" y="87.513562" style="stroke: #000000; stroke-width: 0.6"/>
      </g>
     </g>
    </g>
    <g id="ytick_35">
     <g id="line2d_54">
      <g>
       <use xlink:href="#m8a4a2e6a5b" x="248.655761" y="79.18873" style="stroke: #000000; stroke-width: 0.6"/>
      </g>
     </g>
    </g>
    <g id="ytick_36">
     <g id="line2d_55">
      <g>
       <use xlink:href="#m8a4a2e6a5b" x="248.655761" y="62.539067" style="stroke: #000000; stroke-width: 0.6"/>
      </g>
     </g>
    </g>
    <g id="ytick_37">
     <g id="line2d_56">
      <g>
       <use xlink:href="#m8a4a2e6a5b" x="248.655761" y="54.214235" style="stroke: #000000; stroke-width: 0.6"/>
      </g>
     </g>
    </g>
    <g id="ytick_38">
     <g id="line2d_57">
      <g>
       <use xlink:href="#m8a4a2e6a5b" x="248.655761" y="45.889403" style="stroke: #000000; stroke-width: 0.6"/>
      </g>
     </g>
    </g>
    <g id="ytick_39">
     <g id="line2d_58">
      <g>
       <use xlink:href="#m8a4a2e6a5b" x="248.655761" y="37.564571" style="stroke: #000000; stroke-width: 0.6"/>
      </g>
     </g>
    </g>
    <g id="ytick_40">
     <g id="line2d_59">
      <g>
       <use xlink:href="#m8a4a2e6a5b" x="248.655761" y="20.914908" style="stroke: #000000; stroke-width: 0.6"/>
      </g>
     </g>
    </g>
    <g id="ytick_41">
     <g id="line2d_60">
      <g>
       <use xlink:href="#m8a4a2e6a5b" x="248.655761" y="12.590076" style="stroke: #000000; stroke-width: 0.6"/>
      </g>
     </g>
    </g>
    <g id="ytick_42">
     <g id="line2d_61">
      <g>
       <use xlink:href="#m8a4a2e6a5b" x="248.655761" y="4.265244" style="stroke: #000000; stroke-width: 0.6"/>
      </g>
     </g>
    </g>
   </g>
   <g id="line2d_62">
    <path d="M 248.655761 195.736375 
L 249.707459 193.933683 
L 250.395999 192.509941 
L 250.983801 191.039086 
L 251.71036 188.538255 
L 251.977852 187.103453 
L 252.187958 183.763226 
L 251.851723 180.624965 
L 251.364754 178.6679 
L 250.158842 175.672721 
L 248.785629 173.365591 
L 247.02144 171.166004 
L 244.850528 169.126986 
L 242.890122 167.70107 
L 241.424258 166.828001 
L 238.759596 165.578504 
L 235.992856 164.661824 
L 233.683977 164.149066 
L 231.286629 163.833331 
L 228.525851 163.722158 
L 225.442038 163.899612 
L 223.249581 164.213585 
L 219.433058 165.130738 
L 217.192597 165.892873 
L 212.860846 167.864305 
L 211.8062 168.450479 
L 208.231822 170.78179 
L 204.205531 174.146248 
L 201.523231 176.931639 
L 199.742018 179.088206 
L 197.437761 182.34963 
L 194.771636 187.071147 
L 194.008366 188.697813 
L 192.923536 191.325947 
L 191.723008 194.882713 
L 191.012335 197.534529 
L 190.324266 200.883326 
L 189.868745 204.127026 
L 189.564424 208.616392 
L 189.656824 213.639906 
L 189.894353 216.360628 
L 190.536158 220.650175 
L 191.356677 224.353115 
L 193.066889 229.908452 
L 194.732665 234.04069 
L 195.736843 236.182292 
L 198.351287 240.958808 
L 200.195788 243.83248 
L 202.397527 246.875488 
L 205.380801 250.482115 
L 209.095198 254.335765 
L 212.345697 257.252226 
L 216.18848 260.254758 
L 218.690272 261.987062 
L 223.414639 264.844832 
L 226.886546 266.638629 
L 233.055038 269.26345 
L 239.507525 271.322194 
L 241.657042 271.86473 
L 245.878847 272.733416 
L 251.805598 273.530412 
L 258.650747 273.861131 
L 264.783112 273.633438 
L 269.064698 273.182141 
L 272.516583 272.641682 
L 276.306683 271.863658 
L 279.647882 271.013933 
L 282.516751 270.158443 
L 286.05111 268.939246 
L 288.647901 267.92294 
L 295.456628 264.741584 
L 301.581632 261.176734 
L 305.456002 258.53194 
L 307.878725 256.706232 
L 312.93502 252.412877 
L 315.764734 249.684449 
L 318.270146 247.041052 
L 321.991263 242.650588 
L 323.545987 240.623197 
L 325.666111 237.639902 
L 328.834876 232.607161 
L 332.204575 226.225193 
L 334.080902 221.998666 
L 336.293573 216.032637 
L 337.151309 213.28646 
L 338.393204 208.602159 
L 339.523426 203.026291 
L 340.164203 198.579349 
L 340.657069 192.890794 
L 340.785574 186.741781 
L 340.630469 182.477298 
L 339.922495 175.339847 
L 339.078658 170.293083 
L 337.620863 164.014795 
L 335.854964 158.211767 
L 334.481729 154.441653 
L 332.42067 149.552079 
L 328.902619 142.597622 
L 327.002311 139.348952 
L 323.712174 134.332687 
L 321.765577 131.658219 
L 317.340318 126.218221 
L 315.764421 124.462677 
L 312.255165 120.842059 
L 309.036129 117.82928 
L 305.220527 114.589417 
L 298.484381 109.620039 
L 293.912248 106.718753 
L 289.442882 104.206735 
L 283.632567 101.374355 
L 275.281829 98.077258 
L 266.805112 95.574756 
L 259.819573 94.102446 
L 254.303245 93.297523 
L 247.281954 92.714904 
L 240.92349 92.606256 
L 233.05793 93.018673 
L 228.280738 93.565869 
L 220.839104 94.873202 
L 213.192819 96.812413 
L 210.015871 97.803049 
L 204.219501 99.903922 
L 198.881211 102.191716 
L 192.586174 105.358088 
L 185.995474 109.270957 
L 179.198922 114.032576 
L 174.028379 118.226097 
L 168.450662 123.404074 
L 162.793051 129.498399 
L 158.845363 134.37565 
L 154.676423 140.238909 
L 151.780107 144.861649 
L 148.580745 150.660998 
L 146.260653 155.473458 
L 143.68944 161.655436 
L 141.886868 166.769609 
L 140.164825 172.615388 
L 138.690483 178.928855 
L 137.476322 186.129205 
L 136.777604 192.844441 
L 136.603083 195.736375 
L 136.603083 195.736375 
" clip-path="url(#p15b9bcd185)" style="fill: none; stroke: #0000cc; stroke-linecap: square"/>
   </g>
   <g id="line2d_63">
    <path d="M 248.655761 195.736375 
L 250.339892 192.724025 
L 251.52446 189.817511 
L 252.00166 188.230999 
L 252.528401 185.685575 
L 252.723657 183.930289 
L 252.782625 182.184997 
L 252.632565 179.711828 
L 252.369726 178.03101 
L 251.714786 175.500974 
L 251.306482 174.348586 
L 250.338116 172.188902 
L 249.016787 169.945046 
L 247.881397 168.390975 
L 246.258823 166.555421 
L 243.975716 164.498336 
L 242.656411 163.51663 
L 240.342245 162.077723 
L 237.502991 160.711422 
L 235.579654 159.993787 
L 231.409694 158.924302 
L 229.173709 158.594445 
L 225.555797 158.386007 
L 222.909364 158.474196 
L 220.11783 158.779727 
L 215.624792 159.724248 
L 211.540942 161.075609 
L 207.853828 162.720915 
L 203.976266 164.926507 
L 200.184063 167.617603 
L 199.209149 168.405795 
L 195.477969 171.847137 
L 192.670847 174.964373 
L 191.323943 176.659629 
L 189.815943 178.743527 
L 187.493776 182.430993 
L 185.607885 186.002529 
L 184.139321 189.308027 
L 183.326004 191.423422 
L 182.254839 194.671106 
L 181.496899 197.45664 
L 180.915504 200.059129 
L 180.163531 204.726456 
L 179.723139 210.509274 
L 179.710618 214.011222 
L 180.076215 219.57409 
L 180.345685 221.738502 
L 180.826645 224.679975 
L 181.867794 229.359456 
L 184.279264 236.885527 
L 185.608472 240.115492 
L 187.456668 243.997064 
L 190.323572 249.079097 
L 191.894558 251.516417 
L 195.098692 255.928379 
L 198.800393 260.30872 
L 201.236061 262.862601 
L 203.233395 264.793916 
L 208.267148 269.110235 
L 212.270273 272.065366 
L 216.901467 275.03992 
L 220.866358 277.254235 
L 223.666398 278.651052 
L 227.671999 280.427738 
L 232.303318 282.179999 
L 237.507311 283.790665 
L 241.474334 284.779254 
L 244.619437 285.422551 
L 248.528269 286.054615 
L 253.599791 286.606069 
L 259.967282 286.880171 
L 267.723876 286.596381 
L 273.461307 285.951175 
L 279.294844 284.910614 
L 284.918043 283.531018 
L 292.277665 281.141954 
L 299.06514 278.31319 
L 302.871501 276.44366 
L 309.585864 272.601675 
L 314.201258 269.516011 
L 317.821246 266.811444 
L 321.500221 263.777271 
L 325.132763 260.464408 
L 328.813568 256.740131 
L 331.552288 253.692751 
L 334.025589 250.706897 
L 337.923365 245.465518 
L 340.117925 242.165878 
L 343.710284 236.062396 
L 345.121533 233.363832 
L 347.036239 229.348342 
L 348.651639 225.558255 
L 351.169038 218.588742 
L 352.663148 213.48565 
L 354.283495 206.372322 
L 355.199881 200.752636 
L 355.985062 192.516949 
L 356.132732 184.7338 
L 355.843503 178.556862 
L 355.31129 173.282552 
L 353.637615 163.592466 
L 352.232064 157.935923 
L 351.256123 154.620949 
L 349.184591 148.600239 
L 346.742181 142.6557 
L 343.822026 136.604569 
L 340.194352 130.171103 
L 338.431664 127.3697 
L 334.906441 122.26437 
L 332.655926 119.296221 
L 329.451363 115.396463 
L 326.981063 112.618379 
L 323.778582 109.274635 
L 318.327803 104.160901 
L 310.373692 97.783528 
L 303.691059 93.251486 
L 299.260893 90.605834 
L 295.258233 88.4386 
L 292.192375 86.912852 
L 285.181405 83.832202 
L 279.788648 81.824531 
L 272.518888 79.581879 
L 266.270174 78.056754 
L 261.663969 77.160631 
L 254.968983 76.192208 
L 247.829746 75.58468 
L 238.161924 75.447597 
L 230.526881 75.892837 
L 224.635033 76.572257 
L 217.257669 77.842349 
L 210.874841 79.327133 
L 206.515957 80.553441 
L 202.82355 81.731375 
L 197.633484 83.610403 
L 194.419179 84.909778 
L 187.211683 88.22154 
L 180.958821 91.572055 
L 174.895027 95.286023 
L 170.99062 97.942434 
L 165.278389 102.242874 
L 162.870065 104.216966 
L 156.312115 110.140411 
L 150.978116 115.63951 
L 145.206171 122.436099 
L 143.502336 124.642783 
L 139.986973 129.540487 
L 137.253836 133.722111 
L 133.562686 140.016529 
L 130.95142 145.040492 
L 129.405905 148.298708 
L 127.690472 152.224455 
L 124.039239 162.104717 
L 122.641785 166.719333 
L 120.708335 174.479499 
L 119.202802 182.723492 
L 118.318516 190.086421 
L 117.927637 195.736375 
L 117.927637 195.736375 
" clip-path="url(#p15b9bcd185)" style="fill: none; stroke: #3ccc00; stroke-linecap: square"/>
   </g>
   <g id="line2d_64">
    <path d="M 248.655761 195.736375 
L 249.647091 194.088182 
L 250.696729 192.048415 
L 251.599831 189.90877 
L 252.310798 187.769437 
L 252.960743 184.985192 
L 253.224478 183.138588 
L 253.37129 180.128202 
L 253.194485 177.370146 
L 252.937066 175.692975 
L 252.512605 173.830588 
L 251.952535 172.019178 
L 250.332266 168.357638 
L 248.548015 165.510801 
L 246.923122 163.47144 
L 243.808345 160.443572 
L 240.901651 158.312987 
L 238.738265 157.043063 
L 236.837214 156.108816 
L 234.793948 155.269492 
L 230.973479 154.098626 
L 228.695509 153.620338 
L 225.510039 153.200142 
L 222.564954 153.052798 
L 220.154897 153.096242 
L 216.746507 153.40174 
L 211.406273 154.446325 
L 209.277536 155.05649 
L 205.428598 156.448756 
L 203.24734 157.409387 
L 200.259953 158.938309 
L 196.624084 161.15736 
L 191.688269 164.88516 
L 189.38252 166.955487 
L 187.727135 168.592405 
L 184.961941 171.651094 
L 182.537851 174.730548 
L 179.587833 179.127539 
L 178.212857 181.494231 
L 175.794858 186.346499 
L 174.221972 190.185479 
L 173.013237 193.717717 
L 171.736826 198.390646 
L 170.989164 201.982713 
L 170.282774 206.835786 
L 170.083009 208.915047 
L 169.842104 214.481597 
L 169.881049 217.325803 
L 170.479544 224.660499 
L 171.28248 229.57666 
L 172.59055 235.154309 
L 173.612846 238.592443 
L 175.470624 243.756859 
L 176.919894 247.168919 
L 178.917938 251.286575 
L 181.748972 256.306033 
L 183.688565 259.340034 
L 186.501105 263.295388 
L 188.145732 265.407281 
L 190.796541 268.551037 
L 193.760253 271.741188 
L 197.010909 274.906894 
L 202.204898 279.360974 
L 207.819693 283.480821 
L 211.748993 285.998887 
L 215.845621 288.34184 
L 220.102054 290.498652 
L 228.372688 293.963115 
L 235.75843 296.326783 
L 240.783706 297.574165 
L 248.392667 298.940903 
L 254.267903 299.584417 
L 260.058089 299.878583 
L 266.924989 299.797679 
L 272.718119 299.369136 
L 277.455972 298.772625 
L 284.996419 297.359846 
L 290.416079 295.983936 
L 295.227056 294.500837 
L 300.493176 292.583531 
L 303.116123 291.509279 
L 310.809168 287.873024 
L 316.638384 284.598454 
L 320.269364 282.310774 
L 324.800976 279.163873 
L 328.966249 275.958602 
L 334.523047 271.156078 
L 339.625616 266.131367 
L 343.22296 262.170966 
L 347.942474 256.341549 
L 353.127205 248.887658 
L 358.027031 240.440903 
L 362.250529 231.48581 
L 365.432606 223.020057 
L 366.572995 219.396201 
L 368.007107 214.125603 
L 369.181565 208.871676 
L 369.8447 205.266524 
L 370.722247 199.053486 
L 371.333806 191.764273 
L 371.495474 183.740638 
L 371.356308 179.293434 
L 371.057135 174.881337 
L 370.219813 167.664207 
L 369.177132 161.596013 
L 368.425204 158.064463 
L 366.550011 150.855164 
L 364.166674 143.549751 
L 361.722135 137.302465 
L 358.299336 129.883526 
L 353.075579 120.484138 
L 349.869799 115.51504 
L 344.712216 108.447951 
L 342.031186 105.14106 
L 335.930506 98.368645 
L 327.452551 90.357462 
L 319.547207 84.051877 
L 311.993214 78.88831 
L 305.706147 75.145989 
L 300.036173 72.158907 
L 294.341498 69.499354 
L 288.116892 66.955685 
L 279.567504 64.038485 
L 272.469743 62.092631 
L 263.797797 60.269468 
L 260.588546 59.744016 
L 255.925637 59.120811 
L 247.115683 58.3888 
L 242.826495 58.240369 
L 234.97539 58.318331 
L 231.719619 58.483121 
L 227.017543 58.858558 
L 221.116352 59.561073 
L 212.831643 60.988222 
L 205.278645 62.74938 
L 198.738717 64.641355 
L 195.513904 65.703988 
L 190.444515 67.553695 
L 184.431527 70.042965 
L 181.006708 71.610418 
L 169.872545 77.514102 
L 165.066517 80.476327 
L 159.290198 84.40327 
L 155.561149 87.168845 
L 148.491693 92.964006 
L 144.061727 97.007701 
L 138.617119 102.479443 
L 134.87349 106.608542 
L 130.590833 111.758454 
L 126.959018 116.540332 
L 123.702533 121.209833 
L 121.18397 125.111669 
L 117.685312 131.036926 
L 115.284132 135.515603 
L 111.135581 144.298999 
L 108.296292 151.370565 
L 106.417108 156.746768 
L 103.488402 166.901628 
L 101.857582 174.217358 
L 100.243085 184.25796 
L 99.680488 189.482933 
L 99.252191 195.736375 
L 99.252191 195.736375 
" clip-path="url(#p15b9bcd185)" style="fill: none; stroke: #cc0077; stroke-linecap: square"/>
   </g>
   <g id="line2d_65">
    <path d="M 248.655761 195.736375 
L 250.166149 193.15928 
L 251.805482 189.60271 
L 253.137708 185.371032 
L 253.532045 183.45215 
L 253.831533 181.207477 
L 253.960091 178.117602 
L 253.806501 175.473275 
L 253.545939 173.595623 
L 252.852942 170.58308 
L 251.993545 168.057433 
L 250.696422 165.225522 
L 249.301886 162.851531 
L 247.172026 159.980515 
L 245.06552 157.710614 
L 242.607458 155.548478 
L 240.832149 154.23467 
L 236.631447 151.758845 
L 232.692904 150.076255 
L 229.850884 149.176098 
L 225.321452 148.210535 
L 222.331976 147.858859 
L 218.550969 147.714537 
L 213.493871 148.019293 
L 210.947114 148.382394 
L 208.157632 148.939989 
L 205.185049 149.719399 
L 200.83182 151.213584 
L 197.695701 152.560243 
L 195.291131 153.754251 
L 191.301849 156.065782 
L 187.560691 158.643973 
L 184.638257 160.968648 
L 180.761988 164.538532 
L 179.069032 166.298089 
L 175.803368 170.103582 
L 171.721797 175.823058 
L 168.833579 180.774069 
L 167.79823 182.802318 
L 165.049619 189.141302 
L 163.470089 193.749212 
L 161.940627 199.509892 
L 161.145061 203.535338 
L 160.347011 209.585155 
L 160.151429 212.087039 
L 160.001245 215.857748 
L 160.018506 219.493795 
L 160.241701 223.791928 
L 160.590167 227.336077 
L 161.406657 232.73182 
L 161.891696 235.179012 
L 162.689017 238.590446 
L 164.303198 244.168211 
L 165.925802 248.746141 
L 166.955788 251.308259 
L 168.962372 255.759099 
L 171.081108 259.88415 
L 173.909556 264.726305 
L 176.755734 269.024175 
L 178.432669 271.341606 
L 182.698958 276.661059 
L 188.116831 282.469028 
L 193.3771 287.318966 
L 195.867918 289.389836 
L 199.788596 292.393077 
L 203.936032 295.262872 
L 208.450704 298.06549 
L 213.469782 300.827043 
L 218.100811 303.073801 
L 222.089634 304.794616 
L 226.987029 306.653615 
L 233.694447 308.774603 
L 240.676464 310.493371 
L 244.965588 311.314308 
L 248.212766 311.820845 
L 257.951407 312.76356 
L 263.059014 312.920191 
L 270.604455 312.733301 
L 275.709746 312.324886 
L 279.227699 311.910558 
L 285.94503 310.815175 
L 290.592441 309.819938 
L 294.939398 308.70932 
L 299.068261 307.489628 
L 307.749486 304.38018 
L 313.710871 301.793572 
L 319.879182 298.701188 
L 323.024605 296.950727 
L 328.587654 293.546452 
L 332.132335 291.157485 
L 337.945273 286.833271 
L 344.337288 281.424076 
L 352.946159 272.837693 
L 357.994133 266.941146 
L 361.565318 262.288022 
L 366.279731 255.384707 
L 369.7837 249.544519 
L 372.311754 244.84579 
L 375.314479 238.573661 
L 377.647937 233.007015 
L 379.315241 228.520829 
L 381.339622 222.262766 
L 383.275169 214.978912 
L 384.838602 207.359365 
L 386.106777 198.323887 
L 386.440744 194.711564 
L 386.799836 188.12637 
L 386.740552 178.25534 
L 385.678498 166.047109 
L 384.657099 159.519231 
L 383.192155 152.4739 
L 382.036829 147.907453 
L 379.880674 140.722052 
L 378.440887 136.572382 
L 375.742331 129.731299 
L 372.808418 123.280881 
L 370.77662 119.258949 
L 367.210735 112.874189 
L 364.51583 108.507828 
L 359.624937 101.375482 
L 355.637798 96.173772 
L 350.665823 90.310574 
L 344.816831 84.146695 
L 337.404009 77.273107 
L 331.815548 72.676389 
L 325.873636 68.266465 
L 320.838645 64.875248 
L 316.37864 62.113505 
L 308.188243 57.584056 
L 301.374227 54.307046 
L 295.533689 51.826109 
L 289.095723 49.420868 
L 278.260509 46.104989 
L 274.28515 45.107634 
L 264.329721 43.102807 
L 260.704916 42.543191 
L 255.585243 41.904179 
L 248.003803 41.278647 
L 237.583242 41.034734 
L 229.71389 41.319542 
L 223.639848 41.815706 
L 217.481353 42.566439 
L 205.672414 44.715795 
L 201.058293 45.815165 
L 194.213107 47.723564 
L 184.798107 50.910509 
L 176.092425 54.469032 
L 169.281972 57.690488 
L 163.022863 61.013937 
L 153.899787 66.534218 
L 146.457122 71.694094 
L 137.988864 78.381477 
L 131.216106 84.44936 
L 128.504388 87.08236 
L 124.34902 91.369324 
L 116.874422 99.961259 
L 114.805174 102.570888 
L 110.890501 107.829886 
L 106.881614 113.718183 
L 102.863048 120.239064 
L 98.068812 129.056093 
L 94.188158 137.310798 
L 91.841553 142.971921 
L 90.105073 147.595365 
L 88.051575 153.695177 
L 86.693864 158.230699 
L 85.034179 164.552261 
L 83.128584 173.523363 
L 82.264785 178.682515 
L 81.294938 186.268458 
L 80.576744 195.736375 
L 80.576744 195.736375 
" clip-path="url(#p15b9bcd185)" style="fill: none; stroke: #00b3cc; stroke-linecap: square"/>
   </g>
   <g id="line2d_66">
    <path d="M 248.655761 195.736375 
L 249.591873 194.206156 
L 250.819677 191.928618 
L 251.864025 189.641618 
L 252.602686 187.719345 
L 253.429877 185.036098 
L 254.024674 182.365899 
L 254.45973 178.969391 
L 254.550514 176.263676 
L 254.35295 172.983914 
L 253.793641 169.6433 
L 253.128221 167.151298 
L 252.404187 165.083561 
L 250.893692 161.779469 
L 249.158787 158.872601 
L 247.902032 157.122249 
L 244.929161 153.744318 
L 243.184784 152.120924 
L 241.324171 150.608765 
L 237.962231 148.334761 
L 235.589251 147.020565 
L 232.553821 145.631029 
L 229.979744 144.676915 
L 225.545634 143.455542 
L 222.764313 142.935385 
L 218.566842 142.477855 
L 214.691192 142.383843 
L 212.687531 142.453773 
L 207.776714 142.957656 
L 205.363821 143.376372 
L 200.322949 144.615848 
L 197.709109 145.455861 
L 192.90505 147.364275 
L 188.865246 149.353943 
L 185.461418 151.324126 
L 181.199183 154.206513 
L 178.140121 156.591313 
L 174.65385 159.675335 
L 170.627555 163.804268 
L 168.034476 166.848425 
L 164.507288 171.594405 
L 161.30937 176.680283 
L 157.295084 184.642971 
L 155.519286 189.051263 
L 154.136326 193.105087 
L 152.934928 197.31955 
L 152.090979 200.910115 
L 151.217229 205.652251 
L 150.396195 212.765871 
L 150.184505 216.715314 
L 150.322663 225.551209 
L 151.158284 233.494651 
L 151.878644 237.725941 
L 153.2097 243.635187 
L 156.235526 253.314017 
L 159.495961 261.138882 
L 162.983474 267.957186 
L 164.484038 270.556091 
L 169.440241 278.116406 
L 172.375636 282.017723 
L 176.286701 286.703732 
L 178.754724 289.406969 
L 182.214964 292.913957 
L 185.853331 296.288785 
L 190.10182 299.875547 
L 197.638884 305.436022 
L 203.392377 309.086568 
L 208.545875 311.974714 
L 212.731164 314.078402 
L 219.539044 317.074891 
L 222.558786 318.245886 
L 226.560778 319.656209 
L 234.566132 322.017483 
L 240.210385 323.332479 
L 244.5702 324.158804 
L 249.21163 324.862319 
L 259.276564 325.78179 
L 264.3533 325.937731 
L 269.846949 325.877279 
L 280.191498 325.119559 
L 287.071208 324.14749 
L 297.917201 321.839124 
L 301.139495 320.965479 
L 309.39107 318.320323 
L 318.967178 314.477872 
L 326.169224 311.000067 
L 333.691633 306.77923 
L 339.905969 302.795273 
L 345.259742 298.964981 
L 349.218321 295.872956 
L 356.086279 289.921875 
L 360.062074 286.094418 
L 365.852082 279.93627 
L 369.249158 275.952213 
L 376.051701 266.96387 
L 379.450625 261.852465 
L 384.008074 254.150028 
L 386.877666 248.662546 
L 388.404422 245.488312 
L 391.581032 238.154851 
L 393.305724 233.639718 
L 396.016361 225.431956 
L 396.99526 221.995726 
L 398.591772 215.556513 
L 400.484877 205.514598 
L 401.444521 197.981649 
L 401.749304 194.608871 
L 402.088134 188.983391 
L 402.098363 176.680696 
L 401.572493 168.714665 
L 400.74019 161.550017 
L 399.920274 156.347995 
L 398.409942 148.832685 
L 397.335028 144.399987 
L 394.646763 135.176061 
L 393.527721 131.862728 
L 389.486284 121.51817 
L 387.569668 117.258117 
L 385.664413 113.328997 
L 382.687037 107.686881 
L 378.463986 100.512746 
L 375.241114 95.559715 
L 370.818703 89.355991 
L 363.895508 80.753205 
L 359.465696 75.829407 
L 354.658684 70.91635 
L 347.837921 64.608413 
L 338.22524 56.839226 
L 335.63228 54.940745 
L 331.342815 51.966831 
L 319.057758 44.493617 
L 305.795527 37.954395 
L 298.997092 35.149429 
L 290.109627 31.996424 
L 286.300765 30.815096 
L 275.525254 27.999199 
L 267.146895 26.326471 
L 262.891629 25.644375 
L 252.268132 24.421727 
L 248.236878 24.134517 
L 238.036401 23.836164 
L 231.919074 23.950136 
L 225.768636 24.285872 
L 221.557331 24.644034 
L 210.065039 26.156891 
L 201.682391 27.763 
L 193.373057 29.785245 
L 188.330758 31.227158 
L 178.963824 34.352363 
L 169.725499 38.030341 
L 158.046044 43.590086 
L 151.239565 47.337448 
L 142.359162 52.84327 
L 138.801852 55.260096 
L 128.006323 63.417884 
L 122.504318 68.104868 
L 117.780518 72.452007 
L 109.488609 80.905411 
L 100.254834 91.805695 
L 93.324507 101.303067 
L 87.190107 110.955688 
L 82.57996 119.228893 
L 77.559214 129.607609 
L 74.924459 135.833382 
L 72.558513 142.050972 
L 70.896282 146.881043 
L 67.175236 159.778397 
L 66.487693 162.633221 
L 64.830447 170.548686 
L 62.94579 182.989497 
L 62.482619 187.415394 
L 61.901298 195.736375 
L 61.901298 195.736375 
" clip-path="url(#p15b9bcd185)" style="fill: none; stroke: #ccaa00; stroke-linecap: square"/>
   </g>
   <g id="line2d_67">
    <path d="M 248.655761 195.736375 
L 250.732173 192.147185 
L 251.483494 190.619676 
L 252.753996 187.589522 
L 253.744675 184.560352 
L 254.420041 181.768519 
L 254.969876 178.101394 
L 255.138147 175.086474 
L 255.109472 173.121619 
L 254.752831 169.41787 
L 254.456538 167.735494 
L 253.988298 165.726131 
L 253.404696 163.759867 
L 252.213306 160.652809 
L 251.277158 158.689857 
L 250.246236 156.829342 
L 248.098832 153.619588 
L 246.383712 151.49817 
L 244.218238 149.212303 
L 241.35457 146.690382 
L 236.744875 143.506124 
L 232.904401 141.477289 
L 230.913557 140.608215 
L 226.657448 139.111557 
L 223.118416 138.202073 
L 218.297076 137.39984 
L 214.45368 137.092749 
L 211.646194 137.044444 
L 208.668308 137.150214 
L 203.953419 137.640648 
L 201.405168 138.068638 
L 194.162907 139.911487 
L 191.360476 140.878286 
L 185.835396 143.218571 
L 181.837532 145.291834 
L 179.529044 146.644449 
L 175.569012 149.25024 
L 170.390636 153.260695 
L 166.459697 156.830863 
L 163.956479 159.379694 
L 159.617932 164.402393 
L 156.624577 168.411843 
L 153.98046 172.422628 
L 151.856385 176.045668 
L 149.496538 180.614765 
L 147.863992 184.216799 
L 146.103177 188.661131 
L 145.083064 191.599022 
L 143.155492 198.297803 
L 141.805469 204.652709 
L 141.052737 209.640103 
L 140.49717 215.511032 
L 140.293434 220.790456 
L 140.340406 225.417987 
L 141.081103 234.859971 
L 142.783031 244.738148 
L 144.929255 252.929163 
L 146.811029 258.573368 
L 150.94458 268.454061 
L 154.047744 274.514414 
L 155.846446 277.666965 
L 159.869609 283.99649 
L 162.241018 287.350013 
L 166.826106 293.209236 
L 170.776065 297.714065 
L 174.097586 301.178838 
L 179.251269 306.057478 
L 181.93093 308.383763 
L 185.519929 311.298653 
L 190.364789 314.902992 
L 195.626661 318.431407 
L 202.426974 322.460937 
L 208.760957 325.731276 
L 214.840267 328.472496 
L 222.405015 331.383786 
L 227.546146 333.066801 
L 231.414388 334.183354 
L 239.597411 336.140098 
L 245.253442 337.183173 
L 250.60531 337.945248 
L 255.43272 338.449274 
L 263.036318 338.897251 
L 270.05651 338.940604 
L 275.506038 338.731225 
L 279.774252 338.419137 
L 288.218947 337.416758 
L 294.837616 336.269862 
L 299.380512 335.2958 
L 309.641928 332.520415 
L 321.054694 328.453428 
L 327.532086 325.656295 
L 335.025321 321.946077 
L 339.852526 319.268679 
L 346.670918 315.07335 
L 353.104392 310.632623 
L 359.207165 305.941238 
L 364.274903 301.65145 
L 369.532857 296.777183 
L 372.159888 294.163185 
L 376.661583 289.37536 
L 380.253742 285.244411 
L 386.385734 277.445963 
L 391.375398 270.257035 
L 393.335942 267.180487 
L 396.876824 261.189786 
L 400.531191 254.294197 
L 402.41821 250.379945 
L 407.084744 239.283303 
L 408.446219 235.533414 
L 410.591888 228.936841 
L 412.213812 223.180848 
L 413.89309 216.138012 
L 415.778884 205.756401 
L 416.228236 202.511297 
L 417.229475 192.116461 
L 417.547872 184.381487 
L 417.570237 180.226506 
L 417.300441 171.844515 
L 417.019661 167.800637 
L 416.068065 159.000337 
L 414.815804 151.120555 
L 412.449174 140.231783 
L 408.789636 127.737479 
L 407.119954 122.982167 
L 404.856592 117.155596 
L 399.720741 105.800224 
L 397.759829 101.970013 
L 394.253368 95.647215 
L 390.453593 89.421884 
L 388.176567 85.952067 
L 381.743244 77.01603 
L 376.030203 69.966278 
L 370.028542 63.288424 
L 365.641175 58.809837 
L 362.124925 55.438471 
L 355.296909 49.387577 
L 347.942463 43.520868 
L 344.053081 40.663026 
L 334.428465 34.244263 
L 327.621668 30.216911 
L 320.059359 26.194471 
L 311.549844 22.193902 
L 299.993602 17.582735 
L 295.549874 16.046328 
L 284.246413 12.697288 
L 276.098443 10.760372 
L 272.083716 9.947879 
L 262.705569 8.405364 
L 253.2944 7.346803 
L 243.34074 6.749714 
L 230.296006 6.769669 
L 227.066256 6.914642 
L 215.110814 7.936577 
L 208.078073 8.897657 
L 197.121047 10.936158 
L 190.544024 12.483338 
L 179.285893 15.714305 
L 167.699688 19.842188 
L 163.977376 21.349617 
L 154.26706 25.719834 
L 148.938505 28.399778 
L 138.020154 34.562397 
L 130.482268 39.386266 
L 126.523047 42.122219 
L 119.600258 47.26771 
L 113.687268 52.056862 
L 105.402259 59.450249 
L 98.09358 66.726423 
L 91.550018 73.940882 
L 84.319535 82.828117 
L 79.886131 88.843556 
L 71.649619 101.46073 
L 69.886752 104.457586 
L 66.324601 110.908432 
L 59.659058 124.79387 
L 54.907398 136.797567 
L 52.449763 144.074049 
L 49.175988 155.589533 
L 47.694927 161.875899 
L 46.431662 168.117147 
L 45.100577 176.165556 
L 44.240278 182.896205 
L 43.225852 195.736375 
L 43.225852 195.736375 
" clip-path="url(#p15b9bcd185)" style="fill: none; stroke: #6e00cc; stroke-linecap: square"/>
   </g>
   <g id="patch_6">
    <path d="M 248.655761 345.6 
L 248.655761 0 
" style="fill: none; stroke: #000000; stroke-width: 0.8; stroke-linejoin: miter; stroke-linecap: square"/>
   </g>
   <g id="patch_7">
    <path d="M 35.738886 195.736375 
L 425.061114 195.736375 
" style="fill: none; stroke: #000000; stroke-width: 0.8; stroke-linejoin: miter; stroke-linecap: square"/>
   </g>
  </g>
 </g>
 <defs>
  <clipPath id="p15b9bcd185">
   <rect x="35.738886" y="0" width="389.322228" height="345.6"/>
  </clipPath>
 </defs>
</svg>
