<?xml version="1.0" encoding="utf-8" standalone="no"?>
<!DOCTYPE svg PUBLIC "-//W3C//DTD SVG 1.1//EN"
  "http://www.w3.org/Graphics/SVG/1.1/DTD/svg11.dtd">
<svg xmlns:xlink="http://www.w3.org/1999/xlink" width="460.8pt" height="345.6pt" viewBox="0 0 460.8 345.6" xmlns="http://www.w3.org/2000/svg" version="1.1">
 <metadata>
  <rdf:RDF xmlns:dc="http://purl.org/dc/elements/1.1/" xmlns:cc="http://creativecommons.org/ns#" xmlns:rdf="http://www.w3.org/1999/02/22-rdf-syntax-ns#">
   <cc:Work>
    <dc:type rdf:resource="http://purl.org/dc/dcmitype/StillImage"/>
    <dc:date>2023-08-21T20:31:30.384769</dc:date>
    <dc:format>image/svg+xml</dc:format>
    <dc:creator>
     <cc:Agent>
      <dc:title>Matplotlib v3.6.2, https://matplotlib.org/</dc:title>
     </cc:Agent>
    </dc:creator>
   </cc:Work>
  </rdf:RDF>
 </metadata>
 <defs>
  <style type="text/css">*{stroke-linejoin: round; stroke-linecap: butt}</style>
 </defs>
 <g id="figure_1">
  <g id="patch_1">
   <path d="M 0 345.6 
L 460.8 345.6 
L 460.8 0 
L 0 0 
z
" style="fill: #ffffff"/>
  </g>
  <g id="axes_1">
   <g id="patch_2">
    <path d="M 29.78 334.520722 
L 460.8 334.520722 
L 460.8 0 
L 29.78 0 
z
" style="fill: #ffffff"/>
   </g>
   <g id="matplotlib.axis_1">
    <g id="xtick_1">
     <g id="line2d_1">
      <defs>
       <path id="m9e3b47017e" d="M 0 0 
L 0 3.5 
" style="stroke: #000000; stroke-width: 0.8"/>
      </defs>
      <g>
       <use xlink:href="#m9e3b47017e" x="84.439692" y="328.087631" style="stroke: #000000; stroke-width: 0.8"/>
      </g>
     </g>
     <g id="text_1">
      <!-- 2 -->
      <g transform="translate(81.258442 342.686069) scale(0.1 -0.1)">
       <defs>
        <path id="DejaVuSans-32" d="M 1228 531 
L 3431 531 
L 3431 0 
L 469 0 
L 469 531 
Q 828 903 1448 1529 
Q 2069 2156 2228 2338 
Q 2531 2678 2651 2914 
Q 2772 3150 2772 3378 
Q 2772 3750 2511 3984 
Q 2250 4219 1831 4219 
Q 1534 4219 1204 4116 
Q 875 4013 500 3803 
L 500 4441 
Q 881 4594 1212 4672 
Q 1544 4750 1819 4750 
Q 2544 4750 2975 4387 
Q 3406 4025 3406 3419 
Q 3406 3131 3298 2873 
Q 3191 2616 2906 2266 
Q 2828 2175 2409 1742 
Q 1991 1309 1228 531 
z
" transform="scale(0.015625)"/>
       </defs>
       <use xlink:href="#DejaVuSans-32"/>
      </g>
     </g>
    </g>
    <g id="xtick_2">
     <g id="line2d_2">
      <g>
       <use xlink:href="#m9e3b47017e" x="176.354154" y="328.087631" style="stroke: #000000; stroke-width: 0.8"/>
      </g>
     </g>
     <g id="text_2">
      <!-- 4 -->
      <g transform="translate(173.172904 342.686069) scale(0.1 -0.1)">
       <defs>
        <path id="DejaVuSans-34" d="M 2419 4116 
L 825 1625 
L 2419 1625 
L 2419 4116 
z
M 2253 4666 
L 3047 4666 
L 3047 1625 
L 3713 1625 
L 3713 1100 
L 3047 1100 
L 3047 0 
L 2419 0 
L 2419 1100 
L 313 1100 
L 313 1709 
L 2253 4666 
z
" transform="scale(0.015625)"/>
       </defs>
       <use xlink:href="#DejaVuSans-34"/>
      </g>
     </g>
    </g>
    <g id="xtick_3">
     <g id="line2d_3">
      <g>
       <use xlink:href="#m9e3b47017e" x="268.268615" y="328.087631" style="stroke: #000000; stroke-width: 0.8"/>
      </g>
     </g>
     <g id="text_3">
      <!-- 6 -->
      <g transform="translate(265.087365 342.686069) scale(0.1 -0.1)">
       <defs>
        <path id="DejaVuSans-36" d="M 2113 2584 
Q 1688 2584 1439 2293 
Q 1191 2003 1191 1497 
Q 1191 994 1439 701 
Q 1688 409 2113 409 
Q 2538 409 2786 701 
Q 3034 994 3034 1497 
Q 3034 2003 2786 2293 
Q 2538 2584 2113 2584 
z
M 3366 4563 
L 3366 3988 
Q 3128 4100 2886 4159 
Q 2644 4219 2406 4219 
Q 1781 4219 1451 3797 
Q 1122 3375 1075 2522 
Q 1259 2794 1537 2939 
Q 1816 3084 2150 3084 
Q 2853 3084 3261 2657 
Q 3669 2231 3669 1497 
Q 3669 778 3244 343 
Q 2819 -91 2113 -91 
Q 1303 -91 875 529 
Q 447 1150 447 2328 
Q 447 3434 972 4092 
Q 1497 4750 2381 4750 
Q 2619 4750 2861 4703 
Q 3103 4656 3366 4563 
z
" transform="scale(0.015625)"/>
       </defs>
       <use xlink:href="#DejaVuSans-36"/>
      </g>
     </g>
    </g>
    <g id="xtick_4">
     <g id="line2d_4">
      <g>
       <use xlink:href="#m9e3b47017e" x="360.183077" y="328.087631" style="stroke: #000000; stroke-width: 0.8"/>
      </g>
     </g>
     <g id="text_4">
      <!-- 8 -->
      <g transform="translate(357.001827 342.686069) scale(0.1 -0.1)">
       <defs>
        <path id="DejaVuSans-38" d="M 2034 2216 
Q 1584 2216 1326 1975 
Q 1069 1734 1069 1313 
Q 1069 891 1326 650 
Q 1584 409 2034 409 
Q 2484 409 2743 651 
Q 3003 894 3003 1313 
Q 3003 1734 2745 1975 
Q 2488 2216 2034 2216 
z
M 1403 2484 
Q 997 2584 770 2862 
Q 544 3141 544 3541 
Q 544 4100 942 4425 
Q 1341 4750 2034 4750 
Q 2731 4750 3128 4425 
Q 3525 4100 3525 3541 
Q 3525 3141 3298 2862 
Q 3072 2584 2669 2484 
Q 3125 2378 3379 2068 
Q 3634 1759 3634 1313 
Q 3634 634 3220 271 
Q 2806 -91 2034 -91 
Q 1263 -91 848 271 
Q 434 634 434 1313 
Q 434 1759 690 2068 
Q 947 2378 1403 2484 
z
M 1172 3481 
Q 1172 3119 1398 2916 
Q 1625 2713 2034 2713 
Q 2441 2713 2670 2916 
Q 2900 3119 2900 3481 
Q 2900 3844 2670 4047 
Q 2441 4250 2034 4250 
Q 1625 4250 1398 4047 
Q 1172 3844 1172 3481 
z
" transform="scale(0.015625)"/>
       </defs>
       <use xlink:href="#DejaVuSans-38"/>
      </g>
     </g>
    </g>
    <g id="xtick_5">
     <g id="line2d_5">
      <g>
       <use xlink:href="#m9e3b47017e" x="452.097539" y="328.087631" style="stroke: #000000; stroke-width: 0.8"/>
      </g>
     </g>
     <g id="text_5">
      <!-- 10 -->
      <g transform="translate(445.735039 342.686069) scale(0.1 -0.1)">
       <defs>
        <path id="DejaVuSans-31" d="M 794 531 
L 1825 531 
L 1825 4091 
L 703 3866 
L 703 4441 
L 1819 4666 
L 2450 4666 
L 2450 531 
L 3481 531 
L 3481 0 
L 794 0 
L 794 531 
z
" transform="scale(0.015625)"/>
        <path id="DejaVuSans-30" d="M 2034 4250 
Q 1547 4250 1301 3770 
Q 1056 3291 1056 2328 
Q 1056 1369 1301 889 
Q 1547 409 2034 409 
Q 2525 409 2770 889 
Q 3016 1369 3016 2328 
Q 3016 3291 2770 3770 
Q 2525 4250 2034 4250 
z
M 2034 4750 
Q 2819 4750 3233 4129 
Q 3647 3509 3647 2328 
Q 3647 1150 3233 529 
Q 2819 -91 2034 -91 
Q 1250 -91 836 529 
Q 422 1150 422 2328 
Q 422 3509 836 4129 
Q 1250 4750 2034 4750 
z
" transform="scale(0.015625)"/>
       </defs>
       <use xlink:href="#DejaVuSans-31"/>
       <use xlink:href="#DejaVuSans-30" x="63.623047"/>
      </g>
     </g>
    </g>
    <g id="xtick_6">
     <g id="line2d_6">
      <defs>
       <path id="mb5d2ed6e9f" d="M 0 0 
L 0 2 
" style="stroke: #000000; stroke-width: 0.6"/>
      </defs>
      <g>
       <use xlink:href="#mb5d2ed6e9f" x="38.482461" y="328.087631" style="stroke: #000000; stroke-width: 0.6"/>
      </g>
     </g>
    </g>
    <g id="xtick_7">
     <g id="line2d_7">
      <g>
       <use xlink:href="#mb5d2ed6e9f" x="61.461077" y="328.087631" style="stroke: #000000; stroke-width: 0.6"/>
      </g>
     </g>
    </g>
    <g id="xtick_8">
     <g id="line2d_8">
      <g>
       <use xlink:href="#mb5d2ed6e9f" x="107.418307" y="328.087631" style="stroke: #000000; stroke-width: 0.6"/>
      </g>
     </g>
    </g>
    <g id="xtick_9">
     <g id="line2d_9">
      <g>
       <use xlink:href="#mb5d2ed6e9f" x="130.396923" y="328.087631" style="stroke: #000000; stroke-width: 0.6"/>
      </g>
     </g>
    </g>
    <g id="xtick_10">
     <g id="line2d_10">
      <g>
       <use xlink:href="#mb5d2ed6e9f" x="153.375538" y="328.087631" style="stroke: #000000; stroke-width: 0.6"/>
      </g>
     </g>
    </g>
    <g id="xtick_11">
     <g id="line2d_11">
      <g>
       <use xlink:href="#mb5d2ed6e9f" x="199.332769" y="328.087631" style="stroke: #000000; stroke-width: 0.6"/>
      </g>
     </g>
    </g>
    <g id="xtick_12">
     <g id="line2d_12">
      <g>
       <use xlink:href="#mb5d2ed6e9f" x="222.311385" y="328.087631" style="stroke: #000000; stroke-width: 0.6"/>
      </g>
     </g>
    </g>
    <g id="xtick_13">
     <g id="line2d_13">
      <g>
       <use xlink:href="#mb5d2ed6e9f" x="245.29" y="328.087631" style="stroke: #000000; stroke-width: 0.6"/>
      </g>
     </g>
    </g>
    <g id="xtick_14">
     <g id="line2d_14">
      <g>
       <use xlink:href="#mb5d2ed6e9f" x="291.247231" y="328.087631" style="stroke: #000000; stroke-width: 0.6"/>
      </g>
     </g>
    </g>
    <g id="xtick_15">
     <g id="line2d_15">
      <g>
       <use xlink:href="#mb5d2ed6e9f" x="314.225846" y="328.087631" style="stroke: #000000; stroke-width: 0.6"/>
      </g>
     </g>
    </g>
    <g id="xtick_16">
     <g id="line2d_16">
      <g>
       <use xlink:href="#mb5d2ed6e9f" x="337.204462" y="328.087631" style="stroke: #000000; stroke-width: 0.6"/>
      </g>
     </g>
    </g>
    <g id="xtick_17">
     <g id="line2d_17">
      <g>
       <use xlink:href="#mb5d2ed6e9f" x="383.161693" y="328.087631" style="stroke: #000000; stroke-width: 0.6"/>
      </g>
     </g>
    </g>
    <g id="xtick_18">
     <g id="line2d_18">
      <g>
       <use xlink:href="#mb5d2ed6e9f" x="406.140308" y="328.087631" style="stroke: #000000; stroke-width: 0.6"/>
      </g>
     </g>
    </g>
    <g id="xtick_19">
     <g id="line2d_19">
      <g>
       <use xlink:href="#mb5d2ed6e9f" x="429.118923" y="328.087631" style="stroke: #000000; stroke-width: 0.6"/>
      </g>
     </g>
    </g>
   </g>
   <g id="matplotlib.axis_2">
    <g id="ytick_1">
     <g id="line2d_20">
      <defs>
       <path id="mb66748cc53" d="M 0 0 
L -3.5 0 
" style="stroke: #000000; stroke-width: 0.8"/>
      </defs>
      <g>
       <use xlink:href="#mb66748cc53" x="19.78" y="328.087631" style="stroke: #000000; stroke-width: 0.8"/>
      </g>
     </g>
     <g id="text_6">
      <!-- 0 -->
      <g transform="translate(6.4175 331.88685) scale(0.1 -0.1)">
       <use xlink:href="#DejaVuSans-30"/>
      </g>
     </g>
    </g>
    <g id="ytick_2">
     <g id="line2d_21">
      <g>
       <use xlink:href="#mb66748cc53" x="19.78" y="263.756723" style="stroke: #000000; stroke-width: 0.8"/>
      </g>
     </g>
     <g id="text_7">
      <!-- 2 -->
      <g transform="translate(6.4175 267.555942) scale(0.1 -0.1)">
       <use xlink:href="#DejaVuSans-32"/>
      </g>
     </g>
    </g>
    <g id="ytick_3">
     <g id="line2d_22">
      <g>
       <use xlink:href="#mb66748cc53" x="19.78" y="199.425815" style="stroke: #000000; stroke-width: 0.8"/>
      </g>
     </g>
     <g id="text_8">
      <!-- 4 -->
      <g transform="translate(6.4175 203.225034) scale(0.1 -0.1)">
       <use xlink:href="#DejaVuSans-34"/>
      </g>
     </g>
    </g>
    <g id="ytick_4">
     <g id="line2d_23">
      <g>
       <use xlink:href="#mb66748cc53" x="19.78" y="135.094907" style="stroke: #000000; stroke-width: 0.8"/>
      </g>
     </g>
     <g id="text_9">
      <!-- 6 -->
      <g transform="translate(6.4175 138.894126) scale(0.1 -0.1)">
       <use xlink:href="#DejaVuSans-36"/>
      </g>
     </g>
    </g>
    <g id="ytick_5">
     <g id="line2d_24">
      <g>
       <use xlink:href="#mb66748cc53" x="19.78" y="70.763999" style="stroke: #000000; stroke-width: 0.8"/>
      </g>
     </g>
     <g id="text_10">
      <!-- 8 -->
      <g transform="translate(6.4175 74.563218) scale(0.1 -0.1)">
       <use xlink:href="#DejaVuSans-38"/>
      </g>
     </g>
    </g>
    <g id="ytick_6">
     <g id="line2d_25">
      <g>
       <use xlink:href="#mb66748cc53" x="19.78" y="6.433091" style="stroke: #000000; stroke-width: 0.8"/>
      </g>
     </g>
     <g id="text_11">
      <!-- 10 -->
      <g transform="translate(0.055 10.23231) scale(0.1 -0.1)">
       <use xlink:href="#DejaVuSans-31"/>
       <use xlink:href="#DejaVuSans-30" x="63.623047"/>
      </g>
     </g>
    </g>
    <g id="ytick_7">
     <g id="line2d_26">
      <defs>
       <path id="m9b61492d72" d="M 0 0 
L -2 0 
" style="stroke: #000000; stroke-width: 0.6"/>
      </defs>
      <g>
       <use xlink:href="#m9b61492d72" x="19.78" y="312.004904" style="stroke: #000000; stroke-width: 0.6"/>
      </g>
     </g>
    </g>
    <g id="ytick_8">
     <g id="line2d_27">
      <g>
       <use xlink:href="#m9b61492d72" x="19.78" y="295.922177" style="stroke: #000000; stroke-width: 0.6"/>
      </g>
     </g>
    </g>
    <g id="ytick_9">
     <g id="line2d_28">
      <g>
       <use xlink:href="#m9b61492d72" x="19.78" y="279.83945" style="stroke: #000000; stroke-width: 0.6"/>
      </g>
     </g>
    </g>
    <g id="ytick_10">
     <g id="line2d_29">
      <g>
       <use xlink:href="#m9b61492d72" x="19.78" y="247.673996" style="stroke: #000000; stroke-width: 0.6"/>
      </g>
     </g>
    </g>
    <g id="ytick_11">
     <g id="line2d_30">
      <g>
       <use xlink:href="#m9b61492d72" x="19.78" y="231.591269" style="stroke: #000000; stroke-width: 0.6"/>
      </g>
     </g>
    </g>
    <g id="ytick_12">
     <g id="line2d_31">
      <g>
       <use xlink:href="#m9b61492d72" x="19.78" y="215.508542" style="stroke: #000000; stroke-width: 0.6"/>
      </g>
     </g>
    </g>
    <g id="ytick_13">
     <g id="line2d_32">
      <g>
       <use xlink:href="#m9b61492d72" x="19.78" y="183.343088" style="stroke: #000000; stroke-width: 0.6"/>
      </g>
     </g>
    </g>
    <g id="ytick_14">
     <g id="line2d_33">
      <g>
       <use xlink:href="#m9b61492d72" x="19.78" y="167.260361" style="stroke: #000000; stroke-width: 0.6"/>
      </g>
     </g>
    </g>
    <g id="ytick_15">
     <g id="line2d_34">
      <g>
       <use xlink:href="#m9b61492d72" x="19.78" y="151.177634" style="stroke: #000000; stroke-width: 0.6"/>
      </g>
     </g>
    </g>
    <g id="ytick_16">
     <g id="line2d_35">
      <g>
       <use xlink:href="#m9b61492d72" x="19.78" y="119.01218" style="stroke: #000000; stroke-width: 0.6"/>
      </g>
     </g>
    </g>
    <g id="ytick_17">
     <g id="line2d_36">
      <g>
       <use xlink:href="#m9b61492d72" x="19.78" y="102.929453" style="stroke: #000000; stroke-width: 0.6"/>
      </g>
     </g>
    </g>
    <g id="ytick_18">
     <g id="line2d_37">
      <g>
       <use xlink:href="#m9b61492d72" x="19.78" y="86.846726" style="stroke: #000000; stroke-width: 0.6"/>
      </g>
     </g>
    </g>
    <g id="ytick_19">
     <g id="line2d_38">
      <g>
       <use xlink:href="#m9b61492d72" x="19.78" y="54.681272" style="stroke: #000000; stroke-width: 0.6"/>
      </g>
     </g>
    </g>
    <g id="ytick_20">
     <g id="line2d_39">
      <g>
       <use xlink:href="#m9b61492d72" x="19.78" y="38.598545" style="stroke: #000000; stroke-width: 0.6"/>
      </g>
     </g>
    </g>
    <g id="ytick_21">
     <g id="line2d_40">
      <g>
       <use xlink:href="#m9b61492d72" x="19.78" y="22.515818" style="stroke: #000000; stroke-width: 0.6"/>
      </g>
     </g>
    </g>
   </g>
   <g id="line2d_41">
    <path d="M 38.068846 328.087631 
L 38.275654 328.087631 
L 38.379057 328.087631 
L 38.430759 328.087631 
L 38.45661 328.087631 
" clip-path="url(#p4ea6c18157)" style="fill: none; stroke: #0000ff; stroke-linecap: square"/>
   </g>
   <g id="line2d_42">
    <path d="M 38.896076 295.922177 
L 39.911603 295.922177 
L 42.103445 295.922177 
L 44.004312 295.922177 
L 46.184538 295.922177 
L 48.03409 295.922177 
L 51.662687 295.922177 
L 52.661229 295.922177 
L 55.71039 295.922177 
L 57.916193 295.922177 
L 59.057724 295.922177 
L 60.44154 295.922177 
L 64.158667 295.922177 
L 64.48128 295.922177 
L 68.403621 295.922177 
L 68.660292 295.922177 
L 70.724334 295.922177 
L 74.353728 295.922177 
L 76.548086 295.922177 
L 77.793134 295.922177 
L 79.997886 295.922177 
L 83.055017 295.922177 
L 84.026077 295.922177 
L 84.232885 295.922177 
L 84.336288 295.922177 
L 84.38799 295.922177 
" clip-path="url(#p4ea6c18157)" style="fill: none; stroke: #0000ff; stroke-linecap: square"/>
   </g>
   <g id="line2d_43">
    <path d="M 84.853307 263.756723 
L 84.972192 263.756723 
L 85.406485 263.756723 
L 87.938482 263.756723 
L 89.64538 263.756723 
L 91.791954 263.756723 
L 95.34775 263.756723 
L 95.909601 263.756723 
L 99.574902 263.756723 
L 100.763799 263.756723 
L 103.440479 263.756723 
L 105.70269 263.756723 
L 107.018322 263.756723 
L 110.107376 263.756723 
L 111.037375 263.756723 
L 113.610216 263.756723 
L 115.065323 263.756723 
L 117.814198 263.756723 
L 120.034831 263.756723 
L 120.63996 263.756723 
L 123.552093 263.756723 
L 125.549923 263.756723 
L 127.116002 263.756723 
L 129.500127 263.756723 
L 129.983308 263.756723 
L 130.190115 263.756723 
L 130.293519 263.756723 
L 130.345221 263.756723 
" clip-path="url(#p4ea6c18157)" style="fill: none; stroke: #0000ff; stroke-linecap: square"/>
   </g>
   <g id="line2d_44">
    <path d="M 130.810538 231.591269 
L 132.330412 231.591269 
L 133.543468 231.591269 
L 135.223489 231.591269 
L 138.480842 231.591269 
L 140.76051 231.591269 
L 141.671058 231.591269 
L 145.349813 231.591269 
L 145.632796 231.591269 
L 148.734312 231.591269 
L 150.905741 231.591269 
L 152.247498 231.591269 
L 153.842813 231.591269 
L 157.390473 231.591269 
L 159.326903 231.591269 
L 160.623951 231.591269 
L 162.258423 231.591269 
L 164.394178 231.591269 
L 166.376273 231.591269 
L 168.717319 231.591269 
L 170.76308 231.591269 
L 174.434416 231.591269 
L 174.942504 231.591269 
L 175.940539 231.591269 
L 176.147346 231.591269 
L 176.25075 231.591269 
L 176.302452 231.591269 
" clip-path="url(#p4ea6c18157)" style="fill: none; stroke: #0000ff; stroke-linecap: square"/>
   </g>
   <g id="line2d_45">
    <path d="M 176.767769 199.425815 
L 178.525324 199.425815 
L 179.11545 199.425815 
L 181.846783 199.425815 
L 183.460573 199.425815 
L 186.006382 199.425815 
L 187.952584 199.425815 
L 190.593858 199.425815 
L 192.50277 199.425815 
L 195.017348 199.425815 
L 195.91586 199.425815 
L 198.571654 199.425815 
L 201.419638 199.425815 
L 202.834649 199.425815 
L 203.835812 199.425815 
L 206.021386 199.425815 
L 208.402668 199.425815 
L 210.165911 199.425815 
L 213.161472 199.425815 
L 214.25806 199.425815 
L 217.112606 199.425815 
L 219.275509 199.425815 
L 221.514914 199.425815 
L 221.89777 199.425815 
L 222.104577 199.425815 
L 222.207981 199.425815 
L 222.259683 199.425815 
" clip-path="url(#p4ea6c18157)" style="fill: none; stroke: #0000ff; stroke-linecap: square"/>
   </g>
   <g id="line2d_46">
    <path d="M 222.725 167.260361 
L 222.740689 167.260361 
L 225.384793 167.260361 
L 226.961024 167.260361 
L 230.584432 167.260361 
L 231.998453 167.260361 
L 233.980442 167.260361 
L 235.742472 167.260361 
L 238.629606 167.260361 
L 240.868577 167.260361 
L 242.945604 167.260361 
L 244.671688 167.260361 
L 246.583208 167.260361 
L 249.067341 167.260361 
L 250.87141 167.260361 
L 252.634324 167.260361 
L 255.212053 167.260361 
L 257.42581 167.260361 
L 258.749363 167.260361 
L 260.84681 167.260361 
L 263.158433 167.260361 
L 265.618263 167.260361 
L 267.154187 167.260361 
L 267.855 167.260361 
L 268.061808 167.260361 
L 268.165212 167.260361 
L 268.216914 167.260361 
" clip-path="url(#p4ea6c18157)" style="fill: none; stroke: #0000ff; stroke-linecap: square"/>
   </g>
   <g id="line2d_47">
    <path d="M 268.68223 135.094907 
L 269.62291 135.094907 
L 270.511967 135.094907 
L 272.560917 135.094907 
L 274.841809 135.094907 
L 277.491997 135.094907 
L 278.621747 135.094907 
L 282.442955 135.094907 
L 284.323044 135.094907 
L 285.147231 135.094907 
L 288.831416 135.094907 
L 289.996073 135.094907 
L 292.118005 135.094907 
L 294.121464 135.094907 
L 297.056835 135.094907 
L 298.116338 135.094907 
L 300.033341 135.094907 
L 301.559276 135.094907 
L 305.294423 135.094907 
L 306.913314 135.094907 
L 308.947895 135.094907 
L 311.192169 135.094907 
L 313.274177 135.094907 
L 313.812231 135.094907 
L 314.088735 135.094907 
L 314.157576 135.094907 
L 314.191996 135.094907 
" clip-path="url(#p4ea6c18157)" style="fill: none; stroke: #0000ff; stroke-linecap: square"/>
   </g>
   <g id="line2d_48">
    <path d="M 314.364098 102.929453 
L 314.639461 102.929453 
L 315.984041 102.929453 
L 318.322949 102.929453 
L 320.992322 102.929453 
L 324.235049 102.929453 
L 326.165653 102.929453 
L 327.384407 102.929453 
L 330.460361 102.929453 
L 331.182509 102.929453 
L 333.482434 102.929453 
L 335.874059 102.929453 
L 337.125385 102.929453 
L 338.861172 102.929453 
L 342.305551 102.929453 
L 344.263929 102.929453 
L 346.557135 102.929453 
L 347.585463 102.929453 
L 350.767841 102.929453 
L 352.582409 102.929453 
L 354.502663 102.929453 
L 356.153174 102.929453 
L 358.003332 102.929453 
L 359.769462 102.929453 
L 360.090851 102.929453 
L 360.154081 102.929453 
" clip-path="url(#p4ea6c18157)" style="fill: none; stroke: #0000ff; stroke-linecap: square"/>
   </g>
   <g id="line2d_49">
    <path d="M 360.217311 70.763999 
L 360.343771 70.763999 
L 360.596692 70.763999 
L 363.144038 70.763999 
L 364.344173 70.763999 
L 367.827388 70.763999 
L 369.024139 70.763999 
L 370.386799 70.763999 
L 373.952069 70.763999 
L 375.675766 70.763999 
L 377.798245 70.763999 
L 380.248202 70.763999 
L 380.417294 70.763999 
L 383.094258 70.763999 
L 385.155943 70.763999 
L 388.187187 70.763999 
L 390.480861 70.763999 
L 391.088512 70.763999 
L 394.237521 70.763999 
L 396.266838 70.763999 
L 397.132573 70.763999 
L 400.888203 70.763999 
L 402.316397 70.763999 
L 404.101104 70.763999 
L 405.726693 70.763999 
L 405.9335 70.763999 
L 406.036904 70.763999 
L 406.088606 70.763999 
" clip-path="url(#p4ea6c18157)" style="fill: none; stroke: #0000ff; stroke-linecap: square"/>
   </g>
   <g id="line2d_50">
    <path d="M 406.553923 38.598545 
L 407.309307 38.598545 
L 408.727037 38.598545 
L 409.763448 38.598545 
L 412.810905 38.598545 
L 414.101583 38.598545 
L 416.877807 38.598545 
L 419.648252 38.598545 
L 421.087211 38.598545 
L 423.193401 38.598545 
L 424.257413 38.598545 
L 426.693269 38.598545 
L 429.124265 38.598545 
L 432.13497 38.598545 
L 433.191368 38.598545 
L 435.475407 38.598545 
L 438.272907 38.598545 
L 440.025991 38.598545 
L 440.915712 38.598545 
L 444.200144 38.598545 
L 446.704442 38.598545 
L 446.929554 38.598545 
L 450.51613 38.598545 
L 451.683924 38.598545 
L 451.890731 38.598545 
L 451.994135 38.598545 
L 452.045837 38.598545 
L 452.071688 38.598545 
" clip-path="url(#p4ea6c18157)" style="fill: none; stroke: #0000ff; stroke-linecap: square"/>
   </g>
   <g id="line2d_51">
    <path d="M 452.511154 6.433091 
" clip-path="url(#p4ea6c18157)" style="fill: none; stroke: #0000ff; stroke-linecap: square"/>
   </g>
   <g id="patch_3">
    <path d="M 19.78 334.520722 
L 19.78 0 
" style="fill: none; stroke: #000000; stroke-width: 0.8; stroke-linejoin: miter; stroke-linecap: square"/>
   </g>
   <g id="patch_4">
    <path d="M 29.78 328.087631 
L 460.8 328.087631 
" style="fill: none; stroke: #000000; stroke-width: 0.8; stroke-linejoin: miter; stroke-linecap: square"/>
   </g>
  </g>
 </g>
 <defs>
  <clipPath id="p4ea6c18157">
   <rect x="29.78" y="0" width="431.02" height="334.520722"/>
  </clipPath>
 </defs>
</svg>
