<?xml version="1.0" encoding="utf-8" standalone="no"?>
<!DOCTYPE svg PUBLIC "-//W3C//DTD SVG 1.1//EN"
  "http://www.w3.org/Graphics/SVG/1.1/DTD/svg11.dtd">
<svg xmlns:xlink="http://www.w3.org/1999/xlink" width="460.8pt" height="345.6pt" viewBox="0 0 460.8 345.6" xmlns="http://www.w3.org/2000/svg" version="1.1">
 <metadata>
  <rdf:RDF xmlns:dc="http://purl.org/dc/elements/1.1/" xmlns:cc="http://creativecommons.org/ns#" xmlns:rdf="http://www.w3.org/1999/02/22-rdf-syntax-ns#">
   <cc:Work>
    <dc:type rdf:resource="http://purl.org/dc/dcmitype/StillImage"/>
    <dc:date>2023-02-12T23:44:56.075499</dc:date>
    <dc:format>image/svg+xml</dc:format>
    <dc:creator>
     <cc:Agent>
      <dc:title>Matplotlib v3.6.2, https://matplotlib.org/</dc:title>
     </cc:Agent>
    </dc:creator>
   </cc:Work>
  </rdf:RDF>
 </metadata>
 <defs>
  <style type="text/css">*{stroke-linejoin: round; stroke-linecap: butt}</style>
 </defs>
 <g id="figure_1">
  <g id="patch_1">
   <path d="M 0 345.6 
L 460.8 345.6 
L 460.8 0 
L 0 0 
z
" style="fill: #ffffff"/>
  </g>
  <g id="axes_1">
   <g id="patch_2">
    <path d="M 146.769561 334.510066 
L 314.030439 334.510066 
L 314.030439 0 
L 146.769561 0 
z
" style="fill: #ffffff"/>
   </g>
   <g id="patch_3">
    <path d="M 149.986117 6.432886 
L 150.894316 13.657452 
L 151.774727 20.582639 
L 152.364631 25.179593 
L 153.124826 31.05252 
L 153.701143 35.466574 
L 154.833193 44.040833 
L 156.033091 52.989794 
L 156.589926 57.094069 
L 157.491062 63.670734 
L 158.342726 69.812084 
L 159.005103 74.538603 
L 159.780731 80.017768 
L 160.756803 86.827847 
L 160.968112 88.289674 
L 162.244693 97.026531 
L 162.868524 101.237032 
L 164.05527 109.139998 
L 164.917598 114.794655 
L 164.944129 114.96746 
L 166.134394 122.64787 
L 166.905958 127.551241 
L 167.670427 132.351111 
L 168.903629 139.97147 
L 169.335767 142.605991 
L 170.477443 149.476829 
L 171.106094 153.204824 
L 171.613689 156.186243 
L 172.253182 159.905899 
L 173.047727 164.470744 
L 174.528598 172.811073 
L 175.032795 175.600953 
L 176.18283 181.869812 
L 176.861282 185.506355 
L 177.156193 187.072819 
L 178.657695 194.914094 
L 179.041489 196.882385 
L 179.968906 201.578163 
L 180.476047 204.109775 
L 181.185163 207.60673 
L 181.967681 211.407598 
L 182.872845 215.728198 
L 184.147791 221.67561 
L 184.52636 223.410433 
L 185.748408 228.913275 
L 186.507136 232.255044 
L 187.55444 236.773739 
L 188.195095 239.484118 
L 188.973878 242.723876 
L 189.922703 246.58948 
L 190.343602 248.275582 
L 191.513772 252.870627 
L 191.954878 254.567413 
L 192.543189 256.800323 
L 194.009413 262.215475 
L 194.740761 264.836591 
L 195.513029 267.546599 
L 196.292652 270.222233 
L 197.078995 272.859679 
L 197.689475 274.864851 
L 198.648867 277.941135 
L 199.154143 279.524489 
L 200.065188 282.315189 
L 200.599459 283.913348 
L 201.81001 287.429395 
L 202.366915 288.997962 
L 203.616154 292.404313 
L 203.909851 293.182606 
L 204.56811 294.895816 
L 205.640248 297.593919 
L 206.520312 299.723192 
L 207.638416 302.317262 
L 207.836378 302.763586 
L 208.987261 305.281143 
L 209.472351 306.302804 
L 210.737327 308.856878 
L 211.412985 310.155857 
L 211.927202 311.114023 
L 212.994628 313.019033 
L 213.924603 314.586338 
L 214.387204 315.333924 
L 215.778749 317.454386 
L 216.565665 318.568231 
L 217.20879 319.432799 
L 217.587022 319.922048 
L 218.494521 321.037874 
L 219.817858 322.51815 
L 220.294586 323.00873 
L 220.980404 323.674814 
L 222.227418 324.766053 
L 222.443495 324.939412 
L 223.328847 325.601227 
L 224.67646 326.458904 
L 225.447787 326.86851 
L 225.587165 326.936211 
L 226.431129 327.304876 
L 227.71951 327.731017 
L 228.764603 327.955382 
L 229.183429 328.014798 
L 229.924658 328.07718 
L 231.117195 328.062833 
L 231.592966 328.017627 
L 232.276758 327.913215 
L 233.586333 327.583396 
L 233.697588 327.547514 
L 235.190718 326.946777 
L 235.492558 326.798386 
L 236.753472 326.080477 
L 237.147054 325.823997 
L 238.202891 325.059832 
L 238.757401 324.614086 
L 240.014195 323.490569 
L 240.485175 323.029057 
L 240.949164 322.552815 
L 242.212092 321.14805 
L 242.568711 320.72265 
L 243.904424 319.016878 
L 244.599545 318.058953 
L 245.149042 317.267689 
L 246.295991 315.519319 
L 246.746154 314.797343 
L 248.102029 312.500971 
L 248.601711 311.608564 
L 249.752959 309.457954 
L 249.980352 309.017574 
L 250.863959 307.257509 
L 251.48997 305.963541 
L 252.833546 303.054733 
L 253.399464 301.775782 
L 253.875362 300.675609 
L 255.107759 297.721855 
L 256.178626 295.032558 
L 257.023492 292.830313 
L 257.232986 292.273253 
L 258.282826 289.415894 
L 258.718366 288.198299 
L 259.744902 285.253863 
L 260.561663 282.836237 
L 261.777507 279.114393 
L 262.589758 276.546049 
L 263.220898 274.505066 
L 263.979399 271.999794 
L 264.720335 269.497273 
L 265.208746 267.817793 
L 266.120852 264.617823 
L 267.014415 261.402652 
L 268.215692 256.955101 
L 269.00538 253.953192 
L 269.745088 251.085002 
L 270.128533 249.576784 
L 271.441811 244.300389 
L 271.703476 243.228589 
L 273.202876 236.955587 
L 273.57459 235.36586 
L 274.764287 230.185427 
L 275.289254 227.854727 
L 276.323693 223.18188 
L 276.80577 220.967836 
L 277.439265 218.023225 
L 278.570068 212.667783 
L 279.620974 207.576678 
L 279.780124 206.796098 
L 281.13293 200.059275 
L 281.717762 197.090506 
L 282.579542 192.653866 
L 283.476654 187.956838 
L 284.457343 182.730618 
L 285.080111 179.362135 
L 285.797162 175.435894 
L 286.873117 169.448504 
L 287.285328 167.124147 
L 288.136646 162.27027 
L 288.719112 158.907739 
L 289.672457 153.331322 
L 290.333149 149.413682 
L 291.239742 143.967271 
L 292.489414 136.325742 
L 292.834736 134.186762 
L 294.171728 125.793334 
L 294.525369 123.543495 
L 295.803406 115.308969 
L 296.069351 113.575031 
L 297.083089 106.901024 
L 298.15615 99.725075 
L 298.990431 94.066781 
L 299.726963 89.013889 
L 300.398721 84.358323 
L 301.394385 77.375358 
L 301.543461 76.321344 
L 302.475234 69.683325 
L 303.76116 60.38043 
L 304.071996 58.107032 
L 305.119879 50.372184 
L 305.86753 44.78669 
L 306.421056 40.615626 
L 307.237861 34.404962 
L 308.768002 22.59173 
L 309.312079 18.335127 
L 310.056904 12.460219 
L 310.813883 6.432886 
z
" clip-path="url(#p7cce316950)" style="fill: #808080; opacity: 0.5"/>
   </g>
   <g id="matplotlib.axis_1">
    <g id="xtick_1">
     <g id="line2d_1">
      <defs>
       <path id="mfd4025a65e" d="M 0 0 
L 0 3.5 
" style="stroke: #000000; stroke-width: 0.8"/>
      </defs>
      <g>
       <use xlink:href="#mfd4025a65e" x="149.986117" y="328.088419" style="stroke: #000000; stroke-width: 0.8"/>
      </g>
     </g>
     <g id="text_1">
      <!-- −4 -->
      <g transform="translate(142.615023 342.686857) scale(0.1 -0.1)">
       <defs>
        <path id="DejaVuSans-2212" d="M 678 2272 
L 4684 2272 
L 4684 1741 
L 678 1741 
L 678 2272 
z
" transform="scale(0.015625)"/>
        <path id="DejaVuSans-34" d="M 2419 4116 
L 825 1625 
L 2419 1625 
L 2419 4116 
z
M 2253 4666 
L 3047 4666 
L 3047 1625 
L 3713 1625 
L 3713 1100 
L 3047 1100 
L 3047 0 
L 2419 0 
L 2419 1100 
L 313 1100 
L 313 1709 
L 2253 4666 
z
" transform="scale(0.015625)"/>
       </defs>
       <use xlink:href="#DejaVuSans-2212"/>
       <use xlink:href="#DejaVuSans-34" x="83.789062"/>
      </g>
     </g>
    </g>
    <g id="xtick_2">
     <g id="line2d_2">
      <g>
       <use xlink:href="#mfd4025a65e" x="170.089587" y="328.088419" style="stroke: #000000; stroke-width: 0.8"/>
      </g>
     </g>
     <g id="text_2">
      <!-- −3 -->
      <g transform="translate(162.718494 342.686857) scale(0.1 -0.1)">
       <defs>
        <path id="DejaVuSans-33" d="M 2597 2516 
Q 3050 2419 3304 2112 
Q 3559 1806 3559 1356 
Q 3559 666 3084 287 
Q 2609 -91 1734 -91 
Q 1441 -91 1130 -33 
Q 819 25 488 141 
L 488 750 
Q 750 597 1062 519 
Q 1375 441 1716 441 
Q 2309 441 2620 675 
Q 2931 909 2931 1356 
Q 2931 1769 2642 2001 
Q 2353 2234 1838 2234 
L 1294 2234 
L 1294 2753 
L 1863 2753 
Q 2328 2753 2575 2939 
Q 2822 3125 2822 3475 
Q 2822 3834 2567 4026 
Q 2313 4219 1838 4219 
Q 1578 4219 1281 4162 
Q 984 4106 628 3988 
L 628 4550 
Q 988 4650 1302 4700 
Q 1616 4750 1894 4750 
Q 2613 4750 3031 4423 
Q 3450 4097 3450 3541 
Q 3450 3153 3228 2886 
Q 3006 2619 2597 2516 
z
" transform="scale(0.015625)"/>
       </defs>
       <use xlink:href="#DejaVuSans-2212"/>
       <use xlink:href="#DejaVuSans-33" x="83.789062"/>
      </g>
     </g>
    </g>
    <g id="xtick_3">
     <g id="line2d_3">
      <g>
       <use xlink:href="#mfd4025a65e" x="190.193058" y="328.088419" style="stroke: #000000; stroke-width: 0.8"/>
      </g>
     </g>
     <g id="text_3">
      <!-- −2 -->
      <g transform="translate(182.821965 342.686857) scale(0.1 -0.1)">
       <defs>
        <path id="DejaVuSans-32" d="M 1228 531 
L 3431 531 
L 3431 0 
L 469 0 
L 469 531 
Q 828 903 1448 1529 
Q 2069 2156 2228 2338 
Q 2531 2678 2651 2914 
Q 2772 3150 2772 3378 
Q 2772 3750 2511 3984 
Q 2250 4219 1831 4219 
Q 1534 4219 1204 4116 
Q 875 4013 500 3803 
L 500 4441 
Q 881 4594 1212 4672 
Q 1544 4750 1819 4750 
Q 2544 4750 2975 4387 
Q 3406 4025 3406 3419 
Q 3406 3131 3298 2873 
Q 3191 2616 2906 2266 
Q 2828 2175 2409 1742 
Q 1991 1309 1228 531 
z
" transform="scale(0.015625)"/>
       </defs>
       <use xlink:href="#DejaVuSans-2212"/>
       <use xlink:href="#DejaVuSans-32" x="83.789062"/>
      </g>
     </g>
    </g>
    <g id="xtick_4">
     <g id="line2d_4">
      <g>
       <use xlink:href="#mfd4025a65e" x="210.296529" y="328.088419" style="stroke: #000000; stroke-width: 0.8"/>
      </g>
     </g>
     <g id="text_4">
      <!-- −1 -->
      <g transform="translate(202.925435 342.686857) scale(0.1 -0.1)">
       <defs>
        <path id="DejaVuSans-31" d="M 794 531 
L 1825 531 
L 1825 4091 
L 703 3866 
L 703 4441 
L 1819 4666 
L 2450 4666 
L 2450 531 
L 3481 531 
L 3481 0 
L 794 0 
L 794 531 
z
" transform="scale(0.015625)"/>
       </defs>
       <use xlink:href="#DejaVuSans-2212"/>
       <use xlink:href="#DejaVuSans-31" x="83.789062"/>
      </g>
     </g>
    </g>
    <g id="xtick_5">
     <g id="line2d_5">
      <g>
       <use xlink:href="#mfd4025a65e" x="230.4" y="328.088419" style="stroke: #000000; stroke-width: 0.8"/>
      </g>
     </g>
    </g>
    <g id="xtick_6">
     <g id="line2d_6">
      <g>
       <use xlink:href="#mfd4025a65e" x="250.503471" y="328.088419" style="stroke: #000000; stroke-width: 0.8"/>
      </g>
     </g>
     <g id="text_5">
      <!-- 1 -->
      <g transform="translate(247.322221 342.686857) scale(0.1 -0.1)">
       <use xlink:href="#DejaVuSans-31"/>
      </g>
     </g>
    </g>
    <g id="xtick_7">
     <g id="line2d_7">
      <g>
       <use xlink:href="#mfd4025a65e" x="270.606942" y="328.088419" style="stroke: #000000; stroke-width: 0.8"/>
      </g>
     </g>
     <g id="text_6">
      <!-- 2 -->
      <g transform="translate(267.425692 342.686857) scale(0.1 -0.1)">
       <use xlink:href="#DejaVuSans-32"/>
      </g>
     </g>
    </g>
    <g id="xtick_8">
     <g id="line2d_8">
      <g>
       <use xlink:href="#mfd4025a65e" x="290.710413" y="328.088419" style="stroke: #000000; stroke-width: 0.8"/>
      </g>
     </g>
     <g id="text_7">
      <!-- 3 -->
      <g transform="translate(287.529163 342.686857) scale(0.1 -0.1)">
       <use xlink:href="#DejaVuSans-33"/>
      </g>
     </g>
    </g>
    <g id="xtick_9">
     <g id="line2d_9">
      <g>
       <use xlink:href="#mfd4025a65e" x="310.813883" y="328.088419" style="stroke: #000000; stroke-width: 0.8"/>
      </g>
     </g>
     <g id="text_8">
      <!-- 4 -->
      <g transform="translate(307.632633 342.686857) scale(0.1 -0.1)">
       <use xlink:href="#DejaVuSans-34"/>
      </g>
     </g>
    </g>
    <g id="xtick_10">
     <g id="line2d_10">
      <defs>
       <path id="md9a8fc691d" d="M 0 0 
L 0 2 
" style="stroke: #000000; stroke-width: 0.6"/>
      </defs>
      <g>
       <use xlink:href="#md9a8fc691d" x="154.006811" y="328.088419" style="stroke: #000000; stroke-width: 0.6"/>
      </g>
     </g>
    </g>
    <g id="xtick_11">
     <g id="line2d_11">
      <g>
       <use xlink:href="#md9a8fc691d" x="158.027505" y="328.088419" style="stroke: #000000; stroke-width: 0.6"/>
      </g>
     </g>
    </g>
    <g id="xtick_12">
     <g id="line2d_12">
      <g>
       <use xlink:href="#md9a8fc691d" x="162.048199" y="328.088419" style="stroke: #000000; stroke-width: 0.6"/>
      </g>
     </g>
    </g>
    <g id="xtick_13">
     <g id="line2d_13">
      <g>
       <use xlink:href="#md9a8fc691d" x="166.068893" y="328.088419" style="stroke: #000000; stroke-width: 0.6"/>
      </g>
     </g>
    </g>
    <g id="xtick_14">
     <g id="line2d_14">
      <g>
       <use xlink:href="#md9a8fc691d" x="174.110282" y="328.088419" style="stroke: #000000; stroke-width: 0.6"/>
      </g>
     </g>
    </g>
    <g id="xtick_15">
     <g id="line2d_15">
      <g>
       <use xlink:href="#md9a8fc691d" x="178.130976" y="328.088419" style="stroke: #000000; stroke-width: 0.6"/>
      </g>
     </g>
    </g>
    <g id="xtick_16">
     <g id="line2d_16">
      <g>
       <use xlink:href="#md9a8fc691d" x="182.15167" y="328.088419" style="stroke: #000000; stroke-width: 0.6"/>
      </g>
     </g>
    </g>
    <g id="xtick_17">
     <g id="line2d_17">
      <g>
       <use xlink:href="#md9a8fc691d" x="186.172364" y="328.088419" style="stroke: #000000; stroke-width: 0.6"/>
      </g>
     </g>
    </g>
    <g id="xtick_18">
     <g id="line2d_18">
      <g>
       <use xlink:href="#md9a8fc691d" x="194.213752" y="328.088419" style="stroke: #000000; stroke-width: 0.6"/>
      </g>
     </g>
    </g>
    <g id="xtick_19">
     <g id="line2d_19">
      <g>
       <use xlink:href="#md9a8fc691d" x="198.234447" y="328.088419" style="stroke: #000000; stroke-width: 0.6"/>
      </g>
     </g>
    </g>
    <g id="xtick_20">
     <g id="line2d_20">
      <g>
       <use xlink:href="#md9a8fc691d" x="202.255141" y="328.088419" style="stroke: #000000; stroke-width: 0.6"/>
      </g>
     </g>
    </g>
    <g id="xtick_21">
     <g id="line2d_21">
      <g>
       <use xlink:href="#md9a8fc691d" x="206.275835" y="328.088419" style="stroke: #000000; stroke-width: 0.6"/>
      </g>
     </g>
    </g>
    <g id="xtick_22">
     <g id="line2d_22">
      <g>
       <use xlink:href="#md9a8fc691d" x="214.317223" y="328.088419" style="stroke: #000000; stroke-width: 0.6"/>
      </g>
     </g>
    </g>
    <g id="xtick_23">
     <g id="line2d_23">
      <g>
       <use xlink:href="#md9a8fc691d" x="218.337917" y="328.088419" style="stroke: #000000; stroke-width: 0.6"/>
      </g>
     </g>
    </g>
    <g id="xtick_24">
     <g id="line2d_24">
      <g>
       <use xlink:href="#md9a8fc691d" x="222.358612" y="328.088419" style="stroke: #000000; stroke-width: 0.6"/>
      </g>
     </g>
    </g>
    <g id="xtick_25">
     <g id="line2d_25">
      <g>
       <use xlink:href="#md9a8fc691d" x="226.379306" y="328.088419" style="stroke: #000000; stroke-width: 0.6"/>
      </g>
     </g>
    </g>
    <g id="xtick_26">
     <g id="line2d_26">
      <g>
       <use xlink:href="#md9a8fc691d" x="234.420694" y="328.088419" style="stroke: #000000; stroke-width: 0.6"/>
      </g>
     </g>
    </g>
    <g id="xtick_27">
     <g id="line2d_27">
      <g>
       <use xlink:href="#md9a8fc691d" x="238.441388" y="328.088419" style="stroke: #000000; stroke-width: 0.6"/>
      </g>
     </g>
    </g>
    <g id="xtick_28">
     <g id="line2d_28">
      <g>
       <use xlink:href="#md9a8fc691d" x="242.462083" y="328.088419" style="stroke: #000000; stroke-width: 0.6"/>
      </g>
     </g>
    </g>
    <g id="xtick_29">
     <g id="line2d_29">
      <g>
       <use xlink:href="#md9a8fc691d" x="246.482777" y="328.088419" style="stroke: #000000; stroke-width: 0.6"/>
      </g>
     </g>
    </g>
    <g id="xtick_30">
     <g id="line2d_30">
      <g>
       <use xlink:href="#md9a8fc691d" x="254.524165" y="328.088419" style="stroke: #000000; stroke-width: 0.6"/>
      </g>
     </g>
    </g>
    <g id="xtick_31">
     <g id="line2d_31">
      <g>
       <use xlink:href="#md9a8fc691d" x="258.544859" y="328.088419" style="stroke: #000000; stroke-width: 0.6"/>
      </g>
     </g>
    </g>
    <g id="xtick_32">
     <g id="line2d_32">
      <g>
       <use xlink:href="#md9a8fc691d" x="262.565553" y="328.088419" style="stroke: #000000; stroke-width: 0.6"/>
      </g>
     </g>
    </g>
    <g id="xtick_33">
     <g id="line2d_33">
      <g>
       <use xlink:href="#md9a8fc691d" x="266.586248" y="328.088419" style="stroke: #000000; stroke-width: 0.6"/>
      </g>
     </g>
    </g>
    <g id="xtick_34">
     <g id="line2d_34">
      <g>
       <use xlink:href="#md9a8fc691d" x="274.627636" y="328.088419" style="stroke: #000000; stroke-width: 0.6"/>
      </g>
     </g>
    </g>
    <g id="xtick_35">
     <g id="line2d_35">
      <g>
       <use xlink:href="#md9a8fc691d" x="278.64833" y="328.088419" style="stroke: #000000; stroke-width: 0.6"/>
      </g>
     </g>
    </g>
    <g id="xtick_36">
     <g id="line2d_36">
      <g>
       <use xlink:href="#md9a8fc691d" x="282.669024" y="328.088419" style="stroke: #000000; stroke-width: 0.6"/>
      </g>
     </g>
    </g>
    <g id="xtick_37">
     <g id="line2d_37">
      <g>
       <use xlink:href="#md9a8fc691d" x="286.689718" y="328.088419" style="stroke: #000000; stroke-width: 0.6"/>
      </g>
     </g>
    </g>
    <g id="xtick_38">
     <g id="line2d_38">
      <g>
       <use xlink:href="#md9a8fc691d" x="294.731107" y="328.088419" style="stroke: #000000; stroke-width: 0.6"/>
      </g>
     </g>
    </g>
    <g id="xtick_39">
     <g id="line2d_39">
      <g>
       <use xlink:href="#md9a8fc691d" x="298.751801" y="328.088419" style="stroke: #000000; stroke-width: 0.6"/>
      </g>
     </g>
    </g>
    <g id="xtick_40">
     <g id="line2d_40">
      <g>
       <use xlink:href="#md9a8fc691d" x="302.772495" y="328.088419" style="stroke: #000000; stroke-width: 0.6"/>
      </g>
     </g>
    </g>
    <g id="xtick_41">
     <g id="line2d_41">
      <g>
       <use xlink:href="#md9a8fc691d" x="306.793189" y="328.088419" style="stroke: #000000; stroke-width: 0.6"/>
      </g>
     </g>
    </g>
   </g>
   <g id="matplotlib.axis_2">
    <g id="ytick_1">
     <g id="line2d_42">
      <defs>
       <path id="m1a17894c6a" d="M 0 0 
L -3.5 0 
" style="stroke: #000000; stroke-width: 0.8"/>
      </defs>
      <g>
       <use xlink:href="#m1a17894c6a" x="230.4" y="328.088419" style="stroke: #000000; stroke-width: 0.8"/>
      </g>
     </g>
    </g>
    <g id="ytick_2">
     <g id="line2d_43">
      <g>
       <use xlink:href="#m1a17894c6a" x="230.4" y="287.881478" style="stroke: #000000; stroke-width: 0.8"/>
      </g>
     </g>
     <g id="text_9">
      <!-- 2 -->
      <g transform="translate(217.0375 291.680696) scale(0.1 -0.1)">
       <use xlink:href="#DejaVuSans-32"/>
      </g>
     </g>
    </g>
    <g id="ytick_3">
     <g id="line2d_44">
      <g>
       <use xlink:href="#m1a17894c6a" x="230.4" y="247.674536" style="stroke: #000000; stroke-width: 0.8"/>
      </g>
     </g>
     <g id="text_10">
      <!-- 4 -->
      <g transform="translate(217.0375 251.473755) scale(0.1 -0.1)">
       <use xlink:href="#DejaVuSans-34"/>
      </g>
     </g>
    </g>
    <g id="ytick_4">
     <g id="line2d_45">
      <g>
       <use xlink:href="#m1a17894c6a" x="230.4" y="207.467594" style="stroke: #000000; stroke-width: 0.8"/>
      </g>
     </g>
     <g id="text_11">
      <!-- 6 -->
      <g transform="translate(217.0375 211.266813) scale(0.1 -0.1)">
       <defs>
        <path id="DejaVuSans-36" d="M 2113 2584 
Q 1688 2584 1439 2293 
Q 1191 2003 1191 1497 
Q 1191 994 1439 701 
Q 1688 409 2113 409 
Q 2538 409 2786 701 
Q 3034 994 3034 1497 
Q 3034 2003 2786 2293 
Q 2538 2584 2113 2584 
z
M 3366 4563 
L 3366 3988 
Q 3128 4100 2886 4159 
Q 2644 4219 2406 4219 
Q 1781 4219 1451 3797 
Q 1122 3375 1075 2522 
Q 1259 2794 1537 2939 
Q 1816 3084 2150 3084 
Q 2853 3084 3261 2657 
Q 3669 2231 3669 1497 
Q 3669 778 3244 343 
Q 2819 -91 2113 -91 
Q 1303 -91 875 529 
Q 447 1150 447 2328 
Q 447 3434 972 4092 
Q 1497 4750 2381 4750 
Q 2619 4750 2861 4703 
Q 3103 4656 3366 4563 
z
" transform="scale(0.015625)"/>
       </defs>
       <use xlink:href="#DejaVuSans-36"/>
      </g>
     </g>
    </g>
    <g id="ytick_5">
     <g id="line2d_46">
      <g>
       <use xlink:href="#m1a17894c6a" x="230.4" y="167.260653" style="stroke: #000000; stroke-width: 0.8"/>
      </g>
     </g>
     <g id="text_12">
      <!-- 8 -->
      <g transform="translate(217.0375 171.059871) scale(0.1 -0.1)">
       <defs>
        <path id="DejaVuSans-38" d="M 2034 2216 
Q 1584 2216 1326 1975 
Q 1069 1734 1069 1313 
Q 1069 891 1326 650 
Q 1584 409 2034 409 
Q 2484 409 2743 651 
Q 3003 894 3003 1313 
Q 3003 1734 2745 1975 
Q 2488 2216 2034 2216 
z
M 1403 2484 
Q 997 2584 770 2862 
Q 544 3141 544 3541 
Q 544 4100 942 4425 
Q 1341 4750 2034 4750 
Q 2731 4750 3128 4425 
Q 3525 4100 3525 3541 
Q 3525 3141 3298 2862 
Q 3072 2584 2669 2484 
Q 3125 2378 3379 2068 
Q 3634 1759 3634 1313 
Q 3634 634 3220 271 
Q 2806 -91 2034 -91 
Q 1263 -91 848 271 
Q 434 634 434 1313 
Q 434 1759 690 2068 
Q 947 2378 1403 2484 
z
M 1172 3481 
Q 1172 3119 1398 2916 
Q 1625 2713 2034 2713 
Q 2441 2713 2670 2916 
Q 2900 3119 2900 3481 
Q 2900 3844 2670 4047 
Q 2441 4250 2034 4250 
Q 1625 4250 1398 4047 
Q 1172 3844 1172 3481 
z
" transform="scale(0.015625)"/>
       </defs>
       <use xlink:href="#DejaVuSans-38"/>
      </g>
     </g>
    </g>
    <g id="ytick_6">
     <g id="line2d_47">
      <g>
       <use xlink:href="#m1a17894c6a" x="230.4" y="127.053711" style="stroke: #000000; stroke-width: 0.8"/>
      </g>
     </g>
     <g id="text_13">
      <!-- 10 -->
      <g transform="translate(210.675 130.85293) scale(0.1 -0.1)">
       <defs>
        <path id="DejaVuSans-30" d="M 2034 4250 
Q 1547 4250 1301 3770 
Q 1056 3291 1056 2328 
Q 1056 1369 1301 889 
Q 1547 409 2034 409 
Q 2525 409 2770 889 
Q 3016 1369 3016 2328 
Q 3016 3291 2770 3770 
Q 2525 4250 2034 4250 
z
M 2034 4750 
Q 2819 4750 3233 4129 
Q 3647 3509 3647 2328 
Q 3647 1150 3233 529 
Q 2819 -91 2034 -91 
Q 1250 -91 836 529 
Q 422 1150 422 2328 
Q 422 3509 836 4129 
Q 1250 4750 2034 4750 
z
" transform="scale(0.015625)"/>
       </defs>
       <use xlink:href="#DejaVuSans-31"/>
       <use xlink:href="#DejaVuSans-30" x="63.623047"/>
      </g>
     </g>
    </g>
    <g id="ytick_7">
     <g id="line2d_48">
      <g>
       <use xlink:href="#m1a17894c6a" x="230.4" y="86.846769" style="stroke: #000000; stroke-width: 0.8"/>
      </g>
     </g>
     <g id="text_14">
      <!-- 12 -->
      <g transform="translate(210.675 90.645988) scale(0.1 -0.1)">
       <use xlink:href="#DejaVuSans-31"/>
       <use xlink:href="#DejaVuSans-32" x="63.623047"/>
      </g>
     </g>
    </g>
    <g id="ytick_8">
     <g id="line2d_49">
      <g>
       <use xlink:href="#m1a17894c6a" x="230.4" y="46.639828" style="stroke: #000000; stroke-width: 0.8"/>
      </g>
     </g>
     <g id="text_15">
      <!-- 14 -->
      <g transform="translate(210.675 50.439046) scale(0.1 -0.1)">
       <use xlink:href="#DejaVuSans-31"/>
       <use xlink:href="#DejaVuSans-34" x="63.623047"/>
      </g>
     </g>
    </g>
    <g id="ytick_9">
     <g id="line2d_50">
      <g>
       <use xlink:href="#m1a17894c6a" x="230.4" y="6.432886" style="stroke: #000000; stroke-width: 0.8"/>
      </g>
     </g>
     <g id="text_16">
      <!-- 16 -->
      <g transform="translate(210.675 10.232105) scale(0.1 -0.1)">
       <use xlink:href="#DejaVuSans-31"/>
       <use xlink:href="#DejaVuSans-36" x="63.623047"/>
      </g>
     </g>
    </g>
    <g id="ytick_10">
     <g id="line2d_51">
      <defs>
       <path id="m1d9dac502e" d="M 0 0 
L -2 0 
" style="stroke: #000000; stroke-width: 0.6"/>
      </defs>
      <g>
       <use xlink:href="#m1d9dac502e" x="230.4" y="318.036684" style="stroke: #000000; stroke-width: 0.6"/>
      </g>
     </g>
    </g>
    <g id="ytick_11">
     <g id="line2d_52">
      <g>
       <use xlink:href="#m1d9dac502e" x="230.4" y="307.984949" style="stroke: #000000; stroke-width: 0.6"/>
      </g>
     </g>
    </g>
    <g id="ytick_12">
     <g id="line2d_53">
      <g>
       <use xlink:href="#m1d9dac502e" x="230.4" y="297.933213" style="stroke: #000000; stroke-width: 0.6"/>
      </g>
     </g>
    </g>
    <g id="ytick_13">
     <g id="line2d_54">
      <g>
       <use xlink:href="#m1d9dac502e" x="230.4" y="277.829742" style="stroke: #000000; stroke-width: 0.6"/>
      </g>
     </g>
    </g>
    <g id="ytick_14">
     <g id="line2d_55">
      <g>
       <use xlink:href="#m1d9dac502e" x="230.4" y="267.778007" style="stroke: #000000; stroke-width: 0.6"/>
      </g>
     </g>
    </g>
    <g id="ytick_15">
     <g id="line2d_56">
      <g>
       <use xlink:href="#m1d9dac502e" x="230.4" y="257.726271" style="stroke: #000000; stroke-width: 0.6"/>
      </g>
     </g>
    </g>
    <g id="ytick_16">
     <g id="line2d_57">
      <g>
       <use xlink:href="#m1d9dac502e" x="230.4" y="237.622801" style="stroke: #000000; stroke-width: 0.6"/>
      </g>
     </g>
    </g>
    <g id="ytick_17">
     <g id="line2d_58">
      <g>
       <use xlink:href="#m1d9dac502e" x="230.4" y="227.571065" style="stroke: #000000; stroke-width: 0.6"/>
      </g>
     </g>
    </g>
    <g id="ytick_18">
     <g id="line2d_59">
      <g>
       <use xlink:href="#m1d9dac502e" x="230.4" y="217.51933" style="stroke: #000000; stroke-width: 0.6"/>
      </g>
     </g>
    </g>
    <g id="ytick_19">
     <g id="line2d_60">
      <g>
       <use xlink:href="#m1d9dac502e" x="230.4" y="197.415859" style="stroke: #000000; stroke-width: 0.6"/>
      </g>
     </g>
    </g>
    <g id="ytick_20">
     <g id="line2d_61">
      <g>
       <use xlink:href="#m1d9dac502e" x="230.4" y="187.364124" style="stroke: #000000; stroke-width: 0.6"/>
      </g>
     </g>
    </g>
    <g id="ytick_21">
     <g id="line2d_62">
      <g>
       <use xlink:href="#m1d9dac502e" x="230.4" y="177.312388" style="stroke: #000000; stroke-width: 0.6"/>
      </g>
     </g>
    </g>
    <g id="ytick_22">
     <g id="line2d_63">
      <g>
       <use xlink:href="#m1d9dac502e" x="230.4" y="157.208917" style="stroke: #000000; stroke-width: 0.6"/>
      </g>
     </g>
    </g>
    <g id="ytick_23">
     <g id="line2d_64">
      <g>
       <use xlink:href="#m1d9dac502e" x="230.4" y="147.157182" style="stroke: #000000; stroke-width: 0.6"/>
      </g>
     </g>
    </g>
    <g id="ytick_24">
     <g id="line2d_65">
      <g>
       <use xlink:href="#m1d9dac502e" x="230.4" y="137.105446" style="stroke: #000000; stroke-width: 0.6"/>
      </g>
     </g>
    </g>
    <g id="ytick_25">
     <g id="line2d_66">
      <g>
       <use xlink:href="#m1d9dac502e" x="230.4" y="117.001976" style="stroke: #000000; stroke-width: 0.6"/>
      </g>
     </g>
    </g>
    <g id="ytick_26">
     <g id="line2d_67">
      <g>
       <use xlink:href="#m1d9dac502e" x="230.4" y="106.95024" style="stroke: #000000; stroke-width: 0.6"/>
      </g>
     </g>
    </g>
    <g id="ytick_27">
     <g id="line2d_68">
      <g>
       <use xlink:href="#m1d9dac502e" x="230.4" y="96.898505" style="stroke: #000000; stroke-width: 0.6"/>
      </g>
     </g>
    </g>
    <g id="ytick_28">
     <g id="line2d_69">
      <g>
       <use xlink:href="#m1d9dac502e" x="230.4" y="76.795034" style="stroke: #000000; stroke-width: 0.6"/>
      </g>
     </g>
    </g>
    <g id="ytick_29">
     <g id="line2d_70">
      <g>
       <use xlink:href="#m1d9dac502e" x="230.4" y="66.743298" style="stroke: #000000; stroke-width: 0.6"/>
      </g>
     </g>
    </g>
    <g id="ytick_30">
     <g id="line2d_71">
      <g>
       <use xlink:href="#m1d9dac502e" x="230.4" y="56.691563" style="stroke: #000000; stroke-width: 0.6"/>
      </g>
     </g>
    </g>
    <g id="ytick_31">
     <g id="line2d_72">
      <g>
       <use xlink:href="#m1d9dac502e" x="230.4" y="36.588092" style="stroke: #000000; stroke-width: 0.6"/>
      </g>
     </g>
    </g>
    <g id="ytick_32">
     <g id="line2d_73">
      <g>
       <use xlink:href="#m1d9dac502e" x="230.4" y="26.536357" style="stroke: #000000; stroke-width: 0.6"/>
      </g>
     </g>
    </g>
    <g id="ytick_33">
     <g id="line2d_74">
      <g>
       <use xlink:href="#m1d9dac502e" x="230.4" y="16.484621" style="stroke: #000000; stroke-width: 0.6"/>
      </g>
     </g>
    </g>
   </g>
   <g id="line2d_75">
    <path d="M 149.986117 6.432886 
L 153.701143 35.466574 
L 158.342726 69.812084 
L 162.244693 97.026531 
L 166.134394 122.64787 
L 169.335767 142.605991 
L 173.047727 164.470744 
L 177.156193 187.072819 
L 181.185163 207.60673 
L 184.52636 223.410433 
L 188.195095 239.484118 
L 191.513772 252.870627 
L 194.009413 262.215475 
L 197.078995 272.859679 
L 200.065188 282.315189 
L 202.366915 288.997962 
L 204.56811 294.895816 
L 206.520312 299.723192 
L 209.472351 306.302804 
L 211.927202 311.114023 
L 214.387204 315.333924 
L 217.20879 319.432799 
L 218.494521 321.037874 
L 220.980404 323.674814 
L 223.328847 325.601227 
L 225.587165 326.936211 
L 226.431129 327.304876 
L 227.71951 327.731017 
L 229.183429 328.014798 
L 229.924658 328.07718 
L 231.592966 328.017627 
L 232.276758 327.913215 
L 233.697588 327.547514 
L 235.492558 326.798386 
L 237.147054 325.823997 
L 238.757401 324.614086 
L 240.949164 322.552815 
L 242.568711 320.72265 
L 245.149042 317.267689 
L 246.746154 314.797343 
L 248.601711 311.608564 
L 250.863959 307.257509 
L 253.399464 301.775782 
L 255.107759 297.721855 
L 257.232986 292.273253 
L 259.744902 285.253863 
L 262.589758 276.546049 
L 265.208746 267.817793 
L 268.215692 256.955101 
L 271.441811 244.300389 
L 273.57459 235.36586 
L 276.80577 220.967836 
L 279.780124 206.796098 
L 283.476654 187.956838 
L 287.285328 167.124147 
L 291.239742 143.967271 
L 294.525369 123.543495 
L 298.990431 94.066781 
L 302.475234 69.683325 
L 306.421056 40.615626 
L 310.813883 6.432886 
L 310.813883 6.432886 
" clip-path="url(#p7cce316950)" style="fill: none; stroke: #0000ff; stroke-linecap: square"/>
   </g>
   <g id="patch_4">
    <path d="M 230.4 334.510066 
L 230.4 0 
" style="fill: none; stroke: #000000; stroke-width: 0.8; stroke-linejoin: miter; stroke-linecap: square"/>
   </g>
   <g id="patch_5">
    <path d="M 146.769561 328.088419 
L 314.030439 328.088419 
" style="fill: none; stroke: #000000; stroke-width: 0.8; stroke-linejoin: miter; stroke-linecap: square"/>
   </g>
  </g>
 </g>
 <defs>
  <clipPath id="p7cce316950">
   <rect x="146.769561" y="0" width="167.260877" height="334.510066"/>
  </clipPath>
 </defs>
</svg>
