<?xml version="1.0" encoding="utf-8" standalone="no"?>
<!DOCTYPE svg PUBLIC "-//W3C//DTD SVG 1.1//EN"
  "http://www.w3.org/Graphics/SVG/1.1/DTD/svg11.dtd">
<!-- Created with matplotlib (http://matplotlib.org/) -->
<svg height="345.6pt" version="1.1" viewBox="0 0 460.8 345.6" width="460.8pt" xmlns="http://www.w3.org/2000/svg" xmlns:xlink="http://www.w3.org/1999/xlink">
 <defs>
  <style type="text/css">
*{stroke-linecap:butt;stroke-linejoin:round;}
  </style>
 </defs>
 <g id="figure_1">
  <g id="patch_1">
   <path d="M 0 345.6 
L 460.8 345.6 
L 460.8 0 
L 0 0 
z
" style="fill:#ffffff;"/>
  </g>
  <g id="axes_1">
   <g id="patch_2">
    <path d="M 2.52 286.736861 
L 458.28 286.736861 
L 458.28 58.863139 
L 2.52 58.863139 
z
" style="fill:#ffffff;"/>
   </g>
   <g id="matplotlib.axis_1">
    <g id="xtick_1">
     <g id="line2d_1">
      <defs>
       <path d="M 0 0 
L 0 3.5 
" id="m9f756547c0" style="stroke:#000000;stroke-width:0.8;"/>
      </defs>
      <g>
       <use style="stroke:#000000;stroke-width:0.8;" x="11.267243" xlink:href="#m9f756547c0" y="172.807048"/>
      </g>
     </g>
     <g id="text_1">
      <!-- -1 -->
      <defs>
       <path d="M 4.890625 31.390625 
L 31.203125 31.390625 
L 31.203125 23.390625 
L 4.890625 23.390625 
z
" id="DejaVuSans-2d"/>
       <path d="M 12.40625 8.296875 
L 28.515625 8.296875 
L 28.515625 63.921875 
L 10.984375 60.40625 
L 10.984375 69.390625 
L 28.421875 72.90625 
L 38.28125 72.90625 
L 38.28125 8.296875 
L 54.390625 8.296875 
L 54.390625 0 
L 12.40625 0 
z
" id="DejaVuSans-31"/>
      </defs>
      <g transform="translate(6.282086 187.405485)scale(0.1 -0.1)">
       <use xlink:href="#DejaVuSans-2d"/>
       <use x="36.083984" xlink:href="#DejaVuSans-31"/>
      </g>
     </g>
    </g>
    <g id="xtick_2">
     <g id="line2d_2">
      <g>
       <use style="stroke:#000000;stroke-width:0.8;" x="120.829278" xlink:href="#m9f756547c0" y="172.807048"/>
      </g>
     </g>
     <g id="text_2">
      <!-- -0.5 -->
      <defs>
       <path d="M 31.78125 66.40625 
Q 24.171875 66.40625 20.328125 58.90625 
Q 16.5 51.421875 16.5 36.375 
Q 16.5 21.390625 20.328125 13.890625 
Q 24.171875 6.390625 31.78125 6.390625 
Q 39.453125 6.390625 43.28125 13.890625 
Q 47.125 21.390625 47.125 36.375 
Q 47.125 51.421875 43.28125 58.90625 
Q 39.453125 66.40625 31.78125 66.40625 
z
M 31.78125 74.21875 
Q 44.046875 74.21875 50.515625 64.515625 
Q 56.984375 54.828125 56.984375 36.375 
Q 56.984375 17.96875 50.515625 8.265625 
Q 44.046875 -1.421875 31.78125 -1.421875 
Q 19.53125 -1.421875 13.0625 8.265625 
Q 6.59375 17.96875 6.59375 36.375 
Q 6.59375 54.828125 13.0625 64.515625 
Q 19.53125 74.21875 31.78125 74.21875 
z
" id="DejaVuSans-30"/>
       <path d="M 10.6875 12.40625 
L 21 12.40625 
L 21 0 
L 10.6875 0 
z
" id="DejaVuSans-2e"/>
       <path d="M 10.796875 72.90625 
L 49.515625 72.90625 
L 49.515625 64.59375 
L 19.828125 64.59375 
L 19.828125 46.734375 
Q 21.96875 47.46875 24.109375 47.828125 
Q 26.265625 48.1875 28.421875 48.1875 
Q 40.625 48.1875 47.75 41.5 
Q 54.890625 34.8125 54.890625 23.390625 
Q 54.890625 11.625 47.5625 5.09375 
Q 40.234375 -1.421875 26.90625 -1.421875 
Q 22.3125 -1.421875 17.546875 -0.640625 
Q 12.796875 0.140625 7.71875 1.703125 
L 7.71875 11.625 
Q 12.109375 9.234375 16.796875 8.0625 
Q 21.484375 6.890625 26.703125 6.890625 
Q 35.15625 6.890625 40.078125 11.328125 
Q 45.015625 15.765625 45.015625 23.390625 
Q 45.015625 31 40.078125 35.4375 
Q 35.15625 39.890625 26.703125 39.890625 
Q 22.75 39.890625 18.8125 39.015625 
Q 14.890625 38.140625 10.796875 36.28125 
z
" id="DejaVuSans-35"/>
      </defs>
      <g transform="translate(111.073809 187.405485)scale(0.1 -0.1)">
       <use xlink:href="#DejaVuSans-2d"/>
       <use x="36.083984" xlink:href="#DejaVuSans-30"/>
       <use x="99.707031" xlink:href="#DejaVuSans-2e"/>
       <use x="131.494141" xlink:href="#DejaVuSans-35"/>
      </g>
     </g>
    </g>
    <g id="xtick_3">
     <g id="line2d_3">
      <g>
       <use style="stroke:#000000;stroke-width:0.8;" x="230.391314" xlink:href="#m9f756547c0" y="172.807048"/>
      </g>
     </g>
    </g>
    <g id="xtick_4">
     <g id="line2d_4">
      <g>
       <use style="stroke:#000000;stroke-width:0.8;" x="339.953349" xlink:href="#m9f756547c0" y="172.807048"/>
      </g>
     </g>
     <g id="text_3">
      <!-- 0.5 -->
      <g transform="translate(332.001787 187.405485)scale(0.1 -0.1)">
       <use xlink:href="#DejaVuSans-30"/>
       <use x="63.623047" xlink:href="#DejaVuSans-2e"/>
       <use x="95.410156" xlink:href="#DejaVuSans-35"/>
      </g>
     </g>
    </g>
    <g id="xtick_5">
     <g id="line2d_5">
      <g>
       <use style="stroke:#000000;stroke-width:0.8;" x="449.515385" xlink:href="#m9f756547c0" y="172.807048"/>
      </g>
     </g>
     <g id="text_4">
      <!-- 1 -->
      <g transform="translate(446.334135 187.405485)scale(0.1 -0.1)">
       <use xlink:href="#DejaVuSans-31"/>
      </g>
     </g>
    </g>
    <g id="xtick_6">
     <g id="line2d_6">
      <defs>
       <path d="M 0 0 
L 0 2 
" id="m4e9c9e8333" style="stroke:#000000;stroke-width:0.6;"/>
      </defs>
      <g>
       <use style="stroke:#000000;stroke-width:0.6;" x="33.17965" xlink:href="#m4e9c9e8333" y="172.807048"/>
      </g>
     </g>
    </g>
    <g id="xtick_7">
     <g id="line2d_7">
      <g>
       <use style="stroke:#000000;stroke-width:0.6;" x="55.092057" xlink:href="#m4e9c9e8333" y="172.807048"/>
      </g>
     </g>
    </g>
    <g id="xtick_8">
     <g id="line2d_8">
      <g>
       <use style="stroke:#000000;stroke-width:0.6;" x="77.004464" xlink:href="#m4e9c9e8333" y="172.807048"/>
      </g>
     </g>
    </g>
    <g id="xtick_9">
     <g id="line2d_9">
      <g>
       <use style="stroke:#000000;stroke-width:0.6;" x="98.916871" xlink:href="#m4e9c9e8333" y="172.807048"/>
      </g>
     </g>
    </g>
    <g id="xtick_10">
     <g id="line2d_10">
      <g>
       <use style="stroke:#000000;stroke-width:0.6;" x="120.829278" xlink:href="#m4e9c9e8333" y="172.807048"/>
      </g>
     </g>
    </g>
    <g id="xtick_11">
     <g id="line2d_11">
      <g>
       <use style="stroke:#000000;stroke-width:0.6;" x="142.741685" xlink:href="#m4e9c9e8333" y="172.807048"/>
      </g>
     </g>
    </g>
    <g id="xtick_12">
     <g id="line2d_12">
      <g>
       <use style="stroke:#000000;stroke-width:0.6;" x="164.654092" xlink:href="#m4e9c9e8333" y="172.807048"/>
      </g>
     </g>
    </g>
    <g id="xtick_13">
     <g id="line2d_13">
      <g>
       <use style="stroke:#000000;stroke-width:0.6;" x="186.566499" xlink:href="#m4e9c9e8333" y="172.807048"/>
      </g>
     </g>
    </g>
    <g id="xtick_14">
     <g id="line2d_14">
      <g>
       <use style="stroke:#000000;stroke-width:0.6;" x="208.478907" xlink:href="#m4e9c9e8333" y="172.807048"/>
      </g>
     </g>
    </g>
    <g id="xtick_15">
     <g id="line2d_15">
      <g>
       <use style="stroke:#000000;stroke-width:0.6;" x="230.391314" xlink:href="#m4e9c9e8333" y="172.807048"/>
      </g>
     </g>
    </g>
    <g id="xtick_16">
     <g id="line2d_16">
      <g>
       <use style="stroke:#000000;stroke-width:0.6;" x="252.303721" xlink:href="#m4e9c9e8333" y="172.807048"/>
      </g>
     </g>
    </g>
    <g id="xtick_17">
     <g id="line2d_17">
      <g>
       <use style="stroke:#000000;stroke-width:0.6;" x="274.216128" xlink:href="#m4e9c9e8333" y="172.807048"/>
      </g>
     </g>
    </g>
    <g id="xtick_18">
     <g id="line2d_18">
      <g>
       <use style="stroke:#000000;stroke-width:0.6;" x="296.128535" xlink:href="#m4e9c9e8333" y="172.807048"/>
      </g>
     </g>
    </g>
    <g id="xtick_19">
     <g id="line2d_19">
      <g>
       <use style="stroke:#000000;stroke-width:0.6;" x="318.040942" xlink:href="#m4e9c9e8333" y="172.807048"/>
      </g>
     </g>
    </g>
    <g id="xtick_20">
     <g id="line2d_20">
      <g>
       <use style="stroke:#000000;stroke-width:0.6;" x="339.953349" xlink:href="#m4e9c9e8333" y="172.807048"/>
      </g>
     </g>
    </g>
    <g id="xtick_21">
     <g id="line2d_21">
      <g>
       <use style="stroke:#000000;stroke-width:0.6;" x="361.865756" xlink:href="#m4e9c9e8333" y="172.807048"/>
      </g>
     </g>
    </g>
    <g id="xtick_22">
     <g id="line2d_22">
      <g>
       <use style="stroke:#000000;stroke-width:0.6;" x="383.778163" xlink:href="#m4e9c9e8333" y="172.807048"/>
      </g>
     </g>
    </g>
    <g id="xtick_23">
     <g id="line2d_23">
      <g>
       <use style="stroke:#000000;stroke-width:0.6;" x="405.69057" xlink:href="#m4e9c9e8333" y="172.807048"/>
      </g>
     </g>
    </g>
    <g id="xtick_24">
     <g id="line2d_24">
      <g>
       <use style="stroke:#000000;stroke-width:0.6;" x="427.602978" xlink:href="#m4e9c9e8333" y="172.807048"/>
      </g>
     </g>
    </g>
    <g id="xtick_25">
     <g id="line2d_25">
      <g>
       <use style="stroke:#000000;stroke-width:0.6;" x="449.515385" xlink:href="#m4e9c9e8333" y="172.807048"/>
      </g>
     </g>
    </g>
   </g>
   <g id="matplotlib.axis_2">
    <g id="ytick_1">
     <g id="line2d_26">
      <defs>
       <path d="M 0 0 
L -3.5 0 
" id="me651425c1e" style="stroke:#000000;stroke-width:0.8;"/>
      </defs>
      <g>
       <use style="stroke:#000000;stroke-width:0.8;" x="230.391314" xlink:href="#me651425c1e" y="260.456676"/>
      </g>
     </g>
     <g id="text_5">
      <!-- -0.4 -->
      <defs>
       <path d="M 37.796875 64.3125 
L 12.890625 25.390625 
L 37.796875 25.390625 
z
M 35.203125 72.90625 
L 47.609375 72.90625 
L 47.609375 25.390625 
L 58.015625 25.390625 
L 58.015625 17.1875 
L 47.609375 17.1875 
L 47.609375 0 
L 37.796875 0 
L 37.796875 17.1875 
L 4.890625 17.1875 
L 4.890625 26.703125 
z
" id="DejaVuSans-34"/>
      </defs>
      <g transform="translate(203.880376 264.255895)scale(0.1 -0.1)">
       <use xlink:href="#DejaVuSans-2d"/>
       <use x="36.083984" xlink:href="#DejaVuSans-30"/>
       <use x="99.707031" xlink:href="#DejaVuSans-2e"/>
       <use x="131.494141" xlink:href="#DejaVuSans-34"/>
      </g>
     </g>
    </g>
    <g id="ytick_2">
     <g id="line2d_27">
      <g>
       <use style="stroke:#000000;stroke-width:0.8;" x="230.391314" xlink:href="#me651425c1e" y="216.631862"/>
      </g>
     </g>
     <g id="text_6">
      <!-- -0.2 -->
      <defs>
       <path d="M 19.1875 8.296875 
L 53.609375 8.296875 
L 53.609375 0 
L 7.328125 0 
L 7.328125 8.296875 
Q 12.9375 14.109375 22.625 23.890625 
Q 32.328125 33.6875 34.8125 36.53125 
Q 39.546875 41.84375 41.421875 45.53125 
Q 43.3125 49.21875 43.3125 52.78125 
Q 43.3125 58.59375 39.234375 62.25 
Q 35.15625 65.921875 28.609375 65.921875 
Q 23.96875 65.921875 18.8125 64.3125 
Q 13.671875 62.703125 7.8125 59.421875 
L 7.8125 69.390625 
Q 13.765625 71.78125 18.9375 73 
Q 24.125 74.21875 28.421875 74.21875 
Q 39.75 74.21875 46.484375 68.546875 
Q 53.21875 62.890625 53.21875 53.421875 
Q 53.21875 48.921875 51.53125 44.890625 
Q 49.859375 40.875 45.40625 35.40625 
Q 44.1875 33.984375 37.640625 27.21875 
Q 31.109375 20.453125 19.1875 8.296875 
z
" id="DejaVuSans-32"/>
      </defs>
      <g transform="translate(203.880376 220.431081)scale(0.1 -0.1)">
       <use xlink:href="#DejaVuSans-2d"/>
       <use x="36.083984" xlink:href="#DejaVuSans-30"/>
       <use x="99.707031" xlink:href="#DejaVuSans-2e"/>
       <use x="131.494141" xlink:href="#DejaVuSans-32"/>
      </g>
     </g>
    </g>
    <g id="ytick_3">
     <g id="line2d_28">
      <g>
       <use style="stroke:#000000;stroke-width:0.8;" x="230.391314" xlink:href="#me651425c1e" y="172.807048"/>
      </g>
     </g>
    </g>
    <g id="ytick_4">
     <g id="line2d_29">
      <g>
       <use style="stroke:#000000;stroke-width:0.8;" x="230.391314" xlink:href="#me651425c1e" y="128.982234"/>
      </g>
     </g>
     <g id="text_7">
      <!-- 0.2 -->
      <g transform="translate(207.488189 132.781452)scale(0.1 -0.1)">
       <use xlink:href="#DejaVuSans-30"/>
       <use x="63.623047" xlink:href="#DejaVuSans-2e"/>
       <use x="95.410156" xlink:href="#DejaVuSans-32"/>
      </g>
     </g>
    </g>
    <g id="ytick_5">
     <g id="line2d_30">
      <g>
       <use style="stroke:#000000;stroke-width:0.8;" x="230.391314" xlink:href="#me651425c1e" y="85.157419"/>
      </g>
     </g>
     <g id="text_8">
      <!-- 0.4 -->
      <g transform="translate(207.488189 88.956638)scale(0.1 -0.1)">
       <use xlink:href="#DejaVuSans-30"/>
       <use x="63.623047" xlink:href="#DejaVuSans-2e"/>
       <use x="95.410156" xlink:href="#DejaVuSans-34"/>
      </g>
     </g>
    </g>
    <g id="ytick_6">
     <g id="line2d_31">
      <defs>
       <path d="M 0 0 
L -2 0 
" id="m81545c067b" style="stroke:#000000;stroke-width:0.6;"/>
      </defs>
      <g>
       <use style="stroke:#000000;stroke-width:0.6;" x="230.391314" xlink:href="#m81545c067b" y="282.369083"/>
      </g>
     </g>
    </g>
    <g id="ytick_7">
     <g id="line2d_32">
      <g>
       <use style="stroke:#000000;stroke-width:0.6;" x="230.391314" xlink:href="#m81545c067b" y="271.41288"/>
      </g>
     </g>
    </g>
    <g id="ytick_8">
     <g id="line2d_33">
      <g>
       <use style="stroke:#000000;stroke-width:0.6;" x="230.391314" xlink:href="#m81545c067b" y="249.500473"/>
      </g>
     </g>
    </g>
    <g id="ytick_9">
     <g id="line2d_34">
      <g>
       <use style="stroke:#000000;stroke-width:0.6;" x="230.391314" xlink:href="#m81545c067b" y="238.544269"/>
      </g>
     </g>
    </g>
    <g id="ytick_10">
     <g id="line2d_35">
      <g>
       <use style="stroke:#000000;stroke-width:0.6;" x="230.391314" xlink:href="#m81545c067b" y="227.588065"/>
      </g>
     </g>
    </g>
    <g id="ytick_11">
     <g id="line2d_36">
      <g>
       <use style="stroke:#000000;stroke-width:0.6;" x="230.391314" xlink:href="#m81545c067b" y="205.675658"/>
      </g>
     </g>
    </g>
    <g id="ytick_12">
     <g id="line2d_37">
      <g>
       <use style="stroke:#000000;stroke-width:0.6;" x="230.391314" xlink:href="#m81545c067b" y="194.719455"/>
      </g>
     </g>
    </g>
    <g id="ytick_13">
     <g id="line2d_38">
      <g>
       <use style="stroke:#000000;stroke-width:0.6;" x="230.391314" xlink:href="#m81545c067b" y="183.763251"/>
      </g>
     </g>
    </g>
    <g id="ytick_14">
     <g id="line2d_39">
      <g>
       <use style="stroke:#000000;stroke-width:0.6;" x="230.391314" xlink:href="#m81545c067b" y="161.850844"/>
      </g>
     </g>
    </g>
    <g id="ytick_15">
     <g id="line2d_40">
      <g>
       <use style="stroke:#000000;stroke-width:0.6;" x="230.391314" xlink:href="#m81545c067b" y="150.894641"/>
      </g>
     </g>
    </g>
    <g id="ytick_16">
     <g id="line2d_41">
      <g>
       <use style="stroke:#000000;stroke-width:0.6;" x="230.391314" xlink:href="#m81545c067b" y="139.938437"/>
      </g>
     </g>
    </g>
    <g id="ytick_17">
     <g id="line2d_42">
      <g>
       <use style="stroke:#000000;stroke-width:0.6;" x="230.391314" xlink:href="#m81545c067b" y="118.02603"/>
      </g>
     </g>
    </g>
    <g id="ytick_18">
     <g id="line2d_43">
      <g>
       <use style="stroke:#000000;stroke-width:0.6;" x="230.391314" xlink:href="#m81545c067b" y="107.069826"/>
      </g>
     </g>
    </g>
    <g id="ytick_19">
     <g id="line2d_44">
      <g>
       <use style="stroke:#000000;stroke-width:0.6;" x="230.391314" xlink:href="#m81545c067b" y="96.113623"/>
      </g>
     </g>
    </g>
    <g id="ytick_20">
     <g id="line2d_45">
      <g>
       <use style="stroke:#000000;stroke-width:0.6;" x="230.391314" xlink:href="#m81545c067b" y="74.201216"/>
      </g>
     </g>
    </g>
    <g id="ytick_21">
     <g id="line2d_46">
      <g>
       <use style="stroke:#000000;stroke-width:0.6;" x="230.391314" xlink:href="#m81545c067b" y="63.245012"/>
      </g>
     </g>
    </g>
   </g>
   <g id="line2d_47">
    <path clip-path="url(#pef9a0fcc02)" d="M 449.515385 172.807048 
L 449.280598 165.638204 
L 448.958669 161.776193 
L 448.104635 155.281668 
L 446.86401 148.849787 
L 444.9534 141.520805 
L 441.359779 131.327226 
L 439.51222 127.070072 
L 437.111309 122.169408 
L 433.698309 116.09971 
L 429.000821 108.976119 
L 424.927685 103.646352 
L 419.567816 97.538354 
L 416.720037 94.635984 
L 409.584135 88.21749 
L 403.958639 83.88482 
L 400.086332 81.221765 
L 393.715172 77.342363 
L 387.092139 73.904196 
L 380.600954 71.064177 
L 373.157982 68.397795 
L 365.85875 66.351659 
L 358.204634 64.775894 
L 353.95685 64.143615 
L 347.083335 63.477258 
L 339.691157 63.245326 
L 330.781454 63.629596 
L 326.2346 64.107298 
L 321.223993 64.85775 
L 311.166118 67.094537 
L 302.227365 69.945054 
L 299.441238 71.010149 
L 292.418726 74.09383 
L 284.654542 78.224378 
L 277.787659 82.589164 
L 274.04578 85.285439 
L 267.579449 90.552211 
L 261.610786 96.215387 
L 259.405185 98.538394 
L 253.937515 104.946044 
L 250.724982 109.229236 
L 245.520478 117.252818 
L 242.549898 122.643243 
L 239.858604 128.255037 
L 238.343916 131.827019 
L 234.127042 144.441007 
L 232.634004 150.752618 
L 231.438503 157.695205 
L 230.619637 165.737465 
L 230.391236 172.67674 
L 230.367784 170.536505 
L 230.289794 168.09163 
L 229.684199 160.379428 
L 228.305136 151.528431 
L 226.829829 145.099234 
L 223.503812 134.573819 
L 222.122557 131.051674 
L 220.153524 126.562764 
L 216.634183 119.653874 
L 210.634258 110.04635 
L 206.771708 104.853105 
L 203.69288 101.130949 
L 197.210119 94.258931 
L 192.343021 89.803288 
L 189.47474 87.415946 
L 185.769623 84.565384 
L 174.244108 77.147779 
L 168.122881 73.978131 
L 161.653905 71.135078 
L 149.684523 67.113082 
L 142.633709 65.436631 
L 136.228138 64.332559 
L 132.589878 63.878044 
L 125.445143 63.342289 
L 114.006171 63.457677 
L 106.232219 64.221756 
L 97.659707 65.722919 
L 88.813386 68.027173 
L 84.183936 69.55513 
L 79.484407 71.345522 
L 72.214043 74.621517 
L 65.88837 78.016034 
L 59.328861 82.134349 
L 51.497514 87.972231 
L 48.154183 90.818206 
L 44.184557 94.516394 
L 38.976005 99.979297 
L 36.407149 102.973361 
L 30.475503 110.839033 
L 27.723471 115.056305 
L 24.018524 121.508729 
L 20.107186 129.692088 
L 18.031955 134.905201 
L 15.003242 144.439995 
L 13.628711 150.182327 
L 12.809035 154.4913 
L 11.847845 161.542644 
L 11.427023 166.892135 
L 11.284615 174.758071 
L 11.53081 180.402078 
L 12.067604 186.025892 
L 12.60407 189.869991 
L 13.540079 195.007663 
L 14.927003 200.888142 
L 16.635976 206.683226 
L 19.214366 213.773488 
L 22.234846 220.587563 
L 25.063097 226.029958 
L 29.662315 233.57237 
L 33.874507 239.460686 
L 40.65989 247.484412 
L 43.826964 250.746019 
L 50.999571 257.232468 
L 53.113041 258.936897 
L 63.379409 266.098806 
L 70.129083 269.932378 
L 74.891974 272.273644 
L 84.879707 276.30327 
L 92.469126 278.634934 
L 95.844862 279.482343 
L 105.641748 281.311327 
L 109.869237 281.819511 
L 117.557955 282.320234 
L 125.034386 282.288355 
L 136.717119 281.210997 
L 145.769004 279.4928 
L 155.612397 276.701101 
L 162.864005 273.98472 
L 169.27328 271.077177 
L 178.936193 265.690986 
L 181.602031 263.969058 
L 191.453744 256.56876 
L 192.910005 255.318916 
L 200.134839 248.401145 
L 201.717406 246.705291 
L 209.016336 237.821527 
L 214.030187 230.404185 
L 217.048159 225.207111 
L 218.996633 221.458975 
L 221.276579 216.558382 
L 223.921107 209.900369 
L 226.556088 201.541719 
L 228.484378 193.159422 
L 229.372052 187.71697 
L 230.151484 180.052392 
L 230.391374 172.921898 
L 230.41437 175.054636 
L 230.807513 182.347801 
L 231.820222 190.444122 
L 233.664087 199.385845 
L 234.510422 202.566561 
L 237.572003 211.818578 
L 239.191881 215.829903 
L 243.698101 225.140277 
L 246.516596 230.020794 
L 252.652888 239.007268 
L 259.966253 247.679633 
L 262.052295 249.847722 
L 271.320994 258.208684 
L 275.409899 261.33943 
L 279.007661 263.853534 
L 284.317496 267.191853 
L 294.774996 272.620654 
L 297.900157 273.977047 
L 305.00423 276.645377 
L 309.427514 278.030681 
L 317.048601 279.948133 
L 323.734466 281.161962 
L 329.87407 281.904471 
L 338.176503 282.354674 
L 346.979514 282.143559 
L 355.256196 281.295123 
L 358.727933 280.748488 
L 365.450981 279.360839 
L 371.691869 277.671274 
L 378.38714 275.406674 
L 384.161779 273.054014 
L 391.405452 269.536158 
L 399.406521 264.835087 
L 401.775182 263.260907 
L 407.256519 259.260058 
L 412.026432 255.325593 
L 418.411219 249.280587 
L 421.974037 245.4462 
L 426.219541 240.349507 
L 430.148832 235.005235 
L 433.6465 229.599945 
L 437.111779 223.443785 
L 440.018672 217.425103 
L 441.272228 214.500266 
L 444.163248 206.632137 
L 446.320924 199.070683 
L 448.112425 190.284288 
L 448.973782 183.687527 
L 449.408776 177.639133 
L 449.515385 172.807048 
L 449.515385 172.807048 
" style="fill:none;stroke:#ff0000;stroke-linecap:square;"/>
   </g>
   <g id="patch_3">
    <path d="M 230.391314 286.736861 
L 230.391314 58.863139 
" style="fill:none;stroke:#000000;stroke-linecap:square;stroke-linejoin:miter;stroke-width:0.8;"/>
   </g>
   <g id="patch_4">
    <path d="M 2.52 172.807048 
L 458.28 172.807048 
" style="fill:none;stroke:#000000;stroke-linecap:square;stroke-linejoin:miter;stroke-width:0.8;"/>
   </g>
  </g>
 </g>
 <defs>
  <clipPath id="pef9a0fcc02">
   <rect height="227.873722" width="455.76" x="2.52" y="58.863139"/>
  </clipPath>
 </defs>
</svg>
