<?xml version="1.0" encoding="utf-8" standalone="no"?>
<!DOCTYPE svg PUBLIC "-//W3C//DTD SVG 1.1//EN"
  "http://www.w3.org/Graphics/SVG/1.1/DTD/svg11.dtd">
<!-- Created with matplotlib (http://matplotlib.org/) -->
<svg height="345.6pt" version="1.1" viewBox="0 0 460.8 345.6" width="460.8pt" xmlns="http://www.w3.org/2000/svg" xmlns:xlink="http://www.w3.org/1999/xlink">
 <defs>
  <style type="text/css">
*{stroke-linecap:butt;stroke-linejoin:round;}
  </style>
 </defs>
 <g id="figure_1">
  <g id="patch_1">
   <path d="M 0 345.6 
L 460.8 345.6 
L 460.8 0 
L 0 0 
z
" style="fill:#ffffff;"/>
  </g>
  <g id="axes_1">
   <g id="patch_2">
    <path d="M 2.52 343.08 
L 458.28 343.08 
L 458.28 2.52 
L 2.52 2.52 
z
" style="fill:#ffffff;"/>
   </g>
   <g id="matplotlib.axis_1">
    <g id="xtick_1">
     <g id="line2d_1">
      <defs>
       <path d="M 0 0 
L 0 3.5 
" id="md96d073da9" style="stroke:#000000;stroke-width:0.8;"/>
      </defs>
      <g>
       <use style="stroke:#000000;stroke-width:0.8;" x="11.284615" xlink:href="#md96d073da9" y="172.800398"/>
      </g>
     </g>
     <g id="text_1">
      <!-- -1 -->
      <defs>
       <path d="M 4.890625 31.390625 
L 31.203125 31.390625 
L 31.203125 23.390625 
L 4.890625 23.390625 
z
" id="DejaVuSans-2d"/>
       <path d="M 12.40625 8.296875 
L 28.515625 8.296875 
L 28.515625 63.921875 
L 10.984375 60.40625 
L 10.984375 69.390625 
L 28.421875 72.90625 
L 38.28125 72.90625 
L 38.28125 8.296875 
L 54.390625 8.296875 
L 54.390625 0 
L 12.40625 0 
z
" id="DejaVuSans-31"/>
      </defs>
      <g transform="translate(6.299459 187.398836)scale(0.1 -0.1)">
       <use xlink:href="#DejaVuSans-2d"/>
       <use x="36.083984" xlink:href="#DejaVuSans-31"/>
      </g>
     </g>
    </g>
    <g id="xtick_2">
     <g id="line2d_2">
      <g>
       <use style="stroke:#000000;stroke-width:0.8;" x="120.842308" xlink:href="#md96d073da9" y="172.800398"/>
      </g>
     </g>
     <g id="text_2">
      <!-- -0.5 -->
      <defs>
       <path d="M 31.78125 66.40625 
Q 24.171875 66.40625 20.328125 58.90625 
Q 16.5 51.421875 16.5 36.375 
Q 16.5 21.390625 20.328125 13.890625 
Q 24.171875 6.390625 31.78125 6.390625 
Q 39.453125 6.390625 43.28125 13.890625 
Q 47.125 21.390625 47.125 36.375 
Q 47.125 51.421875 43.28125 58.90625 
Q 39.453125 66.40625 31.78125 66.40625 
z
M 31.78125 74.21875 
Q 44.046875 74.21875 50.515625 64.515625 
Q 56.984375 54.828125 56.984375 36.375 
Q 56.984375 17.96875 50.515625 8.265625 
Q 44.046875 -1.421875 31.78125 -1.421875 
Q 19.53125 -1.421875 13.0625 8.265625 
Q 6.59375 17.96875 6.59375 36.375 
Q 6.59375 54.828125 13.0625 64.515625 
Q 19.53125 74.21875 31.78125 74.21875 
z
" id="DejaVuSans-30"/>
       <path d="M 10.6875 12.40625 
L 21 12.40625 
L 21 0 
L 10.6875 0 
z
" id="DejaVuSans-2e"/>
       <path d="M 10.796875 72.90625 
L 49.515625 72.90625 
L 49.515625 64.59375 
L 19.828125 64.59375 
L 19.828125 46.734375 
Q 21.96875 47.46875 24.109375 47.828125 
Q 26.265625 48.1875 28.421875 48.1875 
Q 40.625 48.1875 47.75 41.5 
Q 54.890625 34.8125 54.890625 23.390625 
Q 54.890625 11.625 47.5625 5.09375 
Q 40.234375 -1.421875 26.90625 -1.421875 
Q 22.3125 -1.421875 17.546875 -0.640625 
Q 12.796875 0.140625 7.71875 1.703125 
L 7.71875 11.625 
Q 12.109375 9.234375 16.796875 8.0625 
Q 21.484375 6.890625 26.703125 6.890625 
Q 35.15625 6.890625 40.078125 11.328125 
Q 45.015625 15.765625 45.015625 23.390625 
Q 45.015625 31 40.078125 35.4375 
Q 35.15625 39.890625 26.703125 39.890625 
Q 22.75 39.890625 18.8125 39.015625 
Q 14.890625 38.140625 10.796875 36.28125 
z
" id="DejaVuSans-35"/>
      </defs>
      <g transform="translate(111.086839 187.398836)scale(0.1 -0.1)">
       <use xlink:href="#DejaVuSans-2d"/>
       <use x="36.083984" xlink:href="#DejaVuSans-30"/>
       <use x="99.707031" xlink:href="#DejaVuSans-2e"/>
       <use x="131.494141" xlink:href="#DejaVuSans-35"/>
      </g>
     </g>
    </g>
    <g id="xtick_3">
     <g id="line2d_3">
      <g>
       <use style="stroke:#000000;stroke-width:0.8;" x="230.4" xlink:href="#md96d073da9" y="172.800398"/>
      </g>
     </g>
    </g>
    <g id="xtick_4">
     <g id="line2d_4">
      <g>
       <use style="stroke:#000000;stroke-width:0.8;" x="339.957692" xlink:href="#md96d073da9" y="172.800398"/>
      </g>
     </g>
     <g id="text_3">
      <!-- 0.5 -->
      <g transform="translate(332.00613 187.398836)scale(0.1 -0.1)">
       <use xlink:href="#DejaVuSans-30"/>
       <use x="63.623047" xlink:href="#DejaVuSans-2e"/>
       <use x="95.410156" xlink:href="#DejaVuSans-35"/>
      </g>
     </g>
    </g>
    <g id="xtick_5">
     <g id="line2d_5">
      <g>
       <use style="stroke:#000000;stroke-width:0.8;" x="449.515385" xlink:href="#md96d073da9" y="172.800398"/>
      </g>
     </g>
     <g id="text_4">
      <!-- 1 -->
      <g transform="translate(446.334135 187.398836)scale(0.1 -0.1)">
       <use xlink:href="#DejaVuSans-31"/>
      </g>
     </g>
    </g>
    <g id="xtick_6">
     <g id="line2d_6">
      <defs>
       <path d="M 0 0 
L 0 2 
" id="m6bd6c6928a" style="stroke:#000000;stroke-width:0.6;"/>
      </defs>
      <g>
       <use style="stroke:#000000;stroke-width:0.6;" x="33.196154" xlink:href="#m6bd6c6928a" y="172.800398"/>
      </g>
     </g>
    </g>
    <g id="xtick_7">
     <g id="line2d_7">
      <g>
       <use style="stroke:#000000;stroke-width:0.6;" x="55.107692" xlink:href="#m6bd6c6928a" y="172.800398"/>
      </g>
     </g>
    </g>
    <g id="xtick_8">
     <g id="line2d_8">
      <g>
       <use style="stroke:#000000;stroke-width:0.6;" x="77.019231" xlink:href="#m6bd6c6928a" y="172.800398"/>
      </g>
     </g>
    </g>
    <g id="xtick_9">
     <g id="line2d_9">
      <g>
       <use style="stroke:#000000;stroke-width:0.6;" x="98.930769" xlink:href="#m6bd6c6928a" y="172.800398"/>
      </g>
     </g>
    </g>
    <g id="xtick_10">
     <g id="line2d_10">
      <g>
       <use style="stroke:#000000;stroke-width:0.6;" x="142.753846" xlink:href="#m6bd6c6928a" y="172.800398"/>
      </g>
     </g>
    </g>
    <g id="xtick_11">
     <g id="line2d_11">
      <g>
       <use style="stroke:#000000;stroke-width:0.6;" x="164.665385" xlink:href="#m6bd6c6928a" y="172.800398"/>
      </g>
     </g>
    </g>
    <g id="xtick_12">
     <g id="line2d_12">
      <g>
       <use style="stroke:#000000;stroke-width:0.6;" x="186.576923" xlink:href="#m6bd6c6928a" y="172.800398"/>
      </g>
     </g>
    </g>
    <g id="xtick_13">
     <g id="line2d_13">
      <g>
       <use style="stroke:#000000;stroke-width:0.6;" x="208.488462" xlink:href="#m6bd6c6928a" y="172.800398"/>
      </g>
     </g>
    </g>
    <g id="xtick_14">
     <g id="line2d_14">
      <g>
       <use style="stroke:#000000;stroke-width:0.6;" x="252.311538" xlink:href="#m6bd6c6928a" y="172.800398"/>
      </g>
     </g>
    </g>
    <g id="xtick_15">
     <g id="line2d_15">
      <g>
       <use style="stroke:#000000;stroke-width:0.6;" x="274.223077" xlink:href="#m6bd6c6928a" y="172.800398"/>
      </g>
     </g>
    </g>
    <g id="xtick_16">
     <g id="line2d_16">
      <g>
       <use style="stroke:#000000;stroke-width:0.6;" x="296.134615" xlink:href="#m6bd6c6928a" y="172.800398"/>
      </g>
     </g>
    </g>
    <g id="xtick_17">
     <g id="line2d_17">
      <g>
       <use style="stroke:#000000;stroke-width:0.6;" x="318.046154" xlink:href="#m6bd6c6928a" y="172.800398"/>
      </g>
     </g>
    </g>
    <g id="xtick_18">
     <g id="line2d_18">
      <g>
       <use style="stroke:#000000;stroke-width:0.6;" x="361.869231" xlink:href="#m6bd6c6928a" y="172.800398"/>
      </g>
     </g>
    </g>
    <g id="xtick_19">
     <g id="line2d_19">
      <g>
       <use style="stroke:#000000;stroke-width:0.6;" x="383.780769" xlink:href="#m6bd6c6928a" y="172.800398"/>
      </g>
     </g>
    </g>
    <g id="xtick_20">
     <g id="line2d_20">
      <g>
       <use style="stroke:#000000;stroke-width:0.6;" x="405.692308" xlink:href="#m6bd6c6928a" y="172.800398"/>
      </g>
     </g>
    </g>
    <g id="xtick_21">
     <g id="line2d_21">
      <g>
       <use style="stroke:#000000;stroke-width:0.6;" x="427.603846" xlink:href="#m6bd6c6928a" y="172.800398"/>
      </g>
     </g>
    </g>
   </g>
   <g id="matplotlib.axis_2">
    <g id="ytick_1">
     <g id="line2d_22">
      <defs>
       <path d="M 0 0 
L -3.5 0 
" id="m38ceddb4a9" style="stroke:#000000;stroke-width:0.8;"/>
      </defs>
      <g>
       <use style="stroke:#000000;stroke-width:0.8;" x="230.4" xlink:href="#m38ceddb4a9" y="336.532061"/>
      </g>
     </g>
     <g id="text_5">
      <!-- -1 -->
      <g transform="translate(213.429688 340.33128)scale(0.1 -0.1)">
       <use xlink:href="#DejaVuSans-2d"/>
       <use x="36.083984" xlink:href="#DejaVuSans-31"/>
      </g>
     </g>
    </g>
    <g id="ytick_2">
     <g id="line2d_23">
      <g>
       <use style="stroke:#000000;stroke-width:0.8;" x="230.4" xlink:href="#m38ceddb4a9" y="254.66623"/>
      </g>
     </g>
     <g id="text_6">
      <!-- -0.5 -->
      <g transform="translate(203.889062 258.465449)scale(0.1 -0.1)">
       <use xlink:href="#DejaVuSans-2d"/>
       <use x="36.083984" xlink:href="#DejaVuSans-30"/>
       <use x="99.707031" xlink:href="#DejaVuSans-2e"/>
       <use x="131.494141" xlink:href="#DejaVuSans-35"/>
      </g>
     </g>
    </g>
    <g id="ytick_3">
     <g id="line2d_24">
      <g>
       <use style="stroke:#000000;stroke-width:0.8;" x="230.4" xlink:href="#m38ceddb4a9" y="172.800398"/>
      </g>
     </g>
    </g>
    <g id="ytick_4">
     <g id="line2d_25">
      <g>
       <use style="stroke:#000000;stroke-width:0.8;" x="230.4" xlink:href="#m38ceddb4a9" y="90.934567"/>
      </g>
     </g>
     <g id="text_7">
      <!-- 0.5 -->
      <g transform="translate(207.496875 94.733786)scale(0.1 -0.1)">
       <use xlink:href="#DejaVuSans-30"/>
       <use x="63.623047" xlink:href="#DejaVuSans-2e"/>
       <use x="95.410156" xlink:href="#DejaVuSans-35"/>
      </g>
     </g>
    </g>
    <g id="ytick_5">
     <g id="line2d_26">
      <g>
       <use style="stroke:#000000;stroke-width:0.8;" x="230.4" xlink:href="#m38ceddb4a9" y="9.068735"/>
      </g>
     </g>
     <g id="text_8">
      <!-- 1 -->
      <g transform="translate(217.0375 12.867954)scale(0.1 -0.1)">
       <use xlink:href="#DejaVuSans-31"/>
      </g>
     </g>
    </g>
    <g id="ytick_6">
     <g id="line2d_27">
      <defs>
       <path d="M 0 0 
L -2 0 
" id="mfb6620d9f5" style="stroke:#000000;stroke-width:0.6;"/>
      </defs>
      <g>
       <use style="stroke:#000000;stroke-width:0.6;" x="230.4" xlink:href="#mfb6620d9f5" y="320.158895"/>
      </g>
     </g>
    </g>
    <g id="ytick_7">
     <g id="line2d_28">
      <g>
       <use style="stroke:#000000;stroke-width:0.6;" x="230.4" xlink:href="#mfb6620d9f5" y="303.785729"/>
      </g>
     </g>
    </g>
    <g id="ytick_8">
     <g id="line2d_29">
      <g>
       <use style="stroke:#000000;stroke-width:0.6;" x="230.4" xlink:href="#mfb6620d9f5" y="287.412563"/>
      </g>
     </g>
    </g>
    <g id="ytick_9">
     <g id="line2d_30">
      <g>
       <use style="stroke:#000000;stroke-width:0.6;" x="230.4" xlink:href="#mfb6620d9f5" y="271.039396"/>
      </g>
     </g>
    </g>
    <g id="ytick_10">
     <g id="line2d_31">
      <g>
       <use style="stroke:#000000;stroke-width:0.6;" x="230.4" xlink:href="#mfb6620d9f5" y="238.293064"/>
      </g>
     </g>
    </g>
    <g id="ytick_11">
     <g id="line2d_32">
      <g>
       <use style="stroke:#000000;stroke-width:0.6;" x="230.4" xlink:href="#mfb6620d9f5" y="221.919897"/>
      </g>
     </g>
    </g>
    <g id="ytick_12">
     <g id="line2d_33">
      <g>
       <use style="stroke:#000000;stroke-width:0.6;" x="230.4" xlink:href="#mfb6620d9f5" y="205.546731"/>
      </g>
     </g>
    </g>
    <g id="ytick_13">
     <g id="line2d_34">
      <g>
       <use style="stroke:#000000;stroke-width:0.6;" x="230.4" xlink:href="#mfb6620d9f5" y="189.173565"/>
      </g>
     </g>
    </g>
    <g id="ytick_14">
     <g id="line2d_35">
      <g>
       <use style="stroke:#000000;stroke-width:0.6;" x="230.4" xlink:href="#mfb6620d9f5" y="156.427232"/>
      </g>
     </g>
    </g>
    <g id="ytick_15">
     <g id="line2d_36">
      <g>
       <use style="stroke:#000000;stroke-width:0.6;" x="230.4" xlink:href="#mfb6620d9f5" y="140.054066"/>
      </g>
     </g>
    </g>
    <g id="ytick_16">
     <g id="line2d_37">
      <g>
       <use style="stroke:#000000;stroke-width:0.6;" x="230.4" xlink:href="#mfb6620d9f5" y="123.680899"/>
      </g>
     </g>
    </g>
    <g id="ytick_17">
     <g id="line2d_38">
      <g>
       <use style="stroke:#000000;stroke-width:0.6;" x="230.4" xlink:href="#mfb6620d9f5" y="107.307733"/>
      </g>
     </g>
    </g>
    <g id="ytick_18">
     <g id="line2d_39">
      <g>
       <use style="stroke:#000000;stroke-width:0.6;" x="230.4" xlink:href="#mfb6620d9f5" y="74.561401"/>
      </g>
     </g>
    </g>
    <g id="ytick_19">
     <g id="line2d_40">
      <g>
       <use style="stroke:#000000;stroke-width:0.6;" x="230.4" xlink:href="#mfb6620d9f5" y="58.188234"/>
      </g>
     </g>
    </g>
    <g id="ytick_20">
     <g id="line2d_41">
      <g>
       <use style="stroke:#000000;stroke-width:0.6;" x="230.4" xlink:href="#mfb6620d9f5" y="41.815068"/>
      </g>
     </g>
    </g>
    <g id="ytick_21">
     <g id="line2d_42">
      <g>
       <use style="stroke:#000000;stroke-width:0.6;" x="230.4" xlink:href="#mfb6620d9f5" y="25.441902"/>
      </g>
     </g>
    </g>
   </g>
   <g id="line2d_43">
    <path clip-path="url(#p826ecdb093)" d="M 11.284615 310.575842 
L 35.100145 320.313695 
L 49.473961 326.052531 
L 57.551865 329.067476 
L 64.578496 331.466185 
L 71.76144 333.598794 
L 74.574654 334.318089 
L 78.810147 335.24747 
L 82.780651 335.920336 
L 86.102939 336.308235 
L 89.656009 336.516108 
L 93.457178 336.462007 
L 96.49169 336.180825 
L 99.893466 335.575197 
L 102.825612 334.772109 
L 105.624968 333.729527 
L 108.987273 332.072915 
L 111.577119 330.45726 
L 114.01745 328.631345 
L 115.982805 326.925176 
L 117.948159 324.989666 
L 119.784763 322.956728 
L 122.328014 319.75175 
L 124.663654 316.371777 
L 127.215306 312.151526 
L 129.428649 308.00064 
L 131.757655 303.093449 
L 133.994119 297.81319 
L 136.142083 292.171577 
L 138.353235 285.730759 
L 140.393949 279.170788 
L 142.899712 270.241717 
L 145.389387 260.338549 
L 147.596723 250.632334 
L 149.614462 240.948641 
L 151.847313 229.279719 
L 154.182991 215.952498 
L 156.713903 200.171647 
L 159.03659 184.444368 
L 162.049373 162.302152 
L 164.78971 140.583782 
L 168.378624 110.353433 
L 175.277992 51.591074 
L 177.207079 37.034944 
L 178.89306 25.96448 
L 180.181167 18.949218 
L 181.25459 14.317009 
L 182.111597 11.562335 
L 182.75392 10.123639 
L 183.235663 9.431762 
L 183.717405 9.097244 
L 184.038566 9.084447 
L 184.457485 9.33417 
L 184.876403 9.900459 
L 185.295321 10.799781 
L 185.860529 12.570447 
L 186.445686 15.118294 
L 187.091272 18.827201 
L 187.918147 25.047554 
L 188.745021 33.031954 
L 189.778613 45.662355 
L 190.848522 62.014138 
L 191.942641 82.310608 
L 193.201192 110.12803 
L 194.525547 144.237548 
L 196.252957 194.615355 
L 199.449464 289.837061 
L 200.521739 314.859271 
L 201.241243 327.191031 
L 201.807565 333.567702 
L 202.232307 336.071528 
L 202.444678 336.511299 
L 202.586258 336.485016 
L 202.798629 335.946659 
L 203.040402 334.575753 
L 203.441172 330.433256 
L 203.841941 323.832798 
L 204.342903 311.95027 
L 204.944057 292.192852 
L 205.645404 261.606213 
L 206.531679 212.451315 
L 208.053366 111.990037 
L 209.067824 50.137023 
L 209.70186 22.59555 
L 210.082282 12.704295 
L 210.335896 9.526663 
L 210.462704 9.071077 
L 210.542907 9.193501 
L 210.703314 10.427186 
L 210.943924 14.847847 
L 211.264738 25.747864 
L 211.665755 47.614503 
L 212.195023 89.978397 
L 212.943463 170.456295 
L 214.185925 305.746557 
L 214.590546 330.272832 
L 214.860294 336.42114 
L 214.905252 336.530685 
L 214.950209 336.364458 
L 215.085083 334.167645 
L 215.309873 324.65222 
L 215.57962 303.385144 
L 216.009469 248.641276 
L 216.955136 81.792745 
L 217.384984 24.886165 
L 217.642893 9.933337 
L 217.728863 9.084146 
L 217.814833 10.489778 
L 217.986772 20.327536 
L 218.244681 52.725269 
L 218.656749 141.76233 
L 219.471994 325.479069 
L 219.635043 336.177246 
L 219.716568 335.877055 
L 219.879617 323.134711 
L 220.12419 274.184002 
L 221.079693 9.294195 
L 221.126446 9.425626 
L 221.219951 16.709544 
L 221.406961 59.086777 
L 221.780982 219.552912 
L 222.10825 330.253604 
L 222.201756 336.486572 
L 222.248508 333.977855 
L 222.388766 303.394025 
L 222.608139 197.798045 
L 222.95338 23.320046 
L 223.039691 9.532322 
L 223.126001 15.353572 
L 223.298622 85.745903 
L 223.730173 335.042594 
L 223.816483 329.425812 
L 223.989104 233.368913 
L 224.334345 9.070298 
L 224.420656 30.473234 
L 224.852207 332.366673 
L 225.024828 185.290417 
L 225.261782 13.483048 
L 225.390449 133.439937 
L 225.583449 336.228357 
L 225.647782 311.961553 
L 225.905116 9.299032 
L 225.96945 54.221354 
L 226.16245 335.187504 
L 226.226783 301.250959 
L 226.419784 9.507845 
L 226.612784 330.907241 
L 226.677118 294.051058 
L 226.805784 16.271547 
L 226.870118 60.307024 
L 226.998785 336.499235 
L 227.127452 36.627134 
L 227.191785 53.445109 
L 227.299262 336.498399 
L 227.342405 264.433138 
L 227.428692 9.641607 
L 227.471836 84.730211 
L 227.558122 335.07931 
L 227.601266 213.138025 
L 227.644409 37.109739 
L 227.687553 44.547632 
L 227.77384 333.785048 
L 227.816983 171.778095 
L 227.860126 10.317909 
L 227.90327 139.685635 
L 227.946413 332.172546 
L 227.989557 205.916235 
L 228.0327 10.203139 
L 228.075844 177.646339 
L 228.118987 331.761752 
L 228.16213 91.002939 
L 228.205274 68.108222 
L 228.248417 330.919054 
L 228.291561 132.219184 
L 228.334704 64.812534 
L 228.377847 336.470384 
L 228.420991 59.527823 
L 228.464134 187.508743 
L 228.507278 247.186513 
L 228.593565 326.840488 
L 228.636708 11.485785 
L 228.733107 94.952133 
L 228.829507 330.119897 
L 228.925906 35.986061 
L 229.118704 333.069445 
L 229.311503 211.540826 
L 229.407902 305.898608 
L 229.6007 53.573326 
L 229.6971 65.741685 
L 229.986297 329.870438 
L 230.179096 50.770936 
L 230.275495 265.360636 
L 230.371894 14.063838 
L 230.564693 336.513922 
L 230.757491 223.477194 
L 230.85389 315.292259 
L 230.95029 55.303991 
L 231.046689 246.285277 
L 231.143088 242.300867 
L 231.239487 214.693871 
L 231.335887 9.558206 
L 231.432286 333.109943 
L 231.528685 271.290837 
L 231.721484 68.041944 
L 231.757966 321.182159 
L 231.794449 163.896023 
L 231.830931 54.184117 
L 231.867414 335.792175 
L 231.903897 21.093411 
L 231.940379 298.576599 
L 232.049827 48.269187 
L 232.08631 321.054459 
L 232.122793 9.260002 
L 232.159275 319.819968 
L 232.305206 18.476502 
L 232.378171 291.491031 
L 232.414654 20.498812 
L 232.487619 329.978468 
L 232.524102 92.038586 
L 232.560584 46.199633 
L 232.597067 290.266281 
L 232.670032 48.275788 
L 232.706515 61.112312 
L 232.77948 308.707034 
L 232.815963 107.334189 
L 232.852446 12.006658 
L 232.888928 161.112267 
L 232.985855 158.596818 
L 233.082782 173.900295 
L 233.179709 219.137164 
L 233.276636 58.528873 
L 233.373562 334.939428 
L 233.470489 45.064019 
L 233.664343 322.278033 
L 233.76127 57.050827 
L 233.858197 90.125513 
L 233.955124 325.295539 
L 234.148977 17.75766 
L 234.245904 105.285975 
L 234.342831 308.372658 
L 234.439758 293.916182 
L 234.633612 9.594256 
L 234.924392 330.821226 
L 235.215173 9.256511 
L 235.409027 211.43221 
L 235.60288 329.351519 
L 235.990588 9.544921 
L 236.068457 39.040362 
L 236.457803 336.384552 
L 236.535672 322.528077 
L 236.76928 147.424529 
L 237.002888 12.269595 
L 237.080757 11.976246 
L 237.236496 75.690646 
L 237.703711 334.558414 
L 237.78158 334.413159 
L 237.937319 289.842849 
L 238.572346 10.027526 
L 238.617317 9.189813 
L 238.707259 17.753295 
L 238.887143 69.26369 
L 239.651651 335.315512 
L 239.696622 336.527565 
L 239.741593 335.61215 
L 239.876506 320.937902 
L 240.147723 249.49157 
L 240.826461 37.203027 
L 241.052707 10.873989 
L 241.16583 9.44156 
L 241.278953 15.406008 
L 241.505199 46.467725 
L 241.957691 155.013639 
L 242.523306 287.443187 
L 242.862675 329.074854 
L 243.088921 336.523008 
L 243.202044 334.359016 
L 243.428291 319.488555 
L 243.837914 264.952165 
L 245.369889 29.105095 
L 245.699767 11.842103 
L 245.919686 9.097124 
L 246.029645 10.206356 
L 246.249564 16.997201 
L 246.579442 37.145736 
L 247.129239 89.833853 
L 249.008791 289.284942 
L 249.518743 319.133412 
L 249.891023 331.591345 
L 250.170234 335.905376 
L 250.356374 336.511482 
L 250.542514 335.406545 
L 250.821725 330.771466 
L 251.194005 319.647225 
L 251.752426 294.401487 
L 252.550971 246.533049 
L 255.01073 91.227828 
L 255.871645 52.815104 
L 256.59919 29.861312 
L 257.188173 17.670069 
L 257.659359 11.838241 
L 258.012749 9.609758 
L 258.248342 9.085206 
L 258.367024 9.09893 
L 258.545047 9.455657 
L 258.782411 10.533673 
L 259.138456 13.362314 
L 259.638272 19.555946 
L 260.298984 31.157137 
L 261.179933 51.362027 
L 262.28112 81.746859 
L 267.407426 230.836684 
L 268.743402 260.96671 
L 269.928251 283.193611 
L 271.005386 299.718863 
L 272.084484 312.885392 
L 273.041245 321.885877 
L 273.922215 328.107891 
L 274.626991 331.763091 
L 275.385287 334.481408 
L 275.844717 335.556954 
L 276.304147 336.228178 
L 276.763577 336.516841 
L 277.223007 336.444333 
L 277.682437 336.031589 
L 278.141867 335.29902 
L 278.831012 333.643725 
L 279.621336 330.997221 
L 280.675102 326.376188 
L 281.768743 320.455718 
L 283.148649 311.658703 
L 284.797773 299.662789 
L 286.988152 282.050822 
L 291.265563 245.253457 
L 295.853252 206.302239 
L 298.792607 182.977111 
L 301.450239 163.367697 
L 304.217499 144.575045 
L 307.112771 126.721467 
L 309.561673 113.036516 
L 311.683374 102.188542 
L 314.20674 90.444148 
L 316.844782 79.427227 
L 318.615581 72.70763 
L 320.948491 64.626101 
L 323.246096 57.464298 
L 325.454954 51.26765 
L 327.708099 45.58735 
L 329.879168 40.677408 
L 331.730847 36.893161 
L 333.632213 33.365311 
L 335.53358 30.174295 
L 337.301715 27.487692 
L 339.387244 24.641027 
L 341.253217 22.367831 
L 344.012029 19.439772 
L 346.582431 17.133216 
L 349.113403 15.218906 
L 351.315947 13.813654 
L 353.625887 12.576356 
L 355.986034 11.539554 
L 359.61911 10.344028 
L 362.337267 9.730783 
L 366.348961 9.206004 
L 368.986925 9.077373 
L 372.078438 9.116788 
L 376.689529 9.504522 
L 380.065632 10.000994 
L 382.823471 10.520219 
L 388.390836 11.829868 
L 394.928526 13.723507 
L 401.7452 15.99955 
L 406.861777 17.854592 
L 417.675896 22.04349 
L 434.577697 28.927188 
L 449.515385 35.024955 
L 449.515385 35.024955 
" style="fill:none;stroke:#0000ff;stroke-linecap:square;"/>
   </g>
   <g id="patch_3">
    <path d="M 230.4 343.08 
L 230.4 2.52 
" style="fill:none;stroke:#000000;stroke-linecap:square;stroke-linejoin:miter;stroke-width:0.8;"/>
   </g>
   <g id="patch_4">
    <path d="M 2.52 172.800398 
L 458.28 172.800398 
" style="fill:none;stroke:#000000;stroke-linecap:square;stroke-linejoin:miter;stroke-width:0.8;"/>
   </g>
  </g>
 </g>
 <defs>
  <clipPath id="p826ecdb093">
   <rect height="340.56" width="455.76" x="2.52" y="2.52"/>
  </clipPath>
 </defs>
</svg>
