<?xml version="1.0" encoding="utf-8" standalone="no"?>
<!DOCTYPE svg PUBLIC "-//W3C//DTD SVG 1.1//EN"
  "http://www.w3.org/Graphics/SVG/1.1/DTD/svg11.dtd">
<!-- Created with matplotlib (https://matplotlib.org/) -->
<svg height="345.6pt" version="1.1" viewBox="0 0 460.8 345.6" width="460.8pt" xmlns="http://www.w3.org/2000/svg" xmlns:xlink="http://www.w3.org/1999/xlink">
 <metadata>
  <rdf:RDF xmlns:cc="http://creativecommons.org/ns#" xmlns:dc="http://purl.org/dc/elements/1.1/" xmlns:rdf="http://www.w3.org/1999/02/22-rdf-syntax-ns#">
   <cc:Work>
    <dc:type rdf:resource="http://purl.org/dc/dcmitype/StillImage"/>
    <dc:date>2020-10-25T12:18:45.185812</dc:date>
    <dc:format>image/svg+xml</dc:format>
    <dc:creator>
     <cc:Agent>
      <dc:title>Matplotlib v3.3.1, https://matplotlib.org/</dc:title>
     </cc:Agent>
    </dc:creator>
   </cc:Work>
  </rdf:RDF>
 </metadata>
 <defs>
  <style type="text/css">*{stroke-linecap:butt;stroke-linejoin:round;}</style>
 </defs>
 <g id="figure_1">
  <g id="patch_1">
   <path d="M 0 345.6 
L 460.8 345.6 
L 460.8 0 
L 0 0 
z
" style="fill:#ffffff;"/>
  </g>
  <g id="axes_1">
   <g id="patch_2">
    <path d="M 3.7798 345.6 
L 460.8 345.6 
L 460.8 0 
L 3.7798 0 
z
" style="fill:#ffffff;"/>
   </g>
   <g id="matplotlib.axis_1">
    <g id="xtick_1">
     <g id="line2d_1">
      <defs>
       <path d="M 0 0 
L 0 3.5 
" id="m675a402b5e" style="stroke:#000000;stroke-width:0.8;"/>
      </defs>
      <g>
       <use style="stroke:#000000;stroke-width:0.8;" x="12.56865" xlink:href="#m675a402b5e" y="172.799882"/>
      </g>
     </g>
     <g id="text_1">
      <!-- −1.0 -->
      <g transform="translate(0.427244 187.398319)scale(0.1 -0.1)">
       <defs>
        <path d="M 10.59375 35.5 
L 73.1875 35.5 
L 73.1875 27.203125 
L 10.59375 27.203125 
z
" id="DejaVuSans-8722"/>
        <path d="M 12.40625 8.296875 
L 28.515625 8.296875 
L 28.515625 63.921875 
L 10.984375 60.40625 
L 10.984375 69.390625 
L 28.421875 72.90625 
L 38.28125 72.90625 
L 38.28125 8.296875 
L 54.390625 8.296875 
L 54.390625 0 
L 12.40625 0 
z
" id="DejaVuSans-49"/>
        <path d="M 10.6875 12.40625 
L 21 12.40625 
L 21 0 
L 10.6875 0 
z
" id="DejaVuSans-46"/>
        <path d="M 31.78125 66.40625 
Q 24.171875 66.40625 20.328125 58.90625 
Q 16.5 51.421875 16.5 36.375 
Q 16.5 21.390625 20.328125 13.890625 
Q 24.171875 6.390625 31.78125 6.390625 
Q 39.453125 6.390625 43.28125 13.890625 
Q 47.125 21.390625 47.125 36.375 
Q 47.125 51.421875 43.28125 58.90625 
Q 39.453125 66.40625 31.78125 66.40625 
z
M 31.78125 74.21875 
Q 44.046875 74.21875 50.515625 64.515625 
Q 56.984375 54.828125 56.984375 36.375 
Q 56.984375 17.96875 50.515625 8.265625 
Q 44.046875 -1.421875 31.78125 -1.421875 
Q 19.53125 -1.421875 13.0625 8.265625 
Q 6.59375 17.96875 6.59375 36.375 
Q 6.59375 54.828125 13.0625 64.515625 
Q 19.53125 74.21875 31.78125 74.21875 
z
" id="DejaVuSans-48"/>
       </defs>
       <use xlink:href="#DejaVuSans-8722"/>
       <use x="83.789062" xlink:href="#DejaVuSans-49"/>
       <use x="147.412109" xlink:href="#DejaVuSans-46"/>
       <use x="179.199219" xlink:href="#DejaVuSans-48"/>
      </g>
     </g>
    </g>
    <g id="xtick_2">
     <g id="line2d_2">
      <g>
       <use style="stroke:#000000;stroke-width:0.8;" x="122.429275" xlink:href="#m675a402b5e" y="172.799882"/>
      </g>
     </g>
     <g id="text_2">
      <!-- −0.5 -->
      <g transform="translate(110.287869 187.398319)scale(0.1 -0.1)">
       <defs>
        <path d="M 10.796875 72.90625 
L 49.515625 72.90625 
L 49.515625 64.59375 
L 19.828125 64.59375 
L 19.828125 46.734375 
Q 21.96875 47.46875 24.109375 47.828125 
Q 26.265625 48.1875 28.421875 48.1875 
Q 40.625 48.1875 47.75 41.5 
Q 54.890625 34.8125 54.890625 23.390625 
Q 54.890625 11.625 47.5625 5.09375 
Q 40.234375 -1.421875 26.90625 -1.421875 
Q 22.3125 -1.421875 17.546875 -0.640625 
Q 12.796875 0.140625 7.71875 1.703125 
L 7.71875 11.625 
Q 12.109375 9.234375 16.796875 8.0625 
Q 21.484375 6.890625 26.703125 6.890625 
Q 35.15625 6.890625 40.078125 11.328125 
Q 45.015625 15.765625 45.015625 23.390625 
Q 45.015625 31 40.078125 35.4375 
Q 35.15625 39.890625 26.703125 39.890625 
Q 22.75 39.890625 18.8125 39.015625 
Q 14.890625 38.140625 10.796875 36.28125 
z
" id="DejaVuSans-53"/>
       </defs>
       <use xlink:href="#DejaVuSans-8722"/>
       <use x="83.789062" xlink:href="#DejaVuSans-48"/>
       <use x="147.412109" xlink:href="#DejaVuSans-46"/>
       <use x="179.199219" xlink:href="#DejaVuSans-53"/>
      </g>
     </g>
    </g>
    <g id="xtick_3">
     <g id="line2d_3">
      <g>
       <use style="stroke:#000000;stroke-width:0.8;" x="232.2899" xlink:href="#m675a402b5e" y="172.799882"/>
      </g>
     </g>
    </g>
    <g id="xtick_4">
     <g id="line2d_4">
      <g>
       <use style="stroke:#000000;stroke-width:0.8;" x="342.150525" xlink:href="#m675a402b5e" y="172.799882"/>
      </g>
     </g>
     <g id="text_3">
      <!-- 0.5 -->
      <g transform="translate(334.198963 187.398319)scale(0.1 -0.1)">
       <use xlink:href="#DejaVuSans-48"/>
       <use x="63.623047" xlink:href="#DejaVuSans-46"/>
       <use x="95.410156" xlink:href="#DejaVuSans-53"/>
      </g>
     </g>
    </g>
    <g id="xtick_5">
     <g id="line2d_5">
      <g>
       <use style="stroke:#000000;stroke-width:0.8;" x="452.01115" xlink:href="#m675a402b5e" y="172.799882"/>
      </g>
     </g>
     <g id="text_4">
      <!-- 1.0 -->
      <g transform="translate(444.059588 187.398319)scale(0.1 -0.1)">
       <use xlink:href="#DejaVuSans-49"/>
       <use x="63.623047" xlink:href="#DejaVuSans-46"/>
       <use x="95.410156" xlink:href="#DejaVuSans-48"/>
      </g>
     </g>
    </g>
    <g id="xtick_6">
     <g id="line2d_6">
      <defs>
       <path d="M 0 0 
L 0 2 
" id="md0ea6c3be9" style="stroke:#000000;stroke-width:0.6;"/>
      </defs>
      <g>
       <use style="stroke:#000000;stroke-width:0.6;" x="34.540775" xlink:href="#md0ea6c3be9" y="172.799882"/>
      </g>
     </g>
    </g>
    <g id="xtick_7">
     <g id="line2d_7">
      <g>
       <use style="stroke:#000000;stroke-width:0.6;" x="56.5129" xlink:href="#md0ea6c3be9" y="172.799882"/>
      </g>
     </g>
    </g>
    <g id="xtick_8">
     <g id="line2d_8">
      <g>
       <use style="stroke:#000000;stroke-width:0.6;" x="78.485025" xlink:href="#md0ea6c3be9" y="172.799882"/>
      </g>
     </g>
    </g>
    <g id="xtick_9">
     <g id="line2d_9">
      <g>
       <use style="stroke:#000000;stroke-width:0.6;" x="100.45715" xlink:href="#md0ea6c3be9" y="172.799882"/>
      </g>
     </g>
    </g>
    <g id="xtick_10">
     <g id="line2d_10">
      <g>
       <use style="stroke:#000000;stroke-width:0.6;" x="144.4014" xlink:href="#md0ea6c3be9" y="172.799882"/>
      </g>
     </g>
    </g>
    <g id="xtick_11">
     <g id="line2d_11">
      <g>
       <use style="stroke:#000000;stroke-width:0.6;" x="166.373525" xlink:href="#md0ea6c3be9" y="172.799882"/>
      </g>
     </g>
    </g>
    <g id="xtick_12">
     <g id="line2d_12">
      <g>
       <use style="stroke:#000000;stroke-width:0.6;" x="188.34565" xlink:href="#md0ea6c3be9" y="172.799882"/>
      </g>
     </g>
    </g>
    <g id="xtick_13">
     <g id="line2d_13">
      <g>
       <use style="stroke:#000000;stroke-width:0.6;" x="210.317775" xlink:href="#md0ea6c3be9" y="172.799882"/>
      </g>
     </g>
    </g>
    <g id="xtick_14">
     <g id="line2d_14">
      <g>
       <use style="stroke:#000000;stroke-width:0.6;" x="254.262025" xlink:href="#md0ea6c3be9" y="172.799882"/>
      </g>
     </g>
    </g>
    <g id="xtick_15">
     <g id="line2d_15">
      <g>
       <use style="stroke:#000000;stroke-width:0.6;" x="276.23415" xlink:href="#md0ea6c3be9" y="172.799882"/>
      </g>
     </g>
    </g>
    <g id="xtick_16">
     <g id="line2d_16">
      <g>
       <use style="stroke:#000000;stroke-width:0.6;" x="298.206275" xlink:href="#md0ea6c3be9" y="172.799882"/>
      </g>
     </g>
    </g>
    <g id="xtick_17">
     <g id="line2d_17">
      <g>
       <use style="stroke:#000000;stroke-width:0.6;" x="320.1784" xlink:href="#md0ea6c3be9" y="172.799882"/>
      </g>
     </g>
    </g>
    <g id="xtick_18">
     <g id="line2d_18">
      <g>
       <use style="stroke:#000000;stroke-width:0.6;" x="364.12265" xlink:href="#md0ea6c3be9" y="172.799882"/>
      </g>
     </g>
    </g>
    <g id="xtick_19">
     <g id="line2d_19">
      <g>
       <use style="stroke:#000000;stroke-width:0.6;" x="386.094775" xlink:href="#md0ea6c3be9" y="172.799882"/>
      </g>
     </g>
    </g>
    <g id="xtick_20">
     <g id="line2d_20">
      <g>
       <use style="stroke:#000000;stroke-width:0.6;" x="408.0669" xlink:href="#md0ea6c3be9" y="172.799882"/>
      </g>
     </g>
    </g>
    <g id="xtick_21">
     <g id="line2d_21">
      <g>
       <use style="stroke:#000000;stroke-width:0.6;" x="430.039025" xlink:href="#md0ea6c3be9" y="172.799882"/>
      </g>
     </g>
    </g>
   </g>
   <g id="matplotlib.axis_2">
    <g id="ytick_1">
     <g id="line2d_22">
      <defs>
       <path d="M 0 0 
L -3.5 0 
" id="md637f0faef" style="stroke:#000000;stroke-width:0.8;"/>
      </defs>
      <g>
       <use style="stroke:#000000;stroke-width:0.8;" x="232.2899" xlink:href="#md637f0faef" y="338.954298"/>
      </g>
     </g>
     <g id="text_5">
      <!-- −1.0 -->
      <g transform="translate(201.007088 342.753516)scale(0.1 -0.1)">
       <use xlink:href="#DejaVuSans-8722"/>
       <use x="83.789062" xlink:href="#DejaVuSans-49"/>
       <use x="147.412109" xlink:href="#DejaVuSans-46"/>
       <use x="179.199219" xlink:href="#DejaVuSans-48"/>
      </g>
     </g>
    </g>
    <g id="ytick_2">
     <g id="line2d_23">
      <g>
       <use style="stroke:#000000;stroke-width:0.8;" x="232.2899" xlink:href="#md637f0faef" y="255.87709"/>
      </g>
     </g>
     <g id="text_6">
      <!-- −0.5 -->
      <g transform="translate(201.007088 259.676308)scale(0.1 -0.1)">
       <use xlink:href="#DejaVuSans-8722"/>
       <use x="83.789062" xlink:href="#DejaVuSans-48"/>
       <use x="147.412109" xlink:href="#DejaVuSans-46"/>
       <use x="179.199219" xlink:href="#DejaVuSans-53"/>
      </g>
     </g>
    </g>
    <g id="ytick_3">
     <g id="line2d_24">
      <g>
       <use style="stroke:#000000;stroke-width:0.8;" x="232.2899" xlink:href="#md637f0faef" y="172.799882"/>
      </g>
     </g>
    </g>
    <g id="ytick_4">
     <g id="line2d_25">
      <g>
       <use style="stroke:#000000;stroke-width:0.8;" x="232.2899" xlink:href="#md637f0faef" y="89.722674"/>
      </g>
     </g>
     <g id="text_7">
      <!-- 0.5 -->
      <g transform="translate(209.386775 93.521893)scale(0.1 -0.1)">
       <use xlink:href="#DejaVuSans-48"/>
       <use x="63.623047" xlink:href="#DejaVuSans-46"/>
       <use x="95.410156" xlink:href="#DejaVuSans-53"/>
      </g>
     </g>
    </g>
    <g id="ytick_5">
     <g id="line2d_26">
      <g>
       <use style="stroke:#000000;stroke-width:0.8;" x="232.2899" xlink:href="#md637f0faef" y="6.645466"/>
      </g>
     </g>
     <g id="text_8">
      <!-- 1.0 -->
      <g transform="translate(209.386775 10.444685)scale(0.1 -0.1)">
       <use xlink:href="#DejaVuSans-49"/>
       <use x="63.623047" xlink:href="#DejaVuSans-46"/>
       <use x="95.410156" xlink:href="#DejaVuSans-48"/>
      </g>
     </g>
    </g>
    <g id="ytick_6">
     <g id="line2d_27">
      <defs>
       <path d="M 0 0 
L -2 0 
" id="m1f7f01c1bf" style="stroke:#000000;stroke-width:0.6;"/>
      </defs>
      <g>
       <use style="stroke:#000000;stroke-width:0.6;" x="232.2899" xlink:href="#m1f7f01c1bf" y="322.338856"/>
      </g>
     </g>
    </g>
    <g id="ytick_7">
     <g id="line2d_28">
      <g>
       <use style="stroke:#000000;stroke-width:0.6;" x="232.2899" xlink:href="#m1f7f01c1bf" y="305.723414"/>
      </g>
     </g>
    </g>
    <g id="ytick_8">
     <g id="line2d_29">
      <g>
       <use style="stroke:#000000;stroke-width:0.6;" x="232.2899" xlink:href="#m1f7f01c1bf" y="289.107973"/>
      </g>
     </g>
    </g>
    <g id="ytick_9">
     <g id="line2d_30">
      <g>
       <use style="stroke:#000000;stroke-width:0.6;" x="232.2899" xlink:href="#m1f7f01c1bf" y="272.492531"/>
      </g>
     </g>
    </g>
    <g id="ytick_10">
     <g id="line2d_31">
      <g>
       <use style="stroke:#000000;stroke-width:0.6;" x="232.2899" xlink:href="#m1f7f01c1bf" y="239.261648"/>
      </g>
     </g>
    </g>
    <g id="ytick_11">
     <g id="line2d_32">
      <g>
       <use style="stroke:#000000;stroke-width:0.6;" x="232.2899" xlink:href="#m1f7f01c1bf" y="222.646207"/>
      </g>
     </g>
    </g>
    <g id="ytick_12">
     <g id="line2d_33">
      <g>
       <use style="stroke:#000000;stroke-width:0.6;" x="232.2899" xlink:href="#m1f7f01c1bf" y="206.030765"/>
      </g>
     </g>
    </g>
    <g id="ytick_13">
     <g id="line2d_34">
      <g>
       <use style="stroke:#000000;stroke-width:0.6;" x="232.2899" xlink:href="#m1f7f01c1bf" y="189.415323"/>
      </g>
     </g>
    </g>
    <g id="ytick_14">
     <g id="line2d_35">
      <g>
       <use style="stroke:#000000;stroke-width:0.6;" x="232.2899" xlink:href="#m1f7f01c1bf" y="156.18444"/>
      </g>
     </g>
    </g>
    <g id="ytick_15">
     <g id="line2d_36">
      <g>
       <use style="stroke:#000000;stroke-width:0.6;" x="232.2899" xlink:href="#m1f7f01c1bf" y="139.568999"/>
      </g>
     </g>
    </g>
    <g id="ytick_16">
     <g id="line2d_37">
      <g>
       <use style="stroke:#000000;stroke-width:0.6;" x="232.2899" xlink:href="#m1f7f01c1bf" y="122.953557"/>
      </g>
     </g>
    </g>
    <g id="ytick_17">
     <g id="line2d_38">
      <g>
       <use style="stroke:#000000;stroke-width:0.6;" x="232.2899" xlink:href="#m1f7f01c1bf" y="106.338115"/>
      </g>
     </g>
    </g>
    <g id="ytick_18">
     <g id="line2d_39">
      <g>
       <use style="stroke:#000000;stroke-width:0.6;" x="232.2899" xlink:href="#m1f7f01c1bf" y="73.107232"/>
      </g>
     </g>
    </g>
    <g id="ytick_19">
     <g id="line2d_40">
      <g>
       <use style="stroke:#000000;stroke-width:0.6;" x="232.2899" xlink:href="#m1f7f01c1bf" y="56.491791"/>
      </g>
     </g>
    </g>
    <g id="ytick_20">
     <g id="line2d_41">
      <g>
       <use style="stroke:#000000;stroke-width:0.6;" x="232.2899" xlink:href="#m1f7f01c1bf" y="39.876349"/>
      </g>
     </g>
    </g>
    <g id="ytick_21">
     <g id="line2d_42">
      <g>
       <use style="stroke:#000000;stroke-width:0.6;" x="232.2899" xlink:href="#m1f7f01c1bf" y="23.260908"/>
      </g>
     </g>
    </g>
   </g>
   <g id="line2d_43">
    <path clip-path="url(#pa51cae30c2)" d="M 12.56865 312.614002 
L 56.142492 330.339607 
L 62.31968 332.57081 
L 69.565148 334.930199 
L 75.189763 336.497189 
L 80.299682 337.654407 
L 84.266582 338.334126 
L 88.824738 338.826224 
L 92.670216 338.953591 
L 95.552076 338.846141 
L 98.40867 338.543084 
L 101.276736 338.016495 
L 104.424723 337.148025 
L 106.704502 336.306023 
L 108.754857 335.379212 
L 111.940388 333.585745 
L 114.693664 331.648626 
L 117.144973 329.585256 
L 119.685982 327.072072 
L 121.786126 324.678276 
L 124.039349 321.760269 
L 126.36205 318.337808 
L 128.780641 314.283205 
L 131.228719 309.61849 
L 133.453115 304.84359 
L 135.906401 298.928448 
L 137.958716 293.411035 
L 140.338586 286.306604 
L 142.465917 279.261624 
L 145.052282 269.738609 
L 147.527934 259.558482 
L 150.015313 248.198223 
L 152.621385 234.992642 
L 154.984772 221.795976 
L 157.428133 206.878242 
L 159.971481 189.940597 
L 162.609085 170.862486 
L 165.809084 145.764388 
L 168.816015 120.531981 
L 177.937478 42.549989 
L 179.826907 28.961742 
L 181.159695 20.755986 
L 182.253333 15.141771 
L 183.324192 10.838786 
L 184.14157 8.485588 
L 184.754603 7.31963 
L 185.163292 6.85335 
L 185.571981 6.652562 
L 186.036601 6.765427 
L 186.557152 7.34925 
L 187.068169 8.42202 
L 187.695022 10.458977 
L 188.321876 13.343536 
L 188.985194 17.38172 
L 189.794369 23.774457 
L 190.603545 31.886344 
L 191.588143 44.225026 
L 192.640681 60.573109 
L 193.693219 80.297933 
L 194.955703 108.413098 
L 196.418774 146.674675 
L 198.256856 201.389943 
L 201.219846 290.666241 
L 202.307217 316.518112 
L 203.03213 329.212054 
L 203.599284 335.78319 
L 204.018898 338.39578 
L 204.298642 338.95273 
L 204.438513 338.852085 
L 204.648321 338.20575 
L 204.928064 336.38093 
L 205.277743 332.475224 
L 205.733366 324.531567 
L 206.28645 310.333833 
L 206.900989 288.532245 
L 207.618465 255.19734 
L 208.522622 202.559925 
L 211.374161 26.236044 
L 211.843295 11.789243 
L 212.124776 7.466819 
L 212.312429 6.646154 
L 212.406256 6.894678 
L 212.59391 8.769278 
L 212.87539 15.174497 
L 213.250698 30.707301 
L 213.719832 61.45782 
L 214.37662 123.612097 
L 216.332546 327.836721 
L 216.653422 338.349775 
L 216.760381 338.943402 
L 216.86734 337.957799 
L 217.081257 331.036159 
L 217.402133 307.899653 
L 217.829968 254.316221 
L 218.667526 104.82496 
L 219.194313 27.025011 
L 219.486972 7.780694 
L 219.545504 6.766319 
L 219.604036 6.787866 
L 219.7211 10.047928 
L 219.896695 23.21636 
L 220.130823 56.064693 
L 220.563528 154.197031 
L 221.255857 318.026984 
L 221.51548 338.891512 
L 221.602021 337.383093 
L 221.775103 320.481233 
L 222.034726 261.865972 
L 222.900137 8.817248 
L 222.984449 6.854402 
L 223.06876 12.491158 
L 223.237383 46.783495 
L 223.57463 185.800526 
L 223.996188 335.268355 
L 224.0805 338.644718 
L 224.164811 329.510105 
L 224.333435 274.527516 
L 224.923616 6.669951 
L 225.007928 15.513261 
L 225.176551 89.183732 
L 225.634295 338.897104 
L 225.706666 326.530585 
L 225.851409 242.263507 
L 226.213267 6.720579 
L 226.285638 24.354603 
L 226.466567 178.12797 
L 226.683682 338.455682 
L 226.719868 336.354761 
L 226.756053 323.475676 
L 227.062012 18.672474 
L 227.163998 23.432817 
L 227.469957 338.865118 
L 227.673929 96.613748 
L 227.775916 6.675487 
L 228.081874 327.192241 
L 228.285847 7.528885 
L 228.489819 331.566937 
L 228.693792 8.803003 
L 228.897764 327.646036 
L 228.99975 52.675457 
L 229.203723 317.855317 
L 229.305709 9.925029 
L 229.407695 296.027096 
L 229.509682 94.545964 
L 229.611668 231.058595 
L 229.713654 98.386505 
L 229.81564 296.328511 
L 229.917627 6.910125 
L 230.019613 267.728575 
L 230.040544 124.898036 
L 230.061474 17.346866 
L 230.103336 165.494273 
L 230.145197 329.074571 
L 230.187059 51.857793 
L 230.20799 13.819364 
L 230.22892 139.130493 
L 230.270782 323.44853 
L 230.312643 19.907167 
L 230.354505 242.142784 
L 230.375436 338.108957 
L 230.417297 25.043423 
L 230.48009 322.097443 
L 230.50102 123.054157 
L 230.563813 338.656415 
L 230.605674 7.20657 
L 230.647536 333.118957 
L 230.689397 37.895222 
L 230.758061 26.49279 
L 230.826725 75.038781 
L 230.964052 290.020562 
L 231.032716 20.689631 
L 231.238707 338.041149 
L 231.307371 82.43089 
L 231.376034 338.145692 
L 231.444698 290.73774 
L 231.513362 206.831234 
L 231.582025 269.612096 
L 231.650689 12.497482 
L 231.719353 333.327468 
L 231.85668 9.494136 
L 231.925344 96.519474 
L 231.994008 324.815745 
L 232.062671 72.213381 
L 232.131335 132.94203 
L 232.199999 150.452576 
L 232.40599 7.92316 
L 232.474654 9.183391 
L 232.611981 247.66083 
L 232.817972 9.298501 
L 232.886636 271.898054 
L 233.093593 184.613544 
L 233.300549 271.511244 
L 233.404028 64.919503 
L 233.507506 336.023282 
L 233.610985 142.143084 
L 233.817942 282.425592 
L 234.024898 35.095597 
L 234.231855 164.9909 
L 234.438812 8.411104 
L 234.645769 311.002545 
L 234.749247 9.765636 
L 234.852726 304.079402 
L 234.956204 62.584071 
L 235.059683 290.613236 
L 235.163161 26.825078 
L 235.266639 338.936346 
L 235.370118 40.244995 
L 235.577075 299.639 
L 235.680553 19.722429 
L 235.88751 336.062941 
L 236.094467 17.739096 
L 236.284478 338.893751 
L 236.342167 293.684563 
L 236.515233 8.892624 
L 236.572922 29.926618 
L 236.803677 338.930943 
L 236.861365 306.954523 
L 237.120965 7.078039 
L 237.451639 336.942046 
L 237.561864 296.147853 
L 237.892539 6.873958 
L 238.002764 58.130547 
L 238.333438 334.651402 
L 238.443663 324.300759 
L 238.994788 10.521179 
L 239.215238 121.918844 
L 239.545912 323.400581 
L 239.656137 338.930354 
L 239.766362 321.923299 
L 240.097037 151.146393 
L 240.427712 13.895839 
L 240.537936 6.989022 
L 240.709247 36.265474 
L 241.07576 193.388823 
L 241.442274 322.767 
L 241.62553 338.897383 
L 241.747702 329.978327 
L 241.992044 274.08309 
L 242.901391 13.376964 
L 243.020787 6.898899 
L 243.080485 6.925253 
L 243.199881 13.156807 
L 243.438674 47.037996 
L 243.916259 164.663733 
L 244.513241 300.224928 
L 244.791076 331.665876 
L 244.976299 338.816872 
L 245.068911 338.35665 
L 245.254134 329.96228 
L 245.531968 301.35826 
L 246.087638 208.488226 
L 247.013754 55.339614 
L 247.476811 15.645084 
L 247.753763 7.070284 
L 247.823001 6.651038 
L 247.85762 6.690435 
L 247.961476 7.777538 
L 248.134571 12.663548 
L 248.411523 27.64281 
L 248.820582 62.573158 
L 249.622863 154.538831 
L 250.65716 267.12618 
L 251.219528 308.826657 
L 251.669422 329.318702 
L 252.006842 337.132871 
L 252.231789 338.912236 
L 252.344263 338.826051 
L 252.56921 336.810174 
L 252.906631 329.544988 
L 253.356525 313.065485 
L 253.995306 279.598294 
L 254.899387 220.840705 
L 256.653877 107.103766 
L 257.603653 60.168739 
L 258.325209 34.309318 
L 258.926506 19.431225 
L 259.407544 11.75089 
L 259.768322 8.321497 
L 260.1291 6.768793 
L 260.24936 6.647212 
L 260.369619 6.715679 
L 260.610138 7.40302 
L 260.970916 9.73429 
L 261.445467 14.96633 
L 262.014928 24.078615 
L 262.764367 39.923154 
L 263.86392 68.874448 
L 265.258653 110.962347 
L 268.332611 203.698124 
L 269.8142 241.724243 
L 271.172322 270.993476 
L 272.414995 292.831252 
L 273.490057 307.968462 
L 274.430737 318.48761 
L 275.431496 327.062347 
L 276.232103 332.118402 
L 277.03271 335.695793 
L 277.633166 337.479373 
L 278.156987 338.449095 
L 278.680809 338.906802 
L 279.10548 338.92414 
L 279.530151 338.642785 
L 279.954822 338.079108 
L 280.591829 336.739036 
L 281.228836 334.851546 
L 282.078179 331.568719 
L 283.036744 326.938559 
L 283.99531 321.467964 
L 285.415197 312.10126 
L 287.302458 297.894242 
L 289.519547 279.546673 
L 300.207555 188.315965 
L 303.130875 166.158768 
L 306.014138 146.118457 
L 308.471855 130.497832 
L 311.189686 114.769238 
L 313.693326 101.663368 
L 315.93617 90.991692 
L 318.524043 79.857277 
L 320.968558 70.420788 
L 323.4863 61.715367 
L 325.856426 54.38585 
L 327.771293 49.029985 
L 330.252587 42.782575 
L 332.05459 38.699204 
L 334.18198 34.331404 
L 336.806846 29.563335 
L 339.013884 26.039043 
L 341.033261 23.168724 
L 343.084617 20.571738 
L 344.944311 18.473785 
L 346.804006 16.601366 
L 349.284701 14.426489 
L 351.625213 12.683393 
L 353.975441 11.206592 
L 356.003699 10.132986 
L 359.032875 8.842492 
L 361.966442 7.91267 
L 364.91016 7.259149 
L 367.015916 6.945236 
L 370.488769 6.675758 
L 374.813154 6.716026 
L 378.083237 6.982697 
L 383.450447 7.78596 
L 388.627954 8.912289 
L 391.379835 9.625598 
L 398.619859 11.80259 
L 405.195047 14.068203 
L 413.920018 17.35969 
L 426.763262 22.540071 
L 452.01115 32.985762 
L 452.01115 32.985762 
" style="fill:none;stroke:#0000ff;stroke-linecap:square;"/>
   </g>
   <g id="patch_3">
    <path d="M 232.2899 345.6 
L 232.2899 0 
" style="fill:none;stroke:#000000;stroke-linecap:square;stroke-linejoin:miter;stroke-width:0.8;"/>
   </g>
   <g id="patch_4">
    <path d="M 3.7798 172.799882 
L 460.8 172.799882 
" style="fill:none;stroke:#000000;stroke-linecap:square;stroke-linejoin:miter;stroke-width:0.8;"/>
   </g>
  </g>
 </g>
 <defs>
  <clipPath id="pa51cae30c2">
   <rect height="345.6" width="457.0202" x="3.7798" y="0"/>
  </clipPath>
 </defs>
</svg>
