<?xml version="1.0" encoding="utf-8" standalone="no"?>
<!DOCTYPE svg PUBLIC "-//W3C//DTD SVG 1.1//EN"
  "http://www.w3.org/Graphics/SVG/1.1/DTD/svg11.dtd">
<svg xmlns:xlink="http://www.w3.org/1999/xlink" width="460.8pt" height="345.6pt" viewBox="0 0 460.8 345.6" xmlns="http://www.w3.org/2000/svg" version="1.1">
 <metadata>
  <rdf:RDF xmlns:dc="http://purl.org/dc/elements/1.1/" xmlns:cc="http://creativecommons.org/ns#" xmlns:rdf="http://www.w3.org/1999/02/22-rdf-syntax-ns#">
   <cc:Work>
    <dc:type rdf:resource="http://purl.org/dc/dcmitype/StillImage"/>
    <dc:date>2023-12-06T18:15:00.679865</dc:date>
    <dc:format>image/svg+xml</dc:format>
    <dc:creator>
     <cc:Agent>
      <dc:title>Matplotlib v3.8.0, https://matplotlib.org/</dc:title>
     </cc:Agent>
    </dc:creator>
   </cc:Work>
  </rdf:RDF>
 </metadata>
 <defs>
  <style type="text/css">*{stroke-linejoin: round; stroke-linecap: butt}</style>
 </defs>
 <g id="figure_1">
  <g id="patch_1">
   <path d="M 0 345.6 
L 460.8 345.6 
L 460.8 0 
L 0 0 
z
" style="fill: #ffffff"/>
  </g>
  <g id="axes_1">
   <g id="patch_2">
    <path d="M 3.827517 287.040967 
L 460.8 287.040967 
L 460.8 58.559033 
L 3.827517 58.559033 
z
" style="fill: #ffffff"/>
   </g>
   <g id="matplotlib.axis_1">
    <g id="xtick_1">
     <g id="line2d_1">
      <defs>
       <path id="md116306601" d="M 0 0 
L 0 3.5 
" style="stroke: #000000; stroke-width: 0.8"/>
      </defs>
      <g>
       <use xlink:href="#md116306601" x="12.614425" y="172.801498" style="stroke: #000000; stroke-width: 0.8"/>
      </g>
     </g>
     <g id="text_1">
      <!-- −1.0 -->
      <g transform="translate(0.473018 187.399935) scale(0.1 -0.1)">
       <defs>
        <path id="DejaVuSans-2212" d="M 678 2272 
L 4684 2272 
L 4684 1741 
L 678 1741 
L 678 2272 
z
" transform="scale(0.015625)"/>
        <path id="DejaVuSans-31" d="M 794 531 
L 1825 531 
L 1825 4091 
L 703 3866 
L 703 4441 
L 1819 4666 
L 2450 4666 
L 2450 531 
L 3481 531 
L 3481 0 
L 794 0 
L 794 531 
z
" transform="scale(0.015625)"/>
        <path id="DejaVuSans-2e" d="M 684 794 
L 1344 794 
L 1344 0 
L 684 0 
L 684 794 
z
" transform="scale(0.015625)"/>
        <path id="DejaVuSans-30" d="M 2034 4250 
Q 1547 4250 1301 3770 
Q 1056 3291 1056 2328 
Q 1056 1369 1301 889 
Q 1547 409 2034 409 
Q 2525 409 2770 889 
Q 3016 1369 3016 2328 
Q 3016 3291 2770 3770 
Q 2525 4250 2034 4250 
z
M 2034 4750 
Q 2819 4750 3233 4129 
Q 3647 3509 3647 2328 
Q 3647 1150 3233 529 
Q 2819 -91 2034 -91 
Q 1250 -91 836 529 
Q 422 1150 422 2328 
Q 422 3509 836 4129 
Q 1250 4750 2034 4750 
z
" transform="scale(0.015625)"/>
       </defs>
       <use xlink:href="#DejaVuSans-2212"/>
       <use xlink:href="#DejaVuSans-31" x="83.789062"/>
       <use xlink:href="#DejaVuSans-2e" x="147.412109"/>
       <use xlink:href="#DejaVuSans-30" x="179.199219"/>
      </g>
     </g>
    </g>
    <g id="xtick_2">
     <g id="line2d_2">
      <g>
       <use xlink:href="#md116306601" x="122.463835" y="172.801498" style="stroke: #000000; stroke-width: 0.8"/>
      </g>
     </g>
     <g id="text_2">
      <!-- −0.5 -->
      <g transform="translate(110.322429 187.399935) scale(0.1 -0.1)">
       <defs>
        <path id="DejaVuSans-35" d="M 691 4666 
L 3169 4666 
L 3169 4134 
L 1269 4134 
L 1269 2991 
Q 1406 3038 1543 3061 
Q 1681 3084 1819 3084 
Q 2600 3084 3056 2656 
Q 3513 2228 3513 1497 
Q 3513 744 3044 326 
Q 2575 -91 1722 -91 
Q 1428 -91 1123 -41 
Q 819 9 494 109 
L 494 744 
Q 775 591 1075 516 
Q 1375 441 1709 441 
Q 2250 441 2565 725 
Q 2881 1009 2881 1497 
Q 2881 1984 2565 2268 
Q 2250 2553 1709 2553 
Q 1456 2553 1204 2497 
Q 953 2441 691 2322 
L 691 4666 
z
" transform="scale(0.015625)"/>
       </defs>
       <use xlink:href="#DejaVuSans-2212"/>
       <use xlink:href="#DejaVuSans-30" x="83.789062"/>
       <use xlink:href="#DejaVuSans-2e" x="147.412109"/>
       <use xlink:href="#DejaVuSans-35" x="179.199219"/>
      </g>
     </g>
    </g>
    <g id="xtick_3">
     <g id="line2d_3">
      <g>
       <use xlink:href="#md116306601" x="232.313246" y="172.801498" style="stroke: #000000; stroke-width: 0.8"/>
      </g>
     </g>
    </g>
    <g id="xtick_4">
     <g id="line2d_4">
      <g>
       <use xlink:href="#md116306601" x="342.162657" y="172.801498" style="stroke: #000000; stroke-width: 0.8"/>
      </g>
     </g>
     <g id="text_3">
      <!-- 0.5 -->
      <g transform="translate(334.211094 187.399935) scale(0.1 -0.1)">
       <use xlink:href="#DejaVuSans-30"/>
       <use xlink:href="#DejaVuSans-2e" x="63.623047"/>
       <use xlink:href="#DejaVuSans-35" x="95.410156"/>
      </g>
     </g>
    </g>
    <g id="xtick_5">
     <g id="line2d_5">
      <g>
       <use xlink:href="#md116306601" x="452.012068" y="172.801498" style="stroke: #000000; stroke-width: 0.8"/>
      </g>
     </g>
     <g id="text_4">
      <!-- 1.0 -->
      <g transform="translate(444.060505 187.399935) scale(0.1 -0.1)">
       <use xlink:href="#DejaVuSans-31"/>
       <use xlink:href="#DejaVuSans-2e" x="63.623047"/>
       <use xlink:href="#DejaVuSans-30" x="95.410156"/>
      </g>
     </g>
    </g>
    <g id="xtick_6">
     <g id="line2d_6">
      <defs>
       <path id="m226ef0b5a8" d="M 0 0 
L 0 2 
" style="stroke: #000000; stroke-width: 0.6"/>
      </defs>
      <g>
       <use xlink:href="#m226ef0b5a8" x="34.584307" y="172.801498" style="stroke: #000000; stroke-width: 0.6"/>
      </g>
     </g>
    </g>
    <g id="xtick_7">
     <g id="line2d_7">
      <g>
       <use xlink:href="#m226ef0b5a8" x="56.554189" y="172.801498" style="stroke: #000000; stroke-width: 0.6"/>
      </g>
     </g>
    </g>
    <g id="xtick_8">
     <g id="line2d_8">
      <g>
       <use xlink:href="#m226ef0b5a8" x="78.524071" y="172.801498" style="stroke: #000000; stroke-width: 0.6"/>
      </g>
     </g>
    </g>
    <g id="xtick_9">
     <g id="line2d_9">
      <g>
       <use xlink:href="#m226ef0b5a8" x="100.493953" y="172.801498" style="stroke: #000000; stroke-width: 0.6"/>
      </g>
     </g>
    </g>
    <g id="xtick_10">
     <g id="line2d_10">
      <g>
       <use xlink:href="#m226ef0b5a8" x="144.433718" y="172.801498" style="stroke: #000000; stroke-width: 0.6"/>
      </g>
     </g>
    </g>
    <g id="xtick_11">
     <g id="line2d_11">
      <g>
       <use xlink:href="#m226ef0b5a8" x="166.4036" y="172.801498" style="stroke: #000000; stroke-width: 0.6"/>
      </g>
     </g>
    </g>
    <g id="xtick_12">
     <g id="line2d_12">
      <g>
       <use xlink:href="#m226ef0b5a8" x="188.373482" y="172.801498" style="stroke: #000000; stroke-width: 0.6"/>
      </g>
     </g>
    </g>
    <g id="xtick_13">
     <g id="line2d_13">
      <g>
       <use xlink:href="#m226ef0b5a8" x="210.343364" y="172.801498" style="stroke: #000000; stroke-width: 0.6"/>
      </g>
     </g>
    </g>
    <g id="xtick_14">
     <g id="line2d_14">
      <g>
       <use xlink:href="#m226ef0b5a8" x="254.283128" y="172.801498" style="stroke: #000000; stroke-width: 0.6"/>
      </g>
     </g>
    </g>
    <g id="xtick_15">
     <g id="line2d_15">
      <g>
       <use xlink:href="#m226ef0b5a8" x="276.25301" y="172.801498" style="stroke: #000000; stroke-width: 0.6"/>
      </g>
     </g>
    </g>
    <g id="xtick_16">
     <g id="line2d_16">
      <g>
       <use xlink:href="#m226ef0b5a8" x="298.222893" y="172.801498" style="stroke: #000000; stroke-width: 0.6"/>
      </g>
     </g>
    </g>
    <g id="xtick_17">
     <g id="line2d_17">
      <g>
       <use xlink:href="#m226ef0b5a8" x="320.192775" y="172.801498" style="stroke: #000000; stroke-width: 0.6"/>
      </g>
     </g>
    </g>
    <g id="xtick_18">
     <g id="line2d_18">
      <g>
       <use xlink:href="#m226ef0b5a8" x="364.132539" y="172.801498" style="stroke: #000000; stroke-width: 0.6"/>
      </g>
     </g>
    </g>
    <g id="xtick_19">
     <g id="line2d_19">
      <g>
       <use xlink:href="#m226ef0b5a8" x="386.102421" y="172.801498" style="stroke: #000000; stroke-width: 0.6"/>
      </g>
     </g>
    </g>
    <g id="xtick_20">
     <g id="line2d_20">
      <g>
       <use xlink:href="#m226ef0b5a8" x="408.072303" y="172.801498" style="stroke: #000000; stroke-width: 0.6"/>
      </g>
     </g>
    </g>
    <g id="xtick_21">
     <g id="line2d_21">
      <g>
       <use xlink:href="#m226ef0b5a8" x="430.042185" y="172.801498" style="stroke: #000000; stroke-width: 0.6"/>
      </g>
     </g>
    </g>
   </g>
   <g id="matplotlib.axis_2">
    <g id="ytick_1">
     <g id="line2d_22">
      <defs>
       <path id="m924c403ddb" d="M 0 0 
L -3.5 0 
" style="stroke: #000000; stroke-width: 0.8"/>
      </defs>
      <g>
       <use xlink:href="#m924c403ddb" x="232.313246" y="260.681026" style="stroke: #000000; stroke-width: 0.8"/>
      </g>
     </g>
     <g id="text_5">
      <!-- −0.4 -->
      <g transform="translate(201.030434 264.480245) scale(0.1 -0.1)">
       <defs>
        <path id="DejaVuSans-34" d="M 2419 4116 
L 825 1625 
L 2419 1625 
L 2419 4116 
z
M 2253 4666 
L 3047 4666 
L 3047 1625 
L 3713 1625 
L 3713 1100 
L 3047 1100 
L 3047 0 
L 2419 0 
L 2419 1100 
L 313 1100 
L 313 1709 
L 2253 4666 
z
" transform="scale(0.015625)"/>
       </defs>
       <use xlink:href="#DejaVuSans-2212"/>
       <use xlink:href="#DejaVuSans-30" x="83.789062"/>
       <use xlink:href="#DejaVuSans-2e" x="147.412109"/>
       <use xlink:href="#DejaVuSans-34" x="179.199219"/>
      </g>
     </g>
    </g>
    <g id="ytick_2">
     <g id="line2d_23">
      <g>
       <use xlink:href="#m924c403ddb" x="232.313246" y="216.741262" style="stroke: #000000; stroke-width: 0.8"/>
      </g>
     </g>
     <g id="text_6">
      <!-- −0.2 -->
      <g transform="translate(201.030434 220.540481) scale(0.1 -0.1)">
       <defs>
        <path id="DejaVuSans-32" d="M 1228 531 
L 3431 531 
L 3431 0 
L 469 0 
L 469 531 
Q 828 903 1448 1529 
Q 2069 2156 2228 2338 
Q 2531 2678 2651 2914 
Q 2772 3150 2772 3378 
Q 2772 3750 2511 3984 
Q 2250 4219 1831 4219 
Q 1534 4219 1204 4116 
Q 875 4013 500 3803 
L 500 4441 
Q 881 4594 1212 4672 
Q 1544 4750 1819 4750 
Q 2544 4750 2975 4387 
Q 3406 4025 3406 3419 
Q 3406 3131 3298 2873 
Q 3191 2616 2906 2266 
Q 2828 2175 2409 1742 
Q 1991 1309 1228 531 
z
" transform="scale(0.015625)"/>
       </defs>
       <use xlink:href="#DejaVuSans-2212"/>
       <use xlink:href="#DejaVuSans-30" x="83.789062"/>
       <use xlink:href="#DejaVuSans-2e" x="147.412109"/>
       <use xlink:href="#DejaVuSans-32" x="179.199219"/>
      </g>
     </g>
    </g>
    <g id="ytick_3">
     <g id="line2d_24">
      <g>
       <use xlink:href="#m924c403ddb" x="232.313246" y="172.801498" style="stroke: #000000; stroke-width: 0.8"/>
      </g>
     </g>
    </g>
    <g id="ytick_4">
     <g id="line2d_25">
      <g>
       <use xlink:href="#m924c403ddb" x="232.313246" y="128.861733" style="stroke: #000000; stroke-width: 0.8"/>
      </g>
     </g>
     <g id="text_7">
      <!-- 0.2 -->
      <g transform="translate(209.410121 132.660952) scale(0.1 -0.1)">
       <use xlink:href="#DejaVuSans-30"/>
       <use xlink:href="#DejaVuSans-2e" x="63.623047"/>
       <use xlink:href="#DejaVuSans-32" x="95.410156"/>
      </g>
     </g>
    </g>
    <g id="ytick_5">
     <g id="line2d_26">
      <g>
       <use xlink:href="#m924c403ddb" x="232.313246" y="84.921969" style="stroke: #000000; stroke-width: 0.8"/>
      </g>
     </g>
     <g id="text_8">
      <!-- 0.4 -->
      <g transform="translate(209.410121 88.721188) scale(0.1 -0.1)">
       <use xlink:href="#DejaVuSans-30"/>
       <use xlink:href="#DejaVuSans-2e" x="63.623047"/>
       <use xlink:href="#DejaVuSans-34" x="95.410156"/>
      </g>
     </g>
    </g>
    <g id="ytick_6">
     <g id="line2d_27">
      <defs>
       <path id="m9a85ad6a29" d="M 0 0 
L -2 0 
" style="stroke: #000000; stroke-width: 0.6"/>
      </defs>
      <g>
       <use xlink:href="#m9a85ad6a29" x="232.313246" y="282.650908" style="stroke: #000000; stroke-width: 0.6"/>
      </g>
     </g>
    </g>
    <g id="ytick_7">
     <g id="line2d_28">
      <g>
       <use xlink:href="#m9a85ad6a29" x="232.313246" y="271.665967" style="stroke: #000000; stroke-width: 0.6"/>
      </g>
     </g>
    </g>
    <g id="ytick_8">
     <g id="line2d_29">
      <g>
       <use xlink:href="#m9a85ad6a29" x="232.313246" y="249.696085" style="stroke: #000000; stroke-width: 0.6"/>
      </g>
     </g>
    </g>
    <g id="ytick_9">
     <g id="line2d_30">
      <g>
       <use xlink:href="#m9a85ad6a29" x="232.313246" y="238.711144" style="stroke: #000000; stroke-width: 0.6"/>
      </g>
     </g>
    </g>
    <g id="ytick_10">
     <g id="line2d_31">
      <g>
       <use xlink:href="#m9a85ad6a29" x="232.313246" y="227.726203" style="stroke: #000000; stroke-width: 0.6"/>
      </g>
     </g>
    </g>
    <g id="ytick_11">
     <g id="line2d_32">
      <g>
       <use xlink:href="#m9a85ad6a29" x="232.313246" y="205.756321" style="stroke: #000000; stroke-width: 0.6"/>
      </g>
     </g>
    </g>
    <g id="ytick_12">
     <g id="line2d_33">
      <g>
       <use xlink:href="#m9a85ad6a29" x="232.313246" y="194.77138" style="stroke: #000000; stroke-width: 0.6"/>
      </g>
     </g>
    </g>
    <g id="ytick_13">
     <g id="line2d_34">
      <g>
       <use xlink:href="#m9a85ad6a29" x="232.313246" y="183.786439" style="stroke: #000000; stroke-width: 0.6"/>
      </g>
     </g>
    </g>
    <g id="ytick_14">
     <g id="line2d_35">
      <g>
       <use xlink:href="#m9a85ad6a29" x="232.313246" y="161.816556" style="stroke: #000000; stroke-width: 0.6"/>
      </g>
     </g>
    </g>
    <g id="ytick_15">
     <g id="line2d_36">
      <g>
       <use xlink:href="#m9a85ad6a29" x="232.313246" y="150.831615" style="stroke: #000000; stroke-width: 0.6"/>
      </g>
     </g>
    </g>
    <g id="ytick_16">
     <g id="line2d_37">
      <g>
       <use xlink:href="#m9a85ad6a29" x="232.313246" y="139.846674" style="stroke: #000000; stroke-width: 0.6"/>
      </g>
     </g>
    </g>
    <g id="ytick_17">
     <g id="line2d_38">
      <g>
       <use xlink:href="#m9a85ad6a29" x="232.313246" y="117.876792" style="stroke: #000000; stroke-width: 0.6"/>
      </g>
     </g>
    </g>
    <g id="ytick_18">
     <g id="line2d_39">
      <g>
       <use xlink:href="#m9a85ad6a29" x="232.313246" y="106.891851" style="stroke: #000000; stroke-width: 0.6"/>
      </g>
     </g>
    </g>
    <g id="ytick_19">
     <g id="line2d_40">
      <g>
       <use xlink:href="#m9a85ad6a29" x="232.313246" y="95.90691" style="stroke: #000000; stroke-width: 0.6"/>
      </g>
     </g>
    </g>
    <g id="ytick_20">
     <g id="line2d_41">
      <g>
       <use xlink:href="#m9a85ad6a29" x="232.313246" y="73.937028" style="stroke: #000000; stroke-width: 0.6"/>
      </g>
     </g>
    </g>
    <g id="ytick_21">
     <g id="line2d_42">
      <g>
       <use xlink:href="#m9a85ad6a29" x="232.313246" y="62.952087" style="stroke: #000000; stroke-width: 0.6"/>
      </g>
     </g>
    </g>
   </g>
   <g id="line2d_43">
    <path d="M 452.012068 172.801498 
L 451.657194 163.978833 
L 451.191444 159.399387 
L 449.522832 149.548844 
L 448.202719 144.124009 
L 447.29038 140.941571 
L 445.399673 135.264694 
L 443.202668 129.699186 
L 441.504261 125.917185 
L 439.236454 121.385829 
L 435.427401 114.762024 
L 430.862243 107.999673 
L 423.925476 99.441192 
L 419.499126 94.788911 
L 414.808493 90.403224 
L 411.734142 87.791489 
L 408.732147 85.420744 
L 399.749912 79.25685 
L 397.392757 77.846092 
L 390.159565 73.992642 
L 380.591643 69.893257 
L 378.273261 69.057017 
L 369.96387 66.528333 
L 358.397802 64.158444 
L 350.567871 63.274125 
L 341.588634 62.953587 
L 334.108976 63.247715 
L 330.054108 63.621481 
L 322.94359 64.646421 
L 310.917223 67.489504 
L 304.822207 69.493299 
L 301.33936 70.819384 
L 296.705211 72.798929 
L 289.426905 76.438468 
L 282.837486 80.349255 
L 277.692721 83.860391 
L 271.956501 88.314879 
L 266.065283 93.579766 
L 261.593765 98.131914 
L 257.733762 102.525935 
L 250.23596 112.66519 
L 245.332737 120.928001 
L 243.093785 125.343604 
L 239.99855 132.435815 
L 236.959377 141.191959 
L 235.448291 146.745076 
L 234.25073 152.261073 
L 232.657866 164.107023 
L 232.416111 168.048734 
L 232.313247 172.79095 
L 232.296067 170.858858 
L 232.027642 164.885348 
L 230.781477 154.520865 
L 229.198159 146.826949 
L 225.334149 134.271099 
L 223.079242 128.717113 
L 220.873967 123.992287 
L 218.849685 120.107465 
L 212.445707 109.792325 
L 211.266688 108.14126 
L 205.361983 100.726605 
L 198.548672 93.567725 
L 189.692403 85.926802 
L 183.429152 81.422489 
L 179.422531 78.872801 
L 175.445908 76.573679 
L 169.266967 73.421621 
L 158.255096 68.946412 
L 155.203082 67.944286 
L 146.013959 65.506182 
L 140.281924 64.406808 
L 132.781342 63.437691 
L 127.989973 63.091175 
L 122.890806 62.952917 
L 110.502078 63.605301 
L 104.921937 64.361768 
L 96.537921 66.05535 
L 92.591768 67.091741 
L 88.824467 68.22958 
L 82.992315 70.28861 
L 77.285293 72.672619 
L 73.453667 74.491292 
L 70.057643 76.258844 
L 62.074608 81.040753 
L 58.266369 83.663524 
L 53.529085 87.274349 
L 48.994487 91.136646 
L 45.496287 94.42491 
L 42.344389 97.649868 
L 37.11307 103.64848 
L 33.327986 108.601081 
L 28.73127 115.520617 
L 24.492859 123.116684 
L 22.582454 127.078389 
L 20.242599 132.580708 
L 18.217817 138.165378 
L 15.818001 146.465989 
L 14.464478 152.725846 
L 13.288093 160.654465 
L 12.796366 166.481747 
L 12.61545 172.326941 
L 12.722712 177.677845 
L 13.41319 186.024573 
L 14.147845 191.091912 
L 16.190992 200.603939 
L 18.304537 207.697538 
L 20.458247 213.566101 
L 24.314892 222.133819 
L 27.847166 228.60991 
L 32.869914 236.361094 
L 35.619904 240.069801 
L 39.600396 244.916291 
L 45.023544 250.711024 
L 47.816695 253.391184 
L 52.210545 257.248926 
L 56.803437 260.867411 
L 62.535894 264.864166 
L 65.66783 266.828657 
L 72.018483 270.38305 
L 77.02276 272.811506 
L 87.005532 276.770732 
L 89.386526 277.552558 
L 101.419664 280.61632 
L 104.195016 281.121132 
L 114.353478 282.351099 
L 119.859626 282.620035 
L 129.226942 282.442518 
L 131.955789 282.240046 
L 140.174004 281.213872 
L 148.583481 279.500406 
L 154.351957 277.920672 
L 160.556342 275.834764 
L 168.184403 272.684042 
L 170.904805 271.393411 
L 179.015545 266.975789 
L 186.45711 262.086176 
L 192.617347 257.331834 
L 194.566647 255.675363 
L 203.275103 247.208702 
L 205.508037 244.708059 
L 208.871054 240.629851 
L 212.905815 235.148441 
L 217.19391 228.417196 
L 219.658594 223.988136 
L 225.090948 211.975071 
L 226.107872 209.199391 
L 228.603261 201.109011 
L 230.903255 190.345312 
L 232.013158 180.915624 
L 232.222654 177.261849 
L 232.313209 172.89213 
L 232.351524 175.701175 
L 233.19379 186.682386 
L 233.588756 189.492844 
L 235.806883 200.284992 
L 237.350536 205.684813 
L 239.194635 211.070017 
L 241.165062 216.003104 
L 246.358934 226.546635 
L 249.997704 232.572013 
L 252.696581 236.540922 
L 256.137502 241.113764 
L 260.975398 246.798268 
L 264.629473 250.61858 
L 272.076876 257.388 
L 276.128746 260.58769 
L 285.995216 267.205479 
L 294.049857 271.553974 
L 297.610543 273.210671 
L 305.500251 276.352263 
L 311.218901 278.202527 
L 323.005416 280.967542 
L 329.175184 281.880453 
L 332.596802 282.233611 
L 343.079333 282.647083 
L 349.565397 282.401189 
L 353.680256 282.045435 
L 359.069942 281.341982 
L 370.594862 278.907589 
L 374.030155 277.926925 
L 381.62282 275.318757 
L 391.899947 270.745844 
L 400.33622 265.982663 
L 405.07732 262.849475 
L 409.302576 259.744722 
L 415.673346 254.429137 
L 421.63726 248.634739 
L 426.659385 242.995485 
L 433.374599 234.016485 
L 437.380798 227.577393 
L 440.923911 220.896276 
L 444.728972 212.133978 
L 445.70006 209.501622 
L 447.431906 204.190638 
L 448.891519 198.79848 
L 449.827185 194.601554 
L 451.554352 182.818985 
L 452.012068 172.801498 
L 452.012068 172.801498 
" clip-path="url(#p40feb81bde)" style="fill: none; stroke: #ff0000; stroke-linecap: square"/>
   </g>
   <g id="patch_3">
    <path d="M 232.313246 287.040967 
L 232.313246 58.559033 
" style="fill: none; stroke: #000000; stroke-width: 0.8; stroke-linejoin: miter; stroke-linecap: square"/>
   </g>
   <g id="patch_4">
    <path d="M 3.827517 172.801498 
L 460.8 172.801498 
" style="fill: none; stroke: #000000; stroke-width: 0.8; stroke-linejoin: miter; stroke-linecap: square"/>
   </g>
  </g>
 </g>
 <defs>
  <clipPath id="p40feb81bde">
   <rect x="3.827517" y="58.559033" width="456.972483" height="228.481934"/>
  </clipPath>
 </defs>
</svg>
