<?xml version="1.0" encoding="utf-8" standalone="no"?>
<!DOCTYPE svg PUBLIC "-//W3C//DTD SVG 1.1//EN"
  "http://www.w3.org/Graphics/SVG/1.1/DTD/svg11.dtd">
<svg xmlns:xlink="http://www.w3.org/1999/xlink" width="460.8pt" height="345.6pt" viewBox="0 0 460.8 345.6" xmlns="http://www.w3.org/2000/svg" version="1.1">
 <metadata>
  <rdf:RDF xmlns:dc="http://purl.org/dc/elements/1.1/" xmlns:cc="http://creativecommons.org/ns#" xmlns:rdf="http://www.w3.org/1999/02/22-rdf-syntax-ns#">
   <cc:Work>
    <dc:type rdf:resource="http://purl.org/dc/dcmitype/StillImage"/>
    <dc:date>2023-05-25T19:52:47.306304</dc:date>
    <dc:format>image/svg+xml</dc:format>
    <dc:creator>
     <cc:Agent>
      <dc:title>Matplotlib v3.6.2, https://matplotlib.org/</dc:title>
     </cc:Agent>
    </dc:creator>
   </cc:Work>
  </rdf:RDF>
 </metadata>
 <defs>
  <style type="text/css">*{stroke-linejoin: round; stroke-linecap: butt}</style>
 </defs>
 <g id="figure_1">
  <g id="patch_1">
   <path d="M 0 345.6 
L 460.8 345.6 
L 460.8 0 
L 0 0 
z
" style="fill: #ffffff"/>
  </g>
  <g id="axes_1">
   <g id="patch_2">
    <path d="M 57.588257 345.6 
L 403.211743 345.6 
L 403.211743 0 
L 57.588257 0 
z
" style="fill: #ffffff"/>
   </g>
   <g id="matplotlib.axis_1">
    <g id="xtick_1">
     <g id="line2d_1">
      <defs>
       <path id="me23ca4d875" d="M 0 0 
L 0 3.5 
" style="stroke: #000000; stroke-width: 0.8"/>
      </defs>
      <g>
       <use xlink:href="#me23ca4d875" x="64.204252" y="172.817114" style="stroke: #000000; stroke-width: 0.8"/>
      </g>
     </g>
     <g id="text_1">
      <!-- −1.0 -->
      <g transform="translate(52.062846 187.415552) scale(0.1 -0.1)">
       <defs>
        <path id="DejaVuSans-2212" d="M 678 2272 
L 4684 2272 
L 4684 1741 
L 678 1741 
L 678 2272 
z
" transform="scale(0.015625)"/>
        <path id="DejaVuSans-31" d="M 794 531 
L 1825 531 
L 1825 4091 
L 703 3866 
L 703 4441 
L 1819 4666 
L 2450 4666 
L 2450 531 
L 3481 531 
L 3481 0 
L 794 0 
L 794 531 
z
" transform="scale(0.015625)"/>
        <path id="DejaVuSans-2e" d="M 684 794 
L 1344 794 
L 1344 0 
L 684 0 
L 684 794 
z
" transform="scale(0.015625)"/>
        <path id="DejaVuSans-30" d="M 2034 4250 
Q 1547 4250 1301 3770 
Q 1056 3291 1056 2328 
Q 1056 1369 1301 889 
Q 1547 409 2034 409 
Q 2525 409 2770 889 
Q 3016 1369 3016 2328 
Q 3016 3291 2770 3770 
Q 2525 4250 2034 4250 
z
M 2034 4750 
Q 2819 4750 3233 4129 
Q 3647 3509 3647 2328 
Q 3647 1150 3233 529 
Q 2819 -91 2034 -91 
Q 1250 -91 836 529 
Q 422 1150 422 2328 
Q 422 3509 836 4129 
Q 1250 4750 2034 4750 
z
" transform="scale(0.015625)"/>
       </defs>
       <use xlink:href="#DejaVuSans-2212"/>
       <use xlink:href="#DejaVuSans-31" x="83.789062"/>
       <use xlink:href="#DejaVuSans-2e" x="147.412109"/>
       <use xlink:href="#DejaVuSans-30" x="179.199219"/>
      </g>
     </g>
    </g>
    <g id="xtick_2">
     <g id="line2d_2">
      <g>
       <use xlink:href="#me23ca4d875" x="147.297656" y="172.817114" style="stroke: #000000; stroke-width: 0.8"/>
      </g>
     </g>
     <g id="text_2">
      <!-- −0.5 -->
      <g transform="translate(135.15625 187.415552) scale(0.1 -0.1)">
       <defs>
        <path id="DejaVuSans-35" d="M 691 4666 
L 3169 4666 
L 3169 4134 
L 1269 4134 
L 1269 2991 
Q 1406 3038 1543 3061 
Q 1681 3084 1819 3084 
Q 2600 3084 3056 2656 
Q 3513 2228 3513 1497 
Q 3513 744 3044 326 
Q 2575 -91 1722 -91 
Q 1428 -91 1123 -41 
Q 819 9 494 109 
L 494 744 
Q 775 591 1075 516 
Q 1375 441 1709 441 
Q 2250 441 2565 725 
Q 2881 1009 2881 1497 
Q 2881 1984 2565 2268 
Q 2250 2553 1709 2553 
Q 1456 2553 1204 2497 
Q 953 2441 691 2322 
L 691 4666 
z
" transform="scale(0.015625)"/>
       </defs>
       <use xlink:href="#DejaVuSans-2212"/>
       <use xlink:href="#DejaVuSans-30" x="83.789062"/>
       <use xlink:href="#DejaVuSans-2e" x="147.412109"/>
       <use xlink:href="#DejaVuSans-35" x="179.199219"/>
      </g>
     </g>
    </g>
    <g id="xtick_3">
     <g id="line2d_3">
      <g>
       <use xlink:href="#me23ca4d875" x="230.391061" y="172.817114" style="stroke: #000000; stroke-width: 0.8"/>
      </g>
     </g>
    </g>
    <g id="xtick_4">
     <g id="line2d_4">
      <g>
       <use xlink:href="#me23ca4d875" x="313.484465" y="172.817114" style="stroke: #000000; stroke-width: 0.8"/>
      </g>
     </g>
     <g id="text_3">
      <!-- 0.5 -->
      <g transform="translate(305.532902 187.415552) scale(0.1 -0.1)">
       <use xlink:href="#DejaVuSans-30"/>
       <use xlink:href="#DejaVuSans-2e" x="63.623047"/>
       <use xlink:href="#DejaVuSans-35" x="95.410156"/>
      </g>
     </g>
    </g>
    <g id="xtick_5">
     <g id="line2d_5">
      <g>
       <use xlink:href="#me23ca4d875" x="396.577869" y="172.817114" style="stroke: #000000; stroke-width: 0.8"/>
      </g>
     </g>
     <g id="text_4">
      <!-- 1.0 -->
      <g transform="translate(388.626307 187.415552) scale(0.1 -0.1)">
       <use xlink:href="#DejaVuSans-31"/>
       <use xlink:href="#DejaVuSans-2e" x="63.623047"/>
       <use xlink:href="#DejaVuSans-30" x="95.410156"/>
      </g>
     </g>
    </g>
    <g id="xtick_6">
     <g id="line2d_6">
      <defs>
       <path id="m3bf6a74333" d="M 0 0 
L 0 2 
" style="stroke: #000000; stroke-width: 0.6"/>
      </defs>
      <g>
       <use xlink:href="#m3bf6a74333" x="80.822933" y="172.817114" style="stroke: #000000; stroke-width: 0.6"/>
      </g>
     </g>
    </g>
    <g id="xtick_7">
     <g id="line2d_7">
      <g>
       <use xlink:href="#m3bf6a74333" x="97.441614" y="172.817114" style="stroke: #000000; stroke-width: 0.6"/>
      </g>
     </g>
    </g>
    <g id="xtick_8">
     <g id="line2d_8">
      <g>
       <use xlink:href="#m3bf6a74333" x="114.060294" y="172.817114" style="stroke: #000000; stroke-width: 0.6"/>
      </g>
     </g>
    </g>
    <g id="xtick_9">
     <g id="line2d_9">
      <g>
       <use xlink:href="#m3bf6a74333" x="130.678975" y="172.817114" style="stroke: #000000; stroke-width: 0.6"/>
      </g>
     </g>
    </g>
    <g id="xtick_10">
     <g id="line2d_10">
      <g>
       <use xlink:href="#m3bf6a74333" x="163.916337" y="172.817114" style="stroke: #000000; stroke-width: 0.6"/>
      </g>
     </g>
    </g>
    <g id="xtick_11">
     <g id="line2d_11">
      <g>
       <use xlink:href="#m3bf6a74333" x="180.535018" y="172.817114" style="stroke: #000000; stroke-width: 0.6"/>
      </g>
     </g>
    </g>
    <g id="xtick_12">
     <g id="line2d_12">
      <g>
       <use xlink:href="#m3bf6a74333" x="197.153699" y="172.817114" style="stroke: #000000; stroke-width: 0.6"/>
      </g>
     </g>
    </g>
    <g id="xtick_13">
     <g id="line2d_13">
      <g>
       <use xlink:href="#m3bf6a74333" x="213.77238" y="172.817114" style="stroke: #000000; stroke-width: 0.6"/>
      </g>
     </g>
    </g>
    <g id="xtick_14">
     <g id="line2d_14">
      <g>
       <use xlink:href="#m3bf6a74333" x="247.009741" y="172.817114" style="stroke: #000000; stroke-width: 0.6"/>
      </g>
     </g>
    </g>
    <g id="xtick_15">
     <g id="line2d_15">
      <g>
       <use xlink:href="#m3bf6a74333" x="263.628422" y="172.817114" style="stroke: #000000; stroke-width: 0.6"/>
      </g>
     </g>
    </g>
    <g id="xtick_16">
     <g id="line2d_16">
      <g>
       <use xlink:href="#m3bf6a74333" x="280.247103" y="172.817114" style="stroke: #000000; stroke-width: 0.6"/>
      </g>
     </g>
    </g>
    <g id="xtick_17">
     <g id="line2d_17">
      <g>
       <use xlink:href="#m3bf6a74333" x="296.865784" y="172.817114" style="stroke: #000000; stroke-width: 0.6"/>
      </g>
     </g>
    </g>
    <g id="xtick_18">
     <g id="line2d_18">
      <g>
       <use xlink:href="#m3bf6a74333" x="330.103146" y="172.817114" style="stroke: #000000; stroke-width: 0.6"/>
      </g>
     </g>
    </g>
    <g id="xtick_19">
     <g id="line2d_19">
      <g>
       <use xlink:href="#m3bf6a74333" x="346.721827" y="172.817114" style="stroke: #000000; stroke-width: 0.6"/>
      </g>
     </g>
    </g>
    <g id="xtick_20">
     <g id="line2d_20">
      <g>
       <use xlink:href="#m3bf6a74333" x="363.340507" y="172.817114" style="stroke: #000000; stroke-width: 0.6"/>
      </g>
     </g>
    </g>
    <g id="xtick_21">
     <g id="line2d_21">
      <g>
       <use xlink:href="#m3bf6a74333" x="379.959188" y="172.817114" style="stroke: #000000; stroke-width: 0.6"/>
      </g>
     </g>
    </g>
   </g>
   <g id="matplotlib.axis_2">
    <g id="ytick_1">
     <g id="line2d_22">
      <defs>
       <path id="m05fe95492f" d="M 0 0 
L -3.5 0 
" style="stroke: #000000; stroke-width: 0.8"/>
      </defs>
      <g>
       <use xlink:href="#m05fe95492f" x="230.391061" y="339.003923" style="stroke: #000000; stroke-width: 0.8"/>
      </g>
     </g>
     <g id="text_5">
      <!-- −1.0 -->
      <g transform="translate(199.108248 342.803142) scale(0.1 -0.1)">
       <use xlink:href="#DejaVuSans-2212"/>
       <use xlink:href="#DejaVuSans-31" x="83.789062"/>
       <use xlink:href="#DejaVuSans-2e" x="147.412109"/>
       <use xlink:href="#DejaVuSans-30" x="179.199219"/>
      </g>
     </g>
    </g>
    <g id="ytick_2">
     <g id="line2d_23">
      <g>
       <use xlink:href="#m05fe95492f" x="230.391061" y="255.910519" style="stroke: #000000; stroke-width: 0.8"/>
      </g>
     </g>
     <g id="text_6">
      <!-- −0.5 -->
      <g transform="translate(199.108248 259.709737) scale(0.1 -0.1)">
       <use xlink:href="#DejaVuSans-2212"/>
       <use xlink:href="#DejaVuSans-30" x="83.789062"/>
       <use xlink:href="#DejaVuSans-2e" x="147.412109"/>
       <use xlink:href="#DejaVuSans-35" x="179.199219"/>
      </g>
     </g>
    </g>
    <g id="ytick_3">
     <g id="line2d_24">
      <g>
       <use xlink:href="#m05fe95492f" x="230.391061" y="172.817114" style="stroke: #000000; stroke-width: 0.8"/>
      </g>
     </g>
    </g>
    <g id="ytick_4">
     <g id="line2d_25">
      <g>
       <use xlink:href="#m05fe95492f" x="230.391061" y="89.72371" style="stroke: #000000; stroke-width: 0.8"/>
      </g>
     </g>
     <g id="text_7">
      <!-- 0.5 -->
      <g transform="translate(207.487936 93.522929) scale(0.1 -0.1)">
       <use xlink:href="#DejaVuSans-30"/>
       <use xlink:href="#DejaVuSans-2e" x="63.623047"/>
       <use xlink:href="#DejaVuSans-35" x="95.410156"/>
      </g>
     </g>
    </g>
    <g id="ytick_5">
     <g id="line2d_26">
      <g>
       <use xlink:href="#m05fe95492f" x="230.391061" y="6.630306" style="stroke: #000000; stroke-width: 0.8"/>
      </g>
     </g>
     <g id="text_8">
      <!-- 1.0 -->
      <g transform="translate(207.487936 10.429524) scale(0.1 -0.1)">
       <use xlink:href="#DejaVuSans-31"/>
       <use xlink:href="#DejaVuSans-2e" x="63.623047"/>
       <use xlink:href="#DejaVuSans-30" x="95.410156"/>
      </g>
     </g>
    </g>
    <g id="ytick_6">
     <g id="line2d_27">
      <defs>
       <path id="mcb4d64027e" d="M 0 0 
L -2 0 
" style="stroke: #000000; stroke-width: 0.6"/>
      </defs>
      <g>
       <use xlink:href="#mcb4d64027e" x="230.391061" y="322.385242" style="stroke: #000000; stroke-width: 0.6"/>
      </g>
     </g>
    </g>
    <g id="ytick_7">
     <g id="line2d_28">
      <g>
       <use xlink:href="#mcb4d64027e" x="230.391061" y="305.766561" style="stroke: #000000; stroke-width: 0.6"/>
      </g>
     </g>
    </g>
    <g id="ytick_8">
     <g id="line2d_29">
      <g>
       <use xlink:href="#mcb4d64027e" x="230.391061" y="289.14788" style="stroke: #000000; stroke-width: 0.6"/>
      </g>
     </g>
    </g>
    <g id="ytick_9">
     <g id="line2d_30">
      <g>
       <use xlink:href="#mcb4d64027e" x="230.391061" y="272.5292" style="stroke: #000000; stroke-width: 0.6"/>
      </g>
     </g>
    </g>
    <g id="ytick_10">
     <g id="line2d_31">
      <g>
       <use xlink:href="#mcb4d64027e" x="230.391061" y="239.291838" style="stroke: #000000; stroke-width: 0.6"/>
      </g>
     </g>
    </g>
    <g id="ytick_11">
     <g id="line2d_32">
      <g>
       <use xlink:href="#mcb4d64027e" x="230.391061" y="222.673157" style="stroke: #000000; stroke-width: 0.6"/>
      </g>
     </g>
    </g>
    <g id="ytick_12">
     <g id="line2d_33">
      <g>
       <use xlink:href="#mcb4d64027e" x="230.391061" y="206.054476" style="stroke: #000000; stroke-width: 0.6"/>
      </g>
     </g>
    </g>
    <g id="ytick_13">
     <g id="line2d_34">
      <g>
       <use xlink:href="#mcb4d64027e" x="230.391061" y="189.435795" style="stroke: #000000; stroke-width: 0.6"/>
      </g>
     </g>
    </g>
    <g id="ytick_14">
     <g id="line2d_35">
      <g>
       <use xlink:href="#mcb4d64027e" x="230.391061" y="156.198433" style="stroke: #000000; stroke-width: 0.6"/>
      </g>
     </g>
    </g>
    <g id="ytick_15">
     <g id="line2d_36">
      <g>
       <use xlink:href="#mcb4d64027e" x="230.391061" y="139.579753" style="stroke: #000000; stroke-width: 0.6"/>
      </g>
     </g>
    </g>
    <g id="ytick_16">
     <g id="line2d_37">
      <g>
       <use xlink:href="#mcb4d64027e" x="230.391061" y="122.961072" style="stroke: #000000; stroke-width: 0.6"/>
      </g>
     </g>
    </g>
    <g id="ytick_17">
     <g id="line2d_38">
      <g>
       <use xlink:href="#mcb4d64027e" x="230.391061" y="106.342391" style="stroke: #000000; stroke-width: 0.6"/>
      </g>
     </g>
    </g>
    <g id="ytick_18">
     <g id="line2d_39">
      <g>
       <use xlink:href="#mcb4d64027e" x="230.391061" y="73.105029" style="stroke: #000000; stroke-width: 0.6"/>
      </g>
     </g>
    </g>
    <g id="ytick_19">
     <g id="line2d_40">
      <g>
       <use xlink:href="#mcb4d64027e" x="230.391061" y="56.486348" style="stroke: #000000; stroke-width: 0.6"/>
      </g>
     </g>
    </g>
    <g id="ytick_20">
     <g id="line2d_41">
      <g>
       <use xlink:href="#mcb4d64027e" x="230.391061" y="39.867667" style="stroke: #000000; stroke-width: 0.6"/>
      </g>
     </g>
    </g>
    <g id="ytick_21">
     <g id="line2d_42">
      <g>
       <use xlink:href="#mcb4d64027e" x="230.391061" y="23.248986" style="stroke: #000000; stroke-width: 0.6"/>
      </g>
     </g>
    </g>
   </g>
   <g id="line2d_43">
    <path d="M 230.391061 172.817114 
L 246.040892 141.656544 
L 257.694715 118.951849 
L 266.246897 102.794447 
L 273.129033 90.216012 
L 279.928692 78.245849 
L 289.937596 61.631544 
L 298.877048 48.016809 
L 305.032093 39.439302 
L 311.401508 31.349887 
L 315.567648 26.540597 
L 319.996387 21.888095 
L 324.694222 17.517543 
L 327.065976 15.549071 
L 331.307031 12.458554 
L 335.457392 10.008353 
L 339.186743 8.334499 
L 343.783097 7.025097 
L 348.711523 6.646154 
L 352.395839 7.135708 
L 354.426177 7.715727 
L 360.122011 10.656184 
L 361.970475 12.06986 
L 365.262663 15.216833 
L 368.593661 19.312673 
L 371.573016 23.86226 
L 372.690736 25.810308 
L 376.596358 33.802408 
L 379.826328 42.050275 
L 381.901428 48.310375 
L 383.430239 53.4983 
L 385.267514 60.498362 
L 388.358869 74.690314 
L 389.836914 82.914693 
L 391.520415 93.920601 
L 393.498051 110.305556 
L 394.342382 119.214951 
L 395.08622 128.783514 
L 395.894354 142.826843 
L 396.445101 159.544496 
L 396.532965 165.09311 
L 396.565138 176.930917 
L 396.423621 187.120842 
L 396.16868 196.069489 
L 395.649585 207.702526 
L 395.184107 215.412978 
L 394.034117 229.861567 
L 393.161464 238.486548 
L 391.863518 249.192619 
L 390.128297 260.955128 
L 388.349726 270.99141 
L 386.250059 280.992455 
L 384.206737 289.287481 
L 381.110553 299.808947 
L 378.666519 306.738876 
L 375.853838 313.504681 
L 372.25006 320.608627 
L 368.638843 326.259115 
L 365.617173 330.027163 
L 364.59244 331.126967 
L 359.671149 335.286759 
L 355.663496 337.449714 
L 354.414969 337.922341 
L 351.711368 338.64301 
L 345.694807 338.888726 
L 341.400608 338.039013 
L 338.948341 337.208522 
L 336.398335 336.097068 
L 331.635115 333.390695 
L 327.850436 330.699209 
L 319.972401 323.722285 
L 316.226252 319.816448 
L 313.725052 317.016248 
L 307.669164 309.646771 
L 300.822624 300.404076 
L 296.397683 293.970858 
L 286.781392 278.906657 
L 276.113305 260.732604 
L 269.012364 247.944898 
L 258.016935 227.30011 
L 249.711434 211.195844 
L 233.789076 179.611724 
L 215.877185 143.900277 
L 206.501162 125.53358 
L 194.015074 101.829347 
L 188.460795 91.669725 
L 178.751345 74.650298 
L 170.026955 60.33472 
L 162.394377 48.728132 
L 153.423518 36.386632 
L 146.912026 28.451556 
L 143.499725 24.680833 
L 140.878432 21.980347 
L 136.499064 17.875503 
L 129.576893 12.525997 
L 123.968095 9.339318 
L 118.869622 7.45259 
L 114.831523 6.72055 
L 110.202718 6.806776 
L 106.126758 7.795826 
L 103.941815 8.714983 
L 99.762381 11.312581 
L 97.085745 13.614798 
L 92.776165 18.51792 
L 89.326161 23.666212 
L 86.911976 28.021458 
L 84.611214 32.834468 
L 82.570019 37.720489 
L 81.024606 41.856584 
L 79.068425 47.708836 
L 77.06684 54.526219 
L 74.815718 63.414074 
L 72.82348 72.646041 
L 71.841194 77.794986 
L 69.109886 95.022572 
L 67.919347 104.493847 
L 66.835821 114.83521 
L 65.954638 125.210737 
L 65.176969 137.118553 
L 64.558562 151.171183 
L 64.244916 165.466606 
L 64.234862 179.195031 
L 64.64828 197.032781 
L 65.229269 209.448313 
L 65.963013 220.534209 
L 66.836873 230.810137 
L 67.911101 241.068832 
L 68.87693 248.878768 
L 69.953927 256.489857 
L 72.381036 270.724112 
L 73.786384 277.633769 
L 75.258553 284.085124 
L 78.72435 296.817205 
L 81.600281 305.365473 
L 85.390116 314.506924 
L 87.32756 318.410737 
L 88.735646 320.963764 
L 91.34778 325.127766 
L 94.085463 328.773612 
L 96.941117 331.879659 
L 98.486608 333.290441 
L 103.159565 336.519508 
L 105.374505 337.554033 
L 107.364407 338.23536 
L 111.445691 338.953846 
L 115.911385 338.788165 
L 121.174183 337.455434 
L 125.7014 335.428282 
L 127.178737 334.604781 
L 131.636706 331.671389 
L 137.950228 326.456984 
L 141.830513 322.693399 
L 144.9441 319.391638 
L 150.149133 313.354051 
L 153.561903 309.069086 
L 159.125003 301.57845 
L 167.372584 289.440828 
L 172.740215 280.95865 
L 183.248726 263.228734 
L 187.548929 255.605217 
L 192.916348 245.836122 
L 202.037886 228.692067 
L 215.529171 202.421797 
L 230.391061 172.817114 
L 230.391061 172.817114 
" clip-path="url(#pce2359fb97)" style="fill: none; stroke: #008000; stroke-linecap: square"/>
   </g>
   <g id="patch_3">
    <path d="M 230.391061 345.6 
L 230.391061 0 
" style="fill: none; stroke: #000000; stroke-width: 0.8; stroke-linejoin: miter; stroke-linecap: square"/>
   </g>
   <g id="patch_4">
    <path d="M 57.588257 172.817114 
L 403.211743 172.817114 
" style="fill: none; stroke: #000000; stroke-width: 0.8; stroke-linejoin: miter; stroke-linecap: square"/>
   </g>
  </g>
 </g>
 <defs>
  <clipPath id="pce2359fb97">
   <rect x="57.588257" y="0" width="345.623486" height="345.6"/>
  </clipPath>
 </defs>
</svg>
