<?xml version="1.0" encoding="utf-8" standalone="no"?>
<!DOCTYPE svg PUBLIC "-//W3C//DTD SVG 1.1//EN"
  "http://www.w3.org/Graphics/SVG/1.1/DTD/svg11.dtd">
<svg xmlns:xlink="http://www.w3.org/1999/xlink" width="460.8pt" height="345.6pt" viewBox="0 0 460.8 345.6" xmlns="http://www.w3.org/2000/svg" version="1.1">
 <metadata>
  <rdf:RDF xmlns:dc="http://purl.org/dc/elements/1.1/" xmlns:cc="http://creativecommons.org/ns#" xmlns:rdf="http://www.w3.org/1999/02/22-rdf-syntax-ns#">
   <cc:Work>
    <dc:type rdf:resource="http://purl.org/dc/dcmitype/StillImage"/>
    <dc:date>2024-03-20T19:25:59.920882</dc:date>
    <dc:format>image/svg+xml</dc:format>
    <dc:creator>
     <cc:Agent>
      <dc:title>Matplotlib v3.8.0, https://matplotlib.org/</dc:title>
     </cc:Agent>
    </dc:creator>
   </cc:Work>
  </rdf:RDF>
 </metadata>
 <defs>
  <style type="text/css">*{stroke-linejoin: round; stroke-linecap: butt}</style>
 </defs>
 <g id="figure_1">
  <g id="patch_1">
   <path d="M 0 345.6 
L 460.8 345.6 
L 460.8 0 
L 0 0 
z
" style="fill: #ffffff"/>
  </g>
  <g id="axes_1">
   <g id="patch_2">
    <path d="M 31.76 345.6 
L 460.8 345.6 
L 460.8 0 
L 31.76 0 
z
" style="fill: #ffffff"/>
   </g>
   <g id="matplotlib.axis_1">
    <g id="xtick_1">
     <g id="line2d_1">
      <defs>
       <path id="m1762517303" d="M 0 0 
L 0 3.5 
" style="stroke: #000000; stroke-width: 0.8"/>
      </defs>
      <g>
       <use xlink:href="#m1762517303" x="103.478225" y="202.229336" style="stroke: #000000; stroke-width: 0.8"/>
      </g>
     </g>
     <g id="text_1">
      <!-- 5 -->
      <g transform="translate(100.296975 216.827774) scale(0.1 -0.1)">
       <defs>
        <path id="DejaVuSans-35" d="M 691 4666 
L 3169 4666 
L 3169 4134 
L 1269 4134 
L 1269 2991 
Q 1406 3038 1543 3061 
Q 1681 3084 1819 3084 
Q 2600 3084 3056 2656 
Q 3513 2228 3513 1497 
Q 3513 744 3044 326 
Q 2575 -91 1722 -91 
Q 1428 -91 1123 -41 
Q 819 9 494 109 
L 494 744 
Q 775 591 1075 516 
Q 1375 441 1709 441 
Q 2250 441 2565 725 
Q 2881 1009 2881 1497 
Q 2881 1984 2565 2268 
Q 2250 2553 1709 2553 
Q 1456 2553 1204 2497 
Q 953 2441 691 2322 
L 691 4666 
z
" transform="scale(0.015625)"/>
       </defs>
       <use xlink:href="#DejaVuSans-35"/>
      </g>
     </g>
    </g>
    <g id="xtick_2">
     <g id="line2d_2">
      <g>
       <use xlink:href="#m1762517303" x="182.812544" y="202.229336" style="stroke: #000000; stroke-width: 0.8"/>
      </g>
     </g>
     <g id="text_2">
      <!-- 10 -->
      <g transform="translate(176.450044 216.827774) scale(0.1 -0.1)">
       <defs>
        <path id="DejaVuSans-31" d="M 794 531 
L 1825 531 
L 1825 4091 
L 703 3866 
L 703 4441 
L 1819 4666 
L 2450 4666 
L 2450 531 
L 3481 531 
L 3481 0 
L 794 0 
L 794 531 
z
" transform="scale(0.015625)"/>
        <path id="DejaVuSans-30" d="M 2034 4250 
Q 1547 4250 1301 3770 
Q 1056 3291 1056 2328 
Q 1056 1369 1301 889 
Q 1547 409 2034 409 
Q 2525 409 2770 889 
Q 3016 1369 3016 2328 
Q 3016 3291 2770 3770 
Q 2525 4250 2034 4250 
z
M 2034 4750 
Q 2819 4750 3233 4129 
Q 3647 3509 3647 2328 
Q 3647 1150 3233 529 
Q 2819 -91 2034 -91 
Q 1250 -91 836 529 
Q 422 1150 422 2328 
Q 422 3509 836 4129 
Q 1250 4750 2034 4750 
z
" transform="scale(0.015625)"/>
       </defs>
       <use xlink:href="#DejaVuSans-31"/>
       <use xlink:href="#DejaVuSans-30" x="63.623047"/>
      </g>
     </g>
    </g>
    <g id="xtick_3">
     <g id="line2d_3">
      <g>
       <use xlink:href="#m1762517303" x="262.146864" y="202.229336" style="stroke: #000000; stroke-width: 0.8"/>
      </g>
     </g>
     <g id="text_3">
      <!-- 15 -->
      <g transform="translate(255.784364 216.827774) scale(0.1 -0.1)">
       <use xlink:href="#DejaVuSans-31"/>
       <use xlink:href="#DejaVuSans-35" x="63.623047"/>
      </g>
     </g>
    </g>
    <g id="xtick_4">
     <g id="line2d_4">
      <g>
       <use xlink:href="#m1762517303" x="341.481183" y="202.229336" style="stroke: #000000; stroke-width: 0.8"/>
      </g>
     </g>
     <g id="text_4">
      <!-- 20 -->
      <g transform="translate(335.118683 216.827774) scale(0.1 -0.1)">
       <defs>
        <path id="DejaVuSans-32" d="M 1228 531 
L 3431 531 
L 3431 0 
L 469 0 
L 469 531 
Q 828 903 1448 1529 
Q 2069 2156 2228 2338 
Q 2531 2678 2651 2914 
Q 2772 3150 2772 3378 
Q 2772 3750 2511 3984 
Q 2250 4219 1831 4219 
Q 1534 4219 1204 4116 
Q 875 4013 500 3803 
L 500 4441 
Q 881 4594 1212 4672 
Q 1544 4750 1819 4750 
Q 2544 4750 2975 4387 
Q 3406 4025 3406 3419 
Q 3406 3131 3298 2873 
Q 3191 2616 2906 2266 
Q 2828 2175 2409 1742 
Q 1991 1309 1228 531 
z
" transform="scale(0.015625)"/>
       </defs>
       <use xlink:href="#DejaVuSans-32"/>
       <use xlink:href="#DejaVuSans-30" x="63.623047"/>
      </g>
     </g>
    </g>
    <g id="xtick_5">
     <g id="line2d_5">
      <g>
       <use xlink:href="#m1762517303" x="420.815503" y="202.229336" style="stroke: #000000; stroke-width: 0.8"/>
      </g>
     </g>
     <g id="text_5">
      <!-- 25 -->
      <g transform="translate(414.453003 216.827774) scale(0.1 -0.1)">
       <use xlink:href="#DejaVuSans-32"/>
       <use xlink:href="#DejaVuSans-35" x="63.623047"/>
      </g>
     </g>
    </g>
    <g id="xtick_6">
     <g id="line2d_6">
      <defs>
       <path id="m69d0d90d3a" d="M 0 0 
L 0 2 
" style="stroke: #000000; stroke-width: 0.6"/>
      </defs>
      <g>
       <use xlink:href="#m69d0d90d3a" x="40.010769" y="202.229336" style="stroke: #000000; stroke-width: 0.6"/>
      </g>
     </g>
    </g>
    <g id="xtick_7">
     <g id="line2d_7">
      <g>
       <use xlink:href="#m69d0d90d3a" x="55.877633" y="202.229336" style="stroke: #000000; stroke-width: 0.6"/>
      </g>
     </g>
    </g>
    <g id="xtick_8">
     <g id="line2d_8">
      <g>
       <use xlink:href="#m69d0d90d3a" x="71.744497" y="202.229336" style="stroke: #000000; stroke-width: 0.6"/>
      </g>
     </g>
    </g>
    <g id="xtick_9">
     <g id="line2d_9">
      <g>
       <use xlink:href="#m69d0d90d3a" x="87.611361" y="202.229336" style="stroke: #000000; stroke-width: 0.6"/>
      </g>
     </g>
    </g>
    <g id="xtick_10">
     <g id="line2d_10">
      <g>
       <use xlink:href="#m69d0d90d3a" x="119.345089" y="202.229336" style="stroke: #000000; stroke-width: 0.6"/>
      </g>
     </g>
    </g>
    <g id="xtick_11">
     <g id="line2d_11">
      <g>
       <use xlink:href="#m69d0d90d3a" x="135.211953" y="202.229336" style="stroke: #000000; stroke-width: 0.6"/>
      </g>
     </g>
    </g>
    <g id="xtick_12">
     <g id="line2d_12">
      <g>
       <use xlink:href="#m69d0d90d3a" x="151.078817" y="202.229336" style="stroke: #000000; stroke-width: 0.6"/>
      </g>
     </g>
    </g>
    <g id="xtick_13">
     <g id="line2d_13">
      <g>
       <use xlink:href="#m69d0d90d3a" x="166.94568" y="202.229336" style="stroke: #000000; stroke-width: 0.6"/>
      </g>
     </g>
    </g>
    <g id="xtick_14">
     <g id="line2d_14">
      <g>
       <use xlink:href="#m69d0d90d3a" x="198.679408" y="202.229336" style="stroke: #000000; stroke-width: 0.6"/>
      </g>
     </g>
    </g>
    <g id="xtick_15">
     <g id="line2d_15">
      <g>
       <use xlink:href="#m69d0d90d3a" x="214.546272" y="202.229336" style="stroke: #000000; stroke-width: 0.6"/>
      </g>
     </g>
    </g>
    <g id="xtick_16">
     <g id="line2d_16">
      <g>
       <use xlink:href="#m69d0d90d3a" x="230.413136" y="202.229336" style="stroke: #000000; stroke-width: 0.6"/>
      </g>
     </g>
    </g>
    <g id="xtick_17">
     <g id="line2d_17">
      <g>
       <use xlink:href="#m69d0d90d3a" x="246.28" y="202.229336" style="stroke: #000000; stroke-width: 0.6"/>
      </g>
     </g>
    </g>
    <g id="xtick_18">
     <g id="line2d_18">
      <g>
       <use xlink:href="#m69d0d90d3a" x="278.013728" y="202.229336" style="stroke: #000000; stroke-width: 0.6"/>
      </g>
     </g>
    </g>
    <g id="xtick_19">
     <g id="line2d_19">
      <g>
       <use xlink:href="#m69d0d90d3a" x="293.880592" y="202.229336" style="stroke: #000000; stroke-width: 0.6"/>
      </g>
     </g>
    </g>
    <g id="xtick_20">
     <g id="line2d_20">
      <g>
       <use xlink:href="#m69d0d90d3a" x="309.747456" y="202.229336" style="stroke: #000000; stroke-width: 0.6"/>
      </g>
     </g>
    </g>
    <g id="xtick_21">
     <g id="line2d_21">
      <g>
       <use xlink:href="#m69d0d90d3a" x="325.61432" y="202.229336" style="stroke: #000000; stroke-width: 0.6"/>
      </g>
     </g>
    </g>
    <g id="xtick_22">
     <g id="line2d_22">
      <g>
       <use xlink:href="#m69d0d90d3a" x="357.348047" y="202.229336" style="stroke: #000000; stroke-width: 0.6"/>
      </g>
     </g>
    </g>
    <g id="xtick_23">
     <g id="line2d_23">
      <g>
       <use xlink:href="#m69d0d90d3a" x="373.214911" y="202.229336" style="stroke: #000000; stroke-width: 0.6"/>
      </g>
     </g>
    </g>
    <g id="xtick_24">
     <g id="line2d_24">
      <g>
       <use xlink:href="#m69d0d90d3a" x="389.081775" y="202.229336" style="stroke: #000000; stroke-width: 0.6"/>
      </g>
     </g>
    </g>
    <g id="xtick_25">
     <g id="line2d_25">
      <g>
       <use xlink:href="#m69d0d90d3a" x="404.948639" y="202.229336" style="stroke: #000000; stroke-width: 0.6"/>
      </g>
     </g>
    </g>
    <g id="xtick_26">
     <g id="line2d_26">
      <g>
       <use xlink:href="#m69d0d90d3a" x="436.682367" y="202.229336" style="stroke: #000000; stroke-width: 0.6"/>
      </g>
     </g>
    </g>
    <g id="xtick_27">
     <g id="line2d_27">
      <g>
       <use xlink:href="#m69d0d90d3a" x="452.549231" y="202.229336" style="stroke: #000000; stroke-width: 0.6"/>
      </g>
     </g>
    </g>
   </g>
   <g id="matplotlib.axis_2">
    <g id="ytick_1">
     <g id="line2d_28">
      <defs>
       <path id="m0a394565b1" d="M 0 0 
L -3.5 0 
" style="stroke: #000000; stroke-width: 0.8"/>
      </defs>
      <g>
       <use xlink:href="#m0a394565b1" x="21.76" y="278.673316" style="stroke: #000000; stroke-width: 0.8"/>
      </g>
     </g>
     <g id="text_6">
      <!-- −1 -->
      <g transform="translate(0.017813 282.472534) scale(0.1 -0.1)">
       <defs>
        <path id="DejaVuSans-2212" d="M 678 2272 
L 4684 2272 
L 4684 1741 
L 678 1741 
L 678 2272 
z
" transform="scale(0.015625)"/>
       </defs>
       <use xlink:href="#DejaVuSans-2212"/>
       <use xlink:href="#DejaVuSans-31" x="83.789062"/>
      </g>
     </g>
    </g>
    <g id="ytick_2">
     <g id="line2d_29">
      <g>
       <use xlink:href="#m0a394565b1" x="21.76" y="202.229336" style="stroke: #000000; stroke-width: 0.8"/>
      </g>
     </g>
     <g id="text_7">
      <!-- 0 -->
      <g transform="translate(8.3975 206.028555) scale(0.1 -0.1)">
       <use xlink:href="#DejaVuSans-30"/>
      </g>
     </g>
    </g>
    <g id="ytick_3">
     <g id="line2d_30">
      <g>
       <use xlink:href="#m0a394565b1" x="21.76" y="125.785357" style="stroke: #000000; stroke-width: 0.8"/>
      </g>
     </g>
     <g id="text_8">
      <!-- 1 -->
      <g transform="translate(8.3975 129.584576) scale(0.1 -0.1)">
       <use xlink:href="#DejaVuSans-31"/>
      </g>
     </g>
    </g>
    <g id="ytick_4">
     <g id="line2d_31">
      <g>
       <use xlink:href="#m0a394565b1" x="21.76" y="49.341378" style="stroke: #000000; stroke-width: 0.8"/>
      </g>
     </g>
     <g id="text_9">
      <!-- 2 -->
      <g transform="translate(8.3975 53.140597) scale(0.1 -0.1)">
       <use xlink:href="#DejaVuSans-32"/>
      </g>
     </g>
    </g>
    <g id="ytick_5">
     <g id="line2d_32">
      <defs>
       <path id="mc3b654de98" d="M 0 0 
L -2 0 
" style="stroke: #000000; stroke-width: 0.6"/>
      </defs>
      <g>
       <use xlink:href="#mc3b654de98" x="21.76" y="339.828499" style="stroke: #000000; stroke-width: 0.6"/>
      </g>
     </g>
    </g>
    <g id="ytick_6">
     <g id="line2d_33">
      <g>
       <use xlink:href="#mc3b654de98" x="21.76" y="324.539703" style="stroke: #000000; stroke-width: 0.6"/>
      </g>
     </g>
    </g>
    <g id="ytick_7">
     <g id="line2d_34">
      <g>
       <use xlink:href="#mc3b654de98" x="21.76" y="309.250907" style="stroke: #000000; stroke-width: 0.6"/>
      </g>
     </g>
    </g>
    <g id="ytick_8">
     <g id="line2d_35">
      <g>
       <use xlink:href="#mc3b654de98" x="21.76" y="293.962111" style="stroke: #000000; stroke-width: 0.6"/>
      </g>
     </g>
    </g>
    <g id="ytick_9">
     <g id="line2d_36">
      <g>
       <use xlink:href="#mc3b654de98" x="21.76" y="263.38452" style="stroke: #000000; stroke-width: 0.6"/>
      </g>
     </g>
    </g>
    <g id="ytick_10">
     <g id="line2d_37">
      <g>
       <use xlink:href="#mc3b654de98" x="21.76" y="248.095724" style="stroke: #000000; stroke-width: 0.6"/>
      </g>
     </g>
    </g>
    <g id="ytick_11">
     <g id="line2d_38">
      <g>
       <use xlink:href="#mc3b654de98" x="21.76" y="232.806928" style="stroke: #000000; stroke-width: 0.6"/>
      </g>
     </g>
    </g>
    <g id="ytick_12">
     <g id="line2d_39">
      <g>
       <use xlink:href="#mc3b654de98" x="21.76" y="217.518132" style="stroke: #000000; stroke-width: 0.6"/>
      </g>
     </g>
    </g>
    <g id="ytick_13">
     <g id="line2d_40">
      <g>
       <use xlink:href="#mc3b654de98" x="21.76" y="186.940541" style="stroke: #000000; stroke-width: 0.6"/>
      </g>
     </g>
    </g>
    <g id="ytick_14">
     <g id="line2d_41">
      <g>
       <use xlink:href="#mc3b654de98" x="21.76" y="171.651745" style="stroke: #000000; stroke-width: 0.6"/>
      </g>
     </g>
    </g>
    <g id="ytick_15">
     <g id="line2d_42">
      <g>
       <use xlink:href="#mc3b654de98" x="21.76" y="156.362949" style="stroke: #000000; stroke-width: 0.6"/>
      </g>
     </g>
    </g>
    <g id="ytick_16">
     <g id="line2d_43">
      <g>
       <use xlink:href="#mc3b654de98" x="21.76" y="141.074153" style="stroke: #000000; stroke-width: 0.6"/>
      </g>
     </g>
    </g>
    <g id="ytick_17">
     <g id="line2d_44">
      <g>
       <use xlink:href="#mc3b654de98" x="21.76" y="110.496562" style="stroke: #000000; stroke-width: 0.6"/>
      </g>
     </g>
    </g>
    <g id="ytick_18">
     <g id="line2d_45">
      <g>
       <use xlink:href="#mc3b654de98" x="21.76" y="95.207766" style="stroke: #000000; stroke-width: 0.6"/>
      </g>
     </g>
    </g>
    <g id="ytick_19">
     <g id="line2d_46">
      <g>
       <use xlink:href="#mc3b654de98" x="21.76" y="79.91897" style="stroke: #000000; stroke-width: 0.6"/>
      </g>
     </g>
    </g>
    <g id="ytick_20">
     <g id="line2d_47">
      <g>
       <use xlink:href="#mc3b654de98" x="21.76" y="64.630174" style="stroke: #000000; stroke-width: 0.6"/>
      </g>
     </g>
    </g>
    <g id="ytick_21">
     <g id="line2d_48">
      <g>
       <use xlink:href="#mc3b654de98" x="21.76" y="34.052583" style="stroke: #000000; stroke-width: 0.6"/>
      </g>
     </g>
    </g>
    <g id="ytick_22">
     <g id="line2d_49">
      <g>
       <use xlink:href="#mc3b654de98" x="21.76" y="18.763787" style="stroke: #000000; stroke-width: 0.6"/>
      </g>
     </g>
    </g>
    <g id="ytick_23">
     <g id="line2d_50">
      <g>
       <use xlink:href="#mc3b654de98" x="21.76" y="3.474991" style="stroke: #000000; stroke-width: 0.6"/>
      </g>
     </g>
    </g>
   </g>
   <g id="line2d_51">
    <path d="M 40.010769 307.266781 
L 42.237684 296.940217 
L 44.162008 288.772968 
L 47.555945 275.741059 
L 50.009316 267.222562 
L 52.448221 259.386395 
L 54.400498 253.517198 
L 59.076757 240.738912 
L 61.910458 233.777504 
L 65.143578 226.477079 
L 69.660241 217.318419 
L 73.347292 210.660242 
L 77.100061 204.574665 
L 79.884336 200.480099 
L 82.615486 196.79185 
L 87.462753 190.998972 
L 89.706089 188.626709 
L 91.915354 186.472179 
L 95.823954 183.083972 
L 98.545786 181.030864 
L 102.656696 178.383753 
L 104.78212 177.220993 
L 108.826254 175.379591 
L 110.017123 174.927323 
L 114.403606 173.601385 
L 115.923246 173.263427 
L 120.201482 172.635122 
L 124.152524 172.464093 
L 128.7503 172.738569 
L 130.751821 173.01174 
L 133.253665 173.480534 
L 137.353578 174.546678 
L 141.138574 175.849335 
L 144.809645 177.39515 
L 150.744318 180.460579 
L 153.979542 182.416375 
L 157.999757 185.117142 
L 161.516905 187.719104 
L 166.673519 191.925037 
L 170.083352 194.954381 
L 175.449898 200.109518 
L 177.943957 202.662549 
L 182.896287 208.019523 
L 187.952364 213.872951 
L 193.510127 220.740892 
L 196.587277 224.733495 
L 202.678972 233.02565 
L 208.196274 240.968859 
L 211.66035 246.160568 
L 217.881056 255.869077 
L 223.833649 265.610182 
L 230.739798 277.446891 
L 237.531537 289.630357 
L 242.601758 299.066244 
L 248.332735 310.072956 
L 248.458482 70.16261 
L 252.884779 78.911657 
L 260.398897 94.234679 
L 265.146355 104.21392 
L 273.447752 122.202588 
L 280.321189 137.602078 
L 288.011337 155.357605 
L 294.425038 170.579735 
L 303.442317 192.599492 
L 311.631331 213.205159 
L 320.071343 235.030474 
L 328.384448 257.094754 
L 338.391127 284.378718 
L 348.325334 312.224706 
L 357.623819 338.953846 
L 357.709648 99.047661 
L 357.795477 99.297372 
L 366.02561 123.487302 
L 377.073687 156.708247 
L 386.410555 185.434486 
L 397.418954 220.047158 
L 406.480573 249.126769 
L 417.649424 285.679378 
L 420.949266 296.626012 
L 421.00647 56.660517 
L 431.808491 92.957548 
L 444.054994 134.941529 
L 452.549231 164.568795 
L 452.549231 164.568795 
" clip-path="url(#p87ef9ae46c)" style="fill: none; stroke: #cc0000; stroke-linecap: square"/>
   </g>
   <g id="line2d_52">
    <path d="M 40.010769 145.943217 
L 41.309181 148.400807 
L 42.859386 150.913108 
L 44.409591 153.033392 
L 45.598027 154.430953 
L 47.526175 156.33984 
L 49.409652 157.841094 
L 52.157778 159.506232 
L 56.089812 161.03894 
L 60.537687 161.8646 
L 64.576102 161.980417 
L 68.668512 161.610504 
L 70.43966 161.320195 
L 76.071528 159.945148 
L 79.246667 158.898357 
L 80.854321 158.300258 
L 86.791153 155.723623 
L 92.245021 152.882993 
L 95.264459 151.12871 
L 100.272792 147.949902 
L 105.716517 144.135949 
L 111.867764 139.412004 
L 117.966988 134.339929 
L 124.728753 128.336487 
L 133.075131 120.523891 
L 151.89843 102.660283 
L 158.179903 97.193343 
L 163.46171 93.041237 
L 169.317683 89.09704 
L 172.277683 87.431414 
L 176.681159 85.440009 
L 180.041547 84.364992 
L 182.729607 83.815052 
L 184.482625 83.616686 
L 188.585092 83.686921 
L 192.537259 84.522762 
L 195.701049 85.782377 
L 197.512441 86.754383 
L 200.304897 88.627686 
L 202.976242 90.862341 
L 206.217779 94.179877 
L 208.566948 97.013699 
L 211.237345 100.686223 
L 213.580069 104.311751 
L 216.177448 108.779808 
L 219.604517 115.405546 
L 221.759933 120.000946 
L 225.437658 128.604228 
L 228.091498 135.403638 
L 232.484412 147.721311 
L 236.822008 161.127345 
L 238.140309 165.433434 
L 244.027936 185.868161 
L 248.412156 202.208282 
L 249.630203 197.567469 
L 255.036214 176.193162 
L 273.851471 100.257265 
L 278.62541 82.580102 
L 282.345015 69.831981 
L 283.764399 65.25438 
L 286.162369 57.928672 
L 288.621017 51.000602 
L 290.337607 46.544828 
L 292.406124 41.623654 
L 294.788136 36.603959 
L 296.162817 34.040266 
L 298.574594 30.163317 
L 300.096859 28.140148 
L 302.411017 25.719926 
L 303.872229 24.611961 
L 305.333442 23.838262 
L 306.747555 23.414087 
L 308.639602 23.35527 
L 310.273095 23.780399 
L 311.906588 24.652434 
L 313.08477 25.561202 
L 314.262952 26.70572 
L 315.575598 28.259304 
L 317.204812 30.596095 
L 318.394277 32.587487 
L 319.583742 34.818758 
L 321.519776 38.959761 
L 323.88215 44.855655 
L 326.34994 51.980743 
L 328.421456 58.698975 
L 330.804173 67.223279 
L 333.255172 76.833852 
L 334.499468 82.020994 
L 338.274748 98.920325 
L 341.640253 115.281069 
L 346.127357 138.584001 
L 353.23435 177.546627 
L 357.690386 202.189017 
L 357.903165 201.105025 
L 361.266981 182.97802 
L 366.410827 156.847436 
L 369.161254 144.015965 
L 372.110463 131.396293 
L 374.92985 120.619937 
L 377.436368 112.235972 
L 379.129731 107.268077 
L 381.712279 100.853171 
L 382.977915 98.248262 
L 384.243551 96.012469 
L 385.521133 94.139911 
L 387.018449 92.448986 
L 388.515764 91.313946 
L 389.408882 90.906231 
L 390.302 90.702263 
L 391.389491 90.731487 
L 392.476981 91.067943 
L 393.847845 91.932826 
L 395.218708 93.291569 
L 396.325439 94.749503 
L 397.432169 96.529673 
L 399.224758 100.093855 
L 400.94007 104.285625 
L 401.902416 106.967711 
L 403.317224 111.335349 
L 405.694003 119.783787 
L 408.175309 130.032262 
L 410.09659 138.91676 
L 412.971375 153.645131 
L 416.523924 173.969063 
L 420.225866 197.226244 
L 421.001428 202.139123 
L 424.61856 177.616193 
L 437.624257 86.890684 
L 441.724964 60.673886 
L 444.446538 44.719096 
L 447.560225 28.250548 
L 449.128192 20.7824 
L 451.622694 10.167466 
L 452.549231 6.646154 
L 452.549231 6.646154 
" clip-path="url(#p87ef9ae46c)" style="fill: none; stroke: #3300ff; stroke-linecap: square"/>
   </g>
   <g id="patch_3">
    <path d="M 21.76 345.6 
L 21.76 0 
" style="fill: none; stroke: #000000; stroke-width: 0.8; stroke-linejoin: miter; stroke-linecap: square"/>
   </g>
   <g id="patch_4">
    <path d="M 31.76 202.229336 
L 460.8 202.229336 
" style="fill: none; stroke: #000000; stroke-width: 0.8; stroke-linejoin: miter; stroke-linecap: square"/>
   </g>
  </g>
 </g>
 <defs>
  <clipPath id="p87ef9ae46c">
   <rect x="31.76" y="0" width="429.04" height="345.6"/>
  </clipPath>
 </defs>
</svg>
