<?xml version="1.0" encoding="utf-8" standalone="no"?>
<!DOCTYPE svg PUBLIC "-//W3C//DTD SVG 1.1//EN"
  "http://www.w3.org/Graphics/SVG/1.1/DTD/svg11.dtd">
<!-- Created with matplotlib (https://matplotlib.org/) -->
<svg height="345.6pt" version="1.1" viewBox="0 0 460.8 345.6" width="460.8pt" xmlns="http://www.w3.org/2000/svg" xmlns:xlink="http://www.w3.org/1999/xlink">
 <metadata>
  <rdf:RDF xmlns:cc="http://creativecommons.org/ns#" xmlns:dc="http://purl.org/dc/elements/1.1/" xmlns:rdf="http://www.w3.org/1999/02/22-rdf-syntax-ns#">
   <cc:Work>
    <dc:type rdf:resource="http://purl.org/dc/dcmitype/StillImage"/>
    <dc:date>2021-05-10T20:21:06.298923</dc:date>
    <dc:format>image/svg+xml</dc:format>
    <dc:creator>
     <cc:Agent>
      <dc:title>Matplotlib v3.3.4, https://matplotlib.org/</dc:title>
     </cc:Agent>
    </dc:creator>
   </cc:Work>
  </rdf:RDF>
 </metadata>
 <defs>
  <style type="text/css">*{stroke-linecap:butt;stroke-linejoin:round;}</style>
 </defs>
 <g id="figure_1">
  <g id="patch_1">
   <path d="M 0 345.6 
L 460.8 345.6 
L 460.8 0 
L 0 0 
z
" style="fill:#ffffff;"/>
  </g>
  <g id="axes_1">
   <g id="patch_2">
    <path d="M 146.769754 334.518018 
L 314.030246 334.518018 
L 314.030246 0 
L 146.769754 0 
z
" style="fill:#ffffff;"/>
   </g>
   <g id="patch_3">
    <path clip-path="url(#p5cec669e0e)" d="M 149.986302 6.433039 
L 150.659069 11.792665 
L 151.865419 21.29033 
L 152.471413 26.006728 
L 153.559509 34.38359 
L 153.930818 37.215208 
L 155.195677 46.758138 
L 155.41639 48.407038 
L 156.787144 58.539098 
L 157.506453 63.781158 
L 157.706306 65.228476 
L 159.171351 75.716879 
L 159.871871 80.656507 
L 160.440818 84.632435 
L 161.372494 91.073654 
L 162.316307 97.510733 
L 162.989636 102.048873 
L 163.702564 106.804737 
L 164.929225 114.869312 
L 165.107103 116.026326 
L 165.852194 120.838599 
L 167.343942 130.307276 
L 167.980088 134.277796 
L 168.688271 138.650577 
L 169.578226 144.074993 
L 169.863599 145.7977 
L 171.356958 154.68052 
L 171.991316 158.386679 
L 172.845212 163.312244 
L 173.611472 167.670542 
L 174.160716 170.758564 
L 174.959809 175.197723 
L 175.696524 179.234071 
L 176.322981 182.623859 
L 177.368663 188.195113 
L 178.305337 193.093221 
L 179.298053 198.189119 
L 179.803206 200.744575 
L 180.675321 205.096659 
L 181.602572 209.640896 
L 182.384465 213.406294 
L 182.987413 216.268404 
L 184.001823 221.002055 
L 184.674798 224.085943 
L 185.458691 227.621303 
L 185.965967 229.87654 
L 186.863645 233.804681 
L 188.310365 239.966656 
L 189.172629 243.540239 
L 189.276929 243.967487 
L 190.265781 247.96439 
L 191.590585 253.166732 
L 191.758373 253.813156 
L 192.450791 256.451156 
L 193.824485 261.543533 
L 194.163377 262.770959 
L 195.37217 267.055995 
L 196.011871 269.264847 
L 196.685515 271.546892 
L 197.437538 274.041124 
L 198.294617 276.815192 
L 199.655633 281.070165 
L 200.201274 282.724265 
L 201.076544 285.315761 
L 201.790352 287.37278 
L 202.714936 289.96185 
L 203.209772 291.312579 
L 204.439675 294.564264 
L 204.801914 295.493285 
L 206.128016 298.782913 
L 206.258468 299.097071 
L 207.653465 302.350682 
L 208.193827 303.55897 
L 209.225916 305.786066 
L 209.920743 307.225715 
L 210.234576 307.860216 
L 211.680394 310.656788 
L 212.560635 312.257546 
L 213.114754 313.2257 
L 213.775553 314.340311 
L 214.368943 315.304199 
L 215.574661 317.154835 
L 216.571738 318.575977 
L 217.429079 319.71887 
L 218.184369 320.665134 
L 218.672656 321.246679 
L 219.157577 321.80074 
L 220.561037 323.272473 
L 220.914278 323.612031 
L 222.032701 324.605256 
L 222.616001 325.073885 
L 223.698234 325.853701 
L 224.660397 326.449153 
L 225.43916 326.863665 
L 225.717148 326.997017 
L 226.438254 327.307097 
L 227.781393 327.74674 
L 228.409003 327.890647 
L 229.407277 328.03881 
L 230.160556 328.084979 
L 231.144723 328.060243 
L 231.241712 328.052589 
L 232.352458 327.898207 
L 233.537959 327.598025 
L 234.250035 327.350505 
L 234.564724 327.225047 
L 235.519652 326.784032 
L 236.106209 326.468166 
L 237.484395 325.591309 
L 238.39297 324.909887 
L 238.759075 324.612098 
L 240.023494 323.481072 
L 240.150028 323.359132 
L 241.643492 321.799544 
L 242.427566 320.891926 
L 242.898283 320.317658 
L 243.434429 319.636717 
L 244.142031 318.694237 
L 245.011734 317.467612 
L 245.833753 316.239066 
L 246.937015 314.484533 
L 247.718039 313.169255 
L 248.282642 312.180646 
L 249.352806 310.219788 
L 250.196446 308.593676 
L 250.921907 307.138731 
L 251.748863 305.416372 
L 252.7303 303.283983 
L 253.504521 301.534201 
L 254.171078 299.979977 
L 255.045925 297.872998 
L 255.683543 296.289392 
L 256.368719 294.542582 
L 257.315271 292.052586 
L 258.536837 288.707398 
L 258.692724 288.269828 
L 260.027468 284.424281 
L 260.38849 283.353683 
L 261.75618 279.180242 
L 262.670568 276.28623 
L 263.422858 273.842888 
L 263.745546 272.777583 
L 265.062953 268.320885 
L 265.634309 266.334348 
L 266.296853 263.990093 
L 267.443114 259.831186 
L 267.876868 258.223333 
L 268.473807 255.97998 
L 269.820779 250.787678 
L 270.051783 249.879073 
L 271.597463 243.662864 
L 272.101077 241.586159 
L 272.684802 239.147538 
L 273.462064 235.84776 
L 274.812319 229.972504 
L 275.105979 228.670713 
L 276.034563 224.49785 
L 276.859601 220.718337 
L 277.505578 217.711834 
L 278.227385 214.303298 
L 279.584648 207.753627 
L 280.018887 205.619446 
L 281.074844 200.351394 
L 281.42707 198.569507 
L 282.314787 194.023852 
L 283.531761 187.664787 
L 284.529759 182.339987 
L 284.776535 181.008036 
L 285.63068 176.351095 
L 286.442156 171.859558 
L 287.049883 168.452876 
L 288.480755 160.286861 
L 288.712028 158.947864 
L 290.047318 151.112881 
L 290.362754 149.236122 
L 291.599624 141.781565 
L 292.29788 137.505993 
L 293.26862 131.481358 
L 293.456879 130.302126 
L 294.649449 122.750092 
L 295.788287 115.406253 
L 296.054736 113.669416 
L 297.014046 107.357719 
L 298.282513 98.871381 
L 298.798769 95.371681 
L 299.896188 87.84418 
L 300.359818 84.628011 
L 300.930377 80.640735 
L 301.609702 75.851121 
L 302.764789 67.601726 
L 303.726168 60.634546 
L 304.349035 56.071498 
L 305.339063 48.739245 
L 305.648721 46.425868 
L 306.558868 39.571158 
L 307.57536 31.8181 
L 308.20425 26.969917 
L 309.319391 18.276418 
L 309.890151 13.778986 
L 310.813698 6.433039 
z
" style="fill:#808080;opacity:0.5;"/>
   </g>
   <g id="matplotlib.axis_1">
    <g id="xtick_1">
     <g id="line2d_1">
      <defs>
       <path d="M 0 0 
L 0 3.5 
" id="m1305d88178" style="stroke:#000000;stroke-width:0.8;"/>
      </defs>
      <g>
       <use style="stroke:#000000;stroke-width:0.8;" x="149.986302" xlink:href="#m1305d88178" y="328.087831"/>
      </g>
     </g>
     <g id="text_1">
      <!-- −4 -->
      <g transform="translate(142.615208 342.686269)scale(0.1 -0.1)">
       <defs>
        <path d="M 10.59375 35.5 
L 73.1875 35.5 
L 73.1875 27.203125 
L 10.59375 27.203125 
z
" id="DejaVuSans-8722"/>
        <path d="M 37.796875 64.3125 
L 12.890625 25.390625 
L 37.796875 25.390625 
z
M 35.203125 72.90625 
L 47.609375 72.90625 
L 47.609375 25.390625 
L 58.015625 25.390625 
L 58.015625 17.1875 
L 47.609375 17.1875 
L 47.609375 0 
L 37.796875 0 
L 37.796875 17.1875 
L 4.890625 17.1875 
L 4.890625 26.703125 
z
" id="DejaVuSans-52"/>
       </defs>
       <use xlink:href="#DejaVuSans-8722"/>
       <use x="83.789062" xlink:href="#DejaVuSans-52"/>
      </g>
     </g>
    </g>
    <g id="xtick_2">
     <g id="line2d_2">
      <g>
       <use style="stroke:#000000;stroke-width:0.8;" x="170.089726" xlink:href="#m1305d88178" y="328.087831"/>
      </g>
     </g>
     <g id="text_2">
      <!-- −3 -->
      <g transform="translate(162.718633 342.686269)scale(0.1 -0.1)">
       <defs>
        <path d="M 40.578125 39.3125 
Q 47.65625 37.796875 51.625 33 
Q 55.609375 28.21875 55.609375 21.1875 
Q 55.609375 10.40625 48.1875 4.484375 
Q 40.765625 -1.421875 27.09375 -1.421875 
Q 22.515625 -1.421875 17.65625 -0.515625 
Q 12.796875 0.390625 7.625 2.203125 
L 7.625 11.71875 
Q 11.71875 9.328125 16.59375 8.109375 
Q 21.484375 6.890625 26.8125 6.890625 
Q 36.078125 6.890625 40.9375 10.546875 
Q 45.796875 14.203125 45.796875 21.1875 
Q 45.796875 27.640625 41.28125 31.265625 
Q 36.765625 34.90625 28.71875 34.90625 
L 20.21875 34.90625 
L 20.21875 43.015625 
L 29.109375 43.015625 
Q 36.375 43.015625 40.234375 45.921875 
Q 44.09375 48.828125 44.09375 54.296875 
Q 44.09375 59.90625 40.109375 62.90625 
Q 36.140625 65.921875 28.71875 65.921875 
Q 24.65625 65.921875 20.015625 65.03125 
Q 15.375 64.15625 9.8125 62.3125 
L 9.8125 71.09375 
Q 15.4375 72.65625 20.34375 73.4375 
Q 25.25 74.21875 29.59375 74.21875 
Q 40.828125 74.21875 47.359375 69.109375 
Q 53.90625 64.015625 53.90625 55.328125 
Q 53.90625 49.265625 50.4375 45.09375 
Q 46.96875 40.921875 40.578125 39.3125 
z
" id="DejaVuSans-51"/>
       </defs>
       <use xlink:href="#DejaVuSans-8722"/>
       <use x="83.789062" xlink:href="#DejaVuSans-51"/>
      </g>
     </g>
    </g>
    <g id="xtick_3">
     <g id="line2d_3">
      <g>
       <use style="stroke:#000000;stroke-width:0.8;" x="190.193151" xlink:href="#m1305d88178" y="328.087831"/>
      </g>
     </g>
     <g id="text_3">
      <!-- −2 -->
      <g transform="translate(182.822057 342.686269)scale(0.1 -0.1)">
       <defs>
        <path d="M 19.1875 8.296875 
L 53.609375 8.296875 
L 53.609375 0 
L 7.328125 0 
L 7.328125 8.296875 
Q 12.9375 14.109375 22.625 23.890625 
Q 32.328125 33.6875 34.8125 36.53125 
Q 39.546875 41.84375 41.421875 45.53125 
Q 43.3125 49.21875 43.3125 52.78125 
Q 43.3125 58.59375 39.234375 62.25 
Q 35.15625 65.921875 28.609375 65.921875 
Q 23.96875 65.921875 18.8125 64.3125 
Q 13.671875 62.703125 7.8125 59.421875 
L 7.8125 69.390625 
Q 13.765625 71.78125 18.9375 73 
Q 24.125 74.21875 28.421875 74.21875 
Q 39.75 74.21875 46.484375 68.546875 
Q 53.21875 62.890625 53.21875 53.421875 
Q 53.21875 48.921875 51.53125 44.890625 
Q 49.859375 40.875 45.40625 35.40625 
Q 44.1875 33.984375 37.640625 27.21875 
Q 31.109375 20.453125 19.1875 8.296875 
z
" id="DejaVuSans-50"/>
       </defs>
       <use xlink:href="#DejaVuSans-8722"/>
       <use x="83.789062" xlink:href="#DejaVuSans-50"/>
      </g>
     </g>
    </g>
    <g id="xtick_4">
     <g id="line2d_4">
      <g>
       <use style="stroke:#000000;stroke-width:0.8;" x="210.296575" xlink:href="#m1305d88178" y="328.087831"/>
      </g>
     </g>
     <g id="text_4">
      <!-- −1 -->
      <g transform="translate(202.925482 342.686269)scale(0.1 -0.1)">
       <defs>
        <path d="M 12.40625 8.296875 
L 28.515625 8.296875 
L 28.515625 63.921875 
L 10.984375 60.40625 
L 10.984375 69.390625 
L 28.421875 72.90625 
L 38.28125 72.90625 
L 38.28125 8.296875 
L 54.390625 8.296875 
L 54.390625 0 
L 12.40625 0 
z
" id="DejaVuSans-49"/>
       </defs>
       <use xlink:href="#DejaVuSans-8722"/>
       <use x="83.789062" xlink:href="#DejaVuSans-49"/>
      </g>
     </g>
    </g>
    <g id="xtick_5">
     <g id="line2d_5">
      <g>
       <use style="stroke:#000000;stroke-width:0.8;" x="230.4" xlink:href="#m1305d88178" y="328.087831"/>
      </g>
     </g>
    </g>
    <g id="xtick_6">
     <g id="line2d_6">
      <g>
       <use style="stroke:#000000;stroke-width:0.8;" x="250.503425" xlink:href="#m1305d88178" y="328.087831"/>
      </g>
     </g>
     <g id="text_5">
      <!-- 1 -->
      <g transform="translate(247.322175 342.686269)scale(0.1 -0.1)">
       <use xlink:href="#DejaVuSans-49"/>
      </g>
     </g>
    </g>
    <g id="xtick_7">
     <g id="line2d_7">
      <g>
       <use style="stroke:#000000;stroke-width:0.8;" x="270.606849" xlink:href="#m1305d88178" y="328.087831"/>
      </g>
     </g>
     <g id="text_6">
      <!-- 2 -->
      <g transform="translate(267.425599 342.686269)scale(0.1 -0.1)">
       <use xlink:href="#DejaVuSans-50"/>
      </g>
     </g>
    </g>
    <g id="xtick_8">
     <g id="line2d_8">
      <g>
       <use style="stroke:#000000;stroke-width:0.8;" x="290.710274" xlink:href="#m1305d88178" y="328.087831"/>
      </g>
     </g>
     <g id="text_7">
      <!-- 3 -->
      <g transform="translate(287.529024 342.686269)scale(0.1 -0.1)">
       <use xlink:href="#DejaVuSans-51"/>
      </g>
     </g>
    </g>
    <g id="xtick_9">
     <g id="line2d_9">
      <g>
       <use style="stroke:#000000;stroke-width:0.8;" x="310.813698" xlink:href="#m1305d88178" y="328.087831"/>
      </g>
     </g>
     <g id="text_8">
      <!-- 4 -->
      <g transform="translate(307.632448 342.686269)scale(0.1 -0.1)">
       <use xlink:href="#DejaVuSans-52"/>
      </g>
     </g>
    </g>
    <g id="xtick_10">
     <g id="line2d_10">
      <defs>
       <path d="M 0 0 
L 0 2 
" id="m29f6ab648e" style="stroke:#000000;stroke-width:0.6;"/>
      </defs>
      <g>
       <use style="stroke:#000000;stroke-width:0.6;" x="154.006987" xlink:href="#m29f6ab648e" y="328.087831"/>
      </g>
     </g>
    </g>
    <g id="xtick_11">
     <g id="line2d_11">
      <g>
       <use style="stroke:#000000;stroke-width:0.6;" x="158.027672" xlink:href="#m29f6ab648e" y="328.087831"/>
      </g>
     </g>
    </g>
    <g id="xtick_12">
     <g id="line2d_12">
      <g>
       <use style="stroke:#000000;stroke-width:0.6;" x="162.048357" xlink:href="#m29f6ab648e" y="328.087831"/>
      </g>
     </g>
    </g>
    <g id="xtick_13">
     <g id="line2d_13">
      <g>
       <use style="stroke:#000000;stroke-width:0.6;" x="166.069042" xlink:href="#m29f6ab648e" y="328.087831"/>
      </g>
     </g>
    </g>
    <g id="xtick_14">
     <g id="line2d_14">
      <g>
       <use style="stroke:#000000;stroke-width:0.6;" x="174.110411" xlink:href="#m29f6ab648e" y="328.087831"/>
      </g>
     </g>
    </g>
    <g id="xtick_15">
     <g id="line2d_15">
      <g>
       <use style="stroke:#000000;stroke-width:0.6;" x="178.131096" xlink:href="#m29f6ab648e" y="328.087831"/>
      </g>
     </g>
    </g>
    <g id="xtick_16">
     <g id="line2d_16">
      <g>
       <use style="stroke:#000000;stroke-width:0.6;" x="182.151781" xlink:href="#m29f6ab648e" y="328.087831"/>
      </g>
     </g>
    </g>
    <g id="xtick_17">
     <g id="line2d_17">
      <g>
       <use style="stroke:#000000;stroke-width:0.6;" x="186.172466" xlink:href="#m29f6ab648e" y="328.087831"/>
      </g>
     </g>
    </g>
    <g id="xtick_18">
     <g id="line2d_18">
      <g>
       <use style="stroke:#000000;stroke-width:0.6;" x="194.213836" xlink:href="#m29f6ab648e" y="328.087831"/>
      </g>
     </g>
    </g>
    <g id="xtick_19">
     <g id="line2d_19">
      <g>
       <use style="stroke:#000000;stroke-width:0.6;" x="198.234521" xlink:href="#m29f6ab648e" y="328.087831"/>
      </g>
     </g>
    </g>
    <g id="xtick_20">
     <g id="line2d_20">
      <g>
       <use style="stroke:#000000;stroke-width:0.6;" x="202.255206" xlink:href="#m29f6ab648e" y="328.087831"/>
      </g>
     </g>
    </g>
    <g id="xtick_21">
     <g id="line2d_21">
      <g>
       <use style="stroke:#000000;stroke-width:0.6;" x="206.275891" xlink:href="#m29f6ab648e" y="328.087831"/>
      </g>
     </g>
    </g>
    <g id="xtick_22">
     <g id="line2d_22">
      <g>
       <use style="stroke:#000000;stroke-width:0.6;" x="214.31726" xlink:href="#m29f6ab648e" y="328.087831"/>
      </g>
     </g>
    </g>
    <g id="xtick_23">
     <g id="line2d_23">
      <g>
       <use style="stroke:#000000;stroke-width:0.6;" x="218.337945" xlink:href="#m29f6ab648e" y="328.087831"/>
      </g>
     </g>
    </g>
    <g id="xtick_24">
     <g id="line2d_24">
      <g>
       <use style="stroke:#000000;stroke-width:0.6;" x="222.35863" xlink:href="#m29f6ab648e" y="328.087831"/>
      </g>
     </g>
    </g>
    <g id="xtick_25">
     <g id="line2d_25">
      <g>
       <use style="stroke:#000000;stroke-width:0.6;" x="226.379315" xlink:href="#m29f6ab648e" y="328.087831"/>
      </g>
     </g>
    </g>
    <g id="xtick_26">
     <g id="line2d_26">
      <g>
       <use style="stroke:#000000;stroke-width:0.6;" x="234.420685" xlink:href="#m29f6ab648e" y="328.087831"/>
      </g>
     </g>
    </g>
    <g id="xtick_27">
     <g id="line2d_27">
      <g>
       <use style="stroke:#000000;stroke-width:0.6;" x="238.44137" xlink:href="#m29f6ab648e" y="328.087831"/>
      </g>
     </g>
    </g>
    <g id="xtick_28">
     <g id="line2d_28">
      <g>
       <use style="stroke:#000000;stroke-width:0.6;" x="242.462055" xlink:href="#m29f6ab648e" y="328.087831"/>
      </g>
     </g>
    </g>
    <g id="xtick_29">
     <g id="line2d_29">
      <g>
       <use style="stroke:#000000;stroke-width:0.6;" x="246.48274" xlink:href="#m29f6ab648e" y="328.087831"/>
      </g>
     </g>
    </g>
    <g id="xtick_30">
     <g id="line2d_30">
      <g>
       <use style="stroke:#000000;stroke-width:0.6;" x="254.524109" xlink:href="#m29f6ab648e" y="328.087831"/>
      </g>
     </g>
    </g>
    <g id="xtick_31">
     <g id="line2d_31">
      <g>
       <use style="stroke:#000000;stroke-width:0.6;" x="258.544794" xlink:href="#m29f6ab648e" y="328.087831"/>
      </g>
     </g>
    </g>
    <g id="xtick_32">
     <g id="line2d_32">
      <g>
       <use style="stroke:#000000;stroke-width:0.6;" x="262.565479" xlink:href="#m29f6ab648e" y="328.087831"/>
      </g>
     </g>
    </g>
    <g id="xtick_33">
     <g id="line2d_33">
      <g>
       <use style="stroke:#000000;stroke-width:0.6;" x="266.586164" xlink:href="#m29f6ab648e" y="328.087831"/>
      </g>
     </g>
    </g>
    <g id="xtick_34">
     <g id="line2d_34">
      <g>
       <use style="stroke:#000000;stroke-width:0.6;" x="274.627534" xlink:href="#m29f6ab648e" y="328.087831"/>
      </g>
     </g>
    </g>
    <g id="xtick_35">
     <g id="line2d_35">
      <g>
       <use style="stroke:#000000;stroke-width:0.6;" x="278.648219" xlink:href="#m29f6ab648e" y="328.087831"/>
      </g>
     </g>
    </g>
    <g id="xtick_36">
     <g id="line2d_36">
      <g>
       <use style="stroke:#000000;stroke-width:0.6;" x="282.668904" xlink:href="#m29f6ab648e" y="328.087831"/>
      </g>
     </g>
    </g>
    <g id="xtick_37">
     <g id="line2d_37">
      <g>
       <use style="stroke:#000000;stroke-width:0.6;" x="286.689589" xlink:href="#m29f6ab648e" y="328.087831"/>
      </g>
     </g>
    </g>
    <g id="xtick_38">
     <g id="line2d_38">
      <g>
       <use style="stroke:#000000;stroke-width:0.6;" x="294.730958" xlink:href="#m29f6ab648e" y="328.087831"/>
      </g>
     </g>
    </g>
    <g id="xtick_39">
     <g id="line2d_39">
      <g>
       <use style="stroke:#000000;stroke-width:0.6;" x="298.751643" xlink:href="#m29f6ab648e" y="328.087831"/>
      </g>
     </g>
    </g>
    <g id="xtick_40">
     <g id="line2d_40">
      <g>
       <use style="stroke:#000000;stroke-width:0.6;" x="302.772328" xlink:href="#m29f6ab648e" y="328.087831"/>
      </g>
     </g>
    </g>
    <g id="xtick_41">
     <g id="line2d_41">
      <g>
       <use style="stroke:#000000;stroke-width:0.6;" x="306.793013" xlink:href="#m29f6ab648e" y="328.087831"/>
      </g>
     </g>
    </g>
   </g>
   <g id="matplotlib.axis_2">
    <g id="ytick_1">
     <g id="line2d_42">
      <defs>
       <path d="M 0 0 
L -3.5 0 
" id="mc8d1533f76" style="stroke:#000000;stroke-width:0.8;"/>
      </defs>
      <g>
       <use style="stroke:#000000;stroke-width:0.8;" x="230.4" xlink:href="#mc8d1533f76" y="328.087831"/>
      </g>
     </g>
    </g>
    <g id="ytick_2">
     <g id="line2d_43">
      <g>
       <use style="stroke:#000000;stroke-width:0.8;" x="230.4" xlink:href="#mc8d1533f76" y="287.880982"/>
      </g>
     </g>
     <g id="text_9">
      <!-- 2 -->
      <g transform="translate(217.0375 291.680201)scale(0.1 -0.1)">
       <use xlink:href="#DejaVuSans-50"/>
      </g>
     </g>
    </g>
    <g id="ytick_3">
     <g id="line2d_44">
      <g>
       <use style="stroke:#000000;stroke-width:0.8;" x="230.4" xlink:href="#mc8d1533f76" y="247.674133"/>
      </g>
     </g>
     <g id="text_10">
      <!-- 4 -->
      <g transform="translate(217.0375 251.473352)scale(0.1 -0.1)">
       <use xlink:href="#DejaVuSans-52"/>
      </g>
     </g>
    </g>
    <g id="ytick_4">
     <g id="line2d_45">
      <g>
       <use style="stroke:#000000;stroke-width:0.8;" x="230.4" xlink:href="#mc8d1533f76" y="207.467284"/>
      </g>
     </g>
     <g id="text_11">
      <!-- 6 -->
      <g transform="translate(217.0375 211.266503)scale(0.1 -0.1)">
       <defs>
        <path d="M 33.015625 40.375 
Q 26.375 40.375 22.484375 35.828125 
Q 18.609375 31.296875 18.609375 23.390625 
Q 18.609375 15.53125 22.484375 10.953125 
Q 26.375 6.390625 33.015625 6.390625 
Q 39.65625 6.390625 43.53125 10.953125 
Q 47.40625 15.53125 47.40625 23.390625 
Q 47.40625 31.296875 43.53125 35.828125 
Q 39.65625 40.375 33.015625 40.375 
z
M 52.59375 71.296875 
L 52.59375 62.3125 
Q 48.875 64.0625 45.09375 64.984375 
Q 41.3125 65.921875 37.59375 65.921875 
Q 27.828125 65.921875 22.671875 59.328125 
Q 17.53125 52.734375 16.796875 39.40625 
Q 19.671875 43.65625 24.015625 45.921875 
Q 28.375 48.1875 33.59375 48.1875 
Q 44.578125 48.1875 50.953125 41.515625 
Q 57.328125 34.859375 57.328125 23.390625 
Q 57.328125 12.15625 50.6875 5.359375 
Q 44.046875 -1.421875 33.015625 -1.421875 
Q 20.359375 -1.421875 13.671875 8.265625 
Q 6.984375 17.96875 6.984375 36.375 
Q 6.984375 53.65625 15.1875 63.9375 
Q 23.390625 74.21875 37.203125 74.21875 
Q 40.921875 74.21875 44.703125 73.484375 
Q 48.484375 72.75 52.59375 71.296875 
z
" id="DejaVuSans-54"/>
       </defs>
       <use xlink:href="#DejaVuSans-54"/>
      </g>
     </g>
    </g>
    <g id="ytick_5">
     <g id="line2d_46">
      <g>
       <use style="stroke:#000000;stroke-width:0.8;" x="230.4" xlink:href="#mc8d1533f76" y="167.260435"/>
      </g>
     </g>
     <g id="text_12">
      <!-- 8 -->
      <g transform="translate(217.0375 171.059654)scale(0.1 -0.1)">
       <defs>
        <path d="M 31.78125 34.625 
Q 24.75 34.625 20.71875 30.859375 
Q 16.703125 27.09375 16.703125 20.515625 
Q 16.703125 13.921875 20.71875 10.15625 
Q 24.75 6.390625 31.78125 6.390625 
Q 38.8125 6.390625 42.859375 10.171875 
Q 46.921875 13.96875 46.921875 20.515625 
Q 46.921875 27.09375 42.890625 30.859375 
Q 38.875 34.625 31.78125 34.625 
z
M 21.921875 38.8125 
Q 15.578125 40.375 12.03125 44.71875 
Q 8.5 49.078125 8.5 55.328125 
Q 8.5 64.0625 14.71875 69.140625 
Q 20.953125 74.21875 31.78125 74.21875 
Q 42.671875 74.21875 48.875 69.140625 
Q 55.078125 64.0625 55.078125 55.328125 
Q 55.078125 49.078125 51.53125 44.71875 
Q 48 40.375 41.703125 38.8125 
Q 48.828125 37.15625 52.796875 32.3125 
Q 56.78125 27.484375 56.78125 20.515625 
Q 56.78125 9.90625 50.3125 4.234375 
Q 43.84375 -1.421875 31.78125 -1.421875 
Q 19.734375 -1.421875 13.25 4.234375 
Q 6.78125 9.90625 6.78125 20.515625 
Q 6.78125 27.484375 10.78125 32.3125 
Q 14.796875 37.15625 21.921875 38.8125 
z
M 18.3125 54.390625 
Q 18.3125 48.734375 21.84375 45.5625 
Q 25.390625 42.390625 31.78125 42.390625 
Q 38.140625 42.390625 41.71875 45.5625 
Q 45.3125 48.734375 45.3125 54.390625 
Q 45.3125 60.0625 41.71875 63.234375 
Q 38.140625 66.40625 31.78125 66.40625 
Q 25.390625 66.40625 21.84375 63.234375 
Q 18.3125 60.0625 18.3125 54.390625 
z
" id="DejaVuSans-56"/>
       </defs>
       <use xlink:href="#DejaVuSans-56"/>
      </g>
     </g>
    </g>
    <g id="ytick_6">
     <g id="line2d_47">
      <g>
       <use style="stroke:#000000;stroke-width:0.8;" x="230.4" xlink:href="#mc8d1533f76" y="127.053586"/>
      </g>
     </g>
     <g id="text_13">
      <!-- 10 -->
      <g transform="translate(210.675 130.852805)scale(0.1 -0.1)">
       <defs>
        <path d="M 31.78125 66.40625 
Q 24.171875 66.40625 20.328125 58.90625 
Q 16.5 51.421875 16.5 36.375 
Q 16.5 21.390625 20.328125 13.890625 
Q 24.171875 6.390625 31.78125 6.390625 
Q 39.453125 6.390625 43.28125 13.890625 
Q 47.125 21.390625 47.125 36.375 
Q 47.125 51.421875 43.28125 58.90625 
Q 39.453125 66.40625 31.78125 66.40625 
z
M 31.78125 74.21875 
Q 44.046875 74.21875 50.515625 64.515625 
Q 56.984375 54.828125 56.984375 36.375 
Q 56.984375 17.96875 50.515625 8.265625 
Q 44.046875 -1.421875 31.78125 -1.421875 
Q 19.53125 -1.421875 13.0625 8.265625 
Q 6.59375 17.96875 6.59375 36.375 
Q 6.59375 54.828125 13.0625 64.515625 
Q 19.53125 74.21875 31.78125 74.21875 
z
" id="DejaVuSans-48"/>
       </defs>
       <use xlink:href="#DejaVuSans-49"/>
       <use x="63.623047" xlink:href="#DejaVuSans-48"/>
      </g>
     </g>
    </g>
    <g id="ytick_7">
     <g id="line2d_48">
      <g>
       <use style="stroke:#000000;stroke-width:0.8;" x="230.4" xlink:href="#mc8d1533f76" y="86.846737"/>
      </g>
     </g>
     <g id="text_14">
      <!-- 12 -->
      <g transform="translate(210.675 90.645956)scale(0.1 -0.1)">
       <use xlink:href="#DejaVuSans-49"/>
       <use x="63.623047" xlink:href="#DejaVuSans-50"/>
      </g>
     </g>
    </g>
    <g id="ytick_8">
     <g id="line2d_49">
      <g>
       <use style="stroke:#000000;stroke-width:0.8;" x="230.4" xlink:href="#mc8d1533f76" y="46.639888"/>
      </g>
     </g>
     <g id="text_15">
      <!-- 14 -->
      <g transform="translate(210.675 50.439107)scale(0.1 -0.1)">
       <use xlink:href="#DejaVuSans-49"/>
       <use x="63.623047" xlink:href="#DejaVuSans-52"/>
      </g>
     </g>
    </g>
    <g id="ytick_9">
     <g id="line2d_50">
      <g>
       <use style="stroke:#000000;stroke-width:0.8;" x="230.4" xlink:href="#mc8d1533f76" y="6.433039"/>
      </g>
     </g>
     <g id="text_16">
      <!-- 16 -->
      <g transform="translate(210.675 10.232258)scale(0.1 -0.1)">
       <use xlink:href="#DejaVuSans-49"/>
       <use x="63.623047" xlink:href="#DejaVuSans-54"/>
      </g>
     </g>
    </g>
    <g id="ytick_10">
     <g id="line2d_51">
      <defs>
       <path d="M 0 0 
L -2 0 
" id="m060e2f488e" style="stroke:#000000;stroke-width:0.6;"/>
      </defs>
      <g>
       <use style="stroke:#000000;stroke-width:0.6;" x="230.4" xlink:href="#m060e2f488e" y="318.036119"/>
      </g>
     </g>
    </g>
    <g id="ytick_11">
     <g id="line2d_52">
      <g>
       <use style="stroke:#000000;stroke-width:0.6;" x="230.4" xlink:href="#m060e2f488e" y="307.984407"/>
      </g>
     </g>
    </g>
    <g id="ytick_12">
     <g id="line2d_53">
      <g>
       <use style="stroke:#000000;stroke-width:0.6;" x="230.4" xlink:href="#m060e2f488e" y="297.932694"/>
      </g>
     </g>
    </g>
    <g id="ytick_13">
     <g id="line2d_54">
      <g>
       <use style="stroke:#000000;stroke-width:0.6;" x="230.4" xlink:href="#m060e2f488e" y="277.82927"/>
      </g>
     </g>
    </g>
    <g id="ytick_14">
     <g id="line2d_55">
      <g>
       <use style="stroke:#000000;stroke-width:0.6;" x="230.4" xlink:href="#m060e2f488e" y="267.777558"/>
      </g>
     </g>
    </g>
    <g id="ytick_15">
     <g id="line2d_56">
      <g>
       <use style="stroke:#000000;stroke-width:0.6;" x="230.4" xlink:href="#m060e2f488e" y="257.725845"/>
      </g>
     </g>
    </g>
    <g id="ytick_16">
     <g id="line2d_57">
      <g>
       <use style="stroke:#000000;stroke-width:0.6;" x="230.4" xlink:href="#m060e2f488e" y="237.622421"/>
      </g>
     </g>
    </g>
    <g id="ytick_17">
     <g id="line2d_58">
      <g>
       <use style="stroke:#000000;stroke-width:0.6;" x="230.4" xlink:href="#m060e2f488e" y="227.570709"/>
      </g>
     </g>
    </g>
    <g id="ytick_18">
     <g id="line2d_59">
      <g>
       <use style="stroke:#000000;stroke-width:0.6;" x="230.4" xlink:href="#m060e2f488e" y="217.518996"/>
      </g>
     </g>
    </g>
    <g id="ytick_19">
     <g id="line2d_60">
      <g>
       <use style="stroke:#000000;stroke-width:0.6;" x="230.4" xlink:href="#m060e2f488e" y="197.415572"/>
      </g>
     </g>
    </g>
    <g id="ytick_20">
     <g id="line2d_61">
      <g>
       <use style="stroke:#000000;stroke-width:0.6;" x="230.4" xlink:href="#m060e2f488e" y="187.363859"/>
      </g>
     </g>
    </g>
    <g id="ytick_21">
     <g id="line2d_62">
      <g>
       <use style="stroke:#000000;stroke-width:0.6;" x="230.4" xlink:href="#m060e2f488e" y="177.312147"/>
      </g>
     </g>
    </g>
    <g id="ytick_22">
     <g id="line2d_63">
      <g>
       <use style="stroke:#000000;stroke-width:0.6;" x="230.4" xlink:href="#m060e2f488e" y="157.208723"/>
      </g>
     </g>
    </g>
    <g id="ytick_23">
     <g id="line2d_64">
      <g>
       <use style="stroke:#000000;stroke-width:0.6;" x="230.4" xlink:href="#m060e2f488e" y="147.15701"/>
      </g>
     </g>
    </g>
    <g id="ytick_24">
     <g id="line2d_65">
      <g>
       <use style="stroke:#000000;stroke-width:0.6;" x="230.4" xlink:href="#m060e2f488e" y="137.105298"/>
      </g>
     </g>
    </g>
    <g id="ytick_25">
     <g id="line2d_66">
      <g>
       <use style="stroke:#000000;stroke-width:0.6;" x="230.4" xlink:href="#m060e2f488e" y="117.001874"/>
      </g>
     </g>
    </g>
    <g id="ytick_26">
     <g id="line2d_67">
      <g>
       <use style="stroke:#000000;stroke-width:0.6;" x="230.4" xlink:href="#m060e2f488e" y="106.950161"/>
      </g>
     </g>
    </g>
    <g id="ytick_27">
     <g id="line2d_68">
      <g>
       <use style="stroke:#000000;stroke-width:0.6;" x="230.4" xlink:href="#m060e2f488e" y="96.898449"/>
      </g>
     </g>
    </g>
    <g id="ytick_28">
     <g id="line2d_69">
      <g>
       <use style="stroke:#000000;stroke-width:0.6;" x="230.4" xlink:href="#m060e2f488e" y="76.795025"/>
      </g>
     </g>
    </g>
    <g id="ytick_29">
     <g id="line2d_70">
      <g>
       <use style="stroke:#000000;stroke-width:0.6;" x="230.4" xlink:href="#m060e2f488e" y="66.743312"/>
      </g>
     </g>
    </g>
    <g id="ytick_30">
     <g id="line2d_71">
      <g>
       <use style="stroke:#000000;stroke-width:0.6;" x="230.4" xlink:href="#m060e2f488e" y="56.6916"/>
      </g>
     </g>
    </g>
    <g id="ytick_31">
     <g id="line2d_72">
      <g>
       <use style="stroke:#000000;stroke-width:0.6;" x="230.4" xlink:href="#m060e2f488e" y="36.588176"/>
      </g>
     </g>
    </g>
    <g id="ytick_32">
     <g id="line2d_73">
      <g>
       <use style="stroke:#000000;stroke-width:0.6;" x="230.4" xlink:href="#m060e2f488e" y="26.536463"/>
      </g>
     </g>
    </g>
    <g id="ytick_33">
     <g id="line2d_74">
      <g>
       <use style="stroke:#000000;stroke-width:0.6;" x="230.4" xlink:href="#m060e2f488e" y="16.484751"/>
      </g>
     </g>
    </g>
   </g>
   <g id="line2d_75">
    <path clip-path="url(#p5cec669e0e)" d="M 149.986302 6.433039 
L 153.930818 37.215208 
L 157.706306 65.228476 
L 162.316307 97.510733 
L 165.852194 120.838599 
L 169.863599 145.7977 
L 174.160716 170.758564 
L 177.368663 188.195113 
L 180.675321 205.096659 
L 184.001823 221.002055 
L 186.863645 233.804681 
L 190.265781 247.96439 
L 193.824485 261.543533 
L 196.685515 271.546892 
L 199.655633 281.070165 
L 201.790352 287.37278 
L 204.801914 295.493285 
L 207.653465 302.350682 
L 210.234576 307.860216 
L 213.114754 313.2257 
L 214.368943 315.304199 
L 216.571738 318.575977 
L 218.672656 321.246679 
L 220.561037 323.272473 
L 222.032701 324.605256 
L 223.698234 325.853701 
L 225.717148 326.997017 
L 226.438254 327.307097 
L 228.409003 327.890647 
L 230.160556 328.084979 
L 231.241712 328.052589 
L 232.352458 327.898207 
L 234.564724 327.225047 
L 236.106209 326.468166 
L 238.39297 324.909887 
L 240.150028 323.359132 
L 242.427566 320.891926 
L 244.142031 318.694237 
L 245.833753 316.239066 
L 248.282642 312.180646 
L 250.921907 307.138731 
L 253.504521 301.534201 
L 255.683543 296.289392 
L 257.315271 292.052586 
L 260.38849 283.353683 
L 263.745546 272.777583 
L 266.296853 263.990093 
L 269.820779 250.787678 
L 272.684802 239.147538 
L 276.034563 224.49785 
L 279.584648 207.753627 
L 282.314787 194.023852 
L 285.63068 176.351095 
L 288.712028 158.947864 
L 292.29788 137.505993 
L 296.054736 113.669416 
L 300.359818 84.628011 
L 304.349035 56.071498 
L 308.20425 26.969917 
L 310.813698 6.433039 
L 310.813698 6.433039 
" style="fill:none;stroke:#0000ff;stroke-linecap:square;"/>
   </g>
   <g id="patch_4">
    <path d="M 230.4 334.518018 
L 230.4 0 
" style="fill:none;stroke:#000000;stroke-linecap:square;stroke-linejoin:miter;stroke-width:0.8;"/>
   </g>
   <g id="patch_5">
    <path d="M 146.769754 328.087831 
L 314.030246 328.087831 
" style="fill:none;stroke:#000000;stroke-linecap:square;stroke-linejoin:miter;stroke-width:0.8;"/>
   </g>
  </g>
 </g>
 <defs>
  <clipPath id="p5cec669e0e">
   <rect height="334.518018" width="167.260492" x="146.769754" y="0"/>
  </clipPath>
 </defs>
</svg>
