<?xml version="1.0" encoding="utf-8" standalone="no"?>
<!DOCTYPE svg PUBLIC "-//W3C//DTD SVG 1.1//EN"
  "http://www.w3.org/Graphics/SVG/1.1/DTD/svg11.dtd">
<svg xmlns:xlink="http://www.w3.org/1999/xlink" width="576pt" height="144pt" viewBox="0 0 576 144" xmlns="http://www.w3.org/2000/svg" version="1.1">
 <metadata>
  <rdf:RDF xmlns:dc="http://purl.org/dc/elements/1.1/" xmlns:cc="http://creativecommons.org/ns#" xmlns:rdf="http://www.w3.org/1999/02/22-rdf-syntax-ns#">
   <cc:Work>
    <dc:type rdf:resource="http://purl.org/dc/dcmitype/StillImage"/>
    <dc:date>2022-09-21T15:21:21.397066</dc:date>
    <dc:format>image/svg+xml</dc:format>
    <dc:creator>
     <cc:Agent>
      <dc:title>Matplotlib v3.5.2, https://matplotlib.org/</dc:title>
     </cc:Agent>
    </dc:creator>
   </cc:Work>
  </rdf:RDF>
 </metadata>
 <defs>
  <style type="text/css">*{stroke-linejoin: round; stroke-linecap: butt}</style>
 </defs>
 <g id="figure_1">
  <g id="patch_1">
   <path d="M 0 144 
L 576 144 
L 576 0 
L 0 0 
z
" style="fill: #ffffff"/>
  </g>
  <g id="axes_1">
   <g id="patch_2">
    <path d="M 0 140.121935 
L 576 140.121935 
L 576 1.718066 
L 0 1.718066 
z
" style="fill: #ffffff"/>
   </g>
   <g id="matplotlib.axis_1">
    <g id="xtick_1">
     <g id="line2d_1">
      <defs>
       <path id="m77efda1f3a" d="M 0 0 
L 0 3.5 
" style="stroke: #000000; stroke-width: 0.8"/>
      </defs>
      <g>
       <use xlink:href="#m77efda1f3a" x="11.076923" y="70.92" style="stroke: #000000; stroke-width: 0.8"/>
      </g>
     </g>
     <g id="text_1">
      <!-- −3 -->
      <g transform="translate(3.705829 85.518437)scale(0.1 -0.1)">
       <defs>
        <path id="DejaVuSans-2212" d="M 678 2272 
L 4684 2272 
L 4684 1741 
L 678 1741 
L 678 2272 
z
" transform="scale(0.015625)"/>
        <path id="DejaVuSans-33" d="M 2597 2516 
Q 3050 2419 3304 2112 
Q 3559 1806 3559 1356 
Q 3559 666 3084 287 
Q 2609 -91 1734 -91 
Q 1441 -91 1130 -33 
Q 819 25 488 141 
L 488 750 
Q 750 597 1062 519 
Q 1375 441 1716 441 
Q 2309 441 2620 675 
Q 2931 909 2931 1356 
Q 2931 1769 2642 2001 
Q 2353 2234 1838 2234 
L 1294 2234 
L 1294 2753 
L 1863 2753 
Q 2328 2753 2575 2939 
Q 2822 3125 2822 3475 
Q 2822 3834 2567 4026 
Q 2313 4219 1838 4219 
Q 1578 4219 1281 4162 
Q 984 4106 628 3988 
L 628 4550 
Q 988 4650 1302 4700 
Q 1616 4750 1894 4750 
Q 2613 4750 3031 4423 
Q 3450 4097 3450 3541 
Q 3450 3153 3228 2886 
Q 3006 2619 2597 2516 
z
" transform="scale(0.015625)"/>
       </defs>
       <use xlink:href="#DejaVuSans-2212"/>
       <use xlink:href="#DejaVuSans-33" x="83.789062"/>
      </g>
     </g>
    </g>
    <g id="xtick_2">
     <g id="line2d_2">
      <g>
       <use xlink:href="#m77efda1f3a" x="103.384615" y="70.92" style="stroke: #000000; stroke-width: 0.8"/>
      </g>
     </g>
     <g id="text_2">
      <!-- −2 -->
      <g transform="translate(96.013522 85.518437)scale(0.1 -0.1)">
       <defs>
        <path id="DejaVuSans-32" d="M 1228 531 
L 3431 531 
L 3431 0 
L 469 0 
L 469 531 
Q 828 903 1448 1529 
Q 2069 2156 2228 2338 
Q 2531 2678 2651 2914 
Q 2772 3150 2772 3378 
Q 2772 3750 2511 3984 
Q 2250 4219 1831 4219 
Q 1534 4219 1204 4116 
Q 875 4013 500 3803 
L 500 4441 
Q 881 4594 1212 4672 
Q 1544 4750 1819 4750 
Q 2544 4750 2975 4387 
Q 3406 4025 3406 3419 
Q 3406 3131 3298 2873 
Q 3191 2616 2906 2266 
Q 2828 2175 2409 1742 
Q 1991 1309 1228 531 
z
" transform="scale(0.015625)"/>
       </defs>
       <use xlink:href="#DejaVuSans-2212"/>
       <use xlink:href="#DejaVuSans-32" x="83.789062"/>
      </g>
     </g>
    </g>
    <g id="xtick_3">
     <g id="line2d_3">
      <g>
       <use xlink:href="#m77efda1f3a" x="195.692308" y="70.92" style="stroke: #000000; stroke-width: 0.8"/>
      </g>
     </g>
     <g id="text_3">
      <!-- −1 -->
      <g transform="translate(188.321214 85.518437)scale(0.1 -0.1)">
       <defs>
        <path id="DejaVuSans-31" d="M 794 531 
L 1825 531 
L 1825 4091 
L 703 3866 
L 703 4441 
L 1819 4666 
L 2450 4666 
L 2450 531 
L 3481 531 
L 3481 0 
L 794 0 
L 794 531 
z
" transform="scale(0.015625)"/>
       </defs>
       <use xlink:href="#DejaVuSans-2212"/>
       <use xlink:href="#DejaVuSans-31" x="83.789062"/>
      </g>
     </g>
    </g>
    <g id="xtick_4">
     <g id="line2d_4">
      <g>
       <use xlink:href="#m77efda1f3a" x="288" y="70.92" style="stroke: #000000; stroke-width: 0.8"/>
      </g>
     </g>
    </g>
    <g id="xtick_5">
     <g id="line2d_5">
      <g>
       <use xlink:href="#m77efda1f3a" x="380.307692" y="70.92" style="stroke: #000000; stroke-width: 0.8"/>
      </g>
     </g>
     <g id="text_4">
      <!-- 1 -->
      <g transform="translate(377.126442 85.518437)scale(0.1 -0.1)">
       <use xlink:href="#DejaVuSans-31"/>
      </g>
     </g>
    </g>
    <g id="xtick_6">
     <g id="line2d_6">
      <g>
       <use xlink:href="#m77efda1f3a" x="472.615385" y="70.92" style="stroke: #000000; stroke-width: 0.8"/>
      </g>
     </g>
     <g id="text_5">
      <!-- 2 -->
      <g transform="translate(469.434135 85.518437)scale(0.1 -0.1)">
       <use xlink:href="#DejaVuSans-32"/>
      </g>
     </g>
    </g>
    <g id="xtick_7">
     <g id="line2d_7">
      <g>
       <use xlink:href="#m77efda1f3a" x="564.923077" y="70.92" style="stroke: #000000; stroke-width: 0.8"/>
      </g>
     </g>
     <g id="text_6">
      <!-- 3 -->
      <g transform="translate(561.741827 85.518437)scale(0.1 -0.1)">
       <use xlink:href="#DejaVuSans-33"/>
      </g>
     </g>
    </g>
    <g id="xtick_8">
     <g id="line2d_8">
      <defs>
       <path id="md8fc68326f" d="M 0 0 
L 0 2 
" style="stroke: #000000; stroke-width: 0.6"/>
      </defs>
      <g>
       <use xlink:href="#md8fc68326f" x="29.538462" y="70.92" style="stroke: #000000; stroke-width: 0.6"/>
      </g>
     </g>
    </g>
    <g id="xtick_9">
     <g id="line2d_9">
      <g>
       <use xlink:href="#md8fc68326f" x="48" y="70.92" style="stroke: #000000; stroke-width: 0.6"/>
      </g>
     </g>
    </g>
    <g id="xtick_10">
     <g id="line2d_10">
      <g>
       <use xlink:href="#md8fc68326f" x="66.461538" y="70.92" style="stroke: #000000; stroke-width: 0.6"/>
      </g>
     </g>
    </g>
    <g id="xtick_11">
     <g id="line2d_11">
      <g>
       <use xlink:href="#md8fc68326f" x="84.923077" y="70.92" style="stroke: #000000; stroke-width: 0.6"/>
      </g>
     </g>
    </g>
    <g id="xtick_12">
     <g id="line2d_12">
      <g>
       <use xlink:href="#md8fc68326f" x="121.846154" y="70.92" style="stroke: #000000; stroke-width: 0.6"/>
      </g>
     </g>
    </g>
    <g id="xtick_13">
     <g id="line2d_13">
      <g>
       <use xlink:href="#md8fc68326f" x="140.307692" y="70.92" style="stroke: #000000; stroke-width: 0.6"/>
      </g>
     </g>
    </g>
    <g id="xtick_14">
     <g id="line2d_14">
      <g>
       <use xlink:href="#md8fc68326f" x="158.769231" y="70.92" style="stroke: #000000; stroke-width: 0.6"/>
      </g>
     </g>
    </g>
    <g id="xtick_15">
     <g id="line2d_15">
      <g>
       <use xlink:href="#md8fc68326f" x="177.230769" y="70.92" style="stroke: #000000; stroke-width: 0.6"/>
      </g>
     </g>
    </g>
    <g id="xtick_16">
     <g id="line2d_16">
      <g>
       <use xlink:href="#md8fc68326f" x="214.153846" y="70.92" style="stroke: #000000; stroke-width: 0.6"/>
      </g>
     </g>
    </g>
    <g id="xtick_17">
     <g id="line2d_17">
      <g>
       <use xlink:href="#md8fc68326f" x="232.615385" y="70.92" style="stroke: #000000; stroke-width: 0.6"/>
      </g>
     </g>
    </g>
    <g id="xtick_18">
     <g id="line2d_18">
      <g>
       <use xlink:href="#md8fc68326f" x="251.076923" y="70.92" style="stroke: #000000; stroke-width: 0.6"/>
      </g>
     </g>
    </g>
    <g id="xtick_19">
     <g id="line2d_19">
      <g>
       <use xlink:href="#md8fc68326f" x="269.538462" y="70.92" style="stroke: #000000; stroke-width: 0.6"/>
      </g>
     </g>
    </g>
    <g id="xtick_20">
     <g id="line2d_20">
      <g>
       <use xlink:href="#md8fc68326f" x="306.461538" y="70.92" style="stroke: #000000; stroke-width: 0.6"/>
      </g>
     </g>
    </g>
    <g id="xtick_21">
     <g id="line2d_21">
      <g>
       <use xlink:href="#md8fc68326f" x="324.923077" y="70.92" style="stroke: #000000; stroke-width: 0.6"/>
      </g>
     </g>
    </g>
    <g id="xtick_22">
     <g id="line2d_22">
      <g>
       <use xlink:href="#md8fc68326f" x="343.384615" y="70.92" style="stroke: #000000; stroke-width: 0.6"/>
      </g>
     </g>
    </g>
    <g id="xtick_23">
     <g id="line2d_23">
      <g>
       <use xlink:href="#md8fc68326f" x="361.846154" y="70.92" style="stroke: #000000; stroke-width: 0.6"/>
      </g>
     </g>
    </g>
    <g id="xtick_24">
     <g id="line2d_24">
      <g>
       <use xlink:href="#md8fc68326f" x="398.769231" y="70.92" style="stroke: #000000; stroke-width: 0.6"/>
      </g>
     </g>
    </g>
    <g id="xtick_25">
     <g id="line2d_25">
      <g>
       <use xlink:href="#md8fc68326f" x="417.230769" y="70.92" style="stroke: #000000; stroke-width: 0.6"/>
      </g>
     </g>
    </g>
    <g id="xtick_26">
     <g id="line2d_26">
      <g>
       <use xlink:href="#md8fc68326f" x="435.692308" y="70.92" style="stroke: #000000; stroke-width: 0.6"/>
      </g>
     </g>
    </g>
    <g id="xtick_27">
     <g id="line2d_27">
      <g>
       <use xlink:href="#md8fc68326f" x="454.153846" y="70.92" style="stroke: #000000; stroke-width: 0.6"/>
      </g>
     </g>
    </g>
    <g id="xtick_28">
     <g id="line2d_28">
      <g>
       <use xlink:href="#md8fc68326f" x="491.076923" y="70.92" style="stroke: #000000; stroke-width: 0.6"/>
      </g>
     </g>
    </g>
    <g id="xtick_29">
     <g id="line2d_29">
      <g>
       <use xlink:href="#md8fc68326f" x="509.538462" y="70.92" style="stroke: #000000; stroke-width: 0.6"/>
      </g>
     </g>
    </g>
    <g id="xtick_30">
     <g id="line2d_30">
      <g>
       <use xlink:href="#md8fc68326f" x="528" y="70.92" style="stroke: #000000; stroke-width: 0.6"/>
      </g>
     </g>
    </g>
    <g id="xtick_31">
     <g id="line2d_31">
      <g>
       <use xlink:href="#md8fc68326f" x="546.461538" y="70.92" style="stroke: #000000; stroke-width: 0.6"/>
      </g>
     </g>
    </g>
   </g>
   <g id="matplotlib.axis_2">
    <g id="ytick_1">
     <g id="line2d_32">
      <defs>
       <path id="m6b459a3898" d="M 0 0 
L -3.5 0 
" style="stroke: #000000; stroke-width: 0.8"/>
      </defs>
      <g>
       <use xlink:href="#m6b459a3898" x="288" y="137.46041" style="stroke: #000000; stroke-width: 0.8"/>
      </g>
     </g>
     <g id="text_7">
      <!-- −1.0 -->
      <g transform="translate(256.717187 141.259629)scale(0.1 -0.1)">
       <defs>
        <path id="DejaVuSans-2e" d="M 684 794 
L 1344 794 
L 1344 0 
L 684 0 
L 684 794 
z
" transform="scale(0.015625)"/>
        <path id="DejaVuSans-30" d="M 2034 4250 
Q 1547 4250 1301 3770 
Q 1056 3291 1056 2328 
Q 1056 1369 1301 889 
Q 1547 409 2034 409 
Q 2525 409 2770 889 
Q 3016 1369 3016 2328 
Q 3016 3291 2770 3770 
Q 2525 4250 2034 4250 
z
M 2034 4750 
Q 2819 4750 3233 4129 
Q 3647 3509 3647 2328 
Q 3647 1150 3233 529 
Q 2819 -91 2034 -91 
Q 1250 -91 836 529 
Q 422 1150 422 2328 
Q 422 3509 836 4129 
Q 1250 4750 2034 4750 
z
" transform="scale(0.015625)"/>
       </defs>
       <use xlink:href="#DejaVuSans-2212"/>
       <use xlink:href="#DejaVuSans-31" x="83.789062"/>
       <use xlink:href="#DejaVuSans-2e" x="147.412109"/>
       <use xlink:href="#DejaVuSans-30" x="179.199219"/>
      </g>
     </g>
    </g>
    <g id="ytick_2">
     <g id="line2d_33">
      <g>
       <use xlink:href="#m6b459a3898" x="288" y="104.190205" style="stroke: #000000; stroke-width: 0.8"/>
      </g>
     </g>
     <g id="text_8">
      <!-- −0.5 -->
      <g transform="translate(256.717187 107.989424)scale(0.1 -0.1)">
       <defs>
        <path id="DejaVuSans-35" d="M 691 4666 
L 3169 4666 
L 3169 4134 
L 1269 4134 
L 1269 2991 
Q 1406 3038 1543 3061 
Q 1681 3084 1819 3084 
Q 2600 3084 3056 2656 
Q 3513 2228 3513 1497 
Q 3513 744 3044 326 
Q 2575 -91 1722 -91 
Q 1428 -91 1123 -41 
Q 819 9 494 109 
L 494 744 
Q 775 591 1075 516 
Q 1375 441 1709 441 
Q 2250 441 2565 725 
Q 2881 1009 2881 1497 
Q 2881 1984 2565 2268 
Q 2250 2553 1709 2553 
Q 1456 2553 1204 2497 
Q 953 2441 691 2322 
L 691 4666 
z
" transform="scale(0.015625)"/>
       </defs>
       <use xlink:href="#DejaVuSans-2212"/>
       <use xlink:href="#DejaVuSans-30" x="83.789062"/>
       <use xlink:href="#DejaVuSans-2e" x="147.412109"/>
       <use xlink:href="#DejaVuSans-35" x="179.199219"/>
      </g>
     </g>
    </g>
    <g id="ytick_3">
     <g id="line2d_34">
      <g>
       <use xlink:href="#m6b459a3898" x="288" y="70.92" style="stroke: #000000; stroke-width: 0.8"/>
      </g>
     </g>
    </g>
    <g id="ytick_4">
     <g id="line2d_35">
      <g>
       <use xlink:href="#m6b459a3898" x="288" y="37.649795" style="stroke: #000000; stroke-width: 0.8"/>
      </g>
     </g>
     <g id="text_9">
      <!-- 0.5 -->
      <g transform="translate(265.096875 41.449014)scale(0.1 -0.1)">
       <use xlink:href="#DejaVuSans-30"/>
       <use xlink:href="#DejaVuSans-2e" x="63.623047"/>
       <use xlink:href="#DejaVuSans-35" x="95.410156"/>
      </g>
     </g>
    </g>
    <g id="ytick_5">
     <g id="line2d_36">
      <g>
       <use xlink:href="#m6b459a3898" x="288" y="4.37959" style="stroke: #000000; stroke-width: 0.8"/>
      </g>
     </g>
     <g id="text_10">
      <!-- 1.0 -->
      <g transform="translate(265.096875 8.178808)scale(0.1 -0.1)">
       <use xlink:href="#DejaVuSans-31"/>
       <use xlink:href="#DejaVuSans-2e" x="63.623047"/>
       <use xlink:href="#DejaVuSans-30" x="95.410156"/>
      </g>
     </g>
    </g>
    <g id="ytick_6">
     <g id="line2d_37">
      <defs>
       <path id="m8b520f2200" d="M 0 0 
L -2 0 
" style="stroke: #000000; stroke-width: 0.6"/>
      </defs>
      <g>
       <use xlink:href="#m8b520f2200" x="288" y="130.806369" style="stroke: #000000; stroke-width: 0.6"/>
      </g>
     </g>
    </g>
    <g id="ytick_7">
     <g id="line2d_38">
      <g>
       <use xlink:href="#m8b520f2200" x="288" y="124.152328" style="stroke: #000000; stroke-width: 0.6"/>
      </g>
     </g>
    </g>
    <g id="ytick_8">
     <g id="line2d_39">
      <g>
       <use xlink:href="#m8b520f2200" x="288" y="117.498287" style="stroke: #000000; stroke-width: 0.6"/>
      </g>
     </g>
    </g>
    <g id="ytick_9">
     <g id="line2d_40">
      <g>
       <use xlink:href="#m8b520f2200" x="288" y="110.844246" style="stroke: #000000; stroke-width: 0.6"/>
      </g>
     </g>
    </g>
    <g id="ytick_10">
     <g id="line2d_41">
      <g>
       <use xlink:href="#m8b520f2200" x="288" y="97.536164" style="stroke: #000000; stroke-width: 0.6"/>
      </g>
     </g>
    </g>
    <g id="ytick_11">
     <g id="line2d_42">
      <g>
       <use xlink:href="#m8b520f2200" x="288" y="90.882123" style="stroke: #000000; stroke-width: 0.6"/>
      </g>
     </g>
    </g>
    <g id="ytick_12">
     <g id="line2d_43">
      <g>
       <use xlink:href="#m8b520f2200" x="288" y="84.228082" style="stroke: #000000; stroke-width: 0.6"/>
      </g>
     </g>
    </g>
    <g id="ytick_13">
     <g id="line2d_44">
      <g>
       <use xlink:href="#m8b520f2200" x="288" y="77.574041" style="stroke: #000000; stroke-width: 0.6"/>
      </g>
     </g>
    </g>
    <g id="ytick_14">
     <g id="line2d_45">
      <g>
       <use xlink:href="#m8b520f2200" x="288" y="64.265959" style="stroke: #000000; stroke-width: 0.6"/>
      </g>
     </g>
    </g>
    <g id="ytick_15">
     <g id="line2d_46">
      <g>
       <use xlink:href="#m8b520f2200" x="288" y="57.611918" style="stroke: #000000; stroke-width: 0.6"/>
      </g>
     </g>
    </g>
    <g id="ytick_16">
     <g id="line2d_47">
      <g>
       <use xlink:href="#m8b520f2200" x="288" y="50.957877" style="stroke: #000000; stroke-width: 0.6"/>
      </g>
     </g>
    </g>
    <g id="ytick_17">
     <g id="line2d_48">
      <g>
       <use xlink:href="#m8b520f2200" x="288" y="44.303836" style="stroke: #000000; stroke-width: 0.6"/>
      </g>
     </g>
    </g>
    <g id="ytick_18">
     <g id="line2d_49">
      <g>
       <use xlink:href="#m8b520f2200" x="288" y="30.995754" style="stroke: #000000; stroke-width: 0.6"/>
      </g>
     </g>
    </g>
    <g id="ytick_19">
     <g id="line2d_50">
      <g>
       <use xlink:href="#m8b520f2200" x="288" y="24.341713" style="stroke: #000000; stroke-width: 0.6"/>
      </g>
     </g>
    </g>
    <g id="ytick_20">
     <g id="line2d_51">
      <g>
       <use xlink:href="#m8b520f2200" x="288" y="17.687672" style="stroke: #000000; stroke-width: 0.6"/>
      </g>
     </g>
    </g>
    <g id="ytick_21">
     <g id="line2d_52">
      <g>
       <use xlink:href="#m8b520f2200" x="288" y="11.033631" style="stroke: #000000; stroke-width: 0.6"/>
      </g>
     </g>
    </g>
   </g>
   <g id="line2d_53">
    <path d="M 11.076923 43.497467 
L 13.580522 34.077944 
L 15.94791 26.121072 
L 17.723451 20.858518 
L 19.401328 16.497362 
L 21.211542 12.503693 
L 22.462463 10.194524 
L 23.732602 8.237611 
L 24.694139 7.020144 
L 25.744831 5.952375 
L 26.795524 5.160003 
L 27.846216 4.643052 
L 28.807746 4.410357 
L 29.680114 4.396541 
L 30.596553 4.582116 
L 31.557063 4.993694 
L 32.517573 5.623631 
L 33.478083 6.467373 
L 34.597417 7.713419 
L 35.875574 9.470706 
L 37.611001 12.400305 
L 38.536758 14.205738 
L 40.388273 18.287895 
L 42.527764 23.718492 
L 44.934376 30.618107 
L 47.320132 38.136791 
L 51.122245 51.124274 
L 63.677523 95.447065 
L 66.358242 103.856219 
L 68.705023 110.617898 
L 70.848946 116.23129 
L 72.559752 120.287596 
L 74.552083 124.506185 
L 76.899898 128.744099 
L 78.691372 131.424759 
L 79.988652 133.060903 
L 81.388895 134.536671 
L 82.693613 135.639775 
L 83.902804 136.428219 
L 85.111995 136.992901 
L 86.321186 137.335849 
L 86.925782 137.425013 
L 88.562993 137.39502 
L 89.809534 137.111118 
L 91.056074 136.607175 
L 92.302615 135.889042 
L 93.577694 134.939616 
L 94.881312 133.752112 
L 96.264887 132.261584 
L 98.048524 130.007954 
L 100.152265 126.90111 
L 102.444835 123.011228 
L 105.250204 117.620549 
L 107.676117 112.480335 
L 111.238476 104.288915 
L 114.854482 95.404545 
L 131.411739 53.562335 
L 135.440268 44.391809 
L 138.08281 38.792355 
L 141.928059 31.318211 
L 144.604889 26.625862 
L 147.114864 22.627728 
L 150.243687 18.204718 
L 153.422118 14.358686 
L 155.981028 11.736713 
L 157.890785 10.053042 
L 159.898541 8.530876 
L 162.313631 7.02949 
L 164.646292 5.911398 
L 166.464691 5.258622 
L 167.312643 5.017868 
L 169.990349 4.514151 
L 171.953956 4.3827 
L 172.935759 4.389161 
L 175.762878 4.663307 
L 177.764815 5.074491 
L 180.141935 5.779553 
L 183.162298 6.987312 
L 186.166957 8.500108 
L 188.886213 10.105693 
L 193.182211 13.032384 
L 196.331899 15.429988 
L 201.146005 19.409593 
L 204.838528 22.65002 
L 226.925096 42.711905 
L 232.990017 47.78207 
L 238.069303 51.727543 
L 243.166571 55.368292 
L 247.039603 57.902486 
L 251.265705 60.426118 
L 255.260576 62.571552 
L 259.164832 64.437162 
L 263.289313 66.155607 
L 267.602288 67.67212 
L 272.531132 69.051601 
L 276.787628 69.938277 
L 280.37342 70.46578 
L 282.902557 70.717085 
L 288.193233 70.919708 
L 292.991263 70.72545 
L 296.413269 70.367243 
L 301.320108 69.534541 
L 305.736123 68.464 
L 309.554207 67.293743 
L 314.136763 65.590973 
L 318.61478 63.61541 
L 323.354801 61.193699 
L 328.026686 58.482106 
L 332.840231 55.36366 
L 338.279239 51.46654 
L 344.548938 46.529793 
L 350.029266 41.883654 
L 358.505995 34.264497 
L 371.789211 22.090363 
L 376.92378 17.658519 
L 380.557723 14.733973 
L 383.927317 12.235331 
L 387.578447 9.816666 
L 390.783287 7.990383 
L 393.725275 6.598145 
L 396.957002 5.425399 
L 399.903779 4.719678 
L 401.827293 4.463378 
L 403.750807 4.379679 
L 405.316859 4.445384 
L 408.089503 4.87195 
L 410.555495 5.601663 
L 412.820135 6.576798 
L 414.830614 7.696533 
L 416.1727 8.58059 
L 418.840904 10.670733 
L 420.749964 12.442743 
L 422.659024 14.448735 
L 425.175765 17.453401 
L 427.306924 20.318136 
L 429.840867 24.103436 
L 433.00211 29.390864 
L 436.216543 35.383912 
L 439.031568 41.110136 
L 442.682563 49.136022 
L 446.130251 57.247066 
L 451.29363 70.109493 
L 463.92647 102.279555 
L 466.970249 109.448155 
L 470.599602 117.314332 
L 473.086168 122.155812 
L 475.372663 126.136438 
L 477.055047 128.741252 
L 478.895483 131.246032 
L 481.101155 133.734686 
L 482.38661 134.909981 
L 483.958291 136.056763 
L 485.529972 136.871148 
L 486.938607 137.308257 
L 488.347241 137.460322 
L 489.240341 137.405945 
L 490.690691 137.063937 
L 491.805194 136.585011 
L 492.973102 135.879515 
L 494.194414 134.917492 
L 495.656588 133.463357 
L 497.359624 131.355184 
L 498.973526 128.949393 
L 500.498296 126.317755 
L 502.257025 122.860297 
L 504.265358 118.379911 
L 506.289339 113.321652 
L 508.407892 107.487248 
L 510.667503 100.718117 
L 513.230802 92.455741 
L 517.030588 79.348398 
L 528.28252 39.443647 
L 530.901219 31.116334 
L 533.163514 24.559639 
L 535.475428 18.611964 
L 537.320466 14.498575 
L 538.723035 11.789453 
L 540.163186 9.41231 
L 541.756146 7.289768 
L 542.851677 6.153911 
L 543.980767 5.269811 
L 544.960742 4.744424 
L 545.791603 4.478646 
L 546.622464 4.380181 
L 547.453324 4.450905 
L 548.522626 4.793201 
L 549.830367 5.598822 
L 550.975049 6.654301 
L 551.95667 7.819161 
L 553.429102 10.012094 
L 555.037599 13.008108 
L 556.291348 15.766228 
L 557.875192 19.759549 
L 559.789129 25.301654 
L 561.839452 32.036098 
L 563.927942 39.642794 
L 564.923077 43.497467 
L 564.923077 43.497467 
" clip-path="url(#p332a0f8ce2)" style="fill: none; stroke: #0000ff; stroke-linecap: square"/>
   </g>
   <g id="patch_3">
    <path d="M 288 140.121935 
L 288 1.718066 
" style="fill: none; stroke: #000000; stroke-width: 0.8; stroke-linejoin: miter; stroke-linecap: square"/>
   </g>
   <g id="patch_4">
    <path d="M 0 70.92 
L 576 70.92 
" style="fill: none; stroke: #000000; stroke-width: 0.8; stroke-linejoin: miter; stroke-linecap: square"/>
   </g>
  </g>
 </g>
 <defs>
  <clipPath id="p332a0f8ce2">
   <rect x="0" y="1.718066" width="576" height="138.403869"/>
  </clipPath>
 </defs>
</svg>
