<?xml version="1.0" encoding="utf-8" standalone="no"?>
<!DOCTYPE svg PUBLIC "-//W3C//DTD SVG 1.1//EN"
  "http://www.w3.org/Graphics/SVG/1.1/DTD/svg11.dtd">
<svg xmlns:xlink="http://www.w3.org/1999/xlink" width="460.8pt" height="345.6pt" viewBox="0 0 460.8 345.6" xmlns="http://www.w3.org/2000/svg" version="1.1">
 <metadata>
  <rdf:RDF xmlns:dc="http://purl.org/dc/elements/1.1/" xmlns:cc="http://creativecommons.org/ns#" xmlns:rdf="http://www.w3.org/1999/02/22-rdf-syntax-ns#">
   <cc:Work>
    <dc:type rdf:resource="http://purl.org/dc/dcmitype/StillImage"/>
    <dc:date>2023-08-21T20:31:25.591290</dc:date>
    <dc:format>image/svg+xml</dc:format>
    <dc:creator>
     <cc:Agent>
      <dc:title>Matplotlib v3.6.2, https://matplotlib.org/</dc:title>
     </cc:Agent>
    </dc:creator>
   </cc:Work>
  </rdf:RDF>
 </metadata>
 <defs>
  <style type="text/css">*{stroke-linejoin: round; stroke-linecap: butt}</style>
 </defs>
 <g id="figure_1">
  <g id="patch_1">
   <path d="M 0 345.6 
L 460.8 345.6 
L 460.8 0 
L 0 0 
z
" style="fill: #ffffff"/>
  </g>
  <g id="axes_1">
   <g id="patch_2">
    <path d="M 0 345.6 
L 460.8 345.6 
L 460.8 0 
L 0 0 
z
" style="fill: #ffffff"/>
   </g>
   <g id="patch_3">
    <path d="M 451.938462 39.876923 
L 448.756964 41.547209 
L 447.45788 42.229228 
L 444.803778 43.622632 
L 443.829372 44.134195 
L 440.49199 45.886321 
L 438.092086 47.14627 
L 436.423775 48.022133 
L 434.678168 48.938577 
L 431.676999 50.514191 
L 429.143693 51.844176 
L 426.807322 53.070771 
L 424.308391 54.38271 
L 421.996785 55.596303 
L 420.247834 56.514502 
L 417.617488 57.895434 
L 415.80436 58.847326 
L 414.854809 59.345841 
L 411.824411 60.936799 
L 408.794381 62.527566 
L 408.12576 62.878591 
L 404.382523 64.843791 
L 402.390201 65.88976 
L 399.87478 67.210356 
L 398.558689 67.901304 
L 395.999188 69.245041 
L 393.364634 70.628183 
L 391.480647 71.617276 
L 389.889992 72.45237 
L 387.136928 73.897728 
L 385.54089 74.735648 
L 383.992263 75.548677 
L 380.415251 77.426609 
L 379.572372 77.86912 
L 377.125587 79.153682 
L 373.298122 81.163101 
L 372.363096 81.65399 
L 369.141694 83.345226 
L 367.531441 84.190609 
L 365.689396 85.157683 
L 361.902222 87.145949 
L 359.663595 88.321228 
L 358.424364 88.971824 
L 355.095585 90.719433 
L 354.483015 91.041033 
L 350.790261 92.979728 
L 350.177262 93.301553 
L 347.314107 94.804709 
L 345.96302 95.51403 
L 343.81593 96.641252 
L 340.982048 98.12904 
L 338.688314 99.33325 
L 335.151318 101.190173 
L 334.219883 101.679177 
L 331.142657 103.294721 
L 329.393841 104.212849 
L 326.410214 105.779253 
L 324.69218 106.681221 
L 321.835891 108.180773 
L 320.300565 108.986819 
L 317.777156 110.311608 
L 315.835916 111.33076 
L 314.851779 111.847431 
L 310.63261 114.062495 
L 309.609241 114.599764 
L 306.569893 116.195422 
L 304.746054 117.152937 
L 303.843903 117.626566 
L 301.07677 119.079311 
L 299.249423 120.038668 
L 296.866746 121.289574 
L 293.021373 123.308394 
L 291.360111 124.180557 
L 290.157038 124.812171 
L 286.671788 126.641927 
L 284.902101 127.571012 
L 281.67998 129.262626 
L 280.402789 129.933151 
L 278.561787 130.899677 
L 276.09196 132.196336 
L 272.934942 133.853771 
L 270.720913 135.016136 
L 269.854439 135.471035 
L 267.522068 136.69553 
L 265.153369 137.939097 
L 263.175606 138.977422 
L 260.576946 140.341719 
L 259.293573 141.015489 
L 255.626646 142.940626 
L 254.175099 143.702689 
L 251.825129 144.936423 
L 249.772808 146.013891 
L 246.032939 147.977323 
L 244.135348 148.973558 
L 243.344376 149.388818 
L 241.481888 150.366624 
L 237.808542 152.295131 
L 235.613972 153.44728 
L 233.492834 154.560878 
L 231.419312 155.649477 
L 228.946328 156.947793 
L 227.094993 157.919744 
L 225.167339 158.931763 
L 223.690213 159.707254 
L 221.077718 161.078814 
L 218.132474 162.625067 
L 214.871869 164.336884 
L 214.624456 164.466776 
L 210.702895 166.525596 
L 209.811273 166.993697 
L 206.155199 168.913136 
L 205.105013 169.464484 
L 202.67713 170.739122 
L 199.923413 172.184823 
L 199.135885 172.598276 
L 196.074243 174.205638 
L 192.944293 175.848862 
L 191.360757 176.680218 
L 188.454492 178.206007 
L 186.747358 179.102252 
L 184.745017 180.153481 
L 182.712084 181.220771 
L 179.213699 183.057423 
L 177.437619 183.989865 
L 176.821231 184.313469 
L 174.406978 185.580952 
L 171.049447 187.343656 
L 168.305741 188.784101 
L 166.199096 189.89009 
L 165.517308 190.248029 
L 161.640639 192.28328 
L 159.52162 193.395765 
L 158.16198 194.109576 
L 156.919203 194.762034 
L 153.62307 196.492503 
L 151.118338 197.807488 
L 149.368006 198.726412 
L 146.177814 200.401263 
L 145.48168 200.766733 
L 143.5052 201.804385 
L 140.493662 203.385443 
L 138.378118 204.496103 
L 136.32246 205.575324 
L 133.625164 206.991404 
L 130.835242 208.456113 
L 128.358061 209.756633 
L 126.007827 210.990506 
L 124.748028 211.651901 
L 121.473849 213.370845 
L 120.360249 213.955484 
L 118.039925 215.173655 
L 116.202699 216.138198 
L 113.55496 217.528262 
L 110.954787 218.893352 
L 108.466827 220.199531 
L 107.372984 220.773799 
L 105.39476 221.812366 
L 102.518569 223.322366 
L 100.050431 224.618139 
L 97.238358 226.094477 
L 96.457948 226.504192 
L 94.497487 227.533435 
L 90.228287 229.774765 
L 88.843691 230.501678 
L 86.106593 231.938654 
L 84.225937 232.925998 
L 82.933383 233.604589 
L 80.178006 235.051162 
L 78.221531 236.078312 
L 75.139069 237.696604 
L 72.722535 238.965285 
L 71.36308 239.678998 
L 69.235705 240.79587 
L 66.630905 242.16339 
L 65.457357 242.779503 
L 61.631932 244.787851 
L 59.550779 245.880457 
L 57.136486 247.14796 
L 54.831495 248.35808 
L 52.368155 249.651334 
L 51.475843 250.119798 
L 48.149687 251.86603 
L 47.413986 252.252273 
L 43.832639 254.13248 
L 41.625668 255.29114 
L 40.272296 256.00166 
L 38.373133 256.998721 
L 36.113806 258.184867 
L 33.559976 259.525628 
L 30.296344 261.239035 
L 28.283214 262.295928 
L 27.536785 262.687803 
L 24.873031 264.086274 
L 22.982355 265.078879 
L 21.065767 266.085087 
L 18.638455 267.359426 
L 15.802488 268.848309 
L 13.168601 270.2311 
L 11.490649 271.112025 
L 8.861538 272.492308 
L 8.861538 280.646154 
L 10.999765 279.594085 
L 12.476667 278.868151 
L 14.994078 277.632223 
L 17.184478 276.558362 
L 19.258091 275.543099 
L 21.892225 274.255343 
L 24.99445 272.741642 
L 26.192821 272.157774 
L 27.899919 271.326901 
L 31.915277 269.376663 
L 33.14736 268.77944 
L 36.603516 267.107276 
L 38.901745 265.997983 
L 40.09905 265.420942 
L 42.586061 264.224281 
L 44.535743 263.288063 
L 45.741836 262.709771 
L 48.420287 261.427947 
L 50.397229 260.484061 
L 52.79242 259.343106 
L 55.554251 258.031213 
L 57.007811 257.342417 
L 60.694611 255.600727 
L 63.180285 254.431009 
L 64.176177 253.963429 
L 66.61393 252.821565 
L 69.590045 251.432899 
L 72.282093 250.182133 
L 74.232652 249.279209 
L 74.585682 249.116099 
L 77.267625 247.880166 
L 79.268245 246.962023 
L 82.531826 245.471651 
L 83.467222 245.046248 
L 87.834065 243.071325 
L 89.528939 242.309971 
L 91.242287 241.543426 
L 92.594941 240.940542 
L 96.777731 239.089782 
L 98.77791 238.212438 
L 100.64967 237.396227 
L 102.592595 236.554142 
L 104.206482 235.858855 
L 106.772733 234.761535 
L 109.92418 233.428818 
L 111.795932 232.645577 
L 113.250153 232.041597 
L 114.664874 231.458019 
L 118.771747 229.787879 
L 119.581311 229.463145 
L 122.188309 228.428312 
L 125.641604 227.085183 
L 127.275702 226.461607 
L 128.142009 226.134373 
L 130.353497 225.310177 
L 133.650022 224.113894 
L 136.622843 223.072159 
L 136.959021 222.956777 
L 139.130838 222.224179 
L 141.02797 221.603619 
L 142.925101 221.002847 
L 143.810166 220.729853 
L 145.957007 220.088531 
L 148.328222 219.417822 
L 150.089744 218.948124 
L 151.851266 218.505547 
L 153.680657 218.077739 
L 155.521592 217.683733 
L 157.2089 217.358591 
L 158.896208 217.072038 
L 159.840397 216.930268 
L 160.75437 216.806843 
L 161.668344 216.697955 
L 163.024408 216.565428 
L 164.380473 216.471038 
L 165.332979 216.429906 
L 166.285485 216.411525 
L 166.975111 216.413521 
L 167.664737 216.429292 
L 168.354362 216.459734 
L 169.043988 216.505829 
L 169.746314 216.569968 
L 170.44864 216.652696 
L 171.150965 216.755381 
L 171.853291 216.879532 
L 172.530987 217.021243 
L 173.208683 217.186156 
L 173.886379 217.376114 
L 174.564076 217.593162 
L 175.084536 217.779663 
L 175.604997 217.984622 
L 176.125457 218.209281 
L 176.645918 218.455002 
L 177.146215 218.712442 
L 177.632891 218.984246 
L 178.119567 219.278605 
L 178.606243 219.597124 
L 179.092918 219.941564 
L 179.579594 220.313869 
L 180.06627 220.716179 
L 180.552946 221.150868 
L 181.039622 221.620567 
L 181.406145 221.999178 
L 181.772669 222.400675 
L 182.139192 222.826557 
L 182.505715 223.278454 
L 182.872294 223.758224 
L 183.238873 224.267752 
L 183.605451 224.809178 
L 183.97203 225.384854 
L 184.338609 225.997371 
L 184.705187 226.649591 
L 185.071766 227.344681 
L 185.255055 227.709387 
L 185.438345 228.086158 
L 185.762712 228.784063 
L 186.087078 229.524352 
L 186.249262 229.911415 
L 186.411445 230.310347 
L 186.573629 230.72162 
L 186.735812 231.14573 
L 186.897995 231.583203 
L 187.060179 232.03459 
L 187.222362 232.500478 
L 187.384546 232.981484 
L 187.546729 233.478261 
L 187.708913 233.991502 
L 187.871096 234.52194 
L 188.033279 235.070352 
L 188.200991 235.65724 
L 188.368702 236.265202 
L 188.536414 236.895272 
L 188.704125 237.548555 
L 188.886465 238.286532 
L 189.068804 239.054965 
L 189.251143 239.855603 
L 189.433482 240.690332 
L 189.615821 241.561186 
L 189.79816 242.470369 
L 189.9805 243.420263 
L 190.162839 244.413458 
L 190.254008 244.927162 
L 190.345178 245.452764 
L 190.436348 245.990654 
L 190.527517 246.541242 
L 190.618687 247.104952 
L 190.709856 247.682231 
L 190.801026 248.273544 
L 190.892195 248.879379 
L 190.983365 249.500246 
L 191.074535 250.13668 
L 191.165704 250.789242 
L 191.256874 251.458519 
L 191.348043 252.145128 
L 191.439213 252.849717 
L 191.530383 253.572964 
L 191.621552 254.315586 
L 191.696404 254.940306 
L 191.771257 255.579027 
L 191.846109 256.232205 
L 191.920961 256.900314 
L 191.995814 257.58385 
L 192.070666 258.283331 
L 192.145518 258.999298 
L 192.220371 259.732318 
L 192.295223 260.482982 
L 192.370075 261.251912 
L 192.444928 262.039758 
L 192.51978 262.847199 
L 192.594632 263.674951 
L 192.669485 264.523761 
L 192.744337 265.394418 
L 192.819189 266.287748 
L 192.902064 267.304314 
L 192.984938 268.350982 
L 193.067812 269.429066 
L 193.150687 270.539962 
L 193.233561 271.685145 
L 193.316435 272.866184 
L 193.39931 274.084743 
L 193.482184 275.342591 
L 193.565058 276.641611 
L 193.647933 277.983807 
L 193.730807 279.371316 
L 193.813681 280.806419 
L 193.896556 282.291552 
L 193.97943 283.829319 
L 194.062304 285.422511 
L 194.145179 287.074117 
L 194.228053 288.787348 
L 194.310927 290.565651 
L 194.393802 292.412739 
L 194.476676 294.332609 
L 194.55955 296.329578 
L 194.642425 298.408309 
L 194.725299 300.573849 
L 194.808173 302.83167 
L 194.891048 305.187713 
L 194.973922 307.648441 
L 195.056796 310.220896 
L 195.139671 312.912768 
L 195.222545 315.732468 
L 195.305419 318.689216 
L 195.388294 321.793141 
L 195.471168 325.055395 
L 195.537704 327.797361 
L 195.604239 330.656263 
L 195.670775 333.639676 
L 195.737311 336.755845 
L 195.803846 340.013757 
L 195.870382 343.423231 
L 195.936918 346.995014 
L 196.003453 350.740895 
L 196.069989 354.673829 
L 196.136525 358.808094 
L 196.20306 363.159457 
L 196.269596 367.745376 
L 196.336132 372.585232 
L 196.402667 377.700602 
L 196.469203 383.11558 
L 196.535739 388.857151 
L 196.602274 394.955646 
L 196.66881 401.445267 
L 196.735346 408.364734 
L 196.801881 415.758051 
L 196.868417 423.675438 
L 196.934953 432.174477 
L 197.001488 441.321504 
L 197.068024 451.19334 
L 197.13456 461.879452 
L 197.201095 473.48466 
L 197.267631 486.132587 
L 197.334167 499.970062 
L 197.400702 515.172843 
L 197.467238 531.953107 
L 197.533774 550.569398 
L 197.600309 571.340022 
L 197.703433 608.748641 
L 197.806556 654.328714 
L 197.90968 711.08272 
L 198.012803 783.689409 
L 198.115927 879.863379 
L 198.21905 1013.294133 
L 198.322174 1210.819409 
L 198.425297 1533.198665 
L 198.52842 2153.466305 
L 198.631544 3838.936246 
L 198.734667 25996.1148 
L 198.837791 -4896.706227 
L 198.940914 -2125.029119 
L 199.044038 -1308.474646 
L 199.147161 -917.744652 
L 199.250285 -688.643578 
L 199.353408 -538.076447 
L 199.456532 -431.57501 
L 199.559655 -352.267337 
L 199.662778 -290.919884 
L 199.765902 -242.054365 
L 199.869025 -202.214868 
L 199.972149 -169.113484 
L 200.075272 -141.175303 
L 200.178396 -117.280748 
L 200.281519 -96.612107 
L 200.384643 -78.558225 
L 200.487766 -62.653151 
L 200.590889 -48.535437 
L 200.694013 -35.920393 
L 200.797136 -24.580742 
L 200.90026 -14.332838 
L 200.923808 -12.129652 
L 200.947356 -9.973888 
L 200.970904 -7.864036 
L 200.994452 -5.79865 
L 201.018001 -3.776343 
L 201.041549 -1.795788 
L 201.065097 0.144291 
L 201.088645 2.045119 
L 201.112193 3.907869 
L 201.135741 5.73367 
L 201.15929 7.523606 
L 201.182838 9.278719 
L 201.206386 11.000012 
L 201.229934 12.688449 
L 201.253482 14.344957 
L 201.27703 15.970431 
L 201.300579 17.565729 
L 201.324127 19.131681 
L 201.347675 20.669085 
L 201.371223 22.178712 
L 201.394771 23.661303 
L 201.418319 25.117576 
L 201.441868 26.54822 
L 201.465416 27.953905 
L 201.488964 29.335273 
L 201.512512 30.692947 
L 201.53606 32.027528 
L 201.559608 33.339598 
L 201.583156 34.629717 
L 201.606705 35.898429 
L 201.630253 37.146261 
L 201.653801 38.373719 
L 201.771962 44.242136 
L 201.890123 49.665812 
L 202.008283 54.693162 
L 202.126444 59.365823 
L 202.244605 63.719797 
L 202.362766 67.786374 
L 202.480927 71.592877 
L 202.599087 75.163274 
L 202.717248 78.518677 
L 202.835409 81.677753 
L 202.95357 84.65707 
L 203.071731 87.471384 
L 203.189892 90.133878 
L 203.308052 92.656369 
L 203.426213 95.049479 
L 203.544374 97.322782 
L 203.662535 99.484931 
L 203.780696 101.543765 
L 203.898856 103.506405 
L 204.017017 105.379331 
L 204.135178 107.168454 
L 204.253339 108.879179 
L 204.3715 110.516456 
L 204.48966 112.084825 
L 204.607821 113.588462 
L 204.725982 115.031213 
L 204.844143 116.416623 
L 204.962304 117.74797 
L 205.080464 119.028286 
L 205.198625 120.26038 
L 205.316786 121.446861 
L 205.434947 122.590151 
L 205.548932 123.654219 
L 205.662916 124.682084 
L 205.776901 125.675509 
L 205.890886 126.636148 
L 206.004871 127.56555 
L 206.118856 128.465168 
L 206.23284 129.336366 
L 206.346825 130.180428 
L 206.46081 130.99856 
L 206.574795 131.791898 
L 206.688779 132.561514 
L 206.802764 133.308418 
L 206.916749 134.033565 
L 207.030734 134.737856 
L 207.144718 135.422144 
L 207.258703 136.087236 
L 207.408363 136.932616 
L 207.558023 137.747845 
L 207.707683 138.534438 
L 207.857342 139.293816 
L 208.007002 140.027304 
L 208.156662 140.736145 
L 208.306322 141.421502 
L 208.455982 142.08447 
L 208.605641 142.726073 
L 208.755301 143.347277 
L 208.904961 143.948989 
L 209.054621 144.532066 
L 209.204281 145.097314 
L 209.35394 145.645492 
L 209.5036 146.177321 
L 209.65326 146.693479 
L 209.831695 147.289291 
L 210.010131 147.864764 
L 210.188566 148.420859 
L 210.367001 148.958478 
L 210.545437 149.478471 
L 210.723872 149.981633 
L 210.902307 150.468717 
L 211.080743 150.940429 
L 211.259178 151.397436 
L 211.437613 151.840368 
L 211.616049 152.269821 
L 211.794484 152.686356 
L 211.97292 153.090504 
L 212.151355 153.482771 
L 212.508226 154.233544 
L 212.71223 154.643593 
L 212.916234 155.040495 
L 213.120239 155.424823 
L 213.324243 155.797117 
L 213.640605 156.351847 
L 213.956967 156.880638 
L 214.273329 157.385124 
L 214.589692 157.86681 
L 214.906054 158.327081 
L 215.222416 158.767219 
L 215.538778 159.188408 
L 215.85514 159.591748 
L 216.385086 160.230161 
L 216.915032 160.825666 
L 217.444979 161.382126 
L 217.974925 161.902986 
L 218.498748 162.385859 
L 219.022572 162.839628 
L 219.546396 163.266702 
L 220.070219 163.669257 
L 220.476414 163.965801 
L 220.882609 164.249636 
L 221.695 164.782274 
L 222.50739 165.272848 
L 223.31978 165.726319 
L 224.03661 166.099128 
L 224.753439 166.44912 
L 225.539792 166.809659 
L 226.326145 167.148488 
L 227.112498 167.468184 
L 227.898851 167.771081 
L 229.141383 168.220564 
L 230.383914 168.640874 
L 230.451189 168.662931 
L 232.442261 169.290409 
L 234.433333 169.884218 
L 235.996471 170.340194 
L 239.097601 171.255604 
L 240.241482 171.607146 
L 241.385363 171.971161 
L 242.491948 172.338165 
L 244.035109 172.879929 
L 244.839797 173.178688 
L 245.644485 173.490144 
L 246.449174 173.815536 
L 247.253862 174.15615 
L 247.950717 174.464448 
L 248.647573 174.78607 
L 249.344429 175.121959 
L 250.041285 175.473102 
L 250.658358 175.797607 
L 251.275431 176.135636 
L 251.892504 176.487976 
L 252.509578 176.855455 
L 252.724481 176.987147 
L 253.616642 177.555454 
L 254.508803 178.160728 
L 255.400965 178.806048 
L 256.293126 179.494753 
L 257.013887 180.085306 
L 257.734648 180.70862 
L 258.45541 181.36693 
L 259.176171 182.062646 
L 259.88923 182.790291 
L 260.60229 183.559828 
L 260.98063 183.986151 
L 261.35897 184.425568 
L 261.73731 184.878573 
L 262.11565 185.345682 
L 262.49399 185.827435 
L 262.87233 186.324397 
L 263.250671 186.837164 
L 263.629011 187.366356 
L 264.049757 187.974954 
L 264.470504 188.605624 
L 264.891251 189.259369 
L 265.311998 189.937249 
L 265.757866 190.683196 
L 266.203734 191.458929 
L 266.632389 192.234208 
L 267.061045 193.039849 
L 267.489701 193.877376 
L 267.918356 194.748415 
L 268.347012 195.6547 
L 268.775668 196.598084 
L 269.204324 197.580548 
L 269.632979 198.604214 
L 269.870936 199.191089 
L 270.108892 199.79177 
L 270.346848 200.406685 
L 270.584805 201.036279 
L 270.822761 201.681016 
L 271.060718 202.341379 
L 271.298674 203.017871 
L 271.53663 203.711017 
L 271.732274 204.29377 
L 271.927917 204.888468 
L 272.123561 205.495439 
L 272.319204 206.115022 
L 272.514847 206.74757 
L 272.710491 207.393449 
L 272.906134 208.053038 
L 273.101777 208.726731 
L 273.297421 209.414936 
L 273.493064 210.118079 
L 273.688707 210.8366 
L 273.884351 211.570959 
L 274.079994 212.321631 
L 274.275638 213.089113 
L 274.471281 213.873921 
L 274.666924 214.676593 
L 274.887216 215.602468 
L 275.107507 216.552537 
L 275.327798 217.527673 
L 275.548089 218.528794 
L 275.725335 219.35381 
L 275.902581 220.196793 
L 276.079827 221.058289 
L 276.257073 221.938863 
L 276.434319 222.839106 
L 276.611564 223.759632 
L 276.78881 224.701082 
L 276.966056 225.664121 
L 277.143302 226.649447 
L 277.320548 227.657786 
L 277.497794 228.689893 
L 277.67504 229.746562 
L 277.852285 230.828619 
L 278.029531 231.936926 
L 278.206777 233.072389 
L 278.384023 234.235951 
L 278.5224 235.16452 
L 278.660777 236.111308 
L 278.799154 237.076825 
L 278.937531 238.061598 
L 279.075908 239.066176 
L 279.214284 240.091127 
L 279.352661 241.137041 
L 279.491038 242.204534 
L 279.629415 243.294241 
L 279.767792 244.406827 
L 279.906169 245.542982 
L 280.044546 246.703423 
L 280.182923 247.888897 
L 280.3213 249.100183 
L 280.459676 250.338091 
L 280.598053 251.603466 
L 280.746415 252.991656 
L 280.894776 254.413567 
L 281.043137 255.870387 
L 281.191498 257.363359 
L 281.339859 258.893787 
L 281.488221 260.463039 
L 281.636582 262.072549 
L 281.784943 263.723821 
L 281.933304 265.418438 
L 282.081666 267.158062 
L 282.155846 268.045295 
L 282.230027 268.944442 
L 282.304207 269.855737 
L 282.378388 270.779418 
L 282.452569 271.715731 
L 282.526749 272.664928 
L 282.60093 273.627266 
L 282.67511 274.603013 
L 282.749291 275.59244 
L 282.823472 276.595828 
L 282.897652 277.613464 
L 282.971833 278.645645 
L 283.043928 279.663032 
L 283.116023 280.694732 
L 283.188118 281.741039 
L 283.260213 282.802255 
L 283.332308 283.878693 
L 283.404403 284.970672 
L 283.476499 286.078521 
L 283.548594 287.202579 
L 283.620689 288.343193 
L 283.692784 289.500723 
L 283.764879 290.675536 
L 283.836974 291.868011 
L 283.909069 293.07854 
L 283.981164 294.307525 
L 284.053259 295.555379 
L 284.125355 296.822528 
L 284.19745 298.109414 
L 284.269545 299.416488 
L 284.34164 300.744217 
L 284.413735 302.093084 
L 284.48583 303.463583 
L 284.557925 304.856229 
L 284.63002 306.271548 
L 284.702115 307.710087 
L 284.77421 309.172409 
L 284.846306 310.659094 
L 284.918401 312.170744 
L 284.990496 313.707979 
L 285.062591 315.27144 
L 285.134686 316.861789 
L 285.206781 318.479712 
L 285.278876 320.125918 
L 285.367492 322.189174 
L 285.456107 324.297682 
L 285.544722 326.45292 
L 285.633338 328.656429 
L 285.721953 330.909817 
L 285.810568 333.214766 
L 285.899184 335.573036 
L 285.987799 337.986464 
L 286.076415 340.456976 
L 286.16503 342.986588 
L 286.253645 345.577409 
L 286.342261 348.231654 
L 286.430876 350.951644 
L 286.519492 353.739813 
L 286.608107 356.59872 
L 286.696722 359.53105 
L 286.785338 362.53963 
L 286.873953 365.62743 
L 286.962568 368.797578 
L 287.051184 372.053369 
L 287.139799 375.398276 
L 287.228415 378.835961 
L 287.31703 382.370291 
L 287.405645 386.005352 
L 287.494261 389.74546 
L 287.582876 393.595184 
L 287.671492 397.55936 
L 287.760107 401.643116 
L 287.848722 405.851886 
L 287.937338 410.191443 
L 288.025953 414.667917 
L 288.114568 419.28783 
L 288.139435 420.610934 
L 288.164301 421.946035 
L 288.189167 423.293297 
L 288.214034 424.652885 
L 288.2389 426.024968 
L 288.263767 427.409717 
L 288.288633 428.807308 
L 288.313499 430.217917 
L 288.338366 431.641726 
L 288.363232 433.07892 
L 288.388098 434.529687 
L 288.412965 435.994218 
L 288.437831 437.47271 
L 288.462697 438.96536 
L 288.487564 440.472372 
L 288.51243 441.993952 
L 288.537296 443.530311 
L 288.562163 445.081663 
L 288.587029 446.648228 
L 288.611895 448.230229 
L 288.636762 449.827894 
L 288.661628 451.441453 
L 288.686495 453.071145 
L 288.711361 454.71721 
L 288.736227 456.379895 
L 288.761094 458.059451 
L 288.78596 459.756134 
L 288.810826 461.470206 
L 288.835693 463.201934 
L 288.860559 464.951589 
L 288.885425 466.719451 
L 288.910292 468.505802 
L 288.97234 473.045734 
L 289.034387 477.707278 
L 289.096435 482.495355 
L 289.158483 487.415154 
L 289.220531 492.472154 
L 289.282578 497.672141 
L 289.344626 503.02123 
L 289.406674 508.525892 
L 289.468722 514.192976 
L 289.53077 520.029739 
L 289.592817 526.043878 
L 289.654865 532.243562 
L 289.716913 538.63747 
L 289.778961 545.23483 
L 289.841009 552.045464 
L 289.903056 559.079837 
L 289.965104 566.349111 
L 290.027152 573.865202 
L 290.0892 581.640844 
L 290.151248 589.689665 
L 290.213295 598.026264 
L 290.275343 606.666298 
L 290.337391 615.62658 
L 290.399439 624.925189 
L 290.461487 634.581594 
L 290.523534 644.616782 
L 290.585582 655.053417 
L 290.64763 665.916007 
L 290.709678 677.231098 
L 290.771726 689.027485 
L 290.833773 701.336463 
L 290.895821 714.192098 
L 290.960398 728.19223 
L 291.024974 742.870612 
L 291.089551 758.277641 
L 291.154127 774.468838 
L 291.218704 791.505508 
L 291.283281 809.45552 
L 291.347857 828.394206 
L 291.412434 848.405415 
L 291.47701 869.582755 
L 291.541587 892.031054 
L 291.606164 915.868092 
L 291.67074 941.226665 
L 291.735317 968.257058 
L 291.799893 997.130023 
L 291.86447 1028.040383 
L 291.929046 1061.211431 
L 291.993623 1096.900325 
L 292.0582 1135.404767 
L 292.122776 1177.071314 
L 292.187353 1222.305831 
L 292.251929 1271.58675 
L 292.316506 1325.482039 
L 292.381083 1384.67118 
L 292.445659 1449.973952 
L 292.510236 1522.388606 
L 292.574812 1603.143231 
L 292.639389 1693.765948 
L 292.703965 1796.182485 
L 292.768542 1912.854498 
L 292.833119 2046.979951 
L 292.897695 2202.790654 
L 292.962272 2386.006786 
L 293.052655 2704.149975 
L 293.143038 3126.177774 
L 293.233421 3712.891662 
L 293.323804 4584.04125 
L 293.414187 6012.618328 
L 293.50457 8785.297587 
L 293.594954 16483.928148 
L 293.685337 146615.820437 
L 293.77572 -20955.677222 
L 293.866103 -9711.700894 
L 293.956486 -6291.722485 
L 294.046869 -4637.263255 
L 294.137252 -3661.680209 
L 294.227635 -3018.268254 
L 294.318018 -2562.063959 
L 294.408401 -2221.743229 
L 294.498784 -1958.130799 
L 294.589168 -1747.921087 
L 294.679551 -1576.38128 
L 294.769934 -1433.741514 
L 294.860317 -1313.267403 
L 294.9507 -1210.166113 
L 295.041083 -1120.933702 
L 295.131466 -1042.949157 
L 295.221849 -974.212767 
L 295.312232 -913.172331 
L 295.402615 -858.604602 
L 295.492999 -809.532531 
L 295.583382 -765.166296 
L 295.673765 -724.860503 
L 295.764148 -688.08262 
L 295.854531 -654.389334 
L 295.936675 -626.129152 
L 296.018818 -599.871138 
L 296.100962 -575.410074 
L 296.183106 -552.567862 
L 296.265249 -531.189188 
L 296.347393 -511.137989 
L 296.429537 -492.294562 
L 296.51168 -474.553175 
L 296.593824 -457.820089 
L 296.675967 -442.011902 
L 296.758111 -427.054164 
L 296.840255 -412.880207 
L 296.922398 -399.430153 
L 297.004542 -386.650073 
L 297.086686 -374.491263 
L 297.168829 -362.909631 
L 297.250973 -351.865159 
L 297.333117 -341.321445 
L 297.41526 -331.245305 
L 297.497404 -321.606421 
L 297.579548 -312.377043 
L 297.661691 -303.53172 
L 297.743835 -295.047067 
L 297.825979 -286.901559 
L 297.908122 -279.075353 
L 297.990266 -271.550123 
L 298.07241 -264.308917 
L 298.154553 -257.336035 
L 298.236697 -250.616914 
L 298.318841 -244.138024 
L 298.400984 -237.886781 
L 298.483128 -231.851465 
L 298.543185 -227.569206 
L 298.603243 -223.392489 
L 298.6633 -219.317486 
L 298.723357 -215.340552 
L 298.783415 -211.458212 
L 298.843472 -207.667155 
L 298.90353 -203.964223 
L 298.963587 -200.346401 
L 299.023644 -196.810811 
L 299.083702 -193.354702 
L 299.143759 -189.975445 
L 299.203817 -186.670527 
L 299.263874 -183.437542 
L 299.323931 -180.274186 
L 299.383989 -177.178254 
L 299.444046 -174.147632 
L 299.504104 -171.180294 
L 299.564161 -168.274296 
L 299.624219 -165.427776 
L 299.684276 -162.638942 
L 299.744333 -159.906076 
L 299.804391 -157.227528 
L 299.864448 -154.601711 
L 299.924506 -152.027099 
L 299.984563 -149.502225 
L 300.04462 -147.025677 
L 300.104678 -144.596098 
L 300.164735 -142.212177 
L 300.224793 -139.872657 
L 300.28485 -137.576321 
L 300.344907 -135.322001 
L 300.404965 -133.108567 
L 300.470729 -130.730434 
L 300.536492 -128.398646 
L 300.602256 -126.111879 
L 300.66802 -123.868859 
L 300.733784 -121.668359 
L 300.799548 -119.509199 
L 300.865311 -117.390241 
L 300.931075 -115.310388 
L 300.996839 -113.268584 
L 301.062603 -111.26381 
L 301.128367 -109.295083 
L 301.19413 -107.361454 
L 301.259894 -105.462008 
L 301.325658 -103.595862 
L 301.391422 -101.76216 
L 301.457186 -99.960079 
L 301.522949 -98.188822 
L 301.588713 -96.447617 
L 301.654477 -94.735721 
L 301.720241 -93.052412 
L 301.786005 -91.396993 
L 301.851768 -89.76879 
L 301.917532 -88.16715 
L 301.983296 -86.59144 
L 302.04906 -85.041047 
L 302.114824 -83.515379 
L 302.180587 -82.013861 
L 302.246351 -80.535935 
L 302.312115 -79.081062 
L 302.377879 -77.648717 
L 302.443643 -76.238392 
L 302.509406 -74.849595 
L 302.618423 -72.593522 
L 302.72744 -70.393204 
L 302.836457 -68.246644 
L 302.945474 -66.151943 
L 303.054491 -64.107287 
L 303.163508 -62.110949 
L 303.272525 -60.161279 
L 303.381542 -58.2567 
L 303.490559 -56.395708 
L 303.599576 -54.576863 
L 303.708593 -52.798788 
L 303.81761 -51.060167 
L 303.926627 -49.359738 
L 304.035644 -47.696294 
L 304.144661 -46.068676 
L 304.253678 -44.475776 
L 304.362694 -42.916529 
L 304.471711 -41.389914 
L 304.580728 -39.89495 
L 304.689745 -38.430696 
L 304.798762 -36.996248 
L 304.907779 -35.590737 
L 305.016796 -34.213326 
L 305.125813 -32.863211 
L 305.23483 -31.53962 
L 305.343847 -30.241808 
L 305.452864 -28.969057 
L 305.561881 -27.720677 
L 305.670898 -26.496003 
L 305.779915 -25.294394 
L 305.888932 -24.11523 
L 305.997949 -22.957915 
L 306.112313 -21.766684 
L 306.226678 -20.598224 
L 306.366703 -19.197701 
L 306.506728 -17.8293 
L 306.646753 -16.491981 
L 306.786778 -15.184746 
L 306.926802 -13.90664 
L 307.066827 -12.656749 
L 307.206852 -11.434195 
L 307.346877 -10.238139 
L 307.486902 -9.067772 
L 307.626927 -7.92232 
L 307.766952 -6.801041 
L 307.906977 -5.703219 
L 308.047002 -4.628169 
L 308.187027 -3.575231 
L 308.327051 -2.543769 
L 308.467076 -1.533175 
L 308.658346 -0.18539 
L 308.849616 1.125986 
L 309.040886 2.402313 
L 309.232155 3.644886 
L 309.423425 4.854936 
L 309.614695 6.033633 
L 309.805965 7.182095 
L 309.997234 8.301384 
L 310.188504 9.392516 
L 310.379774 10.456457 
L 310.571044 11.494133 
L 310.762314 12.506424 
L 310.953583 13.494176 
L 311.144853 14.458193 
L 311.336123 15.399248 
L 311.527393 16.318079 
L 311.771003 17.45728 
L 312.014613 18.562965 
L 312.258223 19.636453 
L 312.501832 20.678994 
L 312.745442 21.691775 
L 312.989052 22.675921 
L 313.232662 23.632503 
L 313.476272 24.562537 
L 313.689564 25.355791 
L 313.902856 26.130057 
L 314.116147 26.88593 
L 314.329439 27.62398 
L 314.54273 28.344753 
L 314.756022 29.048773 
L 314.969314 29.736544 
L 315.182605 30.408549 
L 315.395897 31.065252 
L 315.609188 31.7071 
L 315.82248 32.334521 
L 316.035772 32.947928 
L 316.249063 33.547718 
L 316.462355 34.134274 
L 316.675646 34.707963 
L 316.888938 35.26914 
L 317.171468 35.993802 
L 317.453997 36.697869 
L 317.736527 37.382065 
L 318.019057 38.047081 
L 318.431394 38.984575 
L 318.843732 39.884554 
L 319.256069 40.748829 
L 319.668406 41.579099 
L 320.080744 42.376955 
L 320.493081 43.143889 
L 320.905418 43.881305 
L 321.317756 44.590522 
L 321.758908 45.319483 
L 322.301688 46.176136 
L 322.844467 46.990717 
L 323.387246 47.765529 
L 323.930025 48.502707 
L 324.472804 49.204238 
L 325.015583 49.87197 
L 325.558362 50.507624 
L 326.101142 51.112809 
L 326.460426 51.497379 
L 326.81971 51.86967 
L 327.538279 52.578973 
L 328.07536 53.07985 
L 328.612442 53.556961 
L 329.149524 54.011382 
L 329.686605 54.444126 
L 330.311133 54.921328 
L 330.93566 55.371909 
L 331.512988 55.765897 
L 332.090316 56.139229 
L 332.667644 56.49282 
L 333.244971 56.82753 
L 334.0215 57.249371 
L 334.798028 57.640361 
L 335.574556 58.002208 
L 336.351085 58.336496 
L 337.014192 58.601253 
L 337.6773 58.847842 
L 338.301744 59.064168 
L 338.926189 59.265733 
L 339.550633 59.453135 
L 340.175077 59.626943 
L 340.810592 59.790429 
L 341.446106 59.940928 
L 342.081621 60.078947 
L 342.717135 60.20497 
L 343.480607 60.341148 
L 344.244078 60.46142 
L 345.00755 60.566493 
L 345.771022 60.657029 
L 347.161341 60.786584 
L 347.999079 60.843837 
L 348.836816 60.886306 
L 349.674554 60.914648 
L 350.512291 60.929483 
L 351.139341 60.9321 
L 352.008464 60.924189 
L 352.877587 60.903403 
L 353.746711 60.870296 
L 354.615834 60.825392 
L 355.603706 60.760651 
L 356.591578 60.681987 
L 357.576843 60.590298 
L 358.562109 60.485992 
L 360.341392 60.26744 
L 362.031352 60.026201 
L 363.916388 59.721347 
L 365.801423 59.381598 
L 367.361219 59.075973 
L 369.434881 58.637787 
L 370.816963 58.326833 
L 372.276012 57.983165 
L 373.735062 57.624523 
L 375.285283 57.227951 
L 377.266708 56.699162 
L 379.248132 56.147353 
L 381.045761 55.628109 
L 382.986805 55.048804 
L 386.049562 54.098227 
L 388.216344 53.400762 
L 389.050699 53.12702 
L 392.524315 51.958453 
L 394.903516 51.132905 
L 397.377051 50.254652 
L 398.079107 50.001865 
L 400.788326 49.012581 
L 402.490104 48.38049 
L 405.213034 47.353049 
L 406.847195 46.727439 
L 410.130242 45.451506 
L 412.193936 44.637182 
L 414.913177 43.550647 
L 416.01016 43.108172 
L 419.596958 41.645717 
L 421.558088 40.836452 
L 423.027822 40.22573 
L 426.323058 38.843926 
L 426.987219 38.563406 
L 429.066073 37.68119 
L 432.131172 36.369362 
L 435.170221 35.056392 
L 436.423099 34.511724 
L 438.585153 33.567364 
L 441.496572 32.287175 
L 443.293537 31.492368 
L 445.524064 30.501069 
L 447.590463 29.578223 
L 448.91977 28.982359 
L 451.938462 27.623077 
z
" clip-path="url(#p9ca4b8f4a7)" style="fill: #cccccc; opacity: 0.5"/>
   </g>
   <g id="matplotlib.axis_1">
    <g id="xtick_1">
     <g id="line2d_1">
      <defs>
       <path id="m298f6b0594" d="M 0 0 
L 0 3.5 
" style="stroke: #000000; stroke-width: 0.8"/>
      </defs>
      <g>
       <use xlink:href="#m298f6b0594" x="40.50989" y="172.8" style="stroke: #000000; stroke-width: 0.8"/>
      </g>
     </g>
     <g id="text_1">
      <!-- −6 -->
      <g transform="translate(33.138796 187.398437) scale(0.1 -0.1)">
       <defs>
        <path id="DejaVuSans-2212" d="M 678 2272 
L 4684 2272 
L 4684 1741 
L 678 1741 
L 678 2272 
z
" transform="scale(0.015625)"/>
        <path id="DejaVuSans-36" d="M 2113 2584 
Q 1688 2584 1439 2293 
Q 1191 2003 1191 1497 
Q 1191 994 1439 701 
Q 1688 409 2113 409 
Q 2538 409 2786 701 
Q 3034 994 3034 1497 
Q 3034 2003 2786 2293 
Q 2538 2584 2113 2584 
z
M 3366 4563 
L 3366 3988 
Q 3128 4100 2886 4159 
Q 2644 4219 2406 4219 
Q 1781 4219 1451 3797 
Q 1122 3375 1075 2522 
Q 1259 2794 1537 2939 
Q 1816 3084 2150 3084 
Q 2853 3084 3261 2657 
Q 3669 2231 3669 1497 
Q 3669 778 3244 343 
Q 2819 -91 2113 -91 
Q 1303 -91 875 529 
Q 447 1150 447 2328 
Q 447 3434 972 4092 
Q 1497 4750 2381 4750 
Q 2619 4750 2861 4703 
Q 3103 4656 3366 4563 
z
" transform="scale(0.015625)"/>
       </defs>
       <use xlink:href="#DejaVuSans-2212"/>
       <use xlink:href="#DejaVuSans-36" x="83.789062"/>
      </g>
     </g>
    </g>
    <g id="xtick_2">
     <g id="line2d_2">
      <g>
       <use xlink:href="#m298f6b0594" x="103.806593" y="172.8" style="stroke: #000000; stroke-width: 0.8"/>
      </g>
     </g>
     <g id="text_2">
      <!-- −4 -->
      <g transform="translate(96.4355 187.398437) scale(0.1 -0.1)">
       <defs>
        <path id="DejaVuSans-34" d="M 2419 4116 
L 825 1625 
L 2419 1625 
L 2419 4116 
z
M 2253 4666 
L 3047 4666 
L 3047 1625 
L 3713 1625 
L 3713 1100 
L 3047 1100 
L 3047 0 
L 2419 0 
L 2419 1100 
L 313 1100 
L 313 1709 
L 2253 4666 
z
" transform="scale(0.015625)"/>
       </defs>
       <use xlink:href="#DejaVuSans-2212"/>
       <use xlink:href="#DejaVuSans-34" x="83.789062"/>
      </g>
     </g>
    </g>
    <g id="xtick_3">
     <g id="line2d_3">
      <g>
       <use xlink:href="#m298f6b0594" x="167.103297" y="172.8" style="stroke: #000000; stroke-width: 0.8"/>
      </g>
     </g>
     <g id="text_3">
      <!-- −2 -->
      <g transform="translate(159.732203 187.398437) scale(0.1 -0.1)">
       <defs>
        <path id="DejaVuSans-32" d="M 1228 531 
L 3431 531 
L 3431 0 
L 469 0 
L 469 531 
Q 828 903 1448 1529 
Q 2069 2156 2228 2338 
Q 2531 2678 2651 2914 
Q 2772 3150 2772 3378 
Q 2772 3750 2511 3984 
Q 2250 4219 1831 4219 
Q 1534 4219 1204 4116 
Q 875 4013 500 3803 
L 500 4441 
Q 881 4594 1212 4672 
Q 1544 4750 1819 4750 
Q 2544 4750 2975 4387 
Q 3406 4025 3406 3419 
Q 3406 3131 3298 2873 
Q 3191 2616 2906 2266 
Q 2828 2175 2409 1742 
Q 1991 1309 1228 531 
z
" transform="scale(0.015625)"/>
       </defs>
       <use xlink:href="#DejaVuSans-2212"/>
       <use xlink:href="#DejaVuSans-32" x="83.789062"/>
      </g>
     </g>
    </g>
    <g id="xtick_4">
     <g id="line2d_4">
      <g>
       <use xlink:href="#m298f6b0594" x="230.4" y="172.8" style="stroke: #000000; stroke-width: 0.8"/>
      </g>
     </g>
    </g>
    <g id="xtick_5">
     <g id="line2d_5">
      <g>
       <use xlink:href="#m298f6b0594" x="293.696703" y="172.8" style="stroke: #000000; stroke-width: 0.8"/>
      </g>
     </g>
     <g id="text_4">
      <!-- 2 -->
      <g transform="translate(290.515453 187.398437) scale(0.1 -0.1)">
       <use xlink:href="#DejaVuSans-32"/>
      </g>
     </g>
    </g>
    <g id="xtick_6">
     <g id="line2d_6">
      <g>
       <use xlink:href="#m298f6b0594" x="356.993407" y="172.8" style="stroke: #000000; stroke-width: 0.8"/>
      </g>
     </g>
     <g id="text_5">
      <!-- 4 -->
      <g transform="translate(353.812157 187.398437) scale(0.1 -0.1)">
       <use xlink:href="#DejaVuSans-34"/>
      </g>
     </g>
    </g>
    <g id="xtick_7">
     <g id="line2d_7">
      <g>
       <use xlink:href="#m298f6b0594" x="420.29011" y="172.8" style="stroke: #000000; stroke-width: 0.8"/>
      </g>
     </g>
     <g id="text_6">
      <!-- 6 -->
      <g transform="translate(417.10886 187.398437) scale(0.1 -0.1)">
       <use xlink:href="#DejaVuSans-36"/>
      </g>
     </g>
    </g>
    <g id="xtick_8">
     <g id="line2d_8">
      <defs>
       <path id="md9133893df" d="M 0 0 
L 0 2 
" style="stroke: #000000; stroke-width: 0.6"/>
      </defs>
      <g>
       <use xlink:href="#md9133893df" x="8.861538" y="172.8" style="stroke: #000000; stroke-width: 0.6"/>
      </g>
     </g>
    </g>
    <g id="xtick_9">
     <g id="line2d_9">
      <g>
       <use xlink:href="#md9133893df" x="24.685714" y="172.8" style="stroke: #000000; stroke-width: 0.6"/>
      </g>
     </g>
    </g>
    <g id="xtick_10">
     <g id="line2d_10">
      <g>
       <use xlink:href="#md9133893df" x="56.334066" y="172.8" style="stroke: #000000; stroke-width: 0.6"/>
      </g>
     </g>
    </g>
    <g id="xtick_11">
     <g id="line2d_11">
      <g>
       <use xlink:href="#md9133893df" x="72.158242" y="172.8" style="stroke: #000000; stroke-width: 0.6"/>
      </g>
     </g>
    </g>
    <g id="xtick_12">
     <g id="line2d_12">
      <g>
       <use xlink:href="#md9133893df" x="87.982418" y="172.8" style="stroke: #000000; stroke-width: 0.6"/>
      </g>
     </g>
    </g>
    <g id="xtick_13">
     <g id="line2d_13">
      <g>
       <use xlink:href="#md9133893df" x="119.630769" y="172.8" style="stroke: #000000; stroke-width: 0.6"/>
      </g>
     </g>
    </g>
    <g id="xtick_14">
     <g id="line2d_14">
      <g>
       <use xlink:href="#md9133893df" x="135.454945" y="172.8" style="stroke: #000000; stroke-width: 0.6"/>
      </g>
     </g>
    </g>
    <g id="xtick_15">
     <g id="line2d_15">
      <g>
       <use xlink:href="#md9133893df" x="151.279121" y="172.8" style="stroke: #000000; stroke-width: 0.6"/>
      </g>
     </g>
    </g>
    <g id="xtick_16">
     <g id="line2d_16">
      <g>
       <use xlink:href="#md9133893df" x="182.927473" y="172.8" style="stroke: #000000; stroke-width: 0.6"/>
      </g>
     </g>
    </g>
    <g id="xtick_17">
     <g id="line2d_17">
      <g>
       <use xlink:href="#md9133893df" x="198.751648" y="172.8" style="stroke: #000000; stroke-width: 0.6"/>
      </g>
     </g>
    </g>
    <g id="xtick_18">
     <g id="line2d_18">
      <g>
       <use xlink:href="#md9133893df" x="214.575824" y="172.8" style="stroke: #000000; stroke-width: 0.6"/>
      </g>
     </g>
    </g>
    <g id="xtick_19">
     <g id="line2d_19">
      <g>
       <use xlink:href="#md9133893df" x="246.224176" y="172.8" style="stroke: #000000; stroke-width: 0.6"/>
      </g>
     </g>
    </g>
    <g id="xtick_20">
     <g id="line2d_20">
      <g>
       <use xlink:href="#md9133893df" x="262.048352" y="172.8" style="stroke: #000000; stroke-width: 0.6"/>
      </g>
     </g>
    </g>
    <g id="xtick_21">
     <g id="line2d_21">
      <g>
       <use xlink:href="#md9133893df" x="277.872527" y="172.8" style="stroke: #000000; stroke-width: 0.6"/>
      </g>
     </g>
    </g>
    <g id="xtick_22">
     <g id="line2d_22">
      <g>
       <use xlink:href="#md9133893df" x="309.520879" y="172.8" style="stroke: #000000; stroke-width: 0.6"/>
      </g>
     </g>
    </g>
    <g id="xtick_23">
     <g id="line2d_23">
      <g>
       <use xlink:href="#md9133893df" x="325.345055" y="172.8" style="stroke: #000000; stroke-width: 0.6"/>
      </g>
     </g>
    </g>
    <g id="xtick_24">
     <g id="line2d_24">
      <g>
       <use xlink:href="#md9133893df" x="341.169231" y="172.8" style="stroke: #000000; stroke-width: 0.6"/>
      </g>
     </g>
    </g>
    <g id="xtick_25">
     <g id="line2d_25">
      <g>
       <use xlink:href="#md9133893df" x="372.817582" y="172.8" style="stroke: #000000; stroke-width: 0.6"/>
      </g>
     </g>
    </g>
    <g id="xtick_26">
     <g id="line2d_26">
      <g>
       <use xlink:href="#md9133893df" x="388.641758" y="172.8" style="stroke: #000000; stroke-width: 0.6"/>
      </g>
     </g>
    </g>
    <g id="xtick_27">
     <g id="line2d_27">
      <g>
       <use xlink:href="#md9133893df" x="404.465934" y="172.8" style="stroke: #000000; stroke-width: 0.6"/>
      </g>
     </g>
    </g>
    <g id="xtick_28">
     <g id="line2d_28">
      <g>
       <use xlink:href="#md9133893df" x="436.114286" y="172.8" style="stroke: #000000; stroke-width: 0.6"/>
      </g>
     </g>
    </g>
    <g id="xtick_29">
     <g id="line2d_29">
      <g>
       <use xlink:href="#md9133893df" x="451.938462" y="172.8" style="stroke: #000000; stroke-width: 0.6"/>
      </g>
     </g>
    </g>
   </g>
   <g id="matplotlib.axis_2">
    <g id="ytick_1">
     <g id="line2d_30">
      <defs>
       <path id="mc586cc50f0" d="M 0 0 
L -3.5 0 
" style="stroke: #000000; stroke-width: 0.8"/>
      </defs>
      <g>
       <use xlink:href="#mc586cc50f0" x="230.4" y="338.953846" style="stroke: #000000; stroke-width: 0.8"/>
      </g>
     </g>
     <g id="text_7">
      <!-- −20 -->
      <g transform="translate(202.295312 342.753065) scale(0.1 -0.1)">
       <defs>
        <path id="DejaVuSans-30" d="M 2034 4250 
Q 1547 4250 1301 3770 
Q 1056 3291 1056 2328 
Q 1056 1369 1301 889 
Q 1547 409 2034 409 
Q 2525 409 2770 889 
Q 3016 1369 3016 2328 
Q 3016 3291 2770 3770 
Q 2525 4250 2034 4250 
z
M 2034 4750 
Q 2819 4750 3233 4129 
Q 3647 3509 3647 2328 
Q 3647 1150 3233 529 
Q 2819 -91 2034 -91 
Q 1250 -91 836 529 
Q 422 1150 422 2328 
Q 422 3509 836 4129 
Q 1250 4750 2034 4750 
z
" transform="scale(0.015625)"/>
       </defs>
       <use xlink:href="#DejaVuSans-2212"/>
       <use xlink:href="#DejaVuSans-32" x="83.789062"/>
       <use xlink:href="#DejaVuSans-30" x="147.412109"/>
      </g>
     </g>
    </g>
    <g id="ytick_2">
     <g id="line2d_31">
      <g>
       <use xlink:href="#mc586cc50f0" x="230.4" y="297.415385" style="stroke: #000000; stroke-width: 0.8"/>
      </g>
     </g>
     <g id="text_8">
      <!-- −15 -->
      <g transform="translate(202.295312 301.214603) scale(0.1 -0.1)">
       <defs>
        <path id="DejaVuSans-31" d="M 794 531 
L 1825 531 
L 1825 4091 
L 703 3866 
L 703 4441 
L 1819 4666 
L 2450 4666 
L 2450 531 
L 3481 531 
L 3481 0 
L 794 0 
L 794 531 
z
" transform="scale(0.015625)"/>
        <path id="DejaVuSans-35" d="M 691 4666 
L 3169 4666 
L 3169 4134 
L 1269 4134 
L 1269 2991 
Q 1406 3038 1543 3061 
Q 1681 3084 1819 3084 
Q 2600 3084 3056 2656 
Q 3513 2228 3513 1497 
Q 3513 744 3044 326 
Q 2575 -91 1722 -91 
Q 1428 -91 1123 -41 
Q 819 9 494 109 
L 494 744 
Q 775 591 1075 516 
Q 1375 441 1709 441 
Q 2250 441 2565 725 
Q 2881 1009 2881 1497 
Q 2881 1984 2565 2268 
Q 2250 2553 1709 2553 
Q 1456 2553 1204 2497 
Q 953 2441 691 2322 
L 691 4666 
z
" transform="scale(0.015625)"/>
       </defs>
       <use xlink:href="#DejaVuSans-2212"/>
       <use xlink:href="#DejaVuSans-31" x="83.789062"/>
       <use xlink:href="#DejaVuSans-35" x="147.412109"/>
      </g>
     </g>
    </g>
    <g id="ytick_3">
     <g id="line2d_32">
      <g>
       <use xlink:href="#mc586cc50f0" x="230.4" y="255.876923" style="stroke: #000000; stroke-width: 0.8"/>
      </g>
     </g>
     <g id="text_9">
      <!-- −10 -->
      <g transform="translate(202.295312 259.676142) scale(0.1 -0.1)">
       <use xlink:href="#DejaVuSans-2212"/>
       <use xlink:href="#DejaVuSans-31" x="83.789062"/>
       <use xlink:href="#DejaVuSans-30" x="147.412109"/>
      </g>
     </g>
    </g>
    <g id="ytick_4">
     <g id="line2d_33">
      <g>
       <use xlink:href="#mc586cc50f0" x="230.4" y="214.338462" style="stroke: #000000; stroke-width: 0.8"/>
      </g>
     </g>
     <g id="text_10">
      <!-- −5 -->
      <g transform="translate(208.657812 218.13768) scale(0.1 -0.1)">
       <use xlink:href="#DejaVuSans-2212"/>
       <use xlink:href="#DejaVuSans-35" x="83.789062"/>
      </g>
     </g>
    </g>
    <g id="ytick_5">
     <g id="line2d_34">
      <g>
       <use xlink:href="#mc586cc50f0" x="230.4" y="172.8" style="stroke: #000000; stroke-width: 0.8"/>
      </g>
     </g>
    </g>
    <g id="ytick_6">
     <g id="line2d_35">
      <g>
       <use xlink:href="#mc586cc50f0" x="230.4" y="131.261538" style="stroke: #000000; stroke-width: 0.8"/>
      </g>
     </g>
     <g id="text_11">
      <!-- 5 -->
      <g transform="translate(217.0375 135.060757) scale(0.1 -0.1)">
       <use xlink:href="#DejaVuSans-35"/>
      </g>
     </g>
    </g>
    <g id="ytick_7">
     <g id="line2d_36">
      <g>
       <use xlink:href="#mc586cc50f0" x="230.4" y="89.723077" style="stroke: #000000; stroke-width: 0.8"/>
      </g>
     </g>
     <g id="text_12">
      <!-- 10 -->
      <g transform="translate(210.675 93.522296) scale(0.1 -0.1)">
       <use xlink:href="#DejaVuSans-31"/>
       <use xlink:href="#DejaVuSans-30" x="63.623047"/>
      </g>
     </g>
    </g>
    <g id="ytick_8">
     <g id="line2d_37">
      <g>
       <use xlink:href="#mc586cc50f0" x="230.4" y="48.184615" style="stroke: #000000; stroke-width: 0.8"/>
      </g>
     </g>
     <g id="text_13">
      <!-- 15 -->
      <g transform="translate(210.675 51.983834) scale(0.1 -0.1)">
       <use xlink:href="#DejaVuSans-31"/>
       <use xlink:href="#DejaVuSans-35" x="63.623047"/>
      </g>
     </g>
    </g>
    <g id="ytick_9">
     <g id="line2d_38">
      <g>
       <use xlink:href="#mc586cc50f0" x="230.4" y="6.646154" style="stroke: #000000; stroke-width: 0.8"/>
      </g>
     </g>
     <g id="text_14">
      <!-- 20 -->
      <g transform="translate(210.675 10.445373) scale(0.1 -0.1)">
       <use xlink:href="#DejaVuSans-32"/>
       <use xlink:href="#DejaVuSans-30" x="63.623047"/>
      </g>
     </g>
    </g>
    <g id="ytick_10">
     <g id="line2d_39">
      <defs>
       <path id="m0939781689" d="M 0 0 
L -2 0 
" style="stroke: #000000; stroke-width: 0.6"/>
      </defs>
      <g>
       <use xlink:href="#m0939781689" x="230.4" y="330.646154" style="stroke: #000000; stroke-width: 0.6"/>
      </g>
     </g>
    </g>
    <g id="ytick_11">
     <g id="line2d_40">
      <g>
       <use xlink:href="#m0939781689" x="230.4" y="322.338462" style="stroke: #000000; stroke-width: 0.6"/>
      </g>
     </g>
    </g>
    <g id="ytick_12">
     <g id="line2d_41">
      <g>
       <use xlink:href="#m0939781689" x="230.4" y="314.030769" style="stroke: #000000; stroke-width: 0.6"/>
      </g>
     </g>
    </g>
    <g id="ytick_13">
     <g id="line2d_42">
      <g>
       <use xlink:href="#m0939781689" x="230.4" y="305.723077" style="stroke: #000000; stroke-width: 0.6"/>
      </g>
     </g>
    </g>
    <g id="ytick_14">
     <g id="line2d_43">
      <g>
       <use xlink:href="#m0939781689" x="230.4" y="289.107692" style="stroke: #000000; stroke-width: 0.6"/>
      </g>
     </g>
    </g>
    <g id="ytick_15">
     <g id="line2d_44">
      <g>
       <use xlink:href="#m0939781689" x="230.4" y="280.8" style="stroke: #000000; stroke-width: 0.6"/>
      </g>
     </g>
    </g>
    <g id="ytick_16">
     <g id="line2d_45">
      <g>
       <use xlink:href="#m0939781689" x="230.4" y="272.492308" style="stroke: #000000; stroke-width: 0.6"/>
      </g>
     </g>
    </g>
    <g id="ytick_17">
     <g id="line2d_46">
      <g>
       <use xlink:href="#m0939781689" x="230.4" y="264.184615" style="stroke: #000000; stroke-width: 0.6"/>
      </g>
     </g>
    </g>
    <g id="ytick_18">
     <g id="line2d_47">
      <g>
       <use xlink:href="#m0939781689" x="230.4" y="247.569231" style="stroke: #000000; stroke-width: 0.6"/>
      </g>
     </g>
    </g>
    <g id="ytick_19">
     <g id="line2d_48">
      <g>
       <use xlink:href="#m0939781689" x="230.4" y="239.261538" style="stroke: #000000; stroke-width: 0.6"/>
      </g>
     </g>
    </g>
    <g id="ytick_20">
     <g id="line2d_49">
      <g>
       <use xlink:href="#m0939781689" x="230.4" y="230.953846" style="stroke: #000000; stroke-width: 0.6"/>
      </g>
     </g>
    </g>
    <g id="ytick_21">
     <g id="line2d_50">
      <g>
       <use xlink:href="#m0939781689" x="230.4" y="222.646154" style="stroke: #000000; stroke-width: 0.6"/>
      </g>
     </g>
    </g>
    <g id="ytick_22">
     <g id="line2d_51">
      <g>
       <use xlink:href="#m0939781689" x="230.4" y="206.030769" style="stroke: #000000; stroke-width: 0.6"/>
      </g>
     </g>
    </g>
    <g id="ytick_23">
     <g id="line2d_52">
      <g>
       <use xlink:href="#m0939781689" x="230.4" y="197.723077" style="stroke: #000000; stroke-width: 0.6"/>
      </g>
     </g>
    </g>
    <g id="ytick_24">
     <g id="line2d_53">
      <g>
       <use xlink:href="#m0939781689" x="230.4" y="189.415385" style="stroke: #000000; stroke-width: 0.6"/>
      </g>
     </g>
    </g>
    <g id="ytick_25">
     <g id="line2d_54">
      <g>
       <use xlink:href="#m0939781689" x="230.4" y="181.107692" style="stroke: #000000; stroke-width: 0.6"/>
      </g>
     </g>
    </g>
    <g id="ytick_26">
     <g id="line2d_55">
      <g>
       <use xlink:href="#m0939781689" x="230.4" y="164.492308" style="stroke: #000000; stroke-width: 0.6"/>
      </g>
     </g>
    </g>
    <g id="ytick_27">
     <g id="line2d_56">
      <g>
       <use xlink:href="#m0939781689" x="230.4" y="156.184615" style="stroke: #000000; stroke-width: 0.6"/>
      </g>
     </g>
    </g>
    <g id="ytick_28">
     <g id="line2d_57">
      <g>
       <use xlink:href="#m0939781689" x="230.4" y="147.876923" style="stroke: #000000; stroke-width: 0.6"/>
      </g>
     </g>
    </g>
    <g id="ytick_29">
     <g id="line2d_58">
      <g>
       <use xlink:href="#m0939781689" x="230.4" y="139.569231" style="stroke: #000000; stroke-width: 0.6"/>
      </g>
     </g>
    </g>
    <g id="ytick_30">
     <g id="line2d_59">
      <g>
       <use xlink:href="#m0939781689" x="230.4" y="122.953846" style="stroke: #000000; stroke-width: 0.6"/>
      </g>
     </g>
    </g>
    <g id="ytick_31">
     <g id="line2d_60">
      <g>
       <use xlink:href="#m0939781689" x="230.4" y="114.646154" style="stroke: #000000; stroke-width: 0.6"/>
      </g>
     </g>
    </g>
    <g id="ytick_32">
     <g id="line2d_61">
      <g>
       <use xlink:href="#m0939781689" x="230.4" y="106.338462" style="stroke: #000000; stroke-width: 0.6"/>
      </g>
     </g>
    </g>
    <g id="ytick_33">
     <g id="line2d_62">
      <g>
       <use xlink:href="#m0939781689" x="230.4" y="98.030769" style="stroke: #000000; stroke-width: 0.6"/>
      </g>
     </g>
    </g>
    <g id="ytick_34">
     <g id="line2d_63">
      <g>
       <use xlink:href="#m0939781689" x="230.4" y="81.415385" style="stroke: #000000; stroke-width: 0.6"/>
      </g>
     </g>
    </g>
    <g id="ytick_35">
     <g id="line2d_64">
      <g>
       <use xlink:href="#m0939781689" x="230.4" y="73.107692" style="stroke: #000000; stroke-width: 0.6"/>
      </g>
     </g>
    </g>
    <g id="ytick_36">
     <g id="line2d_65">
      <g>
       <use xlink:href="#m0939781689" x="230.4" y="64.8" style="stroke: #000000; stroke-width: 0.6"/>
      </g>
     </g>
    </g>
    <g id="ytick_37">
     <g id="line2d_66">
      <g>
       <use xlink:href="#m0939781689" x="230.4" y="56.492308" style="stroke: #000000; stroke-width: 0.6"/>
      </g>
     </g>
    </g>
    <g id="ytick_38">
     <g id="line2d_67">
      <g>
       <use xlink:href="#m0939781689" x="230.4" y="39.876923" style="stroke: #000000; stroke-width: 0.6"/>
      </g>
     </g>
    </g>
    <g id="ytick_39">
     <g id="line2d_68">
      <g>
       <use xlink:href="#m0939781689" x="230.4" y="31.569231" style="stroke: #000000; stroke-width: 0.6"/>
      </g>
     </g>
    </g>
    <g id="ytick_40">
     <g id="line2d_69">
      <g>
       <use xlink:href="#m0939781689" x="230.4" y="23.261538" style="stroke: #000000; stroke-width: 0.6"/>
      </g>
     </g>
    </g>
    <g id="ytick_41">
     <g id="line2d_70">
      <g>
       <use xlink:href="#m0939781689" x="230.4" y="14.953846" style="stroke: #000000; stroke-width: 0.6"/>
      </g>
     </g>
    </g>
   </g>
   <g id="line2d_71">
    <path d="M 8.861538 280.646154 
L 36.603516 267.107276 
L 60.694611 255.600727 
L 79.268245 246.962023 
L 92.594941 240.940542 
L 106.772733 234.761535 
L 119.581311 229.463145 
L 128.142009 226.134373 
L 136.959021 222.956777 
L 143.810166 220.729853 
L 150.089744 218.948124 
L 155.521592 217.683733 
L 159.840397 216.930268 
L 163.024408 216.565428 
L 166.285485 216.411525 
L 169.043988 216.505829 
L 171.150965 216.755381 
L 173.208683 217.186156 
L 175.084536 217.779663 
L 176.645918 218.455002 
L 178.119567 219.278605 
L 179.579594 220.313869 
L 181.039622 221.620567 
L 182.505715 223.278454 
L 183.605451 224.809178 
L 184.705187 226.649591 
L 185.762712 228.784063 
L 186.897995 231.583203 
L 188.033279 235.070352 
L 189.068804 239.054965 
L 189.9805 243.420263 
L 190.892195 248.879379 
L 191.771257 255.579027 
L 192.594632 263.674951 
L 193.316435 272.866184 
L 194.062304 285.422511 
L 194.725299 300.573849 
L 195.305419 318.689216 
L 195.870382 343.423231 
L 195.929559 346.6 
M 198.820288 346.6 
L 198.821448 -1 
M 201.051208 -1 
L 201.606705 35.898429 
L 202.126444 59.365823 
L 202.835409 81.677753 
L 203.544374 97.322782 
L 204.3715 110.516456 
L 205.198625 120.26038 
L 206.118856 128.465168 
L 207.030734 134.737856 
L 208.007002 140.027304 
L 209.054621 144.532066 
L 210.188566 148.420859 
L 211.437613 151.840368 
L 212.71223 154.643593 
L 213.956967 156.880638 
L 215.222416 158.767219 
L 216.385086 160.230161 
L 217.974925 161.902986 
L 219.546396 163.266702 
L 221.695 164.782274 
L 224.03661 166.099128 
L 226.326145 167.148488 
L 229.141383 168.220564 
L 232.442261 169.290409 
L 242.491948 172.338165 
L 246.449174 173.815536 
L 249.344429 175.121959 
L 251.892504 176.487976 
L 254.508803 178.160728 
L 257.013887 180.085306 
L 259.176171 182.062646 
L 261.35897 184.425568 
L 263.250671 186.837164 
L 264.891251 189.259369 
L 266.632389 192.234208 
L 268.347012 195.6547 
L 270.108892 199.79177 
L 271.732274 204.29377 
L 273.101777 208.726731 
L 274.471281 213.873921 
L 275.902581 220.196793 
L 277.143302 226.649447 
L 278.384023 234.235951 
L 279.629415 243.294241 
L 280.746415 252.991656 
L 281.933304 265.418438 
L 283.043928 279.663032 
L 284.053259 295.555379 
L 284.990496 313.707979 
L 285.899184 335.573036 
L 286.287786 346.6 
M 293.76423 346.6 
L 293.764417 -1 
M 308.542741 -1 
L 309.805965 7.182095 
L 311.144853 14.458193 
L 312.501832 20.678994 
L 313.902856 26.130057 
L 315.395897 31.065252 
L 316.888938 35.26914 
L 318.431394 38.984575 
L 320.080744 42.376955 
L 321.758908 45.319483 
L 323.387246 47.765529 
L 325.015583 49.87197 
L 326.81971 51.86967 
L 328.612442 53.556961 
L 330.311133 54.921328 
L 332.667644 56.49282 
L 334.798028 57.640361 
L 337.014192 58.601253 
L 339.550633 59.453135 
L 342.081621 60.078947 
L 345.00755 60.566493 
L 347.999079 60.843837 
L 351.139341 60.9321 
L 354.615834 60.825392 
L 358.562109 60.485992 
L 363.916388 59.721347 
L 369.434881 58.637787 
L 375.285283 57.227951 
L 381.045761 55.628109 
L 389.050699 53.12702 
L 398.079107 50.001865 
L 406.847195 46.727439 
L 416.01016 43.108172 
L 429.066073 37.68119 
L 443.293537 31.492368 
L 451.938462 27.623077 
L 451.938462 27.623077 
" clip-path="url(#p9ca4b8f4a7)" style="fill: none; stroke: #0000cc; stroke-linecap: square"/>
   </g>
   <g id="line2d_72">
    <path d="M 8.861538 272.492308 
L 451.938462 39.876923 
L 451.938462 39.876923 
" clip-path="url(#p9ca4b8f4a7)" style="fill: none; stroke: #3ccc00; stroke-linecap: square"/>
   </g>
   <g id="patch_4">
    <path d="M 230.4 345.6 
L 230.4 0 
" style="fill: none; stroke: #000000; stroke-width: 0.8; stroke-linejoin: miter; stroke-linecap: square"/>
   </g>
   <g id="patch_5">
    <path d="M 0 172.8 
L 460.8 172.8 
" style="fill: none; stroke: #000000; stroke-width: 0.8; stroke-linejoin: miter; stroke-linecap: square"/>
   </g>
  </g>
 </g>
 <defs>
  <clipPath id="p9ca4b8f4a7">
   <rect x="0" y="0" width="460.8" height="345.6"/>
  </clipPath>
 </defs>
</svg>
