<?xml version="1.0" encoding="utf-8" standalone="no"?>
<!DOCTYPE svg PUBLIC "-//W3C//DTD SVG 1.1//EN"
  "http://www.w3.org/Graphics/SVG/1.1/DTD/svg11.dtd">
<!-- Created with matplotlib (http://matplotlib.org/) -->
<svg height="345.6pt" version="1.1" viewBox="0 0 460.8 345.6" width="460.8pt" xmlns="http://www.w3.org/2000/svg" xmlns:xlink="http://www.w3.org/1999/xlink">
 <defs>
  <style type="text/css">
*{stroke-linecap:butt;stroke-linejoin:round;}
  </style>
 </defs>
 <g id="figure_1">
  <g id="patch_1">
   <path d="M 0 345.6 
L 460.8 345.6 
L 460.8 0 
L 0 0 
z
" style="fill:#ffffff;"/>
  </g>
  <g id="axes_1">
   <g id="patch_2">
    <path d="M 49.082351 158.046154 
L 411.717649 158.046154 
L 411.717649 2.52 
L 49.082351 2.52 
z
" style="fill:#ffffff;"/>
   </g>
   <g id="matplotlib.axis_1">
    <g id="xtick_1">
     <g id="line2d_1">
      <defs>
       <path d="M 0 0 
L 0 3.5 
" id="m351b61b9b7" style="stroke:#000000;stroke-width:0.8;"/>
      </defs>
      <g>
       <use style="stroke:#000000;stroke-width:0.8;" x="56.056107" xlink:href="#m351b61b9b7" y="155.055266"/>
      </g>
     </g>
    </g>
    <g id="xtick_2">
     <g id="line2d_2">
      <g>
       <use style="stroke:#000000;stroke-width:0.8;" x="143.228053" xlink:href="#m351b61b9b7" y="155.055266"/>
      </g>
     </g>
     <g id="text_1">
      <!-- 0.5 -->
      <defs>
       <path d="M 31.78125 66.40625 
Q 24.171875 66.40625 20.328125 58.90625 
Q 16.5 51.421875 16.5 36.375 
Q 16.5 21.390625 20.328125 13.890625 
Q 24.171875 6.390625 31.78125 6.390625 
Q 39.453125 6.390625 43.28125 13.890625 
Q 47.125 21.390625 47.125 36.375 
Q 47.125 51.421875 43.28125 58.90625 
Q 39.453125 66.40625 31.78125 66.40625 
z
M 31.78125 74.21875 
Q 44.046875 74.21875 50.515625 64.515625 
Q 56.984375 54.828125 56.984375 36.375 
Q 56.984375 17.96875 50.515625 8.265625 
Q 44.046875 -1.421875 31.78125 -1.421875 
Q 19.53125 -1.421875 13.0625 8.265625 
Q 6.59375 17.96875 6.59375 36.375 
Q 6.59375 54.828125 13.0625 64.515625 
Q 19.53125 74.21875 31.78125 74.21875 
z
" id="DejaVuSans-30"/>
       <path d="M 10.6875 12.40625 
L 21 12.40625 
L 21 0 
L 10.6875 0 
z
" id="DejaVuSans-2e"/>
       <path d="M 10.796875 72.90625 
L 49.515625 72.90625 
L 49.515625 64.59375 
L 19.828125 64.59375 
L 19.828125 46.734375 
Q 21.96875 47.46875 24.109375 47.828125 
Q 26.265625 48.1875 28.421875 48.1875 
Q 40.625 48.1875 47.75 41.5 
Q 54.890625 34.8125 54.890625 23.390625 
Q 54.890625 11.625 47.5625 5.09375 
Q 40.234375 -1.421875 26.90625 -1.421875 
Q 22.3125 -1.421875 17.546875 -0.640625 
Q 12.796875 0.140625 7.71875 1.703125 
L 7.71875 11.625 
Q 12.109375 9.234375 16.796875 8.0625 
Q 21.484375 6.890625 26.703125 6.890625 
Q 35.15625 6.890625 40.078125 11.328125 
Q 45.015625 15.765625 45.015625 23.390625 
Q 45.015625 31 40.078125 35.4375 
Q 35.15625 39.890625 26.703125 39.890625 
Q 22.75 39.890625 18.8125 39.015625 
Q 14.890625 38.140625 10.796875 36.28125 
z
" id="DejaVuSans-35"/>
      </defs>
      <g transform="translate(135.276491 169.653704)scale(0.1 -0.1)">
       <use xlink:href="#DejaVuSans-30"/>
       <use x="63.623047" xlink:href="#DejaVuSans-2e"/>
       <use x="95.410156" xlink:href="#DejaVuSans-35"/>
      </g>
     </g>
    </g>
    <g id="xtick_3">
     <g id="line2d_3">
      <g>
       <use style="stroke:#000000;stroke-width:0.8;" x="230.4" xlink:href="#m351b61b9b7" y="155.055266"/>
      </g>
     </g>
     <g id="text_2">
      <!-- 1 -->
      <defs>
       <path d="M 12.40625 8.296875 
L 28.515625 8.296875 
L 28.515625 63.921875 
L 10.984375 60.40625 
L 10.984375 69.390625 
L 28.421875 72.90625 
L 38.28125 72.90625 
L 38.28125 8.296875 
L 54.390625 8.296875 
L 54.390625 0 
L 12.40625 0 
z
" id="DejaVuSans-31"/>
      </defs>
      <g transform="translate(227.21875 169.653704)scale(0.1 -0.1)">
       <use xlink:href="#DejaVuSans-31"/>
      </g>
     </g>
    </g>
    <g id="xtick_4">
     <g id="line2d_4">
      <g>
       <use style="stroke:#000000;stroke-width:0.8;" x="317.571947" xlink:href="#m351b61b9b7" y="155.055266"/>
      </g>
     </g>
     <g id="text_3">
      <!-- 1.5 -->
      <g transform="translate(309.620384 169.653704)scale(0.1 -0.1)">
       <use xlink:href="#DejaVuSans-31"/>
       <use x="63.623047" xlink:href="#DejaVuSans-2e"/>
       <use x="95.410156" xlink:href="#DejaVuSans-35"/>
      </g>
     </g>
    </g>
    <g id="xtick_5">
     <g id="line2d_5">
      <g>
       <use style="stroke:#000000;stroke-width:0.8;" x="404.743893" xlink:href="#m351b61b9b7" y="155.055266"/>
      </g>
     </g>
     <g id="text_4">
      <!-- 2 -->
      <defs>
       <path d="M 19.1875 8.296875 
L 53.609375 8.296875 
L 53.609375 0 
L 7.328125 0 
L 7.328125 8.296875 
Q 12.9375 14.109375 22.625 23.890625 
Q 32.328125 33.6875 34.8125 36.53125 
Q 39.546875 41.84375 41.421875 45.53125 
Q 43.3125 49.21875 43.3125 52.78125 
Q 43.3125 58.59375 39.234375 62.25 
Q 35.15625 65.921875 28.609375 65.921875 
Q 23.96875 65.921875 18.8125 64.3125 
Q 13.671875 62.703125 7.8125 59.421875 
L 7.8125 69.390625 
Q 13.765625 71.78125 18.9375 73 
Q 24.125 74.21875 28.421875 74.21875 
Q 39.75 74.21875 46.484375 68.546875 
Q 53.21875 62.890625 53.21875 53.421875 
Q 53.21875 48.921875 51.53125 44.890625 
Q 49.859375 40.875 45.40625 35.40625 
Q 44.1875 33.984375 37.640625 27.21875 
Q 31.109375 20.453125 19.1875 8.296875 
z
" id="DejaVuSans-32"/>
      </defs>
      <g transform="translate(401.562643 169.653704)scale(0.1 -0.1)">
       <use xlink:href="#DejaVuSans-32"/>
      </g>
     </g>
    </g>
    <g id="xtick_6">
     <g id="line2d_6">
      <defs>
       <path d="M 0 0 
L 0 2 
" id="m92933c5d54" style="stroke:#000000;stroke-width:0.6;"/>
      </defs>
      <g>
       <use style="stroke:#000000;stroke-width:0.6;" x="73.490496" xlink:href="#m92933c5d54" y="155.055266"/>
      </g>
     </g>
    </g>
    <g id="xtick_7">
     <g id="line2d_7">
      <g>
       <use style="stroke:#000000;stroke-width:0.6;" x="90.924886" xlink:href="#m92933c5d54" y="155.055266"/>
      </g>
     </g>
    </g>
    <g id="xtick_8">
     <g id="line2d_8">
      <g>
       <use style="stroke:#000000;stroke-width:0.6;" x="108.359275" xlink:href="#m92933c5d54" y="155.055266"/>
      </g>
     </g>
    </g>
    <g id="xtick_9">
     <g id="line2d_9">
      <g>
       <use style="stroke:#000000;stroke-width:0.6;" x="125.793664" xlink:href="#m92933c5d54" y="155.055266"/>
      </g>
     </g>
    </g>
    <g id="xtick_10">
     <g id="line2d_10">
      <g>
       <use style="stroke:#000000;stroke-width:0.6;" x="143.228053" xlink:href="#m92933c5d54" y="155.055266"/>
      </g>
     </g>
    </g>
    <g id="xtick_11">
     <g id="line2d_11">
      <g>
       <use style="stroke:#000000;stroke-width:0.6;" x="160.662443" xlink:href="#m92933c5d54" y="155.055266"/>
      </g>
     </g>
    </g>
    <g id="xtick_12">
     <g id="line2d_12">
      <g>
       <use style="stroke:#000000;stroke-width:0.6;" x="178.096832" xlink:href="#m92933c5d54" y="155.055266"/>
      </g>
     </g>
    </g>
    <g id="xtick_13">
     <g id="line2d_13">
      <g>
       <use style="stroke:#000000;stroke-width:0.6;" x="195.531221" xlink:href="#m92933c5d54" y="155.055266"/>
      </g>
     </g>
    </g>
    <g id="xtick_14">
     <g id="line2d_14">
      <g>
       <use style="stroke:#000000;stroke-width:0.6;" x="212.965611" xlink:href="#m92933c5d54" y="155.055266"/>
      </g>
     </g>
    </g>
    <g id="xtick_15">
     <g id="line2d_15">
      <g>
       <use style="stroke:#000000;stroke-width:0.6;" x="230.4" xlink:href="#m92933c5d54" y="155.055266"/>
      </g>
     </g>
    </g>
    <g id="xtick_16">
     <g id="line2d_16">
      <g>
       <use style="stroke:#000000;stroke-width:0.6;" x="247.834389" xlink:href="#m92933c5d54" y="155.055266"/>
      </g>
     </g>
    </g>
    <g id="xtick_17">
     <g id="line2d_17">
      <g>
       <use style="stroke:#000000;stroke-width:0.6;" x="265.268779" xlink:href="#m92933c5d54" y="155.055266"/>
      </g>
     </g>
    </g>
    <g id="xtick_18">
     <g id="line2d_18">
      <g>
       <use style="stroke:#000000;stroke-width:0.6;" x="282.703168" xlink:href="#m92933c5d54" y="155.055266"/>
      </g>
     </g>
    </g>
    <g id="xtick_19">
     <g id="line2d_19">
      <g>
       <use style="stroke:#000000;stroke-width:0.6;" x="300.137557" xlink:href="#m92933c5d54" y="155.055266"/>
      </g>
     </g>
    </g>
    <g id="xtick_20">
     <g id="line2d_20">
      <g>
       <use style="stroke:#000000;stroke-width:0.6;" x="317.571947" xlink:href="#m92933c5d54" y="155.055266"/>
      </g>
     </g>
    </g>
    <g id="xtick_21">
     <g id="line2d_21">
      <g>
       <use style="stroke:#000000;stroke-width:0.6;" x="335.006336" xlink:href="#m92933c5d54" y="155.055266"/>
      </g>
     </g>
    </g>
    <g id="xtick_22">
     <g id="line2d_22">
      <g>
       <use style="stroke:#000000;stroke-width:0.6;" x="352.440725" xlink:href="#m92933c5d54" y="155.055266"/>
      </g>
     </g>
    </g>
    <g id="xtick_23">
     <g id="line2d_23">
      <g>
       <use style="stroke:#000000;stroke-width:0.6;" x="369.875114" xlink:href="#m92933c5d54" y="155.055266"/>
      </g>
     </g>
    </g>
    <g id="xtick_24">
     <g id="line2d_24">
      <g>
       <use style="stroke:#000000;stroke-width:0.6;" x="387.309504" xlink:href="#m92933c5d54" y="155.055266"/>
      </g>
     </g>
    </g>
    <g id="xtick_25">
     <g id="line2d_25">
      <g>
       <use style="stroke:#000000;stroke-width:0.6;" x="404.743893" xlink:href="#m92933c5d54" y="155.055266"/>
      </g>
     </g>
    </g>
   </g>
   <g id="matplotlib.axis_2">
    <g id="ytick_1">
     <g id="line2d_26">
      <defs>
       <path d="M 0 0 
L -3.5 0 
" id="m4b4af1494c" style="stroke:#000000;stroke-width:0.8;"/>
      </defs>
      <g>
       <use style="stroke:#000000;stroke-width:0.8;" x="56.056107" xlink:href="#m4b4af1494c" y="155.055266"/>
      </g>
     </g>
    </g>
    <g id="ytick_2">
     <g id="line2d_27">
      <g>
       <use style="stroke:#000000;stroke-width:0.8;" x="56.056107" xlink:href="#m4b4af1494c" y="127.160243"/>
      </g>
     </g>
     <g id="text_5">
      <!-- 0.2 -->
      <g transform="translate(33.152982 130.959462)scale(0.1 -0.1)">
       <use xlink:href="#DejaVuSans-30"/>
       <use x="63.623047" xlink:href="#DejaVuSans-2e"/>
       <use x="95.410156" xlink:href="#DejaVuSans-32"/>
      </g>
     </g>
    </g>
    <g id="ytick_3">
     <g id="line2d_28">
      <g>
       <use style="stroke:#000000;stroke-width:0.8;" x="56.056107" xlink:href="#m4b4af1494c" y="99.26522"/>
      </g>
     </g>
     <g id="text_6">
      <!-- 0.4 -->
      <defs>
       <path d="M 37.796875 64.3125 
L 12.890625 25.390625 
L 37.796875 25.390625 
z
M 35.203125 72.90625 
L 47.609375 72.90625 
L 47.609375 25.390625 
L 58.015625 25.390625 
L 58.015625 17.1875 
L 47.609375 17.1875 
L 47.609375 0 
L 37.796875 0 
L 37.796875 17.1875 
L 4.890625 17.1875 
L 4.890625 26.703125 
z
" id="DejaVuSans-34"/>
      </defs>
      <g transform="translate(33.152982 103.064439)scale(0.1 -0.1)">
       <use xlink:href="#DejaVuSans-30"/>
       <use x="63.623047" xlink:href="#DejaVuSans-2e"/>
       <use x="95.410156" xlink:href="#DejaVuSans-34"/>
      </g>
     </g>
    </g>
    <g id="ytick_4">
     <g id="line2d_29">
      <g>
       <use style="stroke:#000000;stroke-width:0.8;" x="56.056107" xlink:href="#m4b4af1494c" y="71.370198"/>
      </g>
     </g>
     <g id="text_7">
      <!-- 0.6 -->
      <defs>
       <path d="M 33.015625 40.375 
Q 26.375 40.375 22.484375 35.828125 
Q 18.609375 31.296875 18.609375 23.390625 
Q 18.609375 15.53125 22.484375 10.953125 
Q 26.375 6.390625 33.015625 6.390625 
Q 39.65625 6.390625 43.53125 10.953125 
Q 47.40625 15.53125 47.40625 23.390625 
Q 47.40625 31.296875 43.53125 35.828125 
Q 39.65625 40.375 33.015625 40.375 
z
M 52.59375 71.296875 
L 52.59375 62.3125 
Q 48.875 64.0625 45.09375 64.984375 
Q 41.3125 65.921875 37.59375 65.921875 
Q 27.828125 65.921875 22.671875 59.328125 
Q 17.53125 52.734375 16.796875 39.40625 
Q 19.671875 43.65625 24.015625 45.921875 
Q 28.375 48.1875 33.59375 48.1875 
Q 44.578125 48.1875 50.953125 41.515625 
Q 57.328125 34.859375 57.328125 23.390625 
Q 57.328125 12.15625 50.6875 5.359375 
Q 44.046875 -1.421875 33.015625 -1.421875 
Q 20.359375 -1.421875 13.671875 8.265625 
Q 6.984375 17.96875 6.984375 36.375 
Q 6.984375 53.65625 15.1875 63.9375 
Q 23.390625 74.21875 37.203125 74.21875 
Q 40.921875 74.21875 44.703125 73.484375 
Q 48.484375 72.75 52.59375 71.296875 
z
" id="DejaVuSans-36"/>
      </defs>
      <g transform="translate(33.152982 75.169416)scale(0.1 -0.1)">
       <use xlink:href="#DejaVuSans-30"/>
       <use x="63.623047" xlink:href="#DejaVuSans-2e"/>
       <use x="95.410156" xlink:href="#DejaVuSans-36"/>
      </g>
     </g>
    </g>
    <g id="ytick_5">
     <g id="line2d_30">
      <g>
       <use style="stroke:#000000;stroke-width:0.8;" x="56.056107" xlink:href="#m4b4af1494c" y="43.475175"/>
      </g>
     </g>
     <g id="text_8">
      <!-- 0.8 -->
      <defs>
       <path d="M 31.78125 34.625 
Q 24.75 34.625 20.71875 30.859375 
Q 16.703125 27.09375 16.703125 20.515625 
Q 16.703125 13.921875 20.71875 10.15625 
Q 24.75 6.390625 31.78125 6.390625 
Q 38.8125 6.390625 42.859375 10.171875 
Q 46.921875 13.96875 46.921875 20.515625 
Q 46.921875 27.09375 42.890625 30.859375 
Q 38.875 34.625 31.78125 34.625 
z
M 21.921875 38.8125 
Q 15.578125 40.375 12.03125 44.71875 
Q 8.5 49.078125 8.5 55.328125 
Q 8.5 64.0625 14.71875 69.140625 
Q 20.953125 74.21875 31.78125 74.21875 
Q 42.671875 74.21875 48.875 69.140625 
Q 55.078125 64.0625 55.078125 55.328125 
Q 55.078125 49.078125 51.53125 44.71875 
Q 48 40.375 41.703125 38.8125 
Q 48.828125 37.15625 52.796875 32.3125 
Q 56.78125 27.484375 56.78125 20.515625 
Q 56.78125 9.90625 50.3125 4.234375 
Q 43.84375 -1.421875 31.78125 -1.421875 
Q 19.734375 -1.421875 13.25 4.234375 
Q 6.78125 9.90625 6.78125 20.515625 
Q 6.78125 27.484375 10.78125 32.3125 
Q 14.796875 37.15625 21.921875 38.8125 
z
M 18.3125 54.390625 
Q 18.3125 48.734375 21.84375 45.5625 
Q 25.390625 42.390625 31.78125 42.390625 
Q 38.140625 42.390625 41.71875 45.5625 
Q 45.3125 48.734375 45.3125 54.390625 
Q 45.3125 60.0625 41.71875 63.234375 
Q 38.140625 66.40625 31.78125 66.40625 
Q 25.390625 66.40625 21.84375 63.234375 
Q 18.3125 60.0625 18.3125 54.390625 
z
" id="DejaVuSans-38"/>
      </defs>
      <g transform="translate(33.152982 47.274393)scale(0.1 -0.1)">
       <use xlink:href="#DejaVuSans-30"/>
       <use x="63.623047" xlink:href="#DejaVuSans-2e"/>
       <use x="95.410156" xlink:href="#DejaVuSans-38"/>
      </g>
     </g>
    </g>
    <g id="ytick_6">
     <g id="line2d_31">
      <g>
       <use style="stroke:#000000;stroke-width:0.8;" x="56.056107" xlink:href="#m4b4af1494c" y="15.580152"/>
      </g>
     </g>
     <g id="text_9">
      <!-- 1 -->
      <g transform="translate(42.693607 19.379371)scale(0.1 -0.1)">
       <use xlink:href="#DejaVuSans-31"/>
      </g>
     </g>
    </g>
    <g id="ytick_7">
     <g id="line2d_32">
      <defs>
       <path d="M 0 0 
L -2 0 
" id="mf9accb02ce" style="stroke:#000000;stroke-width:0.6;"/>
      </defs>
      <g>
       <use style="stroke:#000000;stroke-width:0.6;" x="56.056107" xlink:href="#mf9accb02ce" y="148.081511"/>
      </g>
     </g>
    </g>
    <g id="ytick_8">
     <g id="line2d_33">
      <g>
       <use style="stroke:#000000;stroke-width:0.6;" x="56.056107" xlink:href="#mf9accb02ce" y="141.107755"/>
      </g>
     </g>
    </g>
    <g id="ytick_9">
     <g id="line2d_34">
      <g>
       <use style="stroke:#000000;stroke-width:0.6;" x="56.056107" xlink:href="#mf9accb02ce" y="134.133999"/>
      </g>
     </g>
    </g>
    <g id="ytick_10">
     <g id="line2d_35">
      <g>
       <use style="stroke:#000000;stroke-width:0.6;" x="56.056107" xlink:href="#mf9accb02ce" y="127.160243"/>
      </g>
     </g>
    </g>
    <g id="ytick_11">
     <g id="line2d_36">
      <g>
       <use style="stroke:#000000;stroke-width:0.6;" x="56.056107" xlink:href="#mf9accb02ce" y="120.186488"/>
      </g>
     </g>
    </g>
    <g id="ytick_12">
     <g id="line2d_37">
      <g>
       <use style="stroke:#000000;stroke-width:0.6;" x="56.056107" xlink:href="#mf9accb02ce" y="113.212732"/>
      </g>
     </g>
    </g>
    <g id="ytick_13">
     <g id="line2d_38">
      <g>
       <use style="stroke:#000000;stroke-width:0.6;" x="56.056107" xlink:href="#mf9accb02ce" y="106.238976"/>
      </g>
     </g>
    </g>
    <g id="ytick_14">
     <g id="line2d_39">
      <g>
       <use style="stroke:#000000;stroke-width:0.6;" x="56.056107" xlink:href="#mf9accb02ce" y="99.26522"/>
      </g>
     </g>
    </g>
    <g id="ytick_15">
     <g id="line2d_40">
      <g>
       <use style="stroke:#000000;stroke-width:0.6;" x="56.056107" xlink:href="#mf9accb02ce" y="92.291465"/>
      </g>
     </g>
    </g>
    <g id="ytick_16">
     <g id="line2d_41">
      <g>
       <use style="stroke:#000000;stroke-width:0.6;" x="56.056107" xlink:href="#mf9accb02ce" y="85.317709"/>
      </g>
     </g>
    </g>
    <g id="ytick_17">
     <g id="line2d_42">
      <g>
       <use style="stroke:#000000;stroke-width:0.6;" x="56.056107" xlink:href="#mf9accb02ce" y="78.343953"/>
      </g>
     </g>
    </g>
    <g id="ytick_18">
     <g id="line2d_43">
      <g>
       <use style="stroke:#000000;stroke-width:0.6;" x="56.056107" xlink:href="#mf9accb02ce" y="71.370198"/>
      </g>
     </g>
    </g>
    <g id="ytick_19">
     <g id="line2d_44">
      <g>
       <use style="stroke:#000000;stroke-width:0.6;" x="56.056107" xlink:href="#mf9accb02ce" y="64.396442"/>
      </g>
     </g>
    </g>
    <g id="ytick_20">
     <g id="line2d_45">
      <g>
       <use style="stroke:#000000;stroke-width:0.6;" x="56.056107" xlink:href="#mf9accb02ce" y="57.422686"/>
      </g>
     </g>
    </g>
    <g id="ytick_21">
     <g id="line2d_46">
      <g>
       <use style="stroke:#000000;stroke-width:0.6;" x="56.056107" xlink:href="#mf9accb02ce" y="50.44893"/>
      </g>
     </g>
    </g>
    <g id="ytick_22">
     <g id="line2d_47">
      <g>
       <use style="stroke:#000000;stroke-width:0.6;" x="56.056107" xlink:href="#mf9accb02ce" y="43.475175"/>
      </g>
     </g>
    </g>
    <g id="ytick_23">
     <g id="line2d_48">
      <g>
       <use style="stroke:#000000;stroke-width:0.6;" x="56.056107" xlink:href="#mf9accb02ce" y="36.501419"/>
      </g>
     </g>
    </g>
    <g id="ytick_24">
     <g id="line2d_49">
      <g>
       <use style="stroke:#000000;stroke-width:0.6;" x="56.056107" xlink:href="#mf9accb02ce" y="29.527663"/>
      </g>
     </g>
    </g>
    <g id="ytick_25">
     <g id="line2d_50">
      <g>
       <use style="stroke:#000000;stroke-width:0.6;" x="56.056107" xlink:href="#mf9accb02ce" y="22.553908"/>
      </g>
     </g>
    </g>
    <g id="ytick_26">
     <g id="line2d_51">
      <g>
       <use style="stroke:#000000;stroke-width:0.6;" x="56.056107" xlink:href="#mf9accb02ce" y="15.580152"/>
      </g>
     </g>
    </g>
    <g id="ytick_27">
     <g id="line2d_52">
      <g>
       <use style="stroke:#000000;stroke-width:0.6;" x="56.056107" xlink:href="#mf9accb02ce" y="8.606396"/>
      </g>
     </g>
    </g>
   </g>
   <g id="line2d_53">
    <path clip-path="url(#p01a52a9e3a)" d="M 56.056107 155.055266 
L 71.068798 125.251695 
L 80.182038 107.718607 
L 87.192084 94.738087 
L 93.684352 83.223949 
L 99.520646 73.364549 
L 104.838522 64.837546 
L 109.773697 57.350126 
L 114.879145 50.067452 
L 120.204062 43.003593 
L 125.073989 37.041876 
L 128.635213 32.994403 
L 132.391775 29.017839 
L 135.898714 25.581705 
L 138.838001 22.909855 
L 142.986657 19.464756 
L 145.924274 17.257542 
L 149.902084 14.576575 
L 152.392168 13.078484 
L 156.549657 10.885386 
L 159.14511 9.710607 
L 163.738774 7.993859 
L 167.174253 7.008873 
L 169.795458 6.4267 
L 173.933997 5.800553 
L 177.364934 5.547796 
L 179.728626 5.510888 
L 183.684521 5.693208 
L 187.231867 6.109155 
L 190.967198 6.795916 
L 195.126884 7.848893 
L 198.979277 9.082579 
L 202.523021 10.42612 
L 205.982747 11.920996 
L 209.603468 13.668872 
L 214.875407 16.526677 
L 219.92305 19.581517 
L 225.686495 23.41019 
L 231.632923 27.693672 
L 238.041496 32.631016 
L 244.849105 38.172004 
L 253.77022 45.775919 
L 264.498888 55.233078 
L 288.19631 76.202969 
L 298.446197 84.8962 
L 306.364323 91.331255 
L 314.482507 97.62306 
L 320.306142 101.924898 
L 328.555445 107.693402 
L 334.038487 111.30759 
L 341.430344 115.894269 
L 348.335626 119.879418 
L 355.7746 123.849309 
L 362.490536 127.149316 
L 368.745818 129.986185 
L 375.980025 132.99132 
L 384.459965 136.153928 
L 390.236717 138.097171 
L 398.439499 140.580405 
L 404.743893 142.282387 
L 404.743893 142.282387 
" style="fill:none;stroke:#0000ff;stroke-linecap:square;"/>
   </g>
   <g id="line2d_54">
    <path clip-path="url(#p01a52a9e3a)" d="M 56.056107 155.055266 
L 67.132001 133.081564 
L 74.594469 118.807552 
L 80.319392 108.372485 
L 84.586384 100.970392 
L 89.949751 92.203021 
L 94.065233 85.930389 
L 97.992425 80.347622 
L 102.260955 74.756094 
L 105.566595 70.784046 
L 109.087681 66.910004 
L 112.556334 63.463202 
L 115.657047 60.698397 
L 119.000854 58.055574 
L 121.793958 56.119007 
L 125.375231 53.997069 
L 128.514419 52.46917 
L 130.83445 51.53753 
L 134.114012 50.503224 
L 137.0195 49.858776 
L 139.565546 49.499545 
L 142.832587 49.312529 
L 146.246571 49.435641 
L 148.853416 49.740794 
L 152.423083 50.442452 
L 155.085721 51.169866 
L 158.48629 52.33867 
L 162.262244 53.932228 
L 165.767998 55.669666 
L 169.524447 57.783371 
L 174.210741 60.747911 
L 179.34626 64.358751 
L 184.978341 68.678203 
L 192.442875 74.841153 
L 200.298987 81.676109 
L 222.184704 101.002896 
L 230.306137 107.789261 
L 236.98602 113.07084 
L 243.478987 117.897016 
L 249.166517 121.851179 
L 254.28711 125.181219 
L 259.494002 128.338171 
L 264.779351 131.304485 
L 270.957089 134.469783 
L 276.50522 137.041305 
L 282.084788 139.377747 
L 287.780994 141.516602 
L 293.405296 143.397874 
L 299.377338 145.161447 
L 305.975752 146.852113 
L 313.241228 148.430932 
L 320.008711 149.664619 
L 327.087105 150.740853 
L 335.146617 151.736701 
L 343.991143 152.593826 
L 353.09024 153.266308 
L 364.248606 153.865032 
L 377.405934 154.335666 
L 393.839061 154.684392 
L 404.743893 154.821323 
L 404.743893 154.821323 
" style="fill:none;stroke:#0000ff;stroke-linecap:square;"/>
   </g>
   <g id="line2d_55">
    <path clip-path="url(#p01a52a9e3a)" d="M 56.056107 155.055266 
L 66.992571 133.439028 
L 72.304853 123.393668 
L 76.894303 115.12729 
L 80.259011 109.368689 
L 84.024382 103.274741 
L 88.529967 96.527537 
L 92.058112 91.69765 
L 95.416489 87.496333 
L 98.850244 83.619468 
L 101.049987 81.365434 
L 104.521017 78.181785 
L 106.764237 76.370452 
L 109.608903 74.353587 
L 111.719365 73.059947 
L 114.173918 71.771842 
L 116.349038 70.823523 
L 118.848531 69.955276 
L 120.980972 69.398961 
L 123.920858 68.904519 
L 126.945186 68.716304 
L 129.271914 68.785153 
L 132.088223 69.107288 
L 134.262645 69.527733 
L 137.499618 70.416754 
L 139.619559 71.16069 
L 143.360107 72.763633 
L 146.426312 74.332664 
L 149.446867 76.081703 
L 153.562458 78.753519 
L 156.808785 81.06572 
L 161.825904 84.932013 
L 168.394184 90.39749 
L 176.9288 97.893305 
L 190.677862 110.043989 
L 197.953023 116.15533 
L 203.292062 120.395861 
L 209.288403 124.860676 
L 214.541839 128.486254 
L 220.09016 132.008146 
L 225.946554 135.375172 
L 231.54282 138.257402 
L 236.805501 140.676315 
L 242.104402 142.838264 
L 246.33744 144.378196 
L 251.556038 146.062211 
L 258.258798 147.905613 
L 262.127714 148.820658 
L 268.531852 150.121184 
L 275.530397 151.273436 
L 282.293999 152.160155 
L 291.292954 153.057244 
L 300.158348 153.692206 
L 310.798003 154.21282 
L 323.568048 154.597212 
L 340.734641 154.864012 
L 367.433073 155.011774 
L 404.743893 155.050981 
L 404.743893 155.050981 
" style="fill:none;stroke:#0000ff;stroke-linecap:square;"/>
   </g>
   <g id="patch_3">
    <path d="M 56.056107 158.046154 
L 56.056107 2.52 
" style="fill:none;stroke:#000000;stroke-linecap:square;stroke-linejoin:miter;stroke-width:0.8;"/>
   </g>
   <g id="patch_4">
    <path d="M 49.082351 155.055266 
L 411.717649 155.055266 
" style="fill:none;stroke:#000000;stroke-linecap:square;stroke-linejoin:miter;stroke-width:0.8;"/>
   </g>
  </g>
  <g id="axes_2">
   <g id="patch_5">
    <path d="M 49.083378 330.846154 
L 411.716622 330.846154 
L 411.716622 175.32 
L 49.083378 175.32 
z
" style="fill:#ffffff;"/>
   </g>
   <g id="matplotlib.axis_3">
    <g id="xtick_26">
     <g id="line2d_56">
      <g>
       <use style="stroke:#000000;stroke-width:0.8;" x="56.057095" xlink:href="#m351b61b9b7" y="327.855266"/>
      </g>
     </g>
    </g>
    <g id="xtick_27">
     <g id="line2d_57">
      <g>
       <use style="stroke:#000000;stroke-width:0.8;" x="143.228547" xlink:href="#m351b61b9b7" y="327.855266"/>
      </g>
     </g>
     <g id="text_10">
      <!-- 0.5 -->
      <g transform="translate(135.276985 342.453704)scale(0.1 -0.1)">
       <use xlink:href="#DejaVuSans-30"/>
       <use x="63.623047" xlink:href="#DejaVuSans-2e"/>
       <use x="95.410156" xlink:href="#DejaVuSans-35"/>
      </g>
     </g>
    </g>
    <g id="xtick_28">
     <g id="line2d_58">
      <g>
       <use style="stroke:#000000;stroke-width:0.8;" x="230.4" xlink:href="#m351b61b9b7" y="327.855266"/>
      </g>
     </g>
     <g id="text_11">
      <!-- 1 -->
      <g transform="translate(227.21875 342.453704)scale(0.1 -0.1)">
       <use xlink:href="#DejaVuSans-31"/>
      </g>
     </g>
    </g>
    <g id="xtick_29">
     <g id="line2d_59">
      <g>
       <use style="stroke:#000000;stroke-width:0.8;" x="317.571453" xlink:href="#m351b61b9b7" y="327.855266"/>
      </g>
     </g>
     <g id="text_12">
      <!-- 1.5 -->
      <g transform="translate(309.61989 342.453704)scale(0.1 -0.1)">
       <use xlink:href="#DejaVuSans-31"/>
       <use x="63.623047" xlink:href="#DejaVuSans-2e"/>
       <use x="95.410156" xlink:href="#DejaVuSans-35"/>
      </g>
     </g>
    </g>
    <g id="xtick_30">
     <g id="line2d_60">
      <g>
       <use style="stroke:#000000;stroke-width:0.8;" x="404.742905" xlink:href="#m351b61b9b7" y="327.855266"/>
      </g>
     </g>
     <g id="text_13">
      <!-- 2 -->
      <g transform="translate(401.561655 342.453704)scale(0.1 -0.1)">
       <use xlink:href="#DejaVuSans-32"/>
      </g>
     </g>
    </g>
    <g id="xtick_31">
     <g id="line2d_61">
      <g>
       <use style="stroke:#000000;stroke-width:0.6;" x="73.491385" xlink:href="#m92933c5d54" y="327.855266"/>
      </g>
     </g>
    </g>
    <g id="xtick_32">
     <g id="line2d_62">
      <g>
       <use style="stroke:#000000;stroke-width:0.6;" x="90.925676" xlink:href="#m92933c5d54" y="327.855266"/>
      </g>
     </g>
    </g>
    <g id="xtick_33">
     <g id="line2d_63">
      <g>
       <use style="stroke:#000000;stroke-width:0.6;" x="108.359966" xlink:href="#m92933c5d54" y="327.855266"/>
      </g>
     </g>
    </g>
    <g id="xtick_34">
     <g id="line2d_64">
      <g>
       <use style="stroke:#000000;stroke-width:0.6;" x="125.794257" xlink:href="#m92933c5d54" y="327.855266"/>
      </g>
     </g>
    </g>
    <g id="xtick_35">
     <g id="line2d_65">
      <g>
       <use style="stroke:#000000;stroke-width:0.6;" x="143.228547" xlink:href="#m92933c5d54" y="327.855266"/>
      </g>
     </g>
    </g>
    <g id="xtick_36">
     <g id="line2d_66">
      <g>
       <use style="stroke:#000000;stroke-width:0.6;" x="160.662838" xlink:href="#m92933c5d54" y="327.855266"/>
      </g>
     </g>
    </g>
    <g id="xtick_37">
     <g id="line2d_67">
      <g>
       <use style="stroke:#000000;stroke-width:0.6;" x="178.097128" xlink:href="#m92933c5d54" y="327.855266"/>
      </g>
     </g>
    </g>
    <g id="xtick_38">
     <g id="line2d_68">
      <g>
       <use style="stroke:#000000;stroke-width:0.6;" x="195.531419" xlink:href="#m92933c5d54" y="327.855266"/>
      </g>
     </g>
    </g>
    <g id="xtick_39">
     <g id="line2d_69">
      <g>
       <use style="stroke:#000000;stroke-width:0.6;" x="212.965709" xlink:href="#m92933c5d54" y="327.855266"/>
      </g>
     </g>
    </g>
    <g id="xtick_40">
     <g id="line2d_70">
      <g>
       <use style="stroke:#000000;stroke-width:0.6;" x="230.4" xlink:href="#m92933c5d54" y="327.855266"/>
      </g>
     </g>
    </g>
    <g id="xtick_41">
     <g id="line2d_71">
      <g>
       <use style="stroke:#000000;stroke-width:0.6;" x="247.834291" xlink:href="#m92933c5d54" y="327.855266"/>
      </g>
     </g>
    </g>
    <g id="xtick_42">
     <g id="line2d_72">
      <g>
       <use style="stroke:#000000;stroke-width:0.6;" x="265.268581" xlink:href="#m92933c5d54" y="327.855266"/>
      </g>
     </g>
    </g>
    <g id="xtick_43">
     <g id="line2d_73">
      <g>
       <use style="stroke:#000000;stroke-width:0.6;" x="282.702872" xlink:href="#m92933c5d54" y="327.855266"/>
      </g>
     </g>
    </g>
    <g id="xtick_44">
     <g id="line2d_74">
      <g>
       <use style="stroke:#000000;stroke-width:0.6;" x="300.137162" xlink:href="#m92933c5d54" y="327.855266"/>
      </g>
     </g>
    </g>
    <g id="xtick_45">
     <g id="line2d_75">
      <g>
       <use style="stroke:#000000;stroke-width:0.6;" x="317.571453" xlink:href="#m92933c5d54" y="327.855266"/>
      </g>
     </g>
    </g>
    <g id="xtick_46">
     <g id="line2d_76">
      <g>
       <use style="stroke:#000000;stroke-width:0.6;" x="335.005743" xlink:href="#m92933c5d54" y="327.855266"/>
      </g>
     </g>
    </g>
    <g id="xtick_47">
     <g id="line2d_77">
      <g>
       <use style="stroke:#000000;stroke-width:0.6;" x="352.440034" xlink:href="#m92933c5d54" y="327.855266"/>
      </g>
     </g>
    </g>
    <g id="xtick_48">
     <g id="line2d_78">
      <g>
       <use style="stroke:#000000;stroke-width:0.6;" x="369.874324" xlink:href="#m92933c5d54" y="327.855266"/>
      </g>
     </g>
    </g>
    <g id="xtick_49">
     <g id="line2d_79">
      <g>
       <use style="stroke:#000000;stroke-width:0.6;" x="387.308615" xlink:href="#m92933c5d54" y="327.855266"/>
      </g>
     </g>
    </g>
    <g id="xtick_50">
     <g id="line2d_80">
      <g>
       <use style="stroke:#000000;stroke-width:0.6;" x="404.742905" xlink:href="#m92933c5d54" y="327.855266"/>
      </g>
     </g>
    </g>
   </g>
   <g id="matplotlib.axis_4">
    <g id="ytick_28">
     <g id="line2d_81">
      <g>
       <use style="stroke:#000000;stroke-width:0.8;" x="56.057095" xlink:href="#m4b4af1494c" y="327.855266"/>
      </g>
     </g>
    </g>
    <g id="ytick_29">
     <g id="line2d_82">
      <g>
       <use style="stroke:#000000;stroke-width:0.8;" x="56.057095" xlink:href="#m4b4af1494c" y="299.960401"/>
      </g>
     </g>
     <g id="text_14">
      <!-- 0.2 -->
      <g transform="translate(33.15397 303.75962)scale(0.1 -0.1)">
       <use xlink:href="#DejaVuSans-30"/>
       <use x="63.623047" xlink:href="#DejaVuSans-2e"/>
       <use x="95.410156" xlink:href="#DejaVuSans-32"/>
      </g>
     </g>
    </g>
    <g id="ytick_30">
     <g id="line2d_83">
      <g>
       <use style="stroke:#000000;stroke-width:0.8;" x="56.057095" xlink:href="#m4b4af1494c" y="272.065537"/>
      </g>
     </g>
     <g id="text_15">
      <!-- 0.4 -->
      <g transform="translate(33.15397 275.864755)scale(0.1 -0.1)">
       <use xlink:href="#DejaVuSans-30"/>
       <use x="63.623047" xlink:href="#DejaVuSans-2e"/>
       <use x="95.410156" xlink:href="#DejaVuSans-34"/>
      </g>
     </g>
    </g>
    <g id="ytick_31">
     <g id="line2d_84">
      <g>
       <use style="stroke:#000000;stroke-width:0.8;" x="56.057095" xlink:href="#m4b4af1494c" y="244.170672"/>
      </g>
     </g>
     <g id="text_16">
      <!-- 0.6 -->
      <g transform="translate(33.15397 247.96989)scale(0.1 -0.1)">
       <use xlink:href="#DejaVuSans-30"/>
       <use x="63.623047" xlink:href="#DejaVuSans-2e"/>
       <use x="95.410156" xlink:href="#DejaVuSans-36"/>
      </g>
     </g>
    </g>
    <g id="ytick_32">
     <g id="line2d_85">
      <g>
       <use style="stroke:#000000;stroke-width:0.8;" x="56.057095" xlink:href="#m4b4af1494c" y="216.275807"/>
      </g>
     </g>
     <g id="text_17">
      <!-- 0.8 -->
      <g transform="translate(33.15397 220.075026)scale(0.1 -0.1)">
       <use xlink:href="#DejaVuSans-30"/>
       <use x="63.623047" xlink:href="#DejaVuSans-2e"/>
       <use x="95.410156" xlink:href="#DejaVuSans-38"/>
      </g>
     </g>
    </g>
    <g id="ytick_33">
     <g id="line2d_86">
      <g>
       <use style="stroke:#000000;stroke-width:0.8;" x="56.057095" xlink:href="#m4b4af1494c" y="188.380942"/>
      </g>
     </g>
     <g id="text_18">
      <!-- 1 -->
      <g transform="translate(42.694595 192.180161)scale(0.1 -0.1)">
       <use xlink:href="#DejaVuSans-31"/>
      </g>
     </g>
    </g>
    <g id="ytick_34">
     <g id="line2d_87">
      <g>
       <use style="stroke:#000000;stroke-width:0.6;" x="56.057095" xlink:href="#mf9accb02ce" y="320.88155"/>
      </g>
     </g>
    </g>
    <g id="ytick_35">
     <g id="line2d_88">
      <g>
       <use style="stroke:#000000;stroke-width:0.6;" x="56.057095" xlink:href="#mf9accb02ce" y="313.907834"/>
      </g>
     </g>
    </g>
    <g id="ytick_36">
     <g id="line2d_89">
      <g>
       <use style="stroke:#000000;stroke-width:0.6;" x="56.057095" xlink:href="#mf9accb02ce" y="306.934118"/>
      </g>
     </g>
    </g>
    <g id="ytick_37">
     <g id="line2d_90">
      <g>
       <use style="stroke:#000000;stroke-width:0.6;" x="56.057095" xlink:href="#mf9accb02ce" y="299.960401"/>
      </g>
     </g>
    </g>
    <g id="ytick_38">
     <g id="line2d_91">
      <g>
       <use style="stroke:#000000;stroke-width:0.6;" x="56.057095" xlink:href="#mf9accb02ce" y="292.986685"/>
      </g>
     </g>
    </g>
    <g id="ytick_39">
     <g id="line2d_92">
      <g>
       <use style="stroke:#000000;stroke-width:0.6;" x="56.057095" xlink:href="#mf9accb02ce" y="286.012969"/>
      </g>
     </g>
    </g>
    <g id="ytick_40">
     <g id="line2d_93">
      <g>
       <use style="stroke:#000000;stroke-width:0.6;" x="56.057095" xlink:href="#mf9accb02ce" y="279.039253"/>
      </g>
     </g>
    </g>
    <g id="ytick_41">
     <g id="line2d_94">
      <g>
       <use style="stroke:#000000;stroke-width:0.6;" x="56.057095" xlink:href="#mf9accb02ce" y="272.065537"/>
      </g>
     </g>
    </g>
    <g id="ytick_42">
     <g id="line2d_95">
      <g>
       <use style="stroke:#000000;stroke-width:0.6;" x="56.057095" xlink:href="#mf9accb02ce" y="265.09182"/>
      </g>
     </g>
    </g>
    <g id="ytick_43">
     <g id="line2d_96">
      <g>
       <use style="stroke:#000000;stroke-width:0.6;" x="56.057095" xlink:href="#mf9accb02ce" y="258.118104"/>
      </g>
     </g>
    </g>
    <g id="ytick_44">
     <g id="line2d_97">
      <g>
       <use style="stroke:#000000;stroke-width:0.6;" x="56.057095" xlink:href="#mf9accb02ce" y="251.144388"/>
      </g>
     </g>
    </g>
    <g id="ytick_45">
     <g id="line2d_98">
      <g>
       <use style="stroke:#000000;stroke-width:0.6;" x="56.057095" xlink:href="#mf9accb02ce" y="244.170672"/>
      </g>
     </g>
    </g>
    <g id="ytick_46">
     <g id="line2d_99">
      <g>
       <use style="stroke:#000000;stroke-width:0.6;" x="56.057095" xlink:href="#mf9accb02ce" y="237.196955"/>
      </g>
     </g>
    </g>
    <g id="ytick_47">
     <g id="line2d_100">
      <g>
       <use style="stroke:#000000;stroke-width:0.6;" x="56.057095" xlink:href="#mf9accb02ce" y="230.223239"/>
      </g>
     </g>
    </g>
    <g id="ytick_48">
     <g id="line2d_101">
      <g>
       <use style="stroke:#000000;stroke-width:0.6;" x="56.057095" xlink:href="#mf9accb02ce" y="223.249523"/>
      </g>
     </g>
    </g>
    <g id="ytick_49">
     <g id="line2d_102">
      <g>
       <use style="stroke:#000000;stroke-width:0.6;" x="56.057095" xlink:href="#mf9accb02ce" y="216.275807"/>
      </g>
     </g>
    </g>
    <g id="ytick_50">
     <g id="line2d_103">
      <g>
       <use style="stroke:#000000;stroke-width:0.6;" x="56.057095" xlink:href="#mf9accb02ce" y="209.302091"/>
      </g>
     </g>
    </g>
    <g id="ytick_51">
     <g id="line2d_104">
      <g>
       <use style="stroke:#000000;stroke-width:0.6;" x="56.057095" xlink:href="#mf9accb02ce" y="202.328374"/>
      </g>
     </g>
    </g>
    <g id="ytick_52">
     <g id="line2d_105">
      <g>
       <use style="stroke:#000000;stroke-width:0.6;" x="56.057095" xlink:href="#mf9accb02ce" y="195.354658"/>
      </g>
     </g>
    </g>
    <g id="ytick_53">
     <g id="line2d_106">
      <g>
       <use style="stroke:#000000;stroke-width:0.6;" x="56.057095" xlink:href="#mf9accb02ce" y="188.380942"/>
      </g>
     </g>
    </g>
    <g id="ytick_54">
     <g id="line2d_107">
      <g>
       <use style="stroke:#000000;stroke-width:0.6;" x="56.057095" xlink:href="#mf9accb02ce" y="181.407226"/>
      </g>
     </g>
    </g>
   </g>
   <g id="line2d_108">
    <path clip-path="url(#pa9d214a48b)" d="M 56.057095 327.855266 
L 71.245922 297.707303 
L 79.87564 281.099063 
L 85.325934 270.94438 
L 92.039058 258.892294 
L 98.818612 247.325477 
L 104.083817 238.82116 
L 108.136082 232.588827 
L 111.849142 227.132686 
L 117.363361 219.504128 
L 122.175314 213.33329 
L 125.661782 209.156798 
L 130.840025 203.424942 
L 134.541642 199.680742 
L 138.972205 195.593624 
L 142.063931 192.999019 
L 146.094596 189.936612 
L 149.852224 187.409071 
L 153.763273 185.113747 
L 157.698686 183.147956 
L 160.819046 181.832602 
L 163.348546 180.922787 
L 167.474882 179.735633 
L 171.087476 178.993892 
L 175.049438 178.493076 
L 179.075451 178.310888 
L 182.341384 178.398352 
L 185.985927 178.737207 
L 189.894985 179.374028 
L 193.55988 180.218214 
L 196.056486 180.92509 
L 200.734023 182.524264 
L 205.184461 184.361258 
L 210.611917 186.988368 
L 214.564878 189.149326 
L 218.278356 191.354598 
L 221.994317 193.718598 
L 227.83647 197.723199 
L 233.977289 202.26511 
L 240.220471 207.175485 
L 247.961488 213.588146 
L 256.761594 221.188791 
L 274.935906 237.340724 
L 286.823561 247.813998 
L 295.688274 255.394338 
L 304.896099 262.95977 
L 312.984308 269.28771 
L 318.628942 273.505603 
L 325.569234 278.451106 
L 332.515664 283.122393 
L 338.885363 287.153036 
L 345.154492 290.88013 
L 351.888245 294.617496 
L 357.505054 297.525684 
L 364.316819 300.801386 
L 368.926525 302.865294 
L 376.767468 306.101517 
L 383.441486 308.594338 
L 390.26227 310.905789 
L 397.079377 312.990565 
L 404.742905 315.082459 
L 404.742905 315.082459 
" style="fill:none;stroke:#ff0000;stroke-linecap:square;"/>
   </g>
   <g id="line2d_109">
    <path clip-path="url(#pa9d214a48b)" d="M 56.057095 327.855266 
L 67.663416 304.847461 
L 75.484353 289.953775 
L 80.21752 281.355171 
L 85.431406 272.349176 
L 90.047924 264.850211 
L 94.040855 258.767832 
L 97.879315 253.304115 
L 101.648717 248.327919 
L 104.68583 244.612388 
L 107.895151 240.981436 
L 111.532038 237.243577 
L 115.344544 233.764484 
L 118.206128 231.452741 
L 121.42675 229.160471 
L 123.848289 227.653173 
L 126.91864 226.008124 
L 129.864587 224.7075 
L 132.365345 223.814571 
L 135.870759 222.884105 
L 138.954498 222.369154 
L 141.564838 222.149708 
L 143.980885 222.118803 
L 147.525887 222.363559 
L 150.740685 222.872301 
L 153.875006 223.618561 
L 157.641812 224.824554 
L 160.522149 225.961047 
L 164.739397 227.935766 
L 168.694138 230.095317 
L 171.783607 231.970108 
L 175.935765 234.721938 
L 181.327543 238.639831 
L 186.669631 242.836676 
L 193.93075 248.91464 
L 203.35817 257.191148 
L 221.234784 272.987723 
L 229.213781 279.69823 
L 234.017585 283.561306 
L 241.563579 289.30714 
L 247.077283 293.229653 
L 251.845401 296.421217 
L 257.906412 300.200528 
L 264.100406 303.737089 
L 270.628145 307.109571 
L 274.859444 309.104993 
L 279.477981 311.116845 
L 284.96079 313.288134 
L 290.067598 315.108445 
L 295.858148 316.950537 
L 302.868459 318.888279 
L 309.265056 320.401775 
L 316.407156 321.834863 
L 324.67264 323.196627 
L 332.748535 324.263747 
L 341.28052 325.154631 
L 350.224113 325.874665 
L 361.473874 326.535965 
L 373.724464 327.024848 
L 389.873908 327.418571 
L 404.742905 327.621324 
L 404.742905 327.621324 
" style="fill:none;stroke:#ff0000;stroke-dasharray:3.7,1.6;stroke-dashoffset:0;"/>
   </g>
   <g id="line2d_110">
    <path clip-path="url(#pa9d214a48b)" d="M 56.057095 327.855266 
L 65.808257 308.535112 
L 71.734572 297.251786 
L 75.828737 289.808629 
L 80.559819 281.66938 
L 84.361251 275.5506 
L 88.14289 269.883844 
L 91.496226 265.240284 
L 94.439067 261.479362 
L 97.773561 257.589771 
L 101.320585 253.901873 
L 104.23052 251.231595 
L 106.620827 249.281418 
L 109.739395 247.069496 
L 111.762121 245.836369 
L 114.495872 244.420853 
L 117.17575 243.311001 
L 119.153121 242.666157 
L 121.341534 242.122072 
L 123.637014 241.73926 
L 126.396339 241.527349 
L 128.898335 241.562324 
L 131.700909 241.848277 
L 135.151971 242.541616 
L 138.342819 243.498093 
L 141.395414 244.677283 
L 143.877001 245.812912 
L 148.067518 248.059415 
L 150.731125 249.681751 
L 154.962545 252.530454 
L 159.820195 256.148349 
L 164.047178 259.537285 
L 169.780592 264.393357 
L 179.834396 273.285405 
L 190.17996 282.414347 
L 198.214905 289.168692 
L 202.611038 292.668215 
L 208.370915 296.999519 
L 214.891678 301.517852 
L 220.609821 305.121609 
L 225.326183 307.83568 
L 231.211034 310.895636 
L 236.526232 313.354974 
L 241.245621 315.306021 
L 245.700012 316.956641 
L 251.380823 318.809426 
L 257.034854 320.394292 
L 263.694338 321.962603 
L 268.993628 323.005478 
L 276.534035 324.218211 
L 284.41289 325.198105 
L 291.761135 325.896403 
L 301.423369 326.566397 
L 312.191786 327.065718 
L 326.183697 327.452689 
L 344.390831 327.697747 
L 374.271801 327.826208 
L 404.742905 327.850981 
L 404.742905 327.850981 
" style="fill:none;stroke:#008000;stroke-dasharray:6.4,1.6,1,1.6;stroke-dashoffset:0;"/>
   </g>
   <g id="patch_6">
    <path d="M 56.057095 330.846154 
L 56.057095 175.32 
" style="fill:none;stroke:#000000;stroke-linecap:square;stroke-linejoin:miter;stroke-width:0.8;"/>
   </g>
   <g id="patch_7">
    <path d="M 49.083378 327.855266 
L 411.716622 327.855266 
" style="fill:none;stroke:#000000;stroke-linecap:square;stroke-linejoin:miter;stroke-width:0.8;"/>
   </g>
  </g>
 </g>
 <defs>
  <clipPath id="p01a52a9e3a">
   <rect height="155.526154" width="362.635298" x="49.082351" y="2.52"/>
  </clipPath>
  <clipPath id="pa9d214a48b">
   <rect height="155.526154" width="362.633243" x="49.083378" y="175.32"/>
  </clipPath>
 </defs>
</svg>
