<?xml version="1.0" encoding="utf-8" standalone="no"?>
<!DOCTYPE svg PUBLIC "-//W3C//DTD SVG 1.1//EN"
  "http://www.w3.org/Graphics/SVG/1.1/DTD/svg11.dtd">
<svg xmlns:xlink="http://www.w3.org/1999/xlink" width="460.8pt" height="345.6pt" viewBox="0 0 460.8 345.6" xmlns="http://www.w3.org/2000/svg" version="1.1">
 <metadata>
  <rdf:RDF xmlns:dc="http://purl.org/dc/elements/1.1/" xmlns:cc="http://creativecommons.org/ns#" xmlns:rdf="http://www.w3.org/1999/02/22-rdf-syntax-ns#">
   <cc:Work>
    <dc:type rdf:resource="http://purl.org/dc/dcmitype/StillImage"/>
    <dc:date>2023-05-25T19:52:25.623931</dc:date>
    <dc:format>image/svg+xml</dc:format>
    <dc:creator>
     <cc:Agent>
      <dc:title>Matplotlib v3.6.2, https://matplotlib.org/</dc:title>
     </cc:Agent>
    </dc:creator>
   </cc:Work>
  </rdf:RDF>
 </metadata>
 <defs>
  <style type="text/css">*{stroke-linejoin: round; stroke-linecap: butt}</style>
 </defs>
 <g id="figure_1">
  <g id="patch_1">
   <path d="M 0 345.6 
L 460.8 345.6 
L 460.8 0 
L 0 0 
z
" style="fill: #ffffff"/>
  </g>
  <g id="axes_1">
   <g id="patch_2">
    <path d="M 31.76 345.6 
L 460.8 345.6 
L 460.8 0 
L 31.76 0 
z
" style="fill: #ffffff"/>
   </g>
   <g id="matplotlib.axis_1">
    <g id="xtick_1">
     <g id="line2d_1">
      <defs>
       <path id="mfcc7ca3386" d="M 0 0 
L 0 3.5 
" style="stroke: #000000; stroke-width: 0.8"/>
      </defs>
      <g>
       <use xlink:href="#mfcc7ca3386" x="103.478225" y="202.139306" style="stroke: #000000; stroke-width: 0.8"/>
      </g>
     </g>
     <g id="text_1">
      <!-- 5 -->
      <g transform="translate(100.296975 216.737744) scale(0.1 -0.1)">
       <defs>
        <path id="DejaVuSans-35" d="M 691 4666 
L 3169 4666 
L 3169 4134 
L 1269 4134 
L 1269 2991 
Q 1406 3038 1543 3061 
Q 1681 3084 1819 3084 
Q 2600 3084 3056 2656 
Q 3513 2228 3513 1497 
Q 3513 744 3044 326 
Q 2575 -91 1722 -91 
Q 1428 -91 1123 -41 
Q 819 9 494 109 
L 494 744 
Q 775 591 1075 516 
Q 1375 441 1709 441 
Q 2250 441 2565 725 
Q 2881 1009 2881 1497 
Q 2881 1984 2565 2268 
Q 2250 2553 1709 2553 
Q 1456 2553 1204 2497 
Q 953 2441 691 2322 
L 691 4666 
z
" transform="scale(0.015625)"/>
       </defs>
       <use xlink:href="#DejaVuSans-35"/>
      </g>
     </g>
    </g>
    <g id="xtick_2">
     <g id="line2d_2">
      <g>
       <use xlink:href="#mfcc7ca3386" x="182.812544" y="202.139306" style="stroke: #000000; stroke-width: 0.8"/>
      </g>
     </g>
     <g id="text_2">
      <!-- 10 -->
      <g transform="translate(176.450044 216.737744) scale(0.1 -0.1)">
       <defs>
        <path id="DejaVuSans-31" d="M 794 531 
L 1825 531 
L 1825 4091 
L 703 3866 
L 703 4441 
L 1819 4666 
L 2450 4666 
L 2450 531 
L 3481 531 
L 3481 0 
L 794 0 
L 794 531 
z
" transform="scale(0.015625)"/>
        <path id="DejaVuSans-30" d="M 2034 4250 
Q 1547 4250 1301 3770 
Q 1056 3291 1056 2328 
Q 1056 1369 1301 889 
Q 1547 409 2034 409 
Q 2525 409 2770 889 
Q 3016 1369 3016 2328 
Q 3016 3291 2770 3770 
Q 2525 4250 2034 4250 
z
M 2034 4750 
Q 2819 4750 3233 4129 
Q 3647 3509 3647 2328 
Q 3647 1150 3233 529 
Q 2819 -91 2034 -91 
Q 1250 -91 836 529 
Q 422 1150 422 2328 
Q 422 3509 836 4129 
Q 1250 4750 2034 4750 
z
" transform="scale(0.015625)"/>
       </defs>
       <use xlink:href="#DejaVuSans-31"/>
       <use xlink:href="#DejaVuSans-30" x="63.623047"/>
      </g>
     </g>
    </g>
    <g id="xtick_3">
     <g id="line2d_3">
      <g>
       <use xlink:href="#mfcc7ca3386" x="262.146864" y="202.139306" style="stroke: #000000; stroke-width: 0.8"/>
      </g>
     </g>
     <g id="text_3">
      <!-- 15 -->
      <g transform="translate(255.784364 216.737744) scale(0.1 -0.1)">
       <use xlink:href="#DejaVuSans-31"/>
       <use xlink:href="#DejaVuSans-35" x="63.623047"/>
      </g>
     </g>
    </g>
    <g id="xtick_4">
     <g id="line2d_4">
      <g>
       <use xlink:href="#mfcc7ca3386" x="341.481183" y="202.139306" style="stroke: #000000; stroke-width: 0.8"/>
      </g>
     </g>
     <g id="text_4">
      <!-- 20 -->
      <g transform="translate(335.118683 216.737744) scale(0.1 -0.1)">
       <defs>
        <path id="DejaVuSans-32" d="M 1228 531 
L 3431 531 
L 3431 0 
L 469 0 
L 469 531 
Q 828 903 1448 1529 
Q 2069 2156 2228 2338 
Q 2531 2678 2651 2914 
Q 2772 3150 2772 3378 
Q 2772 3750 2511 3984 
Q 2250 4219 1831 4219 
Q 1534 4219 1204 4116 
Q 875 4013 500 3803 
L 500 4441 
Q 881 4594 1212 4672 
Q 1544 4750 1819 4750 
Q 2544 4750 2975 4387 
Q 3406 4025 3406 3419 
Q 3406 3131 3298 2873 
Q 3191 2616 2906 2266 
Q 2828 2175 2409 1742 
Q 1991 1309 1228 531 
z
" transform="scale(0.015625)"/>
       </defs>
       <use xlink:href="#DejaVuSans-32"/>
       <use xlink:href="#DejaVuSans-30" x="63.623047"/>
      </g>
     </g>
    </g>
    <g id="xtick_5">
     <g id="line2d_5">
      <g>
       <use xlink:href="#mfcc7ca3386" x="420.815503" y="202.139306" style="stroke: #000000; stroke-width: 0.8"/>
      </g>
     </g>
     <g id="text_5">
      <!-- 25 -->
      <g transform="translate(414.453003 216.737744) scale(0.1 -0.1)">
       <use xlink:href="#DejaVuSans-32"/>
       <use xlink:href="#DejaVuSans-35" x="63.623047"/>
      </g>
     </g>
    </g>
    <g id="xtick_6">
     <g id="line2d_6">
      <defs>
       <path id="m12ce60dc93" d="M 0 0 
L 0 2 
" style="stroke: #000000; stroke-width: 0.6"/>
      </defs>
      <g>
       <use xlink:href="#m12ce60dc93" x="40.010769" y="202.139306" style="stroke: #000000; stroke-width: 0.6"/>
      </g>
     </g>
    </g>
    <g id="xtick_7">
     <g id="line2d_7">
      <g>
       <use xlink:href="#m12ce60dc93" x="55.877633" y="202.139306" style="stroke: #000000; stroke-width: 0.6"/>
      </g>
     </g>
    </g>
    <g id="xtick_8">
     <g id="line2d_8">
      <g>
       <use xlink:href="#m12ce60dc93" x="71.744497" y="202.139306" style="stroke: #000000; stroke-width: 0.6"/>
      </g>
     </g>
    </g>
    <g id="xtick_9">
     <g id="line2d_9">
      <g>
       <use xlink:href="#m12ce60dc93" x="87.611361" y="202.139306" style="stroke: #000000; stroke-width: 0.6"/>
      </g>
     </g>
    </g>
    <g id="xtick_10">
     <g id="line2d_10">
      <g>
       <use xlink:href="#m12ce60dc93" x="119.345089" y="202.139306" style="stroke: #000000; stroke-width: 0.6"/>
      </g>
     </g>
    </g>
    <g id="xtick_11">
     <g id="line2d_11">
      <g>
       <use xlink:href="#m12ce60dc93" x="135.211953" y="202.139306" style="stroke: #000000; stroke-width: 0.6"/>
      </g>
     </g>
    </g>
    <g id="xtick_12">
     <g id="line2d_12">
      <g>
       <use xlink:href="#m12ce60dc93" x="151.078817" y="202.139306" style="stroke: #000000; stroke-width: 0.6"/>
      </g>
     </g>
    </g>
    <g id="xtick_13">
     <g id="line2d_13">
      <g>
       <use xlink:href="#m12ce60dc93" x="166.94568" y="202.139306" style="stroke: #000000; stroke-width: 0.6"/>
      </g>
     </g>
    </g>
    <g id="xtick_14">
     <g id="line2d_14">
      <g>
       <use xlink:href="#m12ce60dc93" x="198.679408" y="202.139306" style="stroke: #000000; stroke-width: 0.6"/>
      </g>
     </g>
    </g>
    <g id="xtick_15">
     <g id="line2d_15">
      <g>
       <use xlink:href="#m12ce60dc93" x="214.546272" y="202.139306" style="stroke: #000000; stroke-width: 0.6"/>
      </g>
     </g>
    </g>
    <g id="xtick_16">
     <g id="line2d_16">
      <g>
       <use xlink:href="#m12ce60dc93" x="230.413136" y="202.139306" style="stroke: #000000; stroke-width: 0.6"/>
      </g>
     </g>
    </g>
    <g id="xtick_17">
     <g id="line2d_17">
      <g>
       <use xlink:href="#m12ce60dc93" x="246.28" y="202.139306" style="stroke: #000000; stroke-width: 0.6"/>
      </g>
     </g>
    </g>
    <g id="xtick_18">
     <g id="line2d_18">
      <g>
       <use xlink:href="#m12ce60dc93" x="278.013728" y="202.139306" style="stroke: #000000; stroke-width: 0.6"/>
      </g>
     </g>
    </g>
    <g id="xtick_19">
     <g id="line2d_19">
      <g>
       <use xlink:href="#m12ce60dc93" x="293.880592" y="202.139306" style="stroke: #000000; stroke-width: 0.6"/>
      </g>
     </g>
    </g>
    <g id="xtick_20">
     <g id="line2d_20">
      <g>
       <use xlink:href="#m12ce60dc93" x="309.747456" y="202.139306" style="stroke: #000000; stroke-width: 0.6"/>
      </g>
     </g>
    </g>
    <g id="xtick_21">
     <g id="line2d_21">
      <g>
       <use xlink:href="#m12ce60dc93" x="325.61432" y="202.139306" style="stroke: #000000; stroke-width: 0.6"/>
      </g>
     </g>
    </g>
    <g id="xtick_22">
     <g id="line2d_22">
      <g>
       <use xlink:href="#m12ce60dc93" x="357.348047" y="202.139306" style="stroke: #000000; stroke-width: 0.6"/>
      </g>
     </g>
    </g>
    <g id="xtick_23">
     <g id="line2d_23">
      <g>
       <use xlink:href="#m12ce60dc93" x="373.214911" y="202.139306" style="stroke: #000000; stroke-width: 0.6"/>
      </g>
     </g>
    </g>
    <g id="xtick_24">
     <g id="line2d_24">
      <g>
       <use xlink:href="#m12ce60dc93" x="389.081775" y="202.139306" style="stroke: #000000; stroke-width: 0.6"/>
      </g>
     </g>
    </g>
    <g id="xtick_25">
     <g id="line2d_25">
      <g>
       <use xlink:href="#m12ce60dc93" x="404.948639" y="202.139306" style="stroke: #000000; stroke-width: 0.6"/>
      </g>
     </g>
    </g>
    <g id="xtick_26">
     <g id="line2d_26">
      <g>
       <use xlink:href="#m12ce60dc93" x="436.682367" y="202.139306" style="stroke: #000000; stroke-width: 0.6"/>
      </g>
     </g>
    </g>
    <g id="xtick_27">
     <g id="line2d_27">
      <g>
       <use xlink:href="#m12ce60dc93" x="452.549231" y="202.139306" style="stroke: #000000; stroke-width: 0.6"/>
      </g>
     </g>
    </g>
   </g>
   <g id="matplotlib.axis_2">
    <g id="ytick_1">
     <g id="line2d_28">
      <defs>
       <path id="mdadbcfef59" d="M 0 0 
L -3.5 0 
" style="stroke: #000000; stroke-width: 0.8"/>
      </defs>
      <g>
       <use xlink:href="#mdadbcfef59" x="21.76" y="278.548097" style="stroke: #000000; stroke-width: 0.8"/>
      </g>
     </g>
     <g id="text_6">
      <!-- −1 -->
      <g transform="translate(0.017813 282.347316) scale(0.1 -0.1)">
       <defs>
        <path id="DejaVuSans-2212" d="M 678 2272 
L 4684 2272 
L 4684 1741 
L 678 1741 
L 678 2272 
z
" transform="scale(0.015625)"/>
       </defs>
       <use xlink:href="#DejaVuSans-2212"/>
       <use xlink:href="#DejaVuSans-31" x="83.789062"/>
      </g>
     </g>
    </g>
    <g id="ytick_2">
     <g id="line2d_29">
      <g>
       <use xlink:href="#mdadbcfef59" x="21.76" y="202.139306" style="stroke: #000000; stroke-width: 0.8"/>
      </g>
     </g>
     <g id="text_7">
      <!-- 0 -->
      <g transform="translate(8.3975 205.938525) scale(0.1 -0.1)">
       <use xlink:href="#DejaVuSans-30"/>
      </g>
     </g>
    </g>
    <g id="ytick_3">
     <g id="line2d_30">
      <g>
       <use xlink:href="#mdadbcfef59" x="21.76" y="125.730516" style="stroke: #000000; stroke-width: 0.8"/>
      </g>
     </g>
     <g id="text_8">
      <!-- 1 -->
      <g transform="translate(8.3975 129.529734) scale(0.1 -0.1)">
       <use xlink:href="#DejaVuSans-31"/>
      </g>
     </g>
    </g>
    <g id="ytick_4">
     <g id="line2d_31">
      <g>
       <use xlink:href="#mdadbcfef59" x="21.76" y="49.321725" style="stroke: #000000; stroke-width: 0.8"/>
      </g>
     </g>
     <g id="text_9">
      <!-- 2 -->
      <g transform="translate(8.3975 53.120944) scale(0.1 -0.1)">
       <use xlink:href="#DejaVuSans-32"/>
      </g>
     </g>
    </g>
    <g id="ytick_5">
     <g id="line2d_32">
      <defs>
       <path id="m405c1d4752" d="M 0 0 
L -2 0 
" style="stroke: #000000; stroke-width: 0.6"/>
      </defs>
      <g>
       <use xlink:href="#m405c1d4752" x="21.76" y="339.675129" style="stroke: #000000; stroke-width: 0.6"/>
      </g>
     </g>
    </g>
    <g id="ytick_6">
     <g id="line2d_33">
      <g>
       <use xlink:href="#m405c1d4752" x="21.76" y="324.393371" style="stroke: #000000; stroke-width: 0.6"/>
      </g>
     </g>
    </g>
    <g id="ytick_7">
     <g id="line2d_34">
      <g>
       <use xlink:href="#m405c1d4752" x="21.76" y="309.111613" style="stroke: #000000; stroke-width: 0.6"/>
      </g>
     </g>
    </g>
    <g id="ytick_8">
     <g id="line2d_35">
      <g>
       <use xlink:href="#m405c1d4752" x="21.76" y="293.829855" style="stroke: #000000; stroke-width: 0.6"/>
      </g>
     </g>
    </g>
    <g id="ytick_9">
     <g id="line2d_36">
      <g>
       <use xlink:href="#m405c1d4752" x="21.76" y="263.266339" style="stroke: #000000; stroke-width: 0.6"/>
      </g>
     </g>
    </g>
    <g id="ytick_10">
     <g id="line2d_37">
      <g>
       <use xlink:href="#m405c1d4752" x="21.76" y="247.984581" style="stroke: #000000; stroke-width: 0.6"/>
      </g>
     </g>
    </g>
    <g id="ytick_11">
     <g id="line2d_38">
      <g>
       <use xlink:href="#m405c1d4752" x="21.76" y="232.702823" style="stroke: #000000; stroke-width: 0.6"/>
      </g>
     </g>
    </g>
    <g id="ytick_12">
     <g id="line2d_39">
      <g>
       <use xlink:href="#m405c1d4752" x="21.76" y="217.421064" style="stroke: #000000; stroke-width: 0.6"/>
      </g>
     </g>
    </g>
    <g id="ytick_13">
     <g id="line2d_40">
      <g>
       <use xlink:href="#m405c1d4752" x="21.76" y="186.857548" style="stroke: #000000; stroke-width: 0.6"/>
      </g>
     </g>
    </g>
    <g id="ytick_14">
     <g id="line2d_41">
      <g>
       <use xlink:href="#m405c1d4752" x="21.76" y="171.57579" style="stroke: #000000; stroke-width: 0.6"/>
      </g>
     </g>
    </g>
    <g id="ytick_15">
     <g id="line2d_42">
      <g>
       <use xlink:href="#m405c1d4752" x="21.76" y="156.294032" style="stroke: #000000; stroke-width: 0.6"/>
      </g>
     </g>
    </g>
    <g id="ytick_16">
     <g id="line2d_43">
      <g>
       <use xlink:href="#m405c1d4752" x="21.76" y="141.012274" style="stroke: #000000; stroke-width: 0.6"/>
      </g>
     </g>
    </g>
    <g id="ytick_17">
     <g id="line2d_44">
      <g>
       <use xlink:href="#m405c1d4752" x="21.76" y="110.448758" style="stroke: #000000; stroke-width: 0.6"/>
      </g>
     </g>
    </g>
    <g id="ytick_18">
     <g id="line2d_45">
      <g>
       <use xlink:href="#m405c1d4752" x="21.76" y="95.166999" style="stroke: #000000; stroke-width: 0.6"/>
      </g>
     </g>
    </g>
    <g id="ytick_19">
     <g id="line2d_46">
      <g>
       <use xlink:href="#m405c1d4752" x="21.76" y="79.885241" style="stroke: #000000; stroke-width: 0.6"/>
      </g>
     </g>
    </g>
    <g id="ytick_20">
     <g id="line2d_47">
      <g>
       <use xlink:href="#m405c1d4752" x="21.76" y="64.603483" style="stroke: #000000; stroke-width: 0.6"/>
      </g>
     </g>
    </g>
    <g id="ytick_21">
     <g id="line2d_48">
      <g>
       <use xlink:href="#m405c1d4752" x="21.76" y="34.039967" style="stroke: #000000; stroke-width: 0.6"/>
      </g>
     </g>
    </g>
    <g id="ytick_22">
     <g id="line2d_49">
      <g>
       <use xlink:href="#m405c1d4752" x="21.76" y="18.758209" style="stroke: #000000; stroke-width: 0.6"/>
      </g>
     </g>
    </g>
    <g id="ytick_23">
     <g id="line2d_50">
      <g>
       <use xlink:href="#m405c1d4752" x="21.76" y="3.476451" style="stroke: #000000; stroke-width: 0.6"/>
      </g>
     </g>
    </g>
   </g>
   <g id="line2d_51">
    <path d="M 40.010769 307.1284 
L 42.734231 294.638705 
L 45.671915 282.651016 
L 48.80415 271.2 
L 50.806349 264.477704 
L 54.189049 254.022735 
L 57.764295 244.04597 
L 59.962631 238.396423 
L 64.532957 227.704335 
L 66.499472 223.505468 
L 69.410464 217.697998 
L 72.839245 211.442183 
L 74.63256 208.407283 
L 76.979354 204.668893 
L 80.585743 199.413754 
L 82.735355 196.549715 
L 87.184989 191.220953 
L 89.120974 189.143225 
L 93.9893 184.526449 
L 95.644298 183.146898 
L 99.33521 180.400821 
L 102.244759 178.545921 
L 105.547987 176.757042 
L 109.66434 174.979596 
L 114.350363 173.537482 
L 116.474426 173.079272 
L 118.594291 172.739578 
L 123.144806 172.394978 
L 126.105005 172.443294 
L 129.543535 172.759372 
L 133.582415 173.475665 
L 137.193245 174.420902 
L 140.584123 175.562021 
L 145.02397 177.415159 
L 149.557998 179.713412 
L 150.926869 180.485618 
L 156.092067 183.717164 
L 160.849397 187.125302 
L 164.777504 190.240844 
L 168.387352 193.337356 
L 172.129807 196.777459 
L 176.533115 201.116707 
L 182.500097 207.484606 
L 186.575077 212.146043 
L 193.119866 220.145785 
L 200.090596 229.337508 
L 205.308999 236.655654 
L 210.834905 244.799668 
L 216.000474 252.769258 
L 221.864977 262.222886 
L 229.176101 274.594007 
L 234.347758 283.725584 
L 242.173789 298.124491 
L 248.402314 310.06904 
L 248.450254 70.11731 
L 248.498194 70.210901 
L 252.664957 78.43919 
L 258.879747 91.05086 
L 266.4988 107.051986 
L 274.624964 124.753599 
L 281.798085 140.907554 
L 289.32291 158.37033 
L 298.470562 180.290501 
L 307.35813 202.291432 
L 315.932926 224.155113 
L 323.115882 242.937858 
L 331.774959 266.132192 
L 340.951111 291.351918 
L 348.531494 312.669498 
L 357.676433 338.953846 
L 357.751533 99.126925 
L 357.826633 99.34534 
L 366.772365 125.651148 
L 377.678148 158.480186 
L 388.741056 192.609982 
L 398.295205 222.736673 
L 408.760088 256.408873 
L 420.950412 296.49634 
L 420.99787 56.60889 
L 421.045328 56.766749 
L 431.998707 93.562917 
L 442.252121 128.650031 
L 452.549231 164.496101 
L 452.549231 164.496101 
" clip-path="url(#p9595e479c8)" style="fill: none; stroke: #cc0000; stroke-linecap: square"/>
   </g>
   <g id="line2d_52">
    <path d="M 40.010769 145.879096 
L 41.547142 148.749192 
L 43.083515 151.175812 
L 44.767039 153.405584 
L 46.559114 155.365466 
L 48.40809 157.014296 
L 49.81737 158.055069 
L 51.618574 159.152691 
L 53.807162 160.186051 
L 56.442062 161.064774 
L 58.030078 161.430478 
L 60.234342 161.762152 
L 64.127353 161.921431 
L 66.282344 161.808887 
L 68.783565 161.522571 
L 73.121618 160.675947 
L 77.35125 159.474942 
L 79.128691 158.870384 
L 82.56937 157.54463 
L 88.707711 154.706796 
L 93.387734 152.166841 
L 98.548837 149.015399 
L 104.3919 145.033232 
L 107.980081 142.384043 
L 113.1867 138.285493 
L 119.859301 132.638509 
L 126.766131 126.408039 
L 135.458541 118.190861 
L 146.972612 107.169483 
L 155.116433 99.75745 
L 160.284598 95.440458 
L 161.711654 94.322054 
L 165.140344 91.792198 
L 167.667137 90.088813 
L 171.326821 87.902309 
L 175.294614 85.963043 
L 179.175937 84.566343 
L 180.923108 84.117279 
L 184.173221 83.6067 
L 186.187485 83.516792 
L 190.254571 83.908285 
L 193.158596 84.691442 
L 194.728997 85.300889 
L 196.764911 86.293854 
L 199.253873 87.830789 
L 200.675622 88.873658 
L 203.40873 91.227083 
L 205.301199 93.133147 
L 208.587956 96.999093 
L 211.614824 101.201161 
L 215.009303 106.665543 
L 217.932759 112.020649 
L 220.699902 117.648454 
L 222.816133 122.320272 
L 226.698303 131.715264 
L 231.248079 144.05994 
L 234.173309 152.731345 
L 237.326188 162.689996 
L 241.21638 175.796779 
L 246.534174 195.017959 
L 248.393265 202.046119 
L 249.012962 199.858611 
L 254.50964 178.231435 
L 262.378763 146.178536 
L 269.771298 116.172753 
L 273.520109 101.485083 
L 277.869007 85.255629 
L 282.875647 68.072422 
L 285.236432 60.669063 
L 286.700726 56.336269 
L 290.294991 46.633045 
L 291.792185 43.014622 
L 293.421132 39.382308 
L 295.587229 35.070094 
L 297.065609 32.482825 
L 298.394187 30.414232 
L 300.62262 27.510376 
L 301.938165 26.139864 
L 303.25371 25.032101 
L 304.771448 24.0878 
L 306.289186 23.508491 
L 307.231457 23.335569 
L 308.96889 23.397538 
L 310.89092 24.049404 
L 312.295997 24.918358 
L 313.701074 26.12147 
L 315.796845 28.540009 
L 316.856311 30.047437 
L 318.422585 32.625844 
L 319.98886 35.619896 
L 321.388532 38.644501 
L 323.429795 43.638791 
L 325.928858 50.676207 
L 329.221408 61.442509 
L 331.870126 71.271536 
L 334.882528 83.622329 
L 337.307503 94.392986 
L 340.601235 110.06614 
L 344.700419 130.962249 
L 348.350217 150.523657 
L 357.687877 202.085266 
L 358.050626 200.20977 
L 362.252956 177.715821 
L 366.730094 155.242722 
L 370.173121 139.482068 
L 372.663271 129.122009 
L 375.187406 119.652322 
L 377.544415 111.853267 
L 378.850457 108.000343 
L 380.156499 104.500117 
L 381.729012 100.77302 
L 383.816118 96.684175 
L 384.843016 95.044458 
L 385.869915 93.65695 
L 387.470034 92.008262 
L 389.194133 90.946908 
L 390.918232 90.642557 
L 392.101908 90.878264 
L 393.724948 91.79595 
L 394.628497 92.60635 
L 395.532046 93.631549 
L 396.435595 94.871629 
L 397.339144 96.326358 
L 398.627425 98.770572 
L 400.169528 102.264726 
L 402.281115 108.040852 
L 403.942379 113.374857 
L 405.57721 119.284908 
L 407.212041 125.83049 
L 410.078885 138.770418 
L 412.347816 150.245572 
L 414.862353 164.120304 
L 418.176039 184.034049 
L 420.961693 201.967028 
L 421.065558 201.625196 
L 424.655172 177.284102 
L 438.576322 80.574339 
L 441.599655 61.414036 
L 445.015758 41.540699 
L 447.671419 27.69209 
L 449.669846 18.336225 
L 451.109538 12.215619 
L 452.549231 6.646154 
L 452.549231 6.646154 
" clip-path="url(#p9595e479c8)" style="fill: none; stroke: #3300ff; stroke-linecap: square"/>
   </g>
   <g id="patch_3">
    <path d="M 21.76 345.6 
L 21.76 0 
" style="fill: none; stroke: #000000; stroke-width: 0.8; stroke-linejoin: miter; stroke-linecap: square"/>
   </g>
   <g id="patch_4">
    <path d="M 31.76 202.139306 
L 460.8 202.139306 
" style="fill: none; stroke: #000000; stroke-width: 0.8; stroke-linejoin: miter; stroke-linecap: square"/>
   </g>
  </g>
 </g>
 <defs>
  <clipPath id="p9595e479c8">
   <rect x="31.76" y="0" width="429.04" height="345.6"/>
  </clipPath>
 </defs>
</svg>
