<?xml version="1.0" encoding="utf-8" standalone="no"?>
<!DOCTYPE svg PUBLIC "-//W3C//DTD SVG 1.1//EN"
  "http://www.w3.org/Graphics/SVG/1.1/DTD/svg11.dtd">
<!-- Created with matplotlib (https://matplotlib.org/) -->
<svg height="345.6pt" version="1.1" viewBox="0 0 460.8 345.6" width="460.8pt" xmlns="http://www.w3.org/2000/svg" xmlns:xlink="http://www.w3.org/1999/xlink">
 <metadata>
  <rdf:RDF xmlns:cc="http://creativecommons.org/ns#" xmlns:dc="http://purl.org/dc/elements/1.1/" xmlns:rdf="http://www.w3.org/1999/02/22-rdf-syntax-ns#">
   <cc:Work>
    <dc:type rdf:resource="http://purl.org/dc/dcmitype/StillImage"/>
    <dc:date>2021-05-10T20:21:47.978953</dc:date>
    <dc:format>image/svg+xml</dc:format>
    <dc:creator>
     <cc:Agent>
      <dc:title>Matplotlib v3.3.4, https://matplotlib.org/</dc:title>
     </cc:Agent>
    </dc:creator>
   </cc:Work>
  </rdf:RDF>
 </metadata>
 <defs>
  <style type="text/css">*{stroke-linecap:butt;stroke-linejoin:round;}</style>
 </defs>
 <g id="figure_1">
  <g id="patch_1">
   <path d="M 0 345.6 
L 460.8 345.6 
L 460.8 0 
L 0 0 
z
" style="fill:#ffffff;"/>
  </g>
  <g id="axes_1">
   <g id="patch_2">
    <path d="M 80.75413 345.6 
L 380.04587 345.6 
L 380.04587 0 
L 80.75413 0 
z
" style="fill:#ffffff;"/>
   </g>
   <g id="matplotlib.axis_1">
    <g id="xtick_1">
     <g id="line2d_1">
      <defs>
       <path d="M 0 0 
L 0 3.5 
" id="m6353213d6c" style="stroke:#000000;stroke-width:0.8;"/>
      </defs>
      <g>
       <use style="stroke:#000000;stroke-width:0.8;" x="118.479247" xlink:href="#m6353213d6c" y="172.800143"/>
      </g>
     </g>
    </g>
    <g id="xtick_2">
     <g id="line2d_2">
      <g>
       <use style="stroke:#000000;stroke-width:0.8;" x="182.432" xlink:href="#m6353213d6c" y="172.800143"/>
      </g>
     </g>
     <g id="text_1">
      <!-- 1 -->
      <g transform="translate(179.25075 187.39858)scale(0.1 -0.1)">
       <defs>
        <path d="M 12.40625 8.296875 
L 28.515625 8.296875 
L 28.515625 63.921875 
L 10.984375 60.40625 
L 10.984375 69.390625 
L 28.421875 72.90625 
L 38.28125 72.90625 
L 38.28125 8.296875 
L 54.390625 8.296875 
L 54.390625 0 
L 12.40625 0 
z
" id="DejaVuSans-49"/>
       </defs>
       <use xlink:href="#DejaVuSans-49"/>
      </g>
     </g>
    </g>
    <g id="xtick_3">
     <g id="line2d_3">
      <g>
       <use style="stroke:#000000;stroke-width:0.8;" x="246.384754" xlink:href="#m6353213d6c" y="172.800143"/>
      </g>
     </g>
     <g id="text_2">
      <!-- 2 -->
      <g transform="translate(243.203504 187.39858)scale(0.1 -0.1)">
       <defs>
        <path d="M 19.1875 8.296875 
L 53.609375 8.296875 
L 53.609375 0 
L 7.328125 0 
L 7.328125 8.296875 
Q 12.9375 14.109375 22.625 23.890625 
Q 32.328125 33.6875 34.8125 36.53125 
Q 39.546875 41.84375 41.421875 45.53125 
Q 43.3125 49.21875 43.3125 52.78125 
Q 43.3125 58.59375 39.234375 62.25 
Q 35.15625 65.921875 28.609375 65.921875 
Q 23.96875 65.921875 18.8125 64.3125 
Q 13.671875 62.703125 7.8125 59.421875 
L 7.8125 69.390625 
Q 13.765625 71.78125 18.9375 73 
Q 24.125 74.21875 28.421875 74.21875 
Q 39.75 74.21875 46.484375 68.546875 
Q 53.21875 62.890625 53.21875 53.421875 
Q 53.21875 48.921875 51.53125 44.890625 
Q 49.859375 40.875 45.40625 35.40625 
Q 44.1875 33.984375 37.640625 27.21875 
Q 31.109375 20.453125 19.1875 8.296875 
z
" id="DejaVuSans-50"/>
       </defs>
       <use xlink:href="#DejaVuSans-50"/>
      </g>
     </g>
    </g>
    <g id="xtick_4">
     <g id="line2d_4">
      <g>
       <use style="stroke:#000000;stroke-width:0.8;" x="310.337507" xlink:href="#m6353213d6c" y="172.800143"/>
      </g>
     </g>
     <g id="text_3">
      <!-- 3 -->
      <g transform="translate(307.156257 187.39858)scale(0.1 -0.1)">
       <defs>
        <path d="M 40.578125 39.3125 
Q 47.65625 37.796875 51.625 33 
Q 55.609375 28.21875 55.609375 21.1875 
Q 55.609375 10.40625 48.1875 4.484375 
Q 40.765625 -1.421875 27.09375 -1.421875 
Q 22.515625 -1.421875 17.65625 -0.515625 
Q 12.796875 0.390625 7.625 2.203125 
L 7.625 11.71875 
Q 11.71875 9.328125 16.59375 8.109375 
Q 21.484375 6.890625 26.8125 6.890625 
Q 36.078125 6.890625 40.9375 10.546875 
Q 45.796875 14.203125 45.796875 21.1875 
Q 45.796875 27.640625 41.28125 31.265625 
Q 36.765625 34.90625 28.71875 34.90625 
L 20.21875 34.90625 
L 20.21875 43.015625 
L 29.109375 43.015625 
Q 36.375 43.015625 40.234375 45.921875 
Q 44.09375 48.828125 44.09375 54.296875 
Q 44.09375 59.90625 40.109375 62.90625 
Q 36.140625 65.921875 28.71875 65.921875 
Q 24.65625 65.921875 20.015625 65.03125 
Q 15.375 64.15625 9.8125 62.3125 
L 9.8125 71.09375 
Q 15.4375 72.65625 20.34375 73.4375 
Q 25.25 74.21875 29.59375 74.21875 
Q 40.828125 74.21875 47.359375 69.109375 
Q 53.90625 64.015625 53.90625 55.328125 
Q 53.90625 49.265625 50.4375 45.09375 
Q 46.96875 40.921875 40.578125 39.3125 
z
" id="DejaVuSans-51"/>
       </defs>
       <use xlink:href="#DejaVuSans-51"/>
      </g>
     </g>
    </g>
    <g id="xtick_5">
     <g id="line2d_5">
      <g>
       <use style="stroke:#000000;stroke-width:0.8;" x="374.29026" xlink:href="#m6353213d6c" y="172.800143"/>
      </g>
     </g>
     <g id="text_4">
      <!-- 4 -->
      <g transform="translate(371.10901 187.39858)scale(0.1 -0.1)">
       <defs>
        <path d="M 37.796875 64.3125 
L 12.890625 25.390625 
L 37.796875 25.390625 
z
M 35.203125 72.90625 
L 47.609375 72.90625 
L 47.609375 25.390625 
L 58.015625 25.390625 
L 58.015625 17.1875 
L 47.609375 17.1875 
L 47.609375 0 
L 37.796875 0 
L 37.796875 17.1875 
L 4.890625 17.1875 
L 4.890625 26.703125 
z
" id="DejaVuSans-52"/>
       </defs>
       <use xlink:href="#DejaVuSans-52"/>
      </g>
     </g>
    </g>
    <g id="xtick_6">
     <g id="line2d_6">
      <defs>
       <path d="M 0 0 
L 0 2 
" id="mf0373d0ea5" style="stroke:#000000;stroke-width:0.6;"/>
      </defs>
      <g>
       <use style="stroke:#000000;stroke-width:0.6;" x="92.898146" xlink:href="#mf0373d0ea5" y="172.800143"/>
      </g>
     </g>
    </g>
    <g id="xtick_7">
     <g id="line2d_7">
      <g>
       <use style="stroke:#000000;stroke-width:0.6;" x="105.688696" xlink:href="#mf0373d0ea5" y="172.800143"/>
      </g>
     </g>
    </g>
    <g id="xtick_8">
     <g id="line2d_8">
      <g>
       <use style="stroke:#000000;stroke-width:0.6;" x="131.269798" xlink:href="#mf0373d0ea5" y="172.800143"/>
      </g>
     </g>
    </g>
    <g id="xtick_9">
     <g id="line2d_9">
      <g>
       <use style="stroke:#000000;stroke-width:0.6;" x="144.060348" xlink:href="#mf0373d0ea5" y="172.800143"/>
      </g>
     </g>
    </g>
    <g id="xtick_10">
     <g id="line2d_10">
      <g>
       <use style="stroke:#000000;stroke-width:0.6;" x="156.850899" xlink:href="#mf0373d0ea5" y="172.800143"/>
      </g>
     </g>
    </g>
    <g id="xtick_11">
     <g id="line2d_11">
      <g>
       <use style="stroke:#000000;stroke-width:0.6;" x="169.64145" xlink:href="#mf0373d0ea5" y="172.800143"/>
      </g>
     </g>
    </g>
    <g id="xtick_12">
     <g id="line2d_12">
      <g>
       <use style="stroke:#000000;stroke-width:0.6;" x="195.222551" xlink:href="#mf0373d0ea5" y="172.800143"/>
      </g>
     </g>
    </g>
    <g id="xtick_13">
     <g id="line2d_13">
      <g>
       <use style="stroke:#000000;stroke-width:0.6;" x="208.013102" xlink:href="#mf0373d0ea5" y="172.800143"/>
      </g>
     </g>
    </g>
    <g id="xtick_14">
     <g id="line2d_14">
      <g>
       <use style="stroke:#000000;stroke-width:0.6;" x="220.803652" xlink:href="#mf0373d0ea5" y="172.800143"/>
      </g>
     </g>
    </g>
    <g id="xtick_15">
     <g id="line2d_15">
      <g>
       <use style="stroke:#000000;stroke-width:0.6;" x="233.594203" xlink:href="#mf0373d0ea5" y="172.800143"/>
      </g>
     </g>
    </g>
    <g id="xtick_16">
     <g id="line2d_16">
      <g>
       <use style="stroke:#000000;stroke-width:0.6;" x="259.175304" xlink:href="#mf0373d0ea5" y="172.800143"/>
      </g>
     </g>
    </g>
    <g id="xtick_17">
     <g id="line2d_17">
      <g>
       <use style="stroke:#000000;stroke-width:0.6;" x="271.965855" xlink:href="#mf0373d0ea5" y="172.800143"/>
      </g>
     </g>
    </g>
    <g id="xtick_18">
     <g id="line2d_18">
      <g>
       <use style="stroke:#000000;stroke-width:0.6;" x="284.756406" xlink:href="#mf0373d0ea5" y="172.800143"/>
      </g>
     </g>
    </g>
    <g id="xtick_19">
     <g id="line2d_19">
      <g>
       <use style="stroke:#000000;stroke-width:0.6;" x="297.546956" xlink:href="#mf0373d0ea5" y="172.800143"/>
      </g>
     </g>
    </g>
    <g id="xtick_20">
     <g id="line2d_20">
      <g>
       <use style="stroke:#000000;stroke-width:0.6;" x="323.128057" xlink:href="#mf0373d0ea5" y="172.800143"/>
      </g>
     </g>
    </g>
    <g id="xtick_21">
     <g id="line2d_21">
      <g>
       <use style="stroke:#000000;stroke-width:0.6;" x="335.918608" xlink:href="#mf0373d0ea5" y="172.800143"/>
      </g>
     </g>
    </g>
    <g id="xtick_22">
     <g id="line2d_22">
      <g>
       <use style="stroke:#000000;stroke-width:0.6;" x="348.709159" xlink:href="#mf0373d0ea5" y="172.800143"/>
      </g>
     </g>
    </g>
    <g id="xtick_23">
     <g id="line2d_23">
      <g>
       <use style="stroke:#000000;stroke-width:0.6;" x="361.499709" xlink:href="#mf0373d0ea5" y="172.800143"/>
      </g>
     </g>
    </g>
   </g>
   <g id="matplotlib.axis_2">
    <g id="ytick_1">
     <g id="line2d_24">
      <defs>
       <path d="M 0 0 
L -3.5 0 
" id="m0c6afc2e96" style="stroke:#000000;stroke-width:0.8;"/>
      </defs>
      <g>
       <use style="stroke:#000000;stroke-width:0.8;" x="118.479247" xlink:href="#m0c6afc2e96" y="300.705649"/>
      </g>
     </g>
     <g id="text_5">
      <!-- −2 -->
      <g transform="translate(96.737059 304.504868)scale(0.1 -0.1)">
       <defs>
        <path d="M 10.59375 35.5 
L 73.1875 35.5 
L 73.1875 27.203125 
L 10.59375 27.203125 
z
" id="DejaVuSans-8722"/>
       </defs>
       <use xlink:href="#DejaVuSans-8722"/>
       <use x="83.789062" xlink:href="#DejaVuSans-50"/>
      </g>
     </g>
    </g>
    <g id="ytick_2">
     <g id="line2d_25">
      <g>
       <use style="stroke:#000000;stroke-width:0.8;" x="118.479247" xlink:href="#m0c6afc2e96" y="236.752896"/>
      </g>
     </g>
     <g id="text_6">
      <!-- −1 -->
      <g transform="translate(96.737059 240.552115)scale(0.1 -0.1)">
       <use xlink:href="#DejaVuSans-8722"/>
       <use x="83.789062" xlink:href="#DejaVuSans-49"/>
      </g>
     </g>
    </g>
    <g id="ytick_3">
     <g id="line2d_26">
      <g>
       <use style="stroke:#000000;stroke-width:0.8;" x="118.479247" xlink:href="#m0c6afc2e96" y="172.800143"/>
      </g>
     </g>
    </g>
    <g id="ytick_4">
     <g id="line2d_27">
      <g>
       <use style="stroke:#000000;stroke-width:0.8;" x="118.479247" xlink:href="#m0c6afc2e96" y="108.847389"/>
      </g>
     </g>
     <g id="text_7">
      <!-- 1 -->
      <g transform="translate(105.116747 112.646608)scale(0.1 -0.1)">
       <use xlink:href="#DejaVuSans-49"/>
      </g>
     </g>
    </g>
    <g id="ytick_5">
     <g id="line2d_28">
      <g>
       <use style="stroke:#000000;stroke-width:0.8;" x="118.479247" xlink:href="#m0c6afc2e96" y="44.894636"/>
      </g>
     </g>
     <g id="text_8">
      <!-- 2 -->
      <g transform="translate(105.116747 48.693855)scale(0.1 -0.1)">
       <use xlink:href="#DejaVuSans-50"/>
      </g>
     </g>
    </g>
    <g id="ytick_6">
     <g id="line2d_29">
      <defs>
       <path d="M 0 0 
L -2 0 
" id="m294a62c2e3" style="stroke:#000000;stroke-width:0.6;"/>
      </defs>
      <g>
       <use style="stroke:#000000;stroke-width:0.6;" x="118.479247" xlink:href="#m294a62c2e3" y="339.077301"/>
      </g>
     </g>
    </g>
    <g id="ytick_7">
     <g id="line2d_30">
      <g>
       <use style="stroke:#000000;stroke-width:0.6;" x="118.479247" xlink:href="#m294a62c2e3" y="326.286751"/>
      </g>
     </g>
    </g>
    <g id="ytick_8">
     <g id="line2d_31">
      <g>
       <use style="stroke:#000000;stroke-width:0.6;" x="118.479247" xlink:href="#m294a62c2e3" y="313.4962"/>
      </g>
     </g>
    </g>
    <g id="ytick_9">
     <g id="line2d_32">
      <g>
       <use style="stroke:#000000;stroke-width:0.6;" x="118.479247" xlink:href="#m294a62c2e3" y="287.915099"/>
      </g>
     </g>
    </g>
    <g id="ytick_10">
     <g id="line2d_33">
      <g>
       <use style="stroke:#000000;stroke-width:0.6;" x="118.479247" xlink:href="#m294a62c2e3" y="275.124548"/>
      </g>
     </g>
    </g>
    <g id="ytick_11">
     <g id="line2d_34">
      <g>
       <use style="stroke:#000000;stroke-width:0.6;" x="118.479247" xlink:href="#m294a62c2e3" y="262.333997"/>
      </g>
     </g>
    </g>
    <g id="ytick_12">
     <g id="line2d_35">
      <g>
       <use style="stroke:#000000;stroke-width:0.6;" x="118.479247" xlink:href="#m294a62c2e3" y="249.543447"/>
      </g>
     </g>
    </g>
    <g id="ytick_13">
     <g id="line2d_36">
      <g>
       <use style="stroke:#000000;stroke-width:0.6;" x="118.479247" xlink:href="#m294a62c2e3" y="223.962345"/>
      </g>
     </g>
    </g>
    <g id="ytick_14">
     <g id="line2d_37">
      <g>
       <use style="stroke:#000000;stroke-width:0.6;" x="118.479247" xlink:href="#m294a62c2e3" y="211.171795"/>
      </g>
     </g>
    </g>
    <g id="ytick_15">
     <g id="line2d_38">
      <g>
       <use style="stroke:#000000;stroke-width:0.6;" x="118.479247" xlink:href="#m294a62c2e3" y="198.381244"/>
      </g>
     </g>
    </g>
    <g id="ytick_16">
     <g id="line2d_39">
      <g>
       <use style="stroke:#000000;stroke-width:0.6;" x="118.479247" xlink:href="#m294a62c2e3" y="185.590693"/>
      </g>
     </g>
    </g>
    <g id="ytick_17">
     <g id="line2d_40">
      <g>
       <use style="stroke:#000000;stroke-width:0.6;" x="118.479247" xlink:href="#m294a62c2e3" y="160.009592"/>
      </g>
     </g>
    </g>
    <g id="ytick_18">
     <g id="line2d_41">
      <g>
       <use style="stroke:#000000;stroke-width:0.6;" x="118.479247" xlink:href="#m294a62c2e3" y="147.219041"/>
      </g>
     </g>
    </g>
    <g id="ytick_19">
     <g id="line2d_42">
      <g>
       <use style="stroke:#000000;stroke-width:0.6;" x="118.479247" xlink:href="#m294a62c2e3" y="134.428491"/>
      </g>
     </g>
    </g>
    <g id="ytick_20">
     <g id="line2d_43">
      <g>
       <use style="stroke:#000000;stroke-width:0.6;" x="118.479247" xlink:href="#m294a62c2e3" y="121.63794"/>
      </g>
     </g>
    </g>
    <g id="ytick_21">
     <g id="line2d_44">
      <g>
       <use style="stroke:#000000;stroke-width:0.6;" x="118.479247" xlink:href="#m294a62c2e3" y="96.056839"/>
      </g>
     </g>
    </g>
    <g id="ytick_22">
     <g id="line2d_45">
      <g>
       <use style="stroke:#000000;stroke-width:0.6;" x="118.479247" xlink:href="#m294a62c2e3" y="83.266288"/>
      </g>
     </g>
    </g>
    <g id="ytick_23">
     <g id="line2d_46">
      <g>
       <use style="stroke:#000000;stroke-width:0.6;" x="118.479247" xlink:href="#m294a62c2e3" y="70.475738"/>
      </g>
     </g>
    </g>
    <g id="ytick_24">
     <g id="line2d_47">
      <g>
       <use style="stroke:#000000;stroke-width:0.6;" x="118.479247" xlink:href="#m294a62c2e3" y="57.685187"/>
      </g>
     </g>
    </g>
    <g id="ytick_25">
     <g id="line2d_48">
      <g>
       <use style="stroke:#000000;stroke-width:0.6;" x="118.479247" xlink:href="#m294a62c2e3" y="32.104086"/>
      </g>
     </g>
    </g>
    <g id="ytick_26">
     <g id="line2d_49">
      <g>
       <use style="stroke:#000000;stroke-width:0.6;" x="118.479247" xlink:href="#m294a62c2e3" y="19.313535"/>
      </g>
     </g>
    </g>
    <g id="ytick_27">
     <g id="line2d_50">
      <g>
       <use style="stroke:#000000;stroke-width:0.6;" x="118.479247" xlink:href="#m294a62c2e3" y="6.522984"/>
      </g>
     </g>
    </g>
   </g>
   <g id="line2d_51">
    <path clip-path="url(#pc7bc4ddd25)" d="M 374.29026 172.800143 
L 374.089852 164.534934 
L 373.697737 158.596821 
L 372.870894 150.844965 
L 371.815022 143.853593 
L 370.470958 136.917534 
L 369.358303 132.0943 
L 368.222804 127.730152 
L 366.307834 121.258467 
L 364.140092 114.876722 
L 359.999497 104.518892 
L 357.195645 98.454521 
L 354.47976 93.116531 
L 351.581476 87.888652 
L 347.474104 81.151724 
L 342.666034 74.072665 
L 338.962545 69.106952 
L 335.284416 64.53111 
L 331.457626 60.100335 
L 326.734523 55.040489 
L 322.643694 50.982583 
L 315.914958 44.88554 
L 312.31515 41.889358 
L 308.190049 38.663211 
L 303.977701 35.581923 
L 296.44635 30.566912 
L 290.036162 26.757522 
L 286.957971 25.068043 
L 278.426434 20.829928 
L 271.568566 17.870302 
L 265.359335 15.514738 
L 260.9672 14.027184 
L 255.036668 12.245983 
L 249.076573 10.71211 
L 242.191354 9.251813 
L 238.685975 8.634446 
L 232.441169 7.742577 
L 226.210195 7.115924 
L 220.146178 6.757239 
L 214.610293 6.646154 
L 206.876812 6.838816 
L 197.426679 7.633086 
L 186.038779 9.433184 
L 183.722947 9.916046 
L 177.41099 11.440588 
L 166.146987 14.957814 
L 160.066865 17.311696 
L 152.97932 20.495894 
L 141.929103 26.516924 
L 136.947516 29.709021 
L 131.977967 33.232573 
L 123.738865 39.93922 
L 117.688063 45.693238 
L 113.29047 50.422894 
L 110.430761 53.797383 
L 106.703319 58.622462 
L 102.364755 65.00275 
L 98.517994 71.595098 
L 95.635797 77.364995 
L 93.809274 81.553462 
L 91.428472 87.955259 
L 89.465161 94.590588 
L 88.120903 100.582955 
L 87.677912 103.089461 
L 87.159297 106.732188 
L 86.724368 111.231395 
L 86.50974 116.33176 
L 86.659087 122.544061 
L 87.410285 129.640242 
L 88.15862 133.799753 
L 88.809344 136.636997 
L 90.500115 142.365193 
L 91.34921 144.705789 
L 93.25824 149.17475 
L 95.508679 153.483159 
L 98.149624 157.64594 
L 100.097111 160.256549 
L 102.976921 163.555838 
L 105.870068 166.309736 
L 108.570479 168.44184 
L 111.162328 170.122271 
L 113.652924 171.406055 
L 115.851438 172.253143 
L 117.615114 172.698834 
L 118.471229 172.800233 
L 118.150933 172.823742 
L 116.916968 173.048152 
L 115.733822 173.384993 
L 113.442108 174.290051 
L 111.272821 175.414145 
L 109.365534 176.605657 
L 106.79627 178.513921 
L 103.653272 181.353881 
L 101.713762 183.416839 
L 99.280797 186.396692 
L 96.956976 189.734639 
L 95.647782 191.876614 
L 93.871239 195.165954 
L 92.414073 198.288207 
L 90.688768 202.691217 
L 89.422913 206.671775 
L 88.770035 209.121104 
L 87.725461 214.044192 
L 86.881873 220.228971 
L 86.635082 223.464086 
L 86.514393 226.785287 
L 86.568112 231.532273 
L 87.068223 238.093906 
L 87.927109 243.969135 
L 88.51856 246.988221 
L 90.029644 253.101137 
L 91.480409 257.80006 
L 94.934852 266.686194 
L 96.147578 269.32611 
L 98.691055 274.325793 
L 101.022509 278.414494 
L 103.803822 282.819773 
L 108.35067 289.175558 
L 113.939033 295.90801 
L 116.473293 298.651223 
L 121.995525 304.083155 
L 127.322917 308.722737 
L 131.926551 312.329349 
L 137.505373 316.264977 
L 145.005917 320.899538 
L 151.681234 324.466602 
L 155.702284 326.38626 
L 166.592497 330.801942 
L 176.852165 334.009712 
L 181.611702 335.208589 
L 192.187266 337.255817 
L 202.509309 338.471604 
L 210.782157 338.909676 
L 214.0547 338.953846 
L 224.4214 338.615909 
L 227.311684 338.392638 
L 235.679579 337.428319 
L 241.226357 336.526853 
L 249.98263 334.671286 
L 257.530674 332.636636 
L 262.509534 331.067285 
L 267.457349 329.323192 
L 274.931875 326.326582 
L 278.102597 324.918848 
L 284.218942 321.962689 
L 289.806811 318.971693 
L 295.298268 315.745522 
L 299.129855 313.315989 
L 303.107377 310.629467 
L 307.461884 307.484701 
L 311.724872 304.185796 
L 315.142192 301.37276 
L 319.346898 297.68982 
L 323.4367 293.853044 
L 327.179977 290.100419 
L 330.810778 286.218437 
L 335.729924 280.532269 
L 338.42614 277.181593 
L 342.523304 271.726298 
L 346.897187 265.340335 
L 350.421743 259.687291 
L 352.902037 255.383826 
L 355.25796 251.00152 
L 358.970615 243.38075 
L 361.553143 237.422225 
L 363.816083 231.610848 
L 365.915533 225.560839 
L 367.787413 219.427697 
L 369.12569 214.439896 
L 371.007146 206.096217 
L 371.998759 200.65947 
L 372.813857 195.190158 
L 373.315319 191.008619 
L 373.884105 184.562824 
L 374.207944 178.098205 
L 374.29026 172.800143 
L 374.29026 172.800143 
" style="fill:none;stroke:#33ff00;stroke-linecap:square;"/>
   </g>
   <g id="patch_3">
    <path d="M 118.479247 345.6 
L 118.479247 0 
" style="fill:none;stroke:#000000;stroke-linecap:square;stroke-linejoin:miter;stroke-width:0.8;"/>
   </g>
   <g id="patch_4">
    <path d="M 80.75413 172.800143 
L 380.04587 172.800143 
" style="fill:none;stroke:#000000;stroke-linecap:square;stroke-linejoin:miter;stroke-width:0.8;"/>
   </g>
  </g>
 </g>
 <defs>
  <clipPath id="pc7bc4ddd25">
   <rect height="345.6" width="299.291741" x="80.75413" y="0"/>
  </clipPath>
 </defs>
</svg>
