<?xml version="1.0" encoding="utf-8" standalone="no"?>
<!DOCTYPE svg PUBLIC "-//W3C//DTD SVG 1.1//EN"
  "http://www.w3.org/Graphics/SVG/1.1/DTD/svg11.dtd">
<svg xmlns:xlink="http://www.w3.org/1999/xlink" width="460.8pt" height="345.6pt" viewBox="0 0 460.8 345.6" xmlns="http://www.w3.org/2000/svg" version="1.1">
 <metadata>
  <rdf:RDF xmlns:dc="http://purl.org/dc/elements/1.1/" xmlns:cc="http://creativecommons.org/ns#" xmlns:rdf="http://www.w3.org/1999/02/22-rdf-syntax-ns#">
   <cc:Work>
    <dc:type rdf:resource="http://purl.org/dc/dcmitype/StillImage"/>
    <dc:date>2024-03-20T19:26:28.660443</dc:date>
    <dc:format>image/svg+xml</dc:format>
    <dc:creator>
     <cc:Agent>
      <dc:title>Matplotlib v3.8.0, https://matplotlib.org/</dc:title>
     </cc:Agent>
    </dc:creator>
   </cc:Work>
  </rdf:RDF>
 </metadata>
 <defs>
  <style type="text/css">*{stroke-linejoin: round; stroke-linecap: butt}</style>
 </defs>
 <g id="figure_1">
  <g id="patch_1">
   <path d="M 0 345.6 
L 460.8 345.6 
L 460.8 0 
L 0 0 
z
" style="fill: #ffffff"/>
  </g>
  <g id="axes_1">
   <g id="patch_2">
    <path d="M 146.769665 334.514358 
L 314.030335 334.514358 
L 314.030335 0 
L 146.769665 0 
z
" style="fill: #ffffff"/>
   </g>
   <g id="patch_3">
    <path d="M 149.986217 6.432968 
L 151.150427 15.679228 
L 151.754938 20.427123 
L 152.440256 25.765714 
L 153.214639 31.741891 
L 154.101768 38.51485 
L 154.665649 42.77921 
L 155.701888 50.533302 
L 156.33108 55.189369 
L 156.999649 60.093675 
L 158.080595 67.928904 
L 158.594569 71.613666 
L 159.412015 77.419933 
L 160.306588 83.69784 
L 160.933389 88.049154 
L 162.499088 98.747622 
L 162.982663 102.002616 
L 163.901667 108.124405 
L 164.26266 110.506113 
L 165.131659 116.186305 
L 166.11347 122.513497 
L 166.875876 127.360609 
L 167.703881 132.559266 
L 168.853115 139.661745 
L 169.170823 141.602057 
L 169.851601 145.725901 
L 171.254903 154.080995 
L 171.730168 156.866251 
L 172.919833 163.739682 
L 173.336362 166.112945 
L 174.303109 171.554678 
L 174.930851 175.038393 
L 175.877042 180.215296 
L 176.424141 183.168002 
L 177.299492 187.83036 
L 178.353786 193.344615 
L 179.31781 198.289948 
L 179.668094 200.063964 
L 180.473405 204.096181 
L 181.665747 209.947786 
L 182.629458 214.573996 
L 183.376533 218.096687 
L 183.568874 218.994645 
L 184.780555 224.566857 
L 185.350728 227.138396 
L 186.299035 231.343738 
L 187.513283 236.597794 
L 188.320248 240.008401 
L 188.398971 240.337652 
L 189.663422 245.541616 
L 190.655631 249.513769 
L 191.569014 253.083771 
L 192.288855 255.838828 
L 192.483107 256.573457 
L 193.951743 262.006124 
L 194.510506 264.016709 
L 195.246987 266.619321 
L 196.379925 270.5176 
L 196.748248 271.757441 
L 197.508903 274.275225 
L 198.748945 278.256381 
L 199.011375 279.079302 
L 200.217943 282.774648 
L 200.528683 283.702897 
L 201.443944 286.381164 
L 202.346317 288.940132 
L 203.412012 291.857919 
L 203.849779 293.023754 
L 205.097337 296.241585 
L 205.857076 298.125321 
L 206.385968 299.402785 
L 207.480318 301.957665 
L 207.912967 302.934868 
L 208.763097 304.800773 
L 209.803464 306.98638 
L 210.447303 308.285024 
L 211.701469 310.696305 
L 212.279484 311.754928 
L 213.02071 313.063825 
L 213.671059 314.167231 
L 214.346195 315.268177 
L 215.104336 316.450429 
L 216.037722 317.827421 
L 216.908763 319.034258 
L 217.709161 320.076669 
L 218.92595 321.539283 
L 219.640227 322.329253 
L 220.485174 323.198206 
L 220.705003 323.412637 
L 222.102678 324.663537 
L 223.054575 325.404221 
L 223.783092 325.910193 
L 224.153618 326.147276 
L 224.836686 326.548542 
L 226.005074 327.127303 
L 226.497692 327.330619 
L 227.44022 327.652341 
L 228.631511 327.932529 
L 229.363067 328.034617 
L 229.989349 328.079714 
L 230.767346 328.081389 
L 231.814232 327.988614 
L 232.259905 327.91603 
L 233.430241 327.631346 
L 233.762486 327.525695 
L 234.589635 327.214966 
L 235.266834 326.909892 
L 236.354575 326.324376 
L 237.030886 325.900982 
L 237.872617 325.310468 
L 238.838128 324.54632 
L 240.065999 323.440564 
L 240.720277 322.790099 
L 241.687159 321.750882 
L 242.118245 321.257568 
L 242.850999 320.376619 
L 243.577015 319.451089 
L 244.752803 317.840955 
L 245.280297 317.073908 
L 246.18048 315.700994 
L 246.921678 314.510039 
L 247.857142 312.928919 
L 248.492548 311.805306 
L 249.218688 310.472067 
L 249.853889 309.262782 
L 251.329844 306.297888 
L 252.015196 304.847473 
L 252.434658 303.936712 
L 253.802405 300.845381 
L 253.883425 300.656424 
L 255.304882 297.235024 
L 255.904574 295.731296 
L 256.724473 293.617501 
L 257.357392 291.940021 
L 257.939128 290.363048 
L 258.970961 287.483132 
L 259.56226 285.785035 
L 260.980187 281.571309 
L 261.906926 278.709185 
L 262.439816 277.024727 
L 262.876049 275.624769 
L 264.147829 271.435327 
L 265.026 268.448582 
L 265.765921 265.872481 
L 266.719017 262.473926 
L 266.771544 262.283999 
L 268.37002 256.372912 
L 268.390795 256.294416 
L 269.454522 252.21774 
L 270.007385 250.054466 
L 271.49882 244.067031 
L 272.07771 241.683438 
L 273.213172 236.91131 
L 273.258562 236.717879 
L 274.269524 232.356496 
L 274.91333 229.526065 
L 276.001515 224.648216 
L 277.270928 218.80913 
L 277.978588 215.48442 
L 278.810796 211.510814 
L 279.617938 207.591078 
L 279.790084 206.746696 
L 280.730569 202.081537 
L 281.832383 196.50419 
L 282.425402 193.452355 
L 283.402449 188.3479 
L 283.909115 185.663495 
L 284.840438 180.662566 
L 285.5738 176.663903 
L 286.40936 172.042794 
L 287.623595 165.203598 
L 288.374122 160.902892 
L 288.93882 157.630088 
L 289.508571 154.295847 
L 290.48749 148.491706 
L 291.627817 141.610342 
L 292.570692 135.822809 
L 293.250291 131.596458 
L 294.212686 125.532831 
L 294.315693 124.878373 
L 295.074586 120.024168 
L 296.093505 113.416613 
L 296.943919 107.822723 
L 297.57295 103.638762 
L 298.548632 97.071187 
L 299.633814 89.655296 
L 300.44971 84.002494 
L 301.237824 78.479283 
L 301.799785 74.503249 
L 302.948518 66.27789 
L 303.143106 64.87156 
L 304.488666 55.043848 
L 305.214169 49.670164 
L 306.178837 42.443933 
L 306.916991 36.851965 
L 307.529953 32.167209 
L 308.690998 23.191099 
L 308.871941 21.78014 
L 310.178502 11.495142 
L 310.813783 6.432968 
z
" clip-path="url(#p89af9b1b6f)" style="fill: #808080; opacity: 0.5"/>
   </g>
   <g id="matplotlib.axis_1">
    <g id="xtick_1">
     <g id="line2d_1">
      <defs>
       <path id="m7b99fbccd3" d="M 0 0 
L 0 3.5 
" style="stroke: #000000; stroke-width: 0.8"/>
      </defs>
      <g>
       <use xlink:href="#m7b99fbccd3" x="149.986217" y="328.088102" style="stroke: #000000; stroke-width: 0.8"/>
      </g>
     </g>
     <g id="text_1">
      <!-- −4 -->
      <g transform="translate(142.615123 342.686539) scale(0.1 -0.1)">
       <defs>
        <path id="DejaVuSans-2212" d="M 678 2272 
L 4684 2272 
L 4684 1741 
L 678 1741 
L 678 2272 
z
" transform="scale(0.015625)"/>
        <path id="DejaVuSans-34" d="M 2419 4116 
L 825 1625 
L 2419 1625 
L 2419 4116 
z
M 2253 4666 
L 3047 4666 
L 3047 1625 
L 3713 1625 
L 3713 1100 
L 3047 1100 
L 3047 0 
L 2419 0 
L 2419 1100 
L 313 1100 
L 313 1709 
L 2253 4666 
z
" transform="scale(0.015625)"/>
       </defs>
       <use xlink:href="#DejaVuSans-2212"/>
       <use xlink:href="#DejaVuSans-34" x="83.789062"/>
      </g>
     </g>
    </g>
    <g id="xtick_2">
     <g id="line2d_2">
      <g>
       <use xlink:href="#m7b99fbccd3" x="170.089662" y="328.088102" style="stroke: #000000; stroke-width: 0.8"/>
      </g>
     </g>
     <g id="text_2">
      <!-- −3 -->
      <g transform="translate(162.718569 342.686539) scale(0.1 -0.1)">
       <defs>
        <path id="DejaVuSans-33" d="M 2597 2516 
Q 3050 2419 3304 2112 
Q 3559 1806 3559 1356 
Q 3559 666 3084 287 
Q 2609 -91 1734 -91 
Q 1441 -91 1130 -33 
Q 819 25 488 141 
L 488 750 
Q 750 597 1062 519 
Q 1375 441 1716 441 
Q 2309 441 2620 675 
Q 2931 909 2931 1356 
Q 2931 1769 2642 2001 
Q 2353 2234 1838 2234 
L 1294 2234 
L 1294 2753 
L 1863 2753 
Q 2328 2753 2575 2939 
Q 2822 3125 2822 3475 
Q 2822 3834 2567 4026 
Q 2313 4219 1838 4219 
Q 1578 4219 1281 4162 
Q 984 4106 628 3988 
L 628 4550 
Q 988 4650 1302 4700 
Q 1616 4750 1894 4750 
Q 2613 4750 3031 4423 
Q 3450 4097 3450 3541 
Q 3450 3153 3228 2886 
Q 3006 2619 2597 2516 
z
" transform="scale(0.015625)"/>
       </defs>
       <use xlink:href="#DejaVuSans-2212"/>
       <use xlink:href="#DejaVuSans-33" x="83.789062"/>
      </g>
     </g>
    </g>
    <g id="xtick_3">
     <g id="line2d_3">
      <g>
       <use xlink:href="#m7b99fbccd3" x="190.193108" y="328.088102" style="stroke: #000000; stroke-width: 0.8"/>
      </g>
     </g>
     <g id="text_3">
      <!-- −2 -->
      <g transform="translate(182.822015 342.686539) scale(0.1 -0.1)">
       <defs>
        <path id="DejaVuSans-32" d="M 1228 531 
L 3431 531 
L 3431 0 
L 469 0 
L 469 531 
Q 828 903 1448 1529 
Q 2069 2156 2228 2338 
Q 2531 2678 2651 2914 
Q 2772 3150 2772 3378 
Q 2772 3750 2511 3984 
Q 2250 4219 1831 4219 
Q 1534 4219 1204 4116 
Q 875 4013 500 3803 
L 500 4441 
Q 881 4594 1212 4672 
Q 1544 4750 1819 4750 
Q 2544 4750 2975 4387 
Q 3406 4025 3406 3419 
Q 3406 3131 3298 2873 
Q 3191 2616 2906 2266 
Q 2828 2175 2409 1742 
Q 1991 1309 1228 531 
z
" transform="scale(0.015625)"/>
       </defs>
       <use xlink:href="#DejaVuSans-2212"/>
       <use xlink:href="#DejaVuSans-32" x="83.789062"/>
      </g>
     </g>
    </g>
    <g id="xtick_4">
     <g id="line2d_4">
      <g>
       <use xlink:href="#m7b99fbccd3" x="210.296554" y="328.088102" style="stroke: #000000; stroke-width: 0.8"/>
      </g>
     </g>
     <g id="text_4">
      <!-- −1 -->
      <g transform="translate(202.92546 342.686539) scale(0.1 -0.1)">
       <defs>
        <path id="DejaVuSans-31" d="M 794 531 
L 1825 531 
L 1825 4091 
L 703 3866 
L 703 4441 
L 1819 4666 
L 2450 4666 
L 2450 531 
L 3481 531 
L 3481 0 
L 794 0 
L 794 531 
z
" transform="scale(0.015625)"/>
       </defs>
       <use xlink:href="#DejaVuSans-2212"/>
       <use xlink:href="#DejaVuSans-31" x="83.789062"/>
      </g>
     </g>
    </g>
    <g id="xtick_5">
     <g id="line2d_5">
      <g>
       <use xlink:href="#m7b99fbccd3" x="230.4" y="328.088102" style="stroke: #000000; stroke-width: 0.8"/>
      </g>
     </g>
    </g>
    <g id="xtick_6">
     <g id="line2d_6">
      <g>
       <use xlink:href="#m7b99fbccd3" x="250.503446" y="328.088102" style="stroke: #000000; stroke-width: 0.8"/>
      </g>
     </g>
     <g id="text_5">
      <!-- 1 -->
      <g transform="translate(247.322196 342.686539) scale(0.1 -0.1)">
       <use xlink:href="#DejaVuSans-31"/>
      </g>
     </g>
    </g>
    <g id="xtick_7">
     <g id="line2d_7">
      <g>
       <use xlink:href="#m7b99fbccd3" x="270.606892" y="328.088102" style="stroke: #000000; stroke-width: 0.8"/>
      </g>
     </g>
     <g id="text_6">
      <!-- 2 -->
      <g transform="translate(267.425642 342.686539) scale(0.1 -0.1)">
       <use xlink:href="#DejaVuSans-32"/>
      </g>
     </g>
    </g>
    <g id="xtick_8">
     <g id="line2d_8">
      <g>
       <use xlink:href="#m7b99fbccd3" x="290.710338" y="328.088102" style="stroke: #000000; stroke-width: 0.8"/>
      </g>
     </g>
     <g id="text_7">
      <!-- 3 -->
      <g transform="translate(287.529088 342.686539) scale(0.1 -0.1)">
       <use xlink:href="#DejaVuSans-33"/>
      </g>
     </g>
    </g>
    <g id="xtick_9">
     <g id="line2d_9">
      <g>
       <use xlink:href="#m7b99fbccd3" x="310.813783" y="328.088102" style="stroke: #000000; stroke-width: 0.8"/>
      </g>
     </g>
     <g id="text_8">
      <!-- 4 -->
      <g transform="translate(307.632533 342.686539) scale(0.1 -0.1)">
       <use xlink:href="#DejaVuSans-34"/>
      </g>
     </g>
    </g>
    <g id="xtick_10">
     <g id="line2d_10">
      <defs>
       <path id="m74c078d5f8" d="M 0 0 
L 0 2 
" style="stroke: #000000; stroke-width: 0.6"/>
      </defs>
      <g>
       <use xlink:href="#m74c078d5f8" x="154.006906" y="328.088102" style="stroke: #000000; stroke-width: 0.6"/>
      </g>
     </g>
    </g>
    <g id="xtick_11">
     <g id="line2d_11">
      <g>
       <use xlink:href="#m74c078d5f8" x="158.027595" y="328.088102" style="stroke: #000000; stroke-width: 0.6"/>
      </g>
     </g>
    </g>
    <g id="xtick_12">
     <g id="line2d_12">
      <g>
       <use xlink:href="#m74c078d5f8" x="162.048284" y="328.088102" style="stroke: #000000; stroke-width: 0.6"/>
      </g>
     </g>
    </g>
    <g id="xtick_13">
     <g id="line2d_13">
      <g>
       <use xlink:href="#m74c078d5f8" x="166.068973" y="328.088102" style="stroke: #000000; stroke-width: 0.6"/>
      </g>
     </g>
    </g>
    <g id="xtick_14">
     <g id="line2d_14">
      <g>
       <use xlink:href="#m74c078d5f8" x="174.110352" y="328.088102" style="stroke: #000000; stroke-width: 0.6"/>
      </g>
     </g>
    </g>
    <g id="xtick_15">
     <g id="line2d_15">
      <g>
       <use xlink:href="#m74c078d5f8" x="178.131041" y="328.088102" style="stroke: #000000; stroke-width: 0.6"/>
      </g>
     </g>
    </g>
    <g id="xtick_16">
     <g id="line2d_16">
      <g>
       <use xlink:href="#m74c078d5f8" x="182.15173" y="328.088102" style="stroke: #000000; stroke-width: 0.6"/>
      </g>
     </g>
    </g>
    <g id="xtick_17">
     <g id="line2d_17">
      <g>
       <use xlink:href="#m74c078d5f8" x="186.172419" y="328.088102" style="stroke: #000000; stroke-width: 0.6"/>
      </g>
     </g>
    </g>
    <g id="xtick_18">
     <g id="line2d_18">
      <g>
       <use xlink:href="#m74c078d5f8" x="194.213797" y="328.088102" style="stroke: #000000; stroke-width: 0.6"/>
      </g>
     </g>
    </g>
    <g id="xtick_19">
     <g id="line2d_19">
      <g>
       <use xlink:href="#m74c078d5f8" x="198.234487" y="328.088102" style="stroke: #000000; stroke-width: 0.6"/>
      </g>
     </g>
    </g>
    <g id="xtick_20">
     <g id="line2d_20">
      <g>
       <use xlink:href="#m74c078d5f8" x="202.255176" y="328.088102" style="stroke: #000000; stroke-width: 0.6"/>
      </g>
     </g>
    </g>
    <g id="xtick_21">
     <g id="line2d_21">
      <g>
       <use xlink:href="#m74c078d5f8" x="206.275865" y="328.088102" style="stroke: #000000; stroke-width: 0.6"/>
      </g>
     </g>
    </g>
    <g id="xtick_22">
     <g id="line2d_22">
      <g>
       <use xlink:href="#m74c078d5f8" x="214.317243" y="328.088102" style="stroke: #000000; stroke-width: 0.6"/>
      </g>
     </g>
    </g>
    <g id="xtick_23">
     <g id="line2d_23">
      <g>
       <use xlink:href="#m74c078d5f8" x="218.337932" y="328.088102" style="stroke: #000000; stroke-width: 0.6"/>
      </g>
     </g>
    </g>
    <g id="xtick_24">
     <g id="line2d_24">
      <g>
       <use xlink:href="#m74c078d5f8" x="222.358622" y="328.088102" style="stroke: #000000; stroke-width: 0.6"/>
      </g>
     </g>
    </g>
    <g id="xtick_25">
     <g id="line2d_25">
      <g>
       <use xlink:href="#m74c078d5f8" x="226.379311" y="328.088102" style="stroke: #000000; stroke-width: 0.6"/>
      </g>
     </g>
    </g>
    <g id="xtick_26">
     <g id="line2d_26">
      <g>
       <use xlink:href="#m74c078d5f8" x="234.420689" y="328.088102" style="stroke: #000000; stroke-width: 0.6"/>
      </g>
     </g>
    </g>
    <g id="xtick_27">
     <g id="line2d_27">
      <g>
       <use xlink:href="#m74c078d5f8" x="238.441378" y="328.088102" style="stroke: #000000; stroke-width: 0.6"/>
      </g>
     </g>
    </g>
    <g id="xtick_28">
     <g id="line2d_28">
      <g>
       <use xlink:href="#m74c078d5f8" x="242.462068" y="328.088102" style="stroke: #000000; stroke-width: 0.6"/>
      </g>
     </g>
    </g>
    <g id="xtick_29">
     <g id="line2d_29">
      <g>
       <use xlink:href="#m74c078d5f8" x="246.482757" y="328.088102" style="stroke: #000000; stroke-width: 0.6"/>
      </g>
     </g>
    </g>
    <g id="xtick_30">
     <g id="line2d_30">
      <g>
       <use xlink:href="#m74c078d5f8" x="254.524135" y="328.088102" style="stroke: #000000; stroke-width: 0.6"/>
      </g>
     </g>
    </g>
    <g id="xtick_31">
     <g id="line2d_31">
      <g>
       <use xlink:href="#m74c078d5f8" x="258.544824" y="328.088102" style="stroke: #000000; stroke-width: 0.6"/>
      </g>
     </g>
    </g>
    <g id="xtick_32">
     <g id="line2d_32">
      <g>
       <use xlink:href="#m74c078d5f8" x="262.565513" y="328.088102" style="stroke: #000000; stroke-width: 0.6"/>
      </g>
     </g>
    </g>
    <g id="xtick_33">
     <g id="line2d_33">
      <g>
       <use xlink:href="#m74c078d5f8" x="266.586203" y="328.088102" style="stroke: #000000; stroke-width: 0.6"/>
      </g>
     </g>
    </g>
    <g id="xtick_34">
     <g id="line2d_34">
      <g>
       <use xlink:href="#m74c078d5f8" x="274.627581" y="328.088102" style="stroke: #000000; stroke-width: 0.6"/>
      </g>
     </g>
    </g>
    <g id="xtick_35">
     <g id="line2d_35">
      <g>
       <use xlink:href="#m74c078d5f8" x="278.64827" y="328.088102" style="stroke: #000000; stroke-width: 0.6"/>
      </g>
     </g>
    </g>
    <g id="xtick_36">
     <g id="line2d_36">
      <g>
       <use xlink:href="#m74c078d5f8" x="282.668959" y="328.088102" style="stroke: #000000; stroke-width: 0.6"/>
      </g>
     </g>
    </g>
    <g id="xtick_37">
     <g id="line2d_37">
      <g>
       <use xlink:href="#m74c078d5f8" x="286.689648" y="328.088102" style="stroke: #000000; stroke-width: 0.6"/>
      </g>
     </g>
    </g>
    <g id="xtick_38">
     <g id="line2d_38">
      <g>
       <use xlink:href="#m74c078d5f8" x="294.731027" y="328.088102" style="stroke: #000000; stroke-width: 0.6"/>
      </g>
     </g>
    </g>
    <g id="xtick_39">
     <g id="line2d_39">
      <g>
       <use xlink:href="#m74c078d5f8" x="298.751716" y="328.088102" style="stroke: #000000; stroke-width: 0.6"/>
      </g>
     </g>
    </g>
    <g id="xtick_40">
     <g id="line2d_40">
      <g>
       <use xlink:href="#m74c078d5f8" x="302.772405" y="328.088102" style="stroke: #000000; stroke-width: 0.6"/>
      </g>
     </g>
    </g>
    <g id="xtick_41">
     <g id="line2d_41">
      <g>
       <use xlink:href="#m74c078d5f8" x="306.793094" y="328.088102" style="stroke: #000000; stroke-width: 0.6"/>
      </g>
     </g>
    </g>
   </g>
   <g id="matplotlib.axis_2">
    <g id="ytick_1">
     <g id="line2d_42">
      <defs>
       <path id="mca1f97024e" d="M 0 0 
L -3.5 0 
" style="stroke: #000000; stroke-width: 0.8"/>
      </defs>
      <g>
       <use xlink:href="#mca1f97024e" x="230.4" y="328.088102" style="stroke: #000000; stroke-width: 0.8"/>
      </g>
     </g>
    </g>
    <g id="ytick_2">
     <g id="line2d_43">
      <g>
       <use xlink:href="#mca1f97024e" x="230.4" y="287.88121" style="stroke: #000000; stroke-width: 0.8"/>
      </g>
     </g>
     <g id="text_9">
      <!-- 2 -->
      <g transform="translate(217.0375 291.680429) scale(0.1 -0.1)">
       <use xlink:href="#DejaVuSans-32"/>
      </g>
     </g>
    </g>
    <g id="ytick_3">
     <g id="line2d_44">
      <g>
       <use xlink:href="#mca1f97024e" x="230.4" y="247.674319" style="stroke: #000000; stroke-width: 0.8"/>
      </g>
     </g>
     <g id="text_10">
      <!-- 4 -->
      <g transform="translate(217.0375 251.473537) scale(0.1 -0.1)">
       <use xlink:href="#DejaVuSans-34"/>
      </g>
     </g>
    </g>
    <g id="ytick_4">
     <g id="line2d_45">
      <g>
       <use xlink:href="#mca1f97024e" x="230.4" y="207.467427" style="stroke: #000000; stroke-width: 0.8"/>
      </g>
     </g>
     <g id="text_11">
      <!-- 6 -->
      <g transform="translate(217.0375 211.266646) scale(0.1 -0.1)">
       <defs>
        <path id="DejaVuSans-36" d="M 2113 2584 
Q 1688 2584 1439 2293 
Q 1191 2003 1191 1497 
Q 1191 994 1439 701 
Q 1688 409 2113 409 
Q 2538 409 2786 701 
Q 3034 994 3034 1497 
Q 3034 2003 2786 2293 
Q 2538 2584 2113 2584 
z
M 3366 4563 
L 3366 3988 
Q 3128 4100 2886 4159 
Q 2644 4219 2406 4219 
Q 1781 4219 1451 3797 
Q 1122 3375 1075 2522 
Q 1259 2794 1537 2939 
Q 1816 3084 2150 3084 
Q 2853 3084 3261 2657 
Q 3669 2231 3669 1497 
Q 3669 778 3244 343 
Q 2819 -91 2113 -91 
Q 1303 -91 875 529 
Q 447 1150 447 2328 
Q 447 3434 972 4092 
Q 1497 4750 2381 4750 
Q 2619 4750 2861 4703 
Q 3103 4656 3366 4563 
z
" transform="scale(0.015625)"/>
       </defs>
       <use xlink:href="#DejaVuSans-36"/>
      </g>
     </g>
    </g>
    <g id="ytick_5">
     <g id="line2d_46">
      <g>
       <use xlink:href="#mca1f97024e" x="230.4" y="167.260535" style="stroke: #000000; stroke-width: 0.8"/>
      </g>
     </g>
     <g id="text_12">
      <!-- 8 -->
      <g transform="translate(217.0375 171.059754) scale(0.1 -0.1)">
       <defs>
        <path id="DejaVuSans-38" d="M 2034 2216 
Q 1584 2216 1326 1975 
Q 1069 1734 1069 1313 
Q 1069 891 1326 650 
Q 1584 409 2034 409 
Q 2484 409 2743 651 
Q 3003 894 3003 1313 
Q 3003 1734 2745 1975 
Q 2488 2216 2034 2216 
z
M 1403 2484 
Q 997 2584 770 2862 
Q 544 3141 544 3541 
Q 544 4100 942 4425 
Q 1341 4750 2034 4750 
Q 2731 4750 3128 4425 
Q 3525 4100 3525 3541 
Q 3525 3141 3298 2862 
Q 3072 2584 2669 2484 
Q 3125 2378 3379 2068 
Q 3634 1759 3634 1313 
Q 3634 634 3220 271 
Q 2806 -91 2034 -91 
Q 1263 -91 848 271 
Q 434 634 434 1313 
Q 434 1759 690 2068 
Q 947 2378 1403 2484 
z
M 1172 3481 
Q 1172 3119 1398 2916 
Q 1625 2713 2034 2713 
Q 2441 2713 2670 2916 
Q 2900 3119 2900 3481 
Q 2900 3844 2670 4047 
Q 2441 4250 2034 4250 
Q 1625 4250 1398 4047 
Q 1172 3844 1172 3481 
z
" transform="scale(0.015625)"/>
       </defs>
       <use xlink:href="#DejaVuSans-38"/>
      </g>
     </g>
    </g>
    <g id="ytick_6">
     <g id="line2d_47">
      <g>
       <use xlink:href="#mca1f97024e" x="230.4" y="127.053643" style="stroke: #000000; stroke-width: 0.8"/>
      </g>
     </g>
     <g id="text_13">
      <!-- 10 -->
      <g transform="translate(210.675 130.852862) scale(0.1 -0.1)">
       <defs>
        <path id="DejaVuSans-30" d="M 2034 4250 
Q 1547 4250 1301 3770 
Q 1056 3291 1056 2328 
Q 1056 1369 1301 889 
Q 1547 409 2034 409 
Q 2525 409 2770 889 
Q 3016 1369 3016 2328 
Q 3016 3291 2770 3770 
Q 2525 4250 2034 4250 
z
M 2034 4750 
Q 2819 4750 3233 4129 
Q 3647 3509 3647 2328 
Q 3647 1150 3233 529 
Q 2819 -91 2034 -91 
Q 1250 -91 836 529 
Q 422 1150 422 2328 
Q 422 3509 836 4129 
Q 1250 4750 2034 4750 
z
" transform="scale(0.015625)"/>
       </defs>
       <use xlink:href="#DejaVuSans-31"/>
       <use xlink:href="#DejaVuSans-30" x="63.623047"/>
      </g>
     </g>
    </g>
    <g id="ytick_7">
     <g id="line2d_48">
      <g>
       <use xlink:href="#mca1f97024e" x="230.4" y="86.846752" style="stroke: #000000; stroke-width: 0.8"/>
      </g>
     </g>
     <g id="text_14">
      <!-- 12 -->
      <g transform="translate(210.675 90.645971) scale(0.1 -0.1)">
       <use xlink:href="#DejaVuSans-31"/>
       <use xlink:href="#DejaVuSans-32" x="63.623047"/>
      </g>
     </g>
    </g>
    <g id="ytick_8">
     <g id="line2d_49">
      <g>
       <use xlink:href="#mca1f97024e" x="230.4" y="46.63986" style="stroke: #000000; stroke-width: 0.8"/>
      </g>
     </g>
     <g id="text_15">
      <!-- 14 -->
      <g transform="translate(210.675 50.439079) scale(0.1 -0.1)">
       <use xlink:href="#DejaVuSans-31"/>
       <use xlink:href="#DejaVuSans-34" x="63.623047"/>
      </g>
     </g>
    </g>
    <g id="ytick_9">
     <g id="line2d_50">
      <g>
       <use xlink:href="#mca1f97024e" x="230.4" y="6.432968" style="stroke: #000000; stroke-width: 0.8"/>
      </g>
     </g>
     <g id="text_16">
      <!-- 16 -->
      <g transform="translate(210.675 10.232187) scale(0.1 -0.1)">
       <use xlink:href="#DejaVuSans-31"/>
       <use xlink:href="#DejaVuSans-36" x="63.623047"/>
      </g>
     </g>
    </g>
    <g id="ytick_10">
     <g id="line2d_51">
      <defs>
       <path id="m7fbf85542c" d="M 0 0 
L -2 0 
" style="stroke: #000000; stroke-width: 0.6"/>
      </defs>
      <g>
       <use xlink:href="#m7fbf85542c" x="230.4" y="318.036379" style="stroke: #000000; stroke-width: 0.6"/>
      </g>
     </g>
    </g>
    <g id="ytick_11">
     <g id="line2d_52">
      <g>
       <use xlink:href="#m7fbf85542c" x="230.4" y="307.984656" style="stroke: #000000; stroke-width: 0.6"/>
      </g>
     </g>
    </g>
    <g id="ytick_12">
     <g id="line2d_53">
      <g>
       <use xlink:href="#m7fbf85542c" x="230.4" y="297.932933" style="stroke: #000000; stroke-width: 0.6"/>
      </g>
     </g>
    </g>
    <g id="ytick_13">
     <g id="line2d_54">
      <g>
       <use xlink:href="#m7fbf85542c" x="230.4" y="277.829487" style="stroke: #000000; stroke-width: 0.6"/>
      </g>
     </g>
    </g>
    <g id="ytick_14">
     <g id="line2d_55">
      <g>
       <use xlink:href="#m7fbf85542c" x="230.4" y="267.777764" style="stroke: #000000; stroke-width: 0.6"/>
      </g>
     </g>
    </g>
    <g id="ytick_15">
     <g id="line2d_56">
      <g>
       <use xlink:href="#m7fbf85542c" x="230.4" y="257.726041" style="stroke: #000000; stroke-width: 0.6"/>
      </g>
     </g>
    </g>
    <g id="ytick_16">
     <g id="line2d_57">
      <g>
       <use xlink:href="#m7fbf85542c" x="230.4" y="237.622596" style="stroke: #000000; stroke-width: 0.6"/>
      </g>
     </g>
    </g>
    <g id="ytick_17">
     <g id="line2d_58">
      <g>
       <use xlink:href="#m7fbf85542c" x="230.4" y="227.570873" style="stroke: #000000; stroke-width: 0.6"/>
      </g>
     </g>
    </g>
    <g id="ytick_18">
     <g id="line2d_59">
      <g>
       <use xlink:href="#m7fbf85542c" x="230.4" y="217.51915" style="stroke: #000000; stroke-width: 0.6"/>
      </g>
     </g>
    </g>
    <g id="ytick_19">
     <g id="line2d_60">
      <g>
       <use xlink:href="#m7fbf85542c" x="230.4" y="197.415704" style="stroke: #000000; stroke-width: 0.6"/>
      </g>
     </g>
    </g>
    <g id="ytick_20">
     <g id="line2d_61">
      <g>
       <use xlink:href="#m7fbf85542c" x="230.4" y="187.363981" style="stroke: #000000; stroke-width: 0.6"/>
      </g>
     </g>
    </g>
    <g id="ytick_21">
     <g id="line2d_62">
      <g>
       <use xlink:href="#m7fbf85542c" x="230.4" y="177.312258" style="stroke: #000000; stroke-width: 0.6"/>
      </g>
     </g>
    </g>
    <g id="ytick_22">
     <g id="line2d_63">
      <g>
       <use xlink:href="#m7fbf85542c" x="230.4" y="157.208812" style="stroke: #000000; stroke-width: 0.6"/>
      </g>
     </g>
    </g>
    <g id="ytick_23">
     <g id="line2d_64">
      <g>
       <use xlink:href="#m7fbf85542c" x="230.4" y="147.157089" style="stroke: #000000; stroke-width: 0.6"/>
      </g>
     </g>
    </g>
    <g id="ytick_24">
     <g id="line2d_65">
      <g>
       <use xlink:href="#m7fbf85542c" x="230.4" y="137.105366" style="stroke: #000000; stroke-width: 0.6"/>
      </g>
     </g>
    </g>
    <g id="ytick_25">
     <g id="line2d_66">
      <g>
       <use xlink:href="#m7fbf85542c" x="230.4" y="117.001921" style="stroke: #000000; stroke-width: 0.6"/>
      </g>
     </g>
    </g>
    <g id="ytick_26">
     <g id="line2d_67">
      <g>
       <use xlink:href="#m7fbf85542c" x="230.4" y="106.950198" style="stroke: #000000; stroke-width: 0.6"/>
      </g>
     </g>
    </g>
    <g id="ytick_27">
     <g id="line2d_68">
      <g>
       <use xlink:href="#m7fbf85542c" x="230.4" y="96.898475" style="stroke: #000000; stroke-width: 0.6"/>
      </g>
     </g>
    </g>
    <g id="ytick_28">
     <g id="line2d_69">
      <g>
       <use xlink:href="#m7fbf85542c" x="230.4" y="76.795029" style="stroke: #000000; stroke-width: 0.6"/>
      </g>
     </g>
    </g>
    <g id="ytick_29">
     <g id="line2d_70">
      <g>
       <use xlink:href="#m7fbf85542c" x="230.4" y="66.743306" style="stroke: #000000; stroke-width: 0.6"/>
      </g>
     </g>
    </g>
    <g id="ytick_30">
     <g id="line2d_71">
      <g>
       <use xlink:href="#m7fbf85542c" x="230.4" y="56.691583" style="stroke: #000000; stroke-width: 0.6"/>
      </g>
     </g>
    </g>
    <g id="ytick_31">
     <g id="line2d_72">
      <g>
       <use xlink:href="#m7fbf85542c" x="230.4" y="36.588137" style="stroke: #000000; stroke-width: 0.6"/>
      </g>
     </g>
    </g>
    <g id="ytick_32">
     <g id="line2d_73">
      <g>
       <use xlink:href="#m7fbf85542c" x="230.4" y="26.536414" style="stroke: #000000; stroke-width: 0.6"/>
      </g>
     </g>
    </g>
    <g id="ytick_33">
     <g id="line2d_74">
      <g>
       <use xlink:href="#m7fbf85542c" x="230.4" y="16.484691" style="stroke: #000000; stroke-width: 0.6"/>
      </g>
     </g>
    </g>
   </g>
   <g id="line2d_75">
    <path d="M 149.986217 6.432968 
L 154.665649 42.77921 
L 158.594569 71.613666 
L 162.982663 102.002616 
L 166.875876 127.360609 
L 169.851601 145.725901 
L 173.336362 166.112945 
L 177.299492 187.83036 
L 180.473405 204.096181 
L 183.568874 218.994645 
L 186.299035 231.343738 
L 189.663422 245.541616 
L 192.483107 256.573457 
L 195.246987 266.619321 
L 197.508903 274.275225 
L 200.528683 283.702897 
L 203.412012 291.857919 
L 205.857076 298.125321 
L 207.912967 302.934868 
L 210.447303 308.285024 
L 213.02071 313.063825 
L 215.104336 316.450429 
L 216.908763 319.034258 
L 218.92595 321.539283 
L 220.705003 323.412637 
L 223.054575 325.404221 
L 224.836686 326.548542 
L 226.497692 327.330619 
L 227.44022 327.652341 
L 229.363067 328.034617 
L 230.767346 328.081389 
L 232.259905 327.91603 
L 233.762486 327.525695 
L 235.266834 326.909892 
L 237.030886 325.900982 
L 238.838128 324.54632 
L 240.720277 322.790099 
L 242.850999 320.376619 
L 244.752803 317.840955 
L 246.921678 314.510039 
L 249.218688 310.472067 
L 251.329844 306.297888 
L 253.883425 300.656424 
L 256.724473 293.617501 
L 259.56226 285.785035 
L 262.876049 275.624769 
L 265.765921 265.872481 
L 268.390795 256.294416 
L 271.49882 244.067031 
L 274.269524 232.356496 
L 277.270928 218.80913 
L 280.730569 202.081537 
L 283.909115 185.663495 
L 287.623595 165.203598 
L 290.48749 148.491706 
L 294.315693 124.878373 
L 297.57295 103.638762 
L 301.799785 74.503249 
L 306.178837 42.443933 
L 310.178502 11.495142 
L 310.813783 6.432968 
L 310.813783 6.432968 
" clip-path="url(#p89af9b1b6f)" style="fill: none; stroke: #0000ff; stroke-linecap: square"/>
   </g>
   <g id="patch_4">
    <path d="M 230.4 334.514358 
L 230.4 0 
" style="fill: none; stroke: #000000; stroke-width: 0.8; stroke-linejoin: miter; stroke-linecap: square"/>
   </g>
   <g id="patch_5">
    <path d="M 146.769665 328.088102 
L 314.030335 328.088102 
" style="fill: none; stroke: #000000; stroke-width: 0.8; stroke-linejoin: miter; stroke-linecap: square"/>
   </g>
  </g>
 </g>
 <defs>
  <clipPath id="p89af9b1b6f">
   <rect x="146.769665" y="0" width="167.260669" height="334.514358"/>
  </clipPath>
 </defs>
</svg>
