<?xml version="1.0" encoding="utf-8" standalone="no"?>
<!DOCTYPE svg PUBLIC "-//W3C//DTD SVG 1.1//EN"
  "http://www.w3.org/Graphics/SVG/1.1/DTD/svg11.dtd">
<!-- Created with matplotlib (http://matplotlib.org/) -->
<svg height="345.6pt" version="1.1" viewBox="0 0 460.8 345.6" width="460.8pt" xmlns="http://www.w3.org/2000/svg" xmlns:xlink="http://www.w3.org/1999/xlink">
 <defs>
  <style type="text/css">
*{stroke-linecap:butt;stroke-linejoin:round;}
  </style>
 </defs>
 <g id="figure_1">
  <g id="patch_1">
   <path d="M 0 345.6 
L 460.8 345.6 
L 460.8 0 
L 0 0 
z
" style="fill:#ffffff;"/>
  </g>
  <g id="axes_1">
   <g id="patch_2">
    <path d="M 60.117695 343.08 
L 400.682305 343.08 
L 400.682305 2.52 
L 60.117695 2.52 
z
" style="fill:#ffffff;"/>
   </g>
   <g id="patch_3">
    <path clip-path="url(#p21ca8d6abb)" d="M 394.132986 172.797975 
L 394.097764 174.571387 
L 393.992167 176.342927 
L 393.739857 178.716968 
L 393.361746 181.079772 
L 393.032407 182.682326 
L 392.645688 184.276212 
L 392.202208 185.860074 
L 391.702672 187.43258 
L 391.070025 189.198717 
L 390.367743 190.946768 
L 389.063199 193.781555 
L 387.580853 196.554947 
L 386.543186 198.293406 
L 385.438373 200.002189 
L 383.754941 202.380016 
L 381.947939 204.690402 
L 380.534984 206.355528 
L 379.062031 207.980396 
L 377.53259 209.563892 
L 375.950275 211.105076 
L 373.993084 212.892156 
L 371.972035 214.616635 
L 369.132766 216.860541 
L 365.082416 219.757913 
L 360.368303 222.763433 
L 352.139626 227.287734 
L 347.733804 229.42369 
L 344.158629 231.047284 
L 341.592745 232.164769 
L 339.065316 233.235387 
L 336.823853 234.166547 
L 334.624735 235.06971 
L 331.710711 236.262075 
L 328.893652 237.425527 
L 328.245906 237.696545 
L 325.970717 238.665114 
L 323.776238 239.633538 
L 322.416408 240.256773 
L 321.091583 240.885566 
L 319.802266 241.52208 
L 318.548818 242.168452 
L 317.357399 242.812404 
L 316.200578 243.469734 
L 314.826526 244.298435 
L 313.504185 245.153551 
L 312.266073 246.014347 
L 311.075392 246.906092 
L 309.930988 247.831481 
L 308.831464 248.793038 
L 307.67134 249.89584 
L 306.459349 251.158918 
L 305.303368 252.484493 
L 304.325867 253.709295 
L 303.385788 254.986676 
L 302.601597 256.133057 
L 301.840637 257.320287 
L 300.857279 258.96907 
L 299.905371 260.692014 
L 299.338056 261.778547 
L 298.778804 262.892524 
L 298.226199 264.033744 
L 297.678807 265.201922 
L 296.968153 266.770231 
L 296.260674 268.38298 
L 295.52607 270.102823 
L 294.787686 271.867418 
L 294.041873 273.674749 
L 293.285026 275.522522 
L 292.368601 277.761924 
L 291.425904 280.049811 
L 290.35057 282.619439 
L 289.308202 285.052708 
L 288.220661 287.518172 
L 286.152486 291.973941 
L 284.045828 296.18354 
L 282.104158 299.774047 
L 278.118763 306.341719 
L 276.236412 309.105096 
L 274.254317 311.804561 
L 271.917268 314.732894 
L 269.455119 317.545412 
L 267.545905 319.549206 
L 265.159329 321.852794 
L 262.679483 324.02603 
L 260.141517 326.033852 
L 257.52127 327.892131 
L 255.860054 328.963325 
L 253.737323 330.216822 
L 251.573677 331.366433 
L 250.003395 332.122595 
L 248.415164 332.822406 
L 246.810314 333.464673 
L 245.190222 334.048297 
L 243.613759 334.554941 
L 242.025738 335.005236 
L 240.427499 335.398459 
L 238.820414 335.73398 
L 236.15476 336.159826 
L 233.475198 336.425477 
L 230.648279 336.530769 
L 227.820693 336.456969 
L 225.467283 336.258667 
L 223.624611 336.016074 
L 221.78971 335.697639 
L 219.964653 335.304024 
L 218.15148 334.836048 
L 216.259278 334.264617 
L 214.384705 333.613294 
L 212.765184 332.980877 
L 211.162178 332.289862 
L 209.577056 331.541445 
L 208.011135 330.736916 
L 206.001592 329.606703 
L 204.029422 328.386864 
L 201.283717 326.49729 
L 199.577207 325.205028 
L 197.907851 323.848902 
L 196.276986 322.432101 
L 194.68579 320.957933 
L 193.027897 319.320515 
L 190.679924 316.813099 
L 188.437032 314.195827 
L 186.245837 311.4107 
L 184.166992 308.541038 
L 181.407565 304.354911 
L 177.611529 297.804262 
L 174.949877 292.6007 
L 172.704055 287.797941 
L 172.011705 286.243552 
L 170.450098 282.623388 
L 169.646625 280.708259 
L 168.865556 278.821082 
L 168.103866 276.964827 
L 167.358438 275.142249 
L 166.523826 273.107409 
L 165.701374 271.123065 
L 164.756434 268.889251 
L 163.835107 266.779802 
L 162.908429 264.745706 
L 162.298065 263.461455 
L 161.680386 262.210646 
L 161.053441 260.993607 
L 160.415308 259.810533 
L 159.840799 258.793773 
L 159.25482 257.803532 
L 158.656131 256.839696 
L 158.043526 255.902071 
L 156.940595 254.331743 
L 156.158156 253.303577 
L 155.349918 252.310358 
L 154.514224 251.351149 
L 153.649522 250.424882 
L 152.463671 249.252859 
L 151.700257 248.552234 
L 150.914729 247.870825 
L 150.106507 247.207781 
L 149.275073 246.562204 
L 148.131289 245.72816 
L 146.944647 244.921067 
L 145.512076 244.014461 
L 144.020036 243.136837 
L 142.659032 242.385955 
L 141.251804 241.651264 
L 139.7986 240.929736 
L 138.299911 240.218282 
L 137.834112 240.002929 
L 135.506745 238.9603 
L 133.084974 237.920461 
L 130.381369 236.793693 
L 127.581535 235.645301 
L 125.214868 234.676549 
L 122.794767 233.677932 
L 119.020835 232.085148 
L 115.764343 230.657254 
L 112.463484 229.14151 
L 109.551844 227.734173 
L 105.813341 225.811204 
L 100.17586 222.609703 
L 97.110159 220.683783 
L 94.102474 218.642024 
L 91.405655 216.662517 
L 88.786084 214.582868 
L 86.787574 212.875971 
L 84.851618 211.107813 
L 82.142848 208.410327 
L 79.512612 205.484036 
L 78.270942 203.972583 
L 77.081477 202.430202 
L 75.735136 200.552912 
L 74.470009 198.635263 
L 73.223443 196.564202 
L 72.107874 194.515531 
L 71.088828 192.432103 
L 70.178039 190.338144 
L 69.367553 188.216089 
L 68.659776 186.069126 
L 68.056815 183.900565 
L 67.478759 181.298748 
L 67.198194 179.682039 
L 66.976479 178.059202 
L 66.813974 176.431669 
L 66.710941 174.80089 
L 66.667014 173.097274 
L 66.688105 171.393366 
L 66.802514 169.307729 
L 67.01416 167.22719 
L 67.340945 165.048444 
L 67.773654 162.882146 
L 68.311026 160.731708 
L 68.951497 158.600464 
L 69.913268 155.91961 
L 71.034646 153.281559 
L 72.136811 151.024499 
L 73.352103 148.808302 
L 74.515752 146.888374 
L 75.761103 145.005346 
L 77.607756 142.471 
L 79.594126 140.015875 
L 80.844266 138.587712 
L 82.411444 136.905066 
L 84.038761 135.268229 
L 85.72202 133.678186 
L 87.456917 132.135703 
L 90.621097 129.538971 
L 93.153905 127.633016 
L 95.748152 125.816687 
L 100.575675 122.74547 
L 103.734681 120.919059 
L 108.925674 118.174218 
L 113.490285 115.974563 
L 116.068633 114.802685 
L 118.618804 113.684009 
L 122.232368 112.152142 
L 125.749492 110.70019 
L 127.641013 109.926327 
L 129.494495 109.167193 
L 131.633166 108.283816 
L 133.711282 107.410006 
L 135.144912 106.793499 
L 137.213851 105.876032 
L 139.207322 104.950508 
L 140.711606 104.216944 
L 142.167966 103.470818 
L 143.57604 102.708866 
L 144.935732 101.9279 
L 146.310715 101.084542 
L 147.413628 100.362464 
L 148.480623 99.619268 
L 149.512284 98.853125 
L 150.509334 98.062296 
L 151.514376 97.208442 
L 152.483753 96.324118 
L 153.219104 95.608957 
L 153.934026 94.873359 
L 154.629249 94.116646 
L 155.305552 93.338195 
L 156.490401 91.864094 
L 157.620748 90.313259 
L 158.545747 88.928785 
L 159.406305 87.540914 
L 160.241221 86.098346 
L 160.94399 84.809273 
L 161.632912 83.479336 
L 162.310514 82.108771 
L 162.97937 80.698005 
L 163.593309 79.35607 
L 164.204073 77.980807 
L 165.256642 75.531679 
L 166.316809 72.990588 
L 167.345553 70.485196 
L 168.216752 68.355387 
L 169.110741 66.180257 
L 170.188362 63.593027 
L 171.311134 60.958011 
L 173.020277 57.09929 
L 174.497711 53.931968 
L 176.068137 50.744789 
L 178.11389 46.867886 
L 181.991407 40.317285 
L 183.460356 38.084332 
L 186.438663 33.930593 
L 188.015461 31.917834 
L 189.650691 29.955817 
L 190.752712 28.70165 
L 192.980258 26.324071 
L 195.300232 24.057732 
L 196.903676 22.608393 
L 198.546192 21.217476 
L 200.226548 19.888224 
L 201.943357 18.62376 
L 202.092244 18.51843 
L 204.370129 16.990325 
L 206.702578 15.582296 
L 208.581605 14.558333 
L 210.489997 13.615462 
L 212.425465 12.756065 
L 214.385605 11.982324 
L 216.13261 11.372653 
L 217.895067 10.832337 
L 219.767218 10.339144 
L 221.652294 9.925267 
L 223.54805 9.591625 
L 225.452197 9.338957 
L 227.431007 9.163209 
L 229.413735 9.075369 
L 231.050312 9.069231 
L 232.686303 9.123062 
L 234.320239 9.236774 
L 235.950657 9.410184 
L 237.964758 9.707594 
L 239.968475 10.095563 
L 242.843162 10.815029 
L 245.682516 11.718195 
L 247.260886 12.305096 
L 248.824339 12.947672 
L 250.757391 13.828367 
L 252.662715 14.792315 
L 254.538037 15.83707 
L 256.381212 16.959996 
L 258.100574 18.096582 
L 259.787509 19.298602 
L 261.892476 20.924599 
L 263.939389 22.646998 
L 265.669715 24.217769 
L 268.19563 26.712046 
L 270.610479 29.337074 
L 272.935562 32.106602 
L 275.143467 34.976752 
L 277.754157 38.70302 
L 279.84948 41.980709 
L 282.986269 47.419528 
L 286.583517 54.524447 
L 287.716088 56.961753 
L 289.387177 60.725315 
L 290.954416 64.413074 
L 291.865165 66.609112 
L 292.749446 68.763844 
L 293.029578 69.448715 
L 293.922208 71.629665 
L 294.79884 73.755401 
L 295.64188 75.766909 
L 296.480739 77.719639 
L 297.320886 79.611102 
L 298.167784 81.439294 
L 298.87077 82.88949 
L 299.53166 84.193173 
L 300.204399 85.458732 
L 301.125081 87.088976 
L 302.076139 88.651187 
L 302.773522 89.72078 
L 303.490531 90.756701 
L 304.22883 91.759468 
L 304.990007 92.729719 
L 305.796083 93.691907 
L 306.629346 94.62163 
L 307.491229 95.519956 
L 308.383055 96.388072 
L 309.315212 97.23534 
L 310.276358 98.051379 
L 311.271122 98.841156 
L 312.300359 99.606308 
L 313.364793 100.348567 
L 314.98015 101.393014 
L 316.529141 102.316404 
L 318.143552 103.211919 
L 319.803371 104.074427 
L 321.526667 104.919492 
L 323.175189 105.689443 
L 324.876114 106.452841 
L 327.122852 107.424957 
L 329.449089 108.401547 
L 331.78592 109.364711 
L 334.188791 110.347858 
L 336.020947 111.098798 
L 337.884052 111.868108 
L 339.990138 112.749364 
L 342.126812 113.660965 
L 346.473659 115.590046 
L 348.123991 116.354926 
L 353.525208 119.016626 
L 357.736362 121.296806 
L 364.635911 125.537728 
L 365.716394 126.270568 
L 368.297147 128.110421 
L 370.813474 130.040113 
L 374.431193 133.093238 
L 376.164652 134.694349 
L 377.841712 136.344269 
L 378.656915 137.186427 
L 380.382357 139.067076 
L 382.027158 141.002331 
L 383.585981 142.990183 
L 385.053729 145.028324 
L 385.941633 146.35576 
L 386.855491 147.810902 
L 387.720791 149.286938 
L 388.536159 150.782827 
L 389.300292 152.297479 
L 390.398569 154.722089 
L 391.361949 157.185802 
L 392.054702 159.251601 
L 392.650415 161.337843 
L 393.256383 163.971122 
L 393.705381 166.625487 
L 393.892254 168.164277 
L 394.025929 169.706777 
L 394.106212 171.251756 
L 394.132986 172.797975 
L 366.844071 172.797975 
L 366.792987 171.425809 
L 366.639834 170.056448 
L 366.38491 168.692686 
L 366.028707 167.337304 
L 365.632534 166.155094 
L 365.159241 164.983337 
L 364.376471 163.378839 
L 363.448969 161.802749 
L 362.379399 160.259733 
L 361.170825 158.754311 
L 359.830869 157.295094 
L 359.013455 156.488563 
L 358.15476 155.697473 
L 357.255564 154.92253 
L 356.316683 154.164415 
L 354.37406 152.73633 
L 352.290356 151.379397 
L 351.060932 150.650144 
L 349.790585 149.945377 
L 348.480685 149.265752 
L 347.132638 148.611885 
L 344.327927 147.383666 
L 341.388436 146.26476 
L 339.685521 145.686349 
L 337.946402 145.143853 
L 334.387391 144.172751 
L 330.712792 143.34763 
L 327.94219 142.833679 
L 325.126886 142.399549 
L 322.114272 142.02734 
L 319.069752 141.742766 
L 313.095072 141.434756 
L 307.102316 141.437297 
L 300.519466 141.776987 
L 296.899939 142.107844 
L 293.340629 142.530316 
L 289.05155 143.165401 
L 284.900367 143.909731 
L 281.491361 144.615647 
L 278.212562 145.374733 
L 278.030568 145.419161 
L 275.94219 145.946187 
L 273.919886 146.486602 
L 271.966703 147.036409 
L 270.085455 147.591541 
L 268.253384 148.155832 
L 266.500404 148.717001 
L 264.828682 149.270659 
L 263.240116 149.812398 
L 262.073068 150.219181 
L 260.957064 150.614233 
L 259.79735 151.029849 
L 258.699701 151.426469 
L 257.66454 151.801511 
L 256.692151 152.152419 
L 255.837919 152.457149 
L 255.038959 152.736422 
L 254.454802 152.935049 
L 253.904038 153.116077 
L 253.386536 153.278587 
L 252.902128 153.421683 
L 252.450607 153.544481 
L 252.031728 153.646121 
L 251.64521 153.725762 
L 251.290735 153.782584 
L 250.833976 153.822786 
L 250.449116 153.811978 
L 250.125626 153.749297 
L 249.862091 153.632766 
L 249.656965 153.460519 
L 249.494096 153.198375 
L 249.400281 152.861418 
L 249.373134 152.537907 
L 249.386638 152.164598 
L 249.439257 151.740624 
L 249.529388 151.265212 
L 249.705266 150.549284 
L 249.940902 149.739142 
L 250.232019 148.83374 
L 250.574186 147.832345 
L 250.829139 147.109159 
L 251.103477 146.342842 
L 251.395788 145.533416 
L 251.704639 144.68097 
L 252.015735 143.821235 
L 252.339474 142.922094 
L 252.674551 141.983796 
L 253.019648 141.006647 
L 253.379214 139.974322 
L 253.746371 138.902697 
L 254.119727 137.79227 
L 254.497889 136.643598 
L 255.039884 134.949682 
L 255.584802 133.182002 
L 256.128722 131.342743 
L 256.667762 129.434314 
L 257.274974 127.164037 
L 257.835487 124.932513 
L 258.375859 122.630049 
L 259.098345 119.253241 
L 259.758531 115.75556 
L 260.447763 111.446389 
L 261.012622 107.010902 
L 261.707587 97.740831 
L 261.792452 94.294432 
L 261.633439 86.820693 
L 261.178441 81.160177 
L 260.838693 78.367015 
L 260.422997 75.608381 
L 259.709961 71.805106 
L 258.846257 68.104456 
L 258.477992 66.726404 
L 257.721166 64.16753 
L 256.888079 61.683351 
L 255.980167 59.280855 
L 254.999205 56.966831 
L 254.139625 55.135601 
L 253.233425 53.372118 
L 252.282072 51.679788 
L 251.287169 50.06189 
L 250.409246 48.74855 
L 249.460379 47.437334 
L 248.481144 46.191316 
L 247.472979 45.012417 
L 246.437391 43.902457 
L 244.942117 42.465436 
L 243.400554 41.171695 
L 242.444728 40.458308 
L 241.4747 39.799925 
L 240.491588 39.197286 
L 239.496532 38.651072 
L 238.345669 38.096472 
L 237.182473 37.617258 
L 236.008735 37.214136 
L 234.82627 36.887703 
L 233.971072 36.700539 
L 233.112991 36.553475 
L 232.252721 36.446623 
L 231.390955 36.380066 
L 230.528388 36.353853 
L 229.665717 36.368006 
L 228.803638 36.422513 
L 227.942848 36.517332 
L 226.956444 36.675925 
L 226.013853 36.877768 
L 225.075555 37.128124 
L 224.142464 37.426761 
L 223.215488 37.773401 
L 222.295527 38.167723 
L 221.38347 38.60936 
L 220.480195 39.097903 
L 219.586568 39.632899 
L 218.413946 40.415926 
L 217.261882 41.279031 
L 216.132294 42.220803 
L 215.027046 43.239701 
L 213.541626 44.773155 
L 212.409587 46.079821 
L 211.313548 47.47062 
L 210.255523 48.942872 
L 209.237414 50.493746 
L 208.225961 52.181408 
L 207.408095 53.667353 
L 206.624545 55.206632 
L 205.876265 56.797002 
L 205.16413 58.436147 
L 204.499218 60.094944 
L 203.870769 61.796372 
L 203.279378 63.538054 
L 202.725558 65.317564 
L 201.758759 68.872705 
L 200.937467 72.542712 
L 200.481678 74.98375 
L 200.08795 77.460121 
L 199.485523 82.497467 
L 199.192151 86.347252 
L 199.033347 90.222328 
L 199.027661 95.617121 
L 199.297528 101.57151 
L 199.961156 108.513339 
L 200.55748 112.829652 
L 201.268053 117.016253 
L 201.731939 119.408 
L 202.225091 121.742169 
L 202.743421 124.014468 
L 203.282703 126.220839 
L 203.705343 127.8567 
L 204.135674 129.450413 
L 204.573831 131.007934 
L 205.015673 132.519958 
L 205.459118 133.985152 
L 205.902061 135.402285 
L 206.406651 136.966769 
L 206.904579 138.465019 
L 207.361052 139.804157 
L 207.806252 141.083275 
L 208.237546 142.301537 
L 208.652311 143.458247 
L 209.213243 145.009036 
L 209.476562 145.73613 
L 209.727194 146.430895 
L 209.975983 147.126383 
L 210.208654 147.786073 
L 210.424155 148.409994 
L 210.621448 148.998223 
L 210.863547 149.756864 
L 211.065812 150.447234 
L 211.225642 151.069956 
L 211.340519 151.625815 
L 211.408205 152.117759 
L 211.425735 152.544307 
L 211.390857 152.906721 
L 211.301431 153.206407 
L 211.175856 153.419662 
L 211.005081 153.586594 
L 210.789974 153.707565 
L 210.528135 153.785496 
L 210.218529 153.821735 
L 209.860209 153.817697 
L 209.326481 153.755702 
L 208.709162 153.63287 
L 208.006873 153.452661 
L 207.218491 153.218689 
L 206.542557 153.001054 
L 205.862247 152.771576 
L 205.135149 152.518576 
L 204.36117 152.243616 
L 203.540295 151.948285 
L 202.306947 151.501695 
L 200.981459 151.022578 
L 199.564564 150.515549 
L 198.057303 149.985272 
L 196.52032 149.45657 
L 194.902103 148.914849 
L 193.314262 148.399383 
L 191.658284 147.879648 
L 189.935979 147.359075 
L 188.149348 146.841069 
L 186.037444 146.258104 
L 183.848352 145.687742 
L 181.174499 145.038241 
L 178.40551 144.42056 
L 175.512086 143.835066 
L 172.536669 143.297131 
L 169.487836 142.81376 
L 166.374617 142.391575 
L 160.90258 141.826766 
L 158.670629 141.662383 
L 145.581929 141.507435 
L 142.232376 141.704267 
L 138.907971 142.003407 
L 133.942785 142.656006 
L 131.403534 143.09217 
L 128.904639 143.59446 
L 126.451893 144.162764 
L 124.051015 144.796715 
L 121.03781 145.711034 
L 118.752866 146.501387 
L 116.539454 147.355775 
L 113.809884 148.544828 
L 111.218209 149.833426 
L 109.977384 150.513733 
L 108.774927 151.217263 
L 107.612061 151.943386 
L 106.489974 152.691433 
L 105.199148 153.616861 
L 103.970571 154.571561 
L 102.683744 155.662332 
L 101.477958 156.7855 
L 100.35541 157.939061 
L 99.318147 159.120924 
L 98.163492 160.608246 
L 97.143562 162.130833 
L 96.550109 163.144799 
L 96.016334 164.170796 
L 95.542871 165.207564 
L 95.130282 166.253819 
L 94.606073 167.913987 
L 94.234917 169.589267 
L 94.100873 170.479767 
L 94.010076 171.372277 
L 93.9626 172.266024 
L 93.958485 173.160233 
L 93.997733 174.054127 
L 94.080314 174.946932 
L 94.206158 175.837873 
L 94.375162 176.726179 
L 94.724442 178.104143 
L 95.298631 179.789071 
L 96.029284 181.45163 
L 96.914179 183.086559 
L 97.95063 184.68872 
L 98.519884 185.469557 
L 99.179833 186.307414 
L 99.881866 187.132839 
L 100.625366 187.945103 
L 101.409678 188.74349 
L 102.234115 189.527307 
L 103.097953 190.295876 
L 104.940777 191.784672 
L 106.972185 193.232024 
L 109.149203 194.602599 
L 111.464851 195.892593 
L 113.910806 197.097989 
L 116.478313 198.215243 
L 118.589995 199.034784 
L 120.767367 199.795932 
L 122.738533 200.417946 
L 124.753676 200.993081 
L 126.809356 201.52086 
L 128.902078 202.000936 
L 131.661164 202.551366 
L 134.468638 203.021328 
L 136.967926 203.367875 
L 142.624288 203.920031 
L 148.349755 204.175519 
L 156.515292 204.055298 
L 163.359335 203.543801 
L 167.834976 203.01536 
L 172.19112 202.357062 
L 175.545 201.754569 
L 178.794872 201.09192 
L 182.061176 200.348092 
L 183.788401 199.92334 
L 185.472679 199.488309 
L 187.112277 199.045148 
L 188.705564 198.59604 
L 190.496081 198.069848 
L 192.219841 197.542139 
L 193.874825 197.016467 
L 195.459216 196.496415 
L 196.557735 196.126668 
L 197.618113 195.763078 
L 199.199876 195.209664 
L 200.685496 194.679832 
L 202.073749 194.178734 
L 203.363758 193.71147 
L 204.606842 193.264586 
L 205.741757 192.865832 
L 206.411022 192.638572 
L 207.036252 192.434675 
L 207.617658 192.255523 
L 208.155514 192.102469 
L 208.755569 191.952473 
L 209.291544 191.845981 
L 209.764342 191.785264 
L 210.175009 191.772502 
L 210.434013 191.794346 
L 210.661612 191.84313 
L 210.904552 191.944114 
L 211.099579 192.090431 
L 211.247911 192.283386 
L 211.350851 192.524203 
L 211.418622 192.904478 
L 211.41725 193.367352 
L 211.350017 193.914759 
L 211.220386 194.54838 
L 211.094559 195.043605 
L 210.941266 195.58212 
L 210.701838 196.351381 
L 210.420838 197.195686 
L 210.101388 198.115434 
L 209.746687 199.110822 
L 209.357192 200.189618 
L 208.871545 201.530436 
L 208.352499 202.972576 
L 207.805435 204.515002 
L 207.235781 206.156311 
L 206.822217 207.375899 
L 206.402014 208.643336 
L 205.977102 209.957792 
L 205.549405 211.318353 
L 205.091326 212.822495 
L 204.634573 214.376826 
L 204.124019 216.187826 
L 203.62133 218.058544 
L 203.129707 219.986564 
L 202.652291 221.9693 
L 201.88093 225.462531 
L 201.174211 229.091707 
L 200.536986 232.899595 
L 199.80162 238.447924 
L 199.288672 244.153949 
L 199.06348 248.643681 
L 199.021139 254.805261 
L 199.144792 258.377669 
L 199.3819 261.932125 
L 199.701224 265.161461 
L 200.119743 268.352541 
L 200.63842 271.494299 
L 201.25763 274.575746 
L 201.468043 275.508677 
L 201.965622 277.541417 
L 202.508938 279.536625 
L 203.097596 281.491028 
L 203.731079 283.401407 
L 204.827214 286.336023 
L 206.031546 289.13947 
L 207.263377 291.653259 
L 208.584274 294.03036 
L 209.310376 295.218062 
L 210.059068 296.364542 
L 210.829638 297.468605 
L 211.621339 298.5291 
L 212.433389 299.544917 
L 213.264976 300.514992 
L 214.115255 301.438309 
L 214.983351 302.313896 
L 215.955364 303.218684 
L 216.946513 304.063746 
L 218.263021 305.072354 
L 219.606915 305.975817 
L 220.797962 306.675815 
L 222.005539 307.293347 
L 223.227592 307.8274 
L 224.462032 308.277098 
L 225.870142 308.683053 
L 227.288279 308.979357 
L 228.713309 309.165386 
L 230.142076 309.240751 
L 231.451737 309.212514 
L 232.759439 309.09129 
L 234.062751 308.877294 
L 235.359251 308.570901 
L 236.284165 308.29436 
L 237.203453 307.970758 
L 238.11624 307.600388 
L 239.021663 307.183587 
L 240.112507 306.614189 
L 241.189659 305.977335 
L 242.73081 304.930983 
L 244.235283 303.746365 
L 245.698749 302.426843 
L 247.117056 300.976157 
L 247.651113 300.382514 
L 248.906208 298.876504 
L 250.114705 297.265957 
L 251.273832 295.554781 
L 252.381004 293.74712 
L 253.494667 291.731572 
L 254.544729 289.618069 
L 255.528859 287.412298 
L 256.445002 285.120176 
L 257.424919 282.347023 
L 258.307736 279.474841 
L 258.621507 278.344229 
L 259.349748 275.427298 
L 259.982627 272.439732 
L 260.519788 269.391578 
L 260.961405 266.293013 
L 261.429545 261.781337 
L 261.729068 256.619853 
L 261.545581 244.68995 
L 261.286198 241.313176 
L 260.889221 237.509388 
L 260.394202 233.781009 
L 259.581954 228.856706 
L 259.123993 226.47023 
L 258.636575 224.140248 
L 257.92726 221.043139 
L 257.180837 218.070649 
L 256.765991 216.519686 
L 256.345373 215.009247 
L 255.920816 213.540628 
L 255.494171 212.11504 
L 254.866043 210.096418 
L 254.243484 208.17681 
L 253.645281 206.396292 
L 253.063963 204.715698 
L 252.429317 202.924562 
L 252.12564 202.079307 
L 251.832458 201.267892 
L 251.545972 200.477139 
L 251.272514 199.72174 
L 251.013161 199.001788 
L 250.768977 198.31733 
L 250.541014 197.668371 
L 250.330308 197.05487 
L 250.13788 196.476742 
L 249.964734 195.933861 
L 249.816511 195.442062 
L 249.688128 194.982896 
L 249.580441 194.556133 
L 249.494284 194.161505 
L 249.426772 193.773892 
L 249.385901 193.422428 
L 249.37768 192.943289 
L 249.440641 192.549741 
L 249.578049 192.239513 
L 249.792946 192.010079 
L 249.99687 191.893529 
L 250.243257 191.816194 
L 250.690706 191.771187 
L 251.236963 191.806445 
L 251.7209 191.884503 
L 252.264446 192.004617 
L 252.868372 192.164695 
L 253.533319 192.36257 
L 254.550801 192.693132 
L 255.686105 193.085213 
L 256.939679 193.532577 
L 258.311485 194.028823 
L 259.493794 194.456654 
L 260.417721 194.788986 
L 261.382433 195.132928 
L 262.387593 195.487078 
L 263.432806 195.850028 
L 265.016697 196.388427 
L 266.682021 196.93803 
L 268.426902 197.494548 
L 270.249206 198.053716 
L 272.58731 198.737188 
L 274.318674 199.218248 
L 276.102894 199.691441 
L 277.937883 200.15407 
L 279.821425 200.603486 
L 282.448325 201.187057 
L 285.153919 201.735319 
L 287.931594 202.242248 
L 290.774361 202.702085 
L 296.841935 203.481989 
L 298.463004 203.643303 
L 309.095226 204.192796 
L 316.425689 204.029263 
L 320.208374 203.75722 
L 323.951223 203.352706 
L 326.516729 202.992828 
L 329.048829 202.567628 
L 331.541751 202.076936 
L 333.989776 201.520828 
L 336.550765 200.854354 
L 338.828676 200.182766 
L 341.047922 199.450746 
L 343.203567 198.659273 
L 345.290793 197.809538 
L 347.011345 197.040767 
L 348.676037 196.231706 
L 350.282143 195.383437 
L 351.827023 194.497142 
L 353.910423 193.175906 
L 355.21893 192.25994 
L 356.465807 191.314341 
L 357.649218 190.340426 
L 358.767412 189.339581 
L 359.589289 188.54513 
L 360.370146 187.736024 
L 361.109287 186.912981 
L 361.80605 186.076738 
L 362.538329 185.121334 
L 363.215377 184.151289 
L 363.836427 183.167727 
L 364.400772 182.171797 
L 364.977868 181.014801 
L 365.478533 179.844848 
L 365.902016 178.663768 
L 366.247679 177.473414 
L 366.508323 176.310676 
L 366.694762 175.142694 
L 366.80673 173.971211 
L 366.844071 172.797975 
z
" style="fill:#ffa500;opacity:0.5;"/>
   </g>
   <g id="matplotlib.axis_1">
    <g id="xtick_1">
     <g id="line2d_1">
      <defs>
       <path d="M 0 0 
L 0 3.5 
" id="mf932d0bb87" style="stroke:#000000;stroke-width:0.8;"/>
      </defs>
      <g>
       <use style="stroke:#000000;stroke-width:0.8;" x="66.666011" xlink:href="#mf932d0bb87" y="172.797975"/>
      </g>
     </g>
     <g id="text_1">
      <!-- -3 -->
      <defs>
       <path d="M 4.890625 31.390625 
L 31.203125 31.390625 
L 31.203125 23.390625 
L 4.890625 23.390625 
z
" id="DejaVuSans-2d"/>
       <path d="M 40.578125 39.3125 
Q 47.65625 37.796875 51.625 33 
Q 55.609375 28.21875 55.609375 21.1875 
Q 55.609375 10.40625 48.1875 4.484375 
Q 40.765625 -1.421875 27.09375 -1.421875 
Q 22.515625 -1.421875 17.65625 -0.515625 
Q 12.796875 0.390625 7.625 2.203125 
L 7.625 11.71875 
Q 11.71875 9.328125 16.59375 8.109375 
Q 21.484375 6.890625 26.8125 6.890625 
Q 36.078125 6.890625 40.9375 10.546875 
Q 45.796875 14.203125 45.796875 21.1875 
Q 45.796875 27.640625 41.28125 31.265625 
Q 36.765625 34.90625 28.71875 34.90625 
L 20.21875 34.90625 
L 20.21875 43.015625 
L 29.109375 43.015625 
Q 36.375 43.015625 40.234375 45.921875 
Q 44.09375 48.828125 44.09375 54.296875 
Q 44.09375 59.90625 40.109375 62.90625 
Q 36.140625 65.921875 28.71875 65.921875 
Q 24.65625 65.921875 20.015625 65.03125 
Q 15.375 64.15625 9.8125 62.3125 
L 9.8125 71.09375 
Q 15.4375 72.65625 20.34375 73.4375 
Q 25.25 74.21875 29.59375 74.21875 
Q 40.828125 74.21875 47.359375 69.109375 
Q 53.90625 64.015625 53.90625 55.328125 
Q 53.90625 49.265625 50.4375 45.09375 
Q 46.96875 40.921875 40.578125 39.3125 
z
" id="DejaVuSans-33"/>
      </defs>
      <g transform="translate(61.680855 187.396413)scale(0.1 -0.1)">
       <use xlink:href="#DejaVuSans-2d"/>
       <use x="36.083984" xlink:href="#DejaVuSans-33"/>
      </g>
     </g>
    </g>
    <g id="xtick_2">
     <g id="line2d_2">
      <g>
       <use style="stroke:#000000;stroke-width:0.8;" x="121.24384" xlink:href="#mf932d0bb87" y="172.797975"/>
      </g>
     </g>
     <g id="text_2">
      <!-- -2 -->
      <defs>
       <path d="M 19.1875 8.296875 
L 53.609375 8.296875 
L 53.609375 0 
L 7.328125 0 
L 7.328125 8.296875 
Q 12.9375 14.109375 22.625 23.890625 
Q 32.328125 33.6875 34.8125 36.53125 
Q 39.546875 41.84375 41.421875 45.53125 
Q 43.3125 49.21875 43.3125 52.78125 
Q 43.3125 58.59375 39.234375 62.25 
Q 35.15625 65.921875 28.609375 65.921875 
Q 23.96875 65.921875 18.8125 64.3125 
Q 13.671875 62.703125 7.8125 59.421875 
L 7.8125 69.390625 
Q 13.765625 71.78125 18.9375 73 
Q 24.125 74.21875 28.421875 74.21875 
Q 39.75 74.21875 46.484375 68.546875 
Q 53.21875 62.890625 53.21875 53.421875 
Q 53.21875 48.921875 51.53125 44.890625 
Q 49.859375 40.875 45.40625 35.40625 
Q 44.1875 33.984375 37.640625 27.21875 
Q 31.109375 20.453125 19.1875 8.296875 
z
" id="DejaVuSans-32"/>
      </defs>
      <g transform="translate(116.258684 187.396413)scale(0.1 -0.1)">
       <use xlink:href="#DejaVuSans-2d"/>
       <use x="36.083984" xlink:href="#DejaVuSans-32"/>
      </g>
     </g>
    </g>
    <g id="xtick_3">
     <g id="line2d_3">
      <g>
       <use style="stroke:#000000;stroke-width:0.8;" x="175.821669" xlink:href="#mf932d0bb87" y="172.797975"/>
      </g>
     </g>
     <g id="text_3">
      <!-- -1 -->
      <defs>
       <path d="M 12.40625 8.296875 
L 28.515625 8.296875 
L 28.515625 63.921875 
L 10.984375 60.40625 
L 10.984375 69.390625 
L 28.421875 72.90625 
L 38.28125 72.90625 
L 38.28125 8.296875 
L 54.390625 8.296875 
L 54.390625 0 
L 12.40625 0 
z
" id="DejaVuSans-31"/>
      </defs>
      <g transform="translate(170.836513 187.396413)scale(0.1 -0.1)">
       <use xlink:href="#DejaVuSans-2d"/>
       <use x="36.083984" xlink:href="#DejaVuSans-31"/>
      </g>
     </g>
    </g>
    <g id="xtick_4">
     <g id="line2d_4">
      <g>
       <use style="stroke:#000000;stroke-width:0.8;" x="230.399498" xlink:href="#mf932d0bb87" y="172.797975"/>
      </g>
     </g>
    </g>
    <g id="xtick_5">
     <g id="line2d_5">
      <g>
       <use style="stroke:#000000;stroke-width:0.8;" x="284.977328" xlink:href="#mf932d0bb87" y="172.797975"/>
      </g>
     </g>
     <g id="text_4">
      <!-- 1 -->
      <g transform="translate(281.796078 187.396413)scale(0.1 -0.1)">
       <use xlink:href="#DejaVuSans-31"/>
      </g>
     </g>
    </g>
    <g id="xtick_6">
     <g id="line2d_6">
      <g>
       <use style="stroke:#000000;stroke-width:0.8;" x="339.555157" xlink:href="#mf932d0bb87" y="172.797975"/>
      </g>
     </g>
     <g id="text_5">
      <!-- 2 -->
      <g transform="translate(336.373907 187.396413)scale(0.1 -0.1)">
       <use xlink:href="#DejaVuSans-32"/>
      </g>
     </g>
    </g>
    <g id="xtick_7">
     <g id="line2d_7">
      <g>
       <use style="stroke:#000000;stroke-width:0.8;" x="394.132986" xlink:href="#mf932d0bb87" y="172.797975"/>
      </g>
     </g>
     <g id="text_6">
      <!-- 3 -->
      <g transform="translate(390.951736 187.396413)scale(0.1 -0.1)">
       <use xlink:href="#DejaVuSans-33"/>
      </g>
     </g>
    </g>
    <g id="xtick_8">
     <g id="line2d_8">
      <defs>
       <path d="M 0 0 
L 0 2 
" id="m75f8d42cca" style="stroke:#000000;stroke-width:0.6;"/>
      </defs>
      <g>
       <use style="stroke:#000000;stroke-width:0.6;" x="77.581577" xlink:href="#m75f8d42cca" y="172.797975"/>
      </g>
     </g>
    </g>
    <g id="xtick_9">
     <g id="line2d_9">
      <g>
       <use style="stroke:#000000;stroke-width:0.6;" x="88.497143" xlink:href="#m75f8d42cca" y="172.797975"/>
      </g>
     </g>
    </g>
    <g id="xtick_10">
     <g id="line2d_10">
      <g>
       <use style="stroke:#000000;stroke-width:0.6;" x="99.412709" xlink:href="#m75f8d42cca" y="172.797975"/>
      </g>
     </g>
    </g>
    <g id="xtick_11">
     <g id="line2d_11">
      <g>
       <use style="stroke:#000000;stroke-width:0.6;" x="110.328275" xlink:href="#m75f8d42cca" y="172.797975"/>
      </g>
     </g>
    </g>
    <g id="xtick_12">
     <g id="line2d_12">
      <g>
       <use style="stroke:#000000;stroke-width:0.6;" x="132.159406" xlink:href="#m75f8d42cca" y="172.797975"/>
      </g>
     </g>
    </g>
    <g id="xtick_13">
     <g id="line2d_13">
      <g>
       <use style="stroke:#000000;stroke-width:0.6;" x="143.074972" xlink:href="#m75f8d42cca" y="172.797975"/>
      </g>
     </g>
    </g>
    <g id="xtick_14">
     <g id="line2d_14">
      <g>
       <use style="stroke:#000000;stroke-width:0.6;" x="153.990538" xlink:href="#m75f8d42cca" y="172.797975"/>
      </g>
     </g>
    </g>
    <g id="xtick_15">
     <g id="line2d_15">
      <g>
       <use style="stroke:#000000;stroke-width:0.6;" x="164.906104" xlink:href="#m75f8d42cca" y="172.797975"/>
      </g>
     </g>
    </g>
    <g id="xtick_16">
     <g id="line2d_16">
      <g>
       <use style="stroke:#000000;stroke-width:0.6;" x="175.821669" xlink:href="#m75f8d42cca" y="172.797975"/>
      </g>
     </g>
    </g>
    <g id="xtick_17">
     <g id="line2d_17">
      <g>
       <use style="stroke:#000000;stroke-width:0.6;" x="186.737235" xlink:href="#m75f8d42cca" y="172.797975"/>
      </g>
     </g>
    </g>
    <g id="xtick_18">
     <g id="line2d_18">
      <g>
       <use style="stroke:#000000;stroke-width:0.6;" x="197.652801" xlink:href="#m75f8d42cca" y="172.797975"/>
      </g>
     </g>
    </g>
    <g id="xtick_19">
     <g id="line2d_19">
      <g>
       <use style="stroke:#000000;stroke-width:0.6;" x="208.568367" xlink:href="#m75f8d42cca" y="172.797975"/>
      </g>
     </g>
    </g>
    <g id="xtick_20">
     <g id="line2d_20">
      <g>
       <use style="stroke:#000000;stroke-width:0.6;" x="219.483933" xlink:href="#m75f8d42cca" y="172.797975"/>
      </g>
     </g>
    </g>
    <g id="xtick_21">
     <g id="line2d_21">
      <g>
       <use style="stroke:#000000;stroke-width:0.6;" x="230.399498" xlink:href="#m75f8d42cca" y="172.797975"/>
      </g>
     </g>
    </g>
    <g id="xtick_22">
     <g id="line2d_22">
      <g>
       <use style="stroke:#000000;stroke-width:0.6;" x="241.315064" xlink:href="#m75f8d42cca" y="172.797975"/>
      </g>
     </g>
    </g>
    <g id="xtick_23">
     <g id="line2d_23">
      <g>
       <use style="stroke:#000000;stroke-width:0.6;" x="252.23063" xlink:href="#m75f8d42cca" y="172.797975"/>
      </g>
     </g>
    </g>
    <g id="xtick_24">
     <g id="line2d_24">
      <g>
       <use style="stroke:#000000;stroke-width:0.6;" x="263.146196" xlink:href="#m75f8d42cca" y="172.797975"/>
      </g>
     </g>
    </g>
    <g id="xtick_25">
     <g id="line2d_25">
      <g>
       <use style="stroke:#000000;stroke-width:0.6;" x="274.061762" xlink:href="#m75f8d42cca" y="172.797975"/>
      </g>
     </g>
    </g>
    <g id="xtick_26">
     <g id="line2d_26">
      <g>
       <use style="stroke:#000000;stroke-width:0.6;" x="284.977328" xlink:href="#m75f8d42cca" y="172.797975"/>
      </g>
     </g>
    </g>
    <g id="xtick_27">
     <g id="line2d_27">
      <g>
       <use style="stroke:#000000;stroke-width:0.6;" x="295.892893" xlink:href="#m75f8d42cca" y="172.797975"/>
      </g>
     </g>
    </g>
    <g id="xtick_28">
     <g id="line2d_28">
      <g>
       <use style="stroke:#000000;stroke-width:0.6;" x="306.808459" xlink:href="#m75f8d42cca" y="172.797975"/>
      </g>
     </g>
    </g>
    <g id="xtick_29">
     <g id="line2d_29">
      <g>
       <use style="stroke:#000000;stroke-width:0.6;" x="317.724025" xlink:href="#m75f8d42cca" y="172.797975"/>
      </g>
     </g>
    </g>
    <g id="xtick_30">
     <g id="line2d_30">
      <g>
       <use style="stroke:#000000;stroke-width:0.6;" x="328.639591" xlink:href="#m75f8d42cca" y="172.797975"/>
      </g>
     </g>
    </g>
    <g id="xtick_31">
     <g id="line2d_31">
      <g>
       <use style="stroke:#000000;stroke-width:0.6;" x="339.555157" xlink:href="#m75f8d42cca" y="172.797975"/>
      </g>
     </g>
    </g>
    <g id="xtick_32">
     <g id="line2d_32">
      <g>
       <use style="stroke:#000000;stroke-width:0.6;" x="350.470722" xlink:href="#m75f8d42cca" y="172.797975"/>
      </g>
     </g>
    </g>
    <g id="xtick_33">
     <g id="line2d_33">
      <g>
       <use style="stroke:#000000;stroke-width:0.6;" x="361.386288" xlink:href="#m75f8d42cca" y="172.797975"/>
      </g>
     </g>
    </g>
    <g id="xtick_34">
     <g id="line2d_34">
      <g>
       <use style="stroke:#000000;stroke-width:0.6;" x="372.301854" xlink:href="#m75f8d42cca" y="172.797975"/>
      </g>
     </g>
    </g>
    <g id="xtick_35">
     <g id="line2d_35">
      <g>
       <use style="stroke:#000000;stroke-width:0.6;" x="383.21742" xlink:href="#m75f8d42cca" y="172.797975"/>
      </g>
     </g>
    </g>
    <g id="xtick_36">
     <g id="line2d_36">
      <g>
       <use style="stroke:#000000;stroke-width:0.6;" x="394.132986" xlink:href="#m75f8d42cca" y="172.797975"/>
      </g>
     </g>
    </g>
   </g>
   <g id="matplotlib.axis_2">
    <g id="ytick_1">
     <g id="line2d_37">
      <defs>
       <path d="M 0 0 
L -3.5 0 
" id="m5c6bbbc99e" style="stroke:#000000;stroke-width:0.8;"/>
      </defs>
      <g>
       <use style="stroke:#000000;stroke-width:0.8;" x="230.399498" xlink:href="#m5c6bbbc99e" y="336.531462"/>
      </g>
     </g>
     <g id="text_7">
      <!-- -3 -->
      <g transform="translate(213.429186 340.330681)scale(0.1 -0.1)">
       <use xlink:href="#DejaVuSans-2d"/>
       <use x="36.083984" xlink:href="#DejaVuSans-33"/>
      </g>
     </g>
    </g>
    <g id="ytick_2">
     <g id="line2d_38">
      <g>
       <use style="stroke:#000000;stroke-width:0.8;" x="230.399498" xlink:href="#m5c6bbbc99e" y="281.953633"/>
      </g>
     </g>
     <g id="text_8">
      <!-- -2 -->
      <g transform="translate(213.429186 285.752852)scale(0.1 -0.1)">
       <use xlink:href="#DejaVuSans-2d"/>
       <use x="36.083984" xlink:href="#DejaVuSans-32"/>
      </g>
     </g>
    </g>
    <g id="ytick_3">
     <g id="line2d_39">
      <g>
       <use style="stroke:#000000;stroke-width:0.8;" x="230.399498" xlink:href="#m5c6bbbc99e" y="227.375804"/>
      </g>
     </g>
     <g id="text_9">
      <!-- -1 -->
      <g transform="translate(213.429186 231.175023)scale(0.1 -0.1)">
       <use xlink:href="#DejaVuSans-2d"/>
       <use x="36.083984" xlink:href="#DejaVuSans-31"/>
      </g>
     </g>
    </g>
    <g id="ytick_4">
     <g id="line2d_40">
      <g>
       <use style="stroke:#000000;stroke-width:0.8;" x="230.399498" xlink:href="#m5c6bbbc99e" y="172.797975"/>
      </g>
     </g>
    </g>
    <g id="ytick_5">
     <g id="line2d_41">
      <g>
       <use style="stroke:#000000;stroke-width:0.8;" x="230.399498" xlink:href="#m5c6bbbc99e" y="118.220146"/>
      </g>
     </g>
     <g id="text_10">
      <!-- 1 -->
      <g transform="translate(217.036998 122.019365)scale(0.1 -0.1)">
       <use xlink:href="#DejaVuSans-31"/>
      </g>
     </g>
    </g>
    <g id="ytick_6">
     <g id="line2d_42">
      <g>
       <use style="stroke:#000000;stroke-width:0.8;" x="230.399498" xlink:href="#m5c6bbbc99e" y="63.642317"/>
      </g>
     </g>
     <g id="text_11">
      <!-- 2 -->
      <g transform="translate(217.036998 67.441536)scale(0.1 -0.1)">
       <use xlink:href="#DejaVuSans-32"/>
      </g>
     </g>
    </g>
    <g id="ytick_7">
     <g id="line2d_43">
      <g>
       <use style="stroke:#000000;stroke-width:0.8;" x="230.399498" xlink:href="#m5c6bbbc99e" y="9.064488"/>
      </g>
     </g>
     <g id="text_12">
      <!-- 3 -->
      <g transform="translate(217.036998 12.863707)scale(0.1 -0.1)">
       <use xlink:href="#DejaVuSans-33"/>
      </g>
     </g>
    </g>
    <g id="ytick_8">
     <g id="line2d_44">
      <defs>
       <path d="M 0 0 
L -2 0 
" id="m3cec0a8df9" style="stroke:#000000;stroke-width:0.6;"/>
      </defs>
      <g>
       <use style="stroke:#000000;stroke-width:0.6;" x="230.399498" xlink:href="#m3cec0a8df9" y="325.615896"/>
      </g>
     </g>
    </g>
    <g id="ytick_9">
     <g id="line2d_45">
      <g>
       <use style="stroke:#000000;stroke-width:0.6;" x="230.399498" xlink:href="#m3cec0a8df9" y="314.700331"/>
      </g>
     </g>
    </g>
    <g id="ytick_10">
     <g id="line2d_46">
      <g>
       <use style="stroke:#000000;stroke-width:0.6;" x="230.399498" xlink:href="#m3cec0a8df9" y="303.784765"/>
      </g>
     </g>
    </g>
    <g id="ytick_11">
     <g id="line2d_47">
      <g>
       <use style="stroke:#000000;stroke-width:0.6;" x="230.399498" xlink:href="#m3cec0a8df9" y="292.869199"/>
      </g>
     </g>
    </g>
    <g id="ytick_12">
     <g id="line2d_48">
      <g>
       <use style="stroke:#000000;stroke-width:0.6;" x="230.399498" xlink:href="#m3cec0a8df9" y="271.038067"/>
      </g>
     </g>
    </g>
    <g id="ytick_13">
     <g id="line2d_49">
      <g>
       <use style="stroke:#000000;stroke-width:0.6;" x="230.399498" xlink:href="#m3cec0a8df9" y="260.122502"/>
      </g>
     </g>
    </g>
    <g id="ytick_14">
     <g id="line2d_50">
      <g>
       <use style="stroke:#000000;stroke-width:0.6;" x="230.399498" xlink:href="#m3cec0a8df9" y="249.206936"/>
      </g>
     </g>
    </g>
    <g id="ytick_15">
     <g id="line2d_51">
      <g>
       <use style="stroke:#000000;stroke-width:0.6;" x="230.399498" xlink:href="#m3cec0a8df9" y="238.29137"/>
      </g>
     </g>
    </g>
    <g id="ytick_16">
     <g id="line2d_52">
      <g>
       <use style="stroke:#000000;stroke-width:0.6;" x="230.399498" xlink:href="#m3cec0a8df9" y="227.375804"/>
      </g>
     </g>
    </g>
    <g id="ytick_17">
     <g id="line2d_53">
      <g>
       <use style="stroke:#000000;stroke-width:0.6;" x="230.399498" xlink:href="#m3cec0a8df9" y="216.460238"/>
      </g>
     </g>
    </g>
    <g id="ytick_18">
     <g id="line2d_54">
      <g>
       <use style="stroke:#000000;stroke-width:0.6;" x="230.399498" xlink:href="#m3cec0a8df9" y="205.544673"/>
      </g>
     </g>
    </g>
    <g id="ytick_19">
     <g id="line2d_55">
      <g>
       <use style="stroke:#000000;stroke-width:0.6;" x="230.399498" xlink:href="#m3cec0a8df9" y="194.629107"/>
      </g>
     </g>
    </g>
    <g id="ytick_20">
     <g id="line2d_56">
      <g>
       <use style="stroke:#000000;stroke-width:0.6;" x="230.399498" xlink:href="#m3cec0a8df9" y="183.713541"/>
      </g>
     </g>
    </g>
    <g id="ytick_21">
     <g id="line2d_57">
      <g>
       <use style="stroke:#000000;stroke-width:0.6;" x="230.399498" xlink:href="#m3cec0a8df9" y="172.797975"/>
      </g>
     </g>
    </g>
    <g id="ytick_22">
     <g id="line2d_58">
      <g>
       <use style="stroke:#000000;stroke-width:0.6;" x="230.399498" xlink:href="#m3cec0a8df9" y="161.882409"/>
      </g>
     </g>
    </g>
    <g id="ytick_23">
     <g id="line2d_59">
      <g>
       <use style="stroke:#000000;stroke-width:0.6;" x="230.399498" xlink:href="#m3cec0a8df9" y="150.966844"/>
      </g>
     </g>
    </g>
    <g id="ytick_24">
     <g id="line2d_60">
      <g>
       <use style="stroke:#000000;stroke-width:0.6;" x="230.399498" xlink:href="#m3cec0a8df9" y="140.051278"/>
      </g>
     </g>
    </g>
    <g id="ytick_25">
     <g id="line2d_61">
      <g>
       <use style="stroke:#000000;stroke-width:0.6;" x="230.399498" xlink:href="#m3cec0a8df9" y="129.135712"/>
      </g>
     </g>
    </g>
    <g id="ytick_26">
     <g id="line2d_62">
      <g>
       <use style="stroke:#000000;stroke-width:0.6;" x="230.399498" xlink:href="#m3cec0a8df9" y="118.220146"/>
      </g>
     </g>
    </g>
    <g id="ytick_27">
     <g id="line2d_63">
      <g>
       <use style="stroke:#000000;stroke-width:0.6;" x="230.399498" xlink:href="#m3cec0a8df9" y="107.30458"/>
      </g>
     </g>
    </g>
    <g id="ytick_28">
     <g id="line2d_64">
      <g>
       <use style="stroke:#000000;stroke-width:0.6;" x="230.399498" xlink:href="#m3cec0a8df9" y="96.389014"/>
      </g>
     </g>
    </g>
    <g id="ytick_29">
     <g id="line2d_65">
      <g>
       <use style="stroke:#000000;stroke-width:0.6;" x="230.399498" xlink:href="#m3cec0a8df9" y="85.473449"/>
      </g>
     </g>
    </g>
    <g id="ytick_30">
     <g id="line2d_66">
      <g>
       <use style="stroke:#000000;stroke-width:0.6;" x="230.399498" xlink:href="#m3cec0a8df9" y="74.557883"/>
      </g>
     </g>
    </g>
    <g id="ytick_31">
     <g id="line2d_67">
      <g>
       <use style="stroke:#000000;stroke-width:0.6;" x="230.399498" xlink:href="#m3cec0a8df9" y="63.642317"/>
      </g>
     </g>
    </g>
    <g id="ytick_32">
     <g id="line2d_68">
      <g>
       <use style="stroke:#000000;stroke-width:0.6;" x="230.399498" xlink:href="#m3cec0a8df9" y="52.726751"/>
      </g>
     </g>
    </g>
    <g id="ytick_33">
     <g id="line2d_69">
      <g>
       <use style="stroke:#000000;stroke-width:0.6;" x="230.399498" xlink:href="#m3cec0a8df9" y="41.811185"/>
      </g>
     </g>
    </g>
    <g id="ytick_34">
     <g id="line2d_70">
      <g>
       <use style="stroke:#000000;stroke-width:0.6;" x="230.399498" xlink:href="#m3cec0a8df9" y="30.89562"/>
      </g>
     </g>
    </g>
    <g id="ytick_35">
     <g id="line2d_71">
      <g>
       <use style="stroke:#000000;stroke-width:0.6;" x="230.399498" xlink:href="#m3cec0a8df9" y="19.980054"/>
      </g>
     </g>
    </g>
    <g id="ytick_36">
     <g id="line2d_72">
      <g>
       <use style="stroke:#000000;stroke-width:0.6;" x="230.399498" xlink:href="#m3cec0a8df9" y="9.064488"/>
      </g>
     </g>
    </g>
   </g>
   <g id="line2d_73">
    <path clip-path="url(#p21ca8d6abb)" d="M 366.844071 172.797975 
L 366.639834 170.056448 
L 366.028707 167.337304 
L 365.159241 164.983337 
L 364.376471 163.378839 
L 363.448969 161.802749 
L 362.379399 160.259733 
L 361.170825 158.754311 
L 359.013455 156.488563 
L 357.255564 154.92253 
L 354.37406 152.73633 
L 351.060932 150.650144 
L 348.480685 149.265752 
L 347.132638 148.611885 
L 344.327927 147.383666 
L 339.685521 145.686349 
L 337.946402 145.143853 
L 334.387391 144.172751 
L 327.94219 142.833679 
L 322.114272 142.02734 
L 319.069752 141.742766 
L 313.095072 141.434756 
L 307.102316 141.437297 
L 300.519466 141.776987 
L 293.340629 142.530316 
L 289.05155 143.165401 
L 281.491361 144.615647 
L 275.94219 145.946187 
L 270.085455 147.591541 
L 263.240116 149.812398 
L 252.031728 153.646121 
L 250.833976 153.822786 
L 250.125626 153.749297 
L 249.656965 153.460519 
L 249.400281 152.861418 
L 249.386638 152.164598 
L 249.529388 151.265212 
L 250.232019 148.83374 
L 253.019648 141.006647 
L 255.039884 134.949682 
L 256.667762 129.434314 
L 258.375859 122.630049 
L 259.758531 115.75556 
L 260.447763 111.446389 
L 261.012622 107.010902 
L 261.707587 97.740831 
L 261.792452 94.294432 
L 261.633439 86.820693 
L 261.178441 81.160177 
L 260.422997 75.608381 
L 259.709961 71.805106 
L 258.477992 66.726404 
L 256.888079 61.683351 
L 254.999205 56.966831 
L 253.233425 53.372118 
L 251.287169 50.06189 
L 249.460379 47.437334 
L 247.472979 45.012417 
L 246.437391 43.902457 
L 244.942117 42.465436 
L 242.444728 40.458308 
L 240.491588 39.197286 
L 238.345669 38.096472 
L 236.008735 37.214136 
L 233.971072 36.700539 
L 232.252721 36.446623 
L 230.528388 36.353853 
L 228.803638 36.422513 
L 226.956444 36.675925 
L 225.075555 37.128124 
L 223.215488 37.773401 
L 221.38347 38.60936 
L 219.586568 39.632899 
L 217.261882 41.279031 
L 215.027046 43.239701 
L 212.409587 46.079821 
L 210.255523 48.942872 
L 208.225961 52.181408 
L 206.624545 55.206632 
L 205.16413 58.436147 
L 203.870769 61.796372 
L 202.725558 65.317564 
L 201.758759 68.872705 
L 200.481678 74.98375 
L 200.08795 77.460121 
L 199.485523 82.497467 
L 199.192151 86.347252 
L 199.033347 90.222328 
L 199.027661 95.617121 
L 199.297528 101.57151 
L 199.961156 108.513339 
L 200.55748 112.829652 
L 201.731939 119.408 
L 203.282703 126.220839 
L 205.015673 132.519958 
L 206.904579 138.465019 
L 209.727194 146.430895 
L 211.065812 150.447234 
L 211.408205 152.117759 
L 211.390857 152.906721 
L 211.175856 153.419662 
L 210.789974 153.707565 
L 210.218529 153.821735 
L 209.326481 153.755702 
L 208.006873 153.452661 
L 205.135149 152.518576 
L 193.314262 148.399383 
L 188.149348 146.841069 
L 183.848352 145.687742 
L 178.40551 144.42056 
L 172.536669 143.297131 
L 166.374617 142.391575 
L 158.670629 141.662383 
L 145.581929 141.507435 
L 138.907971 142.003407 
L 131.403534 143.09217 
L 126.451893 144.162764 
L 124.051015 144.796715 
L 118.752866 146.501387 
L 116.539454 147.355775 
L 113.809884 148.544828 
L 109.977384 150.513733 
L 107.612061 151.943386 
L 105.199148 153.616861 
L 102.683744 155.662332 
L 100.35541 157.939061 
L 99.318147 159.120924 
L 98.163492 160.608246 
L 96.550109 163.144799 
L 95.542871 165.207564 
L 95.130282 166.253819 
L 94.606073 167.913987 
L 94.100873 170.479767 
L 93.9626 172.266024 
L 93.997733 174.054127 
L 94.206158 175.837873 
L 94.724442 178.104143 
L 95.298631 179.789071 
L 96.029284 181.45163 
L 96.914179 183.086559 
L 98.519884 185.469557 
L 99.881866 187.132839 
L 101.409678 188.74349 
L 103.097953 190.295876 
L 104.940777 191.784672 
L 106.972185 193.232024 
L 109.149203 194.602599 
L 111.464851 195.892593 
L 113.910806 197.097989 
L 118.589995 199.034784 
L 122.738533 200.417946 
L 126.809356 201.52086 
L 131.661164 202.551366 
L 136.967926 203.367875 
L 142.624288 203.920031 
L 148.349755 204.175519 
L 156.515292 204.055298 
L 163.359335 203.543801 
L 167.834976 203.01536 
L 175.545 201.754569 
L 182.061176 200.348092 
L 187.112277 199.045148 
L 192.219841 197.542139 
L 199.199876 195.209664 
L 208.155514 192.102469 
L 209.764342 191.785264 
L 210.661612 191.84313 
L 211.099579 192.090431 
L 211.350851 192.524203 
L 211.41725 193.367352 
L 211.220386 194.54838 
L 210.701838 196.351381 
L 208.871545 201.530436 
L 206.402014 208.643336 
L 204.634573 214.376826 
L 203.129707 219.986564 
L 201.88093 225.462531 
L 200.536986 232.899595 
L 199.80162 238.447924 
L 199.288672 244.153949 
L 199.06348 248.643681 
L 199.021139 254.805261 
L 199.144792 258.377669 
L 199.701224 265.161461 
L 200.63842 271.494299 
L 201.965622 277.541417 
L 203.097596 281.491028 
L 203.731079 283.401407 
L 204.827214 286.336023 
L 206.031546 289.13947 
L 207.263377 291.653259 
L 209.310376 295.218062 
L 210.829638 297.468605 
L 212.433389 299.544917 
L 214.115255 301.438309 
L 215.955364 303.218684 
L 218.263021 305.072354 
L 220.797962 306.675815 
L 223.227592 307.8274 
L 225.870142 308.683053 
L 228.713309 309.165386 
L 231.451737 309.212514 
L 234.062751 308.877294 
L 236.284165 308.29436 
L 238.11624 307.600388 
L 240.112507 306.614189 
L 241.189659 305.977335 
L 242.73081 304.930983 
L 244.235283 303.746365 
L 245.698749 302.426843 
L 247.651113 300.382514 
L 250.114705 297.265957 
L 252.381004 293.74712 
L 254.544729 289.618069 
L 256.445002 285.120176 
L 257.424919 282.347023 
L 258.621507 278.344229 
L 259.982627 272.439732 
L 260.961405 266.293013 
L 261.429545 261.781337 
L 261.729068 256.619853 
L 261.545581 244.68995 
L 260.889221 237.509388 
L 260.394202 233.781009 
L 259.123993 226.47023 
L 257.92726 221.043139 
L 256.345373 215.009247 
L 254.866043 210.096418 
L 252.429317 202.924562 
L 249.688128 194.982896 
L 249.385901 193.422428 
L 249.440641 192.549741 
L 249.792946 192.010079 
L 250.243257 191.816194 
L 251.236963 191.806445 
L 252.868372 192.164695 
L 255.686105 193.085213 
L 266.682021 196.93803 
L 272.58731 198.737188 
L 277.937883 200.15407 
L 282.448325 201.187057 
L 287.931594 202.242248 
L 290.774361 202.702085 
L 298.463004 203.643303 
L 309.095226 204.192796 
L 316.425689 204.029263 
L 320.208374 203.75722 
L 326.516729 202.992828 
L 331.541751 202.076936 
L 336.550765 200.854354 
L 341.047922 199.450746 
L 345.290793 197.809538 
L 348.676037 196.231706 
L 351.827023 194.497142 
L 355.21893 192.25994 
L 357.649218 190.340426 
L 359.589289 188.54513 
L 361.109287 186.912981 
L 362.538329 185.121334 
L 363.836427 183.167727 
L 364.977868 181.014801 
L 365.902016 178.663768 
L 366.508323 176.310676 
L 366.80673 173.971211 
L 366.844071 172.797975 
L 366.844071 172.797975 
" style="fill:none;stroke:#0000ff;stroke-linecap:square;"/>
   </g>
   <g id="patch_4">
    <path d="M 230.399498 343.08 
L 230.399498 2.52 
" style="fill:none;stroke:#000000;stroke-linecap:square;stroke-linejoin:miter;stroke-width:0.8;"/>
   </g>
   <g id="patch_5">
    <path d="M 60.117695 172.797975 
L 400.682305 172.797975 
" style="fill:none;stroke:#000000;stroke-linecap:square;stroke-linejoin:miter;stroke-width:0.8;"/>
   </g>
  </g>
 </g>
 <defs>
  <clipPath id="p21ca8d6abb">
   <rect height="340.56" width="340.56461" x="60.117695" y="2.52"/>
  </clipPath>
 </defs>
</svg>
