<?xml version="1.0" encoding="utf-8" standalone="no"?>
<!DOCTYPE svg PUBLIC "-//W3C//DTD SVG 1.1//EN"
  "http://www.w3.org/Graphics/SVG/1.1/DTD/svg11.dtd">
<!-- Created with matplotlib (http://matplotlib.org/) -->
<svg height="345.6pt" version="1.1" viewBox="0 0 460.8 345.6" width="460.8pt" xmlns="http://www.w3.org/2000/svg" xmlns:xlink="http://www.w3.org/1999/xlink">
 <defs>
  <style type="text/css">
*{stroke-linecap:butt;stroke-linejoin:round;}
  </style>
 </defs>
 <g id="figure_1">
  <g id="patch_1">
   <path d="M 0 345.6 
L 460.8 345.6 
L 460.8 0 
L 0 0 
z
" style="fill:#ffffff;"/>
  </g>
  <g id="axes_1">
   <g id="patch_2">
    <path d="M 37.15 150.32 
L 222.48 150.32 
L 222.48 13.32 
L 37.15 13.32 
z
" style="fill:#ffffff;"/>
   </g>
   <g id="patch_3">
    <path clip-path="url(#pb664cd5628)" d="M 40.714038 81.820456 
L 40.714038 81.820456 
L 41.981465 84.762886 
L 42.645801 86.303218 
L 43.323784 87.872652 
L 44.701331 91.049877 
L 44.897911 91.501674 
L 45.914461 93.830101 
L 46.718693 95.661428 
L 47.73403 97.957386 
L 48.759559 100.25539 
L 49.979881 102.958239 
L 50.374986 103.825198 
L 51.889563 107.107536 
L 52.197843 107.767099 
L 52.824144 109.097544 
L 54.273642 112.124608 
L 55.20134 114.020926 
L 56.065434 115.756285 
L 57.248879 118.081569 
L 57.849328 119.237467 
L 58.687559 120.82295 
L 59.50254 122.331805 
L 60.226936 123.644913 
L 61.642927 126.132108 
L 61.769495 126.349138 
L 62.89005 128.231422 
L 63.669747 129.498575 
L 64.64011 131.025164 
L 65.723396 132.66129 
L 66.471976 133.748705 
L 67.690318 135.44084 
L 68.71057 136.781864 
L 69.336747 137.569804 
L 70.131027 138.53013 
L 71.156931 139.704576 
L 71.635589 140.226721 
L 72.720339 141.348229 
L 73.917763 142.485064 
L 74.605356 143.089118 
L 75.428752 143.765068 
L 76.666861 144.683031 
L 77.689078 145.350725 
L 78.640878 145.898252 
L 79.595526 146.374934 
L 80.479278 146.751039 
L 81.400832 147.076085 
L 82.025227 147.257187 
L 82.981189 147.472983 
L 83.964869 147.617179 
L 84.265895 147.645496 
L 85.113278 147.685385 
L 85.887951 147.670409 
L 86.662625 147.606309 
L 87.559461 147.470809 
L 87.729395 147.437732 
L 88.712602 147.200154 
L 89.721362 146.874751 
L 90.685219 146.48695 
L 91.724452 145.98517 
L 92.388885 145.619167 
L 93.729042 144.774637 
L 94.471274 144.246298 
L 95.26526 143.633801 
L 96.221279 142.832078 
L 97.220474 141.920078 
L 98.239515 140.91315 
L 99.209048 139.88431 
L 99.533782 139.524481 
L 101.002752 137.802967 
L 101.380283 137.336085 
L 102.426167 135.991557 
L 103.712769 134.236739 
L 103.8616 134.026716 
L 104.809007 132.656323 
L 105.668788 131.363541 
L 106.528569 130.025232 
L 106.812062 129.574185 
L 107.448591 128.544127 
L 108.696439 126.457014 
L 109.363752 125.305168 
L 110.457043 123.366317 
L 111.708093 121.072139 
L 111.972307 120.577702 
L 113.187591 118.26084 
L 114.205962 116.267685 
L 114.83803 115.0081 
L 115.497279 113.676799 
L 117.161403 110.241323 
L 117.429436 109.678526 
L 118.710259 106.955671 
L 119.838508 104.514523 
L 120.192869 103.740211 
L 121.336949 101.217551 
L 122.362404 98.929513 
L 123.217669 97.003977 
L 124.301419 94.544427 
L 124.525025 94.034528 
L 125.447811 91.922571 
L 126.693293 89.055527 
L 127.414231 87.389228 
L 128.339677 85.245129 
L 129.400119 82.783921 
L 130.031938 81.316655 
L 130.826609 79.471643 
L 132.421045 75.776817 
L 133.059811 74.301295 
L 134.018956 72.093105 
L 135.003656 69.837678 
L 135.72626 68.191612 
L 136.842905 65.665708 
L 137.73274 63.6706 
L 138.295304 62.418362 
L 138.903221 61.073765 
L 140.502754 57.583032 
L 141.333435 55.799911 
L 141.734398 54.947107 
L 142.354022 53.63986 
L 143.337838 51.592139 
L 144.707286 48.802836 
L 145.893436 46.448848 
L 146.071207 46.101281 
L 147.345517 43.65173 
L 148.21365 42.02678 
L 149.293011 40.05862 
L 149.679202 39.368965 
L 150.474301 37.974012 
L 151.601576 36.05559 
L 152.300532 34.902209 
L 153.237161 33.40143 
L 154.076093 32.101973 
L 155.27644 30.318626 
L 156.651027 28.389885 
L 157.452349 27.323136 
L 158.151988 26.427292 
L 159.348097 24.97411 
L 160.21438 23.984621 
L 160.953199 23.18332 
L 161.27098 22.850871 
L 162.150718 21.969266 
L 163.525711 20.706985 
L 164.25163 20.098319 
L 165.144109 19.40545 
L 166.494744 18.47463 
L 166.590511 18.41406 
L 167.842186 17.689129 
L 169.158984 17.061308 
L 170.104618 16.696488 
L 170.636633 16.523037 
L 171.126181 16.383728 
L 171.939252 16.195451 
L 172.782626 16.057141 
L 173.626001 15.976978 
L 174.389869 15.954615 
L 175.289887 15.989574 
L 176.081418 16.075105 
L 176.791786 16.195466 
L 177.77633 16.430328 
L 178.598217 16.686744 
L 179.641469 17.090962 
L 179.981142 17.2415 
L 180.882035 17.685563 
L 181.810874 18.211142 
L 183.030561 19.004801 
L 183.658765 19.458999 
L 184.873317 20.423674 
L 186.177004 21.584367 
L 186.472462 21.865199 
L 187.648362 23.047056 
L 188.275863 23.719208 
L 189.722007 25.375984 
L 189.864331 25.54704 
L 190.713124 26.596467 
L 191.561917 27.695352 
L 191.679204 27.851032 
L 193.067888 29.763696 
L 194.153361 31.34587 
L 194.47688 31.831835 
L 195.385782 33.231715 
L 196.157193 34.459037 
L 197.426033 36.553545 
L 197.920354 37.394289 
L 198.829033 38.974794 
L 199.970489 41.022295 
L 200.645564 42.26453 
L 202.184148 45.178343 
L 203.061475 46.888676 
L 203.892983 48.540562 
L 204.158785 49.074709 
L 205.567723 51.952967 
L 205.95547 52.758314 
L 207.359736 55.71931 
L 207.932992 56.946869 
L 209.239056 59.780787 
L 209.561702 60.488303 
L 210.707438 63.022408 
L 211.683475 65.205536 
L 212.827317 67.788847 
L 213.907882 70.250282 
L 214.138397 70.777672 
L 215.362389 73.58939 
L 216.408996 76.005981 
L 216.995441 77.363741 
L 217.899398 79.460144 
L 218.915962 81.820456 
L 218.915962 81.820456 
z
" style="fill:#808080;opacity:0.5;"/>
   </g>
   <g id="matplotlib.axis_1">
    <g id="xtick_1">
     <g id="line2d_1">
      <defs>
       <path d="M 0 0 
L 0 3.5 
" id="mb3f4959661" style="stroke:#000000;stroke-width:0.8;"/>
      </defs>
      <g>
       <use style="stroke:#000000;stroke-width:0.8;" x="44.729849" xlink:href="#mb3f4959661" y="150.32"/>
      </g>
     </g>
     <g id="text_1">
      <!-- -3 -->
      <defs>
       <path d="M 4.890625 31.390625 
L 31.203125 31.390625 
L 31.203125 23.390625 
L 4.890625 23.390625 
z
" id="DejaVuSans-2d"/>
       <path d="M 40.578125 39.3125 
Q 47.65625 37.796875 51.625 33 
Q 55.609375 28.21875 55.609375 21.1875 
Q 55.609375 10.40625 48.1875 4.484375 
Q 40.765625 -1.421875 27.09375 -1.421875 
Q 22.515625 -1.421875 17.65625 -0.515625 
Q 12.796875 0.390625 7.625 2.203125 
L 7.625 11.71875 
Q 11.71875 9.328125 16.59375 8.109375 
Q 21.484375 6.890625 26.8125 6.890625 
Q 36.078125 6.890625 40.9375 10.546875 
Q 45.796875 14.203125 45.796875 21.1875 
Q 45.796875 27.640625 41.28125 31.265625 
Q 36.765625 34.90625 28.71875 34.90625 
L 20.21875 34.90625 
L 20.21875 43.015625 
L 29.109375 43.015625 
Q 36.375 43.015625 40.234375 45.921875 
Q 44.09375 48.828125 44.09375 54.296875 
Q 44.09375 59.90625 40.109375 62.90625 
Q 36.140625 65.921875 28.71875 65.921875 
Q 24.65625 65.921875 20.015625 65.03125 
Q 15.375 64.15625 9.8125 62.3125 
L 9.8125 71.09375 
Q 15.4375 72.65625 20.34375 73.4375 
Q 25.25 74.21875 29.59375 74.21875 
Q 40.828125 74.21875 47.359375 69.109375 
Q 53.90625 64.015625 53.90625 55.328125 
Q 53.90625 49.265625 50.4375 45.09375 
Q 46.96875 40.921875 40.578125 39.3125 
z
" id="DejaVuSans-33"/>
      </defs>
      <g transform="translate(39.744693 164.918437)scale(0.1 -0.1)">
       <use xlink:href="#DejaVuSans-2d"/>
       <use x="36.083984" xlink:href="#DejaVuSans-33"/>
      </g>
     </g>
    </g>
    <g id="xtick_2">
     <g id="line2d_2">
      <g>
       <use style="stroke:#000000;stroke-width:0.8;" x="73.091566" xlink:href="#mb3f4959661" y="150.32"/>
      </g>
     </g>
     <g id="text_2">
      <!-- -2 -->
      <defs>
       <path d="M 19.1875 8.296875 
L 53.609375 8.296875 
L 53.609375 0 
L 7.328125 0 
L 7.328125 8.296875 
Q 12.9375 14.109375 22.625 23.890625 
Q 32.328125 33.6875 34.8125 36.53125 
Q 39.546875 41.84375 41.421875 45.53125 
Q 43.3125 49.21875 43.3125 52.78125 
Q 43.3125 58.59375 39.234375 62.25 
Q 35.15625 65.921875 28.609375 65.921875 
Q 23.96875 65.921875 18.8125 64.3125 
Q 13.671875 62.703125 7.8125 59.421875 
L 7.8125 69.390625 
Q 13.765625 71.78125 18.9375 73 
Q 24.125 74.21875 28.421875 74.21875 
Q 39.75 74.21875 46.484375 68.546875 
Q 53.21875 62.890625 53.21875 53.421875 
Q 53.21875 48.921875 51.53125 44.890625 
Q 49.859375 40.875 45.40625 35.40625 
Q 44.1875 33.984375 37.640625 27.21875 
Q 31.109375 20.453125 19.1875 8.296875 
z
" id="DejaVuSans-32"/>
      </defs>
      <g transform="translate(68.10641 164.918437)scale(0.1 -0.1)">
       <use xlink:href="#DejaVuSans-2d"/>
       <use x="36.083984" xlink:href="#DejaVuSans-32"/>
      </g>
     </g>
    </g>
    <g id="xtick_3">
     <g id="line2d_3">
      <g>
       <use style="stroke:#000000;stroke-width:0.8;" x="101.453283" xlink:href="#mb3f4959661" y="150.32"/>
      </g>
     </g>
     <g id="text_3">
      <!-- -1 -->
      <defs>
       <path d="M 12.40625 8.296875 
L 28.515625 8.296875 
L 28.515625 63.921875 
L 10.984375 60.40625 
L 10.984375 69.390625 
L 28.421875 72.90625 
L 38.28125 72.90625 
L 38.28125 8.296875 
L 54.390625 8.296875 
L 54.390625 0 
L 12.40625 0 
z
" id="DejaVuSans-31"/>
      </defs>
      <g transform="translate(96.468127 164.918437)scale(0.1 -0.1)">
       <use xlink:href="#DejaVuSans-2d"/>
       <use x="36.083984" xlink:href="#DejaVuSans-31"/>
      </g>
     </g>
    </g>
    <g id="xtick_4">
     <g id="line2d_4">
      <g>
       <use style="stroke:#000000;stroke-width:0.8;" x="129.815" xlink:href="#mb3f4959661" y="150.32"/>
      </g>
     </g>
     <g id="text_4">
      <!-- 0 -->
      <defs>
       <path d="M 31.78125 66.40625 
Q 24.171875 66.40625 20.328125 58.90625 
Q 16.5 51.421875 16.5 36.375 
Q 16.5 21.390625 20.328125 13.890625 
Q 24.171875 6.390625 31.78125 6.390625 
Q 39.453125 6.390625 43.28125 13.890625 
Q 47.125 21.390625 47.125 36.375 
Q 47.125 51.421875 43.28125 58.90625 
Q 39.453125 66.40625 31.78125 66.40625 
z
M 31.78125 74.21875 
Q 44.046875 74.21875 50.515625 64.515625 
Q 56.984375 54.828125 56.984375 36.375 
Q 56.984375 17.96875 50.515625 8.265625 
Q 44.046875 -1.421875 31.78125 -1.421875 
Q 19.53125 -1.421875 13.0625 8.265625 
Q 6.59375 17.96875 6.59375 36.375 
Q 6.59375 54.828125 13.0625 64.515625 
Q 19.53125 74.21875 31.78125 74.21875 
z
" id="DejaVuSans-30"/>
      </defs>
      <g transform="translate(126.63375 164.918437)scale(0.1 -0.1)">
       <use xlink:href="#DejaVuSans-30"/>
      </g>
     </g>
    </g>
    <g id="xtick_5">
     <g id="line2d_5">
      <g>
       <use style="stroke:#000000;stroke-width:0.8;" x="158.176717" xlink:href="#mb3f4959661" y="150.32"/>
      </g>
     </g>
     <g id="text_5">
      <!-- 1 -->
      <g transform="translate(154.995467 164.918437)scale(0.1 -0.1)">
       <use xlink:href="#DejaVuSans-31"/>
      </g>
     </g>
    </g>
    <g id="xtick_6">
     <g id="line2d_6">
      <g>
       <use style="stroke:#000000;stroke-width:0.8;" x="186.538434" xlink:href="#mb3f4959661" y="150.32"/>
      </g>
     </g>
     <g id="text_6">
      <!-- 2 -->
      <g transform="translate(183.357184 164.918437)scale(0.1 -0.1)">
       <use xlink:href="#DejaVuSans-32"/>
      </g>
     </g>
    </g>
    <g id="xtick_7">
     <g id="line2d_7">
      <g>
       <use style="stroke:#000000;stroke-width:0.8;" x="214.900151" xlink:href="#mb3f4959661" y="150.32"/>
      </g>
     </g>
     <g id="text_7">
      <!-- 3 -->
      <g transform="translate(211.718901 164.918437)scale(0.1 -0.1)">
       <use xlink:href="#DejaVuSans-33"/>
      </g>
     </g>
    </g>
    <g id="xtick_8">
     <g id="line2d_8">
      <defs>
       <path d="M 0 0 
L 0 2 
" id="mfe5edbeb13" style="stroke:#000000;stroke-width:0.6;"/>
      </defs>
      <g>
       <use style="stroke:#000000;stroke-width:0.6;" x="39.057506" xlink:href="#mfe5edbeb13" y="150.32"/>
      </g>
     </g>
    </g>
    <g id="xtick_9">
     <g id="line2d_9">
      <g>
       <use style="stroke:#000000;stroke-width:0.6;" x="50.402193" xlink:href="#mfe5edbeb13" y="150.32"/>
      </g>
     </g>
    </g>
    <g id="xtick_10">
     <g id="line2d_10">
      <g>
       <use style="stroke:#000000;stroke-width:0.6;" x="56.074536" xlink:href="#mfe5edbeb13" y="150.32"/>
      </g>
     </g>
    </g>
    <g id="xtick_11">
     <g id="line2d_11">
      <g>
       <use style="stroke:#000000;stroke-width:0.6;" x="61.746879" xlink:href="#mfe5edbeb13" y="150.32"/>
      </g>
     </g>
    </g>
    <g id="xtick_12">
     <g id="line2d_12">
      <g>
       <use style="stroke:#000000;stroke-width:0.6;" x="67.419223" xlink:href="#mfe5edbeb13" y="150.32"/>
      </g>
     </g>
    </g>
    <g id="xtick_13">
     <g id="line2d_13">
      <g>
       <use style="stroke:#000000;stroke-width:0.6;" x="78.76391" xlink:href="#mfe5edbeb13" y="150.32"/>
      </g>
     </g>
    </g>
    <g id="xtick_14">
     <g id="line2d_14">
      <g>
       <use style="stroke:#000000;stroke-width:0.6;" x="84.436253" xlink:href="#mfe5edbeb13" y="150.32"/>
      </g>
     </g>
    </g>
    <g id="xtick_15">
     <g id="line2d_15">
      <g>
       <use style="stroke:#000000;stroke-width:0.6;" x="90.108596" xlink:href="#mfe5edbeb13" y="150.32"/>
      </g>
     </g>
    </g>
    <g id="xtick_16">
     <g id="line2d_16">
      <g>
       <use style="stroke:#000000;stroke-width:0.6;" x="95.78094" xlink:href="#mfe5edbeb13" y="150.32"/>
      </g>
     </g>
    </g>
    <g id="xtick_17">
     <g id="line2d_17">
      <g>
       <use style="stroke:#000000;stroke-width:0.6;" x="107.125626" xlink:href="#mfe5edbeb13" y="150.32"/>
      </g>
     </g>
    </g>
    <g id="xtick_18">
     <g id="line2d_18">
      <g>
       <use style="stroke:#000000;stroke-width:0.6;" x="112.79797" xlink:href="#mfe5edbeb13" y="150.32"/>
      </g>
     </g>
    </g>
    <g id="xtick_19">
     <g id="line2d_19">
      <g>
       <use style="stroke:#000000;stroke-width:0.6;" x="118.470313" xlink:href="#mfe5edbeb13" y="150.32"/>
      </g>
     </g>
    </g>
    <g id="xtick_20">
     <g id="line2d_20">
      <g>
       <use style="stroke:#000000;stroke-width:0.6;" x="124.142657" xlink:href="#mfe5edbeb13" y="150.32"/>
      </g>
     </g>
    </g>
    <g id="xtick_21">
     <g id="line2d_21">
      <g>
       <use style="stroke:#000000;stroke-width:0.6;" x="135.487343" xlink:href="#mfe5edbeb13" y="150.32"/>
      </g>
     </g>
    </g>
    <g id="xtick_22">
     <g id="line2d_22">
      <g>
       <use style="stroke:#000000;stroke-width:0.6;" x="141.159687" xlink:href="#mfe5edbeb13" y="150.32"/>
      </g>
     </g>
    </g>
    <g id="xtick_23">
     <g id="line2d_23">
      <g>
       <use style="stroke:#000000;stroke-width:0.6;" x="146.83203" xlink:href="#mfe5edbeb13" y="150.32"/>
      </g>
     </g>
    </g>
    <g id="xtick_24">
     <g id="line2d_24">
      <g>
       <use style="stroke:#000000;stroke-width:0.6;" x="152.504374" xlink:href="#mfe5edbeb13" y="150.32"/>
      </g>
     </g>
    </g>
    <g id="xtick_25">
     <g id="line2d_25">
      <g>
       <use style="stroke:#000000;stroke-width:0.6;" x="163.84906" xlink:href="#mfe5edbeb13" y="150.32"/>
      </g>
     </g>
    </g>
    <g id="xtick_26">
     <g id="line2d_26">
      <g>
       <use style="stroke:#000000;stroke-width:0.6;" x="169.521404" xlink:href="#mfe5edbeb13" y="150.32"/>
      </g>
     </g>
    </g>
    <g id="xtick_27">
     <g id="line2d_27">
      <g>
       <use style="stroke:#000000;stroke-width:0.6;" x="175.193747" xlink:href="#mfe5edbeb13" y="150.32"/>
      </g>
     </g>
    </g>
    <g id="xtick_28">
     <g id="line2d_28">
      <g>
       <use style="stroke:#000000;stroke-width:0.6;" x="180.86609" xlink:href="#mfe5edbeb13" y="150.32"/>
      </g>
     </g>
    </g>
    <g id="xtick_29">
     <g id="line2d_29">
      <g>
       <use style="stroke:#000000;stroke-width:0.6;" x="192.210777" xlink:href="#mfe5edbeb13" y="150.32"/>
      </g>
     </g>
    </g>
    <g id="xtick_30">
     <g id="line2d_30">
      <g>
       <use style="stroke:#000000;stroke-width:0.6;" x="197.883121" xlink:href="#mfe5edbeb13" y="150.32"/>
      </g>
     </g>
    </g>
    <g id="xtick_31">
     <g id="line2d_31">
      <g>
       <use style="stroke:#000000;stroke-width:0.6;" x="203.555464" xlink:href="#mfe5edbeb13" y="150.32"/>
      </g>
     </g>
    </g>
    <g id="xtick_32">
     <g id="line2d_32">
      <g>
       <use style="stroke:#000000;stroke-width:0.6;" x="209.227807" xlink:href="#mfe5edbeb13" y="150.32"/>
      </g>
     </g>
    </g>
    <g id="xtick_33">
     <g id="line2d_33">
      <g>
       <use style="stroke:#000000;stroke-width:0.6;" x="220.572494" xlink:href="#mfe5edbeb13" y="150.32"/>
      </g>
     </g>
    </g>
   </g>
   <g id="matplotlib.axis_2">
    <g id="ytick_1">
     <g id="line2d_34">
      <defs>
       <path d="M 0 0 
L -3.5 0 
" id="mc359079ff9" style="stroke:#000000;stroke-width:0.8;"/>
      </defs>
      <g>
       <use style="stroke:#000000;stroke-width:0.8;" x="37.15" xlink:href="#mc359079ff9" y="147.686321"/>
      </g>
     </g>
     <g id="text_8">
      <!-- -1 -->
      <g transform="translate(20.179688 151.48554)scale(0.1 -0.1)">
       <use xlink:href="#DejaVuSans-2d"/>
       <use x="36.083984" xlink:href="#DejaVuSans-31"/>
      </g>
     </g>
    </g>
    <g id="ytick_2">
     <g id="line2d_35">
      <g>
       <use style="stroke:#000000;stroke-width:0.8;" x="37.15" xlink:href="#mc359079ff9" y="114.753389"/>
      </g>
     </g>
     <g id="text_9">
      <!-- -0.5 -->
      <defs>
       <path d="M 10.6875 12.40625 
L 21 12.40625 
L 21 0 
L 10.6875 0 
z
" id="DejaVuSans-2e"/>
       <path d="M 10.796875 72.90625 
L 49.515625 72.90625 
L 49.515625 64.59375 
L 19.828125 64.59375 
L 19.828125 46.734375 
Q 21.96875 47.46875 24.109375 47.828125 
Q 26.265625 48.1875 28.421875 48.1875 
Q 40.625 48.1875 47.75 41.5 
Q 54.890625 34.8125 54.890625 23.390625 
Q 54.890625 11.625 47.5625 5.09375 
Q 40.234375 -1.421875 26.90625 -1.421875 
Q 22.3125 -1.421875 17.546875 -0.640625 
Q 12.796875 0.140625 7.71875 1.703125 
L 7.71875 11.625 
Q 12.109375 9.234375 16.796875 8.0625 
Q 21.484375 6.890625 26.703125 6.890625 
Q 35.15625 6.890625 40.078125 11.328125 
Q 45.015625 15.765625 45.015625 23.390625 
Q 45.015625 31 40.078125 35.4375 
Q 35.15625 39.890625 26.703125 39.890625 
Q 22.75 39.890625 18.8125 39.015625 
Q 14.890625 38.140625 10.796875 36.28125 
z
" id="DejaVuSans-35"/>
      </defs>
      <g transform="translate(10.639062 118.552607)scale(0.1 -0.1)">
       <use xlink:href="#DejaVuSans-2d"/>
       <use x="36.083984" xlink:href="#DejaVuSans-30"/>
       <use x="99.707031" xlink:href="#DejaVuSans-2e"/>
       <use x="131.494141" xlink:href="#DejaVuSans-35"/>
      </g>
     </g>
    </g>
    <g id="ytick_3">
     <g id="line2d_36">
      <g>
       <use style="stroke:#000000;stroke-width:0.8;" x="37.15" xlink:href="#mc359079ff9" y="81.820456"/>
      </g>
     </g>
     <g id="text_10">
      <!-- 0 -->
      <g transform="translate(23.7875 85.619675)scale(0.1 -0.1)">
       <use xlink:href="#DejaVuSans-30"/>
      </g>
     </g>
    </g>
    <g id="ytick_4">
     <g id="line2d_37">
      <g>
       <use style="stroke:#000000;stroke-width:0.8;" x="37.15" xlink:href="#mc359079ff9" y="48.887524"/>
      </g>
     </g>
     <g id="text_11">
      <!-- 0.5 -->
      <g transform="translate(14.246875 52.686742)scale(0.1 -0.1)">
       <use xlink:href="#DejaVuSans-30"/>
       <use x="63.623047" xlink:href="#DejaVuSans-2e"/>
       <use x="95.410156" xlink:href="#DejaVuSans-35"/>
      </g>
     </g>
    </g>
    <g id="ytick_5">
     <g id="line2d_38">
      <g>
       <use style="stroke:#000000;stroke-width:0.8;" x="37.15" xlink:href="#mc359079ff9" y="15.954591"/>
      </g>
     </g>
     <g id="text_12">
      <!-- 1 -->
      <g transform="translate(23.7875 19.75381)scale(0.1 -0.1)">
       <use xlink:href="#DejaVuSans-31"/>
      </g>
     </g>
    </g>
    <g id="ytick_6">
     <g id="line2d_39">
      <defs>
       <path d="M 0 0 
L -2 0 
" id="mc8883de9f4" style="stroke:#000000;stroke-width:0.6;"/>
      </defs>
      <g>
       <use style="stroke:#000000;stroke-width:0.6;" x="37.15" xlink:href="#mc8883de9f4" y="141.099735"/>
      </g>
     </g>
    </g>
    <g id="ytick_7">
     <g id="line2d_40">
      <g>
       <use style="stroke:#000000;stroke-width:0.6;" x="37.15" xlink:href="#mc8883de9f4" y="134.513148"/>
      </g>
     </g>
    </g>
    <g id="ytick_8">
     <g id="line2d_41">
      <g>
       <use style="stroke:#000000;stroke-width:0.6;" x="37.15" xlink:href="#mc8883de9f4" y="127.926562"/>
      </g>
     </g>
    </g>
    <g id="ytick_9">
     <g id="line2d_42">
      <g>
       <use style="stroke:#000000;stroke-width:0.6;" x="37.15" xlink:href="#mc8883de9f4" y="121.339975"/>
      </g>
     </g>
    </g>
    <g id="ytick_10">
     <g id="line2d_43">
      <g>
       <use style="stroke:#000000;stroke-width:0.6;" x="37.15" xlink:href="#mc8883de9f4" y="108.166802"/>
      </g>
     </g>
    </g>
    <g id="ytick_11">
     <g id="line2d_44">
      <g>
       <use style="stroke:#000000;stroke-width:0.6;" x="37.15" xlink:href="#mc8883de9f4" y="101.580216"/>
      </g>
     </g>
    </g>
    <g id="ytick_12">
     <g id="line2d_45">
      <g>
       <use style="stroke:#000000;stroke-width:0.6;" x="37.15" xlink:href="#mc8883de9f4" y="94.993629"/>
      </g>
     </g>
    </g>
    <g id="ytick_13">
     <g id="line2d_46">
      <g>
       <use style="stroke:#000000;stroke-width:0.6;" x="37.15" xlink:href="#mc8883de9f4" y="88.407043"/>
      </g>
     </g>
    </g>
    <g id="ytick_14">
     <g id="line2d_47">
      <g>
       <use style="stroke:#000000;stroke-width:0.6;" x="37.15" xlink:href="#mc8883de9f4" y="75.23387"/>
      </g>
     </g>
    </g>
    <g id="ytick_15">
     <g id="line2d_48">
      <g>
       <use style="stroke:#000000;stroke-width:0.6;" x="37.15" xlink:href="#mc8883de9f4" y="68.647283"/>
      </g>
     </g>
    </g>
    <g id="ytick_16">
     <g id="line2d_49">
      <g>
       <use style="stroke:#000000;stroke-width:0.6;" x="37.15" xlink:href="#mc8883de9f4" y="62.060697"/>
      </g>
     </g>
    </g>
    <g id="ytick_17">
     <g id="line2d_50">
      <g>
       <use style="stroke:#000000;stroke-width:0.6;" x="37.15" xlink:href="#mc8883de9f4" y="55.47411"/>
      </g>
     </g>
    </g>
    <g id="ytick_18">
     <g id="line2d_51">
      <g>
       <use style="stroke:#000000;stroke-width:0.6;" x="37.15" xlink:href="#mc8883de9f4" y="42.300937"/>
      </g>
     </g>
    </g>
    <g id="ytick_19">
     <g id="line2d_52">
      <g>
       <use style="stroke:#000000;stroke-width:0.6;" x="37.15" xlink:href="#mc8883de9f4" y="35.714351"/>
      </g>
     </g>
    </g>
    <g id="ytick_20">
     <g id="line2d_53">
      <g>
       <use style="stroke:#000000;stroke-width:0.6;" x="37.15" xlink:href="#mc8883de9f4" y="29.127764"/>
      </g>
     </g>
    </g>
    <g id="ytick_21">
     <g id="line2d_54">
      <g>
       <use style="stroke:#000000;stroke-width:0.6;" x="37.15" xlink:href="#mc8883de9f4" y="22.541178"/>
      </g>
     </g>
    </g>
   </g>
   <g id="line2d_55">
    <path clip-path="url(#pb664cd5628)" d="M 40.714038 81.820456 
L 48.759559 100.25539 
L 52.824144 109.097544 
L 57.248879 118.081569 
L 60.226936 123.644913 
L 63.669747 129.498575 
L 66.471976 133.748705 
L 69.336747 137.569804 
L 71.635589 140.226721 
L 73.917763 142.485064 
L 75.428752 143.765068 
L 77.689078 145.350725 
L 79.595526 146.374934 
L 81.400832 147.076085 
L 82.981189 147.472983 
L 85.113278 147.685385 
L 86.662625 147.606309 
L 88.712602 147.200154 
L 90.685219 146.48695 
L 92.388885 145.619167 
L 94.471274 144.246298 
L 96.221279 142.832078 
L 98.239515 140.91315 
L 99.533782 139.524481 
L 102.426167 135.991557 
L 104.809007 132.656323 
L 107.448591 128.544127 
L 110.457043 123.366317 
L 114.205962 116.267685 
L 117.429436 109.678526 
L 121.336949 101.217551 
L 127.414231 87.389228 
L 138.295304 62.418362 
L 142.354022 53.63986 
L 146.071207 46.101281 
L 149.679202 39.368965 
L 152.300532 34.902209 
L 155.27644 30.318626 
L 158.151988 26.427292 
L 160.953199 23.18332 
L 162.150718 21.969266 
L 164.25163 20.098319 
L 166.590511 18.41406 
L 167.842186 17.689129 
L 170.104618 16.696488 
L 171.939252 16.195451 
L 173.626001 15.976978 
L 175.289887 15.989574 
L 176.791786 16.195466 
L 178.598217 16.686744 
L 180.882035 17.685563 
L 183.030561 19.004801 
L 184.873317 20.423674 
L 186.472462 21.865199 
L 188.275863 23.719208 
L 190.713124 26.596467 
L 193.067888 29.763696 
L 196.157193 34.459037 
L 198.829033 38.974794 
L 202.184148 45.178343 
L 205.95547 52.758314 
L 210.707438 63.022408 
L 216.408996 76.005981 
L 218.915962 81.820456 
L 218.915962 81.820456 
" style="fill:none;stroke:#0000ff;stroke-linecap:square;"/>
   </g>
   <g id="patch_4">
    <path d="M 37.15 150.32 
L 37.15 13.32 
" style="fill:none;stroke:#000000;stroke-linecap:square;stroke-linejoin:miter;stroke-width:0.8;"/>
   </g>
   <g id="patch_5">
    <path d="M 222.48 150.32 
L 222.48 13.32 
" style="fill:none;stroke:#000000;stroke-linecap:square;stroke-linejoin:miter;stroke-width:0.8;"/>
   </g>
   <g id="patch_6">
    <path d="M 37.15 150.32 
L 222.48 150.32 
" style="fill:none;stroke:#000000;stroke-linecap:square;stroke-linejoin:miter;stroke-width:0.8;"/>
   </g>
   <g id="patch_7">
    <path d="M 37.15 13.32 
L 222.48 13.32 
" style="fill:none;stroke:#000000;stroke-linecap:square;stroke-linejoin:miter;stroke-width:0.8;"/>
   </g>
  </g>
  <g id="axes_2">
   <g id="patch_8">
    <path d="M 262.15 150.32 
L 447.48 150.32 
L 447.48 13.32 
L 262.15 13.32 
z
" style="fill:#ffffff;"/>
   </g>
   <g id="patch_9">
    <path clip-path="url(#pa53d8afb6c)" d="M 265.714038 147.685385 
L 265.714038 81.820564 
L 266.919694 84.619749 
L 267.230459 85.340637 
L 268.051183 87.242232 
L 269.388835 90.331088 
L 270.379187 92.606161 
L 270.968524 93.953945 
L 271.858882 95.980022 
L 272.525896 97.48883 
L 274.102309 101.018792 
L 274.878787 102.736385 
L 275.173288 103.383798 
L 276.308881 105.857835 
L 276.946351 107.230012 
L 278.589333 110.705751 
L 278.800466 111.145621 
L 280.406653 114.436958 
L 281.29891 116.220814 
L 281.42696 116.474068 
L 283.116025 119.746595 
L 283.510337 120.491622 
L 284.90069 123.058007 
L 285.480141 124.098681 
L 286.61972 126.093447 
L 287.231616 127.135245 
L 287.737552 127.98073 
L 289.148366 130.259968 
L 289.668837 131.070845 
L 291.223544 133.393212 
L 291.915246 134.37705 
L 292.951861 135.792773 
L 293.598974 136.640112 
L 294.136562 137.322355 
L 294.829899 138.172779 
L 296.238791 139.796623 
L 296.978779 140.592456 
L 297.819484 141.448033 
L 298.466347 142.070715 
L 299.265536 142.796715 
L 300.064725 143.474302 
L 300.870782 144.108128 
L 301.35867 144.467358 
L 302.096645 144.975466 
L 303.076249 145.583838 
L 304.179097 146.1777 
L 304.937292 146.529582 
L 306.075253 146.97086 
L 307.033386 147.261108 
L 307.482332 147.371431 
L 308.457875 147.554507 
L 309.232502 147.644495 
L 310.00713 147.685385 
L 310.656346 147.681811 
L 311.229735 147.649957 
L 312.38047 147.504872 
L 313.348254 147.299139 
L 313.807783 147.174741 
L 314.660677 146.898413 
L 315.862258 146.40933 
L 317.19922 145.72895 
L 317.388342 145.621204 
L 318.674071 144.813759 
L 319.809333 143.993148 
L 320.210667 143.679147 
L 321.261212 142.798726 
L 322.148794 141.989633 
L 323.180566 140.975095 
L 324.132269 139.969855 
L 324.404576 139.670132 
L 325.587025 138.307146 
L 326.590947 137.072788 
L 327.548263 135.831236 
L 328.412461 134.657566 
L 329.422055 133.224385 
L 330.133778 132.1748 
L 331.432024 130.179075 
L 331.620558 129.880724 
L 333.103052 127.461784 
L 333.948412 126.026181 
L 334.611854 124.871945 
L 335.36902 123.525905 
L 336.225435 121.967658 
L 337.240055 120.074299 
L 338.324332 117.99691 
L 338.868048 116.935098 
L 340.201792 114.276612 
L 340.66899 113.328094 
L 341.963758 110.655539 
L 342.3383 109.870987 
L 343.444102 107.526647 
L 344.477415 105.300601 
L 345.188813 103.749757 
L 346.551543 100.741325 
L 347.469996 98.688635 
L 348.439299 96.503159 
L 349.304679 94.537431 
L 350.04151 92.8543 
L 350.385653 92.065558 
L 351.918057 88.536761 
L 352.976959 86.086262 
L 353.400723 85.103735 
L 354.796448 81.86365 
L 355.248279 80.814352 
L 356.200853 78.603326 
L 357.05273 76.629027 
L 358.274371 73.806392 
L 358.968338 72.209251 
L 359.959929 69.937355 
L 360.343869 69.061436 
L 361.721326 65.939287 
L 362.510964 64.165911 
L 363.700592 61.520508 
L 364.323926 60.14835 
L 365.427322 57.745504 
L 366.273302 55.927714 
L 366.546508 55.345508 
L 367.398499 53.545927 
L 368.303372 51.66262 
L 369.437895 49.344941 
L 370.561577 47.100615 
L 371.035015 46.171133 
L 372.512958 43.33462 
L 373.155086 42.134347 
L 374.384866 39.892926 
L 374.709255 39.314658 
L 375.741409 37.512052 
L 376.706375 35.879812 
L 377.745143 34.182221 
L 378.615641 32.80874 
L 379.723807 31.127225 
L 380.464292 30.046601 
L 380.995856 29.292581 
L 382.563364 27.177484 
L 382.992418 26.627374 
L 383.999479 25.386007 
L 384.696766 24.568081 
L 385.871636 23.268463 
L 387.051538 22.064387 
L 387.582702 21.555977 
L 388.376341 20.835771 
L 389.579188 19.835425 
L 390.187003 19.372228 
L 391.51819 18.458238 
L 392.06362 18.123949 
L 392.470177 17.890091 
L 393.696417 17.264484 
L 394.670342 16.853526 
L 395.642275 16.519775 
L 396.397522 16.313358 
L 397.518875 16.092595 
L 397.931886 16.037159 
L 399.1688 15.954615 
L 400.005876 15.969822 
L 400.70373 16.026343 
L 401.500072 16.139498 
L 402.760005 16.424243 
L 403.187879 16.550329 
L 404.06184 16.853994 
L 404.935802 17.219343 
L 405.857258 17.670966 
L 406.295486 17.90954 
L 407.07736 18.373054 
L 407.698149 18.77543 
L 408.960231 19.686374 
L 409.467975 20.087663 
L 410.271839 20.76339 
L 411.075702 21.488164 
L 412.113429 22.495368 
L 412.966381 23.382757 
L 413.704534 24.193402 
L 414.600666 25.229943 
L 415.411672 26.216747 
L 416.399887 27.48054 
L 416.963314 28.230714 
L 418.367332 30.191445 
L 418.514504 30.404384 
L 419.686447 32.148956 
L 420.424289 33.291015 
L 421.525283 35.055999 
L 422.09811 36.00233 
L 423.055517 37.625526 
L 424.092071 39.439623 
L 425.485418 41.966883 
L 426.159079 43.223648 
L 426.917311 44.664195 
L 427.470933 45.732841 
L 428.308987 47.376549 
L 429.801846 50.378104 
L 430.154578 51.100343 
L 431.761431 54.448908 
L 432.718275 56.485327 
L 432.910526 56.898043 
L 434.187895 59.668407 
L 434.670405 60.726873 
L 435.858732 63.359058 
L 436.984396 65.882406 
L 437.609584 67.294961 
L 438.297366 68.857066 
L 439.58046 71.790922 
L 440.015756 72.79121 
L 440.789728 74.574861 
L 442.246636 77.945943 
L 443.18752 80.129011 
L 443.915962 81.820564 
L 443.915962 147.685385 
z
" style="fill:#808080;"/>
   </g>
   <g id="matplotlib.axis_3">
    <g id="xtick_34">
     <g id="line2d_56">
      <g>
       <use style="stroke:#000000;stroke-width:0.8;" x="269.729849" xlink:href="#mb3f4959661" y="150.32"/>
      </g>
     </g>
     <g id="text_13">
      <!-- -3 -->
      <g transform="translate(264.744693 164.918437)scale(0.1 -0.1)">
       <use xlink:href="#DejaVuSans-2d"/>
       <use x="36.083984" xlink:href="#DejaVuSans-33"/>
      </g>
     </g>
    </g>
    <g id="xtick_35">
     <g id="line2d_57">
      <g>
       <use style="stroke:#000000;stroke-width:0.8;" x="298.091566" xlink:href="#mb3f4959661" y="150.32"/>
      </g>
     </g>
     <g id="text_14">
      <!-- -2 -->
      <g transform="translate(293.10641 164.918437)scale(0.1 -0.1)">
       <use xlink:href="#DejaVuSans-2d"/>
       <use x="36.083984" xlink:href="#DejaVuSans-32"/>
      </g>
     </g>
    </g>
    <g id="xtick_36">
     <g id="line2d_58">
      <g>
       <use style="stroke:#000000;stroke-width:0.8;" x="326.453283" xlink:href="#mb3f4959661" y="150.32"/>
      </g>
     </g>
     <g id="text_15">
      <!-- -1 -->
      <g transform="translate(321.468127 164.918437)scale(0.1 -0.1)">
       <use xlink:href="#DejaVuSans-2d"/>
       <use x="36.083984" xlink:href="#DejaVuSans-31"/>
      </g>
     </g>
    </g>
    <g id="xtick_37">
     <g id="line2d_59">
      <g>
       <use style="stroke:#000000;stroke-width:0.8;" x="354.815" xlink:href="#mb3f4959661" y="150.32"/>
      </g>
     </g>
     <g id="text_16">
      <!-- 0 -->
      <g transform="translate(351.63375 164.918437)scale(0.1 -0.1)">
       <use xlink:href="#DejaVuSans-30"/>
      </g>
     </g>
    </g>
    <g id="xtick_38">
     <g id="line2d_60">
      <g>
       <use style="stroke:#000000;stroke-width:0.8;" x="383.176717" xlink:href="#mb3f4959661" y="150.32"/>
      </g>
     </g>
     <g id="text_17">
      <!-- 1 -->
      <g transform="translate(379.995467 164.918437)scale(0.1 -0.1)">
       <use xlink:href="#DejaVuSans-31"/>
      </g>
     </g>
    </g>
    <g id="xtick_39">
     <g id="line2d_61">
      <g>
       <use style="stroke:#000000;stroke-width:0.8;" x="411.538434" xlink:href="#mb3f4959661" y="150.32"/>
      </g>
     </g>
     <g id="text_18">
      <!-- 2 -->
      <g transform="translate(408.357184 164.918437)scale(0.1 -0.1)">
       <use xlink:href="#DejaVuSans-32"/>
      </g>
     </g>
    </g>
    <g id="xtick_40">
     <g id="line2d_62">
      <g>
       <use style="stroke:#000000;stroke-width:0.8;" x="439.900151" xlink:href="#mb3f4959661" y="150.32"/>
      </g>
     </g>
     <g id="text_19">
      <!-- 3 -->
      <g transform="translate(436.718901 164.918437)scale(0.1 -0.1)">
       <use xlink:href="#DejaVuSans-33"/>
      </g>
     </g>
    </g>
    <g id="xtick_41">
     <g id="line2d_63">
      <g>
       <use style="stroke:#000000;stroke-width:0.6;" x="264.057506" xlink:href="#mfe5edbeb13" y="150.32"/>
      </g>
     </g>
    </g>
    <g id="xtick_42">
     <g id="line2d_64">
      <g>
       <use style="stroke:#000000;stroke-width:0.6;" x="275.402193" xlink:href="#mfe5edbeb13" y="150.32"/>
      </g>
     </g>
    </g>
    <g id="xtick_43">
     <g id="line2d_65">
      <g>
       <use style="stroke:#000000;stroke-width:0.6;" x="281.074536" xlink:href="#mfe5edbeb13" y="150.32"/>
      </g>
     </g>
    </g>
    <g id="xtick_44">
     <g id="line2d_66">
      <g>
       <use style="stroke:#000000;stroke-width:0.6;" x="286.746879" xlink:href="#mfe5edbeb13" y="150.32"/>
      </g>
     </g>
    </g>
    <g id="xtick_45">
     <g id="line2d_67">
      <g>
       <use style="stroke:#000000;stroke-width:0.6;" x="292.419223" xlink:href="#mfe5edbeb13" y="150.32"/>
      </g>
     </g>
    </g>
    <g id="xtick_46">
     <g id="line2d_68">
      <g>
       <use style="stroke:#000000;stroke-width:0.6;" x="303.76391" xlink:href="#mfe5edbeb13" y="150.32"/>
      </g>
     </g>
    </g>
    <g id="xtick_47">
     <g id="line2d_69">
      <g>
       <use style="stroke:#000000;stroke-width:0.6;" x="309.436253" xlink:href="#mfe5edbeb13" y="150.32"/>
      </g>
     </g>
    </g>
    <g id="xtick_48">
     <g id="line2d_70">
      <g>
       <use style="stroke:#000000;stroke-width:0.6;" x="315.108596" xlink:href="#mfe5edbeb13" y="150.32"/>
      </g>
     </g>
    </g>
    <g id="xtick_49">
     <g id="line2d_71">
      <g>
       <use style="stroke:#000000;stroke-width:0.6;" x="320.78094" xlink:href="#mfe5edbeb13" y="150.32"/>
      </g>
     </g>
    </g>
    <g id="xtick_50">
     <g id="line2d_72">
      <g>
       <use style="stroke:#000000;stroke-width:0.6;" x="332.125626" xlink:href="#mfe5edbeb13" y="150.32"/>
      </g>
     </g>
    </g>
    <g id="xtick_51">
     <g id="line2d_73">
      <g>
       <use style="stroke:#000000;stroke-width:0.6;" x="337.79797" xlink:href="#mfe5edbeb13" y="150.32"/>
      </g>
     </g>
    </g>
    <g id="xtick_52">
     <g id="line2d_74">
      <g>
       <use style="stroke:#000000;stroke-width:0.6;" x="343.470313" xlink:href="#mfe5edbeb13" y="150.32"/>
      </g>
     </g>
    </g>
    <g id="xtick_53">
     <g id="line2d_75">
      <g>
       <use style="stroke:#000000;stroke-width:0.6;" x="349.142657" xlink:href="#mfe5edbeb13" y="150.32"/>
      </g>
     </g>
    </g>
    <g id="xtick_54">
     <g id="line2d_76">
      <g>
       <use style="stroke:#000000;stroke-width:0.6;" x="360.487343" xlink:href="#mfe5edbeb13" y="150.32"/>
      </g>
     </g>
    </g>
    <g id="xtick_55">
     <g id="line2d_77">
      <g>
       <use style="stroke:#000000;stroke-width:0.6;" x="366.159687" xlink:href="#mfe5edbeb13" y="150.32"/>
      </g>
     </g>
    </g>
    <g id="xtick_56">
     <g id="line2d_78">
      <g>
       <use style="stroke:#000000;stroke-width:0.6;" x="371.83203" xlink:href="#mfe5edbeb13" y="150.32"/>
      </g>
     </g>
    </g>
    <g id="xtick_57">
     <g id="line2d_79">
      <g>
       <use style="stroke:#000000;stroke-width:0.6;" x="377.504374" xlink:href="#mfe5edbeb13" y="150.32"/>
      </g>
     </g>
    </g>
    <g id="xtick_58">
     <g id="line2d_80">
      <g>
       <use style="stroke:#000000;stroke-width:0.6;" x="388.84906" xlink:href="#mfe5edbeb13" y="150.32"/>
      </g>
     </g>
    </g>
    <g id="xtick_59">
     <g id="line2d_81">
      <g>
       <use style="stroke:#000000;stroke-width:0.6;" x="394.521404" xlink:href="#mfe5edbeb13" y="150.32"/>
      </g>
     </g>
    </g>
    <g id="xtick_60">
     <g id="line2d_82">
      <g>
       <use style="stroke:#000000;stroke-width:0.6;" x="400.193747" xlink:href="#mfe5edbeb13" y="150.32"/>
      </g>
     </g>
    </g>
    <g id="xtick_61">
     <g id="line2d_83">
      <g>
       <use style="stroke:#000000;stroke-width:0.6;" x="405.86609" xlink:href="#mfe5edbeb13" y="150.32"/>
      </g>
     </g>
    </g>
    <g id="xtick_62">
     <g id="line2d_84">
      <g>
       <use style="stroke:#000000;stroke-width:0.6;" x="417.210777" xlink:href="#mfe5edbeb13" y="150.32"/>
      </g>
     </g>
    </g>
    <g id="xtick_63">
     <g id="line2d_85">
      <g>
       <use style="stroke:#000000;stroke-width:0.6;" x="422.883121" xlink:href="#mfe5edbeb13" y="150.32"/>
      </g>
     </g>
    </g>
    <g id="xtick_64">
     <g id="line2d_86">
      <g>
       <use style="stroke:#000000;stroke-width:0.6;" x="428.555464" xlink:href="#mfe5edbeb13" y="150.32"/>
      </g>
     </g>
    </g>
    <g id="xtick_65">
     <g id="line2d_87">
      <g>
       <use style="stroke:#000000;stroke-width:0.6;" x="434.227807" xlink:href="#mfe5edbeb13" y="150.32"/>
      </g>
     </g>
    </g>
    <g id="xtick_66">
     <g id="line2d_88">
      <g>
       <use style="stroke:#000000;stroke-width:0.6;" x="445.572494" xlink:href="#mfe5edbeb13" y="150.32"/>
      </g>
     </g>
    </g>
   </g>
   <g id="matplotlib.axis_4">
    <g id="ytick_22">
     <g id="line2d_89">
      <g>
       <use style="stroke:#000000;stroke-width:0.8;" x="262.15" xlink:href="#mc359079ff9" y="147.688097"/>
      </g>
     </g>
     <g id="text_20">
      <!-- -1 -->
      <g transform="translate(245.179687 151.487316)scale(0.1 -0.1)">
       <use xlink:href="#DejaVuSans-2d"/>
       <use x="36.083984" xlink:href="#DejaVuSans-31"/>
      </g>
     </g>
    </g>
    <g id="ytick_23">
     <g id="line2d_90">
      <g>
       <use style="stroke:#000000;stroke-width:0.8;" x="262.15" xlink:href="#mc359079ff9" y="114.754331"/>
      </g>
     </g>
     <g id="text_21">
      <!-- -0.5 -->
      <g transform="translate(235.639062 118.553549)scale(0.1 -0.1)">
       <use xlink:href="#DejaVuSans-2d"/>
       <use x="36.083984" xlink:href="#DejaVuSans-30"/>
       <use x="99.707031" xlink:href="#DejaVuSans-2e"/>
       <use x="131.494141" xlink:href="#DejaVuSans-35"/>
      </g>
     </g>
    </g>
    <g id="ytick_24">
     <g id="line2d_91">
      <g>
       <use style="stroke:#000000;stroke-width:0.8;" x="262.15" xlink:href="#mc359079ff9" y="81.820564"/>
      </g>
     </g>
     <g id="text_22">
      <!-- 0 -->
      <g transform="translate(248.7875 85.619783)scale(0.1 -0.1)">
       <use xlink:href="#DejaVuSans-30"/>
      </g>
     </g>
    </g>
    <g id="ytick_25">
     <g id="line2d_92">
      <g>
       <use style="stroke:#000000;stroke-width:0.8;" x="262.15" xlink:href="#mc359079ff9" y="48.886798"/>
      </g>
     </g>
     <g id="text_23">
      <!-- 0.5 -->
      <g transform="translate(239.246875 52.686017)scale(0.1 -0.1)">
       <use xlink:href="#DejaVuSans-30"/>
       <use x="63.623047" xlink:href="#DejaVuSans-2e"/>
       <use x="95.410156" xlink:href="#DejaVuSans-35"/>
      </g>
     </g>
    </g>
    <g id="ytick_26">
     <g id="line2d_93">
      <g>
       <use style="stroke:#000000;stroke-width:0.8;" x="262.15" xlink:href="#mc359079ff9" y="15.953032"/>
      </g>
     </g>
     <g id="text_24">
      <!-- 1 -->
      <g transform="translate(248.7875 19.75225)scale(0.1 -0.1)">
       <use xlink:href="#DejaVuSans-31"/>
      </g>
     </g>
    </g>
    <g id="ytick_27">
     <g id="line2d_94">
      <g>
       <use style="stroke:#000000;stroke-width:0.6;" x="262.15" xlink:href="#mc8883de9f4" y="141.101344"/>
      </g>
     </g>
    </g>
    <g id="ytick_28">
     <g id="line2d_95">
      <g>
       <use style="stroke:#000000;stroke-width:0.6;" x="262.15" xlink:href="#mc8883de9f4" y="134.51459"/>
      </g>
     </g>
    </g>
    <g id="ytick_29">
     <g id="line2d_96">
      <g>
       <use style="stroke:#000000;stroke-width:0.6;" x="262.15" xlink:href="#mc8883de9f4" y="127.927837"/>
      </g>
     </g>
    </g>
    <g id="ytick_30">
     <g id="line2d_97">
      <g>
       <use style="stroke:#000000;stroke-width:0.6;" x="262.15" xlink:href="#mc8883de9f4" y="121.341084"/>
      </g>
     </g>
    </g>
    <g id="ytick_31">
     <g id="line2d_98">
      <g>
       <use style="stroke:#000000;stroke-width:0.6;" x="262.15" xlink:href="#mc8883de9f4" y="108.167577"/>
      </g>
     </g>
    </g>
    <g id="ytick_32">
     <g id="line2d_99">
      <g>
       <use style="stroke:#000000;stroke-width:0.6;" x="262.15" xlink:href="#mc8883de9f4" y="101.580824"/>
      </g>
     </g>
    </g>
    <g id="ytick_33">
     <g id="line2d_100">
      <g>
       <use style="stroke:#000000;stroke-width:0.6;" x="262.15" xlink:href="#mc8883de9f4" y="94.994071"/>
      </g>
     </g>
    </g>
    <g id="ytick_34">
     <g id="line2d_101">
      <g>
       <use style="stroke:#000000;stroke-width:0.6;" x="262.15" xlink:href="#mc8883de9f4" y="88.407318"/>
      </g>
     </g>
    </g>
    <g id="ytick_35">
     <g id="line2d_102">
      <g>
       <use style="stroke:#000000;stroke-width:0.6;" x="262.15" xlink:href="#mc8883de9f4" y="75.233811"/>
      </g>
     </g>
    </g>
    <g id="ytick_36">
     <g id="line2d_103">
      <g>
       <use style="stroke:#000000;stroke-width:0.6;" x="262.15" xlink:href="#mc8883de9f4" y="68.647058"/>
      </g>
     </g>
    </g>
    <g id="ytick_37">
     <g id="line2d_104">
      <g>
       <use style="stroke:#000000;stroke-width:0.6;" x="262.15" xlink:href="#mc8883de9f4" y="62.060304"/>
      </g>
     </g>
    </g>
    <g id="ytick_38">
     <g id="line2d_105">
      <g>
       <use style="stroke:#000000;stroke-width:0.6;" x="262.15" xlink:href="#mc8883de9f4" y="55.473551"/>
      </g>
     </g>
    </g>
    <g id="ytick_39">
     <g id="line2d_106">
      <g>
       <use style="stroke:#000000;stroke-width:0.6;" x="262.15" xlink:href="#mc8883de9f4" y="42.300045"/>
      </g>
     </g>
    </g>
    <g id="ytick_40">
     <g id="line2d_107">
      <g>
       <use style="stroke:#000000;stroke-width:0.6;" x="262.15" xlink:href="#mc8883de9f4" y="35.713291"/>
      </g>
     </g>
    </g>
    <g id="ytick_41">
     <g id="line2d_108">
      <g>
       <use style="stroke:#000000;stroke-width:0.6;" x="262.15" xlink:href="#mc8883de9f4" y="29.126538"/>
      </g>
     </g>
    </g>
    <g id="ytick_42">
     <g id="line2d_109">
      <g>
       <use style="stroke:#000000;stroke-width:0.6;" x="262.15" xlink:href="#mc8883de9f4" y="22.539785"/>
      </g>
     </g>
    </g>
   </g>
   <g id="line2d_110">
    <path clip-path="url(#pa53d8afb6c)" d="M 265.714038 81.820564 
L 274.102309 101.018792 
L 278.800466 111.145621 
L 283.116025 119.746595 
L 285.480141 124.098681 
L 287.737552 127.98073 
L 289.668837 131.070845 
L 292.951861 135.792773 
L 294.829899 138.172779 
L 296.978779 140.592456 
L 299.265536 142.796715 
L 301.35867 144.467358 
L 303.076249 145.583838 
L 304.937292 146.529582 
L 307.033386 147.261108 
L 308.457875 147.554507 
L 310.00713 147.685385 
L 311.229735 147.649957 
L 313.348254 147.299139 
L 314.660677 146.898413 
L 315.862258 146.40933 
L 317.388342 145.621204 
L 319.809333 143.993148 
L 321.261212 142.798726 
L 323.180566 140.975095 
L 325.587025 138.307146 
L 328.412461 134.657566 
L 331.432024 130.179075 
L 333.948412 126.026181 
L 336.225435 121.967658 
L 338.868048 116.935098 
L 342.3383 109.870987 
L 346.551543 100.741325 
L 351.918057 88.536761 
L 363.700592 61.520508 
L 367.398499 53.545927 
L 371.035015 46.171133 
L 374.709255 39.314658 
L 377.745143 34.182221 
L 380.464292 30.046601 
L 382.992418 26.627374 
L 384.696766 24.568081 
L 387.051538 22.064387 
L 388.376341 20.835771 
L 390.187003 19.372228 
L 392.470177 17.890091 
L 394.670342 16.853526 
L 396.397522 16.313358 
L 397.931886 16.037159 
L 400.005876 15.969822 
L 401.500072 16.139498 
L 403.187879 16.550329 
L 404.935802 17.219343 
L 407.07736 18.373054 
L 408.960231 19.686374 
L 411.075702 21.488164 
L 413.704534 24.193402 
L 416.399887 27.48054 
L 418.514504 30.404384 
L 421.525283 35.055999 
L 424.092071 39.439623 
L 427.470933 45.732841 
L 430.154578 51.100343 
L 434.670405 60.726873 
L 440.015756 72.79121 
L 443.915962 81.820564 
L 443.915962 81.820564 
" style="fill:none;stroke:#0000ff;stroke-linecap:square;"/>
   </g>
   <g id="patch_10">
    <path d="M 262.15 150.32 
L 262.15 13.32 
" style="fill:none;stroke:#000000;stroke-linecap:square;stroke-linejoin:miter;stroke-width:0.8;"/>
   </g>
   <g id="patch_11">
    <path d="M 447.48 150.32 
L 447.48 13.32 
" style="fill:none;stroke:#000000;stroke-linecap:square;stroke-linejoin:miter;stroke-width:0.8;"/>
   </g>
   <g id="patch_12">
    <path d="M 262.15 150.32 
L 447.48 150.32 
" style="fill:none;stroke:#000000;stroke-linecap:square;stroke-linejoin:miter;stroke-width:0.8;"/>
   </g>
   <g id="patch_13">
    <path d="M 262.15 13.32 
L 447.48 13.32 
" style="fill:none;stroke:#000000;stroke-linecap:square;stroke-linejoin:miter;stroke-width:0.8;"/>
   </g>
  </g>
  <g id="axes_3">
   <g id="patch_14">
    <path d="M 37.15 317.72 
L 222.48 317.72 
L 222.48 180.72 
L 37.15 180.72 
z
" style="fill:#ffffff;"/>
   </g>
   <g id="patch_15">
    <path clip-path="url(#pcdb6fe6158)" d="M 40.714038 183.354615 
L 40.714038 249.220685 
L 41.801971 251.746721 
L 42.780972 254.016761 
L 43.69115 256.122152 
L 44.726528 258.508389 
L 44.999819 259.136308 
L 46.101612 261.657876 
L 47.032584 263.774028 
L 48.238364 266.491195 
L 49.006275 268.205685 
L 50.072613 270.563116 
L 50.772004 272.093135 
L 51.880415 274.489092 
L 52.142944 275.05106 
L 52.879305 276.615347 
L 54.484689 279.960312 
L 54.987423 280.988055 
L 56.135058 283.296263 
L 56.973235 284.947027 
L 57.967855 286.865309 
L 59.068539 288.934094 
L 59.540121 289.802331 
L 60.728728 291.940388 
L 61.596495 293.454149 
L 62.217446 294.512023 
L 63.050968 295.897822 
L 63.689606 296.932396 
L 64.857357 298.761192 
L 65.965786 300.419451 
L 66.592161 301.322116 
L 67.508445 302.596672 
L 68.488734 303.898546 
L 69.726803 305.449243 
L 70.354923 306.195186 
L 70.941141 306.866165 
L 72.189101 308.212203 
L 73.018589 309.043856 
L 73.675704 309.666397 
L 74.549181 310.443632 
L 75.642781 311.334795 
L 76.090132 311.672795 
L 77.315945 312.519115 
L 78.744056 313.355907 
L 78.810309 313.390796 
L 79.600408 313.779826 
L 80.390507 314.118757 
L 81.274422 314.438235 
L 81.669845 314.560665 
L 82.39723 314.75269 
L 83.124614 314.901614 
L 84.11026 315.03447 
L 84.168397 315.039825 
L 84.966885 315.085385 
L 85.765373 315.078741 
L 86.737953 315.000144 
L 87.637975 314.858501 
L 88.328999 314.704887 
L 88.940231 314.536608 
L 89.695998 314.286604 
L 90.494193 313.972406 
L 91.805057 313.345267 
L 92.962644 312.677532 
L 93.32671 312.445621 
L 94.066972 311.941987 
L 94.807234 311.395627 
L 95.401149 310.92664 
L 96.563375 309.930802 
L 97.142307 309.396606 
L 97.714916 308.843581 
L 98.832871 307.694034 
L 100.152831 306.219975 
L 100.656416 305.624887 
L 101.908756 304.068312 
L 102.555436 303.222471 
L 103.656757 301.717598 
L 104.258938 300.861143 
L 104.876842 299.958132 
L 106.016863 298.229215 
L 106.968845 296.724689 
L 107.806579 295.356397 
L 108.880003 293.544488 
L 109.412255 292.622352 
L 110.739259 290.257454 
L 111.100795 289.597357 
L 112.505927 286.970543 
L 113.639822 284.782939 
L 114.040215 283.996708 
L 115.395797 281.284299 
L 115.578636 280.912711 
L 116.894902 278.199698 
L 117.733495 276.43832 
L 119.011846 273.708018 
L 119.075782 273.57011 
L 120.619182 270.205167 
L 121.741007 267.719781 
L 122.402227 266.241052 
L 123.26306 264.302175 
L 124.376032 261.775069 
L 124.719351 260.991448 
L 125.534374 259.124472 
L 126.294753 257.375265 
L 127.605685 254.346495 
L 128.909924 251.322312 
L 129.75076 249.369879 
L 130.204663 248.315746 
L 130.967243 246.545409 
L 131.9421 244.285257 
L 133.275791 241.203143 
L 134.186841 239.107516 
L 134.548742 238.277836 
L 135.197178 236.795801 
L 136.126236 234.683901 
L 137.247668 232.155686 
L 138.27087 229.872101 
L 139.578153 226.991538 
L 139.942277 226.197348 
L 141.130575 223.632638 
L 142.18381 221.396839 
L 142.616177 220.489948 
L 143.950698 217.733811 
L 144.186424 217.254045 
L 145.265156 215.087216 
L 146.189325 213.270005 
L 147.082125 211.550703 
L 147.98347 209.852814 
L 149.411977 207.244002 
L 149.566975 206.967224 
L 150.432834 205.444514 
L 151.527687 203.577679 
L 152.431581 202.087578 
L 153.400187 200.54397 
L 154.609818 198.696174 
L 154.945095 198.200142 
L 156.425376 196.096258 
L 156.899555 195.452652 
L 158.091553 193.901515 
L 159.254506 192.482311 
L 159.958902 191.668944 
L 160.572312 190.989537 
L 161.302086 190.21675 
L 162.088115 189.428104 
L 162.874143 188.685381 
L 163.642656 188.004155 
L 164.684564 187.152448 
L 165.511983 186.53569 
L 165.906516 186.260358 
L 166.934407 185.600372 
L 167.491963 185.277281 
L 168.217257 184.893987 
L 168.942551 184.552759 
L 169.369117 184.37181 
L 170.173529 184.070523 
L 171.033974 183.806262 
L 172.437595 183.504476 
L 173.196774 183.408274 
L 173.806538 183.36515 
L 174.600238 183.354615 
L 175.374378 183.39403 
L 176.148517 183.482483 
L 177.075876 183.652909 
L 177.379508 183.723952 
L 178.406987 184.019985 
L 179.548373 184.449133 
L 180.133486 184.709845 
L 181.002929 185.147923 
L 182.426717 185.995128 
L 183.377067 186.649422 
L 184.010917 187.124913 
L 185.205828 188.10543 
L 186.120586 188.929461 
L 186.74796 189.53092 
L 187.666349 190.463958 
L 188.358453 191.207861 
L 189.312505 192.289854 
L 189.932153 193.027183 
L 191.314121 194.767685 
L 192.349368 196.156435 
L 192.634429 196.551328 
L 193.554323 197.861737 
L 195.012578 200.049183 
L 195.949927 201.524243 
L 196.389951 202.234754 
L 197.686189 204.392876 
L 197.905366 204.767167 
L 199.265743 207.148787 
L 200.329377 209.078595 
L 200.937126 210.206788 
L 201.957044 212.140099 
L 202.453141 213.097968 
L 203.803924 215.761223 
L 204.443626 217.049336 
L 205.306711 218.813073 
L 206.72633 221.774572 
L 207.014967 222.38536 
L 207.734307 223.919517 
L 208.647454 225.890325 
L 210.098547 229.071074 
L 211.285962 231.713461 
L 211.784284 232.831799 
L 212.583992 234.636939 
L 213.841241 237.49775 
L 214.684093 239.428861 
L 215.30802 240.864048 
L 215.844828 242.1021 
L 217.208027 245.256511 
L 218.236083 247.641861 
L 218.915962 249.220685 
L 218.915962 183.354615 
z
" style="fill:#808080;opacity:0.5;"/>
   </g>
   <g id="matplotlib.axis_5">
    <g id="xtick_67">
     <g id="line2d_111">
      <g>
       <use style="stroke:#000000;stroke-width:0.8;" x="44.729849" xlink:href="#mb3f4959661" y="317.72"/>
      </g>
     </g>
     <g id="text_25">
      <!-- -3 -->
      <g transform="translate(39.744693 332.318438)scale(0.1 -0.1)">
       <use xlink:href="#DejaVuSans-2d"/>
       <use x="36.083984" xlink:href="#DejaVuSans-33"/>
      </g>
     </g>
    </g>
    <g id="xtick_68">
     <g id="line2d_112">
      <g>
       <use style="stroke:#000000;stroke-width:0.8;" x="73.091566" xlink:href="#mb3f4959661" y="317.72"/>
      </g>
     </g>
     <g id="text_26">
      <!-- -2 -->
      <g transform="translate(68.10641 332.318438)scale(0.1 -0.1)">
       <use xlink:href="#DejaVuSans-2d"/>
       <use x="36.083984" xlink:href="#DejaVuSans-32"/>
      </g>
     </g>
    </g>
    <g id="xtick_69">
     <g id="line2d_113">
      <g>
       <use style="stroke:#000000;stroke-width:0.8;" x="101.453283" xlink:href="#mb3f4959661" y="317.72"/>
      </g>
     </g>
     <g id="text_27">
      <!-- -1 -->
      <g transform="translate(96.468127 332.318438)scale(0.1 -0.1)">
       <use xlink:href="#DejaVuSans-2d"/>
       <use x="36.083984" xlink:href="#DejaVuSans-31"/>
      </g>
     </g>
    </g>
    <g id="xtick_70">
     <g id="line2d_114">
      <g>
       <use style="stroke:#000000;stroke-width:0.8;" x="129.815" xlink:href="#mb3f4959661" y="317.72"/>
      </g>
     </g>
     <g id="text_28">
      <!-- 0 -->
      <g transform="translate(126.63375 332.318438)scale(0.1 -0.1)">
       <use xlink:href="#DejaVuSans-30"/>
      </g>
     </g>
    </g>
    <g id="xtick_71">
     <g id="line2d_115">
      <g>
       <use style="stroke:#000000;stroke-width:0.8;" x="158.176717" xlink:href="#mb3f4959661" y="317.72"/>
      </g>
     </g>
     <g id="text_29">
      <!-- 1 -->
      <g transform="translate(154.995467 332.318438)scale(0.1 -0.1)">
       <use xlink:href="#DejaVuSans-31"/>
      </g>
     </g>
    </g>
    <g id="xtick_72">
     <g id="line2d_116">
      <g>
       <use style="stroke:#000000;stroke-width:0.8;" x="186.538434" xlink:href="#mb3f4959661" y="317.72"/>
      </g>
     </g>
     <g id="text_30">
      <!-- 2 -->
      <g transform="translate(183.357184 332.318438)scale(0.1 -0.1)">
       <use xlink:href="#DejaVuSans-32"/>
      </g>
     </g>
    </g>
    <g id="xtick_73">
     <g id="line2d_117">
      <g>
       <use style="stroke:#000000;stroke-width:0.8;" x="214.900151" xlink:href="#mb3f4959661" y="317.72"/>
      </g>
     </g>
     <g id="text_31">
      <!-- 3 -->
      <g transform="translate(211.718901 332.318438)scale(0.1 -0.1)">
       <use xlink:href="#DejaVuSans-33"/>
      </g>
     </g>
    </g>
    <g id="xtick_74">
     <g id="line2d_118">
      <g>
       <use style="stroke:#000000;stroke-width:0.6;" x="39.057506" xlink:href="#mfe5edbeb13" y="317.72"/>
      </g>
     </g>
    </g>
    <g id="xtick_75">
     <g id="line2d_119">
      <g>
       <use style="stroke:#000000;stroke-width:0.6;" x="50.402193" xlink:href="#mfe5edbeb13" y="317.72"/>
      </g>
     </g>
    </g>
    <g id="xtick_76">
     <g id="line2d_120">
      <g>
       <use style="stroke:#000000;stroke-width:0.6;" x="56.074536" xlink:href="#mfe5edbeb13" y="317.72"/>
      </g>
     </g>
    </g>
    <g id="xtick_77">
     <g id="line2d_121">
      <g>
       <use style="stroke:#000000;stroke-width:0.6;" x="61.746879" xlink:href="#mfe5edbeb13" y="317.72"/>
      </g>
     </g>
    </g>
    <g id="xtick_78">
     <g id="line2d_122">
      <g>
       <use style="stroke:#000000;stroke-width:0.6;" x="67.419223" xlink:href="#mfe5edbeb13" y="317.72"/>
      </g>
     </g>
    </g>
    <g id="xtick_79">
     <g id="line2d_123">
      <g>
       <use style="stroke:#000000;stroke-width:0.6;" x="78.76391" xlink:href="#mfe5edbeb13" y="317.72"/>
      </g>
     </g>
    </g>
    <g id="xtick_80">
     <g id="line2d_124">
      <g>
       <use style="stroke:#000000;stroke-width:0.6;" x="84.436253" xlink:href="#mfe5edbeb13" y="317.72"/>
      </g>
     </g>
    </g>
    <g id="xtick_81">
     <g id="line2d_125">
      <g>
       <use style="stroke:#000000;stroke-width:0.6;" x="90.108596" xlink:href="#mfe5edbeb13" y="317.72"/>
      </g>
     </g>
    </g>
    <g id="xtick_82">
     <g id="line2d_126">
      <g>
       <use style="stroke:#000000;stroke-width:0.6;" x="95.78094" xlink:href="#mfe5edbeb13" y="317.72"/>
      </g>
     </g>
    </g>
    <g id="xtick_83">
     <g id="line2d_127">
      <g>
       <use style="stroke:#000000;stroke-width:0.6;" x="107.125626" xlink:href="#mfe5edbeb13" y="317.72"/>
      </g>
     </g>
    </g>
    <g id="xtick_84">
     <g id="line2d_128">
      <g>
       <use style="stroke:#000000;stroke-width:0.6;" x="112.79797" xlink:href="#mfe5edbeb13" y="317.72"/>
      </g>
     </g>
    </g>
    <g id="xtick_85">
     <g id="line2d_129">
      <g>
       <use style="stroke:#000000;stroke-width:0.6;" x="118.470313" xlink:href="#mfe5edbeb13" y="317.72"/>
      </g>
     </g>
    </g>
    <g id="xtick_86">
     <g id="line2d_130">
      <g>
       <use style="stroke:#000000;stroke-width:0.6;" x="124.142657" xlink:href="#mfe5edbeb13" y="317.72"/>
      </g>
     </g>
    </g>
    <g id="xtick_87">
     <g id="line2d_131">
      <g>
       <use style="stroke:#000000;stroke-width:0.6;" x="135.487343" xlink:href="#mfe5edbeb13" y="317.72"/>
      </g>
     </g>
    </g>
    <g id="xtick_88">
     <g id="line2d_132">
      <g>
       <use style="stroke:#000000;stroke-width:0.6;" x="141.159687" xlink:href="#mfe5edbeb13" y="317.72"/>
      </g>
     </g>
    </g>
    <g id="xtick_89">
     <g id="line2d_133">
      <g>
       <use style="stroke:#000000;stroke-width:0.6;" x="146.83203" xlink:href="#mfe5edbeb13" y="317.72"/>
      </g>
     </g>
    </g>
    <g id="xtick_90">
     <g id="line2d_134">
      <g>
       <use style="stroke:#000000;stroke-width:0.6;" x="152.504374" xlink:href="#mfe5edbeb13" y="317.72"/>
      </g>
     </g>
    </g>
    <g id="xtick_91">
     <g id="line2d_135">
      <g>
       <use style="stroke:#000000;stroke-width:0.6;" x="163.84906" xlink:href="#mfe5edbeb13" y="317.72"/>
      </g>
     </g>
    </g>
    <g id="xtick_92">
     <g id="line2d_136">
      <g>
       <use style="stroke:#000000;stroke-width:0.6;" x="169.521404" xlink:href="#mfe5edbeb13" y="317.72"/>
      </g>
     </g>
    </g>
    <g id="xtick_93">
     <g id="line2d_137">
      <g>
       <use style="stroke:#000000;stroke-width:0.6;" x="175.193747" xlink:href="#mfe5edbeb13" y="317.72"/>
      </g>
     </g>
    </g>
    <g id="xtick_94">
     <g id="line2d_138">
      <g>
       <use style="stroke:#000000;stroke-width:0.6;" x="180.86609" xlink:href="#mfe5edbeb13" y="317.72"/>
      </g>
     </g>
    </g>
    <g id="xtick_95">
     <g id="line2d_139">
      <g>
       <use style="stroke:#000000;stroke-width:0.6;" x="192.210777" xlink:href="#mfe5edbeb13" y="317.72"/>
      </g>
     </g>
    </g>
    <g id="xtick_96">
     <g id="line2d_140">
      <g>
       <use style="stroke:#000000;stroke-width:0.6;" x="197.883121" xlink:href="#mfe5edbeb13" y="317.72"/>
      </g>
     </g>
    </g>
    <g id="xtick_97">
     <g id="line2d_141">
      <g>
       <use style="stroke:#000000;stroke-width:0.6;" x="203.555464" xlink:href="#mfe5edbeb13" y="317.72"/>
      </g>
     </g>
    </g>
    <g id="xtick_98">
     <g id="line2d_142">
      <g>
       <use style="stroke:#000000;stroke-width:0.6;" x="209.227807" xlink:href="#mfe5edbeb13" y="317.72"/>
      </g>
     </g>
    </g>
    <g id="xtick_99">
     <g id="line2d_143">
      <g>
       <use style="stroke:#000000;stroke-width:0.6;" x="220.572494" xlink:href="#mfe5edbeb13" y="317.72"/>
      </g>
     </g>
    </g>
   </g>
   <g id="matplotlib.axis_6">
    <g id="ytick_43">
     <g id="line2d_144">
      <g>
       <use style="stroke:#000000;stroke-width:0.8;" x="37.15" xlink:href="#mc359079ff9" y="315.089012"/>
      </g>
     </g>
     <g id="text_32">
      <!-- -1 -->
      <g transform="translate(20.179688 318.88823)scale(0.1 -0.1)">
       <use xlink:href="#DejaVuSans-2d"/>
       <use x="36.083984" xlink:href="#DejaVuSans-31"/>
      </g>
     </g>
    </g>
    <g id="ytick_44">
     <g id="line2d_145">
      <g>
       <use style="stroke:#000000;stroke-width:0.8;" x="37.15" xlink:href="#mc359079ff9" y="282.154848"/>
      </g>
     </g>
     <g id="text_33">
      <!-- -0.5 -->
      <g transform="translate(10.639062 285.954067)scale(0.1 -0.1)">
       <use xlink:href="#DejaVuSans-2d"/>
       <use x="36.083984" xlink:href="#DejaVuSans-30"/>
       <use x="99.707031" xlink:href="#DejaVuSans-2e"/>
       <use x="131.494141" xlink:href="#DejaVuSans-35"/>
      </g>
     </g>
    </g>
    <g id="ytick_45">
     <g id="line2d_146">
      <g>
       <use style="stroke:#000000;stroke-width:0.8;" x="37.15" xlink:href="#mc359079ff9" y="249.220685"/>
      </g>
     </g>
     <g id="text_34">
      <!-- 0 -->
      <g transform="translate(23.7875 253.019904)scale(0.1 -0.1)">
       <use xlink:href="#DejaVuSans-30"/>
      </g>
     </g>
    </g>
    <g id="ytick_46">
     <g id="line2d_147">
      <g>
       <use style="stroke:#000000;stroke-width:0.8;" x="37.15" xlink:href="#mc359079ff9" y="216.286522"/>
      </g>
     </g>
     <g id="text_35">
      <!-- 0.5 -->
      <g transform="translate(14.246875 220.085741)scale(0.1 -0.1)">
       <use xlink:href="#DejaVuSans-30"/>
       <use x="63.623047" xlink:href="#DejaVuSans-2e"/>
       <use x="95.410156" xlink:href="#DejaVuSans-35"/>
      </g>
     </g>
    </g>
    <g id="ytick_47">
     <g id="line2d_148">
      <g>
       <use style="stroke:#000000;stroke-width:0.8;" x="37.15" xlink:href="#mc359079ff9" y="183.352359"/>
      </g>
     </g>
     <g id="text_36">
      <!-- 1 -->
      <g transform="translate(23.7875 187.151578)scale(0.1 -0.1)">
       <use xlink:href="#DejaVuSans-31"/>
      </g>
     </g>
    </g>
    <g id="ytick_48">
     <g id="line2d_149">
      <g>
       <use style="stroke:#000000;stroke-width:0.6;" x="37.15" xlink:href="#mc8883de9f4" y="308.502179"/>
      </g>
     </g>
    </g>
    <g id="ytick_49">
     <g id="line2d_150">
      <g>
       <use style="stroke:#000000;stroke-width:0.6;" x="37.15" xlink:href="#mc8883de9f4" y="301.915346"/>
      </g>
     </g>
    </g>
    <g id="ytick_50">
     <g id="line2d_151">
      <g>
       <use style="stroke:#000000;stroke-width:0.6;" x="37.15" xlink:href="#mc8883de9f4" y="295.328514"/>
      </g>
     </g>
    </g>
    <g id="ytick_51">
     <g id="line2d_152">
      <g>
       <use style="stroke:#000000;stroke-width:0.6;" x="37.15" xlink:href="#mc8883de9f4" y="288.741681"/>
      </g>
     </g>
    </g>
    <g id="ytick_52">
     <g id="line2d_153">
      <g>
       <use style="stroke:#000000;stroke-width:0.6;" x="37.15" xlink:href="#mc8883de9f4" y="275.568016"/>
      </g>
     </g>
    </g>
    <g id="ytick_53">
     <g id="line2d_154">
      <g>
       <use style="stroke:#000000;stroke-width:0.6;" x="37.15" xlink:href="#mc8883de9f4" y="268.981183"/>
      </g>
     </g>
    </g>
    <g id="ytick_54">
     <g id="line2d_155">
      <g>
       <use style="stroke:#000000;stroke-width:0.6;" x="37.15" xlink:href="#mc8883de9f4" y="262.394351"/>
      </g>
     </g>
    </g>
    <g id="ytick_55">
     <g id="line2d_156">
      <g>
       <use style="stroke:#000000;stroke-width:0.6;" x="37.15" xlink:href="#mc8883de9f4" y="255.807518"/>
      </g>
     </g>
    </g>
    <g id="ytick_56">
     <g id="line2d_157">
      <g>
       <use style="stroke:#000000;stroke-width:0.6;" x="37.15" xlink:href="#mc8883de9f4" y="242.633853"/>
      </g>
     </g>
    </g>
    <g id="ytick_57">
     <g id="line2d_158">
      <g>
       <use style="stroke:#000000;stroke-width:0.6;" x="37.15" xlink:href="#mc8883de9f4" y="236.04702"/>
      </g>
     </g>
    </g>
    <g id="ytick_58">
     <g id="line2d_159">
      <g>
       <use style="stroke:#000000;stroke-width:0.6;" x="37.15" xlink:href="#mc8883de9f4" y="229.460187"/>
      </g>
     </g>
    </g>
    <g id="ytick_59">
     <g id="line2d_160">
      <g>
       <use style="stroke:#000000;stroke-width:0.6;" x="37.15" xlink:href="#mc8883de9f4" y="222.873355"/>
      </g>
     </g>
    </g>
    <g id="ytick_60">
     <g id="line2d_161">
      <g>
       <use style="stroke:#000000;stroke-width:0.6;" x="37.15" xlink:href="#mc8883de9f4" y="209.69969"/>
      </g>
     </g>
    </g>
    <g id="ytick_61">
     <g id="line2d_162">
      <g>
       <use style="stroke:#000000;stroke-width:0.6;" x="37.15" xlink:href="#mc8883de9f4" y="203.112857"/>
      </g>
     </g>
    </g>
    <g id="ytick_62">
     <g id="line2d_163">
      <g>
       <use style="stroke:#000000;stroke-width:0.6;" x="37.15" xlink:href="#mc8883de9f4" y="196.526024"/>
      </g>
     </g>
    </g>
    <g id="ytick_63">
     <g id="line2d_164">
      <g>
       <use style="stroke:#000000;stroke-width:0.6;" x="37.15" xlink:href="#mc8883de9f4" y="189.939192"/>
      </g>
     </g>
    </g>
   </g>
   <g id="line2d_165">
    <path clip-path="url(#pcdb6fe6158)" d="M 40.714038 249.220685 
L 49.006275 268.205685 
L 52.879305 276.615347 
L 56.973235 284.947027 
L 59.540121 289.802331 
L 63.050968 295.897822 
L 65.965786 300.419451 
L 68.488734 303.898546 
L 70.941141 306.866165 
L 73.675704 309.666397 
L 76.090132 311.672795 
L 77.315945 312.519115 
L 79.600408 313.779826 
L 81.669845 314.560665 
L 83.124614 314.901614 
L 84.966885 315.085385 
L 86.737953 315.000144 
L 88.328999 314.704887 
L 89.695998 314.286604 
L 91.805057 313.345267 
L 94.066972 311.941987 
L 95.401149 310.92664 
L 97.714916 308.843581 
L 100.152831 306.219975 
L 102.555436 303.222471 
L 104.876842 299.958132 
L 107.806579 295.356397 
L 111.100795 289.597357 
L 114.040215 283.996708 
L 117.733495 276.43832 
L 122.402227 266.241052 
L 128.909924 251.322312 
L 137.247668 232.155686 
L 142.18381 221.396839 
L 145.265156 215.087216 
L 147.98347 209.852814 
L 151.527687 203.577679 
L 154.609818 198.696174 
L 156.899555 195.452652 
L 159.254506 192.482311 
L 161.302086 190.21675 
L 163.642656 188.004155 
L 165.906516 186.260358 
L 168.217257 184.893987 
L 170.173529 184.070523 
L 171.033974 183.806262 
L 173.196774 183.408274 
L 174.600238 183.354615 
L 176.148517 183.482483 
L 177.379508 183.723952 
L 179.548373 184.449133 
L 181.002929 185.147923 
L 183.377067 186.649422 
L 185.205828 188.10543 
L 187.666349 190.463958 
L 189.932153 193.027183 
L 192.634429 196.551328 
L 195.012578 200.049183 
L 197.905366 204.767167 
L 200.937126 210.206788 
L 204.443626 217.049336 
L 208.647454 225.890325 
L 213.841241 237.49775 
L 218.915962 249.220685 
L 218.915962 249.220685 
" style="fill:none;stroke:#0000ff;stroke-linecap:square;"/>
   </g>
   <g id="patch_16">
    <path d="M 37.15 317.72 
L 37.15 180.72 
" style="fill:none;stroke:#000000;stroke-linecap:square;stroke-linejoin:miter;stroke-width:0.8;"/>
   </g>
   <g id="patch_17">
    <path d="M 222.48 317.72 
L 222.48 180.72 
" style="fill:none;stroke:#000000;stroke-linecap:square;stroke-linejoin:miter;stroke-width:0.8;"/>
   </g>
   <g id="patch_18">
    <path d="M 37.15 317.72 
L 222.48 317.72 
" style="fill:none;stroke:#000000;stroke-linecap:square;stroke-linejoin:miter;stroke-width:0.8;"/>
   </g>
   <g id="patch_19">
    <path d="M 37.15 180.72 
L 222.48 180.72 
" style="fill:none;stroke:#000000;stroke-linecap:square;stroke-linejoin:miter;stroke-width:0.8;"/>
   </g>
  </g>
  <g id="axes_4">
   <g id="patch_20">
    <path d="M 262.15 317.72 
L 447.48 317.72 
L 447.48 180.72 
L 262.15 180.72 
z
" style="fill:#ffffff;"/>
   </g>
   <g id="patch_21">
    <path clip-path="url(#pf492449822)" d="M 443.915962 299.252978 
L 442.780914 298.51477 
L 442.080811 298.059439 
L 441.51672 297.692568 
L 440.361617 296.941316 
L 439.877179 296.626249 
L 438.67529 295.844568 
L 437.735162 295.233131 
L 437.025021 294.771272 
L 435.911923 294.047339 
L 434.849593 293.356424 
L 434.168551 292.91349 
L 433.218043 292.295303 
L 432.625445 291.909891 
L 431.210946 290.989934 
L 430.3469 290.427978 
L 429.972263 290.184323 
L 428.640621 289.318254 
L 427.442363 288.538935 
L 427.259718 288.420147 
L 425.897907 287.534457 
L 425.156067 287.051982 
L 424.572086 286.672174 
L 423.032215 285.670678 
L 422.483156 285.313583 
L 421.469075 284.654049 
L 420.241664 283.855769 
L 419.635903 283.461796 
L 419.211345 283.185674 
L 417.815353 282.277753 
L 416.698702 281.551509 
L 416.310487 281.299024 
L 415.128745 280.530446 
L 414.518903 280.133819 
L 413.912597 279.739492 
L 412.321868 278.704919 
L 411.554515 278.205851 
L 411.039518 277.870909 
L 409.98487 277.18499 
L 409.195415 276.671547 
L 408.145017 275.988393 
L 407.383669 275.49323 
L 405.882303 274.516776 
L 405.059423 273.981595 
L 404.929034 273.896793 
L 403.367859 272.881441 
L 402.932996 272.598616 
L 401.385566 271.592204 
L 400.976465 271.326134 
L 399.659734 270.469763 
L 398.755178 269.881461 
L 397.871979 269.307049 
L 397.6692 269.175166 
L 396.861929 268.650136 
L 395.204555 267.572219 
L 394.509276 267.120026 
L 393.945484 266.753349 
L 392.478894 265.799513 
L 391.65094 265.261031 
L 391.025475 264.854243 
L 389.831288 264.077572 
L 389.357588 263.769489 
L 388.547213 263.24244 
L 387.350423 262.464075 
L 386.860867 262.14568 
L 385.959816 261.559657 
L 384.708965 260.746133 
L 383.763975 260.131533 
L 383.057916 259.672329 
L 382.54078 259.335996 
L 380.963605 258.310238 
L 380.513219 258.017318 
L 379.5321 257.379221 
L 378.821837 256.917282 
L 377.524572 256.073571 
L 376.9228 255.682193 
L 375.75224 254.920888 
L 374.655021 254.207282 
L 374.064395 253.823153 
L 373.251052 253.294174 
L 372.435628 252.763841 
L 371.089165 251.888134 
L 370.673733 251.617946 
L 369.97882 251.165991 
L 368.309034 250.080001 
L 368.06855 249.923596 
L 367.102238 249.295129 
L 366.206886 248.712813 
L 365.49008 248.24662 
L 364.416889 247.548641 
L 362.939355 246.587687 
L 362.777419 246.482368 
L 361.845275 245.876124 
L 360.819621 245.209062 
L 360.043326 244.704178 
L 358.600463 243.765773 
L 357.708368 243.185576 
L 357.130539 242.80977 
L 356.410247 242.341308 
L 354.912302 241.36708 
L 354.115878 240.849104 
L 353.636555 240.537364 
L 352.917508 240.069712 
L 351.62346 239.228094 
L 350.957963 238.79527 
L 349.751522 238.010629 
L 348.589646 237.254972 
L 348.107953 236.941691 
L 347.57168 236.592911 
L 346.094131 235.631948 
L 345.486236 235.236587 
L 344.230015 234.41957 
L 343.939582 234.230679 
L 343.001331 233.620463 
L 341.651346 232.742464 
L 340.894441 232.250191 
L 339.810392 231.545151 
L 339.255972 231.184569 
L 338.213403 230.506507 
L 337.532679 230.06378 
L 336.299891 229.262003 
L 335.685496 228.862415 
L 334.977503 228.401953 
L 334.165864 227.874082 
L 332.832945 227.007182 
L 332.185517 226.586111 
L 330.912673 225.758282 
L 329.859808 225.073524 
L 329.640792 224.931081 
L 328.589662 224.247451 
L 327.909452 223.805058 
L 326.214503 222.702703 
L 325.479386 222.2246 
L 324.945333 221.877264 
L 323.542002 220.96457 
L 322.624553 220.367883 
L 322.126327 220.043849 
L 321.560476 219.675832 
L 320.508731 218.991802 
L 319.305609 218.209319 
L 318.189471 217.483409 
L 317.796417 217.227776 
L 316.39186 216.314285 
L 315.762471 215.904946 
L 314.996254 215.406616 
L 313.747261 214.5943 
L 313.176762 214.223261 
L 312.727063 213.930787 
L 310.999259 212.807064 
L 310.317617 212.36374 
L 309.627729 211.915053 
L 308.352046 211.085378 
L 307.569611 210.576501 
L 306.459985 209.854826 
L 306.379988 209.802798 
L 304.801756 208.776353 
L 303.884197 208.179594 
L 303.429963 207.884171 
L 302.212264 207.092208 
L 301.492062 206.623805 
L 300.327152 205.866175 
L 299.703578 205.460617 
L 299.092431 205.063141 
L 298.139935 204.44366 
L 296.901626 203.638293 
L 295.891859 202.981564 
L 295.307174 202.601299 
L 294.070305 201.796868 
L 293.710226 201.562681 
L 292.733351 200.927344 
L 291.766114 200.298276 
L 290.997768 199.798562 
L 289.555123 198.860299 
L 289.183995 198.618926 
L 287.662679 197.629498 
L 286.849175 197.100414 
L 286.575762 196.922593 
L 285.542425 196.250535 
L 284.501937 195.573825 
L 283.756891 195.089265 
L 282.897059 194.53005 
L 282.061309 193.986498 
L 280.808315 193.17158 
L 279.753168 192.485337 
L 278.853548 191.900245 
L 278.250408 191.507977 
L 277.696188 191.147525 
L 276.606054 190.438527 
L 275.726835 189.866704 
L 274.588296 189.126225 
L 273.639247 188.508986 
L 272.815538 187.973264 
L 271.615562 187.192828 
L 271.019813 186.805367 
L 269.9308 186.097099 
L 269.481873 185.805127 
L 268.068841 184.886124 
L 267.236401 184.344724 
L 267.052348 184.225021 
L 265.714038 183.354615 
L 265.714038 259.749594 
L 266.918655 262.099251 
L 267.931265 264.071286 
L 268.43214 265.044849 
L 269.310413 266.747798 
L 270.003653 268.087316 
L 270.787615 269.596087 
L 272.274803 272.436637 
L 272.452206 272.773303 
L 273.830645 275.370862 
L 274.695812 276.98274 
L 275.562528 278.581427 
L 276.204722 279.754716 
L 277.452131 282.003887 
L 278.063491 283.090765 
L 279.237733 285.147485 
L 280.303519 286.97665 
L 280.635024 287.537879 
L 281.500555 288.985113 
L 282.327199 290.341925 
L 283.429441 292.110466 
L 284.798211 294.23833 
L 285.112912 294.716379 
L 286.728435 297.101421 
L 287.246211 297.840549 
L 288.504932 299.583958 
L 288.954961 300.188413 
L 289.782406 301.273114 
L 290.773455 302.525694 
L 291.928627 303.919689 
L 292.209566 304.247719 
L 293.638386 305.847811 
L 294.445276 306.699989 
L 295.401414 307.660548 
L 296.411116 308.615789 
L 296.977025 309.124169 
L 298.35984 310.283315 
L 298.811714 310.636189 
L 299.95803 311.473215 
L 300.409728 311.779907 
L 301.861353 312.675804 
L 302.42832 312.988191 
L 303.045231 313.303925 
L 304.170669 313.814551 
L 305.233531 314.218644 
L 306.067107 314.482072 
L 306.573275 314.618975 
L 307.348257 314.79471 
L 308.123238 314.929347 
L 309.123205 315.042187 
L 309.616026 315.072522 
L 310.480318 315.085385 
L 311.504057 315.034145 
L 311.952237 314.989039 
L 313.289764 314.772478 
L 313.737262 314.672676 
L 314.525317 314.463699 
L 315.313373 314.212482 
L 315.422259 314.174461 
L 316.725307 313.657383 
L 317.770296 313.160443 
L 318.586713 312.721715 
L 319.187972 312.370523 
L 320.147541 311.761125 
L 321.402835 310.874159 
L 322.439331 310.066233 
L 323.448265 309.215244 
L 324.06017 308.668566 
L 324.961058 307.822346 
L 325.471611 307.321186 
L 326.485783 306.280112 
L 327.069427 305.653929 
L 328.593492 303.92782 
L 329.149209 303.266428 
L 330.143245 302.041867 
L 330.967297 300.987262 
L 332.244381 299.284431 
L 332.866532 298.425619 
L 334.055141 296.733488 
L 334.795182 295.646947 
L 335.996236 293.831856 
L 336.203815 293.511866 
L 337.159309 292.015887 
L 338.136383 290.448265 
L 339.278703 288.569465 
L 340.168372 287.073666 
L 340.501808 286.506055 
L 341.847084 284.179234 
L 342.636459 282.787989 
L 343.318073 281.572271 
L 344.196219 279.987542 
L 345.654032 277.314641 
L 346.150485 276.393445 
L 347.468345 273.924107 
L 347.937743 273.036906 
L 348.934486 271.141209 
L 349.569006 269.926945 
L 350.744231 267.66495 
L 351.606078 265.997268 
L 352.592115 264.082292 
L 353.431869 262.447194 
L 354.322933 260.709633 
L 354.902528 259.578817 
L 356.058845 257.323469 
L 356.964713 255.559241 
L 357.956517 253.632612 
L 358.757979 252.081088 
L 359.422027 250.800165 
L 360.820886 248.118714 
L 361.606154 246.625428 
L 362.107428 245.677382 
L 363.153619 243.713253 
L 364.102706 241.95023 
L 365.482308 239.423554 
L 366.260632 238.018927 
L 367.156864 236.421849 
L 367.41435 235.96725 
L 368.457723 234.145592 
L 369.746178 231.944113 
L 370.308358 231.001277 
L 371.214595 229.505357 
L 372.598793 227.280575 
L 373.474971 225.911954 
L 373.746537 225.494253 
L 375.010098 223.592657 
L 376.221256 221.837228 
L 377.066267 220.653238 
L 377.385144 220.215405 
L 378.490134 218.737215 
L 379.137196 217.900371 
L 380.673382 216.001642 
L 380.872307 215.765039 
L 382.208258 214.23268 
L 382.742001 213.648514 
L 383.524921 212.821226 
L 384.30784 212.029698 
L 384.388479 211.950228 
L 385.851584 210.576058 
L 386.37435 210.116614 
L 387.627288 209.084365 
L 387.998253 208.797624 
L 389.281501 207.87325 
L 390.246377 207.248052 
L 390.741992 206.950492 
L 391.514015 206.519131 
L 392.286037 206.127209 
L 392.59961 205.979352 
L 393.393214 205.634555 
L 394.186818 205.332126 
L 394.449526 205.241388 
L 395.808286 204.846882 
L 396.253599 204.744964 
L 397.523965 204.528808 
L 397.819629 204.494379 
L 398.662144 204.429217 
L 399.50466 204.412868 
L 399.94476 204.423744 
L 401.034294 204.507969 
L 402.250759 204.698307 
L 402.929134 204.84846 
L 403.644259 205.040752 
L 404.240006 205.227505 
L 405.286514 205.613749 
L 406.113246 205.971015 
L 407.244957 206.534094 
L 407.872176 206.882715 
L 408.621637 207.33317 
L 409.371099 207.820225 
L 410.202158 208.402689 
L 411.127395 209.102997 
L 412.042447 209.848606 
L 412.286399 210.056188 
L 413.068213 210.746136 
L 413.850027 211.473319 
L 414.200146 211.810898 
L 415.442913 213.067778 
L 416.025594 213.688088 
L 416.812084 214.556151 
L 417.56807 215.423309 
L 418.395866 216.408936 
L 419.223662 217.431482 
L 419.4275 217.688841 
L 420.68124 219.319035 
L 421.721854 220.732245 
L 422.616728 221.989605 
L 423.051773 222.614531 
L 424.282903 224.42986 
L 425.376775 226.098735 
L 426.220546 227.420365 
L 426.915092 228.529782 
L 427.922869 230.17264 
L 428.661535 231.400633 
L 429.368588 232.594092 
L 430.431267 234.419333 
L 431.818146 236.8545 
L 432.596347 238.245264 
L 433.450995 239.791264 
L 434.203445 241.167442 
L 434.732954 242.143776 
L 436.061616 244.619881 
L 436.578922 245.593217 
L 437.912367 248.123085 
L 438.226692 248.723388 
L 439.416528 251.007395 
L 440.047744 252.225577 
L 440.968485 254.009031 
L 441.685063 255.401309 
L 443.044475 258.049479 
L 443.915962 259.749594 
z
" style="fill:#0000ff;opacity:0.2;"/>
   </g>
   <g id="matplotlib.axis_7">
    <g id="xtick_100">
     <g id="line2d_166">
      <g>
       <use style="stroke:#000000;stroke-width:0.8;" x="269.729849" xlink:href="#mb3f4959661" y="317.72"/>
      </g>
     </g>
     <g id="text_37">
      <!-- -3 -->
      <g transform="translate(264.744693 332.318438)scale(0.1 -0.1)">
       <use xlink:href="#DejaVuSans-2d"/>
       <use x="36.083984" xlink:href="#DejaVuSans-33"/>
      </g>
     </g>
    </g>
    <g id="xtick_101">
     <g id="line2d_167">
      <g>
       <use style="stroke:#000000;stroke-width:0.8;" x="298.091566" xlink:href="#mb3f4959661" y="317.72"/>
      </g>
     </g>
     <g id="text_38">
      <!-- -2 -->
      <g transform="translate(293.10641 332.318438)scale(0.1 -0.1)">
       <use xlink:href="#DejaVuSans-2d"/>
       <use x="36.083984" xlink:href="#DejaVuSans-32"/>
      </g>
     </g>
    </g>
    <g id="xtick_102">
     <g id="line2d_168">
      <g>
       <use style="stroke:#000000;stroke-width:0.8;" x="326.453283" xlink:href="#mb3f4959661" y="317.72"/>
      </g>
     </g>
     <g id="text_39">
      <!-- -1 -->
      <g transform="translate(321.468127 332.318438)scale(0.1 -0.1)">
       <use xlink:href="#DejaVuSans-2d"/>
       <use x="36.083984" xlink:href="#DejaVuSans-31"/>
      </g>
     </g>
    </g>
    <g id="xtick_103">
     <g id="line2d_169">
      <g>
       <use style="stroke:#000000;stroke-width:0.8;" x="354.815" xlink:href="#mb3f4959661" y="317.72"/>
      </g>
     </g>
     <g id="text_40">
      <!-- 0 -->
      <g transform="translate(351.63375 332.318438)scale(0.1 -0.1)">
       <use xlink:href="#DejaVuSans-30"/>
      </g>
     </g>
    </g>
    <g id="xtick_104">
     <g id="line2d_170">
      <g>
       <use style="stroke:#000000;stroke-width:0.8;" x="383.176717" xlink:href="#mb3f4959661" y="317.72"/>
      </g>
     </g>
     <g id="text_41">
      <!-- 1 -->
      <g transform="translate(379.995467 332.318438)scale(0.1 -0.1)">
       <use xlink:href="#DejaVuSans-31"/>
      </g>
     </g>
    </g>
    <g id="xtick_105">
     <g id="line2d_171">
      <g>
       <use style="stroke:#000000;stroke-width:0.8;" x="411.538434" xlink:href="#mb3f4959661" y="317.72"/>
      </g>
     </g>
     <g id="text_42">
      <!-- 2 -->
      <g transform="translate(408.357184 332.318438)scale(0.1 -0.1)">
       <use xlink:href="#DejaVuSans-32"/>
      </g>
     </g>
    </g>
    <g id="xtick_106">
     <g id="line2d_172">
      <g>
       <use style="stroke:#000000;stroke-width:0.8;" x="439.900151" xlink:href="#mb3f4959661" y="317.72"/>
      </g>
     </g>
     <g id="text_43">
      <!-- 3 -->
      <g transform="translate(436.718901 332.318438)scale(0.1 -0.1)">
       <use xlink:href="#DejaVuSans-33"/>
      </g>
     </g>
    </g>
    <g id="xtick_107">
     <g id="line2d_173">
      <g>
       <use style="stroke:#000000;stroke-width:0.6;" x="264.057506" xlink:href="#mfe5edbeb13" y="317.72"/>
      </g>
     </g>
    </g>
    <g id="xtick_108">
     <g id="line2d_174">
      <g>
       <use style="stroke:#000000;stroke-width:0.6;" x="275.402193" xlink:href="#mfe5edbeb13" y="317.72"/>
      </g>
     </g>
    </g>
    <g id="xtick_109">
     <g id="line2d_175">
      <g>
       <use style="stroke:#000000;stroke-width:0.6;" x="281.074536" xlink:href="#mfe5edbeb13" y="317.72"/>
      </g>
     </g>
    </g>
    <g id="xtick_110">
     <g id="line2d_176">
      <g>
       <use style="stroke:#000000;stroke-width:0.6;" x="286.746879" xlink:href="#mfe5edbeb13" y="317.72"/>
      </g>
     </g>
    </g>
    <g id="xtick_111">
     <g id="line2d_177">
      <g>
       <use style="stroke:#000000;stroke-width:0.6;" x="292.419223" xlink:href="#mfe5edbeb13" y="317.72"/>
      </g>
     </g>
    </g>
    <g id="xtick_112">
     <g id="line2d_178">
      <g>
       <use style="stroke:#000000;stroke-width:0.6;" x="303.76391" xlink:href="#mfe5edbeb13" y="317.72"/>
      </g>
     </g>
    </g>
    <g id="xtick_113">
     <g id="line2d_179">
      <g>
       <use style="stroke:#000000;stroke-width:0.6;" x="309.436253" xlink:href="#mfe5edbeb13" y="317.72"/>
      </g>
     </g>
    </g>
    <g id="xtick_114">
     <g id="line2d_180">
      <g>
       <use style="stroke:#000000;stroke-width:0.6;" x="315.108596" xlink:href="#mfe5edbeb13" y="317.72"/>
      </g>
     </g>
    </g>
    <g id="xtick_115">
     <g id="line2d_181">
      <g>
       <use style="stroke:#000000;stroke-width:0.6;" x="320.78094" xlink:href="#mfe5edbeb13" y="317.72"/>
      </g>
     </g>
    </g>
    <g id="xtick_116">
     <g id="line2d_182">
      <g>
       <use style="stroke:#000000;stroke-width:0.6;" x="332.125626" xlink:href="#mfe5edbeb13" y="317.72"/>
      </g>
     </g>
    </g>
    <g id="xtick_117">
     <g id="line2d_183">
      <g>
       <use style="stroke:#000000;stroke-width:0.6;" x="337.79797" xlink:href="#mfe5edbeb13" y="317.72"/>
      </g>
     </g>
    </g>
    <g id="xtick_118">
     <g id="line2d_184">
      <g>
       <use style="stroke:#000000;stroke-width:0.6;" x="343.470313" xlink:href="#mfe5edbeb13" y="317.72"/>
      </g>
     </g>
    </g>
    <g id="xtick_119">
     <g id="line2d_185">
      <g>
       <use style="stroke:#000000;stroke-width:0.6;" x="349.142657" xlink:href="#mfe5edbeb13" y="317.72"/>
      </g>
     </g>
    </g>
    <g id="xtick_120">
     <g id="line2d_186">
      <g>
       <use style="stroke:#000000;stroke-width:0.6;" x="360.487343" xlink:href="#mfe5edbeb13" y="317.72"/>
      </g>
     </g>
    </g>
    <g id="xtick_121">
     <g id="line2d_187">
      <g>
       <use style="stroke:#000000;stroke-width:0.6;" x="366.159687" xlink:href="#mfe5edbeb13" y="317.72"/>
      </g>
     </g>
    </g>
    <g id="xtick_122">
     <g id="line2d_188">
      <g>
       <use style="stroke:#000000;stroke-width:0.6;" x="371.83203" xlink:href="#mfe5edbeb13" y="317.72"/>
      </g>
     </g>
    </g>
    <g id="xtick_123">
     <g id="line2d_189">
      <g>
       <use style="stroke:#000000;stroke-width:0.6;" x="377.504374" xlink:href="#mfe5edbeb13" y="317.72"/>
      </g>
     </g>
    </g>
    <g id="xtick_124">
     <g id="line2d_190">
      <g>
       <use style="stroke:#000000;stroke-width:0.6;" x="388.84906" xlink:href="#mfe5edbeb13" y="317.72"/>
      </g>
     </g>
    </g>
    <g id="xtick_125">
     <g id="line2d_191">
      <g>
       <use style="stroke:#000000;stroke-width:0.6;" x="394.521404" xlink:href="#mfe5edbeb13" y="317.72"/>
      </g>
     </g>
    </g>
    <g id="xtick_126">
     <g id="line2d_192">
      <g>
       <use style="stroke:#000000;stroke-width:0.6;" x="400.193747" xlink:href="#mfe5edbeb13" y="317.72"/>
      </g>
     </g>
    </g>
    <g id="xtick_127">
     <g id="line2d_193">
      <g>
       <use style="stroke:#000000;stroke-width:0.6;" x="405.86609" xlink:href="#mfe5edbeb13" y="317.72"/>
      </g>
     </g>
    </g>
    <g id="xtick_128">
     <g id="line2d_194">
      <g>
       <use style="stroke:#000000;stroke-width:0.6;" x="417.210777" xlink:href="#mfe5edbeb13" y="317.72"/>
      </g>
     </g>
    </g>
    <g id="xtick_129">
     <g id="line2d_195">
      <g>
       <use style="stroke:#000000;stroke-width:0.6;" x="422.883121" xlink:href="#mfe5edbeb13" y="317.72"/>
      </g>
     </g>
    </g>
    <g id="xtick_130">
     <g id="line2d_196">
      <g>
       <use style="stroke:#000000;stroke-width:0.6;" x="428.555464" xlink:href="#mfe5edbeb13" y="317.72"/>
      </g>
     </g>
    </g>
    <g id="xtick_131">
     <g id="line2d_197">
      <g>
       <use style="stroke:#000000;stroke-width:0.6;" x="434.227807" xlink:href="#mfe5edbeb13" y="317.72"/>
      </g>
     </g>
    </g>
    <g id="xtick_132">
     <g id="line2d_198">
      <g>
       <use style="stroke:#000000;stroke-width:0.6;" x="445.572494" xlink:href="#mfe5edbeb13" y="317.72"/>
      </g>
     </g>
    </g>
   </g>
   <g id="matplotlib.axis_8">
    <g id="ytick_64">
     <g id="line2d_199">
      <g>
       <use style="stroke:#000000;stroke-width:0.8;" x="262.15" xlink:href="#mc359079ff9" y="315.086986"/>
      </g>
     </g>
     <g id="text_44">
      <!-- -1 -->
      <g transform="translate(245.179687 318.886205)scale(0.1 -0.1)">
       <use xlink:href="#DejaVuSans-2d"/>
       <use x="36.083984" xlink:href="#DejaVuSans-31"/>
      </g>
     </g>
    </g>
    <g id="ytick_65">
     <g id="line2d_200">
      <g>
       <use style="stroke:#000000;stroke-width:0.8;" x="262.15" xlink:href="#mc359079ff9" y="287.41829"/>
      </g>
     </g>
     <g id="text_45">
      <!-- -0.5 -->
      <g transform="translate(235.639062 291.217509)scale(0.1 -0.1)">
       <use xlink:href="#DejaVuSans-2d"/>
       <use x="36.083984" xlink:href="#DejaVuSans-30"/>
       <use x="99.707031" xlink:href="#DejaVuSans-2e"/>
       <use x="131.494141" xlink:href="#DejaVuSans-35"/>
      </g>
     </g>
    </g>
    <g id="ytick_66">
     <g id="line2d_201">
      <g>
       <use style="stroke:#000000;stroke-width:0.8;" x="262.15" xlink:href="#mc359079ff9" y="259.749594"/>
      </g>
     </g>
     <g id="text_46">
      <!-- 0 -->
      <g transform="translate(248.7875 263.548813)scale(0.1 -0.1)">
       <use xlink:href="#DejaVuSans-30"/>
      </g>
     </g>
    </g>
    <g id="ytick_67">
     <g id="line2d_202">
      <g>
       <use style="stroke:#000000;stroke-width:0.8;" x="262.15" xlink:href="#mc359079ff9" y="232.080898"/>
      </g>
     </g>
     <g id="text_47">
      <!-- 0.5 -->
      <g transform="translate(239.246875 235.880117)scale(0.1 -0.1)">
       <use xlink:href="#DejaVuSans-30"/>
       <use x="63.623047" xlink:href="#DejaVuSans-2e"/>
       <use x="95.410156" xlink:href="#DejaVuSans-35"/>
      </g>
     </g>
    </g>
    <g id="ytick_68">
     <g id="line2d_203">
      <g>
       <use style="stroke:#000000;stroke-width:0.8;" x="262.15" xlink:href="#mc359079ff9" y="204.412202"/>
      </g>
     </g>
     <g id="text_48">
      <!-- 1 -->
      <g transform="translate(248.7875 208.211421)scale(0.1 -0.1)">
       <use xlink:href="#DejaVuSans-31"/>
      </g>
     </g>
    </g>
    <g id="ytick_69">
     <g id="line2d_204">
      <g>
       <use style="stroke:#000000;stroke-width:0.6;" x="262.15" xlink:href="#mc8883de9f4" y="309.553247"/>
      </g>
     </g>
    </g>
    <g id="ytick_70">
     <g id="line2d_205">
      <g>
       <use style="stroke:#000000;stroke-width:0.6;" x="262.15" xlink:href="#mc8883de9f4" y="304.019508"/>
      </g>
     </g>
    </g>
    <g id="ytick_71">
     <g id="line2d_206">
      <g>
       <use style="stroke:#000000;stroke-width:0.6;" x="262.15" xlink:href="#mc8883de9f4" y="298.485769"/>
      </g>
     </g>
    </g>
    <g id="ytick_72">
     <g id="line2d_207">
      <g>
       <use style="stroke:#000000;stroke-width:0.6;" x="262.15" xlink:href="#mc8883de9f4" y="292.95203"/>
      </g>
     </g>
    </g>
    <g id="ytick_73">
     <g id="line2d_208">
      <g>
       <use style="stroke:#000000;stroke-width:0.6;" x="262.15" xlink:href="#mc8883de9f4" y="281.884551"/>
      </g>
     </g>
    </g>
    <g id="ytick_74">
     <g id="line2d_209">
      <g>
       <use style="stroke:#000000;stroke-width:0.6;" x="262.15" xlink:href="#mc8883de9f4" y="276.350812"/>
      </g>
     </g>
    </g>
    <g id="ytick_75">
     <g id="line2d_210">
      <g>
       <use style="stroke:#000000;stroke-width:0.6;" x="262.15" xlink:href="#mc8883de9f4" y="270.817073"/>
      </g>
     </g>
    </g>
    <g id="ytick_76">
     <g id="line2d_211">
      <g>
       <use style="stroke:#000000;stroke-width:0.6;" x="262.15" xlink:href="#mc8883de9f4" y="265.283334"/>
      </g>
     </g>
    </g>
    <g id="ytick_77">
     <g id="line2d_212">
      <g>
       <use style="stroke:#000000;stroke-width:0.6;" x="262.15" xlink:href="#mc8883de9f4" y="254.215855"/>
      </g>
     </g>
    </g>
    <g id="ytick_78">
     <g id="line2d_213">
      <g>
       <use style="stroke:#000000;stroke-width:0.6;" x="262.15" xlink:href="#mc8883de9f4" y="248.682116"/>
      </g>
     </g>
    </g>
    <g id="ytick_79">
     <g id="line2d_214">
      <g>
       <use style="stroke:#000000;stroke-width:0.6;" x="262.15" xlink:href="#mc8883de9f4" y="243.148377"/>
      </g>
     </g>
    </g>
    <g id="ytick_80">
     <g id="line2d_215">
      <g>
       <use style="stroke:#000000;stroke-width:0.6;" x="262.15" xlink:href="#mc8883de9f4" y="237.614637"/>
      </g>
     </g>
    </g>
    <g id="ytick_81">
     <g id="line2d_216">
      <g>
       <use style="stroke:#000000;stroke-width:0.6;" x="262.15" xlink:href="#mc8883de9f4" y="226.547159"/>
      </g>
     </g>
    </g>
    <g id="ytick_82">
     <g id="line2d_217">
      <g>
       <use style="stroke:#000000;stroke-width:0.6;" x="262.15" xlink:href="#mc8883de9f4" y="221.01342"/>
      </g>
     </g>
    </g>
    <g id="ytick_83">
     <g id="line2d_218">
      <g>
       <use style="stroke:#000000;stroke-width:0.6;" x="262.15" xlink:href="#mc8883de9f4" y="215.479681"/>
      </g>
     </g>
    </g>
    <g id="ytick_84">
     <g id="line2d_219">
      <g>
       <use style="stroke:#000000;stroke-width:0.6;" x="262.15" xlink:href="#mc8883de9f4" y="209.945941"/>
      </g>
     </g>
    </g>
    <g id="ytick_85">
     <g id="line2d_220">
      <g>
       <use style="stroke:#000000;stroke-width:0.6;" x="262.15" xlink:href="#mc8883de9f4" y="198.878463"/>
      </g>
     </g>
    </g>
    <g id="ytick_86">
     <g id="line2d_221">
      <g>
       <use style="stroke:#000000;stroke-width:0.6;" x="262.15" xlink:href="#mc8883de9f4" y="193.344724"/>
      </g>
     </g>
    </g>
    <g id="ytick_87">
     <g id="line2d_222">
      <g>
       <use style="stroke:#000000;stroke-width:0.6;" x="262.15" xlink:href="#mc8883de9f4" y="187.810985"/>
      </g>
     </g>
    </g>
    <g id="ytick_88">
     <g id="line2d_223">
      <g>
       <use style="stroke:#000000;stroke-width:0.6;" x="262.15" xlink:href="#mc8883de9f4" y="182.277245"/>
      </g>
     </g>
    </g>
   </g>
   <g id="line2d_224">
    <path clip-path="url(#pf492449822)" d="M 265.714038 259.749594 
L 273.830645 275.370862 
L 278.063491 283.090765 
L 282.327199 290.341925 
L 285.112912 294.716379 
L 288.504932 299.583958 
L 290.773455 302.525694 
L 293.638386 305.847811 
L 296.411116 308.615789 
L 298.811714 310.636189 
L 300.409728 311.779907 
L 303.045231 313.303925 
L 305.233531 314.218644 
L 307.348257 314.79471 
L 309.123205 315.042187 
L 310.480318 315.085385 
L 311.952237 314.989039 
L 314.525317 314.463699 
L 316.725307 313.657383 
L 319.187972 312.370523 
L 321.402835 310.874159 
L 324.06017 308.668566 
L 326.485783 306.280112 
L 329.149209 303.266428 
L 332.244381 299.284431 
L 334.795182 295.646947 
L 338.136383 290.448265 
L 341.847084 284.179234 
L 346.150485 276.393445 
L 351.606078 265.997268 
L 364.102706 241.95023 
L 368.457723 234.145592 
L 372.598793 227.280575 
L 375.010098 223.592657 
L 378.490134 218.737215 
L 380.872307 215.765039 
L 383.524921 212.821226 
L 385.851584 210.576058 
L 387.998253 208.797624 
L 390.741992 206.950492 
L 392.59961 205.979352 
L 394.449526 205.241388 
L 396.253599 204.744964 
L 398.662144 204.429217 
L 399.94476 204.423744 
L 402.250759 204.698307 
L 404.240006 205.227505 
L 406.113246 205.971015 
L 408.621637 207.33317 
L 410.202158 208.402689 
L 412.286399 210.056188 
L 414.200146 211.810898 
L 416.812084 214.556151 
L 419.4275 217.688841 
L 422.616728 221.989605 
L 425.376775 226.098735 
L 428.661535 231.400633 
L 432.596347 238.245264 
L 436.578922 245.593217 
L 443.915962 259.749594 
L 443.915962 259.749594 
" style="fill:none;stroke:#0000ff;stroke-linecap:square;"/>
   </g>
   <g id="patch_22">
    <path d="M 262.15 317.72 
L 262.15 180.72 
" style="fill:none;stroke:#000000;stroke-linecap:square;stroke-linejoin:miter;stroke-width:0.8;"/>
   </g>
   <g id="patch_23">
    <path d="M 447.48 317.72 
L 447.48 180.72 
" style="fill:none;stroke:#000000;stroke-linecap:square;stroke-linejoin:miter;stroke-width:0.8;"/>
   </g>
   <g id="patch_24">
    <path d="M 262.15 317.72 
L 447.48 317.72 
" style="fill:none;stroke:#000000;stroke-linecap:square;stroke-linejoin:miter;stroke-width:0.8;"/>
   </g>
   <g id="patch_25">
    <path d="M 262.15 180.72 
L 447.48 180.72 
" style="fill:none;stroke:#000000;stroke-linecap:square;stroke-linejoin:miter;stroke-width:0.8;"/>
   </g>
  </g>
 </g>
 <defs>
  <clipPath id="pb664cd5628">
   <rect height="137" width="185.33" x="37.15" y="13.32"/>
  </clipPath>
  <clipPath id="pa53d8afb6c">
   <rect height="137" width="185.33" x="262.15" y="13.32"/>
  </clipPath>
  <clipPath id="pcdb6fe6158">
   <rect height="137" width="185.33" x="37.15" y="180.72"/>
  </clipPath>
  <clipPath id="pf492449822">
   <rect height="137" width="185.33" x="262.15" y="180.72"/>
  </clipPath>
 </defs>
</svg>
