<?xml version="1.0" encoding="utf-8" standalone="no"?>
<!DOCTYPE svg PUBLIC "-//W3C//DTD SVG 1.1//EN"
  "http://www.w3.org/Graphics/SVG/1.1/DTD/svg11.dtd">
<!-- Created with matplotlib (http://matplotlib.org/) -->
<svg height="345.6pt" version="1.1" viewBox="0 0 460.8 345.6" width="460.8pt" xmlns="http://www.w3.org/2000/svg" xmlns:xlink="http://www.w3.org/1999/xlink">
 <defs>
  <style type="text/css">
*{stroke-linecap:butt;stroke-linejoin:round;}
  </style>
 </defs>
 <g id="figure_1">
  <g id="patch_1">
   <path d="M 0 345.6 
L 460.8 345.6 
L 460.8 0 
L 0 0 
z
" style="fill:#ffffff;"/>
  </g>
  <g id="axes_1">
   <g id="patch_2">
    <path d="M 38.591889 343.08 
L 422.208111 343.08 
L 422.208111 2.52 
L 38.591889 2.52 
z
" style="fill:#ffffff;"/>
   </g>
   <g id="patch_3">
    <path clip-path="url(#pbe8c06b2f9)" d="M 119.580269 195.394681 
L 120.145928 187.993508 
L 120.877615 182.300483 
L 121.147835 180.594781 
L 122.120235 175.390249 
L 123.156485 170.839912 
L 125.60998 162.231366 
L 126.441554 159.750206 
L 128.153077 155.109889 
L 131.69803 146.918965 
L 133.268191 143.734755 
L 137.069078 136.838543 
L 138.570027 134.372639 
L 142.183992 128.911673 
L 145.194703 124.794705 
L 146.298465 123.370198 
L 151.428889 117.262598 
L 154.780219 113.67081 
L 159.723494 108.857129 
L 164.274007 104.870339 
L 168.497151 101.505377 
L 172.601443 98.513192 
L 173.257854 98.058424 
L 179.372518 94.115308 
L 183.270005 91.861266 
L 187.005326 89.876806 
L 191.979528 87.485755 
L 199.398194 84.41925 
L 204.737338 82.559939 
L 208.472292 81.423883 
L 214.648367 79.831648 
L 215.410379 79.659373 
L 221.808118 78.417577 
L 227.680124 77.593869 
L 235.026158 76.981022 
L 235.925856 76.937593 
L 243.055892 76.836619 
L 246.562884 76.945613 
L 255.049468 77.646198 
L 259.297151 78.232448 
L 261.340165 78.571443 
L 269.855752 80.393729 
L 271.823408 80.911176 
L 278.435186 82.926586 
L 283.659484 84.833667 
L 285.791692 85.695767 
L 291.517942 88.264361 
L 296.677303 90.914574 
L 301.249804 93.552043 
L 304.561018 95.645192 
L 307.568947 97.690225 
L 310.486 99.813437 
L 315.880673 104.139701 
L 318.519155 106.465123 
L 320.830305 108.62803 
L 325.001509 112.864025 
L 328.650577 116.972436 
L 332.50952 121.808221 
L 333.588624 123.2658 
L 336.074582 126.827744 
L 340.277448 133.63568 
L 342.390772 137.539628 
L 343.85039 140.480506 
L 345.572682 144.271836 
L 346.946134 147.608327 
L 349.807944 155.877422 
L 350.385078 157.863383 
L 351.794149 163.472698 
L 352.691712 167.957391 
L 353.506771 173.337372 
L 353.889871 176.877538 
L 354.14205 180.237088 
L 354.291185 183.786357 
L 354.25829 190.115378 
L 353.980102 194.872898 
L 353.764156 197.198386 
L 352.780426 204.262281 
L 351.999103 208.264557 
L 351.087996 212.120901 
L 349.5512 217.490139 
L 348.63779 220.241948 
L 346.500313 225.845105 
L 346.086879 226.824529 
L 344.260854 230.841355 
L 341.697666 235.805924 
L 338.791666 240.727864 
L 337.42196 242.842006 
L 334.9724 246.351806 
L 332.761267 249.262329 
L 330.085746 252.505214 
L 326.892277 256.03216 
L 322.367302 260.487473 
L 319.785378 262.782995 
L 316.510766 265.467079 
L 314.55892 266.955712 
L 309.896722 270.205245 
L 307.705795 271.593909 
L 302.995698 274.304529 
L 301.216609 275.236248 
L 296.848005 277.323044 
L 291.448235 279.529764 
L 287.680719 280.839353 
L 283.181944 282.167211 
L 279.532963 283.062028 
L 276.284719 283.724882 
L 273.741361 284.157513 
L 267.881386 284.869974 
L 263.566064 285.143664 
L 260.625047 285.208671 
L 258.743496 285.198492 
L 252.362064 284.860682 
L 248.003604 284.356401 
L 246.029722 284.053303 
L 241.093892 283.085835 
L 238.782354 282.526952 
L 234.489045 281.302322 
L 232.193736 280.544309 
L 229.433995 279.533285 
L 222.997205 276.723821 
L 221.167138 275.801143 
L 217.151761 273.565791 
L 213.500058 271.25906 
L 211.926308 270.176787 
L 208.848764 267.891703 
L 207.218461 266.583258 
L 203.185523 263.015887 
L 201.740862 261.609381 
L 199.019242 258.745163 
L 195.824781 254.962452 
L 194.276298 252.931391 
L 191.900803 249.505032 
L 191.03477 248.145126 
L 188.446587 243.628947 
L 187.889981 242.549563 
L 185.540683 237.401051 
L 185.012543 236.071506 
L 184.031181 233.361157 
L 182.951666 229.877049 
L 181.80809 225.176649 
L 181.501102 223.589613 
L 180.945339 219.949784 
L 180.769831 218.388676 
L 180.501399 214.626728 
L 180.468623 210.120523 
L 180.577893 207.772884 
L 180.716686 206.022517 
L 181.291453 201.597956 
L 181.956337 198.211517 
L 182.593095 195.658934 
L 183.310409 193.237543 
L 183.775451 191.844194 
L 185.197473 188.167615 
L 186.21377 185.924734 
L 187.618439 183.194016 
L 189.350764 180.266236 
L 190.93938 177.906791 
L 192.320692 176.057815 
L 194.187006 173.807537 
L 196.020484 171.831637 
L 196.706603 171.144911 
L 198.551554 169.42592 
L 201.102877 167.323581 
L 203.138402 165.848979 
L 205.888165 164.111706 
L 206.252147 163.902227 
L 209.36037 162.295355 
L 212.428179 161.010746 
L 213.810755 160.524431 
L 216.059902 159.851995 
L 218.649162 159.256058 
L 220.844152 158.898312 
L 221.46743 158.821346 
L 223.76256 158.632369 
L 227.394598 158.642909 
L 229.09322 158.782987 
L 230.531008 158.97216 
L 233.60409 159.607273 
L 235.622605 160.210216 
L 236.451924 160.504665 
L 238.01346 161.139301 
L 241.336957 162.889178 
L 242.588259 163.715442 
L 243.544814 164.421711 
L 245.003597 165.644874 
L 246.118632 166.72267 
L 247.621361 168.429251 
L 249.377143 170.963574 
L 249.686694 171.499463 
L 251.015976 174.329999 
L 251.291181 175.08583 
L 252.033594 177.817841 
L 252.325136 179.661306 
L 252.446435 181.206913 
L 252.461502 182.629148 
L 252.317715 184.724046 
L 252.013271 186.641389 
L 251.447162 188.875866 
L 250.987517 190.237925 
L 250.437788 191.600406 
L 249.827059 192.898694 
L 249.154548 194.150032 
L 248.399774 195.394681 
L 248.399774 195.394681 
L 249.259386 193.947559 
L 250.292928 191.800087 
L 251.017945 189.787023 
L 251.349503 188.562738 
L 251.681958 186.82958 
L 251.879797 184.515608 
L 251.87198 183.323562 
L 251.74441 181.741122 
L 251.444968 180.001007 
L 250.860183 177.935086 
L 250.065465 175.999765 
L 249.305622 174.568858 
L 248.551606 173.385051 
L 247.529053 172.030536 
L 247.13643 171.568828 
L 245.730303 170.117288 
L 244.618284 169.147897 
L 242.789915 167.81523 
L 241.467037 167.015183 
L 240.859286 166.68718 
L 237.864302 165.381448 
L 236.286205 164.874872 
L 236.011541 164.798177 
L 233.072678 164.173676 
L 231.206628 163.950685 
L 229.817252 163.866335 
L 227.62856 163.868891 
L 226.451282 163.936949 
L 224.399796 164.164816 
L 222.667909 164.464411 
L 219.977375 165.125128 
L 218.303932 165.657848 
L 216.210283 166.459941 
L 215.071686 166.961559 
L 212.608431 168.212624 
L 211.562926 168.815748 
L 209.602065 170.071329 
L 207.550843 171.572845 
L 205.762146 173.056915 
L 203.737024 174.96101 
L 202.558049 176.194315 
L 201.893023 176.935457 
L 200.427911 178.698053 
L 198.388758 181.503699 
L 197.822142 182.371155 
L 196.639736 184.332775 
L 195.384986 186.688831 
L 194.055094 189.606225 
L 193.168416 191.895978 
L 192.783398 193.010437 
L 191.820311 196.274463 
L 191.059183 199.69126 
L 190.651368 202.202655 
L 190.409787 204.252853 
L 190.207922 207.067427 
L 190.152035 209.36289 
L 190.169467 210.942502 
L 190.451054 215.297723 
L 190.717247 217.456336 
L 191.219883 220.418781 
L 191.870679 223.330499 
L 192.328904 225.048528 
L 192.745022 226.452404 
L 193.717896 229.329924 
L 195.447694 233.547845 
L 196.483781 235.71302 
L 198.212846 238.914096 
L 199.222412 240.597505 
L 200.895815 243.151246 
L 202.760795 245.714054 
L 204.259835 247.596163 
L 205.902768 249.504975 
L 208.246245 251.989499 
L 211.014058 254.618395 
L 211.542131 255.086779 
L 214.817078 257.781922 
L 218.312463 260.304789 
L 220.660197 261.819752 
L 223.215308 263.320881 
L 224.8935 264.228927 
L 227.919148 265.7207 
L 229.875627 266.591409 
L 232.338833 267.588708 
L 238.103582 269.5201 
L 239.597172 269.933557 
L 243.626159 270.879989 
L 246.667827 271.436727 
L 249.549882 271.843095 
L 253.568114 272.217887 
L 255.135744 272.304557 
L 259.932053 272.365092 
L 263.976245 272.178167 
L 264.593758 272.130501 
L 268.690653 271.685487 
L 272.605876 271.049292 
L 274.402391 270.687394 
L 278.592488 269.668676 
L 281.503986 268.813359 
L 286.253101 267.148115 
L 290.164735 265.512411 
L 291.400752 264.943467 
L 293.843356 263.742311 
L 299.524648 260.528491 
L 300.827855 259.702438 
L 304.782926 256.972535 
L 306.573355 255.618545 
L 310.547918 252.319624 
L 313.597623 249.481357 
L 314.813321 248.266387 
L 316.528588 246.462943 
L 320.624686 241.674352 
L 322.830651 238.761779 
L 325.113382 235.444127 
L 327.144128 232.177477 
L 327.859473 230.943003 
L 329.303342 228.294698 
L 332.15892 222.270648 
L 332.742394 220.871616 
L 333.72004 218.356596 
L 334.908253 214.93569 
L 336.346746 210.007996 
L 337.533297 204.80489 
L 337.770301 203.549457 
L 338.307704 200.224844 
L 339.017756 193.273813 
L 339.158296 190.150332 
L 339.191681 187.445312 
L 339.013902 182.04004 
L 338.612713 177.50215 
L 338.037281 173.318306 
L 337.789878 171.860229 
L 336.773716 166.942207 
L 336.11738 164.328026 
L 334.740172 159.664953 
L 333.173176 155.223323 
L 332.59527 153.747538 
L 330.423742 148.766255 
L 329.02129 145.917003 
L 326.864077 141.954954 
L 324.993175 138.848257 
L 322.814418 135.540336 
L 320.118218 131.825232 
L 318.252965 129.461121 
L 314.656789 125.301134 
L 313.030292 123.56987 
L 308.569355 119.230582 
L 305.250575 116.342305 
L 302.743195 114.328896 
L 298.753855 111.39426 
L 295.910973 109.486866 
L 292.441043 107.348341 
L 287.382394 104.57321 
L 284.339505 103.084941 
L 282.74198 102.354935 
L 275.259709 99.377739 
L 272.661769 98.505512 
L 270.356891 97.797955 
L 266.758545 96.81431 
L 261.549525 95.643105 
L 256.826451 94.83093 
L 251.679158 94.208363 
L 246.962322 93.873311 
L 242.001395 93.760547 
L 241.325444 93.764094 
L 235.436738 93.986567 
L 229.661952 94.539728 
L 226.126352 95.043834 
L 221.67437 95.86024 
L 215.985173 97.205107 
L 212.863292 98.091004 
L 210.655245 98.782686 
L 203.356474 101.468421 
L 202.414375 101.861464 
L 195.697516 104.990765 
L 192.091189 106.920981 
L 191.054208 107.510375 
L 183.797072 112.098321 
L 181.955982 113.400661 
L 176.736556 117.433909 
L 174.868463 119.010413 
L 170.504986 122.999777 
L 167.118958 126.42729 
L 165.384737 128.309755 
L 162.355352 131.831078 
L 159.698562 135.195698 
L 157.924884 137.60715 
L 154.681455 142.420866 
L 151.860674 147.125549 
L 148.851039 152.845399 
L 148.136424 154.337758 
L 146.301136 158.470812 
L 144.824802 162.184352 
L 143.061869 167.246803 
L 141.494429 172.605089 
L 140.036036 178.852009 
L 139.409528 182.215161 
L 139.062263 184.389122 
L 138.466601 189.063168 
L 137.983056 195.394681 
z
" style="fill:#b2b3ff;opacity:0.5;"/>
   </g>
   <g id="patch_4">
    <path clip-path="url(#pbe8c06b2f9)" d="M 82.774697 195.394681 
L 83.368169 187.195282 
L 84.405779 178.804352 
L 84.977953 175.25439 
L 86.113141 169.327508 
L 88.492654 159.543276 
L 89.943712 154.596014 
L 92.079934 148.191311 
L 95.731191 138.877297 
L 97.456783 134.988927 
L 99.081631 131.560604 
L 102.273672 125.368328 
L 107.915614 115.78717 
L 109.482142 113.374081 
L 114.760113 105.877285 
L 117.447146 102.385665 
L 125.00612 93.525038 
L 128.749444 89.586791 
L 135.010941 83.56116 
L 138.143828 80.782851 
L 141.816392 77.708012 
L 147.273353 73.473608 
L 154.848673 68.195447 
L 162.426149 63.542473 
L 168.51628 60.215435 
L 170.256972 59.32802 
L 176.652206 56.298283 
L 182.958415 53.649919 
L 188.055871 51.743253 
L 198.589892 48.432313 
L 199.65088 48.144253 
L 207.139335 46.339771 
L 216.334921 44.658603 
L 220.696182 44.062521 
L 227.600041 43.379382 
L 236.837458 42.959961 
L 241.543266 42.963117 
L 244.931715 43.056148 
L 257.305946 44.046758 
L 257.993512 44.132089 
L 268.7418 45.890179 
L 271.672757 46.510525 
L 280.953955 48.888102 
L 283.632135 49.694339 
L 294.272579 53.457656 
L 297.777033 54.902207 
L 304.728917 58.089067 
L 306.58056 59.013169 
L 314.793403 63.520731 
L 321.657905 67.841856 
L 322.322127 68.288933 
L 328.818544 72.953685 
L 335.160799 78.066739 
L 337.743474 80.325646 
L 341.501175 83.814873 
L 347.729368 90.193359 
L 350.676833 93.508276 
L 356.482184 100.705646 
L 360.395991 106.158883 
L 363.752722 111.316142 
L 366.174632 115.371346 
L 368.513407 119.608619 
L 371.625428 125.856301 
L 374.164842 131.627391 
L 375.585662 135.205244 
L 378.140128 142.51512 
L 379.042442 145.463238 
L 380.972933 152.768023 
L 382.825142 162.089476 
L 383.40031 165.975466 
L 383.919044 170.42626 
L 384.496434 178.874384 
L 384.58753 184.249567 
L 384.380308 191.308119 
L 384.279166 192.941879 
L 383.921675 197.19136 
L 382.502452 207.366725 
L 382.206731 208.960432 
L 381.120979 214.069583 
L 379.657457 219.763538 
L 377.695866 226.118234 
L 375.979027 230.904744 
L 372.568601 239.018673 
L 369.325439 245.55988 
L 367.251035 249.308703 
L 363.950879 254.727717 
L 362.575915 256.818348 
L 359.824698 260.750251 
L 353.894866 268.273696 
L 352.65732 269.704369 
L 347.053665 275.677502 
L 346.394878 276.33012 
L 339.050411 282.994592 
L 337.098666 284.593823 
L 332.847059 287.854983 
L 327.596793 291.494965 
L 325.00347 293.147237 
L 318.666231 296.811631 
L 314.892825 298.757776 
L 309.096895 301.427955 
L 304.620774 303.239533 
L 299.513317 305.053203 
L 294.608067 306.550921 
L 290.971758 307.51173 
L 285.612168 308.702063 
L 281.261149 309.474584 
L 274.932217 310.293888 
L 271.505842 310.588516 
L 266.552029 310.83054 
L 258.388466 310.754281 
L 256.693585 310.663827 
L 250.460469 310.107343 
L 246.565762 309.578191 
L 238.092285 307.928826 
L 234.900481 307.124186 
L 229.429702 305.500106 
L 226.312798 304.430837 
L 222.757685 303.077534 
L 217.56108 300.829052 
L 214.634383 299.41288 
L 208.427776 296.02139 
L 204.647972 293.674118 
L 201.07836 291.240213 
L 199.26032 289.912852 
L 194.843126 286.416331 
L 191.997746 283.939007 
L 186.57341 278.642916 
L 183.457685 275.197949 
L 182.67474 274.27827 
L 178.573478 269.044198 
L 177.456916 267.480271 
L 173.851211 261.916519 
L 172.943139 260.367863 
L 169.70039 254.188039 
L 168.312105 251.138931 
L 167.401165 248.960018 
L 165.310889 243.218209 
L 164.143729 239.339861 
L 162.794828 233.748485 
L 162.299615 231.153326 
L 161.561963 226.034551 
L 161.468121 225.166319 
L 161.154533 221.201035 
L 161.055435 214.486759 
L 161.109988 212.948255 
L 161.32181 209.69479 
L 162.247579 202.614928 
L 162.978031 198.991887 
L 163.65572 196.237259 
L 164.553371 193.127935 
L 165.482308 190.343776 
L 166.973425 186.495214 
L 168.967762 182.155071 
L 170.908402 178.542082 
L 172.408953 176.055325 
L 174.060019 173.566423 
L 176.102653 170.784062 
L 178.456278 167.915914 
L 179.86271 166.349842 
L 182.328675 163.835492 
L 185.820674 160.712894 
L 188.560532 158.5743 
L 190.984127 156.885003 
L 191.998961 156.230094 
L 195.382887 154.255146 
L 198.464235 152.71893 
L 199.553706 152.232311 
L 202.43149 151.08313 
L 206.570556 149.764155 
L 209.747019 149.010373 
L 210.987368 148.775978 
L 214.673813 148.277299 
L 216.943019 148.118456 
L 221.727887 148.162646 
L 222.336132 148.206199 
L 226.362926 148.721981 
L 228.921488 149.266581 
L 231.61884 150.040075 
L 234.752033 151.223796 
L 237.08447 152.331051 
L 239.22269 153.542423 
L 240.733444 154.528649 
L 241.651971 155.188079 
L 243.889021 157.014984 
L 246.068385 159.168899 
L 248.049165 161.570738 
L 249.078722 163.054895 
L 250.001139 164.577474 
L 251.274615 167.124109 
L 252.15701 169.399816 
L 252.982733 172.373063 
L 253.223783 173.607484 
L 253.470828 175.384954 
L 253.604308 177.193175 
L 253.590557 179.840723 
L 253.246444 183.041998 
L 253.155278 183.569848 
L 252.755921 185.428601 
L 252.230265 187.295561 
L 251.53765 189.263166 
L 250.697894 191.230164 
L 250.100921 192.448475 
L 249.295037 193.925308 
L 248.399774 195.394681 
L 248.399774 195.394681 
L 249.415607 193.700952 
L 250.29886 191.997112 
L 250.926533 190.595769 
L 251.873399 187.974382 
L 252.166488 186.947416 
L 252.668058 184.651646 
L 252.986519 182.020054 
L 253.02033 179.086317 
L 252.912926 177.660942 
L 252.66341 175.888914 
L 252.29076 174.155865 
L 251.574579 171.816324 
L 251.184613 170.805434 
L 249.994746 168.310601 
L 248.451088 165.831572 
L 247.812041 164.962783 
L 245.619171 162.449319 
L 244.109791 161.03168 
L 242.637139 159.8326 
L 242.072777 159.414173 
L 239.688185 157.859945 
L 236.97431 156.446138 
L 236.200167 156.102331 
L 233.305589 155.021874 
L 229.949637 154.130502 
L 228.907281 153.925102 
L 226.825344 153.609357 
L 222.752021 153.335086 
L 220.521528 153.367717 
L 219.560421 153.42039 
L 216.246681 153.777303 
L 212.71291 154.454995 
L 212.107111 154.602021 
L 208.598411 155.633748 
L 206.424584 156.430398 
L 203.523699 157.688873 
L 201.544602 158.681511 
L 198.594505 160.376108 
L 195.86086 162.194266 
L 193.155568 164.253364 
L 191.676399 165.499886 
L 189.53973 167.468023 
L 188.32928 168.679399 
L 185.016705 172.40901 
L 183.344893 174.563086 
L 182.62866 175.552119 
L 180.208752 179.244694 
L 178.818827 181.663911 
L 177.468027 184.286183 
L 176.386832 186.630044 
L 175.240483 189.428341 
L 173.511604 194.565648 
L 173.172058 195.770388 
L 172.528335 198.33407 
L 171.55505 203.418336 
L 171.047701 207.540489 
L 170.973269 208.392099 
L 170.749361 212.850466 
L 170.803737 217.423559 
L 170.946173 219.828362 
L 171.182766 222.380658 
L 171.977618 227.801095 
L 173.011566 232.578135 
L 173.516549 234.496982 
L 174.779674 238.619122 
L 176.272498 242.687353 
L 177.900798 246.492934 
L 178.788461 248.366331 
L 180.421251 251.527323 
L 182.100618 254.46881 
L 184.84413 258.754182 
L 186.934907 261.677487 
L 188.120844 263.226543 
L 192.855074 268.767111 
L 194.718998 270.710462 
L 198.420874 274.241709 
L 200.924607 276.412175 
L 202.695231 277.85242 
L 206.571733 280.758077 
L 211.243137 283.855999 
L 214.280694 285.65882 
L 217.154337 287.223993 
L 219.882829 288.591681 
L 225.327594 291.000213 
L 228.927209 292.373313 
L 234.686026 294.232756 
L 238.781264 295.316161 
L 241.901144 296.014226 
L 245.571852 296.699 
L 250.288987 297.368245 
L 254.806242 297.792501 
L 256.786352 297.912801 
L 260.9227 298.036487 
L 268.166256 297.840898 
L 271.171055 297.606292 
L 278.333726 296.68213 
L 282.645992 295.874683 
L 285.610806 295.207994 
L 290.518812 293.90011 
L 294.754666 292.560927 
L 296.244863 292.042117 
L 301.911087 289.834602 
L 304.819314 288.551839 
L 311.947396 284.948872 
L 313.215813 284.235588 
L 317.543206 281.62625 
L 322.747088 278.102523 
L 326.989253 274.88597 
L 330.048714 272.353788 
L 332.553587 270.135537 
L 335.934564 266.914124 
L 339.064813 263.673109 
L 342.912783 259.298754 
L 345.954717 255.486525 
L 349.831259 250.080356 
L 352.602472 245.754962 
L 354.316732 242.843977 
L 357.722734 236.385388 
L 358.497511 234.762743 
L 360.606585 229.973534 
L 363.501661 222.189752 
L 364.110796 220.298717 
L 365.316985 216.175505 
L 367.242959 207.949333 
L 367.443631 206.90233 
L 368.328519 201.468436 
L 369.048323 194.976822 
L 369.284343 191.525103 
L 369.444562 183.464324 
L 369.155904 176.651797 
L 368.996651 174.64329 
L 368.139271 167.395442 
L 367.60795 164.135787 
L 366.909001 160.509353 
L 365.76149 155.531497 
L 364.096551 149.580164 
L 362.702969 145.321868 
L 360.549323 139.589373 
L 358.514792 134.844695 
L 356.463208 130.544478 
L 353.80364 125.524102 
L 349.481364 118.369058 
L 347.08834 114.824606 
L 342.914509 109.203211 
L 340.695581 106.461499 
L 337.898793 103.215919 
L 334.513172 99.565368 
L 328.361304 93.602093 
L 323.900203 89.742504 
L 319.045437 85.92637 
L 315.398072 83.296364 
L 309.607985 79.498696 
L 304.621408 76.567236 
L 301.348771 74.801068 
L 295.673714 72.015087 
L 292.365794 70.544612 
L 285.636157 67.881184 
L 279.744032 65.891552 
L 273.166406 64.027534 
L 270.421259 63.356897 
L 265.856404 62.377572 
L 260.696543 61.470405 
L 252.206113 60.427156 
L 248.537133 60.146039 
L 243.343972 59.920839 
L 237.685264 59.904362 
L 232.777554 60.082823 
L 224.500368 60.790615 
L 221.577579 61.163463 
L 212.882464 62.658088 
L 205.886346 64.28893 
L 200.72222 65.745758 
L 195.80575 67.339215 
L 193.144306 68.288321 
L 185.718198 71.271004 
L 180.740384 73.558941 
L 175.596056 76.182054 
L 171.908046 78.233453 
L 165.972927 81.854808 
L 159.600583 86.219748 
L 153.228935 91.134811 
L 150.209536 93.677469 
L 146.750768 96.775951 
L 139.547253 103.947217 
L 137.235893 106.481507 
L 132.977801 111.495818 
L 130.779938 114.2799 
L 126.326014 120.400116 
L 124.077351 123.771433 
L 119.2681 131.771301 
L 116.937185 136.127476 
L 114.703159 140.678004 
L 111.512496 148.001428 
L 109.062703 154.532139 
L 107.345345 159.793547 
L 105.912873 164.806885 
L 104.178923 172.063289 
L 102.947961 178.607992 
L 101.958156 185.715849 
L 101.813015 187.039996 
L 101.177483 195.394681 
z
" style="fill:#ffb2df;opacity:0.5;"/>
   </g>
   <g id="patch_5">
    <path clip-path="url(#pbe8c06b2f9)" d="M 45.969124 195.394681 
L 46.243383 190.74005 
L 46.998812 182.47248 
L 48.688803 170.623684 
L 49.922467 164.142001 
L 51.583567 156.83016 
L 54.581159 146.015074 
L 57.271288 137.900719 
L 61.525208 126.97431 
L 65.590155 118.012159 
L 65.831628 117.515012 
L 69.761284 109.880447 
L 77.712584 96.517641 
L 81.414054 91.028856 
L 87.493642 82.80207 
L 90.219995 79.387853 
L 98.385613 70.021265 
L 100.803909 67.466962 
L 107.668168 60.693001 
L 110.598626 57.998049 
L 122.777972 47.900454 
L 129.076878 43.299922 
L 135.080287 39.266116 
L 140.663485 35.800113 
L 147.003098 32.176628 
L 155.411263 27.849667 
L 162.448094 24.622191 
L 168.598281 22.079289 
L 177.674732 18.777097 
L 183.592707 16.901699 
L 193.578654 14.214088 
L 199.453773 12.904441 
L 206.821044 11.539121 
L 214.812377 10.400103 
L 224.493522 9.489284 
L 233.934632 9.09084 
L 238.255797 9.069231 
L 246.211148 9.293892 
L 253.029285 9.760677 
L 266.994117 11.519217 
L 271.051042 12.236254 
L 278.366966 13.770234 
L 285.136618 15.47251 
L 296.663713 19.022794 
L 299.094349 19.880377 
L 310.892513 24.613812 
L 318.568384 28.231574 
L 324.580684 31.384814 
L 328.478074 33.588034 
L 332.750453 36.154961 
L 344.218408 43.898622 
L 348.781835 47.361175 
L 355.376392 52.798195 
L 356.702365 53.958172 
L 366.264062 63.07032 
L 367.819636 64.689457 
L 373.737977 71.254344 
L 378.406517 76.94372 
L 384.49344 85.180063 
L 388.024196 90.47121 
L 393.120961 98.949826 
L 395.325951 102.995434 
L 397.864752 108.003837 
L 401.72287 116.521615 
L 404.705926 124.127403 
L 407.574724 132.699836 
L 409.700293 140.299541 
L 410.383066 143.080931 
L 411.793975 149.630481 
L 413.250281 158.339411 
L 414.328939 168.156324 
L 414.548491 171.279731 
L 414.830876 178.62512 
L 414.714862 187.987845 
L 414.25933 195.202443 
L 413.664057 200.962599 
L 412.357406 209.722189 
L 410.788898 217.464208 
L 408.961784 224.69217 
L 407.439677 229.837952 
L 404.897115 237.283873 
L 402.771309 242.729347 
L 400.462186 248.05703 
L 396.631396 255.886385 
L 395.925702 257.217196 
L 390.183087 267.045561 
L 388.399939 269.79217 
L 384.678504 275.146281 
L 379.218593 282.218523 
L 375.243296 286.876863 
L 369.341485 293.152866 
L 366.324615 296.101308 
L 361.203642 300.75049 
L 356.035053 305.033076 
L 348.995035 310.277221 
L 347.323495 311.430619 
L 338.819376 316.800833 
L 335.109526 318.899248 
L 328.316027 322.386458 
L 323.172997 324.737412 
L 314.611439 328.132713 
L 309.063141 330.00431 
L 302.226145 331.971066 
L 297.905361 333.026406 
L 291.434984 334.341984 
L 289.29871 334.707664 
L 283.067609 335.582163 
L 275.135432 336.285485 
L 267.644229 336.530769 
L 263.884756 336.500355 
L 257.338978 336.200848 
L 248.167865 335.246419 
L 246.059509 334.937061 
L 239.918853 333.839621 
L 233.400477 332.345982 
L 226.635089 330.422229 
L 222.487646 329.046015 
L 217.085599 327.01755 
L 210.71951 324.264245 
L 204.644422 321.242576 
L 200.537234 318.96367 
L 194.097566 314.970134 
L 191.153793 312.958396 
L 185.149696 308.450676 
L 184.23561 307.712842 
L 177.263135 301.575241 
L 176.141486 300.495564 
L 171.450561 295.658792 
L 165.703499 288.901757 
L 165.087349 288.112957 
L 159.380175 280.06275 
L 158.950697 279.393956 
L 156.236931 274.914192 
L 153.526333 269.915525 
L 149.873849 262.017152 
L 149.201757 260.364226 
L 147.262863 255.096785 
L 145.70914 250.131982 
L 144.523519 245.634756 
L 143.074896 238.569808 
L 142.277845 232.959102 
L 141.836971 228.088699 
L 141.673733 224.876805 
L 141.613028 220.820175 
L 141.755137 215.97953 
L 142.391679 208.905055 
L 142.526002 207.88829 
L 143.532405 201.952031 
L 144.956289 195.931061 
L 146.022511 192.300467 
L 147.881336 186.994211 
L 149.130993 183.923062 
L 149.911048 182.156802 
L 151.689343 178.476002 
L 155.917254 171.138861 
L 157.355894 168.981655 
L 160.703109 164.466354 
L 162.151724 162.698865 
L 164.076543 160.50058 
L 168.581939 155.934982 
L 172.067805 152.879008 
L 174.502761 150.95829 
L 175.480613 150.232636 
L 181.637786 146.211319 
L 184.335441 144.723832 
L 186.626254 143.581877 
L 188.768676 142.610531 
L 193.869577 140.657206 
L 198.77087 139.237018 
L 199.46321 139.071518 
L 203.102461 138.342642 
L 207.025272 137.8216 
L 211.052646 137.574303 
L 215.330289 137.638465 
L 216.686785 137.731307 
L 222.106739 138.469248 
L 224.539782 139.002744 
L 228.621941 140.207583 
L 231.347258 141.249721 
L 232.345966 141.684039 
L 234.891262 142.930306 
L 237.324876 144.329374 
L 238.601934 145.155178 
L 240.556903 146.558388 
L 243.340479 148.899086 
L 244.801438 150.324564 
L 247.240375 153.100675 
L 249.409248 156.148048 
L 250.266957 157.570604 
L 252.059089 161.178597 
L 252.913317 163.393487 
L 253.667488 165.871952 
L 254.180113 168.129367 
L 254.540565 170.436314 
L 254.762409 173.18596 
L 254.785233 175.194338 
L 254.69053 177.225545 
L 254.595289 178.27629 
L 254.130531 181.37523 
L 253.534323 183.947059 
L 252.739185 186.52961 
L 252.026976 188.424307 
L 251.20254 190.317703 
L 250.489814 191.772653 
L 249.500047 193.588271 
L 248.399774 195.394681 
L 248.399774 195.394681 
L 249.579645 193.437682 
L 250.61756 191.469518 
L 251.901267 188.543347 
L 252.513224 186.83756 
L 253.027772 185.134084 
L 253.606568 182.665058 
L 253.861496 181.177898 
L 254.104583 179.056487 
L 254.205941 176.957274 
L 254.180324 175.117274 
L 254.046063 173.274365 
L 253.669926 170.688469 
L 253.084483 168.17032 
L 253.033255 167.987574 
L 252.205868 165.482195 
L 251.175138 163.068171 
L 251.12116 162.955697 
L 250.065326 160.953457 
L 248.870578 159.032019 
L 246.880596 156.372271 
L 245.533194 154.845843 
L 244.055218 153.363929 
L 242.644722 152.103829 
L 239.996735 150.067978 
L 237.78095 148.636367 
L 233.911753 146.614838 
L 232.710159 146.093816 
L 230.477195 145.244443 
L 226.221944 144.012202 
L 224.585322 143.661381 
L 220.152178 143.024617 
L 217.852944 142.864719 
L 215.730162 142.815601 
L 209.938169 143.145551 
L 209.396442 143.21045 
L 204.625848 144.030625 
L 202.178942 144.625026 
L 199.210355 145.506478 
L 194.374391 147.32965 
L 192.819516 148.021587 
L 188.617137 150.163921 
L 185.836944 151.812562 
L 183.858182 153.106406 
L 180.725882 155.375239 
L 177.85431 157.714986 
L 175.407053 159.927593 
L 171.759305 163.654055 
L 169.893365 165.788916 
L 168.241861 167.828089 
L 166.277975 170.461832 
L 163.92859 173.964975 
L 161.452053 178.179052 
L 159.357805 182.296312 
L 158.67885 183.771716 
L 156.780722 188.384569 
L 154.724963 194.580843 
L 154.287847 196.150558 
L 152.82084 202.61595 
L 152.602007 203.836061 
L 151.983347 208.041395 
L 151.422164 214.659914 
L 151.322013 218.329448 
L 151.341282 220.968423 
L 151.545281 225.420992 
L 152.269275 232.213353 
L 152.6463 234.623669 
L 153.905224 240.809956 
L 155.42045 246.433337 
L 155.539869 246.826422 
L 157.320755 252.10969 
L 159.36014 257.209446 
L 161.642127 262.12957 
L 163.276059 265.282797 
L 166.329898 270.559122 
L 168.190171 273.459296 
L 171.27767 277.857074 
L 174.522547 282.019959 
L 178.261106 286.341762 
L 181.808996 290.051829 
L 186.008642 294.027641 
L 187.444861 295.295528 
L 193.157391 299.930826 
L 197.633506 303.156445 
L 202.755778 306.463759 
L 204.686888 307.613128 
L 210.734868 310.895956 
L 215.004029 312.943897 
L 217.416388 314.008947 
L 222.250537 315.953274 
L 230.761046 318.797976 
L 236.362317 320.293077 
L 237.441959 320.548346 
L 246.206937 322.241258 
L 247.809548 322.479412 
L 254.942215 323.279431 
L 260.447044 323.611794 
L 266.56139 323.69472 
L 273.664386 323.416104 
L 277.500562 323.098316 
L 285.227119 322.100055 
L 289.291064 321.380877 
L 296.385168 319.798434 
L 299.672759 318.921178 
L 305.356542 317.183362 
L 309.872622 315.59694 
L 315.037574 313.550653 
L 323.796749 309.482429 
L 324.756816 308.988388 
L 331.419439 305.280371 
L 338.662882 300.655108 
L 342.558287 297.88708 
L 346.092151 295.19073 
L 352.582682 289.733305 
L 356.594736 285.995205 
L 359.564076 283.027079 
L 364.249118 277.952317 
L 366.039046 275.87305 
L 370.786695 269.925315 
L 374.121429 265.31495 
L 377.299385 260.522874 
L 381.420439 253.597371 
L 384.525151 247.70615 
L 386.84581 242.811853 
L 389.718754 235.980008 
L 391.557823 231.003071 
L 393.894584 223.685785 
L 395.10616 219.254508 
L 397.060323 210.539802 
L 397.542236 207.906226 
L 398.313989 202.963223 
L 399.468923 191.210955 
L 399.540944 189.868323 
L 399.700187 180.113346 
L 399.538042 175.178607 
L 399.217289 170.296734 
L 398.42908 162.923252 
L 397.234204 155.346509 
L 395.366253 146.627792 
L 393.707074 140.424828 
L 392.776793 137.339885 
L 390.452066 130.485167 
L 388.790393 126.144414 
L 385.256806 118.000801 
L 382.474418 112.361245 
L 377.525506 103.535406 
L 374.62322 98.915409 
L 370.455779 92.846917 
L 366.079142 87.068179 
L 362.808609 83.085188 
L 359.935722 79.79355 
L 352.460218 72.011607 
L 347.533863 67.417881 
L 341.42703 62.228426 
L 339.488236 60.687168 
L 331.153349 54.58635 
L 324.993314 50.576223 
L 322.018518 48.77833 
L 314.258652 44.482456 
L 307.754788 41.29158 
L 300.124544 37.988964 
L 294.640976 35.892325 
L 289.840791 34.238055 
L 285.39776 32.852328 
L 276.970225 30.594198 
L 266.29259 28.401544 
L 263.477581 27.943994 
L 255.031027 26.865393 
L 245.824627 26.183989 
L 238.24378 26.004261 
L 232.434637 26.098062 
L 224.368685 26.561242 
L 219.349229 27.045652 
L 215.225231 27.557074 
L 204.184123 29.436851 
L 197.892746 30.84708 
L 189.317618 33.178228 
L 180.910381 35.938682 
L 174.573962 38.34384 
L 168.474655 40.935017 
L 164.882655 42.592912 
L 154.810382 47.793974 
L 147.338266 52.216532 
L 145.543593 53.355582 
L 139.486386 57.434193 
L 129.407701 65.09319 
L 123.771596 69.909986 
L 122.914886 70.679135 
L 112.739732 80.65279 
L 112.048945 81.391231 
L 102.607163 92.418191 
L 100.507905 95.1377 
L 96.499247 100.653117 
L 93.534073 105.039676 
L 89.102954 112.171043 
L 84.044865 121.36268 
L 79.964511 129.86574 
L 76.913642 137.096348 
L 75.34931 141.18669 
L 72.087613 150.874024 
L 70.904961 154.913558 
L 68.239 165.690481 
L 66.407473 175.511815 
L 65.587382 181.296466 
L 64.683608 190.30792 
L 64.37191 195.394681 
z
" style="fill:#fff2b2;opacity:0.5;"/>
   </g>
   <g id="matplotlib.axis_1">
    <g id="xtick_1">
     <g id="line2d_1">
      <defs>
       <path d="M 0 0 
L 0 3.5 
" id="m4a4ae122aa" style="stroke:#000000;stroke-width:0.8;"/>
      </defs>
      <g>
       <use style="stroke:#000000;stroke-width:0.8;" x="84.333975" xlink:href="#m4a4ae122aa" y="195.394681"/>
      </g>
     </g>
     <g id="text_1">
      <!-- -4 -->
      <defs>
       <path d="M 4.890625 31.390625 
L 31.203125 31.390625 
L 31.203125 23.390625 
L 4.890625 23.390625 
z
" id="DejaVuSans-2d"/>
       <path d="M 37.796875 64.3125 
L 12.890625 25.390625 
L 37.796875 25.390625 
z
M 35.203125 72.90625 
L 47.609375 72.90625 
L 47.609375 25.390625 
L 58.015625 25.390625 
L 58.015625 17.1875 
L 47.609375 17.1875 
L 47.609375 0 
L 37.796875 0 
L 37.796875 17.1875 
L 4.890625 17.1875 
L 4.890625 26.703125 
z
" id="DejaVuSans-34"/>
      </defs>
      <g transform="translate(79.348818 209.993118)scale(0.1 -0.1)">
       <use xlink:href="#DejaVuSans-2d"/>
       <use x="36.083984" xlink:href="#DejaVuSans-34"/>
      </g>
     </g>
    </g>
    <g id="xtick_2">
     <g id="line2d_2">
      <g>
       <use style="stroke:#000000;stroke-width:0.8;" x="166.366874" xlink:href="#m4a4ae122aa" y="195.394681"/>
      </g>
     </g>
     <g id="text_2">
      <!-- -2 -->
      <defs>
       <path d="M 19.1875 8.296875 
L 53.609375 8.296875 
L 53.609375 0 
L 7.328125 0 
L 7.328125 8.296875 
Q 12.9375 14.109375 22.625 23.890625 
Q 32.328125 33.6875 34.8125 36.53125 
Q 39.546875 41.84375 41.421875 45.53125 
Q 43.3125 49.21875 43.3125 52.78125 
Q 43.3125 58.59375 39.234375 62.25 
Q 35.15625 65.921875 28.609375 65.921875 
Q 23.96875 65.921875 18.8125 64.3125 
Q 13.671875 62.703125 7.8125 59.421875 
L 7.8125 69.390625 
Q 13.765625 71.78125 18.9375 73 
Q 24.125 74.21875 28.421875 74.21875 
Q 39.75 74.21875 46.484375 68.546875 
Q 53.21875 62.890625 53.21875 53.421875 
Q 53.21875 48.921875 51.53125 44.890625 
Q 49.859375 40.875 45.40625 35.40625 
Q 44.1875 33.984375 37.640625 27.21875 
Q 31.109375 20.453125 19.1875 8.296875 
z
" id="DejaVuSans-32"/>
      </defs>
      <g transform="translate(161.381718 209.993118)scale(0.1 -0.1)">
       <use xlink:href="#DejaVuSans-2d"/>
       <use x="36.083984" xlink:href="#DejaVuSans-32"/>
      </g>
     </g>
    </g>
    <g id="xtick_3">
     <g id="line2d_3">
      <g>
       <use style="stroke:#000000;stroke-width:0.8;" x="248.399774" xlink:href="#m4a4ae122aa" y="195.394681"/>
      </g>
     </g>
    </g>
    <g id="xtick_4">
     <g id="line2d_4">
      <g>
       <use style="stroke:#000000;stroke-width:0.8;" x="330.432673" xlink:href="#m4a4ae122aa" y="195.394681"/>
      </g>
     </g>
     <g id="text_3">
      <!-- 2 -->
      <g transform="translate(327.251423 209.993118)scale(0.1 -0.1)">
       <use xlink:href="#DejaVuSans-32"/>
      </g>
     </g>
    </g>
    <g id="xtick_5">
     <g id="line2d_5">
      <g>
       <use style="stroke:#000000;stroke-width:0.8;" x="412.465573" xlink:href="#m4a4ae122aa" y="195.394681"/>
      </g>
     </g>
     <g id="text_4">
      <!-- 4 -->
      <g transform="translate(409.284323 209.993118)scale(0.1 -0.1)">
       <use xlink:href="#DejaVuSans-34"/>
      </g>
     </g>
    </g>
    <g id="xtick_6">
     <g id="line2d_6">
      <defs>
       <path d="M 0 0 
L 0 2 
" id="mf291a4d1ac" style="stroke:#000000;stroke-width:0.6;"/>
      </defs>
      <g>
       <use style="stroke:#000000;stroke-width:0.6;" x="43.317525" xlink:href="#mf291a4d1ac" y="195.394681"/>
      </g>
     </g>
    </g>
    <g id="xtick_7">
     <g id="line2d_7">
      <g>
       <use style="stroke:#000000;stroke-width:0.6;" x="63.82575" xlink:href="#mf291a4d1ac" y="195.394681"/>
      </g>
     </g>
    </g>
    <g id="xtick_8">
     <g id="line2d_8">
      <g>
       <use style="stroke:#000000;stroke-width:0.6;" x="104.842199" xlink:href="#mf291a4d1ac" y="195.394681"/>
      </g>
     </g>
    </g>
    <g id="xtick_9">
     <g id="line2d_9">
      <g>
       <use style="stroke:#000000;stroke-width:0.6;" x="125.350424" xlink:href="#mf291a4d1ac" y="195.394681"/>
      </g>
     </g>
    </g>
    <g id="xtick_10">
     <g id="line2d_10">
      <g>
       <use style="stroke:#000000;stroke-width:0.6;" x="145.858649" xlink:href="#mf291a4d1ac" y="195.394681"/>
      </g>
     </g>
    </g>
    <g id="xtick_11">
     <g id="line2d_11">
      <g>
       <use style="stroke:#000000;stroke-width:0.6;" x="186.875099" xlink:href="#mf291a4d1ac" y="195.394681"/>
      </g>
     </g>
    </g>
    <g id="xtick_12">
     <g id="line2d_12">
      <g>
       <use style="stroke:#000000;stroke-width:0.6;" x="207.383324" xlink:href="#mf291a4d1ac" y="195.394681"/>
      </g>
     </g>
    </g>
    <g id="xtick_13">
     <g id="line2d_13">
      <g>
       <use style="stroke:#000000;stroke-width:0.6;" x="227.891549" xlink:href="#mf291a4d1ac" y="195.394681"/>
      </g>
     </g>
    </g>
    <g id="xtick_14">
     <g id="line2d_14">
      <g>
       <use style="stroke:#000000;stroke-width:0.6;" x="268.907999" xlink:href="#mf291a4d1ac" y="195.394681"/>
      </g>
     </g>
    </g>
    <g id="xtick_15">
     <g id="line2d_15">
      <g>
       <use style="stroke:#000000;stroke-width:0.6;" x="289.416223" xlink:href="#mf291a4d1ac" y="195.394681"/>
      </g>
     </g>
    </g>
    <g id="xtick_16">
     <g id="line2d_16">
      <g>
       <use style="stroke:#000000;stroke-width:0.6;" x="309.924448" xlink:href="#mf291a4d1ac" y="195.394681"/>
      </g>
     </g>
    </g>
    <g id="xtick_17">
     <g id="line2d_17">
      <g>
       <use style="stroke:#000000;stroke-width:0.6;" x="350.940898" xlink:href="#mf291a4d1ac" y="195.394681"/>
      </g>
     </g>
    </g>
    <g id="xtick_18">
     <g id="line2d_18">
      <g>
       <use style="stroke:#000000;stroke-width:0.6;" x="371.449123" xlink:href="#mf291a4d1ac" y="195.394681"/>
      </g>
     </g>
    </g>
    <g id="xtick_19">
     <g id="line2d_19">
      <g>
       <use style="stroke:#000000;stroke-width:0.6;" x="391.957348" xlink:href="#mf291a4d1ac" y="195.394681"/>
      </g>
     </g>
    </g>
   </g>
   <g id="matplotlib.axis_2">
    <g id="ytick_1">
     <g id="line2d_20">
      <defs>
       <path d="M 0 0 
L -3.5 0 
" id="m0b1aa8ebc9" style="stroke:#000000;stroke-width:0.8;"/>
      </defs>
      <g>
       <use style="stroke:#000000;stroke-width:0.8;" x="248.399774" xlink:href="#m0b1aa8ebc9" y="318.44403"/>
      </g>
     </g>
     <g id="text_5">
      <!-- -3 -->
      <defs>
       <path d="M 40.578125 39.3125 
Q 47.65625 37.796875 51.625 33 
Q 55.609375 28.21875 55.609375 21.1875 
Q 55.609375 10.40625 48.1875 4.484375 
Q 40.765625 -1.421875 27.09375 -1.421875 
Q 22.515625 -1.421875 17.65625 -0.515625 
Q 12.796875 0.390625 7.625 2.203125 
L 7.625 11.71875 
Q 11.71875 9.328125 16.59375 8.109375 
Q 21.484375 6.890625 26.8125 6.890625 
Q 36.078125 6.890625 40.9375 10.546875 
Q 45.796875 14.203125 45.796875 21.1875 
Q 45.796875 27.640625 41.28125 31.265625 
Q 36.765625 34.90625 28.71875 34.90625 
L 20.21875 34.90625 
L 20.21875 43.015625 
L 29.109375 43.015625 
Q 36.375 43.015625 40.234375 45.921875 
Q 44.09375 48.828125 44.09375 54.296875 
Q 44.09375 59.90625 40.109375 62.90625 
Q 36.140625 65.921875 28.71875 65.921875 
Q 24.65625 65.921875 20.015625 65.03125 
Q 15.375 64.15625 9.8125 62.3125 
L 9.8125 71.09375 
Q 15.4375 72.65625 20.34375 73.4375 
Q 25.25 74.21875 29.59375 74.21875 
Q 40.828125 74.21875 47.359375 69.109375 
Q 53.90625 64.015625 53.90625 55.328125 
Q 53.90625 49.265625 50.4375 45.09375 
Q 46.96875 40.921875 40.578125 39.3125 
z
" id="DejaVuSans-33"/>
      </defs>
      <g transform="translate(231.429461 322.243249)scale(0.1 -0.1)">
       <use xlink:href="#DejaVuSans-2d"/>
       <use x="36.083984" xlink:href="#DejaVuSans-33"/>
      </g>
     </g>
    </g>
    <g id="ytick_2">
     <g id="line2d_21">
      <g>
       <use style="stroke:#000000;stroke-width:0.8;" x="248.399774" xlink:href="#m0b1aa8ebc9" y="277.42758"/>
      </g>
     </g>
     <g id="text_6">
      <!-- -2 -->
      <g transform="translate(231.429461 281.226799)scale(0.1 -0.1)">
       <use xlink:href="#DejaVuSans-2d"/>
       <use x="36.083984" xlink:href="#DejaVuSans-32"/>
      </g>
     </g>
    </g>
    <g id="ytick_3">
     <g id="line2d_22">
      <g>
       <use style="stroke:#000000;stroke-width:0.8;" x="248.399774" xlink:href="#m0b1aa8ebc9" y="236.41113"/>
      </g>
     </g>
     <g id="text_7">
      <!-- -1 -->
      <defs>
       <path d="M 12.40625 8.296875 
L 28.515625 8.296875 
L 28.515625 63.921875 
L 10.984375 60.40625 
L 10.984375 69.390625 
L 28.421875 72.90625 
L 38.28125 72.90625 
L 38.28125 8.296875 
L 54.390625 8.296875 
L 54.390625 0 
L 12.40625 0 
z
" id="DejaVuSans-31"/>
      </defs>
      <g transform="translate(231.429461 240.210349)scale(0.1 -0.1)">
       <use xlink:href="#DejaVuSans-2d"/>
       <use x="36.083984" xlink:href="#DejaVuSans-31"/>
      </g>
     </g>
    </g>
    <g id="ytick_4">
     <g id="line2d_23">
      <g>
       <use style="stroke:#000000;stroke-width:0.8;" x="248.399774" xlink:href="#m0b1aa8ebc9" y="195.394681"/>
      </g>
     </g>
    </g>
    <g id="ytick_5">
     <g id="line2d_24">
      <g>
       <use style="stroke:#000000;stroke-width:0.8;" x="248.399774" xlink:href="#m0b1aa8ebc9" y="154.378231"/>
      </g>
     </g>
     <g id="text_8">
      <!-- 1 -->
      <g transform="translate(235.037274 158.177449)scale(0.1 -0.1)">
       <use xlink:href="#DejaVuSans-31"/>
      </g>
     </g>
    </g>
    <g id="ytick_6">
     <g id="line2d_25">
      <g>
       <use style="stroke:#000000;stroke-width:0.8;" x="248.399774" xlink:href="#m0b1aa8ebc9" y="113.361781"/>
      </g>
     </g>
     <g id="text_9">
      <!-- 2 -->
      <g transform="translate(235.037274 117.161)scale(0.1 -0.1)">
       <use xlink:href="#DejaVuSans-32"/>
      </g>
     </g>
    </g>
    <g id="ytick_7">
     <g id="line2d_26">
      <g>
       <use style="stroke:#000000;stroke-width:0.8;" x="248.399774" xlink:href="#m0b1aa8ebc9" y="72.345331"/>
      </g>
     </g>
     <g id="text_10">
      <!-- 3 -->
      <g transform="translate(235.037274 76.14455)scale(0.1 -0.1)">
       <use xlink:href="#DejaVuSans-33"/>
      </g>
     </g>
    </g>
    <g id="ytick_8">
     <g id="line2d_27">
      <g>
       <use style="stroke:#000000;stroke-width:0.8;" x="248.399774" xlink:href="#m0b1aa8ebc9" y="31.328881"/>
      </g>
     </g>
     <g id="text_11">
      <!-- 4 -->
      <g transform="translate(235.037274 35.1281)scale(0.1 -0.1)">
       <use xlink:href="#DejaVuSans-34"/>
      </g>
     </g>
    </g>
    <g id="ytick_9">
     <g id="line2d_28">
      <defs>
       <path d="M 0 0 
L -2 0 
" id="m2043a51bcd" style="stroke:#000000;stroke-width:0.6;"/>
      </defs>
      <g>
       <use style="stroke:#000000;stroke-width:0.6;" x="248.399774" xlink:href="#m2043a51bcd" y="343.0539"/>
      </g>
     </g>
    </g>
    <g id="ytick_10">
     <g id="line2d_29">
      <g>
       <use style="stroke:#000000;stroke-width:0.6;" x="248.399774" xlink:href="#m2043a51bcd" y="334.85061"/>
      </g>
     </g>
    </g>
    <g id="ytick_11">
     <g id="line2d_30">
      <g>
       <use style="stroke:#000000;stroke-width:0.6;" x="248.399774" xlink:href="#m2043a51bcd" y="326.64732"/>
      </g>
     </g>
    </g>
    <g id="ytick_12">
     <g id="line2d_31">
      <g>
       <use style="stroke:#000000;stroke-width:0.6;" x="248.399774" xlink:href="#m2043a51bcd" y="310.24074"/>
      </g>
     </g>
    </g>
    <g id="ytick_13">
     <g id="line2d_32">
      <g>
       <use style="stroke:#000000;stroke-width:0.6;" x="248.399774" xlink:href="#m2043a51bcd" y="302.03745"/>
      </g>
     </g>
    </g>
    <g id="ytick_14">
     <g id="line2d_33">
      <g>
       <use style="stroke:#000000;stroke-width:0.6;" x="248.399774" xlink:href="#m2043a51bcd" y="293.83416"/>
      </g>
     </g>
    </g>
    <g id="ytick_15">
     <g id="line2d_34">
      <g>
       <use style="stroke:#000000;stroke-width:0.6;" x="248.399774" xlink:href="#m2043a51bcd" y="285.63087"/>
      </g>
     </g>
    </g>
    <g id="ytick_16">
     <g id="line2d_35">
      <g>
       <use style="stroke:#000000;stroke-width:0.6;" x="248.399774" xlink:href="#m2043a51bcd" y="269.22429"/>
      </g>
     </g>
    </g>
    <g id="ytick_17">
     <g id="line2d_36">
      <g>
       <use style="stroke:#000000;stroke-width:0.6;" x="248.399774" xlink:href="#m2043a51bcd" y="261.021"/>
      </g>
     </g>
    </g>
    <g id="ytick_18">
     <g id="line2d_37">
      <g>
       <use style="stroke:#000000;stroke-width:0.6;" x="248.399774" xlink:href="#m2043a51bcd" y="252.81771"/>
      </g>
     </g>
    </g>
    <g id="ytick_19">
     <g id="line2d_38">
      <g>
       <use style="stroke:#000000;stroke-width:0.6;" x="248.399774" xlink:href="#m2043a51bcd" y="244.61442"/>
      </g>
     </g>
    </g>
    <g id="ytick_20">
     <g id="line2d_39">
      <g>
       <use style="stroke:#000000;stroke-width:0.6;" x="248.399774" xlink:href="#m2043a51bcd" y="228.20784"/>
      </g>
     </g>
    </g>
    <g id="ytick_21">
     <g id="line2d_40">
      <g>
       <use style="stroke:#000000;stroke-width:0.6;" x="248.399774" xlink:href="#m2043a51bcd" y="220.00455"/>
      </g>
     </g>
    </g>
    <g id="ytick_22">
     <g id="line2d_41">
      <g>
       <use style="stroke:#000000;stroke-width:0.6;" x="248.399774" xlink:href="#m2043a51bcd" y="211.80126"/>
      </g>
     </g>
    </g>
    <g id="ytick_23">
     <g id="line2d_42">
      <g>
       <use style="stroke:#000000;stroke-width:0.6;" x="248.399774" xlink:href="#m2043a51bcd" y="203.59797"/>
      </g>
     </g>
    </g>
    <g id="ytick_24">
     <g id="line2d_43">
      <g>
       <use style="stroke:#000000;stroke-width:0.6;" x="248.399774" xlink:href="#m2043a51bcd" y="187.191391"/>
      </g>
     </g>
    </g>
    <g id="ytick_25">
     <g id="line2d_44">
      <g>
       <use style="stroke:#000000;stroke-width:0.6;" x="248.399774" xlink:href="#m2043a51bcd" y="178.988101"/>
      </g>
     </g>
    </g>
    <g id="ytick_26">
     <g id="line2d_45">
      <g>
       <use style="stroke:#000000;stroke-width:0.6;" x="248.399774" xlink:href="#m2043a51bcd" y="170.784811"/>
      </g>
     </g>
    </g>
    <g id="ytick_27">
     <g id="line2d_46">
      <g>
       <use style="stroke:#000000;stroke-width:0.6;" x="248.399774" xlink:href="#m2043a51bcd" y="162.581521"/>
      </g>
     </g>
    </g>
    <g id="ytick_28">
     <g id="line2d_47">
      <g>
       <use style="stroke:#000000;stroke-width:0.6;" x="248.399774" xlink:href="#m2043a51bcd" y="146.174941"/>
      </g>
     </g>
    </g>
    <g id="ytick_29">
     <g id="line2d_48">
      <g>
       <use style="stroke:#000000;stroke-width:0.6;" x="248.399774" xlink:href="#m2043a51bcd" y="137.971651"/>
      </g>
     </g>
    </g>
    <g id="ytick_30">
     <g id="line2d_49">
      <g>
       <use style="stroke:#000000;stroke-width:0.6;" x="248.399774" xlink:href="#m2043a51bcd" y="129.768361"/>
      </g>
     </g>
    </g>
    <g id="ytick_31">
     <g id="line2d_50">
      <g>
       <use style="stroke:#000000;stroke-width:0.6;" x="248.399774" xlink:href="#m2043a51bcd" y="121.565071"/>
      </g>
     </g>
    </g>
    <g id="ytick_32">
     <g id="line2d_51">
      <g>
       <use style="stroke:#000000;stroke-width:0.6;" x="248.399774" xlink:href="#m2043a51bcd" y="105.158491"/>
      </g>
     </g>
    </g>
    <g id="ytick_33">
     <g id="line2d_52">
      <g>
       <use style="stroke:#000000;stroke-width:0.6;" x="248.399774" xlink:href="#m2043a51bcd" y="96.955201"/>
      </g>
     </g>
    </g>
    <g id="ytick_34">
     <g id="line2d_53">
      <g>
       <use style="stroke:#000000;stroke-width:0.6;" x="248.399774" xlink:href="#m2043a51bcd" y="88.751911"/>
      </g>
     </g>
    </g>
    <g id="ytick_35">
     <g id="line2d_54">
      <g>
       <use style="stroke:#000000;stroke-width:0.6;" x="248.399774" xlink:href="#m2043a51bcd" y="80.548621"/>
      </g>
     </g>
    </g>
    <g id="ytick_36">
     <g id="line2d_55">
      <g>
       <use style="stroke:#000000;stroke-width:0.6;" x="248.399774" xlink:href="#m2043a51bcd" y="64.142041"/>
      </g>
     </g>
    </g>
    <g id="ytick_37">
     <g id="line2d_56">
      <g>
       <use style="stroke:#000000;stroke-width:0.6;" x="248.399774" xlink:href="#m2043a51bcd" y="55.938751"/>
      </g>
     </g>
    </g>
    <g id="ytick_38">
     <g id="line2d_57">
      <g>
       <use style="stroke:#000000;stroke-width:0.6;" x="248.399774" xlink:href="#m2043a51bcd" y="47.735461"/>
      </g>
     </g>
    </g>
    <g id="ytick_39">
     <g id="line2d_58">
      <g>
       <use style="stroke:#000000;stroke-width:0.6;" x="248.399774" xlink:href="#m2043a51bcd" y="39.532171"/>
      </g>
     </g>
    </g>
    <g id="ytick_40">
     <g id="line2d_59">
      <g>
       <use style="stroke:#000000;stroke-width:0.6;" x="248.399774" xlink:href="#m2043a51bcd" y="23.125591"/>
      </g>
     </g>
    </g>
    <g id="ytick_41">
     <g id="line2d_60">
      <g>
       <use style="stroke:#000000;stroke-width:0.6;" x="248.399774" xlink:href="#m2043a51bcd" y="14.922301"/>
      </g>
     </g>
    </g>
    <g id="ytick_42">
     <g id="line2d_61">
      <g>
       <use style="stroke:#000000;stroke-width:0.6;" x="248.399774" xlink:href="#m2043a51bcd" y="6.719012"/>
      </g>
     </g>
    </g>
   </g>
   <g id="line2d_62">
    <path clip-path="url(#pbe8c06b2f9)" d="M 248.399774 195.394681 
L 249.259386 193.947559 
L 250.292928 191.800087 
L 251.349503 188.562738 
L 251.681958 186.82958 
L 251.87198 183.323562 
L 251.74441 181.741122 
L 251.444968 180.001007 
L 250.860183 177.935086 
L 250.065465 175.999765 
L 248.551606 173.385051 
L 247.13643 171.568828 
L 245.730303 170.117288 
L 244.618284 169.147897 
L 242.789915 167.81523 
L 240.859286 166.68718 
L 237.864302 165.381448 
L 236.011541 164.798177 
L 233.072678 164.173676 
L 229.817252 163.866335 
L 226.451282 163.936949 
L 222.667909 164.464411 
L 219.977375 165.125128 
L 218.303932 165.657848 
L 215.071686 166.961559 
L 211.562926 168.815748 
L 209.602065 170.071329 
L 207.550843 171.572845 
L 205.762146 173.056915 
L 202.558049 176.194315 
L 200.427911 178.698053 
L 197.822142 182.371155 
L 196.639736 184.332775 
L 195.384986 186.688831 
L 194.055094 189.606225 
L 192.783398 193.010437 
L 191.820311 196.274463 
L 191.059183 199.69126 
L 190.409787 204.252853 
L 190.152035 209.36289 
L 190.169467 210.942502 
L 190.451054 215.297723 
L 190.717247 217.456336 
L 191.219883 220.418781 
L 192.328904 225.048528 
L 192.745022 226.452404 
L 193.717896 229.329924 
L 195.447694 233.547845 
L 196.483781 235.71302 
L 199.222412 240.597505 
L 200.895815 243.151246 
L 204.259835 247.596163 
L 205.902768 249.504975 
L 208.246245 251.989499 
L 211.542131 255.086779 
L 214.817078 257.781922 
L 218.312463 260.304789 
L 220.660197 261.819752 
L 224.8935 264.228927 
L 229.875627 266.591409 
L 232.338833 267.588708 
L 239.597172 269.933557 
L 243.626159 270.879989 
L 246.667827 271.436727 
L 249.549882 271.843095 
L 255.135744 272.304557 
L 259.932053 272.365092 
L 264.593758 272.130501 
L 268.690653 271.685487 
L 274.402391 270.687394 
L 278.592488 269.668676 
L 281.503986 268.813359 
L 286.253101 267.148115 
L 291.400752 264.943467 
L 293.843356 263.742311 
L 300.827855 259.702438 
L 306.573355 255.618545 
L 310.547918 252.319624 
L 314.813321 248.266387 
L 316.528588 246.462943 
L 320.624686 241.674352 
L 322.830651 238.761779 
L 325.113382 235.444127 
L 327.859473 230.943003 
L 329.303342 228.294698 
L 332.742394 220.871616 
L 333.72004 218.356596 
L 334.908253 214.93569 
L 336.346746 210.007996 
L 337.770301 203.549457 
L 338.307704 200.224844 
L 339.017756 193.273813 
L 339.191681 187.445312 
L 339.013902 182.04004 
L 338.612713 177.50215 
L 337.789878 171.860229 
L 336.773716 166.942207 
L 336.11738 164.328026 
L 334.740172 159.664953 
L 332.59527 153.747538 
L 330.423742 148.766255 
L 329.02129 145.917003 
L 326.864077 141.954954 
L 324.993175 138.848257 
L 322.814418 135.540336 
L 320.118218 131.825232 
L 318.252965 129.461121 
L 313.030292 123.56987 
L 308.569355 119.230582 
L 305.250575 116.342305 
L 302.743195 114.328896 
L 298.753855 111.39426 
L 295.910973 109.486866 
L 292.441043 107.348341 
L 287.382394 104.57321 
L 282.74198 102.354935 
L 275.259709 99.377739 
L 270.356891 97.797955 
L 266.758545 96.81431 
L 261.549525 95.643105 
L 256.826451 94.83093 
L 251.679158 94.208363 
L 246.962322 93.873311 
L 241.325444 93.764094 
L 235.436738 93.986567 
L 229.661952 94.539728 
L 226.126352 95.043834 
L 221.67437 95.86024 
L 215.985173 97.205107 
L 210.655245 98.782686 
L 202.414375 101.861464 
L 195.697516 104.990765 
L 191.054208 107.510375 
L 183.797072 112.098321 
L 181.955982 113.400661 
L 174.868463 119.010413 
L 170.504986 122.999777 
L 165.384737 128.309755 
L 162.355352 131.831078 
L 157.924884 137.60715 
L 154.681455 142.420866 
L 151.860674 147.125549 
L 148.136424 154.337758 
L 146.301136 158.470812 
L 144.824802 162.184352 
L 143.061869 167.246803 
L 141.494429 172.605089 
L 140.036036 178.852009 
L 139.062263 184.389122 
L 138.466601 189.063168 
L 137.983056 195.394681 
L 137.983056 195.394681 
" style="fill:none;stroke:#0000cc;stroke-linecap:square;"/>
   </g>
   <g id="line2d_63">
    <path clip-path="url(#pbe8c06b2f9)" d="M 248.399774 195.394681 
L 249.61776 193.305291 
L 250.31015 191.887531 
L 250.986871 190.23967 
L 251.84321 187.415308 
L 252.182733 185.704561 
L 252.412702 183.698706 
L 252.465296 181.905704 
L 252.271202 179.228206 
L 251.9313 177.340685 
L 251.239056 174.93578 
L 250.105183 172.284231 
L 248.081722 169.026119 
L 245.664919 166.267276 
L 244.381681 165.099924 
L 241.545017 163.019469 
L 238.707531 161.45732 
L 235.818044 160.277059 
L 232.286304 159.295006 
L 229.512836 158.831386 
L 226.81247 158.615091 
L 224.969647 158.593198 
L 220.206577 158.988318 
L 218.767469 159.233334 
L 214.954954 160.164166 
L 212.739772 160.896221 
L 209.280522 162.332689 
L 207.085892 163.439616 
L 204.227729 165.127238 
L 202.548901 166.258733 
L 200.434048 167.846081 
L 197.41832 170.46046 
L 194.375288 173.59457 
L 191.427109 177.234247 
L 189.163224 180.563679 
L 187.865501 182.74985 
L 186.218736 185.914389 
L 184.409638 190.110917 
L 182.615152 195.578387 
L 181.204476 202.133456 
L 180.649281 206.795779 
L 180.465507 210.235681 
L 180.47431 213.885936 
L 180.620885 216.680662 
L 181.343069 222.680918 
L 181.968037 225.931638 
L 183.146158 230.555526 
L 183.951782 233.125495 
L 185.996337 238.489074 
L 188.736853 244.17471 
L 190.923068 247.964817 
L 194.236271 252.876933 
L 197.496392 257.004475 
L 201.444544 261.311605 
L 203.746605 263.542751 
L 208.050856 267.260245 
L 211.976576 270.212224 
L 217.095581 273.532354 
L 222.416308 276.437191 
L 225.023388 277.679421 
L 227.949068 278.942667 
L 234.634404 281.347858 
L 238.15199 282.362514 
L 241.006782 283.066018 
L 248.66818 284.447885 
L 252.675489 284.888308 
L 259.214516 285.204839 
L 263.99416 285.125988 
L 268.033932 284.856415 
L 273.732993 284.158812 
L 278.350286 283.317808 
L 281.514545 282.596033 
L 284.63614 281.765491 
L 289.977497 280.062904 
L 294.040884 278.519956 
L 302.599366 274.516326 
L 308.378948 271.176215 
L 314.702334 266.849021 
L 316.481707 265.489831 
L 321.729645 261.069983 
L 326.156363 256.797507 
L 328.185416 254.645583 
L 332.107466 250.081366 
L 334.102235 247.524206 
L 336.873605 243.656406 
L 340.615816 237.714777 
L 344.178913 231.011161 
L 345.258934 228.704106 
L 346.942652 224.76394 
L 348.438497 220.809397 
L 349.925287 216.28073 
L 350.911498 212.798514 
L 352.02083 208.163687 
L 352.835732 203.942733 
L 353.581897 198.822473 
L 354.019945 194.368963 
L 354.290931 189.040292 
L 354.253473 182.565697 
L 353.461808 172.98338 
L 352.959538 169.531847 
L 352.074587 164.770705 
L 350.652391 158.835088 
L 347.969031 150.322883 
L 345.953442 145.165688 
L 344.544527 141.96241 
L 342.999706 138.739557 
L 340.196609 133.49359 
L 337.417464 128.884649 
L 334.914323 125.127933 
L 332.553421 121.866551 
L 328.736273 117.073996 
L 326.090514 114.047716 
L 323.477631 111.263673 
L 317.667309 105.698179 
L 314.804803 103.232685 
L 310.17792 99.582389 
L 307.071709 97.342323 
L 301.266062 93.561934 
L 297.378441 91.300795 
L 290.915358 87.976115 
L 284.515941 85.173981 
L 278.827598 83.059963 
L 274.216858 81.590903 
L 268.173517 79.980475 
L 264.130126 79.095086 
L 254.700156 77.605045 
L 249.230747 77.098932 
L 241.686372 76.822498 
L 237.76537 76.870207 
L 234.134523 77.030854 
L 224.76729 77.965085 
L 214.515022 79.862334 
L 205.588837 82.289211 
L 201.628084 83.608396 
L 195.624226 85.906891 
L 186.883075 89.93913 
L 184.093473 91.409348 
L 179.636472 93.956513 
L 174.703333 97.079135 
L 168.001305 101.884892 
L 163.853966 105.222023 
L 158.393046 110.100275 
L 155.962413 112.469821 
L 152.306704 116.29383 
L 149.042676 120.004212 
L 144.778932 125.342557 
L 139.728264 132.553588 
L 135.487954 139.583819 
L 134.077892 142.176739 
L 131.108193 148.176962 
L 129.765061 151.186328 
L 127.834762 155.931851 
L 126.02418 160.974195 
L 123.344842 170.087703 
L 122.688533 172.799954 
L 121.691744 177.53807 
L 120.35308 186.160768 
L 119.580269 195.394681 
L 119.580269 195.394681 
" style="fill:none;stroke:#3ccc00;stroke-linecap:square;"/>
   </g>
   <g id="line2d_64">
    <path clip-path="url(#pbe8c06b2f9)" d="M 248.399774 195.394681 
L 249.415607 193.700952 
L 250.926533 190.595769 
L 252.166488 186.947416 
L 252.668058 184.651646 
L 252.986519 182.020054 
L 253.02033 179.086317 
L 252.912926 177.660942 
L 252.66341 175.888914 
L 252.29076 174.155865 
L 251.184613 170.805434 
L 249.994746 168.310601 
L 247.812041 164.962783 
L 245.619171 162.449319 
L 244.109791 161.03168 
L 242.072777 159.414173 
L 239.688185 157.859945 
L 236.200167 156.102331 
L 233.305589 155.021874 
L 228.907281 153.925102 
L 226.825344 153.609357 
L 222.752021 153.335086 
L 219.560421 153.42039 
L 216.246681 153.777303 
L 212.107111 154.602021 
L 208.598411 155.633748 
L 206.424584 156.430398 
L 203.523699 157.688873 
L 201.544602 158.681511 
L 198.594505 160.376108 
L 195.86086 162.194266 
L 191.676399 165.499886 
L 188.32928 168.679399 
L 185.016705 172.40901 
L 182.62866 175.552119 
L 180.208752 179.244694 
L 178.818827 181.663911 
L 177.468027 184.286183 
L 176.386832 186.630044 
L 175.240483 189.428341 
L 173.172058 195.770388 
L 172.528335 198.33407 
L 171.55505 203.418336 
L 170.973269 208.392099 
L 170.749361 212.850466 
L 170.803737 217.423559 
L 171.182766 222.380658 
L 171.977618 227.801095 
L 173.516549 234.496982 
L 174.779674 238.619122 
L 176.272498 242.687353 
L 178.788461 248.366331 
L 180.421251 251.527323 
L 182.100618 254.46881 
L 184.84413 258.754182 
L 188.120844 263.226543 
L 192.855074 268.767111 
L 194.718998 270.710462 
L 198.420874 274.241709 
L 202.695231 277.85242 
L 206.571733 280.758077 
L 211.243137 283.855999 
L 214.280694 285.65882 
L 219.882829 288.591681 
L 225.327594 291.000213 
L 228.927209 292.373313 
L 234.686026 294.232756 
L 238.781264 295.316161 
L 241.901144 296.014226 
L 245.571852 296.699 
L 250.288987 297.368245 
L 256.786352 297.912801 
L 260.9227 298.036487 
L 268.166256 297.840898 
L 271.171055 297.606292 
L 278.333726 296.68213 
L 285.610806 295.207994 
L 290.518812 293.90011 
L 296.244863 292.042117 
L 301.911087 289.834602 
L 304.819314 288.551839 
L 313.215813 284.235588 
L 317.543206 281.62625 
L 322.747088 278.102523 
L 326.989253 274.88597 
L 330.048714 272.353788 
L 332.553587 270.135537 
L 335.934564 266.914124 
L 339.064813 263.673109 
L 342.912783 259.298754 
L 345.954717 255.486525 
L 349.831259 250.080356 
L 352.602472 245.754962 
L 354.316732 242.843977 
L 358.497511 234.762743 
L 360.606585 229.973534 
L 364.110796 220.298717 
L 365.316985 216.175505 
L 367.443631 206.90233 
L 368.328519 201.468436 
L 369.048323 194.976822 
L 369.284343 191.525103 
L 369.444562 183.464324 
L 368.996651 174.64329 
L 368.139271 167.395442 
L 366.909001 160.509353 
L 365.76149 155.531497 
L 364.096551 149.580164 
L 362.702969 145.321868 
L 360.549323 139.589373 
L 358.514792 134.844695 
L 356.463208 130.544478 
L 353.80364 125.524102 
L 349.481364 118.369058 
L 347.08834 114.824606 
L 342.914509 109.203211 
L 340.695581 106.461499 
L 337.898793 103.215919 
L 334.513172 99.565368 
L 328.361304 93.602093 
L 323.900203 89.742504 
L 319.045437 85.92637 
L 315.398072 83.296364 
L 309.607985 79.498696 
L 304.621408 76.567236 
L 301.348771 74.801068 
L 295.673714 72.015087 
L 292.365794 70.544612 
L 285.636157 67.881184 
L 279.744032 65.891552 
L 270.421259 63.356897 
L 265.856404 62.377572 
L 260.696543 61.470405 
L 252.206113 60.427156 
L 248.537133 60.146039 
L 243.343972 59.920839 
L 237.685264 59.904362 
L 232.777554 60.082823 
L 224.500368 60.790615 
L 221.577579 61.163463 
L 212.882464 62.658088 
L 205.886346 64.28893 
L 200.72222 65.745758 
L 193.144306 68.288321 
L 185.718198 71.271004 
L 180.740384 73.558941 
L 175.596056 76.182054 
L 171.908046 78.233453 
L 165.972927 81.854808 
L 159.600583 86.219748 
L 153.228935 91.134811 
L 150.209536 93.677469 
L 146.750768 96.775951 
L 139.547253 103.947217 
L 137.235893 106.481507 
L 132.977801 111.495818 
L 130.779938 114.2799 
L 126.326014 120.400116 
L 124.077351 123.771433 
L 119.2681 131.771301 
L 116.937185 136.127476 
L 114.703159 140.678004 
L 111.512496 148.001428 
L 109.062703 154.532139 
L 107.345345 159.793547 
L 105.912873 164.806885 
L 104.178923 172.063289 
L 102.947961 178.607992 
L 101.813015 187.039996 
L 101.177483 195.394681 
L 101.177483 195.394681 
" style="fill:none;stroke:#cc0077;stroke-linecap:square;"/>
   </g>
   <g id="line2d_65">
    <path clip-path="url(#pbe8c06b2f9)" d="M 248.399774 195.394681 
L 249.512131 193.543666 
L 250.719595 191.183449 
L 251.906542 188.266508 
L 252.748595 185.458092 
L 253.188731 183.382645 
L 253.516875 180.893413 
L 253.625452 177.942621 
L 253.435897 175.073237 
L 253.137441 173.130208 
L 252.538702 170.619115 
L 251.811683 168.437613 
L 250.954452 166.420611 
L 249.946402 164.480908 
L 248.054153 161.577478 
L 245.573203 158.640842 
L 243.19326 156.410125 
L 240.948294 154.678628 
L 239.291455 153.584833 
L 236.507222 152.037411 
L 234.220439 150.999647 
L 232.345999 150.286157 
L 228.171237 149.088514 
L 223.545808 148.319117 
L 220.819375 148.113818 
L 218.00403 148.083401 
L 213.494578 148.40455 
L 209.649762 149.030171 
L 204.406991 150.405391 
L 198.774947 152.577204 
L 194.443645 154.772112 
L 191.124749 156.792458 
L 188.053806 158.950842 
L 184.657956 161.700257 
L 181.065264 165.088837 
L 178.748996 167.581436 
L 174.662825 172.713707 
L 171.408962 177.686101 
L 168.71313 182.669081 
L 166.860283 186.766032 
L 164.898549 192.050301 
L 163.731579 195.954004 
L 162.434585 201.597887 
L 161.884106 204.856246 
L 161.476181 208.080219 
L 161.071322 213.945191 
L 161.049283 218.507689 
L 161.213081 222.160146 
L 161.544074 225.875308 
L 162.807537 233.809864 
L 164.04656 238.985162 
L 165.626092 244.167192 
L 167.869403 250.099841 
L 170.564612 255.949331 
L 172.358642 259.333615 
L 174.104457 262.336603 
L 175.864822 265.128149 
L 180.30014 271.339039 
L 182.046552 273.523291 
L 184.374923 276.246665 
L 188.842899 280.958111 
L 190.703811 282.747861 
L 196.529196 287.798557 
L 202.851267 292.476668 
L 205.598382 294.285766 
L 208.952617 296.329762 
L 213.159128 298.655871 
L 220.102697 301.97008 
L 225.250885 304.04179 
L 228.812803 305.296957 
L 234.369174 306.980182 
L 242.269229 308.828638 
L 245.545202 309.416048 
L 252.671932 310.345333 
L 260.792095 310.838397 
L 265.102535 310.860254 
L 270.300886 310.667386 
L 278.062579 309.93344 
L 283.613476 309.078287 
L 288.343867 308.128632 
L 296.694095 305.942651 
L 299.489572 305.061022 
L 303.583426 303.629393 
L 307.476686 302.108245 
L 313.403328 299.480091 
L 319.616915 296.294283 
L 322.291963 294.778107 
L 326.013108 292.514948 
L 334.203537 286.846425 
L 340.681303 281.605762 
L 344.747614 277.920197 
L 350.00879 272.625671 
L 351.872121 270.589887 
L 356.056298 265.666034 
L 358.532423 262.492892 
L 362.317561 257.201363 
L 366.102958 251.263581 
L 368.123985 247.767029 
L 370.772693 242.755367 
L 373.409984 237.154713 
L 374.849462 233.76771 
L 377.704355 226.093021 
L 379.593193 219.991403 
L 380.495692 216.633082 
L 382.615924 206.724473 
L 383.515642 200.756575 
L 384.314189 192.411711 
L 384.571107 185.981878 
L 384.557987 180.993581 
L 384.416923 177.05409 
L 383.932262 170.559306 
L 383.56618 167.267039 
L 381.782544 156.437428 
L 378.825962 144.734051 
L 374.815577 133.23027 
L 372.357519 127.448944 
L 369.930224 122.356585 
L 366.819983 116.506525 
L 361.733578 108.155393 
L 358.816003 103.891322 
L 355.686832 99.661206 
L 353.348964 96.702574 
L 347.573437 90.023655 
L 342.314355 84.603642 
L 338.415087 80.93115 
L 335.478597 78.338886 
L 326.811124 71.453841 
L 321.643052 67.831919 
L 311.545292 61.6559 
L 307.575635 59.523363 
L 303.927392 57.699098 
L 296.229518 54.251311 
L 287.152802 50.838894 
L 279.256633 48.405443 
L 274.409297 47.145593 
L 268.053585 45.753397 
L 263.197091 44.882979 
L 255.445539 43.831992 
L 244.577014 43.042842 
L 237.120181 42.956019 
L 226.914565 43.433021 
L 217.950786 44.422799 
L 208.533922 46.047318 
L 202.417121 47.431301 
L 196.783957 48.941431 
L 191.030902 50.723746 
L 184.022794 53.234842 
L 175.179203 56.964684 
L 170.93729 58.988631 
L 165.353091 61.899538 
L 160.254454 64.815782 
L 150.000974 71.496395 
L 141.165486 78.239255 
L 136.240716 82.452835 
L 130.071784 88.258272 
L 123.122768 95.612399 
L 115.747816 104.570539 
L 112.056954 109.602697 
L 108.275903 115.223718 
L 105.220376 120.1756 
L 98.369764 133.037047 
L 94.888125 140.883723 
L 90.78478 151.967159 
L 88.59683 159.167821 
L 87.139034 164.782045 
L 85.104591 174.529848 
L 84.498329 178.194895 
L 83.240087 188.567484 
L 82.774697 195.394681 
L 82.774697 195.394681 
" style="fill:none;stroke:#00b3cc;stroke-linecap:square;"/>
   </g>
   <g id="line2d_66">
    <path clip-path="url(#pbe8c06b2f9)" d="M 248.399774 195.394681 
L 249.579645 193.437682 
L 250.61756 191.469518 
L 251.901267 188.543347 
L 253.027772 185.134084 
L 253.861496 181.177898 
L 254.104583 179.056487 
L 254.205941 176.957274 
L 254.046063 173.274365 
L 253.669926 170.688469 
L 253.033255 167.987574 
L 252.205868 165.482195 
L 251.12116 162.955697 
L 250.065326 160.953457 
L 248.870578 159.032019 
L 246.880596 156.372271 
L 245.533194 154.845843 
L 242.644722 152.103829 
L 239.996735 150.067978 
L 237.78095 148.636367 
L 232.710159 146.093816 
L 230.477195 145.244443 
L 226.221944 144.012202 
L 224.585322 143.661381 
L 220.152178 143.024617 
L 215.730162 142.815601 
L 209.396442 143.21045 
L 204.625848 144.030625 
L 202.178942 144.625026 
L 199.210355 145.506478 
L 192.819516 148.021587 
L 188.617137 150.163921 
L 183.858182 153.106406 
L 180.725882 155.375239 
L 177.85431 157.714986 
L 175.407053 159.927593 
L 171.759305 163.654055 
L 168.241861 167.828089 
L 166.277975 170.461832 
L 163.92859 173.964975 
L 161.452053 178.179052 
L 158.67885 183.771716 
L 156.780722 188.384569 
L 154.287847 196.150558 
L 152.602007 203.836061 
L 151.983347 208.041395 
L 151.422164 214.659914 
L 151.341282 220.968423 
L 151.545281 225.420992 
L 152.269275 232.213353 
L 152.6463 234.623669 
L 153.905224 240.809956 
L 155.539869 246.826422 
L 157.320755 252.10969 
L 159.36014 257.209446 
L 161.642127 262.12957 
L 163.276059 265.282797 
L 166.329898 270.559122 
L 168.190171 273.459296 
L 171.27767 277.857074 
L 174.522547 282.019959 
L 178.261106 286.341762 
L 181.808996 290.051829 
L 187.444861 295.295528 
L 193.157391 299.930826 
L 197.633506 303.156445 
L 204.686888 307.613128 
L 210.734868 310.895956 
L 217.416388 314.008947 
L 222.250537 315.953274 
L 230.761046 318.797976 
L 237.441959 320.548346 
L 247.809548 322.479412 
L 254.942215 323.279431 
L 260.447044 323.611794 
L 266.56139 323.69472 
L 273.664386 323.416104 
L 277.500562 323.098316 
L 285.227119 322.100055 
L 289.291064 321.380877 
L 296.385168 319.798434 
L 299.672759 318.921178 
L 305.356542 317.183362 
L 309.872622 315.59694 
L 315.037574 313.550653 
L 324.756816 308.988388 
L 331.419439 305.280371 
L 338.662882 300.655108 
L 342.558287 297.88708 
L 346.092151 295.19073 
L 352.582682 289.733305 
L 356.594736 285.995205 
L 359.564076 283.027079 
L 366.039046 275.87305 
L 370.786695 269.925315 
L 374.121429 265.31495 
L 377.299385 260.522874 
L 381.420439 253.597371 
L 384.525151 247.70615 
L 386.84581 242.811853 
L 389.718754 235.980008 
L 391.557823 231.003071 
L 393.894584 223.685785 
L 395.10616 219.254508 
L 397.542236 207.906226 
L 398.313989 202.963223 
L 399.540944 189.868323 
L 399.700187 180.113346 
L 399.538042 175.178607 
L 399.217289 170.296734 
L 398.42908 162.923252 
L 397.234204 155.346509 
L 395.366253 146.627792 
L 392.776793 137.339885 
L 390.452066 130.485167 
L 388.790393 126.144414 
L 385.256806 118.000801 
L 382.474418 112.361245 
L 377.525506 103.535406 
L 374.62322 98.915409 
L 370.455779 92.846917 
L 366.079142 87.068179 
L 362.808609 83.085188 
L 359.935722 79.79355 
L 352.460218 72.011607 
L 347.533863 67.417881 
L 339.488236 60.687168 
L 331.153349 54.58635 
L 324.993314 50.576223 
L 322.018518 48.77833 
L 314.258652 44.482456 
L 307.754788 41.29158 
L 300.124544 37.988964 
L 294.640976 35.892325 
L 289.840791 34.238055 
L 285.39776 32.852328 
L 276.970225 30.594198 
L 266.29259 28.401544 
L 263.477581 27.943994 
L 255.031027 26.865393 
L 245.824627 26.183989 
L 238.24378 26.004261 
L 232.434637 26.098062 
L 224.368685 26.561242 
L 219.349229 27.045652 
L 215.225231 27.557074 
L 204.184123 29.436851 
L 197.892746 30.84708 
L 189.317618 33.178228 
L 180.910381 35.938682 
L 174.573962 38.34384 
L 168.474655 40.935017 
L 164.882655 42.592912 
L 154.810382 47.793974 
L 145.543593 53.355582 
L 139.486386 57.434193 
L 129.407701 65.09319 
L 122.914886 70.679135 
L 112.048945 81.391231 
L 102.607163 92.418191 
L 100.507905 95.1377 
L 96.499247 100.653117 
L 93.534073 105.039676 
L 89.102954 112.171043 
L 84.044865 121.36268 
L 79.964511 129.86574 
L 76.913642 137.096348 
L 75.34931 141.18669 
L 72.087613 150.874024 
L 70.904961 154.913558 
L 68.239 165.690481 
L 66.407473 175.511815 
L 65.587382 181.296466 
L 64.683608 190.30792 
L 64.37191 195.394681 
L 64.37191 195.394681 
" style="fill:none;stroke:#ccaa00;stroke-linecap:square;"/>
   </g>
   <g id="line2d_67">
    <path clip-path="url(#pbe8c06b2f9)" d="M 248.399774 195.394681 
L 249.931704 192.821889 
L 251.170205 190.38694 
L 252.857443 186.183313 
L 253.918 182.391296 
L 254.457921 179.404575 
L 254.714073 176.893522 
L 254.789312 174.284935 
L 254.671577 171.716874 
L 254.455171 169.78507 
L 254.064898 167.554738 
L 253.53198 165.372505 
L 252.527788 162.336843 
L 251.644718 160.244589 
L 250.628568 158.219628 
L 248.929931 155.414037 
L 246.42229 152.105728 
L 243.559419 149.103111 
L 242.061523 147.768236 
L 239.995623 146.13712 
L 237.810179 144.635288 
L 234.885807 142.927408 
L 232.35896 141.689885 
L 228.700999 140.235004 
L 225.256773 139.185441 
L 220.090167 138.124237 
L 217.7015 137.824226 
L 214.587178 137.602608 
L 210.42404 137.593496 
L 205.126633 138.039477 
L 201.872418 138.562543 
L 197.289833 139.620049 
L 194.859277 140.335002 
L 190.072822 142.063671 
L 186.147048 143.811799 
L 183.564912 145.132649 
L 179.352788 147.598049 
L 175.225474 150.419532 
L 169.830482 154.796504 
L 167.131672 157.323226 
L 165.007469 159.493927 
L 160.975212 164.126461 
L 159.51568 165.994923 
L 155.694242 171.486645 
L 152.968532 176.072996 
L 151.029659 179.7909 
L 149.626906 182.7882 
L 147.167545 188.910087 
L 145.159182 195.196045 
L 143.530013 201.963869 
L 143.028077 204.646248 
L 142.249969 210.080568 
L 141.721095 216.656483 
L 141.620673 219.99439 
L 141.71116 225.820432 
L 142.224062 232.479216 
L 143.742889 242.132606 
L 145.523756 249.477935 
L 147.388775 255.465667 
L 149.01353 259.887197 
L 151.073265 264.793453 
L 153.485366 269.835164 
L 155.756106 274.069691 
L 159.151965 279.708636 
L 162.995637 285.327185 
L 167.954804 291.671698 
L 171.805509 296.044235 
L 175.777509 300.139173 
L 180.481528 304.525494 
L 186.464567 309.48716 
L 193.731627 314.726709 
L 202.837831 320.264609 
L 207.60811 322.766873 
L 213.733169 325.618257 
L 220.963233 328.50115 
L 227.561018 330.708698 
L 234.694093 332.669957 
L 240.099674 333.876174 
L 247.56192 335.160996 
L 258.609676 336.283627 
L 265.002153 336.520142 
L 271.24313 336.463693 
L 275.45575 336.265931 
L 285.521061 335.271837 
L 294.228995 333.812464 
L 296.907399 333.249885 
L 305.062793 331.199744 
L 308.129119 330.294824 
L 321.100307 325.617584 
L 327.33246 322.854822 
L 336.212526 318.290119 
L 342.178181 314.775954 
L 345.096057 312.916084 
L 351.185534 308.713902 
L 359.06847 302.566984 
L 365.386855 296.985072 
L 369.043044 293.451926 
L 374.330328 287.895146 
L 380.821464 280.228941 
L 382.917453 277.521233 
L 387.5955 270.990979 
L 391.660048 264.670326 
L 396.928944 255.31585 
L 399.508507 250.111789 
L 404.570532 238.160236 
L 407.203626 230.582985 
L 409.278702 223.533935 
L 410.895842 216.992386 
L 412.462692 209.121588 
L 413.398039 203.042148 
L 414.231048 195.529699 
L 414.638883 189.638623 
L 414.714725 174.550014 
L 413.700978 161.824388 
L 411.313259 147.251831 
L 408.401716 135.496563 
L 407.192983 131.465739 
L 403.754847 121.582863 
L 400.900661 114.598324 
L 397.718682 107.704288 
L 395.51856 103.36149 
L 391.884927 96.789597 
L 386.192859 87.674129 
L 380.971318 80.290825 
L 374.998086 72.742194 
L 371.882947 69.123949 
L 366.840414 63.66538 
L 361.434536 58.296305 
L 352.883242 50.679261 
L 346.895254 45.901424 
L 339.253609 40.385928 
L 333.246965 36.463931 
L 328.307829 33.489083 
L 323.699475 30.904336 
L 317.729824 27.814578 
L 307.924929 23.33161 
L 300.225849 20.292953 
L 294.175317 18.184864 
L 282.654822 14.816342 
L 274.588089 12.938823 
L 266.42608 11.426322 
L 253.66977 9.81762 
L 243.791203 9.189203 
L 235.281313 9.073278 
L 224.651824 9.478627 
L 215.067592 10.369526 
L 208.918545 11.205966 
L 203.789388 12.06401 
L 189.146543 15.334259 
L 180.525532 17.846895 
L 170.985927 21.159461 
L 158.851828 26.228224 
L 151.441263 29.826877 
L 145.63969 32.928893 
L 136.431556 38.402742 
L 124.975615 46.250598 
L 120.721231 49.489733 
L 111.76085 56.959589 
L 105.328817 62.926343 
L 98.883184 69.488087 
L 94.115101 74.76886 
L 91.556105 77.770453 
L 81.690554 90.634478 
L 76.890184 97.793577 
L 70.831519 107.934425 
L 65.769386 117.642818 
L 61.889364 126.120744 
L 56.772128 139.321441 
L 55.514267 143.065413 
L 52.768653 152.265766 
L 49.586596 165.795751 
L 47.009075 182.381261 
L 46.53206 187.116378 
L 45.969124 195.394681 
L 45.969124 195.394681 
" style="fill:none;stroke:#6e00cc;stroke-linecap:square;"/>
   </g>
   <g id="patch_6">
    <path d="M 248.399774 343.08 
L 248.399774 2.52 
" style="fill:none;stroke:#000000;stroke-linecap:square;stroke-linejoin:miter;stroke-width:0.8;"/>
   </g>
   <g id="patch_7">
    <path d="M 38.591889 195.394681 
L 422.208111 195.394681 
" style="fill:none;stroke:#000000;stroke-linecap:square;stroke-linejoin:miter;stroke-width:0.8;"/>
   </g>
  </g>
 </g>
 <defs>
  <clipPath id="pbe8c06b2f9">
   <rect height="340.56" width="383.616222" x="38.591889" y="2.52"/>
  </clipPath>
 </defs>
</svg>
