<?xml version="1.0" encoding="utf-8" standalone="no"?>
<!DOCTYPE svg PUBLIC "-//W3C//DTD SVG 1.1//EN"
  "http://www.w3.org/Graphics/SVG/1.1/DTD/svg11.dtd">
<!-- Created with matplotlib (http://matplotlib.org/) -->
<svg height="345.6pt" version="1.1" viewBox="0 0 460.8 345.6" width="460.8pt" xmlns="http://www.w3.org/2000/svg" xmlns:xlink="http://www.w3.org/1999/xlink">
 <defs>
  <style type="text/css">
*{stroke-linecap:butt;stroke-linejoin:round;}
  </style>
 </defs>
 <g id="figure_1">
  <g id="patch_1">
   <path d="M 0 345.6 
L 460.8 345.6 
L 460.8 0 
L 0 0 
z
" style="fill:#ffffff;"/>
  </g>
  <g id="axes_1">
   <g id="patch_2">
    <path d="M 60.12 343.08 
L 400.68 343.08 
L 400.68 2.52 
L 60.12 2.52 
z
" style="fill:#ffffff;"/>
   </g>
   <g id="matplotlib.axis_1">
    <g id="xtick_1">
     <g id="line2d_1">
      <defs>
       <path d="M 0 0 
L 0 3.5 
" id="m98c13fa718" style="stroke:#000000;stroke-width:0.8;"/>
      </defs>
      <g>
       <use style="stroke:#000000;stroke-width:0.8;" x="66.669231" xlink:href="#m98c13fa718" y="172.8"/>
      </g>
     </g>
    </g>
    <g id="xtick_2">
     <g id="line2d_2">
      <g>
       <use style="stroke:#000000;stroke-width:0.8;" x="149.361538" xlink:href="#m98c13fa718" y="172.8"/>
      </g>
     </g>
     <g id="text_1">
      <!-- 5 -->
      <defs>
       <path d="M 10.796875 72.90625 
L 49.515625 72.90625 
L 49.515625 64.59375 
L 19.828125 64.59375 
L 19.828125 46.734375 
Q 21.96875 47.46875 24.109375 47.828125 
Q 26.265625 48.1875 28.421875 48.1875 
Q 40.625 48.1875 47.75 41.5 
Q 54.890625 34.8125 54.890625 23.390625 
Q 54.890625 11.625 47.5625 5.09375 
Q 40.234375 -1.421875 26.90625 -1.421875 
Q 22.3125 -1.421875 17.546875 -0.640625 
Q 12.796875 0.140625 7.71875 1.703125 
L 7.71875 11.625 
Q 12.109375 9.234375 16.796875 8.0625 
Q 21.484375 6.890625 26.703125 6.890625 
Q 35.15625 6.890625 40.078125 11.328125 
Q 45.015625 15.765625 45.015625 23.390625 
Q 45.015625 31 40.078125 35.4375 
Q 35.15625 39.890625 26.703125 39.890625 
Q 22.75 39.890625 18.8125 39.015625 
Q 14.890625 38.140625 10.796875 36.28125 
z
" id="DejaVuSans-35"/>
      </defs>
      <g transform="translate(146.180288 187.398437)scale(0.1 -0.1)">
       <use xlink:href="#DejaVuSans-35"/>
      </g>
     </g>
    </g>
    <g id="xtick_3">
     <g id="line2d_3">
      <g>
       <use style="stroke:#000000;stroke-width:0.8;" x="232.053846" xlink:href="#m98c13fa718" y="172.8"/>
      </g>
     </g>
     <g id="text_2">
      <!-- 10 -->
      <defs>
       <path d="M 12.40625 8.296875 
L 28.515625 8.296875 
L 28.515625 63.921875 
L 10.984375 60.40625 
L 10.984375 69.390625 
L 28.421875 72.90625 
L 38.28125 72.90625 
L 38.28125 8.296875 
L 54.390625 8.296875 
L 54.390625 0 
L 12.40625 0 
z
" id="DejaVuSans-31"/>
       <path d="M 31.78125 66.40625 
Q 24.171875 66.40625 20.328125 58.90625 
Q 16.5 51.421875 16.5 36.375 
Q 16.5 21.390625 20.328125 13.890625 
Q 24.171875 6.390625 31.78125 6.390625 
Q 39.453125 6.390625 43.28125 13.890625 
Q 47.125 21.390625 47.125 36.375 
Q 47.125 51.421875 43.28125 58.90625 
Q 39.453125 66.40625 31.78125 66.40625 
z
M 31.78125 74.21875 
Q 44.046875 74.21875 50.515625 64.515625 
Q 56.984375 54.828125 56.984375 36.375 
Q 56.984375 17.96875 50.515625 8.265625 
Q 44.046875 -1.421875 31.78125 -1.421875 
Q 19.53125 -1.421875 13.0625 8.265625 
Q 6.59375 17.96875 6.59375 36.375 
Q 6.59375 54.828125 13.0625 64.515625 
Q 19.53125 74.21875 31.78125 74.21875 
z
" id="DejaVuSans-30"/>
      </defs>
      <g transform="translate(225.691346 187.398437)scale(0.1 -0.1)">
       <use xlink:href="#DejaVuSans-31"/>
       <use x="63.623047" xlink:href="#DejaVuSans-30"/>
      </g>
     </g>
    </g>
    <g id="xtick_4">
     <g id="line2d_4">
      <g>
       <use style="stroke:#000000;stroke-width:0.8;" x="314.746154" xlink:href="#m98c13fa718" y="172.8"/>
      </g>
     </g>
     <g id="text_3">
      <!-- 15 -->
      <g transform="translate(308.383654 187.398437)scale(0.1 -0.1)">
       <use xlink:href="#DejaVuSans-31"/>
       <use x="63.623047" xlink:href="#DejaVuSans-35"/>
      </g>
     </g>
    </g>
    <g id="xtick_5">
     <g id="line2d_5">
      <g>
       <use style="stroke:#000000;stroke-width:0.8;" x="397.438462" xlink:href="#m98c13fa718" y="172.8"/>
      </g>
     </g>
     <g id="text_4">
      <!-- 20 -->
      <defs>
       <path d="M 19.1875 8.296875 
L 53.609375 8.296875 
L 53.609375 0 
L 7.328125 0 
L 7.328125 8.296875 
Q 12.9375 14.109375 22.625 23.890625 
Q 32.328125 33.6875 34.8125 36.53125 
Q 39.546875 41.84375 41.421875 45.53125 
Q 43.3125 49.21875 43.3125 52.78125 
Q 43.3125 58.59375 39.234375 62.25 
Q 35.15625 65.921875 28.609375 65.921875 
Q 23.96875 65.921875 18.8125 64.3125 
Q 13.671875 62.703125 7.8125 59.421875 
L 7.8125 69.390625 
Q 13.765625 71.78125 18.9375 73 
Q 24.125 74.21875 28.421875 74.21875 
Q 39.75 74.21875 46.484375 68.546875 
Q 53.21875 62.890625 53.21875 53.421875 
Q 53.21875 48.921875 51.53125 44.890625 
Q 49.859375 40.875 45.40625 35.40625 
Q 44.1875 33.984375 37.640625 27.21875 
Q 31.109375 20.453125 19.1875 8.296875 
z
" id="DejaVuSans-32"/>
      </defs>
      <g transform="translate(391.075962 187.398437)scale(0.1 -0.1)">
       <use xlink:href="#DejaVuSans-32"/>
       <use x="63.623047" xlink:href="#DejaVuSans-30"/>
      </g>
     </g>
    </g>
    <g id="xtick_6">
     <g id="line2d_6">
      <defs>
       <path d="M 0 0 
L 0 2 
" id="mbf5e73415b" style="stroke:#000000;stroke-width:0.6;"/>
      </defs>
      <g>
       <use style="stroke:#000000;stroke-width:0.6;" x="83.207692" xlink:href="#mbf5e73415b" y="172.8"/>
      </g>
     </g>
    </g>
    <g id="xtick_7">
     <g id="line2d_7">
      <g>
       <use style="stroke:#000000;stroke-width:0.6;" x="99.746154" xlink:href="#mbf5e73415b" y="172.8"/>
      </g>
     </g>
    </g>
    <g id="xtick_8">
     <g id="line2d_8">
      <g>
       <use style="stroke:#000000;stroke-width:0.6;" x="116.284615" xlink:href="#mbf5e73415b" y="172.8"/>
      </g>
     </g>
    </g>
    <g id="xtick_9">
     <g id="line2d_9">
      <g>
       <use style="stroke:#000000;stroke-width:0.6;" x="132.823077" xlink:href="#mbf5e73415b" y="172.8"/>
      </g>
     </g>
    </g>
    <g id="xtick_10">
     <g id="line2d_10">
      <g>
       <use style="stroke:#000000;stroke-width:0.6;" x="165.9" xlink:href="#mbf5e73415b" y="172.8"/>
      </g>
     </g>
    </g>
    <g id="xtick_11">
     <g id="line2d_11">
      <g>
       <use style="stroke:#000000;stroke-width:0.6;" x="182.438462" xlink:href="#mbf5e73415b" y="172.8"/>
      </g>
     </g>
    </g>
    <g id="xtick_12">
     <g id="line2d_12">
      <g>
       <use style="stroke:#000000;stroke-width:0.6;" x="198.976923" xlink:href="#mbf5e73415b" y="172.8"/>
      </g>
     </g>
    </g>
    <g id="xtick_13">
     <g id="line2d_13">
      <g>
       <use style="stroke:#000000;stroke-width:0.6;" x="215.515385" xlink:href="#mbf5e73415b" y="172.8"/>
      </g>
     </g>
    </g>
    <g id="xtick_14">
     <g id="line2d_14">
      <g>
       <use style="stroke:#000000;stroke-width:0.6;" x="248.592308" xlink:href="#mbf5e73415b" y="172.8"/>
      </g>
     </g>
    </g>
    <g id="xtick_15">
     <g id="line2d_15">
      <g>
       <use style="stroke:#000000;stroke-width:0.6;" x="265.130769" xlink:href="#mbf5e73415b" y="172.8"/>
      </g>
     </g>
    </g>
    <g id="xtick_16">
     <g id="line2d_16">
      <g>
       <use style="stroke:#000000;stroke-width:0.6;" x="281.669231" xlink:href="#mbf5e73415b" y="172.8"/>
      </g>
     </g>
    </g>
    <g id="xtick_17">
     <g id="line2d_17">
      <g>
       <use style="stroke:#000000;stroke-width:0.6;" x="298.207692" xlink:href="#mbf5e73415b" y="172.8"/>
      </g>
     </g>
    </g>
    <g id="xtick_18">
     <g id="line2d_18">
      <g>
       <use style="stroke:#000000;stroke-width:0.6;" x="331.284615" xlink:href="#mbf5e73415b" y="172.8"/>
      </g>
     </g>
    </g>
    <g id="xtick_19">
     <g id="line2d_19">
      <g>
       <use style="stroke:#000000;stroke-width:0.6;" x="347.823077" xlink:href="#mbf5e73415b" y="172.8"/>
      </g>
     </g>
    </g>
    <g id="xtick_20">
     <g id="line2d_20">
      <g>
       <use style="stroke:#000000;stroke-width:0.6;" x="364.361538" xlink:href="#mbf5e73415b" y="172.8"/>
      </g>
     </g>
    </g>
    <g id="xtick_21">
     <g id="line2d_21">
      <g>
       <use style="stroke:#000000;stroke-width:0.6;" x="380.9" xlink:href="#mbf5e73415b" y="172.8"/>
      </g>
     </g>
    </g>
   </g>
   <g id="matplotlib.axis_2">
    <g id="ytick_1">
     <g id="line2d_22">
      <defs>
       <path d="M 0 0 
L -3.5 0 
" id="m631b0dbe40" style="stroke:#000000;stroke-width:0.8;"/>
      </defs>
      <g>
       <use style="stroke:#000000;stroke-width:0.8;" x="66.669231" xlink:href="#m631b0dbe40" y="338.184615"/>
      </g>
     </g>
     <g id="text_5">
      <!-- -10 -->
      <defs>
       <path d="M 4.890625 31.390625 
L 31.203125 31.390625 
L 31.203125 23.390625 
L 4.890625 23.390625 
z
" id="DejaVuSans-2d"/>
      </defs>
      <g transform="translate(43.336418 341.983834)scale(0.1 -0.1)">
       <use xlink:href="#DejaVuSans-2d"/>
       <use x="36.083984" xlink:href="#DejaVuSans-31"/>
       <use x="99.707031" xlink:href="#DejaVuSans-30"/>
      </g>
     </g>
    </g>
    <g id="ytick_2">
     <g id="line2d_23">
      <g>
       <use style="stroke:#000000;stroke-width:0.8;" x="66.669231" xlink:href="#m631b0dbe40" y="255.492308"/>
      </g>
     </g>
     <g id="text_6">
      <!-- -5 -->
      <g transform="translate(49.698918 259.291526)scale(0.1 -0.1)">
       <use xlink:href="#DejaVuSans-2d"/>
       <use x="36.083984" xlink:href="#DejaVuSans-35"/>
      </g>
     </g>
    </g>
    <g id="ytick_3">
     <g id="line2d_24">
      <g>
       <use style="stroke:#000000;stroke-width:0.8;" x="66.669231" xlink:href="#m631b0dbe40" y="172.8"/>
      </g>
     </g>
    </g>
    <g id="ytick_4">
     <g id="line2d_25">
      <g>
       <use style="stroke:#000000;stroke-width:0.8;" x="66.669231" xlink:href="#m631b0dbe40" y="90.107692"/>
      </g>
     </g>
     <g id="text_7">
      <!-- 5 -->
      <g transform="translate(53.306731 93.906911)scale(0.1 -0.1)">
       <use xlink:href="#DejaVuSans-35"/>
      </g>
     </g>
    </g>
    <g id="ytick_5">
     <g id="line2d_26">
      <g>
       <use style="stroke:#000000;stroke-width:0.8;" x="66.669231" xlink:href="#m631b0dbe40" y="7.415385"/>
      </g>
     </g>
     <g id="text_8">
      <!-- 10 -->
      <g transform="translate(46.944231 11.214603)scale(0.1 -0.1)">
       <use xlink:href="#DejaVuSans-31"/>
       <use x="63.623047" xlink:href="#DejaVuSans-30"/>
      </g>
     </g>
    </g>
    <g id="ytick_6">
     <g id="line2d_27">
      <defs>
       <path d="M 0 0 
L -2 0 
" id="mcef1a34ee0" style="stroke:#000000;stroke-width:0.6;"/>
      </defs>
      <g>
       <use style="stroke:#000000;stroke-width:0.6;" x="66.669231" xlink:href="#mcef1a34ee0" y="321.646154"/>
      </g>
     </g>
    </g>
    <g id="ytick_7">
     <g id="line2d_28">
      <g>
       <use style="stroke:#000000;stroke-width:0.6;" x="66.669231" xlink:href="#mcef1a34ee0" y="305.107692"/>
      </g>
     </g>
    </g>
    <g id="ytick_8">
     <g id="line2d_29">
      <g>
       <use style="stroke:#000000;stroke-width:0.6;" x="66.669231" xlink:href="#mcef1a34ee0" y="288.569231"/>
      </g>
     </g>
    </g>
    <g id="ytick_9">
     <g id="line2d_30">
      <g>
       <use style="stroke:#000000;stroke-width:0.6;" x="66.669231" xlink:href="#mcef1a34ee0" y="272.030769"/>
      </g>
     </g>
    </g>
    <g id="ytick_10">
     <g id="line2d_31">
      <g>
       <use style="stroke:#000000;stroke-width:0.6;" x="66.669231" xlink:href="#mcef1a34ee0" y="238.953846"/>
      </g>
     </g>
    </g>
    <g id="ytick_11">
     <g id="line2d_32">
      <g>
       <use style="stroke:#000000;stroke-width:0.6;" x="66.669231" xlink:href="#mcef1a34ee0" y="222.415385"/>
      </g>
     </g>
    </g>
    <g id="ytick_12">
     <g id="line2d_33">
      <g>
       <use style="stroke:#000000;stroke-width:0.6;" x="66.669231" xlink:href="#mcef1a34ee0" y="205.876923"/>
      </g>
     </g>
    </g>
    <g id="ytick_13">
     <g id="line2d_34">
      <g>
       <use style="stroke:#000000;stroke-width:0.6;" x="66.669231" xlink:href="#mcef1a34ee0" y="189.338462"/>
      </g>
     </g>
    </g>
    <g id="ytick_14">
     <g id="line2d_35">
      <g>
       <use style="stroke:#000000;stroke-width:0.6;" x="66.669231" xlink:href="#mcef1a34ee0" y="156.261538"/>
      </g>
     </g>
    </g>
    <g id="ytick_15">
     <g id="line2d_36">
      <g>
       <use style="stroke:#000000;stroke-width:0.6;" x="66.669231" xlink:href="#mcef1a34ee0" y="139.723077"/>
      </g>
     </g>
    </g>
    <g id="ytick_16">
     <g id="line2d_37">
      <g>
       <use style="stroke:#000000;stroke-width:0.6;" x="66.669231" xlink:href="#mcef1a34ee0" y="123.184615"/>
      </g>
     </g>
    </g>
    <g id="ytick_17">
     <g id="line2d_38">
      <g>
       <use style="stroke:#000000;stroke-width:0.6;" x="66.669231" xlink:href="#mcef1a34ee0" y="106.646154"/>
      </g>
     </g>
    </g>
    <g id="ytick_18">
     <g id="line2d_39">
      <g>
       <use style="stroke:#000000;stroke-width:0.6;" x="66.669231" xlink:href="#mcef1a34ee0" y="73.569231"/>
      </g>
     </g>
    </g>
    <g id="ytick_19">
     <g id="line2d_40">
      <g>
       <use style="stroke:#000000;stroke-width:0.6;" x="66.669231" xlink:href="#mcef1a34ee0" y="57.030769"/>
      </g>
     </g>
    </g>
    <g id="ytick_20">
     <g id="line2d_41">
      <g>
       <use style="stroke:#000000;stroke-width:0.6;" x="66.669231" xlink:href="#mcef1a34ee0" y="40.492308"/>
      </g>
     </g>
    </g>
    <g id="ytick_21">
     <g id="line2d_42">
      <g>
       <use style="stroke:#000000;stroke-width:0.6;" x="66.669231" xlink:href="#mcef1a34ee0" y="23.953846"/>
      </g>
     </g>
    </g>
   </g>
   <g id="patch_3">
    <path d="M 66.669231 343.08 
L 66.669231 2.52 
" style="fill:none;stroke:#000000;stroke-linecap:square;stroke-linejoin:miter;stroke-width:0.8;"/>
   </g>
   <g id="patch_4">
    <path d="M 60.12 172.8 
L 400.68 172.8 
" style="fill:none;stroke:#000000;stroke-linecap:square;stroke-linejoin:miter;stroke-width:0.8;"/>
   </g>
   <g id="patch_5">
    <path clip-path="url(#p18252970a3)" d="M 66.669231 172.8 
C 66.669231 172.8 66.669231 172.8 66.669231 172.8 
C 66.669231 172.8 66.669231 172.8 66.669231 172.8 
C 66.669231 172.8 66.669231 172.8 66.669231 172.8 
C 66.669231 172.8 66.669231 172.8 66.669231 172.8 
C 66.669231 172.8 66.669231 172.8 66.669231 172.8 
C 66.669231 172.8 66.669231 172.8 66.669231 172.8 
C 66.669231 172.8 66.669231 172.8 66.669231 172.8 
C 66.669231 172.8 66.669231 172.8 66.669231 172.8 
z
" style="fill:none;stroke:#ff0000;stroke-linejoin:miter;"/>
   </g>
   <g id="patch_6">
    <path clip-path="url(#p18252970a3)" d="M 68.323077 174.453846 
C 68.761682 174.453846 69.182382 174.279586 69.492523 173.969446 
C 69.802663 173.659305 69.976923 173.238605 69.976923 172.8 
C 69.976923 172.361395 69.802663 171.940695 69.492523 171.630554 
C 69.182382 171.320414 68.761682 171.146154 68.323077 171.146154 
C 67.884472 171.146154 67.463772 171.320414 67.153631 171.630554 
C 66.84349 171.940695 66.669231 172.361395 66.669231 172.8 
C 66.669231 173.238605 66.84349 173.659305 67.153631 173.969446 
C 67.463772 174.279586 67.884472 174.453846 68.323077 174.453846 
z
" style="fill:none;stroke:#ff0f00;stroke-linejoin:miter;"/>
   </g>
   <g id="patch_7">
    <path clip-path="url(#p18252970a3)" d="M 69.976923 176.107692 
C 70.854133 176.107692 71.695533 175.759173 72.315815 175.138892 
C 72.936096 174.51861 73.284615 173.67721 73.284615 172.8 
C 73.284615 171.92279 72.936096 171.08139 72.315815 170.461108 
C 71.695533 169.840827 70.854133 169.492308 69.976923 169.492308 
C 69.099713 169.492308 68.258313 169.840827 67.638031 170.461108 
C 67.01775 171.08139 66.669231 171.92279 66.669231 172.8 
C 66.669231 173.67721 67.01775 174.51861 67.638031 175.138892 
C 68.258313 175.759173 69.099713 176.107692 69.976923 176.107692 
z
" style="fill:none;stroke:#ff1f00;stroke-linejoin:miter;"/>
   </g>
   <g id="patch_8">
    <path clip-path="url(#p18252970a3)" d="M 71.630769 177.761538 
C 72.946585 177.761538 74.208685 177.238759 75.139107 176.308337 
C 76.069529 175.377916 76.592308 174.115815 76.592308 172.8 
C 76.592308 171.484185 76.069529 170.222084 75.139107 169.291663 
C 74.208685 168.361241 72.946585 167.838462 71.630769 167.838462 
C 70.314954 167.838462 69.052854 168.361241 68.122432 169.291663 
C 67.19201 170.222084 66.669231 171.484185 66.669231 172.8 
C 66.669231 174.115815 67.19201 175.377916 68.122432 176.308337 
C 69.052854 177.238759 70.314954 177.761538 71.630769 177.761538 
z
" style="fill:none;stroke:#ff2e00;stroke-linejoin:miter;"/>
   </g>
   <g id="patch_9">
    <path clip-path="url(#p18252970a3)" d="M 73.284615 179.415385 
C 75.039036 179.415385 76.721836 178.718346 77.962399 177.477783 
C 79.202961 176.237221 79.9 174.554421 79.9 172.8 
C 79.9 171.045579 79.202961 169.362779 77.962399 168.122217 
C 76.721836 166.881654 75.039036 166.184615 73.284615 166.184615 
C 71.530195 166.184615 69.847395 166.881654 68.606832 168.122217 
C 67.366269 169.362779 66.669231 171.045579 66.669231 172.8 
C 66.669231 174.554421 67.366269 176.237221 68.606832 177.477783 
C 69.847395 178.718346 71.530195 179.415385 73.284615 179.415385 
z
" style="fill:none;stroke:#ff3d00;stroke-linejoin:miter;"/>
   </g>
   <g id="patch_10">
    <path clip-path="url(#p18252970a3)" d="M 74.938462 181.069231 
C 77.131487 181.069231 79.234987 180.197932 80.785691 178.647229 
C 82.336394 177.096526 83.207692 174.993026 83.207692 172.8 
C 83.207692 170.606974 82.336394 168.503474 80.785691 166.952771 
C 79.234987 165.402068 77.131487 164.530769 74.938462 164.530769 
C 72.745436 164.530769 70.641936 165.402068 69.091232 166.952771 
C 67.540529 168.503474 66.669231 170.606974 66.669231 172.8 
C 66.669231 174.993026 67.540529 177.096526 69.091232 178.647229 
C 70.641936 180.197932 72.745436 181.069231 74.938462 181.069231 
z
" style="fill:none;stroke:#ff4c00;stroke-linejoin:miter;"/>
   </g>
   <g id="patch_11">
    <path clip-path="url(#p18252970a3)" d="M 76.592308 182.723077 
C 79.223938 182.723077 81.748139 181.677519 83.608983 179.816675 
C 85.469827 177.955831 86.515385 175.431631 86.515385 172.8 
C 86.515385 170.168369 85.469827 167.644169 83.608983 165.783325 
C 81.748139 163.922481 79.223938 162.876923 76.592308 162.876923 
C 73.960677 162.876923 71.436477 163.922481 69.575633 165.783325 
C 67.714789 167.644169 66.669231 170.168369 66.669231 172.8 
C 66.669231 175.431631 67.714789 177.955831 69.575633 179.816675 
C 71.436477 181.677519 73.960677 182.723077 76.592308 182.723077 
z
" style="fill:none;stroke:#ff5c00;stroke-linejoin:miter;"/>
   </g>
   <g id="patch_12">
    <path clip-path="url(#p18252970a3)" d="M 78.246154 184.376923 
C 81.31639 184.376923 84.26129 183.157105 86.432275 180.986121 
C 88.603259 178.815136 89.823077 175.870236 89.823077 172.8 
C 89.823077 169.729764 88.603259 166.784864 86.432275 164.613879 
C 84.26129 162.442895 81.31639 161.223077 78.246154 161.223077 
C 75.175918 161.223077 72.231018 162.442895 70.060033 164.613879 
C 67.889048 166.784864 66.669231 169.729764 66.669231 172.8 
C 66.669231 175.870236 67.889048 178.815136 70.060033 180.986121 
C 72.231018 183.157105 75.175918 184.376923 78.246154 184.376923 
z
" style="fill:none;stroke:#ff6b00;stroke-linejoin:miter;"/>
   </g>
   <g id="patch_13">
    <path clip-path="url(#p18252970a3)" d="M 79.9 186.030769 
C 83.408841 186.030769 86.774441 184.636692 89.255567 182.155567 
C 91.736692 179.674441 93.130769 176.308841 93.130769 172.8 
C 93.130769 169.291159 91.736692 165.925559 89.255567 163.444433 
C 86.774441 160.963308 83.408841 159.569231 79.9 159.569231 
C 76.391159 159.569231 73.025559 160.963308 70.544433 163.444433 
C 68.063308 165.925559 66.669231 169.291159 66.669231 172.8 
C 66.669231 176.308841 68.063308 179.674441 70.544433 182.155567 
C 73.025559 184.636692 76.391159 186.030769 79.9 186.030769 
z
" style="fill:none;stroke:#ff7a00;stroke-linejoin:miter;"/>
   </g>
   <g id="patch_14">
    <path clip-path="url(#p18252970a3)" d="M 81.553846 187.684615 
C 85.501292 187.684615 89.287593 186.116278 92.078859 183.325012 
C 94.870125 180.533747 96.438462 176.747446 96.438462 172.8 
C 96.438462 168.852554 94.870125 165.066253 92.078859 162.274988 
C 89.287593 159.483722 85.501292 157.915385 81.553846 157.915385 
C 77.6064 157.915385 73.8201 159.483722 71.028834 162.274988 
C 68.237568 165.066253 66.669231 168.852554 66.669231 172.8 
C 66.669231 176.747446 68.237568 180.533747 71.028834 183.325012 
C 73.8201 186.116278 77.6064 187.684615 81.553846 187.684615 
z
" style="fill:none;stroke:#ff8a00;stroke-linejoin:miter;"/>
   </g>
   <g id="patch_15">
    <path clip-path="url(#p18252970a3)" d="M 83.207692 189.338462 
C 87.593744 189.338462 91.800744 187.595865 94.902151 184.494458 
C 98.003557 181.393052 99.746154 177.186051 99.746154 172.8 
C 99.746154 168.413949 98.003557 164.206948 94.902151 161.105542 
C 91.800744 158.004135 87.593744 156.261538 83.207692 156.261538 
C 78.821641 156.261538 74.614641 158.004135 71.513234 161.105542 
C 68.411827 164.206948 66.669231 168.413949 66.669231 172.8 
C 66.669231 177.186051 68.411827 181.393052 71.513234 184.494458 
C 74.614641 187.595865 78.821641 189.338462 83.207692 189.338462 
z
" style="fill:none;stroke:#ff9900;stroke-linejoin:miter;"/>
   </g>
   <g id="patch_16">
    <path clip-path="url(#p18252970a3)" d="M 84.861538 190.992308 
C 89.686195 190.992308 94.313895 189.075451 97.725443 185.663904 
C 101.13699 182.252357 103.053846 177.624656 103.053846 172.8 
C 103.053846 167.975344 101.13699 163.347643 97.725443 159.936096 
C 94.313895 156.524549 89.686195 154.607692 84.861538 154.607692 
C 80.036882 154.607692 75.409182 156.524549 71.997634 159.936096 
C 68.586087 163.347643 66.669231 167.975344 66.669231 172.8 
C 66.669231 177.624656 68.586087 182.252357 71.997634 185.663904 
C 75.409182 189.075451 80.036882 190.992308 84.861538 190.992308 
z
" style="fill:none;stroke:#ffa800;stroke-linejoin:miter;"/>
   </g>
   <g id="patch_17">
    <path clip-path="url(#p18252970a3)" d="M 86.515385 192.646154 
C 91.778646 192.646154 96.827047 190.555038 100.548735 186.83335 
C 104.270422 183.111662 106.361538 178.063262 106.361538 172.8 
C 106.361538 167.536738 104.270422 162.488338 100.548735 158.76665 
C 96.827047 155.044962 91.778646 152.953846 86.515385 152.953846 
C 81.252123 152.953846 76.203723 155.044962 72.482035 158.76665 
C 68.760347 162.488338 66.669231 167.536738 66.669231 172.8 
C 66.669231 178.063262 68.760347 183.111662 72.482035 186.83335 
C 76.203723 190.555038 81.252123 192.646154 86.515385 192.646154 
z
" style="fill:none;stroke:#ffb700;stroke-linejoin:miter;"/>
   </g>
   <g id="patch_18">
    <path clip-path="url(#p18252970a3)" d="M 88.169231 194.3 
C 93.871097 194.3 99.340198 192.034624 103.372027 188.002796 
C 107.403855 183.970967 109.669231 178.501867 109.669231 172.8 
C 109.669231 167.098133 107.403855 161.629033 103.372027 157.597204 
C 99.340198 153.565376 93.871097 151.3 88.169231 151.3 
C 82.467364 151.3 76.998264 153.565376 72.966435 157.597204 
C 68.934606 161.629033 66.669231 167.098133 66.669231 172.8 
C 66.669231 178.501867 68.934606 183.970967 72.966435 188.002796 
C 76.998264 192.034624 82.467364 194.3 88.169231 194.3 
z
" style="fill:none;stroke:#ffc600;stroke-linejoin:miter;"/>
   </g>
   <g id="patch_19">
    <path clip-path="url(#p18252970a3)" d="M 89.823077 195.953846 
C 95.963549 195.953846 101.853349 193.514211 106.195319 189.172242 
C 110.537288 184.830272 112.976923 178.940472 112.976923 172.8 
C 112.976923 166.659528 110.537288 160.769728 106.195319 156.427758 
C 101.853349 152.085789 95.963549 149.646154 89.823077 149.646154 
C 83.682605 149.646154 77.792805 152.085789 73.450835 156.427758 
C 69.108866 160.769728 66.669231 166.659528 66.669231 172.8 
C 66.669231 178.940472 69.108866 184.830272 73.450835 189.172242 
C 77.792805 193.514211 83.682605 195.953846 89.823077 195.953846 
z
" style="fill:none;stroke:#ffd600;stroke-linejoin:miter;"/>
   </g>
   <g id="patch_20">
    <path clip-path="url(#p18252970a3)" d="M 91.476923 197.607692 
C 98.056 197.607692 104.366501 194.993797 109.018611 190.341687 
C 113.67072 185.689578 116.284615 179.379077 116.284615 172.8 
C 116.284615 166.220923 113.67072 159.910422 109.018611 155.258313 
C 104.366501 150.606203 98.056 147.992308 91.476923 147.992308 
C 84.897846 147.992308 78.587346 150.606203 73.935236 155.258313 
C 69.283126 159.910422 66.669231 166.220923 66.669231 172.8 
C 66.669231 179.379077 69.283126 185.689578 73.935236 190.341687 
C 78.587346 194.993797 84.897846 197.607692 91.476923 197.607692 
z
" style="fill:none;stroke:#ffe500;stroke-linejoin:miter;"/>
   </g>
   <g id="patch_21">
    <path clip-path="url(#p18252970a3)" d="M 93.130769 199.261538 
C 100.148451 199.261538 106.879652 196.473384 111.841903 191.511133 
C 116.804153 186.548883 119.592308 179.817682 119.592308 172.8 
C 119.592308 165.782318 116.804153 159.051117 111.841903 154.088867 
C 106.879652 149.126616 100.148451 146.338462 93.130769 146.338462 
C 86.113087 146.338462 79.381886 149.126616 74.419636 154.088867 
C 69.457385 159.051117 66.669231 165.782318 66.669231 172.8 
C 66.669231 179.817682 69.457385 186.548883 74.419636 191.511133 
C 79.381886 196.473384 86.113087 199.261538 93.130769 199.261538 
z
" style="fill:none;stroke:#fff400;stroke-linejoin:miter;"/>
   </g>
   <g id="patch_22">
    <path clip-path="url(#p18252970a3)" d="M 94.784615 200.915385 
C 102.240903 200.915385 109.392803 197.95297 114.665195 192.680579 
C 119.937586 187.408188 122.9 180.256287 122.9 172.8 
C 122.9 165.343713 119.937586 158.191812 114.665195 152.919421 
C 109.392803 147.64703 102.240903 144.684615 94.784615 144.684615 
C 87.328328 144.684615 80.176427 147.64703 74.904036 152.919421 
C 69.631645 158.191812 66.669231 165.343713 66.669231 172.8 
C 66.669231 180.256287 69.631645 187.408188 74.904036 192.680579 
C 80.176427 197.95297 87.328328 200.915385 94.784615 200.915385 
z
" style="fill:none;stroke:#fbff00;stroke-linejoin:miter;"/>
   </g>
   <g id="patch_23">
    <path clip-path="url(#p18252970a3)" d="M 96.438462 202.569231 
C 104.333354 202.569231 111.905955 199.432557 117.488486 193.850025 
C 123.071018 188.267493 126.207692 180.694892 126.207692 172.8 
C 126.207692 164.905108 123.071018 157.332507 117.488486 151.749975 
C 111.905955 146.167443 104.333354 143.030769 96.438462 143.030769 
C 88.543569 143.030769 80.970968 146.167443 75.388437 151.749975 
C 69.805905 157.332507 66.669231 164.905108 66.669231 172.8 
C 66.669231 180.694892 69.805905 188.267493 75.388437 193.850025 
C 80.970968 199.432557 88.543569 202.569231 96.438462 202.569231 
z
" style="fill:none;stroke:#ecff00;stroke-linejoin:miter;"/>
   </g>
   <g id="patch_24">
    <path clip-path="url(#p18252970a3)" d="M 98.092308 204.223077 
C 106.425805 204.223077 114.419106 200.912143 120.311778 195.019471 
C 126.204451 189.126798 129.515385 181.133497 129.515385 172.8 
C 129.515385 164.466503 126.204451 156.473202 120.311778 150.580529 
C 114.419106 144.687857 106.425805 141.376923 98.092308 141.376923 
C 89.75881 141.376923 81.765509 144.687857 75.872837 150.580529 
C 69.980164 156.473202 66.669231 164.466503 66.669231 172.8 
C 66.669231 181.133497 69.980164 189.126798 75.872837 195.019471 
C 81.765509 200.912143 89.75881 204.223077 98.092308 204.223077 
z
" style="fill:none;stroke:#ddff00;stroke-linejoin:miter;"/>
   </g>
   <g id="patch_25">
    <path clip-path="url(#p18252970a3)" d="M 99.746154 205.876923 
C 108.518256 205.876923 116.932257 202.39173 123.13507 196.188917 
C 129.337884 189.986103 132.823077 181.572103 132.823077 172.8 
C 132.823077 164.027897 129.337884 155.613897 123.13507 149.411083 
C 116.932257 143.20827 108.518256 139.723077 99.746154 139.723077 
C 90.974051 139.723077 82.56005 143.20827 76.357237 149.411083 
C 70.154424 155.613897 66.669231 164.027897 66.669231 172.8 
C 66.669231 181.572103 70.154424 189.986103 76.357237 196.188917 
C 82.56005 202.39173 90.974051 205.876923 99.746154 205.876923 
z
" style="fill:none;stroke:#ceff00;stroke-linejoin:miter;"/>
   </g>
   <g id="patch_26">
    <path clip-path="url(#p18252970a3)" d="M 101.4 207.530769 
C 110.610708 207.530769 119.445409 203.871316 125.958362 197.358362 
C 132.471316 190.845409 136.130769 182.010708 136.130769 172.8 
C 136.130769 163.589292 132.471316 154.754591 125.958362 148.241638 
C 119.445409 141.728684 110.610708 138.069231 101.4 138.069231 
C 92.189292 138.069231 83.354591 141.728684 76.841638 148.241638 
C 70.328684 154.754591 66.669231 163.589292 66.669231 172.8 
C 66.669231 182.010708 70.328684 190.845409 76.841638 197.358362 
C 83.354591 203.871316 92.189292 207.530769 101.4 207.530769 
z
" style="fill:none;stroke:#bfff00;stroke-linejoin:miter;"/>
   </g>
   <g id="patch_27">
    <path clip-path="url(#p18252970a3)" d="M 103.053846 209.184615 
C 112.703159 209.184615 121.95856 205.350903 128.781654 198.527808 
C 135.604749 191.704714 139.438462 182.449313 139.438462 172.8 
C 139.438462 163.150687 135.604749 153.895286 128.781654 147.072192 
C 121.95856 140.249097 112.703159 136.415385 103.053846 136.415385 
C 93.404533 136.415385 84.149132 140.249097 77.326038 147.072192 
C 70.502943 153.895286 66.669231 163.150687 66.669231 172.8 
C 66.669231 182.449313 70.502943 191.704714 77.326038 198.527808 
C 84.149132 205.350903 93.404533 209.184615 103.053846 209.184615 
z
" style="fill:none;stroke:#b0ff00;stroke-linejoin:miter;"/>
   </g>
   <g id="patch_28">
    <path clip-path="url(#p18252970a3)" d="M 104.707692 210.838462 
C 114.79561 210.838462 124.471711 206.830489 131.604946 199.697254 
C 138.738182 192.564019 142.746154 182.887918 142.746154 172.8 
C 142.746154 162.712082 138.738182 153.035981 131.604946 145.902746 
C 124.471711 138.769511 114.79561 134.761538 104.707692 134.761538 
C 94.619774 134.761538 84.943673 138.769511 77.810438 145.902746 
C 70.677203 153.035981 66.669231 162.712082 66.669231 172.8 
C 66.669231 182.887918 70.677203 192.564019 77.810438 199.697254 
C 84.943673 206.830489 94.619774 210.838462 104.707692 210.838462 
z
" style="fill:none;stroke:#a1ff00;stroke-linejoin:miter;"/>
   </g>
   <g id="patch_29">
    <path clip-path="url(#p18252970a3)" d="M 106.361538 212.492308 
C 116.888062 212.492308 126.984863 208.310076 134.428238 200.8667 
C 141.871614 193.423324 146.053846 183.326523 146.053846 172.8 
C 146.053846 162.273477 141.871614 152.176676 134.428238 144.7333 
C 126.984863 137.289924 116.888062 133.107692 106.361538 133.107692 
C 95.835015 133.107692 85.738214 137.289924 78.294839 144.7333 
C 70.851463 152.176676 66.669231 162.273477 66.669231 172.8 
C 66.669231 183.326523 70.851463 193.423324 78.294839 200.8667 
C 85.738214 208.310076 95.835015 212.492308 106.361538 212.492308 
z
" style="fill:none;stroke:#92ff00;stroke-linejoin:miter;"/>
   </g>
   <g id="patch_30">
    <path clip-path="url(#p18252970a3)" d="M 108.015385 214.146154 
C 118.980513 214.146154 129.498014 209.789662 137.25153 202.036146 
C 145.005047 194.282629 149.361538 183.765128 149.361538 172.8 
C 149.361538 161.834872 145.005047 151.317371 137.25153 143.563854 
C 129.498014 135.810338 118.980513 131.453846 108.015385 131.453846 
C 97.050256 131.453846 86.532755 135.810338 78.779239 143.563854 
C 71.025722 151.317371 66.669231 161.834872 66.669231 172.8 
C 66.669231 183.765128 71.025722 194.282629 78.779239 202.036146 
C 86.532755 209.789662 97.050256 214.146154 108.015385 214.146154 
z
" style="fill:none;stroke:#83ff00;stroke-linejoin:miter;"/>
   </g>
   <g id="patch_31">
    <path clip-path="url(#p18252970a3)" d="M 109.669231 215.8 
C 121.072964 215.8 132.011165 211.269249 140.074822 203.205592 
C 148.13848 195.141934 152.669231 184.203733 152.669231 172.8 
C 152.669231 161.396267 148.13848 150.458066 140.074822 142.394408 
C 132.011165 134.330751 121.072964 129.8 109.669231 129.8 
C 98.265497 129.8 87.327296 134.330751 79.263639 142.394408 
C 71.199982 150.458066 66.669231 161.396267 66.669231 172.8 
C 66.669231 184.203733 71.199982 195.141934 79.263639 203.205592 
C 87.327296 211.269249 98.265497 215.8 109.669231 215.8 
z
" style="fill:none;stroke:#75ff00;stroke-linejoin:miter;"/>
   </g>
   <g id="patch_32">
    <path clip-path="url(#p18252970a3)" d="M 111.323077 217.453846 
C 123.165415 217.453846 134.524317 212.748835 142.898114 204.375037 
C 151.271912 196.00124 155.976923 184.642338 155.976923 172.8 
C 155.976923 160.957662 151.271912 149.59876 142.898114 141.224963 
C 134.524317 132.851165 123.165415 128.146154 111.323077 128.146154 
C 99.480738 128.146154 88.121837 132.851165 79.74804 141.224963 
C 71.374242 149.59876 66.669231 160.957662 66.669231 172.8 
C 66.669231 184.642338 71.374242 196.00124 79.74804 204.375037 
C 88.121837 212.748835 99.480738 217.453846 111.323077 217.453846 
z
" style="fill:none;stroke:#66ff00;stroke-linejoin:miter;"/>
   </g>
   <g id="patch_33">
    <path clip-path="url(#p18252970a3)" d="M 112.976923 219.107692 
C 125.257867 219.107692 137.037468 214.228422 145.721406 205.544483 
C 154.405345 196.860545 159.284615 185.080944 159.284615 172.8 
C 159.284615 160.519056 154.405345 148.739455 145.721406 140.055517 
C 137.037468 131.371578 125.257867 126.492308 112.976923 126.492308 
C 100.69598 126.492308 88.916378 131.371578 80.23244 140.055517 
C 71.548501 148.739455 66.669231 160.519056 66.669231 172.8 
C 66.669231 185.080944 71.548501 196.860545 80.23244 205.544483 
C 88.916378 214.228422 100.69598 219.107692 112.976923 219.107692 
z
" style="fill:none;stroke:#57ff00;stroke-linejoin:miter;"/>
   </g>
   <g id="patch_34">
    <path clip-path="url(#p18252970a3)" d="M 114.630769 220.761538 
C 127.350318 220.761538 139.550619 215.708008 148.544698 206.713929 
C 157.538777 197.71985 162.592308 185.519549 162.592308 172.8 
C 162.592308 160.080451 157.538777 147.88015 148.544698 138.886071 
C 139.550619 129.891992 127.350318 124.838462 114.630769 124.838462 
C 101.911221 124.838462 89.710919 129.891992 80.71684 138.886071 
C 71.722761 147.88015 66.669231 160.080451 66.669231 172.8 
C 66.669231 185.519549 71.722761 197.71985 80.71684 206.713929 
C 89.710919 215.708008 101.911221 220.761538 114.630769 220.761538 
z
" style="fill:none;stroke:#48ff00;stroke-linejoin:miter;"/>
   </g>
   <g id="patch_35">
    <path clip-path="url(#p18252970a3)" d="M 116.284615 222.415385 
C 129.442769 222.415385 142.063771 217.187595 151.36799 207.883375 
C 160.67221 198.579155 165.9 185.958154 165.9 172.8 
C 165.9 159.641846 160.67221 147.020845 151.36799 137.716625 
C 142.063771 128.412405 129.442769 123.184615 116.284615 123.184615 
C 103.126462 123.184615 90.50546 128.412405 81.20124 137.716625 
C 71.897021 147.020845 66.669231 159.641846 66.669231 172.8 
C 66.669231 185.958154 71.897021 198.579155 81.20124 207.883375 
C 90.50546 217.187595 103.126462 222.415385 116.284615 222.415385 
z
" style="fill:none;stroke:#3aff00;stroke-linejoin:miter;"/>
   </g>
   <g id="patch_36">
    <path clip-path="url(#p18252970a3)" d="M 117.938462 224.069231 
C 131.53522 224.069231 144.576922 218.667181 154.191282 209.052821 
C 163.805643 199.43846 169.207692 186.396759 169.207692 172.8 
C 169.207692 159.203241 163.805643 146.16154 154.191282 136.547179 
C 144.576922 126.932819 131.53522 121.530769 117.938462 121.530769 
C 104.341703 121.530769 91.300001 126.932819 81.685641 136.547179 
C 72.07128 146.16154 66.669231 159.203241 66.669231 172.8 
C 66.669231 186.396759 72.07128 199.43846 81.685641 209.052821 
C 91.300001 218.667181 104.341703 224.069231 117.938462 224.069231 
z
" style="fill:none;stroke:#2bff00;stroke-linejoin:miter;"/>
   </g>
   <g id="patch_37">
    <path clip-path="url(#p18252970a3)" d="M 119.592308 225.723077 
C 133.627672 225.723077 147.090073 220.146768 157.014574 210.222267 
C 166.939075 200.297765 172.515385 186.835364 172.515385 172.8 
C 172.515385 158.764636 166.939075 145.302235 157.014574 135.377733 
C 147.090073 125.453232 133.627672 119.876923 119.592308 119.876923 
C 105.556944 119.876923 92.094542 125.453232 82.170041 135.377733 
C 72.24554 145.302235 66.669231 158.764636 66.669231 172.8 
C 66.669231 186.835364 72.24554 200.297765 82.170041 210.222267 
C 92.094542 220.146768 105.556944 225.723077 119.592308 225.723077 
z
" style="fill:none;stroke:#1dff00;stroke-linejoin:miter;"/>
   </g>
   <g id="patch_38">
    <path clip-path="url(#p18252970a3)" d="M 121.246154 227.376923 
C 135.720123 227.376923 149.603224 221.626354 159.837866 211.391712 
C 170.072508 201.157071 175.823077 187.273969 175.823077 172.8 
C 175.823077 158.326031 170.072508 144.442929 159.837866 134.208288 
C 149.603224 123.973646 135.720123 118.223077 121.246154 118.223077 
C 106.772185 118.223077 92.889083 123.973646 82.654441 134.208288 
C 72.4198 144.442929 66.669231 158.326031 66.669231 172.8 
C 66.669231 187.273969 72.4198 201.157071 82.654441 211.391712 
C 92.889083 221.626354 106.772185 227.376923 121.246154 227.376923 
z
" style="fill:none;stroke:#0eff00;stroke-linejoin:miter;"/>
   </g>
   <g id="patch_39">
    <path clip-path="url(#p18252970a3)" d="M 122.9 229.030769 
C 137.812574 229.030769 152.116376 223.105941 162.661158 212.561158 
C 173.205941 202.016376 179.130769 187.712574 179.130769 172.8 
C 179.130769 157.887426 173.205941 143.583624 162.661158 133.038842 
C 152.116376 122.494059 137.812574 116.569231 122.9 116.569231 
C 107.987426 116.569231 93.683624 122.494059 83.138842 133.038842 
C 72.594059 143.583624 66.669231 157.887426 66.669231 172.8 
C 66.669231 187.712574 72.594059 202.016376 83.138842 212.561158 
C 93.683624 223.105941 107.987426 229.030769 122.9 229.030769 
z
" style="fill:none;stroke:#00ff00;stroke-linejoin:miter;"/>
   </g>
   <g id="patch_40">
    <path clip-path="url(#p18252970a3)" d="M 124.553846 230.684615 
C 139.905026 230.684615 154.629527 224.585527 165.48445 213.730604 
C 176.339373 202.875681 182.438462 188.151179 182.438462 172.8 
C 182.438462 157.448821 176.339373 142.724319 165.48445 131.869396 
C 154.629527 121.014473 139.905026 114.915385 124.553846 114.915385 
C 109.202667 114.915385 94.478165 121.014473 83.623242 131.869396 
C 72.768319 142.724319 66.669231 157.448821 66.669231 172.8 
C 66.669231 188.151179 72.768319 202.875681 83.623242 213.730604 
C 94.478165 224.585527 109.202667 230.684615 124.553846 230.684615 
z
" style="fill:none;stroke:#00ff0f;stroke-linejoin:miter;"/>
   </g>
   <g id="patch_41">
    <path clip-path="url(#p18252970a3)" d="M 126.207692 232.338462 
C 141.997477 232.338462 157.142678 226.065114 168.307742 214.90005 
C 179.472806 203.734986 185.746154 188.589785 185.746154 172.8 
C 185.746154 157.010215 179.472806 141.865014 168.307742 130.69995 
C 157.142678 119.534886 141.997477 113.261538 126.207692 113.261538 
C 110.417908 113.261538 95.272706 119.534886 84.107642 130.69995 
C 72.942579 141.865014 66.669231 157.010215 66.669231 172.8 
C 66.669231 188.589785 72.942579 203.734986 84.107642 214.90005 
C 95.272706 226.065114 110.417908 232.338462 126.207692 232.338462 
z
" style="fill:none;stroke:#00ff1d;stroke-linejoin:miter;"/>
   </g>
   <g id="patch_42">
    <path clip-path="url(#p18252970a3)" d="M 127.861538 233.992308 
C 144.089928 233.992308 159.65583 227.5447 171.131034 216.069496 
C 182.606239 204.594291 189.053846 189.02839 189.053846 172.8 
C 189.053846 156.57161 182.606239 141.005709 171.131034 129.530504 
C 159.65583 118.0553 144.089928 111.607692 127.861538 111.607692 
C 111.633149 111.607692 96.067247 118.0553 84.592043 129.530504 
C 73.116838 141.005709 66.669231 156.57161 66.669231 172.8 
C 66.669231 189.02839 73.116838 204.594291 84.592043 216.069496 
C 96.067247 227.5447 111.633149 233.992308 127.861538 233.992308 
z
" style="fill:none;stroke:#00ff2b;stroke-linejoin:miter;"/>
   </g>
   <g id="patch_43">
    <path clip-path="url(#p18252970a3)" d="M 129.515385 235.646154 
C 146.182379 235.646154 162.168981 229.024287 173.954326 217.238942 
C 185.739671 205.453596 192.361538 189.466995 192.361538 172.8 
C 192.361538 156.133005 185.739671 140.146404 173.954326 128.361058 
C 162.168981 116.575713 146.182379 109.953846 129.515385 109.953846 
C 112.84839 109.953846 96.861788 116.575713 85.076443 128.361058 
C 73.291098 140.146404 66.669231 156.133005 66.669231 172.8 
C 66.669231 189.466995 73.291098 205.453596 85.076443 217.238942 
C 96.861788 229.024287 112.84839 235.646154 129.515385 235.646154 
z
" style="fill:none;stroke:#00ff3a;stroke-linejoin:miter;"/>
   </g>
   <g id="patch_44">
    <path clip-path="url(#p18252970a3)" d="M 131.169231 237.3 
C 148.274831 237.3 164.682132 230.503873 176.777618 218.408387 
C 188.873104 206.312902 195.669231 189.9056 195.669231 172.8 
C 195.669231 155.6944 188.873104 139.287098 176.777618 127.191613 
C 164.682132 115.096127 148.274831 108.3 131.169231 108.3 
C 114.063631 108.3 97.656329 115.096127 85.560843 127.191613 
C 73.465358 139.287098 66.669231 155.6944 66.669231 172.8 
C 66.669231 189.9056 73.465358 206.312902 85.560843 218.408387 
C 97.656329 230.503873 114.063631 237.3 131.169231 237.3 
z
" style="fill:none;stroke:#00ff48;stroke-linejoin:miter;"/>
   </g>
   <g id="patch_45">
    <path clip-path="url(#p18252970a3)" d="M 132.823077 238.953846 
C 150.367282 238.953846 167.195284 231.98346 179.60091 219.577833 
C 192.006537 207.172207 198.976923 190.344205 198.976923 172.8 
C 198.976923 155.255795 192.006537 138.427793 179.60091 126.022167 
C 167.195284 113.61654 150.367282 106.646154 132.823077 106.646154 
C 115.278872 106.646154 98.45087 113.61654 86.045244 126.022167 
C 73.639617 138.427793 66.669231 155.255795 66.669231 172.8 
C 66.669231 190.344205 73.639617 207.172207 86.045244 219.577833 
C 98.45087 231.98346 115.278872 238.953846 132.823077 238.953846 
z
" style="fill:none;stroke:#00ff56;stroke-linejoin:miter;"/>
   </g>
   <g id="patch_46">
    <path clip-path="url(#p18252970a3)" d="M 134.476923 240.607692 
C 152.459733 240.607692 169.708435 233.463046 182.424202 220.747279 
C 195.139969 208.031512 202.284615 190.78281 202.284615 172.8 
C 202.284615 154.81719 195.139969 137.568488 182.424202 124.852721 
C 169.708435 112.136954 152.459733 104.992308 134.476923 104.992308 
C 116.494113 104.992308 99.245411 112.136954 86.529644 124.852721 
C 73.813877 137.568488 66.669231 154.81719 66.669231 172.8 
C 66.669231 190.78281 73.813877 208.031512 86.529644 220.747279 
C 99.245411 233.463046 116.494113 240.607692 134.476923 240.607692 
z
" style="fill:none;stroke:#00ff64;stroke-linejoin:miter;"/>
   </g>
   <g id="patch_47">
    <path clip-path="url(#p18252970a3)" d="M 136.130769 242.261538 
C 154.552185 242.261538 172.221586 234.942633 185.247494 221.916725 
C 198.273402 208.890817 205.592308 191.221415 205.592308 172.8 
C 205.592308 154.378585 198.273402 136.709183 185.247494 123.683275 
C 172.221586 110.657367 154.552185 103.338462 136.130769 103.338462 
C 117.709354 103.338462 100.039952 110.657367 87.014044 123.683275 
C 73.988137 136.709183 66.669231 154.378585 66.669231 172.8 
C 66.669231 191.221415 73.988137 208.890817 87.014044 221.916725 
C 100.039952 234.942633 117.709354 242.261538 136.130769 242.261538 
z
" style="fill:none;stroke:#00ff72;stroke-linejoin:miter;"/>
   </g>
   <g id="patch_48">
    <path clip-path="url(#p18252970a3)" d="M 137.784615 243.915385 
C 156.644636 243.915385 174.734738 236.422219 188.070786 223.086171 
C 201.406834 209.750122 208.9 191.66002 208.9 172.8 
C 208.9 153.93998 201.406834 135.849878 188.070786 122.513829 
C 174.734738 109.177781 156.644636 101.684615 137.784615 101.684615 
C 118.924595 101.684615 100.834493 109.177781 87.498445 122.513829 
C 74.162396 135.849878 66.669231 153.93998 66.669231 172.8 
C 66.669231 191.66002 74.162396 209.750122 87.498445 223.086171 
C 100.834493 236.422219 118.924595 243.915385 137.784615 243.915385 
z
" style="fill:none;stroke:#00ff80;stroke-linejoin:miter;"/>
   </g>
   <g id="patch_49">
    <path clip-path="url(#p18252970a3)" d="M 139.438462 245.569231 
C 158.737087 245.569231 177.247889 237.901806 190.894078 224.255617 
C 204.540267 210.609428 212.207692 192.098626 212.207692 172.8 
C 212.207692 153.501374 204.540267 134.990572 190.894078 121.344383 
C 177.247889 107.698194 158.737087 100.030769 139.438462 100.030769 
C 120.139836 100.030769 101.629034 107.698194 87.982845 121.344383 
C 74.336656 134.990572 66.669231 153.501374 66.669231 172.8 
C 66.669231 192.098626 74.336656 210.609428 87.982845 224.255617 
C 101.629034 237.901806 120.139836 245.569231 139.438462 245.569231 
z
" style="fill:none;stroke:#00ff8e;stroke-linejoin:miter;"/>
   </g>
   <g id="patch_50">
    <path clip-path="url(#p18252970a3)" d="M 141.092308 247.223077 
C 160.829538 247.223077 179.76104 239.381392 193.71737 225.425062 
C 207.6737 211.468733 215.515385 192.537231 215.515385 172.8 
C 215.515385 153.062769 207.6737 134.131267 193.71737 120.174938 
C 179.76104 106.218608 160.829538 98.376923 141.092308 98.376923 
C 121.355077 98.376923 102.423575 106.218608 88.467245 120.174938 
C 74.510916 134.131267 66.669231 153.062769 66.669231 172.8 
C 66.669231 192.537231 74.510916 211.468733 88.467245 225.425062 
C 102.423575 239.381392 121.355077 247.223077 141.092308 247.223077 
z
" style="fill:none;stroke:#00ff9b;stroke-linejoin:miter;"/>
   </g>
   <g id="patch_51">
    <path clip-path="url(#p18252970a3)" d="M 142.746154 248.876923 
C 162.92199 248.876923 182.274192 240.860979 196.540662 226.594508 
C 210.807132 212.328038 218.823077 192.975836 218.823077 172.8 
C 218.823077 152.624164 210.807132 133.271962 196.540662 119.005492 
C 182.274192 104.739021 162.92199 96.723077 142.746154 96.723077 
C 122.570318 96.723077 103.218116 104.739021 88.951646 119.005492 
C 74.685175 133.271962 66.669231 152.624164 66.669231 172.8 
C 66.669231 192.975836 74.685175 212.328038 88.951646 226.594508 
C 103.218116 240.860979 122.570318 248.876923 142.746154 248.876923 
z
" style="fill:none;stroke:#00ffa9;stroke-linejoin:miter;"/>
   </g>
   <g id="patch_52">
    <path clip-path="url(#p18252970a3)" d="M 144.4 250.530769 
C 165.014441 250.530769 184.787343 242.340565 199.363954 227.763954 
C 213.940565 213.187343 222.130769 193.414441 222.130769 172.8 
C 222.130769 152.185559 213.940565 132.412657 199.363954 117.836046 
C 184.787343 103.259435 165.014441 95.069231 144.4 95.069231 
C 123.785559 95.069231 104.012657 103.259435 89.436046 117.836046 
C 74.859435 132.412657 66.669231 152.185559 66.669231 172.8 
C 66.669231 193.414441 74.859435 213.187343 89.436046 227.763954 
C 104.012657 242.340565 123.785559 250.530769 144.4 250.530769 
z
" style="fill:none;stroke:#00ffb7;stroke-linejoin:miter;"/>
   </g>
   <g id="patch_53">
    <path clip-path="url(#p18252970a3)" d="M 146.053846 252.184615 
C 167.106892 252.184615 187.300494 243.820152 202.187246 228.9334 
C 217.073998 214.046648 225.438462 193.853046 225.438462 172.8 
C 225.438462 151.746954 217.073998 131.553352 202.187246 116.6666 
C 187.300494 101.779848 167.106892 93.415385 146.053846 93.415385 
C 125.0008 93.415385 104.807198 101.779848 89.920446 116.6666 
C 75.033695 131.553352 66.669231 151.746954 66.669231 172.8 
C 66.669231 193.853046 75.033695 214.046648 89.920446 228.9334 
C 104.807198 243.820152 125.0008 252.184615 146.053846 252.184615 
z
" style="fill:none;stroke:#00ffc5;stroke-linejoin:miter;"/>
   </g>
   <g id="patch_54">
    <path clip-path="url(#p18252970a3)" d="M 147.707692 253.838462 
C 169.199344 253.838462 189.813646 245.299738 205.010538 230.102846 
C 220.20743 214.905953 228.746154 194.291651 228.746154 172.8 
C 228.746154 151.308349 220.20743 130.694047 205.010538 115.497154 
C 189.813646 100.300262 169.199344 91.761538 147.707692 91.761538 
C 126.216041 91.761538 105.601739 100.300262 90.404847 115.497154 
C 75.207954 130.694047 66.669231 151.308349 66.669231 172.8 
C 66.669231 194.291651 75.207954 214.905953 90.404847 230.102846 
C 105.601739 245.299738 126.216041 253.838462 147.707692 253.838462 
z
" style="fill:none;stroke:#00ffd2;stroke-linejoin:miter;"/>
   </g>
   <g id="patch_55">
    <path clip-path="url(#p18252970a3)" d="M 149.361538 255.492308 
C 171.291795 255.492308 192.326797 246.779324 207.83383 231.272292 
C 223.340863 215.765259 232.053846 194.730256 232.053846 172.8 
C 232.053846 150.869744 223.340863 129.834741 207.83383 114.327708 
C 192.326797 98.820676 171.291795 90.107692 149.361538 90.107692 
C 127.431282 90.107692 106.39628 98.820676 90.889247 114.327708 
C 75.382214 129.834741 66.669231 150.869744 66.669231 172.8 
C 66.669231 194.730256 75.382214 215.765259 90.889247 231.272292 
C 106.39628 246.779324 127.431282 255.492308 149.361538 255.492308 
z
" style="fill:none;stroke:#00ffe0;stroke-linejoin:miter;"/>
   </g>
   <g id="patch_56">
    <path clip-path="url(#p18252970a3)" d="M 151.015385 257.146154 
C 173.384246 257.146154 194.839948 248.258911 210.657122 232.441737 
C 226.474296 216.624564 235.361538 195.168861 235.361538 172.8 
C 235.361538 150.431139 226.474296 128.975436 210.657122 113.158263 
C 194.839948 97.341089 173.384246 88.453846 151.015385 88.453846 
C 128.646523 88.453846 107.190821 97.341089 91.373647 113.158263 
C 75.556474 128.975436 66.669231 150.431139 66.669231 172.8 
C 66.669231 195.168861 75.556474 216.624564 91.373647 232.441737 
C 107.190821 248.258911 128.646523 257.146154 151.015385 257.146154 
z
" style="fill:none;stroke:#00ffed;stroke-linejoin:miter;"/>
   </g>
   <g id="patch_57">
    <path clip-path="url(#p18252970a3)" d="M 152.669231 258.8 
C 175.476697 258.8 197.3531 249.738497 213.480414 233.611183 
C 229.607728 217.483869 238.669231 195.607467 238.669231 172.8 
C 238.669231 149.992533 229.607728 128.116131 213.480414 111.988817 
C 197.3531 95.861503 175.476697 86.8 152.669231 86.8 
C 129.861764 86.8 107.985362 95.861503 91.858048 111.988817 
C 75.730733 128.116131 66.669231 149.992533 66.669231 172.8 
C 66.669231 195.607467 75.730733 217.483869 91.858048 233.611183 
C 107.985362 249.738497 129.861764 258.8 152.669231 258.8 
z
" style="fill:none;stroke:#00fffa;stroke-linejoin:miter;"/>
   </g>
   <g id="patch_58">
    <path clip-path="url(#p18252970a3)" d="M 154.323077 260.453846 
C 177.569149 260.453846 199.866251 251.218084 216.303706 234.780629 
C 232.741161 218.343174 241.976923 196.046072 241.976923 172.8 
C 241.976923 149.553928 232.741161 127.256826 216.303706 110.819371 
C 199.866251 94.381916 177.569149 85.146154 154.323077 85.146154 
C 131.077005 85.146154 108.779903 94.381916 92.342448 110.819371 
C 75.904993 127.256826 66.669231 149.553928 66.669231 172.8 
C 66.669231 196.046072 75.904993 218.343174 92.342448 234.780629 
C 108.779903 251.218084 131.077005 260.453846 154.323077 260.453846 
z
" style="fill:none;stroke:#00f7ff;stroke-linejoin:miter;"/>
   </g>
   <g id="patch_59">
    <path clip-path="url(#p18252970a3)" d="M 155.976923 262.107692 
C 179.6616 262.107692 202.379402 252.69767 219.126998 235.950075 
C 235.874594 219.202479 245.284615 196.484677 245.284615 172.8 
C 245.284615 149.115323 235.874594 126.397521 219.126998 109.649925 
C 202.379402 92.90233 179.6616 83.492308 155.976923 83.492308 
C 132.292246 83.492308 109.574444 92.90233 92.826848 109.649925 
C 76.079253 126.397521 66.669231 149.115323 66.669231 172.8 
C 66.669231 196.484677 76.079253 219.202479 92.826848 235.950075 
C 109.574444 252.69767 132.292246 262.107692 155.976923 262.107692 
z
" style="fill:none;stroke:#00e9ff;stroke-linejoin:miter;"/>
   </g>
   <g id="patch_60">
    <path clip-path="url(#p18252970a3)" d="M 157.630769 263.761538 
C 181.754051 263.761538 204.892554 254.177257 221.95029 237.119521 
C 239.008026 220.061784 248.592308 196.923282 248.592308 172.8 
C 248.592308 148.676718 239.008026 125.538216 221.95029 108.480479 
C 204.892554 91.422743 181.754051 81.838462 157.630769 81.838462 
C 133.507487 81.838462 110.368985 91.422743 93.311249 108.480479 
C 76.253512 125.538216 66.669231 148.676718 66.669231 172.8 
C 66.669231 196.923282 76.253512 220.061784 93.311249 237.119521 
C 110.368985 254.177257 133.507487 263.761538 157.630769 263.761538 
z
" style="fill:none;stroke:#00dcff;stroke-linejoin:miter;"/>
   </g>
   <g id="patch_61">
    <path clip-path="url(#p18252970a3)" d="M 159.284615 265.415385 
C 183.846502 265.415385 207.405705 255.656843 224.773582 238.288967 
C 242.141459 220.92109 251.9 197.361887 251.9 172.8 
C 251.9 148.238113 242.141459 124.67891 224.773582 107.311033 
C 207.405705 89.943157 183.846502 80.184615 159.284615 80.184615 
C 134.722728 80.184615 111.163526 89.943157 93.795649 107.311033 
C 76.427772 124.67891 66.669231 148.238113 66.669231 172.8 
C 66.669231 197.361887 76.427772 220.92109 93.795649 238.288967 
C 111.163526 255.656843 134.722728 265.415385 159.284615 265.415385 
z
" style="fill:none;stroke:#00cfff;stroke-linejoin:miter;"/>
   </g>
   <g id="patch_62">
    <path clip-path="url(#p18252970a3)" d="M 160.938462 267.069231 
C 185.938954 267.069231 209.918856 257.13643 227.596874 239.458412 
C 245.274891 221.780395 255.207692 197.800492 255.207692 172.8 
C 255.207692 147.799508 245.274891 123.819605 227.596874 106.141588 
C 209.918856 88.46357 185.938954 78.530769 160.938462 78.530769 
C 135.937969 78.530769 111.958067 88.46357 94.280049 106.141588 
C 76.602032 123.819605 66.669231 147.799508 66.669231 172.8 
C 66.669231 197.800492 76.602032 221.780395 94.280049 239.458412 
C 111.958067 257.13643 135.937969 267.069231 160.938462 267.069231 
z
" style="fill:none;stroke:#00c2ff;stroke-linejoin:miter;"/>
   </g>
   <g id="patch_63">
    <path clip-path="url(#p18252970a3)" d="M 162.592308 268.723077 
C 188.031405 268.723077 212.432008 258.616016 230.420166 240.627858 
C 248.408324 222.6397 258.515385 198.239097 258.515385 172.8 
C 258.515385 147.360903 248.408324 122.9603 230.420166 104.972142 
C 212.432008 86.983984 188.031405 76.876923 162.592308 76.876923 
C 137.15321 76.876923 112.752608 86.983984 94.76445 104.972142 
C 76.776291 122.9603 66.669231 147.360903 66.669231 172.8 
C 66.669231 198.239097 76.776291 222.6397 94.76445 240.627858 
C 112.752608 258.616016 137.15321 268.723077 162.592308 268.723077 
z
" style="fill:none;stroke:#00b6ff;stroke-linejoin:miter;"/>
   </g>
   <g id="patch_64">
    <path clip-path="url(#p18252970a3)" d="M 164.246154 270.376923 
C 190.123856 270.376923 214.945159 260.095603 233.243458 241.797304 
C 251.541757 223.499005 261.823077 198.677702 261.823077 172.8 
C 261.823077 146.922298 251.541757 122.100995 233.243458 103.802696 
C 214.945159 85.504397 190.123856 75.223077 164.246154 75.223077 
C 138.368451 75.223077 113.547149 85.504397 95.24885 103.802696 
C 76.950551 122.100995 66.669231 146.922298 66.669231 172.8 
C 66.669231 198.677702 76.950551 223.499005 95.24885 241.797304 
C 113.547149 260.095603 138.368451 270.376923 164.246154 270.376923 
z
" style="fill:none;stroke:#00a9ff;stroke-linejoin:miter;"/>
   </g>
   <g id="patch_65">
    <path clip-path="url(#p18252970a3)" d="M 165.9 272.030769 
C 192.216308 272.030769 217.45831 261.575189 236.06675 242.96675 
C 254.675189 224.35831 265.130769 199.116308 265.130769 172.8 
C 265.130769 146.483692 254.675189 121.24169 236.06675 102.63325 
C 217.45831 84.024811 192.216308 73.569231 165.9 73.569231 
C 139.583692 73.569231 114.34169 84.024811 95.73325 102.63325 
C 77.124811 121.24169 66.669231 146.483692 66.669231 172.8 
C 66.669231 199.116308 77.124811 224.35831 95.73325 242.96675 
C 114.34169 261.575189 139.583692 272.030769 165.9 272.030769 
z
" style="fill:none;stroke:#009cff;stroke-linejoin:miter;"/>
   </g>
   <g id="patch_66">
    <path clip-path="url(#p18252970a3)" d="M 167.553846 273.684615 
C 194.308759 273.684615 219.971462 263.054776 238.890042 244.136196 
C 257.808622 225.217615 268.438462 199.554913 268.438462 172.8 
C 268.438462 146.045087 257.808622 120.382385 238.890042 101.463804 
C 219.971462 82.545224 194.308759 71.915385 167.553846 71.915385 
C 140.798933 71.915385 115.136231 82.545224 96.21765 101.463804 
C 77.29907 120.382385 66.669231 146.045087 66.669231 172.8 
C 66.669231 199.554913 77.29907 225.217615 96.21765 244.136196 
C 115.136231 263.054776 140.798933 273.684615 167.553846 273.684615 
z
" style="fill:none;stroke:#0090ff;stroke-linejoin:miter;"/>
   </g>
   <g id="patch_67">
    <path clip-path="url(#p18252970a3)" d="M 169.207692 275.338462 
C 196.40121 275.338462 222.484613 264.534362 241.713334 245.305641 
C 260.942055 226.076921 271.746154 199.993518 271.746154 172.8 
C 271.746154 145.606482 260.942055 119.523079 241.713334 100.294359 
C 222.484613 81.065638 196.40121 70.261538 169.207692 70.261538 
C 142.014174 70.261538 115.930772 81.065638 96.702051 100.294359 
C 77.47333 119.523079 66.669231 145.606482 66.669231 172.8 
C 66.669231 199.993518 77.47333 226.076921 96.702051 245.305641 
C 115.930772 264.534362 142.014174 275.338462 169.207692 275.338462 
z
" style="fill:none;stroke:#0083ff;stroke-linejoin:miter;"/>
   </g>
   <g id="patch_68">
    <path clip-path="url(#p18252970a3)" d="M 170.861538 276.992308 
C 198.493661 276.992308 224.997764 266.013949 244.536626 246.475087 
C 264.075487 226.936226 275.053846 200.432123 275.053846 172.8 
C 275.053846 145.167877 264.075487 118.663774 244.536626 99.124913 
C 224.997764 79.586051 198.493661 68.607692 170.861538 68.607692 
C 143.229415 68.607692 116.725313 79.586051 97.186451 99.124913 
C 77.64759 118.663774 66.669231 145.167877 66.669231 172.8 
C 66.669231 200.432123 77.64759 226.936226 97.186451 246.475087 
C 116.725313 266.013949 143.229415 276.992308 170.861538 276.992308 
z
" style="fill:none;stroke:#0077ff;stroke-linejoin:miter;"/>
   </g>
   <g id="patch_69">
    <path clip-path="url(#p18252970a3)" d="M 172.515385 278.646154 
C 200.586113 278.646154 227.510916 267.493535 247.359918 247.644533 
C 267.20892 227.795531 278.361538 200.870728 278.361538 172.8 
C 278.361538 144.729272 267.20892 117.804469 247.359918 97.955467 
C 227.510916 78.106465 200.586113 66.953846 172.515385 66.953846 
C 144.444656 66.953846 117.519854 78.106465 97.670851 97.955467 
C 77.821849 117.804469 66.669231 144.729272 66.669231 172.8 
C 66.669231 200.870728 77.821849 227.795531 97.670851 247.644533 
C 117.519854 267.493535 144.444656 278.646154 172.515385 278.646154 
z
" style="fill:none;stroke:#006aff;stroke-linejoin:miter;"/>
   </g>
   <g id="patch_70">
    <path clip-path="url(#p18252970a3)" d="M 174.169231 280.3 
C 202.678564 280.3 230.024067 268.973122 250.18321 248.813979 
C 270.342353 228.654836 281.669231 201.309333 281.669231 172.8 
C 281.669231 144.290667 270.342353 116.945164 250.18321 96.786021 
C 230.024067 76.626878 202.678564 65.3 174.169231 65.3 
C 145.659898 65.3 118.314395 76.626878 98.155252 96.786021 
C 77.996109 116.945164 66.669231 144.290667 66.669231 172.8 
C 66.669231 201.309333 77.996109 228.654836 98.155252 248.813979 
C 118.314395 268.973122 145.659898 280.3 174.169231 280.3 
z
" style="fill:none;stroke:#005eff;stroke-linejoin:miter;"/>
   </g>
   <g id="patch_71">
    <path clip-path="url(#p18252970a3)" d="M 175.823077 281.953846 
C 204.771015 281.953846 232.537218 270.452708 253.006502 249.983425 
C 273.475785 229.514141 284.976923 201.747938 284.976923 172.8 
C 284.976923 143.852062 273.475785 116.085859 253.006502 95.616575 
C 232.537218 75.147292 204.771015 63.646154 175.823077 63.646154 
C 146.875139 63.646154 119.108936 75.147292 98.639652 95.616575 
C 78.170369 116.085859 66.669231 143.852062 66.669231 172.8 
C 66.669231 201.747938 78.170369 229.514141 98.639652 249.983425 
C 119.108936 270.452708 146.875139 281.953846 175.823077 281.953846 
z
" style="fill:none;stroke:#0052ff;stroke-linejoin:miter;"/>
   </g>
   <g id="patch_72">
    <path clip-path="url(#p18252970a3)" d="M 177.476923 283.607692 
C 206.863467 283.607692 235.05037 271.932295 255.829794 251.152871 
C 276.609218 230.373446 288.284615 202.186544 288.284615 172.8 
C 288.284615 143.413456 276.609218 115.226554 255.829794 94.447129 
C 235.05037 73.667705 206.863467 61.992308 177.476923 61.992308 
C 148.09038 61.992308 119.903477 73.667705 99.124052 94.447129 
C 78.344628 115.226554 66.669231 143.413456 66.669231 172.8 
C 66.669231 202.186544 78.344628 230.373446 99.124052 251.152871 
C 119.903477 271.932295 148.09038 283.607692 177.476923 283.607692 
z
" style="fill:none;stroke:#0046ff;stroke-linejoin:miter;"/>
   </g>
   <g id="patch_73">
    <path clip-path="url(#p18252970a3)" d="M 179.130769 285.261538 
C 208.955918 285.261538 237.563521 273.411881 258.653086 252.322316 
C 279.742651 231.232752 291.592308 202.625149 291.592308 172.8 
C 291.592308 142.974851 279.742651 114.367248 258.653086 93.277684 
C 237.563521 72.188119 208.955918 60.338462 179.130769 60.338462 
C 149.305621 60.338462 120.698018 72.188119 99.608453 93.277684 
C 78.518888 114.367248 66.669231 142.974851 66.669231 172.8 
C 66.669231 202.625149 78.518888 231.232752 99.608453 252.322316 
C 120.698018 273.411881 149.305621 285.261538 179.130769 285.261538 
z
" style="fill:none;stroke:#003aff;stroke-linejoin:miter;"/>
   </g>
   <g id="patch_74">
    <path clip-path="url(#p18252970a3)" d="M 180.784615 286.915385 
C 211.048369 286.915385 240.076672 274.891468 261.476378 253.491762 
C 282.876083 232.092057 294.9 203.063754 294.9 172.8 
C 294.9 142.536246 282.876083 113.507943 261.476378 92.108238 
C 240.076672 70.708532 211.048369 58.684615 180.784615 58.684615 
C 150.520862 58.684615 121.492559 70.708532 100.092853 92.108238 
C 78.693148 113.507943 66.669231 142.536246 66.669231 172.8 
C 66.669231 203.063754 78.693148 232.092057 100.092853 253.491762 
C 121.492559 274.891468 150.520862 286.915385 180.784615 286.915385 
z
" style="fill:none;stroke:#002eff;stroke-linejoin:miter;"/>
   </g>
   <g id="patch_75">
    <path clip-path="url(#p18252970a3)" d="M 182.438462 288.569231 
C 213.14082 288.569231 242.589824 276.371054 264.29967 254.661208 
C 286.009516 232.951362 298.207692 203.502359 298.207692 172.8 
C 298.207692 142.097641 286.009516 112.648638 264.29967 90.938792 
C 242.589824 69.228946 213.14082 57.030769 182.438462 57.030769 
C 151.736103 57.030769 122.2871 69.228946 100.577253 90.938792 
C 78.867407 112.648638 66.669231 142.097641 66.669231 172.8 
C 66.669231 203.502359 78.867407 232.951362 100.577253 254.661208 
C 122.2871 276.371054 151.736103 288.569231 182.438462 288.569231 
z
" style="fill:none;stroke:#0022ff;stroke-linejoin:miter;"/>
   </g>
   <g id="patch_76">
    <path clip-path="url(#p18252970a3)" d="M 184.092308 290.223077 
C 215.233272 290.223077 245.102975 277.850641 267.122962 255.830654 
C 289.142948 233.810667 301.515385 203.940964 301.515385 172.8 
C 301.515385 141.659036 289.142948 111.789333 267.122962 89.769346 
C 245.102975 67.749359 215.233272 55.376923 184.092308 55.376923 
C 152.951344 55.376923 123.081641 67.749359 101.061654 89.769346 
C 79.041667 111.789333 66.669231 141.659036 66.669231 172.8 
C 66.669231 203.940964 79.041667 233.810667 101.061654 255.830654 
C 123.081641 277.850641 152.951344 290.223077 184.092308 290.223077 
z
" style="fill:none;stroke:#0017ff;stroke-linejoin:miter;"/>
   </g>
   <g id="patch_77">
    <path clip-path="url(#p18252970a3)" d="M 185.746154 291.876923 
C 217.325723 291.876923 247.616126 279.330227 269.946254 257.0001 
C 292.276381 234.669972 304.823077 204.379569 304.823077 172.8 
C 304.823077 141.220431 292.276381 110.930028 269.946254 88.5999 
C 247.616126 66.269773 217.325723 53.723077 185.746154 53.723077 
C 154.166585 53.723077 123.876182 66.269773 101.546054 88.5999 
C 79.215927 110.930028 66.669231 141.220431 66.669231 172.8 
C 66.669231 204.379569 79.215927 234.669972 101.546054 257.0001 
C 123.876182 279.330227 154.166585 291.876923 185.746154 291.876923 
z
" style="fill:none;stroke:#000bff;stroke-linejoin:miter;"/>
   </g>
   <g id="patch_78">
    <path clip-path="url(#p18252970a3)" d="M 187.4 293.530769 
C 219.418174 293.530769 250.129277 280.809814 272.769546 258.169546 
C 295.409814 235.529277 308.130769 204.818174 308.130769 172.8 
C 308.130769 140.781826 295.409814 110.070723 272.769546 87.430454 
C 250.129277 64.790186 219.418174 52.069231 187.4 52.069231 
C 155.381826 52.069231 124.670723 64.790186 102.030454 87.430454 
C 79.390186 110.070723 66.669231 140.781826 66.669231 172.8 
C 66.669231 204.818174 79.390186 235.529277 102.030454 258.169546 
C 124.670723 280.809814 155.381826 293.530769 187.4 293.530769 
z
" style="fill:none;stroke:#0000ff;stroke-linejoin:miter;"/>
   </g>
   <g id="patch_79">
    <path clip-path="url(#p18252970a3)" d="M 189.053846 295.184615 
C 221.510626 295.184615 252.642429 282.2894 275.592838 259.338991 
C 298.543246 236.388583 311.438462 205.256779 311.438462 172.8 
C 311.438462 140.343221 298.543246 109.211417 275.592838 86.261009 
C 252.642429 63.3106 221.510626 50.415385 189.053846 50.415385 
C 156.597067 50.415385 125.465264 63.3106 102.514855 86.261009 
C 79.564446 109.211417 66.669231 140.343221 66.669231 172.8 
C 66.669231 205.256779 79.564446 236.388583 102.514855 259.338991 
C 125.465264 282.2894 156.597067 295.184615 189.053846 295.184615 
z
" style="fill:none;stroke:#0c00ff;stroke-linejoin:miter;"/>
   </g>
   <g id="patch_80">
    <path clip-path="url(#p18252970a3)" d="M 190.707692 296.838462 
C 223.603077 296.838462 255.15558 283.768987 278.41613 260.508437 
C 301.676679 237.247888 314.746154 205.695385 314.746154 172.8 
C 314.746154 139.904615 301.676679 108.352112 278.41613 85.091563 
C 255.15558 61.831013 223.603077 48.761538 190.707692 48.761538 
C 157.812308 48.761538 126.259804 61.831013 102.999255 85.091563 
C 79.738706 108.352112 66.669231 139.904615 66.669231 172.8 
C 66.669231 205.695385 79.738706 237.247888 102.999255 260.508437 
C 126.259804 283.768987 157.812308 296.838462 190.707692 296.838462 
z
" style="fill:none;stroke:#1700ff;stroke-linejoin:miter;"/>
   </g>
   <g id="patch_81">
    <path clip-path="url(#p18252970a3)" d="M 192.361538 298.492308 
C 225.695528 298.492308 257.668731 285.248573 281.239422 261.677883 
C 304.810112 238.107193 318.053846 206.13399 318.053846 172.8 
C 318.053846 139.46601 304.810112 107.492807 281.239422 83.922117 
C 257.668731 60.351427 225.695528 47.107692 192.361538 47.107692 
C 159.027549 47.107692 127.054345 60.351427 103.483655 83.922117 
C 79.912965 107.492807 66.669231 139.46601 66.669231 172.8 
C 66.669231 206.13399 79.912965 238.107193 103.483655 261.677883 
C 127.054345 285.248573 159.027549 298.492308 192.361538 298.492308 
z
" style="fill:none;stroke:#2200ff;stroke-linejoin:miter;"/>
   </g>
   <g id="patch_82">
    <path clip-path="url(#p18252970a3)" d="M 194.015385 300.146154 
C 227.787979 300.146154 260.181883 286.72816 284.062714 262.847329 
C 307.943544 238.966498 321.361538 206.572595 321.361538 172.8 
C 321.361538 139.027405 307.943544 106.633502 284.062714 82.752671 
C 260.181883 58.87184 227.787979 45.453846 194.015385 45.453846 
C 160.24279 45.453846 127.848886 58.87184 103.968056 82.752671 
C 80.087225 106.633502 66.669231 139.027405 66.669231 172.8 
C 66.669231 206.572595 80.087225 238.966498 103.968056 262.847329 
C 127.848886 286.72816 160.24279 300.146154 194.015385 300.146154 
z
" style="fill:none;stroke:#2d00ff;stroke-linejoin:miter;"/>
   </g>
   <g id="patch_83">
    <path clip-path="url(#p18252970a3)" d="M 195.669231 301.8 
C 229.880431 301.8 262.695034 288.207746 286.886006 264.016775 
C 311.076977 239.825803 324.669231 207.0112 324.669231 172.8 
C 324.669231 138.5888 311.076977 105.774197 286.886006 81.583225 
C 262.695034 57.392254 229.880431 43.8 195.669231 43.8 
C 161.458031 43.8 128.643427 57.392254 104.452456 81.583225 
C 80.261485 105.774197 66.669231 138.5888 66.669231 172.8 
C 66.669231 207.0112 80.261485 239.825803 104.452456 264.016775 
C 128.643427 288.207746 161.458031 301.8 195.669231 301.8 
z
" style="fill:none;stroke:#3800ff;stroke-linejoin:miter;"/>
   </g>
   <g id="patch_84">
    <path clip-path="url(#p18252970a3)" d="M 197.323077 303.453846 
C 231.972882 303.453846 265.208185 289.687333 289.709298 265.186221 
C 314.21041 240.685109 327.976923 207.449805 327.976923 172.8 
C 327.976923 138.150195 314.21041 104.914891 289.709298 80.413779 
C 265.208185 55.912667 231.972882 42.146154 197.323077 42.146154 
C 162.673272 42.146154 129.437968 55.912667 104.936856 80.413779 
C 80.435744 104.914891 66.669231 138.150195 66.669231 172.8 
C 66.669231 207.449805 80.435744 240.685109 104.936856 265.186221 
C 129.437968 289.687333 162.673272 303.453846 197.323077 303.453846 
z
" style="fill:none;stroke:#4300ff;stroke-linejoin:miter;"/>
   </g>
   <g id="patch_85">
    <path clip-path="url(#p18252970a3)" d="M 198.976923 305.107692 
C 234.065333 305.107692 267.721337 291.166919 292.53259 266.355666 
C 317.343842 241.544414 331.284615 207.88841 331.284615 172.8 
C 331.284615 137.71159 317.343842 104.055586 292.53259 79.244334 
C 267.721337 54.433081 234.065333 40.492308 198.976923 40.492308 
C 163.888513 40.492308 130.232509 54.433081 105.421257 79.244334 
C 80.610004 104.055586 66.669231 137.71159 66.669231 172.8 
C 66.669231 207.88841 80.610004 241.544414 105.421257 266.355666 
C 130.232509 291.166919 163.888513 305.107692 198.976923 305.107692 
z
" style="fill:none;stroke:#4e00ff;stroke-linejoin:miter;"/>
   </g>
   <g id="patch_86">
    <path clip-path="url(#p18252970a3)" d="M 200.630769 306.761538 
C 236.157785 306.761538 270.234488 292.646506 295.355881 267.525112 
C 320.477275 242.403719 334.592308 208.327015 334.592308 172.8 
C 334.592308 137.272985 320.477275 103.196281 295.355881 78.074888 
C 270.234488 52.953494 236.157785 38.838462 200.630769 38.838462 
C 165.103754 38.838462 131.02705 52.953494 105.905657 78.074888 
C 80.784264 103.196281 66.669231 137.272985 66.669231 172.8 
C 66.669231 208.327015 80.784264 242.403719 105.905657 267.525112 
C 131.02705 292.646506 165.103754 306.761538 200.630769 306.761538 
z
" style="fill:none;stroke:#5800ff;stroke-linejoin:miter;"/>
   </g>
   <g id="patch_87">
    <path clip-path="url(#p18252970a3)" d="M 202.284615 308.415385 
C 238.250236 308.415385 272.747639 294.126092 298.179173 268.694558 
C 323.610708 243.263024 337.9 208.76562 337.9 172.8 
C 337.9 136.83438 323.610708 102.336976 298.179173 76.905442 
C 272.747639 51.473908 238.250236 37.184615 202.284615 37.184615 
C 166.318995 37.184615 131.821591 51.473908 106.390057 76.905442 
C 80.958523 102.336976 66.669231 136.83438 66.669231 172.8 
C 66.669231 208.76562 80.958523 243.263024 106.390057 268.694558 
C 131.821591 294.126092 166.318995 308.415385 202.284615 308.415385 
z
" style="fill:none;stroke:#6300ff;stroke-linejoin:miter;"/>
   </g>
   <g id="patch_88">
    <path clip-path="url(#p18252970a3)" d="M 203.938462 310.069231 
C 240.342687 310.069231 275.260791 295.605679 301.002465 269.864004 
C 326.74414 244.122329 341.207692 209.204226 341.207692 172.8 
C 341.207692 136.395774 326.74414 101.477671 301.002465 75.735996 
C 275.260791 49.994321 240.342687 35.530769 203.938462 35.530769 
C 167.534236 35.530769 132.616132 49.994321 106.874458 75.735996 
C 81.132783 101.477671 66.669231 136.395774 66.669231 172.8 
C 66.669231 209.204226 81.132783 244.122329 106.874458 269.864004 
C 132.616132 295.605679 167.534236 310.069231 203.938462 310.069231 
z
" style="fill:none;stroke:#6d00ff;stroke-linejoin:miter;"/>
   </g>
   <g id="patch_89">
    <path clip-path="url(#p18252970a3)" d="M 205.592308 311.723077 
C 242.435138 311.723077 277.773942 297.085265 303.825757 271.03345 
C 329.877573 244.981634 344.515385 209.642831 344.515385 172.8 
C 344.515385 135.957169 329.877573 100.618366 303.825757 74.56655 
C 277.773942 48.514735 242.435138 33.876923 205.592308 33.876923 
C 168.749477 33.876923 133.410673 48.514735 107.358858 74.56655 
C 81.307043 100.618366 66.669231 135.957169 66.669231 172.8 
C 66.669231 209.642831 81.307043 244.981634 107.358858 271.03345 
C 133.410673 297.085265 168.749477 311.723077 205.592308 311.723077 
z
" style="fill:none;stroke:#7700ff;stroke-linejoin:miter;"/>
   </g>
   <g id="patch_90">
    <path clip-path="url(#p18252970a3)" d="M 207.246154 313.376923 
C 244.52759 313.376923 280.287093 298.564852 306.649049 272.202896 
C 333.011005 245.84094 347.823077 210.081436 347.823077 172.8 
C 347.823077 135.518564 333.011005 99.75906 306.649049 73.397104 
C 280.287093 47.035148 244.52759 32.223077 207.246154 32.223077 
C 169.964718 32.223077 134.205214 47.035148 107.843258 73.397104 
C 81.481302 99.75906 66.669231 135.518564 66.669231 172.8 
C 66.669231 210.081436 81.481302 245.84094 107.843258 272.202896 
C 134.205214 298.564852 169.964718 313.376923 207.246154 313.376923 
z
" style="fill:none;stroke:#8100ff;stroke-linejoin:miter;"/>
   </g>
   <g id="patch_91">
    <path clip-path="url(#p18252970a3)" d="M 208.9 315.030769 
C 246.620041 315.030769 282.800245 300.044438 309.472341 273.372341 
C 336.144438 246.700245 351.130769 210.520041 351.130769 172.8 
C 351.130769 135.079959 336.144438 98.899755 309.472341 72.227659 
C 282.800245 45.555562 246.620041 30.569231 208.9 30.569231 
C 171.179959 30.569231 134.999755 45.555562 108.327659 72.227659 
C 81.655562 98.899755 66.669231 135.079959 66.669231 172.8 
C 66.669231 210.520041 81.655562 246.700245 108.327659 273.372341 
C 134.999755 300.044438 171.179959 315.030769 208.9 315.030769 
z
" style="fill:none;stroke:#8b00ff;stroke-linejoin:miter;"/>
   </g>
   <g id="patch_92">
    <path clip-path="url(#p18252970a3)" d="M 210.553846 316.684615 
C 248.712492 316.684615 285.313396 301.524025 312.295633 274.541787 
C 339.277871 247.55955 354.438462 210.958646 354.438462 172.8 
C 354.438462 134.641354 339.277871 98.04045 312.295633 71.058213 
C 285.313396 44.075975 248.712492 28.915385 210.553846 28.915385 
C 172.3952 28.915385 135.794296 44.075975 108.812059 71.058213 
C 81.829822 98.04045 66.669231 134.641354 66.669231 172.8 
C 66.669231 210.958646 81.829822 247.55955 108.812059 274.541787 
C 135.794296 301.524025 172.3952 316.684615 210.553846 316.684615 
z
" style="fill:none;stroke:#9500ff;stroke-linejoin:miter;"/>
   </g>
   <g id="patch_93">
    <path clip-path="url(#p18252970a3)" d="M 212.207692 318.338462 
C 250.804943 318.338462 287.826547 303.003611 315.118925 275.711233 
C 342.411303 248.418855 357.746154 211.397251 357.746154 172.8 
C 357.746154 134.202749 342.411303 97.181145 315.118925 69.888767 
C 287.826547 42.596389 250.804943 27.261538 212.207692 27.261538 
C 173.610441 27.261538 136.588837 42.596389 109.296459 69.888767 
C 82.004081 97.181145 66.669231 134.202749 66.669231 172.8 
C 66.669231 211.397251 82.004081 248.418855 109.296459 275.711233 
C 136.588837 303.003611 173.610441 318.338462 212.207692 318.338462 
z
" style="fill:none;stroke:#9f00ff;stroke-linejoin:miter;"/>
   </g>
   <g id="patch_94">
    <path clip-path="url(#p18252970a3)" d="M 213.861538 319.992308 
C 252.897395 319.992308 290.339699 304.483198 317.942217 276.880679 
C 345.544736 249.27816 361.053846 211.835856 361.053846 172.8 
C 361.053846 133.764144 345.544736 96.32184 317.942217 68.719321 
C 290.339699 41.116802 252.897395 25.607692 213.861538 25.607692 
C 174.825682 25.607692 137.383378 41.116802 109.78086 68.719321 
C 82.178341 96.32184 66.669231 133.764144 66.669231 172.8 
C 66.669231 211.835856 82.178341 249.27816 109.78086 276.880679 
C 137.383378 304.483198 174.825682 319.992308 213.861538 319.992308 
z
" style="fill:none;stroke:#a900ff;stroke-linejoin:miter;"/>
   </g>
   <g id="patch_95">
    <path clip-path="url(#p18252970a3)" d="M 215.515385 321.646154 
C 254.989846 321.646154 292.85285 305.962784 320.765509 278.050125 
C 348.678169 250.137465 364.361538 212.274461 364.361538 172.8 
C 364.361538 133.325539 348.678169 95.462535 320.765509 67.549875 
C 292.85285 39.637216 254.989846 23.953846 215.515385 23.953846 
C 176.040923 23.953846 138.177919 39.637216 110.26526 67.549875 
C 82.352601 95.462535 66.669231 133.325539 66.669231 172.8 
C 66.669231 212.274461 82.352601 250.137465 110.26526 278.050125 
C 138.177919 305.962784 176.040923 321.646154 215.515385 321.646154 
z
" style="fill:none;stroke:#b200ff;stroke-linejoin:miter;"/>
   </g>
   <g id="patch_96">
    <path clip-path="url(#p18252970a3)" d="M 217.169231 323.3 
C 257.082297 323.3 295.366001 307.442371 323.588801 279.219571 
C 351.811601 250.996771 367.669231 212.713067 367.669231 172.8 
C 367.669231 132.886933 351.811601 94.603229 323.588801 66.380429 
C 295.366001 38.157629 257.082297 22.3 217.169231 22.3 
C 177.256164 22.3 138.97246 38.157629 110.74966 66.380429 
C 82.52686 94.603229 66.669231 132.886933 66.669231 172.8 
C 66.669231 212.713067 82.52686 250.996771 110.74966 279.219571 
C 138.97246 307.442371 177.256164 323.3 217.169231 323.3 
z
" style="fill:none;stroke:#bc00ff;stroke-linejoin:miter;"/>
   </g>
   <g id="patch_97">
    <path clip-path="url(#p18252970a3)" d="M 218.823077 324.953846 
C 259.174749 324.953846 297.879153 308.921957 326.412093 280.389016 
C 354.945034 251.856076 370.976923 213.151672 370.976923 172.8 
C 370.976923 132.448328 354.945034 93.743924 326.412093 65.210984 
C 297.879153 36.678043 259.174749 20.646154 218.823077 20.646154 
C 178.471405 20.646154 139.767001 36.678043 111.234061 65.210984 
C 82.70112 93.743924 66.669231 132.448328 66.669231 172.8 
C 66.669231 213.151672 82.70112 251.856076 111.234061 280.389016 
C 139.767001 308.921957 178.471405 324.953846 218.823077 324.953846 
z
" style="fill:none;stroke:#c500ff;stroke-linejoin:miter;"/>
   </g>
   <g id="patch_98">
    <path clip-path="url(#p18252970a3)" d="M 220.476923 326.607692 
C 261.2672 326.607692 300.392304 310.401544 329.235385 281.558462 
C 358.078467 252.715381 374.284615 213.590277 374.284615 172.8 
C 374.284615 132.009723 358.078467 92.884619 329.235385 64.041538 
C 300.392304 35.198456 261.2672 18.992308 220.476923 18.992308 
C 179.686646 18.992308 140.561542 35.198456 111.718461 64.041538 
C 82.87538 92.884619 66.669231 132.009723 66.669231 172.8 
C 66.669231 213.590277 82.87538 252.715381 111.718461 281.558462 
C 140.561542 310.401544 179.686646 326.607692 220.476923 326.607692 
z
" style="fill:none;stroke:#ce00ff;stroke-linejoin:miter;"/>
   </g>
   <g id="patch_99">
    <path clip-path="url(#p18252970a3)" d="M 222.130769 328.261538 
C 263.359651 328.261538 302.905455 311.88113 332.058677 282.727908 
C 361.211899 253.574686 377.592308 214.028882 377.592308 172.8 
C 377.592308 131.571118 361.211899 92.025314 332.058677 62.872092 
C 302.905455 33.71887 263.359651 17.338462 222.130769 17.338462 
C 180.901887 17.338462 141.356083 33.71887 112.202861 62.872092 
C 83.049639 92.025314 66.669231 131.571118 66.669231 172.8 
C 66.669231 214.028882 83.049639 253.574686 112.202861 282.727908 
C 141.356083 311.88113 180.901887 328.261538 222.130769 328.261538 
z
" style="fill:none;stroke:#d800ff;stroke-linejoin:miter;"/>
   </g>
   <g id="patch_100">
    <path clip-path="url(#p18252970a3)" d="M 223.784615 329.915385 
C 265.452102 329.915385 305.418607 313.360717 334.881969 283.897354 
C 364.345332 254.433991 380.9 214.467487 380.9 172.8 
C 380.9 131.132513 364.345332 91.166009 334.881969 61.702646 
C 305.418607 32.239283 265.452102 15.684615 223.784615 15.684615 
C 182.117128 15.684615 142.150624 32.239283 112.687261 61.702646 
C 83.223899 91.166009 66.669231 131.132513 66.669231 172.8 
C 66.669231 214.467487 83.223899 254.433991 112.687261 283.897354 
C 142.150624 313.360717 182.117128 329.915385 223.784615 329.915385 
z
" style="fill:none;stroke:#e100ff;stroke-linejoin:miter;"/>
   </g>
   <g id="patch_101">
    <path clip-path="url(#p18252970a3)" d="M 225.438462 331.569231 
C 267.544554 331.569231 307.931758 314.840303 337.705261 285.0668 
C 367.478765 255.293296 384.207692 214.906092 384.207692 172.8 
C 384.207692 130.693908 367.478765 90.306704 337.705261 60.5332 
C 307.931758 30.759697 267.544554 14.030769 225.438462 14.030769 
C 183.332369 14.030769 142.945165 30.759697 113.171662 60.5332 
C 83.398159 90.306704 66.669231 130.693908 66.669231 172.8 
C 66.669231 214.906092 83.398159 255.293296 113.171662 285.0668 
C 142.945165 314.840303 183.332369 331.569231 225.438462 331.569231 
z
" style="fill:none;stroke:#e900ff;stroke-linejoin:miter;"/>
   </g>
   <g id="patch_102">
    <path clip-path="url(#p18252970a3)" d="M 227.092308 333.223077 
C 269.637005 333.223077 310.444909 316.31989 340.528553 286.236246 
C 370.612197 256.152602 387.515385 215.344697 387.515385 172.8 
C 387.515385 130.255303 370.612197 89.447398 340.528553 59.363754 
C 310.444909 29.28011 269.637005 12.376923 227.092308 12.376923 
C 184.54761 12.376923 143.739706 29.28011 113.656062 59.363754 
C 83.572418 89.447398 66.669231 130.255303 66.669231 172.8 
C 66.669231 215.344697 83.572418 256.152602 113.656062 286.236246 
C 143.739706 316.31989 184.54761 333.223077 227.092308 333.223077 
z
" style="fill:none;stroke:#f200ff;stroke-linejoin:miter;"/>
   </g>
   <g id="patch_103">
    <path clip-path="url(#p18252970a3)" d="M 228.746154 334.876923 
C 271.729456 334.876923 312.958061 317.799476 343.351845 287.405691 
C 373.74563 257.011907 390.823077 215.783302 390.823077 172.8 
C 390.823077 129.816698 373.74563 88.588093 343.351845 58.194309 
C 312.958061 27.800524 271.729456 10.723077 228.746154 10.723077 
C 185.762851 10.723077 144.534247 27.800524 114.140462 58.194309 
C 83.746678 88.588093 66.669231 129.816698 66.669231 172.8 
C 66.669231 215.783302 83.746678 257.011907 114.140462 287.405691 
C 144.534247 317.799476 185.762851 334.876923 228.746154 334.876923 
z
" style="fill:none;stroke:#fb00ff;stroke-linejoin:miter;"/>
   </g>
   <g id="patch_104">
    <path clip-path="url(#p18252970a3)" d="M 230.4 336.530769 
C 273.821908 336.530769 315.471212 319.279063 346.175137 288.575137 
C 376.879063 257.871212 394.130769 216.221908 394.130769 172.8 
C 394.130769 129.378092 376.879063 87.728788 346.175137 57.024863 
C 315.471212 26.320937 273.821908 9.069231 230.4 9.069231 
C 186.978092 9.069231 145.328788 26.320937 114.624863 57.024863 
C 83.920937 87.728788 66.669231 129.378092 66.669231 172.8 
C 66.669231 216.221908 83.920937 257.871212 114.624863 288.575137 
C 145.328788 319.279063 186.978092 336.530769 230.4 336.530769 
z
" style="fill:none;stroke:#ff00fb;stroke-linejoin:miter;"/>
   </g>
  </g>
 </g>
 <defs>
  <clipPath id="p18252970a3">
   <rect height="340.56" width="340.56" x="60.12" y="2.52"/>
  </clipPath>
 </defs>
</svg>
