<?xml version="1.0" encoding="utf-8" standalone="no"?>
<!DOCTYPE svg PUBLIC "-//W3C//DTD SVG 1.1//EN"
  "http://www.w3.org/Graphics/SVG/1.1/DTD/svg11.dtd">
<!-- Created with matplotlib (https://matplotlib.org/) -->
<svg height="345.6pt" version="1.1" viewBox="0 0 460.8 345.6" width="460.8pt" xmlns="http://www.w3.org/2000/svg" xmlns:xlink="http://www.w3.org/1999/xlink">
 <metadata>
  <rdf:RDF xmlns:cc="http://creativecommons.org/ns#" xmlns:dc="http://purl.org/dc/elements/1.1/" xmlns:rdf="http://www.w3.org/1999/02/22-rdf-syntax-ns#">
   <cc:Work>
    <dc:type rdf:resource="http://purl.org/dc/dcmitype/StillImage"/>
    <dc:date>2021-08-24T12:31:16.691483</dc:date>
    <dc:format>image/svg+xml</dc:format>
    <dc:creator>
     <cc:Agent>
      <dc:title>Matplotlib v3.3.4, https://matplotlib.org/</dc:title>
     </cc:Agent>
    </dc:creator>
   </cc:Work>
  </rdf:RDF>
 </metadata>
 <defs>
  <style type="text/css">*{stroke-linecap:butt;stroke-linejoin:round;}</style>
 </defs>
 <g id="figure_1">
  <g id="patch_1">
   <path d="M 0 345.6 
L 460.8 345.6 
L 460.8 0 
L 0 0 
z
" style="fill:#ffffff;"/>
  </g>
  <g id="axes_1">
   <g id="patch_2">
    <path d="M 57.594813 345.6 
L 403.205187 345.6 
L 403.205187 0 
L 57.594813 0 
z
" style="fill:#ffffff;"/>
   </g>
   <g id="matplotlib.axis_1">
    <g id="xtick_1">
     <g id="line2d_1">
      <defs>
       <path d="M 0 0 
L 0 3.5 
" id="mfca0e4b677" style="stroke:#000000;stroke-width:0.8;"/>
      </defs>
      <g>
       <use style="stroke:#000000;stroke-width:0.8;" x="64.240805" xlink:href="#mfca0e4b677" y="172.80496"/>
      </g>
     </g>
     <g id="text_1">
      <!-- −1.0 -->
      <g transform="translate(52.099398 187.403397)scale(0.1 -0.1)">
       <defs>
        <path d="M 10.59375 35.5 
L 73.1875 35.5 
L 73.1875 27.203125 
L 10.59375 27.203125 
z
" id="DejaVuSans-8722"/>
        <path d="M 12.40625 8.296875 
L 28.515625 8.296875 
L 28.515625 63.921875 
L 10.984375 60.40625 
L 10.984375 69.390625 
L 28.421875 72.90625 
L 38.28125 72.90625 
L 38.28125 8.296875 
L 54.390625 8.296875 
L 54.390625 0 
L 12.40625 0 
z
" id="DejaVuSans-49"/>
        <path d="M 10.6875 12.40625 
L 21 12.40625 
L 21 0 
L 10.6875 0 
z
" id="DejaVuSans-46"/>
        <path d="M 31.78125 66.40625 
Q 24.171875 66.40625 20.328125 58.90625 
Q 16.5 51.421875 16.5 36.375 
Q 16.5 21.390625 20.328125 13.890625 
Q 24.171875 6.390625 31.78125 6.390625 
Q 39.453125 6.390625 43.28125 13.890625 
Q 47.125 21.390625 47.125 36.375 
Q 47.125 51.421875 43.28125 58.90625 
Q 39.453125 66.40625 31.78125 66.40625 
z
M 31.78125 74.21875 
Q 44.046875 74.21875 50.515625 64.515625 
Q 56.984375 54.828125 56.984375 36.375 
Q 56.984375 17.96875 50.515625 8.265625 
Q 44.046875 -1.421875 31.78125 -1.421875 
Q 19.53125 -1.421875 13.0625 8.265625 
Q 6.59375 17.96875 6.59375 36.375 
Q 6.59375 54.828125 13.0625 64.515625 
Q 19.53125 74.21875 31.78125 74.21875 
z
" id="DejaVuSans-48"/>
       </defs>
       <use xlink:href="#DejaVuSans-8722"/>
       <use x="83.789062" xlink:href="#DejaVuSans-49"/>
       <use x="147.412109" xlink:href="#DejaVuSans-46"/>
       <use x="179.199219" xlink:href="#DejaVuSans-48"/>
      </g>
     </g>
    </g>
    <g id="xtick_2">
     <g id="line2d_2">
      <g>
       <use style="stroke:#000000;stroke-width:0.8;" x="147.320312" xlink:href="#mfca0e4b677" y="172.80496"/>
      </g>
     </g>
     <g id="text_2">
      <!-- −0.5 -->
      <g transform="translate(135.178906 187.403397)scale(0.1 -0.1)">
       <defs>
        <path d="M 10.796875 72.90625 
L 49.515625 72.90625 
L 49.515625 64.59375 
L 19.828125 64.59375 
L 19.828125 46.734375 
Q 21.96875 47.46875 24.109375 47.828125 
Q 26.265625 48.1875 28.421875 48.1875 
Q 40.625 48.1875 47.75 41.5 
Q 54.890625 34.8125 54.890625 23.390625 
Q 54.890625 11.625 47.5625 5.09375 
Q 40.234375 -1.421875 26.90625 -1.421875 
Q 22.3125 -1.421875 17.546875 -0.640625 
Q 12.796875 0.140625 7.71875 1.703125 
L 7.71875 11.625 
Q 12.109375 9.234375 16.796875 8.0625 
Q 21.484375 6.890625 26.703125 6.890625 
Q 35.15625 6.890625 40.078125 11.328125 
Q 45.015625 15.765625 45.015625 23.390625 
Q 45.015625 31 40.078125 35.4375 
Q 35.15625 39.890625 26.703125 39.890625 
Q 22.75 39.890625 18.8125 39.015625 
Q 14.890625 38.140625 10.796875 36.28125 
z
" id="DejaVuSans-53"/>
       </defs>
       <use xlink:href="#DejaVuSans-8722"/>
       <use x="83.789062" xlink:href="#DejaVuSans-48"/>
       <use x="147.412109" xlink:href="#DejaVuSans-46"/>
       <use x="179.199219" xlink:href="#DejaVuSans-53"/>
      </g>
     </g>
    </g>
    <g id="xtick_3">
     <g id="line2d_3">
      <g>
       <use style="stroke:#000000;stroke-width:0.8;" x="230.399819" xlink:href="#mfca0e4b677" y="172.80496"/>
      </g>
     </g>
    </g>
    <g id="xtick_4">
     <g id="line2d_4">
      <g>
       <use style="stroke:#000000;stroke-width:0.8;" x="313.479327" xlink:href="#mfca0e4b677" y="172.80496"/>
      </g>
     </g>
     <g id="text_3">
      <!-- 0.5 -->
      <g transform="translate(305.527764 187.403397)scale(0.1 -0.1)">
       <use xlink:href="#DejaVuSans-48"/>
       <use x="63.623047" xlink:href="#DejaVuSans-46"/>
       <use x="95.410156" xlink:href="#DejaVuSans-53"/>
      </g>
     </g>
    </g>
    <g id="xtick_5">
     <g id="line2d_5">
      <g>
       <use style="stroke:#000000;stroke-width:0.8;" x="396.558834" xlink:href="#mfca0e4b677" y="172.80496"/>
      </g>
     </g>
     <g id="text_4">
      <!-- 1.0 -->
      <g transform="translate(388.607271 187.403397)scale(0.1 -0.1)">
       <use xlink:href="#DejaVuSans-49"/>
       <use x="63.623047" xlink:href="#DejaVuSans-46"/>
       <use x="95.410156" xlink:href="#DejaVuSans-48"/>
      </g>
     </g>
    </g>
    <g id="xtick_6">
     <g id="line2d_6">
      <defs>
       <path d="M 0 0 
L 0 2 
" id="mdf74f384d2" style="stroke:#000000;stroke-width:0.6;"/>
      </defs>
      <g>
       <use style="stroke:#000000;stroke-width:0.6;" x="80.856706" xlink:href="#mdf74f384d2" y="172.80496"/>
      </g>
     </g>
    </g>
    <g id="xtick_7">
     <g id="line2d_7">
      <g>
       <use style="stroke:#000000;stroke-width:0.6;" x="97.472607" xlink:href="#mdf74f384d2" y="172.80496"/>
      </g>
     </g>
    </g>
    <g id="xtick_8">
     <g id="line2d_8">
      <g>
       <use style="stroke:#000000;stroke-width:0.6;" x="114.088509" xlink:href="#mdf74f384d2" y="172.80496"/>
      </g>
     </g>
    </g>
    <g id="xtick_9">
     <g id="line2d_9">
      <g>
       <use style="stroke:#000000;stroke-width:0.6;" x="130.70441" xlink:href="#mdf74f384d2" y="172.80496"/>
      </g>
     </g>
    </g>
    <g id="xtick_10">
     <g id="line2d_10">
      <g>
       <use style="stroke:#000000;stroke-width:0.6;" x="163.936213" xlink:href="#mdf74f384d2" y="172.80496"/>
      </g>
     </g>
    </g>
    <g id="xtick_11">
     <g id="line2d_11">
      <g>
       <use style="stroke:#000000;stroke-width:0.6;" x="180.552115" xlink:href="#mdf74f384d2" y="172.80496"/>
      </g>
     </g>
    </g>
    <g id="xtick_12">
     <g id="line2d_12">
      <g>
       <use style="stroke:#000000;stroke-width:0.6;" x="197.168016" xlink:href="#mdf74f384d2" y="172.80496"/>
      </g>
     </g>
    </g>
    <g id="xtick_13">
     <g id="line2d_13">
      <g>
       <use style="stroke:#000000;stroke-width:0.6;" x="213.783918" xlink:href="#mdf74f384d2" y="172.80496"/>
      </g>
     </g>
    </g>
    <g id="xtick_14">
     <g id="line2d_14">
      <g>
       <use style="stroke:#000000;stroke-width:0.6;" x="247.015721" xlink:href="#mdf74f384d2" y="172.80496"/>
      </g>
     </g>
    </g>
    <g id="xtick_15">
     <g id="line2d_15">
      <g>
       <use style="stroke:#000000;stroke-width:0.6;" x="263.631622" xlink:href="#mdf74f384d2" y="172.80496"/>
      </g>
     </g>
    </g>
    <g id="xtick_16">
     <g id="line2d_16">
      <g>
       <use style="stroke:#000000;stroke-width:0.6;" x="280.247524" xlink:href="#mdf74f384d2" y="172.80496"/>
      </g>
     </g>
    </g>
    <g id="xtick_17">
     <g id="line2d_17">
      <g>
       <use style="stroke:#000000;stroke-width:0.6;" x="296.863425" xlink:href="#mdf74f384d2" y="172.80496"/>
      </g>
     </g>
    </g>
    <g id="xtick_18">
     <g id="line2d_18">
      <g>
       <use style="stroke:#000000;stroke-width:0.6;" x="330.095228" xlink:href="#mdf74f384d2" y="172.80496"/>
      </g>
     </g>
    </g>
    <g id="xtick_19">
     <g id="line2d_19">
      <g>
       <use style="stroke:#000000;stroke-width:0.6;" x="346.711129" xlink:href="#mdf74f384d2" y="172.80496"/>
      </g>
     </g>
    </g>
    <g id="xtick_20">
     <g id="line2d_20">
      <g>
       <use style="stroke:#000000;stroke-width:0.6;" x="363.327031" xlink:href="#mdf74f384d2" y="172.80496"/>
      </g>
     </g>
    </g>
    <g id="xtick_21">
     <g id="line2d_21">
      <g>
       <use style="stroke:#000000;stroke-width:0.6;" x="379.942932" xlink:href="#mdf74f384d2" y="172.80496"/>
      </g>
     </g>
    </g>
   </g>
   <g id="matplotlib.axis_2">
    <g id="ytick_1">
     <g id="line2d_22">
      <defs>
       <path d="M 0 0 
L -3.5 0 
" id="mb3d897f836" style="stroke:#000000;stroke-width:0.8;"/>
      </defs>
      <g>
       <use style="stroke:#000000;stroke-width:0.8;" x="230.399819" xlink:href="#mb3d897f836" y="338.963974"/>
      </g>
     </g>
     <g id="text_5">
      <!-- −1.0 -->
      <g transform="translate(199.117007 342.763193)scale(0.1 -0.1)">
       <use xlink:href="#DejaVuSans-8722"/>
       <use x="83.789062" xlink:href="#DejaVuSans-49"/>
       <use x="147.412109" xlink:href="#DejaVuSans-46"/>
       <use x="179.199219" xlink:href="#DejaVuSans-48"/>
      </g>
     </g>
    </g>
    <g id="ytick_2">
     <g id="line2d_23">
      <g>
       <use style="stroke:#000000;stroke-width:0.8;" x="230.399819" xlink:href="#mb3d897f836" y="255.884467"/>
      </g>
     </g>
     <g id="text_6">
      <!-- −0.5 -->
      <g transform="translate(199.117007 259.683686)scale(0.1 -0.1)">
       <use xlink:href="#DejaVuSans-8722"/>
       <use x="83.789062" xlink:href="#DejaVuSans-48"/>
       <use x="147.412109" xlink:href="#DejaVuSans-46"/>
       <use x="179.199219" xlink:href="#DejaVuSans-53"/>
      </g>
     </g>
    </g>
    <g id="ytick_3">
     <g id="line2d_24">
      <g>
       <use style="stroke:#000000;stroke-width:0.8;" x="230.399819" xlink:href="#mb3d897f836" y="172.80496"/>
      </g>
     </g>
    </g>
    <g id="ytick_4">
     <g id="line2d_25">
      <g>
       <use style="stroke:#000000;stroke-width:0.8;" x="230.399819" xlink:href="#mb3d897f836" y="89.725452"/>
      </g>
     </g>
     <g id="text_7">
      <!-- 0.5 -->
      <g transform="translate(207.496694 93.524671)scale(0.1 -0.1)">
       <use xlink:href="#DejaVuSans-48"/>
       <use x="63.623047" xlink:href="#DejaVuSans-46"/>
       <use x="95.410156" xlink:href="#DejaVuSans-53"/>
      </g>
     </g>
    </g>
    <g id="ytick_5">
     <g id="line2d_26">
      <g>
       <use style="stroke:#000000;stroke-width:0.8;" x="230.399819" xlink:href="#mb3d897f836" y="6.645945"/>
      </g>
     </g>
     <g id="text_8">
      <!-- 1.0 -->
      <g transform="translate(207.496694 10.445164)scale(0.1 -0.1)">
       <use xlink:href="#DejaVuSans-49"/>
       <use x="63.623047" xlink:href="#DejaVuSans-46"/>
       <use x="95.410156" xlink:href="#DejaVuSans-48"/>
      </g>
     </g>
    </g>
    <g id="ytick_6">
     <g id="line2d_27">
      <defs>
       <path d="M 0 0 
L -2 0 
" id="mc50b9ce286" style="stroke:#000000;stroke-width:0.6;"/>
      </defs>
      <g>
       <use style="stroke:#000000;stroke-width:0.6;" x="230.399819" xlink:href="#mc50b9ce286" y="322.348073"/>
      </g>
     </g>
    </g>
    <g id="ytick_7">
     <g id="line2d_28">
      <g>
       <use style="stroke:#000000;stroke-width:0.6;" x="230.399819" xlink:href="#mc50b9ce286" y="305.732172"/>
      </g>
     </g>
    </g>
    <g id="ytick_8">
     <g id="line2d_29">
      <g>
       <use style="stroke:#000000;stroke-width:0.6;" x="230.399819" xlink:href="#mc50b9ce286" y="289.11627"/>
      </g>
     </g>
    </g>
    <g id="ytick_9">
     <g id="line2d_30">
      <g>
       <use style="stroke:#000000;stroke-width:0.6;" x="230.399819" xlink:href="#mc50b9ce286" y="272.500369"/>
      </g>
     </g>
    </g>
    <g id="ytick_10">
     <g id="line2d_31">
      <g>
       <use style="stroke:#000000;stroke-width:0.6;" x="230.399819" xlink:href="#mc50b9ce286" y="239.268566"/>
      </g>
     </g>
    </g>
    <g id="ytick_11">
     <g id="line2d_32">
      <g>
       <use style="stroke:#000000;stroke-width:0.6;" x="230.399819" xlink:href="#mc50b9ce286" y="222.652664"/>
      </g>
     </g>
    </g>
    <g id="ytick_12">
     <g id="line2d_33">
      <g>
       <use style="stroke:#000000;stroke-width:0.6;" x="230.399819" xlink:href="#mc50b9ce286" y="206.036763"/>
      </g>
     </g>
    </g>
    <g id="ytick_13">
     <g id="line2d_34">
      <g>
       <use style="stroke:#000000;stroke-width:0.6;" x="230.399819" xlink:href="#mc50b9ce286" y="189.420861"/>
      </g>
     </g>
    </g>
    <g id="ytick_14">
     <g id="line2d_35">
      <g>
       <use style="stroke:#000000;stroke-width:0.6;" x="230.399819" xlink:href="#mc50b9ce286" y="156.189058"/>
      </g>
     </g>
    </g>
    <g id="ytick_15">
     <g id="line2d_36">
      <g>
       <use style="stroke:#000000;stroke-width:0.6;" x="230.399819" xlink:href="#mc50b9ce286" y="139.573157"/>
      </g>
     </g>
    </g>
    <g id="ytick_16">
     <g id="line2d_37">
      <g>
       <use style="stroke:#000000;stroke-width:0.6;" x="230.399819" xlink:href="#mc50b9ce286" y="122.957255"/>
      </g>
     </g>
    </g>
    <g id="ytick_17">
     <g id="line2d_38">
      <g>
       <use style="stroke:#000000;stroke-width:0.6;" x="230.399819" xlink:href="#mc50b9ce286" y="106.341354"/>
      </g>
     </g>
    </g>
    <g id="ytick_18">
     <g id="line2d_39">
      <g>
       <use style="stroke:#000000;stroke-width:0.6;" x="230.399819" xlink:href="#mc50b9ce286" y="73.109551"/>
      </g>
     </g>
    </g>
    <g id="ytick_19">
     <g id="line2d_40">
      <g>
       <use style="stroke:#000000;stroke-width:0.6;" x="230.399819" xlink:href="#mc50b9ce286" y="56.49365"/>
      </g>
     </g>
    </g>
    <g id="ytick_20">
     <g id="line2d_41">
      <g>
       <use style="stroke:#000000;stroke-width:0.6;" x="230.399819" xlink:href="#mc50b9ce286" y="39.877748"/>
      </g>
     </g>
    </g>
    <g id="ytick_21">
     <g id="line2d_42">
      <g>
       <use style="stroke:#000000;stroke-width:0.6;" x="230.399819" xlink:href="#mc50b9ce286" y="23.261847"/>
      </g>
     </g>
    </g>
   </g>
   <g id="line2d_43">
    <path clip-path="url(#p2e7c837255)" d="M 396.558834 172.80496 
L 396.296213 163.466609 
L 395.783394 156.770892 
L 395.20062 151.603207 
L 394.052165 144.052085 
L 393.081256 138.988273 
L 391.563233 132.367697 
L 390.047336 126.74534 
L 387.292662 118.092492 
L 385.360217 112.837526 
L 383.250416 107.647356 
L 380.439914 101.413168 
L 377.131434 94.839253 
L 374.392195 89.889257 
L 371.838862 85.605101 
L 367.76203 79.314633 
L 362.704038 72.284256 
L 359.452796 68.142898 
L 355.797463 63.790057 
L 351.206624 58.723699 
L 346.49731 53.934481 
L 340.469639 48.332261 
L 334.592335 43.372592 
L 330.494477 40.178124 
L 325.515113 36.562899 
L 319.801082 32.746999 
L 312.609015 28.408054 
L 305.895768 24.787461 
L 298.45741 21.223356 
L 294.859112 19.658567 
L 285.81084 16.157467 
L 280.318388 14.321665 
L 273.958724 12.457088 
L 270.046397 11.445216 
L 264.680664 10.220699 
L 257.230213 8.826461 
L 251.498139 7.990886 
L 244.108607 7.212426 
L 238.72792 6.854784 
L 230.136476 6.646154 
L 226.291303 6.696747 
L 217.943801 7.113482 
L 212.364371 7.627659 
L 204.660686 8.651632 
L 199.179914 9.60528 
L 195.205073 10.416081 
L 187.519451 12.274302 
L 179.787563 14.541832 
L 173.578293 16.663574 
L 165.550605 19.823269 
L 160.366719 22.125887 
L 152.13421 26.233092 
L 145.539069 29.950239 
L 137.369137 35.131033 
L 128.765087 41.354592 
L 119.424465 49.138922 
L 114.111234 54.121418 
L 111.528854 56.707966 
L 106.182535 62.446977 
L 101.820639 67.561373 
L 98.610869 71.60965 
L 93.624973 78.457412 
L 90.715888 82.82042 
L 86.463544 89.791907 
L 83.795012 94.601068 
L 81.493668 99.077242 
L 79.478747 103.294902 
L 76.546764 110.051032 
L 74.090812 116.446176 
L 72.045582 122.478489 
L 69.370324 131.837657 
L 67.470919 140.201406 
L 67.084131 142.197701 
L 66.207557 147.315369 
L 65.583222 151.726356 
L 64.911305 157.89289 
L 64.491177 163.686812 
L 64.308257 168.070906 
L 64.275363 176.193654 
L 64.357426 179.029251 
L 64.675377 184.814438 
L 65.000507 188.675867 
L 65.501345 193.233156 
L 66.127726 197.774893 
L 66.861759 202.200894 
L 67.883227 207.405182 
L 69.484888 214.219971 
L 71.403514 221.064603 
L 72.646988 224.986014 
L 74.87517 231.293435 
L 76.644123 235.797056 
L 78.630531 240.442976 
L 80.533347 244.560508 
L 84.540698 252.390982 
L 86.489693 255.863335 
L 89.799323 261.350533 
L 93.587303 267.097874 
L 99.070569 274.596149 
L 101.870282 278.109167 
L 107.746143 284.898197 
L 111.440683 288.811607 
L 118.247461 295.40458 
L 123.529145 300.034976 
L 131.014016 305.963813 
L 134.074589 308.19428 
L 138.14937 311.002908 
L 146.750041 316.372131 
L 155.254307 321.000675 
L 159.340953 323.003015 
L 164.092036 325.160124 
L 171.697979 328.249201 
L 176.363618 329.932001 
L 180.559946 331.31302 
L 186.494563 333.058342 
L 194.165087 334.96495 
L 198.345537 335.842812 
L 206.516013 337.238478 
L 212.234128 337.967988 
L 221.452124 338.722882 
L 228.565233 338.953846 
L 237.062145 338.830354 
L 243.428197 338.452415 
L 249.113669 337.906777 
L 253.605803 337.335506 
L 259.510885 336.393969 
L 267.573646 334.75225 
L 275.292291 332.784596 
L 279.223905 331.628846 
L 285.000137 329.736867 
L 291.718675 327.235579 
L 298.890722 324.191268 
L 308.078439 319.688758 
L 314.087779 316.349878 
L 319.955214 312.764416 
L 324.378461 309.833545 
L 332.061695 304.234337 
L 336.734886 300.48296 
L 342.51817 295.435681 
L 350.212276 287.93008 
L 353.797079 284.079101 
L 358.311488 278.858829 
L 363.076511 272.833524 
L 366.107031 268.681812 
L 369.007684 264.438349 
L 372.112023 259.560187 
L 376.18039 252.534774 
L 378.060339 248.99675 
L 380.918985 243.181084 
L 383.299125 237.84818 
L 386.7266 229.114423 
L 389.11348 221.986176 
L 390.445805 217.460313 
L 391.600497 213.093416 
L 393.308539 205.509197 
L 394.669724 197.789285 
L 395.483544 191.677739 
L 395.975883 186.711267 
L 396.284729 182.345121 
L 396.492961 177.483257 
L 396.558834 172.80496 
L 396.558834 172.80496 
" style="fill:none;stroke:#0000ff;stroke-linecap:square;"/>
   </g>
   <g id="patch_3">
    <path d="M 230.399819 345.6 
L 230.399819 -0 
" style="fill:none;stroke:#000000;stroke-linecap:square;stroke-linejoin:miter;stroke-width:0.8;"/>
   </g>
   <g id="patch_4">
    <path d="M 57.594813 172.80496 
L 403.205187 172.80496 
" style="fill:none;stroke:#000000;stroke-linecap:square;stroke-linejoin:miter;stroke-width:0.8;"/>
   </g>
  </g>
 </g>
 <defs>
  <clipPath id="p2e7c837255">
   <rect height="345.6" width="345.610374" x="57.594813" y="0"/>
  </clipPath>
 </defs>
</svg>
