<?xml version="1.0" encoding="utf-8" standalone="no"?>
<!DOCTYPE svg PUBLIC "-//W3C//DTD SVG 1.1//EN"
  "http://www.w3.org/Graphics/SVG/1.1/DTD/svg11.dtd">
<svg xmlns:xlink="http://www.w3.org/1999/xlink" width="460.8pt" height="345.6pt" viewBox="0 0 460.8 345.6" xmlns="http://www.w3.org/2000/svg" version="1.1">
 <metadata>
  <rdf:RDF xmlns:dc="http://purl.org/dc/elements/1.1/" xmlns:cc="http://creativecommons.org/ns#" xmlns:rdf="http://www.w3.org/1999/02/22-rdf-syntax-ns#">
   <cc:Work>
    <dc:type rdf:resource="http://purl.org/dc/dcmitype/StillImage"/>
    <dc:date>2022-01-31T17:29:03.321772</dc:date>
    <dc:format>image/svg+xml</dc:format>
    <dc:creator>
     <cc:Agent>
      <dc:title>Matplotlib v3.5.1, https://matplotlib.org/</dc:title>
     </cc:Agent>
    </dc:creator>
   </cc:Work>
  </rdf:RDF>
 </metadata>
 <defs>
  <style type="text/css">*{stroke-linejoin: round; stroke-linecap: butt}</style>
 </defs>
 <g id="figure_1">
  <g id="patch_1">
   <path d="M 0 345.6 
L 460.8 345.6 
L 460.8 0 
L 0 0 
z
" style="fill: #ffffff"/>
  </g>
  <g id="axes_1">
   <g id="patch_2">
    <path d="M 57.607126 345.6 
L 403.192874 345.6 
L 403.192874 0 
L 57.607126 0 
z
" style="fill: #ffffff"/>
   </g>
   <g id="patch_3">
    <path d="M 396.546995 172.800437 
L 396.475327 175.348541 
L 396.260599 177.891254 
L 396.047215 179.521581 
L 395.775298 181.146046 
L 395.445279 182.763254 
L 395.057677 184.371826 
L 394.490253 186.377757 
L 393.625048 188.945538 
L 392.615376 191.477051 
L 391.77525 193.328937 
L 390.859768 195.155914 
L 389.870999 196.956035 
L 388.811167 198.727451 
L 387.744163 200.37691 
L 386.617692 201.997687 
L 385.257095 203.817449 
L 383.82494 205.596131 
L 382.324921 207.332153 
L 380.76088 209.024128 
L 378.966657 210.837483 
L 376.999001 212.691016 
L 374.962719 214.480592 
L 372.022027 216.867504 
L 367.972974 219.834988 
L 363.790399 222.582482 
L 360.883199 224.333861 
L 355.21212 227.443284 
L 351.93045 229.088312 
L 348.637778 230.646228 
L 345.378529 232.112679 
L 342.091569 233.531294 
L 338.872725 234.87803 
L 337.466754 235.457507 
L 334.489181 236.676658 
L 331.604422 237.860918 
L 328.793909 239.035606 
L 327.201077 239.718449 
L 325.648007 240.401539 
L 324.099745 241.104403 
L 322.59534 241.813595 
L 321.135539 242.532152 
L 319.720857 243.263071 
L 318.609523 243.865491 
L 317.527959 244.479456 
L 316.166677 245.297107 
L 314.855221 246.139956 
L 313.172652 247.315803 
L 311.576365 248.549469 
L 310.488348 249.468741 
L 309.441349 250.422913 
L 308.433806 251.413984 
L 307.46397 252.443781 
L 306.414804 253.651551 
L 305.704706 254.529905 
L 305.014318 255.435033 
L 304.342476 256.367468 
L 303.687961 257.327662 
L 302.733209 258.825145 
L 301.902564 260.225759 
L 301.094201 261.678786 
L 300.304592 263.184255 
L 299.530112 264.741892 
L 298.634797 266.637163 
L 297.749151 268.602109 
L 296.985269 270.358405 
L 296.262263 272.063042 
L 295.53464 273.809778 
L 294.799044 275.59668 
L 294.052156 277.421571 
L 292.629683 280.889361 
L 291.708076 283.106976 
L 289.963526 287.191516 
L 288.090317 291.361994 
L 287.049811 293.569952 
L 283.210711 301.026866 
L 281.963211 303.224515 
L 279.687057 306.971084 
L 277.24423 310.642318 
L 275.604454 312.920644 
L 272.81076 316.488868 
L 269.94121 319.780103 
L 266.906395 322.890171 
L 264.684639 324.946463 
L 262.981151 326.40555 
L 261.237011 327.799288 
L 259.496762 329.093407 
L 257.720751 330.318917 
L 255.91067 331.472898 
L 254.068349 332.552589 
L 252.432629 333.433701 
L 250.775149 334.254403 
L 248.292319 335.35207 
L 245.770211 336.310423 
L 243.844959 336.938741 
L 241.902631 337.484109 
L 239.94561 337.945256 
L 237.976337 338.321109 
L 235.831319 338.631103 
L 234.23626 338.795029 
L 232.637994 338.902665 
L 231.03785 338.953846 
L 229.437165 338.948497 
L 227.46706 338.864246 
L 225.500652 338.694463 
L 223.540419 338.439536 
L 221.588817 338.100049 
L 219.358932 337.606277 
L 217.147265 337.003259 
L 215.545372 336.494798 
L 213.956416 335.929828 
L 211.372113 334.879051 
L 208.831965 333.682138 
L 206.283149 332.311038 
L 203.791358 330.798367 
L 202.097505 329.668449 
L 200.434956 328.475943 
L 198.698223 327.138291 
L 197.000146 325.735571 
L 194.039444 323.051916 
L 191.215312 320.188157 
L 189.218916 317.968859 
L 187.300925 315.672067 
L 184.909298 312.563237 
L 182.638128 309.336336 
L 180.502343 306.033818 
L 176.779905 299.584638 
L 174.529166 295.215248 
L 173.148319 292.349562 
L 171.374197 288.463244 
L 169.717163 284.642297 
L 168.652172 282.106131 
L 167.220436 278.630974 
L 165.902152 275.409737 
L 165.26857 273.871024 
L 164.640996 272.362089 
L 164.017283 270.884187 
L 163.39527 269.438432 
L 162.822621 268.137494 
L 162.247889 266.865252 
L 161.66939 265.622258 
L 161.085453 264.408962 
L 160.073717 262.411848 
L 159.033386 260.502863 
L 158.142887 258.985936 
L 157.22305 257.529462 
L 156.63826 256.659474 
L 156.039768 255.812035 
L 155.149893 254.627933 
L 154.227019 253.489047 
L 152.96886 252.068341 
L 151.645454 250.718786 
L 150.375245 249.544173 
L 149.043963 248.421923 
L 148.027547 247.630041 
L 146.976128 246.862517 
L 145.88902 246.117586 
L 144.765675 245.3934 
L 143.216947 244.460297 
L 141.603042 243.555689 
L 139.833934 242.629008 
L 137.99299 241.722618 
L 135.660441 240.639674 
L 133.226363 239.566842 
L 131.035132 238.635482 
L 128.774194 237.696165 
L 127.461518 237.156761 
L 125.59083 236.39129 
L 123.683144 235.610251 
L 121.741324 234.810231 
L 119.768475 233.987912 
L 116.567778 232.623055 
L 113.067277 231.070379 
L 109.492374 229.400265 
L 103.233201 226.208925 
L 95.780203 221.818839 
L 91.408697 218.849261 
L 87.457078 215.839898 
L 86.065057 214.692058 
L 82.973613 211.948249 
L 80.048135 209.056704 
L 78.465741 207.346446 
L 76.948774 205.591139 
L 75.735576 204.092568 
L 74.572959 202.56455 
L 73.463069 201.00812 
L 72.407969 199.424404 
L 71.303818 197.636783 
L 70.368944 195.9965 
L 69.494884 194.332884 
L 68.683293 192.647401 
L 67.935717 190.941585 
L 67.082361 188.752712 
L 66.33676 186.537143 
L 65.838858 184.820083 
L 65.406753 183.091011 
L 65.041234 181.35161 
L 64.74297 179.603596 
L 64.421848 176.958503 
L 64.255827 174.303855 
L 64.253005 171.384597 
L 64.341224 169.639056 
L 64.496593 167.896657 
L 64.718831 166.159123 
L 65.007541 164.428164 
L 65.323118 162.880334 
L 65.691455 161.340381 
L 66.112018 159.809496 
L 66.584201 158.288845 
L 67.52118 155.685023 
L 68.606625 153.120983 
L 69.484916 151.287802 
L 70.638521 149.117939 
L 71.895106 146.988633 
L 73.631067 144.350406 
L 75.517293 141.787924 
L 76.757765 140.239733 
L 78.049868 138.72361 
L 80.778878 135.7912 
L 82.915579 133.706977 
L 85.139797 131.700432 
L 87.519017 129.711048 
L 90.693268 127.271483 
L 93.967012 124.972916 
L 96.219663 123.50145 
L 101.656567 120.26059 
L 108.330609 116.765106 
L 110.900488 115.531299 
L 115.14468 113.600429 
L 119.307383 111.806979 
L 120.095249 111.475919 
L 122.152576 110.620573 
L 124.175234 109.78886 
L 126.159735 108.976957 
L 128.102884 108.180934 
L 130.557929 107.165113 
L 133.14264 106.07013 
L 135.626453 104.976536 
L 137.907442 103.919156 
L 140.08877 102.842046 
L 141.912518 101.876482 
L 143.658405 100.88164 
L 145.127758 99.978742 
L 146.537832 99.044295 
L 147.613514 98.278985 
L 149.092642 97.139687 
L 150.500363 95.945763 
L 151.40806 95.11006 
L 152.285879 94.246233 
L 153.134978 93.353071 
L 153.956616 92.429474 
L 155.029815 91.126096 
L 156.058649 89.762748 
L 157.222421 88.072372 
L 158.076836 86.723211 
L 158.905736 85.322051 
L 159.712529 83.868577 
L 160.500735 82.362773 
L 160.847384 81.674062 
L 161.642287 80.035871 
L 162.427025 78.342912 
L 163.205785 76.596342 
L 163.982784 74.79767 
L 164.728167 73.030351 
L 165.479491 71.218979 
L 166.498325 68.735389 
L 167.542808 66.183167 
L 168.561984 63.711817 
L 169.998833 60.297409 
L 171.51933 56.811371 
L 171.978566 55.788585 
L 174.537731 50.368293 
L 177.637401 44.447454 
L 180.472395 39.615328 
L 182.449281 36.545724 
L 184.542704 33.539709 
L 186.450645 31.001803 
L 188.447464 28.535762 
L 190.487853 26.201932 
L 192.611843 23.957757 
L 193.705574 22.871511 
L 196.264253 20.503435 
L 198.923016 18.284012 
L 200.673589 16.94856 
L 202.461466 15.682509 
L 204.19849 14.543364 
L 205.966235 13.4726 
L 207.762977 12.472617 
L 209.586884 11.545664 
L 211.320966 10.744299 
L 213.075576 10.010654 
L 215.021297 9.285693 
L 216.987218 8.645687 
L 219.260078 8.019127 
L 221.552367 7.507985 
L 223.860161 7.113891 
L 226.179455 6.838103 
L 227.327237 6.74587 
L 229.804294 6.646154 
L 232.282521 6.681954 
L 235.012988 6.878603 
L 237.732208 7.239278 
L 239.261935 7.515169 
L 240.784806 7.842595 
L 242.299669 8.221096 
L 243.805393 8.650143 
L 245.707836 9.268708 
L 247.591422 9.966857 
L 249.402752 10.720501 
L 251.192286 11.546289 
L 252.958181 12.442467 
L 254.698679 13.407136 
L 256.55165 14.52588 
L 258.370942 15.719701 
L 260.423844 17.185142 
L 262.426967 18.741716 
L 264.170995 20.204002 
L 265.872079 21.731208 
L 267.528964 23.319483 
L 269.14059 24.964859 
L 270.911083 26.893236 
L 273.177616 29.559239 
L 275.336049 32.320703 
L 277.224083 34.929689 
L 279.021369 37.5949 
L 280.432758 39.821091 
L 285.424999 48.743516 
L 285.700913 49.287976 
L 287.864521 53.752976 
L 289.85642 58.164467 
L 291.242447 61.387443 
L 292.540497 64.495557 
L 293.319029 66.387902 
L 294.079926 68.247217 
L 294.826385 70.070862 
L 295.561673 71.856429 
L 296.593436 74.323102 
L 297.559073 76.566629 
L 298.435289 78.528458 
L 299.319643 80.42229 
L 300.360912 82.526796 
L 301.430083 84.536692 
L 302.090913 85.70086 
L 302.76691 86.830608 
L 303.459885 87.926131 
L 304.17159 88.987752 
L 304.911858 90.027007 
L 305.674665 91.03266 
L 306.70543 92.29426 
L 307.780489 93.50188 
L 308.537205 94.292145 
L 309.316621 95.059325 
L 310.119547 95.804266 
L 310.946729 96.527875 
L 311.976987 97.373124 
L 313.044509 98.190594 
L 314.150183 98.982203 
L 315.294735 99.749972 
L 316.048904 100.230421 
L 317.412975 101.054383 
L 318.827736 101.855825 
L 320.293296 102.638076 
L 321.809484 103.404565 
L 323.388642 104.164822 
L 325.018016 104.916275 
L 327.214038 105.888048 
L 329.651388 106.927049 
L 332.175731 107.975588 
L 335.025387 109.143482 
L 337.962662 110.347322 
L 340.370808 111.34548 
L 342.822415 112.38061 
L 346.103974 113.808885 
L 349.291031 115.257122 
L 354.353482 117.717363 
L 362.852996 122.440612 
L 364.280342 123.325589 
L 368.781743 126.332338 
L 372.134989 128.821171 
L 375.364308 131.463711 
L 377.857997 133.702943 
L 379.772696 135.562384 
L 381.611107 137.482622 
L 383.040051 139.081452 
L 384.411721 140.718045 
L 385.723053 142.391208 
L 386.971097 144.099603 
L 388.603942 146.54338 
L 390.100422 149.048622 
L 391.526015 151.756953 
L 392.768215 154.482825 
L 393.842099 157.257404 
L 394.355779 158.791399 
L 394.816862 160.336703 
L 395.224665 161.892115 
L 395.578582 163.45641 
L 395.925212 165.306155 
L 396.195846 167.164402 
L 396.459104 169.97876 
L 396.546995 172.800437 
L 368.853985 172.800437 
L 368.823334 171.729595 
L 368.731416 170.660047 
L 368.578336 169.593084 
L 368.36427 168.529994 
L 368.026952 167.260247 
L 367.602595 166.000132 
L 367.259147 165.136808 
L 366.874804 164.279824 
L 366.449867 163.429881 
L 365.984671 162.587673 
L 364.934994 160.929187 
L 363.729067 159.309714 
L 362.976693 158.410066 
L 362.175973 157.525561 
L 361.327713 156.657091 
L 360.432766 155.805523 
L 359.54982 155.021273 
L 358.627204 154.253375 
L 356.666262 152.769234 
L 355.018276 151.652308 
L 353.281931 150.582828 
L 351.461005 149.562882 
L 349.55945 148.594391 
L 347.221621 147.521899 
L 344.784614 146.525765 
L 342.702141 145.762153 
L 340.561168 145.053163 
L 338.569994 144.457412 
L 336.537434 143.907934 
L 334.466835 143.405125 
L 332.361595 142.949256 
L 328.385401 142.229755 
L 324.324398 141.671236 
L 320.423356 141.289408 
L 316.485308 141.047544 
L 311.011176 140.936305 
L 300.097118 141.440457 
L 295.171778 141.967479 
L 291.665199 142.452393 
L 288.241459 143.012743 
L 285.022421 143.617292 
L 281.903073 144.274582 
L 279.298142 144.87716 
L 276.780885 145.505686 
L 274.902024 146.004278 
L 273.081031 146.511376 
L 271.320107 147.023865 
L 269.62129 147.538584 
L 267.908951 148.077131 
L 266.268873 148.610904 
L 265.079682 149.008422 
L 263.933329 149.399479 
L 262.830408 149.782461 
L 261.77144 150.155758 
L 260.32339 150.673505 
L 258.968649 151.163018 
L 257.707987 151.619564 
L 256.541863 152.038478 
L 255.748386 152.318582 
L 255.005589 152.574303 
L 254.380784 152.782012 
L 253.796696 152.967363 
L 253.253108 153.129146 
L 252.749749 153.266174 
L 252.025082 153.431467 
L 251.401542 153.525401 
L 250.877128 153.543582 
L 250.449494 153.481853 
L 250.178567 153.37414 
L 249.964808 153.212418 
L 249.806638 152.995001 
L 249.702365 152.720318 
L 249.653024 152.421955 
L 249.644735 152.07476 
L 249.693194 151.546947 
L 249.805589 150.93275 
L 249.978322 150.230665 
L 250.207636 149.439454 
L 250.492555 148.549319 
L 250.827005 147.566665 
L 251.134747 146.692871 
L 251.470428 145.756689 
L 251.930177 144.486159 
L 252.425532 143.11677 
L 252.951416 141.649284 
L 253.502699 140.08481 
L 253.990715 138.670099 
L 254.490294 137.18653 
L 254.996172 135.64163 
L 255.507088 134.031142 
L 256.019853 132.356694 
L 256.531298 130.620081 
L 257.101597 128.593084 
L 257.661844 126.492848 
L 258.188671 124.400701 
L 258.698314 122.24668 
L 259.187065 120.034185 
L 259.651318 117.766813 
L 260.267992 114.423555 
L 260.934763 110.171463 
L 261.481525 105.801023 
L 262.206363 95.250828 
L 262.24799 90.70053 
L 262.021981 84.472529 
L 261.595469 79.546616 
L 260.943705 74.704097 
L 260.356847 71.410377 
L 259.659644 68.187552 
L 258.781105 64.792815 
L 257.77543 61.510929 
L 257.172337 59.768708 
L 256.532453 58.067116 
L 255.449094 55.469666 
L 254.278378 52.988151 
L 253.023546 50.631126 
L 251.688296 48.40675 
L 250.499757 46.635424 
L 249.720391 45.567966 
L 248.92099 44.543562 
L 248.102315 43.563237 
L 247.26516 42.627976 
L 246.434531 41.763004 
L 245.587995 40.942315 
L 244.726354 40.166693 
L 243.85043 39.436877 
L 242.961065 38.753562 
L 242.059123 38.117401 
L 241.145484 37.529002 
L 240.221046 36.988929 
L 239.36265 36.53561 
L 238.496621 36.123918 
L 237.623689 35.754185 
L 236.744589 35.426713 
L 235.538977 35.049228 
L 234.54015 34.798016 
L 233.536865 34.600893 
L 232.530196 34.45806 
L 231.521225 34.369662 
L 230.511036 34.33579 
L 229.500716 34.356478 
L 228.491351 34.431705 
L 227.484026 34.561394 
L 226.429737 34.756032 
L 225.380136 35.010348 
L 224.336464 35.324055 
L 223.299949 35.696801 
L 222.37186 36.083449 
L 221.451472 36.51747 
L 220.585402 36.973104 
L 219.727804 37.470723 
L 218.879405 38.009917 
L 218.040923 38.590243 
L 217.213062 39.211224 
L 216.396512 39.872351 
L 214.800044 41.31284 
L 214.423104 41.683116 
L 212.977218 43.218634 
L 211.583969 44.885598 
L 210.247261 46.679164 
L 208.970746 48.594135 
L 207.574691 50.951571 
L 206.268325 53.45473 
L 205.361359 55.39639 
L 204.507408 57.408624 
L 203.707816 59.487237 
L 202.963748 61.627908 
L 201.948907 64.963232 
L 201.098873 68.269669 
L 200.370675 71.66806 
L 199.832221 74.716315 
L 199.387973 77.814465 
L 199.050625 80.814885 
L 198.797798 83.843064 
L 198.527307 91.012165 
L 199.192526 104.813907 
L 199.925297 110.744751 
L 200.674639 115.361096 
L 201.161182 117.942375 
L 201.68212 120.459911 
L 202.323187 123.293937 
L 202.996164 126.027554 
L 203.692919 128.653709 
L 204.405085 131.165946 
L 205.132136 133.584436 
L 205.857191 135.875122 
L 206.515415 137.867919 
L 207.157056 139.745196 
L 207.618106 141.06166 
L 208.063159 142.312229 
L 208.467337 143.43538 
L 208.852097 144.498286 
L 209.215008 145.500599 
L 209.553667 146.442102 
L 209.896875 147.411766 
L 210.204429 148.307114 
L 210.419861 148.961115 
L 210.609717 149.569232 
L 210.772554 150.131744 
L 210.906962 150.648999 
L 210.995467 151.041928 
L 211.062942 151.404615 
L 211.108657 151.737363 
L 211.131902 152.040505 
L 211.131988 152.314405 
L 211.108247 152.559459 
L 211.060035 152.77609 
L 210.986733 152.964751 
L 210.859242 153.161592 
L 210.690693 153.316667 
L 210.481298 153.430526 
L 210.229303 153.505219 
L 209.933817 153.541908 
L 209.594016 153.541812 
L 209.143016 153.497253 
L 208.630237 153.406925 
L 208.054756 153.272995 
L 207.415784 153.097715 
L 206.725744 152.887552 
L 205.973343 152.642014 
L 205.281768 152.406289 
L 204.544391 152.147989 
L 203.761145 151.868624 
L 202.932035 151.569726 
L 202.123228 151.2768 
L 201.275256 150.9697 
L 200.388291 150.649686 
L 199.462556 150.31803 
L 197.95224 149.78413 
L 196.350825 149.230141 
L 194.659913 148.660871 
L 192.881415 148.081129 
L 191.212982 147.556008 
L 189.47762 147.029764 
L 187.677318 146.505813 
L 185.814252 145.987533 
L 183.833928 145.463599 
L 181.792397 144.95276 
L 179.167647 144.339889 
L 176.458606 143.759325 
L 174.131147 143.302855 
L 171.753274 142.877034 
L 166.863435 142.13094 
L 161.192743 141.486763 
L 150.61388 140.941519 
L 147.243203 140.956007 
L 142.048998 141.168163 
L 138.547885 141.448094 
L 135.083251 141.840708 
L 131.668591 142.34757 
L 128.317332 142.969481 
L 128.07625 143.019243 
L 124.161626 143.928187 
L 122.253386 144.444478 
L 120.38157 145.001578 
L 118.000984 145.788262 
L 115.692834 146.642364 
L 113.46289 147.562436 
L 111.316748 148.54677 
L 109.173598 149.639692 
L 107.133375 150.797864 
L 105.572825 151.77361 
L 104.085121 152.788096 
L 102.883362 153.676913 
L 101.737383 154.59127 
L 100.648666 155.530039 
L 99.618617 156.492044 
L 98.596614 157.531188 
L 97.642922 158.593362 
L 96.758919 159.677026 
L 95.945887 160.780593 
L 95.061306 162.135878 
L 94.283559 163.514811 
L 93.614291 164.914379 
L 93.054919 166.331506 
L 92.635972 167.656701 
L 92.313038 168.991742 
L 92.086704 170.334082 
L 91.957382 171.681151 
L 91.924103 172.888939 
L 91.968807 174.09659 
L 92.063742 175.086528 
L 92.211092 176.074099 
L 92.41071 177.058281 
L 92.6624 178.038058 
L 92.973179 179.033801 
L 93.337771 180.022819 
L 93.755802 181.004051 
L 94.226846 181.976452 
L 94.78284 182.995275 
L 95.397086 184.001828 
L 96.068881 184.994925 
L 96.797455 185.973402 
L 97.549136 186.897461 
L 98.351533 187.806027 
L 99.203804 188.698142 
L 100.105053 189.572874 
L 101.054335 190.429319 
L 102.050657 191.266601 
L 103.092977 192.083874 
L 104.180206 192.880326 
L 106.290267 194.28633 
L 108.540571 195.614963 
L 110.618609 196.710883 
L 112.820686 197.7546 
L 115.115043 198.729492 
L 117.495451 199.633561 
L 119.955477 200.465111 
L 123.259798 201.434977 
L 126.67242 202.277877 
L 129.980391 202.956044 
L 133.025936 203.469575 
L 136.11857 203.889958 
L 139.24846 204.217973 
L 142.405741 204.454902 
L 150.048792 204.663488 
L 154.354799 204.566877 
L 158.732808 204.318411 
L 165.104907 203.695294 
L 168.216305 203.281041 
L 171.265627 202.806088 
L 174.651402 202.199387 
L 177.93309 201.53212 
L 180.536894 200.947445 
L 183.057173 200.335151 
L 184.972273 199.839513 
L 186.830101 199.333782 
L 188.73093 198.791163 
L 190.562514 198.244531 
L 191.950346 197.815075 
L 193.293041 197.387367 
L 194.589654 196.963285 
L 195.839327 196.544715 
L 197.225693 196.069763 
L 198.54714 195.607647 
L 199.802781 195.161289 
L 200.991887 194.733598 
L 202.360696 194.238019 
L 203.627533 193.780253 
L 204.725041 193.389092 
L 205.732125 193.040185 
L 206.649062 192.737679 
L 207.476405 192.485608 
L 208.05995 192.326554 
L 208.590015 192.202351 
L 208.977137 192.129059 
L 209.330561 192.080211 
L 209.650685 192.056652 
L 209.937946 192.059205 
L 210.192817 192.088663 
L 210.415811 192.145788 
L 210.607475 192.231316 
L 210.768394 192.345949 
L 210.897693 192.488308 
L 210.998262 192.660295 
L 211.07076 192.862489 
L 211.115875 193.095438 
L 211.132977 193.531278 
L 211.077518 194.103091 
L 210.94853 194.77488 
L 210.750506 195.548472 
L 210.488152 196.425337 
L 210.308324 196.982017 
L 210.10946 197.574014 
L 209.892563 198.201444 
L 209.658652 198.864381 
L 209.245133 200.016876 
L 208.793971 201.262985 
L 208.353887 202.479836 
L 207.88987 203.77355 
L 207.405478 205.143372 
L 206.904293 206.588337 
L 206.460226 207.897246 
L 206.008621 209.260561 
L 205.551801 210.677282 
L 205.092081 212.146296 
L 204.623298 213.694836 
L 204.156309 215.294928 
L 203.693503 216.94504 
L 203.237241 218.643528 
L 202.784237 220.411074 
L 202.342701 222.224491 
L 201.503289 225.980632 
L 200.803537 229.530405 
L 200.080609 233.815636 
L 199.47603 238.233553 
L 199.036688 242.421611 
L 198.726218 246.679062 
L 198.663407 247.891315 
L 198.532405 255.13808 
L 198.847708 262.445413 
L 199.244971 266.608794 
L 199.804372 270.709217 
L 200.37102 273.934594 
L 201.043214 277.0931 
L 201.82053 280.173189 
L 202.70191 283.163525 
L 203.806905 286.382763 
L 204.40629 287.940549 
L 205.036298 289.461342 
L 205.726646 291.008818 
L 206.643931 292.898809 
L 207.610899 294.714324 
L 208.625859 296.451634 
L 209.686966 298.107158 
L 210.940107 299.876606 
L 212.246627 301.53239 
L 213.727154 303.202054 
L 215.262567 304.726268 
L 216.848044 306.100201 
L 218.478527 307.319492 
L 219.328355 307.882192 
L 220.187857 308.402927 
L 221.167272 308.939 
L 222.156965 309.420644 
L 223.155844 309.847347 
L 224.162805 310.218657 
L 225.052243 310.498553 
L 225.946281 310.735258 
L 226.844152 310.928576 
L 227.745082 311.078349 
L 228.648294 311.184455 
L 229.55301 311.246807 
L 230.458448 311.265354 
L 231.363826 311.24008 
L 232.724657 311.119488 
L 234.051579 310.905719 
L 235.371649 310.597588 
L 236.682405 310.195644 
L 237.98141 309.7006 
L 239.422498 309.035134 
L 240.842406 308.254968 
L 241.734209 307.699071 
L 242.615261 307.09785 
L 243.484747 306.451848 
L 244.341868 305.761647 
L 245.185842 305.027871 
L 246.015905 304.25118 
L 246.831311 303.432273 
L 247.631336 302.571888 
L 249.069354 300.872347 
L 249.878594 299.821884 
L 250.666951 298.727098 
L 251.433662 297.589122 
L 252.177996 296.409132 
L 253.18582 294.68052 
L 254.146195 292.874708 
L 255.057463 290.995362 
L 255.91812 289.046287 
L 256.546606 287.497584 
L 257.143623 285.911577 
L 258.241346 282.635252 
L 259.186061 279.317351 
L 260.004066 275.894366 
L 260.586648 272.980526 
L 261.080749 270.01354 
L 261.458239 267.237934 
L 261.761278 264.431891 
L 262.147872 258.757022 
L 262.163024 258.387173 
L 262.119731 248.00409 
L 261.774067 242.79628 
L 261.049139 236.257015 
L 260.588441 233.116375 
L 260.068401 230.046052 
L 259.496007 227.055092 
L 258.878628 224.152053 
L 258.454668 222.306834 
L 258.017015 220.504696 
L 257.567941 218.74765 
L 257.109767 217.037597 
L 256.49528 214.856122 
L 255.874571 212.763378 
L 255.409057 211.256479 
L 254.945568 209.802592 
L 254.486496 208.402916 
L 254.034243 207.058531 
L 253.627074 205.873696 
L 253.229544 204.736934 
L 252.843513 203.64881 
L 252.470833 202.609804 
L 252.031387 201.394024 
L 251.618597 200.254426 
L 251.347996 199.504089 
L 251.093196 198.791126 
L 250.855325 198.115547 
L 250.635499 197.477316 
L 250.409957 196.800242 
L 250.210468 196.170653 
L 249.967527 195.330078 
L 249.788991 194.590515 
L 249.679382 193.95044 
L 249.643014 193.407991 
L 249.664336 193.077748 
L 249.726899 192.795718 
L 249.832071 192.560903 
L 249.981146 192.372226 
L 250.19441 192.218118 
L 250.46246 192.115571 
L 250.761499 192.065054 
L 251.109915 192.056088 
L 251.508619 192.08718 
L 251.958434 192.156771 
L 252.414262 192.252529 
L 252.913774 192.377739 
L 253.457393 192.531085 
L 254.045476 192.711216 
L 254.925085 192.999369 
L 255.889439 193.331653 
L 256.778482 193.64687 
L 257.729335 193.989025 
L 258.741902 194.355694 
L 259.815955 194.744419 
L 261.078941 195.198435 
L 262.41646 195.673102 
L 263.827623 196.164967 
L 265.311343 196.670559 
L 267.442802 197.373786 
L 269.702179 198.087245 
L 271.459383 198.618329 
L 273.282552 199.146766 
L 275.362786 199.721191 
L 277.516926 200.283656 
L 279.741433 200.829699 
L 282.032512 201.354962 
L 284.638758 201.906527 
L 287.315657 202.421957 
L 290.740102 203.005506 
L 294.252084 203.514977 
L 300.26284 204.174982 
L 306.414551 204.566539 
L 312.192756 204.66196 
L 318.93877 204.419118 
L 323.261873 204.048186 
L 327.523046 203.504098 
L 329.825526 203.131078 
L 333.717227 202.364297 
L 337.497326 201.440573 
L 339.350315 200.916995 
L 341.167221 200.354452 
L 342.9455 199.75338 
L 344.682651 199.114301 
L 346.469283 198.399035 
L 348.204527 197.642904 
L 349.885637 196.846827 
L 351.509944 196.01182 
L 353.280698 195.01877 
L 354.971378 193.978823 
L 356.578501 192.893899 
L 358.098747 191.766063 
L 359.243508 190.84006 
L 360.329841 189.889476 
L 361.356318 188.915525 
L 362.321589 187.919465 
L 363.139716 187.001954 
L 363.905999 186.068464 
L 364.619611 185.12001 
L 365.279785 184.157633 
L 365.807732 183.31384 
L 366.294644 182.461106 
L 366.740127 181.600145 
L 367.143818 180.73168 
L 367.688158 179.366984 
L 368.129436 177.988694 
L 368.466784 176.59965 
L 368.699537 175.202724 
L 368.815359 174.002496 
L 368.853985 172.800437 
z
" clip-path="url(#p5b7c387a22)" style="fill: #ffa500; opacity: 0.5"/>
   </g>
   <g id="matplotlib.axis_1">
    <g id="xtick_1">
     <g id="line2d_1">
      <defs>
       <path id="m203f1b204e" d="M 0 0 
L 0 3.5 
" style="stroke: #000000; stroke-width: 0.8"/>
      </defs>
      <g>
       <use xlink:href="#m203f1b204e" x="64.230885" y="172.800437" style="stroke: #000000; stroke-width: 0.8"/>
      </g>
     </g>
     <g id="text_1">
      <!-- −3 -->
      <g transform="translate(56.859791 187.398875)scale(0.1 -0.1)">
       <defs>
        <path id="DejaVuSans-2212" d="M 678 2272 
L 4684 2272 
L 4684 1741 
L 678 1741 
L 678 2272 
z
" transform="scale(0.015625)"/>
        <path id="DejaVuSans-33" d="M 2597 2516 
Q 3050 2419 3304 2112 
Q 3559 1806 3559 1356 
Q 3559 666 3084 287 
Q 2609 -91 1734 -91 
Q 1441 -91 1130 -33 
Q 819 25 488 141 
L 488 750 
Q 750 597 1062 519 
Q 1375 441 1716 441 
Q 2309 441 2620 675 
Q 2931 909 2931 1356 
Q 2931 1769 2642 2001 
Q 2353 2234 1838 2234 
L 1294 2234 
L 1294 2753 
L 1863 2753 
Q 2328 2753 2575 2939 
Q 2822 3125 2822 3475 
Q 2822 3834 2567 4026 
Q 2313 4219 1838 4219 
Q 1578 4219 1281 4162 
Q 984 4106 628 3988 
L 628 4550 
Q 988 4650 1302 4700 
Q 1616 4750 1894 4750 
Q 2613 4750 3031 4423 
Q 3450 4097 3450 3541 
Q 3450 3153 3228 2886 
Q 3006 2619 2597 2516 
z
" transform="scale(0.015625)"/>
       </defs>
       <use xlink:href="#DejaVuSans-2212"/>
       <use xlink:href="#DejaVuSans-33" x="83.789062"/>
      </g>
     </g>
    </g>
    <g id="xtick_2">
     <g id="line2d_2">
      <g>
       <use xlink:href="#m203f1b204e" x="119.616903" y="172.800437" style="stroke: #000000; stroke-width: 0.8"/>
      </g>
     </g>
     <g id="text_2">
      <!-- −2 -->
      <g transform="translate(112.245809 187.398875)scale(0.1 -0.1)">
       <defs>
        <path id="DejaVuSans-32" d="M 1228 531 
L 3431 531 
L 3431 0 
L 469 0 
L 469 531 
Q 828 903 1448 1529 
Q 2069 2156 2228 2338 
Q 2531 2678 2651 2914 
Q 2772 3150 2772 3378 
Q 2772 3750 2511 3984 
Q 2250 4219 1831 4219 
Q 1534 4219 1204 4116 
Q 875 4013 500 3803 
L 500 4441 
Q 881 4594 1212 4672 
Q 1544 4750 1819 4750 
Q 2544 4750 2975 4387 
Q 3406 4025 3406 3419 
Q 3406 3131 3298 2873 
Q 3191 2616 2906 2266 
Q 2828 2175 2409 1742 
Q 1991 1309 1228 531 
z
" transform="scale(0.015625)"/>
       </defs>
       <use xlink:href="#DejaVuSans-2212"/>
       <use xlink:href="#DejaVuSans-32" x="83.789062"/>
      </g>
     </g>
    </g>
    <g id="xtick_3">
     <g id="line2d_3">
      <g>
       <use xlink:href="#m203f1b204e" x="175.002921" y="172.800437" style="stroke: #000000; stroke-width: 0.8"/>
      </g>
     </g>
     <g id="text_3">
      <!-- −1 -->
      <g transform="translate(167.631828 187.398875)scale(0.1 -0.1)">
       <defs>
        <path id="DejaVuSans-31" d="M 794 531 
L 1825 531 
L 1825 4091 
L 703 3866 
L 703 4441 
L 1819 4666 
L 2450 4666 
L 2450 531 
L 3481 531 
L 3481 0 
L 794 0 
L 794 531 
z
" transform="scale(0.015625)"/>
       </defs>
       <use xlink:href="#DejaVuSans-2212"/>
       <use xlink:href="#DejaVuSans-31" x="83.789062"/>
      </g>
     </g>
    </g>
    <g id="xtick_4">
     <g id="line2d_4">
      <g>
       <use xlink:href="#m203f1b204e" x="230.38894" y="172.800437" style="stroke: #000000; stroke-width: 0.8"/>
      </g>
     </g>
    </g>
    <g id="xtick_5">
     <g id="line2d_5">
      <g>
       <use xlink:href="#m203f1b204e" x="285.774958" y="172.800437" style="stroke: #000000; stroke-width: 0.8"/>
      </g>
     </g>
     <g id="text_4">
      <!-- 1 -->
      <g transform="translate(282.593708 187.398875)scale(0.1 -0.1)">
       <use xlink:href="#DejaVuSans-31"/>
      </g>
     </g>
    </g>
    <g id="xtick_6">
     <g id="line2d_6">
      <g>
       <use xlink:href="#m203f1b204e" x="341.160976" y="172.800437" style="stroke: #000000; stroke-width: 0.8"/>
      </g>
     </g>
     <g id="text_5">
      <!-- 2 -->
      <g transform="translate(337.979726 187.398875)scale(0.1 -0.1)">
       <use xlink:href="#DejaVuSans-32"/>
      </g>
     </g>
    </g>
    <g id="xtick_7">
     <g id="line2d_7">
      <g>
       <use xlink:href="#m203f1b204e" x="396.546995" y="172.800437" style="stroke: #000000; stroke-width: 0.8"/>
      </g>
     </g>
     <g id="text_6">
      <!-- 3 -->
      <g transform="translate(393.365745 187.398875)scale(0.1 -0.1)">
       <use xlink:href="#DejaVuSans-33"/>
      </g>
     </g>
    </g>
    <g id="xtick_8">
     <g id="line2d_8">
      <defs>
       <path id="md21a3f5e34" d="M 0 0 
L 0 2 
" style="stroke: #000000; stroke-width: 0.6"/>
      </defs>
      <g>
       <use xlink:href="#md21a3f5e34" x="75.308088" y="172.800437" style="stroke: #000000; stroke-width: 0.6"/>
      </g>
     </g>
    </g>
    <g id="xtick_9">
     <g id="line2d_9">
      <g>
       <use xlink:href="#md21a3f5e34" x="86.385292" y="172.800437" style="stroke: #000000; stroke-width: 0.6"/>
      </g>
     </g>
    </g>
    <g id="xtick_10">
     <g id="line2d_10">
      <g>
       <use xlink:href="#md21a3f5e34" x="97.462496" y="172.800437" style="stroke: #000000; stroke-width: 0.6"/>
      </g>
     </g>
    </g>
    <g id="xtick_11">
     <g id="line2d_11">
      <g>
       <use xlink:href="#md21a3f5e34" x="108.539699" y="172.800437" style="stroke: #000000; stroke-width: 0.6"/>
      </g>
     </g>
    </g>
    <g id="xtick_12">
     <g id="line2d_12">
      <g>
       <use xlink:href="#md21a3f5e34" x="130.694107" y="172.800437" style="stroke: #000000; stroke-width: 0.6"/>
      </g>
     </g>
    </g>
    <g id="xtick_13">
     <g id="line2d_13">
      <g>
       <use xlink:href="#md21a3f5e34" x="141.77131" y="172.800437" style="stroke: #000000; stroke-width: 0.6"/>
      </g>
     </g>
    </g>
    <g id="xtick_14">
     <g id="line2d_14">
      <g>
       <use xlink:href="#md21a3f5e34" x="152.848514" y="172.800437" style="stroke: #000000; stroke-width: 0.6"/>
      </g>
     </g>
    </g>
    <g id="xtick_15">
     <g id="line2d_15">
      <g>
       <use xlink:href="#md21a3f5e34" x="163.925718" y="172.800437" style="stroke: #000000; stroke-width: 0.6"/>
      </g>
     </g>
    </g>
    <g id="xtick_16">
     <g id="line2d_16">
      <g>
       <use xlink:href="#md21a3f5e34" x="186.080125" y="172.800437" style="stroke: #000000; stroke-width: 0.6"/>
      </g>
     </g>
    </g>
    <g id="xtick_17">
     <g id="line2d_17">
      <g>
       <use xlink:href="#md21a3f5e34" x="197.157329" y="172.800437" style="stroke: #000000; stroke-width: 0.6"/>
      </g>
     </g>
    </g>
    <g id="xtick_18">
     <g id="line2d_18">
      <g>
       <use xlink:href="#md21a3f5e34" x="208.234532" y="172.800437" style="stroke: #000000; stroke-width: 0.6"/>
      </g>
     </g>
    </g>
    <g id="xtick_19">
     <g id="line2d_19">
      <g>
       <use xlink:href="#md21a3f5e34" x="219.311736" y="172.800437" style="stroke: #000000; stroke-width: 0.6"/>
      </g>
     </g>
    </g>
    <g id="xtick_20">
     <g id="line2d_20">
      <g>
       <use xlink:href="#md21a3f5e34" x="241.466143" y="172.800437" style="stroke: #000000; stroke-width: 0.6"/>
      </g>
     </g>
    </g>
    <g id="xtick_21">
     <g id="line2d_21">
      <g>
       <use xlink:href="#md21a3f5e34" x="252.543347" y="172.800437" style="stroke: #000000; stroke-width: 0.6"/>
      </g>
     </g>
    </g>
    <g id="xtick_22">
     <g id="line2d_22">
      <g>
       <use xlink:href="#md21a3f5e34" x="263.620551" y="172.800437" style="stroke: #000000; stroke-width: 0.6"/>
      </g>
     </g>
    </g>
    <g id="xtick_23">
     <g id="line2d_23">
      <g>
       <use xlink:href="#md21a3f5e34" x="274.697754" y="172.800437" style="stroke: #000000; stroke-width: 0.6"/>
      </g>
     </g>
    </g>
    <g id="xtick_24">
     <g id="line2d_24">
      <g>
       <use xlink:href="#md21a3f5e34" x="296.852162" y="172.800437" style="stroke: #000000; stroke-width: 0.6"/>
      </g>
     </g>
    </g>
    <g id="xtick_25">
     <g id="line2d_25">
      <g>
       <use xlink:href="#md21a3f5e34" x="307.929365" y="172.800437" style="stroke: #000000; stroke-width: 0.6"/>
      </g>
     </g>
    </g>
    <g id="xtick_26">
     <g id="line2d_26">
      <g>
       <use xlink:href="#md21a3f5e34" x="319.006569" y="172.800437" style="stroke: #000000; stroke-width: 0.6"/>
      </g>
     </g>
    </g>
    <g id="xtick_27">
     <g id="line2d_27">
      <g>
       <use xlink:href="#md21a3f5e34" x="330.083773" y="172.800437" style="stroke: #000000; stroke-width: 0.6"/>
      </g>
     </g>
    </g>
    <g id="xtick_28">
     <g id="line2d_28">
      <g>
       <use xlink:href="#md21a3f5e34" x="352.23818" y="172.800437" style="stroke: #000000; stroke-width: 0.6"/>
      </g>
     </g>
    </g>
    <g id="xtick_29">
     <g id="line2d_29">
      <g>
       <use xlink:href="#md21a3f5e34" x="363.315384" y="172.800437" style="stroke: #000000; stroke-width: 0.6"/>
      </g>
     </g>
    </g>
    <g id="xtick_30">
     <g id="line2d_30">
      <g>
       <use xlink:href="#md21a3f5e34" x="374.392587" y="172.800437" style="stroke: #000000; stroke-width: 0.6"/>
      </g>
     </g>
    </g>
    <g id="xtick_31">
     <g id="line2d_31">
      <g>
       <use xlink:href="#md21a3f5e34" x="385.469791" y="172.800437" style="stroke: #000000; stroke-width: 0.6"/>
      </g>
     </g>
    </g>
   </g>
   <g id="matplotlib.axis_2">
    <g id="ytick_1">
     <g id="line2d_32">
      <defs>
       <path id="m00ddb21fab" d="M 0 0 
L -3.5 0 
" style="stroke: #000000; stroke-width: 0.8"/>
      </defs>
      <g>
       <use xlink:href="#m00ddb21fab" x="230.38894" y="338.958492" style="stroke: #000000; stroke-width: 0.8"/>
      </g>
     </g>
     <g id="text_7">
      <!-- −3 -->
      <g transform="translate(208.646752 342.757711)scale(0.1 -0.1)">
       <use xlink:href="#DejaVuSans-2212"/>
       <use xlink:href="#DejaVuSans-33" x="83.789062"/>
      </g>
     </g>
    </g>
    <g id="ytick_2">
     <g id="line2d_33">
      <g>
       <use xlink:href="#m00ddb21fab" x="230.38894" y="283.572474" style="stroke: #000000; stroke-width: 0.8"/>
      </g>
     </g>
     <g id="text_8">
      <!-- −2 -->
      <g transform="translate(208.646752 287.371693)scale(0.1 -0.1)">
       <use xlink:href="#DejaVuSans-2212"/>
       <use xlink:href="#DejaVuSans-32" x="83.789062"/>
      </g>
     </g>
    </g>
    <g id="ytick_3">
     <g id="line2d_34">
      <g>
       <use xlink:href="#m00ddb21fab" x="230.38894" y="228.186456" style="stroke: #000000; stroke-width: 0.8"/>
      </g>
     </g>
     <g id="text_9">
      <!-- −1 -->
      <g transform="translate(208.646752 231.985674)scale(0.1 -0.1)">
       <use xlink:href="#DejaVuSans-2212"/>
       <use xlink:href="#DejaVuSans-31" x="83.789062"/>
      </g>
     </g>
    </g>
    <g id="ytick_4">
     <g id="line2d_35">
      <g>
       <use xlink:href="#m00ddb21fab" x="230.38894" y="172.800437" style="stroke: #000000; stroke-width: 0.8"/>
      </g>
     </g>
    </g>
    <g id="ytick_5">
     <g id="line2d_36">
      <g>
       <use xlink:href="#m00ddb21fab" x="230.38894" y="117.414419" style="stroke: #000000; stroke-width: 0.8"/>
      </g>
     </g>
     <g id="text_10">
      <!-- 1 -->
      <g transform="translate(217.02644 121.213638)scale(0.1 -0.1)">
       <use xlink:href="#DejaVuSans-31"/>
      </g>
     </g>
    </g>
    <g id="ytick_6">
     <g id="line2d_37">
      <g>
       <use xlink:href="#m00ddb21fab" x="230.38894" y="62.028401" style="stroke: #000000; stroke-width: 0.8"/>
      </g>
     </g>
     <g id="text_11">
      <!-- 2 -->
      <g transform="translate(217.02644 65.827619)scale(0.1 -0.1)">
       <use xlink:href="#DejaVuSans-32"/>
      </g>
     </g>
    </g>
    <g id="ytick_7">
     <g id="line2d_38">
      <g>
       <use xlink:href="#m00ddb21fab" x="230.38894" y="6.642382" style="stroke: #000000; stroke-width: 0.8"/>
      </g>
     </g>
     <g id="text_12">
      <!-- 3 -->
      <g transform="translate(217.02644 10.441601)scale(0.1 -0.1)">
       <use xlink:href="#DejaVuSans-33"/>
      </g>
     </g>
    </g>
    <g id="ytick_8">
     <g id="line2d_39">
      <defs>
       <path id="m052b2a5e54" d="M 0 0 
L -2 0 
" style="stroke: #000000; stroke-width: 0.6"/>
      </defs>
      <g>
       <use xlink:href="#m052b2a5e54" x="230.38894" y="327.881289" style="stroke: #000000; stroke-width: 0.6"/>
      </g>
     </g>
    </g>
    <g id="ytick_9">
     <g id="line2d_40">
      <g>
       <use xlink:href="#m052b2a5e54" x="230.38894" y="316.804085" style="stroke: #000000; stroke-width: 0.6"/>
      </g>
     </g>
    </g>
    <g id="ytick_10">
     <g id="line2d_41">
      <g>
       <use xlink:href="#m052b2a5e54" x="230.38894" y="305.726881" style="stroke: #000000; stroke-width: 0.6"/>
      </g>
     </g>
    </g>
    <g id="ytick_11">
     <g id="line2d_42">
      <g>
       <use xlink:href="#m052b2a5e54" x="230.38894" y="294.649678" style="stroke: #000000; stroke-width: 0.6"/>
      </g>
     </g>
    </g>
    <g id="ytick_12">
     <g id="line2d_43">
      <g>
       <use xlink:href="#m052b2a5e54" x="230.38894" y="272.49527" style="stroke: #000000; stroke-width: 0.6"/>
      </g>
     </g>
    </g>
    <g id="ytick_13">
     <g id="line2d_44">
      <g>
       <use xlink:href="#m052b2a5e54" x="230.38894" y="261.418067" style="stroke: #000000; stroke-width: 0.6"/>
      </g>
     </g>
    </g>
    <g id="ytick_14">
     <g id="line2d_45">
      <g>
       <use xlink:href="#m052b2a5e54" x="230.38894" y="250.340863" style="stroke: #000000; stroke-width: 0.6"/>
      </g>
     </g>
    </g>
    <g id="ytick_15">
     <g id="line2d_46">
      <g>
       <use xlink:href="#m052b2a5e54" x="230.38894" y="239.263659" style="stroke: #000000; stroke-width: 0.6"/>
      </g>
     </g>
    </g>
    <g id="ytick_16">
     <g id="line2d_47">
      <g>
       <use xlink:href="#m052b2a5e54" x="230.38894" y="217.109252" style="stroke: #000000; stroke-width: 0.6"/>
      </g>
     </g>
    </g>
    <g id="ytick_17">
     <g id="line2d_48">
      <g>
       <use xlink:href="#m052b2a5e54" x="230.38894" y="206.032048" style="stroke: #000000; stroke-width: 0.6"/>
      </g>
     </g>
    </g>
    <g id="ytick_18">
     <g id="line2d_49">
      <g>
       <use xlink:href="#m052b2a5e54" x="230.38894" y="194.954845" style="stroke: #000000; stroke-width: 0.6"/>
      </g>
     </g>
    </g>
    <g id="ytick_19">
     <g id="line2d_50">
      <g>
       <use xlink:href="#m052b2a5e54" x="230.38894" y="183.877641" style="stroke: #000000; stroke-width: 0.6"/>
      </g>
     </g>
    </g>
    <g id="ytick_20">
     <g id="line2d_51">
      <g>
       <use xlink:href="#m052b2a5e54" x="230.38894" y="161.723234" style="stroke: #000000; stroke-width: 0.6"/>
      </g>
     </g>
    </g>
    <g id="ytick_21">
     <g id="line2d_52">
      <g>
       <use xlink:href="#m052b2a5e54" x="230.38894" y="150.64603" style="stroke: #000000; stroke-width: 0.6"/>
      </g>
     </g>
    </g>
    <g id="ytick_22">
     <g id="line2d_53">
      <g>
       <use xlink:href="#m052b2a5e54" x="230.38894" y="139.568826" style="stroke: #000000; stroke-width: 0.6"/>
      </g>
     </g>
    </g>
    <g id="ytick_23">
     <g id="line2d_54">
      <g>
       <use xlink:href="#m052b2a5e54" x="230.38894" y="128.491623" style="stroke: #000000; stroke-width: 0.6"/>
      </g>
     </g>
    </g>
    <g id="ytick_24">
     <g id="line2d_55">
      <g>
       <use xlink:href="#m052b2a5e54" x="230.38894" y="106.337215" style="stroke: #000000; stroke-width: 0.6"/>
      </g>
     </g>
    </g>
    <g id="ytick_25">
     <g id="line2d_56">
      <g>
       <use xlink:href="#m052b2a5e54" x="230.38894" y="95.260012" style="stroke: #000000; stroke-width: 0.6"/>
      </g>
     </g>
    </g>
    <g id="ytick_26">
     <g id="line2d_57">
      <g>
       <use xlink:href="#m052b2a5e54" x="230.38894" y="84.182808" style="stroke: #000000; stroke-width: 0.6"/>
      </g>
     </g>
    </g>
    <g id="ytick_27">
     <g id="line2d_58">
      <g>
       <use xlink:href="#m052b2a5e54" x="230.38894" y="73.105604" style="stroke: #000000; stroke-width: 0.6"/>
      </g>
     </g>
    </g>
    <g id="ytick_28">
     <g id="line2d_59">
      <g>
       <use xlink:href="#m052b2a5e54" x="230.38894" y="50.951197" style="stroke: #000000; stroke-width: 0.6"/>
      </g>
     </g>
    </g>
    <g id="ytick_29">
     <g id="line2d_60">
      <g>
       <use xlink:href="#m052b2a5e54" x="230.38894" y="39.873993" style="stroke: #000000; stroke-width: 0.6"/>
      </g>
     </g>
    </g>
    <g id="ytick_30">
     <g id="line2d_61">
      <g>
       <use xlink:href="#m052b2a5e54" x="230.38894" y="28.79679" style="stroke: #000000; stroke-width: 0.6"/>
      </g>
     </g>
    </g>
    <g id="ytick_31">
     <g id="line2d_62">
      <g>
       <use xlink:href="#m052b2a5e54" x="230.38894" y="17.719586" style="stroke: #000000; stroke-width: 0.6"/>
      </g>
     </g>
    </g>
   </g>
   <g id="line2d_63">
    <path d="M 368.853985 172.800437 
L 368.731416 170.660047 
L 368.36427 168.529994 
L 367.602595 166.000132 
L 366.874804 164.279824 
L 365.984671 162.587673 
L 364.934994 160.929187 
L 362.976693 158.410066 
L 361.327713 156.657091 
L 359.54982 155.021273 
L 358.627204 154.253375 
L 355.018276 151.652308 
L 351.461005 149.562882 
L 347.221621 147.521899 
L 342.702141 145.762153 
L 338.569994 144.457412 
L 334.466835 143.405125 
L 332.361595 142.949256 
L 328.385401 142.229755 
L 324.324398 141.671236 
L 320.423356 141.289408 
L 316.485308 141.047544 
L 311.011176 140.936305 
L 300.097118 141.440457 
L 291.665199 142.452393 
L 285.022421 143.617292 
L 279.298142 144.87716 
L 273.081031 146.511376 
L 267.908951 148.077131 
L 261.77144 150.155758 
L 252.749749 153.266174 
L 251.401542 153.525401 
L 250.449494 153.481853 
L 249.964808 153.212418 
L 249.702365 152.720318 
L 249.644735 152.07476 
L 249.805589 150.93275 
L 250.492555 148.549319 
L 252.951416 141.649284 
L 254.996172 135.64163 
L 256.531298 130.620081 
L 258.188671 124.400701 
L 259.651318 117.766813 
L 260.267992 114.423555 
L 260.934763 110.171463 
L 261.481525 105.801023 
L 262.206363 95.250828 
L 262.24799 90.70053 
L 262.021981 84.472529 
L 261.595469 79.546616 
L 260.943705 74.704097 
L 260.356847 71.410377 
L 259.659644 68.187552 
L 258.781105 64.792815 
L 257.172337 59.768708 
L 255.449094 55.469666 
L 254.278378 52.988151 
L 253.023546 50.631126 
L 250.499757 46.635424 
L 248.92099 44.543562 
L 247.26516 42.627976 
L 245.587995 40.942315 
L 243.85043 39.436877 
L 242.059123 38.117401 
L 240.221046 36.988929 
L 238.496621 36.123918 
L 236.744589 35.426713 
L 234.54015 34.798016 
L 232.530196 34.45806 
L 230.511036 34.33579 
L 228.491351 34.431705 
L 226.429737 34.756032 
L 224.336464 35.324055 
L 222.37186 36.083449 
L 220.585402 36.973104 
L 218.879405 38.009917 
L 217.213062 39.211224 
L 216.396512 39.872351 
L 214.423104 41.683116 
L 212.977218 43.218634 
L 211.583969 44.885598 
L 210.247261 46.679164 
L 208.970746 48.594135 
L 207.574691 50.951571 
L 205.361359 55.39639 
L 203.707816 59.487237 
L 202.963748 61.627908 
L 201.948907 64.963232 
L 201.098873 68.269669 
L 200.370675 71.66806 
L 199.387973 77.814465 
L 198.797798 83.843064 
L 198.527307 91.012165 
L 199.192526 104.813907 
L 199.925297 110.744751 
L 201.161182 117.942375 
L 202.323187 123.293937 
L 203.692919 128.653709 
L 205.132136 133.584436 
L 207.157056 139.745196 
L 210.906962 150.648999 
L 211.131902 152.040505 
L 211.060035 152.77609 
L 210.859242 153.161592 
L 210.481298 153.430526 
L 209.933817 153.541908 
L 209.143016 153.497253 
L 207.415784 153.097715 
L 203.761145 151.868624 
L 194.659913 148.660871 
L 189.47762 147.029764 
L 183.833928 145.463599 
L 179.167647 144.339889 
L 174.131147 143.302855 
L 171.753274 142.877034 
L 166.863435 142.13094 
L 161.192743 141.486763 
L 150.61388 140.941519 
L 147.243203 140.956007 
L 142.048998 141.168163 
L 138.547885 141.448094 
L 135.083251 141.840708 
L 131.668591 142.34757 
L 128.07625 143.019243 
L 122.253386 144.444478 
L 118.000984 145.788262 
L 113.46289 147.562436 
L 109.173598 149.639692 
L 105.572825 151.77361 
L 102.883362 153.676913 
L 100.648666 155.530039 
L 98.596614 157.531188 
L 96.758919 159.677026 
L 95.061306 162.135878 
L 93.614291 164.914379 
L 92.635972 167.656701 
L 92.086704 170.334082 
L 91.924103 172.888939 
L 92.063742 175.086528 
L 92.41071 177.058281 
L 92.973179 179.033801 
L 93.755802 181.004051 
L 94.78284 182.995275 
L 96.068881 184.994925 
L 97.549136 186.897461 
L 99.203804 188.698142 
L 101.054335 190.429319 
L 103.092977 192.083874 
L 104.180206 192.880326 
L 106.290267 194.28633 
L 108.540571 195.614963 
L 112.820686 197.7546 
L 117.495451 199.633561 
L 119.955477 200.465111 
L 123.259798 201.434977 
L 126.67242 202.277877 
L 133.025936 203.469575 
L 139.24846 204.217973 
L 142.405741 204.454902 
L 150.048792 204.663488 
L 154.354799 204.566877 
L 158.732808 204.318411 
L 168.216305 203.281041 
L 174.651402 202.199387 
L 180.536894 200.947445 
L 186.830101 199.333782 
L 193.293041 197.387367 
L 199.802781 195.161289 
L 207.476405 192.485608 
L 209.330561 192.080211 
L 210.192817 192.088663 
L 210.768394 192.345949 
L 210.998262 192.660295 
L 211.115875 193.095438 
L 211.077518 194.103091 
L 210.750506 195.548472 
L 209.658652 198.864381 
L 206.008621 209.260561 
L 204.156309 215.294928 
L 202.784237 220.411074 
L 201.503289 225.980632 
L 200.803537 229.530405 
L 200.080609 233.815636 
L 199.47603 238.233553 
L 199.036688 242.421611 
L 198.663407 247.891315 
L 198.532405 255.13808 
L 198.847708 262.445413 
L 199.244971 266.608794 
L 199.804372 270.709217 
L 200.37102 273.934594 
L 201.043214 277.0931 
L 201.82053 280.173189 
L 202.70191 283.163525 
L 204.40629 287.940549 
L 205.726646 291.008818 
L 207.610899 294.714324 
L 209.686966 298.107158 
L 212.246627 301.53239 
L 213.727154 303.202054 
L 215.262567 304.726268 
L 216.848044 306.100201 
L 219.328355 307.882192 
L 221.167272 308.939 
L 223.155844 309.847347 
L 225.052243 310.498553 
L 226.844152 310.928576 
L 228.648294 311.184455 
L 230.458448 311.265354 
L 232.724657 311.119488 
L 235.371649 310.597588 
L 237.98141 309.7006 
L 239.422498 309.035134 
L 241.734209 307.699071 
L 243.484747 306.451848 
L 245.185842 305.027871 
L 246.831311 303.432273 
L 249.069354 300.872347 
L 250.666951 298.727098 
L 252.177996 296.409132 
L 254.146195 292.874708 
L 255.91812 289.046287 
L 257.143623 285.911577 
L 258.241346 282.635252 
L 259.186061 279.317351 
L 260.586648 272.980526 
L 261.458239 267.237934 
L 261.761278 264.431891 
L 262.163024 258.387173 
L 262.119731 248.00409 
L 261.774067 242.79628 
L 261.049139 236.257015 
L 260.068401 230.046052 
L 258.878628 224.152053 
L 257.567941 218.74765 
L 255.874571 212.763378 
L 254.034243 207.058531 
L 249.788991 194.590515 
L 249.643014 193.407991 
L 249.726899 192.795718 
L 249.981146 192.372226 
L 250.46246 192.115571 
L 251.109915 192.056088 
L 252.414262 192.252529 
L 254.045476 192.711216 
L 258.741902 194.355694 
L 265.311343 196.670559 
L 271.459383 198.618329 
L 277.516926 200.283656 
L 282.032512 201.354962 
L 287.315657 202.421957 
L 294.252084 203.514977 
L 300.26284 204.174982 
L 306.414551 204.566539 
L 312.192756 204.66196 
L 318.93877 204.419118 
L 323.261873 204.048186 
L 329.825526 203.131078 
L 333.717227 202.364297 
L 339.350315 200.916995 
L 342.9455 199.75338 
L 346.469283 198.399035 
L 349.885637 196.846827 
L 353.280698 195.01877 
L 356.578501 192.893899 
L 359.243508 190.84006 
L 361.356318 188.915525 
L 363.139716 187.001954 
L 364.619611 185.12001 
L 365.807732 183.31384 
L 366.740127 181.600145 
L 367.688158 179.366984 
L 368.466784 176.59965 
L 368.815359 174.002496 
L 368.853985 172.800437 
L 368.853985 172.800437 
" clip-path="url(#p5b7c387a22)" style="fill: none; stroke: #0000ff; stroke-linecap: square"/>
   </g>
   <g id="patch_4">
    <path d="M 230.38894 345.6 
L 230.38894 -0 
" style="fill: none; stroke: #000000; stroke-width: 0.8; stroke-linejoin: miter; stroke-linecap: square"/>
   </g>
   <g id="patch_5">
    <path d="M 57.607126 172.800437 
L 403.192874 172.800437 
" style="fill: none; stroke: #000000; stroke-width: 0.8; stroke-linejoin: miter; stroke-linecap: square"/>
   </g>
  </g>
 </g>
 <defs>
  <clipPath id="p5b7c387a22">
   <rect x="57.607126" y="0" width="345.585749" height="345.6"/>
  </clipPath>
 </defs>
</svg>
