<?xml version="1.0" encoding="utf-8" standalone="no"?>
<!DOCTYPE svg PUBLIC "-//W3C//DTD SVG 1.1//EN"
  "http://www.w3.org/Graphics/SVG/1.1/DTD/svg11.dtd">
<!-- Created with matplotlib (http://matplotlib.org/) -->
<svg height="345.6pt" version="1.1" viewBox="0 0 460.8 345.6" width="460.8pt" xmlns="http://www.w3.org/2000/svg" xmlns:xlink="http://www.w3.org/1999/xlink">
 <defs>
  <style type="text/css">
*{stroke-linecap:butt;stroke-linejoin:round;}
  </style>
 </defs>
 <g id="figure_1">
  <g id="patch_1">
   <path d="M 0 345.6 
L 460.8 345.6 
L 460.8 0 
L 0 0 
z
" style="fill:#ffffff;"/>
  </g>
  <g id="axes_1">
   <g id="patch_2">
    <path d="M 2.52 343.08 
L 458.28 343.08 
L 458.28 2.52 
L 2.52 2.52 
z
" style="fill:#ffffff;"/>
   </g>
   <g id="matplotlib.axis_1">
    <g id="xtick_1">
     <g id="line2d_1">
      <defs>
       <path d="M 0 0 
L 0 3.5 
" id="mc0f8bf0174" style="stroke:#000000;stroke-width:0.8;"/>
      </defs>
      <g>
       <use style="stroke:#000000;stroke-width:0.8;" x="11.284615" xlink:href="#mc0f8bf0174" y="172.799936"/>
      </g>
     </g>
     <g id="text_1">
      <!-- -1 -->
      <defs>
       <path d="M 4.890625 31.390625 
L 31.203125 31.390625 
L 31.203125 23.390625 
L 4.890625 23.390625 
z
" id="DejaVuSans-2d"/>
       <path d="M 12.40625 8.296875 
L 28.515625 8.296875 
L 28.515625 63.921875 
L 10.984375 60.40625 
L 10.984375 69.390625 
L 28.421875 72.90625 
L 38.28125 72.90625 
L 38.28125 8.296875 
L 54.390625 8.296875 
L 54.390625 0 
L 12.40625 0 
z
" id="DejaVuSans-31"/>
      </defs>
      <g transform="translate(6.299459 187.398373)scale(0.1 -0.1)">
       <use xlink:href="#DejaVuSans-2d"/>
       <use x="36.083984" xlink:href="#DejaVuSans-31"/>
      </g>
     </g>
    </g>
    <g id="xtick_2">
     <g id="line2d_2">
      <g>
       <use style="stroke:#000000;stroke-width:0.8;" x="120.842308" xlink:href="#mc0f8bf0174" y="172.799936"/>
      </g>
     </g>
     <g id="text_2">
      <!-- -0.5 -->
      <defs>
       <path d="M 31.78125 66.40625 
Q 24.171875 66.40625 20.328125 58.90625 
Q 16.5 51.421875 16.5 36.375 
Q 16.5 21.390625 20.328125 13.890625 
Q 24.171875 6.390625 31.78125 6.390625 
Q 39.453125 6.390625 43.28125 13.890625 
Q 47.125 21.390625 47.125 36.375 
Q 47.125 51.421875 43.28125 58.90625 
Q 39.453125 66.40625 31.78125 66.40625 
z
M 31.78125 74.21875 
Q 44.046875 74.21875 50.515625 64.515625 
Q 56.984375 54.828125 56.984375 36.375 
Q 56.984375 17.96875 50.515625 8.265625 
Q 44.046875 -1.421875 31.78125 -1.421875 
Q 19.53125 -1.421875 13.0625 8.265625 
Q 6.59375 17.96875 6.59375 36.375 
Q 6.59375 54.828125 13.0625 64.515625 
Q 19.53125 74.21875 31.78125 74.21875 
z
" id="DejaVuSans-30"/>
       <path d="M 10.6875 12.40625 
L 21 12.40625 
L 21 0 
L 10.6875 0 
z
" id="DejaVuSans-2e"/>
       <path d="M 10.796875 72.90625 
L 49.515625 72.90625 
L 49.515625 64.59375 
L 19.828125 64.59375 
L 19.828125 46.734375 
Q 21.96875 47.46875 24.109375 47.828125 
Q 26.265625 48.1875 28.421875 48.1875 
Q 40.625 48.1875 47.75 41.5 
Q 54.890625 34.8125 54.890625 23.390625 
Q 54.890625 11.625 47.5625 5.09375 
Q 40.234375 -1.421875 26.90625 -1.421875 
Q 22.3125 -1.421875 17.546875 -0.640625 
Q 12.796875 0.140625 7.71875 1.703125 
L 7.71875 11.625 
Q 12.109375 9.234375 16.796875 8.0625 
Q 21.484375 6.890625 26.703125 6.890625 
Q 35.15625 6.890625 40.078125 11.328125 
Q 45.015625 15.765625 45.015625 23.390625 
Q 45.015625 31 40.078125 35.4375 
Q 35.15625 39.890625 26.703125 39.890625 
Q 22.75 39.890625 18.8125 39.015625 
Q 14.890625 38.140625 10.796875 36.28125 
z
" id="DejaVuSans-35"/>
      </defs>
      <g transform="translate(111.086839 187.398373)scale(0.1 -0.1)">
       <use xlink:href="#DejaVuSans-2d"/>
       <use x="36.083984" xlink:href="#DejaVuSans-30"/>
       <use x="99.707031" xlink:href="#DejaVuSans-2e"/>
       <use x="131.494141" xlink:href="#DejaVuSans-35"/>
      </g>
     </g>
    </g>
    <g id="xtick_3">
     <g id="line2d_3">
      <g>
       <use style="stroke:#000000;stroke-width:0.8;" x="230.4" xlink:href="#mc0f8bf0174" y="172.799936"/>
      </g>
     </g>
    </g>
    <g id="xtick_4">
     <g id="line2d_4">
      <g>
       <use style="stroke:#000000;stroke-width:0.8;" x="339.957692" xlink:href="#mc0f8bf0174" y="172.799936"/>
      </g>
     </g>
     <g id="text_3">
      <!-- 0.5 -->
      <g transform="translate(332.00613 187.398373)scale(0.1 -0.1)">
       <use xlink:href="#DejaVuSans-30"/>
       <use x="63.623047" xlink:href="#DejaVuSans-2e"/>
       <use x="95.410156" xlink:href="#DejaVuSans-35"/>
      </g>
     </g>
    </g>
    <g id="xtick_5">
     <g id="line2d_5">
      <g>
       <use style="stroke:#000000;stroke-width:0.8;" x="449.515385" xlink:href="#mc0f8bf0174" y="172.799936"/>
      </g>
     </g>
     <g id="text_4">
      <!-- 1 -->
      <g transform="translate(446.334135 187.398373)scale(0.1 -0.1)">
       <use xlink:href="#DejaVuSans-31"/>
      </g>
     </g>
    </g>
    <g id="xtick_6">
     <g id="line2d_6">
      <defs>
       <path d="M 0 0 
L 0 2 
" id="mfc6e3ccac5" style="stroke:#000000;stroke-width:0.6;"/>
      </defs>
      <g>
       <use style="stroke:#000000;stroke-width:0.6;" x="33.196154" xlink:href="#mfc6e3ccac5" y="172.799936"/>
      </g>
     </g>
    </g>
    <g id="xtick_7">
     <g id="line2d_7">
      <g>
       <use style="stroke:#000000;stroke-width:0.6;" x="55.107692" xlink:href="#mfc6e3ccac5" y="172.799936"/>
      </g>
     </g>
    </g>
    <g id="xtick_8">
     <g id="line2d_8">
      <g>
       <use style="stroke:#000000;stroke-width:0.6;" x="77.019231" xlink:href="#mfc6e3ccac5" y="172.799936"/>
      </g>
     </g>
    </g>
    <g id="xtick_9">
     <g id="line2d_9">
      <g>
       <use style="stroke:#000000;stroke-width:0.6;" x="98.930769" xlink:href="#mfc6e3ccac5" y="172.799936"/>
      </g>
     </g>
    </g>
    <g id="xtick_10">
     <g id="line2d_10">
      <g>
       <use style="stroke:#000000;stroke-width:0.6;" x="142.753846" xlink:href="#mfc6e3ccac5" y="172.799936"/>
      </g>
     </g>
    </g>
    <g id="xtick_11">
     <g id="line2d_11">
      <g>
       <use style="stroke:#000000;stroke-width:0.6;" x="164.665385" xlink:href="#mfc6e3ccac5" y="172.799936"/>
      </g>
     </g>
    </g>
    <g id="xtick_12">
     <g id="line2d_12">
      <g>
       <use style="stroke:#000000;stroke-width:0.6;" x="186.576923" xlink:href="#mfc6e3ccac5" y="172.799936"/>
      </g>
     </g>
    </g>
    <g id="xtick_13">
     <g id="line2d_13">
      <g>
       <use style="stroke:#000000;stroke-width:0.6;" x="208.488462" xlink:href="#mfc6e3ccac5" y="172.799936"/>
      </g>
     </g>
    </g>
    <g id="xtick_14">
     <g id="line2d_14">
      <g>
       <use style="stroke:#000000;stroke-width:0.6;" x="252.311538" xlink:href="#mfc6e3ccac5" y="172.799936"/>
      </g>
     </g>
    </g>
    <g id="xtick_15">
     <g id="line2d_15">
      <g>
       <use style="stroke:#000000;stroke-width:0.6;" x="274.223077" xlink:href="#mfc6e3ccac5" y="172.799936"/>
      </g>
     </g>
    </g>
    <g id="xtick_16">
     <g id="line2d_16">
      <g>
       <use style="stroke:#000000;stroke-width:0.6;" x="296.134615" xlink:href="#mfc6e3ccac5" y="172.799936"/>
      </g>
     </g>
    </g>
    <g id="xtick_17">
     <g id="line2d_17">
      <g>
       <use style="stroke:#000000;stroke-width:0.6;" x="318.046154" xlink:href="#mfc6e3ccac5" y="172.799936"/>
      </g>
     </g>
    </g>
    <g id="xtick_18">
     <g id="line2d_18">
      <g>
       <use style="stroke:#000000;stroke-width:0.6;" x="361.869231" xlink:href="#mfc6e3ccac5" y="172.799936"/>
      </g>
     </g>
    </g>
    <g id="xtick_19">
     <g id="line2d_19">
      <g>
       <use style="stroke:#000000;stroke-width:0.6;" x="383.780769" xlink:href="#mfc6e3ccac5" y="172.799936"/>
      </g>
     </g>
    </g>
    <g id="xtick_20">
     <g id="line2d_20">
      <g>
       <use style="stroke:#000000;stroke-width:0.6;" x="405.692308" xlink:href="#mfc6e3ccac5" y="172.799936"/>
      </g>
     </g>
    </g>
    <g id="xtick_21">
     <g id="line2d_21">
      <g>
       <use style="stroke:#000000;stroke-width:0.6;" x="427.603846" xlink:href="#mfc6e3ccac5" y="172.799936"/>
      </g>
     </g>
    </g>
   </g>
   <g id="matplotlib.axis_2">
    <g id="ytick_1">
     <g id="line2d_22">
      <defs>
       <path d="M 0 0 
L -3.5 0 
" id="m95e3fb28c0" style="stroke:#000000;stroke-width:0.8;"/>
      </defs>
      <g>
       <use style="stroke:#000000;stroke-width:0.8;" x="230.4" xlink:href="#m95e3fb28c0" y="336.53077"/>
      </g>
     </g>
     <g id="text_5">
      <!-- -1 -->
      <g transform="translate(213.429688 340.329988)scale(0.1 -0.1)">
       <use xlink:href="#DejaVuSans-2d"/>
       <use x="36.083984" xlink:href="#DejaVuSans-31"/>
      </g>
     </g>
    </g>
    <g id="ytick_2">
     <g id="line2d_23">
      <g>
       <use style="stroke:#000000;stroke-width:0.8;" x="230.4" xlink:href="#m95e3fb28c0" y="254.665353"/>
      </g>
     </g>
     <g id="text_6">
      <!-- -0.5 -->
      <g transform="translate(203.889062 258.464571)scale(0.1 -0.1)">
       <use xlink:href="#DejaVuSans-2d"/>
       <use x="36.083984" xlink:href="#DejaVuSans-30"/>
       <use x="99.707031" xlink:href="#DejaVuSans-2e"/>
       <use x="131.494141" xlink:href="#DejaVuSans-35"/>
      </g>
     </g>
    </g>
    <g id="ytick_3">
     <g id="line2d_24">
      <g>
       <use style="stroke:#000000;stroke-width:0.8;" x="230.4" xlink:href="#m95e3fb28c0" y="172.799936"/>
      </g>
     </g>
    </g>
    <g id="ytick_4">
     <g id="line2d_25">
      <g>
       <use style="stroke:#000000;stroke-width:0.8;" x="230.4" xlink:href="#m95e3fb28c0" y="90.934519"/>
      </g>
     </g>
     <g id="text_7">
      <!-- 0.5 -->
      <g transform="translate(207.496875 94.733737)scale(0.1 -0.1)">
       <use xlink:href="#DejaVuSans-30"/>
       <use x="63.623047" xlink:href="#DejaVuSans-2e"/>
       <use x="95.410156" xlink:href="#DejaVuSans-35"/>
      </g>
     </g>
    </g>
    <g id="ytick_5">
     <g id="line2d_26">
      <g>
       <use style="stroke:#000000;stroke-width:0.8;" x="230.4" xlink:href="#m95e3fb28c0" y="9.069102"/>
      </g>
     </g>
     <g id="text_8">
      <!-- 1 -->
      <g transform="translate(217.0375 12.86832)scale(0.1 -0.1)">
       <use xlink:href="#DejaVuSans-31"/>
      </g>
     </g>
    </g>
    <g id="ytick_6">
     <g id="line2d_27">
      <defs>
       <path d="M 0 0 
L -2 0 
" id="mf7da187702" style="stroke:#000000;stroke-width:0.6;"/>
      </defs>
      <g>
       <use style="stroke:#000000;stroke-width:0.6;" x="230.4" xlink:href="#mf7da187702" y="320.157686"/>
      </g>
     </g>
    </g>
    <g id="ytick_7">
     <g id="line2d_28">
      <g>
       <use style="stroke:#000000;stroke-width:0.6;" x="230.4" xlink:href="#mf7da187702" y="303.784603"/>
      </g>
     </g>
    </g>
    <g id="ytick_8">
     <g id="line2d_29">
      <g>
       <use style="stroke:#000000;stroke-width:0.6;" x="230.4" xlink:href="#mf7da187702" y="287.411519"/>
      </g>
     </g>
    </g>
    <g id="ytick_9">
     <g id="line2d_30">
      <g>
       <use style="stroke:#000000;stroke-width:0.6;" x="230.4" xlink:href="#mf7da187702" y="271.038436"/>
      </g>
     </g>
    </g>
    <g id="ytick_10">
     <g id="line2d_31">
      <g>
       <use style="stroke:#000000;stroke-width:0.6;" x="230.4" xlink:href="#mf7da187702" y="238.292269"/>
      </g>
     </g>
    </g>
    <g id="ytick_11">
     <g id="line2d_32">
      <g>
       <use style="stroke:#000000;stroke-width:0.6;" x="230.4" xlink:href="#mf7da187702" y="221.919186"/>
      </g>
     </g>
    </g>
    <g id="ytick_12">
     <g id="line2d_33">
      <g>
       <use style="stroke:#000000;stroke-width:0.6;" x="230.4" xlink:href="#mf7da187702" y="205.546102"/>
      </g>
     </g>
    </g>
    <g id="ytick_13">
     <g id="line2d_34">
      <g>
       <use style="stroke:#000000;stroke-width:0.6;" x="230.4" xlink:href="#mf7da187702" y="189.173019"/>
      </g>
     </g>
    </g>
    <g id="ytick_14">
     <g id="line2d_35">
      <g>
       <use style="stroke:#000000;stroke-width:0.6;" x="230.4" xlink:href="#mf7da187702" y="156.426852"/>
      </g>
     </g>
    </g>
    <g id="ytick_15">
     <g id="line2d_36">
      <g>
       <use style="stroke:#000000;stroke-width:0.6;" x="230.4" xlink:href="#mf7da187702" y="140.053769"/>
      </g>
     </g>
    </g>
    <g id="ytick_16">
     <g id="line2d_37">
      <g>
       <use style="stroke:#000000;stroke-width:0.6;" x="230.4" xlink:href="#mf7da187702" y="123.680685"/>
      </g>
     </g>
    </g>
    <g id="ytick_17">
     <g id="line2d_38">
      <g>
       <use style="stroke:#000000;stroke-width:0.6;" x="230.4" xlink:href="#mf7da187702" y="107.307602"/>
      </g>
     </g>
    </g>
    <g id="ytick_18">
     <g id="line2d_39">
      <g>
       <use style="stroke:#000000;stroke-width:0.6;" x="230.4" xlink:href="#mf7da187702" y="74.561435"/>
      </g>
     </g>
    </g>
    <g id="ytick_19">
     <g id="line2d_40">
      <g>
       <use style="stroke:#000000;stroke-width:0.6;" x="230.4" xlink:href="#mf7da187702" y="58.188352"/>
      </g>
     </g>
    </g>
    <g id="ytick_20">
     <g id="line2d_41">
      <g>
       <use style="stroke:#000000;stroke-width:0.6;" x="230.4" xlink:href="#mf7da187702" y="41.815268"/>
      </g>
     </g>
    </g>
    <g id="ytick_21">
     <g id="line2d_42">
      <g>
       <use style="stroke:#000000;stroke-width:0.6;" x="230.4" xlink:href="#mf7da187702" y="25.442185"/>
      </g>
     </g>
    </g>
   </g>
   <g id="line2d_43">
    <path clip-path="url(#p310786bf08)" d="M 11.284615 310.574682 
L 55.151749 328.194195 
L 63.15334 330.999821 
L 69.074732 332.845326 
L 74.878129 334.38983 
L 80.122217 335.491571 
L 83.816653 336.058408 
L 88.168517 336.455905 
L 91.666733 336.524709 
L 95.74151 336.270456 
L 98.706828 335.822675 
L 100.688611 335.383373 
L 102.675287 334.818893 
L 105.541683 333.763473 
L 107.827165 332.696627 
L 110.534681 331.144307 
L 112.801805 329.578434 
L 114.682511 328.077286 
L 116.588089 326.353145 
L 118.787614 324.087156 
L 121.121386 321.330006 
L 123.460804 318.166069 
L 126.072071 314.11274 
L 128.658697 309.497848 
L 130.386477 306.051108 
L 132.280036 301.910633 
L 134.785346 295.801434 
L 137.233913 289.07364 
L 139.867805 280.920139 
L 142.434607 271.974335 
L 144.712708 263.135705 
L 146.968672 253.485309 
L 149.047745 243.748414 
L 151.318093 232.137702 
L 153.558244 219.631385 
L 156.172607 203.664866 
L 158.502545 188.165191 
L 161.533192 166.230462 
L 164.272668 144.785807 
L 167.872833 114.703621 
L 175.609862 48.976299 
L 177.66743 33.83256 
L 179.242272 23.923429 
L 180.481435 17.532515 
L 181.458031 13.582485 
L 182.179426 11.384279 
L 182.900822 9.876544 
L 183.422344 9.258801 
L 183.943866 9.070559 
L 184.204628 9.146975 
L 184.72615 9.660272 
L 185.342341 10.922597 
L 185.875486 12.626678 
L 186.586347 15.844503 
L 187.297207 20.218298 
L 188.1076 26.717166 
L 188.93934 35.176964 
L 189.909705 47.483569 
L 190.958326 63.886735 
L 192.128324 86.116687 
L 193.32578 113.134145 
L 194.78557 151.452656 
L 196.63886 206.447504 
L 199.345068 287.078111 
L 200.466598 313.745398 
L 201.270142 327.591888 
L 201.825631 333.714804 
L 202.195956 335.938999 
L 202.442839 336.508642 
L 202.566281 336.503299 
L 202.762268 336.080947 
L 203.023583 334.696673 
L 203.350227 331.582765 
L 203.807529 324.497955 
L 204.33016 312.302595 
L 204.971913 291.12998 
L 205.68091 259.849273 
L 206.547461 211.485061 
L 208.060261 111.530085 
L 209.160663 45.393198 
L 209.743353 21.244209 
L 210.092967 12.512522 
L 210.326043 9.59497 
L 210.442581 9.0912 
L 210.559119 9.258135 
L 210.792195 11.694843 
L 211.025271 17.062722 
L 211.374885 30.840746 
L 211.841037 60.011127 
L 212.477324 118.078206 
L 214.542758 328.261933 
L 214.836352 336.250663 
L 214.89507 336.528569 
L 214.953789 336.33794 
L 215.071227 334.511427 
L 215.306102 324.872105 
L 215.599696 301.377108 
L 216.010727 248.447134 
L 216.816351 105.610319 
L 217.345214 28.680277 
L 217.647421 9.834244 
L 217.722973 9.071749 
L 217.798525 10.0464 
L 217.949629 17.39861 
L 218.176284 42.127492 
L 218.554044 116.273562 
L 219.489991 327.349947 
L 219.647611 336.386007 
L 219.726421 335.569528 
L 219.884042 322.559235 
L 220.120472 275.171585 
L 221.066194 9.681051 
L 221.145004 10.12106 
L 221.302624 31.006216 
L 221.560291 117.408883 
L 222.149245 334.776209 
L 222.186054 336.468785 
L 222.222864 335.829819 
L 222.333292 319.555741 
L 222.527916 242.517287 
L 223.049155 9.180802 
L 223.09654 11.068989 
L 223.238696 53.224051 
L 223.759935 336.518465 
L 223.807321 331.46333 
L 223.949477 263.743427 
L 224.300433 12.504575 
L 224.376325 14.053678 
L 224.528111 111.594843 
L 224.831681 336.001104 
L 224.983466 234.690848 
L 225.211144 11.815746 
L 225.287037 24.900301 
L 225.590608 336.526988 
L 225.6665 294.011798 
L 225.894178 9.417964 
L 225.970071 55.007389 
L 226.197749 328.919736 
L 226.425427 10.942422 
L 226.657833 321.378127 
L 226.774036 62.483291 
L 226.890239 108.804914 
L 227.006442 334.296305 
L 227.122646 46.194972 
L 227.355052 220.611325 
L 227.471255 82.692406 
L 227.587458 269.695069 
L 227.703661 106.430779 
L 227.819864 156.29486 
L 227.936068 307.351808 
L 228.052271 42.832393 
L 228.168474 55.181966 
L 228.40088 228.915711 
L 228.633286 9.454631 
L 228.749489 291.300986 
L 228.865693 10.490381 
L 228.981896 83.779676 
L 229.098099 13.341525 
L 229.214302 259.123531 
L 229.330505 70.6242 
L 229.446708 92.14928 
L 229.562911 34.438511 
L 229.679114 288.113705 
L 229.795318 28.30177 
L 229.911521 275.93233 
L 230.027724 26.511351 
L 230.143927 323.040343 
L 230.280121 80.92031 
L 230.32552 333.841893 
L 230.370918 290.177489 
L 230.416316 58.036951 
L 230.461714 95.529971 
L 230.55251 311.970337 
L 230.597909 14.447902 
L 230.643307 29.599213 
L 230.688705 330.817506 
L 230.779501 275.224902 
L 230.870298 39.40933 
L 230.915696 287.681196 
L 230.961094 38.944631 
L 231.006492 172.798567 
L 231.097288 159.722584 
L 231.142687 217.886251 
L 231.188085 9.070642 
L 231.233483 310.797845 
L 231.324279 335.272726 
L 231.415076 43.659082 
L 231.460474 281.356822 
L 231.505872 208.174892 
L 231.55127 14.511294 
L 231.596668 45.347927 
L 231.666503 208.615096 
L 231.736339 79.79054 
L 231.806174 328.474494 
L 231.876009 289.843499 
L 231.945844 232.489244 
L 232.015679 255.522011 
L 232.085514 325.034691 
L 232.155349 294.335838 
L 232.225184 71.052394 
L 232.29502 78.741988 
L 232.364855 336.523851 
L 232.43469 47.059109 
L 232.504525 243.095381 
L 232.57436 133.65996 
L 232.644195 212.85292 
L 232.71403 102.741402 
L 232.783865 291.367157 
L 232.853701 13.585514 
L 232.923536 321.287749 
L 233.063206 81.212876 
L 233.133041 336.214929 
L 233.272711 46.967837 
L 233.342547 304.409126 
L 233.412382 248.643194 
L 233.482217 22.273155 
L 233.552052 109.022164 
L 233.621887 319.207792 
L 233.691722 264.183146 
L 233.831392 32.919731 
L 233.984736 335.007893 
L 234.023071 288.822886 
L 234.176414 9.845015 
L 234.21475 45.536476 
L 234.368093 331.781649 
L 234.444765 286.250314 
L 234.636444 10.145717 
L 234.67478 35.71742 
L 234.904794 336.29035 
L 234.94313 319.172798 
L 235.207413 9.122543 
L 235.282051 44.593129 
L 235.580604 335.427332 
L 235.72988 216.480062 
L 235.953794 11.814103 
L 236.028432 18.431846 
L 236.252346 214.655685 
L 236.47626 336.158776 
L 236.625537 270.409133 
L 236.998727 12.979169 
L 237.073365 10.966947 
L 237.222641 67.322681 
L 237.73238 336.41179 
L 237.803836 331.429222 
L 237.946748 285.606573 
L 238.589854 9.28161 
L 238.66131 11.727834 
L 238.804222 40.643677 
L 239.161503 193.028018 
L 239.518784 318.99391 
L 239.733153 335.941843 
L 239.910117 314.749845 
L 240.264046 208.913028 
L 240.794939 43.322735 
L 241.060385 10.532916 
L 241.148868 9.171557 
L 241.23735 12.392048 
L 241.414314 31.256087 
L 241.768243 105.322453 
L 242.65141 307.361548 
L 242.911893 332.075803 
L 243.085548 336.527897 
L 243.172376 335.286829 
L 243.346031 326.408767 
L 243.606513 299.358044 
L 244.127479 213.917304 
L 245.082582 57.13207 
L 245.532602 18.580174 
L 245.816909 9.53553 
L 245.848498 9.245605 
L 245.975726 9.463455 
L 246.230181 16.167893 
L 246.611864 39.67858 
L 247.120775 88.899776 
L 248.901962 281.198074 
L 249.410873 314.049955 
L 249.792556 329.054088 
L 250.138306 335.621321 
L 250.356829 336.509536 
L 250.502511 335.782004 
L 250.721033 332.834615 
L 251.085237 323.431037 
L 251.595124 302.390079 
L 252.351859 259.334704 
L 255.31504 76.302353 
L 256.106894 44.425789 
L 256.810763 24.83627 
L 257.338666 15.440105 
L 257.778585 10.887744 
L 258.130519 9.254672 
L 258.294178 9.069231 
L 258.457836 9.231648 
L 258.676046 9.967916 
L 259.003363 12.12494 
L 259.439784 16.805282 
L 260.010851 25.665631 
L 260.684079 39.414537 
L 261.626598 63.154622 
L 263.18545 109.021059 
L 266.222483 199.932949 
L 267.707012 238.046911 
L 269.005976 266.260149 
L 270.269386 288.80143 
L 271.352309 304.312074 
L 272.406824 316.188212 
L 273.304668 323.945601 
L 274.171202 329.527436 
L 274.846851 332.67538 
L 275.522501 334.844997 
L 276.076113 335.942899 
L 276.568706 336.438449 
L 276.897101 336.530769 
L 277.225496 336.441704 
L 277.718089 335.984639 
L 278.210682 335.161701 
L 278.778049 333.792129 
L 279.584386 331.136242 
L 280.40632 327.66251 
L 281.453232 322.268108 
L 282.532889 315.745242 
L 284.273436 303.62106 
L 286.296159 287.768022 
L 289.055565 264.441686 
L 295.551787 208.780022 
L 298.680205 183.838303 
L 301.760444 161.176868 
L 304.596315 142.133844 
L 307.21654 126.115362 
L 309.530129 113.20459 
L 312.05275 100.392319 
L 314.496542 89.172473 
L 316.660934 80.155186 
L 318.981322 71.38411 
L 321.295474 63.49545 
L 324.064527 55.092642 
L 326.124575 49.514483 
L 328.453849 43.840996 
L 330.446603 39.47988 
L 332.504101 35.416405 
L 334.694889 31.542185 
L 336.752822 28.2942 
L 339.073251 25.048639 
L 341.272291 22.346158 
L 342.890409 20.571131 
L 345.627805 17.945488 
L 347.613447 16.313075 
L 350.124165 14.545699 
L 353.048162 12.864665 
L 355.094293 11.906024 
L 358.188357 10.760861 
L 360.203185 10.193498 
L 363.102804 9.597711 
L 365.583231 9.274383 
L 367.876928 9.112548 
L 371.334183 9.090218 
L 375.327294 9.353005 
L 379.825264 9.960718 
L 385.059475 11.007696 
L 389.967085 12.255524 
L 396.064257 14.08439 
L 403.442881 16.603535 
L 412.878305 20.150465 
L 425.584021 25.240112 
L 449.515385 35.02519 
L 449.515385 35.02519 
" style="fill:none;stroke:#0000ff;stroke-linecap:square;"/>
   </g>
   <g id="patch_3">
    <path d="M 230.4 343.08 
L 230.4 2.52 
" style="fill:none;stroke:#000000;stroke-linecap:square;stroke-linejoin:miter;stroke-width:0.8;"/>
   </g>
   <g id="patch_4">
    <path d="M 2.52 172.799936 
L 458.28 172.799936 
" style="fill:none;stroke:#000000;stroke-linecap:square;stroke-linejoin:miter;stroke-width:0.8;"/>
   </g>
  </g>
 </g>
 <defs>
  <clipPath id="p310786bf08">
   <rect height="340.56" width="455.76" x="2.52" y="2.52"/>
  </clipPath>
 </defs>
</svg>
