<?xml version="1.0" encoding="utf-8" standalone="no"?>
<!DOCTYPE svg PUBLIC "-//W3C//DTD SVG 1.1//EN"
  "http://www.w3.org/Graphics/SVG/1.1/DTD/svg11.dtd">
<svg xmlns:xlink="http://www.w3.org/1999/xlink" width="460.8pt" height="345.6pt" viewBox="0 0 460.8 345.6" xmlns="http://www.w3.org/2000/svg" version="1.1">
 <metadata>
  <rdf:RDF xmlns:dc="http://purl.org/dc/elements/1.1/" xmlns:cc="http://creativecommons.org/ns#" xmlns:rdf="http://www.w3.org/1999/02/22-rdf-syntax-ns#">
   <cc:Work>
    <dc:type rdf:resource="http://purl.org/dc/dcmitype/StillImage"/>
    <dc:date>2023-12-06T18:13:53.151467</dc:date>
    <dc:format>image/svg+xml</dc:format>
    <dc:creator>
     <cc:Agent>
      <dc:title>Matplotlib v3.8.0, https://matplotlib.org/</dc:title>
     </cc:Agent>
    </dc:creator>
   </cc:Work>
  </rdf:RDF>
 </metadata>
 <defs>
  <style type="text/css">*{stroke-linejoin: round; stroke-linecap: butt}</style>
 </defs>
 <g id="figure_1">
  <g id="patch_1">
   <path d="M 0 345.6 
L 460.8 345.6 
L 460.8 0 
L 0 0 
z
" style="fill: #ffffff"/>
  </g>
  <g id="axes_1">
   <g id="patch_2">
    <path d="M 0 345.6 
L 460.8 345.6 
L 460.8 0 
L 0 0 
z
" style="fill: #ffffff"/>
   </g>
   <g id="PathCollection_1">
    <defs>
     <path id="C0_0_0405a50bb5" d="M 0 2.738613 
C 0.726289 2.738613 1.422928 2.450055 1.936492 1.936492 
C 2.450055 1.422928 2.738613 0.726289 2.738613 -0 
C 2.738613 -0.726289 2.450055 -1.422928 1.936492 -1.936492 
C 1.422928 -2.450055 0.726289 -2.738613 0 -2.738613 
C -0.726289 -2.738613 -1.422928 -2.450055 -1.936492 -1.936492 
C -2.450055 -1.422928 -2.738613 -0.726289 -2.738613 0 
C -2.738613 0.726289 -2.450055 1.422928 -1.936492 1.936492 
C -1.422928 2.450055 -0.726289 2.738613 0 2.738613 
z
"/>
    </defs>
    <g clip-path="url(#p0b1ec19a03)">
     <use xlink:href="#C0_0_0405a50bb5" x="8.861538" y="245.952661" style="fill: #33991a"/>
    </g>
    <g clip-path="url(#p0b1ec19a03)">
     <use xlink:href="#C0_0_0405a50bb5" x="12.584874" y="288.196153" style="fill: #33991a"/>
    </g>
    <g clip-path="url(#p0b1ec19a03)">
     <use xlink:href="#C0_0_0405a50bb5" x="16.308209" y="318.548205" style="fill: #33991a"/>
    </g>
    <g clip-path="url(#p0b1ec19a03)">
     <use xlink:href="#C0_0_0405a50bb5" x="20.031545" y="335.39625" style="fill: #33991a"/>
    </g>
    <g clip-path="url(#p0b1ec19a03)">
     <use xlink:href="#C0_0_0405a50bb5" x="23.75488" y="338.464817" style="fill: #33991a"/>
    </g>
    <g clip-path="url(#p0b1ec19a03)">
     <use xlink:href="#C0_0_0405a50bb5" x="27.478216" y="328.658152" style="fill: #33991a"/>
    </g>
    <g clip-path="url(#p0b1ec19a03)">
     <use xlink:href="#C0_0_0405a50bb5" x="31.201551" y="307.820194" style="fill: #33991a"/>
    </g>
    <g clip-path="url(#p0b1ec19a03)">
     <use xlink:href="#C0_0_0405a50bb5" x="34.924887" y="278.449447" style="fill: #33991a"/>
    </g>
    <g clip-path="url(#p0b1ec19a03)">
     <use xlink:href="#C0_0_0405a50bb5" x="38.648222" y="243.403316" style="fill: #33991a"/>
    </g>
    <g clip-path="url(#p0b1ec19a03)">
     <use xlink:href="#C0_0_0405a50bb5" x="42.371558" y="205.62057" style="fill: #33991a"/>
    </g>
    <g clip-path="url(#p0b1ec19a03)">
     <use xlink:href="#C0_0_0405a50bb5" x="46.094893" y="167.883142" style="fill: #33991a"/>
    </g>
    <g clip-path="url(#p0b1ec19a03)">
     <use xlink:href="#C0_0_0405a50bb5" x="49.818229" y="132.63054" style="fill: #33991a"/>
    </g>
    <g clip-path="url(#p0b1ec19a03)">
     <use xlink:href="#C0_0_0405a50bb5" x="53.541564" y="101.832677" style="fill: #33991a"/>
    </g>
    <g clip-path="url(#p0b1ec19a03)">
     <use xlink:href="#C0_0_0405a50bb5" x="57.2649" y="76.920571" style="fill: #33991a"/>
    </g>
    <g clip-path="url(#p0b1ec19a03)">
     <use xlink:href="#C0_0_0405a50bb5" x="60.988235" y="58.769444" style="fill: #33991a"/>
    </g>
    <g clip-path="url(#p0b1ec19a03)">
     <use xlink:href="#C0_0_0405a50bb5" x="64.711571" y="47.725466" style="fill: #33991a"/>
    </g>
    <g clip-path="url(#p0b1ec19a03)">
     <use xlink:href="#C0_0_0405a50bb5" x="68.434906" y="43.665582" style="fill: #33991a"/>
    </g>
    <g clip-path="url(#p0b1ec19a03)">
     <use xlink:href="#C0_0_0405a50bb5" x="72.158242" y="46.079407" style="fill: #33991a"/>
    </g>
    <g clip-path="url(#p0b1ec19a03)">
     <use xlink:href="#C0_0_0405a50bb5" x="75.881577" y="54.162773" style="fill: #33991a"/>
    </g>
    <g clip-path="url(#p0b1ec19a03)">
     <use xlink:href="#C0_0_0405a50bb5" x="79.604913" y="66.913817" style="fill: #33991a"/>
    </g>
    <g clip-path="url(#p0b1ec19a03)">
     <use xlink:href="#C0_0_0405a50bb5" x="83.328248" y="83.224306" style="fill: #33991a"/>
    </g>
    <g clip-path="url(#p0b1ec19a03)">
     <use xlink:href="#C0_0_0405a50bb5" x="87.051584" y="101.960814" style="fill: #33991a"/>
    </g>
    <g clip-path="url(#p0b1ec19a03)">
     <use xlink:href="#C0_0_0405a50bb5" x="90.774919" y="122.032326" style="fill: #33991a"/>
    </g>
    <g clip-path="url(#p0b1ec19a03)">
     <use xlink:href="#C0_0_0405a50bb5" x="94.498255" y="142.44254" style="fill: #33991a"/>
    </g>
    <g clip-path="url(#p0b1ec19a03)">
     <use xlink:href="#C0_0_0405a50bb5" x="98.22159" y="162.326663" style="fill: #33991a"/>
    </g>
    <g clip-path="url(#p0b1ec19a03)">
     <use xlink:href="#C0_0_0405a50bb5" x="101.944926" y="180.97355" style="fill: #33991a"/>
    </g>
    <g clip-path="url(#p0b1ec19a03)">
     <use xlink:href="#C0_0_0405a50bb5" x="105.668261" y="197.834915" style="fill: #33991a"/>
    </g>
    <g clip-path="url(#p0b1ec19a03)">
     <use xlink:href="#C0_0_0405a50bb5" x="109.391597" y="212.523753" style="fill: #33991a"/>
    </g>
    <g clip-path="url(#p0b1ec19a03)">
     <use xlink:href="#C0_0_0405a50bb5" x="113.114932" y="224.804372" style="fill: #33991a"/>
    </g>
    <g clip-path="url(#p0b1ec19a03)">
     <use xlink:href="#C0_0_0405a50bb5" x="116.838268" y="234.576413" style="fill: #33991a"/>
    </g>
    <g clip-path="url(#p0b1ec19a03)">
     <use xlink:href="#C0_0_0405a50bb5" x="120.561603" y="241.855063" style="fill: #33991a"/>
    </g>
    <g clip-path="url(#p0b1ec19a03)">
     <use xlink:href="#C0_0_0405a50bb5" x="124.284939" y="246.749399" style="fill: #33991a"/>
    </g>
    <g clip-path="url(#p0b1ec19a03)">
     <use xlink:href="#C0_0_0405a50bb5" x="128.008274" y="249.440463" style="fill: #33991a"/>
    </g>
    <g clip-path="url(#p0b1ec19a03)">
     <use xlink:href="#C0_0_0405a50bb5" x="131.73161" y="250.160308" style="fill: #33991a"/>
    </g>
    <g clip-path="url(#p0b1ec19a03)">
     <use xlink:href="#C0_0_0405a50bb5" x="135.454945" y="249.172911" style="fill: #33991a"/>
    </g>
    <g clip-path="url(#p0b1ec19a03)">
     <use xlink:href="#C0_0_0405a50bb5" x="139.178281" y="246.757528" style="fill: #33991a"/>
    </g>
    <g clip-path="url(#p0b1ec19a03)">
     <use xlink:href="#C0_0_0405a50bb5" x="142.901616" y="243.194793" style="fill: #33991a"/>
    </g>
    <g clip-path="url(#p0b1ec19a03)">
     <use xlink:href="#C0_0_0405a50bb5" x="146.624952" y="238.75564" style="fill: #33991a"/>
    </g>
    <g clip-path="url(#p0b1ec19a03)">
     <use xlink:href="#C0_0_0405a50bb5" x="150.348287" y="233.692953" style="fill: #33991a"/>
    </g>
    <g clip-path="url(#p0b1ec19a03)">
     <use xlink:href="#C0_0_0405a50bb5" x="154.071622" y="228.235728" style="fill: #33991a"/>
    </g>
    <g clip-path="url(#p0b1ec19a03)">
     <use xlink:href="#C0_0_0405a50bb5" x="157.794958" y="222.585452" style="fill: #33991a"/>
    </g>
    <g clip-path="url(#p0b1ec19a03)">
     <use xlink:href="#C0_0_0405a50bb5" x="161.518293" y="216.914351" style="fill: #33991a"/>
    </g>
    <g clip-path="url(#p0b1ec19a03)">
     <use xlink:href="#C0_0_0405a50bb5" x="165.241629" y="211.365169" style="fill: #33991a"/>
    </g>
    <g clip-path="url(#p0b1ec19a03)">
     <use xlink:href="#C0_0_0405a50bb5" x="168.964964" y="206.052121" style="fill: #33991a"/>
    </g>
    <g clip-path="url(#p0b1ec19a03)">
     <use xlink:href="#C0_0_0405a50bb5" x="172.6883" y="201.062712" style="fill: #33991a"/>
    </g>
    <g clip-path="url(#p0b1ec19a03)">
     <use xlink:href="#C0_0_0405a50bb5" x="176.411635" y="196.460135" style="fill: #33991a"/>
    </g>
    <g clip-path="url(#p0b1ec19a03)">
     <use xlink:href="#C0_0_0405a50bb5" x="180.134971" y="192.28601" style="fill: #33991a"/>
    </g>
    <g clip-path="url(#p0b1ec19a03)">
     <use xlink:href="#C0_0_0405a50bb5" x="183.858306" y="188.563271" style="fill: #33991a"/>
    </g>
    <g clip-path="url(#p0b1ec19a03)">
     <use xlink:href="#C0_0_0405a50bb5" x="187.581642" y="185.29903" style="fill: #33991a"/>
    </g>
    <g clip-path="url(#p0b1ec19a03)">
     <use xlink:href="#C0_0_0405a50bb5" x="191.304977" y="182.487319" style="fill: #33991a"/>
    </g>
    <g clip-path="url(#p0b1ec19a03)">
     <use xlink:href="#C0_0_0405a50bb5" x="195.028313" y="180.111616" style="fill: #33991a"/>
    </g>
    <g clip-path="url(#p0b1ec19a03)">
     <use xlink:href="#C0_0_0405a50bb5" x="198.751648" y="178.147102" style="fill: #33991a"/>
    </g>
    <g clip-path="url(#p0b1ec19a03)">
     <use xlink:href="#C0_0_0405a50bb5" x="202.474984" y="176.562625" style="fill: #33991a"/>
    </g>
    <g clip-path="url(#p0b1ec19a03)">
     <use xlink:href="#C0_0_0405a50bb5" x="206.198319" y="175.322355" style="fill: #33991a"/>
    </g>
    <g clip-path="url(#p0b1ec19a03)">
     <use xlink:href="#C0_0_0405a50bb5" x="209.921655" y="174.387139" style="fill: #33991a"/>
    </g>
    <g clip-path="url(#p0b1ec19a03)">
     <use xlink:href="#C0_0_0405a50bb5" x="213.64499" y="173.71558" style="fill: #33991a"/>
    </g>
    <g clip-path="url(#p0b1ec19a03)">
     <use xlink:href="#C0_0_0405a50bb5" x="217.368326" y="173.264848" style="fill: #33991a"/>
    </g>
    <g clip-path="url(#p0b1ec19a03)">
     <use xlink:href="#C0_0_0405a50bb5" x="221.091661" y="172.991274" style="fill: #33991a"/>
    </g>
    <g clip-path="url(#p0b1ec19a03)">
     <use xlink:href="#C0_0_0405a50bb5" x="224.814997" y="172.85075" style="fill: #33991a"/>
    </g>
    <g clip-path="url(#p0b1ec19a03)">
     <use xlink:href="#C0_0_0405a50bb5" x="228.538332" y="172.798973" style="fill: #33991a"/>
    </g>
    <g clip-path="url(#p0b1ec19a03)">
     <use xlink:href="#C0_0_0405a50bb5" x="232.261668" y="172.791576" style="fill: #33991a"/>
    </g>
    <g clip-path="url(#p0b1ec19a03)">
     <use xlink:href="#C0_0_0405a50bb5" x="235.985003" y="172.784179" style="fill: #33991a"/>
    </g>
    <g clip-path="url(#p0b1ec19a03)">
     <use xlink:href="#C0_0_0405a50bb5" x="239.708339" y="172.732402" style="fill: #33991a"/>
    </g>
    <g clip-path="url(#p0b1ec19a03)">
     <use xlink:href="#C0_0_0405a50bb5" x="243.431674" y="172.591878" style="fill: #33991a"/>
    </g>
    <g clip-path="url(#p0b1ec19a03)">
     <use xlink:href="#C0_0_0405a50bb5" x="247.15501" y="172.318304" style="fill: #33991a"/>
    </g>
    <g clip-path="url(#p0b1ec19a03)">
     <use xlink:href="#C0_0_0405a50bb5" x="250.878345" y="171.867572" style="fill: #33991a"/>
    </g>
    <g clip-path="url(#p0b1ec19a03)">
     <use xlink:href="#C0_0_0405a50bb5" x="254.601681" y="171.196012" style="fill: #33991a"/>
    </g>
    <g clip-path="url(#p0b1ec19a03)">
     <use xlink:href="#C0_0_0405a50bb5" x="258.325016" y="170.260797" style="fill: #33991a"/>
    </g>
    <g clip-path="url(#p0b1ec19a03)">
     <use xlink:href="#C0_0_0405a50bb5" x="262.048352" y="169.020527" style="fill: #33991a"/>
    </g>
    <g clip-path="url(#p0b1ec19a03)">
     <use xlink:href="#C0_0_0405a50bb5" x="265.771687" y="167.43605" style="fill: #33991a"/>
    </g>
    <g clip-path="url(#p0b1ec19a03)">
     <use xlink:href="#C0_0_0405a50bb5" x="269.495023" y="165.471536" style="fill: #33991a"/>
    </g>
    <g clip-path="url(#p0b1ec19a03)">
     <use xlink:href="#C0_0_0405a50bb5" x="273.218358" y="163.095833" style="fill: #33991a"/>
    </g>
    <g clip-path="url(#p0b1ec19a03)">
     <use xlink:href="#C0_0_0405a50bb5" x="276.941694" y="160.284122" style="fill: #33991a"/>
    </g>
    <g clip-path="url(#p0b1ec19a03)">
     <use xlink:href="#C0_0_0405a50bb5" x="280.665029" y="157.019881" style="fill: #33991a"/>
    </g>
    <g clip-path="url(#p0b1ec19a03)">
     <use xlink:href="#C0_0_0405a50bb5" x="284.388365" y="153.297142" style="fill: #33991a"/>
    </g>
    <g clip-path="url(#p0b1ec19a03)">
     <use xlink:href="#C0_0_0405a50bb5" x="288.1117" y="149.123017" style="fill: #33991a"/>
    </g>
    <g clip-path="url(#p0b1ec19a03)">
     <use xlink:href="#C0_0_0405a50bb5" x="291.835036" y="144.52044" style="fill: #33991a"/>
    </g>
    <g clip-path="url(#p0b1ec19a03)">
     <use xlink:href="#C0_0_0405a50bb5" x="295.558371" y="139.531031" style="fill: #33991a"/>
    </g>
    <g clip-path="url(#p0b1ec19a03)">
     <use xlink:href="#C0_0_0405a50bb5" x="299.281707" y="134.217983" style="fill: #33991a"/>
    </g>
    <g clip-path="url(#p0b1ec19a03)">
     <use xlink:href="#C0_0_0405a50bb5" x="303.005042" y="128.668801" style="fill: #33991a"/>
    </g>
    <g clip-path="url(#p0b1ec19a03)">
     <use xlink:href="#C0_0_0405a50bb5" x="306.728378" y="122.9977" style="fill: #33991a"/>
    </g>
    <g clip-path="url(#p0b1ec19a03)">
     <use xlink:href="#C0_0_0405a50bb5" x="310.451713" y="117.347424" style="fill: #33991a"/>
    </g>
    <g clip-path="url(#p0b1ec19a03)">
     <use xlink:href="#C0_0_0405a50bb5" x="314.175048" y="111.890199" style="fill: #33991a"/>
    </g>
    <g clip-path="url(#p0b1ec19a03)">
     <use xlink:href="#C0_0_0405a50bb5" x="317.898384" y="106.827512" style="fill: #33991a"/>
    </g>
    <g clip-path="url(#p0b1ec19a03)">
     <use xlink:href="#C0_0_0405a50bb5" x="321.621719" y="102.388358" style="fill: #33991a"/>
    </g>
    <g clip-path="url(#p0b1ec19a03)">
     <use xlink:href="#C0_0_0405a50bb5" x="325.345055" y="98.825623" style="fill: #33991a"/>
    </g>
    <g clip-path="url(#p0b1ec19a03)">
     <use xlink:href="#C0_0_0405a50bb5" x="329.06839" y="96.41024" style="fill: #33991a"/>
    </g>
    <g clip-path="url(#p0b1ec19a03)">
     <use xlink:href="#C0_0_0405a50bb5" x="332.791726" y="95.422844" style="fill: #33991a"/>
    </g>
    <g clip-path="url(#p0b1ec19a03)">
     <use xlink:href="#C0_0_0405a50bb5" x="336.515061" y="96.142689" style="fill: #33991a"/>
    </g>
    <g clip-path="url(#p0b1ec19a03)">
     <use xlink:href="#C0_0_0405a50bb5" x="340.238397" y="98.833753" style="fill: #33991a"/>
    </g>
    <g clip-path="url(#p0b1ec19a03)">
     <use xlink:href="#C0_0_0405a50bb5" x="343.961732" y="103.728089" style="fill: #33991a"/>
    </g>
    <g clip-path="url(#p0b1ec19a03)">
     <use xlink:href="#C0_0_0405a50bb5" x="347.685068" y="111.006739" style="fill: #33991a"/>
    </g>
    <g clip-path="url(#p0b1ec19a03)">
     <use xlink:href="#C0_0_0405a50bb5" x="351.408403" y="120.77878" style="fill: #33991a"/>
    </g>
    <g clip-path="url(#p0b1ec19a03)">
     <use xlink:href="#C0_0_0405a50bb5" x="355.131739" y="133.059399" style="fill: #33991a"/>
    </g>
    <g clip-path="url(#p0b1ec19a03)">
     <use xlink:href="#C0_0_0405a50bb5" x="358.855074" y="147.748237" style="fill: #33991a"/>
    </g>
    <g clip-path="url(#p0b1ec19a03)">
     <use xlink:href="#C0_0_0405a50bb5" x="362.57841" y="164.609602" style="fill: #33991a"/>
    </g>
    <g clip-path="url(#p0b1ec19a03)">
     <use xlink:href="#C0_0_0405a50bb5" x="366.301745" y="183.256489" style="fill: #33991a"/>
    </g>
    <g clip-path="url(#p0b1ec19a03)">
     <use xlink:href="#C0_0_0405a50bb5" x="370.025081" y="203.140612" style="fill: #33991a"/>
    </g>
    <g clip-path="url(#p0b1ec19a03)">
     <use xlink:href="#C0_0_0405a50bb5" x="373.748416" y="223.550826" style="fill: #33991a"/>
    </g>
    <g clip-path="url(#p0b1ec19a03)">
     <use xlink:href="#C0_0_0405a50bb5" x="377.471752" y="243.622338" style="fill: #33991a"/>
    </g>
    <g clip-path="url(#p0b1ec19a03)">
     <use xlink:href="#C0_0_0405a50bb5" x="381.195087" y="262.358846" style="fill: #33991a"/>
    </g>
    <g clip-path="url(#p0b1ec19a03)">
     <use xlink:href="#C0_0_0405a50bb5" x="384.918423" y="278.669335" style="fill: #33991a"/>
    </g>
    <g clip-path="url(#p0b1ec19a03)">
     <use xlink:href="#C0_0_0405a50bb5" x="388.641758" y="291.420379" style="fill: #33991a"/>
    </g>
    <g clip-path="url(#p0b1ec19a03)">
     <use xlink:href="#C0_0_0405a50bb5" x="392.365094" y="299.503744" style="fill: #33991a"/>
    </g>
    <g clip-path="url(#p0b1ec19a03)">
     <use xlink:href="#C0_0_0405a50bb5" x="396.088429" y="301.91757" style="fill: #33991a"/>
    </g>
    <g clip-path="url(#p0b1ec19a03)">
     <use xlink:href="#C0_0_0405a50bb5" x="399.811765" y="297.857686" style="fill: #33991a"/>
    </g>
    <g clip-path="url(#p0b1ec19a03)">
     <use xlink:href="#C0_0_0405a50bb5" x="403.5351" y="286.813708" style="fill: #33991a"/>
    </g>
    <g clip-path="url(#p0b1ec19a03)">
     <use xlink:href="#C0_0_0405a50bb5" x="407.258436" y="268.662581" style="fill: #33991a"/>
    </g>
    <g clip-path="url(#p0b1ec19a03)">
     <use xlink:href="#C0_0_0405a50bb5" x="410.981771" y="243.750475" style="fill: #33991a"/>
    </g>
    <g clip-path="url(#p0b1ec19a03)">
     <use xlink:href="#C0_0_0405a50bb5" x="414.705107" y="212.952612" style="fill: #33991a"/>
    </g>
    <g clip-path="url(#p0b1ec19a03)">
     <use xlink:href="#C0_0_0405a50bb5" x="418.428442" y="177.70001" style="fill: #33991a"/>
    </g>
    <g clip-path="url(#p0b1ec19a03)">
     <use xlink:href="#C0_0_0405a50bb5" x="422.151778" y="139.962582" style="fill: #33991a"/>
    </g>
    <g clip-path="url(#p0b1ec19a03)">
     <use xlink:href="#C0_0_0405a50bb5" x="425.875113" y="102.179836" style="fill: #33991a"/>
    </g>
    <g clip-path="url(#p0b1ec19a03)">
     <use xlink:href="#C0_0_0405a50bb5" x="429.598449" y="67.133705" style="fill: #33991a"/>
    </g>
    <g clip-path="url(#p0b1ec19a03)">
     <use xlink:href="#C0_0_0405a50bb5" x="433.321784" y="37.762958" style="fill: #33991a"/>
    </g>
    <g clip-path="url(#p0b1ec19a03)">
     <use xlink:href="#C0_0_0405a50bb5" x="437.04512" y="16.925" style="fill: #33991a"/>
    </g>
    <g clip-path="url(#p0b1ec19a03)">
     <use xlink:href="#C0_0_0405a50bb5" x="440.768455" y="7.118335" style="fill: #33991a"/>
    </g>
    <g clip-path="url(#p0b1ec19a03)">
     <use xlink:href="#C0_0_0405a50bb5" x="444.491791" y="10.186902" style="fill: #33991a"/>
    </g>
    <g clip-path="url(#p0b1ec19a03)">
     <use xlink:href="#C0_0_0405a50bb5" x="448.215126" y="27.034946" style="fill: #33991a"/>
    </g>
    <g clip-path="url(#p0b1ec19a03)">
     <use xlink:href="#C0_0_0405a50bb5" x="451.938462" y="57.386999" style="fill: #33991a"/>
    </g>
   </g>
   <g id="matplotlib.axis_1">
    <g id="xtick_1">
     <g id="line2d_1">
      <defs>
       <path id="m2c847b1a4b" d="M 0 0 
L 0 3.5 
" style="stroke: #000000; stroke-width: 0.8"/>
      </defs>
      <g>
       <use xlink:href="#m2c847b1a4b" x="8.861538" y="172.791576" style="stroke: #000000; stroke-width: 0.8"/>
      </g>
     </g>
     <g id="text_1">
      <!-- −3 -->
      <g transform="translate(1.490445 187.390013) scale(0.1 -0.1)">
       <defs>
        <path id="DejaVuSans-2212" d="M 678 2272 
L 4684 2272 
L 4684 1741 
L 678 1741 
L 678 2272 
z
" transform="scale(0.015625)"/>
        <path id="DejaVuSans-33" d="M 2597 2516 
Q 3050 2419 3304 2112 
Q 3559 1806 3559 1356 
Q 3559 666 3084 287 
Q 2609 -91 1734 -91 
Q 1441 -91 1130 -33 
Q 819 25 488 141 
L 488 750 
Q 750 597 1062 519 
Q 1375 441 1716 441 
Q 2309 441 2620 675 
Q 2931 909 2931 1356 
Q 2931 1769 2642 2001 
Q 2353 2234 1838 2234 
L 1294 2234 
L 1294 2753 
L 1863 2753 
Q 2328 2753 2575 2939 
Q 2822 3125 2822 3475 
Q 2822 3834 2567 4026 
Q 2313 4219 1838 4219 
Q 1578 4219 1281 4162 
Q 984 4106 628 3988 
L 628 4550 
Q 988 4650 1302 4700 
Q 1616 4750 1894 4750 
Q 2613 4750 3031 4423 
Q 3450 4097 3450 3541 
Q 3450 3153 3228 2886 
Q 3006 2619 2597 2516 
z
" transform="scale(0.015625)"/>
       </defs>
       <use xlink:href="#DejaVuSans-2212"/>
       <use xlink:href="#DejaVuSans-33" x="83.789062"/>
      </g>
     </g>
    </g>
    <g id="xtick_2">
     <g id="line2d_2">
      <g>
       <use xlink:href="#m2c847b1a4b" x="83.328248" y="172.791576" style="stroke: #000000; stroke-width: 0.8"/>
      </g>
     </g>
     <g id="text_2">
      <!-- −2 -->
      <g transform="translate(75.957154 187.390013) scale(0.1 -0.1)">
       <defs>
        <path id="DejaVuSans-32" d="M 1228 531 
L 3431 531 
L 3431 0 
L 469 0 
L 469 531 
Q 828 903 1448 1529 
Q 2069 2156 2228 2338 
Q 2531 2678 2651 2914 
Q 2772 3150 2772 3378 
Q 2772 3750 2511 3984 
Q 2250 4219 1831 4219 
Q 1534 4219 1204 4116 
Q 875 4013 500 3803 
L 500 4441 
Q 881 4594 1212 4672 
Q 1544 4750 1819 4750 
Q 2544 4750 2975 4387 
Q 3406 4025 3406 3419 
Q 3406 3131 3298 2873 
Q 3191 2616 2906 2266 
Q 2828 2175 2409 1742 
Q 1991 1309 1228 531 
z
" transform="scale(0.015625)"/>
       </defs>
       <use xlink:href="#DejaVuSans-2212"/>
       <use xlink:href="#DejaVuSans-32" x="83.789062"/>
      </g>
     </g>
    </g>
    <g id="xtick_3">
     <g id="line2d_3">
      <g>
       <use xlink:href="#m2c847b1a4b" x="157.794958" y="172.791576" style="stroke: #000000; stroke-width: 0.8"/>
      </g>
     </g>
     <g id="text_3">
      <!-- −1 -->
      <g transform="translate(150.423864 187.390013) scale(0.1 -0.1)">
       <defs>
        <path id="DejaVuSans-31" d="M 794 531 
L 1825 531 
L 1825 4091 
L 703 3866 
L 703 4441 
L 1819 4666 
L 2450 4666 
L 2450 531 
L 3481 531 
L 3481 0 
L 794 0 
L 794 531 
z
" transform="scale(0.015625)"/>
       </defs>
       <use xlink:href="#DejaVuSans-2212"/>
       <use xlink:href="#DejaVuSans-31" x="83.789062"/>
      </g>
     </g>
    </g>
    <g id="xtick_4">
     <g id="line2d_4">
      <g>
       <use xlink:href="#m2c847b1a4b" x="232.261668" y="172.791576" style="stroke: #000000; stroke-width: 0.8"/>
      </g>
     </g>
    </g>
    <g id="xtick_5">
     <g id="line2d_5">
      <g>
       <use xlink:href="#m2c847b1a4b" x="306.728378" y="172.791576" style="stroke: #000000; stroke-width: 0.8"/>
      </g>
     </g>
     <g id="text_4">
      <!-- 1 -->
      <g transform="translate(303.547128 187.390013) scale(0.1 -0.1)">
       <use xlink:href="#DejaVuSans-31"/>
      </g>
     </g>
    </g>
    <g id="xtick_6">
     <g id="line2d_6">
      <g>
       <use xlink:href="#m2c847b1a4b" x="381.195087" y="172.791576" style="stroke: #000000; stroke-width: 0.8"/>
      </g>
     </g>
     <g id="text_5">
      <!-- 2 -->
      <g transform="translate(378.013837 187.390013) scale(0.1 -0.1)">
       <use xlink:href="#DejaVuSans-32"/>
      </g>
     </g>
    </g>
    <g id="xtick_7">
     <g id="line2d_7">
      <g>
       <use xlink:href="#m2c847b1a4b" x="455.661797" y="172.791576" style="stroke: #000000; stroke-width: 0.8"/>
      </g>
     </g>
     <g id="text_6">
      <!-- 3 -->
      <g transform="translate(452.480547 187.390013) scale(0.1 -0.1)">
       <use xlink:href="#DejaVuSans-33"/>
      </g>
     </g>
    </g>
    <g id="xtick_8">
     <g id="line2d_8">
      <defs>
       <path id="m471620ca37" d="M 0 0 
L 0 2 
" style="stroke: #000000; stroke-width: 0.6"/>
      </defs>
      <g>
       <use xlink:href="#m471620ca37" x="23.75488" y="172.791576" style="stroke: #000000; stroke-width: 0.6"/>
      </g>
     </g>
    </g>
    <g id="xtick_9">
     <g id="line2d_9">
      <g>
       <use xlink:href="#m471620ca37" x="38.648222" y="172.791576" style="stroke: #000000; stroke-width: 0.6"/>
      </g>
     </g>
    </g>
    <g id="xtick_10">
     <g id="line2d_10">
      <g>
       <use xlink:href="#m471620ca37" x="53.541564" y="172.791576" style="stroke: #000000; stroke-width: 0.6"/>
      </g>
     </g>
    </g>
    <g id="xtick_11">
     <g id="line2d_11">
      <g>
       <use xlink:href="#m471620ca37" x="68.434906" y="172.791576" style="stroke: #000000; stroke-width: 0.6"/>
      </g>
     </g>
    </g>
    <g id="xtick_12">
     <g id="line2d_12">
      <g>
       <use xlink:href="#m471620ca37" x="98.22159" y="172.791576" style="stroke: #000000; stroke-width: 0.6"/>
      </g>
     </g>
    </g>
    <g id="xtick_13">
     <g id="line2d_13">
      <g>
       <use xlink:href="#m471620ca37" x="113.114932" y="172.791576" style="stroke: #000000; stroke-width: 0.6"/>
      </g>
     </g>
    </g>
    <g id="xtick_14">
     <g id="line2d_14">
      <g>
       <use xlink:href="#m471620ca37" x="128.008274" y="172.791576" style="stroke: #000000; stroke-width: 0.6"/>
      </g>
     </g>
    </g>
    <g id="xtick_15">
     <g id="line2d_15">
      <g>
       <use xlink:href="#m471620ca37" x="142.901616" y="172.791576" style="stroke: #000000; stroke-width: 0.6"/>
      </g>
     </g>
    </g>
    <g id="xtick_16">
     <g id="line2d_16">
      <g>
       <use xlink:href="#m471620ca37" x="172.6883" y="172.791576" style="stroke: #000000; stroke-width: 0.6"/>
      </g>
     </g>
    </g>
    <g id="xtick_17">
     <g id="line2d_17">
      <g>
       <use xlink:href="#m471620ca37" x="187.581642" y="172.791576" style="stroke: #000000; stroke-width: 0.6"/>
      </g>
     </g>
    </g>
    <g id="xtick_18">
     <g id="line2d_18">
      <g>
       <use xlink:href="#m471620ca37" x="202.474984" y="172.791576" style="stroke: #000000; stroke-width: 0.6"/>
      </g>
     </g>
    </g>
    <g id="xtick_19">
     <g id="line2d_19">
      <g>
       <use xlink:href="#m471620ca37" x="217.368326" y="172.791576" style="stroke: #000000; stroke-width: 0.6"/>
      </g>
     </g>
    </g>
    <g id="xtick_20">
     <g id="line2d_20">
      <g>
       <use xlink:href="#m471620ca37" x="247.15501" y="172.791576" style="stroke: #000000; stroke-width: 0.6"/>
      </g>
     </g>
    </g>
    <g id="xtick_21">
     <g id="line2d_21">
      <g>
       <use xlink:href="#m471620ca37" x="262.048352" y="172.791576" style="stroke: #000000; stroke-width: 0.6"/>
      </g>
     </g>
    </g>
    <g id="xtick_22">
     <g id="line2d_22">
      <g>
       <use xlink:href="#m471620ca37" x="276.941694" y="172.791576" style="stroke: #000000; stroke-width: 0.6"/>
      </g>
     </g>
    </g>
    <g id="xtick_23">
     <g id="line2d_23">
      <g>
       <use xlink:href="#m471620ca37" x="291.835036" y="172.791576" style="stroke: #000000; stroke-width: 0.6"/>
      </g>
     </g>
    </g>
    <g id="xtick_24">
     <g id="line2d_24">
      <g>
       <use xlink:href="#m471620ca37" x="321.621719" y="172.791576" style="stroke: #000000; stroke-width: 0.6"/>
      </g>
     </g>
    </g>
    <g id="xtick_25">
     <g id="line2d_25">
      <g>
       <use xlink:href="#m471620ca37" x="336.515061" y="172.791576" style="stroke: #000000; stroke-width: 0.6"/>
      </g>
     </g>
    </g>
    <g id="xtick_26">
     <g id="line2d_26">
      <g>
       <use xlink:href="#m471620ca37" x="351.408403" y="172.791576" style="stroke: #000000; stroke-width: 0.6"/>
      </g>
     </g>
    </g>
    <g id="xtick_27">
     <g id="line2d_27">
      <g>
       <use xlink:href="#m471620ca37" x="366.301745" y="172.791576" style="stroke: #000000; stroke-width: 0.6"/>
      </g>
     </g>
    </g>
    <g id="xtick_28">
     <g id="line2d_28">
      <g>
       <use xlink:href="#m471620ca37" x="396.088429" y="172.791576" style="stroke: #000000; stroke-width: 0.6"/>
      </g>
     </g>
    </g>
    <g id="xtick_29">
     <g id="line2d_29">
      <g>
       <use xlink:href="#m471620ca37" x="410.981771" y="172.791576" style="stroke: #000000; stroke-width: 0.6"/>
      </g>
     </g>
    </g>
    <g id="xtick_30">
     <g id="line2d_30">
      <g>
       <use xlink:href="#m471620ca37" x="425.875113" y="172.791576" style="stroke: #000000; stroke-width: 0.6"/>
      </g>
     </g>
    </g>
    <g id="xtick_31">
     <g id="line2d_31">
      <g>
       <use xlink:href="#m471620ca37" x="440.768455" y="172.791576" style="stroke: #000000; stroke-width: 0.6"/>
      </g>
     </g>
    </g>
   </g>
   <g id="matplotlib.axis_2">
    <g id="ytick_1">
     <g id="line2d_32">
      <defs>
       <path id="m18b7858157" d="M 0 0 
L -3.5 0 
" style="stroke: #000000; stroke-width: 0.8"/>
      </defs>
      <g>
       <use xlink:href="#m18b7858157" x="232.261668" y="291.141173" style="stroke: #000000; stroke-width: 0.8"/>
      </g>
     </g>
     <g id="text_7">
      <!-- −2 -->
      <g transform="translate(210.51948 294.940392) scale(0.1 -0.1)">
       <use xlink:href="#DejaVuSans-2212"/>
       <use xlink:href="#DejaVuSans-32" x="83.789062"/>
      </g>
     </g>
    </g>
    <g id="ytick_2">
     <g id="line2d_33">
      <g>
       <use xlink:href="#m18b7858157" x="232.261668" y="231.966374" style="stroke: #000000; stroke-width: 0.8"/>
      </g>
     </g>
     <g id="text_8">
      <!-- −1 -->
      <g transform="translate(210.51948 235.765593) scale(0.1 -0.1)">
       <use xlink:href="#DejaVuSans-2212"/>
       <use xlink:href="#DejaVuSans-31" x="83.789062"/>
      </g>
     </g>
    </g>
    <g id="ytick_3">
     <g id="line2d_34">
      <g>
       <use xlink:href="#m18b7858157" x="232.261668" y="172.791576" style="stroke: #000000; stroke-width: 0.8"/>
      </g>
     </g>
    </g>
    <g id="ytick_4">
     <g id="line2d_35">
      <g>
       <use xlink:href="#m18b7858157" x="232.261668" y="113.616778" style="stroke: #000000; stroke-width: 0.8"/>
      </g>
     </g>
     <g id="text_9">
      <!-- 1 -->
      <g transform="translate(218.899168 117.415996) scale(0.1 -0.1)">
       <use xlink:href="#DejaVuSans-31"/>
      </g>
     </g>
    </g>
    <g id="ytick_5">
     <g id="line2d_36">
      <g>
       <use xlink:href="#m18b7858157" x="232.261668" y="54.441979" style="stroke: #000000; stroke-width: 0.8"/>
      </g>
     </g>
     <g id="text_10">
      <!-- 2 -->
      <g transform="translate(218.899168 58.241198) scale(0.1 -0.1)">
       <use xlink:href="#DejaVuSans-32"/>
      </g>
     </g>
    </g>
    <g id="ytick_6">
     <g id="line2d_37">
      <defs>
       <path id="mdd9de94108" d="M 0 0 
L -2 0 
" style="stroke: #000000; stroke-width: 0.6"/>
      </defs>
      <g>
       <use xlink:href="#mdd9de94108" x="232.261668" y="338.481012" style="stroke: #000000; stroke-width: 0.6"/>
      </g>
     </g>
    </g>
    <g id="ytick_7">
     <g id="line2d_38">
      <g>
       <use xlink:href="#mdd9de94108" x="232.261668" y="326.646052" style="stroke: #000000; stroke-width: 0.6"/>
      </g>
     </g>
    </g>
    <g id="ytick_8">
     <g id="line2d_39">
      <g>
       <use xlink:href="#mdd9de94108" x="232.261668" y="314.811092" style="stroke: #000000; stroke-width: 0.6"/>
      </g>
     </g>
    </g>
    <g id="ytick_9">
     <g id="line2d_40">
      <g>
       <use xlink:href="#mdd9de94108" x="232.261668" y="302.976133" style="stroke: #000000; stroke-width: 0.6"/>
      </g>
     </g>
    </g>
    <g id="ytick_10">
     <g id="line2d_41">
      <g>
       <use xlink:href="#mdd9de94108" x="232.261668" y="279.306213" style="stroke: #000000; stroke-width: 0.6"/>
      </g>
     </g>
    </g>
    <g id="ytick_11">
     <g id="line2d_42">
      <g>
       <use xlink:href="#mdd9de94108" x="232.261668" y="267.471253" style="stroke: #000000; stroke-width: 0.6"/>
      </g>
     </g>
    </g>
    <g id="ytick_12">
     <g id="line2d_43">
      <g>
       <use xlink:href="#mdd9de94108" x="232.261668" y="255.636294" style="stroke: #000000; stroke-width: 0.6"/>
      </g>
     </g>
    </g>
    <g id="ytick_13">
     <g id="line2d_44">
      <g>
       <use xlink:href="#mdd9de94108" x="232.261668" y="243.801334" style="stroke: #000000; stroke-width: 0.6"/>
      </g>
     </g>
    </g>
    <g id="ytick_14">
     <g id="line2d_45">
      <g>
       <use xlink:href="#mdd9de94108" x="232.261668" y="220.131415" style="stroke: #000000; stroke-width: 0.6"/>
      </g>
     </g>
    </g>
    <g id="ytick_15">
     <g id="line2d_46">
      <g>
       <use xlink:href="#mdd9de94108" x="232.261668" y="208.296455" style="stroke: #000000; stroke-width: 0.6"/>
      </g>
     </g>
    </g>
    <g id="ytick_16">
     <g id="line2d_47">
      <g>
       <use xlink:href="#mdd9de94108" x="232.261668" y="196.461495" style="stroke: #000000; stroke-width: 0.6"/>
      </g>
     </g>
    </g>
    <g id="ytick_17">
     <g id="line2d_48">
      <g>
       <use xlink:href="#mdd9de94108" x="232.261668" y="184.626536" style="stroke: #000000; stroke-width: 0.6"/>
      </g>
     </g>
    </g>
    <g id="ytick_18">
     <g id="line2d_49">
      <g>
       <use xlink:href="#mdd9de94108" x="232.261668" y="160.956616" style="stroke: #000000; stroke-width: 0.6"/>
      </g>
     </g>
    </g>
    <g id="ytick_19">
     <g id="line2d_50">
      <g>
       <use xlink:href="#mdd9de94108" x="232.261668" y="149.121657" style="stroke: #000000; stroke-width: 0.6"/>
      </g>
     </g>
    </g>
    <g id="ytick_20">
     <g id="line2d_51">
      <g>
       <use xlink:href="#mdd9de94108" x="232.261668" y="137.286697" style="stroke: #000000; stroke-width: 0.6"/>
      </g>
     </g>
    </g>
    <g id="ytick_21">
     <g id="line2d_52">
      <g>
       <use xlink:href="#mdd9de94108" x="232.261668" y="125.451737" style="stroke: #000000; stroke-width: 0.6"/>
      </g>
     </g>
    </g>
    <g id="ytick_22">
     <g id="line2d_53">
      <g>
       <use xlink:href="#mdd9de94108" x="232.261668" y="101.781818" style="stroke: #000000; stroke-width: 0.6"/>
      </g>
     </g>
    </g>
    <g id="ytick_23">
     <g id="line2d_54">
      <g>
       <use xlink:href="#mdd9de94108" x="232.261668" y="89.946858" style="stroke: #000000; stroke-width: 0.6"/>
      </g>
     </g>
    </g>
    <g id="ytick_24">
     <g id="line2d_55">
      <g>
       <use xlink:href="#mdd9de94108" x="232.261668" y="78.111898" style="stroke: #000000; stroke-width: 0.6"/>
      </g>
     </g>
    </g>
    <g id="ytick_25">
     <g id="line2d_56">
      <g>
       <use xlink:href="#mdd9de94108" x="232.261668" y="66.276939" style="stroke: #000000; stroke-width: 0.6"/>
      </g>
     </g>
    </g>
    <g id="ytick_26">
     <g id="line2d_57">
      <g>
       <use xlink:href="#mdd9de94108" x="232.261668" y="42.607019" style="stroke: #000000; stroke-width: 0.6"/>
      </g>
     </g>
    </g>
    <g id="ytick_27">
     <g id="line2d_58">
      <g>
       <use xlink:href="#mdd9de94108" x="232.261668" y="30.77206" style="stroke: #000000; stroke-width: 0.6"/>
      </g>
     </g>
    </g>
    <g id="ytick_28">
     <g id="line2d_59">
      <g>
       <use xlink:href="#mdd9de94108" x="232.261668" y="18.9371" style="stroke: #000000; stroke-width: 0.6"/>
      </g>
     </g>
    </g>
    <g id="ytick_29">
     <g id="line2d_60">
      <g>
       <use xlink:href="#mdd9de94108" x="232.261668" y="7.10214" style="stroke: #000000; stroke-width: 0.6"/>
      </g>
     </g>
    </g>
   </g>
   <g id="line2d_61">
    <path d="M 9.308651 251.312793 
L 11.888649 280.966288 
L 13.323758 295.330651 
L 14.596467 306.308386 
L 15.922077 316.033731 
L 17.070838 323.099169 
L 18.154772 328.605415 
L 19.238706 332.958186 
L 20.167457 335.750065 
L 20.991974 337.49552 
L 21.610362 338.358123 
L 22.255223 338.856435 
L 22.900085 338.951105 
L 23.544946 338.648197 
L 24.189808 337.953956 
L 24.824878 336.895796 
L 25.671639 334.922641 
L 26.5184 332.326648 
L 27.576851 328.238634 
L 28.812666 322.338624 
L 30.023585 315.463263 
L 31.609513 304.968724 
L 33.405991 291.282274 
L 35.601432 272.417074 
L 38.274708 247.090601 
L 42.158223 207.809364 
L 47.28782 156.214332 
L 50.082099 130.281395 
L 52.474973 110.106776 
L 54.430022 95.31235 
L 56.411222 82.05864 
L 58.190022 71.758024 
L 59.733372 64.100766 
L 60.920963 59.034663 
L 62.131501 54.620207 
L 63.34204 50.960893 
L 64.396544 48.384994 
L 65.386604 46.481659 
L 66.376665 45.069947 
L 67.036705 44.397065 
L 67.958399 43.810151 
L 68.880092 43.626984 
L 69.439899 43.708641 
L 69.999706 43.932741 
L 70.559513 44.296497 
L 71.511833 45.228264 
L 72.296859 46.284454 
L 73.474398 48.337635 
L 74.637455 50.890259 
L 75.771547 53.851713 
L 77.283671 58.474899 
L 78.840947 63.970217 
L 80.829408 71.940584 
L 83.079058 82.044474 
L 85.850177 95.718021 
L 90.135904 118.537247 
L 98.587487 164.224036 
L 101.838511 180.463169 
L 104.546675 192.969473 
L 107.335508 204.697971 
L 109.630214 213.384713 
L 111.919126 221.131169 
L 113.730069 226.592636 
L 115.813834 232.138744 
L 117.55192 236.16241 
L 119.392608 239.833213 
L 120.917045 242.422841 
L 122.575417 244.787992 
L 124.200673 246.663789 
L 125.82965 248.120834 
L 127.458626 249.173214 
L 128.769727 249.739736 
L 130.549239 250.129671 
L 132.120613 250.13228 
L 133.691988 249.835687 
L 135.636422 249.086003 
L 137.16552 248.223513 
L 138.694617 247.142045 
L 141.101543 245.043085 
L 143.653372 242.360682 
L 146.651254 238.721778 
L 149.287701 235.184779 
L 153.642367 228.8783 
L 167.054319 208.743087 
L 171.278639 202.909174 
L 175.27983 197.815446 
L 178.835205 193.692705 
L 182.350123 190.016081 
L 185.69169 186.898774 
L 188.177494 184.818973 
L 191.842371 182.118015 
L 195.325057 179.940344 
L 198.52335 178.256278 
L 201.896282 176.785354 
L 206.17267 175.329809 
L 209.826356 174.407609 
L 214.042617 173.657676 
L 218.543188 173.161477 
L 223.070904 172.902823 
L 229.54298 172.794456 
L 241.60417 172.674728 
L 246.304333 172.394834 
L 251.170027 171.823496 
L 255.36692 171.026709 
L 259.457954 169.917545 
L 261.953925 169.056076 
L 265.33998 167.638594 
L 268.181854 166.209832 
L 271.272038 164.390666 
L 274.278376 162.340623 
L 277.377348 159.925775 
L 280.826363 156.868072 
L 283.810151 153.905209 
L 287.006294 150.408313 
L 290.756928 145.895113 
L 294.545832 140.922945 
L 297.638573 136.597488 
L 302.249102 129.809384 
L 313.193428 113.299345 
L 316.447881 108.738772 
L 319.981206 104.251658 
L 321.816418 102.178051 
L 324.519796 99.526028 
L 326.452878 97.974469 
L 328.38596 96.754392 
L 329.884183 96.061936 
L 331.309273 95.626854 
L 332.021818 95.496091 
L 333.644157 95.427096 
L 335.182606 95.671859 
L 336.685239 96.220794 
L 338.200131 97.101637 
L 339.715022 98.327287 
L 341.114386 99.779443 
L 342.379848 101.366637 
L 343.64531 103.221577 
L 345.192116 105.862709 
L 347.240193 110.007295 
L 348.744004 113.52982 
L 350.36061 117.774024 
L 352.398678 123.802228 
L 354.500055 130.802042 
L 356.481756 138.116638 
L 358.562197 146.510133 
L 361.225195 158.251549 
L 364.145585 172.268913 
L 366.955247 186.675152 
L 370.261206 204.427725 
L 378.100746 246.910206 
L 381.034614 261.5933 
L 383.437123 272.54326 
L 385.200692 279.774921 
L 387.066761 286.533411 
L 388.610054 291.329988 
L 389.830569 294.559039 
L 391.286009 297.702879 
L 392.249468 299.333253 
L 393.212927 300.584311 
L 394.228427 301.475819 
L 394.905427 301.818564 
L 395.582427 301.954279 
L 396.262148 301.877298 
L 396.944591 301.580613 
L 397.627034 301.060735 
L 398.309477 300.314424 
L 399.281382 298.85431 
L 400.227407 296.976869 
L 401.173432 294.643571 
L 402.443994 290.788335 
L 403.714556 286.101001 
L 404.964111 280.678743 
L 406.450243 273.196143 
L 408.174435 263.135596 
L 409.810881 252.270325 
L 411.818386 237.300219 
L 414.019299 219.009399 
L 416.312105 198.179172 
L 419.553295 166.456986 
L 428.282832 79.020959 
L 430.413444 60.11732 
L 432.338227 44.804666 
L 434.112517 32.534096 
L 435.439996 24.694182 
L 436.54407 19.138458 
L 437.648144 14.527406 
L 438.817925 10.739823 
L 439.675629 8.719024 
L 440.377294 7.562832 
L 441.078959 6.869386 
L 441.546736 6.668334 
L 442.014513 6.676152 
L 442.482289 6.892528 
L 442.950066 7.317146 
L 443.525681 8.124974 
L 444.101295 9.247063 
L 444.964716 11.519533 
L 445.805507 14.435606 
L 446.634982 18.035467 
L 447.735148 23.991529 
L 448.872547 31.643916 
L 450.499182 44.723778 
L 451.149836 50.385757 
L 451.149836 50.385757 
" clip-path="url(#p0b1ec19a03)" style="fill: none; stroke: #0000ff; stroke-linecap: square"/>
   </g>
   <g id="patch_3">
    <path d="M 232.261668 345.6 
L 232.261668 0 
" style="fill: none; stroke: #000000; stroke-width: 0.8; stroke-linejoin: miter; stroke-linecap: square"/>
   </g>
   <g id="patch_4">
    <path d="M 0 172.791576 
L 460.8 172.791576 
" style="fill: none; stroke: #000000; stroke-width: 0.8; stroke-linejoin: miter; stroke-linecap: square"/>
   </g>
  </g>
 </g>
 <defs>
  <clipPath id="p0b1ec19a03">
   <rect x="0" y="0" width="460.8" height="345.6"/>
  </clipPath>
 </defs>
</svg>
