<?xml version="1.0" encoding="utf-8" standalone="no"?>
<!DOCTYPE svg PUBLIC "-//W3C//DTD SVG 1.1//EN"
  "http://www.w3.org/Graphics/SVG/1.1/DTD/svg11.dtd">
<svg xmlns:xlink="http://www.w3.org/1999/xlink" width="460.8pt" height="345.6pt" viewBox="0 0 460.8 345.6" xmlns="http://www.w3.org/2000/svg" version="1.1">
 <metadata>
  <rdf:RDF xmlns:dc="http://purl.org/dc/elements/1.1/" xmlns:cc="http://creativecommons.org/ns#" xmlns:rdf="http://www.w3.org/1999/02/22-rdf-syntax-ns#">
   <cc:Work>
    <dc:type rdf:resource="http://purl.org/dc/dcmitype/StillImage"/>
    <dc:date>2022-05-16T19:39:45.769021</dc:date>
    <dc:format>image/svg+xml</dc:format>
    <dc:creator>
     <cc:Agent>
      <dc:title>Matplotlib v3.5.1, https://matplotlib.org/</dc:title>
     </cc:Agent>
    </dc:creator>
   </cc:Work>
  </rdf:RDF>
 </metadata>
 <defs>
  <style type="text/css">*{stroke-linejoin: round; stroke-linecap: butt}</style>
 </defs>
 <g id="figure_1">
  <g id="patch_1">
   <path d="M 0 345.6 
L 460.8 345.6 
L 460.8 0 
L 0 0 
z
" style="fill: #ffffff"/>
  </g>
  <g id="axes_1">
   <g id="patch_2">
    <path d="M 48.707328 345.6 
L 412.092672 345.6 
L 412.092672 0 
L 48.707328 0 
z
" style="fill: #ffffff"/>
   </g>
   <g id="patch_3">
    <path d="M 405.104493 172.8 
L 404.33322 172.735259 
L 402.074566 172.288328 
L 398.489649 171.107747 
L 393.832761 168.901084 
L 388.431212 165.458536 
L 382.659368 160.669968 
L 376.908986 154.534042 
L 371.558163 147.158696 
L 366.94139 138.752949 
L 363.323077 129.610674 
L 360.876659 120.087627 
L 359.670933 110.573564 
L 359.664721 101.461649 
L 360.710271 93.117591 
L 362.56514 85.850954 
L 364.911607 79.890922 
L 367.382064 75.368445 
L 369.588395 72.306174 
L 371.152984 70.616995 
L 371.738904 70.111276 
L 371.076877 70.512242 
L 368.986888 71.47827 
L 365.392701 72.630322 
L 360.328156 73.582344 
L 353.934731 73.972215 
L 346.450562 73.490787 
L 338.191799 71.906708 
L 329.527773 69.085063 
L 320.851951 64.998342 
L 312.550979 59.728877 
L 304.974279 53.462539 
L 298.406601 46.474208 
L 293.045725 39.106165 
L 288.987079 31.741122 
L 286.216478 24.772024 
L 284.61159 18.571038 
L 283.951986 13.460179 
L 283.936988 9.685901 
L 284.209893 7.399684 
L 284.386657 6.646154 
L 284.086749 7.359672 
L 282.963729 9.36967 
L 280.73313 12.414309 
L 277.195411 16.161376 
L 272.252183 20.234749 
L 265.914386 24.24435 
L 258.301808 27.817182 
L 249.633942 30.62701 
L 240.212941 32.420304 
L 230.4 33.036406 
L 220.587059 32.420304 
L 211.166058 30.62701 
L 202.498192 27.817182 
L 194.885614 24.24435 
L 188.547817 20.234749 
L 183.604589 16.161376 
L 180.06687 12.414309 
L 177.836271 9.36967 
L 176.713251 7.359672 
L 176.413343 6.646154 
L 176.590107 7.399684 
L 176.863012 9.685901 
L 176.848014 13.460179 
L 176.18841 18.571038 
L 174.583522 24.772024 
L 171.812921 31.741122 
L 167.754275 39.106165 
L 162.393399 46.474208 
L 155.825721 53.462539 
L 148.249021 59.728877 
L 139.948049 64.998342 
L 131.272227 69.085063 
L 122.608201 71.906708 
L 114.349438 73.490787 
L 106.865269 73.972215 
L 100.471844 73.582344 
L 95.407299 72.630322 
L 91.813112 71.47827 
L 89.723123 70.512242 
L 89.061096 70.111276 
L 89.647016 70.616995 
L 91.211605 72.306174 
L 93.417936 75.368445 
L 95.888393 79.890922 
L 98.23486 85.850954 
L 100.089729 93.117591 
L 101.135279 101.461649 
L 101.129067 110.573564 
L 99.923341 120.087627 
L 97.476923 129.610674 
L 93.85861 138.752949 
L 89.241837 147.158696 
L 83.891014 154.534042 
L 78.140632 160.669968 
L 72.368788 165.458536 
L 66.967239 168.901084 
L 62.310351 171.107747 
L 58.725434 172.288328 
L 56.46678 172.735259 
L 55.695507 172.8 
L 56.46678 172.864741 
L 58.725434 173.311672 
L 62.310351 174.492253 
L 66.967239 176.698916 
L 72.368788 180.141464 
L 78.140632 184.930032 
L 83.891014 191.065958 
L 89.241837 198.441304 
L 93.85861 206.847051 
L 97.476923 215.989326 
L 99.923341 225.512373 
L 101.129067 235.026436 
L 101.135279 244.138351 
L 100.089729 252.482409 
L 98.23486 259.749046 
L 95.888393 265.709078 
L 93.417936 270.231555 
L 91.211605 273.293826 
L 89.647016 274.983005 
L 89.061096 275.488724 
L 89.723123 275.087758 
L 91.813112 274.12173 
L 95.407299 272.969678 
L 100.471844 272.017656 
L 106.865269 271.627785 
L 114.349438 272.109213 
L 122.608201 273.693292 
L 131.272227 276.514937 
L 139.948049 280.601658 
L 148.249021 285.871123 
L 155.825721 292.137461 
L 162.393399 299.125792 
L 167.754275 306.493835 
L 171.812921 313.858878 
L 174.583522 320.827976 
L 176.18841 327.028962 
L 176.848014 332.139821 
L 176.863012 335.914099 
L 176.590107 338.200316 
L 176.413343 338.953846 
L 176.713251 338.240328 
L 177.836271 336.23033 
L 180.06687 333.185691 
L 183.604589 329.438624 
L 188.547817 325.365251 
L 194.885614 321.35565 
L 202.498192 317.782818 
L 211.166058 314.97299 
L 220.587059 313.179696 
L 230.4 312.563594 
L 240.212941 313.179696 
L 249.633942 314.97299 
L 258.301808 317.782818 
L 265.914386 321.35565 
L 272.252183 325.365251 
L 277.195411 329.438624 
L 280.73313 333.185691 
L 282.963729 336.23033 
L 284.086749 338.240328 
L 284.386657 338.953846 
L 284.209893 338.200316 
L 283.936988 335.914099 
L 283.951986 332.139821 
L 284.61159 327.028962 
L 286.216478 320.827976 
L 288.987079 313.858878 
L 293.045725 306.493835 
L 298.406601 299.125792 
L 304.974279 292.137461 
L 312.550979 285.871123 
L 320.851951 280.601658 
L 329.527773 276.514937 
L 338.191799 273.693292 
L 346.450562 272.109213 
L 353.934731 271.627785 
L 360.328156 272.017656 
L 365.392701 272.969678 
L 368.986888 274.12173 
L 371.076877 275.087758 
L 371.738904 275.488724 
L 371.152984 274.983005 
L 369.588395 273.293826 
L 367.382064 270.231555 
L 364.911607 265.709078 
L 362.56514 259.749046 
L 360.710271 252.482409 
L 359.664721 244.138351 
L 359.670933 235.026436 
L 360.876659 225.512373 
L 363.323077 215.989326 
L 366.94139 206.847051 
L 371.558163 198.441304 
L 376.908986 191.065958 
L 382.659368 184.930032 
L 388.431212 180.141464 
L 393.832761 176.698916 
L 398.489649 174.492253 
L 402.074566 173.311672 
L 404.33322 172.864741 
z
" clip-path="url(#pa02e2bdf4b)" style="fill: #df40bf"/>
   </g>
   <g id="matplotlib.axis_1">
    <g id="xtick_1">
     <g id="line2d_1">
      <defs>
       <path id="m1992cf7605" d="M 0 0 
L 0 3.5 
" style="stroke: #000000; stroke-width: 0.8"/>
      </defs>
      <g>
       <use xlink:href="#m1992cf7605" x="55.695507" y="172.8" style="stroke: #000000; stroke-width: 0.8"/>
      </g>
     </g>
     <g id="text_1">
      <!-- −10 -->
      <g transform="translate(45.143164 187.398438)scale(0.1 -0.1)">
       <defs>
        <path id="DejaVuSans-2212" d="M 678 2272 
L 4684 2272 
L 4684 1741 
L 678 1741 
L 678 2272 
z
" transform="scale(0.015625)"/>
        <path id="DejaVuSans-31" d="M 794 531 
L 1825 531 
L 1825 4091 
L 703 3866 
L 703 4441 
L 1819 4666 
L 2450 4666 
L 2450 531 
L 3481 531 
L 3481 0 
L 794 0 
L 794 531 
z
" transform="scale(0.015625)"/>
        <path id="DejaVuSans-30" d="M 2034 4250 
Q 1547 4250 1301 3770 
Q 1056 3291 1056 2328 
Q 1056 1369 1301 889 
Q 1547 409 2034 409 
Q 2525 409 2770 889 
Q 3016 1369 3016 2328 
Q 3016 3291 2770 3770 
Q 2525 4250 2034 4250 
z
M 2034 4750 
Q 2819 4750 3233 4129 
Q 3647 3509 3647 2328 
Q 3647 1150 3233 529 
Q 2819 -91 2034 -91 
Q 1250 -91 836 529 
Q 422 1150 422 2328 
Q 422 3509 836 4129 
Q 1250 4750 2034 4750 
z
" transform="scale(0.015625)"/>
       </defs>
       <use xlink:href="#DejaVuSans-2212"/>
       <use xlink:href="#DejaVuSans-31" x="83.789062"/>
       <use xlink:href="#DejaVuSans-30" x="147.412109"/>
      </g>
     </g>
    </g>
    <g id="xtick_2">
     <g id="line2d_2">
      <g>
       <use xlink:href="#m1992cf7605" x="143.047754" y="172.8" style="stroke: #000000; stroke-width: 0.8"/>
      </g>
     </g>
     <g id="text_2">
      <!-- −5 -->
      <g transform="translate(135.67666 187.398438)scale(0.1 -0.1)">
       <defs>
        <path id="DejaVuSans-35" d="M 691 4666 
L 3169 4666 
L 3169 4134 
L 1269 4134 
L 1269 2991 
Q 1406 3038 1543 3061 
Q 1681 3084 1819 3084 
Q 2600 3084 3056 2656 
Q 3513 2228 3513 1497 
Q 3513 744 3044 326 
Q 2575 -91 1722 -91 
Q 1428 -91 1123 -41 
Q 819 9 494 109 
L 494 744 
Q 775 591 1075 516 
Q 1375 441 1709 441 
Q 2250 441 2565 725 
Q 2881 1009 2881 1497 
Q 2881 1984 2565 2268 
Q 2250 2553 1709 2553 
Q 1456 2553 1204 2497 
Q 953 2441 691 2322 
L 691 4666 
z
" transform="scale(0.015625)"/>
       </defs>
       <use xlink:href="#DejaVuSans-2212"/>
       <use xlink:href="#DejaVuSans-35" x="83.789062"/>
      </g>
     </g>
    </g>
    <g id="xtick_3">
     <g id="line2d_3">
      <g>
       <use xlink:href="#m1992cf7605" x="230.4" y="172.8" style="stroke: #000000; stroke-width: 0.8"/>
      </g>
     </g>
    </g>
    <g id="xtick_4">
     <g id="line2d_4">
      <g>
       <use xlink:href="#m1992cf7605" x="317.752246" y="172.8" style="stroke: #000000; stroke-width: 0.8"/>
      </g>
     </g>
     <g id="text_3">
      <!-- 5 -->
      <g transform="translate(314.570996 187.398438)scale(0.1 -0.1)">
       <use xlink:href="#DejaVuSans-35"/>
      </g>
     </g>
    </g>
    <g id="xtick_5">
     <g id="line2d_5">
      <g>
       <use xlink:href="#m1992cf7605" x="405.104493" y="172.8" style="stroke: #000000; stroke-width: 0.8"/>
      </g>
     </g>
     <g id="text_4">
      <!-- 10 -->
      <g transform="translate(398.741993 187.398438)scale(0.1 -0.1)">
       <use xlink:href="#DejaVuSans-31"/>
       <use xlink:href="#DejaVuSans-30" x="63.623047"/>
      </g>
     </g>
    </g>
    <g id="xtick_6">
     <g id="line2d_6">
      <defs>
       <path id="mcc932f3996" d="M 0 0 
L 0 2 
" style="stroke: #000000; stroke-width: 0.6"/>
      </defs>
      <g>
       <use xlink:href="#mcc932f3996" x="73.165957" y="172.8" style="stroke: #000000; stroke-width: 0.6"/>
      </g>
     </g>
    </g>
    <g id="xtick_7">
     <g id="line2d_7">
      <g>
       <use xlink:href="#mcc932f3996" x="90.636406" y="172.8" style="stroke: #000000; stroke-width: 0.6"/>
      </g>
     </g>
    </g>
    <g id="xtick_8">
     <g id="line2d_8">
      <g>
       <use xlink:href="#mcc932f3996" x="108.106855" y="172.8" style="stroke: #000000; stroke-width: 0.6"/>
      </g>
     </g>
    </g>
    <g id="xtick_9">
     <g id="line2d_9">
      <g>
       <use xlink:href="#mcc932f3996" x="125.577304" y="172.8" style="stroke: #000000; stroke-width: 0.6"/>
      </g>
     </g>
    </g>
    <g id="xtick_10">
     <g id="line2d_10">
      <g>
       <use xlink:href="#mcc932f3996" x="160.518203" y="172.8" style="stroke: #000000; stroke-width: 0.6"/>
      </g>
     </g>
    </g>
    <g id="xtick_11">
     <g id="line2d_11">
      <g>
       <use xlink:href="#mcc932f3996" x="177.988652" y="172.8" style="stroke: #000000; stroke-width: 0.6"/>
      </g>
     </g>
    </g>
    <g id="xtick_12">
     <g id="line2d_12">
      <g>
       <use xlink:href="#mcc932f3996" x="195.459101" y="172.8" style="stroke: #000000; stroke-width: 0.6"/>
      </g>
     </g>
    </g>
    <g id="xtick_13">
     <g id="line2d_13">
      <g>
       <use xlink:href="#mcc932f3996" x="212.929551" y="172.8" style="stroke: #000000; stroke-width: 0.6"/>
      </g>
     </g>
    </g>
    <g id="xtick_14">
     <g id="line2d_14">
      <g>
       <use xlink:href="#mcc932f3996" x="247.870449" y="172.8" style="stroke: #000000; stroke-width: 0.6"/>
      </g>
     </g>
    </g>
    <g id="xtick_15">
     <g id="line2d_15">
      <g>
       <use xlink:href="#mcc932f3996" x="265.340899" y="172.8" style="stroke: #000000; stroke-width: 0.6"/>
      </g>
     </g>
    </g>
    <g id="xtick_16">
     <g id="line2d_16">
      <g>
       <use xlink:href="#mcc932f3996" x="282.811348" y="172.8" style="stroke: #000000; stroke-width: 0.6"/>
      </g>
     </g>
    </g>
    <g id="xtick_17">
     <g id="line2d_17">
      <g>
       <use xlink:href="#mcc932f3996" x="300.281797" y="172.8" style="stroke: #000000; stroke-width: 0.6"/>
      </g>
     </g>
    </g>
    <g id="xtick_18">
     <g id="line2d_18">
      <g>
       <use xlink:href="#mcc932f3996" x="335.222696" y="172.8" style="stroke: #000000; stroke-width: 0.6"/>
      </g>
     </g>
    </g>
    <g id="xtick_19">
     <g id="line2d_19">
      <g>
       <use xlink:href="#mcc932f3996" x="352.693145" y="172.8" style="stroke: #000000; stroke-width: 0.6"/>
      </g>
     </g>
    </g>
    <g id="xtick_20">
     <g id="line2d_20">
      <g>
       <use xlink:href="#mcc932f3996" x="370.163594" y="172.8" style="stroke: #000000; stroke-width: 0.6"/>
      </g>
     </g>
    </g>
    <g id="xtick_21">
     <g id="line2d_21">
      <g>
       <use xlink:href="#mcc932f3996" x="387.634043" y="172.8" style="stroke: #000000; stroke-width: 0.6"/>
      </g>
     </g>
    </g>
   </g>
   <g id="matplotlib.axis_2">
    <g id="ytick_1">
     <g id="line2d_22">
      <defs>
       <path id="m7db39cd6e9" d="M 0 0 
L -3.5 0 
" style="stroke: #000000; stroke-width: 0.8"/>
      </defs>
      <g>
       <use xlink:href="#m7db39cd6e9" x="230.4" y="260.152246" style="stroke: #000000; stroke-width: 0.8"/>
      </g>
     </g>
     <g id="text_5">
      <!-- −5 -->
      <g transform="translate(208.657812 263.951465)scale(0.1 -0.1)">
       <use xlink:href="#DejaVuSans-2212"/>
       <use xlink:href="#DejaVuSans-35" x="83.789062"/>
      </g>
     </g>
    </g>
    <g id="ytick_2">
     <g id="line2d_23">
      <g>
       <use xlink:href="#m7db39cd6e9" x="230.4" y="172.8" style="stroke: #000000; stroke-width: 0.8"/>
      </g>
     </g>
    </g>
    <g id="ytick_3">
     <g id="line2d_24">
      <g>
       <use xlink:href="#m7db39cd6e9" x="230.4" y="85.447754" style="stroke: #000000; stroke-width: 0.8"/>
      </g>
     </g>
     <g id="text_6">
      <!-- 5 -->
      <g transform="translate(217.0375 89.246972)scale(0.1 -0.1)">
       <use xlink:href="#DejaVuSans-35"/>
      </g>
     </g>
    </g>
    <g id="ytick_4">
     <g id="line2d_25">
      <defs>
       <path id="ma1c5e6c549" d="M 0 0 
L -2 0 
" style="stroke: #000000; stroke-width: 0.6"/>
      </defs>
      <g>
       <use xlink:href="#ma1c5e6c549" x="230.4" y="330.034043" style="stroke: #000000; stroke-width: 0.6"/>
      </g>
     </g>
    </g>
    <g id="ytick_5">
     <g id="line2d_26">
      <g>
       <use xlink:href="#ma1c5e6c549" x="230.4" y="312.563594" style="stroke: #000000; stroke-width: 0.6"/>
      </g>
     </g>
    </g>
    <g id="ytick_6">
     <g id="line2d_27">
      <g>
       <use xlink:href="#ma1c5e6c549" x="230.4" y="295.093145" style="stroke: #000000; stroke-width: 0.6"/>
      </g>
     </g>
    </g>
    <g id="ytick_7">
     <g id="line2d_28">
      <g>
       <use xlink:href="#ma1c5e6c549" x="230.4" y="277.622696" style="stroke: #000000; stroke-width: 0.6"/>
      </g>
     </g>
    </g>
    <g id="ytick_8">
     <g id="line2d_29">
      <g>
       <use xlink:href="#ma1c5e6c549" x="230.4" y="242.681797" style="stroke: #000000; stroke-width: 0.6"/>
      </g>
     </g>
    </g>
    <g id="ytick_9">
     <g id="line2d_30">
      <g>
       <use xlink:href="#ma1c5e6c549" x="230.4" y="225.211348" style="stroke: #000000; stroke-width: 0.6"/>
      </g>
     </g>
    </g>
    <g id="ytick_10">
     <g id="line2d_31">
      <g>
       <use xlink:href="#ma1c5e6c549" x="230.4" y="207.740899" style="stroke: #000000; stroke-width: 0.6"/>
      </g>
     </g>
    </g>
    <g id="ytick_11">
     <g id="line2d_32">
      <g>
       <use xlink:href="#ma1c5e6c549" x="230.4" y="190.270449" style="stroke: #000000; stroke-width: 0.6"/>
      </g>
     </g>
    </g>
    <g id="ytick_12">
     <g id="line2d_33">
      <g>
       <use xlink:href="#ma1c5e6c549" x="230.4" y="155.329551" style="stroke: #000000; stroke-width: 0.6"/>
      </g>
     </g>
    </g>
    <g id="ytick_13">
     <g id="line2d_34">
      <g>
       <use xlink:href="#ma1c5e6c549" x="230.4" y="137.859101" style="stroke: #000000; stroke-width: 0.6"/>
      </g>
     </g>
    </g>
    <g id="ytick_14">
     <g id="line2d_35">
      <g>
       <use xlink:href="#ma1c5e6c549" x="230.4" y="120.388652" style="stroke: #000000; stroke-width: 0.6"/>
      </g>
     </g>
    </g>
    <g id="ytick_15">
     <g id="line2d_36">
      <g>
       <use xlink:href="#ma1c5e6c549" x="230.4" y="102.918203" style="stroke: #000000; stroke-width: 0.6"/>
      </g>
     </g>
    </g>
    <g id="ytick_16">
     <g id="line2d_37">
      <g>
       <use xlink:href="#ma1c5e6c549" x="230.4" y="67.977304" style="stroke: #000000; stroke-width: 0.6"/>
      </g>
     </g>
    </g>
    <g id="ytick_17">
     <g id="line2d_38">
      <g>
       <use xlink:href="#ma1c5e6c549" x="230.4" y="50.506855" style="stroke: #000000; stroke-width: 0.6"/>
      </g>
     </g>
    </g>
    <g id="ytick_18">
     <g id="line2d_39">
      <g>
       <use xlink:href="#ma1c5e6c549" x="230.4" y="33.036406" style="stroke: #000000; stroke-width: 0.6"/>
      </g>
     </g>
    </g>
    <g id="ytick_19">
     <g id="line2d_40">
      <g>
       <use xlink:href="#ma1c5e6c549" x="230.4" y="15.565957" style="stroke: #000000; stroke-width: 0.6"/>
      </g>
     </g>
    </g>
   </g>
   <g id="patch_4">
    <path d="M 230.4 345.6 
L 230.4 0 
" style="fill: none; stroke: #000000; stroke-width: 0.8; stroke-linejoin: miter; stroke-linecap: square"/>
   </g>
   <g id="patch_5">
    <path d="M 48.707328 172.8 
L 412.092672 172.8 
" style="fill: none; stroke: #000000; stroke-width: 0.8; stroke-linejoin: miter; stroke-linecap: square"/>
   </g>
  </g>
 </g>
 <defs>
  <clipPath id="pa02e2bdf4b">
   <rect x="48.707328" y="0" width="363.385345" height="345.6"/>
  </clipPath>
 </defs>
</svg>
