<?xml version="1.0" encoding="utf-8" standalone="no"?>
<!DOCTYPE svg PUBLIC "-//W3C//DTD SVG 1.1//EN"
  "http://www.w3.org/Graphics/SVG/1.1/DTD/svg11.dtd">
<!-- Created with matplotlib (http://matplotlib.org/) -->
<svg height="345.6pt" version="1.1" viewBox="0 0 460.8 345.6" width="460.8pt" xmlns="http://www.w3.org/2000/svg" xmlns:xlink="http://www.w3.org/1999/xlink">
 <defs>
  <style type="text/css">
*{stroke-linecap:butt;stroke-linejoin:round;}
  </style>
 </defs>
 <g id="figure_1">
  <g id="patch_1">
   <path d="M 0 345.6 
L 460.8 345.6 
L 460.8 0 
L 0 0 
z
" style="fill:#ffffff;"/>
  </g>
  <g id="axes_1">
   <g id="patch_2">
    <path d="M 19.683098 343.08 
L 441.116902 343.08 
L 441.116902 2.52 
L 19.683098 2.52 
z
" style="fill:#ffffff;"/>
   </g>
   <g id="patch_3">
    <path clip-path="url(#p4f262df1a9)" d="M 433.012406 172.8 
L 432.712623 169.418089 
L 431.815343 165.641678 
L 430.326757 161.479796 
L 428.257123 156.945342 
L 425.620677 152.054984 
L 422.435515 146.829043 
L 418.723434 141.291328 
L 414.509745 135.468953 
L 409.823058 129.392114 
L 404.695033 123.093845 
L 399.160114 116.609745 
L 393.25523 109.977678 
L 387.019481 103.237463 
L 380.493804 96.430534 
L 373.720622 89.599593 
L 366.743488 82.788248 
L 359.606707 76.040641 
L 352.354967 69.401077 
L 345.032957 62.913639 
L 337.684991 56.621819 
L 330.354634 50.568139 
L 323.084339 44.793793 
L 315.91509 39.338287 
L 308.886064 34.239108 
L 302.034303 29.531394 
L 295.394417 25.247637 
L 288.998295 21.417402 
L 282.874855 18.067076 
L 277.049811 15.219635 
L 271.545476 12.894452 
L 266.380588 11.10713 
L 261.57018 9.869368 
L 257.125472 9.18886 
L 253.053804 9.069231 
L 249.358603 9.510008 
L 246.039384 10.506624 
L 243.091788 12.050462 
L 240.507654 14.128928 
L 238.275126 16.725562 
L 236.378788 19.820186 
L 234.799842 23.389076 
L 233.516308 27.40517 
L 232.503252 31.838304 
L 231.733045 36.655475 
L 231.175646 41.821127 
L 230.798901 47.297459 
L 230.568869 53.044755 
L 230.450159 59.021722 
L 230.406279 65.185855 
L 230.4 71.493797 
L 230.393721 77.901716 
L 230.349841 84.365681 
L 230.231131 90.84204 
L 230.001099 97.287794 
L 229.624354 103.660962 
L 229.066955 109.920942 
L 228.296748 116.028853 
L 227.283692 121.947866 
L 226.000158 127.64351 
L 224.421212 133.083965 
L 222.524874 138.240321 
L 220.292346 143.086821 
L 217.708212 147.601065 
L 214.760616 151.76419 
L 211.441397 155.561017 
L 207.746196 158.980165 
L 203.674528 162.014127 
L 199.22982 164.659319 
L 194.419412 166.916085 
L 189.254524 168.788668 
L 183.750189 170.285157 
L 177.925145 171.417382 
L 171.801705 172.200789 
L 165.405583 172.654276 
L 158.765697 172.8 
L 151.913936 172.663156 
L 144.88491 172.271724 
L 137.715661 171.656199 
L 130.445366 170.849288 
L 123.115009 169.885597 
L 115.767043 168.801295 
L 108.445033 167.633767 
L 101.193293 166.421253 
L 94.056512 165.202481 
L 87.079378 164.016299 
L 80.306196 162.901299 
L 73.780519 161.895447 
L 67.54477 161.03572 
L 61.639886 160.35775 
L 56.104967 159.895478 
L 50.976942 159.680827 
L 46.290255 159.743391 
L 42.076566 160.110145 
L 38.364485 160.805178 
L 35.179323 161.849452 
L 32.542877 163.26059 
L 30.473243 165.052692 
L 28.984657 167.236184 
L 28.087377 169.817701 
L 27.787594 172.8 
L 28.087377 176.181911 
L 28.984657 179.958322 
L 30.473243 184.120204 
L 32.542877 188.654658 
L 35.179323 193.545016 
L 38.364485 198.770957 
L 42.076566 204.308672 
L 46.290255 210.131047 
L 50.976942 216.207886 
L 56.104967 222.506155 
L 61.639886 228.990255 
L 67.54477 235.622322 
L 73.780519 242.362537 
L 80.306196 249.169466 
L 87.079378 256.000407 
L 94.056512 262.811752 
L 101.193293 269.559359 
L 108.445033 276.198923 
L 115.767043 282.686361 
L 123.115009 288.978181 
L 130.445366 295.031861 
L 137.715661 300.806207 
L 144.88491 306.261713 
L 151.913936 311.360892 
L 158.765697 316.068606 
L 165.405583 320.352363 
L 171.801705 324.182598 
L 177.925145 327.532924 
L 183.750189 330.380365 
L 189.254524 332.705548 
L 194.419412 334.49287 
L 199.22982 335.730632 
L 203.674528 336.41114 
L 207.746196 336.530769 
L 211.441397 336.089992 
L 214.760616 335.093376 
L 217.708212 333.549538 
L 220.292346 331.471072 
L 222.524874 328.874438 
L 224.421212 325.779814 
L 226.000158 322.210924 
L 227.283692 318.19483 
L 228.296748 313.761696 
L 229.066955 308.944525 
L 229.624354 303.778873 
L 230.001099 298.302541 
L 230.231131 292.555245 
L 230.349841 286.578278 
L 230.393721 280.414145 
L 230.4 274.106203 
L 230.406279 267.698284 
L 230.450159 261.234319 
L 230.568869 254.75796 
L 230.798901 248.312206 
L 231.175646 241.939038 
L 231.733045 235.679058 
L 232.503252 229.571147 
L 233.516308 223.652134 
L 234.799842 217.95649 
L 236.378788 212.516035 
L 238.275126 207.359679 
L 240.507654 202.513179 
L 243.091788 197.998935 
L 246.039384 193.83581 
L 249.358603 190.038983 
L 253.053804 186.619835 
L 257.125472 183.585873 
L 261.57018 180.940681 
L 266.380588 178.683915 
L 271.545476 176.811332 
L 277.049811 175.314843 
L 282.874855 174.182618 
L 288.998295 173.399211 
L 295.394417 172.945724 
L 302.034303 172.8 
L 308.886064 172.936844 
L 315.91509 173.328276 
L 323.084339 173.943801 
L 330.354634 174.750712 
L 337.684991 175.714403 
L 345.032957 176.798705 
L 352.354967 177.966233 
L 359.606707 179.178747 
L 366.743488 180.397519 
L 373.720622 181.583701 
L 380.493804 182.698701 
L 387.019481 183.704553 
L 393.25523 184.56428 
L 399.160114 185.24225 
L 404.695033 185.704522 
L 409.823058 185.919173 
L 414.509745 185.856609 
L 418.723434 185.489855 
L 422.435515 184.794822 
L 425.620677 183.750548 
L 428.257123 182.33941 
L 430.326757 180.547308 
L 431.815343 178.363816 
L 432.712623 175.782299 
z
" style="fill:#20bf80;"/>
   </g>
   <g id="matplotlib.axis_1">
    <g id="xtick_1">
     <g id="line2d_1">
      <defs>
       <path d="M 0 0 
L 0 3.5 
" id="m98d9dba5e5" style="stroke:#000000;stroke-width:0.8;"/>
      </defs>
      <g>
       <use style="stroke:#000000;stroke-width:0.8;" x="27.787594" xlink:href="#m98d9dba5e5" y="172.8"/>
      </g>
     </g>
     <g id="text_1">
      <!-- -2 -->
      <defs>
       <path d="M 4.890625 31.390625 
L 31.203125 31.390625 
L 31.203125 23.390625 
L 4.890625 23.390625 
z
" id="DejaVuSans-2d"/>
       <path d="M 19.1875 8.296875 
L 53.609375 8.296875 
L 53.609375 0 
L 7.328125 0 
L 7.328125 8.296875 
Q 12.9375 14.109375 22.625 23.890625 
Q 32.328125 33.6875 34.8125 36.53125 
Q 39.546875 41.84375 41.421875 45.53125 
Q 43.3125 49.21875 43.3125 52.78125 
Q 43.3125 58.59375 39.234375 62.25 
Q 35.15625 65.921875 28.609375 65.921875 
Q 23.96875 65.921875 18.8125 64.3125 
Q 13.671875 62.703125 7.8125 59.421875 
L 7.8125 69.390625 
Q 13.765625 71.78125 18.9375 73 
Q 24.125 74.21875 28.421875 74.21875 
Q 39.75 74.21875 46.484375 68.546875 
Q 53.21875 62.890625 53.21875 53.421875 
Q 53.21875 48.921875 51.53125 44.890625 
Q 49.859375 40.875 45.40625 35.40625 
Q 44.1875 33.984375 37.640625 27.21875 
Q 31.109375 20.453125 19.1875 8.296875 
z
" id="DejaVuSans-32"/>
      </defs>
      <g transform="translate(22.802438 187.398437)scale(0.1 -0.1)">
       <use xlink:href="#DejaVuSans-2d"/>
       <use x="36.083984" xlink:href="#DejaVuSans-32"/>
      </g>
     </g>
    </g>
    <g id="xtick_2">
     <g id="line2d_2">
      <g>
       <use style="stroke:#000000;stroke-width:0.8;" x="78.440696" xlink:href="#m98d9dba5e5" y="172.8"/>
      </g>
     </g>
     <g id="text_2">
      <!-- -1.5 -->
      <defs>
       <path d="M 12.40625 8.296875 
L 28.515625 8.296875 
L 28.515625 63.921875 
L 10.984375 60.40625 
L 10.984375 69.390625 
L 28.421875 72.90625 
L 38.28125 72.90625 
L 38.28125 8.296875 
L 54.390625 8.296875 
L 54.390625 0 
L 12.40625 0 
z
" id="DejaVuSans-31"/>
       <path d="M 10.6875 12.40625 
L 21 12.40625 
L 21 0 
L 10.6875 0 
z
" id="DejaVuSans-2e"/>
       <path d="M 10.796875 72.90625 
L 49.515625 72.90625 
L 49.515625 64.59375 
L 19.828125 64.59375 
L 19.828125 46.734375 
Q 21.96875 47.46875 24.109375 47.828125 
Q 26.265625 48.1875 28.421875 48.1875 
Q 40.625 48.1875 47.75 41.5 
Q 54.890625 34.8125 54.890625 23.390625 
Q 54.890625 11.625 47.5625 5.09375 
Q 40.234375 -1.421875 26.90625 -1.421875 
Q 22.3125 -1.421875 17.546875 -0.640625 
Q 12.796875 0.140625 7.71875 1.703125 
L 7.71875 11.625 
Q 12.109375 9.234375 16.796875 8.0625 
Q 21.484375 6.890625 26.703125 6.890625 
Q 35.15625 6.890625 40.078125 11.328125 
Q 45.015625 15.765625 45.015625 23.390625 
Q 45.015625 31 40.078125 35.4375 
Q 35.15625 39.890625 26.703125 39.890625 
Q 22.75 39.890625 18.8125 39.015625 
Q 14.890625 38.140625 10.796875 36.28125 
z
" id="DejaVuSans-35"/>
      </defs>
      <g transform="translate(68.685227 187.398437)scale(0.1 -0.1)">
       <use xlink:href="#DejaVuSans-2d"/>
       <use x="36.083984" xlink:href="#DejaVuSans-31"/>
       <use x="99.707031" xlink:href="#DejaVuSans-2e"/>
       <use x="131.494141" xlink:href="#DejaVuSans-35"/>
      </g>
     </g>
    </g>
    <g id="xtick_3">
     <g id="line2d_3">
      <g>
       <use style="stroke:#000000;stroke-width:0.8;" x="129.093797" xlink:href="#m98d9dba5e5" y="172.8"/>
      </g>
     </g>
     <g id="text_3">
      <!-- -1 -->
      <g transform="translate(124.108641 187.398437)scale(0.1 -0.1)">
       <use xlink:href="#DejaVuSans-2d"/>
       <use x="36.083984" xlink:href="#DejaVuSans-31"/>
      </g>
     </g>
    </g>
    <g id="xtick_4">
     <g id="line2d_4">
      <g>
       <use style="stroke:#000000;stroke-width:0.8;" x="179.746899" xlink:href="#m98d9dba5e5" y="172.8"/>
      </g>
     </g>
     <g id="text_4">
      <!-- -0.5 -->
      <defs>
       <path d="M 31.78125 66.40625 
Q 24.171875 66.40625 20.328125 58.90625 
Q 16.5 51.421875 16.5 36.375 
Q 16.5 21.390625 20.328125 13.890625 
Q 24.171875 6.390625 31.78125 6.390625 
Q 39.453125 6.390625 43.28125 13.890625 
Q 47.125 21.390625 47.125 36.375 
Q 47.125 51.421875 43.28125 58.90625 
Q 39.453125 66.40625 31.78125 66.40625 
z
M 31.78125 74.21875 
Q 44.046875 74.21875 50.515625 64.515625 
Q 56.984375 54.828125 56.984375 36.375 
Q 56.984375 17.96875 50.515625 8.265625 
Q 44.046875 -1.421875 31.78125 -1.421875 
Q 19.53125 -1.421875 13.0625 8.265625 
Q 6.59375 17.96875 6.59375 36.375 
Q 6.59375 54.828125 13.0625 64.515625 
Q 19.53125 74.21875 31.78125 74.21875 
z
" id="DejaVuSans-30"/>
      </defs>
      <g transform="translate(169.99143 187.398437)scale(0.1 -0.1)">
       <use xlink:href="#DejaVuSans-2d"/>
       <use x="36.083984" xlink:href="#DejaVuSans-30"/>
       <use x="99.707031" xlink:href="#DejaVuSans-2e"/>
       <use x="131.494141" xlink:href="#DejaVuSans-35"/>
      </g>
     </g>
    </g>
    <g id="xtick_5">
     <g id="line2d_5">
      <g>
       <use style="stroke:#000000;stroke-width:0.8;" x="230.4" xlink:href="#m98d9dba5e5" y="172.8"/>
      </g>
     </g>
    </g>
    <g id="xtick_6">
     <g id="line2d_6">
      <g>
       <use style="stroke:#000000;stroke-width:0.8;" x="281.053101" xlink:href="#m98d9dba5e5" y="172.8"/>
      </g>
     </g>
     <g id="text_5">
      <!-- 0.5 -->
      <g transform="translate(273.101539 187.398437)scale(0.1 -0.1)">
       <use xlink:href="#DejaVuSans-30"/>
       <use x="63.623047" xlink:href="#DejaVuSans-2e"/>
       <use x="95.410156" xlink:href="#DejaVuSans-35"/>
      </g>
     </g>
    </g>
    <g id="xtick_7">
     <g id="line2d_7">
      <g>
       <use style="stroke:#000000;stroke-width:0.8;" x="331.706203" xlink:href="#m98d9dba5e5" y="172.8"/>
      </g>
     </g>
     <g id="text_6">
      <!-- 1 -->
      <g transform="translate(328.524953 187.398437)scale(0.1 -0.1)">
       <use xlink:href="#DejaVuSans-31"/>
      </g>
     </g>
    </g>
    <g id="xtick_8">
     <g id="line2d_8">
      <g>
       <use style="stroke:#000000;stroke-width:0.8;" x="382.359304" xlink:href="#m98d9dba5e5" y="172.8"/>
      </g>
     </g>
     <g id="text_7">
      <!-- 1.5 -->
      <g transform="translate(374.407742 187.398437)scale(0.1 -0.1)">
       <use xlink:href="#DejaVuSans-31"/>
       <use x="63.623047" xlink:href="#DejaVuSans-2e"/>
       <use x="95.410156" xlink:href="#DejaVuSans-35"/>
      </g>
     </g>
    </g>
    <g id="xtick_9">
     <g id="line2d_9">
      <g>
       <use style="stroke:#000000;stroke-width:0.8;" x="433.012406" xlink:href="#m98d9dba5e5" y="172.8"/>
      </g>
     </g>
     <g id="text_8">
      <!-- 2 -->
      <g transform="translate(429.831156 187.398437)scale(0.1 -0.1)">
       <use xlink:href="#DejaVuSans-32"/>
      </g>
     </g>
    </g>
    <g id="xtick_10">
     <g id="line2d_10">
      <defs>
       <path d="M 0 0 
L 0 2 
" id="me6cfa31139" style="stroke:#000000;stroke-width:0.6;"/>
      </defs>
      <g>
       <use style="stroke:#000000;stroke-width:0.6;" x="37.918214" xlink:href="#me6cfa31139" y="172.8"/>
      </g>
     </g>
    </g>
    <g id="xtick_11">
     <g id="line2d_11">
      <g>
       <use style="stroke:#000000;stroke-width:0.6;" x="48.048835" xlink:href="#me6cfa31139" y="172.8"/>
      </g>
     </g>
    </g>
    <g id="xtick_12">
     <g id="line2d_12">
      <g>
       <use style="stroke:#000000;stroke-width:0.6;" x="58.179455" xlink:href="#me6cfa31139" y="172.8"/>
      </g>
     </g>
    </g>
    <g id="xtick_13">
     <g id="line2d_13">
      <g>
       <use style="stroke:#000000;stroke-width:0.6;" x="68.310075" xlink:href="#me6cfa31139" y="172.8"/>
      </g>
     </g>
    </g>
    <g id="xtick_14">
     <g id="line2d_14">
      <g>
       <use style="stroke:#000000;stroke-width:0.6;" x="88.571316" xlink:href="#me6cfa31139" y="172.8"/>
      </g>
     </g>
    </g>
    <g id="xtick_15">
     <g id="line2d_15">
      <g>
       <use style="stroke:#000000;stroke-width:0.6;" x="98.701936" xlink:href="#me6cfa31139" y="172.8"/>
      </g>
     </g>
    </g>
    <g id="xtick_16">
     <g id="line2d_16">
      <g>
       <use style="stroke:#000000;stroke-width:0.6;" x="108.832556" xlink:href="#me6cfa31139" y="172.8"/>
      </g>
     </g>
    </g>
    <g id="xtick_17">
     <g id="line2d_17">
      <g>
       <use style="stroke:#000000;stroke-width:0.6;" x="118.963177" xlink:href="#me6cfa31139" y="172.8"/>
      </g>
     </g>
    </g>
    <g id="xtick_18">
     <g id="line2d_18">
      <g>
       <use style="stroke:#000000;stroke-width:0.6;" x="139.224417" xlink:href="#me6cfa31139" y="172.8"/>
      </g>
     </g>
    </g>
    <g id="xtick_19">
     <g id="line2d_19">
      <g>
       <use style="stroke:#000000;stroke-width:0.6;" x="149.355038" xlink:href="#me6cfa31139" y="172.8"/>
      </g>
     </g>
    </g>
    <g id="xtick_20">
     <g id="line2d_20">
      <g>
       <use style="stroke:#000000;stroke-width:0.6;" x="159.485658" xlink:href="#me6cfa31139" y="172.8"/>
      </g>
     </g>
    </g>
    <g id="xtick_21">
     <g id="line2d_21">
      <g>
       <use style="stroke:#000000;stroke-width:0.6;" x="169.616278" xlink:href="#me6cfa31139" y="172.8"/>
      </g>
     </g>
    </g>
    <g id="xtick_22">
     <g id="line2d_22">
      <g>
       <use style="stroke:#000000;stroke-width:0.6;" x="189.877519" xlink:href="#me6cfa31139" y="172.8"/>
      </g>
     </g>
    </g>
    <g id="xtick_23">
     <g id="line2d_23">
      <g>
       <use style="stroke:#000000;stroke-width:0.6;" x="200.008139" xlink:href="#me6cfa31139" y="172.8"/>
      </g>
     </g>
    </g>
    <g id="xtick_24">
     <g id="line2d_24">
      <g>
       <use style="stroke:#000000;stroke-width:0.6;" x="210.138759" xlink:href="#me6cfa31139" y="172.8"/>
      </g>
     </g>
    </g>
    <g id="xtick_25">
     <g id="line2d_25">
      <g>
       <use style="stroke:#000000;stroke-width:0.6;" x="220.26938" xlink:href="#me6cfa31139" y="172.8"/>
      </g>
     </g>
    </g>
    <g id="xtick_26">
     <g id="line2d_26">
      <g>
       <use style="stroke:#000000;stroke-width:0.6;" x="240.53062" xlink:href="#me6cfa31139" y="172.8"/>
      </g>
     </g>
    </g>
    <g id="xtick_27">
     <g id="line2d_27">
      <g>
       <use style="stroke:#000000;stroke-width:0.6;" x="250.661241" xlink:href="#me6cfa31139" y="172.8"/>
      </g>
     </g>
    </g>
    <g id="xtick_28">
     <g id="line2d_28">
      <g>
       <use style="stroke:#000000;stroke-width:0.6;" x="260.791861" xlink:href="#me6cfa31139" y="172.8"/>
      </g>
     </g>
    </g>
    <g id="xtick_29">
     <g id="line2d_29">
      <g>
       <use style="stroke:#000000;stroke-width:0.6;" x="270.922481" xlink:href="#me6cfa31139" y="172.8"/>
      </g>
     </g>
    </g>
    <g id="xtick_30">
     <g id="line2d_30">
      <g>
       <use style="stroke:#000000;stroke-width:0.6;" x="291.183722" xlink:href="#me6cfa31139" y="172.8"/>
      </g>
     </g>
    </g>
    <g id="xtick_31">
     <g id="line2d_31">
      <g>
       <use style="stroke:#000000;stroke-width:0.6;" x="301.314342" xlink:href="#me6cfa31139" y="172.8"/>
      </g>
     </g>
    </g>
    <g id="xtick_32">
     <g id="line2d_32">
      <g>
       <use style="stroke:#000000;stroke-width:0.6;" x="311.444962" xlink:href="#me6cfa31139" y="172.8"/>
      </g>
     </g>
    </g>
    <g id="xtick_33">
     <g id="line2d_33">
      <g>
       <use style="stroke:#000000;stroke-width:0.6;" x="321.575583" xlink:href="#me6cfa31139" y="172.8"/>
      </g>
     </g>
    </g>
    <g id="xtick_34">
     <g id="line2d_34">
      <g>
       <use style="stroke:#000000;stroke-width:0.6;" x="341.836823" xlink:href="#me6cfa31139" y="172.8"/>
      </g>
     </g>
    </g>
    <g id="xtick_35">
     <g id="line2d_35">
      <g>
       <use style="stroke:#000000;stroke-width:0.6;" x="351.967444" xlink:href="#me6cfa31139" y="172.8"/>
      </g>
     </g>
    </g>
    <g id="xtick_36">
     <g id="line2d_36">
      <g>
       <use style="stroke:#000000;stroke-width:0.6;" x="362.098064" xlink:href="#me6cfa31139" y="172.8"/>
      </g>
     </g>
    </g>
    <g id="xtick_37">
     <g id="line2d_37">
      <g>
       <use style="stroke:#000000;stroke-width:0.6;" x="372.228684" xlink:href="#me6cfa31139" y="172.8"/>
      </g>
     </g>
    </g>
    <g id="xtick_38">
     <g id="line2d_38">
      <g>
       <use style="stroke:#000000;stroke-width:0.6;" x="392.489925" xlink:href="#me6cfa31139" y="172.8"/>
      </g>
     </g>
    </g>
    <g id="xtick_39">
     <g id="line2d_39">
      <g>
       <use style="stroke:#000000;stroke-width:0.6;" x="402.620545" xlink:href="#me6cfa31139" y="172.8"/>
      </g>
     </g>
    </g>
    <g id="xtick_40">
     <g id="line2d_40">
      <g>
       <use style="stroke:#000000;stroke-width:0.6;" x="412.751165" xlink:href="#me6cfa31139" y="172.8"/>
      </g>
     </g>
    </g>
    <g id="xtick_41">
     <g id="line2d_41">
      <g>
       <use style="stroke:#000000;stroke-width:0.6;" x="422.881786" xlink:href="#me6cfa31139" y="172.8"/>
      </g>
     </g>
    </g>
   </g>
   <g id="matplotlib.axis_2">
    <g id="ytick_1">
     <g id="line2d_42">
      <defs>
       <path d="M 0 0 
L -3.5 0 
" id="m29a46a799e" style="stroke:#000000;stroke-width:0.8;"/>
      </defs>
      <g>
       <use style="stroke:#000000;stroke-width:0.8;" x="230.4" xlink:href="#m29a46a799e" y="324.759304"/>
      </g>
     </g>
     <g id="text_9">
      <!-- -1.5 -->
      <g transform="translate(203.889063 328.558523)scale(0.1 -0.1)">
       <use xlink:href="#DejaVuSans-2d"/>
       <use x="36.083984" xlink:href="#DejaVuSans-31"/>
       <use x="99.707031" xlink:href="#DejaVuSans-2e"/>
       <use x="131.494141" xlink:href="#DejaVuSans-35"/>
      </g>
     </g>
    </g>
    <g id="ytick_2">
     <g id="line2d_43">
      <g>
       <use style="stroke:#000000;stroke-width:0.8;" x="230.4" xlink:href="#m29a46a799e" y="274.106203"/>
      </g>
     </g>
     <g id="text_10">
      <!-- -1 -->
      <g transform="translate(213.429688 277.905422)scale(0.1 -0.1)">
       <use xlink:href="#DejaVuSans-2d"/>
       <use x="36.083984" xlink:href="#DejaVuSans-31"/>
      </g>
     </g>
    </g>
    <g id="ytick_3">
     <g id="line2d_44">
      <g>
       <use style="stroke:#000000;stroke-width:0.8;" x="230.4" xlink:href="#m29a46a799e" y="223.453101"/>
      </g>
     </g>
     <g id="text_11">
      <!-- -0.5 -->
      <g transform="translate(203.889063 227.25232)scale(0.1 -0.1)">
       <use xlink:href="#DejaVuSans-2d"/>
       <use x="36.083984" xlink:href="#DejaVuSans-30"/>
       <use x="99.707031" xlink:href="#DejaVuSans-2e"/>
       <use x="131.494141" xlink:href="#DejaVuSans-35"/>
      </g>
     </g>
    </g>
    <g id="ytick_4">
     <g id="line2d_45">
      <g>
       <use style="stroke:#000000;stroke-width:0.8;" x="230.4" xlink:href="#m29a46a799e" y="172.8"/>
      </g>
     </g>
    </g>
    <g id="ytick_5">
     <g id="line2d_46">
      <g>
       <use style="stroke:#000000;stroke-width:0.8;" x="230.4" xlink:href="#m29a46a799e" y="122.146899"/>
      </g>
     </g>
     <g id="text_12">
      <!-- 0.5 -->
      <g transform="translate(207.496875 125.946117)scale(0.1 -0.1)">
       <use xlink:href="#DejaVuSans-30"/>
       <use x="63.623047" xlink:href="#DejaVuSans-2e"/>
       <use x="95.410156" xlink:href="#DejaVuSans-35"/>
      </g>
     </g>
    </g>
    <g id="ytick_6">
     <g id="line2d_47">
      <g>
       <use style="stroke:#000000;stroke-width:0.8;" x="230.4" xlink:href="#m29a46a799e" y="71.493797"/>
      </g>
     </g>
     <g id="text_13">
      <!-- 1 -->
      <g transform="translate(217.0375 75.293016)scale(0.1 -0.1)">
       <use xlink:href="#DejaVuSans-31"/>
      </g>
     </g>
    </g>
    <g id="ytick_7">
     <g id="line2d_48">
      <g>
       <use style="stroke:#000000;stroke-width:0.8;" x="230.4" xlink:href="#m29a46a799e" y="20.840696"/>
      </g>
     </g>
     <g id="text_14">
      <!-- 1.5 -->
      <g transform="translate(207.496875 24.639914)scale(0.1 -0.1)">
       <use xlink:href="#DejaVuSans-31"/>
       <use x="63.623047" xlink:href="#DejaVuSans-2e"/>
       <use x="95.410156" xlink:href="#DejaVuSans-35"/>
      </g>
     </g>
    </g>
    <g id="ytick_8">
     <g id="line2d_49">
      <defs>
       <path d="M 0 0 
L -2 0 
" id="m3d05ea5fc2" style="stroke:#000000;stroke-width:0.6;"/>
      </defs>
      <g>
       <use style="stroke:#000000;stroke-width:0.6;" x="230.4" xlink:href="#m3d05ea5fc2" y="334.889925"/>
      </g>
     </g>
    </g>
    <g id="ytick_9">
     <g id="line2d_50">
      <g>
       <use style="stroke:#000000;stroke-width:0.6;" x="230.4" xlink:href="#m3d05ea5fc2" y="314.628684"/>
      </g>
     </g>
    </g>
    <g id="ytick_10">
     <g id="line2d_51">
      <g>
       <use style="stroke:#000000;stroke-width:0.6;" x="230.4" xlink:href="#m3d05ea5fc2" y="304.498064"/>
      </g>
     </g>
    </g>
    <g id="ytick_11">
     <g id="line2d_52">
      <g>
       <use style="stroke:#000000;stroke-width:0.6;" x="230.4" xlink:href="#m3d05ea5fc2" y="294.367444"/>
      </g>
     </g>
    </g>
    <g id="ytick_12">
     <g id="line2d_53">
      <g>
       <use style="stroke:#000000;stroke-width:0.6;" x="230.4" xlink:href="#m3d05ea5fc2" y="284.236823"/>
      </g>
     </g>
    </g>
    <g id="ytick_13">
     <g id="line2d_54">
      <g>
       <use style="stroke:#000000;stroke-width:0.6;" x="230.4" xlink:href="#m3d05ea5fc2" y="263.975583"/>
      </g>
     </g>
    </g>
    <g id="ytick_14">
     <g id="line2d_55">
      <g>
       <use style="stroke:#000000;stroke-width:0.6;" x="230.4" xlink:href="#m3d05ea5fc2" y="253.844962"/>
      </g>
     </g>
    </g>
    <g id="ytick_15">
     <g id="line2d_56">
      <g>
       <use style="stroke:#000000;stroke-width:0.6;" x="230.4" xlink:href="#m3d05ea5fc2" y="243.714342"/>
      </g>
     </g>
    </g>
    <g id="ytick_16">
     <g id="line2d_57">
      <g>
       <use style="stroke:#000000;stroke-width:0.6;" x="230.4" xlink:href="#m3d05ea5fc2" y="233.583722"/>
      </g>
     </g>
    </g>
    <g id="ytick_17">
     <g id="line2d_58">
      <g>
       <use style="stroke:#000000;stroke-width:0.6;" x="230.4" xlink:href="#m3d05ea5fc2" y="213.322481"/>
      </g>
     </g>
    </g>
    <g id="ytick_18">
     <g id="line2d_59">
      <g>
       <use style="stroke:#000000;stroke-width:0.6;" x="230.4" xlink:href="#m3d05ea5fc2" y="203.191861"/>
      </g>
     </g>
    </g>
    <g id="ytick_19">
     <g id="line2d_60">
      <g>
       <use style="stroke:#000000;stroke-width:0.6;" x="230.4" xlink:href="#m3d05ea5fc2" y="193.061241"/>
      </g>
     </g>
    </g>
    <g id="ytick_20">
     <g id="line2d_61">
      <g>
       <use style="stroke:#000000;stroke-width:0.6;" x="230.4" xlink:href="#m3d05ea5fc2" y="182.93062"/>
      </g>
     </g>
    </g>
    <g id="ytick_21">
     <g id="line2d_62">
      <g>
       <use style="stroke:#000000;stroke-width:0.6;" x="230.4" xlink:href="#m3d05ea5fc2" y="162.66938"/>
      </g>
     </g>
    </g>
    <g id="ytick_22">
     <g id="line2d_63">
      <g>
       <use style="stroke:#000000;stroke-width:0.6;" x="230.4" xlink:href="#m3d05ea5fc2" y="152.538759"/>
      </g>
     </g>
    </g>
    <g id="ytick_23">
     <g id="line2d_64">
      <g>
       <use style="stroke:#000000;stroke-width:0.6;" x="230.4" xlink:href="#m3d05ea5fc2" y="142.408139"/>
      </g>
     </g>
    </g>
    <g id="ytick_24">
     <g id="line2d_65">
      <g>
       <use style="stroke:#000000;stroke-width:0.6;" x="230.4" xlink:href="#m3d05ea5fc2" y="132.277519"/>
      </g>
     </g>
    </g>
    <g id="ytick_25">
     <g id="line2d_66">
      <g>
       <use style="stroke:#000000;stroke-width:0.6;" x="230.4" xlink:href="#m3d05ea5fc2" y="112.016278"/>
      </g>
     </g>
    </g>
    <g id="ytick_26">
     <g id="line2d_67">
      <g>
       <use style="stroke:#000000;stroke-width:0.6;" x="230.4" xlink:href="#m3d05ea5fc2" y="101.885658"/>
      </g>
     </g>
    </g>
    <g id="ytick_27">
     <g id="line2d_68">
      <g>
       <use style="stroke:#000000;stroke-width:0.6;" x="230.4" xlink:href="#m3d05ea5fc2" y="91.755038"/>
      </g>
     </g>
    </g>
    <g id="ytick_28">
     <g id="line2d_69">
      <g>
       <use style="stroke:#000000;stroke-width:0.6;" x="230.4" xlink:href="#m3d05ea5fc2" y="81.624417"/>
      </g>
     </g>
    </g>
    <g id="ytick_29">
     <g id="line2d_70">
      <g>
       <use style="stroke:#000000;stroke-width:0.6;" x="230.4" xlink:href="#m3d05ea5fc2" y="61.363177"/>
      </g>
     </g>
    </g>
    <g id="ytick_30">
     <g id="line2d_71">
      <g>
       <use style="stroke:#000000;stroke-width:0.6;" x="230.4" xlink:href="#m3d05ea5fc2" y="51.232556"/>
      </g>
     </g>
    </g>
    <g id="ytick_31">
     <g id="line2d_72">
      <g>
       <use style="stroke:#000000;stroke-width:0.6;" x="230.4" xlink:href="#m3d05ea5fc2" y="41.101936"/>
      </g>
     </g>
    </g>
    <g id="ytick_32">
     <g id="line2d_73">
      <g>
       <use style="stroke:#000000;stroke-width:0.6;" x="230.4" xlink:href="#m3d05ea5fc2" y="30.971316"/>
      </g>
     </g>
    </g>
    <g id="ytick_33">
     <g id="line2d_74">
      <g>
       <use style="stroke:#000000;stroke-width:0.6;" x="230.4" xlink:href="#m3d05ea5fc2" y="10.710075"/>
      </g>
     </g>
    </g>
   </g>
   <g id="patch_4">
    <path d="M 230.4 343.08 
L 230.4 2.52 
" style="fill:none;stroke:#000000;stroke-linecap:square;stroke-linejoin:miter;stroke-width:0.8;"/>
   </g>
   <g id="patch_5">
    <path d="M 19.683098 172.8 
L 441.116902 172.8 
" style="fill:none;stroke:#000000;stroke-linecap:square;stroke-linejoin:miter;stroke-width:0.8;"/>
   </g>
  </g>
 </g>
 <defs>
  <clipPath id="p4f262df1a9">
   <rect height="340.56" width="421.433804" x="19.683098" y="2.52"/>
  </clipPath>
 </defs>
</svg>
