<?xml version="1.0" encoding="utf-8" standalone="no"?>
<!DOCTYPE svg PUBLIC "-//W3C//DTD SVG 1.1//EN"
  "http://www.w3.org/Graphics/SVG/1.1/DTD/svg11.dtd">
<!-- Created with matplotlib (https://matplotlib.org/) -->
<svg height="345.6pt" version="1.1" viewBox="0 0 460.8 345.6" width="460.8pt" xmlns="http://www.w3.org/2000/svg" xmlns:xlink="http://www.w3.org/1999/xlink">
 <metadata>
  <rdf:RDF xmlns:cc="http://creativecommons.org/ns#" xmlns:dc="http://purl.org/dc/elements/1.1/" xmlns:rdf="http://www.w3.org/1999/02/22-rdf-syntax-ns#">
   <cc:Work>
    <dc:type rdf:resource="http://purl.org/dc/dcmitype/StillImage"/>
    <dc:date>2020-10-25T12:19:27.280749</dc:date>
    <dc:format>image/svg+xml</dc:format>
    <dc:creator>
     <cc:Agent>
      <dc:title>Matplotlib v3.3.1, https://matplotlib.org/</dc:title>
     </cc:Agent>
    </dc:creator>
   </cc:Work>
  </rdf:RDF>
 </metadata>
 <defs>
  <style type="text/css">*{stroke-linecap:butt;stroke-linejoin:round;}</style>
 </defs>
 <g id="figure_1">
  <g id="patch_1">
   <path d="M 0 345.6 
L 460.8 345.6 
L 460.8 0 
L 0 0 
z
" style="fill:#ffffff;"/>
  </g>
  <g id="axes_1">
   <g id="patch_2">
    <path d="M 155.569901 345.6 
L 305.230099 345.6 
L 305.230099 0 
L 155.569901 0 
z
" style="fill:#ffffff;"/>
   </g>
   <g id="patch_3">
    <path clip-path="url(#pec3a84070e)" d="M 302.352018 172.8 
L 302.257353 172.798017 
L 301.973638 172.78415 
L 301.501712 172.746574 
L 300.842971 172.673579 
L 299.999364 172.553631 
L 298.97338 172.375431 
L 297.768047 172.127963 
L 296.386915 171.80056 
L 294.834048 171.382947 
L 293.114003 170.865301 
L 291.231822 170.238297 
L 289.193006 169.493157 
L 287.003499 168.621697 
L 284.669666 167.616367 
L 282.198271 166.470295 
L 279.59645 165.177323 
L 276.871691 163.732044 
L 274.031799 162.129829 
L 271.084875 160.366862 
L 268.039284 158.440159 
L 264.903627 156.347593 
L 261.686707 154.087911 
L 258.397503 151.660751 
L 255.045134 149.066645 
L 251.638827 146.307036 
L 248.187887 143.384273 
L 244.701663 140.301614 
L 241.189515 137.063221 
L 237.660781 133.67415 
L 234.124748 130.140339 
L 230.590614 126.468594 
L 227.067463 122.666566 
L 223.564227 118.742731 
L 220.089663 114.706361 
L 216.652316 110.56749 
L 213.260498 106.33689 
L 209.922253 102.026023 
L 206.645337 97.647009 
L 203.437187 93.212577 
L 200.304903 88.736025 
L 197.255219 84.231166 
L 194.294488 79.712283 
L 191.428657 75.19407 
L 188.663256 70.691583 
L 186.003374 66.220179 
L 183.45365 61.79546 
L 181.01826 57.433212 
L 178.700903 53.149346 
L 176.504799 48.959835 
L 174.432672 44.880654 
L 172.486755 40.927713 
L 170.668781 37.116801 
L 168.979986 33.463517 
L 167.421104 29.983212 
L 165.992379 26.690927 
L 164.693561 23.601331 
L 163.523917 20.728662 
L 162.48224 18.086668 
L 161.566859 15.688553 
L 160.775651 13.54692 
L 160.106054 11.673717 
L 159.555085 10.080191 
L 159.119355 8.776833 
L 158.795089 7.77334 
L 158.578148 7.078565 
L 158.464047 6.700484 
L 158.447982 6.646154 
L 158.52485 6.921681 
L 158.689276 7.532194 
L 158.935643 8.481811 
L 159.258112 9.773625 
L 159.650654 11.409678 
L 160.107081 13.39095 
L 160.621069 15.717346 
L 161.18619 18.38769 
L 161.795944 21.399718 
L 162.443786 24.750087 
L 163.123157 28.434369 
L 163.827514 32.447068 
L 164.550359 36.781631 
L 165.285268 41.430462 
L 166.025922 46.384944 
L 166.766133 51.635466 
L 167.499873 57.171447 
L 168.221299 62.98137 
L 168.924781 69.052816 
L 169.604927 75.372506 
L 170.256606 81.926339 
L 170.874969 88.699437 
L 171.455476 95.676196 
L 171.993907 102.840333 
L 172.48639 110.174945 
L 172.929412 117.662555 
L 173.319837 125.285179 
L 173.654917 133.02438 
L 173.932308 140.861331 
L 174.150076 148.776878 
L 174.306711 156.751605 
L 174.401127 164.765895 
L 174.432672 172.8 
L 174.401127 180.834105 
L 174.306711 188.848395 
L 174.150076 196.823122 
L 173.932308 204.738669 
L 173.654917 212.57562 
L 173.319837 220.314821 
L 172.929412 227.937445 
L 172.48639 235.425055 
L 171.993907 242.759667 
L 171.455476 249.923804 
L 170.874969 256.900563 
L 170.256606 263.673661 
L 169.604927 270.227494 
L 168.924781 276.547184 
L 168.221299 282.61863 
L 167.499873 288.428553 
L 166.766133 293.964534 
L 166.025922 299.215056 
L 165.285268 304.169538 
L 164.550359 308.818369 
L 163.827514 313.152932 
L 163.123157 317.165631 
L 162.443786 320.849913 
L 161.795944 324.200282 
L 161.18619 327.21231 
L 160.621069 329.882654 
L 160.107081 332.20905 
L 159.650654 334.190322 
L 159.258112 335.826375 
L 158.935643 337.118189 
L 158.689276 338.067806 
L 158.52485 338.678319 
L 158.447982 338.953846 
L 158.464047 338.899516 
L 158.578148 338.521435 
L 158.795089 337.82666 
L 159.119355 336.823167 
L 159.555085 335.519809 
L 160.106054 333.926283 
L 160.775651 332.05308 
L 161.566859 329.911447 
L 162.48224 327.513332 
L 163.523917 324.871338 
L 164.693561 321.998669 
L 165.992379 318.909073 
L 167.421104 315.616788 
L 168.979986 312.136483 
L 170.668781 308.483199 
L 172.486755 304.672287 
L 174.432672 300.719346 
L 176.504799 296.640165 
L 178.700903 292.450654 
L 181.01826 288.166788 
L 183.45365 283.80454 
L 186.003374 279.379821 
L 188.663256 274.908417 
L 191.428657 270.40593 
L 194.294488 265.887717 
L 197.255219 261.368834 
L 200.304903 256.863975 
L 203.437187 252.387423 
L 206.645337 247.952991 
L 209.922253 243.573977 
L 213.260498 239.26311 
L 216.652316 235.03251 
L 220.089663 230.893639 
L 223.564227 226.857269 
L 227.067463 222.933434 
L 230.590614 219.131406 
L 234.124748 215.459661 
L 237.660781 211.92585 
L 241.189515 208.536779 
L 244.701663 205.298386 
L 248.187887 202.215727 
L 251.638827 199.292964 
L 255.045134 196.533355 
L 258.397503 193.939249 
L 261.686707 191.512089 
L 264.903627 189.252407 
L 268.039284 187.159841 
L 271.084875 185.233138 
L 274.031799 183.470171 
L 276.871691 181.867956 
L 279.59645 180.422677 
L 282.198271 179.129705 
L 284.669666 177.983633 
L 287.003499 176.978303 
L 289.193006 176.106843 
L 291.231822 175.361703 
L 293.114003 174.734699 
L 294.834048 174.217053 
L 296.386915 173.79944 
L 297.768047 173.472037 
L 298.97338 173.224569 
L 299.999364 173.046369 
L 300.842971 172.926421 
L 301.501712 172.853426 
L 301.973638 172.81585 
L 302.257353 172.801983 
z
" style="fill:#20bf80;"/>
   </g>
   <g id="matplotlib.axis_1">
    <g id="xtick_1">
     <g id="line2d_1">
      <defs>
       <path d="M 0 0 
L 0 3.5 
" id="m7e95303605" style="stroke:#000000;stroke-width:0.8;"/>
      </defs>
      <g>
       <use style="stroke:#000000;stroke-width:0.8;" x="174.432672" xlink:href="#m7e95303605" y="172.8"/>
      </g>
     </g>
     <g id="text_1">
      <!-- −1.0 -->
      <g transform="translate(162.291266 187.398438)scale(0.1 -0.1)">
       <defs>
        <path d="M 10.59375 35.5 
L 73.1875 35.5 
L 73.1875 27.203125 
L 10.59375 27.203125 
z
" id="DejaVuSans-8722"/>
        <path d="M 12.40625 8.296875 
L 28.515625 8.296875 
L 28.515625 63.921875 
L 10.984375 60.40625 
L 10.984375 69.390625 
L 28.421875 72.90625 
L 38.28125 72.90625 
L 38.28125 8.296875 
L 54.390625 8.296875 
L 54.390625 0 
L 12.40625 0 
z
" id="DejaVuSans-49"/>
        <path d="M 10.6875 12.40625 
L 21 12.40625 
L 21 0 
L 10.6875 0 
z
" id="DejaVuSans-46"/>
        <path d="M 31.78125 66.40625 
Q 24.171875 66.40625 20.328125 58.90625 
Q 16.5 51.421875 16.5 36.375 
Q 16.5 21.390625 20.328125 13.890625 
Q 24.171875 6.390625 31.78125 6.390625 
Q 39.453125 6.390625 43.28125 13.890625 
Q 47.125 21.390625 47.125 36.375 
Q 47.125 51.421875 43.28125 58.90625 
Q 39.453125 66.40625 31.78125 66.40625 
z
M 31.78125 74.21875 
Q 44.046875 74.21875 50.515625 64.515625 
Q 56.984375 54.828125 56.984375 36.375 
Q 56.984375 17.96875 50.515625 8.265625 
Q 44.046875 -1.421875 31.78125 -1.421875 
Q 19.53125 -1.421875 13.0625 8.265625 
Q 6.59375 17.96875 6.59375 36.375 
Q 6.59375 54.828125 13.0625 64.515625 
Q 19.53125 74.21875 31.78125 74.21875 
z
" id="DejaVuSans-48"/>
       </defs>
       <use xlink:href="#DejaVuSans-8722"/>
       <use x="83.789062" xlink:href="#DejaVuSans-49"/>
       <use x="147.412109" xlink:href="#DejaVuSans-46"/>
       <use x="179.199219" xlink:href="#DejaVuSans-48"/>
      </g>
     </g>
    </g>
    <g id="xtick_2">
     <g id="line2d_2">
      <g>
       <use style="stroke:#000000;stroke-width:0.8;" x="206.412508" xlink:href="#m7e95303605" y="172.8"/>
      </g>
     </g>
     <g id="text_2">
      <!-- −0.5 -->
      <g transform="translate(194.271102 187.398438)scale(0.1 -0.1)">
       <defs>
        <path d="M 10.796875 72.90625 
L 49.515625 72.90625 
L 49.515625 64.59375 
L 19.828125 64.59375 
L 19.828125 46.734375 
Q 21.96875 47.46875 24.109375 47.828125 
Q 26.265625 48.1875 28.421875 48.1875 
Q 40.625 48.1875 47.75 41.5 
Q 54.890625 34.8125 54.890625 23.390625 
Q 54.890625 11.625 47.5625 5.09375 
Q 40.234375 -1.421875 26.90625 -1.421875 
Q 22.3125 -1.421875 17.546875 -0.640625 
Q 12.796875 0.140625 7.71875 1.703125 
L 7.71875 11.625 
Q 12.109375 9.234375 16.796875 8.0625 
Q 21.484375 6.890625 26.703125 6.890625 
Q 35.15625 6.890625 40.078125 11.328125 
Q 45.015625 15.765625 45.015625 23.390625 
Q 45.015625 31 40.078125 35.4375 
Q 35.15625 39.890625 26.703125 39.890625 
Q 22.75 39.890625 18.8125 39.015625 
Q 14.890625 38.140625 10.796875 36.28125 
z
" id="DejaVuSans-53"/>
       </defs>
       <use xlink:href="#DejaVuSans-8722"/>
       <use x="83.789062" xlink:href="#DejaVuSans-48"/>
       <use x="147.412109" xlink:href="#DejaVuSans-46"/>
       <use x="179.199219" xlink:href="#DejaVuSans-53"/>
      </g>
     </g>
    </g>
    <g id="xtick_3">
     <g id="line2d_3">
      <g>
       <use style="stroke:#000000;stroke-width:0.8;" x="238.392345" xlink:href="#m7e95303605" y="172.8"/>
      </g>
     </g>
    </g>
    <g id="xtick_4">
     <g id="line2d_4">
      <g>
       <use style="stroke:#000000;stroke-width:0.8;" x="270.372181" xlink:href="#m7e95303605" y="172.8"/>
      </g>
     </g>
     <g id="text_3">
      <!-- 0.5 -->
      <g transform="translate(262.420619 187.398438)scale(0.1 -0.1)">
       <use xlink:href="#DejaVuSans-48"/>
       <use x="63.623047" xlink:href="#DejaVuSans-46"/>
       <use x="95.410156" xlink:href="#DejaVuSans-53"/>
      </g>
     </g>
    </g>
    <g id="xtick_5">
     <g id="line2d_5">
      <g>
       <use style="stroke:#000000;stroke-width:0.8;" x="302.352018" xlink:href="#m7e95303605" y="172.8"/>
      </g>
     </g>
     <g id="text_4">
      <!-- 1.0 -->
      <g transform="translate(294.400455 187.398438)scale(0.1 -0.1)">
       <use xlink:href="#DejaVuSans-49"/>
       <use x="63.623047" xlink:href="#DejaVuSans-46"/>
       <use x="95.410156" xlink:href="#DejaVuSans-48"/>
      </g>
     </g>
    </g>
    <g id="xtick_6">
     <g id="line2d_6">
      <defs>
       <path d="M 0 0 
L 0 2 
" id="m1dd95f6b3c" style="stroke:#000000;stroke-width:0.6;"/>
      </defs>
      <g>
       <use style="stroke:#000000;stroke-width:0.6;" x="161.640737" xlink:href="#m1dd95f6b3c" y="172.8"/>
      </g>
     </g>
    </g>
    <g id="xtick_7">
     <g id="line2d_7">
      <g>
       <use style="stroke:#000000;stroke-width:0.6;" x="168.036704" xlink:href="#m1dd95f6b3c" y="172.8"/>
      </g>
     </g>
    </g>
    <g id="xtick_8">
     <g id="line2d_8">
      <g>
       <use style="stroke:#000000;stroke-width:0.6;" x="180.828639" xlink:href="#m1dd95f6b3c" y="172.8"/>
      </g>
     </g>
    </g>
    <g id="xtick_9">
     <g id="line2d_9">
      <g>
       <use style="stroke:#000000;stroke-width:0.6;" x="187.224606" xlink:href="#m1dd95f6b3c" y="172.8"/>
      </g>
     </g>
    </g>
    <g id="xtick_10">
     <g id="line2d_10">
      <g>
       <use style="stroke:#000000;stroke-width:0.6;" x="193.620574" xlink:href="#m1dd95f6b3c" y="172.8"/>
      </g>
     </g>
    </g>
    <g id="xtick_11">
     <g id="line2d_11">
      <g>
       <use style="stroke:#000000;stroke-width:0.6;" x="200.016541" xlink:href="#m1dd95f6b3c" y="172.8"/>
      </g>
     </g>
    </g>
    <g id="xtick_12">
     <g id="line2d_12">
      <g>
       <use style="stroke:#000000;stroke-width:0.6;" x="212.808476" xlink:href="#m1dd95f6b3c" y="172.8"/>
      </g>
     </g>
    </g>
    <g id="xtick_13">
     <g id="line2d_13">
      <g>
       <use style="stroke:#000000;stroke-width:0.6;" x="219.204443" xlink:href="#m1dd95f6b3c" y="172.8"/>
      </g>
     </g>
    </g>
    <g id="xtick_14">
     <g id="line2d_14">
      <g>
       <use style="stroke:#000000;stroke-width:0.6;" x="225.60041" xlink:href="#m1dd95f6b3c" y="172.8"/>
      </g>
     </g>
    </g>
    <g id="xtick_15">
     <g id="line2d_15">
      <g>
       <use style="stroke:#000000;stroke-width:0.6;" x="231.996378" xlink:href="#m1dd95f6b3c" y="172.8"/>
      </g>
     </g>
    </g>
    <g id="xtick_16">
     <g id="line2d_16">
      <g>
       <use style="stroke:#000000;stroke-width:0.6;" x="244.788312" xlink:href="#m1dd95f6b3c" y="172.8"/>
      </g>
     </g>
    </g>
    <g id="xtick_17">
     <g id="line2d_17">
      <g>
       <use style="stroke:#000000;stroke-width:0.6;" x="251.184279" xlink:href="#m1dd95f6b3c" y="172.8"/>
      </g>
     </g>
    </g>
    <g id="xtick_18">
     <g id="line2d_18">
      <g>
       <use style="stroke:#000000;stroke-width:0.6;" x="257.580247" xlink:href="#m1dd95f6b3c" y="172.8"/>
      </g>
     </g>
    </g>
    <g id="xtick_19">
     <g id="line2d_19">
      <g>
       <use style="stroke:#000000;stroke-width:0.6;" x="263.976214" xlink:href="#m1dd95f6b3c" y="172.8"/>
      </g>
     </g>
    </g>
    <g id="xtick_20">
     <g id="line2d_20">
      <g>
       <use style="stroke:#000000;stroke-width:0.6;" x="276.768149" xlink:href="#m1dd95f6b3c" y="172.8"/>
      </g>
     </g>
    </g>
    <g id="xtick_21">
     <g id="line2d_21">
      <g>
       <use style="stroke:#000000;stroke-width:0.6;" x="283.164116" xlink:href="#m1dd95f6b3c" y="172.8"/>
      </g>
     </g>
    </g>
    <g id="xtick_22">
     <g id="line2d_22">
      <g>
       <use style="stroke:#000000;stroke-width:0.6;" x="289.560083" xlink:href="#m1dd95f6b3c" y="172.8"/>
      </g>
     </g>
    </g>
    <g id="xtick_23">
     <g id="line2d_23">
      <g>
       <use style="stroke:#000000;stroke-width:0.6;" x="295.956051" xlink:href="#m1dd95f6b3c" y="172.8"/>
      </g>
     </g>
    </g>
   </g>
   <g id="matplotlib.axis_2">
    <g id="ytick_1">
     <g id="line2d_24">
      <defs>
       <path d="M 0 0 
L -3.5 0 
" id="mc69a87900d" style="stroke:#000000;stroke-width:0.8;"/>
      </defs>
      <g>
       <use style="stroke:#000000;stroke-width:0.8;" x="238.392345" xlink:href="#mc69a87900d" y="300.719346"/>
      </g>
     </g>
     <g id="text_5">
      <!-- −2 -->
      <g transform="translate(216.650157 304.518565)scale(0.1 -0.1)">
       <defs>
        <path d="M 19.1875 8.296875 
L 53.609375 8.296875 
L 53.609375 0 
L 7.328125 0 
L 7.328125 8.296875 
Q 12.9375 14.109375 22.625 23.890625 
Q 32.328125 33.6875 34.8125 36.53125 
Q 39.546875 41.84375 41.421875 45.53125 
Q 43.3125 49.21875 43.3125 52.78125 
Q 43.3125 58.59375 39.234375 62.25 
Q 35.15625 65.921875 28.609375 65.921875 
Q 23.96875 65.921875 18.8125 64.3125 
Q 13.671875 62.703125 7.8125 59.421875 
L 7.8125 69.390625 
Q 13.765625 71.78125 18.9375 73 
Q 24.125 74.21875 28.421875 74.21875 
Q 39.75 74.21875 46.484375 68.546875 
Q 53.21875 62.890625 53.21875 53.421875 
Q 53.21875 48.921875 51.53125 44.890625 
Q 49.859375 40.875 45.40625 35.40625 
Q 44.1875 33.984375 37.640625 27.21875 
Q 31.109375 20.453125 19.1875 8.296875 
z
" id="DejaVuSans-50"/>
       </defs>
       <use xlink:href="#DejaVuSans-8722"/>
       <use x="83.789062" xlink:href="#DejaVuSans-50"/>
      </g>
     </g>
    </g>
    <g id="ytick_2">
     <g id="line2d_25">
      <g>
       <use style="stroke:#000000;stroke-width:0.8;" x="238.392345" xlink:href="#mc69a87900d" y="236.759673"/>
      </g>
     </g>
     <g id="text_6">
      <!-- −1 -->
      <g transform="translate(216.650157 240.558892)scale(0.1 -0.1)">
       <use xlink:href="#DejaVuSans-8722"/>
       <use x="83.789062" xlink:href="#DejaVuSans-49"/>
      </g>
     </g>
    </g>
    <g id="ytick_3">
     <g id="line2d_26">
      <g>
       <use style="stroke:#000000;stroke-width:0.8;" x="238.392345" xlink:href="#mc69a87900d" y="172.8"/>
      </g>
     </g>
    </g>
    <g id="ytick_4">
     <g id="line2d_27">
      <g>
       <use style="stroke:#000000;stroke-width:0.8;" x="238.392345" xlink:href="#mc69a87900d" y="108.840327"/>
      </g>
     </g>
     <g id="text_7">
      <!-- 1 -->
      <g transform="translate(225.029845 112.639546)scale(0.1 -0.1)">
       <use xlink:href="#DejaVuSans-49"/>
      </g>
     </g>
    </g>
    <g id="ytick_5">
     <g id="line2d_28">
      <g>
       <use style="stroke:#000000;stroke-width:0.8;" x="238.392345" xlink:href="#mc69a87900d" y="44.880654"/>
      </g>
     </g>
     <g id="text_8">
      <!-- 2 -->
      <g transform="translate(225.029845 48.679873)scale(0.1 -0.1)">
       <use xlink:href="#DejaVuSans-50"/>
      </g>
     </g>
    </g>
    <g id="ytick_6">
     <g id="line2d_29">
      <defs>
       <path d="M 0 0 
L -2 0 
" id="mb0899866c6" style="stroke:#000000;stroke-width:0.6;"/>
      </defs>
      <g>
       <use style="stroke:#000000;stroke-width:0.6;" x="238.392345" xlink:href="#mb0899866c6" y="339.09515"/>
      </g>
     </g>
    </g>
    <g id="ytick_7">
     <g id="line2d_30">
      <g>
       <use style="stroke:#000000;stroke-width:0.6;" x="238.392345" xlink:href="#mb0899866c6" y="326.303215"/>
      </g>
     </g>
    </g>
    <g id="ytick_8">
     <g id="line2d_31">
      <g>
       <use style="stroke:#000000;stroke-width:0.6;" x="238.392345" xlink:href="#mb0899866c6" y="313.511281"/>
      </g>
     </g>
    </g>
    <g id="ytick_9">
     <g id="line2d_32">
      <g>
       <use style="stroke:#000000;stroke-width:0.6;" x="238.392345" xlink:href="#mb0899866c6" y="287.927412"/>
      </g>
     </g>
    </g>
    <g id="ytick_10">
     <g id="line2d_33">
      <g>
       <use style="stroke:#000000;stroke-width:0.6;" x="238.392345" xlink:href="#mb0899866c6" y="275.135477"/>
      </g>
     </g>
    </g>
    <g id="ytick_11">
     <g id="line2d_34">
      <g>
       <use style="stroke:#000000;stroke-width:0.6;" x="238.392345" xlink:href="#mb0899866c6" y="262.343542"/>
      </g>
     </g>
    </g>
    <g id="ytick_12">
     <g id="line2d_35">
      <g>
       <use style="stroke:#000000;stroke-width:0.6;" x="238.392345" xlink:href="#mb0899866c6" y="249.551608"/>
      </g>
     </g>
    </g>
    <g id="ytick_13">
     <g id="line2d_36">
      <g>
       <use style="stroke:#000000;stroke-width:0.6;" x="238.392345" xlink:href="#mb0899866c6" y="223.967738"/>
      </g>
     </g>
    </g>
    <g id="ytick_14">
     <g id="line2d_37">
      <g>
       <use style="stroke:#000000;stroke-width:0.6;" x="238.392345" xlink:href="#mb0899866c6" y="211.175804"/>
      </g>
     </g>
    </g>
    <g id="ytick_15">
     <g id="line2d_38">
      <g>
       <use style="stroke:#000000;stroke-width:0.6;" x="238.392345" xlink:href="#mb0899866c6" y="198.383869"/>
      </g>
     </g>
    </g>
    <g id="ytick_16">
     <g id="line2d_39">
      <g>
       <use style="stroke:#000000;stroke-width:0.6;" x="238.392345" xlink:href="#mb0899866c6" y="185.591935"/>
      </g>
     </g>
    </g>
    <g id="ytick_17">
     <g id="line2d_40">
      <g>
       <use style="stroke:#000000;stroke-width:0.6;" x="238.392345" xlink:href="#mb0899866c6" y="160.008065"/>
      </g>
     </g>
    </g>
    <g id="ytick_18">
     <g id="line2d_41">
      <g>
       <use style="stroke:#000000;stroke-width:0.6;" x="238.392345" xlink:href="#mb0899866c6" y="147.216131"/>
      </g>
     </g>
    </g>
    <g id="ytick_19">
     <g id="line2d_42">
      <g>
       <use style="stroke:#000000;stroke-width:0.6;" x="238.392345" xlink:href="#mb0899866c6" y="134.424196"/>
      </g>
     </g>
    </g>
    <g id="ytick_20">
     <g id="line2d_43">
      <g>
       <use style="stroke:#000000;stroke-width:0.6;" x="238.392345" xlink:href="#mb0899866c6" y="121.632262"/>
      </g>
     </g>
    </g>
    <g id="ytick_21">
     <g id="line2d_44">
      <g>
       <use style="stroke:#000000;stroke-width:0.6;" x="238.392345" xlink:href="#mb0899866c6" y="96.048392"/>
      </g>
     </g>
    </g>
    <g id="ytick_22">
     <g id="line2d_45">
      <g>
       <use style="stroke:#000000;stroke-width:0.6;" x="238.392345" xlink:href="#mb0899866c6" y="83.256458"/>
      </g>
     </g>
    </g>
    <g id="ytick_23">
     <g id="line2d_46">
      <g>
       <use style="stroke:#000000;stroke-width:0.6;" x="238.392345" xlink:href="#mb0899866c6" y="70.464523"/>
      </g>
     </g>
    </g>
    <g id="ytick_24">
     <g id="line2d_47">
      <g>
       <use style="stroke:#000000;stroke-width:0.6;" x="238.392345" xlink:href="#mb0899866c6" y="57.672588"/>
      </g>
     </g>
    </g>
    <g id="ytick_25">
     <g id="line2d_48">
      <g>
       <use style="stroke:#000000;stroke-width:0.6;" x="238.392345" xlink:href="#mb0899866c6" y="32.088719"/>
      </g>
     </g>
    </g>
    <g id="ytick_26">
     <g id="line2d_49">
      <g>
       <use style="stroke:#000000;stroke-width:0.6;" x="238.392345" xlink:href="#mb0899866c6" y="19.296785"/>
      </g>
     </g>
    </g>
    <g id="ytick_27">
     <g id="line2d_50">
      <g>
       <use style="stroke:#000000;stroke-width:0.6;" x="238.392345" xlink:href="#mb0899866c6" y="6.50485"/>
      </g>
     </g>
    </g>
   </g>
   <g id="patch_4">
    <path d="M 238.392345 345.6 
L 238.392345 0 
" style="fill:none;stroke:#000000;stroke-linecap:square;stroke-linejoin:miter;stroke-width:0.8;"/>
   </g>
   <g id="patch_5">
    <path d="M 155.569901 172.8 
L 305.230099 172.8 
" style="fill:none;stroke:#000000;stroke-linecap:square;stroke-linejoin:miter;stroke-width:0.8;"/>
   </g>
  </g>
 </g>
 <defs>
  <clipPath id="pec3a84070e">
   <rect height="345.6" width="149.660197" x="155.569901" y="0"/>
  </clipPath>
 </defs>
</svg>
