<?xml version="1.0" encoding="utf-8" standalone="no"?>
<!DOCTYPE svg PUBLIC "-//W3C//DTD SVG 1.1//EN"
  "http://www.w3.org/Graphics/SVG/1.1/DTD/svg11.dtd">
<!-- Created with matplotlib (https://matplotlib.org/) -->
<svg height="345.6pt" version="1.1" viewBox="0 0 460.8 345.6" width="460.8pt" xmlns="http://www.w3.org/2000/svg" xmlns:xlink="http://www.w3.org/1999/xlink">
 <metadata>
  <rdf:RDF xmlns:cc="http://creativecommons.org/ns#" xmlns:dc="http://purl.org/dc/elements/1.1/" xmlns:rdf="http://www.w3.org/1999/02/22-rdf-syntax-ns#">
   <cc:Work>
    <dc:type rdf:resource="http://purl.org/dc/dcmitype/StillImage"/>
    <dc:date>2020-10-25T12:19:28.121905</dc:date>
    <dc:format>image/svg+xml</dc:format>
    <dc:creator>
     <cc:Agent>
      <dc:title>Matplotlib v3.3.1, https://matplotlib.org/</dc:title>
     </cc:Agent>
    </dc:creator>
   </cc:Work>
  </rdf:RDF>
 </metadata>
 <defs>
  <style type="text/css">*{stroke-linecap:butt;stroke-linejoin:round;}</style>
 </defs>
 <g id="figure_1">
  <g id="patch_1">
   <path d="M 0 345.6 
L 460.8 345.6 
L 460.8 0 
L 0 0 
z
" style="fill:#ffffff;"/>
  </g>
  <g id="axes_1">
   <g id="patch_2">
    <path d="M 74.965896 345.6 
L 385.834104 345.6 
L 385.834104 0 
L 74.965896 0 
z
" style="fill:#ffffff;"/>
   </g>
   <g id="patch_3">
    <path clip-path="url(#paa936cc652)" d="M 379.855869 172.8 
L 379.610068 176.709317 
L 378.873512 180.595486 
L 377.648745 184.435457 
L 375.939996 188.20638 
L 373.753159 191.885697 
L 371.095778 195.451244 
L 367.977014 198.881345 
L 364.407607 202.154901 
L 360.399844 205.251486 
L 355.967503 208.151432 
L 351.125806 210.835914 
L 345.891362 213.287034 
L 340.282098 215.487896 
L 334.317197 217.422681 
L 328.017022 219.076716 
L 321.403042 220.43654 
L 314.497745 221.489964 
L 307.324558 222.226122 
L 299.907756 222.635528 
L 292.272372 222.710112 
L 284.444098 222.443262 
L 276.449194 221.829859 
L 268.314385 220.866297 
L 260.066761 219.550507 
L 251.733676 217.881973 
L 243.342642 215.861734 
L 234.921231 213.492391 
L 226.496969 210.778098 
L 218.097231 207.724553 
L 209.74914 204.338979 
L 201.47947 200.630102 
L 193.31454 196.60812 
L 185.28012 192.284667 
L 177.401335 187.672772 
L 169.702572 182.786809 
L 162.207393 177.642449 
L 154.938442 172.256598 
L 147.917372 166.647334 
L 141.164757 160.833839 
L 134.700025 154.836328 
L 128.541384 148.67597 
L 122.70576 142.374805 
L 117.208738 135.955665 
L 112.064502 129.44208 
L 107.285796 122.858191 
L 102.883872 116.228655 
L 98.86846 109.578547 
L 95.247731 102.933264 
L 92.028279 96.318428 
L 89.215096 89.759779 
L 86.811566 83.283081 
L 84.819454 76.914016 
L 83.23891 70.678082 
L 82.068474 64.600497 
L 81.305091 58.706093 
L 80.944131 53.01922 
L 80.979412 47.563649 
L 81.403234 42.362476 
L 82.206418 37.438031 
L 83.378346 32.811785 
L 84.907013 28.504267 
L 86.779084 24.534977 
L 88.979945 20.922309 
L 91.49378 17.683475 
L 94.30363 14.834434 
L 97.391472 12.389828 
L 100.738296 10.362917 
L 104.324189 8.765525 
L 108.128414 7.607991 
L 112.129506 6.899121 
L 116.305356 6.646154 
L 120.633311 6.854722 
L 125.090265 7.528831 
L 129.652756 8.670834 
L 134.297069 10.281421 
L 138.99933 12.359607 
L 143.735608 14.902737 
L 148.482015 17.906483 
L 153.214805 21.364863 
L 157.910472 25.270254 
L 162.545849 29.613416 
L 167.098203 34.383527 
L 171.545329 39.568213 
L 175.865641 45.153597 
L 180.038265 51.124341 
L 184.04312 57.463706 
L 187.861004 64.153607 
L 191.473672 71.174677 
L 194.863913 78.506342 
L 198.015617 86.126889 
L 200.913844 94.013548 
L 203.544888 102.142573 
L 205.896327 110.489329 
L 207.957078 119.028384 
L 209.717443 127.733598 
L 211.169148 136.578222 
L 212.305375 145.534993 
L 213.120792 154.576237 
L 213.611577 163.67397 
L 213.775428 172.8 
L 213.611577 181.92603 
L 213.120792 191.023763 
L 212.305375 200.065007 
L 211.169148 209.021778 
L 209.717443 217.866402 
L 207.957078 226.571616 
L 205.896327 235.110671 
L 203.544888 243.457427 
L 200.913844 251.586452 
L 198.015617 259.473111 
L 194.863913 267.093658 
L 191.473672 274.425323 
L 187.861004 281.446393 
L 184.04312 288.136294 
L 180.038265 294.475659 
L 175.865641 300.446403 
L 171.545329 306.031787 
L 167.098203 311.216473 
L 162.545849 315.986584 
L 157.910472 320.329746 
L 153.214805 324.235137 
L 148.482015 327.693517 
L 143.735608 330.697263 
L 138.99933 333.240393 
L 134.297069 335.318579 
L 129.652756 336.929166 
L 125.090265 338.071169 
L 120.633311 338.745278 
L 116.305356 338.953846 
L 112.129506 338.700879 
L 108.128414 337.992009 
L 104.324189 336.834475 
L 100.738296 335.237083 
L 97.391472 333.210172 
L 94.30363 330.765566 
L 91.49378 327.916525 
L 88.979945 324.677691 
L 86.779084 321.065023 
L 84.907013 317.095733 
L 83.378346 312.788215 
L 82.206418 308.161969 
L 81.403234 303.237524 
L 80.979412 298.036351 
L 80.944131 292.58078 
L 81.305091 286.893907 
L 82.068474 280.999503 
L 83.23891 274.921918 
L 84.819454 268.685984 
L 86.811566 262.316919 
L 89.215096 255.840221 
L 92.028279 249.281572 
L 95.247731 242.666736 
L 98.86846 236.021453 
L 102.883872 229.371345 
L 107.285796 222.741809 
L 112.064502 216.15792 
L 117.208738 209.644335 
L 122.70576 203.225195 
L 128.541384 196.92403 
L 134.700025 190.763672 
L 141.164757 184.766161 
L 147.917372 178.952666 
L 154.938442 173.343402 
L 162.207393 167.957551 
L 169.702572 162.813191 
L 177.401335 157.927228 
L 185.28012 153.315333 
L 193.31454 148.99188 
L 201.47947 144.969898 
L 209.74914 141.261021 
L 218.097231 137.875447 
L 226.496969 134.821902 
L 234.921231 132.107609 
L 243.342642 129.738266 
L 251.733676 127.718027 
L 260.066761 126.049493 
L 268.314385 124.733703 
L 276.449194 123.770141 
L 284.444098 123.156738 
L 292.272372 122.889888 
L 299.907756 122.964472 
L 307.324558 123.373878 
L 314.497745 124.110036 
L 321.403042 125.16346 
L 328.017022 126.523284 
L 334.317197 128.177319 
L 340.282098 130.112104 
L 345.891362 132.312966 
L 351.125806 134.764086 
L 355.967503 137.448568 
L 360.399844 140.348514 
L 364.407607 143.445099 
L 367.977014 146.718655 
L 371.095778 150.148756 
L 373.753159 153.714303 
L 375.939996 157.39362 
L 377.648745 161.164543 
L 378.873512 165.004514 
L 379.610068 168.890683 
z
" style="fill:#2040bf;"/>
   </g>
   <g id="matplotlib.axis_1">
    <g id="xtick_1">
     <g id="line2d_1">
      <defs>
       <path d="M 0 0 
L 0 3.5 
" id="maead3f68db" style="stroke:#000000;stroke-width:0.8;"/>
      </defs>
      <g>
       <use style="stroke:#000000;stroke-width:0.8;" x="109.975152" xlink:href="#maead3f68db" y="172.8"/>
      </g>
     </g>
     <g id="text_1">
      <!-- −4 -->
      <g transform="translate(102.604058 187.398437)scale(0.1 -0.1)">
       <defs>
        <path d="M 10.59375 35.5 
L 73.1875 35.5 
L 73.1875 27.203125 
L 10.59375 27.203125 
z
" id="DejaVuSans-8722"/>
        <path d="M 37.796875 64.3125 
L 12.890625 25.390625 
L 37.796875 25.390625 
z
M 35.203125 72.90625 
L 47.609375 72.90625 
L 47.609375 25.390625 
L 58.015625 25.390625 
L 58.015625 17.1875 
L 47.609375 17.1875 
L 47.609375 0 
L 37.796875 0 
L 37.796875 17.1875 
L 4.890625 17.1875 
L 4.890625 26.703125 
z
" id="DejaVuSans-52"/>
       </defs>
       <use xlink:href="#DejaVuSans-8722"/>
       <use x="83.789062" xlink:href="#DejaVuSans-52"/>
      </g>
     </g>
    </g>
    <g id="xtick_2">
     <g id="line2d_2">
      <g>
       <use style="stroke:#000000;stroke-width:0.8;" x="151.495262" xlink:href="#maead3f68db" y="172.8"/>
      </g>
     </g>
     <g id="text_2">
      <!-- −2 -->
      <g transform="translate(144.124168 187.398437)scale(0.1 -0.1)">
       <defs>
        <path d="M 19.1875 8.296875 
L 53.609375 8.296875 
L 53.609375 0 
L 7.328125 0 
L 7.328125 8.296875 
Q 12.9375 14.109375 22.625 23.890625 
Q 32.328125 33.6875 34.8125 36.53125 
Q 39.546875 41.84375 41.421875 45.53125 
Q 43.3125 49.21875 43.3125 52.78125 
Q 43.3125 58.59375 39.234375 62.25 
Q 35.15625 65.921875 28.609375 65.921875 
Q 23.96875 65.921875 18.8125 64.3125 
Q 13.671875 62.703125 7.8125 59.421875 
L 7.8125 69.390625 
Q 13.765625 71.78125 18.9375 73 
Q 24.125 74.21875 28.421875 74.21875 
Q 39.75 74.21875 46.484375 68.546875 
Q 53.21875 62.890625 53.21875 53.421875 
Q 53.21875 48.921875 51.53125 44.890625 
Q 49.859375 40.875 45.40625 35.40625 
Q 44.1875 33.984375 37.640625 27.21875 
Q 31.109375 20.453125 19.1875 8.296875 
z
" id="DejaVuSans-50"/>
       </defs>
       <use xlink:href="#DejaVuSans-8722"/>
       <use x="83.789062" xlink:href="#DejaVuSans-50"/>
      </g>
     </g>
    </g>
    <g id="xtick_3">
     <g id="line2d_3">
      <g>
       <use style="stroke:#000000;stroke-width:0.8;" x="193.015372" xlink:href="#maead3f68db" y="172.8"/>
      </g>
     </g>
    </g>
    <g id="xtick_4">
     <g id="line2d_4">
      <g>
       <use style="stroke:#000000;stroke-width:0.8;" x="234.535483" xlink:href="#maead3f68db" y="172.8"/>
      </g>
     </g>
     <g id="text_3">
      <!-- 2 -->
      <g transform="translate(231.354233 187.398437)scale(0.1 -0.1)">
       <use xlink:href="#DejaVuSans-50"/>
      </g>
     </g>
    </g>
    <g id="xtick_5">
     <g id="line2d_5">
      <g>
       <use style="stroke:#000000;stroke-width:0.8;" x="276.055593" xlink:href="#maead3f68db" y="172.8"/>
      </g>
     </g>
     <g id="text_4">
      <!-- 4 -->
      <g transform="translate(272.874343 187.398437)scale(0.1 -0.1)">
       <use xlink:href="#DejaVuSans-52"/>
      </g>
     </g>
    </g>
    <g id="xtick_6">
     <g id="line2d_6">
      <g>
       <use style="stroke:#000000;stroke-width:0.8;" x="317.575704" xlink:href="#maead3f68db" y="172.8"/>
      </g>
     </g>
     <g id="text_5">
      <!-- 6 -->
      <g transform="translate(314.394454 187.398437)scale(0.1 -0.1)">
       <defs>
        <path d="M 33.015625 40.375 
Q 26.375 40.375 22.484375 35.828125 
Q 18.609375 31.296875 18.609375 23.390625 
Q 18.609375 15.53125 22.484375 10.953125 
Q 26.375 6.390625 33.015625 6.390625 
Q 39.65625 6.390625 43.53125 10.953125 
Q 47.40625 15.53125 47.40625 23.390625 
Q 47.40625 31.296875 43.53125 35.828125 
Q 39.65625 40.375 33.015625 40.375 
z
M 52.59375 71.296875 
L 52.59375 62.3125 
Q 48.875 64.0625 45.09375 64.984375 
Q 41.3125 65.921875 37.59375 65.921875 
Q 27.828125 65.921875 22.671875 59.328125 
Q 17.53125 52.734375 16.796875 39.40625 
Q 19.671875 43.65625 24.015625 45.921875 
Q 28.375 48.1875 33.59375 48.1875 
Q 44.578125 48.1875 50.953125 41.515625 
Q 57.328125 34.859375 57.328125 23.390625 
Q 57.328125 12.15625 50.6875 5.359375 
Q 44.046875 -1.421875 33.015625 -1.421875 
Q 20.359375 -1.421875 13.671875 8.265625 
Q 6.984375 17.96875 6.984375 36.375 
Q 6.984375 53.65625 15.1875 63.9375 
Q 23.390625 74.21875 37.203125 74.21875 
Q 40.921875 74.21875 44.703125 73.484375 
Q 48.484375 72.75 52.59375 71.296875 
z
" id="DejaVuSans-54"/>
       </defs>
       <use xlink:href="#DejaVuSans-54"/>
      </g>
     </g>
    </g>
    <g id="xtick_7">
     <g id="line2d_7">
      <g>
       <use style="stroke:#000000;stroke-width:0.8;" x="359.095814" xlink:href="#maead3f68db" y="172.8"/>
      </g>
     </g>
     <g id="text_6">
      <!-- 8 -->
      <g transform="translate(355.914564 187.398437)scale(0.1 -0.1)">
       <defs>
        <path d="M 31.78125 34.625 
Q 24.75 34.625 20.71875 30.859375 
Q 16.703125 27.09375 16.703125 20.515625 
Q 16.703125 13.921875 20.71875 10.15625 
Q 24.75 6.390625 31.78125 6.390625 
Q 38.8125 6.390625 42.859375 10.171875 
Q 46.921875 13.96875 46.921875 20.515625 
Q 46.921875 27.09375 42.890625 30.859375 
Q 38.875 34.625 31.78125 34.625 
z
M 21.921875 38.8125 
Q 15.578125 40.375 12.03125 44.71875 
Q 8.5 49.078125 8.5 55.328125 
Q 8.5 64.0625 14.71875 69.140625 
Q 20.953125 74.21875 31.78125 74.21875 
Q 42.671875 74.21875 48.875 69.140625 
Q 55.078125 64.0625 55.078125 55.328125 
Q 55.078125 49.078125 51.53125 44.71875 
Q 48 40.375 41.703125 38.8125 
Q 48.828125 37.15625 52.796875 32.3125 
Q 56.78125 27.484375 56.78125 20.515625 
Q 56.78125 9.90625 50.3125 4.234375 
Q 43.84375 -1.421875 31.78125 -1.421875 
Q 19.734375 -1.421875 13.25 4.234375 
Q 6.78125 9.90625 6.78125 20.515625 
Q 6.78125 27.484375 10.78125 32.3125 
Q 14.796875 37.15625 21.921875 38.8125 
z
M 18.3125 54.390625 
Q 18.3125 48.734375 21.84375 45.5625 
Q 25.390625 42.390625 31.78125 42.390625 
Q 38.140625 42.390625 41.71875 45.5625 
Q 45.3125 48.734375 45.3125 54.390625 
Q 45.3125 60.0625 41.71875 63.234375 
Q 38.140625 66.40625 31.78125 66.40625 
Q 25.390625 66.40625 21.84375 63.234375 
Q 18.3125 60.0625 18.3125 54.390625 
z
" id="DejaVuSans-56"/>
       </defs>
       <use xlink:href="#DejaVuSans-56"/>
      </g>
     </g>
    </g>
    <g id="xtick_8">
     <g id="line2d_8">
      <defs>
       <path d="M 0 0 
L 0 2 
" id="mb1d1ddc6c9" style="stroke:#000000;stroke-width:0.6;"/>
      </defs>
      <g>
       <use style="stroke:#000000;stroke-width:0.6;" x="78.835069" xlink:href="#mb1d1ddc6c9" y="172.8"/>
      </g>
     </g>
    </g>
    <g id="xtick_9">
     <g id="line2d_9">
      <g>
       <use style="stroke:#000000;stroke-width:0.6;" x="89.215096" xlink:href="#mb1d1ddc6c9" y="172.8"/>
      </g>
     </g>
    </g>
    <g id="xtick_10">
     <g id="line2d_10">
      <g>
       <use style="stroke:#000000;stroke-width:0.6;" x="99.595124" xlink:href="#mb1d1ddc6c9" y="172.8"/>
      </g>
     </g>
    </g>
    <g id="xtick_11">
     <g id="line2d_11">
      <g>
       <use style="stroke:#000000;stroke-width:0.6;" x="120.355179" xlink:href="#mb1d1ddc6c9" y="172.8"/>
      </g>
     </g>
    </g>
    <g id="xtick_12">
     <g id="line2d_12">
      <g>
       <use style="stroke:#000000;stroke-width:0.6;" x="130.735207" xlink:href="#mb1d1ddc6c9" y="172.8"/>
      </g>
     </g>
    </g>
    <g id="xtick_13">
     <g id="line2d_13">
      <g>
       <use style="stroke:#000000;stroke-width:0.6;" x="141.115234" xlink:href="#mb1d1ddc6c9" y="172.8"/>
      </g>
     </g>
    </g>
    <g id="xtick_14">
     <g id="line2d_14">
      <g>
       <use style="stroke:#000000;stroke-width:0.6;" x="161.87529" xlink:href="#mb1d1ddc6c9" y="172.8"/>
      </g>
     </g>
    </g>
    <g id="xtick_15">
     <g id="line2d_15">
      <g>
       <use style="stroke:#000000;stroke-width:0.6;" x="172.255317" xlink:href="#mb1d1ddc6c9" y="172.8"/>
      </g>
     </g>
    </g>
    <g id="xtick_16">
     <g id="line2d_16">
      <g>
       <use style="stroke:#000000;stroke-width:0.6;" x="182.635345" xlink:href="#mb1d1ddc6c9" y="172.8"/>
      </g>
     </g>
    </g>
    <g id="xtick_17">
     <g id="line2d_17">
      <g>
       <use style="stroke:#000000;stroke-width:0.6;" x="203.3954" xlink:href="#mb1d1ddc6c9" y="172.8"/>
      </g>
     </g>
    </g>
    <g id="xtick_18">
     <g id="line2d_18">
      <g>
       <use style="stroke:#000000;stroke-width:0.6;" x="213.775428" xlink:href="#mb1d1ddc6c9" y="172.8"/>
      </g>
     </g>
    </g>
    <g id="xtick_19">
     <g id="line2d_19">
      <g>
       <use style="stroke:#000000;stroke-width:0.6;" x="224.155455" xlink:href="#mb1d1ddc6c9" y="172.8"/>
      </g>
     </g>
    </g>
    <g id="xtick_20">
     <g id="line2d_20">
      <g>
       <use style="stroke:#000000;stroke-width:0.6;" x="244.91551" xlink:href="#mb1d1ddc6c9" y="172.8"/>
      </g>
     </g>
    </g>
    <g id="xtick_21">
     <g id="line2d_21">
      <g>
       <use style="stroke:#000000;stroke-width:0.6;" x="255.295538" xlink:href="#mb1d1ddc6c9" y="172.8"/>
      </g>
     </g>
    </g>
    <g id="xtick_22">
     <g id="line2d_22">
      <g>
       <use style="stroke:#000000;stroke-width:0.6;" x="265.675566" xlink:href="#mb1d1ddc6c9" y="172.8"/>
      </g>
     </g>
    </g>
    <g id="xtick_23">
     <g id="line2d_23">
      <g>
       <use style="stroke:#000000;stroke-width:0.6;" x="286.435621" xlink:href="#mb1d1ddc6c9" y="172.8"/>
      </g>
     </g>
    </g>
    <g id="xtick_24">
     <g id="line2d_24">
      <g>
       <use style="stroke:#000000;stroke-width:0.6;" x="296.815648" xlink:href="#mb1d1ddc6c9" y="172.8"/>
      </g>
     </g>
    </g>
    <g id="xtick_25">
     <g id="line2d_25">
      <g>
       <use style="stroke:#000000;stroke-width:0.6;" x="307.195676" xlink:href="#mb1d1ddc6c9" y="172.8"/>
      </g>
     </g>
    </g>
    <g id="xtick_26">
     <g id="line2d_26">
      <g>
       <use style="stroke:#000000;stroke-width:0.6;" x="327.955731" xlink:href="#mb1d1ddc6c9" y="172.8"/>
      </g>
     </g>
    </g>
    <g id="xtick_27">
     <g id="line2d_27">
      <g>
       <use style="stroke:#000000;stroke-width:0.6;" x="338.335759" xlink:href="#mb1d1ddc6c9" y="172.8"/>
      </g>
     </g>
    </g>
    <g id="xtick_28">
     <g id="line2d_28">
      <g>
       <use style="stroke:#000000;stroke-width:0.6;" x="348.715786" xlink:href="#mb1d1ddc6c9" y="172.8"/>
      </g>
     </g>
    </g>
    <g id="xtick_29">
     <g id="line2d_29">
      <g>
       <use style="stroke:#000000;stroke-width:0.6;" x="369.475842" xlink:href="#mb1d1ddc6c9" y="172.8"/>
      </g>
     </g>
    </g>
    <g id="xtick_30">
     <g id="line2d_30">
      <g>
       <use style="stroke:#000000;stroke-width:0.6;" x="379.855869" xlink:href="#mb1d1ddc6c9" y="172.8"/>
      </g>
     </g>
    </g>
   </g>
   <g id="matplotlib.axis_2">
    <g id="ytick_1">
     <g id="line2d_31">
      <defs>
       <path d="M 0 0 
L -3.5 0 
" id="mac4e41e110" style="stroke:#000000;stroke-width:0.8;"/>
      </defs>
      <g>
       <use style="stroke:#000000;stroke-width:0.8;" x="193.015372" xlink:href="#mac4e41e110" y="338.880442"/>
      </g>
     </g>
     <g id="text_7">
      <!-- −8 -->
      <g transform="translate(171.273185 342.67966)scale(0.1 -0.1)">
       <use xlink:href="#DejaVuSans-8722"/>
       <use x="83.789062" xlink:href="#DejaVuSans-56"/>
      </g>
     </g>
    </g>
    <g id="ytick_2">
     <g id="line2d_32">
      <g>
       <use style="stroke:#000000;stroke-width:0.8;" x="193.015372" xlink:href="#mac4e41e110" y="297.360331"/>
      </g>
     </g>
     <g id="text_8">
      <!-- −6 -->
      <g transform="translate(171.273185 301.15955)scale(0.1 -0.1)">
       <use xlink:href="#DejaVuSans-8722"/>
       <use x="83.789062" xlink:href="#DejaVuSans-54"/>
      </g>
     </g>
    </g>
    <g id="ytick_3">
     <g id="line2d_33">
      <g>
       <use style="stroke:#000000;stroke-width:0.8;" x="193.015372" xlink:href="#mac4e41e110" y="255.840221"/>
      </g>
     </g>
     <g id="text_9">
      <!-- −4 -->
      <g transform="translate(171.273185 259.63944)scale(0.1 -0.1)">
       <use xlink:href="#DejaVuSans-8722"/>
       <use x="83.789062" xlink:href="#DejaVuSans-52"/>
      </g>
     </g>
    </g>
    <g id="ytick_4">
     <g id="line2d_34">
      <g>
       <use style="stroke:#000000;stroke-width:0.8;" x="193.015372" xlink:href="#mac4e41e110" y="214.32011"/>
      </g>
     </g>
     <g id="text_10">
      <!-- −2 -->
      <g transform="translate(171.273185 218.119329)scale(0.1 -0.1)">
       <use xlink:href="#DejaVuSans-8722"/>
       <use x="83.789062" xlink:href="#DejaVuSans-50"/>
      </g>
     </g>
    </g>
    <g id="ytick_5">
     <g id="line2d_35">
      <g>
       <use style="stroke:#000000;stroke-width:0.8;" x="193.015372" xlink:href="#mac4e41e110" y="172.8"/>
      </g>
     </g>
    </g>
    <g id="ytick_6">
     <g id="line2d_36">
      <g>
       <use style="stroke:#000000;stroke-width:0.8;" x="193.015372" xlink:href="#mac4e41e110" y="131.27989"/>
      </g>
     </g>
     <g id="text_11">
      <!-- 2 -->
      <g transform="translate(179.652872 135.079108)scale(0.1 -0.1)">
       <use xlink:href="#DejaVuSans-50"/>
      </g>
     </g>
    </g>
    <g id="ytick_7">
     <g id="line2d_37">
      <g>
       <use style="stroke:#000000;stroke-width:0.8;" x="193.015372" xlink:href="#mac4e41e110" y="89.759779"/>
      </g>
     </g>
     <g id="text_12">
      <!-- 4 -->
      <g transform="translate(179.652872 93.558998)scale(0.1 -0.1)">
       <use xlink:href="#DejaVuSans-52"/>
      </g>
     </g>
    </g>
    <g id="ytick_8">
     <g id="line2d_38">
      <g>
       <use style="stroke:#000000;stroke-width:0.8;" x="193.015372" xlink:href="#mac4e41e110" y="48.239669"/>
      </g>
     </g>
     <g id="text_13">
      <!-- 6 -->
      <g transform="translate(179.652872 52.038888)scale(0.1 -0.1)">
       <use xlink:href="#DejaVuSans-54"/>
      </g>
     </g>
    </g>
    <g id="ytick_9">
     <g id="line2d_39">
      <g>
       <use style="stroke:#000000;stroke-width:0.8;" x="193.015372" xlink:href="#mac4e41e110" y="6.719558"/>
      </g>
     </g>
     <g id="text_14">
      <!-- 8 -->
      <g transform="translate(179.652872 10.518777)scale(0.1 -0.1)">
       <use xlink:href="#DejaVuSans-56"/>
      </g>
     </g>
    </g>
    <g id="ytick_10">
     <g id="line2d_40">
      <defs>
       <path d="M 0 0 
L -2 0 
" id="mf8f9963179" style="stroke:#000000;stroke-width:0.6;"/>
      </defs>
      <g>
       <use style="stroke:#000000;stroke-width:0.6;" x="193.015372" xlink:href="#mf8f9963179" y="328.500414"/>
      </g>
     </g>
    </g>
    <g id="ytick_11">
     <g id="line2d_41">
      <g>
       <use style="stroke:#000000;stroke-width:0.6;" x="193.015372" xlink:href="#mf8f9963179" y="318.120386"/>
      </g>
     </g>
    </g>
    <g id="ytick_12">
     <g id="line2d_42">
      <g>
       <use style="stroke:#000000;stroke-width:0.6;" x="193.015372" xlink:href="#mf8f9963179" y="307.740359"/>
      </g>
     </g>
    </g>
    <g id="ytick_13">
     <g id="line2d_43">
      <g>
       <use style="stroke:#000000;stroke-width:0.6;" x="193.015372" xlink:href="#mf8f9963179" y="286.980304"/>
      </g>
     </g>
    </g>
    <g id="ytick_14">
     <g id="line2d_44">
      <g>
       <use style="stroke:#000000;stroke-width:0.6;" x="193.015372" xlink:href="#mf8f9963179" y="276.600276"/>
      </g>
     </g>
    </g>
    <g id="ytick_15">
     <g id="line2d_45">
      <g>
       <use style="stroke:#000000;stroke-width:0.6;" x="193.015372" xlink:href="#mf8f9963179" y="266.220248"/>
      </g>
     </g>
    </g>
    <g id="ytick_16">
     <g id="line2d_46">
      <g>
       <use style="stroke:#000000;stroke-width:0.6;" x="193.015372" xlink:href="#mf8f9963179" y="245.460193"/>
      </g>
     </g>
    </g>
    <g id="ytick_17">
     <g id="line2d_47">
      <g>
       <use style="stroke:#000000;stroke-width:0.6;" x="193.015372" xlink:href="#mf8f9963179" y="235.080166"/>
      </g>
     </g>
    </g>
    <g id="ytick_18">
     <g id="line2d_48">
      <g>
       <use style="stroke:#000000;stroke-width:0.6;" x="193.015372" xlink:href="#mf8f9963179" y="224.700138"/>
      </g>
     </g>
    </g>
    <g id="ytick_19">
     <g id="line2d_49">
      <g>
       <use style="stroke:#000000;stroke-width:0.6;" x="193.015372" xlink:href="#mf8f9963179" y="203.940083"/>
      </g>
     </g>
    </g>
    <g id="ytick_20">
     <g id="line2d_50">
      <g>
       <use style="stroke:#000000;stroke-width:0.6;" x="193.015372" xlink:href="#mf8f9963179" y="193.560055"/>
      </g>
     </g>
    </g>
    <g id="ytick_21">
     <g id="line2d_51">
      <g>
       <use style="stroke:#000000;stroke-width:0.6;" x="193.015372" xlink:href="#mf8f9963179" y="183.180028"/>
      </g>
     </g>
    </g>
    <g id="ytick_22">
     <g id="line2d_52">
      <g>
       <use style="stroke:#000000;stroke-width:0.6;" x="193.015372" xlink:href="#mf8f9963179" y="162.419972"/>
      </g>
     </g>
    </g>
    <g id="ytick_23">
     <g id="line2d_53">
      <g>
       <use style="stroke:#000000;stroke-width:0.6;" x="193.015372" xlink:href="#mf8f9963179" y="152.039945"/>
      </g>
     </g>
    </g>
    <g id="ytick_24">
     <g id="line2d_54">
      <g>
       <use style="stroke:#000000;stroke-width:0.6;" x="193.015372" xlink:href="#mf8f9963179" y="141.659917"/>
      </g>
     </g>
    </g>
    <g id="ytick_25">
     <g id="line2d_55">
      <g>
       <use style="stroke:#000000;stroke-width:0.6;" x="193.015372" xlink:href="#mf8f9963179" y="120.899862"/>
      </g>
     </g>
    </g>
    <g id="ytick_26">
     <g id="line2d_56">
      <g>
       <use style="stroke:#000000;stroke-width:0.6;" x="193.015372" xlink:href="#mf8f9963179" y="110.519834"/>
      </g>
     </g>
    </g>
    <g id="ytick_27">
     <g id="line2d_57">
      <g>
       <use style="stroke:#000000;stroke-width:0.6;" x="193.015372" xlink:href="#mf8f9963179" y="100.139807"/>
      </g>
     </g>
    </g>
    <g id="ytick_28">
     <g id="line2d_58">
      <g>
       <use style="stroke:#000000;stroke-width:0.6;" x="193.015372" xlink:href="#mf8f9963179" y="79.379752"/>
      </g>
     </g>
    </g>
    <g id="ytick_29">
     <g id="line2d_59">
      <g>
       <use style="stroke:#000000;stroke-width:0.6;" x="193.015372" xlink:href="#mf8f9963179" y="68.999724"/>
      </g>
     </g>
    </g>
    <g id="ytick_30">
     <g id="line2d_60">
      <g>
       <use style="stroke:#000000;stroke-width:0.6;" x="193.015372" xlink:href="#mf8f9963179" y="58.619696"/>
      </g>
     </g>
    </g>
    <g id="ytick_31">
     <g id="line2d_61">
      <g>
       <use style="stroke:#000000;stroke-width:0.6;" x="193.015372" xlink:href="#mf8f9963179" y="37.859641"/>
      </g>
     </g>
    </g>
    <g id="ytick_32">
     <g id="line2d_62">
      <g>
       <use style="stroke:#000000;stroke-width:0.6;" x="193.015372" xlink:href="#mf8f9963179" y="27.479614"/>
      </g>
     </g>
    </g>
    <g id="ytick_33">
     <g id="line2d_63">
      <g>
       <use style="stroke:#000000;stroke-width:0.6;" x="193.015372" xlink:href="#mf8f9963179" y="17.099586"/>
      </g>
     </g>
    </g>
   </g>
   <g id="patch_4">
    <path d="M 193.015372 345.6 
L 193.015372 0 
" style="fill:none;stroke:#000000;stroke-linecap:square;stroke-linejoin:miter;stroke-width:0.8;"/>
   </g>
   <g id="patch_5">
    <path d="M 74.965896 172.8 
L 385.834104 172.8 
" style="fill:none;stroke:#000000;stroke-linecap:square;stroke-linejoin:miter;stroke-width:0.8;"/>
   </g>
  </g>
 </g>
 <defs>
  <clipPath id="paa936cc652">
   <rect height="345.6" width="310.868208" x="74.965896" y="0"/>
  </clipPath>
 </defs>
</svg>
