<?xml version="1.0" encoding="utf-8" standalone="no"?>
<!DOCTYPE svg PUBLIC "-//W3C//DTD SVG 1.1//EN"
  "http://www.w3.org/Graphics/SVG/1.1/DTD/svg11.dtd">
<svg xmlns:xlink="http://www.w3.org/1999/xlink" width="460.8pt" height="345.6pt" viewBox="0 0 460.8 345.6" xmlns="http://www.w3.org/2000/svg" version="1.1">
 <metadata>
  <rdf:RDF xmlns:dc="http://purl.org/dc/elements/1.1/" xmlns:cc="http://creativecommons.org/ns#" xmlns:rdf="http://www.w3.org/1999/02/22-rdf-syntax-ns#">
   <cc:Work>
    <dc:type rdf:resource="http://purl.org/dc/dcmitype/StillImage"/>
    <dc:date>2022-05-16T19:39:44.664686</dc:date>
    <dc:format>image/svg+xml</dc:format>
    <dc:creator>
     <cc:Agent>
      <dc:title>Matplotlib v3.5.1, https://matplotlib.org/</dc:title>
     </cc:Agent>
    </dc:creator>
   </cc:Work>
  </rdf:RDF>
 </metadata>
 <defs>
  <style type="text/css">*{stroke-linejoin: round; stroke-linecap: butt}</style>
 </defs>
 <g id="figure_1">
  <g id="patch_1">
   <path d="M 0 345.6 
L 460.8 345.6 
L 460.8 0 
L 0 0 
z
" style="fill: #ffffff"/>
  </g>
  <g id="axes_1">
   <g id="patch_2">
    <path d="M 155.569901 345.6 
L 305.230099 345.6 
L 305.230099 0 
L 155.569901 0 
z
" style="fill: #ffffff"/>
   </g>
   <g id="patch_3">
    <path d="M 302.352018 172.8 
L 302.257353 172.798017 
L 301.973638 172.78415 
L 301.501712 172.746574 
L 300.842971 172.673579 
L 299.999364 172.553631 
L 298.97338 172.375431 
L 297.768047 172.127963 
L 296.386915 171.80056 
L 294.834048 171.382947 
L 293.114003 170.865301 
L 291.231822 170.238297 
L 289.193006 169.493157 
L 287.003499 168.621697 
L 284.669666 167.616367 
L 282.198271 166.470295 
L 279.59645 165.177323 
L 276.871691 163.732044 
L 274.031799 162.129829 
L 271.084875 160.366862 
L 268.039284 158.440159 
L 264.903627 156.347593 
L 261.686707 154.087911 
L 258.397503 151.660751 
L 255.045134 149.066645 
L 251.638827 146.307036 
L 248.187887 143.384273 
L 244.701663 140.301614 
L 241.189515 137.063221 
L 237.660781 133.67415 
L 234.124748 130.140339 
L 230.590614 126.468594 
L 227.067463 122.666566 
L 223.564227 118.742731 
L 220.089663 114.706361 
L 216.652316 110.56749 
L 213.260498 106.33689 
L 209.922253 102.026023 
L 206.645337 97.647009 
L 203.437187 93.212577 
L 200.304903 88.736025 
L 197.255219 84.231166 
L 194.294488 79.712283 
L 191.428657 75.19407 
L 188.663256 70.691583 
L 186.003374 66.220179 
L 183.45365 61.79546 
L 181.01826 57.433212 
L 178.700903 53.149346 
L 176.504799 48.959835 
L 174.432672 44.880654 
L 172.486755 40.927713 
L 170.668781 37.116801 
L 168.979986 33.463517 
L 167.421104 29.983212 
L 165.992379 26.690927 
L 164.693561 23.601331 
L 163.523917 20.728662 
L 162.48224 18.086668 
L 161.566859 15.688553 
L 160.775651 13.54692 
L 160.106054 11.673717 
L 159.555085 10.080191 
L 159.119355 8.776833 
L 158.795089 7.77334 
L 158.578148 7.078565 
L 158.464047 6.700484 
L 158.447982 6.646154 
L 158.52485 6.921681 
L 158.689276 7.532194 
L 158.935643 8.481811 
L 159.258112 9.773625 
L 159.650654 11.409678 
L 160.107081 13.39095 
L 160.621069 15.717346 
L 161.18619 18.38769 
L 161.795944 21.399718 
L 162.443786 24.750087 
L 163.123157 28.434369 
L 163.827514 32.447068 
L 164.550359 36.781631 
L 165.285268 41.430462 
L 166.025922 46.384944 
L 166.766133 51.635466 
L 167.499873 57.171447 
L 168.221299 62.98137 
L 168.924781 69.052816 
L 169.604927 75.372506 
L 170.256606 81.926339 
L 170.874969 88.699437 
L 171.455476 95.676196 
L 171.993907 102.840333 
L 172.48639 110.174945 
L 172.929412 117.662555 
L 173.319837 125.285179 
L 173.654917 133.02438 
L 173.932308 140.861331 
L 174.150076 148.776878 
L 174.306711 156.751605 
L 174.401127 164.765895 
L 174.432672 172.8 
L 174.401127 180.834105 
L 174.306711 188.848395 
L 174.150076 196.823122 
L 173.932308 204.738669 
L 173.654917 212.57562 
L 173.319837 220.314821 
L 172.929412 227.937445 
L 172.48639 235.425055 
L 171.993907 242.759667 
L 171.455476 249.923804 
L 170.874969 256.900563 
L 170.256606 263.673661 
L 169.604927 270.227494 
L 168.924781 276.547184 
L 168.221299 282.61863 
L 167.499873 288.428553 
L 166.766133 293.964534 
L 166.025922 299.215056 
L 165.285268 304.169538 
L 164.550359 308.818369 
L 163.827514 313.152932 
L 163.123157 317.165631 
L 162.443786 320.849913 
L 161.795944 324.200282 
L 161.18619 327.21231 
L 160.621069 329.882654 
L 160.107081 332.20905 
L 159.650654 334.190322 
L 159.258112 335.826375 
L 158.935643 337.118189 
L 158.689276 338.067806 
L 158.52485 338.678319 
L 158.447982 338.953846 
L 158.464047 338.899516 
L 158.578148 338.521435 
L 158.795089 337.82666 
L 159.119355 336.823167 
L 159.555085 335.519809 
L 160.106054 333.926283 
L 160.775651 332.05308 
L 161.566859 329.911447 
L 162.48224 327.513332 
L 163.523917 324.871338 
L 164.693561 321.998669 
L 165.992379 318.909073 
L 167.421104 315.616788 
L 168.979986 312.136483 
L 170.668781 308.483199 
L 172.486755 304.672287 
L 174.432672 300.719346 
L 176.504799 296.640165 
L 178.700903 292.450654 
L 181.01826 288.166788 
L 183.45365 283.80454 
L 186.003374 279.379821 
L 188.663256 274.908417 
L 191.428657 270.40593 
L 194.294488 265.887717 
L 197.255219 261.368834 
L 200.304903 256.863975 
L 203.437187 252.387423 
L 206.645337 247.952991 
L 209.922253 243.573977 
L 213.260498 239.26311 
L 216.652316 235.03251 
L 220.089663 230.893639 
L 223.564227 226.857269 
L 227.067463 222.933434 
L 230.590614 219.131406 
L 234.124748 215.459661 
L 237.660781 211.92585 
L 241.189515 208.536779 
L 244.701663 205.298386 
L 248.187887 202.215727 
L 251.638827 199.292964 
L 255.045134 196.533355 
L 258.397503 193.939249 
L 261.686707 191.512089 
L 264.903627 189.252407 
L 268.039284 187.159841 
L 271.084875 185.233138 
L 274.031799 183.470171 
L 276.871691 181.867956 
L 279.59645 180.422677 
L 282.198271 179.129705 
L 284.669666 177.983633 
L 287.003499 176.978303 
L 289.193006 176.106843 
L 291.231822 175.361703 
L 293.114003 174.734699 
L 294.834048 174.217053 
L 296.386915 173.79944 
L 297.768047 173.472037 
L 298.97338 173.224569 
L 299.999364 173.046369 
L 300.842971 172.926421 
L 301.501712 172.853426 
L 301.973638 172.81585 
L 302.257353 172.801983 
z
" clip-path="url(#pe58ec0c125)" style="fill: #20bf80"/>
   </g>
   <g id="matplotlib.axis_1">
    <g id="xtick_1">
     <g id="line2d_1">
      <defs>
       <path id="m4fa6d7f8e7" d="M 0 0 
L 0 3.5 
" style="stroke: #000000; stroke-width: 0.8"/>
      </defs>
      <g>
       <use xlink:href="#m4fa6d7f8e7" x="174.432672" y="172.8" style="stroke: #000000; stroke-width: 0.8"/>
      </g>
     </g>
     <g id="text_1">
      <!-- −1.0 -->
      <g transform="translate(162.291266 187.398438)scale(0.1 -0.1)">
       <defs>
        <path id="DejaVuSans-2212" d="M 678 2272 
L 4684 2272 
L 4684 1741 
L 678 1741 
L 678 2272 
z
" transform="scale(0.015625)"/>
        <path id="DejaVuSans-31" d="M 794 531 
L 1825 531 
L 1825 4091 
L 703 3866 
L 703 4441 
L 1819 4666 
L 2450 4666 
L 2450 531 
L 3481 531 
L 3481 0 
L 794 0 
L 794 531 
z
" transform="scale(0.015625)"/>
        <path id="DejaVuSans-2e" d="M 684 794 
L 1344 794 
L 1344 0 
L 684 0 
L 684 794 
z
" transform="scale(0.015625)"/>
        <path id="DejaVuSans-30" d="M 2034 4250 
Q 1547 4250 1301 3770 
Q 1056 3291 1056 2328 
Q 1056 1369 1301 889 
Q 1547 409 2034 409 
Q 2525 409 2770 889 
Q 3016 1369 3016 2328 
Q 3016 3291 2770 3770 
Q 2525 4250 2034 4250 
z
M 2034 4750 
Q 2819 4750 3233 4129 
Q 3647 3509 3647 2328 
Q 3647 1150 3233 529 
Q 2819 -91 2034 -91 
Q 1250 -91 836 529 
Q 422 1150 422 2328 
Q 422 3509 836 4129 
Q 1250 4750 2034 4750 
z
" transform="scale(0.015625)"/>
       </defs>
       <use xlink:href="#DejaVuSans-2212"/>
       <use xlink:href="#DejaVuSans-31" x="83.789062"/>
       <use xlink:href="#DejaVuSans-2e" x="147.412109"/>
       <use xlink:href="#DejaVuSans-30" x="179.199219"/>
      </g>
     </g>
    </g>
    <g id="xtick_2">
     <g id="line2d_2">
      <g>
       <use xlink:href="#m4fa6d7f8e7" x="206.412508" y="172.8" style="stroke: #000000; stroke-width: 0.8"/>
      </g>
     </g>
     <g id="text_2">
      <!-- −0.5 -->
      <g transform="translate(194.271102 187.398438)scale(0.1 -0.1)">
       <defs>
        <path id="DejaVuSans-35" d="M 691 4666 
L 3169 4666 
L 3169 4134 
L 1269 4134 
L 1269 2991 
Q 1406 3038 1543 3061 
Q 1681 3084 1819 3084 
Q 2600 3084 3056 2656 
Q 3513 2228 3513 1497 
Q 3513 744 3044 326 
Q 2575 -91 1722 -91 
Q 1428 -91 1123 -41 
Q 819 9 494 109 
L 494 744 
Q 775 591 1075 516 
Q 1375 441 1709 441 
Q 2250 441 2565 725 
Q 2881 1009 2881 1497 
Q 2881 1984 2565 2268 
Q 2250 2553 1709 2553 
Q 1456 2553 1204 2497 
Q 953 2441 691 2322 
L 691 4666 
z
" transform="scale(0.015625)"/>
       </defs>
       <use xlink:href="#DejaVuSans-2212"/>
       <use xlink:href="#DejaVuSans-30" x="83.789062"/>
       <use xlink:href="#DejaVuSans-2e" x="147.412109"/>
       <use xlink:href="#DejaVuSans-35" x="179.199219"/>
      </g>
     </g>
    </g>
    <g id="xtick_3">
     <g id="line2d_3">
      <g>
       <use xlink:href="#m4fa6d7f8e7" x="238.392345" y="172.8" style="stroke: #000000; stroke-width: 0.8"/>
      </g>
     </g>
    </g>
    <g id="xtick_4">
     <g id="line2d_4">
      <g>
       <use xlink:href="#m4fa6d7f8e7" x="270.372181" y="172.8" style="stroke: #000000; stroke-width: 0.8"/>
      </g>
     </g>
     <g id="text_3">
      <!-- 0.5 -->
      <g transform="translate(262.420619 187.398438)scale(0.1 -0.1)">
       <use xlink:href="#DejaVuSans-30"/>
       <use xlink:href="#DejaVuSans-2e" x="63.623047"/>
       <use xlink:href="#DejaVuSans-35" x="95.410156"/>
      </g>
     </g>
    </g>
    <g id="xtick_5">
     <g id="line2d_5">
      <g>
       <use xlink:href="#m4fa6d7f8e7" x="302.352018" y="172.8" style="stroke: #000000; stroke-width: 0.8"/>
      </g>
     </g>
     <g id="text_4">
      <!-- 1.0 -->
      <g transform="translate(294.400455 187.398438)scale(0.1 -0.1)">
       <use xlink:href="#DejaVuSans-31"/>
       <use xlink:href="#DejaVuSans-2e" x="63.623047"/>
       <use xlink:href="#DejaVuSans-30" x="95.410156"/>
      </g>
     </g>
    </g>
    <g id="xtick_6">
     <g id="line2d_6">
      <defs>
       <path id="m1d3bb8b459" d="M 0 0 
L 0 2 
" style="stroke: #000000; stroke-width: 0.6"/>
      </defs>
      <g>
       <use xlink:href="#m1d3bb8b459" x="161.640737" y="172.8" style="stroke: #000000; stroke-width: 0.6"/>
      </g>
     </g>
    </g>
    <g id="xtick_7">
     <g id="line2d_7">
      <g>
       <use xlink:href="#m1d3bb8b459" x="168.036704" y="172.8" style="stroke: #000000; stroke-width: 0.6"/>
      </g>
     </g>
    </g>
    <g id="xtick_8">
     <g id="line2d_8">
      <g>
       <use xlink:href="#m1d3bb8b459" x="180.828639" y="172.8" style="stroke: #000000; stroke-width: 0.6"/>
      </g>
     </g>
    </g>
    <g id="xtick_9">
     <g id="line2d_9">
      <g>
       <use xlink:href="#m1d3bb8b459" x="187.224606" y="172.8" style="stroke: #000000; stroke-width: 0.6"/>
      </g>
     </g>
    </g>
    <g id="xtick_10">
     <g id="line2d_10">
      <g>
       <use xlink:href="#m1d3bb8b459" x="193.620574" y="172.8" style="stroke: #000000; stroke-width: 0.6"/>
      </g>
     </g>
    </g>
    <g id="xtick_11">
     <g id="line2d_11">
      <g>
       <use xlink:href="#m1d3bb8b459" x="200.016541" y="172.8" style="stroke: #000000; stroke-width: 0.6"/>
      </g>
     </g>
    </g>
    <g id="xtick_12">
     <g id="line2d_12">
      <g>
       <use xlink:href="#m1d3bb8b459" x="212.808476" y="172.8" style="stroke: #000000; stroke-width: 0.6"/>
      </g>
     </g>
    </g>
    <g id="xtick_13">
     <g id="line2d_13">
      <g>
       <use xlink:href="#m1d3bb8b459" x="219.204443" y="172.8" style="stroke: #000000; stroke-width: 0.6"/>
      </g>
     </g>
    </g>
    <g id="xtick_14">
     <g id="line2d_14">
      <g>
       <use xlink:href="#m1d3bb8b459" x="225.60041" y="172.8" style="stroke: #000000; stroke-width: 0.6"/>
      </g>
     </g>
    </g>
    <g id="xtick_15">
     <g id="line2d_15">
      <g>
       <use xlink:href="#m1d3bb8b459" x="231.996378" y="172.8" style="stroke: #000000; stroke-width: 0.6"/>
      </g>
     </g>
    </g>
    <g id="xtick_16">
     <g id="line2d_16">
      <g>
       <use xlink:href="#m1d3bb8b459" x="244.788312" y="172.8" style="stroke: #000000; stroke-width: 0.6"/>
      </g>
     </g>
    </g>
    <g id="xtick_17">
     <g id="line2d_17">
      <g>
       <use xlink:href="#m1d3bb8b459" x="251.184279" y="172.8" style="stroke: #000000; stroke-width: 0.6"/>
      </g>
     </g>
    </g>
    <g id="xtick_18">
     <g id="line2d_18">
      <g>
       <use xlink:href="#m1d3bb8b459" x="257.580247" y="172.8" style="stroke: #000000; stroke-width: 0.6"/>
      </g>
     </g>
    </g>
    <g id="xtick_19">
     <g id="line2d_19">
      <g>
       <use xlink:href="#m1d3bb8b459" x="263.976214" y="172.8" style="stroke: #000000; stroke-width: 0.6"/>
      </g>
     </g>
    </g>
    <g id="xtick_20">
     <g id="line2d_20">
      <g>
       <use xlink:href="#m1d3bb8b459" x="276.768149" y="172.8" style="stroke: #000000; stroke-width: 0.6"/>
      </g>
     </g>
    </g>
    <g id="xtick_21">
     <g id="line2d_21">
      <g>
       <use xlink:href="#m1d3bb8b459" x="283.164116" y="172.8" style="stroke: #000000; stroke-width: 0.6"/>
      </g>
     </g>
    </g>
    <g id="xtick_22">
     <g id="line2d_22">
      <g>
       <use xlink:href="#m1d3bb8b459" x="289.560083" y="172.8" style="stroke: #000000; stroke-width: 0.6"/>
      </g>
     </g>
    </g>
    <g id="xtick_23">
     <g id="line2d_23">
      <g>
       <use xlink:href="#m1d3bb8b459" x="295.956051" y="172.8" style="stroke: #000000; stroke-width: 0.6"/>
      </g>
     </g>
    </g>
   </g>
   <g id="matplotlib.axis_2">
    <g id="ytick_1">
     <g id="line2d_24">
      <defs>
       <path id="mec4ccc10f1" d="M 0 0 
L -3.5 0 
" style="stroke: #000000; stroke-width: 0.8"/>
      </defs>
      <g>
       <use xlink:href="#mec4ccc10f1" x="238.392345" y="300.719346" style="stroke: #000000; stroke-width: 0.8"/>
      </g>
     </g>
     <g id="text_5">
      <!-- −2 -->
      <g transform="translate(216.650157 304.518565)scale(0.1 -0.1)">
       <defs>
        <path id="DejaVuSans-32" d="M 1228 531 
L 3431 531 
L 3431 0 
L 469 0 
L 469 531 
Q 828 903 1448 1529 
Q 2069 2156 2228 2338 
Q 2531 2678 2651 2914 
Q 2772 3150 2772 3378 
Q 2772 3750 2511 3984 
Q 2250 4219 1831 4219 
Q 1534 4219 1204 4116 
Q 875 4013 500 3803 
L 500 4441 
Q 881 4594 1212 4672 
Q 1544 4750 1819 4750 
Q 2544 4750 2975 4387 
Q 3406 4025 3406 3419 
Q 3406 3131 3298 2873 
Q 3191 2616 2906 2266 
Q 2828 2175 2409 1742 
Q 1991 1309 1228 531 
z
" transform="scale(0.015625)"/>
       </defs>
       <use xlink:href="#DejaVuSans-2212"/>
       <use xlink:href="#DejaVuSans-32" x="83.789062"/>
      </g>
     </g>
    </g>
    <g id="ytick_2">
     <g id="line2d_25">
      <g>
       <use xlink:href="#mec4ccc10f1" x="238.392345" y="236.759673" style="stroke: #000000; stroke-width: 0.8"/>
      </g>
     </g>
     <g id="text_6">
      <!-- −1 -->
      <g transform="translate(216.650157 240.558892)scale(0.1 -0.1)">
       <use xlink:href="#DejaVuSans-2212"/>
       <use xlink:href="#DejaVuSans-31" x="83.789062"/>
      </g>
     </g>
    </g>
    <g id="ytick_3">
     <g id="line2d_26">
      <g>
       <use xlink:href="#mec4ccc10f1" x="238.392345" y="172.8" style="stroke: #000000; stroke-width: 0.8"/>
      </g>
     </g>
    </g>
    <g id="ytick_4">
     <g id="line2d_27">
      <g>
       <use xlink:href="#mec4ccc10f1" x="238.392345" y="108.840327" style="stroke: #000000; stroke-width: 0.8"/>
      </g>
     </g>
     <g id="text_7">
      <!-- 1 -->
      <g transform="translate(225.029845 112.639546)scale(0.1 -0.1)">
       <use xlink:href="#DejaVuSans-31"/>
      </g>
     </g>
    </g>
    <g id="ytick_5">
     <g id="line2d_28">
      <g>
       <use xlink:href="#mec4ccc10f1" x="238.392345" y="44.880654" style="stroke: #000000; stroke-width: 0.8"/>
      </g>
     </g>
     <g id="text_8">
      <!-- 2 -->
      <g transform="translate(225.029845 48.679873)scale(0.1 -0.1)">
       <use xlink:href="#DejaVuSans-32"/>
      </g>
     </g>
    </g>
    <g id="ytick_6">
     <g id="line2d_29">
      <defs>
       <path id="m50c6802eeb" d="M 0 0 
L -2 0 
" style="stroke: #000000; stroke-width: 0.6"/>
      </defs>
      <g>
       <use xlink:href="#m50c6802eeb" x="238.392345" y="339.09515" style="stroke: #000000; stroke-width: 0.6"/>
      </g>
     </g>
    </g>
    <g id="ytick_7">
     <g id="line2d_30">
      <g>
       <use xlink:href="#m50c6802eeb" x="238.392345" y="326.303215" style="stroke: #000000; stroke-width: 0.6"/>
      </g>
     </g>
    </g>
    <g id="ytick_8">
     <g id="line2d_31">
      <g>
       <use xlink:href="#m50c6802eeb" x="238.392345" y="313.511281" style="stroke: #000000; stroke-width: 0.6"/>
      </g>
     </g>
    </g>
    <g id="ytick_9">
     <g id="line2d_32">
      <g>
       <use xlink:href="#m50c6802eeb" x="238.392345" y="287.927412" style="stroke: #000000; stroke-width: 0.6"/>
      </g>
     </g>
    </g>
    <g id="ytick_10">
     <g id="line2d_33">
      <g>
       <use xlink:href="#m50c6802eeb" x="238.392345" y="275.135477" style="stroke: #000000; stroke-width: 0.6"/>
      </g>
     </g>
    </g>
    <g id="ytick_11">
     <g id="line2d_34">
      <g>
       <use xlink:href="#m50c6802eeb" x="238.392345" y="262.343542" style="stroke: #000000; stroke-width: 0.6"/>
      </g>
     </g>
    </g>
    <g id="ytick_12">
     <g id="line2d_35">
      <g>
       <use xlink:href="#m50c6802eeb" x="238.392345" y="249.551608" style="stroke: #000000; stroke-width: 0.6"/>
      </g>
     </g>
    </g>
    <g id="ytick_13">
     <g id="line2d_36">
      <g>
       <use xlink:href="#m50c6802eeb" x="238.392345" y="223.967738" style="stroke: #000000; stroke-width: 0.6"/>
      </g>
     </g>
    </g>
    <g id="ytick_14">
     <g id="line2d_37">
      <g>
       <use xlink:href="#m50c6802eeb" x="238.392345" y="211.175804" style="stroke: #000000; stroke-width: 0.6"/>
      </g>
     </g>
    </g>
    <g id="ytick_15">
     <g id="line2d_38">
      <g>
       <use xlink:href="#m50c6802eeb" x="238.392345" y="198.383869" style="stroke: #000000; stroke-width: 0.6"/>
      </g>
     </g>
    </g>
    <g id="ytick_16">
     <g id="line2d_39">
      <g>
       <use xlink:href="#m50c6802eeb" x="238.392345" y="185.591935" style="stroke: #000000; stroke-width: 0.6"/>
      </g>
     </g>
    </g>
    <g id="ytick_17">
     <g id="line2d_40">
      <g>
       <use xlink:href="#m50c6802eeb" x="238.392345" y="160.008065" style="stroke: #000000; stroke-width: 0.6"/>
      </g>
     </g>
    </g>
    <g id="ytick_18">
     <g id="line2d_41">
      <g>
       <use xlink:href="#m50c6802eeb" x="238.392345" y="147.216131" style="stroke: #000000; stroke-width: 0.6"/>
      </g>
     </g>
    </g>
    <g id="ytick_19">
     <g id="line2d_42">
      <g>
       <use xlink:href="#m50c6802eeb" x="238.392345" y="134.424196" style="stroke: #000000; stroke-width: 0.6"/>
      </g>
     </g>
    </g>
    <g id="ytick_20">
     <g id="line2d_43">
      <g>
       <use xlink:href="#m50c6802eeb" x="238.392345" y="121.632262" style="stroke: #000000; stroke-width: 0.6"/>
      </g>
     </g>
    </g>
    <g id="ytick_21">
     <g id="line2d_44">
      <g>
       <use xlink:href="#m50c6802eeb" x="238.392345" y="96.048392" style="stroke: #000000; stroke-width: 0.6"/>
      </g>
     </g>
    </g>
    <g id="ytick_22">
     <g id="line2d_45">
      <g>
       <use xlink:href="#m50c6802eeb" x="238.392345" y="83.256458" style="stroke: #000000; stroke-width: 0.6"/>
      </g>
     </g>
    </g>
    <g id="ytick_23">
     <g id="line2d_46">
      <g>
       <use xlink:href="#m50c6802eeb" x="238.392345" y="70.464523" style="stroke: #000000; stroke-width: 0.6"/>
      </g>
     </g>
    </g>
    <g id="ytick_24">
     <g id="line2d_47">
      <g>
       <use xlink:href="#m50c6802eeb" x="238.392345" y="57.672588" style="stroke: #000000; stroke-width: 0.6"/>
      </g>
     </g>
    </g>
    <g id="ytick_25">
     <g id="line2d_48">
      <g>
       <use xlink:href="#m50c6802eeb" x="238.392345" y="32.088719" style="stroke: #000000; stroke-width: 0.6"/>
      </g>
     </g>
    </g>
    <g id="ytick_26">
     <g id="line2d_49">
      <g>
       <use xlink:href="#m50c6802eeb" x="238.392345" y="19.296785" style="stroke: #000000; stroke-width: 0.6"/>
      </g>
     </g>
    </g>
    <g id="ytick_27">
     <g id="line2d_50">
      <g>
       <use xlink:href="#m50c6802eeb" x="238.392345" y="6.50485" style="stroke: #000000; stroke-width: 0.6"/>
      </g>
     </g>
    </g>
   </g>
   <g id="patch_4">
    <path d="M 238.392345 345.6 
L 238.392345 0 
" style="fill: none; stroke: #000000; stroke-width: 0.8; stroke-linejoin: miter; stroke-linecap: square"/>
   </g>
   <g id="patch_5">
    <path d="M 155.569901 172.8 
L 305.230099 172.8 
" style="fill: none; stroke: #000000; stroke-width: 0.8; stroke-linejoin: miter; stroke-linecap: square"/>
   </g>
  </g>
 </g>
 <defs>
  <clipPath id="pe58ec0c125">
   <rect x="155.569901" y="0" width="149.660197" height="345.6"/>
  </clipPath>
 </defs>
</svg>
