<?xml version="1.0" encoding="utf-8" standalone="no"?>
<!DOCTYPE svg PUBLIC "-//W3C//DTD SVG 1.1//EN"
  "http://www.w3.org/Graphics/SVG/1.1/DTD/svg11.dtd">
<svg xmlns:xlink="http://www.w3.org/1999/xlink" width="460.8pt" height="345.6pt" viewBox="0 0 460.8 345.6" xmlns="http://www.w3.org/2000/svg" version="1.1">
 <metadata>
  <rdf:RDF xmlns:dc="http://purl.org/dc/elements/1.1/" xmlns:cc="http://creativecommons.org/ns#" xmlns:rdf="http://www.w3.org/1999/02/22-rdf-syntax-ns#">
   <cc:Work>
    <dc:type rdf:resource="http://purl.org/dc/dcmitype/StillImage"/>
    <dc:date>2023-12-06T18:15:49.587671</dc:date>
    <dc:format>image/svg+xml</dc:format>
    <dc:creator>
     <cc:Agent>
      <dc:title>Matplotlib v3.8.0, https://matplotlib.org/</dc:title>
     </cc:Agent>
    </dc:creator>
   </cc:Work>
  </rdf:RDF>
 </metadata>
 <defs>
  <style type="text/css">*{stroke-linejoin: round; stroke-linecap: butt}</style>
 </defs>
 <g id="figure_1">
  <g id="patch_1">
   <path d="M 0 345.6 
L 460.8 345.6 
L 460.8 0 
L 0 0 
z
" style="fill: #ffffff"/>
  </g>
  <g id="axes_1">
   <g id="patch_2">
    <path d="M 28.15 328.52 
L 460.8 328.52 
L 460.8 0 
L 28.15 0 
z
" style="fill: #ffffff"/>
   </g>
   <g id="matplotlib.axis_1">
    <g id="xtick_1">
     <g id="line2d_1">
      <defs>
       <path id="m511cd389d3" d="M 0 0 
L 0 3.5 
" style="stroke: #000000; stroke-width: 0.8"/>
      </defs>
      <g>
       <use xlink:href="#m511cd389d3" x="36.470192" y="328.52" style="stroke: #000000; stroke-width: 0.8"/>
      </g>
     </g>
     <g id="text_1">
      <!-- −10 -->
      <g transform="translate(25.917849 343.118437) scale(0.1 -0.1)">
       <defs>
        <path id="DejaVuSans-2212" d="M 678 2272 
L 4684 2272 
L 4684 1741 
L 678 1741 
L 678 2272 
z
" transform="scale(0.015625)"/>
        <path id="DejaVuSans-31" d="M 794 531 
L 1825 531 
L 1825 4091 
L 703 3866 
L 703 4441 
L 1819 4666 
L 2450 4666 
L 2450 531 
L 3481 531 
L 3481 0 
L 794 0 
L 794 531 
z
" transform="scale(0.015625)"/>
        <path id="DejaVuSans-30" d="M 2034 4250 
Q 1547 4250 1301 3770 
Q 1056 3291 1056 2328 
Q 1056 1369 1301 889 
Q 1547 409 2034 409 
Q 2525 409 2770 889 
Q 3016 1369 3016 2328 
Q 3016 3291 2770 3770 
Q 2525 4250 2034 4250 
z
M 2034 4750 
Q 2819 4750 3233 4129 
Q 3647 3509 3647 2328 
Q 3647 1150 3233 529 
Q 2819 -91 2034 -91 
Q 1250 -91 836 529 
Q 422 1150 422 2328 
Q 422 3509 836 4129 
Q 1250 4750 2034 4750 
z
" transform="scale(0.015625)"/>
       </defs>
       <use xlink:href="#DejaVuSans-2212"/>
       <use xlink:href="#DejaVuSans-31" x="83.789062"/>
       <use xlink:href="#DejaVuSans-30" x="147.412109"/>
      </g>
     </g>
    </g>
    <g id="xtick_2">
     <g id="line2d_2">
      <g>
       <use xlink:href="#m511cd389d3" x="140.472596" y="328.52" style="stroke: #000000; stroke-width: 0.8"/>
      </g>
     </g>
     <g id="text_2">
      <!-- −5 -->
      <g transform="translate(133.101502 343.118437) scale(0.1 -0.1)">
       <defs>
        <path id="DejaVuSans-35" d="M 691 4666 
L 3169 4666 
L 3169 4134 
L 1269 4134 
L 1269 2991 
Q 1406 3038 1543 3061 
Q 1681 3084 1819 3084 
Q 2600 3084 3056 2656 
Q 3513 2228 3513 1497 
Q 3513 744 3044 326 
Q 2575 -91 1722 -91 
Q 1428 -91 1123 -41 
Q 819 9 494 109 
L 494 744 
Q 775 591 1075 516 
Q 1375 441 1709 441 
Q 2250 441 2565 725 
Q 2881 1009 2881 1497 
Q 2881 1984 2565 2268 
Q 2250 2553 1709 2553 
Q 1456 2553 1204 2497 
Q 953 2441 691 2322 
L 691 4666 
z
" transform="scale(0.015625)"/>
       </defs>
       <use xlink:href="#DejaVuSans-2212"/>
       <use xlink:href="#DejaVuSans-35" x="83.789062"/>
      </g>
     </g>
    </g>
    <g id="xtick_3">
     <g id="line2d_3">
      <g>
       <use xlink:href="#m511cd389d3" x="244.475" y="328.52" style="stroke: #000000; stroke-width: 0.8"/>
      </g>
     </g>
     <g id="text_3">
      <!-- 0 -->
      <g transform="translate(241.29375 343.118437) scale(0.1 -0.1)">
       <use xlink:href="#DejaVuSans-30"/>
      </g>
     </g>
    </g>
    <g id="xtick_4">
     <g id="line2d_4">
      <g>
       <use xlink:href="#m511cd389d3" x="348.477404" y="328.52" style="stroke: #000000; stroke-width: 0.8"/>
      </g>
     </g>
     <g id="text_4">
      <!-- 5 -->
      <g transform="translate(345.296154 343.118437) scale(0.1 -0.1)">
       <use xlink:href="#DejaVuSans-35"/>
      </g>
     </g>
    </g>
    <g id="xtick_5">
     <g id="line2d_5">
      <g>
       <use xlink:href="#m511cd389d3" x="452.479808" y="328.52" style="stroke: #000000; stroke-width: 0.8"/>
      </g>
     </g>
     <g id="text_5">
      <!-- 10 -->
      <g transform="translate(446.117308 343.118437) scale(0.1 -0.1)">
       <use xlink:href="#DejaVuSans-31"/>
       <use xlink:href="#DejaVuSans-30" x="63.623047"/>
      </g>
     </g>
    </g>
    <g id="xtick_6">
     <g id="line2d_6">
      <defs>
       <path id="m14c6579a0f" d="M 0 0 
L 0 2 
" style="stroke: #000000; stroke-width: 0.6"/>
      </defs>
      <g>
       <use xlink:href="#m14c6579a0f" x="57.270673" y="328.52" style="stroke: #000000; stroke-width: 0.6"/>
      </g>
     </g>
    </g>
    <g id="xtick_7">
     <g id="line2d_7">
      <g>
       <use xlink:href="#m14c6579a0f" x="78.071154" y="328.52" style="stroke: #000000; stroke-width: 0.6"/>
      </g>
     </g>
    </g>
    <g id="xtick_8">
     <g id="line2d_8">
      <g>
       <use xlink:href="#m14c6579a0f" x="98.871635" y="328.52" style="stroke: #000000; stroke-width: 0.6"/>
      </g>
     </g>
    </g>
    <g id="xtick_9">
     <g id="line2d_9">
      <g>
       <use xlink:href="#m14c6579a0f" x="119.672115" y="328.52" style="stroke: #000000; stroke-width: 0.6"/>
      </g>
     </g>
    </g>
    <g id="xtick_10">
     <g id="line2d_10">
      <g>
       <use xlink:href="#m14c6579a0f" x="161.273077" y="328.52" style="stroke: #000000; stroke-width: 0.6"/>
      </g>
     </g>
    </g>
    <g id="xtick_11">
     <g id="line2d_11">
      <g>
       <use xlink:href="#m14c6579a0f" x="182.073558" y="328.52" style="stroke: #000000; stroke-width: 0.6"/>
      </g>
     </g>
    </g>
    <g id="xtick_12">
     <g id="line2d_12">
      <g>
       <use xlink:href="#m14c6579a0f" x="202.874038" y="328.52" style="stroke: #000000; stroke-width: 0.6"/>
      </g>
     </g>
    </g>
    <g id="xtick_13">
     <g id="line2d_13">
      <g>
       <use xlink:href="#m14c6579a0f" x="223.674519" y="328.52" style="stroke: #000000; stroke-width: 0.6"/>
      </g>
     </g>
    </g>
    <g id="xtick_14">
     <g id="line2d_14">
      <g>
       <use xlink:href="#m14c6579a0f" x="265.275481" y="328.52" style="stroke: #000000; stroke-width: 0.6"/>
      </g>
     </g>
    </g>
    <g id="xtick_15">
     <g id="line2d_15">
      <g>
       <use xlink:href="#m14c6579a0f" x="286.075962" y="328.52" style="stroke: #000000; stroke-width: 0.6"/>
      </g>
     </g>
    </g>
    <g id="xtick_16">
     <g id="line2d_16">
      <g>
       <use xlink:href="#m14c6579a0f" x="306.876442" y="328.52" style="stroke: #000000; stroke-width: 0.6"/>
      </g>
     </g>
    </g>
    <g id="xtick_17">
     <g id="line2d_17">
      <g>
       <use xlink:href="#m14c6579a0f" x="327.676923" y="328.52" style="stroke: #000000; stroke-width: 0.6"/>
      </g>
     </g>
    </g>
    <g id="xtick_18">
     <g id="line2d_18">
      <g>
       <use xlink:href="#m14c6579a0f" x="369.277885" y="328.52" style="stroke: #000000; stroke-width: 0.6"/>
      </g>
     </g>
    </g>
    <g id="xtick_19">
     <g id="line2d_19">
      <g>
       <use xlink:href="#m14c6579a0f" x="390.078365" y="328.52" style="stroke: #000000; stroke-width: 0.6"/>
      </g>
     </g>
    </g>
    <g id="xtick_20">
     <g id="line2d_20">
      <g>
       <use xlink:href="#m14c6579a0f" x="410.878846" y="328.52" style="stroke: #000000; stroke-width: 0.6"/>
      </g>
     </g>
    </g>
    <g id="xtick_21">
     <g id="line2d_21">
      <g>
       <use xlink:href="#m14c6579a0f" x="431.679327" y="328.52" style="stroke: #000000; stroke-width: 0.6"/>
      </g>
     </g>
    </g>
   </g>
   <g id="matplotlib.axis_2">
    <g id="ytick_1">
     <g id="line2d_22">
      <defs>
       <path id="ma49b93ec8d" d="M 0 0 
L -3.5 0 
" style="stroke: #000000; stroke-width: 0.8"/>
      </defs>
      <g>
       <use xlink:href="#ma49b93ec8d" x="28.15" y="322.202308" style="stroke: #000000; stroke-width: 0.8"/>
      </g>
     </g>
     <g id="text_6">
      <!-- −10 -->
      <g transform="translate(0.045313 326.001526) scale(0.1 -0.1)">
       <use xlink:href="#DejaVuSans-2212"/>
       <use xlink:href="#DejaVuSans-31" x="83.789062"/>
       <use xlink:href="#DejaVuSans-30" x="147.412109"/>
      </g>
     </g>
    </g>
    <g id="ytick_2">
     <g id="line2d_23">
      <g>
       <use xlink:href="#ma49b93ec8d" x="28.15" y="243.231154" style="stroke: #000000; stroke-width: 0.8"/>
      </g>
     </g>
     <g id="text_7">
      <!-- −5 -->
      <g transform="translate(6.407813 247.030373) scale(0.1 -0.1)">
       <use xlink:href="#DejaVuSans-2212"/>
       <use xlink:href="#DejaVuSans-35" x="83.789062"/>
      </g>
     </g>
    </g>
    <g id="ytick_3">
     <g id="line2d_24">
      <g>
       <use xlink:href="#ma49b93ec8d" x="28.15" y="164.26" style="stroke: #000000; stroke-width: 0.8"/>
      </g>
     </g>
     <g id="text_8">
      <!-- 0 -->
      <g transform="translate(14.7875 168.059219) scale(0.1 -0.1)">
       <use xlink:href="#DejaVuSans-30"/>
      </g>
     </g>
    </g>
    <g id="ytick_4">
     <g id="line2d_25">
      <g>
       <use xlink:href="#ma49b93ec8d" x="28.15" y="85.288846" style="stroke: #000000; stroke-width: 0.8"/>
      </g>
     </g>
     <g id="text_9">
      <!-- 5 -->
      <g transform="translate(14.7875 89.088065) scale(0.1 -0.1)">
       <use xlink:href="#DejaVuSans-35"/>
      </g>
     </g>
    </g>
    <g id="ytick_5">
     <g id="line2d_26">
      <g>
       <use xlink:href="#ma49b93ec8d" x="28.15" y="6.317692" style="stroke: #000000; stroke-width: 0.8"/>
      </g>
     </g>
     <g id="text_10">
      <!-- 10 -->
      <g transform="translate(8.425 10.116911) scale(0.1 -0.1)">
       <use xlink:href="#DejaVuSans-31"/>
       <use xlink:href="#DejaVuSans-30" x="63.623047"/>
      </g>
     </g>
    </g>
    <g id="ytick_6">
     <g id="line2d_27">
      <defs>
       <path id="m4d7b84c9b2" d="M 0 0 
L -2 0 
" style="stroke: #000000; stroke-width: 0.6"/>
      </defs>
      <g>
       <use xlink:href="#m4d7b84c9b2" x="28.15" y="306.408077" style="stroke: #000000; stroke-width: 0.6"/>
      </g>
     </g>
    </g>
    <g id="ytick_7">
     <g id="line2d_28">
      <g>
       <use xlink:href="#m4d7b84c9b2" x="28.15" y="290.613846" style="stroke: #000000; stroke-width: 0.6"/>
      </g>
     </g>
    </g>
    <g id="ytick_8">
     <g id="line2d_29">
      <g>
       <use xlink:href="#m4d7b84c9b2" x="28.15" y="274.819615" style="stroke: #000000; stroke-width: 0.6"/>
      </g>
     </g>
    </g>
    <g id="ytick_9">
     <g id="line2d_30">
      <g>
       <use xlink:href="#m4d7b84c9b2" x="28.15" y="259.025385" style="stroke: #000000; stroke-width: 0.6"/>
      </g>
     </g>
    </g>
    <g id="ytick_10">
     <g id="line2d_31">
      <g>
       <use xlink:href="#m4d7b84c9b2" x="28.15" y="227.436923" style="stroke: #000000; stroke-width: 0.6"/>
      </g>
     </g>
    </g>
    <g id="ytick_11">
     <g id="line2d_32">
      <g>
       <use xlink:href="#m4d7b84c9b2" x="28.15" y="211.642692" style="stroke: #000000; stroke-width: 0.6"/>
      </g>
     </g>
    </g>
    <g id="ytick_12">
     <g id="line2d_33">
      <g>
       <use xlink:href="#m4d7b84c9b2" x="28.15" y="195.848462" style="stroke: #000000; stroke-width: 0.6"/>
      </g>
     </g>
    </g>
    <g id="ytick_13">
     <g id="line2d_34">
      <g>
       <use xlink:href="#m4d7b84c9b2" x="28.15" y="180.054231" style="stroke: #000000; stroke-width: 0.6"/>
      </g>
     </g>
    </g>
    <g id="ytick_14">
     <g id="line2d_35">
      <g>
       <use xlink:href="#m4d7b84c9b2" x="28.15" y="148.465769" style="stroke: #000000; stroke-width: 0.6"/>
      </g>
     </g>
    </g>
    <g id="ytick_15">
     <g id="line2d_36">
      <g>
       <use xlink:href="#m4d7b84c9b2" x="28.15" y="132.671538" style="stroke: #000000; stroke-width: 0.6"/>
      </g>
     </g>
    </g>
    <g id="ytick_16">
     <g id="line2d_37">
      <g>
       <use xlink:href="#m4d7b84c9b2" x="28.15" y="116.877308" style="stroke: #000000; stroke-width: 0.6"/>
      </g>
     </g>
    </g>
    <g id="ytick_17">
     <g id="line2d_38">
      <g>
       <use xlink:href="#m4d7b84c9b2" x="28.15" y="101.083077" style="stroke: #000000; stroke-width: 0.6"/>
      </g>
     </g>
    </g>
    <g id="ytick_18">
     <g id="line2d_39">
      <g>
       <use xlink:href="#m4d7b84c9b2" x="28.15" y="69.494615" style="stroke: #000000; stroke-width: 0.6"/>
      </g>
     </g>
    </g>
    <g id="ytick_19">
     <g id="line2d_40">
      <g>
       <use xlink:href="#m4d7b84c9b2" x="28.15" y="53.700385" style="stroke: #000000; stroke-width: 0.6"/>
      </g>
     </g>
    </g>
    <g id="ytick_20">
     <g id="line2d_41">
      <g>
       <use xlink:href="#m4d7b84c9b2" x="28.15" y="37.906154" style="stroke: #000000; stroke-width: 0.6"/>
      </g>
     </g>
    </g>
    <g id="ytick_21">
     <g id="line2d_42">
      <g>
       <use xlink:href="#m4d7b84c9b2" x="28.15" y="22.111923" style="stroke: #000000; stroke-width: 0.6"/>
      </g>
     </g>
    </g>
   </g>
   <g id="LineCollection_1">
    <path d="M 36.470192 322.202308 
L 36.470192 322.202308 
L 46.2719 314.759671 
L 56.072191 307.318109 
L 65.871913 299.87698 
L 75.669887 292.437178 
L 85.467645 284.997539 
L 95.263195 277.559578 
L 105.059366 270.121144 
L 114.852661 262.684895 
L 124.648573 255.246658 
L 134.440587 247.811382 
L 144.230363 240.377805 
L 154.014655 232.948391 
L 163.791046 225.524978 
L 173.559287 218.107752 
L 183.311328 210.702828 
L 193.051403 203.30699 
L 202.748728 195.943612 
L 212.447978 188.578774 
L 221.957833 181.357746 
L 231.408739 174.181479 
L 231.408739 174.181479 
L 235.276706 171.244453 
L 235.276706 171.244453 
L 238.063964 169.128031 
L 240.00663 167.652925 
L 241.555082 166.477154 
L 242.698291 165.609091 
L 243.484465 165.012133 
L 243.968168 164.644848 
L 244.218825 164.454519 
L 244.345518 164.358318 
L 244.409555 164.309694 
L 244.441921 164.285118 
L 244.458281 164.272695 
L 244.466549 164.266417 
L 244.470729 164.263243 
L 244.472841 164.261639 
L 244.473909 164.260829 
L 244.474448 164.260419 
L 244.474721 164.260212 
L 244.474859 164.260107 
L 244.474929 164.260054 
L 244.474964 164.260027 
L 244.474982 164.260014 
L 244.474991 164.260007 
L 244.474995 164.260004 
L 244.474998 164.260002 
L 244.474999 164.260001 
L 244.474999 164.26 
L 244.475 164.26 
L 244.475 164.26 
L 244.475 164.26 
L 244.475 164.26 
L 244.475 164.26 
L 244.475 164.26 
L 244.475 164.26 
L 244.475 164.26 
L 244.475 164.26 
L 244.475 164.26 
L 244.475 164.26 
L 244.475 164.26 
L 244.475 164.26 
L 244.475 164.26 
L 244.475 164.26 
" clip-path="url(#p6ee9bc15c8)" style="fill: none; stroke: #1f77b4; stroke-width: 1.5"/>
    <path d="M 50.815351 322.202308 
L 50.815351 322.202308 
L 60.260016 314.49896 
L 69.703221 306.796315 
L 79.147859 299.094857 
L 88.59156 291.394521 
" clip-path="url(#p6ee9bc15c8)" style="fill: none; stroke: #1f77b4; stroke-width: 1.5"/>
    <path d="M 65.160511 322.202308 
L 65.160511 322.202308 
L 74.207109 314.230237 
L 83.255748 306.259097 
L 92.302165 298.288771 
L 101.351749 290.319712 
L 110.400003 282.351864 
L 119.442501 274.38445 
L 128.487108 266.41956 
L 137.524962 258.455705 
L 146.572941 250.496482 
L 155.612749 242.539122 
L 164.644781 234.58516 
L 173.673023 226.637791 
" clip-path="url(#p6ee9bc15c8)" style="fill: none; stroke: #1f77b4; stroke-width: 1.5"/>
    <path d="M 93.850829 322.202308 
L 93.850829 322.202308 
L 101.981151 313.678455 
L 110.10955 305.154912 
L 118.231981 296.632591 
L 126.358816 288.111114 
L 134.481649 279.591466 
L 142.602279 271.072657 
L 150.726031 262.556965 
L 158.837377 254.042979 
L 166.963463 245.533635 
L 175.080201 237.027618 
" clip-path="url(#p6ee9bc15c8)" style="fill: none; stroke: #1f77b4; stroke-width: 1.5"/>
    <path d="M 122.541147 322.202308 
L 122.541147 322.202308 
L 129.55004 313.123831 
L 136.552692 304.048025 
L 143.559289 294.972552 
L 150.568876 285.899318 
L 157.567978 276.828274 
L 164.571158 267.759912 
" clip-path="url(#p6ee9bc15c8)" style="fill: none; stroke: #1f77b4; stroke-width: 1.5"/>
    <path d="M 151.231466 322.202308 
L 151.231466 322.202308 
L 156.894207 312.602475 
L 162.558583 303.004858 
L 168.231834 293.404593 
L 173.90465 283.808251 
L 179.559601 274.216044 
L 185.218342 264.626354 
L 190.887031 255.03241 
L 196.547425 245.447291 
L 202.186247 235.880416 
L 207.826826 226.313448 
L 213.510747 216.761029 
L 219.109721 207.234639 
L 224.628435 197.785813 
L 230.121212 188.35965 
L 235.999066 179.425963 
L 235.999066 179.425963 
" clip-path="url(#p6ee9bc15c8)" style="fill: none; stroke: #1f77b4; stroke-width: 1.5"/>
    <path d="M 179.921784 322.202308 
L 179.921784 322.202308 
L 184.023545 312.156304 
L 188.133718 302.108778 
L 192.244982 292.060091 
L 196.352046 282.018789 
L 200.444731 271.98324 
L 204.535306 261.951607 
L 208.639619 251.920086 
L 212.753996 241.882148 
L 216.864963 231.86382 
L 220.923753 221.875086 
L 224.955439 211.919108 
" clip-path="url(#p6ee9bc15c8)" style="fill: none; stroke: #1f77b4; stroke-width: 1.5"/>
    <path d="M 208.612102 322.202308 
L 208.612102 322.202308 
L 210.968315 311.83028 
L 213.328314 301.45849 
L 215.683711 291.0918 
L 218.036598 280.733114 
L 220.384711 270.382267 
L 222.727366 260.038881 
L 225.070341 249.703597 
" clip-path="url(#p6ee9bc15c8)" style="fill: none; stroke: #1f77b4; stroke-width: 1.5"/>
    <path d="M 237.30242 322.202308 
L 237.30242 322.202308 
L 237.780565 311.688518 
L 238.25922 301.177218 
L 238.737288 290.668892 
L 239.215609 280.164493 
L 239.694016 269.665186 
L 240.171824 259.172531 
L 240.65038 248.689474 
L 241.127386 238.219345 
L 241.60419 227.769425 
L 242.083095 217.354317 
L 242.555755 206.991723 
L 243.030669 196.75581 
L 243.500556 186.888019 
" clip-path="url(#p6ee9bc15c8)" style="fill: none; stroke: #1f77b4; stroke-width: 1.5"/>
    <path d="M 251.64758 322.202308 
L 251.64758 322.202308 
L 251.169435 311.688518 
L 250.69078 301.177218 
L 250.212712 290.668892 
L 249.734391 280.164493 
L 249.255984 269.665186 
L 248.778176 259.172531 
L 248.29962 248.689474 
L 247.822614 238.219345 
L 247.34581 227.769425 
L 246.866905 217.354317 
L 246.394245 206.991723 
L 245.919331 196.75581 
L 245.449444 186.888019 
L 245.025226 177.989456 
L 245.025226 177.989456 
L 244.810325 172.879457 
L 244.810325 172.879457 
L 244.701134 170.092891 
L 244.626061 168.156465 
L 244.570608 166.726115 
L 244.530735 165.697621 
L 244.504679 165.02555 
L 244.490001 164.646942 
L 244.482582 164.455577 
L 244.478832 164.358853 
L 244.476937 164.309964 
L 244.475979 164.285254 
L 244.475495 164.272765 
L 244.47525 164.266452 
L 244.475126 164.263261 
L 244.475064 164.261648 
L 244.475032 164.260833 
L 244.475016 164.260421 
L 244.475008 164.260213 
L 244.475004 164.260108 
L 244.475002 164.260054 
L 244.475001 164.260027 
L 244.475001 164.260014 
L 244.475 164.260007 
L 244.475 164.260004 
L 244.475 164.260002 
L 244.475 164.260001 
L 244.475 164.26 
L 244.475 164.26 
L 244.475 164.26 
L 244.475 164.26 
L 244.475 164.26 
L 244.475 164.26 
L 244.475 164.26 
L 244.475 164.26 
L 244.475 164.26 
L 244.475 164.26 
L 244.475 164.26 
L 244.475 164.26 
L 244.475 164.26 
L 244.475 164.26 
L 244.475 164.26 
L 244.475 164.26 
L 244.475 164.26 
L 244.475 164.26 
L 244.475 164.26 
L 244.475 164.26 
L 244.475 164.26 
L 244.475 164.26 
" clip-path="url(#p6ee9bc15c8)" style="fill: none; stroke: #1f77b4; stroke-width: 1.5"/>
    <path d="M 265.992739 322.202308 
L 265.992739 322.202308 
L 264.570074 311.743628 
L 263.146314 301.286661 
L 261.724236 290.830555 
L 260.301087 280.375011 
L 258.876928 269.918881 
" clip-path="url(#p6ee9bc15c8)" style="fill: none; stroke: #1f77b4; stroke-width: 1.5"/>
    <path d="M 294.683057 322.202308 
L 294.683057 322.202308 
L 291.434866 311.977817 
L 288.187193 301.758004 
L 284.943146 291.539447 
L 281.695001 281.32062 
L 278.441602 271.096231 
L 275.184151 260.871838 
L 271.929727 250.662768 
L 268.698921 240.470257 
L 265.477718 230.297857 
L 262.265717 220.141441 
L 259.052552 209.986384 
" clip-path="url(#p6ee9bc15c8)" style="fill: none; stroke: #1f77b4; stroke-width: 1.5"/>
    <path d="M 323.373375 322.202308 
L 323.373375 322.202308 
L 318.456661 312.362943 
L 313.542601 302.528717 
L 308.636687 292.697722 
L 303.726399 282.868067 
L 298.809261 273.032059 
L 293.893479 263.201591 
L 288.995322 253.38527 
L 284.106392 243.573791 
L 279.190401 233.762639 
L 274.280167 223.952191 
" clip-path="url(#p6ee9bc15c8)" style="fill: none; stroke: #1f77b4; stroke-width: 1.5"/>
    <path d="M 352.063694 322.202308 
L 352.063694 322.202308 
L 345.699293 312.856017 
L 339.330492 303.511358 
L 332.969087 294.169156 
L 326.608666 284.829951 
L 320.238903 275.488453 
L 313.872492 266.152115 
L 307.528645 256.817982 
L 301.168108 247.486016 
L 294.810534 238.156997 
L 288.481964 228.844013 
" clip-path="url(#p6ee9bc15c8)" style="fill: none; stroke: #1f77b4; stroke-width: 1.5"/>
    <path d="M 380.754012 322.202308 
L 380.754012 322.202308 
L 373.164132 313.399993 
L 365.56802 304.598393 
L 357.972572 295.798077 
L 350.385701 286.999823 
L 342.787636 278.202512 
L 335.193331 269.4078 
L 327.612963 260.615382 
L 320.016962 251.826763 
L 312.43367 243.040822 
L 304.865433 234.262983 
" clip-path="url(#p6ee9bc15c8)" style="fill: none; stroke: #1f77b4; stroke-width: 1.5"/>
    <path d="M 409.44433 322.202308 
L 409.44433 322.202308 
L 400.831856 313.956404 
L 392.224561 305.710115 
L 383.613764 297.465551 
L 375.007736 289.220679 
L 366.397637 280.978015 
L 357.790274 272.735243 
L 349.189885 264.49479 
L 340.584795 256.255258 
L 331.986522 248.019799 
L 323.389269 239.784478 
" clip-path="url(#p6ee9bc15c8)" style="fill: none; stroke: #1f77b4; stroke-width: 1.5"/>
    <path d="M 438.134649 322.202308 
L 438.134649 322.202308 
L 428.689984 314.49896 
L 419.246779 306.796315 
L 409.802141 299.094857 
L 400.35844 291.394521 
L 390.918335 283.69438 
L 381.477442 275.996406 
L 372.041436 268.298249 
L 362.600903 260.604079 
L 353.167544 252.908688 
" clip-path="url(#p6ee9bc15c8)" style="fill: none; stroke: #1f77b4; stroke-width: 1.5"/>
    <path d="M 452.479808 322.202308 
L 452.479808 322.202308 
L 442.6781 314.759671 
L 432.877809 307.318109 
L 423.078087 299.87698 
L 413.280113 292.437178 
L 403.482355 284.997539 
" clip-path="url(#p6ee9bc15c8)" style="fill: none; stroke: #1f77b4; stroke-width: 1.5"/>
    <path d="M 452.479808 311.309735 
L 452.479808 311.309735 
L 442.334753 304.138207 
L 432.190624 296.967789 
L 422.048057 289.796282 
L 411.906969 282.625487 
" clip-path="url(#p6ee9bc15c8)" style="fill: none; stroke: #1f77b4; stroke-width: 1.5"/>
    <path d="M 452.479808 300.417162 
L 452.479808 300.417162 
L 441.980854 293.547894 
L 431.483125 286.677078 
L 420.986468 279.807948 
L 410.491481 272.936414 
L 399.998088 266.065889 
L 389.505267 259.199735 
L 379.015769 252.33198 
L 368.527636 245.469353 
L 358.045601 238.599037 
L 347.566021 231.734926 
L 337.090915 224.876719 
L 326.624493 218.02139 
L 316.16428 211.18366 
L 305.73103 204.330648 
L 295.307225 197.522007 
L 284.949401 190.690334 
L 274.63742 184.002117 
L 264.59015 177.385536 
" clip-path="url(#p6ee9bc15c8)" style="fill: none; stroke: #1f77b4; stroke-width: 1.5"/>
    <path d="M 452.479808 278.632016 
L 452.479808 278.632016 
L 441.254175 272.458496 
L 430.02895 266.286437 
L 418.805334 260.118908 
L 407.582831 253.948036 
L 396.362735 247.780202 
L 385.143745 241.614042 
L 373.928859 235.445511 
L 362.71622 229.2864 
L 351.509696 223.116097 
L 340.307552 216.952891 
" clip-path="url(#p6ee9bc15c8)" style="fill: none; stroke: #1f77b4; stroke-width: 1.5"/>
    <path d="M 452.479808 256.84687 
L 452.479808 256.84687 
L 440.523753 251.524874 
L 428.571216 246.207617 
L 416.619118 240.887365 
L 404.669969 235.564842 
L 392.723703 230.250281 
L 380.780969 224.932623 
" clip-path="url(#p6ee9bc15c8)" style="fill: none; stroke: #1f77b4; stroke-width: 1.5"/>
    <path d="M 452.479808 235.061724 
L 452.479808 235.061724 
L 439.837145 230.761889 
L 427.197399 226.460812 
L 414.554167 222.152996 
L 401.916102 217.845511 
L 389.283482 213.551591 
L 376.654177 209.254793 
L 364.019268 204.950442 
L 351.395984 200.652389 
L 338.796724 196.370715 
L 326.197344 192.087708 
L 313.617122 187.771791 
L 301.071182 183.520375 
L 288.627389 179.329903 
" clip-path="url(#p6ee9bc15c8)" style="fill: none; stroke: #1f77b4; stroke-width: 1.5"/>
    <path d="M 452.479808 213.276578 
L 452.479808 213.276578 
L 439.249552 210.162027 
L 426.017293 207.041089 
L 412.783502 203.919322 
L 399.55944 200.800744 
L 386.342953 197.693085 
L 373.131622 194.587027 
L 359.920441 191.470538 
L 346.700808 188.346408 
L 333.507001 185.224866 
L 320.352167 182.142944 
L 307.240472 179.081602 
" clip-path="url(#p6ee9bc15c8)" style="fill: none; stroke: #1f77b4; stroke-width: 1.5"/>
    <path d="M 452.479808 191.491432 
L 452.479808 191.491432 
L 438.820189 189.702312 
L 425.160884 187.910316 
L 411.508295 186.121815 
L 397.866247 184.33522 
L 384.234523 182.55225 
L 370.612626 180.773424 
L 357.001398 178.994355 
" clip-path="url(#p6ee9bc15c8)" style="fill: none; stroke: #1f77b4; stroke-width: 1.5"/>
    <path d="M 452.479808 169.706286 
L 452.479808 169.706286 
L 438.633493 169.343222 
L 424.790458 168.979769 
L 410.951339 168.616762 
L 397.117393 168.253563 
L 383.290153 167.890299 
L 369.471671 167.527489 
L 355.665831 167.164112 
L 341.877016 166.801912 
L 328.114817 166.439865 
L 314.398464 166.076222 
L 300.751269 165.717322 
L 287.27091 165.35671 
L 274.275354 164.999915 
L 262.55624 164.677798 
L 262.55624 164.677798 
" clip-path="url(#p6ee9bc15c8)" style="fill: none; stroke: #1f77b4; stroke-width: 1.5"/>
    <path d="M 452.479808 158.813714 
L 452.479808 158.813714 
L 438.633493 159.176778 
L 424.790458 159.540231 
L 410.951339 159.903238 
L 397.117393 160.266437 
L 383.290153 160.629701 
L 369.471671 160.992511 
L 355.665831 161.355888 
L 341.877016 161.718088 
L 328.114817 162.080135 
L 314.398464 162.443778 
L 300.751269 162.802678 
L 287.27091 163.16329 
L 274.275354 163.520085 
L 262.55624 163.842202 
L 262.55624 163.842202 
L 255.82654 164.005381 
L 255.82654 164.005381 
L 252.156726 164.088292 
L 249.606516 164.145296 
L 247.722792 164.187403 
L 246.3683 164.217679 
L 245.483204 164.237464 
L 244.984589 164.248609 
L 244.732568 164.254243 
L 244.605186 164.25709 
L 244.540801 164.258529 
L 244.508259 164.259257 
L 244.49181 164.259624 
L 244.483497 164.25981 
L 244.479295 164.259904 
L 244.477171 164.259951 
L 244.476097 164.259975 
L 244.475555 164.259988 
L 244.47528 164.259994 
L 244.475142 164.259997 
L 244.475072 164.259998 
L 244.475036 164.259999 
L 244.475018 164.26 
L 244.475009 164.26 
L 244.475005 164.26 
L 244.475002 164.26 
L 244.475001 164.26 
L 244.475001 164.26 
L 244.475 164.26 
L 244.475 164.26 
L 244.475 164.26 
L 244.475 164.26 
L 244.475 164.26 
L 244.475 164.26 
L 244.475 164.26 
L 244.475 164.26 
L 244.475 164.26 
L 244.475 164.26 
L 244.475 164.26 
L 244.475 164.26 
L 244.475 164.26 
L 244.475 164.26 
L 244.475 164.26 
L 244.475 164.26 
L 244.475 164.26 
L 244.475 164.26 
L 244.475 164.26 
L 244.475 164.26 
L 244.475 164.26 
" clip-path="url(#p6ee9bc15c8)" style="fill: none; stroke: #1f77b4; stroke-width: 1.5"/>
    <path d="M 452.479808 147.921141 
L 452.479808 147.921141 
L 438.706072 149.001399 
L 424.934592 150.082489 
L 411.164245 151.162302 
L 397.394638 152.242928 
L 383.62426 153.324321 
" clip-path="url(#p6ee9bc15c8)" style="fill: none; stroke: #1f77b4; stroke-width: 1.5"/>
    <path d="M 452.479808 126.135995 
L 452.479808 126.135995 
L 439.014491 128.602413 
L 425.555334 131.068437 
L 412.097832 133.531708 
L 398.639974 135.998092 
L 385.174792 138.468464 
L 371.709602 140.941913 
L 358.264594 143.413064 
L 344.841394 145.866281 
L 331.444679 148.312207 
L 318.069013 150.751144 
L 304.695139 153.190966 
" clip-path="url(#p6ee9bc15c8)" style="fill: none; stroke: #1f77b4; stroke-width: 1.5"/>
    <path d="M 452.479808 104.350849 
L 452.479808 104.350849 
L 439.521689 108.08421 
L 426.570339 111.815557 
L 413.623241 115.540718 
L 400.677911 119.2692 
L 387.724213 123.002884 
L 374.777811 126.735537 
L 361.850039 130.454809 
L 348.928645 134.167073 
L 336.007683 137.899885 
L 323.087646 141.628327 
" clip-path="url(#p6ee9bc15c8)" style="fill: none; stroke: #1f77b4; stroke-width: 1.5"/>
    <path d="M 452.479808 82.565703 
L 452.479808 82.565703 
L 440.171051 87.398323 
L 427.864444 92.234284 
L 415.561072 97.064629 
L 403.261648 101.894226 
L 390.959203 106.730918 
L 378.663553 111.565064 
L 366.370809 116.382077 
L 354.080916 121.211763 
L 341.794906 126.039199 
L 329.530015 130.844612 
" clip-path="url(#p6ee9bc15c8)" style="fill: none; stroke: #1f77b4; stroke-width: 1.5"/>
    <path d="M 452.479808 60.780557 
L 452.479808 60.780557 
L 440.88745 66.543708 
L 429.296033 72.311592 
L 417.706308 78.078971 
L 406.119296 83.839837 
L 394.533529 89.609203 
L 382.951182 95.375714 
L 371.371859 101.131643 
L 359.797538 106.899442 
L 348.226743 112.657591 
L 336.666618 118.404308 
" clip-path="url(#p6ee9bc15c8)" style="fill: none; stroke: #1f77b4; stroke-width: 1.5"/>
    <path d="M 452.479808 38.995411 
L 452.479808 38.995411 
L 441.620224 45.535039 
L 430.760134 52.070735 
L 419.902316 58.609089 
L 409.044092 65.143822 
L 398.188774 71.681646 
L 387.333316 78.217393 
L 376.480912 84.747844 
L 365.62972 91.281866 
L 354.783892 97.81071 
L 343.938245 104.33878 
" clip-path="url(#p6ee9bc15c8)" style="fill: none; stroke: #1f77b4; stroke-width: 1.5"/>
    <path d="M 452.479808 17.210265 
L 452.479808 17.210265 
L 442.334753 24.381793 
L 432.190624 31.552211 
L 422.048057 38.723718 
L 411.906969 45.894513 
L 401.766138 53.062578 
L 391.62816 60.231242 
L 381.489942 67.396194 
L 371.356973 74.564584 
L 361.222398 81.727526 
" clip-path="url(#p6ee9bc15c8)" style="fill: none; stroke: #1f77b4; stroke-width: 1.5"/>
    <path d="M 452.479808 6.317692 
L 452.479808 6.317692 
L 442.6781 13.760329 
L 432.877809 21.201891 
L 423.078087 28.64302 
L 413.280113 36.082822 
L 403.482355 43.522461 
" clip-path="url(#p6ee9bc15c8)" style="fill: none; stroke: #1f77b4; stroke-width: 1.5"/>
    <path d="M 438.134649 6.317692 
L 438.134649 6.317692 
L 428.689984 14.02104 
L 419.246779 21.723685 
L 409.802141 29.425143 
L 400.35844 37.125479 
" clip-path="url(#p6ee9bc15c8)" style="fill: none; stroke: #1f77b4; stroke-width: 1.5"/>
    <path d="M 423.789489 6.317692 
L 423.789489 6.317692 
L 414.742891 14.289763 
L 405.694252 22.260903 
L 396.647835 30.231229 
L 387.598251 38.200288 
L 378.549997 46.168136 
L 369.507499 54.13555 
L 360.462892 62.10044 
L 351.425038 70.064295 
L 342.377059 78.023518 
L 333.337251 85.980878 
L 324.305219 93.93484 
L 315.276977 101.882209 
L 306.271912 109.824862 
L 297.246721 117.747043 
L 288.279966 125.662051 
L 279.282878 133.526959 
L 270.474717 141.357057 
L 261.760898 148.986155 
" clip-path="url(#p6ee9bc15c8)" style="fill: none; stroke: #1f77b4; stroke-width: 1.5"/>
    <path d="M 395.099171 6.317692 
L 395.099171 6.317692 
L 386.968849 14.841545 
L 378.84045 23.365088 
L 370.718019 31.887409 
L 362.591184 40.408886 
L 354.468351 48.928534 
L 346.347721 57.447343 
L 338.223969 65.963035 
L 330.112623 74.477021 
L 321.986537 82.986365 
L 313.869799 91.492382 
" clip-path="url(#p6ee9bc15c8)" style="fill: none; stroke: #1f77b4; stroke-width: 1.5"/>
    <path d="M 366.408853 6.317692 
L 366.408853 6.317692 
L 359.39996 15.396169 
L 352.397308 24.471975 
L 345.390711 33.547448 
L 338.381124 42.620682 
L 331.382022 51.691726 
L 324.378842 60.760088 
" clip-path="url(#p6ee9bc15c8)" style="fill: none; stroke: #1f77b4; stroke-width: 1.5"/>
    <path d="M 337.718534 6.317692 
L 337.718534 6.317692 
L 332.055793 15.917525 
L 326.391417 25.515142 
L 320.718166 35.115407 
L 315.04535 44.711749 
L 309.390399 54.303956 
L 303.731658 63.893646 
L 298.062969 73.48759 
L 292.402575 83.072709 
L 286.763753 92.639584 
L 281.123174 102.206552 
L 275.439253 111.758971 
L 269.840279 121.285361 
L 264.321565 130.734187 
" clip-path="url(#p6ee9bc15c8)" style="fill: none; stroke: #1f77b4; stroke-width: 1.5"/>
    <path d="M 309.028216 6.317692 
L 309.028216 6.317692 
L 304.926455 16.363696 
L 300.816282 26.411222 
L 296.705018 36.459909 
L 292.597954 46.501211 
L 288.505269 56.53676 
L 284.414694 66.568393 
L 280.310381 76.599914 
L 276.196004 86.637852 
L 272.085037 96.65618 
L 268.026247 106.644914 
L 263.994561 116.600892 
" clip-path="url(#p6ee9bc15c8)" style="fill: none; stroke: #1f77b4; stroke-width: 1.5"/>
    <path d="M 280.337898 6.317692 
L 280.337898 6.317692 
L 277.981685 16.68972 
L 275.621686 27.06151 
L 273.266289 37.4282 
L 270.913402 47.786886 
L 268.565289 58.137733 
L 266.222634 68.481119 
L 263.879659 78.816403 
" clip-path="url(#p6ee9bc15c8)" style="fill: none; stroke: #1f77b4; stroke-width: 1.5"/>
    <path d="M 251.64758 6.317692 
L 251.64758 6.317692 
L 251.169435 16.831482 
L 250.69078 27.342782 
L 250.212712 37.851108 
L 249.734391 48.355507 
L 249.255984 58.854814 
L 248.778176 69.347469 
L 248.29962 79.830526 
L 247.822614 90.300655 
L 247.34581 100.750575 
L 246.866905 111.165683 
L 246.394245 121.528277 
L 245.919331 131.76419 
L 245.449444 141.631981 
L 245.025226 150.530544 
L 245.025226 150.530544 
" clip-path="url(#p6ee9bc15c8)" style="fill: none; stroke: #1f77b4; stroke-width: 1.5"/>
    <path d="M 237.30242 6.317692 
L 237.30242 6.317692 
L 237.780565 16.831482 
L 238.25922 27.342782 
L 238.737288 37.851108 
L 239.215609 48.355507 
L 239.694016 58.854814 
L 240.171824 69.347469 
L 240.65038 79.830526 
L 241.127386 90.300655 
L 241.60419 100.750575 
L 242.083095 111.165683 
L 242.555755 121.528277 
L 243.030669 131.76419 
L 243.500556 141.631981 
L 243.924774 150.530544 
L 243.924774 150.530544 
L 244.139675 155.640543 
L 244.139675 155.640543 
L 244.248866 158.427109 
L 244.323939 160.363535 
L 244.379392 161.793885 
L 244.419265 162.822379 
L 244.445321 163.49445 
L 244.459999 163.873058 
L 244.467418 164.064423 
L 244.471168 164.161147 
L 244.473063 164.210036 
L 244.474021 164.234746 
L 244.474505 164.247235 
L 244.47475 164.253548 
L 244.474874 164.256739 
L 244.474936 164.258352 
L 244.474968 164.259167 
L 244.474984 164.259579 
L 244.474992 164.259787 
L 244.474996 164.259892 
L 244.474998 164.259946 
L 244.474999 164.259973 
L 244.474999 164.259986 
L 244.475 164.259993 
L 244.475 164.259996 
L 244.475 164.259998 
L 244.475 164.259999 
L 244.475 164.26 
L 244.475 164.26 
L 244.475 164.26 
L 244.475 164.26 
L 244.475 164.26 
L 244.475 164.26 
L 244.475 164.26 
L 244.475 164.26 
L 244.475 164.26 
L 244.475 164.26 
L 244.475 164.26 
L 244.475 164.26 
L 244.475 164.26 
L 244.475 164.26 
L 244.475 164.26 
L 244.475 164.26 
L 244.475 164.26 
L 244.475 164.26 
L 244.475 164.26 
L 244.475 164.26 
L 244.475 164.26 
L 244.475 164.26 
" clip-path="url(#p6ee9bc15c8)" style="fill: none; stroke: #1f77b4; stroke-width: 1.5"/>
    <path d="M 222.957261 6.317692 
L 222.957261 6.317692 
L 224.379926 16.776372 
L 225.803686 27.233339 
L 227.225764 37.689445 
L 228.648913 48.144989 
L 230.073072 58.601119 
" clip-path="url(#p6ee9bc15c8)" style="fill: none; stroke: #1f77b4; stroke-width: 1.5"/>
    <path d="M 194.266943 6.317692 
L 194.266943 6.317692 
L 197.515134 16.542183 
L 200.762807 26.761996 
L 204.006854 36.980553 
L 207.254999 47.19938 
L 210.508398 57.423769 
L 213.765849 67.648162 
L 217.020273 77.857232 
L 220.251079 88.049743 
L 223.472282 98.222143 
L 226.684283 108.378559 
L 229.897448 118.533616 
" clip-path="url(#p6ee9bc15c8)" style="fill: none; stroke: #1f77b4; stroke-width: 1.5"/>
    <path d="M 165.576625 6.317692 
L 165.576625 6.317692 
L 170.493339 16.157057 
L 175.407399 25.991283 
L 180.313313 35.822278 
L 185.223601 45.651933 
L 190.140739 55.487941 
L 195.056521 65.318409 
L 199.954678 75.13473 
L 204.843608 84.946209 
L 209.759599 94.757361 
L 214.669833 104.567809 
" clip-path="url(#p6ee9bc15c8)" style="fill: none; stroke: #1f77b4; stroke-width: 1.5"/>
    <path d="M 136.886306 6.317692 
L 136.886306 6.317692 
L 143.250707 15.663983 
L 149.619508 25.008642 
L 155.980913 34.350844 
L 162.341334 43.690049 
L 168.711097 53.031547 
L 175.077508 62.367885 
L 181.421355 71.702018 
L 187.781892 81.033984 
L 194.139466 90.363003 
L 200.468036 99.675987 
" clip-path="url(#p6ee9bc15c8)" style="fill: none; stroke: #1f77b4; stroke-width: 1.5"/>
    <path d="M 108.195988 6.317692 
L 108.195988 6.317692 
L 115.785868 15.120007 
L 123.38198 23.921607 
L 130.977428 32.721923 
L 138.564299 41.520177 
L 146.162364 50.317488 
L 153.756669 59.1122 
L 161.337037 67.904618 
L 168.933038 76.693237 
L 176.51633 85.479178 
L 184.084567 94.257017 
" clip-path="url(#p6ee9bc15c8)" style="fill: none; stroke: #1f77b4; stroke-width: 1.5"/>
    <path d="M 79.50567 6.317692 
L 79.50567 6.317692 
L 88.118144 14.563596 
L 96.725439 22.809885 
L 105.336236 31.054449 
L 113.942264 39.299321 
L 122.552363 47.541985 
L 131.159726 55.784757 
L 139.760115 64.02521 
L 148.365205 72.264742 
L 156.963478 80.500201 
L 165.560731 88.735522 
" clip-path="url(#p6ee9bc15c8)" style="fill: none; stroke: #1f77b4; stroke-width: 1.5"/>
    <path d="M 50.815351 6.317692 
L 50.815351 6.317692 
L 60.260016 14.02104 
L 69.703221 21.723685 
L 79.147859 29.425143 
L 88.59156 37.125479 
L 98.031665 44.82562 
L 107.472558 52.523594 
L 116.908564 60.221751 
L 126.349097 67.915921 
L 135.782456 75.611312 
" clip-path="url(#p6ee9bc15c8)" style="fill: none; stroke: #1f77b4; stroke-width: 1.5"/>
    <path d="M 36.470192 6.317692 
L 36.470192 6.317692 
L 46.2719 13.760329 
L 56.072191 21.201891 
L 65.871913 28.64302 
L 75.669887 36.082822 
L 85.467645 43.522461 
" clip-path="url(#p6ee9bc15c8)" style="fill: none; stroke: #1f77b4; stroke-width: 1.5"/>
    <path d="M 36.470192 17.210265 
L 36.470192 17.210265 
L 46.615247 24.381793 
L 56.759376 31.552211 
L 66.901943 38.723718 
L 77.043031 45.894513 
" clip-path="url(#p6ee9bc15c8)" style="fill: none; stroke: #1f77b4; stroke-width: 1.5"/>
    <path d="M 36.470192 28.102838 
L 36.470192 28.102838 
L 46.969146 34.972106 
L 57.466875 41.842922 
L 67.963532 48.712052 
L 78.458519 55.583586 
L 88.951912 62.454111 
L 99.444733 69.320265 
L 109.934231 76.18802 
L 120.422364 83.050647 
L 130.904399 89.920963 
L 141.383979 96.785074 
L 151.859085 103.643281 
L 162.325507 110.49861 
L 172.78572 117.33634 
L 183.21897 124.189352 
L 193.642775 130.997993 
L 204.000599 137.829666 
L 214.31258 144.517883 
L 224.35985 151.134464 
" clip-path="url(#p6ee9bc15c8)" style="fill: none; stroke: #1f77b4; stroke-width: 1.5"/>
    <path d="M 36.470192 49.887984 
L 36.470192 49.887984 
L 47.695825 56.061504 
L 58.92105 62.233563 
L 70.144666 68.401092 
L 81.367169 74.571964 
L 92.587265 80.739798 
L 103.806255 86.905958 
L 115.021141 93.074489 
L 126.23378 99.2336 
L 137.440304 105.403903 
L 148.642448 111.567109 
" clip-path="url(#p6ee9bc15c8)" style="fill: none; stroke: #1f77b4; stroke-width: 1.5"/>
    <path d="M 36.470192 71.67313 
L 36.470192 71.67313 
L 48.426247 76.995126 
L 60.378784 82.312383 
L 72.330882 87.632635 
L 84.280031 92.955158 
L 96.226297 98.269719 
L 108.169031 103.587377 
" clip-path="url(#p6ee9bc15c8)" style="fill: none; stroke: #1f77b4; stroke-width: 1.5"/>
    <path d="M 36.470192 93.458276 
L 36.470192 93.458276 
L 49.112855 97.758111 
L 61.752601 102.059188 
L 74.395833 106.367004 
L 87.033898 110.674489 
L 99.666518 114.968409 
L 112.295823 119.265207 
L 124.930732 123.569558 
L 137.554016 127.867611 
L 150.153276 132.149285 
L 162.752656 136.432292 
L 175.332878 140.748209 
L 187.878818 144.999625 
L 200.322611 149.190097 
" clip-path="url(#p6ee9bc15c8)" style="fill: none; stroke: #1f77b4; stroke-width: 1.5"/>
    <path d="M 36.470192 115.243422 
L 36.470192 115.243422 
L 49.700448 118.357973 
L 62.932707 121.478911 
L 76.166498 124.600678 
L 89.39056 127.719256 
L 102.607047 130.826915 
L 115.818378 133.932973 
L 129.029559 137.049462 
L 142.249192 140.173592 
L 155.442999 143.295134 
L 168.597833 146.377056 
L 181.709528 149.438398 
" clip-path="url(#p6ee9bc15c8)" style="fill: none; stroke: #1f77b4; stroke-width: 1.5"/>
    <path d="M 36.470192 137.028568 
L 36.470192 137.028568 
L 50.129811 138.817688 
L 63.789116 140.609684 
L 77.441705 142.398185 
L 91.083753 144.18478 
L 104.715477 145.96775 
L 118.337374 147.746576 
L 131.948602 149.525645 
" clip-path="url(#p6ee9bc15c8)" style="fill: none; stroke: #1f77b4; stroke-width: 1.5"/>
    <path d="M 36.470192 158.813714 
L 36.470192 158.813714 
L 50.316507 159.176778 
L 64.159542 159.540231 
L 77.998661 159.903238 
L 91.832607 160.266437 
L 105.659847 160.629701 
L 119.478329 160.992511 
L 133.284169 161.355888 
L 147.072984 161.718088 
L 160.835183 162.080135 
L 174.551536 162.443778 
L 188.198731 162.802678 
L 201.67909 163.16329 
L 214.674646 163.520085 
L 226.39376 163.842202 
L 226.39376 163.842202 
" clip-path="url(#p6ee9bc15c8)" style="fill: none; stroke: #1f77b4; stroke-width: 1.5"/>
    <path d="M 36.470192 169.706286 
L 36.470192 169.706286 
L 50.316507 169.343222 
L 64.159542 168.979769 
L 77.998661 168.616762 
L 91.832607 168.253563 
L 105.659847 167.890299 
L 119.478329 167.527489 
L 133.284169 167.164112 
L 147.072984 166.801912 
L 160.835183 166.439865 
L 174.551536 166.076222 
L 188.198731 165.717322 
L 201.67909 165.35671 
L 214.674646 164.999915 
L 226.39376 164.677798 
L 226.39376 164.677798 
" clip-path="url(#p6ee9bc15c8)" style="fill: none; stroke: #1f77b4; stroke-width: 1.5"/>
    <path d="M 36.470192 180.598859 
L 36.470192 180.598859 
L 50.243928 179.518601 
L 64.015408 178.437511 
L 77.785755 177.357698 
L 91.555362 176.277072 
L 105.32574 175.195679 
" clip-path="url(#p6ee9bc15c8)" style="fill: none; stroke: #1f77b4; stroke-width: 1.5"/>
    <path d="M 36.470192 202.384005 
L 36.470192 202.384005 
L 49.935509 199.917587 
L 63.394666 197.451563 
L 76.852168 194.988292 
L 90.310026 192.521908 
L 103.775208 190.051536 
L 117.240398 187.578087 
L 130.685406 185.106936 
L 144.108606 182.653719 
L 157.505321 180.207793 
L 170.880987 177.768856 
L 184.254861 175.329034 
" clip-path="url(#p6ee9bc15c8)" style="fill: none; stroke: #1f77b4; stroke-width: 1.5"/>
    <path d="M 36.470192 224.169151 
L 36.470192 224.169151 
L 49.428311 220.43579 
L 62.379661 216.704443 
L 75.326759 212.979282 
L 88.272089 209.2508 
L 101.225787 205.517116 
L 114.172189 201.784463 
L 127.099961 198.065191 
L 140.021355 194.352927 
L 152.942317 190.620115 
L 165.862354 186.891673 
" clip-path="url(#p6ee9bc15c8)" style="fill: none; stroke: #1f77b4; stroke-width: 1.5"/>
    <path d="M 36.470192 245.954297 
L 36.470192 245.954297 
L 48.778949 241.121677 
L 61.085556 236.285716 
L 73.388928 231.455371 
L 85.688352 226.625774 
L 97.990797 221.789082 
L 110.286447 216.954936 
L 122.579191 212.137923 
L 134.869084 207.308237 
L 147.155094 202.480801 
L 159.419985 197.675388 
" clip-path="url(#p6ee9bc15c8)" style="fill: none; stroke: #1f77b4; stroke-width: 1.5"/>
    <path d="M 36.470192 267.739443 
L 36.470192 267.739443 
L 48.06255 261.976292 
L 59.653967 256.208408 
L 71.243692 250.441029 
L 82.830704 244.680163 
L 94.416471 238.910797 
L 105.998818 233.144286 
L 117.578141 227.388357 
L 129.152462 221.620558 
L 140.723257 215.862409 
L 152.283382 210.115692 
" clip-path="url(#p6ee9bc15c8)" style="fill: none; stroke: #1f77b4; stroke-width: 1.5"/>
    <path d="M 36.470192 289.524589 
L 36.470192 289.524589 
L 47.329776 282.984961 
L 58.189866 276.449265 
L 69.047684 269.910911 
L 79.905908 263.376178 
L 90.761226 256.838354 
L 101.616684 250.302607 
L 112.469088 243.772156 
L 123.32028 237.238134 
L 134.166108 230.70929 
L 145.011755 224.18122 
" clip-path="url(#p6ee9bc15c8)" style="fill: none; stroke: #1f77b4; stroke-width: 1.5"/>
    <path d="M 36.470192 311.309735 
L 36.470192 311.309735 
L 46.615247 304.138207 
L 56.759376 296.967789 
L 66.901943 289.796282 
L 77.043031 282.625487 
" clip-path="url(#p6ee9bc15c8)" style="fill: none; stroke: #1f77b4; stroke-width: 1.5"/>
    <path d="M 221.365644 322.202308 
L 221.430261 321.759675 
L 222.957261 311.309735 
L 224.485102 300.862124 
L 226.010655 290.416004 
" clip-path="url(#p6ee9bc15c8)" style="fill: none; stroke: #1f77b4; stroke-width: 1.5"/>
    <path d="M 452.479808 181.807407 
L 451.896875 181.758342 
L 438.134649 180.598859 
L 424.37549 179.438739 
L 410.618295 178.280355 
" clip-path="url(#p6ee9bc15c8)" style="fill: none; stroke: #1f77b4; stroke-width: 1.5"/>
    <path d="M 267.584356 6.317692 
L 267.519739 6.760325 
L 265.992739 17.210265 
L 264.464898 27.657876 
L 262.939345 38.103996 
" clip-path="url(#p6ee9bc15c8)" style="fill: none; stroke: #1f77b4; stroke-width: 1.5"/>
    <path d="M 36.470192 146.712593 
L 37.053125 146.761658 
L 50.815351 147.921141 
L 64.57451 149.081261 
L 78.331705 150.239645 
" clip-path="url(#p6ee9bc15c8)" style="fill: none; stroke: #1f77b4; stroke-width: 1.5"/>
    <path d="M 163.083407 322.202308 
L 164.780424 318.910501 
L 169.833361 309.111514 
L 174.883696 299.316761 
L 179.921784 289.524589 
" clip-path="url(#p6ee9bc15c8)" style="fill: none; stroke: #1f77b4; stroke-width: 1.5"/>
    <path d="M 452.479808 226.062302 
L 448.144607 224.773723 
L 435.239664 220.936924 
L 422.340298 217.102101 
L 409.44433 213.276578 
" clip-path="url(#p6ee9bc15c8)" style="fill: none; stroke: #1f77b4; stroke-width: 1.5"/>
    <path d="M 325.866593 6.317692 
L 324.169576 9.609499 
L 319.116639 19.408486 
L 314.066304 29.203239 
L 309.028216 38.995411 
" clip-path="url(#p6ee9bc15c8)" style="fill: none; stroke: #1f77b4; stroke-width: 1.5"/>
    <path d="M 36.470192 102.457698 
L 40.805393 103.746277 
L 53.710336 107.583076 
L 66.609702 111.417899 
L 79.50567 115.243422 
" clip-path="url(#p6ee9bc15c8)" style="fill: none; stroke: #1f77b4; stroke-width: 1.5"/>
    <path d="M 87.552361 270.876567 
L 97.875114 263.862192 
L 108.195988 256.84687 
L 118.513999 249.833134 
L 128.831946 242.82567 
" clip-path="url(#p6ee9bc15c8)" style="fill: none; stroke: #1f77b4; stroke-width: 1.5"/>
    <path d="M 357.288637 249.921704 
L 347.502174 242.490642 
L 337.718534 235.061724 
L 327.943214 227.639123 
L 318.169532 220.217766 
" clip-path="url(#p6ee9bc15c8)" style="fill: none; stroke: #1f77b4; stroke-width: 1.5"/>
    <path d="M 357.288637 78.598296 
L 347.502174 86.029358 
L 337.718534 93.458276 
L 327.943214 100.880877 
L 318.169532 108.302234 
" clip-path="url(#p6ee9bc15c8)" style="fill: none; stroke: #1f77b4; stroke-width: 1.5"/>
    <path d="M 131.661363 78.598296 
L 141.447826 86.029358 
L 151.231466 93.458276 
L 161.006786 100.880877 
L 170.780468 108.302234 
" clip-path="url(#p6ee9bc15c8)" style="fill: none; stroke: #1f77b4; stroke-width: 1.5"/>
   </g>
   <g id="patch_3">
    <path d="M 136.034772 246.600885 
Q 136.887346 245.953508 136.404278 246.320311 
" clip-path="url(#p6ee9bc15c8)" style="fill: none; stroke: #1f77b4; stroke-width: 1.5; stroke-linecap: round"/>
    <path d="M 132.009107 247.146426 
L 136.404278 246.320311 
L 134.428067 250.332117 
z
" clip-path="url(#p6ee9bc15c8)" style="fill: #1f77b4; stroke: #1f77b4; stroke-width: 1.5; stroke-linecap: round"/>
   </g>
   <g id="patch_4">
    <path d="M 61.811598 313.233364 
Q 62.62113 312.573044 62.131104 312.972749 
" clip-path="url(#p6ee9bc15c8)" style="fill: none; stroke: #1f77b4; stroke-width: 1.5; stroke-linecap: round"/>
    <path d="M 57.767327 313.951242 
L 62.131104 312.972749 
L 60.295633 317.050866 
z
" clip-path="url(#p6ee9bc15c8)" style="fill: #1f77b4; stroke: #1f77b4; stroke-width: 1.5; stroke-linecap: round"/>
   </g>
   <g id="patch_5">
    <path d="M 111.898991 281.031094 
Q 112.658984 280.361459 112.160683 280.800516 
" clip-path="url(#p6ee9bc15c8)" style="fill: none; stroke: #1f77b4; stroke-width: 1.5; stroke-linecap: round"/>
    <path d="M 107.837285 281.944298 
L 112.160683 280.800516 
L 110.48167 284.945502 
z
" clip-path="url(#p6ee9bc15c8)" style="fill: #1f77b4; stroke: #1f77b4; stroke-width: 1.5; stroke-linecap: round"/>
   </g>
   <g id="patch_6">
    <path d="M 127.73708 286.66552 
Q 128.388216 285.982574 127.882102 286.513413 
" clip-path="url(#p6ee9bc15c8)" style="fill: none; stroke: #1f77b4; stroke-width: 1.5; stroke-linecap: round"/>
    <path d="M 123.674377 288.028355 
L 127.882102 286.513413 
L 126.569421 290.788558 
z
" clip-path="url(#p6ee9bc15c8)" style="fill: #1f77b4; stroke: #1f77b4; stroke-width: 1.5; stroke-linecap: round"/>
   </g>
   <g id="patch_7">
    <path d="M 137.775768 302.463805 
Q 138.304628 301.778785 137.808634 302.421235 
" clip-path="url(#p6ee9bc15c8)" style="fill: none; stroke: #1f77b4; stroke-width: 1.5; stroke-linecap: round"/>
    <path d="M 133.781115 304.365222 
L 137.808634 302.421235 
L 136.947312 306.809643 
z
" clip-path="url(#p6ee9bc15c8)" style="fill: #1f77b4; stroke: #1f77b4; stroke-width: 1.5; stroke-linecap: round"/>
   </g>
   <g id="patch_8">
    <path d="M 191.902751 253.312424 
Q 192.302326 252.635798 191.849131 253.403222 
" clip-path="url(#p6ee9bc15c8)" style="fill: none; stroke: #1f77b4; stroke-width: 1.5; stroke-linecap: round"/>
    <path d="M 188.093025 255.830498 
L 191.849131 253.403222 
L 191.537288 257.864473 
z
" clip-path="url(#p6ee9bc15c8)" style="fill: #1f77b4; stroke: #1f77b4; stroke-width: 1.5; stroke-linecap: round"/>
   </g>
   <g id="patch_9">
    <path d="M 201.200728 270.129249 
Q 201.468281 269.473109 201.102608 270.369877 
" clip-path="url(#p6ee9bc15c8)" style="fill: none; stroke: #1f77b4; stroke-width: 1.5; stroke-linecap: round"/>
    <path d="M 197.740325 273.318614 
L 201.102608 270.369877 
L 201.444228 274.828945 
z
" clip-path="url(#p6ee9bc15c8)" style="fill: #1f77b4; stroke: #1f77b4; stroke-width: 1.5; stroke-linecap: round"/>
   </g>
   <g id="patch_10">
    <path d="M 216.1266 289.141959 
Q 216.271663 288.503312 216.045261 289.50006 
" clip-path="url(#p6ee9bc15c8)" style="fill: none; stroke: #1f77b4; stroke-width: 1.5; stroke-linecap: round"/>
    <path d="M 213.208942 292.957703 
L 216.045261 289.50006 
L 217.109584 293.8437 
z
" clip-path="url(#p6ee9bc15c8)" style="fill: #1f77b4; stroke: #1f77b4; stroke-width: 1.5; stroke-linecap: round"/>
   </g>
   <g id="patch_11">
    <path d="M 240.263072 257.173686 
Q 240.291478 256.551433 240.243406 257.604486 
" clip-path="url(#p6ee9bc15c8)" style="fill: none; stroke: #1f77b4; stroke-width: 1.5; stroke-linecap: round"/>
    <path d="M 238.063075 261.509119 
L 240.243406 257.604486 
L 242.058914 261.69153 
z
" clip-path="url(#p6ee9bc15c8)" style="fill: #1f77b4; stroke: #1f77b4; stroke-width: 1.5; stroke-linecap: round"/>
   </g>
   <g id="patch_12">
    <path d="M 248.208667 246.693094 
Q 248.180353 246.071608 248.228364 247.125436 
" clip-path="url(#p6ee9bc15c8)" style="fill: none; stroke: #1f77b4; stroke-width: 1.5; stroke-linecap: round"/>
    <path d="M 246.412483 251.212314 
L 248.228364 247.125436 
L 250.408338 251.030268 
z
" clip-path="url(#p6ee9bc15c8)" style="fill: #1f77b4; stroke: #1f77b4; stroke-width: 1.5; stroke-linecap: round"/>
   </g>
   <g id="patch_13">
    <path d="M 262.87655 299.303167 
Q 262.790579 298.671048 262.930614 299.700682 
" clip-path="url(#p6ee9bc15c8)" style="fill: none; stroke: #1f77b4; stroke-width: 1.5; stroke-linecap: round"/>
    <path d="M 261.487914 303.933721 
L 262.930614 299.700682 
L 265.451425 303.394665 
z
" clip-path="url(#p6ee9bc15c8)" style="fill: #1f77b4; stroke: #1f77b4; stroke-width: 1.5; stroke-linecap: round"/>
   </g>
   <g id="patch_14">
    <path d="M 277.834806 269.191639 
Q 277.627726 268.54166 277.929734 269.489596 
" clip-path="url(#p6ee9bc15c8)" style="fill: none; stroke: #1f77b4; stroke-width: 1.5; stroke-linecap: round"/>
    <path d="M 277.238359 273.907966 
L 277.929734 269.489596 
L 281.049606 272.693719 
z
" clip-path="url(#p6ee9bc15c8)" style="fill: #1f77b4; stroke: #1f77b4; stroke-width: 1.5; stroke-linecap: round"/>
   </g>
   <g id="patch_15">
    <path d="M 302.832046 281.079047 
Q 302.496748 280.408332 302.911344 281.23767 
" clip-path="url(#p6ee9bc15c8)" style="fill: none; stroke: #1f77b4; stroke-width: 1.5; stroke-linecap: round"/>
    <path d="M 302.911029 285.709806 
L 302.911344 281.23767 
L 306.488864 283.921204 
z
" clip-path="url(#p6ee9bc15c8)" style="fill: #1f77b4; stroke: #1f77b4; stroke-width: 1.5; stroke-linecap: round"/>
   </g>
   <g id="patch_16">
    <path d="M 325.481206 283.176488 
Q 325.016076 282.494357 325.495747 283.197814 
" clip-path="url(#p6ee9bc15c8)" style="fill: none; stroke: #1f77b4; stroke-width: 1.5; stroke-linecap: round"/>
    <path d="M 326.096821 287.629372 
L 325.495747 283.197814 
L 329.401638 285.37589 
z
" clip-path="url(#p6ee9bc15c8)" style="fill: #1f77b4; stroke: #1f77b4; stroke-width: 1.5; stroke-linecap: round"/>
   </g>
   <g id="patch_17">
    <path d="M 349.077929 285.485637 
Q 348.485525 284.799731 348.989307 285.383027 
" clip-path="url(#p6ee9bc15c8)" style="fill: none; stroke: #1f77b4; stroke-width: 1.5; stroke-linecap: round"/>
    <path d="M 350.09025 289.717531 
L 348.989307 285.383027 
L 353.117476 287.102975 
z
" clip-path="url(#p6ee9bc15c8)" style="fill: #1f77b4; stroke: #1f77b4; stroke-width: 1.5; stroke-linecap: round"/>
   </g>
   <g id="patch_18">
    <path d="M 373.563611 287.838182 
Q 372.855364 287.16016 373.358539 287.641861 
" clip-path="url(#p6ee9bc15c8)" style="fill: none; stroke: #1f77b4; stroke-width: 1.5; stroke-linecap: round"/>
    <path d="M 374.864895 291.852668 
L 373.358539 287.641861 
L 377.630998 288.96326 
z
" clip-path="url(#p6ee9bc15c8)" style="fill: #1f77b4; stroke: #1f77b4; stroke-width: 1.5; stroke-linecap: round"/>
   </g>
   <g id="patch_19">
    <path d="M 398.807368 290.129337 
Q 397.998102 289.469232 398.488391 289.869153 
" clip-path="url(#p6ee9bc15c8)" style="fill: none; stroke: #1f77b4; stroke-width: 1.5; stroke-linecap: round"/>
    <path d="M 400.323857 293.947273 
L 398.488391 289.869153 
L 402.852167 290.847653 
z
" clip-path="url(#p6ee9bc15c8)" style="fill: #1f77b4; stroke: #1f77b4; stroke-width: 1.5; stroke-linecap: round"/>
   </g>
   <g id="patch_20">
    <path d="M 431.28679 306.110016 
Q 430.428882 305.458589 430.906616 305.821342 
" clip-path="url(#p6ee9bc15c8)" style="fill: none; stroke: #1f77b4; stroke-width: 1.5; stroke-linecap: round"/>
    <path d="M 432.882827 309.833148 
L 430.906616 305.821342 
L 435.301788 306.647457 
z
" clip-path="url(#p6ee9bc15c8)" style="fill: #1f77b4; stroke: #1f77b4; stroke-width: 1.5; stroke-linecap: round"/>
   </g>
   <g id="patch_21">
    <path d="M 440.702677 302.984568 
Q 439.800688 302.346993 440.268168 302.677434 
" clip-path="url(#p6ee9bc15c8)" style="fill: none; stroke: #1f77b4; stroke-width: 1.5; stroke-linecap: round"/>
    <path d="M 442.380118 306.619472 
L 440.268168 302.677434 
L 444.688969 303.353097 
z
" clip-path="url(#p6ee9bc15c8)" style="fill: #1f77b4; stroke: #1f77b4; stroke-width: 1.5; stroke-linecap: round"/>
   </g>
   <g id="patch_22">
    <path d="M 366.85655 244.374061 
Q 365.906544 243.751391 366.359155 244.04805 
" clip-path="url(#p6ee9bc15c8)" style="fill: none; stroke: #1f77b4; stroke-width: 1.5; stroke-linecap: round"/>
    <path d="M 368.608231 247.913494 
L 366.359155 244.04805 
L 370.800956 244.568055 
z
" clip-path="url(#p6ee9bc15c8)" style="fill: #1f77b4; stroke: #1f77b4; stroke-width: 1.5; stroke-linecap: round"/>
   </g>
   <g id="patch_23">
    <path d="M 405.83243 252.985818 
Q 404.778943 252.406702 405.195092 252.635464 
" clip-path="url(#p6ee9bc15c8)" style="fill: none; stroke: #1f77b4; stroke-width: 1.5; stroke-linecap: round"/>
    <path d="M 407.736928 256.315011 
L 405.195092 252.635464 
L 409.663831 252.809723 
z
" clip-path="url(#p6ee9bc15c8)" style="fill: #1f77b4; stroke: #1f77b4; stroke-width: 1.5; stroke-linecap: round"/>
   </g>
   <g id="patch_24">
    <path d="M 426.741635 245.393213 
Q 425.581515 244.876807 425.953512 245.042395 
" clip-path="url(#p6ee9bc15c8)" style="fill: none; stroke: #1f77b4; stroke-width: 1.5; stroke-linecap: round"/>
    <path d="M 428.794502 248.496202 
L 425.953512 245.042395 
L 430.421151 244.841888 
z
" clip-path="url(#p6ee9bc15c8)" style="fill: #1f77b4; stroke: #1f77b4; stroke-width: 1.5; stroke-linecap: round"/>
   </g>
   <g id="patch_25">
    <path d="M 374.763259 208.610612 
Q 373.494521 208.178389 373.813243 208.286968 
" clip-path="url(#p6ee9bc15c8)" style="fill: none; stroke: #1f77b4; stroke-width: 1.5; stroke-linecap: round"/>
    <path d="M 376.954614 211.470015 
L 373.813243 208.286968 
L 378.244503 207.6837 
z
" clip-path="url(#p6ee9bc15c8)" style="fill: #1f77b4; stroke: #1f77b4; stroke-width: 1.5; stroke-linecap: round"/>
   </g>
   <g id="patch_26">
    <path d="M 384.398023 197.235821 
Q 383.0394 196.916401 383.313317 196.9808 
" clip-path="url(#p6ee9bc15c8)" style="fill: none; stroke: #1f77b4; stroke-width: 1.5; stroke-linecap: round"/>
    <path d="M 386.749418 199.843178 
L 383.313317 196.9808 
L 387.66488 195.949346 
z
" clip-path="url(#p6ee9bc15c8)" style="fill: #1f77b4; stroke: #1f77b4; stroke-width: 1.5; stroke-linecap: round"/>
   </g>
   <g id="patch_27">
    <path d="M 409.526601 185.862288 
Q 408.097014 185.675066 408.330278 185.705615 
" clip-path="url(#p6ee9bc15c8)" style="fill: none; stroke: #1f77b4; stroke-width: 1.5; stroke-linecap: round"/>
    <path d="M 412.036704 188.208095 
L 408.330278 185.705615 
L 412.556118 184.241963 
z
" clip-path="url(#p6ee9bc15c8)" style="fill: #1f77b4; stroke: #1f77b4; stroke-width: 1.5; stroke-linecap: round"/>
   </g>
   <g id="patch_28">
    <path d="M 367.472925 167.474881 
Q 366.019393 167.436624 366.242332 167.442491 
" clip-path="url(#p6ee9bc15c8)" style="fill: none; stroke: #1f77b4; stroke-width: 1.5; stroke-linecap: round"/>
    <path d="M 370.188324 169.547045 
L 366.242332 167.442491 
L 370.29357 165.54843 
z
" clip-path="url(#p6ee9bc15c8)" style="fill: #1f77b4; stroke: #1f77b4; stroke-width: 1.5; stroke-linecap: round"/>
   </g>
   <g id="patch_29">
    <path d="M 353.66955 161.408325 
Q 352.217811 161.446459 352.442544 161.440556 
" clip-path="url(#p6ee9bc15c8)" style="fill: none; stroke: #1f77b4; stroke-width: 1.5; stroke-linecap: round"/>
    <path d="M 356.493682 163.334832 
L 352.442544 161.440556 
L 356.388647 159.336211 
z
" clip-path="url(#p6ee9bc15c8)" style="fill: #1f77b4; stroke: #1f77b4; stroke-width: 1.5; stroke-linecap: round"/>
   </g>
   <g id="patch_30">
    <path d="M 422.940984 150.238819 
Q 421.491189 150.352506 421.713312 150.335088 
" clip-path="url(#p6ee9bc15c8)" style="fill: none; stroke: #1f77b4; stroke-width: 1.5; stroke-linecap: round"/>
    <path d="M 425.857422 152.016264 
L 421.713312 150.335088 
L 425.544719 148.028506 
z
" clip-path="url(#p6ee9bc15c8)" style="fill: #1f77b4; stroke: #1f77b4; stroke-width: 1.5; stroke-linecap: round"/>
   </g>
   <g id="patch_31">
    <path d="M 383.205639 138.830182 
Q 381.807774 139.086959 382.059361 139.040744 
" clip-path="url(#p6ee9bc15c8)" style="fill: none; stroke: #1f77b4; stroke-width: 1.5; stroke-linecap: round"/>
    <path d="M 386.354875 140.285155 
L 382.059361 139.040744 
L 385.632198 136.350979 
z
" clip-path="url(#p6ee9bc15c8)" style="fill: #1f77b4; stroke: #1f77b4; stroke-width: 1.5; stroke-linecap: round"/>
   </g>
   <g id="patch_32">
    <path d="M 398.758259 119.822507 
Q 397.438719 120.202842 397.730627 120.118705 
" clip-path="url(#p6ee9bc15c8)" style="fill: none; stroke: #1f77b4; stroke-width: 1.5; stroke-linecap: round"/>
    <path d="M 402.128071 120.932637 
L 397.730627 120.118705 
L 401.020239 117.089109 
z
" clip-path="url(#p6ee9bc15c8)" style="fill: #1f77b4; stroke: #1f77b4; stroke-width: 1.5; stroke-linecap: round"/>
   </g>
   <g id="patch_33">
    <path d="M 401.402465 102.625162 
Q 400.189041 103.102218 400.536381 102.965662 
" clip-path="url(#p6ee9bc15c8)" style="fill: none; stroke: #1f77b4; stroke-width: 1.5; stroke-linecap: round"/>
    <path d="M 404.990792 103.36343 
L 400.536381 102.965662 
L 403.527242 99.640793 
z
" clip-path="url(#p6ee9bc15c8)" style="fill: #1f77b4; stroke: #1f77b4; stroke-width: 1.5; stroke-linecap: round"/>
   </g>
   <g id="patch_34">
    <path d="M 404.32882 84.73144 
Q 403.22464 85.281289 403.621678 85.083576 
" clip-path="url(#p6ee9bc15c8)" style="fill: none; stroke: #1f77b4; stroke-width: 1.5; stroke-linecap: round"/>
    <path d="M 408.093808 85.090845 
L 403.621678 85.083576 
L 406.31077 81.510233 
z
" clip-path="url(#p6ee9bc15c8)" style="fill: #1f77b4; stroke: #1f77b4; stroke-width: 1.5; stroke-linecap: round"/>
   </g>
   <g id="patch_35">
    <path d="M 407.329397 66.17653 
Q 406.33045 66.778165 406.768122 66.514568 
" clip-path="url(#p6ee9bc15c8)" style="fill: none; stroke: #1f77b4; stroke-width: 1.5; stroke-linecap: round"/>
    <path d="M 411.226507 66.164139 
L 406.768122 66.514568 
L 409.16281 62.737602 
z
" clip-path="url(#p6ee9bc15c8)" style="fill: #1f77b4; stroke: #1f77b4; stroke-width: 1.5; stroke-linecap: round"/>
   </g>
   <g id="patch_36">
    <path d="M 410.275424 47.047774 
Q 409.373728 47.685139 409.841503 47.354492 
" clip-path="url(#p6ee9bc15c8)" style="fill: none; stroke: #1f77b4; stroke-width: 1.5; stroke-linecap: round"/>
    <path d="M 414.262305 46.678836 
L 409.841503 47.354492 
L 411.953459 43.412457 
z
" clip-path="url(#p6ee9bc15c8)" style="fill: #1f77b4; stroke: #1f77b4; stroke-width: 1.5; stroke-linecap: round"/>
   </g>
   <g id="patch_37">
    <path d="M 431.28679 22.409984 
Q 430.428882 23.061411 430.906616 22.698658 
" clip-path="url(#p6ee9bc15c8)" style="fill: none; stroke: #1f77b4; stroke-width: 1.5; stroke-linecap: round"/>
    <path d="M 435.301788 21.872543 
L 430.906616 22.698658 
L 432.882827 18.686852 
z
" clip-path="url(#p6ee9bc15c8)" style="fill: #1f77b4; stroke: #1f77b4; stroke-width: 1.5; stroke-linecap: round"/>
   </g>
   <g id="patch_38">
    <path d="M 427.138402 15.286636 
Q 426.32887 15.946956 426.818896 15.547251 
" clip-path="url(#p6ee9bc15c8)" style="fill: none; stroke: #1f77b4; stroke-width: 1.5; stroke-linecap: round"/>
    <path d="M 431.182673 14.568758 
L 426.818896 15.547251 
L 428.654367 11.469134 
z
" clip-path="url(#p6ee9bc15c8)" style="fill: #1f77b4; stroke: #1f77b4; stroke-width: 1.5; stroke-linecap: round"/>
   </g>
   <g id="patch_39">
    <path d="M 349.925141 71.383707 
Q 349.164688 72.052654 349.663427 71.613929 
" clip-path="url(#p6ee9bc15c8)" style="fill: none; stroke: #1f77b4; stroke-width: 1.5; stroke-linecap: round"/>
    <path d="M 353.98775 70.473652 
L 349.663427 71.613929 
L 351.345799 67.470304 
z
" clip-path="url(#p6ee9bc15c8)" style="fill: #1f77b4; stroke: #1f77b4; stroke-width: 1.5; stroke-linecap: round"/>
   </g>
   <g id="patch_40">
    <path d="M 361.21292 41.85448 
Q 360.561784 42.537426 361.067898 42.006587 
" clip-path="url(#p6ee9bc15c8)" style="fill: none; stroke: #1f77b4; stroke-width: 1.5; stroke-linecap: round"/>
    <path d="M 365.275623 40.491645 
L 361.067898 42.006587 
L 362.380579 37.731442 
z
" clip-path="url(#p6ee9bc15c8)" style="fill: #1f77b4; stroke: #1f77b4; stroke-width: 1.5; stroke-linecap: round"/>
   </g>
   <g id="patch_41">
    <path d="M 351.174232 26.056195 
Q 350.645372 26.741215 351.141366 26.098765 
" clip-path="url(#p6ee9bc15c8)" style="fill: none; stroke: #1f77b4; stroke-width: 1.5; stroke-linecap: round"/>
    <path d="M 355.168885 24.154778 
L 351.141366 26.098765 
L 352.002688 21.710357 
z
" clip-path="url(#p6ee9bc15c8)" style="fill: #1f77b4; stroke: #1f77b4; stroke-width: 1.5; stroke-linecap: round"/>
   </g>
   <g id="patch_42">
    <path d="M 302.714449 65.615215 
Q 302.314289 66.292465 302.767242 65.525866 
" clip-path="url(#p6ee9bc15c8)" style="fill: none; stroke: #1f77b4; stroke-width: 1.5; stroke-linecap: round"/>
    <path d="M 306.523926 63.099485 
L 302.767242 65.525866 
L 303.080148 61.06469 
z
" clip-path="url(#p6ee9bc15c8)" style="fill: #1f77b4; stroke: #1f77b4; stroke-width: 1.5; stroke-linecap: round"/>
   </g>
   <g id="patch_43">
    <path d="M 287.749272 58.390751 
Q 287.481719 59.046891 287.847392 58.150123 
" clip-path="url(#p6ee9bc15c8)" style="fill: none; stroke: #1f77b4; stroke-width: 1.5; stroke-linecap: round"/>
    <path d="M 291.209675 55.201386 
L 287.847392 58.150123 
L 287.505772 53.691055 
z
" clip-path="url(#p6ee9bc15c8)" style="fill: #1f77b4; stroke: #1f77b4; stroke-width: 1.5; stroke-linecap: round"/>
   </g>
   <g id="patch_44">
    <path d="M 272.8234 39.378041 
Q 272.678337 40.016688 272.904739 39.01994 
" clip-path="url(#p6ee9bc15c8)" style="fill: none; stroke: #1f77b4; stroke-width: 1.5; stroke-linecap: round"/>
    <path d="M 275.741058 35.562297 
L 272.904739 39.01994 
L 271.840416 34.6763 
z
" clip-path="url(#p6ee9bc15c8)" style="fill: #1f77b4; stroke: #1f77b4; stroke-width: 1.5; stroke-linecap: round"/>
   </g>
   <g id="patch_45">
    <path d="M 248.686928 71.346314 
Q 248.658522 71.968567 248.706594 70.915514 
" clip-path="url(#p6ee9bc15c8)" style="fill: none; stroke: #1f77b4; stroke-width: 1.5; stroke-linecap: round"/>
    <path d="M 250.886925 67.010881 
L 248.706594 70.915514 
L 246.891086 66.82847 
z
" clip-path="url(#p6ee9bc15c8)" style="fill: #1f77b4; stroke: #1f77b4; stroke-width: 1.5; stroke-linecap: round"/>
   </g>
   <g id="patch_46">
    <path d="M 240.741333 81.826906 
Q 240.769647 82.448392 240.721636 81.394564 
" clip-path="url(#p6ee9bc15c8)" style="fill: none; stroke: #1f77b4; stroke-width: 1.5; stroke-linecap: round"/>
    <path d="M 242.537517 77.307686 
L 240.721636 81.394564 
L 238.541662 77.489732 
z
" clip-path="url(#p6ee9bc15c8)" style="fill: #1f77b4; stroke: #1f77b4; stroke-width: 1.5; stroke-linecap: round"/>
   </g>
   <g id="patch_47">
    <path d="M 226.07345 29.216833 
Q 226.159421 29.848952 226.019386 28.819318 
" clip-path="url(#p6ee9bc15c8)" style="fill: none; stroke: #1f77b4; stroke-width: 1.5; stroke-linecap: round"/>
    <path d="M 227.462086 24.586279 
L 226.019386 28.819318 
L 223.498575 25.125335 
z
" clip-path="url(#p6ee9bc15c8)" style="fill: #1f77b4; stroke: #1f77b4; stroke-width: 1.5; stroke-linecap: round"/>
   </g>
   <g id="patch_48">
    <path d="M 211.115194 59.328361 
Q 211.322274 59.97834 211.020266 59.030404 
" clip-path="url(#p6ee9bc15c8)" style="fill: none; stroke: #1f77b4; stroke-width: 1.5; stroke-linecap: round"/>
    <path d="M 211.711641 54.612034 
L 211.020266 59.030404 
L 207.900394 55.826281 
z
" clip-path="url(#p6ee9bc15c8)" style="fill: #1f77b4; stroke: #1f77b4; stroke-width: 1.5; stroke-linecap: round"/>
   </g>
   <g id="patch_49">
    <path d="M 186.117954 47.440953 
Q 186.453252 48.111668 186.038656 47.28233 
" clip-path="url(#p6ee9bc15c8)" style="fill: none; stroke: #1f77b4; stroke-width: 1.5; stroke-linecap: round"/>
    <path d="M 186.038971 42.810194 
L 186.038656 47.28233 
L 182.461136 44.598796 
z
" clip-path="url(#p6ee9bc15c8)" style="fill: #1f77b4; stroke: #1f77b4; stroke-width: 1.5; stroke-linecap: round"/>
   </g>
   <g id="patch_50">
    <path d="M 163.468794 45.343512 
Q 163.933924 46.025643 163.454253 45.322186 
" clip-path="url(#p6ee9bc15c8)" style="fill: none; stroke: #1f77b4; stroke-width: 1.5; stroke-linecap: round"/>
    <path d="M 162.853179 40.890628 
L 163.454253 45.322186 
L 159.548362 43.14411 
z
" clip-path="url(#p6ee9bc15c8)" style="fill: #1f77b4; stroke: #1f77b4; stroke-width: 1.5; stroke-linecap: round"/>
   </g>
   <g id="patch_51">
    <path d="M 139.872071 43.034363 
Q 140.464475 43.720269 139.960693 43.136973 
" clip-path="url(#p6ee9bc15c8)" style="fill: none; stroke: #1f77b4; stroke-width: 1.5; stroke-linecap: round"/>
    <path d="M 138.85975 38.802469 
L 139.960693 43.136973 
L 135.832524 41.417025 
z
" clip-path="url(#p6ee9bc15c8)" style="fill: #1f77b4; stroke: #1f77b4; stroke-width: 1.5; stroke-linecap: round"/>
   </g>
   <g id="patch_52">
    <path d="M 115.386389 40.681818 
Q 116.094636 41.35984 115.591461 40.878139 
" clip-path="url(#p6ee9bc15c8)" style="fill: none; stroke: #1f77b4; stroke-width: 1.5; stroke-linecap: round"/>
    <path d="M 114.085105 36.667332 
L 115.591461 40.878139 
L 111.319002 39.55674 
z
" clip-path="url(#p6ee9bc15c8)" style="fill: #1f77b4; stroke: #1f77b4; stroke-width: 1.5; stroke-linecap: round"/>
   </g>
   <g id="patch_53">
    <path d="M 90.142632 38.390663 
Q 90.951898 39.050768 90.461609 38.650847 
" clip-path="url(#p6ee9bc15c8)" style="fill: none; stroke: #1f77b4; stroke-width: 1.5; stroke-linecap: round"/>
    <path d="M 88.626143 34.572727 
L 90.461609 38.650847 
L 86.097833 37.672347 
z
" clip-path="url(#p6ee9bc15c8)" style="fill: #1f77b4; stroke: #1f77b4; stroke-width: 1.5; stroke-linecap: round"/>
   </g>
   <g id="patch_54">
    <path d="M 57.66321 22.409984 
Q 58.521118 23.061411 58.043384 22.698658 
" clip-path="url(#p6ee9bc15c8)" style="fill: none; stroke: #1f77b4; stroke-width: 1.5; stroke-linecap: round"/>
    <path d="M 56.067173 18.686852 
L 58.043384 22.698658 
L 53.648212 21.872543 
z
" clip-path="url(#p6ee9bc15c8)" style="fill: #1f77b4; stroke: #1f77b4; stroke-width: 1.5; stroke-linecap: round"/>
   </g>
   <g id="patch_55">
    <path d="M 48.247323 25.535432 
Q 49.149312 26.173007 48.681832 25.842566 
" clip-path="url(#p6ee9bc15c8)" style="fill: none; stroke: #1f77b4; stroke-width: 1.5; stroke-linecap: round"/>
    <path d="M 46.569882 21.900528 
L 48.681832 25.842566 
L 44.261031 25.166903 
z
" clip-path="url(#p6ee9bc15c8)" style="fill: #1f77b4; stroke: #1f77b4; stroke-width: 1.5; stroke-linecap: round"/>
   </g>
   <g id="patch_56">
    <path d="M 122.09345 84.145939 
Q 123.043456 84.768609 122.590845 84.47195 
" clip-path="url(#p6ee9bc15c8)" style="fill: none; stroke: #1f77b4; stroke-width: 1.5; stroke-linecap: round"/>
    <path d="M 120.341769 80.606506 
L 122.590845 84.47195 
L 118.149044 83.951945 
z
" clip-path="url(#p6ee9bc15c8)" style="fill: #1f77b4; stroke: #1f77b4; stroke-width: 1.5; stroke-linecap: round"/>
   </g>
   <g id="patch_57">
    <path d="M 83.11757 75.534182 
Q 84.171057 76.113298 83.754908 75.884536 
" clip-path="url(#p6ee9bc15c8)" style="fill: none; stroke: #1f77b4; stroke-width: 1.5; stroke-linecap: round"/>
    <path d="M 81.213072 72.204989 
L 83.754908 75.884536 
L 79.286169 75.710277 
z
" clip-path="url(#p6ee9bc15c8)" style="fill: #1f77b4; stroke: #1f77b4; stroke-width: 1.5; stroke-linecap: round"/>
   </g>
   <g id="patch_58">
    <path d="M 62.208365 83.126787 
Q 63.368485 83.643193 62.996488 83.477605 
" clip-path="url(#p6ee9bc15c8)" style="fill: none; stroke: #1f77b4; stroke-width: 1.5; stroke-linecap: round"/>
    <path d="M 60.155498 80.023798 
L 62.996488 83.477605 
L 58.528849 83.678112 
z
" clip-path="url(#p6ee9bc15c8)" style="fill: #1f77b4; stroke: #1f77b4; stroke-width: 1.5; stroke-linecap: round"/>
   </g>
   <g id="patch_59">
    <path d="M 114.186741 119.909388 
Q 115.455479 120.341611 115.136757 120.233032 
" clip-path="url(#p6ee9bc15c8)" style="fill: none; stroke: #1f77b4; stroke-width: 1.5; stroke-linecap: round"/>
    <path d="M 111.995386 117.049985 
L 115.136757 120.233032 
L 110.705497 120.8363 
z
" clip-path="url(#p6ee9bc15c8)" style="fill: #1f77b4; stroke: #1f77b4; stroke-width: 1.5; stroke-linecap: round"/>
   </g>
   <g id="patch_60">
    <path d="M 104.551977 131.284179 
Q 105.9106 131.603599 105.636683 131.5392 
" clip-path="url(#p6ee9bc15c8)" style="fill: none; stroke: #1f77b4; stroke-width: 1.5; stroke-linecap: round"/>
    <path d="M 102.200582 128.676822 
L 105.636683 131.5392 
L 101.28512 132.570654 
z
" clip-path="url(#p6ee9bc15c8)" style="fill: #1f77b4; stroke: #1f77b4; stroke-width: 1.5; stroke-linecap: round"/>
   </g>
   <g id="patch_61">
    <path d="M 79.423399 142.657712 
Q 80.852986 142.844934 80.619722 142.814385 
" clip-path="url(#p6ee9bc15c8)" style="fill: none; stroke: #1f77b4; stroke-width: 1.5; stroke-linecap: round"/>
    <path d="M 76.913296 140.311905 
L 80.619722 142.814385 
L 76.393882 144.278037 
z
" clip-path="url(#p6ee9bc15c8)" style="fill: #1f77b4; stroke: #1f77b4; stroke-width: 1.5; stroke-linecap: round"/>
   </g>
   <g id="patch_62">
    <path d="M 121.477075 161.045119 
Q 122.930607 161.083376 122.707668 161.077509 
" clip-path="url(#p6ee9bc15c8)" style="fill: none; stroke: #1f77b4; stroke-width: 1.5; stroke-linecap: round"/>
    <path d="M 118.761676 158.972955 
L 122.707668 161.077509 
L 118.65643 162.97157 
z
" clip-path="url(#p6ee9bc15c8)" style="fill: #1f77b4; stroke: #1f77b4; stroke-width: 1.5; stroke-linecap: round"/>
   </g>
   <g id="patch_63">
    <path d="M 121.477075 167.474881 
Q 122.930607 167.436624 122.707668 167.442491 
" clip-path="url(#p6ee9bc15c8)" style="fill: none; stroke: #1f77b4; stroke-width: 1.5; stroke-linecap: round"/>
    <path d="M 118.65643 165.54843 
L 122.707668 167.442491 
L 118.761676 169.547045 
z
" clip-path="url(#p6ee9bc15c8)" style="fill: #1f77b4; stroke: #1f77b4; stroke-width: 1.5; stroke-linecap: round"/>
   </g>
   <g id="patch_64">
    <path d="M 66.009016 178.281181 
Q 67.458811 178.167494 67.236688 178.184912 
" clip-path="url(#p6ee9bc15c8)" style="fill: none; stroke: #1f77b4; stroke-width: 1.5; stroke-linecap: round"/>
    <path d="M 63.092578 176.503736 
L 67.236688 178.184912 
L 63.405281 180.491494 
z
" clip-path="url(#p6ee9bc15c8)" style="fill: #1f77b4; stroke: #1f77b4; stroke-width: 1.5; stroke-linecap: round"/>
   </g>
   <g id="patch_65">
    <path d="M 105.744361 189.689818 
Q 107.142226 189.433041 106.890639 189.479256 
" clip-path="url(#p6ee9bc15c8)" style="fill: none; stroke: #1f77b4; stroke-width: 1.5; stroke-linecap: round"/>
    <path d="M 102.595125 188.234845 
L 106.890639 189.479256 
L 103.317802 192.169021 
z
" clip-path="url(#p6ee9bc15c8)" style="fill: #1f77b4; stroke: #1f77b4; stroke-width: 1.5; stroke-linecap: round"/>
   </g>
   <g id="patch_66">
    <path d="M 90.191741 208.697493 
Q 91.511281 208.317158 91.219373 208.401295 
" clip-path="url(#p6ee9bc15c8)" style="fill: none; stroke: #1f77b4; stroke-width: 1.5; stroke-linecap: round"/>
    <path d="M 86.821929 207.587363 
L 91.219373 208.401295 
L 87.929761 211.430891 
z
" clip-path="url(#p6ee9bc15c8)" style="fill: #1f77b4; stroke: #1f77b4; stroke-width: 1.5; stroke-linecap: round"/>
   </g>
   <g id="patch_67">
    <path d="M 87.547535 225.894838 
Q 88.760959 225.417782 88.413619 225.554338 
" clip-path="url(#p6ee9bc15c8)" style="fill: none; stroke: #1f77b4; stroke-width: 1.5; stroke-linecap: round"/>
    <path d="M 83.959208 225.15657 
L 88.413619 225.554338 
L 85.422758 228.879207 
z
" clip-path="url(#p6ee9bc15c8)" style="fill: #1f77b4; stroke: #1f77b4; stroke-width: 1.5; stroke-linecap: round"/>
   </g>
   <g id="patch_68">
    <path d="M 84.62118 243.78856 
Q 85.72536 243.238711 85.328322 243.436424 
" clip-path="url(#p6ee9bc15c8)" style="fill: none; stroke: #1f77b4; stroke-width: 1.5; stroke-linecap: round"/>
    <path d="M 80.856192 243.429155 
L 85.328322 243.436424 
L 82.63923 247.009767 
z
" clip-path="url(#p6ee9bc15c8)" style="fill: #1f77b4; stroke: #1f77b4; stroke-width: 1.5; stroke-linecap: round"/>
   </g>
   <g id="patch_69">
    <path d="M 81.620603 262.34347 
Q 82.61955 261.741835 82.181878 262.005432 
" clip-path="url(#p6ee9bc15c8)" style="fill: none; stroke: #1f77b4; stroke-width: 1.5; stroke-linecap: round"/>
    <path d="M 77.723493 262.355861 
L 82.181878 262.005432 
L 79.78719 265.782398 
z
" clip-path="url(#p6ee9bc15c8)" style="fill: #1f77b4; stroke: #1f77b4; stroke-width: 1.5; stroke-linecap: round"/>
   </g>
   <g id="patch_70">
    <path d="M 48.247323 302.984568 
Q 49.149312 302.346993 48.681832 302.677434 
" clip-path="url(#p6ee9bc15c8)" style="fill: none; stroke: #1f77b4; stroke-width: 1.5; stroke-linecap: round"/>
    <path d="M 44.261031 303.353097 
L 48.681832 302.677434 
L 46.569882 306.619472 
z
" clip-path="url(#p6ee9bc15c8)" style="fill: #1f77b4; stroke: #1f77b4; stroke-width: 1.5; stroke-linecap: round"/>
   </g>
   <g id="patch_71">
    <path d="M 223.246342 309.332953 
Q 223.338853 308.700354 223.188695 309.727156 
" clip-path="url(#p6ee9bc15c8)" style="fill: none; stroke: #1f77b4; stroke-width: 1.5; stroke-linecap: round"/>
    <path d="M 220.630947 313.395661 
L 223.188695 309.727156 
L 224.588849 313.974458 
z
" clip-path="url(#p6ee9bc15c8)" style="fill: #1f77b4; stroke: #1f77b4; stroke-width: 1.5; stroke-linecap: round"/>
   </g>
   <g id="patch_72">
    <path d="M 436.142661 180.430903 
Q 434.694044 180.308761 434.916548 180.327521 
" clip-path="url(#p6ee9bc15c8)" style="fill: none; stroke: #1f77b4; stroke-width: 1.5; stroke-linecap: round"/>
    <path d="M 438.734368 182.656522 
L 434.916548 180.327521 
L 439.070441 178.670665 
z
" clip-path="url(#p6ee9bc15c8)" style="fill: #1f77b4; stroke: #1f77b4; stroke-width: 1.5; stroke-linecap: round"/>
   </g>
   <g id="patch_73">
    <path d="M 265.703658 19.187047 
Q 265.611147 19.819646 265.761305 18.792844 
" clip-path="url(#p6ee9bc15c8)" style="fill: none; stroke: #1f77b4; stroke-width: 1.5; stroke-linecap: round"/>
    <path d="M 268.319053 15.124339 
L 265.761305 18.792844 
L 264.361151 14.545542 
z
" clip-path="url(#p6ee9bc15c8)" style="fill: #1f77b4; stroke: #1f77b4; stroke-width: 1.5; stroke-linecap: round"/>
   </g>
   <g id="patch_74">
    <path d="M 52.807339 148.089097 
Q 54.255956 148.211239 54.033452 148.192479 
" clip-path="url(#p6ee9bc15c8)" style="fill: none; stroke: #1f77b4; stroke-width: 1.5; stroke-linecap: round"/>
    <path d="M 50.215632 145.863478 
L 54.033452 148.192479 
L 49.879559 149.849335 
z
" clip-path="url(#p6ee9bc15c8)" style="fill: #1f77b4; stroke: #1f77b4; stroke-width: 1.5; stroke-linecap: round"/>
   </g>
   <g id="patch_75">
    <path d="M 170.749474 307.33478 
Q 171.095955 306.662806 170.673872 307.481405 
" clip-path="url(#p6ee9bc15c8)" style="fill: none; stroke: #1f77b4; stroke-width: 1.5; stroke-linecap: round"/>
    <path d="M 167.063127 310.120064 
L 170.673872 307.481405 
L 170.618352 311.953196 
z
" clip-path="url(#p6ee9bc15c8)" style="fill: #1f77b4; stroke: #1f77b4; stroke-width: 1.5; stroke-linecap: round"/>
   </g>
   <g id="patch_76">
    <path d="M 433.321765 220.366756 
Q 432.014009 219.977977 432.313772 220.067092 
" clip-path="url(#p6ee9bc15c8)" style="fill: none; stroke: #1f77b4; stroke-width: 1.5; stroke-linecap: round"/>
    <path d="M 435.578004 223.124017 
L 432.313772 220.067092 
L 436.717851 219.289862 
z
" clip-path="url(#p6ee9bc15c8)" style="fill: #1f77b4; stroke: #1f77b4; stroke-width: 1.5; stroke-linecap: round"/>
   </g>
   <g id="patch_77">
    <path d="M 318.200526 21.18522 
Q 317.854045 21.857194 318.276128 21.038595 
" clip-path="url(#p6ee9bc15c8)" style="fill: none; stroke: #1f77b4; stroke-width: 1.5; stroke-linecap: round"/>
    <path d="M 321.886873 18.399936 
L 318.276128 21.038595 
L 318.331648 16.566804 
z
" clip-path="url(#p6ee9bc15c8)" style="fill: #1f77b4; stroke: #1f77b4; stroke-width: 1.5; stroke-linecap: round"/>
   </g>
   <g id="patch_78">
    <path d="M 55.628235 108.153244 
Q 56.935991 108.542023 56.636228 108.452908 
" clip-path="url(#p6ee9bc15c8)" style="fill: none; stroke: #1f77b4; stroke-width: 1.5; stroke-linecap: round"/>
    <path d="M 53.371996 105.395983 
L 56.636228 108.452908 
L 52.232149 109.230138 
z
" clip-path="url(#p6ee9bc15c8)" style="fill: #1f77b4; stroke: #1f77b4; stroke-width: 1.5; stroke-linecap: round"/>
   </g>
   <g id="patch_79">
    <path d="M 99.530586 262.736932 
Q 100.456458 262.107597 99.995353 262.42102 
" clip-path="url(#p6ee9bc15c8)" style="fill: none; stroke: #1f77b4; stroke-width: 1.5; stroke-linecap: round"/>
    <path d="M 95.562913 263.015563 
L 99.995353 262.42102 
L 97.811524 266.323697 
z
" clip-path="url(#p6ee9bc15c8)" style="fill: #1f77b4; stroke: #1f77b4; stroke-width: 1.5; stroke-linecap: round"/>
   </g>
   <g id="patch_80">
    <path d="M 345.908988 241.280903 
Q 345.056949 240.633932 345.54055 241.001141 
" clip-path="url(#p6ee9bc15c8)" style="fill: none; stroke: #1f77b4; stroke-width: 1.5; stroke-linecap: round"/>
    <path d="M 347.516761 245.012947 
L 345.54055 241.001141 
L 349.935722 241.827256 
z
" clip-path="url(#p6ee9bc15c8)" style="fill: #1f77b4; stroke: #1f77b4; stroke-width: 1.5; stroke-linecap: round"/>
   </g>
   <g id="patch_81">
    <path d="M 345.908988 87.239097 
Q 345.056949 87.886068 345.54055 87.518859 
" clip-path="url(#p6ee9bc15c8)" style="fill: none; stroke: #1f77b4; stroke-width: 1.5; stroke-linecap: round"/>
    <path d="M 349.935722 86.692744 
L 345.54055 87.518859 
L 347.516761 83.507053 
z
" clip-path="url(#p6ee9bc15c8)" style="fill: #1f77b4; stroke: #1f77b4; stroke-width: 1.5; stroke-linecap: round"/>
   </g>
   <g id="patch_82">
    <path d="M 143.041012 87.239097 
Q 143.893051 87.886068 143.40945 87.518859 
" clip-path="url(#p6ee9bc15c8)" style="fill: none; stroke: #1f77b4; stroke-width: 1.5; stroke-linecap: round"/>
    <path d="M 141.433239 83.507053 
L 143.40945 87.518859 
L 139.014278 86.692744 
z
" clip-path="url(#p6ee9bc15c8)" style="fill: #1f77b4; stroke: #1f77b4; stroke-width: 1.5; stroke-linecap: round"/>
   </g>
   <g id="line2d_43">
    <path d="M 28.15 164.26 
L 460.8 164.26 
" clip-path="url(#p6ee9bc15c8)" style="fill: none; stroke: #000000; stroke-width: 0.8; stroke-linecap: square"/>
   </g>
   <g id="line2d_44">
    <path d="M 244.475 328.52 
L 244.475 0 
" clip-path="url(#p6ee9bc15c8)" style="fill: none; stroke: #000000; stroke-width: 0.8; stroke-linecap: square"/>
   </g>
   <g id="patch_83">
    <path d="M 28.15 328.52 
L 28.15 -0 
" style="fill: none; stroke: #000000; stroke-width: 0.8; stroke-linejoin: miter; stroke-linecap: square"/>
   </g>
   <g id="patch_84">
    <path d="M 460.8 328.52 
L 460.8 -0 
" style="fill: none; stroke: #000000; stroke-width: 0.8; stroke-linejoin: miter; stroke-linecap: square"/>
   </g>
   <g id="patch_85">
    <path d="M 28.15 328.52 
L 460.8 328.52 
" style="fill: none; stroke: #000000; stroke-width: 0.8; stroke-linejoin: miter; stroke-linecap: square"/>
   </g>
   <g id="patch_86">
    <path d="M 28.15 0 
L 460.8 0 
" style="fill: none; stroke: #000000; stroke-width: 0.8; stroke-linejoin: miter; stroke-linecap: square"/>
   </g>
  </g>
 </g>
 <defs>
  <clipPath id="p6ee9bc15c8">
   <rect x="28.15" y="0" width="432.65" height="328.52"/>
  </clipPath>
 </defs>
</svg>
