<?xml version="1.0" encoding="utf-8" standalone="no"?>
<!DOCTYPE svg PUBLIC "-//W3C//DTD SVG 1.1//EN"
  "http://www.w3.org/Graphics/SVG/1.1/DTD/svg11.dtd">
<svg xmlns:xlink="http://www.w3.org/1999/xlink" width="460.8pt" height="345.6pt" viewBox="0 0 460.8 345.6" xmlns="http://www.w3.org/2000/svg" version="1.1">
 <metadata>
  <rdf:RDF xmlns:dc="http://purl.org/dc/elements/1.1/" xmlns:cc="http://creativecommons.org/ns#" xmlns:rdf="http://www.w3.org/1999/02/22-rdf-syntax-ns#">
   <cc:Work>
    <dc:type rdf:resource="http://purl.org/dc/dcmitype/StillImage"/>
    <dc:date>2023-05-25T19:46:30.720280</dc:date>
    <dc:format>image/svg+xml</dc:format>
    <dc:creator>
     <cc:Agent>
      <dc:title>Matplotlib v3.6.2, https://matplotlib.org/</dc:title>
     </cc:Agent>
    </dc:creator>
   </cc:Work>
  </rdf:RDF>
 </metadata>
 <defs>
  <style type="text/css">*{stroke-linejoin: round; stroke-linecap: butt}</style>
 </defs>
 <g id="figure_1">
  <g id="patch_1">
   <path d="M 0 345.6 
L 460.8 345.6 
L 460.8 0 
L 0 0 
z
" style="fill: #ffffff"/>
  </g>
  <g id="axes_1">
   <g id="patch_2">
    <path d="M 57.6 345.6 
L 403.2 345.6 
L 403.2 0 
L 57.6 0 
z
" style="fill: #ffffff"/>
   </g>
   <g id="matplotlib.axis_1"/>
   <g id="matplotlib.axis_2"/>
   <g id="patch_3">
    <path d="M 308.590045 26.193665 
C 304.637492 33.604703 303.329604 42.147111 304.883736 50.401252 
C 306.437869 58.655393 310.76288 66.137209 317.140011 71.603321 
C 323.517141 77.069432 331.572408 80.199284 339.967133 80.472734 
C 348.361857 80.746185 356.603736 78.147198 363.323077 73.107692 
" clip-path="url(#p421482618b)" style="fill: none; stroke: #0000ff; stroke-linejoin: miter"/>
   </g>
   <g id="patch_4">
    <path d="M 230.4 338.953846 
C 274.464515 338.953846 316.730194 321.446829 347.888511 290.288511 
C 379.046829 259.130194 396.553846 216.864515 396.553846 172.8 
C 396.553846 128.735485 379.046829 86.469806 347.888511 55.311489 
C 316.730194 24.153171 274.464515 6.646154 230.4 6.646154 
C 186.335485 6.646154 144.069806 24.153171 112.911489 55.311489 
C 81.753171 86.469806 64.246154 128.735485 64.246154 172.8 
C 64.246154 216.864515 81.753171 259.130194 112.911489 290.288511 
C 144.069806 321.446829 186.335485 338.953846 230.4 338.953846 
L 230.4 338.953846 
z
" clip-path="url(#p421482618b)" style="fill: none; stroke: #000000; stroke-linejoin: miter"/>
   </g>
   <g id="patch_5">
    <path d="M 230.4 6.646154 
C 230.4 18.268653 234.058484 29.601446 240.854279 39.030108 
C 247.650074 48.45877 257.244391 55.513256 268.270462 59.188613 
C 279.296533 62.86397 291.204679 62.976972 302.298512 59.511519 
C 313.392345 56.046067 323.118808 49.174923 330.092308 39.876923 
" clip-path="url(#p421482618b)" style="fill: none; stroke: #ffa500; stroke-linejoin: miter"/>
   </g>
   <g id="patch_6">
    <path d="M 230.4 338.953846 
C 274.464515 338.953846 316.730194 321.446829 347.888511 290.288511 
C 379.046829 259.130194 396.553846 216.864515 396.553846 172.8 
C 396.553846 128.735485 379.046829 86.469806 347.888511 55.311489 
C 316.730194 24.153171 274.464515 6.646154 230.4 6.646154 
C 186.335485 6.646154 144.069806 24.153171 112.911489 55.311489 
C 81.753171 86.469806 64.246154 128.735485 64.246154 172.8 
C 64.246154 216.864515 81.753171 259.130194 112.911489 290.288511 
C 144.069806 321.446829 186.335485 338.953846 230.4 338.953846 
L 230.4 338.953846 
z
" clip-path="url(#p421482618b)" style="fill: none; stroke: #000000; stroke-linejoin: miter"/>
   </g>
  </g>
 </g>
 <defs>
  <clipPath id="p421482618b">
   <rect x="57.6" y="0" width="345.6" height="345.6"/>
  </clipPath>
 </defs>
</svg>
