<?xml version="1.0" encoding="utf-8" standalone="no"?>
<!DOCTYPE svg PUBLIC "-//W3C//DTD SVG 1.1//EN"
  "http://www.w3.org/Graphics/SVG/1.1/DTD/svg11.dtd">
<!-- Created with matplotlib (http://matplotlib.org/) -->
<svg height="345.6pt" version="1.1" viewBox="0 0 460.8 345.6" width="460.8pt" xmlns="http://www.w3.org/2000/svg" xmlns:xlink="http://www.w3.org/1999/xlink">
 <defs>
  <style type="text/css">
*{stroke-linecap:butt;stroke-linejoin:round;}
  </style>
 </defs>
 <g id="figure_1">
  <g id="patch_1">
   <path d="M 0 345.6 
L 460.8 345.6 
L 460.8 0 
L 0 0 
z
" style="fill:#ffffff;"/>
  </g>
  <g id="axes_1">
   <g id="patch_2">
    <path d="M 2.52 221.631429 
L 458.28 221.631429 
L 458.28 123.968571 
L 2.52 123.968571 
z
" style="fill:#ffffff;"/>
   </g>
   <g id="matplotlib.axis_1"/>
   <g id="matplotlib.axis_2"/>
   <g id="line2d_1">
    <path clip-path="url(#p2cb721d061)" d="M 11.284615 219.753297 
L 449.515385 219.753297 
" style="fill:none;stroke:#000000;stroke-linecap:square;"/>
   </g>
   <g id="line2d_2">
    <path clip-path="url(#p2cb721d061)" d="M 183.446703 219.753297 
L 433.864286 219.753297 
" style="fill:none;stroke:#000000;stroke-linecap:square;"/>
   </g>
   <g id="patch_3">
    <path clip-path="url(#p2cb721d061)" d="M 308.655495 219.753297 
C 308.655495 194.857271 298.755038 170.955456 281.15089 153.351308 
C 263.546742 135.747159 239.644926 125.846703 214.748901 125.846703 
C 189.852876 125.846703 165.95106 135.747159 148.346912 153.351308 
C 130.742764 170.955456 120.842308 194.857271 120.842308 219.753297 
" style="fill:none;stroke:#ff0000;stroke-linejoin:miter;"/>
   </g>
   <g id="patch_4">
    <path clip-path="url(#p2cb721d061)" d="M 371.25989 219.753297 
C 371.25989 203.155947 364.659586 187.221403 352.923487 175.485304 
C 341.187388 163.749205 325.252845 157.148901 308.655495 157.148901 
C 292.058144 157.148901 276.123601 163.749205 264.387502 175.485304 
C 252.651403 187.221403 246.051099 203.155947 246.051099 219.753297 
" style="fill:none;stroke:#ff0000;stroke-linejoin:miter;"/>
   </g>
  </g>
 </g>
 <defs>
  <clipPath id="p2cb721d061">
   <rect height="97.662857" width="455.76" x="2.52" y="123.968571"/>
  </clipPath>
 </defs>
</svg>
