<?xml version="1.0" encoding="utf-8" standalone="no"?>
<!DOCTYPE svg PUBLIC "-//W3C//DTD SVG 1.1//EN"
  "http://www.w3.org/Graphics/SVG/1.1/DTD/svg11.dtd">
<!-- Created with matplotlib (https://matplotlib.org/) -->
<svg height="345.6pt" version="1.1" viewBox="0 0 460.8 345.6" width="460.8pt" xmlns="http://www.w3.org/2000/svg" xmlns:xlink="http://www.w3.org/1999/xlink">
 <metadata>
  <rdf:RDF xmlns:cc="http://creativecommons.org/ns#" xmlns:dc="http://purl.org/dc/elements/1.1/" xmlns:rdf="http://www.w3.org/1999/02/22-rdf-syntax-ns#">
   <cc:Work>
    <dc:type rdf:resource="http://purl.org/dc/dcmitype/StillImage"/>
    <dc:date>2021-08-24T12:27:32.733358</dc:date>
    <dc:format>image/svg+xml</dc:format>
    <dc:creator>
     <cc:Agent>
      <dc:title>Matplotlib v3.3.4, https://matplotlib.org/</dc:title>
     </cc:Agent>
    </dc:creator>
   </cc:Work>
  </rdf:RDF>
 </metadata>
 <defs>
  <style type="text/css">*{stroke-linecap:butt;stroke-linejoin:round;}</style>
 </defs>
 <g id="figure_1">
  <g id="patch_1">
   <path d="M 0 345.6 
L 460.8 345.6 
L 460.8 0 
L 0 0 
z
" style="fill:#ffffff;"/>
  </g>
  <g id="axes_1">
   <g id="patch_2">
    <path d="M 0 213.578761 
L 460.8 213.578761 
L 460.8 132.021239 
L 0 132.021239 
z
" style="fill:#ffffff;"/>
   </g>
   <g id="matplotlib.axis_1"/>
   <g id="matplotlib.axis_2"/>
   <g id="line2d_1">
    <path clip-path="url(#pbb6c4b1b75)" d="M 279.412934 212.010347 
L 451.938462 212.010347 
" style="fill:none;stroke:#000000;stroke-linecap:square;"/>
   </g>
   <g id="line2d_2">
    <path clip-path="url(#pbb6c4b1b75)" d="M 8.861538 212.010347 
L 322.544316 212.010347 
" style="fill:none;stroke:#000000;stroke-linecap:square;"/>
   </g>
   <g id="patch_3">
    <path clip-path="url(#pbb6c4b1b75)" d="M 408.80708 212.010347 
C 408.80708 200.575581 404.259791 189.597456 396.17419 181.511855 
C 388.088589 173.426254 377.110464 168.878965 365.675698 168.878965 
C 354.240931 168.878965 343.262806 173.426254 335.177205 181.511855 
C 327.091604 189.597456 322.544316 200.575581 322.544316 212.010347 
" style="fill:none;stroke:#008000;stroke-linejoin:miter;"/>
   </g>
   <g id="patch_4">
    <path clip-path="url(#pbb6c4b1b75)" d="M 244.123622 212.010347 
C 244.123622 191.219863 235.855825 171.259635 221.154732 156.558542 
C 206.453639 141.85745 186.493412 133.589653 165.702927 133.589653 
C 144.912443 133.589653 124.952215 141.85745 110.251122 156.558542 
C 95.55003 171.259635 87.282233 191.219863 87.282233 212.010347 
" style="fill:none;stroke:#008000;stroke-linejoin:miter;"/>
   </g>
  </g>
 </g>
 <defs>
  <clipPath id="pbb6c4b1b75">
   <rect height="81.557522" width="460.8" x="0" y="132.021239"/>
  </clipPath>
 </defs>
</svg>
