<?xml version="1.0" encoding="utf-8" standalone="no"?>
<!DOCTYPE svg PUBLIC "-//W3C//DTD SVG 1.1//EN"
  "http://www.w3.org/Graphics/SVG/1.1/DTD/svg11.dtd">
<!-- Created with matplotlib (http://matplotlib.org/) -->
<svg height="345.6pt" version="1.1" viewBox="0 0 460.8 345.6" width="460.8pt" xmlns="http://www.w3.org/2000/svg" xmlns:xlink="http://www.w3.org/1999/xlink">
 <defs>
  <style type="text/css">
*{stroke-linecap:butt;stroke-linejoin:round;}
  </style>
 </defs>
 <g id="figure_1">
  <g id="patch_1">
   <path d="M 0 345.6 
L 460.8 345.6 
L 460.8 0 
L 0 0 
z
" style="fill:#ffffff;"/>
  </g>
  <g id="axes_1">
   <g id="patch_2">
    <path d="M 2.52 229.77 
L 458.28 229.77 
L 458.28 115.83 
L 2.52 115.83 
z
" style="fill:#ffffff;"/>
   </g>
   <g id="matplotlib.axis_1"/>
   <g id="matplotlib.axis_2"/>
   <g id="line2d_1">
    <path clip-path="url(#p378db1e7a3)" d="M 11.284615 227.578846 
L 449.515385 227.578846 
" style="fill:none;stroke:#000000;stroke-linecap:square;"/>
   </g>
   <g id="line2d_2">
    <path clip-path="url(#p378db1e7a3)" d="M 183.446703 227.578846 
L 433.864286 227.578846 
" style="fill:none;stroke:#000000;stroke-linecap:square;"/>
   </g>
   <g id="patch_3">
    <path clip-path="url(#p378db1e7a3)" d="M 339.957692 227.578846 
C 339.957692 198.533483 328.40716 170.648032 307.868987 150.109859 
C 287.330814 129.571686 259.445363 118.021154 230.4 118.021154 
C 201.354637 118.021154 173.469186 129.571686 152.931013 150.109859 
C 132.39284 170.648032 120.842308 198.533483 120.842308 227.578846 
" style="fill:none;stroke:#ff0000;stroke-linejoin:miter;"/>
   </g>
   <g id="patch_4">
    <path clip-path="url(#p378db1e7a3)" d="M 371.25989 227.578846 
C 371.25989 210.981496 364.659586 195.046952 352.923487 183.310853 
C 341.187388 171.574755 325.252845 164.974451 308.655495 164.974451 
C 292.058144 164.974451 276.123601 171.574755 264.387502 183.310853 
C 252.651403 195.046952 246.051099 210.981496 246.051099 227.578846 
" style="fill:none;stroke:#ff0000;stroke-linejoin:miter;"/>
   </g>
  </g>
 </g>
 <defs>
  <clipPath id="p378db1e7a3">
   <rect height="113.94" width="455.76" x="2.52" y="115.83"/>
  </clipPath>
 </defs>
</svg>
