<?xml version="1.0" encoding="utf-8" standalone="no"?>
<!DOCTYPE svg PUBLIC "-//W3C//DTD SVG 1.1//EN"
  "http://www.w3.org/Graphics/SVG/1.1/DTD/svg11.dtd">
<!-- Created with matplotlib (https://matplotlib.org/) -->
<svg height="345.6pt" version="1.1" viewBox="0 0 460.8 345.6" width="460.8pt" xmlns="http://www.w3.org/2000/svg" xmlns:xlink="http://www.w3.org/1999/xlink">
 <metadata>
  <rdf:RDF xmlns:cc="http://creativecommons.org/ns#" xmlns:dc="http://purl.org/dc/elements/1.1/" xmlns:rdf="http://www.w3.org/1999/02/22-rdf-syntax-ns#">
   <cc:Work>
    <dc:type rdf:resource="http://purl.org/dc/dcmitype/StillImage"/>
    <dc:date>2020-10-25T12:15:04.574397</dc:date>
    <dc:format>image/svg+xml</dc:format>
    <dc:creator>
     <cc:Agent>
      <dc:title>Matplotlib v3.3.1, https://matplotlib.org/</dc:title>
     </cc:Agent>
    </dc:creator>
   </cc:Work>
  </rdf:RDF>
 </metadata>
 <defs>
  <style type="text/css">*{stroke-linecap:butt;stroke-linejoin:round;}</style>
 </defs>
 <g id="figure_1">
  <g id="patch_1">
   <path d="M 0 345.6 
L 460.8 345.6 
L 460.8 0 
L 0 0 
z
" style="fill:#ffffff;"/>
  </g>
  <g id="axes_1">
   <g id="patch_2">
    <path d="M 57.6 345.6 
L 403.2 345.6 
L 403.2 0 
L 57.6 0 
z
" style="fill:#ffffff;"/>
   </g>
   <g id="matplotlib.axis_1"/>
   <g id="matplotlib.axis_2"/>
   <g id="patch_3">
    <path clip-path="url(#pe559a8a32a)" d="M 180.553846 106.338462 
C 205.172321 125.486164 231.622077 142.155373 259.517651 156.10316 
C 287.413225 170.050947 316.618445 181.209226 346.707692 189.415385 
" style="fill:none;stroke:#0000ff;stroke-linejoin:miter;"/>
   </g>
   <g id="patch_4">
    <path clip-path="url(#pe559a8a32a)" d="M 230.4 338.953846 
C 274.464515 338.953846 316.730194 321.446829 347.888511 290.288511 
C 379.046829 259.130194 396.553846 216.864515 396.553846 172.8 
C 396.553846 128.735485 379.046829 86.469806 347.888511 55.311489 
C 316.730194 24.153171 274.464515 6.646154 230.4 6.646154 
C 186.335485 6.646154 144.069806 24.153171 112.911489 55.311489 
C 81.753171 86.469806 64.246154 128.735485 64.246154 172.8 
C 64.246154 216.864515 81.753171 259.130194 112.911489 290.288511 
C 144.069806 321.446829 186.335485 338.953846 230.4 338.953846 
z
" style="fill:none;stroke:#000000;stroke-linejoin:miter;"/>
   </g>
   <g id="patch_5">
    <path clip-path="url(#pe559a8a32a)" d="M 268.033946 160.255351 
C 256.645021 184.220043 247.373992 209.135025 240.326895 234.715339 
C 233.279797 260.295653 228.483601 286.443402 225.99316 312.859529 
" style="fill:none;stroke:#ffa500;stroke-linejoin:miter;"/>
   </g>
   <g id="patch_6">
    <path clip-path="url(#pe559a8a32a)" d="M 230.4 338.953846 
C 274.464515 338.953846 316.730194 321.446829 347.888511 290.288511 
C 379.046829 259.130194 396.553846 216.864515 396.553846 172.8 
C 396.553846 128.735485 379.046829 86.469806 347.888511 55.311489 
C 316.730194 24.153171 274.464515 6.646154 230.4 6.646154 
C 186.335485 6.646154 144.069806 24.153171 112.911489 55.311489 
C 81.753171 86.469806 64.246154 128.735485 64.246154 172.8 
C 64.246154 216.864515 81.753171 259.130194 112.911489 290.288511 
C 144.069806 321.446829 186.335485 338.953846 230.4 338.953846 
z
" style="fill:none;stroke:#000000;stroke-linejoin:miter;"/>
   </g>
  </g>
 </g>
 <defs>
  <clipPath id="pe559a8a32a">
   <rect height="345.6" width="345.6" x="57.6" y="0"/>
  </clipPath>
 </defs>
</svg>
