<?xml version="1.0" encoding="utf-8" standalone="no"?>
<!DOCTYPE svg PUBLIC "-//W3C//DTD SVG 1.1//EN"
  "http://www.w3.org/Graphics/SVG/1.1/DTD/svg11.dtd">
<svg xmlns:xlink="http://www.w3.org/1999/xlink" width="460.8pt" height="345.6pt" viewBox="0 0 460.8 345.6" xmlns="http://www.w3.org/2000/svg" version="1.1">
 <metadata>
  <rdf:RDF xmlns:dc="http://purl.org/dc/elements/1.1/" xmlns:cc="http://creativecommons.org/ns#" xmlns:rdf="http://www.w3.org/1999/02/22-rdf-syntax-ns#">
   <cc:Work>
    <dc:type rdf:resource="http://purl.org/dc/dcmitype/StillImage"/>
    <dc:date>2022-05-16T19:32:47.971871</dc:date>
    <dc:format>image/svg+xml</dc:format>
    <dc:creator>
     <cc:Agent>
      <dc:title>Matplotlib v3.5.1, https://matplotlib.org/</dc:title>
     </cc:Agent>
    </dc:creator>
   </cc:Work>
  </rdf:RDF>
 </metadata>
 <defs>
  <style type="text/css">*{stroke-linejoin: round; stroke-linecap: butt}</style>
 </defs>
 <g id="figure_1">
  <g id="patch_1">
   <path d="M 0 345.6 
L 460.8 345.6 
L 460.8 0 
L 0 0 
z
" style="fill: #ffffff"/>
  </g>
  <g id="axes_1">
   <g id="patch_2">
    <path d="M 0 225.969231 
L 460.8 225.969231 
L 460.8 119.630769 
L 0 119.630769 
z
" style="fill: #ffffff"/>
   </g>
   <g id="matplotlib.axis_1"/>
   <g id="matplotlib.axis_2"/>
   <g id="line2d_1">
    <path d="M 8.861538 223.92426 
L 281.52426 223.92426 
" clip-path="url(#pc68d40bb38)" style="fill: none; stroke: #000000; stroke-linecap: square"/>
   </g>
   <g id="line2d_2">
    <path d="M 42.944379 223.92426 
L 451.938462 223.92426 
" clip-path="url(#pc68d40bb38)" style="fill: none; stroke: #000000; stroke-linecap: square"/>
   </g>
   <g id="patch_3">
    <path d="M 213.35858 223.92426 
C 213.35858 205.852531 206.171956 188.502488 193.393314 175.723845 
C 180.614672 162.945203 163.264628 155.75858 145.192899 155.75858 
C 127.12117 155.75858 109.771127 162.945203 96.992485 175.723845 
C 84.213842 188.502488 77.027219 205.852531 77.027219 223.92426 
" clip-path="url(#pc68d40bb38)" style="fill: none; stroke: #ff0000; stroke-linejoin: miter"/>
   </g>
   <g id="patch_4">
    <path d="M 349.689941 223.92426 
C 349.689941 196.816667 338.910006 170.791601 319.742042 151.623638 
C 300.574079 132.455675 274.549014 121.67574 247.44142 121.67574 
C 220.333827 121.67574 194.308761 132.455675 175.140798 151.623638 
C 155.972835 170.791601 145.192899 196.816667 145.192899 223.92426 
" clip-path="url(#pc68d40bb38)" style="fill: none; stroke: #ff0000; stroke-linejoin: miter"/>
   </g>
  </g>
 </g>
 <defs>
  <clipPath id="pc68d40bb38">
   <rect x="0" y="119.630769" width="460.8" height="106.338462"/>
  </clipPath>
 </defs>
</svg>
