<?xml version="1.0" encoding="utf-8" standalone="no"?>
<!DOCTYPE svg PUBLIC "-//W3C//DTD SVG 1.1//EN"
  "http://www.w3.org/Graphics/SVG/1.1/DTD/svg11.dtd">
<svg xmlns:xlink="http://www.w3.org/1999/xlink" width="460.8pt" height="345.6pt" viewBox="0 0 460.8 345.6" xmlns="http://www.w3.org/2000/svg" version="1.1">
 <metadata>
  <rdf:RDF xmlns:dc="http://purl.org/dc/elements/1.1/" xmlns:cc="http://creativecommons.org/ns#" xmlns:rdf="http://www.w3.org/1999/02/22-rdf-syntax-ns#">
   <cc:Work>
    <dc:type rdf:resource="http://purl.org/dc/dcmitype/StillImage"/>
    <dc:date>2022-01-31T17:14:14.390162</dc:date>
    <dc:format>image/svg+xml</dc:format>
    <dc:creator>
     <cc:Agent>
      <dc:title>Matplotlib v3.5.1, https://matplotlib.org/</dc:title>
     </cc:Agent>
    </dc:creator>
   </cc:Work>
  </rdf:RDF>
 </metadata>
 <defs>
  <style type="text/css">*{stroke-linejoin: round; stroke-linecap: butt}</style>
 </defs>
 <g id="figure_1">
  <g id="patch_1">
   <path d="M 0 345.6 
L 460.8 345.6 
L 460.8 0 
L 0 0 
z
" style="fill: #ffffff"/>
  </g>
  <g id="axes_1">
   <g id="patch_2">
    <path d="M 0 303.872584 
L 447.535 303.872584 
L 447.535 41.727416 
L 0 41.727416 
z
" style="fill: #ffffff"/>
   </g>
   <g id="matplotlib.axis_1">
    <g id="xtick_1">
     <g id="line2d_1">
      <defs>
       <path id="m963685140e" d="M 0 0 
L 0 3.5 
" style="stroke: #000000; stroke-width: 0.8"/>
      </defs>
      <g>
       <use xlink:href="#m963685140e" x="8.606442" y="298.831331" style="stroke: #000000; stroke-width: 0.8"/>
      </g>
     </g>
     <g id="text_1">
      <!-- −8 -->
      <g transform="translate(1.235349 313.429768)scale(0.1 -0.1)">
       <defs>
        <path id="DejaVuSans-2212" d="M 678 2272 
L 4684 2272 
L 4684 1741 
L 678 1741 
L 678 2272 
z
" transform="scale(0.015625)"/>
        <path id="DejaVuSans-38" d="M 2034 2216 
Q 1584 2216 1326 1975 
Q 1069 1734 1069 1313 
Q 1069 891 1326 650 
Q 1584 409 2034 409 
Q 2484 409 2743 651 
Q 3003 894 3003 1313 
Q 3003 1734 2745 1975 
Q 2488 2216 2034 2216 
z
M 1403 2484 
Q 997 2584 770 2862 
Q 544 3141 544 3541 
Q 544 4100 942 4425 
Q 1341 4750 2034 4750 
Q 2731 4750 3128 4425 
Q 3525 4100 3525 3541 
Q 3525 3141 3298 2862 
Q 3072 2584 2669 2484 
Q 3125 2378 3379 2068 
Q 3634 1759 3634 1313 
Q 3634 634 3220 271 
Q 2806 -91 2034 -91 
Q 1263 -91 848 271 
Q 434 634 434 1313 
Q 434 1759 690 2068 
Q 947 2378 1403 2484 
z
M 1172 3481 
Q 1172 3119 1398 2916 
Q 1625 2713 2034 2713 
Q 2441 2713 2670 2916 
Q 2900 3119 2900 3481 
Q 2900 3844 2670 4047 
Q 2441 4250 2034 4250 
Q 1625 4250 1398 4047 
Q 1172 3844 1172 3481 
z
" transform="scale(0.015625)"/>
       </defs>
       <use xlink:href="#DejaVuSans-2212"/>
       <use xlink:href="#DejaVuSans-38" x="83.789062"/>
      </g>
     </g>
    </g>
    <g id="xtick_2">
     <g id="line2d_2">
      <g>
       <use xlink:href="#m963685140e" x="71.625657" y="298.831331" style="stroke: #000000; stroke-width: 0.8"/>
      </g>
     </g>
     <g id="text_2">
      <!-- −6 -->
      <g transform="translate(64.254563 313.429768)scale(0.1 -0.1)">
       <defs>
        <path id="DejaVuSans-36" d="M 2113 2584 
Q 1688 2584 1439 2293 
Q 1191 2003 1191 1497 
Q 1191 994 1439 701 
Q 1688 409 2113 409 
Q 2538 409 2786 701 
Q 3034 994 3034 1497 
Q 3034 2003 2786 2293 
Q 2538 2584 2113 2584 
z
M 3366 4563 
L 3366 3988 
Q 3128 4100 2886 4159 
Q 2644 4219 2406 4219 
Q 1781 4219 1451 3797 
Q 1122 3375 1075 2522 
Q 1259 2794 1537 2939 
Q 1816 3084 2150 3084 
Q 2853 3084 3261 2657 
Q 3669 2231 3669 1497 
Q 3669 778 3244 343 
Q 2819 -91 2113 -91 
Q 1303 -91 875 529 
Q 447 1150 447 2328 
Q 447 3434 972 4092 
Q 1497 4750 2381 4750 
Q 2619 4750 2861 4703 
Q 3103 4656 3366 4563 
z
" transform="scale(0.015625)"/>
       </defs>
       <use xlink:href="#DejaVuSans-2212"/>
       <use xlink:href="#DejaVuSans-36" x="83.789062"/>
      </g>
     </g>
    </g>
    <g id="xtick_3">
     <g id="line2d_3">
      <g>
       <use xlink:href="#m963685140e" x="134.644872" y="298.831331" style="stroke: #000000; stroke-width: 0.8"/>
      </g>
     </g>
     <g id="text_3">
      <!-- −4 -->
      <g transform="translate(127.273778 313.429768)scale(0.1 -0.1)">
       <defs>
        <path id="DejaVuSans-34" d="M 2419 4116 
L 825 1625 
L 2419 1625 
L 2419 4116 
z
M 2253 4666 
L 3047 4666 
L 3047 1625 
L 3713 1625 
L 3713 1100 
L 3047 1100 
L 3047 0 
L 2419 0 
L 2419 1100 
L 313 1100 
L 313 1709 
L 2253 4666 
z
" transform="scale(0.015625)"/>
       </defs>
       <use xlink:href="#DejaVuSans-2212"/>
       <use xlink:href="#DejaVuSans-34" x="83.789062"/>
      </g>
     </g>
    </g>
    <g id="xtick_4">
     <g id="line2d_4">
      <g>
       <use xlink:href="#m963685140e" x="197.664087" y="298.831331" style="stroke: #000000; stroke-width: 0.8"/>
      </g>
     </g>
     <g id="text_4">
      <!-- −2 -->
      <g transform="translate(190.292993 313.429768)scale(0.1 -0.1)">
       <defs>
        <path id="DejaVuSans-32" d="M 1228 531 
L 3431 531 
L 3431 0 
L 469 0 
L 469 531 
Q 828 903 1448 1529 
Q 2069 2156 2228 2338 
Q 2531 2678 2651 2914 
Q 2772 3150 2772 3378 
Q 2772 3750 2511 3984 
Q 2250 4219 1831 4219 
Q 1534 4219 1204 4116 
Q 875 4013 500 3803 
L 500 4441 
Q 881 4594 1212 4672 
Q 1544 4750 1819 4750 
Q 2544 4750 2975 4387 
Q 3406 4025 3406 3419 
Q 3406 3131 3298 2873 
Q 3191 2616 2906 2266 
Q 2828 2175 2409 1742 
Q 1991 1309 1228 531 
z
" transform="scale(0.015625)"/>
       </defs>
       <use xlink:href="#DejaVuSans-2212"/>
       <use xlink:href="#DejaVuSans-32" x="83.789062"/>
      </g>
     </g>
    </g>
    <g id="xtick_5">
     <g id="line2d_5">
      <g>
       <use xlink:href="#m963685140e" x="260.683301" y="298.831331" style="stroke: #000000; stroke-width: 0.8"/>
      </g>
     </g>
    </g>
    <g id="xtick_6">
     <g id="line2d_6">
      <g>
       <use xlink:href="#m963685140e" x="323.702516" y="298.831331" style="stroke: #000000; stroke-width: 0.8"/>
      </g>
     </g>
     <g id="text_5">
      <!-- 2 -->
      <g transform="translate(320.521266 313.429768)scale(0.1 -0.1)">
       <use xlink:href="#DejaVuSans-32"/>
      </g>
     </g>
    </g>
    <g id="xtick_7">
     <g id="line2d_7">
      <g>
       <use xlink:href="#m963685140e" x="386.721731" y="298.831331" style="stroke: #000000; stroke-width: 0.8"/>
      </g>
     </g>
     <g id="text_6">
      <!-- 4 -->
      <g transform="translate(383.540481 313.429768)scale(0.1 -0.1)">
       <use xlink:href="#DejaVuSans-34"/>
      </g>
     </g>
    </g>
    <g id="xtick_8">
     <g id="line2d_8">
      <defs>
       <path id="mf80b64d49d" d="M 0 0 
L 0 2 
" style="stroke: #000000; stroke-width: 0.6"/>
      </defs>
      <g>
       <use xlink:href="#mf80b64d49d" x="24.361246" y="298.831331" style="stroke: #000000; stroke-width: 0.6"/>
      </g>
     </g>
    </g>
    <g id="xtick_9">
     <g id="line2d_9">
      <g>
       <use xlink:href="#mf80b64d49d" x="40.11605" y="298.831331" style="stroke: #000000; stroke-width: 0.6"/>
      </g>
     </g>
    </g>
    <g id="xtick_10">
     <g id="line2d_10">
      <g>
       <use xlink:href="#mf80b64d49d" x="55.870853" y="298.831331" style="stroke: #000000; stroke-width: 0.6"/>
      </g>
     </g>
    </g>
    <g id="xtick_11">
     <g id="line2d_11">
      <g>
       <use xlink:href="#mf80b64d49d" x="87.380461" y="298.831331" style="stroke: #000000; stroke-width: 0.6"/>
      </g>
     </g>
    </g>
    <g id="xtick_12">
     <g id="line2d_12">
      <g>
       <use xlink:href="#mf80b64d49d" x="103.135264" y="298.831331" style="stroke: #000000; stroke-width: 0.6"/>
      </g>
     </g>
    </g>
    <g id="xtick_13">
     <g id="line2d_13">
      <g>
       <use xlink:href="#mf80b64d49d" x="118.890068" y="298.831331" style="stroke: #000000; stroke-width: 0.6"/>
      </g>
     </g>
    </g>
    <g id="xtick_14">
     <g id="line2d_14">
      <g>
       <use xlink:href="#mf80b64d49d" x="150.399675" y="298.831331" style="stroke: #000000; stroke-width: 0.6"/>
      </g>
     </g>
    </g>
    <g id="xtick_15">
     <g id="line2d_15">
      <g>
       <use xlink:href="#mf80b64d49d" x="166.154479" y="298.831331" style="stroke: #000000; stroke-width: 0.6"/>
      </g>
     </g>
    </g>
    <g id="xtick_16">
     <g id="line2d_16">
      <g>
       <use xlink:href="#mf80b64d49d" x="181.909283" y="298.831331" style="stroke: #000000; stroke-width: 0.6"/>
      </g>
     </g>
    </g>
    <g id="xtick_17">
     <g id="line2d_17">
      <g>
       <use xlink:href="#mf80b64d49d" x="213.41889" y="298.831331" style="stroke: #000000; stroke-width: 0.6"/>
      </g>
     </g>
    </g>
    <g id="xtick_18">
     <g id="line2d_18">
      <g>
       <use xlink:href="#mf80b64d49d" x="229.173694" y="298.831331" style="stroke: #000000; stroke-width: 0.6"/>
      </g>
     </g>
    </g>
    <g id="xtick_19">
     <g id="line2d_19">
      <g>
       <use xlink:href="#mf80b64d49d" x="244.928498" y="298.831331" style="stroke: #000000; stroke-width: 0.6"/>
      </g>
     </g>
    </g>
    <g id="xtick_20">
     <g id="line2d_20">
      <g>
       <use xlink:href="#mf80b64d49d" x="276.438105" y="298.831331" style="stroke: #000000; stroke-width: 0.6"/>
      </g>
     </g>
    </g>
    <g id="xtick_21">
     <g id="line2d_21">
      <g>
       <use xlink:href="#mf80b64d49d" x="292.192909" y="298.831331" style="stroke: #000000; stroke-width: 0.6"/>
      </g>
     </g>
    </g>
    <g id="xtick_22">
     <g id="line2d_22">
      <g>
       <use xlink:href="#mf80b64d49d" x="307.947712" y="298.831331" style="stroke: #000000; stroke-width: 0.6"/>
      </g>
     </g>
    </g>
    <g id="xtick_23">
     <g id="line2d_23">
      <g>
       <use xlink:href="#mf80b64d49d" x="339.45732" y="298.831331" style="stroke: #000000; stroke-width: 0.6"/>
      </g>
     </g>
    </g>
    <g id="xtick_24">
     <g id="line2d_24">
      <g>
       <use xlink:href="#mf80b64d49d" x="355.212123" y="298.831331" style="stroke: #000000; stroke-width: 0.6"/>
      </g>
     </g>
    </g>
    <g id="xtick_25">
     <g id="line2d_25">
      <g>
       <use xlink:href="#mf80b64d49d" x="370.966927" y="298.831331" style="stroke: #000000; stroke-width: 0.6"/>
      </g>
     </g>
    </g>
    <g id="xtick_26">
     <g id="line2d_26">
      <g>
       <use xlink:href="#mf80b64d49d" x="402.476535" y="298.831331" style="stroke: #000000; stroke-width: 0.6"/>
      </g>
     </g>
    </g>
    <g id="xtick_27">
     <g id="line2d_27">
      <g>
       <use xlink:href="#mf80b64d49d" x="418.231338" y="298.831331" style="stroke: #000000; stroke-width: 0.6"/>
      </g>
     </g>
    </g>
    <g id="xtick_28">
     <g id="line2d_28">
      <g>
       <use xlink:href="#mf80b64d49d" x="433.986142" y="298.831331" style="stroke: #000000; stroke-width: 0.6"/>
      </g>
     </g>
    </g>
    <g id="text_7">
     <!-- $ x $ -->
     <g transform="translate(455.535 298.831331)scale(0.16 -0.16)">
      <defs>
       <path id="Cmmi10-78" d="M 500 184 
Q 613 97 819 97 
Q 1019 97 1172 289 
Q 1325 481 1381 709 
L 1672 1844 
Q 1741 2153 1741 2266 
Q 1741 2425 1652 2544 
Q 1563 2663 1403 2663 
Q 1200 2663 1022 2536 
Q 844 2409 722 2214 
Q 600 2019 550 1819 
Q 538 1778 500 1778 
L 422 1778 
Q 372 1778 372 1838 
L 372 1856 
Q 434 2094 584 2320 
Q 734 2547 951 2687 
Q 1169 2828 1416 2828 
Q 1650 2828 1839 2703 
Q 2028 2578 2106 2363 
Q 2216 2559 2386 2693 
Q 2556 2828 2759 2828 
Q 2897 2828 3040 2779 
Q 3184 2731 3275 2631 
Q 3366 2531 3366 2381 
Q 3366 2219 3261 2101 
Q 3156 1984 2994 1984 
Q 2891 1984 2822 2050 
Q 2753 2116 2753 2216 
Q 2753 2350 2845 2451 
Q 2938 2553 3066 2572 
Q 2950 2663 2747 2663 
Q 2541 2663 2389 2472 
Q 2238 2281 2175 2047 
L 1894 916 
Q 1825 659 1825 494 
Q 1825 331 1917 214 
Q 2009 97 2163 97 
Q 2463 97 2698 361 
Q 2934 625 3009 941 
Q 3022 978 3059 978 
L 3138 978 
Q 3163 978 3178 961 
Q 3194 944 3194 922 
Q 3194 916 3188 903 
Q 3097 522 2806 225 
Q 2516 -72 2150 -72 
Q 1916 -72 1727 54 
Q 1538 181 1459 397 
Q 1359 209 1182 68 
Q 1006 -72 806 -72 
Q 669 -72 523 -23 
Q 378 25 287 125 
Q 197 225 197 378 
Q 197 528 301 651 
Q 406 775 563 775 
Q 669 775 741 711 
Q 813 647 813 544 
Q 813 409 723 309 
Q 634 209 500 184 
z
" transform="scale(0.015625)"/>
      </defs>
      <use xlink:href="#Cmmi10-78" transform="translate(0 0.8125)"/>
     </g>
    </g>
   </g>
   <g id="matplotlib.axis_2">
    <g id="ytick_1">
     <g id="line2d_29">
      <defs>
       <path id="mb667757d73" d="M 0 0 
L -3.5 0 
" style="stroke: #000000; stroke-width: 0.8"/>
      </defs>
      <g>
       <use xlink:href="#mb667757d73" x="260.683301" y="298.831331" style="stroke: #000000; stroke-width: 0.8"/>
      </g>
     </g>
    </g>
    <g id="ytick_2">
     <g id="line2d_30">
      <g>
       <use xlink:href="#mb667757d73" x="260.683301" y="267.321723" style="stroke: #000000; stroke-width: 0.8"/>
      </g>
     </g>
     <g id="text_8">
      <!-- 1 -->
      <g transform="translate(247.320801 271.120942)scale(0.1 -0.1)">
       <defs>
        <path id="DejaVuSans-31" d="M 794 531 
L 1825 531 
L 1825 4091 
L 703 3866 
L 703 4441 
L 1819 4666 
L 2450 4666 
L 2450 531 
L 3481 531 
L 3481 0 
L 794 0 
L 794 531 
z
" transform="scale(0.015625)"/>
       </defs>
       <use xlink:href="#DejaVuSans-31"/>
      </g>
     </g>
    </g>
    <g id="ytick_3">
     <g id="line2d_31">
      <g>
       <use xlink:href="#mb667757d73" x="260.683301" y="235.812116" style="stroke: #000000; stroke-width: 0.8"/>
      </g>
     </g>
     <g id="text_9">
      <!-- 2 -->
      <g transform="translate(247.320801 239.611335)scale(0.1 -0.1)">
       <use xlink:href="#DejaVuSans-32"/>
      </g>
     </g>
    </g>
    <g id="ytick_4">
     <g id="line2d_32">
      <g>
       <use xlink:href="#mb667757d73" x="260.683301" y="204.302509" style="stroke: #000000; stroke-width: 0.8"/>
      </g>
     </g>
     <g id="text_10">
      <!-- 3 -->
      <g transform="translate(247.320801 208.101727)scale(0.1 -0.1)">
       <defs>
        <path id="DejaVuSans-33" d="M 2597 2516 
Q 3050 2419 3304 2112 
Q 3559 1806 3559 1356 
Q 3559 666 3084 287 
Q 2609 -91 1734 -91 
Q 1441 -91 1130 -33 
Q 819 25 488 141 
L 488 750 
Q 750 597 1062 519 
Q 1375 441 1716 441 
Q 2309 441 2620 675 
Q 2931 909 2931 1356 
Q 2931 1769 2642 2001 
Q 2353 2234 1838 2234 
L 1294 2234 
L 1294 2753 
L 1863 2753 
Q 2328 2753 2575 2939 
Q 2822 3125 2822 3475 
Q 2822 3834 2567 4026 
Q 2313 4219 1838 4219 
Q 1578 4219 1281 4162 
Q 984 4106 628 3988 
L 628 4550 
Q 988 4650 1302 4700 
Q 1616 4750 1894 4750 
Q 2613 4750 3031 4423 
Q 3450 4097 3450 3541 
Q 3450 3153 3228 2886 
Q 3006 2619 2597 2516 
z
" transform="scale(0.015625)"/>
       </defs>
       <use xlink:href="#DejaVuSans-33"/>
      </g>
     </g>
    </g>
    <g id="ytick_5">
     <g id="line2d_33">
      <g>
       <use xlink:href="#mb667757d73" x="260.683301" y="172.792901" style="stroke: #000000; stroke-width: 0.8"/>
      </g>
     </g>
     <g id="text_11">
      <!-- 4 -->
      <g transform="translate(247.320801 176.59212)scale(0.1 -0.1)">
       <use xlink:href="#DejaVuSans-34"/>
      </g>
     </g>
    </g>
    <g id="ytick_6">
     <g id="line2d_34">
      <g>
       <use xlink:href="#mb667757d73" x="260.683301" y="141.283294" style="stroke: #000000; stroke-width: 0.8"/>
      </g>
     </g>
     <g id="text_12">
      <!-- 5 -->
      <g transform="translate(247.320801 145.082513)scale(0.1 -0.1)">
       <defs>
        <path id="DejaVuSans-35" d="M 691 4666 
L 3169 4666 
L 3169 4134 
L 1269 4134 
L 1269 2991 
Q 1406 3038 1543 3061 
Q 1681 3084 1819 3084 
Q 2600 3084 3056 2656 
Q 3513 2228 3513 1497 
Q 3513 744 3044 326 
Q 2575 -91 1722 -91 
Q 1428 -91 1123 -41 
Q 819 9 494 109 
L 494 744 
Q 775 591 1075 516 
Q 1375 441 1709 441 
Q 2250 441 2565 725 
Q 2881 1009 2881 1497 
Q 2881 1984 2565 2268 
Q 2250 2553 1709 2553 
Q 1456 2553 1204 2497 
Q 953 2441 691 2322 
L 691 4666 
z
" transform="scale(0.015625)"/>
       </defs>
       <use xlink:href="#DejaVuSans-35"/>
      </g>
     </g>
    </g>
    <g id="ytick_7">
     <g id="line2d_35">
      <g>
       <use xlink:href="#mb667757d73" x="260.683301" y="109.773686" style="stroke: #000000; stroke-width: 0.8"/>
      </g>
     </g>
     <g id="text_13">
      <!-- 6 -->
      <g transform="translate(247.320801 113.572905)scale(0.1 -0.1)">
       <use xlink:href="#DejaVuSans-36"/>
      </g>
     </g>
    </g>
    <g id="ytick_8">
     <g id="line2d_36">
      <g>
       <use xlink:href="#mb667757d73" x="260.683301" y="78.264079" style="stroke: #000000; stroke-width: 0.8"/>
      </g>
     </g>
     <g id="text_14">
      <!-- 7 -->
      <g transform="translate(247.320801 82.063298)scale(0.1 -0.1)">
       <defs>
        <path id="DejaVuSans-37" d="M 525 4666 
L 3525 4666 
L 3525 4397 
L 1831 0 
L 1172 0 
L 2766 4134 
L 525 4134 
L 525 4666 
z
" transform="scale(0.015625)"/>
       </defs>
       <use xlink:href="#DejaVuSans-37"/>
      </g>
     </g>
    </g>
    <g id="ytick_9">
     <g id="line2d_37">
      <g>
       <use xlink:href="#mb667757d73" x="260.683301" y="46.754472" style="stroke: #000000; stroke-width: 0.8"/>
      </g>
     </g>
     <g id="text_15">
      <!-- 8 -->
      <g transform="translate(247.320801 50.55369)scale(0.1 -0.1)">
       <use xlink:href="#DejaVuSans-38"/>
      </g>
     </g>
    </g>
    <g id="ytick_10">
     <g id="line2d_38">
      <defs>
       <path id="m2af4a52c0a" d="M 0 0 
L -2 0 
" style="stroke: #000000; stroke-width: 0.6"/>
      </defs>
      <g>
       <use xlink:href="#m2af4a52c0a" x="260.683301" y="292.529409" style="stroke: #000000; stroke-width: 0.6"/>
      </g>
     </g>
    </g>
    <g id="ytick_11">
     <g id="line2d_39">
      <g>
       <use xlink:href="#m2af4a52c0a" x="260.683301" y="286.227488" style="stroke: #000000; stroke-width: 0.6"/>
      </g>
     </g>
    </g>
    <g id="ytick_12">
     <g id="line2d_40">
      <g>
       <use xlink:href="#m2af4a52c0a" x="260.683301" y="279.925566" style="stroke: #000000; stroke-width: 0.6"/>
      </g>
     </g>
    </g>
    <g id="ytick_13">
     <g id="line2d_41">
      <g>
       <use xlink:href="#m2af4a52c0a" x="260.683301" y="273.623645" style="stroke: #000000; stroke-width: 0.6"/>
      </g>
     </g>
    </g>
    <g id="ytick_14">
     <g id="line2d_42">
      <g>
       <use xlink:href="#m2af4a52c0a" x="260.683301" y="261.019802" style="stroke: #000000; stroke-width: 0.6"/>
      </g>
     </g>
    </g>
    <g id="ytick_15">
     <g id="line2d_43">
      <g>
       <use xlink:href="#m2af4a52c0a" x="260.683301" y="254.71788" style="stroke: #000000; stroke-width: 0.6"/>
      </g>
     </g>
    </g>
    <g id="ytick_16">
     <g id="line2d_44">
      <g>
       <use xlink:href="#m2af4a52c0a" x="260.683301" y="248.415959" style="stroke: #000000; stroke-width: 0.6"/>
      </g>
     </g>
    </g>
    <g id="ytick_17">
     <g id="line2d_45">
      <g>
       <use xlink:href="#m2af4a52c0a" x="260.683301" y="242.114037" style="stroke: #000000; stroke-width: 0.6"/>
      </g>
     </g>
    </g>
    <g id="ytick_18">
     <g id="line2d_46">
      <g>
       <use xlink:href="#m2af4a52c0a" x="260.683301" y="229.510194" style="stroke: #000000; stroke-width: 0.6"/>
      </g>
     </g>
    </g>
    <g id="ytick_19">
     <g id="line2d_47">
      <g>
       <use xlink:href="#m2af4a52c0a" x="260.683301" y="223.208273" style="stroke: #000000; stroke-width: 0.6"/>
      </g>
     </g>
    </g>
    <g id="ytick_20">
     <g id="line2d_48">
      <g>
       <use xlink:href="#m2af4a52c0a" x="260.683301" y="216.906352" style="stroke: #000000; stroke-width: 0.6"/>
      </g>
     </g>
    </g>
    <g id="ytick_21">
     <g id="line2d_49">
      <g>
       <use xlink:href="#m2af4a52c0a" x="260.683301" y="210.60443" style="stroke: #000000; stroke-width: 0.6"/>
      </g>
     </g>
    </g>
    <g id="ytick_22">
     <g id="line2d_50">
      <g>
       <use xlink:href="#m2af4a52c0a" x="260.683301" y="198.000587" style="stroke: #000000; stroke-width: 0.6"/>
      </g>
     </g>
    </g>
    <g id="ytick_23">
     <g id="line2d_51">
      <g>
       <use xlink:href="#m2af4a52c0a" x="260.683301" y="191.698666" style="stroke: #000000; stroke-width: 0.6"/>
      </g>
     </g>
    </g>
    <g id="ytick_24">
     <g id="line2d_52">
      <g>
       <use xlink:href="#m2af4a52c0a" x="260.683301" y="185.396744" style="stroke: #000000; stroke-width: 0.6"/>
      </g>
     </g>
    </g>
    <g id="ytick_25">
     <g id="line2d_53">
      <g>
       <use xlink:href="#m2af4a52c0a" x="260.683301" y="179.094823" style="stroke: #000000; stroke-width: 0.6"/>
      </g>
     </g>
    </g>
    <g id="ytick_26">
     <g id="line2d_54">
      <g>
       <use xlink:href="#m2af4a52c0a" x="260.683301" y="166.49098" style="stroke: #000000; stroke-width: 0.6"/>
      </g>
     </g>
    </g>
    <g id="ytick_27">
     <g id="line2d_55">
      <g>
       <use xlink:href="#m2af4a52c0a" x="260.683301" y="160.189058" style="stroke: #000000; stroke-width: 0.6"/>
      </g>
     </g>
    </g>
    <g id="ytick_28">
     <g id="line2d_56">
      <g>
       <use xlink:href="#m2af4a52c0a" x="260.683301" y="153.887137" style="stroke: #000000; stroke-width: 0.6"/>
      </g>
     </g>
    </g>
    <g id="ytick_29">
     <g id="line2d_57">
      <g>
       <use xlink:href="#m2af4a52c0a" x="260.683301" y="147.585215" style="stroke: #000000; stroke-width: 0.6"/>
      </g>
     </g>
    </g>
    <g id="ytick_30">
     <g id="line2d_58">
      <g>
       <use xlink:href="#m2af4a52c0a" x="260.683301" y="134.981372" style="stroke: #000000; stroke-width: 0.6"/>
      </g>
     </g>
    </g>
    <g id="ytick_31">
     <g id="line2d_59">
      <g>
       <use xlink:href="#m2af4a52c0a" x="260.683301" y="128.679451" style="stroke: #000000; stroke-width: 0.6"/>
      </g>
     </g>
    </g>
    <g id="ytick_32">
     <g id="line2d_60">
      <g>
       <use xlink:href="#m2af4a52c0a" x="260.683301" y="122.377529" style="stroke: #000000; stroke-width: 0.6"/>
      </g>
     </g>
    </g>
    <g id="ytick_33">
     <g id="line2d_61">
      <g>
       <use xlink:href="#m2af4a52c0a" x="260.683301" y="116.075608" style="stroke: #000000; stroke-width: 0.6"/>
      </g>
     </g>
    </g>
    <g id="ytick_34">
     <g id="line2d_62">
      <g>
       <use xlink:href="#m2af4a52c0a" x="260.683301" y="103.471765" style="stroke: #000000; stroke-width: 0.6"/>
      </g>
     </g>
    </g>
    <g id="ytick_35">
     <g id="line2d_63">
      <g>
       <use xlink:href="#m2af4a52c0a" x="260.683301" y="97.169843" style="stroke: #000000; stroke-width: 0.6"/>
      </g>
     </g>
    </g>
    <g id="ytick_36">
     <g id="line2d_64">
      <g>
       <use xlink:href="#m2af4a52c0a" x="260.683301" y="90.867922" style="stroke: #000000; stroke-width: 0.6"/>
      </g>
     </g>
    </g>
    <g id="ytick_37">
     <g id="line2d_65">
      <g>
       <use xlink:href="#m2af4a52c0a" x="260.683301" y="84.566001" style="stroke: #000000; stroke-width: 0.6"/>
      </g>
     </g>
    </g>
    <g id="ytick_38">
     <g id="line2d_66">
      <g>
       <use xlink:href="#m2af4a52c0a" x="260.683301" y="71.962158" style="stroke: #000000; stroke-width: 0.6"/>
      </g>
     </g>
    </g>
    <g id="ytick_39">
     <g id="line2d_67">
      <g>
       <use xlink:href="#m2af4a52c0a" x="260.683301" y="65.660236" style="stroke: #000000; stroke-width: 0.6"/>
      </g>
     </g>
    </g>
    <g id="ytick_40">
     <g id="line2d_68">
      <g>
       <use xlink:href="#m2af4a52c0a" x="260.683301" y="59.358315" style="stroke: #000000; stroke-width: 0.6"/>
      </g>
     </g>
    </g>
    <g id="ytick_41">
     <g id="line2d_69">
      <g>
       <use xlink:href="#m2af4a52c0a" x="260.683301" y="53.056393" style="stroke: #000000; stroke-width: 0.6"/>
      </g>
     </g>
    </g>
    <g id="text_16">
     <!-- $ y $ -->
     <g transform="translate(256.683301 30.367416)scale(0.16 -0.16)">
      <defs>
       <path id="Cmmi10-79" d="M 538 -916 
Q 672 -1147 1006 -1147 
Q 1309 -1147 1531 -934 
Q 1753 -722 1889 -420 
Q 2025 -119 2100 197 
Q 1816 -72 1484 -72 
Q 1231 -72 1053 15 
Q 875 103 776 276 
Q 678 450 678 697 
Q 678 906 734 1126 
Q 791 1347 892 1617 
Q 994 1888 1069 2088 
Q 1153 2322 1153 2472 
Q 1153 2663 1013 2663 
Q 759 2663 595 2402 
Q 431 2141 353 1819 
Q 341 1778 300 1778 
L 225 1778 
Q 172 1778 172 1838 
L 172 1856 
Q 275 2238 487 2533 
Q 700 2828 1025 2828 
Q 1253 2828 1411 2678 
Q 1569 2528 1569 2297 
Q 1569 2178 1516 2047 
Q 1488 1969 1388 1706 
Q 1288 1444 1234 1272 
Q 1181 1100 1147 934 
Q 1113 769 1113 603 
Q 1113 391 1203 244 
Q 1294 97 1491 97 
Q 1888 97 2203 581 
L 2688 2553 
Q 2709 2638 2787 2698 
Q 2866 2759 2956 2759 
Q 3034 2759 3092 2709 
Q 3150 2659 3150 2578 
Q 3150 2541 3144 2528 
L 2509 -19 
Q 2425 -347 2200 -647 
Q 1975 -947 1658 -1130 
Q 1341 -1313 997 -1313 
Q 831 -1313 668 -1248 
Q 506 -1184 406 -1056 
Q 306 -928 306 -756 
Q 306 -581 409 -453 
Q 513 -325 684 -325 
Q 788 -325 858 -389 
Q 928 -453 928 -556 
Q 928 -703 818 -812 
Q 709 -922 563 -922 
Q 556 -919 550 -917 
Q 544 -916 538 -916 
z
" transform="scale(0.015625)"/>
      </defs>
      <use xlink:href="#Cmmi10-79" transform="translate(0 0.8125)"/>
     </g>
    </g>
   </g>
   <g id="line2d_70">
    <path d="M 260.705582 298.80905 
L 263.114001 296.400631 
L 265.522419 293.992213 
L 267.930838 291.583794 
L 270.339256 289.175376 
L 272.747675 286.766957 
L 275.156094 284.358538 
L 277.564512 281.95012 
L 279.972931 279.541701 
L 282.381349 277.133283 
L 284.789768 274.724864 
L 287.198186 272.316446 
L 289.606605 269.908027 
L 292.015024 267.499608 
L 294.423442 265.09119 
L 296.831861 262.682771 
L 299.240279 260.274353 
L 301.648698 257.865934 
L 304.057117 255.457515 
L 306.465535 253.049097 
L 308.873954 250.640678 
L 311.282372 248.23226 
L 313.690791 245.823841 
L 316.09921 243.415422 
L 318.507628 241.007004 
L 320.916047 238.598585 
L 323.324465 236.190167 
L 325.732884 233.781748 
L 328.141303 231.373329 
L 330.549721 228.964911 
L 332.95814 226.556492 
L 335.366558 224.148074 
L 337.774977 221.739655 
L 340.183395 219.331237 
L 342.591814 216.922818 
L 345.000233 214.514399 
L 347.408651 212.105981 
L 349.81707 209.697562 
L 352.225488 207.289144 
L 354.633907 204.880725 
L 357.042326 202.472306 
L 359.450744 200.063888 
L 361.859163 197.655469 
L 364.267581 195.247051 
L 366.676 192.838632 
L 369.084419 190.430213 
L 371.492837 188.021795 
L 373.901256 185.613376 
L 376.309674 183.204958 
L 378.718093 180.796539 
L 381.126512 178.38812 
L 383.53493 175.979702 
L 385.943349 173.571283 
L 388.351767 171.162865 
L 390.760186 168.754446 
L 393.168604 166.346028 
L 395.577023 163.937609 
L 397.985442 161.52919 
L 400.39386 159.120772 
L 402.802279 156.712353 
L 405.210697 154.303935 
L 407.619116 151.895516 
L 410.027535 149.487097 
L 412.435953 147.078679 
L 414.844372 144.67026 
L 417.25279 142.261842 
L 419.661209 139.853423 
L 422.069628 137.445004 
L 424.478046 135.036586 
L 426.886465 132.628167 
L 429.294883 130.219749 
L 431.703302 127.81133 
L 434.111721 125.402911 
L 436.520139 122.994493 
L 438.928558 120.586074 
" clip-path="url(#p840efdae40)" style="fill: none; stroke: #ff0000; stroke-linecap: square"/>
   </g>
   <g id="line2d_71">
    <path d="M 260.702072 298.806022 
L 262.731034 296.070282 
L 264.759997 293.334543 
L 266.78896 290.598803 
L 268.817922 287.863064 
L 270.846885 285.127324 
L 272.875848 282.391585 
L 274.90481 279.655845 
L 276.933773 276.920106 
L 278.962736 274.184366 
L 280.991698 271.448627 
L 283.020661 268.712887 
L 285.049624 265.977148 
L 287.078587 263.241408 
L 289.107549 260.505669 
L 291.136512 257.769929 
L 293.165475 255.03419 
L 295.194437 252.29845 
L 297.2234 249.562711 
L 299.252363 246.826971 
L 301.281325 244.091232 
L 303.310288 241.355492 
L 305.339251 238.619753 
L 307.368214 235.884013 
L 309.397176 233.148274 
L 311.426139 230.412534 
L 313.455102 227.676795 
L 315.484064 224.941055 
L 317.513027 222.205316 
L 319.54199 219.469576 
L 321.570952 216.733837 
L 323.599915 213.998097 
L 325.628878 211.262358 
L 327.65784 208.526618 
L 329.686803 205.790879 
L 331.715766 203.055139 
L 333.744729 200.3194 
L 335.773691 197.58366 
L 337.802654 194.847921 
L 339.831617 192.112181 
L 341.860579 189.376442 
L 343.889542 186.640702 
L 345.918505 183.904963 
L 347.947467 181.169223 
L 349.97643 178.433484 
L 352.005393 175.697744 
L 354.034355 172.962005 
L 356.063318 170.226266 
L 358.092281 167.490526 
L 360.121244 164.754787 
L 362.150206 162.019047 
L 364.179169 159.283308 
L 366.208132 156.547568 
L 368.237094 153.811829 
L 370.266057 151.076089 
L 372.29502 148.34035 
L 374.323982 145.60461 
L 376.352945 142.868871 
L 378.381908 140.133131 
L 380.41087 137.397392 
L 382.439833 134.661652 
L 384.468796 131.925913 
L 386.497759 129.190173 
L 388.526721 126.454434 
L 390.555684 123.718694 
L 392.584647 120.982955 
L 394.613609 118.247215 
L 396.642572 115.511476 
L 398.671535 112.775736 
L 400.700497 110.039997 
L 402.72946 107.304257 
L 404.758423 104.568518 
L 406.787386 101.832778 
L 408.816348 99.097039 
L 410.845311 96.361299 
" clip-path="url(#p840efdae40)" style="fill: none; stroke: #ff0000; stroke-linecap: square"/>
   </g>
   <g id="line2d_72">
    <path d="M 260.698155 298.803542 
L 262.303741 295.799702 
L 263.909327 292.795862 
L 265.514912 289.792022 
L 267.120498 286.788182 
L 268.726084 283.784342 
L 270.33167 280.780502 
L 271.937256 277.776662 
L 273.542842 274.772822 
L 275.148428 271.768983 
L 276.754014 268.765143 
L 278.3596 265.761303 
L 279.965185 262.757463 
L 281.570771 259.753623 
L 283.176357 256.749783 
L 284.781943 253.745943 
L 286.387529 250.742103 
L 287.993115 247.738263 
L 289.598701 244.734423 
L 291.204287 241.730583 
L 292.809872 238.726744 
L 294.415458 235.722904 
L 296.021044 232.719064 
L 297.62663 229.715224 
L 299.232216 226.711384 
L 300.837802 223.707544 
L 302.443388 220.703704 
L 304.048974 217.699864 
L 305.65456 214.696024 
L 307.260145 211.692184 
L 308.865731 208.688344 
L 310.471317 205.684505 
L 312.076903 202.680665 
L 313.682489 199.676825 
L 315.288075 196.672985 
L 316.893661 193.669145 
L 318.499247 190.665305 
L 320.104832 187.661465 
L 321.710418 184.657625 
L 323.316004 181.653785 
L 324.92159 178.649945 
L 326.527176 175.646105 
L 328.132762 172.642266 
L 329.738348 169.638426 
L 331.343934 166.634586 
L 332.94952 163.630746 
L 334.555105 160.626906 
L 336.160691 157.623066 
L 337.766277 154.619226 
L 339.371863 151.615386 
L 340.977449 148.611546 
L 342.583035 145.607706 
L 344.188621 142.603866 
L 345.794207 139.600027 
L 347.399792 136.596187 
L 349.005378 133.592347 
L 350.610964 130.588507 
L 352.21655 127.584667 
L 353.822136 124.580827 
L 355.427722 121.576987 
L 357.033308 118.573147 
L 358.638894 115.569307 
L 360.244479 112.565467 
L 361.850065 109.561627 
L 363.455651 106.557788 
L 365.061237 103.553948 
L 366.666823 100.550108 
L 368.272409 97.546268 
L 369.877995 94.542428 
L 371.483581 91.538588 
L 373.089167 88.534748 
L 374.694752 85.530908 
L 376.300338 82.527068 
L 377.905924 79.523228 
L 379.51151 76.519388 
" clip-path="url(#p840efdae40)" style="fill: none; stroke: #ff0000; stroke-linecap: square"/>
   </g>
   <g id="line2d_73">
    <path d="M 260.693917 298.801663 
L 261.84137 295.594747 
L 262.988823 292.387831 
L 264.136276 289.180914 
L 265.283729 285.973998 
L 266.431181 282.767082 
L 267.578634 279.560165 
L 268.726087 276.353249 
L 269.87354 273.146333 
L 271.020993 269.939417 
L 272.168446 266.7325 
L 273.315899 263.525584 
L 274.463352 260.318668 
L 275.610805 257.111752 
L 276.758258 253.904835 
L 277.905711 250.697919 
L 279.053164 247.491003 
L 280.200617 244.284087 
L 281.34807 241.07717 
L 282.495523 237.870254 
L 283.642976 234.663338 
L 284.790429 231.456422 
L 285.937882 228.249505 
L 287.085335 225.042589 
L 288.232788 221.835673 
L 289.380241 218.628757 
L 290.527694 215.42184 
L 291.675147 212.214924 
L 292.8226 209.008008 
L 293.970053 205.801092 
L 295.117506 202.594175 
L 296.264959 199.387259 
L 297.412412 196.180343 
L 298.559865 192.973427 
L 299.707318 189.76651 
L 300.854771 186.559594 
L 302.002224 183.352678 
L 303.149677 180.145762 
L 304.29713 176.938845 
L 305.444583 173.731929 
L 306.592036 170.525013 
L 307.739489 167.318097 
L 308.886942 164.11118 
L 310.034395 160.904264 
L 311.181848 157.697348 
L 312.329301 154.490432 
L 313.476754 151.283515 
L 314.624207 148.076599 
L 315.77166 144.869683 
L 316.919113 141.662767 
L 318.066566 138.45585 
L 319.214019 135.248934 
L 320.361472 132.042018 
L 321.508925 128.835101 
L 322.656378 125.628185 
L 323.803831 122.421269 
L 324.951284 119.214353 
L 326.098737 116.007436 
L 327.24619 112.80052 
L 328.393643 109.593604 
L 329.541096 106.386688 
L 330.688549 103.179771 
L 331.836002 99.972855 
L 332.983455 96.765939 
L 334.130908 93.559023 
L 335.278361 90.352106 
L 336.425814 87.14519 
L 337.573266 83.938274 
L 338.720719 80.731358 
L 339.868172 77.524441 
L 341.015625 74.317525 
L 342.163078 71.110609 
L 343.310531 67.903693 
L 344.457984 64.696776 
L 345.605437 61.48986 
" clip-path="url(#p840efdae40)" style="fill: none; stroke: #ff0000; stroke-linecap: square"/>
   </g>
   <g id="line2d_74">
    <path d="M 260.689449 298.800427 
L 261.35393 295.459854 
L 262.018411 292.119281 
L 262.682892 288.778709 
L 263.347373 285.438136 
L 264.011855 282.097564 
L 264.676336 278.756991 
L 265.340817 275.416419 
L 266.005298 272.075846 
L 266.669779 268.735274 
L 267.33426 265.394701 
L 267.998742 262.054128 
L 268.663223 258.713556 
L 269.327704 255.372983 
L 269.992185 252.032411 
L 270.656666 248.691838 
L 271.321148 245.351266 
L 271.985629 242.010693 
L 272.65011 238.670121 
L 273.314591 235.329548 
L 273.979072 231.988976 
L 274.643554 228.648403 
L 275.308035 225.30783 
L 275.972516 221.967258 
L 276.636997 218.626685 
L 277.301478 215.286113 
L 277.96596 211.94554 
L 278.630441 208.604968 
L 279.294922 205.264395 
L 279.959403 201.923823 
L 280.623884 198.58325 
L 281.288366 195.242677 
L 281.952847 191.902105 
L 282.617328 188.561532 
L 283.281809 185.22096 
L 283.94629 181.880387 
L 284.610772 178.539815 
L 285.275253 175.199242 
L 285.939734 171.85867 
L 286.604215 168.518097 
L 287.268696 165.177525 
L 287.933177 161.836952 
L 288.597659 158.496379 
L 289.26214 155.155807 
L 289.926621 151.815234 
L 290.591102 148.474662 
L 291.255583 145.134089 
L 291.920065 141.793517 
L 292.584546 138.452944 
L 293.249027 135.112372 
L 293.913508 131.771799 
L 294.577989 128.431227 
L 295.242471 125.090654 
L 295.906952 121.750081 
L 296.571433 118.409509 
L 297.235914 115.068936 
L 297.900395 111.728364 
L 298.564877 108.387791 
L 299.229358 105.047219 
L 299.893839 101.706646 
L 300.55832 98.366074 
L 301.222801 95.025501 
L 301.887283 91.684928 
L 302.551764 88.344356 
L 303.216245 85.003783 
L 303.880726 81.663211 
L 304.545207 78.322638 
L 305.209689 74.982066 
L 305.87417 71.641493 
L 306.538651 68.300921 
L 307.203132 64.960348 
L 307.867613 61.619776 
L 308.532095 58.279203 
L 309.196576 54.93863 
L 309.861057 51.598058 
" clip-path="url(#p840efdae40)" style="fill: none; stroke: #ff0000; stroke-linecap: square"/>
   </g>
   <g id="line2d_75">
    <path d="M 260.684847 298.799859 
L 260.851973 295.397944 
L 261.019098 291.996028 
L 261.186224 288.594112 
L 261.353349 285.192197 
L 261.520474 281.790281 
L 261.6876 278.388366 
L 261.854725 274.98645 
L 262.021851 271.584535 
L 262.188976 268.182619 
L 262.356101 264.780704 
L 262.523227 261.378788 
L 262.690352 257.976873 
L 262.857478 254.574957 
L 263.024603 251.173042 
L 263.191728 247.771126 
L 263.358854 244.36921 
L 263.525979 240.967295 
L 263.693104 237.565379 
L 263.86023 234.163464 
L 264.027355 230.761548 
L 264.194481 227.359633 
L 264.361606 223.957717 
L 264.528731 220.555802 
L 264.695857 217.153886 
L 264.862982 213.751971 
L 265.030108 210.350055 
L 265.197233 206.94814 
L 265.364358 203.546224 
L 265.531484 200.144308 
L 265.698609 196.742393 
L 265.865735 193.340477 
L 266.03286 189.938562 
L 266.199985 186.536646 
L 266.367111 183.134731 
L 266.534236 179.732815 
L 266.701362 176.3309 
L 266.868487 172.928984 
L 267.035612 169.527069 
L 267.202738 166.125153 
L 267.369863 162.723238 
L 267.536989 159.321322 
L 267.704114 155.919406 
L 267.871239 152.517491 
L 268.038365 149.115575 
L 268.20549 145.71366 
L 268.372616 142.311744 
L 268.539741 138.909829 
L 268.706866 135.507913 
L 268.873992 132.105998 
L 269.041117 128.704082 
L 269.208242 125.302167 
L 269.375368 121.900251 
L 269.542493 118.498336 
L 269.709619 115.09642 
L 269.876744 111.694505 
L 270.043869 108.292589 
L 270.210995 104.890673 
L 270.37812 101.488758 
L 270.545246 98.086842 
L 270.712371 94.684927 
L 270.879496 91.283011 
L 271.046622 87.881096 
L 271.213747 84.47918 
L 271.380873 81.077265 
L 271.547998 77.675349 
L 271.715123 74.273434 
L 271.882249 70.871518 
L 272.049374 67.469603 
L 272.2165 64.067687 
L 272.383625 60.665771 
L 272.55075 57.263856 
L 272.717876 53.86194 
L 272.885001 50.460025 
L 273.052127 47.058109 
" clip-path="url(#p840efdae40)" style="fill: none; stroke: #ff0000; stroke-linecap: square"/>
   </g>
   <g id="line2d_76">
    <path d="M 260.680213 298.799973 
L 260.346365 295.410355 
L 260.012516 292.020738 
L 259.678668 288.631121 
L 259.34482 285.241504 
L 259.010972 281.851886 
L 258.677124 278.462269 
L 258.343276 275.072652 
L 258.009427 271.683034 
L 257.675579 268.293417 
L 257.341731 264.9038 
L 257.007883 261.514182 
L 256.674035 258.124565 
L 256.340187 254.734948 
L 256.006338 251.34533 
L 255.67249 247.955713 
L 255.338642 244.566096 
L 255.004794 241.176478 
L 254.670946 237.786861 
L 254.337098 234.397244 
L 254.003249 231.007626 
L 253.669401 227.618009 
L 253.335553 224.228392 
L 253.001705 220.838774 
L 252.667857 217.449157 
L 252.334009 214.05954 
L 252.00016 210.669922 
L 251.666312 207.280305 
L 251.332464 203.890688 
L 250.998616 200.50107 
L 250.664768 197.111453 
L 250.33092 193.721836 
L 249.997071 190.332218 
L 249.663223 186.942601 
L 249.329375 183.552984 
L 248.995527 180.163366 
L 248.661679 176.773749 
L 248.327831 173.384132 
L 247.993982 169.994514 
L 247.660134 166.604897 
L 247.326286 163.21528 
L 246.992438 159.825662 
L 246.65859 156.436045 
L 246.324742 153.046428 
L 245.990893 149.65681 
L 245.657045 146.267193 
L 245.323197 142.877576 
L 244.989349 139.487958 
L 244.655501 136.098341 
L 244.321653 132.708724 
L 243.987804 129.319107 
L 243.653956 125.929489 
L 243.320108 122.539872 
L 242.98626 119.150255 
L 242.652412 115.760637 
L 242.318564 112.37102 
L 241.984715 108.981403 
L 241.650867 105.591785 
L 241.317019 102.202168 
L 240.983171 98.812551 
L 240.649323 95.422933 
L 240.315475 92.033316 
L 239.981626 88.643699 
L 239.647778 85.254081 
L 239.31393 81.864464 
L 238.980082 78.474847 
L 238.646234 75.085229 
L 238.312386 71.695612 
L 237.978537 68.305995 
L 237.644689 64.916377 
L 237.310841 61.52676 
L 236.976993 58.137143 
L 236.643145 54.747525 
L 236.309297 51.357908 
L 235.975448 47.968291 
" clip-path="url(#p840efdae40)" style="fill: none; stroke: #ff0000; stroke-linecap: square"/>
   </g>
   <g id="line2d_77">
    <path d="M 260.675645 298.800765 
L 259.84805 295.496821 
L 259.020455 292.192877 
L 258.19286 288.888933 
L 257.365265 285.584989 
L 256.53767 282.281045 
L 255.710076 278.977101 
L 254.882481 275.673156 
L 254.054886 272.369212 
L 253.227291 269.065268 
L 252.399696 265.761324 
L 251.572101 262.45738 
L 250.744506 259.153436 
L 249.916911 255.849492 
L 249.089316 252.545547 
L 248.261721 249.241603 
L 247.434126 245.937659 
L 246.606531 242.633715 
L 245.778936 239.329771 
L 244.951342 236.025827 
L 244.123747 232.721883 
L 243.296152 229.417939 
L 242.468557 226.113994 
L 241.640962 222.81005 
L 240.813367 219.506106 
L 239.985772 216.202162 
L 239.158177 212.898218 
L 238.330582 209.594274 
L 237.502987 206.29033 
L 236.675392 202.986385 
L 235.847797 199.682441 
L 235.020202 196.378497 
L 234.192608 193.074553 
L 233.365013 189.770609 
L 232.537418 186.466665 
L 231.709823 183.162721 
L 230.882228 179.858776 
L 230.054633 176.554832 
L 229.227038 173.250888 
L 228.399443 169.946944 
L 227.571848 166.643 
L 226.744253 163.339056 
L 225.916658 160.035112 
L 225.089063 156.731168 
L 224.261468 153.427223 
L 223.433874 150.123279 
L 222.606279 146.819335 
L 221.778684 143.515391 
L 220.951089 140.211447 
L 220.123494 136.907503 
L 219.295899 133.603559 
L 218.468304 130.299614 
L 217.640709 126.99567 
L 216.813114 123.691726 
L 215.985519 120.387782 
L 215.157924 117.083838 
L 214.330329 113.779894 
L 213.502734 110.47595 
L 212.67514 107.172005 
L 211.847545 103.868061 
L 211.01995 100.564117 
L 210.192355 97.260173 
L 209.36476 93.956229 
L 208.537165 90.652285 
L 207.70957 87.348341 
L 206.881975 84.044396 
L 206.05438 80.740452 
L 205.226785 77.436508 
L 204.39919 74.132564 
L 203.571595 70.82862 
L 202.744 67.524676 
L 201.916406 64.220732 
L 201.088811 60.916788 
L 200.261216 57.612843 
L 199.433621 54.308899 
" clip-path="url(#p840efdae40)" style="fill: none; stroke: #ff0000; stroke-linecap: square"/>
   </g>
   <g id="line2d_78">
    <path d="M 260.671243 298.80222 
L 259.367816 295.655469 
L 258.06439 292.508719 
L 256.760963 289.361968 
L 255.457536 286.215217 
L 254.154109 283.068467 
L 252.850683 279.921716 
L 251.547256 276.774966 
L 250.243829 273.628215 
L 248.940402 270.481465 
L 247.636976 267.334714 
L 246.333549 264.187964 
L 245.030122 261.041213 
L 243.726695 257.894463 
L 242.423269 254.747712 
L 241.119842 251.600962 
L 239.816415 248.454211 
L 238.512988 245.307461 
L 237.209562 242.16071 
L 235.906135 239.013959 
L 234.602708 235.867209 
L 233.299281 232.720458 
L 231.995855 229.573708 
L 230.692428 226.426957 
L 229.389001 223.280207 
L 228.085574 220.133456 
L 226.782148 216.986706 
L 225.478721 213.839955 
L 224.175294 210.693205 
L 222.871867 207.546454 
L 221.568441 204.399704 
L 220.265014 201.252953 
L 218.961587 198.106203 
L 217.65816 194.959452 
L 216.354734 191.812701 
L 215.051307 188.665951 
L 213.74788 185.5192 
L 212.444453 182.37245 
L 211.141027 179.225699 
L 209.8376 176.078949 
L 208.534173 172.932198 
L 207.230746 169.785448 
L 205.92732 166.638697 
L 204.623893 163.491947 
L 203.320466 160.345196 
L 202.017039 157.198446 
L 200.713613 154.051695 
L 199.410186 150.904944 
L 198.106759 147.758194 
L 196.803332 144.611443 
L 195.499906 141.464693 
L 194.196479 138.317942 
L 192.893052 135.171192 
L 191.589625 132.024441 
L 190.286199 128.877691 
L 188.982772 125.73094 
L 187.679345 122.58419 
L 186.375918 119.437439 
L 185.072492 116.290689 
L 183.769065 113.143938 
L 182.465638 109.997188 
L 181.162211 106.850437 
L 179.858785 103.703686 
L 178.555358 100.556936 
L 177.251931 97.410185 
L 175.948504 94.263435 
L 174.645078 91.116684 
L 173.341651 87.969934 
L 172.038224 84.823183 
L 170.734797 81.676433 
L 169.431371 78.529682 
L 168.127944 75.382932 
L 166.824517 72.236181 
L 165.52109 69.089431 
L 164.217664 65.94268 
" clip-path="url(#p840efdae40)" style="fill: none; stroke: #ff0000; stroke-linecap: square"/>
   </g>
   <g id="line2d_79">
    <path d="M 260.667102 298.804304 
L 258.916059 295.882865 
L 257.165015 292.961425 
L 255.413972 290.039986 
L 253.662929 287.118547 
L 251.911886 284.197108 
L 250.160842 281.275668 
L 248.409799 278.354229 
L 246.658756 275.43279 
L 244.907712 272.51135 
L 243.156669 269.589911 
L 241.405626 266.668472 
L 239.654582 263.747033 
L 237.903539 260.825593 
L 236.152496 257.904154 
L 234.401452 254.982715 
L 232.650409 252.061275 
L 230.899366 249.139836 
L 229.148322 246.218397 
L 227.397279 243.296958 
L 225.646236 240.375518 
L 223.895192 237.454079 
L 222.144149 234.53264 
L 220.393106 231.6112 
L 218.642062 228.689761 
L 216.891019 225.768322 
L 215.139976 222.846883 
L 213.388932 219.925443 
L 211.637889 217.004004 
L 209.886846 214.082565 
L 208.135802 211.161125 
L 206.384759 208.239686 
L 204.633716 205.318247 
L 202.882673 202.396808 
L 201.131629 199.475368 
L 199.380586 196.553929 
L 197.629543 193.63249 
L 195.878499 190.71105 
L 194.127456 187.789611 
L 192.376413 184.868172 
L 190.625369 181.946733 
L 188.874326 179.025293 
L 187.123283 176.103854 
L 185.372239 173.182415 
L 183.621196 170.260975 
L 181.870153 167.339536 
L 180.119109 164.418097 
L 178.368066 161.496658 
L 176.617023 158.575218 
L 174.865979 155.653779 
L 173.114936 152.73234 
L 171.363893 149.8109 
L 169.612849 146.889461 
L 167.861806 143.968022 
L 166.110763 141.046583 
L 164.359719 138.125143 
L 162.608676 135.203704 
L 160.857633 132.282265 
L 159.106589 129.360825 
L 157.355546 126.439386 
L 155.604503 123.517947 
L 153.85346 120.596508 
L 152.102416 117.675068 
L 150.351373 114.753629 
L 148.60033 111.83219 
L 146.849286 108.91075 
L 145.098243 105.989311 
L 143.3472 103.067872 
L 141.596156 100.146433 
L 139.845113 97.224993 
L 138.09407 94.303554 
L 136.343026 91.382115 
L 134.591983 88.460675 
L 132.84094 85.539236 
L 131.089896 82.617797 
" clip-path="url(#p840efdae40)" style="fill: none; stroke: #ff0000; stroke-linecap: square"/>
   </g>
   <g id="line2d_80">
    <path d="M 260.663312 298.806973 
L 258.502557 296.174086 
L 256.341802 293.541198 
L 254.181047 290.90831 
L 252.020291 288.275423 
L 249.859536 285.642535 
L 247.698781 283.009647 
L 245.538026 280.37676 
L 243.377271 277.743872 
L 241.216516 275.110984 
L 239.055761 272.478096 
L 236.895006 269.845209 
L 234.734251 267.212321 
L 232.573496 264.579433 
L 230.412741 261.946546 
L 228.251985 259.313658 
L 226.09123 256.68077 
L 223.930475 254.047883 
L 221.76972 251.414995 
L 219.608965 248.782107 
L 217.44821 246.149219 
L 215.287455 243.516332 
L 213.1267 240.883444 
L 210.965945 238.250556 
L 208.80519 235.617669 
L 206.644434 232.984781 
L 204.483679 230.351893 
L 202.322924 227.719006 
L 200.162169 225.086118 
L 198.001414 222.45323 
L 195.840659 219.820342 
L 193.679904 217.187455 
L 191.519149 214.554567 
L 189.358394 211.921679 
L 187.197639 209.288792 
L 185.036884 206.655904 
L 182.876128 204.023016 
L 180.715373 201.390129 
L 178.554618 198.757241 
L 176.393863 196.124353 
L 174.233108 193.491465 
L 172.072353 190.858578 
L 169.911598 188.22569 
L 167.750843 185.592802 
L 165.590088 182.959915 
L 163.429333 180.327027 
L 161.268578 177.694139 
L 159.107822 175.061252 
L 156.947067 172.428364 
L 154.786312 169.795476 
L 152.625557 167.162588 
L 150.464802 164.529701 
L 148.304047 161.896813 
L 146.143292 159.263925 
L 143.982537 156.631038 
L 141.821782 153.99815 
L 139.661027 151.365262 
L 137.500271 148.732375 
L 135.339516 146.099487 
L 133.178761 143.466599 
L 131.018006 140.833711 
L 128.857251 138.200824 
L 126.696496 135.567936 
L 124.535741 132.935048 
L 122.374986 130.302161 
L 120.214231 127.669273 
L 118.053476 125.036385 
L 115.892721 122.403498 
L 113.731965 119.77061 
L 111.57121 117.137722 
L 109.410455 114.504834 
L 107.2497 111.871947 
L 105.088945 109.239059 
L 102.92819 106.606171 
L 100.767435 103.973284 
" clip-path="url(#p840efdae40)" style="fill: none; stroke: #ff0000; stroke-linecap: square"/>
   </g>
   <g id="line2d_81">
    <path d="M 260.659954 298.81017 
L 258.136261 296.522828 
L 255.612568 294.235486 
L 253.088875 291.948144 
L 250.565182 289.660802 
L 248.041489 287.37346 
L 245.517796 285.086118 
L 242.994103 282.798776 
L 240.47041 280.511434 
L 237.946717 278.224092 
L 235.423024 275.93675 
L 232.899331 273.649408 
L 230.375638 271.362066 
L 227.851945 269.074724 
L 225.328252 266.787381 
L 222.804559 264.500039 
L 220.280866 262.212697 
L 217.757172 259.925355 
L 215.233479 257.638013 
L 212.709786 255.350671 
L 210.186093 253.063329 
L 207.6624 250.775987 
L 205.138707 248.488645 
L 202.615014 246.201303 
L 200.091321 243.913961 
L 197.567628 241.626619 
L 195.043935 239.339277 
L 192.520242 237.051935 
L 189.996549 234.764593 
L 187.472856 232.477251 
L 184.949163 230.189909 
L 182.42547 227.902567 
L 179.901777 225.615225 
L 177.378084 223.327883 
L 174.854391 221.040541 
L 172.330698 218.753199 
L 169.807005 216.465856 
L 167.283312 214.178514 
L 164.759619 211.891172 
L 162.235926 209.60383 
L 159.712232 207.316488 
L 157.188539 205.029146 
L 154.664846 202.741804 
L 152.141153 200.454462 
L 149.61746 198.16712 
L 147.093767 195.879778 
L 144.570074 193.592436 
L 142.046381 191.305094 
L 139.522688 189.017752 
L 136.998995 186.73041 
L 134.475302 184.443068 
L 131.951609 182.155726 
L 129.427916 179.868384 
L 126.904223 177.581042 
L 124.38053 175.2937 
L 121.856837 173.006358 
L 119.333144 170.719016 
L 116.809451 168.431674 
L 114.285758 166.144331 
L 111.762065 163.856989 
L 109.238372 161.569647 
L 106.714679 159.282305 
L 104.190985 156.994963 
L 101.667292 154.707621 
L 99.143599 152.420279 
L 96.619906 150.132937 
L 94.096213 147.845595 
L 91.57252 145.558253 
L 89.048827 143.270911 
L 86.525134 140.983569 
L 84.001441 138.696227 
L 81.477748 136.408885 
L 78.954055 134.121543 
L 76.430362 131.834201 
L 73.906669 129.546859 
" clip-path="url(#p840efdae40)" style="fill: none; stroke: #ff0000; stroke-linecap: square"/>
   </g>
   <g id="line2d_82">
    <path d="M 260.657102 298.813825 
L 257.825101 296.921543 
L 254.993101 295.02926 
L 252.1611 293.136978 
L 249.329099 291.244696 
L 246.497099 289.352413 
L 243.665098 287.460131 
L 240.833097 285.567848 
L 238.001097 283.675566 
L 235.169096 281.783284 
L 232.337095 279.891001 
L 229.505095 277.998719 
L 226.673094 276.106437 
L 223.841093 274.214154 
L 221.009093 272.321872 
L 218.177092 270.42959 
L 215.345091 268.537307 
L 212.513091 266.645025 
L 209.68109 264.752743 
L 206.849089 262.86046 
L 204.017089 260.968178 
L 201.185088 259.075896 
L 198.353087 257.183613 
L 195.521087 255.291331 
L 192.689086 253.399049 
L 189.857085 251.506766 
L 187.025085 249.614484 
L 184.193084 247.722202 
L 181.361084 245.829919 
L 178.529083 243.937637 
L 175.697082 242.045355 
L 172.865082 240.153072 
L 170.033081 238.26079 
L 167.20108 236.368508 
L 164.36908 234.476225 
L 161.537079 232.583943 
L 158.705078 230.69166 
L 155.873078 228.799378 
L 153.041077 226.907096 
L 150.209076 225.014813 
L 147.377076 223.122531 
L 144.545075 221.230249 
L 141.713074 219.337966 
L 138.881074 217.445684 
L 136.049073 215.553402 
L 133.217072 213.661119 
L 130.385072 211.768837 
L 127.553071 209.876555 
L 124.72107 207.984272 
L 121.88907 206.09199 
L 119.057069 204.199708 
L 116.225068 202.307425 
L 113.393068 200.415143 
L 110.561067 198.522861 
L 107.729066 196.630578 
L 104.897066 194.738296 
L 102.065065 192.846014 
L 99.233064 190.953731 
L 96.401064 189.061449 
L 93.569063 187.169167 
L 90.737062 185.276884 
L 87.905062 183.384602 
L 85.073061 181.49232 
L 82.24106 179.600037 
L 79.40906 177.707755 
L 76.577059 175.815473 
L 73.745058 173.92319 
L 70.913058 172.030908 
L 68.081057 170.138625 
L 65.249056 168.246343 
L 62.417056 166.354061 
L 59.585055 164.461778 
L 56.753054 162.569496 
L 53.921054 160.677214 
L 51.089053 158.784931 
" clip-path="url(#p840efdae40)" style="fill: none; stroke: #ff0000; stroke-linecap: square"/>
   </g>
   <g id="line2d_83">
    <path d="M 260.654817 298.817859 
L 257.575813 297.361598 
L 254.496809 295.905338 
L 251.417805 294.449077 
L 248.338801 292.992817 
L 245.259797 291.536556 
L 242.180793 290.080296 
L 239.101789 288.624035 
L 236.022785 287.167775 
L 232.943781 285.711515 
L 229.864777 284.255254 
L 226.785773 282.798994 
L 223.706769 281.342733 
L 220.627765 279.886473 
L 217.548761 278.430212 
L 214.469757 276.973952 
L 211.390753 275.517691 
L 208.311749 274.061431 
L 205.232745 272.605171 
L 202.153741 271.14891 
L 199.074737 269.69265 
L 195.995733 268.236389 
L 192.916729 266.780129 
L 189.837725 265.323868 
L 186.758721 263.867608 
L 183.679717 262.411347 
L 180.600713 260.955087 
L 177.521709 259.498827 
L 174.442704 258.042566 
L 171.3637 256.586306 
L 168.284696 255.130045 
L 165.205692 253.673785 
L 162.126688 252.217524 
L 159.047684 250.761264 
L 155.96868 249.305003 
L 152.889676 247.848743 
L 149.810672 246.392483 
L 146.731668 244.936222 
L 143.652664 243.479962 
L 140.57366 242.023701 
L 137.494656 240.567441 
L 134.415652 239.11118 
L 131.336648 237.65492 
L 128.257644 236.198659 
L 125.17864 234.742399 
L 122.099636 233.286139 
L 119.020632 231.829878 
L 115.941628 230.373618 
L 112.862624 228.917357 
L 109.78362 227.461097 
L 106.704616 226.004836 
L 103.625612 224.548576 
L 100.546608 223.092315 
L 97.467604 221.636055 
L 94.3886 220.179795 
L 91.309596 218.723534 
L 88.230592 217.267274 
L 85.151588 215.811013 
L 82.072584 214.354753 
L 78.99358 212.898492 
L 75.914576 211.442232 
L 72.835572 209.985971 
L 69.756568 208.529711 
L 66.677564 207.073451 
L 63.59856 205.61719 
L 60.519556 204.16093 
L 57.440552 202.704669 
L 54.361548 201.248409 
L 51.282544 199.792148 
L 48.20354 198.335888 
L 45.124536 196.879627 
L 42.045532 195.423367 
L 38.966528 193.967107 
L 35.887524 192.510846 
L 32.80852 191.054586 
" clip-path="url(#p840efdae40)" style="fill: none; stroke: #ff0000; stroke-linecap: square"/>
   </g>
   <g id="line2d_84">
    <path d="M 260.653148 298.822184 
L 257.393792 297.833469 
L 254.134436 296.844754 
L 250.87508 295.856039 
L 247.615724 294.867324 
L 244.356367 293.878609 
L 241.097011 292.889895 
L 237.837655 291.90118 
L 234.578299 290.912465 
L 231.318942 289.92375 
L 228.059586 288.935035 
L 224.80023 287.94632 
L 221.540874 286.957605 
L 218.281517 285.96889 
L 215.022161 284.980175 
L 211.762805 283.99146 
L 208.503449 283.002745 
L 205.244093 282.014031 
L 201.984736 281.025316 
L 198.72538 280.036601 
L 195.466024 279.047886 
L 192.206668 278.059171 
L 188.947311 277.070456 
L 185.687955 276.081741 
L 182.428599 275.093026 
L 179.169243 274.104311 
L 175.909886 273.115596 
L 172.65053 272.126882 
L 169.391174 271.138167 
L 166.131818 270.149452 
L 162.872461 269.160737 
L 159.613105 268.172022 
L 156.353749 267.183307 
L 153.094393 266.194592 
L 149.835037 265.205877 
L 146.57568 264.217162 
L 143.316324 263.228447 
L 140.056968 262.239732 
L 136.797612 261.251018 
L 133.538255 260.262303 
L 130.278899 259.273588 
L 127.019543 258.284873 
L 123.760187 257.296158 
L 120.50083 256.307443 
L 117.241474 255.318728 
L 113.982118 254.330013 
L 110.722762 253.341298 
L 107.463406 252.352583 
L 104.204049 251.363869 
L 100.944693 250.375154 
L 97.685337 249.386439 
L 94.425981 248.397724 
L 91.166624 247.409009 
L 87.907268 246.420294 
L 84.647912 245.431579 
L 81.388556 244.442864 
L 78.129199 243.454149 
L 74.869843 242.465434 
L 71.610487 241.47672 
L 68.351131 240.488005 
L 65.091774 239.49929 
L 61.832418 238.510575 
L 58.573062 237.52186 
L 55.313706 236.533145 
L 52.05435 235.54443 
L 48.794993 234.555715 
L 45.535637 233.567 
L 42.276281 232.578285 
L 39.016925 231.58957 
L 35.757568 230.600856 
L 32.498212 229.612141 
L 29.238856 228.623426 
L 25.9795 227.634711 
L 22.720143 226.645996 
L 19.460787 225.657281 
" clip-path="url(#p840efdae40)" style="fill: none; stroke: #ff0000; stroke-linecap: square"/>
   </g>
   <g id="line2d_85">
    <path d="M 260.652133 298.826707 
L 257.28298 298.326941 
L 253.913826 297.827174 
L 250.544673 297.327407 
L 247.17552 296.827641 
L 243.806367 296.327874 
L 240.437213 295.828107 
L 237.06806 295.328341 
L 233.698907 294.828574 
L 230.329754 294.328807 
L 226.9606 293.829041 
L 223.591447 293.329274 
L 220.222294 292.829507 
L 216.853141 292.329741 
L 213.483988 291.829974 
L 210.114834 291.330207 
L 206.745681 290.830441 
L 203.376528 290.330674 
L 200.007375 289.830907 
L 196.638221 289.331141 
L 193.269068 288.831374 
L 189.899915 288.331607 
L 186.530762 287.831841 
L 183.161608 287.332074 
L 179.792455 286.832307 
L 176.423302 286.33254 
L 173.054149 285.832774 
L 169.684996 285.333007 
L 166.315842 284.83324 
L 162.946689 284.333474 
L 159.577536 283.833707 
L 156.208383 283.33394 
L 152.839229 282.834174 
L 149.470076 282.334407 
L 146.100923 281.83464 
L 142.73177 281.334874 
L 139.362616 280.835107 
L 135.993463 280.33534 
L 132.62431 279.835574 
L 129.255157 279.335807 
L 125.886004 278.83604 
L 122.51685 278.336274 
L 119.147697 277.836507 
L 115.778544 277.33674 
L 112.409391 276.836974 
L 109.040237 276.337207 
L 105.671084 275.83744 
L 102.301931 275.337674 
L 98.932778 274.837907 
L 95.563624 274.33814 
L 92.194471 273.838374 
L 88.825318 273.338607 
L 85.456165 272.83884 
L 82.087012 272.339074 
L 78.717858 271.839307 
L 75.348705 271.33954 
L 71.979552 270.839774 
L 68.610399 270.340007 
L 65.241245 269.84024 
L 61.872092 269.340474 
L 58.502939 268.840707 
L 55.133786 268.34094 
L 51.764632 267.841174 
L 48.395479 267.341407 
L 45.026326 266.84164 
L 41.657173 266.341874 
L 38.28802 265.842107 
L 34.918866 265.34234 
L 31.549713 264.842574 
L 28.18056 264.342807 
L 24.811407 263.84304 
L 21.442253 263.343274 
L 18.0731 262.843507 
L 14.703947 262.34374 
L 11.334794 261.843974 
" clip-path="url(#p840efdae40)" style="fill: none; stroke: #ff0000; stroke-linecap: square"/>
   </g>
   <g id="line2d_86">
    <path d="M 260.651792 298.831331 
L 257.245773 298.831331 
L 253.839755 298.831331 
L 250.433737 298.831331 
L 247.027719 298.831331 
L 243.621701 298.831331 
L 240.215682 298.831331 
L 236.809664 298.831331 
L 233.403646 298.831331 
L 229.997628 298.831331 
L 226.591609 298.831331 
L 223.185591 298.831331 
L 219.779573 298.831331 
L 216.373555 298.831331 
L 212.967536 298.831331 
L 209.561518 298.831331 
L 206.1555 298.831331 
L 202.749482 298.831331 
L 199.343463 298.831331 
L 195.937445 298.831331 
L 192.531427 298.831331 
L 189.125409 298.831331 
L 185.719391 298.831331 
L 182.313372 298.831331 
L 178.907354 298.831331 
L 175.501336 298.831331 
L 172.095318 298.831331 
L 168.689299 298.831331 
L 165.283281 298.831331 
L 161.877263 298.831331 
L 158.471245 298.831331 
L 155.065226 298.831331 
L 151.659208 298.831331 
L 148.25319 298.831331 
L 144.847172 298.831331 
L 141.441153 298.831331 
L 138.035135 298.831331 
L 134.629117 298.831331 
L 131.223099 298.831331 
L 127.817081 298.831331 
L 124.411062 298.831331 
L 121.005044 298.831331 
L 117.599026 298.831331 
L 114.193008 298.831331 
L 110.786989 298.831331 
L 107.380971 298.831331 
L 103.974953 298.831331 
L 100.568935 298.831331 
L 97.162916 298.831331 
L 93.756898 298.831331 
L 90.35088 298.831331 
L 86.944862 298.831331 
L 83.538843 298.831331 
L 80.132825 298.831331 
L 76.726807 298.831331 
L 73.320789 298.831331 
L 69.914771 298.831331 
L 66.508752 298.831331 
L 63.102734 298.831331 
L 59.696716 298.831331 
L 56.290698 298.831331 
L 52.884679 298.831331 
L 49.478661 298.831331 
L 46.072643 298.831331 
L 42.666625 298.831331 
L 39.260606 298.831331 
L 35.854588 298.831331 
L 32.44857 298.831331 
L 29.042552 298.831331 
L 25.636533 298.831331 
L 22.230515 298.831331 
L 18.824497 298.831331 
L 15.418479 298.831331 
L 12.012461 298.831331 
L 8.606442 298.831331 
" clip-path="url(#p840efdae40)" style="fill: none; stroke: #ff0000; stroke-linecap: square"/>
   </g>
   <g id="line2d_87">
    <path d="M 260.705582 298.80905 
L 260.704861 298.808352 
L 260.704119 298.807677 
L 260.703355 298.807027 
L 260.702571 298.8064 
L 260.701768 298.8058 
L 260.700946 298.805225 
L 260.700106 298.804676 
L 260.699249 298.804155 
L 260.698376 298.803661 
L 260.697487 298.803195 
L 260.696584 298.802758 
L 260.695668 298.802349 
L 260.694739 298.80197 
L 260.693798 298.801621 
L 260.692847 298.801302 
L 260.691886 298.801013 
L 260.690917 298.800755 
L 260.68994 298.800528 
L 260.688956 298.800333 
L 260.687966 298.800168 
L 260.686972 298.800036 
L 260.685974 298.799935 
L 260.684973 298.799865 
L 260.68397 298.799828 
L 260.682967 298.799823 
L 260.681964 298.799849 
L 260.680962 298.799908 
L 260.679963 298.799998 
L 260.678968 298.800121 
L 260.677976 298.800274 
L 260.67699 298.80046 
L 260.676011 298.800676 
L 260.675038 298.800924 
L 260.674075 298.801202 
L 260.67312 298.801511 
L 260.672176 298.80185 
L 260.671243 298.80222 
L 260.670322 298.802618 
L 260.669415 298.803046 
L 260.668522 298.803502 
L 260.667643 298.803987 
L 260.666781 298.804499 
L 260.665935 298.805039 
L 260.665107 298.805605 
L 260.664297 298.806197 
L 260.663506 298.806815 
L 260.662736 298.807458 
L 260.661986 298.808124 
L 260.661258 298.808815 
L 260.660553 298.809528 
L 260.65987 298.810263 
L 260.659211 298.81102 
L 260.658577 298.811797 
L 260.657968 298.812594 
L 260.657384 298.81341 
L 260.656827 298.814244 
L 260.656296 298.815096 
L 260.655793 298.815964 
L 260.655318 298.816847 
L 260.654871 298.817745 
L 260.654453 298.818657 
L 260.654064 298.819582 
L 260.653705 298.820519 
L 260.653376 298.821467 
L 260.653077 298.822424 
L 260.652808 298.823391 
L 260.652571 298.824366 
L 260.652365 298.825348 
L 260.65219 298.826335 
L 260.652047 298.827328 
L 260.651935 298.828325 
L 260.651856 298.829325 
L 260.651808 298.830328 
L 260.651792 298.831331 
" clip-path="url(#p840efdae40)" style="fill: none; stroke-dasharray: 3.7,1.6; stroke-dashoffset: 0; stroke: #008000"/>
   </g>
   <g id="line2d_88">
    <path d="M 290.409411 269.105221 
L 289.448011 268.173955 
L 288.457451 267.273767 
L 287.438735 266.40557 
L 286.392897 265.570244 
L 285.320996 264.768635 
L 284.224119 264.001557 
L 283.103378 263.269787 
L 281.95991 262.574067 
L 280.794872 261.915102 
L 279.609447 261.29356 
L 278.404836 260.710071 
L 277.18226 260.165227 
L 275.942958 259.65958 
L 274.688188 259.193642 
L 273.41922 258.767886 
L 272.137341 258.382744 
L 270.843851 258.038605 
L 269.540061 257.73582 
L 268.227293 257.474694 
L 266.906877 257.255492 
L 265.580152 257.078438 
L 264.248463 256.943709 
L 262.91316 256.851443 
L 261.575597 256.801734 
L 260.237129 256.794631 
L 258.899113 256.830141 
L 257.562906 256.90823 
L 256.229862 257.028818 
L 254.901332 257.191781 
L 253.578664 257.396957 
L 252.263199 257.644135 
L 250.956268 257.933066 
L 249.659199 258.263457 
L 248.373305 258.634972 
L 247.09989 259.047236 
L 245.840245 259.499831 
L 244.595647 259.992296 
L 243.367357 260.524134 
L 242.156621 261.094806 
L 240.964666 261.703731 
L 239.7927 262.350294 
L 238.641912 263.03384 
L 237.513468 263.753674 
L 236.408511 264.509067 
L 235.328163 265.299254 
L 234.273518 266.123433 
L 233.245646 266.980769 
L 232.245587 267.870393 
L 231.274357 268.791403 
L 230.33294 269.742866 
L 229.42229 270.723816 
L 228.54333 271.73326 
L 227.696951 272.770173 
L 226.884011 273.833506 
L 226.105335 274.92218 
L 225.361712 276.035091 
L 224.653895 277.171112 
L 223.982602 278.32909 
L 223.348513 279.507852 
L 222.752273 280.706202 
L 222.194483 281.922927 
L 221.675712 283.156792 
L 221.196483 284.406547 
L 220.757283 285.670924 
L 220.358557 286.948643 
L 220.00071 288.238408 
L 219.684104 289.538911 
L 219.40906 290.848834 
L 219.175857 292.166849 
L 218.984732 293.49162 
L 218.835877 294.821804 
L 218.729444 296.156053 
L 218.665542 297.493013 
L 218.644233 298.831331 
" clip-path="url(#p840efdae40)" style="fill: none; stroke-dasharray: 3.7,1.6; stroke-dashoffset: 0; stroke: #008000"/>
   </g>
   <g id="line2d_89">
    <path d="M 320.113241 239.401391 
L 318.19116 237.539557 
L 316.210783 235.739856 
L 314.174115 234.004113 
L 312.083223 232.334087 
L 309.940224 230.731471 
L 307.747293 229.19789 
L 305.506651 227.734899 
L 303.220571 226.34398 
L 300.891369 225.026543 
L 298.521407 223.783925 
L 296.113088 222.617385 
L 293.668852 221.528104 
L 291.191178 220.517189 
L 288.682577 219.585663 
L 286.145593 218.73447 
L 283.582796 217.964474 
L 280.996786 217.276455 
L 278.390183 216.671111 
L 275.76563 216.149055 
L 273.125788 215.710817 
L 270.473333 215.35684 
L 267.810953 215.087484 
L 265.141348 214.903021 
L 262.467223 214.803639 
L 259.79129 214.789438 
L 257.116261 214.860433 
L 254.444849 215.016552 
L 251.77976 215.257637 
L 249.123697 215.583442 
L 246.479353 215.993639 
L 243.849407 216.48781 
L 241.236526 217.065456 
L 238.64336 217.72599 
L 236.072535 218.468743 
L 233.52666 219.292962 
L 231.008314 220.197811 
L 228.52005 221.182373 
L 226.064391 222.24565 
L 223.643826 223.386565 
L 221.26081 224.60396 
L 218.917757 225.896602 
L 216.617043 227.26318 
L 214.361 228.702308 
L 212.151916 230.212529 
L 209.992029 231.79231 
L 207.88353 233.440051 
L 205.828555 235.15408 
L 203.829189 236.932662 
L 201.887456 238.773992 
L 200.005327 240.676203 
L 198.184709 242.637369 
L 196.427448 244.655499 
L 194.735325 246.72855 
L 193.110055 248.854418 
L 191.553286 251.03095 
L 190.066597 253.255938 
L 188.651493 255.527128 
L 187.309411 257.842216 
L 186.041709 260.198856 
L 184.849674 262.594659 
L 183.734514 265.027196 
L 182.697359 267.494002 
L 181.739261 269.992575 
L 180.861191 272.520382 
L 180.064038 275.074862 
L 179.348612 277.653425 
L 178.715637 280.253456 
L 178.165756 282.87232 
L 177.699524 285.507362 
L 177.317416 288.155911 
L 177.019819 290.815283 
L 176.807033 293.48278 
L 176.679276 296.155699 
L 176.636675 298.831331 
" clip-path="url(#p840efdae40)" style="fill: none; stroke-dasharray: 3.7,1.6; stroke-dashoffset: 0; stroke: #008000"/>
   </g>
   <g id="line2d_90">
    <path d="M 349.81707 209.697562 
L 346.93431 206.90516 
L 343.964115 204.205946 
L 340.909495 201.602656 
L 337.773548 199.09793 
L 334.559452 196.694307 
L 331.270466 194.394223 
L 327.909924 192.20001 
L 324.481232 190.113892 
L 320.987866 188.137984 
L 317.433367 186.27429 
L 313.821339 184.524698 
L 310.155444 182.890982 
L 306.439397 181.374798 
L 302.676966 179.977683 
L 298.871965 178.701054 
L 295.028251 177.546205 
L 291.14972 176.514305 
L 287.240305 175.606402 
L 283.303968 174.823416 
L 279.3447 174.166141 
L 275.366514 173.635242 
L 271.373443 173.231258 
L 267.369535 172.954599 
L 263.35885 172.805544 
L 259.345452 172.784246 
L 255.33341 172.890725 
L 251.326792 173.124875 
L 247.329658 173.486456 
L 243.346062 173.975103 
L 239.380041 174.590321 
L 235.435615 175.331486 
L 231.516784 176.197846 
L 227.62752 177.188523 
L 223.771766 178.302513 
L 219.95343 179.538687 
L 216.176382 180.895791 
L 212.444453 182.37245 
L 208.761425 183.967167 
L 205.131032 185.678325 
L 201.556954 187.504189 
L 198.042814 189.442909 
L 194.592174 191.49252 
L 191.208533 193.650943 
L 187.895321 195.91599 
L 184.655896 198.285366 
L 181.493542 200.756668 
L 178.411465 203.327392 
L 175.41279 205.99493 
L 172.500556 208.75658 
L 169.677715 211.609541 
L 166.947129 214.550921 
L 164.311567 217.577739 
L 161.773699 220.686926 
L 159.336099 223.875331 
L 157.001237 227.13972 
L 154.771482 230.476786 
L 152.649092 233.883144 
L 150.636219 237.355342 
L 148.734905 240.889861 
L 146.947076 244.483116 
L 145.274545 248.131466 
L 143.719007 251.831212 
L 142.282039 255.578603 
L 140.965098 259.36984 
L 139.769519 263.201081 
L 138.696514 267.068442 
L 137.747171 270.968001 
L 136.922451 274.895806 
L 136.223192 278.847876 
L 135.650101 282.820203 
L 135.20376 286.808761 
L 134.884622 290.809507 
L 134.693009 294.818385 
L 134.629117 298.831331 
" clip-path="url(#p840efdae40)" style="fill: none; stroke-dasharray: 3.7,1.6; stroke-dashoffset: 0; stroke: #008000"/>
   </g>
   <g id="line2d_91">
    <path d="M 379.520899 179.993733 
L 375.677459 176.270762 
L 371.717447 172.672035 
L 367.644875 169.201199 
L 363.463874 165.861773 
L 359.178681 162.657142 
L 354.79364 159.590555 
L 350.313196 156.665121 
L 345.741893 153.883804 
L 341.084362 151.249426 
L 336.345327 148.764655 
L 331.529591 146.432011 
L 326.642036 144.25386 
L 321.687617 142.232407 
L 316.671356 140.369704 
L 311.598338 138.667638 
L 306.473706 137.127935 
L 301.302655 135.752155 
L 296.090427 134.541694 
L 290.842305 133.497778 
L 285.563611 132.621465 
L 280.259694 131.913644 
L 274.935933 131.375033 
L 269.597723 131.006176 
L 264.250476 130.80745 
L 258.899613 130.779054 
L 253.550559 130.921017 
L 248.208735 131.233197 
L 242.879557 131.715275 
L 237.568427 132.366764 
L 232.280729 133.187003 
L 227.021824 134.175161 
L 221.797042 135.330235 
L 216.611681 136.651056 
L 211.470996 138.136283 
L 206.380199 139.784412 
L 201.344451 141.593771 
L 196.368857 143.562527 
L 191.45846 145.688683 
L 186.618238 147.970084 
L 181.853098 150.404418 
L 177.167871 152.989217 
L 172.567306 155.72186 
L 168.056066 158.599577 
L 163.638726 161.619452 
L 159.319762 164.778422 
L 155.103554 168.073286 
L 150.994375 171.500703 
L 146.996391 175.057199 
L 143.113655 178.739168 
L 139.350102 182.542879 
L 135.709549 186.464474 
L 132.195685 190.499979 
L 128.812073 194.645303 
L 125.562143 198.896243 
L 122.449189 203.24849 
L 119.476367 207.697633 
L 116.64669 212.23916 
L 113.963028 216.868469 
L 111.428101 221.580865 
L 109.044478 226.371573 
L 106.814575 231.235735 
L 104.740655 236.168421 
L 102.824817 241.164631 
L 101.069006 246.219298 
L 99.475 251.3273 
L 98.044416 256.483459 
L 96.778704 261.682546 
L 95.679146 266.919293 
L 94.746859 272.188389 
L 93.982786 277.484495 
L 93.387702 282.80224 
L 92.962211 288.136234 
L 92.706743 293.481071 
L 92.621559 298.831331 
" clip-path="url(#p840efdae40)" style="fill: none; stroke-dasharray: 3.7,1.6; stroke-dashoffset: 0; stroke: #008000"/>
   </g>
   <g id="line2d_92">
    <path d="M 409.224728 150.289904 
L 404.420609 145.636365 
L 399.470778 141.138124 
L 394.380255 136.799742 
L 389.154199 132.625616 
L 383.797909 128.619978 
L 378.316813 124.786888 
L 372.716469 121.130232 
L 367.002553 117.653717 
L 361.180859 114.360867 
L 355.257287 111.25502 
L 349.237843 108.339325 
L 343.128628 105.616737 
L 336.935836 103.090017 
L 330.665745 100.761725 
L 324.32471 98.634222 
L 317.919161 96.709666 
L 311.455589 94.990005 
L 304.940548 93.476985 
L 298.380642 92.172139 
L 291.782522 91.076789 
L 285.152875 90.192046 
L 278.498423 89.518807 
L 271.82591 89.057754 
L 265.142103 88.809355 
L 258.453775 88.773862 
L 251.767707 88.951309 
L 245.090678 89.341519 
L 238.429455 89.944094 
L 231.790791 90.758425 
L 225.181417 91.783686 
L 218.608032 93.018836 
L 212.0773 94.462625 
L 205.595841 96.113589 
L 199.170226 97.970053 
L 192.806969 100.030137 
L 186.51252 102.291751 
L 180.29326 104.752603 
L 174.155494 107.410199 
L 168.105444 110.261844 
L 162.149242 113.304647 
L 156.292928 116.535524 
L 150.542437 119.9512 
L 144.903599 123.548212 
L 139.38213 127.322914 
L 133.983628 131.271479 
L 128.713566 135.389904 
L 123.577285 139.674014 
L 118.579992 144.119468 
L 113.726754 148.721757 
L 109.022489 153.476216 
L 104.471968 158.378027 
L 100.079803 163.422219 
L 95.850447 168.603679 
L 91.788186 173.917155 
L 87.89714 179.35726 
L 84.181252 184.91848 
L 80.644289 190.595176 
L 77.289837 196.381595 
L 74.121297 202.27187 
L 71.141879 208.26003 
L 68.354606 214.340005 
L 65.762302 220.505631 
L 63.367595 226.750658 
L 61.172913 233.068756 
L 59.180481 239.453519 
L 57.392318 245.898476 
L 55.810237 252.397091 
L 54.435842 258.942779 
L 53.270526 265.528903 
L 52.31547 272.148786 
L 51.571644 278.795718 
L 51.0398 285.462961 
L 50.720477 292.143756 
L 50.614001 298.831331 
" clip-path="url(#p840efdae40)" style="fill: none; stroke-dasharray: 3.7,1.6; stroke-dashoffset: 0; stroke: #008000"/>
   </g>
   <g id="line2d_93">
    <path d="M 438.928558 120.586074 
L 433.163758 115.001967 
L 427.22411 109.604214 
L 421.115635 104.398285 
L 414.844525 99.389459 
L 408.417137 94.582814 
L 401.839987 89.983221 
L 395.119742 85.595343 
L 388.263214 81.423629 
L 381.277356 77.472308 
L 374.169247 73.745385 
L 366.946095 70.246638 
L 359.61522 66.979615 
L 352.184056 63.947626 
L 344.660134 61.153746 
L 337.051083 58.600806 
L 329.364615 56.291396 
L 321.608524 54.227855 
L 313.79067 52.412277 
L 305.91898 50.8465 
L 298.001433 49.532113 
L 290.046056 48.470448 
L 282.060912 47.662581 
L 274.054098 47.109332 
L 266.033729 46.811261 
L 258.007937 46.768669 
L 249.984856 46.981601 
L 241.972621 47.449841 
L 233.979353 48.172914 
L 226.013156 49.150086 
L 218.082105 50.380368 
L 210.194241 51.862512 
L 202.357558 53.595015 
L 194.580002 55.576122 
L 186.869457 57.803824 
L 179.233739 60.275862 
L 171.680589 62.989731 
L 164.217664 65.94268 
L 156.852528 69.131715 
L 149.59265 72.553603 
L 142.445386 76.204876 
L 135.417985 80.081832 
L 128.517568 84.18054 
L 121.751132 88.496847 
L 115.125535 93.026376 
L 108.647495 97.764535 
L 102.323578 102.706522 
L 96.160194 107.847326 
L 90.163593 113.181736 
L 84.339853 118.704345 
L 78.694877 124.409554 
L 73.234388 130.291579 
L 67.963922 136.344459 
L 62.888821 142.562056 
L 58.01423 148.938067 
L 53.345091 155.46603 
L 48.886137 162.139327 
L 44.641887 168.951192 
L 40.616646 175.894721 
L 36.814492 182.962874 
L 33.239281 190.148487 
L 29.894637 197.444274 
L 26.78395 204.842841 
L 23.910373 212.336686 
L 21.276821 219.918214 
L 18.885962 227.579738 
L 16.74022 235.313492 
L 14.84177 243.111636 
L 13.192537 250.966265 
L 11.794193 258.869416 
L 10.648155 266.813078 
L 9.755585 274.789197 
L 9.117388 282.789689 
L 8.734211 290.806442 
L 8.606442 298.831331 
" clip-path="url(#p840efdae40)" style="fill: none; stroke-dasharray: 3.7,1.6; stroke-dashoffset: 0; stroke: #008000"/>
   </g>
   <g id="patch_3">
    <path d="M 260.683301 303.872584 
L 260.683301 41.727416 
" style="fill: none; stroke: #000000; stroke-width: 0.8; stroke-linejoin: miter; stroke-linecap: square"/>
   </g>
   <g id="patch_4">
    <path d="M 0 298.831331 
L 447.535 298.831331 
" style="fill: none; stroke: #000000; stroke-width: 0.8; stroke-linejoin: miter; stroke-linecap: square"/>
   </g>
  </g>
 </g>
 <defs>
  <clipPath id="p840efdae40">
   <rect x="0" y="41.727416" width="447.535" height="262.145168"/>
  </clipPath>
 </defs>
</svg>
