<?xml version="1.0" encoding="utf-8" standalone="no"?>
<!DOCTYPE svg PUBLIC "-//W3C//DTD SVG 1.1//EN"
  "http://www.w3.org/Graphics/SVG/1.1/DTD/svg11.dtd">
<!-- Created with matplotlib (http://matplotlib.org/) -->
<svg height="345.6pt" version="1.1" viewBox="0 0 460.8 345.6" width="460.8pt" xmlns="http://www.w3.org/2000/svg" xmlns:xlink="http://www.w3.org/1999/xlink">
 <defs>
  <style type="text/css">
*{stroke-linecap:butt;stroke-linejoin:round;}
  </style>
 </defs>
 <g id="figure_1">
  <g id="patch_1">
   <path d="M 0 345.6 
L 460.8 345.6 
L 460.8 0 
L 0 0 
z
" style="fill:#ffffff;"/>
  </g>
  <g id="axes_1">
   <g id="patch_2">
    <path d="M 18.726544 343.08 
L 437.50201 343.08 
L 437.50201 24.56 
L 18.726544 24.56 
z
" style="fill:#ffffff;"/>
   </g>
   <g id="matplotlib.axis_1">
    <g id="xtick_1">
     <g id="line2d_1">
      <defs>
       <path d="M 0 0 
L 0 3.5 
" id="mfc29ffba9b" style="stroke:#000000;stroke-width:0.8;"/>
      </defs>
      <g>
       <use style="stroke:#000000;stroke-width:0.8;" x="26.779919" xlink:href="#mfc29ffba9b" y="30.685395"/>
      </g>
     </g>
    </g>
    <g id="xtick_2">
     <g id="line2d_2">
      <g>
       <use style="stroke:#000000;stroke-width:0.8;" x="81.243688" xlink:href="#mfc29ffba9b" y="30.685395"/>
      </g>
     </g>
     <g id="text_1">
      <!-- 0.2 -->
      <defs>
       <path d="M 31.78125 66.40625 
Q 24.171875 66.40625 20.328125 58.90625 
Q 16.5 51.421875 16.5 36.375 
Q 16.5 21.390625 20.328125 13.890625 
Q 24.171875 6.390625 31.78125 6.390625 
Q 39.453125 6.390625 43.28125 13.890625 
Q 47.125 21.390625 47.125 36.375 
Q 47.125 51.421875 43.28125 58.90625 
Q 39.453125 66.40625 31.78125 66.40625 
z
M 31.78125 74.21875 
Q 44.046875 74.21875 50.515625 64.515625 
Q 56.984375 54.828125 56.984375 36.375 
Q 56.984375 17.96875 50.515625 8.265625 
Q 44.046875 -1.421875 31.78125 -1.421875 
Q 19.53125 -1.421875 13.0625 8.265625 
Q 6.59375 17.96875 6.59375 36.375 
Q 6.59375 54.828125 13.0625 64.515625 
Q 19.53125 74.21875 31.78125 74.21875 
z
" id="DejaVuSans-30"/>
       <path d="M 10.6875 12.40625 
L 21 12.40625 
L 21 0 
L 10.6875 0 
z
" id="DejaVuSans-2e"/>
       <path d="M 19.1875 8.296875 
L 53.609375 8.296875 
L 53.609375 0 
L 7.328125 0 
L 7.328125 8.296875 
Q 12.9375 14.109375 22.625 23.890625 
Q 32.328125 33.6875 34.8125 36.53125 
Q 39.546875 41.84375 41.421875 45.53125 
Q 43.3125 49.21875 43.3125 52.78125 
Q 43.3125 58.59375 39.234375 62.25 
Q 35.15625 65.921875 28.609375 65.921875 
Q 23.96875 65.921875 18.8125 64.3125 
Q 13.671875 62.703125 7.8125 59.421875 
L 7.8125 69.390625 
Q 13.765625 71.78125 18.9375 73 
Q 24.125 74.21875 28.421875 74.21875 
Q 39.75 74.21875 46.484375 68.546875 
Q 53.21875 62.890625 53.21875 53.421875 
Q 53.21875 48.921875 51.53125 44.890625 
Q 49.859375 40.875 45.40625 35.40625 
Q 44.1875 33.984375 37.640625 27.21875 
Q 31.109375 20.453125 19.1875 8.296875 
z
" id="DejaVuSans-32"/>
      </defs>
      <g transform="translate(73.292126 45.283833)scale(0.1 -0.1)">
       <use xlink:href="#DejaVuSans-30"/>
       <use x="63.623047" xlink:href="#DejaVuSans-2e"/>
       <use x="95.410156" xlink:href="#DejaVuSans-32"/>
      </g>
     </g>
    </g>
    <g id="xtick_3">
     <g id="line2d_3">
      <g>
       <use style="stroke:#000000;stroke-width:0.8;" x="135.707458" xlink:href="#mfc29ffba9b" y="30.685395"/>
      </g>
     </g>
     <g id="text_2">
      <!-- 0.4 -->
      <defs>
       <path d="M 37.796875 64.3125 
L 12.890625 25.390625 
L 37.796875 25.390625 
z
M 35.203125 72.90625 
L 47.609375 72.90625 
L 47.609375 25.390625 
L 58.015625 25.390625 
L 58.015625 17.1875 
L 47.609375 17.1875 
L 47.609375 0 
L 37.796875 0 
L 37.796875 17.1875 
L 4.890625 17.1875 
L 4.890625 26.703125 
z
" id="DejaVuSans-34"/>
      </defs>
      <g transform="translate(127.755895 45.283833)scale(0.1 -0.1)">
       <use xlink:href="#DejaVuSans-30"/>
       <use x="63.623047" xlink:href="#DejaVuSans-2e"/>
       <use x="95.410156" xlink:href="#DejaVuSans-34"/>
      </g>
     </g>
    </g>
    <g id="xtick_4">
     <g id="line2d_4">
      <g>
       <use style="stroke:#000000;stroke-width:0.8;" x="190.171227" xlink:href="#mfc29ffba9b" y="30.685395"/>
      </g>
     </g>
     <g id="text_3">
      <!-- 0.6 -->
      <defs>
       <path d="M 33.015625 40.375 
Q 26.375 40.375 22.484375 35.828125 
Q 18.609375 31.296875 18.609375 23.390625 
Q 18.609375 15.53125 22.484375 10.953125 
Q 26.375 6.390625 33.015625 6.390625 
Q 39.65625 6.390625 43.53125 10.953125 
Q 47.40625 15.53125 47.40625 23.390625 
Q 47.40625 31.296875 43.53125 35.828125 
Q 39.65625 40.375 33.015625 40.375 
z
M 52.59375 71.296875 
L 52.59375 62.3125 
Q 48.875 64.0625 45.09375 64.984375 
Q 41.3125 65.921875 37.59375 65.921875 
Q 27.828125 65.921875 22.671875 59.328125 
Q 17.53125 52.734375 16.796875 39.40625 
Q 19.671875 43.65625 24.015625 45.921875 
Q 28.375 48.1875 33.59375 48.1875 
Q 44.578125 48.1875 50.953125 41.515625 
Q 57.328125 34.859375 57.328125 23.390625 
Q 57.328125 12.15625 50.6875 5.359375 
Q 44.046875 -1.421875 33.015625 -1.421875 
Q 20.359375 -1.421875 13.671875 8.265625 
Q 6.984375 17.96875 6.984375 36.375 
Q 6.984375 53.65625 15.1875 63.9375 
Q 23.390625 74.21875 37.203125 74.21875 
Q 40.921875 74.21875 44.703125 73.484375 
Q 48.484375 72.75 52.59375 71.296875 
z
" id="DejaVuSans-36"/>
      </defs>
      <g transform="translate(182.219665 45.283833)scale(0.1 -0.1)">
       <use xlink:href="#DejaVuSans-30"/>
       <use x="63.623047" xlink:href="#DejaVuSans-2e"/>
       <use x="95.410156" xlink:href="#DejaVuSans-36"/>
      </g>
     </g>
    </g>
    <g id="xtick_5">
     <g id="line2d_5">
      <g>
       <use style="stroke:#000000;stroke-width:0.8;" x="244.634997" xlink:href="#mfc29ffba9b" y="30.685395"/>
      </g>
     </g>
     <g id="text_4">
      <!-- 0.8 -->
      <defs>
       <path d="M 31.78125 34.625 
Q 24.75 34.625 20.71875 30.859375 
Q 16.703125 27.09375 16.703125 20.515625 
Q 16.703125 13.921875 20.71875 10.15625 
Q 24.75 6.390625 31.78125 6.390625 
Q 38.8125 6.390625 42.859375 10.171875 
Q 46.921875 13.96875 46.921875 20.515625 
Q 46.921875 27.09375 42.890625 30.859375 
Q 38.875 34.625 31.78125 34.625 
z
M 21.921875 38.8125 
Q 15.578125 40.375 12.03125 44.71875 
Q 8.5 49.078125 8.5 55.328125 
Q 8.5 64.0625 14.71875 69.140625 
Q 20.953125 74.21875 31.78125 74.21875 
Q 42.671875 74.21875 48.875 69.140625 
Q 55.078125 64.0625 55.078125 55.328125 
Q 55.078125 49.078125 51.53125 44.71875 
Q 48 40.375 41.703125 38.8125 
Q 48.828125 37.15625 52.796875 32.3125 
Q 56.78125 27.484375 56.78125 20.515625 
Q 56.78125 9.90625 50.3125 4.234375 
Q 43.84375 -1.421875 31.78125 -1.421875 
Q 19.734375 -1.421875 13.25 4.234375 
Q 6.78125 9.90625 6.78125 20.515625 
Q 6.78125 27.484375 10.78125 32.3125 
Q 14.796875 37.15625 21.921875 38.8125 
z
M 18.3125 54.390625 
Q 18.3125 48.734375 21.84375 45.5625 
Q 25.390625 42.390625 31.78125 42.390625 
Q 38.140625 42.390625 41.71875 45.5625 
Q 45.3125 48.734375 45.3125 54.390625 
Q 45.3125 60.0625 41.71875 63.234375 
Q 38.140625 66.40625 31.78125 66.40625 
Q 25.390625 66.40625 21.84375 63.234375 
Q 18.3125 60.0625 18.3125 54.390625 
z
" id="DejaVuSans-38"/>
      </defs>
      <g transform="translate(236.683434 45.283833)scale(0.1 -0.1)">
       <use xlink:href="#DejaVuSans-30"/>
       <use x="63.623047" xlink:href="#DejaVuSans-2e"/>
       <use x="95.410156" xlink:href="#DejaVuSans-38"/>
      </g>
     </g>
    </g>
    <g id="xtick_6">
     <g id="line2d_6">
      <g>
       <use style="stroke:#000000;stroke-width:0.8;" x="299.098767" xlink:href="#mfc29ffba9b" y="30.685395"/>
      </g>
     </g>
     <g id="text_5">
      <!-- 1 -->
      <defs>
       <path d="M 12.40625 8.296875 
L 28.515625 8.296875 
L 28.515625 63.921875 
L 10.984375 60.40625 
L 10.984375 69.390625 
L 28.421875 72.90625 
L 38.28125 72.90625 
L 38.28125 8.296875 
L 54.390625 8.296875 
L 54.390625 0 
L 12.40625 0 
z
" id="DejaVuSans-31"/>
      </defs>
      <g transform="translate(295.917517 45.283833)scale(0.1 -0.1)">
       <use xlink:href="#DejaVuSans-31"/>
      </g>
     </g>
    </g>
    <g id="xtick_7">
     <g id="line2d_7">
      <g>
       <use style="stroke:#000000;stroke-width:0.8;" x="353.562536" xlink:href="#mfc29ffba9b" y="30.685395"/>
      </g>
     </g>
     <g id="text_6">
      <!-- 1.2 -->
      <g transform="translate(345.610974 45.283833)scale(0.1 -0.1)">
       <use xlink:href="#DejaVuSans-31"/>
       <use x="63.623047" xlink:href="#DejaVuSans-2e"/>
       <use x="95.410156" xlink:href="#DejaVuSans-32"/>
      </g>
     </g>
    </g>
    <g id="xtick_8">
     <g id="line2d_8">
      <g>
       <use style="stroke:#000000;stroke-width:0.8;" x="408.026306" xlink:href="#mfc29ffba9b" y="30.685395"/>
      </g>
     </g>
     <g id="text_7">
      <!-- 1.4 -->
      <g transform="translate(400.074743 45.283833)scale(0.1 -0.1)">
       <use xlink:href="#DejaVuSans-31"/>
       <use x="63.623047" xlink:href="#DejaVuSans-2e"/>
       <use x="95.410156" xlink:href="#DejaVuSans-34"/>
      </g>
     </g>
    </g>
    <g id="xtick_9">
     <g id="line2d_9">
      <defs>
       <path d="M 0 0 
L 0 2 
" id="m2f863b9f20" style="stroke:#000000;stroke-width:0.6;"/>
      </defs>
      <g>
       <use style="stroke:#000000;stroke-width:0.6;" x="40.395861" xlink:href="#m2f863b9f20" y="30.685395"/>
      </g>
     </g>
    </g>
    <g id="xtick_10">
     <g id="line2d_10">
      <g>
       <use style="stroke:#000000;stroke-width:0.6;" x="54.011803" xlink:href="#m2f863b9f20" y="30.685395"/>
      </g>
     </g>
    </g>
    <g id="xtick_11">
     <g id="line2d_11">
      <g>
       <use style="stroke:#000000;stroke-width:0.6;" x="67.627746" xlink:href="#m2f863b9f20" y="30.685395"/>
      </g>
     </g>
    </g>
    <g id="xtick_12">
     <g id="line2d_12">
      <g>
       <use style="stroke:#000000;stroke-width:0.6;" x="94.859631" xlink:href="#m2f863b9f20" y="30.685395"/>
      </g>
     </g>
    </g>
    <g id="xtick_13">
     <g id="line2d_13">
      <g>
       <use style="stroke:#000000;stroke-width:0.6;" x="108.475573" xlink:href="#m2f863b9f20" y="30.685395"/>
      </g>
     </g>
    </g>
    <g id="xtick_14">
     <g id="line2d_14">
      <g>
       <use style="stroke:#000000;stroke-width:0.6;" x="122.091515" xlink:href="#m2f863b9f20" y="30.685395"/>
      </g>
     </g>
    </g>
    <g id="xtick_15">
     <g id="line2d_15">
      <g>
       <use style="stroke:#000000;stroke-width:0.6;" x="149.3234" xlink:href="#m2f863b9f20" y="30.685395"/>
      </g>
     </g>
    </g>
    <g id="xtick_16">
     <g id="line2d_16">
      <g>
       <use style="stroke:#000000;stroke-width:0.6;" x="162.939343" xlink:href="#m2f863b9f20" y="30.685395"/>
      </g>
     </g>
    </g>
    <g id="xtick_17">
     <g id="line2d_17">
      <g>
       <use style="stroke:#000000;stroke-width:0.6;" x="176.555285" xlink:href="#m2f863b9f20" y="30.685395"/>
      </g>
     </g>
    </g>
    <g id="xtick_18">
     <g id="line2d_18">
      <g>
       <use style="stroke:#000000;stroke-width:0.6;" x="203.78717" xlink:href="#m2f863b9f20" y="30.685395"/>
      </g>
     </g>
    </g>
    <g id="xtick_19">
     <g id="line2d_19">
      <g>
       <use style="stroke:#000000;stroke-width:0.6;" x="217.403112" xlink:href="#m2f863b9f20" y="30.685395"/>
      </g>
     </g>
    </g>
    <g id="xtick_20">
     <g id="line2d_20">
      <g>
       <use style="stroke:#000000;stroke-width:0.6;" x="231.019055" xlink:href="#m2f863b9f20" y="30.685395"/>
      </g>
     </g>
    </g>
    <g id="xtick_21">
     <g id="line2d_21">
      <g>
       <use style="stroke:#000000;stroke-width:0.6;" x="258.250939" xlink:href="#m2f863b9f20" y="30.685395"/>
      </g>
     </g>
    </g>
    <g id="xtick_22">
     <g id="line2d_22">
      <g>
       <use style="stroke:#000000;stroke-width:0.6;" x="271.866882" xlink:href="#m2f863b9f20" y="30.685395"/>
      </g>
     </g>
    </g>
    <g id="xtick_23">
     <g id="line2d_23">
      <g>
       <use style="stroke:#000000;stroke-width:0.6;" x="285.482824" xlink:href="#m2f863b9f20" y="30.685395"/>
      </g>
     </g>
    </g>
    <g id="xtick_24">
     <g id="line2d_24">
      <g>
       <use style="stroke:#000000;stroke-width:0.6;" x="312.714709" xlink:href="#m2f863b9f20" y="30.685395"/>
      </g>
     </g>
    </g>
    <g id="xtick_25">
     <g id="line2d_25">
      <g>
       <use style="stroke:#000000;stroke-width:0.6;" x="326.330651" xlink:href="#m2f863b9f20" y="30.685395"/>
      </g>
     </g>
    </g>
    <g id="xtick_26">
     <g id="line2d_26">
      <g>
       <use style="stroke:#000000;stroke-width:0.6;" x="339.946594" xlink:href="#m2f863b9f20" y="30.685395"/>
      </g>
     </g>
    </g>
    <g id="xtick_27">
     <g id="line2d_27">
      <g>
       <use style="stroke:#000000;stroke-width:0.6;" x="367.178479" xlink:href="#m2f863b9f20" y="30.685395"/>
      </g>
     </g>
    </g>
    <g id="xtick_28">
     <g id="line2d_28">
      <g>
       <use style="stroke:#000000;stroke-width:0.6;" x="380.794421" xlink:href="#m2f863b9f20" y="30.685395"/>
      </g>
     </g>
    </g>
    <g id="xtick_29">
     <g id="line2d_29">
      <g>
       <use style="stroke:#000000;stroke-width:0.6;" x="394.410363" xlink:href="#m2f863b9f20" y="30.685395"/>
      </g>
     </g>
    </g>
    <g id="xtick_30">
     <g id="line2d_30">
      <g>
       <use style="stroke:#000000;stroke-width:0.6;" x="421.642248" xlink:href="#m2f863b9f20" y="30.685395"/>
      </g>
     </g>
    </g>
    <g id="xtick_31">
     <g id="line2d_31">
      <g>
       <use style="stroke:#000000;stroke-width:0.6;" x="435.258191" xlink:href="#m2f863b9f20" y="30.685395"/>
      </g>
     </g>
    </g>
    <g id="text_8">
     <!-- $ x_{1} $ -->
     <defs>
      <path d="M 7.8125 2.875 
Q 9.578125 1.515625 12.796875 1.515625 
Q 15.921875 1.515625 18.3125 4.515625 
Q 20.703125 7.515625 21.578125 11.078125 
L 26.125 28.8125 
Q 27.203125 33.640625 27.203125 35.40625 
Q 27.203125 37.890625 25.8125 39.75 
Q 24.421875 41.609375 21.921875 41.609375 
Q 18.75 41.609375 15.96875 39.625 
Q 13.1875 37.640625 11.28125 34.59375 
Q 9.375 31.546875 8.59375 28.421875 
Q 8.40625 27.78125 7.8125 27.78125 
L 6.59375 27.78125 
Q 5.8125 27.78125 5.8125 28.71875 
L 5.8125 29 
Q 6.78125 32.71875 9.125 36.25 
Q 11.46875 39.796875 14.859375 41.984375 
Q 18.265625 44.1875 22.125 44.1875 
Q 25.78125 44.1875 28.734375 42.234375 
Q 31.6875 40.28125 32.90625 36.921875 
Q 34.625 39.984375 37.28125 42.078125 
Q 39.9375 44.1875 43.109375 44.1875 
Q 45.265625 44.1875 47.5 43.421875 
Q 49.75 42.671875 51.171875 41.109375 
Q 52.59375 39.546875 52.59375 37.203125 
Q 52.59375 34.671875 50.953125 32.828125 
Q 49.3125 31 46.78125 31 
Q 45.171875 31 44.09375 32.03125 
Q 43.015625 33.0625 43.015625 34.625 
Q 43.015625 36.71875 44.453125 38.296875 
Q 45.90625 39.890625 47.90625 40.1875 
Q 46.09375 41.609375 42.921875 41.609375 
Q 39.703125 41.609375 37.328125 38.625 
Q 34.96875 35.640625 33.984375 31.984375 
L 29.59375 14.3125 
Q 28.515625 10.296875 28.515625 7.71875 
Q 28.515625 5.171875 29.953125 3.34375 
Q 31.390625 1.515625 33.796875 1.515625 
Q 38.484375 1.515625 42.15625 5.640625 
Q 45.84375 9.765625 47.015625 14.703125 
Q 47.21875 15.28125 47.796875 15.28125 
L 49.03125 15.28125 
Q 49.421875 15.28125 49.65625 15.015625 
Q 49.90625 14.75 49.90625 14.40625 
Q 49.90625 14.3125 49.8125 14.109375 
Q 48.390625 8.15625 43.84375 3.515625 
Q 39.3125 -1.125 33.59375 -1.125 
Q 29.9375 -1.125 26.984375 0.84375 
Q 24.03125 2.828125 22.796875 6.203125 
Q 21.234375 3.265625 18.46875 1.0625 
Q 15.71875 -1.125 12.59375 -1.125 
Q 10.453125 -1.125 8.171875 -0.359375 
Q 5.90625 0.390625 4.484375 1.953125 
Q 3.078125 3.515625 3.078125 5.90625 
Q 3.078125 8.25 4.703125 10.171875 
Q 6.34375 12.109375 8.796875 12.109375 
Q 10.453125 12.109375 11.578125 11.109375 
Q 12.703125 10.109375 12.703125 8.5 
Q 12.703125 6.390625 11.296875 4.828125 
Q 9.90625 3.265625 7.8125 2.875 
z
" id="Cmmi10-78"/>
      <path d="M 9.28125 0 
L 9.28125 3.515625 
Q 21.78125 3.515625 21.78125 6.6875 
L 21.78125 59.1875 
Q 16.609375 56.6875 8.6875 56.6875 
L 8.6875 60.203125 
Q 20.953125 60.203125 27.203125 66.609375 
L 28.609375 66.609375 
Q 28.953125 66.609375 29.265625 66.328125 
Q 29.59375 66.0625 29.59375 65.71875 
L 29.59375 6.6875 
Q 29.59375 3.515625 42.09375 3.515625 
L 42.09375 0 
z
" id="Cmr10-31"/>
     </defs>
     <g transform="translate(445.50201 30.685395)scale(0.16 -0.16)">
      <use transform="translate(0 0.8125)" xlink:href="#Cmmi10-78"/>
      <use transform="translate(57.080078 -16.19375)scale(0.7)" xlink:href="#Cmr10-31"/>
     </g>
    </g>
   </g>
   <g id="matplotlib.axis_2">
    <g id="ytick_1">
     <g id="line2d_32">
      <defs>
       <path d="M 0 0 
L -3.5 0 
" id="mb68798c0ae" style="stroke:#000000;stroke-width:0.8;"/>
      </defs>
      <g>
       <use style="stroke:#000000;stroke-width:0.8;" x="26.779919" xlink:href="#mb68798c0ae" y="315.78853"/>
      </g>
     </g>
     <g id="text_9">
      <!-- -1.4 -->
      <defs>
       <path d="M 4.890625 31.390625 
L 31.203125 31.390625 
L 31.203125 23.390625 
L 4.890625 23.390625 
z
" id="DejaVuSans-2d"/>
      </defs>
      <g transform="translate(0.268981 319.587749)scale(0.1 -0.1)">
       <use xlink:href="#DejaVuSans-2d"/>
       <use x="36.083984" xlink:href="#DejaVuSans-31"/>
       <use x="99.707031" xlink:href="#DejaVuSans-2e"/>
       <use x="131.494141" xlink:href="#DejaVuSans-34"/>
      </g>
     </g>
    </g>
    <g id="ytick_2">
     <g id="line2d_33">
      <g>
       <use style="stroke:#000000;stroke-width:0.8;" x="26.779919" xlink:href="#mb68798c0ae" y="275.059511"/>
      </g>
     </g>
     <g id="text_10">
      <!-- -1.2 -->
      <g transform="translate(0.268981 278.858729)scale(0.1 -0.1)">
       <use xlink:href="#DejaVuSans-2d"/>
       <use x="36.083984" xlink:href="#DejaVuSans-31"/>
       <use x="99.707031" xlink:href="#DejaVuSans-2e"/>
       <use x="131.494141" xlink:href="#DejaVuSans-32"/>
      </g>
     </g>
    </g>
    <g id="ytick_3">
     <g id="line2d_34">
      <g>
       <use style="stroke:#000000;stroke-width:0.8;" x="26.779919" xlink:href="#mb68798c0ae" y="234.330491"/>
      </g>
     </g>
     <g id="text_11">
      <!-- -1 -->
      <g transform="translate(9.809606 238.12971)scale(0.1 -0.1)">
       <use xlink:href="#DejaVuSans-2d"/>
       <use x="36.083984" xlink:href="#DejaVuSans-31"/>
      </g>
     </g>
    </g>
    <g id="ytick_4">
     <g id="line2d_35">
      <g>
       <use style="stroke:#000000;stroke-width:0.8;" x="26.779919" xlink:href="#mb68798c0ae" y="193.601472"/>
      </g>
     </g>
     <g id="text_12">
      <!-- -0.8 -->
      <g transform="translate(0.268981 197.400691)scale(0.1 -0.1)">
       <use xlink:href="#DejaVuSans-2d"/>
       <use x="36.083984" xlink:href="#DejaVuSans-30"/>
       <use x="99.707031" xlink:href="#DejaVuSans-2e"/>
       <use x="131.494141" xlink:href="#DejaVuSans-38"/>
      </g>
     </g>
    </g>
    <g id="ytick_5">
     <g id="line2d_36">
      <g>
       <use style="stroke:#000000;stroke-width:0.8;" x="26.779919" xlink:href="#mb68798c0ae" y="152.872453"/>
      </g>
     </g>
     <g id="text_13">
      <!-- -0.6 -->
      <g transform="translate(0.268981 156.671672)scale(0.1 -0.1)">
       <use xlink:href="#DejaVuSans-2d"/>
       <use x="36.083984" xlink:href="#DejaVuSans-30"/>
       <use x="99.707031" xlink:href="#DejaVuSans-2e"/>
       <use x="131.494141" xlink:href="#DejaVuSans-36"/>
      </g>
     </g>
    </g>
    <g id="ytick_6">
     <g id="line2d_37">
      <g>
       <use style="stroke:#000000;stroke-width:0.8;" x="26.779919" xlink:href="#mb68798c0ae" y="112.143434"/>
      </g>
     </g>
     <g id="text_14">
      <!-- -0.4 -->
      <g transform="translate(0.268981 115.942652)scale(0.1 -0.1)">
       <use xlink:href="#DejaVuSans-2d"/>
       <use x="36.083984" xlink:href="#DejaVuSans-30"/>
       <use x="99.707031" xlink:href="#DejaVuSans-2e"/>
       <use x="131.494141" xlink:href="#DejaVuSans-34"/>
      </g>
     </g>
    </g>
    <g id="ytick_7">
     <g id="line2d_38">
      <g>
       <use style="stroke:#000000;stroke-width:0.8;" x="26.779919" xlink:href="#mb68798c0ae" y="71.414414"/>
      </g>
     </g>
     <g id="text_15">
      <!-- -0.2 -->
      <g transform="translate(0.268981 75.213633)scale(0.1 -0.1)">
       <use xlink:href="#DejaVuSans-2d"/>
       <use x="36.083984" xlink:href="#DejaVuSans-30"/>
       <use x="99.707031" xlink:href="#DejaVuSans-2e"/>
       <use x="131.494141" xlink:href="#DejaVuSans-32"/>
      </g>
     </g>
    </g>
    <g id="ytick_8">
     <g id="line2d_39">
      <g>
       <use style="stroke:#000000;stroke-width:0.8;" x="26.779919" xlink:href="#mb68798c0ae" y="30.685395"/>
      </g>
     </g>
    </g>
    <g id="ytick_9">
     <g id="line2d_40">
      <defs>
       <path d="M 0 0 
L -2 0 
" id="m5b94888c3a" style="stroke:#000000;stroke-width:0.6;"/>
      </defs>
      <g>
       <use style="stroke:#000000;stroke-width:0.6;" x="26.779919" xlink:href="#m5b94888c3a" y="336.15304"/>
      </g>
     </g>
    </g>
    <g id="ytick_10">
     <g id="line2d_41">
      <g>
       <use style="stroke:#000000;stroke-width:0.6;" x="26.779919" xlink:href="#m5b94888c3a" y="325.970785"/>
      </g>
     </g>
    </g>
    <g id="ytick_11">
     <g id="line2d_42">
      <g>
       <use style="stroke:#000000;stroke-width:0.6;" x="26.779919" xlink:href="#m5b94888c3a" y="305.606275"/>
      </g>
     </g>
    </g>
    <g id="ytick_12">
     <g id="line2d_43">
      <g>
       <use style="stroke:#000000;stroke-width:0.6;" x="26.779919" xlink:href="#m5b94888c3a" y="295.42402"/>
      </g>
     </g>
    </g>
    <g id="ytick_13">
     <g id="line2d_44">
      <g>
       <use style="stroke:#000000;stroke-width:0.6;" x="26.779919" xlink:href="#m5b94888c3a" y="285.241766"/>
      </g>
     </g>
    </g>
    <g id="ytick_14">
     <g id="line2d_45">
      <g>
       <use style="stroke:#000000;stroke-width:0.6;" x="26.779919" xlink:href="#m5b94888c3a" y="264.877256"/>
      </g>
     </g>
    </g>
    <g id="ytick_15">
     <g id="line2d_46">
      <g>
       <use style="stroke:#000000;stroke-width:0.6;" x="26.779919" xlink:href="#m5b94888c3a" y="254.695001"/>
      </g>
     </g>
    </g>
    <g id="ytick_16">
     <g id="line2d_47">
      <g>
       <use style="stroke:#000000;stroke-width:0.6;" x="26.779919" xlink:href="#m5b94888c3a" y="244.512746"/>
      </g>
     </g>
    </g>
    <g id="ytick_17">
     <g id="line2d_48">
      <g>
       <use style="stroke:#000000;stroke-width:0.6;" x="26.779919" xlink:href="#m5b94888c3a" y="224.148237"/>
      </g>
     </g>
    </g>
    <g id="ytick_18">
     <g id="line2d_49">
      <g>
       <use style="stroke:#000000;stroke-width:0.6;" x="26.779919" xlink:href="#m5b94888c3a" y="213.965982"/>
      </g>
     </g>
    </g>
    <g id="ytick_19">
     <g id="line2d_50">
      <g>
       <use style="stroke:#000000;stroke-width:0.6;" x="26.779919" xlink:href="#m5b94888c3a" y="203.783727"/>
      </g>
     </g>
    </g>
    <g id="ytick_20">
     <g id="line2d_51">
      <g>
       <use style="stroke:#000000;stroke-width:0.6;" x="26.779919" xlink:href="#m5b94888c3a" y="183.419217"/>
      </g>
     </g>
    </g>
    <g id="ytick_21">
     <g id="line2d_52">
      <g>
       <use style="stroke:#000000;stroke-width:0.6;" x="26.779919" xlink:href="#m5b94888c3a" y="173.236963"/>
      </g>
     </g>
    </g>
    <g id="ytick_22">
     <g id="line2d_53">
      <g>
       <use style="stroke:#000000;stroke-width:0.6;" x="26.779919" xlink:href="#m5b94888c3a" y="163.054708"/>
      </g>
     </g>
    </g>
    <g id="ytick_23">
     <g id="line2d_54">
      <g>
       <use style="stroke:#000000;stroke-width:0.6;" x="26.779919" xlink:href="#m5b94888c3a" y="142.690198"/>
      </g>
     </g>
    </g>
    <g id="ytick_24">
     <g id="line2d_55">
      <g>
       <use style="stroke:#000000;stroke-width:0.6;" x="26.779919" xlink:href="#m5b94888c3a" y="132.507943"/>
      </g>
     </g>
    </g>
    <g id="ytick_25">
     <g id="line2d_56">
      <g>
       <use style="stroke:#000000;stroke-width:0.6;" x="26.779919" xlink:href="#m5b94888c3a" y="122.325688"/>
      </g>
     </g>
    </g>
    <g id="ytick_26">
     <g id="line2d_57">
      <g>
       <use style="stroke:#000000;stroke-width:0.6;" x="26.779919" xlink:href="#m5b94888c3a" y="101.961179"/>
      </g>
     </g>
    </g>
    <g id="ytick_27">
     <g id="line2d_58">
      <g>
       <use style="stroke:#000000;stroke-width:0.6;" x="26.779919" xlink:href="#m5b94888c3a" y="91.778924"/>
      </g>
     </g>
    </g>
    <g id="ytick_28">
     <g id="line2d_59">
      <g>
       <use style="stroke:#000000;stroke-width:0.6;" x="26.779919" xlink:href="#m5b94888c3a" y="81.596669"/>
      </g>
     </g>
    </g>
    <g id="ytick_29">
     <g id="line2d_60">
      <g>
       <use style="stroke:#000000;stroke-width:0.6;" x="26.779919" xlink:href="#m5b94888c3a" y="61.232159"/>
      </g>
     </g>
    </g>
    <g id="ytick_30">
     <g id="line2d_61">
      <g>
       <use style="stroke:#000000;stroke-width:0.6;" x="26.779919" xlink:href="#m5b94888c3a" y="51.049905"/>
      </g>
     </g>
    </g>
    <g id="ytick_31">
     <g id="line2d_62">
      <g>
       <use style="stroke:#000000;stroke-width:0.6;" x="26.779919" xlink:href="#m5b94888c3a" y="40.86765"/>
      </g>
     </g>
    </g>
    <g id="text_16">
     <!-- $ x_{2} $ -->
     <defs>
      <path d="M 4.984375 0 
L 4.984375 2.6875 
Q 4.984375 2.9375 5.171875 3.21875 
L 20.703125 20.40625 
Q 24.21875 24.21875 26.40625 26.796875 
Q 28.609375 29.390625 30.75 32.765625 
Q 32.90625 36.140625 34.15625 39.625 
Q 35.40625 43.109375 35.40625 47.015625 
Q 35.40625 51.125 33.890625 54.859375 
Q 32.375 58.59375 29.375 60.84375 
Q 26.375 63.09375 22.125 63.09375 
Q 17.78125 63.09375 14.3125 60.46875 
Q 10.84375 57.859375 9.421875 53.71875 
Q 9.8125 53.8125 10.5 53.8125 
Q 12.75 53.8125 14.328125 52.296875 
Q 15.921875 50.78125 15.921875 48.390625 
Q 15.921875 46.09375 14.328125 44.5 
Q 12.75 42.921875 10.5 42.921875 
Q 8.15625 42.921875 6.5625 44.546875 
Q 4.984375 46.1875 4.984375 48.390625 
Q 4.984375 52.15625 6.390625 55.4375 
Q 7.8125 58.734375 10.46875 61.296875 
Q 13.140625 63.875 16.484375 65.234375 
Q 19.828125 66.609375 23.578125 66.609375 
Q 29.296875 66.609375 34.21875 64.1875 
Q 39.15625 61.765625 42.03125 57.34375 
Q 44.921875 52.9375 44.921875 47.015625 
Q 44.921875 42.671875 43.015625 38.765625 
Q 41.109375 34.859375 38.125 31.65625 
Q 35.15625 28.46875 30.515625 24.40625 
Q 25.875 20.359375 24.421875 19 
L 13.09375 8.109375 
L 22.703125 8.109375 
Q 29.78125 8.109375 34.546875 8.21875 
Q 39.3125 8.34375 39.59375 8.59375 
Q 40.765625 9.859375 42 17.828125 
L 44.921875 17.828125 
L 42.09375 0 
z
" id="Cmr10-32"/>
     </defs>
     <g transform="translate(18.859919 13.2325)scale(0.16 -0.16)">
      <use transform="translate(0 0.8125)" xlink:href="#Cmmi10-78"/>
      <use transform="translate(57.080078 -16.19375)scale(0.7)" xlink:href="#Cmr10-32"/>
     </g>
    </g>
   </g>
   <g id="patch_3">
    <path clip-path="url(#p2378e58c9b)" d="M 26.779919 30.685395 
Q 94.861448 30.68539 161.824943 30.685385 
" style="fill:none;stroke:#ff0000;stroke-linecap:round;"/>
    <path clip-path="url(#p2378e58c9b)" d="M 151.824943 25.685385 
L 161.824943 30.685385 
L 151.824944 35.685385 
L 151.824943 25.685385 
z
" style="fill:#ff0000;stroke:#ff0000;stroke-linecap:round;"/>
   </g>
   <g id="patch_4">
    <path clip-path="url(#p2378e58c9b)" d="M 177.709765 36.489956 
Q 244.976384 44.302533 311.132436 51.986124 
" style="fill:none;stroke:#ff0000;stroke-linecap:round;"/>
    <path clip-path="url(#p2378e58c9b)" d="M 301.776047 45.86583 
L 311.132436 51.986124 
L 300.622368 55.799059 
L 301.776047 45.86583 
z
" style="fill:#ff0000;stroke:#ff0000;stroke-linecap:round;"/>
   </g>
   <g id="patch_5">
    <path clip-path="url(#p2378e58c9b)" d="M 318.127017 75.841039 
Q 373.787827 105.15069 428.459374 133.93942 
" style="fill:none;stroke:#ff0000;stroke-linecap:round;"/>
    <path clip-path="url(#p2378e58c9b)" d="M 421.940775 124.856036 
L 428.459374 133.93942 
L 417.281507 133.704269 
L 421.940775 124.856036 
z
" style="fill:#ff0000;stroke:#ff0000;stroke-linecap:round;"/>
   </g>
   <g id="patch_6">
    <path clip-path="url(#p2378e58c9b)" d="M 401.893027 166.797392 
Q 415.375526 216.713123 428.566486 265.549501 
" style="fill:none;stroke:#ff0000;stroke-linecap:round;"/>
    <path clip-path="url(#p2378e58c9b)" d="M 430.785898 254.591664 
L 428.566486 265.549501 
L 421.131863 257.199269 
L 430.785898 254.591664 
z
" style="fill:#ff0000;stroke:#ff0000;stroke-linecap:round;"/>
   </g>
   <g id="patch_7">
    <path clip-path="url(#p2378e58c9b)" d="M 359.067021 269.926872 
Q 307.797503 303.440743 257.463816 336.342881 
" style="fill:none;stroke:#ff0000;stroke-linecap:round;"/>
    <path clip-path="url(#p2378e58c9b)" d="M 268.569908 335.056526 
L 257.463816 336.342881 
L 263.098387 326.686194 
L 268.569908 335.056526 
z
" style="fill:#ff0000;stroke:#ff0000;stroke-linecap:round;"/>
   </g>
   <g id="patch_8">
    <path clip-path="url(#p2378e58c9b)" d="M 219.414029 277.120339 
Q 164.64037 246.95792 110.846072 217.334809 
" style="fill:none;stroke:#ff0000;stroke-linecap:round;"/>
    <path clip-path="url(#p2378e58c9b)" d="M 117.193878 226.53836 
L 110.846072 217.334809 
L 122.017597 217.778694 
L 117.193878 226.53836 
z
" style="fill:#ff0000;stroke:#ff0000;stroke-linecap:round;"/>
   </g>
   <g id="patch_9">
    <path clip-path="url(#p2378e58c9b)" d="M 202.59304 177.571108 
Q 248.370478 139.922478 293.284405 102.984024 
" style="fill:none;stroke:#ff0000;stroke-linecap:round;"/>
    <path clip-path="url(#p2378e58c9b)" d="M 282.384928 105.474287 
L 293.284405 102.984024 
L 288.736929 113.197763 
L 282.384928 105.474287 
z
" style="fill:#ff0000;stroke:#ff0000;stroke-linecap:round;"/>
   </g>
   <g id="patch_10">
    <path clip-path="url(#p2378e58c9b)" d="M 329.071342 190.350775 
Q 356.862197 236.873359 384.079691 282.436121 
" style="fill:none;stroke:#ff0000;stroke-linecap:round;"/>
    <path clip-path="url(#p2378e58c9b)" d="M 383.243842 271.287069 
L 384.079691 282.436121 
L 374.65894 276.415369 
L 383.243842 271.287069 
z
" style="fill:#ff0000;stroke:#ff0000;stroke-linecap:round;"/>
   </g>
   <g id="patch_11">
    <path clip-path="url(#p2378e58c9b)" d="M 252.699971 260.419418 
Q 187.428335 246.718852 123.250889 233.247958 
" style="fill:none;stroke:#ff0000;stroke-linecap:round;"/>
    <path clip-path="url(#p2378e58c9b)" d="M 132.010498 240.195565 
L 123.250889 233.247958 
L 134.06474 230.408835 
L 132.010498 240.195565 
z
" style="fill:#ff0000;stroke:#ff0000;stroke-linecap:round;"/>
   </g>
   <g id="patch_12">
    <path clip-path="url(#p2378e58c9b)" d="M 248.83383 176.352455 
Q 307.884881 147.34805 365.932414 118.836547 
" style="fill:none;stroke:#ff0000;stroke-linecap:round;"/>
    <path clip-path="url(#p2378e58c9b)" d="M 354.752355 118.757337 
L 365.932414 118.836547 
L 359.161011 127.733069 
L 354.752355 118.757337 
z
" style="fill:#ff0000;stroke:#ff0000;stroke-linecap:round;"/>
   </g>
   <g id="line2d_63">
    <path clip-path="url(#p2378e58c9b)" d="M 26.779919 30.685395 
L 60.990842 30.752679 
L 81.51515 30.960995 
L 102.033925 31.401756 
L 115.703807 31.867569 
L 129.361017 32.500913 
L 143.000859 33.327434 
L 156.614523 34.372306 
L 170.189491 35.660274 
L 183.713116 37.216068 
L 197.172404 39.064331 
L 210.548299 41.22821 
L 223.816559 43.729574 
L 236.952777 46.590245 
L 249.932083 49.83184 
L 256.353156 51.60134 
L 262.722137 53.472558 
L 269.034202 55.447414 
L 275.28453 57.527826 
L 281.468298 59.715712 
L 287.580683 62.012991 
L 293.61686 64.42158 
L 299.571504 66.942979 
L 305.438172 69.577762 
L 311.210272 72.326378 
L 316.88121 75.189275 
L 322.444393 78.166901 
L 327.893228 81.259706 
L 333.221122 84.468137 
L 338.421479 87.792637 
L 343.487313 91.232947 
L 348.410864 94.787403 
L 353.184277 98.454172 
L 357.799699 102.231425 
L 362.249276 106.117331 
L 366.525154 110.110058 
L 370.619481 114.207776 
L 374.524401 118.408643 
L 378.23205 122.709792 
L 381.734539 127.106525 
L 385.023981 131.593953 
L 388.092484 136.167187 
L 390.932161 140.821338 
L 393.535121 145.551518 
L 395.893475 150.352838 
L 397.999345 155.220389 
L 399.845579 160.148003 
L 401.426197 165.127486 
L 402.73532 170.15046 
L 403.767072 175.208549 
L 404.515576 180.293375 
L 404.974956 185.396562 
L 405.139335 190.509732 
L 405.002872 195.624484 
L 404.561575 200.731202 
L 403.814115 205.818514 
L 402.759371 210.874912 
L 401.396223 215.888887 
L 399.723549 220.848933 
L 397.74023 225.74354 
L 395.445144 230.561201 
L 392.837253 235.290392 
L 389.918697 239.918961 
L 386.695746 244.433943 
L 383.174947 248.822317 
L 379.362845 253.071064 
L 375.265987 257.167164 
L 370.890919 261.097597 
L 366.244187 264.849342 
L 361.332475 268.409403 
L 356.166732 271.765529 
L 350.762901 274.90634 
L 345.137204 277.820503 
L 339.305866 280.496688 
L 333.285111 282.923562 
L 327.091163 285.089795 
L 320.740246 286.984055 
L 314.248753 288.595127 
L 307.637358 289.914735 
L 300.931241 290.937699 
L 294.1558 291.658989 
L 287.336432 292.073572 
L 280.498534 292.176416 
L 273.667502 291.962491 
L 266.868734 291.426765 
L 260.127728 290.564468 
L 253.472118 289.376328 
L 246.931564 287.868289 
L 240.535806 286.046504 
L 234.314583 283.917123 
L 228.297636 281.486299 
L 222.514704 278.760181 
L 216.995528 275.744921 
L 211.76968 272.447076 
L 206.863791 268.880336 
L 202.301975 265.064489 
L 198.108265 261.019522 
L 194.306695 256.765421 
L 190.921298 252.322171 
L 187.976108 247.709758 
L 185.495158 242.948167 
L 183.501798 238.057773 
L 182.00916 233.064756 
L 181.02251 227.999769 
L 180.546912 222.893576 
L 180.587429 217.776946 
L 181.149123 212.680643 
L 182.23706 207.635434 
L 183.856302 202.672087 
L 186.01065 197.821354 
L 188.687727 193.11384 
L 191.863946 188.580041 
L 195.515498 184.250454 
L 199.618571 180.155575 
L 204.149356 176.325898 
L 209.084042 172.79192 
L 214.39882 169.584137 
L 220.068516 166.732166 
L 226.052867 164.2559 
L 232.302212 162.169176 
L 238.766748 160.485742 
L 245.396674 159.219344 
L 252.142188 158.383728 
L 258.953488 157.992641 
L 265.780771 158.05983 
L 272.573913 158.597191 
L 279.279689 159.598809 
L 285.843141 161.048815 
L 292.209292 162.931229 
L 298.323164 165.230073 
L 304.129779 167.929367 
L 309.574162 171.013134 
L 314.601333 174.465393 
L 319.158292 178.268142 
L 323.208665 182.386322 
L 326.724408 186.776336 
L 329.677539 191.394521 
L 332.040078 196.197215 
L 333.784043 201.140755 
L 334.881453 206.181479 
L 335.304325 211.275724 
L 335.029077 216.37921 
L 334.064624 221.44309 
L 332.43445 226.416468 
L 330.162106 231.248441 
L 327.271145 235.888104 
L 323.785118 240.284553 
L 319.727577 244.386883 
L 315.122074 248.144191 
L 309.997049 251.50848 
L 304.412774 254.450682 
L 298.442259 256.949307 
L 292.15855 258.982886 
L 285.634691 260.529947 
L 278.943727 261.569022 
L 272.158703 262.078639 
L 265.352664 262.037329 
L 258.598919 261.428448 
L 251.972302 260.263109 
L 245.548188 258.562328 
L 239.401954 256.347131 
L 233.608978 253.638545 
L 228.244634 250.457599 
L 223.384301 246.825318 
L 219.103355 242.762731 
L 215.471402 238.300948 
L 212.528674 233.522397 
L 210.306084 228.525792 
L 208.834541 223.409855 
L 208.144953 218.273306 
L 208.268227 213.214866 
L 209.235274 208.333254 
L 211.077 203.727193 
L 213.802958 199.473839 
L 217.326373 195.553089 
L 221.533325 191.917429 
L 226.30989 188.519344 
L 231.542146 185.311319 
L 237.116169 182.245839 
L 248.774483 176.381605 
L 248.774483 176.381605 
" style="fill:none;stroke:#0000ff;stroke-linecap:square;stroke-width:2.5;"/>
   </g>
   <g id="patch_13">
    <path d="M 26.779919 343.08 
L 26.779919 24.56 
" style="fill:none;stroke:#000000;stroke-linecap:square;stroke-linejoin:miter;stroke-width:0.8;"/>
   </g>
   <g id="patch_14">
    <path d="M 18.726544 30.685395 
L 437.50201 30.685395 
" style="fill:none;stroke:#000000;stroke-linecap:square;stroke-linejoin:miter;stroke-width:0.8;"/>
   </g>
  </g>
 </g>
 <defs>
  <clipPath id="p2378e58c9b">
   <rect height="318.52" width="418.775466" x="18.726544" y="24.56"/>
  </clipPath>
 </defs>
</svg>
