<?xml version="1.0" encoding="utf-8" standalone="no"?>
<!DOCTYPE svg PUBLIC "-//W3C//DTD SVG 1.1//EN"
  "http://www.w3.org/Graphics/SVG/1.1/DTD/svg11.dtd">
<svg xmlns:xlink="http://www.w3.org/1999/xlink" width="460.8pt" height="345.6pt" viewBox="0 0 460.8 345.6" xmlns="http://www.w3.org/2000/svg" version="1.1">
 <metadata>
  <rdf:RDF xmlns:dc="http://purl.org/dc/elements/1.1/" xmlns:cc="http://creativecommons.org/ns#" xmlns:rdf="http://www.w3.org/1999/02/22-rdf-syntax-ns#">
   <cc:Work>
    <dc:type rdf:resource="http://purl.org/dc/dcmitype/StillImage"/>
    <dc:date>2023-05-25T19:35:10.897097</dc:date>
    <dc:format>image/svg+xml</dc:format>
    <dc:creator>
     <cc:Agent>
      <dc:title>Matplotlib v3.6.2, https://matplotlib.org/</dc:title>
     </cc:Agent>
    </dc:creator>
   </cc:Work>
  </rdf:RDF>
 </metadata>
 <defs>
  <style type="text/css">*{stroke-linejoin: round; stroke-linecap: butt}</style>
 </defs>
 <g id="figure_1">
  <g id="patch_1">
   <path d="M 0 345.6 
L 460.8 345.6 
L 460.8 0 
L 0 0 
z
" style="fill: #ffffff"/>
  </g>
  <g id="axes_1">
   <g id="patch_2">
    <path d="M 0 345.6 
L 444.791005 345.6 
L 444.791005 16.64 
L 0 16.64 
z
" style="fill: #ffffff"/>
   </g>
   <g id="matplotlib.axis_1">
    <g id="xtick_1">
     <g id="line2d_1">
      <defs>
       <path id="mf881fc2426" d="M 0 0 
L 0 3.5 
" style="stroke: #000000; stroke-width: 0.8"/>
      </defs>
      <g>
       <use xlink:href="#mf881fc2426" x="25.011098" y="38.339352" style="stroke: #000000; stroke-width: 0.8"/>
      </g>
     </g>
     <g id="text_1">
      <!-- −1.0 -->
      <g transform="translate(12.869692 52.93779) scale(0.1 -0.1)">
       <defs>
        <path id="DejaVuSans-2212" d="M 678 2272 
L 4684 2272 
L 4684 1741 
L 678 1741 
L 678 2272 
z
" transform="scale(0.015625)"/>
        <path id="DejaVuSans-31" d="M 794 531 
L 1825 531 
L 1825 4091 
L 703 3866 
L 703 4441 
L 1819 4666 
L 2450 4666 
L 2450 531 
L 3481 531 
L 3481 0 
L 794 0 
L 794 531 
z
" transform="scale(0.015625)"/>
        <path id="DejaVuSans-2e" d="M 684 794 
L 1344 794 
L 1344 0 
L 684 0 
L 684 794 
z
" transform="scale(0.015625)"/>
        <path id="DejaVuSans-30" d="M 2034 4250 
Q 1547 4250 1301 3770 
Q 1056 3291 1056 2328 
Q 1056 1369 1301 889 
Q 1547 409 2034 409 
Q 2525 409 2770 889 
Q 3016 1369 3016 2328 
Q 3016 3291 2770 3770 
Q 2525 4250 2034 4250 
z
M 2034 4750 
Q 2819 4750 3233 4129 
Q 3647 3509 3647 2328 
Q 3647 1150 3233 529 
Q 2819 -91 2034 -91 
Q 1250 -91 836 529 
Q 422 1150 422 2328 
Q 422 3509 836 4129 
Q 1250 4750 2034 4750 
z
" transform="scale(0.015625)"/>
       </defs>
       <use xlink:href="#DejaVuSans-2212"/>
       <use xlink:href="#DejaVuSans-31" x="83.789062"/>
       <use xlink:href="#DejaVuSans-2e" x="147.412109"/>
       <use xlink:href="#DejaVuSans-30" x="179.199219"/>
      </g>
     </g>
    </g>
    <g id="xtick_2">
     <g id="line2d_2">
      <g>
       <use xlink:href="#mf881fc2426" x="123.411492" y="38.339352" style="stroke: #000000; stroke-width: 0.8"/>
      </g>
     </g>
     <g id="text_2">
      <!-- −0.5 -->
      <g transform="translate(111.270086 52.93779) scale(0.1 -0.1)">
       <defs>
        <path id="DejaVuSans-35" d="M 691 4666 
L 3169 4666 
L 3169 4134 
L 1269 4134 
L 1269 2991 
Q 1406 3038 1543 3061 
Q 1681 3084 1819 3084 
Q 2600 3084 3056 2656 
Q 3513 2228 3513 1497 
Q 3513 744 3044 326 
Q 2575 -91 1722 -91 
Q 1428 -91 1123 -41 
Q 819 9 494 109 
L 494 744 
Q 775 591 1075 516 
Q 1375 441 1709 441 
Q 2250 441 2565 725 
Q 2881 1009 2881 1497 
Q 2881 1984 2565 2268 
Q 2250 2553 1709 2553 
Q 1456 2553 1204 2497 
Q 953 2441 691 2322 
L 691 4666 
z
" transform="scale(0.015625)"/>
       </defs>
       <use xlink:href="#DejaVuSans-2212"/>
       <use xlink:href="#DejaVuSans-30" x="83.789062"/>
       <use xlink:href="#DejaVuSans-2e" x="147.412109"/>
       <use xlink:href="#DejaVuSans-35" x="179.199219"/>
      </g>
     </g>
    </g>
    <g id="xtick_3">
     <g id="line2d_3">
      <g>
       <use xlink:href="#mf881fc2426" x="221.811886" y="38.339352" style="stroke: #000000; stroke-width: 0.8"/>
      </g>
     </g>
    </g>
    <g id="xtick_4">
     <g id="line2d_4">
      <g>
       <use xlink:href="#mf881fc2426" x="320.21228" y="38.339352" style="stroke: #000000; stroke-width: 0.8"/>
      </g>
     </g>
     <g id="text_3">
      <!-- 0.5 -->
      <g transform="translate(312.260718 52.93779) scale(0.1 -0.1)">
       <use xlink:href="#DejaVuSans-30"/>
       <use xlink:href="#DejaVuSans-2e" x="63.623047"/>
       <use xlink:href="#DejaVuSans-35" x="95.410156"/>
      </g>
     </g>
    </g>
    <g id="xtick_5">
     <g id="line2d_5">
      <g>
       <use xlink:href="#mf881fc2426" x="418.612674" y="38.339352" style="stroke: #000000; stroke-width: 0.8"/>
      </g>
     </g>
     <g id="text_4">
      <!-- 1.0 -->
      <g transform="translate(410.661112 52.93779) scale(0.1 -0.1)">
       <use xlink:href="#DejaVuSans-31"/>
       <use xlink:href="#DejaVuSans-2e" x="63.623047"/>
       <use xlink:href="#DejaVuSans-30" x="95.410156"/>
      </g>
     </g>
    </g>
    <g id="xtick_6">
     <g id="line2d_6">
      <defs>
       <path id="m4dd9785e43" d="M 0 0 
L 0 2 
" style="stroke: #000000; stroke-width: 0.6"/>
      </defs>
      <g>
       <use xlink:href="#m4dd9785e43" x="5.33102" y="38.339352" style="stroke: #000000; stroke-width: 0.6"/>
      </g>
     </g>
    </g>
    <g id="xtick_7">
     <g id="line2d_7">
      <g>
       <use xlink:href="#m4dd9785e43" x="44.691177" y="38.339352" style="stroke: #000000; stroke-width: 0.6"/>
      </g>
     </g>
    </g>
    <g id="xtick_8">
     <g id="line2d_8">
      <g>
       <use xlink:href="#m4dd9785e43" x="64.371256" y="38.339352" style="stroke: #000000; stroke-width: 0.6"/>
      </g>
     </g>
    </g>
    <g id="xtick_9">
     <g id="line2d_9">
      <g>
       <use xlink:href="#m4dd9785e43" x="84.051335" y="38.339352" style="stroke: #000000; stroke-width: 0.6"/>
      </g>
     </g>
    </g>
    <g id="xtick_10">
     <g id="line2d_10">
      <g>
       <use xlink:href="#m4dd9785e43" x="103.731414" y="38.339352" style="stroke: #000000; stroke-width: 0.6"/>
      </g>
     </g>
    </g>
    <g id="xtick_11">
     <g id="line2d_11">
      <g>
       <use xlink:href="#m4dd9785e43" x="143.091571" y="38.339352" style="stroke: #000000; stroke-width: 0.6"/>
      </g>
     </g>
    </g>
    <g id="xtick_12">
     <g id="line2d_12">
      <g>
       <use xlink:href="#m4dd9785e43" x="162.77165" y="38.339352" style="stroke: #000000; stroke-width: 0.6"/>
      </g>
     </g>
    </g>
    <g id="xtick_13">
     <g id="line2d_13">
      <g>
       <use xlink:href="#m4dd9785e43" x="182.451729" y="38.339352" style="stroke: #000000; stroke-width: 0.6"/>
      </g>
     </g>
    </g>
    <g id="xtick_14">
     <g id="line2d_14">
      <g>
       <use xlink:href="#m4dd9785e43" x="202.131808" y="38.339352" style="stroke: #000000; stroke-width: 0.6"/>
      </g>
     </g>
    </g>
    <g id="xtick_15">
     <g id="line2d_15">
      <g>
       <use xlink:href="#m4dd9785e43" x="241.491965" y="38.339352" style="stroke: #000000; stroke-width: 0.6"/>
      </g>
     </g>
    </g>
    <g id="xtick_16">
     <g id="line2d_16">
      <g>
       <use xlink:href="#m4dd9785e43" x="261.172044" y="38.339352" style="stroke: #000000; stroke-width: 0.6"/>
      </g>
     </g>
    </g>
    <g id="xtick_17">
     <g id="line2d_17">
      <g>
       <use xlink:href="#m4dd9785e43" x="280.852123" y="38.339352" style="stroke: #000000; stroke-width: 0.6"/>
      </g>
     </g>
    </g>
    <g id="xtick_18">
     <g id="line2d_18">
      <g>
       <use xlink:href="#m4dd9785e43" x="300.532202" y="38.339352" style="stroke: #000000; stroke-width: 0.6"/>
      </g>
     </g>
    </g>
    <g id="xtick_19">
     <g id="line2d_19">
      <g>
       <use xlink:href="#m4dd9785e43" x="339.892359" y="38.339352" style="stroke: #000000; stroke-width: 0.6"/>
      </g>
     </g>
    </g>
    <g id="xtick_20">
     <g id="line2d_20">
      <g>
       <use xlink:href="#m4dd9785e43" x="359.572438" y="38.339352" style="stroke: #000000; stroke-width: 0.6"/>
      </g>
     </g>
    </g>
    <g id="xtick_21">
     <g id="line2d_21">
      <g>
       <use xlink:href="#m4dd9785e43" x="379.252517" y="38.339352" style="stroke: #000000; stroke-width: 0.6"/>
      </g>
     </g>
    </g>
    <g id="xtick_22">
     <g id="line2d_22">
      <g>
       <use xlink:href="#m4dd9785e43" x="398.932596" y="38.339352" style="stroke: #000000; stroke-width: 0.6"/>
      </g>
     </g>
    </g>
    <g id="xtick_23">
     <g id="line2d_23">
      <g>
       <use xlink:href="#m4dd9785e43" x="438.292753" y="38.339352" style="stroke: #000000; stroke-width: 0.6"/>
      </g>
     </g>
    </g>
    <g id="text_5">
     <!-- $ x_{1} $ -->
     <g transform="translate(452.791005 38.339352) scale(0.16 -0.16)">
      <defs>
       <path id="Cmmi10-78" d="M 500 184 
Q 613 97 819 97 
Q 1019 97 1172 289 
Q 1325 481 1381 709 
L 1672 1844 
Q 1741 2153 1741 2266 
Q 1741 2425 1652 2544 
Q 1563 2663 1403 2663 
Q 1200 2663 1022 2536 
Q 844 2409 722 2214 
Q 600 2019 550 1819 
Q 538 1778 500 1778 
L 422 1778 
Q 372 1778 372 1838 
L 372 1856 
Q 434 2094 584 2320 
Q 734 2547 951 2687 
Q 1169 2828 1416 2828 
Q 1650 2828 1839 2703 
Q 2028 2578 2106 2363 
Q 2216 2559 2386 2693 
Q 2556 2828 2759 2828 
Q 2897 2828 3040 2779 
Q 3184 2731 3275 2631 
Q 3366 2531 3366 2381 
Q 3366 2219 3261 2101 
Q 3156 1984 2994 1984 
Q 2891 1984 2822 2050 
Q 2753 2116 2753 2216 
Q 2753 2350 2845 2451 
Q 2938 2553 3066 2572 
Q 2950 2663 2747 2663 
Q 2541 2663 2389 2472 
Q 2238 2281 2175 2047 
L 1894 916 
Q 1825 659 1825 494 
Q 1825 331 1917 214 
Q 2009 97 2163 97 
Q 2463 97 2698 361 
Q 2934 625 3009 941 
Q 3022 978 3059 978 
L 3138 978 
Q 3163 978 3178 961 
Q 3194 944 3194 922 
Q 3194 916 3188 903 
Q 3097 522 2806 225 
Q 2516 -72 2150 -72 
Q 1916 -72 1727 54 
Q 1538 181 1459 397 
Q 1359 209 1182 68 
Q 1006 -72 806 -72 
Q 669 -72 523 -23 
Q 378 25 287 125 
Q 197 225 197 378 
Q 197 528 301 651 
Q 406 775 563 775 
Q 669 775 741 711 
Q 813 647 813 544 
Q 813 409 723 309 
Q 634 209 500 184 
z
" transform="scale(0.015625)"/>
       <path id="Cmr10-31" d="M 594 0 
L 594 225 
Q 1394 225 1394 428 
L 1394 3788 
Q 1063 3628 556 3628 
L 556 3853 
Q 1341 3853 1741 4263 
L 1831 4263 
Q 1853 4263 1873 4245 
Q 1894 4228 1894 4206 
L 1894 428 
Q 1894 225 2694 225 
L 2694 0 
L 594 0 
z
" transform="scale(0.015625)"/>
      </defs>
      <use xlink:href="#Cmmi10-78" transform="translate(0 0.8125)"/>
      <use xlink:href="#Cmr10-31" transform="translate(57.080078 -16.19375) scale(0.7)"/>
     </g>
    </g>
   </g>
   <g id="matplotlib.axis_2">
    <g id="ytick_1">
     <g id="line2d_24">
      <defs>
       <path id="mb41ac013a7" d="M 0 0 
L -3.5 0 
" style="stroke: #000000; stroke-width: 0.8"/>
      </defs>
      <g>
       <use xlink:href="#mb41ac013a7" x="221.811886" y="322.512915" style="stroke: #000000; stroke-width: 0.8"/>
      </g>
     </g>
     <g id="text_6">
      <!-- −2.0 -->
      <g transform="translate(190.529074 326.312133) scale(0.1 -0.1)">
       <defs>
        <path id="DejaVuSans-32" d="M 1228 531 
L 3431 531 
L 3431 0 
L 469 0 
L 469 531 
Q 828 903 1448 1529 
Q 2069 2156 2228 2338 
Q 2531 2678 2651 2914 
Q 2772 3150 2772 3378 
Q 2772 3750 2511 3984 
Q 2250 4219 1831 4219 
Q 1534 4219 1204 4116 
Q 875 4013 500 3803 
L 500 4441 
Q 881 4594 1212 4672 
Q 1544 4750 1819 4750 
Q 2544 4750 2975 4387 
Q 3406 4025 3406 3419 
Q 3406 3131 3298 2873 
Q 3191 2616 2906 2266 
Q 2828 2175 2409 1742 
Q 1991 1309 1228 531 
z
" transform="scale(0.015625)"/>
       </defs>
       <use xlink:href="#DejaVuSans-2212"/>
       <use xlink:href="#DejaVuSans-32" x="83.789062"/>
       <use xlink:href="#DejaVuSans-2e" x="147.412109"/>
       <use xlink:href="#DejaVuSans-30" x="179.199219"/>
      </g>
     </g>
    </g>
    <g id="ytick_2">
     <g id="line2d_25">
      <g>
       <use xlink:href="#mb41ac013a7" x="221.811886" y="251.469524" style="stroke: #000000; stroke-width: 0.8"/>
      </g>
     </g>
     <g id="text_7">
      <!-- −1.5 -->
      <g transform="translate(190.529074 255.268743) scale(0.1 -0.1)">
       <use xlink:href="#DejaVuSans-2212"/>
       <use xlink:href="#DejaVuSans-31" x="83.789062"/>
       <use xlink:href="#DejaVuSans-2e" x="147.412109"/>
       <use xlink:href="#DejaVuSans-35" x="179.199219"/>
      </g>
     </g>
    </g>
    <g id="ytick_3">
     <g id="line2d_26">
      <g>
       <use xlink:href="#mb41ac013a7" x="221.811886" y="180.426133" style="stroke: #000000; stroke-width: 0.8"/>
      </g>
     </g>
     <g id="text_8">
      <!-- −1.0 -->
      <g transform="translate(190.529074 184.225352) scale(0.1 -0.1)">
       <use xlink:href="#DejaVuSans-2212"/>
       <use xlink:href="#DejaVuSans-31" x="83.789062"/>
       <use xlink:href="#DejaVuSans-2e" x="147.412109"/>
       <use xlink:href="#DejaVuSans-30" x="179.199219"/>
      </g>
     </g>
    </g>
    <g id="ytick_4">
     <g id="line2d_27">
      <g>
       <use xlink:href="#mb41ac013a7" x="221.811886" y="109.382743" style="stroke: #000000; stroke-width: 0.8"/>
      </g>
     </g>
     <g id="text_9">
      <!-- −0.5 -->
      <g transform="translate(190.529074 113.181962) scale(0.1 -0.1)">
       <use xlink:href="#DejaVuSans-2212"/>
       <use xlink:href="#DejaVuSans-30" x="83.789062"/>
       <use xlink:href="#DejaVuSans-2e" x="147.412109"/>
       <use xlink:href="#DejaVuSans-35" x="179.199219"/>
      </g>
     </g>
    </g>
    <g id="ytick_5">
     <g id="line2d_28">
      <g>
       <use xlink:href="#mb41ac013a7" x="221.811886" y="38.339352" style="stroke: #000000; stroke-width: 0.8"/>
      </g>
     </g>
    </g>
    <g id="ytick_6">
     <g id="line2d_29">
      <defs>
       <path id="me5e591c87c" d="M 0 0 
L -2 0 
" style="stroke: #000000; stroke-width: 0.6"/>
      </defs>
      <g>
       <use xlink:href="#me5e591c87c" x="221.811886" y="336.721593" style="stroke: #000000; stroke-width: 0.6"/>
      </g>
     </g>
    </g>
    <g id="ytick_7">
     <g id="line2d_30">
      <g>
       <use xlink:href="#me5e591c87c" x="221.811886" y="308.304236" style="stroke: #000000; stroke-width: 0.6"/>
      </g>
     </g>
    </g>
    <g id="ytick_8">
     <g id="line2d_31">
      <g>
       <use xlink:href="#me5e591c87c" x="221.811886" y="294.095558" style="stroke: #000000; stroke-width: 0.6"/>
      </g>
     </g>
    </g>
    <g id="ytick_9">
     <g id="line2d_32">
      <g>
       <use xlink:href="#me5e591c87c" x="221.811886" y="279.88688" style="stroke: #000000; stroke-width: 0.6"/>
      </g>
     </g>
    </g>
    <g id="ytick_10">
     <g id="line2d_33">
      <g>
       <use xlink:href="#me5e591c87c" x="221.811886" y="265.678202" style="stroke: #000000; stroke-width: 0.6"/>
      </g>
     </g>
    </g>
    <g id="ytick_11">
     <g id="line2d_34">
      <g>
       <use xlink:href="#me5e591c87c" x="221.811886" y="237.260846" style="stroke: #000000; stroke-width: 0.6"/>
      </g>
     </g>
    </g>
    <g id="ytick_12">
     <g id="line2d_35">
      <g>
       <use xlink:href="#me5e591c87c" x="221.811886" y="223.052168" style="stroke: #000000; stroke-width: 0.6"/>
      </g>
     </g>
    </g>
    <g id="ytick_13">
     <g id="line2d_36">
      <g>
       <use xlink:href="#me5e591c87c" x="221.811886" y="208.84349" style="stroke: #000000; stroke-width: 0.6"/>
      </g>
     </g>
    </g>
    <g id="ytick_14">
     <g id="line2d_37">
      <g>
       <use xlink:href="#me5e591c87c" x="221.811886" y="194.634812" style="stroke: #000000; stroke-width: 0.6"/>
      </g>
     </g>
    </g>
    <g id="ytick_15">
     <g id="line2d_38">
      <g>
       <use xlink:href="#me5e591c87c" x="221.811886" y="166.217455" style="stroke: #000000; stroke-width: 0.6"/>
      </g>
     </g>
    </g>
    <g id="ytick_16">
     <g id="line2d_39">
      <g>
       <use xlink:href="#me5e591c87c" x="221.811886" y="152.008777" style="stroke: #000000; stroke-width: 0.6"/>
      </g>
     </g>
    </g>
    <g id="ytick_17">
     <g id="line2d_40">
      <g>
       <use xlink:href="#me5e591c87c" x="221.811886" y="137.800099" style="stroke: #000000; stroke-width: 0.6"/>
      </g>
     </g>
    </g>
    <g id="ytick_18">
     <g id="line2d_41">
      <g>
       <use xlink:href="#me5e591c87c" x="221.811886" y="123.591421" style="stroke: #000000; stroke-width: 0.6"/>
      </g>
     </g>
    </g>
    <g id="ytick_19">
     <g id="line2d_42">
      <g>
       <use xlink:href="#me5e591c87c" x="221.811886" y="95.174065" style="stroke: #000000; stroke-width: 0.6"/>
      </g>
     </g>
    </g>
    <g id="ytick_20">
     <g id="line2d_43">
      <g>
       <use xlink:href="#me5e591c87c" x="221.811886" y="80.965387" style="stroke: #000000; stroke-width: 0.6"/>
      </g>
     </g>
    </g>
    <g id="ytick_21">
     <g id="line2d_44">
      <g>
       <use xlink:href="#me5e591c87c" x="221.811886" y="66.756709" style="stroke: #000000; stroke-width: 0.6"/>
      </g>
     </g>
    </g>
    <g id="ytick_22">
     <g id="line2d_45">
      <g>
       <use xlink:href="#me5e591c87c" x="221.811886" y="52.54803" style="stroke: #000000; stroke-width: 0.6"/>
      </g>
     </g>
    </g>
    <g id="ytick_23">
     <g id="line2d_46">
      <g>
       <use xlink:href="#me5e591c87c" x="221.811886" y="24.130674" style="stroke: #000000; stroke-width: 0.6"/>
      </g>
     </g>
    </g>
    <g id="text_10">
     <!-- $ x_{2} $ -->
     <g transform="translate(213.891886 5.3125) scale(0.16 -0.16)">
      <defs>
       <path id="Cmr10-32" d="M 319 0 
L 319 172 
Q 319 188 331 206 
L 1325 1306 
Q 1550 1550 1690 1715 
Q 1831 1881 1968 2097 
Q 2106 2313 2186 2536 
Q 2266 2759 2266 3009 
Q 2266 3272 2169 3511 
Q 2072 3750 1880 3894 
Q 1688 4038 1416 4038 
Q 1138 4038 916 3870 
Q 694 3703 603 3438 
Q 628 3444 672 3444 
Q 816 3444 917 3347 
Q 1019 3250 1019 3097 
Q 1019 2950 917 2848 
Q 816 2747 672 2747 
Q 522 2747 420 2851 
Q 319 2956 319 3097 
Q 319 3338 409 3548 
Q 500 3759 670 3923 
Q 841 4088 1055 4175 
Q 1269 4263 1509 4263 
Q 1875 4263 2190 4108 
Q 2506 3953 2690 3670 
Q 2875 3388 2875 3009 
Q 2875 2731 2753 2481 
Q 2631 2231 2440 2026 
Q 2250 1822 1953 1562 
Q 1656 1303 1563 1216 
L 838 519 
L 1453 519 
Q 1906 519 2211 526 
Q 2516 534 2534 550 
Q 2609 631 2688 1141 
L 2875 1141 
L 2694 0 
L 319 0 
z
" transform="scale(0.015625)"/>
      </defs>
      <use xlink:href="#Cmmi10-78" transform="translate(0 0.8125)"/>
      <use xlink:href="#Cmr10-32" transform="translate(57.080078 -16.19375) scale(0.7)"/>
     </g>
    </g>
   </g>
   <g id="patch_3">
    <path d="M 221.811886 38.339352 
Q 271.01208 38.954791 319.094327 39.556245 
" clip-path="url(#paa24373b9d)" style="fill: none; stroke: #ff0000; stroke-linecap: round"/>
    <path d="M 309.157648 34.431557 
L 319.094327 39.556245 
L 309.032569 44.430775 
L 309.157648 34.431557 
z
" clip-path="url(#paa24373b9d)" style="fill: #ff0000; stroke: #ff0000; stroke-linecap: round"/>
   </g>
   <g id="patch_4">
    <path d="M 343.50755 68.761943 
Q 382.173314 90.727524 419.866957 112.140854 
" clip-path="url(#paa24373b9d)" style="fill: none; stroke: #ff0000; stroke-linecap: round"/>
    <path d="M 413.641784 102.853915 
L 419.866957 112.140854 
L 408.702303 111.548829 
L 413.641784 102.853915 
z
" clip-path="url(#paa24373b9d)" style="fill: #ff0000; stroke: #ff0000; stroke-linecap: round"/>
   </g>
   <g id="patch_5">
    <path d="M 413.090028 147.001984 
Q 424.66368 181.52688 435.881973 214.991719 
" clip-path="url(#paa24373b9d)" style="fill: none; stroke: #ff0000; stroke-linecap: round"/>
    <path d="M 437.444265 203.921071 
L 435.881973 214.991719 
L 427.96283 207.099497 
L 437.444265 203.921071 
z
" clip-path="url(#paa24373b9d)" style="fill: #ff0000; stroke: #ff0000; stroke-linecap: round"/>
   </g>
   <g id="patch_6">
    <path d="M 400.762332 239.555096 
Q 380.287766 271.854863 360.411782 303.210332 
" clip-path="url(#paa24373b9d)" style="fill: none; stroke: #ff0000; stroke-linecap: round"/>
    <path d="M 369.988699 297.441219 
L 360.411782 303.210332 
L 361.542642 292.087331 
L 369.988699 297.441219 
z
" clip-path="url(#paa24373b9d)" style="fill: #ff0000; stroke: #ff0000; stroke-linecap: round"/>
   </g>
   <g id="patch_7">
    <path d="M 311.803497 306.787679 
Q 268.048442 323.030762 225.341529 338.884747 
" clip-path="url(#paa24373b9d)" style="fill: none; stroke: #ff0000; stroke-linecap: round"/>
    <path d="M 236.456502 340.091971 
L 225.341529 338.884747 
L 232.976292 330.717104 
L 236.456502 340.091971 
z
" clip-path="url(#paa24373b9d)" style="fill: #ff0000; stroke: #ff0000; stroke-linecap: round"/>
   </g>
   <g id="patch_8">
    <path d="M 184.307962 319.909028 
Q 136.009402 313.139748 88.818054 306.525649 
" clip-path="url(#paa24373b9d)" style="fill: none; stroke: #ff0000; stroke-linecap: round"/>
    <path d="M 98.027269 312.865236 
L 88.818054 306.525649 
L 99.415252 302.962029 
L 98.027269 312.865236 
z
" clip-path="url(#paa24373b9d)" style="fill: #ff0000; stroke: #ff0000; stroke-linecap: round"/>
   </g>
   <g id="patch_9">
    <path d="M 72.872563 273.300249 
Q 40.713118 246.417372 9.411476 220.251554 
" clip-path="url(#paa24373b9d)" style="fill: none; stroke: #ff0000; stroke-linecap: round"/>
    <path d="M 13.877117 230.501338 
L 9.411476 220.251554 
L 20.290687 222.828912 
L 13.877117 230.501338 
z
" clip-path="url(#paa24373b9d)" style="fill: #ff0000; stroke: #ff0000; stroke-linecap: round"/>
   </g>
   <g id="patch_10">
    <path d="M 25.216775 186.920406 
Q 22.967927 151.435838 20.789793 117.067065 
" clip-path="url(#paa24373b9d)" style="fill: none; stroke: #ff0000; stroke-linecap: round"/>
    <path d="M 16.432288 127.363285 
L 20.789793 117.067065 
L 26.412266 126.7308 
L 16.432288 127.363285 
z
" clip-path="url(#paa24373b9d)" style="fill: #ff0000; stroke: #ff0000; stroke-linecap: round"/>
   </g>
   <g id="patch_11">
    <path d="M 61.748022 97.759549 
Q 90.372812 68.868683 118.210697 40.772036 
" clip-path="url(#paa24373b9d)" style="fill: none; stroke: #ff0000; stroke-linecap: round"/>
    <path d="M 107.620565 44.356599 
L 118.210697 40.772036 
L 114.724268 51.39488 
L 107.620565 44.356599 
z
" clip-path="url(#paa24373b9d)" style="fill: #ff0000; stroke: #ff0000; stroke-linecap: round"/>
   </g>
   <g id="patch_12">
    <path d="M 166.822696 43.998628 
Q 213.825078 33.482391 259.736402 23.210266 
" clip-path="url(#paa24373b9d)" style="fill: none; stroke: #ff0000; stroke-linecap: round"/>
    <path d="M 248.885974 20.514304 
L 259.736402 23.210266 
L 251.069376 30.273031 
L 248.885974 20.514304 
z
" clip-path="url(#paa24373b9d)" style="fill: #ff0000; stroke: #ff0000; stroke-linecap: round"/>
   </g>
   <g id="line2d_47">
    <path d="M 221.811886 38.339352 
L 233.67208 38.59741 
L 239.588698 38.913994 
L 245.489159 39.371538 
L 251.368096 39.952539 
L 257.220168 40.657975 
L 263.040051 41.491767 
L 268.822461 42.452695 
L 274.562136 43.538698 
L 280.253863 44.748897 
L 285.892464 46.082532 
L 291.472819 47.538335 
L 296.989848 49.114915 
L 302.438545 50.810833 
L 307.813947 52.624587 
L 313.111179 54.554509 
L 318.325415 56.598853 
L 323.451926 58.755748 
L 328.486039 61.023249 
L 333.423193 63.39928 
L 338.258885 65.881695 
L 342.988734 68.468224 
L 347.608426 71.15653 
L 352.113777 73.944154 
L 356.500675 76.828578 
L 360.76515 79.807165 
L 364.903308 82.877221 
L 368.911404 86.035942 
L 372.785779 89.280471 
L 376.522927 92.607844 
L 380.119434 96.01505 
L 383.572049 99.498981 
L 386.877614 103.056479 
L 390.033144 106.684301 
L 393.035752 110.379159 
L 395.882728 114.137685 
L 398.571463 117.956472 
L 401.099534 121.83204 
L 403.464622 125.760873 
L 405.664598 129.739393 
L 407.697443 133.763991 
L 409.561327 137.831002 
L 411.254538 141.936734 
L 412.775555 146.077451 
L 414.122977 150.249393 
L 415.295598 154.448764 
L 416.292332 158.671749 
L 417.112294 162.914508 
L 417.754718 167.173186 
L 418.21904 171.443911 
L 418.504819 175.7228 
L 418.611813 180.005965 
L 418.539907 184.289512 
L 418.289184 188.569546 
L 417.859855 192.842179 
L 417.252327 197.103525 
L 416.467136 201.349712 
L 415.505011 205.576879 
L 414.366811 209.781184 
L 413.053587 213.958806 
L 411.566517 218.105945 
L 409.906967 222.218835 
L 408.076432 226.293734 
L 406.07659 230.326941 
L 403.909244 234.314787 
L 401.576379 238.253649 
L 399.080102 242.139945 
L 396.422694 245.970144 
L 393.606559 249.740763 
L 390.634268 253.448376 
L 387.508513 257.08961 
L 384.232145 260.661159 
L 380.808132 264.159773 
L 377.239596 267.582274 
L 373.529772 270.925549 
L 369.682041 274.186562 
L 365.699892 277.362345 
L 361.586953 280.450015 
L 357.346955 283.446761 
L 352.983759 286.349864 
L 348.501325 289.15668 
L 343.903733 291.864662 
L 339.195157 294.471345 
L 334.379882 296.974362 
L 329.462281 299.371436 
L 324.446827 301.66039 
L 319.338077 303.83914 
L 314.140677 305.90571 
L 308.859349 307.858218 
L 303.498896 309.694891 
L 298.064189 311.414058 
L 292.560169 313.014157 
L 286.991838 314.493734 
L 281.36426 315.851444 
L 275.682548 317.086052 
L 269.951868 318.196437 
L 264.177428 319.181588 
L 258.364479 320.040611 
L 252.518303 320.772725 
L 246.644215 321.377263 
L 240.747554 321.853677 
L 234.833681 322.201534 
L 228.907971 322.420517 
L 222.975811 322.510427 
L 217.042593 322.471183 
L 211.11371 322.302819 
L 205.194551 322.005491 
L 199.290498 321.579465 
L 193.406917 321.025133 
L 187.549156 320.342996 
L 181.722539 319.533675 
L 175.932364 318.597904 
L 170.183893 317.536537 
L 164.482353 316.350535 
L 158.832924 315.040979 
L 153.240744 313.609057 
L 147.710893 312.056074 
L 142.248402 310.383437 
L 136.858233 308.592671 
L 131.545288 306.685399 
L 126.314393 304.663361 
L 121.170308 302.528388 
L 116.117703 300.282428 
L 111.161177 297.927515 
L 106.305229 295.465796 
L 101.554281 292.899504 
L 96.912642 290.230976 
L 92.384541 287.462633 
L 87.974085 284.596997 
L 83.685291 281.636666 
L 79.522051 278.584338 
L 75.488156 275.442782 
L 71.587264 272.214858 
L 67.822932 268.903496 
L 64.19857 265.511711 
L 60.717484 262.04258 
L 57.382827 258.499263 
L 54.197641 254.884974 
L 51.164811 251.203005 
L 48.287105 247.456698 
L 45.567126 243.649462 
L 43.007361 239.784754 
L 40.610122 235.866091 
L 38.377602 231.897031 
L 36.311816 227.881187 
L 34.414658 223.822203 
L 32.687835 219.723775 
L 31.132934 215.589623 
L 29.751352 211.42351 
L 28.544361 207.229218 
L 27.513041 203.010563 
L 26.658348 198.771379 
L 25.98104 194.515519 
L 25.481752 190.246852 
L 25.160917 185.969257 
L 25.018849 181.686625 
L 25.055654 177.402846 
L 25.271322 173.121815 
L 25.665634 168.847424 
L 26.238253 164.583558 
L 26.988638 160.334093 
L 27.916128 156.102892 
L 29.019858 151.8938 
L 30.298847 147.710645 
L 31.75191 143.557226 
L 33.377748 139.437324 
L 35.174862 135.354678 
L 37.14164 131.313004 
L 39.276272 127.315972 
L 41.576839 123.367219 
L 44.041229 119.47033 
L 46.667224 115.628853 
L 49.452414 111.846273 
L 52.394289 108.126036 
L 55.490154 104.471516 
L 58.737215 100.886042 
L 62.132502 97.372866 
L 65.672946 93.93519 
L 69.355311 90.576129 
L 73.176269 87.298747 
L 77.132326 84.106013 
L 81.219907 81.000839 
L 85.435276 77.986036 
L 89.77462 75.064356 
L 94.233978 72.238446 
L 98.809316 69.510893 
L 103.496449 66.884139 
L 108.291128 64.360577 
L 113.189013 61.942568 
L 118.18568 59.632361 
L 123.276449 57.431731 
L 128.456657 55.342572 
L 133.722049 53.367925 
L 139.068023 51.51003 
L 144.48795 49.766193 
L 149.976322 48.136554 
L 155.534762 46.639002 
L 166.76601 44.011311 
L 166.76601 44.011311 
" clip-path="url(#paa24373b9d)" style="fill: none; stroke: #0000ff; stroke-width: 2.5; stroke-linecap: square"/>
   </g>
   <g id="patch_13">
    <path d="M 221.811886 345.6 
L 221.811886 16.64 
" style="fill: none; stroke: #000000; stroke-width: 0.8; stroke-linejoin: miter; stroke-linecap: square"/>
   </g>
   <g id="patch_14">
    <path d="M 0 38.339352 
L 444.791005 38.339352 
" style="fill: none; stroke: #000000; stroke-width: 0.8; stroke-linejoin: miter; stroke-linecap: square"/>
   </g>
  </g>
 </g>
 <defs>
  <clipPath id="paa24373b9d">
   <rect x="0" y="16.64" width="444.791005" height="328.96"/>
  </clipPath>
 </defs>
</svg>
