<?xml version="1.0" encoding="utf-8" standalone="no"?>
<!DOCTYPE svg PUBLIC "-//W3C//DTD SVG 1.1//EN"
  "http://www.w3.org/Graphics/SVG/1.1/DTD/svg11.dtd">
<svg xmlns:xlink="http://www.w3.org/1999/xlink" width="576pt" height="216pt" viewBox="0 0 576 216" xmlns="http://www.w3.org/2000/svg" version="1.1">
 <metadata>
  <rdf:RDF xmlns:dc="http://purl.org/dc/elements/1.1/" xmlns:cc="http://creativecommons.org/ns#" xmlns:rdf="http://www.w3.org/1999/02/22-rdf-syntax-ns#">
   <cc:Work>
    <dc:type rdf:resource="http://purl.org/dc/dcmitype/StillImage"/>
    <dc:date>2022-05-16T19:22:24.217818</dc:date>
    <dc:format>image/svg+xml</dc:format>
    <dc:creator>
     <cc:Agent>
      <dc:title>Matplotlib v3.5.1, https://matplotlib.org/</dc:title>
     </cc:Agent>
    </dc:creator>
   </cc:Work>
  </rdf:RDF>
 </metadata>
 <defs>
  <style type="text/css">*{stroke-linejoin: round; stroke-linecap: butt}</style>
 </defs>
 <g id="figure_1">
  <g id="patch_1">
   <path d="M 0 216 
L 576 216 
L 576 0 
L 0 0 
z
" style="fill: #ffffff"/>
  </g>
  <g id="axes_1">
   <g id="patch_2">
    <path d="M 81.9984 203.307837 
L 145.404488 203.307837 
L 145.404488 12.641538 
L 81.9984 12.641538 
z
" style="fill: #ffffff"/>
   </g>
   <g id="matplotlib.axis_1"/>
   <g id="matplotlib.axis_2"/>
   <g id="patch_3">
    <path d="M 85.821308 192.102078 
Q 99.045632 153.808557 111.540048 117.62862 
" clip-path="url(#pbfce809b6c)" style="fill: none; stroke: #000000; stroke-width: 2; stroke-linecap: round"/>
    <path d="M 103.549688 125.448731 
L 111.540048 117.62862 
L 113.001921 128.712975 
L 103.549688 125.448731 
z
" clip-path="url(#pbfce809b6c)" style="stroke: #000000; stroke-width: 2; stroke-linecap: round"/>
   </g>
   <g id="patch_4">
    <path d="M 141.754766 192.040535 
Q 129.529686 153.808379 117.985641 117.706057 
" clip-path="url(#pbfce809b6c)" style="fill: none; stroke: #000000; stroke-width: 2; stroke-linecap: round"/>
    <path d="M 116.268863 128.753802 
L 117.985641 117.706057 
L 125.79377 125.708126 
L 116.268863 128.753802 
z
" clip-path="url(#pbfce809b6c)" style="stroke: #000000; stroke-width: 2; stroke-linecap: round"/>
   </g>
   <g id="patch_5">
    <path d="M 114.780614 99.993593 
Q 114.337929 62.138772 113.921392 26.519867 
" clip-path="url(#pbfce809b6c)" style="fill: none; stroke: #000000; stroke-width: 2; stroke-linecap: round"/>
    <path d="M 109.038668 36.57765 
L 113.921392 26.519867 
L 119.037985 36.460715 
L 109.038668 36.57765 
z
" clip-path="url(#pbfce809b6c)" style="stroke: #000000; stroke-width: 2; stroke-linecap: round"/>
   </g>
   <g id="PathCollection_1">
    <defs>
     <path id="m1ad2040963" d="M 0 7.071068 
C 1.875269 7.071068 3.673985 6.326016 5 5 
C 6.326016 3.673985 7.071068 1.875269 7.071068 0 
C 7.071068 -1.875269 6.326016 -3.673985 5 -5 
C 3.673985 -6.326016 1.875269 -7.071068 0 -7.071068 
C -1.875269 -7.071068 -3.673985 -6.326016 -5 -5 
C -6.326016 -3.673985 -7.071068 -1.875269 -7.071068 0 
C -7.071068 1.875269 -6.326016 3.673985 -5 5 
C -3.673985 6.326016 -1.875269 7.071068 0 7.071068 
z
" style="stroke: #000000"/>
    </defs>
    <g>
     <use xlink:href="#m1ad2040963" x="83.217748" y="199.641177" style="fill: #fec7b8; stroke: #000000"/>
     <use xlink:href="#m1ad2040963" x="144.18514" y="199.641177" style="fill: #fec7b8; stroke: #000000"/>
     <use xlink:href="#m1ad2040963" x="114.873947" y="107.974688" style="fill: #fec7b8; stroke: #000000"/>
     <use xlink:href="#m1ad2040963" x="113.801974" y="16.308198" style="fill: #fec7b8; stroke: #000000"/>
    </g>
   </g>
   <g id="text_1">
    <!-- {B} -->
    <g transform="translate(73.424779 202.400552)scale(0.1 -0.1)">
     <defs>
      <path id="DejaVuSans-7b" d="M 3272 -594 
L 3272 -1044 
L 3078 -1044 
Q 2300 -1044 2036 -812 
Q 1772 -581 1772 109 
L 1772 856 
Q 1772 1328 1603 1509 
Q 1434 1691 991 1691 
L 800 1691 
L 800 2138 
L 991 2138 
Q 1438 2138 1605 2317 
Q 1772 2497 1772 2963 
L 1772 3713 
Q 1772 4403 2036 4633 
Q 2300 4863 3078 4863 
L 3272 4863 
L 3272 4416 
L 3059 4416 
Q 2619 4416 2484 4278 
Q 2350 4141 2350 3700 
L 2350 2925 
Q 2350 2434 2208 2212 
Q 2066 1991 1722 1913 
Q 2069 1828 2209 1606 
Q 2350 1384 2350 897 
L 2350 122 
Q 2350 -319 2484 -456 
Q 2619 -594 3059 -594 
L 3272 -594 
z
" transform="scale(0.015625)"/>
      <path id="DejaVuSans-42" d="M 1259 2228 
L 1259 519 
L 2272 519 
Q 2781 519 3026 730 
Q 3272 941 3272 1375 
Q 3272 1813 3026 2020 
Q 2781 2228 2272 2228 
L 1259 2228 
z
M 1259 4147 
L 1259 2741 
L 2194 2741 
Q 2656 2741 2882 2914 
Q 3109 3088 3109 3444 
Q 3109 3797 2882 3972 
Q 2656 4147 2194 4147 
L 1259 4147 
z
M 628 4666 
L 2241 4666 
Q 2963 4666 3353 4366 
Q 3744 4066 3744 3513 
Q 3744 3084 3544 2831 
Q 3344 2578 2956 2516 
Q 3422 2416 3680 2098 
Q 3938 1781 3938 1306 
Q 3938 681 3513 340 
Q 3088 0 2303 0 
L 628 0 
L 628 4666 
z
" transform="scale(0.015625)"/>
      <path id="DejaVuSans-7d" d="M 800 -594 
L 1019 -594 
Q 1456 -594 1589 -459 
Q 1722 -325 1722 122 
L 1722 897 
Q 1722 1384 1862 1606 
Q 2003 1828 2350 1913 
Q 2003 1991 1862 2212 
Q 1722 2434 1722 2925 
L 1722 3700 
Q 1722 4144 1589 4280 
Q 1456 4416 1019 4416 
L 800 4416 
L 800 4863 
L 997 4863 
Q 1775 4863 2036 4633 
Q 2297 4403 2297 3713 
L 2297 2963 
Q 2297 2497 2465 2317 
Q 2634 2138 3078 2138 
L 3272 2138 
L 3272 1691 
L 3078 1691 
Q 2634 1691 2465 1509 
Q 2297 1328 2297 856 
L 2297 109 
Q 2297 -581 2036 -812 
Q 1775 -1044 997 -1044 
L 800 -1044 
L 800 -594 
z
" transform="scale(0.015625)"/>
     </defs>
     <use xlink:href="#DejaVuSans-7b"/>
     <use xlink:href="#DejaVuSans-42" x="63.623047"/>
     <use xlink:href="#DejaVuSans-7d" x="132.226562"/>
    </g>
   </g>
   <g id="text_2">
    <!-- {A} -->
    <g transform="translate(134.402328 202.400552)scale(0.1 -0.1)">
     <defs>
      <path id="DejaVuSans-41" d="M 2188 4044 
L 1331 1722 
L 3047 1722 
L 2188 4044 
z
M 1831 4666 
L 2547 4666 
L 4325 0 
L 3669 0 
L 3244 1197 
L 1141 1197 
L 716 0 
L 50 0 
L 1831 4666 
z
" transform="scale(0.015625)"/>
     </defs>
     <use xlink:href="#DejaVuSans-7b"/>
     <use xlink:href="#DejaVuSans-41" x="63.623047"/>
     <use xlink:href="#DejaVuSans-7d" x="132.03125"/>
    </g>
   </g>
   <g id="text_3">
    <!-- {AB} -->
    <g transform="translate(101.660666 110.734063)scale(0.1 -0.1)">
     <use xlink:href="#DejaVuSans-7b"/>
     <use xlink:href="#DejaVuSans-41" x="63.623047"/>
     <use xlink:href="#DejaVuSans-42" x="132.03125"/>
     <use xlink:href="#DejaVuSans-7d" x="200.634766"/>
    </g>
   </g>
   <g id="text_4">
    <!-- {M} -->
    <g transform="translate(103.125411 19.067573)scale(0.1 -0.1)">
     <defs>
      <path id="DejaVuSans-4d" d="M 628 4666 
L 1569 4666 
L 2759 1491 
L 3956 4666 
L 4897 4666 
L 4897 0 
L 4281 0 
L 4281 4097 
L 3078 897 
L 2444 897 
L 1241 4097 
L 1241 0 
L 628 0 
L 628 4666 
z
" transform="scale(0.015625)"/>
     </defs>
     <use xlink:href="#DejaVuSans-7b"/>
     <use xlink:href="#DejaVuSans-4d" x="63.623047"/>
     <use xlink:href="#DejaVuSans-7d" x="149.902344"/>
    </g>
   </g>
  </g>
  <g id="axes_2">
   <g id="patch_6">
    <path d="M 256.812313 203.307837 
L 319.187687 203.307837 
L 319.187687 12.641538 
L 256.812313 12.641538 
z
" style="fill: #ffffff"/>
   </g>
   <g id="matplotlib.axis_3"/>
   <g id="matplotlib.axis_4"/>
   <g id="patch_7">
    <path d="M 260.439965 192.040535 
Q 272.653732 153.808379 284.187037 117.706239 
" clip-path="url(#paae052d159)" style="fill: none; stroke: #000000; stroke-width: 2; stroke-linecap: round"/>
    <path d="M 276.381056 125.710405 
L 284.187037 117.706239 
L 285.906781 128.753523 
L 276.381056 125.710405 
z
" clip-path="url(#paae052d159)" style="stroke: #000000; stroke-width: 2; stroke-linecap: round"/>
   </g>
   <g id="patch_8">
    <path d="M 315.454514 192.074104 
Q 302.641438 153.806149 290.538316 117.658563 
" clip-path="url(#paae052d159)" style="fill: none; stroke: #000000; stroke-width: 2; stroke-linecap: round"/>
    <path d="M 288.972033 128.728647 
L 290.538316 117.658563 
L 298.454613 125.55364 
L 288.972033 128.728647 
z
" clip-path="url(#paae052d159)" style="stroke: #000000; stroke-width: 2; stroke-linecap: round"/>
   </g>
   <g id="patch_9">
    <path d="M 287.379423 99.993593 
Q 287.775505 62.141326 288.148189 26.525005 
" clip-path="url(#paae052d159)" style="fill: none; stroke: #000000; stroke-width: 2; stroke-linecap: round"/>
    <path d="M 283.04383 36.472141 
L 288.148189 26.525005 
L 293.043283 36.576774 
L 283.04383 36.472141 
z
" clip-path="url(#paae052d159)" style="stroke: #000000; stroke-width: 2; stroke-linecap: round"/>
   </g>
   <g id="PathCollection_2">
    <g>
     <use xlink:href="#m1ad2040963" x="258.011839" y="199.641177" style="fill: #fec7b8; stroke: #000000"/>
     <use xlink:href="#m1ad2040963" x="317.988161" y="199.641177" style="fill: #fec7b8; stroke: #000000"/>
     <use xlink:href="#m1ad2040963" x="287.29591" y="107.974688" style="fill: #fec7b8; stroke: #000000"/>
     <use xlink:href="#m1ad2040963" x="288.255097" y="16.308198" style="fill: #fec7b8; stroke: #000000"/>
    </g>
   </g>
   <g id="text_5">
    <!-- {B} -->
    <g transform="translate(248.21887 202.400552)scale(0.1 -0.1)">
     <use xlink:href="#DejaVuSans-7b"/>
     <use xlink:href="#DejaVuSans-42" x="63.623047"/>
     <use xlink:href="#DejaVuSans-7d" x="132.226562"/>
    </g>
   </g>
   <g id="text_6">
    <!-- {A} -->
    <g transform="translate(308.205348 202.400552)scale(0.1 -0.1)">
     <use xlink:href="#DejaVuSans-7b"/>
     <use xlink:href="#DejaVuSans-41" x="63.623047"/>
     <use xlink:href="#DejaVuSans-7d" x="132.03125"/>
    </g>
   </g>
   <g id="text_7">
    <!-- {AB} -->
    <g transform="translate(274.082629 110.734063)scale(0.1 -0.1)">
     <use xlink:href="#DejaVuSans-7b"/>
     <use xlink:href="#DejaVuSans-41" x="63.623047"/>
     <use xlink:href="#DejaVuSans-42" x="132.03125"/>
     <use xlink:href="#DejaVuSans-7d" x="200.634766"/>
    </g>
   </g>
   <g id="text_8">
    <!-- {M} -->
    <g transform="translate(277.578534 19.067573)scale(0.1 -0.1)">
     <use xlink:href="#DejaVuSans-7b"/>
     <use xlink:href="#DejaVuSans-4d" x="63.623047"/>
     <use xlink:href="#DejaVuSans-7d" x="149.902344"/>
    </g>
   </g>
  </g>
  <g id="axes_3">
   <g id="patch_10">
    <path d="M 414.64383 203.307837 
L 509.953282 203.307837 
L 509.953282 12.641538 
L 414.64383 12.641538 
z
" style="fill: #ffffff"/>
   </g>
   <g id="matplotlib.axis_5"/>
   <g id="matplotlib.axis_6"/>
   <g id="patch_11">
    <path d="M 439.340176 99.993593 
Q 439.398596 85.057427 439.44827 72.357311 
" clip-path="url(#p1c8a1ef938)" style="fill: none; stroke: #000000; stroke-width: 2; stroke-linecap: round"/>
    <path d="M 434.409195 82.337678 
L 439.44827 72.357311 
L 444.409119 82.376791 
L 434.409195 82.337678 
z
" clip-path="url(#p1c8a1ef938)" style="stroke: #000000; stroke-width: 2; stroke-linecap: round"/>
   </g>
   <g id="patch_12">
    <path d="M 456.32241 193.976362 
Q 439.20972 176.725071 423.671779 161.061283 
" clip-path="url(#p1c8a1ef938)" style="fill: none; stroke: #000000; stroke-width: 2; stroke-linecap: round"/>
    <path d="M 427.164504 171.682058 
L 423.671779 161.061283 
L 434.264034 164.639568 
L 427.164504 171.682058 
z
" clip-path="url(#p1c8a1ef938)" style="stroke: #000000; stroke-width: 2; stroke-linecap: round"/>
   </g>
   <g id="patch_13">
    <path d="M 461.982814 191.660083 
Q 462.059734 176.723916 462.125139 164.023788 
" clip-path="url(#p1c8a1ef938)" style="fill: none; stroke: #000000; stroke-width: 2; stroke-linecap: round"/>
    <path d="M 457.073706 173.997906 
L 462.125139 164.023788 
L 467.073574 174.049405 
L 457.073706 173.997906 
z
" clip-path="url(#p1c8a1ef938)" style="stroke: #000000; stroke-width: 2; stroke-linecap: round"/>
   </g>
   <g id="patch_14">
    <path d="M 467.604126 194.021121 
Q 485.02954 176.726063 500.86789 161.006196 
" clip-path="url(#p1c8a1ef938)" style="fill: none; stroke: #000000; stroke-width: 2; stroke-linecap: round"/>
    <path d="M 490.248089 164.501884 
L 500.86789 161.006196 
L 497.292559 171.599449 
L 490.248089 164.501884 
z
" clip-path="url(#p1c8a1ef938)" style="stroke: #000000; stroke-width: 2; stroke-linecap: round"/>
   </g>
   <g id="patch_15">
    <path d="M 423.085185 149.340422 
Q 450.376575 130.890708 475.815487 113.693321 
" clip-path="url(#p1c8a1ef938)" style="fill: none; stroke: #000000; stroke-width: 2; stroke-linecap: round"/>
    <path d="M 464.730661 115.151622 
L 475.815487 113.693321 
L 470.331233 123.436162 
L 464.730661 115.151622 
z
" clip-path="url(#p1c8a1ef938)" style="stroke: #000000; stroke-width: 2; stroke-linecap: round"/>
   </g>
   <g id="patch_16">
    <path d="M 504.436718 146.727613 
Q 496.197277 130.890808 488.989876 117.03766 
" clip-path="url(#p1c8a1ef938)" style="fill: none; stroke: #000000; stroke-width: 2; stroke-linecap: round"/>
    <path d="M 489.169709 128.216553 
L 488.989876 117.03766 
L 498.040891 123.601128 
L 489.169709 128.216553 
z
" clip-path="url(#p1c8a1ef938)" style="stroke: #000000; stroke-width: 2; stroke-linecap: round"/>
   </g>
   <g id="patch_17">
    <path d="M 478.700964 102.270709 
Q 461.881658 85.058281 446.625122 69.44515 
" clip-path="url(#p1c8a1ef938)" style="fill: none; stroke: #000000; stroke-width: 2; stroke-linecap: round"/>
    <path d="M 450.037905 80.091883 
L 446.625122 69.44515 
L 457.190178 73.102963 
L 450.037905 80.091883 
z
" clip-path="url(#p1c8a1ef938)" style="stroke: #000000; stroke-width: 2; stroke-linecap: round"/>
   </g>
   <g id="patch_18">
    <path d="M 484.409271 99.999188 
Q 484.661388 85.060814 484.875772 72.358189 
" clip-path="url(#p1c8a1ef938)" style="fill: none; stroke: #000000; stroke-width: 2; stroke-linecap: round"/>
    <path d="M 479.707737 82.272392 
L 484.875772 72.358189 
L 489.706313 82.441139 
L 479.707737 82.272392 
z
" clip-path="url(#p1c8a1ef938)" style="stroke: #000000; stroke-width: 2; stroke-linecap: round"/>
   </g>
   <g id="patch_19">
    <path d="M 442.935402 54.943632 
Q 450.464216 39.223226 457.027184 25.519537 
" clip-path="url(#p1c8a1ef938)" style="fill: none; stroke: #000000; stroke-width: 2; stroke-linecap: round"/>
    <path d="M 448.198279 32.378869 
L 457.027184 25.519537 
L 457.217307 36.69826 
L 448.198279 32.378869 
z
" clip-path="url(#p1c8a1ef938)" style="stroke: #000000; stroke-width: 2; stroke-linecap: round"/>
   </g>
   <g id="PathCollection_3">
    <g>
     <use xlink:href="#m1ad2040963" x="439.308959" y="107.974688" style="fill: #fec7b8; stroke: #000000"/>
     <use xlink:href="#m1ad2040963" x="484.274668" y="107.974688" style="fill: #fec7b8; stroke: #000000"/>
     <use xlink:href="#m1ad2040963" x="461.941711" y="199.641177" style="fill: #fec7b8; stroke: #000000"/>
     <use xlink:href="#m1ad2040963" x="416.476704" y="153.807932" style="fill: #fec7b8; stroke: #000000"/>
     <use xlink:href="#m1ad2040963" x="462.17775" y="153.807932" style="fill: #fec7b8; stroke: #000000"/>
     <use xlink:href="#m1ad2040963" x="508.120408" y="153.807932" style="fill: #fec7b8; stroke: #000000"/>
     <use xlink:href="#m1ad2040963" x="439.488227" y="62.141443" style="fill: #fec7b8; stroke: #000000"/>
     <use xlink:href="#m1ad2040963" x="485.048201" y="62.141443" style="fill: #fec7b8; stroke: #000000"/>
     <use xlink:href="#m1ad2040963" x="461.438677" y="16.308198" style="fill: #fec7b8; stroke: #000000"/>
    </g>
   </g>
   <g id="text_9">
    <!-- {A} -->
    <g transform="translate(429.526147 110.734063)scale(0.1 -0.1)">
     <use xlink:href="#DejaVuSans-7b"/>
     <use xlink:href="#DejaVuSans-41" x="63.623047"/>
     <use xlink:href="#DejaVuSans-7d" x="132.03125"/>
    </g>
   </g>
   <g id="text_10">
    <!-- {B1_inter_B2} -->
    <g transform="translate(425.705774 202.261489)scale(0.1 -0.1)">
     <defs>
      <path id="DejaVuSans-31" d="M 794 531 
L 1825 531 
L 1825 4091 
L 703 3866 
L 703 4441 
L 1819 4666 
L 2450 4666 
L 2450 531 
L 3481 531 
L 3481 0 
L 794 0 
L 794 531 
z
" transform="scale(0.015625)"/>
      <path id="DejaVuSans-5f" d="M 3263 -1063 
L 3263 -1509 
L -63 -1509 
L -63 -1063 
L 3263 -1063 
z
" transform="scale(0.015625)"/>
      <path id="DejaVuSans-69" d="M 603 3500 
L 1178 3500 
L 1178 0 
L 603 0 
L 603 3500 
z
M 603 4863 
L 1178 4863 
L 1178 4134 
L 603 4134 
L 603 4863 
z
" transform="scale(0.015625)"/>
      <path id="DejaVuSans-6e" d="M 3513 2113 
L 3513 0 
L 2938 0 
L 2938 2094 
Q 2938 2591 2744 2837 
Q 2550 3084 2163 3084 
Q 1697 3084 1428 2787 
Q 1159 2491 1159 1978 
L 1159 0 
L 581 0 
L 581 3500 
L 1159 3500 
L 1159 2956 
Q 1366 3272 1645 3428 
Q 1925 3584 2291 3584 
Q 2894 3584 3203 3211 
Q 3513 2838 3513 2113 
z
" transform="scale(0.015625)"/>
      <path id="DejaVuSans-74" d="M 1172 4494 
L 1172 3500 
L 2356 3500 
L 2356 3053 
L 1172 3053 
L 1172 1153 
Q 1172 725 1289 603 
Q 1406 481 1766 481 
L 2356 481 
L 2356 0 
L 1766 0 
Q 1100 0 847 248 
Q 594 497 594 1153 
L 594 3053 
L 172 3053 
L 172 3500 
L 594 3500 
L 594 4494 
L 1172 4494 
z
" transform="scale(0.015625)"/>
      <path id="DejaVuSans-65" d="M 3597 1894 
L 3597 1613 
L 953 1613 
Q 991 1019 1311 708 
Q 1631 397 2203 397 
Q 2534 397 2845 478 
Q 3156 559 3463 722 
L 3463 178 
Q 3153 47 2828 -22 
Q 2503 -91 2169 -91 
Q 1331 -91 842 396 
Q 353 884 353 1716 
Q 353 2575 817 3079 
Q 1281 3584 2069 3584 
Q 2775 3584 3186 3129 
Q 3597 2675 3597 1894 
z
M 3022 2063 
Q 3016 2534 2758 2815 
Q 2500 3097 2075 3097 
Q 1594 3097 1305 2825 
Q 1016 2553 972 2059 
L 3022 2063 
z
" transform="scale(0.015625)"/>
      <path id="DejaVuSans-72" d="M 2631 2963 
Q 2534 3019 2420 3045 
Q 2306 3072 2169 3072 
Q 1681 3072 1420 2755 
Q 1159 2438 1159 1844 
L 1159 0 
L 581 0 
L 581 3500 
L 1159 3500 
L 1159 2956 
Q 1341 3275 1631 3429 
Q 1922 3584 2338 3584 
Q 2397 3584 2469 3576 
Q 2541 3569 2628 3553 
L 2631 2963 
z
" transform="scale(0.015625)"/>
      <path id="DejaVuSans-32" d="M 1228 531 
L 3431 531 
L 3431 0 
L 469 0 
L 469 531 
Q 828 903 1448 1529 
Q 2069 2156 2228 2338 
Q 2531 2678 2651 2914 
Q 2772 3150 2772 3378 
Q 2772 3750 2511 3984 
Q 2250 4219 1831 4219 
Q 1534 4219 1204 4116 
Q 875 4013 500 3803 
L 500 4441 
Q 881 4594 1212 4672 
Q 1544 4750 1819 4750 
Q 2544 4750 2975 4387 
Q 3406 4025 3406 3419 
Q 3406 3131 3298 2873 
Q 3191 2616 2906 2266 
Q 2828 2175 2409 1742 
Q 1991 1309 1228 531 
z
" transform="scale(0.015625)"/>
     </defs>
     <use xlink:href="#DejaVuSans-7b"/>
     <use xlink:href="#DejaVuSans-42" x="63.623047"/>
     <use xlink:href="#DejaVuSans-31" x="132.226562"/>
     <use xlink:href="#DejaVuSans-5f" x="195.849609"/>
     <use xlink:href="#DejaVuSans-69" x="245.849609"/>
     <use xlink:href="#DejaVuSans-6e" x="273.632812"/>
     <use xlink:href="#DejaVuSans-74" x="337.011719"/>
     <use xlink:href="#DejaVuSans-65" x="376.220703"/>
     <use xlink:href="#DejaVuSans-72" x="437.744141"/>
     <use xlink:href="#DejaVuSans-5f" x="478.857422"/>
     <use xlink:href="#DejaVuSans-42" x="528.857422"/>
     <use xlink:href="#DejaVuSans-32" x="597.460938"/>
     <use xlink:href="#DejaVuSans-7d" x="661.083984"/>
    </g>
   </g>
   <g id="text_11">
    <!-- {B2} -->
    <g transform="translate(403.502485 156.567307)scale(0.1 -0.1)">
     <use xlink:href="#DejaVuSans-7b"/>
     <use xlink:href="#DejaVuSans-42" x="63.623047"/>
     <use xlink:href="#DejaVuSans-32" x="132.226562"/>
     <use xlink:href="#DejaVuSans-7d" x="195.849609"/>
    </g>
   </g>
   <g id="text_12">
    <!-- [] -->
    <g transform="translate(458.276187 156.567307)scale(0.1 -0.1)">
     <defs>
      <path id="DejaVuSans-5b" d="M 550 4863 
L 1875 4863 
L 1875 4416 
L 1125 4416 
L 1125 -397 
L 1875 -397 
L 1875 -844 
L 550 -844 
L 550 4863 
z
" transform="scale(0.015625)"/>
      <path id="DejaVuSans-5d" d="M 1947 4863 
L 1947 -844 
L 622 -844 
L 622 -397 
L 1369 -397 
L 1369 4416 
L 622 4416 
L 622 4863 
L 1947 4863 
z
" transform="scale(0.015625)"/>
     </defs>
     <use xlink:href="#DejaVuSans-5b"/>
     <use xlink:href="#DejaVuSans-5d" x="39.013672"/>
    </g>
   </g>
   <g id="text_13">
    <!-- {B1} -->
    <g transform="translate(495.146189 156.567307)scale(0.1 -0.1)">
     <use xlink:href="#DejaVuSans-7b"/>
     <use xlink:href="#DejaVuSans-42" x="63.623047"/>
     <use xlink:href="#DejaVuSans-31" x="132.226562"/>
     <use xlink:href="#DejaVuSans-7d" x="195.849609"/>
    </g>
   </g>
   <g id="text_14">
    <!-- {B} -->
    <g transform="translate(474.481699 110.734063)scale(0.1 -0.1)">
     <use xlink:href="#DejaVuSans-7b"/>
     <use xlink:href="#DejaVuSans-42" x="63.623047"/>
     <use xlink:href="#DejaVuSans-7d" x="132.226562"/>
    </g>
   </g>
   <g id="text_15">
    <!-- {AB} -->
    <g transform="translate(426.274946 64.900818)scale(0.1 -0.1)">
     <use xlink:href="#DejaVuSans-7b"/>
     <use xlink:href="#DejaVuSans-41" x="63.623047"/>
     <use xlink:href="#DejaVuSans-42" x="132.03125"/>
     <use xlink:href="#DejaVuSans-7d" x="200.634766"/>
    </g>
   </g>
   <g id="text_16">
    <!-- {M} -->
    <g transform="translate(450.762115 19.067573)scale(0.1 -0.1)">
     <use xlink:href="#DejaVuSans-7b"/>
     <use xlink:href="#DejaVuSans-4d" x="63.623047"/>
     <use xlink:href="#DejaVuSans-7d" x="149.902344"/>
    </g>
   </g>
   <g id="text_17">
    <!-- [{B1}, {B2}] -->
    <g transform="translate(452.020076 64.900818)scale(0.1 -0.1)">
     <defs>
      <path id="DejaVuSans-2c" d="M 750 794 
L 1409 794 
L 1409 256 
L 897 -744 
L 494 -744 
L 750 256 
L 750 794 
z
" transform="scale(0.015625)"/>
      <path id="DejaVuSans-20" transform="scale(0.015625)"/>
     </defs>
     <use xlink:href="#DejaVuSans-5b"/>
     <use xlink:href="#DejaVuSans-7b" x="39.013672"/>
     <use xlink:href="#DejaVuSans-42" x="102.636719"/>
     <use xlink:href="#DejaVuSans-31" x="171.240234"/>
     <use xlink:href="#DejaVuSans-7d" x="234.863281"/>
     <use xlink:href="#DejaVuSans-2c" x="298.486328"/>
     <use xlink:href="#DejaVuSans-20" x="330.273438"/>
     <use xlink:href="#DejaVuSans-7b" x="362.060547"/>
     <use xlink:href="#DejaVuSans-42" x="425.683594"/>
     <use xlink:href="#DejaVuSans-32" x="494.287109"/>
     <use xlink:href="#DejaVuSans-7d" x="557.910156"/>
     <use xlink:href="#DejaVuSans-5d" x="621.533203"/>
    </g>
   </g>
  </g>
 </g>
 <defs>
  <clipPath id="pbfce809b6c">
   <rect x="81.9984" y="12.641538" width="63.406087" height="190.666298"/>
  </clipPath>
  <clipPath id="paae052d159">
   <rect x="256.812313" y="12.641538" width="62.375375" height="190.666298"/>
  </clipPath>
  <clipPath id="p1c8a1ef938">
   <rect x="414.64383" y="12.641538" width="95.309452" height="190.666298"/>
  </clipPath>
 </defs>
</svg>
