<?xml version="1.0" encoding="utf-8" standalone="no"?>
<!DOCTYPE svg PUBLIC "-//W3C//DTD SVG 1.1//EN"
  "http://www.w3.org/Graphics/SVG/1.1/DTD/svg11.dtd">
<svg xmlns:xlink="http://www.w3.org/1999/xlink" width="576pt" height="216pt" viewBox="0 0 576 216" xmlns="http://www.w3.org/2000/svg" version="1.1">
 <metadata>
  <rdf:RDF xmlns:dc="http://purl.org/dc/elements/1.1/" xmlns:cc="http://creativecommons.org/ns#" xmlns:rdf="http://www.w3.org/1999/02/22-rdf-syntax-ns#">
   <cc:Work>
    <dc:type rdf:resource="http://purl.org/dc/dcmitype/StillImage"/>
    <dc:date>2022-01-31T17:16:52.665847</dc:date>
    <dc:format>image/svg+xml</dc:format>
    <dc:creator>
     <cc:Agent>
      <dc:title>Matplotlib v3.5.1, https://matplotlib.org/</dc:title>
     </cc:Agent>
    </dc:creator>
   </cc:Work>
  </rdf:RDF>
 </metadata>
 <defs>
  <style type="text/css">*{stroke-linejoin: round; stroke-linecap: butt}</style>
 </defs>
 <g id="figure_1">
  <g id="patch_1">
   <path d="M 0 216 
L 576 216 
L 576 0 
L 0 0 
z
" style="fill: #ffffff"/>
  </g>
  <g id="axes_1">
   <g id="patch_2">
    <path d="M 140.996348 203.358462 
L 205.519917 203.358462 
L 205.519917 12.641538 
L 140.996348 12.641538 
z
" style="fill: #ffffff"/>
   </g>
   <g id="matplotlib.axis_1"/>
   <g id="matplotlib.axis_2"/>
   <g id="patch_3">
    <path d="M 144.806168 192.138535 
Q 157.83204 153.845077 170.137814 117.668564 
" clip-path="url(#pb82322fe53)" style="fill: none; stroke: #000000; stroke-width: 2; stroke-linecap: round"/>
    <path d="M 162.183801 125.525643 
L 170.137814 117.668564 
L 171.651069 128.746021 
L 162.183801 125.525643 
z
" clip-path="url(#pb82322fe53)" style="stroke: #000000; stroke-width: 2; stroke-linecap: round"/>
   </g>
   <g id="patch_4">
    <path d="M 201.734094 192.127342 
Q 188.852434 153.844113 176.683886 117.680193 
" clip-path="url(#pb82322fe53)" style="fill: none; stroke: #000000; stroke-width: 2; stroke-linecap: round"/>
    <path d="M 175.134099 128.752598 
L 176.683886 117.680193 
L 184.611938 125.563465 
L 175.134099 128.752598 
z
" clip-path="url(#pb82322fe53)" style="stroke: #000000; stroke-width: 2; stroke-linecap: round"/>
   </g>
   <g id="patch_5">
    <path d="M 173.408454 100.022383 
Q 173.322015 62.15498 173.24068 26.523638 
" clip-path="url(#pb82322fe53)" style="fill: none; stroke: #000000; stroke-width: 2; stroke-linecap: round"/>
    <path d="M 168.26352 36.535026 
L 173.24068 26.523638 
L 178.263494 36.512199 
L 168.26352 36.535026 
z
" clip-path="url(#pb82322fe53)" style="stroke: #000000; stroke-width: 2; stroke-linecap: round"/>
   </g>
   <g id="PathCollection_1">
    <defs>
     <path id="m65164a3ae1" d="M 0 7.071068 
C 1.875269 7.071068 3.673985 6.326016 5 5 
C 6.326016 3.673985 7.071068 1.875269 7.071068 0 
C 7.071068 -1.875269 6.326016 -3.673985 5 -5 
C 3.673985 -6.326016 1.875269 -7.071068 0 -7.071068 
C -1.875269 -7.071068 -3.673985 -6.326016 -5 -5 
C -6.326016 -3.673985 -7.071068 -1.875269 -7.071068 0 
C -7.071068 1.875269 -6.326016 3.673985 -5 5 
C -3.673985 6.326016 -1.875269 7.071068 0 7.071068 
z
" style="stroke: #000000"/>
    </defs>
    <g>
     <use xlink:href="#m65164a3ae1" x="142.237186" y="199.690828" style="fill: #fec7b8; stroke: #000000"/>
     <use xlink:href="#m65164a3ae1" x="204.279079" y="199.690828" style="fill: #fec7b8; stroke: #000000"/>
     <use xlink:href="#m65164a3ae1" x="173.426665" y="108" style="fill: #fec7b8; stroke: #000000"/>
     <use xlink:href="#m65164a3ae1" x="173.217364" y="16.309172" style="fill: #fec7b8; stroke: #000000"/>
    </g>
   </g>
   <g id="text_1">
    <!-- {B} -->
    <g transform="translate(132.444217 202.450203)scale(0.1 -0.1)">
     <defs>
      <path id="DejaVuSans-7b" d="M 3272 -594 
L 3272 -1044 
L 3078 -1044 
Q 2300 -1044 2036 -812 
Q 1772 -581 1772 109 
L 1772 856 
Q 1772 1328 1603 1509 
Q 1434 1691 991 1691 
L 800 1691 
L 800 2138 
L 991 2138 
Q 1438 2138 1605 2317 
Q 1772 2497 1772 2963 
L 1772 3713 
Q 1772 4403 2036 4633 
Q 2300 4863 3078 4863 
L 3272 4863 
L 3272 4416 
L 3059 4416 
Q 2619 4416 2484 4278 
Q 2350 4141 2350 3700 
L 2350 2925 
Q 2350 2434 2208 2212 
Q 2066 1991 1722 1913 
Q 2069 1828 2209 1606 
Q 2350 1384 2350 897 
L 2350 122 
Q 2350 -319 2484 -456 
Q 2619 -594 3059 -594 
L 3272 -594 
z
" transform="scale(0.015625)"/>
      <path id="DejaVuSans-42" d="M 1259 2228 
L 1259 519 
L 2272 519 
Q 2781 519 3026 730 
Q 3272 941 3272 1375 
Q 3272 1813 3026 2020 
Q 2781 2228 2272 2228 
L 1259 2228 
z
M 1259 4147 
L 1259 2741 
L 2194 2741 
Q 2656 2741 2882 2914 
Q 3109 3088 3109 3444 
Q 3109 3797 2882 3972 
Q 2656 4147 2194 4147 
L 1259 4147 
z
M 628 4666 
L 2241 4666 
Q 2963 4666 3353 4366 
Q 3744 4066 3744 3513 
Q 3744 3084 3544 2831 
Q 3344 2578 2956 2516 
Q 3422 2416 3680 2098 
Q 3938 1781 3938 1306 
Q 3938 681 3513 340 
Q 3088 0 2303 0 
L 628 0 
L 628 4666 
z
" transform="scale(0.015625)"/>
      <path id="DejaVuSans-7d" d="M 800 -594 
L 1019 -594 
Q 1456 -594 1589 -459 
Q 1722 -325 1722 122 
L 1722 897 
Q 1722 1384 1862 1606 
Q 2003 1828 2350 1913 
Q 2003 1991 1862 2212 
Q 1722 2434 1722 2925 
L 1722 3700 
Q 1722 4144 1589 4280 
Q 1456 4416 1019 4416 
L 800 4416 
L 800 4863 
L 997 4863 
Q 1775 4863 2036 4633 
Q 2297 4403 2297 3713 
L 2297 2963 
Q 2297 2497 2465 2317 
Q 2634 2138 3078 2138 
L 3272 2138 
L 3272 1691 
L 3078 1691 
Q 2634 1691 2465 1509 
Q 2297 1328 2297 856 
L 2297 109 
Q 2297 -581 2036 -812 
Q 1775 -1044 997 -1044 
L 800 -1044 
L 800 -594 
z
" transform="scale(0.015625)"/>
     </defs>
     <use xlink:href="#DejaVuSans-7b"/>
     <use xlink:href="#DejaVuSans-42" x="63.623047"/>
     <use xlink:href="#DejaVuSans-7d" x="132.226562"/>
    </g>
   </g>
   <g id="text_2">
    <!-- {A} -->
    <g transform="translate(194.496267 202.450203)scale(0.1 -0.1)">
     <defs>
      <path id="DejaVuSans-41" d="M 2188 4044 
L 1331 1722 
L 3047 1722 
L 2188 4044 
z
M 1831 4666 
L 2547 4666 
L 4325 0 
L 3669 0 
L 3244 1197 
L 1141 1197 
L 716 0 
L 50 0 
L 1831 4666 
z
" transform="scale(0.015625)"/>
     </defs>
     <use xlink:href="#DejaVuSans-7b"/>
     <use xlink:href="#DejaVuSans-41" x="63.623047"/>
     <use xlink:href="#DejaVuSans-7d" x="132.03125"/>
    </g>
   </g>
   <g id="text_3">
    <!-- {A∪B} -->
    <g transform="translate(156.554008 110.759375)scale(0.1 -0.1)">
     <defs>
      <path id="DejaVuSans-222a" d="M 825 1856 
L 825 3706 
L 1363 3706 
L 1363 1934 
Q 1363 1172 1594 842 
Q 1825 513 2344 513 
Q 2859 513 3090 842 
Q 3322 1172 3322 1934 
L 3322 3706 
L 3859 3706 
L 3859 1856 
Q 3859 931 3476 465 
Q 3094 0 2344 0 
Q 1591 0 1208 465 
Q 825 931 825 1856 
z
" transform="scale(0.015625)"/>
     </defs>
     <use xlink:href="#DejaVuSans-7b"/>
     <use xlink:href="#DejaVuSans-41" x="63.623047"/>
     <use xlink:href="#DejaVuSans-222a" x="132.03125"/>
     <use xlink:href="#DejaVuSans-42" x="205.224609"/>
     <use xlink:href="#DejaVuSans-7d" x="273.828125"/>
    </g>
   </g>
   <g id="text_4">
    <!-- {M} -->
    <g transform="translate(162.540801 19.068547)scale(0.1 -0.1)">
     <defs>
      <path id="DejaVuSans-4d" d="M 628 4666 
L 1569 4666 
L 2759 1491 
L 3956 4666 
L 4897 4666 
L 4897 0 
L 4281 0 
L 4281 4097 
L 3078 897 
L 2444 897 
L 1241 4097 
L 1241 0 
L 628 0 
L 628 4666 
z
" transform="scale(0.015625)"/>
     </defs>
     <use xlink:href="#DejaVuSans-7b"/>
     <use xlink:href="#DejaVuSans-4d" x="63.623047"/>
     <use xlink:href="#DejaVuSans-7d" x="149.902344"/>
    </g>
   </g>
  </g>
  <g id="axes_2">
   <g id="patch_6">
    <path d="M 345.202466 203.358462 
L 460.28127 203.358462 
L 460.28127 12.641538 
L 345.202466 12.641538 
z
" style="fill: #ffffff"/>
   </g>
   <g id="matplotlib.axis_3"/>
   <g id="matplotlib.axis_4"/>
   <g id="patch_7">
    <path d="M 352.58408 147.580285 
Q 365.707852 130.924628 377.447711 116.025327 
" clip-path="url(#pf5ce4c2d4d)" style="fill: none; stroke: #000000; stroke-width: 2; stroke-linecap: round"/>
    <path d="M 367.33133 120.785457 
L 377.447711 116.025327 
L 375.185987 126.97451 
L 367.33133 120.785457 
z
" clip-path="url(#pf5ce4c2d4d)" style="stroke: #000000; stroke-width: 2; stroke-linecap: round"/>
   </g>
   <g id="patch_8">
    <path d="M 354.185007 195.469771 
Q 384.178594 176.767519 412.274756 159.24839 
" clip-path="url(#pf5ce4c2d4d)" style="fill: none; stroke: #000000; stroke-width: 2; stroke-linecap: round"/>
    <path d="M 401.143673 160.296708 
L 412.274756 159.24839 
L 406.434761 168.782247 
L 401.143673 160.296708 
z
" clip-path="url(#pf5ce4c2d4d)" style="stroke: #000000; stroke-width: 2; stroke-linecap: round"/>
   </g>
   <g id="patch_9">
    <path d="M 390.718848 195.494954 
Q 421.000166 176.768676 449.379691 159.218487 
" clip-path="url(#pf5ce4c2d4d)" style="fill: none; stroke: #000000; stroke-width: 2; stroke-linecap: round"/>
    <path d="M 438.244801 160.225575 
L 449.379691 159.218487 
L 443.504428 168.730652 
L 438.244801 160.225575 
z
" clip-path="url(#pf5ce4c2d4d)" style="stroke: #000000; stroke-width: 2; stroke-linecap: round"/>
   </g>
   <g id="patch_10">
    <path d="M 383.884938 145.867797 
Q 383.840075 130.925457 383.801925 118.219174 
" clip-path="url(#pf5ce4c2d4d)" style="fill: none; stroke: #000000; stroke-width: 2; stroke-linecap: round"/>
    <path d="M 378.831972 128.234141 
L 383.801925 118.219174 
L 388.831926 128.204117 
L 378.831972 128.234141 
z
" clip-path="url(#pf5ce4c2d4d)" style="stroke: #000000; stroke-width: 2; stroke-linecap: round"/>
   </g>
   <g id="patch_11">
    <path d="M 386.864317 100.643579 
Q 393.409545 85.076727 399.088091 71.57115 
" clip-path="url(#pf5ce4c2d4d)" style="fill: none; stroke: #000000; stroke-width: 2; stroke-linecap: round"/>
    <path d="M 390.603013 78.851497 
L 399.088091 71.57115 
L 399.821321 82.727421 
L 390.603013 78.851497 
z
" clip-path="url(#pf5ce4c2d4d)" style="stroke: #000000; stroke-width: 2; stroke-linecap: round"/>
   </g>
   <g id="patch_12">
    <path d="M 421.261937 191.713211 
Q 421.134798 176.770871 421.026685 164.064517 
" clip-path="url(#pf5ce4c2d4d)" style="fill: none; stroke: #000000; stroke-width: 2; stroke-linecap: round"/>
    <path d="M 416.111949 174.106697 
L 421.026685 164.064517 
L 426.111587 174.021614 
L 416.111949 174.106697 
z
" clip-path="url(#pf5ce4c2d4d)" style="stroke: #000000; stroke-width: 2; stroke-linecap: round"/>
   </g>
   <g id="patch_13">
    <path d="M 420.859779 145.867797 
Q 420.709973 130.920834 420.582577 118.209827 
" clip-path="url(#pf5ce4c2d4d)" style="fill: none; stroke: #000000; stroke-width: 2; stroke-linecap: round"/>
    <path d="M 415.683048 128.259434 
L 420.582577 118.209827 
L 425.682546 128.159214 
L 415.683048 128.259434 
z
" clip-path="url(#pf5ce4c2d4d)" style="stroke: #000000; stroke-width: 2; stroke-linecap: round"/>
   </g>
   <g id="patch_14">
    <path d="M 457.408041 191.713211 
Q 457.668622 176.766248 457.890225 164.055013 
" clip-path="url(#pf5ce4c2d4d)" style="fill: none; stroke: #000000; stroke-width: 2; stroke-linecap: round"/>
    <path d="M 452.716674 173.966339 
L 457.890225 164.055013 
L 462.715155 174.140649 
L 452.716674 173.966339 
z
" clip-path="url(#pf5ce4c2d4d)" style="stroke: #000000; stroke-width: 2; stroke-linecap: round"/>
   </g>
   <g id="patch_15">
    <path d="M 453.009532 147.675423 
Q 439.273336 130.921613 426.954866 115.896981 
" clip-path="url(#pf5ce4c2d4d)" style="fill: none; stroke: #000000; stroke-width: 2; stroke-linecap: round"/>
    <path d="M 429.428573 126.800227 
L 426.954866 115.896981 
L 437.161687 120.459963 
L 429.428573 126.800227 
z
" clip-path="url(#pf5ce4c2d4d)" style="stroke: #000000; stroke-width: 2; stroke-linecap: round"/>
   </g>
   <g id="patch_16">
    <path d="M 417.644641 100.542845 
Q 411.763948 85.077653 406.678009 71.702525 
" clip-path="url(#pf5ce4c2d4d)" style="fill: none; stroke: #000000; stroke-width: 2; stroke-linecap: round"/>
    <path d="M 405.558733 82.826698 
L 406.678009 71.702525 
L 414.905781 79.27245 
L 405.558733 82.826698 
z
" clip-path="url(#pf5ce4c2d4d)" style="stroke: #000000; stroke-width: 2; stroke-linecap: round"/>
   </g>
   <g id="patch_17">
    <path d="M 402.907906 54.176969 
Q 402.6466 39.230006 402.424379 26.518769 
" clip-path="url(#pf5ce4c2d4d)" style="fill: none; stroke: #000000; stroke-width: 2; stroke-linecap: round"/>
    <path d="M 397.599939 36.604639 
L 402.424379 26.518769 
L 407.598411 36.429843 
L 397.599939 36.604639 
z
" clip-path="url(#pf5ce4c2d4d)" style="stroke: #000000; stroke-width: 2; stroke-linecap: round"/>
   </g>
   <g id="PathCollection_2">
    <g>
     <use xlink:href="#m65164a3ae1" x="347.64749" y="153.845414" style="fill: #fec7b8; stroke: #000000"/>
     <use xlink:href="#m65164a3ae1" x="383.908891" y="153.845414" style="fill: #fec7b8; stroke: #000000"/>
     <use xlink:href="#m65164a3ae1" x="420.939735" y="153.845414" style="fill: #fec7b8; stroke: #000000"/>
     <use xlink:href="#m65164a3ae1" x="458.068216" y="153.845414" style="fill: #fec7b8; stroke: #000000"/>
     <use xlink:href="#m65164a3ae1" x="347.41552" y="199.690828" style="fill: #fec7b8; stroke: #000000"/>
     <use xlink:href="#m65164a3ae1" x="383.933912" y="199.690828" style="fill: #fec7b8; stroke: #000000"/>
     <use xlink:href="#m65164a3ae1" x="421.329815" y="199.690828" style="fill: #fec7b8; stroke: #000000"/>
     <use xlink:href="#m65164a3ae1" x="457.268962" y="199.690828" style="fill: #fec7b8; stroke: #000000"/>
     <use xlink:href="#m65164a3ae1" x="383.771242" y="108" style="fill: #fec7b8; stroke: #000000"/>
     <use xlink:href="#m65164a3ae1" x="420.48025" y="108" style="fill: #fec7b8; stroke: #000000"/>
     <use xlink:href="#m65164a3ae1" x="403.047373" y="62.154586" style="fill: #fec7b8; stroke: #000000"/>
     <use xlink:href="#m65164a3ae1" x="402.245893" y="16.309172" style="fill: #fec7b8; stroke: #000000"/>
    </g>
   </g>
   <g id="text_5">
    <!-- {S₅} -->
    <g transform="translate(336.106084 156.604789)scale(0.1 -0.1)">
     <defs>
      <path id="DejaVuSans-53" d="M 3425 4513 
L 3425 3897 
Q 3066 4069 2747 4153 
Q 2428 4238 2131 4238 
Q 1616 4238 1336 4038 
Q 1056 3838 1056 3469 
Q 1056 3159 1242 3001 
Q 1428 2844 1947 2747 
L 2328 2669 
Q 3034 2534 3370 2195 
Q 3706 1856 3706 1288 
Q 3706 609 3251 259 
Q 2797 -91 1919 -91 
Q 1588 -91 1214 -16 
Q 841 59 441 206 
L 441 856 
Q 825 641 1194 531 
Q 1563 422 1919 422 
Q 2459 422 2753 634 
Q 3047 847 3047 1241 
Q 3047 1584 2836 1778 
Q 2625 1972 2144 2069 
L 1759 2144 
Q 1053 2284 737 2584 
Q 422 2884 422 3419 
Q 422 4038 858 4394 
Q 1294 4750 2059 4750 
Q 2388 4750 2728 4690 
Q 3069 4631 3425 4513 
z
" transform="scale(0.015625)"/>
      <path id="DejaVuSans-2085" d="M 444 2609 
L 2038 2609 
L 2038 2312 
L 816 2312 
L 816 1675 
Q 903 1703 994 1715 
Q 1081 1728 1169 1728 
Q 1672 1728 1966 1487 
Q 2259 1250 2259 840 
Q 2259 418 1956 184 
Q 1656 -47 1106 -47 
Q 919 -47 722 -19 
Q 525 9 319 65 
L 319 418 
Q 497 334 691 290 
Q 884 250 1100 250 
Q 1447 250 1650 409 
Q 1853 568 1853 840 
Q 1853 1112 1650 1271 
Q 1447 1431 1100 1431 
Q 938 1431 775 1399 
Q 613 1368 444 1303 
L 444 2609 
z
" transform="scale(0.015625)"/>
     </defs>
     <use xlink:href="#DejaVuSans-7b"/>
     <use xlink:href="#DejaVuSans-53" x="63.623047"/>
     <use xlink:href="#DejaVuSans-2085" x="127.099609"/>
     <use xlink:href="#DejaVuSans-7d" x="167.1875"/>
    </g>
   </g>
   <g id="text_6">
    <!-- {S₄} -->
    <g transform="translate(335.874113 202.450203)scale(0.1 -0.1)">
     <defs>
      <path id="DejaVuSans-2084" d="M 1491 2231 
L 525 921 
L 1491 921 
L 1491 2231 
z
M 1422 2609 
L 1941 2609 
L 1941 921 
L 2363 921 
L 2363 581 
L 1941 581 
L 1941 0 
L 1491 0 
L 1491 581 
L 197 581 
L 197 959 
L 1422 2609 
z
" transform="scale(0.015625)"/>
     </defs>
     <use xlink:href="#DejaVuSans-7b"/>
     <use xlink:href="#DejaVuSans-53" x="63.623047"/>
     <use xlink:href="#DejaVuSans-2084" x="127.099609"/>
     <use xlink:href="#DejaVuSans-7d" x="167.1875"/>
    </g>
   </g>
   <g id="text_7">
    <!-- {S₃} -->
    <g transform="translate(372.392505 202.450203)scale(0.1 -0.1)">
     <defs>
      <path id="DejaVuSans-2083" d="M 1638 1412 
Q 1925 1356 2083 1185 
Q 2241 1015 2241 759 
Q 2241 371 1944 162 
Q 1647 -47 1094 -47 
Q 916 -47 720 -14 
Q 525 18 306 81 
L 306 459 
Q 469 375 655 334 
Q 841 293 1050 293 
Q 1391 293 1578 416 
Q 1766 540 1766 759 
Q 1766 990 1592 1109 
Q 1419 1228 1081 1228 
L 813 1228 
L 813 1565 
L 1106 1565 
Q 1400 1565 1551 1663 
Q 1703 1762 1703 1950 
Q 1703 2131 1547 2226 
Q 1391 2321 1094 2321 
Q 969 2321 809 2293 
Q 650 2265 397 2193 
L 397 2553 
Q 625 2606 825 2634 
Q 1025 2662 1197 2662 
Q 1647 2662 1911 2477 
Q 2175 2293 2175 1984 
Q 2175 1768 2034 1618 
Q 1894 1468 1638 1412 
z
" transform="scale(0.015625)"/>
     </defs>
     <use xlink:href="#DejaVuSans-7b"/>
     <use xlink:href="#DejaVuSans-53" x="63.623047"/>
     <use xlink:href="#DejaVuSans-2083" x="127.099609"/>
     <use xlink:href="#DejaVuSans-7d" x="167.1875"/>
    </g>
   </g>
   <g id="text_8">
    <!-- {S₂} -->
    <g transform="translate(372.367484 156.604789)scale(0.1 -0.1)">
     <defs>
      <path id="DejaVuSans-2082" d="M 838 356 
L 2163 356 
L 2163 0 
L 294 0 
L 294 343 
Q 400 440 597 615 
Q 1672 1568 1672 1862 
Q 1672 2068 1509 2194 
Q 1347 2321 1081 2321 
Q 919 2321 728 2266 
Q 538 2212 313 2103 
L 313 2487 
Q 553 2575 761 2618 
Q 969 2662 1147 2662 
Q 1600 2662 1872 2456 
Q 2144 2250 2144 1912 
Q 2144 1478 1109 590 
Q 934 440 838 356 
z
" transform="scale(0.015625)"/>
     </defs>
     <use xlink:href="#DejaVuSans-7b"/>
     <use xlink:href="#DejaVuSans-53" x="63.623047"/>
     <use xlink:href="#DejaVuSans-2082" x="127.099609"/>
     <use xlink:href="#DejaVuSans-7d" x="167.1875"/>
    </g>
   </g>
   <g id="text_9">
    <!-- {S₂∪S₅} -->
    <g transform="translate(363.391555 110.759375)scale(0.1 -0.1)">
     <use xlink:href="#DejaVuSans-7b"/>
     <use xlink:href="#DejaVuSans-53" x="63.623047"/>
     <use xlink:href="#DejaVuSans-2082" x="127.099609"/>
     <use xlink:href="#DejaVuSans-222a" x="167.1875"/>
     <use xlink:href="#DejaVuSans-53" x="240.380859"/>
     <use xlink:href="#DejaVuSans-2085" x="303.857422"/>
     <use xlink:href="#DejaVuSans-7d" x="343.945312"/>
    </g>
   </g>
   <g id="text_10">
    <!-- {S₁} -->
    <g transform="translate(409.788409 202.450203)scale(0.1 -0.1)">
     <defs>
      <path id="DejaVuSans-2081" d="M 488 343 
L 1125 343 
L 1125 2253 
L 428 2125 
L 428 2487 
L 1147 2609 
L 1575 2609 
L 1575 343 
L 2216 343 
L 2216 0 
L 488 0 
L 488 343 
z
" transform="scale(0.015625)"/>
     </defs>
     <use xlink:href="#DejaVuSans-7b"/>
     <use xlink:href="#DejaVuSans-53" x="63.623047"/>
     <use xlink:href="#DejaVuSans-2081" x="127.099609"/>
     <use xlink:href="#DejaVuSans-7d" x="167.1875"/>
    </g>
   </g>
   <g id="text_11">
    <!-- {S₁∪S₄} -->
    <g transform="translate(400.560047 156.604789)scale(0.1 -0.1)">
     <use xlink:href="#DejaVuSans-7b"/>
     <use xlink:href="#DejaVuSans-53" x="63.623047"/>
     <use xlink:href="#DejaVuSans-2081" x="127.099609"/>
     <use xlink:href="#DejaVuSans-222a" x="167.1875"/>
     <use xlink:href="#DejaVuSans-53" x="240.380859"/>
     <use xlink:href="#DejaVuSans-2084" x="303.857422"/>
     <use xlink:href="#DejaVuSans-7d" x="343.945312"/>
    </g>
   </g>
   <g id="text_12">
    <!-- {S₀} -->
    <g transform="translate(445.727556 202.450203)scale(0.1 -0.1)">
     <defs>
      <path id="DejaVuSans-2080" d="M 1781 2115 
Q 1625 2384 1309 2384 
Q 994 2384 838 2115 
Q 678 1846 678 1309 
Q 678 768 838 500 
Q 994 231 1309 231 
Q 1625 231 1781 500 
Q 1941 768 1941 1309 
Q 1941 1846 1781 2115 
z
M 1309 2662 
Q 1813 2662 2078 2315 
Q 2344 1968 2344 1309 
Q 2344 646 2078 299 
Q 1813 -47 1309 -47 
Q 803 -47 537 299 
Q 272 646 272 1309 
Q 272 1968 537 2315 
Q 803 2662 1309 2662 
z
" transform="scale(0.015625)"/>
     </defs>
     <use xlink:href="#DejaVuSans-7b"/>
     <use xlink:href="#DejaVuSans-53" x="63.623047"/>
     <use xlink:href="#DejaVuSans-2080" x="127.099609"/>
     <use xlink:href="#DejaVuSans-7d" x="167.1875"/>
    </g>
   </g>
   <g id="text_13">
    <!-- {S₀∪S₃} -->
    <g transform="translate(437.688528 156.604789)scale(0.1 -0.1)">
     <use xlink:href="#DejaVuSans-7b"/>
     <use xlink:href="#DejaVuSans-53" x="63.623047"/>
     <use xlink:href="#DejaVuSans-2080" x="127.099609"/>
     <use xlink:href="#DejaVuSans-222a" x="167.1875"/>
     <use xlink:href="#DejaVuSans-53" x="240.380859"/>
     <use xlink:href="#DejaVuSans-2083" x="303.857422"/>
     <use xlink:href="#DejaVuSans-7d" x="343.945312"/>
    </g>
   </g>
   <g id="text_14">
    <!-- {S₀∪S₃∪S₁∪S₄} -->
    <g transform="translate(382.424 110.759375)scale(0.1 -0.1)">
     <use xlink:href="#DejaVuSans-7b"/>
     <use xlink:href="#DejaVuSans-53" x="63.623047"/>
     <use xlink:href="#DejaVuSans-2080" x="127.099609"/>
     <use xlink:href="#DejaVuSans-222a" x="167.1875"/>
     <use xlink:href="#DejaVuSans-53" x="240.380859"/>
     <use xlink:href="#DejaVuSans-2083" x="303.857422"/>
     <use xlink:href="#DejaVuSans-222a" x="343.945312"/>
     <use xlink:href="#DejaVuSans-53" x="417.138672"/>
     <use xlink:href="#DejaVuSans-2081" x="480.615234"/>
     <use xlink:href="#DejaVuSans-222a" x="520.703125"/>
     <use xlink:href="#DejaVuSans-53" x="593.896484"/>
     <use xlink:href="#DejaVuSans-2084" x="657.373047"/>
     <use xlink:href="#DejaVuSans-7d" x="697.460938"/>
    </g>
   </g>
   <g id="text_15">
    <!-- {⋃ᵢSᵢ} -->
    <g transform="translate(387.621591 64.913961)scale(0.1 -0.1)">
     <defs>
      <path id="DejaVuSans-22c3" d="M 2625 -716 
Q 3309 -716 3790 -361 
Q 4272 -6 4272 781 
L 4272 4603 
L 4813 4603 
L 4813 703 
Q 4813 -303 4117 -765 
Q 3422 -1228 2625 -1228 
Q 1828 -1228 1133 -765 
Q 438 -303 438 703 
L 438 4603 
L 978 4603 
L 978 781 
Q 978 0 1454 -358 
Q 1931 -716 2625 -716 
z
" transform="scale(0.015625)"/>
      <path id="DejaVuSans-1d62" d="M 381 1959 
L 744 1959 
L 744 0 
L 381 0 
L 381 1959 
z
M 381 2721 
L 744 2721 
L 744 2315 
L 381 2315 
L 381 2721 
z
" transform="scale(0.015625)"/>
     </defs>
     <use xlink:href="#DejaVuSans-7b"/>
     <use xlink:href="#DejaVuSans-22c3" x="63.623047"/>
     <use xlink:href="#DejaVuSans-1d62" x="145.654297"/>
     <use xlink:href="#DejaVuSans-53" x="163.525391"/>
     <use xlink:href="#DejaVuSans-1d62" x="227.001953"/>
     <use xlink:href="#DejaVuSans-7d" x="244.873047"/>
    </g>
   </g>
   <g id="text_16">
    <!-- {T} -->
    <g transform="translate(392.829486 19.068547)scale(0.1 -0.1)">
     <defs>
      <path id="DejaVuSans-54" d="M -19 4666 
L 3928 4666 
L 3928 4134 
L 2272 4134 
L 2272 0 
L 1638 0 
L 1638 4134 
L -19 4134 
L -19 4666 
z
" transform="scale(0.015625)"/>
     </defs>
     <use xlink:href="#DejaVuSans-7b"/>
     <use xlink:href="#DejaVuSans-54" x="63.623047"/>
     <use xlink:href="#DejaVuSans-7d" x="124.707031"/>
    </g>
   </g>
  </g>
 </g>
 <defs>
  <clipPath id="pb82322fe53">
   <rect x="140.996348" y="12.641538" width="64.523569" height="190.716923"/>
  </clipPath>
  <clipPath id="pf5ce4c2d4d">
   <rect x="345.202466" y="12.641538" width="115.078804" height="190.716923"/>
  </clipPath>
 </defs>
</svg>
