<?xml version="1.0" encoding="utf-8" standalone="no"?>
<!DOCTYPE svg PUBLIC "-//W3C//DTD SVG 1.1//EN"
  "http://www.w3.org/Graphics/SVG/1.1/DTD/svg11.dtd">
<svg xmlns:xlink="http://www.w3.org/1999/xlink" width="576pt" height="216pt" viewBox="0 0 576 216" xmlns="http://www.w3.org/2000/svg" version="1.1">
 <metadata>
  <rdf:RDF xmlns:dc="http://purl.org/dc/elements/1.1/" xmlns:cc="http://creativecommons.org/ns#" xmlns:rdf="http://www.w3.org/1999/02/22-rdf-syntax-ns#">
   <cc:Work>
    <dc:type rdf:resource="http://purl.org/dc/dcmitype/StillImage"/>
    <dc:date>2023-12-06T17:48:08.124438</dc:date>
    <dc:format>image/svg+xml</dc:format>
    <dc:creator>
     <cc:Agent>
      <dc:title>Matplotlib v3.8.0, https://matplotlib.org/</dc:title>
     </cc:Agent>
    </dc:creator>
   </cc:Work>
  </rdf:RDF>
 </metadata>
 <defs>
  <style type="text/css">*{stroke-linejoin: round; stroke-linecap: butt}</style>
 </defs>
 <g id="figure_1">
  <g id="patch_1">
   <path d="M 0 216 
L 576 216 
L 576 0 
L 0 0 
z
" style="fill: #ffffff"/>
  </g>
  <g id="axes_1">
   <g id="patch_2">
    <path d="M 61.198168 203.307837 
L 156.428938 203.307837 
L 156.428938 12.641538 
L 61.198168 12.641538 
z
" style="fill: #ffffff"/>
   </g>
   <g id="matplotlib.axis_1"/>
   <g id="matplotlib.axis_2"/>
   <g id="patch_3">
    <path d="M 104.086909 192.465745 
Q 85.301729 153.808147 67.49386 117.161733 
" clip-path="url(#pab76c136ed)" style="fill: none; stroke: #000000; stroke-width: 2; stroke-linecap: round"/>
    <path d="M 67.367378 128.341358 
L 67.49386 117.161733 
L 76.361671 123.970693 
z
" clip-path="url(#pab76c136ed)" style="stroke: #000000; stroke-width: 2; stroke-linecap: round"/>
   </g>
   <g id="patch_4">
    <path d="M 107.656711 191.660083 
Q 108.050313 153.807816 108.420665 118.191496 
" clip-path="url(#pab76c136ed)" style="fill: none; stroke: #000000; stroke-width: 2; stroke-linecap: round"/>
    <path d="M 103.316957 128.138966 
L 108.420665 118.191496 
L 113.316416 128.242944 
z
" clip-path="url(#pab76c136ed)" style="stroke: #000000; stroke-width: 2; stroke-linecap: round"/>
   </g>
   <g id="patch_5">
    <path d="M 66.55292 100.81604 
Q 85.588532 62.140447 103.636705 25.471084 
" clip-path="url(#pab76c136ed)" style="fill: none; stroke: #000000; stroke-width: 2; stroke-linecap: round"/>
    <path d="M 94.73467 32.235237 
L 103.636705 25.471084 
L 103.706807 36.651204 
z
" clip-path="url(#pab76c136ed)" style="stroke: #000000; stroke-width: 2; stroke-linecap: round"/>
   </g>
   <g id="patch_6">
    <path d="M 108.493787 99.993593 
Q 108.336729 62.141326 108.188948 26.525108 
" clip-path="url(#pab76c136ed)" style="fill: none; stroke: #000000; stroke-width: 2; stroke-linecap: round"/>
    <path d="M 103.230483 36.545768 
L 108.188948 26.525108 
L 113.230397 36.504276 
z
" clip-path="url(#pab76c136ed)" style="stroke: #000000; stroke-width: 2; stroke-linecap: round"/>
   </g>
   <g id="patch_7">
    <path d="M 150.989854 100.855205 
Q 131.371865 62.141046 112.764615 25.421481 
" clip-path="url(#pab76c136ed)" style="fill: none; stroke: #000000; stroke-width: 2; stroke-linecap: round"/>
    <path d="M 112.824731 36.601659 
L 112.764615 25.421481 
L 121.744827 32.081495 
z
" clip-path="url(#pab76c136ed)" style="stroke: #000000; stroke-width: 2; stroke-linecap: round"/>
   </g>
   <g id="PathCollection_1">
    <defs>
     <path id="mb9b0d833c0" d="M 0 7.071068 
C 1.875269 7.071068 3.673985 6.326016 5 5 
C 6.326016 3.673985 7.071068 1.875269 7.071068 0 
C 7.071068 -1.875269 6.326016 -3.673985 5 -5 
C 3.673985 -6.326016 1.875269 -7.071068 0 -7.071068 
C -1.875269 -7.071068 -3.673985 -6.326016 -5 -5 
C -6.326016 -3.673985 -7.071068 -1.875269 -7.071068 0 
C -7.071068 1.875269 -6.326016 3.673985 -5 5 
C -3.673985 6.326016 -1.875269 7.071068 0 7.071068 
z
" style="stroke: #000000"/>
    </defs>
    <g>
     <use xlink:href="#mb9b0d833c0" x="107.573721" y="199.641177" style="fill: #fec7b8; stroke: #000000"/>
     <use xlink:href="#mb9b0d833c0" x="63.029529" y="107.974688" style="fill: #fec7b8; stroke: #000000"/>
     <use xlink:href="#mb9b0d833c0" x="108.526903" y="107.974688" style="fill: #fec7b8; stroke: #000000"/>
     <use xlink:href="#mb9b0d833c0" x="154.597577" y="107.974688" style="fill: #fec7b8; stroke: #000000"/>
     <use xlink:href="#mb9b0d833c0" x="108.146555" y="16.308198" style="fill: #fec7b8; stroke: #000000"/>
    </g>
   </g>
   <g id="text_1">
    <!-- {V1_inter_V2} -->
    <g transform="translate(71.358096 202.261489) scale(0.1 -0.1)">
     <defs>
      <path id="DejaVuSans-7b" d="M 3272 -594 
L 3272 -1044 
L 3078 -1044 
Q 2300 -1044 2036 -812 
Q 1772 -581 1772 109 
L 1772 856 
Q 1772 1328 1603 1509 
Q 1434 1691 991 1691 
L 800 1691 
L 800 2138 
L 991 2138 
Q 1438 2138 1605 2317 
Q 1772 2497 1772 2963 
L 1772 3713 
Q 1772 4403 2036 4633 
Q 2300 4863 3078 4863 
L 3272 4863 
L 3272 4416 
L 3059 4416 
Q 2619 4416 2484 4278 
Q 2350 4141 2350 3700 
L 2350 2925 
Q 2350 2434 2208 2212 
Q 2066 1991 1722 1913 
Q 2069 1828 2209 1606 
Q 2350 1384 2350 897 
L 2350 122 
Q 2350 -319 2484 -456 
Q 2619 -594 3059 -594 
L 3272 -594 
z
" transform="scale(0.015625)"/>
      <path id="DejaVuSans-56" d="M 1831 0 
L 50 4666 
L 709 4666 
L 2188 738 
L 3669 4666 
L 4325 4666 
L 2547 0 
L 1831 0 
z
" transform="scale(0.015625)"/>
      <path id="DejaVuSans-31" d="M 794 531 
L 1825 531 
L 1825 4091 
L 703 3866 
L 703 4441 
L 1819 4666 
L 2450 4666 
L 2450 531 
L 3481 531 
L 3481 0 
L 794 0 
L 794 531 
z
" transform="scale(0.015625)"/>
      <path id="DejaVuSans-5f" d="M 3263 -1063 
L 3263 -1509 
L -63 -1509 
L -63 -1063 
L 3263 -1063 
z
" transform="scale(0.015625)"/>
      <path id="DejaVuSans-69" d="M 603 3500 
L 1178 3500 
L 1178 0 
L 603 0 
L 603 3500 
z
M 603 4863 
L 1178 4863 
L 1178 4134 
L 603 4134 
L 603 4863 
z
" transform="scale(0.015625)"/>
      <path id="DejaVuSans-6e" d="M 3513 2113 
L 3513 0 
L 2938 0 
L 2938 2094 
Q 2938 2591 2744 2837 
Q 2550 3084 2163 3084 
Q 1697 3084 1428 2787 
Q 1159 2491 1159 1978 
L 1159 0 
L 581 0 
L 581 3500 
L 1159 3500 
L 1159 2956 
Q 1366 3272 1645 3428 
Q 1925 3584 2291 3584 
Q 2894 3584 3203 3211 
Q 3513 2838 3513 2113 
z
" transform="scale(0.015625)"/>
      <path id="DejaVuSans-74" d="M 1172 4494 
L 1172 3500 
L 2356 3500 
L 2356 3053 
L 1172 3053 
L 1172 1153 
Q 1172 725 1289 603 
Q 1406 481 1766 481 
L 2356 481 
L 2356 0 
L 1766 0 
Q 1100 0 847 248 
Q 594 497 594 1153 
L 594 3053 
L 172 3053 
L 172 3500 
L 594 3500 
L 594 4494 
L 1172 4494 
z
" transform="scale(0.015625)"/>
      <path id="DejaVuSans-65" d="M 3597 1894 
L 3597 1613 
L 953 1613 
Q 991 1019 1311 708 
Q 1631 397 2203 397 
Q 2534 397 2845 478 
Q 3156 559 3463 722 
L 3463 178 
Q 3153 47 2828 -22 
Q 2503 -91 2169 -91 
Q 1331 -91 842 396 
Q 353 884 353 1716 
Q 353 2575 817 3079 
Q 1281 3584 2069 3584 
Q 2775 3584 3186 3129 
Q 3597 2675 3597 1894 
z
M 3022 2063 
Q 3016 2534 2758 2815 
Q 2500 3097 2075 3097 
Q 1594 3097 1305 2825 
Q 1016 2553 972 2059 
L 3022 2063 
z
" transform="scale(0.015625)"/>
      <path id="DejaVuSans-72" d="M 2631 2963 
Q 2534 3019 2420 3045 
Q 2306 3072 2169 3072 
Q 1681 3072 1420 2755 
Q 1159 2438 1159 1844 
L 1159 0 
L 581 0 
L 581 3500 
L 1159 3500 
L 1159 2956 
Q 1341 3275 1631 3429 
Q 1922 3584 2338 3584 
Q 2397 3584 2469 3576 
Q 2541 3569 2628 3553 
L 2631 2963 
z
" transform="scale(0.015625)"/>
      <path id="DejaVuSans-32" d="M 1228 531 
L 3431 531 
L 3431 0 
L 469 0 
L 469 531 
Q 828 903 1448 1529 
Q 2069 2156 2228 2338 
Q 2531 2678 2651 2914 
Q 2772 3150 2772 3378 
Q 2772 3750 2511 3984 
Q 2250 4219 1831 4219 
Q 1534 4219 1204 4116 
Q 875 4013 500 3803 
L 500 4441 
Q 881 4594 1212 4672 
Q 1544 4750 1819 4750 
Q 2544 4750 2975 4387 
Q 3406 4025 3406 3419 
Q 3406 3131 3298 2873 
Q 3191 2616 2906 2266 
Q 2828 2175 2409 1742 
Q 1991 1309 1228 531 
z
" transform="scale(0.015625)"/>
      <path id="DejaVuSans-7d" d="M 800 -594 
L 1019 -594 
Q 1456 -594 1589 -459 
Q 1722 -325 1722 122 
L 1722 897 
Q 1722 1384 1862 1606 
Q 2003 1828 2350 1913 
Q 2003 1991 1862 2212 
Q 1722 2434 1722 2925 
L 1722 3700 
Q 1722 4144 1589 4280 
Q 1456 4416 1019 4416 
L 800 4416 
L 800 4863 
L 997 4863 
Q 1775 4863 2036 4633 
Q 2297 4403 2297 3713 
L 2297 2963 
Q 2297 2497 2465 2317 
Q 2634 2138 3078 2138 
L 3272 2138 
L 3272 1691 
L 3078 1691 
Q 2634 1691 2465 1509 
Q 2297 1328 2297 856 
L 2297 109 
Q 2297 -581 2036 -812 
Q 1775 -1044 997 -1044 
L 800 -1044 
L 800 -594 
z
" transform="scale(0.015625)"/>
     </defs>
     <use xlink:href="#DejaVuSans-7b"/>
     <use xlink:href="#DejaVuSans-56" x="63.623047"/>
     <use xlink:href="#DejaVuSans-31" x="132.03125"/>
     <use xlink:href="#DejaVuSans-5f" x="195.654297"/>
     <use xlink:href="#DejaVuSans-69" x="245.654297"/>
     <use xlink:href="#DejaVuSans-6e" x="273.4375"/>
     <use xlink:href="#DejaVuSans-74" x="336.816406"/>
     <use xlink:href="#DejaVuSans-65" x="376.025391"/>
     <use xlink:href="#DejaVuSans-72" x="437.548828"/>
     <use xlink:href="#DejaVuSans-5f" x="478.662109"/>
     <use xlink:href="#DejaVuSans-56" x="528.662109"/>
     <use xlink:href="#DejaVuSans-32" x="597.070312"/>
     <use xlink:href="#DejaVuSans-7d" x="660.693359"/>
    </g>
   </g>
   <g id="text_2">
    <!-- {V2} -->
    <g transform="translate(50.065467 110.734063) scale(0.1 -0.1)">
     <use xlink:href="#DejaVuSans-7b"/>
     <use xlink:href="#DejaVuSans-56" x="63.623047"/>
     <use xlink:href="#DejaVuSans-32" x="132.03125"/>
     <use xlink:href="#DejaVuSans-7d" x="195.654297"/>
    </g>
   </g>
   <g id="text_3">
    <!-- {V1} -->
    <g transform="translate(95.56284 110.734063) scale(0.1 -0.1)">
     <use xlink:href="#DejaVuSans-7b"/>
     <use xlink:href="#DejaVuSans-56" x="63.623047"/>
     <use xlink:href="#DejaVuSans-31" x="132.03125"/>
     <use xlink:href="#DejaVuSans-7d" x="195.654297"/>
    </g>
   </g>
   <g id="text_4">
    <!-- {U} -->
    <g transform="translate(144.575702 110.734063) scale(0.1 -0.1)">
     <defs>
      <path id="DejaVuSans-55" d="M 556 4666 
L 1191 4666 
L 1191 1831 
Q 1191 1081 1462 751 
Q 1734 422 2344 422 
Q 2950 422 3222 751 
Q 3494 1081 3494 1831 
L 3494 4666 
L 4128 4666 
L 4128 1753 
Q 4128 841 3676 375 
Q 3225 -91 2344 -91 
Q 1459 -91 1007 375 
Q 556 841 556 1753 
L 556 4666 
z
" transform="scale(0.015625)"/>
     </defs>
     <use xlink:href="#DejaVuSans-7b"/>
     <use xlink:href="#DejaVuSans-55" x="63.623047"/>
     <use xlink:href="#DejaVuSans-7d" x="136.816406"/>
    </g>
   </g>
   <g id="text_5">
    <!-- {M} -->
    <g transform="translate(97.469993 19.067573) scale(0.1 -0.1)">
     <defs>
      <path id="DejaVuSans-4d" d="M 628 4666 
L 1569 4666 
L 2759 1491 
L 3956 4666 
L 4897 4666 
L 4897 0 
L 4281 0 
L 4281 4097 
L 3078 897 
L 2444 897 
L 1241 4097 
L 1241 0 
L 628 0 
L 628 4666 
z
" transform="scale(0.015625)"/>
     </defs>
     <use xlink:href="#DejaVuSans-7b"/>
     <use xlink:href="#DejaVuSans-4d" x="63.623047"/>
     <use xlink:href="#DejaVuSans-7d" x="149.902344"/>
    </g>
   </g>
  </g>
  <g id="axes_2">
   <g id="patch_8">
    <path d="M 255.590539 203.307837 
L 320.409461 203.307837 
L 320.409461 12.641538 
L 255.590539 12.641538 
z
" style="fill: #ffffff"/>
   </g>
   <g id="matplotlib.axis_3"/>
   <g id="matplotlib.axis_4"/>
   <g id="patch_9">
    <path d="M 284.524332 192.543141 
Q 272.499869 169.085549 261.49542 147.617823 
" clip-path="url(#pfe793d6ea9)" style="fill: none; stroke: #000000; stroke-width: 2; stroke-linecap: round"/>
    <path d="M 261.607585 158.7976 
L 261.49542 147.617823 
L 270.506541 154.235957 
z
" clip-path="url(#pfe793d6ea9)" style="stroke: #000000; stroke-width: 2; stroke-linecap: round"/>
   </g>
   <g id="patch_10">
    <path d="M 291.771046 192.528221 
Q 303.662212 169.086996 314.541788 147.639933 
" clip-path="url(#pfe793d6ea9)" style="fill: none; stroke: #000000; stroke-width: 2; stroke-linecap: round"/>
    <path d="M 305.558735 154.296114 
L 314.541788 147.639933 
L 314.476901 158.820084 
z
" clip-path="url(#pfe793d6ea9)" style="stroke: #000000; stroke-width: 2; stroke-linecap: round"/>
   </g>
   <g id="patch_11">
    <path d="M 260.509702 131.447068 
Q 272.679407 107.9764 283.81983 86.490822 
" clip-path="url(#pfe793d6ea9)" style="fill: none; stroke: #000000; stroke-width: 2; stroke-linecap: round"/>
    <path d="M 274.777945 93.066864 
L 283.81983 86.490822 
L 283.655532 97.669955 
z
" clip-path="url(#pfe793d6ea9)" style="stroke: #000000; stroke-width: 2; stroke-linecap: round"/>
   </g>
   <g id="patch_12">
    <path d="M 315.585478 131.394849 
Q 303.842503 107.973222 293.101724 86.550495 
" clip-path="url(#pfe793d6ea9)" style="fill: none; stroke: #000000; stroke-width: 2; stroke-linecap: round"/>
    <path d="M 293.113999 97.730829 
L 293.101724 86.550495 
L 302.053356 93.248875 
z
" clip-path="url(#pfe793d6ea9)" style="stroke: #000000; stroke-width: 2; stroke-linecap: round"/>
   </g>
   <g id="patch_13">
    <path d="M 288.523867 69.440894 
Q 288.524811 46.865011 288.525662 26.525197 
" clip-path="url(#pfe793d6ea9)" style="fill: none; stroke: #000000; stroke-width: 2; stroke-linecap: round"/>
    <path d="M 283.525244 36.524987 
L 288.525662 26.525197 
L 293.525244 36.525406 
z
" clip-path="url(#pfe793d6ea9)" style="stroke: #000000; stroke-width: 2; stroke-linecap: round"/>
   </g>
   <g id="PathCollection_2">
    <g>
     <use xlink:href="#mb9b0d833c0" x="288.162816" y="199.641177" style="fill: #fec7b8; stroke: #000000"/>
     <use xlink:href="#mb9b0d833c0" x="256.837057" y="138.530184" style="fill: #fec7b8; stroke: #000000"/>
     <use xlink:href="#mb9b0d833c0" x="319.162943" y="138.530184" style="fill: #fec7b8; stroke: #000000"/>
     <use xlink:href="#mb9b0d833c0" x="288.523534" y="77.419191" style="fill: #fec7b8; stroke: #000000"/>
     <use xlink:href="#mb9b0d833c0" x="288.526089" y="16.308198" style="fill: #fec7b8; stroke: #000000"/>
    </g>
   </g>
   <g id="text_6">
    <!-- {V1_inter_V2} -->
    <g transform="translate(251.947191 202.261489) scale(0.1 -0.1)">
     <use xlink:href="#DejaVuSans-7b"/>
     <use xlink:href="#DejaVuSans-56" x="63.623047"/>
     <use xlink:href="#DejaVuSans-31" x="132.03125"/>
     <use xlink:href="#DejaVuSans-5f" x="195.654297"/>
     <use xlink:href="#DejaVuSans-69" x="245.654297"/>
     <use xlink:href="#DejaVuSans-6e" x="273.4375"/>
     <use xlink:href="#DejaVuSans-74" x="336.816406"/>
     <use xlink:href="#DejaVuSans-65" x="376.025391"/>
     <use xlink:href="#DejaVuSans-72" x="437.548828"/>
     <use xlink:href="#DejaVuSans-5f" x="478.662109"/>
     <use xlink:href="#DejaVuSans-56" x="528.662109"/>
     <use xlink:href="#DejaVuSans-32" x="597.070312"/>
     <use xlink:href="#DejaVuSans-7d" x="660.693359"/>
    </g>
   </g>
   <g id="text_7">
    <!-- {V2} -->
    <g transform="translate(243.872995 141.289559) scale(0.1 -0.1)">
     <use xlink:href="#DejaVuSans-7b"/>
     <use xlink:href="#DejaVuSans-56" x="63.623047"/>
     <use xlink:href="#DejaVuSans-32" x="132.03125"/>
     <use xlink:href="#DejaVuSans-7d" x="195.654297"/>
    </g>
   </g>
   <g id="text_8">
    <!-- {V1} -->
    <g transform="translate(306.19888 141.289559) scale(0.1 -0.1)">
     <use xlink:href="#DejaVuSans-7b"/>
     <use xlink:href="#DejaVuSans-56" x="63.623047"/>
     <use xlink:href="#DejaVuSans-31" x="132.03125"/>
     <use xlink:href="#DejaVuSans-7d" x="195.654297"/>
    </g>
   </g>
   <g id="text_9">
    <!-- {U} -->
    <g transform="translate(278.501659 80.178566) scale(0.1 -0.1)">
     <use xlink:href="#DejaVuSans-7b"/>
     <use xlink:href="#DejaVuSans-55" x="63.623047"/>
     <use xlink:href="#DejaVuSans-7d" x="136.816406"/>
    </g>
   </g>
   <g id="text_10">
    <!-- {M} -->
    <g transform="translate(277.849527 19.067573) scale(0.1 -0.1)">
     <use xlink:href="#DejaVuSans-7b"/>
     <use xlink:href="#DejaVuSans-4d" x="63.623047"/>
     <use xlink:href="#DejaVuSans-7d" x="149.902344"/>
    </g>
   </g>
  </g>
  <g id="axes_3">
   <g id="patch_14">
    <path d="M 466.256822 203.307837 
L 468.116073 203.307837 
L 468.116073 12.641538 
L 466.256822 12.641538 
z
" style="fill: #ffffff"/>
   </g>
   <g id="matplotlib.axis_5"/>
   <g id="matplotlib.axis_6"/>
   <g id="patch_15">
    <path d="M 466.370403 191.660083 
Q 467.186471 107.972208 467.980736 26.520294 
" clip-path="url(#pb4efa034fa)" style="fill: none; stroke: #000000; stroke-width: 2; stroke-linecap: round"/>
    <path d="M 462.883465 36.471065 
L 467.980736 26.520294 
L 472.88299 36.568573 
z
" clip-path="url(#pb4efa034fa)" style="stroke: #000000; stroke-width: 2; stroke-linecap: round"/>
   </g>
   <g id="PathCollection_3">
    <g>
     <use xlink:href="#mb9b0d833c0" x="466.292576" y="199.641177" style="fill: #fec7b8; stroke: #000000"/>
     <use xlink:href="#mb9b0d833c0" x="468.080318" y="16.308198" style="fill: #fec7b8; stroke: #000000"/>
    </g>
   </g>
   <g id="text_11">
    <!-- {U, V1, V1_inter_V2, V2} -->
    <g transform="translate(403.680076 202.261489) scale(0.1 -0.1)">
     <defs>
      <path id="DejaVuSans-2c" d="M 750 794 
L 1409 794 
L 1409 256 
L 897 -744 
L 494 -744 
L 750 256 
L 750 794 
z
" transform="scale(0.015625)"/>
      <path id="DejaVuSans-20" transform="scale(0.015625)"/>
     </defs>
     <use xlink:href="#DejaVuSans-7b"/>
     <use xlink:href="#DejaVuSans-55" x="63.623047"/>
     <use xlink:href="#DejaVuSans-2c" x="136.816406"/>
     <use xlink:href="#DejaVuSans-20" x="168.603516"/>
     <use xlink:href="#DejaVuSans-56" x="200.390625"/>
     <use xlink:href="#DejaVuSans-31" x="268.798828"/>
     <use xlink:href="#DejaVuSans-2c" x="332.421875"/>
     <use xlink:href="#DejaVuSans-20" x="364.208984"/>
     <use xlink:href="#DejaVuSans-56" x="395.996094"/>
     <use xlink:href="#DejaVuSans-31" x="464.404297"/>
     <use xlink:href="#DejaVuSans-5f" x="528.027344"/>
     <use xlink:href="#DejaVuSans-69" x="578.027344"/>
     <use xlink:href="#DejaVuSans-6e" x="605.810547"/>
     <use xlink:href="#DejaVuSans-74" x="669.189453"/>
     <use xlink:href="#DejaVuSans-65" x="708.398438"/>
     <use xlink:href="#DejaVuSans-72" x="769.921875"/>
     <use xlink:href="#DejaVuSans-5f" x="811.035156"/>
     <use xlink:href="#DejaVuSans-56" x="861.035156"/>
     <use xlink:href="#DejaVuSans-32" x="929.443359"/>
     <use xlink:href="#DejaVuSans-2c" x="993.066406"/>
     <use xlink:href="#DejaVuSans-20" x="1024.853516"/>
     <use xlink:href="#DejaVuSans-56" x="1056.640625"/>
     <use xlink:href="#DejaVuSans-32" x="1125.048828"/>
     <use xlink:href="#DejaVuSans-7d" x="1188.671875"/>
    </g>
   </g>
   <g id="text_12">
    <!-- {M} -->
    <g transform="translate(457.403755 19.067573) scale(0.1 -0.1)">
     <use xlink:href="#DejaVuSans-7b"/>
     <use xlink:href="#DejaVuSans-4d" x="63.623047"/>
     <use xlink:href="#DejaVuSans-7d" x="149.902344"/>
    </g>
   </g>
  </g>
 </g>
 <defs>
  <clipPath id="pab76c136ed">
   <rect x="61.198168" y="12.641538" width="95.230769" height="190.666298"/>
  </clipPath>
  <clipPath id="pfe793d6ea9">
   <rect x="255.590539" y="12.641538" width="64.818921" height="190.666298"/>
  </clipPath>
  <clipPath id="pb4efa034fa">
   <rect x="466.256822" y="12.641538" width="1.859251" height="190.666298"/>
  </clipPath>
 </defs>
</svg>
