<?xml version="1.0" encoding="utf-8" standalone="no"?>
<!DOCTYPE svg PUBLIC "-//W3C//DTD SVG 1.1//EN"
  "http://www.w3.org/Graphics/SVG/1.1/DTD/svg11.dtd">
<svg xmlns:xlink="http://www.w3.org/1999/xlink" width="576pt" height="216pt" viewBox="0 0 576 216" xmlns="http://www.w3.org/2000/svg" version="1.1">
 <metadata>
  <rdf:RDF xmlns:dc="http://purl.org/dc/elements/1.1/" xmlns:cc="http://creativecommons.org/ns#" xmlns:rdf="http://www.w3.org/1999/02/22-rdf-syntax-ns#">
   <cc:Work>
    <dc:type rdf:resource="http://purl.org/dc/dcmitype/StillImage"/>
    <dc:date>2023-12-06T17:48:07.346153</dc:date>
    <dc:format>image/svg+xml</dc:format>
    <dc:creator>
     <cc:Agent>
      <dc:title>Matplotlib v3.8.0, https://matplotlib.org/</dc:title>
     </cc:Agent>
    </dc:creator>
   </cc:Work>
  </rdf:RDF>
 </metadata>
 <defs>
  <style type="text/css">*{stroke-linejoin: round; stroke-linecap: butt}</style>
 </defs>
 <g id="figure_1">
  <g id="patch_1">
   <path d="M 0 216 
L 576 216 
L 576 0 
L 0 0 
z
" style="fill: #ffffff"/>
  </g>
  <g id="axes_1">
   <g id="patch_2">
    <path d="M 48.077101 203.307837 
L 162.626897 203.307837 
L 162.626897 12.641538 
L 48.077101 12.641538 
z
" style="fill: #ffffff"/>
   </g>
   <g id="matplotlib.axis_1"/>
   <g id="matplotlib.axis_2"/>
   <g id="patch_3">
    <path d="M 104.569813 191.66288 
Q 104.514325 169.086997 104.464332 148.747176 
" clip-path="url(#p7e247bf9dd)" style="fill: none; stroke: #000000; stroke-width: 2; stroke-linecap: round"/>
    <path d="M 99.488926 158.759435 
L 104.464332 148.747176 
L 109.488896 158.734856 
z
" clip-path="url(#p7e247bf9dd)" style="stroke: #000000; stroke-width: 2; stroke-linecap: round"/>
   </g>
   <g id="patch_4">
    <path d="M 55.587032 71.455051 
Q 77.47047 46.862126 97.86747 23.939681 
" clip-path="url(#p7e247bf9dd)" style="fill: none; stroke: #000000; stroke-width: 2; stroke-linecap: round"/>
    <path d="M 87.484612 28.08652 
L 97.86747 23.939681 
L 94.955226 34.73407 
z
" clip-path="url(#p7e247bf9dd)" style="stroke: #000000; stroke-width: 2; stroke-linecap: round"/>
   </g>
   <g id="patch_5">
    <path d="M 88.487285 69.784047 
Q 95.418438 46.863261 101.702359 26.082824 
" clip-path="url(#p7e247bf9dd)" style="fill: none; stroke: #000000; stroke-width: 2; stroke-linecap: round"/>
    <path d="M 94.021882 34.207496 
L 101.702359 26.082824 
L 103.59381 37.102008 
z
" clip-path="url(#p7e247bf9dd)" style="stroke: #000000; stroke-width: 2; stroke-linecap: round"/>
   </g>
   <g id="patch_6">
    <path d="M 106.730107 130.88758 
Q 113.598723 107.973255 119.825296 87.200842 
" clip-path="url(#p7e247bf9dd)" style="fill: none; stroke: #000000; stroke-width: 2; stroke-linecap: round"/>
    <path d="M 112.164538 95.344108 
L 119.825296 87.200842 
L 121.743455 98.215408 
z
" clip-path="url(#p7e247bf9dd)" style="stroke: #000000; stroke-width: 2; stroke-linecap: round"/>
   </g>
   <g id="patch_7">
    <path d="M 109.829602 132.646237 
Q 132.432496 107.973729 153.524916 84.95 
" clip-path="url(#p7e247bf9dd)" style="fill: none; stroke: #000000; stroke-width: 2; stroke-linecap: round"/>
    <path d="M 143.083094 88.946041 
L 153.524916 84.95 
L 150.456655 95.701083 
z
" clip-path="url(#p7e247bf9dd)" style="stroke: #000000; stroke-width: 2; stroke-linecap: round"/>
   </g>
   <g id="patch_8">
    <path d="M 120.491652 69.769127 
Q 113.708012 46.864526 107.559363 26.103936 
" clip-path="url(#p7e247bf9dd)" style="fill: none; stroke: #000000; stroke-width: 2; stroke-linecap: round"/>
    <path d="M 105.60497 37.112131 
L 107.559363 26.103936 
L 115.193283 34.272367 
z
" clip-path="url(#p7e247bf9dd)" style="stroke: #000000; stroke-width: 2; stroke-linecap: round"/>
   </g>
   <g id="patch_9">
    <path d="M 155.044504 71.524054 
Q 132.540718 46.863286 111.544185 23.85424 
" clip-path="url(#p7e247bf9dd)" style="fill: none; stroke: #000000; stroke-width: 2; stroke-linecap: round"/>
    <path d="M 114.591461 34.61129 
L 111.544185 23.85424 
L 121.97819 27.870649 
z
" clip-path="url(#p7e247bf9dd)" style="stroke: #000000; stroke-width: 2; stroke-linecap: round"/>
   </g>
   <g id="PathCollection_1">
    <defs>
     <path id="m0691a329bf" d="M 0 7.071068 
C 1.875269 7.071068 3.673985 6.326016 5 5 
C 6.326016 3.673985 7.071068 1.875269 7.071068 0 
C 7.071068 -1.875269 6.326016 -3.673985 5 -5 
C 3.673985 -6.326016 1.875269 -7.071068 0 -7.071068 
C -1.875269 -7.071068 -3.673985 -6.326016 -5 -5 
C -6.326016 -3.673985 -7.071068 -1.875269 -7.071068 0 
C -7.071068 1.875269 -6.326016 3.673985 -5 5 
C -3.673985 6.326016 -1.875269 7.071068 0 7.071068 
z
" style="stroke: #000000"/>
    </defs>
    <g>
     <use xlink:href="#m0691a329bf" x="104.589422" y="199.641177" style="fill: #fec7b8; stroke: #000000"/>
     <use xlink:href="#m0691a329bf" x="50.279982" y="77.419191" style="fill: #fec7b8; stroke: #000000"/>
     <use xlink:href="#m0691a329bf" x="86.178448" y="77.419191" style="fill: #fec7b8; stroke: #000000"/>
     <use xlink:href="#m0691a329bf" x="122.757366" y="77.419191" style="fill: #fec7b8; stroke: #000000"/>
     <use xlink:href="#m0691a329bf" x="160.424016" y="77.419191" style="fill: #fec7b8; stroke: #000000"/>
     <use xlink:href="#m0691a329bf" x="104.43922" y="138.530184" style="fill: #fec7b8; stroke: #000000"/>
     <use xlink:href="#m0691a329bf" x="104.658166" y="16.308198" style="fill: #fec7b8; stroke: #000000"/>
    </g>
   </g>
   <g id="text_1">
    <!-- {W} -->
    <g transform="translate(93.283172 202.400552) scale(0.1 -0.1)">
     <defs>
      <path id="DejaVuSans-7b" d="M 3272 -594 
L 3272 -1044 
L 3078 -1044 
Q 2300 -1044 2036 -812 
Q 1772 -581 1772 109 
L 1772 856 
Q 1772 1328 1603 1509 
Q 1434 1691 991 1691 
L 800 1691 
L 800 2138 
L 991 2138 
Q 1438 2138 1605 2317 
Q 1772 2497 1772 2963 
L 1772 3713 
Q 1772 4403 2036 4633 
Q 2300 4863 3078 4863 
L 3272 4863 
L 3272 4416 
L 3059 4416 
Q 2619 4416 2484 4278 
Q 2350 4141 2350 3700 
L 2350 2925 
Q 2350 2434 2208 2212 
Q 2066 1991 1722 1913 
Q 2069 1828 2209 1606 
Q 2350 1384 2350 897 
L 2350 122 
Q 2350 -319 2484 -456 
Q 2619 -594 3059 -594 
L 3272 -594 
z
" transform="scale(0.015625)"/>
      <path id="DejaVuSans-57" d="M 213 4666 
L 850 4666 
L 1831 722 
L 2809 4666 
L 3519 4666 
L 4500 722 
L 5478 4666 
L 6119 4666 
L 4947 0 
L 4153 0 
L 3169 4050 
L 2175 0 
L 1381 0 
L 213 4666 
z
" transform="scale(0.015625)"/>
      <path id="DejaVuSans-7d" d="M 800 -594 
L 1019 -594 
Q 1456 -594 1589 -459 
Q 1722 -325 1722 122 
L 1722 897 
Q 1722 1384 1862 1606 
Q 2003 1828 2350 1913 
Q 2003 1991 1862 2212 
Q 1722 2434 1722 2925 
L 1722 3700 
Q 1722 4144 1589 4280 
Q 1456 4416 1019 4416 
L 800 4416 
L 800 4863 
L 997 4863 
Q 1775 4863 2036 4633 
Q 2297 4403 2297 3713 
L 2297 2963 
Q 2297 2497 2465 2317 
Q 2634 2138 3078 2138 
L 3272 2138 
L 3272 1691 
L 3078 1691 
Q 2634 1691 2465 1509 
Q 2297 1328 2297 856 
L 2297 109 
Q 2297 -581 2036 -812 
Q 1775 -1044 997 -1044 
L 800 -1044 
L 800 -594 
z
" transform="scale(0.015625)"/>
     </defs>
     <use xlink:href="#DejaVuSans-7b"/>
     <use xlink:href="#DejaVuSans-57" x="63.623047"/>
     <use xlink:href="#DejaVuSans-7d" x="162.5"/>
    </g>
   </g>
   <g id="text_2">
    <!-- {V1} -->
    <g transform="translate(37.315919 80.178566) scale(0.1 -0.1)">
     <defs>
      <path id="DejaVuSans-56" d="M 1831 0 
L 50 4666 
L 709 4666 
L 2188 738 
L 3669 4666 
L 4325 4666 
L 2547 0 
L 1831 0 
z
" transform="scale(0.015625)"/>
      <path id="DejaVuSans-31" d="M 794 531 
L 1825 531 
L 1825 4091 
L 703 3866 
L 703 4441 
L 1819 4666 
L 2450 4666 
L 2450 531 
L 3481 531 
L 3481 0 
L 794 0 
L 794 531 
z
" transform="scale(0.015625)"/>
     </defs>
     <use xlink:href="#DejaVuSans-7b"/>
     <use xlink:href="#DejaVuSans-56" x="63.623047"/>
     <use xlink:href="#DejaVuSans-31" x="132.03125"/>
     <use xlink:href="#DejaVuSans-7d" x="195.654297"/>
    </g>
   </g>
   <g id="text_3">
    <!-- {V0} -->
    <g transform="translate(73.214385 80.178566) scale(0.1 -0.1)">
     <defs>
      <path id="DejaVuSans-30" d="M 2034 4250 
Q 1547 4250 1301 3770 
Q 1056 3291 1056 2328 
Q 1056 1369 1301 889 
Q 1547 409 2034 409 
Q 2525 409 2770 889 
Q 3016 1369 3016 2328 
Q 3016 3291 2770 3770 
Q 2525 4250 2034 4250 
z
M 2034 4750 
Q 2819 4750 3233 4129 
Q 3647 3509 3647 2328 
Q 3647 1150 3233 529 
Q 2819 -91 2034 -91 
Q 1250 -91 836 529 
Q 422 1150 422 2328 
Q 422 3509 836 4129 
Q 1250 4750 2034 4750 
z
" transform="scale(0.015625)"/>
     </defs>
     <use xlink:href="#DejaVuSans-7b"/>
     <use xlink:href="#DejaVuSans-56" x="63.623047"/>
     <use xlink:href="#DejaVuSans-30" x="132.03125"/>
     <use xlink:href="#DejaVuSans-7d" x="195.654297"/>
    </g>
   </g>
   <g id="text_4">
    <!-- {U_inter_V} -->
    <g transform="translate(74.347033 141.150496) scale(0.1 -0.1)">
     <defs>
      <path id="DejaVuSans-55" d="M 556 4666 
L 1191 4666 
L 1191 1831 
Q 1191 1081 1462 751 
Q 1734 422 2344 422 
Q 2950 422 3222 751 
Q 3494 1081 3494 1831 
L 3494 4666 
L 4128 4666 
L 4128 1753 
Q 4128 841 3676 375 
Q 3225 -91 2344 -91 
Q 1459 -91 1007 375 
Q 556 841 556 1753 
L 556 4666 
z
" transform="scale(0.015625)"/>
      <path id="DejaVuSans-5f" d="M 3263 -1063 
L 3263 -1509 
L -63 -1509 
L -63 -1063 
L 3263 -1063 
z
" transform="scale(0.015625)"/>
      <path id="DejaVuSans-69" d="M 603 3500 
L 1178 3500 
L 1178 0 
L 603 0 
L 603 3500 
z
M 603 4863 
L 1178 4863 
L 1178 4134 
L 603 4134 
L 603 4863 
z
" transform="scale(0.015625)"/>
      <path id="DejaVuSans-6e" d="M 3513 2113 
L 3513 0 
L 2938 0 
L 2938 2094 
Q 2938 2591 2744 2837 
Q 2550 3084 2163 3084 
Q 1697 3084 1428 2787 
Q 1159 2491 1159 1978 
L 1159 0 
L 581 0 
L 581 3500 
L 1159 3500 
L 1159 2956 
Q 1366 3272 1645 3428 
Q 1925 3584 2291 3584 
Q 2894 3584 3203 3211 
Q 3513 2838 3513 2113 
z
" transform="scale(0.015625)"/>
      <path id="DejaVuSans-74" d="M 1172 4494 
L 1172 3500 
L 2356 3500 
L 2356 3053 
L 1172 3053 
L 1172 1153 
Q 1172 725 1289 603 
Q 1406 481 1766 481 
L 2356 481 
L 2356 0 
L 1766 0 
Q 1100 0 847 248 
Q 594 497 594 1153 
L 594 3053 
L 172 3053 
L 172 3500 
L 594 3500 
L 594 4494 
L 1172 4494 
z
" transform="scale(0.015625)"/>
      <path id="DejaVuSans-65" d="M 3597 1894 
L 3597 1613 
L 953 1613 
Q 991 1019 1311 708 
Q 1631 397 2203 397 
Q 2534 397 2845 478 
Q 3156 559 3463 722 
L 3463 178 
Q 3153 47 2828 -22 
Q 2503 -91 2169 -91 
Q 1331 -91 842 396 
Q 353 884 353 1716 
Q 353 2575 817 3079 
Q 1281 3584 2069 3584 
Q 2775 3584 3186 3129 
Q 3597 2675 3597 1894 
z
M 3022 2063 
Q 3016 2534 2758 2815 
Q 2500 3097 2075 3097 
Q 1594 3097 1305 2825 
Q 1016 2553 972 2059 
L 3022 2063 
z
" transform="scale(0.015625)"/>
      <path id="DejaVuSans-72" d="M 2631 2963 
Q 2534 3019 2420 3045 
Q 2306 3072 2169 3072 
Q 1681 3072 1420 2755 
Q 1159 2438 1159 1844 
L 1159 0 
L 581 0 
L 581 3500 
L 1159 3500 
L 1159 2956 
Q 1341 3275 1631 3429 
Q 1922 3584 2338 3584 
Q 2397 3584 2469 3576 
Q 2541 3569 2628 3553 
L 2631 2963 
z
" transform="scale(0.015625)"/>
     </defs>
     <use xlink:href="#DejaVuSans-7b"/>
     <use xlink:href="#DejaVuSans-55" x="63.623047"/>
     <use xlink:href="#DejaVuSans-5f" x="136.816406"/>
     <use xlink:href="#DejaVuSans-69" x="186.816406"/>
     <use xlink:href="#DejaVuSans-6e" x="214.599609"/>
     <use xlink:href="#DejaVuSans-74" x="277.978516"/>
     <use xlink:href="#DejaVuSans-65" x="317.1875"/>
     <use xlink:href="#DejaVuSans-72" x="378.710938"/>
     <use xlink:href="#DejaVuSans-5f" x="419.824219"/>
     <use xlink:href="#DejaVuSans-56" x="469.824219"/>
     <use xlink:href="#DejaVuSans-7d" x="538.232422"/>
    </g>
   </g>
   <g id="text_5">
    <!-- {V} -->
    <g transform="translate(112.974554 80.178566) scale(0.1 -0.1)">
     <use xlink:href="#DejaVuSans-7b"/>
     <use xlink:href="#DejaVuSans-56" x="63.623047"/>
     <use xlink:href="#DejaVuSans-7d" x="132.03125"/>
    </g>
   </g>
   <g id="text_6">
    <!-- {U} -->
    <g transform="translate(150.402141 80.178566) scale(0.1 -0.1)">
     <use xlink:href="#DejaVuSans-7b"/>
     <use xlink:href="#DejaVuSans-55" x="63.623047"/>
     <use xlink:href="#DejaVuSans-7d" x="136.816406"/>
    </g>
   </g>
   <g id="text_7">
    <!-- {M} -->
    <g transform="translate(93.981604 19.067573) scale(0.1 -0.1)">
     <defs>
      <path id="DejaVuSans-4d" d="M 628 4666 
L 1569 4666 
L 2759 1491 
L 3956 4666 
L 4897 4666 
L 4897 0 
L 4281 0 
L 4281 4097 
L 3078 897 
L 2444 897 
L 1241 4097 
L 1241 0 
L 628 0 
L 628 4666 
z
" transform="scale(0.015625)"/>
     </defs>
     <use xlink:href="#DejaVuSans-7b"/>
     <use xlink:href="#DejaVuSans-4d" x="63.623047"/>
     <use xlink:href="#DejaVuSans-7d" x="149.902344"/>
    </g>
   </g>
  </g>
  <g id="axes_2">
   <g id="patch_10">
    <path d="M 256.312371 203.307837 
L 319.687629 203.307837 
L 319.687629 12.641538 
L 256.312371 12.641538 
z
" style="fill: #ffffff"/>
   </g>
   <g id="matplotlib.axis_3"/>
   <g id="matplotlib.axis_4"/>
   <g id="patch_11">
    <path d="M 288.699625 191.66288 
Q 288.332242 169.086997 288.001242 148.746886 
" clip-path="url(#p65188be62f)" style="fill: none; stroke: #000000; stroke-width: 2; stroke-linecap: round"/>
    <path d="M 283.164615 158.826918 
L 288.001242 148.746886 
L 293.163291 158.664207 
z
" clip-path="url(#p65188be62f)" style="stroke: #000000; stroke-width: 2; stroke-linecap: round"/>
   </g>
   <g id="patch_12">
    <path d="M 284.289299 131.379929 
Q 272.683039 107.974657 262.070175 86.572673 
" clip-path="url(#p65188be62f)" style="fill: none; stroke: #000000; stroke-width: 2; stroke-linecap: round"/>
    <path d="M 262.033285 97.752952 
L 262.070175 86.572673 
L 270.992264 93.310353 
z
" clip-path="url(#p65188be62f)" style="stroke: #000000; stroke-width: 2; stroke-linecap: round"/>
   </g>
   <g id="patch_13">
    <path d="M 291.411804 131.394849 
Q 303.152663 107.973222 313.891471 86.550568 
" clip-path="url(#p65188be62f)" style="fill: none; stroke: #000000; stroke-width: 2; stroke-linecap: round"/>
    <path d="M 304.940323 93.249594 
L 313.891471 86.550568 
L 313.880003 97.730902 
z
" clip-path="url(#p65188be62f)" style="stroke: #000000; stroke-width: 2; stroke-linecap: round"/>
   </g>
   <g id="patch_14">
    <path d="M 261.019027 70.239097 
Q 272.37441 46.863225 282.752749 25.498668 
" clip-path="url(#p65188be62f)" style="fill: none; stroke: #000000; stroke-width: 2; stroke-linecap: round"/>
    <path d="M 273.885841 32.308804 
L 282.752749 25.498668 
L 282.880713 36.678276 
z
" clip-path="url(#p65188be62f)" style="stroke: #000000; stroke-width: 2; stroke-linecap: round"/>
   </g>
   <g id="patch_15">
    <path d="M 314.835184 70.313695 
Q 302.842516 46.862639 291.867949 25.402429 
" clip-path="url(#p65188be62f)" style="fill: none; stroke: #000000; stroke-width: 2; stroke-linecap: round"/>
    <path d="M 291.96937 36.582308 
L 291.867949 25.402429 
L 300.872706 32.029219 
z
" clip-path="url(#p65188be62f)" style="stroke: #000000; stroke-width: 2; stroke-linecap: round"/>
   </g>
   <g id="PathCollection_2">
    <g>
     <use xlink:href="#m0691a329bf" x="288.829458" y="199.641177" style="fill: #fec7b8; stroke: #000000"/>
     <use xlink:href="#m0691a329bf" x="287.834983" y="138.530184" style="fill: #fec7b8; stroke: #000000"/>
     <use xlink:href="#m0691a329bf" x="257.531126" y="77.419191" style="fill: #fec7b8; stroke: #000000"/>
     <use xlink:href="#m0691a329bf" x="318.468874" y="77.419191" style="fill: #fec7b8; stroke: #000000"/>
     <use xlink:href="#m0691a329bf" x="287.217238" y="16.308198" style="fill: #fec7b8; stroke: #000000"/>
    </g>
   </g>
   <g id="text_8">
    <!-- {W} -->
    <g transform="translate(277.523208 202.400552) scale(0.1 -0.1)">
     <use xlink:href="#DejaVuSans-7b"/>
     <use xlink:href="#DejaVuSans-57" x="63.623047"/>
     <use xlink:href="#DejaVuSans-7d" x="162.5"/>
    </g>
   </g>
   <g id="text_9">
    <!-- {U_inter_V} -->
    <g transform="translate(257.742795 141.150496) scale(0.1 -0.1)">
     <use xlink:href="#DejaVuSans-7b"/>
     <use xlink:href="#DejaVuSans-55" x="63.623047"/>
     <use xlink:href="#DejaVuSans-5f" x="136.816406"/>
     <use xlink:href="#DejaVuSans-69" x="186.816406"/>
     <use xlink:href="#DejaVuSans-6e" x="214.599609"/>
     <use xlink:href="#DejaVuSans-74" x="277.978516"/>
     <use xlink:href="#DejaVuSans-65" x="317.1875"/>
     <use xlink:href="#DejaVuSans-72" x="378.710938"/>
     <use xlink:href="#DejaVuSans-5f" x="419.824219"/>
     <use xlink:href="#DejaVuSans-56" x="469.824219"/>
     <use xlink:href="#DejaVuSans-7d" x="538.232422"/>
    </g>
   </g>
   <g id="text_10">
    <!-- {V, V0, V1} -->
    <g transform="translate(228.188939 80.178566) scale(0.1 -0.1)">
     <defs>
      <path id="DejaVuSans-2c" d="M 750 794 
L 1409 794 
L 1409 256 
L 897 -744 
L 494 -744 
L 750 256 
L 750 794 
z
" transform="scale(0.015625)"/>
      <path id="DejaVuSans-20" transform="scale(0.015625)"/>
     </defs>
     <use xlink:href="#DejaVuSans-7b"/>
     <use xlink:href="#DejaVuSans-56" x="63.623047"/>
     <use xlink:href="#DejaVuSans-2c" x="132.03125"/>
     <use xlink:href="#DejaVuSans-20" x="163.818359"/>
     <use xlink:href="#DejaVuSans-56" x="195.605469"/>
     <use xlink:href="#DejaVuSans-30" x="264.013672"/>
     <use xlink:href="#DejaVuSans-2c" x="327.636719"/>
     <use xlink:href="#DejaVuSans-20" x="359.423828"/>
     <use xlink:href="#DejaVuSans-56" x="391.210938"/>
     <use xlink:href="#DejaVuSans-31" x="459.619141"/>
     <use xlink:href="#DejaVuSans-7d" x="523.242188"/>
    </g>
   </g>
   <g id="text_11">
    <!-- {U} -->
    <g transform="translate(308.446999 80.178566) scale(0.1 -0.1)">
     <use xlink:href="#DejaVuSans-7b"/>
     <use xlink:href="#DejaVuSans-55" x="63.623047"/>
     <use xlink:href="#DejaVuSans-7d" x="136.816406"/>
    </g>
   </g>
   <g id="text_12">
    <!-- {M} -->
    <g transform="translate(276.540675 19.067573) scale(0.1 -0.1)">
     <use xlink:href="#DejaVuSans-7b"/>
     <use xlink:href="#DejaVuSans-4d" x="63.623047"/>
     <use xlink:href="#DejaVuSans-7d" x="149.902344"/>
    </g>
   </g>
  </g>
  <g id="axes_3">
   <g id="patch_16">
    <path d="M 469.75591 203.307837 
L 471.540092 203.307837 
L 471.540092 12.641538 
L 469.75591 12.641538 
z
" style="fill: #ffffff"/>
   </g>
   <g id="matplotlib.axis_5"/>
   <g id="matplotlib.axis_6"/>
   <g id="patch_17">
    <path d="M 471.356518 191.665678 
Q 470.648009 153.808326 469.981341 118.186651 
" clip-path="url(#p39755bbed9)" style="fill: none; stroke: #000000; stroke-width: 2; stroke-linecap: round"/>
    <path d="M 465.169336 128.27846 
L 469.981341 118.186651 
L 475.167585 128.09134 
z
" clip-path="url(#p39755bbed9)" style="stroke: #000000; stroke-width: 2; stroke-linecap: round"/>
   </g>
   <g id="patch_18">
    <path d="M 469.870081 99.993593 
Q 470.248833 62.141326 470.605213 26.525015 
" clip-path="url(#p39755bbed9)" style="fill: none; stroke: #000000; stroke-width: 2; stroke-linecap: round"/>
    <path d="M 465.505407 36.474487 
L 470.605213 26.525015 
L 475.504907 36.574543 
z
" clip-path="url(#p39755bbed9)" style="stroke: #000000; stroke-width: 2; stroke-linecap: round"/>
   </g>
   <g id="PathCollection_3">
    <g>
     <use xlink:href="#m0691a329bf" x="471.505781" y="199.641177" style="fill: #fec7b8; stroke: #000000"/>
     <use xlink:href="#m0691a329bf" x="469.790221" y="107.974688" style="fill: #fec7b8; stroke: #000000"/>
     <use xlink:href="#m0691a329bf" x="470.707443" y="16.308198" style="fill: #fec7b8; stroke: #000000"/>
    </g>
   </g>
   <g id="text_13">
    <!-- {U, U_inter_V, W} -->
    <g transform="translate(426.454219 202.261489) scale(0.1 -0.1)">
     <use xlink:href="#DejaVuSans-7b"/>
     <use xlink:href="#DejaVuSans-55" x="63.623047"/>
     <use xlink:href="#DejaVuSans-2c" x="136.816406"/>
     <use xlink:href="#DejaVuSans-20" x="168.603516"/>
     <use xlink:href="#DejaVuSans-55" x="200.390625"/>
     <use xlink:href="#DejaVuSans-5f" x="273.583984"/>
     <use xlink:href="#DejaVuSans-69" x="323.583984"/>
     <use xlink:href="#DejaVuSans-6e" x="351.367188"/>
     <use xlink:href="#DejaVuSans-74" x="414.746094"/>
     <use xlink:href="#DejaVuSans-65" x="453.955078"/>
     <use xlink:href="#DejaVuSans-72" x="515.478516"/>
     <use xlink:href="#DejaVuSans-5f" x="556.591797"/>
     <use xlink:href="#DejaVuSans-56" x="606.591797"/>
     <use xlink:href="#DejaVuSans-2c" x="675"/>
     <use xlink:href="#DejaVuSans-20" x="706.787109"/>
     <use xlink:href="#DejaVuSans-57" x="738.574219"/>
     <use xlink:href="#DejaVuSans-7d" x="837.451172"/>
    </g>
   </g>
   <g id="text_14">
    <!-- {V, V0, V1} -->
    <g transform="translate(440.448034 110.734063) scale(0.1 -0.1)">
     <use xlink:href="#DejaVuSans-7b"/>
     <use xlink:href="#DejaVuSans-56" x="63.623047"/>
     <use xlink:href="#DejaVuSans-2c" x="132.03125"/>
     <use xlink:href="#DejaVuSans-20" x="163.818359"/>
     <use xlink:href="#DejaVuSans-56" x="195.605469"/>
     <use xlink:href="#DejaVuSans-30" x="264.013672"/>
     <use xlink:href="#DejaVuSans-2c" x="327.636719"/>
     <use xlink:href="#DejaVuSans-20" x="359.423828"/>
     <use xlink:href="#DejaVuSans-56" x="391.210938"/>
     <use xlink:href="#DejaVuSans-31" x="459.619141"/>
     <use xlink:href="#DejaVuSans-7d" x="523.242188"/>
    </g>
   </g>
   <g id="text_15">
    <!-- {M} -->
    <g transform="translate(460.030881 19.067573) scale(0.1 -0.1)">
     <use xlink:href="#DejaVuSans-7b"/>
     <use xlink:href="#DejaVuSans-4d" x="63.623047"/>
     <use xlink:href="#DejaVuSans-7d" x="149.902344"/>
    </g>
   </g>
  </g>
 </g>
 <defs>
  <clipPath id="p7e247bf9dd">
   <rect x="48.077101" y="12.641538" width="114.549795" height="190.666298"/>
  </clipPath>
  <clipPath id="p65188be62f">
   <rect x="256.312371" y="12.641538" width="63.375257" height="190.666298"/>
  </clipPath>
  <clipPath id="p39755bbed9">
   <rect x="469.75591" y="12.641538" width="1.784182" height="190.666298"/>
  </clipPath>
 </defs>
</svg>
