<?xml version="1.0" encoding="utf-8" standalone="no"?>
<!DOCTYPE svg PUBLIC "-//W3C//DTD SVG 1.1//EN"
  "http://www.w3.org/Graphics/SVG/1.1/DTD/svg11.dtd">
<svg xmlns:xlink="http://www.w3.org/1999/xlink" width="576pt" height="360pt" viewBox="0 0 576 360" xmlns="http://www.w3.org/2000/svg" version="1.1">
 <metadata>
  <rdf:RDF xmlns:dc="http://purl.org/dc/elements/1.1/" xmlns:cc="http://creativecommons.org/ns#" xmlns:rdf="http://www.w3.org/1999/02/22-rdf-syntax-ns#">
   <cc:Work>
    <dc:type rdf:resource="http://purl.org/dc/dcmitype/StillImage"/>
    <dc:date>2024-03-20T18:59:43.487062</dc:date>
    <dc:format>image/svg+xml</dc:format>
    <dc:creator>
     <cc:Agent>
      <dc:title>Matplotlib v3.8.0, https://matplotlib.org/</dc:title>
     </cc:Agent>
    </dc:creator>
   </cc:Work>
  </rdf:RDF>
 </metadata>
 <defs>
  <style type="text/css">*{stroke-linejoin: round; stroke-linecap: butt}</style>
 </defs>
 <g id="figure_1">
  <g id="patch_1">
   <path d="M 0 360 
L 576 360 
L 576 0 
L 0 0 
z
" style="fill: #ffffff"/>
  </g>
  <g id="axes_1">
   <g id="patch_2">
    <path d="M 10.8 303.39518 
L 295.669393 303.39518 
L 295.669393 56.60482 
L 10.8 56.60482 
z
" style="fill: #ffffff"/>
   </g>
   <g id="patch_3">
    <path d="M 46.322014 162.057789 
Q 73.536121 168.410332 65.843606 192.942162 
" clip-path="url(#pd2df54ef29)" style="fill: none; stroke: #000000; stroke-width: 2; stroke-linecap: round"/>
    <path d="M 73.606621 184.896318 
L 65.843606 192.942162 
L 64.06474 181.904244 
z
" clip-path="url(#pd2df54ef29)" style="stroke: #000000; stroke-width: 2; stroke-linecap: round"/>
   </g>
   <g id="patch_4">
    <path d="M 32.340534 171.792521 
Q 24.648018 196.32435 51.862126 202.676893 
" clip-path="url(#pd2df54ef29)" style="fill: none; stroke: #000000; stroke-width: 2; stroke-linecap: round"/>
    <path d="M 24.577519 179.838364 
L 32.340534 171.792521 
L 34.119399 182.830439 
z
" clip-path="url(#pd2df54ef29)" style="stroke: #000000; stroke-width: 2; stroke-linecap: round"/>
   </g>
   <g id="patch_5">
    <path d="M 46.576165 159.040493 
Q 71.634184 157.503615 64.505258 135.774113 
" clip-path="url(#pd2df54ef29)" style="fill: none; stroke: #000000; stroke-width: 2; stroke-linecap: round"/>
    <path d="M 62.871685 146.834467 
L 64.505258 135.774113 
L 72.373397 143.717184 
z
" clip-path="url(#pd2df54ef29)" style="stroke: #000000; stroke-width: 2; stroke-linecap: round"/>
   </g>
   <g id="patch_6">
    <path d="M 32.181602 147.619795 
Q 25.052676 125.890292 50.110696 124.353415 
" clip-path="url(#pd2df54ef29)" style="fill: none; stroke: #000000; stroke-width: 2; stroke-linecap: round"/>
    <path d="M 33.815176 136.559441 
L 32.181602 147.619795 
L 24.313463 139.676724 
z
" clip-path="url(#pd2df54ef29)" style="stroke: #000000; stroke-width: 2; stroke-linecap: round"/>
   </g>
   <g id="patch_7">
    <path d="M 67.836897 196.346747 
Q 89.440247 163.865584 67.962159 134.016511 
" clip-path="url(#pd2df54ef29)" style="fill: none; stroke: #000000; stroke-width: 2; stroke-linecap: round"/>
    <path d="M 69.744308 145.053899 
L 67.962159 134.016511 
L 77.861359 139.213224 
z
" clip-path="url(#pd2df54ef29)" style="stroke: #000000; stroke-width: 2; stroke-linecap: round"/>
   </g>
   <g id="patch_8">
    <path d="M 54.631876 194.75075 
Q 33.153787 164.901677 54.757137 132.420514 
" clip-path="url(#pd2df54ef29)" style="fill: none; stroke: #000000; stroke-width: 2; stroke-linecap: round"/>
    <path d="M 52.849726 183.713362 
L 54.631876 194.75075 
L 44.732675 189.554037 
z
" clip-path="url(#pd2df54ef29)" style="stroke: #000000; stroke-width: 2; stroke-linecap: round"/>
   </g>
   <g id="matplotlib.axis_1"/>
   <g id="matplotlib.axis_2"/>
   <g id="patch_9">
    <path d="M 46.440012 157.882465 
Q 76.797629 152.583344 104.952485 147.66873 
" clip-path="url(#pd2df54ef29)" style="fill: none; stroke: #000000; stroke-width: 2; stroke-linecap: round"/>
    <path d="M 94.241658 144.462771 
L 104.952485 147.66873 
L 95.961222 154.313817 
z
" clip-path="url(#pd2df54ef29)" style="stroke: #000000; stroke-width: 2; stroke-linecap: round"/>
   </g>
   <g id="patch_10">
    <path d="M 108.811357 154.780012 
Q 89.751216 175.270021 69.168095 197.397263 
" clip-path="url(#pd2df54ef29)" style="fill: none; stroke: #000000; stroke-width: 2; stroke-linecap: round"/>
    <path d="M 98.339418 158.696451 
L 108.811357 154.780012 
L 105.661344 165.507426 
z
" clip-path="url(#pd2df54ef29)" style="stroke: #000000; stroke-width: 2; stroke-linecap: round"/>
   </g>
   <g id="patch_11">
    <path d="M 57.957688 214.679169 
Q 44.390605 246.622967 31.697646 276.508633 
" clip-path="url(#pd2df54ef29)" style="fill: none; stroke: #000000; stroke-width: 2; stroke-linecap: round"/>
    <path d="M 40.208971 269.258988 
L 31.697646 276.508633 
L 31.004725 265.349786 
z
" clip-path="url(#pd2df54ef29)" style="stroke: #000000; stroke-width: 2; stroke-linecap: round"/>
   </g>
   <g id="patch_12">
    <path d="M 129.020844 140.252116 
Q 161.423159 125.586799 195.862604 109.999474 
" clip-path="url(#pd2df54ef29)" style="fill: none; stroke: #000000; stroke-width: 2; stroke-linecap: round"/>
    <path d="M 140.192842 140.683937 
L 129.020844 140.252116 
L 136.069499 131.573611 
z
" clip-path="url(#pd2df54ef29)" style="stroke: #000000; stroke-width: 2; stroke-linecap: round"/>
   </g>
   <g id="patch_13">
    <path d="M 105.601468 140.950261 
Q 89.002577 134.599634 70.31525 127.449985 
" clip-path="url(#pd2df54ef29)" style="fill: none; stroke: #000000; stroke-width: 2; stroke-linecap: round"/>
    <path d="M 98.048366 132.707042 
L 105.601468 140.950261 
L 94.475032 142.046811 
z
" clip-path="url(#pd2df54ef29)" style="stroke: #000000; stroke-width: 2; stroke-linecap: round"/>
   </g>
   <g id="patch_14">
    <path d="M 216.940079 100.423871 
Q 242.561691 88.747829 270.21805 76.144531 
" clip-path="url(#pd2df54ef29)" style="fill: none; stroke: #000000; stroke-width: 2; stroke-linecap: round"/>
    <path d="M 228.113152 100.826889 
L 216.940079 100.423871 
L 223.966337 91.727223 
z
" clip-path="url(#pd2df54ef29)" style="stroke: #000000; stroke-width: 2; stroke-linecap: round"/>
   </g>
   <g id="patch_15">
    <path d="M 36.138483 170.13796 
C 38.91179 170.13796 41.571883 169.036113 43.532907 167.075089 
C 45.493932 165.114065 46.595778 162.453972 46.595778 159.680665 
C 46.595778 156.907357 45.493932 154.247264 43.532907 152.28624 
C 41.571883 150.325216 38.91179 149.223369 36.138483 149.223369 
C 33.365176 149.223369 30.705083 150.325216 28.744058 152.28624 
C 26.783034 154.247264 25.681187 156.907357 25.681187 159.680665 
C 25.681187 162.453972 26.783034 165.114065 28.744058 167.075089 
C 30.705083 169.036113 33.365176 170.13796 36.138483 170.13796 
z
" style="fill: #fec7b8; stroke: #000000; stroke-linejoin: miter"/>
   </g>
   <g id="patch_16">
    <path d="M 60.548378 134.170539 
C 63.321685 134.170539 65.981778 133.068692 67.942802 131.107668 
C 69.903826 129.146643 71.005673 126.48655 71.005673 123.713243 
C 71.005673 120.939936 69.903826 118.279843 67.942802 116.318819 
C 65.981778 114.357795 63.321685 113.255948 60.548378 113.255948 
C 57.77507 113.255948 55.114977 114.357795 53.153953 116.318819 
C 51.192929 118.279843 50.091082 120.939936 50.091082 123.713243 
C 50.091082 126.48655 51.192929 129.146643 53.153953 131.107668 
C 55.114977 133.068692 57.77507 134.170539 60.548378 134.170539 
z
" style="fill: #fec7b8; stroke: #000000; stroke-linejoin: miter"/>
   </g>
   <g id="patch_17">
    <path d="M 62.045657 215.511313 
C 64.818964 215.511313 67.479057 214.409466 69.440081 212.448442 
C 71.401105 210.487418 72.502952 207.827325 72.502952 205.054018 
C 72.502952 202.28071 71.401105 199.620617 69.440081 197.659593 
C 67.479057 195.698569 64.818964 194.596722 62.045657 194.596722 
C 59.272349 194.596722 56.612256 195.698569 54.651232 197.659593 
C 52.690208 199.620617 51.588361 202.28071 51.588361 205.054018 
C 51.588361 207.827325 52.690208 210.487418 54.651232 212.448442 
C 56.612256 214.409466 59.272349 215.511313 62.045657 215.511313 
z
" style="fill: #fec7b8; stroke: #000000; stroke-linejoin: miter"/>
   </g>
   <g id="patch_18">
    <path d="M 26.735553 298.649211 
C 29.50886 298.649211 32.168953 297.547365 34.129977 295.58634 
C 36.091002 293.625316 37.192848 290.965223 37.192848 288.191916 
C 37.192848 285.418609 36.091002 282.758516 34.129977 280.797492 
C 32.168953 278.836467 29.50886 277.734621 26.735553 277.734621 
C 23.962246 277.734621 21.302153 278.836467 19.341128 280.797492 
C 17.380104 282.758516 16.278258 285.418609 16.278258 288.191916 
C 16.278258 290.965223 17.380104 293.625316 19.341128 295.58634 
C 21.302153 297.547365 23.962246 298.649211 26.735553 298.649211 
z
" style="fill: #fec7b8; stroke: #000000; stroke-linejoin: miter"/>
   </g>
   <g id="patch_19">
    <path d="M 117.456775 155.943319 
C 120.230083 155.943319 122.890176 154.841473 124.8512 152.880449 
C 126.812224 150.919424 127.914071 148.259331 127.914071 145.486024 
C 127.914071 142.712717 126.812224 140.052624 124.8512 138.0916 
C 122.890176 136.130575 120.230083 135.028729 117.456775 135.028729 
C 114.683468 135.028729 112.023375 136.130575 110.062351 138.0916 
C 108.101327 140.052624 106.99948 142.712717 106.99948 145.486024 
C 106.99948 148.259331 108.101327 150.919424 110.062351 152.880449 
C 112.023375 154.841473 114.683468 155.943319 117.456775 155.943319 
z
" style="fill: #fec7b8; stroke: #000000; stroke-linejoin: miter"/>
   </g>
   <g id="patch_20">
    <path d="M 205.389542 116.144869 
C 208.162849 116.144869 210.822942 115.043023 212.783966 113.081998 
C 214.74499 111.120974 215.846837 108.460881 215.846837 105.687574 
C 215.846837 102.914267 214.74499 100.254174 212.783966 98.293149 
C 210.822942 96.332125 208.162849 95.230278 205.389542 95.230278 
C 202.616235 95.230278 199.956141 96.332125 197.995117 98.293149 
C 196.034093 100.254174 194.932246 102.914267 194.932246 105.687574 
C 194.932246 108.460881 196.034093 111.120974 197.995117 113.081998 
C 199.956141 115.043023 202.616235 116.144869 205.389542 116.144869 
z
" style="fill: #fec7b8; stroke: #000000; stroke-linejoin: miter"/>
   </g>
   <g id="patch_21">
    <path d="M 279.73384 82.265379 
C 282.507147 82.265379 285.16724 81.163533 287.128265 79.202508 
C 289.089289 77.241484 290.191136 74.581391 290.191136 71.808084 
C 290.191136 69.034777 289.089289 66.374684 287.128265 64.41366 
C 285.16724 62.452635 282.507147 61.350789 279.73384 61.350789 
C 276.960533 61.350789 274.30044 62.452635 272.339416 64.41366 
C 270.378391 66.374684 269.276545 69.034777 269.276545 71.808084 
C 269.276545 74.581391 270.378391 77.241484 272.339416 79.202508 
C 274.30044 81.163533 276.960533 82.265379 279.73384 82.265379 
z
" style="fill: #fec7b8; stroke: #000000; stroke-linejoin: miter"/>
   </g>
   <g id="text_1">
    <!-- {AD} -->
    <g transform="translate(22.50567 162.44004) scale(0.1 -0.1)">
     <defs>
      <path id="DejaVuSans-7b" d="M 3272 -594 
L 3272 -1044 
L 3078 -1044 
Q 2300 -1044 2036 -812 
Q 1772 -581 1772 109 
L 1772 856 
Q 1772 1328 1603 1509 
Q 1434 1691 991 1691 
L 800 1691 
L 800 2138 
L 991 2138 
Q 1438 2138 1605 2317 
Q 1772 2497 1772 2963 
L 1772 3713 
Q 1772 4403 2036 4633 
Q 2300 4863 3078 4863 
L 3272 4863 
L 3272 4416 
L 3059 4416 
Q 2619 4416 2484 4278 
Q 2350 4141 2350 3700 
L 2350 2925 
Q 2350 2434 2208 2212 
Q 2066 1991 1722 1913 
Q 2069 1828 2209 1606 
Q 2350 1384 2350 897 
L 2350 122 
Q 2350 -319 2484 -456 
Q 2619 -594 3059 -594 
L 3272 -594 
z
" transform="scale(0.015625)"/>
      <path id="DejaVuSans-41" d="M 2188 4044 
L 1331 1722 
L 3047 1722 
L 2188 4044 
z
M 1831 4666 
L 2547 4666 
L 4325 0 
L 3669 0 
L 3244 1197 
L 1141 1197 
L 716 0 
L 50 0 
L 1831 4666 
z
" transform="scale(0.015625)"/>
      <path id="DejaVuSans-44" d="M 1259 4147 
L 1259 519 
L 2022 519 
Q 2988 519 3436 956 
Q 3884 1394 3884 2338 
Q 3884 3275 3436 3711 
Q 2988 4147 2022 4147 
L 1259 4147 
z
M 628 4666 
L 1925 4666 
Q 3281 4666 3915 4102 
Q 4550 3538 4550 2338 
Q 4550 1131 3912 565 
Q 3275 0 1925 0 
L 628 0 
L 628 4666 
z
" transform="scale(0.015625)"/>
      <path id="DejaVuSans-7d" d="M 800 -594 
L 1019 -594 
Q 1456 -594 1589 -459 
Q 1722 -325 1722 122 
L 1722 897 
Q 1722 1384 1862 1606 
Q 2003 1828 2350 1913 
Q 2003 1991 1862 2212 
Q 1722 2434 1722 2925 
L 1722 3700 
Q 1722 4144 1589 4280 
Q 1456 4416 1019 4416 
L 800 4416 
L 800 4863 
L 997 4863 
Q 1775 4863 2036 4633 
Q 2297 4403 2297 3713 
L 2297 2963 
Q 2297 2497 2465 2317 
Q 2634 2138 3078 2138 
L 3272 2138 
L 3272 1691 
L 3078 1691 
Q 2634 1691 2465 1509 
Q 2297 1328 2297 856 
L 2297 109 
Q 2297 -581 2036 -812 
Q 1775 -1044 997 -1044 
L 800 -1044 
L 800 -594 
z
" transform="scale(0.015625)"/>
     </defs>
     <use xlink:href="#DejaVuSans-7b"/>
     <use xlink:href="#DejaVuSans-41" x="63.623047"/>
     <use xlink:href="#DejaVuSans-44" x="132.03125"/>
     <use xlink:href="#DejaVuSans-7d" x="209.033203"/>
    </g>
   </g>
   <g id="text_2">
    <!-- {M} -->
    <g transform="translate(106.780213 148.245399) scale(0.1 -0.1)">
     <defs>
      <path id="DejaVuSans-4d" d="M 628 4666 
L 1569 4666 
L 2759 1491 
L 3956 4666 
L 4897 4666 
L 4897 0 
L 4281 0 
L 4281 4097 
L 3078 897 
L 2444 897 
L 1241 4097 
L 1241 0 
L 628 0 
L 628 4666 
z
" transform="scale(0.015625)"/>
     </defs>
     <use xlink:href="#DejaVuSans-7b"/>
     <use xlink:href="#DejaVuSans-4d" x="63.623047"/>
     <use xlink:href="#DejaVuSans-7d" x="149.902344"/>
    </g>
   </g>
   <g id="text_3">
    <!-- {A} -->
    <g transform="translate(52.262844 207.813393) scale(0.1 -0.1)">
     <use xlink:href="#DejaVuSans-7b"/>
     <use xlink:href="#DejaVuSans-41" x="63.623047"/>
     <use xlink:href="#DejaVuSans-7d" x="132.03125"/>
    </g>
   </g>
   <g id="text_4">
    <!-- {B} -->
    <g transform="translate(195.596573 108.446949) scale(0.1 -0.1)">
     <defs>
      <path id="DejaVuSans-42" d="M 1259 2228 
L 1259 519 
L 2272 519 
Q 2781 519 3026 730 
Q 3272 941 3272 1375 
Q 3272 1813 3026 2020 
Q 2781 2228 2272 2228 
L 1259 2228 
z
M 1259 4147 
L 1259 2741 
L 2194 2741 
Q 2656 2741 2882 2914 
Q 3109 3088 3109 3444 
Q 3109 3797 2882 3972 
Q 2656 4147 2194 4147 
L 1259 4147 
z
M 628 4666 
L 2241 4666 
Q 2963 4666 3353 4366 
Q 3744 4066 3744 3513 
Q 3744 3084 3544 2831 
Q 3344 2578 2956 2516 
Q 3422 2416 3680 2098 
Q 3938 1781 3938 1306 
Q 3938 681 3513 340 
Q 3088 0 2303 0 
L 628 0 
L 628 4666 
z
" transform="scale(0.015625)"/>
     </defs>
     <use xlink:href="#DejaVuSans-7b"/>
     <use xlink:href="#DejaVuSans-42" x="63.623047"/>
     <use xlink:href="#DejaVuSans-7d" x="132.226562"/>
    </g>
   </g>
   <g id="text_5">
    <!-- {AA} -->
    <g transform="translate(47.207753 126.472618) scale(0.1 -0.1)">
     <use xlink:href="#DejaVuSans-7b"/>
     <use xlink:href="#DejaVuSans-41" x="63.623047"/>
     <use xlink:href="#DejaVuSans-41" x="134.78125"/>
     <use xlink:href="#DejaVuSans-7d" x="203.189453"/>
    </g>
   </g>
   <g id="text_6">
    <!-- [] -->
    <g transform="translate(22.83399 290.951291) scale(0.1 -0.1)">
     <defs>
      <path id="DejaVuSans-5b" d="M 550 4863 
L 1875 4863 
L 1875 4416 
L 1125 4416 
L 1125 -397 
L 1875 -397 
L 1875 -844 
L 550 -844 
L 550 4863 
z
" transform="scale(0.015625)"/>
      <path id="DejaVuSans-5d" d="M 1947 4863 
L 1947 -844 
L 622 -844 
L 622 -397 
L 1369 -397 
L 1369 4416 
L 622 4416 
L 622 4863 
L 1947 4863 
z
" transform="scale(0.015625)"/>
     </defs>
     <use xlink:href="#DejaVuSans-5b"/>
     <use xlink:href="#DejaVuSans-5d" x="39.013672"/>
    </g>
   </g>
   <g id="text_7">
    <!-- b -->
    <g transform="translate(276.559621 74.567459) scale(0.1 -0.1)">
     <defs>
      <path id="DejaVuSans-62" d="M 3116 1747 
Q 3116 2381 2855 2742 
Q 2594 3103 2138 3103 
Q 1681 3103 1420 2742 
Q 1159 2381 1159 1747 
Q 1159 1113 1420 752 
Q 1681 391 2138 391 
Q 2594 391 2855 752 
Q 3116 1113 3116 1747 
z
M 1159 2969 
Q 1341 3281 1617 3432 
Q 1894 3584 2278 3584 
Q 2916 3584 3314 3078 
Q 3713 2572 3713 1747 
Q 3713 922 3314 415 
Q 2916 -91 2278 -91 
Q 1894 -91 1617 61 
Q 1341 213 1159 525 
L 1159 0 
L 581 0 
L 581 4863 
L 1159 4863 
L 1159 2969 
z
" transform="scale(0.015625)"/>
     </defs>
     <use xlink:href="#DejaVuSans-62"/>
    </g>
   </g>
  </g>
  <g id="axes_2">
   <g id="patch_22">
    <path d="M 365.708049 349.2 
L 479.822558 349.2 
L 479.822558 10.8 
L 365.708049 10.8 
z
" style="fill: #ffffff"/>
   </g>
   <g id="matplotlib.axis_3"/>
   <g id="matplotlib.axis_4"/>
   <g id="patch_23">
    <path d="M 367.949789 172.021285 
Q 368.38411 98.651782 368.805194 27.518308 
" clip-path="url(#p8d79cb2476)" style="fill: none; stroke: #000000; stroke-width: 2; stroke-linecap: round"/>
    <path d="M 363.746086 37.488535 
L 368.805194 27.518308 
L 373.745911 37.54773 
z
" clip-path="url(#p8d79cb2476)" style="stroke: #000000; stroke-width: 2; stroke-linecap: round"/>
   </g>
   <g id="patch_24">
    <path d="M 372.350877 173.379206 
Q 422.555981 98.654872 471.514058 25.78659 
" clip-path="url(#p8d79cb2476)" style="fill: none; stroke: #000000; stroke-width: 2; stroke-linecap: round"/>
    <path d="M 461.78693 31.298666 
L 471.514058 25.78659 
L 470.087442 36.875538 
z
" clip-path="url(#p8d79cb2476)" style="stroke: #000000; stroke-width: 2; stroke-linecap: round"/>
   </g>
   <g id="patch_25">
    <path d="M 425.061709 335.133133 
Q 450.063927 261.346895 474.348539 189.678449 
" clip-path="url(#p8d79cb2476)" style="fill: none; stroke: #000000; stroke-width: 2; stroke-linecap: round"/>
    <path d="M 466.403779 197.544883 
L 474.348539 189.678449 
L 475.874831 200.754117 
z
" clip-path="url(#p8d79cb2476)" style="stroke: #000000; stroke-width: 2; stroke-linecap: round"/>
   </g>
   <g id="patch_26">
    <path d="M 477.607585 172.021285 
Q 477.41941 98.651782 477.23697 27.51834 
" clip-path="url(#p8d79cb2476)" style="fill: none; stroke: #000000; stroke-width: 2; stroke-linecap: round"/>
    <path d="M 472.262634 37.531131 
L 477.23697 27.51834 
L 482.262601 37.505483 
z
" clip-path="url(#p8d79cb2476)" style="stroke: #000000; stroke-width: 2; stroke-linecap: round"/>
   </g>
   <g id="PathCollection_1">
    <defs>
     <path id="mbe79b0bbee" d="M 0 7.071068 
C 1.875269 7.071068 3.673985 6.326016 5 5 
C 6.326016 3.673985 7.071068 1.875269 7.071068 0 
C 7.071068 -1.875269 6.326016 -3.673985 5 -5 
C 3.673985 -6.326016 1.875269 -7.071068 0 -7.071068 
C -1.875269 -7.071068 -3.673985 -6.326016 -5 -5 
C -6.326016 -3.673985 -7.071068 -1.875269 -7.071068 0 
C -7.071068 1.875269 -6.326016 3.673985 -5 5 
C -3.673985 6.326016 -1.875269 7.071068 0 7.071068 
z
" style="stroke: #000000"/>
    </defs>
    <g>
     <use xlink:href="#mbe79b0bbee" x="367.902558" y="180" style="fill: #fec7b8; stroke: #000000"/>
     <use xlink:href="#mbe79b0bbee" x="477.628049" y="180" style="fill: #fec7b8; stroke: #000000"/>
     <use xlink:href="#mbe79b0bbee" x="368.865637" y="17.307692" style="fill: #fec7b8; stroke: #000000"/>
     <use xlink:href="#mbe79b0bbee" x="477.210782" y="17.307692" style="fill: #fec7b8; stroke: #000000"/>
     <use xlink:href="#mbe79b0bbee" x="422.500309" y="342.692308" style="fill: #fec7b8; stroke: #000000"/>
    </g>
   </g>
   <g id="text_8">
    <!-- {A, AA, AD} -->
    <g transform="translate(337.515058 182.759375) scale(0.1 -0.1)">
     <defs>
      <path id="DejaVuSans-2c" d="M 750 794 
L 1409 794 
L 1409 256 
L 897 -744 
L 494 -744 
L 750 256 
L 750 794 
z
" transform="scale(0.015625)"/>
      <path id="DejaVuSans-20" transform="scale(0.015625)"/>
     </defs>
     <use xlink:href="#DejaVuSans-7b"/>
     <use xlink:href="#DejaVuSans-41" x="63.623047"/>
     <use xlink:href="#DejaVuSans-2c" x="132.03125"/>
     <use xlink:href="#DejaVuSans-20" x="163.818359"/>
     <use xlink:href="#DejaVuSans-41" x="195.605469"/>
     <use xlink:href="#DejaVuSans-41" x="266.763672"/>
     <use xlink:href="#DejaVuSans-2c" x="335.171875"/>
     <use xlink:href="#DejaVuSans-20" x="366.958984"/>
     <use xlink:href="#DejaVuSans-41" x="398.746094"/>
     <use xlink:href="#DejaVuSans-44" x="467.154297"/>
     <use xlink:href="#DejaVuSans-7d" x="544.15625"/>
    </g>
   </g>
   <g id="text_9">
    <!-- [] -->
    <g transform="translate(364.964075 20.067067) scale(0.1 -0.1)">
     <use xlink:href="#DejaVuSans-5b"/>
     <use xlink:href="#DejaVuSans-5d" x="39.013672"/>
    </g>
   </g>
   <g id="text_10">
    <!-- b -->
    <g transform="translate(419.32609 345.451683) scale(0.1 -0.1)">
     <use xlink:href="#DejaVuSans-62"/>
    </g>
   </g>
   <g id="text_11">
    <!-- {B} -->
    <g transform="translate(467.83508 182.759375) scale(0.1 -0.1)">
     <use xlink:href="#DejaVuSans-7b"/>
     <use xlink:href="#DejaVuSans-42" x="63.623047"/>
     <use xlink:href="#DejaVuSans-7d" x="132.226562"/>
    </g>
   </g>
   <g id="text_12">
    <!-- {M} -->
    <g transform="translate(466.53422 20.067067) scale(0.1 -0.1)">
     <use xlink:href="#DejaVuSans-7b"/>
     <use xlink:href="#DejaVuSans-4d" x="63.623047"/>
     <use xlink:href="#DejaVuSans-7d" x="149.902344"/>
    </g>
   </g>
  </g>
 </g>
 <defs>
  <clipPath id="pd2df54ef29">
   <rect x="10.8" y="56.60482" width="284.869393" height="246.79036"/>
  </clipPath>
  <clipPath id="p8d79cb2476">
   <rect x="365.708049" y="10.8" width="114.11451" height="338.4"/>
  </clipPath>
 </defs>
</svg>
