<?xml version="1.0" encoding="utf-8" standalone="no"?>
<!DOCTYPE svg PUBLIC "-//W3C//DTD SVG 1.1//EN"
  "http://www.w3.org/Graphics/SVG/1.1/DTD/svg11.dtd">
<!-- Created with matplotlib (https://matplotlib.org/) -->
<svg height="216pt" version="1.1" viewBox="0 0 576 216" width="576pt" xmlns="http://www.w3.org/2000/svg" xmlns:xlink="http://www.w3.org/1999/xlink">
 <metadata>
  <rdf:RDF xmlns:cc="http://creativecommons.org/ns#" xmlns:dc="http://purl.org/dc/elements/1.1/" xmlns:rdf="http://www.w3.org/1999/02/22-rdf-syntax-ns#">
   <cc:Work>
    <dc:type rdf:resource="http://purl.org/dc/dcmitype/StillImage"/>
    <dc:date>2021-08-24T12:18:33.218928</dc:date>
    <dc:format>image/svg+xml</dc:format>
    <dc:creator>
     <cc:Agent>
      <dc:title>Matplotlib v3.3.4, https://matplotlib.org/</dc:title>
     </cc:Agent>
    </dc:creator>
   </cc:Work>
  </rdf:RDF>
 </metadata>
 <defs>
  <style type="text/css">*{stroke-linecap:butt;stroke-linejoin:round;}</style>
 </defs>
 <g id="figure_1">
  <g id="patch_1">
   <path d="M 0 216 
L 576 216 
L 576 0 
L 0 0 
z
" style="fill:#ffffff;"/>
  </g>
  <g id="axes_1">
   <g id="patch_2">
    <path d="M 62.193351 203.358462 
L 156.783036 203.358462 
L 156.783036 12.641538 
L 62.193351 12.641538 
z
" style="fill:#ffffff;"/>
   </g>
   <g id="matplotlib.axis_1"/>
   <g id="matplotlib.axis_2"/>
   <g id="patch_3">
    <path clip-path="url(#pdd38ab13c2)" d="M 110.132815 191.713211 
Q 110.093196 108.000445 110.054635 26.523746 
" style="fill:none;stroke:#000000;stroke-linecap:round;stroke-width:2;"/>
    <path clip-path="url(#pdd38ab13c2)" d="M 105.059368 36.526112 
L 110.054635 26.523746 
L 115.059367 36.521379 
L 105.059368 36.526112 
z
" style="stroke:#000000;stroke-linecap:round;stroke-width:2;"/>
   </g>
   <g id="patch_4">
    <path clip-path="url(#pdd38ab13c2)" d="M 107.562994 26.214914 
Q 87.031161 107.999726 65.954865 191.953307 
" style="fill:none;stroke:#000000;stroke-linecap:round;stroke-width:2;"/>
    <path clip-path="url(#pdd38ab13c2)" d="M 100.278566 34.696489 
L 107.562994 26.214914 
L 109.977596 37.131401 
L 100.278566 34.696489 
z
" style="stroke:#000000;stroke-linecap:round;stroke-width:2;"/>
   </g>
   <g id="patch_5">
    <path clip-path="url(#pdd38ab13c2)" d="M 112.479437 26.229212 
Q 132.506953 108.000209 153.06641 191.94308 
" style="fill:none;stroke:#000000;stroke-linecap:round;stroke-width:2;"/>
    <path clip-path="url(#pdd38ab13c2)" d="M 110.001885 37.131585 
L 112.479437 26.229212 
L 119.714804 34.752678 
L 110.001885 37.131585 
z
" style="stroke:#000000;stroke-linecap:round;stroke-width:2;"/>
   </g>
   <g id="PathCollection_1">
    <defs>
     <path d="M 0 7.071068 
C 1.875269 7.071068 3.673985 6.326016 5 5 
C 6.326016 3.673985 7.071068 1.875269 7.071068 0 
C 7.071068 -1.875269 6.326016 -3.673985 5 -5 
C 3.673985 -6.326016 1.875269 -7.071068 0 -7.071068 
C -1.875269 -7.071068 -3.673985 -6.326016 -5 -5 
C -6.326016 -3.673985 -7.071068 -1.875269 -7.071068 0 
C -7.071068 1.875269 -6.326016 3.673985 -5 5 
C -3.673985 6.326016 -1.875269 7.071068 0 7.071068 
z
" id="m552c6a2a33" style="stroke:#000000;"/>
    </defs>
    <g>
     <use style="fill:#fec7b8;stroke:#000000;" x="64.012383" xlink:href="#m552c6a2a33" y="199.690828"/>
     <use style="fill:#fec7b8;stroke:#000000;" x="110.13659" xlink:href="#m552c6a2a33" y="199.690828"/>
     <use style="fill:#fec7b8;stroke:#000000;" x="154.964004" xlink:href="#m552c6a2a33" y="199.690828"/>
     <use style="fill:#fec7b8;stroke:#000000;" x="110.049801" xlink:href="#m552c6a2a33" y="16.309172"/>
    </g>
   </g>
   <g id="text_1">
    <!-- {V} -->
    <g transform="translate(100.353778 202.450203)scale(0.1 -0.1)">
     <defs>
      <path d="M 51.125 -9.28125 
L 51.125 -16.3125 
L 48.09375 -16.3125 
Q 35.9375 -16.3125 31.8125 -12.6875 
Q 27.6875 -9.078125 27.6875 1.703125 
L 27.6875 13.375 
Q 27.6875 20.75 25.046875 23.578125 
Q 22.40625 26.421875 15.484375 26.421875 
L 12.5 26.421875 
L 12.5 33.40625 
L 15.484375 33.40625 
Q 22.46875 33.40625 25.078125 36.203125 
Q 27.6875 39.015625 27.6875 46.296875 
L 27.6875 58.015625 
Q 27.6875 68.796875 31.8125 72.390625 
Q 35.9375 75.984375 48.09375 75.984375 
L 51.125 75.984375 
L 51.125 69 
L 47.796875 69 
Q 40.921875 69 38.8125 66.84375 
Q 36.71875 64.703125 36.71875 57.8125 
L 36.71875 45.703125 
Q 36.71875 38.03125 34.5 34.5625 
Q 32.28125 31.109375 26.90625 29.890625 
Q 32.328125 28.5625 34.515625 25.09375 
Q 36.71875 21.625 36.71875 14.015625 
L 36.71875 1.90625 
Q 36.71875 -4.984375 38.8125 -7.125 
Q 40.921875 -9.28125 47.796875 -9.28125 
z
" id="DejaVuSans-123"/>
      <path d="M 28.609375 0 
L 0.78125 72.90625 
L 11.078125 72.90625 
L 34.1875 11.53125 
L 57.328125 72.90625 
L 67.578125 72.90625 
L 39.796875 0 
z
" id="DejaVuSans-86"/>
      <path d="M 12.5 -9.28125 
L 15.921875 -9.28125 
Q 22.75 -9.28125 24.828125 -7.171875 
Q 26.90625 -5.078125 26.90625 1.90625 
L 26.90625 14.015625 
Q 26.90625 21.625 29.09375 25.09375 
Q 31.296875 28.5625 36.71875 29.890625 
Q 31.296875 31.109375 29.09375 34.5625 
Q 26.90625 38.03125 26.90625 45.703125 
L 26.90625 57.8125 
Q 26.90625 64.75 24.828125 66.875 
Q 22.75 69 15.921875 69 
L 12.5 69 
L 12.5 75.984375 
L 15.578125 75.984375 
Q 27.734375 75.984375 31.8125 72.390625 
Q 35.890625 68.796875 35.890625 58.015625 
L 35.890625 46.296875 
Q 35.890625 39.015625 38.515625 36.203125 
Q 41.15625 33.40625 48.09375 33.40625 
L 51.125 33.40625 
L 51.125 26.421875 
L 48.09375 26.421875 
Q 41.15625 26.421875 38.515625 23.578125 
Q 35.890625 20.75 35.890625 13.375 
L 35.890625 1.703125 
Q 35.890625 -9.078125 31.8125 -12.6875 
Q 27.734375 -16.3125 15.578125 -16.3125 
L 12.5 -16.3125 
z
" id="DejaVuSans-125"/>
     </defs>
     <use xlink:href="#DejaVuSans-123"/>
     <use x="63.623047" xlink:href="#DejaVuSans-86"/>
     <use x="132.03125" xlink:href="#DejaVuSans-125"/>
    </g>
   </g>
   <g id="text_2">
    <!-- {M} -->
    <g transform="translate(99.373238 19.068547)scale(0.1 -0.1)">
     <defs>
      <path d="M 9.8125 72.90625 
L 24.515625 72.90625 
L 43.109375 23.296875 
L 61.8125 72.90625 
L 76.515625 72.90625 
L 76.515625 0 
L 66.890625 0 
L 66.890625 64.015625 
L 48.09375 14.015625 
L 38.1875 14.015625 
L 19.390625 64.015625 
L 19.390625 0 
L 9.8125 0 
z
" id="DejaVuSans-77"/>
     </defs>
     <use xlink:href="#DejaVuSans-123"/>
     <use x="63.623047" xlink:href="#DejaVuSans-77"/>
     <use x="149.902344" xlink:href="#DejaVuSans-125"/>
    </g>
   </g>
   <g id="text_3">
    <!-- {U} -->
    <g transform="translate(53.990508 202.450203)scale(0.1 -0.1)">
     <defs>
      <path d="M 8.6875 72.90625 
L 18.609375 72.90625 
L 18.609375 28.609375 
Q 18.609375 16.890625 22.84375 11.734375 
Q 27.09375 6.59375 36.625 6.59375 
Q 46.09375 6.59375 50.34375 11.734375 
Q 54.59375 16.890625 54.59375 28.609375 
L 54.59375 72.90625 
L 64.5 72.90625 
L 64.5 27.390625 
Q 64.5 13.140625 57.4375 5.859375 
Q 50.390625 -1.421875 36.625 -1.421875 
Q 22.796875 -1.421875 15.734375 5.859375 
Q 8.6875 13.140625 8.6875 27.390625 
z
" id="DejaVuSans-85"/>
     </defs>
     <use xlink:href="#DejaVuSans-123"/>
     <use x="63.623047" xlink:href="#DejaVuSans-85"/>
     <use x="136.816406" xlink:href="#DejaVuSans-125"/>
    </g>
   </g>
   <g id="text_4">
    <!-- {W} -->
    <g transform="translate(143.657754 202.450203)scale(0.1 -0.1)">
     <defs>
      <path d="M 3.328125 72.90625 
L 13.28125 72.90625 
L 28.609375 11.28125 
L 43.890625 72.90625 
L 54.984375 72.90625 
L 70.3125 11.28125 
L 85.59375 72.90625 
L 95.609375 72.90625 
L 77.296875 0 
L 64.890625 0 
L 49.515625 63.28125 
L 33.984375 0 
L 21.578125 0 
z
" id="DejaVuSans-87"/>
     </defs>
     <use xlink:href="#DejaVuSans-123"/>
     <use x="63.623047" xlink:href="#DejaVuSans-87"/>
     <use x="162.5" xlink:href="#DejaVuSans-125"/>
    </g>
   </g>
  </g>
  <g id="axes_2">
   <g id="patch_6">
    <path d="M 240.138823 203.358462 
L 335.861177 203.358462 
L 335.861177 12.641538 
L 240.138823 12.641538 
z
" style="fill:#ffffff;"/>
   </g>
   <g id="matplotlib.axis_3"/>
   <g id="matplotlib.axis_4"/>
   <g id="patch_7">
    <path clip-path="url(#pa68e0539cd)" d="M 332.081883 191.948259 
Q 311.063396 107.997353 290.587982 26.215564 
" style="fill:none;stroke:#000000;stroke-linecap:round;stroke-width:2;"/>
    <path clip-path="url(#pa68e0539cd)" d="M 288.16639 37.130503 
L 290.587982 26.215564 
L 297.866978 34.701801 
L 288.16639 37.130503 
z
" style="stroke:#000000;stroke-linecap:round;stroke-width:2;"/>
   </g>
   <g id="patch_8">
    <path clip-path="url(#pa68e0539cd)" d="M 330.42514 192.569455 
Q 310.875123 153.845017 292.332843 117.116692 
" style="fill:none;stroke:#000000;stroke-linecap:round;stroke-width:2;"/>
    <path clip-path="url(#pa68e0539cd)" d="M 292.376134 128.296948 
L 292.332843 117.116692 
L 301.303023 123.790212 
L 292.376134 128.296948 
z
" style="stroke:#000000;stroke-linecap:round;stroke-width:2;"/>
   </g>
   <g id="patch_9">
    <path clip-path="url(#pa68e0539cd)" d="M 288.065707 26.522838 
Q 287.919021 62.154192 287.76313 100.021595 
" style="fill:none;stroke:#000000;stroke-linecap:round;stroke-width:2;"/>
    <path clip-path="url(#pa68e0539cd)" d="M 283.024582 36.502169 
L 288.065707 26.522838 
L 293.024497 36.543337 
L 283.024582 36.502169 
z
" style="stroke:#000000;stroke-linecap:round;stroke-width:2;"/>
   </g>
   <g id="patch_10">
    <path clip-path="url(#pa68e0539cd)" d="M 288.09334 26.522854 
Q 287.97835 107.999555 287.860204 191.712321 
" style="fill:none;stroke:#000000;stroke-linecap:round;stroke-width:2;"/>
    <path clip-path="url(#pa68e0539cd)" d="M 283.079232 36.515788 
L 288.09334 26.522854 
L 293.079222 36.529901 
L 283.079232 36.515788 
z
" style="stroke:#000000;stroke-linecap:round;stroke-width:2;"/>
   </g>
   <g id="patch_11">
    <path clip-path="url(#pa68e0539cd)" d="M 287.743502 118.213683 
Q 287.789614 153.84502 287.838619 191.712424 
" style="fill:none;stroke:#000000;stroke-linecap:round;stroke-width:2;"/>
    <path clip-path="url(#pa68e0539cd)" d="M 282.756448 128.220145 
L 287.743502 118.213683 
L 292.756439 128.207204 
L 282.756448 128.220145 
z
" style="stroke:#000000;stroke-linecap:round;stroke-width:2;"/>
   </g>
   <g id="patch_12">
    <path clip-path="url(#pa68e0539cd)" d="M 285.616112 26.214661 
Q 265.043765 107.999726 243.925946 191.953307 
" style="fill:none;stroke:#000000;stroke-linecap:round;stroke-width:2;"/>
    <path clip-path="url(#pa68e0539cd)" d="M 278.327739 34.692845 
L 285.616112 26.214661 
L 288.025636 37.13227 
L 278.327739 34.692845 
z
" style="stroke:#000000;stroke-linecap:round;stroke-width:2;"/>
   </g>
   <g id="PathCollection_2">
    <g>
     <use style="fill:#fec7b8;stroke:#000000;" x="241.979638" xlink:href="#m552c6a2a33" y="199.690828"/>
     <use style="fill:#fec7b8;stroke:#000000;" x="287.848944" xlink:href="#m552c6a2a33" y="199.690828"/>
     <use style="fill:#fec7b8;stroke:#000000;" x="334.020362" xlink:href="#m552c6a2a33" y="199.690828"/>
     <use style="fill:#fec7b8;stroke:#000000;" x="287.730284" xlink:href="#m552c6a2a33" y="108"/>
     <use style="fill:#fec7b8;stroke:#000000;" x="288.107755" xlink:href="#m552c6a2a33" y="16.309172"/>
    </g>
   </g>
   <g id="text_5">
    <!-- {W} -->
    <g transform="translate(322.714112 202.450203)scale(0.1 -0.1)">
     <use xlink:href="#DejaVuSans-123"/>
     <use x="63.623047" xlink:href="#DejaVuSans-87"/>
     <use x="162.5" xlink:href="#DejaVuSans-125"/>
    </g>
   </g>
   <g id="text_6">
    <!-- {M} -->
    <g transform="translate(277.431192 19.068547)scale(0.1 -0.1)">
     <use xlink:href="#DejaVuSans-123"/>
     <use x="63.623047" xlink:href="#DejaVuSans-77"/>
     <use x="149.902344" xlink:href="#DejaVuSans-125"/>
    </g>
   </g>
   <g id="text_7">
    <!-- {V_union_W} -->
    <g transform="translate(254.049034 110.620312)scale(0.1 -0.1)">
     <defs>
      <path d="M 50.984375 -16.609375 
L 50.984375 -23.578125 
L -0.984375 -23.578125 
L -0.984375 -16.609375 
z
" id="DejaVuSans-95"/>
      <path d="M 8.5 21.578125 
L 8.5 54.6875 
L 17.484375 54.6875 
L 17.484375 21.921875 
Q 17.484375 14.15625 20.5 10.265625 
Q 23.53125 6.390625 29.59375 6.390625 
Q 36.859375 6.390625 41.078125 11.03125 
Q 45.3125 15.671875 45.3125 23.6875 
L 45.3125 54.6875 
L 54.296875 54.6875 
L 54.296875 0 
L 45.3125 0 
L 45.3125 8.40625 
Q 42.046875 3.421875 37.71875 1 
Q 33.40625 -1.421875 27.6875 -1.421875 
Q 18.265625 -1.421875 13.375 4.4375 
Q 8.5 10.296875 8.5 21.578125 
z
M 31.109375 56 
z
" id="DejaVuSans-117"/>
      <path d="M 54.890625 33.015625 
L 54.890625 0 
L 45.90625 0 
L 45.90625 32.71875 
Q 45.90625 40.484375 42.875 44.328125 
Q 39.84375 48.1875 33.796875 48.1875 
Q 26.515625 48.1875 22.3125 43.546875 
Q 18.109375 38.921875 18.109375 30.90625 
L 18.109375 0 
L 9.078125 0 
L 9.078125 54.6875 
L 18.109375 54.6875 
L 18.109375 46.1875 
Q 21.34375 51.125 25.703125 53.5625 
Q 30.078125 56 35.796875 56 
Q 45.21875 56 50.046875 50.171875 
Q 54.890625 44.34375 54.890625 33.015625 
z
" id="DejaVuSans-110"/>
      <path d="M 9.421875 54.6875 
L 18.40625 54.6875 
L 18.40625 0 
L 9.421875 0 
z
M 9.421875 75.984375 
L 18.40625 75.984375 
L 18.40625 64.59375 
L 9.421875 64.59375 
z
" id="DejaVuSans-105"/>
      <path d="M 30.609375 48.390625 
Q 23.390625 48.390625 19.1875 42.75 
Q 14.984375 37.109375 14.984375 27.296875 
Q 14.984375 17.484375 19.15625 11.84375 
Q 23.34375 6.203125 30.609375 6.203125 
Q 37.796875 6.203125 41.984375 11.859375 
Q 46.1875 17.53125 46.1875 27.296875 
Q 46.1875 37.015625 41.984375 42.703125 
Q 37.796875 48.390625 30.609375 48.390625 
z
M 30.609375 56 
Q 42.328125 56 49.015625 48.375 
Q 55.71875 40.765625 55.71875 27.296875 
Q 55.71875 13.875 49.015625 6.21875 
Q 42.328125 -1.421875 30.609375 -1.421875 
Q 18.84375 -1.421875 12.171875 6.21875 
Q 5.515625 13.875 5.515625 27.296875 
Q 5.515625 40.765625 12.171875 48.375 
Q 18.84375 56 30.609375 56 
z
" id="DejaVuSans-111"/>
     </defs>
     <use xlink:href="#DejaVuSans-123"/>
     <use x="63.623047" xlink:href="#DejaVuSans-86"/>
     <use x="132.03125" xlink:href="#DejaVuSans-95"/>
     <use x="182.03125" xlink:href="#DejaVuSans-117"/>
     <use x="245.410156" xlink:href="#DejaVuSans-110"/>
     <use x="308.789062" xlink:href="#DejaVuSans-105"/>
     <use x="336.572266" xlink:href="#DejaVuSans-111"/>
     <use x="397.753906" xlink:href="#DejaVuSans-110"/>
     <use x="461.132812" xlink:href="#DejaVuSans-95"/>
     <use x="511.132812" xlink:href="#DejaVuSans-87"/>
     <use x="610.009766" xlink:href="#DejaVuSans-125"/>
    </g>
   </g>
   <g id="text_8">
    <!-- {V} -->
    <g transform="translate(278.066132 202.450203)scale(0.1 -0.1)">
     <use xlink:href="#DejaVuSans-123"/>
     <use x="63.623047" xlink:href="#DejaVuSans-86"/>
     <use x="132.03125" xlink:href="#DejaVuSans-125"/>
    </g>
   </g>
   <g id="text_9">
    <!-- {U} -->
    <g transform="translate(231.957763 202.450203)scale(0.1 -0.1)">
     <use xlink:href="#DejaVuSans-123"/>
     <use x="63.623047" xlink:href="#DejaVuSans-85"/>
     <use x="136.816406" xlink:href="#DejaVuSans-125"/>
    </g>
   </g>
  </g>
  <g id="axes_3">
   <g id="patch_13">
    <path d="M 418.71877 203.358462 
L 514.304843 203.358462 
L 514.304843 12.641538 
L 418.71877 12.641538 
z
" style="fill:#ffffff;"/>
   </g>
   <g id="matplotlib.axis_5"/>
   <g id="matplotlib.axis_6"/>
   <g id="patch_14">
    <path clip-path="url(#pb974dee5b8)" d="M 511.488126 191.774771 
Q 501.13259 108.000496 491.051372 26.445399 
" style="fill:none;stroke:#000000;stroke-linecap:round;stroke-width:2;"/>
    <path clip-path="url(#pb974dee5b8)" d="M 487.315926 36.983257 
L 491.051372 26.445399 
L 497.240391 35.75647 
L 487.315926 36.983257 
z
" style="stroke:#000000;stroke-linecap:round;stroke-width:2;"/>
   </g>
   <g id="patch_15">
    <path clip-path="url(#pb974dee5b8)" d="M 508.891139 192.558262 
Q 489.485273 153.846691 471.081475 117.134084 
" style="fill:none;stroke:#000000;stroke-linecap:round;stroke-width:2;"/>
    <path clip-path="url(#pb974dee5b8)" d="M 471.09304 128.314418 
L 471.081475 117.134084 
L 480.032681 123.833032 
L 471.09304 128.314418 
z
" style="stroke:#000000;stroke-linecap:round;stroke-width:2;"/>
   </g>
   <g id="patch_16">
    <path clip-path="url(#pb974dee5b8)" d="M 487.283484 26.207762 
Q 478.151024 62.152574 468.467941 100.2646 
" style="fill:none;stroke:#000000;stroke-linecap:round;stroke-width:2;"/>
    <path clip-path="url(#pb974dee5b8)" d="M 479.974992 34.668609 
L 487.283484 26.207762 
L 489.667066 37.131065 
L 479.974992 34.668609 
z
" style="stroke:#000000;stroke-linecap:round;stroke-width:2;"/>
   </g>
   <g id="patch_17">
    <path clip-path="url(#pb974dee5b8)" d="M 464.585863 100.25743 
Q 455.153362 62.155609 446.258202 26.224333 
" style="fill:none;stroke:#000000;stroke-linecap:round;stroke-width:2;"/>
    <path clip-path="url(#pb974dee5b8)" d="M 443.807778 37.132835 
L 446.258202 26.224333 
L 453.514749 34.729773 
L 443.807778 37.132835 
z
" style="stroke:#000000;stroke-linecap:round;stroke-width:2;"/>
   </g>
   <g id="patch_18">
    <path clip-path="url(#pb974dee5b8)" d="M 488.49304 26.442973 
Q 477.987129 108.002181 467.195543 191.779133 
" style="fill:none;stroke:#000000;stroke-linecap:round;stroke-width:2;"/>
    <path clip-path="url(#pb974dee5b8)" d="M 482.256436 35.722238 
L 488.49304 26.442973 
L 492.17449 36.999816 
L 482.256436 35.722238 
z
" style="stroke:#000000;stroke-linecap:round;stroke-width:2;"/>
   </g>
   <g id="patch_19">
    <path clip-path="url(#pb974dee5b8)" d="M 466.46628 118.213671 
Q 466.339515 153.84502 466.204796 191.712424 
" style="fill:none;stroke:#000000;stroke-linecap:round;stroke-width:2;"/>
    <path clip-path="url(#pb974dee5b8)" d="M 461.430735 128.195819 
L 466.46628 118.213671 
L 471.430672 128.231396 
L 461.430735 128.195819 
z
" style="stroke:#000000;stroke-linecap:round;stroke-width:2;"/>
   </g>
   <g id="patch_20">
    <path clip-path="url(#pb974dee5b8)" d="M 486.190747 25.863838 
Q 455.178123 107.998843 423.375631 192.225764 
" style="fill:none;stroke:#000000;stroke-linecap:round;stroke-width:2;"/>
    <path clip-path="url(#pb974dee5b8)" d="M 477.980688 33.45297 
L 486.190747 25.863838 
L 487.336017 36.985365 
L 477.980688 33.45297 
z
" style="stroke:#000000;stroke-linecap:round;stroke-width:2;"/>
   </g>
   <g id="PathCollection_3">
    <g>
     <use style="fill:#fec7b8;stroke:#000000;" x="420.556964" xlink:href="#m552c6a2a33" y="199.690828"/>
     <use style="fill:#fec7b8;stroke:#000000;" x="466.176411" xlink:href="#m552c6a2a33" y="199.690828"/>
     <use style="fill:#fec7b8;stroke:#000000;" x="512.466649" xlink:href="#m552c6a2a33" y="199.690828"/>
     <use style="fill:#fec7b8;stroke:#000000;" x="466.502616" xlink:href="#m552c6a2a33" y="108"/>
     <use style="fill:#fec7b8;stroke:#000000;" x="443.803601" xlink:href="#m552c6a2a33" y="16.309172"/>
     <use style="fill:#fec7b8;stroke:#000000;" x="489.798409" xlink:href="#m552c6a2a33" y="16.309172"/>
    </g>
   </g>
   <g id="text_10">
    <!-- {W} -->
    <g transform="translate(501.160399 202.450203)scale(0.1 -0.1)">
     <use xlink:href="#DejaVuSans-123"/>
     <use x="63.623047" xlink:href="#DejaVuSans-87"/>
     <use x="162.5" xlink:href="#DejaVuSans-125"/>
    </g>
   </g>
   <g id="text_11">
    <!-- {M} -->
    <g transform="translate(479.121846 19.068547)scale(0.1 -0.1)">
     <use xlink:href="#DejaVuSans-123"/>
     <use x="63.623047" xlink:href="#DejaVuSans-77"/>
     <use x="149.902344" xlink:href="#DejaVuSans-125"/>
    </g>
   </g>
   <g id="text_12">
    <!-- {V_union_W} -->
    <g transform="translate(432.821366 110.620312)scale(0.1 -0.1)">
     <use xlink:href="#DejaVuSans-123"/>
     <use x="63.623047" xlink:href="#DejaVuSans-86"/>
     <use x="132.03125" xlink:href="#DejaVuSans-95"/>
     <use x="182.03125" xlink:href="#DejaVuSans-117"/>
     <use x="245.410156" xlink:href="#DejaVuSans-110"/>
     <use x="308.789062" xlink:href="#DejaVuSans-105"/>
     <use x="336.572266" xlink:href="#DejaVuSans-111"/>
     <use x="397.753906" xlink:href="#DejaVuSans-110"/>
     <use x="461.132812" xlink:href="#DejaVuSans-95"/>
     <use x="511.132812" xlink:href="#DejaVuSans-87"/>
     <use x="610.009766" xlink:href="#DejaVuSans-125"/>
    </g>
   </g>
   <g id="text_13">
    <!-- {V} -->
    <g transform="translate(456.393599 202.450203)scale(0.1 -0.1)">
     <use xlink:href="#DejaVuSans-123"/>
     <use x="63.623047" xlink:href="#DejaVuSans-86"/>
     <use x="132.03125" xlink:href="#DejaVuSans-125"/>
    </g>
   </g>
   <g id="text_14">
    <!-- {U} -->
    <g transform="translate(410.535089 202.450203)scale(0.1 -0.1)">
     <use xlink:href="#DejaVuSans-123"/>
     <use x="63.623047" xlink:href="#DejaVuSans-85"/>
     <use x="136.816406" xlink:href="#DejaVuSans-125"/>
    </g>
   </g>
   <g id="text_15">
    <!-- [{V}, {W}] -->
    <g transform="translate(415.634851 19.068547)scale(0.1 -0.1)">
     <defs>
      <path d="M 8.59375 75.984375 
L 29.296875 75.984375 
L 29.296875 69 
L 17.578125 69 
L 17.578125 -6.203125 
L 29.296875 -6.203125 
L 29.296875 -13.1875 
L 8.59375 -13.1875 
z
" id="DejaVuSans-91"/>
      <path d="M 11.71875 12.40625 
L 22.015625 12.40625 
L 22.015625 4 
L 14.015625 -11.625 
L 7.71875 -11.625 
L 11.71875 4 
z
" id="DejaVuSans-44"/>
      <path id="DejaVuSans-32"/>
      <path d="M 30.421875 75.984375 
L 30.421875 -13.1875 
L 9.71875 -13.1875 
L 9.71875 -6.203125 
L 21.390625 -6.203125 
L 21.390625 69 
L 9.71875 69 
L 9.71875 75.984375 
z
" id="DejaVuSans-93"/>
     </defs>
     <use xlink:href="#DejaVuSans-91"/>
     <use x="39.013672" xlink:href="#DejaVuSans-123"/>
     <use x="102.636719" xlink:href="#DejaVuSans-86"/>
     <use x="171.044922" xlink:href="#DejaVuSans-125"/>
     <use x="234.667969" xlink:href="#DejaVuSans-44"/>
     <use x="266.455078" xlink:href="#DejaVuSans-32"/>
     <use x="298.242188" xlink:href="#DejaVuSans-123"/>
     <use x="361.865234" xlink:href="#DejaVuSans-87"/>
     <use x="460.742188" xlink:href="#DejaVuSans-125"/>
     <use x="524.365234" xlink:href="#DejaVuSans-93"/>
    </g>
   </g>
  </g>
 </g>
 <defs>
  <clipPath id="pdd38ab13c2">
   <rect height="190.716923" width="94.589685" x="62.193351" y="12.641538"/>
  </clipPath>
  <clipPath id="pa68e0539cd">
   <rect height="190.716923" width="95.722354" x="240.138823" y="12.641538"/>
  </clipPath>
  <clipPath id="pb974dee5b8">
   <rect height="190.716923" width="95.586072" x="418.71877" y="12.641538"/>
  </clipPath>
 </defs>
</svg>
