<?xml version="1.0" encoding="utf-8" standalone="no"?>
<!DOCTYPE svg PUBLIC "-//W3C//DTD SVG 1.1//EN"
  "http://www.w3.org/Graphics/SVG/1.1/DTD/svg11.dtd">
<!-- Created with matplotlib (http://matplotlib.org/) -->
<svg height="345.6pt" version="1.1" viewBox="0 0 460.8 345.6" width="460.8pt" xmlns="http://www.w3.org/2000/svg" xmlns:xlink="http://www.w3.org/1999/xlink">
 <defs>
  <style type="text/css">
*{stroke-linecap:butt;stroke-linejoin:round;}
  </style>
 </defs>
 <g id="figure_1">
  <g id="patch_1">
   <path d="M 0 345.6 
L 460.8 345.6 
L 460.8 0 
L 0 0 
z
" style="fill:#ffffff;"/>
  </g>
  <g id="axes_1">
   <g id="patch_2">
    <path d="M 2.52 343.08 
L 442.99 343.08 
L 442.99 24.56 
L 2.52 24.56 
z
" style="fill:#ffffff;"/>
   </g>
   <g id="matplotlib.axis_1">
    <g id="xtick_1">
     <g id="line2d_1">
      <defs>
       <path d="M 0 0 
L 0 3.5 
" id="m9fa36d4ea5" style="stroke:#000000;stroke-width:0.8;"/>
      </defs>
      <g>
       <use style="stroke:#000000;stroke-width:0.8;" x="10.990577" xlink:href="#m9fa36d4ea5" y="192.827919"/>
      </g>
     </g>
     <g id="text_1">
      <!-- -10 -->
      <defs>
       <path d="M 4.890625 31.390625 
L 31.203125 31.390625 
L 31.203125 23.390625 
L 4.890625 23.390625 
z
" id="DejaVuSans-2d"/>
       <path d="M 12.40625 8.296875 
L 28.515625 8.296875 
L 28.515625 63.921875 
L 10.984375 60.40625 
L 10.984375 69.390625 
L 28.421875 72.90625 
L 38.28125 72.90625 
L 38.28125 8.296875 
L 54.390625 8.296875 
L 54.390625 0 
L 12.40625 0 
z
" id="DejaVuSans-31"/>
       <path d="M 31.78125 66.40625 
Q 24.171875 66.40625 20.328125 58.90625 
Q 16.5 51.421875 16.5 36.375 
Q 16.5 21.390625 20.328125 13.890625 
Q 24.171875 6.390625 31.78125 6.390625 
Q 39.453125 6.390625 43.28125 13.890625 
Q 47.125 21.390625 47.125 36.375 
Q 47.125 51.421875 43.28125 58.90625 
Q 39.453125 66.40625 31.78125 66.40625 
z
M 31.78125 74.21875 
Q 44.046875 74.21875 50.515625 64.515625 
Q 56.984375 54.828125 56.984375 36.375 
Q 56.984375 17.96875 50.515625 8.265625 
Q 44.046875 -1.421875 31.78125 -1.421875 
Q 19.53125 -1.421875 13.0625 8.265625 
Q 6.59375 17.96875 6.59375 36.375 
Q 6.59375 54.828125 13.0625 64.515625 
Q 19.53125 74.21875 31.78125 74.21875 
z
" id="DejaVuSans-30"/>
      </defs>
      <g transform="translate(2.824171 207.426356)scale(0.1 -0.1)">
       <use xlink:href="#DejaVuSans-2d"/>
       <use x="36.083984" xlink:href="#DejaVuSans-31"/>
       <use x="99.707031" xlink:href="#DejaVuSans-30"/>
      </g>
     </g>
    </g>
    <g id="xtick_2">
     <g id="line2d_2">
      <g>
       <use style="stroke:#000000;stroke-width:0.8;" x="116.872788" xlink:href="#m9fa36d4ea5" y="192.827919"/>
      </g>
     </g>
     <g id="text_2">
      <!-- -5 -->
      <defs>
       <path d="M 10.796875 72.90625 
L 49.515625 72.90625 
L 49.515625 64.59375 
L 19.828125 64.59375 
L 19.828125 46.734375 
Q 21.96875 47.46875 24.109375 47.828125 
Q 26.265625 48.1875 28.421875 48.1875 
Q 40.625 48.1875 47.75 41.5 
Q 54.890625 34.8125 54.890625 23.390625 
Q 54.890625 11.625 47.5625 5.09375 
Q 40.234375 -1.421875 26.90625 -1.421875 
Q 22.3125 -1.421875 17.546875 -0.640625 
Q 12.796875 0.140625 7.71875 1.703125 
L 7.71875 11.625 
Q 12.109375 9.234375 16.796875 8.0625 
Q 21.484375 6.890625 26.703125 6.890625 
Q 35.15625 6.890625 40.078125 11.328125 
Q 45.015625 15.765625 45.015625 23.390625 
Q 45.015625 31 40.078125 35.4375 
Q 35.15625 39.890625 26.703125 39.890625 
Q 22.75 39.890625 18.8125 39.015625 
Q 14.890625 38.140625 10.796875 36.28125 
z
" id="DejaVuSans-35"/>
      </defs>
      <g transform="translate(111.887632 207.426356)scale(0.1 -0.1)">
       <use xlink:href="#DejaVuSans-2d"/>
       <use x="36.083984" xlink:href="#DejaVuSans-35"/>
      </g>
     </g>
    </g>
    <g id="xtick_3">
     <g id="line2d_3">
      <g>
       <use style="stroke:#000000;stroke-width:0.8;" x="222.755" xlink:href="#m9fa36d4ea5" y="192.827919"/>
      </g>
     </g>
    </g>
    <g id="xtick_4">
     <g id="line2d_4">
      <g>
       <use style="stroke:#000000;stroke-width:0.8;" x="328.637212" xlink:href="#m9fa36d4ea5" y="192.827919"/>
      </g>
     </g>
     <g id="text_3">
      <!-- 5 -->
      <g transform="translate(325.455962 207.426356)scale(0.1 -0.1)">
       <use xlink:href="#DejaVuSans-35"/>
      </g>
     </g>
    </g>
    <g id="xtick_5">
     <g id="line2d_5">
      <g>
       <use style="stroke:#000000;stroke-width:0.8;" x="434.519423" xlink:href="#m9fa36d4ea5" y="192.827919"/>
      </g>
     </g>
     <g id="text_4">
      <!-- 10 -->
      <g transform="translate(428.156923 207.426356)scale(0.1 -0.1)">
       <use xlink:href="#DejaVuSans-31"/>
       <use x="63.623047" xlink:href="#DejaVuSans-30"/>
      </g>
     </g>
    </g>
    <g id="xtick_6">
     <g id="line2d_6">
      <defs>
       <path d="M 0 0 
L 0 2 
" id="m66fda7aee3" style="stroke:#000000;stroke-width:0.6;"/>
      </defs>
      <g>
       <use style="stroke:#000000;stroke-width:0.6;" x="32.167019" xlink:href="#m66fda7aee3" y="192.827919"/>
      </g>
     </g>
    </g>
    <g id="xtick_7">
     <g id="line2d_7">
      <g>
       <use style="stroke:#000000;stroke-width:0.6;" x="53.343462" xlink:href="#m66fda7aee3" y="192.827919"/>
      </g>
     </g>
    </g>
    <g id="xtick_8">
     <g id="line2d_8">
      <g>
       <use style="stroke:#000000;stroke-width:0.6;" x="74.519904" xlink:href="#m66fda7aee3" y="192.827919"/>
      </g>
     </g>
    </g>
    <g id="xtick_9">
     <g id="line2d_9">
      <g>
       <use style="stroke:#000000;stroke-width:0.6;" x="95.696346" xlink:href="#m66fda7aee3" y="192.827919"/>
      </g>
     </g>
    </g>
    <g id="xtick_10">
     <g id="line2d_10">
      <g>
       <use style="stroke:#000000;stroke-width:0.6;" x="138.049231" xlink:href="#m66fda7aee3" y="192.827919"/>
      </g>
     </g>
    </g>
    <g id="xtick_11">
     <g id="line2d_11">
      <g>
       <use style="stroke:#000000;stroke-width:0.6;" x="159.225673" xlink:href="#m66fda7aee3" y="192.827919"/>
      </g>
     </g>
    </g>
    <g id="xtick_12">
     <g id="line2d_12">
      <g>
       <use style="stroke:#000000;stroke-width:0.6;" x="180.402115" xlink:href="#m66fda7aee3" y="192.827919"/>
      </g>
     </g>
    </g>
    <g id="xtick_13">
     <g id="line2d_13">
      <g>
       <use style="stroke:#000000;stroke-width:0.6;" x="201.578558" xlink:href="#m66fda7aee3" y="192.827919"/>
      </g>
     </g>
    </g>
    <g id="xtick_14">
     <g id="line2d_14">
      <g>
       <use style="stroke:#000000;stroke-width:0.6;" x="243.931442" xlink:href="#m66fda7aee3" y="192.827919"/>
      </g>
     </g>
    </g>
    <g id="xtick_15">
     <g id="line2d_15">
      <g>
       <use style="stroke:#000000;stroke-width:0.6;" x="265.107885" xlink:href="#m66fda7aee3" y="192.827919"/>
      </g>
     </g>
    </g>
    <g id="xtick_16">
     <g id="line2d_16">
      <g>
       <use style="stroke:#000000;stroke-width:0.6;" x="286.284327" xlink:href="#m66fda7aee3" y="192.827919"/>
      </g>
     </g>
    </g>
    <g id="xtick_17">
     <g id="line2d_17">
      <g>
       <use style="stroke:#000000;stroke-width:0.6;" x="307.460769" xlink:href="#m66fda7aee3" y="192.827919"/>
      </g>
     </g>
    </g>
    <g id="xtick_18">
     <g id="line2d_18">
      <g>
       <use style="stroke:#000000;stroke-width:0.6;" x="349.813654" xlink:href="#m66fda7aee3" y="192.827919"/>
      </g>
     </g>
    </g>
    <g id="xtick_19">
     <g id="line2d_19">
      <g>
       <use style="stroke:#000000;stroke-width:0.6;" x="370.990096" xlink:href="#m66fda7aee3" y="192.827919"/>
      </g>
     </g>
    </g>
    <g id="xtick_20">
     <g id="line2d_20">
      <g>
       <use style="stroke:#000000;stroke-width:0.6;" x="392.166538" xlink:href="#m66fda7aee3" y="192.827919"/>
      </g>
     </g>
    </g>
    <g id="xtick_21">
     <g id="line2d_21">
      <g>
       <use style="stroke:#000000;stroke-width:0.6;" x="413.342981" xlink:href="#m66fda7aee3" y="192.827919"/>
      </g>
     </g>
    </g>
    <g id="text_5">
     <!-- $ x $ -->
     <defs>
      <path d="M 7.8125 2.875 
Q 9.578125 1.515625 12.796875 1.515625 
Q 15.921875 1.515625 18.3125 4.515625 
Q 20.703125 7.515625 21.578125 11.078125 
L 26.125 28.8125 
Q 27.203125 33.640625 27.203125 35.40625 
Q 27.203125 37.890625 25.8125 39.75 
Q 24.421875 41.609375 21.921875 41.609375 
Q 18.75 41.609375 15.96875 39.625 
Q 13.1875 37.640625 11.28125 34.59375 
Q 9.375 31.546875 8.59375 28.421875 
Q 8.40625 27.78125 7.8125 27.78125 
L 6.59375 27.78125 
Q 5.8125 27.78125 5.8125 28.71875 
L 5.8125 29 
Q 6.78125 32.71875 9.125 36.25 
Q 11.46875 39.796875 14.859375 41.984375 
Q 18.265625 44.1875 22.125 44.1875 
Q 25.78125 44.1875 28.734375 42.234375 
Q 31.6875 40.28125 32.90625 36.921875 
Q 34.625 39.984375 37.28125 42.078125 
Q 39.9375 44.1875 43.109375 44.1875 
Q 45.265625 44.1875 47.5 43.421875 
Q 49.75 42.671875 51.171875 41.109375 
Q 52.59375 39.546875 52.59375 37.203125 
Q 52.59375 34.671875 50.953125 32.828125 
Q 49.3125 31 46.78125 31 
Q 45.171875 31 44.09375 32.03125 
Q 43.015625 33.0625 43.015625 34.625 
Q 43.015625 36.71875 44.453125 38.296875 
Q 45.90625 39.890625 47.90625 40.1875 
Q 46.09375 41.609375 42.921875 41.609375 
Q 39.703125 41.609375 37.328125 38.625 
Q 34.96875 35.640625 33.984375 31.984375 
L 29.59375 14.3125 
Q 28.515625 10.296875 28.515625 7.71875 
Q 28.515625 5.171875 29.953125 3.34375 
Q 31.390625 1.515625 33.796875 1.515625 
Q 38.484375 1.515625 42.15625 5.640625 
Q 45.84375 9.765625 47.015625 14.703125 
Q 47.21875 15.28125 47.796875 15.28125 
L 49.03125 15.28125 
Q 49.421875 15.28125 49.65625 15.015625 
Q 49.90625 14.75 49.90625 14.40625 
Q 49.90625 14.3125 49.8125 14.109375 
Q 48.390625 8.15625 43.84375 3.515625 
Q 39.3125 -1.125 33.59375 -1.125 
Q 29.9375 -1.125 26.984375 0.84375 
Q 24.03125 2.828125 22.796875 6.203125 
Q 21.234375 3.265625 18.46875 1.0625 
Q 15.71875 -1.125 12.59375 -1.125 
Q 10.453125 -1.125 8.171875 -0.359375 
Q 5.90625 0.390625 4.484375 1.953125 
Q 3.078125 3.515625 3.078125 5.90625 
Q 3.078125 8.25 4.703125 10.171875 
Q 6.34375 12.109375 8.796875 12.109375 
Q 10.453125 12.109375 11.578125 11.109375 
Q 12.703125 10.109375 12.703125 8.5 
Q 12.703125 6.390625 11.296875 4.828125 
Q 9.90625 3.265625 7.8125 2.875 
z
" id="Cmmi10-78"/>
     </defs>
     <g transform="translate(450.99 192.827919)scale(0.16 -0.16)">
      <use transform="translate(0 0.8125)" xlink:href="#Cmmi10-78"/>
     </g>
    </g>
   </g>
   <g id="matplotlib.axis_2">
    <g id="ytick_1">
     <g id="line2d_22">
      <defs>
       <path d="M 0 0 
L -3.5 0 
" id="md901dad30c" style="stroke:#000000;stroke-width:0.8;"/>
      </defs>
      <g>
       <use style="stroke:#000000;stroke-width:0.8;" x="222.755" xlink:href="#md901dad30c" y="336.954615"/>
      </g>
     </g>
     <g id="text_6">
      <!-- -8 -->
      <defs>
       <path d="M 31.78125 34.625 
Q 24.75 34.625 20.71875 30.859375 
Q 16.703125 27.09375 16.703125 20.515625 
Q 16.703125 13.921875 20.71875 10.15625 
Q 24.75 6.390625 31.78125 6.390625 
Q 38.8125 6.390625 42.859375 10.171875 
Q 46.921875 13.96875 46.921875 20.515625 
Q 46.921875 27.09375 42.890625 30.859375 
Q 38.875 34.625 31.78125 34.625 
z
M 21.921875 38.8125 
Q 15.578125 40.375 12.03125 44.71875 
Q 8.5 49.078125 8.5 55.328125 
Q 8.5 64.0625 14.71875 69.140625 
Q 20.953125 74.21875 31.78125 74.21875 
Q 42.671875 74.21875 48.875 69.140625 
Q 55.078125 64.0625 55.078125 55.328125 
Q 55.078125 49.078125 51.53125 44.71875 
Q 48 40.375 41.703125 38.8125 
Q 48.828125 37.15625 52.796875 32.3125 
Q 56.78125 27.484375 56.78125 20.515625 
Q 56.78125 9.90625 50.3125 4.234375 
Q 43.84375 -1.421875 31.78125 -1.421875 
Q 19.734375 -1.421875 13.25 4.234375 
Q 6.78125 9.90625 6.78125 20.515625 
Q 6.78125 27.484375 10.78125 32.3125 
Q 14.796875 37.15625 21.921875 38.8125 
z
M 18.3125 54.390625 
Q 18.3125 48.734375 21.84375 45.5625 
Q 25.390625 42.390625 31.78125 42.390625 
Q 38.140625 42.390625 41.71875 45.5625 
Q 45.3125 48.734375 45.3125 54.390625 
Q 45.3125 60.0625 41.71875 63.234375 
Q 38.140625 66.40625 31.78125 66.40625 
Q 25.390625 66.40625 21.84375 63.234375 
Q 18.3125 60.0625 18.3125 54.390625 
z
" id="DejaVuSans-38"/>
      </defs>
      <g transform="translate(205.784688 340.753834)scale(0.1 -0.1)">
       <use xlink:href="#DejaVuSans-2d"/>
       <use x="36.083984" xlink:href="#DejaVuSans-38"/>
      </g>
     </g>
    </g>
    <g id="ytick_2">
     <g id="line2d_23">
      <g>
       <use style="stroke:#000000;stroke-width:0.8;" x="222.755" xlink:href="#md901dad30c" y="300.922941"/>
      </g>
     </g>
     <g id="text_7">
      <!-- -6 -->
      <defs>
       <path d="M 33.015625 40.375 
Q 26.375 40.375 22.484375 35.828125 
Q 18.609375 31.296875 18.609375 23.390625 
Q 18.609375 15.53125 22.484375 10.953125 
Q 26.375 6.390625 33.015625 6.390625 
Q 39.65625 6.390625 43.53125 10.953125 
Q 47.40625 15.53125 47.40625 23.390625 
Q 47.40625 31.296875 43.53125 35.828125 
Q 39.65625 40.375 33.015625 40.375 
z
M 52.59375 71.296875 
L 52.59375 62.3125 
Q 48.875 64.0625 45.09375 64.984375 
Q 41.3125 65.921875 37.59375 65.921875 
Q 27.828125 65.921875 22.671875 59.328125 
Q 17.53125 52.734375 16.796875 39.40625 
Q 19.671875 43.65625 24.015625 45.921875 
Q 28.375 48.1875 33.59375 48.1875 
Q 44.578125 48.1875 50.953125 41.515625 
Q 57.328125 34.859375 57.328125 23.390625 
Q 57.328125 12.15625 50.6875 5.359375 
Q 44.046875 -1.421875 33.015625 -1.421875 
Q 20.359375 -1.421875 13.671875 8.265625 
Q 6.984375 17.96875 6.984375 36.375 
Q 6.984375 53.65625 15.1875 63.9375 
Q 23.390625 74.21875 37.203125 74.21875 
Q 40.921875 74.21875 44.703125 73.484375 
Q 48.484375 72.75 52.59375 71.296875 
z
" id="DejaVuSans-36"/>
      </defs>
      <g transform="translate(205.784688 304.72216)scale(0.1 -0.1)">
       <use xlink:href="#DejaVuSans-2d"/>
       <use x="36.083984" xlink:href="#DejaVuSans-36"/>
      </g>
     </g>
    </g>
    <g id="ytick_3">
     <g id="line2d_24">
      <g>
       <use style="stroke:#000000;stroke-width:0.8;" x="222.755" xlink:href="#md901dad30c" y="264.891267"/>
      </g>
     </g>
     <g id="text_8">
      <!-- -4 -->
      <defs>
       <path d="M 37.796875 64.3125 
L 12.890625 25.390625 
L 37.796875 25.390625 
z
M 35.203125 72.90625 
L 47.609375 72.90625 
L 47.609375 25.390625 
L 58.015625 25.390625 
L 58.015625 17.1875 
L 47.609375 17.1875 
L 47.609375 0 
L 37.796875 0 
L 37.796875 17.1875 
L 4.890625 17.1875 
L 4.890625 26.703125 
z
" id="DejaVuSans-34"/>
      </defs>
      <g transform="translate(205.784688 268.690486)scale(0.1 -0.1)">
       <use xlink:href="#DejaVuSans-2d"/>
       <use x="36.083984" xlink:href="#DejaVuSans-34"/>
      </g>
     </g>
    </g>
    <g id="ytick_4">
     <g id="line2d_25">
      <g>
       <use style="stroke:#000000;stroke-width:0.8;" x="222.755" xlink:href="#md901dad30c" y="228.859593"/>
      </g>
     </g>
     <g id="text_9">
      <!-- -2 -->
      <defs>
       <path d="M 19.1875 8.296875 
L 53.609375 8.296875 
L 53.609375 0 
L 7.328125 0 
L 7.328125 8.296875 
Q 12.9375 14.109375 22.625 23.890625 
Q 32.328125 33.6875 34.8125 36.53125 
Q 39.546875 41.84375 41.421875 45.53125 
Q 43.3125 49.21875 43.3125 52.78125 
Q 43.3125 58.59375 39.234375 62.25 
Q 35.15625 65.921875 28.609375 65.921875 
Q 23.96875 65.921875 18.8125 64.3125 
Q 13.671875 62.703125 7.8125 59.421875 
L 7.8125 69.390625 
Q 13.765625 71.78125 18.9375 73 
Q 24.125 74.21875 28.421875 74.21875 
Q 39.75 74.21875 46.484375 68.546875 
Q 53.21875 62.890625 53.21875 53.421875 
Q 53.21875 48.921875 51.53125 44.890625 
Q 49.859375 40.875 45.40625 35.40625 
Q 44.1875 33.984375 37.640625 27.21875 
Q 31.109375 20.453125 19.1875 8.296875 
z
" id="DejaVuSans-32"/>
      </defs>
      <g transform="translate(205.784688 232.658812)scale(0.1 -0.1)">
       <use xlink:href="#DejaVuSans-2d"/>
       <use x="36.083984" xlink:href="#DejaVuSans-32"/>
      </g>
     </g>
    </g>
    <g id="ytick_5">
     <g id="line2d_26">
      <g>
       <use style="stroke:#000000;stroke-width:0.8;" x="222.755" xlink:href="#md901dad30c" y="192.827919"/>
      </g>
     </g>
    </g>
    <g id="ytick_6">
     <g id="line2d_27">
      <g>
       <use style="stroke:#000000;stroke-width:0.8;" x="222.755" xlink:href="#md901dad30c" y="156.796244"/>
      </g>
     </g>
     <g id="text_10">
      <!-- 2 -->
      <g transform="translate(209.3925 160.595463)scale(0.1 -0.1)">
       <use xlink:href="#DejaVuSans-32"/>
      </g>
     </g>
    </g>
    <g id="ytick_7">
     <g id="line2d_28">
      <g>
       <use style="stroke:#000000;stroke-width:0.8;" x="222.755" xlink:href="#md901dad30c" y="120.76457"/>
      </g>
     </g>
     <g id="text_11">
      <!-- 4 -->
      <g transform="translate(209.3925 124.563789)scale(0.1 -0.1)">
       <use xlink:href="#DejaVuSans-34"/>
      </g>
     </g>
    </g>
    <g id="ytick_8">
     <g id="line2d_29">
      <g>
       <use style="stroke:#000000;stroke-width:0.8;" x="222.755" xlink:href="#md901dad30c" y="84.732896"/>
      </g>
     </g>
     <g id="text_12">
      <!-- 6 -->
      <g transform="translate(209.3925 88.532115)scale(0.1 -0.1)">
       <use xlink:href="#DejaVuSans-36"/>
      </g>
     </g>
    </g>
    <g id="ytick_9">
     <g id="line2d_30">
      <g>
       <use style="stroke:#000000;stroke-width:0.8;" x="222.755" xlink:href="#md901dad30c" y="48.701222"/>
      </g>
     </g>
     <g id="text_13">
      <!-- 8 -->
      <g transform="translate(209.3925 52.50044)scale(0.1 -0.1)">
       <use xlink:href="#DejaVuSans-38"/>
      </g>
     </g>
    </g>
    <g id="ytick_10">
     <g id="line2d_31">
      <defs>
       <path d="M 0 0 
L -2 0 
" id="m1f6df512f7" style="stroke:#000000;stroke-width:0.6;"/>
      </defs>
      <g>
       <use style="stroke:#000000;stroke-width:0.6;" x="222.755" xlink:href="#m1f6df512f7" y="327.946697"/>
      </g>
     </g>
    </g>
    <g id="ytick_11">
     <g id="line2d_32">
      <g>
       <use style="stroke:#000000;stroke-width:0.6;" x="222.755" xlink:href="#m1f6df512f7" y="318.938778"/>
      </g>
     </g>
    </g>
    <g id="ytick_12">
     <g id="line2d_33">
      <g>
       <use style="stroke:#000000;stroke-width:0.6;" x="222.755" xlink:href="#m1f6df512f7" y="309.93086"/>
      </g>
     </g>
    </g>
    <g id="ytick_13">
     <g id="line2d_34">
      <g>
       <use style="stroke:#000000;stroke-width:0.6;" x="222.755" xlink:href="#m1f6df512f7" y="291.915023"/>
      </g>
     </g>
    </g>
    <g id="ytick_14">
     <g id="line2d_35">
      <g>
       <use style="stroke:#000000;stroke-width:0.6;" x="222.755" xlink:href="#m1f6df512f7" y="282.907104"/>
      </g>
     </g>
    </g>
    <g id="ytick_15">
     <g id="line2d_36">
      <g>
       <use style="stroke:#000000;stroke-width:0.6;" x="222.755" xlink:href="#m1f6df512f7" y="273.899186"/>
      </g>
     </g>
    </g>
    <g id="ytick_16">
     <g id="line2d_37">
      <g>
       <use style="stroke:#000000;stroke-width:0.6;" x="222.755" xlink:href="#m1f6df512f7" y="255.883348"/>
      </g>
     </g>
    </g>
    <g id="ytick_17">
     <g id="line2d_38">
      <g>
       <use style="stroke:#000000;stroke-width:0.6;" x="222.755" xlink:href="#m1f6df512f7" y="246.87543"/>
      </g>
     </g>
    </g>
    <g id="ytick_18">
     <g id="line2d_39">
      <g>
       <use style="stroke:#000000;stroke-width:0.6;" x="222.755" xlink:href="#m1f6df512f7" y="237.867511"/>
      </g>
     </g>
    </g>
    <g id="ytick_19">
     <g id="line2d_40">
      <g>
       <use style="stroke:#000000;stroke-width:0.6;" x="222.755" xlink:href="#m1f6df512f7" y="219.851674"/>
      </g>
     </g>
    </g>
    <g id="ytick_20">
     <g id="line2d_41">
      <g>
       <use style="stroke:#000000;stroke-width:0.6;" x="222.755" xlink:href="#m1f6df512f7" y="210.843756"/>
      </g>
     </g>
    </g>
    <g id="ytick_21">
     <g id="line2d_42">
      <g>
       <use style="stroke:#000000;stroke-width:0.6;" x="222.755" xlink:href="#m1f6df512f7" y="201.835837"/>
      </g>
     </g>
    </g>
    <g id="ytick_22">
     <g id="line2d_43">
      <g>
       <use style="stroke:#000000;stroke-width:0.6;" x="222.755" xlink:href="#m1f6df512f7" y="183.82"/>
      </g>
     </g>
    </g>
    <g id="ytick_23">
     <g id="line2d_44">
      <g>
       <use style="stroke:#000000;stroke-width:0.6;" x="222.755" xlink:href="#m1f6df512f7" y="174.812081"/>
      </g>
     </g>
    </g>
    <g id="ytick_24">
     <g id="line2d_45">
      <g>
       <use style="stroke:#000000;stroke-width:0.6;" x="222.755" xlink:href="#m1f6df512f7" y="165.804163"/>
      </g>
     </g>
    </g>
    <g id="ytick_25">
     <g id="line2d_46">
      <g>
       <use style="stroke:#000000;stroke-width:0.6;" x="222.755" xlink:href="#m1f6df512f7" y="147.788326"/>
      </g>
     </g>
    </g>
    <g id="ytick_26">
     <g id="line2d_47">
      <g>
       <use style="stroke:#000000;stroke-width:0.6;" x="222.755" xlink:href="#m1f6df512f7" y="138.780407"/>
      </g>
     </g>
    </g>
    <g id="ytick_27">
     <g id="line2d_48">
      <g>
       <use style="stroke:#000000;stroke-width:0.6;" x="222.755" xlink:href="#m1f6df512f7" y="129.772489"/>
      </g>
     </g>
    </g>
    <g id="ytick_28">
     <g id="line2d_49">
      <g>
       <use style="stroke:#000000;stroke-width:0.6;" x="222.755" xlink:href="#m1f6df512f7" y="111.756652"/>
      </g>
     </g>
    </g>
    <g id="ytick_29">
     <g id="line2d_50">
      <g>
       <use style="stroke:#000000;stroke-width:0.6;" x="222.755" xlink:href="#m1f6df512f7" y="102.748733"/>
      </g>
     </g>
    </g>
    <g id="ytick_30">
     <g id="line2d_51">
      <g>
       <use style="stroke:#000000;stroke-width:0.6;" x="222.755" xlink:href="#m1f6df512f7" y="93.740814"/>
      </g>
     </g>
    </g>
    <g id="ytick_31">
     <g id="line2d_52">
      <g>
       <use style="stroke:#000000;stroke-width:0.6;" x="222.755" xlink:href="#m1f6df512f7" y="75.724977"/>
      </g>
     </g>
    </g>
    <g id="ytick_32">
     <g id="line2d_53">
      <g>
       <use style="stroke:#000000;stroke-width:0.6;" x="222.755" xlink:href="#m1f6df512f7" y="66.717059"/>
      </g>
     </g>
    </g>
    <g id="ytick_33">
     <g id="line2d_54">
      <g>
       <use style="stroke:#000000;stroke-width:0.6;" x="222.755" xlink:href="#m1f6df512f7" y="57.70914"/>
      </g>
     </g>
    </g>
    <g id="ytick_34">
     <g id="line2d_55">
      <g>
       <use style="stroke:#000000;stroke-width:0.6;" x="222.755" xlink:href="#m1f6df512f7" y="39.693303"/>
      </g>
     </g>
    </g>
    <g id="ytick_35">
     <g id="line2d_56">
      <g>
       <use style="stroke:#000000;stroke-width:0.6;" x="222.755" xlink:href="#m1f6df512f7" y="30.685385"/>
      </g>
     </g>
    </g>
    <g id="text_14">
     <!-- $ t $ -->
     <defs>
      <path d="M 6.203125 8.109375 
Q 6.203125 9.578125 6.5 10.890625 
L 13.71875 39.59375 
L 3.21875 39.59375 
Q 2.203125 39.59375 2.203125 40.921875 
Q 2.59375 43.109375 3.515625 43.109375 
L 14.59375 43.109375 
L 18.609375 59.421875 
Q 19 60.75 20.171875 61.671875 
Q 21.34375 62.59375 22.796875 62.59375 
Q 24.078125 62.59375 24.921875 61.828125 
Q 25.78125 61.078125 25.78125 59.8125 
Q 25.78125 59.515625 25.75 59.34375 
Q 25.734375 59.1875 25.6875 58.984375 
L 21.6875 43.109375 
L 31.984375 43.109375 
Q 33.015625 43.109375 33.015625 41.796875 
Q 32.953125 41.546875 32.8125 40.953125 
Q 32.671875 40.375 32.421875 39.984375 
Q 32.171875 39.59375 31.6875 39.59375 
L 20.796875 39.59375 
L 13.625 10.6875 
Q 12.890625 7.859375 12.890625 5.8125 
Q 12.890625 1.515625 15.828125 1.515625 
Q 20.21875 1.515625 23.609375 5.640625 
Q 27 9.765625 28.8125 14.703125 
Q 29.203125 15.28125 29.59375 15.28125 
L 30.8125 15.28125 
Q 31.203125 15.28125 31.4375 15.015625 
Q 31.6875 14.75 31.6875 14.40625 
Q 31.6875 14.203125 31.59375 14.109375 
Q 29.390625 8.0625 25.1875 3.46875 
Q 21 -1.125 15.578125 -1.125 
Q 11.625 -1.125 8.90625 1.453125 
Q 6.203125 4.046875 6.203125 8.109375 
z
" id="Cmmi10-74"/>
     </defs>
     <g transform="translate(219.795 13.2325)scale(0.16 -0.16)">
      <use transform="translate(0 0.40625)" xlink:href="#Cmmi10-74"/>
     </g>
    </g>
   </g>
   <g id="patch_3">
    <path clip-path="url(#p5606657888)" d="M 53.343462 336.954615 
Q 74.519904 327.946697 93.638701 319.814048 
" style="fill:none;stroke:#0000ff;stroke-linecap:round;stroke-width:2;"/>
    <path clip-path="url(#p5606657888)" d="M 82.47947 319.127339 
L 93.638701 319.814048 
L 86.393796 328.329407 
L 82.47947 319.127339 
z
" style="fill:#0000ff;stroke:#0000ff;stroke-linecap:round;stroke-width:2;"/>
   </g>
   <g id="patch_4">
    <path clip-path="url(#p5606657888)" d="M 95.696346 336.954615 
Q 116.872788 327.946697 135.991586 319.814048 
" style="fill:none;stroke:#0000ff;stroke-linecap:round;stroke-width:2;"/>
    <path clip-path="url(#p5606657888)" d="M 124.832355 319.127339 
L 135.991586 319.814048 
L 128.74668 328.329407 
L 124.832355 319.127339 
z
" style="fill:#0000ff;stroke:#0000ff;stroke-linecap:round;stroke-width:2;"/>
   </g>
   <g id="patch_5">
    <path clip-path="url(#p5606657888)" d="M 138.049231 336.954615 
Q 159.225673 327.946697 178.34447 319.814048 
" style="fill:none;stroke:#0000ff;stroke-linecap:round;stroke-width:2;"/>
    <path clip-path="url(#p5606657888)" d="M 167.18524 319.127339 
L 178.34447 319.814048 
L 171.099565 328.329407 
L 167.18524 319.127339 
z
" style="fill:#0000ff;stroke:#0000ff;stroke-linecap:round;stroke-width:2;"/>
   </g>
   <g id="patch_6">
    <path clip-path="url(#p5606657888)" d="M 180.402115 336.954615 
Q 201.578558 327.946697 220.697355 319.814048 
" style="fill:none;stroke:#0000ff;stroke-linecap:round;stroke-width:2;"/>
    <path clip-path="url(#p5606657888)" d="M 209.538124 319.127339 
L 220.697355 319.814048 
L 213.452449 328.329407 
L 209.538124 319.127339 
z
" style="fill:#0000ff;stroke:#0000ff;stroke-linecap:round;stroke-width:2;"/>
   </g>
   <g id="patch_7">
    <path clip-path="url(#p5606657888)" d="M 222.755 336.954615 
Q 243.931442 327.946697 263.05024 319.814048 
" style="fill:none;stroke:#0000ff;stroke-linecap:round;stroke-width:2;"/>
    <path clip-path="url(#p5606657888)" d="M 251.891009 319.127339 
L 263.05024 319.814048 
L 255.805334 328.329407 
L 251.891009 319.127339 
z
" style="fill:#0000ff;stroke:#0000ff;stroke-linecap:round;stroke-width:2;"/>
   </g>
   <g id="patch_8">
    <path clip-path="url(#p5606657888)" d="M 265.107885 336.954615 
Q 286.284327 327.946697 305.403124 319.814048 
" style="fill:none;stroke:#0000ff;stroke-linecap:round;stroke-width:2;"/>
    <path clip-path="url(#p5606657888)" d="M 294.243893 319.127339 
L 305.403124 319.814048 
L 298.158219 328.329407 
L 294.243893 319.127339 
z
" style="fill:#0000ff;stroke:#0000ff;stroke-linecap:round;stroke-width:2;"/>
   </g>
   <g id="patch_9">
    <path clip-path="url(#p5606657888)" d="M 307.460769 336.954615 
Q 328.637212 327.946697 347.756009 319.814048 
" style="fill:none;stroke:#0000ff;stroke-linecap:round;stroke-width:2;"/>
    <path clip-path="url(#p5606657888)" d="M 336.596778 319.127339 
L 347.756009 319.814048 
L 340.511103 328.329407 
L 336.596778 319.127339 
z
" style="fill:#0000ff;stroke:#0000ff;stroke-linecap:round;stroke-width:2;"/>
   </g>
   <g id="patch_10">
    <path clip-path="url(#p5606657888)" d="M 349.813654 336.954615 
Q 370.990096 327.946697 390.108893 319.814048 
" style="fill:none;stroke:#0000ff;stroke-linecap:round;stroke-width:2;"/>
    <path clip-path="url(#p5606657888)" d="M 378.949663 319.127339 
L 390.108893 319.814048 
L 382.863988 328.329407 
L 378.949663 319.127339 
z
" style="fill:#0000ff;stroke:#0000ff;stroke-linecap:round;stroke-width:2;"/>
   </g>
   <g id="patch_11">
    <path clip-path="url(#p5606657888)" d="M 392.166538 336.954615 
Q 413.342981 327.946697 432.461778 319.814048 
" style="fill:none;stroke:#0000ff;stroke-linecap:round;stroke-width:2;"/>
    <path clip-path="url(#p5606657888)" d="M 421.302547 319.127339 
L 432.461778 319.814048 
L 425.216872 328.329407 
L 421.302547 319.127339 
z
" style="fill:#0000ff;stroke:#0000ff;stroke-linecap:round;stroke-width:2;"/>
   </g>
   <g id="patch_12">
    <path clip-path="url(#p5606657888)" d="M 53.343462 300.922941 
Q 69.225793 295.855987 82.977841 291.468659 
" style="fill:none;stroke:#0000ff;stroke-linecap:round;stroke-width:2;"/>
    <path clip-path="url(#p5606657888)" d="M 71.931233 289.744581 
L 82.977841 291.468659 
L 74.970614 299.271499 
L 71.931233 289.744581 
z
" style="fill:#0000ff;stroke:#0000ff;stroke-linecap:round;stroke-width:2;"/>
   </g>
   <g id="patch_13">
    <path clip-path="url(#p5606657888)" d="M 95.696346 300.922941 
Q 111.578678 295.855987 125.330726 291.468659 
" style="fill:none;stroke:#0000ff;stroke-linecap:round;stroke-width:2;"/>
    <path clip-path="url(#p5606657888)" d="M 114.284118 289.744581 
L 125.330726 291.468659 
L 117.323499 299.271499 
L 114.284118 289.744581 
z
" style="fill:#0000ff;stroke:#0000ff;stroke-linecap:round;stroke-width:2;"/>
   </g>
   <g id="patch_14">
    <path clip-path="url(#p5606657888)" d="M 138.049231 300.922941 
Q 153.931563 295.855987 167.683611 291.468659 
" style="fill:none;stroke:#0000ff;stroke-linecap:round;stroke-width:2;"/>
    <path clip-path="url(#p5606657888)" d="M 156.637002 289.744581 
L 167.683611 291.468659 
L 159.676383 299.271499 
L 156.637002 289.744581 
z
" style="fill:#0000ff;stroke:#0000ff;stroke-linecap:round;stroke-width:2;"/>
   </g>
   <g id="patch_15">
    <path clip-path="url(#p5606657888)" d="M 180.402115 300.922941 
Q 196.284447 295.855987 210.036495 291.468659 
" style="fill:none;stroke:#0000ff;stroke-linecap:round;stroke-width:2;"/>
    <path clip-path="url(#p5606657888)" d="M 198.989887 289.744581 
L 210.036495 291.468659 
L 202.029268 299.271499 
L 198.989887 289.744581 
z
" style="fill:#0000ff;stroke:#0000ff;stroke-linecap:round;stroke-width:2;"/>
   </g>
   <g id="patch_16">
    <path clip-path="url(#p5606657888)" d="M 222.755 300.922941 
Q 238.637332 295.855987 252.38938 291.468659 
" style="fill:none;stroke:#0000ff;stroke-linecap:round;stroke-width:2;"/>
    <path clip-path="url(#p5606657888)" d="M 241.342772 289.744581 
L 252.38938 291.468659 
L 244.382152 299.271499 
L 241.342772 289.744581 
z
" style="fill:#0000ff;stroke:#0000ff;stroke-linecap:round;stroke-width:2;"/>
   </g>
   <g id="patch_17">
    <path clip-path="url(#p5606657888)" d="M 265.107885 300.922941 
Q 280.990216 295.855987 294.742264 291.468659 
" style="fill:none;stroke:#0000ff;stroke-linecap:round;stroke-width:2;"/>
    <path clip-path="url(#p5606657888)" d="M 283.695656 289.744581 
L 294.742264 291.468659 
L 286.735037 299.271499 
L 283.695656 289.744581 
z
" style="fill:#0000ff;stroke:#0000ff;stroke-linecap:round;stroke-width:2;"/>
   </g>
   <g id="patch_18">
    <path clip-path="url(#p5606657888)" d="M 307.460769 300.922941 
Q 323.343101 295.855987 337.095149 291.468659 
" style="fill:none;stroke:#0000ff;stroke-linecap:round;stroke-width:2;"/>
    <path clip-path="url(#p5606657888)" d="M 326.048541 289.744581 
L 337.095149 291.468659 
L 329.087922 299.271499 
L 326.048541 289.744581 
z
" style="fill:#0000ff;stroke:#0000ff;stroke-linecap:round;stroke-width:2;"/>
   </g>
   <g id="patch_19">
    <path clip-path="url(#p5606657888)" d="M 349.813654 300.922941 
Q 365.695986 295.855987 379.448034 291.468659 
" style="fill:none;stroke:#0000ff;stroke-linecap:round;stroke-width:2;"/>
    <path clip-path="url(#p5606657888)" d="M 368.401425 289.744581 
L 379.448034 291.468659 
L 371.440806 299.271499 
L 368.401425 289.744581 
z
" style="fill:#0000ff;stroke:#0000ff;stroke-linecap:round;stroke-width:2;"/>
   </g>
   <g id="patch_20">
    <path clip-path="url(#p5606657888)" d="M 392.166538 300.922941 
Q 408.04887 295.855987 421.800918 291.468659 
" style="fill:none;stroke:#0000ff;stroke-linecap:round;stroke-width:2;"/>
    <path clip-path="url(#p5606657888)" d="M 410.75431 289.744581 
L 421.800918 291.468659 
L 413.793691 299.271499 
L 410.75431 289.744581 
z
" style="fill:#0000ff;stroke:#0000ff;stroke-linecap:round;stroke-width:2;"/>
   </g>
   <g id="patch_21">
    <path clip-path="url(#p5606657888)" d="M 53.343462 264.891267 
Q 63.931683 262.639287 72.332757 260.852486 
" style="fill:none;stroke:#0000ff;stroke-linecap:round;stroke-width:2;"/>
    <path clip-path="url(#p5606657888)" d="M 61.511372 258.042218 
L 72.332757 260.852486 
L 63.591711 267.823434 
L 61.511372 258.042218 
z
" style="fill:#0000ff;stroke:#0000ff;stroke-linecap:round;stroke-width:2;"/>
   </g>
   <g id="patch_22">
    <path clip-path="url(#p5606657888)" d="M 95.696346 264.891267 
Q 106.284567 262.639287 114.685642 260.852486 
" style="fill:none;stroke:#0000ff;stroke-linecap:round;stroke-width:2;"/>
    <path clip-path="url(#p5606657888)" d="M 103.864256 258.042218 
L 114.685642 260.852486 
L 105.944596 267.823434 
L 103.864256 258.042218 
z
" style="fill:#0000ff;stroke:#0000ff;stroke-linecap:round;stroke-width:2;"/>
   </g>
   <g id="patch_23">
    <path clip-path="url(#p5606657888)" d="M 138.049231 264.891267 
Q 148.637452 262.639287 157.038527 260.852486 
" style="fill:none;stroke:#0000ff;stroke-linecap:round;stroke-width:2;"/>
    <path clip-path="url(#p5606657888)" d="M 146.217141 258.042218 
L 157.038527 260.852486 
L 148.297481 267.823434 
L 146.217141 258.042218 
z
" style="fill:#0000ff;stroke:#0000ff;stroke-linecap:round;stroke-width:2;"/>
   </g>
   <g id="patch_24">
    <path clip-path="url(#p5606657888)" d="M 180.402115 264.891267 
Q 190.990337 262.639287 199.391411 260.852486 
" style="fill:none;stroke:#0000ff;stroke-linecap:round;stroke-width:2;"/>
    <path clip-path="url(#p5606657888)" d="M 188.570025 258.042218 
L 199.391411 260.852486 
L 190.650365 267.823434 
L 188.570025 258.042218 
z
" style="fill:#0000ff;stroke:#0000ff;stroke-linecap:round;stroke-width:2;"/>
   </g>
   <g id="patch_25">
    <path clip-path="url(#p5606657888)" d="M 222.755 264.891267 
Q 233.343221 262.639287 241.744296 260.852486 
" style="fill:none;stroke:#0000ff;stroke-linecap:round;stroke-width:2;"/>
    <path clip-path="url(#p5606657888)" d="M 230.92291 258.042218 
L 241.744296 260.852486 
L 233.00325 267.823434 
L 230.92291 258.042218 
z
" style="fill:#0000ff;stroke:#0000ff;stroke-linecap:round;stroke-width:2;"/>
   </g>
   <g id="patch_26">
    <path clip-path="url(#p5606657888)" d="M 265.107885 264.891267 
Q 275.696106 262.639287 284.097181 260.852486 
" style="fill:none;stroke:#0000ff;stroke-linecap:round;stroke-width:2;"/>
    <path clip-path="url(#p5606657888)" d="M 273.275795 258.042218 
L 284.097181 260.852486 
L 275.356135 267.823434 
L 273.275795 258.042218 
z
" style="fill:#0000ff;stroke:#0000ff;stroke-linecap:round;stroke-width:2;"/>
   </g>
   <g id="patch_27">
    <path clip-path="url(#p5606657888)" d="M 307.460769 264.891267 
Q 318.04899 262.639287 326.450065 260.852486 
" style="fill:none;stroke:#0000ff;stroke-linecap:round;stroke-width:2;"/>
    <path clip-path="url(#p5606657888)" d="M 315.628679 258.042218 
L 326.450065 260.852486 
L 317.709019 267.823434 
L 315.628679 258.042218 
z
" style="fill:#0000ff;stroke:#0000ff;stroke-linecap:round;stroke-width:2;"/>
   </g>
   <g id="patch_28">
    <path clip-path="url(#p5606657888)" d="M 349.813654 264.891267 
Q 360.401875 262.639287 368.80295 260.852486 
" style="fill:none;stroke:#0000ff;stroke-linecap:round;stroke-width:2;"/>
    <path clip-path="url(#p5606657888)" d="M 357.981564 258.042218 
L 368.80295 260.852486 
L 360.061904 267.823434 
L 357.981564 258.042218 
z
" style="fill:#0000ff;stroke:#0000ff;stroke-linecap:round;stroke-width:2;"/>
   </g>
   <g id="patch_29">
    <path clip-path="url(#p5606657888)" d="M 392.166538 264.891267 
Q 402.75476 262.639287 411.155834 260.852486 
" style="fill:none;stroke:#0000ff;stroke-linecap:round;stroke-width:2;"/>
    <path clip-path="url(#p5606657888)" d="M 400.334448 258.042218 
L 411.155834 260.852486 
L 402.414788 267.823434 
L 400.334448 258.042218 
z
" style="fill:#0000ff;stroke:#0000ff;stroke-linecap:round;stroke-width:2;"/>
   </g>
   <g id="patch_30">
    <path clip-path="url(#p5606657888)" d="M 53.343462 228.859593 
Q 58.637572 228.296598 61.708152 227.970061 
" style="fill:none;stroke:#0000ff;stroke-linecap:round;stroke-width:2;"/>
    <path clip-path="url(#p5606657888)" d="M 51.235485 224.05557 
L 61.708152 227.970061 
L 52.292959 233.9995 
L 51.235485 224.05557 
z
" style="fill:#0000ff;stroke:#0000ff;stroke-linecap:round;stroke-width:2;"/>
   </g>
   <g id="patch_31">
    <path clip-path="url(#p5606657888)" d="M 95.696346 228.859593 
Q 100.990457 228.296598 104.061037 227.970061 
" style="fill:none;stroke:#0000ff;stroke-linecap:round;stroke-width:2;"/>
    <path clip-path="url(#p5606657888)" d="M 93.58837 224.05557 
L 104.061037 227.970061 
L 94.645843 233.9995 
L 93.58837 224.05557 
z
" style="fill:#0000ff;stroke:#0000ff;stroke-linecap:round;stroke-width:2;"/>
   </g>
   <g id="patch_32">
    <path clip-path="url(#p5606657888)" d="M 138.049231 228.859593 
Q 143.343341 228.296598 146.413922 227.970061 
" style="fill:none;stroke:#0000ff;stroke-linecap:round;stroke-width:2;"/>
    <path clip-path="url(#p5606657888)" d="M 135.941254 224.05557 
L 146.413922 227.970061 
L 136.998728 233.9995 
L 135.941254 224.05557 
z
" style="fill:#0000ff;stroke:#0000ff;stroke-linecap:round;stroke-width:2;"/>
   </g>
   <g id="patch_33">
    <path clip-path="url(#p5606657888)" d="M 180.402115 228.859593 
Q 185.696226 228.296598 188.766806 227.970061 
" style="fill:none;stroke:#0000ff;stroke-linecap:round;stroke-width:2;"/>
    <path clip-path="url(#p5606657888)" d="M 178.294139 224.05557 
L 188.766806 227.970061 
L 179.351613 233.9995 
L 178.294139 224.05557 
z
" style="fill:#0000ff;stroke:#0000ff;stroke-linecap:round;stroke-width:2;"/>
   </g>
   <g id="patch_34">
    <path clip-path="url(#p5606657888)" d="M 222.755 228.859593 
Q 228.049111 228.296598 231.119691 227.970061 
" style="fill:none;stroke:#0000ff;stroke-linecap:round;stroke-width:2;"/>
    <path clip-path="url(#p5606657888)" d="M 220.647024 224.05557 
L 231.119691 227.970061 
L 221.704497 233.9995 
L 220.647024 224.05557 
z
" style="fill:#0000ff;stroke:#0000ff;stroke-linecap:round;stroke-width:2;"/>
   </g>
   <g id="patch_35">
    <path clip-path="url(#p5606657888)" d="M 265.107885 228.859593 
Q 270.401995 228.296598 273.472575 227.970061 
" style="fill:none;stroke:#0000ff;stroke-linecap:round;stroke-width:2;"/>
    <path clip-path="url(#p5606657888)" d="M 262.999908 224.05557 
L 273.472575 227.970061 
L 264.057382 233.9995 
L 262.999908 224.05557 
z
" style="fill:#0000ff;stroke:#0000ff;stroke-linecap:round;stroke-width:2;"/>
   </g>
   <g id="patch_36">
    <path clip-path="url(#p5606657888)" d="M 307.460769 228.859593 
Q 312.75488 228.296598 315.82546 227.970061 
" style="fill:none;stroke:#0000ff;stroke-linecap:round;stroke-width:2;"/>
    <path clip-path="url(#p5606657888)" d="M 305.352793 224.05557 
L 315.82546 227.970061 
L 306.410266 233.9995 
L 305.352793 224.05557 
z
" style="fill:#0000ff;stroke:#0000ff;stroke-linecap:round;stroke-width:2;"/>
   </g>
   <g id="patch_37">
    <path clip-path="url(#p5606657888)" d="M 349.813654 228.859593 
Q 355.107764 228.296598 358.178345 227.970061 
" style="fill:none;stroke:#0000ff;stroke-linecap:round;stroke-width:2;"/>
    <path clip-path="url(#p5606657888)" d="M 347.705678 224.05557 
L 358.178345 227.970061 
L 348.763151 233.9995 
L 347.705678 224.05557 
z
" style="fill:#0000ff;stroke:#0000ff;stroke-linecap:round;stroke-width:2;"/>
   </g>
   <g id="patch_38">
    <path clip-path="url(#p5606657888)" d="M 392.166538 228.859593 
Q 397.460649 228.296598 400.531229 227.970061 
" style="fill:none;stroke:#0000ff;stroke-linecap:round;stroke-width:2;"/>
    <path clip-path="url(#p5606657888)" d="M 390.058562 224.05557 
L 400.531229 227.970061 
L 391.116036 233.9995 
L 390.058562 224.05557 
z
" style="fill:#0000ff;stroke:#0000ff;stroke-linecap:round;stroke-width:2;"/>
   </g>
   <g id="patch_39">
    <path clip-path="url(#p5606657888)" d="M 53.343462 156.796244 
Q 48.049351 156.233249 44.978771 155.906713 
" style="fill:none;stroke:#0000ff;stroke-linecap:round;stroke-width:2;"/>
    <path clip-path="url(#p5606657888)" d="M 54.393964 161.936152 
L 44.978771 155.906713 
L 55.451438 151.992221 
L 54.393964 161.936152 
z
" style="fill:#0000ff;stroke:#0000ff;stroke-linecap:round;stroke-width:2;"/>
   </g>
   <g id="patch_40">
    <path clip-path="url(#p5606657888)" d="M 95.696346 156.796244 
Q 90.402236 156.233249 87.331655 155.906713 
" style="fill:none;stroke:#0000ff;stroke-linecap:round;stroke-width:2;"/>
    <path clip-path="url(#p5606657888)" d="M 96.746849 161.936152 
L 87.331655 155.906713 
L 97.804322 151.992221 
L 96.746849 161.936152 
z
" style="fill:#0000ff;stroke:#0000ff;stroke-linecap:round;stroke-width:2;"/>
   </g>
   <g id="patch_41">
    <path clip-path="url(#p5606657888)" d="M 138.049231 156.796244 
Q 132.75512 156.233249 129.68454 155.906713 
" style="fill:none;stroke:#0000ff;stroke-linecap:round;stroke-width:2;"/>
    <path clip-path="url(#p5606657888)" d="M 139.099734 161.936152 
L 129.68454 155.906713 
L 140.157207 151.992221 
L 139.099734 161.936152 
z
" style="fill:#0000ff;stroke:#0000ff;stroke-linecap:round;stroke-width:2;"/>
   </g>
   <g id="patch_42">
    <path clip-path="url(#p5606657888)" d="M 180.402115 156.796244 
Q 175.108005 156.233249 172.037425 155.906713 
" style="fill:none;stroke:#0000ff;stroke-linecap:round;stroke-width:2;"/>
    <path clip-path="url(#p5606657888)" d="M 181.452618 161.936152 
L 172.037425 155.906713 
L 182.510092 151.992221 
L 181.452618 161.936152 
z
" style="fill:#0000ff;stroke:#0000ff;stroke-linecap:round;stroke-width:2;"/>
   </g>
   <g id="patch_43">
    <path clip-path="url(#p5606657888)" d="M 222.755 156.796244 
Q 217.460889 156.233249 214.390309 155.906713 
" style="fill:none;stroke:#0000ff;stroke-linecap:round;stroke-width:2;"/>
    <path clip-path="url(#p5606657888)" d="M 223.805503 161.936152 
L 214.390309 155.906713 
L 224.862976 151.992221 
L 223.805503 161.936152 
z
" style="fill:#0000ff;stroke:#0000ff;stroke-linecap:round;stroke-width:2;"/>
   </g>
   <g id="patch_44">
    <path clip-path="url(#p5606657888)" d="M 265.107885 156.796244 
Q 259.813774 156.233249 256.743194 155.906713 
" style="fill:none;stroke:#0000ff;stroke-linecap:round;stroke-width:2;"/>
    <path clip-path="url(#p5606657888)" d="M 266.158387 161.936152 
L 256.743194 155.906713 
L 267.215861 151.992221 
L 266.158387 161.936152 
z
" style="fill:#0000ff;stroke:#0000ff;stroke-linecap:round;stroke-width:2;"/>
   </g>
   <g id="patch_45">
    <path clip-path="url(#p5606657888)" d="M 307.460769 156.796244 
Q 302.166659 156.233249 299.096078 155.906713 
" style="fill:none;stroke:#0000ff;stroke-linecap:round;stroke-width:2;"/>
    <path clip-path="url(#p5606657888)" d="M 308.511272 161.936152 
L 299.096078 155.906713 
L 309.568746 151.992221 
L 308.511272 161.936152 
z
" style="fill:#0000ff;stroke:#0000ff;stroke-linecap:round;stroke-width:2;"/>
   </g>
   <g id="patch_46">
    <path clip-path="url(#p5606657888)" d="M 349.813654 156.796244 
Q 344.519543 156.233249 341.448963 155.906713 
" style="fill:none;stroke:#0000ff;stroke-linecap:round;stroke-width:2;"/>
    <path clip-path="url(#p5606657888)" d="M 350.864157 161.936152 
L 341.448963 155.906713 
L 351.92163 151.992221 
L 350.864157 161.936152 
z
" style="fill:#0000ff;stroke:#0000ff;stroke-linecap:round;stroke-width:2;"/>
   </g>
   <g id="patch_47">
    <path clip-path="url(#p5606657888)" d="M 392.166538 156.796244 
Q 386.872428 156.233249 383.801848 155.906713 
" style="fill:none;stroke:#0000ff;stroke-linecap:round;stroke-width:2;"/>
    <path clip-path="url(#p5606657888)" d="M 393.217041 161.936152 
L 383.801848 155.906713 
L 394.274515 151.992221 
L 393.217041 161.936152 
z
" style="fill:#0000ff;stroke:#0000ff;stroke-linecap:round;stroke-width:2;"/>
   </g>
   <g id="patch_48">
    <path clip-path="url(#p5606657888)" d="M 53.343462 120.76457 
Q 42.75524 118.51259 34.354166 116.725789 
" style="fill:none;stroke:#0000ff;stroke-linecap:round;stroke-width:2;"/>
    <path clip-path="url(#p5606657888)" d="M 43.095212 123.696737 
L 34.354166 116.725789 
L 45.175552 113.915521 
L 43.095212 123.696737 
z
" style="fill:#0000ff;stroke:#0000ff;stroke-linecap:round;stroke-width:2;"/>
   </g>
   <g id="patch_49">
    <path clip-path="url(#p5606657888)" d="M 95.696346 120.76457 
Q 85.108125 118.51259 76.70705 116.725789 
" style="fill:none;stroke:#0000ff;stroke-linecap:round;stroke-width:2;"/>
    <path clip-path="url(#p5606657888)" d="M 85.448096 123.696737 
L 76.70705 116.725789 
L 87.528436 113.915521 
L 85.448096 123.696737 
z
" style="fill:#0000ff;stroke:#0000ff;stroke-linecap:round;stroke-width:2;"/>
   </g>
   <g id="patch_50">
    <path clip-path="url(#p5606657888)" d="M 138.049231 120.76457 
Q 127.46101 118.51259 119.059935 116.725789 
" style="fill:none;stroke:#0000ff;stroke-linecap:round;stroke-width:2;"/>
    <path clip-path="url(#p5606657888)" d="M 127.800981 123.696737 
L 119.059935 116.725789 
L 129.881321 113.915521 
L 127.800981 123.696737 
z
" style="fill:#0000ff;stroke:#0000ff;stroke-linecap:round;stroke-width:2;"/>
   </g>
   <g id="patch_51">
    <path clip-path="url(#p5606657888)" d="M 180.402115 120.76457 
Q 169.813894 118.51259 161.412819 116.725789 
" style="fill:none;stroke:#0000ff;stroke-linecap:round;stroke-width:2;"/>
    <path clip-path="url(#p5606657888)" d="M 170.153865 123.696737 
L 161.412819 116.725789 
L 172.234205 113.915521 
L 170.153865 123.696737 
z
" style="fill:#0000ff;stroke:#0000ff;stroke-linecap:round;stroke-width:2;"/>
   </g>
   <g id="patch_52">
    <path clip-path="url(#p5606657888)" d="M 222.755 120.76457 
Q 212.166779 118.51259 203.765704 116.725789 
" style="fill:none;stroke:#0000ff;stroke-linecap:round;stroke-width:2;"/>
    <path clip-path="url(#p5606657888)" d="M 212.50675 123.696737 
L 203.765704 116.725789 
L 214.58709 113.915521 
L 212.50675 123.696737 
z
" style="fill:#0000ff;stroke:#0000ff;stroke-linecap:round;stroke-width:2;"/>
   </g>
   <g id="patch_53">
    <path clip-path="url(#p5606657888)" d="M 265.107885 120.76457 
Q 254.519663 118.51259 246.118589 116.725789 
" style="fill:none;stroke:#0000ff;stroke-linecap:round;stroke-width:2;"/>
    <path clip-path="url(#p5606657888)" d="M 254.859635 123.696737 
L 246.118589 116.725789 
L 256.939975 113.915521 
L 254.859635 123.696737 
z
" style="fill:#0000ff;stroke:#0000ff;stroke-linecap:round;stroke-width:2;"/>
   </g>
   <g id="patch_54">
    <path clip-path="url(#p5606657888)" d="M 307.460769 120.76457 
Q 296.872548 118.51259 288.471473 116.725789 
" style="fill:none;stroke:#0000ff;stroke-linecap:round;stroke-width:2;"/>
    <path clip-path="url(#p5606657888)" d="M 297.212519 123.696737 
L 288.471473 116.725789 
L 299.292859 113.915521 
L 297.212519 123.696737 
z
" style="fill:#0000ff;stroke:#0000ff;stroke-linecap:round;stroke-width:2;"/>
   </g>
   <g id="patch_55">
    <path clip-path="url(#p5606657888)" d="M 349.813654 120.76457 
Q 339.225433 118.51259 330.824358 116.725789 
" style="fill:none;stroke:#0000ff;stroke-linecap:round;stroke-width:2;"/>
    <path clip-path="url(#p5606657888)" d="M 339.565404 123.696737 
L 330.824358 116.725789 
L 341.645744 113.915521 
L 339.565404 123.696737 
z
" style="fill:#0000ff;stroke:#0000ff;stroke-linecap:round;stroke-width:2;"/>
   </g>
   <g id="patch_56">
    <path clip-path="url(#p5606657888)" d="M 392.166538 120.76457 
Q 381.578317 118.51259 373.177243 116.725789 
" style="fill:none;stroke:#0000ff;stroke-linecap:round;stroke-width:2;"/>
    <path clip-path="url(#p5606657888)" d="M 381.918289 123.696737 
L 373.177243 116.725789 
L 383.998628 113.915521 
L 381.918289 123.696737 
z
" style="fill:#0000ff;stroke:#0000ff;stroke-linecap:round;stroke-width:2;"/>
   </g>
   <g id="patch_57">
    <path clip-path="url(#p5606657888)" d="M 53.343462 84.732896 
Q 37.46113 79.665942 23.709082 75.278614 
" style="fill:none;stroke:#0000ff;stroke-linecap:round;stroke-width:2;"/>
    <path clip-path="url(#p5606657888)" d="M 31.716309 83.081454 
L 23.709082 75.278614 
L 34.75569 73.554536 
L 31.716309 83.081454 
z
" style="fill:#0000ff;stroke:#0000ff;stroke-linecap:round;stroke-width:2;"/>
   </g>
   <g id="patch_58">
    <path clip-path="url(#p5606657888)" d="M 95.696346 84.732896 
Q 79.814014 79.665942 66.061966 75.278614 
" style="fill:none;stroke:#0000ff;stroke-linecap:round;stroke-width:2;"/>
    <path clip-path="url(#p5606657888)" d="M 74.069194 83.081454 
L 66.061966 75.278614 
L 77.108575 73.554536 
L 74.069194 83.081454 
z
" style="fill:#0000ff;stroke:#0000ff;stroke-linecap:round;stroke-width:2;"/>
   </g>
   <g id="patch_59">
    <path clip-path="url(#p5606657888)" d="M 138.049231 84.732896 
Q 122.166899 79.665942 108.414851 75.278614 
" style="fill:none;stroke:#0000ff;stroke-linecap:round;stroke-width:2;"/>
    <path clip-path="url(#p5606657888)" d="M 116.422078 83.081454 
L 108.414851 75.278614 
L 119.461459 73.554536 
L 116.422078 83.081454 
z
" style="fill:#0000ff;stroke:#0000ff;stroke-linecap:round;stroke-width:2;"/>
   </g>
   <g id="patch_60">
    <path clip-path="url(#p5606657888)" d="M 180.402115 84.732896 
Q 164.519784 79.665942 150.767736 75.278614 
" style="fill:none;stroke:#0000ff;stroke-linecap:round;stroke-width:2;"/>
    <path clip-path="url(#p5606657888)" d="M 158.774963 83.081454 
L 150.767736 75.278614 
L 161.814344 73.554536 
L 158.774963 83.081454 
z
" style="fill:#0000ff;stroke:#0000ff;stroke-linecap:round;stroke-width:2;"/>
   </g>
   <g id="patch_61">
    <path clip-path="url(#p5606657888)" d="M 222.755 84.732896 
Q 206.872668 79.665942 193.12062 75.278614 
" style="fill:none;stroke:#0000ff;stroke-linecap:round;stroke-width:2;"/>
    <path clip-path="url(#p5606657888)" d="M 201.127848 83.081454 
L 193.12062 75.278614 
L 204.167228 73.554536 
L 201.127848 83.081454 
z
" style="fill:#0000ff;stroke:#0000ff;stroke-linecap:round;stroke-width:2;"/>
   </g>
   <g id="patch_62">
    <path clip-path="url(#p5606657888)" d="M 265.107885 84.732896 
Q 249.225553 79.665942 235.473505 75.278614 
" style="fill:none;stroke:#0000ff;stroke-linecap:round;stroke-width:2;"/>
    <path clip-path="url(#p5606657888)" d="M 243.480732 83.081454 
L 235.473505 75.278614 
L 246.520113 73.554536 
L 243.480732 83.081454 
z
" style="fill:#0000ff;stroke:#0000ff;stroke-linecap:round;stroke-width:2;"/>
   </g>
   <g id="patch_63">
    <path clip-path="url(#p5606657888)" d="M 307.460769 84.732896 
Q 291.578438 79.665942 277.826389 75.278614 
" style="fill:none;stroke:#0000ff;stroke-linecap:round;stroke-width:2;"/>
    <path clip-path="url(#p5606657888)" d="M 285.833617 83.081454 
L 277.826389 75.278614 
L 288.872998 73.554536 
L 285.833617 83.081454 
z
" style="fill:#0000ff;stroke:#0000ff;stroke-linecap:round;stroke-width:2;"/>
   </g>
   <g id="patch_64">
    <path clip-path="url(#p5606657888)" d="M 349.813654 84.732896 
Q 333.931322 79.665942 320.179274 75.278614 
" style="fill:none;stroke:#0000ff;stroke-linecap:round;stroke-width:2;"/>
    <path clip-path="url(#p5606657888)" d="M 328.186501 83.081454 
L 320.179274 75.278614 
L 331.225882 73.554536 
L 328.186501 83.081454 
z
" style="fill:#0000ff;stroke:#0000ff;stroke-linecap:round;stroke-width:2;"/>
   </g>
   <g id="patch_65">
    <path clip-path="url(#p5606657888)" d="M 392.166538 84.732896 
Q 376.284207 79.665942 362.532159 75.278614 
" style="fill:none;stroke:#0000ff;stroke-linecap:round;stroke-width:2;"/>
    <path clip-path="url(#p5606657888)" d="M 370.539386 83.081454 
L 362.532159 75.278614 
L 373.578767 73.554536 
L 370.539386 83.081454 
z
" style="fill:#0000ff;stroke:#0000ff;stroke-linecap:round;stroke-width:2;"/>
   </g>
   <g id="patch_66">
    <path clip-path="url(#p5606657888)" d="M 53.343462 48.701222 
Q 32.167019 39.693303 13.048222 31.560654 
" style="fill:none;stroke:#0000ff;stroke-linecap:round;stroke-width:2;"/>
    <path clip-path="url(#p5606657888)" d="M 20.293128 40.076014 
L 13.048222 31.560654 
L 24.207453 30.873945 
L 20.293128 40.076014 
z
" style="fill:#0000ff;stroke:#0000ff;stroke-linecap:round;stroke-width:2;"/>
   </g>
   <g id="patch_67">
    <path clip-path="url(#p5606657888)" d="M 95.696346 48.701222 
Q 74.519904 39.693303 55.401107 31.560654 
" style="fill:none;stroke:#0000ff;stroke-linecap:round;stroke-width:2;"/>
    <path clip-path="url(#p5606657888)" d="M 62.646012 40.076014 
L 55.401107 31.560654 
L 66.560337 30.873945 
L 62.646012 40.076014 
z
" style="fill:#0000ff;stroke:#0000ff;stroke-linecap:round;stroke-width:2;"/>
   </g>
   <g id="patch_68">
    <path clip-path="url(#p5606657888)" d="M 138.049231 48.701222 
Q 116.872788 39.693303 97.753991 31.560654 
" style="fill:none;stroke:#0000ff;stroke-linecap:round;stroke-width:2;"/>
    <path clip-path="url(#p5606657888)" d="M 104.998897 40.076014 
L 97.753991 31.560654 
L 108.913222 30.873945 
L 104.998897 40.076014 
z
" style="fill:#0000ff;stroke:#0000ff;stroke-linecap:round;stroke-width:2;"/>
   </g>
   <g id="patch_69">
    <path clip-path="url(#p5606657888)" d="M 180.402115 48.701222 
Q 159.225673 39.693303 140.106876 31.560654 
" style="fill:none;stroke:#0000ff;stroke-linecap:round;stroke-width:2;"/>
    <path clip-path="url(#p5606657888)" d="M 147.351781 40.076014 
L 140.106876 31.560654 
L 151.266107 30.873945 
L 147.351781 40.076014 
z
" style="fill:#0000ff;stroke:#0000ff;stroke-linecap:round;stroke-width:2;"/>
   </g>
   <g id="patch_70">
    <path clip-path="url(#p5606657888)" d="M 222.755 48.701222 
Q 201.578558 39.693303 182.45976 31.560654 
" style="fill:none;stroke:#0000ff;stroke-linecap:round;stroke-width:2;"/>
    <path clip-path="url(#p5606657888)" d="M 189.704666 40.076014 
L 182.45976 31.560654 
L 193.618991 30.873945 
L 189.704666 40.076014 
z
" style="fill:#0000ff;stroke:#0000ff;stroke-linecap:round;stroke-width:2;"/>
   </g>
   <g id="patch_71">
    <path clip-path="url(#p5606657888)" d="M 265.107885 48.701222 
Q 243.931442 39.693303 224.812645 31.560654 
" style="fill:none;stroke:#0000ff;stroke-linecap:round;stroke-width:2;"/>
    <path clip-path="url(#p5606657888)" d="M 232.057551 40.076014 
L 224.812645 31.560654 
L 235.971876 30.873945 
L 232.057551 40.076014 
z
" style="fill:#0000ff;stroke:#0000ff;stroke-linecap:round;stroke-width:2;"/>
   </g>
   <g id="patch_72">
    <path clip-path="url(#p5606657888)" d="M 307.460769 48.701222 
Q 286.284327 39.693303 267.16553 31.560654 
" style="fill:none;stroke:#0000ff;stroke-linecap:round;stroke-width:2;"/>
    <path clip-path="url(#p5606657888)" d="M 274.410435 40.076014 
L 267.16553 31.560654 
L 278.32476 30.873945 
L 274.410435 40.076014 
z
" style="fill:#0000ff;stroke:#0000ff;stroke-linecap:round;stroke-width:2;"/>
   </g>
   <g id="patch_73">
    <path clip-path="url(#p5606657888)" d="M 349.813654 48.701222 
Q 328.637212 39.693303 309.518414 31.560654 
" style="fill:none;stroke:#0000ff;stroke-linecap:round;stroke-width:2;"/>
    <path clip-path="url(#p5606657888)" d="M 316.76332 40.076014 
L 309.518414 31.560654 
L 320.677645 30.873945 
L 316.76332 40.076014 
z
" style="fill:#0000ff;stroke:#0000ff;stroke-linecap:round;stroke-width:2;"/>
   </g>
   <g id="patch_74">
    <path clip-path="url(#p5606657888)" d="M 392.166538 48.701222 
Q 370.990096 39.693303 351.871299 31.560654 
" style="fill:none;stroke:#0000ff;stroke-linecap:round;stroke-width:2;"/>
    <path clip-path="url(#p5606657888)" d="M 359.116204 40.076014 
L 351.871299 31.560654 
L 363.03053 30.873945 
L 359.116204 40.076014 
z
" style="fill:#0000ff;stroke:#0000ff;stroke-linecap:round;stroke-width:2;"/>
   </g>
   <g id="patch_75">
    <path d="M 222.755 343.08 
L 222.755 24.56 
" style="fill:none;stroke:#000000;stroke-linecap:square;stroke-linejoin:miter;stroke-width:0.8;"/>
   </g>
   <g id="patch_76">
    <path d="M 2.52 192.827919 
L 442.99 192.827919 
" style="fill:none;stroke:#000000;stroke-linecap:square;stroke-linejoin:miter;stroke-width:0.8;"/>
   </g>
  </g>
 </g>
 <defs>
  <clipPath id="p5606657888">
   <rect height="318.52" width="440.47" x="2.52" y="24.56"/>
  </clipPath>
 </defs>
</svg>
