<?xml version="1.0" encoding="utf-8" standalone="no"?>
<!DOCTYPE svg PUBLIC "-//W3C//DTD SVG 1.1//EN"
  "http://www.w3.org/Graphics/SVG/1.1/DTD/svg11.dtd">
<!-- Created with matplotlib (http://matplotlib.org/) -->
<svg height="345.6pt" version="1.1" viewBox="0 0 460.8 345.6" width="460.8pt" xmlns="http://www.w3.org/2000/svg" xmlns:xlink="http://www.w3.org/1999/xlink">
 <defs>
  <style type="text/css">
*{stroke-linecap:butt;stroke-linejoin:round;}
  </style>
 </defs>
 <g id="figure_1">
  <g id="patch_1">
   <path d="M 0 345.6 
L 460.8 345.6 
L 460.8 0 
L 0 0 
z
" style="fill:#ffffff;"/>
  </g>
  <g id="axes_1">
   <g id="patch_2">
    <path d="M 2.52 325.315919 
L 458.28 325.315919 
L 458.28 20.284081 
L 2.52 20.284081 
z
" style="fill:#ffffff;"/>
   </g>
   <g id="patch_3">
    <path clip-path="url(#p001052d649)" d="M 45.886481 265.669218 
Q 153.11039 239.474522 226.537335 160.083146 
" style="fill:none;stroke:#7fff00;stroke-linecap:round;stroke-width:2;"/>
    <path clip-path="url(#p001052d649)" d="M 216.076688 164.029646 
L 226.537335 160.083146 
L 223.418147 170.819564 
L 216.076688 164.029646 
z
" style="fill:#7fff00;stroke:#7fff00;stroke-linecap:round;stroke-width:2;"/>
   </g>
   <g id="patch_4">
    <path clip-path="url(#p001052d649)" d="M 43.241982 261.176478 
Q 118.187199 180.143502 223.238921 154.47947 
" style="fill:none;stroke:#7fff00;stroke-linecap:round;stroke-width:2;"/>
    <path clip-path="url(#p001052d649)" d="M 212.338006 151.99551 
L 223.238921 154.47947 
L 214.711204 161.709825 
L 212.338006 151.99551 
z
" style="fill:#7fff00;stroke:#7fff00;stroke-linecap:round;stroke-width:2;"/>
   </g>
   <g id="patch_5">
    <path clip-path="url(#p001052d649)" d="M 46.144376 267.905024 
Q 170.571985 269.140032 228.819366 161.717906 
" style="fill:none;stroke:#7fff00;stroke-linecap:round;stroke-width:2;"/>
    <path clip-path="url(#p001052d649)" d="M 219.657289 168.125429 
L 228.819366 161.717906 
L 228.448138 172.892081 
L 219.657289 168.125429 
z
" style="fill:#7fff00;stroke:#7fff00;stroke-linecap:round;stroke-width:2;"/>
   </g>
   <g id="patch_6">
    <path clip-path="url(#p001052d649)" d="M 41.412367 259.865812 
Q 100.725604 150.477992 222.917255 151.690808 
" style="fill:none;stroke:#7fff00;stroke-linecap:round;stroke-width:2;"/>
    <path clip-path="url(#p001052d649)" d="M 212.967373 146.591804 
L 222.917255 151.690808 
L 212.868122 156.591311 
L 212.967373 146.591804 
z
" style="fill:#7fff00;stroke:#7fff00;stroke-linecap:round;stroke-width:2;"/>
   </g>
   <g id="patch_7">
    <path clip-path="url(#p001052d649)" d="M 45.960025 269.634073 
Q 188.03358 298.805542 230.816505 162.563611 
" style="fill:none;stroke:#00ff3f;stroke-linecap:round;stroke-width:2;"/>
    <path clip-path="url(#p001052d649)" d="M 223.050203 170.606282 
L 230.816505 162.563611 
L 232.59086 173.602255 
L 223.050203 170.606282 
z
" style="fill:#00ff3f;stroke:#00ff3f;stroke-linecap:round;stroke-width:2;"/>
   </g>
   <g id="patch_8">
    <path clip-path="url(#p001052d649)" d="M 39.811164 259.187769 
Q 83.264009 120.812483 223.147191 149.53421 
" style="fill:none;stroke:#00ffff;stroke-linecap:round;stroke-width:2;"/>
    <path clip-path="url(#p001052d649)" d="M 214.357199 142.625082 
L 223.147191 149.53421 
L 212.345894 152.420727 
L 214.357199 142.625082 
z
" style="fill:#00ffff;stroke:#00ffff;stroke-linecap:round;stroke-width:2;"/>
   </g>
   <g id="matplotlib.axis_1"/>
   <g id="matplotlib.axis_2"/>
   <g id="patch_9">
    <path clip-path="url(#p001052d649)" d="M 243.915741 146.081343 
Q 333.249742 93.497856 424.510765 39.780091 
" style="fill:none;stroke:#7f00ff;stroke-linecap:round;stroke-width:2;"/>
    <path clip-path="url(#p001052d649)" d="M 255.069968 145.317653 
L 243.915741 146.081343 
L 249.997325 136.699747 
L 255.069968 145.317653 
z
" style="fill:#7f00ff;stroke:#7f00ff;stroke-linecap:round;stroke-width:2;"/>
   </g>
   <g id="patch_10">
    <path clip-path="url(#p001052d649)" d="M 44.895012 263.228145 
Q 135.648795 209.809012 224.475554 157.524156 
" style="fill:none;stroke:#003fff;stroke-linecap:round;stroke-width:2;"/>
    <path clip-path="url(#p001052d649)" d="M 213.321327 158.287841 
L 224.475554 157.524156 
L 218.393966 166.905748 
L 213.321327 158.287841 
z
" style="fill:#003fff;stroke:#003fff;stroke-linecap:round;stroke-width:2;"/>
   </g>
   <g id="text_1">
    <g id="patch_11">
     <path d="M 29.927721 311.077435 
L 44.276159 311.077435 
L 44.276159 293.39931 
L 29.927721 293.39931 
z
" style="fill:#ffffff;stroke:#ffffff;stroke-linejoin:miter;"/>
    </g>
    <!-- b -->
    <defs>
     <path d="M 48.6875 27.296875 
Q 48.6875 37.203125 44.609375 42.84375 
Q 40.53125 48.484375 33.40625 48.484375 
Q 26.265625 48.484375 22.1875 42.84375 
Q 18.109375 37.203125 18.109375 27.296875 
Q 18.109375 17.390625 22.1875 11.75 
Q 26.265625 6.109375 33.40625 6.109375 
Q 40.53125 6.109375 44.609375 11.75 
Q 48.6875 17.390625 48.6875 27.296875 
z
M 18.109375 46.390625 
Q 20.953125 51.265625 25.265625 53.625 
Q 29.59375 56 35.59375 56 
Q 45.5625 56 51.78125 48.09375 
Q 58.015625 40.1875 58.015625 27.296875 
Q 58.015625 14.40625 51.78125 6.484375 
Q 45.5625 -1.421875 35.59375 -1.421875 
Q 29.59375 -1.421875 25.265625 0.953125 
Q 20.953125 3.328125 18.109375 8.203125 
L 18.109375 0 
L 9.078125 0 
L 9.078125 75.984375 
L 18.109375 75.984375 
z
" id="DejaVuSans-62"/>
    </defs>
    <g style="fill:#0000ff;" transform="translate(33.927721 304.997747)scale(0.1 -0.1)">
     <use xlink:href="#DejaVuSans-62"/>
    </g>
   </g>
   <g id="text_2">
    <g id="patch_12">
     <path d="M 30.037878 328.288985 
L 44.166003 328.288985 
L 44.166003 310.61086 
L 30.037878 310.61086 
z
" style="fill:#ffffff;stroke:#ffffff;stroke-linejoin:miter;"/>
    </g>
    <!-- a -->
    <defs>
     <path d="M 34.28125 27.484375 
Q 23.390625 27.484375 19.1875 25 
Q 14.984375 22.515625 14.984375 16.5 
Q 14.984375 11.71875 18.140625 8.90625 
Q 21.296875 6.109375 26.703125 6.109375 
Q 34.1875 6.109375 38.703125 11.40625 
Q 43.21875 16.703125 43.21875 25.484375 
L 43.21875 27.484375 
z
M 52.203125 31.203125 
L 52.203125 0 
L 43.21875 0 
L 43.21875 8.296875 
Q 40.140625 3.328125 35.546875 0.953125 
Q 30.953125 -1.421875 24.3125 -1.421875 
Q 15.921875 -1.421875 10.953125 3.296875 
Q 6 8.015625 6 15.921875 
Q 6 25.140625 12.171875 29.828125 
Q 18.359375 34.515625 30.609375 34.515625 
L 43.21875 34.515625 
L 43.21875 35.40625 
Q 43.21875 41.609375 39.140625 45 
Q 35.0625 48.390625 27.6875 48.390625 
Q 23 48.390625 18.546875 47.265625 
Q 14.109375 46.140625 10.015625 43.890625 
L 10.015625 52.203125 
Q 14.9375 54.109375 19.578125 55.046875 
Q 24.21875 56 28.609375 56 
Q 40.484375 56 46.34375 49.84375 
Q 52.203125 43.703125 52.203125 31.203125 
z
" id="DejaVuSans-61"/>
    </defs>
    <g style="fill:#0000ff;" transform="translate(34.037878 322.209297)scale(0.1 -0.1)">
     <use xlink:href="#DejaVuSans-61"/>
    </g>
   </g>
   <g id="text_3">
    <g id="patch_13">
     <path d="M 138.619436 233.48083 
L 150.139748 233.48083 
L 150.139748 215.802705 
L 138.619436 215.802705 
z
" style="fill:#ffffff;stroke:#ffffff;stroke-linejoin:miter;"/>
    </g>
    <!-- f -->
    <defs>
     <path d="M 37.109375 75.984375 
L 37.109375 68.5 
L 28.515625 68.5 
Q 23.6875 68.5 21.796875 66.546875 
Q 19.921875 64.59375 19.921875 59.515625 
L 19.921875 54.6875 
L 34.71875 54.6875 
L 34.71875 47.703125 
L 19.921875 47.703125 
L 19.921875 0 
L 10.890625 0 
L 10.890625 47.703125 
L 2.296875 47.703125 
L 2.296875 54.6875 
L 10.890625 54.6875 
L 10.890625 58.5 
Q 10.890625 67.625 15.140625 71.796875 
Q 19.390625 75.984375 28.609375 75.984375 
z
" id="DejaVuSans-66"/>
    </defs>
    <g style="fill:#0000ff;" transform="translate(142.619436 227.401142)scale(0.1 -0.1)">
     <use xlink:href="#DejaVuSans-66"/>
    </g>
   </g>
   <g id="text_4">
    <g id="patch_14">
     <path d="M 121.157841 203.81532 
L 132.678153 203.81532 
L 132.678153 186.137195 
L 121.157841 186.137195 
z
" style="fill:#ffffff;stroke:#ffffff;stroke-linejoin:miter;"/>
    </g>
    <!-- f -->
    <g style="fill:#0000ff;" transform="translate(125.157841 197.735632)scale(0.1 -0.1)">
     <use xlink:href="#DejaVuSans-66"/>
    </g>
   </g>
   <g id="text_5">
    <g id="patch_15">
     <path d="M 147.350234 248.313585 
L 158.870546 248.313585 
L 158.870546 230.63546 
L 147.350234 230.63546 
z
" style="fill:#ffffff;stroke:#ffffff;stroke-linejoin:miter;"/>
    </g>
    <!-- f -->
    <g style="fill:#0000ff;" transform="translate(151.350234 242.233897)scale(0.1 -0.1)">
     <use xlink:href="#DejaVuSans-66"/>
    </g>
   </g>
   <g id="text_6">
    <g id="patch_16">
     <path d="M 112.427043 188.982565 
L 123.947355 188.982565 
L 123.947355 171.30444 
L 112.427043 171.30444 
z
" style="fill:#ffffff;stroke:#ffffff;stroke-linejoin:miter;"/>
    </g>
    <!-- f -->
    <g style="fill:#0000ff;" transform="translate(116.427043 182.902877)scale(0.1 -0.1)">
     <use xlink:href="#DejaVuSans-66"/>
    </g>
   </g>
   <g id="text_7">
    <g id="patch_17">
     <path d="M 154.764625 263.14634 
L 168.91775 263.14634 
L 168.91775 245.468215 
L 154.764625 245.468215 
z
" style="fill:#ffffff;stroke:#ffffff;stroke-linejoin:miter;"/>
    </g>
    <!-- e -->
    <defs>
     <path d="M 56.203125 29.59375 
L 56.203125 25.203125 
L 14.890625 25.203125 
Q 15.484375 15.921875 20.484375 11.0625 
Q 25.484375 6.203125 34.421875 6.203125 
Q 39.59375 6.203125 44.453125 7.46875 
Q 49.3125 8.734375 54.109375 11.28125 
L 54.109375 2.78125 
Q 49.265625 0.734375 44.1875 -0.34375 
Q 39.109375 -1.421875 33.890625 -1.421875 
Q 20.796875 -1.421875 13.15625 6.1875 
Q 5.515625 13.8125 5.515625 26.8125 
Q 5.515625 40.234375 12.765625 48.109375 
Q 20.015625 56 32.328125 56 
Q 43.359375 56 49.78125 48.890625 
Q 56.203125 41.796875 56.203125 29.59375 
z
M 47.21875 32.234375 
Q 47.125 39.59375 43.09375 43.984375 
Q 39.0625 48.390625 32.421875 48.390625 
Q 24.90625 48.390625 20.390625 44.140625 
Q 15.875 39.890625 15.1875 32.171875 
z
" id="DejaVuSans-65"/>
    </defs>
    <g style="fill:#0000ff;" transform="translate(158.764625 257.066652)scale(0.1 -0.1)">
     <use xlink:href="#DejaVuSans-65"/>
    </g>
   </g>
   <g id="text_8">
    <g id="patch_18">
     <path d="M 102.282183 174.14981 
L 116.63062 174.14981 
L 116.63062 156.471685 
L 102.282183 156.471685 
z
" style="fill:#ffffff;stroke:#ffffff;stroke-linejoin:miter;"/>
    </g>
    <!-- d -->
    <defs>
     <path d="M 45.40625 46.390625 
L 45.40625 75.984375 
L 54.390625 75.984375 
L 54.390625 0 
L 45.40625 0 
L 45.40625 8.203125 
Q 42.578125 3.328125 38.25 0.953125 
Q 33.9375 -1.421875 27.875 -1.421875 
Q 17.96875 -1.421875 11.734375 6.484375 
Q 5.515625 14.40625 5.515625 27.296875 
Q 5.515625 40.1875 11.734375 48.09375 
Q 17.96875 56 27.875 56 
Q 33.9375 56 38.25 53.625 
Q 42.578125 51.265625 45.40625 46.390625 
z
M 14.796875 27.296875 
Q 14.796875 17.390625 18.875 11.75 
Q 22.953125 6.109375 30.078125 6.109375 
Q 37.203125 6.109375 41.296875 11.75 
Q 45.40625 17.390625 45.40625 27.296875 
Q 45.40625 37.203125 41.296875 42.84375 
Q 37.203125 48.484375 30.078125 48.484375 
Q 22.953125 48.484375 18.875 42.84375 
Q 14.796875 37.203125 14.796875 27.296875 
z
" id="DejaVuSans-64"/>
    </defs>
    <g style="fill:#0000ff;" transform="translate(106.282183 168.070122)scale(0.1 -0.1)">
     <use xlink:href="#DejaVuSans-64"/>
    </g>
   </g>
   <g id="text_9">
    <g id="patch_19">
     <path d="M 425.135085 78.455122 
L 439.472585 78.455122 
L 439.472585 60.776997 
L 425.135085 60.776997 
z
" style="fill:#ffffff;stroke:#ffffff;stroke-linejoin:miter;"/>
    </g>
    <!-- h -->
    <defs>
     <path d="M 54.890625 33.015625 
L 54.890625 0 
L 45.90625 0 
L 45.90625 32.71875 
Q 45.90625 40.484375 42.875 44.328125 
Q 39.84375 48.1875 33.796875 48.1875 
Q 26.515625 48.1875 22.3125 43.546875 
Q 18.109375 38.921875 18.109375 30.90625 
L 18.109375 0 
L 9.078125 0 
L 9.078125 75.984375 
L 18.109375 75.984375 
L 18.109375 46.1875 
Q 21.34375 51.125 25.703125 53.5625 
Q 30.078125 56 35.796875 56 
Q 45.21875 56 50.046875 50.171875 
Q 54.890625 44.34375 54.890625 33.015625 
z
" id="DejaVuSans-68"/>
    </defs>
    <g style="fill:#0000ff;" transform="translate(429.135085 72.375434)scale(0.1 -0.1)">
     <use xlink:href="#DejaVuSans-68"/>
    </g>
   </g>
   <g id="text_10">
    <g id="patch_20">
     <path d="M 326.075523 102.336918 
L 340.423961 102.336918 
L 340.423961 84.658793 
L 326.075523 84.658793 
z
" style="fill:#ffffff;stroke:#ffffff;stroke-linejoin:miter;"/>
    </g>
    <!-- g -->
    <defs>
     <path d="M 45.40625 27.984375 
Q 45.40625 37.75 41.375 43.109375 
Q 37.359375 48.484375 30.078125 48.484375 
Q 22.859375 48.484375 18.828125 43.109375 
Q 14.796875 37.75 14.796875 27.984375 
Q 14.796875 18.265625 18.828125 12.890625 
Q 22.859375 7.515625 30.078125 7.515625 
Q 37.359375 7.515625 41.375 12.890625 
Q 45.40625 18.265625 45.40625 27.984375 
z
M 54.390625 6.78125 
Q 54.390625 -7.171875 48.1875 -13.984375 
Q 42 -20.796875 29.203125 -20.796875 
Q 24.46875 -20.796875 20.265625 -20.09375 
Q 16.0625 -19.390625 12.109375 -17.921875 
L 12.109375 -9.1875 
Q 16.0625 -11.328125 19.921875 -12.34375 
Q 23.78125 -13.375 27.78125 -13.375 
Q 36.625 -13.375 41.015625 -8.765625 
Q 45.40625 -4.15625 45.40625 5.171875 
L 45.40625 9.625 
Q 42.625 4.78125 38.28125 2.390625 
Q 33.9375 0 27.875 0 
Q 17.828125 0 11.671875 7.65625 
Q 5.515625 15.328125 5.515625 27.984375 
Q 5.515625 40.671875 11.671875 48.328125 
Q 17.828125 56 27.875 56 
Q 33.9375 56 38.28125 53.609375 
Q 42.625 51.21875 45.40625 46.390625 
L 45.40625 54.6875 
L 54.390625 54.6875 
z
" id="DejaVuSans-67"/>
    </defs>
    <g style="fill:#0000ff;" transform="translate(330.075523 96.257231)scale(0.1 -0.1)">
     <use xlink:href="#DejaVuSans-67"/>
    </g>
   </g>
   <g id="text_11">
    <g id="patch_21">
     <path d="M 128.899576 218.648075 
L 142.398013 218.648075 
L 142.398013 200.96995 
L 128.899576 200.96995 
z
" style="fill:#ffffff;stroke:#ffffff;stroke-linejoin:miter;"/>
    </g>
    <!-- c -->
    <defs>
     <path d="M 48.78125 52.59375 
L 48.78125 44.1875 
Q 44.96875 46.296875 41.140625 47.34375 
Q 37.3125 48.390625 33.40625 48.390625 
Q 24.65625 48.390625 19.8125 42.84375 
Q 14.984375 37.3125 14.984375 27.296875 
Q 14.984375 17.28125 19.8125 11.734375 
Q 24.65625 6.203125 33.40625 6.203125 
Q 37.3125 6.203125 41.140625 7.25 
Q 44.96875 8.296875 48.78125 10.40625 
L 48.78125 2.09375 
Q 45.015625 0.34375 40.984375 -0.53125 
Q 36.96875 -1.421875 32.421875 -1.421875 
Q 20.0625 -1.421875 12.78125 6.34375 
Q 5.515625 14.109375 5.515625 27.296875 
Q 5.515625 40.671875 12.859375 48.328125 
Q 20.21875 56 33.015625 56 
Q 37.15625 56 41.109375 55.140625 
Q 45.0625 54.296875 48.78125 52.59375 
z
" id="DejaVuSans-63"/>
    </defs>
    <g style="fill:#0000ff;" transform="translate(132.899576 212.568387)scale(0.1 -0.1)">
     <use xlink:href="#DejaVuSans-63"/>
    </g>
   </g>
   <g id="patch_22">
    <path d="M 37.10194 276.858154 
C 39.50014 276.858154 41.800439 275.905339 43.496223 274.209556 
C 45.192007 272.513772 46.144822 270.213473 46.144822 267.815273 
C 46.144822 265.417072 45.192007 263.116773 43.496223 261.42099 
C 41.800439 259.725206 39.50014 258.772391 37.10194 258.772391 
C 34.70374 258.772391 32.403441 259.725206 30.707657 261.42099 
C 29.011873 263.116773 28.059058 265.417072 28.059058 267.815273 
C 28.059058 270.213473 29.011873 272.513772 30.707657 274.209556 
C 32.403441 275.905339 34.70374 276.858154 37.10194 276.858154 
z
" style="fill:#fec7b8;stroke:#000000;stroke-linejoin:miter;"/>
   </g>
   <g id="patch_23">
    <path d="M 234.195649 160.845633 
C 236.593849 160.845633 238.894148 159.892818 240.589932 158.197035 
C 242.285716 156.501251 243.238531 154.200952 243.238531 151.802752 
C 243.238531 149.404552 242.285716 147.104253 240.589932 145.408469 
C 238.894148 143.712685 236.593849 142.75987 234.195649 142.75987 
C 231.797449 142.75987 229.49715 143.712685 227.801366 145.408469 
C 226.105582 147.104253 225.152767 149.404552 225.152767 151.802752 
C 225.152767 154.200952 226.105582 156.501251 227.801366 158.197035 
C 229.49715 159.892818 231.797449 160.845633 234.195649 160.845633 
z
" style="fill:#fec7b8;stroke:#000000;stroke-linejoin:miter;"/>
   </g>
   <g id="patch_24">
    <path d="M 432.303835 44.235841 
C 434.702035 44.235841 437.002334 43.283026 438.698118 41.587243 
C 440.393901 39.891459 441.346716 37.59116 441.346716 35.19296 
C 441.346716 32.794759 440.393901 30.49446 438.698118 28.798677 
C 437.002334 27.102893 434.702035 26.150078 432.303835 26.150078 
C 429.905635 26.150078 427.605336 27.102893 425.909552 28.798677 
C 424.213768 30.49446 423.260953 32.794759 423.260953 35.19296 
C 423.260953 37.59116 424.213768 39.891459 425.909552 41.587243 
C 427.605336 43.283026 429.905635 44.235841 432.303835 44.235841 
z
" style="fill:#fec7b8;stroke:#000000;stroke-linejoin:miter;"/>
   </g>
   <g id="patch_25">
    <path clip-path="url(#p001052d649)" d="M 37.10194 302.238372 
C 41.666496 302.238372 46.044715 300.424855 49.272344 297.197226 
C 52.499972 293.969597 54.31349 289.591379 54.31349 285.026822 
C 54.31349 280.462266 52.499972 276.084048 49.272344 272.856419 
C 46.044715 269.62879 41.666496 267.815273 37.10194 267.815273 
C 32.537384 267.815273 28.159165 269.62879 24.931537 272.856419 
C 21.703908 276.084048 19.89039 280.462266 19.89039 285.026822 
C 19.89039 289.591379 21.703908 293.969597 24.931537 297.197226 
C 28.159165 300.424855 32.537384 302.238372 37.10194 302.238372 
z
" style="fill:none;stroke:#ff0000;stroke-linejoin:miter;"/>
   </g>
   <g id="patch_26">
    <path clip-path="url(#p001052d649)" d="M 37.10194 319.449922 
C 43.948775 319.449922 50.516102 316.729646 55.357545 311.888203 
C 60.198989 307.04676 62.919265 300.479432 62.919265 293.632597 
C 62.919265 286.785763 60.198989 280.218435 55.357545 275.376992 
C 50.516102 270.535549 43.948775 267.815273 37.10194 267.815273 
C 30.255106 267.815273 23.687778 270.535549 18.846335 275.376992 
C 14.004892 280.218435 11.284615 286.785763 11.284615 293.632597 
C 11.284615 300.479432 14.004892 307.04676 18.846335 311.888203 
C 23.687778 316.729646 30.255106 319.449922 37.10194 319.449922 
z
" style="fill:none;stroke:#ffbf00;stroke-linejoin:miter;"/>
   </g>
   <g id="patch_27">
    <path clip-path="url(#p001052d649)" d="M 432.303835 69.616059 
C 436.868391 69.616059 441.24661 67.802542 444.474238 64.574913 
C 447.701867 61.347284 449.515385 56.969066 449.515385 52.404509 
C 449.515385 47.839953 447.701867 43.461735 444.474238 40.234106 
C 441.24661 37.006477 436.868391 35.19296 432.303835 35.19296 
C 427.739278 35.19296 423.36106 37.006477 420.133431 40.234106 
C 416.905802 43.461735 415.092285 47.839953 415.092285 52.404509 
C 415.092285 56.969066 416.905802 61.347284 420.133431 64.574913 
C 423.36106 67.802542 427.739278 69.616059 432.303835 69.616059 
z
" style="fill:none;stroke:#ff00bf;stroke-linejoin:miter;"/>
   </g>
   <g id="text_12">
    <!-- 0 -->
    <defs>
     <path d="M 31.78125 66.40625 
Q 24.171875 66.40625 20.328125 58.90625 
Q 16.5 51.421875 16.5 36.375 
Q 16.5 21.390625 20.328125 13.890625 
Q 24.171875 6.390625 31.78125 6.390625 
Q 39.453125 6.390625 43.28125 13.890625 
Q 47.125 21.390625 47.125 36.375 
Q 47.125 51.421875 43.28125 58.90625 
Q 39.453125 66.40625 31.78125 66.40625 
z
M 31.78125 74.21875 
Q 44.046875 74.21875 50.515625 64.515625 
Q 56.984375 54.828125 56.984375 36.375 
Q 56.984375 17.96875 50.515625 8.265625 
Q 44.046875 -1.421875 31.78125 -1.421875 
Q 19.53125 -1.421875 13.0625 8.265625 
Q 6.59375 17.96875 6.59375 36.375 
Q 6.59375 54.828125 13.0625 64.515625 
Q 19.53125 74.21875 31.78125 74.21875 
z
" id="DejaVuSans-30"/>
    </defs>
    <g transform="translate(33.92069 270.574648)scale(0.1 -0.1)">
     <use xlink:href="#DejaVuSans-30"/>
    </g>
   </g>
   <g id="text_13">
    <!-- 1 -->
    <defs>
     <path d="M 12.40625 8.296875 
L 28.515625 8.296875 
L 28.515625 63.921875 
L 10.984375 60.40625 
L 10.984375 69.390625 
L 28.421875 72.90625 
L 38.28125 72.90625 
L 38.28125 8.296875 
L 54.390625 8.296875 
L 54.390625 0 
L 12.40625 0 
z
" id="DejaVuSans-31"/>
    </defs>
    <g transform="translate(231.014399 154.562127)scale(0.1 -0.1)">
     <use xlink:href="#DejaVuSans-31"/>
    </g>
   </g>
   <g id="text_14">
    <!-- 2 -->
    <defs>
     <path d="M 19.1875 8.296875 
L 53.609375 8.296875 
L 53.609375 0 
L 7.328125 0 
L 7.328125 8.296875 
Q 12.9375 14.109375 22.625 23.890625 
Q 32.328125 33.6875 34.8125 36.53125 
Q 39.546875 41.84375 41.421875 45.53125 
Q 43.3125 49.21875 43.3125 52.78125 
Q 43.3125 58.59375 39.234375 62.25 
Q 35.15625 65.921875 28.609375 65.921875 
Q 23.96875 65.921875 18.8125 64.3125 
Q 13.671875 62.703125 7.8125 59.421875 
L 7.8125 69.390625 
Q 13.765625 71.78125 18.9375 73 
Q 24.125 74.21875 28.421875 74.21875 
Q 39.75 74.21875 46.484375 68.546875 
Q 53.21875 62.890625 53.21875 53.421875 
Q 53.21875 48.921875 51.53125 44.890625 
Q 49.859375 40.875 45.40625 35.40625 
Q 44.1875 33.984375 37.640625 27.21875 
Q 31.109375 20.453125 19.1875 8.296875 
z
" id="DejaVuSans-32"/>
    </defs>
    <g transform="translate(429.122585 37.952335)scale(0.1 -0.1)">
     <use xlink:href="#DejaVuSans-32"/>
    </g>
   </g>
  </g>
 </g>
 <defs>
  <clipPath id="p001052d649">
   <rect height="305.031838" width="455.76" x="2.52" y="20.284081"/>
  </clipPath>
 </defs>
</svg>
