<?xml version="1.0" encoding="utf-8" standalone="no"?>
<!DOCTYPE svg PUBLIC "-//W3C//DTD SVG 1.1//EN"
  "http://www.w3.org/Graphics/SVG/1.1/DTD/svg11.dtd">
<!-- Created with matplotlib (https://matplotlib.org/) -->
<svg height="345.6pt" version="1.1" viewBox="0 0 460.8 345.6" width="460.8pt" xmlns="http://www.w3.org/2000/svg" xmlns:xlink="http://www.w3.org/1999/xlink">
 <metadata>
  <rdf:RDF xmlns:cc="http://creativecommons.org/ns#" xmlns:dc="http://purl.org/dc/elements/1.1/" xmlns:rdf="http://www.w3.org/1999/02/22-rdf-syntax-ns#">
   <cc:Work>
    <dc:type rdf:resource="http://purl.org/dc/dcmitype/StillImage"/>
    <dc:date>2021-05-10T20:18:44.070345</dc:date>
    <dc:format>image/svg+xml</dc:format>
    <dc:creator>
     <cc:Agent>
      <dc:title>Matplotlib v3.3.4, https://matplotlib.org/</dc:title>
     </cc:Agent>
    </dc:creator>
   </cc:Work>
  </rdf:RDF>
 </metadata>
 <defs>
  <style type="text/css">*{stroke-linecap:butt;stroke-linejoin:round;}</style>
 </defs>
 <g id="figure_1">
  <g id="patch_1">
   <path d="M 0 345.6 
L 460.8 345.6 
L 460.8 0 
L 0 0 
z
" style="fill:#ffffff;"/>
  </g>
  <g id="axes_1">
   <g id="patch_2">
    <path d="M 160.482192 345.6 
L 300.317808 345.6 
L 300.317808 0 
L 160.482192 0 
z
" style="fill:#ffffff;"/>
   </g>
   <g id="patch_3">
    <path clip-path="url(#p90ed639119)" d="M 222.456325 305.150719 
Q 252.809554 232.684061 238.343675 155.460533 
" style="fill:none;stroke:#7fff00;stroke-dasharray:3.7,1.6;stroke-dashoffset:0;stroke-linejoin:miter;"/>
   </g>
   <g id="patch_4">
    <path clip-path="url(#p90ed639119)" d="M 222.456325 305.150719 
Q 207.990446 227.927191 238.343675 155.460533 
" style="fill:none;stroke:#7fff00;stroke-dasharray:3.7,1.6;stroke-dashoffset:0;stroke-linejoin:miter;"/>
   </g>
   <g id="patch_5">
    <path clip-path="url(#p90ed639119)" d="M 222.456325 305.150719 
Q 275.219108 235.062497 238.343675 155.460533 
" style="fill:none;stroke:#7fff00;stroke-dasharray:3.7,1.6;stroke-dashoffset:0;stroke-linejoin:miter;"/>
   </g>
   <g id="patch_6">
    <path clip-path="url(#p90ed639119)" d="M 222.456325 305.150719 
Q 185.580892 225.548755 238.343675 155.460533 
" style="fill:none;stroke:#7fff00;stroke-dasharray:3.7,1.6;stroke-dashoffset:0;stroke-linejoin:miter;"/>
   </g>
   <g id="patch_7">
    <path clip-path="url(#p90ed639119)" d="M 222.456325 305.150719 
Q 297.628662 237.440932 238.343675 155.460533 
" style="fill:none;stroke:#00ff3f;stroke-dasharray:3.7,1.6;stroke-dashoffset:0;stroke-linejoin:miter;"/>
   </g>
   <g id="patch_8">
    <path clip-path="url(#p90ed639119)" d="M 222.456325 305.150719 
Q 163.171338 223.17032 238.343675 155.460533 
" style="fill:none;stroke:#00ffff;stroke-dasharray:3.7,1.6;stroke-dashoffset:0;stroke-linejoin:miter;"/>
   </g>
   <g id="matplotlib.axis_1"/>
   <g id="matplotlib.axis_2"/>
   <g id="line2d_1">
    <path clip-path="url(#p90ed639119)" d="M 238.343675 155.460533 
L 254.103041 6.646154 
" style="fill:none;stroke:#7f00ff;stroke-dasharray:3.7,1.6;stroke-dashoffset:0;"/>
   </g>
   <g id="line2d_2">
    <path clip-path="url(#p90ed639119)" d="M 222.456325 305.150719 
L 238.343675 155.460533 
" style="fill:none;stroke:#003fff;stroke-dasharray:3.7,1.6;stroke-dashoffset:0;"/>
   </g>
   <g id="text_1">
    <g id="patch_9">
     <path d="M 215.282106 336.5252 
L 229.630544 336.5252 
L 229.630544 318.847075 
L 215.282106 318.847075 
z
" style="fill:#ffffff;stroke:#ffffff;stroke-linejoin:miter;"/>
    </g>
    <!-- b -->
    <g style="fill:#0000ff;" transform="translate(219.282106 330.445512)scale(0.1 -0.1)">
     <defs>
      <path d="M 48.6875 27.296875 
Q 48.6875 37.203125 44.609375 42.84375 
Q 40.53125 48.484375 33.40625 48.484375 
Q 26.265625 48.484375 22.1875 42.84375 
Q 18.109375 37.203125 18.109375 27.296875 
Q 18.109375 17.390625 22.1875 11.75 
Q 26.265625 6.109375 33.40625 6.109375 
Q 40.53125 6.109375 44.609375 11.75 
Q 48.6875 17.390625 48.6875 27.296875 
z
M 18.109375 46.390625 
Q 20.953125 51.265625 25.265625 53.625 
Q 29.59375 56 35.59375 56 
Q 45.5625 56 51.78125 48.09375 
Q 58.015625 40.1875 58.015625 27.296875 
Q 58.015625 14.40625 51.78125 6.484375 
Q 45.5625 -1.421875 35.59375 -1.421875 
Q 29.59375 -1.421875 25.265625 0.953125 
Q 20.953125 3.328125 18.109375 8.203125 
L 18.109375 0 
L 9.078125 0 
L 9.078125 75.984375 
L 18.109375 75.984375 
z
" id="DejaVuSans-98"/>
     </defs>
     <use xlink:href="#DejaVuSans-98"/>
    </g>
   </g>
   <g id="text_2">
    <g id="patch_10">
     <path d="M 215.392262 347.792909 
L 229.520387 347.792909 
L 229.520387 330.114784 
L 215.392262 330.114784 
z
" style="fill:#ffffff;stroke:#ffffff;stroke-linejoin:miter;"/>
    </g>
    <!-- a -->
    <g style="fill:#0000ff;" transform="translate(219.392262 341.713221)scale(0.1 -0.1)">
     <defs>
      <path d="M 34.28125 27.484375 
Q 23.390625 27.484375 19.1875 25 
Q 14.984375 22.515625 14.984375 16.5 
Q 14.984375 11.71875 18.140625 8.90625 
Q 21.296875 6.109375 26.703125 6.109375 
Q 34.1875 6.109375 38.703125 11.40625 
Q 43.21875 16.703125 43.21875 25.484375 
L 43.21875 27.484375 
z
M 52.203125 31.203125 
L 52.203125 0 
L 43.21875 0 
L 43.21875 8.296875 
Q 40.140625 3.328125 35.546875 0.953125 
Q 30.953125 -1.421875 24.3125 -1.421875 
Q 15.921875 -1.421875 10.953125 3.296875 
Q 6 8.015625 6 15.921875 
Q 6 25.140625 12.171875 29.828125 
Q 18.359375 34.515625 30.609375 34.515625 
L 43.21875 34.515625 
L 43.21875 35.40625 
Q 43.21875 41.609375 39.140625 45 
Q 35.0625 48.390625 27.6875 48.390625 
Q 23 48.390625 18.546875 47.265625 
Q 14.109375 46.140625 10.015625 43.890625 
L 10.015625 52.203125 
Q 14.9375 54.109375 19.578125 55.046875 
Q 24.21875 56 28.609375 56 
Q 40.484375 56 46.34375 49.84375 
Q 52.203125 43.703125 52.203125 31.203125 
z
" id="DejaVuSans-97"/>
     </defs>
     <use xlink:href="#DejaVuSans-97"/>
    </g>
   </g>
   <g id="text_3">
    <g id="patch_11">
     <path d="M 235.844621 240.333906 
L 247.364933 240.333906 
L 247.364933 222.655781 
L 235.844621 222.655781 
z
" style="fill:#ffffff;stroke:#ffffff;stroke-linejoin:miter;"/>
    </g>
    <!-- f -->
    <g style="fill:#0000ff;" transform="translate(239.844621 234.254219)scale(0.1 -0.1)">
     <defs>
      <path d="M 37.109375 75.984375 
L 37.109375 68.5 
L 28.515625 68.5 
Q 23.6875 68.5 21.796875 66.546875 
Q 19.921875 64.59375 19.921875 59.515625 
L 19.921875 54.6875 
L 34.71875 54.6875 
L 34.71875 47.703125 
L 19.921875 47.703125 
L 19.921875 0 
L 10.890625 0 
L 10.890625 47.703125 
L 2.296875 47.703125 
L 2.296875 54.6875 
L 10.890625 54.6875 
L 10.890625 58.5 
Q 10.890625 67.625 15.140625 71.796875 
Q 19.390625 75.984375 28.609375 75.984375 
z
" id="DejaVuSans-102"/>
     </defs>
     <use xlink:href="#DejaVuSans-102"/>
    </g>
   </g>
   <g id="text_4">
    <g id="patch_12">
     <path d="M 213.435067 237.955471 
L 224.955379 237.955471 
L 224.955379 220.277346 
L 213.435067 220.277346 
z
" style="fill:#ffffff;stroke:#ffffff;stroke-linejoin:miter;"/>
    </g>
    <!-- f -->
    <g style="fill:#0000ff;" transform="translate(217.435067 231.875783)scale(0.1 -0.1)">
     <use xlink:href="#DejaVuSans-102"/>
    </g>
   </g>
   <g id="text_5">
    <g id="patch_13">
     <path d="M 247.049398 241.523124 
L 258.56971 241.523124 
L 258.56971 223.844999 
L 247.049398 223.844999 
z
" style="fill:#ffffff;stroke:#ffffff;stroke-linejoin:miter;"/>
    </g>
    <!-- f -->
    <g style="fill:#0000ff;" transform="translate(251.049398 235.443436)scale(0.1 -0.1)">
     <use xlink:href="#DejaVuSans-102"/>
    </g>
   </g>
   <g id="text_6">
    <g id="patch_14">
     <path d="M 202.23029 236.766253 
L 213.750602 236.766253 
L 213.750602 219.088128 
L 202.23029 219.088128 
z
" style="fill:#ffffff;stroke:#ffffff;stroke-linejoin:miter;"/>
    </g>
    <!-- f -->
    <g style="fill:#0000ff;" transform="translate(206.23029 230.686566)scale(0.1 -0.1)">
     <use xlink:href="#DejaVuSans-102"/>
    </g>
   </g>
   <g id="text_7">
    <g id="patch_15">
     <path d="M 256.937768 242.712342 
L 271.090893 242.712342 
L 271.090893 225.034217 
L 256.937768 225.034217 
z
" style="fill:#ffffff;stroke:#ffffff;stroke-linejoin:miter;"/>
    </g>
    <!-- e -->
    <g style="fill:#0000ff;" transform="translate(260.937768 236.632654)scale(0.1 -0.1)">
     <defs>
      <path d="M 56.203125 29.59375 
L 56.203125 25.203125 
L 14.890625 25.203125 
Q 15.484375 15.921875 20.484375 11.0625 
Q 25.484375 6.203125 34.421875 6.203125 
Q 39.59375 6.203125 44.453125 7.46875 
Q 49.3125 8.734375 54.109375 11.28125 
L 54.109375 2.78125 
Q 49.265625 0.734375 44.1875 -0.34375 
Q 39.109375 -1.421875 33.890625 -1.421875 
Q 20.796875 -1.421875 13.15625 6.1875 
Q 5.515625 13.8125 5.515625 26.8125 
Q 5.515625 40.234375 12.765625 48.109375 
Q 20.015625 56 32.328125 56 
Q 43.359375 56 49.78125 48.890625 
Q 56.203125 41.796875 56.203125 29.59375 
z
M 47.21875 32.234375 
Q 47.125 39.59375 43.09375 43.984375 
Q 39.0625 48.390625 32.421875 48.390625 
Q 24.90625 48.390625 20.390625 44.140625 
Q 15.875 39.890625 15.1875 32.171875 
z
" id="DejaVuSans-101"/>
     </defs>
     <use xlink:href="#DejaVuSans-101"/>
    </g>
   </g>
   <g id="text_8">
    <g id="patch_16">
     <path d="M 189.61145 235.577036 
L 203.959888 235.577036 
L 203.959888 217.898911 
L 189.61145 217.898911 
z
" style="fill:#ffffff;stroke:#ffffff;stroke-linejoin:miter;"/>
    </g>
    <!-- d -->
    <g style="fill:#0000ff;" transform="translate(193.61145 229.497348)scale(0.1 -0.1)">
     <defs>
      <path d="M 45.40625 46.390625 
L 45.40625 75.984375 
L 54.390625 75.984375 
L 54.390625 0 
L 45.40625 0 
L 45.40625 8.203125 
Q 42.578125 3.328125 38.25 0.953125 
Q 33.9375 -1.421875 27.875 -1.421875 
Q 17.96875 -1.421875 11.734375 6.484375 
Q 5.515625 14.40625 5.515625 27.296875 
Q 5.515625 40.1875 11.734375 48.09375 
Q 17.96875 56 27.875 56 
Q 33.9375 56 38.25 53.625 
Q 42.578125 51.265625 45.40625 46.390625 
z
M 14.796875 27.296875 
Q 14.796875 17.390625 18.875 11.75 
Q 22.953125 6.109375 30.078125 6.109375 
Q 37.203125 6.109375 41.296875 11.75 
Q 45.40625 17.390625 45.40625 27.296875 
Q 45.40625 37.203125 41.296875 42.84375 
Q 37.203125 48.484375 30.078125 48.484375 
Q 22.953125 48.484375 18.875 42.84375 
Q 14.796875 37.203125 14.796875 27.296875 
z
" id="DejaVuSans-100"/>
     </defs>
     <use xlink:href="#DejaVuSans-100"/>
    </g>
   </g>
   <g id="text_9">
    <g id="patch_17">
     <path d="M 246.934291 38.020634 
L 261.271791 38.020634 
L 261.271791 20.342509 
L 246.934291 20.342509 
z
" style="fill:#ffffff;stroke:#ffffff;stroke-linejoin:miter;"/>
    </g>
    <!-- h -->
    <g style="fill:#0000ff;" transform="translate(250.934291 31.940947)scale(0.1 -0.1)">
     <defs>
      <path d="M 54.890625 33.015625 
L 54.890625 0 
L 45.90625 0 
L 45.90625 32.71875 
Q 45.90625 40.484375 42.875 44.328125 
Q 39.84375 48.1875 33.796875 48.1875 
Q 26.515625 48.1875 22.3125 43.546875 
Q 18.109375 38.921875 18.109375 30.90625 
L 18.109375 0 
L 9.078125 0 
L 9.078125 75.984375 
L 18.109375 75.984375 
L 18.109375 46.1875 
Q 21.34375 51.125 25.703125 53.5625 
Q 30.078125 56 35.796875 56 
Q 45.21875 56 50.046875 50.171875 
Q 54.890625 44.34375 54.890625 33.015625 
z
" id="DejaVuSans-104"/>
     </defs>
     <use xlink:href="#DejaVuSans-104"/>
    </g>
   </g>
   <g id="text_10">
    <g id="patch_18">
     <path d="M 239.04914 89.892406 
L 253.397577 89.892406 
L 253.397577 72.214281 
L 239.04914 72.214281 
z
" style="fill:#ffffff;stroke:#ffffff;stroke-linejoin:miter;"/>
    </g>
    <!-- g -->
    <g style="fill:#0000ff;" transform="translate(243.04914 83.812718)scale(0.1 -0.1)">
     <defs>
      <path d="M 45.40625 27.984375 
Q 45.40625 37.75 41.375 43.109375 
Q 37.359375 48.484375 30.078125 48.484375 
Q 22.859375 48.484375 18.828125 43.109375 
Q 14.796875 37.75 14.796875 27.984375 
Q 14.796875 18.265625 18.828125 12.890625 
Q 22.859375 7.515625 30.078125 7.515625 
Q 37.359375 7.515625 41.375 12.890625 
Q 45.40625 18.265625 45.40625 27.984375 
z
M 54.390625 6.78125 
Q 54.390625 -7.171875 48.1875 -13.984375 
Q 42 -20.796875 29.203125 -20.796875 
Q 24.46875 -20.796875 20.265625 -20.09375 
Q 16.0625 -19.390625 12.109375 -17.921875 
L 12.109375 -9.1875 
Q 16.0625 -11.328125 19.921875 -12.34375 
Q 23.78125 -13.375 27.78125 -13.375 
Q 36.625 -13.375 41.015625 -8.765625 
Q 45.40625 -4.15625 45.40625 5.171875 
L 45.40625 9.625 
Q 42.625 4.78125 38.28125 2.390625 
Q 33.9375 0 27.875 0 
Q 17.828125 0 11.671875 7.65625 
Q 5.515625 15.328125 5.515625 27.984375 
Q 5.515625 40.671875 11.671875 48.328125 
Q 17.828125 56 27.875 56 
Q 33.9375 56 38.28125 53.609375 
Q 42.625 51.21875 45.40625 46.390625 
L 45.40625 54.6875 
L 54.390625 54.6875 
z
" id="DejaVuSans-103"/>
     </defs>
     <use xlink:href="#DejaVuSans-103"/>
    </g>
   </g>
   <g id="text_11">
    <g id="patch_19">
     <path d="M 223.650781 239.144689 
L 237.149219 239.144689 
L 237.149219 221.466564 
L 223.650781 221.466564 
z
" style="fill:#ffffff;stroke:#ffffff;stroke-linejoin:miter;"/>
    </g>
    <!-- c -->
    <g style="fill:#0000ff;" transform="translate(227.650781 233.065001)scale(0.1 -0.1)">
     <defs>
      <path d="M 48.78125 52.59375 
L 48.78125 44.1875 
Q 44.96875 46.296875 41.140625 47.34375 
Q 37.3125 48.390625 33.40625 48.390625 
Q 24.65625 48.390625 19.8125 42.84375 
Q 14.984375 37.3125 14.984375 27.296875 
Q 14.984375 17.28125 19.8125 11.734375 
Q 24.65625 6.203125 33.40625 6.203125 
Q 37.3125 6.203125 41.140625 7.25 
Q 44.96875 8.296875 48.78125 10.40625 
L 48.78125 2.09375 
Q 45.015625 0.34375 40.984375 -0.53125 
Q 36.96875 -1.421875 32.421875 -1.421875 
Q 20.0625 -1.421875 12.78125 6.34375 
Q 5.515625 14.109375 5.515625 27.296875 
Q 5.515625 40.671875 12.859375 48.328125 
Q 20.21875 56 33.015625 56 
Q 37.15625 56 41.109375 55.140625 
Q 45.0625 54.296875 48.78125 52.59375 
z
" id="DejaVuSans-99"/>
     </defs>
     <use xlink:href="#DejaVuSans-99"/>
    </g>
   </g>
   <g id="patch_20">
    <path clip-path="url(#p90ed639119)" d="M 222.456325 327.686137 
C 225.444556 327.686137 228.3108 326.4989 230.423798 324.385902 
C 232.536797 322.272903 233.724034 319.40666 233.724034 316.418428 
C 233.724034 313.430197 232.536797 310.563954 230.423798 308.450955 
C 228.3108 306.337956 225.444556 305.150719 222.456325 305.150719 
C 219.468094 305.150719 216.60185 306.337956 214.488852 308.450955 
C 212.375853 310.563954 211.188616 313.430197 211.188616 316.418428 
C 211.188616 319.40666 212.375853 322.272903 214.488852 324.385902 
C 216.60185 326.4989 219.468094 327.686137 222.456325 327.686137 
z
" style="fill:none;stroke:#ff0000;stroke-dasharray:3.7,1.6;stroke-dashoffset:0;stroke-linejoin:miter;"/>
   </g>
   <g id="patch_21">
    <path clip-path="url(#p90ed639119)" d="M 222.456325 338.953846 
C 226.938672 338.953846 231.238037 337.172991 234.407535 334.003493 
C 237.577033 330.833995 239.357888 326.53463 239.357888 322.052283 
C 239.357888 317.569936 237.577033 313.270571 234.407535 310.101073 
C 231.238037 306.931575 226.938672 305.150719 222.456325 305.150719 
C 217.973978 305.150719 213.674613 306.931575 210.505115 310.101073 
C 207.335617 313.270571 205.554762 317.569936 205.554762 322.052283 
C 205.554762 326.53463 207.335617 330.833995 210.505115 334.003493 
C 213.674613 337.172991 217.973978 338.953846 222.456325 338.953846 
z
" style="fill:none;stroke:#ffbf00;stroke-dasharray:3.7,1.6;stroke-dashoffset:0;stroke-linejoin:miter;"/>
   </g>
   <g id="patch_22">
    <path clip-path="url(#p90ed639119)" d="M 254.103041 29.181572 
C 257.091273 29.181572 259.957516 27.994335 262.070515 25.881336 
C 264.183513 23.768338 265.37075 20.902094 265.37075 17.913863 
C 265.37075 14.925631 264.183513 12.059388 262.070515 9.946389 
C 259.957516 7.833391 257.091273 6.646154 254.103041 6.646154 
C 251.11481 6.646154 248.248567 7.833391 246.135568 9.946389 
C 244.022569 12.059388 242.835333 14.925631 242.835333 17.913863 
C 242.835333 20.902094 244.022569 23.768338 246.135568 25.881336 
C 248.248567 27.994335 251.11481 29.181572 254.103041 29.181572 
z
" style="fill:none;stroke:#ff00bf;stroke-dasharray:3.7,1.6;stroke-dashoffset:0;stroke-linejoin:miter;"/>
   </g>
   <g id="PathCollection_1">
    <defs>
     <path d="M 0 11.18034 
C 2.965061 11.18034 5.80908 10.002309 7.905694 7.905694 
C 10.002309 5.80908 11.18034 2.965061 11.18034 0 
C 11.18034 -2.965061 10.002309 -5.80908 7.905694 -7.905694 
C 5.80908 -10.002309 2.965061 -11.18034 0 -11.18034 
C -2.965061 -11.18034 -5.80908 -10.002309 -7.905694 -7.905694 
C -10.002309 -5.80908 -11.18034 -2.965061 -11.18034 0 
C -11.18034 2.965061 -10.002309 5.80908 -7.905694 7.905694 
C -5.80908 10.002309 -2.965061 11.18034 0 11.18034 
z
" id="m741df20ab1" style="stroke:#000000;"/>
    </defs>
    <g>
     <use style="fill:#ffffff;stroke:#000000;" x="222.456325" xlink:href="#m741df20ab1" y="305.150719"/>
     <use style="fill:#ffffff;stroke:#000000;" x="238.343675" xlink:href="#m741df20ab1" y="155.460533"/>
     <use style="fill:#ffffff;stroke:#000000;" x="254.103041" xlink:href="#m741df20ab1" y="6.646154"/>
    </g>
   </g>
   <g id="text_12">
    <!-- 0 -->
    <g transform="translate(219.275075 307.910094)scale(0.1 -0.1)">
     <defs>
      <path d="M 31.78125 66.40625 
Q 24.171875 66.40625 20.328125 58.90625 
Q 16.5 51.421875 16.5 36.375 
Q 16.5 21.390625 20.328125 13.890625 
Q 24.171875 6.390625 31.78125 6.390625 
Q 39.453125 6.390625 43.28125 13.890625 
Q 47.125 21.390625 47.125 36.375 
Q 47.125 51.421875 43.28125 58.90625 
Q 39.453125 66.40625 31.78125 66.40625 
z
M 31.78125 74.21875 
Q 44.046875 74.21875 50.515625 64.515625 
Q 56.984375 54.828125 56.984375 36.375 
Q 56.984375 17.96875 50.515625 8.265625 
Q 44.046875 -1.421875 31.78125 -1.421875 
Q 19.53125 -1.421875 13.0625 8.265625 
Q 6.59375 17.96875 6.59375 36.375 
Q 6.59375 54.828125 13.0625 64.515625 
Q 19.53125 74.21875 31.78125 74.21875 
z
" id="DejaVuSans-48"/>
     </defs>
     <use xlink:href="#DejaVuSans-48"/>
    </g>
   </g>
   <g id="text_13">
    <!-- 1 -->
    <g transform="translate(235.162425 158.219908)scale(0.1 -0.1)">
     <defs>
      <path d="M 12.40625 8.296875 
L 28.515625 8.296875 
L 28.515625 63.921875 
L 10.984375 60.40625 
L 10.984375 69.390625 
L 28.421875 72.90625 
L 38.28125 72.90625 
L 38.28125 8.296875 
L 54.390625 8.296875 
L 54.390625 0 
L 12.40625 0 
z
" id="DejaVuSans-49"/>
     </defs>
     <use xlink:href="#DejaVuSans-49"/>
    </g>
   </g>
   <g id="text_14">
    <!-- 2 -->
    <g transform="translate(250.921791 9.405529)scale(0.1 -0.1)">
     <defs>
      <path d="M 19.1875 8.296875 
L 53.609375 8.296875 
L 53.609375 0 
L 7.328125 0 
L 7.328125 8.296875 
Q 12.9375 14.109375 22.625 23.890625 
Q 32.328125 33.6875 34.8125 36.53125 
Q 39.546875 41.84375 41.421875 45.53125 
Q 43.3125 49.21875 43.3125 52.78125 
Q 43.3125 58.59375 39.234375 62.25 
Q 35.15625 65.921875 28.609375 65.921875 
Q 23.96875 65.921875 18.8125 64.3125 
Q 13.671875 62.703125 7.8125 59.421875 
L 7.8125 69.390625 
Q 13.765625 71.78125 18.9375 73 
Q 24.125 74.21875 28.421875 74.21875 
Q 39.75 74.21875 46.484375 68.546875 
Q 53.21875 62.890625 53.21875 53.421875 
Q 53.21875 48.921875 51.53125 44.890625 
Q 49.859375 40.875 45.40625 35.40625 
Q 44.1875 33.984375 37.640625 27.21875 
Q 31.109375 20.453125 19.1875 8.296875 
z
" id="DejaVuSans-50"/>
     </defs>
     <use xlink:href="#DejaVuSans-50"/>
    </g>
   </g>
  </g>
 </g>
 <defs>
  <clipPath id="p90ed639119">
   <rect height="345.6" width="139.835616" x="160.482192" y="0"/>
  </clipPath>
 </defs>
</svg>
