<?xml version="1.0" encoding="utf-8" standalone="no"?>
<!DOCTYPE svg PUBLIC "-//W3C//DTD SVG 1.1//EN"
  "http://www.w3.org/Graphics/SVG/1.1/DTD/svg11.dtd">
<!-- Created with matplotlib (https://matplotlib.org/) -->
<svg height="345.6pt" version="1.1" viewBox="0 0 460.8 345.6" width="460.8pt" xmlns="http://www.w3.org/2000/svg" xmlns:xlink="http://www.w3.org/1999/xlink">
 <metadata>
  <rdf:RDF xmlns:cc="http://creativecommons.org/ns#" xmlns:dc="http://purl.org/dc/elements/1.1/" xmlns:rdf="http://www.w3.org/1999/02/22-rdf-syntax-ns#">
   <cc:Work>
    <dc:type rdf:resource="http://purl.org/dc/dcmitype/StillImage"/>
    <dc:date>2021-05-10T20:18:42.037013</dc:date>
    <dc:format>image/svg+xml</dc:format>
    <dc:creator>
     <cc:Agent>
      <dc:title>Matplotlib v3.3.4, https://matplotlib.org/</dc:title>
     </cc:Agent>
    </dc:creator>
   </cc:Work>
  </rdf:RDF>
 </metadata>
 <defs>
  <style type="text/css">*{stroke-linecap:butt;stroke-linejoin:round;}</style>
 </defs>
 <g id="figure_1">
  <g id="patch_1">
   <path d="M 0 345.6 
L 460.8 345.6 
L 460.8 0 
L 0 0 
z
" style="fill:#ffffff;"/>
  </g>
  <g id="axes_1">
   <g id="patch_2">
    <path d="M 0 308.905581 
L 460.8 308.905581 
L 460.8 36.694419 
L 0 36.694419 
z
" style="fill:#ffffff;"/>
   </g>
   <g id="patch_3">
    <path clip-path="url(#pd47de1056a)" d="M 131.978903 195.376118 
Q 104.156023 262.931494 36.985079 285.385203 
" style="fill:none;stroke:#000000;stroke-linecap:round;stroke-width:2;"/>
    <path clip-path="url(#pd47de1056a)" d="M 48.054389 286.956943 
L 36.985079 285.385203 
L 44.884057 277.472799 
L 48.054389 286.956943 
z
" style="stroke:#000000;stroke-linecap:round;stroke-width:2;"/>
   </g>
   <g id="patch_4">
    <path clip-path="url(#pd47de1056a)" d="M 122.283272 187.976005 
Q 55.112328 210.429714 27.289448 277.98509 
" style="fill:none;stroke:#000000;stroke-linecap:round;stroke-width:2;"/>
    <path clip-path="url(#pd47de1056a)" d="M 111.213961 186.404265 
L 122.283272 187.976005 
L 114.384294 195.88841 
L 111.213961 186.404265 
z
" style="stroke:#000000;stroke-linecap:round;stroke-width:2;"/>
   </g>
   <g id="matplotlib.axis_1"/>
   <g id="matplotlib.axis_2"/>
   <g id="patch_5">
    <path clip-path="url(#pd47de1056a)" d="M 140.106728 170.042608 
Q 152.034182 119.155484 163.451352 70.445425 
" style="fill:none;stroke:#000000;stroke-linecap:round;stroke-width:2;"/>
    <path clip-path="url(#pd47de1056a)" d="M 156.301232 79.040527 
L 163.451352 70.445425 
L 166.037362 81.322583 
L 156.301232 79.040527 
z
" style="stroke:#000000;stroke-linecap:round;stroke-width:2;"/>
   </g>
   <g id="patch_6">
    <path clip-path="url(#pd47de1056a)" d="M 148.963503 176.999482 
Q 211.645711 145.208391 272.33368 114.428736 
" style="fill:none;stroke:#000000;stroke-linecap:round;stroke-width:2;"/>
    <path clip-path="url(#pd47de1056a)" d="M 261.153523 114.492761 
L 272.33368 114.428736 
L 265.676805 123.411276 
L 261.153523 114.492761 
z
" style="stroke:#000000;stroke-linecap:round;stroke-width:2;"/>
   </g>
   <g id="patch_7">
    <path clip-path="url(#pd47de1056a)" d="M 181.284857 61.514863 
Q 226.618712 81.327787 274.001501 102.036186 
" style="fill:none;stroke:#000000;stroke-linecap:round;stroke-width:2;"/>
    <path clip-path="url(#pd47de1056a)" d="M 188.445618 70.101102 
L 181.284857 61.514863 
L 192.450305 60.937997 
L 188.445618 70.101102 
z
" style="stroke:#000000;stroke-linecap:round;stroke-width:2;"/>
   </g>
   <g id="patch_8">
    <path clip-path="url(#pd47de1056a)" d="M 299.265347 104.51854 
Q 362.411536 90.653361 423.373686 77.267738 
" style="fill:none;stroke:#000000;stroke-linecap:round;stroke-width:2;"/>
    <path clip-path="url(#pd47de1056a)" d="M 412.534048 74.528715 
L 423.373686 77.267738 
L 414.678685 84.296035 
L 412.534048 74.528715 
z
" style="stroke:#000000;stroke-linecap:round;stroke-width:2;"/>
   </g>
   <g id="patch_9">
    <path d="M 137.061181 196.38172 
C 140.600483 196.38172 143.995302 194.97554 146.497967 192.472875 
C 149.000632 189.97021 150.406812 186.575391 150.406812 183.036088 
C 150.406812 179.496786 149.000632 176.101967 146.497967 173.599302 
C 143.995302 171.096637 140.600483 169.690457 137.061181 169.690457 
C 133.521878 169.690457 130.127059 171.096637 127.624394 173.599302 
C 125.121729 176.101967 123.715549 179.496786 123.715549 183.036088 
C 123.715549 186.575391 125.121729 189.97021 127.624394 192.472875 
C 130.127059 194.97554 133.521878 196.38172 137.061181 196.38172 
z
" style="fill:#fec7b8;stroke:#000000;stroke-linejoin:miter;"/>
   </g>
   <g id="patch_10">
    <path d="M 167.007183 68.620512 
C 170.546486 68.620512 173.941304 67.214332 176.443969 64.711667 
C 178.946634 62.209002 180.352814 58.814183 180.352814 55.27488 
C 180.352814 51.735577 178.946634 48.340759 176.443969 45.838094 
C 173.941304 43.335429 170.546486 41.929249 167.007183 41.929249 
C 163.46788 41.929249 160.073061 43.335429 157.570396 45.838094 
C 155.067731 48.340759 153.661551 51.735577 153.661551 55.27488 
C 153.661551 58.814183 155.067731 62.209002 157.570396 64.711667 
C 160.073061 67.214332 163.46788 68.620512 167.007183 68.620512 
z
" style="fill:#fec7b8;stroke:#000000;stroke-linejoin:miter;"/>
   </g>
   <g id="patch_11">
    <path d="M 286.230242 120.726325 
C 289.769545 120.726325 293.164364 119.320145 295.667029 116.81748 
C 298.169694 114.314815 299.575874 110.919996 299.575874 107.380693 
C 299.575874 103.84139 298.169694 100.446572 295.667029 97.943906 
C 293.164364 95.441241 289.769545 94.035061 286.230242 94.035061 
C 282.690939 94.035061 279.296121 95.441241 276.793456 97.943906 
C 274.290791 100.446572 272.884611 103.84139 272.884611 107.380693 
C 272.884611 110.919996 274.290791 114.314815 276.793456 116.81748 
C 279.296121 119.320145 282.690939 120.726325 286.230242 120.726325 
z
" style="fill:#fec7b8;stroke:#000000;stroke-linejoin:miter;"/>
   </g>
   <g id="patch_12">
    <path d="M 22.20717 303.670751 
C 25.746473 303.670751 29.141292 302.264571 31.643957 299.761906 
C 34.146622 297.259241 35.552802 293.864423 35.552802 290.32512 
C 35.552802 286.785817 34.146622 283.390998 31.643957 280.888333 
C 29.141292 278.385668 25.746473 276.979488 22.20717 276.979488 
C 18.667867 276.979488 15.273049 278.385668 12.770383 280.888333 
C 10.267718 283.390998 8.861538 286.785817 8.861538 290.32512 
C 8.861538 293.864423 10.267718 297.259241 12.770383 299.761906 
C 15.273049 302.264571 18.667867 303.670751 22.20717 303.670751 
z
" style="fill:#fec7b8;stroke:#000000;stroke-linejoin:miter;"/>
   </g>
   <g id="patch_13">
    <path d="M 438.59283 87.271661 
C 442.132133 87.271661 445.526951 85.865481 448.029617 83.362816 
C 450.532282 80.860151 451.938462 77.465333 451.938462 73.92603 
C 451.938462 70.386727 450.532282 66.991908 448.029617 64.489243 
C 445.526951 61.986578 442.132133 60.580398 438.59283 60.580398 
C 435.053527 60.580398 431.658708 61.986578 429.156043 64.489243 
C 426.653378 66.991908 425.247198 70.386727 425.247198 73.92603 
C 425.247198 77.465333 426.653378 80.860151 429.156043 83.362816 
C 431.658708 85.865481 435.053527 87.271661 438.59283 87.271661 
z
" style="fill:#fec7b8;stroke:#000000;stroke-linejoin:miter;"/>
   </g>
   <g id="text_1">
    <!-- 0 -->
    <g transform="translate(133.879931 185.795463)scale(0.1 -0.1)">
     <defs>
      <path d="M 31.78125 66.40625 
Q 24.171875 66.40625 20.328125 58.90625 
Q 16.5 51.421875 16.5 36.375 
Q 16.5 21.390625 20.328125 13.890625 
Q 24.171875 6.390625 31.78125 6.390625 
Q 39.453125 6.390625 43.28125 13.890625 
Q 47.125 21.390625 47.125 36.375 
Q 47.125 51.421875 43.28125 58.90625 
Q 39.453125 66.40625 31.78125 66.40625 
z
M 31.78125 74.21875 
Q 44.046875 74.21875 50.515625 64.515625 
Q 56.984375 54.828125 56.984375 36.375 
Q 56.984375 17.96875 50.515625 8.265625 
Q 44.046875 -1.421875 31.78125 -1.421875 
Q 19.53125 -1.421875 13.0625 8.265625 
Q 6.59375 17.96875 6.59375 36.375 
Q 6.59375 54.828125 13.0625 64.515625 
Q 19.53125 74.21875 31.78125 74.21875 
z
" id="DejaVuSans-48"/>
     </defs>
     <use xlink:href="#DejaVuSans-48"/>
    </g>
   </g>
   <g id="text_2">
    <!-- 1 -->
    <g transform="translate(163.825933 58.034255)scale(0.1 -0.1)">
     <defs>
      <path d="M 12.40625 8.296875 
L 28.515625 8.296875 
L 28.515625 63.921875 
L 10.984375 60.40625 
L 10.984375 69.390625 
L 28.421875 72.90625 
L 38.28125 72.90625 
L 38.28125 8.296875 
L 54.390625 8.296875 
L 54.390625 0 
L 12.40625 0 
z
" id="DejaVuSans-49"/>
     </defs>
     <use xlink:href="#DejaVuSans-49"/>
    </g>
   </g>
   <g id="text_3">
    <!-- 2 -->
    <g transform="translate(283.048992 110.140068)scale(0.1 -0.1)">
     <defs>
      <path d="M 19.1875 8.296875 
L 53.609375 8.296875 
L 53.609375 0 
L 7.328125 0 
L 7.328125 8.296875 
Q 12.9375 14.109375 22.625 23.890625 
Q 32.328125 33.6875 34.8125 36.53125 
Q 39.546875 41.84375 41.421875 45.53125 
Q 43.3125 49.21875 43.3125 52.78125 
Q 43.3125 58.59375 39.234375 62.25 
Q 35.15625 65.921875 28.609375 65.921875 
Q 23.96875 65.921875 18.8125 64.3125 
Q 13.671875 62.703125 7.8125 59.421875 
L 7.8125 69.390625 
Q 13.765625 71.78125 18.9375 73 
Q 24.125 74.21875 28.421875 74.21875 
Q 39.75 74.21875 46.484375 68.546875 
Q 53.21875 62.890625 53.21875 53.421875 
Q 53.21875 48.921875 51.53125 44.890625 
Q 49.859375 40.875 45.40625 35.40625 
Q 44.1875 33.984375 37.640625 27.21875 
Q 31.109375 20.453125 19.1875 8.296875 
z
" id="DejaVuSans-50"/>
     </defs>
     <use xlink:href="#DejaVuSans-50"/>
    </g>
   </g>
   <g id="text_4">
    <!-- 3 -->
    <g transform="translate(19.02592 293.084495)scale(0.1 -0.1)">
     <defs>
      <path d="M 40.578125 39.3125 
Q 47.65625 37.796875 51.625 33 
Q 55.609375 28.21875 55.609375 21.1875 
Q 55.609375 10.40625 48.1875 4.484375 
Q 40.765625 -1.421875 27.09375 -1.421875 
Q 22.515625 -1.421875 17.65625 -0.515625 
Q 12.796875 0.390625 7.625 2.203125 
L 7.625 11.71875 
Q 11.71875 9.328125 16.59375 8.109375 
Q 21.484375 6.890625 26.8125 6.890625 
Q 36.078125 6.890625 40.9375 10.546875 
Q 45.796875 14.203125 45.796875 21.1875 
Q 45.796875 27.640625 41.28125 31.265625 
Q 36.765625 34.90625 28.71875 34.90625 
L 20.21875 34.90625 
L 20.21875 43.015625 
L 29.109375 43.015625 
Q 36.375 43.015625 40.234375 45.921875 
Q 44.09375 48.828125 44.09375 54.296875 
Q 44.09375 59.90625 40.109375 62.90625 
Q 36.140625 65.921875 28.71875 65.921875 
Q 24.65625 65.921875 20.015625 65.03125 
Q 15.375 64.15625 9.8125 62.3125 
L 9.8125 71.09375 
Q 15.4375 72.65625 20.34375 73.4375 
Q 25.25 74.21875 29.59375 74.21875 
Q 40.828125 74.21875 47.359375 69.109375 
Q 53.90625 64.015625 53.90625 55.328125 
Q 53.90625 49.265625 50.4375 45.09375 
Q 46.96875 40.921875 40.578125 39.3125 
z
" id="DejaVuSans-51"/>
     </defs>
     <use xlink:href="#DejaVuSans-51"/>
    </g>
   </g>
   <g id="text_5">
    <!-- 4 -->
    <g transform="translate(435.41158 76.685405)scale(0.1 -0.1)">
     <defs>
      <path d="M 37.796875 64.3125 
L 12.890625 25.390625 
L 37.796875 25.390625 
z
M 35.203125 72.90625 
L 47.609375 72.90625 
L 47.609375 25.390625 
L 58.015625 25.390625 
L 58.015625 17.1875 
L 47.609375 17.1875 
L 47.609375 0 
L 37.796875 0 
L 37.796875 17.1875 
L 4.890625 17.1875 
L 4.890625 26.703125 
z
" id="DejaVuSans-52"/>
     </defs>
     <use xlink:href="#DejaVuSans-52"/>
    </g>
   </g>
  </g>
 </g>
 <defs>
  <clipPath id="pd47de1056a">
   <rect height="272.211163" width="460.8" x="0" y="36.694419"/>
  </clipPath>
 </defs>
</svg>
