<?xml version="1.0" encoding="utf-8" standalone="no"?>
<!DOCTYPE svg PUBLIC "-//W3C//DTD SVG 1.1//EN"
  "http://www.w3.org/Graphics/SVG/1.1/DTD/svg11.dtd">
<svg xmlns:xlink="http://www.w3.org/1999/xlink" width="460.8pt" height="345.6pt" viewBox="0 0 460.8 345.6" xmlns="http://www.w3.org/2000/svg" version="1.1">
 <metadata>
  <rdf:RDF xmlns:dc="http://purl.org/dc/elements/1.1/" xmlns:cc="http://creativecommons.org/ns#" xmlns:rdf="http://www.w3.org/1999/02/22-rdf-syntax-ns#">
   <cc:Work>
    <dc:type rdf:resource="http://purl.org/dc/dcmitype/StillImage"/>
    <dc:date>2024-03-20T19:02:04.984794</dc:date>
    <dc:format>image/svg+xml</dc:format>
    <dc:creator>
     <cc:Agent>
      <dc:title>Matplotlib v3.8.0, https://matplotlib.org/</dc:title>
     </cc:Agent>
    </dc:creator>
   </cc:Work>
  </rdf:RDF>
 </metadata>
 <defs>
  <style type="text/css">*{stroke-linejoin: round; stroke-linecap: butt}</style>
 </defs>
 <g id="figure_1">
  <g id="patch_1">
   <path d="M 0 345.6 
L 460.8 345.6 
L 460.8 0 
L 0 0 
z
" style="fill: #ffffff"/>
  </g>
  <g id="axes_1">
   <g id="patch_2">
    <path d="M 32.120906 47.828571 
L 69.149477 47.828571 
L 69.149477 10.8 
L 32.120906 10.8 
z
" style="fill: #ffffff"/>
   </g>
   <g id="matplotlib.axis_1"/>
   <g id="matplotlib.axis_2"/>
   <g id="line2d_1">
    <path d="M 39.953873 11.512088 
L 39.953873 18.632967 
L 39.953873 25.753846 
L 32.832994 25.753846 
" clip-path="url(#pd5e4c66941)" style="fill: none; stroke: #00ff80; stroke-linecap: square"/>
   </g>
   <g id="line2d_2">
    <path d="M 54.195631 11.512088 
L 54.195631 18.632967 
L 47.074752 18.632967 
L 47.074752 25.753846 
L 47.074752 32.874725 
L 39.953873 32.874725 
L 39.953873 39.995604 
L 32.832994 39.995604 
" clip-path="url(#pd5e4c66941)" style="fill: none; stroke: #00db92; stroke-linecap: square"/>
   </g>
   <g id="line2d_3">
    <path d="M 68.437389 18.632967 
L 61.31651 18.632967 
L 61.31651 25.753846 
L 54.195631 25.753846 
L 54.195631 32.874725 
L 54.195631 39.995604 
L 47.074752 39.995604 
L 47.074752 47.116484 
" clip-path="url(#pd5e4c66941)" style="fill: none; stroke: #00b6a4; stroke-linecap: square"/>
   </g>
   <g id="line2d_4">
    <path d="M 68.437389 32.874725 
L 61.31651 32.874725 
L 61.31651 39.995604 
L 61.31651 47.116484 
" clip-path="url(#pd5e4c66941)" style="fill: none; stroke: #0092b6; stroke-linecap: square"/>
   </g>
  </g>
  <g id="axes_2">
   <g id="patch_3">
    <path d="M 104.026829 47.828571 
L 141.055401 47.828571 
L 141.055401 10.8 
L 104.026829 10.8 
z
" style="fill: #ffffff"/>
   </g>
   <g id="matplotlib.axis_3"/>
   <g id="matplotlib.axis_4"/>
   <g id="line2d_5">
    <path d="M 111.859796 11.512088 
L 111.859796 18.632967 
L 111.859796 25.753846 
L 104.738917 25.753846 
" clip-path="url(#pa7f411fe0b)" style="fill: none; stroke: #00ff80; stroke-linecap: square"/>
   </g>
   <g id="line2d_6">
    <path d="M 126.101555 11.512088 
L 126.101555 18.632967 
L 118.980675 18.632967 
L 118.980675 25.753846 
L 118.980675 32.874725 
L 111.859796 32.874725 
L 111.859796 39.995604 
L 104.738917 39.995604 
" clip-path="url(#pa7f411fe0b)" style="fill: none; stroke: #00db92; stroke-linecap: square"/>
   </g>
   <g id="line2d_7">
    <path d="M 140.343313 18.632967 
L 133.222434 18.632967 
L 133.222434 25.753846 
L 126.101555 25.753846 
L 126.101555 32.874725 
L 133.222434 32.874725 
L 140.343313 32.874725 
" clip-path="url(#pa7f411fe0b)" style="fill: none; stroke: #00b6a4; stroke-linecap: square"/>
   </g>
   <g id="line2d_8">
    <path d="M 133.222434 47.116484 
L 133.222434 39.995604 
L 126.101555 39.995604 
L 118.980675 39.995604 
L 118.980675 47.116484 
" clip-path="url(#pa7f411fe0b)" style="fill: none; stroke: #0092b6; stroke-linecap: square"/>
   </g>
  </g>
  <g id="axes_3">
   <g id="patch_4">
    <path d="M 175.932753 47.828571 
L 212.961324 47.828571 
L 212.961324 10.8 
L 175.932753 10.8 
z
" style="fill: #ffffff"/>
   </g>
   <g id="matplotlib.axis_5"/>
   <g id="matplotlib.axis_6"/>
   <g id="line2d_9">
    <path d="M 183.76572 11.512088 
L 183.76572 18.632967 
L 183.76572 25.753846 
L 176.644841 25.753846 
" clip-path="url(#p1b87368133)" style="fill: none; stroke: #00ff80; stroke-linecap: square"/>
   </g>
   <g id="line2d_10">
    <path d="M 198.007478 11.512088 
L 198.007478 18.632967 
L 190.886599 18.632967 
L 190.886599 25.753846 
L 198.007478 25.753846 
L 205.128357 25.753846 
L 205.128357 18.632967 
L 212.249236 18.632967 
" clip-path="url(#p1b87368133)" style="fill: none; stroke: #00db92; stroke-linecap: square"/>
   </g>
   <g id="line2d_11">
    <path d="M 212.249236 32.874725 
L 205.128357 32.874725 
L 198.007478 32.874725 
L 190.886599 32.874725 
L 183.76572 32.874725 
L 183.76572 39.995604 
L 176.644841 39.995604 
" clip-path="url(#p1b87368133)" style="fill: none; stroke: #00b6a4; stroke-linecap: square"/>
   </g>
   <g id="line2d_12">
    <path d="M 205.128357 47.116484 
L 205.128357 39.995604 
L 198.007478 39.995604 
L 190.886599 39.995604 
L 190.886599 47.116484 
" clip-path="url(#p1b87368133)" style="fill: none; stroke: #0092b6; stroke-linecap: square"/>
   </g>
  </g>
  <g id="axes_4">
   <g id="patch_5">
    <path d="M 247.838676 47.828571 
L 284.867247 47.828571 
L 284.867247 10.8 
L 247.838676 10.8 
z
" style="fill: #ffffff"/>
   </g>
   <g id="matplotlib.axis_7"/>
   <g id="matplotlib.axis_8"/>
   <g id="line2d_13">
    <path d="M 255.671643 11.512088 
L 255.671643 18.632967 
L 255.671643 25.753846 
L 248.550764 25.753846 
" clip-path="url(#pff599e4927)" style="fill: none; stroke: #00ff80; stroke-linecap: square"/>
   </g>
   <g id="line2d_14">
    <path d="M 269.913401 11.512088 
L 269.913401 18.632967 
L 262.792522 18.632967 
L 262.792522 25.753846 
L 269.913401 25.753846 
L 277.03428 25.753846 
L 277.03428 18.632967 
L 284.155159 18.632967 
" clip-path="url(#pff599e4927)" style="fill: none; stroke: #00db92; stroke-linecap: square"/>
   </g>
   <g id="line2d_15">
    <path d="M 284.155159 32.874725 
L 277.03428 32.874725 
L 277.03428 39.995604 
L 277.03428 47.116484 
" clip-path="url(#pff599e4927)" style="fill: none; stroke: #00b6a4; stroke-linecap: square"/>
   </g>
   <g id="line2d_16">
    <path d="M 262.792522 47.116484 
L 262.792522 39.995604 
L 269.913401 39.995604 
L 269.913401 32.874725 
L 262.792522 32.874725 
L 255.671643 32.874725 
L 255.671643 39.995604 
L 248.550764 39.995604 
" clip-path="url(#pff599e4927)" style="fill: none; stroke: #0092b6; stroke-linecap: square"/>
   </g>
  </g>
  <g id="axes_5">
   <g id="patch_6">
    <path d="M 319.744599 47.828571 
L 356.773171 47.828571 
L 356.773171 10.8 
L 319.744599 10.8 
z
" style="fill: #ffffff"/>
   </g>
   <g id="matplotlib.axis_9"/>
   <g id="matplotlib.axis_10"/>
   <g id="line2d_17">
    <path d="M 327.577566 11.512088 
L 327.577566 18.632967 
L 327.577566 25.753846 
L 320.456687 25.753846 
" clip-path="url(#p82132e2a74)" style="fill: none; stroke: #00ff80; stroke-linecap: square"/>
   </g>
   <g id="line2d_18">
    <path d="M 341.819325 11.512088 
L 341.819325 18.632967 
L 334.698445 18.632967 
L 334.698445 25.753846 
L 341.819325 25.753846 
L 348.940204 25.753846 
L 348.940204 18.632967 
L 356.061083 18.632967 
" clip-path="url(#p82132e2a74)" style="fill: none; stroke: #00db92; stroke-linecap: square"/>
   </g>
   <g id="line2d_19">
    <path d="M 356.061083 32.874725 
L 348.940204 32.874725 
L 341.819325 32.874725 
L 341.819325 39.995604 
L 348.940204 39.995604 
L 348.940204 47.116484 
" clip-path="url(#p82132e2a74)" style="fill: none; stroke: #00b6a4; stroke-linecap: square"/>
   </g>
   <g id="line2d_20">
    <path d="M 334.698445 47.116484 
L 334.698445 39.995604 
L 334.698445 32.874725 
L 327.577566 32.874725 
L 327.577566 39.995604 
L 320.456687 39.995604 
" clip-path="url(#p82132e2a74)" style="fill: none; stroke: #0092b6; stroke-linecap: square"/>
   </g>
  </g>
  <g id="axes_6">
   <g id="patch_7">
    <path d="M 391.650523 47.828571 
L 428.679094 47.828571 
L 428.679094 10.8 
L 391.650523 10.8 
z
" style="fill: #ffffff"/>
   </g>
   <g id="matplotlib.axis_11"/>
   <g id="matplotlib.axis_12"/>
   <g id="line2d_21">
    <path d="M 399.48349 11.512088 
L 399.48349 18.632967 
L 399.48349 25.753846 
L 392.362611 25.753846 
" clip-path="url(#p44ccb28e4a)" style="fill: none; stroke: #00ff80; stroke-linecap: square"/>
   </g>
   <g id="line2d_22">
    <path d="M 413.725248 11.512088 
L 413.725248 18.632967 
L 406.604369 18.632967 
L 406.604369 25.753846 
L 413.725248 25.753846 
L 413.725248 32.874725 
L 406.604369 32.874725 
L 399.48349 32.874725 
L 399.48349 39.995604 
L 392.362611 39.995604 
" clip-path="url(#p44ccb28e4a)" style="fill: none; stroke: #00db92; stroke-linecap: square"/>
   </g>
   <g id="line2d_23">
    <path d="M 427.967006 18.632967 
L 420.846127 18.632967 
L 420.846127 25.753846 
L 420.846127 32.874725 
L 427.967006 32.874725 
" clip-path="url(#p44ccb28e4a)" style="fill: none; stroke: #00b6a4; stroke-linecap: square"/>
   </g>
   <g id="line2d_24">
    <path d="M 420.846127 47.116484 
L 420.846127 39.995604 
L 413.725248 39.995604 
L 406.604369 39.995604 
L 406.604369 47.116484 
" clip-path="url(#p44ccb28e4a)" style="fill: none; stroke: #0092b6; stroke-linecap: square"/>
   </g>
  </g>
  <g id="axes_7">
   <g id="patch_8">
    <path d="M 32.120906 95.657143 
L 69.149477 95.657143 
L 69.149477 58.628571 
L 32.120906 58.628571 
z
" style="fill: #ffffff"/>
   </g>
   <g id="matplotlib.axis_13"/>
   <g id="matplotlib.axis_14"/>
   <g id="line2d_25">
    <path d="M 39.953873 59.340659 
L 39.953873 66.461538 
L 39.953873 73.582418 
L 32.832994 73.582418 
" clip-path="url(#p9aaf2085a7)" style="fill: none; stroke: #00ff80; stroke-linecap: square"/>
   </g>
   <g id="line2d_26">
    <path d="M 54.195631 59.340659 
L 54.195631 66.461538 
L 47.074752 66.461538 
L 47.074752 73.582418 
L 54.195631 73.582418 
L 54.195631 80.703297 
L 54.195631 87.824176 
L 61.31651 87.824176 
L 61.31651 94.945055 
" clip-path="url(#p9aaf2085a7)" style="fill: none; stroke: #00db92; stroke-linecap: square"/>
   </g>
   <g id="line2d_27">
    <path d="M 68.437389 66.461538 
L 61.31651 66.461538 
L 61.31651 73.582418 
L 61.31651 80.703297 
L 68.437389 80.703297 
" clip-path="url(#p9aaf2085a7)" style="fill: none; stroke: #00b6a4; stroke-linecap: square"/>
   </g>
   <g id="line2d_28">
    <path d="M 47.074752 94.945055 
L 47.074752 87.824176 
L 47.074752 80.703297 
L 39.953873 80.703297 
L 39.953873 87.824176 
L 32.832994 87.824176 
" clip-path="url(#p9aaf2085a7)" style="fill: none; stroke: #0092b6; stroke-linecap: square"/>
   </g>
  </g>
  <g id="axes_8">
   <g id="patch_9">
    <path d="M 104.026829 95.657143 
L 141.055401 95.657143 
L 141.055401 58.628571 
L 104.026829 58.628571 
z
" style="fill: #ffffff"/>
   </g>
   <g id="matplotlib.axis_15"/>
   <g id="matplotlib.axis_16"/>
   <g id="line2d_29">
    <path d="M 111.859796 59.340659 
L 111.859796 66.461538 
L 118.980675 66.461538 
L 126.101555 66.461538 
L 126.101555 59.340659 
" clip-path="url(#pf1c20e5b1b)" style="fill: none; stroke: #00ff80; stroke-linecap: square"/>
   </g>
   <g id="line2d_30">
    <path d="M 140.343313 66.461538 
L 133.222434 66.461538 
L 133.222434 73.582418 
L 126.101555 73.582418 
L 118.980675 73.582418 
L 111.859796 73.582418 
L 104.738917 73.582418 
" clip-path="url(#pf1c20e5b1b)" style="fill: none; stroke: #00db92; stroke-linecap: square"/>
   </g>
   <g id="line2d_31">
    <path d="M 140.343313 80.703297 
L 133.222434 80.703297 
L 126.101555 80.703297 
L 118.980675 80.703297 
L 111.859796 80.703297 
L 111.859796 87.824176 
L 104.738917 87.824176 
" clip-path="url(#pf1c20e5b1b)" style="fill: none; stroke: #00b6a4; stroke-linecap: square"/>
   </g>
   <g id="line2d_32">
    <path d="M 133.222434 94.945055 
L 133.222434 87.824176 
L 126.101555 87.824176 
L 118.980675 87.824176 
L 118.980675 94.945055 
" clip-path="url(#pf1c20e5b1b)" style="fill: none; stroke: #0092b6; stroke-linecap: square"/>
   </g>
  </g>
  <g id="axes_9">
   <g id="patch_10">
    <path d="M 175.932753 95.657143 
L 212.961324 95.657143 
L 212.961324 58.628571 
L 175.932753 58.628571 
z
" style="fill: #ffffff"/>
   </g>
   <g id="matplotlib.axis_17"/>
   <g id="matplotlib.axis_18"/>
   <g id="line2d_33">
    <path d="M 183.76572 59.340659 
L 183.76572 66.461538 
L 190.886599 66.461538 
L 198.007478 66.461538 
L 198.007478 59.340659 
" clip-path="url(#pe76336bafa)" style="fill: none; stroke: #00ff80; stroke-linecap: square"/>
   </g>
   <g id="line2d_34">
    <path d="M 212.249236 66.461538 
L 205.128357 66.461538 
L 205.128357 73.582418 
L 198.007478 73.582418 
L 190.886599 73.582418 
L 183.76572 73.582418 
L 176.644841 73.582418 
" clip-path="url(#pe76336bafa)" style="fill: none; stroke: #00db92; stroke-linecap: square"/>
   </g>
   <g id="line2d_35">
    <path d="M 212.249236 80.703297 
L 205.128357 80.703297 
L 205.128357 87.824176 
L 205.128357 94.945055 
" clip-path="url(#pe76336bafa)" style="fill: none; stroke: #00b6a4; stroke-linecap: square"/>
   </g>
   <g id="line2d_36">
    <path d="M 190.886599 94.945055 
L 190.886599 87.824176 
L 198.007478 87.824176 
L 198.007478 80.703297 
L 190.886599 80.703297 
L 183.76572 80.703297 
L 183.76572 87.824176 
L 176.644841 87.824176 
" clip-path="url(#pe76336bafa)" style="fill: none; stroke: #0092b6; stroke-linecap: square"/>
   </g>
  </g>
  <g id="axes_10">
   <g id="patch_11">
    <path d="M 247.838676 95.657143 
L 284.867247 95.657143 
L 284.867247 58.628571 
L 247.838676 58.628571 
z
" style="fill: #ffffff"/>
   </g>
   <g id="matplotlib.axis_19"/>
   <g id="matplotlib.axis_20"/>
   <g id="line2d_37">
    <path d="M 255.671643 59.340659 
L 255.671643 66.461538 
L 262.792522 66.461538 
L 269.913401 66.461538 
L 269.913401 59.340659 
" clip-path="url(#p25b09dc8e4)" style="fill: none; stroke: #00ff80; stroke-linecap: square"/>
   </g>
   <g id="line2d_38">
    <path d="M 284.155159 66.461538 
L 277.03428 66.461538 
L 277.03428 73.582418 
L 269.913401 73.582418 
L 262.792522 73.582418 
L 255.671643 73.582418 
L 248.550764 73.582418 
" clip-path="url(#p25b09dc8e4)" style="fill: none; stroke: #00db92; stroke-linecap: square"/>
   </g>
   <g id="line2d_39">
    <path d="M 284.155159 80.703297 
L 277.03428 80.703297 
L 269.913401 80.703297 
L 269.913401 87.824176 
L 277.03428 87.824176 
L 277.03428 94.945055 
" clip-path="url(#p25b09dc8e4)" style="fill: none; stroke: #00b6a4; stroke-linecap: square"/>
   </g>
   <g id="line2d_40">
    <path d="M 262.792522 94.945055 
L 262.792522 87.824176 
L 262.792522 80.703297 
L 255.671643 80.703297 
L 255.671643 87.824176 
L 248.550764 87.824176 
" clip-path="url(#p25b09dc8e4)" style="fill: none; stroke: #0092b6; stroke-linecap: square"/>
   </g>
  </g>
  <g id="axes_11">
   <g id="patch_12">
    <path d="M 319.744599 95.657143 
L 356.773171 95.657143 
L 356.773171 58.628571 
L 319.744599 58.628571 
z
" style="fill: #ffffff"/>
   </g>
   <g id="matplotlib.axis_21"/>
   <g id="matplotlib.axis_22"/>
   <g id="line2d_41">
    <path d="M 327.577566 59.340659 
L 327.577566 66.461538 
L 334.698445 66.461538 
L 341.819325 66.461538 
L 341.819325 59.340659 
" clip-path="url(#p5f9503718a)" style="fill: none; stroke: #00ff80; stroke-linecap: square"/>
   </g>
   <g id="line2d_42">
    <path d="M 356.061083 66.461538 
L 348.940204 66.461538 
L 348.940204 73.582418 
L 348.940204 80.703297 
L 356.061083 80.703297 
" clip-path="url(#p5f9503718a)" style="fill: none; stroke: #00db92; stroke-linecap: square"/>
   </g>
   <g id="line2d_43">
    <path d="M 348.940204 94.945055 
L 348.940204 87.824176 
L 341.819325 87.824176 
L 334.698445 87.824176 
L 334.698445 94.945055 
" clip-path="url(#p5f9503718a)" style="fill: none; stroke: #00b6a4; stroke-linecap: square"/>
   </g>
   <g id="line2d_44">
    <path d="M 320.456687 87.824176 
L 327.577566 87.824176 
L 327.577566 80.703297 
L 334.698445 80.703297 
L 341.819325 80.703297 
L 341.819325 73.582418 
L 334.698445 73.582418 
L 327.577566 73.582418 
L 320.456687 73.582418 
" clip-path="url(#p5f9503718a)" style="fill: none; stroke: #0092b6; stroke-linecap: square"/>
   </g>
  </g>
  <g id="axes_12">
   <g id="patch_13">
    <path d="M 391.650523 95.657143 
L 428.679094 95.657143 
L 428.679094 58.628571 
L 391.650523 58.628571 
z
" style="fill: #ffffff"/>
   </g>
   <g id="matplotlib.axis_23"/>
   <g id="matplotlib.axis_24"/>
   <g id="line2d_45">
    <path d="M 399.48349 59.340659 
L 399.48349 66.461538 
L 406.604369 66.461538 
L 413.725248 66.461538 
L 413.725248 59.340659 
" clip-path="url(#p0ad26e26f7)" style="fill: none; stroke: #00ff80; stroke-linecap: square"/>
   </g>
   <g id="line2d_46">
    <path d="M 427.967006 66.461538 
L 420.846127 66.461538 
L 420.846127 73.582418 
L 420.846127 80.703297 
L 427.967006 80.703297 
" clip-path="url(#p0ad26e26f7)" style="fill: none; stroke: #00db92; stroke-linecap: square"/>
   </g>
   <g id="line2d_47">
    <path d="M 420.846127 94.945055 
L 420.846127 87.824176 
L 413.725248 87.824176 
L 413.725248 80.703297 
L 413.725248 73.582418 
L 406.604369 73.582418 
L 399.48349 73.582418 
L 392.362611 73.582418 
" clip-path="url(#p0ad26e26f7)" style="fill: none; stroke: #00b6a4; stroke-linecap: square"/>
   </g>
   <g id="line2d_48">
    <path d="M 406.604369 94.945055 
L 406.604369 87.824176 
L 406.604369 80.703297 
L 399.48349 80.703297 
L 399.48349 87.824176 
L 392.362611 87.824176 
" clip-path="url(#p0ad26e26f7)" style="fill: none; stroke: #0092b6; stroke-linecap: square"/>
   </g>
  </g>
  <g id="axes_13">
   <g id="patch_14">
    <path d="M 32.120906 143.485714 
L 69.149477 143.485714 
L 69.149477 106.457143 
L 32.120906 106.457143 
z
" style="fill: #ffffff"/>
   </g>
   <g id="matplotlib.axis_25"/>
   <g id="matplotlib.axis_26"/>
   <g id="line2d_49">
    <path d="M 39.953873 107.169231 
L 39.953873 114.29011 
L 47.074752 114.29011 
L 54.195631 114.29011 
L 54.195631 107.169231 
" clip-path="url(#pfc4fb1e2fe)" style="fill: none; stroke: #00ff80; stroke-linecap: square"/>
   </g>
   <g id="line2d_50">
    <path d="M 68.437389 114.29011 
L 61.31651 114.29011 
L 61.31651 121.410989 
L 54.195631 121.410989 
L 54.195631 128.531868 
L 54.195631 135.652747 
L 47.074752 135.652747 
L 47.074752 142.773626 
" clip-path="url(#pfc4fb1e2fe)" style="fill: none; stroke: #00db92; stroke-linecap: square"/>
   </g>
   <g id="line2d_51">
    <path d="M 68.437389 128.531868 
L 61.31651 128.531868 
L 61.31651 135.652747 
L 61.31651 142.773626 
" clip-path="url(#pfc4fb1e2fe)" style="fill: none; stroke: #00b6a4; stroke-linecap: square"/>
   </g>
   <g id="line2d_52">
    <path d="M 32.832994 135.652747 
L 39.953873 135.652747 
L 39.953873 128.531868 
L 47.074752 128.531868 
L 47.074752 121.410989 
L 39.953873 121.410989 
L 32.832994 121.410989 
" clip-path="url(#pfc4fb1e2fe)" style="fill: none; stroke: #0092b6; stroke-linecap: square"/>
   </g>
  </g>
  <g id="axes_14">
   <g id="patch_15">
    <path d="M 104.026829 143.485714 
L 141.055401 143.485714 
L 141.055401 106.457143 
L 104.026829 106.457143 
z
" style="fill: #ffffff"/>
   </g>
   <g id="matplotlib.axis_27"/>
   <g id="matplotlib.axis_28"/>
   <g id="line2d_53">
    <path d="M 111.859796 107.169231 
L 111.859796 114.29011 
L 118.980675 114.29011 
L 126.101555 114.29011 
L 126.101555 107.169231 
" clip-path="url(#pd743448882)" style="fill: none; stroke: #00ff80; stroke-linecap: square"/>
   </g>
   <g id="line2d_54">
    <path d="M 140.343313 114.29011 
L 133.222434 114.29011 
L 133.222434 121.410989 
L 126.101555 121.410989 
L 126.101555 128.531868 
L 133.222434 128.531868 
L 140.343313 128.531868 
" clip-path="url(#pd743448882)" style="fill: none; stroke: #00db92; stroke-linecap: square"/>
   </g>
   <g id="line2d_55">
    <path d="M 133.222434 142.773626 
L 133.222434 135.652747 
L 126.101555 135.652747 
L 118.980675 135.652747 
L 118.980675 142.773626 
" clip-path="url(#pd743448882)" style="fill: none; stroke: #00b6a4; stroke-linecap: square"/>
   </g>
   <g id="line2d_56">
    <path d="M 104.738917 135.652747 
L 111.859796 135.652747 
L 111.859796 128.531868 
L 118.980675 128.531868 
L 118.980675 121.410989 
L 111.859796 121.410989 
L 104.738917 121.410989 
" clip-path="url(#pd743448882)" style="fill: none; stroke: #0092b6; stroke-linecap: square"/>
   </g>
  </g>
  <g id="axes_15">
   <g id="patch_16">
    <path d="M 175.932753 143.485714 
L 212.961324 143.485714 
L 212.961324 106.457143 
L 175.932753 106.457143 
z
" style="fill: #ffffff"/>
   </g>
   <g id="matplotlib.axis_29"/>
   <g id="matplotlib.axis_30"/>
   <g id="line2d_57">
    <path d="M 183.76572 107.169231 
L 183.76572 114.29011 
L 190.886599 114.29011 
L 198.007478 114.29011 
L 198.007478 107.169231 
" clip-path="url(#p733d8e9427)" style="fill: none; stroke: #00ff80; stroke-linecap: square"/>
   </g>
   <g id="line2d_58">
    <path d="M 212.249236 114.29011 
L 205.128357 114.29011 
L 205.128357 121.410989 
L 198.007478 121.410989 
L 190.886599 121.410989 
L 190.886599 128.531868 
L 190.886599 135.652747 
L 190.886599 142.773626 
" clip-path="url(#p733d8e9427)" style="fill: none; stroke: #00db92; stroke-linecap: square"/>
   </g>
   <g id="line2d_59">
    <path d="M 212.249236 128.531868 
L 205.128357 128.531868 
L 198.007478 128.531868 
L 198.007478 135.652747 
L 205.128357 135.652747 
L 205.128357 142.773626 
" clip-path="url(#p733d8e9427)" style="fill: none; stroke: #00b6a4; stroke-linecap: square"/>
   </g>
   <g id="line2d_60">
    <path d="M 176.644841 135.652747 
L 183.76572 135.652747 
L 183.76572 128.531868 
L 183.76572 121.410989 
L 176.644841 121.410989 
" clip-path="url(#p733d8e9427)" style="fill: none; stroke: #0092b6; stroke-linecap: square"/>
   </g>
  </g>
  <g id="axes_16">
   <g id="patch_17">
    <path d="M 247.838676 143.485714 
L 284.867247 143.485714 
L 284.867247 106.457143 
L 247.838676 106.457143 
z
" style="fill: #ffffff"/>
   </g>
   <g id="matplotlib.axis_31"/>
   <g id="matplotlib.axis_32"/>
   <g id="line2d_61">
    <path d="M 255.671643 107.169231 
L 255.671643 114.29011 
L 262.792522 114.29011 
L 269.913401 114.29011 
L 269.913401 107.169231 
" clip-path="url(#p3a5703d0f3)" style="fill: none; stroke: #00ff80; stroke-linecap: square"/>
   </g>
   <g id="line2d_62">
    <path d="M 284.155159 114.29011 
L 277.03428 114.29011 
L 277.03428 121.410989 
L 269.913401 121.410989 
L 262.792522 121.410989 
L 262.792522 128.531868 
L 269.913401 128.531868 
L 277.03428 128.531868 
L 284.155159 128.531868 
" clip-path="url(#p3a5703d0f3)" style="fill: none; stroke: #00db92; stroke-linecap: square"/>
   </g>
   <g id="line2d_63">
    <path d="M 277.03428 142.773626 
L 277.03428 135.652747 
L 269.913401 135.652747 
L 262.792522 135.652747 
L 262.792522 142.773626 
" clip-path="url(#p3a5703d0f3)" style="fill: none; stroke: #00b6a4; stroke-linecap: square"/>
   </g>
   <g id="line2d_64">
    <path d="M 248.550764 135.652747 
L 255.671643 135.652747 
L 255.671643 128.531868 
L 255.671643 121.410989 
L 248.550764 121.410989 
" clip-path="url(#p3a5703d0f3)" style="fill: none; stroke: #0092b6; stroke-linecap: square"/>
   </g>
  </g>
  <g id="axes_17">
   <g id="patch_18">
    <path d="M 319.744599 143.485714 
L 356.773171 143.485714 
L 356.773171 106.457143 
L 319.744599 106.457143 
z
" style="fill: #ffffff"/>
   </g>
   <g id="matplotlib.axis_33"/>
   <g id="matplotlib.axis_34"/>
   <g id="line2d_65">
    <path d="M 327.577566 107.169231 
L 327.577566 114.29011 
L 334.698445 114.29011 
L 341.819325 114.29011 
L 341.819325 107.169231 
" clip-path="url(#p787a5aa50c)" style="fill: none; stroke: #00ff80; stroke-linecap: square"/>
   </g>
   <g id="line2d_66">
    <path d="M 356.061083 114.29011 
L 348.940204 114.29011 
L 348.940204 121.410989 
L 341.819325 121.410989 
L 334.698445 121.410989 
L 334.698445 128.531868 
L 341.819325 128.531868 
L 341.819325 135.652747 
L 334.698445 135.652747 
L 334.698445 142.773626 
" clip-path="url(#p787a5aa50c)" style="fill: none; stroke: #00db92; stroke-linecap: square"/>
   </g>
   <g id="line2d_67">
    <path d="M 356.061083 128.531868 
L 348.940204 128.531868 
L 348.940204 135.652747 
L 348.940204 142.773626 
" clip-path="url(#p787a5aa50c)" style="fill: none; stroke: #00b6a4; stroke-linecap: square"/>
   </g>
   <g id="line2d_68">
    <path d="M 320.456687 135.652747 
L 327.577566 135.652747 
L 327.577566 128.531868 
L 327.577566 121.410989 
L 320.456687 121.410989 
" clip-path="url(#p787a5aa50c)" style="fill: none; stroke: #0092b6; stroke-linecap: square"/>
   </g>
  </g>
  <g id="axes_18">
   <g id="patch_19">
    <path d="M 391.650523 143.485714 
L 428.679094 143.485714 
L 428.679094 106.457143 
L 391.650523 106.457143 
z
" style="fill: #ffffff"/>
   </g>
   <g id="matplotlib.axis_35"/>
   <g id="matplotlib.axis_36"/>
   <g id="line2d_69">
    <path d="M 399.48349 107.169231 
L 399.48349 114.29011 
L 406.604369 114.29011 
L 413.725248 114.29011 
L 413.725248 107.169231 
" clip-path="url(#pd3c7784766)" style="fill: none; stroke: #00ff80; stroke-linecap: square"/>
   </g>
   <g id="line2d_70">
    <path d="M 427.967006 114.29011 
L 420.846127 114.29011 
L 420.846127 121.410989 
L 413.725248 121.410989 
L 406.604369 121.410989 
L 406.604369 128.531868 
L 399.48349 128.531868 
L 399.48349 121.410989 
L 392.362611 121.410989 
" clip-path="url(#pd3c7784766)" style="fill: none; stroke: #00db92; stroke-linecap: square"/>
   </g>
   <g id="line2d_71">
    <path d="M 427.967006 128.531868 
L 420.846127 128.531868 
L 413.725248 128.531868 
L 413.725248 135.652747 
L 420.846127 135.652747 
L 420.846127 142.773626 
" clip-path="url(#pd3c7784766)" style="fill: none; stroke: #00b6a4; stroke-linecap: square"/>
   </g>
   <g id="line2d_72">
    <path d="M 406.604369 142.773626 
L 406.604369 135.652747 
L 399.48349 135.652747 
L 392.362611 135.652747 
" clip-path="url(#pd3c7784766)" style="fill: none; stroke: #0092b6; stroke-linecap: square"/>
   </g>
  </g>
  <g id="axes_19">
   <g id="patch_20">
    <path d="M 32.120906 191.314286 
L 69.149477 191.314286 
L 69.149477 154.285714 
L 32.120906 154.285714 
z
" style="fill: #ffffff"/>
   </g>
   <g id="matplotlib.axis_37"/>
   <g id="matplotlib.axis_38"/>
   <g id="line2d_73">
    <path d="M 39.953873 154.997802 
L 39.953873 162.118681 
L 47.074752 162.118681 
L 54.195631 162.118681 
L 54.195631 154.997802 
" clip-path="url(#pae7e6d6575)" style="fill: none; stroke: #00ff80; stroke-linecap: square"/>
   </g>
   <g id="line2d_74">
    <path d="M 68.437389 162.118681 
L 61.31651 162.118681 
L 61.31651 169.23956 
L 61.31651 176.36044 
L 68.437389 176.36044 
" clip-path="url(#pae7e6d6575)" style="fill: none; stroke: #00db92; stroke-linecap: square"/>
   </g>
   <g id="line2d_75">
    <path d="M 61.31651 190.602198 
L 61.31651 183.481319 
L 54.195631 183.481319 
L 54.195631 176.36044 
L 54.195631 169.23956 
L 47.074752 169.23956 
L 47.074752 176.36044 
L 47.074752 183.481319 
L 47.074752 190.602198 
" clip-path="url(#pae7e6d6575)" style="fill: none; stroke: #00b6a4; stroke-linecap: square"/>
   </g>
   <g id="line2d_76">
    <path d="M 32.832994 183.481319 
L 39.953873 183.481319 
L 39.953873 176.36044 
L 39.953873 169.23956 
L 32.832994 169.23956 
" clip-path="url(#pae7e6d6575)" style="fill: none; stroke: #0092b6; stroke-linecap: square"/>
   </g>
  </g>
  <g id="axes_20">
   <g id="patch_21">
    <path d="M 104.026829 191.314286 
L 141.055401 191.314286 
L 141.055401 154.285714 
L 104.026829 154.285714 
z
" style="fill: #ffffff"/>
   </g>
   <g id="matplotlib.axis_39"/>
   <g id="matplotlib.axis_40"/>
   <g id="line2d_77">
    <path d="M 111.859796 154.997802 
L 111.859796 162.118681 
L 118.980675 162.118681 
L 126.101555 162.118681 
L 126.101555 154.997802 
" clip-path="url(#p286b643ae9)" style="fill: none; stroke: #00ff80; stroke-linecap: square"/>
   </g>
   <g id="line2d_78">
    <path d="M 140.343313 162.118681 
L 133.222434 162.118681 
L 133.222434 169.23956 
L 133.222434 176.36044 
L 140.343313 176.36044 
" clip-path="url(#p286b643ae9)" style="fill: none; stroke: #00db92; stroke-linecap: square"/>
   </g>
   <g id="line2d_79">
    <path d="M 133.222434 190.602198 
L 133.222434 183.481319 
L 126.101555 183.481319 
L 118.980675 183.481319 
L 118.980675 190.602198 
" clip-path="url(#p286b643ae9)" style="fill: none; stroke: #00b6a4; stroke-linecap: square"/>
   </g>
   <g id="line2d_80">
    <path d="M 104.738917 183.481319 
L 111.859796 183.481319 
L 111.859796 176.36044 
L 111.859796 169.23956 
L 104.738917 169.23956 
" clip-path="url(#p286b643ae9)" style="fill: none; stroke: #0092b6; stroke-linecap: square"/>
   </g>
   <g id="line2d_81">
    <path d="M 126.101555 169.23956 
L 118.980675 169.23956 
L 118.980675 176.36044 
L 126.101555 176.36044 
L 126.101555 169.23956 
" clip-path="url(#p286b643ae9)" style="fill: none; stroke: #000000; stroke-linecap: square"/>
   </g>
  </g>
  <g id="axes_21">
   <g id="patch_22">
    <path d="M 175.932753 191.314286 
L 212.961324 191.314286 
L 212.961324 154.285714 
L 175.932753 154.285714 
z
" style="fill: #ffffff"/>
   </g>
   <g id="matplotlib.axis_41"/>
   <g id="matplotlib.axis_42"/>
   <g id="line2d_82">
    <path d="M 183.76572 154.997802 
L 183.76572 162.118681 
L 190.886599 162.118681 
L 198.007478 162.118681 
L 198.007478 154.997802 
" clip-path="url(#pe0b7674f0b)" style="fill: none; stroke: #00ff80; stroke-linecap: square"/>
   </g>
   <g id="line2d_83">
    <path d="M 212.249236 162.118681 
L 205.128357 162.118681 
L 205.128357 169.23956 
L 205.128357 176.36044 
L 212.249236 176.36044 
" clip-path="url(#pe0b7674f0b)" style="fill: none; stroke: #00db92; stroke-linecap: square"/>
   </g>
   <g id="line2d_84">
    <path d="M 205.128357 190.602198 
L 205.128357 183.481319 
L 198.007478 183.481319 
L 198.007478 176.36044 
L 198.007478 169.23956 
L 190.886599 169.23956 
L 190.886599 176.36044 
L 183.76572 176.36044 
L 183.76572 169.23956 
L 176.644841 169.23956 
" clip-path="url(#pe0b7674f0b)" style="fill: none; stroke: #00b6a4; stroke-linecap: square"/>
   </g>
   <g id="line2d_85">
    <path d="M 190.886599 190.602198 
L 190.886599 183.481319 
L 183.76572 183.481319 
L 176.644841 183.481319 
" clip-path="url(#pe0b7674f0b)" style="fill: none; stroke: #0092b6; stroke-linecap: square"/>
   </g>
  </g>
  <g id="axes_22">
   <g id="patch_23">
    <path d="M 247.838676 191.314286 
L 284.867247 191.314286 
L 284.867247 154.285714 
L 247.838676 154.285714 
z
" style="fill: #ffffff"/>
   </g>
   <g id="matplotlib.axis_43"/>
   <g id="matplotlib.axis_44"/>
   <g id="line2d_86">
    <path d="M 255.671643 154.997802 
L 255.671643 162.118681 
L 262.792522 162.118681 
L 262.792522 169.23956 
L 255.671643 169.23956 
L 248.550764 169.23956 
" clip-path="url(#pb50405a8e6)" style="fill: none; stroke: #00ff80; stroke-linecap: square"/>
   </g>
   <g id="line2d_87">
    <path d="M 269.913401 154.997802 
L 269.913401 162.118681 
L 269.913401 169.23956 
L 269.913401 176.36044 
L 262.792522 176.36044 
L 255.671643 176.36044 
L 255.671643 183.481319 
L 248.550764 183.481319 
" clip-path="url(#pb50405a8e6)" style="fill: none; stroke: #00db92; stroke-linecap: square"/>
   </g>
   <g id="line2d_88">
    <path d="M 284.155159 162.118681 
L 277.03428 162.118681 
L 277.03428 169.23956 
L 277.03428 176.36044 
L 284.155159 176.36044 
" clip-path="url(#pb50405a8e6)" style="fill: none; stroke: #00b6a4; stroke-linecap: square"/>
   </g>
   <g id="line2d_89">
    <path d="M 277.03428 190.602198 
L 277.03428 183.481319 
L 269.913401 183.481319 
L 262.792522 183.481319 
L 262.792522 190.602198 
" clip-path="url(#pb50405a8e6)" style="fill: none; stroke: #0092b6; stroke-linecap: square"/>
   </g>
  </g>
  <g id="axes_23">
   <g id="patch_24">
    <path d="M 319.744599 191.314286 
L 356.773171 191.314286 
L 356.773171 154.285714 
L 319.744599 154.285714 
z
" style="fill: #ffffff"/>
   </g>
   <g id="matplotlib.axis_45"/>
   <g id="matplotlib.axis_46"/>
   <g id="line2d_90">
    <path d="M 327.577566 154.997802 
L 327.577566 162.118681 
L 334.698445 162.118681 
L 334.698445 169.23956 
L 327.577566 169.23956 
L 320.456687 169.23956 
" clip-path="url(#p66c686efd4)" style="fill: none; stroke: #00ff80; stroke-linecap: square"/>
   </g>
   <g id="line2d_91">
    <path d="M 341.819325 154.997802 
L 341.819325 162.118681 
L 341.819325 169.23956 
L 341.819325 176.36044 
L 341.819325 183.481319 
L 348.940204 183.481319 
L 348.940204 190.602198 
" clip-path="url(#p66c686efd4)" style="fill: none; stroke: #00db92; stroke-linecap: square"/>
   </g>
   <g id="line2d_92">
    <path d="M 356.061083 162.118681 
L 348.940204 162.118681 
L 348.940204 169.23956 
L 348.940204 176.36044 
L 356.061083 176.36044 
" clip-path="url(#p66c686efd4)" style="fill: none; stroke: #00b6a4; stroke-linecap: square"/>
   </g>
   <g id="line2d_93">
    <path d="M 334.698445 190.602198 
L 334.698445 183.481319 
L 334.698445 176.36044 
L 327.577566 176.36044 
L 327.577566 183.481319 
L 320.456687 183.481319 
" clip-path="url(#p66c686efd4)" style="fill: none; stroke: #0092b6; stroke-linecap: square"/>
   </g>
  </g>
  <g id="axes_24">
   <g id="patch_25">
    <path d="M 391.650523 191.314286 
L 428.679094 191.314286 
L 428.679094 154.285714 
L 391.650523 154.285714 
z
" style="fill: #ffffff"/>
   </g>
   <g id="matplotlib.axis_47"/>
   <g id="matplotlib.axis_48"/>
   <g id="line2d_94">
    <path d="M 399.48349 154.997802 
L 399.48349 162.118681 
L 406.604369 162.118681 
L 406.604369 169.23956 
L 399.48349 169.23956 
L 392.362611 169.23956 
" clip-path="url(#p9d0d1f2a28)" style="fill: none; stroke: #00ff80; stroke-linecap: square"/>
   </g>
   <g id="line2d_95">
    <path d="M 413.725248 154.997802 
L 413.725248 162.118681 
L 413.725248 169.23956 
L 420.846127 169.23956 
L 420.846127 162.118681 
L 427.967006 162.118681 
" clip-path="url(#p9d0d1f2a28)" style="fill: none; stroke: #00db92; stroke-linecap: square"/>
   </g>
   <g id="line2d_96">
    <path d="M 427.967006 176.36044 
L 420.846127 176.36044 
L 413.725248 176.36044 
L 406.604369 176.36044 
L 399.48349 176.36044 
L 399.48349 183.481319 
L 392.362611 183.481319 
" clip-path="url(#p9d0d1f2a28)" style="fill: none; stroke: #00b6a4; stroke-linecap: square"/>
   </g>
   <g id="line2d_97">
    <path d="M 420.846127 190.602198 
L 420.846127 183.481319 
L 413.725248 183.481319 
L 406.604369 183.481319 
L 406.604369 190.602198 
" clip-path="url(#p9d0d1f2a28)" style="fill: none; stroke: #0092b6; stroke-linecap: square"/>
   </g>
  </g>
  <g id="axes_25">
   <g id="patch_26">
    <path d="M 32.120906 239.142857 
L 69.149477 239.142857 
L 69.149477 202.114286 
L 32.120906 202.114286 
z
" style="fill: #ffffff"/>
   </g>
   <g id="matplotlib.axis_49"/>
   <g id="matplotlib.axis_50"/>
   <g id="line2d_98">
    <path d="M 39.953873 202.826374 
L 39.953873 209.947253 
L 47.074752 209.947253 
L 47.074752 217.068132 
L 39.953873 217.068132 
L 32.832994 217.068132 
" clip-path="url(#pbeeffa5fcc)" style="fill: none; stroke: #00ff80; stroke-linecap: square"/>
   </g>
   <g id="line2d_99">
    <path d="M 54.195631 202.826374 
L 54.195631 209.947253 
L 54.195631 217.068132 
L 61.31651 217.068132 
L 61.31651 209.947253 
L 68.437389 209.947253 
" clip-path="url(#pbeeffa5fcc)" style="fill: none; stroke: #00db92; stroke-linecap: square"/>
   </g>
   <g id="line2d_100">
    <path d="M 68.437389 224.189011 
L 61.31651 224.189011 
L 61.31651 231.30989 
L 61.31651 238.430769 
" clip-path="url(#pbeeffa5fcc)" style="fill: none; stroke: #00b6a4; stroke-linecap: square"/>
   </g>
   <g id="line2d_101">
    <path d="M 47.074752 238.430769 
L 47.074752 231.30989 
L 54.195631 231.30989 
L 54.195631 224.189011 
L 47.074752 224.189011 
L 39.953873 224.189011 
L 39.953873 231.30989 
L 32.832994 231.30989 
" clip-path="url(#pbeeffa5fcc)" style="fill: none; stroke: #0092b6; stroke-linecap: square"/>
   </g>
  </g>
  <g id="axes_26">
   <g id="patch_27">
    <path d="M 104.026829 239.142857 
L 141.055401 239.142857 
L 141.055401 202.114286 
L 104.026829 202.114286 
z
" style="fill: #ffffff"/>
   </g>
   <g id="matplotlib.axis_51"/>
   <g id="matplotlib.axis_52"/>
   <g id="line2d_102">
    <path d="M 111.859796 202.826374 
L 111.859796 209.947253 
L 118.980675 209.947253 
L 118.980675 217.068132 
L 111.859796 217.068132 
L 104.738917 217.068132 
" clip-path="url(#p26fd63b652)" style="fill: none; stroke: #00ff80; stroke-linecap: square"/>
   </g>
   <g id="line2d_103">
    <path d="M 126.101555 202.826374 
L 126.101555 209.947253 
L 126.101555 217.068132 
L 133.222434 217.068132 
L 133.222434 209.947253 
L 140.343313 209.947253 
" clip-path="url(#p26fd63b652)" style="fill: none; stroke: #00db92; stroke-linecap: square"/>
   </g>
   <g id="line2d_104">
    <path d="M 140.343313 224.189011 
L 133.222434 224.189011 
L 126.101555 224.189011 
L 126.101555 231.30989 
L 133.222434 231.30989 
L 133.222434 238.430769 
" clip-path="url(#p26fd63b652)" style="fill: none; stroke: #00b6a4; stroke-linecap: square"/>
   </g>
   <g id="line2d_105">
    <path d="M 118.980675 238.430769 
L 118.980675 231.30989 
L 118.980675 224.189011 
L 111.859796 224.189011 
L 111.859796 231.30989 
L 104.738917 231.30989 
" clip-path="url(#p26fd63b652)" style="fill: none; stroke: #0092b6; stroke-linecap: square"/>
   </g>
  </g>
  <g id="axes_27">
   <g id="patch_28">
    <path d="M 175.932753 239.142857 
L 212.961324 239.142857 
L 212.961324 202.114286 
L 175.932753 202.114286 
z
" style="fill: #ffffff"/>
   </g>
   <g id="matplotlib.axis_53"/>
   <g id="matplotlib.axis_54"/>
   <g id="line2d_106">
    <path d="M 183.76572 202.826374 
L 183.76572 209.947253 
L 190.886599 209.947253 
L 190.886599 217.068132 
L 190.886599 224.189011 
L 190.886599 231.30989 
L 190.886599 238.430769 
" clip-path="url(#p0853dde3ef)" style="fill: none; stroke: #00ff80; stroke-linecap: square"/>
   </g>
   <g id="line2d_107">
    <path d="M 198.007478 202.826374 
L 198.007478 209.947253 
L 198.007478 217.068132 
L 198.007478 224.189011 
L 198.007478 231.30989 
L 205.128357 231.30989 
L 205.128357 238.430769 
" clip-path="url(#p0853dde3ef)" style="fill: none; stroke: #00db92; stroke-linecap: square"/>
   </g>
   <g id="line2d_108">
    <path d="M 212.249236 209.947253 
L 205.128357 209.947253 
L 205.128357 217.068132 
L 205.128357 224.189011 
L 212.249236 224.189011 
" clip-path="url(#p0853dde3ef)" style="fill: none; stroke: #00b6a4; stroke-linecap: square"/>
   </g>
   <g id="line2d_109">
    <path d="M 176.644841 231.30989 
L 183.76572 231.30989 
L 183.76572 224.189011 
L 183.76572 217.068132 
L 176.644841 217.068132 
" clip-path="url(#p0853dde3ef)" style="fill: none; stroke: #0092b6; stroke-linecap: square"/>
   </g>
  </g>
  <g id="axes_28">
   <g id="patch_29">
    <path d="M 247.838676 239.142857 
L 284.867247 239.142857 
L 284.867247 202.114286 
L 247.838676 202.114286 
z
" style="fill: #ffffff"/>
   </g>
   <g id="matplotlib.axis_55"/>
   <g id="matplotlib.axis_56"/>
   <g id="line2d_110">
    <path d="M 255.671643 202.826374 
L 255.671643 209.947253 
L 262.792522 209.947253 
L 262.792522 217.068132 
L 262.792522 224.189011 
L 269.913401 224.189011 
L 269.913401 217.068132 
L 269.913401 209.947253 
L 269.913401 202.826374 
" clip-path="url(#p1337920674)" style="fill: none; stroke: #00ff80; stroke-linecap: square"/>
   </g>
   <g id="line2d_111">
    <path d="M 284.155159 209.947253 
L 277.03428 209.947253 
L 277.03428 217.068132 
L 277.03428 224.189011 
L 284.155159 224.189011 
" clip-path="url(#p1337920674)" style="fill: none; stroke: #00db92; stroke-linecap: square"/>
   </g>
   <g id="line2d_112">
    <path d="M 277.03428 238.430769 
L 277.03428 231.30989 
L 269.913401 231.30989 
L 262.792522 231.30989 
L 262.792522 238.430769 
" clip-path="url(#p1337920674)" style="fill: none; stroke: #00b6a4; stroke-linecap: square"/>
   </g>
   <g id="line2d_113">
    <path d="M 248.550764 231.30989 
L 255.671643 231.30989 
L 255.671643 224.189011 
L 255.671643 217.068132 
L 248.550764 217.068132 
" clip-path="url(#p1337920674)" style="fill: none; stroke: #0092b6; stroke-linecap: square"/>
   </g>
  </g>
  <g id="axes_29">
   <g id="patch_30">
    <path d="M 319.744599 239.142857 
L 356.773171 239.142857 
L 356.773171 202.114286 
L 319.744599 202.114286 
z
" style="fill: #ffffff"/>
   </g>
   <g id="matplotlib.axis_57"/>
   <g id="matplotlib.axis_58"/>
   <g id="line2d_114">
    <path d="M 327.577566 202.826374 
L 327.577566 209.947253 
L 334.698445 209.947253 
L 334.698445 217.068132 
L 334.698445 224.189011 
L 327.577566 224.189011 
L 327.577566 217.068132 
L 320.456687 217.068132 
" clip-path="url(#p10582db41b)" style="fill: none; stroke: #00ff80; stroke-linecap: square"/>
   </g>
   <g id="line2d_115">
    <path d="M 341.819325 202.826374 
L 341.819325 209.947253 
L 341.819325 217.068132 
L 341.819325 224.189011 
L 341.819325 231.30989 
L 348.940204 231.30989 
L 348.940204 238.430769 
" clip-path="url(#p10582db41b)" style="fill: none; stroke: #00db92; stroke-linecap: square"/>
   </g>
   <g id="line2d_116">
    <path d="M 356.061083 209.947253 
L 348.940204 209.947253 
L 348.940204 217.068132 
L 348.940204 224.189011 
L 356.061083 224.189011 
" clip-path="url(#p10582db41b)" style="fill: none; stroke: #00b6a4; stroke-linecap: square"/>
   </g>
   <g id="line2d_117">
    <path d="M 334.698445 238.430769 
L 334.698445 231.30989 
L 327.577566 231.30989 
L 320.456687 231.30989 
" clip-path="url(#p10582db41b)" style="fill: none; stroke: #0092b6; stroke-linecap: square"/>
   </g>
  </g>
  <g id="axes_30">
   <g id="patch_31">
    <path d="M 391.650523 239.142857 
L 428.679094 239.142857 
L 428.679094 202.114286 
L 391.650523 202.114286 
z
" style="fill: #ffffff"/>
   </g>
   <g id="matplotlib.axis_59"/>
   <g id="matplotlib.axis_60"/>
   <g id="line2d_118">
    <path d="M 399.48349 202.826374 
L 399.48349 209.947253 
L 406.604369 209.947253 
L 406.604369 217.068132 
L 406.604369 224.189011 
L 406.604369 231.30989 
L 406.604369 238.430769 
" clip-path="url(#p4d80fb33d9)" style="fill: none; stroke: #00ff80; stroke-linecap: square"/>
   </g>
   <g id="line2d_119">
    <path d="M 413.725248 202.826374 
L 413.725248 209.947253 
L 413.725248 217.068132 
L 420.846127 217.068132 
L 420.846127 209.947253 
L 427.967006 209.947253 
" clip-path="url(#p4d80fb33d9)" style="fill: none; stroke: #00db92; stroke-linecap: square"/>
   </g>
   <g id="line2d_120">
    <path d="M 427.967006 224.189011 
L 420.846127 224.189011 
L 413.725248 224.189011 
L 413.725248 231.30989 
L 420.846127 231.30989 
L 420.846127 238.430769 
" clip-path="url(#p4d80fb33d9)" style="fill: none; stroke: #00b6a4; stroke-linecap: square"/>
   </g>
   <g id="line2d_121">
    <path d="M 392.362611 231.30989 
L 399.48349 231.30989 
L 399.48349 224.189011 
L 399.48349 217.068132 
L 392.362611 217.068132 
" clip-path="url(#p4d80fb33d9)" style="fill: none; stroke: #0092b6; stroke-linecap: square"/>
   </g>
  </g>
  <g id="axes_31">
   <g id="patch_32">
    <path d="M 32.120906 286.971429 
L 69.149477 286.971429 
L 69.149477 249.942857 
L 32.120906 249.942857 
z
" style="fill: #ffffff"/>
   </g>
   <g id="matplotlib.axis_61"/>
   <g id="matplotlib.axis_62"/>
   <g id="line2d_122">
    <path d="M 39.953873 250.654945 
L 39.953873 257.775824 
L 47.074752 257.775824 
L 47.074752 264.896703 
L 47.074752 272.017582 
L 54.195631 272.017582 
L 61.31651 272.017582 
L 68.437389 272.017582 
" clip-path="url(#pa635fd7cac)" style="fill: none; stroke: #00ff80; stroke-linecap: square"/>
   </g>
   <g id="line2d_123">
    <path d="M 54.195631 250.654945 
L 54.195631 257.775824 
L 54.195631 264.896703 
L 61.31651 264.896703 
L 61.31651 257.775824 
L 68.437389 257.775824 
" clip-path="url(#pa635fd7cac)" style="fill: none; stroke: #00db92; stroke-linecap: square"/>
   </g>
   <g id="line2d_124">
    <path d="M 61.31651 286.259341 
L 61.31651 279.138462 
L 54.195631 279.138462 
L 47.074752 279.138462 
L 47.074752 286.259341 
" clip-path="url(#pa635fd7cac)" style="fill: none; stroke: #00b6a4; stroke-linecap: square"/>
   </g>
   <g id="line2d_125">
    <path d="M 32.832994 279.138462 
L 39.953873 279.138462 
L 39.953873 272.017582 
L 39.953873 264.896703 
L 32.832994 264.896703 
" clip-path="url(#pa635fd7cac)" style="fill: none; stroke: #0092b6; stroke-linecap: square"/>
   </g>
  </g>
  <g id="axes_32">
   <g id="patch_33">
    <path d="M 104.026829 286.971429 
L 141.055401 286.971429 
L 141.055401 249.942857 
L 104.026829 249.942857 
z
" style="fill: #ffffff"/>
   </g>
   <g id="matplotlib.axis_63"/>
   <g id="matplotlib.axis_64"/>
   <g id="line2d_126">
    <path d="M 111.859796 250.654945 
L 111.859796 257.775824 
L 118.980675 257.775824 
L 118.980675 264.896703 
L 118.980675 272.017582 
L 126.101555 272.017582 
L 126.101555 279.138462 
L 118.980675 279.138462 
L 118.980675 286.259341 
" clip-path="url(#p0d4b9508ca)" style="fill: none; stroke: #00ff80; stroke-linecap: square"/>
   </g>
   <g id="line2d_127">
    <path d="M 126.101555 250.654945 
L 126.101555 257.775824 
L 126.101555 264.896703 
L 133.222434 264.896703 
L 133.222434 257.775824 
L 140.343313 257.775824 
" clip-path="url(#p0d4b9508ca)" style="fill: none; stroke: #00db92; stroke-linecap: square"/>
   </g>
   <g id="line2d_128">
    <path d="M 140.343313 272.017582 
L 133.222434 272.017582 
L 133.222434 279.138462 
L 133.222434 286.259341 
" clip-path="url(#p0d4b9508ca)" style="fill: none; stroke: #00b6a4; stroke-linecap: square"/>
   </g>
   <g id="line2d_129">
    <path d="M 104.738917 279.138462 
L 111.859796 279.138462 
L 111.859796 272.017582 
L 111.859796 264.896703 
L 104.738917 264.896703 
" clip-path="url(#p0d4b9508ca)" style="fill: none; stroke: #0092b6; stroke-linecap: square"/>
   </g>
  </g>
  <g id="axes_33">
   <g id="patch_34">
    <path d="M 175.932753 286.971429 
L 212.961324 286.971429 
L 212.961324 249.942857 
L 175.932753 249.942857 
z
" style="fill: #ffffff"/>
   </g>
   <g id="matplotlib.axis_65"/>
   <g id="matplotlib.axis_66"/>
   <g id="line2d_130">
    <path d="M 183.76572 250.654945 
L 183.76572 257.775824 
L 190.886599 257.775824 
L 190.886599 264.896703 
L 190.886599 272.017582 
L 183.76572 272.017582 
L 183.76572 264.896703 
L 176.644841 264.896703 
" clip-path="url(#p673d36767a)" style="fill: none; stroke: #00ff80; stroke-linecap: square"/>
   </g>
   <g id="line2d_131">
    <path d="M 198.007478 250.654945 
L 198.007478 257.775824 
L 198.007478 264.896703 
L 205.128357 264.896703 
L 205.128357 257.775824 
L 212.249236 257.775824 
" clip-path="url(#p673d36767a)" style="fill: none; stroke: #00db92; stroke-linecap: square"/>
   </g>
   <g id="line2d_132">
    <path d="M 212.249236 272.017582 
L 205.128357 272.017582 
L 198.007478 272.017582 
L 198.007478 279.138462 
L 205.128357 279.138462 
L 205.128357 286.259341 
" clip-path="url(#p673d36767a)" style="fill: none; stroke: #00b6a4; stroke-linecap: square"/>
   </g>
   <g id="line2d_133">
    <path d="M 190.886599 286.259341 
L 190.886599 279.138462 
L 183.76572 279.138462 
L 176.644841 279.138462 
" clip-path="url(#p673d36767a)" style="fill: none; stroke: #0092b6; stroke-linecap: square"/>
   </g>
  </g>
  <g id="axes_34">
   <g id="patch_35">
    <path d="M 247.838676 286.971429 
L 284.867247 286.971429 
L 284.867247 249.942857 
L 247.838676 249.942857 
z
" style="fill: #ffffff"/>
   </g>
   <g id="matplotlib.axis_67"/>
   <g id="matplotlib.axis_68"/>
   <g id="line2d_134">
    <path d="M 255.671643 250.654945 
L 255.671643 257.775824 
L 262.792522 257.775824 
L 262.792522 264.896703 
L 269.913401 264.896703 
L 269.913401 257.775824 
L 269.913401 250.654945 
" clip-path="url(#p88235e492a)" style="fill: none; stroke: #00ff80; stroke-linecap: square"/>
   </g>
   <g id="line2d_135">
    <path d="M 284.155159 257.775824 
L 277.03428 257.775824 
L 277.03428 264.896703 
L 277.03428 272.017582 
L 284.155159 272.017582 
" clip-path="url(#p88235e492a)" style="fill: none; stroke: #00db92; stroke-linecap: square"/>
   </g>
   <g id="line2d_136">
    <path d="M 277.03428 286.259341 
L 277.03428 279.138462 
L 269.913401 279.138462 
L 269.913401 272.017582 
L 262.792522 272.017582 
L 262.792522 279.138462 
L 262.792522 286.259341 
" clip-path="url(#p88235e492a)" style="fill: none; stroke: #00b6a4; stroke-linecap: square"/>
   </g>
   <g id="line2d_137">
    <path d="M 248.550764 279.138462 
L 255.671643 279.138462 
L 255.671643 272.017582 
L 255.671643 264.896703 
L 248.550764 264.896703 
" clip-path="url(#p88235e492a)" style="fill: none; stroke: #0092b6; stroke-linecap: square"/>
   </g>
  </g>
  <g id="axes_35">
   <g id="patch_36">
    <path d="M 319.744599 286.971429 
L 356.773171 286.971429 
L 356.773171 249.942857 
L 319.744599 249.942857 
z
" style="fill: #ffffff"/>
   </g>
   <g id="matplotlib.axis_69"/>
   <g id="matplotlib.axis_70"/>
   <g id="line2d_138">
    <path d="M 327.577566 250.654945 
L 327.577566 257.775824 
L 334.698445 257.775824 
L 334.698445 264.896703 
L 341.819325 264.896703 
L 341.819325 257.775824 
L 341.819325 250.654945 
" clip-path="url(#pfb462cd7e5)" style="fill: none; stroke: #00ff80; stroke-linecap: square"/>
   </g>
   <g id="line2d_139">
    <path d="M 356.061083 257.775824 
L 348.940204 257.775824 
L 348.940204 264.896703 
L 348.940204 272.017582 
L 356.061083 272.017582 
" clip-path="url(#pfb462cd7e5)" style="fill: none; stroke: #00db92; stroke-linecap: square"/>
   </g>
   <g id="line2d_140">
    <path d="M 348.940204 286.259341 
L 348.940204 279.138462 
L 341.819325 279.138462 
L 341.819325 272.017582 
L 334.698445 272.017582 
L 327.577566 272.017582 
L 327.577566 264.896703 
L 320.456687 264.896703 
" clip-path="url(#pfb462cd7e5)" style="fill: none; stroke: #00b6a4; stroke-linecap: square"/>
   </g>
   <g id="line2d_141">
    <path d="M 334.698445 286.259341 
L 334.698445 279.138462 
L 327.577566 279.138462 
L 320.456687 279.138462 
" clip-path="url(#pfb462cd7e5)" style="fill: none; stroke: #0092b6; stroke-linecap: square"/>
   </g>
  </g>
  <g id="axes_36">
   <g id="patch_37">
    <path d="M 391.650523 286.971429 
L 428.679094 286.971429 
L 428.679094 249.942857 
L 391.650523 249.942857 
z
" style="fill: #ffffff"/>
   </g>
   <g id="matplotlib.axis_71"/>
   <g id="matplotlib.axis_72"/>
   <g id="line2d_142">
    <path d="M 399.48349 250.654945 
L 399.48349 257.775824 
L 406.604369 257.775824 
L 406.604369 264.896703 
L 399.48349 264.896703 
L 392.362611 264.896703 
" clip-path="url(#p3e04f1d754)" style="fill: none; stroke: #00ff80; stroke-linecap: square"/>
   </g>
   <g id="line2d_143">
    <path d="M 413.725248 250.654945 
L 413.725248 257.775824 
L 420.846127 257.775824 
L 427.967006 257.775824 
" clip-path="url(#p3e04f1d754)" style="fill: none; stroke: #00db92; stroke-linecap: square"/>
   </g>
   <g id="line2d_144">
    <path d="M 427.967006 272.017582 
L 420.846127 272.017582 
L 420.846127 264.896703 
L 413.725248 264.896703 
L 413.725248 272.017582 
L 406.604369 272.017582 
L 399.48349 272.017582 
L 399.48349 279.138462 
L 392.362611 279.138462 
" clip-path="url(#p3e04f1d754)" style="fill: none; stroke: #00b6a4; stroke-linecap: square"/>
   </g>
   <g id="line2d_145">
    <path d="M 420.846127 286.259341 
L 420.846127 279.138462 
L 413.725248 279.138462 
L 406.604369 279.138462 
L 406.604369 286.259341 
" clip-path="url(#p3e04f1d754)" style="fill: none; stroke: #0092b6; stroke-linecap: square"/>
   </g>
  </g>
  <g id="axes_37">
   <g id="patch_38">
    <path d="M 32.120906 334.8 
L 69.149477 334.8 
L 69.149477 297.771429 
L 32.120906 297.771429 
z
" style="fill: #ffffff"/>
   </g>
   <g id="matplotlib.axis_73"/>
   <g id="matplotlib.axis_74"/>
   <g id="line2d_146">
    <path d="M 39.953873 298.483516 
L 39.953873 305.604396 
L 47.074752 305.604396 
L 47.074752 312.725275 
L 39.953873 312.725275 
L 32.832994 312.725275 
" clip-path="url(#p22f7dd234d)" style="fill: none; stroke: #00ff80; stroke-linecap: square"/>
   </g>
   <g id="line2d_147">
    <path d="M 54.195631 298.483516 
L 54.195631 305.604396 
L 61.31651 305.604396 
L 68.437389 305.604396 
" clip-path="url(#p22f7dd234d)" style="fill: none; stroke: #00db92; stroke-linecap: square"/>
   </g>
   <g id="line2d_148">
    <path d="M 68.437389 319.846154 
L 61.31651 319.846154 
L 61.31651 312.725275 
L 54.195631 312.725275 
L 54.195631 319.846154 
L 54.195631 326.967033 
L 61.31651 326.967033 
L 61.31651 334.087912 
" clip-path="url(#p22f7dd234d)" style="fill: none; stroke: #00b6a4; stroke-linecap: square"/>
   </g>
   <g id="line2d_149">
    <path d="M 47.074752 334.087912 
L 47.074752 326.967033 
L 47.074752 319.846154 
L 39.953873 319.846154 
L 39.953873 326.967033 
L 32.832994 326.967033 
" clip-path="url(#p22f7dd234d)" style="fill: none; stroke: #0092b6; stroke-linecap: square"/>
   </g>
  </g>
  <g id="axes_38">
   <g id="patch_39">
    <path d="M 104.026829 334.8 
L 141.055401 334.8 
L 141.055401 297.771429 
L 104.026829 297.771429 
z
" style="fill: #ffffff"/>
   </g>
   <g id="matplotlib.axis_75"/>
   <g id="matplotlib.axis_76"/>
   <g id="line2d_150">
    <path d="M 111.859796 298.483516 
L 111.859796 305.604396 
L 118.980675 305.604396 
L 118.980675 312.725275 
L 118.980675 319.846154 
L 118.980675 326.967033 
L 118.980675 334.087912 
" clip-path="url(#pf4e22d1e27)" style="fill: none; stroke: #00ff80; stroke-linecap: square"/>
   </g>
   <g id="line2d_151">
    <path d="M 126.101555 298.483516 
L 126.101555 305.604396 
L 133.222434 305.604396 
L 140.343313 305.604396 
" clip-path="url(#pf4e22d1e27)" style="fill: none; stroke: #00db92; stroke-linecap: square"/>
   </g>
   <g id="line2d_152">
    <path d="M 140.343313 319.846154 
L 133.222434 319.846154 
L 133.222434 312.725275 
L 126.101555 312.725275 
L 126.101555 319.846154 
L 126.101555 326.967033 
L 133.222434 326.967033 
L 133.222434 334.087912 
" clip-path="url(#pf4e22d1e27)" style="fill: none; stroke: #00b6a4; stroke-linecap: square"/>
   </g>
   <g id="line2d_153">
    <path d="M 104.738917 326.967033 
L 111.859796 326.967033 
L 111.859796 319.846154 
L 111.859796 312.725275 
L 104.738917 312.725275 
" clip-path="url(#pf4e22d1e27)" style="fill: none; stroke: #0092b6; stroke-linecap: square"/>
   </g>
  </g>
  <g id="axes_39">
   <g id="patch_40">
    <path d="M 175.932753 334.8 
L 212.961324 334.8 
L 212.961324 297.771429 
L 175.932753 297.771429 
z
" style="fill: #ffffff"/>
   </g>
   <g id="matplotlib.axis_77"/>
   <g id="matplotlib.axis_78"/>
   <g id="line2d_154">
    <path d="M 183.76572 298.483516 
L 183.76572 305.604396 
L 190.886599 305.604396 
L 190.886599 312.725275 
L 190.886599 319.846154 
L 198.007478 319.846154 
L 198.007478 312.725275 
L 205.128357 312.725275 
L 205.128357 319.846154 
L 212.249236 319.846154 
" clip-path="url(#pba824ec32a)" style="fill: none; stroke: #00ff80; stroke-linecap: square"/>
   </g>
   <g id="line2d_155">
    <path d="M 198.007478 298.483516 
L 198.007478 305.604396 
L 205.128357 305.604396 
L 212.249236 305.604396 
" clip-path="url(#pba824ec32a)" style="fill: none; stroke: #00db92; stroke-linecap: square"/>
   </g>
   <g id="line2d_156">
    <path d="M 205.128357 334.087912 
L 205.128357 326.967033 
L 198.007478 326.967033 
L 190.886599 326.967033 
L 190.886599 334.087912 
" clip-path="url(#pba824ec32a)" style="fill: none; stroke: #00b6a4; stroke-linecap: square"/>
   </g>
   <g id="line2d_157">
    <path d="M 176.644841 326.967033 
L 183.76572 326.967033 
L 183.76572 319.846154 
L 183.76572 312.725275 
L 176.644841 312.725275 
" clip-path="url(#pba824ec32a)" style="fill: none; stroke: #0092b6; stroke-linecap: square"/>
   </g>
  </g>
  <g id="axes_40">
   <g id="patch_41">
    <path d="M 247.838676 334.8 
L 284.867247 334.8 
L 284.867247 297.771429 
L 247.838676 297.771429 
z
" style="fill: #ffffff"/>
   </g>
   <g id="matplotlib.axis_79"/>
   <g id="matplotlib.axis_80"/>
   <g id="line2d_158">
    <path d="M 255.671643 298.483516 
L 255.671643 305.604396 
L 262.792522 305.604396 
L 262.792522 312.725275 
L 262.792522 319.846154 
L 255.671643 319.846154 
L 255.671643 312.725275 
L 248.550764 312.725275 
" clip-path="url(#p2f6a09962c)" style="fill: none; stroke: #00ff80; stroke-linecap: square"/>
   </g>
   <g id="line2d_159">
    <path d="M 269.913401 298.483516 
L 269.913401 305.604396 
L 277.03428 305.604396 
L 284.155159 305.604396 
" clip-path="url(#p2f6a09962c)" style="fill: none; stroke: #00db92; stroke-linecap: square"/>
   </g>
   <g id="line2d_160">
    <path d="M 284.155159 319.846154 
L 277.03428 319.846154 
L 277.03428 312.725275 
L 269.913401 312.725275 
L 269.913401 319.846154 
L 269.913401 326.967033 
L 277.03428 326.967033 
L 277.03428 334.087912 
" clip-path="url(#p2f6a09962c)" style="fill: none; stroke: #00b6a4; stroke-linecap: square"/>
   </g>
   <g id="line2d_161">
    <path d="M 262.792522 334.087912 
L 262.792522 326.967033 
L 255.671643 326.967033 
L 248.550764 326.967033 
" clip-path="url(#p2f6a09962c)" style="fill: none; stroke: #0092b6; stroke-linecap: square"/>
   </g>
  </g>
  <g id="axes_41">
   <g id="patch_42">
    <path d="M 319.744599 334.8 
L 356.773171 334.8 
L 356.773171 297.771429 
L 319.744599 297.771429 
z
" style="fill: #ffffff"/>
   </g>
   <g id="matplotlib.axis_81"/>
   <g id="matplotlib.axis_82"/>
   <g id="line2d_162">
    <path d="M 327.577566 298.483516 
L 327.577566 305.604396 
L 334.698445 305.604396 
L 334.698445 312.725275 
L 341.819325 312.725275 
L 348.940204 312.725275 
L 348.940204 319.846154 
L 356.061083 319.846154 
" clip-path="url(#p222894c6ae)" style="fill: none; stroke: #00ff80; stroke-linecap: square"/>
   </g>
   <g id="line2d_163">
    <path d="M 341.819325 298.483516 
L 341.819325 305.604396 
L 348.940204 305.604396 
L 356.061083 305.604396 
" clip-path="url(#p222894c6ae)" style="fill: none; stroke: #00db92; stroke-linecap: square"/>
   </g>
   <g id="line2d_164">
    <path d="M 348.940204 334.087912 
L 348.940204 326.967033 
L 341.819325 326.967033 
L 341.819325 319.846154 
L 334.698445 319.846154 
L 334.698445 326.967033 
L 334.698445 334.087912 
" clip-path="url(#p222894c6ae)" style="fill: none; stroke: #00b6a4; stroke-linecap: square"/>
   </g>
   <g id="line2d_165">
    <path d="M 320.456687 326.967033 
L 327.577566 326.967033 
L 327.577566 319.846154 
L 327.577566 312.725275 
L 320.456687 312.725275 
" clip-path="url(#p222894c6ae)" style="fill: none; stroke: #0092b6; stroke-linecap: square"/>
   </g>
  </g>
  <g id="axes_42">
   <g id="patch_43">
    <path d="M 391.650523 334.8 
L 428.679094 334.8 
L 428.679094 297.771429 
L 391.650523 297.771429 
z
" style="fill: #ffffff"/>
   </g>
   <g id="matplotlib.axis_83"/>
   <g id="matplotlib.axis_84"/>
   <g id="line2d_166">
    <path d="M 399.48349 298.483516 
L 399.48349 305.604396 
L 406.604369 305.604396 
L 406.604369 312.725275 
L 413.725248 312.725275 
L 420.846127 312.725275 
L 420.846127 319.846154 
L 427.967006 319.846154 
" clip-path="url(#pb198b112a4)" style="fill: none; stroke: #00ff80; stroke-linecap: square"/>
   </g>
   <g id="line2d_167">
    <path d="M 413.725248 298.483516 
L 413.725248 305.604396 
L 420.846127 305.604396 
L 427.967006 305.604396 
" clip-path="url(#pb198b112a4)" style="fill: none; stroke: #00db92; stroke-linecap: square"/>
   </g>
   <g id="line2d_168">
    <path d="M 420.846127 334.087912 
L 420.846127 326.967033 
L 413.725248 326.967033 
L 413.725248 319.846154 
L 406.604369 319.846154 
L 399.48349 319.846154 
L 399.48349 312.725275 
L 392.362611 312.725275 
" clip-path="url(#pb198b112a4)" style="fill: none; stroke: #00b6a4; stroke-linecap: square"/>
   </g>
   <g id="line2d_169">
    <path d="M 406.604369 334.087912 
L 406.604369 326.967033 
L 399.48349 326.967033 
L 392.362611 326.967033 
" clip-path="url(#pb198b112a4)" style="fill: none; stroke: #0092b6; stroke-linecap: square"/>
   </g>
  </g>
 </g>
 <defs>
  <clipPath id="pd5e4c66941">
   <rect x="32.120906" y="10.8" width="37.028571" height="37.028571"/>
  </clipPath>
  <clipPath id="pa7f411fe0b">
   <rect x="104.026829" y="10.8" width="37.028571" height="37.028571"/>
  </clipPath>
  <clipPath id="p1b87368133">
   <rect x="175.932753" y="10.8" width="37.028571" height="37.028571"/>
  </clipPath>
  <clipPath id="pff599e4927">
   <rect x="247.838676" y="10.8" width="37.028571" height="37.028571"/>
  </clipPath>
  <clipPath id="p82132e2a74">
   <rect x="319.744599" y="10.8" width="37.028571" height="37.028571"/>
  </clipPath>
  <clipPath id="p44ccb28e4a">
   <rect x="391.650523" y="10.8" width="37.028571" height="37.028571"/>
  </clipPath>
  <clipPath id="p9aaf2085a7">
   <rect x="32.120906" y="58.628571" width="37.028571" height="37.028571"/>
  </clipPath>
  <clipPath id="pf1c20e5b1b">
   <rect x="104.026829" y="58.628571" width="37.028571" height="37.028571"/>
  </clipPath>
  <clipPath id="pe76336bafa">
   <rect x="175.932753" y="58.628571" width="37.028571" height="37.028571"/>
  </clipPath>
  <clipPath id="p25b09dc8e4">
   <rect x="247.838676" y="58.628571" width="37.028571" height="37.028571"/>
  </clipPath>
  <clipPath id="p5f9503718a">
   <rect x="319.744599" y="58.628571" width="37.028571" height="37.028571"/>
  </clipPath>
  <clipPath id="p0ad26e26f7">
   <rect x="391.650523" y="58.628571" width="37.028571" height="37.028571"/>
  </clipPath>
  <clipPath id="pfc4fb1e2fe">
   <rect x="32.120906" y="106.457143" width="37.028571" height="37.028571"/>
  </clipPath>
  <clipPath id="pd743448882">
   <rect x="104.026829" y="106.457143" width="37.028571" height="37.028571"/>
  </clipPath>
  <clipPath id="p733d8e9427">
   <rect x="175.932753" y="106.457143" width="37.028571" height="37.028571"/>
  </clipPath>
  <clipPath id="p3a5703d0f3">
   <rect x="247.838676" y="106.457143" width="37.028571" height="37.028571"/>
  </clipPath>
  <clipPath id="p787a5aa50c">
   <rect x="319.744599" y="106.457143" width="37.028571" height="37.028571"/>
  </clipPath>
  <clipPath id="pd3c7784766">
   <rect x="391.650523" y="106.457143" width="37.028571" height="37.028571"/>
  </clipPath>
  <clipPath id="pae7e6d6575">
   <rect x="32.120906" y="154.285714" width="37.028571" height="37.028571"/>
  </clipPath>
  <clipPath id="p286b643ae9">
   <rect x="104.026829" y="154.285714" width="37.028571" height="37.028571"/>
  </clipPath>
  <clipPath id="pe0b7674f0b">
   <rect x="175.932753" y="154.285714" width="37.028571" height="37.028571"/>
  </clipPath>
  <clipPath id="pb50405a8e6">
   <rect x="247.838676" y="154.285714" width="37.028571" height="37.028571"/>
  </clipPath>
  <clipPath id="p66c686efd4">
   <rect x="319.744599" y="154.285714" width="37.028571" height="37.028571"/>
  </clipPath>
  <clipPath id="p9d0d1f2a28">
   <rect x="391.650523" y="154.285714" width="37.028571" height="37.028571"/>
  </clipPath>
  <clipPath id="pbeeffa5fcc">
   <rect x="32.120906" y="202.114286" width="37.028571" height="37.028571"/>
  </clipPath>
  <clipPath id="p26fd63b652">
   <rect x="104.026829" y="202.114286" width="37.028571" height="37.028571"/>
  </clipPath>
  <clipPath id="p0853dde3ef">
   <rect x="175.932753" y="202.114286" width="37.028571" height="37.028571"/>
  </clipPath>
  <clipPath id="p1337920674">
   <rect x="247.838676" y="202.114286" width="37.028571" height="37.028571"/>
  </clipPath>
  <clipPath id="p10582db41b">
   <rect x="319.744599" y="202.114286" width="37.028571" height="37.028571"/>
  </clipPath>
  <clipPath id="p4d80fb33d9">
   <rect x="391.650523" y="202.114286" width="37.028571" height="37.028571"/>
  </clipPath>
  <clipPath id="pa635fd7cac">
   <rect x="32.120906" y="249.942857" width="37.028571" height="37.028571"/>
  </clipPath>
  <clipPath id="p0d4b9508ca">
   <rect x="104.026829" y="249.942857" width="37.028571" height="37.028571"/>
  </clipPath>
  <clipPath id="p673d36767a">
   <rect x="175.932753" y="249.942857" width="37.028571" height="37.028571"/>
  </clipPath>
  <clipPath id="p88235e492a">
   <rect x="247.838676" y="249.942857" width="37.028571" height="37.028571"/>
  </clipPath>
  <clipPath id="pfb462cd7e5">
   <rect x="319.744599" y="249.942857" width="37.028571" height="37.028571"/>
  </clipPath>
  <clipPath id="p3e04f1d754">
   <rect x="391.650523" y="249.942857" width="37.028571" height="37.028571"/>
  </clipPath>
  <clipPath id="p22f7dd234d">
   <rect x="32.120906" y="297.771429" width="37.028571" height="37.028571"/>
  </clipPath>
  <clipPath id="pf4e22d1e27">
   <rect x="104.026829" y="297.771429" width="37.028571" height="37.028571"/>
  </clipPath>
  <clipPath id="pba824ec32a">
   <rect x="175.932753" y="297.771429" width="37.028571" height="37.028571"/>
  </clipPath>
  <clipPath id="p2f6a09962c">
   <rect x="247.838676" y="297.771429" width="37.028571" height="37.028571"/>
  </clipPath>
  <clipPath id="p222894c6ae">
   <rect x="319.744599" y="297.771429" width="37.028571" height="37.028571"/>
  </clipPath>
  <clipPath id="pb198b112a4">
   <rect x="391.650523" y="297.771429" width="37.028571" height="37.028571"/>
  </clipPath>
 </defs>
</svg>
