<?xml version="1.0" encoding="utf-8" standalone="no"?>
<!DOCTYPE svg PUBLIC "-//W3C//DTD SVG 1.1//EN"
  "http://www.w3.org/Graphics/SVG/1.1/DTD/svg11.dtd">
<svg xmlns:xlink="http://www.w3.org/1999/xlink" width="460.8pt" height="345.6pt" viewBox="0 0 460.8 345.6" xmlns="http://www.w3.org/2000/svg" version="1.1">
 <metadata>
  <rdf:RDF xmlns:dc="http://purl.org/dc/elements/1.1/" xmlns:cc="http://creativecommons.org/ns#" xmlns:rdf="http://www.w3.org/1999/02/22-rdf-syntax-ns#">
   <cc:Work>
    <dc:type rdf:resource="http://purl.org/dc/dcmitype/StillImage"/>
    <dc:date>2023-02-12T23:26:47.571346</dc:date>
    <dc:format>image/svg+xml</dc:format>
    <dc:creator>
     <cc:Agent>
      <dc:title>Matplotlib v3.6.2, https://matplotlib.org/</dc:title>
     </cc:Agent>
    </dc:creator>
   </cc:Work>
  </rdf:RDF>
 </metadata>
 <defs>
  <style type="text/css">*{stroke-linejoin: round; stroke-linecap: butt}</style>
 </defs>
 <g id="figure_1">
  <g id="patch_1">
   <path d="M 0 345.6 
L 460.8 345.6 
L 460.8 0 
L 0 0 
z
" style="fill: #ffffff"/>
  </g>
  <g id="axes_1">
   <g id="patch_2">
    <path d="M 129.069981 345.6 
L 331.730019 345.6 
L 331.730019 2.940426 
L 129.069981 2.940426 
z
" style="fill: #ffffff"/>
   </g>
   <g id="patch_3">
    <path d="M 137.606942 17.566139 
L 323.193058 17.566139 
L 230.4 178.288266 
z
" clip-path="url(#pe30e40c2f3)" style="fill: #d3d3d3; opacity: 0.3"/>
   </g>
   <g id="line2d_1">
    <path d="M 137.606942 17.566139 
L 323.193058 339.010393 
" clip-path="url(#pe30e40c2f3)" style="fill: none; stroke: #0000ff; stroke-linecap: square"/>
   </g>
   <g id="line2d_2">
    <path d="M 323.193058 17.566139 
L 137.606942 339.010393 
" clip-path="url(#pe30e40c2f3)" style="fill: none; stroke: #ff0000; stroke-linecap: square"/>
   </g>
   <g id="matplotlib.axis_1"/>
   <g id="matplotlib.axis_2"/>
   <g id="patch_4">
    <path d="M 230.4 178.288266 
Q 270.580532 155.090049 308.824571 133.009865 
" clip-path="url(#pe30e40c2f3)" style="fill: none; stroke: #0000ff; stroke-width: 2; stroke-linecap: round"/>
    <path d="M 297.664317 133.679733 
L 308.824571 133.009865 
L 302.664313 142.339989 
L 297.664317 133.679733 
z
" clip-path="url(#pe30e40c2f3)" style="fill: #0000ff; stroke: #0000ff; stroke-width: 2; stroke-linecap: round"/>
   </g>
   <g id="patch_5">
    <path d="M 230.4 178.288266 
Q 190.219468 155.090049 151.975429 133.009865 
" clip-path="url(#pe30e40c2f3)" style="fill: none; stroke: #ff0000; stroke-width: 2; stroke-linecap: round"/>
    <path d="M 158.135687 142.339989 
L 151.975429 133.009865 
L 163.135683 133.679733 
L 158.135687 142.339989 
z
" clip-path="url(#pe30e40c2f3)" style="fill: #ff0000; stroke: #ff0000; stroke-width: 2; stroke-linecap: round"/>
   </g>
   <g id="patch_6">
    <path d="M 230.4 178.288266 
Q 243.793511 155.090049 256.068986 133.828323 
" clip-path="url(#pe30e40c2f3)" style="fill: none; stroke: #0000ff; stroke-width: 2; stroke-linecap: round"/>
    <path d="M 246.738857 139.988573 
L 256.068986 133.828323 
L 255.399108 144.988577 
L 246.738857 139.988573 
z
" clip-path="url(#pe30e40c2f3)" style="fill: #0000ff; stroke: #0000ff; stroke-width: 2; stroke-linecap: round"/>
   </g>
   <g id="patch_7">
    <path d="M 230.4 178.288266 
Q 217.006489 155.090049 204.731014 133.828323 
" clip-path="url(#pe30e40c2f3)" style="fill: none; stroke: #ff0000; stroke-width: 2; stroke-linecap: round"/>
    <path d="M 205.400892 144.988577 
L 204.731014 133.828323 
L 214.061143 139.988573 
L 205.400892 144.988577 
z
" clip-path="url(#pe30e40c2f3)" style="fill: #ff0000; stroke: #ff0000; stroke-width: 2; stroke-linecap: round"/>
   </g>
   <g id="text_1">
    <!-- $\alpha_{1}$ -->
    <g transform="translate(306.829117 133.711073) scale(0.15 -0.15)">
     <defs>
      <path id="Cmmi10-ae" d="M 1288 -72 
Q 984 -72 748 72 
Q 513 216 384 459 
Q 256 703 256 1013 
Q 256 1447 498 1872 
Q 741 2297 1142 2562 
Q 1544 2828 1984 2828 
Q 2309 2828 2556 2658 
Q 2803 2488 2931 2205 
Q 3059 1922 3059 1600 
L 3066 1172 
Q 3284 1475 3436 1801 
Q 3588 2128 3669 2478 
Q 3681 2516 3719 2516 
L 3794 2516 
Q 3853 2516 3853 2456 
Q 3853 2450 3847 2438 
Q 3772 2144 3659 1873 
Q 3547 1603 3395 1350 
Q 3244 1097 3066 891 
Q 3066 97 3250 97 
Q 3369 97 3445 167 
Q 3522 238 3580 341 
Q 3638 444 3653 447 
L 3731 447 
Q 3781 447 3781 384 
Q 3781 225 3598 76 
Q 3416 -72 3238 -72 
Q 3006 -72 2853 78 
Q 2700 228 2644 469 
Q 2344 213 1994 70 
Q 1644 -72 1288 -72 
z
M 1300 97 
Q 1984 97 2613 659 
Q 2609 697 2603 751 
Q 2597 806 2597 813 
L 2597 1503 
Q 2597 2663 1972 2663 
Q 1597 2663 1315 2342 
Q 1034 2022 892 1576 
Q 750 1131 750 763 
Q 750 484 892 290 
Q 1034 97 1300 97 
z
" transform="scale(0.015625)"/>
      <path id="Cmr10-31" d="M 594 0 
L 594 225 
Q 1394 225 1394 428 
L 1394 3788 
Q 1063 3628 556 3628 
L 556 3853 
Q 1341 3853 1741 4263 
L 1831 4263 
Q 1853 4263 1873 4245 
Q 1894 4228 1894 4206 
L 1894 428 
Q 1894 225 2694 225 
L 2694 0 
L 594 0 
z
" transform="scale(0.015625)"/>
     </defs>
     <use xlink:href="#Cmmi10-ae" transform="translate(0 0.8125)"/>
     <use xlink:href="#Cmr10-31" transform="translate(63.916016 -16.19375) scale(0.7)"/>
    </g>
   </g>
   <g id="text_2">
    <!-- $\alpha_{2}$ -->
    <g transform="translate(138.070883 133.711073) scale(0.15 -0.15)">
     <defs>
      <path id="Cmr10-32" d="M 319 0 
L 319 172 
Q 319 188 331 206 
L 1325 1306 
Q 1550 1550 1690 1715 
Q 1831 1881 1968 2097 
Q 2106 2313 2186 2536 
Q 2266 2759 2266 3009 
Q 2266 3272 2169 3511 
Q 2072 3750 1880 3894 
Q 1688 4038 1416 4038 
Q 1138 4038 916 3870 
Q 694 3703 603 3438 
Q 628 3444 672 3444 
Q 816 3444 917 3347 
Q 1019 3250 1019 3097 
Q 1019 2950 917 2848 
Q 816 2747 672 2747 
Q 522 2747 420 2851 
Q 319 2956 319 3097 
Q 319 3338 409 3548 
Q 500 3759 670 3923 
Q 841 4088 1055 4175 
Q 1269 4263 1509 4263 
Q 1875 4263 2190 4108 
Q 2506 3953 2690 3670 
Q 2875 3388 2875 3009 
Q 2875 2731 2753 2481 
Q 2631 2231 2440 2026 
Q 2250 1822 1953 1562 
Q 1656 1303 1563 1216 
L 838 519 
L 1453 519 
Q 1906 519 2211 526 
Q 2516 534 2534 550 
Q 2609 631 2688 1141 
L 2875 1141 
L 2694 0 
L 319 0 
z
" transform="scale(0.015625)"/>
     </defs>
     <use xlink:href="#Cmmi10-ae" transform="translate(0 0.8125)"/>
     <use xlink:href="#Cmr10-32" transform="translate(63.916016 -16.19375) scale(0.7)"/>
    </g>
   </g>
   <g id="text_3">
    <!-- $\Lambda_{1}$ -->
    <g transform="translate(249.826372 133.711073) scale(0.15 -0.15)">
     <defs>
      <path id="Cmr10-a4" d="M 206 0 
L 206 225 
Q 706 225 831 603 
L 2081 4513 
Q 2103 4581 2175 4581 
L 2259 4581 
Q 2294 4581 2320 4562 
Q 2347 4544 2356 4513 
L 3659 428 
Q 3716 291 3859 258 
Q 4003 225 4231 225 
L 4231 0 
L 2497 0 
L 2497 225 
Q 3041 225 3041 397 
Q 3041 416 3034 428 
L 2022 3603 
L 1069 603 
Q 1056 559 1056 538 
Q 1056 378 1214 301 
Q 1372 225 1550 225 
L 1550 0 
L 206 0 
z
" transform="scale(0.015625)"/>
     </defs>
     <use xlink:href="#Cmr10-a4" transform="translate(0 0.421875)"/>
     <use xlink:href="#Cmr10-31" transform="translate(73.848906 -16.584375) scale(0.7)"/>
    </g>
   </g>
   <g id="text_4">
    <!-- $\Lambda_{2}$ -->
    <g transform="translate(193.573628 133.711073) scale(0.15 -0.15)">
     <use xlink:href="#Cmr10-a4" transform="translate(0 0.421875)"/>
     <use xlink:href="#Cmr10-32" transform="translate(73.848906 -16.584375) scale(0.7)"/>
    </g>
   </g>
   <g id="text_5">
    <!-- $H_{\alpha^\vee_{1}}$ -->
    <g transform="translate(118.492289 12.080033) scale(0.15 -0.15)">
     <defs>
      <path id="Cmmi10-48" d="M 300 0 
Q 238 0 238 84 
Q 241 100 250 139 
Q 259 178 276 201 
Q 294 225 319 225 
Q 709 225 863 269 
Q 947 297 984 441 
L 1863 3956 
Q 1875 4019 1875 4044 
Q 1875 4113 1797 4122 
Q 1678 4147 1338 4147 
Q 1275 4147 1275 4231 
Q 1297 4313 1309 4342 
Q 1322 4372 1381 4372 
L 3103 4372 
Q 3169 4372 3169 4288 
Q 3166 4272 3156 4234 
Q 3147 4197 3131 4172 
Q 3116 4147 3084 4147 
Q 2694 4147 2541 4103 
Q 2456 4072 2419 3928 
L 2034 2388 
L 3956 2388 
L 4347 3956 
Q 4359 4019 4359 4044 
Q 4359 4113 4281 4122 
Q 4159 4147 3822 4147 
Q 3756 4147 3756 4231 
Q 3778 4313 3790 4342 
Q 3803 4372 3866 4372 
L 5588 4372 
Q 5650 4372 5650 4288 
Q 5647 4272 5637 4233 
Q 5628 4194 5611 4170 
Q 5594 4147 5569 4147 
Q 5178 4147 5025 4103 
Q 4941 4075 4903 3928 
L 4025 416 
Q 4013 353 4013 325 
Q 4013 259 4091 250 
Q 4213 225 4550 225 
Q 4616 225 4616 141 
Q 4597 66 4578 33 
Q 4559 0 4506 0 
L 2784 0 
Q 2719 0 2719 84 
Q 2731 131 2737 153 
Q 2744 175 2761 200 
Q 2778 225 2803 225 
Q 3194 225 3347 269 
Q 3431 297 3469 441 
L 3897 2163 
L 1978 2163 
L 1544 416 
Q 1528 338 1528 325 
Q 1528 259 1606 250 
Q 1728 225 2069 225 
Q 2131 225 2131 141 
Q 2109 56 2095 28 
Q 2081 0 2022 0 
L 300 0 
z
" transform="scale(0.015625)"/>
      <path id="Cmsy10-5f" d="M 2016 -63 
L 372 3653 
Q 359 3669 359 3700 
Q 359 3747 396 3787 
Q 434 3828 488 3828 
Q 559 3828 609 3750 
L 2131 300 
L 3659 3750 
Q 3697 3828 3775 3828 
Q 3828 3828 3865 3790 
Q 3903 3753 3903 3700 
Q 3903 3669 3897 3653 
L 2253 -63 
Q 2213 -141 2131 -141 
Q 2047 -141 2016 -63 
z
" transform="scale(0.015625)"/>
     </defs>
     <use xlink:href="#Cmmi10-48" transform="translate(0 0.6875)"/>
     <use xlink:href="#Cmmi10-ae" transform="translate(83.105469 -16.31875) scale(0.7)"/>
     <use xlink:href="#Cmsy10-5f" transform="translate(140.862688 10.466094) scale(0.49)"/>
     <use xlink:href="#Cmr10-31" transform="translate(127.84668 -34.175313) scale(0.49)"/>
    </g>
   </g>
   <g id="text_6">
    <!-- $H_{\alpha^\vee_{2}}$ -->
    <g transform="translate(313.357711 12.080033) scale(0.15 -0.15)">
     <use xlink:href="#Cmmi10-48" transform="translate(0 0.6875)"/>
     <use xlink:href="#Cmmi10-ae" transform="translate(83.105469 -16.31875) scale(0.7)"/>
     <use xlink:href="#Cmsy10-5f" transform="translate(140.862688 10.466094) scale(0.49)"/>
     <use xlink:href="#Cmr10-32" transform="translate(127.84668 -34.175313) scale(0.49)"/>
    </g>
   </g>
  </g>
 </g>
 <defs>
  <clipPath id="pe30e40c2f3">
   <rect x="129.069981" y="2.940426" width="202.660039" height="342.659574"/>
  </clipPath>
 </defs>
</svg>
