<?xml version="1.0" encoding="utf-8" standalone="no"?>
<!DOCTYPE svg PUBLIC "-//W3C//DTD SVG 1.1//EN"
  "http://www.w3.org/Graphics/SVG/1.1/DTD/svg11.dtd">
<!-- Created with matplotlib (http://matplotlib.org/) -->
<svg height="345.6pt" version="1.1" viewBox="0 0 460.8 345.6" width="460.8pt" xmlns="http://www.w3.org/2000/svg" xmlns:xlink="http://www.w3.org/1999/xlink">
 <defs>
  <style type="text/css">
*{stroke-linecap:butt;stroke-linejoin:round;}
  </style>
 </defs>
 <g id="figure_1">
  <g id="patch_1">
   <path d="M 0 345.6 
L 460.8 345.6 
L 460.8 0 
L 0 0 
z
" style="fill:#ffffff;"/>
  </g>
  <g id="axes_1">
   <g id="patch_2">
    <path d="M 60.12 343.08 
L 400.68 343.08 
L 400.68 2.52 
L 60.12 2.52 
z
" style="fill:#ffffff;"/>
   </g>
   <g id="patch_3">
    <path clip-path="url(#pc318a6f197)" d="M 134.182078 17.056098 
L 318.631055 17.056098 
L 226.406567 176.793433 
z
" style="fill:#d3d3d3;opacity:0.3;"/>
   </g>
   <g id="line2d_1">
    <path clip-path="url(#pc318a6f197)" d="M 386.143902 130.681284 
L 66.669231 130.681284 
" style="fill:none;stroke:#000000;stroke-linecap:square;"/>
   </g>
   <g id="line2d_2">
    <path clip-path="url(#pc318a6f197)" d="M 134.182078 17.056098 
L 318.631055 336.530769 
" style="fill:none;stroke:#0000ff;stroke-linecap:square;"/>
   </g>
   <g id="line2d_3">
    <path clip-path="url(#pc318a6f197)" d="M 318.631055 17.056098 
L 134.182078 336.530769 
" style="fill:none;stroke:#ff0000;stroke-linecap:square;"/>
   </g>
   <g id="line2d_4">
    <path clip-path="url(#pc318a6f197)" d="M 253.029456 130.681284 
L 199.783677 130.681284 
" style="fill:none;stroke:#000000;stroke-linecap:square;stroke-width:2;"/>
   </g>
   <g id="line2d_5">
    <path clip-path="url(#pc318a6f197)" d="M 199.783677 130.681284 
L 226.406567 176.793433 
" style="fill:none;stroke:#0000ff;stroke-linecap:square;"/>
   </g>
   <g id="line2d_6">
    <path clip-path="url(#pc318a6f197)" d="M 253.029456 130.681284 
L 226.406567 176.793433 
" style="fill:none;stroke:#ff0000;stroke-linecap:square;"/>
   </g>
   <g id="line2d_7">
    <path clip-path="url(#pc318a6f197)" d="M 226.406567 84.569134 
L 199.783677 130.681284 
" style="fill:none;stroke:#0000ff;stroke-linecap:square;"/>
   </g>
   <g id="line2d_8">
    <path clip-path="url(#pc318a6f197)" d="M 226.406567 84.569134 
L 253.029456 130.681284 
" style="fill:none;stroke:#ff0000;stroke-linecap:square;"/>
   </g>
   <g id="line2d_9">
    <path clip-path="url(#pc318a6f197)" d="M 199.783677 130.681284 
L 173.160788 176.793433 
" style="fill:none;stroke:#000000;stroke-linecap:square;stroke-width:2;"/>
   </g>
   <g id="line2d_10">
    <path clip-path="url(#pc318a6f197)" d="M 226.406567 176.793433 
L 173.160788 176.793433 
" style="fill:none;stroke:#ff0000;stroke-linecap:square;"/>
   </g>
   <g id="line2d_11">
    <path clip-path="url(#pc318a6f197)" d="M 253.029456 130.681284 
L 279.652345 176.793433 
" style="fill:none;stroke:#000000;stroke-linecap:square;stroke-width:2;"/>
   </g>
   <g id="line2d_12">
    <path clip-path="url(#pc318a6f197)" d="M 279.652345 176.793433 
L 226.406567 176.793433 
" style="fill:none;stroke:#0000ff;stroke-linecap:square;"/>
   </g>
   <g id="line2d_13">
    <path clip-path="url(#pc318a6f197)" d="M 173.160788 84.569134 
L 199.783677 130.681284 
" style="fill:none;stroke:#000000;stroke-linecap:square;stroke-width:2;"/>
   </g>
   <g id="line2d_14">
    <path clip-path="url(#pc318a6f197)" d="M 226.406567 84.569134 
L 173.160788 84.569134 
" style="fill:none;stroke:#ff0000;stroke-linecap:square;"/>
   </g>
   <g id="line2d_15">
    <path clip-path="url(#pc318a6f197)" d="M 279.652345 84.569134 
L 253.029456 130.681284 
" style="fill:none;stroke:#000000;stroke-linecap:square;stroke-width:2;"/>
   </g>
   <g id="line2d_16">
    <path clip-path="url(#pc318a6f197)" d="M 279.652345 84.569134 
L 226.406567 84.569134 
" style="fill:none;stroke:#0000ff;stroke-linecap:square;"/>
   </g>
   <g id="line2d_17">
    <path clip-path="url(#pc318a6f197)" d="M 199.783677 130.681284 
L 146.537899 130.681284 
" style="fill:none;stroke:#0000ff;stroke-linecap:square;"/>
   </g>
   <g id="line2d_18">
    <path clip-path="url(#pc318a6f197)" d="M 146.537899 130.681284 
L 173.160788 176.793433 
" style="fill:none;stroke:#ff0000;stroke-linecap:square;"/>
   </g>
   <g id="line2d_19">
    <path clip-path="url(#pc318a6f197)" d="M 173.160788 176.793433 
L 199.783677 222.905583 
" style="fill:none;stroke:#000000;stroke-linecap:square;stroke-width:2;"/>
   </g>
   <g id="line2d_20">
    <path clip-path="url(#pc318a6f197)" d="M 226.406567 176.793433 
L 199.783677 222.905583 
" style="fill:none;stroke:#0000ff;stroke-linecap:square;"/>
   </g>
   <g id="line2d_21">
    <path clip-path="url(#pc318a6f197)" d="M 306.275235 130.681284 
L 279.652345 176.793433 
" style="fill:none;stroke:#0000ff;stroke-linecap:square;"/>
   </g>
   <g id="line2d_22">
    <path clip-path="url(#pc318a6f197)" d="M 306.275235 130.681284 
L 253.029456 130.681284 
" style="fill:none;stroke:#ff0000;stroke-linecap:square;"/>
   </g>
   <g id="line2d_23">
    <path clip-path="url(#pc318a6f197)" d="M 279.652345 176.793433 
L 253.029456 222.905583 
" style="fill:none;stroke:#000000;stroke-linecap:square;stroke-width:2;"/>
   </g>
   <g id="line2d_24">
    <path clip-path="url(#pc318a6f197)" d="M 226.406567 176.793433 
L 253.029456 222.905583 
" style="fill:none;stroke:#ff0000;stroke-linecap:square;"/>
   </g>
   <g id="line2d_25">
    <path clip-path="url(#pc318a6f197)" d="M 173.160788 84.569134 
L 146.537899 130.681284 
" style="fill:none;stroke:#ff0000;stroke-linecap:square;"/>
   </g>
   <g id="line2d_26">
    <path clip-path="url(#pc318a6f197)" d="M 199.783677 38.456984 
L 173.160788 84.569134 
" style="fill:none;stroke:#000000;stroke-linecap:square;stroke-width:2;"/>
   </g>
   <g id="line2d_27">
    <path clip-path="url(#pc318a6f197)" d="M 199.783677 38.456984 
L 226.406567 84.569134 
" style="fill:none;stroke:#0000ff;stroke-linecap:square;"/>
   </g>
   <g id="line2d_28">
    <path clip-path="url(#pc318a6f197)" d="M 279.652345 84.569134 
L 306.275235 130.681284 
" style="fill:none;stroke:#0000ff;stroke-linecap:square;"/>
   </g>
   <g id="line2d_29">
    <path clip-path="url(#pc318a6f197)" d="M 253.029456 38.456984 
L 279.652345 84.569134 
" style="fill:none;stroke:#000000;stroke-linecap:square;stroke-width:2;"/>
   </g>
   <g id="line2d_30">
    <path clip-path="url(#pc318a6f197)" d="M 253.029456 38.456984 
L 226.406567 84.569134 
" style="fill:none;stroke:#ff0000;stroke-linecap:square;"/>
   </g>
   <g id="line2d_31">
    <path clip-path="url(#pc318a6f197)" d="M 173.160788 176.793433 
L 119.915009 176.793433 
" style="fill:none;stroke:#000000;stroke-linecap:square;stroke-width:2;"/>
   </g>
   <g id="line2d_32">
    <path clip-path="url(#pc318a6f197)" d="M 146.537899 130.681284 
L 119.915009 176.793433 
" style="fill:none;stroke:#0000ff;stroke-linecap:square;"/>
   </g>
   <g id="line2d_33">
    <path clip-path="url(#pc318a6f197)" d="M 199.783677 222.905583 
L 146.537899 222.905583 
" style="fill:none;stroke:#0000ff;stroke-linecap:square;"/>
   </g>
   <g id="line2d_34">
    <path clip-path="url(#pc318a6f197)" d="M 173.160788 176.793433 
L 146.537899 222.905583 
" style="fill:none;stroke:#ff0000;stroke-linecap:square;"/>
   </g>
   <g id="line2d_35">
    <path clip-path="url(#pc318a6f197)" d="M 253.029456 222.905583 
L 199.783677 222.905583 
" style="fill:none;stroke:#000000;stroke-linecap:square;stroke-width:2;"/>
   </g>
   <g id="line2d_36">
    <path clip-path="url(#pc318a6f197)" d="M 332.898124 176.793433 
L 279.652345 176.793433 
" style="fill:none;stroke:#000000;stroke-linecap:square;stroke-width:2;"/>
   </g>
   <g id="line2d_37">
    <path clip-path="url(#pc318a6f197)" d="M 306.275235 130.681284 
L 332.898124 176.793433 
" style="fill:none;stroke:#ff0000;stroke-linecap:square;"/>
   </g>
   <g id="line2d_38">
    <path clip-path="url(#pc318a6f197)" d="M 279.652345 176.793433 
L 306.275235 222.905583 
" style="fill:none;stroke:#0000ff;stroke-linecap:square;"/>
   </g>
   <g id="line2d_39">
    <path clip-path="url(#pc318a6f197)" d="M 306.275235 222.905583 
L 253.029456 222.905583 
" style="fill:none;stroke:#ff0000;stroke-linecap:square;"/>
   </g>
   <g id="line2d_40">
    <path clip-path="url(#pc318a6f197)" d="M 173.160788 84.569134 
L 119.915009 84.569134 
" style="fill:none;stroke:#000000;stroke-linecap:square;stroke-width:2;"/>
   </g>
   <g id="line2d_41">
    <path clip-path="url(#pc318a6f197)" d="M 119.915009 84.569134 
L 146.537899 130.681284 
" style="fill:none;stroke:#0000ff;stroke-linecap:square;"/>
   </g>
   <g id="line2d_42">
    <path clip-path="url(#pc318a6f197)" d="M 199.783677 38.456984 
L 146.537899 38.456984 
" style="fill:none;stroke:#0000ff;stroke-linecap:square;"/>
   </g>
   <g id="line2d_43">
    <path clip-path="url(#pc318a6f197)" d="M 146.537899 38.456984 
L 173.160788 84.569134 
" style="fill:none;stroke:#ff0000;stroke-linecap:square;"/>
   </g>
   <g id="line2d_44">
    <path clip-path="url(#pc318a6f197)" d="M 253.029456 38.456984 
L 199.783677 38.456984 
" style="fill:none;stroke:#000000;stroke-linecap:square;stroke-width:2;"/>
   </g>
   <g id="line2d_45">
    <path clip-path="url(#pc318a6f197)" d="M 332.898124 84.569134 
L 279.652345 84.569134 
" style="fill:none;stroke:#000000;stroke-linecap:square;stroke-width:2;"/>
   </g>
   <g id="line2d_46">
    <path clip-path="url(#pc318a6f197)" d="M 332.898124 84.569134 
L 306.275235 130.681284 
" style="fill:none;stroke:#ff0000;stroke-linecap:square;"/>
   </g>
   <g id="line2d_47">
    <path clip-path="url(#pc318a6f197)" d="M 306.275235 38.456984 
L 279.652345 84.569134 
" style="fill:none;stroke:#0000ff;stroke-linecap:square;"/>
   </g>
   <g id="line2d_48">
    <path clip-path="url(#pc318a6f197)" d="M 306.275235 38.456984 
L 253.029456 38.456984 
" style="fill:none;stroke:#ff0000;stroke-linecap:square;"/>
   </g>
   <g id="line2d_49">
    <path clip-path="url(#pc318a6f197)" d="M 119.915009 176.793433 
L 146.537899 222.905583 
" style="fill:none;stroke:#0000ff;stroke-linecap:square;"/>
   </g>
   <g id="line2d_50">
    <path clip-path="url(#pc318a6f197)" d="M 93.29212 130.681284 
L 119.915009 176.793433 
" style="fill:none;stroke:#000000;stroke-linecap:square;stroke-width:2;"/>
   </g>
   <g id="line2d_51">
    <path clip-path="url(#pc318a6f197)" d="M 146.537899 130.681284 
L 93.29212 130.681284 
" style="fill:none;stroke:#ff0000;stroke-linecap:square;"/>
   </g>
   <g id="line2d_52">
    <path clip-path="url(#pc318a6f197)" d="M 199.783677 222.905583 
L 173.160788 269.017733 
" style="fill:none;stroke:#000000;stroke-linecap:square;stroke-width:2;"/>
   </g>
   <g id="line2d_53">
    <path clip-path="url(#pc318a6f197)" d="M 146.537899 222.905583 
L 173.160788 269.017733 
" style="fill:none;stroke:#ff0000;stroke-linecap:square;"/>
   </g>
   <g id="line2d_54">
    <path clip-path="url(#pc318a6f197)" d="M 199.783677 222.905583 
L 226.406567 269.017733 
" style="fill:none;stroke:#0000ff;stroke-linecap:square;"/>
   </g>
   <g id="line2d_55">
    <path clip-path="url(#pc318a6f197)" d="M 253.029456 222.905583 
L 226.406567 269.017733 
" style="fill:none;stroke:#ff0000;stroke-linecap:square;"/>
   </g>
   <g id="line2d_56">
    <path clip-path="url(#pc318a6f197)" d="M 332.898124 176.793433 
L 306.275235 222.905583 
" style="fill:none;stroke:#ff0000;stroke-linecap:square;"/>
   </g>
   <g id="line2d_57">
    <path clip-path="url(#pc318a6f197)" d="M 359.521013 130.681284 
L 332.898124 176.793433 
" style="fill:none;stroke:#000000;stroke-linecap:square;stroke-width:2;"/>
   </g>
   <g id="line2d_58">
    <path clip-path="url(#pc318a6f197)" d="M 359.521013 130.681284 
L 306.275235 130.681284 
" style="fill:none;stroke:#0000ff;stroke-linecap:square;"/>
   </g>
   <g id="line2d_59">
    <path clip-path="url(#pc318a6f197)" d="M 253.029456 222.905583 
L 279.652345 269.017733 
" style="fill:none;stroke:#000000;stroke-linecap:square;stroke-width:2;"/>
   </g>
   <g id="line2d_60">
    <path clip-path="url(#pc318a6f197)" d="M 306.275235 222.905583 
L 279.652345 269.017733 
" style="fill:none;stroke:#0000ff;stroke-linecap:square;"/>
   </g>
   <g id="line2d_61">
    <path clip-path="url(#pc318a6f197)" d="M 146.537899 38.456984 
L 119.915009 84.569134 
" style="fill:none;stroke:#0000ff;stroke-linecap:square;"/>
   </g>
   <g id="line2d_62">
    <path clip-path="url(#pc318a6f197)" d="M 119.915009 84.569134 
L 93.29212 130.681284 
" style="fill:none;stroke:#000000;stroke-linecap:square;stroke-width:2;"/>
   </g>
   <g id="line2d_63">
    <path clip-path="url(#pc318a6f197)" d="M 187.427857 17.056098 
L 199.783677 38.456984 
" style="fill:none;stroke:#000000;stroke-linecap:square;stroke-width:2;"/>
   </g>
   <g id="line2d_64">
    <path clip-path="url(#pc318a6f197)" d="M 158.893719 17.056098 
L 146.537899 38.456984 
" style="fill:none;stroke:#ff0000;stroke-linecap:square;"/>
   </g>
   <g id="line2d_65">
    <path clip-path="url(#pc318a6f197)" d="M 212.139498 17.056098 
L 199.783677 38.456984 
" style="fill:none;stroke:#0000ff;stroke-linecap:square;"/>
   </g>
   <g id="line2d_66">
    <path clip-path="url(#pc318a6f197)" d="M 240.673636 17.056098 
L 253.029456 38.456984 
" style="fill:none;stroke:#ff0000;stroke-linecap:square;"/>
   </g>
   <g id="line2d_67">
    <path clip-path="url(#pc318a6f197)" d="M 306.275235 38.456984 
L 332.898124 84.569134 
" style="fill:none;stroke:#ff0000;stroke-linecap:square;"/>
   </g>
   <g id="line2d_68">
    <path clip-path="url(#pc318a6f197)" d="M 265.385276 17.056098 
L 253.029456 38.456984 
" style="fill:none;stroke:#000000;stroke-linecap:square;stroke-width:2;"/>
   </g>
   <g id="line2d_69">
    <path clip-path="url(#pc318a6f197)" d="M 293.919414 17.056098 
L 306.275235 38.456984 
" style="fill:none;stroke:#0000ff;stroke-linecap:square;"/>
   </g>
   <g id="line2d_70">
    <path clip-path="url(#pc318a6f197)" d="M 119.915009 176.793433 
L 93.29212 222.905583 
" style="fill:none;stroke:#000000;stroke-linecap:square;stroke-width:2;"/>
   </g>
   <g id="line2d_71">
    <path clip-path="url(#pc318a6f197)" d="M 146.537899 222.905583 
L 93.29212 222.905583 
" style="fill:none;stroke:#ff0000;stroke-linecap:square;"/>
   </g>
   <g id="line2d_72">
    <path clip-path="url(#pc318a6f197)" d="M 119.915009 176.793433 
L 66.669231 176.793433 
" style="fill:none;stroke:#0000ff;stroke-linecap:square;"/>
   </g>
   <g id="line2d_73">
    <path clip-path="url(#pc318a6f197)" d="M 66.669231 176.793433 
L 93.29212 130.681284 
" style="fill:none;stroke:#ff0000;stroke-linecap:square;"/>
   </g>
   <g id="line2d_74">
    <path clip-path="url(#pc318a6f197)" d="M 226.406567 269.017733 
L 173.160788 269.017733 
" style="fill:none;stroke:#ff0000;stroke-linecap:square;"/>
   </g>
   <g id="line2d_75">
    <path clip-path="url(#pc318a6f197)" d="M 173.160788 269.017733 
L 119.915009 269.017733 
" style="fill:none;stroke:#000000;stroke-linecap:square;stroke-width:2;"/>
   </g>
   <g id="line2d_76">
    <path clip-path="url(#pc318a6f197)" d="M 146.537899 222.905583 
L 119.915009 269.017733 
" style="fill:none;stroke:#0000ff;stroke-linecap:square;"/>
   </g>
   <g id="line2d_77">
    <path clip-path="url(#pc318a6f197)" d="M 332.898124 176.793433 
L 359.521013 222.905583 
" style="fill:none;stroke:#000000;stroke-linecap:square;stroke-width:2;"/>
   </g>
   <g id="line2d_78">
    <path clip-path="url(#pc318a6f197)" d="M 359.521013 222.905583 
L 306.275235 222.905583 
" style="fill:none;stroke:#0000ff;stroke-linecap:square;"/>
   </g>
   <g id="line2d_79">
    <path clip-path="url(#pc318a6f197)" d="M 386.143902 176.793433 
L 359.521013 130.681284 
" style="fill:none;stroke:#0000ff;stroke-linecap:square;"/>
   </g>
   <g id="line2d_80">
    <path clip-path="url(#pc318a6f197)" d="M 386.143902 176.793433 
L 332.898124 176.793433 
" style="fill:none;stroke:#ff0000;stroke-linecap:square;"/>
   </g>
   <g id="line2d_81">
    <path clip-path="url(#pc318a6f197)" d="M 332.898124 84.569134 
L 359.521013 130.681284 
" style="fill:none;stroke:#000000;stroke-linecap:square;stroke-width:2;"/>
   </g>
   <g id="line2d_82">
    <path clip-path="url(#pc318a6f197)" d="M 279.652345 269.017733 
L 226.406567 269.017733 
" style="fill:none;stroke:#0000ff;stroke-linecap:square;"/>
   </g>
   <g id="line2d_83">
    <path clip-path="url(#pc318a6f197)" d="M 332.898124 269.017733 
L 279.652345 269.017733 
" style="fill:none;stroke:#000000;stroke-linecap:square;stroke-width:2;"/>
   </g>
   <g id="line2d_84">
    <path clip-path="url(#pc318a6f197)" d="M 306.275235 222.905583 
L 332.898124 269.017733 
" style="fill:none;stroke:#ff0000;stroke-linecap:square;"/>
   </g>
   <g id="line2d_85">
    <path clip-path="url(#pc318a6f197)" d="M 93.29212 38.456984 
L 119.915009 84.569134 
" style="fill:none;stroke:#000000;stroke-linecap:square;stroke-width:2;"/>
   </g>
   <g id="line2d_86">
    <path clip-path="url(#pc318a6f197)" d="M 146.537899 38.456984 
L 93.29212 38.456984 
" style="fill:none;stroke:#ff0000;stroke-linecap:square;"/>
   </g>
   <g id="line2d_87">
    <path clip-path="url(#pc318a6f197)" d="M 119.915009 84.569134 
L 66.669231 84.569134 
" style="fill:none;stroke:#0000ff;stroke-linecap:square;"/>
   </g>
   <g id="line2d_88">
    <path clip-path="url(#pc318a6f197)" d="M 66.669231 84.569134 
L 93.29212 130.681284 
" style="fill:none;stroke:#ff0000;stroke-linecap:square;"/>
   </g>
   <g id="line2d_89">
    <path clip-path="url(#pc318a6f197)" d="M 134.182078 17.056098 
L 146.537899 38.456984 
" style="fill:none;stroke:#0000ff;stroke-linecap:square;"/>
   </g>
   <g id="line2d_90">
    <path clip-path="url(#pc318a6f197)" d="M 359.521013 38.456984 
L 332.898124 84.569134 
" style="fill:none;stroke:#000000;stroke-linecap:square;stroke-width:2;"/>
   </g>
   <g id="line2d_91">
    <path clip-path="url(#pc318a6f197)" d="M 359.521013 38.456984 
L 306.275235 38.456984 
" style="fill:none;stroke:#0000ff;stroke-linecap:square;"/>
   </g>
   <g id="line2d_92">
    <path clip-path="url(#pc318a6f197)" d="M 318.631055 17.056098 
L 306.275235 38.456984 
" style="fill:none;stroke:#ff0000;stroke-linecap:square;"/>
   </g>
   <g id="line2d_93">
    <path clip-path="url(#pc318a6f197)" d="M 66.669231 176.793433 
L 93.29212 222.905583 
" style="fill:none;stroke:#ff0000;stroke-linecap:square;"/>
   </g>
   <g id="line2d_94">
    <path clip-path="url(#pc318a6f197)" d="M 93.29212 130.681284 
L 66.669231 130.681284 
" style="fill:none;stroke:#000000;stroke-linecap:square;stroke-width:2;"/>
   </g>
   <g id="line2d_95">
    <path clip-path="url(#pc318a6f197)" d="M 173.160788 269.017733 
L 199.783677 315.129883 
" style="fill:none;stroke:#000000;stroke-linecap:square;stroke-width:2;"/>
   </g>
   <g id="line2d_96">
    <path clip-path="url(#pc318a6f197)" d="M 226.406567 269.017733 
L 199.783677 315.129883 
" style="fill:none;stroke:#0000ff;stroke-linecap:square;"/>
   </g>
   <g id="line2d_97">
    <path clip-path="url(#pc318a6f197)" d="M 119.915009 269.017733 
L 146.537899 315.129883 
" style="fill:none;stroke:#0000ff;stroke-linecap:square;"/>
   </g>
   <g id="line2d_98">
    <path clip-path="url(#pc318a6f197)" d="M 173.160788 269.017733 
L 146.537899 315.129883 
" style="fill:none;stroke:#ff0000;stroke-linecap:square;"/>
   </g>
   <g id="line2d_99">
    <path clip-path="url(#pc318a6f197)" d="M 93.29212 222.905583 
L 119.915009 269.017733 
" style="fill:none;stroke:#000000;stroke-linecap:square;stroke-width:2;"/>
   </g>
   <g id="line2d_100">
    <path clip-path="url(#pc318a6f197)" d="M 386.143902 176.793433 
L 359.521013 222.905583 
" style="fill:none;stroke:#0000ff;stroke-linecap:square;"/>
   </g>
   <g id="line2d_101">
    <path clip-path="url(#pc318a6f197)" d="M 359.521013 222.905583 
L 332.898124 269.017733 
" style="fill:none;stroke:#000000;stroke-linecap:square;stroke-width:2;"/>
   </g>
   <g id="line2d_102">
    <path clip-path="url(#pc318a6f197)" d="M 386.143902 130.681284 
L 359.521013 130.681284 
" style="fill:none;stroke:#000000;stroke-linecap:square;stroke-width:2;"/>
   </g>
   <g id="line2d_103">
    <path clip-path="url(#pc318a6f197)" d="M 386.143902 84.569134 
L 359.521013 130.681284 
" style="fill:none;stroke:#0000ff;stroke-linecap:square;"/>
   </g>
   <g id="line2d_104">
    <path clip-path="url(#pc318a6f197)" d="M 386.143902 84.569134 
L 332.898124 84.569134 
" style="fill:none;stroke:#ff0000;stroke-linecap:square;"/>
   </g>
   <g id="line2d_105">
    <path clip-path="url(#pc318a6f197)" d="M 279.652345 269.017733 
L 253.029456 315.129883 
" style="fill:none;stroke:#000000;stroke-linecap:square;stroke-width:2;"/>
   </g>
   <g id="line2d_106">
    <path clip-path="url(#pc318a6f197)" d="M 226.406567 269.017733 
L 253.029456 315.129883 
" style="fill:none;stroke:#ff0000;stroke-linecap:square;"/>
   </g>
   <g id="line2d_107">
    <path clip-path="url(#pc318a6f197)" d="M 279.652345 269.017733 
L 306.275235 315.129883 
" style="fill:none;stroke:#0000ff;stroke-linecap:square;"/>
   </g>
   <g id="line2d_108">
    <path clip-path="url(#pc318a6f197)" d="M 332.898124 269.017733 
L 306.275235 315.129883 
" style="fill:none;stroke:#ff0000;stroke-linecap:square;"/>
   </g>
   <g id="line2d_109">
    <path clip-path="url(#pc318a6f197)" d="M 66.669231 84.569134 
L 93.29212 38.456984 
" style="fill:none;stroke:#ff0000;stroke-linecap:square;"/>
   </g>
   <g id="line2d_110">
    <path clip-path="url(#pc318a6f197)" d="M 105.64794 17.056098 
L 93.29212 38.456984 
" style="fill:none;stroke:#000000;stroke-linecap:square;stroke-width:2;"/>
   </g>
   <g id="line2d_111">
    <path clip-path="url(#pc318a6f197)" d="M 386.143902 84.569134 
L 359.521013 38.456984 
" style="fill:none;stroke:#0000ff;stroke-linecap:square;"/>
   </g>
   <g id="line2d_112">
    <path clip-path="url(#pc318a6f197)" d="M 347.165193 17.056098 
L 359.521013 38.456984 
" style="fill:none;stroke:#000000;stroke-linecap:square;stroke-width:2;"/>
   </g>
   <g id="line2d_113">
    <path clip-path="url(#pc318a6f197)" d="M 93.29212 222.905583 
L 66.669231 222.905583 
" style="fill:none;stroke:#000000;stroke-linecap:square;stroke-width:2;"/>
   </g>
   <g id="line2d_114">
    <path clip-path="url(#pc318a6f197)" d="M 199.783677 315.129883 
L 146.537899 315.129883 
" style="fill:none;stroke:#0000ff;stroke-linecap:square;"/>
   </g>
   <g id="line2d_115">
    <path clip-path="url(#pc318a6f197)" d="M 253.029456 315.129883 
L 199.783677 315.129883 
" style="fill:none;stroke:#000000;stroke-linecap:square;stroke-width:2;"/>
   </g>
   <g id="line2d_116">
    <path clip-path="url(#pc318a6f197)" d="M 119.915009 269.017733 
L 93.29212 315.129883 
" style="fill:none;stroke:#000000;stroke-linecap:square;stroke-width:2;"/>
   </g>
   <g id="line2d_117">
    <path clip-path="url(#pc318a6f197)" d="M 146.537899 315.129883 
L 93.29212 315.129883 
" style="fill:none;stroke:#ff0000;stroke-linecap:square;"/>
   </g>
   <g id="line2d_118">
    <path clip-path="url(#pc318a6f197)" d="M 119.915009 269.017733 
L 66.669231 269.017733 
" style="fill:none;stroke:#0000ff;stroke-linecap:square;"/>
   </g>
   <g id="line2d_119">
    <path clip-path="url(#pc318a6f197)" d="M 66.669231 269.017733 
L 93.29212 222.905583 
" style="fill:none;stroke:#ff0000;stroke-linecap:square;"/>
   </g>
   <g id="line2d_120">
    <path clip-path="url(#pc318a6f197)" d="M 386.143902 222.905583 
L 359.521013 222.905583 
" style="fill:none;stroke:#000000;stroke-linecap:square;stroke-width:2;"/>
   </g>
   <g id="line2d_121">
    <path clip-path="url(#pc318a6f197)" d="M 386.143902 269.017733 
L 359.521013 222.905583 
" style="fill:none;stroke:#0000ff;stroke-linecap:square;"/>
   </g>
   <g id="line2d_122">
    <path clip-path="url(#pc318a6f197)" d="M 386.143902 269.017733 
L 332.898124 269.017733 
" style="fill:none;stroke:#ff0000;stroke-linecap:square;"/>
   </g>
   <g id="line2d_123">
    <path clip-path="url(#pc318a6f197)" d="M 306.275235 315.129883 
L 253.029456 315.129883 
" style="fill:none;stroke:#ff0000;stroke-linecap:square;"/>
   </g>
   <g id="line2d_124">
    <path clip-path="url(#pc318a6f197)" d="M 332.898124 269.017733 
L 359.521013 315.129883 
" style="fill:none;stroke:#000000;stroke-linecap:square;stroke-width:2;"/>
   </g>
   <g id="line2d_125">
    <path clip-path="url(#pc318a6f197)" d="M 359.521013 315.129883 
L 306.275235 315.129883 
" style="fill:none;stroke:#0000ff;stroke-linecap:square;"/>
   </g>
   <g id="line2d_126">
    <path clip-path="url(#pc318a6f197)" d="M 93.29212 38.456984 
L 66.669231 38.456984 
" style="fill:none;stroke:#000000;stroke-linecap:square;stroke-width:2;"/>
   </g>
   <g id="line2d_127">
    <path clip-path="url(#pc318a6f197)" d="M 80.9363 17.056098 
L 93.29212 38.456984 
" style="fill:none;stroke:#ff0000;stroke-linecap:square;"/>
   </g>
   <g id="line2d_128">
    <path clip-path="url(#pc318a6f197)" d="M 386.143902 38.456984 
L 359.521013 38.456984 
" style="fill:none;stroke:#000000;stroke-linecap:square;stroke-width:2;"/>
   </g>
   <g id="line2d_129">
    <path clip-path="url(#pc318a6f197)" d="M 371.876833 17.056098 
L 359.521013 38.456984 
" style="fill:none;stroke:#0000ff;stroke-linecap:square;"/>
   </g>
   <g id="line2d_130">
    <path clip-path="url(#pc318a6f197)" d="M 199.783677 315.129883 
L 187.427857 336.530769 
" style="fill:none;stroke:#000000;stroke-linecap:square;stroke-width:2;"/>
   </g>
   <g id="line2d_131">
    <path clip-path="url(#pc318a6f197)" d="M 146.537899 315.129883 
L 158.893719 336.530769 
" style="fill:none;stroke:#ff0000;stroke-linecap:square;"/>
   </g>
   <g id="line2d_132">
    <path clip-path="url(#pc318a6f197)" d="M 199.783677 315.129883 
L 212.139498 336.530769 
" style="fill:none;stroke:#0000ff;stroke-linecap:square;"/>
   </g>
   <g id="line2d_133">
    <path clip-path="url(#pc318a6f197)" d="M 253.029456 315.129883 
L 240.673636 336.530769 
" style="fill:none;stroke:#ff0000;stroke-linecap:square;"/>
   </g>
   <g id="line2d_134">
    <path clip-path="url(#pc318a6f197)" d="M 66.669231 269.017733 
L 93.29212 315.129883 
" style="fill:none;stroke:#ff0000;stroke-linecap:square;"/>
   </g>
   <g id="line2d_135">
    <path clip-path="url(#pc318a6f197)" d="M 93.29212 315.129883 
L 105.64794 336.530769 
" style="fill:none;stroke:#000000;stroke-linecap:square;stroke-width:2;"/>
   </g>
   <g id="line2d_136">
    <path clip-path="url(#pc318a6f197)" d="M 146.537899 315.129883 
L 134.182078 336.530769 
" style="fill:none;stroke:#0000ff;stroke-linecap:square;"/>
   </g>
   <g id="line2d_137">
    <path clip-path="url(#pc318a6f197)" d="M 253.029456 315.129883 
L 265.385276 336.530769 
" style="fill:none;stroke:#000000;stroke-linecap:square;stroke-width:2;"/>
   </g>
   <g id="line2d_138">
    <path clip-path="url(#pc318a6f197)" d="M 306.275235 315.129883 
L 293.919414 336.530769 
" style="fill:none;stroke:#0000ff;stroke-linecap:square;"/>
   </g>
   <g id="line2d_139">
    <path clip-path="url(#pc318a6f197)" d="M 386.143902 269.017733 
L 359.521013 315.129883 
" style="fill:none;stroke:#0000ff;stroke-linecap:square;"/>
   </g>
   <g id="line2d_140">
    <path clip-path="url(#pc318a6f197)" d="M 359.521013 315.129883 
L 347.165193 336.530769 
" style="fill:none;stroke:#000000;stroke-linecap:square;stroke-width:2;"/>
   </g>
   <g id="line2d_141">
    <path clip-path="url(#pc318a6f197)" d="M 306.275235 315.129883 
L 318.631055 336.530769 
" style="fill:none;stroke:#ff0000;stroke-linecap:square;"/>
   </g>
   <g id="line2d_142">
    <path clip-path="url(#pc318a6f197)" d="M 93.29212 315.129883 
L 66.669231 315.129883 
" style="fill:none;stroke:#000000;stroke-linecap:square;stroke-width:2;"/>
   </g>
   <g id="line2d_143">
    <path clip-path="url(#pc318a6f197)" d="M 93.29212 315.129883 
L 80.9363 336.530769 
" style="fill:none;stroke:#ff0000;stroke-linecap:square;"/>
   </g>
   <g id="line2d_144">
    <path clip-path="url(#pc318a6f197)" d="M 386.143902 315.129883 
L 359.521013 315.129883 
" style="fill:none;stroke:#000000;stroke-linecap:square;stroke-width:2;"/>
   </g>
   <g id="line2d_145">
    <path clip-path="url(#pc318a6f197)" d="M 359.521013 315.129883 
L 371.876833 336.530769 
" style="fill:none;stroke:#0000ff;stroke-linecap:square;"/>
   </g>
   <g id="matplotlib.axis_1"/>
   <g id="matplotlib.axis_2"/>
   <g id="patch_4">
    <path clip-path="url(#pc318a6f197)" d="M 226.406567 176.793433 
Q 226.406567 222.905583 226.406567 266.781665 
" style="fill:none;stroke:#000000;stroke-linecap:round;stroke-width:2;"/>
    <path clip-path="url(#pc318a6f197)" d="M 231.406567 256.781665 
L 226.406567 266.781665 
L 221.406567 256.781665 
L 231.406567 256.781665 
z
" style="stroke:#000000;stroke-linecap:round;stroke-width:2;"/>
   </g>
   <g id="patch_5">
    <path clip-path="url(#pc318a6f197)" d="M 226.406567 176.793433 
Q 266.340901 153.737359 304.338742 131.799317 
" style="fill:none;stroke:#0000ff;stroke-linecap:round;stroke-width:2;"/>
    <path clip-path="url(#pc318a6f197)" d="M 293.178488 132.469185 
L 304.338742 131.799317 
L 298.178484 141.129441 
L 293.178488 132.469185 
z
" style="fill:#0000ff;stroke:#0000ff;stroke-linecap:round;stroke-width:2;"/>
   </g>
   <g id="patch_6">
    <path clip-path="url(#pc318a6f197)" d="M 226.406567 176.793433 
Q 186.472233 153.737359 148.474391 131.799317 
" style="fill:none;stroke:#ff0000;stroke-linecap:round;stroke-width:2;"/>
    <path clip-path="url(#pc318a6f197)" d="M 154.634649 141.129441 
L 148.474391 131.799317 
L 159.634645 132.469185 
L 154.634649 141.129441 
z
" style="fill:#ff0000;stroke:#ff0000;stroke-linecap:round;stroke-width:2;"/>
   </g>
   <g id="patch_7">
    <path clip-path="url(#pc318a6f197)" d="M 226.406567 176.793433 
Q 213.095122 153.737359 200.901712 132.617775 
" style="fill:none;stroke:#ff0000;stroke-linecap:round;stroke-width:2;"/>
    <path clip-path="url(#pc318a6f197)" d="M 201.57159 143.778029 
L 200.901712 132.617775 
L 210.231842 138.778025 
L 201.57159 143.778029 
z
" style="fill:#ff0000;stroke:#ff0000;stroke-linecap:round;stroke-width:2;"/>
   </g>
   <g id="patch_8">
    <path clip-path="url(#pc318a6f197)" d="M 226.406567 176.793433 
Q 239.718011 153.737359 251.911421 132.617775 
" style="fill:none;stroke:#0000ff;stroke-linecap:round;stroke-width:2;"/>
    <path clip-path="url(#pc318a6f197)" d="M 242.581291 138.778025 
L 251.911421 132.617775 
L 251.241543 143.778029 
L 242.581291 138.778025 
z
" style="fill:#0000ff;stroke:#0000ff;stroke-linecap:round;stroke-width:2;"/>
   </g>
   <g id="text_1">
    <!-- $\alpha_{0}$ -->
    <defs>
     <path d="M 20.125 -1.125 
Q 15.375 -1.125 11.6875 1.125 
Q 8.015625 3.375 6 7.171875 
Q 4 10.984375 4 15.828125 
Q 4 22.609375 7.78125 29.25 
Q 11.578125 35.890625 17.84375 40.03125 
Q 24.125 44.1875 31 44.1875 
Q 36.078125 44.1875 39.9375 41.53125 
Q 43.796875 38.875 45.796875 34.453125 
Q 47.796875 30.03125 47.796875 25 
L 47.90625 18.3125 
Q 51.3125 23.046875 53.6875 28.140625 
Q 56.0625 33.25 57.328125 38.71875 
Q 57.515625 39.3125 58.109375 39.3125 
L 59.28125 39.3125 
Q 60.203125 39.3125 60.203125 38.375 
Q 60.203125 38.28125 60.109375 38.09375 
Q 58.9375 33.5 57.171875 29.265625 
Q 55.421875 25.046875 53.046875 21.09375 
Q 50.6875 17.140625 47.90625 13.921875 
Q 47.90625 1.515625 50.78125 1.515625 
Q 52.640625 1.515625 53.828125 2.609375 
Q 55.03125 3.71875 55.9375 5.328125 
Q 56.84375 6.9375 57.078125 6.984375 
L 58.296875 6.984375 
Q 59.078125 6.984375 59.078125 6 
Q 59.078125 3.515625 56.21875 1.1875 
Q 53.375 -1.125 50.59375 -1.125 
Q 46.96875 -1.125 44.578125 1.21875 
Q 42.1875 3.5625 41.3125 7.328125 
Q 36.625 3.328125 31.15625 1.09375 
Q 25.6875 -1.125 20.125 -1.125 
z
M 20.3125 1.515625 
Q 31 1.515625 40.828125 10.296875 
Q 40.765625 10.890625 40.671875 11.734375 
Q 40.578125 12.59375 40.578125 12.703125 
L 40.578125 23.484375 
Q 40.578125 41.609375 30.8125 41.609375 
Q 24.953125 41.609375 20.546875 36.59375 
Q 16.15625 31.59375 13.9375 24.625 
Q 11.71875 17.671875 11.71875 11.921875 
Q 11.71875 7.5625 13.9375 4.53125 
Q 16.15625 1.515625 20.3125 1.515625 
z
" id="Cmmi10-ae"/>
     <path d="M 25 -2.203125 
Q 12.75 -2.203125 8.328125 7.875 
Q 3.90625 17.96875 3.90625 31.890625 
Q 3.90625 40.578125 5.484375 48.234375 
Q 7.078125 55.90625 11.78125 61.25 
Q 16.5 66.609375 25 66.609375 
Q 31.59375 66.609375 35.78125 63.375 
Q 39.984375 60.15625 42.1875 55.046875 
Q 44.390625 49.953125 45.1875 44.109375 
Q 46 38.28125 46 31.890625 
Q 46 23.296875 44.40625 15.796875 
Q 42.828125 8.296875 38.1875 3.046875 
Q 33.546875 -2.203125 25 -2.203125 
z
M 25 0.390625 
Q 30.5625 0.390625 33.296875 6.09375 
Q 36.03125 11.8125 36.671875 18.75 
Q 37.3125 25.6875 37.3125 33.5 
Q 37.3125 41.015625 36.671875 47.359375 
Q 36.03125 53.71875 33.3125 58.859375 
Q 30.609375 64.015625 25 64.015625 
Q 19.34375 64.015625 16.609375 58.828125 
Q 13.875 53.65625 13.234375 47.328125 
Q 12.59375 41.015625 12.59375 33.5 
Q 12.59375 27.9375 12.859375 23 
Q 13.140625 18.0625 14.3125 12.8125 
Q 15.484375 7.5625 18.09375 3.96875 
Q 20.703125 0.390625 25 0.390625 
z
" id="Cmr10-30"/>
    </defs>
    <g transform="translate(218.456567 277.76801)scale(0.15 -0.15)">
     <use transform="translate(0 0.8125)" xlink:href="#Cmmi10-ae"/>
     <use transform="translate(63.916016 -16.19375)scale(0.7)" xlink:href="#Cmr10-30"/>
    </g>
   </g>
   <g id="text_2">
    <!-- $\alpha_{1}$ -->
    <defs>
     <path d="M 9.28125 0 
L 9.28125 3.515625 
Q 21.78125 3.515625 21.78125 6.6875 
L 21.78125 59.1875 
Q 16.609375 56.6875 8.6875 56.6875 
L 8.6875 60.203125 
Q 20.953125 60.203125 27.203125 66.609375 
L 28.609375 66.609375 
Q 28.953125 66.609375 29.265625 66.328125 
Q 29.59375 66.0625 29.59375 65.71875 
L 29.59375 6.6875 
Q 29.59375 3.515625 42.09375 3.515625 
L 42.09375 0 
z
" id="Cmr10-31"/>
    </defs>
    <g transform="translate(302.318668 132.514739)scale(0.15 -0.15)">
     <use transform="translate(0 0.8125)" xlink:href="#Cmmi10-ae"/>
     <use transform="translate(63.916016 -16.19375)scale(0.7)" xlink:href="#Cmr10-31"/>
    </g>
   </g>
   <g id="text_3">
    <!-- $\alpha_{2}$ -->
    <defs>
     <path d="M 4.984375 0 
L 4.984375 2.6875 
Q 4.984375 2.9375 5.171875 3.21875 
L 20.703125 20.40625 
Q 24.21875 24.21875 26.40625 26.796875 
Q 28.609375 29.390625 30.75 32.765625 
Q 32.90625 36.140625 34.15625 39.625 
Q 35.40625 43.109375 35.40625 47.015625 
Q 35.40625 51.125 33.890625 54.859375 
Q 32.375 58.59375 29.375 60.84375 
Q 26.375 63.09375 22.125 63.09375 
Q 17.78125 63.09375 14.3125 60.46875 
Q 10.84375 57.859375 9.421875 53.71875 
Q 9.8125 53.8125 10.5 53.8125 
Q 12.75 53.8125 14.328125 52.296875 
Q 15.921875 50.78125 15.921875 48.390625 
Q 15.921875 46.09375 14.328125 44.5 
Q 12.75 42.921875 10.5 42.921875 
Q 8.15625 42.921875 6.5625 44.546875 
Q 4.984375 46.1875 4.984375 48.390625 
Q 4.984375 52.15625 6.390625 55.4375 
Q 7.8125 58.734375 10.46875 61.296875 
Q 13.140625 63.875 16.484375 65.234375 
Q 19.828125 66.609375 23.578125 66.609375 
Q 29.296875 66.609375 34.21875 64.1875 
Q 39.15625 61.765625 42.03125 57.34375 
Q 44.921875 52.9375 44.921875 47.015625 
Q 44.921875 42.671875 43.015625 38.765625 
Q 41.109375 34.859375 38.125 31.65625 
Q 35.15625 28.46875 30.515625 24.40625 
Q 25.875 20.359375 24.421875 19 
L 13.09375 8.109375 
L 22.703125 8.109375 
Q 29.78125 8.109375 34.546875 8.21875 
Q 39.3125 8.34375 39.59375 8.59375 
Q 40.765625 9.859375 42 17.828125 
L 44.921875 17.828125 
L 42.09375 0 
z
" id="Cmr10-32"/>
    </defs>
    <g transform="translate(134.594465 132.514739)scale(0.15 -0.15)">
     <use transform="translate(0 0.8125)" xlink:href="#Cmmi10-ae"/>
     <use transform="translate(63.916016 -16.19375)scale(0.7)" xlink:href="#Cmr10-32"/>
    </g>
   </g>
   <g id="text_4">
    <!-- $\Lambda_{2}$ -->
    <defs>
     <path d="M 3.21875 0 
L 3.21875 3.515625 
Q 11.03125 3.515625 12.984375 9.421875 
L 32.515625 70.515625 
Q 32.859375 71.578125 33.984375 71.578125 
L 35.296875 71.578125 
Q 35.84375 71.578125 36.25 71.28125 
Q 36.671875 71 36.8125 70.515625 
L 57.171875 6.6875 
Q 58.0625 4.546875 60.296875 4.03125 
Q 62.546875 3.515625 66.109375 3.515625 
L 66.109375 0 
L 39.015625 0 
L 39.015625 3.515625 
Q 47.515625 3.515625 47.515625 6.203125 
Q 47.515625 6.5 47.40625 6.6875 
L 31.59375 56.296875 
L 16.703125 9.421875 
Q 16.5 8.734375 16.5 8.40625 
Q 16.5 5.90625 18.96875 4.703125 
Q 21.4375 3.515625 24.21875 3.515625 
L 24.21875 0 
z
" id="Cmr10-a4"/>
    </defs>
    <g transform="translate(189.752533 132.514739)scale(0.15 -0.15)">
     <use transform="translate(0 0.421875)" xlink:href="#Cmr10-a4"/>
     <use transform="translate(73.848906 -16.584375)scale(0.7)" xlink:href="#Cmr10-32"/>
    </g>
   </g>
   <g id="text_5">
    <!-- $\Lambda_{1}$ -->
    <g transform="translate(245.6606 132.514739)scale(0.15 -0.15)">
     <use transform="translate(0 0.421875)" xlink:href="#Cmr10-a4"/>
     <use transform="translate(73.848906 -16.584375)scale(0.7)" xlink:href="#Cmr10-31"/>
    </g>
   </g>
   <g id="text_6">
    <!-- $\Lambda_{0}$ -->
    <g transform="translate(217.706567 180.932496)scale(0.15 -0.15)">
     <use transform="translate(0 0.421875)" xlink:href="#Cmr10-a4"/>
     <use transform="translate(73.848906 -16.584375)scale(0.7)" xlink:href="#Cmr10-30"/>
    </g>
   </g>
   <g id="text_7">
    <!-- $H_{\alpha^\vee_{0}}$ -->
    <defs>
     <path d="M 4.6875 0 
Q 3.71875 0 3.71875 1.3125 
Q 3.765625 1.5625 3.90625 2.171875 
Q 4.046875 2.78125 4.3125 3.140625 
Q 4.59375 3.515625 4.984375 3.515625 
Q 11.078125 3.515625 13.484375 4.203125 
Q 14.796875 4.640625 15.375 6.890625 
L 29.109375 61.8125 
Q 29.296875 62.796875 29.296875 63.1875 
Q 29.296875 64.265625 28.078125 64.40625 
Q 26.21875 64.796875 20.90625 64.796875 
Q 19.921875 64.796875 19.921875 66.109375 
Q 20.265625 67.390625 20.453125 67.84375 
Q 20.65625 68.3125 21.578125 68.3125 
L 48.484375 68.3125 
Q 49.515625 68.3125 49.515625 67 
Q 49.46875 66.75 49.3125 66.15625 
Q 49.171875 65.578125 48.921875 65.1875 
Q 48.6875 64.796875 48.1875 64.796875 
Q 42.09375 64.796875 39.703125 64.109375 
Q 38.375 63.625 37.796875 61.375 
L 31.78125 37.3125 
L 61.8125 37.3125 
L 67.921875 61.8125 
Q 68.109375 62.796875 68.109375 63.1875 
Q 68.109375 64.265625 66.890625 64.40625 
Q 64.984375 64.796875 59.71875 64.796875 
Q 58.6875 64.796875 58.6875 66.109375 
Q 59.03125 67.390625 59.21875 67.84375 
Q 59.421875 68.3125 60.40625 68.3125 
L 87.3125 68.3125 
Q 88.28125 68.3125 88.28125 67 
Q 88.234375 66.75 88.078125 66.140625 
Q 87.9375 65.53125 87.671875 65.15625 
Q 87.40625 64.796875 87.015625 64.796875 
Q 80.90625 64.796875 78.515625 64.109375 
Q 77.203125 63.671875 76.609375 61.375 
L 62.890625 6.5 
Q 62.703125 5.515625 62.703125 5.078125 
Q 62.703125 4.046875 63.921875 3.90625 
Q 65.828125 3.515625 71.09375 3.515625 
Q 72.125 3.515625 72.125 2.203125 
Q 71.828125 1.03125 71.53125 0.515625 
Q 71.234375 0 70.40625 0 
L 43.5 0 
Q 42.484375 0 42.484375 1.3125 
Q 42.671875 2.046875 42.765625 2.390625 
Q 42.875 2.734375 43.140625 3.125 
Q 43.40625 3.515625 43.796875 3.515625 
Q 49.90625 3.515625 52.296875 4.203125 
Q 53.609375 4.640625 54.203125 6.890625 
L 60.890625 33.796875 
L 30.90625 33.796875 
L 24.125 6.5 
Q 23.875 5.28125 23.875 5.078125 
Q 23.875 4.046875 25.09375 3.90625 
Q 27 3.515625 32.328125 3.515625 
Q 33.296875 3.515625 33.296875 2.203125 
Q 32.953125 0.875 32.734375 0.4375 
Q 32.515625 0 31.59375 0 
z
" id="Cmmi10-48"/>
     <path d="M 31.5 -0.984375 
L 5.8125 57.078125 
Q 5.609375 57.328125 5.609375 57.8125 
Q 5.609375 58.546875 6.1875 59.171875 
Q 6.78125 59.8125 7.625 59.8125 
Q 8.734375 59.8125 9.515625 58.59375 
L 33.296875 4.6875 
L 57.171875 58.59375 
Q 57.765625 59.8125 58.984375 59.8125 
Q 59.8125 59.8125 60.390625 59.21875 
Q 60.984375 58.640625 60.984375 57.8125 
Q 60.984375 57.328125 60.890625 57.078125 
L 35.203125 -0.984375 
Q 34.578125 -2.203125 33.296875 -2.203125 
Q 31.984375 -2.203125 31.5 -0.984375 
z
" id="Cmsy10-5f"/>
    </defs>
    <g transform="translate(379.655769 130.850676)scale(0.15 -0.15)">
     <use transform="translate(0 0.6875)" xlink:href="#Cmmi10-48"/>
     <use transform="translate(83.105469 -16.31875)scale(0.7)" xlink:href="#Cmmi10-ae"/>
     <use transform="translate(140.862688 10.466094)scale(0.49)" xlink:href="#Cmsy10-5f"/>
     <use transform="translate(127.84668 -34.175313)scale(0.49)" xlink:href="#Cmr10-30"/>
    </g>
   </g>
   <g id="text_8">
    <!-- $H_{\alpha^\vee_{1}}$ -->
    <g transform="translate(115.095854 11.619231)scale(0.15 -0.15)">
     <use transform="translate(0 0.6875)" xlink:href="#Cmmi10-48"/>
     <use transform="translate(83.105469 -16.31875)scale(0.7)" xlink:href="#Cmmi10-ae"/>
     <use transform="translate(140.862688 10.466094)scale(0.49)" xlink:href="#Cmsy10-5f"/>
     <use transform="translate(127.84668 -34.175313)scale(0.49)" xlink:href="#Cmr10-31"/>
    </g>
   </g>
   <g id="text_9">
    <!-- $H_{\alpha^\vee_{2}}$ -->
    <g transform="translate(308.767279 11.619231)scale(0.15 -0.15)">
     <use transform="translate(0 0.6875)" xlink:href="#Cmmi10-48"/>
     <use transform="translate(83.105469 -16.31875)scale(0.7)" xlink:href="#Cmmi10-ae"/>
     <use transform="translate(140.862688 10.466094)scale(0.49)" xlink:href="#Cmsy10-5f"/>
     <use transform="translate(127.84668 -34.175313)scale(0.49)" xlink:href="#Cmr10-32"/>
    </g>
   </g>
  </g>
 </g>
 <defs>
  <clipPath id="pc318a6f197">
   <rect height="340.56" width="340.56" x="60.12" y="2.52"/>
  </clipPath>
 </defs>
</svg>
