<?xml version="1.0" encoding="utf-8" standalone="no"?>
<!DOCTYPE svg PUBLIC "-//W3C//DTD SVG 1.1//EN"
  "http://www.w3.org/Graphics/SVG/1.1/DTD/svg11.dtd">
<!-- Created with matplotlib (http://matplotlib.org/) -->
<svg height="345.6pt" version="1.1" viewBox="0 0 460.8 345.6" width="460.8pt" xmlns="http://www.w3.org/2000/svg" xmlns:xlink="http://www.w3.org/1999/xlink">
 <defs>
  <style type="text/css">
*{stroke-linecap:butt;stroke-linejoin:round;}
  </style>
 </defs>
 <g id="figure_1">
  <g id="patch_1">
   <path d="M 0 345.6 
L 460.8 345.6 
L 460.8 0 
L 0 0 
z
" style="fill:#ffffff;"/>
  </g>
  <g id="axes_1">
   <g id="patch_2">
    <path d="M 60.12 343.08 
L 400.68 343.08 
L 400.68 2.52 
L 60.12 2.52 
z
" style="fill:#ffffff;"/>
   </g>
   <g id="patch_3">
    <path clip-path="url(#p7b3951789b)" d="M 226.406567 176.793433 
L 386.143902 17.056098 
L 386.143902 176.793433 
z
" style="fill:#d3d3d3;opacity:0.3;"/>
   </g>
   <g id="line2d_1">
    <path clip-path="url(#p7b3951789b)" d="M 279.652345 17.056098 
L 279.652345 336.530769 
" style="fill:none;stroke:#000000;stroke-linecap:square;"/>
   </g>
   <g id="line2d_2">
    <path clip-path="url(#p7b3951789b)" d="M 66.669231 336.530769 
L 386.143902 17.056098 
" style="fill:none;stroke:#0000ff;stroke-linecap:square;"/>
   </g>
   <g id="line2d_3">
    <path clip-path="url(#p7b3951789b)" d="M 386.143902 176.793433 
L 66.669231 176.793433 
" style="fill:none;stroke:#ff0000;stroke-linecap:square;"/>
   </g>
   <g id="line2d_4">
    <path clip-path="url(#p7b3951789b)" d="M 279.652345 123.547655 
L 279.652345 176.793433 
" style="fill:none;stroke:#000000;stroke-linecap:square;stroke-width:2;"/>
   </g>
   <g id="line2d_5">
    <path clip-path="url(#p7b3951789b)" d="M 279.652345 123.547655 
L 226.406567 176.793433 
" style="fill:none;stroke:#0000ff;stroke-linecap:square;"/>
   </g>
   <g id="line2d_6">
    <path clip-path="url(#p7b3951789b)" d="M 279.652345 176.793433 
L 226.406567 176.793433 
" style="fill:none;stroke:#ff0000;stroke-linecap:square;"/>
   </g>
   <g id="line2d_7">
    <path clip-path="url(#p7b3951789b)" d="M 279.652345 123.547655 
L 332.898124 176.793433 
" style="fill:none;stroke:#0000ff;stroke-linecap:square;"/>
   </g>
   <g id="line2d_8">
    <path clip-path="url(#p7b3951789b)" d="M 332.898124 176.793433 
L 279.652345 176.793433 
" style="fill:none;stroke:#ff0000;stroke-linecap:square;"/>
   </g>
   <g id="line2d_9">
    <path clip-path="url(#p7b3951789b)" d="M 279.652345 123.547655 
L 226.406567 123.547655 
" style="fill:none;stroke:#000000;stroke-linecap:square;stroke-width:2;"/>
   </g>
   <g id="line2d_10">
    <path clip-path="url(#p7b3951789b)" d="M 226.406567 123.547655 
L 226.406567 176.793433 
" style="fill:none;stroke:#ff0000;stroke-linecap:square;"/>
   </g>
   <g id="line2d_11">
    <path clip-path="url(#p7b3951789b)" d="M 279.652345 176.793433 
L 279.652345 230.039212 
" style="fill:none;stroke:#000000;stroke-linecap:square;stroke-width:2;"/>
   </g>
   <g id="line2d_12">
    <path clip-path="url(#p7b3951789b)" d="M 226.406567 176.793433 
L 279.652345 230.039212 
" style="fill:none;stroke:#0000ff;stroke-linecap:square;"/>
   </g>
   <g id="line2d_13">
    <path clip-path="url(#p7b3951789b)" d="M 332.898124 123.547655 
L 279.652345 123.547655 
" style="fill:none;stroke:#000000;stroke-linecap:square;stroke-width:2;"/>
   </g>
   <g id="line2d_14">
    <path clip-path="url(#p7b3951789b)" d="M 332.898124 123.547655 
L 332.898124 176.793433 
" style="fill:none;stroke:#ff0000;stroke-linecap:square;"/>
   </g>
   <g id="line2d_15">
    <path clip-path="url(#p7b3951789b)" d="M 226.406567 70.301876 
L 279.652345 123.547655 
" style="fill:none;stroke:#0000ff;stroke-linecap:square;"/>
   </g>
   <g id="line2d_16">
    <path clip-path="url(#p7b3951789b)" d="M 226.406567 70.301876 
L 226.406567 123.547655 
" style="fill:none;stroke:#ff0000;stroke-linecap:square;"/>
   </g>
   <g id="line2d_17">
    <path clip-path="url(#p7b3951789b)" d="M 226.406567 123.547655 
L 173.160788 123.547655 
" style="fill:none;stroke:#000000;stroke-linecap:square;stroke-width:2;"/>
   </g>
   <g id="line2d_18">
    <path clip-path="url(#p7b3951789b)" d="M 173.160788 123.547655 
L 226.406567 176.793433 
" style="fill:none;stroke:#0000ff;stroke-linecap:square;"/>
   </g>
   <g id="line2d_19">
    <path clip-path="url(#p7b3951789b)" d="M 332.898124 176.793433 
L 279.652345 230.039212 
" style="fill:none;stroke:#0000ff;stroke-linecap:square;"/>
   </g>
   <g id="line2d_20">
    <path clip-path="url(#p7b3951789b)" d="M 279.652345 230.039212 
L 226.406567 230.039212 
" style="fill:none;stroke:#000000;stroke-linecap:square;stroke-width:2;"/>
   </g>
   <g id="line2d_21">
    <path clip-path="url(#p7b3951789b)" d="M 226.406567 176.793433 
L 226.406567 230.039212 
" style="fill:none;stroke:#ff0000;stroke-linecap:square;"/>
   </g>
   <g id="line2d_22">
    <path clip-path="url(#p7b3951789b)" d="M 332.898124 70.301876 
L 279.652345 123.547655 
" style="fill:none;stroke:#0000ff;stroke-linecap:square;"/>
   </g>
   <g id="line2d_23">
    <path clip-path="url(#p7b3951789b)" d="M 332.898124 70.301876 
L 332.898124 123.547655 
" style="fill:none;stroke:#ff0000;stroke-linecap:square;"/>
   </g>
   <g id="line2d_24">
    <path clip-path="url(#p7b3951789b)" d="M 386.143902 123.547655 
L 332.898124 123.547655 
" style="fill:none;stroke:#000000;stroke-linecap:square;stroke-width:2;"/>
   </g>
   <g id="line2d_25">
    <path clip-path="url(#p7b3951789b)" d="M 386.143902 123.547655 
L 332.898124 176.793433 
" style="fill:none;stroke:#0000ff;stroke-linecap:square;"/>
   </g>
   <g id="line2d_26">
    <path clip-path="url(#p7b3951789b)" d="M 279.652345 70.301876 
L 279.652345 123.547655 
" style="fill:none;stroke:#000000;stroke-linecap:square;stroke-width:2;"/>
   </g>
   <g id="line2d_27">
    <path clip-path="url(#p7b3951789b)" d="M 279.652345 70.301876 
L 226.406567 70.301876 
" style="fill:none;stroke:#ff0000;stroke-linecap:square;"/>
   </g>
   <g id="line2d_28">
    <path clip-path="url(#p7b3951789b)" d="M 226.406567 70.301876 
L 173.160788 123.547655 
" style="fill:none;stroke:#0000ff;stroke-linecap:square;"/>
   </g>
   <g id="line2d_29">
    <path clip-path="url(#p7b3951789b)" d="M 173.160788 123.547655 
L 173.160788 176.793433 
" style="fill:none;stroke:#000000;stroke-linecap:square;stroke-width:2;"/>
   </g>
   <g id="line2d_30">
    <path clip-path="url(#p7b3951789b)" d="M 226.406567 176.793433 
L 173.160788 176.793433 
" style="fill:none;stroke:#ff0000;stroke-linecap:square;"/>
   </g>
   <g id="line2d_31">
    <path clip-path="url(#p7b3951789b)" d="M 332.898124 230.039212 
L 279.652345 230.039212 
" style="fill:none;stroke:#000000;stroke-linecap:square;stroke-width:2;"/>
   </g>
   <g id="line2d_32">
    <path clip-path="url(#p7b3951789b)" d="M 332.898124 176.793433 
L 332.898124 230.039212 
" style="fill:none;stroke:#ff0000;stroke-linecap:square;"/>
   </g>
   <g id="line2d_33">
    <path clip-path="url(#p7b3951789b)" d="M 279.652345 230.039212 
L 226.406567 283.284991 
" style="fill:none;stroke:#0000ff;stroke-linecap:square;"/>
   </g>
   <g id="line2d_34">
    <path clip-path="url(#p7b3951789b)" d="M 226.406567 230.039212 
L 226.406567 283.284991 
" style="fill:none;stroke:#ff0000;stroke-linecap:square;"/>
   </g>
   <g id="line2d_35">
    <path clip-path="url(#p7b3951789b)" d="M 226.406567 230.039212 
L 173.160788 230.039212 
" style="fill:none;stroke:#000000;stroke-linecap:square;stroke-width:2;"/>
   </g>
   <g id="line2d_36">
    <path clip-path="url(#p7b3951789b)" d="M 226.406567 176.793433 
L 173.160788 230.039212 
" style="fill:none;stroke:#0000ff;stroke-linecap:square;"/>
   </g>
   <g id="line2d_37">
    <path clip-path="url(#p7b3951789b)" d="M 386.143902 123.547655 
L 332.898124 70.301876 
" style="fill:none;stroke:#0000ff;stroke-linecap:square;"/>
   </g>
   <g id="line2d_38">
    <path clip-path="url(#p7b3951789b)" d="M 386.143902 123.547655 
L 386.143902 176.793433 
" style="fill:none;stroke:#000000;stroke-linecap:square;stroke-width:2;"/>
   </g>
   <g id="line2d_39">
    <path clip-path="url(#p7b3951789b)" d="M 386.143902 176.793433 
L 332.898124 176.793433 
" style="fill:none;stroke:#ff0000;stroke-linecap:square;"/>
   </g>
   <g id="line2d_40">
    <path clip-path="url(#p7b3951789b)" d="M 332.898124 70.301876 
L 279.652345 70.301876 
" style="fill:none;stroke:#ff0000;stroke-linecap:square;"/>
   </g>
   <g id="line2d_41">
    <path clip-path="url(#p7b3951789b)" d="M 279.652345 17.056098 
L 279.652345 70.301876 
" style="fill:none;stroke:#000000;stroke-linecap:square;stroke-width:2;"/>
   </g>
   <g id="line2d_42">
    <path clip-path="url(#p7b3951789b)" d="M 279.652345 17.056098 
L 226.406567 70.301876 
" style="fill:none;stroke:#0000ff;stroke-linecap:square;"/>
   </g>
   <g id="line2d_43">
    <path clip-path="url(#p7b3951789b)" d="M 173.160788 70.301876 
L 173.160788 123.547655 
" style="fill:none;stroke:#000000;stroke-linecap:square;stroke-width:2;"/>
   </g>
   <g id="line2d_44">
    <path clip-path="url(#p7b3951789b)" d="M 226.406567 70.301876 
L 173.160788 70.301876 
" style="fill:none;stroke:#ff0000;stroke-linecap:square;"/>
   </g>
   <g id="line2d_45">
    <path clip-path="url(#p7b3951789b)" d="M 173.160788 123.547655 
L 119.915009 176.793433 
" style="fill:none;stroke:#0000ff;stroke-linecap:square;"/>
   </g>
   <g id="line2d_46">
    <path clip-path="url(#p7b3951789b)" d="M 173.160788 176.793433 
L 119.915009 176.793433 
" style="fill:none;stroke:#ff0000;stroke-linecap:square;"/>
   </g>
   <g id="line2d_47">
    <path clip-path="url(#p7b3951789b)" d="M 279.652345 230.039212 
L 332.898124 283.284991 
" style="fill:none;stroke:#0000ff;stroke-linecap:square;"/>
   </g>
   <g id="line2d_48">
    <path clip-path="url(#p7b3951789b)" d="M 332.898124 230.039212 
L 332.898124 283.284991 
" style="fill:none;stroke:#ff0000;stroke-linecap:square;"/>
   </g>
   <g id="line2d_49">
    <path clip-path="url(#p7b3951789b)" d="M 386.143902 230.039212 
L 332.898124 230.039212 
" style="fill:none;stroke:#000000;stroke-linecap:square;stroke-width:2;"/>
   </g>
   <g id="line2d_50">
    <path clip-path="url(#p7b3951789b)" d="M 386.143902 230.039212 
L 332.898124 176.793433 
" style="fill:none;stroke:#0000ff;stroke-linecap:square;"/>
   </g>
   <g id="line2d_51">
    <path clip-path="url(#p7b3951789b)" d="M 279.652345 230.039212 
L 279.652345 283.284991 
" style="fill:none;stroke:#000000;stroke-linecap:square;stroke-width:2;"/>
   </g>
   <g id="line2d_52">
    <path clip-path="url(#p7b3951789b)" d="M 279.652345 283.284991 
L 226.406567 283.284991 
" style="fill:none;stroke:#ff0000;stroke-linecap:square;"/>
   </g>
   <g id="line2d_53">
    <path clip-path="url(#p7b3951789b)" d="M 173.160788 230.039212 
L 226.406567 283.284991 
" style="fill:none;stroke:#0000ff;stroke-linecap:square;"/>
   </g>
   <g id="line2d_54">
    <path clip-path="url(#p7b3951789b)" d="M 173.160788 176.793433 
L 173.160788 230.039212 
" style="fill:none;stroke:#000000;stroke-linecap:square;stroke-width:2;"/>
   </g>
   <g id="line2d_55">
    <path clip-path="url(#p7b3951789b)" d="M 386.143902 70.301876 
L 386.143902 123.547655 
" style="fill:none;stroke:#000000;stroke-linecap:square;stroke-width:2;"/>
   </g>
   <g id="line2d_56">
    <path clip-path="url(#p7b3951789b)" d="M 386.143902 70.301876 
L 332.898124 70.301876 
" style="fill:none;stroke:#ff0000;stroke-linecap:square;"/>
   </g>
   <g id="line2d_57">
    <path clip-path="url(#p7b3951789b)" d="M 279.652345 17.056098 
L 332.898124 70.301876 
" style="fill:none;stroke:#0000ff;stroke-linecap:square;"/>
   </g>
   <g id="line2d_58">
    <path clip-path="url(#p7b3951789b)" d="M 279.652345 17.056098 
L 226.406567 17.056098 
" style="fill:none;stroke:#000000;stroke-linecap:square;stroke-width:2;"/>
   </g>
   <g id="line2d_59">
    <path clip-path="url(#p7b3951789b)" d="M 226.406567 17.056098 
L 226.406567 70.301876 
" style="fill:none;stroke:#ff0000;stroke-linecap:square;"/>
   </g>
   <g id="line2d_60">
    <path clip-path="url(#p7b3951789b)" d="M 119.915009 70.301876 
L 173.160788 123.547655 
" style="fill:none;stroke:#0000ff;stroke-linecap:square;"/>
   </g>
   <g id="line2d_61">
    <path clip-path="url(#p7b3951789b)" d="M 173.160788 70.301876 
L 119.915009 70.301876 
" style="fill:none;stroke:#ff0000;stroke-linecap:square;"/>
   </g>
   <g id="line2d_62">
    <path clip-path="url(#p7b3951789b)" d="M 173.160788 17.056098 
L 173.160788 70.301876 
" style="fill:none;stroke:#000000;stroke-linecap:square;stroke-width:2;"/>
   </g>
   <g id="line2d_63">
    <path clip-path="url(#p7b3951789b)" d="M 173.160788 17.056098 
L 226.406567 70.301876 
" style="fill:none;stroke:#0000ff;stroke-linecap:square;"/>
   </g>
   <g id="line2d_64">
    <path clip-path="url(#p7b3951789b)" d="M 173.160788 123.547655 
L 119.915009 123.547655 
" style="fill:none;stroke:#000000;stroke-linecap:square;stroke-width:2;"/>
   </g>
   <g id="line2d_65">
    <path clip-path="url(#p7b3951789b)" d="M 119.915009 123.547655 
L 119.915009 176.793433 
" style="fill:none;stroke:#ff0000;stroke-linecap:square;"/>
   </g>
   <g id="line2d_66">
    <path clip-path="url(#p7b3951789b)" d="M 386.143902 230.039212 
L 332.898124 283.284991 
" style="fill:none;stroke:#0000ff;stroke-linecap:square;"/>
   </g>
   <g id="line2d_67">
    <path clip-path="url(#p7b3951789b)" d="M 386.143902 176.793433 
L 386.143902 230.039212 
" style="fill:none;stroke:#000000;stroke-linecap:square;stroke-width:2;"/>
   </g>
   <g id="line2d_68">
    <path clip-path="url(#p7b3951789b)" d="M 332.898124 283.284991 
L 279.652345 283.284991 
" style="fill:none;stroke:#ff0000;stroke-linecap:square;"/>
   </g>
   <g id="line2d_69">
    <path clip-path="url(#p7b3951789b)" d="M 279.652345 283.284991 
L 279.652345 336.530769 
" style="fill:none;stroke:#000000;stroke-linecap:square;stroke-width:2;"/>
   </g>
   <g id="line2d_70">
    <path clip-path="url(#p7b3951789b)" d="M 226.406567 283.284991 
L 279.652345 336.530769 
" style="fill:none;stroke:#0000ff;stroke-linecap:square;"/>
   </g>
   <g id="line2d_71">
    <path clip-path="url(#p7b3951789b)" d="M 173.160788 230.039212 
L 173.160788 283.284991 
" style="fill:none;stroke:#000000;stroke-linecap:square;stroke-width:2;"/>
   </g>
   <g id="line2d_72">
    <path clip-path="url(#p7b3951789b)" d="M 226.406567 283.284991 
L 173.160788 283.284991 
" style="fill:none;stroke:#ff0000;stroke-linecap:square;"/>
   </g>
   <g id="line2d_73">
    <path clip-path="url(#p7b3951789b)" d="M 119.915009 176.793433 
L 173.160788 230.039212 
" style="fill:none;stroke:#0000ff;stroke-linecap:square;"/>
   </g>
   <g id="line2d_74">
    <path clip-path="url(#p7b3951789b)" d="M 386.143902 17.056098 
L 386.143902 70.301876 
" style="fill:none;stroke:#000000;stroke-linecap:square;stroke-width:2;"/>
   </g>
   <g id="line2d_75">
    <path clip-path="url(#p7b3951789b)" d="M 386.143902 17.056098 
L 332.898124 70.301876 
" style="fill:none;stroke:#0000ff;stroke-linecap:square;"/>
   </g>
   <g id="line2d_76">
    <path clip-path="url(#p7b3951789b)" d="M 332.898124 17.056098 
L 279.652345 17.056098 
" style="fill:none;stroke:#000000;stroke-linecap:square;stroke-width:2;"/>
   </g>
   <g id="line2d_77">
    <path clip-path="url(#p7b3951789b)" d="M 332.898124 17.056098 
L 332.898124 70.301876 
" style="fill:none;stroke:#ff0000;stroke-linecap:square;"/>
   </g>
   <g id="line2d_78">
    <path clip-path="url(#p7b3951789b)" d="M 173.160788 17.056098 
L 119.915009 70.301876 
" style="fill:none;stroke:#0000ff;stroke-linecap:square;"/>
   </g>
   <g id="line2d_79">
    <path clip-path="url(#p7b3951789b)" d="M 226.406567 17.056098 
L 173.160788 17.056098 
" style="fill:none;stroke:#000000;stroke-linecap:square;stroke-width:2;"/>
   </g>
   <g id="line2d_80">
    <path clip-path="url(#p7b3951789b)" d="M 119.915009 70.301876 
L 119.915009 123.547655 
" style="fill:none;stroke:#ff0000;stroke-linecap:square;"/>
   </g>
   <g id="line2d_81">
    <path clip-path="url(#p7b3951789b)" d="M 119.915009 123.547655 
L 66.669231 123.547655 
" style="fill:none;stroke:#000000;stroke-linecap:square;stroke-width:2;"/>
   </g>
   <g id="line2d_82">
    <path clip-path="url(#p7b3951789b)" d="M 66.669231 123.547655 
L 119.915009 176.793433 
" style="fill:none;stroke:#0000ff;stroke-linecap:square;"/>
   </g>
   <g id="line2d_83">
    <path clip-path="url(#p7b3951789b)" d="M 386.143902 230.039212 
L 386.143902 283.284991 
" style="fill:none;stroke:#000000;stroke-linecap:square;stroke-width:2;"/>
   </g>
   <g id="line2d_84">
    <path clip-path="url(#p7b3951789b)" d="M 386.143902 283.284991 
L 332.898124 283.284991 
" style="fill:none;stroke:#ff0000;stroke-linecap:square;"/>
   </g>
   <g id="line2d_85">
    <path clip-path="url(#p7b3951789b)" d="M 332.898124 283.284991 
L 279.652345 336.530769 
" style="fill:none;stroke:#0000ff;stroke-linecap:square;"/>
   </g>
   <g id="line2d_86">
    <path clip-path="url(#p7b3951789b)" d="M 279.652345 336.530769 
L 226.406567 336.530769 
" style="fill:none;stroke:#000000;stroke-linecap:square;stroke-width:2;"/>
   </g>
   <g id="line2d_87">
    <path clip-path="url(#p7b3951789b)" d="M 226.406567 283.284991 
L 226.406567 336.530769 
" style="fill:none;stroke:#ff0000;stroke-linecap:square;"/>
   </g>
   <g id="line2d_88">
    <path clip-path="url(#p7b3951789b)" d="M 173.160788 230.039212 
L 119.915009 283.284991 
" style="fill:none;stroke:#0000ff;stroke-linecap:square;"/>
   </g>
   <g id="line2d_89">
    <path clip-path="url(#p7b3951789b)" d="M 173.160788 283.284991 
L 119.915009 283.284991 
" style="fill:none;stroke:#ff0000;stroke-linecap:square;"/>
   </g>
   <g id="line2d_90">
    <path clip-path="url(#p7b3951789b)" d="M 173.160788 283.284991 
L 173.160788 336.530769 
" style="fill:none;stroke:#000000;stroke-linecap:square;stroke-width:2;"/>
   </g>
   <g id="line2d_91">
    <path clip-path="url(#p7b3951789b)" d="M 226.406567 283.284991 
L 173.160788 336.530769 
" style="fill:none;stroke:#0000ff;stroke-linecap:square;"/>
   </g>
   <g id="line2d_92">
    <path clip-path="url(#p7b3951789b)" d="M 173.160788 230.039212 
L 119.915009 230.039212 
" style="fill:none;stroke:#000000;stroke-linecap:square;stroke-width:2;"/>
   </g>
   <g id="line2d_93">
    <path clip-path="url(#p7b3951789b)" d="M 119.915009 176.793433 
L 119.915009 230.039212 
" style="fill:none;stroke:#ff0000;stroke-linecap:square;"/>
   </g>
   <g id="line2d_94">
    <path clip-path="url(#p7b3951789b)" d="M 386.143902 17.056098 
L 332.898124 17.056098 
" style="fill:none;stroke:#000000;stroke-linecap:square;stroke-width:2;"/>
   </g>
   <g id="line2d_95">
    <path clip-path="url(#p7b3951789b)" d="M 173.160788 17.056098 
L 119.915009 17.056098 
" style="fill:none;stroke:#000000;stroke-linecap:square;stroke-width:2;"/>
   </g>
   <g id="line2d_96">
    <path clip-path="url(#p7b3951789b)" d="M 119.915009 17.056098 
L 119.915009 70.301876 
" style="fill:none;stroke:#ff0000;stroke-linecap:square;"/>
   </g>
   <g id="line2d_97">
    <path clip-path="url(#p7b3951789b)" d="M 66.669231 123.547655 
L 119.915009 70.301876 
" style="fill:none;stroke:#0000ff;stroke-linecap:square;"/>
   </g>
   <g id="line2d_98">
    <path clip-path="url(#p7b3951789b)" d="M 66.669231 123.547655 
L 66.669231 176.793433 
" style="fill:none;stroke:#000000;stroke-linecap:square;stroke-width:2;"/>
   </g>
   <g id="line2d_99">
    <path clip-path="url(#p7b3951789b)" d="M 119.915009 176.793433 
L 66.669231 176.793433 
" style="fill:none;stroke:#ff0000;stroke-linecap:square;"/>
   </g>
   <g id="line2d_100">
    <path clip-path="url(#p7b3951789b)" d="M 386.143902 283.284991 
L 386.143902 336.530769 
" style="fill:none;stroke:#000000;stroke-linecap:square;stroke-width:2;"/>
   </g>
   <g id="line2d_101">
    <path clip-path="url(#p7b3951789b)" d="M 386.143902 336.530769 
L 332.898124 283.284991 
" style="fill:none;stroke:#0000ff;stroke-linecap:square;"/>
   </g>
   <g id="line2d_102">
    <path clip-path="url(#p7b3951789b)" d="M 332.898124 336.530769 
L 279.652345 336.530769 
" style="fill:none;stroke:#000000;stroke-linecap:square;stroke-width:2;"/>
   </g>
   <g id="line2d_103">
    <path clip-path="url(#p7b3951789b)" d="M 332.898124 283.284991 
L 332.898124 336.530769 
" style="fill:none;stroke:#ff0000;stroke-linecap:square;"/>
   </g>
   <g id="line2d_104">
    <path clip-path="url(#p7b3951789b)" d="M 119.915009 283.284991 
L 173.160788 336.530769 
" style="fill:none;stroke:#0000ff;stroke-linecap:square;"/>
   </g>
   <g id="line2d_105">
    <path clip-path="url(#p7b3951789b)" d="M 226.406567 336.530769 
L 173.160788 336.530769 
" style="fill:none;stroke:#000000;stroke-linecap:square;stroke-width:2;"/>
   </g>
   <g id="line2d_106">
    <path clip-path="url(#p7b3951789b)" d="M 119.915009 230.039212 
L 119.915009 283.284991 
" style="fill:none;stroke:#ff0000;stroke-linecap:square;"/>
   </g>
   <g id="line2d_107">
    <path clip-path="url(#p7b3951789b)" d="M 119.915009 230.039212 
L 66.669231 230.039212 
" style="fill:none;stroke:#000000;stroke-linecap:square;stroke-width:2;"/>
   </g>
   <g id="line2d_108">
    <path clip-path="url(#p7b3951789b)" d="M 66.669231 230.039212 
L 119.915009 176.793433 
" style="fill:none;stroke:#0000ff;stroke-linecap:square;"/>
   </g>
   <g id="line2d_109">
    <path clip-path="url(#p7b3951789b)" d="M 119.915009 17.056098 
L 66.669231 17.056098 
" style="fill:none;stroke:#000000;stroke-linecap:square;stroke-width:2;"/>
   </g>
   <g id="line2d_110">
    <path clip-path="url(#p7b3951789b)" d="M 66.669231 17.056098 
L 119.915009 70.301876 
" style="fill:none;stroke:#0000ff;stroke-linecap:square;"/>
   </g>
   <g id="line2d_111">
    <path clip-path="url(#p7b3951789b)" d="M 66.669231 70.301876 
L 66.669231 123.547655 
" style="fill:none;stroke:#000000;stroke-linecap:square;stroke-width:2;"/>
   </g>
   <g id="line2d_112">
    <path clip-path="url(#p7b3951789b)" d="M 119.915009 70.301876 
L 66.669231 70.301876 
" style="fill:none;stroke:#ff0000;stroke-linecap:square;"/>
   </g>
   <g id="line2d_113">
    <path clip-path="url(#p7b3951789b)" d="M 386.143902 336.530769 
L 332.898124 336.530769 
" style="fill:none;stroke:#000000;stroke-linecap:square;stroke-width:2;"/>
   </g>
   <g id="line2d_114">
    <path clip-path="url(#p7b3951789b)" d="M 173.160788 336.530769 
L 119.915009 336.530769 
" style="fill:none;stroke:#000000;stroke-linecap:square;stroke-width:2;"/>
   </g>
   <g id="line2d_115">
    <path clip-path="url(#p7b3951789b)" d="M 119.915009 283.284991 
L 119.915009 336.530769 
" style="fill:none;stroke:#ff0000;stroke-linecap:square;"/>
   </g>
   <g id="line2d_116">
    <path clip-path="url(#p7b3951789b)" d="M 66.669231 230.039212 
L 119.915009 283.284991 
" style="fill:none;stroke:#0000ff;stroke-linecap:square;"/>
   </g>
   <g id="line2d_117">
    <path clip-path="url(#p7b3951789b)" d="M 66.669231 176.793433 
L 66.669231 230.039212 
" style="fill:none;stroke:#000000;stroke-linecap:square;stroke-width:2;"/>
   </g>
   <g id="line2d_118">
    <path clip-path="url(#p7b3951789b)" d="M 66.669231 17.056098 
L 66.669231 70.301876 
" style="fill:none;stroke:#000000;stroke-linecap:square;stroke-width:2;"/>
   </g>
   <g id="line2d_119">
    <path clip-path="url(#p7b3951789b)" d="M 119.915009 336.530769 
L 66.669231 336.530769 
" style="fill:none;stroke:#000000;stroke-linecap:square;stroke-width:2;"/>
   </g>
   <g id="line2d_120">
    <path clip-path="url(#p7b3951789b)" d="M 66.669231 336.530769 
L 119.915009 283.284991 
" style="fill:none;stroke:#0000ff;stroke-linecap:square;"/>
   </g>
   <g id="line2d_121">
    <path clip-path="url(#p7b3951789b)" d="M 66.669231 230.039212 
L 66.669231 283.284991 
" style="fill:none;stroke:#000000;stroke-linecap:square;stroke-width:2;"/>
   </g>
   <g id="line2d_122">
    <path clip-path="url(#p7b3951789b)" d="M 119.915009 283.284991 
L 66.669231 283.284991 
" style="fill:none;stroke:#ff0000;stroke-linecap:square;"/>
   </g>
   <g id="line2d_123">
    <path clip-path="url(#p7b3951789b)" d="M 66.669231 283.284991 
L 66.669231 336.530769 
" style="fill:none;stroke:#000000;stroke-linecap:square;stroke-width:2;"/>
   </g>
   <g id="matplotlib.axis_1"/>
   <g id="matplotlib.axis_2"/>
   <g id="patch_4">
    <path clip-path="url(#p7b3951789b)" d="M 226.406567 176.793433 
Q 173.160788 176.793433 122.151077 176.793433 
" style="fill:none;stroke:#000000;stroke-linecap:round;stroke-width:2;"/>
    <path clip-path="url(#p7b3951789b)" d="M 132.151077 181.793433 
L 122.151077 176.793433 
L 132.151077 171.793433 
L 132.151077 181.793433 
z
" style="stroke:#000000;stroke-linecap:round;stroke-width:2;"/>
   </g>
   <g id="patch_5">
    <path clip-path="url(#p7b3951789b)" d="M 226.406567 176.793433 
Q 253.029456 203.416323 278.071206 228.458073 
" style="fill:none;stroke:#0000ff;stroke-linecap:round;stroke-width:2;"/>
    <path clip-path="url(#p7b3951789b)" d="M 274.535672 217.851471 
L 278.071206 228.458073 
L 267.464605 224.922539 
L 274.535672 217.851471 
z
" style="fill:#0000ff;stroke:#0000ff;stroke-linecap:round;stroke-width:2;"/>
   </g>
   <g id="patch_6">
    <path clip-path="url(#p7b3951789b)" d="M 226.406567 176.793433 
Q 226.406567 123.547655 226.406567 72.537944 
" style="fill:none;stroke:#ff0000;stroke-linecap:round;stroke-width:2;"/>
    <path clip-path="url(#p7b3951789b)" d="M 221.406567 82.537944 
L 226.406567 72.537944 
L 231.406567 82.537944 
L 221.406567 82.537944 
z
" style="fill:#ff0000;stroke:#ff0000;stroke-linecap:round;stroke-width:2;"/>
   </g>
   <g id="patch_7">
    <path clip-path="url(#p7b3951789b)" d="M 226.406567 176.793433 
Q 199.783677 176.793433 175.396856 176.793433 
" style="fill:none;stroke:#000000;stroke-linecap:round;stroke-width:2;"/>
    <path clip-path="url(#p7b3951789b)" d="M 185.396856 181.793433 
L 175.396856 176.793433 
L 185.396856 171.793433 
L 185.396856 181.793433 
z
" style="stroke:#000000;stroke-linecap:round;stroke-width:2;"/>
   </g>
   <g id="patch_8">
    <path clip-path="url(#p7b3951789b)" d="M 226.406567 176.793433 
Q 253.029456 203.416323 278.071206 228.458073 
" style="fill:none;stroke:#0000ff;stroke-linecap:round;stroke-width:2;"/>
    <path clip-path="url(#p7b3951789b)" d="M 274.535672 217.851471 
L 278.071206 228.458073 
L 267.464605 224.922539 
L 274.535672 217.851471 
z
" style="fill:#0000ff;stroke:#0000ff;stroke-linecap:round;stroke-width:2;"/>
   </g>
   <g id="patch_9">
    <path clip-path="url(#p7b3951789b)" d="M 226.406567 176.793433 
Q 226.406567 150.170544 226.406567 125.783723 
" style="fill:none;stroke:#ff0000;stroke-linecap:round;stroke-width:2;"/>
    <path clip-path="url(#p7b3951789b)" d="M 221.406567 135.783723 
L 226.406567 125.783723 
L 231.406567 135.783723 
L 221.406567 135.783723 
z
" style="fill:#ff0000;stroke:#ff0000;stroke-linecap:round;stroke-width:2;"/>
   </g>
   <g id="patch_10">
    <path clip-path="url(#p7b3951789b)" d="M 226.406567 176.793433 
Q 253.029456 150.170544 278.071206 125.128794 
" style="fill:none;stroke:#ff0000;stroke-linecap:round;stroke-width:2;"/>
    <path clip-path="url(#p7b3951789b)" d="M 267.464605 128.664328 
L 278.071206 125.128794 
L 274.535672 135.735395 
L 267.464605 128.664328 
z
" style="fill:#ff0000;stroke:#ff0000;stroke-linecap:round;stroke-width:2;"/>
   </g>
   <g id="patch_11">
    <path clip-path="url(#p7b3951789b)" d="M 226.406567 176.793433 
Q 253.029456 176.793433 277.416277 176.793433 
" style="fill:none;stroke:#0000ff;stroke-linecap:round;stroke-width:2;"/>
    <path clip-path="url(#p7b3951789b)" d="M 267.416277 171.793433 
L 277.416277 176.793433 
L 267.416277 181.793433 
L 267.416277 171.793433 
z
" style="fill:#0000ff;stroke:#0000ff;stroke-linecap:round;stroke-width:2;"/>
   </g>
   <g id="text_1">
    <!-- $\alpha_{0}$ -->
    <defs>
     <path d="M 20.125 -1.125 
Q 15.375 -1.125 11.6875 1.125 
Q 8.015625 3.375 6 7.171875 
Q 4 10.984375 4 15.828125 
Q 4 22.609375 7.78125 29.25 
Q 11.578125 35.890625 17.84375 40.03125 
Q 24.125 44.1875 31 44.1875 
Q 36.078125 44.1875 39.9375 41.53125 
Q 43.796875 38.875 45.796875 34.453125 
Q 47.796875 30.03125 47.796875 25 
L 47.90625 18.3125 
Q 51.3125 23.046875 53.6875 28.140625 
Q 56.0625 33.25 57.328125 38.71875 
Q 57.515625 39.3125 58.109375 39.3125 
L 59.28125 39.3125 
Q 60.203125 39.3125 60.203125 38.375 
Q 60.203125 38.28125 60.109375 38.09375 
Q 58.9375 33.5 57.171875 29.265625 
Q 55.421875 25.046875 53.046875 21.09375 
Q 50.6875 17.140625 47.90625 13.921875 
Q 47.90625 1.515625 50.78125 1.515625 
Q 52.640625 1.515625 53.828125 2.609375 
Q 55.03125 3.71875 55.9375 5.328125 
Q 56.84375 6.9375 57.078125 6.984375 
L 58.296875 6.984375 
Q 59.078125 6.984375 59.078125 6 
Q 59.078125 3.515625 56.21875 1.1875 
Q 53.375 -1.125 50.59375 -1.125 
Q 46.96875 -1.125 44.578125 1.21875 
Q 42.1875 3.5625 41.3125 7.328125 
Q 36.625 3.328125 31.15625 1.09375 
Q 25.6875 -1.125 20.125 -1.125 
z
M 20.3125 1.515625 
Q 31 1.515625 40.828125 10.296875 
Q 40.765625 10.890625 40.671875 11.734375 
Q 40.578125 12.59375 40.578125 12.703125 
L 40.578125 23.484375 
Q 40.578125 41.609375 30.8125 41.609375 
Q 24.953125 41.609375 20.546875 36.59375 
Q 16.15625 31.59375 13.9375 24.625 
Q 11.71875 17.671875 11.71875 11.921875 
Q 11.71875 7.5625 13.9375 4.53125 
Q 16.15625 1.515625 20.3125 1.515625 
z
" id="Cmmi10-ae"/>
     <path d="M 25 -2.203125 
Q 12.75 -2.203125 8.328125 7.875 
Q 3.90625 17.96875 3.90625 31.890625 
Q 3.90625 40.578125 5.484375 48.234375 
Q 7.078125 55.90625 11.78125 61.25 
Q 16.5 66.609375 25 66.609375 
Q 31.59375 66.609375 35.78125 63.375 
Q 39.984375 60.15625 42.1875 55.046875 
Q 44.390625 49.953125 45.1875 44.109375 
Q 46 38.28125 46 31.890625 
Q 46 23.296875 44.40625 15.796875 
Q 42.828125 8.296875 38.1875 3.046875 
Q 33.546875 -2.203125 25 -2.203125 
z
M 25 0.390625 
Q 30.5625 0.390625 33.296875 6.09375 
Q 36.03125 11.8125 36.671875 18.75 
Q 37.3125 25.6875 37.3125 33.5 
Q 37.3125 41.015625 36.671875 47.359375 
Q 36.03125 53.71875 33.3125 58.859375 
Q 30.609375 64.015625 25 64.015625 
Q 19.34375 64.015625 16.609375 58.828125 
Q 13.875 53.65625 13.234375 47.328125 
Q 12.59375 41.015625 12.59375 33.5 
Q 12.59375 27.9375 12.859375 23 
Q 13.140625 18.0625 14.3125 12.8125 
Q 15.484375 7.5625 18.09375 3.96875 
Q 20.703125 0.390625 25 0.390625 
z
" id="Cmr10-30"/>
    </defs>
    <g transform="translate(106.640432 180.932496)scale(0.15 -0.15)">
     <use transform="translate(0 0.8125)" xlink:href="#Cmmi10-ae"/>
     <use transform="translate(63.916016 -16.19375)scale(0.7)" xlink:href="#Cmr10-30"/>
    </g>
   </g>
   <g id="text_2">
    <!-- $\alpha_{1}$ -->
    <defs>
     <path d="M 9.28125 0 
L 9.28125 3.515625 
Q 21.78125 3.515625 21.78125 6.6875 
L 21.78125 59.1875 
Q 16.609375 56.6875 8.6875 56.6875 
L 8.6875 60.203125 
Q 20.953125 60.203125 27.203125 66.609375 
L 28.609375 66.609375 
Q 28.953125 66.609375 29.265625 66.328125 
Q 29.59375 66.0625 29.59375 65.71875 
L 29.59375 6.6875 
Q 29.59375 3.515625 42.09375 3.515625 
L 42.09375 0 
z
" id="Cmr10-31"/>
    </defs>
    <g transform="translate(274.364634 236.840563)scale(0.15 -0.15)">
     <use transform="translate(0 0.8125)" xlink:href="#Cmmi10-ae"/>
     <use transform="translate(63.916016 -16.19375)scale(0.7)" xlink:href="#Cmr10-31"/>
    </g>
   </g>
   <g id="text_3">
    <!-- $\alpha_{2}$ -->
    <defs>
     <path d="M 4.984375 0 
L 4.984375 2.6875 
Q 4.984375 2.9375 5.171875 3.21875 
L 20.703125 20.40625 
Q 24.21875 24.21875 26.40625 26.796875 
Q 28.609375 29.390625 30.75 32.765625 
Q 32.90625 36.140625 34.15625 39.625 
Q 35.40625 43.109375 35.40625 47.015625 
Q 35.40625 51.125 33.890625 54.859375 
Q 32.375 58.59375 29.375 60.84375 
Q 26.375 63.09375 22.125 63.09375 
Q 17.78125 63.09375 14.3125 60.46875 
Q 10.84375 57.859375 9.421875 53.71875 
Q 9.8125 53.8125 10.5 53.8125 
Q 12.75 53.8125 14.328125 52.296875 
Q 15.921875 50.78125 15.921875 48.390625 
Q 15.921875 46.09375 14.328125 44.5 
Q 12.75 42.921875 10.5 42.921875 
Q 8.15625 42.921875 6.5625 44.546875 
Q 4.984375 46.1875 4.984375 48.390625 
Q 4.984375 52.15625 6.390625 55.4375 
Q 7.8125 58.734375 10.46875 61.296875 
Q 13.140625 63.875 16.484375 65.234375 
Q 19.828125 66.609375 23.578125 66.609375 
Q 29.296875 66.609375 34.21875 64.1875 
Q 39.15625 61.765625 42.03125 57.34375 
Q 44.921875 52.9375 44.921875 47.015625 
Q 44.921875 42.671875 43.015625 38.765625 
Q 41.109375 34.859375 38.125 31.65625 
Q 35.15625 28.46875 30.515625 24.40625 
Q 25.875 20.359375 24.421875 19 
L 13.09375 8.109375 
L 22.703125 8.109375 
Q 29.78125 8.109375 34.546875 8.21875 
Q 39.3125 8.34375 39.59375 8.59375 
Q 40.765625 9.859375 42 17.828125 
L 44.921875 17.828125 
L 42.09375 0 
z
" id="Cmr10-32"/>
    </defs>
    <g transform="translate(218.456567 69.116361)scale(0.15 -0.15)">
     <use transform="translate(0 0.8125)" xlink:href="#Cmmi10-ae"/>
     <use transform="translate(63.916016 -16.19375)scale(0.7)" xlink:href="#Cmr10-32"/>
    </g>
   </g>
   <g id="text_4">
    <!-- $\alpha^\vee_{0}$ -->
    <defs>
     <path d="M 31.5 -0.984375 
L 5.8125 57.078125 
Q 5.609375 57.328125 5.609375 57.8125 
Q 5.609375 58.546875 6.1875 59.171875 
Q 6.78125 59.8125 7.625 59.8125 
Q 8.734375 59.8125 9.515625 58.59375 
L 33.296875 4.6875 
L 57.171875 58.59375 
Q 57.765625 59.8125 58.984375 59.8125 
Q 59.8125 59.8125 60.390625 59.21875 
Q 60.984375 58.640625 60.984375 57.8125 
Q 60.984375 57.328125 60.890625 57.078125 
L 35.203125 -0.984375 
Q 34.578125 -2.203125 33.296875 -2.203125 
Q 31.984375 -2.203125 31.5 -0.984375 
z
" id="Cmsy10-5f"/>
    </defs>
    <g transform="translate(159.398499 180.768433)scale(0.15 -0.15)">
     <use transform="translate(0 0.867188)" xlink:href="#Cmmi10-ae"/>
     <use transform="translate(82.510312 39.13125)scale(0.7)" xlink:href="#Cmsy10-5f"/>
     <use transform="translate(63.916016 -24.642188)scale(0.7)" xlink:href="#Cmr10-30"/>
    </g>
   </g>
   <g id="text_5">
    <!-- $\alpha^\vee_{1}$ -->
    <g transform="translate(271.214634 236.826501)scale(0.15 -0.15)">
     <use transform="translate(0 0.867188)" xlink:href="#Cmmi10-ae"/>
     <use transform="translate(82.510312 39.13125)scale(0.7)" xlink:href="#Cmsy10-5f"/>
     <use transform="translate(63.916016 -24.642188)scale(0.7)" xlink:href="#Cmr10-31"/>
    </g>
   </g>
   <g id="text_6">
    <!-- $\alpha^\vee_{2}$ -->
    <g transform="translate(215.306567 125.010366)scale(0.15 -0.15)">
     <use transform="translate(0 0.867188)" xlink:href="#Cmmi10-ae"/>
     <use transform="translate(82.510312 39.13125)scale(0.7)" xlink:href="#Cmsy10-5f"/>
     <use transform="translate(63.916016 -24.642188)scale(0.7)" xlink:href="#Cmr10-32"/>
    </g>
   </g>
   <g id="text_7">
    <!-- $\Lambda_{2}$ -->
    <defs>
     <path d="M 3.21875 0 
L 3.21875 3.515625 
Q 11.03125 3.515625 12.984375 9.421875 
L 32.515625 70.515625 
Q 32.859375 71.578125 33.984375 71.578125 
L 35.296875 71.578125 
Q 35.84375 71.578125 36.25 71.28125 
Q 36.671875 71 36.8125 70.515625 
L 57.171875 6.6875 
Q 58.0625 4.546875 60.296875 4.03125 
Q 62.546875 3.515625 66.109375 3.515625 
L 66.109375 0 
L 39.015625 0 
L 39.015625 3.515625 
Q 47.515625 3.515625 47.515625 6.203125 
Q 47.515625 6.5 47.40625 6.6875 
L 31.59375 56.296875 
L 16.703125 9.421875 
Q 16.5 8.734375 16.5 8.40625 
Q 16.5 5.90625 18.96875 4.703125 
Q 21.4375 3.515625 24.21875 3.515625 
L 24.21875 0 
z
" id="Cmr10-a4"/>
    </defs>
    <g transform="translate(273.614634 125.024428)scale(0.15 -0.15)">
     <use transform="translate(0 0.421875)" xlink:href="#Cmr10-a4"/>
     <use transform="translate(73.848906 -16.584375)scale(0.7)" xlink:href="#Cmr10-32"/>
    </g>
   </g>
   <g id="text_8">
    <!-- $\Lambda_{1}$ -->
    <g transform="translate(273.614634 180.932496)scale(0.15 -0.15)">
     <use transform="translate(0 0.421875)" xlink:href="#Cmr10-a4"/>
     <use transform="translate(73.848906 -16.584375)scale(0.7)" xlink:href="#Cmr10-31"/>
    </g>
   </g>
   <g id="text_9">
    <!-- $\Lambda_{0}$ -->
    <g transform="translate(217.706567 180.932496)scale(0.15 -0.15)">
     <use transform="translate(0 0.421875)" xlink:href="#Cmr10-a4"/>
     <use transform="translate(73.848906 -16.584375)scale(0.7)" xlink:href="#Cmr10-30"/>
    </g>
   </g>
   <g id="text_10">
    <!-- $H_{\alpha^\vee_{0}}$ -->
    <defs>
     <path d="M 4.6875 0 
Q 3.71875 0 3.71875 1.3125 
Q 3.765625 1.5625 3.90625 2.171875 
Q 4.046875 2.78125 4.3125 3.140625 
Q 4.59375 3.515625 4.984375 3.515625 
Q 11.078125 3.515625 13.484375 4.203125 
Q 14.796875 4.640625 15.375 6.890625 
L 29.109375 61.8125 
Q 29.296875 62.796875 29.296875 63.1875 
Q 29.296875 64.265625 28.078125 64.40625 
Q 26.21875 64.796875 20.90625 64.796875 
Q 19.921875 64.796875 19.921875 66.109375 
Q 20.265625 67.390625 20.453125 67.84375 
Q 20.65625 68.3125 21.578125 68.3125 
L 48.484375 68.3125 
Q 49.515625 68.3125 49.515625 67 
Q 49.46875 66.75 49.3125 66.15625 
Q 49.171875 65.578125 48.921875 65.1875 
Q 48.6875 64.796875 48.1875 64.796875 
Q 42.09375 64.796875 39.703125 64.109375 
Q 38.375 63.625 37.796875 61.375 
L 31.78125 37.3125 
L 61.8125 37.3125 
L 67.921875 61.8125 
Q 68.109375 62.796875 68.109375 63.1875 
Q 68.109375 64.265625 66.890625 64.40625 
Q 64.984375 64.796875 59.71875 64.796875 
Q 58.6875 64.796875 58.6875 66.109375 
Q 59.03125 67.390625 59.21875 67.84375 
Q 59.421875 68.3125 60.40625 68.3125 
L 87.3125 68.3125 
Q 88.28125 68.3125 88.28125 67 
Q 88.234375 66.75 88.078125 66.140625 
Q 87.9375 65.53125 87.671875 65.15625 
Q 87.40625 64.796875 87.015625 64.796875 
Q 80.90625 64.796875 78.515625 64.109375 
Q 77.203125 63.671875 76.609375 61.375 
L 62.890625 6.5 
Q 62.703125 5.515625 62.703125 5.078125 
Q 62.703125 4.046875 63.921875 3.90625 
Q 65.828125 3.515625 71.09375 3.515625 
Q 72.125 3.515625 72.125 2.203125 
Q 71.828125 1.03125 71.53125 0.515625 
Q 71.234375 0 70.40625 0 
L 43.5 0 
Q 42.484375 0 42.484375 1.3125 
Q 42.671875 2.046875 42.765625 2.390625 
Q 42.875 2.734375 43.140625 3.125 
Q 43.40625 3.515625 43.796875 3.515625 
Q 49.90625 3.515625 52.296875 4.203125 
Q 53.609375 4.640625 54.203125 6.890625 
L 60.890625 33.796875 
L 30.90625 33.796875 
L 24.125 6.5 
Q 23.875 5.28125 23.875 5.078125 
Q 23.875 4.046875 25.09375 3.90625 
Q 27 3.515625 32.328125 3.515625 
Q 33.296875 3.515625 33.296875 2.203125 
Q 32.953125 0.875 32.734375 0.4375 
Q 32.515625 0 31.59375 0 
z
" id="Cmmi10-48"/>
    </defs>
    <g transform="translate(267.839634 11.544231)scale(0.15 -0.15)">
     <use transform="translate(0 0.6875)" xlink:href="#Cmmi10-48"/>
     <use transform="translate(83.105469 -16.31875)scale(0.7)" xlink:href="#Cmmi10-ae"/>
     <use transform="translate(140.862688 10.466094)scale(0.49)" xlink:href="#Cmsy10-5f"/>
     <use transform="translate(127.84668 -34.175313)scale(0.49)" xlink:href="#Cmr10-30"/>
    </g>
   </g>
   <g id="text_11">
    <!-- $H_{\alpha^\vee_{1}}$ -->
    <g transform="translate(379.655769 11.619231)scale(0.15 -0.15)">
     <use transform="translate(0 0.6875)" xlink:href="#Cmmi10-48"/>
     <use transform="translate(83.105469 -16.31875)scale(0.7)" xlink:href="#Cmmi10-ae"/>
     <use transform="translate(140.862688 10.466094)scale(0.49)" xlink:href="#Cmsy10-5f"/>
     <use transform="translate(127.84668 -34.175313)scale(0.49)" xlink:href="#Cmr10-31"/>
    </g>
   </g>
   <g id="text_12">
    <!-- $H_{\alpha^\vee_{2}}$ -->
    <g transform="translate(379.655769 179.343433)scale(0.15 -0.15)">
     <use transform="translate(0 0.6875)" xlink:href="#Cmmi10-48"/>
     <use transform="translate(83.105469 -16.31875)scale(0.7)" xlink:href="#Cmmi10-ae"/>
     <use transform="translate(140.862688 10.466094)scale(0.49)" xlink:href="#Cmsy10-5f"/>
     <use transform="translate(127.84668 -34.175313)scale(0.49)" xlink:href="#Cmr10-32"/>
    </g>
   </g>
   <g id="text_13">
    <!-- $1$ -->
    <g transform="translate(258.153752 163.183903)scale(0.15 -0.15)">
     <use transform="translate(0 0.390625)" xlink:href="#Cmr10-31"/>
    </g>
   </g>
   <g id="text_14">
    <!-- $s_{0}$ -->
    <defs>
     <path d="M 8.6875 6.109375 
Q 11.375 1.515625 19.484375 1.515625 
Q 23 1.515625 26.171875 2.703125 
Q 29.34375 3.90625 31.421875 6.296875 
Q 33.5 8.6875 33.5 12.109375 
Q 33.5 14.703125 31.640625 16.359375 
Q 29.78125 18.015625 27.09375 18.609375 
L 21.6875 19.671875 
Q 17.96875 20.609375 15.578125 23.140625 
Q 13.1875 25.6875 13.1875 29.296875 
Q 13.1875 33.734375 15.59375 37.15625 
Q 18.015625 40.578125 21.96875 42.375 
Q 25.921875 44.1875 30.171875 44.1875 
Q 34.71875 44.1875 38.296875 42.015625 
Q 41.890625 39.84375 41.890625 35.59375 
Q 41.890625 33.296875 40.59375 31.53125 
Q 39.3125 29.78125 37.015625 29.78125 
Q 35.6875 29.78125 34.734375 30.640625 
Q 33.796875 31.5 33.796875 32.8125 
Q 33.796875 33.984375 34.453125 35.078125 
Q 35.109375 36.1875 36.203125 36.84375 
Q 37.3125 37.5 38.484375 37.5 
Q 37.59375 39.65625 35.171875 40.625 
Q 32.765625 41.609375 29.984375 41.609375 
Q 27.4375 41.609375 24.890625 40.578125 
Q 22.359375 39.546875 20.8125 37.5625 
Q 19.28125 35.59375 19.28125 32.90625 
Q 19.28125 31.109375 20.546875 29.734375 
Q 21.828125 28.375 23.6875 27.78125 
L 29.5 26.609375 
Q 32.28125 26.03125 34.59375 24.53125 
Q 36.921875 23.046875 38.25 20.765625 
Q 39.59375 18.5 39.59375 15.578125 
Q 39.59375 11.859375 37.515625 8.25 
Q 35.453125 4.640625 32.421875 2.484375 
Q 27.09375 -1.125 19.390625 -1.125 
Q 14.0625 -1.125 9.609375 1.3125 
Q 5.171875 3.765625 5.171875 8.59375 
Q 5.171875 11.328125 6.75 13.34375 
Q 8.34375 15.375 11.078125 15.375 
Q 12.703125 15.375 13.796875 14.390625 
Q 14.890625 13.421875 14.890625 11.8125 
Q 14.890625 9.515625 13.171875 7.8125 
Q 11.46875 6.109375 9.1875 6.109375 
z
" id="Cmmi10-73"/>
    </defs>
    <g transform="translate(290.725938 163.183903)scale(0.15 -0.15)">
     <use transform="translate(0 0.8125)" xlink:href="#Cmmi10-73"/>
     <use transform="translate(46.777344 -16.19375)scale(0.7)" xlink:href="#Cmr10-30"/>
    </g>
   </g>
   <g id="text_15">
    <!-- $s_{1}$ -->
    <g transform="translate(237.480159 145.43531)scale(0.15 -0.15)">
     <use transform="translate(0 0.8125)" xlink:href="#Cmmi10-73"/>
     <use transform="translate(46.777344 -16.19375)scale(0.7)" xlink:href="#Cmr10-31"/>
    </g>
   </g>
   <g id="text_16">
    <!-- $s_{2}$ -->
    <g transform="translate(255.228752 198.681089)scale(0.15 -0.15)">
     <use transform="translate(0 0.8125)" xlink:href="#Cmmi10-73"/>
     <use transform="translate(46.777344 -16.19375)scale(0.7)" xlink:href="#Cmr10-32"/>
    </g>
   </g>
   <g id="text_17">
    <!-- $s_{01}$ -->
    <g transform="translate(305.849531 145.43531)scale(0.15 -0.15)">
     <use transform="translate(0 0.8125)" xlink:href="#Cmmi10-73"/>
     <use transform="translate(46.777344 -16.19375)scale(0.7)" xlink:href="#Cmr10-30"/>
     <use transform="translate(81.777344 -16.19375)scale(0.7)" xlink:href="#Cmr10-31"/>
    </g>
   </g>
   <g id="text_18">
    <!-- $s_{10}$ -->
    <g transform="translate(234.855159 109.938124)scale(0.15 -0.15)">
     <use transform="translate(0 0.8125)" xlink:href="#Cmmi10-73"/>
     <use transform="translate(46.777344 -16.19375)scale(0.7)" xlink:href="#Cmr10-31"/>
     <use transform="translate(81.777344 -16.19375)scale(0.7)" xlink:href="#Cmr10-30"/>
    </g>
   </g>
   <g id="text_19">
    <!-- $s_{12}$ -->
    <g transform="translate(199.357974 145.43531)scale(0.15 -0.15)">
     <use transform="translate(0 0.8125)" xlink:href="#Cmmi10-73"/>
     <use transform="translate(46.777344 -16.19375)scale(0.7)" xlink:href="#Cmr10-31"/>
     <use transform="translate(81.777344 -16.19375)scale(0.7)" xlink:href="#Cmr10-32"/>
    </g>
   </g>
   <g id="text_20">
    <!-- $s_{20}$ -->
    <g transform="translate(288.100938 198.681089)scale(0.15 -0.15)">
     <use transform="translate(0 0.8125)" xlink:href="#Cmmi10-73"/>
     <use transform="translate(46.777344 -16.19375)scale(0.7)" xlink:href="#Cmr10-32"/>
     <use transform="translate(81.777344 -16.19375)scale(0.7)" xlink:href="#Cmr10-30"/>
    </g>
   </g>
   <g id="text_21">
    <!-- $s_{21}$ -->
    <g transform="translate(234.855159 216.429682)scale(0.15 -0.15)">
     <use transform="translate(0 0.8125)" xlink:href="#Cmmi10-73"/>
     <use transform="translate(46.777344 -16.19375)scale(0.7)" xlink:href="#Cmr10-32"/>
     <use transform="translate(81.777344 -16.19375)scale(0.7)" xlink:href="#Cmr10-31"/>
    </g>
   </g>
   <g id="text_22">
    <!-- $s_{010}$ -->
    <g transform="translate(303.224531 109.938124)scale(0.15 -0.15)">
     <use transform="translate(0 0.8125)" xlink:href="#Cmmi10-73"/>
     <use transform="translate(46.777344 -16.19375)scale(0.7)" xlink:href="#Cmr10-30"/>
     <use transform="translate(81.777344 -16.19375)scale(0.7)" xlink:href="#Cmr10-31"/>
     <use transform="translate(116.777344 -16.19375)scale(0.7)" xlink:href="#Cmr10-30"/>
    </g>
   </g>
   <g id="text_23">
    <!-- $s_{012}$ -->
    <g transform="translate(338.721717 145.43531)scale(0.15 -0.15)">
     <use transform="translate(0 0.8125)" xlink:href="#Cmmi10-73"/>
     <use transform="translate(46.777344 -16.19375)scale(0.7)" xlink:href="#Cmr10-30"/>
     <use transform="translate(81.777344 -16.19375)scale(0.7)" xlink:href="#Cmr10-31"/>
     <use transform="translate(116.777344 -16.19375)scale(0.7)" xlink:href="#Cmr10-32"/>
    </g>
   </g>
   <g id="text_24">
    <!-- $s_{101}$ -->
    <g transform="translate(249.978752 92.189532)scale(0.15 -0.15)">
     <use transform="translate(0 0.8125)" xlink:href="#Cmmi10-73"/>
     <use transform="translate(46.777344 -16.19375)scale(0.7)" xlink:href="#Cmr10-31"/>
     <use transform="translate(81.777344 -16.19375)scale(0.7)" xlink:href="#Cmr10-30"/>
     <use transform="translate(116.777344 -16.19375)scale(0.7)" xlink:href="#Cmr10-31"/>
    </g>
   </g>
   <g id="text_25">
    <!-- $s_{120}$ -->
    <g transform="translate(196.732974 109.938124)scale(0.15 -0.15)">
     <use transform="translate(0 0.8125)" xlink:href="#Cmmi10-73"/>
     <use transform="translate(46.777344 -16.19375)scale(0.7)" xlink:href="#Cmr10-31"/>
     <use transform="translate(81.777344 -16.19375)scale(0.7)" xlink:href="#Cmr10-32"/>
     <use transform="translate(116.777344 -16.19375)scale(0.7)" xlink:href="#Cmr10-30"/>
    </g>
   </g>
   <g id="text_26">
    <!-- $s_{121}$ -->
    <g transform="translate(178.984381 163.183903)scale(0.15 -0.15)">
     <use transform="translate(0 0.8125)" xlink:href="#Cmmi10-73"/>
     <use transform="translate(46.777344 -16.19375)scale(0.7)" xlink:href="#Cmr10-31"/>
     <use transform="translate(81.777344 -16.19375)scale(0.7)" xlink:href="#Cmr10-32"/>
     <use transform="translate(116.777344 -16.19375)scale(0.7)" xlink:href="#Cmr10-31"/>
    </g>
   </g>
   <g id="text_27">
    <!-- $s_{201}$ -->
    <g transform="translate(303.224531 216.429682)scale(0.15 -0.15)">
     <use transform="translate(0 0.8125)" xlink:href="#Cmmi10-73"/>
     <use transform="translate(46.777344 -16.19375)scale(0.7)" xlink:href="#Cmr10-32"/>
     <use transform="translate(81.777344 -16.19375)scale(0.7)" xlink:href="#Cmr10-30"/>
     <use transform="translate(116.777344 -16.19375)scale(0.7)" xlink:href="#Cmr10-31"/>
    </g>
   </g>
   <g id="text_28">
    <!-- $s_{210}$ -->
    <g transform="translate(232.230159 251.926867)scale(0.15 -0.15)">
     <use transform="translate(0 0.8125)" xlink:href="#Cmmi10-73"/>
     <use transform="translate(46.777344 -16.19375)scale(0.7)" xlink:href="#Cmr10-32"/>
     <use transform="translate(81.777344 -16.19375)scale(0.7)" xlink:href="#Cmr10-31"/>
     <use transform="translate(116.777344 -16.19375)scale(0.7)" xlink:href="#Cmr10-30"/>
    </g>
   </g>
   <g id="text_29">
    <!-- $s_{212}$ -->
    <g transform="translate(196.732974 216.429682)scale(0.15 -0.15)">
     <use transform="translate(0 0.8125)" xlink:href="#Cmmi10-73"/>
     <use transform="translate(46.777344 -16.19375)scale(0.7)" xlink:href="#Cmr10-32"/>
     <use transform="translate(81.777344 -16.19375)scale(0.7)" xlink:href="#Cmr10-31"/>
     <use transform="translate(116.777344 -16.19375)scale(0.7)" xlink:href="#Cmr10-32"/>
    </g>
   </g>
   <g id="text_30">
    <!-- $s_{0120}$ -->
    <g transform="translate(336.096717 109.938124)scale(0.15 -0.15)">
     <use transform="translate(0 0.8125)" xlink:href="#Cmmi10-73"/>
     <use transform="translate(46.777344 -16.19375)scale(0.7)" xlink:href="#Cmr10-30"/>
     <use transform="translate(81.777344 -16.19375)scale(0.7)" xlink:href="#Cmr10-31"/>
     <use transform="translate(116.777344 -16.19375)scale(0.7)" xlink:href="#Cmr10-32"/>
     <use transform="translate(151.777344 -16.19375)scale(0.7)" xlink:href="#Cmr10-30"/>
    </g>
   </g>
   <g id="text_31">
    <!-- $s_{0121}$ -->
    <g transform="translate(353.84531 163.183903)scale(0.15 -0.15)">
     <use transform="translate(0 0.8125)" xlink:href="#Cmmi10-73"/>
     <use transform="translate(46.777344 -16.19375)scale(0.7)" xlink:href="#Cmr10-30"/>
     <use transform="translate(81.777344 -16.19375)scale(0.7)" xlink:href="#Cmr10-31"/>
     <use transform="translate(116.777344 -16.19375)scale(0.7)" xlink:href="#Cmr10-32"/>
     <use transform="translate(151.777344 -16.19375)scale(0.7)" xlink:href="#Cmr10-31"/>
    </g>
   </g>
   <g id="text_32">
    <!-- $s_{1010}$ -->
    <g transform="translate(282.850938 92.189532)scale(0.15 -0.15)">
     <use transform="translate(0 0.8125)" xlink:href="#Cmmi10-73"/>
     <use transform="translate(46.777344 -16.19375)scale(0.7)" xlink:href="#Cmr10-31"/>
     <use transform="translate(81.777344 -16.19375)scale(0.7)" xlink:href="#Cmr10-30"/>
     <use transform="translate(116.777344 -16.19375)scale(0.7)" xlink:href="#Cmr10-31"/>
     <use transform="translate(151.777344 -16.19375)scale(0.7)" xlink:href="#Cmr10-30"/>
    </g>
   </g>
   <g id="text_33">
    <!-- $s_{1012}$ -->
    <g transform="translate(247.353752 56.692346)scale(0.15 -0.15)">
     <use transform="translate(0 0.8125)" xlink:href="#Cmmi10-73"/>
     <use transform="translate(46.777344 -16.19375)scale(0.7)" xlink:href="#Cmr10-31"/>
     <use transform="translate(81.777344 -16.19375)scale(0.7)" xlink:href="#Cmr10-30"/>
     <use transform="translate(116.777344 -16.19375)scale(0.7)" xlink:href="#Cmr10-31"/>
     <use transform="translate(151.777344 -16.19375)scale(0.7)" xlink:href="#Cmr10-32"/>
    </g>
   </g>
   <g id="text_34">
    <!-- $s_{1201}$ -->
    <g transform="translate(176.359381 92.189532)scale(0.15 -0.15)">
     <use transform="translate(0 0.8125)" xlink:href="#Cmmi10-73"/>
     <use transform="translate(46.777344 -16.19375)scale(0.7)" xlink:href="#Cmr10-31"/>
     <use transform="translate(81.777344 -16.19375)scale(0.7)" xlink:href="#Cmr10-32"/>
     <use transform="translate(116.777344 -16.19375)scale(0.7)" xlink:href="#Cmr10-30"/>
     <use transform="translate(151.777344 -16.19375)scale(0.7)" xlink:href="#Cmr10-31"/>
    </g>
   </g>
   <g id="text_35">
    <!-- $s_{1210}$ -->
    <g transform="translate(140.862195 163.183903)scale(0.15 -0.15)">
     <use transform="translate(0 0.8125)" xlink:href="#Cmmi10-73"/>
     <use transform="translate(46.777344 -16.19375)scale(0.7)" xlink:href="#Cmr10-31"/>
     <use transform="translate(81.777344 -16.19375)scale(0.7)" xlink:href="#Cmr10-32"/>
     <use transform="translate(116.777344 -16.19375)scale(0.7)" xlink:href="#Cmr10-31"/>
     <use transform="translate(151.777344 -16.19375)scale(0.7)" xlink:href="#Cmr10-30"/>
    </g>
   </g>
   <g id="text_36">
    <!-- $s_{2010}$ -->
    <g transform="translate(300.599531 251.926867)scale(0.15 -0.15)">
     <use transform="translate(0 0.8125)" xlink:href="#Cmmi10-73"/>
     <use transform="translate(46.777344 -16.19375)scale(0.7)" xlink:href="#Cmr10-32"/>
     <use transform="translate(81.777344 -16.19375)scale(0.7)" xlink:href="#Cmr10-30"/>
     <use transform="translate(116.777344 -16.19375)scale(0.7)" xlink:href="#Cmr10-31"/>
     <use transform="translate(151.777344 -16.19375)scale(0.7)" xlink:href="#Cmr10-30"/>
    </g>
   </g>
   <g id="text_37">
    <!-- $s_{2012}$ -->
    <g transform="translate(336.096717 216.429682)scale(0.15 -0.15)">
     <use transform="translate(0 0.8125)" xlink:href="#Cmmi10-73"/>
     <use transform="translate(46.777344 -16.19375)scale(0.7)" xlink:href="#Cmr10-32"/>
     <use transform="translate(81.777344 -16.19375)scale(0.7)" xlink:href="#Cmr10-30"/>
     <use transform="translate(116.777344 -16.19375)scale(0.7)" xlink:href="#Cmr10-31"/>
     <use transform="translate(151.777344 -16.19375)scale(0.7)" xlink:href="#Cmr10-32"/>
    </g>
   </g>
   <g id="text_38">
    <!-- $s_{2101}$ -->
    <g transform="translate(247.353752 269.67546)scale(0.15 -0.15)">
     <use transform="translate(0 0.8125)" xlink:href="#Cmmi10-73"/>
     <use transform="translate(46.777344 -16.19375)scale(0.7)" xlink:href="#Cmr10-32"/>
     <use transform="translate(81.777344 -16.19375)scale(0.7)" xlink:href="#Cmr10-31"/>
     <use transform="translate(116.777344 -16.19375)scale(0.7)" xlink:href="#Cmr10-30"/>
     <use transform="translate(151.777344 -16.19375)scale(0.7)" xlink:href="#Cmr10-31"/>
    </g>
   </g>
   <g id="text_39">
    <!-- $s_{2120}$ -->
    <g transform="translate(194.107974 251.926867)scale(0.15 -0.15)">
     <use transform="translate(0 0.8125)" xlink:href="#Cmmi10-73"/>
     <use transform="translate(46.777344 -16.19375)scale(0.7)" xlink:href="#Cmr10-32"/>
     <use transform="translate(81.777344 -16.19375)scale(0.7)" xlink:href="#Cmr10-31"/>
     <use transform="translate(116.777344 -16.19375)scale(0.7)" xlink:href="#Cmr10-32"/>
     <use transform="translate(151.777344 -16.19375)scale(0.7)" xlink:href="#Cmr10-30"/>
    </g>
   </g>
   <g id="text_40">
    <!-- $s_{2121}$ -->
    <g transform="translate(176.359381 198.681089)scale(0.15 -0.15)">
     <use transform="translate(0 0.8125)" xlink:href="#Cmmi10-73"/>
     <use transform="translate(46.777344 -16.19375)scale(0.7)" xlink:href="#Cmr10-32"/>
     <use transform="translate(81.777344 -16.19375)scale(0.7)" xlink:href="#Cmr10-31"/>
     <use transform="translate(116.777344 -16.19375)scale(0.7)" xlink:href="#Cmr10-32"/>
     <use transform="translate(151.777344 -16.19375)scale(0.7)" xlink:href="#Cmr10-31"/>
    </g>
   </g>
   <g id="text_41">
    <!-- $s_{01201}$ -->
    <g transform="translate(351.22031 92.189532)scale(0.15 -0.15)">
     <use transform="translate(0 0.8125)" xlink:href="#Cmmi10-73"/>
     <use transform="translate(46.777344 -16.19375)scale(0.7)" xlink:href="#Cmr10-30"/>
     <use transform="translate(81.777344 -16.19375)scale(0.7)" xlink:href="#Cmr10-31"/>
     <use transform="translate(116.777344 -16.19375)scale(0.7)" xlink:href="#Cmr10-32"/>
     <use transform="translate(151.777344 -16.19375)scale(0.7)" xlink:href="#Cmr10-30"/>
     <use transform="translate(186.777344 -16.19375)scale(0.7)" xlink:href="#Cmr10-31"/>
    </g>
   </g>
   <g id="text_42">
    <!-- $s_{10120}$ -->
    <g transform="translate(280.225938 56.692346)scale(0.15 -0.15)">
     <use transform="translate(0 0.8125)" xlink:href="#Cmmi10-73"/>
     <use transform="translate(46.777344 -16.19375)scale(0.7)" xlink:href="#Cmr10-31"/>
     <use transform="translate(81.777344 -16.19375)scale(0.7)" xlink:href="#Cmr10-30"/>
     <use transform="translate(116.777344 -16.19375)scale(0.7)" xlink:href="#Cmr10-31"/>
     <use transform="translate(151.777344 -16.19375)scale(0.7)" xlink:href="#Cmr10-32"/>
     <use transform="translate(186.777344 -16.19375)scale(0.7)" xlink:href="#Cmr10-30"/>
    </g>
   </g>
   <g id="text_43">
    <!-- $s_{10121}$ -->
    <g transform="translate(226.980159 38.943753)scale(0.15 -0.15)">
     <use transform="translate(0 0.8125)" xlink:href="#Cmmi10-73"/>
     <use transform="translate(46.777344 -16.19375)scale(0.7)" xlink:href="#Cmr10-31"/>
     <use transform="translate(81.777344 -16.19375)scale(0.7)" xlink:href="#Cmr10-30"/>
     <use transform="translate(116.777344 -16.19375)scale(0.7)" xlink:href="#Cmr10-31"/>
     <use transform="translate(151.777344 -16.19375)scale(0.7)" xlink:href="#Cmr10-32"/>
     <use transform="translate(186.777344 -16.19375)scale(0.7)" xlink:href="#Cmr10-31"/>
    </g>
   </g>
   <g id="text_44">
    <!-- $s_{12010}$ -->
    <g transform="translate(138.237195 92.189532)scale(0.15 -0.15)">
     <use transform="translate(0 0.8125)" xlink:href="#Cmmi10-73"/>
     <use transform="translate(46.777344 -16.19375)scale(0.7)" xlink:href="#Cmr10-31"/>
     <use transform="translate(81.777344 -16.19375)scale(0.7)" xlink:href="#Cmr10-32"/>
     <use transform="translate(116.777344 -16.19375)scale(0.7)" xlink:href="#Cmr10-30"/>
     <use transform="translate(151.777344 -16.19375)scale(0.7)" xlink:href="#Cmr10-31"/>
     <use transform="translate(186.777344 -16.19375)scale(0.7)" xlink:href="#Cmr10-30"/>
    </g>
   </g>
   <g id="text_45">
    <!-- $s_{12012}$ -->
    <g transform="translate(173.734381 56.692346)scale(0.15 -0.15)">
     <use transform="translate(0 0.8125)" xlink:href="#Cmmi10-73"/>
     <use transform="translate(46.777344 -16.19375)scale(0.7)" xlink:href="#Cmr10-31"/>
     <use transform="translate(81.777344 -16.19375)scale(0.7)" xlink:href="#Cmr10-32"/>
     <use transform="translate(116.777344 -16.19375)scale(0.7)" xlink:href="#Cmr10-30"/>
     <use transform="translate(151.777344 -16.19375)scale(0.7)" xlink:href="#Cmr10-31"/>
     <use transform="translate(186.777344 -16.19375)scale(0.7)" xlink:href="#Cmr10-32"/>
    </g>
   </g>
   <g id="text_46">
    <!-- $s_{12101}$ -->
    <g transform="translate(120.488602 145.43531)scale(0.15 -0.15)">
     <use transform="translate(0 0.8125)" xlink:href="#Cmmi10-73"/>
     <use transform="translate(46.777344 -16.19375)scale(0.7)" xlink:href="#Cmr10-31"/>
     <use transform="translate(81.777344 -16.19375)scale(0.7)" xlink:href="#Cmr10-32"/>
     <use transform="translate(116.777344 -16.19375)scale(0.7)" xlink:href="#Cmr10-31"/>
     <use transform="translate(151.777344 -16.19375)scale(0.7)" xlink:href="#Cmr10-30"/>
     <use transform="translate(186.777344 -16.19375)scale(0.7)" xlink:href="#Cmr10-31"/>
    </g>
   </g>
   <g id="text_47">
    <!-- $s_{20120}$ -->
    <g transform="translate(333.471717 251.926867)scale(0.15 -0.15)">
     <use transform="translate(0 0.8125)" xlink:href="#Cmmi10-73"/>
     <use transform="translate(46.777344 -16.19375)scale(0.7)" xlink:href="#Cmr10-32"/>
     <use transform="translate(81.777344 -16.19375)scale(0.7)" xlink:href="#Cmr10-30"/>
     <use transform="translate(116.777344 -16.19375)scale(0.7)" xlink:href="#Cmr10-31"/>
     <use transform="translate(151.777344 -16.19375)scale(0.7)" xlink:href="#Cmr10-32"/>
     <use transform="translate(186.777344 -16.19375)scale(0.7)" xlink:href="#Cmr10-30"/>
    </g>
   </g>
   <g id="text_48">
    <!-- $s_{20121}$ -->
    <g transform="translate(351.22031 198.681089)scale(0.15 -0.15)">
     <use transform="translate(0 0.8125)" xlink:href="#Cmmi10-73"/>
     <use transform="translate(46.777344 -16.19375)scale(0.7)" xlink:href="#Cmr10-32"/>
     <use transform="translate(81.777344 -16.19375)scale(0.7)" xlink:href="#Cmr10-30"/>
     <use transform="translate(116.777344 -16.19375)scale(0.7)" xlink:href="#Cmr10-31"/>
     <use transform="translate(151.777344 -16.19375)scale(0.7)" xlink:href="#Cmr10-32"/>
     <use transform="translate(186.777344 -16.19375)scale(0.7)" xlink:href="#Cmr10-31"/>
    </g>
   </g>
   <g id="text_49">
    <!-- $s_{21010}$ -->
    <g transform="translate(280.225938 269.67546)scale(0.15 -0.15)">
     <use transform="translate(0 0.8125)" xlink:href="#Cmmi10-73"/>
     <use transform="translate(46.777344 -16.19375)scale(0.7)" xlink:href="#Cmr10-32"/>
     <use transform="translate(81.777344 -16.19375)scale(0.7)" xlink:href="#Cmr10-31"/>
     <use transform="translate(116.777344 -16.19375)scale(0.7)" xlink:href="#Cmr10-30"/>
     <use transform="translate(151.777344 -16.19375)scale(0.7)" xlink:href="#Cmr10-31"/>
     <use transform="translate(186.777344 -16.19375)scale(0.7)" xlink:href="#Cmr10-30"/>
    </g>
   </g>
   <g id="text_50">
    <!-- $s_{21012}$ -->
    <g transform="translate(244.728752 305.172646)scale(0.15 -0.15)">
     <use transform="translate(0 0.8125)" xlink:href="#Cmmi10-73"/>
     <use transform="translate(46.777344 -16.19375)scale(0.7)" xlink:href="#Cmr10-32"/>
     <use transform="translate(81.777344 -16.19375)scale(0.7)" xlink:href="#Cmr10-31"/>
     <use transform="translate(116.777344 -16.19375)scale(0.7)" xlink:href="#Cmr10-30"/>
     <use transform="translate(151.777344 -16.19375)scale(0.7)" xlink:href="#Cmr10-31"/>
     <use transform="translate(186.777344 -16.19375)scale(0.7)" xlink:href="#Cmr10-32"/>
    </g>
   </g>
   <g id="text_51">
    <!-- $s_{21201}$ -->
    <g transform="translate(173.734381 269.67546)scale(0.15 -0.15)">
     <use transform="translate(0 0.8125)" xlink:href="#Cmmi10-73"/>
     <use transform="translate(46.777344 -16.19375)scale(0.7)" xlink:href="#Cmr10-32"/>
     <use transform="translate(81.777344 -16.19375)scale(0.7)" xlink:href="#Cmr10-31"/>
     <use transform="translate(116.777344 -16.19375)scale(0.7)" xlink:href="#Cmr10-32"/>
     <use transform="translate(151.777344 -16.19375)scale(0.7)" xlink:href="#Cmr10-30"/>
     <use transform="translate(186.777344 -16.19375)scale(0.7)" xlink:href="#Cmr10-31"/>
    </g>
   </g>
   <g id="text_52">
    <!-- $s_{21210}$ -->
    <g transform="translate(138.237195 198.681089)scale(0.15 -0.15)">
     <use transform="translate(0 0.8125)" xlink:href="#Cmmi10-73"/>
     <use transform="translate(46.777344 -16.19375)scale(0.7)" xlink:href="#Cmr10-32"/>
     <use transform="translate(81.777344 -16.19375)scale(0.7)" xlink:href="#Cmr10-31"/>
     <use transform="translate(116.777344 -16.19375)scale(0.7)" xlink:href="#Cmr10-32"/>
     <use transform="translate(151.777344 -16.19375)scale(0.7)" xlink:href="#Cmr10-31"/>
     <use transform="translate(186.777344 -16.19375)scale(0.7)" xlink:href="#Cmr10-30"/>
    </g>
   </g>
   <g id="text_53">
    <!-- $s_{012012}$ -->
    <g transform="translate(348.59531 56.692346)scale(0.15 -0.15)">
     <use transform="translate(0 0.8125)" xlink:href="#Cmmi10-73"/>
     <use transform="translate(46.777344 -16.19375)scale(0.7)" xlink:href="#Cmr10-30"/>
     <use transform="translate(81.777344 -16.19375)scale(0.7)" xlink:href="#Cmr10-31"/>
     <use transform="translate(116.777344 -16.19375)scale(0.7)" xlink:href="#Cmr10-32"/>
     <use transform="translate(151.777344 -16.19375)scale(0.7)" xlink:href="#Cmr10-30"/>
     <use transform="translate(186.777344 -16.19375)scale(0.7)" xlink:href="#Cmr10-31"/>
     <use transform="translate(221.777344 -16.19375)scale(0.7)" xlink:href="#Cmr10-32"/>
    </g>
   </g>
   <g id="text_54">
    <!-- $s_{101201}$ -->
    <g transform="translate(295.349531 38.943753)scale(0.15 -0.15)">
     <use transform="translate(0 0.8125)" xlink:href="#Cmmi10-73"/>
     <use transform="translate(46.777344 -16.19375)scale(0.7)" xlink:href="#Cmr10-31"/>
     <use transform="translate(81.777344 -16.19375)scale(0.7)" xlink:href="#Cmr10-30"/>
     <use transform="translate(116.777344 -16.19375)scale(0.7)" xlink:href="#Cmr10-31"/>
     <use transform="translate(151.777344 -16.19375)scale(0.7)" xlink:href="#Cmr10-32"/>
     <use transform="translate(186.777344 -16.19375)scale(0.7)" xlink:href="#Cmr10-30"/>
     <use transform="translate(221.777344 -16.19375)scale(0.7)" xlink:href="#Cmr10-31"/>
    </g>
   </g>
   <g id="text_55">
    <!-- $s_{120120}$ -->
    <g transform="translate(135.612195 56.692346)scale(0.15 -0.15)">
     <use transform="translate(0 0.8125)" xlink:href="#Cmmi10-73"/>
     <use transform="translate(46.777344 -16.19375)scale(0.7)" xlink:href="#Cmr10-31"/>
     <use transform="translate(81.777344 -16.19375)scale(0.7)" xlink:href="#Cmr10-32"/>
     <use transform="translate(116.777344 -16.19375)scale(0.7)" xlink:href="#Cmr10-30"/>
     <use transform="translate(151.777344 -16.19375)scale(0.7)" xlink:href="#Cmr10-31"/>
     <use transform="translate(186.777344 -16.19375)scale(0.7)" xlink:href="#Cmr10-32"/>
     <use transform="translate(221.777344 -16.19375)scale(0.7)" xlink:href="#Cmr10-30"/>
    </g>
   </g>
   <g id="text_56">
    <!-- $s_{120121}$ -->
    <g transform="translate(188.857974 38.943753)scale(0.15 -0.15)">
     <use transform="translate(0 0.8125)" xlink:href="#Cmmi10-73"/>
     <use transform="translate(46.777344 -16.19375)scale(0.7)" xlink:href="#Cmr10-31"/>
     <use transform="translate(81.777344 -16.19375)scale(0.7)" xlink:href="#Cmr10-32"/>
     <use transform="translate(116.777344 -16.19375)scale(0.7)" xlink:href="#Cmr10-30"/>
     <use transform="translate(151.777344 -16.19375)scale(0.7)" xlink:href="#Cmr10-31"/>
     <use transform="translate(186.777344 -16.19375)scale(0.7)" xlink:href="#Cmr10-32"/>
     <use transform="translate(221.777344 -16.19375)scale(0.7)" xlink:href="#Cmr10-31"/>
    </g>
   </g>
   <g id="text_57">
    <!-- $s_{121010}$ -->
    <g transform="translate(117.863602 109.938124)scale(0.15 -0.15)">
     <use transform="translate(0 0.8125)" xlink:href="#Cmmi10-73"/>
     <use transform="translate(46.777344 -16.19375)scale(0.7)" xlink:href="#Cmr10-31"/>
     <use transform="translate(81.777344 -16.19375)scale(0.7)" xlink:href="#Cmr10-32"/>
     <use transform="translate(116.777344 -16.19375)scale(0.7)" xlink:href="#Cmr10-31"/>
     <use transform="translate(151.777344 -16.19375)scale(0.7)" xlink:href="#Cmr10-30"/>
     <use transform="translate(186.777344 -16.19375)scale(0.7)" xlink:href="#Cmr10-31"/>
     <use transform="translate(221.777344 -16.19375)scale(0.7)" xlink:href="#Cmr10-30"/>
    </g>
   </g>
   <g id="text_58">
    <!-- $s_{121012}$ -->
    <g transform="translate(82.366417 145.43531)scale(0.15 -0.15)">
     <use transform="translate(0 0.8125)" xlink:href="#Cmmi10-73"/>
     <use transform="translate(46.777344 -16.19375)scale(0.7)" xlink:href="#Cmr10-31"/>
     <use transform="translate(81.777344 -16.19375)scale(0.7)" xlink:href="#Cmr10-32"/>
     <use transform="translate(116.777344 -16.19375)scale(0.7)" xlink:href="#Cmr10-31"/>
     <use transform="translate(151.777344 -16.19375)scale(0.7)" xlink:href="#Cmr10-30"/>
     <use transform="translate(186.777344 -16.19375)scale(0.7)" xlink:href="#Cmr10-31"/>
     <use transform="translate(221.777344 -16.19375)scale(0.7)" xlink:href="#Cmr10-32"/>
    </g>
   </g>
   <g id="text_59">
    <!-- $s_{201201}$ -->
    <g transform="translate(348.59531 269.67546)scale(0.15 -0.15)">
     <use transform="translate(0 0.8125)" xlink:href="#Cmmi10-73"/>
     <use transform="translate(46.777344 -16.19375)scale(0.7)" xlink:href="#Cmr10-32"/>
     <use transform="translate(81.777344 -16.19375)scale(0.7)" xlink:href="#Cmr10-30"/>
     <use transform="translate(116.777344 -16.19375)scale(0.7)" xlink:href="#Cmr10-31"/>
     <use transform="translate(151.777344 -16.19375)scale(0.7)" xlink:href="#Cmr10-32"/>
     <use transform="translate(186.777344 -16.19375)scale(0.7)" xlink:href="#Cmr10-30"/>
     <use transform="translate(221.777344 -16.19375)scale(0.7)" xlink:href="#Cmr10-31"/>
    </g>
   </g>
   <g id="text_60">
    <!-- $s_{210120}$ -->
    <g transform="translate(277.600938 305.172646)scale(0.15 -0.15)">
     <use transform="translate(0 0.8125)" xlink:href="#Cmmi10-73"/>
     <use transform="translate(46.777344 -16.19375)scale(0.7)" xlink:href="#Cmr10-32"/>
     <use transform="translate(81.777344 -16.19375)scale(0.7)" xlink:href="#Cmr10-31"/>
     <use transform="translate(116.777344 -16.19375)scale(0.7)" xlink:href="#Cmr10-30"/>
     <use transform="translate(151.777344 -16.19375)scale(0.7)" xlink:href="#Cmr10-31"/>
     <use transform="translate(186.777344 -16.19375)scale(0.7)" xlink:href="#Cmr10-32"/>
     <use transform="translate(221.777344 -16.19375)scale(0.7)" xlink:href="#Cmr10-30"/>
    </g>
   </g>
   <g id="text_61">
    <!-- $s_{210121}$ -->
    <g transform="translate(224.355159 322.921239)scale(0.15 -0.15)">
     <use transform="translate(0 0.8125)" xlink:href="#Cmmi10-73"/>
     <use transform="translate(46.777344 -16.19375)scale(0.7)" xlink:href="#Cmr10-32"/>
     <use transform="translate(81.777344 -16.19375)scale(0.7)" xlink:href="#Cmr10-31"/>
     <use transform="translate(116.777344 -16.19375)scale(0.7)" xlink:href="#Cmr10-30"/>
     <use transform="translate(151.777344 -16.19375)scale(0.7)" xlink:href="#Cmr10-31"/>
     <use transform="translate(186.777344 -16.19375)scale(0.7)" xlink:href="#Cmr10-32"/>
     <use transform="translate(221.777344 -16.19375)scale(0.7)" xlink:href="#Cmr10-31"/>
    </g>
   </g>
   <g id="text_62">
    <!-- $s_{212010}$ -->
    <g transform="translate(135.612195 269.67546)scale(0.15 -0.15)">
     <use transform="translate(0 0.8125)" xlink:href="#Cmmi10-73"/>
     <use transform="translate(46.777344 -16.19375)scale(0.7)" xlink:href="#Cmr10-32"/>
     <use transform="translate(81.777344 -16.19375)scale(0.7)" xlink:href="#Cmr10-31"/>
     <use transform="translate(116.777344 -16.19375)scale(0.7)" xlink:href="#Cmr10-32"/>
     <use transform="translate(151.777344 -16.19375)scale(0.7)" xlink:href="#Cmr10-30"/>
     <use transform="translate(186.777344 -16.19375)scale(0.7)" xlink:href="#Cmr10-31"/>
     <use transform="translate(221.777344 -16.19375)scale(0.7)" xlink:href="#Cmr10-30"/>
    </g>
   </g>
   <g id="text_63">
    <!-- $s_{212012}$ -->
    <g transform="translate(171.109381 305.172646)scale(0.15 -0.15)">
     <use transform="translate(0 0.8125)" xlink:href="#Cmmi10-73"/>
     <use transform="translate(46.777344 -16.19375)scale(0.7)" xlink:href="#Cmr10-32"/>
     <use transform="translate(81.777344 -16.19375)scale(0.7)" xlink:href="#Cmr10-31"/>
     <use transform="translate(116.777344 -16.19375)scale(0.7)" xlink:href="#Cmr10-32"/>
     <use transform="translate(151.777344 -16.19375)scale(0.7)" xlink:href="#Cmr10-30"/>
     <use transform="translate(186.777344 -16.19375)scale(0.7)" xlink:href="#Cmr10-31"/>
     <use transform="translate(221.777344 -16.19375)scale(0.7)" xlink:href="#Cmr10-32"/>
    </g>
   </g>
   <g id="text_64">
    <!-- $s_{212101}$ -->
    <g transform="translate(117.863602 216.429682)scale(0.15 -0.15)">
     <use transform="translate(0 0.8125)" xlink:href="#Cmmi10-73"/>
     <use transform="translate(46.777344 -16.19375)scale(0.7)" xlink:href="#Cmr10-32"/>
     <use transform="translate(81.777344 -16.19375)scale(0.7)" xlink:href="#Cmr10-31"/>
     <use transform="translate(116.777344 -16.19375)scale(0.7)" xlink:href="#Cmr10-32"/>
     <use transform="translate(151.777344 -16.19375)scale(0.7)" xlink:href="#Cmr10-31"/>
     <use transform="translate(186.777344 -16.19375)scale(0.7)" xlink:href="#Cmr10-30"/>
     <use transform="translate(221.777344 -16.19375)scale(0.7)" xlink:href="#Cmr10-31"/>
    </g>
   </g>
   <g id="text_65">
    <!-- $s_{0120121}$ -->
    <g transform="translate(328.221717 38.943753)scale(0.15 -0.15)">
     <use transform="translate(0 0.8125)" xlink:href="#Cmmi10-73"/>
     <use transform="translate(46.777344 -16.19375)scale(0.7)" xlink:href="#Cmr10-30"/>
     <use transform="translate(81.777344 -16.19375)scale(0.7)" xlink:href="#Cmr10-31"/>
     <use transform="translate(116.777344 -16.19375)scale(0.7)" xlink:href="#Cmr10-32"/>
     <use transform="translate(151.777344 -16.19375)scale(0.7)" xlink:href="#Cmr10-30"/>
     <use transform="translate(186.777344 -16.19375)scale(0.7)" xlink:href="#Cmr10-31"/>
     <use transform="translate(221.777344 -16.19375)scale(0.7)" xlink:href="#Cmr10-32"/>
     <use transform="translate(256.777344 -16.19375)scale(0.7)" xlink:href="#Cmr10-31"/>
    </g>
   </g>
   <g id="text_66">
    <!-- $s_{1201201}$ -->
    <g transform="translate(115.238602 38.943753)scale(0.15 -0.15)">
     <use transform="translate(0 0.8125)" xlink:href="#Cmmi10-73"/>
     <use transform="translate(46.777344 -16.19375)scale(0.7)" xlink:href="#Cmr10-31"/>
     <use transform="translate(81.777344 -16.19375)scale(0.7)" xlink:href="#Cmr10-32"/>
     <use transform="translate(116.777344 -16.19375)scale(0.7)" xlink:href="#Cmr10-30"/>
     <use transform="translate(151.777344 -16.19375)scale(0.7)" xlink:href="#Cmr10-31"/>
     <use transform="translate(186.777344 -16.19375)scale(0.7)" xlink:href="#Cmr10-32"/>
     <use transform="translate(221.777344 -16.19375)scale(0.7)" xlink:href="#Cmr10-30"/>
     <use transform="translate(256.777344 -16.19375)scale(0.7)" xlink:href="#Cmr10-31"/>
    </g>
   </g>
   <g id="text_67">
    <!-- $s_{1210120}$ -->
    <g transform="translate(79.741417 109.938124)scale(0.15 -0.15)">
     <use transform="translate(0 0.8125)" xlink:href="#Cmmi10-73"/>
     <use transform="translate(46.777344 -16.19375)scale(0.7)" xlink:href="#Cmr10-31"/>
     <use transform="translate(81.777344 -16.19375)scale(0.7)" xlink:href="#Cmr10-32"/>
     <use transform="translate(116.777344 -16.19375)scale(0.7)" xlink:href="#Cmr10-31"/>
     <use transform="translate(151.777344 -16.19375)scale(0.7)" xlink:href="#Cmr10-30"/>
     <use transform="translate(186.777344 -16.19375)scale(0.7)" xlink:href="#Cmr10-31"/>
     <use transform="translate(221.777344 -16.19375)scale(0.7)" xlink:href="#Cmr10-32"/>
     <use transform="translate(256.777344 -16.19375)scale(0.7)" xlink:href="#Cmr10-30"/>
    </g>
   </g>
   <g id="text_68">
    <!-- $s_{1210121}$ -->
    <g transform="translate(61.992824 163.183903)scale(0.15 -0.15)">
     <use transform="translate(0 0.8125)" xlink:href="#Cmmi10-73"/>
     <use transform="translate(46.777344 -16.19375)scale(0.7)" xlink:href="#Cmr10-31"/>
     <use transform="translate(81.777344 -16.19375)scale(0.7)" xlink:href="#Cmr10-32"/>
     <use transform="translate(116.777344 -16.19375)scale(0.7)" xlink:href="#Cmr10-31"/>
     <use transform="translate(151.777344 -16.19375)scale(0.7)" xlink:href="#Cmr10-30"/>
     <use transform="translate(186.777344 -16.19375)scale(0.7)" xlink:href="#Cmr10-31"/>
     <use transform="translate(221.777344 -16.19375)scale(0.7)" xlink:href="#Cmr10-32"/>
     <use transform="translate(256.777344 -16.19375)scale(0.7)" xlink:href="#Cmr10-31"/>
    </g>
   </g>
   <g id="text_69">
    <!-- $s_{2012012}$ -->
    <g transform="translate(345.97031 305.172646)scale(0.15 -0.15)">
     <use transform="translate(0 0.8125)" xlink:href="#Cmmi10-73"/>
     <use transform="translate(46.777344 -16.19375)scale(0.7)" xlink:href="#Cmr10-32"/>
     <use transform="translate(81.777344 -16.19375)scale(0.7)" xlink:href="#Cmr10-30"/>
     <use transform="translate(116.777344 -16.19375)scale(0.7)" xlink:href="#Cmr10-31"/>
     <use transform="translate(151.777344 -16.19375)scale(0.7)" xlink:href="#Cmr10-32"/>
     <use transform="translate(186.777344 -16.19375)scale(0.7)" xlink:href="#Cmr10-30"/>
     <use transform="translate(221.777344 -16.19375)scale(0.7)" xlink:href="#Cmr10-31"/>
     <use transform="translate(256.777344 -16.19375)scale(0.7)" xlink:href="#Cmr10-32"/>
    </g>
   </g>
   <g id="text_70">
    <!-- $s_{2101201}$ -->
    <g transform="translate(292.724531 322.921239)scale(0.15 -0.15)">
     <use transform="translate(0 0.8125)" xlink:href="#Cmmi10-73"/>
     <use transform="translate(46.777344 -16.19375)scale(0.7)" xlink:href="#Cmr10-32"/>
     <use transform="translate(81.777344 -16.19375)scale(0.7)" xlink:href="#Cmr10-31"/>
     <use transform="translate(116.777344 -16.19375)scale(0.7)" xlink:href="#Cmr10-30"/>
     <use transform="translate(151.777344 -16.19375)scale(0.7)" xlink:href="#Cmr10-31"/>
     <use transform="translate(186.777344 -16.19375)scale(0.7)" xlink:href="#Cmr10-32"/>
     <use transform="translate(221.777344 -16.19375)scale(0.7)" xlink:href="#Cmr10-30"/>
     <use transform="translate(256.777344 -16.19375)scale(0.7)" xlink:href="#Cmr10-31"/>
    </g>
   </g>
   <g id="text_71">
    <!-- $s_{2120120}$ -->
    <g transform="translate(132.987195 305.172646)scale(0.15 -0.15)">
     <use transform="translate(0 0.8125)" xlink:href="#Cmmi10-73"/>
     <use transform="translate(46.777344 -16.19375)scale(0.7)" xlink:href="#Cmr10-32"/>
     <use transform="translate(81.777344 -16.19375)scale(0.7)" xlink:href="#Cmr10-31"/>
     <use transform="translate(116.777344 -16.19375)scale(0.7)" xlink:href="#Cmr10-32"/>
     <use transform="translate(151.777344 -16.19375)scale(0.7)" xlink:href="#Cmr10-30"/>
     <use transform="translate(186.777344 -16.19375)scale(0.7)" xlink:href="#Cmr10-31"/>
     <use transform="translate(221.777344 -16.19375)scale(0.7)" xlink:href="#Cmr10-32"/>
     <use transform="translate(256.777344 -16.19375)scale(0.7)" xlink:href="#Cmr10-30"/>
    </g>
   </g>
   <g id="text_72">
    <!-- $s_{2120121}$ -->
    <g transform="translate(186.232974 322.921239)scale(0.15 -0.15)">
     <use transform="translate(0 0.8125)" xlink:href="#Cmmi10-73"/>
     <use transform="translate(46.777344 -16.19375)scale(0.7)" xlink:href="#Cmr10-32"/>
     <use transform="translate(81.777344 -16.19375)scale(0.7)" xlink:href="#Cmr10-31"/>
     <use transform="translate(116.777344 -16.19375)scale(0.7)" xlink:href="#Cmr10-32"/>
     <use transform="translate(151.777344 -16.19375)scale(0.7)" xlink:href="#Cmr10-30"/>
     <use transform="translate(186.777344 -16.19375)scale(0.7)" xlink:href="#Cmr10-31"/>
     <use transform="translate(221.777344 -16.19375)scale(0.7)" xlink:href="#Cmr10-32"/>
     <use transform="translate(256.777344 -16.19375)scale(0.7)" xlink:href="#Cmr10-31"/>
    </g>
   </g>
   <g id="text_73">
    <!-- $s_{2121010}$ -->
    <g transform="translate(115.238602 251.926867)scale(0.15 -0.15)">
     <use transform="translate(0 0.8125)" xlink:href="#Cmmi10-73"/>
     <use transform="translate(46.777344 -16.19375)scale(0.7)" xlink:href="#Cmr10-32"/>
     <use transform="translate(81.777344 -16.19375)scale(0.7)" xlink:href="#Cmr10-31"/>
     <use transform="translate(116.777344 -16.19375)scale(0.7)" xlink:href="#Cmr10-32"/>
     <use transform="translate(151.777344 -16.19375)scale(0.7)" xlink:href="#Cmr10-31"/>
     <use transform="translate(186.777344 -16.19375)scale(0.7)" xlink:href="#Cmr10-30"/>
     <use transform="translate(221.777344 -16.19375)scale(0.7)" xlink:href="#Cmr10-31"/>
     <use transform="translate(256.777344 -16.19375)scale(0.7)" xlink:href="#Cmr10-30"/>
    </g>
   </g>
   <g id="text_74">
    <!-- $s_{2121012}$ -->
    <g transform="translate(79.741417 216.429682)scale(0.15 -0.15)">
     <use transform="translate(0 0.8125)" xlink:href="#Cmmi10-73"/>
     <use transform="translate(46.777344 -16.19375)scale(0.7)" xlink:href="#Cmr10-32"/>
     <use transform="translate(81.777344 -16.19375)scale(0.7)" xlink:href="#Cmr10-31"/>
     <use transform="translate(116.777344 -16.19375)scale(0.7)" xlink:href="#Cmr10-32"/>
     <use transform="translate(151.777344 -16.19375)scale(0.7)" xlink:href="#Cmr10-31"/>
     <use transform="translate(186.777344 -16.19375)scale(0.7)" xlink:href="#Cmr10-30"/>
     <use transform="translate(221.777344 -16.19375)scale(0.7)" xlink:href="#Cmr10-31"/>
     <use transform="translate(256.777344 -16.19375)scale(0.7)" xlink:href="#Cmr10-32"/>
    </g>
   </g>
   <g id="text_75">
    <!-- $s_{12012012}$ -->
    <g transform="translate(77.116417 38.943753)scale(0.15 -0.15)">
     <use transform="translate(0 0.8125)" xlink:href="#Cmmi10-73"/>
     <use transform="translate(46.777344 -16.19375)scale(0.7)" xlink:href="#Cmr10-31"/>
     <use transform="translate(81.777344 -16.19375)scale(0.7)" xlink:href="#Cmr10-32"/>
     <use transform="translate(116.777344 -16.19375)scale(0.7)" xlink:href="#Cmr10-30"/>
     <use transform="translate(151.777344 -16.19375)scale(0.7)" xlink:href="#Cmr10-31"/>
     <use transform="translate(186.777344 -16.19375)scale(0.7)" xlink:href="#Cmr10-32"/>
     <use transform="translate(221.777344 -16.19375)scale(0.7)" xlink:href="#Cmr10-30"/>
     <use transform="translate(256.777344 -16.19375)scale(0.7)" xlink:href="#Cmr10-31"/>
     <use transform="translate(291.777344 -16.19375)scale(0.7)" xlink:href="#Cmr10-32"/>
    </g>
   </g>
   <g id="text_76">
    <!-- $s_{12101201}$ -->
    <g transform="translate(59.367824 92.189532)scale(0.15 -0.15)">
     <use transform="translate(0 0.8125)" xlink:href="#Cmmi10-73"/>
     <use transform="translate(46.777344 -16.19375)scale(0.7)" xlink:href="#Cmr10-31"/>
     <use transform="translate(81.777344 -16.19375)scale(0.7)" xlink:href="#Cmr10-32"/>
     <use transform="translate(116.777344 -16.19375)scale(0.7)" xlink:href="#Cmr10-31"/>
     <use transform="translate(151.777344 -16.19375)scale(0.7)" xlink:href="#Cmr10-30"/>
     <use transform="translate(186.777344 -16.19375)scale(0.7)" xlink:href="#Cmr10-31"/>
     <use transform="translate(221.777344 -16.19375)scale(0.7)" xlink:href="#Cmr10-32"/>
     <use transform="translate(256.777344 -16.19375)scale(0.7)" xlink:href="#Cmr10-30"/>
     <use transform="translate(291.777344 -16.19375)scale(0.7)" xlink:href="#Cmr10-31"/>
    </g>
   </g>
   <g id="text_77">
    <!-- $s_{20120121}$ -->
    <g transform="translate(325.596717 322.921239)scale(0.15 -0.15)">
     <use transform="translate(0 0.8125)" xlink:href="#Cmmi10-73"/>
     <use transform="translate(46.777344 -16.19375)scale(0.7)" xlink:href="#Cmr10-32"/>
     <use transform="translate(81.777344 -16.19375)scale(0.7)" xlink:href="#Cmr10-30"/>
     <use transform="translate(116.777344 -16.19375)scale(0.7)" xlink:href="#Cmr10-31"/>
     <use transform="translate(151.777344 -16.19375)scale(0.7)" xlink:href="#Cmr10-32"/>
     <use transform="translate(186.777344 -16.19375)scale(0.7)" xlink:href="#Cmr10-30"/>
     <use transform="translate(221.777344 -16.19375)scale(0.7)" xlink:href="#Cmr10-31"/>
     <use transform="translate(256.777344 -16.19375)scale(0.7)" xlink:href="#Cmr10-32"/>
     <use transform="translate(291.777344 -16.19375)scale(0.7)" xlink:href="#Cmr10-31"/>
    </g>
   </g>
   <g id="text_78">
    <!-- $s_{21201201}$ -->
    <g transform="translate(112.613602 322.921239)scale(0.15 -0.15)">
     <use transform="translate(0 0.8125)" xlink:href="#Cmmi10-73"/>
     <use transform="translate(46.777344 -16.19375)scale(0.7)" xlink:href="#Cmr10-32"/>
     <use transform="translate(81.777344 -16.19375)scale(0.7)" xlink:href="#Cmr10-31"/>
     <use transform="translate(116.777344 -16.19375)scale(0.7)" xlink:href="#Cmr10-32"/>
     <use transform="translate(151.777344 -16.19375)scale(0.7)" xlink:href="#Cmr10-30"/>
     <use transform="translate(186.777344 -16.19375)scale(0.7)" xlink:href="#Cmr10-31"/>
     <use transform="translate(221.777344 -16.19375)scale(0.7)" xlink:href="#Cmr10-32"/>
     <use transform="translate(256.777344 -16.19375)scale(0.7)" xlink:href="#Cmr10-30"/>
     <use transform="translate(291.777344 -16.19375)scale(0.7)" xlink:href="#Cmr10-31"/>
    </g>
   </g>
   <g id="text_79">
    <!-- $s_{21210120}$ -->
    <g transform="translate(77.116417 251.926867)scale(0.15 -0.15)">
     <use transform="translate(0 0.8125)" xlink:href="#Cmmi10-73"/>
     <use transform="translate(46.777344 -16.19375)scale(0.7)" xlink:href="#Cmr10-32"/>
     <use transform="translate(81.777344 -16.19375)scale(0.7)" xlink:href="#Cmr10-31"/>
     <use transform="translate(116.777344 -16.19375)scale(0.7)" xlink:href="#Cmr10-32"/>
     <use transform="translate(151.777344 -16.19375)scale(0.7)" xlink:href="#Cmr10-31"/>
     <use transform="translate(186.777344 -16.19375)scale(0.7)" xlink:href="#Cmr10-30"/>
     <use transform="translate(221.777344 -16.19375)scale(0.7)" xlink:href="#Cmr10-31"/>
     <use transform="translate(256.777344 -16.19375)scale(0.7)" xlink:href="#Cmr10-32"/>
     <use transform="translate(291.777344 -16.19375)scale(0.7)" xlink:href="#Cmr10-30"/>
    </g>
   </g>
   <g id="text_80">
    <!-- $s_{21210121}$ -->
    <g transform="translate(59.367824 198.681089)scale(0.15 -0.15)">
     <use transform="translate(0 0.8125)" xlink:href="#Cmmi10-73"/>
     <use transform="translate(46.777344 -16.19375)scale(0.7)" xlink:href="#Cmr10-32"/>
     <use transform="translate(81.777344 -16.19375)scale(0.7)" xlink:href="#Cmr10-31"/>
     <use transform="translate(116.777344 -16.19375)scale(0.7)" xlink:href="#Cmr10-32"/>
     <use transform="translate(151.777344 -16.19375)scale(0.7)" xlink:href="#Cmr10-31"/>
     <use transform="translate(186.777344 -16.19375)scale(0.7)" xlink:href="#Cmr10-30"/>
     <use transform="translate(221.777344 -16.19375)scale(0.7)" xlink:href="#Cmr10-31"/>
     <use transform="translate(256.777344 -16.19375)scale(0.7)" xlink:href="#Cmr10-32"/>
     <use transform="translate(291.777344 -16.19375)scale(0.7)" xlink:href="#Cmr10-31"/>
    </g>
   </g>
   <g id="text_81">
    <!-- $s_{120120121}$ -->
    <g transform="translate(56.742824 56.692346)scale(0.15 -0.15)">
     <use transform="translate(0 0.8125)" xlink:href="#Cmmi10-73"/>
     <use transform="translate(46.777344 -16.19375)scale(0.7)" xlink:href="#Cmr10-31"/>
     <use transform="translate(81.777344 -16.19375)scale(0.7)" xlink:href="#Cmr10-32"/>
     <use transform="translate(116.777344 -16.19375)scale(0.7)" xlink:href="#Cmr10-30"/>
     <use transform="translate(151.777344 -16.19375)scale(0.7)" xlink:href="#Cmr10-31"/>
     <use transform="translate(186.777344 -16.19375)scale(0.7)" xlink:href="#Cmr10-32"/>
     <use transform="translate(221.777344 -16.19375)scale(0.7)" xlink:href="#Cmr10-30"/>
     <use transform="translate(256.777344 -16.19375)scale(0.7)" xlink:href="#Cmr10-31"/>
     <use transform="translate(291.777344 -16.19375)scale(0.7)" xlink:href="#Cmr10-32"/>
     <use transform="translate(326.777344 -16.19375)scale(0.7)" xlink:href="#Cmr10-31"/>
    </g>
   </g>
   <g id="text_82">
    <!-- $s_{212012012}$ -->
    <g transform="translate(74.491417 322.921239)scale(0.15 -0.15)">
     <use transform="translate(0 0.8125)" xlink:href="#Cmmi10-73"/>
     <use transform="translate(46.777344 -16.19375)scale(0.7)" xlink:href="#Cmr10-32"/>
     <use transform="translate(81.777344 -16.19375)scale(0.7)" xlink:href="#Cmr10-31"/>
     <use transform="translate(116.777344 -16.19375)scale(0.7)" xlink:href="#Cmr10-32"/>
     <use transform="translate(151.777344 -16.19375)scale(0.7)" xlink:href="#Cmr10-30"/>
     <use transform="translate(186.777344 -16.19375)scale(0.7)" xlink:href="#Cmr10-31"/>
     <use transform="translate(221.777344 -16.19375)scale(0.7)" xlink:href="#Cmr10-32"/>
     <use transform="translate(256.777344 -16.19375)scale(0.7)" xlink:href="#Cmr10-30"/>
     <use transform="translate(291.777344 -16.19375)scale(0.7)" xlink:href="#Cmr10-31"/>
     <use transform="translate(326.777344 -16.19375)scale(0.7)" xlink:href="#Cmr10-32"/>
    </g>
   </g>
   <g id="text_83">
    <!-- $s_{212101201}$ -->
    <g transform="translate(56.742824 269.67546)scale(0.15 -0.15)">
     <use transform="translate(0 0.8125)" xlink:href="#Cmmi10-73"/>
     <use transform="translate(46.777344 -16.19375)scale(0.7)" xlink:href="#Cmr10-32"/>
     <use transform="translate(81.777344 -16.19375)scale(0.7)" xlink:href="#Cmr10-31"/>
     <use transform="translate(116.777344 -16.19375)scale(0.7)" xlink:href="#Cmr10-32"/>
     <use transform="translate(151.777344 -16.19375)scale(0.7)" xlink:href="#Cmr10-31"/>
     <use transform="translate(186.777344 -16.19375)scale(0.7)" xlink:href="#Cmr10-30"/>
     <use transform="translate(221.777344 -16.19375)scale(0.7)" xlink:href="#Cmr10-31"/>
     <use transform="translate(256.777344 -16.19375)scale(0.7)" xlink:href="#Cmr10-32"/>
     <use transform="translate(291.777344 -16.19375)scale(0.7)" xlink:href="#Cmr10-30"/>
     <use transform="translate(326.777344 -16.19375)scale(0.7)" xlink:href="#Cmr10-31"/>
    </g>
   </g>
   <g id="text_84">
    <!-- $s_{2120120121}$ -->
    <g transform="translate(54.117824 305.172646)scale(0.15 -0.15)">
     <use transform="translate(0 0.8125)" xlink:href="#Cmmi10-73"/>
     <use transform="translate(46.777344 -16.19375)scale(0.7)" xlink:href="#Cmr10-32"/>
     <use transform="translate(81.777344 -16.19375)scale(0.7)" xlink:href="#Cmr10-31"/>
     <use transform="translate(116.777344 -16.19375)scale(0.7)" xlink:href="#Cmr10-32"/>
     <use transform="translate(151.777344 -16.19375)scale(0.7)" xlink:href="#Cmr10-30"/>
     <use transform="translate(186.777344 -16.19375)scale(0.7)" xlink:href="#Cmr10-31"/>
     <use transform="translate(221.777344 -16.19375)scale(0.7)" xlink:href="#Cmr10-32"/>
     <use transform="translate(256.777344 -16.19375)scale(0.7)" xlink:href="#Cmr10-30"/>
     <use transform="translate(291.777344 -16.19375)scale(0.7)" xlink:href="#Cmr10-31"/>
     <use transform="translate(326.777344 -16.19375)scale(0.7)" xlink:href="#Cmr10-32"/>
     <use transform="translate(361.777344 -16.19375)scale(0.7)" xlink:href="#Cmr10-31"/>
    </g>
   </g>
  </g>
 </g>
 <defs>
  <clipPath id="p7b3951789b">
   <rect height="340.56" width="340.56" x="60.12" y="2.52"/>
  </clipPath>
 </defs>
</svg>
