<?xml version="1.0" encoding="utf-8" standalone="no"?>
<!DOCTYPE svg PUBLIC "-//W3C//DTD SVG 1.1//EN"
  "http://www.w3.org/Graphics/SVG/1.1/DTD/svg11.dtd">
<!-- Created with matplotlib (https://matplotlib.org/) -->
<svg height="345.6pt" version="1.1" viewBox="0 0 460.8 345.6" width="460.8pt" xmlns="http://www.w3.org/2000/svg" xmlns:xlink="http://www.w3.org/1999/xlink">
 <metadata>
  <rdf:RDF xmlns:cc="http://creativecommons.org/ns#" xmlns:dc="http://purl.org/dc/elements/1.1/" xmlns:rdf="http://www.w3.org/1999/02/22-rdf-syntax-ns#">
   <cc:Work>
    <dc:type rdf:resource="http://purl.org/dc/dcmitype/StillImage"/>
    <dc:date>2020-10-25T12:08:42.550066</dc:date>
    <dc:format>image/svg+xml</dc:format>
    <dc:creator>
     <cc:Agent>
      <dc:title>Matplotlib v3.3.1, https://matplotlib.org/</dc:title>
     </cc:Agent>
    </dc:creator>
   </cc:Work>
  </rdf:RDF>
 </metadata>
 <defs>
  <style type="text/css">*{stroke-linecap:butt;stroke-linejoin:round;}</style>
 </defs>
 <g id="figure_1">
  <g id="patch_1">
   <path d="M 0 345.6 
L 460.8 345.6 
L 460.8 0 
L 0 0 
z
" style="fill:#ffffff;"/>
  </g>
  <g id="axes_1">
   <g id="patch_2">
    <path d="M 56.707043 345.6 
L 404.092957 345.6 
L 404.092957 2.940426 
L 56.707043 2.940426 
z
" style="fill:#ffffff;"/>
   </g>
   <g id="patch_3">
    <path clip-path="url(#pd534af486a)" d="M 67.932098 90.691358 
L 67.932098 20.891425 
L 290.013418 20.891425 
L 158.823232 248.119259 
z
" style="fill:#d3d3d3;opacity:0.3;"/>
   </g>
   <g id="line2d_1">
    <path clip-path="url(#pd534af486a)" d="M 386.051067 208.762284 
L 67.932098 208.762284 
" style="fill:none;stroke:#000000;stroke-linecap:square;"/>
   </g>
   <g id="line2d_2">
    <path clip-path="url(#pd534af486a)" d="M 211.299306 339.010393 
L 67.932098 90.691358 
" style="fill:none;stroke:#0000ff;stroke-linecap:square;"/>
   </g>
   <g id="line2d_3">
    <path clip-path="url(#pd534af486a)" d="M 290.013418 20.891425 
L 106.347158 339.010393 
" style="fill:none;stroke:#ff0000;stroke-linecap:square;"/>
   </g>
   <g id="line2d_4">
    <path clip-path="url(#pd534af486a)" d="M 181.546016 208.762284 
L 136.100449 208.762284 
" style="fill:none;stroke:#000000;stroke-linecap:square;stroke-width:2;"/>
   </g>
   <g id="line2d_5">
    <path clip-path="url(#pd534af486a)" d="M 136.100449 208.762284 
L 158.823232 248.119259 
" style="fill:none;stroke:#0000ff;stroke-linecap:square;"/>
   </g>
   <g id="line2d_6">
    <path clip-path="url(#pd534af486a)" d="M 181.546016 208.762284 
L 158.823232 248.119259 
" style="fill:none;stroke:#ff0000;stroke-linecap:square;"/>
   </g>
   <g id="line2d_7">
    <path clip-path="url(#pd534af486a)" d="M 158.823232 169.405309 
L 136.100449 208.762284 
" style="fill:none;stroke:#0000ff;stroke-linecap:square;"/>
   </g>
   <g id="line2d_8">
    <path clip-path="url(#pd534af486a)" d="M 158.823232 169.405309 
L 181.546016 208.762284 
" style="fill:none;stroke:#ff0000;stroke-linecap:square;"/>
   </g>
   <g id="line2d_9">
    <path clip-path="url(#pd534af486a)" d="M 136.100449 208.762284 
L 113.377665 248.119259 
" style="fill:none;stroke:#000000;stroke-linecap:square;stroke-width:2;"/>
   </g>
   <g id="line2d_10">
    <path clip-path="url(#pd534af486a)" d="M 158.823232 248.119259 
L 113.377665 248.119259 
" style="fill:none;stroke:#ff0000;stroke-linecap:square;"/>
   </g>
   <g id="line2d_11">
    <path clip-path="url(#pd534af486a)" d="M 181.546016 208.762284 
L 204.268799 248.119259 
" style="fill:none;stroke:#000000;stroke-linecap:square;stroke-width:2;"/>
   </g>
   <g id="line2d_12">
    <path clip-path="url(#pd534af486a)" d="M 204.268799 248.119259 
L 158.823232 248.119259 
" style="fill:none;stroke:#0000ff;stroke-linecap:square;"/>
   </g>
   <g id="line2d_13">
    <path clip-path="url(#pd534af486a)" d="M 113.377665 169.405309 
L 136.100449 208.762284 
" style="fill:none;stroke:#000000;stroke-linecap:square;stroke-width:2;"/>
   </g>
   <g id="line2d_14">
    <path clip-path="url(#pd534af486a)" d="M 158.823232 169.405309 
L 113.377665 169.405309 
" style="fill:none;stroke:#ff0000;stroke-linecap:square;"/>
   </g>
   <g id="line2d_15">
    <path clip-path="url(#pd534af486a)" d="M 204.268799 169.405309 
L 181.546016 208.762284 
" style="fill:none;stroke:#000000;stroke-linecap:square;stroke-width:2;"/>
   </g>
   <g id="line2d_16">
    <path clip-path="url(#pd534af486a)" d="M 204.268799 169.405309 
L 158.823232 169.405309 
" style="fill:none;stroke:#0000ff;stroke-linecap:square;"/>
   </g>
   <g id="line2d_17">
    <path clip-path="url(#pd534af486a)" d="M 136.100449 208.762284 
L 90.654882 208.762284 
" style="fill:none;stroke:#0000ff;stroke-linecap:square;"/>
   </g>
   <g id="line2d_18">
    <path clip-path="url(#pd534af486a)" d="M 90.654882 208.762284 
L 113.377665 248.119259 
" style="fill:none;stroke:#ff0000;stroke-linecap:square;"/>
   </g>
   <g id="line2d_19">
    <path clip-path="url(#pd534af486a)" d="M 113.377665 248.119259 
L 136.100449 287.476234 
" style="fill:none;stroke:#000000;stroke-linecap:square;stroke-width:2;"/>
   </g>
   <g id="line2d_20">
    <path clip-path="url(#pd534af486a)" d="M 158.823232 248.119259 
L 136.100449 287.476234 
" style="fill:none;stroke:#0000ff;stroke-linecap:square;"/>
   </g>
   <g id="line2d_21">
    <path clip-path="url(#pd534af486a)" d="M 226.991582 208.762284 
L 204.268799 248.119259 
" style="fill:none;stroke:#0000ff;stroke-linecap:square;"/>
   </g>
   <g id="line2d_22">
    <path clip-path="url(#pd534af486a)" d="M 226.991582 208.762284 
L 181.546016 208.762284 
" style="fill:none;stroke:#ff0000;stroke-linecap:square;"/>
   </g>
   <g id="line2d_23">
    <path clip-path="url(#pd534af486a)" d="M 204.268799 248.119259 
L 181.546016 287.476234 
" style="fill:none;stroke:#000000;stroke-linecap:square;stroke-width:2;"/>
   </g>
   <g id="line2d_24">
    <path clip-path="url(#pd534af486a)" d="M 158.823232 248.119259 
L 181.546016 287.476234 
" style="fill:none;stroke:#ff0000;stroke-linecap:square;"/>
   </g>
   <g id="line2d_25">
    <path clip-path="url(#pd534af486a)" d="M 113.377665 169.405309 
L 90.654882 208.762284 
" style="fill:none;stroke:#ff0000;stroke-linecap:square;"/>
   </g>
   <g id="line2d_26">
    <path clip-path="url(#pd534af486a)" d="M 136.100449 130.048334 
L 113.377665 169.405309 
" style="fill:none;stroke:#000000;stroke-linecap:square;stroke-width:2;"/>
   </g>
   <g id="line2d_27">
    <path clip-path="url(#pd534af486a)" d="M 136.100449 130.048334 
L 158.823232 169.405309 
" style="fill:none;stroke:#0000ff;stroke-linecap:square;"/>
   </g>
   <g id="line2d_28">
    <path clip-path="url(#pd534af486a)" d="M 204.268799 169.405309 
L 226.991582 208.762284 
" style="fill:none;stroke:#0000ff;stroke-linecap:square;"/>
   </g>
   <g id="line2d_29">
    <path clip-path="url(#pd534af486a)" d="M 181.546016 130.048334 
L 204.268799 169.405309 
" style="fill:none;stroke:#000000;stroke-linecap:square;stroke-width:2;"/>
   </g>
   <g id="line2d_30">
    <path clip-path="url(#pd534af486a)" d="M 181.546016 130.048334 
L 158.823232 169.405309 
" style="fill:none;stroke:#ff0000;stroke-linecap:square;"/>
   </g>
   <g id="line2d_31">
    <path clip-path="url(#pd534af486a)" d="M 113.377665 248.119259 
L 67.932098 248.119259 
" style="fill:none;stroke:#000000;stroke-linecap:square;stroke-width:2;"/>
   </g>
   <g id="line2d_32">
    <path clip-path="url(#pd534af486a)" d="M 67.932098 248.119259 
L 90.654882 208.762284 
" style="fill:none;stroke:#0000ff;stroke-linecap:square;"/>
   </g>
   <g id="line2d_33">
    <path clip-path="url(#pd534af486a)" d="M 136.100449 287.476234 
L 90.654882 287.476234 
" style="fill:none;stroke:#0000ff;stroke-linecap:square;"/>
   </g>
   <g id="line2d_34">
    <path clip-path="url(#pd534af486a)" d="M 113.377665 248.119259 
L 90.654882 287.476234 
" style="fill:none;stroke:#ff0000;stroke-linecap:square;"/>
   </g>
   <g id="line2d_35">
    <path clip-path="url(#pd534af486a)" d="M 181.546016 287.476234 
L 136.100449 287.476234 
" style="fill:none;stroke:#000000;stroke-linecap:square;stroke-width:2;"/>
   </g>
   <g id="line2d_36">
    <path clip-path="url(#pd534af486a)" d="M 249.714366 248.119259 
L 204.268799 248.119259 
" style="fill:none;stroke:#000000;stroke-linecap:square;stroke-width:2;"/>
   </g>
   <g id="line2d_37">
    <path clip-path="url(#pd534af486a)" d="M 226.991582 208.762284 
L 249.714366 248.119259 
" style="fill:none;stroke:#ff0000;stroke-linecap:square;"/>
   </g>
   <g id="line2d_38">
    <path clip-path="url(#pd534af486a)" d="M 204.268799 248.119259 
L 226.991582 287.476234 
" style="fill:none;stroke:#0000ff;stroke-linecap:square;"/>
   </g>
   <g id="line2d_39">
    <path clip-path="url(#pd534af486a)" d="M 226.991582 287.476234 
L 181.546016 287.476234 
" style="fill:none;stroke:#ff0000;stroke-linecap:square;"/>
   </g>
   <g id="line2d_40">
    <path clip-path="url(#pd534af486a)" d="M 113.377665 169.405309 
L 67.932098 169.405309 
" style="fill:none;stroke:#000000;stroke-linecap:square;stroke-width:2;"/>
   </g>
   <g id="line2d_41">
    <path clip-path="url(#pd534af486a)" d="M 67.932098 169.405309 
L 90.654882 208.762284 
" style="fill:none;stroke:#0000ff;stroke-linecap:square;"/>
   </g>
   <g id="line2d_42">
    <path clip-path="url(#pd534af486a)" d="M 136.100449 130.048334 
L 90.654882 130.048334 
" style="fill:none;stroke:#0000ff;stroke-linecap:square;"/>
   </g>
   <g id="line2d_43">
    <path clip-path="url(#pd534af486a)" d="M 90.654882 130.048334 
L 113.377665 169.405309 
" style="fill:none;stroke:#ff0000;stroke-linecap:square;"/>
   </g>
   <g id="line2d_44">
    <path clip-path="url(#pd534af486a)" d="M 181.546016 130.048334 
L 136.100449 130.048334 
" style="fill:none;stroke:#000000;stroke-linecap:square;stroke-width:2;"/>
   </g>
   <g id="line2d_45">
    <path clip-path="url(#pd534af486a)" d="M 249.714366 169.405309 
L 204.268799 169.405309 
" style="fill:none;stroke:#000000;stroke-linecap:square;stroke-width:2;"/>
   </g>
   <g id="line2d_46">
    <path clip-path="url(#pd534af486a)" d="M 249.714366 169.405309 
L 226.991582 208.762284 
" style="fill:none;stroke:#ff0000;stroke-linecap:square;"/>
   </g>
   <g id="line2d_47">
    <path clip-path="url(#pd534af486a)" d="M 226.991582 130.048334 
L 204.268799 169.405309 
" style="fill:none;stroke:#0000ff;stroke-linecap:square;"/>
   </g>
   <g id="line2d_48">
    <path clip-path="url(#pd534af486a)" d="M 226.991582 130.048334 
L 181.546016 130.048334 
" style="fill:none;stroke:#ff0000;stroke-linecap:square;"/>
   </g>
   <g id="line2d_49">
    <path clip-path="url(#pd534af486a)" d="M 67.932098 248.119259 
L 90.654882 287.476234 
" style="fill:none;stroke:#0000ff;stroke-linecap:square;"/>
   </g>
   <g id="line2d_50">
    <path clip-path="url(#pd534af486a)" d="M 90.654882 208.762284 
L 67.932098 208.762284 
" style="fill:none;stroke:#ff0000;stroke-linecap:square;"/>
   </g>
   <g id="line2d_51">
    <path clip-path="url(#pd534af486a)" d="M 136.100449 287.476234 
L 113.377665 326.833209 
" style="fill:none;stroke:#000000;stroke-linecap:square;stroke-width:2;"/>
   </g>
   <g id="line2d_52">
    <path clip-path="url(#pd534af486a)" d="M 90.654882 287.476234 
L 113.377665 326.833209 
" style="fill:none;stroke:#ff0000;stroke-linecap:square;"/>
   </g>
   <g id="line2d_53">
    <path clip-path="url(#pd534af486a)" d="M 136.100449 287.476234 
L 158.823232 326.833209 
" style="fill:none;stroke:#0000ff;stroke-linecap:square;"/>
   </g>
   <g id="line2d_54">
    <path clip-path="url(#pd534af486a)" d="M 181.546016 287.476234 
L 158.823232 326.833209 
" style="fill:none;stroke:#ff0000;stroke-linecap:square;"/>
   </g>
   <g id="line2d_55">
    <path clip-path="url(#pd534af486a)" d="M 249.714366 248.119259 
L 226.991582 287.476234 
" style="fill:none;stroke:#ff0000;stroke-linecap:square;"/>
   </g>
   <g id="line2d_56">
    <path clip-path="url(#pd534af486a)" d="M 272.437149 208.762284 
L 249.714366 248.119259 
" style="fill:none;stroke:#000000;stroke-linecap:square;stroke-width:2;"/>
   </g>
   <g id="line2d_57">
    <path clip-path="url(#pd534af486a)" d="M 272.437149 208.762284 
L 226.991582 208.762284 
" style="fill:none;stroke:#0000ff;stroke-linecap:square;"/>
   </g>
   <g id="line2d_58">
    <path clip-path="url(#pd534af486a)" d="M 181.546016 287.476234 
L 204.268799 326.833209 
" style="fill:none;stroke:#000000;stroke-linecap:square;stroke-width:2;"/>
   </g>
   <g id="line2d_59">
    <path clip-path="url(#pd534af486a)" d="M 226.991582 287.476234 
L 204.268799 326.833209 
" style="fill:none;stroke:#0000ff;stroke-linecap:square;"/>
   </g>
   <g id="line2d_60">
    <path clip-path="url(#pd534af486a)" d="M 67.932098 169.405309 
L 90.654882 130.048334 
" style="fill:none;stroke:#0000ff;stroke-linecap:square;"/>
   </g>
   <g id="line2d_61">
    <path clip-path="url(#pd534af486a)" d="M 113.377665 90.691358 
L 136.100449 130.048334 
" style="fill:none;stroke:#000000;stroke-linecap:square;stroke-width:2;"/>
   </g>
   <g id="line2d_62">
    <path clip-path="url(#pd534af486a)" d="M 113.377665 90.691358 
L 90.654882 130.048334 
" style="fill:none;stroke:#ff0000;stroke-linecap:square;"/>
   </g>
   <g id="line2d_63">
    <path clip-path="url(#pd534af486a)" d="M 158.823232 90.691358 
L 136.100449 130.048334 
" style="fill:none;stroke:#0000ff;stroke-linecap:square;"/>
   </g>
   <g id="line2d_64">
    <path clip-path="url(#pd534af486a)" d="M 158.823232 90.691358 
L 181.546016 130.048334 
" style="fill:none;stroke:#ff0000;stroke-linecap:square;"/>
   </g>
   <g id="line2d_65">
    <path clip-path="url(#pd534af486a)" d="M 226.991582 130.048334 
L 249.714366 169.405309 
" style="fill:none;stroke:#ff0000;stroke-linecap:square;"/>
   </g>
   <g id="line2d_66">
    <path clip-path="url(#pd534af486a)" d="M 204.268799 90.691358 
L 181.546016 130.048334 
" style="fill:none;stroke:#000000;stroke-linecap:square;stroke-width:2;"/>
   </g>
   <g id="line2d_67">
    <path clip-path="url(#pd534af486a)" d="M 204.268799 90.691358 
L 226.991582 130.048334 
" style="fill:none;stroke:#0000ff;stroke-linecap:square;"/>
   </g>
   <g id="line2d_68">
    <path clip-path="url(#pd534af486a)" d="M 90.654882 287.476234 
L 67.932098 287.476234 
" style="fill:none;stroke:#ff0000;stroke-linecap:square;"/>
   </g>
   <g id="line2d_69">
    <path clip-path="url(#pd534af486a)" d="M 158.823232 326.833209 
L 113.377665 326.833209 
" style="fill:none;stroke:#ff0000;stroke-linecap:square;"/>
   </g>
   <g id="line2d_70">
    <path clip-path="url(#pd534af486a)" d="M 113.377665 326.833209 
L 67.932098 326.833209 
" style="fill:none;stroke:#000000;stroke-linecap:square;stroke-width:2;"/>
   </g>
   <g id="line2d_71">
    <path clip-path="url(#pd534af486a)" d="M 67.932098 326.833209 
L 90.654882 287.476234 
" style="fill:none;stroke:#0000ff;stroke-linecap:square;"/>
   </g>
   <g id="line2d_72">
    <path clip-path="url(#pd534af486a)" d="M 249.714366 248.119259 
L 272.437149 287.476234 
" style="fill:none;stroke:#000000;stroke-linecap:square;stroke-width:2;"/>
   </g>
   <g id="line2d_73">
    <path clip-path="url(#pd534af486a)" d="M 272.437149 287.476234 
L 226.991582 287.476234 
" style="fill:none;stroke:#0000ff;stroke-linecap:square;"/>
   </g>
   <g id="line2d_74">
    <path clip-path="url(#pd534af486a)" d="M 272.437149 208.762284 
L 295.159933 248.119259 
" style="fill:none;stroke:#0000ff;stroke-linecap:square;"/>
   </g>
   <g id="line2d_75">
    <path clip-path="url(#pd534af486a)" d="M 295.159933 248.119259 
L 249.714366 248.119259 
" style="fill:none;stroke:#ff0000;stroke-linecap:square;"/>
   </g>
   <g id="line2d_76">
    <path clip-path="url(#pd534af486a)" d="M 249.714366 169.405309 
L 272.437149 208.762284 
" style="fill:none;stroke:#000000;stroke-linecap:square;stroke-width:2;"/>
   </g>
   <g id="line2d_77">
    <path clip-path="url(#pd534af486a)" d="M 204.268799 326.833209 
L 158.823232 326.833209 
" style="fill:none;stroke:#0000ff;stroke-linecap:square;"/>
   </g>
   <g id="line2d_78">
    <path clip-path="url(#pd534af486a)" d="M 249.714366 326.833209 
L 204.268799 326.833209 
" style="fill:none;stroke:#000000;stroke-linecap:square;stroke-width:2;"/>
   </g>
   <g id="line2d_79">
    <path clip-path="url(#pd534af486a)" d="M 226.991582 287.476234 
L 249.714366 326.833209 
" style="fill:none;stroke:#ff0000;stroke-linecap:square;"/>
   </g>
   <g id="line2d_80">
    <path clip-path="url(#pd534af486a)" d="M 90.654882 130.048334 
L 67.932098 130.048334 
" style="fill:none;stroke:#ff0000;stroke-linecap:square;"/>
   </g>
   <g id="line2d_81">
    <path clip-path="url(#pd534af486a)" d="M 158.823232 90.691358 
L 113.377665 90.691358 
" style="fill:none;stroke:#ff0000;stroke-linecap:square;"/>
   </g>
   <g id="line2d_82">
    <path clip-path="url(#pd534af486a)" d="M 113.377665 90.691358 
L 67.932098 90.691358 
" style="fill:none;stroke:#000000;stroke-linecap:square;stroke-width:2;"/>
   </g>
   <g id="line2d_83">
    <path clip-path="url(#pd534af486a)" d="M 67.932098 90.691358 
L 90.654882 130.048334 
" style="fill:none;stroke:#0000ff;stroke-linecap:square;"/>
   </g>
   <g id="line2d_84">
    <path clip-path="url(#pd534af486a)" d="M 272.437149 130.048334 
L 249.714366 169.405309 
" style="fill:none;stroke:#000000;stroke-linecap:square;stroke-width:2;"/>
   </g>
   <g id="line2d_85">
    <path clip-path="url(#pd534af486a)" d="M 272.437149 130.048334 
L 226.991582 130.048334 
" style="fill:none;stroke:#0000ff;stroke-linecap:square;"/>
   </g>
   <g id="line2d_86">
    <path clip-path="url(#pd534af486a)" d="M 204.268799 90.691358 
L 158.823232 90.691358 
" style="fill:none;stroke:#0000ff;stroke-linecap:square;"/>
   </g>
   <g id="line2d_87">
    <path clip-path="url(#pd534af486a)" d="M 249.714366 90.691358 
L 204.268799 90.691358 
" style="fill:none;stroke:#000000;stroke-linecap:square;stroke-width:2;"/>
   </g>
   <g id="line2d_88">
    <path clip-path="url(#pd534af486a)" d="M 249.714366 90.691358 
L 226.991582 130.048334 
" style="fill:none;stroke:#ff0000;stroke-linecap:square;"/>
   </g>
   <g id="line2d_89">
    <path clip-path="url(#pd534af486a)" d="M 113.377665 326.833209 
L 120.408173 339.010393 
" style="fill:none;stroke:#000000;stroke-linecap:square;stroke-width:2;"/>
   </g>
   <g id="line2d_90">
    <path clip-path="url(#pd534af486a)" d="M 158.823232 326.833209 
L 151.792725 339.010393 
" style="fill:none;stroke:#0000ff;stroke-linecap:square;"/>
   </g>
   <g id="line2d_91">
    <path clip-path="url(#pd534af486a)" d="M 67.932098 326.833209 
L 74.962606 339.010393 
" style="fill:none;stroke:#0000ff;stroke-linecap:square;"/>
   </g>
   <g id="line2d_92">
    <path clip-path="url(#pd534af486a)" d="M 113.377665 326.833209 
L 106.347158 339.010393 
" style="fill:none;stroke:#ff0000;stroke-linecap:square;"/>
   </g>
   <g id="line2d_93">
    <path clip-path="url(#pd534af486a)" d="M 295.159933 248.119259 
L 272.437149 287.476234 
" style="fill:none;stroke:#0000ff;stroke-linecap:square;"/>
   </g>
   <g id="line2d_94">
    <path clip-path="url(#pd534af486a)" d="M 272.437149 287.476234 
L 249.714366 326.833209 
" style="fill:none;stroke:#000000;stroke-linecap:square;stroke-width:2;"/>
   </g>
   <g id="line2d_95">
    <path clip-path="url(#pd534af486a)" d="M 317.882716 208.762284 
L 272.437149 208.762284 
" style="fill:none;stroke:#000000;stroke-linecap:square;stroke-width:2;"/>
   </g>
   <g id="line2d_96">
    <path clip-path="url(#pd534af486a)" d="M 317.882716 208.762284 
L 295.159933 248.119259 
" style="fill:none;stroke:#ff0000;stroke-linecap:square;"/>
   </g>
   <g id="line2d_97">
    <path clip-path="url(#pd534af486a)" d="M 295.159933 169.405309 
L 272.437149 208.762284 
" style="fill:none;stroke:#0000ff;stroke-linecap:square;"/>
   </g>
   <g id="line2d_98">
    <path clip-path="url(#pd534af486a)" d="M 295.159933 169.405309 
L 249.714366 169.405309 
" style="fill:none;stroke:#ff0000;stroke-linecap:square;"/>
   </g>
   <g id="line2d_99">
    <path clip-path="url(#pd534af486a)" d="M 204.268799 326.833209 
L 197.238292 339.010393 
" style="fill:none;stroke:#000000;stroke-linecap:square;stroke-width:2;"/>
   </g>
   <g id="line2d_100">
    <path clip-path="url(#pd534af486a)" d="M 158.823232 326.833209 
L 165.853739 339.010393 
" style="fill:none;stroke:#ff0000;stroke-linecap:square;"/>
   </g>
   <g id="line2d_101">
    <path clip-path="url(#pd534af486a)" d="M 204.268799 326.833209 
L 211.299306 339.010393 
" style="fill:none;stroke:#0000ff;stroke-linecap:square;"/>
   </g>
   <g id="line2d_102">
    <path clip-path="url(#pd534af486a)" d="M 249.714366 326.833209 
L 242.683859 339.010393 
" style="fill:none;stroke:#ff0000;stroke-linecap:square;"/>
   </g>
   <g id="line2d_103">
    <path clip-path="url(#pd534af486a)" d="M 136.100449 51.334383 
L 113.377665 90.691358 
" style="fill:none;stroke:#000000;stroke-linecap:square;stroke-width:2;"/>
   </g>
   <g id="line2d_104">
    <path clip-path="url(#pd534af486a)" d="M 136.100449 51.334383 
L 158.823232 90.691358 
" style="fill:none;stroke:#0000ff;stroke-linecap:square;"/>
   </g>
   <g id="line2d_105">
    <path clip-path="url(#pd534af486a)" d="M 67.932098 90.691358 
L 90.654882 51.334383 
" style="fill:none;stroke:#0000ff;stroke-linecap:square;"/>
   </g>
   <g id="line2d_106">
    <path clip-path="url(#pd534af486a)" d="M 90.654882 51.334383 
L 113.377665 90.691358 
" style="fill:none;stroke:#ff0000;stroke-linecap:square;"/>
   </g>
   <g id="line2d_107">
    <path clip-path="url(#pd534af486a)" d="M 272.437149 130.048334 
L 295.159933 169.405309 
" style="fill:none;stroke:#0000ff;stroke-linecap:square;"/>
   </g>
   <g id="line2d_108">
    <path clip-path="url(#pd534af486a)" d="M 249.714366 90.691358 
L 272.437149 130.048334 
" style="fill:none;stroke:#000000;stroke-linecap:square;stroke-width:2;"/>
   </g>
   <g id="line2d_109">
    <path clip-path="url(#pd534af486a)" d="M 181.546016 51.334383 
L 204.268799 90.691358 
" style="fill:none;stroke:#000000;stroke-linecap:square;stroke-width:2;"/>
   </g>
   <g id="line2d_110">
    <path clip-path="url(#pd534af486a)" d="M 181.546016 51.334383 
L 158.823232 90.691358 
" style="fill:none;stroke:#ff0000;stroke-linecap:square;"/>
   </g>
   <g id="line2d_111">
    <path clip-path="url(#pd534af486a)" d="M 226.991582 51.334383 
L 204.268799 90.691358 
" style="fill:none;stroke:#0000ff;stroke-linecap:square;"/>
   </g>
   <g id="line2d_112">
    <path clip-path="url(#pd534af486a)" d="M 226.991582 51.334383 
L 249.714366 90.691358 
" style="fill:none;stroke:#ff0000;stroke-linecap:square;"/>
   </g>
   <g id="line2d_113">
    <path clip-path="url(#pd534af486a)" d="M 317.882716 287.476234 
L 272.437149 287.476234 
" style="fill:none;stroke:#000000;stroke-linecap:square;stroke-width:2;"/>
   </g>
   <g id="line2d_114">
    <path clip-path="url(#pd534af486a)" d="M 295.159933 248.119259 
L 317.882716 287.476234 
" style="fill:none;stroke:#ff0000;stroke-linecap:square;"/>
   </g>
   <g id="line2d_115">
    <path clip-path="url(#pd534af486a)" d="M 272.437149 287.476234 
L 295.159933 326.833209 
" style="fill:none;stroke:#0000ff;stroke-linecap:square;"/>
   </g>
   <g id="line2d_116">
    <path clip-path="url(#pd534af486a)" d="M 295.159933 326.833209 
L 249.714366 326.833209 
" style="fill:none;stroke:#ff0000;stroke-linecap:square;"/>
   </g>
   <g id="line2d_117">
    <path clip-path="url(#pd534af486a)" d="M 295.159933 169.405309 
L 317.882716 208.762284 
" style="fill:none;stroke:#ff0000;stroke-linecap:square;"/>
   </g>
   <g id="line2d_118">
    <path clip-path="url(#pd534af486a)" d="M 317.882716 208.762284 
L 340.6055 248.119259 
" style="fill:none;stroke:#000000;stroke-linecap:square;stroke-width:2;"/>
   </g>
   <g id="line2d_119">
    <path clip-path="url(#pd534af486a)" d="M 340.6055 248.119259 
L 295.159933 248.119259 
" style="fill:none;stroke:#0000ff;stroke-linecap:square;"/>
   </g>
   <g id="line2d_120">
    <path clip-path="url(#pd534af486a)" d="M 249.714366 326.833209 
L 256.744873 339.010393 
" style="fill:none;stroke:#000000;stroke-linecap:square;stroke-width:2;"/>
   </g>
   <g id="line2d_121">
    <path clip-path="url(#pd534af486a)" d="M 136.100449 51.334383 
L 90.654882 51.334383 
" style="fill:none;stroke:#0000ff;stroke-linecap:square;"/>
   </g>
   <g id="line2d_122">
    <path clip-path="url(#pd534af486a)" d="M 181.546016 51.334383 
L 136.100449 51.334383 
" style="fill:none;stroke:#000000;stroke-linecap:square;stroke-width:2;"/>
   </g>
   <g id="line2d_123">
    <path clip-path="url(#pd534af486a)" d="M 90.654882 51.334383 
L 67.932098 51.334383 
" style="fill:none;stroke:#ff0000;stroke-linecap:square;"/>
   </g>
   <g id="line2d_124">
    <path clip-path="url(#pd534af486a)" d="M 317.882716 130.048334 
L 272.437149 130.048334 
" style="fill:none;stroke:#000000;stroke-linecap:square;stroke-width:2;"/>
   </g>
   <g id="line2d_125">
    <path clip-path="url(#pd534af486a)" d="M 317.882716 130.048334 
L 295.159933 169.405309 
" style="fill:none;stroke:#ff0000;stroke-linecap:square;"/>
   </g>
   <g id="line2d_126">
    <path clip-path="url(#pd534af486a)" d="M 295.159933 90.691358 
L 272.437149 130.048334 
" style="fill:none;stroke:#0000ff;stroke-linecap:square;"/>
   </g>
   <g id="line2d_127">
    <path clip-path="url(#pd534af486a)" d="M 295.159933 90.691358 
L 249.714366 90.691358 
" style="fill:none;stroke:#ff0000;stroke-linecap:square;"/>
   </g>
   <g id="line2d_128">
    <path clip-path="url(#pd534af486a)" d="M 226.991582 51.334383 
L 181.546016 51.334383 
" style="fill:none;stroke:#ff0000;stroke-linecap:square;"/>
   </g>
   <g id="line2d_129">
    <path clip-path="url(#pd534af486a)" d="M 272.437149 51.334383 
L 249.714366 90.691358 
" style="fill:none;stroke:#000000;stroke-linecap:square;stroke-width:2;"/>
   </g>
   <g id="line2d_130">
    <path clip-path="url(#pd534af486a)" d="M 272.437149 51.334383 
L 226.991582 51.334383 
" style="fill:none;stroke:#0000ff;stroke-linecap:square;"/>
   </g>
   <g id="line2d_131">
    <path clip-path="url(#pd534af486a)" d="M 317.882716 287.476234 
L 295.159933 326.833209 
" style="fill:none;stroke:#ff0000;stroke-linecap:square;"/>
   </g>
   <g id="line2d_132">
    <path clip-path="url(#pd534af486a)" d="M 340.6055 169.405309 
L 317.882716 208.762284 
" style="fill:none;stroke:#000000;stroke-linecap:square;stroke-width:2;"/>
   </g>
   <g id="line2d_133">
    <path clip-path="url(#pd534af486a)" d="M 340.6055 169.405309 
L 295.159933 169.405309 
" style="fill:none;stroke:#0000ff;stroke-linecap:square;"/>
   </g>
   <g id="line2d_134">
    <path clip-path="url(#pd534af486a)" d="M 363.328283 208.762284 
L 340.6055 248.119259 
" style="fill:none;stroke:#0000ff;stroke-linecap:square;"/>
   </g>
   <g id="line2d_135">
    <path clip-path="url(#pd534af486a)" d="M 363.328283 208.762284 
L 317.882716 208.762284 
" style="fill:none;stroke:#ff0000;stroke-linecap:square;"/>
   </g>
   <g id="line2d_136">
    <path clip-path="url(#pd534af486a)" d="M 340.6055 248.119259 
L 317.882716 287.476234 
" style="fill:none;stroke:#000000;stroke-linecap:square;stroke-width:2;"/>
   </g>
   <g id="line2d_137">
    <path clip-path="url(#pd534af486a)" d="M 295.159933 326.833209 
L 288.129425 339.010393 
" style="fill:none;stroke:#0000ff;stroke-linecap:square;"/>
   </g>
   <g id="line2d_138">
    <path clip-path="url(#pd534af486a)" d="M 118.52418 20.891425 
L 136.100449 51.334383 
" style="fill:none;stroke:#000000;stroke-linecap:square;stroke-width:2;"/>
   </g>
   <g id="line2d_139">
    <path clip-path="url(#pd534af486a)" d="M 108.23115 20.891425 
L 90.654882 51.334383 
" style="fill:none;stroke:#ff0000;stroke-linecap:square;"/>
   </g>
   <g id="line2d_140">
    <path clip-path="url(#pd534af486a)" d="M 153.676717 20.891425 
L 136.100449 51.334383 
" style="fill:none;stroke:#0000ff;stroke-linecap:square;"/>
   </g>
   <g id="line2d_141">
    <path clip-path="url(#pd534af486a)" d="M 163.969747 20.891425 
L 181.546016 51.334383 
" style="fill:none;stroke:#ff0000;stroke-linecap:square;"/>
   </g>
   <g id="line2d_142">
    <path clip-path="url(#pd534af486a)" d="M 73.078614 20.891425 
L 90.654882 51.334383 
" style="fill:none;stroke:#0000ff;stroke-linecap:square;"/>
   </g>
   <g id="line2d_143">
    <path clip-path="url(#pd534af486a)" d="M 295.159933 90.691358 
L 317.882716 130.048334 
" style="fill:none;stroke:#ff0000;stroke-linecap:square;"/>
   </g>
   <g id="line2d_144">
    <path clip-path="url(#pd534af486a)" d="M 199.122284 20.891425 
L 181.546016 51.334383 
" style="fill:none;stroke:#000000;stroke-linecap:square;stroke-width:2;"/>
   </g>
   <g id="line2d_145">
    <path clip-path="url(#pd534af486a)" d="M 209.415314 20.891425 
L 226.991582 51.334383 
" style="fill:none;stroke:#0000ff;stroke-linecap:square;"/>
   </g>
   <g id="line2d_146">
    <path clip-path="url(#pd534af486a)" d="M 272.437149 51.334383 
L 295.159933 90.691358 
" style="fill:none;stroke:#0000ff;stroke-linecap:square;"/>
   </g>
   <g id="line2d_147">
    <path clip-path="url(#pd534af486a)" d="M 254.860881 20.891425 
L 272.437149 51.334383 
" style="fill:none;stroke:#000000;stroke-linecap:square;stroke-width:2;"/>
   </g>
   <g id="line2d_148">
    <path clip-path="url(#pd534af486a)" d="M 244.567851 20.891425 
L 226.991582 51.334383 
" style="fill:none;stroke:#ff0000;stroke-linecap:square;"/>
   </g>
   <g id="line2d_149">
    <path clip-path="url(#pd534af486a)" d="M 317.882716 287.476234 
L 340.6055 326.833209 
" style="fill:none;stroke:#000000;stroke-linecap:square;stroke-width:2;"/>
   </g>
   <g id="line2d_150">
    <path clip-path="url(#pd534af486a)" d="M 340.6055 326.833209 
L 295.159933 326.833209 
" style="fill:none;stroke:#0000ff;stroke-linecap:square;"/>
   </g>
   <g id="line2d_151">
    <path clip-path="url(#pd534af486a)" d="M 340.6055 169.405309 
L 363.328283 208.762284 
" style="fill:none;stroke:#0000ff;stroke-linecap:square;"/>
   </g>
   <g id="line2d_152">
    <path clip-path="url(#pd534af486a)" d="M 317.882716 130.048334 
L 340.6055 169.405309 
" style="fill:none;stroke:#000000;stroke-linecap:square;stroke-width:2;"/>
   </g>
   <g id="line2d_153">
    <path clip-path="url(#pd534af486a)" d="M 386.051067 248.119259 
L 340.6055 248.119259 
" style="fill:none;stroke:#000000;stroke-linecap:square;stroke-width:2;"/>
   </g>
   <g id="line2d_154">
    <path clip-path="url(#pd534af486a)" d="M 386.051067 248.119259 
L 363.328283 208.762284 
" style="fill:none;stroke:#ff0000;stroke-linecap:square;"/>
   </g>
   <g id="line2d_155">
    <path clip-path="url(#pd534af486a)" d="M 340.6055 248.119259 
L 363.328283 287.476234 
" style="fill:none;stroke:#0000ff;stroke-linecap:square;"/>
   </g>
   <g id="line2d_156">
    <path clip-path="url(#pd534af486a)" d="M 363.328283 287.476234 
L 317.882716 287.476234 
" style="fill:none;stroke:#ff0000;stroke-linecap:square;"/>
   </g>
   <g id="line2d_157">
    <path clip-path="url(#pd534af486a)" d="M 295.159933 326.833209 
L 302.19044 339.010393 
" style="fill:none;stroke:#ff0000;stroke-linecap:square;"/>
   </g>
   <g id="line2d_158">
    <path clip-path="url(#pd534af486a)" d="M 340.6055 90.691358 
L 317.882716 130.048334 
" style="fill:none;stroke:#000000;stroke-linecap:square;stroke-width:2;"/>
   </g>
   <g id="line2d_159">
    <path clip-path="url(#pd534af486a)" d="M 340.6055 90.691358 
L 295.159933 90.691358 
" style="fill:none;stroke:#0000ff;stroke-linecap:square;"/>
   </g>
   <g id="line2d_160">
    <path clip-path="url(#pd534af486a)" d="M 317.882716 51.334383 
L 272.437149 51.334383 
" style="fill:none;stroke:#000000;stroke-linecap:square;stroke-width:2;"/>
   </g>
   <g id="line2d_161">
    <path clip-path="url(#pd534af486a)" d="M 317.882716 51.334383 
L 295.159933 90.691358 
" style="fill:none;stroke:#ff0000;stroke-linecap:square;"/>
   </g>
   <g id="line2d_162">
    <path clip-path="url(#pd534af486a)" d="M 290.013418 20.891425 
L 272.437149 51.334383 
" style="fill:none;stroke:#0000ff;stroke-linecap:square;"/>
   </g>
   <g id="line2d_163">
    <path clip-path="url(#pd534af486a)" d="M 363.328283 287.476234 
L 340.6055 326.833209 
" style="fill:none;stroke:#0000ff;stroke-linecap:square;"/>
   </g>
   <g id="line2d_164">
    <path clip-path="url(#pd534af486a)" d="M 340.6055 326.833209 
L 333.574992 339.010393 
" style="fill:none;stroke:#000000;stroke-linecap:square;stroke-width:2;"/>
   </g>
   <g id="line2d_165">
    <path clip-path="url(#pd534af486a)" d="M 386.051067 169.405309 
L 340.6055 169.405309 
" style="fill:none;stroke:#000000;stroke-linecap:square;stroke-width:2;"/>
   </g>
   <g id="line2d_166">
    <path clip-path="url(#pd534af486a)" d="M 386.051067 169.405309 
L 363.328283 208.762284 
" style="fill:none;stroke:#ff0000;stroke-linecap:square;"/>
   </g>
   <g id="line2d_167">
    <path clip-path="url(#pd534af486a)" d="M 363.328283 130.048334 
L 340.6055 169.405309 
" style="fill:none;stroke:#0000ff;stroke-linecap:square;"/>
   </g>
   <g id="line2d_168">
    <path clip-path="url(#pd534af486a)" d="M 363.328283 130.048334 
L 317.882716 130.048334 
" style="fill:none;stroke:#ff0000;stroke-linecap:square;"/>
   </g>
   <g id="line2d_169">
    <path clip-path="url(#pd534af486a)" d="M 386.051067 248.119259 
L 363.328283 287.476234 
" style="fill:none;stroke:#ff0000;stroke-linecap:square;"/>
   </g>
   <g id="line2d_170">
    <path clip-path="url(#pd534af486a)" d="M 386.051067 208.762284 
L 363.328283 208.762284 
" style="fill:none;stroke:#0000ff;stroke-linecap:square;"/>
   </g>
   <g id="line2d_171">
    <path clip-path="url(#pd534af486a)" d="M 340.6055 90.691358 
L 363.328283 130.048334 
" style="fill:none;stroke:#0000ff;stroke-linecap:square;"/>
   </g>
   <g id="line2d_172">
    <path clip-path="url(#pd534af486a)" d="M 317.882716 51.334383 
L 340.6055 90.691358 
" style="fill:none;stroke:#000000;stroke-linecap:square;stroke-width:2;"/>
   </g>
   <g id="line2d_173">
    <path clip-path="url(#pd534af486a)" d="M 300.306448 20.891425 
L 317.882716 51.334383 
" style="fill:none;stroke:#ff0000;stroke-linecap:square;"/>
   </g>
   <g id="line2d_174">
    <path clip-path="url(#pd534af486a)" d="M 386.051067 326.833209 
L 340.6055 326.833209 
" style="fill:none;stroke:#000000;stroke-linecap:square;stroke-width:2;"/>
   </g>
   <g id="line2d_175">
    <path clip-path="url(#pd534af486a)" d="M 386.051067 326.833209 
L 363.328283 287.476234 
" style="fill:none;stroke:#ff0000;stroke-linecap:square;"/>
   </g>
   <g id="line2d_176">
    <path clip-path="url(#pd534af486a)" d="M 340.6055 326.833209 
L 347.636007 339.010393 
" style="fill:none;stroke:#0000ff;stroke-linecap:square;"/>
   </g>
   <g id="line2d_177">
    <path clip-path="url(#pd534af486a)" d="M 386.051067 169.405309 
L 363.328283 130.048334 
" style="fill:none;stroke:#ff0000;stroke-linecap:square;"/>
   </g>
   <g id="line2d_178">
    <path clip-path="url(#pd534af486a)" d="M 386.051067 287.476234 
L 363.328283 287.476234 
" style="fill:none;stroke:#0000ff;stroke-linecap:square;"/>
   </g>
   <g id="line2d_179">
    <path clip-path="url(#pd534af486a)" d="M 386.051067 90.691358 
L 340.6055 90.691358 
" style="fill:none;stroke:#000000;stroke-linecap:square;stroke-width:2;"/>
   </g>
   <g id="line2d_180">
    <path clip-path="url(#pd534af486a)" d="M 386.051067 90.691358 
L 363.328283 130.048334 
" style="fill:none;stroke:#ff0000;stroke-linecap:square;"/>
   </g>
   <g id="line2d_181">
    <path clip-path="url(#pd534af486a)" d="M 363.328283 51.334383 
L 340.6055 90.691358 
" style="fill:none;stroke:#0000ff;stroke-linecap:square;"/>
   </g>
   <g id="line2d_182">
    <path clip-path="url(#pd534af486a)" d="M 363.328283 51.334383 
L 317.882716 51.334383 
" style="fill:none;stroke:#ff0000;stroke-linecap:square;"/>
   </g>
   <g id="line2d_183">
    <path clip-path="url(#pd534af486a)" d="M 335.458985 20.891425 
L 317.882716 51.334383 
" style="fill:none;stroke:#000000;stroke-linecap:square;stroke-width:2;"/>
   </g>
   <g id="line2d_184">
    <path clip-path="url(#pd534af486a)" d="M 386.051067 326.833209 
L 379.020559 339.010393 
" style="fill:none;stroke:#ff0000;stroke-linecap:square;"/>
   </g>
   <g id="line2d_185">
    <path clip-path="url(#pd534af486a)" d="M 386.051067 130.048334 
L 363.328283 130.048334 
" style="fill:none;stroke:#0000ff;stroke-linecap:square;"/>
   </g>
   <g id="line2d_186">
    <path clip-path="url(#pd534af486a)" d="M 386.051067 90.691358 
L 363.328283 51.334383 
" style="fill:none;stroke:#ff0000;stroke-linecap:square;"/>
   </g>
   <g id="line2d_187">
    <path clip-path="url(#pd534af486a)" d="M 345.752015 20.891425 
L 363.328283 51.334383 
" style="fill:none;stroke:#0000ff;stroke-linecap:square;"/>
   </g>
   <g id="line2d_188">
    <path clip-path="url(#pd534af486a)" d="M 386.051067 51.334383 
L 363.328283 51.334383 
" style="fill:none;stroke:#0000ff;stroke-linecap:square;"/>
   </g>
   <g id="line2d_189">
    <path clip-path="url(#pd534af486a)" d="M 380.904551 20.891425 
L 363.328283 51.334383 
" style="fill:none;stroke:#ff0000;stroke-linecap:square;"/>
   </g>
   <g id="matplotlib.axis_1"/>
   <g id="matplotlib.axis_2"/>
   <g id="patch_4">
    <path clip-path="url(#pd534af486a)" d="M 158.823232 248.119259 
Q 158.823232 287.476234 158.823232 324.597141 
" style="fill:none;stroke:#000000;stroke-linecap:round;stroke-width:2;"/>
    <path clip-path="url(#pd534af486a)" d="M 163.823232 314.597141 
L 158.823232 324.597141 
L 153.823232 314.597141 
L 163.823232 314.597141 
z
" style="stroke:#000000;stroke-linecap:round;stroke-width:2;"/>
   </g>
   <g id="patch_5">
    <path clip-path="url(#pd534af486a)" d="M 158.823232 248.119259 
Q 192.907407 228.440771 225.05509 209.880317 
" style="fill:none;stroke:#0000ff;stroke-linecap:round;stroke-width:2;"/>
    <path clip-path="url(#pd534af486a)" d="M 213.894836 210.550185 
L 225.05509 209.880317 
L 218.894832 219.210441 
L 213.894836 210.550185 
z
" style="fill:#0000ff;stroke:#0000ff;stroke-linecap:round;stroke-width:2;"/>
   </g>
   <g id="patch_6">
    <path clip-path="url(#pd534af486a)" d="M 158.823232 248.119259 
Q 124.739057 228.440771 92.591374 209.880317 
" style="fill:none;stroke:#ff0000;stroke-linecap:round;stroke-width:2;"/>
    <path clip-path="url(#pd534af486a)" d="M 98.751632 219.210441 
L 92.591374 209.880317 
L 103.751628 210.550185 
L 98.751632 219.210441 
z
" style="fill:#ff0000;stroke:#ff0000;stroke-linecap:round;stroke-width:2;"/>
   </g>
   <g id="patch_7">
    <path clip-path="url(#pd534af486a)" d="M 158.823232 248.119259 
Q 170.184624 228.440771 180.427981 210.698775 
" style="fill:none;stroke:#0000ff;stroke-linecap:round;stroke-width:2;"/>
    <path clip-path="url(#pd534af486a)" d="M 171.097851 216.859025 
L 180.427981 210.698775 
L 179.758103 221.859029 
L 171.097851 216.859025 
z
" style="fill:#0000ff;stroke:#0000ff;stroke-linecap:round;stroke-width:2;"/>
   </g>
   <g id="patch_8">
    <path clip-path="url(#pd534af486a)" d="M 158.823232 248.119259 
Q 147.46184 228.440771 137.218484 210.698775 
" style="fill:none;stroke:#ff0000;stroke-linecap:round;stroke-width:2;"/>
    <path clip-path="url(#pd534af486a)" d="M 137.888362 221.859029 
L 137.218484 210.698775 
L 146.548613 216.859025 
L 137.888362 221.859029 
z
" style="fill:#ff0000;stroke:#ff0000;stroke-linecap:round;stroke-width:2;"/>
   </g>
   <g id="patch_9">
    <path clip-path="url(#pd534af486a)" d="M 158.823232 221.881276 
Q 158.823232 208.762284 158.823232 197.87936 
" style="fill:none;stroke:#008000;stroke-linecap:round;stroke-width:2;"/>
    <path clip-path="url(#pd534af486a)" d="M 153.823232 207.87936 
L 158.823232 197.87936 
L 163.823232 207.87936 
L 153.823232 207.87936 
z
" style="fill:#008000;stroke:#008000;stroke-linecap:round;stroke-width:2;"/>
   </g>
   <g id="patch_10">
    <path clip-path="url(#pd534af486a)" d="M 158.823232 195.643292 
Q 170.184624 189.083796 179.609523 183.642334 
" style="fill:none;stroke:#008000;stroke-linecap:round;stroke-width:2;"/>
    <path clip-path="url(#pd534af486a)" d="M 168.449269 184.312202 
L 179.609523 183.642334 
L 173.449265 192.972458 
L 168.449269 184.312202 
z
" style="fill:#008000;stroke:#008000;stroke-linecap:round;stroke-width:2;"/>
   </g>
   <g id="patch_11">
    <path clip-path="url(#pd534af486a)" d="M 181.546016 182.5243 
Q 192.907407 189.083796 202.332307 194.525259 
" style="fill:none;stroke:#008000;stroke-linecap:round;stroke-width:2;"/>
    <path clip-path="url(#pd534af486a)" d="M 196.172049 185.195135 
L 202.332307 194.525259 
L 191.172053 193.855391 
L 196.172049 185.195135 
z
" style="fill:#008000;stroke:#008000;stroke-linecap:round;stroke-width:2;"/>
   </g>
   <g id="patch_12">
    <path clip-path="url(#pd534af486a)" d="M 204.268799 195.643292 
Q 215.630191 189.083796 225.05509 183.642334 
" style="fill:none;stroke:#008000;stroke-linecap:round;stroke-width:2;"/>
    <path clip-path="url(#pd534af486a)" d="M 213.894836 184.312202 
L 225.05509 183.642334 
L 218.894832 192.972458 
L 213.894836 184.312202 
z
" style="fill:#008000;stroke:#008000;stroke-linecap:round;stroke-width:2;"/>
   </g>
   <g id="patch_13">
    <path clip-path="url(#pd534af486a)" d="M 226.991582 182.5243 
Q 226.991582 169.405309 226.991582 158.522385 
" style="fill:none;stroke:#008000;stroke-linecap:round;stroke-width:2;"/>
    <path clip-path="url(#pd534af486a)" d="M 221.991582 168.522385 
L 226.991582 158.522385 
L 231.991582 168.522385 
L 221.991582 168.522385 
z
" style="fill:#008000;stroke:#008000;stroke-linecap:round;stroke-width:2;"/>
   </g>
   <g id="patch_14">
    <path clip-path="url(#pd534af486a)" d="M 226.991582 156.286317 
Q 238.352974 149.726821 247.777874 144.285358 
" style="fill:none;stroke:#008000;stroke-linecap:round;stroke-width:2;"/>
    <path clip-path="url(#pd534af486a)" d="M 236.617619 144.955226 
L 247.777874 144.285358 
L 241.617616 153.615483 
L 236.617619 144.955226 
z
" style="fill:#008000;stroke:#008000;stroke-linecap:round;stroke-width:2;"/>
   </g>
   <g id="patch_15">
    <path clip-path="url(#pd534af486a)" d="M 249.714366 143.167325 
Q 261.075758 149.726821 270.500657 155.168284 
" style="fill:none;stroke:#008000;stroke-linecap:round;stroke-width:2;"/>
    <path clip-path="url(#pd534af486a)" d="M 264.340399 145.83816 
L 270.500657 155.168284 
L 259.340403 154.498416 
L 264.340399 145.83816 
z
" style="fill:#008000;stroke:#008000;stroke-linecap:round;stroke-width:2;"/>
   </g>
   <g id="patch_16">
    <path clip-path="url(#pd534af486a)" d="M 272.437149 156.286317 
Q 283.798541 149.726821 293.223441 144.285358 
" style="fill:none;stroke:#008000;stroke-linecap:round;stroke-width:2;"/>
    <path clip-path="url(#pd534af486a)" d="M 282.063186 144.955226 
L 293.223441 144.285358 
L 287.063182 153.615483 
L 282.063186 144.955226 
z
" style="fill:#008000;stroke:#008000;stroke-linecap:round;stroke-width:2;"/>
   </g>
   <g id="patch_17">
    <path clip-path="url(#pd534af486a)" d="M 295.159933 143.167325 
Q 295.159933 130.048334 295.159933 119.16541 
" style="fill:none;stroke:#008000;stroke-linecap:round;stroke-width:2;"/>
    <path clip-path="url(#pd534af486a)" d="M 290.159933 129.16541 
L 295.159933 119.16541 
L 300.159933 129.16541 
L 290.159933 129.16541 
z
" style="fill:#008000;stroke:#008000;stroke-linecap:round;stroke-width:2;"/>
   </g>
   <g id="patch_18">
    <path clip-path="url(#pd534af486a)" d="M 295.159933 116.929342 
Q 306.521325 110.369846 315.946224 104.928383 
" style="fill:none;stroke:#008000;stroke-linecap:round;stroke-width:2;"/>
    <path clip-path="url(#pd534af486a)" d="M 304.78597 105.598251 
L 315.946224 104.928383 
L 309.785966 114.258508 
L 304.78597 105.598251 
z
" style="fill:#008000;stroke:#008000;stroke-linecap:round;stroke-width:2;"/>
   </g>
   <g id="patch_19">
    <path clip-path="url(#pd534af486a)" d="M 317.882716 103.81035 
Q 317.882716 90.691358 317.882716 79.808435 
" style="fill:none;stroke:#008000;stroke-linecap:round;stroke-width:2;"/>
    <path clip-path="url(#pd534af486a)" d="M 312.882716 89.808435 
L 317.882716 79.808435 
L 322.882716 89.808435 
L 312.882716 89.808435 
z
" style="fill:#008000;stroke:#008000;stroke-linecap:round;stroke-width:2;"/>
   </g>
   <g id="patch_20">
    <path clip-path="url(#pd534af486a)" d="M 317.882716 77.572367 
Q 329.244108 71.012871 338.669007 65.571408 
" style="fill:none;stroke:#008000;stroke-linecap:round;stroke-width:2;"/>
    <path clip-path="url(#pd534af486a)" d="M 327.508753 66.241276 
L 338.669007 65.571408 
L 332.508749 74.901532 
L 327.508753 66.241276 
z
" style="fill:#008000;stroke:#008000;stroke-linecap:round;stroke-width:2;"/>
   </g>
   <g id="patch_21">
    <path clip-path="url(#pd534af486a)" d="M 158.823232 248.119259 
Q 249.714366 169.405309 338.91519 92.155208 
" style="fill:none;stroke:#000000;stroke-linecap:round;stroke-width:2;"/>
    <path clip-path="url(#pd534af486a)" d="M 328.082631 94.922094 
L 338.91519 92.155208 
L 334.629164 102.481387 
L 328.082631 94.922094 
z
" style="stroke:#000000;stroke-linecap:round;stroke-width:2;"/>
   </g>
   <g id="text_1">
    <!-- $\alpha_{0}$ -->
    <g transform="translate(150.873232 334.907969)scale(0.15 -0.15)">
     <defs>
      <path d="M 20.125 -1.125 
Q 15.375 -1.125 11.6875 1.125 
Q 8.015625 3.375 6 7.171875 
Q 4 10.984375 4 15.828125 
Q 4 22.609375 7.78125 29.25 
Q 11.578125 35.890625 17.84375 40.03125 
Q 24.125 44.1875 31 44.1875 
Q 36.078125 44.1875 39.9375 41.53125 
Q 43.796875 38.875 45.796875 34.453125 
Q 47.796875 30.03125 47.796875 25 
L 47.90625 18.3125 
Q 51.3125 23.046875 53.6875 28.140625 
Q 56.0625 33.25 57.328125 38.71875 
Q 57.515625 39.3125 58.109375 39.3125 
L 59.28125 39.3125 
Q 60.203125 39.3125 60.203125 38.375 
Q 60.203125 38.28125 60.109375 38.09375 
Q 58.9375 33.5 57.171875 29.265625 
Q 55.421875 25.046875 53.046875 21.09375 
Q 50.6875 17.140625 47.90625 13.921875 
Q 47.90625 1.515625 50.78125 1.515625 
Q 52.640625 1.515625 53.828125 2.609375 
Q 55.03125 3.71875 55.9375 5.328125 
Q 56.84375 6.9375 57.078125 6.984375 
L 58.296875 6.984375 
Q 59.078125 6.984375 59.078125 6 
Q 59.078125 3.515625 56.21875 1.1875 
Q 53.375 -1.125 50.59375 -1.125 
Q 46.96875 -1.125 44.578125 1.21875 
Q 42.1875 3.5625 41.3125 7.328125 
Q 36.625 3.328125 31.15625 1.09375 
Q 25.6875 -1.125 20.125 -1.125 
z
M 20.3125 1.515625 
Q 31 1.515625 40.828125 10.296875 
Q 40.765625 10.890625 40.671875 11.734375 
Q 40.578125 12.59375 40.578125 12.703125 
L 40.578125 23.484375 
Q 40.578125 41.609375 30.8125 41.609375 
Q 24.953125 41.609375 20.546875 36.59375 
Q 16.15625 31.59375 13.9375 24.625 
Q 11.71875 17.671875 11.71875 11.921875 
Q 11.71875 7.5625 13.9375 4.53125 
Q 16.15625 1.515625 20.3125 1.515625 
z
" id="Cmmi10-174"/>
      <path d="M 25 -2.203125 
Q 12.75 -2.203125 8.328125 7.875 
Q 3.90625 17.96875 3.90625 31.890625 
Q 3.90625 40.578125 5.484375 48.234375 
Q 7.078125 55.90625 11.78125 61.25 
Q 16.5 66.609375 25 66.609375 
Q 31.59375 66.609375 35.78125 63.375 
Q 39.984375 60.15625 42.1875 55.046875 
Q 44.390625 49.953125 45.1875 44.109375 
Q 46 38.28125 46 31.890625 
Q 46 23.296875 44.40625 15.796875 
Q 42.828125 8.296875 38.1875 3.046875 
Q 33.546875 -2.203125 25 -2.203125 
z
M 25 0.390625 
Q 30.5625 0.390625 33.296875 6.09375 
Q 36.03125 11.8125 36.671875 18.75 
Q 37.3125 25.6875 37.3125 33.5 
Q 37.3125 41.015625 36.671875 47.359375 
Q 36.03125 53.71875 33.3125 58.859375 
Q 30.609375 64.015625 25 64.015625 
Q 19.34375 64.015625 16.609375 58.828125 
Q 13.875 53.65625 13.234375 47.328125 
Q 12.59375 41.015625 12.59375 33.5 
Q 12.59375 27.9375 12.859375 23 
Q 13.140625 18.0625 14.3125 12.8125 
Q 15.484375 7.5625 18.09375 3.96875 
Q 20.703125 0.390625 25 0.390625 
z
" id="Cmr10-48"/>
     </defs>
     <use transform="translate(0 0.8125)" xlink:href="#Cmmi10-174"/>
     <use transform="translate(63.916016 -16.19375)scale(0.7)" xlink:href="#Cmr10-48"/>
    </g>
   </g>
   <g id="text_2">
    <!-- $\alpha_{1}$ -->
    <g transform="translate(222.45 210.933498)scale(0.15 -0.15)">
     <defs>
      <path d="M 9.28125 0 
L 9.28125 3.515625 
Q 21.78125 3.515625 21.78125 6.6875 
L 21.78125 59.1875 
Q 16.609375 56.6875 8.6875 56.6875 
L 8.6875 60.203125 
Q 20.953125 60.203125 27.203125 66.609375 
L 28.609375 66.609375 
Q 28.953125 66.609375 29.265625 66.328125 
Q 29.59375 66.0625 29.59375 65.71875 
L 29.59375 6.6875 
Q 29.59375 3.515625 42.09375 3.515625 
L 42.09375 0 
z
" id="Cmr10-49"/>
     </defs>
     <use transform="translate(0 0.8125)" xlink:href="#Cmmi10-174"/>
     <use transform="translate(63.916016 -16.19375)scale(0.7)" xlink:href="#Cmr10-49"/>
    </g>
   </g>
   <g id="text_3">
    <!-- $\alpha_{2}$ -->
    <g transform="translate(79.296464 210.933498)scale(0.15 -0.15)">
     <defs>
      <path d="M 4.984375 0 
L 4.984375 2.6875 
Q 4.984375 2.9375 5.171875 3.21875 
L 20.703125 20.40625 
Q 24.21875 24.21875 26.40625 26.796875 
Q 28.609375 29.390625 30.75 32.765625 
Q 32.90625 36.140625 34.15625 39.625 
Q 35.40625 43.109375 35.40625 47.015625 
Q 35.40625 51.125 33.890625 54.859375 
Q 32.375 58.59375 29.375 60.84375 
Q 26.375 63.09375 22.125 63.09375 
Q 17.78125 63.09375 14.3125 60.46875 
Q 10.84375 57.859375 9.421875 53.71875 
Q 9.8125 53.8125 10.5 53.8125 
Q 12.75 53.8125 14.328125 52.296875 
Q 15.921875 50.78125 15.921875 48.390625 
Q 15.921875 46.09375 14.328125 44.5 
Q 12.75 42.921875 10.5 42.921875 
Q 8.15625 42.921875 6.5625 44.546875 
Q 4.984375 46.1875 4.984375 48.390625 
Q 4.984375 52.15625 6.390625 55.4375 
Q 7.8125 58.734375 10.46875 61.296875 
Q 13.140625 63.875 16.484375 65.234375 
Q 19.828125 66.609375 23.578125 66.609375 
Q 29.296875 66.609375 34.21875 64.1875 
Q 39.15625 61.765625 42.03125 57.34375 
Q 44.921875 52.9375 44.921875 47.015625 
Q 44.921875 42.671875 43.015625 38.765625 
Q 41.109375 34.859375 38.125 31.65625 
Q 35.15625 28.46875 30.515625 24.40625 
Q 25.875 20.359375 24.421875 19 
L 13.09375 8.109375 
L 22.703125 8.109375 
Q 29.78125 8.109375 34.546875 8.21875 
Q 39.3125 8.34375 39.59375 8.59375 
Q 40.765625 9.859375 42 17.828125 
L 44.921875 17.828125 
L 42.09375 0 
z
" id="Cmr10-50"/>
     </defs>
     <use transform="translate(0 0.8125)" xlink:href="#Cmmi10-174"/>
     <use transform="translate(63.916016 -16.19375)scale(0.7)" xlink:href="#Cmr10-50"/>
    </g>
   </g>
   <g id="text_4">
    <!-- $\Lambda_{0}$ -->
    <g transform="translate(150.123232 252.258322)scale(0.15 -0.15)">
     <defs>
      <path d="M 3.21875 0 
L 3.21875 3.515625 
Q 11.03125 3.515625 12.984375 9.421875 
L 32.515625 70.515625 
Q 32.859375 71.578125 33.984375 71.578125 
L 35.296875 71.578125 
Q 35.84375 71.578125 36.25 71.28125 
Q 36.671875 71 36.8125 70.515625 
L 57.171875 6.6875 
Q 58.0625 4.546875 60.296875 4.03125 
Q 62.546875 3.515625 66.109375 3.515625 
L 66.109375 0 
L 39.015625 0 
L 39.015625 3.515625 
Q 47.515625 3.515625 47.515625 6.203125 
Q 47.515625 6.5 47.40625 6.6875 
L 31.59375 56.296875 
L 16.703125 9.421875 
Q 16.5 8.734375 16.5 8.40625 
Q 16.5 5.90625 18.96875 4.703125 
Q 21.4375 3.515625 24.21875 3.515625 
L 24.21875 0 
z
" id="Cmr10-164"/>
     </defs>
     <use transform="translate(0 0.421875)" xlink:href="#Cmr10-164"/>
     <use transform="translate(73.848906 -16.584375)scale(0.7)" xlink:href="#Cmr10-48"/>
    </g>
   </g>
   <g id="text_5">
    <!-- $\Lambda_{1}$ -->
    <g transform="translate(173.982155 210.933498)scale(0.15 -0.15)">
     <use transform="translate(0 0.421875)" xlink:href="#Cmr10-164"/>
     <use transform="translate(73.848906 -16.584375)scale(0.7)" xlink:href="#Cmr10-49"/>
    </g>
   </g>
   <g id="text_6">
    <!-- $\Lambda_{2}$ -->
    <g transform="translate(126.26431 210.933498)scale(0.15 -0.15)">
     <use transform="translate(0 0.421875)" xlink:href="#Cmr10-164"/>
     <use transform="translate(73.848906 -16.584375)scale(0.7)" xlink:href="#Cmr10-50"/>
    </g>
   </g>
   <g id="text_7">
    <!-- $H_{\alpha^\vee_{0}}$ -->
    <g transform="translate(382.937458 209.269435)scale(0.15 -0.15)">
     <defs>
      <path d="M 4.6875 0 
Q 3.71875 0 3.71875 1.3125 
Q 3.765625 1.5625 3.90625 2.171875 
Q 4.046875 2.78125 4.3125 3.140625 
Q 4.59375 3.515625 4.984375 3.515625 
Q 11.078125 3.515625 13.484375 4.203125 
Q 14.796875 4.640625 15.375 6.890625 
L 29.109375 61.8125 
Q 29.296875 62.796875 29.296875 63.1875 
Q 29.296875 64.265625 28.078125 64.40625 
Q 26.21875 64.796875 20.90625 64.796875 
Q 19.921875 64.796875 19.921875 66.109375 
Q 20.265625 67.390625 20.453125 67.84375 
Q 20.65625 68.3125 21.578125 68.3125 
L 48.484375 68.3125 
Q 49.515625 68.3125 49.515625 67 
Q 49.46875 66.75 49.3125 66.15625 
Q 49.171875 65.578125 48.921875 65.1875 
Q 48.6875 64.796875 48.1875 64.796875 
Q 42.09375 64.796875 39.703125 64.109375 
Q 38.375 63.625 37.796875 61.375 
L 31.78125 37.3125 
L 61.8125 37.3125 
L 67.921875 61.8125 
Q 68.109375 62.796875 68.109375 63.1875 
Q 68.109375 64.265625 66.890625 64.40625 
Q 64.984375 64.796875 59.71875 64.796875 
Q 58.6875 64.796875 58.6875 66.109375 
Q 59.03125 67.390625 59.21875 67.84375 
Q 59.421875 68.3125 60.40625 68.3125 
L 87.3125 68.3125 
Q 88.28125 68.3125 88.28125 67 
Q 88.234375 66.75 88.078125 66.140625 
Q 87.9375 65.53125 87.671875 65.15625 
Q 87.40625 64.796875 87.015625 64.796875 
Q 80.90625 64.796875 78.515625 64.109375 
Q 77.203125 63.671875 76.609375 61.375 
L 62.890625 6.5 
Q 62.703125 5.515625 62.703125 5.078125 
Q 62.703125 4.046875 63.921875 3.90625 
Q 65.828125 3.515625 71.09375 3.515625 
Q 72.125 3.515625 72.125 2.203125 
Q 71.828125 1.03125 71.53125 0.515625 
Q 71.234375 0 70.40625 0 
L 43.5 0 
Q 42.484375 0 42.484375 1.3125 
Q 42.671875 2.046875 42.765625 2.390625 
Q 42.875 2.734375 43.140625 3.125 
Q 43.40625 3.515625 43.796875 3.515625 
Q 49.90625 3.515625 52.296875 4.203125 
Q 53.609375 4.640625 54.203125 6.890625 
L 60.890625 33.796875 
L 30.90625 33.796875 
L 24.125 6.5 
Q 23.875 5.28125 23.875 5.078125 
Q 23.875 4.046875 25.09375 3.90625 
Q 27 3.515625 32.328125 3.515625 
Q 33.296875 3.515625 33.296875 2.203125 
Q 32.953125 0.875 32.734375 0.4375 
Q 32.515625 0 31.59375 0 
z
" id="Cmmi10-72"/>
      <path d="M 31.5 -0.984375 
L 5.8125 57.078125 
Q 5.609375 57.328125 5.609375 57.8125 
Q 5.609375 58.546875 6.1875 59.171875 
Q 6.78125 59.8125 7.625 59.8125 
Q 8.734375 59.8125 9.515625 58.59375 
L 33.296875 4.6875 
L 57.171875 58.59375 
Q 57.765625 59.8125 58.984375 59.8125 
Q 59.8125 59.8125 60.390625 59.21875 
Q 60.984375 58.640625 60.984375 57.8125 
Q 60.984375 57.328125 60.890625 57.078125 
L 35.203125 -0.984375 
Q 34.578125 -2.203125 33.296875 -2.203125 
Q 31.984375 -2.203125 31.5 -0.984375 
z
" id="Cmsy10-95"/>
     </defs>
     <use transform="translate(0 0.6875)" xlink:href="#Cmmi10-72"/>
     <use transform="translate(83.105469 -16.31875)scale(0.7)" xlink:href="#Cmmi10-174"/>
     <use transform="translate(140.862688 10.466094)scale(0.49)" xlink:href="#Cmsy10-95"/>
     <use transform="translate(127.84668 -34.175313)scale(0.49)" xlink:href="#Cmr10-48"/>
    </g>
   </g>
   <g id="text_8">
    <!-- $H_{\alpha^\vee_{1}}$ -->
    <g transform="translate(48.912542 85.369963)scale(0.15 -0.15)">
     <use transform="translate(0 0.6875)" xlink:href="#Cmmi10-72"/>
     <use transform="translate(83.105469 -16.31875)scale(0.7)" xlink:href="#Cmmi10-174"/>
     <use transform="translate(140.862688 10.466094)scale(0.49)" xlink:href="#Cmsy10-95"/>
     <use transform="translate(127.84668 -34.175313)scale(0.49)" xlink:href="#Cmr10-49"/>
    </g>
   </g>
   <g id="text_9">
    <!-- $H_{\alpha^\vee_{2}}$ -->
    <g transform="translate(282.097927 12.080033)scale(0.15 -0.15)">
     <use transform="translate(0 0.6875)" xlink:href="#Cmmi10-72"/>
     <use transform="translate(83.105469 -16.31875)scale(0.7)" xlink:href="#Cmmi10-174"/>
     <use transform="translate(140.862688 10.466094)scale(0.49)" xlink:href="#Cmsy10-95"/>
     <use transform="translate(127.84668 -34.175313)scale(0.49)" xlink:href="#Cmr10-50"/>
    </g>
   </g>
   <g id="text_10">
    <!-- $-4\Lambda_{0} + 6\Lambda_{1} - 2\Lambda_{2}$ -->
    <g transform="translate(289.769613 86.959026)scale(0.15 -0.15)">
     <defs>
      <path d="M 10.203125 23 
Q 9.375 23 8.828125 23.625 
Q 8.296875 24.265625 8.296875 25 
Q 8.296875 25.734375 8.828125 26.359375 
Q 9.375 27 10.203125 27 
L 67.578125 27 
Q 68.359375 27 68.875 26.359375 
Q 69.390625 25.734375 69.390625 25 
Q 69.390625 24.265625 68.875 23.625 
Q 68.359375 23 67.578125 23 
z
" id="Cmsy10-161"/>
      <path d="M 2.78125 16.5 
L 2.78125 20.015625 
L 33.6875 66.109375 
Q 34.03125 66.609375 34.71875 66.609375 
L 36.1875 66.609375 
Q 37.3125 66.609375 37.3125 65.484375 
L 37.3125 20.015625 
L 47.125 20.015625 
L 47.125 16.5 
L 37.3125 16.5 
L 37.3125 6.6875 
Q 37.3125 4.640625 40.234375 4.078125 
Q 43.171875 3.515625 47.015625 3.515625 
L 47.015625 0 
L 19.484375 0 
L 19.484375 3.515625 
Q 23.34375 3.515625 26.265625 4.078125 
Q 29.203125 4.640625 29.203125 6.6875 
L 29.203125 16.5 
z
M 6.109375 20.015625 
L 29.78125 20.015625 
L 29.78125 55.421875 
z
" id="Cmr10-52"/>
      <path d="M 7.515625 23 
Q 6.6875 23 6.140625 23.625 
Q 5.609375 24.265625 5.609375 25 
Q 5.609375 25.734375 6.140625 26.359375 
Q 6.6875 27 7.515625 27 
L 36.921875 27 
L 36.921875 56.5 
Q 36.921875 57.28125 37.5 57.78125 
Q 38.09375 58.296875 38.921875 58.296875 
Q 39.65625 58.296875 40.28125 57.78125 
Q 40.921875 57.28125 40.921875 56.5 
L 40.921875 27 
L 70.3125 27 
Q 71.046875 27 71.578125 26.359375 
Q 72.125 25.734375 72.125 25 
Q 72.125 24.265625 71.578125 23.625 
Q 71.046875 23 70.3125 23 
L 40.921875 23 
L 40.921875 -6.5 
Q 40.921875 -7.28125 40.28125 -7.78125 
Q 39.65625 -8.296875 38.921875 -8.296875 
Q 38.09375 -8.296875 37.5 -7.78125 
Q 36.921875 -7.28125 36.921875 -6.5 
L 36.921875 23 
z
" id="Cmr10-43"/>
      <path d="M 25 -2.203125 
Q 18.796875 -2.203125 14.640625 1.09375 
Q 10.5 4.390625 8.21875 9.640625 
Q 5.953125 14.890625 5.078125 20.65625 
Q 4.203125 26.421875 4.203125 32.328125 
Q 4.203125 40.234375 7.28125 48.1875 
Q 10.359375 56.15625 16.328125 61.375 
Q 22.3125 66.609375 30.515625 66.609375 
Q 33.9375 66.609375 36.890625 65.3125 
Q 39.84375 64.015625 41.53125 61.5 
Q 43.21875 58.984375 43.21875 55.421875 
Q 43.21875 53.375 41.828125 51.984375 
Q 40.4375 50.59375 38.375 50.59375 
Q 36.421875 50.59375 35 52 
Q 33.59375 53.421875 33.59375 55.421875 
Q 33.59375 57.375 35 58.78125 
Q 36.421875 60.203125 38.375 60.203125 
L 38.921875 60.203125 
Q 37.640625 62.015625 35.328125 62.859375 
Q 33.015625 63.71875 30.515625 63.71875 
Q 27.484375 63.71875 24.921875 62.390625 
Q 22.359375 61.078125 20.3125 58.828125 
Q 18.265625 56.59375 16.890625 53.875 
Q 15.53125 51.171875 14.765625 47.703125 
Q 14.015625 44.234375 13.8125 41.203125 
Q 13.625 38.1875 13.625 33.59375 
Q 15.375 37.703125 18.59375 40.3125 
Q 21.828125 42.921875 25.875 42.921875 
Q 30.328125 42.921875 33.984375 41.109375 
Q 37.640625 39.3125 40.28125 36.109375 
Q 42.921875 32.90625 44.3125 28.796875 
Q 45.703125 24.703125 45.703125 20.515625 
Q 45.703125 14.65625 43.09375 9.34375 
Q 40.484375 4.046875 35.734375 0.921875 
Q 31 -2.203125 25 -2.203125 
z
M 25 0.984375 
Q 28.859375 0.984375 31.203125 2.734375 
Q 33.546875 4.5 34.640625 7.390625 
Q 35.75 10.296875 36.015625 13.25 
Q 36.28125 16.21875 36.28125 20.515625 
Q 36.28125 26.171875 35.734375 30.171875 
Q 35.203125 34.1875 32.8125 37.234375 
Q 30.421875 40.28125 25.484375 40.28125 
Q 21.4375 40.28125 18.828125 37.546875 
Q 16.21875 34.8125 15.015625 30.640625 
Q 13.8125 26.46875 13.8125 22.609375 
Q 13.8125 21.296875 13.921875 20.609375 
Q 13.921875 20.453125 13.890625 20.359375 
Q 13.875 20.265625 13.8125 20.125 
Q 13.8125 15.828125 14.6875 11.421875 
Q 15.578125 7.03125 18.0625 4 
Q 20.5625 0.984375 25 0.984375 
z
" id="Cmr10-54"/>
     </defs>
     <use transform="translate(0 0.421875)" xlink:href="#Cmsy10-161"/>
     <use transform="translate(77.685547 0.421875)" xlink:href="#Cmr10-52"/>
     <use transform="translate(127.685547 0.421875)" xlink:href="#Cmr10-164"/>
     <use transform="translate(201.534453 -16.584375)scale(0.7)" xlink:href="#Cmr10-48"/>
     <use transform="translate(260.470391 0.421875)" xlink:href="#Cmr10-43"/>
     <use transform="translate(355.714531 0.421875)" xlink:href="#Cmr10-54"/>
     <use transform="translate(405.714531 0.421875)" xlink:href="#Cmr10-164"/>
     <use transform="translate(479.563438 -16.584375)scale(0.7)" xlink:href="#Cmr10-49"/>
     <use transform="translate(538.499375 0.421875)" xlink:href="#Cmsy10-161"/>
     <use transform="translate(633.743516 0.421875)" xlink:href="#Cmr10-50"/>
     <use transform="translate(683.743516 0.421875)" xlink:href="#Cmr10-164"/>
     <use transform="translate(757.592422 -16.584375)scale(0.7)" xlink:href="#Cmr10-50"/>
    </g>
   </g>
  </g>
 </g>
 <defs>
  <clipPath id="pd534af486a">
   <rect height="342.659574" width="347.385913" x="56.707043" y="2.940426"/>
  </clipPath>
 </defs>
</svg>
