<?xml version="1.0" encoding="utf-8" standalone="no"?>
<!DOCTYPE svg PUBLIC "-//W3C//DTD SVG 1.1//EN"
  "http://www.w3.org/Graphics/SVG/1.1/DTD/svg11.dtd">
<svg xmlns:xlink="http://www.w3.org/1999/xlink" width="460.8pt" height="345.6pt" viewBox="0 0 460.8 345.6" xmlns="http://www.w3.org/2000/svg" version="1.1">
 <metadata>
  <rdf:RDF xmlns:dc="http://purl.org/dc/elements/1.1/" xmlns:cc="http://creativecommons.org/ns#" xmlns:rdf="http://www.w3.org/1999/02/22-rdf-syntax-ns#">
   <cc:Work>
    <dc:type rdf:resource="http://purl.org/dc/dcmitype/StillImage"/>
    <dc:date>2023-02-12T23:27:21.582276</dc:date>
    <dc:format>image/svg+xml</dc:format>
    <dc:creator>
     <cc:Agent>
      <dc:title>Matplotlib v3.6.2, https://matplotlib.org/</dc:title>
     </cc:Agent>
    </dc:creator>
   </cc:Work>
  </rdf:RDF>
 </metadata>
 <defs>
  <style type="text/css">*{stroke-linejoin: round; stroke-linecap: butt}</style>
 </defs>
 <g id="figure_1">
  <g id="patch_1">
   <path d="M 0 345.6 
L 460.8 345.6 
L 460.8 0 
L 0 0 
z
" style="fill: #ffffff"/>
  </g>
  <g id="axes_1">
   <g id="patch_2">
    <path d="M 58.387714 345.6 
L 402.412286 345.6 
L 402.412286 1.575429 
L 58.387714 1.575429 
z
" style="fill: #ffffff"/>
   </g>
   <g id="line2d_1">
    <path d="M 65.003572 338.984143 
L 305.580195 98.40752 
" clip-path="url(#p909af814e5)" style="fill: none; stroke: #000000; stroke-linecap: square"/>
   </g>
   <g id="line2d_2">
    <path d="M 65.003572 338.984143 
L 305.580195 98.40752 
" clip-path="url(#p909af814e5)" style="fill: none; stroke: #0000ff; stroke-linecap: square"/>
   </g>
   <g id="matplotlib.axis_1"/>
   <g id="matplotlib.axis_2"/>
   <g id="patch_3">
    <path d="M 185.291883 218.695831 
Q 205.339935 218.695831 223.151919 218.695831 
" clip-path="url(#p909af814e5)" style="fill: none; stroke: #000000; stroke-width: 2; stroke-linecap: round"/>
    <path d="M 213.151919 213.695831 
L 223.151919 218.695831 
L 213.151919 223.695831 
L 213.151919 213.695831 
z
" clip-path="url(#p909af814e5)" style="stroke: #000000; stroke-width: 2; stroke-linecap: round"/>
   </g>
   <g id="patch_4">
    <path d="M 185.291883 218.695831 
Q 185.291883 198.647779 185.291883 180.835795 
" clip-path="url(#p909af814e5)" style="fill: none; stroke: #0000ff; stroke-width: 2; stroke-linecap: round"/>
    <path d="M 180.291883 190.835795 
L 185.291883 180.835795 
L 190.291883 190.835795 
L 180.291883 190.835795 
z
" clip-path="url(#p909af814e5)" style="fill: #0000ff; stroke: #0000ff; stroke-width: 2; stroke-linecap: round"/>
   </g>
   <g id="patch_5">
    <path d="M 185.291883 218.695831 
Q 205.339935 178.599727 224.387987 140.503624 
" clip-path="url(#p909af814e5)" style="fill: none; stroke: #000000; stroke-width: 2; stroke-linecap: round"/>
    <path d="M 215.443715 147.211828 
L 224.387987 140.503624 
L 224.387987 151.683963 
L 215.443715 147.211828 
z
" clip-path="url(#p909af814e5)" style="stroke: #000000; stroke-width: 2; stroke-linecap: round"/>
   </g>
   <g id="patch_6">
    <path d="M 185.291883 218.695831 
Q 225.387987 198.647779 263.484091 179.599727 
" clip-path="url(#p909af814e5)" style="fill: none; stroke: #000000; stroke-width: 2; stroke-linecap: round"/>
    <path d="M 252.303751 179.599727 
L 263.484091 179.599727 
L 256.775887 188.543999 
L 252.303751 179.599727 
z
" clip-path="url(#p909af814e5)" style="stroke: #000000; stroke-width: 2; stroke-linecap: round"/>
   </g>
   <g id="patch_7">
    <path d="M 185.291883 218.695831 
Q 245.436039 178.599727 303.719674 139.743971 
" clip-path="url(#p909af814e5)" style="fill: none; stroke: #000000; stroke-width: 2; stroke-linecap: round"/>
    <path d="M 292.62567 141.130721 
L 303.719674 139.743971 
L 298.172672 149.451224 
L 292.62567 141.130721 
z
" clip-path="url(#p909af814e5)" style="stroke: #000000; stroke-width: 2; stroke-linecap: round"/>
   </g>
   <g id="patch_8">
    <path d="M 185.291883 218.695831 
Q 225.387987 158.551676 264.243744 100.268041 
" clip-path="url(#p909af814e5)" style="fill: none; stroke: #000000; stroke-width: 2; stroke-linecap: round"/>
    <path d="M 254.53649 105.815043 
L 264.243744 100.268041 
L 262.856993 111.362045 
L 254.53649 105.815043 
z
" clip-path="url(#p909af814e5)" style="stroke: #000000; stroke-width: 2; stroke-linecap: round"/>
   </g>
   <g id="patch_9">
    <path d="M 185.291883 218.695831 
Q 245.436039 138.503624 304.238554 60.10027 
" clip-path="url(#p909af814e5)" style="fill: none; stroke: #000000; stroke-width: 2; stroke-linecap: round"/>
    <path d="M 294.238554 65.10027 
L 304.238554 60.10027 
L 302.238554 71.10027 
L 294.238554 65.10027 
z
" clip-path="url(#p909af814e5)" style="stroke: #000000; stroke-width: 2; stroke-linecap: round"/>
   </g>
   <g id="patch_10">
    <path d="M 185.291883 218.695831 
Q 265.484091 158.551676 343.887444 99.749161 
" clip-path="url(#p909af814e5)" style="fill: none; stroke: #000000; stroke-width: 2; stroke-linecap: round"/>
    <path d="M 332.887444 101.749161 
L 343.887444 99.749161 
L 338.887444 109.749161 
L 332.887444 101.749161 
z
" clip-path="url(#p909af814e5)" style="stroke: #000000; stroke-width: 2; stroke-linecap: round"/>
   </g>
   <g id="patch_11">
    <path d="M 185.291883 218.695831 
Q 285.532143 138.503624 384.026327 59.708276 
" clip-path="url(#p909af814e5)" style="fill: none; stroke: #000000; stroke-width: 2; stroke-linecap: round"/>
    <path d="M 373.094163 62.050883 
L 384.026327 59.708276 
L 379.341114 69.859571 
L 373.094163 62.050883 
z
" clip-path="url(#p909af814e5)" style="stroke: #000000; stroke-width: 2; stroke-linecap: round"/>
   </g>
   <g id="patch_12">
    <path d="M 185.291883 218.695831 
Q 265.484091 118.455572 344.279438 19.961388 
" clip-path="url(#p909af814e5)" style="fill: none; stroke: #000000; stroke-width: 2; stroke-linecap: round"/>
    <path d="M 334.128143 24.646601 
L 344.279438 19.961388 
L 341.936832 30.893551 
L 334.128143 24.646601 
z
" clip-path="url(#p909af814e5)" style="stroke: #000000; stroke-width: 2; stroke-linecap: round"/>
   </g>
   <g id="text_1">
    <!-- $\alpha_{0}$ -->
    <g transform="translate(219.442792 222.834894) scale(0.15 -0.15)">
     <defs>
      <path id="Cmmi10-ae" d="M 1288 -72 
Q 984 -72 748 72 
Q 513 216 384 459 
Q 256 703 256 1013 
Q 256 1447 498 1872 
Q 741 2297 1142 2562 
Q 1544 2828 1984 2828 
Q 2309 2828 2556 2658 
Q 2803 2488 2931 2205 
Q 3059 1922 3059 1600 
L 3066 1172 
Q 3284 1475 3436 1801 
Q 3588 2128 3669 2478 
Q 3681 2516 3719 2516 
L 3794 2516 
Q 3853 2516 3853 2456 
Q 3853 2450 3847 2438 
Q 3772 2144 3659 1873 
Q 3547 1603 3395 1350 
Q 3244 1097 3066 891 
Q 3066 97 3250 97 
Q 3369 97 3445 167 
Q 3522 238 3580 341 
Q 3638 444 3653 447 
L 3731 447 
Q 3781 447 3781 384 
Q 3781 225 3598 76 
Q 3416 -72 3238 -72 
Q 3006 -72 2853 78 
Q 2700 228 2644 469 
Q 2344 213 1994 70 
Q 1644 -72 1288 -72 
z
M 1300 97 
Q 1984 97 2613 659 
Q 2609 697 2603 751 
Q 2597 806 2597 813 
L 2597 1503 
Q 2597 2663 1972 2663 
Q 1597 2663 1315 2342 
Q 1034 2022 892 1576 
Q 750 1131 750 763 
Q 750 484 892 290 
Q 1034 97 1300 97 
z
" transform="scale(0.015625)"/>
      <path id="Cmr10-30" d="M 1600 -141 
Q 816 -141 533 504 
Q 250 1150 250 2041 
Q 250 2597 351 3087 
Q 453 3578 754 3920 
Q 1056 4263 1600 4263 
Q 2022 4263 2290 4056 
Q 2559 3850 2700 3523 
Q 2841 3197 2892 2823 
Q 2944 2450 2944 2041 
Q 2944 1491 2842 1011 
Q 2741 531 2444 195 
Q 2147 -141 1600 -141 
z
M 1600 25 
Q 1956 25 2131 390 
Q 2306 756 2347 1200 
Q 2388 1644 2388 2144 
Q 2388 2625 2347 3031 
Q 2306 3438 2132 3767 
Q 1959 4097 1600 4097 
Q 1238 4097 1063 3765 
Q 888 3434 847 3029 
Q 806 2625 806 2144 
Q 806 1788 823 1472 
Q 841 1156 916 820 
Q 991 484 1158 254 
Q 1325 25 1600 25 
z
" transform="scale(0.015625)"/>
     </defs>
     <use xlink:href="#Cmmi10-ae" transform="translate(0 0.8125)"/>
     <use xlink:href="#Cmr10-30" transform="translate(63.916016 -16.19375) scale(0.7)"/>
    </g>
   </g>
   <g id="text_2">
    <!-- $\alpha_{1}$ -->
    <g transform="translate(177.341883 180.733985) scale(0.15 -0.15)">
     <defs>
      <path id="Cmr10-31" d="M 594 0 
L 594 225 
Q 1394 225 1394 428 
L 1394 3788 
Q 1063 3628 556 3628 
L 556 3853 
Q 1341 3853 1741 4263 
L 1831 4263 
Q 1853 4263 1873 4245 
Q 1894 4228 1894 4206 
L 1894 428 
Q 1894 225 2694 225 
L 2694 0 
L 594 0 
z
" transform="scale(0.015625)"/>
     </defs>
     <use xlink:href="#Cmmi10-ae" transform="translate(0 0.8125)"/>
     <use xlink:href="#Cmr10-31" transform="translate(63.916016 -16.19375) scale(0.7)"/>
    </g>
   </g>
   <g id="text_3">
    <!-- $\alpha_{0} + 2 \alpha_{1}$ -->
    <g transform="translate(199.342792 138.633076) scale(0.15 -0.15)">
     <defs>
      <path id="Cmr10-2b" d="M 481 1472 
Q 428 1472 393 1512 
Q 359 1553 359 1600 
Q 359 1647 393 1687 
Q 428 1728 481 1728 
L 2363 1728 
L 2363 3616 
Q 2363 3666 2400 3698 
Q 2438 3731 2491 3731 
Q 2538 3731 2578 3698 
Q 2619 3666 2619 3616 
L 2619 1728 
L 4500 1728 
Q 4547 1728 4581 1687 
Q 4616 1647 4616 1600 
Q 4616 1553 4581 1512 
Q 4547 1472 4500 1472 
L 2619 1472 
L 2619 -416 
Q 2619 -466 2578 -498 
Q 2538 -531 2491 -531 
Q 2438 -531 2400 -498 
Q 2363 -466 2363 -416 
L 2363 1472 
L 481 1472 
z
" transform="scale(0.015625)"/>
      <path id="Cmr10-32" d="M 319 0 
L 319 172 
Q 319 188 331 206 
L 1325 1306 
Q 1550 1550 1690 1715 
Q 1831 1881 1968 2097 
Q 2106 2313 2186 2536 
Q 2266 2759 2266 3009 
Q 2266 3272 2169 3511 
Q 2072 3750 1880 3894 
Q 1688 4038 1416 4038 
Q 1138 4038 916 3870 
Q 694 3703 603 3438 
Q 628 3444 672 3444 
Q 816 3444 917 3347 
Q 1019 3250 1019 3097 
Q 1019 2950 917 2848 
Q 816 2747 672 2747 
Q 522 2747 420 2851 
Q 319 2956 319 3097 
Q 319 3338 409 3548 
Q 500 3759 670 3923 
Q 841 4088 1055 4175 
Q 1269 4263 1509 4263 
Q 1875 4263 2190 4108 
Q 2506 3953 2690 3670 
Q 2875 3388 2875 3009 
Q 2875 2731 2753 2481 
Q 2631 2231 2440 2026 
Q 2250 1822 1953 1562 
Q 1656 1303 1563 1216 
L 838 519 
L 1453 519 
Q 1906 519 2211 526 
Q 2516 534 2534 550 
Q 2609 631 2688 1141 
L 2875 1141 
L 2694 0 
L 319 0 
z
" transform="scale(0.015625)"/>
     </defs>
     <use xlink:href="#Cmmi10-ae" transform="translate(0 0.390625)"/>
     <use xlink:href="#Cmr10-30" transform="translate(63.916016 -16.615625) scale(0.7)"/>
     <use xlink:href="#Cmr10-2b" transform="translate(122.851953 0.390625)"/>
     <use xlink:href="#Cmr10-32" transform="translate(218.096094 0.390625)"/>
     <use xlink:href="#Cmmi10-ae" transform="translate(268.096094 0.390625)"/>
     <use xlink:href="#Cmr10-31" transform="translate(332.012109 -16.615625) scale(0.7)"/>
    </g>
   </g>
   <g id="text_4">
    <!-- $2 \alpha_{0} + \alpha_{1}$ -->
    <g transform="translate(241.443701 180.733985) scale(0.15 -0.15)">
     <use xlink:href="#Cmr10-32" transform="translate(0 0.390625)"/>
     <use xlink:href="#Cmmi10-ae" transform="translate(50 0.390625)"/>
     <use xlink:href="#Cmr10-30" transform="translate(113.916016 -16.615625) scale(0.7)"/>
     <use xlink:href="#Cmr10-2b" transform="translate(172.851953 0.390625)"/>
     <use xlink:href="#Cmmi10-ae" transform="translate(268.096094 0.390625)"/>
     <use xlink:href="#Cmr10-31" transform="translate(332.012109 -16.615625) scale(0.7)"/>
    </g>
   </g>
   <g id="text_5">
    <!-- $3 \alpha_{0} + 2 \alpha_{1}$ -->
    <g transform="translate(279.79461 138.633076) scale(0.15 -0.15)">
     <defs>
      <path id="Cmr10-33" d="M 609 494 
Q 759 275 1012 169 
Q 1266 63 1556 63 
Q 1928 63 2084 380 
Q 2241 697 2241 1100 
Q 2241 1281 2208 1462 
Q 2175 1644 2097 1800 
Q 2019 1956 1883 2050 
Q 1747 2144 1550 2144 
L 1125 2144 
Q 1069 2144 1069 2203 
L 1069 2259 
Q 1069 2309 1125 2309 
L 1478 2338 
Q 1703 2338 1851 2506 
Q 2000 2675 2069 2917 
Q 2138 3159 2138 3378 
Q 2138 3684 1994 3881 
Q 1850 4078 1556 4078 
Q 1313 4078 1091 3986 
Q 869 3894 738 3706 
Q 750 3709 759 3711 
Q 769 3713 781 3713 
Q 925 3713 1022 3613 
Q 1119 3513 1119 3372 
Q 1119 3234 1022 3134 
Q 925 3034 781 3034 
Q 641 3034 541 3134 
Q 441 3234 441 3372 
Q 441 3647 606 3850 
Q 772 4053 1033 4158 
Q 1294 4263 1556 4263 
Q 1750 4263 1965 4205 
Q 2181 4147 2356 4039 
Q 2531 3931 2642 3762 
Q 2753 3594 2753 3378 
Q 2753 3109 2633 2881 
Q 2513 2653 2303 2487 
Q 2094 2322 1844 2241 
Q 2122 2188 2372 2031 
Q 2622 1875 2773 1631 
Q 2925 1388 2925 1106 
Q 2925 753 2731 467 
Q 2538 181 2222 20 
Q 1906 -141 1556 -141 
Q 1256 -141 954 -26 
Q 653 88 461 316 
Q 269 544 269 863 
Q 269 1022 375 1128 
Q 481 1234 641 1234 
Q 744 1234 830 1186 
Q 916 1138 964 1050 
Q 1013 963 1013 863 
Q 1013 706 903 600 
Q 794 494 641 494 
L 609 494 
z
" transform="scale(0.015625)"/>
     </defs>
     <use xlink:href="#Cmr10-33" transform="translate(0 0.390625)"/>
     <use xlink:href="#Cmmi10-ae" transform="translate(50 0.390625)"/>
     <use xlink:href="#Cmr10-30" transform="translate(113.916016 -16.615625) scale(0.7)"/>
     <use xlink:href="#Cmr10-2b" transform="translate(172.851953 0.390625)"/>
     <use xlink:href="#Cmr10-32" transform="translate(268.096094 0.390625)"/>
     <use xlink:href="#Cmmi10-ae" transform="translate(318.096094 0.390625)"/>
     <use xlink:href="#Cmr10-31" transform="translate(382.012109 -16.615625) scale(0.7)"/>
    </g>
   </g>
   <g id="text_6">
    <!-- $2 \alpha_{0} + 3 \alpha_{1}$ -->
    <g transform="translate(237.693701 96.532167) scale(0.15 -0.15)">
     <use xlink:href="#Cmr10-32" transform="translate(0 0.390625)"/>
     <use xlink:href="#Cmmi10-ae" transform="translate(50 0.390625)"/>
     <use xlink:href="#Cmr10-30" transform="translate(113.916016 -16.615625) scale(0.7)"/>
     <use xlink:href="#Cmr10-2b" transform="translate(172.851953 0.390625)"/>
     <use xlink:href="#Cmr10-33" transform="translate(268.096094 0.390625)"/>
     <use xlink:href="#Cmmi10-ae" transform="translate(318.096094 0.390625)"/>
     <use xlink:href="#Cmr10-31" transform="translate(382.012109 -16.615625) scale(0.7)"/>
    </g>
   </g>
   <g id="text_7">
    <!-- $3 \alpha_{0} + 4 \alpha_{1}$ -->
    <g transform="translate(279.79461 54.431258) scale(0.15 -0.15)">
     <defs>
      <path id="Cmr10-34" d="M 178 1056 
L 178 1281 
L 2156 4231 
Q 2178 4263 2222 4263 
L 2316 4263 
Q 2388 4263 2388 4191 
L 2388 1281 
L 3016 1281 
L 3016 1056 
L 2388 1056 
L 2388 428 
Q 2388 297 2575 261 
Q 2763 225 3009 225 
L 3009 0 
L 1247 0 
L 1247 225 
Q 1494 225 1681 261 
Q 1869 297 1869 428 
L 1869 1056 
L 178 1056 
z
M 391 1281 
L 1906 1281 
L 1906 3547 
L 391 1281 
z
" transform="scale(0.015625)"/>
     </defs>
     <use xlink:href="#Cmr10-33" transform="translate(0 0.390625)"/>
     <use xlink:href="#Cmmi10-ae" transform="translate(50 0.390625)"/>
     <use xlink:href="#Cmr10-30" transform="translate(113.916016 -16.615625) scale(0.7)"/>
     <use xlink:href="#Cmr10-2b" transform="translate(172.851953 0.390625)"/>
     <use xlink:href="#Cmr10-34" transform="translate(268.096094 0.390625)"/>
     <use xlink:href="#Cmmi10-ae" transform="translate(318.096094 0.390625)"/>
     <use xlink:href="#Cmr10-31" transform="translate(382.012109 -16.615625) scale(0.7)"/>
    </g>
   </g>
   <g id="text_8">
    <!-- $4 \alpha_{0} + 3 \alpha_{1}$ -->
    <g transform="translate(321.895519 96.532167) scale(0.15 -0.15)">
     <use xlink:href="#Cmr10-34" transform="translate(0 0.390625)"/>
     <use xlink:href="#Cmmi10-ae" transform="translate(50 0.390625)"/>
     <use xlink:href="#Cmr10-30" transform="translate(113.916016 -16.615625) scale(0.7)"/>
     <use xlink:href="#Cmr10-2b" transform="translate(172.851953 0.390625)"/>
     <use xlink:href="#Cmr10-33" transform="translate(268.096094 0.390625)"/>
     <use xlink:href="#Cmmi10-ae" transform="translate(318.096094 0.390625)"/>
     <use xlink:href="#Cmr10-31" transform="translate(382.012109 -16.615625) scale(0.7)"/>
    </g>
   </g>
   <g id="text_9">
    <!-- $5 \alpha_{0} + 4 \alpha_{1}$ -->
    <g transform="translate(363.996428 54.431258) scale(0.15 -0.15)">
     <defs>
      <path id="Cmr10-35" d="M 556 728 
Q 622 541 758 387 
Q 894 234 1080 148 
Q 1266 63 1466 63 
Q 1928 63 2103 422 
Q 2278 781 2278 1294 
Q 2278 1516 2270 1667 
Q 2263 1819 2228 1959 
Q 2169 2184 2020 2353 
Q 1872 2522 1656 2522 
Q 1441 2522 1286 2456 
Q 1131 2391 1034 2303 
Q 938 2216 863 2119 
Q 788 2022 769 2016 
L 697 2016 
Q 681 2016 657 2036 
Q 634 2056 634 2075 
L 634 4213 
Q 634 4228 654 4245 
Q 675 4263 697 4263 
L 716 4263 
Q 1147 4056 1631 4056 
Q 2106 4056 2547 4263 
L 2566 4263 
Q 2588 4263 2606 4247 
Q 2625 4231 2625 4213 
L 2625 4153 
Q 2625 4122 2613 4122 
Q 2394 3831 2064 3668 
Q 1734 3506 1381 3506 
Q 1125 3506 856 3578 
L 856 2369 
Q 1069 2541 1236 2614 
Q 1403 2688 1663 2688 
Q 2016 2688 2295 2484 
Q 2575 2281 2725 1954 
Q 2875 1628 2875 1288 
Q 2875 903 2686 575 
Q 2497 247 2172 53 
Q 1847 -141 1466 -141 
Q 1150 -141 886 21 
Q 622 184 470 459 
Q 319 734 319 1044 
Q 319 1188 412 1278 
Q 506 1369 647 1369 
Q 788 1369 883 1276 
Q 978 1184 978 1044 
Q 978 906 883 811 
Q 788 716 647 716 
Q 625 716 597 720 
Q 569 725 556 728 
z
" transform="scale(0.015625)"/>
     </defs>
     <use xlink:href="#Cmr10-35" transform="translate(0 0.390625)"/>
     <use xlink:href="#Cmmi10-ae" transform="translate(50 0.390625)"/>
     <use xlink:href="#Cmr10-30" transform="translate(113.916016 -16.615625) scale(0.7)"/>
     <use xlink:href="#Cmr10-2b" transform="translate(172.851953 0.390625)"/>
     <use xlink:href="#Cmr10-34" transform="translate(268.096094 0.390625)"/>
     <use xlink:href="#Cmmi10-ae" transform="translate(318.096094 0.390625)"/>
     <use xlink:href="#Cmr10-31" transform="translate(382.012109 -16.615625) scale(0.7)"/>
    </g>
   </g>
   <g id="text_10">
    <!-- $4 \alpha_{0} + 5 \alpha_{1}$ -->
    <g transform="translate(321.895519 12.330349) scale(0.15 -0.15)">
     <use xlink:href="#Cmr10-34" transform="translate(0 0.390625)"/>
     <use xlink:href="#Cmmi10-ae" transform="translate(50 0.390625)"/>
     <use xlink:href="#Cmr10-30" transform="translate(113.916016 -16.615625) scale(0.7)"/>
     <use xlink:href="#Cmr10-2b" transform="translate(172.851953 0.390625)"/>
     <use xlink:href="#Cmr10-35" transform="translate(268.096094 0.390625)"/>
     <use xlink:href="#Cmmi10-ae" transform="translate(318.096094 0.390625)"/>
     <use xlink:href="#Cmr10-31" transform="translate(382.012109 -16.615625) scale(0.7)"/>
    </g>
   </g>
   <g id="text_11">
    <!-- $H_{\alpha^\vee_{0}}$ -->
    <g transform="translate(297.11961 94.868104) scale(0.15 -0.15)">
     <defs>
      <path id="Cmmi10-48" d="M 300 0 
Q 238 0 238 84 
Q 241 100 250 139 
Q 259 178 276 201 
Q 294 225 319 225 
Q 709 225 863 269 
Q 947 297 984 441 
L 1863 3956 
Q 1875 4019 1875 4044 
Q 1875 4113 1797 4122 
Q 1678 4147 1338 4147 
Q 1275 4147 1275 4231 
Q 1297 4313 1309 4342 
Q 1322 4372 1381 4372 
L 3103 4372 
Q 3169 4372 3169 4288 
Q 3166 4272 3156 4234 
Q 3147 4197 3131 4172 
Q 3116 4147 3084 4147 
Q 2694 4147 2541 4103 
Q 2456 4072 2419 3928 
L 2034 2388 
L 3956 2388 
L 4347 3956 
Q 4359 4019 4359 4044 
Q 4359 4113 4281 4122 
Q 4159 4147 3822 4147 
Q 3756 4147 3756 4231 
Q 3778 4313 3790 4342 
Q 3803 4372 3866 4372 
L 5588 4372 
Q 5650 4372 5650 4288 
Q 5647 4272 5637 4233 
Q 5628 4194 5611 4170 
Q 5594 4147 5569 4147 
Q 5178 4147 5025 4103 
Q 4941 4075 4903 3928 
L 4025 416 
Q 4013 353 4013 325 
Q 4013 259 4091 250 
Q 4213 225 4550 225 
Q 4616 225 4616 141 
Q 4597 66 4578 33 
Q 4559 0 4506 0 
L 2784 0 
Q 2719 0 2719 84 
Q 2731 131 2737 153 
Q 2744 175 2761 200 
Q 2778 225 2803 225 
Q 3194 225 3347 269 
Q 3431 297 3469 441 
L 3897 2163 
L 1978 2163 
L 1544 416 
Q 1528 338 1528 325 
Q 1528 259 1606 250 
Q 1728 225 2069 225 
Q 2131 225 2131 141 
Q 2109 56 2095 28 
Q 2081 0 2022 0 
L 300 0 
z
" transform="scale(0.015625)"/>
      <path id="Cmsy10-5f" d="M 2016 -63 
L 372 3653 
Q 359 3669 359 3700 
Q 359 3747 396 3787 
Q 434 3828 488 3828 
Q 559 3828 609 3750 
L 2131 300 
L 3659 3750 
Q 3697 3828 3775 3828 
Q 3828 3828 3865 3790 
Q 3903 3753 3903 3700 
Q 3903 3669 3897 3653 
L 2253 -63 
Q 2213 -141 2131 -141 
Q 2047 -141 2016 -63 
z
" transform="scale(0.015625)"/>
     </defs>
     <use xlink:href="#Cmmi10-48" transform="translate(0 0.6875)"/>
     <use xlink:href="#Cmmi10-ae" transform="translate(83.105469 -16.31875) scale(0.7)"/>
     <use xlink:href="#Cmsy10-5f" transform="translate(140.862688 10.466094) scale(0.49)"/>
     <use xlink:href="#Cmr10-30" transform="translate(127.84668 -34.175313) scale(0.49)"/>
    </g>
   </g>
   <g id="text_12">
    <!-- $H_{\alpha^\vee_{1}}$ -->
    <g transform="translate(297.11961 94.943104) scale(0.15 -0.15)">
     <use xlink:href="#Cmmi10-48" transform="translate(0 0.6875)"/>
     <use xlink:href="#Cmmi10-ae" transform="translate(83.105469 -16.31875) scale(0.7)"/>
     <use xlink:href="#Cmsy10-5f" transform="translate(140.862688 10.466094) scale(0.49)"/>
     <use xlink:href="#Cmr10-31" transform="translate(127.84668 -34.175313) scale(0.49)"/>
    </g>
   </g>
  </g>
 </g>
 <defs>
  <clipPath id="p909af814e5">
   <rect x="58.387714" y="1.575429" width="344.024571" height="344.024571"/>
  </clipPath>
 </defs>
</svg>
